<svg xmlns="http://www.w3.org/2000/svg"
    viewBox="0 0 2600 2400">
  <!--
Copyright 2013 Google LLC
Noto is a trademark of Google Inc.
This Font Software is licensed under the SIL Open Font License, Version 1.1. This Font Software is distributed on an "AS IS" BASIS, WITHOUT WARRANTIES OR CONDITIONS OF ANY KIND, either express or implied. See the SIL Open Font License for the specific language, permissions and limitations governing your use of this Font Software.
http://scripts.sil.org/OFL
  -->
<path d="M1745 2240L855 2240Q759 2240 708 2224 657 2208 637.5 2157 618 2106 614 2001L614 2001 575 736Q571 623 617.5 575 664 527 785 527L785 527 1815 527Q1936 527 1982.5 575 2029 623 2025 736L2025 736 1986 2001Q1983 2106 1963 2157 1943 2208 1892.5 2224 1842 2240 1745 2240L1745 2240ZM1565 2054L1565 2054Q1546 2054 1534 2043 1522 2032 1522 2015L1522 2015Q1522 1998 1533.5 1986.5 1545 1975 1563 1974L1563 1974Q1651 1970 1682.5 1941.5 1714 1913 1717 1835L1717 1835Q1718 1817 1729.5 1805.5 1741 1794 1758 1794L1758 1794Q1797 1794 1797 1839L1797 1839Q1797 1944 1738.5 1999 1680 2054 1565 2054ZM1035 1222L1051 1467 1267 1463 1259 1219 1035 1222ZM855 2160L855 2160 1745 2160Q1819 2160 1852 2151 1885 2142 1894.5 2108 1904 2074 1906 1999L1906 1999 1945 736Q1947 678 1938.5 650.5 1930 623 1901.5 615 1873 607 1815 607L1815 607 785 607Q728 607 699 615 670 623 661.5 650.5 653 678 655 736L655 736 694 1999Q697 2074 706 2108 715 2142 748.5 2151 782 2160 855 2160ZM1321 1957L1321 1957Q1302 1957 1292 1945 1282 1933 1280 1902L1280 1902 1266 1536 1051 1536Q1051 1590 1028 1590L1028 1590Q1019 1590 1013 1582.5 1007 1575 1001 1550L1001 1550 899 1121Q896 1107 904 1098 912 1089 928 1089L928 1089Q952 1089 976 1106 1000 1123 1014 1152L1014 1152 1252 1139 1252 970Q1221 935 1206.5 913 1192 891 1192 881L1192 881Q1192 872 1210 855 1228 838 1246 838L1246 838Q1263 838 1287 846.5 1311 855 1336 869L1336 869Q1396 901 1396 942L1396 942Q1396 962 1380 984L1380 984 1380 1131 1558 1114Q1586 1111 1613.5 1098.5 1641 1086 1657 1086L1657 1086Q1674 1086 1698.5 1100.5 1723 1115 1749 1133L1749 1133 1749 1160Q1736 1172 1723.5 1190 1711 1208 1704 1233L1704 1233 1642 1458Q1668 1473 1676.5 1486 1685 1499 1686 1518L1686 1518Q1686 1534 1673 1534L1673 1534 1374 1536 1360 1902Q1359 1933 1348.5 1945 1338 1957 1321 1957ZM798 975L798 975Q781 975 769.5 963 758 951 759 932L759 932Q764 818 820 766.5 876 715 992 715L992 715Q1011 715 1023 726 1035 737 1035 754L1035 754Q1035 771 1023.5 782.5 1012 794 994 795L994 795Q906 799 874 827.5 842 856 839 934L839 934Q838 952 826.5 963.5 815 975 798 975ZM1374 1216L1374 1460 1563 1460 1599 1256 1580 1213 1374 1216ZM673 580L588 692Q588 593 599 528 610 463 645.5 427.5 681 392 753 384L753 384Q816 376 954.5 372.5 1093 369 1300 369L1300 369Q1507 369 1645.5 372.5 1784 376 1847 384L1847 384Q1920 392 1955 427.5 1990 463 2001 528 2012 593 2012 692L2012 692 1927 580 673 580ZM699 504L619 498Q631 368 654.5 298 678 228 725 200 772 172 854 169L854 169Q970 164 1077.5 162 1185 160 1300 160L1300 160Q1416 160 1523.5 162 1631 164 1746 169L1746 169Q1828 172 1875 200 1922 228 1945.5 298 1969 368 1981 498L1981 498 1901 504Q1891 392 1876 339 1861 286 1830.5 268.5 1800 251 1742 249L1742 249Q1628 244 1522 242 1416 240 1300 240L1300 240Q1185 240 1078.5 242 972 244 858 249L858 249Q800 251 769.5 268.5 739 286 724.5 339 710 392 699 504L699 504Z"/>
</svg>