<svg xmlns="http://www.w3.org/2000/svg"
    viewBox="0 0 2600 2400">
  <!--
Copyright 2013, 2022 Google Inc. All Rights Reserved.
Noto is a trademark of Google Inc.
This Font Software is licensed under the SIL Open Font License, Version 1.1. This Font Software is distributed on an "AS IS" BASIS, WITHOUT WARRANTIES OR CONDITIONS OF ANY KIND, either express or implied. See the SIL Open Font License for the specific language, permissions and limitations governing your use of this Font Software.
http://scripts.sil.org/OFL
  -->
<path d="M1302 2012L1302 2012Q1436 2012 1531 1949.5 1626 1887 1685.5 1775.5 1745 1664 1772.5 1516 1800 1368 1800 1197L1800 1197Q1800 1027 1772.5 879.5 1745 732 1685.5 621.5 1626 511 1531 449 1436 387 1302 387L1302 387Q1052 387 926 588.5 800 790 800 1195L800 1195Q800 1363 827 1511 854 1659 913.5 1771.5 973 1884 1069 1948 1165 2012 1302 2012ZM1300 1843L1300 1843Q1150 1843 1072.5 1680 995 1517 995 1198L995 1198Q995 881 1071.5 718.5 1148 556 1303 556L1303 556Q1452 556 1528 717 1604 878 1604 1198L1604 1198Q1604 1522 1526.5 1682.5 1449 1843 1300 1843ZM2175 2240L426 2240Q358 2240 309 2191.5 260 2143 260 2076L260 2076 260 325Q260 257 309 208.5 358 160 425 160L425 160 2175 160Q2243 160 2291.5 208.5 2340 257 2340 325L2340 325 2340 2075Q2340 2142 2291.5 2191 2243 2240 2175 2240L2175 2240Z"/>
</svg>