<svg xmlns="http://www.w3.org/2000/svg"
    viewBox="0 0 2600 2400">
  <!--
Copyright 2013, 2022 Google Inc. All Rights Reserved.
Noto is a trademark of Google Inc.
This Font Software is licensed under the SIL Open Font License, Version 1.1. This Font Software is distributed on an "AS IS" BASIS, WITHOUT WARRANTIES OR CONDITIONS OF ANY KIND, either express or implied. See the SIL Open Font License for the specific language, permissions and limitations governing your use of this Font Software.
http://scripts.sil.org/OFL
  -->
<path d="M1975 1167L1975 1167Q1975 1346 1927 1490.5 1879 1635 1784 1735.5 1689 1836 1549 1884L1549 1884 1899 2248 1635 2248 1352 1918Q1340 1918 1326.5 1919 1313 1920 1301 1920L1301 1920Q1073 1920 923 1825.5 773 1731 699 1561 625 1391 625 1165L625 1165Q625 940 699 771.5 773 603 923.5 509 1074 415 1303 415L1303 415Q1522 415 1672 508 1822 601 1898.5 770 1975 939 1975 1167ZM819 1167L819 1167Q819 1351 870.5 1484 922 1617 1029 1689 1136 1761 1301 1761L1301 1761Q1467 1761 1573 1689 1679 1617 1729.5 1484 1780 1351 1780 1167L1780 1167Q1780 890 1665.5 733.5 1551 577 1303 577L1303 577Q1137 577 1030 647.5 923 718 871 850 819 982 819 1167Z"/>
</svg>