<svg xmlns="http://www.w3.org/2000/svg"
    viewBox="0 0 2600 2400">
  <!--
Copyright 2013, 2022 Google Inc. All Rights Reserved.
Noto is a trademark of Google Inc.
This Font Software is licensed under the SIL Open Font License, Version 1.1. This Font Software is distributed on an "AS IS" BASIS, WITHOUT WARRANTIES OR CONDITIONS OF ANY KIND, either express or implied. See the SIL Open Font License for the specific language, permissions and limitations governing your use of this Font Software.
http://scripts.sil.org/OFL
  -->
<path d="M2175 2240L426 2240Q358 2240 309 2191.5 260 2143 260 2076L260 2076 260 325Q260 257 309 208.5 358 160 425 160L425 160 2175 160Q2243 160 2291.5 208.5 2340 257 2340 325L2340 325 2340 2075Q2340 2142 2291.5 2191 2243 2240 2175 2240L2175 2240ZM1054 1671L1051 1757 1164 1757Q1162 1722 1160.5 1678 1159 1634 1159 1607L1159 1607 1159 831Q1159 804 1160.5 770 1162 736 1164 710L1164 710Q1151 711 1134 711.5 1117 712 1103 712L1103 712 703 712Q660 712 617 704L617 704 617 842Q631 840 656 838.5 681 837 703 837L703 837 1054 837 1054 1544 699 1544Q674 1544 650 1541 626 1538 611 1534L611 1534 611 1677Q628 1673 652.5 1672 677 1671 700 1671L700 1671 1054 1671ZM1875 1671L1872 1757 1985 1757Q1983 1722 1981.5 1678 1980 1634 1980 1607L1980 1607 1980 831Q1980 804 1981.5 770 1983 736 1985 710L1985 710Q1972 711 1955 711.5 1938 712 1924 712L1924 712 1524 712Q1481 712 1438 704L1438 704 1438 842Q1452 840 1477 838.5 1502 837 1524 837L1524 837 1875 837 1875 1544 1520 1544Q1495 1544 1471 1541 1447 1538 1432 1534L1432 1534 1432 1677Q1449 1673 1473.5 1672 1498 1671 1521 1671L1521 1671 1875 1671Z"/>
</svg>