<svg xmlns="http://www.w3.org/2000/svg"
    viewBox="0 0 2600 2400">
  <!--
Copyright 2013 Google LLC
Noto is a trademark of Google Inc.
This Font Software is licensed under the SIL Open Font License, Version 1.1. This Font Software is distributed on an "AS IS" BASIS, WITHOUT WARRANTIES OR CONDITIONS OF ANY KIND, either express or implied. See the SIL Open Font License for the specific language, permissions and limitations governing your use of this Font Software.
http://scripts.sil.org/OFL
  -->
<path d="M1231 1469L1231 1895 1350 1895 1350 1469 1789 1469 1789 1550 1907 1550 1907 673 1350 673 1350 466 1231 466 1231 673 692 673 692 1558 807 1558 807 1469 1231 1469ZM1231 1356L807 1356 807 1119 1231 1119 1231 1356ZM1231 1011L807 1011 807 784 1231 784 1231 1011ZM1789 1356L1350 1356 1350 1119 1789 1119 1789 1356ZM1789 1011L1350 1011 1350 784 1789 784 1789 1011ZM2175 2240L426 2240Q358 2240 309 2191.5 260 2143 260 2076L260 2076 260 325Q260 257 309 208.5 358 160 425 160L425 160 2175 160Q2243 160 2291.5 208.5 2340 257 2340 325L2340 325 2340 2075Q2340 2142 2291.5 2191 2243 2240 2175 2240L2175 2240Z"/>
</svg>