<svg xmlns="http://www.w3.org/2000/svg"
    viewBox="0 0 2600 2400">
  <!--
Copyright 2013 Google LLC
Noto is a trademark of Google Inc.
This Font Software is licensed under the SIL Open Font License, Version 1.1. This Font Software is distributed on an "AS IS" BASIS, WITHOUT WARRANTIES OR CONDITIONS OF ANY KIND, either express or implied. See the SIL Open Font License for the specific language, permissions and limitations governing your use of this Font Software.
http://scripts.sil.org/OFL
  -->
<path d="M1303 2200L1303 2200Q1103 2200 926.5 2122 750 2044 615 1907.5 480 1771 403 1592.5 326 1414 326 1213L326 1213Q326 988 415 802 504 616 658.5 481.5 813 347 1012 273.5 1211 200 1430 200L1430 200Q1565 200 1690.5 234.5 1816 269 1922 327.5 2028 386 2107 458 2186 530 2230 606 2274 682 2274 750L2274 750Q2274 794 2257.5 814.5 2241 835 2217 835L2217 835Q2186 835 2146.5 796 2107 757 2050 699.5 1993 642 1910 584 1827 526 1709.5 487 1592 448 1430 448L1430 448Q1259 448 1110.5 506.5 962 565 849.5 669.5 737 774 674 913 611 1052 611 1213L611 1213Q611 1361 664.5 1490 718 1619 813 1716.5 908 1814 1033.5 1869 1159 1924 1303 1924L1303 1924Q1427 1924 1534 1881 1641 1838 1721.5 1761.5 1802 1685 1847 1583.5 1892 1482 1892 1365L1892 1365Q1892 1230 1831 1122.5 1770 1015 1665.5 952.5 1561 890 1430 890L1430 890Q1276 890 1181.5 979 1087 1068 1087 1213L1087 1213Q1087 1334 1152 1399.5 1217 1465 1303 1465L1303 1465Q1365 1465 1403 1438.5 1441 1412 1441 1365L1441 1365Q1441 1332 1420 1308.5 1399 1285 1372 1263.5 1345 1242 1324 1216.5 1303 1191 1303 1154L1303 1154Q1303 1113 1330.5 1089.5 1358 1066 1403 1066L1403 1066Q1466 1066 1525 1110.5 1584 1155 1621.5 1223.5 1659 1292 1659 1365L1659 1365Q1659 1461 1612.5 1537.5 1566 1614 1485.5 1658.5 1405 1703 1303 1703L1303 1703Q1171 1703 1066 1638.5 961 1574 900 1463 839 1352 839 1213L839 1213Q839 1048 916.5 917 994 786 1128 709.5 1262 633 1430 633L1430 633Q1583 633 1715.5 689 1848 745 1947.5 845 2047 945 2103 1078 2159 1211 2159 1365L2159 1365Q2159 1539 2093 1690.5 2027 1842 1910 1956.5 1793 2071 1637.5 2135.5 1482 2200 1303 2200Z"/>
</svg>