<svg xmlns="http://www.w3.org/2000/svg"
    viewBox="0 0 2600 2400">
  <!--
Copyright 2013 Google LLC
Noto is a trademark of Google Inc.
This Font Software is licensed under the SIL Open Font License, Version 1.1. This Font Software is distributed on an "AS IS" BASIS, WITHOUT WARRANTIES OR CONDITIONS OF ANY KIND, either express or implied. See the SIL Open Font License for the specific language, permissions and limitations governing your use of this Font Software.
http://scripts.sil.org/OFL
  -->
<path d="M1300 2240L1300 2240Q1087 2240 901 2159 715 2078 574 1935 433 1792 354 1603.5 275 1415 275 1200L275 1200Q275 985 354 796.5 433 608 574 465 715 322 901 241 1087 160 1300 160L1300 160Q1513 160 1699 241 1885 322 2026 465 2167 608 2246 796.5 2325 985 2325 1200L2325 1200Q2325 1415 2246 1603.5 2167 1792 2026 1935 1885 2078 1699 2159 1513 2240 1300 2240ZM1285 1754L1285 1754 1275 1675Q1314 1671 1350 1657 1386 1643 1414 1625L1414 1625 1458 1689Q1385 1739 1285 1754ZM1300 1576L1300 1576Q1139 1576 1018 1480L1018 1480 1071 1416Q1168 1496 1300 1496L1300 1496Q1432 1496 1529 1416L1529 1416 1582 1480Q1461 1576 1300 1576ZM872 1151L872 1151Q833 1151 803 1125.5 773 1100 773 1048L773 1048Q773 989 812 953.5 851 918 916 918L916 918Q988 918 1047.5 966.5 1107 1015 1129 1105L1129 1105 1072 1117Q1050 1085 1025.5 1064.5 1001 1044 975 1044L975 1044Q967 1044 963 1052 959 1060 959 1068L959 1068Q959 1093 942 1122 925 1151 872 1151ZM1300 2160L1300 2160Q1496 2160 1667.5 2085.5 1839 2011 1968.5 1879 2098 1747 2171.5 1573 2245 1399 2245 1200L2245 1200Q2245 1001 2172 827 2099 653 1969 521 1839 389 1668 314.5 1497 240 1300 240L1300 240Q1104 240 932.5 314.5 761 389 631 521 501 653 428 827 355 1001 355 1200L355 1200Q355 1399 428 1573 501 1747 631 1879 761 2011 932.5 2085.5 1104 2160 1300 2160ZM1292 1383L1292 1383Q1254 1383 1209 1366L1209 1366 1235 1292Q1271 1303 1292 1303L1292 1303Q1312 1303 1324.5 1290.5 1337 1278 1337 1261L1337 1261Q1337 1218 1314 1179 1291 1140 1268 1096 1245 1052 1245 996L1245 996Q1245 951 1267 911 1289 871 1324 850L1324 850 1361 922Q1345 932 1335 953 1325 974 1325 996L1325 996Q1325 1033 1348 1073.5 1371 1114 1394 1160 1417 1206 1417 1261L1417 1261Q1417 1316 1382.5 1349.5 1348 1383 1292 1383ZM1572 1151L1572 1151Q1533 1151 1503 1125.5 1473 1100 1473 1048L1473 1048Q1473 989 1512 953.5 1551 918 1616 918L1616 918Q1688 918 1747.5 966.5 1807 1015 1829 1105L1829 1105 1772 1117Q1750 1085 1725.5 1064.5 1701 1044 1675 1044L1675 1044Q1667 1044 1663 1052 1659 1060 1659 1068L1659 1068Q1659 1093 1642 1122 1625 1151 1572 1151Z"/>
</svg>