<svg xmlns="http://www.w3.org/2000/svg"
    viewBox="0 0 2600 2400">
  <!--
Copyright 2013 Google LLC
Noto is a trademark of Google Inc.
This Font Software is licensed under the SIL Open Font License, Version 1.1. This Font Software is distributed on an "AS IS" BASIS, WITHOUT WARRANTIES OR CONDITIONS OF ANY KIND, either express or implied. See the SIL Open Font License for the specific language, permissions and limitations governing your use of this Font Software.
http://scripts.sil.org/OFL
  -->
<path d="M1252 2240L1252 2240Q1173 2240 1099 2189.5 1025 2139 957 2053 889 1967 827.5 1858.5 766 1750 710.5 1632 655 1514 606 1400.5 557 1287 515.5 1191 474 1095 440 1031L440 1031 398 952Q353 868 306 817.5 259 767 219 736 179 705 154.5 680 130 655 130 621L130 621Q130 586 160 565.5 190 545 239 545L239 545Q380 545 486.5 605.5 593 666 673.5 774.5 754 883 817 1026L817 1026 882 1172Q933 1286 972 1394 1011 1502 1046 1583.5 1081 1665 1120 1703L1120 1703Q1141 1622 1196 1563 1251 1504 1328 1472 1405 1440 1491 1440L1491 1440Q1609 1440 1699 1488.5 1789 1537 1840 1621.5 1891 1706 1891 1815L1891 1815Q1891 1864 1872 1892 1853 1920 1818 1920L1818 1920Q1772 1920 1739.5 1894.5 1707 1869 1676.5 1835 1646 1801 1608 1775.5 1570 1750 1514 1750L1514 1750Q1445 1750 1412.5 1797.5 1380 1845 1380 1938L1380 1938Q1380 1973 1384 2006.5 1388 2040 1388 2075L1388 2075Q1388 2148 1350 2194 1312 2240 1252 2240ZM1252 2160L1252 2160Q1282 2160 1295 2137.5 1308 2115 1308 2065L1308 2065Q1308 2041 1304 2007 1300 1973 1300 1938L1300 1938Q1300 1807 1354.5 1738.5 1409 1670 1514 1670L1514 1670Q1582 1670 1627.5 1693.5 1673 1717 1703 1747.5 1733 1778 1754 1801.5 1775 1825 1793 1825L1793 1825Q1802 1825 1807 1816 1812 1807 1812 1787L1812 1787Q1812 1724 1773 1662.5 1734 1601 1662 1560.5 1590 1520 1491 1520L1491 1520Q1400 1520 1324 1565.5 1248 1611 1201 1689.5 1154 1768 1148 1868L1148 1868Q1102 1823 1063.5 1765.5 1025 1708 992 1641.5 959 1575 928.5 1503.5 898 1432 868.5 1358.5 839 1285 808 1212L808 1212 746 1068Q688 933 617.5 835 547 737 452 683 357 629 223 627L223 627Q218 627 218 630L218 630Q218 631 222 634L222 634Q267 665 312 709 357 753 396.5 802.5 436 852 462 902L462 902 504 981Q539 1046 586.5 1157 634 1268 692 1401.5 750 1535 816.5 1668 883 1801 954.5 1912.5 1026 2024 1101.5 2092 1177 2160 1252 2160ZM1136 1731L1136 1731 1092 1731Q1055 1633 1045 1562.5 1035 1492 1035 1429L1035 1429Q1035 1308 1081.5 1190 1128 1072 1207 977.5 1286 883 1381 835L1381 835 1407 877Q1305 983 1253 1097.5 1201 1212 1201 1357L1201 1357Q1254 1257 1365 1198.5 1476 1140 1613 1140L1613 1140Q1702 1140 1796 1165.5 1890 1191 1977 1239L1977 1239 1971 1294Q1885 1243 1814.5 1220.5 1744 1198 1676 1198L1676 1198Q1537 1198 1431 1256.5 1325 1315 1251.5 1433.5 1178 1552 1136 1731ZM1720 1414L1720 1414Q1654 1400 1619 1355 1584 1310 1584 1240L1584 1240Q1584 1227 1585 1213.5 1586 1200 1589 1186L1589 1186Q1726 1215 1726 1357L1726 1357Q1726 1384 1720 1414ZM903 1090L903 1333 825 1170 825 1070Q825 938 867 807 909 676 982 559.5 1055 443 1149.5 353 1244 263 1350.5 211.5 1457 160 1565 160L1565 160Q1591 160 1603.5 168.5 1616 177 1616 191L1616 191Q1616 216 1569.5 264.5 1523 313 1454.5 384 1386 455 1317 550.5 1248 646 1201.5 765.5 1155 885 1155 1030L1155 1030 1155 1125 1075 1259 1075 1030Q1075 885 1123 743 1171 601 1261.5 474.5 1352 348 1477 251L1477 251Q1375 281 1287 342.5 1199 404 1128.5 488 1058 572 1007.5 671.5 957 771 930 877.5 903 984 903 1090L903 1090ZM1879 1421L1879 1421Q1813 1407 1778 1362 1743 1317 1743 1247L1743 1247Q1743 1234 1744 1220.5 1745 1207 1748 1193L1748 1193Q1885 1222 1885 1364L1885 1364Q1885 1391 1879 1421ZM2041 1528L2041 1528Q1922 1481 1922 1358L1922 1358Q1922 1307 1942 1256L1942 1256Q2061 1303 2061 1424L2061 1424Q2061 1475 2041 1528ZM1610 1157L1610 1157Q1602 1157 1593 1156.5 1584 1156 1574 1155L1574 1155Q1591 1063 1639 1014 1687 965 1758 965L1758 965Q1767 965 1776.5 965.5 1786 966 1796 968L1796 968Q1781 1059 1731.5 1108 1682 1157 1610 1157ZM1505 947L1505 947Q1423 947 1360 876L1360 876Q1423 804 1505 804L1505 804Q1586 804 1650 876L1650 876Q1585 947 1505 947ZM1329 903L1329 903Q1312 867 1312 822L1312 822Q1312 740 1356.5 673.5 1401 607 1469 586L1469 586Q1480 613 1480 648L1480 648Q1480 717 1439 786.5 1398 856 1329 903ZM2273 1555L2273 1555Q2185 1552 2135.5 1493.5 2086 1435 2086 1333L2086 1333Q2175 1336 2224 1393.5 2273 1451 2273 1555ZM1850 1189L1850 1189Q1792 1189 1739 1165L1739 1165Q1771 1103 1821.5 1073.5 1872 1044 1927 1044L1927 1044Q1992 1044 2051 1082L2051 1082Q2010 1138 1957.5 1163.5 1905 1189 1850 1189ZM2066 1307L2066 1307Q1984 1307 1921 1236L1921 1236Q1984 1164 2066 1164L2066 1164Q2147 1164 2211 1236L2211 1236Q2146 1307 2066 1307ZM1756 843L1756 843Q1653 843 1602 756L1602 756Q1665 705 1730 705L1730 705Q1828 705 1883 805L1883 805Q1816 843 1756 843ZM1505 736L1505 736Q1501 721 1501 700L1501 700Q1501 655 1526 608.5 1551 562 1594 524.5 1637 487 1690 469L1690 469Q1692 483 1693.5 497.5 1695 512 1695 526L1695 526Q1695 617 1641.5 676.5 1588 736 1505 736ZM1718 663L1718 663Q1718 607 1744.5 559 1771 511 1814.5 482 1858 453 1909 453L1909 453Q1909 553 1859 608 1809 663 1718 663ZM2007 787L2007 787Q1947 787 1901 756.5 1855 726 1835 671L1835 671Q1891 640 1941 640L1941 640Q1996 640 2039 674 2082 708 2104 768L2104 768Q2049 787 2007 787ZM2328 819L2328 819Q2225 819 2165.5 769 2106 719 2106 632L2106 632Q2210 632 2269 681.5 2328 731 2328 819ZM2010 602L2010 602Q1983 602 1951 593L1951 593Q1951 524 2005.5 478.5 2060 433 2134 433L2134 433Q2167 433 2202 444L2202 444Q2138 602 2010 602ZM2332 639L2332 639Q2253 639 2193 571L2193 571Q2253 503 2332 503L2332 503Q2410 503 2470 571L2470 571Q2410 639 2332 639Z"/>
</svg>