<svg xmlns="http://www.w3.org/2000/svg"
    viewBox="0 0 2600 2400">
  <!--
Copyright 2013 Google LLC
Noto is a trademark of Google Inc.
This Font Software is licensed under the SIL Open Font License, Version 1.1. This Font Software is distributed on an "AS IS" BASIS, WITHOUT WARRANTIES OR CONDITIONS OF ANY KIND, either express or implied. See the SIL Open Font License for the specific language, permissions and limitations governing your use of this Font Software.
http://scripts.sil.org/OFL
  -->
<path d="M1300 2240L1300 2240Q1068 2240 865 2168.5 662 2097 508 1972 354 1847 267 1683.5 180 1520 180 1336L180 1336Q180 1180 241.5 1038.5 303 897 409 787 515 677 649.5 613.5 784 550 930 550L930 550Q989 550 1048.5 559.5 1108 569 1164 598L1164 598 1144 676Q1098 650 1048.5 639 999 628 930 628L930 628Q800 628 679.5 686 559 744 464.5 844 370 944 315 1071 260 1198 260 1336L260 1336Q260 1504 341.5 1653.5 423 1803 566.5 1917.5 710 2032 898 2097 1086 2162 1300 2162L1300 2162Q1514 2162 1702 2097 1890 2032 2033.5 1917.5 2177 1803 2258.5 1653.5 2340 1504 2340 1336L2340 1336Q2340 1198 2285 1071 2230 944 2135.5 844 2041 744 1921 686 1801 628 1670 628L1670 628Q1601 628 1551.5 639 1502 650 1456 676L1456 676 1436 598Q1492 569 1552 559.5 1612 550 1670 550L1670 550Q1816 550 1950.5 613.5 2085 677 2191 787 2297 897 2358.5 1038.5 2420 1180 2420 1336L2420 1336Q2420 1520 2333 1683.5 2246 1847 2092 1972 1938 2097 1735 2168.5 1532 2240 1300 2240ZM669 1657L669 1657Q651 1657 634.5 1640.5 618 1624 600 1596L600 1596Q567 1543 541.5 1462 516 1381 516 1302L516 1302Q516 1249 525 1203.5 534 1158 546 1129L546 1129Q568 1077 593 1077L593 1077Q607 1077 617.5 1087 628 1097 628 1111L628 1111Q628 1133 612 1182.5 596 1232 596 1303L596 1303Q596 1376 621.5 1449.5 647 1523 695 1592L695 1592Q703 1605 703 1621L703 1621Q703 1637 693 1647 683 1657 669 1657ZM1548 1125L1548 1125Q1539 1125 1528 1124 1517 1123 1505 1121L1505 1121Q1425 1106 1375.5 1077.5 1326 1049 1295 1015.5 1264 982 1240.5 952 1217 922 1190.5 902.5 1164 883 1121 883L1121 883Q1093 883 1058 887.5 1023 892 978 892L978 892Q933 892 873.5 880.5 814 869 770 844.5 726 820 726 782L726 782Q726 768 755 768L755 768Q815 768 851 762 887 756 911.5 744.5 936 733 961.5 718 987 703 1027 685L1027 685Q977 669 933 623 889 577 862 513 835 449 835 379L835 379Q835 366 848 366L848 366Q857 366 872.5 376.5 888 387 905 402L905 402 946 439Q970 461 1009 462.5 1048 464 1094 498L1094 498Q1142 533 1175 570.5 1208 608 1261 608L1261 608Q1300 608 1330 576.5 1360 545 1393.5 504.5 1427 464 1474 432.5 1521 401 1594 401L1594 401Q1618 401 1646 405.5 1674 410 1674 421L1674 421Q1674 426 1660.5 434.5 1647 443 1612 482L1612 482 1542 560Q1498 609 1476 658L1476 658Q1534 658 1577 684 1620 710 1661 736 1702 762 1753 762L1753 762Q1761 762 1772 760.5 1783 759 1793 759L1793 759Q1817 759 1817 772L1817 772Q1817 795 1791 814.5 1765 834 1729 845 1693 856 1664 856L1664 856Q1618 856 1574 844.5 1530 833 1500 833L1500 833Q1473 833 1463 850L1463 850Q1477 877 1489 918.5 1501 960 1504 990L1504 990Q1506 1012 1522 1037 1538 1062 1557 1077L1557 1077Q1580 1095 1580 1110L1580 1110Q1580 1125 1548 1125ZM1301 636L1193 636Q1193 523 1207 422 1221 321 1261 218L1261 218 1270 195Q1283 160 1322 160L1322 160Q1357 160 1370 185 1383 210 1373 236L1373 236 1363 263Q1328 357 1314.5 446 1301 535 1301 636L1301 636Z"/>
</svg>