<svg xmlns="http://www.w3.org/2000/svg"
    viewBox="0 0 2600 2400">
  <!--
Copyright 2013 Google LLC
Noto is a trademark of Google Inc.
This Font Software is licensed under the SIL Open Font License, Version 1.1. This Font Software is distributed on an "AS IS" BASIS, WITHOUT WARRANTIES OR CONDITIONS OF ANY KIND, either express or implied. See the SIL Open Font License for the specific language, permissions and limitations governing your use of this Font Software.
http://scripts.sil.org/OFL
  -->
<path d="M1300 2240L1300 2240Q1120 2240 987.5 2165 855 2090 783 1952.5 711 1815 711 1627L711 1627Q711 1436 785 1292 859 1148 992 1067.5 1125 987 1300 987L1300 987Q1476 987 1608.5 1067.5 1741 1148 1815 1292 1889 1436 1889 1627L1889 1627Q1889 1815 1817 1952.5 1745 2090 1613 2165 1481 2240 1300 2240ZM1031 1968L1031 1968Q1018 1968 1018 1952L1018 1952Q1018 1935 1038.5 1910 1059 1885 1086 1865.5 1113 1846 1130 1846L1130 1846Q1148 1846 1174.5 1865.5 1201 1885 1221.5 1910 1242 1935 1242 1952L1242 1952Q1242 1968 1229 1968L1229 1968Q1219 1968 1198.5 1953 1178 1938 1158.5 1923.5 1139 1909 1130 1909L1130 1909Q1121 1909 1101.5 1923.5 1082 1938 1062 1953 1042 1968 1031 1968ZM879 1698L879 1698Q868 1698 868 1683L868 1683Q868 1668 889 1642.5 910 1617 937 1596.5 964 1576 981 1576L981 1576Q998 1576 1025 1596.5 1052 1617 1073 1642.5 1094 1668 1094 1683L1094 1683Q1094 1698 1083 1698L1083 1698Q1071 1698 1050 1683 1029 1668 1009.5 1653.5 990 1639 981 1639L981 1639Q972 1639 952.5 1653.5 933 1668 912.5 1683 892 1698 879 1698ZM1371 1968L1371 1968Q1358 1968 1358 1952L1358 1952Q1358 1935 1378.5 1910 1399 1885 1426 1865.5 1453 1846 1470 1846L1470 1846Q1488 1846 1514.5 1865.5 1541 1885 1561.5 1910 1582 1935 1582 1952L1582 1952Q1582 1968 1569 1968L1569 1968Q1559 1968 1538.5 1953 1518 1938 1498.5 1923.5 1479 1909 1470 1909L1470 1909Q1461 1909 1441.5 1923.5 1422 1938 1402 1953 1382 1968 1371 1968ZM1189 1725L1189 1725Q1177 1725 1177 1708L1177 1708Q1177 1689 1200 1661 1223 1633 1252.5 1610.5 1282 1588 1300 1588L1300 1588Q1319 1588 1348 1610.5 1377 1633 1400 1661 1423 1689 1423 1708L1423 1708Q1423 1725 1411 1725L1411 1725Q1400 1725 1377.5 1708.5 1355 1692 1333 1676 1311 1660 1300 1660L1300 1660Q1290 1660 1267.5 1676 1245 1692 1222.5 1708.5 1200 1725 1189 1725ZM1300 2160L1300 2160Q1458 2160 1572 2096 1686 2032 1747.5 1912.5 1809 1793 1809 1627L1809 1627Q1809 1458 1745.5 1332 1682 1206 1567.5 1136.5 1453 1067 1300 1067L1300 1067Q1147 1067 1032.5 1136.5 918 1206 854.5 1332 791 1458 791 1627L791 1627Q791 1793 852.5 1912.5 914 2032 1028 2096 1142 2160 1300 2160ZM1001 1452L1001 1452Q987 1452 987 1437L987 1437Q987 1419 1010 1391 1033 1363 1062.5 1341 1092 1319 1110 1319L1110 1319Q1129 1319 1158 1341 1187 1363 1210 1391 1233 1419 1233 1437L1233 1437Q1233 1452 1219 1452L1219 1452Q1206 1452 1184 1436.5 1162 1421 1141 1405.5 1120 1390 1110 1390L1110 1390Q1100 1390 1079 1405.5 1058 1421 1036.5 1436.5 1015 1452 1001 1452ZM1517 1698L1517 1698Q1506 1698 1506 1683L1506 1683Q1506 1668 1527 1642.5 1548 1617 1575 1596.5 1602 1576 1619 1576L1619 1576Q1636 1576 1663 1596.5 1690 1617 1711 1642.5 1732 1668 1732 1683L1732 1683Q1732 1698 1721 1698L1721 1698Q1709 1698 1688 1683 1667 1668 1647.5 1653.5 1628 1639 1619 1639L1619 1639Q1610 1639 1590.5 1653.5 1571 1668 1550.5 1683 1530 1698 1517 1698ZM1381 1452L1381 1452Q1367 1452 1367 1437L1367 1437Q1367 1419 1390 1391 1413 1363 1442.5 1341 1472 1319 1490 1319L1490 1319Q1509 1319 1538 1341 1567 1363 1590 1391 1613 1419 1613 1437L1613 1437Q1613 1452 1599 1452L1599 1452Q1586 1452 1564 1436.5 1542 1421 1521 1405.5 1500 1390 1490 1390L1490 1390Q1480 1390 1459 1405.5 1438 1421 1416.5 1436.5 1395 1452 1381 1452ZM1300 1172L1300 1172Q1221 1172 1141.5 1157.5 1062 1143 983 1114L983 1114Q928 1050 878.5 1009.5 829 969 798 945.5 767 922 767 909L767 909Q767 901 786 895 805 889 833 889L833 889Q855 889 881 893 907 897 932 907L932 907Q899 837 846 783.5 793 730 751.5 695 710 660 710 645L710 645Q710 637 722.5 632 735 627 771 627L771 627Q805 627 848.5 644.5 892 662 932 688L932 688Q906 599 870 541.5 834 484 799.5 449.5 765 415 742 396.5 719 378 719 367L719 367Q719 358 739.5 354.5 760 351 789 351L789 351Q862 351 921.5 374.5 981 398 1038 442L1038 442Q1038 362 1017 309.5 996 257 974.5 224.5 953 192 953 174L953 174Q953 160 999 160L999 160Q1075 160 1155 203.5 1235 247 1300 330L1300 330Q1365 247 1445 203.5 1525 160 1601 160L1601 160Q1647 160 1647 174L1647 174Q1647 192 1626 224.5 1605 257 1583.5 309.5 1562 362 1562 442L1562 442Q1619 398 1678.5 374.5 1738 351 1811 351L1811 351Q1840 351 1860.5 354.5 1881 358 1881 367L1881 367Q1881 378 1858 396.5 1835 415 1800.5 449.5 1766 484 1730 541.5 1694 599 1668 688L1668 688Q1709 662 1752 644.5 1795 627 1829 627L1829 627Q1865 627 1877.5 632 1890 637 1890 645L1890 645Q1890 660 1848.5 695 1807 730 1754.5 783.5 1702 837 1668 907L1668 907Q1694 897 1719.5 893 1745 889 1767 889L1767 889Q1796 889 1814.5 895 1833 901 1833 909L1833 909Q1833 922 1802 945.5 1771 969 1722 1009.5 1673 1050 1617 1114L1617 1114Q1538 1143 1458.5 1157.5 1379 1172 1300 1172Z"/>
</svg>