<svg xmlns="http://www.w3.org/2000/svg"
    viewBox="0 0 2600 2400">
  <!--
Copyright 2013, 2022 Google Inc. All Rights Reserved.
Noto is a trademark of Google Inc.
This Font Software is licensed under the SIL Open Font License, Version 1.1. This Font Software is distributed on an "AS IS" BASIS, WITHOUT WARRANTIES OR CONDITIONS OF ANY KIND, either express or implied. See the SIL Open Font License for the specific language, permissions and limitations governing your use of this Font Software.
http://scripts.sil.org/OFL
  -->
<path d="M1328 2240L1328 2240Q1152 2240 1055 2223.5 958 2207 917.5 2178.5 877 2150 870 2115L870 2115 677 1124Q707 1111 741 1111L741 1111Q792 1111 856.5 1147 921 1183 995.5 1229.5 1070 1276 1154 1312 1238 1348 1328 1348L1328 1348Q1419 1348 1503 1312 1587 1276 1662 1229.5 1737 1183 1801.5 1147 1866 1111 1918 1111L1918 1111Q1951 1111 1980 1124L1980 1124 1787 2115Q1780 2150 1739.5 2178.5 1699 2207 1602 2223.5 1505 2240 1328 2240ZM772 1247L713 1268Q673 1088 608 906.5 543 725 454 541L454 541 670 436Q736 575 793.5 716.5 851 858 890 1001L890 1001 866 1132Q826 978 770 823.5 714 669 642 516L642 516 534 569Q614 739 672.5 908.5 731 1078 772 1247L772 1247ZM1497 2109L1497 2109Q1499 2109 1500 2109 1501 2109 1502 2109L1502 2109Q1603 2101 1646.5 2067.5 1690 2034 1703 1957L1703 1957 1785 1450Q1786 1442 1786 1435L1786 1435Q1786 1395 1752 1395L1752 1395Q1722 1395 1716 1433L1716 1433 1634 1945Q1626 1997 1600 2014 1574 2031 1495 2039L1495 2039Q1479 2040 1468.5 2050.5 1458 2061 1458 2075L1458 2075Q1458 2091 1469.5 2100 1481 2109 1497 2109ZM945 1367L886 1376Q877 1217 849.5 1059 822 901 780 738L780 738 1048 667Q1084 833 1106.5 1002.5 1129 1172 1139 1349L1139 1349 1081 1349Q1071 1192 1051.5 1040.5 1032 889 1004 741L1004 741 851 781Q893 929 913.5 1074 934 1219 945 1367L945 1367ZM1169 1435L1110 1435Q1121 1215 1140.5 1008.5 1160 802 1186 614L1186 614 1489 671Q1447 843 1421 1034 1395 1225 1380 1435L1380 1435 1319 1435Q1334 1241 1357 1062 1380 883 1416 718L1416 718 1237 684Q1213 859 1197.5 1047.5 1182 1236 1169 1435L1169 1435ZM947 704L898 743 725 348 956 250 1089 551 1048 604 925 329 804 380 947 704ZM1610 1462L1610 1462 1548 1449Q1584 1243 1637.5 1059.5 1691 876 1764 712L1764 712 1636 653Q1557 822 1498.5 1015 1440 1208 1402 1423L1402 1423 1349 1413Q1388 1175 1452.5 964.5 1517 754 1609 573L1609 573 1844 684Q1762 853 1703.5 1045.5 1645 1238 1610 1462ZM1075 811L1075 811 1015 794Q1035 678 1043 566 1051 454 1051 335L1051 335Q1051 294 1050.5 252 1050 210 1048 165L1048 165 1331 160 1331 193Q1331 297 1323.5 415.5 1316 534 1302 654L1302 654 1241 654Q1255 547 1263 432.5 1271 318 1271 218L1271 218 1111 222 1111 301Q1111 412 1107 491 1103 570 1095.5 643.5 1088 717 1075 811ZM1464 685L1404 687Q1404 593 1396.5 495.5 1389 398 1372 277L1372 277 1647 248Q1657 337 1664.5 437 1672 537 1672 638L1672 638 1612 645Q1612 563 1607.5 478 1603 393 1593 314L1593 314 1440 330Q1453 443 1458.5 527 1464 611 1464 685L1464 685ZM1788 1220L1788 1220 1729 1218Q1749 995 1796 779.5 1843 564 1916 362L1916 362 2146 448Q2086 609 2044.5 777 2003 945 1980 1124L1980 1124 1913 1168Q1936 989 1974 818.5 2012 648 2070 483L2070 483 1952 440Q1891 626 1849.5 821.5 1808 1017 1788 1220ZM1860 676L1800 692 1811 387 1652 387 1642 327 1873 327 1860 676Z"/>
</svg>