<svg xmlns="http://www.w3.org/2000/svg"
    viewBox="0 0 2600 2400">
  <!--
Copyright 2013, 2022 Google Inc. All Rights Reserved.
Noto is a trademark of Google Inc.
This Font Software is licensed under the SIL Open Font License, Version 1.1. This Font Software is distributed on an "AS IS" BASIS, WITHOUT WARRANTIES OR CONDITIONS OF ANY KIND, either express or implied. See the SIL Open Font License for the specific language, permissions and limitations governing your use of this Font Software.
http://scripts.sil.org/OFL
  -->
<path d="M1749 2240L1749 2240Q1519 2240 1357.5 2132.5 1196 2025 1105 1823L1105 1823Q1063 1730 1040.5 1633 1018 1536 1001.5 1440.5 985 1345 961.5 1254 938 1163 894 1081L894 1081Q867 1030 839.5 993.5 812 957 771.5 925 731 893 667.5 857.5 604 822 505 773L505 773Q400 721 349 672 298 623 298 558L298 558Q298 524 315 494 332 464 369 443L369 443Q397 427 425.5 415 454 403 472 382L472 382Q482 371 486.5 347 491 323 498 295L498 295Q515 225 548 192.5 581 160 639 160L639 160Q692 160 730.5 196.5 769 233 799 291.5 829 350 856 416L856 416Q910 546 960.5 628.5 1011 711 1074 765 1137 819 1227 865L1227 865Q1366 934 1510.5 981 1655 1028 1791 1079.5 1927 1131 2040 1215L2040 1215Q2195 1329 2248.5 1464 2302 1599 2302 1736L2302 1736Q2302 1877 2236.5 1991.5 2171 2106 2047.5 2173 1924 2240 1749 2240ZM1605 1999L1605 1999Q1622 2010 1639.5 2007.5 1657 2005 1666 1989L1666 1989Q1686 1954 1649 1931L1649 1931Q1629 1918 1611 1905 1593 1892 1574 1876L1574 1876Q1558 1863 1541.5 1862.5 1525 1862 1514 1876L1514 1876Q1503 1889 1505 1907 1507 1925 1523 1938L1523 1938Q1544 1954 1563.5 1969 1583 1984 1605 1999ZM1383 1755L1383 1755Q1399 1749 1405.5 1734 1412 1719 1405 1700L1405 1700Q1398 1681 1393.5 1662.5 1389 1644 1384 1624L1384 1624Q1380 1605 1366.5 1594.5 1353 1584 1336 1588L1336 1588Q1320 1592 1311 1607 1302 1622 1306 1642L1306 1642Q1311 1664 1317.5 1685 1324 1706 1331 1728L1331 1728Q1337 1746 1352 1753.5 1367 1761 1383 1755ZM1262 1367L1262 1367Q1278 1361 1284.5 1345 1291 1329 1283 1310L1283 1310Q1274 1287 1264 1265 1254 1243 1243 1221L1243 1221Q1234 1203 1218 1196.5 1202 1190 1188 1199L1188 1199Q1155 1220 1173 1256L1173 1256Q1184 1276 1193.5 1295.5 1203 1315 1210 1336L1210 1336Q1217 1355 1232 1364 1247 1373 1262 1367ZM785 835L785 835Q807 788 837 752.5 867 717 907 694L907 694Q870 637 837 571 804 505 778 434L778 434Q738 324 706 281 674 238 648 238L648 238Q612 238 596.5 262.5 581 287 574 321.5 567 356 560.5 388 554 420 536 436L536 436Q517 453 487 468.5 457 484 430 500L430 500Q408 513 393 526.5 378 540 378 556L378 556Q378 593 419 628.5 460 664 545 706L545 706Q605 736 669 769.5 733 803 785 835Z"/>
</svg>