<svg xmlns="http://www.w3.org/2000/svg"
    viewBox="0 0 2600 2400">
  <!--
Copyright 2013 Google LLC
Noto is a trademark of Google Inc.
This Font Software is licensed under the SIL Open Font License, Version 1.1. This Font Software is distributed on an "AS IS" BASIS, WITHOUT WARRANTIES OR CONDITIONS OF ANY KIND, either express or implied. See the SIL Open Font License for the specific language, permissions and limitations governing your use of this Font Software.
http://scripts.sil.org/OFL
  -->
<path d="M1282 1643L1282 1643Q1032 1643 856.5 1609.5 681 1576 558 1513L558 1513Q543 1464 530.5 1417 518 1370 510 1323.5 502 1277 502 1231L502 1231Q502 1129 552 1022.5 602 916 681 844L681 844Q605 806 605 746L605 746Q605 681 691.5 633.5 778 586 931 560 1084 534 1282 534L1282 534Q1453 534 1592 555L1592 555 1467 651Q1414 647 1369.5 645.5 1325 644 1282 644L1282 644Q1056 644 935 694.5 814 745 814 842L814 842Q814 875 828 900 842 925 856.5 960.5 871 996 871 1061L871 1061Q871 1094 857 1158 843 1222 843 1293L843 1293Q843 1388 876 1451.5 909 1515 958 1515L958 1515Q1005 1515 1034.5 1472 1064 1429 1064 1360L1064 1360Q1064 1298 1052.5 1222.5 1041 1147 1029.5 1074 1018 1001 1018 947L1018 947Q1018 890 1040.5 861 1063 832 1108 832L1108 832Q1161 832 1226 851 1291 870 1394 870L1394 870Q1470 870 1534 852L1534 852 1769 594Q1864 622 1911.5 659 1959 696 1959 746L1959 746Q1959 806 1883 844L1883 844Q1962 916 2012 1022.5 2062 1129 2062 1231L2062 1231Q2062 1277 2054 1323.5 2046 1370 2033.5 1417 2021 1464 2006 1513L2006 1513Q1883 1576 1708 1609.5 1533 1643 1282 1643ZM1282 1960L1282 1960Q1082 1960 936.5 1931 791 1902 693 1851L693 1851Q672 1810 652 1766 632 1722 613 1675L613 1675Q765 1731 933 1759.5 1101 1788 1282 1788L1282 1788Q1464 1788 1631.5 1759.5 1799 1731 1951 1675L1951 1675Q1932 1723 1912 1766 1892 1809 1871 1851L1871 1851Q1774 1902 1628 1931 1482 1960 1282 1960ZM1282 2240L1282 2240Q1132 2240 1018 2213 904 2186 866 2149L866 2149Q854 2137 834.5 2110.5 815 2084 791 2044L791 2044Q730 1942 677 1833 624 1724 585 1616.5 546 1509 524 1410.5 502 1312 502 1232L502 1232 586 1232Q586 1318 612 1426 638 1534 683 1649 728 1764 785 1873 842 1982 904 2070L904 2070Q989 2089 1088.5 2099.5 1188 2110 1282 2110L1282 2110Q1377 2110 1476.5 2099.5 1576 2089 1660 2070L1660 2070Q1722 1982 1779 1873 1836 1764 1881 1649 1926 1534 1952 1426 1978 1318 1978 1232L1978 1232 2062 1232Q2062 1312 2040 1410.5 2018 1509 1979 1616.5 1940 1724 1887.5 1833 1835 1942 1773 2044L1773 2044Q1749 2084 1729.5 2110.5 1710 2137 1698 2149L1698 2149Q1661 2186 1546.5 2213 1432 2240 1282 2240ZM1776 417L1238 956 1186 896 1694 386Q1694 330 1716 278.5 1738 227 1775 193.5 1812 160 1856 160L1856 160Q1885 160 1912.5 170.5 1940 181 1969 209L1969 209 2042 280Q2098 334 2098 397L2098 397Q2098 439 2064.5 477 2031 515 1979 538.5 1927 562 1869 562L1869 562 1536 899 1437 883 1842 480Q1850 482 1859 482.5 1868 483 1876 483L1876 483Q1911 483 1945 468 1979 453 2001.5 430.5 2024 408 2024 387L2024 387Q2024 366 1993 335L1993 335 1918 261Q1888 231 1870 231L1870 231Q1850 231 1827 253 1804 275 1788 308.5 1772 342 1772 377L1772 377Q1772 400 1776 417L1776 417Z"/>
</svg>