<svg xmlns="http://www.w3.org/2000/svg"
    viewBox="0 0 2600 2400">
  <!--
Copyright 2013, 2022 Google Inc. All Rights Reserved.
Noto is a trademark of Google Inc.
This Font Software is licensed under the SIL Open Font License, Version 1.1. This Font Software is distributed on an "AS IS" BASIS, WITHOUT WARRANTIES OR CONDITIONS OF ANY KIND, either express or implied. See the SIL Open Font License for the specific language, permissions and limitations governing your use of this Font Software.
http://scripts.sil.org/OFL
  -->
<path d="M1448 2240L1448 2240Q1379 2240 1338 2192L1338 2192Q1318 2205 1293 2212.5 1268 2220 1240 2220L1240 2220Q1194 2220 1156.5 2199 1119 2178 1101 2146L1101 2146Q1071 2160 1037 2160L1037 2160Q980 2160 941 2122.5 902 2085 902 2032L902 2032Q705 1892 591 1715 477 1538 441 1314L441 1314Q366 1264 286.5 1189 207 1114 153 1022 99 930 99 831L99 831Q99 766 137 730.5 175 695 226 695L226 695Q241 695 253.5 697.5 266 700 280 705L280 705Q280 640 316 583 352 526 432 526L432 526Q473 526 505.5 546 538 566 560 601L560 601Q609 547 673 547L673 547Q740 547 780.5 611.5 821 676 821 771L821 771Q821 883 809.5 995 798 1107 784 1219L784 1219Q865 1272 940 1342.5 1015 1413 1085 1500L1085 1500Q1129 1469 1186 1469L1186 1469Q1228 1469 1264 1488.5 1300 1508 1319 1537L1319 1537Q1369 1491 1433 1471 1497 1451 1553 1451L1553 1451Q1567 1451 1580 1451.5 1593 1452 1606 1454L1606 1454Q1605 1443 1604.5 1432 1604 1421 1604 1407L1604 1407Q1604 1372 1616.5 1343 1629 1314 1639 1296L1639 1296Q1608 1288 1576 1255.5 1544 1223 1539 1193L1539 1193Q1522 1200 1497.5 1206 1473 1212 1445 1212L1445 1212Q1396 1212 1354.5 1189.5 1313 1167 1289 1132L1289 1132Q1261 1141 1235 1141L1235 1141Q1173 1141 1122.5 1105 1072 1069 1042.5 1011.5 1013 954 1013 891L1013 891Q1013 850 1024 816L1024 816Q995 794 975.5 756.5 956 719 956 676L956 676Q956 628 979 588.5 1002 549 1039 528L1039 528Q1026 503 1026 469L1026 469Q1026 410 1068 368.5 1110 327 1168 327L1168 327Q1188 327 1205 332L1205 332Q1213 271 1262.5 229.5 1312 188 1386 188L1386 188Q1435 188 1480 208L1480 208Q1509 187 1545.5 173.5 1582 160 1623 160L1623 160Q1674 160 1718 177 1762 194 1791 223L1791 223Q1825 209 1864 209L1864 209Q1942 209 1996.5 255.5 2051 302 2054 370L2054 370Q2136 379 2191.5 437.5 2247 496 2247 576L2247 576Q2247 586 2246.5 595 2246 604 2244 613L2244 613Q2308 642 2348.5 699.5 2389 757 2389 829L2389 829Q2389 861 2381 891L2381 891Q2434 915 2467.5 963.5 2501 1012 2501 1071L2501 1071Q2501 1116 2483 1155 2465 1194 2439 1222L2439 1222Q2455 1245 2467.5 1279.5 2480 1314 2480 1355L2480 1355Q2480 1417 2454 1458 2428 1499 2388 1515L2388 1515Q2391 1529 2393 1545 2395 1561 2395 1577L2395 1577Q2395 1677 2334.5 1745 2274 1813 2188 1817L2188 1817Q2189 1821 2189 1825 2189 1829 2189 1834L2189 1834Q2189 1906 2151.5 1961 2114 2016 2053 2047 1992 2078 1922 2078L1922 2078Q1913 2078 1907 2077.5 1901 2077 1887 2076L1887 2076Q1869 2133 1812 2172 1755 2211 1678 2211L1678 2211Q1647 2211 1618.5 2204 1590 2197 1566 2184L1566 2184Q1547 2209 1516.5 2224.5 1486 2240 1448 2240ZM258 922L428 1162 470 1132 317 885 258 922ZM1335 1979L1335 1979Q1304 1979 1273.5 1963.5 1243 1948 1221 1920L1221 1920 1260 1874Q1290 1908 1330 1908L1330 1908Q1361 1908 1386 1889L1386 1889 1421 1940Q1405 1959 1382 1969 1359 1979 1335 1979ZM409 719L522 1023 573 1003 475 695 409 719ZM636 738L652 1065 706 1065 706 736 636 738ZM1625 1865L1625 1865Q1588 1865 1555 1849L1555 1849 1571 1791Q1592 1800 1617 1800L1617 1800Q1668 1800 1690 1751L1690 1751 1744 1783Q1734 1822 1700 1843.5 1666 1865 1625 1865ZM1448 2160L1448 2160Q1477 2160 1506 2147 1535 2134 1551 2107L1551 2107Q1586 2122 1611.5 2127.5 1637 2133 1662 2133L1662 2133Q1744 2133 1785.5 2092 1827 2051 1843 2000L1843 2000Q1857 2004 1871 2005 1885 2006 1900 2006L1900 2006Q2008 2006 2068 1938.5 2128 1871 2128 1760L2128 1760Q2213 1751 2266.5 1702 2320 1653 2320 1557L2320 1557Q2320 1537 2319 1519.5 2318 1502 2315 1478L2315 1478Q2359 1462 2381 1425.5 2403 1389 2403 1335L2403 1335Q2403 1303 2390.5 1269 2378 1235 2352 1214L2352 1214Q2387 1183 2404 1145.5 2421 1108 2421 1071L2421 1071Q2421 1022 2387 982 2353 942 2303 925L2303 925Q2308 895 2308.5 872 2309 849 2309 836L2309 836Q2309 772 2270.5 719.5 2232 667 2175 648L2175 648Q2176 640 2176 631 2176 622 2176 614L2176 614Q2176 537 2128.5 486.5 2081 436 1993 435L1993 435Q1993 369 1957 327.5 1921 286 1852 286L1852 286Q1833 286 1810.5 292 1788 298 1772 307L1772 307Q1749 281 1710 260.5 1671 240 1623 240L1623 240Q1583 240 1550.5 257 1518 274 1493 295L1493 295Q1477 282 1452.5 272.5 1428 263 1403 263L1403 263Q1344 263 1303.5 299 1263 335 1256 394L1256 394Q1243 391 1228.5 389.5 1214 388 1204 388L1204 388Q1154 388 1127.5 416 1101 444 1101 485L1101 485Q1101 501 1106 518.5 1111 536 1117 548L1117 548Q1081 566 1057.5 601 1034 636 1034 680L1034 680Q1034 715 1052.5 746.5 1071 778 1104 795L1104 795Q1091 844 1091 892L1091 892Q1091 959 1136.5 1012 1182 1065 1268 1065L1268 1065Q1294 1065 1322 1058L1322 1058Q1350 1094 1379 1113.5 1408 1133 1458 1133L1458 1133Q1485 1133 1523.5 1127.5 1562 1122 1588 1115L1588 1115Q1593 1139 1606.5 1162 1620 1185 1636 1204L1636 1204Q1653 1224 1676.5 1239 1700 1254 1735 1265L1735 1265Q1712 1301 1701 1327.5 1690 1354 1685 1383L1685 1383Q1679 1415 1677 1445.5 1675 1476 1675 1520L1675 1520Q1611 1521 1561 1526.5 1511 1532 1466 1545L1466 1545Q1422 1558 1378 1581 1334 1604 1313 1622L1313 1622Q1279 1584 1248.5 1566.5 1218 1549 1186 1549L1186 1549Q1140 1549 1097.5 1579 1055 1609 1055 1669L1055 1669Q1055 1693 1064 1715.5 1073 1738 1091 1756L1091 1756Q1068 1770 1057.5 1789.5 1047 1809 1047 1836L1047 1836Q1047 1851 1054 1872L1054 1872Q1013 1872 981 1902.5 949 1933 949 1984L949 1984Q949 2031 981 2060 1013 2089 1056 2089L1056 2089Q1073 2089 1090.5 2086 1108 2083 1122 2076L1122 2076Q1146 2111 1184 2126.5 1222 2142 1254 2142L1254 2142Q1277 2142 1304.5 2134.5 1332 2127 1347 2114L1347 2114Q1367 2135 1395 2147.5 1423 2160 1448 2160ZM2147 1266L2147 1266 2096 1230Q2110 1214 2117 1197 2124 1180 2124 1163L2124 1163Q2124 1146 2118 1130.5 2112 1115 2099 1102L2099 1102 2150 1061Q2195 1095 2195 1157L2195 1157Q2195 1186 2182.5 1214.5 2170 1243 2147 1266ZM2069 782L2003 782Q2003 738 1987 710.5 1971 683 1934 676L1934 676 1951 616Q2004 616 2036.5 666.5 2069 717 2069 782L2069 782Z"/>
</svg>