<svg xmlns="http://www.w3.org/2000/svg"
    viewBox="0 0 2600 2400">
  <!--
Copyright 2013, 2022 Google Inc. All Rights Reserved.
Noto is a trademark of Google Inc.
This Font Software is licensed under the SIL Open Font License, Version 1.1. This Font Software is distributed on an "AS IS" BASIS, WITHOUT WARRANTIES OR CONDITIONS OF ANY KIND, either express or implied. See the SIL Open Font License for the specific language, permissions and limitations governing your use of this Font Software.
http://scripts.sil.org/OFL
  -->
<path d="M1300 2240L1300 2240Q1074 2240 944 2194.5 814 2149 814 2071L814 2071Q814 2030 858 1999.5 902 1969 1002 1942L1002 1942Q1127 1908 1175 1857 1223 1806 1223 1693L1223 1693 1223 1431Q1223 1334 1170.5 1261 1118 1188 1026 1095L1026 1095 502 568Q462 527 443.5 497 425 467 425 433L425 433 505 433Q505 443 515 460 525 477 559 512L559 512 1083 1039Q1145 1101 1195 1161 1245 1221 1274 1286 1303 1351 1303 1431L1303 1431 1303 1693Q1303 1784 1275.5 1845 1248 1906 1186.5 1944.5 1125 1983 1021 2009L1021 2009Q942 2029 920 2043 898 2057 898 2073L898 2073Q898 2097 956.5 2117.5 1015 2138 1107 2150 1199 2162 1300 2162L1300 2162Q1401 2162 1493 2150 1585 2138 1643.5 2117.5 1702 2097 1702 2073L1702 2073Q1702 2057 1680.5 2043 1659 2029 1579 2009L1579 2009Q1476 1982 1414 1943.5 1352 1905 1324.5 1844.5 1297 1784 1297 1693L1297 1693 1297 1431Q1297 1351 1326 1286 1355 1221 1405 1161 1455 1101 1517 1039L1517 1039 2041 512Q2076 477 2085.5 460 2095 443 2095 433L2095 433 2175 433Q2175 467 2157 497 2139 527 2098 568L2098 568 1574 1095Q1482 1188 1429.5 1261 1377 1334 1377 1431L1377 1431 1377 1693Q1377 1806 1425 1857 1473 1908 1598 1942L1598 1942Q1698 1969 1742 1999.5 1786 2030 1786 2071L1786 2071Q1786 2149 1656 2194.5 1526 2240 1300 2240ZM1316 1044L1316 1044Q1334 1044 1344.5 1031 1355 1018 1355 1004L1355 1004Q1355 980 1327.5 955.5 1300 931 1277 931L1277 931Q1259 931 1248.5 944 1238 957 1238 971L1238 971Q1238 995 1265.5 1019.5 1293 1044 1316 1044ZM1316 1103L1316 1103Q1259 1103 1217 1061.5 1175 1020 1175 962L1175 962Q1175 910 1203.5 857 1232 804 1277.5 767.5 1323 731 1375 731L1375 731Q1431 731 1472.5 774 1514 817 1514 878L1514 878Q1514 928 1485 980.5 1456 1033 1411 1068 1366 1103 1316 1103ZM694 562L694 562 634 506Q766 464 943.5 437.5 1121 411 1300 411L1300 411Q1479 411 1656.5 437.5 1834 464 1966 506L1966 506 1906 562Q1776 525 1619 503 1462 481 1300 481L1300 481Q1138 481 981 503 824 525 694 562ZM1300 664L1300 664Q1113 664 953.5 646.5 794 629 675.5 597.5 557 566 491 524 425 482 425 433L425 433Q425 365 533.5 314 642 263 839 235 1036 207 1300 207L1300 207Q1564 207 1760.5 235 1957 263 2066 314 2175 365 2175 433L2175 433Q2175 482 2109 524 2043 566 1924.5 597.5 1806 629 1646.5 646.5 1487 664 1300 664ZM1300 594L1300 594Q1451 594 1593 578 1735 562 1848.5 537 1962 512 2028.5 484.5 2095 457 2095 433L2095 433Q2095 407 2033 380 1971 353 1861.5 329.5 1752 306 1608 291.5 1464 277 1300 277L1300 277Q1136 277 992 291.5 848 306 738.5 329.5 629 353 567 380 505 407 505 433L505 433Q505 457 571.5 484.5 638 512 751.5 537 865 562 1007 578 1149 594 1300 594ZM1960 349L1364 935 1307 890 1900 303 2061 160 2083 178 1960 349Z"/>
</svg>