<svg xmlns="http://www.w3.org/2000/svg"
    viewBox="0 0 2600 2400">
  <!--
Copyright 2013 Google LLC
Noto is a trademark of Google Inc.
This Font Software is licensed under the SIL Open Font License, Version 1.1. This Font Software is distributed on an "AS IS" BASIS, WITHOUT WARRANTIES OR CONDITIONS OF ANY KIND, either express or implied. See the SIL Open Font License for the specific language, permissions and limitations governing your use of this Font Software.
http://scripts.sil.org/OFL
  -->
<path d="M2505 1034L1299 1717 95 1032 95 857 1300 160 2505 857 2505 1034ZM615 2240L615 2240Q588 2240 568.5 2218 549 2196 544 2162L544 2162Q539 2190 523 2209.5 507 2229 490 2229L490 2229Q455 2229 455 2176L455 2176Q455 2118 465.5 2037.5 476 1957 493 1867.5 510 1778 530.5 1691 551 1604 572 1534L572 1534Q549 1517 534.5 1494 520 1471 520 1446L520 1446Q520 1417 533.5 1392.5 547 1368 572 1357L572 1357 572 1236Q572 1171 587 1139.5 602 1108 645 1080L645 1080 1183 741 1257 792 732 1128Q691 1154 681.5 1178.5 672 1203 667 1259L667 1259 659 1357Q685 1367 698.5 1391.5 712 1416 712 1446L712 1446Q712 1474 698 1499 684 1524 658 1533L658 1533Q679 1604 700 1691 721 1778 738.5 1867.5 756 1957 766.5 2037 777 2117 777 2176L777 2176Q777 2229 741 2229L741 2229Q724 2229 708 2209.5 692 2190 687 2162L687 2162Q683 2196 663 2218 643 2240 615 2240ZM1309 1921L1309 1921Q1122 1921 939 1850.5 756 1780 613 1653L613 1653 664 1593Q796 1710 966 1775 1136 1840 1309 1840L1309 1840Q1486 1840 1644 1782 1802 1724 1922 1615L1922 1615 1922 1324 2002 1276 2002 1652Q1910 1739 1799.5 1799 1689 1859 1565.5 1890 1442 1921 1309 1921ZM145 992L1297 1649 2425 1010 2425 964 1297 1603 145 946 145 992ZM182 898L1297 1534 2417 900 1299 252 182 898ZM1224 847L1224 847Q1184 847 1154.5 821.5 1125 796 1125 762L1125 762Q1125 732 1150 706.5 1175 681 1210.5 665.5 1246 650 1279 650L1279 650Q1321 650 1349 674 1377 698 1377 732L1377 732Q1377 762 1352.5 788.5 1328 815 1293 831 1258 847 1224 847Z"/>
</svg>