<svg xmlns="http://www.w3.org/2000/svg"
    viewBox="0 0 2600 2400">
  <!--
Copyright 2013 Google LLC
Noto is a trademark of Google Inc.
This Font Software is licensed under the SIL Open Font License, Version 1.1. This Font Software is distributed on an "AS IS" BASIS, WITHOUT WARRANTIES OR CONDITIONS OF ANY KIND, either express or implied. See the SIL Open Font License for the specific language, permissions and limitations governing your use of this Font Software.
http://scripts.sil.org/OFL
  -->
<path d="M2135 1363L2135 1363 2087 1328Q2163 1180 2206.5 1028 2250 876 2250 739L2250 739Q2250 586 2199.5 469 2149 352 2048 286 1947 220 1797 220L1797 220Q1688 220 1578 258 1468 296 1400 361L1400 361Q1380 380 1368.5 395 1357 410 1357 421L1357 421Q1357 438 1377 438L1377 438Q1396 438 1422 422L1422 422Q1522 361 1605 335 1688 309 1767 309L1767 309Q1884 309 1968.5 354 2053 399 2098.5 487 2144 575 2144 706L2144 706Q2144 830 2105.5 979.5 2067 1129 1994 1281L1994 1281 1934 1267Q2008 1115 2046 971.5 2084 828 2084 707L2084 707Q2084 593 2047 518 2010 443 1939 406 1868 369 1766 369L1766 369Q1694 369 1622 393 1550 417 1461 469L1461 469Q1439 482 1414.5 491 1390 500 1370 500L1370 500Q1340 500 1319.5 478.5 1299 457 1299 432L1299 432Q1299 375 1358 318L1358 318Q1432 248 1554 204 1676 160 1797 160L1797 160Q1963 160 2077.5 233.5 2192 307 2251 437 2310 567 2310 738L2310 738Q2310 886 2263.5 1046 2217 1206 2135 1363ZM647 2090L647 2090Q613 2090 588.5 2068.5 564 2047 544 2003L544 2003 520 1949 406 1946Q346 1944 318 1916.5 290 1889 290 1855L290 1855Q290 1820 310.5 1796.5 331 1773 375 1754L375 1754 516 1695Q516 1664 510.5 1634 505 1604 494 1572.5 483 1541 465 1506L465 1506Q440 1453 414.5 1394 389 1335 363 1244L363 1244Q420 1205 477.5 1180 535 1155 602 1143L602 1143Q653 1069 744 1026.5 835 984 926 984L926 984Q996 984 1054 1000L1054 1000 1034 1077Q1007 1070 980 1067 953 1064 926 1064L926 1064Q849 1064 770 1103 691 1142 649 1220L649 1220Q619 1220 582 1228.5 545 1237 511.5 1250.5 478 1264 456 1279L456 1279Q475 1340 496.5 1388 518 1436 538 1474L538 1474Q563 1521 576 1564 589 1607 593.5 1652 598 1697 598 1752L598 1752 401 1830Q370 1843 370 1851L370 1851Q370 1866 394 1866L394 1866 573 1868 621 1984Q632 2010 646 2010L646 2010Q670 2010 670 1965L670 1965 670 1806Q814 1784 923 1710.5 1032 1637 1092.5 1529 1153 1421 1153 1297L1153 1297Q1153 1253 1145 1214.5 1137 1176 1123 1140L1123 1140 1197 1110Q1213 1150 1223 1198 1233 1246 1233 1302L1233 1302Q1233 1433 1171.5 1550 1110 1667 1001.5 1751.5 893 1836 750 1872L750 1872 750 1965Q750 2034 717.5 2062 685 2090 647 2090ZM801 1651L801 1651Q792 1651 792 1634L792 1634Q792 1561 801.5 1500.5 811 1440 827.5 1403.5 844 1367 864 1367L864 1367Q890 1367 903 1388.5 916 1410 916 1445L916 1445Q916 1483 896 1531.5 876 1580 849 1615.5 822 1651 801 1651ZM892 1275L892 1275Q868 1275 850.5 1257.5 833 1240 833 1215L833 1215Q833 1192 850.5 1174 868 1156 892 1156L892 1156Q917 1156 934.5 1174 952 1192 952 1215L952 1215Q952 1240 934.5 1257.5 917 1275 892 1275ZM1690 1879L1632 2010 1541 1970Q1513 1958 1513 1933L1513 1933Q1513 1924 1521 1902L1521 1902 1552 1820Q1539 1803 1533 1790.5 1527 1778 1525 1758L1525 1758 1443 1803Q1424 1813 1405 1818 1386 1823 1366 1823L1366 1823Q1348 1823 1331.5 1819.5 1315 1816 1301 1810L1301 1810Q1252 1788 1252 1745L1252 1745Q1252 1715 1273 1695 1294 1675 1325 1675L1325 1675Q1348 1675 1373.5 1689.5 1399 1704 1417 1727L1417 1727 1544 1658 1578 1573Q1601 1515 1630.5 1489 1660 1463 1702 1463L1702 1463Q1738 1463 1791 1483L1791 1483Q1839 1501 1864 1532 1889 1563 1889 1605L1889 1605Q1889 1643 1870 1685L1870 1685 1814 1815Q1796 1856 1764.5 1867.5 1733 1879 1690 1879L1690 1879ZM1216 1152L1080 1194Q1059 1201 1041.5 1189.5 1024 1178 1022 1156L1022 1156 1013 1004Q1012 980 1024 967.5 1036 955 1052 955L1052 955Q1066 955 1078.5 966.5 1091 978 1092 1004L1092 1004 1098 1106 1190 1077Q1218 1068 1233.5 1081 1249 1094 1249 1112L1249 1112Q1249 1124 1241 1135.5 1233 1147 1216 1152L1216 1152ZM1747 2240L1747 2240Q1699 2240 1649 2217L1649 2217Q1544 2170 1544 2088L1544 2088Q1544 2071 1549 2054.5 1554 2038 1561 2020L1561 2020 1848 1348Q1872 1292 1900.5 1267.5 1929 1243 1969 1243L1969 1243Q2023 1243 2065.5 1263 2108 1283 2133 1315.5 2158 1348 2158 1387L2158 1387Q2158 1400 2156 1415 2154 1430 2149 1449L2149 1449Q2143 1472 2125.5 1527.5 2108 1583 2080 1660 2052 1737 2016 1827L2016 1827Q1976 1926 1945 1995 1914 2064 1892 2108 1870 2152 1856 2176L1856 2176Q1838 2206 1809.5 2223 1781 2240 1747 2240ZM1746 2160L1746 2160Q1760 2160 1769 2153 1778 2146 1785 2135L1785 2135Q1808 2096 1846 2018 1884 1940 1941 1798L1941 1798Q1977 1708 2004.5 1632 2032 1556 2050 1503 2068 1450 2073 1429L2073 1429Q2075 1419 2076.5 1409 2078 1399 2078 1391L2078 1391Q2078 1374 2064.5 1359 2051 1344 2028 1334.5 2005 1325 1978 1325L1978 1325Q1962 1325 1949 1336 1936 1347 1925 1372L1925 1372 1634 2050Q1624 2074 1624 2087L1624 2087Q1624 2103 1636 2115.5 1648 2128 1682 2144L1682 2144Q1701 2153 1717 2156.5 1733 2160 1746 2160ZM1092 1146L1092 1146 1062 1098Q1120 1048 1148 995.5 1176 943 1176 891L1176 891Q1176 847 1171.5 805 1167 763 1167 714L1167 714Q1167 621 1208 540 1249 459 1328 407L1328 407 1363 465Q1295 511 1261 573 1227 635 1227 716L1227 716Q1227 757 1231.5 803 1236 849 1236 891L1236 891Q1236 958 1203 1022 1170 1086 1092 1146Z"/>
</svg>