<svg xmlns="http://www.w3.org/2000/svg"
    viewBox="0 0 2600 2400">
  <!--
Copyright 2013 Google LLC
Noto is a trademark of Google Inc.
This Font Software is licensed under the SIL Open Font License, Version 1.1. This Font Software is distributed on an "AS IS" BASIS, WITHOUT WARRANTIES OR CONDITIONS OF ANY KIND, either express or implied. See the SIL Open Font License for the specific language, permissions and limitations governing your use of this Font Software.
http://scripts.sil.org/OFL
  -->
<path d="M1913 2240L687 2240Q610 2240 570 2201.5 530 2163 530 2090L530 2090 530 309Q530 235 570 197.5 610 160 686 160L686 160 1914 160Q1991 160 2030.5 198 2070 236 2070 310L2070 310 2070 2090Q2070 2163 2030 2201.5 1990 2240 1913 2240L1913 2240ZM1141 1178L1141 1178Q1032 1178 946.5 1130 861 1082 812.5 997.5 764 913 764 804L764 804Q764 684 811.5 594.5 859 505 945 456 1031 407 1147 407L1147 407Q1256 407 1340 457 1424 507 1472 594.5 1520 682 1520 795L1520 795Q1520 903 1470.5 990 1421 1077 1335 1127.5 1249 1178 1141 1178ZM1141 1098L1141 1098Q1227 1098 1294.5 1058.5 1362 1019 1401 950.5 1440 882 1440 795L1440 795Q1440 658 1359 572.5 1278 487 1147 487L1147 487Q1007 487 925.5 572 844 657 844 804L844 804Q844 934 927 1016 1010 1098 1141 1098ZM610 309L610 1634Q737 1549 879 1484.5 1021 1420 1171 1384 1321 1348 1469 1348L1469 1348Q1553 1348 1648.5 1369 1744 1390 1834 1424.5 1924 1459 1990 1502L1990 1502 1990 310Q1990 271 1974 255.5 1958 240 1914 240L1914 240 686 240Q643 240 626.5 255 610 270 610 309L610 309Z"/>
</svg>