<svg xmlns="http://www.w3.org/2000/svg"
    viewBox="0 0 2600 2400">
  <!--
Copyright 2013, 2022 Google Inc. All Rights Reserved.
Noto is a trademark of Google Inc.
This Font Software is licensed under the SIL Open Font License, Version 1.1. This Font Software is distributed on an "AS IS" BASIS, WITHOUT WARRANTIES OR CONDITIONS OF ANY KIND, either express or implied. See the SIL Open Font License for the specific language, permissions and limitations governing your use of this Font Software.
http://scripts.sil.org/OFL
  -->
<path d="M516 1844L516 1844Q413 1844 328.5 1797 244 1750 195 1667L195 1667 266 1629Q346 1764 516 1764L516 1764Q560 1764 595.5 1753.5 631 1743 663.5 1726.5 696 1710 731 1693 766 1676 809 1663L809 1663Q683 1648 590.5 1586.5 498 1525 447.5 1431 397 1337 397 1225L397 1225Q397 1106 455 1008 513 910 611 852 709 794 828 794L828 794Q908 794 983 823 1058 852 1118.5 915 1179 978 1216 1079L1216 1079Q1226 1107 1250 1107L1250 1107Q1264 1107 1276 1092.5 1288 1078 1288 1051L1288 1051Q1288 860 1341.5 714 1395 568 1483 463 1571 358 1677 291 1783 224 1890.5 192 1998 160 2089 160L2089 160Q2234 160 2319.5 199.5 2405 239 2405 338L2405 338Q2405 431 2334.5 475 2264 519 2106 509L2106 509Q1961 499 1865.5 549 1770 599 1723 689.5 1676 780 1676 894L1676 894Q1676 952 1680 991.5 1684 1031 1697 1080L1697 1080Q1870 1192 2003.5 1355.5 2137 1519 2219 1720L2219 1720Q2229 1721 2238.5 1722.5 2248 1724 2257 1724L2257 1724Q2290 1724 2321 1710L2321 1710 2357 1782Q2309 1804 2257 1804L2257 1804Q2194 1804 2137 1778 2080 1752 2015 1726 1950 1700 1863 1700L1863 1700Q1780 1700 1722.5 1721.5 1665 1743 1616.5 1771.5 1568 1800 1514 1822 1460 1844 1384 1844L1384 1844Q1314 1844 1267.5 1825.5 1221 1807 1180.5 1783 1140 1759 1089.5 1740.5 1039 1722 961 1722L961 1722Q884 1722 830.5 1740.5 777 1759 731.5 1783 686 1807 636 1825.5 586 1844 516 1844ZM549 2240L549 2240Q390 2240 313 2102L313 2102 384 2066Q438 2160 549 2160L549 2160Q608 2160 654.5 2141.5 701 2123 747.5 2099 794 2075 850 2056.5 906 2038 984 2038L984 2038Q1063 2038 1116 2056.5 1169 2075 1211 2099 1253 2123 1298.5 2141.5 1344 2160 1408 2160L1408 2160Q1477 2160 1531.5 2138 1586 2116 1638 2087.5 1690 2059 1749.5 2037.5 1809 2016 1887 2016L1887 2016Q1957 2016 2009.5 2035.5 2062 2055 2106 2074.5 2150 2094 2193 2094L2193 2094Q2231 2094 2271 2076L2271 2076 2305 2147Q2248 2174 2193 2174L2193 2174Q2130 2174 2086.5 2154.5 2043 2135 1998.5 2115.5 1954 2096 1887 2096L1887 2096Q1817 2096 1763.5 2117.5 1710 2139 1659.5 2167.5 1609 2196 1549.5 2218 1490 2240 1408 2240L1408 2240Q1328 2240 1276.5 2221.5 1225 2203 1185 2179 1145 2155 1099 2136.5 1053 2118 984 2118L984 2118Q913 2118 863 2136.5 813 2155 769 2179 725 2203 673.5 2221.5 622 2240 549 2240ZM635 1520L635 1520Q657 1520 681 1507 705 1494 730 1464L730 1464Q753 1436 762.5 1413.5 772 1391 772 1373L772 1373Q772 1359 767 1349 762 1339 762 1329L762 1329Q762 1314 774 1301.5 786 1289 801 1289L801 1289Q806 1289 813.5 1291 821 1293 828 1293L828 1293Q848 1293 871.5 1280.5 895 1268 923 1235L923 1235Q953 1200 958 1175 963 1150 963 1131L963 1131Q963 1117 965 1104 967 1091 977 1077L977 1077 1059 963Q1048 952 1029 937L1029 937 929 1039Q917 1051 906 1054.5 895 1058 881 1060L881 1060Q862 1062 838 1071.5 814 1081 783 1118L783 1118Q760 1146 751 1169.5 742 1193 742 1211L742 1211Q742 1227 746.5 1236 751 1245 751 1253L751 1253Q751 1268 738 1279.5 725 1291 708 1291L708 1291Q704 1291 699.5 1290.5 695 1290 691 1290L691 1290Q672 1290 645 1300 618 1310 589 1345L589 1345Q548 1393 548 1435L548 1435Q548 1471 576 1495.5 604 1520 635 1520Z"/>
</svg>