<svg xmlns="http://www.w3.org/2000/svg"
    viewBox="0 0 2600 2400">
  <!--
Copyright 2013 Google LLC
Noto is a trademark of Google Inc.
This Font Software is licensed under the SIL Open Font License, Version 1.1. This Font Software is distributed on an "AS IS" BASIS, WITHOUT WARRANTIES OR CONDITIONS OF ANY KIND, either express or implied. See the SIL Open Font License for the specific language, permissions and limitations governing your use of this Font Software.
http://scripts.sil.org/OFL
  -->
<path d="M1047 1956L1047 1956Q992 1956 953 1922.5 914 1889 914 1838L914 1838Q914 1802 931 1766.5 948 1731 965 1687 982 1643 982 1584L982 1584Q982 1516 952.5 1469 923 1422 884.5 1377 846 1332 816.5 1273 787 1214 787 1123L787 1123Q787 1085 798 1022 809 959 825 910L825 910Q752 934 711.5 964 671 994 655 1050 639 1106 639 1210L639 1210Q639 1272 604.5 1311.5 570 1351 514 1351L514 1351Q466 1351 433 1324 400 1297 400 1257L400 1257Q400 1219 427.5 1186.5 455 1154 495 1146L495 1146Q479 1091 479 1036L479 1036Q479 908 560 814 641 720 775 670L775 670Q732 624 711 570 690 516 690 459L690 459Q690 376 730.5 308.5 771 241 839 200.5 907 160 989 160L989 160Q1072 160 1139.5 200.5 1207 241 1247.5 308.5 1288 376 1288 459L1288 459Q1288 509 1272 557 1256 605 1226 639L1226 639Q1265 667 1297 699 1329 731 1373 754 1417 777 1490 777L1490 777Q1541 777 1605.5 759 1670 741 1719 741L1719 741Q1788 741 1829 764.5 1870 788 1870 841L1870 841Q1870 896 1836 926.5 1802 957 1758 957L1758 957Q1727 957 1710.5 944.5 1694 932 1678 919.5 1662 907 1631 907L1631 907Q1593 907 1553.5 929.5 1514 952 1461 952L1461 952Q1420 952 1373 930 1326 908 1270 856L1270 856 1270 958Q1270 1018 1300.5 1055 1331 1092 1376 1118 1421 1144 1467 1171 1513 1198 1545.5 1236.5 1578 1275 1582 1338L1582 1338 1593 1521Q1643 1538 1682.5 1571.5 1722 1605 1722 1640L1722 1640Q1722 1678 1684.5 1706 1647 1734 1580 1734L1580 1734Q1523 1734 1487.5 1705 1452 1676 1445 1637L1445 1637 1414 1449Q1409 1417 1377.5 1384.5 1346 1352 1300 1329.5 1254 1307 1205 1307L1205 1307Q1152 1307 1152 1365L1152 1365Q1152 1392 1162.5 1429 1173 1466 1183 1499.5 1193 1533 1193 1551L1193 1551Q1193 1603 1179.5 1639 1166 1675 1152.5 1699.5 1139 1724 1139 1744L1139 1744Q1139 1769 1147.5 1782 1156 1795 1164.5 1807 1173 1819 1173 1842L1173 1842Q1173 1883 1137 1919.5 1101 1956 1047 1956ZM757 2280L757 2280Q654 2280 582.5 2213.5 511 2147 511 2038L511 2038Q511 1942 589 1880 667 1818 804 1801L804 1801Q894 1790 988.5 1752.5 1083 1715 1177.5 1664 1272 1613 1361 1561L1361 1561Q1483 1490 1588.5 1436.5 1694 1383 1770 1383L1770 1383Q1865 1383 1931.5 1443.5 1998 1504 1998 1605L1998 1605Q1998 1700 1929.5 1764.5 1861 1829 1755 1843L1755 1843Q1619 1861 1500.5 1898.5 1382 1936 1269 1996 1156 2056 1036 2144L1036 2144Q966 2196 918.5 2225.5 871 2255 834 2267.5 797 2280 757 2280ZM757 2215L757 2215Q788 2215 817 2204.5 846 2194 886 2167.5 926 2141 989 2094L989 2094Q1171 1957 1350 1881.5 1529 1806 1746 1778L1746 1778Q1829 1767 1878.5 1719.5 1928 1672 1928 1605L1928 1605Q1928 1537 1883 1492.5 1838 1448 1770 1448L1770 1448Q1707 1448 1612 1496.5 1517 1545 1398 1615L1398 1615Q1308 1667 1209 1721 1110 1775 1009 1814.5 908 1854 811 1866L811 1866Q699 1879 640 1924 581 1969 581 2038L581 2038Q581 2113 631 2164 681 2215 757 2215ZM1500 2123L1500 2123 1454 2085Q1488 2048 1548 2029.5 1608 2011 1726 2001L1726 2001Q1858 1990 1941.5 1963 2025 1936 2072.5 1886 2120 1836 2142 1756L2142 1756 2200 1771Q2161 1912 2051 1979 1941 2046 1722 2064L1722 2064Q1622 2072 1573 2085 1524 2098 1500 2123ZM815 610L815 610 852 610Q885 610 897.5 584.5 910 559 916 533.5 922 508 934 508L934 508Q946 508 954 533 962 558 974.5 582.5 987 607 1009 607L1009 607 1089 607Q1134 607 1149.5 566.5 1165 526 1165 410L1165 410Q1099 413 1041 415 983 417 929 417L929 417Q879 417 835.5 415 792 413 751 409L751 409Q746 432 746 456L746 456Q746 514 764.5 562 783 610 815 610ZM1651 1348L1651 1348 1639 1287Q1647 1282 1653 1270.5 1659 1259 1659 1246L1659 1246Q1659 1187 1698.5 1145.5 1738 1104 1789 1104L1789 1104Q1811 1104 1833 1111L1833 1111Q1837 1041 1883.5 997.5 1930 954 1996 954L1996 954Q2074 954 2125 1014L2125 1014 2077 1050Q2044 1014 1996 1014L1996 1014Q1952 1014 1920.5 1045 1889 1076 1889 1120L1889 1120Q1889 1130 1890 1145 1891 1160 1895 1190L1895 1190Q1863 1176 1840.5 1170 1818 1164 1801 1164L1801 1164Q1767 1164 1743 1187.5 1719 1211 1719 1246L1719 1246Q1719 1279 1699 1309 1679 1339 1651 1348Z"/>
</svg>