<svg xmlns="http://www.w3.org/2000/svg"
    viewBox="0 0 2600 2400">
  <!--
Copyright 2013 Google LLC
Noto is a trademark of Google Inc.
This Font Software is licensed under the SIL Open Font License, Version 1.1. This Font Software is distributed on an "AS IS" BASIS, WITHOUT WARRANTIES OR CONDITIONS OF ANY KIND, either express or implied. See the SIL Open Font License for the specific language, permissions and limitations governing your use of this Font Software.
http://scripts.sil.org/OFL
  -->
<path d="M2298 1490L2298 1490 2289 1402 2387 688 2252 688Q2224 688 2218 720L2218 720 2151 1118 1877 1058Q1880 1038 1880 1022L1880 1022Q1880 969 1836.5 942.5 1793 916 1726 916L1726 916 1699 916 1699 1229Q1606 1229 1555 1233.5 1504 1238 1471.5 1252 1439 1266 1401 1296L1401 1296Q1328 1279 1233 1275 1138 1271 1040 1271L1040 1271Q991 1271 947 1273 903 1275 868 1280L868 1280 785 1220Q829 1207 894 1200 959 1193 1041 1193L1041 1193Q1128 1193 1214 1202 1300 1211 1367 1220L1367 1220Q1407 1191 1440 1176.5 1473 1162 1514 1157 1555 1152 1619 1152L1619 1152 1619 836 1727 836Q1778 836 1832 857.5 1886 879 1934 909L1934 909 2090 1006 2140 699Q2155 610 2216 610L2216 610 2480 610 2366 1419Q2362 1453 2340 1471.5 2318 1490 2298 1490ZM547 1724L120 1724 120 1540 457 1540 547 1724ZM259 1588L179 1588Q179 1460 246 1396 313 1332 481 1299L481 1299 496 1377Q402 1396 350.5 1421 299 1446 279 1485.5 259 1525 259 1588L259 1588ZM692 1790L692 1790Q610 1790 542.5 1749.5 475 1709 434.5 1641 394 1573 394 1491L394 1491Q394 1407 434 1338.5 474 1270 542 1229.5 610 1189 692 1189L692 1189Q773 1189 841 1229.5 909 1270 950 1338.5 991 1407 991 1491L991 1491Q991 1573 950.5 1641 910 1709 842.5 1749.5 775 1790 692 1790ZM692 1700L692 1700Q778 1700 839.5 1638.5 901 1577 901 1491L901 1491Q901 1433 872.5 1385 844 1337 796.5 1308 749 1279 692 1279L692 1279Q606 1279 545 1340.5 484 1402 484 1491L484 1491Q484 1577 545.5 1638.5 607 1700 692 1700ZM693 1593L693 1593Q651 1593 620.5 1562.5 590 1532 590 1490L590 1490Q590 1446 620.5 1416.5 651 1387 693 1387L693 1387Q736 1387 766 1416.5 796 1446 796 1490L796 1490Q796 1532 766.5 1562.5 737 1593 693 1593ZM693 1533L693 1533Q711 1533 723.5 1520.5 736 1508 736 1490L736 1490Q736 1472 723.5 1459.5 711 1447 693 1447L693 1447Q675 1447 662.5 1459.5 650 1472 650 1490L650 1490Q650 1507 663 1520 676 1533 693 1533ZM980 1621L980 1621 980 1418Q1021 1418 1051 1448 1081 1478 1081 1519L1081 1519Q1081 1562 1051 1591.5 1021 1621 980 1621ZM1787 1624L933 1624 933 1544 1787 1544 1787 1624ZM1882 1724L1028 1724Q1021 1724 1018 1718 1015 1712 1019 1705L1019 1705 1077 1609 1809 1609 1882 1724ZM1308 1231L1114 1231 1116 1199Q1119 1151 1147.5 1118.5 1176 1086 1212.5 1069.5 1249 1053 1275 1053L1275 1053Q1308 1053 1308 1075L1308 1075 1308 1231ZM2022 1790L2022 1790Q1940 1790 1872.5 1749.5 1805 1709 1764.5 1641 1724 1573 1724 1491L1724 1491Q1724 1407 1764.5 1338.5 1805 1270 1872.5 1229.5 1940 1189 2022 1189L2022 1189Q2103 1189 2171 1229.5 2239 1270 2280 1338.5 2321 1407 2321 1491L2321 1491Q2321 1573 2280.5 1641 2240 1709 2172.5 1749.5 2105 1790 2022 1790ZM2022 1700L2022 1700Q2108 1700 2169.5 1638.5 2231 1577 2231 1491L2231 1491Q2231 1433 2202.5 1385 2174 1337 2126.5 1308 2079 1279 2022 1279L2022 1279Q1936 1279 1875 1341 1814 1403 1814 1491L1814 1491Q1814 1577 1875.5 1638.5 1937 1700 2022 1700ZM2023 1593L2023 1593Q1981 1593 1950.5 1562.5 1920 1532 1920 1490L1920 1490Q1920 1446 1950.5 1416.5 1981 1387 2023 1387L2023 1387Q2066 1387 2096 1416.5 2126 1446 2126 1490L2126 1490Q2126 1532 2096.5 1562.5 2067 1593 2023 1593ZM2023 1533L2023 1533Q2041 1533 2053.5 1520.5 2066 1508 2066 1490L2066 1490Q2066 1472 2053.5 1459.5 2041 1447 2023 1447L2023 1447Q2005 1447 1992.5 1459.5 1980 1472 1980 1490L1980 1490Q1980 1507 1993 1520 2006 1533 2023 1533ZM1771 852L1672 852 1672 796Q1632 791 1610.5 780.5 1589 770 1589 746L1589 746Q1589 705 1632 705L1632 705Q1672 705 1715.5 710 1759 715 1797 728L1797 728Q1831 740 1831 769L1831 769Q1831 779 1821.5 786.5 1812 794 1798 795L1798 795 1771 796 1771 852ZM2354 1378L2219 1378 2219 1280 2354 1280 2354 1378Z"/>
</svg>