<svg xmlns="http://www.w3.org/2000/svg"
    viewBox="0 0 2600 2400">
  <!--
Copyright 2013 Google LLC
Noto is a trademark of Google Inc.
This Font Software is licensed under the SIL Open Font License, Version 1.1. This Font Software is distributed on an "AS IS" BASIS, WITHOUT WARRANTIES OR CONDITIONS OF ANY KIND, either express or implied. See the SIL Open Font License for the specific language, permissions and limitations governing your use of this Font Software.
http://scripts.sil.org/OFL
  -->
<path d="M2335 2240L265 2240Q210 2240 175 2205 140 2170 140 2115L140 2115 140 453Q105 414 84.5 367.5 64 321 64 281L64 281Q64 227 99 193.5 134 160 190 160L190 160 1760 160Q1816 160 1846 193 1876 226 1876 281L1876 281Q1876 324 1855 369.5 1834 415 1800 453L1800 453 1800 927 2410 927Q2466 927 2501 960.5 2536 994 2536 1048L2536 1048Q2536 1088 2515.5 1133 2495 1178 2460 1217L2460 1217 2460 2115Q2460 2170 2425 2205 2390 2240 2335 2240L2335 2240ZM465 2098L310 2098 310 1829 465 1829 465 2098ZM360 1854L360 2048 415 2048 415 1854 360 1854ZM464 1858L311 1858Q296 1858 288.5 1845 281 1832 287 1811L287 1811 324 1685 451 1685 488 1811Q494 1832 486.5 1845 479 1858 464 1858L464 1858ZM760 1875L760 2160 880 2160 880 1875 760 1875ZM515 1585L335 1585 335 1325 515 1325 515 1585ZM385 1375L385 1535 465 1535 465 1375 385 1375ZM620 1755L620 2160 710 2160 710 1825 930 1825 930 2160 1010 2160 1010 1825 1230 1825 1230 2160 1320 2160 1320 1755 620 1755ZM1060 1875L1060 2160 1180 2160 1180 1875 1060 1875ZM515 1225L335 1225 335 965 515 965 515 1225ZM385 1015L385 1175 465 1175 465 1015 385 1015ZM1630 2098L1475 2098 1475 1829 1630 1829 1630 2098ZM1525 1854L1525 2048 1580 2048 1580 1854 1525 1854ZM800 1585L620 1585 620 605 800 605 800 1585ZM670 655L670 1535 750 1535 750 655 670 655ZM265 2160L265 2160 550 2160 550 1685 1390 1685 1390 2160 1720 2160 1720 500 220 500 220 2115Q220 2136 232 2148 244 2160 265 2160ZM515 865L335 865 335 605 515 605 515 865ZM385 655L385 815 465 815 465 655 385 655ZM1629 1862L1476 1862Q1461 1862 1453.5 1849 1446 1836 1452 1815L1452 1815 1489 1685 1616 1685 1653 1815Q1659 1836 1651.5 1849 1644 1862 1629 1862L1629 1862ZM1060 1585L880 1585 880 605 1060 605 1060 1585ZM930 655L930 1535 1010 1535 1010 655 930 655ZM1605 1585L1425 1585 1425 1325 1605 1325 1605 1585ZM1475 1375L1475 1535 1555 1535 1555 1375 1475 1375ZM2247 2098L1933 2098 1933 1829 2247 1829 2247 2098ZM1320 1585L1140 1585 1140 605 1320 605 1320 1585ZM1190 655L1190 1535 1270 1535 1270 655 1190 655ZM1983 1854L1983 2048 2197 2048 2197 1854 1983 1854ZM2245 1858L1935 1858Q1920 1858 1912.5 1845 1905 1832 1911 1811L1911 1811 1947 1685 2233 1685 2269 1811Q2275 1832 2267.5 1845 2260 1858 2245 1858L2245 1858ZM1605 1225L1425 1225 1425 965 1605 965 1605 1225ZM1475 1015L1475 1175 1555 1175 1555 1015 1475 1015ZM1800 1007L1800 2160 2335 2160Q2356 2160 2368 2148 2380 2136 2380 2115L2380 2115 2380 1181Q2413 1156 2434.5 1116.5 2456 1077 2456 1048L2456 1048Q2456 1007 2414 1007L2414 1007 1800 1007ZM2265 1575L1915 1575 1915 1345 2265 1345 2265 1575ZM1965 1395L1965 1525 2215 1525 2215 1395 1965 1395ZM220 420L220 420 1720 420Q1752 395 1774 352.5 1796 310 1796 281L1796 281Q1796 266 1789.5 253 1783 240 1770 240L1770 240 180 240Q144 240 144 281L144 281Q144 312 167 354 190 396 220 420ZM1605 865L1425 865 1425 605 1605 605 1605 865ZM1475 655L1475 815 1555 815 1555 655 1475 655ZM2421 1240L1765 1240 1765 1160 2421 1160 2421 1240ZM2038 948L1958 948 1958 851 1924 851Q1884 851 1884 821L1884 821Q1884 791 1924 791L1924 791 2407 791Q2447 791 2447 821L2447 821Q2447 851 2407 851L2407 851 2373 851 2373 948 2293 948 2293 851 2038 851 2038 948ZM1952 510L1952 805 2379 805 2379 510 1952 510ZM2429 826L1902 826 1902 460 2429 460 2429 826ZM1936 759L1936 759 1936 675Q1975 637 2020.5 613 2066 589 2097 589L2097 589Q2130 589 2146 611 2162 633 2174.5 655.5 2187 678 2207 678L2207 678Q2235 678 2290.5 634 2346 590 2404 535L2404 535 2404 601Q2333 672 2287.5 704 2242 736 2202 736L2202 736Q2172 736 2158.5 723 2145 710 2138 692.5 2131 675 2121.5 662 2112 649 2090 649L2090 649Q2059 649 2014.5 680.5 1970 712 1936 759Z"/>
</svg>