<svg xmlns="http://www.w3.org/2000/svg"
    viewBox="0 0 2600 2400">
  <!--
Copyright 2013 Google LLC
Noto is a trademark of Google Inc.
This Font Software is licensed under the SIL Open Font License, Version 1.1. This Font Software is distributed on an "AS IS" BASIS, WITHOUT WARRANTIES OR CONDITIONS OF ANY KIND, either express or implied. See the SIL Open Font License for the specific language, permissions and limitations governing your use of this Font Software.
http://scripts.sil.org/OFL
  -->
<path d="M2383 2140L217 2140 217 1068 291 896 852 898 852 1118 260 1116 297 1023 297 2060 2303 2060 2303 1023 2340 1116 1748 1118 1748 898 2309 896 2383 1068 2383 2140ZM668 1846L446 1846Q415 1846 415 1815L415 1815 415 1572Q415 1541 446 1541L446 1541 668 1541Q699 1541 699 1572L699 1572 699 1815Q699 1846 668 1846L668 1846ZM522 1541L522 1846 592 1846 592 1541 522 1541ZM705 1579L409 1579Q398 1579 391.5 1570.5 385 1562 388 1551L388 1551 419 1427Q426 1398 456 1398L456 1398 658 1398Q688 1398 695 1427L695 1427 726 1551Q729 1562 722.5 1570.5 716 1579 705 1579L705 1579ZM887 2092L807 2092 807 882 887 872 887 2092ZM1172 2100L1102 2100 1102 1481 1498 1481 1498 2100 1428 2100 1428 1551 1172 1551 1172 2100ZM1452 1820L1353 1820 1353 1770 1452 1770 1452 1820ZM1746 1366L854 1366 854 1276 1746 1276 1746 1366ZM1326 1159L1211 1159Q1200 1159 1200 1149L1200 1149 1200 1048Q1200 1037 1211 1037L1211 1037 1326 1037Q1337 1037 1337 1048L1337 1048 1337 1149Q1337 1159 1326 1159L1326 1159ZM1793 2092L1713 2092 1713 872 1793 882 1793 2092ZM1268 1078L1268 1078Q1315 1078 1347.5 1045 1380 1012 1380 966L1380 966Q1380 920 1347.5 887.5 1315 855 1268 855L1268 855Q1222 855 1189.5 887.5 1157 920 1157 966L1157 966Q1157 1012 1189.5 1045 1222 1078 1268 1078ZM1289 1147L1289 1147Q1206 1147 1129.5 1094.5 1053 1042 998 948L998 948Q964 946 964 929L964 929Q964 915 984 897.5 1004 880 1020 880L1020 880Q1029 880 1032.5 890 1036 900 1036 926L1036 926Q1055 954 1068.5 969.5 1082 985 1101 1001L1101 1001Q1100 990 1099 978.5 1098 967 1098 962L1098 962Q1098 894 1147.5 843.5 1197 793 1269 793L1269 793Q1308 793 1347 811.5 1386 830 1412.5 866.5 1439 903 1439 958L1439 958Q1439 980 1436.5 1000.5 1434 1021 1417 1042L1417 1042Q1437 1028 1452 1013 1467 998 1474 982L1474 982Q1481 966 1484 941.5 1487 917 1493 897 1499 877 1515 877L1515 877Q1531 877 1560 900 1589 923 1613 958 1637 993 1637 1028L1637 1028Q1637 1047 1618 1053 1599 1059 1551 1059L1551 1059Q1492 1099 1421 1123 1350 1147 1289 1147ZM2154 1846L1932 1846Q1901 1846 1901 1815L1901 1815 1901 1572Q1901 1541 1932 1541L1932 1541 2154 1541Q2185 1541 2185 1572L2185 1572 2185 1815Q2185 1846 2154 1846L2154 1846ZM2008 1541L2008 1846 2078 1846 2078 1541 2008 1541ZM2191 1579L1895 1579Q1884 1579 1877.5 1570.5 1871 1562 1874 1551L1874 1551 1905 1427Q1912 1398 1942 1398L1942 1398 2144 1398Q2174 1398 2181 1427L2181 1427 2212 1551Q2215 1562 2208.5 1570.5 2202 1579 2191 1579L2191 1579ZM887 872L825 923 718 802 1300 260 1882 802 1775 923 1713 872 1771 808 1300 369 829 808 887 872Z"/>
</svg>