<svg xmlns="http://www.w3.org/2000/svg"
    viewBox="0 0 2600 2400">
  <!--
Copyright 2013 Google LLC
Noto is a trademark of Google Inc.
This Font Software is licensed under the SIL Open Font License, Version 1.1. This Font Software is distributed on an "AS IS" BASIS, WITHOUT WARRANTIES OR CONDITIONS OF ANY KIND, either express or implied. See the SIL Open Font License for the specific language, permissions and limitations governing your use of this Font Software.
http://scripts.sil.org/OFL
  -->
<path d="M968 2240L968 2240Q743 2240 604 2158.5 465 2077 401.5 1893.5 338 1710 338 1404L338 1404Q252 1402 201 1357.5 150 1313 150 1243L150 1243Q150 1186 184.5 1145.5 219 1105 282 1084L282 1084Q334 1067 362 1036 390 1005 412 968 434 931 465 895L465 895 432 386Q426 288 483.5 224 541 160 634 160L634 160Q680 160 716 179.5 752 199 774 234L774 234Q804 196 842.5 178 881 160 930 160L930 160Q1025 160 1072.5 227 1120 294 1109 392L1109 392 1049 907Q1069 932 1089.5 961.5 1110 991 1129 1029L1129 1029Q1149 1066 1170 1084.5 1191 1103 1226 1112L1226 1112Q1282 1126 1315.5 1156 1349 1186 1349 1244L1349 1244Q1349 1290 1320.5 1328 1292 1366 1247 1388.5 1202 1411 1153 1411L1153 1411Q1145 1411 1136.5 1411 1128 1411 1120 1410L1120 1410Q1127 1554 1151 1636.5 1175 1719 1220.5 1753 1266 1787 1335 1787L1335 1787Q1465 1787 1559 1776.5 1653 1766 1719 1734.5 1785 1703 1829 1641L1829 1641Q1852 1608 1864 1566.5 1876 1525 1890.5 1473.5 1905 1422 1936 1359L1936 1359Q1936 1297 2008.5 1252 2081 1207 2203 1207L2203 1207Q2303 1207 2376.5 1244.5 2450 1282 2450 1352L2450 1352Q2450 1394 2421.5 1437.5 2393 1481 2358 1510L2358 1510Q2309 1550 2289.5 1581 2270 1612 2253.5 1642 2237 1672 2194 1709L2194 1709Q2171 1729 2134.5 1745 2098 1761 2065.5 1772.5 2033 1784 2022 1791L2022 1791Q1998 1806 1973 1843.5 1948 1881 1913.5 1922 1879 1963 1823 1990L1823 1990Q1752 2024 1688.5 2037.5 1625 2051 1570 2076L1570 2076Q1434 2137 1335.5 2173 1237 2209 1151.5 2224.5 1066 2240 968 2240ZM813 1301L813 1301Q764 1301 728 1262L728 1262Q695 1292 651 1292L651 1292Q620 1292 591 1275.5 562 1259 545 1231L545 1231 595 1199Q610 1218 623.5 1225 637 1232 655 1232L655 1232Q696 1232 734 1194L734 1194Q770 1241 809 1241L809 1241Q826 1241 838.5 1236 851 1231 867 1215L867 1215 902 1254Q885 1274 862 1287.5 839 1301 813 1301ZM968 2160L968 2160Q1034 2160 1092.5 2153 1151 2146 1214 2128.5 1277 2111 1355 2080.5 1433 2050 1537 2003L1537 2003Q1586 1981 1623.5 1971 1661 1961 1699.5 1951 1738 1941 1789 1918L1789 1918Q1836 1897 1869 1858.5 1902 1820 1929.5 1781.5 1957 1743 1986 1721L1986 1721Q2002 1709 2031.5 1699 2061 1689 2092 1677 2123 1665 2141 1649L2141 1649Q2177 1617 2193 1588.5 2209 1560 2231.5 1526.5 2254 1493 2307 1448L2307 1448Q2333 1425 2351.5 1398 2370 1371 2370 1352L2370 1352Q2370 1325 2323.5 1306 2277 1287 2203 1287L2203 1287Q2177 1287 2144 1291 2111 1295 2090 1301L2090 1301Q2020 1521 1908.5 1648 1797 1775 1652 1828 1507 1881 1335 1881L1335 1881Q1231 1881 1166 1821 1101 1761 1071.5 1635.5 1042 1510 1042 1315L1042 1315Q1059 1324 1084.5 1329 1110 1334 1153 1334L1153 1334Q1198 1334 1233.5 1305.5 1269 1277 1269 1244L1269 1244Q1269 1215 1247.5 1199 1226 1183 1192.5 1168 1159 1153 1121.5 1127.5 1084 1102 1052 1053L1052 1053 972 932 1030 382Q1035 339 1025.5 306.5 1016 274 992.5 256 969 238 930 238L930 238Q892 238 866.5 251.5 841 265 828.5 290.5 816 316 815 353L815 353 800 872Q784 870 768 869.5 752 869 736 869L736 869 735 352Q735 296 709.5 267 684 238 634 238L634 238Q591 238 563 256 535 274 522.5 306 510 338 512 381L512 381 547 927Q515 958 495.5 991.5 476 1025 455 1057.5 434 1090 398.5 1117 363 1144 298 1163L298 1163Q230 1183 230 1244L230 1244Q230 1283 258.5 1305 287 1327 339 1327L339 1327Q377 1327 422 1319L422 1319Q421 1341 419.5 1363 418 1385 418 1407L418 1407Q418 1689 470.5 1853.5 523 2018 644 2089 765 2160 968 2160ZM629 464L629 464Q592 464 592 397L592 397Q592 330 629 330L629 330Q666 330 666 397L666 397Q666 464 629 464ZM1742 1655L1742 1655 1742 1577Q1635 1577 1551.5 1523.5 1468 1470 1420 1377.5 1372 1285 1372 1167L1372 1167Q1372 1066 1406.5 987.5 1441 909 1501.5 864 1562 819 1639 819L1639 819Q1749 819 1820 900 1891 981 1891 1106L1891 1106Q1891 1195 1853 1258 1815 1321 1753 1321L1753 1321Q1707 1321 1674 1280 1641 1239 1641 1190L1641 1190Q1641 1158 1654.5 1121.5 1668 1085 1690 1065L1690 1065 1635 1005Q1602 1038 1581.5 1088.5 1561 1139 1561 1190L1561 1190Q1561 1277 1618.5 1338 1676 1399 1757 1399L1757 1399Q1851 1399 1911 1316.5 1971 1234 1971 1106L1971 1106Q1971 999 1927.5 916.5 1884 834 1809 787.5 1734 741 1639 741L1639 741Q1539 741 1460.5 795 1382 849 1337 945 1292 1041 1292 1167L1292 1167Q1292 1309 1351 1419.5 1410 1530 1512 1592.5 1614 1655 1742 1655ZM1718 1762L1365 1841 1136 1737 1065 1354 1175 1358 1272 1334 1277 1201 1114 1098 1001 906 1054 502Q1089 471 1180 444.5 1271 418 1379 418L1379 418Q1535 418 1670 477.5 1805 537 1906.5 641.5 2008 746 2065 883 2122 1020 2122 1175L2122 1175Q2122 1220 2094 1291 2066 1362 2021 1441 1976 1520 1925 1590.5 1874 1661 1828 1706L1828 1706 1718 1762ZM919 464L919 464Q882 464 882 397L882 397Q882 330 919 330L919 330Q956 330 956 397L956 397Q956 464 919 464ZM1248 610L1248 610Q1266 610 1301 600 1336 590 1379 590L1379 590Q1414 590 1436 595 1458 600 1472 600L1472 600Q1489 600 1500.5 589 1512 578 1512 561L1512 561Q1512 510 1379 510L1379 510Q1298 510 1253 527.5 1208 545 1208 574L1208 574Q1208 589 1220 599.5 1232 610 1248 610Z"/>
</svg>