<svg xmlns="http://www.w3.org/2000/svg"
    viewBox="0 0 2600 2400">
  <!--
Copyright 2013, 2022 Google Inc. All Rights Reserved.
Noto is a trademark of Google Inc.
This Font Software is licensed under the SIL Open Font License, Version 1.1. This Font Software is distributed on an "AS IS" BASIS, WITHOUT WARRANTIES OR CONDITIONS OF ANY KIND, either express or implied. See the SIL Open Font License for the specific language, permissions and limitations governing your use of this Font Software.
http://scripts.sil.org/OFL
  -->
<path d="M1165 2240L1165 2240Q1088 2240 1047 2213.5 1006 2187 1006 2138L1006 2138Q1006 2103 1021.5 2057 1037 2011 1037 1981L1037 1981 1037 1833Q934 1766 875 1669.5 816 1573 816 1430L816 1430Q816 1408 818.5 1366 821 1324 828 1273L828 1273 658 1151Q585 1098 547.5 1050.5 510 1003 514 955L514 955 532 764Q535 732 554.5 717.5 574 703 599 695.5 624 688 646 680.5 668 673 676 657L676 657Q712 582 766.5 531 821 480 893.5 454.5 966 429 1056 429L1056 429Q1065 429 1073.5 429 1082 429 1092 431L1092 431Q1154 315 1222 237.5 1290 160 1339 160L1339 160Q1382 160 1417 210 1452 260 1478.5 342.5 1505 425 1520.5 524.5 1536 624 1539 724L1539 724Q1550 753 1556.5 793 1563 833 1563 872L1563 872Q1563 948 1533 1009.5 1503 1071 1462 1125L1462 1125Q1512 1107 1549 1098.5 1586 1090 1628 1090L1628 1090Q1680 1090 1738.5 1103 1797 1116 1840 1136L1840 1136Q1911 1126 1950.5 1087 1990 1048 1990 999L1990 999Q1990 963 1964 940 1938 917 1904.5 896 1871 875 1845 846.5 1819 818 1819 772L1819 772Q1819 725 1853 692 1887 659 1955 659L1955 659Q2034 659 2108.5 701 2183 743 2231.5 819.5 2280 896 2280 1000L2280 1000Q2280 1090 2239 1173 2198 1256 2129 1315.5 2060 1375 1974 1397L1974 1397Q1982 1443 1982 1480L1982 1480Q1982 1539 1966 1582.5 1950 1626 1934 1657.5 1918 1689 1918 1714L1918 1714 1918 2093Q1918 2157 1868 2190.5 1818 2224 1736 2224L1736 2224Q1666 2224 1627 2197.5 1588 2171 1588 2116L1588 2116Q1588 2081 1599 2058.5 1610 2036 1620.5 2011.5 1631 1987 1631 1947L1631 1947Q1631 1918 1621.5 1873.5 1612 1829 1600 1788L1600 1788Q1548 1803 1486 1809 1424 1815 1347 1817L1347 1817 1347 2106Q1347 2167 1306 2203.5 1265 2240 1165 2240ZM926 2142L926 2142Q879 2142 860 2133 841 2124 841 2099L841 2099Q841 2078 855 2051 869 2024 882.5 1999 896 1974 896 1959L896 1959 896 1678 1081 1845 1063 2109Q1024 2142 926 2142ZM403 1059L403 1059 371 1009Q415 985 461 965 507 945 555 926L555 926 571 985Q526 1002 484 1020.5 442 1039 403 1059ZM339 942L339 942 320 891Q373 874 429.5 861 486 848 549 838L549 838 561 893Q501 900 446 912.5 391 925 339 942ZM1532 2129L1532 2129Q1502 2129 1483.5 2120 1465 2111 1465 2089L1465 2089Q1465 2072 1477.5 2052 1490 2032 1502.5 2007 1515 1982 1515 1951L1515 1951Q1515 1865 1511.5 1819.5 1508 1774 1503 1750L1503 1750 1609 1727 1661 1904 1616 2099Q1603 2113 1582 2121 1561 2129 1532 2129ZM570 756L543 809Q506 804 468.5 802 431 800 393 800L393 800Q377 800 362 800 347 800 338 801L338 801 338 746Q347 745 362 745 377 745 393 745L393 745Q431 745 482 748 533 751 570 756L570 756ZM586 1049L586 1049 584 988Q640 988 678.5 975 717 962 746 931L746 931 789 972Q755 1012 699.5 1030.5 644 1049 586 1049ZM594 942L594 942Q582 907 582 869L582 869Q582 839 589.5 818 597 797 618 771L618 771Q664 782 703 801 742 820 742 843L742 843Q742 858 719.5 869 697 880 668 890.5 639 901 616.5 913 594 925 594 942ZM1115 1123L1059 1147Q1038 1096 1007 1043.5 976 991 935 939L935 939 964 892Q1007 934 1042.5 988.5 1078 1043 1115 1123L1115 1123ZM1214 1005L1181 1056Q1132 1018 1072 989.5 1012 961 948 945L948 945 964 892Q1035 908 1095.5 935.5 1156 963 1214 1005L1214 1005ZM895 841L895 841Q873 841 860.5 824.5 848 808 848 786L848 786Q848 753 872.5 723.5 897 694 927 694L927 694Q949 694 961.5 710.5 974 727 974 749L974 749Q974 784 950 812.5 926 841 895 841ZM983 944L983 944 964 892Q1021 873 1089 861 1157 849 1203 849L1203 849 1206 909Q1151 909 1089 918.5 1027 928 983 944ZM1165 2160L1165 2160Q1226 2160 1246.5 2147.5 1267 2135 1267 2107L1267 2107 1267 1737Q1275 1738 1284 1738 1293 1738 1306 1738L1306 1738Q1424 1738 1517.5 1724.5 1611 1711 1657 1689L1657 1689Q1678 1748 1689.5 1814 1701 1880 1701 1930L1701 1930Q1701 1985 1690.5 2016.5 1680 2048 1669 2067 1658 2086 1658 2104L1658 2104Q1658 2128 1681 2136 1704 2144 1736 2144L1736 2144Q1780 2144 1809 2133.5 1838 2123 1838 2103L1838 2103 1838 1704Q1838 1678 1854 1647.5 1870 1617 1886 1573.5 1902 1530 1902 1466L1902 1466Q1902 1439 1897.5 1408 1893 1377 1882 1341L1882 1341Q1978 1325 2049.5 1276 2121 1227 2160.5 1155.5 2200 1084 2200 1000L2200 1000Q2200 922 2166 863 2132 804 2077.5 771.5 2023 739 1963 739L1963 739Q1932 739 1915.5 751 1899 763 1899 778L1899 778Q1899 799 1925 818 1951 837 1984.5 860.5 2018 884 2044 917 2070 950 2070 999L2070 999Q2070 1054 2039.5 1102.5 2009 1151 1955 1182 1901 1213 1829 1218L1829 1218Q1793 1198 1736 1184 1679 1170 1626 1170L1626 1170Q1574 1170 1528 1186 1482 1202 1441 1220L1441 1220Q1407 1235 1385.5 1242.5 1364 1250 1345 1250L1345 1250Q1321 1250 1306 1236.5 1291 1223 1291 1201L1291 1201Q1291 1182 1302.5 1166 1314 1150 1339 1131L1339 1131Q1392 1091 1423.5 1050 1455 1009 1469 965 1483 921 1483 872L1483 872Q1483 843 1478.5 811 1474 779 1460 733L1460 733Q1460 663 1447.5 578.5 1435 494 1416 417 1397 340 1375.5 290 1354 240 1336 240L1336 240Q1326 240 1300 268 1274 296 1243 339 1212 382 1184 429 1156 476 1142 514L1142 514Q1118 512 1092.5 510.5 1067 509 1048 509L1048 509Q941 509 864.5 555.5 788 602 741 700L741 700Q727 729 696.5 737 666 745 639.5 756 613 767 609 804L609 804 594 955Q590 990 628.5 1024.5 667 1059 745 1115L745 1115 906 1230Q901 1276 898.5 1339 896 1402 896 1430L896 1430Q896 1524 922 1583.5 948 1643 993.5 1681.5 1039 1720 1098 1752L1098 1752 1119 1981Q1123 2018 1099.5 2054 1076 2090 1076 2113L1076 2113Q1076 2139 1096 2149.5 1116 2160 1165 2160ZM1489 1410L1489 1410Q1470 1410 1459.5 1397.5 1449 1385 1449 1366L1449 1366 1449 1154 1529 1154 1529 1366Q1529 1385 1518.5 1397.5 1508 1410 1489 1410ZM1679 1390L1679 1390Q1660 1390 1649.5 1377.5 1639 1365 1639 1346L1639 1346 1639 1134 1719 1134 1719 1346Q1719 1365 1708.5 1377.5 1698 1390 1679 1390ZM903 500L781 575Q771 561 766.5 533.5 762 506 762 471L762 471Q762 409 774.5 339 787 269 808.5 219.5 830 170 857 170L857 170Q888 170 942.5 244.5 997 319 1055 463L1055 463 903 500ZM1343 684L1343 684Q1331 684 1309.5 665 1288 646 1265 626L1265 626Q1243 606 1224 592.5 1205 579 1205 569L1205 569Q1205 557 1218 529 1231 501 1249.5 469.5 1268 438 1284.5 416 1301 394 1308 394L1308 394Q1320 394 1332.5 430 1345 466 1353.5 516 1362 566 1362 609L1362 609Q1362 684 1343 684Z"/>
</svg>