<svg xmlns="http://www.w3.org/2000/svg"
    viewBox="0 0 2600 2400">
  <!--
Copyright 2013, 2022 Google Inc. All Rights Reserved.
Noto is a trademark of Google Inc.
This Font Software is licensed under the SIL Open Font License, Version 1.1. This Font Software is distributed on an "AS IS" BASIS, WITHOUT WARRANTIES OR CONDITIONS OF ANY KIND, either express or implied. See the SIL Open Font License for the specific language, permissions and limitations governing your use of this Font Software.
http://scripts.sil.org/OFL
  -->
<path d="M1406 2062L1406 2062Q1322 2062 1253 2014L1253 2014Q1175 2048 1085 2048L1085 2048Q960 2048 851.5 1982 743 1916 685 1805L685 1805Q592 1798 517 1750 442 1702 398.5 1625 355 1548 355 1455L355 1455Q355 1382 381 1320L381 1320Q286 1228 286 1095L286 1095Q286 1015 323.5 946 361 877 425 834L425 834Q362 749 362 644L362 644Q362 556 405 484.5 448 413 522 370.5 596 328 689 328L689 328Q739 250 821.5 205 904 160 998 160L998 160Q1111 160 1210 221.5 1309 283 1350 375L1350 375 1293 452Q1274 383 1229 335.5 1184 288 1123.5 264 1063 240 998 240L998 240Q941 240 889 261 837 282 796 320.5 755 359 731 412L731 412Q716 407 701 405.5 686 404 672 404L672 404Q567 404 504.5 473.5 442 543 442 644L442 644Q442 698 461.5 743 481 788 525 835L525 835Q458 876 412 950 366 1024 366 1095L366 1095Q366 1159 394.5 1218.5 423 1278 471 1303L471 1303Q435 1369 435 1455L435 1455Q435 1527 472 1589 509 1651 568 1688.5 627 1726 691 1726L691 1726Q717 1726 737 1722L737 1722Q757 1798 810.5 1853 864 1908 936 1938 1008 1968 1085 1968L1085 1968Q1135 1968 1180.5 1957 1226 1946 1268 1919L1268 1919Q1296 1953 1331.5 1967.5 1367 1982 1406 1982L1406 1982Q1481 1982 1541.5 1934.5 1602 1887 1628 1819L1628 1819Q1670 1842 1704 1850 1738 1858 1772 1858L1772 1858Q1841 1858 1894.5 1826 1948 1794 1981.5 1738 2015 1682 2023 1610L2023 1610Q2088 1589 2135.5 1545 2183 1501 2208.5 1440 2234 1379 2234 1309L2234 1309Q2234 1229 2200 1155.5 2166 1082 2102 1028L2102 1028Q2121 967 2121 926L2121 926Q2121 854 2088 793.5 2055 733 2002 694 1949 655 1889 646L1889 646 1880 565Q1970 571 2043 623 2116 675 2158.5 755 2201 835 2201 926L2201 926Q2201 964 2192 1003L2192 1003Q2251 1065 2282.5 1144.5 2314 1224 2314 1309L2314 1309Q2314 1425 2257 1524.5 2200 1624 2093 1676L2093 1676Q2071 1795 1979.5 1866.5 1888 1938 1772 1938L1772 1938Q1740 1938 1709.5 1931.5 1679 1925 1650 1914L1650 1914Q1616 1981 1549.5 2021.5 1483 2062 1406 2062ZM857 2159L857 2159Q815 2159 788.5 2139 762 2119 759 2081L759 2081 740 1847 952 1990 952 2082Q952 2116 928 2137.5 904 2159 857 2159ZM1207 2240L1207 2240Q1149 2240 1126.5 2206 1104 2172 1104 2150L1104 2150 1104 2014 1307 1999 1307 2150Q1307 2159 1300.5 2180.5 1294 2202 1273 2221 1252 2240 1207 2240ZM1623 2146L1623 2146Q1571 2146 1533.5 2116 1496 2086 1496 2019L1496 2019 1606 1893 1724 1902 1724 2082Q1724 2099 1700 2122.5 1676 2146 1623 2146ZM886 1323L886 1323Q921 1323 958 1298L958 1298 928 1257Q905 1270 885 1270L885 1270Q848 1270 845 1223L845 1223Q889 1216 919.5 1193 950 1170 950 1147L950 1147Q950 1130 931 1130L931 1130Q918 1130 895.5 1138 873 1146 835 1162L835 1162Q813 1138 785.5 1119.5 758 1101 744 1101L744 1101Q729 1101 729 1118L729 1118Q729 1140 754 1171.5 779 1203 808 1218L808 1218Q792 1244 769 1244L769 1244Q746 1244 721 1222L721 1222 690 1259Q729 1298 771 1298L771 1298Q797 1298 814 1281L814 1281Q841 1323 886 1323ZM371 968L339 1090Q293 1089 252 1043 211 997 185.5 922 160 847 160 759L160 759Q160 669 188.5 580 217 491 270 418 323 345 395 301.5 467 258 554 258L554 258Q635 258 683.5 295.5 732 333 732 395L732 395 614 375 498 415 395 634 451 829 371 968ZM885 1435L885 1435Q728 1435 654.5 1379 581 1323 581 1199L581 1199Q581 1144 596 1100.5 611 1057 625.5 1012.5 640 968 640 910L640 910Q640 885 636.5 852 633 819 623 778L623 778Q708 759 761 704L761 704Q780 768 836.5 810.5 893 853 965 853L965 853Q1011 853 1051.5 835.5 1092 818 1127 787L1127 787Q1172 845 1219 845L1219 845Q1201 914 1190 997.5 1179 1081 1170 1156 1161 1231 1150 1275L1150 1275Q1132 1346 1089 1380.5 1046 1415 991.5 1425 937 1435 885 1435ZM745 979L745 979Q772 979 791.5 956 811 933 811 903L811 903Q811 874 794.5 854.5 778 835 752 835L752 835Q725 835 705 857.5 685 880 685 912L685 912Q685 940 702.5 959.5 720 979 745 979ZM1961 2142L1961 2142Q1912 2142 1883.5 2120 1855 2098 1855 2072L1855 2072 1855 1911 1974 1829 2078 1719 2078 2075Q2078 2103 2042 2122.5 2006 2142 1961 2142ZM1066 1035L1066 1035Q1095 1035 1116 1010.5 1137 986 1137 953L1137 953Q1137 921 1118.5 900 1100 879 1071 879L1071 879Q1042 879 1021 903.5 1000 928 1000 961L1000 961Q1000 992 1019 1013.5 1038 1035 1066 1035ZM1588 1295L1588 1295Q1498 1295 1423 1253.5 1348 1212 1303.5 1143.5 1259 1075 1259 995L1259 995Q1259 903 1293 845.5 1327 788 1378.5 761 1430 734 1482 734L1482 734Q1553 734 1599 771.5 1645 809 1645 864L1645 864Q1645 900 1626 925 1607 950 1578 950L1578 950Q1553 950 1540.5 934.5 1528 919 1520.5 903 1513 887 1499 887L1499 887Q1486 887 1477 901.5 1468 916 1468 940L1468 940Q1468 976 1499.5 999.5 1531 1023 1574 1023L1574 1023Q1635 1023 1674.5 979.5 1714 936 1714 861L1714 861Q1714 766 1639 713 1564 660 1418 660L1418 660Q1342 660 1300.5 626.5 1259 593 1259 532L1259 532Q1259 441 1333.5 386 1408 331 1529 331L1529 331Q1662 331 1766.5 394.5 1871 458 1931 568.5 1991 679 1991 820L1991 820Q1991 954 1937.5 1061.5 1884 1169 1793 1232 1702 1295 1588 1295ZM2341 1150L2341 1150Q2289 1150 2231.5 1112.5 2174 1075 2132 1025L2132 1025 2175 857Q2203 857 2231 885 2259 913 2287.5 950.5 2316 988 2345.5 1016 2375 1044 2405 1044L2405 1044Q2418 1044 2429 1051.5 2440 1059 2440 1076L2440 1076Q2440 1106 2409.5 1128 2379 1150 2341 1150Z"/>
</svg>