<svg xmlns="http://www.w3.org/2000/svg"
    viewBox="0 0 2600 2400">
  <!--
Copyright 2013 Google LLC
Noto is a trademark of Google Inc.
This Font Software is licensed under the SIL Open Font License, Version 1.1. This Font Software is distributed on an "AS IS" BASIS, WITHOUT WARRANTIES OR CONDITIONS OF ANY KIND, either express or implied. See the SIL Open Font License for the specific language, permissions and limitations governing your use of this Font Software.
http://scripts.sil.org/OFL
  -->
<path d="M1063 1812L1063 1812Q997 1812 943 1778 889 1744 889 1690L889 1690Q889 1646 912.5 1615.5 936 1585 961.5 1549.5 987 1514 993 1458L993 1458Q918 1402 859.5 1336.5 801 1271 769 1204L769 1204Q617 1199 495 1149.5 373 1100 302 1018.5 231 937 231 837L231 837Q231 814 241.5 797.5 252 781 286.5 763 321 745 391 716L391 716Q436 697 487.5 660.5 539 624 600.5 585 662 546 738 518.5 814 491 908 491L908 491Q961 491 1006 507L1006 507Q1035 428 1101 380.5 1167 333 1252 333L1252 333Q1320 333 1374 367.5 1428 402 1459.5 459.5 1491 517 1491 588L1491 588Q1491 658 1455 725L1455 725Q1596 681 1718 681L1718 681Q1890 681 2019.5 759 2149 837 2222 974 2295 1111 2295 1288L2295 1288Q2295 1433 2247 1542 2199 1651 2115 1711.5 2031 1772 1921 1772L1921 1772Q1830 1772 1744 1732 1658 1692 1589.5 1623.5 1521 1555 1481 1469 1441 1383 1441 1292L1441 1292Q1441 1186 1496 1096 1551 1006 1645 963L1645 963 1676 1030Q1604 1064 1562.5 1137.5 1521 1211 1521 1292L1521 1292Q1521 1366 1555 1437.5 1589 1509 1646.5 1567 1704 1625 1775.5 1659.5 1847 1694 1921 1694L1921 1694Q2010 1694 2076 1644 2142 1594 2178.5 1503 2215 1412 2215 1288L2215 1288Q2215 1128 2152.5 1009.5 2090 891 1978 825 1866 759 1718 759L1718 759Q1617 759 1527.5 780 1438 801 1355 844L1355 844 1326 808Q1377 745 1394 694 1411 643 1411 594L1411 594Q1411 517 1365 464 1319 411 1252 411L1252 411Q1178 411 1125 460 1072 509 1045 589L1045 589Q995 575 965.5 573 936 571 908 571L908 571Q821 571 741.5 601.5 662 632 550 714L550 714Q516 739 481 758.5 446 778 413 792L413 792Q376 808 356 819 336 830 328.5 840 321 850 321 863L321 863Q321 936 391 999 461 1062 576.5 1100 692 1138 828 1138L828 1138Q850 1206 915.5 1282 981 1358 1078 1421L1078 1421Q1078 1476 1061 1527 1044 1578 1003 1627L1003 1627Q981 1654 972.5 1668.5 964 1683 964 1693L964 1693Q964 1709 985 1724 1006 1739 1033 1739L1033 1739Q1085 1739 1138 1721 1191 1703 1237.5 1674.5 1284 1646 1316.5 1613.5 1349 1581 1361 1551L1361 1551Q1403 1566 1455 1574 1507 1582 1556 1582L1556 1582Q1607 1582 1650 1577L1650 1577 1661 1653Q1638 1657 1610 1658.5 1582 1660 1552 1660L1552 1660Q1503 1660 1465 1655 1427 1650 1380 1637L1380 1637Q1345 1685 1291 1725 1237 1765 1177 1788.5 1117 1812 1063 1812ZM170 1112L170 1112 130 1068Q174 1030 218.5 997.5 263 965 307 937L307 937 339 988Q296 1016 253.5 1046 211 1076 170 1112ZM100 974L100 974 80 918Q133 898 184 884 235 870 284 860L284 860 298 918Q249 928 200 941.5 151 955 100 974ZM885 1858L885 1858Q855 1858 841.5 1847 828 1836 828 1822L828 1822Q816 1828 794 1828L794 1828Q773 1828 758.5 1816.5 744 1805 744 1792L744 1792Q744 1778 760 1757 776 1736 799 1717L799 1717Q799 1695 819 1679.5 839 1664 858.5 1639.5 878 1615 878 1566L878 1566 878 1321 1037 1441 965 1651 913 1718 1037 1804Q1024 1825 973.5 1841.5 923 1858 885 1858ZM285 777L274 836Q227 828 181 824.5 135 821 92 821L92 821 92 761Q137 761 186 765 235 769 285 777L285 777ZM327 942L327 942 310 872 332 798Q373 798 408.5 808.5 444 819 444 842L444 842Q444 857 427.5 881 411 905 384 923.5 357 942 327 942ZM2015 2190L2015 2190Q1904 2190 1805 2165 1706 2140 1616.5 2107 1527 2074 1445.5 2049 1364 2024 1289 2024L1289 2024Q1219 2024 1165 2045 1111 2066 1072 2093.5 1033 2121 1009 2142 985 2163 975 2163L975 2163Q968 2163 968 2151L968 2151Q968 2097 1017.5 2045.5 1067 1994 1150 1960 1233 1926 1334 1926L1334 1926Q1415 1926 1500.5 1946 1586 1966 1673.5 1992.5 1761 2019 1850 2039 1939 2059 2027 2059L2027 2059Q2197 2059 2288.5 1989 2380 1919 2380 1823L2380 1823Q2380 1756 2329.5 1693.5 2279 1631 2187 1583L2187 1583 2226 1437Q2363 1492 2441.5 1588 2520 1684 2520 1800L2520 1800Q2520 1900 2460 1989 2400 2078 2287.5 2134 2175 2190 2015 2190ZM785 875L785 875Q769 875 759 860.5 749 846 749 827L749 827Q749 796 769.5 771 790 746 815 746L815 746Q832 746 841.5 760 851 774 851 794L851 794Q851 824 830.5 849.5 810 875 785 875ZM1944 1844L1944 1844Q1892 1844 1836.5 1836.5 1781 1829 1701 1829L1701 1829Q1661 1829 1621.5 1832 1582 1835 1549 1835L1549 1835Q1519 1835 1499.5 1829.5 1480 1824 1480 1809L1480 1809Q1480 1795 1494.5 1779.5 1509 1764 1554.5 1745 1600 1726 1692 1703L1692 1703 1789 1679 1915 1728 2026 1734Q2026 1770 2012 1807 1998 1844 1944 1844ZM904 530L708 575Q700 527 700 481L700 481Q700 457 711.5 412.5 723 368 752.5 321.5 782 275 833.5 242.5 885 210 964 210L964 210Q1029 210 1075 258 1121 306 1130 383L1130 383 1027 530 904 530ZM1203 725L1203 725Q1169 725 1149.5 700.5 1130 676 1130 640L1130 640Q1130 590 1166 547 1202 504 1250 504L1250 504Q1284 504 1304 527.5 1324 551 1324 586L1324 586Q1324 637 1288 681 1252 725 1203 725Z"/>
</svg>