<svg xmlns="http://www.w3.org/2000/svg"
    viewBox="0 0 2600 2400">
  <!--
Copyright 2013 Google LLC
Noto is a trademark of Google Inc.
This Font Software is licensed under the SIL Open Font License, Version 1.1. This Font Software is distributed on an "AS IS" BASIS, WITHOUT WARRANTIES OR CONDITIONS OF ANY KIND, either express or implied. See the SIL Open Font License for the specific language, permissions and limitations governing your use of this Font Software.
http://scripts.sil.org/OFL
  -->
<path d="M1405 2061L1405 2061Q1320 2061 1252 2015L1252 2015Q1174 2048 1085 2048L1085 2048Q959 2048 852 1982.5 745 1917 686 1807L686 1807Q593 1800 518 1751.5 443 1703 399.5 1625.5 356 1548 356 1454L356 1454Q356 1383 383 1320L383 1320Q287 1227 287 1094L287 1094Q287 1014 324.5 945.5 362 877 425 834L425 834Q363 747 363 644L363 644Q363 554 406 483 449 412 523 370.5 597 329 689 329L689 329Q740 251 826 205.5 912 160 1000 160L1000 160Q1110 160 1200.5 219.5 1291 279 1336 376L1336 376Q1343 375 1357 375L1357 375Q1411 375 1457 401.5 1503 428 1531 472L1531 472Q1569 456 1614 456L1614 456Q1681 456 1735 492.5 1789 529 1812 587L1812 587Q1835 584 1858 584L1858 584Q1952 584 2029.5 630.5 2107 677 2153 754.5 2199 832 2199 926L2199 926Q2199 967 2192 1003L2192 1003Q2249 1064 2281 1143.5 2313 1223 2313 1309L2313 1309Q2313 1424 2255.5 1523.5 2198 1623 2092 1675L2092 1675Q2070 1795 1979 1867 1888 1939 1772 1939L1772 1939Q1710 1939 1649 1917L1649 1917Q1613 1982 1548 2021.5 1483 2061 1405 2061ZM862 2159L862 2159Q818 2159 790 2139 762 2119 759 2080L759 2080 738 1823 953 1966 953 2081Q953 2115 929.5 2137 906 2159 862 2159ZM1207 2240L1207 2240Q1146 2240 1124.5 2206 1103 2172 1103 2150L1103 2150 1103 1989 1307 1974 1307 2150Q1307 2159 1300 2180.5 1293 2202 1271.5 2221 1250 2240 1207 2240ZM856 1323L856 1323Q891 1323 928 1298L928 1298 898 1257Q875 1270 855 1270L855 1270Q818 1270 815 1223L815 1223Q859 1216 889.5 1193 920 1170 920 1147L920 1147Q920 1130 901 1130L901 1130Q888 1130 865.5 1138 843 1146 805 1162L805 1162Q783 1138 755.5 1119.5 728 1101 714 1101L714 1101Q699 1101 699 1118L699 1118Q699 1140 724 1171.5 749 1203 778 1218L778 1218Q762 1244 739 1244L739 1244Q716 1244 691 1222L691 1222 660 1259Q699 1298 741 1298L741 1298Q767 1298 784 1281L784 1281Q811 1323 856 1323ZM1619 2146L1619 2146Q1564 2146 1529 2116.5 1494 2087 1494 2029L1494 2029 1606 1904 1726 1913 1726 2081Q1726 2098 1699 2122 1672 2146 1619 2146ZM706 968L706 968Q732 972 753 954.5 774 937 780 908L780 908Q786 879 771.5 854.5 757 830 731 826L731 826Q706 821 684.5 839 663 857 657 886L657 886Q651 915 665.5 939 680 963 706 968ZM869 1436L869 1436Q736 1436 650 1369 564 1302 564 1199L564 1199Q564 1147 584 1089 604 1031 604 982L604 982Q604 965 599 949 594 933 586 924L586 924Q572 929 558 932 544 935 528 935L528 935Q482 935 439 909 396 883 369 847.5 342 812 342 784L342 784Q342 755 371 755L371 755Q401 755 447.5 769.5 494 784 534 784L534 784Q594 784 648 761.5 702 739 742 701L742 701Q761 765 817 807.5 873 850 946 850L946 850Q1006 850 1056.5 818.5 1107 787 1132 738L1132 738Q1144 783 1184 813.5 1224 844 1276 844L1276 844Q1310 844 1339 830 1368 816 1388 793L1388 793Q1416 834 1466.5 857.5 1517 881 1551 883L1551 883Q1592 885 1592 912L1592 912Q1592 934 1533.5 961.5 1475 989 1335 989L1335 989Q1302 989 1266 1010 1230 1031 1213 1062L1213 1062Q1190 1103 1179.5 1167 1169 1231 1151 1275L1151 1275Q1120 1351 1046 1393.5 972 1436 869 1436ZM1955 2142L1955 2142Q1910 2142 1881.5 2119.5 1853 2097 1853 2071L1853 2071 1853 1884 1971 1818 2076 1702 2076 2074Q2076 2102 2039.5 2122 2003 2142 1955 2142ZM1065 1034L1065 1034Q1093 1039 1116.5 1019.5 1140 1000 1146 969L1146 969Q1152 937 1136.5 911 1121 885 1092 880L1092 880Q1064 875 1040.5 894 1017 913 1011 945L1011 945Q1005 976 1021 1002.5 1037 1029 1065 1034ZM1405 1983L1405 1983Q1476 1983 1534.5 1938 1593 1893 1622 1820L1622 1820Q1663 1841 1698 1851 1733 1861 1772 1861L1772 1861Q1873 1861 1945.5 1791.5 2018 1722 2028 1613L2028 1613Q2089 1594 2135 1552 2181 1510 2207 1448 2233 1386 2233 1309L2233 1309Q2233 1229 2199 1152.5 2165 1076 2099 1028L2099 1028Q2112 1000 2115.5 976.5 2119 953 2119 926L2119 926Q2119 854 2084 794 2049 734 1989.5 698 1930 662 1858 662L1858 662Q1844 662 1818.5 665.5 1793 669 1761 679L1761 679Q1760 636 1738.5 603.5 1717 571 1684 552.5 1651 534 1614 534L1614 534Q1589 534 1558.5 544.5 1528 555 1500 572L1500 572Q1486 519 1445 486 1404 453 1357 453L1357 453Q1349 453 1328.5 455 1308 457 1285 465L1285 465Q1266 395 1223.5 344 1181 293 1123.5 265.5 1066 238 1000 238L1000 238Q946 238 894.5 260 843 282 802 321.5 761 361 738 414L738 414Q725 409 713 408 701 407 690 407L690 407Q619 407 563 438 507 469 475 522.5 443 576 443 644L443 644Q443 700 468 752.5 493 805 537 854L537 854Q461 886 414 951.5 367 1017 367 1094L367 1094Q367 1156 395.5 1209.5 424 1263 473 1289L473 1289Q456 1336 446 1373.5 436 1411 436 1454L436 1454Q436 1529 473.5 1591 511 1653 570 1690.5 629 1728 694 1728L694 1728Q709 1728 718.5 1727 728 1726 737 1725L737 1725Q765 1799 818 1854.5 871 1910 940 1940 1009 1970 1085 1970L1085 1970Q1135 1970 1179 1957.5 1223 1945 1263 1920L1263 1920Q1292 1951 1328 1967 1364 1983 1405 1983Z"/>
</svg>