<svg xmlns="http://www.w3.org/2000/svg"
    viewBox="0 0 2600 2400">
  <!--
Copyright 2013, 2022 Google Inc. All Rights Reserved.
Noto is a trademark of Google Inc.
This Font Software is licensed under the SIL Open Font License, Version 1.1. This Font Software is distributed on an "AS IS" BASIS, WITHOUT WARRANTIES OR CONDITIONS OF ANY KIND, either express or implied. See the SIL Open Font License for the specific language, permissions and limitations governing your use of this Font Software.
http://scripts.sil.org/OFL
  -->
<path d="M698 2204L658 2204Q591 2204 546 2185.5 501 2167 501 2118L501 2118Q501 2071 567 2026.5 633 1982 715 1955L715 1955Q689 1889 670 1808.5 651 1728 651 1676L651 1676Q651 1605 687.5 1560.5 724 1516 776 1504L776 1504 1223 1400Q1228 1336 1273 1293 1318 1250 1355 1250L1355 1250Q1432 1250 1494 1318 1556 1386 1596 1507.5 1636 1629 1647 1791L1647 1791Q1772 1778 1827 1698.5 1882 1619 1882 1457L1882 1457Q1882 1319 1848 1187 1814 1055 1769 933.5 1724 812 1690 704.5 1656 597 1656 509L1656 509Q1656 414 1701.5 334.5 1747 255 1823 207.5 1899 160 1988 160L1988 160Q2073 160 2149.5 202.5 2226 245 2275 313 2324 381 2324 460L2324 460Q2324 523 2284 561 2244 599 2185 599L2185 599Q2137 599 2108.5 575.5 2080 552 2062 520.5 2044 489 2027 465.5 2010 442 1984 442L1984 442Q1955 442 1955 530L1955 530Q1955 631 1989 726.5 2023 822 2068 927 2113 1032 2147 1159.5 2181 1287 2181 1454L2181 1454Q2181 1767 2038 1925.5 1895 2084 1613 2094L1613 2094Q1590 2142 1529.5 2173 1469 2204 1401 2204L1401 2204Q1343 2204 1295.5 2178.5 1248 2153 1201 2096L1201 2096Q1174 2145 1148 2168.5 1122 2192 1085 2192L1085 2192Q1047 2192 993.5 2165.5 940 2139 900 2100.5 860 2062 860 2027L860 2027 795 2035 698 2105 698 2204ZM870 2240L870 2240Q781 2240 723 2226 665 2212 665 2157L665 2157Q665 2105 729.5 2065 794 2025 897 1988L897 1988 883 2025Q848 2033 807.5 2050 767 2067 738 2086 709 2105 709 2119L709 2119Q709 2139 747.5 2150.5 786 2162 880 2162L880 2162Q949 2162 994.5 2153 1040 2144 1056 2127L1056 2127 1114 2184Q1082 2213 1022 2226.5 962 2240 870 2240ZM520 1174L520 1174Q479 1174 452 1148 425 1122 425 1085L425 1085Q425 1059 439.5 1046 454 1033 483 1028L483 1028Q490 1075 497.5 1106 505 1137 520 1174ZM790 1040L790 1040Q764 1040 743 1015 722 990 722 959L722 959Q722 931 738.5 912.5 755 894 779 894L779 894Q807 894 827 917.5 847 941 847 974L847 974Q847 1002 831 1021 815 1040 790 1040ZM925 1269L925 1269Q879 1269 835 1254 791 1239 791 1213L791 1213Q791 1189 831 1164.5 871 1140 930 1119.5 989 1099 1050 1086.5 1111 1074 1153 1074L1153 1074Q1186 1074 1207.5 1083 1229 1092 1229 1114L1229 1114Q1229 1148 1172 1190.5 1115 1233 1033 1256L1033 1256Q1005 1263 977.5 1266 950 1269 925 1269ZM917 1436L917 1436Q788 1436 710.5 1375 633 1314 633 1218L633 1218Q633 1195 636 1168.5 639 1142 639 1129L639 1129Q639 1097 619.5 1064 600 1031 580 992 560 953 560 905L560 905Q560 831 614 779.5 668 728 744 728L744 728Q787 728 834 740 881 752 905 752L905 752Q925 752 944.5 740 964 728 992 700L992 700 1010 682Q1040 652 1074.5 636.5 1109 621 1145 621L1145 621Q1198 621 1244.5 658 1291 695 1306 754L1306 754Q1316 793 1315.5 842.5 1315 892 1322 916L1322 916Q1325 927 1334 943 1343 959 1359 982L1359 982 1370 998Q1395 1035 1404 1061.5 1413 1088 1413 1125L1413 1125Q1413 1199 1367 1256.5 1321 1314 1246.5 1354 1172 1394 1085.5 1415 999 1436 917 1436ZM917 1376L917 1376Q986 1376 1061.5 1358 1137 1340 1203.5 1307 1270 1274 1311.5 1228 1353 1182 1353 1125L1353 1125Q1353 1105 1344 1081 1335 1057 1318 1035L1318 1035 1308 1021Q1293 1001 1282.5 979.5 1272 958 1265 936L1265 936Q1253 895 1254.5 851.5 1256 808 1248 771L1248 771Q1239 731 1210.5 706 1182 681 1145 681L1145 681Q1094 681 1043 732L1043 732 1027 748Q993 782 965 797 937 812 905 812L905 812Q868 812 822.5 800 777 788 744 788L744 788Q692 788 656 824.5 620 861 620 905L620 905Q620 940 640 969.5 660 999 679.5 1035.5 699 1072 699 1129L699 1129Q699 1152 696 1174 693 1196 693 1218L693 1218Q693 1298 751.5 1337 810 1376 917 1376ZM970 1058L970 1058Q951 1058 935 1047.5 919 1037 919 1024L919 1024Q919 1012 946.5 1000 974 988 999 988L999 988Q1022 988 1022 1009L1022 1009Q1022 1028 1006 1043 990 1058 970 1058ZM923 1500L923 1500Q790 1500 680.5 1463.5 571 1427 501 1321L501 1321Q403 1312 339.5 1246 276 1180 276 1086L276 1086Q276 1022 307.5 970.5 339 919 391 894L391 894Q398 727 472 603 546 479 673.5 410.5 801 342 970 342L970 342Q1116 342 1235.5 412.5 1355 483 1436 614L1436 614Q1440 614 1443.5 614 1447 614 1451 614L1451 614Q1512 614 1560 647.5 1608 681 1635.5 734 1663 787 1663 846L1663 846Q1663 966 1553 1040L1553 1040Q1548 1133 1510.5 1208 1473 1283 1411 1339L1411 1339 1339 1292Q1401 1242 1438 1174 1475 1106 1475 1021L1475 1021Q1475 1014 1475 1007.5 1475 1001 1474 994L1474 994Q1583 940 1583 846L1583 846Q1583 789 1545.5 741.5 1508 694 1451 694L1451 694Q1444 694 1428.5 697.5 1413 701 1390 707L1390 707Q1326 572 1220 497 1114 422 970 422L970 422Q821 422 708.5 482 596 542 533 651.5 470 761 470 911L470 911Q470 921 470 932 470 943 471 954L471 954Q419 958 387.5 995.5 356 1033 356 1086L356 1086Q356 1150 400.5 1196.5 445 1243 513 1243L513 1243Q520 1243 526.5 1242.5 533 1242 542 1241L542 1241Q574 1304 623.5 1343.5 673 1383 746.5 1401.5 820 1420 923 1420L923 1420Q1018 1420 1105 1400 1192 1380 1264 1341L1264 1341 1243 1439Q1171 1470 1088.5 1485 1006 1500 923 1500ZM1111 953L1111 953Q1085 953 1064 928 1043 903 1043 872L1043 872Q1043 844 1059.5 825.5 1076 807 1100 807L1100 807Q1128 807 1148 830.5 1168 854 1168 887L1168 887Q1168 915 1152 934 1136 953 1111 953ZM1401 2126L1401 2126Q1451 2126 1499.5 2096 1548 2066 1573 2017L1573 2017Q1840 2017 1970.5 1882 2101 1747 2101 1454L2101 1454Q2101 1300 2067 1174.5 2033 1049 1988 941 1943 833 1909 733 1875 633 1875 530L1875 530Q1875 451 1903.5 407.5 1932 364 1987 364L1987 364Q2032 364 2058 387.5 2084 411 2101.5 442.5 2119 474 2137 497.5 2155 521 2185 521L2185 521Q2244 521 2244 459L2244 459Q2244 404 2206 353.5 2168 303 2108.5 270.5 2049 238 1984 238L1984 238Q1917 238 1860.5 275.5 1804 313 1770 374.5 1736 436 1736 509L1736 509Q1736 596 1770 699.5 1804 803 1849 921.5 1894 1040 1928 1174 1962 1308 1962 1457L1962 1457Q1962 1664 1872.5 1767 1783 1870 1610 1870L1610 1870Q1600 1870 1590.5 1869.5 1581 1869 1571 1868L1571 1868Q1571 1778 1556.5 1685 1542 1592 1514.5 1513 1487 1434 1446.5 1386 1406 1338 1354 1338L1354 1338Q1317 1338 1298 1360.5 1279 1383 1279 1425L1279 1425Q1279 1440 1282 1455 1285 1470 1293 1493L1293 1493 1127 1493Q1094 1493 1080.5 1508 1067 1523 1067 1541L1067 1541Q1067 1559 1073 1572.5 1079 1586 1089 1597L1089 1597 1038 1644Q1023 1632 1013 1607.5 1003 1583 1003 1560L1003 1560Q1003 1543 1006 1527 1009 1511 1018 1498L1018 1498Q970 1498 926 1538 882 1578 854.5 1639 827 1700 827 1764L827 1764Q827 1795 839 1816 851 1837 878 1837L878 1837Q901 1837 921 1814 941 1791 972 1730L972 1730 990 1695Q1015 1646 1057 1608.5 1099 1571 1166 1571L1166 1571Q1255 1571 1336 1629 1417 1687 1487 1807L1487 1807 1420 1848Q1299 1649 1176 1649L1176 1649Q1135 1649 1103 1676 1071 1703 1031.5 1779.5 992 1856 928 2007L928 2007Q965 2058 1006.5 2086 1048 2114 1075 2114L1075 2114Q1104 2114 1131.5 2087 1159 2060 1201 2000L1201 2000Q1272 2072 1312 2099 1352 2126 1401 2126ZM1466 917L1466 917Q1461 876 1451 845 1441 814 1424 771L1424 771Q1447 764 1454 764L1454 764Q1483 764 1499 789.5 1515 815 1515 839L1515 839Q1515 865 1499 886 1483 907 1466 917Z"/>
</svg>