<svg xmlns="http://www.w3.org/2000/svg"
    viewBox="0 0 2600 2400">
  <!--
Copyright 2013, 2022 Google Inc. All Rights Reserved.
Noto is a trademark of Google Inc.
This Font Software is licensed under the SIL Open Font License, Version 1.1. This Font Software is distributed on an "AS IS" BASIS, WITHOUT WARRANTIES OR CONDITIONS OF ANY KIND, either express or implied. See the SIL Open Font License for the specific language, permissions and limitations governing your use of this Font Software.
http://scripts.sil.org/OFL
  -->
<path d="M1300 2240L1300 2240Q1068 2240 896.5 2187.5 725 2135 612.5 2028 500 1921 445 1757 390 1593 390 1370L390 1370Q390 1121 441 953 492 785 583 689L583 689Q519 647 450.5 582 382 517 323.5 445 265 373 228.5 308 192 243 192 200L192 200Q192 160 230 160L230 160Q270 160 345 188.5 420 217 544.5 255 669 293 854.5 321.5 1040 350 1300 350L1300 350Q1560 350 1745.5 321.5 1931 293 2055.5 255 2180 217 2255 188.5 2330 160 2370 160L2370 160Q2408 160 2408 200L2408 200Q2408 244 2371.5 309 2335 374 2276.5 446 2218 518 2149.5 582.5 2081 647 2017 689L2017 689Q2109 785 2159.5 953 2210 1121 2210 1370L2210 1370Q2210 1593 2155 1757 2100 1921 1987.5 2028 1875 2135 1704 2187.5 1533 2240 1300 2240ZM1300 2160L1300 2160Q1589 2160 1772 2077 1955 1994 2042.5 1819 2130 1644 2130 1370L2130 1370Q2130 1134 2082.5 974 2035 814 1945.5 732 1856 650 1730 650L1730 650Q1535 650 1437.5 839 1340 1028 1340 1376L1340 1376Q1340 1456 1331.5 1487.5 1323 1519 1300 1519L1300 1519Q1278 1519 1269 1488.5 1260 1458 1260 1376L1260 1376Q1260 1027 1162.5 838.5 1065 650 870 650L870 650Q744 650 654.5 732 565 814 517.5 974 470 1134 470 1370L470 1370Q470 1644 557.5 1819 645 1994 828.5 2077 1012 2160 1300 2160Z"/>
</svg>