<svg xmlns="http://www.w3.org/2000/svg"
    viewBox="0 0 2600 2400">
  <!--
Copyright 2013 Google LLC
Noto is a trademark of Google Inc.
This Font Software is licensed under the SIL Open Font License, Version 1.1. This Font Software is distributed on an "AS IS" BASIS, WITHOUT WARRANTIES OR CONDITIONS OF ANY KIND, either express or implied. See the SIL Open Font License for the specific language, permissions and limitations governing your use of this Font Software.
http://scripts.sil.org/OFL
  -->
<path d="M1669 1840L1669 1840Q1527 1840 1391.5 1812.5 1256 1785 1123 1734L1123 1734Q1012 1691 932 1664.5 852 1638 784 1622.5 716 1607 642 1597 568 1587 469 1578L469 1578Q374 1569 330 1532.5 286 1496 286 1431L286 1431Q286 1376 300.5 1340 315 1304 345 1271L345 1271Q359 1303 388 1326 417 1349 473 1363.5 529 1378 625 1385L625 1385Q697 1390 768.5 1411 840 1432 925.5 1474 1011 1516 1125 1585L1125 1585Q1271 1673 1410 1716.5 1549 1760 1673 1760L1673 1760Q1833 1760 1966.5 1715.5 2100 1671 2180 1597.5 2260 1524 2260 1437L2260 1437Q2260 1416 2246.5 1396 2233 1376 2195 1347.5 2157 1319 2083 1273L2083 1273 1219 732Q1183 631 1133 585.5 1083 540 1028 540L1028 540Q952 540 897.5 604 843 668 828 789L828 789Q768 826 726.5 842.5 685 859 640 859L640 859Q573 859 511.5 830 450 801 407 752 364 703 352 643L352 643 402 643Q369 701 354.5 787 340 873 340 1006L340 1006Q340 1078 354.5 1162 369 1246 415 1384L415 1384 329 1384Q292 1256 276 1168 260 1080 260 1007L260 1007Q260 926 269 841.5 278 757 300 685 322 613 361 568.5 400 524 461 524L461 524Q502 524 537.5 544 573 564 606 591L606 591Q647 625 680 640 713 655 747 655L747 655Q768 655 789.5 650 811 645 854 632L854 632 756 727Q791 596 864.5 528 938 460 1029 460L1029 460Q1104 460 1171 514.5 1238 569 1281 687L1281 687 2116 1210Q2221 1275 2280.5 1324.5 2340 1374 2340 1439L2340 1439Q2340 1520 2287 1592.5 2234 1665 2141 1721 2048 1777 1927 1808.5 1806 1840 1669 1840ZM1476 1390L1476 1390Q1437 1390 1395 1374 1353 1358 1308 1326L1308 1326 1116 1190Q1025 1125 971.5 1095.5 918 1066 864 1066L864 1066Q818 1066 779 1082 740 1098 702 1119L702 1119Q659 1142 611 1160.5 563 1179 500 1181L500 1181 500 1100Q548 1100 587 1084 626 1068 664 1047L664 1047Q706 1024 753 1005 800 986 864 986L864 986Q941 986 1008 1024 1075 1062 1164 1126L1164 1126 1356 1262Q1390 1286 1419.5 1297 1449 1308 1476 1308L1476 1308Q1516 1308 1557 1281.5 1598 1255 1648 1197L1648 1197Q1686 1153 1734 1116 1782 1079 1838 1079L1838 1079Q1873 1079 1895 1088L1895 1088 1920 1158Q1909 1148 1899.5 1146.5 1890 1145 1878 1145L1878 1145Q1836 1145 1792 1176 1748 1207 1707 1251L1707 1251Q1664 1297 1607 1343.5 1550 1390 1476 1390ZM1714 1614L1714 1614Q1497 1614 1395 1558.5 1293 1503 1293 1385L1293 1385Q1293 1344 1307 1288L1307 1288 1383 1321Q1375 1359 1375 1384L1375 1384Q1375 1463 1454 1498.5 1533 1534 1714 1534L1714 1534Q1787 1534 1861 1516 1935 1498 1997.5 1468.5 2060 1439 2098 1404.5 2136 1370 2136 1337L2136 1337Q2136 1317 2128 1303.5 2120 1290 2098 1277L2098 1277 2151 1248Q2213 1290 2213 1349L2213 1349Q2213 1399 2171.5 1446.5 2130 1494 2059 1532 1988 1570 1898.5 1592 1809 1614 1714 1614ZM1531 1199L1531 1199 1468 1168Q1500 1108 1534.5 1049 1569 990 1616 932L1616 932 1652 964Q1570 1002 1494 1044 1418 1086 1355 1127L1355 1127 1300 1090Q1323 1024 1363.5 944.5 1404 865 1445 804L1445 804 1486 834Q1398 875 1311.5 920.5 1225 966 1165 1007L1165 1007 1115 972Q1142 901 1181.5 822.5 1221 744 1262 683L1262 683 1295 713Q1233 748 1152.5 798 1072 848 1019 884L1019 884 968 835Q997 814 1057.5 775.5 1118 737 1185.5 697 1253 657 1302 631L1302 631 1353 666Q1314 722 1268.5 807.5 1223 893 1195 964L1195 964 1161 930Q1203 903 1257.5 873 1312 843 1371.5 813 1431 783 1486 757L1486 757 1535 791Q1509 829 1478.5 881.5 1448 934 1420.5 988.5 1393 1043 1375 1088L1375 1088 1338 1058Q1412 1008 1496 962.5 1580 917 1663 881L1663 881 1714 916Q1656 986 1612 1058 1568 1130 1531 1199Z"/>
</svg>