<svg xmlns="http://www.w3.org/2000/svg"
    viewBox="0 0 2600 2400">
  <!--
Copyright 2013, 2022 Google Inc. All Rights Reserved.
Noto is a trademark of Google Inc.
This Font Software is licensed under the SIL Open Font License, Version 1.1. This Font Software is distributed on an "AS IS" BASIS, WITHOUT WARRANTIES OR CONDITIONS OF ANY KIND, either express or implied. See the SIL Open Font License for the specific language, permissions and limitations governing your use of this Font Software.
http://scripts.sil.org/OFL
  -->
<path d="M1308 2030L1308 2030Q1240 2030 1181.5 1991 1123 1952 1073.5 1877 1024 1802 983 1696L983 1696 1020 1713Q942 1736 855.5 1746.5 769 1757 671 1757L671 1757Q382 1757 231 1675.5 80 1594 80 1437L80 1437Q80 1212 156 1036.5 232 861 365.5 760.5 499 660 671 660L671 660Q845 660 977 760.5 1109 861 1183.5 1036 1258 1211 1258 1437L1258 1437Q1258 1506 1275 1551.5 1292 1597 1323 1639L1323 1639 1281 1684Q1229 1634 1206 1580 1183 1526 1183 1437L1183 1437Q1183 1232 1117.5 1072.5 1052 913 937 821.5 822 730 671 730L671 730Q522 730 406.5 822 291 914 225.5 1073.5 160 1233 160 1437L160 1437Q160 1687 671 1687L671 1687Q777 1687 865.5 1674 954 1661 1033 1637L1033 1637Q1057 1710 1095 1784.5 1133 1859 1175 1909L1175 1909 1140 1932Q1133 1915 1133 1894L1133 1894Q1133 1849 1156 1808 1179 1767 1221 1715L1221 1715Q1265 1659 1303.5 1594 1342 1529 1342 1437L1342 1437Q1342 1211 1416.5 1036 1491 861 1623.5 760.5 1756 660 1929 660L1929 660Q2102 660 2235 760.5 2368 861 2444 1036.5 2520 1212 2520 1437L2520 1437Q2520 1594 2369.5 1675.5 2219 1757 1929 1757L1929 1757Q1832 1757 1745.5 1747 1659 1737 1582 1713L1582 1713 1620 1688Q1610 1721 1597 1752 1584 1783 1567 1812L1567 1812 1511 1774Q1531 1741 1544.5 1706 1558 1671 1568 1635L1568 1635Q1711 1687 1929 1687L1929 1687Q2440 1687 2440 1437L2440 1437Q2440 1233 2374.5 1073.5 2309 914 2194 822 2079 730 1929 730L1929 730Q1779 730 1663.5 821.5 1548 913 1482.5 1072.5 1417 1232 1417 1437L1417 1437Q1417 1544 1370.5 1620.5 1324 1697 1277 1754L1277 1754Q1237 1803 1220 1833 1203 1863 1203 1892L1203 1892Q1203 1931 1234.5 1948 1266 1965 1316 1965L1316 1965Q1328 1965 1340 1962L1340 1962 1359 2024Q1350 2026 1337.5 2028 1325 2030 1308 2030ZM695 1479L695 1479Q604 1479 531 1438 458 1397 428 1328L428 1328 487 1302Q510 1353 566 1383.5 622 1414 695 1414L695 1414Q820 1414 876 1333L876 1333 930 1369Q895 1421 832.5 1450 770 1479 695 1479ZM494 1220L494 1220Q463 1220 444.5 1193.5 426 1167 426 1134L426 1134Q426 1096 446.5 1068.5 467 1041 498 1041L498 1041Q529 1041 547.5 1067.5 566 1094 566 1127L566 1127Q566 1164 545.5 1192 525 1220 494 1220ZM1381 2040L1381 2040Q1347 2040 1323.5 2017.5 1300 1995 1300 1961L1300 1961Q1300 1911 1331.5 1858.5 1363 1806 1410.5 1770 1458 1734 1506 1734L1506 1734Q1540 1734 1561 1759.5 1582 1785 1582 1819L1582 1819Q1582 1849 1566 1885 1550 1921 1522 1956L1522 1956Q1491 1994 1453 2017 1415 2040 1381 2040ZM1383 1978L1383 1978Q1403 1978 1429 1961.5 1455 1945 1477 1917L1477 1917Q1498 1891 1511 1864.5 1524 1838 1524 1817L1524 1817Q1524 1806 1518 1799 1512 1792 1502 1792L1502 1792Q1475 1792 1442 1819.5 1409 1847 1385 1885 1361 1923 1361 1956L1361 1956Q1361 1978 1383 1978ZM904 1250L904 1250Q873 1250 854.5 1223.5 836 1197 836 1164L836 1164Q836 1126 856.5 1098.5 877 1071 908 1071L908 1071Q939 1071 957.5 1097.5 976 1124 976 1157L976 1157Q976 1194 955.5 1222 935 1250 904 1250ZM1907 1479L1907 1479Q1832 1479 1769.5 1450 1707 1421 1672 1369L1672 1369 1726 1333Q1782 1414 1907 1414L1907 1414Q1980 1414 2037 1383.5 2094 1353 2116 1302L2116 1302 2175 1328Q2145 1397 2072 1438 1999 1479 1907 1479ZM1701 1250L1701 1250Q1670 1250 1649.5 1222 1629 1194 1629 1157L1629 1157Q1629 1124 1647.5 1097.5 1666 1071 1697 1071L1697 1071Q1728 1071 1748.5 1098.5 1769 1126 1769 1164L1769 1164Q1769 1197 1750.5 1223.5 1732 1250 1701 1250ZM2111 1220L2111 1220Q2080 1220 2059.5 1192 2039 1164 2039 1127L2039 1127Q2039 1094 2057.5 1067.5 2076 1041 2107 1041L2107 1041Q2138 1041 2158.5 1068.5 2179 1096 2179 1134L2179 1134Q2179 1167 2160.5 1193.5 2142 1220 2111 1220Z"/>
</svg>