<svg xmlns="http://www.w3.org/2000/svg"
    viewBox="0 0 2600 2400">
  <!--
Copyright 2013, 2022 Google Inc. All Rights Reserved.
Noto is a trademark of Google Inc.
This Font Software is licensed under the SIL Open Font License, Version 1.1. This Font Software is distributed on an "AS IS" BASIS, WITHOUT WARRANTIES OR CONDITIONS OF ANY KIND, either express or implied. See the SIL Open Font License for the specific language, permissions and limitations governing your use of this Font Software.
http://scripts.sil.org/OFL
  -->
<path d="M1801 1710L1801 1710Q1667 1710 1570 1688.5 1473 1667 1399 1627 1325 1587 1259 1531.5 1193 1476 1121 1408L1121 1408Q1052 1343 996 1297.5 940 1252 885 1219 830 1186 765 1161 700 1136 613 1114L613 1114Q559 1100 501 1081.5 443 1063 393 1035 343 1007 311.5 966.5 280 926 280 870L280 870Q280 812 324.5 777 369 742 440 726 511 710 591 710L591 710Q715 710 850 745.5 985 781 1118.5 843.5 1252 906 1371 988L1371 988Q1409 1013 1447.5 1037.5 1486 1062 1527 1083L1527 1083Q1635 1138 1750 1164 1865 1190 1979 1208L1979 1208Q2080 1224 2156.5 1251.5 2233 1279 2276.5 1328.5 2320 1378 2320 1462L2320 1462Q2320 1526 2278 1568 2236 1610 2168 1640L2168 1640Q2086 1676 1985 1693 1884 1710 1801 1710ZM888 1197L773 1402Q660 1401 569.5 1383.5 479 1366 408 1334 337 1302 280 1256L280 1256 280 870 360 891 360 1213Q421 1261 520 1290.5 619 1320 733 1322L733 1322 711 1356 711 1117 888 1197ZM1801 1630L1801 1630Q1885 1630 1975 1616 2065 1602 2135 1571L2135 1571Q2186 1548 2213 1521.5 2240 1495 2240 1455L2240 1455Q2240 1399 2202 1367 2164 1335 2098.5 1316.5 2033 1298 1950 1283L1950 1283Q1826 1260 1703.5 1230 1581 1200 1479 1147L1479 1147Q1443 1128 1403 1103 1363 1078 1328 1054L1328 1054Q1212 975 1085.5 915.5 959 856 833 823 707 790 591 790L591 790Q482 790 423.5 813.5 365 837 365 881L365 881Q365 920 399 947.5 433 975 491.5 995 550 1015 621 1034L621 1034Q716 1058 786 1085 856 1112 915.5 1147 975 1182 1036.5 1231 1098 1280 1174 1350L1174 1350Q1242 1412 1306 1463.5 1370 1515 1440.5 1552 1511 1589 1598.5 1609.5 1686 1630 1801 1630ZM1707 1651L1707 1651Q1649 1648 1584 1633 1519 1618 1458.5 1593.5 1398 1569 1352 1539L1352 1539Q1335 1457 1335 1396L1335 1396Q1335 1273 1387.5 1180 1440 1087 1533.5 1035 1627 983 1751 983L1751 983Q1781 983 1817 990.5 1853 998 1887 1014L1887 1014 2105 1114Q2140 1130 2154 1151 2168 1172 2168 1207L2168 1207Q2168 1220 2166 1236.5 2164 1253 2160 1273L2160 1273 1870 1222Q1790 1277 1746.5 1364.5 1703 1452 1703 1566L1703 1566Q1703 1578 1704 1595.5 1705 1613 1707 1651Z"/>
</svg>