<svg xmlns="http://www.w3.org/2000/svg"
    viewBox="0 0 2600 2400">
  <!--
Copyright 2013, 2022 Google Inc. All Rights Reserved.
Noto is a trademark of Google Inc.
This Font Software is licensed under the SIL Open Font License, Version 1.1. This Font Software is distributed on an "AS IS" BASIS, WITHOUT WARRANTIES OR CONDITIONS OF ANY KIND, either express or implied. See the SIL Open Font License for the specific language, permissions and limitations governing your use of this Font Software.
http://scripts.sil.org/OFL
  -->
<path d="M1300 1287L1300 1287Q987 1040 836.5 848 686 656 686 489L686 489Q686 396 728.5 321.5 771 247 843.5 203.5 916 160 1007 160L1007 160Q1098 160 1174 204 1250 248 1300 331L1300 331Q1350 248 1426 204 1502 160 1593 160L1593 160Q1684 160 1756.5 203.5 1829 247 1871.5 321.5 1914 396 1914 489L1914 489Q1914 656 1763.5 848 1613 1040 1300 1287ZM671 2240L671 2240Q367 2240 221 2170 75 2100 75 1954L75 1954Q75 1703 149 1526 223 1349 356.5 1255.5 490 1162 671 1162L671 1162Q852 1162 985.5 1255.5 1119 1349 1193 1526 1267 1703 1267 1954L1267 1954Q1267 2100 1121 2170 975 2240 671 2240ZM671 2160L671 2160Q937 2160 1062 2111 1187 2062 1187 1954L1187 1954Q1187 1724 1123.5 1565 1060 1406 944.5 1324 829 1242 671 1242L671 1242Q514 1242 398 1324 282 1406 218.5 1565 155 1724 155 1954L155 1954Q155 2062 280.5 2111 406 2160 671 2160ZM565 1566L565 1566Q474 1566 428 1495L428 1495 478 1462Q506 1506 565 1506L565 1506Q640 1506 661 1433L661 1433 719 1449Q704 1502 662 1534 620 1566 565 1566ZM998 1968L998 1968 969 1914Q1033 1880 1033 1830L1033 1830Q1033 1810 1017.5 1797.5 1002 1785 970 1785L970 1785 953 1735Q984 1717 992.5 1703.5 1001 1690 1001 1677L1001 1677Q1001 1662 981.5 1651.5 962 1641 934 1641L934 1641 934 1581Q987 1581 1024 1607.5 1061 1634 1061 1675L1061 1675Q1061 1692 1055 1707 1049 1722 1035 1740L1035 1740Q1093 1771 1093 1829L1093 1829Q1093 1916 998 1968ZM948 1504L948 1504Q871 1504 819 1439L819 1439 865 1401Q900 1444 948 1444L948 1444Q1001 1444 1019 1392L1019 1392 1076 1411Q1062 1454 1027 1479 992 1504 948 1504ZM1631 1914L1602 1968Q1507 1916 1507 1829L1507 1829Q1507 1771 1565 1740L1565 1740Q1551 1722 1545 1707 1539 1692 1539 1675L1539 1675Q1539 1634 1576 1607.5 1613 1581 1666 1581L1666 1581 1666 1641Q1638 1641 1618.5 1651.5 1599 1662 1599 1677L1599 1677Q1599 1690 1607.5 1703.5 1616 1717 1647 1735L1647 1735 1630 1785Q1598 1785 1582.5 1797.5 1567 1810 1567 1830L1567 1830Q1567 1880 1631 1914L1631 1914ZM1652 1504L1652 1504Q1608 1504 1573 1479 1538 1454 1524 1411L1524 1411 1581 1392Q1599 1444 1652 1444L1652 1444Q1700 1444 1735 1401L1735 1401 1781 1439Q1729 1504 1652 1504ZM1929 2240L1929 2240Q1625 2240 1479 2170 1333 2100 1333 1954L1333 1954Q1333 1703 1407 1526 1481 1349 1615 1255.5 1749 1162 1929 1162L1929 1162Q2110 1162 2243.5 1255.5 2377 1349 2451 1526 2525 1703 2525 1954L2525 1954Q2525 2100 2379.5 2170 2234 2240 1929 2240ZM1929 2160L1929 2160Q2195 2160 2320 2111 2445 2062 2445 1954L2445 1954Q2445 1724 2381.5 1565 2318 1406 2202.5 1324 2087 1242 1929 1242L1929 1242Q1772 1242 1656 1324 1540 1406 1476.5 1565 1413 1724 1413 1954L1413 1954Q1413 2062 1538.5 2111 1664 2160 1929 2160ZM2035 1566L2035 1566Q1980 1566 1938 1534 1896 1502 1881 1449L1881 1449 1939 1433Q1960 1506 2035 1506L2035 1506Q2094 1506 2122 1462L2122 1462 2172 1495Q2126 1566 2035 1566ZM1300 1198L1300 1198Q1578 974 1711 802.5 1844 631 1844 489L1844 489Q1844 377 1772.5 303.5 1701 230 1593 230L1593 230Q1503 230 1423.5 291.5 1344 353 1300 454L1300 454Q1255 353 1176 291.5 1097 230 1007 230L1007 230Q899 230 827.5 303.5 756 377 756 489L756 489Q756 631 888.5 802.5 1021 974 1300 1198Z"/>
</svg>