<svg xmlns="http://www.w3.org/2000/svg"
    viewBox="0 0 2600 2400">
  <!--
Copyright 2013, 2022 Google Inc. All Rights Reserved.
Noto is a trademark of Google Inc.
This Font Software is licensed under the SIL Open Font License, Version 1.1. This Font Software is distributed on an "AS IS" BASIS, WITHOUT WARRANTIES OR CONDITIONS OF ANY KIND, either express or implied. See the SIL Open Font License for the specific language, permissions and limitations governing your use of this Font Software.
http://scripts.sil.org/OFL
  -->
<path d="M1300 2240L1300 2240Q1119 2240 1000 2177 881 2114 858 2006L858 2006Q790 1944 790 1852L790 1852Q790 1801 817.5 1756 845 1711 905 1662L905 1662 1695 1662Q1755 1711 1782.5 1756 1810 1801 1810 1852L1810 1852Q1810 1944 1742 2006L1742 2006Q1720 2114 1601 2177 1482 2240 1300 2240ZM1300 2160L1300 2160Q1466 2160 1565 2106 1664 2052 1669 1959L1669 1959Q1701 1941 1715.5 1912 1730 1883 1730 1852L1730 1852Q1730 1826 1714 1796.5 1698 1767 1669 1742L1669 1742 931 1742Q903 1767 886.5 1796.5 870 1826 870 1852L870 1852Q870 1883 884.5 1912 899 1941 931 1959L931 1959Q936 2052 1035 2106 1134 2160 1300 2160ZM1725 2002L875 2002 875 1922 1725 1922 1725 2002ZM984 1726L904 1726 904 674 984 674 984 1726ZM1418 1737L1102 1737 1653 1350 1653 1578 1418 1737ZM1653 1087L947 1576 947 1305 1653 824 1653 1087ZM1446 706L947 1043 947 808 1126 706 1446 706ZM1696 1726L1616 1726 1616 674 1696 674 1696 1726ZM1695 738L910 738Q846 688 818 643.5 790 599 790 548L790 548Q790 456 858 394L858 394Q881 286 1000 223 1119 160 1300 160L1300 160Q1482 160 1601 223 1720 286 1742 394L1742 394Q1810 456 1810 548L1810 548Q1810 599 1782.5 643.5 1755 688 1695 738L1695 738ZM936 658L936 658 1669 658Q1698 632 1714 603 1730 574 1730 548L1730 548Q1730 517 1715.5 488 1701 459 1669 441L1669 441Q1664 348 1565 294 1466 240 1300 240L1300 240Q1134 240 1035 294 936 348 931 441L931 441Q899 459 884.5 488 870 517 870 548L870 548Q870 574 887 603 904 632 936 658ZM866 510L866 510 856 430Q966 415 1077 407 1188 399 1300 399L1300 399Q1412 399 1523 407 1634 415 1744 430L1744 430 1734 510Q1626 495 1517.5 487 1409 479 1300 479L1300 479Q1191 479 1082.5 487 974 495 866 510Z"/>
</svg>