<svg xmlns="http://www.w3.org/2000/svg"
    viewBox="0 0 2600 2400">
  <!--
Copyright 2013, 2022 Google Inc. All Rights Reserved.
Noto is a trademark of Google Inc.
This Font Software is licensed under the SIL Open Font License, Version 1.1. This Font Software is distributed on an "AS IS" BASIS, WITHOUT WARRANTIES OR CONDITIONS OF ANY KIND, either express or implied. See the SIL Open Font License for the specific language, permissions and limitations governing your use of this Font Software.
http://scripts.sil.org/OFL
  -->
<path d="M675 2040L675 2040Q722 1918 745.5 1837 769 1756 769 1720L769 1720Q769 1686 747.5 1657 726 1628 659 1578L659 1578Q605 1537 546 1478 487 1419 446 1323.5 405 1228 405 1076L405 1076Q405 853 513 692.5 621 532 822 446 1023 360 1301 360L1301 360Q1729 360 1962 553 2195 746 2195 1102L2195 1102Q2195 1249 2130 1371 2065 1493 1946 1582 1827 1671 1663.5 1719 1500 1767 1303 1767L1303 1767Q1287 1767 1245 1766 1203 1765 1169 1761L1169 1761Q1096 1887 985 1952 874 2017 675 2040ZM852 1170L852 1170Q809 1170 778.5 1140 748 1110 748 1067L748 1067Q748 1024 778.5 994.5 809 965 852 965L852 965Q895 965 924.5 994.5 954 1024 954 1067L954 1067Q954 1110 924.5 1140 895 1170 852 1170ZM796 1938L796 1938Q913 1918 986 1858 1059 1798 1126 1674L1126 1674Q1151 1678 1181 1681 1211 1684 1243 1685.5 1275 1687 1303 1687L1303 1687Q1544 1687 1726.5 1612.5 1909 1538 2012 1406 2115 1274 2115 1102L2115 1102Q2115 781 1905.5 610.5 1696 440 1301 440L1301 440Q1045 440 862 516 679 592 582 734 485 876 485 1076L485 1076Q485 1208 518.5 1289 552 1370 603.5 1421 655 1472 709 1514L709 1514Q788 1575 818.5 1619.5 849 1664 849 1720L849 1720Q849 1760 835.5 1816.5 822 1873 796 1938ZM1306 1170L1306 1170Q1263 1170 1233.5 1140 1204 1110 1204 1067L1204 1067Q1204 1024 1233.5 994.5 1263 965 1306 965L1306 965Q1350 965 1379.5 994.5 1409 1024 1409 1067L1409 1067Q1409 1110 1379.5 1140 1350 1170 1306 1170ZM1761 1170L1761 1170Q1719 1170 1689 1140 1659 1110 1659 1067L1659 1067Q1659 1024 1689 994.5 1719 965 1761 965L1761 965Q1805 965 1835 994.5 1865 1024 1865 1067L1865 1067Q1865 1110 1835 1140 1805 1170 1761 1170Z"/>
</svg>