<svg xmlns="http://www.w3.org/2000/svg"
    viewBox="0 0 2600 2400">
  <!--
Copyright 2013 Google LLC
Noto is a trademark of Google Inc.
This Font Software is licensed under the SIL Open Font License, Version 1.1. This Font Software is distributed on an "AS IS" BASIS, WITHOUT WARRANTIES OR CONDITIONS OF ANY KIND, either express or implied. See the SIL Open Font License for the specific language, permissions and limitations governing your use of this Font Software.
http://scripts.sil.org/OFL
  -->
<path d="M1296 2240L1296 2240Q852 2240 616 2088 380 1936 380 1632L380 1632Q380 1468 442 1320.5 504 1173 619 1052.5 734 932 896 849.5 1058 767 1257 735L1257 735Q1257 682 1303.5 654 1350 626 1441 626L1441 626Q1512 626 1576 642 1640 658 1689.5 686.5 1739 715 1767.5 752.5 1796 790 1796 833L1796 833Q1796 855 1785 873L1785 873Q1874 956 1921 1067.5 1968 1179 1978 1327L1978 1327Q2081 1403 2150.5 1516 2220 1629 2220 1760L2220 1760Q2220 1904 2109 2012 1998 2120 1791 2180 1584 2240 1296 2240ZM1124 1979L1124 1979 1016 1947Q1029 1906 1042.5 1863.5 1056 1821 1072 1774L1072 1774 1180 1807Q1167 1842 1154 1882 1141 1922 1124 1979ZM1234 1866L1234 1866Q1142 1866 1067 1830 992 1794 948 1732.5 904 1671 904 1596L904 1596 1024 1596Q1024 1664 1086 1715 1148 1766 1231 1766L1231 1766Q1294 1766 1331 1735.5 1368 1705 1368 1653L1368 1653Q1368 1608 1335 1570 1302 1532 1222 1483L1222 1483 1199 1469Q1103 1410 1065.5 1363 1028 1316 1028 1254L1028 1254Q1028 1160 1094 1105.5 1160 1051 1275 1051L1275 1051Q1359 1051 1428 1079.5 1497 1108 1541.5 1158.5 1586 1209 1595 1275L1595 1275 1478 1295 1473 1273Q1460 1217 1407.5 1184 1355 1151 1281 1151L1281 1151Q1217 1151 1180 1176.5 1143 1202 1143 1247L1143 1247Q1143 1281 1173.5 1314.5 1204 1348 1278 1395L1278 1395 1340 1434Q1416 1482 1449.5 1533.5 1483 1585 1483 1653L1483 1653Q1483 1751 1416.5 1808.5 1350 1866 1234 1866ZM1296 2163L1296 2163Q1556 2163 1745 2112.5 1934 2062 2037 1971.5 2140 1881 2140 1760L2140 1760Q2140 1652 2086 1555.5 2032 1459 1935 1385.5 1838 1312 1708 1274L1708 1274 1727 1207Q1775 1221 1816 1238.5 1857 1256 1894 1277L1894 1277Q1858 1036 1725 921.5 1592 807 1350 807L1350 807Q1236 807 1118.5 840 1001 873 890 936L890 936Q754 1013 657.5 1123 561 1233 510.5 1363 460 1493 460 1632L460 1632Q460 1897 675 2030 890 2163 1296 2163ZM1431 1117L1431 1117 1324 1085Q1336 1048 1348.5 1015.5 1361 983 1375 950L1375 950 1479 987Q1469 1012 1457 1043 1445 1074 1431 1117ZM1369 646L1301 676Q1277 621 1262 564 1247 507 1247 447L1247 447Q1247 358 1291.5 290 1336 222 1434 222L1434 222Q1484 222 1528.5 248.5 1573 275 1607 310L1607 310 1553 356Q1531 332 1499.5 312 1468 292 1433 292L1433 292Q1369 292 1345.5 342 1322 392 1322 447L1322 447Q1322 499 1335.5 549 1349 599 1369 646L1369 646ZM1754 821L1754 821 1739 747Q1880 721 1950 679.5 2020 638 2020 576L2020 576Q2020 542 1998.5 509 1977 476 1940 466L1940 466Q1948 442 1953.5 418.5 1959 395 1959 374L1959 374Q1959 309 1920.5 271 1882 233 1809 233L1809 233Q1734 233 1684.5 271.5 1635 310 1603 374.5 1571 439 1550 518L1550 518 1478 498Q1499 407 1540 330 1581 253 1647.5 206.5 1714 160 1809 160L1809 160Q1907 160 1973 210 2039 260 2039 342L2039 342Q2039 363 2034.5 389 2030 415 2022 431L2022 431Q2063 459 2081.5 497.5 2100 536 2100 580L2100 580Q2100 667 2022 725.5 1944 784 1754 821Z"/>
</svg>