<svg xmlns="http://www.w3.org/2000/svg"
    viewBox="0 0 2600 2400">
  <!--
Copyright 2013 Google LLC
Noto is a trademark of Google Inc.
This Font Software is licensed under the SIL Open Font License, Version 1.1. This Font Software is distributed on an "AS IS" BASIS, WITHOUT WARRANTIES OR CONDITIONS OF ANY KIND, either express or implied. See the SIL Open Font License for the specific language, permissions and limitations governing your use of this Font Software.
http://scripts.sil.org/OFL
  -->
<path d="M1300 2240L1300 2240Q1085 2240 896.5 2159.5 708 2079 565 1936 422 1793 341 1604.5 260 1416 260 1200L260 1200Q260 985 340.5 796.5 421 608 564 465 707 322 895.5 241 1084 160 1300 160L1300 160Q1515 160 1703.5 240.5 1892 321 2035 464 2178 607 2259 795.5 2340 984 2340 1200L2340 1200Q2340 1415 2259.5 1603.5 2179 1792 2036 1935 1893 2078 1704.5 2159 1516 2240 1300 2240ZM1690 1984L1690 1984 1514 1607Q1606 1554 1673 1469L1673 1469 2028 1706Q1892 1887 1690 1984ZM1300 2160L1300 2160Q1499 2160 1673 2085.5 1847 2011 1979 1879 2111 1747 2185.5 1573 2260 1399 2260 1200L2260 1200Q2260 1001 2185.5 827 2111 653 1979 521 1847 389 1673 314.5 1499 240 1300 240L1300 240Q1101 240 927 314.5 753 389 621 521 489 653 414.5 827 340 1001 340 1200L340 1200Q340 1399 414.5 1573 489 1747 621 1879 753 2011 927 2085.5 1101 2160 1300 2160ZM1300 1592L1300 1592Q1192 1592 1103 1539 1014 1486 961 1397 908 1308 908 1200L908 1200Q908 1092 961 1002.5 1014 913 1103 860 1192 807 1300 807L1300 807Q1408 807 1497.5 860 1587 913 1640 1002.5 1693 1092 1693 1200L1693 1200Q1693 1308 1640 1397 1587 1486 1497.5 1539 1408 1592 1300 1592ZM1300 1421L1300 1421Q1392 1421 1456.5 1356 1521 1291 1521 1200L1521 1200Q1521 1108 1456.5 1043.5 1392 979 1300 979L1300 979Q1209 979 1144 1043.5 1079 1108 1079 1200L1079 1200Q1079 1291 1144 1356 1209 1421 1300 1421ZM927 931L927 931 572 694Q708 513 910 416L910 416 1086 793Q994 846 927 931Z"/>
</svg>