<svg xmlns="http://www.w3.org/2000/svg"
    viewBox="0 0 2600 2400">
  <!--
Copyright 2013 Google LLC
Noto is a trademark of Google Inc.
This Font Software is licensed under the SIL Open Font License, Version 1.1. This Font Software is distributed on an "AS IS" BASIS, WITHOUT WARRANTIES OR CONDITIONS OF ANY KIND, either express or implied. See the SIL Open Font License for the specific language, permissions and limitations governing your use of this Font Software.
http://scripts.sil.org/OFL
  -->
<path d="M2128 1750L2048 1750 2048 471Q2048 416 2026.5 363 2005 310 1972.5 275 1940 240 1907 240L1907 240 572 240 572 160 1907 160Q1963 160 2013.5 205 2064 250 2096 321 2128 392 2128 471L2128 471 2128 1750ZM609 2076L609 2076Q558 2076 522 2040 486 2004 486 1952L486 1952Q486 1900 522 1863.5 558 1827 609 1827L609 1827Q659 1827 695.5 1864 732 1901 732 1952L732 1952Q732 2003 695.5 2039.5 659 2076 609 2076ZM609 1996L609 1996Q627 1996 639.5 1982.5 652 1969 652 1952L652 1952Q652 1934 639.5 1920.5 627 1907 609 1907L609 1907Q591 1907 578.5 1920 566 1933 566 1952L566 1952Q566 1970 578.5 1983 591 1996 609 1996ZM750 2172L750 2172Q698 2172 657 2135 616 2098 598 2037L598 2037 672 2006Q682 2043 703.5 2067.5 725 2092 750 2092L750 2092Q785 2092 810 2050.5 835 2009 835 1952L835 1952Q835 1895 810 1853.5 785 1812 750 1812L750 1812Q723 1812 701 1838.5 679 1865 669 1906L669 1906 598 1864Q618 1805 658 1768.5 698 1732 750 1732L750 1732Q820 1732 867.5 1796 915 1860 915 1952L915 1952Q915 2044 867.5 2108 820 2172 750 2172ZM848 2240L848 2240Q792 2240 745 2206 698 2172 670 2117L670 2117 769 2123Q804 2160 848 2160L848 2160Q903 2160 943 2103 983 2046 983 1964L983 1964Q983 1882 943 1825 903 1768 848 1768L848 1768Q817 1768 790 1787L790 1787 695 1772Q724 1733 763 1710.5 802 1688 848 1688L848 1688Q908 1688 957 1725 1006 1762 1034.5 1824.5 1063 1887 1063 1964L1063 1964Q1063 2041 1034.5 2103.5 1006 2166 957 2203 908 2240 848 2240ZM791 1765L711 1765 711 436 791 436 791 1765ZM2171 2240L848 2240 848 2160 2171 2160Q2225 2160 2265.5 2102 2306 2044 2306 1964L2306 1964Q2306 1884 2265.5 1826.5 2225 1769 2171 1769L2171 1769 848 1768 848 1688 2171 1689Q2231 1689 2279.5 1726.5 2328 1764 2357 1826 2386 1888 2386 1964L2386 1964Q2386 2040 2357 2102.5 2328 2165 2279.5 2202.5 2231 2240 2171 2240L2171 2240ZM337 548L337 548Q286 548 250 512 214 476 214 424L214 424Q214 372 250 335.5 286 299 337 299L337 299Q387 299 423.5 336 460 373 460 424L460 424Q460 475 423.5 511.5 387 548 337 548ZM337 468L337 468Q355 468 367.5 454.5 380 441 380 424L380 424Q380 406 367.5 392.5 355 379 337 379L337 379Q319 379 306.5 392 294 405 294 424L294 424Q294 442 306.5 455 319 468 337 468ZM748 713L573 713 573 633 748 633 748 713ZM478 644L478 644Q426 644 385 607 344 570 326 509L326 509 400 478Q410 515 431.5 539.5 453 564 478 564L478 564Q513 564 538 522.5 563 481 563 424L563 424Q563 367 538 325.5 513 284 478 284L478 284Q451 284 429 310.5 407 337 397 378L397 378 326 336Q346 277 386 240.5 426 204 478 204L478 204Q548 204 595.5 268 643 332 643 424L643 424Q643 516 595.5 580 548 644 478 644ZM576 712L576 712Q520 712 473 678 426 644 398 589L398 589 497 595Q532 632 576 632L576 632Q631 632 671 575 711 518 711 436L711 436Q711 354 671 297 631 240 576 240L576 240Q545 240 518 259L518 259 423 244Q452 205 491 182.5 530 160 576 160L576 160Q636 160 685 197 734 234 762.5 296.5 791 359 791 436L791 436Q791 513 762.5 575.5 734 638 685 675 636 712 576 712ZM1334 1569L1258 1570 1236 1564 1199 1568 1193 1504 1240 1500 1266 1506 1324 1505 1381 1488 1462 1501 1522 1504 1581 1489 1620 1500 1657 1501 1655 1565 1610 1564 1579 1555 1528 1568 1456 1565 1385 1554 1334 1569ZM1101 1379L1043 1390 977 1384 983 1320 1039 1326 1097 1315 1139 1318 1198 1320 1351 1315 1423 1321 1457 1321 1487 1306 1583 1316 1641 1316 1712 1311 1814 1322 1808 1386 1710 1375 1643 1380 1579 1380 1499 1372 1471 1385 1419 1385 1349 1379 1198 1384 1135 1382 1101 1379ZM1746 1141L1742 1205 1616 1196 1537 1204 1465 1184 1404 1205 1338 1196 1228 1203 1170 1198 1100 1190 1050 1200 991 1200 991 1136 1044 1136 1096 1124 1176 1134 1230 1139 1340 1132 1398 1139 1463 1116 1543 1138 1616 1132 1746 1141ZM1245 1013L1151 1026 1094 1004 1074 1004 997 1014 989 950 1069 940 1106 940 1159 960 1241 949 1319 951 1396 940 1472 951 1462 1015 1396 1004 1323 1015 1245 1013ZM1222 635L1180 650 1134 641 1094 637 1047 635 993 640 987 576 1045 571 1099 573 1144 577 1175 584 1212 571 1306 576 1302 640 1222 635ZM1453 816L1388 842 1322 826 1195 837 1103 814 1046 834 990 835 988 771 1034 770 1099 746 1199 773 1326 762 1384 774 1448 748 1541 773 1619 753 1752 768 1746 832 1623 819 1541 839 1453 816ZM1171 444L1086 464 1015 448 986 457 965 396 1011 380 1086 398 1179 376 1208 391 1181 448 1171 444ZM1703 1013L1642 1013 1642 949 1685 949 1722 927 1799 949 1847 948 1849 1012 1789 1013 1732 995 1703 1013ZM1757 629L1661 649 1586 628 1530 640 1516 578 1588 562 1663 583 1755 563 1840 578 1830 640 1757 629ZM1427 447L1349 459 1339 395 1423 383 1508 382 1596 390 1649 386 1695 376 1813 385 1809 449 1699 440 1659 450 1596 454 1504 446 1427 447Z"/>
</svg>