<svg xmlns="http://www.w3.org/2000/svg"
    viewBox="0 0 2600 2400">
  <!--
Copyright 2013 Google LLC
Noto is a trademark of Google Inc.
This Font Software is licensed under the SIL Open Font License, Version 1.1. This Font Software is distributed on an "AS IS" BASIS, WITHOUT WARRANTIES OR CONDITIONS OF ANY KIND, either express or implied. See the SIL Open Font License for the specific language, permissions and limitations governing your use of this Font Software.
http://scripts.sil.org/OFL
  -->
<path d="M2018 1940L582 1940Q460 1940 392 1905 324 1870 297 1804.5 270 1739 270 1646L270 1646 270 754Q270 661 297 595 324 529 392 494.5 460 460 582 460L582 460 2018 460Q2141 460 2208.5 494.5 2276 529 2303 595 2330 661 2330 754L2330 754 2330 1646Q2330 1739 2303 1804.5 2276 1870 2208.5 1905 2141 1940 2018 1940L2018 1940ZM744 1705L599 1705Q555 1705 530.5 1674 506 1643 506 1594L506 1594Q506 1544 530 1513 554 1482 599 1482L599 1482 744 1482Q789 1482 813.5 1513 838 1544 838 1594L838 1594Q838 1640 813 1672.5 788 1705 744 1705L744 1705ZM672 1660L672 1660Q699 1660 718 1640.5 737 1621 737 1594L737 1594Q737 1567 718 1548 699 1529 672 1529L672 1529Q645 1529 625.5 1548 606 1567 606 1594L606 1594Q606 1622 625 1641 644 1660 672 1660ZM1018 1594L1121 1657 1121 1532 1018 1594ZM1163 1705L1018 1705Q974 1705 949.5 1672.5 925 1640 925 1594L925 1594Q925 1544 949 1513 973 1482 1018 1482L1018 1482 1163 1482Q1208 1482 1232.5 1513 1257 1544 1257 1594L1257 1594Q1257 1643 1232.5 1674 1208 1705 1163 1705L1163 1705ZM1582 1705L1437 1705Q1393 1705 1368.5 1674 1344 1643 1344 1594L1344 1594Q1344 1544 1368 1513 1392 1482 1437 1482L1437 1482 1582 1482Q1627 1482 1651.5 1513 1676 1544 1676 1594L1676 1594Q1676 1640 1651 1672.5 1626 1705 1582 1705L1582 1705ZM1479 1532L1479 1657 1583 1594 1479 1532ZM582 1860L582 1860 2018 1860Q2152 1860 2201 1814.5 2250 1769 2250 1646L2250 1646 2250 754Q2250 631 2200 585.5 2150 540 2018 540L2018 540 582 540Q449 540 399.5 585.5 350 631 350 754L350 754 350 1646Q350 1769 399.5 1814.5 449 1860 582 1860ZM1956 1318L643 1318Q590 1318 553 1281 516 1244 516 1192L516 1192 516 833Q516 781 553.5 744.5 591 708 643 708L643 708 1956 708Q2009 708 2046 744 2083 780 2083 833L2083 833 2083 1192Q2083 1244 2046 1281 2009 1318 1956 1318L1956 1318ZM2001 1705L1856 1705Q1812 1705 1787.5 1674 1763 1643 1763 1594L1763 1594Q1763 1544 1787 1513 1811 1482 1856 1482L1856 1482 2001 1482Q2046 1482 2070.5 1513 2095 1544 2095 1594L2095 1594Q2095 1640 2070 1672.5 2045 1705 2001 1705L2001 1705ZM1866 1629L1866 1629 1991 1629Q2006 1629 2013.5 1618.5 2021 1608 2021 1594L2021 1594Q2021 1560 1991 1560L1991 1560 1866 1560Q1836 1560 1836 1594L1836 1594Q1836 1608 1843.5 1618.5 1851 1629 1866 1629ZM1728 842L1760 874 1833 874 1866 842 1833 808 1760 808 1728 842ZM1701 862L1669 895 1669 968 1701 1000 1735 968 1735 895 1701 862ZM1925 968L1925 895 1892 862 1859 895 1859 968 1892 1000 1925 968ZM1728 1022L1760 1054 1833 1054 1866 1022 1833 988 1760 988 1728 1022ZM1701 1042L1669 1075 1669 1148 1701 1180 1735 1148 1735 1075 1701 1042ZM1925 1148L1925 1075 1892 1042 1859 1075 1859 1148 1892 1180 1925 1148ZM1833 1168L1760 1168 1728 1201 1760 1234 1833 1234 1866 1201 1833 1168ZM1408 842L1440 874 1513 874 1546 842 1513 808 1440 808 1408 842ZM1381 862L1349 895 1349 968 1381 1000 1415 968 1415 895 1381 862ZM1605 968L1605 895 1572 862 1539 895 1539 968 1572 1000 1605 968ZM1408 1022L1440 1054 1513 1054 1546 1022 1513 988 1440 988 1408 1022ZM1605 1148L1605 1075 1572 1042 1539 1075 1539 1148 1572 1180 1605 1148ZM1513 1168L1440 1168 1408 1201 1440 1234 1513 1234 1546 1201 1513 1168ZM1088 842L1120 874 1193 874 1226 842 1193 808 1120 808 1088 842ZM1061 862L1029 895 1029 968 1061 1000 1095 968 1095 895 1061 862ZM1285 968L1285 895 1252 862 1219 895 1219 968 1252 1000 1285 968ZM1088 1022L1120 1054 1193 1054 1226 1022 1193 988 1120 988 1088 1022ZM1285 1148L1285 1075 1252 1042 1219 1075 1219 1148 1252 1180 1285 1148ZM1193 1168L1120 1168 1088 1201 1120 1234 1193 1234 1226 1201 1193 1168ZM965 968L965 895 932 862 899 895 899 968 932 1000 965 968ZM965 1148L965 1075 932 1042 899 1075 899 1148 932 1180 965 1148Z"/>
</svg>