<svg xmlns="http://www.w3.org/2000/svg"
    viewBox="0 0 2600 2400">
  <!--
Copyright 2013, 2022 Google Inc. All Rights Reserved.
Noto is a trademark of Google Inc.
This Font Software is licensed under the SIL Open Font License, Version 1.1. This Font Software is distributed on an "AS IS" BASIS, WITHOUT WARRANTIES OR CONDITIONS OF ANY KIND, either express or implied. See the SIL Open Font License for the specific language, permissions and limitations governing your use of this Font Software.
http://scripts.sil.org/OFL
  -->
<path d="M1011 632L1589 632 1931 1430 669 1430 1011 632ZM1809 1350L1537 712 1063 712 791 1350 1809 1350ZM1155 2160L1445 2160 1445 1971 1155 1971 1155 2160ZM1525 1891L1525 2240 1075 2240 1075 1891 1525 1891ZM1757 792L1598 792 1583 692 1017 692 1002 792 843 792 843 592 1757 592 1757 792ZM681 240L562 461 562 1891 2038 1891 2038 461 1919 240 681 240ZM482 1971L482 441 633 160 1967 160 2118 441 2118 1971 482 1971ZM1455 1021L758 1420 719 1350 1325 1004 1012 704 1069 648 1455 1021ZM1847 1414L1177 1165 1205 1090 1874 1339 1847 1414ZM1222 852L1538 640 1583 707 1266 919 1222 852ZM2075 491L522 491 522 411 2075 411 2075 491Z"/>
</svg>