<svg xmlns="http://www.w3.org/2000/svg"
    viewBox="0 0 2600 2400">
  <!--
Copyright 2013 Google LLC
Noto is a trademark of Google Inc.
This Font Software is licensed under the SIL Open Font License, Version 1.1. This Font Software is distributed on an "AS IS" BASIS, WITHOUT WARRANTIES OR CONDITIONS OF ANY KIND, either express or implied. See the SIL Open Font License for the specific language, permissions and limitations governing your use of this Font Software.
http://scripts.sil.org/OFL
  -->
<path d="M1686 2240L913 2240Q839 2240 785.5 2186 732 2132 732 2058L732 2058 732 343Q732 267 785.5 213.5 839 160 913 160L913 160 1686 160Q1761 160 1814 213.5 1867 267 1867 343L1867 343 1867 2057Q1867 2133 1814 2186.5 1761 2240 1686 2240L1686 2240ZM1031 1829L1031 1919 1131 1919 1131 1829 1031 1829ZM563 1923L495 1965 316 1665 461 1425 315 1192 461 959 316 719 489 428 558 470 409 719 554 959 410 1192 554 1425 409 1665 563 1923ZM1250 1829L1250 1919 1350 1919 1350 1829 1250 1829ZM1469 1829L1469 1919 1569 1919 1569 1829 1469 1829ZM1031 1137L1031 1227 1131 1227 1131 1137 1031 1137ZM1649 2012L951 2012 951 584 1649 584 1649 2012ZM913 2160L913 2160 1686 2160Q1728 2160 1757.5 2130 1787 2100 1787 2057L1787 2057 1787 343Q1787 300 1757.5 270 1728 240 1686 240L1686 240 913 240Q872 240 842 270 812 300 812 343L812 343 812 2058Q812 2099 842 2129.5 872 2160 913 2160ZM1250 1137L1250 1227 1350 1227 1350 1137 1250 1137ZM1031 907L1031 997 1131 997 1131 907 1031 907ZM1250 907L1250 997 1350 997 1350 907 1250 907ZM1031 677L1031 767 1131 767 1131 677 1031 677ZM1469 907L1469 997 1569 997 1569 907 1469 907ZM1250 677L1250 767 1350 767 1350 677 1250 677ZM1469 677L1469 767 1569 767 1569 677 1469 677ZM1459 430L1141 430 1141 370 1459 370 1459 430ZM2284 1665L2105 1965 2036 1923 2190 1665 2045 1425 2189 1192 2045 959 2190 719 2042 470 2110 428 2284 719 2139 959 2285 1192 2139 1425 2284 1665Z"/>
</svg>