<svg xmlns="http://www.w3.org/2000/svg"
    viewBox="0 0 2600 2400">
  <!--
Copyright 2013 Google LLC
Noto is a trademark of Google Inc.
This Font Software is licensed under the SIL Open Font License, Version 1.1. This Font Software is distributed on an "AS IS" BASIS, WITHOUT WARRANTIES OR CONDITIONS OF ANY KIND, either express or implied. See the SIL Open Font License for the specific language, permissions and limitations governing your use of this Font Software.
http://scripts.sil.org/OFL
  -->
<path d="M1300 2240L1300 2240Q1088 2240 901.5 2159 715 2078 573 1934.5 431 1791 350.5 1602.5 270 1414 270 1200L270 1200Q270 986 350.5 797.5 431 609 573 465.5 715 322 901.5 241 1088 160 1300 160L1300 160Q1512 160 1698.5 241 1885 322 2027 465.5 2169 609 2249.5 797.5 2330 986 2330 1200L2330 1200Q2330 1414 2249.5 1602.5 2169 1791 2027 1934.5 1885 2078 1698.5 2159 1512 2240 1300 2240ZM1486 1875L1486 1875Q1439 1875 1388 1828L1388 1828 1066 1537 819 1537 819 863 1066 863 1388 572Q1439 525 1486 525L1486 525Q1529 525 1555 555.5 1581 586 1581 645L1581 645 1581 1755Q1581 1813 1555 1844 1529 1875 1486 1875ZM1479 1789L1479 1789Q1501 1789 1501 1754L1501 1754 1501 646Q1501 611 1479 611L1479 611Q1462 611 1441 631L1441 631 1098 943 899 943 899 1457 1098 1457 1441 1769Q1462 1789 1479 1789ZM1300 2160L1300 2160Q1496 2160 1668 2085 1840 2010 1971 1877.5 2102 1745 2176 1571.5 2250 1398 2250 1200L2250 1200Q2250 1002 2176 828.5 2102 655 1971 522.5 1840 390 1668 315 1496 240 1300 240L1300 240Q1104 240 932 315 760 390 629 522.5 498 655 424 828.5 350 1002 350 1200L350 1200Q350 1398 424 1571.5 498 1745 629 1877.5 760 2010 932 2085 1104 2160 1300 2160ZM2033 1878L1984 1927 567 522 616 473 2033 1878ZM1561 1344L1561 1344 1561 1055Q1606 1055 1629.5 1066 1653 1077 1653 1115L1653 1115 1653 1284Q1653 1322 1629.5 1333 1606 1344 1561 1344Z"/>
</svg>