<svg xmlns="http://www.w3.org/2000/svg"
    viewBox="0 0 2600 2400">
  <!--
Copyright 2013, 2022 Google Inc. All Rights Reserved.
Noto is a trademark of Google Inc.
This Font Software is licensed under the SIL Open Font License, Version 1.1. This Font Software is distributed on an "AS IS" BASIS, WITHOUT WARRANTIES OR CONDITIONS OF ANY KIND, either express or implied. See the SIL Open Font License for the specific language, permissions and limitations governing your use of this Font Software.
http://scripts.sil.org/OFL
  -->
<path d="M2065 1767L2065 1767Q1954 1767 1812.5 1709 1671 1651 1518.5 1545.5 1366 1440 1218 1296L1218 1296Q1058 1139 941.5 981 825 823 762.5 678 700 533 700 417L700 417Q700 297 767 229L767 229Q835 160 952 160L952 160Q1065 160 1205 215.5 1345 271 1493.5 371.5 1642 472 1781 608L1781 608Q1938 760 2055.5 926 2173 1092 2238.5 1248 2304 1404 2304 1527L2304 1527Q2304 1641 2241 1704 2178 1767 2065 1767ZM1238 1880L1188 1948Q1084 1916 978 1856.5 872 1797 778 1716.5 684 1636 612.5 1539 541 1442 506 1334L506 1334 571 1273Q598 1381 666 1478 734 1575 827.5 1655.5 921 1736 1027.5 1793.5 1134 1851 1238 1880L1238 1880ZM837 2240L837 2240Q753 2240 660 2194.5 567 2149 465 2058L465 2058Q353 1958 296.5 1863 240 1768 240 1679L240 1679Q240 1622 264 1568 288 1514 334 1463L334 1463 431 1356Q533 1243 598.5 1152 664 1061 701 980.5 738 900 752.5 818.5 767 737 767 644L767 644 849 655Q849 758 832 846.5 815 935 774 1021 733 1107 663.5 1201.5 594 1296 489 1412L489 1412 393 1518Q357 1558 338.5 1599 320 1640 320 1683L320 1683Q320 1753 369.5 1831.5 419 1910 519 1999L519 1999Q611 2080 690.5 2121 770 2162 836 2162L836 2162Q885 2162 928 2140.5 971 2119 1010 2076L1010 2076 1106 1970Q1198 1868 1293.5 1796.5 1389 1725 1497.5 1678 1606 1631 1738 1605L1738 1605 1796 1680Q1656 1704 1550 1744.5 1444 1785 1353 1851.5 1262 1918 1167 2022L1167 2022 1068 2130Q1019 2185 961 2212.5 903 2240 837 2240ZM1423 1374L1423 1374 1609 1111Q1621 1094 1621 1068L1621 1068Q1621 1020 1583.5 967.5 1546 915 1491.5 879 1437 843 1387 843L1387 843Q1358 843 1336 858L1336 858 1084 1032Q1159 1127 1243 1212 1327 1297 1423 1374ZM2335 991L2335 991 2259 964Q2280 895 2280 813L2280 813Q2280 710 2242.5 613.5 2205 517 2134 440L2134 440Q2057 356 1951.5 310 1846 264 1731 264L1731 264Q1669 264 1619 276L1619 276 1600 198Q1667 184 1729 184L1729 184Q1861 184 1982.5 236.5 2104 289 2192 385L2192 385Q2272 472 2316 582.5 2360 693 2360 815L2360 815Q2360 903 2335 991Z"/>
</svg>