<svg xmlns="http://www.w3.org/2000/svg"
    viewBox="0 0 2600 2400">
  <!--
Copyright 2013, 2022 Google Inc. All Rights Reserved.
Noto is a trademark of Google Inc.
This Font Software is licensed under the SIL Open Font License, Version 1.1. This Font Software is distributed on an "AS IS" BASIS, WITHOUT WARRANTIES OR CONDITIONS OF ANY KIND, either express or implied. See the SIL Open Font License for the specific language, permissions and limitations governing your use of this Font Software.
http://scripts.sil.org/OFL
  -->
<path d="M1300 1540L1300 1540Q1349 1540 1384 1505L1384 1505 1605 1284Q1623 1266 1631.5 1244 1640 1222 1640 1200L1640 1200Q1640 1177 1631.5 1155.5 1623 1134 1605 1116L1605 1116 1384 895Q1349 860 1300 860L1300 860Q1251 860 1216 895L1216 895 995 1116Q977 1134 968.5 1155.5 960 1177 960 1200L960 1200Q960 1222 968.5 1244 977 1266 995 1284L995 1284 1216 1505Q1251 1540 1300 1540ZM1133 1381L1153 1421 1447 1421 1467 1381 1133 1381ZM1030 1281L1050 1321 1550 1321 1570 1281 1030 1281ZM1300 1500L1300 1500Q1285 1500 1270.5 1494.5 1256 1489 1244 1477L1244 1477 1023 1256Q1000 1233 1000 1200L1000 1200Q1000 1167 1023 1144L1023 1144 1244 923Q1256 911 1270.5 905.5 1285 900 1300 900L1300 900Q1315 900 1329.5 905.5 1344 911 1356 923L1356 923 1577 1144Q1600 1167 1600 1200L1600 1200Q1600 1233 1577 1256L1577 1256 1356 1477Q1344 1489 1329.5 1494.5 1315 1500 1300 1500ZM979 1180L979 1220 1621 1220 1621 1180 979 1180ZM1050 1079L1030 1119 1570 1119 1550 1079 1050 1079ZM1153 979L1133 1019 1467 1019 1447 979 1153 979Z"/>
</svg>