<svg xmlns="http://www.w3.org/2000/svg"
    viewBox="0 0 2600 2400">
  <!--
Copyright 2013, 2022 Google Inc. All Rights Reserved.
Noto is a trademark of Google Inc.
This Font Software is licensed under the SIL Open Font License, Version 1.1. This Font Software is distributed on an "AS IS" BASIS, WITHOUT WARRANTIES OR CONDITIONS OF ANY KIND, either express or implied. See the SIL Open Font License for the specific language, permissions and limitations governing your use of this Font Software.
http://scripts.sil.org/OFL
  -->
<path d="M2078 2040L522 2040 522 360 2078 360 2078 2040ZM601 1240L601 1961 1999 1961 1999 1240 601 1240ZM601 440L601 1160 1999 1160 1999 440 601 440ZM1194 1448L1194 1544 1406 1544 1406 1448 1194 1448ZM1473 1611L1127 1611 1127 1381 1473 1381 1473 1611ZM1194 648L1194 744 1406 744 1406 648 1194 648ZM1473 811L1127 811 1127 581 1473 581 1473 811ZM2317 2240L283 2240 283 160 2317 160 2317 2240ZM2238 2161L2238 240 362 240 362 2161 2238 2161ZM1127 1712L1127 1712 1127 1678 1473 1678 1473 1712Q1473 1771 1434.5 1809.5 1396 1848 1337 1848L1337 1848 1263 1848Q1205 1848 1166 1809.5 1127 1771 1127 1712ZM1127 912L1127 912 1127 878 1473 878 1473 912Q1473 971 1434.5 1009.5 1396 1048 1337 1048L1337 1048 1263 1048Q1205 1048 1166 1009.5 1127 971 1127 912Z"/>
</svg>