<svg xmlns="http://www.w3.org/2000/svg"
    viewBox="0 0 2600 2400">
  <!--
Copyright 2013 Google LLC
Noto is a trademark of Google Inc.
This Font Software is licensed under the SIL Open Font License, Version 1.1. This Font Software is distributed on an "AS IS" BASIS, WITHOUT WARRANTIES OR CONDITIONS OF ANY KIND, either express or implied. See the SIL Open Font License for the specific language, permissions and limitations governing your use of this Font Software.
http://scripts.sil.org/OFL
  -->
<path d="M2370 2140L230 2140 230 310 2370 310 2370 2140ZM583 1707L583 1838 745 1838 745 1707 583 1707ZM583 1525L583 1657 745 1657 745 1525 583 1525ZM795 1707L795 1838 956 1838 956 1707 795 1707ZM583 1344L583 1475 745 1475 745 1344 583 1344ZM795 1525L795 1657 956 1657 956 1525 795 1525ZM1007 1707L1007 1838 1168 1838 1168 1707 1007 1707ZM583 1162L583 1293 745 1293 745 1162 583 1162ZM795 1344L795 1475 956 1475 956 1344 795 1344ZM1007 1525L1007 1657 1168 1657 1168 1525 1007 1525ZM1219 1707L1219 1838 1380 1838 1380 1707 1219 1707ZM583 980L583 1111 745 1111 745 980 583 980ZM795 1162L795 1293 956 1293 956 1162 795 1162ZM1007 1344L1007 1475 1168 1475 1168 1344 1007 1344ZM1219 1525L1219 1657 1380 1657 1380 1525 1219 1525ZM1431 1707L1431 1838 1592 1838 1592 1707 1431 1707ZM795 980L795 1111 956 1111 956 980 795 980ZM1007 1162L1007 1293 1168 1293 1168 1162 1007 1162ZM2065 1889L534 1889 534 930 2065 930 2065 1889ZM1219 1344L1219 1475 1380 1475 1380 1344 1219 1344ZM1431 1525L1431 1657 1592 1657 1592 1525 1431 1525ZM1642 1707L1642 1838 1803 1838 1803 1707 1642 1707ZM530 612L530 612Q499 612 477 590 455 568 455 537L455 537Q455 507 477.5 485 500 463 530 463L530 463Q562 463 583.5 485 605 507 605 537L605 537Q605 569 583.5 590.5 562 612 530 612ZM1007 980L1007 1111 1168 1111 1168 980 1007 980ZM1219 1162L1219 1293 1380 1293 1380 1162 1219 1162ZM310 390L310 2060 2290 2060 2290 390 310 390ZM1431 1344L1431 1475 1592 1475 1592 1344 1431 1344ZM1642 1525L1642 1657 1803 1657 1803 1525 1642 1525ZM1854 1707L1854 1838 2015 1838 2015 1707 1854 1707ZM1219 980L1219 1111 1380 1111 1380 980 1219 980ZM830 612L830 612Q799 612 777 590 755 568 755 537L755 537Q755 507 777.5 485 800 463 830 463L830 463Q862 463 883.5 485 905 507 905 537L905 537Q905 569 883.5 590.5 862 612 830 612ZM1431 1162L1431 1293 1592 1293 1592 1162 1431 1162ZM565 502L502 499Q497 481 495 461 493 441 493 418L493 418Q493 293 533.5 226.5 574 160 649 160L649 160Q713 160 757 213 801 266 798 356L798 356 735 356Q737 290 714 255 691 220 650 220L650 220Q598 220 576.5 271.5 555 323 555 412L555 412Q555 434 558 456.5 561 479 565 502L565 502ZM1642 1344L1642 1475 1803 1475 1803 1344 1642 1344ZM1854 1525L1854 1657 2015 1657 2015 1525 1854 1525ZM1431 980L1431 1111 1592 1111 1592 980 1431 980ZM1642 1162L1642 1293 1803 1293 1803 1162 1642 1162ZM1854 1344L1854 1475 2015 1475 2015 1344 1854 1344ZM2321 783L272 783 272 703 2321 703 2321 783ZM1130 612L1130 612Q1099 612 1077 590 1055 568 1055 537L1055 537Q1055 507 1077.5 485 1100 463 1130 463L1130 463Q1162 463 1183.5 485 1205 507 1205 537L1205 537Q1205 569 1183.5 590.5 1162 612 1130 612ZM865 502L802 499Q797 481 795 461 793 441 793 418L793 418Q793 293 833.5 226.5 874 160 949 160L949 160Q1013 160 1057 213 1101 266 1098 356L1098 356 1035 356Q1037 290 1014 255 991 220 950 220L950 220Q898 220 876.5 271.5 855 323 855 412L855 412Q855 434 858 456.5 861 479 865 502L865 502ZM1642 980L1642 1111 1803 1111 1803 980 1642 980ZM1854 1162L1854 1293 2015 1293 2015 1162 1854 1162ZM1430 612L1430 612Q1399 612 1377 590 1355 568 1355 537L1355 537Q1355 507 1377.5 485 1400 463 1430 463L1430 463Q1462 463 1483.5 485 1505 507 1505 537L1505 537Q1505 569 1483.5 590.5 1462 612 1430 612ZM1854 980L1854 1111 2015 1111 2015 980 1854 980ZM1165 502L1102 499Q1097 481 1095 461 1093 441 1093 418L1093 418Q1093 293 1133.5 226.5 1174 160 1249 160L1249 160Q1313 160 1357 213 1401 266 1398 356L1398 356 1335 356Q1337 290 1314 255 1291 220 1250 220L1250 220Q1198 220 1176.5 271.5 1155 323 1155 412L1155 412Q1155 434 1158 456.5 1161 479 1165 502L1165 502ZM1730 612L1730 612Q1699 612 1677 590 1655 568 1655 537L1655 537Q1655 507 1677.5 485 1700 463 1730 463L1730 463Q1762 463 1783.5 485 1805 507 1805 537L1805 537Q1805 569 1783.5 590.5 1762 612 1730 612ZM1465 502L1402 499Q1397 481 1395 461 1393 441 1393 418L1393 418Q1393 293 1433.5 226.5 1474 160 1549 160L1549 160Q1613 160 1657 213 1701 266 1698 356L1698 356 1635 356Q1637 290 1614 255 1591 220 1550 220L1550 220Q1498 220 1476.5 271.5 1455 323 1455 412L1455 412Q1455 434 1458 456.5 1461 479 1465 502L1465 502ZM2030 612L2030 612Q1999 612 1977 590 1955 568 1955 537L1955 537Q1955 507 1977.5 485 2000 463 2030 463L2030 463Q2062 463 2083.5 485 2105 507 2105 537L2105 537Q2105 569 2083.5 590.5 2062 612 2030 612ZM1765 502L1702 499Q1697 481 1695 461 1693 441 1693 418L1693 418Q1693 293 1733.5 226.5 1774 160 1849 160L1849 160Q1913 160 1957 213 2001 266 1998 356L1998 356 1935 356Q1937 290 1914 255 1891 220 1850 220L1850 220Q1798 220 1776.5 271.5 1755 323 1755 412L1755 412Q1755 434 1758 456.5 1761 479 1765 502L1765 502ZM2065 502L2002 499Q1997 481 1995 461 1993 441 1993 418L1993 418Q1993 293 2033.5 226.5 2074 160 2149 160L2149 160Q2213 160 2257 213 2301 266 2298 356L2298 356 2235 356Q2237 290 2214 255 2191 220 2150 220L2150 220Q2098 220 2076.5 271.5 2055 323 2055 412L2055 412Q2055 434 2058 456.5 2061 479 2065 502L2065 502Z"/>
</svg>