<svg xmlns="http://www.w3.org/2000/svg"
    viewBox="0 0 2600 2400">
  <!--
Copyright 2013 Google LLC
Noto is a trademark of Google Inc.
This Font Software is licensed under the SIL Open Font License, Version 1.1. This Font Software is distributed on an "AS IS" BASIS, WITHOUT WARRANTIES OR CONDITIONS OF ANY KIND, either express or implied. See the SIL Open Font License for the specific language, permissions and limitations governing your use of this Font Software.
http://scripts.sil.org/OFL
  -->
<path d="M1015 1717L264 2240 659 1477 380 1423 561 1196 240 1057 513 854 400 655 651 597 620 300 976 427 1173 160 1412 404 1624 233 1740 461 2059 368 2014 669 2261 772 2091 1030 2360 1303 2018 1408 2121 1757 1724 1667 1612 1905 1391 1723 1180 1912 1015 1717ZM777 1419L448 2030 1031 1611 1188 1798 1389 1617 1584 1777 1678 1575 2005 1649 1918 1354 2210 1265 1991 1042 2143 810 1926 719 1961 480 1698 557 1598 357 1408 510 1181 278 1002 521 712 418 737 659 522 709 617 876 396 1039 689 1166 526 1369 777 1419Z"/>
</svg>