<svg xmlns="http://www.w3.org/2000/svg"
    viewBox="0 0 2600 2400">
  <!--
Copyright 2013, 2022 Google Inc. All Rights Reserved.
Noto is a trademark of Google Inc.
This Font Software is licensed under the SIL Open Font License, Version 1.1. This Font Software is distributed on an "AS IS" BASIS, WITHOUT WARRANTIES OR CONDITIONS OF ANY KIND, either express or implied. See the SIL Open Font License for the specific language, permissions and limitations governing your use of this Font Software.
http://scripts.sil.org/OFL
  -->
<path d="M1300 2235L1300 2235Q1080 2235 891 2156 702 2077 560.5 1936 419 1795 339.5 1607 260 1419 260 1200L260 1200Q260 981 339.5 793 419 605 560.5 464 702 323 891 244 1080 165 1300 165L1300 165Q1520 165 1709 244 1898 323 2039.5 464 2181 605 2260.5 793 2340 981 2340 1200L2340 1200Q2340 1418 2260.5 1606.5 2181 1795 2039.5 1936 1898 2077 1709 2156 1520 2235 1300 2235ZM1300 1843L1300 1843Q1436 1843 1556 1797L1556 1797Q1426 1726 1300 1726L1300 1726Q1174 1726 1044 1797L1044 1797Q1164 1843 1300 1843ZM1300 1898L1300 1898Q1175 1898 1053.5 1858 932 1818 833.5 1751 735 1684 676 1601.5 617 1519 617 1435L617 1435Q617 1394 635 1376.5 653 1359 684 1359L684 1359Q707 1359 735 1363.5 763 1368 799 1376L799 1376Q895 1398 1028.5 1414 1162 1430 1300 1430L1300 1430Q1438 1430 1571.5 1414 1705 1398 1802 1376L1802 1376Q1838 1368 1866 1363.5 1894 1359 1916 1359L1916 1359Q1948 1359 1966 1376.5 1984 1394 1984 1435L1984 1435Q1984 1519 1925 1601.5 1866 1684 1767 1751 1668 1818 1546.5 1858 1425 1898 1300 1898ZM1300 1565L1300 1565Q1394 1565 1501 1557.5 1608 1550 1715 1533.5 1822 1517 1915 1492L1915 1492 1915 1437Q1915 1423 1905.5 1419.5 1896 1416 1883 1419L1883 1419Q1803 1438 1701 1453 1599 1468 1494.5 1476.5 1390 1485 1300 1485L1300 1485Q1211 1485 1106 1476.5 1001 1468 899.5 1453 798 1438 717 1419L717 1419Q704 1416 694.5 1419.5 685 1423 685 1437L685 1437 685 1492Q778 1517 885 1533.5 992 1550 1099.5 1557.5 1207 1565 1300 1565ZM948 1130L948 1130Q896 1130 859 1086 822 1042 822 980L822 980Q822 918 859 873.5 896 829 948 829L948 829Q1000 829 1037 873.5 1074 918 1074 980L1074 980Q1074 1041 1037 1085.5 1000 1130 948 1130ZM1300 2160L1300 2160Q1503 2160 1677.5 2087 1852 2014 1983 1883 2114 1752 2187 1577.5 2260 1403 2260 1200L2260 1200Q2260 997 2187 822.5 2114 648 1983 517 1852 386 1677.5 313 1503 240 1300 240L1300 240Q1098 240 923 313 748 386 617.5 517 487 648 413.5 822.5 340 997 340 1200L340 1200Q340 1403 413 1577.5 486 1752 617 1883 748 2014 922.5 2087 1097 2160 1300 2160ZM1652 1130L1652 1130Q1600 1130 1563 1086 1526 1042 1526 980L1526 980Q1526 918 1563 873.5 1600 829 1652 829L1652 829Q1704 829 1741 873.5 1778 918 1778 980L1778 980Q1778 1041 1741 1085.5 1704 1130 1652 1130Z"/>
</svg>