<svg xmlns="http://www.w3.org/2000/svg"
    viewBox="0 0 2600 2400">
  <!--
Copyright 2013 Google LLC
Noto is a trademark of Google Inc.
This Font Software is licensed under the SIL Open Font License, Version 1.1. This Font Software is distributed on an "AS IS" BASIS, WITHOUT WARRANTIES OR CONDITIONS OF ANY KIND, either express or implied. See the SIL Open Font License for the specific language, permissions and limitations governing your use of this Font Software.
http://scripts.sil.org/OFL
  -->
<path d="M341 1171L260 1197Q260 984 341 796.5 422 609 565 465.5 708 322 896.5 241 1085 160 1300 160L1300 160Q1515 160 1703.5 241 1892 322 2035 465.5 2178 609 2259 796.5 2340 984 2340 1197L2340 1197 2259 1171Q2259 993 2185.5 826.5 2112 660 1980.5 527.5 1849 395 1675 317.5 1501 240 1300 240L1300 240Q1099 240 925 317.5 751 395 619.5 527.5 488 660 414.5 826.5 341 993 341 1171L341 1171ZM268 1595L268 1595Q337 1595 377 1542 417 1489 446 1357L446 1357Q459 1299 470 1260.5 481 1222 494 1188L494 1188Q324 1208 228.5 1278.5 133 1349 133 1455L133 1455Q133 1521 168.5 1558 204 1595 268 1595ZM266 1668L266 1668Q171 1668 115.5 1611.5 60 1555 60 1458L60 1458Q60 1301 199.5 1211 339 1121 598 1110L598 1110Q570 1177 552 1233.5 534 1290 515 1370L515 1370Q478 1530 420 1599 362 1668 266 1668ZM1300 2240L1300 2240Q1085 2240 896.5 2159 708 2078 565 1935.5 422 1793 342 1607L342 1607 415 1572Q488 1745 620 1877.5 752 2010 926.5 2085 1101 2160 1300 2160L1300 2160Q1500 2160 1674 2085 1848 2010 1980.5 1877.5 2113 1745 2185 1572L2185 1572 2258 1607Q2179 1793 2035.5 1935.5 1892 2078 1703.5 2159 1515 2240 1300 2240ZM715 1069L715 1069 662 1023Q751 888 888 888L888 888Q1024 888 1115 1023L1115 1023 1062 1069Q992 963 888 963L888 963Q786 963 715 1069ZM601 875L601 875 540 842Q632 672 857 605L857 605 881 671Q780 701 711.5 751 643 801 601 875ZM1538 1069L1538 1069 1485 1023Q1576 888 1712 888L1712 888Q1849 888 1938 1023L1938 1023 1885 1069Q1814 963 1712 963L1712 963Q1608 963 1538 1069ZM2334 1668L2334 1668Q2238 1668 2180.5 1599 2123 1530 2085 1370L2085 1370Q2066 1290 2048 1233.5 2030 1177 2002 1110L2002 1110Q2262 1121 2401 1211 2540 1301 2540 1458L2540 1458Q2540 1555 2484.5 1611.5 2429 1668 2334 1668ZM2332 1595L2332 1595Q2396 1595 2431.5 1558 2467 1521 2467 1455L2467 1455Q2467 1349 2371.5 1278.5 2276 1208 2106 1188L2106 1188Q2119 1222 2130 1260.5 2141 1299 2154 1357L2154 1357Q2183 1489 2223 1542 2263 1595 2332 1595ZM2060 842L1999 875Q1957 801 1888.5 751 1820 701 1719 671L1719 671 1743 605Q1968 672 2060 842L2060 842ZM1300 1843L1300 1843Q1436 1843 1556 1797L1556 1797Q1426 1726 1300 1726L1300 1726Q1174 1726 1044 1797L1044 1797Q1164 1843 1300 1843ZM1300 1898L1300 1898Q1175 1898 1053.5 1858 932 1818 833.5 1751 735 1684 676 1601.5 617 1519 617 1435L617 1435Q617 1394 635 1376.5 653 1359 684 1359L684 1359Q707 1359 735 1363.5 763 1368 799 1376L799 1376Q895 1398 1028.5 1414 1162 1430 1300 1430L1300 1430Q1438 1430 1571.5 1414 1705 1398 1802 1376L1802 1376Q1838 1368 1866 1363.5 1894 1359 1916 1359L1916 1359Q1948 1359 1966 1376.5 1984 1394 1984 1435L1984 1435Q1984 1519 1925 1601.5 1866 1684 1767 1751 1668 1818 1546.5 1858 1425 1898 1300 1898ZM1300 1565L1300 1565Q1394 1565 1501 1557.5 1608 1550 1715 1533.5 1822 1517 1915 1492L1915 1492 1915 1437Q1915 1423 1905.5 1419.5 1896 1416 1883 1419L1883 1419Q1803 1438 1701 1453 1599 1468 1494.5 1476.5 1390 1485 1300 1485L1300 1485Q1211 1485 1106 1476.5 1001 1468 899.5 1453 798 1438 717 1419L717 1419Q704 1416 694.5 1419.5 685 1423 685 1437L685 1437 685 1492Q778 1517 885 1533.5 992 1550 1099.5 1557.5 1207 1565 1300 1565Z"/>
</svg>