<svg xmlns="http://www.w3.org/2000/svg"
    viewBox="0 0 2600 2400">
  <!--
Copyright 2013 Google LLC
Noto is a trademark of Google Inc.
This Font Software is licensed under the SIL Open Font License, Version 1.1. This Font Software is distributed on an "AS IS" BASIS, WITHOUT WARRANTIES OR CONDITIONS OF ANY KIND, either express or implied. See the SIL Open Font License for the specific language, permissions and limitations governing your use of this Font Software.
http://scripts.sil.org/OFL
  -->
<path d="M1300 2240L1300 2240Q1093 2240 918.5 2168 744 2096 615.5 1966.5 487 1837 416 1662.5 345 1488 345 1284L345 1284Q345 1080 416 906 487 732 615.5 602.5 744 473 918.5 401 1093 329 1300 329L1300 329Q1507 329 1681.5 401 1856 473 1984.5 602.5 2113 732 2184 906.5 2255 1081 2255 1285L2255 1285Q2255 1489 2184 1663 2113 1837 1984.5 1966.5 1856 2096 1681.5 2168 1507 2240 1300 2240ZM1300 1755L1300 1755Q1079 1755 884 1623L884 1623 930 1559Q1103 1677 1300 1677L1300 1677Q1497 1677 1670 1559L1670 1559 1716 1623Q1521 1755 1300 1755ZM810 1217L810 1217 754 1170Q796 1111 850 1079 904 1047 962 1047L962 1047Q1082 1047 1169 1170L1169 1170 1115 1217Q1051 1125 962 1125L962 1125Q874 1125 810 1217ZM1300 2160L1300 2160Q1489 2160 1648.5 2095 1808 2030 1926.5 1911.5 2045 1793 2110 1633.5 2175 1474 2175 1285L2175 1285Q2175 1096 2110 936 2045 776 1927 658 1809 540 1649 474.5 1489 409 1300 409L1300 409Q1111 409 951.5 474 792 539 673.5 657.5 555 776 490 935.5 425 1095 425 1284L425 1284Q425 1473 490 1633 555 1793 673 1911 791 2029 951 2094.5 1111 2160 1300 2160ZM1486 1217L1486 1217 1430 1170Q1519 1047 1638 1047L1638 1047Q1696 1047 1750 1079 1804 1111 1845 1170L1845 1170 1791 1217Q1727 1125 1638 1125L1638 1125Q1549 1125 1486 1217ZM1300 805L1300 805Q1102 805 925.5 778.5 749 752 614 705.5 479 659 402 598.5 325 538 325 470L325 470Q325 404 398 349.5 471 295 602.5 254.5 734 214 912 192 1090 170 1300 170L1300 170Q1510 170 1688.5 192 1867 214 1998.5 254.5 2130 295 2203 349.5 2276 404 2276 470L2276 470Q2276 538 2199 598.5 2122 659 1986.5 705.5 1851 752 1674.5 778.5 1498 805 1300 805ZM1300 631L1300 631Q1525 631 1691.5 609.5 1858 588 1950 548.5 2042 509 2042 457L2042 457Q2042 416 1982.5 379.5 1923 343 1819 314.5 1715 286 1581.5 269.5 1448 253 1300 253L1300 253Q1152 253 1018.5 269.5 885 286 781.5 314.5 678 343 618.5 379.5 559 416 559 457L559 457Q559 509 650.5 548.5 742 588 909 609.5 1076 631 1300 631Z"/>
</svg>