<svg xmlns="http://www.w3.org/2000/svg"
    viewBox="0 0 2600 2400">
  <!--
Copyright 2013 Google LLC
Noto is a trademark of Google Inc.
This Font Software is licensed under the SIL Open Font License, Version 1.1. This Font Software is distributed on an "AS IS" BASIS, WITHOUT WARRANTIES OR CONDITIONS OF ANY KIND, either express or implied. See the SIL Open Font License for the specific language, permissions and limitations governing your use of this Font Software.
http://scripts.sil.org/OFL
  -->
<path d="M1300 2240L1300 2240Q1084 2240 895.5 2159.5 707 2079 564 1936 421 1793 340.5 1604.5 260 1416 260 1200L260 1200Q260 984 340.5 795.5 421 607 564 464 707 321 895.5 240.5 1084 160 1300 160L1300 160Q1515 160 1703.5 240.5 1892 321 2035 464 2178 607 2259 795.5 2340 984 2340 1200L2340 1200Q2340 1416 2259 1604.5 2178 1793 2035 1936 1892 2079 1703.5 2159.5 1515 2240 1300 2240ZM1814 1625L786 1625 786 1545 1814 1545 1814 1625ZM1116 1091L746 1091 746 1011 1116 1011 1116 1091ZM1300 2160L1300 2160Q1499 2160 1673 2085.5 1847 2011 1979 1879 2111 1747 2185.5 1573 2260 1399 2260 1200L2260 1200Q2260 1001 2185.5 827 2111 653 1979 521 1847 389 1673 314.5 1499 240 1300 240L1300 240Q1101 240 927 314.5 753 389 621 521 489 653 414.5 827 340 1001 340 1200L340 1200Q340 1399 414.5 1573 489 1747 621 1879 753 2011 927 2085.5 1101 2160 1300 2160ZM1854 1091L1484 1091 1484 1011 1854 1011 1854 1091ZM2240 675L2240 675Z"/>
</svg>