<svg xmlns="http://www.w3.org/2000/svg"
    viewBox="0 0 2600 2400">
  <!--
Copyright 2013 Google LLC
Noto is a trademark of Google Inc.
This Font Software is licensed under the SIL Open Font License, Version 1.1. This Font Software is distributed on an "AS IS" BASIS, WITHOUT WARRANTIES OR CONDITIONS OF ANY KIND, either express or implied. See the SIL Open Font License for the specific language, permissions and limitations governing your use of this Font Software.
http://scripts.sil.org/OFL
  -->
<path d="M886 1883L886 1883Q838 1883 804 1850 770 1817 770 1754L770 1754Q770 1617 839.5 1511 909 1405 1029 1345 1149 1285 1300 1285L1300 1285Q1451 1285 1571 1345 1691 1405 1761 1511 1831 1617 1831 1754L1831 1754Q1831 1817 1796.5 1850 1762 1883 1714 1883L1714 1883Q1669 1883 1603 1857.5 1537 1832 1459.5 1807 1382 1782 1300 1782L1300 1782Q1219 1782 1141 1807 1063 1832 997 1857.5 931 1883 886 1883ZM894 1534L894 1534 1704 1534Q1642 1444 1536 1394.5 1430 1345 1300 1345L1300 1345Q1169 1345 1062.5 1394.5 956 1444 894 1534ZM778 1236L778 1236 734 1182Q859 1070 1008 1022L1008 1022Q935 985 858.5 960.5 782 936 702 926L702 926 711 857Q929 886 1135 1012L1135 1012 1123 1068Q936 1096 778 1236ZM743 711L743 711 731 642Q847 622 920.5 586 994 550 1042 489L1042 489 1097 532Q1041 603 956 646 871 689 743 711ZM1866 1182L1822 1236Q1664 1096 1477 1068L1477 1068 1466 1012Q1572 948 1677.5 909.5 1783 871 1889 857L1889 857 1899 926Q1817 937 1740 961.5 1663 986 1592 1022L1592 1022Q1744 1071 1866 1182L1866 1182ZM1869 642L1857 711Q1730 689 1645 646 1560 603 1504 532L1504 532 1559 489Q1606 550 1679.5 586 1753 622 1869 642L1869 642ZM1300 2240L1300 2240Q1084 2240 895.5 2159.5 707 2079 564 1936 421 1793 340.5 1604.5 260 1416 260 1200L260 1200Q260 984 340.5 795.5 421 607 564 464 707 321 895.5 240.5 1084 160 1300 160L1300 160Q1515 160 1703.5 240.5 1892 321 2035 464 2178 607 2259 795.5 2340 984 2340 1200L2340 1200Q2340 1416 2259 1604.5 2178 1793 2035 1936 1892 2079 1703.5 2159.5 1515 2240 1300 2240ZM1300 2160L1300 2160Q1499 2160 1673 2085.5 1847 2011 1979 1879 2111 1747 2185.5 1573 2260 1399 2260 1200L2260 1200Q2260 1001 2185.5 827 2111 653 1979 521 1847 389 1673 314.5 1499 240 1300 240L1300 240Q1101 240 927 314.5 753 389 621 521 489 653 414.5 827 340 1001 340 1200L340 1200Q340 1399 414.5 1573 489 1747 621 1879 753 2011 927 2085.5 1101 2160 1300 2160Z"/>
</svg>