<svg xmlns="http://www.w3.org/2000/svg"
    viewBox="0 0 2600 2400">
  <!--
Copyright 2013 Google LLC
Noto is a trademark of Google Inc.
This Font Software is licensed under the SIL Open Font License, Version 1.1. This Font Software is distributed on an "AS IS" BASIS, WITHOUT WARRANTIES OR CONDITIONS OF ANY KIND, either express or implied. See the SIL Open Font License for the specific language, permissions and limitations governing your use of this Font Software.
http://scripts.sil.org/OFL
  -->
<path d="M1300 2240L1300 2240Q1084 2240 895.5 2159.5 707 2079 564 1936 421 1793 340.5 1604.5 260 1416 260 1200L260 1200Q260 984 340.5 795.5 421 607 564 464 707 321 895.5 240.5 1084 160 1300 160L1300 160Q1515 160 1703.5 240.5 1892 321 2035 464 2178 607 2259 795.5 2340 984 2340 1200L2340 1200Q2340 1416 2259 1604.5 2178 1793 2035 1936 1892 2079 1703.5 2159.5 1515 2240 1300 2240ZM636 1666L636 1666Q614 1655 624 1632L624 1632 680 1518Q690 1494 713 1505L713 1505Q737 1516 725 1538L725 1538 670 1653Q658 1676 636 1666ZM746 1694L746 1694Q737 1689 733 1679.5 729 1670 734 1660L734 1660 816 1490Q828 1466 849 1477L849 1477Q859 1481 863 1490.5 867 1500 862 1510L862 1510 779 1681Q768 1704 746 1694ZM882 1666L882 1666Q860 1655 870 1632L870 1632 926 1518Q936 1494 959 1505L959 1505Q983 1516 971 1538L971 1538 916 1653Q904 1676 882 1666ZM1472 1847L1128 1847 1128 1767 1472 1767 1472 1847ZM831 1427L831 1427Q749 1427 681 1386.5 613 1346 572.5 1278 532 1210 532 1128L532 1128Q532 1045 572.5 977 613 909 681 869 749 829 831 829L831 829Q914 829 982 869 1050 909 1090 977 1130 1045 1130 1128L1130 1128Q1130 1210 1090 1278 1050 1346 982 1386.5 914 1427 831 1427ZM831 1367L831 1367Q898 1367 952 1334.5 1006 1302 1038 1248 1070 1194 1070 1128L1070 1128Q1070 1061 1038 1007 1006 953 952 921 898 889 831 889L831 889Q765 889 711 921 657 953 624.5 1007 592 1061 592 1128L592 1128Q592 1194 624.5 1248 657 1302 711 1334.5 765 1367 831 1367ZM831 1231L831 1231Q788 1231 758 1201 728 1171 728 1128L728 1128Q728 1085 758 1054.5 788 1024 831 1024L831 1024Q874 1024 904.5 1054.5 935 1085 935 1128L935 1128Q935 1171 904.5 1201 874 1231 831 1231ZM1641 1666L1641 1666Q1619 1655 1629 1632L1629 1632 1685 1518Q1695 1494 1718 1505L1718 1505Q1742 1516 1730 1538L1730 1538 1675 1653Q1663 1676 1641 1666ZM1300 2160L1300 2160Q1499 2160 1673 2085.5 1847 2011 1979 1879 2111 1747 2185.5 1573 2260 1399 2260 1200L2260 1200Q2260 1001 2185.5 827 2111 653 1979 521 1847 389 1673 314.5 1499 240 1300 240L1300 240Q1101 240 927 314.5 753 389 621 521 489 653 414.5 827 340 1001 340 1200L340 1200Q340 1399 414.5 1573 489 1747 621 1879 753 2011 927 2085.5 1101 2160 1300 2160ZM1751 1694L1751 1694Q1742 1689 1738 1679.5 1734 1670 1739 1660L1739 1660 1821 1490Q1833 1466 1854 1477L1854 1477Q1864 1481 1868 1490.5 1872 1500 1867 1510L1867 1510 1784 1681Q1773 1704 1751 1694ZM695 643L695 643 664 581Q708 558 755.5 548 803 538 856 538L856 538Q903 538 953.5 546 1004 554 1059 568L1059 568 1041 636Q992 622 945.5 615 899 608 857 608L857 608Q811 608 771 616.5 731 625 695 643ZM1887 1666L1887 1666Q1865 1655 1875 1632L1875 1632 1931 1518Q1941 1494 1964 1505L1964 1505Q1988 1516 1976 1538L1976 1538 1921 1653Q1909 1676 1887 1666ZM1769 1427L1769 1427Q1687 1427 1619 1386.5 1551 1346 1510.5 1278 1470 1210 1470 1128L1470 1128Q1470 1045 1510.5 977 1551 909 1619 869 1687 829 1769 829L1769 829Q1852 829 1920 869 1988 909 2028 977 2068 1045 2068 1128L2068 1128Q2068 1210 2028 1278 1988 1346 1920 1386.5 1852 1427 1769 1427ZM1769 1367L1769 1367Q1836 1367 1890 1334.5 1944 1302 1976 1248 2008 1194 2008 1128L2008 1128Q2008 1061 1976 1007 1944 953 1890 921 1836 889 1769 889L1769 889Q1703 889 1648.5 921 1594 953 1562 1007 1530 1061 1530 1128L1530 1128Q1530 1194 1562 1248 1594 1302 1648.5 1334.5 1703 1367 1769 1367ZM1769 1231L1769 1231Q1726 1231 1696 1201 1666 1171 1666 1128L1666 1128Q1666 1085 1696 1054.5 1726 1024 1769 1024L1769 1024Q1812 1024 1842.5 1054.5 1873 1085 1873 1128L1873 1128Q1873 1171 1842.5 1201 1812 1231 1769 1231ZM1936 581L1905 643Q1869 625 1829.5 616.5 1790 608 1744 608L1744 608Q1701 608 1655 615 1609 622 1559 636L1559 636 1541 568Q1596 554 1647 546 1698 538 1744 538L1744 538Q1797 538 1845 548 1893 558 1936 581L1936 581Z"/>
</svg>