<svg xmlns="http://www.w3.org/2000/svg"
    viewBox="0 0 2600 2400">
  <!--
Copyright 2013 Google LLC
Noto is a trademark of Google Inc.
This Font Software is licensed under the SIL Open Font License, Version 1.1. This Font Software is distributed on an "AS IS" BASIS, WITHOUT WARRANTIES OR CONDITIONS OF ANY KIND, either express or implied. See the SIL Open Font License for the specific language, permissions and limitations governing your use of this Font Software.
http://scripts.sil.org/OFL
  -->
<path d="M2376 1790L2376 1790Q1690 1790 1204 1684 718 1578 435 1384 152 1190 74 927L74 927Q244 859 424.5 823 605 787 776 787L776 787 902 787 952 867 776 867Q628 867 475.5 894 323 921 176 974L176 974Q277 1207 563.5 1372 850 1537 1297 1623.5 1744 1710 2325 1710L2325 1710Q2356 1710 2363 1682L2363 1682 2442 1316 2427 1273 1931 905Q1780 895 1665 889 1550 883 1453 879L1453 879 1385 799Q1532 803 1675 810.5 1818 818 1959 827L1959 827 2493 1223 2526 1307 2431 1745Q2421 1790 2376 1790ZM2484 1470L2460 1569Q2206 1569 2009 1562 1812 1555 1659 1540.5 1506 1526 1383 1503L1383 1503 1493 1419Q1215 1397 997.5 1361 780 1325 611 1278 442 1231 308 1177L308 1177 240 1103Q538 1203 905 1272 1272 1341 1725 1363L1725 1363 1582 1453Q1778 1465 1959.5 1469 2141 1473 2310 1473L2310 1473Q2354 1473 2397.5 1472 2441 1471 2484 1470L2484 1470ZM2447 1269L2447 1339Q2094 1316 1811.5 1290.5 1529 1265 1299 1236.5 1069 1208 875 1175.5 681 1143 506 1104.5 331 1066 156 1021L156 1021 176 955Q349 1000 523 1038 697 1076 890 1108 1083 1140 1311 1168.5 1539 1197 1818.5 1221.5 2098 1246 2447 1269L2447 1269ZM1602 1044L1543 1095Q1288 1044 1113.5 965.5 939 887 868 787L868 787 1130 610Q1254 640 1359.5 709 1465 778 1531 866.5 1597 955 1602 1044L1602 1044ZM1515 1009L1515 1009Q1498 947 1444 885.5 1390 824 1312 774 1234 724 1144 697L1144 697 990 801Q1065 862 1198.5 915.5 1332 969 1515 1009ZM1828 987L2021 1124 1543 1095 1515 972 1828 987ZM2366 1142L2366 1142 2145 1053 2170 854Q2181 770 2312 770L2312 770Q2389 770 2433.5 799 2478 828 2473 878L2473 878 2455 1046Q2449 1103 2423.5 1129 2398 1155 2366 1142Z"/>
</svg>