<svg xmlns="http://www.w3.org/2000/svg"
    viewBox="0 0 2600 2400">
  <!--
Copyright 2013, 2022 Google Inc. All Rights Reserved.
Noto is a trademark of Google Inc.
This Font Software is licensed under the SIL Open Font License, Version 1.1. This Font Software is distributed on an "AS IS" BASIS, WITHOUT WARRANTIES OR CONDITIONS OF ANY KIND, either express or implied. See the SIL Open Font License for the specific language, permissions and limitations governing your use of this Font Software.
http://scripts.sil.org/OFL
  -->
<path d="M1705 1310L614 1310 614 1090 1705 1090 1705 1310ZM2005 1310L1808 1310 1808 1090 2005 1090 2005 1310ZM1810 1000L1810 1000 1810 975Q1875 947 1903.5 902 1932 857 1938.5 785.5 1945 714 1945 610L1945 610Q1945 527 1955 455 1965 383 1997 326 2029 269 2094 231 2159 193 2270 180L2270 180 2270 205Q2204 225 2176 269 2148 313 2142 391.5 2136 470 2136 593L2136 593Q2136 656 2126 718 2116 780 2083.5 835 2051 890 1986 932.5 1921 975 1810 1000ZM1300 2240L1300 2240Q1088 2240 901.5 2159 715 2078 573 1934.5 431 1791 350.5 1602.5 270 1414 270 1200L270 1200Q270 986 350.5 797.5 431 609 573 465.5 715 322 901.5 241 1088 160 1300 160L1300 160Q1512 160 1698.5 241 1885 322 2027 465.5 2169 609 2249.5 797.5 2330 986 2330 1200L2330 1200Q2330 1414 2249.5 1602.5 2169 1791 2027 1934.5 1885 2078 1698.5 2159 1512 2240 1300 2240ZM1300 2160L1300 2160Q1496 2160 1668 2085 1840 2010 1971 1877.5 2102 1745 2176 1571.5 2250 1398 2250 1200L2250 1200Q2250 1002 2176 828.5 2102 655 1971 522.5 1840 390 1668 315 1496 240 1300 240L1300 240Q1104 240 932 315 760 390 629 522.5 498 655 424 828.5 350 1002 350 1200L350 1200Q350 1398 424 1571.5 498 1745 629 1877.5 760 2010 932 2085 1104 2160 1300 2160ZM2033 1878L1984 1927 567 522 616 473 2033 1878Z"/>
</svg>