<svg xmlns="http://www.w3.org/2000/svg"
    viewBox="0 0 2600 2400">
  <!--
Copyright 2013 Google LLC
Noto is a trademark of Google Inc.
This Font Software is licensed under the SIL Open Font License, Version 1.1. This Font Software is distributed on an "AS IS" BASIS, WITHOUT WARRANTIES OR CONDITIONS OF ANY KIND, either express or implied. See the SIL Open Font License for the specific language, permissions and limitations governing your use of this Font Software.
http://scripts.sil.org/OFL
  -->
<path d="M402 1718L402 1718Q406 1604 450.5 1526.5 495 1449 596.5 1394 698 1339 871 1295L871 1295Q996 1263 1041.5 1237.5 1087 1212 1087 1181L1087 1181Q1087 1162 1065.5 1142 1044 1122 994 1106.5 944 1091 859 1085L859 1085Q743 1077 633 1046.5 523 1016 435.5 955.5 348 895 296.5 796 245 697 245 551L245 551Q245 437 292 339 339 241 455 160L455 160Q457 305 516 389 575 473 718.5 509 862 545 1117 545L1117 545Q1504 545 1703.5 650 1903 755 1903 968L1903 968Q1903 1094 1850 1183.5 1797 1273 1706.5 1334 1616 1395 1502.5 1435 1389 1475 1266 1500.5 1143 1526 1026 1546L1026 1546Q817 1581 655 1618.5 493 1656 402 1718ZM373 2064L416 2094 443 2058 431 2017 379 2023 373 2064ZM379 1907L389 1952 442 1943 452 1903 407 1876 379 1907ZM479 1987L521 1990 551 1956 512 1922 474 1937 479 1987ZM2240 2240L551 2240 551 2160 2210 2160Q2275 2101 2275 2005L2275 2005Q2275 1909 2210 1850L2210 1850 551 1850 551 1770 2240 1770Q2355 1861 2355 2005L2355 2005Q2355 2149 2240 2240L2240 2240ZM2247 2195L1831 2195Q1884 2139 1903 2096.5 1922 2054 1922 2005L1922 2005Q1922 1955 1903 1913 1884 1871 1831 1815L1831 1815 2247 1815Q2311 1894 2311 2005L2311 2005Q2311 2116 2247 2195L2247 2195ZM474 1618L474 1618Q516 1594 600 1569.5 684 1545 791.5 1521.5 899 1498 1012 1479L1012 1479Q1131 1459 1249.5 1435 1368 1411 1473.5 1375.5 1579 1340 1661 1287 1743 1234 1790 1156 1837 1078 1837 968L1837 968Q1837 612 1117 612L1117 612Q1003 612 886 605.5 769 599 668.5 571 568 543 501.5 479 435 415 420 301L420 301 392 301Q352 342 331.5 408 311 474 311 551L311 551Q311 683 359 768.5 407 854 486.5 904 566 954 663 978.5 760 1003 858 1013L858 1013Q1115 1038 1252 1095 1389 1152 1389 1258L1389 1258Q1389 1353 1275 1420.5 1161 1488 895 1554L895 1554 880 1505Q1108 1449 1215.5 1385.5 1323 1322 1323 1258L1323 1258Q1323 1204 1260.5 1168 1198 1132 1089 1111L1089 1111 1092 1093Q1126 1111 1139.5 1133 1153 1155 1153 1181L1153 1181Q1153 1227 1118.5 1260 1084 1293 1022.5 1317.5 961 1342 879 1364L879 1364Q740 1401 662 1435.5 584 1470 543 1512.5 502 1555 474 1618ZM1524 1393L1524 1393 1507 1364Q1581 1323 1625 1257 1669 1191 1669 1133L1669 1133Q1669 1018 1521.5 945 1374 872 1068 833L1068 833Q806 799 655 734.5 504 670 441 558.5 378 447 378 273L378 273 444 273Q444 428 499 525.5 554 623 692 679 830 735 1076 766L1076 766Q1412 808 1573.5 897 1735 986 1735 1133L1735 1133Q1735 1206 1678 1273 1621 1340 1524 1393ZM551 2240L551 2240Q523 2240 512 2233.5 501 2227 455 2212L455 2212Q433 2204 411 2201 389 2198 366 2194L366 2194Q326 2188 326 2143L326 2143Q326 2135 322.5 2120.5 319 2106 304 2086L304 2086Q293 2071 286 2054.5 279 2038 279 2008L279 2008Q279 1991 288.5 1975.5 298 1960 298 1947L298 1947Q298 1939 296 1928.5 294 1918 294 1903L294 1903Q294 1872 328 1853L328 1853Q348 1842 360 1831.5 372 1821 382 1806L382 1806Q390 1795 407 1789.5 424 1784 441 1784L441 1784Q450 1784 457.5 1785 465 1786 480 1786L480 1786Q505 1786 510.5 1778 516 1770 551 1770L551 1770Q599 1770 639.5 1783 680 1796 680 1829L680 1829Q680 1836 678.5 1842 677 1848 677 1853L677 1853Q677 1878 720 1900L720 1900Q737 1908 751 1930 765 1952 765 1979L765 1979Q765 1989 762 2000 759 2011 749 2024L749 2024Q736 2041 719.5 2049 703 2057 703 2082L703 2082Q703 2110 699.5 2125.5 696 2141 682 2159L682 2159Q657 2191 635 2215.5 613 2240 551 2240Z"/>
</svg>