<svg xmlns="http://www.w3.org/2000/svg"
    viewBox="0 0 2600 2400">
  <!--
Copyright 2013 Google LLC
Noto is a trademark of Google Inc.
This Font Software is licensed under the SIL Open Font License, Version 1.1. This Font Software is distributed on an "AS IS" BASIS, WITHOUT WARRANTIES OR CONDITIONS OF ANY KIND, either express or implied. See the SIL Open Font License for the specific language, permissions and limitations governing your use of this Font Software.
http://scripts.sil.org/OFL
  -->
<path d="M2175 2240L426 2240Q358 2240 309 2191.5 260 2143 260 2076L260 2076 260 325Q260 257 309 208.5 358 160 425 160L425 160 2175 160Q2243 160 2291.5 208.5 2340 257 2340 325L2340 325 2340 2075Q2340 2142 2291.5 2191 2243 2240 2175 2240L2175 2240ZM457 1337L606 1996 1056 1996 1204 1337 1143 1337 1121 1439 541 1439 518 1337 457 1337ZM1065 1686L597 1686 554 1499 1108 1499 1065 1686ZM763 1117L763 1176 900 1176 900 1120Q900 1051 948.5 1002.5 997 954 1066 954L1066 954 1217 954Q1237 1034 1302 1084 1367 1134 1449 1134L1449 1134Q1531 1134 1595.5 1083.5 1660 1033 1679 954L1679 954 1891 954 1891 1062 2014 1097 2014 673 1891 708 1891 817 1673 817Q1654 761 1613 721 1572 681 1517 665L1517 665 1517 526 1728 526 1728 556Q1728 574 1740 585.5 1752 597 1770 597L1770 597Q1788 597 1800 585.5 1812 574 1812 556L1812 556 1812 393Q1812 375 1800 363.5 1788 352 1770 352L1770 352Q1752 352 1740 363.5 1728 375 1728 393L1728 393 1728 423 1517 423 1517 316 1381 316 1381 423 1170 423 1170 393Q1170 375 1158 363.5 1146 352 1128 352L1128 352Q1110 352 1098 363.5 1086 375 1086 393L1086 393 1086 556Q1086 574 1098 585.5 1110 597 1128 597L1128 597Q1146 597 1158 585.5 1170 574 1170 556L1170 556 1170 526 1381 526 1381 665Q1264 700 1222 817L1222 817 1066 817Q983 817 914 857.5 845 898 804 966 763 1034 763 1117L763 1117Z"/>
</svg>