<svg xmlns="http://www.w3.org/2000/svg"
    viewBox="0 0 2600 2400">
  <!--
Copyright 2013 Google LLC
Noto is a trademark of Google Inc.
This Font Software is licensed under the SIL Open Font License, Version 1.1. This Font Software is distributed on an "AS IS" BASIS, WITHOUT WARRANTIES OR CONDITIONS OF ANY KIND, either express or implied. See the SIL Open Font License for the specific language, permissions and limitations governing your use of this Font Software.
http://scripts.sil.org/OFL
  -->
<path d="M459 1990L155 1990 155 410 444 410 798 566 798 807Q884 815 959.5 856.5 1035 898 1084 964L1084 964Q1134 950 1188 950L1188 950 2070 950Q2244 950 2344.5 1082 2445 1214 2445 1457L2445 1457 2445 1990 2144 1990 2047 1717 556 1717 459 1990ZM475 1197L475 1391 816 1391Q821 1335 831 1286.5 841 1238 856 1197L856 1197 475 1197ZM574 1124L545 1157Q507 1140 482 1121.5 457 1103 440 1082L440 1082 474 1040 474 1133 574 1124ZM764 1117L764 1117 893 1117Q938 1039 1008 998L1008 998Q963 945 897 915 831 885 758 885L758 885Q675 885 604.5 918.5 534 952 487 1014L487 1014Q513 1060 588.5 1088.5 664 1117 764 1117ZM898 1391L898 1391 1115 1391Q1120 1269 1160 1177 1200 1085 1268 1030L1268 1030 1188 1030Q1061 1030 988 1121.5 915 1213 898 1391ZM475 512L475 911Q578 817 718 807L718 807 718 618 475 512ZM235 490L235 1910 395 1910 395 1631 2208 1631 2208 1910 2365 1910 2365 1471 395 1471 395 490 235 490ZM1199 1391L1199 1391 2360 1391Q2344 1214 2271 1122 2198 1030 2070 1030L2070 1030 1477 1030Q1395 1030 1336.5 1074 1278 1118 1243.5 1199 1209 1280 1199 1391Z"/>
</svg>