<svg xmlns="http://www.w3.org/2000/svg"
    viewBox="0 0 2600 2400">
  <!--
Copyright 2013 Google LLC
Noto is a trademark of Google Inc.
This Font Software is licensed under the SIL Open Font License, Version 1.1. This Font Software is distributed on an "AS IS" BASIS, WITHOUT WARRANTIES OR CONDITIONS OF ANY KIND, either express or implied. See the SIL Open Font License for the specific language, permissions and limitations governing your use of this Font Software.
http://scripts.sil.org/OFL
  -->
<path d="M999 1151L999 1151Q948 1151 886 1149.5 824 1148 739 1140.5 654 1133 532 1116L532 1116 532 1022Q626 945 764 852 902 759 1062.5 662 1223 565 1387 475.5 1551 386 1699 314.5 1847 243 1960 201.5 2073 160 2129 160L2129 160Q2177 160 2221 175.5 2265 191 2299 230L2299 230Q2374 230 2413.5 259.5 2453 289 2453 340L2453 340Q2453 387 2394.5 453.5 2336 520 2235.5 597 2135 674 2007.5 752 1880 830 1740 901.5 1600 973 1462.5 1029.5 1325 1086 1205 1118.5 1085 1151 999 1151ZM848 1817L980 1850 1121 1808 996 1780 848 1817ZM1063 1875L1204 1910 1338 1861 1199 1831 1063 1875ZM2270 1947L1559 2240 376 1897 1121 1693 2270 1947ZM532 1116L532 1116 303 1085Q286 1083 274 1077 262 1071 262 1061L262 1061Q262 1037 297 1032L297 1032 726 980Q737 978 745 988.5 753 999 753 1013L753 1013Q753 1026 738 1048.5 723 1071 676 1090.5 629 1110 532 1116ZM1279 1936L1414 1971 1559 1916 1410 1885 1279 1936ZM1276 2091L1583 2180 2133 1961 1793 1891 1696 1927 1916 1981 1824 2018 1612 1960 1503 2002 1714 2061 1610 2102 1393 2045 1276 2091ZM912 841L703 962 506 585 581 533 912 841ZM930 988L930 988Q907 988 907 957L907 957Q907 926 930 926L930 926Q952 926 952 957L952 957Q952 988 930 988ZM1246 1017L1246 1017Q1192 1017 1162.5 989.5 1133 962 1133 916L1133 916Q1133 896 1140 881L1140 881 1129 881Q977 881 853 879 729 877 618 873.5 507 870 395 864 283 858 155 850L155 850Q100 847 100 781L100 781Q100 765 102.5 733.5 105 702 108 683L108 683 132 680 191 771Q411 747 658.5 725.5 906 704 1157 690.5 1408 677 1638 677L1638 677Q1671 677 1671 696L1671 696Q1671 708 1655 718L1655 718 1485 820Q1488 835 1488 850L1488 850Q1488 892 1453.5 930.5 1419 969 1364 993 1309 1017 1246 1017ZM1393 898L1393 898Q1411 898 1424 884 1437 870 1437 848L1437 848Q1437 812 1414 782 1391 752 1364 752L1364 752Q1345 752 1332 766 1319 780 1319 801L1319 801Q1319 838 1342.5 868 1366 898 1393 898ZM999 1073L999 1073Q1071 1073 1180.5 1042 1290 1011 1419 958 1548 905 1681.5 838.5 1815 772 1938.5 700 2062 628 2160 559 2258 490 2315.5 432.5 2373 375 2373 338L2373 338Q2373 319 2356 304 2339 289 2288 289L2288 289Q2278 289 2267.5 289.5 2257 290 2245 292L2245 292Q2234 265 2201.5 251.5 2169 238 2129 238L2129 238Q2084 238 1984.5 275.5 1885 313 1750.5 377.5 1616 442 1463.5 524.5 1311 607 1157.5 698 1004 789 866 879.5 728 970 625 1050L625 1050Q763 1066 847 1069.5 931 1073 999 1073ZM1550 636L1550 636Q1527 636 1527 605L1527 605Q1527 574 1550 574L1550 574Q1572 574 1572 605L1572 605Q1572 636 1550 636ZM1680 565L1680 565Q1657 565 1657 534L1657 534Q1657 503 1680 503L1680 503Q1702 503 1702 534L1702 534Q1702 565 1680 565ZM1800 505L1800 505Q1777 505 1777 474L1777 474Q1777 443 1800 443L1800 443Q1822 443 1822 474L1822 474Q1822 505 1800 505ZM2009 955L2009 955Q1955 955 1934.5 922 1914 889 1914 845L1914 845Q1914 832 1919 814L1919 814Q1888 818 1858 821 1828 824 1799 826L1799 826 2007 663 2403 624 2407 561 2448 540 2485 599Q2500 623 2500 642L2500 642Q2500 665 2445.5 688.5 2391 712 2260 749L2260 749Q2264 761 2264 779L2264 779Q2264 820 2220.5 861 2177 902 2117 928.5 2057 955 2009 955ZM2181 830L2181 830Q2227 830 2227 778L2227 778Q2227 742 2204.5 712.5 2182 683 2154 683L2154 683Q2133 683 2120 697 2107 711 2107 734L2107 734Q2107 768 2130.5 799 2154 830 2181 830ZM1920 446L1920 446Q1897 446 1897 415L1897 415Q1897 384 1920 384L1920 384Q1942 384 1942 415L1942 415Q1942 446 1920 446ZM2122 370L2122 370Q2103 386 2085 368L2085 368Q2068 351 2088 333L2088 333Q2129 295 2167.5 274 2206 253 2252 237L2252 237 2267 284Q2224 299 2192 319 2160 339 2122 370Z"/>
</svg>