<svg xmlns="http://www.w3.org/2000/svg"
    viewBox="0 0 2600 2400">
  <!--
Copyright 2013, 2022 Google Inc. All Rights Reserved.
Noto is a trademark of Google Inc.
This Font Software is licensed under the SIL Open Font License, Version 1.1. This Font Software is distributed on an "AS IS" BASIS, WITHOUT WARRANTIES OR CONDITIONS OF ANY KIND, either express or implied. See the SIL Open Font License for the specific language, permissions and limitations governing your use of this Font Software.
http://scripts.sil.org/OFL
  -->
<path d="M407 1354L342 1291 1495 310 2318 518 2318 571 1204 1656 1141 1591 1542 1202Q1472 1216 1407.5 1223.5 1343 1231 1281 1231L1281 1231Q1115 1231 1007.5 1167 900 1103 868 962L868 962 407 1354ZM249 1628L249 1628Q227 1628 207 1618.5 187 1609 174 1592L174 1592Q139 1544 114.5 1484.5 90 1425 90 1387L90 1387Q90 1337 129.5 1301.5 169 1266 217 1266L217 1266Q229 1266 241.5 1269.5 254 1273 267 1279L267 1279 306 1246Q379 1252 412 1297.5 445 1343 445 1426L445 1426 394 1475 397 1491Q404 1527 383.5 1558.5 363 1590 326.5 1609 290 1628 249 1628ZM249 1558L249 1558Q281 1558 309 1537 337 1516 330 1500L330 1500 313 1456 376 1395Q376 1337 326 1321L326 1321 277 1362Q263 1348 246 1342 229 1336 213 1336L213 1336Q188 1336 174 1352 160 1368 160 1387L160 1387Q160 1415 179.5 1465 199 1515 233 1555L233 1555Q238 1558 249 1558ZM499 1747L499 1747Q432 1747 368.5 1702 305 1657 262 1583L262 1583 341 1539Q375 1597 415.5 1627 456 1657 499 1657L499 1657Q535 1657 566 1641.5 597 1626 642 1583L642 1583 1120 1133 1178 1201 697 1655Q641 1708 596.5 1727.5 552 1747 499 1747ZM1024 1943L1024 1943Q1000 1943 977.5 1933.5 955 1924 941 1908L941 1908Q901 1859 872.5 1796 844 1733 844 1693L844 1693Q844 1640 883.5 1599.5 923 1559 976 1559L976 1559Q1001 1559 1030 1572L1030 1572 1070 1535Q1150 1539 1188 1587.5 1226 1636 1226 1717L1226 1717 1171 1776 1175 1794Q1183 1830 1163.5 1864.5 1144 1899 1106.5 1921 1069 1943 1024 1943ZM1026 1863L1026 1863Q1057 1863 1083.5 1841 1110 1819 1103 1804L1103 1804 1083 1758 1151 1686Q1146 1628 1095 1615L1095 1615 1037 1669Q1021 1648 1004.5 1641.5 988 1635 976 1635L976 1635Q950 1635 935 1653 920 1671 920 1693L920 1693Q920 1719 944 1771 968 1823 1002 1858L1002 1858Q1012 1863 1026 1863ZM906 1380L806 1472 861 888 936 1045 906 1380ZM1768 1677L1692 1753 1567 1205 1649 1164 1768 1677ZM1321 2090L1321 2090Q1241 2090 1157.5 2040 1074 1990 1013 1902L1013 1902 1096 1861Q1143 1928 1199 1964 1255 2000 1315 2000L1315 2000Q1365 2000 1412.5 1971.5 1460 1943 1521 1879L1521 1879 2443 907Q2450 900 2464 904 2478 908 2492 922L2492 922Q2523 953 2504 974L2504 974 1565 1963Q1507 2024 1445.5 2057 1384 2090 1321 2090ZM1767 435L997 1127 949 1074 1716 387 1767 435ZM1997 505L1267 1215 1219 1164 1947 456 1997 505ZM1308 1153L1308 1153Q1356 1153 1425.5 1145.5 1495 1138 1566.5 1122.5 1638 1107 1692 1083L1692 1083 2204 572 1516 397 911 911Q911 986 963 1040.5 1015 1095 1105 1124 1195 1153 1308 1153ZM2349 1061L2279 1123 2093 757 2164 698 2349 1061Z"/>
</svg>