<svg xmlns="http://www.w3.org/2000/svg"
    viewBox="0 0 2600 2400">
  <!--
Copyright 2013 Google LLC
Noto is a trademark of Google Inc.
This Font Software is licensed under the SIL Open Font License, Version 1.1. This Font Software is distributed on an "AS IS" BASIS, WITHOUT WARRANTIES OR CONDITIONS OF ANY KIND, either express or implied. See the SIL Open Font License for the specific language, permissions and limitations governing your use of this Font Software.
http://scripts.sil.org/OFL
  -->
<path d="M2241 1066L359 1066Q338 1066 324 1051.5 310 1037 310 1017L310 1017 310 609Q310 588 324 574 338 560 359 560L359 560 2241 560Q2261 560 2275.5 574 2290 588 2290 609L2290 609 2290 1017Q2290 1037 2275.5 1051.5 2261 1066 2241 1066L2241 1066ZM2241 1840L359 1840Q338 1840 324 1825.5 310 1811 310 1791L310 1791 310 1383Q310 1362 324 1348 338 1334 359 1334L359 1334 2241 1334Q2261 1334 2275.5 1348 2290 1362 2290 1383L2290 1383 2290 1791Q2290 1811 2275.5 1825.5 2261 1840 2241 1840L2241 1840Z"/>
</svg>