<svg xmlns="http://www.w3.org/2000/svg"
    viewBox="0 0 2600 2400">
  <!--
Copyright 2013 Google LLC
Noto is a trademark of Google Inc.
This Font Software is licensed under the SIL Open Font License, Version 1.1. This Font Software is distributed on an "AS IS" BASIS, WITHOUT WARRANTIES OR CONDITIONS OF ANY KIND, either express or implied. See the SIL Open Font License for the specific language, permissions and limitations governing your use of this Font Software.
http://scripts.sil.org/OFL
  -->
<path d="M1300 2034L1300 2034Q1203 2034 1111.5 2003 1020 1972 947 1919.5 874 1867 831 1801 788 1735 788 1666L788 1666Q788 1639 802.5 1623.5 817 1608 842 1608L842 1608Q857 1608 879.5 1611.5 902 1615 940 1625L940 1625Q977 1634 1037.5 1641.5 1098 1649 1167.5 1653.5 1237 1658 1300 1658L1300 1658Q1364 1658 1433.5 1653.5 1503 1649 1563.5 1641.5 1624 1634 1660 1625L1660 1625Q1698 1615 1720.5 1611.5 1743 1608 1758 1608L1758 1608Q1783 1608 1797.5 1623.5 1812 1639 1812 1666L1812 1666Q1812 1735 1769 1801 1726 1867 1653 1919.5 1580 1972 1488.5 2003 1397 2034 1300 2034ZM1300 1783L1300 1783Q1405 1783 1531 1770 1657 1757 1762 1729L1762 1729 1762 1678Q1762 1656 1728 1666L1728 1666Q1671 1683 1595 1693.5 1519 1704 1441.5 1708.5 1364 1713 1300 1713L1300 1713Q1237 1713 1159 1708.5 1081 1704 1005 1693.5 929 1683 872 1666L872 1666Q838 1656 838 1678L838 1678 838 1729Q943 1757 1069 1770 1195 1783 1300 1783ZM1000 1456L1000 1456Q952 1456 926 1409.5 900 1363 900 1295L900 1295Q900 1227 926 1180 952 1133 1000 1133L1000 1133Q1048 1133 1074 1180 1100 1227 1100 1295L1100 1295Q1100 1363 1074 1409.5 1048 1456 1000 1456ZM1600 1456L1600 1456Q1552 1456 1526 1409.5 1500 1363 1500 1295L1500 1295Q1500 1227 1526 1180 1552 1133 1600 1133L1600 1133Q1648 1133 1674 1180 1700 1227 1700 1295L1700 1295Q1700 1363 1674 1409.5 1648 1456 1600 1456ZM1300 1006L1300 1006Q1472 1006 1635.5 954 1799 902 1942 805 2085 708 2193 573L2193 573Q1970 629 1742.5 658.5 1515 688 1300 688L1300 688Q1086 688 858 658.5 630 629 407 573L407 573Q516 708 658.5 805 801 902 964.5 954 1128 1006 1300 1006ZM1300 583L1300 583Q1176 583 1049.5 573.5 923 564 795 545L795 545 826 478Q947 495 1066 504 1185 513 1300 513L1300 513Q1529 513 1774 478L1774 478 1805 545Q1677 564 1550.5 573.5 1424 583 1300 583ZM814 617L814 617 740 587Q828 363 920.5 261.5 1013 160 1130 160L1130 160Q1213 160 1300 208L1300 208Q1387 160 1470 160L1470 160Q1587 160 1679.5 261.5 1772 363 1860 587L1860 587 1786 617Q1707 418 1632.5 329 1558 240 1470 240L1470 240Q1436 240 1396 253.5 1356 267 1300 299L1300 299Q1244 267 1204 253.5 1164 240 1130 240L1130 240Q1042 240 967.5 329 893 418 814 617ZM1300 2240L1300 2240Q1124 2240 970 2174.5 816 2109 698.5 1992.5 581 1876 515 1723 449 1570 449 1395L449 1395Q449 1319 463 1241L463 1241Q381 1146 335.5 1002 290 858 290 708L290 708Q290 649 301 588 312 527 330 464L330 464Q576 532 822 567.5 1068 603 1300 603L1300 603Q1532 603 1778 567.5 2024 532 2270 464L2270 464Q2289 527 2299.5 588 2310 649 2310 708L2310 708Q2310 858 2264.5 1002 2219 1146 2137 1241L2137 1241Q2151 1319 2151 1395L2151 1395Q2151 1570 2085 1723 2019 1876 1901.5 1992.5 1784 2109 1630 2174.5 1476 2240 1300 2240ZM534 1395L534 1395Q534 1554 593.5 1692.5 653 1831 758 1936 863 2041 1002 2100.5 1141 2160 1300 2160L1300 2160Q1459 2160 1598 2100.5 1737 2041 1842 1936 1947 1831 2006.5 1692.5 2066 1554 2066 1395L2066 1395Q2066 1267 2025 1147 1984 1027 1906 925L1906 925Q1772 1004 1618 1045 1464 1086 1300 1086L1300 1086Q1136 1086 982 1045 828 1004 694 925L694 925Q616 1027 575 1147 534 1267 534 1395Z"/>
</svg>