<svg xmlns="http://www.w3.org/2000/svg"
    viewBox="0 0 2600 2400">
  <!--
Copyright 2013 Google LLC
Noto is a trademark of Google Inc.
This Font Software is licensed under the SIL Open Font License, Version 1.1. This Font Software is distributed on an "AS IS" BASIS, WITHOUT WARRANTIES OR CONDITIONS OF ANY KIND, either express or implied. See the SIL Open Font License for the specific language, permissions and limitations governing your use of this Font Software.
http://scripts.sil.org/OFL
  -->
<path d="M1225 2240L1225 2240Q933 2240 761.5 2150 590 2060 575 1903L575 1903Q564 1784 555.5 1658.5 547 1533 543 1373 539 1213 539 992L539 992 619 992Q619 1212 623 1371.5 627 1531 635.5 1656 644 1781 655 1896L655 1896Q667 2014 813 2087 959 2160 1225 2160L1225 2160Q1425 2160 1569.5 2125.5 1714 2091 1791.5 2031.5 1869 1972 1869 1899L1869 1899Q1869 1879 1863 1859.5 1857 1840 1844 1814L1844 1814Q1825 1774 1813.5 1734.5 1802 1695 1802 1652L1802 1652 1802 1383 1882 1432 1882 1652Q1882 1694 1892 1729 1902 1764 1920 1800L1920 1800Q1934 1827 1941.5 1849.5 1949 1872 1949 1899L1949 1899Q1949 2001 1861.5 2077.5 1774 2154 1612 2197 1450 2240 1225 2240ZM1220 1607L1220 1607Q1135 1607 1065 1573.5 995 1540 940 1473L940 1473 991 1429Q1038 1486 1093.5 1511.5 1149 1537 1220 1537L1220 1537Q1292 1537 1348 1511.5 1404 1486 1450 1429L1450 1429 1501 1473Q1446 1540 1375.5 1573.5 1305 1607 1220 1607ZM952 1295L952 1295Q914 1295 889 1267 864 1239 864 1199L864 1199Q864 1159 889 1130.5 914 1102 952 1102L952 1102Q990 1102 1015.5 1130.5 1041 1159 1041 1199L1041 1199Q1041 1239 1015.5 1267 990 1295 952 1295ZM1489 1295L1489 1295Q1451 1295 1425.5 1267 1400 1239 1400 1199L1400 1199Q1400 1159 1425.5 1130.5 1451 1102 1489 1102L1489 1102Q1527 1102 1552 1130.5 1577 1159 1577 1199L1577 1199Q1577 1239 1552 1267 1527 1295 1489 1295ZM575 935L575 935Q641 921 745.5 905 850 889 972.5 877.5 1095 866 1214 866L1214 866Q1333 866 1444.5 877 1556 888 1649.5 903.5 1743 919 1804 933L1804 933Q1833 940 1851 926 1869 912 1869 872L1869 872Q1869 806 1816.5 753.5 1764 701 1672 663.5 1580 626 1462.5 606.5 1345 587 1214 587L1214 587Q995 587 838.5 622.5 682 658 598.5 723.5 515 789 515 879L515 879Q515 910 530.5 925.5 546 941 575 935ZM1994 1147L1864 1167 1857 1018Q1847 1018 1835 1017 1823 1016 1811 1013L1811 1013Q1696 985 1540 963 1384 941 1214 941L1214 941Q1101 941 983.5 951.5 866 962 764 978.5 662 995 593 1013L593 1013Q527 1030 481 996 435 962 435 895L435 895Q435 801 487 731 539 661 633 614L633 614Q666 494 756 390.5 846 287 983.5 223.5 1121 160 1295 160L1295 160Q1447 160 1577.5 221 1708 282 1806 385.5 1904 489 1959 619.5 2014 750 2014 890L2014 890Q2014 973 2008.5 1038 2003 1103 1994 1147L1994 1147ZM1959 1510L1959 1510Q1874 1510 1814 1451.5 1754 1393 1754 1308L1754 1308Q1754 1222 1814 1163 1874 1104 1959 1104L1959 1104Q2045 1104 2105 1162.5 2165 1221 2165 1308L2165 1308Q2165 1393 2105 1451.5 2045 1510 1959 1510ZM1959 1430L1959 1430Q2012 1430 2048.5 1394.5 2085 1359 2085 1308L2085 1308Q2085 1256 2048.5 1220 2012 1184 1959 1184L1959 1184Q1907 1184 1870.5 1220 1834 1256 1834 1308L1834 1308Q1834 1358 1870.5 1394 1907 1430 1959 1430ZM1882 1186L1802 1225 1802 968 1882 940 1882 1186Z"/>
</svg>