<svg xmlns="http://www.w3.org/2000/svg"
    viewBox="0 0 2600 2400">
  <!--
Copyright 2013 Google LLC
Noto is a trademark of Google Inc.
This Font Software is licensed under the SIL Open Font License, Version 1.1. This Font Software is distributed on an "AS IS" BASIS, WITHOUT WARRANTIES OR CONDITIONS OF ANY KIND, either express or implied. See the SIL Open Font License for the specific language, permissions and limitations governing your use of this Font Software.
http://scripts.sil.org/OFL
  -->
<path d="M1331 2240L1235 2240Q1177 2240 1141.5 2217 1106 2194 1106 2156L1106 2156Q1106 2118 1141 2095 1176 2072 1229 2072L1229 2072Q1244 2072 1258 2074 1272 2076 1288 2081L1288 2081Q1279 2054 1264 2007 1249 1960 1234 1906 1219 1852 1208.5 1803.5 1198 1755 1198 1725L1198 1725Q1198 1678 1271 1560 1344 1442 1500 1240L1500 1240Q1488 1205 1481 1170 1474 1135 1469 1099L1469 1099Q1429 1133 1387 1151 1345 1169 1301 1169L1301 1169Q1246 1169 1180.5 1128 1115 1087 1046 1011L1046 1011Q1013 1031 979 1031L979 1031Q945 1031 918 1013L918 1013Q883 1048 845 1048L845 1048Q814 1048 793 1026.5 772 1005 764 969L764 969 220 832 238 734 795 812Q809 790 828 776.5 847 763 869 763L869 763Q912 763 943 805L943 805Q954 800 979 800L979 800Q1031 800 1067.5 830 1104 860 1135.5 900 1167 940 1203 970 1239 1000 1288 1000L1288 1000Q1336 1000 1369 970.5 1402 941 1429.5 896 1457 851 1486.5 804 1516 757 1556.5 720.5 1597 684 1656 674L1656 674Q1571 653 1515 583 1459 513 1459 422L1459 422Q1459 350 1495 290.5 1531 231 1591 195.5 1651 160 1724 160L1724 160Q1798 160 1858 195.5 1918 231 1953.5 290.5 1989 350 1989 422L1989 422Q1989 509 1938 577.5 1887 646 1810 669L1810 669Q1882 675 1935 700 1988 725 2026.5 754 2065 783 2092.5 804.5 2120 826 2141 826L2141 826Q2181 826 2193.5 768 2206 710 2206 588L2206 588Q2206 552 2232 526.5 2258 501 2293 501L2293 501Q2329 501 2354.5 526.5 2380 552 2380 588L2380 588Q2380 776 2322.5 890.5 2265 1005 2165 1005L2165 1005Q2125 1005 2067 986 2009 967 1956 935L1956 935Q1959 948 1962 991 1965 1034 1968 1087.5 1971 1141 1973 1187 1975 1233 1975 1252L1975 1252Q1975 1285 1983.5 1353 1992 1421 2004.5 1509 2017 1597 2030 1692.5 2043 1788 2051.5 1878 2060 1968 2060 2039L2060 2039Q2060 2054 2060 2067.5 2060 2081 2059 2093L2059 2093Q2090 2107 2110.5 2134.5 2131 2162 2131 2191L2131 2191Q2131 2217 2106.5 2228.5 2082 2240 2009 2240L2009 2240Q1936 2240 1911 2228.5 1886 2217 1886 2191L1886 2191Q1886 2161 1910 2131L1910 2131Q1889 2011 1861 1890 1833 1769 1804 1668 1775 1567 1749 1505.5 1723 1444 1705 1444L1705 1444Q1680 1444 1632.5 1479 1585 1514 1536 1565 1487 1616 1452.5 1666.5 1418 1717 1418 1748L1418 1748Q1418 1788 1421.5 1850.5 1425 1913 1429.5 1979 1434 2045 1437.5 2098.5 1441 2152 1441 2174L1441 2174Q1441 2240 1331 2240L1331 2240ZM276 803L756 914Q757 900 760 887 763 874 767 861L767 861 280 783 276 803ZM844 998L844 998Q851 998 860 993 869 988 876 980L876 980Q858 951 858 915L858 915Q858 860 898 828L898 828Q883 813 870 813L870 813Q846 813 827 849.5 808 886 808 933L808 933Q808 962 818.5 980 829 998 844 998Z"/>
</svg>