<svg xmlns="http://www.w3.org/2000/svg"
    viewBox="0 0 2600 2400">
  <!--
Copyright 2013, 2022 Google Inc. All Rights Reserved.
Noto is a trademark of Google Inc.
This Font Software is licensed under the SIL Open Font License, Version 1.1. This Font Software is distributed on an "AS IS" BASIS, WITHOUT WARRANTIES OR CONDITIONS OF ANY KIND, either express or implied. See the SIL Open Font License for the specific language, permissions and limitations governing your use of this Font Software.
http://scripts.sil.org/OFL
  -->
<path d="M362 2040L80 2040 80 670Q80 516 158 438 236 360 389 360L389 360 2211 360Q2364 360 2442 438 2520 516 2520 670L2520 670 2520 2040 2238 2040 2238 670Q2238 643 2230.5 635 2223 627 2197 627L2197 627 403 627Q378 627 370 635 362 643 362 670L362 670 362 2040ZM636 1896L556 1896 556 880 636 880 636 1896ZM603 1927L362 2040 333 1964 589 1845 2011 1845 2267 1964 2238 2040 1997 1927 603 1927ZM857 1903L819 1905Q806 1738 799.5 1620 793 1502 793 1394L793 1394Q793 1286 799.5 1168 806 1050 819 884L819 884Q799 796 791 725 783 654 783 597L783 597 821 597Q821 651 828.5 721.5 836 792 857 884L857 884Q844 1050 837.5 1168 831 1286 831 1393L831 1393Q831 1501 837.5 1618.5 844 1736 857 1903L857 1903ZM1300 1672L1300 1672Q1134 1672 948.5 1654.5 763 1637 595 1595L595 1595Q508 1601 442 1602 376 1603 324 1603L324 1603 324 1565Q377 1565 442.5 1564 508 1563 595 1557L595 1557Q744 1594 925.5 1614 1107 1634 1299 1634L1299 1634Q1491 1634 1674 1614 1857 1594 2005 1557L2005 1557Q2092 1563 2158 1564 2224 1565 2276 1565L2276 1565 2276 1603Q2224 1603 2158 1602 2092 1601 2005 1595L2005 1595Q1837 1637 1652 1654.5 1467 1672 1300 1672ZM1094 1903L1056 1905Q1043 1738 1036.5 1620 1030 1502 1030 1394L1030 1394Q1030 1286 1036.5 1168 1043 1050 1056 884L1056 884Q1036 796 1028 724 1020 652 1020 597L1020 597 1058 597Q1058 651 1065.5 721.5 1073 792 1094 884L1094 884Q1081 1050 1074.5 1168 1068 1286 1068 1393L1068 1393Q1068 1501 1074.5 1618.5 1081 1736 1094 1903L1094 1903ZM1300 1399L1300 1399Q1134 1399 948.5 1381.5 763 1364 595 1322L595 1322Q508 1328 442 1329 376 1330 324 1330L324 1330 324 1292Q377 1292 442.5 1291 508 1290 595 1284L595 1284Q744 1321 925.5 1341 1107 1361 1299 1361L1299 1361Q1491 1361 1674 1341 1857 1321 2005 1284L2005 1284Q2092 1290 2158 1291 2224 1292 2276 1292L2276 1292 2276 1330Q2224 1330 2158 1329 2092 1328 2005 1322L2005 1322Q1837 1364 1652 1381.5 1467 1399 1300 1399ZM1321 1904L1283 1904 1283 885Q1261 790 1252 719.5 1243 649 1243 597L1243 597 1281 597Q1281 649 1291.5 724.5 1302 800 1321 880L1321 880 1321 1904ZM160 670L160 1960 282 1960 282 670Q282 599 306.5 573 331 547 403 547L403 547 2197 547Q2269 547 2293.5 573 2318 599 2318 670L2318 670 2318 1960 2440 1960 2440 670Q2440 550 2385 495 2330 440 2211 440L2211 440 389 440Q270 440 215 495 160 550 160 670L160 670ZM1300 1146L1300 1146Q1134 1146 948.5 1128.5 763 1111 595 1069L595 1069Q508 1074 442 1075 376 1076 324 1076L324 1076 324 1038Q377 1038 442.5 1037 508 1036 595 1031L595 1031Q744 1068 925.5 1088 1107 1108 1299 1108L1299 1108Q1491 1108 1674 1088 1857 1068 2005 1031L2005 1031Q2092 1036 2158 1037 2224 1038 2276 1038L2276 1038 2276 1076Q2224 1076 2158 1075 2092 1074 2005 1069L2005 1069Q1837 1111 1652 1128.5 1467 1146 1300 1146ZM1544 1905L1506 1903Q1519 1736 1525.5 1618.5 1532 1501 1532 1393L1532 1393Q1532 1286 1525.5 1168 1519 1050 1506 884L1506 884Q1527 792 1534.5 721.5 1542 651 1542 597L1542 597 1580 597Q1580 652 1572 724 1564 796 1544 884L1544 884Q1557 1050 1563.5 1168 1570 1286 1570 1394L1570 1394Q1570 1502 1563.5 1620 1557 1738 1544 1905L1544 1905ZM1781 1905L1743 1903Q1756 1736 1762.5 1618.5 1769 1501 1769 1393L1769 1393Q1769 1286 1762.5 1168 1756 1050 1743 884L1743 884Q1764 792 1771.5 721.5 1779 651 1779 597L1779 597 1817 597Q1817 654 1809 725 1801 796 1781 884L1781 884Q1794 1050 1800.5 1168 1807 1286 1807 1394L1807 1394Q1807 1502 1800.5 1620 1794 1738 1781 1905L1781 1905ZM2022 932L578 932 301 635 363 579 614 850 1986 850 2237 579 2299 635 2022 932ZM2044 1896L1964 1896 1964 880 2044 880 2044 1896Z"/>
</svg>