<svg xmlns="http://www.w3.org/2000/svg"
    viewBox="0 0 2600 2400">
  <!--
Copyright 2013, 2022 Google Inc. All Rights Reserved.
Noto is a trademark of Google Inc.
This Font Software is licensed under the SIL Open Font License, Version 1.1. This Font Software is distributed on an "AS IS" BASIS, WITHOUT WARRANTIES OR CONDITIONS OF ANY KIND, either express or implied. See the SIL Open Font License for the specific language, permissions and limitations governing your use of this Font Software.
http://scripts.sil.org/OFL
  -->
<path d="M1241 1686L1241 1686Q1094 1686 990.5 1657 887 1628 813 1563.5 739 1499 682 1393L682 1393Q657 1346 637 1272 617 1198 603 1111.5 589 1025 582 939 575 853 575 781L575 781Q575 681 597 568.5 619 456 687 368L687 368Q761 273 849 229 937 185 1037 172.5 1137 160 1244 160L1244 160Q1350 160 1447 169.5 1544 179 1624.5 206 1705 233 1761 286L1761 286Q1816 338 1840 417 1864 496 1876 582L1876 582Q1944 605 1984.5 676 2025 747 2025 845L2025 845Q2025 923 2006 1015 1987 1107 1953 1198 1919 1289 1873 1364L1873 1364Q1777 1522 1609.5 1604 1442 1686 1241 1686ZM1246 2012L1246 2012Q1118 2012 1074.5 1990.5 1031 1969 1031 1908L1031 1908Q1031 1866 1052 1846.5 1073 1827 1131 1827L1131 1827 1355 1827Q1414 1827 1434.5 1846.5 1455 1866 1455 1908L1455 1908Q1455 1969 1412.5 1990.5 1370 2012 1246 2012ZM1242 2240L1242 2240Q1109 2240 1013.5 2219.5 918 2199 866.5 2155 815 2111 815 2040L815 2040 815 1546 895 1551 895 2039Q895 2095 978 2127.5 1061 2160 1242 2160L1242 2160Q1424 2160 1507 2127.5 1590 2095 1590 2039L1590 2039 1590 1548 1670 1543 1670 2040Q1670 2111 1618.5 2155 1567 2199 1471.5 2219.5 1376 2240 1242 2240ZM1241 1606L1241 1606Q1423 1606 1572.5 1534 1722 1462 1804 1323L1804 1323Q1846 1253 1877.5 1169 1909 1085 1927 1000.5 1945 916 1945 845L1945 845Q1945 759 1908.5 705.5 1872 652 1816 652L1816 652Q1738 652 1692 738 1646 824 1646 968L1646 968 1566 968Q1566 798 1627 691 1688 584 1794 574L1794 574Q1783 502 1764.5 442 1746 382 1703 342L1703 342Q1637 280 1519.5 260 1402 240 1244 240L1244 240Q1135 240 1046.5 251.5 958 263 885.5 300.5 813 338 752 415L752 415Q694 489 674.5 587 655 685 655 777L655 777Q655 844 661.5 926 668 1008 680.5 1090.5 693 1173 711 1242.5 729 1312 752 1355L752 1355Q804 1451 868 1506 932 1561 1022.5 1583.5 1113 1606 1241 1606ZM1856 553L1800 610Q1772 582 1730.5 568 1689 554 1648 554L1648 554Q1617 554 1588.5 562.5 1560 571 1541 588L1541 588 1484 532Q1514 503 1557 488.5 1600 474 1648 474L1648 474Q1704 474 1760 494 1816 514 1856 553L1856 553Z"/>
</svg>