<svg xmlns="http://www.w3.org/2000/svg"
    viewBox="0 0 2600 2400">
  <!--
Copyright 2013, 2022 Google Inc. All Rights Reserved.
Noto is a trademark of Google Inc.
This Font Software is licensed under the SIL Open Font License, Version 1.1. This Font Software is distributed on an "AS IS" BASIS, WITHOUT WARRANTIES OR CONDITIONS OF ANY KIND, either express or implied. See the SIL Open Font License for the specific language, permissions and limitations governing your use of this Font Software.
http://scripts.sil.org/OFL
  -->
<path d="M1251 1471L1251 1471Q1333 1471 1387 1433.5 1441 1396 1508 1335L1508 1335Q1580 1269 1648 1220 1716 1171 1782.5 1138.5 1849 1106 1917 1091L1917 1091 2053 1061Q2169 1035 2225 949 2281 863 2281 753L2281 753Q2281 649 2232.5 539 2184 429 2090 344L2090 344Q1997 260 1906 223.5 1815 187 1733 187L1733 187Q1646 187 1575 221.5 1504 256 1457.5 314 1411 372 1396 441L1396 441 1377 532Q1364 597 1330.5 658.5 1297 720 1246 787 1195 854 1128 936L1128 936Q1075 1001 1043.5 1045.5 1012 1090 998.5 1125.5 985 1161 985 1201L985 1201Q985 1244 1001.5 1295.5 1018 1347 1060 1386L1060 1386Q1107 1429 1153 1450 1199 1471 1251 1471ZM324 2240L324 2240Q361 2204 397.5 2160 434 2116 461 2075L461 2075Q445 2057 423.5 2037 402 2017 382 2002L382 2002Q338 2027 295 2059 252 2091 216 2126L216 2126Q228 2141 248 2163 268 2185 289 2205.5 310 2226 324 2240ZM355 2047L412 2104 1024 1502 967 1446 355 2047ZM1014 1541L1014 1541Q1040 1522 1078 1488 1116 1454 1147 1423L1147 1423 1041 1321Q1008 1355 976 1393.5 944 1432 927 1455L927 1455Q938 1475 965 1501.5 992 1528 1014 1541ZM1173 1612L1227 1638Q1238 1615 1247.5 1585 1257 1555 1264 1522 1271 1489 1275 1458L1275 1458 1216 1448Q1211 1489 1199 1534 1187 1579 1173 1612L1173 1612ZM785 1181L808 1237Q843 1226 896.5 1218 950 1210 997 1209L997 1209 997 1150Q943 1150 884.5 1158.5 826 1167 785 1181L785 1181ZM568 913L568 913Q466 913 383.5 864.5 301 816 253 734 205 652 205 550L205 550Q205 448 253 365.5 301 283 383.5 235 466 187 568 187L568 187Q670 187 752 235 834 283 882 365.5 930 448 930 550L930 550Q930 652 882 734.5 834 817 752 865 670 913 568 913ZM568 833L568 833Q648 833 712 796 776 759 813 694.5 850 630 850 550L850 550Q850 470 813 406 776 342 712 304.5 648 267 568 267L568 267Q488 267 424 304.5 360 342 322.5 406 285 470 285 550L285 550Q285 630 322.5 694 360 758 424 795.5 488 833 568 833ZM1215 1406L1275 1416Q1278 1398 1279.5 1378.5 1281 1359 1281 1338L1281 1338Q1281 1280 1270.5 1215 1260 1150 1241 1084 1222 1018 1194 957L1194 957 1140 983Q1165 1039 1183 1100.5 1201 1162 1211 1222.5 1221 1283 1221 1336L1221 1336Q1221 1374 1215 1406L1215 1406ZM1490 1292L1490 1292 1518 1238Q1472 1217 1413 1201.5 1354 1186 1288 1175 1222 1164 1156.5 1156.5 1091 1149 1033 1145L1033 1145 1033 1208Q1084 1211 1145 1217 1206 1223 1269.5 1233 1333 1243 1390 1257.5 1447 1272 1490 1292ZM1695 1154L1695 1154 1727 1103Q1649 1059 1562.5 1029.5 1476 1000 1389.5 985 1303 970 1224 970L1224 970Q1202 970 1179.5 971.5 1157 973 1137 975L1137 975 1110 1035Q1158 1029 1210 1029L1210 1029Q1287 1029 1370 1042.5 1453 1056 1536 1083.5 1619 1111 1695 1154ZM1423 1324L1483 1334Q1489 1305 1491.5 1273.5 1494 1242 1494 1210L1494 1210Q1494 1123 1476 1034 1458 945 1426 867.5 1394 790 1353 736L1353 736 1309 776Q1344 824 1372 896 1400 968 1416 1050.5 1432 1133 1432 1212L1432 1212Q1432 1270 1423 1324L1423 1324ZM1613 1177L1613 1177 1698 1157Q1711 1119 1716.5 1083 1722 1047 1722 1014L1722 1014Q1722 886 1643.5 811.5 1565 737 1446 737L1446 737Q1410 737 1372 744 1334 751 1294 767L1294 767 1281 851Q1368 817 1441 817L1441 817Q1530 817 1586 867.5 1642 918 1642 1018L1642 1018Q1642 1056 1634.5 1095 1627 1134 1613 1177ZM1211 512L1241 563Q1273 546 1316.5 536 1360 526 1409 523L1409 523 1409 463Q1353 466 1301 478.5 1249 491 1211 512L1211 512ZM1255 1391L1255 1391Q1221 1391 1187.5 1377.5 1154 1364 1118 1330L1118 1330Q1087 1301 1075.5 1258.5 1064 1216 1064 1190L1064 1190Q1064 1153 1099.5 1102.5 1135 1052 1196 979L1196 979Q1265 897 1315.5 831 1366 765 1400 699 1434 633 1452 551L1452 551 1471 466Q1483 413 1518 368 1553 323 1608.5 295 1664 267 1734 267L1734 267Q1801 267 1878 298 1955 329 2036 403L2036 403Q2117 477 2159 572 2201 667 2201 754L2201 754Q2201 841 2158.5 906 2116 971 2027 988L2027 988 1889 1014Q1822 1026 1749.5 1062 1677 1098 1603 1152 1529 1206 1457 1275L1457 1275Q1402 1327 1355.5 1359 1309 1391 1255 1391ZM2001 1214L2057 1234Q2074 1179 2083.5 1132 2093 1085 2097 1037L2097 1037 2038 1033Q2034 1077 2025.5 1120 2017 1163 2001 1214L2001 1214ZM1807 1065L1807 1065 1867 1065Q1867 836 1785 637 1703 438 1563 284L1563 284 1518 322Q1651 469 1729 658 1807 847 1807 1065ZM2198 875L2198 875 2228 823Q2028 712 1811 657.5 1594 603 1385 603L1385 603 1387 663Q1610 663 1807 715.5 2004 768 2198 875ZM1502 309L1502 309 1544 266Q1513 237 1475 210.5 1437 184 1391 160L1391 160 1360 211Q1403 233 1438.5 257.5 1474 282 1502 309ZM2210 658L2210 658 2242 606Q2165 559 2054.5 524.5 1944 490 1820.5 471 1697 452 1579 452L1579 452Q1538 452 1498 454.5 1458 457 1421 462L1421 462 1429 522Q1465 517 1503.5 514.5 1542 512 1582 512L1582 512Q1694 512 1811.5 530 1929 548 2033.5 580.5 2138 613 2210 658ZM2042 1006L2042 1006 2102 1002Q2102 906 2077.5 797 2053 688 2011 581 1969 474 1917.5 380.5 1866 287 1812 223L1812 223 1751 245Q1805 303 1856.5 392 1908 481 1950 586.5 1992 692 2017 800.5 2042 909 2042 1006ZM2348 1007L2348 1007 2395 971Q2361 933 2320.5 898 2280 863 2242 838L2242 838 2211 889Q2246 912 2281.5 942 2317 972 2348 1007Z"/>
</svg>