<svg xmlns="http://www.w3.org/2000/svg"
    viewBox="0 0 2600 2400">
  <!--
Copyright 2013, 2022 Google Inc. All Rights Reserved.
Noto is a trademark of Google Inc.
This Font Software is licensed under the SIL Open Font License, Version 1.1. This Font Software is distributed on an "AS IS" BASIS, WITHOUT WARRANTIES OR CONDITIONS OF ANY KIND, either express or implied. See the SIL Open Font License for the specific language, permissions and limitations governing your use of this Font Software.
http://scripts.sil.org/OFL
  -->
<path d="M596 2140L596 2140Q550 2121 489.5 2076.5 429 2032 366.5 1972.5 304 1913 248.5 1849 193 1785 154.5 1726.5 116 1668 105 1626L105 1626Q235 1614 327 1595 419 1576 480.5 1541 542 1506 579.5 1447 617 1388 638 1297L638 1297Q664 1181 706.5 1117 749 1053 810.5 1027 872 1001 954 1001L954 1001Q1064 1001 1126.5 979 1189 957 1223.5 894 1258 831 1282 709L1282 709Q1302 605 1336.5 566.5 1371 528 1429 528L1429 528Q1466 528 1509.5 540 1553 552 1595 564.5 1637 577 1670 577L1670 577Q1730 577 1771.5 532.5 1813 488 1837 415.5 1861 343 1865 260L1865 260Q1977 260 2092.5 295 2208 330 2312 390 2416 450 2495 526L2495 526Q2452 672 2395 771.5 2338 871 2253 934.5 2168 998 2039 1037L2039 1037Q1976 1056 1938 1072.5 1900 1089 1876 1112.5 1852 1136 1831.5 1175 1811 1214 1782 1277L1782 1277Q1750 1348 1711.5 1392 1673 1436 1617 1460 1561 1484 1474 1497L1474 1497Q1389 1509 1330.5 1528.5 1272 1548 1228 1581 1184 1614 1144 1667.5 1104 1721 1057 1802L1057 1802Q1000 1899 953 1960 906 2021 856.5 2056.5 807 2092 745 2110.5 683 2129 596 2140ZM476 1992L476 1992 402 1927Q472 1910 543.5 1880.5 615 1851 675 1815.5 735 1780 772 1746 809 1712 809 1686L809 1686Q809 1678 801.5 1671.5 794 1665 783 1665L783 1665Q771 1665 748.5 1676.5 726 1688 693 1708L693 1708Q638 1740 567.5 1769.5 497 1799 427 1818 357 1837 303 1838L303 1838 266 1768Q315 1764 387 1745.5 459 1727 528 1702 597 1677 636 1656L636 1656Q681 1631 724.5 1602 768 1573 801.5 1528 835 1483 847 1413L847 1413Q862 1328 894 1282.5 926 1237 998.5 1218 1071 1199 1205 1195L1205 1195Q1328 1191 1390.5 1170.5 1453 1150 1479 1099.5 1505 1049 1517 955L1517 955Q1528 872 1586 828 1644 784 1758 779L1758 779Q1872 773 1948.5 728.5 2025 684 2072 590.5 2119 497 2146 344L2146 344 2263 408Q2212 574 2155 673.5 2098 773 2024 818.5 1950 864 1846 870L1846 870Q1636 882 1614 1033L1614 1033Q1602 1117 1583 1168 1564 1219 1528 1246.5 1492 1274 1428.5 1286 1365 1298 1264 1304L1264 1304Q1148 1311 1086 1332.5 1024 1354 995.5 1403.5 967 1453 951 1546L951 1546Q921 1720 803 1828.5 685 1937 476 1992ZM604 2058L604 2058Q675 2048 725 2032.5 775 2017 816 1985.5 857 1954 899.5 1897 942 1840 997 1747L997 1747Q1049 1658 1095 1600 1141 1542 1192 1506 1243 1470 1308.5 1450 1374 1430 1465 1417L1465 1417Q1543 1406 1586.5 1388.5 1630 1371 1658.5 1335 1687 1299 1717 1231L1717 1231Q1749 1161 1775.5 1116.5 1802 1072 1833.5 1044.5 1865 1017 1911.5 997 1958 977 2028 956L2028 956Q2139 922 2208.5 870.5 2278 819 2324 742 2370 665 2410 557L2410 557Q2319 471 2189 416 2059 361 1931 342L1931 342Q1922 427 1888 499 1854 571 1801.5 614 1749 657 1682 657L1682 657Q1644 657 1597.5 644.5 1551 632 1507.5 620 1464 608 1435 608L1435 608Q1403 608 1388 637.5 1373 667 1358 736L1358 736Q1335 841 1305.5 907 1276 973 1232.5 1010 1189 1047 1124 1062 1059 1077 966 1080L966 1080Q881 1082 834 1104 787 1126 761 1179 735 1232 713 1329L713 1329Q686 1449 627 1521.5 568 1594 470 1633 372 1672 227 1693L227 1693Q262 1748 324.5 1816.5 387 1885 461 1949.5 535 2014 604 2058Z"/>
</svg>