<svg xmlns="http://www.w3.org/2000/svg"
    viewBox="0 0 2600 2400">
  <!--
Copyright 2013, 2022 Google Inc. All Rights Reserved.
Noto is a trademark of Google Inc.
This Font Software is licensed under the SIL Open Font License, Version 1.1. This Font Software is distributed on an "AS IS" BASIS, WITHOUT WARRANTIES OR CONDITIONS OF ANY KIND, either express or implied. See the SIL Open Font License for the specific language, permissions and limitations governing your use of this Font Software.
http://scripts.sil.org/OFL
  -->
<path d="M780 2240L780 2240Q605 2240 471 2170.5 337 2101 261 1978.5 185 1856 185 1696L185 1696Q185 1542 269 1397L269 1397Q340 1275 433.5 1195 527 1115 621 1065 715 1015 789.5 984 864 953 898 928L898 928Q938 898 979 826 1020 754 1073.5 660.5 1127 567 1203 472.5 1279 378 1390 303L1390 303Q1602 160 1834 160L1834 160Q1944 160 2054 190.5 2164 221 2253.5 272.5 2343 324 2389 388L2389 388Q2415 481 2415 576L2415 576Q2415 705 2369 836.5 2323 968 2243.5 1079.5 2164 1191 2062 1261L2062 1261Q2011 1296 1940.5 1331 1870 1366 1800 1396.5 1730 1427 1680 1449 1630 1471 1620 1482L1620 1482Q1602 1501 1587 1530 1572 1559 1552 1612L1552 1612Q1428 1938 1227 2089 1026 2240 780 2240ZM685 1884L685 1884 675 1805Q746 1797 789 1739L789 1739 852 1790Q786 1871 685 1884ZM708 1618L708 1618 691 1539Q726 1531 753 1512.5 780 1494 802 1463L802 1463 868 1509Q838 1552 797.5 1579.5 757 1607 708 1618ZM1040 1812L1040 1812 1010 1738Q1073 1713 1106 1644L1106 1644 1178 1677Q1135 1774 1040 1812ZM1029 1407L1029 1407 1014 1330Q1055 1323 1084.5 1299 1114 1275 1136 1235L1136 1235 1206 1272Q1145 1389 1029 1407ZM1329 1397L1329 1397 1315 1320Q1395 1306 1435 1227L1435 1227 1506 1264Q1448 1378 1329 1397ZM780 2160L780 2160Q1014 2160 1189 2014 1364 1868 1480 1583L1480 1583Q1508 1515 1522.5 1485 1537 1455 1560 1429L1560 1429Q1570 1418 1607.5 1399 1645 1380 1698 1356 1751 1332 1810 1305 1869 1278 1923.5 1250 1978 1222 2017 1195L2017 1195Q2108 1132 2180 1031 2252 930 2293.5 810.5 2335 691 2335 576L2335 576Q2335 499 2316 424L2316 424Q2274 373 2196 331 2118 289 2023 264.5 1928 240 1834 240L1834 240Q1730 240 1632 273.5 1534 307 1435 369L1435 369Q1337 430 1266.5 519.5 1196 609 1143 703 1090 797 1047 873 1004 949 960 981L960 981Q905 1022 826.5 1056 748 1090 660 1134.5 572 1179 488 1250 404 1321 338 1437L338 1437Q265 1565 265 1696L265 1696Q265 1833 330 1938 395 2043 511 2101.5 627 2160 780 2160ZM1447 1088L1447 1088 1414 1015Q1481 984 1506 921L1506 921 1581 951Q1542 1044 1447 1088ZM1715 1184L1715 1184 1715 1106Q1793 1106 1850 1032L1850 1032 1912 1081Q1835 1184 1715 1184ZM1786 890L1786 890 1749 822Q1781 805 1800.5 779.5 1820 754 1830 722L1830 722 1907 744Q1891 792 1860.5 829 1830 866 1786 890ZM2067 702L2067 702 2010 648Q2032 624 2044.5 594 2057 564 2057 521L2057 521 2136 521Q2136 578 2117.5 622.5 2099 667 2067 702Z"/>
</svg>