<svg xmlns="http://www.w3.org/2000/svg"
    viewBox="0 0 2600 2400">
  <!--
Copyright 2013 Google LLC
Noto is a trademark of Google Inc.
This Font Software is licensed under the SIL Open Font License, Version 1.1. This Font Software is distributed on an "AS IS" BASIS, WITHOUT WARRANTIES OR CONDITIONS OF ANY KIND, either express or implied. See the SIL Open Font License for the specific language, permissions and limitations governing your use of this Font Software.
http://scripts.sil.org/OFL
  -->
<path d="M599 2040L599 2040Q521 2040 458.5 2001.5 396 1963 359.5 1897 323 1831 323 1751L323 1751Q323 1704 332 1664.5 341 1625 341 1585L341 1585Q341 1532 323 1494.5 305 1457 286.5 1413 268 1369 268 1297L268 1297Q268 1234 294.5 1180 321 1126 376 1085L376 1085Q424 1049 452.5 1014 481 979 494.5 936 508 893 510 835L510 835Q514 742 566.5 681.5 619 621 722 610L722 610Q793 602 835 575 877 548 906 512.5 935 477 964 443 993 409 1034 386.5 1075 364 1144 364L1144 364Q1196 364 1233 377 1270 390 1304.5 403.5 1339 417 1383 417L1383 417Q1429 417 1463.5 402.5 1498 388 1537 374 1576 360 1635 360L1635 360Q1712 360 1760 377 1808 394 1841 420.5 1874 447 1906 477 1938 507 1982 534.5 2026 562 2097 580L2097 580 2129 588Q2224 611 2278 675 2332 739 2332 843L2332 843Q2332 978 2124.5 1184 1917 1390 1525 1634L1525 1634Q1378 1725 1238.5 1800 1099 1875 977 1928.5 855 1982 758 2011 661 2040 599 2040ZM682 1271L674 1350 546 1339 554 1259 682 1271ZM899 912L845 971 753 888 808 829 899 912ZM887 1599L807 1599Q807 1371 880 1204.5 953 1038 1088.5 947.5 1224 857 1411 857L1411 857Q1517 857 1619.5 887.5 1722 918 1807 973L1807 973 1760 1038Q1688 991 1596.5 964 1505 937 1411 937L1411 937Q1247 937 1129.5 1016.5 1012 1096 949.5 1244.5 887 1393 887 1599L887 1599ZM591 1962L591 1962Q648 1962 741.5 1932.5 835 1903 954.5 1850 1074 1797 1209.5 1724.5 1345 1652 1484 1565L1484 1565Q1863 1329 2057.5 1143.5 2252 958 2252 834L2252 834Q2252 771 2215 726.5 2178 682 2110 666L2110 666 2075 658Q2002 641 1951 605.5 1900 570 1857.5 532 1815 494 1767 467 1719 440 1652 440L1652 440Q1600 440 1561.5 454 1523 468 1483 482.5 1443 497 1386 497L1386 497Q1331 497 1289 483.5 1247 470 1210.5 457 1174 444 1137 444L1137 444Q1091 444 1060.5 465 1030 486 1002.5 518.5 975 551 942 586 909 621 860 649 811 677 735 689L735 689Q658 701 625.5 736 593 771 591 834L591 834Q587 934 548 1008.5 509 1083 421 1151L421 1151Q383 1180 365.5 1215.5 348 1251 348 1299L348 1299Q348 1349 366.5 1391.5 385 1434 403 1482.5 421 1531 421 1599L421 1599Q421 1650 412.5 1689.5 404 1729 404 1770L404 1770Q404 1857 456.5 1909.5 509 1962 591 1962ZM1210 725L1134 749 1102 639 1178 615 1210 725ZM1688 634L1652 739 1577 711 1613 607 1688 634Z"/>
</svg>