<svg xmlns="http://www.w3.org/2000/svg"
    viewBox="0 0 2600 2400">
  <!--
Copyright 2013, 2022 Google Inc. All Rights Reserved.
Noto is a trademark of Google Inc.
This Font Software is licensed under the SIL Open Font License, Version 1.1. This Font Software is distributed on an "AS IS" BASIS, WITHOUT WARRANTIES OR CONDITIONS OF ANY KIND, either express or implied. See the SIL Open Font License for the specific language, permissions and limitations governing your use of this Font Software.
http://scripts.sil.org/OFL
  -->
<path d="M343 1298L276 1386Q266 1332 262 1287.5 258 1243 258 1200L258 1200Q258 978 335.5 788.5 413 599 553.5 458 694 317 883 238.5 1072 160 1295 160L1295 160Q1530 160 1730.5 251 1931 342 2073 500L2073 500 2027 565Q1896 412 1707 326 1518 240 1295 240L1295 240Q1089 240 914.5 312 740 384 610.5 514 481 644 409.5 819 338 994 338 1200L338 1200Q338 1223 339 1246 340 1269 343 1298L343 1298ZM991 2113L1049 2214Q877 2169 752 2094 627 2019 531 1919L531 1919 594 1869Q758 2039 991 2113L991 2113ZM421 1888L421 1888Q523 1888 580 1836 637 1784 637 1691L637 1691Q637 1632 614 1571 591 1510 540 1432L540 1432 421 1250 303 1432Q251 1511 228 1572 205 1633 205 1691L205 1691Q205 1784 262 1836 319 1888 421 1888ZM421 1968L421 1968Q288 1968 206.5 1892 125 1816 125 1691L125 1691Q125 1623 151.5 1550 178 1477 236 1388L236 1388 421 1104 607 1388Q665 1476 691 1549 717 1622 717 1691L717 1691Q717 1816 636 1892 555 1968 421 1968ZM1302 2290L1288 2290Q1117 2290 1013 2201 909 2112 909 1967L909 1967 909 1599 989 1587 989 1967Q989 2079 1070 2144.5 1151 2210 1288 2210L1288 2210 1302 2210Q1440 2210 1520.5 2144.5 1601 2079 1601 1967L1601 1967 1601 1583 1681 1595 1681 1967Q1681 2113 1577.5 2201.5 1474 2290 1302 2290L1302 2290ZM1325 1965L1265 1965 1265 1547 1325 1547 1325 1965ZM943 1653L943 1880Q867 1846 827 1806 787 1766 787 1723L787 1723Q787 1663 856 1613.5 925 1564 1040.5 1534.5 1156 1505 1295 1505L1295 1505Q1435 1505 1550 1534.5 1665 1564 1734 1613.5 1803 1663 1803 1723L1803 1723Q1803 1766 1763 1806 1723 1846 1647 1880L1647 1880 1647 1653Q1557 1619 1470.5 1602 1384 1585 1295 1585L1295 1585Q1206 1585 1119.5 1602 1033 1619 943 1653L943 1653ZM943 1220L943 1220Q891 1220 854 1176 817 1132 817 1070L817 1070Q817 1008 854 963.5 891 919 943 919L943 919Q995 919 1032 963.5 1069 1008 1069 1070L1069 1070Q1069 1131 1032.5 1175.5 996 1220 943 1220ZM619 841L619 841 607 772Q723 752 796 716 869 680 917 619L917 619 972 662Q916 733 831 776 746 819 619 841ZM1558 2201L1558 2201 1603 2106Q1799 2045 1945.5 1914.5 2092 1784 2173.5 1601 2255 1418 2255 1200L2255 1200Q2255 1172 2253.5 1144.5 2252 1117 2250 1090L2250 1090 2327 1060Q2332 1094 2333.5 1129 2335 1164 2335 1200L2335 1200Q2335 1387 2278.5 1551 2222 1715 2119 1847 2016 1979 1873.5 2070 1731 2161 1558 2201ZM1647 1220L1647 1220Q1595 1220 1558 1176 1521 1132 1521 1070L1521 1070Q1521 1008 1558 963.5 1595 919 1647 919L1647 919Q1699 919 1736 963.5 1773 1008 1773 1070L1773 1070Q1773 1131 1736.5 1175.5 1700 1220 1647 1220ZM1946 765L1929 833Q1716 788 1619 662L1619 662 1674 619Q1718 674 1782 709 1846 744 1946 765L1946 765ZM2179 1058L2179 1058Q2281 1058 2338 1006 2395 954 2395 861L2395 861Q2395 802 2372 741 2349 680 2298 602L2298 602 2179 420 2061 602Q2009 681 1986 742 1963 803 1963 861L1963 861Q1963 954 2020 1006 2077 1058 2179 1058ZM2179 1138L2179 1138Q2046 1138 1964.5 1062 1883 986 1883 861L1883 861Q1883 793 1909.5 720 1936 647 1994 558L1994 558 2179 274 2365 558Q2423 646 2449 719 2475 792 2475 861L2475 861Q2475 986 2394 1062 2313 1138 2179 1138Z"/>
</svg>