<svg xmlns="http://www.w3.org/2000/svg"
    viewBox="0 0 2600 2400">
  <!--
Copyright 2013, 2022 Google Inc. All Rights Reserved.
Noto is a trademark of Google Inc.
This Font Software is licensed under the SIL Open Font License, Version 1.1. This Font Software is distributed on an "AS IS" BASIS, WITHOUT WARRANTIES OR CONDITIONS OF ANY KIND, either express or implied. See the SIL Open Font License for the specific language, permissions and limitations governing your use of this Font Software.
http://scripts.sil.org/OFL
  -->
<path d="M502 2100L502 2100Q555 2100 597 2091.5 639 2083 681 2064L681 2064Q734 2013 805 1908 876 1803 944 1677L944 1677Q1025 1716 1132 1747.5 1239 1779 1354.5 1797 1470 1815 1574 1815L1574 1815Q1686 1815 1789.5 1788.5 1893 1762 1963 1717L1963 1717 2006 1879Q2019 1926 2055 1953 2091 1980 2148 1980L2148 1980 2311 1980Q2373 1980 2413 1947 2453 1914 2453 1862L2453 1862Q2453 1791 2392 1741 2331 1691 2241 1687L2241 1687 2041 800Q2026 735 1995 693.5 1964 652 1908 652L1908 652Q1866 652 1832 675 1798 698 1762 736L1762 736 1404 1114Q1331 1091 1258 1080 1185 1069 1111 1068L1111 1068Q1058 1031 993.5 1006.5 929 982 867 974L867 974Q820 911 756 879.5 692 848 603 848L603 848Q508 848 433 895.5 358 943 315 1024 272 1105 272 1208L272 1208Q272 1333 313 1436.5 354 1540 428 1601.5 502 1663 600 1663L600 1663 529 1815Q519 1813 505 1812.5 491 1812 481 1812L481 1812Q430 1812 382.5 1837 335 1862 304.5 1914.5 274 1967 274 2052L274 2052Q346 2075 400 2087.5 454 2100 502 2100ZM305 1775L305 1775Q372 1775 414.5 1764.5 457 1754 487.5 1728 518 1702 548 1654L548 1654 578 1607 453 1553 361 1682Q336 1661 306.5 1651.5 277 1642 250 1642L250 1642Q208 1642 172.5 1667 137 1692 137 1723L137 1723Q137 1752 174 1763.5 211 1775 305 1775ZM285 1303L285 1303Q317 1303 324 1271.5 331 1240 331 1190L331 1190Q331 1140 324 1101 317 1062 285 1062L285 1062Q254 1062 230.5 1097 207 1132 207 1182L207 1182Q207 1232 230.5 1267.5 254 1303 285 1303ZM618 1356L618 1356Q577 1356 547.5 1321 518 1286 518 1237L518 1237Q518 1188 547.5 1153 577 1118 618 1118L618 1118Q659 1118 688 1152.5 717 1187 717 1237L717 1237Q717 1286 688 1321 659 1356 618 1356ZM1723 2240L1723 2240Q1812 2240 1868.5 2219 1925 2198 1925 2155L1925 2155Q1925 2117 1867 2083.5 1809 2050 1737 2050L1737 2050Q1718 2050 1694 2056 1670 2062 1650 2070L1650 2070 1378 1509Q1356 1463 1326 1438 1296 1413 1259 1413L1259 1413Q1242 1413 1198.5 1416.5 1155 1420 1105 1425 1055 1430 1016 1435 977 1440 968 1443L968 1443Q956 1492 918 1571 880 1650 829 1736.5 778 1823 727.5 1896.5 677 1970 641 2009L641 2009Q613 2019 576.5 2022 540 2025 502 2025L502 2025Q458 2025 417.5 2018.5 377 2012 349 1999L349 1999Q353 1961 383.5 1924 414 1887 461 1887L461 1887Q487 1887 516 1893.5 545 1900 565 1911L565 1911 693 1643Q779 1608 830.5 1515.5 882 1423 882 1299L882 1299 811 1299Q811 1376 782.5 1441 754 1506 707 1545 660 1584 604 1584L604 1584Q538 1584 480.5 1534 423 1484 387.5 1398.5 352 1313 352 1208L352 1208Q352 1124 383.5 1061 415 998 471.5 963 528 928 603 928L603 928Q680 928 735 954 790 980 825 1044L825 1044Q946 1044 1048 1120.5 1150 1197 1223 1319L1223 1319 1056 1489 1162 1489 1815 785Q1865 732 1908 732L1908 732Q1929 732 1944 750.5 1959 769 1972 823L1972 823 2185 1748Q2278 1754 2327.5 1783 2377 1812 2377 1850L2377 1850Q2377 1873 2357 1886.5 2337 1900 2307 1900L2307 1900 2145 1900Q2105 1900 2085 1874 2065 1848 2048 1772L2048 1772 1856 937 1308 1509 1364 1564 1513 1412Q1585 1412 1659 1405 1733 1398 1792 1383 1851 1368 1878 1345L1878 1345 1947 1644Q1874 1686 1778.5 1710.5 1683 1735 1574 1735L1574 1735Q1501 1735 1417.5 1724.5 1334 1714 1251.5 1695 1169 1676 1097 1652 1025 1628 973 1601L973 1601Q1033 1592 1078 1577.5 1123 1563 1153 1551 1183 1539 1199 1539L1199 1539Q1219 1539 1236.5 1556 1254 1573 1277 1619L1277 1619 1536 2126Q1565 2182 1612 2211 1659 2240 1723 2240ZM558 864L632 870Q571 658 484.5 486.5 398 315 273 160L273 160 221 207Q334 346 415.5 504.5 497 663 558 864L558 864ZM675 877L746 882Q721 682 682 501.5 643 321 593 172L593 172 527 195Q561 297 587.5 401.5 614 506 635.5 622 657 738 675 877L675 877ZM1094 1109L1322 1124 1451 850Q1464 822 1480 822L1480 822Q1499 822 1505 848L1505 848 1538 996 1654 906 1598 706Q1589 673 1560 651.5 1531 630 1496 630L1496 630Q1428 630 1361 727L1361 727 1094 1109ZM1860 1267L1860 1267 1819 1092 1697 1220Q1737 1227 1780 1238.5 1823 1250 1860 1267ZM1595 746L1601 786 1690 774 1684 734 1595 746ZM2145 1390L2176 1514Q2292 1486 2369 1442.5 2446 1399 2463 1352L2463 1352Q2411 1371 2366 1384 2321 1397 2292 1400L2292 1400Q2346 1356 2383.5 1314.5 2421 1273 2426 1250L2426 1250Q2328 1306 2266.5 1336.5 2205 1367 2145 1390L2145 1390ZM1562 686L1584 719 1660 671 1638 638 1562 686ZM1510 639L1543 662 1598 591 1565 568 1510 639ZM2056 918L2062 958 2167 944 2161 904 2056 918ZM2037 838L2050 876 2149 846 2136 808 2037 838ZM2007 763L2029 797 2114 744 2092 710 2007 763Z"/>
</svg>