<svg xmlns="http://www.w3.org/2000/svg"
    viewBox="0 0 2600 2400">
  <!--
Copyright 2013 Google LLC
Noto is a trademark of Google Inc.
This Font Software is licensed under the SIL Open Font License, Version 1.1. This Font Software is distributed on an "AS IS" BASIS, WITHOUT WARRANTIES OR CONDITIONS OF ANY KIND, either express or implied. See the SIL Open Font License for the specific language, permissions and limitations governing your use of this Font Software.
http://scripts.sil.org/OFL
  -->
<path d="M1535 2240L1535 2240Q1444 2240 1402.5 2201 1361 2162 1361 2082L1361 2082 1439 2080Q1439 2158 1541 2158L1541 2158Q1570 2158 1590 2156.5 1610 2155 1635 2151L1635 2151 2120 2072 2120 1231 2169 1364Q2024 1225 1954.5 1052.5 1885 880 1885 660L1885 660Q1885 607 1889 553.5 1893 500 1908 451L1908 451 1954 536Q1911 512 1840.5 476 1770 440 1689 400 1608 360 1533 324 1458 288 1405 265L1405 265 1388 173Q1446 196 1525.5 232.5 1605 269 1690.5 311 1776 353 1853 392 1930 431 1982 460L1982 460Q1972 524 1968.5 564.5 1965 605 1965 660L1965 660Q1965 855 2022 1008 2079 1161 2200 1288L2200 1288 2200 2141 1651 2229Q1615 2235 1586.5 2237.5 1558 2240 1535 2240ZM1126 1970L1126 1970Q969 1970 783 1947.5 597 1925 419 1885L419 1885 435 1806Q602 1844 785.5 1867 969 1890 1125 1890L1125 1890Q1162 1890 1193 1889 1224 1888 1254 1885L1254 1885 1254 1966Q1220 1969 1188 1969.5 1156 1970 1126 1970ZM1168 1653L1168 1653Q1063 1653 935 1640.5 807 1628 674.5 1606 542 1584 422 1556L422 1556 438 1477Q538 1500 665.5 1522.5 793 1545 924 1559 1055 1573 1166 1573L1166 1573Q1192 1573 1212.5 1572.5 1233 1572 1255 1570L1255 1570 1255 1650Q1233 1652 1211 1652.5 1189 1653 1168 1653ZM1065 2240L1065 2240Q1043 2240 1014 2237.5 985 2235 949 2229L949 2229 400 2141 400 1288Q521 1161 578 1008 635 855 635 660L635 660Q635 605 631.5 564.5 628 524 618 460L618 460Q671 431 747.5 392 824 353 909.5 311 995 269 1074.5 232.5 1154 196 1212 173L1212 173 1195 265Q1143 288 1067.5 324 992 360 911 400 830 440 759.5 476 689 512 646 536L646 536 692 451Q707 500 711 553.5 715 607 715 660L715 660Q715 880 645.5 1052.5 576 1225 431 1364L431 1364 480 1231 480 2072 965 2151Q991 2155 1011 2156.5 1031 2158 1059 2158L1059 2158Q1161 2158 1161 2080L1161 2080 1239 2082Q1239 2162 1197.5 2201 1156 2240 1065 2240ZM1474 1970L1474 1970Q1444 1970 1412 1969.5 1380 1969 1346 1966L1346 1966 1346 1885Q1376 1888 1407 1889 1438 1890 1475 1890L1475 1890Q1631 1890 1815 1867 1999 1844 2165 1806L2165 1806 2181 1885Q2003 1925 1817 1947.5 1631 1970 1474 1970ZM907 1598L829 1598 829 379 907 359 907 1598ZM1161 2123L1161 2123 1161 1291Q1161 1190 1153.5 1121 1146 1052 1131.5 997 1117 942 1097 884L1097 884Q1045 733 1034 616.5 1023 500 1023 430L1023 430Q1023 355 1060.5 294 1098 233 1161 196.5 1224 160 1300 160L1300 160Q1377 160 1439.5 196.5 1502 233 1539.5 294 1577 355 1577 430L1577 430Q1577 500 1566 616.5 1555 733 1503 884L1503 884Q1483 942 1468.5 997 1454 1052 1446.5 1121 1439 1190 1439 1291L1439 1291 1439 2123Q1398 2119 1365 2117.5 1332 2116 1300 2116L1300 2116Q1268 2116 1235 2117.5 1202 2119 1161 2123ZM1432 1653L1432 1653Q1411 1653 1389 1652.5 1367 1652 1345 1650L1345 1650 1345 1570Q1368 1572 1388.5 1572.5 1409 1573 1434 1573L1434 1573Q1545 1573 1676 1559 1807 1545 1934.5 1522.5 2062 1500 2162 1477L2162 1477 2178 1556Q2058 1584 1925.5 1606 1793 1628 1665.5 1640.5 1538 1653 1432 1653ZM1771 1598L1693 1598 1693 359 1771 379 1771 1598Z"/>
</svg>