<svg xmlns="http://www.w3.org/2000/svg"
    viewBox="0 0 2600 2400">
  <!--
Copyright 2013 Google LLC
Noto is a trademark of Google Inc.
This Font Software is licensed under the SIL Open Font License, Version 1.1. This Font Software is distributed on an "AS IS" BASIS, WITHOUT WARRANTIES OR CONDITIONS OF ANY KIND, either express or implied. See the SIL Open Font License for the specific language, permissions and limitations governing your use of this Font Software.
http://scripts.sil.org/OFL
  -->
<path d="M1005 2240L1005 2240Q892 2240 814.5 2178.5 737 2117 685 1986L685 1986 761 1959Q803 2066 861 2113 919 2160 1005 2160L1005 2160Q1055 2160 1098.5 2140.5 1142 2121 1192.5 2076.5 1243 2032 1309.5 1955.5 1376 1879 1470 1765L1470 1765Q1578 1634 1649.5 1535.5 1721 1437 1761.5 1357 1802 1277 1819 1202.5 1836 1128 1836 1046L1836 1046Q1836 915 1790.5 803 1745 691 1663 607.5 1581 524 1472 477 1363 430 1236 430L1236 430Q1101 430 986 481 871 532 792 623.5 713 715 683 837L683 837 658 714Q753 540 904 445 1055 350 1236 350L1236 350Q1380 350 1503.5 403 1627 456 1719.5 551 1812 646 1864 772.5 1916 899 1916 1046L1916 1046Q1916 1134 1898.5 1214 1881 1294 1838.5 1379.5 1796 1465 1721.5 1570.5 1647 1676 1532 1815L1532 1815Q1432 1936 1359.5 2017.5 1287 2099 1229.5 2148 1172 2197 1119 2218.5 1066 2240 1005 2240ZM1070 1519L1070 1519Q1032 1519 1002 1493 972 1467 946 1427L946 1427 879 1320 961 1199 1069 1251Q1189 1309 1189 1400L1189 1400Q1189 1452 1155.5 1485.5 1122 1519 1070 1519ZM1003 1823L1003 1823Q934 1823 893.5 1786 853 1749 853 1685L853 1685Q853 1647 871 1616 889 1585 924 1550L924 1550Q948 1526 956 1512 964 1498 964 1485L964 1485Q964 1474 950 1461.5 936 1449 899 1427L899 1427Q860 1404 838.5 1376 817 1348 817 1319L817 1319 902 1319 1036 1481Q1036 1515 1022 1547 1008 1579 981 1606L981 1606Q955 1632 944 1647 933 1662 933 1685L933 1685Q933 1743 1003 1743L1003 1743Q1038 1743 1080 1702.5 1122 1662 1208 1552L1208 1552Q1291 1447 1322.5 1375 1354 1303 1354 1221L1354 1221Q1354 1150 1321 1092.5 1288 1035 1232 1001 1176 967 1107 967L1107 967 1107 887Q1199 887 1273 931.5 1347 976 1390.5 1051.5 1434 1127 1434 1221L1434 1221Q1434 1316 1397 1402 1360 1488 1270 1602L1270 1602Q1206 1683 1161 1731.5 1116 1780 1079.5 1801.5 1043 1823 1003 1823ZM914 1330L888 1374Q754 1295 654 1193.5 554 1092 499.5 979 445 866 445 755L445 755Q445 641 488 542.5 531 444 611.5 372 692 300 804 267L804 267 818 315Q666 360 580.5 480.5 495 601 495 755L495 755Q495 857 546.5 961.5 598 1066 692.5 1161 787 1256 914 1330L914 1330ZM956 1291L929 1327Q739 1178 646 1041.5 553 905 553 755L553 755Q553 621 630 508 707 395 883 322L883 322 903 363Q738 430 668 533 598 636 598 755L598 755Q598 894 686 1021 774 1148 956 1291L956 1291ZM985 1229L949 1265Q845 1162 778 1074 711 986 679.5 907.5 648 829 648 755L648 755Q648 660 699 583 750 506 850 448L850 448 876 492Q787 543 742.5 608 698 673 698 755L698 755Q698 822 728 894 758 966 821.5 1048 885 1130 985 1229L985 1229ZM1616 1367L1616 1367 1544 1333Q1582 1255 1598 1190.5 1614 1126 1614 1056L1614 1056Q1614 937 1564.5 844 1515 751 1429 697.5 1343 644 1232 644L1232 644Q1082 644 988.5 729.5 895 815 895 952L895 952Q895 1057 937.5 1130.5 980 1204 1069 1257L1069 1257 1068 1273Q943 1236 879 1155 815 1074 815 952L815 952Q815 838 868.5 750.5 922 663 1016 613.5 1110 564 1232 564L1232 564Q1365 564 1469 628 1573 692 1633.5 803.5 1694 915 1694 1056L1694 1056Q1694 1134 1675.5 1208 1657 1282 1616 1367ZM1845 1356L1845 1356 1860 1252Q1965 1211 2020 1129 2075 1047 2075 932L2075 932Q2075 801 2006 677.5 1937 554 1819.5 455 1702 356 1554.5 298 1407 240 1249 240L1249 240Q1161 240 1079.5 252 998 264 921 295L921 295 975 441 824 536 755 272 875 228Q971 193 1062.5 176.5 1154 160 1249 160L1249 160Q1423 160 1585.5 224.5 1748 289 1876.5 398.5 2005 508 2080 646 2155 784 2155 932L2155 932Q2155 1077 2079 1181 2003 1285 1845 1356ZM2048 662L2048 662Q1986 522 1866 424L1866 424Q1879 419 1894 415.5 1909 412 1923 412L1923 412Q1988 412 2033.5 458 2079 504 2079 569L2079 569Q2079 594 2070.5 618 2062 642 2048 662ZM1754 230L1718 306 1619 256 1659 182 1754 230Z"/>
</svg>