<svg xmlns="http://www.w3.org/2000/svg"
    viewBox="0 0 2600 2400">
  <!--
Copyright 2013 Google LLC
Noto is a trademark of Google Inc.
This Font Software is licensed under the SIL Open Font License, Version 1.1. This Font Software is distributed on an "AS IS" BASIS, WITHOUT WARRANTIES OR CONDITIONS OF ANY KIND, either express or implied. See the SIL Open Font License for the specific language, permissions and limitations governing your use of this Font Software.
http://scripts.sil.org/OFL
  -->
<path d="M1488 2240L1488 2240Q1160 2239 920.5 2192.5 681 2146 513.5 2049.5 346 1953 232 1802L232 1802 232 1743Q358 1741 458.5 1723 559 1705 646 1664.5 733 1624 816.5 1555.5 900 1487 993 1385L993 1385Q1139 1225 1244.5 1150 1350 1075 1444 1075L1444 1075Q1503 1075 1561.5 1101 1620 1127 1668 1171 1716 1215 1745 1270.5 1774 1326 1774 1385L1774 1385Q1774 1465 1735.5 1570.5 1697 1676 1621 1819L1621 1819Q1592 1919 1557.5 2027.5 1523 2136 1488 2240ZM1020 1745L672 2073 622 2023 970 1696 1020 1745ZM1146 1894L941 2160 884 2119 1090 1854 1146 1894ZM1358 1863L1215 2184 1151 2154 1295 1834 1358 1863ZM1421 2160L1421 2160Q1441 2111 1462.5 2051.5 1484 1992 1506 1924 1528 1856 1549 1784L1549 1784Q1621 1647 1657.5 1552.5 1694 1458 1694 1390L1694 1390Q1694 1328 1655 1274.5 1616 1221 1557.5 1188 1499 1155 1440 1155L1440 1155Q1364 1155 1275.5 1221.5 1187 1288 1059 1432L1059 1432Q937 1570 830 1652.5 723 1735 601.5 1773.5 480 1812 314 1817L314 1817 321 1787Q419 1900 568.5 1984 718 2068 929 2114 1140 2160 1421 2160ZM1610 1774L1550 1825Q1446 1703 1306.5 1605.5 1167 1508 1015 1449L1015 1449 1043 1375Q1145 1412 1249.5 1474 1354 1536 1447.5 1613.5 1541 1691 1610 1774L1610 1774ZM1707 1593L1646 1653Q1560 1564 1488.5 1503 1417 1442 1338 1394 1259 1346 1148 1297L1148 1297 1185 1226Q1291 1273 1379 1325.5 1467 1378 1546.5 1442.5 1626 1507 1707 1593L1707 1593ZM1718 1319L1718 1319 1696 1251Q1730 1227 1749.5 1190.5 1769 1154 1769 1121L1769 1121Q1769 1090 1748 1063 1727 1036 1697.5 1019 1668 1002 1640 1002L1640 1002Q1611 1002 1582 1021.5 1553 1041 1531.5 1069.5 1510 1098 1501 1125L1501 1125 1436 1125Q1436 1074 1466.5 1027.5 1497 981 1543 951.5 1589 922 1637 922L1637 922Q1688 922 1736.5 950 1785 978 1816.5 1022.5 1848 1067 1848 1119L1848 1119Q1848 1156 1829.5 1202 1811 1248 1781 1282 1751 1316 1718 1319ZM2347 381L1839 1117 1773 1073 2278 339Q2287 325 2287 311L2287 311Q2287 279 2258.5 259 2230 239 2204 239L2204 239Q2180 239 2169 254L2169 254 1661 993 1595 949 2103 213Q2139 160 2207 160L2207 160Q2269 160 2318.5 205.5 2368 251 2368 312L2368 312Q2368 349 2347 381L2347 381Z"/>
</svg>