<svg xmlns="http://www.w3.org/2000/svg"
    viewBox="0 0 2600 2400">
  <!--
Copyright 2013, 2022 Google Inc. All Rights Reserved.
Noto is a trademark of Google Inc.
This Font Software is licensed under the SIL Open Font License, Version 1.1. This Font Software is distributed on an "AS IS" BASIS, WITHOUT WARRANTIES OR CONDITIONS OF ANY KIND, either express or implied. See the SIL Open Font License for the specific language, permissions and limitations governing your use of this Font Software.
http://scripts.sil.org/OFL
  -->
<path d="M1300 2240L1300 2240Q1066 2240 930.5 2202.5 795 2165 737.5 2074.5 680 1984 680 1827L680 1827Q680 1648 708.5 1475 737 1302 781.5 1142.5 826 983 875 843L875 843Q894 789 947 752.5 1000 716 1103 688L1103 688 1123 769Q1040 791 1000.5 814 961 837 950 870L950 870Q858 1133 809 1373.5 760 1614 760 1827L760 1827Q760 1958 806.5 2030.5 853 2103 970.5 2131.5 1088 2160 1300 2160L1300 2160Q1513 2160 1630 2131.5 1747 2103 1793.5 2030.5 1840 1958 1840 1827L1840 1827Q1840 1617 1791.5 1377.5 1743 1138 1650 870L1650 870Q1639 838 1599.5 814.5 1560 791 1477 769L1477 769 1497 688Q1601 717 1653.5 753.5 1706 790 1725 843L1725 843Q1774 983 1818.5 1142.5 1863 1302 1891.5 1475 1920 1648 1920 1827L1920 1827Q1920 1984 1862.5 2074.5 1805 2165 1670 2202.5 1535 2240 1300 2240ZM1300 1814L1300 1814Q1183 1814 1108.5 1739.5 1034 1665 1034 1548L1034 1548Q1034 1494 1055 1434.5 1076 1375 1107 1318.5 1138 1262 1169 1216 1200 1170 1220 1143L1220 1143Q1259 1093 1300 1093L1300 1093Q1344 1093 1380 1144L1380 1144Q1400 1171 1430.5 1216.5 1461 1262 1492.5 1318.5 1524 1375 1545 1434.5 1566 1494 1566 1548L1566 1548Q1566 1665 1491.5 1739.5 1417 1814 1300 1814ZM1300 1734L1300 1734Q1384 1734 1435 1682.5 1486 1631 1486 1548L1486 1548Q1486 1489 1457.5 1424 1429 1359 1391.5 1300 1354 1241 1326 1202L1326 1202Q1310 1179 1300 1179L1300 1179Q1290 1179 1274 1202L1274 1202Q1247 1241 1209 1300 1171 1359 1142.5 1424 1114 1489 1114 1548L1114 1548Q1114 1632 1165.5 1683 1217 1734 1300 1734ZM1300 901L1300 901Q1192 901 1127 873.5 1062 846 1062 798L1062 798 1062 639Q1062 591 1126.5 564 1191 537 1300 537L1300 537Q1410 537 1474.5 564 1539 591 1539 639L1539 639 1539 798Q1539 846 1474 873.5 1409 901 1300 901ZM1300 820L1300 820Q1360 820 1399.5 812.5 1439 805 1458 790L1458 790 1458 648Q1440 633 1401 625.5 1362 618 1300 618L1300 618Q1239 618 1199.5 625.5 1160 633 1143 648L1143 648 1143 790Q1161 805 1201 812.5 1241 820 1300 820ZM1302 666L1302 666Q1275 666 1255 661L1255 661 1255 398 1350 398 1350 661Q1332 666 1302 666ZM1277 445L1277 445Q1176 445 1055 356L1055 356 1137 165Q1162 171 1197.5 176 1233 181 1266 184 1299 187 1316 187L1316 187Q1333 187 1357 184 1381 181 1412 176L1412 176Q1457 168 1493.5 164 1530 160 1564 160L1564 160Q1622 160 1686 181.5 1750 203 1796 239L1796 239 1707 438Q1657 411 1631.5 401.5 1606 392 1580 392L1580 392Q1563 392 1542 396 1521 400 1486 411L1486 411Q1447 423 1397 434 1347 445 1277 445ZM1277 365L1277 365Q1339 365 1382 356 1425 347 1462 335L1462 335Q1503 322 1530 317 1557 312 1580 312L1580 312Q1624 312 1668 330L1668 330 1694 271Q1630 240 1564 240L1564 240Q1533 240 1500.5 243 1468 246 1426 254L1426 254Q1392 261 1364.5 264 1337 267 1316 267L1316 267Q1293 267 1256 263.5 1219 260 1185 256L1185 256 1155 326Q1226 365 1277 365Z"/>
</svg>