<svg xmlns="http://www.w3.org/2000/svg"
    viewBox="0 0 2600 2400">
  <!--
Copyright 2013, 2022 Google Inc. All Rights Reserved.
Noto is a trademark of Google Inc.
This Font Software is licensed under the SIL Open Font License, Version 1.1. This Font Software is distributed on an "AS IS" BASIS, WITHOUT WARRANTIES OR CONDITIONS OF ANY KIND, either express or implied. See the SIL Open Font License for the specific language, permissions and limitations governing your use of this Font Software.
http://scripts.sil.org/OFL
  -->
<path d="M529 2240L529 2240Q459 2240 404 2208.5 349 2177 317.5 2123 286 2069 286 2000L286 2000Q286 1953 304 1909 322 1865 354 1832L354 1832 1928 211Q1978 160 2052 160L2052 160Q2121 160 2180.5 195 2240 230 2277 286 2314 342 2314 407L2314 407Q2314 438 2304.5 463.5 2295 489 2277 508L2277 508 691 2175Q659 2209 616 2224.5 573 2240 529 2240ZM509 2109L509 2109Q470 2109 440.5 2080 411 2051 411 2011L411 2011Q411 1977 434 1954 457 1931 491 1931L491 1931Q530 1931 559.5 1960 589 1989 589 2029L589 2029Q589 2063 566.5 2086 544 2109 509 2109ZM524 2160L524 2160Q580 2160 616.5 2123.5 653 2087 653 2031L653 2031Q653 1961 608 1916 563 1871 495 1871L495 1871Q440 1871 403 1907.5 366 1944 366 2000L366 2000Q366 2070 411.5 2115 457 2160 524 2160ZM827 1725L827 1725Q796 1725 773.5 1702.5 751 1680 751 1649L751 1649Q751 1618 773.5 1595.5 796 1573 827 1573L827 1573Q858 1573 880.5 1595.5 903 1618 903 1649L903 1649Q903 1680 880.5 1702.5 858 1725 827 1725ZM1028 1518L1028 1518Q999 1518 977.5 1496.5 956 1475 956 1446L956 1446Q956 1417 977.5 1395.5 999 1374 1028 1374L1028 1374Q1057 1374 1078.5 1395.5 1100 1417 1100 1446L1100 1446Q1100 1475 1078.5 1496.5 1057 1518 1028 1518ZM795 1950L795 1950 1871 818Q1850 734 1791.5 678.5 1733 623 1653 609L1653 609 564 1731Q567 1731 570 1731 573 1731 576 1731L576 1731Q633 1731 683 1762 733 1793 764 1843 795 1893 795 1950ZM1229 1312L1229 1312Q1201 1312 1181 1292 1161 1272 1161 1244L1161 1244Q1161 1216 1181 1196 1201 1176 1229 1176L1229 1176Q1257 1176 1277 1196 1297 1216 1297 1244L1297 1244Q1297 1272 1277 1292 1257 1312 1229 1312ZM1431 1105L1431 1105Q1404 1105 1385 1086 1366 1067 1366 1040L1366 1040Q1366 1013 1385 994 1404 975 1431 975L1431 975Q1458 975 1477 994 1496 1013 1496 1040L1496 1040Q1496 1067 1477 1086 1458 1105 1431 1105ZM1993 690L1993 690 2216 456Q2227 445 2230.5 433 2234 421 2234 408L2234 408Q2234 365 2207.5 326.5 2181 288 2139 264 2097 240 2050 240L2050 240Q2012 240 1983 269L1983 269 1779 479Q1853 495 1911.5 551.5 1970 608 1993 690ZM2026 481L2026 481Q2001 481 1982.5 462.5 1964 444 1964 419L1964 419Q1964 393 1982.5 375 2001 357 2026 357L2026 357Q2052 357 2070 375 2088 393 2088 419L2088 419Q2088 444 2070 462.5 2052 481 2026 481Z"/>
</svg>