<svg xmlns="http://www.w3.org/2000/svg"
    viewBox="0 0 2600 2400">
  <!--
Copyright 2013, 2022 Google Inc. All Rights Reserved.
Noto is a trademark of Google Inc.
This Font Software is licensed under the SIL Open Font License, Version 1.1. This Font Software is distributed on an "AS IS" BASIS, WITHOUT WARRANTIES OR CONDITIONS OF ANY KIND, either express or implied. See the SIL Open Font License for the specific language, permissions and limitations governing your use of this Font Software.
http://scripts.sil.org/OFL
  -->
<path d="M1177 1992L1177 1992Q1113 1992 1063 1955.5 1013 1919 984 1858L984 1858Q948 1780 929 1702.5 910 1625 891 1546 872 1467 836 1387L836 1387Q814 1337 792.5 1306.5 771 1276 736 1249.5 701 1223 638 1186L638 1186Q474 1088 378 1000.5 282 913 241 816 200 719 200 595L200 595Q200 475 256 376.5 312 278 406 219 500 160 615 160L615 160Q713 160 800.5 206.5 888 253 956 332 1024 411 1063 510 1102 609 1102 715L1102 715Q1102 766 1093 823.5 1084 881 1073 936L1073 936Q1063 985 1056 1030 1049 1075 1049 1110L1049 1110Q1049 1171 1073 1237.5 1097 1304 1161 1390L1161 1390Q1246 1503 1293.5 1576 1341 1649 1360.5 1698 1380 1747 1380 1791L1380 1791Q1380 1875 1324.5 1933.5 1269 1992 1177 1992ZM501 1200L467 1250Q346 1169 262 1087.5 178 1006 130 914L130 914 184 886Q228 971 305.5 1046 383 1121 501 1200L501 1200ZM367 954L367 954 282 797 241 639Q253 620 275 620L275 620Q298 620 308 637.5 318 655 318 677L318 677Q318 700 314 714.5 310 729 310 749L310 749Q310 760 312 766L312 766Q319 758 324.5 746.5 330 735 336 719L336 719Q359 656 396 656L396 656Q413 656 425.5 669 438 682 438 699L438 699Q438 715 422.5 731 407 747 375 759L375 759Q363 763 352.5 769 342 775 333 780L333 780Q338 781 350 781L350 781Q359 781 367 780 375 779 386 778L386 778Q397 776 406 776 415 776 423 776L423 776Q441 776 456 787.5 471 799 471 820L471 820Q471 839 460 852 449 865 432 865L432 865Q420 865 408 860 396 855 376 839L376 839Q363 828 349.5 819 336 810 323 804L323 804Q328 817 336 831.5 344 846 354 860L354 860Q368 879 376 893 384 907 384 918L384 918Q384 941 367 954ZM1177 1912L1177 1912Q1233 1912 1266.5 1879 1300 1846 1300 1791L1300 1791Q1300 1759 1282 1717.5 1264 1676 1220 1609.5 1176 1543 1097 1438L1097 1438Q1026 1343 997.5 1262.5 969 1182 969 1110L969 1110Q969 1069 977 1020 985 971 995 920L995 920Q1006 867 1014 814 1022 761 1022 715L1022 715Q1022 601 971 498.5 920 396 840 329L840 329Q803 380 740.5 426 678 472 601.5 508.5 525 545 446.5 566 368 587 299 587L299 587Q295 587 290 587 285 587 280 587L280 587Q280 588 280 590.5 280 593 280 595L280 595Q280 705 317 790.5 354 876 441 953 528 1030 678 1117L678 1117Q746 1156 787.5 1188.5 829 1221 856.5 1259 884 1297 909 1355L909 1355Q948 1443 968 1523.5 988 1604 1005.5 1678.5 1023 1753 1056 1824L1056 1824Q1077 1868 1107.5 1890 1138 1912 1177 1912ZM719 1199L719 1199 390 973Q403 975 416.5 976 430 977 444 977L444 977Q559 977 679 939 799 901 899.5 833 1000 765 1055 674L1055 674 1012 1079Q966 1134 893.5 1166.5 821 1199 719 1199ZM604 857L604 857Q587 857 573.5 845 560 833 560 815L560 815Q560 787 612 754L612 754Q633 740 645.5 729 658 718 668 705L668 705Q678 691 684 676.5 690 662 694 637L694 637Q699 612 710 588.5 721 565 746 565L746 565Q764 565 777 577.5 790 590 790 607L790 607Q790 622 777 637 764 652 738 668L738 668Q700 692 682 715L682 715Q672 728 666.5 744 661 760 656 785L656 785Q641 857 604 857ZM728 868L728 868Q706 868 694.5 849 683 830 680 787L680 787Q679 761 675.5 745.5 672 730 666 714L666 714Q660 699 650 686.5 640 674 621 658L621 658Q579 624 579 596L579 596Q579 579 592 566.5 605 554 622 554L622 554Q669 554 669 635L669 635Q669 660 672.5 676 676 692 683 706L683 706Q690 721 700 734 710 747 729 764L729 764Q751 783 761 798 771 813 771 826L771 826Q771 844 758 856 745 868 728 868ZM803 764L803 764Q780 764 743 744L743 744Q721 732 703.5 725.5 686 719 671 719L671 719Q644 719 602 732L602 732Q572 741 553 741L553 741Q531 741 519 729.5 507 718 507 700L507 700Q507 683 518.5 670.5 530 658 548 658L548 658Q570 658 607 678L607 678Q629 690 646 696 663 702 676 702L676 702Q695 702 710 699.5 725 697 748 690L748 690Q764 685 778 683 792 681 804 681L804 681Q821 681 832 692.5 843 704 843 721L843 721Q843 739 832 751.5 821 764 803 764ZM357 478L357 478Q375 478 384 459L384 459Q399 428 422.5 400.5 446 373 481 353L481 353Q496 344 496 325L496 325Q496 313 487 305 478 297 466 297L466 297Q445 297 411.5 327 378 357 352 393.5 326 430 326 449L326 449Q326 462 336.5 470 347 478 357 478ZM917 638L917 638Q900 638 887 626 874 614 874 598L874 598Q874 585 883.5 569 893 553 914 534L914 534Q931 518 938 510.5 945 503 951 494L951 494Q933 495 901 515L901 515Q888 523 872 528 856 533 843 533L843 533Q802 533 802 492L802 492Q802 474 813.5 461 825 448 845 448L845 448Q854 448 866.5 451 879 454 895 460L895 460Q914 467 924 468.5 934 470 950 472L950 472Q941 461 929.5 453 918 445 905 438L905 438Q877 421 865 406.5 853 392 853 376L853 376Q853 341 888 336L888 336 998 453 1056 636Q1025 636 1009.5 619 994 602 988 562L988 562Q985 542 982 530 979 518 973 507L973 507Q970 519 968 529.5 966 540 966 555L966 555Q966 638 917 638ZM1598 2160L1598 2160Q1685 2160 1722 2060L1722 2060Q1752 1979 1761.5 1903 1771 1827 1782.5 1748 1794 1669 1828 1579L1828 1579Q1853 1514 1884 1467.5 1915 1421 1971.5 1374.5 2028 1328 2128 1262L2128 1262Q2266 1170 2328 1062.5 2390 955 2390 810L2390 810Q2390 807 2390 803.5 2390 800 2390 797L2390 797Q2387 797 2383.5 797 2380 797 2377 797L2377 797Q2308 797 2228 775.5 2148 754 2071 717.5 1994 681 1931.5 633.5 1869 586 1833 535L1833 535Q1754 598 1706 698 1658 798 1658 915L1658 915Q1658 959 1668 1011.5 1678 1064 1704 1156L1704 1156Q1727 1238 1737 1286.5 1747 1335 1747 1372L1747 1372Q1747 1436 1723 1514 1699 1592 1649 1678L1649 1678Q1589 1781 1554 1843.5 1519 1906 1502.5 1940.5 1486 1975 1481 1996 1476 2017 1476 2038L1476 2038Q1476 2093 1509.5 2126.5 1543 2160 1598 2160ZM1508 1078L1450 1092Q1438 1040 1433 997.5 1428 955 1428 915L1428 915Q1428 841 1442.5 769.5 1457 698 1483 634L1483 634 1539 656Q1514 717 1501 781.5 1488 846 1488 915L1488 915Q1488 952 1493 990.5 1498 1029 1508 1078L1508 1078ZM1598 2240L1598 2240Q1507 2240 1451.5 2181.5 1396 2123 1396 2038L1396 2038Q1396 2009 1402.5 1982 1409 1955 1427.5 1914.5 1446 1874 1482.5 1808.5 1519 1743 1579 1638L1579 1638Q1625 1559 1646 1492.5 1667 1426 1667 1372L1667 1372Q1667 1341 1658.5 1299 1650 1257 1627 1178L1627 1178Q1599 1083 1588.5 1024 1578 965 1578 915L1578 915Q1578 805 1616 706.5 1654 608 1721 532.5 1788 457 1877 413.5 1966 370 2068 370L2068 370Q2185 370 2275.5 425 2366 480 2418 579 2470 678 2470 810L2470 810Q2470 976 2397 1102 2324 1228 2172 1329L2172 1329Q2077 1392 2026 1432.5 1975 1473 1949.5 1511.5 1924 1550 1903 1607L1903 1607Q1873 1689 1860.5 1768.5 1848 1848 1837 1927 1826 2006 1797 2088L1797 2088Q1773 2158 1721.5 2199 1670 2240 1598 2240ZM1252 710L1192 710Q1192 618 1164.5 528.5 1137 439 1087 358L1087 358 1137 326Q1191 412 1221.5 511 1252 610 1252 710L1252 710ZM2286 1183L1957 1409Q1855 1409 1790.5 1375.5 1726 1342 1694 1287L1694 1287 1621 884Q1677 975 1777 1043 1877 1111 1997 1149 2117 1187 2232 1187L2232 1187Q2246 1187 2259.5 1186 2273 1185 2286 1183L2286 1183ZM1390 653L1330 657Q1323 572 1298.5 491.5 1274 411 1234 335L1234 335 1288 307Q1329 386 1356 474 1383 562 1390 653L1390 653ZM2189 1510L2189 1510 2155 1460Q2203 1430 2247.5 1398 2292 1366 2330.5 1333.5 2369 1301 2398 1271L2398 1271 2440 1314Q2423 1333 2382.5 1366.5 2342 1400 2291 1438 2240 1476 2189 1510ZM1759 848L1759 848Q1710 848 1710 765L1710 765Q1710 750 1708 739.5 1706 729 1703 717L1703 717Q1697 728 1694 740 1691 752 1688 772L1688 772Q1682 812 1666.5 829 1651 846 1620 846L1620 846 1678 663 1788 546Q1823 551 1823 586L1823 586Q1823 602 1811 616.5 1799 631 1771 648L1771 648Q1758 655 1746.5 663 1735 671 1726 682L1726 682Q1742 680 1752 678.5 1762 677 1781 670L1781 670Q1797 664 1809.5 661 1822 658 1831 658L1831 658Q1851 658 1862.5 671 1874 684 1874 702L1874 702Q1874 743 1833 743L1833 743Q1820 743 1804.5 738 1789 733 1775 725L1775 725Q1743 705 1725 704L1725 704Q1731 713 1738 720.5 1745 728 1762 744L1762 744Q1783 763 1792.5 779 1802 795 1802 808L1802 808Q1802 824 1789 836 1776 848 1759 848ZM2072 1067L2072 1067Q2035 1067 2020 995L2020 995Q2015 970 2009.5 954 2004 938 1994 925L1994 925Q1976 902 1938 878L1938 878Q1913 862 1899.5 847 1886 832 1886 817L1886 817Q1886 800 1899 787.5 1912 775 1930 775L1930 775Q1956 775 1967 798.5 1978 822 1982 847L1982 847Q1987 872 1992.5 886.5 1998 901 2008 915L2008 915Q2026 939 2064 964L2064 964Q2116 997 2116 1025L2116 1025Q2116 1043 2102.5 1055 2089 1067 2072 1067ZM1948 1078L1948 1078Q1932 1078 1918.5 1066 1905 1054 1905 1036L1905 1036Q1905 1023 1915 1008 1925 993 1947 974L1947 974Q1966 957 1976 944 1986 931 1993 916L1993 916Q2000 902 2003.5 886 2007 870 2007 845L2007 845Q2007 764 2054 764L2054 764Q2071 764 2084 776.5 2097 789 2097 806L2097 806Q2097 834 2055 868L2055 868Q2036 884 2026 896.5 2016 909 2010 924L2010 924Q2004 940 2001 955.5 1998 971 1996 997L1996 997Q1993 1040 1981.5 1059 1970 1078 1948 1078ZM1873 974L1873 974Q1855 974 1844 961.5 1833 949 1833 931L1833 931Q1833 914 1844.5 902.5 1856 891 1872 891L1872 891Q1886 891 1900.5 893.5 1915 896 1928 900L1928 900Q1948 906 1963.5 909 1979 912 2000 912L2000 912Q2013 912 2030.5 906.5 2048 901 2069 888L2069 888Q2102 868 2128 868L2128 868Q2146 868 2157.5 880.5 2169 893 2169 910L2169 910Q2169 928 2157 939.5 2145 951 2123 951L2123 951Q2104 951 2074 942L2074 942Q2032 929 2005 929L2005 929Q1990 929 1972.5 935.5 1955 942 1933 954L1933 954Q1896 974 1873 974ZM2394 1007L2309 1164Q2292 1151 2292 1128L2292 1128Q2292 1117 2300 1103 2308 1089 2322 1070L2322 1070Q2333 1056 2340.5 1041.5 2348 1027 2353 1014L2353 1014Q2340 1020 2327 1029 2314 1038 2300 1049L2300 1049Q2281 1065 2268.5 1070 2256 1075 2244 1075L2244 1075Q2228 1075 2216.5 1062 2205 1049 2205 1030L2205 1030Q2205 1009 2220 997.5 2235 986 2253 986L2253 986Q2261 986 2270 986 2279 986 2290 988L2290 988Q2301 989 2309 990 2317 991 2326 991L2326 991Q2338 991 2343 990L2343 990Q2334 985 2323.5 979 2313 973 2301 969L2301 969Q2269 957 2253.5 941 2238 925 2238 909L2238 909Q2238 892 2250.5 879 2263 866 2280 866L2280 866Q2318 866 2340 929L2340 929Q2346 945 2351.5 956.5 2357 968 2364 976L2364 976Q2366 970 2366 959L2366 959Q2366 939 2362 924.5 2358 910 2358 887L2358 887Q2358 865 2368 847.5 2378 830 2401 830L2401 830Q2423 830 2435 849L2435 849 2394 1007ZM1960 538L1960 538Q1969 538 1976 535L1976 535Q1999 524 2024 518 2049 512 2077 512L2077 512Q2087 512 2102 514 2117 516 2124 516L2124 516Q2136 516 2145 507.5 2154 499 2154 486L2154 486Q2154 451 2089 451L2089 451Q2025 451 1978.5 467.5 1932 484 1932 510L1932 510Q1932 520 1939.5 529 1947 538 1960 538Z"/>
</svg>