<svg xmlns="http://www.w3.org/2000/svg"
    viewBox="0 0 2600 2400">
  <!--
Copyright 2013, 2022 Google Inc. All Rights Reserved.
Noto is a trademark of Google Inc.
This Font Software is licensed under the SIL Open Font License, Version 1.1. This Font Software is distributed on an "AS IS" BASIS, WITHOUT WARRANTIES OR CONDITIONS OF ANY KIND, either express or implied. See the SIL Open Font License for the specific language, permissions and limitations governing your use of this Font Software.
http://scripts.sil.org/OFL
  -->
<path d="M285 2040L285 2040Q212 2040 162 2011 112 1982 112 1925L112 1925Q112 1858 179.5 1765 247 1672 371 1565 495 1458 664 1350L664 1350 701 1444Q556 1532 485 1611 414 1690 414 1752L414 1752Q414 1799 443 1816.5 472 1834 515 1834L515 1834Q570 1834 662 1809.5 754 1785 873 1738.5 992 1692 1128.5 1626 1265 1560 1409 1478L1409 1478Q1582 1380 1723.5 1282.5 1865 1185 1966.5 1097 2068 1009 2123 938 2178 867 2178 821L2178 821Q2178 783 2149.5 762 2121 741 2078 741L2078 741Q2020 741 1930.5 766.5 1841 792 1735 842L1735 842 1685 764Q1869 666 2037 613 2205 560 2317 560L2317 560Q2392 560 2440 588 2488 616 2488 677L2488 677Q2488 768 2366 904 2244 1040 2014 1208 1784 1376 1459 1565L1459 1565Q1193 1719 967.5 1825 742 1931 568.5 1985.5 395 2040 285 2040ZM1282 1937L1282 1937Q1140 1937 1015.5 1883.5 891 1830 797 1736 703 1642 650 1517.5 597 1393 597 1251L597 1251Q597 1109 650.5 984.5 704 860 798 766 892 672 1016.5 618.5 1141 565 1282 565L1282 565Q1424 565 1548.5 618.5 1673 672 1767 766.5 1861 861 1914 985 1967 1109 1967 1251L1967 1251Q1967 1393 1914 1517.5 1861 1642 1767 1736 1673 1830 1548.5 1883.5 1424 1937 1282 1937ZM1282 1859L1282 1859Q1407 1859 1517 1811.5 1627 1764 1710 1680.5 1793 1597 1840 1487 1887 1377 1887 1251L1887 1251Q1887 1126 1840 1016 1793 906 1710 822 1627 738 1517 690.5 1407 643 1282 643L1282 643Q1157 643 1047.5 690.5 938 738 854.5 822 771 906 724 1016 677 1126 677 1251L677 1251Q677 1377 724 1487 771 1597 854 1680.5 937 1764 1047 1811.5 1157 1859 1282 1859Z"/>
</svg>