<svg xmlns="http://www.w3.org/2000/svg"
    viewBox="0 0 2600 2400">
  <!--
Copyright 2013, 2022 Google Inc. All Rights Reserved.
Noto is a trademark of Google Inc.
This Font Software is licensed under the SIL Open Font License, Version 1.1. This Font Software is distributed on an "AS IS" BASIS, WITHOUT WARRANTIES OR CONDITIONS OF ANY KIND, either express or implied. See the SIL Open Font License for the specific language, permissions and limitations governing your use of this Font Software.
http://scripts.sil.org/OFL
  -->
<path d="M1255 1017L1255 672 1355 672 1355 992 1255 1017ZM933 1076L833 1087 833 757 933 757 933 1076ZM1971 1259L1971 1357Q1971 1400 1943.5 1432.5 1916 1465 1872 1473L1872 1473 1265 1580Q1210 1590 1165.5 1584 1121 1578 1073 1554L1073 1554 755 1396Q681 1359 681 1276L681 1276 681 1191Q681 1147 709 1114.5 737 1082 780 1075L780 1075 1419 963Q1460 955 1488.5 959 1517 963 1554 982L1554 982 1909 1158Q1971 1189 1971 1259L1971 1259ZM1891 1357L1891 1357 1891 1259Q1891 1239 1871 1229L1871 1229 1518 1054Q1492 1041 1476.5 1039 1461 1037 1431 1042L1431 1042 793 1154Q761 1159 761 1191L761 1191 761 1276Q761 1309 791 1324L791 1324 1109 1482Q1146 1500 1177.5 1504 1209 1508 1252 1501L1252 1501 1859 1394Q1891 1389 1891 1357ZM1116 1506L1216 1544 1216 2240 1116 2240 1116 1506ZM1250 1319L1916 1202 1930 1281 1263 1398Q1208 1408 1163.5 1401.5 1119 1395 1072 1372L1072 1372 718 1193 753 1120 1107 1300Q1144 1319 1175.5 1322.5 1207 1326 1250 1319L1250 1319ZM1785 1452L1885 1420 1885 2119 1785 2119 1785 1452ZM1406 1521L1506 1521 1506 1947 1406 1947 1406 1521ZM760 1367L860 1367 860 2056 760 2056 760 1367ZM629 698L629 698 629 356Q629 324 647.5 300 666 276 700 271L700 271 1388 162Q1433 154 1464.5 180 1496 206 1496 250L1496 250 1496 611Q1496 648 1477.5 671 1459 694 1423 700L1423 700 871 795Q836 801 803 802 770 803 735 803L735 803Q679 803 654 777 629 751 629 698ZM738 723L804 723 803 757Q783 751 775.5 737 768 723 768 711L768 711 768 352Q768 338 773 325.5 778 313 788 306L788 306 805 337 730 347Q709 350 709 371L709 371 709 697Q709 708 717.5 715.5 726 723 738 723L738 723ZM847 348L847 686Q847 698 856.5 706 866 714 878 712L878 712 1396 623Q1416 619 1416 599L1416 599 1416 270Q1416 258 1406.5 250 1397 242 1385 244L1385 244 868 324Q847 327 847 348L847 348Z"/>
</svg>