<svg xmlns="http://www.w3.org/2000/svg"
    viewBox="0 0 2600 2400">
  <!--
Copyright 2013 Google LLC
Noto is a trademark of Google Inc.
This Font Software is licensed under the SIL Open Font License, Version 1.1. This Font Software is distributed on an "AS IS" BASIS, WITHOUT WARRANTIES OR CONDITIONS OF ANY KIND, either express or implied. See the SIL Open Font License for the specific language, permissions and limitations governing your use of this Font Software.
http://scripts.sil.org/OFL
  -->
<path d="M1261 2240L1261 2240Q1206 2240 1171 2215.5 1136 2191 1136 2151L1136 2151Q1136 2118 1168.5 2064.5 1201 2011 1255.5 1948.5 1310 1886 1375.5 1824 1441 1762 1508.5 1710.5 1576 1659 1635.5 1628 1695 1597 1735 1597L1735 1597Q1810 1597 1810 1681L1810 1681Q1810 1749 1777 1826 1744 1903 1687.5 1976 1631 2049 1560 2109 1489 2169 1412 2204.5 1335 2240 1261 2240ZM1193 2075L1171 2153Q1094 2124 1012 2068 930 2012 860.5 1944.5 791 1877 748 1811 705 1745 705 1696L705 1696Q705 1657 728.5 1631 752 1605 801 1605L801 1605Q849 1605 917.5 1632.5 986 1660 1062 1705 1138 1750 1208.5 1803 1279 1856 1330 1907L1330 1907 1280 1967Q1244 1931 1181.5 1883 1119 1835 1047 1789 975 1743 909.5 1712.5 844 1682 802 1682L802 1682Q785 1682 785 1698L785 1698Q785 1730 825.5 1783.5 866 1837 929 1895.5 992 1954 1062.5 2003 1133 2052 1193 2075L1193 2075ZM1342 1951L1342 1951 1272 1945Q1274 1924 1274.5 1893 1275 1862 1275 1840L1275 1840Q1275 1802 1269 1745.5 1263 1689 1254 1643L1254 1643Q1251 1627 1261.5 1614 1272 1601 1288 1601L1288 1601Q1317 1601 1322 1629L1322 1629Q1333 1679 1339 1733.5 1345 1788 1345 1844L1345 1844Q1345 1880 1344.5 1904.5 1344 1929 1342 1951ZM1260 2160L1260 2160Q1317 2160 1381.5 2128.5 1446 2097 1507.5 2045 1569 1993 1619.5 1931 1670 1869 1700 1806 1730 1743 1730 1691L1730 1691Q1730 1677 1720 1677L1720 1677Q1697 1677 1651.5 1705.5 1606 1734 1549 1779.5 1492 1825 1434 1879 1376 1933 1326.5 1985.5 1277 2038 1246.5 2078.5 1216 2119 1216 2138L1216 2138Q1216 2148 1228.5 2154 1241 2160 1260 2160ZM897 1307L897 1307Q884 1307 877.5 1296.5 871 1286 871 1271L871 1271Q871 1249 875 1230 879 1211 879 1196L879 1196Q879 1187 859 1184 839 1181 812.5 1179 786 1177 766 1171 746 1165 746 1149L746 1149Q746 1127 773.5 1112.5 801 1098 828.5 1088 856 1078 856 1072L856 1072Q856 1065 841.5 1048 827 1031 812 1009.5 797 988 797 968L797 968Q797 950 814 950L814 950Q871 950 919 973 967 996 996 1034.5 1025 1073 1025 1118L1025 1118Q1025 1154 1002.5 1198 980 1242 950 1274.5 920 1307 897 1307ZM1102 1645L1102 1645Q1090 1645 1083 1638 1076 1631 1076 1621L1076 1621Q1076 1604 1082 1571.5 1088 1539 1088 1523L1088 1523Q1088 1493 1061 1481 1034 1469 999 1464.5 964 1460 937 1453 910 1446 910 1425L910 1425Q910 1405 936 1393 962 1381 996.5 1370.5 1031 1360 1057 1346 1083 1332 1083 1308L1083 1308Q1083 1282 1081.5 1260 1080 1238 1080 1219L1080 1219Q1080 1175 1088 1146.5 1096 1118 1118 1118L1118 1118Q1140 1118 1157.5 1143 1175 1168 1192 1201.5 1209 1235 1227.5 1260 1246 1285 1268 1285L1268 1285Q1285 1285 1311 1272 1337 1259 1365.5 1246 1394 1233 1419 1233L1419 1233Q1446 1233 1446 1259L1446 1259Q1446 1289 1423 1318.5 1400 1348 1377 1371.5 1354 1395 1354 1409L1354 1409Q1354 1422 1381 1447 1408 1472 1435 1499 1462 1526 1462 1546L1462 1546Q1462 1571 1419 1571L1419 1571Q1381 1571 1346 1557.5 1311 1544 1284 1531 1257 1518 1244 1518L1244 1518Q1229 1518 1213.5 1537 1198 1556 1181.5 1581.5 1165 1607 1145.5 1626 1126 1645 1102 1645ZM1580 1546L1580 1546Q1569 1546 1562 1526.5 1555 1507 1550 1482.5 1545 1458 1539 1443L1539 1443Q1532 1423 1527 1404.5 1522 1386 1522 1367L1522 1367Q1522 1300 1603 1281L1603 1281Q1650 1270 1685 1255 1720 1240 1732 1240L1732 1240Q1748 1240 1748 1262L1748 1262Q1748 1291 1733 1309.5 1718 1328 1703 1339 1688 1350 1688 1357L1688 1357Q1688 1364 1704 1378.5 1720 1393 1736 1411 1752 1429 1752 1447L1752 1447Q1752 1462 1733 1462L1733 1462Q1723 1462 1702 1457 1681 1452 1662.5 1447.5 1644 1443 1640 1443L1640 1443Q1631 1443 1631 1452L1631 1452Q1631 1491 1615 1518.5 1599 1546 1580 1546ZM1147 1017L1147 1017Q1128 1017 1113.5 991.5 1099 966 1087.5 933 1076 900 1066 874.5 1056 849 1046 849L1046 849Q1036 849 1013.5 866.5 991 884 962 902 933 920 902 920L902 920Q881 920 881 902L881 902Q881 873 898.5 843.5 916 814 933 790 950 766 950 755L950 755Q950 744 932 723 914 702 896 673.5 878 645 878 612L878 612Q878 588 895 588L895 588Q907 588 931.5 602 956 616 980.5 630 1005 644 1013 644L1013 644Q1023 644 1033 623 1043 602 1056 574 1069 546 1085.5 525 1102 504 1126 504L1126 504Q1155 504 1155 544L1155 544Q1155 578 1151.5 604 1148 630 1148 648L1148 648Q1148 679 1174 679L1174 679Q1203 679 1234.5 669.5 1266 660 1292 660L1292 660Q1321 660 1321 684L1321 684Q1321 709 1299 727.5 1277 746 1248.5 761 1220 776 1198 788.5 1176 801 1176 815L1176 815Q1176 831 1178.5 857.5 1181 884 1181 913L1181 913Q1181 1017 1147 1017ZM1517 1281L1517 1281Q1492 1281 1483.5 1256.5 1475 1232 1472.5 1200 1470 1168 1463 1143.5 1456 1119 1435 1119L1435 1119Q1405 1119 1361.5 1127.5 1318 1136 1285 1136L1285 1136Q1258 1136 1240 1127.5 1222 1119 1222 1106L1222 1106Q1222 1090 1242.5 1073.5 1263 1057 1290.5 1040 1318 1023 1338.5 1007 1359 991 1359 978L1359 978Q1359 967 1345.5 938.5 1332 910 1318 878.5 1304 847 1304 827L1304 827Q1304 803 1328 803L1328 803Q1350 803 1378 823.5 1406 844 1431.5 865 1457 886 1472 886L1472 886Q1491 886 1514 857 1537 828 1562.5 798.5 1588 769 1612 769L1612 769Q1637 769 1637 806L1637 806Q1637 832 1629 863.5 1621 895 1613 920 1605 945 1605 953L1605 953Q1605 966 1628.5 978 1652 990 1682.5 1002.5 1713 1015 1736.5 1030.5 1760 1046 1760 1066L1760 1066Q1760 1083 1735 1090.5 1710 1098 1644 1098L1644 1098 1602 1098Q1586 1098 1578.5 1125.5 1571 1153 1565 1189.5 1559 1226 1548.5 1253.5 1538 1281 1517 1281ZM1217 473L1217 473Q1152 473 1107 456.5 1062 440 1062 417L1062 417Q1062 400 1087.5 391.5 1113 383 1138.5 376 1164 369 1164 360L1164 360Q1164 348 1144 316 1124 284 1124 259L1124 259Q1124 229 1153 229L1153 229Q1182 229 1209.5 252 1237 275 1250 275L1250 275Q1262 275 1269 246 1276 217 1285 188.5 1294 160 1312 160L1312 160Q1333 160 1348 206.5 1363 253 1363 326L1363 326Q1363 404 1328.5 438.5 1294 473 1217 473ZM1824 973L1824 973Q1773 973 1732.5 948 1692 923 1692 887L1692 887Q1692 860 1713.5 826.5 1735 793 1763.5 768.5 1792 744 1814 744L1814 744Q1828 744 1835.5 754.5 1843 765 1843 782L1843 782Q1843 815 1824 859L1824 859Q1852 872 1873.5 896 1895 920 1895 937L1895 937Q1895 953 1875.5 963 1856 973 1824 973ZM1431 752L1431 752Q1411 752 1411 731L1411 731Q1411 706 1422.5 665.5 1434 625 1434 609L1434 609Q1434 601 1424 595.5 1414 590 1378 582L1378 582Q1335 572 1317 562 1299 552 1299 539L1299 539Q1299 520 1320 510 1341 500 1368.5 492.5 1396 485 1417 475 1438 465 1438 446L1438 446Q1438 431 1436 408.5 1434 386 1434 371L1434 371Q1434 345 1439 326 1444 307 1457 307L1457 307Q1480 307 1499.5 334 1519 361 1532 391L1532 391Q1546 421 1554 430 1562 439 1576 439L1576 439Q1608 439 1629 429 1650 419 1676 419L1676 419Q1702 419 1702 437L1702 437Q1702 457 1680.5 480.5 1659 504 1637.5 524.5 1616 545 1616 558L1616 558Q1616 570 1638 610 1660 650 1660 691L1660 691Q1660 718 1644 718L1644 718Q1627 718 1606.5 699.5 1586 681 1568 662.5 1550 644 1538 644L1538 644Q1531 644 1515.5 671 1500 698 1478.5 725 1457 752 1431 752Z"/>
</svg>