<svg xmlns="http://www.w3.org/2000/svg"
    viewBox="0 0 2600 2400">
  <!--
Copyright 2013, 2022 Google Inc. All Rights Reserved.
Noto is a trademark of Google Inc.
This Font Software is licensed under the SIL Open Font License, Version 1.1. This Font Software is distributed on an "AS IS" BASIS, WITHOUT WARRANTIES OR CONDITIONS OF ANY KIND, either express or implied. See the SIL Open Font License for the specific language, permissions and limitations governing your use of this Font Software.
http://scripts.sil.org/OFL
  -->
<path d="M1300 2240L1300 2240Q1087 2240 898.5 2158.5 710 2077 566.5 1933 423 1789 341.5 1600.5 260 1412 260 1199L260 1199Q260 986 341.5 798 423 610 566.5 466.5 710 323 898.5 241.5 1087 160 1300 160L1300 160Q1513 160 1701.5 241.5 1890 323 2033.5 466.5 2177 610 2258.5 798 2340 986 2340 1199L2340 1199Q2340 1412 2258.5 1600.5 2177 1789 2033.5 1933 1890 2077 1701.5 2158.5 1513 2240 1300 2240ZM1161 1493L1139 1550Q1051 1513 995 1435.5 939 1358 932 1264L932 1264 992 1262Q998 1338 1043 1400 1088 1462 1161 1493L1161 1493ZM947 1954L947 1954 943 1938Q1073 1900 1155 1804 1237 1708 1237 1574L1237 1574Q1237 1533 1226.5 1478 1216 1423 1199 1381L1199 1381Q1190 1358 1199 1349L1199 1349 1220 1327Q1228 1319 1236 1319L1236 1319Q1244 1319 1256.5 1325.5 1269 1332 1300 1332L1300 1332Q1327 1332 1342 1325.5 1357 1319 1364 1319L1364 1319Q1372 1319 1380 1327L1380 1327 1401 1349Q1410 1358 1401 1381L1401 1381Q1385 1423 1374 1478 1363 1533 1363 1574L1363 1574Q1363 1708 1445 1804 1527 1900 1657 1938L1657 1938 1653 1954Q1546 1937 1476.5 1900 1407 1863 1345 1784L1345 1784Q1332 1767 1321.5 1756 1311 1745 1300 1745L1300 1745Q1290 1745 1279.5 1756 1269 1767 1255 1784L1255 1784Q1193 1863 1123.5 1900 1054 1937 947 1954ZM472 1446L472 1446 458 1441Q485 1342 526 1274 567 1206 629 1156L629 1156Q685 1111 766 1082.5 847 1054 966 1040L966 1040Q909 953 878 876 847 799 847 721L847 721Q847 645 872.5 574 898 503 953 426L953 426 964 433Q935 492 921.5 541 908 590 908 638L908 638Q908 736 951.5 818.5 995 901 1072 956 1149 1011 1251 1028L1251 1028Q1272 1031 1272 1052L1272 1052Q1272 1069 1254 1077L1254 1077Q1171 1113 1171 1190L1171 1190Q1171 1204 1174 1220.5 1177 1237 1181 1256L1181 1256Q1186 1275 1172 1286L1172 1286Q1150 1302 1133 1283L1133 1283Q1074 1223 1003.5 1194.5 933 1166 860 1166L860 1166Q719 1166 602 1261L602 1261Q525 1323 472 1446ZM1300 2160L1300 2160Q1497 2160 1670.5 2084.5 1844 2009 1976.5 1876.5 2109 1744 2184.5 1570 2260 1396 2260 1199L2260 1199Q2260 1002 2184.5 828.5 2109 655 1976.5 522.5 1844 390 1670.5 315 1497 240 1300 240L1300 240Q1103 240 929.5 315 756 390 623.5 522.5 491 655 415.5 828.5 340 1002 340 1199L340 1199Q340 1396 415.5 1570 491 1744 623.5 1876.5 756 2009 929.5 2084.5 1103 2160 1300 2160ZM1461 1550L1461 1550 1440 1493Q1512 1462 1557.5 1400 1603 1338 1610 1262L1610 1262 1669 1264Q1662 1359 1605.5 1436.5 1549 1514 1461 1550ZM1134 930L1134 930 1102 879Q1191 824 1300 824L1300 824Q1408 824 1497 879L1497 879 1466 930Q1389 884 1300 884L1300 884Q1211 884 1134 930ZM2142 1441L2128 1446Q2075 1323 1998 1261L1998 1261Q1881 1166 1740 1166L1740 1166Q1667 1166 1596.5 1194.5 1526 1223 1467 1283L1467 1283Q1450 1302 1428 1286L1428 1286Q1415 1275 1419 1256L1419 1256Q1424 1237 1426.5 1220.5 1429 1204 1429 1190L1429 1190Q1429 1113 1346 1077L1346 1077Q1328 1069 1328 1052L1328 1052Q1328 1031 1349 1028L1349 1028Q1451 1011 1528.5 956 1606 901 1649 818.5 1692 736 1692 638L1692 638Q1692 590 1678.5 541 1665 492 1636 433L1636 433 1647 426Q1703 503 1728 574 1753 645 1753 721L1753 721Q1753 799 1722 876 1691 953 1634 1040L1634 1040Q1756 1054 1836 1082.5 1916 1111 1971 1156L1971 1156Q2033 1206 2074 1274 2115 1342 2142 1441L2142 1441Z"/>
</svg>