<svg xmlns="http://www.w3.org/2000/svg"
    viewBox="0 0 2600 2400">
  <!--
Copyright 2013, 2022 Google Inc. All Rights Reserved.
Noto is a trademark of Google Inc.
This Font Software is licensed under the SIL Open Font License, Version 1.1. This Font Software is distributed on an "AS IS" BASIS, WITHOUT WARRANTIES OR CONDITIONS OF ANY KIND, either express or implied. See the SIL Open Font License for the specific language, permissions and limitations governing your use of this Font Software.
http://scripts.sil.org/OFL
  -->
<path d="M2174 2240L425 2240Q358 2240 309 2191 260 2142 260 2075L260 2075 260 325Q260 257 309 208.5 358 160 425 160L425 160 2175 160Q2243 160 2291.5 208.5 2340 257 2340 325L2340 325 2340 2076Q2340 2143 2291 2191.5 2242 2240 2174 2240L2174 2240ZM1237 1567L1237 1900 1363 1900 1363 1637 1570 1751 1632 1645 1363 1495 1363 1067 1907 1067 1907 943 1363 943 1363 754 1643 754 1643 628 1363 628 1363 460 1237 460 1237 628 957 628 957 754 1237 754 1237 943 693 943 693 1067 1237 1067 1237 1425 1029 1308 967 1416 1237 1567Z"/>
</svg>