<svg xmlns="http://www.w3.org/2000/svg"
    viewBox="0 0 2600 2400">
  <!--
Copyright 2013 Google LLC
Noto is a trademark of Google Inc.
This Font Software is licensed under the SIL Open Font License, Version 1.1. This Font Software is distributed on an "AS IS" BASIS, WITHOUT WARRANTIES OR CONDITIONS OF ANY KIND, either express or implied. See the SIL Open Font License for the specific language, permissions and limitations governing your use of this Font Software.
http://scripts.sil.org/OFL
  -->
<path d="M1300 2240L1300 2240Q1129 2240 974 2186.5 819 2133 688.5 2036 558 1939 462 1808.5 366 1678 313 1523 260 1368 260 1200L260 1200Q260 1032 313 877 366 722 462 591.5 558 461 688.5 364 819 267 974 213.5 1129 160 1300 160L1300 160Q1471 160 1626 213.5 1781 267 1911.5 364 2042 461 2138 591.5 2234 722 2287 877 2340 1032 2340 1200L2340 1200Q2340 1368 2287 1523 2234 1678 2138 1808.5 2042 1939 1911.5 2036 1781 2133 1626 2186.5 1471 2240 1300 2240ZM907 1460L907 1460Q844 1460 792 1429.5 740 1399 709 1347 678 1295 678 1232L678 1232Q678 1169 709 1117 740 1065 792 1034.5 844 1004 907 1004L907 1004Q971 1004 1022.5 1034.5 1074 1065 1105 1117 1136 1169 1136 1232L1136 1232Q1136 1295 1105 1347 1074 1399 1022 1429.5 970 1460 907 1460ZM1646 1885L1646 1885Q1715 1885 1777.5 1862 1840 1839 1883 1797L1883 1797 1801 1708Q1746 1765 1648 1765L1648 1765Q1575 1765 1536.5 1721 1498 1677 1498 1594L1498 1594Q1498 1528 1537.5 1446.5 1577 1365 1655 1268L1655 1268Q1720 1188 1776 1097.5 1832 1007 1832 907L1832 907Q1832 797 1779 707.5 1726 618 1636.5 564.5 1547 511 1438 511L1438 511Q1333 511 1243 560.5 1153 610 1098 694.5 1043 779 1043 884L1043 884Q1043 891 1043 898 1043 905 1043 912L1043 912Q1012 898 977 891 942 884 907 884L907 884Q811 884 731.5 931 652 978 605 1057 558 1136 558 1232L558 1232Q558 1328 605 1407 652 1486 731.5 1533 811 1580 907 1580L907 1580Q1003 1580 1082.5 1533 1162 1486 1209 1406.5 1256 1327 1256 1232L1256 1232Q1256 1172 1237.5 1125.5 1219 1079 1199 1046L1199 1046Q1180 1014 1170.5 980.5 1161 947 1161 907L1161 907Q1161 830 1198 767.5 1235 705 1298 668 1361 631 1438 631L1438 631Q1515 631 1577 667.5 1639 704 1675.5 766.5 1712 829 1712 907L1712 907Q1712 979 1666.5 1049 1621 1119 1559 1196L1559 1196Q1492 1279 1435 1382.5 1378 1486 1378 1594L1378 1594Q1378 1727 1451 1806 1524 1885 1646 1885Z"/>
</svg>