<svg xmlns="http://www.w3.org/2000/svg"
    viewBox="0 0 2600 2400">
  <!--
Copyright 2013, 2022 Google Inc. All Rights Reserved.
Noto is a trademark of Google Inc.
This Font Software is licensed under the SIL Open Font License, Version 1.1. This Font Software is distributed on an "AS IS" BASIS, WITHOUT WARRANTIES OR CONDITIONS OF ANY KIND, either express or implied. See the SIL Open Font License for the specific language, permissions and limitations governing your use of this Font Software.
http://scripts.sil.org/OFL
  -->
<path d="M1300 2240L1300 2240Q1129 2240 974 2186.5 819 2133 688.5 2036 558 1939 462 1808.5 366 1678 313 1523 260 1368 260 1200L260 1200Q260 1032 313 877 366 722 462 591.5 558 461 688.5 364 819 267 974 213.5 1129 160 1300 160L1300 160Q1471 160 1626 213.5 1781 267 1911.5 364 2042 461 2138 591.5 2234 722 2287 877 2340 1032 2340 1200L2340 1200Q2340 1368 2287 1523 2234 1678 2138 1808.5 2042 1939 1911.5 2036 1781 2133 1626 2186.5 1471 2240 1300 2240ZM690 1592L690 1712 1910 1712 1910 1592 690 1592ZM690 1317L690 1437 1109 1437 1109 1289Q1038 1246 995 1165 952 1084 952 992L952 992Q952 902 999 828 1046 754 1125 710 1204 666 1300 666L1300 666Q1396 666 1475 710 1554 754 1601 828 1648 902 1648 992L1648 992Q1648 1084 1605 1165 1562 1246 1491 1289L1491 1289 1491 1437 1910 1437 1910 1317 1636 1317Q1699 1254 1733.5 1169 1768 1084 1768 992L1768 992Q1768 869 1704.5 767.5 1641 666 1535 606 1429 546 1300 546L1300 546Q1172 546 1065.5 606 959 666 895.5 767.5 832 869 832 992L832 992Q832 1084 866.5 1169 901 1254 964 1317L964 1317 690 1317Z"/>
</svg>