<svg xmlns="http://www.w3.org/2000/svg"
    viewBox="0 0 2600 2400">
  <!--
Copyright 2013, 2022 Google Inc. All Rights Reserved.
Noto is a trademark of Google Inc.
This Font Software is licensed under the SIL Open Font License, Version 1.1. This Font Software is distributed on an "AS IS" BASIS, WITHOUT WARRANTIES OR CONDITIONS OF ANY KIND, either express or implied. See the SIL Open Font License for the specific language, permissions and limitations governing your use of this Font Software.
http://scripts.sil.org/OFL
  -->
<path d="M2161 2240L439 2240Q366 2240 318 2192 270 2144 270 2071L270 2071Q270 2022 295 1970L295 1970 1134 275Q1191 160 1300 160L1300 160Q1409 160 1466 275L1466 275 2305 1970Q2330 2022 2330 2071L2330 2071Q2330 2144 2282.5 2192 2235 2240 2161 2240L2161 2240ZM1300 1947L1300 1947Q1264 1947 1238.5 1921.5 1213 1896 1213 1859L1213 1859Q1213 1822 1238 1797 1263 1772 1300 1772L1300 1772Q1337 1772 1362 1797 1387 1822 1387 1859L1387 1859Q1387 1896 1361.5 1921.5 1336 1947 1300 1947ZM439 2160L439 2160 2161 2160Q2202 2160 2226 2136.5 2250 2113 2250 2073L2250 2073Q2250 2038 2233 2006L2233 2006 1394 310Q1360 240 1300 240L1300 240Q1241 240 1206 311L1206 311 367 2005Q350 2039 350 2073L350 2073Q350 2112 374.5 2136 399 2160 439 2160ZM1300 1674L1300 1674Q1280 1674 1266 1661.5 1252 1649 1250 1630L1250 1630 1188 865Q1183 803 1215 763.5 1247 724 1300 724L1300 724Q1354 724 1385.5 764 1417 804 1412 865L1412 865 1350 1630Q1349 1649 1334.5 1661.5 1320 1674 1300 1674Z"/>
</svg>