<svg xmlns="http://www.w3.org/2000/svg"
    viewBox="0 0 2600 2400">
  <!--
Copyright 2013 Google LLC
Noto is a trademark of Google Inc.
This Font Software is licensed under the SIL Open Font License, Version 1.1. This Font Software is distributed on an "AS IS" BASIS, WITHOUT WARRANTIES OR CONDITIONS OF ANY KIND, either express or implied. See the SIL Open Font License for the specific language, permissions and limitations governing your use of this Font Software.
http://scripts.sil.org/OFL
  -->
<path d="M2196 1516L2196 1516Q2123 1433 2038 1383.5 1953 1334 1850 1334L1850 1334Q1727 1334 1602 1416L1602 1416Q1567 1310 1483.5 1236 1400 1162 1291 1122.5 1182 1083 1068 1083L1068 1083Q981 1083 905 1110.5 829 1138 768 1192L768 1192Q694 1054 605 1000.5 516 947 379 947L379 947Q336 947 291 949.5 246 952 205 956L205 956Q260 747 391 594.5 522 442 710.5 358.5 899 275 1126 275L1126 275Q1354 275 1556.5 351 1759 427 1914 560 2069 693 2157 867 2245 1041 2245 1238L2245 1238Q2245 1378 2196 1516ZM1391 1969L1391 2047Q1173 2046 1031 2038.5 889 2031 809 2013.5 729 1996 696.5 1966.5 664 1937 664 1892L664 1892Q664 1830 716 1797.5 768 1765 865 1764L865 1764 865 1840Q818 1840 781 1854.5 744 1869 744 1892L744 1892Q744 1918 804.5 1934.5 865 1951 1006.5 1959.5 1148 1968 1391 1969L1391 1969ZM2432 2240L168 2240 168 1675Q353 1622 537 1594.5 721 1567 898 1567L898 1567Q1062 1567 1205 1586 1348 1605 1481.5 1630.5 1615 1656 1750.5 1675 1886 1694 2035 1694L2035 1694Q2125 1694 2218 1685.5 2311 1677 2432 1658L2432 1658 2432 2240ZM248 1735L248 2160 2352 2160 2352 1752Q2258 1763 2183 1768.5 2108 1774 2035 1774L2035 1774Q1879 1774 1741.5 1755 1604 1736 1471 1710.5 1338 1685 1198 1666 1058 1647 898 1647L898 1647Q741 1647 578.5 1669 416 1691 248 1735L248 1735ZM1296 1064L1040 2018 953 1994 1210 1037 1296 1064ZM764 1038L764 1038Q810 901 892.5 776 975 651 1084 547.5 1193 444 1319 373L1319 373Q1227 357 1134 357L1134 357Q944 357 780 420.5 616 484 496 599 376 714 317 871L317 871Q339 869 361 868 383 867 404 867L404 867Q511 867 602 908.5 693 950 764 1038ZM2154 1363L2154 1363Q2165 1297 2165 1237L2165 1237Q2165 1065 2087.5 907.5 2010 750 1868.5 626 1727 502 1535 431L1535 431Q1617 570 1659.5 734 1702 898 1702 1063L1702 1063Q1702 1178 1681 1286L1681 1286Q1768 1254 1853 1254L1853 1254Q1936 1254 2011.5 1282.5 2087 1311 2154 1363ZM1532 184L1475 393 1388 370 1445 160 1532 184Z"/>
</svg>