<svg xmlns="http://www.w3.org/2000/svg"
    viewBox="0 0 2600 2400">
  <!--
Copyright 2013 Google LLC
Noto is a trademark of Google Inc.
This Font Software is licensed under the SIL Open Font License, Version 1.1. This Font Software is distributed on an "AS IS" BASIS, WITHOUT WARRANTIES OR CONDITIONS OF ANY KIND, either express or implied. See the SIL Open Font License for the specific language, permissions and limitations governing your use of this Font Software.
http://scripts.sil.org/OFL
  -->
<path d="M454 1788L454 1788Q492 1600 542 1444 592 1288 665.5 1146 739 1004 845 861 951 718 1099 557.5 1247 397 1446 202L1446 202Q1379 500 1349.5 738.5 1320 977 1320 1205L1320 1205Q1320 1319 1326.5 1435 1333 1551 1346 1676L1346 1676Q1222 1661 1107 1661L1107 1661Q946 1661 788.5 1692 631 1723 454 1788ZM645 2160L645 2160 2045 2160Q2062 2160 2071 2145L2071 2145 2108 2083 461 1956Q493 2058 539.5 2109 586 2160 645 2160ZM2045 2240L645 2240Q538 2240 465 2144.5 392 2049 358 1868L358 1868 2242 2013 2141 2185Q2110 2240 2045 2240L2045 2240ZM1704 1876L1735 1999 794 1944Q817 1873 843.5 1832.5 870 1792 904 1778L904 1778 1099 1770 1651 1831Q1693 1836 1704 1876L1704 1876ZM1252 1910L1252 1910Q1269 1910 1281.5 1896.5 1294 1883 1294 1865L1294 1865Q1294 1846 1281.5 1832.5 1269 1819 1252 1819L1252 1819Q1235 1819 1222.5 1832.5 1210 1846 1210 1865L1210 1865Q1210 1883 1222.5 1896.5 1235 1910 1252 1910ZM1435 1929L1435 1929Q1451 1929 1462.5 1916 1474 1903 1474 1885L1474 1885Q1474 1867 1462.5 1854 1451 1841 1435 1841L1435 1841Q1419 1841 1407 1854 1395 1867 1395 1885L1395 1885Q1395 1903 1407 1916 1419 1929 1435 1929ZM1603 1942L1603 1942Q1617 1942 1627.5 1930 1638 1918 1638 1902L1638 1902Q1638 1885 1627.5 1873.5 1617 1862 1603 1862L1603 1862Q1589 1862 1578.5 1873.5 1568 1885 1568 1902L1568 1902Q1568 1918 1578.5 1930 1589 1942 1603 1942ZM561 1675L561 1675Q687 1628 826.5 1604 966 1580 1108 1580L1108 1580Q1146 1580 1183 1582 1220 1584 1257 1587L1257 1587Q1239 1392 1239 1202L1239 1202Q1239 1011 1257.5 823.5 1276 636 1314 446L1314 446Q1147 615 1022 766 897 917 807.5 1062.5 718 1208 658 1358 598 1508 561 1675ZM1401 1827L1320 1827 1434 162Q1440 161 1446.5 160.5 1453 160 1459 160L1459 160Q1484 160 1514 168L1514 168 1401 1827ZM2067 1669L1372 1680 1377 1600 1949 1591 1448 329 1487 213 2067 1669Z"/>
</svg>