<svg xmlns="http://www.w3.org/2000/svg"
    viewBox="0 0 2600 2400">
  <!--
Copyright 2013 Google LLC
Noto is a trademark of Google Inc.
This Font Software is licensed under the SIL Open Font License, Version 1.1. This Font Software is distributed on an "AS IS" BASIS, WITHOUT WARRANTIES OR CONDITIONS OF ANY KIND, either express or implied. See the SIL Open Font License for the specific language, permissions and limitations governing your use of this Font Software.
http://scripts.sil.org/OFL
  -->
<path d="M1234 998L1234 1890 1366 1890 1366 998 1721 998 1721 868 1366 868 1366 500 1234 500 1234 868 879 868 879 998 1234 998ZM2175 2240L426 2240Q358 2240 309 2191.5 260 2143 260 2076L260 2076 260 325Q260 257 309 208.5 358 160 425 160L425 160 2175 160Q2243 160 2291.5 208.5 2340 257 2340 325L2340 325 2340 2075Q2340 2142 2291.5 2191 2243 2240 2175 2240L2175 2240Z"/>
</svg>