<svg xmlns="http://www.w3.org/2000/svg"
    viewBox="0 0 2600 2400">
  <!--
Copyright 2013 Google LLC
Noto is a trademark of Google Inc.
This Font Software is licensed under the SIL Open Font License, Version 1.1. This Font Software is distributed on an "AS IS" BASIS, WITHOUT WARRANTIES OR CONDITIONS OF ANY KIND, either express or implied. See the SIL Open Font License for the specific language, permissions and limitations governing your use of this Font Software.
http://scripts.sil.org/OFL
  -->
<path d="M695 2240L695 2240Q640 2240 609 2196.5 578 2153 589 2095L589 2095 708 1489 257 1069Q213 1027 213 979L213 979Q213 935 243.5 904 274 873 323 867L323 867 934 793 1194 234Q1229 160 1300 160L1300 160Q1371 160 1406 234L1406 234 1666 793 2277 867Q2326 873 2356.5 904 2387 935 2387 979L2387 979Q2387 1027 2343 1069L2343 1069 1892 1489 2011 2095Q2022 2153 1991 2196.5 1960 2240 1905 2240L1905 2240Q1872 2240 1839 2221L1839 2221 1300 1919 761 2221Q728 2240 695 2240ZM695 2160L695 2160Q705 2160 721 2151L721 2151 1300 1827 1879 2151Q1896 2160 1905 2160L1905 2160Q1920 2160 1929 2146.5 1938 2133 1933 2111L1933 2111 1804 1461 2289 1011Q2307 994 2307 979L2307 979Q2307 951 2267 947L2267 947 1612 867 1334 268Q1321 240 1300 240L1300 240Q1279 240 1266 268L1266 268 988 867 333 947Q293 951 293 979L293 979Q293 994 311 1011L311 1011 796 1461 667 2111Q663 2133 671.5 2146.5 680 2160 695 2160Z"/>
</svg>