<svg xmlns="http://www.w3.org/2000/svg"
    viewBox="0 0 2600 2400">
  <!--
Copyright 2013 Google LLC
Noto is a trademark of Google Inc.
This Font Software is licensed under the SIL Open Font License, Version 1.1. This Font Software is distributed on an "AS IS" BASIS, WITHOUT WARRANTIES OR CONDITIONS OF ANY KIND, either express or implied. See the SIL Open Font License for the specific language, permissions and limitations governing your use of this Font Software.
http://scripts.sil.org/OFL
  -->
<path d="M1234 1721L1234 1721Q1436 1721 1549 1619.5 1662 1518 1662 1340L1662 1340Q1662 1180 1557.5 1092 1453 1004 1278 1004L1278 1004Q1221 1004 1175 1010.5 1129 1017 1102 1022L1102 1022 1129 692 1582 692 1582 564 1009 564 966 1102 1036 1147Q1071 1138 1128 1130.5 1185 1123 1231 1123L1231 1123Q1380 1123 1449 1183 1518 1243 1518 1355L1518 1355Q1518 1481 1440 1541 1362 1601 1236 1601L1236 1601Q1160 1601 1078 1580.5 996 1560 938 1526L938 1526 938 1659Q991 1690 1068.5 1705.5 1146 1721 1234 1721Z"/>
</svg>