<svg xmlns="http://www.w3.org/2000/svg"
    viewBox="0 0 1000 1000">
  <!--
© 2014-2021 Adobe (http://www.adobe.com/).
Noto is a trademark of Google Inc.
This Font Software is licensed under the SIL Open Font License, Version 1.1. This Font Software is distributed on an "AS IS" BASIS, WITHOUT WARRANTIES OR CONDITIONS OF ANY KIND, either express or implied. See the SIL Open Font License for the specific language, permissions and limitations governing your use of this Font Software.
http://scripts.sil.org/OFL
  -->
<path d="M596 531L596 623 492 623 492 531ZM354 50L354 379 596 379 596 470 492 470 492 388 431 388 431 470 290 470 290 531 431 531 431 623 319 623 319 684 596 684 596 758 338 758 338 818 596 818 596 930 661 930 661 818 931 818 931 758 661 758 661 684 941 684 941 623 825 623 825 531 963 531 963 470 825 470 825 388 765 388 765 470 661 470 661 379 909 379 909 50ZM661 531L765 531 765 623 661 623ZM420 240L596 240 596 324 420 324ZM661 240L842 240 842 324 661 324ZM420 105L596 105 596 187 420 187ZM661 105L842 105 842 187 661 187ZM264 14C208 166 115 316 16 413 30 430 51 469 58 487 93 451 127 409 160 363L160 928 232 928 232 250C271 181 307 108 335 35Z"/>
</svg>