<svg xmlns="http://www.w3.org/2000/svg" name="gid15766" data-unicode="𠎁"
    viewBox="0 0 1000 1000">
  <!--
© 2014-2021 Adobe (http://www.adobe.com/).
Noto is a trademark of Google Inc.
This Font Software is licensed under the SIL Open Font License, Version 1.1. This Font Software is distributed on an "AS IS" BASIS, WITHOUT WARRANTIES OR CONDITIONS OF ANY KIND, either express or implied. See the SIL Open Font License for the specific language, permissions and limitations governing your use of this Font Software.
http://scripts.sil.org/OFL
  -->
<path d="M444 207C466 255 486 317 492 358L542 343C535 302 514 240 491 194ZM505 783C522 838 536 908 538 955L598 944C594 898 580 827 561 774ZM647 782C674 834 702 904 711 950L769 932C758 887 731 819 701 767ZM793 772C838 829 887 908 908 959L967 930C945 880 894 803 848 747ZM392 756C370 818 328 886 270 923L324 962C387 918 425 846 451 780ZM739 191C728 236 705 304 686 346L728 361C749 322 774 260 795 207ZM401 154L585 154 585 389 401 389ZM646 154L840 154 840 389 646 389ZM291 669L291 733 956 733 956 669 652 669 652 580 896 580 896 518 652 518 652 447 910 447 910 96 333 96 333 447 580 447 580 518 356 518 356 580 580 580 580 669ZM233 45C185 200 105 354 18 454 31 473 50 512 57 530 90 491 122 446 152 396L152 960 224 960 224 261C254 198 281 131 302 64Z"/>
</svg>