<svg xmlns="http://www.w3.org/2000/svg"
    viewBox="0 0 1000 1000">
  <!--
© 2014-2021 Adobe (http://www.adobe.com/).
Noto is a trademark of Google Inc.
This Font Software is licensed under the SIL Open Font License, Version 1.1. This Font Software is distributed on an "AS IS" BASIS, WITHOUT WARRANTIES OR CONDITIONS OF ANY KIND, either express or implied. See the SIL Open Font License for the specific language, permissions and limitations governing your use of this Font Software.
http://scripts.sil.org/OFL
  -->
<path d="M653 111L653 665 723 665 723 111ZM847 29L847 837C847 853 841 857 826 858 811 858 763 858 709 857 719 877 730 910 733 930 807 930 852 928 880 916 907 904 919 882 919 836L919 29ZM63 405L63 465 230 465 230 537 100 537 100 736 230 736 230 834 49 845 57 908C200 899 418 883 622 868L624 809 443 821 443 736 579 736 579 537 443 537 443 465 616 465 616 405ZM380 537L380 595 514 595 514 678 380 678 380 825 293 830 293 678 164 678 164 595 293 595 293 465 380 465ZM219 173C234 195 249 221 262 246L154 276 154 133C213 115 277 91 327 63L276 16C243 38 189 63 136 82L92 67 92 293 38 307 57 371 286 300 298 334 315 326 292 340C305 349 322 370 330 383 425 329 458 240 469 118L549 118C542 243 535 292 524 304 518 313 511 314 502 314 492 314 471 314 446 311 454 327 460 352 461 370 488 371 514 372 530 369 550 367 563 361 575 346 595 323 604 258 612 85 613 76 614 58 614 58L337 58 337 118 410 118C403 194 387 255 346 299 331 255 298 194 266 150Z"/>
</svg>