<svg xmlns="http://www.w3.org/2000/svg"
    viewBox="0 0 1000 1000">
  <!--
© 2014-2021 Adobe (http://www.adobe.com/).
Noto is a trademark of Google Inc.
This Font Software is licensed under the SIL Open Font License, Version 1.1. This Font Software is distributed on an "AS IS" BASIS, WITHOUT WARRANTIES OR CONDITIONS OF ANY KIND, either express or implied. See the SIL Open Font License for the specific language, permissions and limitations governing your use of this Font Software.
http://scripts.sil.org/OFL
  -->
<path d="M388 207L388 663 298 663 298 23 228 23 228 663 140 663 140 207 75 207 75 838 140 838 140 733 388 733 388 807 453 807 453 207ZM502 96L502 165 796 165C497 663 481 735 481 792 481 857 528 898 629 898L841 898C926 898 952 868 961 702 942 698 916 688 898 678 894 805 886 830 842 830L628 829C583 829 554 815 554 783 554 738 573 667 904 126 907 121 910 116 912 112L867 94 852 96Z"/>
</svg>