<svg xmlns="http://www.w3.org/2000/svg" name="gid15830" data-unicode="𡸴"
    viewBox="0 0 1000 1000">
  <!--
© 2014-2021 Adobe (http://www.adobe.com/).
Noto is a trademark of Google Inc.
This Font Software is licensed under the SIL Open Font License, Version 1.1. This Font Software is distributed on an "AS IS" BASIS, WITHOUT WARRANTIES OR CONDITIONS OF ANY KIND, either express or implied. See the SIL Open Font License for the specific language, permissions and limitations governing your use of this Font Software.
http://scripts.sil.org/OFL
  -->
<path d="M680 109C737 201 839 300 936 358 945 338 961 311 974 294 878 244 774 145 710 42L643 42C596 139 496 246 391 305 404 321 420 347 428 365 532 302 629 199 680 109ZM196 49L196 686 130 686 130 237 70 237 70 850 130 850 130 750 326 750 326 811 387 811 387 237 326 237 326 686 258 686 258 49ZM524 495L646 495 646 529C646 559 645 589 640 619L524 619ZM713 495L842 495 842 619 709 619C712 589 713 560 713 530ZM529 290L529 352 646 352 646 435 460 435 460 679 627 679C600 766 535 847 385 908 399 921 420 946 428 961 581 897 654 811 686 718 732 834 810 918 925 961 934 942 956 915 971 901 854 866 776 788 737 679L908 679 908 435 713 435 713 352 836 352 836 290Z"/>
</svg>