<svg xmlns="http://www.w3.org/2000/svg" name="gid15831" data-unicode="𡼞"
    viewBox="0 0 1000 1000">
  <!--
© 2014-2021 Adobe (http://www.adobe.com/).
Noto is a trademark of Google Inc.
This Font Software is licensed under the SIL Open Font License, Version 1.1. This Font Software is distributed on an "AS IS" BASIS, WITHOUT WARRANTIES OR CONDITIONS OF ANY KIND, either express or implied. See the SIL Open Font License for the specific language, permissions and limitations governing your use of this Font Software.
http://scripts.sil.org/OFL
  -->
<path d="M460 39L460 190 180 190 180 73 105 73 105 254 895 254 895 73 817 73 817 190 537 190 537 39ZM483 288C467 318 450 346 430 373L430 346 305 346 305 270 236 270 236 346 83 346 83 406 236 406 236 485 45 485 45 547 264 547C234 570 203 592 172 612L152 612 152 624C113 647 72 668 30 686 44 700 66 730 74 745 100 732 126 719 152 704L152 958 219 958 219 922 437 922 437 952 507 952 507 612 288 612C314 592 339 570 363 547L559 547 559 485 423 485C471 432 512 373 547 310ZM305 406L405 406C383 434 359 460 334 485L305 485ZM219 865L219 795 437 795 437 865ZM219 743L219 672 437 672 437 743ZM595 303L595 961 667 961 667 372 831 372C808 428 778 494 748 553 828 619 851 675 851 721 852 747 845 770 829 778 819 783 807 786 794 786 774 787 750 787 721 784 733 803 741 832 742 851 770 853 800 853 823 850 844 848 864 842 878 832 909 812 923 776 923 726 922 672 900 612 821 543 858 477 898 397 931 329L879 300 867 303Z"/>
</svg>