<svg xmlns="http://www.w3.org/2000/svg"
    viewBox="0 0 1000 1000">
  <!--
© 2014-2021 Adobe (http://www.adobe.com/).
Noto is a trademark of Google Inc.
This Font Software is licensed under the SIL Open Font License, Version 1.1. This Font Software is distributed on an "AS IS" BASIS, WITHOUT WARRANTIES OR CONDITIONS OF ANY KIND, either express or implied. See the SIL Open Font License for the specific language, permissions and limitations governing your use of this Font Software.
http://scripts.sil.org/OFL
  -->
<path d="M217 10L217 222 51 222 51 293 208 293C174 435 103 594 31 683 45 700 65 728 74 750 127 683 177 576 217 465L217 929 292 929 292 484C333 527 384 585 407 615L448 548C425 524 328 435 292 406L292 293 429 293 429 222 292 222 292 10ZM624 11C575 183 488 340 374 438 393 449 426 474 439 488 460 468 480 446 500 423 581 473 670 541 719 598 630 726 514 817 387 868 403 883 424 913 435 931 685 819 886 589 957 198L906 179 893 183 644 183C665 134 684 82 700 29ZM542 366C566 332 588 295 609 256L867 256C844 359 807 451 762 531 709 476 623 413 542 366Z"/>
</svg>