<svg xmlns="http://www.w3.org/2000/svg" name="gid15868" data-unicode="𣑋"
    viewBox="0 0 1000 1000">
  <!--
© 2014-2021 Adobe (http://www.adobe.com/).
Noto is a trademark of Google Inc.
This Font Software is licensed under the SIL Open Font License, Version 1.1. This Font Software is distributed on an "AS IS" BASIS, WITHOUT WARRANTIES OR CONDITIONS OF ANY KIND, either express or implied. See the SIL Open Font License for the specific language, permissions and limitations governing your use of this Font Software.
http://scripts.sil.org/OFL
  -->
<path d="M448 593C495 652 546 733 567 785L628 748C606 696 553 618 504 560ZM205 40L205 252 49 252 49 323 196 323C163 462 97 623 31 710 44 727 63 755 71 775 121 706 169 595 205 482L205 959 277 959 277 528C306 572 338 625 353 655L396 587C379 562 303 463 277 433L277 323 382 323 382 252 277 252 277 40ZM403 161L403 341 471 341 471 230 881 230 881 341 952 341 952 161 708 161 708 39 632 39 632 161ZM745 292L745 427 393 427 393 496 745 496 745 872C745 887 739 892 723 893 708 893 652 893 591 891 601 911 612 941 616 961 698 961 746 960 776 949 807 937 817 917 817 873L817 496 960 496 960 427 817 427 817 292Z"/>
</svg>