<svg xmlns="http://www.w3.org/2000/svg"
    viewBox="0 0 1000 1000">
  <!--
© 2014-2021 Adobe (http://www.adobe.com/).
Noto is a trademark of Google Inc.
This Font Software is licensed under the SIL Open Font License, Version 1.1. This Font Software is distributed on an "AS IS" BASIS, WITHOUT WARRANTIES OR CONDITIONS OF ANY KIND, either express or implied. See the SIL Open Font License for the specific language, permissions and limitations governing your use of this Font Software.
http://scripts.sil.org/OFL
  -->
<path d="M541 760C556 812 567 880 568 924L628 915C626 871 613 804 598 752ZM672 759C697 809 722 877 731 922L788 905C779 862 753 795 727 745ZM807 749C849 805 894 881 913 931L973 901C952 853 907 779 864 723ZM425 735C407 795 368 857 315 892L368 931C428 890 462 822 484 758ZM186 10L186 227 52 227 52 297 179 297C151 433 91 591 31 675 43 692 61 721 69 740 113 676 154 573 186 466L186 929 254 929 254 448C283 498 317 560 330 593L371 537C354 510 280 397 254 363L254 297 362 297 362 227 254 227 254 10ZM464 270L626 270 626 363 464 363ZM684 270L850 270 850 363 684 363ZM464 121L626 121 626 213 464 213ZM684 121L850 121 850 213 684 213ZM356 650L356 713 951 713 951 650 691 650 691 560 915 560 915 499 691 499 691 424 920 424 920 61 398 61 398 424 619 424 619 499 411 499 411 560 619 560 619 650Z"/>
</svg>