<svg xmlns="http://www.w3.org/2000/svg"
    viewBox="0 0 1000 1000">
  <!--
© 2014-2021 Adobe (http://www.adobe.com/).
Noto is a trademark of Google Inc.
This Font Software is licensed under the SIL Open Font License, Version 1.1. This Font Software is distributed on an "AS IS" BASIS, WITHOUT WARRANTIES OR CONDITIONS OF ANY KIND, either express or implied. See the SIL Open Font License for the specific language, permissions and limitations governing your use of this Font Software.
http://scripts.sil.org/OFL
  -->
<path d="M460 537L460 606 54 606 54 666 398 666C308 750 164 822 37 857 52 872 73 899 84 917 216 873 367 784 460 683L460 930 536 930 536 680C628 782 779 869 916 911 927 893 948 864 965 850 832 818 689 749 600 666L947 666 947 606 536 606 536 537ZM646 287L646 347 502 347 502 287ZM923 121L717 121C733 94 749 63 763 33L686 16C677 46 660 87 644 121L501 121C516 90 530 59 542 27L476 10C449 86 408 160 360 218L360 171 243 171 243 17 173 17 173 171 52 171 52 234 173 234 173 436 41 482 62 548C151 516 268 471 377 429L366 366 243 411 243 234 346 234C336 246 324 258 313 268 327 280 351 306 361 319 385 295 409 267 431 237L431 517 943 517 943 462 715 462 715 399 898 399 898 347 715 347 715 287 898 287 898 235 715 235 715 176 923 176ZM646 235L502 235 502 176 646 176ZM646 399L646 462 502 462 502 399Z"/>
</svg>