<svg xmlns="http://www.w3.org/2000/svg" name="gid15882" data-unicode="𣝣"
    viewBox="0 0 1000 1000">
  <!--
© 2014-2021 Adobe (http://www.adobe.com/).
Noto is a trademark of Google Inc.
This Font Software is licensed under the SIL Open Font License, Version 1.1. This Font Software is distributed on an "AS IS" BASIS, WITHOUT WARRANTIES OR CONDITIONS OF ANY KIND, either express or implied. See the SIL Open Font License for the specific language, permissions and limitations governing your use of this Font Software.
http://scripts.sil.org/OFL
  -->
<path d="M532 696C574 739 618 800 637 841L691 808C672 767 627 709 585 667ZM641 372L811 372 811 436 641 436ZM410 372L576 372 576 436 410 436ZM185 372L345 372 345 436 185 436ZM460 40L460 117 61 117 61 173 375 173C284 225 152 269 39 290 53 303 71 327 81 343L115 335 115 485 884 485 884 330 920 338C930 320 948 294 964 281 848 261 718 222 628 173L941 173 941 117 534 117 534 40ZM156 323C265 290 382 238 460 179L460 309 534 309 534 173C612 237 738 291 857 323ZM125 530L125 960 193 960 193 919 473 919 473 874 193 874 193 831 459 831 459 786 193 786 193 743 468 743 468 530ZM193 574L398 574 398 616 193 616ZM193 699L193 656 398 656 398 699ZM758 505L758 585 491 585 491 643 758 643 758 883C758 895 754 899 741 899 728 899 681 900 631 898 640 916 649 942 653 960 722 960 766 960 793 949 821 940 829 921 829 884L829 643 940 643 940 585 829 585 829 505Z"/>
</svg>