<svg xmlns="http://www.w3.org/2000/svg" name="gid15884" data-unicode="𣟧"
    viewBox="0 0 1000 1000">
  <!--
© 2014-2021 Adobe (http://www.adobe.com/).
Noto is a trademark of Google Inc.
This Font Software is licensed under the SIL Open Font License, Version 1.1. This Font Software is distributed on an "AS IS" BASIS, WITHOUT WARRANTIES OR CONDITIONS OF ANY KIND, either express or implied. See the SIL Open Font License for the specific language, permissions and limitations governing your use of this Font Software.
http://scripts.sil.org/OFL
  -->
<path d="M333 100C371 136 414 187 433 221L484 183C464 149 419 101 380 67ZM318 348C360 385 408 437 429 472L479 434C457 399 408 349 365 314ZM605 531L847 531 847 580 605 580ZM605 621L847 621 847 672 605 672ZM605 441L847 441 847 489 605 489ZM539 398L539 714 915 714 915 398ZM628 721C599 752 550 781 502 802 517 812 543 831 553 842 601 817 656 778 690 740ZM774 746C822 774 877 812 909 839L965 808C930 781 869 744 817 716ZM168 40L168 252 46 252 46 320 162 320C138 456 88 618 35 706 47 723 65 751 74 771 109 711 142 618 168 521L168 959 237 959 237 447C261 482 286 522 298 545L340 482C325 462 261 386 237 359L237 320 335 320 335 252 237 252 237 40ZM462 549L312 549 312 610 400 610 400 778C363 819 323 861 288 892L326 956C365 913 399 873 432 832 483 901 558 941 661 945 736 949 874 948 951 944 954 923 964 893 972 877 888 883 737 885 662 881 572 877 499 839 462 774ZM529 100L529 254 690 254 690 300 468 300 468 353 965 353 965 300 753 300 753 254 921 254 921 100 753 100 753 41 690 41 690 100ZM587 146L690 146 690 208 587 208ZM753 146L861 146 861 208 753 208Z"/>
</svg>