<svg xmlns="http://www.w3.org/2000/svg"
    viewBox="0 0 1000 1000">
  <!--
© 2014-2021 Adobe (http://www.adobe.com/).
Noto is a trademark of Google Inc.
This Font Software is licensed under the SIL Open Font License, Version 1.1. This Font Software is distributed on an "AS IS" BASIS, WITHOUT WARRANTIES OR CONDITIONS OF ANY KIND, either express or implied. See the SIL Open Font License for the specific language, permissions and limitations governing your use of this Font Software.
http://scripts.sil.org/OFL
  -->
<path d="M175 10L175 227 52 227 52 297 169 297C142 433 87 591 31 675 43 691 60 719 68 737 108 674 146 573 175 468L175 929 242 929 242 462C268 512 297 572 310 603L348 549C333 522 267 412 242 375L242 297 332 297 332 227 242 227 242 10ZM354 155L354 343 417 343 417 204 511 204 511 322 763 322 763 204 871 204 871 343 936 343 936 155 763 155 763 104 964 104 964 51 323 51 323 104 511 104 511 155ZM702 104L702 155 570 155 570 104ZM702 204L702 274 570 274 570 204ZM707 375L707 582C707 649 703 730 678 805L678 778 532 778 532 732 668 732 668 572 532 572 532 530 623 530 623 443 684 443 684 394 623 394 623 347 565 347 565 394 447 394 447 347 390 347 390 394 320 394 320 443 390 443 390 530 474 530 474 572 343 572 343 732 474 732 474 778 315 778 315 831 474 831 474 930 532 930 532 831 668 831C659 855 646 878 631 899 644 905 668 926 678 938 724 875 746 795 757 717L877 717 877 856C877 867 874 870 863 871 851 871 816 872 776 870 784 887 793 913 796 929 852 929 888 929 912 919 934 908 940 890 940 856L940 375ZM565 443L565 488 447 488 447 443ZM765 432L877 432 877 518 765 518ZM765 572L877 572 877 663 762 663C764 634 765 607 765 582ZM396 619L474 619 474 686 396 686ZM532 619L612 619 612 686 532 686Z"/>
</svg>