<svg xmlns="http://www.w3.org/2000/svg"
    viewBox="0 0 1000 1000">
  <!--
© 2014-2021 Adobe (http://www.adobe.com/).
Noto is a trademark of Google Inc.
This Font Software is licensed under the SIL Open Font License, Version 1.1. This Font Software is distributed on an "AS IS" BASIS, WITHOUT WARRANTIES OR CONDITIONS OF ANY KIND, either express or implied. See the SIL Open Font License for the specific language, permissions and limitations governing your use of this Font Software.
http://scripts.sil.org/OFL
  -->
<path d="M85 73C143 102 213 149 246 183L291 122C256 89 186 46 129 19ZM38 344C98 370 170 413 205 445L248 384C212 352 140 313 79 289ZM60 875L126 916C171 824 223 702 262 598L203 558C161 669 102 799 60 875ZM366 58L366 124 546 124C524 246 456 350 322 401 336 414 357 440 365 455 516 396 593 269 623 124L809 124C797 275 782 338 763 356 754 364 745 366 728 366 710 366 665 365 618 361 629 380 636 408 638 428 686 431 734 431 759 429 787 427 805 421 823 401 852 372 868 293 885 90 887 80 888 58 888 58ZM279 484L279 550 368 550C359 671 329 812 237 887 251 896 274 918 284 930 385 846 423 687 436 550L523 550C513 757 504 833 488 852 481 862 474 863 463 863 452 863 429 863 403 860 412 877 418 904 419 924 447 925 475 925 492 922 515 920 530 914 543 895 568 865 579 775 589 515 590 505 591 484 591 484ZM619 484L619 550 703 550C696 668 670 811 584 888 597 896 621 918 631 930 727 845 760 684 772 550L867 550C857 760 848 837 832 856 825 866 818 868 806 868 795 868 769 868 741 865 751 882 757 909 758 928 788 930 819 929 836 927 859 925 874 918 888 900 912 869 924 778 934 516 935 505 935 484 935 484Z"/>
</svg>