<svg xmlns="http://www.w3.org/2000/svg" name="gid15905" data-unicode="𤎼"
    viewBox="0 0 1000 1000">
  <!--
© 2014-2021 Adobe (http://www.adobe.com/).
Noto is a trademark of Google Inc.
This Font Software is licensed under the SIL Open Font License, Version 1.1. This Font Software is distributed on an "AS IS" BASIS, WITHOUT WARRANTIES OR CONDITIONS OF ANY KIND, either express or implied. See the SIL Open Font License for the specific language, permissions and limitations governing your use of this Font Software.
http://scripts.sil.org/OFL
  -->
<path d="M230 585C211 657 169 721 98 755L154 794C233 755 270 684 292 607ZM792 579C764 632 712 706 671 751L731 779C772 735 823 669 865 609ZM170 249L400 249 400 319 170 319ZM151 388C126 432 85 476 41 508 56 517 80 535 90 544 133 509 179 455 208 403ZM349 409C376 431 411 467 428 492L477 461C460 439 425 405 396 383ZM765 88C799 110 841 147 861 173L908 136C887 111 845 77 809 55ZM656 41C655 95 653 144 648 189L515 189 515 245 641 245C621 370 572 452 450 503 461 512 475 529 484 543L459 543C435 740 373 850 40 898 53 914 70 943 75 960 339 917 448 833 499 697 566 855 691 933 921 960 930 940 948 909 964 894 697 871 575 778 528 578L533 543 509 543C603 497 655 432 684 343L684 444C684 507 700 525 768 525 782 525 858 525 871 525 923 525 941 504 948 417 930 413 905 404 893 394 890 459 886 467 864 467 848 467 787 467 776 467 750 467 745 463 745 444L745 278 701 278 707 245 938 245 938 189 714 189C718 144 720 95 722 41ZM251 40L251 104 53 104 53 158 515 158 515 104 317 104 317 40ZM110 200L110 369 253 369 253 493C253 501 251 504 242 504 232 504 204 504 169 503 177 520 183 541 185 558 233 558 267 558 288 549 310 539 314 523 314 493L314 369 463 369 463 200Z"/>
</svg>