<svg xmlns="http://www.w3.org/2000/svg" name="gid15923" data-unicode="𥁊"
    viewBox="0 0 1000 1000">
  <!--
© 2014-2021 Adobe (http://www.adobe.com/).
Noto is a trademark of Google Inc.
This Font Software is licensed under the SIL Open Font License, Version 1.1. This Font Software is distributed on an "AS IS" BASIS, WITHOUT WARRANTIES OR CONDITIONS OF ANY KIND, either express or implied. See the SIL Open Font License for the specific language, permissions and limitations governing your use of this Font Software.
http://scripts.sil.org/OFL
  -->
<path d="M163 619L163 871 45 871 45 934 956 934 956 871 836 871 836 619ZM234 871L234 682 362 682 362 871ZM432 871L432 682 562 682 562 871ZM632 871L632 682 763 682 763 871ZM375 39C369 70 362 101 353 132L78 132 78 194 333 194C280 339 192 472 49 556 66 567 92 591 104 604 207 541 283 452 340 350 377 403 425 447 481 484 406 515 321 537 233 551 248 564 269 593 277 609 373 590 467 563 550 522 648 570 767 600 903 615 912 595 930 566 945 550 823 539 714 517 623 481 698 433 759 370 800 291L756 263 743 266 381 266C391 242 401 218 409 194L918 194 918 132 429 132C437 106 444 79 450 53ZM404 327L698 327C661 376 612 416 553 449 492 416 441 376 404 327Z"/>
</svg>