<svg xmlns="http://www.w3.org/2000/svg"
    viewBox="0 0 1000 1000">
  <!--
© 2014-2021 Adobe (http://www.adobe.com/).
Noto is a trademark of Google Inc.
This Font Software is licensed under the SIL Open Font License, Version 1.1. This Font Software is distributed on an "AS IS" BASIS, WITHOUT WARRANTIES OR CONDITIONS OF ANY KIND, either express or implied. See the SIL Open Font License for the specific language, permissions and limitations governing your use of this Font Software.
http://scripts.sil.org/OFL
  -->
<path d="M527 571C514 724 476 820 298 871 314 884 334 912 342 930 537 869 585 752 600 571ZM706 570L706 828C706 901 723 923 795 923 809 923 873 923 888 923 948 923 966 890 973 758 954 753 924 741 910 729 907 841 903 857 880 857 866 857 815 857 805 857 781 857 777 854 777 828L777 570ZM642 329L858 329 858 472 642 472ZM642 124L858 124 858 266 642 266ZM573 58L573 538 930 538 930 58ZM427 40L427 545 498 545 498 40ZM285 336L285 477 144 477 144 336ZM285 270L144 270 144 131 285 131ZM285 543L285 689 144 689 144 543ZM74 64L74 844 144 844 144 756 356 756 356 64Z"/>
</svg>