<svg xmlns="http://www.w3.org/2000/svg"
    viewBox="0 0 1000 1000">
  <!--
© 2014-2021 Adobe (http://www.adobe.com/).
Noto is a trademark of Google Inc.
This Font Software is licensed under the SIL Open Font License, Version 1.1. This Font Software is distributed on an "AS IS" BASIS, WITHOUT WARRANTIES OR CONDITIONS OF ANY KIND, either express or implied. See the SIL Open Font License for the specific language, permissions and limitations governing your use of this Font Software.
http://scripts.sil.org/OFL
  -->
<path d="M508 235C589 276 686 339 747 390L393 390 393 460 641 460 641 839C641 853 636 857 620 858 603 859 547 859 485 857 495 878 507 909 510 930 590 930 643 929 675 917 706 906 716 882 716 840L716 460 867 460C844 520 815 581 789 621L855 641C893 582 935 487 970 403L915 387 901 390 801 390 827 360C803 338 770 314 733 289 809 236 883 162 931 92L881 59 866 63 444 63 444 130 809 130C772 173 722 217 673 250 632 226 590 203 552 185ZM384 22C306 56 166 87 46 106 55 123 66 148 69 164 120 157 174 148 228 137L228 293 49 293 49 362 217 362C175 478 103 609 36 680 50 697 68 729 76 750 130 687 185 585 228 482L228 930 301 930 301 501C338 547 385 608 403 639L446 578C426 553 334 457 301 427L301 362 434 362 434 293 301 293 301 121C351 109 397 95 437 80Z"/>
</svg>