<svg xmlns="http://www.w3.org/2000/svg" name="gid15938" data-unicode="𥞩"
    viewBox="0 0 1000 1000">
  <!--
© 2014-2021 Adobe (http://www.adobe.com/).
Noto is a trademark of Google Inc.
This Font Software is licensed under the SIL Open Font License, Version 1.1. This Font Software is distributed on an "AS IS" BASIS, WITHOUT WARRANTIES OR CONDITIONS OF ANY KIND, either express or implied. See the SIL Open Font License for the specific language, permissions and limitations governing your use of this Font Software.
http://scripts.sil.org/OFL
  -->
<path d="M766 317L766 509 606 509 606 317ZM361 54C287 88 155 117 43 136 52 152 62 177 65 193 112 187 162 178 212 168L212 322 49 322 49 392 202 392C162 507 93 637 28 708 41 726 59 756 67 777 118 715 171 616 212 515L212 958 286 958 286 527C320 569 360 623 377 651L422 592 411 580 531 580C525 691 495 824 360 906 377 919 400 945 410 961 561 862 598 711 605 580L766 580 766 958 840 958 840 580 957 580 957 509 840 509 840 317 950 317 950 246 802 246C835 199 874 129 907 68L835 39C814 94 774 173 743 221L797 246 562 246 620 221C608 173 572 99 536 44L473 69C506 124 539 197 552 246L418 246 418 317 532 317 532 509 399 509 399 567C365 531 308 473 286 454L286 392 411 392 411 322 286 322 286 151C333 140 377 127 413 112Z"/>
</svg>