<svg xmlns="http://www.w3.org/2000/svg" name="gid15947" data-unicode="𥫱"
    viewBox="0 0 1000 1000">
  <!--
© 2014-2021 Adobe (http://www.adobe.com/).
Noto is a trademark of Google Inc.
This Font Software is licensed under the SIL Open Font License, Version 1.1. This Font Software is distributed on an "AS IS" BASIS, WITHOUT WARRANTIES OR CONDITIONS OF ANY KIND, either express or implied. See the SIL Open Font License for the specific language, permissions and limitations governing your use of this Font Software.
http://scripts.sil.org/OFL
  -->
<path d="M821 302C749 326 646 346 530 361L530 284 517 284C537 260 556 232 573 203L647 203C677 241 706 290 718 321L786 296C775 270 754 235 731 203L955 203 955 138 608 138C621 111 633 82 643 53L569 35C550 95 521 153 486 202L486 138 229 138C242 110 253 82 263 54L192 35C159 137 101 237 36 304 54 313 85 333 99 345 133 307 167 258 197 203L231 203C256 243 280 290 291 322L355 296C347 271 328 236 308 203L485 203C463 235 438 263 411 286 423 292 440 304 455 315L455 370C339 383 216 392 103 398 111 414 119 443 121 461 227 456 343 449 455 437L455 670 220 670 220 493 145 493 145 812 220 812 220 738 455 738 455 828C455 923 486 948 594 948 618 948 792 948 817 948 907 948 930 914 939 806 919 802 890 790 872 778 866 863 858 881 813 881 777 881 627 881 599 881 540 881 530 872 530 828L530 738 775 738 775 789 851 789 851 490 775 490 775 670 530 670 530 428C663 412 786 389 879 359Z"/>
</svg>