<svg xmlns="http://www.w3.org/2000/svg" name="gid15973" data-unicode="𦐂"
    viewBox="0 0 1000 1000">
  <!--
© 2014-2021 Adobe (http://www.adobe.com/).
Noto is a trademark of Google Inc.
This Font Software is licensed under the SIL Open Font License, Version 1.1. This Font Software is distributed on an "AS IS" BASIS, WITHOUT WARRANTIES OR CONDITIONS OF ANY KIND, either express or implied. See the SIL Open Font License for the specific language, permissions and limitations governing your use of this Font Software.
http://scripts.sil.org/OFL
  -->
<path d="M778 88C823 139 871 209 891 256L948 221C928 175 878 107 832 58ZM664 45C667 143 671 237 677 324L562 339 572 405 682 391C692 518 706 629 727 720 673 792 610 854 542 895L543 875 543 78 310 78 310 144 477 144 477 200 430 188C399 274 349 360 293 419 309 428 334 448 345 458 394 403 442 322 477 239L477 493 428 482C401 584 352 682 291 746 306 756 331 777 342 788 396 726 444 637 477 541L477 874C477 888 473 892 460 892 449 893 407 893 364 892 374 910 384 941 386 959 447 959 486 957 511 946 529 937 538 923 542 899 560 912 581 932 593 948 649 911 702 860 749 801 782 899 826 957 886 959 924 960 961 917 981 762 967 755 939 737 927 722 919 818 906 873 887 873 853 871 825 818 801 730 862 639 910 536 942 433L885 403C861 483 826 564 781 638 768 565 758 478 750 382L963 354 954 288 745 315C739 230 735 139 734 45ZM172 482C143 587 89 684 23 749 38 759 63 780 73 791 134 727 188 633 223 530L223 876C223 890 218 894 205 894 194 895 152 895 109 894 118 912 128 943 131 960 192 960 231 959 256 947 280 936 288 915 288 876L288 78 43 78 43 144 223 144 223 202 174 189C144 276 92 362 34 420 48 429 74 449 85 459 136 403 188 320 223 235L223 494Z"/>
</svg>