<svg xmlns="http://www.w3.org/2000/svg" name="gid15976" data-unicode="𦜝"
    viewBox="0 0 1000 1000">
  <!--
© 2014-2021 Adobe (http://www.adobe.com/).
Noto is a trademark of Google Inc.
This Font Software is licensed under the SIL Open Font License, Version 1.1. This Font Software is distributed on an "AS IS" BASIS, WITHOUT WARRANTIES OR CONDITIONS OF ANY KIND, either express or implied. See the SIL Open Font License for the specific language, permissions and limitations governing your use of this Font Software.
http://scripts.sil.org/OFL
  -->
<path d="M102 82L102 440C102 587 96 787 30 927 47 933 77 950 90 961 135 866 154 740 162 621L291 621 291 873C291 885 287 889 276 889 265 890 231 890 193 889 202 907 211 938 214 956 270 956 305 954 328 943 351 931 359 910 359 873L359 82ZM168 148L291 148 291 318 168 318ZM168 384L291 384 291 554 166 554C168 514 168 475 168 440ZM625 40L625 138 383 138 383 202 471 202C509 258 552 303 602 340 530 375 446 401 359 418 371 433 390 464 397 480 492 456 584 424 664 379 739 421 827 450 928 475 935 453 952 429 968 414 876 395 796 372 727 340 781 302 827 256 860 202L956 202 956 138 697 138 697 40ZM779 202C750 242 710 277 664 306 620 278 581 244 547 202ZM804 599L804 693 533 693C535 668 536 644 536 621L536 599ZM466 471L466 621C466 711 455 834 371 921 388 931 414 949 428 961 485 902 512 829 525 757L804 757 804 956 875 956 875 469 804 469 804 535 536 535 536 471Z"/>
</svg>