<svg xmlns="http://www.w3.org/2000/svg" name="gid15987" data-unicode="𦫿"
    viewBox="0 0 1000 1000">
  <!--
© 2014-2021 Adobe (http://www.adobe.com/).
Noto is a trademark of Google Inc.
This Font Software is licensed under the SIL Open Font License, Version 1.1. This Font Software is distributed on an "AS IS" BASIS, WITHOUT WARRANTIES OR CONDITIONS OF ANY KIND, either express or implied. See the SIL Open Font License for the specific language, permissions and limitations governing your use of this Font Software.
http://scripts.sil.org/OFL
  -->
<path d="M121 368L121 440 289 440 219 467C274 575 347 668 438 744 325 813 192 860 52 890 67 907 88 941 96 961 242 926 382 872 502 793 615 872 751 928 908 960 918 939 940 906 957 889 809 862 678 813 569 744 680 656 769 542 824 395L772 364 758 368ZM289 440L719 440C669 546 595 631 505 699 411 628 338 540 289 440ZM628 40L628 140 370 140 370 40 297 40 297 140 64 140 64 211 297 211 297 327 370 327 370 211 628 211 628 327 703 327 703 211 937 211 937 140 703 140 703 40Z"/>
</svg>