<svg xmlns="http://www.w3.org/2000/svg" name="gid15999" data-unicode="𧄍"
    viewBox="0 0 1000 1000">
  <!--
© 2014-2021 Adobe (http://www.adobe.com/).
Noto is a trademark of Google Inc.
This Font Software is licensed under the SIL Open Font License, Version 1.1. This Font Software is distributed on an "AS IS" BASIS, WITHOUT WARRANTIES OR CONDITIONS OF ANY KIND, either express or implied. See the SIL Open Font License for the specific language, permissions and limitations governing your use of this Font Software.
http://scripts.sil.org/OFL
  -->
<path d="M629 40L629 104 367 104 367 40 294 40 294 104 56 104 56 163 294 163 294 211 367 211 367 163 629 163 629 211 702 211 702 163 946 163 946 104 702 104 702 40ZM226 200L226 250 93 250 93 303 226 303 226 352 52 352 52 405 467 405 467 352 291 352 291 303 429 303 429 250 291 250 291 200ZM125 407L125 461 60 461 60 513 125 513 125 575 44 588 53 642C113 631 179 619 248 606L245 555 180 566 180 513 240 513 240 461 180 461 180 407ZM332 407L332 462 273 462 273 514 332 514 332 570 256 570 256 623 473 623 473 570 387 570 387 514 459 514 459 462 387 462 387 407ZM816 501C788 569 740 636 690 683 702 692 723 712 733 721 772 683 812 629 844 571L844 770C844 781 840 784 829 784 819 785 785 785 747 784 756 801 765 827 768 843 820 843 853 843 876 833 884 829 890 824 893 818 886 875 870 886 808 886 748 886 515 886 471 886 376 886 359 878 359 848L359 724 466 724 466 667 50 667 50 724 159 724C148 812 118 877 34 915 48 925 66 947 74 963 173 914 207 834 221 724L295 724 295 848C295 928 333 946 474 946 504 946 779 946 811 946 922 946 947 920 958 810 942 806 919 799 903 791L904 771 904 239 712 239 712 296 844 296 844 328 809 318C783 370 742 424 700 463 713 472 734 492 743 501 777 467 815 417 844 368L844 509ZM597 501C568 568 520 634 469 680 483 689 504 709 513 719 551 681 590 629 622 573L622 771C622 781 618 784 607 784 598 785 564 785 526 784 535 800 545 827 548 843 598 843 632 842 654 832 676 821 682 803 682 771L682 239 482 239 482 296 622 296 622 327 592 318C565 371 525 425 483 463 496 472 517 492 526 501 558 469 594 423 622 376L622 508Z"/>
</svg>