<svg xmlns="http://www.w3.org/2000/svg" name="gid16012" data-unicode="𧜣"
    viewBox="0 0 1000 1000">
  <!--
© 2014-2021 Adobe (http://www.adobe.com/).
Noto is a trademark of Google Inc.
This Font Software is licensed under the SIL Open Font License, Version 1.1. This Font Software is distributed on an "AS IS" BASIS, WITHOUT WARRANTIES OR CONDITIONS OF ANY KIND, either express or implied. See the SIL Open Font License for the specific language, permissions and limitations governing your use of this Font Software.
http://scripts.sil.org/OFL
  -->
<path d="M392 717C378 787 350 867 306 914L361 950C410 898 436 810 451 735ZM488 741C503 801 513 878 511 925L568 915C569 869 558 793 541 734ZM593 736C621 783 648 846 657 887L706 865C697 826 668 765 639 719ZM698 717C729 747 763 790 778 818L819 791C803 762 769 721 738 692ZM355 412C341 442 315 486 293 518L260 477C303 407 339 330 365 252L326 227 313 230 245 230 245 45 176 45 176 230 54 230 54 296 281 296C226 433 126 570 29 648 42 660 61 693 68 711 105 679 143 639 179 593L179 960 247 960 247 546C280 592 317 648 333 678L378 627 324 556C348 525 376 483 400 445ZM811 309L811 376 493 376 493 309ZM811 256L493 256 493 191 811 191ZM421 133L421 677 869 677C861 820 851 876 837 892 829 900 821 902 806 902 791 902 752 901 711 898 721 915 728 941 729 960 773 962 815 962 837 960 863 958 880 952 895 935 918 908 930 836 939 647 941 637 941 617 941 617L493 617 493 553 962 553 962 496 493 496 493 435 882 435 882 133 672 133 704 54 620 40C616 66 607 102 597 133Z"/>
</svg>