<svg xmlns="http://www.w3.org/2000/svg" name="gid16015" data-unicode="𧦅"
    viewBox="0 0 1000 1000">
  <!--
© 2014-2021 Adobe (http://www.adobe.com/).
Noto is a trademark of Google Inc.
This Font Software is licensed under the SIL Open Font License, Version 1.1. This Font Software is distributed on an "AS IS" BASIS, WITHOUT WARRANTIES OR CONDITIONS OF ANY KIND, either express or implied. See the SIL Open Font License for the specific language, permissions and limitations governing your use of this Font Software.
http://scripts.sil.org/OFL
  -->
<path d="M85 343L85 402 366 402 366 343ZM88 75L88 135 362 135 362 75ZM85 476L85 536 366 536 366 476ZM38 206L38 269 405 269 405 206ZM81 611L81 949 147 949 147 903 369 903 369 611ZM147 674L303 674 303 841 147 841ZM438 98L438 960 509 960 509 907 962 907 962 838 509 838 509 167 947 167 947 98ZM797 216C779 290 754 365 723 436 678 390 630 346 584 308L535 351C588 395 643 448 693 501 647 595 590 680 524 746 540 757 565 776 577 789 641 723 696 643 743 555 794 614 838 672 866 719L921 669C889 617 836 553 775 489 812 410 843 325 867 239Z"/>
</svg>