<svg xmlns="http://www.w3.org/2000/svg" name="gid16019" data-unicode="𧮾"
    viewBox="0 0 1000 1000">
  <!--
© 2014-2021 Adobe (http://www.adobe.com/).
Noto is a trademark of Google Inc.
This Font Software is licensed under the SIL Open Font License, Version 1.1. This Font Software is distributed on an "AS IS" BASIS, WITHOUT WARRANTIES OR CONDITIONS OF ANY KIND, either express or implied. See the SIL Open Font License for the specific language, permissions and limitations governing your use of this Font Software.
http://scripts.sil.org/OFL
  -->
<path d="M609 55C585 133 545 215 499 271 517 280 547 299 560 310 605 250 650 158 679 71ZM770 81C816 146 865 235 886 293L949 262C928 204 879 118 831 54ZM54 226C81 278 105 349 112 394L173 372C164 327 139 258 111 208ZM199 191C221 245 239 316 242 363L304 347C299 302 281 230 257 177ZM420 175C403 236 369 323 342 377L393 399C422 348 456 267 487 200ZM424 48C337 80 181 107 46 123 55 138 64 164 67 179 206 165 371 138 478 101ZM621 911L828 911 828 957 899 957 899 594C912 608 925 620 938 631 948 608 965 579 978 561 892 499 805 372 754 248L683 248C645 366 561 501 469 574 483 591 499 618 507 638 523 625 538 611 553 595L553 961 621 961ZM621 846L621 643 828 643 828 846ZM722 326C757 412 816 505 882 577L570 577C636 503 690 409 722 326ZM224 379L224 460 73 460 73 526 224 526 224 560C224 578 224 598 222 618L41 618 41 684 212 684C194 764 147 848 34 909 50 922 72 945 82 960 178 904 231 834 260 762 312 816 369 880 399 922L452 878C416 830 340 752 282 693L284 684 476 684 476 618 293 618C294 598 295 578 295 560L295 526 456 526 456 460 295 460 295 379Z"/>
</svg>