<svg xmlns="http://www.w3.org/2000/svg" name="gid16018" data-unicode="𧮳"
    viewBox="0 0 1000 1000">
  <!--
© 2014-2021 Adobe (http://www.adobe.com/).
Noto is a trademark of Google Inc.
This Font Software is licensed under the SIL Open Font License, Version 1.1. This Font Software is distributed on an "AS IS" BASIS, WITHOUT WARRANTIES OR CONDITIONS OF ANY KIND, either express or implied. See the SIL Open Font License for the specific language, permissions and limitations governing your use of this Font Software.
http://scripts.sil.org/OFL
  -->
<path d="M171 66C140 139 90 214 36 265 53 275 81 297 93 309 147 253 203 166 239 84ZM300 88C341 139 386 208 405 253L466 222C446 178 399 111 358 61ZM442 240L442 311 533 311 533 960 605 960 605 899 809 899 809 958 882 958 882 311 967 311 967 240 882 240 882 43 809 43 809 240 605 240 605 43 533 43 533 240ZM605 311L809 311 809 534 605 534ZM605 603L809 603 809 829 605 829ZM284 344C334 408 389 492 419 549L139 549C202 480 250 406 284 344ZM240 266C200 359 125 479 20 567 37 577 61 599 73 615 92 598 109 581 126 563L126 946 196 946 196 884 353 884 353 938 425 938 425 558 484 512C447 446 372 341 308 266ZM196 820L196 614 353 614 353 820Z"/>
</svg>