<svg xmlns="http://www.w3.org/2000/svg"
    viewBox="0 0 1000 1000">
  <!--
© 2014-2021 Adobe (http://www.adobe.com/).
Noto is a trademark of Google Inc.
This Font Software is licensed under the SIL Open Font License, Version 1.1. This Font Software is distributed on an "AS IS" BASIS, WITHOUT WARRANTIES OR CONDITIONS OF ANY KIND, either express or implied. See the SIL Open Font License for the specific language, permissions and limitations governing your use of this Font Software.
http://scripts.sil.org/OFL
  -->
<path d="M86 219C114 256 143 306 154 339L209 310C198 278 167 230 139 195ZM229 168C252 199 276 243 285 271L339 243C329 216 304 173 280 143ZM378 11C299 60 153 111 26 140 40 154 56 178 64 194 192 162 336 113 422 57ZM494 479L494 927 567 927 567 871 854 871 854 923 930 923 930 479 729 479 729 284 962 284 962 211 729 211 729 10 653 10 653 479ZM567 799L567 551 854 551 854 799ZM416 190C332 275 182 361 38 415 52 429 69 451 77 466 143 440 210 409 271 374 286 393 300 414 311 436 251 492 139 557 53 588 68 602 86 626 95 643 172 607 268 547 335 490 344 517 352 543 357 570 283 651 146 739 36 780 50 794 67 820 76 836 171 793 286 717 367 642 374 737 357 818 329 842 311 862 292 865 266 865 247 865 213 863 179 860 189 880 195 908 196 928 227 930 261 930 282 930 327 929 355 920 385 891 461 822 470 519 324 342 377 309 425 272 463 234Z"/>
</svg>