<svg xmlns="http://www.w3.org/2000/svg" name="gid16035" data-unicode="𨕫"
    viewBox="0 0 1000 1000">
  <!--
© 2014-2021 Adobe (http://www.adobe.com/).
Noto is a trademark of Google Inc.
This Font Software is licensed under the SIL Open Font License, Version 1.1. This Font Software is distributed on an "AS IS" BASIS, WITHOUT WARRANTIES OR CONDITIONS OF ANY KIND, either express or implied. See the SIL Open Font License for the specific language, permissions and limitations governing your use of this Font Software.
http://scripts.sil.org/OFL
  -->
<path d="M61 103C115 161 176 240 202 293L262 251C236 199 173 122 117 66ZM238 419L49 419 49 488 168 488 168 761C125 803 75 846 33 878L73 952C121 907 165 864 207 821 270 900 361 936 495 941 609 945 826 943 940 938 943 916 955 881 964 864 841 873 607 876 494 871 375 866 286 832 238 757ZM392 40L392 178 286 178 286 242 479 242C430 364 341 479 252 545 264 555 284 583 291 600 325 572 359 538 392 499L392 817 457 817 457 439C485 482 520 537 533 567L574 507C560 488 507 418 477 380 510 324 539 262 559 198L521 175 509 178 458 178 458 40ZM729 416L729 559 642 559 642 416ZM784 416L877 416 877 559 784 559ZM642 225L729 225 729 356 642 356ZM784 356L784 225 877 225 877 356ZM582 164L582 620 724 620 724 820 790 820 790 620 940 620 940 164 790 164 790 40 724 40 724 164Z"/>
</svg>