<svg xmlns="http://www.w3.org/2000/svg" name="gid16037" data-unicode="𨗉"
    viewBox="0 0 1000 1000">
  <!--
© 2014-2021 Adobe (http://www.adobe.com/).
Noto is a trademark of Google Inc.
This Font Software is licensed under the SIL Open Font License, Version 1.1. This Font Software is distributed on an "AS IS" BASIS, WITHOUT WARRANTIES OR CONDITIONS OF ANY KIND, either express or implied. See the SIL Open Font License for the specific language, permissions and limitations governing your use of this Font Software.
http://scripts.sil.org/OFL
  -->
<path d="M82 96C140 129 205 181 235 220L288 171C256 133 189 84 132 52ZM46 303C106 335 176 385 208 422L259 371C225 334 154 287 94 257ZM581 40L581 116 306 116 306 238 374 238 374 171 501 171C480 239 430 277 302 299 315 310 331 333 337 348 482 317 542 264 565 171L650 171 650 239C650 296 664 311 728 311 739 311 799 311 811 311 854 311 872 295 878 241L866 238 936 238 936 116 653 116 653 40ZM712 171L865 171 865 238C850 233 833 227 824 220 822 254 818 258 802 258 790 258 744 258 735 258 714 258 712 256 712 239ZM829 432C793 466 731 512 680 542 659 506 629 472 590 443L624 417 944 417 944 360 299 360 299 417 537 417C470 459 380 494 298 517 311 529 332 552 340 563 406 541 479 509 543 473 558 484 572 497 584 509 516 559 404 607 318 631 331 642 348 663 357 677 437 651 542 599 615 548 624 561 632 575 638 589 565 663 423 729 298 759 310 771 328 792 337 807 448 776 574 714 657 642 669 698 657 745 631 764 616 776 599 778 577 778 559 778 532 777 503 774 515 791 521 818 522 835 547 837 570 837 589 837 625 836 648 831 676 809 718 778 735 707 717 630 789 677 861 733 901 773L946 726C900 681 814 619 734 571 783 543 840 504 886 468ZM234 505L42 505 42 572 163 572 163 775C121 815 76 855 37 884L74 952C121 908 164 866 205 823 270 901 362 936 495 941 609 945 831 943 944 938 948 918 958 886 967 870 845 878 607 880 494 876 375 872 283 838 234 764Z"/>
</svg>