<svg xmlns="http://www.w3.org/2000/svg" name="gid16046" data-unicode="𨦻"
    viewBox="0 0 1000 1000">
  <!--
© 2014-2021 Adobe (http://www.adobe.com/).
Noto is a trademark of Google Inc.
This Font Software is licensed under the SIL Open Font License, Version 1.1. This Font Software is distributed on an "AS IS" BASIS, WITHOUT WARRANTIES OR CONDITIONS OF ANY KIND, either express or implied. See the SIL Open Font License for the specific language, permissions and limitations governing your use of this Font Software.
http://scripts.sil.org/OFL
  -->
<path d="M70 590C90 651 106 729 108 781L162 767C158 716 141 638 121 578ZM335 568C328 620 310 700 295 748L344 761C359 715 377 642 392 582ZM446 85L446 495 632 495C630 528 628 560 624 589L420 589 420 658 612 658C585 774 525 853 377 902 392 915 412 943 420 960 590 901 657 802 686 658L862 658C852 805 841 865 824 882 815 890 806 892 791 892 774 892 733 891 689 887 701 906 709 935 710 956 755 959 797 958 821 957 849 954 867 948 883 929 910 900 923 822 935 621 937 611 937 589 937 589L697 589C700 559 703 528 705 495L928 495 928 85ZM515 319L647 319 647 433 515 433ZM715 319L856 319 856 433 715 433ZM515 147L647 147 647 260 515 260ZM715 147L856 147 856 260 715 260ZM202 40C168 121 106 223 17 300 33 310 54 332 65 347L102 311 102 351 201 351 201 459 51 459 51 525 201 525 201 832 41 862 58 930C157 910 287 881 412 854L407 791 267 819 267 525 395 525 395 459 267 459 267 351 378 351 378 287 124 287C176 227 216 163 245 110 297 162 352 233 380 279L435 225C400 174 329 96 270 40Z"/>
</svg>