<svg xmlns="http://www.w3.org/2000/svg" name="gid16048" data-unicode="𨨩"
    viewBox="0 0 1000 1000">
  <!--
© 2014-2021 Adobe (http://www.adobe.com/).
Noto is a trademark of Google Inc.
This Font Software is licensed under the SIL Open Font License, Version 1.1. This Font Software is distributed on an "AS IS" BASIS, WITHOUT WARRANTIES OR CONDITIONS OF ANY KIND, either express or implied. See the SIL Open Font License for the specific language, permissions and limitations governing your use of this Font Software.
http://scripts.sil.org/OFL
  -->
<path d="M800 665C851 740 898 840 913 905L975 878C960 812 911 714 858 640ZM77 590C97 651 112 729 114 781L170 767C166 716 150 639 129 578ZM355 569C347 622 328 701 313 749L362 764C379 717 397 645 414 584ZM569 643L569 862C569 909 574 923 592 936 609 948 636 951 660 951 674 951 717 951 731 951 752 951 779 948 794 942 811 934 823 924 830 905 836 889 841 843 841 798 823 792 797 778 784 766 784 809 782 846 779 861 776 871 769 878 762 881 755 884 738 885 724 885 709 885 684 885 672 885 659 885 649 884 642 881 634 878 632 871 632 863L632 643ZM652 43L652 157 460 157 460 521 526 521 526 471 652 471 652 555 629 540 583 583C637 617 696 669 722 708L769 661C751 635 718 604 682 576L721 576 721 471 859 471 859 515 928 515 928 157 721 157 721 43ZM208 40C175 120 110 222 20 298 34 308 56 331 67 346 81 333 95 320 108 307L108 352 211 352 211 459 55 459 55 525 211 525 211 830 45 860 61 929C157 910 284 883 408 856L392 878 448 911C497 853 519 758 533 674L473 656C466 712 452 771 429 820L426 788 278 817 278 525 421 525 421 459 278 459 278 352 397 352 397 288 126 288C181 227 222 164 252 109 306 160 364 233 394 279L444 222C409 172 336 94 276 40ZM526 405L526 224 652 224 652 405ZM859 405L721 405 721 224 859 224Z"/>
</svg>