<svg xmlns="http://www.w3.org/2000/svg" name="gid16064" data-unicode="𨸶"
    viewBox="0 0 1000 1000">
  <!--
© 2014-2021 Adobe (http://www.adobe.com/).
Noto is a trademark of Google Inc.
This Font Software is licensed under the SIL Open Font License, Version 1.1. This Font Software is distributed on an "AS IS" BASIS, WITHOUT WARRANTIES OR CONDITIONS OF ANY KIND, either express or implied. See the SIL Open Font License for the specific language, permissions and limitations governing your use of this Font Software.
http://scripts.sil.org/OFL
  -->
<path d="M484 215C462 306 425 396 376 456 394 465 424 482 438 492 485 428 527 329 553 230ZM764 234C808 312 855 418 873 485L938 460C919 393 871 290 825 213ZM82 83L82 960 149 960 149 151 276 151C254 224 222 324 191 402 266 486 285 558 285 616 285 648 280 678 265 689 255 695 244 698 231 698 216 700 196 699 173 697 186 717 191 748 192 766 215 767 240 767 260 765 281 762 299 757 314 747 343 725 355 681 354 624 354 558 338 481 261 393 296 309 336 200 366 111L315 80 304 83ZM368 533L368 602 626 602 626 960 698 960 698 602 959 602 959 533 698 533 698 170 929 170 929 101 404 101 404 170 626 170 626 533Z"/>
</svg>