<svg xmlns="http://www.w3.org/2000/svg"
    viewBox="0 0 1000 1000">
  <!--
© 2014-2021 Adobe (http://www.adobe.com/).
Noto is a trademark of Google Inc.
This Font Software is licensed under the SIL Open Font License, Version 1.1. This Font Software is distributed on an "AS IS" BASIS, WITHOUT WARRANTIES OR CONDITIONS OF ANY KIND, either express or implied. See the SIL Open Font License for the specific language, permissions and limitations governing your use of this Font Software.
http://scripts.sil.org/OFL
  -->
<path d="M864 79C847 154 811 263 781 328L841 348C871 285 907 184 936 101ZM480 108C512 184 539 284 546 349L612 326C604 261 575 163 542 87ZM71 370L71 615 218 615 218 700 40 700 40 766 218 766 218 931 288 931 288 766 469 766 469 700 288 700 288 615 437 615 437 370 288 370 288 304 387 304 387 168 462 168 462 105 387 105 387 20 319 20 319 105 191 105 191 20 124 20 124 105 44 105 44 168 124 168 124 304 218 304 218 370ZM319 168L319 246 191 246 191 168ZM134 428L224 428 224 557 134 557ZM282 428L374 428 374 557 282 557ZM463 397L463 465 577 465C569 666 527 800 398 880 414 891 442 918 452 931 587 836 637 691 649 465L733 465 733 825C733 899 748 921 814 921 827 921 877 921 891 921 949 921 966 886 972 756 953 751 924 739 909 727 907 837 903 854 884 854 873 854 832 854 824 854 805 854 802 850 802 824L802 465 955 465 955 397 732 397 732 10 662 10 662 397Z"/>
</svg>