<svg xmlns="http://www.w3.org/2000/svg" name="gid16087" data-unicode="𩻄"
    viewBox="0 0 1000 1000">
  <!--
© 2014-2021 Adobe (http://www.adobe.com/).
Noto is a trademark of Google Inc.
This Font Software is licensed under the SIL Open Font License, Version 1.1. This Font Software is distributed on an "AS IS" BASIS, WITHOUT WARRANTIES OR CONDITIONS OF ANY KIND, either express or implied. See the SIL Open Font License for the specific language, permissions and limitations governing your use of this Font Software.
http://scripts.sil.org/OFL
  -->
<path d="M363 718C381 754 400 803 407 834L454 816C446 787 427 739 407 703ZM278 735C297 786 313 853 315 898L365 886C361 843 345 775 324 725ZM190 741C200 801 205 878 200 928L252 921C255 872 251 795 239 735ZM102 726C94 802 75 884 34 931L84 960C129 908 146 821 156 739ZM783 153L863 153 863 278 783 278ZM651 153L729 153 729 278 651 278ZM523 153L598 153 598 278 523 278ZM153 515L232 515 232 620 153 620ZM286 515L366 515 366 620 286 620ZM153 353L232 353 232 457 153 457ZM286 353L366 353 366 457 286 457ZM246 293L148 293C166 259 181 225 195 190L288 190C276 226 261 264 246 293ZM174 41C152 135 107 259 32 352 49 360 72 379 84 394L95 379 95 680 427 680 427 293 310 293C332 250 355 200 372 154L329 126 317 130 216 130C225 103 233 76 240 50ZM906 398C880 428 838 469 800 501 784 448 772 392 762 335L925 335 925 96 463 96 463 335 637 335C582 395 504 448 427 485 442 495 467 520 477 532 518 510 560 482 601 451 615 467 628 486 638 506 590 560 504 619 434 647 448 658 468 680 478 696 537 666 609 614 662 559 671 583 677 608 683 632 628 710 523 791 430 828 444 840 464 863 475 879 550 843 633 779 693 709 699 786 690 853 671 875 658 895 644 897 624 897 608 897 584 896 559 893 569 912 575 939 575 956 599 958 622 959 638 959 676 958 701 950 724 919 784 851 778 552 644 415 667 394 689 372 708 349 744 566 812 758 928 858 938 840 960 816 975 804 907 753 856 665 818 558 860 529 912 487 954 450Z"/>
</svg>