<svg xmlns="http://www.w3.org/2000/svg"
    viewBox="0 0 1000 1000">
  <!--
© 2014-2021 Adobe (http://www.adobe.com/).
Noto is a trademark of Google Inc.
This Font Software is licensed under the SIL Open Font License, Version 1.1. This Font Software is distributed on an "AS IS" BASIS, WITHOUT WARRANTIES OR CONDITIONS OF ANY KIND, either express or implied. See the SIL Open Font License for the specific language, permissions and limitations governing your use of this Font Software.
http://scripts.sil.org/OFL
  -->
<path d="M333 691C350 732 367 785 372 820L418 804C412 770 394 718 376 678ZM251 704C267 756 278 824 280 869L328 859C326 815 313 747 297 695ZM170 707C176 766 177 840 171 888L222 883C227 834 226 760 217 702ZM87 696C82 776 69 857 30 903L78 930C120 879 132 791 138 707ZM412 346L412 408 959 408 959 346 729 346 729 206 902 206 902 145 729 145 729 12 662 12 662 346 564 346 564 92 499 92 499 346ZM387 853L404 914C478 896 570 872 660 848L660 905 960 905 960 847 860 847 860 647 940 647 940 591 860 591 860 438 803 438 803 847 750 847 750 530 696 530 696 847 663 847 671 845 666 790 596 806 596 647 667 647 667 591 596 591 596 438 539 438 539 820 490 831 490 530 437 530 437 843ZM265 160C252 196 237 234 222 263L134 263C151 229 165 194 178 160ZM159 10C138 102 97 225 29 319 44 326 67 344 78 358L85 348 85 650 387 650 387 263 282 263C305 220 329 170 346 123L305 96 293 100 198 100C207 72 215 44 221 18ZM143 484L209 484 209 591 143 591ZM259 484L327 484 327 591 259 591ZM143 322L209 322 209 427 143 427ZM259 322L327 322 327 427 259 427Z"/>
</svg>