<svg xmlns="http://www.w3.org/2000/svg" name="gid16097" data-unicode="𪎌"
    viewBox="0 0 1000 1000">
  <!--
© 2014-2021 Adobe (http://www.adobe.com/).
Noto is a trademark of Google Inc.
This Font Software is licensed under the SIL Open Font License, Version 1.1. This Font Software is distributed on an "AS IS" BASIS, WITHOUT WARRANTIES OR CONDITIONS OF ANY KIND, either express or implied. See the SIL Open Font License for the specific language, permissions and limitations governing your use of this Font Software.
http://scripts.sil.org/OFL
  -->
<path d="M526 261C553 308 578 371 585 410L641 391C634 351 607 291 579 245ZM850 239C835 284 806 350 784 390L834 410C857 371 886 312 909 260ZM238 40L238 120 66 120 66 179 238 179 238 246 82 246 82 304 238 304 238 377 51 377 51 438 196 438C158 534 97 622 25 681 40 693 65 721 75 735 104 708 132 676 158 641 179 699 205 746 234 785 178 837 110 876 37 903 52 915 74 945 83 962 155 933 222 891 281 835 375 921 502 943 666 943L945 943C948 922 961 889 973 872 922 873 707 873 667 873 527 873 412 855 327 785 383 718 428 634 455 531L412 510 398 513 237 513C249 489 260 463 269 438L490 438 490 377 309 377 309 304 455 304 455 246 309 246 309 179 479 179 479 120 309 120 309 40ZM684 41L684 163 512 163 512 224 684 224 684 421 498 421 498 483 657 483C612 583 537 679 457 725 473 738 493 762 504 779 573 731 637 651 684 560L684 830 750 830 750 555C795 644 856 727 919 773 930 756 952 733 967 720 892 675 819 579 775 483L943 483 943 421 750 421 750 224 925 224 925 163 750 163 750 41ZM201 576L204 572 371 572C349 635 318 690 279 736 247 696 221 643 201 576Z"/>
</svg>