<svg xmlns="http://www.w3.org/2000/svg" name="gid16102" data-unicode="𪚲"
    viewBox="0 0 1000 1000">
  <!--
© 2014-2021 Adobe (http://www.adobe.com/).
Noto is a trademark of Google Inc.
This Font Software is licensed under the SIL Open Font License, Version 1.1. This Font Software is distributed on an "AS IS" BASIS, WITHOUT WARRANTIES OR CONDITIONS OF ANY KIND, either express or implied. See the SIL Open Font License for the specific language, permissions and limitations governing your use of this Font Software.
http://scripts.sil.org/OFL
  -->
<path d="M406 536L406 867 474 867 474 815 625 815 625 848C625 928 647 948 731 948 749 948 859 948 878 948 941 948 962 926 969 854 950 850 923 840 907 831 905 880 899 890 872 890 850 890 757 890 740 890 701 890 695 883 695 849L695 815 928 815 928 536 695 536 695 483 902 483 902 218 742 218C767 188 791 155 810 123L766 92 752 96 590 96 616 53 545 41C509 109 443 191 350 253L350 87 100 87 100 444C100 590 95 789 32 930 49 936 78 952 91 963 133 869 151 746 159 629L284 629 284 877C284 890 280 893 267 894 257 894 220 895 179 893 188 911 198 942 200 960 259 960 295 959 319 946 342 935 350 914 350 877L350 255C367 264 387 285 399 300L431 276 431 483 625 483 625 536ZM165 154L284 154 284 322 165 322ZM165 389L284 389 284 562 163 562C164 520 165 480 165 444ZM625 699L625 763 474 763 474 699ZM695 699L858 699 858 763 695 763ZM625 650L474 650 474 588 625 588ZM695 650L695 588 858 588 858 650ZM553 150L714 150C699 174 681 199 663 218L494 218C516 196 535 173 553 150ZM698 267L832 267 832 326 695 326 695 267ZM500 373L625 373 625 434 500 434ZM695 373L832 373 832 434 695 434ZM500 267L625 267 625 326 500 326Z"/>
</svg>