<svg xmlns="http://www.w3.org/2000/svg" name="gid4760" data-unicode="⺐"
    viewBox="0 0 1000 1000">
  <!--
© 2014-2021 Adobe (http://www.adobe.com/).
Noto is a trademark of Google Inc.
This Font Software is licensed under the SIL Open Font License, Version 1.1. This Font Software is distributed on an "AS IS" BASIS, WITHOUT WARRANTIES OR CONDITIONS OF ANY KIND, either express or implied. See the SIL Open Font License for the specific language, permissions and limitations governing your use of this Font Software.
http://scripts.sil.org/OFL
  -->
<path d="M526 420L526 829C526 924 554 950 655 950 677 950 811 950 834 950 931 950 954 903 964 733 943 728 908 715 890 700 885 848 877 875 829 875 799 875 686 875 663 875 615 875 605 868 605 829L605 420ZM438 44C437 120 438 202 432 284L55 284 55 359 425 359C398 576 312 786 38 901 60 917 85 944 97 964 388 835 477 599 506 359L946 359 946 284 513 284C519 202 520 121 521 44Z"/>
</svg>