<svg xmlns="http://www.w3.org/2000/svg"
    viewBox="0 0 1000 1000">
  <!--
© 2014-2021 Adobe (http://www.adobe.com/).
Noto is a trademark of Google Inc.
This Font Software is licensed under the SIL Open Font License, Version 1.1. This Font Software is distributed on an "AS IS" BASIS, WITHOUT WARRANTIES OR CONDITIONS OF ANY KIND, either express or implied. See the SIL Open Font License for the specific language, permissions and limitations governing your use of this Font Software.
http://scripts.sil.org/OFL
  -->
<path d="M675 169C633 214 577 252 512 283 439 251 375 213 326 169ZM457 9L457 104 59 104 59 169 238 169C289 227 355 276 431 317 316 359 181 385 42 401 56 418 77 452 85 469 236 446 386 412 513 356 633 407 772 440 917 457 927 437 946 406 961 389 831 377 706 352 596 315 666 276 726 228 772 169L943 169 943 104 538 104 538 9ZM720 568L720 663 282 663C284 636 285 610 285 584L285 568ZM209 450L209 583C209 686 195 800 65 888 85 900 116 922 131 939 216 878 254 805 272 729L720 729 720 929 797 929 797 450 720 450 720 503 285 503 285 450Z"/>
</svg>