<svg xmlns="http://www.w3.org/2000/svg" name="gid3230" data-unicode="⼒"
    viewBox="0 0 1000 1000">
  <!--
© 2014-2021 Adobe (http://www.adobe.com/).
Noto is a trademark of Google Inc.
This Font Software is licensed under the SIL Open Font License, Version 1.1. This Font Software is distributed on an "AS IS" BASIS, WITHOUT WARRANTIES OR CONDITIONS OF ANY KIND, either express or implied. See the SIL Open Font License for the specific language, permissions and limitations governing your use of this Font Software.
http://scripts.sil.org/OFL
  -->
<path d="M410 42L410 215 410 258 83 258 83 335 406 335C391 523 325 743 53 905 72 918 99 946 111 964 402 787 470 543 484 335L827 335C807 688 785 830 749 864 737 877 724 880 703 880 678 880 614 879 545 873 560 895 569 928 571 950 633 953 697 955 731 952 770 948 793 941 817 911 862 862 882 712 905 298 906 287 907 258 907 258L488 258 488 215 488 42Z"/>
</svg>