<svg xmlns="http://www.w3.org/2000/svg"
    viewBox="0 0 1000 1000">
  <!--
© 2014-2021 Adobe (http://www.adobe.com/).
Noto is a trademark of Google Inc.
This Font Software is licensed under the SIL Open Font License, Version 1.1. This Font Software is distributed on an "AS IS" BASIS, WITHOUT WARRANTIES OR CONDITIONS OF ANY KIND, either express or implied. See the SIL Open Font License for the specific language, permissions and limitations governing your use of this Font Software.
http://scripts.sil.org/OFL
  -->
<path d="M813 168C681 247 470 341 272 414L272 38 192 38 192 717C192 852 238 886 392 886 425 886 691 886 728 886 891 886 922 816 939 611 917 606 883 590 862 575 847 768 832 810 728 810 670 810 437 810 389 810 291 810 272 794 272 721L272 491C481 417 709 326 869 240Z"/>
</svg>