<svg xmlns="http://www.w3.org/2000/svg" name="gid5212" data-unicode="⼸"
    viewBox="0 0 1000 1000">
  <!--
© 2014-2021 Adobe (http://www.adobe.com/).
Noto is a trademark of Google Inc.
This Font Software is licensed under the SIL Open Font License, Version 1.1. This Font Software is distributed on an "AS IS" BASIS, WITHOUT WARRANTIES OR CONDITIONS OF ANY KIND, either express or implied. See the SIL Open Font License for the specific language, permissions and limitations governing your use of this Font Software.
http://scripts.sil.org/OFL
  -->
<path d="M209 327C187 433 152 576 123 663L202 676 216 624 801 624C779 779 754 854 722 878 708 888 694 889 667 889 636 889 549 887 468 880 483 901 495 933 497 956 574 960 649 961 687 960 732 958 758 952 785 928 828 890 856 798 885 589 887 577 889 553 889 553L235 553 271 405 835 405 835 99 144 99 144 170 759 170 759 334 269 334Z"/>
</svg>