<svg xmlns="http://www.w3.org/2000/svg" name="gid5273" data-unicode="⼺"
    viewBox="0 0 1000 1000">
  <!--
© 2014-2021 Adobe (http://www.adobe.com/).
Noto is a trademark of Google Inc.
This Font Software is licensed under the SIL Open Font License, Version 1.1. This Font Software is distributed on an "AS IS" BASIS, WITHOUT WARRANTIES OR CONDITIONS OF ANY KIND, either express or implied. See the SIL Open Font License for the specific language, permissions and limitations governing your use of this Font Software.
http://scripts.sil.org/OFL
  -->
<path d="M666 59C547 146 334 231 170 277 190 296 212 327 224 348 391 294 599 203 736 104ZM709 313C594 420 384 514 204 565 225 586 246 616 257 637 443 577 650 475 781 355ZM796 565C663 721 413 829 153 883 171 905 191 937 201 959 470 897 721 779 869 607Z"/>
</svg>