<svg xmlns="http://www.w3.org/2000/svg" name="gid6250" data-unicode="⽁"
    viewBox="0 0 1000 1000">
  <!--
© 2014-2021 Adobe (http://www.adobe.com/).
Noto is a trademark of Google Inc.
This Font Software is licensed under the SIL Open Font License, Version 1.1. This Font Software is distributed on an "AS IS" BASIS, WITHOUT WARRANTIES OR CONDITIONS OF ANY KIND, either express or implied. See the SIL Open Font License for the specific language, permissions and limitations governing your use of this Font Software.
http://scripts.sil.org/OFL
  -->
<path d="M453 39L453 390 115 390 115 463 260 463 216 478C268 599 339 697 433 773 322 833 188 869 43 891 58 907 79 942 86 963 239 937 382 893 502 822 612 892 748 939 912 964 923 942 943 910 960 893 807 873 678 834 573 775 686 690 774 574 825 416L773 386 758 390 529 390 529 246 928 246 928 175 529 175 529 39ZM290 463L721 463C674 579 599 666 504 731 408 662 337 573 290 463Z"/>
</svg>