<svg xmlns="http://www.w3.org/2000/svg" name="gid6339" data-unicode="⽅"
    viewBox="0 0 1000 1000">
  <!--
© 2014-2021 Adobe (http://www.adobe.com/).
Noto is a trademark of Google Inc.
This Font Software is licensed under the SIL Open Font License, Version 1.1. This Font Software is distributed on an "AS IS" BASIS, WITHOUT WARRANTIES OR CONDITIONS OF ANY KIND, either express or implied. See the SIL Open Font License for the specific language, permissions and limitations governing your use of this Font Software.
http://scripts.sil.org/OFL
  -->
<path d="M458 37L458 213 53 213 53 285 361 285C350 516 321 776 42 903 62 918 85 945 97 964 301 866 381 700 417 521L748 521C732 752 712 851 683 877 671 888 658 889 635 889 609 889 538 888 466 882 481 903 491 934 493 955 560 959 627 960 661 958 700 956 724 948 747 924 786 884 807 773 827 486 829 474 830 449 830 449L429 449C436 394 441 339 444 285L948 285 948 213 535 213 535 37Z"/>
</svg>