<svg xmlns="http://www.w3.org/2000/svg"
    viewBox="0 0 1000 1000">
  <!--
© 2014-2021 Adobe (http://www.adobe.com/).
Noto is a trademark of Google Inc.
This Font Software is licensed under the SIL Open Font License, Version 1.1. This Font Software is distributed on an "AS IS" BASIS, WITHOUT WARRANTIES OR CONDITIONS OF ANY KIND, either express or implied. See the SIL Open Font License for the specific language, permissions and limitations governing your use of this Font Software.
http://scripts.sil.org/OFL
  -->
<path d="M60 610L70 682 400 639 400 773C400 884 435 913 557 913 584 913 784 913 812 913 923 913 948 868 962 729 939 724 907 711 888 697 880 813 870 839 809 839 767 839 593 839 560 839 489 839 477 828 477 774L477 628 937 568 926 498 477 556 477 400 870 345 859 275 477 328 477 172C608 145 730 113 826 76L761 16C606 81 321 135 72 168 81 185 92 215 95 234 194 221 298 205 400 187L400 338 91 381 101 453 400 411 400 566Z"/>
</svg>