<svg xmlns="http://www.w3.org/2000/svg"
    viewBox="0 0 1000 1000">
  <!--
© 2014-2021 Adobe (http://www.adobe.com/).
Noto is a trademark of Google Inc.
This Font Software is licensed under the SIL Open Font License, Version 1.1. This Font Software is distributed on an "AS IS" BASIS, WITHOUT WARRANTIES OR CONDITIONS OF ANY KIND, either express or implied. See the SIL Open Font License for the specific language, permissions and limitations governing your use of this Font Software.
http://scripts.sil.org/OFL
  -->
<path d="M56 834L75 913C207 888 392 854 565 820L561 748C454 768 343 787 245 804L245 467 553 467C594 740 687 933 845 933 922 933 950 892 964 742 944 735 915 720 898 703 892 816 881 857 849 857 746 857 669 701 632 467L949 467 949 394 622 394C612 315 607 228 607 136 705 118 796 98 871 76L812 14C675 58 438 98 226 124L170 108 170 816ZM543 394L245 394 245 190C337 179 434 166 527 150 529 235 534 317 543 394Z"/>
</svg>