<svg xmlns="http://www.w3.org/2000/svg" name="gid8300" data-unicode="⽗"
    viewBox="0 0 1000 1000">
  <!--
© 2014-2021 Adobe (http://www.adobe.com/).
Noto is a trademark of Google Inc.
This Font Software is licensed under the SIL Open Font License, Version 1.1. This Font Software is distributed on an "AS IS" BASIS, WITHOUT WARRANTIES OR CONDITIONS OF ANY KIND, either express or implied. See the SIL Open Font License for the specific language, permissions and limitations governing your use of this Font Software.
http://scripts.sil.org/OFL
  -->
<path d="M314 56C250 168 143 279 40 349 59 363 92 393 105 410 208 330 321 208 395 84ZM604 96C708 185 833 313 888 395L958 344C898 260 771 138 668 52ZM333 337L259 359C305 484 366 592 445 683 338 779 203 846 36 891 53 909 80 943 90 962 254 911 390 840 500 741 608 844 743 919 909 962 922 939 945 905 964 888 800 850 665 780 559 683 641 594 705 485 752 352L671 328C631 446 575 545 502 626 429 543 372 446 333 337Z"/>
</svg>