<svg xmlns="http://www.w3.org/2000/svg" name="gid8330" data-unicode="⽜"
    viewBox="0 0 1000 1000">
  <!--
© 2014-2021 Adobe (http://www.adobe.com/).
Noto is a trademark of Google Inc.
This Font Software is licensed under the SIL Open Font License, Version 1.1. This Font Software is distributed on an "AS IS" BASIS, WITHOUT WARRANTIES OR CONDITIONS OF ANY KIND, either express or implied. See the SIL Open Font License for the specific language, permissions and limitations governing your use of this Font Software.
http://scripts.sil.org/OFL
  -->
<path d="M472 40L472 223 260 223C279 178 295 130 309 82L232 67C195 203 131 337 52 422 72 430 107 450 123 462 160 416 195 360 227 296L472 296 472 535 52 535 52 609 472 609 472 959 551 959 551 609 950 609 950 535 551 535 551 296 894 296 894 223 551 223 551 40Z"/>
</svg>