<svg xmlns="http://www.w3.org/2000/svg"
    viewBox="0 0 1000 1000">
  <!--
© 2014-2021 Adobe (http://www.adobe.com/).
Noto is a trademark of Google Inc.
This Font Software is licensed under the SIL Open Font License, Version 1.1. This Font Software is distributed on an "AS IS" BASIS, WITHOUT WARRANTIES OR CONDITIONS OF ANY KIND, either express or implied. See the SIL Open Font License for the specific language, permissions and limitations governing your use of this Font Software.
http://scripts.sil.org/OFL
  -->
<path d="M266 243C361 279 473 332 554 382L55 382 55 454 434 454C337 577 180 693 33 748 49 763 72 791 85 810 226 747 379 631 483 501L483 839C483 855 477 860 458 861 438 862 368 863 295 860 307 880 320 910 324 931 416 931 476 931 512 919 548 908 560 887 560 841L560 454 825 454C779 523 722 593 672 640L733 677C806 610 884 504 948 403L889 377 875 382 661 382 675 367C650 349 617 329 581 309 671 252 774 174 847 104L792 59 774 64 150 64 150 134 700 134C645 183 574 236 511 273 447 241 378 211 317 190Z"/>
</svg>