<svg xmlns="http://www.w3.org/2000/svg"
    viewBox="0 0 1000 1000">
  <!--
© 2014-2021 Adobe (http://www.adobe.com/).
Noto is a trademark of Google Inc.
This Font Software is licensed under the SIL Open Font License, Version 1.1. This Font Software is distributed on an "AS IS" BASIS, WITHOUT WARRANTIES OR CONDITIONS OF ANY KIND, either express or implied. See the SIL Open Font License for the specific language, permissions and limitations governing your use of this Font Software.
http://scripts.sil.org/OFL
  -->
<path d="M319 383C278 599 193 770 47 873 66 887 97 916 109 932 259 816 351 633 400 395ZM688 384L614 401C670 621 769 822 906 929 919 908 945 879 964 863 835 773 736 582 688 384ZM86 156L86 392 160 392 160 229 842 229 842 392 920 392 920 156 538 156 538 9 457 9 457 156Z"/>
</svg>