<svg xmlns="http://www.w3.org/2000/svg"
    viewBox="0 0 1000 1000">
  <!--
© 2014-2021 Adobe (http://www.adobe.com/).
Noto is a trademark of Google Inc.
This Font Software is licensed under the SIL Open Font License, Version 1.1. This Font Software is distributed on an "AS IS" BASIS, WITHOUT WARRANTIES OR CONDITIONS OF ANY KIND, either express or implied. See the SIL Open Font License for the specific language, permissions and limitations governing your use of this Font Software.
http://scripts.sil.org/OFL
  -->
<path d="M54 62L54 138 444 138C435 185 422 238 409 282L105 282 105 930 181 930 181 353 340 353 340 898 414 898 414 353 579 353 579 898 654 898 654 353 823 353 823 836C823 850 819 854 804 854 789 855 738 856 682 854 693 873 704 905 707 925 779 925 830 924 861 912 890 900 899 878 899 836L899 282 488 282C503 239 519 188 533 138L951 138 951 62Z"/>
</svg>