<svg xmlns="http://www.w3.org/2000/svg" name="gid10486" data-unicode="⽽"
    viewBox="0 0 1000 1000">
  <!--
© 2014-2021 Adobe (http://www.adobe.com/).
Noto is a trademark of Google Inc.
This Font Software is licensed under the SIL Open Font License, Version 1.1. This Font Software is distributed on an "AS IS" BASIS, WITHOUT WARRANTIES OR CONDITIONS OF ANY KIND, either express or implied. See the SIL Open Font License for the specific language, permissions and limitations governing your use of this Font Software.
http://scripts.sil.org/OFL
  -->
<path d="M54 92L54 168 444 168C435 215 422 268 409 312L105 312 105 960 181 960 181 383 340 383 340 928 414 928 414 383 579 383 579 928 654 928 654 383 823 383 823 866C823 880 819 884 804 884 789 885 738 886 682 884 693 903 704 935 707 955 779 955 830 954 861 942 890 930 899 908 899 866L899 312 488 312C503 269 519 218 533 168L951 168 951 92Z"/>
</svg>