<svg xmlns="http://www.w3.org/2000/svg"
    viewBox="0 0 1000 1000">
  <!--
© 2014-2021 Adobe (http://www.adobe.com/).
Noto is a trademark of Google Inc.
This Font Software is licensed under the SIL Open Font License, Version 1.1. This Font Software is distributed on an "AS IS" BASIS, WITHOUT WARRANTIES OR CONDITIONS OF ANY KIND, either express or implied. See the SIL Open Font License for the specific language, permissions and limitations governing your use of this Font Software.
http://scripts.sil.org/OFL
  -->
<path d="M154 105L154 170 457 170 457 256 51 256 51 321 457 321 457 405 147 405 147 469 457 469 457 556 124 556 124 622 457 622 457 710 60 710 60 777 457 777 457 928 535 928 535 777 944 777 944 710 535 710 535 622 879 622 879 556 535 556 535 469 848 469 848 321 950 321 950 256 848 256 848 105 535 105 535 9 457 9 457 105ZM535 321L776 321 776 405 535 405ZM535 256L535 170 776 170 776 256Z"/>
</svg>