<svg xmlns="http://www.w3.org/2000/svg" name="gid10555" data-unicode="⾀"
    viewBox="0 0 1000 1000">
  <!--
© 2014-2021 Adobe (http://www.adobe.com/).
Noto is a trademark of Google Inc.
This Font Software is licensed under the SIL Open Font License, Version 1.1. This Font Software is distributed on an "AS IS" BASIS, WITHOUT WARRANTIES OR CONDITIONS OF ANY KIND, either express or implied. See the SIL Open Font License for the specific language, permissions and limitations governing your use of this Font Software.
http://scripts.sil.org/OFL
  -->
<path d="M154 135L154 200 457 200 457 286 51 286 51 351 457 351 457 435 147 435 147 499 457 499 457 586 124 586 124 652 457 652 457 740 60 740 60 807 457 807 457 958 535 958 535 807 944 807 944 740 535 740 535 652 879 652 879 586 535 586 535 499 848 499 848 351 950 351 950 286 848 286 848 135 535 135 535 39 457 39 457 135ZM535 351L776 351 776 435 535 435ZM535 286L535 200 776 200 776 286Z"/>
</svg>