<svg xmlns="http://www.w3.org/2000/svg" name="gid10788" data-unicode="⾄"
    viewBox="0 0 1000 1000">
  <!--
© 2014-2021 Adobe (http://www.adobe.com/).
Noto is a trademark of Google Inc.
This Font Software is licensed under the SIL Open Font License, Version 1.1. This Font Software is distributed on an "AS IS" BASIS, WITHOUT WARRANTIES OR CONDITIONS OF ANY KIND, either express or implied. See the SIL Open Font License for the specific language, permissions and limitations governing your use of this Font Software.
http://scripts.sil.org/OFL
  -->
<path d="M592 244C636 276 684 314 728 353L339 366C375 308 415 237 447 173L932 173 932 102 77 102 77 173 352 173C324 237 286 312 251 368L94 372 97 448C271 443 542 430 800 420 828 446 852 472 869 494L935 446C876 375 752 272 653 202ZM457 466L457 591 142 591 142 660 457 660 457 848 54 848 54 919 948 919 948 848 535 848 535 660 864 660 864 591 535 591 535 466Z"/>
</svg>