<svg xmlns="http://www.w3.org/2000/svg"
    viewBox="0 0 1000 1000">
  <!--
© 2014-2021 Adobe (http://www.adobe.com/).
Noto is a trademark of Google Inc.
This Font Software is licensed under the SIL Open Font License, Version 1.1. This Font Software is distributed on an "AS IS" BASIS, WITHOUT WARRANTIES OR CONDITIONS OF ANY KIND, either express or implied. See the SIL Open Font License for the specific language, permissions and limitations governing your use of this Font Software.
http://scripts.sil.org/OFL
  -->
<path d="M130 169L130 597 205 597 205 549 457 549 457 794 50 805 62 884C261 878 556 866 832 852 852 883 868 913 880 938L954 904C917 825 829 707 753 622L683 651C718 691 754 737 787 784L535 792 535 549 794 549 794 587 872 587 872 169 535 169 535 9 457 9 457 169ZM457 477L205 477 205 241 457 241ZM535 477L535 241 794 241 794 477Z"/>
</svg>