<svg xmlns="http://www.w3.org/2000/svg" name="gid12533" data-unicode="⾛"
    viewBox="0 0 1000 1000">
  <!--
© 2014-2021 Adobe (http://www.adobe.com/).
Noto is a trademark of Google Inc.
This Font Software is licensed under the SIL Open Font License, Version 1.1. This Font Software is distributed on an "AS IS" BASIS, WITHOUT WARRANTIES OR CONDITIONS OF ANY KIND, either express or implied. See the SIL Open Font License for the specific language, permissions and limitations governing your use of this Font Software.
http://scripts.sil.org/OFL
  -->
<path d="M219 496C204 643 156 820 34 913 51 925 77 948 90 962 161 906 209 824 242 734 342 909 505 947 720 947L936 947C940 926 953 892 964 874 920 875 756 875 723 875 656 875 593 871 536 859L536 662 871 662 871 594 536 594 536 435 936 435 936 365 536 365 536 227 863 227 863 157 536 157 536 41 459 41 459 157 150 157 150 227 459 227 459 365 63 365 63 435 459 435 459 836C377 803 313 744 270 643 282 597 291 551 297 506Z"/>
</svg>