<svg xmlns="http://www.w3.org/2000/svg"
    viewBox="0 0 1000 1000">
  <!--
© 2014-2021 Adobe (http://www.adobe.com/).
Noto is a trademark of Google Inc.
This Font Software is licensed under the SIL Open Font License, Version 1.1. This Font Software is distributed on an "AS IS" BASIS, WITHOUT WARRANTIES OR CONDITIONS OF ANY KIND, either express or implied. See the SIL Open Font License for the specific language, permissions and limitations governing your use of this Font Software.
http://scripts.sil.org/OFL
  -->
<path d="M741 180C718 240 675 327 642 380L706 404C741 353 785 274 820 205ZM189 222C226 280 263 357 275 406L347 379C334 329 295 254 256 198ZM824 23C654 61 349 87 92 99 100 116 109 147 112 168 223 164 343 157 460 146L460 425 62 425 62 500 410 500C319 624 170 744 35 805 53 820 78 849 91 868 222 801 363 681 460 549L460 930 538 930 538 546C637 680 779 805 910 874 923 853 948 823 966 808 832 746 682 625 589 500L941 500 941 425 538 425 538 139C666 126 788 110 885 89Z"/>
</svg>