<svg xmlns="http://www.w3.org/2000/svg"
    viewBox="0 0 1000 1000">
  <!--
© 2014-2021 Adobe (http://www.adobe.com/).
Noto is a trademark of Google Inc.
This Font Software is licensed under the SIL Open Font License, Version 1.1. This Font Software is distributed on an "AS IS" BASIS, WITHOUT WARRANTIES OR CONDITIONS OF ANY KIND, either express or implied. See the SIL Open Font License for the specific language, permissions and limitations governing your use of this Font Software.
http://scripts.sil.org/OFL
  -->
<path d="M279 740L733 740 733 834 279 834ZM279 684L279 595 733 595 733 684ZM205 534L205 930 279 930 279 894 733 894 733 928 810 928 810 534ZM778 17C633 56 364 82 138 93 146 110 155 138 157 157 254 153 358 146 460 136L460 240 57 240 57 308 380 308C292 402 159 487 37 529 54 544 76 572 87 590 221 536 367 430 460 312L460 507 538 507 538 313C634 423 784 526 916 578 926 560 948 532 965 518 845 477 710 396 620 308L944 308 944 240 538 240 538 128C649 115 753 98 835 77Z"/>
</svg>