<svg xmlns="http://www.w3.org/2000/svg" name="gid15033" data-unicode="⿍"
    viewBox="0 0 1000 1000">
  <!--
© 2014-2021 Adobe (http://www.adobe.com/).
Noto is a trademark of Google Inc.
This Font Software is licensed under the SIL Open Font License, Version 1.1. This Font Software is distributed on an "AS IS" BASIS, WITHOUT WARRANTIES OR CONDITIONS OF ANY KIND, either express or implied. See the SIL Open Font License for the specific language, permissions and limitations governing your use of this Font Software.
http://scripts.sil.org/OFL
  -->
<path d="M350 238L639 238 639 303 350 303ZM350 353L639 353 639 419 350 419ZM350 124L639 124 639 188 350 188ZM278 71L278 471 713 471 713 71ZM109 521L109 583 354 583 354 662 45 662 45 727 155 727C147 813 123 875 49 911 64 924 84 950 91 967 185 919 215 839 224 727L354 727 354 960 427 960 427 521 182 521 182 125 109 125ZM563 521L563 960 636 960 636 727 782 727 782 959 855 959 855 727 956 727 956 662 636 662 636 583 885 583 885 125 811 125 811 521Z"/>
</svg>