<svg xmlns="http://www.w3.org/2000/svg" name="gid15061" data-unicode="⿐"
    viewBox="0 0 1000 1000">
  <!--
© 2014-2021 Adobe (http://www.adobe.com/).
Noto is a trademark of Google Inc.
This Font Software is licensed under the SIL Open Font License, Version 1.1. This Font Software is distributed on an "AS IS" BASIS, WITHOUT WARRANTIES OR CONDITIONS OF ANY KIND, either express or implied. See the SIL Open Font License for the specific language, permissions and limitations governing your use of this Font Software.
http://scripts.sil.org/OFL
  -->
<path d="M273 245L720 245 720 290 273 290ZM273 328L720 328 720 374 273 374ZM273 162L720 162 720 206 273 206ZM634 682L634 748 367 748 367 682ZM55 748L55 810 284 810C263 848 207 885 63 909 78 923 98 947 106 963 280 926 342 868 360 810L634 810 634 960 708 960 708 810 945 810 945 748 708 748 708 682 876 682 876 462 117 462 117 682 295 682 295 748ZM187 591L463 591 463 636 187 636ZM533 591L802 591 802 636 533 636ZM187 509L463 509 463 552 187 552ZM533 509L802 509 802 552 533 552ZM460 37C454 58 440 89 428 115L201 115 201 421 795 421 795 115 509 115C522 95 536 73 550 50Z"/>
</svg>