<svg xmlns="http://www.w3.org/2000/svg"
    viewBox="0 0 1000 1000">
  <!--
© 2014-2021 Adobe (http://www.adobe.com/).
Noto is a trademark of Google Inc.
This Font Software is licensed under the SIL Open Font License, Version 1.1. This Font Software is distributed on an "AS IS" BASIS, WITHOUT WARRANTIES OR CONDITIONS OF ANY KIND, either express or implied. See the SIL Open Font License for the specific language, permissions and limitations governing your use of this Font Software.
http://scripts.sil.org/OFL
  -->
<path d="M223 152L126 150C132 174 133 216 133 239 133 297 134 419 144 506 171 765 262 859 357 859 424 859 485 801 545 631L482 560C456 660 409 764 358 764 287 764 238 653 222 486 215 403 214 312 215 249 215 223 219 176 223 152ZM744 180L666 207C762 324 822 529 840 710L920 677C905 508 833 296 744 180Z"/>
</svg>