<svg xmlns="http://www.w3.org/2000/svg"
    viewBox="0 0 1000 1000">
  <!--
© 2014-2021 Adobe (http://www.adobe.com/).
Noto is a trademark of Google Inc.
This Font Software is licensed under the SIL Open Font License, Version 1.1. This Font Software is distributed on an "AS IS" BASIS, WITHOUT WARRANTIES OR CONDITIONS OF ANY KIND, either express or implied. See the SIL Open Font License for the specific language, permissions and limitations governing your use of this Font Software.
http://scripts.sil.org/OFL
  -->
<path d="M721 162L685 222C749 256 860 325 909 372L950 308C901 268 792 200 721 162ZM325 571L328 748C328 781 315 797 292 797 253 797 183 758 183 712 183 667 244 609 325 571ZM121 231L123 307C157 311 194 312 251 312 272 312 297 311 325 309L324 440 324 497C209 546 105 633 105 716 105 805 235 882 313 882 367 882 401 852 401 759L397 542C469 517 540 503 615 503 710 503 787 549 787 634 787 726 707 773 619 790 582 798 539 798 502 797L530 878C565 876 609 874 654 864 791 831 867 754 867 633 867 513 762 434 616 434 550 434 472 447 396 471L396 436 398 301C471 293 549 280 608 266L606 188C549 205 473 219 400 228L404 120C405 97 408 69 411 51L322 51C325 68 327 102 327 122L326 236C298 238 272 239 249 239 212 239 176 238 121 231Z"/>
</svg>