<svg xmlns="http://www.w3.org/2000/svg" name="gid1218" data-unicode="く"
    viewBox="0 0 1000 1000">
  <!--
© 2014-2021 Adobe (http://www.adobe.com/).
Noto is a trademark of Google Inc.
This Font Software is licensed under the SIL Open Font License, Version 1.1. This Font Software is distributed on an "AS IS" BASIS, WITHOUT WARRANTIES OR CONDITIONS OF ANY KIND, either express or implied. See the SIL Open Font License for the specific language, permissions and limitations governing your use of this Font Software.
http://scripts.sil.org/OFL
  -->
<path d="M704 142L630 76C618 95 593 123 573 143 505 212 353 332 278 395 188 471 176 514 271 593 364 670 516 800 586 872 611 896 634 921 655 945L726 879C620 773 443 630 352 556 288 502 289 486 349 435 423 373 567 259 635 199 652 185 683 159 704 142Z"/>
</svg>