<svg xmlns="http://www.w3.org/2000/svg"
    viewBox="0 0 1000 1000">
  <!--
© 2014-2021 Adobe (http://www.adobe.com/).
Noto is a trademark of Google Inc.
This Font Software is licensed under the SIL Open Font License, Version 1.1. This Font Software is distributed on an "AS IS" BASIS, WITHOUT WARRANTIES OR CONDITIONS OF ANY KIND, either express or implied. See the SIL Open Font License for the specific language, permissions and limitations governing your use of this Font Software.
http://scripts.sil.org/OFL
  -->
<path d="M773 28L719 51C746 89 780 149 800 190L854 166C834 125 798 64 773 28ZM883-12L830 11C859 49 891 106 913 150L967 126C948 88 910 26 883-12ZM302 545L223 527C195 586 175 638 175 694 175 829 295 898 485 899 597 900 681 889 744 878L747 798C678 813 591 823 490 822 341 821 254 779 254 684 254 637 272 594 302 545ZM147 226L149 306C307 319 450 320 569 309 604 392 652 479 690 537 654 533 580 527 524 522L518 588C590 593 711 604 760 616L800 559C785 543 770 525 757 506 719 455 675 377 644 301 711 291 790 277 851 260L842 181C774 204 691 221 619 230 600 172 581 107 574 60L488 70C498 97 506 127 513 149L543 238C434 246 294 244 147 226Z"/>
</svg>