<svg xmlns="http://www.w3.org/2000/svg" name="gid1236" data-unicode="ち"
    viewBox="0 0 1000 1000">
  <!--
© 2014-2021 Adobe (http://www.adobe.com/).
Noto is a trademark of Google Inc.
This Font Software is licensed under the SIL Open Font License, Version 1.1. This Font Software is distributed on an "AS IS" BASIS, WITHOUT WARRANTIES OR CONDITIONS OF ANY KIND, either express or implied. See the SIL Open Font License for the specific language, permissions and limitations governing your use of this Font Software.
http://scripts.sil.org/OFL
  -->
<path d="M112 224L113 302C171 308 235 312 303 312L304 312C279 425 239 568 188 668L263 695C272 677 281 664 294 649 360 569 470 528 589 528 706 528 768 586 768 661 768 825 543 865 312 833L332 912C636 945 850 867 850 659 850 542 757 461 598 461 493 461 403 485 316 546 338 489 361 394 379 310 509 305 668 288 785 268L784 191C661 218 514 234 394 239L405 181C410 155 416 124 423 97L334 92C335 120 334 143 330 175L319 241 302 241C242 241 165 233 112 224Z"/>
</svg>