<svg xmlns="http://www.w3.org/2000/svg" name="gid1240" data-unicode="づ"
    viewBox="0 0 1000 1000">
  <!--
© 2014-2021 Adobe (http://www.adobe.com/).
Noto is a trademark of Google Inc.
This Font Software is licensed under the SIL Open Font License, Version 1.1. This Font Software is distributed on an "AS IS" BASIS, WITHOUT WARRANTIES OR CONDITIONS OF ANY KIND, either express or implied. See the SIL Open Font License for the specific language, permissions and limitations governing your use of this Font Software.
http://scripts.sil.org/OFL
  -->
<path d="M59 376L96 463C175 432 430 322 594 322 729 322 806 405 806 510 806 714 572 794 312 801L347 884C655 866 894 751 894 511 894 343 762 247 596 247 450 247 254 320 169 347 131 358 95 369 59 376ZM756 96L703 118C730 157 765 217 784 258L839 234C818 193 782 132 756 96ZM866 55L814 78C842 116 875 173 897 216L951 192C932 155 894 92 866 55Z"/>
</svg>