<svg xmlns="http://www.w3.org/2000/svg" name="gid1242" data-unicode="で"
    viewBox="0 0 1000 1000">
  <!--
© 2014-2021 Adobe (http://www.adobe.com/).
Noto is a trademark of Google Inc.
This Font Software is licensed under the SIL Open Font License, Version 1.1. This Font Software is distributed on an "AS IS" BASIS, WITHOUT WARRANTIES OR CONDITIONS OF ANY KIND, either express or implied. See the SIL Open Font License for the specific language, permissions and limitations governing your use of this Font Software.
http://scripts.sil.org/OFL
  -->
<path d="M79 222L88 309C196 286 451 262 558 250 466 305 371 432 371 588 371 811 582 910 767 917L796 834C633 828 451 766 451 571 451 452 538 300 680 254 731 239 819 238 876 238L876 158C809 161 715 167 606 176 422 191 233 210 168 217 149 219 117 221 79 222ZM732 361L681 383C711 424 740 476 763 524L814 500C793 456 755 394 732 361ZM841 319L792 342C823 384 852 433 876 482L928 457C905 413 865 352 841 319Z"/>
</svg>