<svg xmlns="http://www.w3.org/2000/svg"
    viewBox="0 0 1000 1000">
  <!--
© 2014-2021 Adobe (http://www.adobe.com/).
Noto is a trademark of Google Inc.
This Font Software is licensed under the SIL Open Font License, Version 1.1. This Font Software is distributed on an "AS IS" BASIS, WITHOUT WARRANTIES OR CONDITIONS OF ANY KIND, either express or implied. See the SIL Open Font License for the specific language, permissions and limitations governing your use of this Font Software.
http://scripts.sil.org/OFL
  -->
<path d="M476 208C465 300 445 395 420 478 369 647 316 714 269 714 224 714 166 658 166 532 166 396 284 232 476 208ZM559 206C729 221 826 346 826 497 826 670 700 765 572 794 549 799 518 804 486 807L533 881C770 850 908 710 908 500 908 297 759 132 525 132 281 132 88 322 88 539 88 704 177 806 266 806 359 806 438 701 499 495 527 402 546 300 559 206Z"/>
</svg>