<svg xmlns="http://www.w3.org/2000/svg"
    viewBox="0 0 1000 1000">
  <!--
© 2014-2021 Adobe (http://www.adobe.com/).
Noto is a trademark of Google Inc.
This Font Software is licensed under the SIL Open Font License, Version 1.1. This Font Software is distributed on an "AS IS" BASIS, WITHOUT WARRANTIES OR CONDITIONS OF ANY KIND, either express or implied. See the SIL Open Font License for the specific language, permissions and limitations governing your use of this Font Software.
http://scripts.sil.org/OFL
  -->
<path d="M255 86L167 79C167 100 164 127 161 150 148 233 115 424 115 571 115 706 133 816 153 887L223 882C222 871 221 857 221 847 220 835 222 816 225 802 235 753 272 651 296 581L255 549C238 590 214 651 198 696 191 647 188 605 188 557 188 445 218 247 238 154 241 136 249 103 255 86ZM676 665L677 700C677 766 652 809 568 809 496 809 446 781 446 730 446 681 499 649 574 649 610 649 644 655 676 665ZM749 80L659 80C661 97 663 124 663 141L663 265 569 267C509 267 456 264 399 259L399 334C458 338 510 341 567 341L663 339C664 421 670 519 673 596 644 590 613 587 580 587 449 587 374 654 374 738 374 828 448 881 582 881 717 881 755 802 755 720L755 699C806 728 856 768 906 815L950 748C898 701 833 651 752 619 748 535 741 435 740 334 800 330 858 324 913 315L913 238C860 248 801 256 740 261 741 214 742 167 743 140 744 120 746 100 749 80Z"/>
</svg>