<svg xmlns="http://www.w3.org/2000/svg"
    viewBox="0 0 1000 1000">
  <!--
© 2014-2021 Adobe (http://www.adobe.com/).
Noto is a trademark of Google Inc.
This Font Software is licensed under the SIL Open Font License, Version 1.1. This Font Software is distributed on an "AS IS" BASIS, WITHOUT WARRANTIES OR CONDITIONS OF ANY KIND, either express or implied. See the SIL Open Font License for the specific language, permissions and limitations governing your use of this Font Software.
http://scripts.sil.org/OFL
  -->
<path d="M109 164L115 248C135 245 152 242 171 240 207 235 290 226 341 217 252 316 154 460 154 647 154 812 269 900 426 900 703 900 779 660 758 407 796 483 840 548 894 605L946 534C798 402 755 232 734 111L655 133 678 207C743 578 658 819 428 819 326 819 233 771 233 630 233 425 385 249 449 203 463 196 489 189 502 185L479 114C420 136 251 160 162 164 144 165 123 165 109 164Z"/>
</svg>