<svg xmlns="http://www.w3.org/2000/svg" name="gid1258" data-unicode="ぷ"
    viewBox="0 0 1000 1000">
  <!--
© 2014-2021 Adobe (http://www.adobe.com/).
Noto is a trademark of Google Inc.
This Font Software is licensed under the SIL Open Font License, Version 1.1. This Font Software is distributed on an "AS IS" BASIS, WITHOUT WARRANTIES OR CONDITIONS OF ANY KIND, either express or implied. See the SIL Open Font License for the specific language, permissions and limitations governing your use of this Font Software.
http://scripts.sil.org/OFL
  -->
<path d="M779 277C779 240 809 209 845 209 883 209 913 240 913 277 913 314 883 344 845 344 809 344 779 314 779 277ZM732 277C732 340 783 390 845 390 909 390 959 340 959 277 959 214 909 163 845 163 783 163 732 214 732 277ZM481 341L532 388C569 362 626 317 649 297L630 246C571 202 460 147 383 115L337 173C414 204 508 254 551 290 536 302 508 323 481 341ZM288 818L300 901C345 910 399 917 463 917 535 917 635 889 635 766 635 676 569 588 475 489 452 464 427 437 402 412L343 463C370 487 401 516 423 539 479 600 551 690 551 758 551 822 496 841 450 841 387 841 339 833 288 818ZM865 856L940 815C908 727 833 584 764 503L699 540C768 617 837 761 865 856ZM322 661L275 601C219 663 102 752 20 797L67 863C164 805 264 721 322 661Z"/>
</svg>