<svg xmlns="http://www.w3.org/2000/svg" name="gid1259" data-unicode="へ"
    viewBox="0 0 1000 1000">
  <!--
© 2014-2021 Adobe (http://www.adobe.com/).
Noto is a trademark of Google Inc.
This Font Software is licensed under the SIL Open Font License, Version 1.1. This Font Software is distributed on an "AS IS" BASIS, WITHOUT WARRANTIES OR CONDITIONS OF ANY KIND, either express or implied. See the SIL Open Font License for the specific language, permissions and limitations governing your use of this Font Software.
http://scripts.sil.org/OFL
  -->
<path d="M56 606L130 681C145 660 168 630 189 604 240 542 321 432 368 373 403 331 422 324 465 370 511 422 587 518 652 592 721 670 812 772 887 843L951 770C861 690 762 586 701 519 637 450 561 352 500 290 434 223 383 233 324 301 264 372 181 486 128 540 101 567 81 587 56 606Z"/>
</svg>