<svg xmlns="http://www.w3.org/2000/svg"
    viewBox="0 0 1000 1000">
  <!--
© 2014-2021 Adobe (http://www.adobe.com/).
Noto is a trademark of Google Inc.
This Font Software is licensed under the SIL Open Font License, Version 1.1. This Font Software is distributed on an "AS IS" BASIS, WITHOUT WARRANTIES OR CONDITIONS OF ANY KIND, either express or implied. See the SIL Open Font License for the specific language, permissions and limitations governing your use of this Font Software.
http://scripts.sil.org/OFL
  -->
<path d="M226 106L138 98C138 120 135 146 131 169 119 252 86 438 86 585 86 721 104 830 124 902L195 897C194 886 193 871 192 862 192 850 194 831 197 817 208 768 243 665 268 596L227 563C210 604 185 667 170 712 163 663 160 620 160 571 160 459 189 266 208 173 212 155 220 123 226 106ZM920 32L871 49C892 86 914 145 930 189L980 172C965 132 939 69 920 32ZM635 685L636 727C636 780 616 820 538 820 468 820 423 794 423 745 423 702 470 672 541 672 572 672 604 677 635 685ZM819 64L771 79C780 96 789 117 798 140 689 153 547 159 398 148L398 218C477 222 553 222 624 220L624 384C546 386 464 385 382 379L383 452C463 456 546 457 624 455 626 508 629 568 632 619 604 615 574 612 543 612 411 612 352 679 352 749 352 843 434 889 545 889 652 889 709 842 709 760L708 713C768 742 825 785 875 836L917 766C867 722 797 668 704 638 701 580 697 515 696 452 766 449 829 444 882 438L882 365C826 371 763 377 696 381L696 217C743 214 785 211 823 207L828 221 879 203C865 163 838 101 819 64Z"/>
</svg>