<svg xmlns="http://www.w3.org/2000/svg"
    viewBox="0 0 1000 1000">
  <!--
© 2014-2021 Adobe (http://www.adobe.com/).
Noto is a trademark of Google Inc.
This Font Software is licensed under the SIL Open Font License, Version 1.1. This Font Software is distributed on an "AS IS" BASIS, WITHOUT WARRANTIES OR CONDITIONS OF ANY KIND, either express or implied. See the SIL Open Font License for the specific language, permissions and limitations governing your use of this Font Software.
http://scripts.sil.org/OFL
  -->
<path d="M593 235L515 237C520 250 525 267 529 283L538 338C423 361 316 441 266 559 264 495 280 377 291 323 294 311 298 295 303 283L219 276C220 287 220 302 219 317 213 362 196 485 196 581 196 660 210 744 225 794L292 784C288 764 282 722 281 703 280 684 283 667 286 653 309 547 402 428 545 403 548 438 550 478 550 525 550 595 543 660 524 717 471 698 432 655 404 597L362 655C392 716 439 759 494 782 468 826 432 864 381 892L449 934C502 899 541 854 567 801L596 803C775 803 856 690 856 555 856 433 771 333 608 332 603 292 598 258 593 235ZM614 398C735 403 783 473 783 557 783 657 724 730 595 730 613 669 620 602 620 529 620 484 618 440 614 398Z"/>
</svg>