<svg xmlns="http://www.w3.org/2000/svg"
    viewBox="0 0 1000 1000">
  <!--
© 2014-2021 Adobe (http://www.adobe.com/).
Noto is a trademark of Google Inc.
This Font Software is licensed under the SIL Open Font License, Version 1.1. This Font Software is distributed on an "AS IS" BASIS, WITHOUT WARRANTIES OR CONDITIONS OF ANY KIND, either express or implied. See the SIL Open Font License for the specific language, permissions and limitations governing your use of this Font Software.
http://scripts.sil.org/OFL
  -->
<path d="M466 712L467 767C467 815 438 845 384 845 307 845 262 816 262 777 262 731 316 705 396 705 420 705 443 707 466 712ZM537 229L450 229C454 243 457 282 457 312 457 346 457 430 457 471 457 520 460 586 463 647 444 644 424 643 404 643 267 643 191 696 191 780 191 868 274 914 392 914 502 914 543 856 543 791L541 734C625 766 698 821 750 874L792 804C734 751 646 691 538 662 535 596 531 524 531 476L531 450C599 449 711 443 781 436L780 366C708 375 598 381 531 382L531 311C531 284 534 244 537 229Z"/>
</svg>