<svg xmlns="http://www.w3.org/2000/svg"
    viewBox="0 0 1000 1000">
  <!--
© 2014-2021 Adobe (http://www.adobe.com/).
Noto is a trademark of Google Inc.
This Font Software is licensed under the SIL Open Font License, Version 1.1. This Font Software is distributed on an "AS IS" BASIS, WITHOUT WARRANTIES OR CONDITIONS OF ANY KIND, either express or implied. See the SIL Open Font License for the specific language, permissions and limitations governing your use of this Font Software.
http://scripts.sil.org/OFL
  -->
<path d="M580 817C555 821 528 823 499 823 421 823 366 793 366 745 366 710 401 681 446 681 522 681 572 738 580 817ZM238 113L241 196C262 193 285 191 307 190 360 187 560 178 613 176 562 221 437 326 381 372 323 421 195 528 112 596L169 655C296 526 385 455 552 455 682 455 776 529 776 627 776 709 731 767 651 798 639 703 572 621 447 621 354 621 293 682 293 751 293 834 376 893 512 893 724 893 856 789 856 628 856 493 737 393 571 393 526 393 478 398 432 414 510 349 646 233 696 195 714 180 734 167 752 154L706 96C696 99 682 102 652 104 599 109 361 117 309 117 289 117 261 116 238 113Z"/>
</svg>