<svg xmlns="http://www.w3.org/2000/svg"
    viewBox="0 0 1000 1000">
  <!--
© 2014-2021 Adobe (http://www.adobe.com/).
Noto is a trademark of Google Inc.
This Font Software is licensed under the SIL Open Font License, Version 1.1. This Font Software is distributed on an "AS IS" BASIS, WITHOUT WARRANTIES OR CONDITIONS OF ANY KIND, either express or implied. See the SIL Open Font License for the specific language, permissions and limitations governing your use of this Font Software.
http://scripts.sil.org/OFL
  -->
<path d="M931 174L882 127C867 130 831 133 812 133 752 133 286 133 238 133 201 133 159 129 124 124L124 215C163 211 201 209 238 209 285 209 738 209 808 209 775 271 681 380 589 433L655 486C769 407 864 278 904 210 911 199 924 184 931 174ZM532 306L442 306C445 332 446 354 446 378 446 545 424 688 269 782 241 802 207 818 179 827L253 887C508 760 532 577 532 306Z"/>
</svg>