<svg xmlns="http://www.w3.org/2000/svg" name="gid1304" data-unicode="ェ"
    viewBox="0 0 1000 1000">
  <!--
© 2014-2021 Adobe (http://www.adobe.com/).
Noto is a trademark of Google Inc.
This Font Software is licensed under the SIL Open Font License, Version 1.1. This Font Software is distributed on an "AS IS" BASIS, WITHOUT WARRANTIES OR CONDITIONS OF ANY KIND, either express or implied. See the SIL Open Font License for the specific language, permissions and limitations governing your use of this Font Software.
http://scripts.sil.org/OFL
  -->
<path d="M155 803L155 887C179 885 205 884 227 884L780 884C796 884 827 885 847 887L847 803C827 806 804 808 780 808L538 808 538 440 733 440C756 440 782 441 804 443L804 363C783 365 758 367 733 367L273 367C257 367 225 366 204 363L204 443C225 441 257 440 273 440L457 440 457 808 227 808C204 808 178 806 155 803Z"/>
</svg>