<svg xmlns="http://www.w3.org/2000/svg"
    viewBox="0 0 1000 1000">
  <!--
© 2014-2021 Adobe (http://www.adobe.com/).
Noto is a trademark of Google Inc.
This Font Software is licensed under the SIL Open Font License, Version 1.1. This Font Software is distributed on an "AS IS" BASIS, WITHOUT WARRANTIES OR CONDITIONS OF ANY KIND, either express or implied. See the SIL Open Font License for the specific language, permissions and limitations governing your use of this Font Software.
http://scripts.sil.org/OFL
  -->
<path d="M734 25L680 48C705 83 740 141 759 183L815 158C795 120 758 59 734 25ZM861-4L806 19C833 54 865 111 887 152L943 128C922 90 885 30 861-4ZM140 746L140 837C167 835 212 833 253 833L742 833 740 889 830 889C829 873 826 828 826 792L826 276C826 252 828 221 828 198 809 199 779 200 754 200L262 200C230 200 186 198 152 194L152 283C176 282 225 280 263 280L742 280 742 752 251 752C209 752 165 749 140 746Z"/>
</svg>