<svg xmlns="http://www.w3.org/2000/svg"
    viewBox="0 0 1000 1000">
  <!--
© 2014-2021 Adobe (http://www.adobe.com/).
Noto is a trademark of Google Inc.
This Font Software is licensed under the SIL Open Font License, Version 1.1. This Font Software is distributed on an "AS IS" BASIS, WITHOUT WARRANTIES OR CONDITIONS OF ANY KIND, either express or implied. See the SIL Open Font License for the specific language, permissions and limitations governing your use of this Font Software.
http://scripts.sil.org/OFL
  -->
<path d="M716 104L661 127C694 173 727 233 752 285L809 259C786 212 741 140 716 104ZM847 56L791 80C825 125 859 182 886 235L943 209C918 163 874 91 847 56ZM289 89L244 156C302 190 411 262 459 299L506 230C463 199 348 122 289 89ZM139 804L185 885C278 866 416 820 516 761 676 667 814 538 901 404L853 321C772 462 640 593 474 688 373 745 248 785 139 804ZM138 314L93 382C154 413 262 483 312 519L357 449C314 418 197 346 138 314Z"/>
</svg>