<svg xmlns="http://www.w3.org/2000/svg"
    viewBox="0 0 1000 1000">
  <!--
© 2014-2021 Adobe (http://www.adobe.com/).
Noto is a trademark of Google Inc.
This Font Software is licensed under the SIL Open Font License, Version 1.1. This Font Software is distributed on an "AS IS" BASIS, WITHOUT WARRANTIES OR CONDITIONS OF ANY KIND, either express or implied. See the SIL Open Font License for the specific language, permissions and limitations governing your use of this Font Software.
http://scripts.sil.org/OFL
  -->
<path d="M800 181L749 142C733 147 707 150 674 150 637 150 328 150 288 150 258 150 201 146 187 144L187 235C198 234 253 230 288 230 323 230 642 230 678 230 653 313 580 431 512 508 409 623 261 742 100 805L164 872C312 805 447 695 554 580 656 671 762 788 829 877L899 817C834 738 712 608 607 518 678 428 741 311 775 225 781 211 794 189 800 181Z"/>
</svg>