<svg xmlns="http://www.w3.org/2000/svg"
    viewBox="0 0 1000 1000">
  <!--
© 2014-2021 Adobe (http://www.adobe.com/).
Noto is a trademark of Google Inc.
This Font Software is licensed under the SIL Open Font License, Version 1.1. This Font Software is distributed on an "AS IS" BASIS, WITHOUT WARRANTIES OR CONDITIONS OF ANY KIND, either express or implied. See the SIL Open Font License for the specific language, permissions and limitations governing your use of this Font Software.
http://scripts.sil.org/OFL
  -->
<path d="M886 275L827 229C815 236 796 242 774 247 732 256 557 292 387 325L387 169C387 140 389 106 394 77L299 77C304 106 306 139 306 169L306 340C200 360 105 377 60 383L75 466 306 418 306 721C306 820 340 868 526 868 651 868 751 860 840 848L844 762C744 781 648 791 532 791 412 791 387 769 387 700L387 402 765 326C735 386 662 496 587 564L657 606C737 523 816 398 862 315 868 302 879 285 886 275Z"/>
</svg>