<svg xmlns="http://www.w3.org/2000/svg" name="gid1346" data-unicode="パ"
    viewBox="0 0 1000 1000">
  <!--
© 2014-2021 Adobe (http://www.adobe.com/).
Noto is a trademark of Google Inc.
This Font Software is licensed under the SIL Open Font License, Version 1.1. This Font Software is distributed on an "AS IS" BASIS, WITHOUT WARRANTIES OR CONDITIONS OF ANY KIND, either express or implied. See the SIL Open Font License for the specific language, permissions and limitations governing your use of this Font Software.
http://scripts.sil.org/OFL
  -->
<path d="M783 183C783 146 812 116 849 116 885 116 915 146 915 183 915 219 885 249 849 249 812 249 783 219 783 183ZM737 183C737 245 787 295 849 295 910 295 961 245 961 183 961 121 910 70 849 70 787 70 737 121 737 183ZM218 579C183 663 127 768 64 851L149 887C205 807 259 704 296 612 338 510 373 362 387 300 391 278 399 249 405 227L316 208C303 324 261 476 218 579ZM710 541C752 648 798 783 823 885L912 856C886 766 833 613 792 514 750 408 686 270 646 198L565 225C609 299 670 438 710 541Z"/>
</svg>