<svg xmlns="http://www.w3.org/2000/svg" name="gid1349" data-unicode="ピ"
    viewBox="0 0 1000 1000">
  <!--
© 2014-2021 Adobe (http://www.adobe.com/).
Noto is a trademark of Google Inc.
This Font Software is licensed under the SIL Open Font License, Version 1.1. This Font Software is distributed on an "AS IS" BASIS, WITHOUT WARRANTIES OR CONDITIONS OF ANY KIND, either express or implied. See the SIL Open Font License for the specific language, permissions and limitations governing your use of this Font Software.
http://scripts.sil.org/OFL
  -->
<path d="M759 183C759 146 788 116 825 116 861 116 891 146 891 183 891 219 861 248 825 248 788 248 759 219 759 183ZM713 183C713 244 763 294 825 294 887 294 937 244 937 183 937 121 887 70 825 70 763 70 713 121 713 183ZM279 130L186 130C190 153 192 187 192 211 192 264 192 664 192 761 192 842 235 877 312 891 353 898 413 901 472 901 581 901 731 893 818 880L818 789C735 811 582 821 476 821 427 821 375 818 344 813 295 803 274 790 274 739L274 519C398 487 571 434 683 389 713 378 749 362 777 350L742 270C714 287 684 302 654 315 550 360 392 408 274 437L274 211C274 183 276 153 279 130Z"/>
</svg>