<svg xmlns="http://www.w3.org/2000/svg" name="gid1368" data-unicode="ョ"
    viewBox="0 0 1000 1000">
  <!--
© 2014-2021 Adobe (http://www.adobe.com/).
Noto is a trademark of Google Inc.
This Font Software is licensed under the SIL Open Font License, Version 1.1. This Font Software is distributed on an "AS IS" BASIS, WITHOUT WARRANTIES OR CONDITIONS OF ANY KIND, either express or implied. See the SIL Open Font License for the specific language, permissions and limitations governing your use of this Font Software.
http://scripts.sil.org/OFL
  -->
<path d="M211 818L211 898C227 898 262 896 294 896L696 896 695 936 774 936C773 922 772 898 772 882 772 797 772 420 772 384 772 365 772 344 773 333 760 334 734 335 712 335 630 335 381 335 325 335 299 335 242 333 223 331L223 409C241 408 299 406 325 406 380 406 662 406 696 406L696 572 334 572C300 572 264 570 245 569L245 646C265 645 300 644 335 644L696 644 696 822 293 822C259 822 227 820 211 818Z"/>
</svg>