<svg xmlns="http://www.w3.org/2000/svg" name="gid1370" data-unicode="ラ"
    viewBox="0 0 1000 1000">
  <!--
© 2014-2021 Adobe (http://www.adobe.com/).
Noto is a trademark of Google Inc.
This Font Software is licensed under the SIL Open Font License, Version 1.1. This Font Software is distributed on an "AS IS" BASIS, WITHOUT WARRANTIES OR CONDITIONS OF ANY KIND, either express or implied. See the SIL Open Font License for the specific language, permissions and limitations governing your use of this Font Software.
http://scripts.sil.org/OFL
  -->
<path d="M231 135L231 218C258 216 290 215 321 215 376 215 657 215 713 215 747 215 781 216 805 218L805 135C781 139 746 140 714 140 655 140 375 140 321 140 289 140 257 139 231 135ZM878 399L821 363C810 369 789 371 766 371 715 371 289 371 239 371 212 371 178 369 141 365L141 449C177 447 215 446 239 446 299 446 721 446 770 446 752 518 712 603 651 667 566 757 441 821 299 850L361 921C488 886 614 827 719 712 793 631 838 527 865 428 867 421 873 408 878 399Z"/>
</svg>