<svg xmlns="http://www.w3.org/2000/svg" name="gid1376" data-unicode="ワ"
    viewBox="0 0 1000 1000">
  <!--
© 2014-2021 Adobe (http://www.adobe.com/).
Noto is a trademark of Google Inc.
This Font Software is licensed under the SIL Open Font License, Version 1.1. This Font Software is distributed on an "AS IS" BASIS, WITHOUT WARRANTIES OR CONDITIONS OF ANY KIND, either express or implied. See the SIL Open Font License for the specific language, permissions and limitations governing your use of this Font Software.
http://scripts.sil.org/OFL
  -->
<path d="M876 213L815 174C798 178 774 180 752 180 696 180 272 180 239 180 196 180 159 179 132 177 135 199 136 221 136 244 136 286 136 426 136 457 136 476 135 497 132 521L223 521C221 497 220 472 220 457 220 426 220 286 220 257 292 257 715 257 772 257 762 375 734 503 677 592 595 720 452 807 305 846L373 915C534 863 671 761 752 633 824 520 845 378 863 260 865 250 872 223 876 213Z"/>
</svg>