<svg xmlns="http://www.w3.org/2000/svg"
    viewBox="0 0 1000 1000">
  <!--
© 2014-2021 Adobe (http://www.adobe.com/).
Noto is a trademark of Google Inc.
This Font Software is licensed under the SIL Open Font License, Version 1.1. This Font Software is distributed on an "AS IS" BASIS, WITHOUT WARRANTIES OR CONDITIONS OF ANY KIND, either express or implied. See the SIL Open Font License for the specific language, permissions and limitations governing your use of this Font Software.
http://scripts.sil.org/OFL
  -->
<path d="M114 169L122 237 306 218 306 306C306 394 338 417 458 417 484 417 678 417 705 417 802 417 828 388 838 272 817 267 786 257 768 244 762 333 753 347 700 347 657 347 494 347 462 347 393 347 381 341 381 306L381 210 868 158 860 93 381 142 381 12 306 12 306 149ZM38 601L47 667 157 651 157 811C157 892 178 914 261 914 279 914 374 914 392 914 463 914 483 880 491 756 470 751 441 739 425 727 422 830 416 847 385 847 366 847 286 847 270 847 236 847 230 841 230 811L230 640 483 602 474 538 230 573 230 433 157 433 157 584ZM488 605L497 671 602 655 602 810C602 892 624 915 711 915 729 915 832 915 852 915 925 915 946 880 954 753 933 748 903 736 887 724 884 828 878 846 846 846 823 846 737 846 720 846 683 846 676 841 676 810L676 644 958 602 948 538 676 578 676 437 602 437 602 588Z"/>
</svg>