<svg xmlns="http://www.w3.org/2000/svg"
    viewBox="0 0 1000 1000">
  <!--
© 2014-2021 Adobe (http://www.adobe.com/).
Noto is a trademark of Google Inc.
This Font Software is licensed under the SIL Open Font License, Version 1.1. This Font Software is distributed on an "AS IS" BASIS, WITHOUT WARRANTIES OR CONDITIONS OF ANY KIND, either express or implied. See the SIL Open Font License for the specific language, permissions and limitations governing your use of this Font Software.
http://scripts.sil.org/OFL
  -->
<path d="M588 10L588 115 310 115 310 181 419 181C461 241 509 287 563 324 479 360 379 384 275 400 288 416 306 449 313 466L398 448 398 579C398 673 384 801 274 892 292 901 319 921 332 934 406 873 441 796 457 720L790 720 790 930 864 930 864 442 932 456C939 433 956 406 972 390 871 374 781 354 702 323 759 285 806 238 840 181L956 181 956 115 665 115 665 10ZM754 181C724 224 682 260 631 289 581 262 536 226 498 181ZM790 562L790 656 467 656C469 630 470 604 470 580L470 562ZM790 437L790 500 470 500 470 436 443 436C511 417 575 394 633 364 696 396 766 419 843 437ZM264 14C208 166 115 316 16 413 30 430 51 469 58 487 93 451 127 409 160 363L160 928 232 928 232 250C271 181 307 108 335 35Z"/>
</svg>