<svg xmlns="http://www.w3.org/2000/svg" name="gid2192" data-unicode="㑪"
    viewBox="0 0 1000 1000">
  <!--
© 2014-2021 Adobe (http://www.adobe.com/).
Noto is a trademark of Google Inc.
This Font Software is licensed under the SIL Open Font License, Version 1.1. This Font Software is distributed on an "AS IS" BASIS, WITHOUT WARRANTIES OR CONDITIONS OF ANY KIND, either express or implied. See the SIL Open Font License for the specific language, permissions and limitations governing your use of this Font Software.
http://scripts.sil.org/OFL
  -->
<path d="M588 40L588 145 310 145 310 211 419 211C461 271 509 317 563 354 479 390 379 414 275 430 288 446 306 479 313 496L398 478 398 609C398 703 384 831 274 922 292 931 319 951 332 964 406 903 441 826 457 750L790 750 790 960 864 960 864 472 932 486C939 463 956 436 972 420 871 404 781 384 702 353 759 315 806 268 840 211L956 211 956 145 665 145 665 40ZM754 211C724 254 682 290 631 319 581 292 536 256 498 211ZM790 592L790 686 467 686C469 660 470 634 470 610L470 592ZM790 467L790 530 470 530 470 466 443 466C511 447 575 424 633 394 696 426 766 449 843 467ZM264 44C208 196 115 346 16 443 30 460 51 499 58 517 93 481 127 439 160 393L160 958 232 958 232 280C271 211 307 138 335 65Z"/>
</svg>