<svg xmlns="http://www.w3.org/2000/svg"
    viewBox="0 0 1000 1000">
  <!--
© 2014-2021 Adobe (http://www.adobe.com/).
Noto is a trademark of Google Inc.
This Font Software is licensed under the SIL Open Font License, Version 1.1. This Font Software is distributed on an "AS IS" BASIS, WITHOUT WARRANTIES OR CONDITIONS OF ANY KIND, either express or implied. See the SIL Open Font License for the specific language, permissions and limitations governing your use of this Font Software.
http://scripts.sil.org/OFL
  -->
<path d="M255 321L740 321 740 435 255 435ZM716 627C663 683 589 728 503 763 415 727 342 682 290 627ZM76 562L76 627 254 627 214 646C265 706 332 755 410 796 294 831 164 852 35 861 47 879 60 911 65 930 215 915 368 887 501 836 624 885 769 915 924 929 933 909 952 878 968 860 834 850 706 829 595 795 697 744 782 677 837 588L789 558 775 562ZM185 259L185 497 814 497 814 259 534 259 534 170 928 170 928 105 534 105 534 10 458 10 458 105 68 105 68 170 458 170 458 259Z"/>
</svg>