<svg xmlns="http://www.w3.org/2000/svg" name="gid2209" data-unicode="㗅"
    viewBox="0 0 1000 1000">
  <!--
© 2014-2021 Adobe (http://www.adobe.com/).
Noto is a trademark of Google Inc.
This Font Software is licensed under the SIL Open Font License, Version 1.1. This Font Software is distributed on an "AS IS" BASIS, WITHOUT WARRANTIES OR CONDITIONS OF ANY KIND, either express or implied. See the SIL Open Font License for the specific language, permissions and limitations governing your use of this Font Software.
http://scripts.sil.org/OFL
  -->
<path d="M71 135L71 772 132 772 132 688 302 688 302 135ZM132 203L241 203 241 620 132 620ZM350 499L350 899 414 899 414 828 606 828 606 499 509 499 509 316 640 316 640 249 509 249 509 46 444 46 444 249 321 249 321 316 444 316 444 499ZM668 78L668 485C668 626 658 801 550 922 566 930 594 950 605 961 685 871 716 745 728 626L862 626 862 878C862 891 858 896 845 896 834 896 795 897 751 896 761 913 772 943 775 960 835 960 872 959 897 947 921 936 929 916 929 878L929 78ZM734 145L862 145 862 317 734 317ZM734 383L862 383 862 560 732 560 734 484ZM414 565L541 565 541 763 414 763Z"/>
</svg>