<svg xmlns="http://www.w3.org/2000/svg"
    viewBox="0 0 1000 1000">
  <!--
© 2014-2021 Adobe (http://www.adobe.com/).
Noto is a trademark of Google Inc.
This Font Software is licensed under the SIL Open Font License, Version 1.1. This Font Software is distributed on an "AS IS" BASIS, WITHOUT WARRANTIES OR CONDITIONS OF ANY KIND, either express or implied. See the SIL Open Font License for the specific language, permissions and limitations governing your use of this Font Software.
http://scripts.sil.org/OFL
  -->
<path d="M744 68L744 131 944 131 944 68ZM399 13C373 76 321 155 273 206 283 218 301 241 309 254 366 196 424 108 460 33ZM462 573C480 628 495 701 498 748L548 733C544 686 528 614 508 558ZM684 547C676 599 658 675 642 722L686 739C702 695 722 625 742 566ZM573 14C549 83 503 173 437 243L397 231C368 312 320 393 268 454L268 114 72 114 72 728 129 728 129 645 268 645 268 513 284 536C303 516 321 493 339 468L339 928 400 928 400 371C419 336 436 300 451 265 461 273 471 282 477 290 539 225 581 149 611 87 650 143 691 212 712 255L757 214C729 162 670 75 622 14ZM129 177L210 177 210 581 129 581ZM730 330L730 393 831 393 831 853C831 865 827 868 816 869 804 869 767 869 724 868 733 886 743 913 747 930 802 930 839 929 863 918 886 908 893 889 893 854L893 393 961 393 961 330ZM456 814L472 877C552 859 653 836 752 812L747 756 625 781 625 516 738 516 738 456 625 456 625 343 718 343 718 284 487 284 487 343 565 343 565 456 458 456 458 516 565 516 565 793Z"/>
</svg>