<svg xmlns="http://www.w3.org/2000/svg"
    viewBox="0 0 1000 1000">
  <!--
© 2014-2021 Adobe (http://www.adobe.com/).
Noto is a trademark of Google Inc.
This Font Software is licensed under the SIL Open Font License, Version 1.1. This Font Software is distributed on an "AS IS" BASIS, WITHOUT WARRANTIES OR CONDITIONS OF ANY KIND, either express or implied. See the SIL Open Font License for the specific language, permissions and limitations governing your use of this Font Software.
http://scripts.sil.org/OFL
  -->
<path d="M137 500C120 554 88 611 40 644L96 678C148 641 177 580 195 522ZM271 530C294 567 315 617 321 650L384 629C376 597 353 548 330 512ZM445 528C472 559 500 602 510 631L568 607C557 577 527 535 499 505ZM619 527C649 553 682 590 696 617L747 588C731 561 697 525 667 501ZM781 686L781 832 532 832 532 638 459 638 459 832 218 832 218 688 146 688 146 930 218 930 218 891 781 891 781 930 853 930 853 686ZM431 10C426 30 415 58 404 83L173 83 173 495 835 495C824 569 812 602 800 614 793 620 786 621 774 621 762 621 737 621 707 617 717 634 723 659 724 676 756 679 788 679 805 677 825 676 841 671 856 656 879 635 893 586 907 475 909 465 910 446 910 446L247 446 247 402 956 402 956 352 247 352 247 310 777 310 777 83 481 83 513 18ZM247 130L704 130 704 174 247 174ZM247 262L247 217 704 217 704 262Z"/>
</svg>