<svg xmlns="http://www.w3.org/2000/svg"
    viewBox="0 0 1000 1000">
  <!--
© 2014-2021 Adobe (http://www.adobe.com/).
Noto is a trademark of Google Inc.
This Font Software is licensed under the SIL Open Font License, Version 1.1. This Font Software is distributed on an "AS IS" BASIS, WITHOUT WARRANTIES OR CONDITIONS OF ANY KIND, either express or implied. See the SIL Open Font License for the specific language, permissions and limitations governing your use of this Font Software.
http://scripts.sil.org/OFL
  -->
<path d="M305 705L305 826C305 897 330 915 433 915 454 915 603 915 625 915 705 915 727 891 736 786 715 782 686 773 670 763 666 843 659 853 618 853 586 853 462 853 438 853 386 853 377 848 377 825L377 705ZM724 740C793 785 866 855 897 907L958 865C926 813 850 747 781 704ZM179 707C158 774 113 833 40 865L98 909C180 872 220 805 244 730ZM717 108C774 157 842 227 873 272L926 233C894 188 825 121 768 75ZM53 513L53 562 747 562 747 613 143 613 143 662 426 662 397 685C454 712 520 756 553 791L605 748C578 719 529 686 481 662L821 662 821 562 950 562 950 513 821 513 821 413 149 413 149 463 747 463 747 513ZM752 11C635 42 419 65 232 76L192 66C162 134 112 203 58 250 75 259 101 280 114 291 156 248 202 188 236 125 429 115 657 92 800 54ZM436 126C452 156 467 195 473 223L212 223 212 271 459 271 459 321 106 321 106 370 902 370 902 321 533 321 533 271 787 271 787 223 492 223 534 205C528 178 510 136 493 105Z"/>
</svg>