<svg xmlns="http://www.w3.org/2000/svg"
    viewBox="0 0 1000 1000">
  <!--
© 2014-2021 Adobe (http://www.adobe.com/).
Noto is a trademark of Google Inc.
This Font Software is licensed under the SIL Open Font License, Version 1.1. This Font Software is distributed on an "AS IS" BASIS, WITHOUT WARRANTIES OR CONDITIONS OF ANY KIND, either express or implied. See the SIL Open Font License for the specific language, permissions and limitations governing your use of this Font Software.
http://scripts.sil.org/OFL
  -->
<path d="M624 636C656 686 689 754 702 796L760 768C746 727 711 663 678 614ZM167 10L167 222 49 222 49 292 161 292C137 430 84 591 30 678 42 694 60 722 68 742 106 682 140 589 167 491L167 929 235 929 235 428C259 467 284 513 296 539L337 478C323 457 258 367 235 337L235 292 327 292 327 222 235 222 235 10ZM349 61L349 389 498 389 498 503 322 503 322 569 355 569 355 617C355 706 347 815 285 897 302 905 328 923 339 935 407 842 416 721 416 618L416 569 498 569 498 930 562 930 562 285C571 293 580 302 586 309L625 277C662 303 700 336 726 364 680 402 630 432 579 452 593 465 610 488 619 504 768 437 905 305 961 103L919 86 907 89 778 89C791 66 803 43 814 20L747 10C715 86 653 178 562 249L562 11 498 11 498 324 409 324 409 61ZM822 394L822 508 588 508 588 573 822 573 822 849C822 861 819 864 807 865 794 865 756 865 711 864 721 884 730 912 733 931 790 931 830 930 855 918 881 907 887 887 887 850L887 573 963 573 963 508 887 508 887 394ZM807 278C793 296 779 312 764 328 738 301 698 269 660 243L698 202C736 226 779 255 807 278ZM836 237C806 214 765 186 728 165L744 142 883 142C870 176 854 207 836 237Z"/>
</svg>