<svg xmlns="http://www.w3.org/2000/svg"
    viewBox="0 0 1000 1000">
  <!--
© 2014-2021 Adobe (http://www.adobe.com/).
Noto is a trademark of Google Inc.
This Font Software is licensed under the SIL Open Font License, Version 1.1. This Font Software is distributed on an "AS IS" BASIS, WITHOUT WARRANTIES OR CONDITIONS OF ANY KIND, either express or implied. See the SIL Open Font License for the specific language, permissions and limitations governing your use of this Font Software.
http://scripts.sil.org/OFL
  -->
<path d="M736 11L736 109 575 109 575 11 505 11 505 109 363 109 363 175 505 175 505 237 448 223C421 307 376 389 322 450 315 363 298 279 256 199 298 150 336 99 366 48L300 15C279 55 250 96 217 136 188 96 151 56 104 18L52 59C103 101 141 145 170 190 127 235 81 276 33 310 50 322 74 344 85 358 126 327 166 292 204 254 224 298 236 343 244 390 195 481 107 578 29 627 48 642 69 667 80 684 139 640 203 570 253 498L254 551C254 685 244 803 217 838 209 849 198 855 183 857 159 859 117 860 66 856 80 877 88 905 88 929 133 931 176 930 212 923 238 919 257 909 272 889 314 832 325 700 325 552L324 492C338 501 352 511 360 518 395 480 429 430 459 375L861 375C850 697 837 818 810 846 800 858 790 860 772 860 750 860 698 860 641 855 653 874 662 904 664 925 718 928 771 929 801 926 833 923 855 916 875 889 908 849 922 719 936 345 936 335 936 309 936 309L492 309 509 269 575 269 575 175 736 175 736 269 806 269 806 175 951 175 951 109 806 109 806 11ZM499 525L661 525 661 675 499 675ZM434 466L434 794 499 794 499 736 726 736 726 466Z"/>
</svg>