<svg xmlns="http://www.w3.org/2000/svg"
    viewBox="0 0 1000 1000">
  <!--
© 2014-2021 Adobe (http://www.adobe.com/).
Noto is a trademark of Google Inc.
This Font Software is licensed under the SIL Open Font License, Version 1.1. This Font Software is distributed on an "AS IS" BASIS, WITHOUT WARRANTIES OR CONDITIONS OF ANY KIND, either express or implied. See the SIL Open Font License for the specific language, permissions and limitations governing your use of this Font Software.
http://scripts.sil.org/OFL
  -->
<path d="M76 61L76 818 146 818 146 762 505 762 505 61ZM146 133L258 133 258 361 146 361ZM146 690L146 431 258 431 258 690ZM434 431L434 690 323 690 323 431ZM434 361L323 361 323 133 434 133ZM665 22L665 265C665 443 657 699 384 882 402 895 427 918 438 934 605 815 680 670 713 530 748 684 811 836 928 930 939 911 963 881 977 868 809 746 758 492 738 285L738 265 738 22Z"/>
</svg>