<svg xmlns="http://www.w3.org/2000/svg"
    viewBox="0 0 1000 1000">
  <!--
© 2014-2021 Adobe (http://www.adobe.com/).
Noto is a trademark of Google Inc.
This Font Software is licensed under the SIL Open Font License, Version 1.1. This Font Software is distributed on an "AS IS" BASIS, WITHOUT WARRANTIES OR CONDITIONS OF ANY KIND, either express or implied. See the SIL Open Font License for the specific language, permissions and limitations governing your use of this Font Software.
http://scripts.sil.org/OFL
  -->
<path d="M264 341L264 483 142 483 142 341ZM264 275L142 275 142 136 264 136ZM264 547L264 694 142 694 142 547ZM73 69L73 849 142 849 142 761 334 761 334 69ZM647 13L613 13 613 165 360 165 360 233 613 233 613 451C613 534 563 757 320 869 334 884 354 914 363 930 561 838 633 666 646 586 662 664 730 841 921 930 932 912 951 882 965 865 730 755 683 533 683 451L683 233 954 233 954 165 683 165 683 13ZM455 286C440 399 406 496 341 558 356 568 381 591 391 602 425 566 453 521 474 469 502 505 529 544 542 572L590 538C572 503 532 450 495 409 505 373 513 334 519 293ZM807 285C794 395 762 488 699 548 715 557 742 577 753 588 783 556 808 517 826 472 861 516 896 564 915 596L965 559C940 519 892 457 849 407 859 371 866 333 871 292Z"/>
</svg>