<svg xmlns="http://www.w3.org/2000/svg"
    viewBox="0 0 1000 1000">
  <!--
© 2014-2021 Adobe (http://www.adobe.com/).
Noto is a trademark of Google Inc.
This Font Software is licensed under the SIL Open Font License, Version 1.1. This Font Software is distributed on an "AS IS" BASIS, WITHOUT WARRANTIES OR CONDITIONS OF ANY KIND, either express or implied. See the SIL Open Font License for the specific language, permissions and limitations governing your use of this Font Software.
http://scripts.sil.org/OFL
  -->
<path d="M513 460L825 460 825 501 513 501ZM513 542L825 542 825 585 513 585ZM513 378L825 378 825 419 513 419ZM60 80L60 219 132 219 132 140 351 140C320 207 248 240 80 258 93 269 108 292 114 308 304 283 389 238 425 140L547 140 547 199C547 260 568 274 654 274 672 274 777 274 795 274 846 274 868 261 876 217L943 217 943 80 538 80 538 10 461 10 461 80ZM621 140L868 140 868 196C851 193 830 187 818 180 815 216 810 221 785 221 763 221 678 221 662 221 626 221 621 218 621 199ZM55 607L55 668 132 668C123 766 100 843 40 894 56 903 85 922 97 932 158 872 189 783 199 668L290 668 290 930 359 930 359 293 290 293 290 460 162 460 162 326 99 326 99 552 162 552 162 520 290 520 290 607ZM626 279C622 294 615 314 607 332L445 332 445 631 629 631 629 682 390 682 390 736 588 736C534 791 448 843 373 869 387 881 407 904 417 919 489 888 572 829 629 767L629 930 698 930 698 762C758 824 846 885 921 917 931 901 952 876 966 863 892 839 801 788 743 736L944 736 944 682 698 682 698 631 895 631 895 332 680 332 703 291Z"/>
</svg>