<svg xmlns="http://www.w3.org/2000/svg"
    viewBox="0 0 1000 1000">
  <!--
© 2014-2021 Adobe (http://www.adobe.com/).
Noto is a trademark of Google Inc.
This Font Software is licensed under the SIL Open Font License, Version 1.1. This Font Software is distributed on an "AS IS" BASIS, WITHOUT WARRANTIES OR CONDITIONS OF ANY KIND, either express or implied. See the SIL Open Font License for the specific language, permissions and limitations governing your use of this Font Software.
http://scripts.sil.org/OFL
  -->
<path d="M181 5C150 81 96 157 36 207 54 217 84 237 98 249 127 221 157 184 184 144L248 144C268 172 287 207 296 230L363 208C356 191 342 167 326 144L491 144 491 86 220 86C232 66 242 45 251 24ZM401 221L401 296 276 296 276 221 199 221 199 296 68 296 68 354 199 354 199 581 461 581 461 644 55 644 55 705 394 705C302 774 160 831 33 858 48 873 69 900 79 918 213 883 364 812 461 726L461 932 535 932 535 725C630 813 781 884 921 917 932 898 953 869 969 853 836 829 692 774 601 705L947 705 947 644 535 644 535 581 895 581 895 521 276 521 276 354 401 354 401 476 747 476 747 354 925 354 925 296 747 296 747 232 806 213C797 193 780 168 761 144L943 144 943 86 612 86C623 65 632 44 640 22L569 5C542 78 496 152 442 201 461 209 493 226 508 237 533 212 557 180 580 144L677 144C694 164 711 189 723 210L672 210 672 296 473 296 473 221ZM672 354L672 427 473 427 473 354Z"/>
</svg>