<svg xmlns="http://www.w3.org/2000/svg"
    viewBox="0 0 1000 1000">
  <!--
© 2014-2021 Adobe (http://www.adobe.com/).
Noto is a trademark of Google Inc.
This Font Software is licensed under the SIL Open Font License, Version 1.1. This Font Software is distributed on an "AS IS" BASIS, WITHOUT WARRANTIES OR CONDITIONS OF ANY KIND, either express or implied. See the SIL Open Font License for the specific language, permissions and limitations governing your use of this Font Software.
http://scripts.sil.org/OFL
  -->
<path d="M458 833L458 901 795 901 795 833ZM40 298L40 366 208 366 208 532 77 532 77 918 144 918 144 857 345 857 345 895 415 895 415 532 278 532 278 366 456 366 456 298 278 298 278 116C338 102 395 87 441 70L383 14C304 46 163 76 42 94 51 111 61 136 64 153 110 147 159 139 208 130L208 298ZM144 790L144 600 345 600 345 790ZM859 13C788 46 663 78 547 101L501 88 501 692 435 706 457 775C536 754 638 728 737 703L730 641 570 677 570 408 728 408C746 676 787 855 885 856 918 857 953 817 970 669 957 663 930 647 917 633 911 719 900 769 885 769 840 767 810 621 797 408L960 408 960 340 793 340C790 268 788 191 788 109 837 96 884 81 923 65ZM570 340L570 158C618 149 669 139 717 127 719 202 721 273 724 340Z"/>
</svg>