<svg xmlns="http://www.w3.org/2000/svg"
    viewBox="0 0 1000 1000">
  <!--
© 2014-2021 Adobe (http://www.adobe.com/).
Noto is a trademark of Google Inc.
This Font Software is licensed under the SIL Open Font License, Version 1.1. This Font Software is distributed on an "AS IS" BASIS, WITHOUT WARRANTIES OR CONDITIONS OF ANY KIND, either express or implied. See the SIL Open Font License for the specific language, permissions and limitations governing your use of this Font Software.
http://scripts.sil.org/OFL
  -->
<path d="M629 10L629 74 368 74 368 10 294 10 294 74 58 74 58 140 294 140 294 212 368 212 368 140 629 140 629 212 703 212 703 140 946 140 946 74 703 74 703 10ZM118 232L118 296 335 296C302 415 208 478 69 510 83 524 105 553 112 567 264 522 369 444 409 296L605 296C595 337 583 378 573 409L643 422 656 381 824 381C814 441 804 470 791 481 784 488 775 488 759 488 743 488 701 488 658 484 669 501 676 527 677 546 723 549 767 549 789 547 815 546 832 541 849 526 872 505 887 456 902 349 904 337 906 317 906 317L675 317 697 232ZM460 483L460 594 62 594 62 658 396 658C305 739 162 810 34 844 50 858 72 885 82 904 214 862 364 778 460 681L460 930 535 930 535 676C627 778 776 860 917 900 928 881 950 854 966 839 833 807 692 739 605 658L941 658 941 594 535 594 535 483Z"/>
</svg>