<svg xmlns="http://www.w3.org/2000/svg"
    viewBox="0 0 1000 1000">
  <!--
© 2014-2021 Adobe (http://www.adobe.com/).
Noto is a trademark of Google Inc.
This Font Software is licensed under the SIL Open Font License, Version 1.1. This Font Software is distributed on an "AS IS" BASIS, WITHOUT WARRANTIES OR CONDITIONS OF ANY KIND, either express or implied. See the SIL Open Font License for the specific language, permissions and limitations governing your use of this Font Software.
http://scripts.sil.org/OFL
  -->
<path d="M483 12C459 86 411 180 358 242 371 252 390 274 399 287 459 219 513 117 546 30ZM729 392L729 810C694 778 665 723 648 630 654 577 656 525 658 480L593 477C592 599 583 789 503 891L503 392C523 345 541 297 554 252L492 236C467 334 419 454 354 536L354 194 240 194 240 11 180 11 180 194 68 194 68 596 124 596 124 546 180 546 180 753 33 778 45 845 319 789C324 811 327 833 329 851L385 835C378 773 351 677 320 605L268 618C281 652 294 691 305 729L240 742 240 546 346 546 343 550C354 562 372 585 380 598 401 573 421 545 440 515L440 931 503 931 503 893C517 901 539 919 550 931 586 886 610 824 626 757 676 888 752 916 851 916L949 916C952 898 961 867 971 850 946 851 873 851 856 851 834 851 813 849 793 844L793 633 937 633 937 568 793 568 793 392ZM124 255L185 255 185 484 124 484ZM234 255L298 255 298 484 234 484ZM652 14C636 149 604 271 540 352 554 361 579 383 589 394 622 352 647 299 667 239 685 267 704 297 713 315L750 255C741 243 708 204 685 178 698 129 707 77 714 22ZM827 14C814 153 784 272 713 348 727 357 749 380 758 391 792 354 818 308 838 255 870 302 901 353 917 389L963 346C941 304 899 240 860 186 874 135 883 80 889 20Z"/>
</svg>