<svg xmlns="http://www.w3.org/2000/svg" name="gid2356" data-unicode="䚯"
    viewBox="0 0 1000 1000">
  <!--
© 2014-2021 Adobe (http://www.adobe.com/).
Noto is a trademark of Google Inc.
This Font Software is licensed under the SIL Open Font License, Version 1.1. This Font Software is distributed on an "AS IS" BASIS, WITHOUT WARRANTIES OR CONDITIONS OF ANY KIND, either express or implied. See the SIL Open Font License for the specific language, permissions and limitations governing your use of this Font Software.
http://scripts.sil.org/OFL
  -->
<path d="M110 343L110 402 441 402 441 343ZM115 75L115 135 439 135 439 75ZM110 476L110 536 441 536 441 476ZM40 206L40 269 511 269 511 206ZM584 161L584 715 656 715 656 161ZM839 57L839 863C839 880 833 885 816 886 799 887 743 887 683 885 693 907 705 940 708 960 791 961 841 958 871 946 901 934 913 912 913 863L913 57ZM102 611L102 949 169 949 169 903 447 903 447 611ZM169 674L380 674 380 841 169 841Z"/>
</svg>