<svg xmlns="http://www.w3.org/2000/svg" name="gid2359" data-unicode="䝤"
    viewBox="0 0 1000 1000">
  <!--
© 2014-2021 Adobe (http://www.adobe.com/).
Noto is a trademark of Google Inc.
This Font Software is licensed under the SIL Open Font License, Version 1.1. This Font Software is distributed on an "AS IS" BASIS, WITHOUT WARRANTIES OR CONDITIONS OF ANY KIND, either express or implied. See the SIL Open Font License for the specific language, permissions and limitations governing your use of this Font Software.
http://scripts.sil.org/OFL
  -->
<path d="M771 750C820 804 876 879 900 926L958 888C932 840 875 769 825 716ZM529 544L795 544 795 618 529 618ZM529 420L795 420 795 492 529 492ZM498 718C473 775 426 839 375 881 390 891 410 910 421 923 476 879 527 813 558 746ZM62 246C90 284 118 335 129 369L184 342C172 308 143 259 114 223ZM196 196C218 228 241 272 250 301L301 275C293 247 268 205 245 173ZM330 42C262 90 138 138 27 166 40 179 56 202 64 218 178 188 301 141 375 86ZM697 211C720 267 751 320 788 366L543 366C580 321 610 269 635 211ZM365 226C291 306 160 388 32 441 46 453 63 475 72 489 122 467 173 442 221 414 235 432 247 452 257 473 203 526 108 586 36 616 50 629 66 654 75 670 141 635 222 579 280 526 289 552 297 578 302 604 238 682 123 767 28 809 43 823 60 847 69 863 149 821 243 750 311 680 318 773 300 852 273 876 256 895 239 897 215 897 198 897 166 896 134 893 144 912 150 939 150 958 179 959 211 960 230 960 272 959 299 950 327 921 400 854 411 559 271 382 321 350 366 315 402 278 426 298 452 323 471 346 435 384 394 416 346 442 361 455 383 483 392 497 416 482 439 466 461 448L461 672 628 672 628 888C628 898 625 900 613 901 603 901 565 901 526 900 535 917 546 942 549 960 607 960 644 960 668 950 694 939 699 921 699 888L699 672 866 672 866 446C887 463 909 478 931 490 942 472 963 447 978 434 933 414 891 382 854 344 880 322 910 294 937 268L885 231C870 252 844 280 820 304 797 276 778 244 762 211L959 211 959 148 659 148C670 117 678 84 686 49L618 39C610 77 600 114 588 148L385 148 385 211 562 211C547 242 530 271 511 297 491 277 466 255 443 238L409 266Z"/>
</svg>