<svg xmlns="http://www.w3.org/2000/svg"
    viewBox="0 0 1000 1000">
  <!--
© 2014-2021 Adobe (http://www.adobe.com/).
Noto is a trademark of Google Inc.
This Font Software is licensed under the SIL Open Font License, Version 1.1. This Font Software is distributed on an "AS IS" BASIS, WITHOUT WARRANTIES OR CONDITIONS OF ANY KIND, either express or implied. See the SIL Open Font License for the specific language, permissions and limitations governing your use of this Font Software.
http://scripts.sil.org/OFL
  -->
<path d="M213 10C207 70 200 128 192 184L50 184 50 254 180 254C150 421 101 564 19 665 35 680 58 712 68 727 95 692 119 654 140 612L140 921 210 921 210 858 373 858 373 915 444 915 444 448 205 448C223 387 238 323 251 254L476 254 476 184 263 184C271 131 278 75 284 18ZM210 789L210 517 373 517 373 789ZM581 468L720 468 720 605 581 605ZM581 404L581 269 720 269 720 404ZM778 20C764 73 738 147 714 201L597 201C621 145 642 87 660 28L587 10C549 148 485 286 410 376 427 388 456 414 468 427 483 408 497 388 511 366L511 931 581 931 581 878 957 878 957 809 790 809 790 670 930 670 930 605 790 605 790 468 930 468 930 404 790 404 790 269 944 269 944 201 786 201C809 152 832 91 852 38ZM581 670L720 670 720 809 581 809Z"/>
</svg>