<svg xmlns="http://www.w3.org/2000/svg" name="gid2372" data-unicode="䪼"
    viewBox="0 0 1000 1000">
  <!--
© 2014-2021 Adobe (http://www.adobe.com/).
Noto is a trademark of Google Inc.
This Font Software is licensed under the SIL Open Font License, Version 1.1. This Font Software is distributed on an "AS IS" BASIS, WITHOUT WARRANTIES OR CONDITIONS OF ANY KIND, either express or implied. See the SIL Open Font License for the specific language, permissions and limitations governing your use of this Font Software.
http://scripts.sil.org/OFL
  -->
<path d="M588 455L853 455 853 548 588 548ZM588 607L853 607 853 700 588 700ZM588 305L853 305 853 396 588 396ZM621 775C586 822 514 879 448 911 464 924 487 946 498 960 563 925 640 866 687 811ZM759 810C814 855 881 919 912 960L973 923C939 882 871 819 817 776ZM404 522L404 784 298 784 298 445 448 445 448 142 389 142 389 382 298 382 298 55 232 55 232 382 145 382 145 142 87 142 87 445 232 445 232 784 129 784 129 522 69 522 69 927 129 927 129 848 404 848 404 893 465 893 465 522ZM520 244L520 760 924 760 924 244 733 244 759 153 956 153 956 88 480 88 480 153 680 153C676 183 669 216 663 244Z"/>
</svg>