<svg xmlns="http://www.w3.org/2000/svg" name="gid2376" data-unicode="䯂"
    viewBox="0 0 1000 1000">
  <!--
© 2014-2021 Adobe (http://www.adobe.com/).
Noto is a trademark of Google Inc.
This Font Software is licensed under the SIL Open Font License, Version 1.1. This Font Software is distributed on an "AS IS" BASIS, WITHOUT WARRANTIES OR CONDITIONS OF ANY KIND, either express or implied. See the SIL Open Font License for the specific language, permissions and limitations governing your use of this Font Software.
http://scripts.sil.org/OFL
  -->
<path d="M320 311C333 335 345 368 348 390L403 376C400 353 387 323 373 299ZM463 308C478 330 492 359 497 380L549 362C544 343 529 313 514 294ZM100 613C90 643 71 676 46 695L86 718C113 696 130 662 141 628ZM164 626C173 652 180 685 182 707L223 696C222 676 213 644 203 619ZM245 624C255 647 265 676 267 696L306 683C303 665 293 636 282 615ZM595 626C604 652 611 683 613 705L653 694C652 674 644 643 634 619ZM677 624C687 646 697 675 699 695L738 682C735 664 726 636 714 615ZM467 163L467 191 266 191 266 163ZM196 63L196 292 627 292 592 307C609 325 626 352 634 369L683 346C676 331 660 308 644 292L800 292C794 319 789 332 781 339 775 343 769 344 758 344 749 344 724 344 696 341 703 353 708 373 709 385 741 388 771 388 787 388 806 387 822 383 836 373 852 358 862 333 871 279 873 271 875 254 875 254L536 254 536 227 792 227 792 191 536 191 536 163 789 163 789 127 536 127 536 101 832 101 832 63ZM467 127L266 127 266 101 467 101ZM467 227L467 254 266 254 266 227ZM264 487L264 511 172 511 172 487ZM109 392L109 609 346 609 320 618C329 634 339 655 344 670L380 655C376 643 367 624 357 609L427 609C422 644 417 660 411 666 406 671 401 672 392 672 384 672 366 672 344 670L339 669C345 679 349 696 350 707 373 708 398 709 411 708 429 707 442 704 454 694 468 681 475 653 482 594 483 587 484 573 484 573L327 573 327 547 460 547 460 511 327 511 327 487 457 487 457 452 327 452 327 428 477 428 477 392 179 392C214 373 233 345 245 315L192 297C180 326 155 351 120 364L156 392ZM264 452L172 452 172 428 264 428ZM264 547L264 573 172 573 172 547ZM696 487L696 511 603 511 603 487ZM540 392L540 609 782 609 756 618C765 634 774 654 779 669L776 669C782 679 786 696 787 707 810 708 835 709 848 708 867 707 879 704 891 694 904 681 912 654 920 595 921 587 922 573 922 573L759 573 759 547 898 547 898 511 759 511 759 487 895 487 895 452 759 452 759 428 917 428 917 392ZM696 452L603 452 603 428 696 428ZM696 547L696 573 603 573 603 547ZM864 609C860 643 855 659 849 666 843 671 838 672 829 672 821 672 802 672 780 669L816 655C812 643 802 624 793 609ZM460 693L460 733 57 733 57 782 386 782C295 838 158 884 38 905 52 917 68 939 77 954 209 925 368 863 460 786L460 960 535 960 535 783C625 864 782 924 923 953 932 936 949 913 962 900 837 881 700 839 612 782L945 782 945 733 535 733 535 693 533 693C553 676 565 652 572 628L530 614C522 641 506 664 480 677L503 693Z"/>
</svg>