<svg xmlns="http://www.w3.org/2000/svg"
    viewBox="0 0 1000 1000">
  <!--
© 2014-2021 Adobe (http://www.adobe.com/).
Noto is a trademark of Google Inc.
This Font Software is licensed under the SIL Open Font License, Version 1.1. This Font Software is distributed on an "AS IS" BASIS, WITHOUT WARRANTIES OR CONDITIONS OF ANY KIND, either express or implied. See the SIL Open Font License for the specific language, permissions and limitations governing your use of this Font Software.
http://scripts.sil.org/OFL
  -->
<path d="M253 81L176 98C233 322 314 507 439 649 334 742 201 811 34 861 51 879 79 914 90 933 255 877 388 804 496 708 606 811 744 886 920 932 932 910 956 876 974 860 801 819 665 747 557 648 685 511 772 331 835 97L751 77C697 294 618 462 499 590 380 458 303 286 253 81Z"/>
</svg>