<svg xmlns="http://www.w3.org/2000/svg" name="gid2453" data-unicode="乘"
    viewBox="0 0 1000 1000">
  <!--
© 2014-2021 Adobe (http://www.adobe.com/).
Noto is a trademark of Google Inc.
This Font Software is licensed under the SIL Open Font License, Version 1.1. This Font Software is distributed on an "AS IS" BASIS, WITHOUT WARRANTIES OR CONDITIONS OF ANY KIND, either express or implied. See the SIL Open Font License for the specific language, permissions and limitations governing your use of this Font Software.
http://scripts.sil.org/OFL
  -->
<path d="M812 45C649 79 361 100 128 108 135 125 144 154 145 172 244 170 354 165 460 157L460 250 65 250 65 319 460 319 460 551C375 690 211 813 34 863 51 879 73 907 84 925 230 876 365 778 460 657L460 959 538 959 538 653C632 777 768 879 915 930 926 910 948 882 964 867 788 816 623 689 538 549L538 319 935 319 935 250 538 250 538 151C653 141 762 127 846 110ZM62 602L79 666 284 627 284 674 354 674 354 347 284 347 284 417 92 417 92 478 284 478 284 568ZM856 384C819 404 766 428 713 448L713 346 643 346 643 591C643 663 662 682 738 682 754 682 837 682 853 682 912 682 931 659 939 569 919 565 891 555 876 543 874 609 869 618 846 618 828 618 760 618 746 618 717 618 713 614 713 591L713 510C775 490 846 465 902 440Z"/>
</svg>