<svg xmlns="http://www.w3.org/2000/svg"
    viewBox="0 0 1000 1000">
  <!--
© 2014-2021 Adobe (http://www.adobe.com/).
Noto is a trademark of Google Inc.
This Font Software is licensed under the SIL Open Font License, Version 1.1. This Font Software is distributed on an "AS IS" BASIS, WITHOUT WARRANTIES OR CONDITIONS OF ANY KIND, either express or implied. See the SIL Open Font License for the specific language, permissions and limitations governing your use of this Font Software.
http://scripts.sil.org/OFL
  -->
<path d="M214 78L214 364 30 421 51 489 214 438 214 750C214 878 260 910 409 910 444 910 724 910 761 910 907 910 936 857 953 693 932 689 901 676 882 663 869 807 853 841 759 841 700 841 454 841 406 841 307 841 287 824 287 752L287 416 496 351 496 716 570 716 570 328 798 257C797 401 791 496 776 540 762 580 746 587 723 587 705 587 658 587 622 584 632 601 640 634 642 653 678 655 729 654 760 649 794 643 823 625 841 573 863 515 871 392 874 204L878 190 824 166 808 178 802 183 570 255 570 12 496 12 496 277 287 342 287 78Z"/>
</svg>