<svg xmlns="http://www.w3.org/2000/svg"
    viewBox="0 0 1000 1000">
  <!--
© 2014-2021 Adobe (http://www.adobe.com/).
Noto is a trademark of Google Inc.
This Font Software is licensed under the SIL Open Font License, Version 1.1. This Font Software is distributed on an "AS IS" BASIS, WITHOUT WARRANTIES OR CONDITIONS OF ANY KIND, either express or implied. See the SIL Open Font License for the specific language, permissions and limitations governing your use of this Font Software.
http://scripts.sil.org/OFL
  -->
<path d="M479 14C375 46 190 69 38 81 46 99 56 126 58 144 213 134 404 112 525 76ZM583 28L583 783C583 888 608 917 699 917 718 917 829 917 848 917 938 917 957 858 965 687 944 682 913 667 895 652 889 807 884 846 843 846 818 846 727 846 708 846 667 846 660 837 660 784L660 28ZM59 184C80 229 99 289 104 328L167 310C160 271 141 212 118 168ZM231 155C244 202 254 263 255 302L320 291C318 252 307 192 292 146ZM470 136C447 193 403 274 368 323L423 347 80 347 80 415 384 415C353 446 317 477 282 501L255 501 255 590 36 606 44 681 255 662 255 845C255 856 253 860 239 861 223 862 178 862 126 860 136 880 148 909 151 929 218 929 264 929 292 918 322 907 330 886 330 846L330 656 546 636 546 565 330 584 330 538C394 495 465 436 516 382L468 343 451 347 426 347C462 300 505 227 539 164Z"/>
</svg>