<svg xmlns="http://www.w3.org/2000/svg" name="gid2476" data-unicode="予"
    viewBox="0 0 1000 1000">
  <!--
© 2014-2021 Adobe (http://www.adobe.com/).
Noto is a trademark of Google Inc.
This Font Software is licensed under the SIL Open Font License, Version 1.1. This Font Software is distributed on an "AS IS" BASIS, WITHOUT WARRANTIES OR CONDITIONS OF ANY KIND, either express or implied. See the SIL Open Font License for the specific language, permissions and limitations governing your use of this Font Software.
http://scripts.sil.org/OFL
  -->
<path d="M284 280C374 317 488 370 573 413L53 413 53 485 468 485 468 865C468 880 462 884 444 885 424 886 356 886 287 884 298 905 311 935 315 957 403 957 462 956 497 944 533 934 545 912 545 866L545 485 831 485C794 544 750 603 712 643L774 680C835 620 900 523 953 435L893 408 879 413 673 413 689 388C660 373 622 354 580 335 671 278 771 202 841 131L787 90 770 94 147 94 147 164 697 164C642 212 570 264 506 301 443 274 378 246 324 224Z"/>
</svg>