<svg xmlns="http://www.w3.org/2000/svg" name="gid2478" data-unicode="亊"
    viewBox="0 0 1000 1000">
  <!--
© 2014-2021 Adobe (http://www.adobe.com/).
Noto is a trademark of Google Inc.
This Font Software is licensed under the SIL Open Font License, Version 1.1. This Font Software is distributed on an "AS IS" BASIS, WITHOUT WARRANTIES OR CONDITIONS OF ANY KIND, either express or implied. See the SIL Open Font License for the specific language, permissions and limitations governing your use of this Font Software.
http://scripts.sil.org/OFL
  -->
<path d="M206 237C235 284 264 347 274 387L342 362C331 322 301 260 270 215ZM721 211C704 257 672 322 646 363L703 385C732 347 767 288 797 235ZM147 713L147 776 459 776 459 870C459 889 451 895 432 896 414 896 350 897 286 895 296 913 308 942 313 960 404 960 456 960 488 948 521 937 535 917 535 870L535 776 772 776 772 829 847 829 847 614 953 614 953 550 847 550 847 389 535 389 535 207 931 207 931 140 535 140 535 38 459 38 459 140 72 140 72 207 459 207 459 389 153 389 153 452 459 452 459 550 49 550 49 614 459 614 459 713ZM535 452L772 452 772 550 535 550ZM535 614L772 614 772 713 535 713Z"/>
</svg>