<svg xmlns="http://www.w3.org/2000/svg" name="gid2499" data-unicode="交"
    viewBox="0 0 1000 1000">
  <!--
© 2014-2021 Adobe (http://www.adobe.com/).
Noto is a trademark of Google Inc.
This Font Software is licensed under the SIL Open Font License, Version 1.1. This Font Software is distributed on an "AS IS" BASIS, WITHOUT WARRANTIES OR CONDITIONS OF ANY KIND, either express or implied. See the SIL Open Font License for the specific language, permissions and limitations governing your use of this Font Software.
http://scripts.sil.org/OFL
  -->
<path d="M318 274C257 360 152 442 54 494 72 509 102 538 115 554 212 494 324 399 395 303ZM618 316C714 382 830 479 883 545L949 492C891 426 774 333 679 271ZM359 452L288 474C327 571 379 654 444 723 339 805 203 858 40 892 55 910 79 945 88 964 251 923 390 864 500 776 607 867 744 928 914 960 925 939 947 906 964 889 798 862 663 806 559 724 628 655 684 571 724 469L645 446C612 537 564 611 502 673 440 611 392 537 359 452ZM460 39L460 170 61 170 61 244 939 244 939 170 536 170 536 39Z"/>
</svg>