<svg xmlns="http://www.w3.org/2000/svg"
    viewBox="0 0 1000 1000">
  <!--
© 2014-2021 Adobe (http://www.adobe.com/).
Noto is a trademark of Google Inc.
This Font Software is licensed under the SIL Open Font License, Version 1.1. This Font Software is distributed on an "AS IS" BASIS, WITHOUT WARRANTIES OR CONDITIONS OF ANY KIND, either express or implied. See the SIL Open Font License for the specific language, permissions and limitations governing your use of this Font Software.
http://scripts.sil.org/OFL
  -->
<path d="M489 12C489 92 489 169 487 244L311 244 311 317 484 317C471 557 427 759 262 879 281 891 307 915 318 933 494 800 544 577 558 317L726 317 726 790C726 865 733 883 750 898 765 911 790 917 811 917 823 917 853 917 867 917 888 917 909 913 923 904 938 895 948 881 954 857 959 835 963 773 964 722 943 716 918 703 902 689 902 746 900 791 898 811 897 829 892 838 887 842 882 846 872 847 862 847 853 847 837 847 829 847 821 847 814 846 809 842 803 838 802 822 802 794L802 244 561 244C564 169 564 91 564 12ZM267 12C214 164 127 314 34 411 47 429 69 468 77 486 107 453 137 415 165 373L165 930 239 930 239 252C277 183 311 108 338 34Z"/>
</svg>