<svg xmlns="http://www.w3.org/2000/svg" name="gid2532" data-unicode="仗"
    viewBox="0 0 1000 1000">
  <!--
© 2014-2021 Adobe (http://www.adobe.com/).
Noto is a trademark of Google Inc.
This Font Software is licensed under the SIL Open Font License, Version 1.1. This Font Software is distributed on an "AS IS" BASIS, WITHOUT WARRANTIES OR CONDITIONS OF ANY KIND, either express or implied. See the SIL Open Font License for the specific language, permissions and limitations governing your use of this Font Software.
http://scripts.sil.org/OFL
  -->
<path d="M661 44L661 251 327 251 327 324 661 324 661 328C661 439 651 559 582 670 525 594 484 502 458 394L390 409C423 538 470 645 537 731 483 793 407 851 297 901 314 915 339 945 350 962 457 912 535 854 591 791 674 872 783 929 924 962 934 941 955 911 971 895 829 866 719 811 637 731 722 603 736 460 736 328L736 324 959 324 959 251 736 251 736 44ZM295 46C232 204 129 357 20 455 34 473 58 511 66 529 107 489 148 442 186 390L186 958 260 958 260 280C301 213 337 141 366 69Z"/>
</svg>