<svg xmlns="http://www.w3.org/2000/svg"
    viewBox="0 0 1000 1000">
  <!--
© 2014-2021 Adobe (http://www.adobe.com/).
Noto is a trademark of Google Inc.
This Font Software is licensed under the SIL Open Font License, Version 1.1. This Font Software is distributed on an "AS IS" BASIS, WITHOUT WARRANTIES OR CONDITIONS OF ANY KIND, either express or implied. See the SIL Open Font License for the specific language, permissions and limitations governing your use of this Font Software.
http://scripts.sil.org/OFL
  -->
<path d="M440 319L440 387 801 387 801 319ZM617 93C685 203 811 324 929 395 940 374 956 346 972 328 854 265 727 143 650 18L577 18C520 132 399 264 270 338 285 355 303 382 311 400 438 323 556 199 617 93ZM344 511L344 582 795 582C753 678 691 813 638 915L713 935C777 806 854 637 901 523L845 507 832 511ZM277 13C218 164 121 313 20 409 33 426 54 466 62 483 100 445 137 400 173 351L173 929 245 929 245 241C284 175 319 105 347 35Z"/>
</svg>