<svg xmlns="http://www.w3.org/2000/svg"
    viewBox="0 0 1000 1000">
  <!--
© 2014-2021 Adobe (http://www.adobe.com/).
Noto is a trademark of Google Inc.
This Font Software is licensed under the SIL Open Font License, Version 1.1. This Font Software is distributed on an "AS IS" BASIS, WITHOUT WARRANTIES OR CONDITIONS OF ANY KIND, either express or implied. See the SIL Open Font License for the specific language, permissions and limitations governing your use of this Font Software.
http://scripts.sil.org/OFL
  -->
<path d="M310 479L310 552 603 552 603 929 681 929 681 552 967 552 967 479 681 479 681 233 928 233 928 161 498 161C516 118 531 72 544 27L466 10C429 145 366 279 289 364 308 375 341 399 356 412 396 364 434 302 467 233L603 233 603 479ZM274 13C219 164 129 313 34 409 47 426 69 466 77 483 109 448 141 408 171 365L171 929 243 929 243 249C282 181 316 108 344 35Z"/>
</svg>