<svg xmlns="http://www.w3.org/2000/svg" name="gid2558" data-unicode="任"
    viewBox="0 0 1000 1000">
  <!--
© 2014-2021 Adobe (http://www.adobe.com/).
Noto is a trademark of Google Inc.
This Font Software is licensed under the SIL Open Font License, Version 1.1. This Font Software is distributed on an "AS IS" BASIS, WITHOUT WARRANTIES OR CONDITIONS OF ANY KIND, either express or implied. See the SIL Open Font License for the specific language, permissions and limitations governing your use of this Font Software.
http://scripts.sil.org/OFL
  -->
<path d="M343 849L343 921 944 921 944 849 677 849 677 540 960 540 960 468 677 468 677 189C767 172 852 151 920 128L864 65C741 110 523 149 337 174 345 191 356 219 359 237 437 228 520 217 601 203L601 468 304 468 304 540 601 540 601 849ZM295 40C232 197 130 351 22 449 36 467 60 506 68 524 108 485 148 439 186 388L186 960 260 960 260 277C301 209 338 136 367 63Z"/>
</svg>