<svg xmlns="http://www.w3.org/2000/svg" name="gid2568" data-unicode="伉"
    viewBox="0 0 1000 1000">
  <!--
© 2014-2021 Adobe (http://www.adobe.com/).
Noto is a trademark of Google Inc.
This Font Software is licensed under the SIL Open Font License, Version 1.1. This Font Software is distributed on an "AS IS" BASIS, WITHOUT WARRANTIES OR CONDITIONS OF ANY KIND, either express or implied. See the SIL Open Font License for the specific language, permissions and limitations governing your use of this Font Software.
http://scripts.sil.org/OFL
  -->
<path d="M598 43L598 197 315 197 315 270 960 270 960 197 672 197 672 43ZM447 392L447 556C447 669 426 812 280 912 295 923 323 950 334 966 491 856 520 687 520 557L520 462 734 462 734 829C734 899 740 916 757 931 774 944 799 949 820 949 833 949 866 949 880 949 900 949 923 946 938 937 954 928 964 914 970 890 975 868 979 804 980 752 960 745 935 734 920 720 920 779 919 824 916 844 913 864 909 873 903 877 897 881 887 883 876 883 864 883 847 883 838 883 828 883 822 881 816 878 810 873 808 859 808 832L808 392ZM277 43C218 194 121 343 20 439 33 456 54 496 62 513 100 475 137 430 173 381L173 957 245 957 245 271C284 205 319 135 347 65Z"/>
</svg>