<svg xmlns="http://www.w3.org/2000/svg"
    viewBox="0 0 1000 1000">
  <!--
© 2014-2021 Adobe (http://www.adobe.com/).
Noto is a trademark of Google Inc.
This Font Software is licensed under the SIL Open Font License, Version 1.1. This Font Software is distributed on an "AS IS" BASIS, WITHOUT WARRANTIES OR CONDITIONS OF ANY KIND, either express or implied. See the SIL Open Font License for the specific language, permissions and limitations governing your use of this Font Software.
http://scripts.sil.org/OFL
  -->
<path d="M306 265L306 338 549 338C486 502 379 664 270 749 288 763 313 789 326 808 426 721 521 579 588 422L588 930 662 930 662 398C728 558 824 713 922 802 935 782 961 756 979 743 875 658 770 497 707 338L953 338 953 265 662 265 662 24 588 24 588 265ZM294 16C233 174 130 324 20 420 34 438 57 478 66 496 107 458 146 413 184 364L184 928 258 928 258 256C301 187 338 114 368 39Z"/>
</svg>