<svg xmlns="http://www.w3.org/2000/svg"
    viewBox="0 0 1000 1000">
  <!--
© 2014-2021 Adobe (http://www.adobe.com/).
Noto is a trademark of Google Inc.
This Font Software is licensed under the SIL Open Font License, Version 1.1. This Font Software is distributed on an "AS IS" BASIS, WITHOUT WARRANTIES OR CONDITIONS OF ANY KIND, either express or implied. See the SIL Open Font License for the specific language, permissions and limitations governing your use of this Font Software.
http://scripts.sil.org/OFL
  -->
<path d="M308 819L308 889 967 889 967 819ZM470 419L801 419 801 620 470 620ZM470 152L801 152 801 349 470 349ZM393 81L393 690 882 690 882 81ZM278 14C221 166 126 316 26 412 40 430 63 471 70 489 105 454 139 412 172 367L172 928 246 928 246 253C286 184 322 110 351 36Z"/>
</svg>