<svg xmlns="http://www.w3.org/2000/svg"
    viewBox="0 0 1000 1000">
  <!--
© 2014-2021 Adobe (http://www.adobe.com/).
Noto is a trademark of Google Inc.
This Font Software is licensed under the SIL Open Font License, Version 1.1. This Font Software is distributed on an "AS IS" BASIS, WITHOUT WARRANTIES OR CONDITIONS OF ANY KIND, either express or implied. See the SIL Open Font License for the specific language, permissions and limitations governing your use of this Font Software.
http://scripts.sil.org/OFL
  -->
<path d="M327 837L327 904 753 904 753 837ZM297 709L314 780C414 762 547 736 673 712L669 645C590 660 510 674 438 687L438 429 658 429C692 695 765 891 878 891 942 891 968 854 978 718 960 711 934 695 918 679 914 777 905 818 884 818 823 818 762 659 732 429L959 429 959 360 724 360C718 293 714 222 713 148 787 134 855 118 912 101L854 43C753 78 576 109 417 128L365 111 365 699ZM438 189C503 181 572 172 639 161 641 229 645 296 651 360L438 360ZM264 14C208 166 115 316 16 413 30 430 51 469 58 487 93 451 127 409 160 363L160 928 232 928 232 250C271 181 307 108 335 35Z"/>
</svg>