<svg xmlns="http://www.w3.org/2000/svg" name="gid2625" data-unicode="佛"
    viewBox="0 0 1000 1000">
  <!--
© 2014-2021 Adobe (http://www.adobe.com/).
Noto is a trademark of Google Inc.
This Font Software is licensed under the SIL Open Font License, Version 1.1. This Font Software is distributed on an "AS IS" BASIS, WITHOUT WARRANTIES OR CONDITIONS OF ANY KIND, either express or implied. See the SIL Open Font License for the specific language, permissions and limitations governing your use of this Font Software.
http://scripts.sil.org/OFL
  -->
<path d="M484 51L484 188 313 188 313 254 484 254 484 386 331 386C318 475 294 594 276 668L343 672 352 633 476 633C460 744 411 843 275 913 290 925 313 949 323 963 476 883 529 768 545 633L667 633 667 959 734 959 734 633 877 633C873 738 869 779 859 790 853 797 845 799 833 799 821 799 792 799 760 795 769 812 775 839 777 859 813 861 848 861 866 859 889 856 903 850 916 835 933 813 940 751 945 596 946 586 946 568 946 568L734 568 734 451 916 451 916 188 734 188 734 51 667 51 667 188 552 188 552 51ZM387 451L484 451 484 505 482 568 365 568ZM667 451L667 568 551 568 552 505 552 451ZM667 254L667 386 552 386 552 254ZM734 254L848 254 848 386 734 386ZM264 44C208 196 115 346 16 443 30 460 51 499 58 517 93 481 127 439 160 393L160 958 232 958 232 280C271 211 307 138 335 65Z"/>
</svg>