<svg xmlns="http://www.w3.org/2000/svg" name="gid2630" data-unicode="你"
    viewBox="0 0 1000 1000">
  <!--
© 2014-2021 Adobe (http://www.adobe.com/).
Noto is a trademark of Google Inc.
This Font Software is licensed under the SIL Open Font License, Version 1.1. This Font Software is distributed on an "AS IS" BASIS, WITHOUT WARRANTIES OR CONDITIONS OF ANY KIND, either express or implied. See the SIL Open Font License for the specific language, permissions and limitations governing your use of this Font Software.
http://scripts.sil.org/OFL
  -->
<path d="M449 468C421 588 373 707 311 784 329 794 361 814 375 825 436 742 490 615 522 483ZM758 483C813 589 863 730 879 822L951 797C934 705 883 567 826 461ZM466 44C432 191 375 335 300 428 318 439 348 464 361 476 397 429 430 369 459 303L612 303 612 869C612 882 607 885 595 885 581 886 538 887 490 885 501 906 513 939 517 961 579 961 623 958 650 946 677 933 686 911 686 869L686 303 875 303C867 354 858 407 851 444L915 456C928 402 946 315 959 242L908 230 895 233 487 233C508 178 526 120 540 61ZM264 44C208 196 115 346 16 443 30 460 51 499 58 517 93 481 127 439 160 393L160 958 232 958 232 280C271 211 307 138 335 65Z"/>
</svg>