<svg xmlns="http://www.w3.org/2000/svg"
    viewBox="0 0 1000 1000">
  <!--
© 2014-2021 Adobe (http://www.adobe.com/).
Noto is a trademark of Google Inc.
This Font Software is licensed under the SIL Open Font License, Version 1.1. This Font Software is distributed on an "AS IS" BASIS, WITHOUT WARRANTIES OR CONDITIONS OF ANY KIND, either express or implied. See the SIL Open Font License for the specific language, permissions and limitations governing your use of this Font Software.
http://scripts.sil.org/OFL
  -->
<path d="M562 333L696 333 696 601 562 601ZM504 273L504 661 756 661 756 273ZM347 69L347 929 417 929 417 866 847 866 847 922 920 922 920 69ZM417 791L417 140 847 140 847 791ZM264 14C208 166 115 316 16 413 30 430 51 469 58 487 93 451 127 409 160 363L160 928 232 928 232 250C271 181 307 108 335 35Z"/>
</svg>