<svg xmlns="http://www.w3.org/2000/svg"
    viewBox="0 0 1000 1000">
  <!--
© 2014-2021 Adobe (http://www.adobe.com/).
Noto is a trademark of Google Inc.
This Font Software is licensed under the SIL Open Font License, Version 1.1. This Font Software is distributed on an "AS IS" BASIS, WITHOUT WARRANTIES OR CONDITIONS OF ANY KIND, either express or implied. See the SIL Open Font License for the specific language, permissions and limitations governing your use of this Font Software.
http://scripts.sil.org/OFL
  -->
<path d="M820 518C755 561 644 608 538 645L538 552C593 509 646 462 695 412L960 412 960 344 758 344C826 264 887 177 939 82L868 56C813 161 743 258 661 344L586 344 586 208 766 208 766 140 586 140 586 10 512 10 512 140 332 140 332 208 512 208 512 344 282 344 282 412 592 412C489 506 371 585 242 644 259 658 287 687 298 703 355 674 411 641 464 605L464 804C464 890 493 913 601 913 624 913 787 913 810 913 904 913 928 878 938 742 917 738 886 726 869 713 864 825 856 842 806 842 770 842 633 842 607 842 548 842 538 836 538 804L538 709C657 672 787 624 877 573ZM257 14C206 165 122 315 31 413 45 430 67 469 74 487 104 454 132 416 160 374L160 928 232 928 232 253C269 183 302 109 328 35Z"/>
</svg>