<svg xmlns="http://www.w3.org/2000/svg"
    viewBox="0 0 1000 1000">
  <!--
© 2014-2021 Adobe (http://www.adobe.com/).
Noto is a trademark of Google Inc.
This Font Software is licensed under the SIL Open Font License, Version 1.1. This Font Software is distributed on an "AS IS" BASIS, WITHOUT WARRANTIES OR CONDITIONS OF ANY KIND, either express or implied. See the SIL Open Font License for the specific language, permissions and limitations governing your use of this Font Software.
http://scripts.sil.org/OFL
  -->
<path d="M402 41C438 91 477 159 492 202L559 171C543 128 503 63 465 15ZM807 9C786 59 747 132 715 177L776 201C809 158 850 92 885 33ZM301 623L301 694 600 694 600 930 675 930 675 694 965 694 965 623 675 623 675 478 922 478 922 409 675 409 675 274 948 274 948 204 336 204 336 274 600 274 600 409 361 409 361 478 600 478 600 623ZM277 13C218 164 121 313 20 409 33 426 54 466 62 483 100 445 137 400 173 351L173 927 245 927 245 241C284 175 319 105 347 35Z"/>
</svg>