<svg xmlns="http://www.w3.org/2000/svg"
    viewBox="0 0 1000 1000">
  <!--
© 2014-2021 Adobe (http://www.adobe.com/).
Noto is a trademark of Google Inc.
This Font Software is licensed under the SIL Open Font License, Version 1.1. This Font Software is distributed on an "AS IS" BASIS, WITHOUT WARRANTIES OR CONDITIONS OF ANY KIND, either express or implied. See the SIL Open Font License for the specific language, permissions and limitations governing your use of this Font Software.
http://scripts.sil.org/OFL
  -->
<path d="M599 14L599 121 321 121 321 190 599 190 599 288 350 288 350 565 594 565C587 620 572 672 540 719 487 682 444 637 413 585L350 606C387 670 436 724 495 769 449 811 381 846 284 871 300 887 321 916 330 933 434 902 506 860 557 811 658 872 784 912 927 932 937 910 956 881 972 864 828 848 702 813 601 758 641 699 659 634 667 565L929 565 929 288 672 288 672 190 962 190 962 121 672 121 672 14ZM420 351L599 351 599 456 598 501 420 501ZM672 351L857 351 857 501 671 501 672 456ZM278 8C219 160 122 308 21 404 34 422 55 461 63 478 101 440 138 396 173 347L173 934 245 934 245 238C284 171 320 101 348 30Z"/>
</svg>