<svg xmlns="http://www.w3.org/2000/svg"
    viewBox="0 0 1000 1000">
  <!--
© 2014-2021 Adobe (http://www.adobe.com/).
Noto is a trademark of Google Inc.
This Font Software is licensed under the SIL Open Font License, Version 1.1. This Font Software is distributed on an "AS IS" BASIS, WITHOUT WARRANTIES OR CONDITIONS OF ANY KIND, either express or implied. See the SIL Open Font License for the specific language, permissions and limitations governing your use of this Font Software.
http://scripts.sil.org/OFL
  -->
<path d="M324 144L324 336 396 336 396 211 875 211 875 334 949 334 949 144 670 144 670 10 596 10 596 144ZM307 420L307 489 470 489C437 574 403 656 376 716L447 737 466 693C513 711 562 732 609 755 535 812 434 847 303 869 315 885 331 917 336 935 483 905 595 861 677 790 763 835 840 885 890 930L935 867C886 824 812 778 730 735 780 672 815 592 836 489L963 489 963 420 573 420 630 262 557 250C540 302 518 360 496 420ZM548 489L757 489C740 578 710 648 663 703 606 676 548 652 492 632ZM264 14C208 166 115 316 16 413 30 430 51 469 58 487 93 451 127 409 160 363L160 928 232 928 232 250C271 181 307 108 335 35Z"/>
</svg>