<svg xmlns="http://www.w3.org/2000/svg" name="gid2685" data-unicode="侯"
    viewBox="0 0 1000 1000">
  <!--
© 2014-2021 Adobe (http://www.adobe.com/).
Noto is a trademark of Google Inc.
This Font Software is licensed under the SIL Open Font License, Version 1.1. This Font Software is distributed on an "AS IS" BASIS, WITHOUT WARRANTIES OR CONDITIONS OF ANY KIND, either express or implied. See the SIL Open Font License for the specific language, permissions and limitations governing your use of this Font Software.
http://scripts.sil.org/OFL
  -->
<path d="M292 630L292 697 573 697C549 771 480 850 288 905 304 919 326 946 336 961 510 905 592 830 630 754 692 859 790 930 925 964 935 945 956 916 973 901 830 873 727 801 673 697L957 697 957 630 660 630 661 607 661 502 900 502 900 437 472 437C485 410 496 381 506 353L464 343 956 343 956 276 826 276 826 87 401 87 401 152 750 152 750 276 301 276 301 343 433 343C404 432 357 519 300 576 318 585 349 603 363 614 389 583 416 545 439 502L586 502 586 606 585 630ZM264 44C208 196 115 346 16 443 30 460 51 499 58 517 93 481 127 439 160 393L160 958 232 958 232 280C271 211 307 138 335 65Z"/>
</svg>