<svg xmlns="http://www.w3.org/2000/svg"
    viewBox="0 0 1000 1000">
  <!--
© 2014-2021 Adobe (http://www.adobe.com/).
Noto is a trademark of Google Inc.
This Font Software is licensed under the SIL Open Font License, Version 1.1. This Font Software is distributed on an "AS IS" BASIS, WITHOUT WARRANTIES OR CONDITIONS OF ANY KIND, either express or implied. See the SIL Open Font License for the specific language, permissions and limitations governing your use of this Font Software.
http://scripts.sil.org/OFL
  -->
<path d="M292 600L292 667 573 667C549 741 480 820 288 875 304 889 326 916 336 931 510 875 592 800 630 724 692 829 790 900 925 934 935 915 956 886 973 871 830 843 727 771 673 667L957 667 957 600 660 600 661 577 661 472 900 472 900 407 472 407C485 380 496 351 506 323L464 313 956 313 956 246 826 246 826 57 401 57 401 122 750 122 750 246 301 246 301 313 433 313C404 402 357 489 300 546 318 555 349 573 363 584 389 553 416 515 439 472L586 472 586 576 585 600ZM264 14C208 166 115 316 16 413 30 430 51 469 58 487 93 451 127 409 160 363L160 928 232 928 232 250C271 181 307 108 335 35Z"/>
</svg>