<svg xmlns="http://www.w3.org/2000/svg"
    viewBox="0 0 1000 1000">
  <!--
© 2014-2021 Adobe (http://www.adobe.com/).
Noto is a trademark of Google Inc.
This Font Software is licensed under the SIL Open Font License, Version 1.1. This Font Software is distributed on an "AS IS" BASIS, WITHOUT WARRANTIES OR CONDITIONS OF ANY KIND, either express or implied. See the SIL Open Font License for the specific language, permissions and limitations governing your use of this Font Software.
http://scripts.sil.org/OFL
  -->
<path d="M475 233L475 298 898 298 898 233ZM907 509C871 545 813 590 763 625 745 577 731 524 721 468L957 468 957 403 424 403 425 350 425 131 940 131 940 65 355 65 355 350C355 510 346 730 243 886 259 894 290 916 302 928 387 800 414 621 422 468L497 468 497 827 401 843 422 909C516 890 641 866 761 842L755 780 565 815 565 468 656 468C693 690 770 855 930 932 940 912 962 885 978 871 892 834 830 768 787 681 841 647 905 601 955 558ZM233 15C185 170 105 324 18 424 31 443 50 482 57 500 90 461 122 416 152 366L152 930 224 930 224 231C254 168 281 101 302 34Z"/>
</svg>