<svg xmlns="http://www.w3.org/2000/svg"
    viewBox="0 0 1000 1000">
  <!--
© 2014-2021 Adobe (http://www.adobe.com/).
Noto is a trademark of Google Inc.
This Font Software is licensed under the SIL Open Font License, Version 1.1. This Font Software is distributed on an "AS IS" BASIS, WITHOUT WARRANTIES OR CONDITIONS OF ANY KIND, either express or implied. See the SIL Open Font License for the specific language, permissions and limitations governing your use of this Font Software.
http://scripts.sil.org/OFL
  -->
<path d="M626 587L626 662 375 662 375 726 626 726 626 848C626 860 622 864 608 865 592 865 541 866 482 864 494 883 505 911 509 931 582 931 631 930 660 919 691 908 700 889 700 849L700 726 949 726 949 662 700 662 700 627C759 590 826 536 871 485L827 451 813 455 639 455C668 429 696 402 723 374L959 374 959 308 782 308C841 238 893 162 938 80L870 54C821 146 761 232 690 308L619 308 619 191 784 191 784 126 619 126 619 10 547 10 547 126 366 126 366 191 547 191 547 308 299 308 299 374 625 374C594 402 562 430 529 455L430 455 430 518 439 518C382 555 322 587 259 615 274 629 300 660 310 675 399 631 484 579 563 518L749 518C722 543 691 568 661 587ZM264 14C208 166 115 316 16 413 30 430 51 469 58 487 93 451 127 409 160 363L160 928 232 928 232 250C271 181 307 108 335 35Z"/>
</svg>