<svg xmlns="http://www.w3.org/2000/svg"
    viewBox="0 0 1000 1000">
  <!--
© 2014-2021 Adobe (http://www.adobe.com/).
Noto is a trademark of Google Inc.
This Font Software is licensed under the SIL Open Font License, Version 1.1. This Font Software is distributed on an "AS IS" BASIS, WITHOUT WARRANTIES OR CONDITIONS OF ANY KIND, either express or implied. See the SIL Open Font License for the specific language, permissions and limitations governing your use of this Font Software.
http://scripts.sil.org/OFL
  -->
<path d="M355 219L355 599 594 599C585 651 566 701 526 745 469 713 424 673 392 625L327 648C364 705 412 753 471 791 424 823 358 851 268 871 283 886 304 915 313 933 412 905 484 870 537 828 643 880 774 910 925 924 934 903 953 872 970 854 823 845 693 820 590 777 635 723 657 662 667 599L912 599 912 219 675 219 675 135 947 135 947 67 328 67 328 135 601 135 601 219ZM425 437L601 437 601 486 600 541 425 541ZM675 437L839 437 839 541 674 541 675 487ZM425 278L601 278 601 380 425 380ZM675 278L839 278 839 380 675 380ZM257 14C208 165 125 315 35 413 50 430 72 469 79 487 107 455 134 419 160 379L160 928 232 928 232 257C269 186 302 110 328 34Z"/>
</svg>