<svg xmlns="http://www.w3.org/2000/svg"
    viewBox="0 0 1000 1000">
  <!--
© 2014-2021 Adobe (http://www.adobe.com/).
Noto is a trademark of Google Inc.
This Font Software is licensed under the SIL Open Font License, Version 1.1. This Font Software is distributed on an "AS IS" BASIS, WITHOUT WARRANTIES OR CONDITIONS OF ANY KIND, either express or implied. See the SIL Open Font License for the specific language, permissions and limitations governing your use of this Font Software.
http://scripts.sil.org/OFL
  -->
<path d="M267 754L307 821C381 773 475 709 561 648L538 586C439 649 335 716 267 754ZM316 353C365 409 417 485 439 536L499 501C476 451 421 377 372 324ZM866 312C834 371 776 452 733 501L787 532C831 485 887 411 932 347ZM718 60C770 91 834 139 864 174L908 128C877 94 812 49 759 19ZM578 11L578 188 298 188 298 257 578 257 578 836C578 853 571 859 554 859 537 860 481 860 420 858 431 879 443 912 448 932 531 932 580 930 610 917 639 905 652 883 652 835L652 504C711 657 797 781 918 851 930 831 954 803 971 789 808 707 703 520 652 303L652 257 959 257 959 188 652 188 652 11ZM264 14C208 166 115 316 16 413 30 430 51 469 58 487 93 451 127 409 160 363L160 928 232 928 232 250C271 181 307 108 335 35Z"/>
</svg>