<svg xmlns="http://www.w3.org/2000/svg" name="gid2704" data-unicode="俉"
    viewBox="0 0 1000 1000">
  <!--
© 2014-2021 Adobe (http://www.adobe.com/).
Noto is a trademark of Google Inc.
This Font Software is licensed under the SIL Open Font License, Version 1.1. This Font Software is distributed on an "AS IS" BASIS, WITHOUT WARRANTIES OR CONDITIONS OF ANY KIND, either express or implied. See the SIL Open Font License for the specific language, permissions and limitations governing your use of this Font Software.
http://scripts.sil.org/OFL
  -->
<path d="M376 257L376 323 511 323C499 375 488 424 477 466L310 466 310 533 962 533 962 466 840 466 840 257 601 257 622 149 915 149 915 83 354 83 354 149 546 149 525 257ZM766 466L554 466C564 425 575 375 587 323L766 323ZM386 614L386 960 459 960 459 921 808 921 808 957 884 957 884 614ZM459 855L459 680 808 680 808 855ZM277 43C218 194 121 343 20 439 33 456 54 496 62 513 100 475 137 430 173 381L173 959 245 959 245 271C284 205 319 135 347 65Z"/>
</svg>