<svg xmlns="http://www.w3.org/2000/svg"
    viewBox="0 0 1000 1000">
  <!--
© 2014-2021 Adobe (http://www.adobe.com/).
Noto is a trademark of Google Inc.
This Font Software is licensed under the SIL Open Font License, Version 1.1. This Font Software is distributed on an "AS IS" BASIS, WITHOUT WARRANTIES OR CONDITIONS OF ANY KIND, either express or implied. See the SIL Open Font License for the specific language, permissions and limitations governing your use of this Font Software.
http://scripts.sil.org/OFL
  -->
<path d="M458 73C424 158 368 244 307 300 325 309 355 329 369 341 429 280 491 185 530 92ZM742 97C807 163 875 254 902 316L968 281C939 219 869 131 802 66ZM813 387L813 491 478 491 478 387ZM605 10L605 320 405 320 405 930 478 930 478 728 813 728 813 844C813 858 809 862 795 863 782 863 737 863 688 861 698 880 710 911 714 930 779 930 823 929 852 918 879 905 887 885 887 845L887 320 679 320 679 10ZM478 555L813 555 813 663 478 663ZM264 14C208 166 115 316 16 413 30 430 51 469 58 487 93 451 127 409 160 363L160 928 232 928 232 250C271 181 307 108 335 35Z"/>
</svg>