<svg xmlns="http://www.w3.org/2000/svg"
    viewBox="0 0 1000 1000">
  <!--
© 2014-2021 Adobe (http://www.adobe.com/).
Noto is a trademark of Google Inc.
This Font Software is licensed under the SIL Open Font License, Version 1.1. This Font Software is distributed on an "AS IS" BASIS, WITHOUT WARRANTIES OR CONDITIONS OF ANY KIND, either express or implied. See the SIL Open Font License for the specific language, permissions and limitations governing your use of this Font Software.
http://scripts.sil.org/OFL
  -->
<path d="M402 304L402 370 856 370 856 304ZM317 130L317 318 387 318 387 196 868 196 868 318 941 318 941 130 660 130 660 11 586 11 586 130ZM314 485L314 553 480 553C468 710 433 815 282 874 298 888 319 915 327 933 496 862 538 737 553 553L680 553 680 817C680 893 699 914 774 914 789 914 864 914 881 914 945 914 964 881 972 753 951 748 922 737 906 724 904 831 899 847 873 847 857 847 795 847 784 847 756 847 751 842 751 816L751 553 955 553 955 485ZM264 14C208 166 115 316 16 413 30 430 51 469 58 487 93 451 127 409 160 363L160 928 232 928 232 250C271 181 307 108 335 35Z"/>
</svg>