<svg xmlns="http://www.w3.org/2000/svg" name="gid2734" data-unicode="俲"
    viewBox="0 0 1000 1000">
  <!--
© 2014-2021 Adobe (http://www.adobe.com/).
Noto is a trademark of Google Inc.
This Font Software is licensed under the SIL Open Font License, Version 1.1. This Font Software is distributed on an "AS IS" BASIS, WITHOUT WARRANTIES OR CONDITIONS OF ANY KIND, either express or implied. See the SIL Open Font License for the specific language, permissions and limitations governing your use of this Font Software.
http://scripts.sil.org/OFL
  -->
<path d="M361 279C337 352 299 426 252 477 268 485 294 505 305 515 352 460 396 375 423 293ZM500 299C537 357 573 435 586 485L642 459C631 409 592 333 553 276ZM428 40L428 180 284 180 284 245 645 245 645 180 495 180 495 40ZM724 50C724 128 724 204 722 278L626 278 626 344 720 344C710 586 675 792 550 915 567 925 591 947 602 963 735 825 771 604 782 344L884 344C874 719 863 851 843 879 834 893 826 895 813 895 797 895 765 894 729 891 740 910 747 938 748 957 782 958 818 959 840 956 866 953 884 945 900 921 929 880 938 743 949 313 950 304 950 278 950 278L784 278C786 204 786 128 786 50ZM319 555C358 587 399 626 438 664 394 766 334 852 257 914 272 925 296 951 306 964 380 899 440 815 487 714 522 751 552 785 572 814L613 757C590 726 555 687 515 648 536 594 554 536 568 475L503 463C493 510 480 556 464 599 428 566 391 534 357 506ZM233 45C185 199 105 352 18 451 31 470 50 511 58 528 91 489 122 444 152 395L152 960 222 960 222 265C253 200 280 132 302 64Z"/>
</svg>