<svg xmlns="http://www.w3.org/2000/svg"
    viewBox="0 0 1000 1000">
  <!--
© 2014-2021 Adobe (http://www.adobe.com/).
Noto is a trademark of Google Inc.
This Font Software is licensed under the SIL Open Font License, Version 1.1. This Font Software is distributed on an "AS IS" BASIS, WITHOUT WARRANTIES OR CONDITIONS OF ANY KIND, either express or implied. See the SIL Open Font License for the specific language, permissions and limitations governing your use of this Font Software.
http://scripts.sil.org/OFL
  -->
<path d="M700 744C770 800 856 880 895 932L959 890C917 837 830 760 760 708ZM472 710C432 771 348 842 272 884 288 896 314 918 327 933 408 886 494 809 547 735ZM501 624L398 624 398 451 501 451ZM563 624L563 451 668 451 668 624ZM732 624L732 451 840 451 840 624ZM331 156L331 624 270 624 270 690 966 690 966 624 909 624 909 156 732 156 732 9 668 9 668 156 563 156 563 9 501 9 501 156ZM501 388L398 388 398 221 501 221ZM563 388L563 221 668 221 668 388ZM732 388L732 221 840 221 840 388ZM233 15C185 170 105 324 18 424 31 443 50 482 57 500 90 461 122 416 152 366L152 930 224 930 224 231C254 168 281 101 302 34Z"/>
</svg>