<svg xmlns="http://www.w3.org/2000/svg" name="gid2757" data-unicode="倏"
    viewBox="0 0 1000 1000">
  <!--
© 2014-2021 Adobe (http://www.adobe.com/).
Noto is a trademark of Google Inc.
This Font Software is licensed under the SIL Open Font License, Version 1.1. This Font Software is distributed on an "AS IS" BASIS, WITHOUT WARRANTIES OR CONDITIONS OF ANY KIND, either express or implied. See the SIL Open Font License for the specific language, permissions and limitations governing your use of this Font Software.
http://scripts.sil.org/OFL
  -->
<path d="M308 158L308 793 374 793 374 158ZM589 195L808 195C779 247 739 293 691 332 642 294 604 252 577 209ZM613 40C562 139 474 232 382 291 397 302 425 327 437 339 469 316 501 288 532 257 559 296 594 336 637 373 563 421 478 456 392 477 406 491 423 519 431 537 523 511 614 471 693 416 759 462 839 500 931 525 941 505 961 477 975 462 888 443 812 411 748 372 815 314 870 242 904 154L858 132 845 136 634 136C651 111 667 86 680 60ZM760 532C793 557 834 590 858 615L703 615C710 577 714 537 717 494L645 494C642 537 638 578 631 615L410 615 410 682 614 682C580 784 511 859 358 904 373 918 392 945 400 962 554 914 632 836 673 730 707 816 772 916 925 964 934 944 953 919 970 904 807 858 749 757 724 682L949 682 949 615 878 615 916 584C891 560 844 523 807 497ZM233 45C185 200 105 354 18 454 31 473 50 512 57 530 90 491 122 446 152 396L152 960 224 960 224 261C254 198 281 131 302 64Z"/>
</svg>