<svg xmlns="http://www.w3.org/2000/svg" name="gid2771" data-unicode="倞"
    viewBox="0 0 1000 1000">
  <!--
© 2014-2021 Adobe (http://www.adobe.com/).
Noto is a trademark of Google Inc.
This Font Software is licensed under the SIL Open Font License, Version 1.1. This Font Software is distributed on an "AS IS" BASIS, WITHOUT WARRANTIES OR CONDITIONS OF ANY KIND, either express or implied. See the SIL Open Font License for the specific language, permissions and limitations governing your use of this Font Software.
http://scripts.sil.org/OFL
  -->
<path d="M452 390L799 390 799 546 452 546ZM737 698C799 762 870 854 903 912L967 872C933 815 862 728 798 663ZM432 664C394 740 332 819 272 871 290 882 318 905 331 918 391 859 457 769 502 685ZM380 325L380 611 588 611 588 876C588 887 584 891 570 891 555 892 508 893 454 891 464 911 474 941 477 961 549 961 595 961 626 949 655 938 662 917 662 877L662 611 874 611 874 325ZM588 40L588 171 305 171 305 241 961 241 961 171 662 171 662 40ZM264 44C208 196 115 346 16 443 30 460 51 499 58 517 93 481 127 439 160 393L160 958 232 958 232 280C271 211 307 138 335 65Z"/>
</svg>