<svg xmlns="http://www.w3.org/2000/svg" name="gid2780" data-unicode="倨"
    viewBox="0 0 1000 1000">
  <!--
© 2014-2021 Adobe (http://www.adobe.com/).
Noto is a trademark of Google Inc.
This Font Software is licensed under the SIL Open Font License, Version 1.1. This Font Software is distributed on an "AS IS" BASIS, WITHOUT WARRANTIES OR CONDITIONS OF ANY KIND, either express or implied. See the SIL Open Font License for the specific language, permissions and limitations governing your use of this Font Software.
http://scripts.sil.org/OFL
  -->
<path d="M459 642L459 961 528 961 528 920 840 920 840 957 911 957 911 642 721 642 721 520 948 520 948 452 721 452 721 337 895 337 895 84 368 84 368 385C368 545 358 762 251 916 267 923 299 946 312 958 397 837 427 668 437 520L649 520 649 642ZM441 149L824 149 824 272 441 272ZM441 337L649 337 649 452 440 452 441 385ZM528 858L528 706 840 706 840 858ZM266 42C213 193 124 343 31 441 44 458 66 497 74 515 103 483 132 447 160 407L160 960 233 960 233 290C273 218 309 141 338 63Z"/>
</svg>