<svg xmlns="http://www.w3.org/2000/svg"
    viewBox="0 0 1000 1000">
  <!--
© 2014-2021 Adobe (http://www.adobe.com/).
Noto is a trademark of Google Inc.
This Font Software is licensed under the SIL Open Font License, Version 1.1. This Font Software is distributed on an "AS IS" BASIS, WITHOUT WARRANTIES OR CONDITIONS OF ANY KIND, either express or implied. See the SIL Open Font License for the specific language, permissions and limitations governing your use of this Font Software.
http://scripts.sil.org/OFL
  -->
<path d="M543 465L493 552 292 552 292 617 454 617C423 669 391 718 364 756L432 780 448 756C490 768 533 782 577 797 497 834 396 855 281 867 293 883 310 914 316 931 451 911 568 881 659 827 753 863 840 901 896 933L946 876C891 845 811 811 725 779 774 737 811 684 836 617L964 617 964 552 576 552 617 482 613 481 664 481 664 315C730 388 829 454 919 488 930 471 953 445 969 431 880 403 784 348 722 287L953 287 953 222 664 222 664 125C752 115 835 103 901 87L849 31C733 59 523 79 348 89 355 105 364 131 367 147 438 144 516 139 592 132L592 222 306 222 306 287 539 287C473 352 371 411 280 440 295 454 316 478 326 496 419 461 521 395 592 321L592 476ZM537 617L755 617C733 674 698 718 652 753 594 734 537 717 483 702ZM264 14C208 166 115 316 16 413 30 430 51 469 58 487 93 451 127 409 160 363L160 928 232 928 232 250C271 181 307 108 335 35Z"/>
</svg>