<svg xmlns="http://www.w3.org/2000/svg" name="gid2807" data-unicode="偐"
    viewBox="0 0 1000 1000">
  <!--
© 2014-2021 Adobe (http://www.adobe.com/).
Noto is a trademark of Google Inc.
This Font Software is licensed under the SIL Open Font License, Version 1.1. This Font Software is distributed on an "AS IS" BASIS, WITHOUT WARRANTIES OR CONDITIONS OF ANY KIND, either express or implied. See the SIL Open Font License for the specific language, permissions and limitations governing your use of this Font Software.
http://scripts.sil.org/OFL
  -->
<path d="M818 585C740 652 592 708 460 738 475 751 492 773 501 788 640 753 789 691 876 613ZM877 714C789 813 607 876 407 905 423 920 439 945 448 963 656 927 843 856 942 743ZM418 239C468 254 523 273 578 294 513 319 443 339 376 354 389 366 409 388 420 403L333 403 333 534C333 642 323 797 250 913 266 921 295 947 305 961 386 835 401 655 401 535L401 464 963 464 963 403 829 403 869 357C831 336 780 313 725 290 767 267 807 241 839 213L786 193 947 193 947 132 676 132 676 40 601 40 601 132 338 132 338 193 767 193C736 218 696 241 652 262 586 238 518 215 458 197ZM445 403C514 383 587 356 656 325 720 352 779 379 821 403ZM769 464C695 518 558 565 446 591 461 604 479 625 489 639 607 610 744 557 829 493ZM264 44C208 196 115 346 16 443 30 460 51 499 58 517 93 481 127 439 160 393L160 958 232 958 232 280C271 211 307 138 335 65Z"/>
</svg>