<svg xmlns="http://www.w3.org/2000/svg"
    viewBox="0 0 1000 1000">
  <!--
© 2014-2021 Adobe (http://www.adobe.com/).
Noto is a trademark of Google Inc.
This Font Software is licensed under the SIL Open Font License, Version 1.1. This Font Software is distributed on an "AS IS" BASIS, WITHOUT WARRANTIES OR CONDITIONS OF ANY KIND, either express or implied. See the SIL Open Font License for the specific language, permissions and limitations governing your use of this Font Software.
http://scripts.sil.org/OFL
  -->
<path d="M435 76C402 152 348 228 290 279 307 289 338 310 351 321 408 265 468 179 505 95ZM745 102C807 164 876 249 904 307L969 273C937 215 867 131 804 72ZM439 433L439 448C385 472 328 492 271 509 285 523 306 555 314 571 356 557 398 541 439 523L439 930 512 930 512 893 825 893 825 925 900 925 900 433 610 433C700 377 780 309 838 230L773 205C743 245 707 281 665 315 667 306 668 296 668 283L668 10 595 10 595 282C595 292 592 295 580 296 568 296 531 297 488 295 499 313 512 339 516 358 558 358 589 357 614 352 570 382 522 409 472 433ZM512 624L825 624 825 701 512 701ZM512 570L512 493 825 493 825 570ZM512 754L825 754 825 835 512 835ZM264 14C208 166 115 316 16 413 30 430 51 469 58 487 93 451 127 409 160 363L160 928 232 928 232 250C271 181 307 108 335 35Z"/>
</svg>