<svg xmlns="http://www.w3.org/2000/svg" name="gid2825" data-unicode="偬"
    viewBox="0 0 1000 1000">
  <!--
© 2014-2021 Adobe (http://www.adobe.com/).
Noto is a trademark of Google Inc.
This Font Software is licensed under the SIL Open Font License, Version 1.1. This Font Software is distributed on an "AS IS" BASIS, WITHOUT WARRANTIES OR CONDITIONS OF ANY KIND, either express or implied. See the SIL Open Font License for the specific language, permissions and limitations governing your use of this Font Software.
http://scripts.sil.org/OFL
  -->
<path d="M464 672L464 862C464 931 483 951 567 951 584 951 683 951 701 951 768 951 787 922 794 803 775 798 748 789 733 777 730 875 724 890 693 890 672 890 592 890 575 890 540 890 534 886 534 861L534 672ZM352 682C336 757 304 844 256 896L315 933C367 875 396 781 414 701ZM483 608C550 646 627 704 665 745L714 697C676 656 597 601 531 566ZM760 696C825 766 888 863 909 930L974 897C951 829 887 735 820 666ZM457 39C415 147 342 249 259 315 275 326 303 348 315 360 362 319 408 265 448 204L547 204C533 239 516 272 496 304L434 285 399 334 462 355C420 412 370 462 315 500 330 510 356 531 367 542 424 499 477 443 523 377 554 389 585 401 614 414 582 462 545 504 503 538 518 547 546 567 558 578 600 540 638 494 672 441 696 453 718 465 736 476L773 420C754 409 731 397 705 385 734 330 758 269 777 204L860 204C848 406 834 483 814 503 807 512 799 514 785 514 770 514 736 514 698 510 708 528 714 556 716 576 756 578 794 578 816 576 841 574 858 567 873 548 901 517 916 424 931 174 932 164 933 143 933 143L484 143C499 115 512 86 524 57ZM557 325C580 287 600 246 617 204L709 204C693 259 672 311 647 359 618 347 588 336 557 325ZM233 45C185 200 105 354 18 454 31 473 50 512 57 530 90 491 122 446 152 396L152 960 224 960 224 261C254 198 281 131 302 64Z"/>
</svg>