<svg xmlns="http://www.w3.org/2000/svg" name="gid2850" data-unicode="傓"
    viewBox="0 0 1000 1000">
  <!--
© 2014-2021 Adobe (http://www.adobe.com/).
Noto is a trademark of Google Inc.
This Font Software is licensed under the SIL Open Font License, Version 1.1. This Font Software is distributed on an "AS IS" BASIS, WITHOUT WARRANTIES OR CONDITIONS OF ANY KIND, either express or implied. See the SIL Open Font License for the specific language, permissions and limitations governing your use of this Font Software.
http://scripts.sil.org/OFL
  -->
<path d="M567 687C529 746 465 800 400 839 412 848 434 868 443 878 498 842 557 790 600 733L600 894C600 904 596 907 585 907 574 908 539 908 499 907 507 922 515 946 518 961 575 961 610 961 633 951 655 942 661 926 661 894L661 502 434 502 434 560 600 560 600 696ZM848 672C811 733 746 788 678 826 691 835 713 855 721 865 777 831 835 781 877 726L877 893C877 904 873 907 861 907 849 908 809 908 765 907 773 922 781 946 784 961 847 961 884 961 908 951 930 942 938 925 938 893L938 502 699 502 699 560 800 560C769 605 718 647 667 677 678 686 700 704 709 713 762 679 819 626 853 573L808 560 877 560 877 681ZM415 271L861 271 861 374 415 374ZM534 562C504 608 452 652 399 684 412 602 415 521 415 453L415 432 931 432 931 212 415 212 415 160C586 153 784 136 915 109L867 54C759 77 571 96 407 104L347 90 347 453C347 595 338 777 245 909 262 918 288 942 297 956 353 878 383 782 399 686 412 694 431 711 440 719 493 685 551 630 587 576ZM233 45C185 200 105 354 18 454 31 473 50 512 57 530 90 491 122 446 152 396L152 960 224 960 224 261C254 198 281 131 302 64Z"/>
</svg>