<svg xmlns="http://www.w3.org/2000/svg" name="gid2865" data-unicode="傪"
    viewBox="0 0 1000 1000">
  <!--
© 2014-2021 Adobe (http://www.adobe.com/).
Noto is a trademark of Google Inc.
This Font Software is licensed under the SIL Open Font License, Version 1.1. This Font Software is distributed on an "AS IS" BASIS, WITHOUT WARRANTIES OR CONDITIONS OF ANY KIND, either express or implied. See the SIL Open Font License for the specific language, permissions and limitations governing your use of this Font Software.
http://scripts.sil.org/OFL
  -->
<path d="M616 501C562 559 462 614 372 644 386 654 402 672 413 684 508 649 609 591 670 523ZM719 590C646 669 503 735 364 768 379 782 395 802 404 817 550 777 695 707 778 615ZM826 684C734 803 543 876 314 908 328 923 342 947 350 965 590 925 787 847 891 712ZM698 119C719 134 740 152 761 170L515 182C543 142 573 95 598 53L519 39C500 81 468 139 437 185L311 190 315 256C446 248 635 237 819 225 838 245 855 264 867 280L926 241C891 194 816 129 754 84ZM604 370C678 482 813 582 938 633 946 615 959 588 971 574 903 551 833 511 769 459L895 443 910 474 958 448C943 412 908 358 876 319L830 342C843 358 855 376 867 395L764 402C782 365 801 321 818 281L758 262C747 302 725 359 706 400 679 372 654 341 633 308L570 308C555 336 536 363 514 390 504 369 492 348 480 330L434 347C443 361 451 377 459 393L376 402C395 365 414 321 432 282L374 264C362 305 338 364 319 407L263 412 271 471 465 443C403 504 325 556 244 588 255 604 268 628 274 644 413 585 541 475 604 370ZM233 45C185 200 105 354 18 454 31 473 50 512 57 530 90 491 122 446 152 396L152 960 224 960 224 261C254 198 281 131 302 64Z"/>
</svg>