<svg xmlns="http://www.w3.org/2000/svg" name="gid2872" data-unicode="傳"
    viewBox="0 0 1000 1000">
  <!--
© 2014-2021 Adobe (http://www.adobe.com/).
Noto is a trademark of Google Inc.
This Font Software is licensed under the SIL Open Font License, Version 1.1. This Font Software is distributed on an "AS IS" BASIS, WITHOUT WARRANTIES OR CONDITIONS OF ANY KIND, either express or implied. See the SIL Open Font License for the specific language, permissions and limitations governing your use of this Font Software.
http://scripts.sil.org/OFL
  -->
<path d="M428 388L595 388 595 451 428 451ZM667 388L838 388 838 451 667 451ZM428 279L595 279 595 342 428 342ZM667 279L838 279 838 342 667 342ZM318 117L318 175 595 175 595 232 359 232 359 499 595 499 595 560 310 564 317 624 747 613 747 678 291 678 291 738 747 738 747 879C747 892 743 896 727 897 710 898 659 898 598 896 608 915 618 942 621 961 698 961 749 961 780 950 810 940 819 921 819 881L819 738 961 738 961 678 819 678 819 611 873 609C889 625 902 639 912 652L967 618C939 584 886 536 835 499L910 499 910 232 667 232 667 175 950 175 950 117 667 117 667 48 595 48 595 117ZM757 508C776 522 796 539 816 556L667 559 667 499 773 499ZM398 773C444 814 498 872 523 910L582 869C555 832 499 776 453 738ZM264 44C208 196 115 346 16 443 30 460 51 499 58 517 93 481 127 439 160 393L160 958 232 958 232 280C271 211 307 138 335 65Z"/>
</svg>