<svg xmlns="http://www.w3.org/2000/svg" name="gid2884" data-unicode="僄"
    viewBox="0 0 1000 1000">
  <!--
© 2014-2021 Adobe (http://www.adobe.com/).
Noto is a trademark of Google Inc.
This Font Software is licensed under the SIL Open Font License, Version 1.1. This Font Software is distributed on an "AS IS" BASIS, WITHOUT WARRANTIES OR CONDITIONS OF ANY KIND, either express or implied. See the SIL Open Font License for the specific language, permissions and limitations governing your use of this Font Software.
http://scripts.sil.org/OFL
  -->
<path d="M382 522L382 580 895 580 895 522ZM768 779C816 826 873 894 900 936L956 895C928 853 870 790 821 744ZM429 743C400 792 344 852 292 889 307 901 328 920 339 935 394 894 452 834 488 775ZM344 221L344 464 930 464 930 221 749 221 749 151 948 151 948 88 331 88 331 151 516 151 516 221ZM577 151L688 151 688 221 577 221ZM311 650L311 713 601 713 601 883C601 894 597 898 583 898 569 899 525 899 473 897 483 916 493 941 496 960 564 960 607 959 635 949 663 938 671 919 671 884L671 713 961 713 961 650ZM409 279L522 279 522 406 409 406ZM577 279L688 279 688 406 577 406ZM743 279L863 279 863 406 743 406ZM264 44C208 196 115 346 16 443 30 460 51 499 58 517 93 481 127 439 160 393L160 958 232 958 232 280C271 211 307 138 335 65Z"/>
</svg>