<svg xmlns="http://www.w3.org/2000/svg" name="gid2897" data-unicode="僕"
    viewBox="0 0 1000 1000">
  <!--
© 2014-2021 Adobe (http://www.adobe.com/).
Noto is a trademark of Google Inc.
This Font Software is licensed under the SIL Open Font License, Version 1.1. This Font Software is distributed on an "AS IS" BASIS, WITHOUT WARRANTIES OR CONDITIONS OF ANY KIND, either express or implied. See the SIL Open Font License for the specific language, permissions and limitations governing your use of this Font Software.
http://scripts.sil.org/OFL
  -->
<path d="M352 89C378 130 405 185 415 219L474 197C464 163 436 109 409 70ZM850 65C835 105 807 164 784 201L836 221C860 188 890 134 917 88ZM296 678L296 741 565 741C533 804 458 864 290 906 304 921 326 947 335 964 504 915 589 847 630 774 692 869 792 934 924 964 934 943 955 914 972 898 844 876 744 822 687 741L963 741 963 678 661 678C664 660 665 642 665 624L665 600 896 600 896 541 665 541 665 469 927 469 927 411 773 411C792 381 813 341 833 301L814 296 955 296 955 233 735 233 735 48 671 48 671 233 585 233 585 48 522 48 522 233 303 233 303 296 453 296 428 303C447 336 465 379 473 411L331 411 331 469 590 469 590 541 359 541 359 600 590 600 590 624C590 642 589 660 586 678ZM499 296L755 296C743 330 724 374 707 404L732 411 517 411 544 403C538 374 519 331 499 296ZM264 44C208 196 115 346 16 443 30 460 51 499 58 517 93 481 127 439 160 393L160 958 232 958 232 280C271 211 307 138 335 65Z"/>
</svg>