<svg xmlns="http://www.w3.org/2000/svg" name="gid2925" data-unicode="價"
    viewBox="0 0 1000 1000">
  <!--
© 2014-2021 Adobe (http://www.adobe.com/).
Noto is a trademark of Google Inc.
This Font Software is licensed under the SIL Open Font License, Version 1.1. This Font Software is distributed on an "AS IS" BASIS, WITHOUT WARRANTIES OR CONDITIONS OF ANY KIND, either express or implied. See the SIL Open Font License for the specific language, permissions and limitations governing your use of this Font Software.
http://scripts.sil.org/OFL
  -->
<path d="M424 602L835 602 835 660 424 660ZM424 707L835 707 835 765 424 765ZM424 499L835 499 835 555 424 555ZM354 451L354 813 908 813 908 451ZM679 863C765 893 853 932 905 963L969 919C911 888 814 850 728 821ZM514 819C462 854 365 890 278 911 292 923 310 946 319 961 408 939 507 901 568 858ZM333 207L333 403 920 403 920 207 741 207 741 148 951 148 951 90 309 90 309 148 506 148 506 207ZM567 148L678 148 678 207 567 207ZM399 257L506 257 506 353 399 353ZM567 257L678 257 678 353 567 353ZM741 257L851 257 851 353 741 353ZM233 45C185 200 105 354 18 454 31 473 50 512 57 530 90 491 122 446 152 396L152 960 224 960 224 261C254 198 281 131 302 64Z"/>
</svg>