<svg xmlns="http://www.w3.org/2000/svg"
    viewBox="0 0 1000 1000">
  <!--
© 2014-2021 Adobe (http://www.adobe.com/).
Noto is a trademark of Google Inc.
This Font Software is licensed under the SIL Open Font License, Version 1.1. This Font Software is distributed on an "AS IS" BASIS, WITHOUT WARRANTIES OR CONDITIONS OF ANY KIND, either express or implied. See the SIL Open Font License for the specific language, permissions and limitations governing your use of this Font Software.
http://scripts.sil.org/OFL
  -->
<path d="M767 451C809 480 860 522 884 551L931 513C906 484 854 444 811 417ZM756 8C742 38 715 82 694 111L544 111C531 82 501 40 475 11L415 33C434 56 453 86 467 111L315 111 315 164 578 164 578 224 349 224 349 277 578 277 578 342 285 342 285 398 958 398 958 342 651 342 651 277 891 277 891 224 651 224 651 164 926 164 926 111 769 111C788 88 809 60 829 31ZM854 636C833 670 805 703 773 732 761 700 752 663 745 621L964 621 964 566 736 566C731 521 728 473 727 421L660 421C661 472 665 521 670 566L507 566 507 487C548 480 586 471 618 462L575 417C507 438 384 455 282 465 288 478 295 498 298 512 343 509 392 504 440 497L440 566 276 566 276 621 440 621 440 700C376 708 318 715 271 720L280 779 440 757 440 856C440 867 437 870 425 870 413 871 376 871 335 869 344 886 353 911 356 927 413 927 451 927 476 917 500 908 507 891 507 857L507 747 634 730 633 675 507 691 507 621 678 621C688 680 702 732 719 777 672 812 619 842 565 866 579 878 601 903 610 916 656 893 702 865 746 832 782 894 828 930 886 930 942 929 964 902 974 808 958 803 937 792 923 778 919 844 911 865 890 865 855 865 824 839 797 790 843 750 883 705 914 656ZM254 13C200 162 113 309 19 404 32 421 53 459 60 475 92 441 123 401 153 358L153 929 224 929 224 243C261 176 294 105 321 34Z"/>
</svg>