<svg xmlns="http://www.w3.org/2000/svg" name="gid2930" data-unicode="儁"
    viewBox="0 0 1000 1000">
  <!--
© 2014-2021 Adobe (http://www.adobe.com/).
Noto is a trademark of Google Inc.
This Font Software is licensed under the SIL Open Font License, Version 1.1. This Font Software is distributed on an "AS IS" BASIS, WITHOUT WARRANTIES OR CONDITIONS OF ANY KIND, either express or implied. See the SIL Open Font License for the specific language, permissions and limitations governing your use of this Font Software.
http://scripts.sil.org/OFL
  -->
<path d="M667 42C658 74 640 117 623 152L465 152C482 121 497 89 510 57L441 39C402 141 336 240 263 306 279 317 306 342 317 354 335 336 353 316 371 294L371 567 953 567 953 511 687 511 687 440 895 440 895 390 687 390 687 324 895 324 895 274 687 274 687 209 934 209 934 152 696 152 743 62ZM618 324L618 390 441 390 441 324ZM618 274L441 274 441 209 618 209ZM618 440L618 511 441 511 441 440ZM338 618L338 960 407 960 407 678 519 678 519 825 756 825 756 678 871 678 871 882C871 895 867 899 850 900 835 901 782 901 719 899 729 917 738 942 742 960 820 960 871 961 901 951 931 940 940 921 940 883L940 618 692 618 692 767 581 767 581 618ZM264 44C208 196 115 346 16 443 30 460 51 499 58 517 93 481 127 439 160 393L160 958 232 958 232 280C271 211 307 138 335 65Z"/>
</svg>