<svg xmlns="http://www.w3.org/2000/svg" name="gid2936" data-unicode="儈"
    viewBox="0 0 1000 1000">
  <!--
© 2014-2021 Adobe (http://www.adobe.com/).
Noto is a trademark of Google Inc.
This Font Software is licensed under the SIL Open Font License, Version 1.1. This Font Software is distributed on an "AS IS" BASIS, WITHOUT WARRANTIES OR CONDITIONS OF ANY KIND, either express or implied. See the SIL Open Font License for the specific language, permissions and limitations governing your use of this Font Software.
http://scripts.sil.org/OFL
  -->
<path d="M348 338L348 589 895 589 895 338ZM455 426C475 455 493 494 500 519L544 500C536 475 516 437 497 409ZM738 407C726 435 702 478 684 504L723 521C741 496 763 461 783 426ZM473 243L473 284 757 284 757 237C813 279 875 317 932 345 942 326 959 299 973 282 856 234 729 142 646 44L578 44C516 132 393 231 268 288 282 303 298 330 306 347 364 319 422 282 473 243ZM615 108C650 148 696 191 748 230L490 230C540 190 584 147 615 108ZM459 808L786 808 786 876 459 876ZM459 758L459 692 786 692 786 758ZM390 641L390 958 459 958 459 929 786 929 786 955 857 955 857 641ZM412 392L588 392 588 535 412 535ZM646 392L831 392 831 535 646 535ZM264 44C208 196 115 346 16 443 30 460 51 499 58 517 93 481 127 439 160 393L160 958 232 958 232 280C271 211 307 138 335 65Z"/>
</svg>