<svg xmlns="http://www.w3.org/2000/svg" name="gid2946" data-unicode="儖"
    viewBox="0 0 1000 1000">
  <!--
© 2014-2021 Adobe (http://www.adobe.com/).
Noto is a trademark of Google Inc.
This Font Software is licensed under the SIL Open Font License, Version 1.1. This Font Software is distributed on an "AS IS" BASIS, WITHOUT WARRANTIES OR CONDITIONS OF ANY KIND, either express or implied. See the SIL Open Font License for the specific language, permissions and limitations governing your use of this Font Software.
http://scripts.sil.org/OFL
  -->
<path d="M683 446L683 512 947 512 947 446ZM447 216L358 216 358 145 447 145ZM297 88L297 541 639 541 639 484 505 484 505 409 617 409 617 216 505 216 505 145 631 145 631 88ZM447 409L447 484 358 484 358 409ZM358 270L559 270 559 355 358 355ZM722 55C702 161 666 268 619 340 636 347 667 365 680 375 700 344 718 305 734 263L959 263 959 197 758 197C771 156 783 112 792 69ZM264 867L264 932 961 932 961 867 895 867 895 613 345 613 345 867ZM410 867L410 673 508 673 508 867ZM568 867L568 673 667 673 667 867ZM728 867L728 673 828 673 828 867ZM221 45C177 200 105 352 21 452 33 470 53 511 59 528 89 491 119 448 146 400L146 958 213 958 213 268C242 202 268 133 289 63Z"/>
</svg>