<svg xmlns="http://www.w3.org/2000/svg" name="gid2954" data-unicode="儞"
    viewBox="0 0 1000 1000">
  <!--
© 2014-2021 Adobe (http://www.adobe.com/).
Noto is a trademark of Google Inc.
This Font Software is licensed under the SIL Open Font License, Version 1.1. This Font Software is distributed on an "AS IS" BASIS, WITHOUT WARRANTIES OR CONDITIONS OF ANY KIND, either express or implied. See the SIL Open Font License for the specific language, permissions and limitations governing your use of this Font Software.
http://scripts.sil.org/OFL
  -->
<path d="M657 698C677 710 698 725 717 741 695 773 671 803 643 827L643 385 838 385 838 879C838 890 835 894 823 894 811 895 774 895 732 894 741 912 750 940 753 958 810 958 849 957 873 946 897 935 904 915 904 879L904 352 920 370 975 330C933 280 844 216 769 174L717 209C771 240 830 283 874 323L649 323 649 167 958 167 958 97 307 97 307 167 579 167 579 323 390 323C434 284 476 239 507 193L443 173C400 235 329 294 261 334 277 345 301 370 312 383L336 366 336 962 399 962 399 385 586 385 586 958 643 958 643 833C655 839 671 850 679 856 703 832 727 803 749 770 766 787 781 804 790 820L820 789C810 771 792 752 772 733 787 706 800 678 810 649L766 640C758 662 749 683 738 704 721 691 703 679 686 669ZM413 486C431 496 450 509 467 522 448 552 426 578 403 601 414 607 433 618 441 624 461 603 481 578 499 550 517 566 531 582 541 596L572 564C560 548 543 530 522 512 537 486 550 459 561 432L518 422C510 444 500 466 488 487 473 476 457 466 442 458ZM417 696C436 708 455 722 473 737 452 773 427 805 400 831 411 836 430 849 438 856 462 831 485 801 506 767 521 782 533 798 542 812L573 780C563 764 547 746 527 728 542 701 554 672 564 643L520 633C513 656 503 678 493 699 478 688 462 677 446 667ZM656 483C676 495 696 509 715 524 695 555 672 583 648 606 659 611 678 623 686 629 707 608 727 581 747 552 764 569 778 585 788 600L820 570C809 553 791 533 770 515 784 490 797 463 808 437L765 426C757 447 747 468 736 488 720 476 703 465 687 456ZM233 45C185 200 105 354 18 454 31 473 50 512 57 530 90 491 122 446 152 396L152 960 224 960 224 261C254 198 281 131 302 64Z"/>
</svg>