<svg xmlns="http://www.w3.org/2000/svg" name="gid2974" data-unicode="儼"
    viewBox="0 0 1000 1000">
  <!--
© 2014-2021 Adobe (http://www.adobe.com/).
Noto is a trademark of Google Inc.
This Font Software is licensed under the SIL Open Font License, Version 1.1. This Font Software is distributed on an "AS IS" BASIS, WITHOUT WARRANTIES OR CONDITIONS OF ANY KIND, either express or implied. See the SIL Open Font License for the specific language, permissions and limitations governing your use of this Font Software.
http://scripts.sil.org/OFL
  -->
<path d="M394 134L533 134 533 214 394 214ZM331 84L331 264 598 264 598 84ZM716 134L859 134 859 214 716 214ZM654 84L654 264 924 264 924 84ZM353 846L366 903 585 878 585 960 644 960 644 565 687 565 687 516 559 516 559 457 673 457 673 409 394 409 394 457 499 457 499 516 365 516 365 499 365 366 963 366 963 308 300 308 300 499C300 618 292 787 230 911 245 918 273 938 285 951 343 838 360 687 364 565L409 565 409 842ZM467 667L585 667 585 725 467 725ZM467 622L467 565 585 565 585 622ZM467 770L585 770 585 828 467 838ZM768 531L868 531C857 603 840 667 815 723 790 667 772 608 761 553ZM744 369C728 475 700 581 657 652 670 663 690 689 698 700 709 681 720 661 730 638 743 685 761 735 784 783 751 838 707 884 651 920 664 930 686 951 694 963 743 929 783 888 816 839 848 887 886 930 934 962 943 946 962 922 975 910 922 879 881 835 849 785 887 714 912 630 927 531L958 531 958 475 782 475C790 444 796 412 802 380ZM217 45C174 193 103 337 21 432 32 450 52 491 58 508 89 471 119 428 147 380L147 958 214 958 214 251C242 191 266 127 285 64Z"/>
</svg>