<svg xmlns="http://www.w3.org/2000/svg" name="gid2990" data-unicode="兎"
    viewBox="0 0 1000 1000">
  <!--
© 2014-2021 Adobe (http://www.adobe.com/).
Noto is a trademark of Google Inc.
This Font Software is licensed under the SIL Open Font License, Version 1.1. This Font Software is distributed on an "AS IS" BASIS, WITHOUT WARRANTIES OR CONDITIONS OF ANY KIND, either express or implied. See the SIL Open Font License for the specific language, permissions and limitations governing your use of this Font Software.
http://scripts.sil.org/OFL
  -->
<path d="M661 665C715 704 776 763 803 805L854 758C826 717 763 660 709 622ZM149 290L149 609 418 609C371 747 271 841 50 896 67 912 88 941 96 961 344 894 451 779 499 609L522 609 522 840C522 921 549 942 652 942 674 942 819 942 843 942 927 942 949 913 960 794 938 790 907 778 891 766 887 860 879 874 837 874 804 874 683 874 658 874 607 874 597 869 597 839L597 609 860 609 860 290 536 290 539 173C670 159 793 140 890 117L835 57C663 100 343 130 76 143 84 159 92 188 94 207 211 201 337 193 460 181L458 290ZM222 358L456 358C453 425 447 485 436 540L222 540ZM533 358L783 358 783 540 514 540C524 484 530 424 533 358Z"/>
</svg>