<svg xmlns="http://www.w3.org/2000/svg" name="gid2996" data-unicode="兕"
    viewBox="0 0 1000 1000">
  <!--
© 2014-2021 Adobe (http://www.adobe.com/).
Noto is a trademark of Google Inc.
This Font Software is licensed under the SIL Open Font License, Version 1.1. This Font Software is distributed on an "AS IS" BASIS, WITHOUT WARRANTIES OR CONDITIONS OF ANY KIND, either express or implied. See the SIL Open Font License for the specific language, permissions and limitations governing your use of this Font Software.
http://scripts.sil.org/OFL
  -->
<path d="M562 79L562 283 424 283 424 79 142 79 142 610 211 610 211 569 330 569C312 736 267 846 41 900 56 916 77 945 84 965 332 899 387 768 408 569L562 569 562 838C562 922 587 945 681 945 702 945 822 945 842 945 929 945 951 905 960 750 940 745 908 732 891 720 887 854 880 874 837 874 809 874 709 874 688 874 645 874 637 868 637 838L637 569 785 569 785 600 857 600 857 79ZM211 500L211 148 352 148 352 380 424 380 424 352 562 352 562 386 633 386 633 148 785 148 785 500Z"/>
</svg>