<svg xmlns="http://www.w3.org/2000/svg"
    viewBox="0 0 1000 1000">
  <!--
© 2014-2021 Adobe (http://www.adobe.com/).
Noto is a trademark of Google Inc.
This Font Software is licensed under the SIL Open Font License, Version 1.1. This Font Software is distributed on an "AS IS" BASIS, WITHOUT WARRANTIES OR CONDITIONS OF ANY KIND, either express or implied. See the SIL Open Font License for the specific language, permissions and limitations governing your use of this Font Software.
http://scripts.sil.org/OFL
  -->
<path d="M413 365L583 365 583 498 413 498ZM413 177L583 177 583 309 413 309ZM577 587L577 809C577 888 600 912 694 912 713 912 826 912 846 912 928 912 950 875 959 726 938 722 905 709 888 696 885 823 879 840 839 840 814 840 721 840 701 840 660 840 653 836 653 808L653 587ZM321 588C305 736 258 824 38 869 53 884 74 915 81 935 322 879 381 768 402 588ZM464 8C458 40 445 82 431 118L348 118 348 558 650 558 650 118 504 118 548 22ZM46 451L68 514 205 471 205 588 274 588 274 37 205 37 205 174 66 174 66 237 205 237 205 409C145 426 90 441 46 451ZM906 136C876 164 831 200 786 231L786 34 718 34 718 476C718 551 734 571 800 571 813 571 869 571 883 571 940 571 957 536 963 416 944 411 916 400 902 388 899 489 896 507 876 507 864 507 819 507 810 507 790 507 786 503 786 476L786 294C842 261 903 222 953 186Z"/>
</svg>