<svg xmlns="http://www.w3.org/2000/svg" name="gid3019" data-unicode="其"
    viewBox="0 0 1000 1000">
  <!--
© 2014-2021 Adobe (http://www.adobe.com/).
Noto is a trademark of Google Inc.
This Font Software is licensed under the SIL Open Font License, Version 1.1. This Font Software is distributed on an "AS IS" BASIS, WITHOUT WARRANTIES OR CONDITIONS OF ANY KIND, either express or implied. See the SIL Open Font License for the specific language, permissions and limitations governing your use of this Font Software.
http://scripts.sil.org/OFL
  -->
<path d="M573 815C691 859 810 913 880 956L949 906C871 865 743 809 625 768ZM361 762C291 811 153 869 45 901 61 916 83 942 94 958 202 923 339 865 428 809ZM686 41L686 157 313 157 313 41 239 41 239 157 83 157 83 227 239 227 239 675 54 675 54 745 946 745 946 675 761 675 761 227 922 227 922 157 761 157 761 41ZM313 675L313 565 686 565 686 675ZM313 227L686 227 686 327 313 327ZM313 392L686 392 686 501 313 501Z"/>
</svg>