<svg xmlns="http://www.w3.org/2000/svg" name="gid3020" data-unicode="具"
    viewBox="0 0 1000 1000">
  <!--
© 2014-2021 Adobe (http://www.adobe.com/).
Noto is a trademark of Google Inc.
This Font Software is licensed under the SIL Open Font License, Version 1.1. This Font Software is distributed on an "AS IS" BASIS, WITHOUT WARRANTIES OR CONDITIONS OF ANY KIND, either express or implied. See the SIL Open Font License for the specific language, permissions and limitations governing your use of this Font Software.
http://scripts.sil.org/OFL
  -->
<path d="M274 293L733 293 733 388 274 388ZM274 445L733 445 733 542 274 542ZM274 142L733 142 733 236 274 236ZM201 82L201 601 810 601 810 82ZM57 670L57 740 945 740 945 670ZM584 822C697 864 814 919 883 960L955 908C878 867 753 813 638 772ZM351 767C284 814 154 870 51 901 68 917 92 944 103 959 205 926 335 870 420 816Z"/>
</svg>