<svg xmlns="http://www.w3.org/2000/svg"
    viewBox="0 0 1000 1000">
  <!--
© 2014-2021 Adobe (http://www.adobe.com/).
Noto is a trademark of Google Inc.
This Font Software is licensed under the SIL Open Font License, Version 1.1. This Font Software is distributed on an "AS IS" BASIS, WITHOUT WARRANTIES OR CONDITIONS OF ANY KIND, either express or implied. See the SIL Open Font License for the specific language, permissions and limitations governing your use of this Font Software.
http://scripts.sil.org/OFL
  -->
<path d="M723 8C699 50 657 108 621 148L345 148 384 129C362 94 314 43 273 7L207 39C242 71 281 114 303 148L72 148 72 212 353 212 353 301 141 301 141 361 353 361 353 447 56 447 56 511 353 511 353 607 133 607 133 667 312 667C243 746 136 818 39 855 55 869 77 895 88 913 180 872 280 800 353 719L353 930 425 930 425 667 564 667 564 930 637 930 637 710C714 792 820 867 914 908 925 889 947 862 964 848 865 812 754 742 678 667L846 667 846 511 946 511 946 447 846 447 846 301 637 301 637 212 929 212 929 148 711 148C741 114 773 74 802 35ZM425 212L564 212 564 301 425 301ZM425 511L564 511 564 607 425 607ZM425 447L425 361 564 361 564 447ZM637 511L773 511 773 607 637 607ZM637 447L637 361 773 361 773 447Z"/>
</svg>