<svg xmlns="http://www.w3.org/2000/svg"
    viewBox="0 0 1000 1000">
  <!--
© 2014-2021 Adobe (http://www.adobe.com/).
Noto is a trademark of Google Inc.
This Font Software is licensed under the SIL Open Font License, Version 1.1. This Font Software is distributed on an "AS IS" BASIS, WITHOUT WARRANTIES OR CONDITIONS OF ANY KIND, either express or implied. See the SIL Open Font License for the specific language, permissions and limitations governing your use of this Font Software.
http://scripts.sil.org/OFL
  -->
<path d="M311 304L311 715 382 715 382 647 688 647 688 304ZM382 372L616 372 616 579 382 579ZM103 76L103 930 177 930 177 149 823 149 823 832C823 850 816 855 798 856 782 857 722 858 659 855 670 875 682 909 687 929 771 930 823 929 855 916 886 903 897 880 897 834L897 76Z"/>
</svg>