<svg xmlns="http://www.w3.org/2000/svg"
    viewBox="0 0 1000 1000">
  <!--
© 2014-2021 Adobe (http://www.adobe.com/).
Noto is a trademark of Google Inc.
This Font Software is licensed under the SIL Open Font License, Version 1.1. This Font Software is distributed on an "AS IS" BASIS, WITHOUT WARRANTIES OR CONDITIONS OF ANY KIND, either express or implied. See the SIL Open Font License for the specific language, permissions and limitations governing your use of this Font Software.
http://scripts.sil.org/OFL
  -->
<path d="M239 180L239 236 768 236 768 180ZM92 55L92 270 163 270 163 117 839 117 839 269 913 269 913 55ZM299 351L704 351 704 447 299 447ZM227 296L227 501 779 501 779 296ZM463 756L463 841 215 841 215 756ZM536 756L792 756 792 841 536 841ZM463 703L215 703 215 622 463 622ZM536 703L536 622 792 622 792 703ZM142 565L142 930 215 930 215 897 792 897 792 928 868 928 868 565Z"/>
</svg>