<svg xmlns="http://www.w3.org/2000/svg"
    viewBox="0 0 1000 1000">
  <!--
© 2014-2021 Adobe (http://www.adobe.com/).
Noto is a trademark of Google Inc.
This Font Software is licensed under the SIL Open Font License, Version 1.1. This Font Software is distributed on an "AS IS" BASIS, WITHOUT WARRANTIES OR CONDITIONS OF ANY KIND, either express or implied. See the SIL Open Font License for the specific language, permissions and limitations governing your use of this Font Software.
http://scripts.sil.org/OFL
  -->
<path d="M55 120C119 165 196 233 232 278L288 219C251 174 171 111 108 68ZM38 774L102 824C165 732 243 608 302 502L247 452C183 567 97 698 38 774ZM359 57L359 127 460 127 460 409 335 409 335 482 675 482C581 620 427 751 280 815 297 829 320 857 332 876 487 798 649 652 749 491L749 831C749 849 743 854 725 854 707 855 647 855 581 853 592 876 603 909 606 930 693 930 748 928 780 915 811 903 823 880 823 831L823 482 960 482 960 409 823 409 823 127 930 127 930 57ZM749 409L532 409 532 127 749 127Z"/>
</svg>