<svg xmlns="http://www.w3.org/2000/svg"
    viewBox="0 0 1000 1000">
  <!--
© 2014-2021 Adobe (http://www.adobe.com/).
Noto is a trademark of Google Inc.
This Font Software is licensed under the SIL Open Font License, Version 1.1. This Font Software is distributed on an "AS IS" BASIS, WITHOUT WARRANTIES OR CONDITIONS OF ANY KIND, either express or implied. See the SIL Open Font License for the specific language, permissions and limitations governing your use of this Font Software.
http://scripts.sil.org/OFL
  -->
<path d="M49 123C105 167 172 230 203 272L256 218C223 176 154 117 98 75ZM38 807L103 845C146 756 199 634 237 531L179 492C137 602 79 730 38 807ZM521 51C480 75 414 100 353 121L353 10 285 10 285 236C285 305 304 323 381 323 396 323 488 323 504 323 563 323 582 300 589 211 571 207 543 197 529 187 526 253 521 262 497 262 478 262 403 262 389 262 357 262 353 258 353 235L353 177C423 158 503 132 562 103ZM253 590L253 654 384 654C371 732 332 820 223 884 238 896 260 917 269 931 354 877 401 813 427 748 461 781 495 819 512 846L557 795C534 763 488 717 447 681L451 654 579 654 579 590 457 590 457 566 457 473 563 473 563 410 365 410C373 387 380 363 386 339L321 325C305 398 278 470 238 521 254 529 282 547 293 557 310 534 326 505 341 473L391 473 391 565 391 590ZM620 200C696 241 787 303 830 346L875 293C858 277 834 258 807 240 859 191 913 127 951 68L905 35 891 39 595 39 595 101 844 101C818 137 785 174 752 204 722 186 691 168 663 154ZM612 493C608 659 592 804 516 884 530 894 550 915 559 929 600 885 626 825 642 755 694 886 775 915 871 915L950 915C953 897 962 865 971 849 950 849 889 850 875 850 849 850 824 848 800 840L800 644 947 644 947 582 800 582 800 418 889 418C882 451 875 483 868 507L920 521C935 479 949 416 960 361L918 350 908 353 582 353 582 418 736 418 736 803C704 774 677 726 659 650 665 601 668 548 669 493Z"/>
</svg>