<svg xmlns="http://www.w3.org/2000/svg"
    viewBox="0 0 1000 1000">
  <!--
© 2014-2021 Adobe (http://www.adobe.com/).
Noto is a trademark of Google Inc.
This Font Software is licensed under the SIL Open Font License, Version 1.1. This Font Software is distributed on an "AS IS" BASIS, WITHOUT WARRANTIES OR CONDITIONS OF ANY KIND, either express or implied. See the SIL Open Font License for the specific language, permissions and limitations governing your use of this Font Software.
http://scripts.sil.org/OFL
  -->
<path d="M451 9C439 60 418 133 398 186L241 186 241 446C241 587 220 757 44 876 60 887 87 915 98 931 286 803 316 602 316 447L316 259 652 259 652 792C652 887 676 911 753 911 770 911 854 911 871 911 949 911 967 860 975 701 954 696 923 682 905 667 901 808 896 839 865 839 847 839 778 839 764 839 734 839 728 833 728 793L728 186 470 186C492 140 514 81 536 29Z"/>
</svg>