<svg xmlns="http://www.w3.org/2000/svg" name="gid3110" data-unicode="凮"
    viewBox="0 0 1000 1000">
  <!--
© 2014-2021 Adobe (http://www.adobe.com/).
Noto is a trademark of Google Inc.
This Font Software is licensed under the SIL Open Font License, Version 1.1. This Font Software is distributed on an "AS IS" BASIS, WITHOUT WARRANTIES OR CONDITIONS OF ANY KIND, either express or implied. See the SIL Open Font License for the specific language, permissions and limitations governing your use of this Font Software.
http://scripts.sil.org/OFL
  -->
<path d="M151 92L151 406C151 562 140 770 32 917 49 925 79 948 91 962 206 807 222 572 222 406L222 162 769 162C772 640 770 960 902 960 957 960 971 914 979 770 966 759 945 736 932 717 931 808 925 881 910 881 842 881 839 535 843 92ZM295 431L295 897 362 897 362 857 626 857 626 897 696 897 696 431 497 431 529 324 740 324 740 260 255 260 255 324 457 324C451 359 442 398 433 431ZM362 670L626 670 626 797 362 797ZM362 612L362 492 626 492 626 612Z"/>
</svg>