<svg xmlns="http://www.w3.org/2000/svg" name="gid3130" data-unicode="分"
    viewBox="0 0 1000 1000">
  <!--
© 2014-2021 Adobe (http://www.adobe.com/).
Noto is a trademark of Google Inc.
This Font Software is licensed under the SIL Open Font License, Version 1.1. This Font Software is distributed on an "AS IS" BASIS, WITHOUT WARRANTIES OR CONDITIONS OF ANY KIND, either express or implied. See the SIL Open Font License for the specific language, permissions and limitations governing your use of this Font Software.
http://scripts.sil.org/OFL
  -->
<path d="M324 60C262 215 151 353 23 438 41 452 74 481 88 497 213 402 331 252 404 83ZM673 58L601 87C676 236 803 398 914 488 928 467 956 438 977 422 867 345 738 193 673 58ZM187 418L187 491 392 491C370 661 314 821 76 899 93 915 115 945 125 965 382 872 446 690 473 491L732 491C720 745 705 845 679 871 669 881 657 884 637 884 613 884 552 883 486 877 500 898 509 930 511 952 574 956 636 957 670 954 704 951 727 944 747 918 782 880 796 765 811 454 812 444 812 418 812 418Z"/>
</svg>