<svg xmlns="http://www.w3.org/2000/svg"
    viewBox="0 0 1000 1000">
  <!--
© 2014-2021 Adobe (http://www.adobe.com/).
Noto is a trademark of Google Inc.
This Font Software is licensed under the SIL Open Font License, Version 1.1. This Font Software is distributed on an "AS IS" BASIS, WITHOUT WARRANTIES OR CONDITIONS OF ANY KIND, either express or implied. See the SIL Open Font License for the specific language, permissions and limitations governing your use of this Font Software.
http://scripts.sil.org/OFL
  -->
<path d="M414 102L414 173 584 173C579 435 561 728 340 875 360 888 385 912 398 931 629 767 652 458 660 173L863 173C853 628 840 794 809 830 799 843 789 847 770 847 748 847 695 847 635 841 649 864 658 897 659 919 713 922 768 923 802 919 836 915 858 905 879 874 917 824 928 655 939 144 940 133 940 102 940 102ZM397 382C380 412 347 457 321 489L284 453C337 380 382 300 414 219L372 190 358 194 274 194 274 10 200 10 200 194 54 194 54 262 321 262C255 400 137 538 26 615 39 628 60 663 68 681 112 648 157 605 200 557L200 930 274 930 274 522C315 569 365 630 387 662L433 605 356 525C383 496 415 458 447 422Z"/>
</svg>