<svg xmlns="http://www.w3.org/2000/svg" name="gid3160" data-unicode="制"
    viewBox="0 0 1000 1000">
  <!--
© 2014-2021 Adobe (http://www.adobe.com/).
Noto is a trademark of Google Inc.
This Font Software is licensed under the SIL Open Font License, Version 1.1. This Font Software is distributed on an "AS IS" BASIS, WITHOUT WARRANTIES OR CONDITIONS OF ANY KIND, either express or implied. See the SIL Open Font License for the specific language, permissions and limitations governing your use of this Font Software.
http://scripts.sil.org/OFL
  -->
<path d="M676 132L676 686 747 686 747 132ZM854 50L854 857C854 873 849 878 834 878 815 879 759 879 700 877 710 900 721 935 725 956 800 956 855 954 885 942 916 928 928 906 928 856L928 50ZM142 64C121 161 87 261 41 328 60 335 93 348 108 356 125 327 142 292 158 253L289 253 289 358 45 358 45 427 289 427 289 529 91 529 91 878 159 878 159 597 289 597 289 959 361 959 361 597 500 597 500 802C500 813 497 816 486 816 475 817 442 817 400 815 409 834 418 861 421 881 476 881 515 880 538 869 563 857 569 838 569 804L569 529 361 529 361 427 604 427 604 358 361 358 361 253 565 253 565 184 361 184 361 44 289 44 289 184 183 184C194 150 204 114 212 78Z"/>
</svg>