<svg xmlns="http://www.w3.org/2000/svg"
    viewBox="0 0 1000 1000">
  <!--
© 2014-2021 Adobe (http://www.adobe.com/).
Noto is a trademark of Google Inc.
This Font Software is licensed under the SIL Open Font License, Version 1.1. This Font Software is distributed on an "AS IS" BASIS, WITHOUT WARRANTIES OR CONDITIONS OF ANY KIND, either express or implied. See the SIL Open Font License for the specific language, permissions and limitations governing your use of this Font Software.
http://scripts.sil.org/OFL
  -->
<path d="M51 57L51 125 576 125 576 57ZM620 130L620 685 691 685 691 130ZM844 29L844 831C844 849 837 855 819 856 800 857 741 857 672 855 684 876 695 910 699 930 789 931 842 929 874 916 904 904 917 881 917 831L917 29ZM145 149C125 194 89 261 54 317 99 381 138 450 157 498L218 473C199 432 162 369 124 316 153 270 186 212 209 165ZM306 150C286 194 248 261 212 315 258 377 300 446 320 494L381 468C362 427 322 366 283 314 312 269 346 212 371 166ZM469 149C448 193 408 261 372 316 421 379 466 449 488 497L549 470C528 429 485 367 444 315 474 270 509 213 534 165ZM40 814L50 888C187 874 391 853 583 832L582 761 349 785 349 588 551 588 551 520 75 520 75 588 275 588 275 792Z"/>
</svg>