<svg xmlns="http://www.w3.org/2000/svg" name="gid3170" data-unicode="則"
    viewBox="0 0 1000 1000">
  <!--
© 2014-2021 Adobe (http://www.adobe.com/).
Noto is a trademark of Google Inc.
This Font Software is licensed under the SIL Open Font License, Version 1.1. This Font Software is distributed on an "AS IS" BASIS, WITHOUT WARRANTIES OR CONDITIONS OF ANY KIND, either express or implied. See the SIL Open Font License for the specific language, permissions and limitations governing your use of this Font Software.
http://scripts.sil.org/OFL
  -->
<path d="M595 160L595 715 668 715 668 160ZM840 59L840 860C840 879 833 885 814 886 794 887 732 887 660 885 672 906 684 941 688 961 780 961 837 959 870 947 901 934 915 912 915 860L915 59ZM167 740C138 806 88 871 35 916 53 926 84 949 98 962 151 913 208 836 241 760ZM340 769C384 822 431 897 451 946L520 912C498 864 450 793 405 741ZM167 331L411 331 411 456 167 456ZM167 518L411 518 411 643 167 643ZM167 146L411 146 411 270 167 270ZM96 79L96 711 486 711 486 79Z"/>
</svg>