<svg xmlns="http://www.w3.org/2000/svg" name="gid3174" data-unicode="剌"
    viewBox="0 0 1000 1000">
  <!--
© 2014-2021 Adobe (http://www.adobe.com/).
Noto is a trademark of Google Inc.
This Font Software is licensed under the SIL Open Font License, Version 1.1. This Font Software is distributed on an "AS IS" BASIS, WITHOUT WARRANTIES OR CONDITIONS OF ANY KIND, either express or implied. See the SIL Open Font License for the specific language, permissions and limitations governing your use of this Font Software.
http://scripts.sil.org/OFL
  -->
<path d="M657 146L657 700 728 700 728 146ZM844 58L844 861C844 879 838 884 820 885 803 885 745 886 682 884 693 905 704 939 708 959 793 959 844 957 875 944 905 932 917 910 917 861L917 58ZM80 311L80 580 263 580C206 674 112 774 30 828 42 845 60 876 67 896 141 844 220 755 281 662L281 957 350 957 350 659C406 713 481 788 514 827L559 762C527 733 403 620 352 580L555 580 555 311 350 311 350 220 577 220 577 152 350 152 350 49 281 49 281 152 51 152 51 220 281 220 281 311ZM146 374L281 374 281 518 146 518ZM350 374L486 374 486 518 350 518Z"/>
</svg>