<svg xmlns="http://www.w3.org/2000/svg"
    viewBox="0 0 1000 1000">
  <!--
© 2014-2021 Adobe (http://www.adobe.com/).
Noto is a trademark of Google Inc.
This Font Software is licensed under the SIL Open Font License, Version 1.1. This Font Software is distributed on an "AS IS" BASIS, WITHOUT WARRANTIES OR CONDITIONS OF ANY KIND, either express or implied. See the SIL Open Font License for the specific language, permissions and limitations governing your use of this Font Software.
http://scripts.sil.org/OFL
  -->
<path d="M656 112L656 682 727 682 727 112ZM844 24L844 837C844 853 839 858 823 858 808 859 760 860 705 858 715 879 726 911 729 931 805 931 850 929 877 916 906 904 917 883 917 837L917 24ZM28 622L58 688 208 625C192 729 151 814 43 879 61 891 87 915 100 931 264 826 287 673 287 481L287 20 216 20 216 152 59 152 59 222 216 222 216 362 66 362 66 432 216 432 216 480C216 507 216 533 214 558 144 583 77 607 28 622ZM376 20L376 928 448 928 448 649 620 649 620 578 448 578 448 432 604 432 604 362 448 362 448 222 613 222 613 152 448 152 448 20Z"/>
</svg>