<svg xmlns="http://www.w3.org/2000/svg" name="gid3186" data-unicode="剞"
    viewBox="0 0 1000 1000">
  <!--
© 2014-2021 Adobe (http://www.adobe.com/).
Noto is a trademark of Google Inc.
This Font Software is licensed under the SIL Open Font License, Version 1.1. This Font Software is distributed on an "AS IS" BASIS, WITHOUT WARRANTIES OR CONDITIONS OF ANY KIND, either express or implied. See the SIL Open Font License for the specific language, permissions and limitations governing your use of this Font Software.
http://scripts.sil.org/OFL
  -->
<path d="M660 130L660 693 730 693 730 130ZM846 59L846 860C846 877 841 881 825 882 807 883 751 883 692 881 703 904 713 938 717 959 791 959 847 957 877 945 907 932 919 909 919 860L919 59ZM47 416L47 482 449 482 449 874C449 887 445 891 430 892 414 893 362 893 304 890 315 910 327 939 331 958 402 958 451 957 481 947 511 935 520 914 520 875L520 482 596 482 596 416ZM289 46C287 80 283 112 278 140L64 140 64 205 259 205C227 281 165 330 38 360 53 373 71 398 77 415 194 385 262 340 302 274 379 317 469 373 515 410L557 354C505 314 408 257 330 217L333 205 579 205 579 140 349 140C354 111 357 80 360 46ZM163 612L298 612 298 733 163 733ZM102 552L102 846 163 846 163 793 361 793 361 552Z"/>
</svg>