<svg xmlns="http://www.w3.org/2000/svg" name="gid3190" data-unicode="剣"
    viewBox="0 0 1000 1000">
  <!--
© 2014-2021 Adobe (http://www.adobe.com/).
Noto is a trademark of Google Inc.
This Font Software is licensed under the SIL Open Font License, Version 1.1. This Font Software is distributed on an "AS IS" BASIS, WITHOUT WARRANTIES OR CONDITIONS OF ANY KIND, either express or implied. See the SIL Open Font License for the specific language, permissions and limitations governing your use of this Font Software.
http://scripts.sil.org/OFL
  -->
<path d="M632 149L632 712 704 712 704 149ZM844 59L844 862C844 880 838 885 820 886 803 887 745 887 682 885 693 906 704 940 708 960 793 961 844 959 875 946 905 934 917 911 917 862L917 59ZM292 46C243 134 150 244 24 324 39 335 61 360 71 377 107 353 139 327 169 301L169 344 294 344 294 424 110 424 110 663 281 663C258 753 196 840 43 906 56 918 80 947 88 962 216 906 286 831 324 751 386 802 476 883 516 924L565 861C530 832 402 727 347 687L353 663 549 663 549 424 364 424 364 344 493 344 493 281 191 281C253 223 301 164 337 112 412 170 499 256 545 308L596 249C543 194 442 106 363 46ZM175 484L294 484 294 545C294 564 293 583 291 602L175 602ZM362 602C363 583 364 565 364 547L364 484 482 484 482 602Z"/>
</svg>