<svg xmlns="http://www.w3.org/2000/svg"
    viewBox="0 0 1000 1000">
  <!--
© 2014-2021 Adobe (http://www.adobe.com/).
Noto is a trademark of Google Inc.
This Font Software is licensed under the SIL Open Font License, Version 1.1. This Font Software is distributed on an "AS IS" BASIS, WITHOUT WARRANTIES OR CONDITIONS OF ANY KIND, either express or implied. See the SIL Open Font License for the specific language, permissions and limitations governing your use of this Font Software.
http://scripts.sil.org/OFL
  -->
<path d="M845 150C840 385 833 547 825 655 774 615 729 567 691 512 702 437 705 365 705 298L705 150ZM573 251L514 266C540 359 574 443 618 517 596 642 545 774 431 889 451 901 477 920 490 935 591 832 645 715 674 599 715 652 763 698 817 736 810 797 801 830 790 844 780 860 771 863 755 863 736 863 695 862 648 859 660 878 667 909 669 929 712 931 756 932 785 928 815 925 834 916 853 886 866 868 876 835 884 776 901 785 919 793 938 801 949 782 969 756 985 742 952 730 921 716 892 699 902 582 908 401 915 121 915 111 916 81 916 81L514 81 514 150 635 150 635 298C635 333 634 370 631 409 608 359 588 307 573 251ZM249 12C206 96 128 202 18 280 34 290 56 314 67 331 93 311 117 291 139 270L139 302 257 302 257 383 89 383 89 625 249 625C232 718 185 815 52 879 66 891 87 916 96 930 207 871 266 792 295 710 349 753 407 804 437 840L486 785C449 745 375 684 314 640L317 625 496 625 496 383 325 383 325 302 464 302 464 252 473 264 529 209C484 152 395 69 322 12ZM171 238C222 184 263 129 294 80 350 126 412 189 452 238ZM152 441L257 441 257 511 255 566 152 566ZM325 441L430 441 430 566 323 566 325 511Z"/>
</svg>