<svg xmlns="http://www.w3.org/2000/svg"
    viewBox="0 0 1000 1000">
  <!--
© 2014-2021 Adobe (http://www.adobe.com/).
Noto is a trademark of Google Inc.
This Font Software is licensed under the SIL Open Font License, Version 1.1. This Font Software is distributed on an "AS IS" BASIS, WITHOUT WARRANTIES OR CONDITIONS OF ANY KIND, either express or implied. See the SIL Open Font License for the specific language, permissions and limitations governing your use of this Font Software.
http://scripts.sil.org/OFL
  -->
<path d="M42 309L42 373 575 373 575 309ZM147 681C167 725 186 782 191 820L259 800C252 762 233 706 211 664ZM164 496L455 496 455 600 164 600ZM95 438L95 657 527 657 527 438ZM632 106L632 660 703 660 703 106ZM844 29L844 832C844 850 838 855 820 856 803 857 745 857 682 855 693 876 704 910 708 930 793 931 844 929 875 916 905 904 917 881 917 832L917 29ZM76 52L76 246 543 246 543 52 475 52 475 183 344 183 344 11 273 11 273 183 141 183 141 52ZM403 658C394 698 376 757 360 795L411 808C269 822 133 835 38 843L49 915C187 899 393 878 586 856L586 790 425 807C442 773 461 722 480 676Z"/>
</svg>