<svg xmlns="http://www.w3.org/2000/svg"
    viewBox="0 0 1000 1000">
  <!--
© 2014-2021 Adobe (http://www.adobe.com/).
Noto is a trademark of Google Inc.
This Font Software is licensed under the SIL Open Font License, Version 1.1. This Font Software is distributed on an "AS IS" BASIS, WITHOUT WARRANTIES OR CONDITIONS OF ANY KIND, either express or implied. See the SIL Open Font License for the specific language, permissions and limitations governing your use of this Font Software.
http://scripts.sil.org/OFL
  -->
<path d="M663 131L663 696 734 696 734 131ZM845 29L845 833C845 850 839 855 822 856 805 857 751 857 691 855 701 876 712 909 715 929 798 929 847 927 877 914 905 902 917 880 917 833L917 29ZM156 9C133 42 96 91 58 133 106 178 147 227 169 263L226 238C206 209 169 167 132 131 160 99 192 62 218 27ZM330 9C308 42 267 90 229 132 279 177 323 225 346 261L403 235C382 206 343 165 305 130 334 99 366 62 394 27ZM510 9C486 42 443 91 402 133 455 178 503 227 528 263L586 237C562 208 521 166 480 131 511 99 545 62 575 28ZM89 264L89 564 290 564 290 620 55 620 55 682 253 682C194 747 106 811 31 845 47 858 69 882 80 900 149 863 229 799 290 732L290 929 360 929 360 732C424 772 516 835 554 864L597 807C564 785 447 716 384 682L598 682 598 620 360 620 360 564 559 564 559 264ZM156 439L290 439 290 508 156 508ZM360 439L491 439 491 508 360 508ZM156 319L290 319 290 386 156 386ZM360 319L491 319 491 386 360 386Z"/>
</svg>