<svg xmlns="http://www.w3.org/2000/svg" name="gid3211" data-unicode="劂"
    viewBox="0 0 1000 1000">
  <!--
© 2014-2021 Adobe (http://www.adobe.com/).
Noto is a trademark of Google Inc.
This Font Software is licensed under the SIL Open Font License, Version 1.1. This Font Software is distributed on an "AS IS" BASIS, WITHOUT WARRANTIES OR CONDITIONS OF ANY KIND, either express or implied. See the SIL Open Font License for the specific language, permissions and limitations governing your use of this Font Software.
http://scripts.sil.org/OFL
  -->
<path d="M707 151L707 710 768 710 768 151ZM856 57L856 876C856 890 851 894 838 894 826 894 788 895 743 893 752 913 762 942 764 960 826 960 865 958 888 947 912 936 921 916 921 876L921 57ZM373 454L373 654 325 654 326 601 326 394 437 394 437 336 364 336C381 298 401 241 420 190L362 174C353 218 333 282 318 323L361 336 171 336 171 394 275 394 275 601 274 654 230 654 230 454 186 454 186 757 230 757 230 709 269 709C259 790 230 865 158 926 171 934 191 949 200 960 281 890 311 803 321 709L373 709 373 745 417 745 417 541C429 551 445 564 452 572 478 521 496 456 508 384L515 384 515 515C515 640 499 800 361 924 375 934 395 950 406 962 486 888 527 803 548 718 567 806 600 900 658 961 667 944 688 918 700 906 608 822 579 657 568 534L568 516 568 384 627 384C623 447 618 516 612 560L654 568C664 509 673 410 678 331L646 323 637 325 518 325C524 279 528 231 532 182L477 175C469 306 456 433 417 521L417 454ZM89 79L89 460C89 601 83 788 20 921 35 927 61 943 73 953 141 815 149 608 149 460L149 144 678 144 678 79ZM183 191C204 236 222 297 226 336L277 322C272 283 253 223 231 178Z"/>
</svg>