<svg xmlns="http://www.w3.org/2000/svg"
    viewBox="0 0 1000 1000">
  <!--
© 2014-2021 Adobe (http://www.adobe.com/).
Noto is a trademark of Google Inc.
This Font Software is licensed under the SIL Open Font License, Version 1.1. This Font Software is distributed on an "AS IS" BASIS, WITHOUT WARRANTIES OR CONDITIONS OF ANY KIND, either express or implied. See the SIL Open Font License for the specific language, permissions and limitations governing your use of this Font Software.
http://scripts.sil.org/OFL
  -->
<path d="M439 19C374 51 262 81 158 103L112 89 112 452C112 583 104 748 22 868 40 877 68 903 79 920 171 784 184 591 184 453L184 402 333 402 333 919 405 919 405 402 524 402 524 332 184 332 184 163C295 142 417 112 504 76ZM643 20C643 95 643 169 641 241L510 241 510 312 638 312C627 551 586 758 436 882 456 894 482 918 494 936 654 797 698 572 710 312L861 312C852 678 842 811 818 841 809 853 799 856 783 856 763 856 716 855 665 852 678 871 686 903 688 924 736 926 784 927 813 923 844 920 864 912 882 885 915 843 924 703 933 279 933 269 933 241 933 241L713 241C715 169 716 95 716 20Z"/>
</svg>