<svg xmlns="http://www.w3.org/2000/svg" name="gid3237" data-unicode="劦"
    viewBox="0 0 1000 1000">
  <!--
© 2014-2021 Adobe (http://www.adobe.com/).
Noto is a trademark of Google Inc.
This Font Software is licensed under the SIL Open Font License, Version 1.1. This Font Software is distributed on an "AS IS" BASIS, WITHOUT WARRANTIES OR CONDITIONS OF ANY KIND, either express or implied. See the SIL Open Font License for the specific language, permissions and limitations governing your use of this Font Software.
http://scripts.sil.org/OFL
  -->
<path d="M469 40C465 75 460 107 452 138L156 138 156 208 428 208C385 305 297 376 104 415 117 429 135 456 141 474 365 425 463 335 511 208L769 208C754 309 736 356 716 372 706 380 695 382 674 382 652 382 595 381 537 375 550 394 559 424 561 445 618 449 673 449 702 447 735 446 757 440 777 421 810 393 831 325 852 172 854 161 856 138 856 138L532 138C539 107 545 74 549 40ZM213 470C212 505 210 539 207 571L62 571 62 641 198 641C178 759 134 853 27 911 44 924 66 951 75 969 199 897 248 784 270 641L398 641C387 800 373 865 355 883 347 891 338 894 322 893 308 893 272 893 233 889 243 908 251 937 252 958 294 960 335 961 357 959 383 956 400 949 416 931 444 900 459 817 475 603 476 593 477 571 477 571L278 571C281 539 283 505 285 470ZM652 468C651 504 649 538 646 571L506 571 506 641 637 641C617 760 571 850 458 906 474 920 496 946 505 964 635 895 686 786 709 641L847 641C839 802 829 864 814 881 806 890 798 892 782 892 767 892 727 892 684 887 696 907 703 937 705 958 750 960 795 961 819 959 845 956 863 949 879 930 904 900 915 819 925 604 926 593 927 571 927 571L717 571C720 538 722 504 724 468Z"/>
</svg>