<svg xmlns="http://www.w3.org/2000/svg"
    viewBox="0 0 1000 1000">
  <!--
© 2014-2021 Adobe (http://www.adobe.com/).
Noto is a trademark of Google Inc.
This Font Software is licensed under the SIL Open Font License, Version 1.1. This Font Software is distributed on an "AS IS" BASIS, WITHOUT WARRANTIES OR CONDITIONS OF ANY KIND, either express or implied. See the SIL Open Font License for the specific language, permissions and limitations governing your use of this Font Software.
http://scripts.sil.org/OFL
  -->
<path d="M251 8C236 43 219 82 200 122L53 122 53 187 169 187C141 247 111 304 87 346L149 375 160 355C194 370 230 386 266 403 202 450 125 478 39 493 52 508 66 536 72 554 171 531 259 495 330 436 369 457 404 477 429 495L473 440C448 423 416 405 380 386 434 323 474 240 494 130L454 119 441 122 275 122 320 23ZM244 187L414 187C393 256 361 312 319 356 275 336 230 317 187 301ZM625 141L561 156C588 236 625 307 672 366 620 403 562 431 501 448 515 462 532 489 540 506 604 485 664 456 718 417 774 473 843 516 924 543 934 524 954 497 970 483 892 461 826 423 771 373 847 303 905 208 935 83L892 67 878 70 531 70 531 136 848 136C821 211 777 274 724 324 681 271 647 210 625 141ZM453 504C449 534 445 562 439 588L119 588 119 653 420 653C377 761 286 833 64 871 78 886 96 917 103 936 354 887 455 794 500 653L796 653C782 782 766 838 746 856 737 865 727 866 707 866 687 866 633 865 577 860 589 879 597 907 599 927 657 930 711 931 740 929 771 927 792 921 813 903 842 873 861 800 879 621 880 611 882 588 882 588L517 588C522 561 526 533 530 504Z"/>
</svg>