<svg xmlns="http://www.w3.org/2000/svg" name="gid3243" data-unicode="劭"
    viewBox="0 0 1000 1000">
  <!--
© 2014-2021 Adobe (http://www.adobe.com/).
Noto is a trademark of Google Inc.
This Font Software is licensed under the SIL Open Font License, Version 1.1. This Font Software is distributed on an "AS IS" BASIS, WITHOUT WARRANTIES OR CONDITIONS OF ANY KIND, either express or implied. See the SIL Open Font License for the specific language, permissions and limitations governing your use of this Font Software.
http://scripts.sil.org/OFL
  -->
<path d="M649 46C649 120 649 194 647 265L508 265 508 336 644 336C633 576 592 785 439 910 457 922 484 946 495 963 660 824 704 596 717 336L863 336C855 706 845 840 821 870 811 882 802 885 785 885 764 885 714 885 661 881 673 900 682 931 683 953 734 955 785 956 815 952 846 949 866 941 885 914 918 872 926 730 935 303 935 293 935 265 935 265L720 265C722 194 723 120 723 46ZM55 111L55 180 194 180C180 300 145 397 26 453 42 465 63 490 72 508 207 439 249 326 266 180L414 180C409 334 404 392 391 407 384 416 375 418 360 417 345 417 304 417 261 413 271 431 279 458 280 479 325 481 370 481 393 479 420 477 437 470 452 451 474 426 480 349 486 142 486 132 486 111 486 111ZM88 538L88 948 159 948 159 882 467 882 467 538ZM159 606L396 606 396 814 159 814Z"/>
</svg>