<svg xmlns="http://www.w3.org/2000/svg" name="gid3246" data-unicode="励"
    viewBox="0 0 1000 1000">
  <!--
© 2014-2021 Adobe (http://www.adobe.com/).
Noto is a trademark of Google Inc.
This Font Software is licensed under the SIL Open Font License, Version 1.1. This Font Software is distributed on an "AS IS" BASIS, WITHOUT WARRANTIES OR CONDITIONS OF ANY KIND, either express or implied. See the SIL Open Font License for the specific language, permissions and limitations governing your use of this Font Software.
http://scripts.sil.org/OFL
  -->
<path d="M677 56C677 136 677 214 675 289L562 289 562 359 672 359C662 591 626 790 500 913 518 923 544 946 556 962 690 826 729 609 741 359L863 359C853 720 843 849 820 878 811 890 802 893 786 893 768 893 726 893 679 889 691 908 698 937 700 958 745 960 790 961 817 958 846 955 865 946 883 921 913 880 923 742 933 326 933 315 933 289 933 289L744 289C746 214 747 135 747 56ZM101 97L101 463C101 602 96 790 31 920 48 927 79 945 92 956 161 819 170 610 170 462L170 342 278 342C274 583 261 797 144 917 162 927 185 950 196 966 293 865 327 710 340 527L452 527C442 760 432 846 414 867 407 877 399 879 385 878 371 879 338 878 301 875 311 892 317 918 319 937 356 939 394 940 415 937 440 935 456 928 471 908 497 876 507 778 519 493 519 484 520 462 520 462L344 462 347 342 536 342 536 275 170 275 170 166 570 166 570 97Z"/>
</svg>