<svg xmlns="http://www.w3.org/2000/svg"
    viewBox="0 0 1000 1000">
  <!--
© 2014-2021 Adobe (http://www.adobe.com/).
Noto is a trademark of Google Inc.
This Font Software is licensed under the SIL Open Font License, Version 1.1. This Font Software is distributed on an "AS IS" BASIS, WITHOUT WARRANTIES OR CONDITIONS OF ANY KIND, either express or implied. See the SIL Open Font License for the specific language, permissions and limitations governing your use of this Font Software.
http://scripts.sil.org/OFL
  -->
<path d="M643 20C643 95 643 169 641 241L506 241 506 312 638 312C627 553 583 760 419 881 438 893 464 918 476 936 651 800 699 574 712 312L861 312C852 677 842 810 817 839 808 852 798 855 782 855 761 855 713 854 660 849 672 870 680 900 682 922 732 924 782 925 812 922 844 919 863 910 882 884 915 841 924 701 933 279 933 269 933 241 933 241L715 241C717 169 718 95 718 20ZM236 10L236 137 51 137 51 206 236 206 236 351 66 351 66 419 486 419 486 351 308 351 308 206 497 206 497 137 308 137 308 10ZM93 521L93 907 165 907 165 842 460 842 460 521ZM165 590L387 590 387 774 165 774Z"/>
</svg>