<svg xmlns="http://www.w3.org/2000/svg"
    viewBox="0 0 1000 1000">
  <!--
© 2014-2021 Adobe (http://www.adobe.com/).
Noto is a trademark of Google Inc.
This Font Software is licensed under the SIL Open Font License, Version 1.1. This Font Software is distributed on an "AS IS" BASIS, WITHOUT WARRANTIES OR CONDITIONS OF ANY KIND, either express or implied. See the SIL Open Font License for the specific language, permissions and limitations governing your use of this Font Software.
http://scripts.sil.org/OFL
  -->
<path d="M666 22C666 101 666 177 664 251L548 251 548 320 661 320C650 558 611 758 469 878 486 889 512 915 524 931 677 797 719 578 731 320L861 320C852 688 842 818 820 847 812 860 803 863 788 862 770 862 731 862 687 858 698 878 706 908 707 929 750 931 793 931 820 928 847 925 866 917 884 891 914 850 922 712 932 288 932 278 932 251 932 251L734 251C736 177 736 100 736 22ZM422 256C410 354 384 440 332 498L332 212 545 212 545 143 332 143 332 22 263 22 263 143 52 143 52 212 263 212 263 498C211 617 114 743 21 803 37 816 60 842 72 860 140 808 209 722 263 628L263 928 332 928 332 618C394 678 458 747 492 792L541 738C496 683 404 593 332 527L332 501C348 511 372 530 383 539 408 510 428 474 445 433 475 472 504 515 520 544L567 499C547 463 505 410 467 366 475 334 482 301 487 265ZM135 257C121 368 91 466 33 529 48 538 75 559 86 569 116 533 140 489 159 437 182 468 203 500 215 523L261 479C245 449 211 404 181 367 189 335 195 301 200 266Z"/>
</svg>