<svg xmlns="http://www.w3.org/2000/svg" name="gid3276" data-unicode="勖"
    viewBox="0 0 1000 1000">
  <!--
© 2014-2021 Adobe (http://www.adobe.com/).
Noto is a trademark of Google Inc.
This Font Software is licensed under the SIL Open Font License, Version 1.1. This Font Software is distributed on an "AS IS" BASIS, WITHOUT WARRANTIES OR CONDITIONS OF ANY KIND, either express or implied. See the SIL Open Font License for the specific language, permissions and limitations governing your use of this Font Software.
http://scripts.sil.org/OFL
  -->
<path d="M162 204L162 261 439 261 439 204ZM158 336L158 395 443 395 443 336ZM66 74L66 433 131 433 131 136 471 136 471 433 539 433 539 74ZM676 53L674 274 570 274 570 343 672 343C664 584 634 787 520 912 538 923 565 946 576 963 699 823 733 603 742 343L859 343C849 706 837 835 814 865 805 878 797 881 781 880 763 880 724 880 680 876 692 895 698 926 700 946 743 948 786 949 812 946 840 942 858 934 876 909 907 867 918 729 929 310 929 300 929 274 929 274L744 274C746 203 746 129 746 53ZM168 656L433 656 433 724 168 724ZM168 603L168 536 433 536 433 603ZM168 777L433 777 433 846 168 846ZM100 476L100 955 168 955 168 907 433 907 433 946 503 946 503 476Z"/>
</svg>