<svg xmlns="http://www.w3.org/2000/svg"
    viewBox="0 0 1000 1000">
  <!--
© 2014-2021 Adobe (http://www.adobe.com/).
Noto is a trademark of Google Inc.
This Font Software is licensed under the SIL Open Font License, Version 1.1. This Font Software is distributed on an "AS IS" BASIS, WITHOUT WARRANTIES OR CONDITIONS OF ANY KIND, either express or implied. See the SIL Open Font License for the specific language, permissions and limitations governing your use of this Font Software.
http://scripts.sil.org/OFL
  -->
<path d="M428 62C411 95 378 145 354 176L400 197C427 169 460 126 490 86ZM149 63C134 110 105 161 64 189L111 220C156 186 183 132 199 80ZM864 62C846 97 809 150 781 182L828 205C858 175 896 129 930 86ZM564 62C550 109 521 159 477 185L525 217C574 185 599 131 616 78ZM682 9C674 178 646 260 477 306 492 319 511 345 517 362 608 335 664 297 698 242 763 286 839 338 880 372L85 372 85 548 158 548 158 439 845 439 845 548 920 548 920 372 885 372 932 324C884 288 793 228 724 185 740 137 747 79 750 9ZM263 9C256 187 226 269 48 314 62 328 80 354 86 370 184 342 243 303 279 246 326 279 379 319 408 345L458 299C423 268 356 223 305 189 321 140 328 81 331 9ZM433 453C431 492 427 528 422 561L141 561 141 630 408 630C371 754 285 823 55 862 70 879 89 910 96 930 357 882 451 789 489 630L764 630C753 772 739 833 720 850 710 859 699 860 678 860 656 860 593 859 530 854 544 874 553 904 555 926 617 929 678 929 709 928 742 925 763 919 783 899 813 869 828 789 841 595 842 584 843 561 843 561L502 561C506 528 510 492 512 453Z"/>
</svg>