<svg xmlns="http://www.w3.org/2000/svg" name="gid3285" data-unicode="勠"
    viewBox="0 0 1000 1000">
  <!--
© 2014-2021 Adobe (http://www.adobe.com/).
Noto is a trademark of Google Inc.
This Font Software is licensed under the SIL Open Font License, Version 1.1. This Font Software is distributed on an "AS IS" BASIS, WITHOUT WARRANTIES OR CONDITIONS OF ANY KIND, either express or implied. See the SIL Open Font License for the specific language, permissions and limitations governing your use of this Font Software.
http://scripts.sil.org/OFL
  -->
<path d="M148 161C120 196 77 231 34 258 46 267 67 287 75 297 119 267 169 219 200 176ZM410 160C381 196 335 230 290 257 302 266 323 286 331 296 377 267 428 220 462 176ZM319 548C267 603 172 659 91 690 105 701 121 718 131 730 216 694 313 635 372 570ZM397 634C332 698 213 757 107 790 122 801 137 819 146 833 256 795 377 731 449 657ZM458 729C384 818 235 883 77 915 92 929 108 952 116 968 282 928 435 856 518 753ZM670 53C670 128 670 201 668 271L564 271 564 341 666 341C655 585 615 790 462 910 479 920 504 945 515 962 679 828 722 605 734 341L866 341C857 714 847 846 824 875 815 888 806 891 791 891 773 891 731 891 686 887 697 906 704 935 705 955 750 958 795 959 821 955 851 952 869 944 886 919 917 877 926 736 935 308 936 297 936 271 936 271L737 271C739 201 739 128 739 53ZM167 281C136 327 84 370 31 400 43 410 63 432 71 442 121 411 173 364 209 314L209 423 264 423C215 481 131 548 20 597 33 607 53 630 62 645 170 593 250 531 306 477 382 522 473 595 522 642L567 585C516 538 418 469 339 422L336 420 274 420 274 78 42 78 42 139 209 139 209 294ZM436 273C406 314 352 351 299 379 311 389 331 411 339 422 391 392 447 346 483 300L483 425 548 425 548 78 308 78 308 139 483 139 483 288Z"/>
</svg>