<svg xmlns="http://www.w3.org/2000/svg" name="gid3304" data-unicode="勷"
    viewBox="0 0 1000 1000">
  <!--
© 2014-2021 Adobe (http://www.adobe.com/).
Noto is a trademark of Google Inc.
This Font Software is licensed under the SIL Open Font License, Version 1.1. This Font Software is distributed on an "AS IS" BASIS, WITHOUT WARRANTIES OR CONDITIONS OF ANY KIND, either express or implied. See the SIL Open Font License for the specific language, permissions and limitations governing your use of this Font Software.
http://scripts.sil.org/OFL
  -->
<path d="M146 273L244 273 244 346 146 346ZM409 273L510 273 510 346 409 346ZM691 50L690 279 596 279 596 346 688 346C681 597 652 795 535 919 553 929 579 951 590 967 715 828 747 616 756 346L862 346C856 721 848 851 828 880 820 892 811 895 796 894 779 894 737 894 693 891 704 909 711 938 712 958 756 960 800 961 826 958 854 954 872 947 889 921 917 882 923 742 930 315 930 305 930 279 930 279L757 279 759 50ZM49 126L49 183 605 183 605 126 359 126 359 49 289 49 289 126ZM353 228L353 392 394 392 394 439 266 439 266 392 301 392 301 228 90 228 90 392 199 392 199 439 62 439 62 488 199 488 199 537 74 537 74 586 199 586 199 635 50 635 50 685 252 685C191 730 104 767 25 791 37 803 58 829 66 841 101 829 137 813 173 795L173 885 100 899 117 957C203 940 318 915 425 892L421 835 238 872 238 759C275 737 308 712 335 685L609 685 609 635 460 635 460 586 580 586 580 537 460 537 460 488 595 488 595 439 460 439 460 392 568 392 568 228ZM266 488L394 488 394 537 266 537ZM266 635L266 586 394 586 394 635ZM302 752C381 796 473 864 517 913L563 872C542 849 510 822 474 796 506 778 541 756 572 732L521 694C498 714 460 742 427 764 400 746 371 729 345 715Z"/>
</svg>