<svg xmlns="http://www.w3.org/2000/svg" name="gid3311" data-unicode="匀"
    viewBox="0 0 1000 1000">
  <!--
© 2014-2021 Adobe (http://www.adobe.com/).
Noto is a trademark of Google Inc.
This Font Software is licensed under the SIL Open Font License, Version 1.1. This Font Software is distributed on an "AS IS" BASIS, WITHOUT WARRANTIES OR CONDITIONS OF ANY KIND, either express or implied. See the SIL Open Font License for the specific language, permissions and limitations governing your use of this Font Software.
http://scripts.sil.org/OFL
  -->
<path d="M205 418L205 490 622 490 622 418ZM143 730L159 808C295 785 486 751 664 719L660 648C471 680 269 712 143 730ZM287 40C233 195 143 341 36 433 55 445 89 470 103 483 159 429 213 358 260 279L821 279C806 677 789 834 753 869 740 882 727 885 705 885 677 885 604 884 524 878 539 898 549 931 550 953 620 957 693 959 733 956 773 952 798 944 822 913 867 862 882 700 899 246 899 234 899 205 899 205L301 205C325 158 346 110 364 60Z"/>
</svg>