<svg xmlns="http://www.w3.org/2000/svg" name="gid3313" data-unicode="匂"
    viewBox="0 0 1000 1000">
  <!--
© 2014-2021 Adobe (http://www.adobe.com/).
Noto is a trademark of Google Inc.
This Font Software is licensed under the SIL Open Font License, Version 1.1. This Font Software is distributed on an "AS IS" BASIS, WITHOUT WARRANTIES OR CONDITIONS OF ANY KIND, either express or implied. See the SIL Open Font License for the specific language, permissions and limitations governing your use of this Font Software.
http://scripts.sil.org/OFL
  -->
<path d="M298 40C240 196 140 343 25 435 44 448 78 475 92 489 135 451 177 405 216 353L216 690C216 778 245 801 352 801 375 801 538 801 562 801 654 801 676 767 687 641 666 637 637 625 619 613 615 715 606 732 557 732 522 732 384 732 356 732 298 732 288 726 288 690L288 571C407 535 538 488 630 437L568 384C504 427 394 472 288 508L288 340 225 340C243 316 260 291 276 265L849 265C833 673 814 834 778 871 766 884 752 887 730 887 702 887 633 887 557 880 572 902 582 935 583 958 650 962 720 964 758 960 798 956 823 947 847 916 892 865 909 699 927 232 928 221 928 191 928 191L318 191C340 149 361 106 378 62Z"/>
</svg>