<svg xmlns="http://www.w3.org/2000/svg" name="gid3332" data-unicode="匙"
    viewBox="0 0 1000 1000">
  <!--
© 2014-2021 Adobe (http://www.adobe.com/).
Noto is a trademark of Google Inc.
This Font Software is licensed under the SIL Open Font License, Version 1.1. This Font Software is distributed on an "AS IS" BASIS, WITHOUT WARRANTIES OR CONDITIONS OF ANY KIND, either express or implied. See the SIL Open Font License for the specific language, permissions and limitations governing your use of this Font Software.
http://scripts.sil.org/OFL
  -->
<path d="M167 262L442 262 442 341 167 341ZM167 132L442 132 442 210 167 210ZM100 78L100 396 512 396 512 78ZM121 578C115 701 97 837 30 911 47 922 69 947 80 963 121 917 146 854 163 784 247 917 384 942 596 942L940 942C943 922 956 891 967 874 909 876 640 876 596 876 499 876 418 871 351 851L351 704 536 704 536 641 351 641 351 527 554 527 554 464 47 464 47 527 279 527 279 819C236 793 203 754 178 697 184 658 187 618 189 578ZM596 60L596 664C596 756 620 780 705 780 724 780 837 780 856 780 931 780 951 741 959 619 939 614 909 602 893 589 889 690 883 713 850 713 827 713 733 713 715 713 675 713 668 705 668 665L668 413C762 372 864 320 940 271L884 216C832 258 750 307 668 347L668 60Z"/>
</svg>