<svg xmlns="http://www.w3.org/2000/svg"
    viewBox="0 0 1000 1000">
  <!--
© 2014-2021 Adobe (http://www.adobe.com/).
Noto is a trademark of Google Inc.
This Font Software is licensed under the SIL Open Font License, Version 1.1. This Font Software is distributed on an "AS IS" BASIS, WITHOUT WARRANTIES OR CONDITIONS OF ANY KIND, either express or implied. See the SIL Open Font License for the specific language, permissions and limitations governing your use of this Font Software.
http://scripts.sil.org/OFL
  -->
<path d="M345 434L455 434 455 534 345 534ZM632 434L749 434 749 534 632 534ZM93 57L93 931 166 931 166 882 955 882 955 813 166 813 166 125 509 125C443 208 315 293 187 339 199 354 214 379 221 395 285 369 348 335 404 298L404 340 684 340 684 290C746 330 814 365 876 388 885 371 901 346 915 330 795 291 664 216 577 125L927 125 927 57ZM546 179C582 217 629 254 681 288L419 288C470 253 514 215 546 179ZM377 583C349 657 292 720 226 762 242 771 268 791 280 803 321 774 360 736 392 691 422 717 452 747 468 769L511 726C492 703 455 669 422 642 430 628 436 614 442 599ZM287 385L287 583 515 583 515 385ZM574 385L574 583 665 583C637 660 578 721 508 761 524 770 550 791 562 802 604 775 645 739 678 695 725 731 777 775 805 804L854 761C822 730 760 682 709 646 717 630 724 614 730 598L669 583 809 583 809 385Z"/>
</svg>