<svg xmlns="http://www.w3.org/2000/svg"
    viewBox="0 0 1000 1000">
  <!--
© 2014-2021 Adobe (http://www.adobe.com/).
Noto is a trademark of Google Inc.
This Font Software is licensed under the SIL Open Font License, Version 1.1. This Font Software is distributed on an "AS IS" BASIS, WITHOUT WARRANTIES OR CONDITIONS OF ANY KIND, either express or implied. See the SIL Open Font License for the specific language, permissions and limitations governing your use of this Font Software.
http://scripts.sil.org/OFL
  -->
<path d="M460 10L460 148 107 148 107 220 460 220 460 383 537 383 537 220 896 220 896 148 537 148 537 10ZM250 332L250 483 53 483 53 557 248 557C240 666 202 780 44 866 61 880 86 907 97 925 276 826 317 689 325 557L672 557 672 928 749 928 749 557 946 557 946 483 749 483 749 332 672 332 672 483 326 483 326 332Z"/>
</svg>