<svg xmlns="http://www.w3.org/2000/svg" name="gid3381" data-unicode="協"
    viewBox="0 0 1000 1000">
  <!--
© 2014-2021 Adobe (http://www.adobe.com/).
Noto is a trademark of Google Inc.
This Font Software is licensed under the SIL Open Font License, Version 1.1. This Font Software is distributed on an "AS IS" BASIS, WITHOUT WARRANTIES OR CONDITIONS OF ANY KIND, either express or implied. See the SIL Open Font License for the specific language, permissions and limitations governing your use of this Font Software.
http://scripts.sil.org/OFL
  -->
<path d="M738 461C737 497 736 532 733 566L636 566 636 626 728 626C714 749 680 847 597 912 612 922 632 944 641 959 736 883 777 768 794 626L883 626C877 807 870 873 857 889 851 898 844 900 833 900 821 900 794 900 763 896 773 914 779 940 780 959 812 960 844 960 862 958 885 956 899 949 913 932 933 905 940 824 948 596 948 587 948 566 948 566L800 566C802 532 804 497 805 461ZM602 39C600 78 596 115 589 149L396 149 396 212 572 212C541 298 480 362 357 404 371 416 389 441 396 457 538 404 609 323 644 212L834 212C825 311 814 353 800 367 793 375 784 376 769 376 754 376 714 376 673 371 683 389 691 416 692 436 735 438 776 438 797 436 824 435 840 429 857 412 881 388 893 327 906 179 908 169 909 149 909 149L660 149C666 115 670 78 673 39ZM409 462C408 498 407 533 405 566L303 566 303 626 399 626C386 749 354 849 275 915 290 926 309 947 318 962 408 884 447 768 464 626L545 626C539 808 531 874 517 891 511 900 505 902 494 902 482 902 460 901 432 899 441 915 447 941 448 959 477 960 505 960 522 958 544 956 558 950 572 933 592 905 600 825 608 595 609 586 609 566 609 566L470 566C472 532 474 498 475 462ZM164 40L164 304 40 304 40 374 164 374 164 959 236 959 236 374 354 374 354 304 236 304 236 40Z"/>
</svg>