<svg xmlns="http://www.w3.org/2000/svg" name="gid3383" data-unicode="単"
    viewBox="0 0 1000 1000">
  <!--
© 2014-2021 Adobe (http://www.adobe.com/).
Noto is a trademark of Google Inc.
This Font Software is licensed under the SIL Open Font License, Version 1.1. This Font Software is distributed on an "AS IS" BASIS, WITHOUT WARRANTIES OR CONDITIONS OF ANY KIND, either express or implied. See the SIL Open Font License for the specific language, permissions and limitations governing your use of this Font Software.
http://scripts.sil.org/OFL
  -->
<path d="M221 448L459 448 459 556 221 556ZM536 448L785 448 785 556 536 556ZM221 281L459 281 459 388 221 388ZM536 281L785 281 785 388 536 388ZM777 41C752 95 708 169 671 218L489 218 550 193C537 151 500 87 467 39L400 64C432 112 465 176 478 218L259 218 312 191C293 151 249 92 210 50L147 79C182 121 222 179 241 218L148 218 148 619 459 619 459 711 54 711 54 781 459 781 459 961 536 961 536 781 949 781 949 711 536 711 536 619 861 619 861 218 755 218C789 174 826 118 858 68Z"/>
</svg>