<svg xmlns="http://www.w3.org/2000/svg"
    viewBox="0 0 1000 1000">
  <!--
© 2014-2021 Adobe (http://www.adobe.com/).
Noto is a trademark of Google Inc.
This Font Software is licensed under the SIL Open Font License, Version 1.1. This Font Software is distributed on an "AS IS" BASIS, WITHOUT WARRANTIES OR CONDITIONS OF ANY KIND, either express or implied. See the SIL Open Font License for the specific language, permissions and limitations governing your use of this Font Software.
http://scripts.sil.org/OFL
  -->
<path d="M415 733C463 772 519 829 543 867L598 825C572 786 515 732 466 695ZM388 247L388 554 738 554 738 623 312 623 312 686 738 686 738 851C738 863 735 866 720 867 706 867 659 867 606 866 616 885 625 911 628 930 698 930 744 930 773 920 802 909 810 890 810 852L810 686 966 686 966 623 810 623 810 554 916 554 916 247 683 247 683 186 958 186 958 124 889 124 913 93C881 67 818 32 769 10L733 52C774 71 822 100 855 124L683 124 683 9 610 9 610 124 336 124 336 186 610 186 610 247ZM163 10L163 274 40 274 40 344 163 344 163 929 237 929 237 344 354 344 354 274 237 274 237 10ZM456 425L610 425 610 501 456 501ZM683 425L845 425 845 501 683 501ZM456 300L610 300 610 374 456 374ZM683 300L845 300 845 374 683 374Z"/>
</svg>