<svg xmlns="http://www.w3.org/2000/svg"
    viewBox="0 0 1000 1000">
  <!--
© 2014-2021 Adobe (http://www.adobe.com/).
Noto is a trademark of Google Inc.
This Font Software is licensed under the SIL Open Font License, Version 1.1. This Font Software is distributed on an "AS IS" BASIS, WITHOUT WARRANTIES OR CONDITIONS OF ANY KIND, either express or implied. See the SIL Open Font License for the specific language, permissions and limitations governing your use of this Font Software.
http://scripts.sil.org/OFL
  -->
<path d="M324 424L324 799C324 900 364 924 497 924 527 924 763 924 795 924 916 924 942 885 955 742 934 737 902 725 885 713 876 831 865 854 793 854 740 854 538 854 498 854 414 854 398 844 398 799L398 493 749 493C742 601 734 645 719 660 710 668 700 669 680 669 660 669 602 669 542 663 554 681 563 709 564 729 625 732 683 732 713 731 743 728 764 723 782 705 805 679 816 614 825 454 826 444 827 424 827 424ZM816 16C676 47 435 72 217 87L145 73 145 360C145 516 134 727 32 882 52 891 80 916 92 932 206 763 220 524 220 360L220 324 963 324 963 254 220 254 220 154C446 140 703 115 878 78Z"/>
</svg>