<svg xmlns="http://www.w3.org/2000/svg"
    viewBox="0 0 1000 1000">
  <!--
© 2014-2021 Adobe (http://www.adobe.com/).
Noto is a trademark of Google Inc.
This Font Software is licensed under the SIL Open Font License, Version 1.1. This Font Software is distributed on an "AS IS" BASIS, WITHOUT WARRANTIES OR CONDITIONS OF ANY KIND, either express or implied. See the SIL Open Font License for the specific language, permissions and limitations governing your use of this Font Software.
http://scripts.sil.org/OFL
  -->
<path d="M273 267C228 352 142 456 24 532 40 544 62 568 73 585 95 570 116 554 135 537L135 915 204 915 204 855 410 855 410 903 481 903 481 533 140 533C216 468 274 399 317 338 384 396 457 479 494 533L548 475C504 416 415 328 341 267ZM204 790L204 599 410 599 410 790ZM577 62L577 930 650 930 650 132 853 132 853 649C853 663 847 667 834 667 820 668 774 668 722 666 733 687 745 720 747 742 820 742 863 740 890 727 918 714 926 690 926 650L926 62ZM274 26C232 98 154 184 48 249 64 259 86 283 96 300 195 236 266 159 316 95 381 146 453 218 490 266L541 207C497 154 410 78 340 26Z"/>
</svg>