<svg xmlns="http://www.w3.org/2000/svg" name="gid3411" data-unicode="卻"
    viewBox="0 0 1000 1000">
  <!--
© 2014-2021 Adobe (http://www.adobe.com/).
Noto is a trademark of Google Inc.
This Font Software is licensed under the SIL Open Font License, Version 1.1. This Font Software is distributed on an "AS IS" BASIS, WITHOUT WARRANTIES OR CONDITIONS OF ANY KIND, either express or implied. See the SIL Open Font License for the specific language, permissions and limitations governing your use of this Font Software.
http://scripts.sil.org/OFL
  -->
<path d="M273 297C228 382 142 486 24 562 40 574 62 598 73 615 95 600 116 584 135 567L135 945 204 945 204 885 410 885 410 933 481 933 481 563 140 563C216 498 274 429 317 368 384 426 457 509 494 563L548 505C504 446 415 358 341 297ZM204 820L204 629 410 629 410 820ZM577 92L577 960 650 960 650 162 853 162 853 679C853 693 847 697 834 697 820 698 774 698 722 696 733 717 745 750 747 772 820 772 863 770 890 757 918 744 926 720 926 680L926 92ZM274 56C232 128 154 214 48 279 64 289 86 313 96 330 195 266 266 189 316 125 381 176 453 248 490 296L541 237C497 184 410 108 340 56Z"/>
</svg>