<svg xmlns="http://www.w3.org/2000/svg" name="gid3414" data-unicode="卿"
    viewBox="0 0 1000 1000">
  <!--
© 2014-2021 Adobe (http://www.adobe.com/).
Noto is a trademark of Google Inc.
This Font Software is licensed under the SIL Open Font License, Version 1.1. This Font Software is distributed on an "AS IS" BASIS, WITHOUT WARRANTIES OR CONDITIONS OF ANY KIND, either express or implied. See the SIL Open Font License for the specific language, permissions and limitations governing your use of this Font Software.
http://scripts.sil.org/OFL
  -->
<path d="M553 386L553 485 432 485 432 386ZM553 327L432 327 432 230 553 230ZM469 40C465 76 455 128 444 167L369 167 369 955 432 955 432 846 634 846 634 784 432 784 432 696 624 696 624 634 432 634 432 547 617 547 617 167 506 167C519 132 532 88 545 49ZM671 95L671 960 735 960 735 160 854 160 854 694C854 705 850 708 841 708 832 708 804 709 771 708 780 727 788 757 791 776 842 776 873 775 893 763 916 751 921 729 921 695L921 95ZM297 44C257 70 194 104 139 129L95 111 95 638 33 651 52 715C108 702 172 685 237 668 215 759 166 844 56 914 70 925 91 948 101 963 292 841 317 670 317 499L317 230 253 230 253 498C253 533 252 568 248 602L158 624 158 181C218 158 292 124 348 86Z"/>
</svg>