<svg xmlns="http://www.w3.org/2000/svg"
    viewBox="0 0 1000 1000">
  <!--
© 2014-2021 Adobe (http://www.adobe.com/).
Noto is a trademark of Google Inc.
This Font Software is licensed under the SIL Open Font License, Version 1.1. This Font Software is distributed on an "AS IS" BASIS, WITHOUT WARRANTIES OR CONDITIONS OF ANY KIND, either express or implied. See the SIL Open Font License for the specific language, permissions and limitations governing your use of this Font Software.
http://scripts.sil.org/OFL
  -->
<path d="M528 459C454 516 321 569 213 598 229 610 246 631 256 645 367 611 500 553 584 487ZM637 556C545 631 372 692 219 722 234 738 250 761 259 777 418 740 591 673 694 585ZM755 657C644 773 419 840 174 868 189 886 203 912 210 930 463 894 694 819 817 687ZM116 141L120 204C278 199 514 189 740 180 768 203 793 226 811 245L869 211C819 159 719 86 638 37L583 67C610 84 639 103 668 124L360 134C386 100 414 61 438 22L360 7C342 44 310 96 281 136ZM495 338C594 456 773 558 930 610 939 592 954 568 968 552 872 525 768 478 677 415L869 398C881 416 891 433 897 447L954 420C933 377 885 315 840 271L786 295C803 312 820 331 835 351L688 360C709 322 731 277 751 236L682 218C669 260 645 319 622 363L609 363C578 337 549 308 524 278L458 278C439 304 416 330 390 355 375 330 357 303 340 281L286 300C298 316 311 335 322 353L201 362C225 325 249 280 272 240L203 222C188 263 160 322 135 366L53 371 60 430 330 406C248 471 144 528 35 564 47 579 63 603 70 619 241 556 409 446 495 338Z"/>
</svg>