<svg xmlns="http://www.w3.org/2000/svg" name="gid3460" data-unicode="叉"
    viewBox="0 0 1000 1000">
  <!--
© 2014-2021 Adobe (http://www.adobe.com/).
Noto is a trademark of Google Inc.
This Font Software is licensed under the SIL Open Font License, Version 1.1. This Font Software is distributed on an "AS IS" BASIS, WITHOUT WARRANTIES OR CONDITIONS OF ANY KIND, either express or implied. See the SIL Open Font License for the specific language, permissions and limitations governing your use of this Font Software.
http://scripts.sil.org/OFL
  -->
<path d="M383 306C440 355 510 424 543 468L600 419C565 376 494 309 437 263ZM95 135L95 209 764 209C710 390 619 532 503 641 393 529 314 389 263 227L191 248C249 425 330 574 442 693 324 785 186 849 35 892 52 907 76 942 85 962 236 916 378 847 499 748 611 847 749 919 920 962 931 941 954 908 971 891 806 854 670 786 560 694 697 562 803 387 861 156L808 130 795 135Z"/>
</svg>