<svg xmlns="http://www.w3.org/2000/svg" name="gid3462" data-unicode="友"
    viewBox="0 0 1000 1000">
  <!--
© 2014-2021 Adobe (http://www.adobe.com/).
Noto is a trademark of Google Inc.
This Font Software is licensed under the SIL Open Font License, Version 1.1. This Font Software is distributed on an "AS IS" BASIS, WITHOUT WARRANTIES OR CONDITIONS OF ANY KIND, either express or implied. See the SIL Open Font License for the specific language, permissions and limitations governing your use of this Font Software.
http://scripts.sil.org/OFL
  -->
<path d="M337 39C336 66 334 127 325 207L69 207 69 279 316 279C287 473 216 731 35 876 60 890 85 909 101 927 221 825 294 676 338 527 382 621 439 701 511 767 427 828 329 870 225 896 240 912 259 941 268 960 378 929 482 882 570 815 663 883 776 931 910 959 921 939 942 908 959 892 829 869 719 826 629 766 718 683 787 574 827 432L776 409 762 412 368 412C379 366 386 321 392 279L934 279 934 207 401 207C410 130 412 70 414 39ZM568 721C492 657 434 578 393 485L728 485C692 580 636 658 568 721Z"/>
</svg>