<svg xmlns="http://www.w3.org/2000/svg"
    viewBox="0 0 1000 1000">
  <!--
© 2014-2021 Adobe (http://www.adobe.com/).
Noto is a trademark of Google Inc.
This Font Software is licensed under the SIL Open Font License, Version 1.1. This Font Software is distributed on an "AS IS" BASIS, WITHOUT WARRANTIES OR CONDITIONS OF ANY KIND, either express or implied. See the SIL Open Font License for the specific language, permissions and limitations governing your use of this Font Software.
http://scripts.sil.org/OFL
  -->
<path d="M86 558L86 623 279 623 241 640C290 700 353 750 427 792 310 829 179 852 52 863 64 881 78 911 83 932 231 915 382 885 514 834 632 884 770 916 918 932 928 911 948 879 964 862 835 851 713 828 607 792 708 741 793 674 849 586L799 555 784 558 533 558 533 10 460 10 460 558ZM373 31C325 51 249 77 186 95L139 79 139 484 401 484 401 420 210 420 210 307 393 307 393 247 210 247 210 143C276 128 358 105 419 78ZM605 247L605 307 798 307 798 421 594 421 594 485 870 485 870 77 600 77 600 142 798 142 798 247ZM726 623C673 678 601 723 518 758 436 722 367 677 319 623Z"/>
</svg>