<svg xmlns="http://www.w3.org/2000/svg"
    viewBox="0 0 1000 1000">
  <!--
© 2014-2021 Adobe (http://www.adobe.com/).
Noto is a trademark of Google Inc.
This Font Software is licensed under the SIL Open Font License, Version 1.1. This Font Software is distributed on an "AS IS" BASIS, WITHOUT WARRANTIES OR CONDITIONS OF ANY KIND, either express or implied. See the SIL Open Font License for the specific language, permissions and limitations governing your use of this Font Software.
http://scripts.sil.org/OFL
  -->
<path d="M171 266L171 316 453 316 453 266ZM178 322C148 366 100 408 50 439 64 448 88 468 98 478 147 444 201 390 236 338ZM378 351C424 378 481 422 509 454L553 415C525 385 469 343 420 318ZM664 158L598 167C621 345 654 505 707 638 650 741 579 819 499 870 516 885 538 912 550 930 625 878 691 810 746 723 790 808 846 878 915 930 927 911 951 884 969 870 894 819 835 742 789 647 862 505 912 322 933 90L885 79 872 82 557 82 557 152 853 152C834 306 799 440 750 552 709 436 682 302 664 158ZM64 165L64 316 127 316 127 220 496 220 496 316 561 316 561 165 342 165 342 119 518 119 518 66 342 66 342 12 271 12 271 165ZM203 695L418 695 418 742 203 742ZM203 650L203 603 418 603 418 650ZM203 786L418 786 418 835 203 835ZM271 391C225 459 142 540 30 599 44 609 64 631 73 646 95 633 115 620 134 607L134 929 203 929 203 886 487 886 487 599 514 628 563 577C513 523 417 444 337 391ZM205 553C248 517 283 481 311 448 353 477 400 516 440 553Z"/>
</svg>