<svg xmlns="http://www.w3.org/2000/svg" name="gid3491" data-unicode="召"
    viewBox="0 0 1000 1000">
  <!--
© 2014-2021 Adobe (http://www.adobe.com/).
Noto is a trademark of Google Inc.
This Font Software is licensed under the SIL Open Font License, Version 1.1. This Font Software is distributed on an "AS IS" BASIS, WITHOUT WARRANTIES OR CONDITIONS OF ANY KIND, either express or implied. See the SIL Open Font License for the specific language, permissions and limitations governing your use of this Font Software.
http://scripts.sil.org/OFL
  -->
<path d="M179 545L179 961 255 961 255 917 760 917 760 959 839 959 839 545ZM255 848L255 614 760 614 760 848ZM102 105L102 175 399 175C364 305 287 437 39 502 55 517 74 547 82 566 351 489 440 336 482 175L788 175C775 333 760 399 738 419 728 427 716 429 696 429 673 429 611 428 548 423 561 442 570 471 571 492 634 496 695 497 726 495 760 492 782 486 802 465 834 434 850 349 867 138 868 127 869 105 869 105Z"/>
</svg>