<svg xmlns="http://www.w3.org/2000/svg" name="gid3493" data-unicode="叮"
    viewBox="0 0 1000 1000">
  <!--
© 2014-2021 Adobe (http://www.adobe.com/).
Noto is a trademark of Google Inc.
This Font Software is licensed under the SIL Open Font License, Version 1.1. This Font Software is distributed on an "AS IS" BASIS, WITHOUT WARRANTIES OR CONDITIONS OF ANY KIND, either express or implied. See the SIL Open Font License for the specific language, permissions and limitations governing your use of this Font Software.
http://scripts.sil.org/OFL
  -->
<path d="M412 124L412 197 687 197 687 851C687 870 680 876 660 876 639 878 567 878 493 875 505 897 519 933 524 955 618 955 681 954 717 941 752 928 765 902 765 852L765 197 961 197 961 124ZM76 132L76 792 149 792 149 714 367 714 367 132ZM149 204L295 204 295 641 149 641Z"/>
</svg>