<svg xmlns="http://www.w3.org/2000/svg"
    viewBox="0 0 1000 1000">
  <!--
© 2014-2021 Adobe (http://www.adobe.com/).
Noto is a trademark of Google Inc.
This Font Software is licensed under the SIL Open Font License, Version 1.1. This Font Software is distributed on an "AS IS" BASIS, WITHOUT WARRANTIES OR CONDITIONS OF ANY KIND, either express or implied. See the SIL Open Font License for the specific language, permissions and limitations governing your use of this Font Software.
http://scripts.sil.org/OFL
  -->
<path d="M56 81L56 156 747 156 747 821C747 842 740 848 718 850 694 850 612 851 532 847 544 869 558 906 563 928 662 928 732 928 772 915 811 902 825 876 825 822L825 156 948 156 948 81ZM231 375L494 375 494 605 231 605ZM158 303L158 757 231 757 231 677 568 677 568 303Z"/>
</svg>