<svg xmlns="http://www.w3.org/2000/svg"
    viewBox="0 0 1000 1000">
  <!--
© 2014-2021 Adobe (http://www.adobe.com/).
Noto is a trademark of Google Inc.
This Font Software is licensed under the SIL Open Font License, Version 1.1. This Font Software is distributed on an "AS IS" BASIS, WITHOUT WARRANTIES OR CONDITIONS OF ANY KIND, either express or implied. See the SIL Open Font License for the specific language, permissions and limitations governing your use of this Font Software.
http://scripts.sil.org/OFL
  -->
<path d="M248 337L248 404 753 404 753 337ZM498 86C592 214 768 355 924 438 937 416 956 390 974 371 815 300 639 161 532 12L455 12C377 142 209 295 34 384 50 400 71 426 81 443 252 351 415 208 498 86ZM196 530L196 931 270 931 270 889 732 889 732 931 808 931 808 530ZM270 822L270 598 732 598 732 822Z"/>
</svg>