<svg xmlns="http://www.w3.org/2000/svg"
    viewBox="0 0 1000 1000">
  <!--
© 2014-2021 Adobe (http://www.adobe.com/).
Noto is a trademark of Google Inc.
This Font Software is licensed under the SIL Open Font License, Version 1.1. This Font Software is distributed on an "AS IS" BASIS, WITHOUT WARRANTIES OR CONDITIONS OF ANY KIND, either express or implied. See the SIL Open Font License for the specific language, permissions and limitations governing your use of this Font Software.
http://scripts.sil.org/OFL
  -->
<path d="M248 238L248 303 756 303 756 238ZM368 472L632 472 632 662 368 662ZM299 408L299 799 368 799 368 726 702 726 702 408ZM88 62L88 932 161 932 161 133 840 133 840 834C840 852 834 858 816 859 799 859 741 860 678 858 690 877 701 911 705 931 791 931 842 929 872 917 903 905 914 881 914 835L914 62Z"/>
</svg>