<svg xmlns="http://www.w3.org/2000/svg" name="gid3514" data-unicode="名"
    viewBox="0 0 1000 1000">
  <!--
© 2014-2021 Adobe (http://www.adobe.com/).
Noto is a trademark of Google Inc.
This Font Software is licensed under the SIL Open Font License, Version 1.1. This Font Software is distributed on an "AS IS" BASIS, WITHOUT WARRANTIES OR CONDITIONS OF ANY KIND, either express or implied. See the SIL Open Font License for the specific language, permissions and limitations governing your use of this Font Software.
http://scripts.sil.org/OFL
  -->
<path d="M375 37C317 145 202 274 38 364 55 377 80 404 91 422 139 394 182 363 222 330 289 379 362 444 406 495 293 584 161 651 33 688 48 703 67 734 76 755 159 728 244 690 324 642L324 960 399 960 399 920 811 920 811 962 888 962 888 534 477 534C594 436 691 312 750 164L700 136 687 140 403 140C424 111 443 82 460 53ZM811 851L399 851 399 603 811 603ZM348 208L648 208C604 295 541 374 467 443 421 392 345 329 277 282 303 258 326 233 348 208Z"/>
</svg>