<svg xmlns="http://www.w3.org/2000/svg" name="gid3516" data-unicode="吏"
    viewBox="0 0 1000 1000">
  <!--
© 2014-2021 Adobe (http://www.adobe.com/).
Noto is a trademark of Google Inc.
This Font Software is licensed under the SIL Open Font License, Version 1.1. This Font Software is distributed on an "AS IS" BASIS, WITHOUT WARRANTIES OR CONDITIONS OF ANY KIND, either express or implied. See the SIL Open Font License for the specific language, permissions and limitations governing your use of this Font Software.
http://scripts.sil.org/OFL
  -->
<path d="M248 602L183 627C220 702 267 760 324 805 263 843 174 875 45 897 60 915 79 946 88 963 225 935 321 895 387 847 521 923 702 950 937 963 941 938 956 905 970 887 742 879 571 860 445 796 502 735 525 663 533 586L879 586 879 303 538 303 538 206 935 206 935 136 538 136 538 39 462 39 462 136 71 136 71 206 462 206 462 303 135 303 135 586 458 586C451 650 432 708 382 759 328 719 284 669 248 602ZM206 370L462 370 462 492 462 519 206 519ZM538 519L538 493 538 370 804 370 804 519Z"/>
</svg>