<svg xmlns="http://www.w3.org/2000/svg"
    viewBox="0 0 1000 1000">
  <!--
© 2014-2021 Adobe (http://www.adobe.com/).
Noto is a trademark of Google Inc.
This Font Software is licensed under the SIL Open Font License, Version 1.1. This Font Software is distributed on an "AS IS" BASIS, WITHOUT WARRANTIES OR CONDITIONS OF ANY KIND, either express or implied. See the SIL Open Font License for the specific language, permissions and limitations governing your use of this Font Software.
http://scripts.sil.org/OFL
  -->
<path d="M74 110L74 736 143 736 143 653 347 653 347 110ZM143 180L277 180 277 583 143 583ZM619 12L619 141C538 156 453 169 373 180 381 196 392 224 394 241 466 233 543 222 619 209L619 596 488 596 488 293 419 293 419 733 488 733 488 665 619 665 619 800C619 898 642 922 725 922 742 922 847 922 865 922 937 922 957 883 966 768 944 763 918 751 901 738 897 830 891 855 861 855 839 855 750 855 733 855 697 855 691 846 691 801L691 665 829 665 829 713 899 713 899 291 829 291 829 596 691 596 691 197C779 180 862 160 929 138L871 79C824 96 761 112 691 127L691 12Z"/>
</svg>