<svg xmlns="http://www.w3.org/2000/svg"
    viewBox="0 0 1000 1000">
  <!--
© 2014-2021 Adobe (http://www.adobe.com/).
Noto is a trademark of Google Inc.
This Font Software is licensed under the SIL Open Font License, Version 1.1. This Font Software is distributed on an "AS IS" BASIS, WITHOUT WARRANTIES OR CONDITIONS OF ANY KIND, either express or implied. See the SIL Open Font License for the specific language, permissions and limitations governing your use of this Font Software.
http://scripts.sil.org/OFL
  -->
<path d="M794 316C750 391 691 477 629 561 599 530 558 494 514 459 561 399 614 314 658 243L955 243 955 171 688 171 688 10 613 10 613 171 374 171 374 243 565 243C537 299 499 366 462 418L405 377 363 430C439 485 529 562 584 621 530 691 474 758 423 812L317 815 326 890C467 884 673 875 872 864 884 888 895 910 902 929L971 892C939 813 861 694 789 604L726 637C763 685 801 741 834 796L515 808C632 679 768 499 867 351ZM74 115L74 744 143 744 143 646 359 646 359 115ZM143 185L288 185 288 576 143 576Z"/>
</svg>