<svg xmlns="http://www.w3.org/2000/svg" name="gid3567" data-unicode="呟"
    viewBox="0 0 1000 1000">
  <!--
© 2014-2021 Adobe (http://www.adobe.com/).
Noto is a trademark of Google Inc.
This Font Software is licensed under the SIL Open Font License, Version 1.1. This Font Software is distributed on an "AS IS" BASIS, WITHOUT WARRANTIES OR CONDITIONS OF ANY KIND, either express or implied. See the SIL Open Font License for the specific language, permissions and limitations governing your use of this Font Software.
http://scripts.sil.org/OFL
  -->
<path d="M794 346C750 421 691 507 629 591 599 560 558 524 514 489 561 429 614 344 658 273L955 273 955 201 688 201 688 40 613 40 613 201 374 201 374 273 565 273C537 329 499 396 462 448L405 407 363 460C439 515 529 592 584 651 530 721 474 788 423 842L317 845 326 920C467 914 673 905 872 894 884 918 895 940 902 959L971 922C939 843 861 724 789 634L726 667C763 715 801 771 834 826L515 838C632 709 768 529 867 381ZM74 145L74 774 143 774 143 676 359 676 359 145ZM143 215L288 215 288 606 143 606Z"/>
</svg>