<svg xmlns="http://www.w3.org/2000/svg" name="gid3568" data-unicode="呢"
    viewBox="0 0 1000 1000">
  <!--
© 2014-2021 Adobe (http://www.adobe.com/).
Noto is a trademark of Google Inc.
This Font Software is licensed under the SIL Open Font License, Version 1.1. This Font Software is distributed on an "AS IS" BASIS, WITHOUT WARRANTIES OR CONDITIONS OF ANY KIND, either express or implied. See the SIL Open Font License for the specific language, permissions and limitations governing your use of this Font Software.
http://scripts.sil.org/OFL
  -->
<path d="M482 154L843 154 843 298 482 298ZM412 87L412 429C412 580 401 776 283 911 300 920 330 939 343 951 465 809 482 591 482 429L482 365 914 365 914 87ZM876 466C821 514 727 567 636 610L636 403 565 403 565 838C565 925 589 948 679 948 698 948 822 948 842 948 923 948 943 908 952 769 931 764 901 752 886 739 882 859 875 880 837 880 810 880 706 880 686 880 643 880 636 874 636 838L636 676C741 631 855 576 934 519ZM71 132L71 792 139 792 139 714 325 714 325 132ZM139 204L259 204 259 641 139 641Z"/>
</svg>