<svg xmlns="http://www.w3.org/2000/svg" name="gid3582" data-unicode="呴"
    viewBox="0 0 1000 1000">
  <!--
© 2014-2021 Adobe (http://www.adobe.com/).
Noto is a trademark of Google Inc.
This Font Software is licensed under the SIL Open Font License, Version 1.1. This Font Software is distributed on an "AS IS" BASIS, WITHOUT WARRANTIES OR CONDITIONS OF ANY KIND, either express or implied. See the SIL Open Font License for the specific language, permissions and limitations governing your use of this Font Software.
http://scripts.sil.org/OFL
  -->
<path d="M74 145L74 777 141 777 141 683 344 683 344 398C361 410 384 428 395 438 408 423 420 407 432 389L432 789 499 789 499 724 724 724 724 388 433 388C458 352 481 312 503 269L856 269C843 679 829 832 798 867 787 881 775 884 756 883 734 883 678 883 618 878 631 899 641 933 642 956 698 958 755 959 787 955 822 952 844 943 865 913 904 865 917 705 932 240 932 229 932 199 932 199L536 199C555 154 573 106 587 58L513 40C476 167 417 292 344 377L344 145ZM499 453L656 453 656 659 499 659ZM141 215L275 215 275 614 141 614Z"/>
</svg>