<svg xmlns="http://www.w3.org/2000/svg"
    viewBox="0 0 1000 1000">
  <!--
© 2014-2021 Adobe (http://www.adobe.com/).
Noto is a trademark of Google Inc.
This Font Software is licensed under the SIL Open Font License, Version 1.1. This Font Software is distributed on an "AS IS" BASIS, WITHOUT WARRANTIES OR CONDITIONS OF ANY KIND, either express or implied. See the SIL Open Font License for the specific language, permissions and limitations governing your use of this Font Software.
http://scripts.sil.org/OFL
  -->
<path d="M378 79L378 153 807 153 807 829C807 847 801 853 781 853 760 854 693 855 620 853 631 875 643 908 647 929 739 930 800 928 835 916 870 904 883 881 883 829L883 153 964 153 964 79ZM491 343L642 343 642 585 491 585ZM426 276L426 717 491 717 491 651 707 651 707 276ZM76 102L76 762 144 762 144 684 343 684 343 102ZM144 174L274 174 274 611 144 611Z"/>
</svg>