<svg xmlns="http://www.w3.org/2000/svg" name="gid3584" data-unicode="呶"
    viewBox="0 0 1000 1000">
  <!--
© 2014-2021 Adobe (http://www.adobe.com/).
Noto is a trademark of Google Inc.
This Font Software is licensed under the SIL Open Font License, Version 1.1. This Font Software is distributed on an "AS IS" BASIS, WITHOUT WARRANTIES OR CONDITIONS OF ANY KIND, either express or implied. See the SIL Open Font License for the specific language, permissions and limitations governing your use of this Font Software.
http://scripts.sil.org/OFL
  -->
<path d="M698 213L638 221C659 390 690 547 739 677 683 783 613 860 531 908 546 921 565 944 577 961 653 912 718 845 772 757 813 841 862 910 925 961 937 943 960 916 976 904 907 854 854 777 812 683 879 544 923 362 940 128L898 119 886 121 609 121 609 187 870 187C854 346 823 481 778 593 740 480 715 350 698 213ZM435 41C425 103 413 174 399 247L312 247 312 311 386 311C361 441 332 570 309 659L367 680 379 632C408 651 437 672 465 694 417 794 353 863 273 904 287 918 305 943 314 960 399 911 467 840 518 738 552 768 581 797 601 823L643 769C620 740 586 706 546 673 587 564 613 426 624 251L584 245 572 247 462 247C476 177 489 108 500 47ZM450 311L556 311C546 438 524 544 492 631 460 608 426 586 394 567 412 489 431 400 450 311ZM73 144L73 767 131 767 131 680 293 680 293 144ZM131 212L234 212 234 612 131 612Z"/>
</svg>