<svg xmlns="http://www.w3.org/2000/svg"
    viewBox="0 0 1000 1000">
  <!--
© 2014-2021 Adobe (http://www.adobe.com/).
Noto is a trademark of Google Inc.
This Font Software is licensed under the SIL Open Font License, Version 1.1. This Font Software is distributed on an "AS IS" BASIS, WITHOUT WARRANTIES OR CONDITIONS OF ANY KIND, either express or implied. See the SIL Open Font License for the specific language, permissions and limitations governing your use of this Font Software.
http://scripts.sil.org/OFL
  -->
<path d="M473 374L623 374 623 552 473 552ZM473 306L473 134 623 134 623 306ZM845 374L845 552 695 552 695 374ZM845 306L695 306 695 134 845 134ZM401 65L401 674 473 674 473 622 623 622 623 931 695 931 695 622 845 622 845 668 920 668 920 65ZM76 102L76 762 145 762 145 684 325 684 325 102ZM145 174L257 174 257 611 145 611Z"/>
</svg>