<svg xmlns="http://www.w3.org/2000/svg"
    viewBox="0 0 1000 1000">
  <!--
© 2014-2021 Adobe (http://www.adobe.com/).
Noto is a trademark of Google Inc.
This Font Software is licensed under the SIL Open Font License, Version 1.1. This Font Software is distributed on an "AS IS" BASIS, WITHOUT WARRANTIES OR CONDITIONS OF ANY KIND, either express or implied. See the SIL Open Font License for the specific language, permissions and limitations governing your use of this Font Software.
http://scripts.sil.org/OFL
  -->
<path d="M496 79C594 196 778 326 935 398 949 377 966 350 985 332 823 267 643 142 530 8L453 8C371 125 197 262 19 344 36 360 55 387 65 405 239 321 409 190 496 79ZM299 267L299 335 709 335 709 267ZM135 425L135 853 204 853 204 768 446 768 446 425ZM204 492L378 492 378 701 204 701ZM533 425L533 932 604 932 604 491 806 491 806 737C806 750 802 753 788 753 773 754 725 754 668 752 678 772 688 800 691 821 766 821 813 821 842 809 871 797 878 776 878 738L878 425Z"/>
</svg>