<svg xmlns="http://www.w3.org/2000/svg"
    viewBox="0 0 1000 1000">
  <!--
© 2014-2021 Adobe (http://www.adobe.com/).
Noto is a trademark of Google Inc.
This Font Software is licensed under the SIL Open Font License, Version 1.1. This Font Software is distributed on an "AS IS" BASIS, WITHOUT WARRANTIES OR CONDITIONS OF ANY KIND, either express or implied. See the SIL Open Font License for the specific language, permissions and limitations governing your use of this Font Software.
http://scripts.sil.org/OFL
  -->
<path d="M76 105L76 750 147 750 147 653 356 653 356 105ZM147 175L285 175 285 583 147 583ZM474 56C457 180 425 302 371 381 389 389 420 408 433 419 459 377 481 325 500 267L629 267 629 444 381 444 381 513 594 513C532 641 425 765 320 827 336 841 359 867 371 885 468 820 563 706 629 581L629 929 702 929 702 579C760 696 842 809 921 874 934 855 959 828 976 815 887 752 792 632 735 513L959 513 959 444 702 444 702 267 908 267 908 198 702 198 702 10 629 10 629 198 519 198C529 156 538 112 545 68Z"/>
</svg>