<svg xmlns="http://www.w3.org/2000/svg"
    viewBox="0 0 1000 1000">
  <!--
© 2014-2021 Adobe (http://www.adobe.com/).
Noto is a trademark of Google Inc.
This Font Software is licensed under the SIL Open Font License, Version 1.1. This Font Software is distributed on an "AS IS" BASIS, WITHOUT WARRANTIES OR CONDITIONS OF ANY KIND, either express or implied. See the SIL Open Font License for the specific language, permissions and limitations governing your use of this Font Software.
http://scripts.sil.org/OFL
  -->
<path d="M74 115L74 739 141 739 141 663 339 663 339 115ZM141 183L272 183 272 593 141 593ZM387 67L387 931 454 931 454 869 853 869 853 923 923 923 923 67ZM454 801L454 135 853 135 853 801ZM622 170L622 329 481 329 481 391 621 391C616 496 588 605 459 689 473 699 494 721 502 735 592 675 638 603 661 527 683 598 724 672 801 733 812 719 836 697 848 689 724 595 699 474 695 391L827 391 827 329 683 329 683 170Z"/>
</svg>