<svg xmlns="http://www.w3.org/2000/svg" name="gid3653" data-unicode="哢"
    viewBox="0 0 1000 1000">
  <!--
© 2014-2021 Adobe (http://www.adobe.com/).
Noto is a trademark of Google Inc.
This Font Software is licensed under the SIL Open Font License, Version 1.1. This Font Software is distributed on an "AS IS" BASIS, WITHOUT WARRANTIES OR CONDITIONS OF ANY KIND, either express or implied. See the SIL Open Font License for the specific language, permissions and limitations governing your use of this Font Software.
http://scripts.sil.org/OFL
  -->
<path d="M413 263L413 326 612 326 612 433 357 433 357 498 952 498 952 433 686 433 686 326 904 326 904 263 686 263 686 170 939 170 939 104 377 104 377 170 612 170 612 263ZM74 133L74 749 139 749 139 665 331 665 331 705 479 705C468 775 425 856 279 911 296 924 316 947 327 963 494 893 541 794 552 705L742 705 742 960 813 960 813 705 963 705 963 636 813 636 813 528 742 528 742 636 555 636 555 530 483 530 483 636 340 636 340 133ZM139 202L275 202 275 595 139 595Z"/>
</svg>