<svg xmlns="http://www.w3.org/2000/svg"
    viewBox="0 0 1000 1000">
  <!--
© 2014-2021 Adobe (http://www.adobe.com/).
Noto is a trademark of Google Inc.
This Font Software is licensed under the SIL Open Font License, Version 1.1. This Font Software is distributed on an "AS IS" BASIS, WITHOUT WARRANTIES OR CONDITIONS OF ANY KIND, either express or implied. See the SIL Open Font License for the specific language, permissions and limitations governing your use of this Font Software.
http://scripts.sil.org/OFL
  -->
<path d="M471 321L625 321 625 449 471 449ZM690 321L840 321 840 449 690 449ZM471 132L625 132 625 258 471 258ZM690 132L840 132 840 258 690 258ZM328 828L328 897 962 897 962 828 695 828 695 690 927 690 927 622 695 622 695 548 690 548 690 515 912 515 912 66 403 66 403 515 625 515 625 548 621 548 621 622 390 622 390 690 621 690 621 828ZM74 105L74 760 143 760 143 664 324 664 324 105ZM143 175L255 175 255 594 143 594Z"/>
</svg>