<svg xmlns="http://www.w3.org/2000/svg" name="gid3663" data-unicode="哱"
    viewBox="0 0 1000 1000">
  <!--
© 2014-2021 Adobe (http://www.adobe.com/).
Noto is a trademark of Google Inc.
This Font Software is licensed under the SIL Open Font License, Version 1.1. This Font Software is distributed on an "AS IS" BASIS, WITHOUT WARRANTIES OR CONDITIONS OF ANY KIND, either express or implied. See the SIL Open Font License for the specific language, permissions and limitations governing your use of this Font Software.
http://scripts.sil.org/OFL
  -->
<path d="M73 140L73 765 140 765 140 689 339 689 339 140ZM140 209L271 209 271 619 140 619ZM400 143L400 210 622 210 622 304 380 304 380 481 448 481 448 370 879 370 879 481 949 481 949 304 696 304 696 210 934 210 934 143 696 143 696 40 622 40 622 143ZM378 660L378 727 625 727 625 878C625 890 621 893 607 894 593 894 548 894 495 893 506 912 516 941 519 961 586 961 632 961 661 950 691 939 699 919 699 879L699 727 960 727 960 660 699 660 699 645C757 605 823 548 869 494L821 455 805 460 483 460 483 523 746 523C721 550 692 577 665 598L625 598 625 660Z"/>
</svg>