<svg xmlns="http://www.w3.org/2000/svg" name="gid3669" data-unicode="哽"
    viewBox="0 0 1000 1000">
  <!--
© 2014-2021 Adobe (http://www.adobe.com/).
Noto is a trademark of Google Inc.
This Font Software is licensed under the SIL Open Font License, Version 1.1. This Font Software is distributed on an "AS IS" BASIS, WITHOUT WARRANTIES OR CONDITIONS OF ANY KIND, either express or implied. See the SIL Open Font License for the specific language, permissions and limitations governing your use of this Font Software.
http://scripts.sil.org/OFL
  -->
<path d="M453 635L386 654C413 711 449 758 493 798 442 834 372 864 272 886 287 901 306 930 315 947 420 920 496 884 551 842 645 904 769 939 923 956 932 935 951 905 967 888 816 876 694 846 603 793 651 737 672 673 681 606L922 606 922 234 687 234 687 153 959 153 959 88 365 88 365 153 615 153 615 234 388 234 388 606 609 606C600 658 583 707 544 752 505 719 475 680 453 635ZM457 448L615 448 615 504 614 545 457 545ZM687 448L851 448 851 545 686 545 687 504ZM457 294L615 294 615 391 457 391ZM687 294L851 294 851 391 687 391ZM73 135L73 790 138 790 138 694 321 694 321 135ZM138 205L257 205 257 624 138 624Z"/>
</svg>