<svg xmlns="http://www.w3.org/2000/svg" name="gid3693" data-unicode="唱"
    viewBox="0 0 1000 1000">
  <!--
© 2014-2021 Adobe (http://www.adobe.com/).
Noto is a trademark of Google Inc.
This Font Software is licensed under the SIL Open Font License, Version 1.1. This Font Software is distributed on an "AS IS" BASIS, WITHOUT WARRANTIES OR CONDITIONS OF ANY KIND, either express or implied. See the SIL Open Font License for the specific language, permissions and limitations governing your use of this Font Software.
http://scripts.sil.org/OFL
  -->
<path d="M496 293L811 293 811 388 496 388ZM496 141L811 141 811 236 496 236ZM424 81L424 449 886 449 886 81ZM79 135L79 790 149 790 149 694 336 694 336 135ZM149 205L265 205 265 624 149 624ZM466 748L846 748 846 854 466 854ZM466 684L466 584 846 584 846 684ZM392 519L392 959 466 959 466 919 846 919 846 954 922 954 922 519Z"/>
</svg>