<svg xmlns="http://www.w3.org/2000/svg" name="gid3698" data-unicode="唸"
    viewBox="0 0 1000 1000">
  <!--
© 2014-2021 Adobe (http://www.adobe.com/).
Noto is a trademark of Google Inc.
This Font Software is licensed under the SIL Open Font License, Version 1.1. This Font Software is distributed on an "AS IS" BASIS, WITHOUT WARRANTIES OR CONDITIONS OF ANY KIND, either express or implied. See the SIL Open Font License for the specific language, permissions and limitations governing your use of this Font Software.
http://scripts.sil.org/OFL
  -->
<path d="M496 669L496 860C496 931 515 951 597 951 614 951 709 951 726 951 790 951 811 924 818 813 799 808 770 798 755 787 752 875 747 888 718 888 698 888 620 888 605 888 572 888 566 884 566 860L566 669ZM385 685C367 760 330 840 271 886L331 926C396 874 429 788 450 706ZM510 593C577 625 656 680 695 721L741 672C701 633 623 581 555 549ZM766 707C827 772 888 864 912 927L974 889C947 827 886 738 823 673ZM74 146L74 764 139 764 139 677 331 677 331 316C339 329 347 342 352 353 395 328 439 297 479 265L479 319 785 319 785 259 486 259C547 209 599 155 634 107 700 191 820 291 924 351 934 332 951 304 965 287 858 234 741 137 665 41L597 41C544 124 438 222 331 283L331 146ZM389 395L389 458 779 458C757 505 729 562 703 609L769 626C805 559 846 476 875 406L824 392 813 395ZM139 214L265 214 265 609 139 609Z"/>
</svg>