<svg xmlns="http://www.w3.org/2000/svg" name="gid3705" data-unicode="啁"
    viewBox="0 0 1000 1000">
  <!--
© 2014-2021 Adobe (http://www.adobe.com/).
Noto is a trademark of Google Inc.
This Font Software is licensed under the SIL Open Font License, Version 1.1. This Font Software is distributed on an "AS IS" BASIS, WITHOUT WARRANTIES OR CONDITIONS OF ANY KIND, either express or implied. See the SIL Open Font License for the specific language, permissions and limitations governing your use of this Font Software.
http://scripts.sil.org/OFL
  -->
<path d="M74 129L74 740 139 740 139 646 318 646 318 129ZM139 198L253 198 253 577 139 577ZM387 85L387 458C387 606 376 791 257 919 272 927 300 949 311 961 437 826 454 616 454 458L454 152 845 152 845 871C845 886 840 891 825 892 811 893 764 893 712 891 722 910 733 941 736 960 807 960 850 959 877 947 904 934 913 913 913 872L913 85ZM614 176L614 259 494 259 494 316 614 316 614 404 494 404 494 461 614 461 614 532 676 532 676 461 805 461 805 404 676 404 676 316 805 316 805 259 676 259 676 176ZM509 565L509 845 566 845 566 799 784 799 784 565ZM566 621L725 621 725 742 566 742Z"/>
</svg>