<svg xmlns="http://www.w3.org/2000/svg" name="gid3708" data-unicode="商"
    viewBox="0 0 1000 1000">
  <!--
© 2014-2021 Adobe (http://www.adobe.com/).
Noto is a trademark of Google Inc.
This Font Software is licensed under the SIL Open Font License, Version 1.1. This Font Software is distributed on an "AS IS" BASIS, WITHOUT WARRANTIES OR CONDITIONS OF ANY KIND, either express or implied. See the SIL Open Font License for the specific language, permissions and limitations governing your use of this Font Software.
http://scripts.sil.org/OFL
  -->
<path d="M111 310L111 959 183 959 183 376 361 376C352 469 315 515 189 541 202 553 219 578 225 594 373 559 417 496 430 376L549 376 549 476C549 538 566 555 637 555 651 555 726 555 741 555 794 555 812 534 819 454 801 450 774 441 761 431 758 490 754 497 733 497 717 497 657 497 645 497 619 497 616 494 616 475L616 376 826 376 826 867C826 882 822 887 804 888 786 889 726 889 660 887 671 907 682 940 686 960 768 960 824 959 857 947 889 935 899 911 899 867L899 310 686 310C705 280 725 242 744 204L934 204 934 135 535 135 535 40 458 40 458 135 69 135 69 204 262 204C280 236 298 278 308 310ZM342 204L656 204C642 238 621 281 604 310L390 310C381 280 362 239 342 204ZM382 665L626 665 626 793 382 793ZM314 606L314 914 382 914 382 852 695 852 695 606Z"/>
</svg>