<svg xmlns="http://www.w3.org/2000/svg"
    viewBox="0 0 1000 1000">
  <!--
© 2014-2021 Adobe (http://www.adobe.com/).
Noto is a trademark of Google Inc.
This Font Software is licensed under the SIL Open Font License, Version 1.1. This Font Software is distributed on an "AS IS" BASIS, WITHOUT WARRANTIES OR CONDITIONS OF ANY KIND, either express or implied. See the SIL Open Font License for the specific language, permissions and limitations governing your use of this Font Software.
http://scripts.sil.org/OFL
  -->
<path d="M308 495L308 849 378 849 378 789 684 789 684 495ZM378 559L613 559 613 725 378 725ZM383 253L383 345 166 345 166 253ZM383 198L166 198 166 113 383 113ZM838 253L838 346 615 346 615 253ZM838 198L615 198 615 113 838 113ZM878 53L544 53 544 406 838 406 838 829C838 847 832 853 813 854 794 854 729 855 662 853 673 873 686 909 689 930 777 930 835 929 869 916 902 903 914 879 914 829L914 53ZM92 53L92 931 166 931 166 405 453 405 453 53Z"/>
</svg>