<svg xmlns="http://www.w3.org/2000/svg" name="gid3725" data-unicode="啞"
    viewBox="0 0 1000 1000">
  <!--
© 2014-2021 Adobe (http://www.adobe.com/).
Noto is a trademark of Google Inc.
This Font Software is licensed under the SIL Open Font License, Version 1.1. This Font Software is distributed on an "AS IS" BASIS, WITHOUT WARRANTIES OR CONDITIONS OF ANY KIND, either express or implied. See the SIL Open Font License for the specific language, permissions and limitations governing your use of this Font Software.
http://scripts.sil.org/OFL
  -->
<path d="M72 138L72 754 137 754 137 672 320 672 320 138ZM137 206L254 206 254 605 137 605ZM697 624L697 865 592 865 592 624 450 624 450 378 592 378 592 155 697 155 697 378 846 378 846 624ZM306 865L306 934 963 934 963 865 766 865 766 691 917 691 917 311 766 311 766 155 950 155 950 86 346 86 346 155 524 155 524 311 382 311 382 690 524 690 524 865Z"/>
</svg>