<svg xmlns="http://www.w3.org/2000/svg" name="gid3728" data-unicode="啣"
    viewBox="0 0 1000 1000">
  <!--
© 2014-2021 Adobe (http://www.adobe.com/).
Noto is a trademark of Google Inc.
This Font Software is licensed under the SIL Open Font License, Version 1.1. This Font Software is distributed on an "AS IS" BASIS, WITHOUT WARRANTIES OR CONDITIONS OF ANY KIND, either express or implied. See the SIL Open Font License for the specific language, permissions and limitations governing your use of this Font Software.
http://scripts.sil.org/OFL
  -->
<path d="M266 820L283 889C385 870 527 844 662 818L657 756 536 776 536 619 643 619 643 559 536 559 536 440 654 440 654 376 536 376 536 228 648 228 648 164 439 164C449 127 458 89 465 50L400 39C382 141 352 243 306 311 323 318 353 334 365 343 384 311 402 271 418 228L473 228 473 376 323 376 323 440 473 440 473 787 404 798 404 510 349 510 349 807ZM674 133L674 961 739 961 739 198 868 198 868 736C868 746 864 750 854 750 845 751 814 751 779 750 787 767 795 794 797 811 851 812 885 811 906 800 928 788 934 770 934 736L934 133ZM73 146L73 774 132 774 132 696 303 696 303 146ZM132 214L243 214 243 627 132 627Z"/>
</svg>