<svg xmlns="http://www.w3.org/2000/svg" name="gid3732" data-unicode="啼"
    viewBox="0 0 1000 1000">
  <!--
© 2014-2021 Adobe (http://www.adobe.com/).
Noto is a trademark of Google Inc.
This Font Software is licensed under the SIL Open Font License, Version 1.1. This Font Software is distributed on an "AS IS" BASIS, WITHOUT WARRANTIES OR CONDITIONS OF ANY KIND, either express or implied. See the SIL Open Font License for the specific language, permissions and limitations governing your use of this Font Software.
http://scripts.sil.org/OFL
  -->
<path d="M358 345L358 510 425 510 425 406 875 406 875 510 945 510 945 345 791 345C811 312 833 266 854 223L827 215 952 215 952 151 684 151 684 43 612 43 612 151 362 151 362 215 484 215 456 224C476 261 494 309 502 345ZM404 543L404 869 473 869 473 608 612 608 612 956 684 956 684 608 829 608 829 793C829 803 826 806 815 806 805 806 773 806 734 806 743 825 753 851 756 871 810 871 845 870 869 859 893 848 898 828 898 794L898 543 684 543 684 455 612 455 612 543ZM776 215C762 253 741 303 723 336L752 345 542 345 572 335C565 302 547 254 525 215ZM75 146L75 764 138 764 138 680 324 680 324 146ZM138 214L258 214 258 613 138 613Z"/>
</svg>