<svg xmlns="http://www.w3.org/2000/svg"
    viewBox="0 0 1000 1000">
  <!--
© 2014-2021 Adobe (http://www.adobe.com/).
Noto is a trademark of Google Inc.
This Font Software is licensed under the SIL Open Font License, Version 1.1. This Font Software is distributed on an "AS IS" BASIS, WITHOUT WARRANTIES OR CONDITIONS OF ANY KIND, either express or implied. See the SIL Open Font License for the specific language, permissions and limitations governing your use of this Font Software.
http://scripts.sil.org/OFL
  -->
<path d="M358 315L358 480 425 480 425 376 875 376 875 480 945 480 945 315 791 315C811 282 833 236 854 193L827 185 952 185 952 121 684 121 684 13 612 13 612 121 362 121 362 185 484 185 456 194C476 231 494 279 502 315ZM404 513L404 839 473 839 473 578 612 578 612 926 684 926 684 578 829 578 829 763C829 773 826 776 815 776 805 776 773 776 734 776 743 795 753 821 756 841 810 841 845 840 869 829 893 818 898 798 898 764L898 513 684 513 684 425 612 425 612 513ZM776 185C762 223 741 273 723 306L752 315 542 315 572 305C565 272 547 224 525 185ZM75 116L75 734 138 734 138 650 324 650 324 116ZM138 184L258 184 258 583 138 583Z"/>
</svg>