<svg xmlns="http://www.w3.org/2000/svg" name="gid3738" data-unicode="喂"
    viewBox="0 0 1000 1000">
  <!--
© 2014-2021 Adobe (http://www.adobe.com/).
Noto is a trademark of Google Inc.
This Font Software is licensed under the SIL Open Font License, Version 1.1. This Font Software is distributed on an "AS IS" BASIS, WITHOUT WARRANTIES OR CONDITIONS OF ANY KIND, either express or implied. See the SIL Open Font License for the specific language, permissions and limitations governing your use of this Font Software.
http://scripts.sil.org/OFL
  -->
<path d="M413 83L413 456 909 456 909 83ZM73 131L73 765 140 765 140 678 337 678 337 131ZM140 200L269 200 269 608 140 608ZM894 634C859 663 803 703 756 731 731 692 710 649 695 602L961 602 961 535 362 535 362 602 448 602 448 867 350 881 367 951C463 934 592 911 714 888L711 824 520 855 520 602 627 602C679 773 774 902 924 963 935 944 955 917 972 903 899 877 839 834 791 778 839 752 896 718 940 683ZM480 296L624 296 624 396 480 396ZM690 296L840 296 840 396 690 396ZM480 142L624 142 624 241 480 241ZM690 142L840 142 840 241 690 241Z"/>
</svg>