<svg xmlns="http://www.w3.org/2000/svg"
    viewBox="0 0 1000 1000">
  <!--
© 2014-2021 Adobe (http://www.adobe.com/).
Noto is a trademark of Google Inc.
This Font Software is licensed under the SIL Open Font License, Version 1.1. This Font Software is distributed on an "AS IS" BASIS, WITHOUT WARRANTIES OR CONDITIONS OF ANY KIND, either express or implied. See the SIL Open Font License for the specific language, permissions and limitations governing your use of this Font Software.
http://scripts.sil.org/OFL
  -->
<path d="M191 657L191 930 265 930 265 896 739 896 739 927 815 927 815 657ZM265 835L265 717 739 717 739 835ZM676 8C662 41 635 90 614 121L371 121 382 117C370 87 343 43 314 11L248 31C269 58 290 93 303 121L109 121 109 179 459 179 459 246 170 246 170 303 459 303 459 372 83 372 83 430 260 430 203 445C224 472 246 509 256 537L53 537 53 598 950 598 950 537 735 537C754 512 777 479 798 444L736 430 924 430 924 372 536 372 536 303 831 303 831 246 536 246 536 179 893 179 893 121 692 121C712 94 733 60 753 26ZM459 430L459 537 294 537 332 525C321 498 299 460 273 430ZM536 430L721 430C706 460 681 501 662 529L698 537 536 537Z"/>
</svg>