<svg xmlns="http://www.w3.org/2000/svg" name="gid3749" data-unicode="喑"
    viewBox="0 0 1000 1000">
  <!--
© 2014-2021 Adobe (http://www.adobe.com/).
Noto is a trademark of Google Inc.
This Font Software is licensed under the SIL Open Font License, Version 1.1. This Font Software is distributed on an "AS IS" BASIS, WITHOUT WARRANTIES OR CONDITIONS OF ANY KIND, either express or implied. See the SIL Open Font License for the specific language, permissions and limitations governing your use of this Font Software.
http://scripts.sil.org/OFL
  -->
<path d="M73 144L73 770 140 770 140 682 342 682 342 144ZM140 214L275 214 275 613 140 613ZM629 47L629 141 390 141 390 208 946 208 946 141 703 141 703 47ZM787 209C775 255 751 324 731 366L792 380 538 380 594 364C587 323 564 259 540 212L475 229C497 275 519 338 526 380L363 380 363 447 968 447 968 380 797 380C817 341 840 280 863 225ZM518 750L825 750 825 856 518 856ZM518 692L518 591 825 591 825 692ZM449 528L449 960 518 960 518 919 825 919 825 957 896 957 896 528Z"/>
</svg>