<svg xmlns="http://www.w3.org/2000/svg" name="gid3754" data-unicode="喘"
    viewBox="0 0 1000 1000">
  <!--
© 2014-2021 Adobe (http://www.adobe.com/).
Noto is a trademark of Google Inc.
This Font Software is licensed under the SIL Open Font License, Version 1.1. This Font Software is distributed on an "AS IS" BASIS, WITHOUT WARRANTIES OR CONDITIONS OF ANY KIND, either express or implied. See the SIL Open Font License for the specific language, permissions and limitations governing your use of this Font Software.
http://scripts.sil.org/OFL
  -->
<path d="M73 135L73 790 140 790 140 694 304 694 304 135ZM140 205L239 205 239 624 140 624ZM378 562L378 960 444 960 444 622 539 622 539 948 599 948 599 622 700 622 700 948 759 948 759 622 862 622 862 886C862 895 860 897 851 897 842 898 816 898 784 897 793 915 802 941 805 959 851 959 882 958 903 947 925 936 930 918 930 886L930 562 645 562C656 533 668 498 679 464L961 464 961 398 345 398 345 464 598 464C591 497 583 532 575 562ZM384 87L384 321 920 321 920 87 849 87 849 262 680 262 680 40 609 40 609 262 452 262 452 87Z"/>
</svg>