<svg xmlns="http://www.w3.org/2000/svg" name="gid3757" data-unicode="喜"
    viewBox="0 0 1000 1000">
  <!--
© 2014-2021 Adobe (http://www.adobe.com/).
Noto is a trademark of Google Inc.
This Font Software is licensed under the SIL Open Font License, Version 1.1. This Font Software is distributed on an "AS IS" BASIS, WITHOUT WARRANTIES OR CONDITIONS OF ANY KIND, either express or implied. See the SIL Open Font License for the specific language, permissions and limitations governing your use of this Font Software.
http://scripts.sil.org/OFL
  -->
<path d="M269 395L731 395 731 475 269 475ZM180 718L180 960 254 960 254 928 749 928 749 959 826 959 826 718ZM254 874L254 773 749 773 749 874ZM459 39L459 111 79 111 79 168 459 168 459 237 151 237 151 293 857 293 857 237 536 237 536 168 924 168 924 111 536 111 536 39ZM197 343L197 527 304 527 269 537C281 556 293 580 301 602L48 602 48 663 951 663 951 602 691 602C706 581 721 556 736 531L717 527 806 527 806 343ZM379 602C373 580 358 551 342 527L651 527C642 550 628 579 615 602Z"/>
</svg>