<svg xmlns="http://www.w3.org/2000/svg"
    viewBox="0 0 1000 1000">
  <!--
© 2014-2021 Adobe (http://www.adobe.com/).
Noto is a trademark of Google Inc.
This Font Software is licensed under the SIL Open Font License, Version 1.1. This Font Software is distributed on an "AS IS" BASIS, WITHOUT WARRANTIES OR CONDITIONS OF ANY KIND, either express or implied. See the SIL Open Font License for the specific language, permissions and limitations governing your use of this Font Software.
http://scripts.sil.org/OFL
  -->
<path d="M269 365L731 365 731 445 269 445ZM180 688L180 930 254 930 254 898 749 898 749 929 826 929 826 688ZM254 844L254 743 749 743 749 844ZM459 9L459 81 79 81 79 138 459 138 459 207 151 207 151 263 857 263 857 207 536 207 536 138 924 138 924 81 536 81 536 9ZM197 313L197 497 304 497 269 507C281 526 293 550 301 572L48 572 48 633 951 633 951 572 691 572C706 551 721 526 736 501L717 497 806 497 806 313ZM379 572C373 550 358 521 342 497L651 497C642 520 628 549 615 572Z"/>
</svg>