<svg xmlns="http://www.w3.org/2000/svg" name="gid3765" data-unicode="喩"
    viewBox="0 0 1000 1000">
  <!--
© 2014-2021 Adobe (http://www.adobe.com/).
Noto is a trademark of Google Inc.
This Font Software is licensed under the SIL Open Font License, Version 1.1. This Font Software is distributed on an "AS IS" BASIS, WITHOUT WARRANTIES OR CONDITIONS OF ANY KIND, either express or implied. See the SIL Open Font License for the specific language, permissions and limitations governing your use of this Font Software.
http://scripts.sil.org/OFL
  -->
<path d="M722 449C703 512 663 613 627 693 679 785 728 892 747 960L809 936C788 874 739 773 692 692 723 621 760 537 785 463ZM878 449C857 512 814 613 775 693 833 784 885 892 907 960L969 935C945 874 892 773 842 692 875 622 915 538 941 464ZM410 594C448 617 490 650 511 674L548 638C528 614 484 582 447 562ZM73 146L73 765 132 765 132 680 304 680 304 384C315 395 325 408 332 418 382 391 426 360 465 327L465 385 799 385 799 325C837 358 878 386 920 409 933 391 958 366 975 354 859 300 742 191 687 71L391 71 391 136 542 136C494 213 415 293 304 354L304 146ZM626 136L642 136C680 204 734 269 796 322L471 322C538 265 589 201 626 136ZM349 465L349 960 408 960 408 736C445 760 487 792 507 818L546 781C524 756 478 721 439 700L408 727 408 522 554 522 554 892C554 901 551 904 541 904 532 905 502 905 467 904 475 920 483 945 485 961 534 961 566 960 587 950 608 940 613 923 613 892L613 465ZM132 214L244 214 244 613 132 613Z"/>
</svg>