<svg xmlns="http://www.w3.org/2000/svg"
    viewBox="0 0 1000 1000">
  <!--
© 2014-2021 Adobe (http://www.adobe.com/).
Noto is a trademark of Google Inc.
This Font Software is licensed under the SIL Open Font License, Version 1.1. This Font Software is distributed on an "AS IS" BASIS, WITHOUT WARRANTIES OR CONDITIONS OF ANY KIND, either express or implied. See the SIL Open Font License for the specific language, permissions and limitations governing your use of this Font Software.
http://scripts.sil.org/OFL
  -->
<path d="M349 356L659 356 659 438 349 438ZM788 18C639 47 360 62 133 64 140 79 148 105 149 122 224 122 305 120 385 116 374 141 362 163 347 185L70 185 70 248 298 248C232 319 145 373 45 410 61 423 88 450 99 465 165 437 226 402 280 359L280 487 731 487 731 360C786 403 850 437 915 459 926 441 946 415 962 400 861 373 763 316 700 248L932 248 932 185 430 185C444 162 455 138 466 112 605 104 739 91 838 72ZM389 248L623 248C637 268 654 288 672 307L337 307C356 289 373 269 389 248ZM123 538L123 932 195 932 195 599 811 599 811 850C811 862 807 866 792 867 777 868 726 869 668 867 678 885 689 912 693 931 766 931 816 931 846 919 877 909 885 889 885 850L885 538ZM379 709L623 709 623 798 379 798ZM313 660L313 896 379 896 379 847 691 847 691 660Z"/>
</svg>