<svg xmlns="http://www.w3.org/2000/svg" name="gid3771" data-unicode="喰"
    viewBox="0 0 1000 1000">
  <!--
© 2014-2021 Adobe (http://www.adobe.com/).
Noto is a trademark of Google Inc.
This Font Software is licensed under the SIL Open Font License, Version 1.1. This Font Software is distributed on an "AS IS" BASIS, WITHOUT WARRANTIES OR CONDITIONS OF ANY KIND, either express or implied. See the SIL Open Font License for the specific language, permissions and limitations governing your use of this Font Software.
http://scripts.sil.org/OFL
  -->
<path d="M503 407L794 407 794 483 503 483ZM503 611L503 534 794 534 794 611ZM889 653C849 686 786 728 733 759 710 731 690 700 675 667L865 667 865 351 433 351 433 866 335 879 352 949C448 933 580 912 706 892L703 827 503 856 503 667 608 667C664 811 769 913 922 960 931 941 951 913 967 899 890 880 825 846 773 800 827 771 892 732 943 692ZM75 150L75 750 143 750 143 665 343 665 343 343C352 356 360 371 365 382 422 349 478 305 526 258L526 284 773 284 773 259C823 305 878 347 930 378 941 357 957 330 973 311 865 256 750 150 677 42L606 42C556 136 453 245 343 310L343 150ZM645 113C671 152 706 193 745 232L552 232C589 192 622 151 645 113ZM143 219L275 219 275 596 143 596Z"/>
</svg>