<svg xmlns="http://www.w3.org/2000/svg" name="gid3783" data-unicode="嗌"
    viewBox="0 0 1000 1000">
  <!--
© 2014-2021 Adobe (http://www.adobe.com/).
Noto is a trademark of Google Inc.
This Font Software is licensed under the SIL Open Font License, Version 1.1. This Font Software is distributed on an "AS IS" BASIS, WITHOUT WARRANTIES OR CONDITIONS OF ANY KIND, either express or implied. See the SIL Open Font License for the specific language, permissions and limitations governing your use of this Font Software.
http://scripts.sil.org/OFL
  -->
<path d="M470 251L470 314 805 314 805 251ZM477 103C446 181 387 251 320 297 336 308 361 334 373 347 442 294 508 210 546 120ZM472 419C442 505 381 580 311 631L311 144 73 144 73 749 136 749 136 666 311 666 311 648C326 661 344 681 353 691 369 679 385 666 400 652L400 871 301 871 301 936 960 936 960 871 882 871 882 643C897 655 912 666 928 675 939 658 964 633 980 621 897 579 826 492 800 388L566 388 566 453 750 453C772 519 811 578 859 623L428 623C476 571 517 507 542 437ZM136 212L247 212 247 597 136 597ZM462 871L462 686 543 686 543 871ZM598 871L598 686 678 686 678 871ZM734 871L734 686 816 686 816 871ZM571 70L571 134 740 134C773 220 840 292 916 334 928 318 953 294 970 284 887 244 815 166 788 70Z"/>
</svg>