<svg xmlns="http://www.w3.org/2000/svg" name="gid3788" data-unicode="嗔"
    viewBox="0 0 1000 1000">
  <!--
© 2014-2021 Adobe (http://www.adobe.com/).
Noto is a trademark of Google Inc.
This Font Software is licensed under the SIL Open Font License, Version 1.1. This Font Software is distributed on an "AS IS" BASIS, WITHOUT WARRANTIES OR CONDITIONS OF ANY KIND, either express or implied. See the SIL Open Font License for the specific language, permissions and limitations governing your use of this Font Software.
http://scripts.sil.org/OFL
  -->
<path d="M568 469L823 469 823 525 568 525ZM568 569L823 569 823 626 568 626ZM568 370L823 370 823 425 568 425ZM501 323L501 673 891 673 891 323ZM514 800C463 844 371 883 288 908 304 920 330 948 342 962 425 931 525 880 583 824ZM843 62C759 86 610 104 478 116L478 40 413 40 413 185C413 255 444 270 566 270 592 270 817 270 845 270 927 270 950 253 958 177 940 174 915 166 900 157 896 210 886 218 838 218 791 218 601 218 566 218 492 218 478 212 478 184L478 166C619 157 784 137 891 108ZM715 832C781 867 864 924 908 961L968 921C923 885 840 832 773 797ZM373 348L373 797 962 797 962 733 438 733 438 348ZM75 146L75 772 138 772 138 687 324 687 324 146ZM138 214L259 214 259 619 138 619Z"/>
</svg>