<svg xmlns="http://www.w3.org/2000/svg"
    viewBox="0 0 1000 1000">
  <!--
© 2014-2021 Adobe (http://www.adobe.com/).
Noto is a trademark of Google Inc.
This Font Software is licensed under the SIL Open Font License, Version 1.1. This Font Software is distributed on an "AS IS" BASIS, WITHOUT WARRANTIES OR CONDITIONS OF ANY KIND, either express or implied. See the SIL Open Font License for the specific language, permissions and limitations governing your use of this Font Software.
http://scripts.sil.org/OFL
  -->
<path d="M357 443L357 507 467 507C427 651 355 770 253 847 270 859 299 886 311 899 394 830 461 733 508 614L508 664 659 664 659 832 419 832 419 897 963 897 963 832 731 832 731 664 921 664 921 600 514 600C525 570 535 539 544 507L963 507 963 443 695 443 695 354 917 354 917 293 695 293 695 213 947 213 947 150 799 150C824 118 853 73 879 31L804 9C787 47 756 104 731 139L765 150 556 150 584 136C570 100 538 48 505 10L446 38C471 71 497 115 513 150L385 150 385 213 623 213 623 293 410 293 410 354 623 354 623 443ZM74 108L74 733 139 733 139 645 340 645 340 108ZM139 177L275 177 275 576 139 576Z"/>
</svg>