<svg xmlns="http://www.w3.org/2000/svg" name="gid3796" data-unicode="嗟"
    viewBox="0 0 1000 1000">
  <!--
© 2014-2021 Adobe (http://www.adobe.com/).
Noto is a trademark of Google Inc.
This Font Software is licensed under the SIL Open Font License, Version 1.1. This Font Software is distributed on an "AS IS" BASIS, WITHOUT WARRANTIES OR CONDITIONS OF ANY KIND, either express or implied. See the SIL Open Font License for the specific language, permissions and limitations governing your use of this Font Software.
http://scripts.sil.org/OFL
  -->
<path d="M357 473L357 537 467 537C427 681 355 800 253 877 270 889 299 916 311 929 394 860 461 763 508 644L508 694 659 694 659 862 419 862 419 927 963 927 963 862 731 862 731 694 921 694 921 630 514 630C525 600 535 569 544 537L963 537 963 473 695 473 695 384 917 384 917 323 695 323 695 243 947 243 947 180 799 180C824 148 853 103 879 61L804 39C787 77 756 134 731 169L765 180 556 180 584 166C570 130 538 78 505 40L446 68C471 101 497 145 513 180L385 180 385 243 623 243 623 323 410 323 410 384 623 384 623 473ZM74 138L74 763 139 763 139 675 340 675 340 138ZM139 207L275 207 275 606 139 606Z"/>
</svg>