<svg xmlns="http://www.w3.org/2000/svg"
    viewBox="0 0 1000 1000">
  <!--
© 2014-2021 Adobe (http://www.adobe.com/).
Noto is a trademark of Google Inc.
This Font Software is licensed under the SIL Open Font License, Version 1.1. This Font Software is distributed on an "AS IS" BASIS, WITHOUT WARRANTIES OR CONDITIONS OF ANY KIND, either express or implied. See the SIL Open Font License for the specific language, permissions and limitations governing your use of this Font Software.
http://scripts.sil.org/OFL
  -->
<path d="M75 101L75 765 137 765 137 687 306 687 306 101ZM137 173L244 173 244 614 137 614ZM411 588L411 930 480 930 480 892 822 892 822 928 893 928 893 588ZM480 836L480 766 822 766 822 836ZM480 712L480 644 822 644 822 712ZM693 9L693 100 598 100 598 9 532 9 532 100 352 100 352 162 532 162 532 229 377 229 377 537 923 537 923 229 759 229 759 162 958 162 958 100 759 100 759 9ZM598 162L693 162 693 229 598 229ZM441 408L534 408 534 484 441 484ZM595 408L696 408 696 484 595 484ZM756 408L857 408 857 484 756 484ZM441 283L534 283 534 357 441 357ZM595 283L696 283 696 357 595 357ZM756 283L857 283 857 357 756 357Z"/>
</svg>