<svg xmlns="http://www.w3.org/2000/svg" name="gid3826" data-unicode="嘘"
    viewBox="0 0 1000 1000">
  <!--
© 2014-2021 Adobe (http://www.adobe.com/).
Noto is a trademark of Google Inc.
This Font Software is licensed under the SIL Open Font License, Version 1.1. This Font Software is distributed on an "AS IS" BASIS, WITHOUT WARRANTIES OR CONDITIONS OF ANY KIND, either express or implied. See the SIL Open Font License for the specific language, permissions and limitations governing your use of this Font Software.
http://scripts.sil.org/OFL
  -->
<path d="M875 608C857 667 821 752 792 804L842 824C872 774 907 696 937 630ZM430 626C461 689 486 770 493 824L550 806C543 752 516 671 483 609ZM901 228L890 229 673 229 673 166 917 166 917 107 673 107 673 39 603 39 603 229 363 229 363 401C363 547 352 754 257 907 273 914 302 937 314 950 415 789 432 557 432 401L432 291 878 291C868 328 856 365 845 392L904 412C924 368 945 299 962 239L914 225ZM717 577L717 860 638 860 638 577 577 577 577 860 378 860 378 921 963 921 963 860 778 860 778 577ZM576 293L576 377 454 389 459 440 576 428 576 467C576 530 597 546 681 546 699 546 817 546 834 546 894 546 913 527 920 457 902 453 877 445 864 436 861 485 855 493 826 493 802 493 705 493 687 493 648 493 641 489 641 466L641 422 821 404 815 354 641 371 641 293ZM73 145L73 760 133 760 133 678 305 678 305 145ZM133 213L245 213 245 610 133 610Z"/>
</svg>