<svg xmlns="http://www.w3.org/2000/svg"
    viewBox="0 0 1000 1000">
  <!--
© 2014-2021 Adobe (http://www.adobe.com/).
Noto is a trademark of Google Inc.
This Font Software is licensed under the SIL Open Font License, Version 1.1. This Font Software is distributed on an "AS IS" BASIS, WITHOUT WARRANTIES OR CONDITIONS OF ANY KIND, either express or implied. See the SIL Open Font License for the specific language, permissions and limitations governing your use of this Font Software.
http://scripts.sil.org/OFL
  -->
<path d="M367 579L367 642 613 642 613 728 316 728 316 794 613 794 613 931 684 931 684 794 961 794 961 728 684 728 684 642 937 642 937 579 862 579 862 477 966 477 966 413 862 413 862 314 933 314 933 252 372 252 372 314 438 314 438 413 340 413 340 477 438 477 438 579ZM504 477L613 477 613 579 504 579ZM504 413L504 314 613 314 613 413ZM795 477L795 579 684 579 684 477ZM795 413L684 413 684 314 795 314ZM727 10L727 90 565 90 565 10 496 10 496 90 344 90 344 153 496 153 496 226 565 226 565 153 727 153 727 226 797 226 797 153 956 153 956 90 797 90 797 10ZM75 116L75 737 138 737 138 650 324 650 324 116ZM138 184L258 184 258 583 138 583Z"/>
</svg>