<svg xmlns="http://www.w3.org/2000/svg" name="gid3838" data-unicode="嘴"
    viewBox="0 0 1000 1000">
  <!--
© 2014-2021 Adobe (http://www.adobe.com/).
Noto is a trademark of Google Inc.
This Font Software is licensed under the SIL Open Font License, Version 1.1. This Font Software is distributed on an "AS IS" BASIS, WITHOUT WARRANTIES OR CONDITIONS OF ANY KIND, either express or implied. See the SIL Open Font License for the specific language, permissions and limitations governing your use of this Font Software.
http://scripts.sil.org/OFL
  -->
<path d="M73 124L73 744 132 744 132 660 304 660 304 570C319 580 338 600 347 615 367 602 386 589 404 575L404 674C404 755 389 851 275 920 291 929 320 951 331 964 397 923 433 869 452 812L835 812 835 886C835 898 830 902 816 903 801 904 752 904 698 902 707 919 717 943 721 960 793 960 839 960 868 950 896 940 904 923 904 886L904 514 706 514C727 489 748 459 764 432L720 403 709 406 556 406 577 370 553 366 655 348 652 293 540 310 540 210 648 210 648 152 540 152 540 41 479 41 479 319 419 328 419 108 364 108 364 335 312 342 324 406 498 375C461 440 395 511 304 566L304 124ZM884 101C846 124 789 154 737 177L737 40 674 40 674 306C674 372 692 390 764 390 779 390 864 390 880 390 937 390 954 365 961 271 943 266 917 257 904 248 901 322 897 333 873 333 855 333 785 333 772 333 742 333 737 329 737 305L737 231C797 209 872 177 928 142ZM617 566L617 637 473 637 473 566ZM681 566L835 566 835 637 681 637ZM473 514L471 514C489 496 505 478 519 459L671 459C659 478 644 498 630 514ZM617 685L617 759 466 759C471 734 473 709 473 685ZM681 685L835 685 835 759 681 759ZM132 192L244 192 244 591 132 591Z"/>
</svg>