<svg xmlns="http://www.w3.org/2000/svg" name="gid3840" data-unicode="嘶"
    viewBox="0 0 1000 1000">
  <!--
© 2014-2021 Adobe (http://www.adobe.com/).
Noto is a trademark of Google Inc.
This Font Software is licensed under the SIL Open Font License, Version 1.1. This Font Software is distributed on an "AS IS" BASIS, WITHOUT WARRANTIES OR CONDITIONS OF ANY KIND, either express or implied. See the SIL Open Font License for the specific language, permissions and limitations governing your use of this Font Software.
http://scripts.sil.org/OFL
  -->
<path d="M364 746C334 809 286 872 232 914 249 924 277 946 289 957 342 909 398 837 432 764ZM73 140L73 763 131 763 131 676 278 676 278 722 651 722 651 660 597 660 597 230 646 230 646 169 597 169 597 42 538 42 538 169 420 169 420 42 362 42 362 169 308 169 308 230 362 230 362 660 293 660 293 140ZM420 230L538 230 538 330 420 330ZM671 133L671 531C671 626 666 735 627 831 613 803 588 769 565 742L513 766C539 799 568 844 579 874L618 854C607 877 594 899 578 920 593 928 617 951 625 966 722 842 734 664 734 532L734 441 831 441 831 960 894 960 894 441 961 441 961 376 734 376 734 195C810 171 892 138 952 104L894 54C851 84 778 118 708 144ZM420 387L538 387 538 494 420 494ZM420 552L538 552 538 660 420 660ZM131 208L234 208 234 608 131 608Z"/>
</svg>