<svg xmlns="http://www.w3.org/2000/svg"
    viewBox="0 0 1000 1000">
  <!--
© 2014-2021 Adobe (http://www.adobe.com/).
Noto is a trademark of Google Inc.
This Font Software is licensed under the SIL Open Font License, Version 1.1. This Font Software is distributed on an "AS IS" BASIS, WITHOUT WARRANTIES OR CONDITIONS OF ANY KIND, either express or implied. See the SIL Open Font License for the specific language, permissions and limitations governing your use of this Font Software.
http://scripts.sil.org/OFL
  -->
<path d="M192 113L380 113 380 236 192 236ZM124 54L124 296 451 296 451 54ZM617 113L807 113 807 236 617 236ZM549 54L549 296 878 296 878 54ZM121 630L121 932 190 932 190 895 387 895 387 928 459 928 459 630ZM190 834L190 691 387 691 387 834ZM545 630L545 932 614 932 614 895 814 895 814 928 885 928 885 630ZM614 834L614 691 814 691 814 834ZM52 501L52 562 949 562 949 501 533 501 533 412 892 412 892 354 117 354 117 412 459 412 459 501Z"/>
</svg>