<svg xmlns="http://www.w3.org/2000/svg"
    viewBox="0 0 1000 1000">
  <!--
© 2014-2021 Adobe (http://www.adobe.com/).
Noto is a trademark of Google Inc.
This Font Software is licensed under the SIL Open Font License, Version 1.1. This Font Software is distributed on an "AS IS" BASIS, WITHOUT WARRANTIES OR CONDITIONS OF ANY KIND, either express or implied. See the SIL Open Font License for the specific language, permissions and limitations governing your use of this Font Software.
http://scripts.sil.org/OFL
  -->
<path d="M190 115L374 115 374 269 190 269ZM625 115L811 115 811 269 625 269ZM556 54L556 330 883 330 883 54ZM452 303L446 316 446 54 121 54 121 330 439 330C425 357 408 382 388 406L52 406 52 474 321 474C244 541 143 593 27 632 42 645 64 673 73 689L136 665 136 932 203 932 203 894 383 894 383 929 452 929 452 606 257 606C321 569 378 525 425 474L576 474C619 524 675 569 738 606L546 606 546 932 613 932 613 894 796 894 796 929 866 929 866 667C887 675 909 682 930 688 941 670 962 642 978 628 863 600 747 543 671 474L949 474 949 406 479 406C496 381 511 354 524 326ZM203 830L203 670 383 670 383 830ZM613 830L613 670 796 670 796 830Z"/>
</svg>