<svg xmlns="http://www.w3.org/2000/svg" name="gid3891" data-unicode="嚈"
    viewBox="0 0 1000 1000">
  <!--
© 2014-2021 Adobe (http://www.adobe.com/).
Noto is a trademark of Google Inc.
This Font Software is licensed under the SIL Open Font License, Version 1.1. This Font Software is distributed on an "AS IS" BASIS, WITHOUT WARRANTIES OR CONDITIONS OF ANY KIND, either express or implied. See the SIL Open Font License for the specific language, permissions and limitations governing your use of this Font Software.
http://scripts.sil.org/OFL
  -->
<path d="M486 345L618 345 618 397 486 397ZM486 249L618 249 618 300 486 300ZM430 203L430 444 676 444 676 203ZM859 221C884 267 909 326 916 365L964 345C956 308 931 249 904 205ZM67 138L67 747 124 747 124 659 268 659 268 138ZM124 202L209 202 209 594 124 594ZM321 87L321 391C321 550 314 767 221 922 235 929 263 946 275 956 370 794 384 556 384 391L384 150 957 150 957 87ZM794 175C793 255 793 332 790 406L703 406 703 466 788 466C778 657 753 819 683 921 697 930 719 947 729 960 780 885 809 785 826 666 846 789 876 893 927 962 937 947 956 927 971 916 899 827 869 657 854 466L961 466 961 406 846 406C849 332 850 255 850 175ZM476 668L629 668 629 732 476 732ZM476 619L476 557 629 557 629 619ZM416 502L416 960 476 960 476 787 629 787 629 882C629 891 627 893 617 894 608 894 581 894 550 894 557 909 566 932 568 947 615 948 644 947 665 937 685 928 689 912 689 883L689 502Z"/>
</svg>