<svg xmlns="http://www.w3.org/2000/svg"
    viewBox="0 0 1000 1000">
  <!--
© 2014-2021 Adobe (http://www.adobe.com/).
Noto is a trademark of Google Inc.
This Font Software is licensed under the SIL Open Font License, Version 1.1. This Font Software is distributed on an "AS IS" BASIS, WITHOUT WARRANTIES OR CONDITIONS OF ANY KIND, either express or implied. See the SIL Open Font License for the specific language, permissions and limitations governing your use of this Font Software.
http://scripts.sil.org/OFL
  -->
<path d="M345 202L345 327 407 327 407 549 877 549 877 327 940 327 940 202 673 202 673 138 943 138 943 81 673 81 673 10 602 10 602 81 348 81 348 138 602 138 602 202ZM470 451L606 451 606 504 470 504ZM669 451L811 451 811 504 669 504ZM470 355L606 355 606 408 470 408ZM669 355L811 355 811 408 669 408ZM423 669C407 770 352 839 264 881 279 893 303 918 312 930 367 900 411 861 443 810 495 896 575 916 715 916L944 916C947 899 956 871 965 856 926 857 743 857 717 857L672 856 672 769 841 769 841 714 672 714 672 647 876 647C867 677 856 706 845 727L903 742C921 707 941 651 957 602L910 590 898 592 333 592 333 647 605 647 605 849C542 838 499 811 471 753 480 729 487 704 492 676ZM408 311L408 255 875 255 875 311ZM73 112L73 731 132 731 132 646 295 646 295 112ZM132 180L235 180 235 579 132 579Z"/>
</svg>