<svg xmlns="http://www.w3.org/2000/svg"
    viewBox="0 0 1000 1000">
  <!--
© 2014-2021 Adobe (http://www.adobe.com/).
Noto is a trademark of Google Inc.
This Font Software is licensed under the SIL Open Font License, Version 1.1. This Font Software is distributed on an "AS IS" BASIS, WITHOUT WARRANTIES OR CONDITIONS OF ANY KIND, either express or implied. See the SIL Open Font License for the specific language, permissions and limitations governing your use of this Font Software.
http://scripts.sil.org/OFL
  -->
<path d="M280 304L724 304 724 377 280 377ZM209 254L209 428 798 428 798 254ZM460 9L460 59 116 59 116 111 460 111 460 160 172 160 172 211 839 211 839 160 533 160 533 111 892 111 892 59 533 59 533 9ZM226 453L226 508 46 508 46 560 226 560 226 615 73 615 73 667 455 667 455 615 298 615 298 560 480 560 480 508 298 508 298 453ZM89 714L89 930 159 930 159 899 368 899 368 930 439 930 439 714ZM159 846L159 766 368 766 368 846ZM682 453L682 508 503 508 503 560 682 560 682 615 523 615 523 667 920 667 920 615 754 615 754 560 955 560 955 508 754 508 754 453ZM541 714L541 930 610 930 610 899 829 899 829 930 901 930 901 714ZM610 846L610 766 829 766 829 846Z"/>
</svg>