<svg xmlns="http://www.w3.org/2000/svg"
    viewBox="0 0 1000 1000">
  <!--
© 2014-2021 Adobe (http://www.adobe.com/).
Noto is a trademark of Google Inc.
This Font Software is licensed under the SIL Open Font License, Version 1.1. This Font Software is distributed on an "AS IS" BASIS, WITHOUT WARRANTIES OR CONDITIONS OF ANY KIND, either express or implied. See the SIL Open Font License for the specific language, permissions and limitations governing your use of this Font Software.
http://scripts.sil.org/OFL
  -->
<path d="M232 97L405 97 405 168 232 168ZM166 52L166 214 476 214 476 52ZM629 97L804 97 804 168 629 168ZM562 52L562 214 875 214 875 52ZM179 819L189 877 477 850 477 930 540 930 540 521 587 521 587 468 430 468 430 411 565 411 565 360 238 360 238 411 365 411 365 468 209 468 209 521 257 521 257 813ZM690 492L834 492C818 568 795 634 762 690 728 637 701 577 682 512ZM669 334C648 440 607 539 549 605 564 615 590 638 600 650 616 631 631 609 645 586 666 644 692 698 723 747 679 802 622 846 551 879 566 891 589 918 597 932 663 897 718 854 763 802 808 857 860 902 921 932 932 914 953 888 969 874 905 847 850 803 804 748 851 678 883 593 904 492L946 492 946 431 712 431C721 403 729 375 735 346ZM319 626L477 626 477 689 319 689ZM319 581L319 521 477 521 477 581ZM319 733L477 733 477 796 319 808ZM115 253L115 478C115 600 107 767 31 889 47 896 77 919 88 933 170 803 184 612 184 478L184 317 942 317 942 253Z"/>
</svg>