<svg xmlns="http://www.w3.org/2000/svg"
    viewBox="0 0 1000 1000">
  <!--
© 2014-2021 Adobe (http://www.adobe.com/).
Noto is a trademark of Google Inc.
This Font Software is licensed under the SIL Open Font License, Version 1.1. This Font Software is distributed on an "AS IS" BASIS, WITHOUT WARRANTIES OR CONDITIONS OF ANY KIND, either express or implied. See the SIL Open Font License for the specific language, permissions and limitations governing your use of this Font Software.
http://scripts.sil.org/OFL
  -->
<path d="M738 296L848 296 848 378 738 378ZM573 296L681 296 681 378 573 378ZM413 296L516 296 516 378 413 378ZM650 664C681 706 711 764 721 803L775 778C763 740 733 684 700 643ZM402 513L554 513 554 559 402 559ZM402 650L402 603 554 603 554 650ZM339 469L339 930 402 930 402 871 623 871 623 825 402 825 402 782 618 782 618 737 402 737 402 694 616 694 616 469ZM73 116L73 730 131 730 131 648 293 648 293 267C307 278 323 291 331 299L354 275 354 431 909 431 909 272 958 240C931 195 874 131 820 85L766 117C806 153 849 202 878 243L629 243 672 225C662 195 640 151 617 117L561 139C580 171 600 213 610 243L380 243C406 209 430 170 450 129 593 120 761 100 870 68L810 21C729 46 579 64 445 74L403 63C379 127 339 191 293 238L293 116ZM821 453L821 549 633 549 633 607 821 607 821 857C821 868 817 871 806 871 795 871 759 871 719 870 729 888 739 914 742 931 796 931 832 931 856 920 880 910 887 893 887 858L887 607 956 607 956 549 887 549 887 453ZM131 184L234 184 234 580 131 580Z"/>
</svg>