<svg xmlns="http://www.w3.org/2000/svg"
    viewBox="0 0 1000 1000">
  <!--
© 2014-2021 Adobe (http://www.adobe.com/).
Noto is a trademark of Google Inc.
This Font Software is licensed under the SIL Open Font License, Version 1.1. This Font Software is distributed on an "AS IS" BASIS, WITHOUT WARRANTIES OR CONDITIONS OF ANY KIND, either express or implied. See the SIL Open Font License for the specific language, permissions and limitations governing your use of this Font Software.
http://scripts.sil.org/OFL
  -->
<path d="M371 315L463 315 463 451 371 451ZM371 509L463 509 463 645 371 645ZM371 124L463 124 463 258 371 258ZM448 751C474 791 503 845 514 881L567 854C554 819 525 766 497 726ZM623 328C636 368 651 420 655 454L694 443C688 410 674 359 659 319ZM810 316C803 352 786 407 772 443L806 455C821 422 836 373 851 329ZM337 726C314 778 268 847 223 887 238 898 261 917 273 928 317 886 367 816 398 755ZM604 288L712 288 712 480 604 480ZM757 288L871 288 871 480 757 480ZM609 84C591 147 558 215 515 264L515 63 321 63 321 706 515 706 515 299 539 322 555 306 555 531 923 531 923 313 925 315C935 301 957 280 972 270 917 224 867 140 845 48L664 48 664 103ZM607 237C631 197 651 153 666 108L802 108C816 154 837 199 861 237ZM647 763L830 763 830 841 647 841ZM647 710L647 637 830 637 830 710ZM587 581L587 930 647 930 647 896 830 896 830 927 892 927 892 581ZM73 116L73 730 128 730 128 647 271 647 271 116ZM128 179L214 179 214 583 128 583Z"/>
</svg>