<svg xmlns="http://www.w3.org/2000/svg"
    viewBox="0 0 1000 1000">
  <!--
© 2014-2021 Adobe (http://www.adobe.com/).
Noto is a trademark of Google Inc.
This Font Software is licensed under the SIL Open Font License, Version 1.1. This Font Software is distributed on an "AS IS" BASIS, WITHOUT WARRANTIES OR CONDITIONS OF ANY KIND, either express or implied. See the SIL Open Font License for the specific language, permissions and limitations governing your use of this Font Software.
http://scripts.sil.org/OFL
  -->
<path d="M90 102L90 901 166 901 166 830 835 830 835 893 913 893 913 102ZM166 757L166 174 353 174C344 361 318 501 181 578 198 591 219 616 228 633 383 543 415 386 426 174L558 174 558 462C558 523 565 540 583 552 599 565 626 570 649 570 663 570 703 570 717 570 738 570 764 567 779 561 795 554 807 543 813 525 819 507 822 459 824 418 805 412 780 400 766 387 765 431 764 464 761 479 758 494 752 500 746 504 740 506 725 507 712 507 699 507 675 507 666 507 654 507 645 506 639 503 633 499 631 488 631 468L631 174 835 174 835 757Z"/>
</svg>