<svg xmlns="http://www.w3.org/2000/svg"
    viewBox="0 0 1000 1000">
  <!--
© 2014-2021 Adobe (http://www.adobe.com/).
Noto is a trademark of Google Inc.
This Font Software is licensed under the SIL Open Font License, Version 1.1. This Font Software is distributed on an "AS IS" BASIS, WITHOUT WARRANTIES OR CONDITIONS OF ANY KIND, either express or implied. See the SIL Open Font License for the specific language, permissions and limitations governing your use of this Font Software.
http://scripts.sil.org/OFL
  -->
<path d="M365 356L365 411 644 411 644 356ZM496 208C563 295 681 383 785 434 794 416 809 390 822 375 715 331 597 244 524 151L462 151C406 238 293 331 178 384 190 398 206 423 212 439 327 382 436 291 496 208ZM261 484L261 542 420 542 420 786 487 786 487 542 655 542 655 656C655 666 652 669 641 669 630 670 596 670 553 668 562 685 572 709 576 725 632 725 668 725 691 715 715 705 721 688 721 657L721 484ZM84 57L84 932 159 932 159 885 841 885 841 932 918 932 918 57ZM159 815L159 127 841 127 841 815Z"/>
</svg>