<svg xmlns="http://www.w3.org/2000/svg" name="gid3975" data-unicode="圉"
    viewBox="0 0 1000 1000">
  <!--
© 2014-2021 Adobe (http://www.adobe.com/).
Noto is a trademark of Google Inc.
This Font Software is licensed under the SIL Open Font License, Version 1.1. This Font Software is distributed on an "AS IS" BASIS, WITHOUT WARRANTIES OR CONDITIONS OF ANY KIND, either express or implied. See the SIL Open Font License for the specific language, permissions and limitations governing your use of this Font Software.
http://scripts.sil.org/OFL
  -->
<path d="M325 435C342 462 357 496 363 522L211 522 211 573 462 573 462 645 238 645 238 697 462 697 462 816 532 816 532 697 769 697 769 645 532 645 532 573 796 573 796 522 627 522C641 498 658 467 674 436L638 426 797 426 797 374 532 374 532 303 743 303 743 253 532 253 532 187 462 187 462 253 258 253 258 303 462 303 462 374 209 374 209 426 363 426ZM584 522L394 522 427 513C421 489 406 453 387 426L609 426C599 454 581 492 566 517ZM84 87L84 962 159 962 159 915 841 915 841 962 918 962 918 87ZM159 846L159 156 841 156 841 846Z"/>
</svg>