<svg xmlns="http://www.w3.org/2000/svg"
    viewBox="0 0 1000 1000">
  <!--
© 2014-2021 Adobe (http://www.adobe.com/).
Noto is a trademark of Google Inc.
This Font Software is licensed under the SIL Open Font License, Version 1.1. This Font Software is distributed on an "AS IS" BASIS, WITHOUT WARRANTIES OR CONDITIONS OF ANY KIND, either express or implied. See the SIL Open Font License for the specific language, permissions and limitations governing your use of this Font Software.
http://scripts.sil.org/OFL
  -->
<path d="M306 683C339 711 376 750 394 777L445 748C427 721 388 683 354 657ZM464 131L464 178 211 178 211 226 464 226 464 267 251 267 251 469 464 469 464 519 214 521 217 568C342 566 521 561 696 556 712 572 727 587 737 600L779 567C757 539 710 497 670 469L751 469 751 267 528 267 528 226 786 226 786 178 528 178 528 131ZM592 569L592 606 199 606 199 653 592 653 592 744C592 753 589 756 578 757 567 758 529 758 489 757 496 769 504 785 507 800 567 800 605 800 627 793 650 786 657 775 657 746L657 653 801 653 801 606 657 606 657 569ZM311 386L464 386 464 430 311 430ZM528 386L688 386 688 430 528 430ZM311 306L464 306 464 348 311 348ZM528 306L688 306 688 348 528 348ZM628 496L652 515 528 518 528 469 668 469ZM96 56L96 930 165 930 165 878 834 878 834 925 905 925 905 56ZM165 817L165 116 834 116 834 817Z"/>
</svg>