<svg xmlns="http://www.w3.org/2000/svg" name="gid4007" data-unicode="地"
    viewBox="0 0 1000 1000">
  <!--
© 2014-2021 Adobe (http://www.adobe.com/).
Noto is a trademark of Google Inc.
This Font Software is licensed under the SIL Open Font License, Version 1.1. This Font Software is distributed on an "AS IS" BASIS, WITHOUT WARRANTIES OR CONDITIONS OF ANY KIND, either express or implied. See the SIL Open Font License for the specific language, permissions and limitations governing your use of this Font Software.
http://scripts.sil.org/OFL
  -->
<path d="M429 133L429 407 321 452 349 519 429 485 429 801C429 910 462 937 577 937 603 937 796 937 824 937 928 937 953 893 964 755 944 752 914 740 897 727 890 842 880 869 821 869 781 869 613 869 580 869 513 869 501 858 501 803L501 454 635 397 635 737 706 737 706 367 846 307C846 468 844 579 839 603 834 626 825 630 809 630 799 630 766 630 742 628 751 645 757 674 760 694 788 694 828 694 854 686 884 679 903 661 909 620 916 581 918 431 918 243L922 229 869 209 855 220 840 234 706 290 706 40 635 40 635 320 501 376 501 133ZM33 726L63 801C151 762 265 711 372 661L355 594 241 642 241 352 359 352 359 281 241 281 241 52 170 52 170 281 42 281 42 352 170 352 170 672C118 693 71 712 33 726Z"/>
</svg>