<svg xmlns="http://www.w3.org/2000/svg" name="gid4016" data-unicode="址"
    viewBox="0 0 1000 1000">
  <!--
© 2014-2021 Adobe (http://www.adobe.com/).
Noto is a trademark of Google Inc.
This Font Software is licensed under the SIL Open Font License, Version 1.1. This Font Software is distributed on an "AS IS" BASIS, WITHOUT WARRANTIES OR CONDITIONS OF ANY KIND, either express or implied. See the SIL Open Font License for the specific language, permissions and limitations governing your use of this Font Software.
http://scripts.sil.org/OFL
  -->
<path d="M434 259L434 852 312 852 312 924 962 924 962 852 731 852 731 459 947 459 947 386 731 386 731 47 655 47 655 852 508 852 508 259ZM34 717L62 791C156 753 279 701 393 651L380 585 252 635 252 352 383 352 383 281 252 281 252 53 182 53 182 281 45 281 45 352 182 352 182 662C126 684 75 703 34 717Z"/>
</svg>