<svg xmlns="http://www.w3.org/2000/svg"
    viewBox="0 0 1000 1000">
  <!--
© 2014-2021 Adobe (http://www.adobe.com/).
Noto is a trademark of Google Inc.
This Font Software is licensed under the SIL Open Font License, Version 1.1. This Font Software is distributed on an "AS IS" BASIS, WITHOUT WARRANTIES OR CONDITIONS OF ANY KIND, either express or implied. See the SIL Open Font License for the specific language, permissions and limitations governing your use of this Font Software.
http://scripts.sil.org/OFL
  -->
<path d="M734 59C703 214 637 345 536 426L536 22 460 22 460 556 125 556 125 628 460 628 460 820 53 820 53 891 950 891 950 820 536 820 536 628 881 628 881 556 536 556 536 437C553 450 577 473 588 485 642 439 687 380 724 310 789 375 859 452 895 503L948 449C907 395 824 311 755 245 777 192 795 134 808 72ZM244 56C210 225 143 367 37 455 54 467 84 493 96 508 155 454 204 384 243 302 295 356 351 418 380 459L432 405C398 360 329 290 272 234 291 183 307 127 319 68Z"/>
</svg>