<svg xmlns="http://www.w3.org/2000/svg" name="gid4027" data-unicode="坑"
    viewBox="0 0 1000 1000">
  <!--
© 2014-2021 Adobe (http://www.adobe.com/).
Noto is a trademark of Google Inc.
This Font Software is licensed under the SIL Open Font License, Version 1.1. This Font Software is distributed on an "AS IS" BASIS, WITHOUT WARRANTIES OR CONDITIONS OF ANY KIND, either express or implied. See the SIL Open Font License for the specific language, permissions and limitations governing your use of this Font Software.
http://scripts.sil.org/OFL
  -->
<path d="M606 40L606 194 338 194 338 266 959 266 959 194 681 194 681 40ZM460 379L460 586C460 696 436 819 266 905 280 916 304 946 313 962 499 868 532 715 532 588L532 448 740 448 740 825C740 894 746 912 762 926 778 940 802 945 822 945 835 945 864 945 878 945 898 945 919 941 933 933 948 924 958 910 963 887 969 865 972 804 973 754 953 747 928 734 913 721 912 777 911 822 909 842 906 860 902 870 898 873 893 877 882 879 873 879 863 879 848 879 840 879 832 879 826 877 820 874 815 870 814 855 814 829L814 379ZM34 712L60 787C153 750 274 702 386 655L371 585 245 634 245 348 356 348 356 277 245 277 245 46 173 46 173 277 52 277 52 348 173 348 173 661C121 681 73 699 34 712Z"/>
</svg>