<svg xmlns="http://www.w3.org/2000/svg"
    viewBox="0 0 1000 1000">
  <!--
© 2014-2021 Adobe (http://www.adobe.com/).
Noto is a trademark of Google Inc.
This Font Software is licensed under the SIL Open Font License, Version 1.1. This Font Software is distributed on an "AS IS" BASIS, WITHOUT WARRANTIES OR CONDITIONS OF ANY KIND, either express or implied. See the SIL Open Font License for the specific language, permissions and limitations governing your use of this Font Software.
http://scripts.sil.org/OFL
  -->
<path d="M350 827L350 897 956 897 956 827ZM36 721L61 797C151 762 268 716 379 671L365 602 241 649 241 325 369 325 369 254 241 254 241 22 170 22 170 254 49 254 49 325 170 325 170 675C120 693 74 709 36 721ZM382 80L382 150 662 150C590 315 476 458 339 548 356 562 383 591 395 606 473 548 547 473 610 386L610 790 683 790 683 347C762 425 858 532 904 597L963 551C916 485 816 380 737 306L683 344 683 272C705 233 725 192 742 150L943 150 943 80Z"/>
</svg>