<svg xmlns="http://www.w3.org/2000/svg"
    viewBox="0 0 1000 1000">
  <!--
© 2014-2021 Adobe (http://www.adobe.com/).
Noto is a trademark of Google Inc.
This Font Software is licensed under the SIL Open Font License, Version 1.1. This Font Software is distributed on an "AS IS" BASIS, WITHOUT WARRANTIES OR CONDITIONS OF ANY KIND, either express or implied. See the SIL Open Font License for the specific language, permissions and limitations governing your use of this Font Software.
http://scripts.sil.org/OFL
  -->
<path d="M386 64L386 929 456 929 456 134 854 134 854 839C854 854 849 860 834 860 819 860 770 861 718 859 728 878 739 911 743 930 813 930 859 929 888 917 916 905 925 882 925 839L925 64ZM593 343L716 343 716 597 593 597ZM535 279L535 746 593 746 593 661 774 661 774 279ZM34 691L62 766C148 731 260 685 366 639L350 571 239 614 239 325 347 325 347 254 239 254 239 20 168 20 168 254 52 254 52 325 168 325 168 641C117 661 71 678 34 691Z"/>
</svg>