<svg xmlns="http://www.w3.org/2000/svg" name="gid4049" data-unicode="坷"
    viewBox="0 0 1000 1000">
  <!--
© 2014-2021 Adobe (http://www.adobe.com/).
Noto is a trademark of Google Inc.
This Font Software is licensed under the SIL Open Font License, Version 1.1. This Font Software is distributed on an "AS IS" BASIS, WITHOUT WARRANTIES OR CONDITIONS OF ANY KIND, either express or implied. See the SIL Open Font License for the specific language, permissions and limitations governing your use of this Font Software.
http://scripts.sil.org/OFL
  -->
<path d="M366 109L366 183 807 183 807 858C807 877 800 883 780 883 757 884 684 885 607 882 619 904 631 938 636 959 732 960 796 959 832 947 869 934 883 911 883 858L883 183 964 183 964 109ZM490 373L638 373 638 615 490 615ZM425 306L425 747 490 747 490 681 703 681 703 306ZM34 750L64 825C152 786 265 735 372 685L355 619 242 667 242 352 361 352 361 281 242 281 242 52 171 52 171 281 49 281 49 352 171 352 171 696C119 718 72 736 34 750Z"/>
</svg>