<svg xmlns="http://www.w3.org/2000/svg" name="gid4059" data-unicode="垈"
    viewBox="0 0 1000 1000">
  <!--
© 2014-2021 Adobe (http://www.adobe.com/).
Noto is a trademark of Google Inc.
This Font Software is licensed under the SIL Open Font License, Version 1.1. This Font Software is distributed on an "AS IS" BASIS, WITHOUT WARRANTIES OR CONDITIONS OF ANY KIND, either express or implied. See the SIL Open Font License for the specific language, permissions and limitations governing your use of this Font Software.
http://scripts.sil.org/OFL
  -->
<path d="M679 93C730 121 793 164 823 194L869 142C837 113 774 72 723 47ZM459 537L459 648 147 648 147 718 459 718 459 861 46 861 46 931 955 931 955 861 536 861 536 718 854 718 854 648 536 648 536 537ZM501 42C505 110 517 177 535 238L320 260 329 328 557 304C622 476 735 596 853 596 921 596 950 560 962 426 942 420 917 408 901 393 895 489 886 524 856 524 778 525 689 434 631 296L938 264 930 197 608 230C590 172 578 109 574 42ZM288 38C226 155 125 271 26 345 40 359 63 391 73 406 113 374 153 336 191 293L191 587 264 587 264 204C298 158 329 110 355 62Z"/>
</svg>