<svg xmlns="http://www.w3.org/2000/svg" name="gid4061" data-unicode="型"
    viewBox="0 0 1000 1000">
  <!--
© 2014-2021 Adobe (http://www.adobe.com/).
Noto is a trademark of Google Inc.
This Font Software is licensed under the SIL Open Font License, Version 1.1. This Font Software is distributed on an "AS IS" BASIS, WITHOUT WARRANTIES OR CONDITIONS OF ANY KIND, either express or implied. See the SIL Open Font License for the specific language, permissions and limitations governing your use of this Font Software.
http://scripts.sil.org/OFL
  -->
<path d="M635 97L635 432 704 432 704 97ZM822 46L822 493C822 506 818 510 802 511 787 512 737 512 680 510 691 530 701 559 705 579 776 579 825 578 855 566 885 555 893 536 893 494L893 46ZM388 147L388 285 264 285 264 279 264 147ZM67 285L67 352 189 352C178 419 145 487 59 540 73 550 98 578 108 592 210 529 248 439 259 352L388 352 388 567 459 567 459 352 573 352 573 285 459 285 459 147 552 147 552 81 100 81 100 147 195 147 195 278 195 285ZM467 548L467 659 151 659 151 728 467 728 467 855 47 855 47 925 952 925 952 855 544 855 544 728 848 728 848 659 544 659 544 548Z"/>
</svg>