<svg xmlns="http://www.w3.org/2000/svg" name="gid4089" data-unicode="埃"
    viewBox="0 0 1000 1000">
  <!--
© 2014-2021 Adobe (http://www.adobe.com/).
Noto is a trademark of Google Inc.
This Font Software is licensed under the SIL Open Font License, Version 1.1. This Font Software is distributed on an "AS IS" BASIS, WITHOUT WARRANTIES OR CONDITIONS OF ANY KIND, either express or implied. See the SIL Open Font License for the specific language, permissions and limitations governing your use of this Font Software.
http://scripts.sil.org/OFL
  -->
<path d="M727 130C756 159 787 192 815 226L557 234C587 181 619 116 647 59L568 39C548 97 514 177 482 236L380 239 387 311 864 290C879 311 891 330 900 347L963 309C930 248 853 159 786 96ZM376 613L376 681 616 681C593 760 527 846 343 908 361 922 383 948 394 965 566 901 644 818 678 735 725 844 804 923 921 961 932 942 953 914 970 898 849 866 767 788 726 681L955 681 955 613 703 613 703 590 703 477 915 477 915 411 540 411C551 383 561 355 569 326L497 309C473 397 431 486 380 545 399 554 431 571 447 582 469 553 491 517 511 477L628 477 628 589 627 613ZM34 715L64 790C152 751 267 698 374 648L357 581 247 628 247 352 356 352 356 281 247 281 247 46 175 46 175 281 52 281 52 352 175 352 175 658Z"/>
</svg>