<svg xmlns="http://www.w3.org/2000/svg" name="gid4096" data-unicode="埏"
    viewBox="0 0 1000 1000">
  <!--
© 2014-2021 Adobe (http://www.adobe.com/).
Noto is a trademark of Google Inc.
This Font Software is licensed under the SIL Open Font License, Version 1.1. This Font Software is distributed on an "AS IS" BASIS, WITHOUT WARRANTIES OR CONDITIONS OF ANY KIND, either express or implied. See the SIL Open Font License for the specific language, permissions and limitations governing your use of this Font Software.
http://scripts.sil.org/OFL
  -->
<path d="M34 730L59 802C138 766 236 722 330 679L314 615 223 654 223 361 314 361 314 292 223 292 223 54 155 54 155 292 51 292 51 361 155 361 155 682C109 701 68 718 34 730ZM377 541L320 560C338 639 360 702 388 752 351 820 305 870 251 903 266 917 286 944 295 961 348 925 393 877 429 815 507 910 613 935 749 935L943 935C947 915 958 882 968 866 932 867 782 867 754 867 632 867 533 843 462 750 503 658 530 540 543 394L502 384 491 387 420 387C459 291 497 187 522 111L475 99 463 102 308 102 308 168 434 168C403 257 355 383 315 477L378 491 395 450 474 450C464 538 446 615 421 680 403 641 389 595 377 541ZM580 629L580 676C580 753 602 776 681 776 698 776 839 776 867 776 898 776 934 775 949 771 947 755 944 724 942 706 923 710 888 711 865 711L800 711 800 455 937 455 937 387 800 387 800 157C850 141 897 124 935 105L882 50C806 92 669 131 550 155 559 171 570 196 573 212 625 202 680 190 734 176L734 711 674 711C649 711 645 703 645 677L645 295 580 295Z"/>
</svg>