<svg xmlns="http://www.w3.org/2000/svg"
    viewBox="0 0 1000 1000">
  <!--
© 2014-2021 Adobe (http://www.adobe.com/).
Noto is a trademark of Google Inc.
This Font Software is licensed under the SIL Open Font License, Version 1.1. This Font Software is distributed on an "AS IS" BASIS, WITHOUT WARRANTIES OR CONDITIONS OF ANY KIND, either express or implied. See the SIL Open Font License for the specific language, permissions and limitations governing your use of this Font Software.
http://scripts.sil.org/OFL
  -->
<path d="M34 700L59 772C138 736 236 692 330 649L314 585 223 624 223 331 314 331 314 262 223 262 223 24 155 24 155 262 51 262 51 331 155 331 155 652C109 671 68 688 34 700ZM377 511L320 530C338 609 360 672 388 722 351 790 305 840 251 873 266 887 286 914 295 931 348 895 393 847 429 785 507 880 613 905 749 905L943 905C947 885 958 852 968 836 932 837 782 837 754 837 632 837 533 813 462 720 503 628 530 510 543 364L502 354 491 357 420 357C459 261 497 157 522 81L475 69 463 72 308 72 308 138 434 138C403 227 355 353 315 447L378 461 395 420 474 420C464 508 446 585 421 650 403 611 389 565 377 511ZM580 599L580 646C580 723 602 746 681 746 698 746 839 746 867 746 898 746 934 745 949 741 947 725 944 694 942 676 923 680 888 681 865 681L800 681 800 425 937 425 937 357 800 357 800 127C850 111 897 94 935 75L882 20C806 62 669 101 550 125 559 141 570 166 573 182 625 172 680 160 734 146L734 681 674 681C649 681 645 673 645 647L645 265 580 265Z"/>
</svg>