<svg xmlns="http://www.w3.org/2000/svg" name="gid4107" data-unicode="埠"
    viewBox="0 0 1000 1000">
  <!--
© 2014-2021 Adobe (http://www.adobe.com/).
Noto is a trademark of Google Inc.
This Font Software is licensed under the SIL Open Font License, Version 1.1. This Font Software is distributed on an "AS IS" BASIS, WITHOUT WARRANTIES OR CONDITIONS OF ANY KIND, either express or implied. See the SIL Open Font License for the specific language, permissions and limitations governing your use of this Font Software.
http://scripts.sil.org/OFL
  -->
<path d="M603 36C594 61 579 96 564 126L402 126 402 620 602 620 602 709 320 709 320 776 602 776 602 960 677 960 677 776 961 776 961 709 677 709 677 620 900 620 900 399 475 399 475 342 874 342 874 126 641 126C656 103 671 77 685 50ZM475 185L801 185 801 283 475 283ZM475 460L827 460 827 561 475 561ZM37 721L59 794C147 757 260 708 367 661L350 593 242 638 242 350 352 350 352 279 242 279 242 44 171 44 171 279 49 279 49 350 171 350 171 668C120 689 74 707 37 721Z"/>
</svg>