<svg xmlns="http://www.w3.org/2000/svg" name="gid4116" data-unicode="埴"
    viewBox="0 0 1000 1000">
  <!--
© 2014-2021 Adobe (http://www.adobe.com/).
Noto is a trademark of Google Inc.
This Font Software is licensed under the SIL Open Font License, Version 1.1. This Font Software is distributed on an "AS IS" BASIS, WITHOUT WARRANTIES OR CONDITIONS OF ANY KIND, either express or implied. See the SIL Open Font License for the specific language, permissions and limitations governing your use of this Font Software.
http://scripts.sil.org/OFL
  -->
<path d="M587 487L825 487 825 567 587 567ZM587 622L825 622 825 703 587 703ZM587 352L825 352 825 431 587 431ZM651 40L643 147 360 147 360 213 636 213 626 294 517 294 517 762 897 762 897 294 699 294 710 213 954 213 954 147 718 147 730 45ZM369 340L369 960 439 960 439 908 961 908 961 837 439 837 439 340ZM34 722L61 798C143 764 248 719 347 677L332 608 231 648 231 355 329 355 329 284 231 284 231 52 161 52 161 284 52 284 52 355 161 355 161 675Z"/>
</svg>