<svg xmlns="http://www.w3.org/2000/svg"
    viewBox="0 0 1000 1000">
  <!--
© 2014-2021 Adobe (http://www.adobe.com/).
Noto is a trademark of Google Inc.
This Font Software is licensed under the SIL Open Font License, Version 1.1. This Font Software is distributed on an "AS IS" BASIS, WITHOUT WARRANTIES OR CONDITIONS OF ANY KIND, either express or implied. See the SIL Open Font License for the specific language, permissions and limitations governing your use of this Font Software.
http://scripts.sil.org/OFL
  -->
<path d="M609 10L609 206 473 206 473 273 301 273 301 177 449 177 449 113 301 113 301 9 231 9 231 113 79 113 79 177 231 177 231 273 42 273 42 338 164 338 111 352C131 396 149 454 155 492L56 492 56 557 231 557 231 662 66 662 66 727 231 727 231 928 301 928 301 727 459 727 459 662 301 662 301 557 474 557 474 492 374 492C393 454 413 401 432 352L375 338 489 338 489 276 609 276 609 312C609 366 607 423 600 481 568 458 535 436 504 417L463 469C503 495 546 526 586 558 559 676 501 792 377 885 395 896 422 918 435 932 553 840 615 727 647 609 685 643 717 676 739 704L784 644C757 610 714 570 664 530 677 456 680 382 680 312L680 276 797 276C795 632 790 895 891 928 942 947 972 908 978 730 966 722 944 700 931 683 929 776 922 857 915 855 858 839 864 564 869 206L680 206 680 10ZM366 338C356 380 334 444 316 483L347 492 183 492 216 482C211 443 191 384 168 338Z"/>
</svg>