<svg xmlns="http://www.w3.org/2000/svg"
    viewBox="0 0 1000 1000">
  <!--
© 2014-2021 Adobe (http://www.adobe.com/).
Noto is a trademark of Google Inc.
This Font Software is licensed under the SIL Open Font License, Version 1.1. This Font Software is distributed on an "AS IS" BASIS, WITHOUT WARRANTIES OR CONDITIONS OF ANY KIND, either express or implied. See the SIL Open Font License for the specific language, permissions and limitations governing your use of this Font Software.
http://scripts.sil.org/OFL
  -->
<path d="M34 690L63 766C153 732 271 687 383 643L371 576 244 620 244 327 346 327 353 390C481 385 667 376 846 368 863 391 877 413 887 432L951 396C919 338 846 253 783 191L722 222C748 248 775 278 800 308L533 317C554 275 577 226 599 182L955 182 955 115 677 115 677 10 603 10 603 115 329 115 329 182 516 182C501 226 479 278 458 319L356 322 356 255 244 255 244 20 172 20 172 255 52 255 52 327 172 327 172 644ZM491 637L800 637 800 715 491 715ZM491 581L491 507 800 507 800 581ZM423 447L423 931 491 931 491 770 800 770 800 852C800 864 797 868 782 868 769 870 724 870 672 868 681 886 691 912 694 930 762 930 809 930 836 920 864 908 872 890 872 852L872 447Z"/>
</svg>