<svg xmlns="http://www.w3.org/2000/svg" name="gid4136" data-unicode="堊"
    viewBox="0 0 1000 1000">
  <!--
© 2014-2021 Adobe (http://www.adobe.com/).
Noto is a trademark of Google Inc.
This Font Software is licensed under the SIL Open Font License, Version 1.1. This Font Software is distributed on an "AS IS" BASIS, WITHOUT WARRANTIES OR CONDITIONS OF ANY KIND, either express or implied. See the SIL Open Font License for the specific language, permissions and limitations governing your use of this Font Software.
http://scripts.sil.org/OFL
  -->
<path d="M81 82L81 146 357 146 357 226 139 226 139 444 357 444 357 528 69 528 69 593 937 593 937 528 639 528 639 444 865 444 865 226 639 226 639 146 918 146 918 82ZM568 406L568 528 428 528 428 384 210 384 210 285 428 285 428 146 568 146 568 285 794 285 794 384 568 384ZM459 601L459 696 150 696 150 761 459 761 459 864 46 864 46 931 955 931 955 864 536 864 536 761 849 761 849 696 536 696 536 601Z"/>
</svg>