<svg xmlns="http://www.w3.org/2000/svg"
    viewBox="0 0 1000 1000">
  <!--
© 2014-2021 Adobe (http://www.adobe.com/).
Noto is a trademark of Google Inc.
This Font Software is licensed under the SIL Open Font License, Version 1.1. This Font Software is distributed on an "AS IS" BASIS, WITHOUT WARRANTIES OR CONDITIONS OF ANY KIND, either express or implied. See the SIL Open Font License for the specific language, permissions and limitations governing your use of this Font Software.
http://scripts.sil.org/OFL
  -->
<path d="M37 721L62 797C145 765 250 722 351 681L336 613 236 650 236 325 341 325 341 254 236 254 236 22 166 22 166 254 48 254 48 325 166 325 166 676ZM417 38L417 143 338 143 338 206 417 206 417 498 598 498 598 585 355 585 355 650 550 650C481 732 373 808 274 846 289 860 311 887 323 905 420 860 526 777 598 686L598 930 670 930 670 690C735 776 829 858 913 901 926 882 949 855 966 841 875 804 772 728 708 650L948 650 948 585 670 585 670 498 919 498 919 435 485 435 485 206 585 206 585 360 844 360 844 206 943 206 943 143 844 143 844 18 774 18 774 143 652 143 652 18 585 18 585 143 485 143 485 38ZM774 206L774 304 652 304 652 206Z"/>
</svg>