<svg xmlns="http://www.w3.org/2000/svg"
    viewBox="0 0 1000 1000">
  <!--
© 2014-2021 Adobe (http://www.adobe.com/).
Noto is a trademark of Google Inc.
This Font Software is licensed under the SIL Open Font License, Version 1.1. This Font Software is distributed on an "AS IS" BASIS, WITHOUT WARRANTIES OR CONDITIONS OF ANY KIND, either express or implied. See the SIL Open Font License for the specific language, permissions and limitations governing your use of this Font Software.
http://scripts.sil.org/OFL
  -->
<path d="M33 674L61 745C142 707 245 658 344 610L363 601 346 534 228 588 228 325 332 325 332 256 228 256 228 24 157 24 157 256 45 256 45 325 157 325 157 620C110 641 68 660 33 674ZM613 522C611 554 608 583 604 610L344 610 344 678 587 678C552 777 474 835 287 868 301 883 319 913 326 931 515 892 603 826 646 720 696 834 785 901 932 932 941 912 960 884 975 869 830 845 742 784 699 678L953 678 953 610 674 610C678 583 681 553 683 522ZM383 202L383 539 450 539 450 264 539 264 539 513 602 513 602 264 694 264 694 513 757 513 757 264 850 264 850 462C850 470 848 472 841 473 833 474 813 473 786 473 795 490 804 515 805 533 845 533 874 533 894 522 914 511 919 494 919 463L919 202 648 202C657 178 667 151 676 123L947 123 947 60 349 60 349 123 598 123C592 149 584 177 577 202Z"/>
</svg>