<svg xmlns="http://www.w3.org/2000/svg" name="gid4151" data-unicode="堪"
    viewBox="0 0 1000 1000">
  <!--
© 2014-2021 Adobe (http://www.adobe.com/).
Noto is a trademark of Google Inc.
This Font Software is licensed under the SIL Open Font License, Version 1.1. This Font Software is distributed on an "AS IS" BASIS, WITHOUT WARRANTIES OR CONDITIONS OF ANY KIND, either express or implied. See the SIL Open Font License for the specific language, permissions and limitations governing your use of this Font Software.
http://scripts.sil.org/OFL
  -->
<path d="M34 712L61 787C142 752 247 706 345 662L331 603 383 603 383 960 453 960 453 920 952 920 952 851 453 851 453 603 560 603C556 693 537 731 456 753 468 764 484 787 489 802 590 771 616 715 621 603L707 603 707 697C707 755 722 771 784 771 796 771 856 771 868 771 914 771 931 753 937 680 920 677 896 668 884 659 881 711 877 717 860 717 847 717 801 717 792 717 771 717 767 714 767 697L767 603 963 603 963 536 837 536 837 208 950 208 950 142 837 142 837 40 765 40 765 142 528 142 528 40 458 40 458 142 347 142 347 208 458 208 458 536 310 536 310 600 228 634 228 344 325 344 325 273 228 273 228 45 158 45 158 273 52 273 52 344 158 344 158 663C111 682 68 699 34 712ZM528 208L765 208 765 280 528 280ZM528 335L765 335 765 407 528 407ZM528 462L765 462 765 536 528 536Z"/>
</svg>