<svg xmlns="http://www.w3.org/2000/svg"
    viewBox="0 0 1000 1000">
  <!--
© 2014-2021 Adobe (http://www.adobe.com/).
Noto is a trademark of Google Inc.
This Font Software is licensed under the SIL Open Font License, Version 1.1. This Font Software is distributed on an "AS IS" BASIS, WITHOUT WARRANTIES OR CONDITIONS OF ANY KIND, either express or implied. See the SIL Open Font License for the specific language, permissions and limitations governing your use of this Font Software.
http://scripts.sil.org/OFL
  -->
<path d="M34 721L61 796C147 759 261 711 366 665L350 596 361 612C399 595 435 576 471 556L471 930 543 930 543 891 820 891 820 927 894 927 894 504 818 504 857 468C833 444 783 411 743 392L698 430C735 450 778 480 804 504L555 504C608 468 658 429 704 385L961 385 961 316 772 316C835 247 889 169 933 83L861 59C838 106 811 150 780 192L780 133 619 133 619 10 546 10 546 133 380 133 380 200 546 200 546 316 347 316 347 267 242 267 242 30 171 30 171 267 52 267 52 339 171 339 171 667C119 688 72 707 34 721ZM619 200L774 200C743 241 709 280 672 316L619 316ZM543 726L820 726 820 826 543 826ZM543 665L543 569 820 569 820 665ZM593 385C509 451 414 506 311 547 322 558 338 578 349 594L242 638 242 339 344 339 344 385Z"/>
</svg>