<svg xmlns="http://www.w3.org/2000/svg" name="gid4163" data-unicode="塀"
    viewBox="0 0 1000 1000">
  <!--
© 2014-2021 Adobe (http://www.adobe.com/).
Noto is a trademark of Google Inc.
This Font Software is licensed under the SIL Open Font License, Version 1.1. This Font Software is distributed on an "AS IS" BASIS, WITHOUT WARRANTIES OR CONDITIONS OF ANY KIND, either express or implied. See the SIL Open Font License for the specific language, permissions and limitations governing your use of this Font Software.
http://scripts.sil.org/OFL
  -->
<path d="M766 525L766 655 631 655 631 636 631 525ZM365 76L365 456C365 602 354 787 240 915 256 924 286 946 297 959 418 824 435 614 435 456L435 318 808 318C796 358 774 413 756 449L791 461 610 461 644 449C634 414 607 362 579 324L521 344C545 379 568 427 578 461L470 461 470 525 564 525 564 635 564 655 448 655 448 721 558 721C546 790 513 859 426 913 441 925 464 950 473 965 580 898 616 811 627 721L766 721 766 960 835 960 835 721 957 721 957 655 835 655 835 525 946 525 946 461 815 461C835 427 857 380 879 336L819 318 918 318 918 76ZM33 722L58 798C141 768 245 726 344 686L331 619 235 653 235 355 334 355 334 284 235 284 235 52 164 52 164 284 52 284 52 355 164 355 164 678C115 696 69 711 33 722ZM435 141L846 141 846 252 435 252Z"/>
</svg>