<svg xmlns="http://www.w3.org/2000/svg" name="gid4173" data-unicode="塒"
    viewBox="0 0 1000 1000">
  <!--
© 2014-2021 Adobe (http://www.adobe.com/).
Noto is a trademark of Google Inc.
This Font Software is licensed under the SIL Open Font License, Version 1.1. This Font Software is distributed on an "AS IS" BASIS, WITHOUT WARRANTIES OR CONDITIONS OF ANY KIND, either express or implied. See the SIL Open Font License for the specific language, permissions and limitations governing your use of this Font Software.
http://scripts.sil.org/OFL
  -->
<path d="M605 664C643 710 680 776 695 818L756 789C740 746 702 685 662 639ZM499 464L499 726 397 726 397 464ZM499 398L397 398 397 155 499 155ZM736 42L736 167 606 167 606 232 736 232 736 356 583 356 583 422 959 422 959 356 805 356 805 232 938 232 938 167 805 167 805 42ZM809 442L809 531 582 531 582 597 809 597 809 878C809 890 805 893 792 894 778 895 734 895 684 893 693 913 704 941 706 960 773 960 817 959 844 948 871 937 879 918 879 878L879 597 961 597 961 531 879 531 879 442ZM333 87L333 863 397 863 397 795 563 795 563 87ZM35 720L58 794C135 763 234 723 327 686L314 619 221 654 221 353 309 353 309 284 221 284 221 53 152 53 152 284 52 284 52 353 152 353 152 679Z"/>
</svg>