<svg xmlns="http://www.w3.org/2000/svg"
    viewBox="0 0 1000 1000">
  <!--
© 2014-2021 Adobe (http://www.adobe.com/).
Noto is a trademark of Google Inc.
This Font Software is licensed under the SIL Open Font License, Version 1.1. This Font Software is distributed on an "AS IS" BASIS, WITHOUT WARRANTIES OR CONDITIONS OF ANY KIND, either express or implied. See the SIL Open Font License for the specific language, permissions and limitations governing your use of this Font Software.
http://scripts.sil.org/OFL
  -->
<path d="M483 250L483 305 636 305 636 382 441 382 441 440 636 440 636 528 479 528 479 584 894 584 894 443 963 443 963 379 894 379 894 250 703 250 703 189 636 189 636 250ZM703 440L826 440 826 528 703 528ZM703 382L703 305 826 305 826 382ZM34 692L60 768C141 732 244 686 341 642 326 726 296 810 238 878 255 887 283 911 295 925 411 788 428 579 428 427L428 174 951 174 951 107 690 107 690 12 618 12 618 107 357 107 357 426C357 489 355 561 343 631L327 571 228 613 228 325 325 325 325 254 228 254 228 23 159 23 159 254 52 254 52 325 159 325 159 642ZM468 642L468 929 536 929 536 893 838 893 838 928 909 928 909 642ZM536 829L536 705 838 705 838 829Z"/>
</svg>