<svg xmlns="http://www.w3.org/2000/svg"
    viewBox="0 0 1000 1000">
  <!--
© 2014-2021 Adobe (http://www.adobe.com/).
Noto is a trademark of Google Inc.
This Font Software is licensed under the SIL Open Font License, Version 1.1. This Font Software is distributed on an "AS IS" BASIS, WITHOUT WARRANTIES OR CONDITIONS OF ANY KIND, either express or implied. See the SIL Open Font License for the specific language, permissions and limitations governing your use of this Font Software.
http://scripts.sil.org/OFL
  -->
<path d="M498 101L814 101 814 201 498 201ZM428 44L428 258 887 258 887 44ZM703 799C776 839 854 892 899 929L972 891C921 852 836 800 758 759ZM545 759C495 801 388 850 301 876 318 891 341 916 354 931 441 903 549 854 614 804ZM470 498L842 498 842 570 470 570ZM470 626L842 626 842 698 470 698ZM470 372L842 372 842 443 470 443ZM400 313L400 757 916 757 916 313ZM34 686L59 761C148 727 267 682 378 639L363 569 242 614 242 327 355 327 355 255 242 255 242 21 170 21 170 255 51 255 51 327 170 327 170 640C119 658 72 674 34 686Z"/>
</svg>