<svg xmlns="http://www.w3.org/2000/svg"
    viewBox="0 0 1000 1000">
  <!--
© 2014-2021 Adobe (http://www.adobe.com/).
Noto is a trademark of Google Inc.
This Font Software is licensed under the SIL Open Font License, Version 1.1. This Font Software is distributed on an "AS IS" BASIS, WITHOUT WARRANTIES OR CONDITIONS OF ANY KIND, either express or implied. See the SIL Open Font License for the specific language, permissions and limitations governing your use of this Font Software.
http://scripts.sil.org/OFL
  -->
<path d="M518 353L812 353 812 412 518 412ZM518 252L812 252 812 310 518 310ZM491 8C458 100 400 189 333 248 350 259 380 283 392 294 411 276 430 254 448 231L448 457 884 457 884 207 466 207C478 190 490 171 501 152L943 152 943 91 534 91C544 70 554 48 562 26ZM33 679L64 755C147 719 255 671 357 626L343 564 476 564C432 634 365 697 296 740 312 751 337 774 349 785 391 756 433 718 471 675L565 675C517 753 443 831 374 872 391 883 411 901 422 917 498 863 583 764 630 675L718 675C684 761 628 849 569 894 588 904 609 920 622 935 685 878 747 771 779 675L858 675C847 799 836 848 821 864 814 872 806 874 793 873 779 873 746 873 709 869 719 886 725 912 727 930 765 932 803 931 824 930 847 928 864 922 879 906 903 881 917 815 930 647 932 637 932 618 932 618L517 618C529 600 541 582 551 564L960 564 960 505 331 505 331 563 233 603 233 310 332 310 332 239 233 239 233 15 163 15 163 239 50 239 50 310 163 310 163 630C114 649 69 666 33 679Z"/>
</svg>