<svg xmlns="http://www.w3.org/2000/svg"
    viewBox="0 0 1000 1000">
  <!--
© 2014-2021 Adobe (http://www.adobe.com/).
Noto is a trademark of Google Inc.
This Font Software is licensed under the SIL Open Font License, Version 1.1. This Font Software is distributed on an "AS IS" BASIS, WITHOUT WARRANTIES OR CONDITIONS OF ANY KIND, either express or implied. See the SIL Open Font License for the specific language, permissions and limitations governing your use of this Font Software.
http://scripts.sil.org/OFL
  -->
<path d="M511 640L511 711 239 711 239 767 511 767 511 850 161 850 161 909 954 909 954 850 583 850 583 767 876 767 876 711 583 711 583 640ZM354 278L354 363 187 363 187 278ZM354 224L187 224 187 151 354 151ZM423 278L592 278 592 363 423 363ZM423 224L423 151 592 151 592 224ZM663 278L833 278 833 363 663 363ZM118 88L118 390C118 538 110 744 31 889 47 897 78 919 90 932 169 787 185 573 187 417L286 417 286 599 204 604 210 661C303 652 431 641 554 629L554 577 355 593 355 520 548 520 548 472 355 472 355 417 597 417 597 575C597 640 619 656 705 656 723 656 842 656 862 656 923 656 944 636 951 558 932 555 906 546 892 537 889 594 883 602 853 602 828 602 731 602 712 602 672 602 666 599 666 575L666 539C746 526 835 506 898 481L851 439C808 459 735 477 666 491L666 417 903 417 903 224 663 224 663 151 949 151 949 88 568 88 568 10 491 10 491 88Z"/>
</svg>