<svg xmlns="http://www.w3.org/2000/svg"
    viewBox="0 0 1000 1000">
  <!--
© 2014-2021 Adobe (http://www.adobe.com/).
Noto is a trademark of Google Inc.
This Font Software is licensed under the SIL Open Font License, Version 1.1. This Font Software is distributed on an "AS IS" BASIS, WITHOUT WARRANTIES OR CONDITIONS OF ANY KIND, either express or implied. See the SIL Open Font License for the specific language, permissions and limitations governing your use of this Font Software.
http://scripts.sil.org/OFL
  -->
<path d="M423 757C466 793 516 843 540 877L591 833C567 800 515 752 472 718ZM611 10L611 82 349 82 349 142 611 142 611 198 389 198 389 452 611 452 611 518 338 522 343 585C485 581 682 574 871 566 889 583 905 599 916 612L970 577C938 542 877 490 825 452L912 452 912 198 684 198 684 142 952 142 952 82 684 82 684 10ZM724 584L724 649 332 649 332 711 724 711 724 851C724 862 720 866 706 867 691 868 643 868 590 866 600 886 610 911 613 930 683 931 730 930 761 920 790 910 799 892 799 853L799 711 961 711 961 649 799 649 799 584ZM457 347L611 347 611 405 457 405ZM684 347L841 347 841 405 684 405ZM457 244L611 244 611 302 457 302ZM684 244L841 244 841 302 684 302ZM762 474L811 513 684 516 684 452 800 452ZM33 670L60 746C143 712 248 668 347 625L331 557 234 595 234 303 341 303 341 232 234 232 234 23 164 23 164 232 52 232 52 303 164 303 164 622C115 641 70 658 33 670Z"/>
</svg>