<svg xmlns="http://www.w3.org/2000/svg" name="gid4204" data-unicode="墉"
    viewBox="0 0 1000 1000">
  <!--
© 2014-2021 Adobe (http://www.adobe.com/).
Noto is a trademark of Google Inc.
This Font Software is licensed under the SIL Open Font License, Version 1.1. This Font Software is distributed on an "AS IS" BASIS, WITHOUT WARRANTIES OR CONDITIONS OF ANY KIND, either express or implied. See the SIL Open Font License for the specific language, permissions and limitations governing your use of this Font Software.
http://scripts.sil.org/OFL
  -->
<path d="M33 719L58 792C139 756 241 708 337 662L321 595 219 640 219 364 325 364 325 295 219 295 219 57 149 57 149 295 41 295 41 364 149 364 149 671C105 690 65 706 33 719ZM444 567L444 959 509 959 509 831 638 831 638 956 704 956 704 831 841 831 841 891C841 900 838 903 828 904 818 904 790 904 755 903 763 919 772 943 775 960 825 960 859 960 881 950 903 940 908 924 908 891L908 567 841 567 704 567 704 518 893 518 893 410 961 410 961 358 893 358 893 257 704 257 704 198 958 198 958 141 687 141 687 40 613 40 613 141 355 141 355 393C355 546 346 763 256 918 273 924 302 944 314 956 408 795 422 555 422 393L422 198 638 198 638 257 466 257 466 307 638 307 638 358 432 358 432 410 638 410 638 468 466 468 466 518 638 518 638 567ZM704 307L828 307 828 358 704 358ZM704 468L704 410 828 410 828 468ZM638 781L509 781 509 721 638 721ZM704 781L704 721 841 721 841 781ZM638 672L509 672 509 617 638 617ZM704 672L704 617 841 617 841 672Z"/>
</svg>