<svg xmlns="http://www.w3.org/2000/svg"
    viewBox="0 0 1000 1000">
  <!--
© 2014-2021 Adobe (http://www.adobe.com/).
Noto is a trademark of Google Inc.
This Font Software is licensed under the SIL Open Font License, Version 1.1. This Font Software is distributed on an "AS IS" BASIS, WITHOUT WARRANTIES OR CONDITIONS OF ANY KIND, either express or implied. See the SIL Open Font License for the specific language, permissions and limitations governing your use of this Font Software.
http://scripts.sil.org/OFL
  -->
<path d="M460 606L460 677 152 677 152 738 460 738 460 839 46 839 46 901 955 901 955 839 536 839 536 738 859 738 859 677 536 677 536 606ZM455 444C501 480 552 530 574 566L628 531C603 495 553 447 507 414L747 414 747 553C747 564 744 567 730 568 718 569 676 569 627 567 637 585 646 609 650 627 714 627 756 626 783 617 810 607 818 591 818 554L818 414 953 414 953 357 818 357 818 279 747 279 747 357 379 357 379 414 504 414ZM96 42L96 250 272 250 272 339 46 339 46 400 115 400 115 423C115 470 104 551 40 606 57 614 86 629 99 640 168 579 183 482 183 425L183 400 272 400 272 631 342 631 342 13 272 13 272 190 160 190 160 42ZM643 8C591 61 495 114 365 152 379 161 397 181 406 194L464 173C503 197 544 229 572 255 512 273 448 284 384 292 394 305 408 327 414 343 625 312 832 242 920 80L879 59 865 62 664 62C681 49 695 35 709 21ZM622 239C595 212 551 179 510 154L557 131C603 154 651 187 683 214 664 223 643 231 622 239ZM728 191C698 163 649 131 602 108L828 108C801 140 767 167 728 191Z"/>
</svg>