<svg xmlns="http://www.w3.org/2000/svg" name="gid4233" data-unicode="墹"
    viewBox="0 0 1000 1000">
  <!--
© 2014-2021 Adobe (http://www.adobe.com/).
Noto is a trademark of Google Inc.
This Font Software is licensed under the SIL Open Font License, Version 1.1. This Font Software is distributed on an "AS IS" BASIS, WITHOUT WARRANTIES OR CONDITIONS OF ANY KIND, either express or implied. See the SIL Open Font License for the specific language, permissions and limitations governing your use of this Font Software.
http://scripts.sil.org/OFL
  -->
<path d="M407 275L538 275 538 359 407 359ZM407 220L407 141 538 141 538 220ZM856 275L856 359 724 359 724 275ZM856 220L724 220 724 141 856 141ZM882 81L659 81 659 419 856 419 856 874C856 888 851 893 838 893 825 894 783 894 736 892 747 912 756 943 759 962 824 962 866 961 892 948 917 937 926 914 926 874L926 81ZM338 81L338 961 407 961 407 419 603 419 603 81ZM554 683L705 683 705 770 554 770ZM554 628L554 547 705 547 705 628ZM492 491L492 878 554 878 554 825 769 825 769 491ZM35 720L65 791C142 758 238 715 330 675L312 608 222 646 222 353 309 353 309 284 222 284 222 53 153 53 153 284 52 284 52 353 153 353 153 674C109 692 68 708 35 720Z"/>
</svg>