<svg xmlns="http://www.w3.org/2000/svg" name="gid4234" data-unicode="墺"
    viewBox="0 0 1000 1000">
  <!--
© 2014-2021 Adobe (http://www.adobe.com/).
Noto is a trademark of Google Inc.
This Font Software is licensed under the SIL Open Font License, Version 1.1. This Font Software is distributed on an "AS IS" BASIS, WITHOUT WARRANTIES OR CONDITIONS OF ANY KIND, either express or implied. See the SIL Open Font License for the specific language, permissions and limitations governing your use of this Font Software.
http://scripts.sil.org/OFL
  -->
<path d="M34 722L63 796C138 765 231 724 320 683L320 732 570 732C531 817 452 869 277 899 291 914 309 943 316 961 499 924 588 862 633 765 688 870 784 933 929 962 939 941 958 912 975 898 834 877 739 823 691 732L950 732 950 667 663 667C668 644 671 619 674 593L602 593C599 620 596 644 591 667L344 667 328 604 228 645 228 355 325 355 325 284 228 284 228 53 158 53 158 284 52 284 52 355 158 355 158 674C112 693 69 709 34 722ZM500 296C515 320 529 352 533 374L462 374 462 421 590 421C553 470 496 517 445 542 457 553 471 574 477 587 525 559 576 513 614 466L614 583 669 583 669 474C715 509 764 549 792 575L824 537C790 507 727 458 675 421L829 421 829 374 669 374 669 266C715 260 759 253 794 244L757 206C692 222 571 236 472 242 478 254 485 270 487 281 527 280 571 277 614 273L614 374 536 374 574 360C569 339 554 306 537 283ZM746 275C738 299 720 336 707 361L742 374C756 353 773 321 790 290ZM586 39C582 63 573 95 563 123L362 123 362 623 428 623 428 185 856 185 856 623 924 623 924 123 638 123 668 53Z"/>
</svg>