<svg xmlns="http://www.w3.org/2000/svg"
    viewBox="0 0 1000 1000">
  <!--
© 2014-2021 Adobe (http://www.adobe.com/).
Noto is a trademark of Google Inc.
This Font Software is licensed under the SIL Open Font License, Version 1.1. This Font Software is distributed on an "AS IS" BASIS, WITHOUT WARRANTIES OR CONDITIONS OF ANY KIND, either express or implied. See the SIL Open Font License for the specific language, permissions and limitations governing your use of this Font Software.
http://scripts.sil.org/OFL
  -->
<path d="M395 742C377 802 342 859 283 891L336 931C402 893 435 829 454 763ZM506 771C520 820 532 884 534 923L598 912C595 874 582 811 565 763ZM640 772C668 819 699 882 710 921L770 900C757 863 725 800 696 755ZM781 768C828 819 883 889 908 932L970 901C942 858 886 789 840 741ZM483 353C500 384 520 425 528 451L571 432C562 407 543 368 525 338ZM759 335C750 362 730 405 715 432L753 449C769 424 788 389 807 355ZM379 275L379 509 605 509 605 560 379 560 379 614 605 614 605 674 324 674 324 734 962 734 962 674 677 674 677 614 923 614 923 560 677 560 677 509 921 509 921 275 677 275 677 223 953 223 953 167 677 167 677 101C767 93 851 83 918 70L873 19C755 42 541 60 367 68 373 81 381 105 383 119 453 117 530 113 605 107L605 167 328 167 328 223 605 223 605 275ZM440 321L612 321 612 462 440 462ZM669 321L857 321 857 462 669 462ZM34 686L62 760C145 726 250 681 349 637L332 569 228 612 228 319 325 319 325 248 228 248 228 23 159 23 159 248 52 248 52 319 159 319 159 639C112 658 69 674 34 686Z"/>
</svg>