<svg xmlns="http://www.w3.org/2000/svg"
    viewBox="0 0 1000 1000">
  <!--
© 2014-2021 Adobe (http://www.adobe.com/).
Noto is a trademark of Google Inc.
This Font Software is licensed under the SIL Open Font License, Version 1.1. This Font Software is distributed on an "AS IS" BASIS, WITHOUT WARRANTIES OR CONDITIONS OF ANY KIND, either express or implied. See the SIL Open Font License for the specific language, permissions and limitations governing your use of this Font Software.
http://scripts.sil.org/OFL
  -->
<path d="M522 492C537 535 549 592 552 627L614 613C611 579 598 523 581 481ZM653 494C678 535 704 590 714 624L772 603C762 569 735 516 708 476ZM790 490C834 536 884 601 906 642L966 609C942 568 891 507 847 463ZM34 666L63 741 313 623 355 655 366 647 366 841 264 841 264 903 962 903 962 841 898 841 898 641 374 641C422 602 450 546 468 490L411 469C397 513 371 559 334 592L323 543 228 585 228 310 325 310 325 238 228 238 228 16 158 16 158 238 52 238 52 310 158 310 158 615C111 636 69 653 34 666ZM431 841L431 701 525 701 525 841ZM583 841L583 701 677 701 677 841ZM735 841L735 701 831 701 831 841ZM817 239L817 302 662 302 662 239ZM817 189L662 189 662 129 817 129ZM590 10L590 77 383 77 383 129 590 129 590 189 327 189 327 239 590 239 590 302 379 302 379 353 590 353 590 407 315 407 315 461 963 461 963 407 662 407 662 353 888 353 888 242 960 242 960 185 888 185 888 77 662 77 662 10Z"/>
</svg>