<svg xmlns="http://www.w3.org/2000/svg" name="gid4259" data-unicode="壚"
    viewBox="0 0 1000 1000">
  <!--
© 2014-2021 Adobe (http://www.adobe.com/).
Noto is a trademark of Google Inc.
This Font Software is licensed under the SIL Open Font License, Version 1.1. This Font Software is distributed on an "AS IS" BASIS, WITHOUT WARRANTIES OR CONDITIONS OF ANY KIND, either express or implied. See the SIL Open Font License for the specific language, permissions and limitations governing your use of this Font Software.
http://scripts.sil.org/OFL
  -->
<path d="M485 474L485 691 884 691 884 474ZM367 197L367 453C367 592 356 781 257 915 272 923 300 946 310 959 416 815 433 603 433 454L433 250 592 250 592 306 459 317 464 364 592 352 592 372C592 430 614 444 696 444 713 444 829 444 847 444 903 444 922 427 928 368 911 365 887 358 873 351 870 390 864 397 838 397 815 397 719 397 702 397 664 397 657 393 657 372L657 346 822 331 817 287 657 300 657 250 872 250C866 278 859 305 853 326L908 342C920 307 934 253 946 207L902 194 891 197 665 197 665 145 894 145 894 96 665 96 665 40 594 40 594 197ZM460 731L460 875 385 875 385 931 959 931 959 875 903 875 903 731ZM518 875L518 779 593 779 593 875ZM642 875L642 779 718 779 718 875ZM766 875L766 779 844 779 844 875ZM546 602L652 602 652 650 546 650ZM709 602L821 602 821 650 709 650ZM546 515L652 515 652 562 546 562ZM709 515L821 515 821 562 709 562ZM34 714L64 788C144 753 248 706 345 661L327 592 228 635 228 347 325 347 325 276 228 276 228 53 159 53 159 276 52 276 52 347 159 347 159 664C112 684 69 701 34 714Z"/>
</svg>