<svg xmlns="http://www.w3.org/2000/svg"
    viewBox="0 0 1000 1000">
  <!--
© 2014-2021 Adobe (http://www.adobe.com/).
Noto is a trademark of Google Inc.
This Font Software is licensed under the SIL Open Font License, Version 1.1. This Font Software is distributed on an "AS IS" BASIS, WITHOUT WARRANTIES OR CONDITIONS OF ANY KIND, either express or implied. See the SIL Open Font License for the specific language, permissions and limitations governing your use of this Font Software.
http://scripts.sil.org/OFL
  -->
<path d="M345 435L345 485 548 485 548 435ZM714 435L714 485 923 485 923 435ZM335 534L335 584 548 584 548 534ZM714 534L714 584 934 584 934 534ZM596 417L596 577 664 577 664 417ZM738 243L840 243 840 340 738 340ZM581 243L682 243 682 340 581 340ZM427 243L524 243 524 340 427 340ZM361 193L361 390 910 390 910 193ZM592 11L592 82 314 82 314 143 948 143 948 82 664 82 664 11ZM333 865L347 930C442 913 574 888 700 865L696 803 510 836 510 708C547 691 580 673 611 653 671 790 778 890 926 936 936 917 956 890 972 875 888 854 817 814 761 761 816 734 884 697 935 660L885 616C843 648 777 689 721 718 697 688 677 654 661 617L676 605 600 586C533 640 413 695 258 731 273 743 292 769 301 785 353 770 402 754 446 736L446 847ZM34 683L56 756C140 718 245 670 344 623L327 557 228 601 228 316 325 316 325 245 228 245 228 23 159 23 159 245 52 245 52 316 159 316 159 631C112 651 69 669 34 683Z"/>
</svg>