<svg xmlns="http://www.w3.org/2000/svg" name="gid4267" data-unicode="壤"
    viewBox="0 0 1000 1000">
  <!--
© 2014-2021 Adobe (http://www.adobe.com/).
Noto is a trademark of Google Inc.
This Font Software is licensed under the SIL Open Font License, Version 1.1. This Font Software is distributed on an "AS IS" BASIS, WITHOUT WARRANTIES OR CONDITIONS OF ANY KIND, either express or implied. See the SIL Open Font License for the specific language, permissions and limitations governing your use of this Font Software.
http://scripts.sil.org/OFL
  -->
<path d="M440 255L559 255 559 333 440 333ZM730 255L852 255 852 333 730 333ZM605 40L605 103 344 103 344 161 953 161 953 103 681 103 681 40ZM35 720L64 791C142 756 241 711 335 666L335 692 552 692C487 732 393 764 309 784 320 795 339 822 346 834 384 823 424 809 463 793L463 879 365 893 376 954C469 938 592 918 712 897L709 840 529 869 529 763C571 742 609 718 640 692L648 692C696 825 791 920 933 962 942 945 960 920 975 908 909 892 852 863 807 824 853 805 909 779 952 750L908 709C873 732 815 764 768 785 744 758 725 726 710 692L959 692 959 637 799 637 799 580 929 580 929 529 799 529 799 477 942 477 942 426 799 426 799 378 913 378 913 208 671 208 671 378 729 378 729 426 564 426 564 378 621 378 621 208 381 208 381 378 495 378 495 426 362 426 362 477 495 477 495 529 382 529 382 580 495 580 495 637 335 637 335 655 319 600 233 638 233 353 332 353 332 284 233 284 233 53 164 53 164 284 52 284 52 353 164 353 164 668C115 688 71 707 35 720ZM564 477L729 477 729 529 564 529ZM564 580L729 580 729 637 564 637Z"/>
</svg>