<svg xmlns="http://www.w3.org/2000/svg"
    viewBox="0 0 1000 1000">
  <!--
© 2014-2021 Adobe (http://www.adobe.com/).
Noto is a trademark of Google Inc.
This Font Software is licensed under the SIL Open Font License, Version 1.1. This Font Software is distributed on an "AS IS" BASIS, WITHOUT WARRANTIES OR CONDITIONS OF ANY KIND, either express or implied. See the SIL Open Font License for the specific language, permissions and limitations governing your use of this Font Software.
http://scripts.sil.org/OFL
  -->
<path d="M91 426L91 618 163 618 163 495 835 495 835 618 910 618 910 426ZM575 545L575 811C575 890 599 911 690 911 708 911 816 911 837 911 915 911 936 878 945 742 924 737 893 725 876 712 873 826 866 843 830 843 806 843 716 843 697 843 657 843 650 838 650 810L650 545ZM328 545C314 719 274 817 44 867 59 882 79 912 86 931 336 870 389 750 406 545ZM458 10L458 109 65 109 65 178 458 178 458 279 158 279 158 346 847 346 847 279 536 279 536 178 937 178 937 109 536 109 536 10Z"/>
</svg>