<svg xmlns="http://www.w3.org/2000/svg" name="gid4280" data-unicode="壹"
    viewBox="0 0 1000 1000">
  <!--
© 2014-2021 Adobe (http://www.adobe.com/).
Noto is a trademark of Google Inc.
This Font Software is licensed under the SIL Open Font License, Version 1.1. This Font Software is distributed on an "AS IS" BASIS, WITHOUT WARRANTIES OR CONDITIONS OF ANY KIND, either express or implied. See the SIL Open Font License for the specific language, permissions and limitations governing your use of this Font Software.
http://scripts.sil.org/OFL
  -->
<path d="M208 463L208 515 788 515 788 463ZM81 349L81 516 151 516 151 408 846 408 846 516 919 516 919 349ZM264 626L729 626 729 715 264 715ZM461 40L461 110 63 110 63 168 461 168 461 238 139 238 139 294 863 294 863 238 537 238 537 168 940 168 940 110 537 110 537 40ZM282 782C299 808 316 843 326 870L53 870 53 932 950 932 950 870 678 870 722 783 651 767 804 767 804 573 193 573 193 767 647 767C636 796 618 838 603 870L402 870C393 841 372 799 349 768Z"/>
</svg>