<svg xmlns="http://www.w3.org/2000/svg" name="gid4281" data-unicode="壺"
    viewBox="0 0 1000 1000">
  <!--
© 2014-2021 Adobe (http://www.adobe.com/).
Noto is a trademark of Google Inc.
This Font Software is licensed under the SIL Open Font License, Version 1.1. This Font Software is distributed on an "AS IS" BASIS, WITHOUT WARRANTIES OR CONDITIONS OF ANY KIND, either express or implied. See the SIL Open Font License for the specific language, permissions and limitations governing your use of this Font Software.
http://scripts.sil.org/OFL
  -->
<path d="M458 40L458 122 66 122 66 184 458 184 458 262 139 262 139 323 863 323 863 262 536 262 536 184 936 184 936 122 536 122 536 40ZM563 745L563 870 430 870 430 712 237 712 237 602 430 602 430 451 563 451 563 602 761 602 761 712 563 712ZM73 389L73 548 146 548 146 451 361 451 361 542 168 542 168 772 359 772 359 870 47 870 47 934 955 934 955 870 635 870 635 772 833 772 833 542 634 542 634 451 849 451 849 548 925 548 925 389Z"/>
</svg>