<svg xmlns="http://www.w3.org/2000/svg" name="gid4311" data-unicode="夥"
    viewBox="0 0 1000 1000">
  <!--
© 2014-2021 Adobe (http://www.adobe.com/).
Noto is a trademark of Google Inc.
This Font Software is licensed under the SIL Open Font License, Version 1.1. This Font Software is distributed on an "AS IS" BASIS, WITHOUT WARRANTIES OR CONDITIONS OF ANY KIND, either express or implied. See the SIL Open Font License for the specific language, permissions and limitations governing your use of this Font Software.
http://scripts.sil.org/OFL
  -->
<path d="M86 86L86 462 246 462 246 545 51 545 51 613 220 613C172 700 93 795 25 846 36 865 53 897 61 917 126 865 194 776 246 686L246 961 317 961 317 715C370 759 441 821 470 853L515 792C484 768 364 680 317 650L317 613 499 613 499 545 317 545 317 462 485 462 485 285C499 296 515 311 524 324 552 305 579 284 602 263 645 292 690 328 719 357 656 415 579 457 498 481 512 495 530 519 538 536 601 514 661 485 715 448 670 526 589 613 471 676 486 686 508 709 518 726 549 708 578 689 604 669 649 702 698 745 728 779 653 838 560 878 461 900 475 915 492 944 500 962 717 905 897 783 967 537L920 518 906 521 748 521C767 495 784 468 798 442L737 431C826 362 895 267 932 135L885 116 871 119 723 119C737 97 749 74 760 52L688 40C653 115 586 205 485 270L485 86ZM680 179L841 179C822 228 797 271 765 309 734 279 687 245 646 219ZM697 584L875 584C851 641 819 691 779 732 747 698 698 658 654 627 669 613 683 599 697 584ZM150 303L251 303 251 400 150 400ZM312 303L419 303 419 400 312 400ZM150 148L251 148 251 243 150 243ZM312 148L419 148 419 243 312 243Z"/>
</svg>