<svg xmlns="http://www.w3.org/2000/svg" name="gid4336" data-unicode="奇"
    viewBox="0 0 1000 1000">
  <!--
© 2014-2021 Adobe (http://www.adobe.com/).
Noto is a trademark of Google Inc.
This Font Software is licensed under the SIL Open Font License, Version 1.1. This Font Software is distributed on an "AS IS" BASIS, WITHOUT WARRANTIES OR CONDITIONS OF ANY KIND, either express or implied. See the SIL Open Font License for the specific language, permissions and limitations governing your use of this Font Software.
http://scripts.sil.org/OFL
  -->
<path d="M53 436L53 504 735 504 735 868C735 884 730 889 709 890 690 891 619 892 543 889 555 909 567 939 571 960 665 960 727 959 764 949 800 937 812 914 812 869L812 504 950 504 950 436ZM472 39C469 73 464 105 458 133L103 133 103 200 435 200C391 292 298 343 87 370 99 384 115 412 121 429 310 403 415 356 474 279 601 323 747 385 831 427L886 373C795 330 636 266 508 222L517 200 902 200 902 133 536 133C542 104 546 73 549 39ZM227 646L484 646 484 783 227 783ZM156 585L156 910 227 910 227 844 556 844 556 585Z"/>
</svg>