<svg xmlns="http://www.w3.org/2000/svg" name="gid4337" data-unicode="奈"
    viewBox="0 0 1000 1000">
  <!--
© 2014-2021 Adobe (http://www.adobe.com/).
Noto is a trademark of Google Inc.
This Font Software is licensed under the SIL Open Font License, Version 1.1. This Font Software is distributed on an "AS IS" BASIS, WITHOUT WARRANTIES OR CONDITIONS OF ANY KIND, either express or implied. See the SIL Open Font License for the specific language, permissions and limitations governing your use of this Font Software.
http://scripts.sil.org/OFL
  -->
<path d="M255 700C212 769 139 838 68 883 85 893 114 918 128 931 198 880 277 801 327 722ZM653 736C723 795 808 879 848 933L912 892C870 839 783 757 712 700ZM430 39C418 82 400 126 377 170L66 170 66 239 333 239C265 335 164 423 25 485 41 497 66 524 76 543 160 502 232 452 291 396 343 347 387 294 422 239L579 239C614 295 660 349 711 396 774 454 846 503 918 534 930 515 953 487 969 473 852 429 731 339 658 239L935 239 935 170 461 170C482 130 498 90 511 50ZM140 578L140 644 462 644 462 879C462 892 458 895 443 896 427 897 374 897 316 895 327 914 339 941 343 960 418 960 466 960 497 950 529 939 538 920 538 880L538 644 861 644 861 578ZM711 396L291 396 291 463 711 463Z"/>
</svg>