<svg xmlns="http://www.w3.org/2000/svg" name="gid4348" data-unicode="奘"
    viewBox="0 0 1000 1000">
  <!--
© 2014-2021 Adobe (http://www.adobe.com/).
Noto is a trademark of Google Inc.
This Font Software is licensed under the SIL Open Font License, Version 1.1. This Font Software is distributed on an "AS IS" BASIS, WITHOUT WARRANTIES OR CONDITIONS OF ANY KIND, either express or implied. See the SIL Open Font License for the specific language, permissions and limitations governing your use of this Font Software.
http://scripts.sil.org/OFL
  -->
<path d="M473 550C470 583 465 613 459 640L54 640 54 708 437 708C391 812 289 870 44 900 57 916 73 944 78 963 336 928 451 859 505 739 582 869 716 932 917 956 927 935 946 905 962 888 766 872 632 819 566 708L947 708 947 640 536 640C542 612 547 582 550 550ZM632 40L632 206 394 206 394 272 632 272 632 453 418 453 418 519 921 519 921 453 706 453 706 272 945 272 945 206 706 206 706 40ZM107 58L107 237 286 237 286 321 54 321 54 381 130 381C129 426 117 487 48 530 66 539 92 561 104 576 182 520 194 441 195 381L286 381 286 554 358 554 358 40 286 40 286 178 174 178 174 58Z"/>
</svg>