<svg xmlns="http://www.w3.org/2000/svg" name="gid4350" data-unicode="奚"
    viewBox="0 0 1000 1000">
  <!--
© 2014-2021 Adobe (http://www.adobe.com/).
Noto is a trademark of Google Inc.
This Font Software is licensed under the SIL Open Font License, Version 1.1. This Font Software is distributed on an "AS IS" BASIS, WITHOUT WARRANTIES OR CONDITIONS OF ANY KIND, either express or implied. See the SIL Open Font License for the specific language, permissions and limitations governing your use of this Font Software.
http://scripts.sil.org/OFL
  -->
<path d="M701 156C772 217 851 307 885 366L947 331C911 270 830 185 759 124ZM435 172C466 212 498 265 509 301L574 276C561 241 528 189 496 151ZM224 89C185 183 118 274 46 332 63 343 92 368 104 381 165 326 226 246 270 160 468 150 694 128 849 93L785 41C666 67 457 90 269 101ZM52 677L52 741 410 741C356 822 253 870 38 896 51 912 68 942 73 960 326 925 440 856 496 741L500 741C571 880 704 939 921 960 929 938 948 907 964 891 773 879 643 838 578 741L949 741 949 677 520 677C528 649 534 619 539 586L817 577C839 597 859 617 874 635L926 590C881 538 785 462 703 414L652 453C683 471 716 494 748 519L430 526C520 471 618 402 694 341L632 298C582 345 512 399 441 449 417 432 388 413 357 394 401 359 450 315 490 275L423 242C394 278 347 325 304 363 279 349 254 336 230 325L181 370C247 402 325 450 380 490L317 529 101 532 106 599 461 589C456 621 449 650 440 677Z"/>
</svg>