<svg xmlns="http://www.w3.org/2000/svg" name="gid4351" data-unicode="奛"
    viewBox="0 0 1000 1000">
  <!--
© 2014-2021 Adobe (http://www.adobe.com/).
Noto is a trademark of Google Inc.
This Font Software is licensed under the SIL Open Font License, Version 1.1. This Font Software is distributed on an "AS IS" BASIS, WITHOUT WARRANTIES OR CONDITIONS OF ANY KIND, either express or implied. See the SIL Open Font License for the specific language, permissions and limitations governing your use of this Font Software.
http://scripts.sil.org/OFL
  -->
<path d="M508 351L508 605C508 710 489 828 338 908 352 919 376 948 384 963 493 905 542 822 564 737L780 737 780 875C780 890 775 894 758 895 743 897 688 897 627 895 637 914 648 942 651 961 732 961 783 960 813 949 843 938 852 917 852 876L852 420C871 429 891 436 910 443 922 423 943 395 960 381 847 349 732 283 655 207L946 207 946 143 482 143C500 114 516 84 529 54L452 40C439 74 420 109 396 143L55 143 55 207 341 207C271 279 170 344 39 389 54 402 73 428 82 447L126 429 126 816 196 816 196 762 436 762 436 377 231 377C316 328 383 270 435 207L570 207C612 260 667 310 728 351ZM366 597L366 701 196 701 196 597ZM366 538L196 538 196 437 366 437ZM578 414L780 414 780 514 578 514ZM578 574L780 574 780 675 574 675C577 652 578 628 578 606Z"/>
</svg>