<svg xmlns="http://www.w3.org/2000/svg"
    viewBox="0 0 1000 1000">
  <!--
© 2014-2021 Adobe (http://www.adobe.com/).
Noto is a trademark of Google Inc.
This Font Software is licensed under the SIL Open Font License, Version 1.1. This Font Software is distributed on an "AS IS" BASIS, WITHOUT WARRANTIES OR CONDITIONS OF ANY KIND, either express or implied. See the SIL Open Font License for the specific language, permissions and limitations governing your use of this Font Software.
http://scripts.sil.org/OFL
  -->
<path d="M271 34C221 119 129 195 36 242 51 254 76 283 86 298 183 242 283 154 340 55ZM167 265L167 614 454 614C450 634 444 652 438 669L59 669 59 729 407 729C353 804 249 848 37 870 49 885 66 913 71 931 322 900 437 838 494 729L506 729C579 856 714 912 922 930 930 910 948 881 964 865 779 855 649 818 582 729L937 729 937 669 518 669C523 652 528 633 532 614L835 614 835 265 597 265 597 202 706 202 706 150 288 150 288 202 383 202 383 265ZM538 202L538 265 444 265 444 202ZM423 32L423 90 663 90C716 173 813 244 910 285 922 267 945 240 962 227 860 191 756 119 711 32ZM761 505L761 561 237 561 237 505ZM237 318L378 318C367 357 334 393 243 417 257 426 278 443 289 454 397 423 431 372 441 318L538 318 538 357C538 408 555 419 624 419 637 419 730 419 745 419L761 418 761 461 237 461ZM597 318L761 318 761 376 759 375C756 379 752 380 736 380 718 380 643 380 631 380 602 380 597 377 597 358Z"/>
</svg>