<svg xmlns="http://www.w3.org/2000/svg"
    viewBox="0 0 1000 1000">
  <!--
© 2014-2021 Adobe (http://www.adobe.com/).
Noto is a trademark of Google Inc.
This Font Software is licensed under the SIL Open Font License, Version 1.1. This Font Software is distributed on an "AS IS" BASIS, WITHOUT WARRANTIES OR CONDITIONS OF ANY KIND, either express or implied. See the SIL Open Font License for the specific language, permissions and limitations governing your use of this Font Software.
http://scripts.sil.org/OFL
  -->
<path d="M449 479L638 479 638 554 449 554ZM382 435L382 598 708 598 708 435ZM347 678L463 678 463 761 347 761ZM291 632L291 806 520 806 520 632ZM631 678L755 678 755 761 631 761ZM577 632L577 806 811 806 811 632ZM567 180C607 237 659 290 717 334L276 334C338 287 388 235 427 180ZM435 10C423 45 407 80 385 115L55 115 55 180 338 180C270 262 170 337 36 389 52 402 71 430 79 447 110 434 140 420 168 404L168 766C168 875 219 915 346 915 381 915 674 915 734 915 800 915 865 914 890 908 887 893 882 863 880 844 847 850 775 852 729 852 670 852 399 852 341 852 263 852 239 828 239 769L239 397 802 397 802 389C838 409 875 426 913 439 924 420 945 391 962 376 841 342 723 268 647 180L946 180 946 115 468 115C485 85 500 54 511 23Z"/>
</svg>