<svg xmlns="http://www.w3.org/2000/svg" name="gid4420" data-unicode="姉"
    viewBox="0 0 1000 1000">
  <!--
© 2014-2021 Adobe (http://www.adobe.com/).
Noto is a trademark of Google Inc.
This Font Software is licensed under the SIL Open Font License, Version 1.1. This Font Software is distributed on an "AS IS" BASIS, WITHOUT WARRANTIES OR CONDITIONS OF ANY KIND, either express or implied. See the SIL Open Font License for the specific language, permissions and limitations governing your use of this Font Software.
http://scripts.sil.org/OFL
  -->
<path d="M442 348L442 807 512 807 512 416 642 416 642 959 714 959 714 416 850 416 850 729C850 739 847 743 838 743 827 743 796 743 759 742 768 761 779 790 781 810 833 810 870 810 892 797 917 785 922 764 922 731L922 348 714 348 714 236 961 236 961 168 714 168 714 40 642 40 642 168 401 168 401 236 642 236 642 348ZM178 40C168 103 155 174 141 246L41 246 41 316 127 316C102 440 75 561 52 646L114 681 125 638C156 662 188 688 219 715 175 801 117 862 48 900 64 915 84 942 94 961 168 916 228 853 274 766 311 802 342 837 364 866L412 805C387 773 350 734 307 696 352 583 380 437 391 251L347 244 334 246 212 246 250 48ZM197 316L317 316C306 447 283 557 249 646 214 617 177 589 143 565 161 488 179 402 197 316Z"/>
</svg>