<svg xmlns="http://www.w3.org/2000/svg" name="gid4428" data-unicode="委"
    viewBox="0 0 1000 1000">
  <!--
© 2014-2021 Adobe (http://www.adobe.com/).
Noto is a trademark of Google Inc.
This Font Software is licensed under the SIL Open Font License, Version 1.1. This Font Software is distributed on an "AS IS" BASIS, WITHOUT WARRANTIES OR CONDITIONS OF ANY KIND, either express or implied. See the SIL Open Font License for the specific language, permissions and limitations governing your use of this Font Software.
http://scripts.sil.org/OFL
  -->
<path d="M785 41C637 75 356 96 127 102 134 117 142 144 143 161 244 158 354 153 461 145L461 245 58 245 58 309 375 309C287 385 155 450 35 482 51 496 72 523 82 542 217 499 367 414 461 313L461 497 391 478C371 511 347 548 322 585L46 585 46 649 279 649C242 702 206 752 176 791L247 816 269 787C329 799 389 812 448 826 349 865 221 885 60 894 73 912 86 939 91 961 290 945 442 914 554 854 681 888 794 925 879 960L925 897C847 866 743 834 629 803 679 762 717 712 745 649L955 649 955 585 409 585 461 503 461 509 535 509 535 313C630 410 779 493 914 534 925 515 946 487 963 472 843 441 712 381 623 309L941 309 941 245 535 245 535 139C650 128 757 114 841 95ZM366 649L661 649C632 703 592 747 539 781 464 763 386 746 308 732Z"/>
</svg>