<svg xmlns="http://www.w3.org/2000/svg"
    viewBox="0 0 1000 1000">
  <!--
© 2014-2021 Adobe (http://www.adobe.com/).
Noto is a trademark of Google Inc.
This Font Software is licensed under the SIL Open Font License, Version 1.1. This Font Software is distributed on an "AS IS" BASIS, WITHOUT WARRANTIES OR CONDITIONS OF ANY KIND, either express or implied. See the SIL Open Font License for the specific language, permissions and limitations governing your use of this Font Software.
http://scripts.sil.org/OFL
  -->
<path d="M871 23C799 74 661 122 538 154 548 169 559 195 564 211 611 200 660 187 708 172L708 430 534 430 534 499 708 499 708 836 556 836 556 905 934 905 934 836 780 836 780 499 962 499 962 430 780 430 780 148C839 127 893 103 937 76ZM150 10C142 72 131 143 119 216L40 216 40 286 108 286C87 410 64 531 45 616L105 652 113 615C138 637 163 661 187 685 151 770 103 832 43 871 59 886 79 913 89 931 152 886 202 824 241 741 275 779 304 816 323 847L370 789C348 753 312 711 270 668 295 598 313 515 325 419L347 453C378 420 406 381 432 340L432 929 502 929 502 208C529 148 552 86 570 28L498 10C468 126 409 265 331 364 335 319 339 271 341 220L297 214 285 216 187 216 219 16ZM176 286L269 286C260 415 242 524 214 614 185 588 156 563 128 541 144 463 160 375 176 286Z"/>
</svg>