<svg xmlns="http://www.w3.org/2000/svg" name="gid4441" data-unicode="姪"
    viewBox="0 0 1000 1000">
  <!--
© 2014-2021 Adobe (http://www.adobe.com/).
Noto is a trademark of Google Inc.
This Font Software is licensed under the SIL Open Font License, Version 1.1. This Font Software is distributed on an "AS IS" BASIS, WITHOUT WARRANTIES OR CONDITIONS OF ANY KIND, either express or implied. See the SIL Open Font License for the specific language, permissions and limitations governing your use of this Font Software.
http://scripts.sil.org/OFL
  -->
<path d="M729 250C762 286 796 330 826 373L565 385C599 319 636 235 668 162L946 162 946 94 397 94 397 162 581 162C556 235 521 323 488 387L399 390 405 462 867 436C881 459 893 481 902 500L967 463C933 395 858 295 789 219ZM636 485L636 618 428 618 428 687 636 687 636 867 372 867 372 936 962 936 962 867 710 867 710 687 923 687 923 618 710 618 710 485ZM178 40C168 103 155 174 141 246L41 246 41 316 127 316C102 440 75 561 52 646L114 681 125 638C156 662 188 688 219 715 175 801 117 862 48 900 64 915 84 942 94 961 168 916 228 853 274 766 311 802 342 837 364 866L412 805C387 773 350 734 307 696 352 583 380 437 391 251L347 244 334 246 212 246 250 48ZM197 316L317 316C306 447 283 557 249 646 214 617 177 589 143 565 161 488 179 402 197 316Z"/>
</svg>