<svg xmlns="http://www.w3.org/2000/svg"
    viewBox="0 0 1000 1000">
  <!--
© 2014-2021 Adobe (http://www.adobe.com/).
Noto is a trademark of Google Inc.
This Font Software is licensed under the SIL Open Font License, Version 1.1. This Font Software is distributed on an "AS IS" BASIS, WITHOUT WARRANTIES OR CONDITIONS OF ANY KIND, either express or implied. See the SIL Open Font License for the specific language, permissions and limitations governing your use of this Font Software.
http://scripts.sil.org/OFL
  -->
<path d="M538 236L538 301 902 301 902 236ZM906 524C878 556 835 597 796 630 781 584 769 535 760 482L950 482 950 415 490 415 490 385 490 130 937 130 937 62 421 62 421 385C421 537 413 744 326 890 342 898 372 918 384 931 460 806 482 630 488 482L558 482 558 828 473 842 493 912C576 895 682 872 785 850L780 787 625 816 625 482 699 482C731 687 796 850 924 931 934 912 957 885 973 871 903 833 852 766 816 682 860 650 910 608 953 567ZM159 10C150 73 139 144 126 216L40 216 40 286 114 286C92 410 68 531 47 616L107 653 117 609C145 632 173 656 200 681 161 769 109 832 44 871 61 886 80 913 90 931 158 885 213 821 254 735 285 768 312 799 329 827L376 768C355 737 322 701 284 664 325 551 348 405 357 220L314 214 302 216 195 216C208 146 219 78 229 17ZM183 286L286 286C276 414 257 523 227 612 196 585 164 559 133 536 149 459 166 372 183 286Z"/>
</svg>