<svg xmlns="http://www.w3.org/2000/svg"
    viewBox="0 0 1000 1000">
  <!--
© 2014-2021 Adobe (http://www.adobe.com/).
Noto is a trademark of Google Inc.
This Font Software is licensed under the SIL Open Font License, Version 1.1. This Font Software is distributed on an "AS IS" BASIS, WITHOUT WARRANTIES OR CONDITIONS OF ANY KIND, either express or implied. See the SIL Open Font License for the specific language, permissions and limitations governing your use of this Font Software.
http://scripts.sil.org/OFL
  -->
<path d="M42 191C97 211 162 247 195 274L230 224C197 197 131 164 77 145ZM103 57C155 78 220 113 252 139L288 88C255 62 190 29 138 12ZM54 483L101 532C156 473 219 398 270 331L230 285C173 358 103 436 54 483ZM594 10L594 87 354 87 354 195C354 282 336 397 233 481 249 490 279 512 290 526 370 459 404 369 417 285L459 285C491 334 533 376 583 411 522 435 454 453 386 463 397 475 409 495 416 511L381 501 328 582 46 582 46 643 285 643C252 691 217 738 189 773L258 797 277 772C338 783 399 795 458 808 356 843 224 860 57 866 68 883 79 908 84 930 292 917 450 890 565 833 690 864 800 898 883 931L926 871C851 843 752 813 641 786 690 748 728 701 755 643L955 643 955 582 412 582 453 521 435 516C508 501 581 479 646 448 721 486 810 513 909 528 918 509 936 483 951 469 863 459 782 440 713 411 780 369 835 314 869 244L827 225 815 228 666 228 666 147 840 147C830 167 821 187 812 202L874 215C892 185 916 138 934 97L884 84 872 87 666 87 666 10ZM370 643L674 643C645 694 605 734 553 765 476 748 396 732 317 718ZM423 147L594 147 594 228 422 228 423 196ZM531 285L771 285C740 323 697 355 648 381 601 354 561 322 531 285Z"/>
</svg>