<svg xmlns="http://www.w3.org/2000/svg" name="gid4497" data-unicode="婚"
    viewBox="0 0 1000 1000">
  <!--
© 2014-2021 Adobe (http://www.adobe.com/).
Noto is a trademark of Google Inc.
This Font Software is licensed under the SIL Open Font License, Version 1.1. This Font Software is distributed on an "AS IS" BASIS, WITHOUT WARRANTIES OR CONDITIONS OF ANY KIND, either express or implied. See the SIL Open Font License for the specific language, permissions and limitations governing your use of this Font Software.
http://scripts.sil.org/OFL
  -->
<path d="M847 39C767 66 621 89 491 101L449 89 449 454 392 461 403 529C490 516 601 496 711 477L708 415 519 444 519 314 702 314C736 453 800 540 886 540 939 540 963 515 973 417 955 412 933 400 918 388 915 448 908 473 889 473 844 474 800 414 773 314L958 314 958 252 759 252C753 214 748 171 747 126 805 115 859 103 904 89ZM690 252L519 252 519 155C571 150 625 144 678 137 680 177 684 216 690 252ZM528 766L827 766 827 859 528 859ZM528 710L528 619 827 619 827 710ZM457 558L457 959 528 959 528 918 827 918 827 957 900 957 900 558ZM178 40C168 103 155 174 141 246L41 246 41 316 127 316C102 440 75 561 52 646L114 681 125 638C156 662 188 688 219 715 175 801 117 862 48 900 64 915 84 942 94 961 168 916 228 853 274 766 311 802 342 837 364 866L412 805C387 773 350 734 307 696 352 583 380 437 391 251L347 244 334 246 212 246 250 48ZM197 316L317 316C306 447 283 557 249 646 214 617 177 589 143 565 161 488 179 402 197 316Z"/>
</svg>