<svg xmlns="http://www.w3.org/2000/svg" name="gid4505" data-unicode="婬"
    viewBox="0 0 1000 1000">
  <!--
© 2014-2021 Adobe (http://www.adobe.com/).
Noto is a trademark of Google Inc.
This Font Software is licensed under the SIL Open Font License, Version 1.1. This Font Software is distributed on an "AS IS" BASIS, WITHOUT WARRANTIES OR CONDITIONS OF ANY KIND, either express or implied. See the SIL Open Font License for the specific language, permissions and limitations governing your use of this Font Software.
http://scripts.sil.org/OFL
  -->
<path d="M619 193C640 250 655 323 655 370L720 357C718 309 703 236 681 180ZM793 171C839 235 887 324 906 382L969 353C948 296 900 211 851 146ZM863 389C763 418 581 441 425 451 433 468 443 494 445 510 507 507 574 501 639 494L639 635 395 635 395 703 639 703 639 868 423 868 423 936 933 936 933 868 713 868 713 703 962 703 962 635 713 635 713 485C791 474 864 460 923 442ZM478 95C462 198 432 302 385 371 403 379 436 396 450 406 488 346 519 258 539 163 664 148 803 125 903 95L843 41C771 64 649 88 535 104ZM178 40C168 103 155 174 141 246L41 246 41 316 127 316C102 440 75 561 52 646L114 681 125 638C156 662 188 688 219 715 175 801 117 862 48 900 64 915 84 942 94 961 168 916 228 853 274 766 311 802 342 837 364 866L412 805C387 773 350 734 307 696 352 583 380 437 391 251L347 244 334 246 212 246 250 48ZM197 316L317 316C306 447 283 557 249 646 214 617 177 589 143 565 161 488 179 402 197 316Z"/>
</svg>