<svg xmlns="http://www.w3.org/2000/svg"
    viewBox="0 0 1000 1000">
  <!--
© 2014-2021 Adobe (http://www.adobe.com/).
Noto is a trademark of Google Inc.
This Font Software is licensed under the SIL Open Font License, Version 1.1. This Font Software is distributed on an "AS IS" BASIS, WITHOUT WARRANTIES OR CONDITIONS OF ANY KIND, either express or implied. See the SIL Open Font License for the specific language, permissions and limitations governing your use of this Font Software.
http://scripts.sil.org/OFL
  -->
<path d="M177 10C167 73 154 144 140 216L40 216 40 286 126 286C101 409 74 529 52 613L113 650 124 607C154 630 185 656 214 682 171 768 115 831 48 870 64 885 83 912 94 930 165 883 223 820 268 733 302 766 331 799 350 826L395 768C373 738 339 702 299 666 345 553 373 407 384 221L341 214 328 216 211 216 249 18ZM196 286L311 286C300 416 277 527 243 617 209 589 174 561 141 537 159 460 178 373 196 286ZM477 10L477 119 371 119 371 184 477 184 477 486 628 486 628 575 380 575 380 640 583 640C526 726 433 805 341 846 357 860 380 887 392 906 479 860 567 778 628 686L628 930 701 930 701 682C759 769 843 853 918 901 931 881 954 855 972 841 892 801 802 721 745 640L956 640 956 575 701 575 701 486 856 486 856 184 956 184 956 119 856 119 856 10 784 10 784 119 546 119 546 10ZM784 184L784 273 546 273 546 184ZM784 332L784 423 546 423 546 332Z"/>
</svg>