<svg xmlns="http://www.w3.org/2000/svg" name="gid4521" data-unicode="媜"
    viewBox="0 0 1000 1000">
  <!--
© 2014-2021 Adobe (http://www.adobe.com/).
Noto is a trademark of Google Inc.
This Font Software is licensed under the SIL Open Font License, Version 1.1. This Font Software is distributed on an "AS IS" BASIS, WITHOUT WARRANTIES OR CONDITIONS OF ANY KIND, either express or implied. See the SIL Open Font License for the specific language, permissions and limitations governing your use of this Font Software.
http://scripts.sil.org/OFL
  -->
<path d="M569 782C521 828 437 878 356 909 373 922 394 945 404 961 487 927 576 875 632 818ZM718 822C789 865 863 920 906 960L975 920C927 879 845 825 771 782ZM523 480L824 480 824 567 523 567ZM523 625L824 625 824 714 523 714ZM523 335L824 335 824 421 523 421ZM178 40C168 103 155 174 141 246L41 246 41 316 127 316C102 440 75 561 52 646L114 681 125 638C156 662 188 688 219 714 175 800 118 862 48 900 64 915 84 942 94 961 168 915 228 852 274 765 311 801 342 835 363 864L413 805C388 772 350 734 307 695 352 582 380 437 391 251L347 244 334 246 212 246 250 48ZM197 316L317 316C306 447 283 557 249 646 214 617 177 590 142 566 160 489 179 402 197 316ZM631 40L631 273 452 273 452 775 898 775 898 273 705 273 705 198 944 198 944 134 705 134 705 40Z"/>
</svg>