<svg xmlns="http://www.w3.org/2000/svg"
    viewBox="0 0 1000 1000">
  <!--
© 2014-2021 Adobe (http://www.adobe.com/).
Noto is a trademark of Google Inc.
This Font Software is licensed under the SIL Open Font License, Version 1.1. This Font Software is distributed on an "AS IS" BASIS, WITHOUT WARRANTIES OR CONDITIONS OF ANY KIND, either express or implied. See the SIL Open Font License for the specific language, permissions and limitations governing your use of this Font Software.
http://scripts.sil.org/OFL
  -->
<path d="M435 46L435 391 505 391 505 105 859 105 859 391 931 391 931 46ZM536 182L536 236 829 236 829 182ZM536 313L536 367 829 367 829 313ZM178 10C168 73 155 144 141 216L41 216 41 286 127 286C102 410 75 531 52 616L114 651 124 610C155 635 187 662 217 689 173 773 116 833 48 870 64 885 84 912 94 931 166 886 225 825 271 741 313 782 348 822 372 856L422 795C395 758 353 714 305 670 351 556 380 410 391 221L347 214 334 216 212 216 250 18ZM197 286L317 286C306 419 283 529 248 620 213 590 177 562 142 536 160 460 179 373 197 286ZM532 629L831 629 831 704 532 704ZM532 574L532 508 831 508 831 574ZM532 759L831 759 831 835 532 835ZM463 451L463 930 532 930 532 895 831 895 831 928 903 928 903 451Z"/>
</svg>