<svg xmlns="http://www.w3.org/2000/svg"
    viewBox="0 0 1000 1000">
  <!--
© 2014-2021 Adobe (http://www.adobe.com/).
Noto is a trademark of Google Inc.
This Font Software is licensed under the SIL Open Font License, Version 1.1. This Font Software is distributed on an "AS IS" BASIS, WITHOUT WARRANTIES OR CONDITIONS OF ANY KIND, either express or implied. See the SIL Open Font License for the specific language, permissions and limitations governing your use of this Font Software.
http://scripts.sil.org/OFL
  -->
<path d="M407 411L407 474 624 474 624 549 396 549 396 612 497 612 458 626C494 687 543 740 602 786 520 825 426 851 331 866 343 882 360 912 366 930 472 909 575 877 665 829 740 875 827 909 921 929 932 910 951 881 968 866 883 850 802 824 732 788 813 732 879 660 920 568L874 545 860 549 694 549 694 474 923 474 923 76 734 76 734 139 855 139 855 242 742 242 742 302 855 302 855 411 694 411 694 11 624 11 624 411 471 411 471 302 579 302 579 242 471 242 471 151C514 134 566 109 611 83L564 32C534 54 482 85 441 106L407 94ZM816 612C780 667 728 713 667 750 608 711 559 665 525 612ZM159 9C150 72 139 144 127 217L41 217 41 286 115 286C93 410 69 531 48 616L108 652 117 611C145 633 173 657 199 682 160 770 108 833 43 872 60 887 79 913 89 931 157 885 211 822 253 735 288 772 318 807 337 838L384 778C362 744 325 704 283 664 323 551 347 406 356 221L313 215 301 217 195 217C208 147 219 78 229 16ZM183 286L285 286C275 415 256 523 226 613 195 586 164 561 133 538 150 460 167 373 183 286Z"/>
</svg>