<svg xmlns="http://www.w3.org/2000/svg" name="gid4544" data-unicode="嫉"
    viewBox="0 0 1000 1000">
  <!--
© 2014-2021 Adobe (http://www.adobe.com/).
Noto is a trademark of Google Inc.
This Font Software is licensed under the SIL Open Font License, Version 1.1. This Font Software is distributed on an "AS IS" BASIS, WITHOUT WARRANTIES OR CONDITIONS OF ANY KIND, either express or implied. See the SIL Open Font License for the specific language, permissions and limitations governing your use of this Font Software.
http://scripts.sil.org/OFL
  -->
<path d="M298 618L331 679C368 655 407 628 445 601 435 712 406 830 332 922 348 930 376 949 387 961 500 821 516 609 516 456L516 212 957 212 957 147 746 147 746 40 674 40 674 147 451 147 451 375C437 324 408 252 377 196L325 216C357 276 388 356 399 409L451 387 451 456 450 526C393 563 338 597 298 618ZM619 238C603 333 575 427 530 489 545 497 573 513 586 522 607 490 626 449 641 404L709 404 709 538 709 567 537 567 537 632 703 632C689 727 642 834 493 912 508 924 530 947 540 961 661 892 721 805 750 719 786 825 843 912 924 960 934 943 956 918 971 905 878 858 817 753 786 632L959 632 959 567 776 567 777 539 777 404 923 404 923 340 661 340C669 311 676 280 681 249ZM143 40C135 102 126 173 115 246L40 246 40 314 104 314C85 440 63 564 44 650L102 682 110 643C134 666 159 690 182 715 147 802 101 866 43 906 58 920 77 945 87 962 147 916 194 853 231 770 262 806 289 842 306 872L353 817C332 782 298 740 259 698 296 583 318 436 326 250L286 244 274 246 180 246 209 46ZM169 314L259 314C251 444 234 554 207 645 179 618 151 593 124 571 139 492 154 403 169 314Z"/>
</svg>