<svg xmlns="http://www.w3.org/2000/svg"
    viewBox="0 0 1000 1000">
  <!--
© 2014-2021 Adobe (http://www.adobe.com/).
Noto is a trademark of Google Inc.
This Font Software is licensed under the SIL Open Font License, Version 1.1. This Font Software is distributed on an "AS IS" BASIS, WITHOUT WARRANTIES OR CONDITIONS OF ANY KIND, either express or implied. See the SIL Open Font License for the specific language, permissions and limitations governing your use of this Font Software.
http://scripts.sil.org/OFL
  -->
<path d="M637 256L788 256 788 377 637 377ZM574 201L574 432 854 432 854 201ZM556 543L640 543 640 695 556 695ZM508 494L508 745 690 745 690 494ZM788 543L874 543 874 695 788 695ZM738 494L738 745 926 745 926 494ZM392 64L392 930 462 930 462 885 961 885 961 816 462 816 462 134 938 134 938 64ZM159 10C150 73 139 144 126 216L40 216 40 286 114 286C92 410 68 531 47 616L107 653 117 609C145 632 173 656 200 682 160 769 108 832 44 871 61 886 80 913 90 931 158 885 213 821 254 735 291 773 322 810 342 841L389 782C366 747 328 705 284 664 325 550 348 405 357 220L314 214 302 216 195 216C208 146 219 78 229 17ZM183 286L286 286C276 414 257 523 227 612 196 585 164 559 133 536 149 459 166 372 183 286Z"/>
</svg>