<svg xmlns="http://www.w3.org/2000/svg" name="gid4551" data-unicode="嫚"
    viewBox="0 0 1000 1000">
  <!--
© 2014-2021 Adobe (http://www.adobe.com/).
Noto is a trademark of Google Inc.
This Font Software is licensed under the SIL Open Font License, Version 1.1. This Font Software is distributed on an "AS IS" BASIS, WITHOUT WARRANTIES OR CONDITIONS OF ANY KIND, either express or implied. See the SIL Open Font License for the specific language, permissions and limitations governing your use of this Font Software.
http://scripts.sil.org/OFL
  -->
<path d="M503 231L808 231 808 291 503 291ZM503 124L808 124 808 183 503 183ZM433 73L433 343 880 343 880 73ZM760 446L863 446 863 533 760 533ZM603 446L705 446 705 533 603 533ZM451 446L548 446 548 533 451 533ZM390 392L390 587 926 587 926 392ZM158 40C149 103 138 174 125 246L40 246 40 316 113 316C91 440 67 561 46 646L106 683 116 639C144 662 172 687 199 713 160 800 108 862 44 901 60 916 79 942 89 960 157 914 211 851 253 766 286 801 315 835 334 865L381 806C359 773 323 734 283 695 323 582 347 436 356 250L314 244 301 246 194 246C207 176 218 108 228 47ZM182 316L285 316C276 445 256 554 226 644 195 617 163 591 132 568 148 490 165 403 182 316ZM802 695C767 740 719 776 662 806 605 775 559 738 526 695ZM373 633L373 695 494 695 457 708C491 758 536 801 590 838 516 866 432 884 344 896 358 911 376 943 383 960 482 943 577 918 661 879 737 918 825 946 920 962 929 943 949 914 965 899 882 888 803 868 734 840 809 794 871 734 911 656L865 631 852 633Z"/>
</svg>