<svg xmlns="http://www.w3.org/2000/svg" name="gid4567" data-unicode="嬀"
    viewBox="0 0 1000 1000">
  <!--
© 2014-2021 Adobe (http://www.adobe.com/).
Noto is a trademark of Google Inc.
This Font Software is licensed under the SIL Open Font License, Version 1.1. This Font Software is distributed on an "AS IS" BASIS, WITHOUT WARRANTIES OR CONDITIONS OF ANY KIND, either express or implied. See the SIL Open Font License for the specific language, permissions and limitations governing your use of this Font Software.
http://scripts.sil.org/OFL
  -->
<path d="M597 174C616 218 633 275 638 311L701 293C696 258 678 202 657 160ZM764 153C815 210 870 289 893 342L951 311C928 259 871 182 819 126ZM493 715C487 784 473 863 443 909L490 930C521 882 534 800 540 727ZM579 722C592 780 598 854 595 900L644 892C648 849 640 775 625 717ZM669 717C691 764 711 826 718 865L765 849C758 811 736 751 713 705ZM762 707C790 743 819 790 832 821L871 798C857 768 826 722 799 689ZM178 40C168 103 155 174 141 246L41 246 41 316 127 316C102 440 75 561 52 646L114 681 125 638C156 662 188 689 218 716 174 801 117 862 48 900 64 915 84 942 94 961 168 916 227 853 274 767 305 797 332 827 352 853 340 876 326 897 311 918 326 925 352 945 363 958 425 875 461 773 482 673L885 673C877 819 869 876 855 891 848 900 840 901 827 901 813 901 780 901 743 897 752 914 759 939 760 958 799 960 836 959 857 958 881 956 897 950 911 934 933 908 943 836 953 646 954 635 954 616 954 616L881 616C886 572 890 513 893 463L803 463C806 420 810 364 812 317L457 317C480 273 500 219 515 165 642 149 787 122 886 89L825 41C750 68 617 95 497 112L456 103C441 171 418 240 388 294L391 251 347 244 334 246 212 246 250 48ZM444 342L444 406C444 510 435 649 387 777 365 752 337 724 306 697 345 601 371 482 385 335 401 345 420 357 430 365ZM507 374L747 374C745 405 742 436 739 463L506 463 507 407ZM503 521L826 521C824 554 821 588 818 616L492 616C497 584 500 552 503 521ZM197 316L317 316C306 447 283 557 249 647 214 618 177 590 143 565 161 488 179 402 197 316Z"/>
</svg>