<svg xmlns="http://www.w3.org/2000/svg" name="gid4571" data-unicode="嬋"
    viewBox="0 0 1000 1000">
  <!--
© 2014-2021 Adobe (http://www.adobe.com/).
Noto is a trademark of Google Inc.
This Font Software is licensed under the SIL Open Font License, Version 1.1. This Font Software is distributed on an "AS IS" BASIS, WITHOUT WARRANTIES OR CONDITIONS OF ANY KIND, either express or implied. See the SIL Open Font License for the specific language, permissions and limitations governing your use of this Font Software.
http://scripts.sil.org/OFL
  -->
<path d="M456 126L566 126 566 238 456 238ZM397 70L397 293 628 293 628 70ZM747 126L861 126 861 238 747 238ZM687 70L687 293 923 293 923 70ZM159 40C150 103 139 174 126 246L40 246 40 316 114 316C92 440 68 561 47 646L107 683 117 639C145 662 173 686 200 712 160 799 108 862 44 901 61 916 80 943 90 961 158 915 213 851 254 765 291 803 322 840 342 871L389 812 619 812 619 960 693 960 693 812 961 812 961 744 693 744 693 672 908 672 908 347 415 347 415 672 619 672 619 744 366 744 366 781C344 754 316 724 284 694 325 580 348 435 357 250L314 244 302 246 195 246C208 176 219 108 229 47ZM481 536L619 536 619 616 481 616ZM693 536L839 536 839 616 693 616ZM481 404L619 404 619 483 481 483ZM693 404L839 404 839 483 693 483ZM183 316L286 316C276 444 257 553 227 642 196 615 164 589 133 566 149 489 166 402 183 316Z"/>
</svg>