<svg xmlns="http://www.w3.org/2000/svg"
    viewBox="0 0 1000 1000">
  <!--
© 2014-2021 Adobe (http://www.adobe.com/).
Noto is a trademark of Google Inc.
This Font Software is licensed under the SIL Open Font License, Version 1.1. This Font Software is distributed on an "AS IS" BASIS, WITHOUT WARRANTIES OR CONDITIONS OF ANY KIND, either express or implied. See the SIL Open Font License for the specific language, permissions and limitations governing your use of this Font Software.
http://scripts.sil.org/OFL
  -->
<path d="M456 96L566 96 566 208 456 208ZM397 40L397 263 628 263 628 40ZM747 96L861 96 861 208 747 208ZM687 40L687 263 923 263 923 40ZM159 10C150 73 139 144 126 216L40 216 40 286 114 286C92 410 68 531 47 616L107 653 117 609C145 632 173 656 200 682 160 769 108 832 44 871 61 886 80 913 90 931 158 885 213 821 254 735 291 773 322 810 342 841L389 782 619 782 619 930 693 930 693 782 961 782 961 714 693 714 693 642 908 642 908 317 415 317 415 642 619 642 619 714 366 714 366 751C344 724 316 694 284 664 325 550 348 405 357 220L314 214 302 216 195 216C208 146 219 78 229 17ZM481 506L619 506 619 586 481 586ZM693 506L839 506 839 586 693 586ZM481 374L619 374 619 453 481 453ZM693 374L839 374 839 453 693 453ZM183 286L286 286C276 414 257 523 227 612 196 585 164 559 133 536 149 459 166 372 183 286Z"/>
</svg>