<svg xmlns="http://www.w3.org/2000/svg"
    viewBox="0 0 1000 1000">
  <!--
© 2014-2021 Adobe (http://www.adobe.com/).
Noto is a trademark of Google Inc.
This Font Software is licensed under the SIL Open Font License, Version 1.1. This Font Software is distributed on an "AS IS" BASIS, WITHOUT WARRANTIES OR CONDITIONS OF ANY KIND, either express or implied. See the SIL Open Font License for the specific language, permissions and limitations governing your use of this Font Software.
http://scripts.sil.org/OFL
  -->
<path d="M512 641L659 641 659 710 512 710ZM512 587L512 520 659 520 659 587ZM837 189C794 250 721 310 654 350 667 359 688 379 698 390L704 386C695 410 682 437 669 461L533 461C548 435 561 410 572 385L502 366C471 447 405 545 335 606 349 616 373 638 385 652 405 634 424 613 443 591L443 930 512 930 512 894 960 894 960 834 728 834 728 764 914 764 914 710 728 710 728 641 912 641 912 587 728 587 728 520 943 520 943 461 736 461 778 387 724 371C775 333 828 285 869 235L869 372 930 372 930 44 673 44 673 99 769 99C742 139 698 176 651 204 664 212 686 228 696 237 744 205 796 157 827 108L792 99 869 99 869 199ZM512 764L659 764 659 834 512 834ZM546 194C502 257 429 318 362 361 375 369 397 389 406 400 465 359 531 300 579 239L579 372 639 372 639 44 388 44 388 99 481 99C453 140 406 178 357 207 371 214 393 231 403 239 453 208 507 158 539 108L504 99 579 99 579 204ZM163 10C154 72 143 143 131 216L40 216 40 286 118 286C96 409 71 530 51 614L110 650 120 609C148 633 177 658 205 684 165 771 112 833 47 871 62 886 83 913 93 931 161 885 216 822 259 737 295 774 326 810 347 841L393 781C369 747 332 707 289 667 331 553 356 407 365 220L321 214 309 216 199 216 233 17ZM186 286L293 286C283 416 263 525 232 615 200 587 167 560 136 536 152 459 169 373 186 286Z"/>
</svg>