<svg xmlns="http://www.w3.org/2000/svg" name="gid4597" data-unicode="孑"
    viewBox="0 0 1000 1000">
  <!--
© 2014-2021 Adobe (http://www.adobe.com/).
Noto is a trademark of Google Inc.
This Font Software is licensed under the SIL Open Font License, Version 1.1. This Font Software is distributed on an "AS IS" BASIS, WITHOUT WARRANTIES OR CONDITIONS OF ANY KIND, either express or implied. See the SIL Open Font License for the specific language, permissions and limitations governing your use of this Font Software.
http://scripts.sil.org/OFL
  -->
<path d="M151 109L151 184 718 184C658 234 581 287 510 326L463 326 463 477C305 490 160 501 49 509L57 591 463 556 463 860C463 878 457 884 436 885 413 886 339 886 259 883 271 905 286 939 291 961 387 961 452 959 490 947 528 935 541 912 541 862L541 549 945 512 946 435 541 471 541 388C653 327 785 234 871 148L814 105 797 109Z"/>
</svg>