<svg xmlns="http://www.w3.org/2000/svg" name="gid4605" data-unicode="孛"
    viewBox="0 0 1000 1000">
  <!--
© 2014-2021 Adobe (http://www.adobe.com/).
Noto is a trademark of Google Inc.
This Font Software is licensed under the SIL Open Font License, Version 1.1. This Font Software is distributed on an "AS IS" BASIS, WITHOUT WARRANTIES OR CONDITIONS OF ANY KIND, either express or implied. See the SIL Open Font License for the specific language, permissions and limitations governing your use of this Font Software.
http://scripts.sil.org/OFL
  -->
<path d="M463 585L463 655 58 655 58 722 463 722 463 873C463 888 458 891 440 892 421 893 355 893 284 891 295 911 307 940 311 960 401 960 458 960 492 949 528 938 537 917 537 874L537 722 944 722 944 655 537 655 537 638C621 597 712 537 775 478L726 440 710 444 242 444 242 505 637 505C599 533 553 562 508 585ZM88 295L88 489 160 489 160 360 847 360 847 489 922 489 922 295 536 295 536 204 928 204 928 138 536 138 536 40 462 40 462 138 85 138 85 204 462 204 462 295Z"/>
</svg>