<svg xmlns="http://www.w3.org/2000/svg" name="gid4607" data-unicode="孝"
    viewBox="0 0 1000 1000">
  <!--
© 2014-2021 Adobe (http://www.adobe.com/).
Noto is a trademark of Google Inc.
This Font Software is licensed under the SIL Open Font License, Version 1.1. This Font Software is distributed on an "AS IS" BASIS, WITHOUT WARRANTIES OR CONDITIONS OF ANY KIND, either express or implied. See the SIL Open Font License for the specific language, permissions and limitations governing your use of this Font Software.
http://scripts.sil.org/OFL
  -->
<path d="M494 614L494 672 134 672 134 738 494 738 494 876C494 889 489 893 472 893 454 894 392 895 326 893 337 912 350 940 354 960 438 960 491 959 525 949 558 938 568 918 568 877L568 738 945 738 945 672 568 672 568 660C655 622 747 567 814 513L766 473 750 477 453 477C501 449 546 419 591 387L949 387 949 321 678 321C756 258 828 188 890 114L827 78C794 118 758 157 718 195L718 150 478 150 478 40 404 40 404 150 137 150 137 216 404 216 404 321 52 321 52 387 469 387C419 419 366 449 312 477L250 477 250 508C179 541 107 571 34 596 49 610 73 641 83 657 171 623 260 583 345 538L672 538C632 566 584 593 537 614ZM478 321L478 216 695 216C655 253 612 288 566 321Z"/>
</svg>