<svg xmlns="http://www.w3.org/2000/svg"
    viewBox="0 0 1000 1000">
  <!--
© 2014-2021 Adobe (http://www.adobe.com/).
Noto is a trademark of Google Inc.
This Font Software is licensed under the SIL Open Font License, Version 1.1. This Font Software is distributed on an "AS IS" BASIS, WITHOUT WARRANTIES OR CONDITIONS OF ANY KIND, either express or implied. See the SIL Open Font License for the specific language, permissions and limitations governing your use of this Font Software.
http://scripts.sil.org/OFL
  -->
<path d="M470 156L470 204 88 204 88 266 470 266 470 341C470 353 466 357 449 358 433 358 375 359 311 357 322 374 332 397 336 415 417 415 469 416 501 407 533 397 543 380 543 343L543 266 920 266 920 204 546 204C631 175 727 129 792 81L747 40 730 44 214 44 214 106 637 106C604 124 566 142 530 156ZM678 557L678 638 485 638 485 701 678 701 678 849C678 861 674 864 660 865 645 865 598 865 544 863 554 883 565 911 568 930 636 930 682 929 711 919 741 908 748 889 748 850L748 701 956 701 956 638 748 638 748 605C806 569 871 516 915 465L870 430 856 434 532 434 532 497 793 497C771 518 746 540 721 557ZM38 663L46 730 244 702 244 849C244 861 240 864 226 865 212 865 167 865 115 863 124 883 135 910 139 929 205 930 249 929 278 919 306 908 314 888 314 850L314 692 477 668 476 605 314 628 314 599C370 563 431 513 475 465L431 430 416 434 106 434 106 497 353 497C330 519 304 540 279 557L244 557 244 637C166 648 94 657 38 663Z"/>
</svg>