<svg xmlns="http://www.w3.org/2000/svg" name="gid4615" data-unicode="孩"
    viewBox="0 0 1000 1000">
  <!--
© 2014-2021 Adobe (http://www.adobe.com/).
Noto is a trademark of Google Inc.
This Font Software is licensed under the SIL Open Font License, Version 1.1. This Font Software is distributed on an "AS IS" BASIS, WITHOUT WARRANTIES OR CONDITIONS OF ANY KIND, either express or implied. See the SIL Open Font License for the specific language, permissions and limitations governing your use of this Font Software.
http://scripts.sil.org/OFL
  -->
<path d="M794 325C753 392 695 456 629 513 607 490 578 463 548 436 596 386 652 317 697 256L673 245 956 245 956 176 712 176 712 40 638 40 638 176 406 176 433 131 381 96 366 101 61 101 61 171 317 171C289 217 251 266 214 303L190 303 190 472 32 504 49 575 190 544 190 868C190 881 186 884 173 884 160 885 116 885 69 883 79 906 90 939 93 960 155 960 199 958 226 946 254 933 262 911 262 868L262 528 414 494 409 427 262 458 262 353C308 308 358 248 398 188L398 245 612 245C581 292 537 349 497 393L452 358 405 407C461 452 526 512 570 561 505 608 435 649 365 680 381 695 402 719 413 737 591 653 760 513 861 353ZM872 512C766 680 568 821 356 897 375 914 394 941 405 959 516 915 623 854 716 781 787 839 868 913 908 962L970 906C927 859 846 788 775 732 838 675 894 612 938 544Z"/>
</svg>