<svg xmlns="http://www.w3.org/2000/svg" name="gid4620" data-unicode="孱"
    viewBox="0 0 1000 1000">
  <!--
© 2014-2021 Adobe (http://www.adobe.com/).
Noto is a trademark of Google Inc.
This Font Software is licensed under the SIL Open Font License, Version 1.1. This Font Software is distributed on an "AS IS" BASIS, WITHOUT WARRANTIES OR CONDITIONS OF ANY KIND, either express or implied. See the SIL Open Font License for the specific language, permissions and limitations governing your use of this Font Software.
http://scripts.sil.org/OFL
  -->
<path d="M210 147L816 147 816 223 210 223ZM136 91L136 381C136 541 128 762 31 919 49 926 82 944 95 956 195 793 210 550 210 381L210 281 888 281 888 91ZM707 698L707 755 543 755 542 729 415 746 415 729C457 702 502 664 535 627L498 598C537 598 564 597 583 591 608 583 614 571 614 540L614 486 924 486 924 434 614 434 614 431C679 409 750 378 801 342L765 313 753 316 351 316 351 366 669 366C643 378 613 390 585 400L546 400 546 434 251 434 251 486 546 486 546 538C546 548 543 551 531 551 520 552 481 552 437 551 444 564 453 583 456 598L494 598 484 601 237 601 237 652 433 652C416 669 396 685 377 698L348 698 348 754 193 772 201 829 348 808 348 896C348 906 346 909 335 910 324 910 291 911 252 909 260 924 269 945 272 961 327 961 362 962 386 952 409 944 415 930 415 898L415 799 541 780 541 809 707 809 707 894C707 904 704 907 692 908 680 909 643 909 600 907 608 923 617 945 620 961 679 961 719 962 743 952 768 944 775 929 775 896L775 809 950 809 950 755 775 755 775 731C821 704 871 666 907 628L868 597 855 601 592 601 592 652 799 652C779 669 757 685 735 698Z"/>
</svg>