<svg xmlns="http://www.w3.org/2000/svg"
    viewBox="0 0 1000 1000">
  <!--
© 2014-2021 Adobe (http://www.adobe.com/).
Noto is a trademark of Google Inc.
This Font Software is licensed under the SIL Open Font License, Version 1.1. This Font Software is distributed on an "AS IS" BASIS, WITHOUT WARRANTIES OR CONDITIONS OF ANY KIND, either express or implied. See the SIL Open Font License for the specific language, permissions and limitations governing your use of this Font Software.
http://scripts.sil.org/OFL
  -->
<path d="M469 280L469 327 600 327 600 280ZM447 376L447 423 601 423 601 376ZM730 280L730 327 862 327 862 280ZM731 376L731 423 887 423 887 376ZM385 175L385 313 444 313 444 229 638 229 638 441 697 441 697 229 887 229 887 313 946 313 946 175 697 175 697 115 934 115 934 56 416 56 416 115 638 115 638 175ZM399 610L399 928 464 928 464 670 554 670 554 921 616 921 616 670 710 670 710 921 773 921 773 670 869 670 869 858C869 866 867 868 858 869 850 869 826 869 797 869 806 885 817 911 821 929 864 929 892 928 912 917 932 906 937 888 937 859L937 610 662 610 686 540 954 540 954 479 378 479 378 540 612 540C607 563 601 588 595 610ZM183 273L183 439 32 468 47 541 183 512 183 842C183 854 178 858 165 859 154 859 113 859 68 858 79 879 88 910 91 929 156 930 195 928 221 916 246 903 254 882 254 842L254 496 396 465 391 397 254 425 254 320C309 262 369 177 410 100L360 67 345 71 59 71 59 142 299 142C272 188 238 237 205 273Z"/>
</svg>