<svg xmlns="http://www.w3.org/2000/svg" name="gid4638" data-unicode="守"
    viewBox="0 0 1000 1000">
  <!--
© 2014-2021 Adobe (http://www.adobe.com/).
Noto is a trademark of Google Inc.
This Font Software is licensed under the SIL Open Font License, Version 1.1. This Font Software is distributed on an "AS IS" BASIS, WITHOUT WARRANTIES OR CONDITIONS OF ANY KIND, either express or implied. See the SIL Open Font License for the specific language, permissions and limitations governing your use of this Font Software.
http://scripts.sil.org/OFL
  -->
<path d="M181 586C245 650 314 740 343 799L406 756C376 696 305 610 240 548ZM609 280L609 424 58 424 58 497 609 497 609 863C609 881 602 887 582 887 562 888 492 888 418 886 429 907 442 940 446 961 542 961 601 960 637 948 672 936 685 914 685 864L685 497 943 497 943 424 685 424 685 280ZM82 152L82 364 158 364 158 224 837 224 837 364 916 364 916 152 537 152 537 40 458 40 458 152Z"/>
</svg>