<svg xmlns="http://www.w3.org/2000/svg"
    viewBox="0 0 1000 1000">
  <!--
© 2014-2021 Adobe (http://www.adobe.com/).
Noto is a trademark of Google Inc.
This Font Software is licensed under the SIL Open Font License, Version 1.1. This Font Software is distributed on an "AS IS" BASIS, WITHOUT WARRANTIES OR CONDITIONS OF ANY KIND, either express or implied. See the SIL Open Font License for the specific language, permissions and limitations governing your use of this Font Software.
http://scripts.sil.org/OFL
  -->
<path d="M74 113L74 310 147 310 147 182 849 182 849 298 925 298 925 113 537 113 537 10 461 10 461 113ZM544 319L544 802C544 896 572 919 664 919 685 919 815 919 837 919 922 919 943 878 953 740 932 734 902 722 886 709 881 826 874 849 832 849 804 849 694 849 672 849 625 849 617 842 617 803L617 388 805 388C803 530 800 583 792 595 786 603 778 604 765 604 753 604 721 604 686 601 696 619 703 648 705 668 742 670 780 670 800 668 824 665 838 658 852 641 870 617 873 546 875 349 875 339 876 319 876 319ZM252 424L419 424C402 495 377 558 346 614 310 577 254 533 202 500 220 476 237 451 252 424ZM258 234C214 372 133 494 29 571 46 583 75 609 87 622 112 601 137 578 160 551 216 590 274 639 306 677 238 770 150 835 52 872 68 886 88 915 96 934 296 849 449 675 503 371L457 355 443 358 287 358C303 324 317 289 329 252Z"/>
</svg>