<svg xmlns="http://www.w3.org/2000/svg"
    viewBox="0 0 1000 1000">
  <!--
© 2014-2021 Adobe (http://www.adobe.com/).
Noto is a trademark of Google Inc.
This Font Software is licensed under the SIL Open Font License, Version 1.1. This Font Software is distributed on an "AS IS" BASIS, WITHOUT WARRANTIES OR CONDITIONS OF ANY KIND, either express or implied. See the SIL Open Font License for the specific language, permissions and limitations governing your use of this Font Software.
http://scripts.sil.org/OFL
  -->
<path d="M459 208L459 292 162 292 162 355 459 355 459 445 178 445 178 508 457 508C455 539 450 571 438 602L62 602 62 669 404 669C351 744 249 815 52 869 68 885 90 914 98 930 328 861 439 768 491 669L500 669C576 813 712 897 909 932 919 912 939 882 955 866 780 842 650 777 579 669L943 669 943 602 518 602C526 571 531 539 533 508L832 508 832 445 535 445 535 355 845 355 845 302 922 302 922 109 537 109 537 10 461 10 461 109 77 109 77 302 151 302 151 176 845 176 845 292 535 292 535 208Z"/>
</svg>