<svg xmlns="http://www.w3.org/2000/svg"
    viewBox="0 0 1000 1000">
  <!--
© 2014-2021 Adobe (http://www.adobe.com/).
Noto is a trademark of Google Inc.
This Font Software is licensed under the SIL Open Font License, Version 1.1. This Font Software is distributed on an "AS IS" BASIS, WITHOUT WARRANTIES OR CONDITIONS OF ANY KIND, either express or implied. See the SIL Open Font License for the specific language, permissions and limitations governing your use of this Font Software.
http://scripts.sil.org/OFL
  -->
<path d="M203 260L203 322 795 322 795 260ZM62 835L62 903 937 903 937 835ZM292 608L702 608 702 705 292 705ZM292 456L702 456 702 551 292 551ZM219 397L219 764 777 764 777 397ZM80 104L80 297 154 297 154 171 844 171 844 297 921 297 921 104 536 104 536 10 459 10 459 104Z"/>
</svg>