<svg xmlns="http://www.w3.org/2000/svg"
    viewBox="0 0 1000 1000">
  <!--
© 2014-2021 Adobe (http://www.adobe.com/).
Noto is a trademark of Google Inc.
This Font Software is licensed under the SIL Open Font License, Version 1.1. This Font Software is distributed on an "AS IS" BASIS, WITHOUT WARRANTIES OR CONDITIONS OF ANY KIND, either express or implied. See the SIL Open Font License for the specific language, permissions and limitations governing your use of this Font Software.
http://scripts.sil.org/OFL
  -->
<path d="M74 95L74 280 147 280 147 163 853 163 853 272 928 272 928 95 536 95 536 10 459 10 459 95ZM654 249C694 276 745 313 774 339L594 339C589 303 584 266 581 229L507 229C511 266 515 303 521 339L141 339 141 500C141 615 128 773 28 888 47 896 79 917 93 930 175 833 205 699 213 584L377 584C371 716 364 766 353 780 346 788 338 789 325 789 311 789 276 788 239 785 250 803 257 830 258 852 298 854 338 854 358 851 383 849 398 843 413 826 433 803 441 740 447 584L523 584 523 516 216 516 216 501 216 409 532 409C552 524 581 630 619 716 556 777 485 829 408 869 425 882 454 910 466 925 532 886 595 838 654 783 702 862 762 915 837 926 907 945 947 890 963 751 945 743 917 726 901 711 893 804 880 858 856 855 798 849 748 802 707 728 772 657 828 576 872 486L799 463C766 533 724 598 674 657 645 586 622 501 605 409L933 409 933 339 785 339 829 299C801 274 745 235 702 210Z"/>
</svg>