<svg xmlns="http://www.w3.org/2000/svg" name="gid4691" data-unicode="寇"
    viewBox="0 0 1000 1000">
  <!--
© 2014-2021 Adobe (http://www.adobe.com/).
Noto is a trademark of Google Inc.
This Font Software is licensed under the SIL Open Font License, Version 1.1. This Font Software is distributed on an "AS IS" BASIS, WITHOUT WARRANTIES OR CONDITIONS OF ANY KIND, either express or implied. See the SIL Open Font License for the specific language, permissions and limitations governing your use of this Font Software.
http://scripts.sil.org/OFL
  -->
<path d="M125 306L125 374 446 374 446 306ZM72 128L72 304 146 304 146 197 847 197 847 297 923 297 923 128 536 128 536 40 459 40 459 128ZM521 613C563 637 609 666 651 697 594 743 527 778 454 801 468 813 490 840 498 857 573 829 643 790 704 737 745 769 780 800 804 827L845 774C822 749 788 720 750 691 800 637 840 571 866 491L825 470 812 473 688 473 688 401 889 401 889 341 688 341 688 253 617 253 617 473 521 473 521 536 778 536C757 580 730 619 698 653 653 621 605 591 560 566ZM46 481L46 548 166 548C160 720 141 833 34 901 51 914 74 943 83 961 203 879 227 745 234 548L312 548 312 824C312 917 352 940 491 940 521 940 768 940 800 940 918 940 945 908 958 779 937 774 906 764 888 752 880 854 868 872 797 872 743 872 532 872 491 872 402 872 386 863 386 823L386 548 494 548 494 481Z"/>
</svg>