<svg xmlns="http://www.w3.org/2000/svg" name="gid4703" data-unicode="寘"
    viewBox="0 0 1000 1000">
  <!--
© 2014-2021 Adobe (http://www.adobe.com/).
Noto is a trademark of Google Inc.
This Font Software is licensed under the SIL Open Font License, Version 1.1. This Font Software is distributed on an "AS IS" BASIS, WITHOUT WARRANTIES OR CONDITIONS OF ANY KIND, either express or implied. See the SIL Open Font License for the specific language, permissions and limitations governing your use of this Font Software.
http://scripts.sil.org/OFL
  -->
<path d="M368 544L747 544 747 590 368 590ZM368 630L747 630 747 678 368 678ZM368 458L747 458 747 503 368 503ZM298 414L298 721 820 721 820 414ZM126 433L126 818 345 818C275 853 155 889 60 910 74 924 92 947 102 962 203 939 333 898 419 855L369 818 620 818 584 860C699 891 814 930 886 961L937 910C867 882 755 846 648 818L940 818 940 764 198 764 198 433ZM715 202C618 221 448 234 302 241L302 198 230 198 230 296C230 365 269 377 399 377 428 377 683 377 713 377 805 377 831 361 838 283 820 280 795 273 778 265 773 320 762 329 707 329 653 329 438 329 399 329 317 329 302 323 302 296L302 285C454 281 635 267 749 245ZM82 108L82 277 154 277 154 166 847 166 847 270 921 270 921 108 536 108 536 40 461 40 461 108Z"/>
</svg>