<svg xmlns="http://www.w3.org/2000/svg" name="gid4725" data-unicode="寳"
    viewBox="0 0 1000 1000">
  <!--
© 2014-2021 Adobe (http://www.adobe.com/).
Noto is a trademark of Google Inc.
This Font Software is licensed under the SIL Open Font License, Version 1.1. This Font Software is distributed on an "AS IS" BASIS, WITHOUT WARRANTIES OR CONDITIONS OF ANY KIND, either express or implied. See the SIL Open Font License for the specific language, permissions and limitations governing your use of this Font Software.
http://scripts.sil.org/OFL
  -->
<path d="M568 323C546 364 507 401 462 429 475 437 497 454 507 463 551 432 596 384 623 336ZM775 346C815 380 862 430 884 463L933 432C911 400 862 352 822 319ZM261 634L754 634 754 684 261 684ZM261 728L754 728 754 779 261 779ZM261 542L754 542 754 590 261 590ZM578 184C555 228 512 278 452 316 467 324 485 340 496 352 522 333 546 312 566 290L672 290 672 416C672 424 669 427 659 428 650 428 617 428 581 427 589 442 597 462 600 477 652 477 685 477 708 469 730 461 735 447 735 417L735 290 874 290 874 260 928 260 928 103 536 103 536 39 461 39 461 103 73 103 73 260 142 260 142 165 857 165 857 239 608 239C619 224 628 209 637 193ZM86 428L91 482C189 474 324 463 457 451L457 401 326 411 326 359 438 359 438 315 326 315 326 266 452 266 452 219 143 219 143 266 263 266 263 315 150 315 150 359 263 359 263 416ZM567 858C687 890 805 929 875 960L940 914C871 887 759 852 653 824L830 824 830 497 188 497 188 824 346 824C278 858 155 891 54 908 69 921 90 946 101 959 210 940 344 900 424 856L374 824 607 824Z"/>
</svg>