<svg xmlns="http://www.w3.org/2000/svg" name="gid4736" data-unicode="尃"
    viewBox="0 0 1000 1000">
  <!--
© 2014-2021 Adobe (http://www.adobe.com/).
Noto is a trademark of Google Inc.
This Font Software is licensed under the SIL Open Font License, Version 1.1. This Font Software is distributed on an "AS IS" BASIS, WITHOUT WARRANTIES OR CONDITIONS OF ANY KIND, either express or implied. See the SIL Open Font License for the specific language, permissions and limitations governing your use of this Font Software.
http://scripts.sil.org/OFL
  -->
<path d="M221 743C280 784 350 845 381 887L440 842C407 801 340 746 281 707L648 707 648 877C648 891 643 895 626 896 608 897 547 897 481 895 491 914 502 941 505 961 592 961 646 960 679 950 712 940 722 920 722 878L722 707 949 707 949 647 722 647 722 579 648 579 648 647 52 647 52 707 270 707ZM157 252L157 598 228 598 228 530 460 530 460 585 533 585 533 530 768 530 768 598 841 598 841 252 533 252 533 193 927 193 927 135 800 135 825 102C791 81 730 53 679 39L645 80C685 93 734 115 768 135L533 135 533 40 460 40 460 135 76 135 76 193 460 193 460 252ZM460 418L460 477 228 477 228 418ZM460 367L228 367 228 311 460 311ZM533 418L768 418 768 477 533 477ZM533 367L533 311 768 311 768 367Z"/>
</svg>