<svg xmlns="http://www.w3.org/2000/svg" name="gid4739" data-unicode="将"
    viewBox="0 0 1000 1000">
  <!--
© 2014-2021 Adobe (http://www.adobe.com/).
Noto is a trademark of Google Inc.
This Font Software is licensed under the SIL Open Font License, Version 1.1. This Font Software is distributed on an "AS IS" BASIS, WITHOUT WARRANTIES OR CONDITIONS OF ANY KIND, either express or implied. See the SIL Open Font License for the specific language, permissions and limitations governing your use of this Font Software.
http://scripts.sil.org/OFL
  -->
<path d="M849 39C729 78 516 112 333 134 342 149 350 176 353 194 540 175 758 141 902 98ZM369 245C400 304 429 382 438 431L505 406C495 358 463 282 431 225ZM565 206C588 266 607 342 610 389L681 371C676 324 655 249 632 191ZM422 660C474 713 530 790 553 840L618 802C593 752 535 679 483 627ZM37 197C83 262 130 348 148 406L213 371C194 315 145 231 98 168ZM873 178C831 256 755 360 700 424L749 452 749 517 341 517 341 586 749 586 749 868C749 882 744 886 728 887 711 888 654 888 593 885 603 907 614 938 617 959 697 959 749 958 781 947 813 935 823 913 823 868L823 586 960 586 960 517 823 517 823 437 774 437C828 374 892 289 941 213ZM26 695L63 771 227 659 227 959 300 959 300 40 227 40 227 578C152 623 77 668 26 695Z"/>
</svg>