<svg xmlns="http://www.w3.org/2000/svg"
    viewBox="0 0 1000 1000">
  <!--
© 2014-2021 Adobe (http://www.adobe.com/).
Noto is a trademark of Google Inc.
This Font Software is licensed under the SIL Open Font License, Version 1.1. This Font Software is distributed on an "AS IS" BASIS, WITHOUT WARRANTIES OR CONDITIONS OF ANY KIND, either express or implied. See the SIL Open Font License for the specific language, permissions and limitations governing your use of this Font Software.
http://scripts.sil.org/OFL
  -->
<path d="M86 536L89 594C235 592 435 589 642 583L642 644 46 644 46 706 256 706 206 748C266 785 337 841 371 880L425 830C391 793 320 741 261 706L642 706 642 848C642 860 638 865 621 866 605 866 549 866 488 864 498 883 509 911 512 930 592 930 643 930 675 919 706 909 715 889 715 850L715 706 955 706 955 644 715 644 715 581 816 578C838 592 857 605 872 617L916 575C875 544 805 505 738 478L853 478 853 204 535 204 535 147 914 147 914 87 535 87 535 11 461 11 461 87 75 87 75 147 461 147 461 204 153 204 153 478 461 478 461 533ZM224 365L461 365 461 427 224 427ZM535 365L779 365 779 427 535 427ZM224 255L461 255 461 316 224 316ZM535 255L779 255 779 316 535 316ZM648 499C673 507 699 518 725 530L535 533 535 478 672 478Z"/>
</svg>