<svg xmlns="http://www.w3.org/2000/svg" name="gid4751" data-unicode="尓"
    viewBox="0 0 1000 1000">
  <!--
© 2014-2021 Adobe (http://www.adobe.com/).
Noto is a trademark of Google Inc.
This Font Software is licensed under the SIL Open Font License, Version 1.1. This Font Software is distributed on an "AS IS" BASIS, WITHOUT WARRANTIES OR CONDITIONS OF ANY KIND, either express or implied. See the SIL Open Font License for the specific language, permissions and limitations governing your use of this Font Software.
http://scripts.sil.org/OFL
  -->
<path d="M246 447C204 569 130 686 43 759 63 770 98 793 113 807 197 725 276 601 324 466ZM702 473C777 577 853 717 881 806L957 772C927 682 847 546 770 444ZM278 39C226 185 139 327 40 416 60 429 94 455 109 468 160 417 209 351 254 277L470 277 470 860C470 878 464 883 444 884 424 885 354 885 282 882 293 905 306 939 310 960 402 961 463 959 498 947 535 935 547 912 547 861L547 277 931 277 931 203 295 203C319 157 340 109 358 60Z"/>
</svg>