<svg xmlns="http://www.w3.org/2000/svg"
    viewBox="0 0 1000 1000">
  <!--
© 2014-2021 Adobe (http://www.adobe.com/).
Noto is a trademark of Google Inc.
This Font Software is licensed under the SIL Open Font License, Version 1.1. This Font Software is distributed on an "AS IS" BASIS, WITHOUT WARRANTIES OR CONDITIONS OF ANY KIND, either express or implied. See the SIL Open Font License for the specific language, permissions and limitations governing your use of this Font Software.
http://scripts.sil.org/OFL
  -->
<path d="M513 371L513 791C513 885 542 912 643 912 663 912 799 912 822 912 923 912 945 862 955 679 934 673 901 661 883 646 877 809 869 838 817 838 786 838 673 838 650 838 601 838 591 831 591 791L591 371ZM602 72C679 115 779 179 828 221L876 164C825 123 724 62 647 23ZM420 13C420 91 420 169 416 245L55 245 55 317 411 317C389 550 312 757 38 866 56 882 80 910 91 930 383 807 464 574 487 317L947 317 947 245 492 245C496 168 497 90 497 13Z"/>
</svg>