<svg xmlns="http://www.w3.org/2000/svg"
    viewBox="0 0 1000 1000">
  <!--
© 2014-2021 Adobe (http://www.adobe.com/).
Noto is a trademark of Google Inc.
This Font Software is licensed under the SIL Open Font License, Version 1.1. This Font Software is distributed on an "AS IS" BASIS, WITHOUT WARRANTIES OR CONDITIONS OF ANY KIND, either express or implied. See the SIL Open Font License for the specific language, permissions and limitations governing your use of this Font Software.
http://scripts.sil.org/OFL
  -->
<path d="M672 232L672 329 534 329 534 181 879 181 879 114 534 114 534 8 460 8 460 114 129 114 129 181 460 181 460 329 325 329 325 232 251 232 251 329 54 329 54 396 251 396 251 536 70 536 70 603 310 603C295 750 248 827 38 867 53 882 73 913 81 932 313 880 370 783 389 603L584 603 584 822C584 902 607 923 697 923 716 923 825 923 845 923 923 923 944 890 953 752 932 747 901 736 885 723 881 837 875 854 838 854 814 854 724 854 706 854 667 854 659 849 659 822L659 603 935 603 935 536 746 536 746 396 947 396 947 329 746 329 746 232ZM325 396L672 396 672 536 325 536Z"/>
</svg>