<svg xmlns="http://www.w3.org/2000/svg" name="gid4777" data-unicode="尹"
    viewBox="0 0 1000 1000">
  <!--
© 2014-2021 Adobe (http://www.adobe.com/).
Noto is a trademark of Google Inc.
This Font Software is licensed under the SIL Open Font License, Version 1.1. This Font Software is distributed on an "AS IS" BASIS, WITHOUT WARRANTIES OR CONDITIONS OF ANY KIND, either express or implied. See the SIL Open Font License for the specific language, permissions and limitations governing your use of this Font Software.
http://scripts.sil.org/OFL
  -->
<path d="M140 98L140 170 411 170 411 341 51 341 51 414 411 414 411 440C411 489 409 537 399 583L129 583 129 655 377 655C337 752 252 840 73 906 90 919 115 947 126 964 331 886 421 777 459 655L766 655 766 707 842 707 842 414 953 414 953 341 842 341 842 98ZM486 414L766 414 766 583 476 583C484 536 486 488 486 440ZM486 341L486 170 766 170 766 341Z"/>
</svg>