<svg xmlns="http://www.w3.org/2000/svg"
    viewBox="0 0 1000 1000">
  <!--
© 2014-2021 Adobe (http://www.adobe.com/).
Noto is a trademark of Google Inc.
This Font Software is licensed under the SIL Open Font License, Version 1.1. This Font Software is distributed on an "AS IS" BASIS, WITHOUT WARRANTIES OR CONDITIONS OF ANY KIND, either express or implied. See the SIL Open Font License for the specific language, permissions and limitations governing your use of this Font Software.
http://scripts.sil.org/OFL
  -->
<path d="M294 380C332 429 373 497 389 541L454 513C438 469 395 403 356 355ZM807 350C783 401 738 474 703 519L758 542C795 500 840 435 878 377ZM217 118L817 118 817 238 217 238ZM142 52L142 344C142 504 133 726 32 883 51 890 84 909 98 922 203 758 217 514 217 344L217 305 892 305 892 52ZM543 337L543 546 233 546 233 615 489 615C416 710 303 798 194 843 210 856 232 883 244 901 353 849 467 752 543 645L543 925 616 925 616 639C688 751 800 847 916 897 928 878 950 851 967 837 853 796 741 711 672 615L949 615 949 546 616 546 616 337Z"/>
</svg>