<svg xmlns="http://www.w3.org/2000/svg" name="gid4808" data-unicode="層"
    viewBox="0 0 1000 1000">
  <!--
© 2014-2021 Adobe (http://www.adobe.com/).
Noto is a trademark of Google Inc.
This Font Software is licensed under the SIL Open Font License, Version 1.1. This Font Software is distributed on an "AS IS" BASIS, WITHOUT WARRANTIES OR CONDITIONS OF ANY KIND, either express or implied. See the SIL Open Font License for the specific language, permissions and limitations governing your use of this Font Software.
http://scripts.sil.org/OFL
  -->
<path d="M216 147L813 147 813 231 216 231ZM266 359L266 621 886 621 886 359 732 359C749 341 767 320 784 299L759 291 888 291 888 87 141 87 141 379C141 539 132 760 33 917 52 925 84 943 98 956 202 792 216 548 216 379L216 291 380 291 354 301C371 317 387 339 399 359ZM423 291L711 291C696 313 676 339 659 359L471 359C463 338 444 312 423 291ZM384 819L772 819 772 878 384 878ZM384 773L384 717 772 717 772 773ZM311 665L311 960 384 960 384 929 772 929 772 958 848 958 848 665ZM337 512L536 512 536 574 337 574ZM606 512L813 512 813 574 606 574ZM337 406L536 406 536 466 337 466ZM606 406L813 406 813 466 606 466Z"/>
</svg>