<svg xmlns="http://www.w3.org/2000/svg" name="gid4810" data-unicode="屧"
    viewBox="0 0 1000 1000">
  <!--
© 2014-2021 Adobe (http://www.adobe.com/).
Noto is a trademark of Google Inc.
This Font Software is licensed under the SIL Open Font License, Version 1.1. This Font Software is distributed on an "AS IS" BASIS, WITHOUT WARRANTIES OR CONDITIONS OF ANY KIND, either express or implied. See the SIL Open Font License for the specific language, permissions and limitations governing your use of this Font Software.
http://scripts.sil.org/OFL
  -->
<path d="M208 138L820 138 820 222 208 222ZM355 302C320 347 264 391 208 424L208 374 208 282 893 282 893 79 135 79 135 374C135 534 127 759 34 918 52 925 84 942 98 955 146 872 174 769 189 665L210 696C236 679 262 660 287 638L287 960 350 960 350 579C382 546 411 510 435 474L374 452C332 517 264 579 195 624 202 564 205 505 207 450L234 483C298 445 369 383 415 322ZM408 365L408 418 476 418 476 640 636 640 636 694 400 694 400 752 592 752C541 813 461 870 385 896 400 909 419 932 429 948 505 914 584 849 636 779L636 960 701 960 701 773C755 846 839 912 922 945 932 928 952 904 966 891 884 865 801 812 749 752L948 752 948 694 701 694 701 640 923 640 923 588 536 588 536 418 623 418 623 535 846 535 846 418 942 418 942 365 846 365 846 296 787 296 787 365 680 365 680 293 623 293 623 365 536 365 536 304 476 304 476 365ZM787 418L787 481 680 481 680 418Z"/>
</svg>