<svg xmlns="http://www.w3.org/2000/svg" name="gid4822" data-unicode="屹"
    viewBox="0 0 1000 1000">
  <!--
© 2014-2021 Adobe (http://www.adobe.com/).
Noto is a trademark of Google Inc.
This Font Software is licensed under the SIL Open Font License, Version 1.1. This Font Software is distributed on an "AS IS" BASIS, WITHOUT WARRANTIES OR CONDITIONS OF ANY KIND, either express or implied. See the SIL Open Font License for the specific language, permissions and limitations governing your use of this Font Software.
http://scripts.sil.org/OFL
  -->
<path d="M203 51L203 693 132 693 132 231 73 231 73 861 132 861 132 757 341 757 341 831 398 831 398 231 341 231 341 693 267 693 267 51ZM506 405L506 472 748 472C484 752 472 806 472 853 472 911 515 947 611 947L842 947C923 947 950 920 959 751 938 747 913 737 894 727 891 858 881 876 845 876L609 876C571 876 547 867 547 842 547 809 568 759 879 440 882 436 886 430 888 425L841 404 824 405ZM577 40C540 177 477 313 400 400 418 410 449 433 462 445 501 396 538 335 570 267L960 267 960 200 600 200C619 154 636 106 650 57Z"/>
</svg>