<svg xmlns="http://www.w3.org/2000/svg"
    viewBox="0 0 1000 1000">
  <!--
© 2014-2021 Adobe (http://www.adobe.com/).
Noto is a trademark of Google Inc.
This Font Software is licensed under the SIL Open Font License, Version 1.1. This Font Software is distributed on an "AS IS" BASIS, WITHOUT WARRANTIES OR CONDITIONS OF ANY KIND, either express or implied. See the SIL Open Font License for the specific language, permissions and limitations governing your use of this Font Software.
http://scripts.sil.org/OFL
  -->
<path d="M645 9L645 163 423 163 423 231 645 231 645 386 438 386 438 453 540 453 484 467C518 571 567 661 630 735 550 798 456 842 356 867 371 882 388 912 396 930 499 899 596 853 679 786 747 850 828 898 924 929 934 909 956 880 973 865 880 838 800 795 735 737 820 653 886 542 924 401L877 383 863 386 718 386 718 231 945 231 945 163 718 163 718 9ZM553 453L833 453C800 546 749 624 685 687 626 621 582 542 553 453ZM207 20L207 656 133 656 133 208 74 208 74 821 133 821 133 720 347 720 347 782 404 782 404 208 347 208 347 656 270 656 270 20Z"/>
</svg>