<svg xmlns="http://www.w3.org/2000/svg"
    viewBox="0 0 1000 1000">
  <!--
© 2014-2021 Adobe (http://www.adobe.com/).
Noto is a trademark of Google Inc.
This Font Software is licensed under the SIL Open Font License, Version 1.1. This Font Software is distributed on an "AS IS" BASIS, WITHOUT WARRANTIES OR CONDITIONS OF ANY KIND, either express or implied. See the SIL Open Font License for the specific language, permissions and limitations governing your use of this Font Software.
http://scripts.sil.org/OFL
  -->
<path d="M282 175C316 223 347 288 357 332L420 308C409 264 379 200 343 154ZM649 148C633 197 600 269 574 314L632 333C660 291 694 226 723 169ZM89 63L89 930 162 930 162 134 843 134 843 839C843 857 837 862 820 862 804 863 748 864 690 862 700 881 712 912 715 931 799 932 847 930 876 918 906 906 917 884 917 839L917 63ZM666 477L666 682 531 682 531 401 802 401 802 338 210 338 210 401 462 401 462 682 330 682 330 477 265 477 265 814 330 814 330 746 666 746 666 800 732 800 732 477Z"/>
</svg>