<svg xmlns="http://www.w3.org/2000/svg" name="gid4841" data-unicode="岣"
    viewBox="0 0 1000 1000">
  <!--
© 2014-2021 Adobe (http://www.adobe.com/).
Noto is a trademark of Google Inc.
This Font Software is licensed under the SIL Open Font License, Version 1.1. This Font Software is distributed on an "AS IS" BASIS, WITHOUT WARRANTIES OR CONDITIONS OF ANY KIND, either express or implied. See the SIL Open Font License for the specific language, permissions and limitations governing your use of this Font Software.
http://scripts.sil.org/OFL
  -->
<path d="M558 40C526 168 472 295 401 380L401 239 339 239 339 689 265 689 265 51 203 51 203 689 132 689 132 240 70 240 70 853 132 853 132 752 339 752 339 813 401 813 401 400C418 412 440 429 451 440 488 394 523 336 553 271L864 271C853 686 841 840 814 873 804 887 795 890 779 889 759 889 715 889 666 885 678 906 686 937 688 958 733 960 778 961 807 957 837 954 858 946 877 918 912 871 923 717 934 241 935 231 935 202 935 202L583 202C601 155 618 106 631 56ZM559 464L704 464 704 652 559 652ZM496 400L496 776 559 776 559 716 767 716 767 400Z"/>
</svg>