<svg xmlns="http://www.w3.org/2000/svg" name="gid4845" data-unicode="岩"
    viewBox="0 0 1000 1000">
  <!--
© 2014-2021 Adobe (http://www.adobe.com/).
Noto is a trademark of Google Inc.
This Font Software is licensed under the SIL Open Font License, Version 1.1. This Font Software is distributed on an "AS IS" BASIS, WITHOUT WARRANTIES OR CONDITIONS OF ANY KIND, either express or implied. See the SIL Open Font License for the specific language, permissions and limitations governing your use of this Font Software.
http://scripts.sil.org/OFL
  -->
<path d="M55 403L55 474 325 474C261 589 153 701 26 770 40 785 62 812 73 830 138 794 198 747 250 695L250 962 325 962 325 918 801 918 801 959 878 959 878 609 325 609C359 566 388 520 412 474L947 474 947 403ZM325 850L325 677 801 677 801 850ZM461 39L461 228 200 228 200 85 125 85 125 297 881 297 881 85 803 85 803 228 538 228 538 39Z"/>
</svg>