<svg xmlns="http://www.w3.org/2000/svg"
    viewBox="0 0 1000 1000">
  <!--
© 2014-2021 Adobe (http://www.adobe.com/).
Noto is a trademark of Google Inc.
This Font Software is licensed under the SIL Open Font License, Version 1.1. This Font Software is distributed on an "AS IS" BASIS, WITHOUT WARRANTIES OR CONDITIONS OF ANY KIND, either express or implied. See the SIL Open Font License for the specific language, permissions and limitations governing your use of this Font Software.
http://scripts.sil.org/OFL
  -->
<path d="M352 212L352 301 107 301 107 365 352 365 352 455 212 455 147 448C130 531 104 640 82 709L157 718 170 671 342 671C322 757 266 824 121 873 136 886 157 915 165 931 338 873 397 785 416 671L571 671 571 930 642 930 642 671 849 671C840 738 830 768 819 779 811 787 803 788 789 788 775 788 740 787 702 783 712 801 719 828 721 849 761 851 801 851 821 849 844 847 861 842 876 827 898 805 912 753 925 637 927 626 928 607 928 607L642 607 642 519 870 519 870 301 642 301 642 212 884 212 884 41 809 41 809 148 535 148 535 10 460 10 460 148 191 148 191 41 118 41 118 212ZM571 212L571 301 423 301 423 212ZM571 607L422 607 423 559 423 519 571 519ZM187 607L208 519 352 519 352 558 351 607ZM571 365L571 455 423 455 423 365ZM642 365L798 365 798 455 642 455Z"/>
</svg>