<svg xmlns="http://www.w3.org/2000/svg" name="gid4854" data-unicode="岵"
    viewBox="0 0 1000 1000">
  <!--
© 2014-2021 Adobe (http://www.adobe.com/).
Noto is a trademark of Google Inc.
This Font Software is licensed under the SIL Open Font License, Version 1.1. This Font Software is distributed on an "AS IS" BASIS, WITHOUT WARRANTIES OR CONDITIONS OF ANY KIND, either express or implied. See the SIL Open Font License for the specific language, permissions and limitations governing your use of this Font Software.
http://scripts.sil.org/OFL
  -->
<path d="M206 51L206 697 134 697 134 237 72 237 72 859 134 859 134 762 345 762 345 830 405 830 405 237 345 237 345 697 271 697 271 51ZM489 539L489 960 557 960 557 906 844 906 844 952 914 952 914 539 731 539 731 328 961 328 961 259 731 259 731 43 661 43 661 259 445 259 445 328 661 328 661 539ZM557 836L557 609 844 609 844 836Z"/>
</svg>