<svg xmlns="http://www.w3.org/2000/svg" name="gid4858" data-unicode="岺"
    viewBox="0 0 1000 1000">
  <!--
© 2014-2021 Adobe (http://www.adobe.com/).
Noto is a trademark of Google Inc.
This Font Software is licensed under the SIL Open Font License, Version 1.1. This Font Software is distributed on an "AS IS" BASIS, WITHOUT WARRANTIES OR CONDITIONS OF ANY KIND, either express or implied. See the SIL Open Font License for the specific language, permissions and limitations governing your use of this Font Software.
http://scripts.sil.org/OFL
  -->
<path d="M496 327C545 372 615 419 691 461 767 504 849 542 921 568 933 547 951 518 968 501 820 456 659 373 545 279L801 279 801 317 876 317 876 75 801 75 801 212 535 212 535 39 460 39 460 212 198 212 198 75 123 75 123 322 198 322 198 279 440 279C352 364 192 456 34 511 49 528 67 556 76 574 156 544 236 505 308 463L308 527 691 527 691 461 311 461C386 417 451 370 496 327ZM137 614L137 683 407 683 407 959 482 959 482 683 750 683 750 818C750 831 745 834 730 835 714 835 658 835 596 833 607 853 618 880 622 901 703 901 754 900 785 889 816 877 824 857 824 820L824 614Z"/>
</svg>