<svg xmlns="http://www.w3.org/2000/svg"
    viewBox="0 0 1000 1000">
  <!--
© 2014-2021 Adobe (http://www.adobe.com/).
Noto is a trademark of Google Inc.
This Font Software is licensed under the SIL Open Font License, Version 1.1. This Font Software is distributed on an "AS IS" BASIS, WITHOUT WARRANTIES OR CONDITIONS OF ANY KIND, either express or implied. See the SIL Open Font License for the specific language, permissions and limitations governing your use of this Font Software.
http://scripts.sil.org/OFL
  -->
<path d="M189 21L189 659 128 659 128 210 71 210 71 823 128 823 128 722 315 722 315 783 369 783 369 383C385 395 405 412 415 422 429 404 443 384 456 363L456 796 519 796 519 738 750 738 750 352 463 352C484 317 505 278 524 237L850 237C843 656 835 810 809 841 800 855 790 858 773 858 751 858 703 858 650 853 662 875 671 906 672 928 722 931 774 932 805 928 838 924 859 915 879 885 913 839 920 685 928 209 928 198 929 167 929 167L554 167C573 121 589 74 603 27L531 10C494 138 437 267 369 355L369 210 315 210 315 659 251 659 251 21ZM519 412L685 412 685 512 519 512ZM519 677L519 571 685 571 685 677Z"/>
</svg>