<svg xmlns="http://www.w3.org/2000/svg" name="gid4875" data-unicode="峩"
    viewBox="0 0 1000 1000">
  <!--
© 2014-2021 Adobe (http://www.adobe.com/).
Noto is a trademark of Google Inc.
This Font Software is licensed under the SIL Open Font License, Version 1.1. This Font Software is distributed on an "AS IS" BASIS, WITHOUT WARRANTIES OR CONDITIONS OF ANY KIND, either express or implied. See the SIL Open Font License for the specific language, permissions and limitations governing your use of this Font Software.
http://scripts.sil.org/OFL
  -->
<path d="M694 360C757 393 834 445 872 480L916 428C877 392 798 344 737 313ZM553 299C555 372 560 442 569 507L338 507 338 393C395 383 448 370 491 355L438 302C356 332 202 356 72 371 80 386 89 411 92 426 147 421 207 414 265 406L265 507 57 507 57 572 265 572 265 683 42 712 51 779 265 749 265 876C265 890 260 894 245 895 228 896 174 896 115 894 126 913 139 942 144 961 220 961 267 959 298 948 328 937 338 918 338 876L338 738 518 712 516 649 338 673 338 572 579 572C593 648 612 716 637 773 571 821 494 861 409 891 423 904 442 930 450 946 530 916 603 879 668 835 716 915 778 962 855 962 925 962 951 924 963 792 945 786 919 772 903 758 898 856 888 892 859 892 808 892 763 856 726 792 787 741 839 683 877 618L812 583C783 635 743 683 695 726 678 682 663 630 652 572L945 572 945 507 641 507C632 443 627 373 626 299ZM460 40L460 210 169 210 169 75 95 75 95 278 910 278 910 75 833 75 833 210 536 210 536 40Z"/>
</svg>