<svg xmlns="http://www.w3.org/2000/svg" name="gid4886" data-unicode="峺"
    viewBox="0 0 1000 1000">
  <!--
© 2014-2021 Adobe (http://www.adobe.com/).
Noto is a trademark of Google Inc.
This Font Software is licensed under the SIL Open Font License, Version 1.1. This Font Software is distributed on an "AS IS" BASIS, WITHOUT WARRANTIES OR CONDITIONS OF ANY KIND, either express or implied. See the SIL Open Font License for the specific language, permissions and limitations governing your use of this Font Software.
http://scripts.sil.org/OFL
  -->
<path d="M433 241L433 610 630 610C625 653 615 695 594 734 566 705 543 672 526 636L463 655C487 706 518 750 556 788 513 836 447 877 346 906 360 919 382 947 391 962 489 928 557 882 604 830 687 896 795 938 925 961 934 941 953 912 970 896 836 878 725 839 643 777 675 725 691 668 699 610L920 610 920 241 705 241 705 149 946 149 946 86 397 86 397 149 635 149 635 241ZM189 51L189 689 128 689 128 228 71 228 71 850 128 850 128 752 315 752 315 814 369 814 369 228 315 228 315 689 251 689 251 51ZM500 453L635 453 635 504 634 550 500 550ZM704 550L705 505 705 453 851 453 851 550ZM500 300L635 300 635 396 500 396ZM705 300L851 300 851 396 705 396Z"/>
</svg>