<svg xmlns="http://www.w3.org/2000/svg" name="gid4893" data-unicode="崍"
    viewBox="0 0 1000 1000">
  <!--
© 2014-2021 Adobe (http://www.adobe.com/).
Noto is a trademark of Google Inc.
This Font Software is licensed under the SIL Open Font License, Version 1.1. This Font Software is distributed on an "AS IS" BASIS, WITHOUT WARRANTIES OR CONDITIONS OF ANY KIND, either express or implied. See the SIL Open Font License for the specific language, permissions and limitations governing your use of this Font Software.
http://scripts.sil.org/OFL
  -->
<path d="M186 55L186 689 126 689 126 240 69 240 69 853 126 853 126 752 309 752 309 813 366 813 366 240 309 240 309 689 246 689 246 55ZM628 38L628 176 394 176 394 243 628 243 628 521C569 652 454 786 341 848 357 861 378 887 390 904 478 849 564 753 628 645L628 960 696 960 696 638C760 741 846 839 925 896 937 877 959 851 976 838 873 774 756 642 696 520L696 243 947 243 947 176 696 176 696 38ZM489 294C471 404 433 499 369 559 384 568 409 588 420 599 454 564 482 519 505 468 530 499 555 533 569 557L617 516C598 487 560 441 528 405 538 373 546 339 552 304ZM809 294C796 393 763 479 705 536 720 544 745 564 756 575 783 546 806 511 824 471 860 510 896 556 914 587L960 544C937 507 890 453 847 411 858 377 866 341 872 303Z"/>
</svg>