<svg xmlns="http://www.w3.org/2000/svg"
    viewBox="0 0 1000 1000">
  <!--
© 2014-2021 Adobe (http://www.adobe.com/).
Noto is a trademark of Google Inc.
This Font Software is licensed under the SIL Open Font License, Version 1.1. This Font Software is distributed on an "AS IS" BASIS, WITHOUT WARRANTIES OR CONDITIONS OF ANY KIND, either express or implied. See the SIL Open Font License for the specific language, permissions and limitations governing your use of this Font Software.
http://scripts.sil.org/OFL
  -->
<path d="M192 33L192 616 128 616 128 166 71 166 71 779 128 779 128 678 321 678 321 740 376 740 376 166 321 166 321 616 254 616 254 33ZM433 56L433 364C433 526 423 743 302 897 318 904 347 921 359 932 483 774 500 535 500 364L500 121 954 121 954 56ZM691 144L691 253 542 253 542 314 691 314 691 439 513 439 513 502 950 502 950 439 756 439 756 314 920 314 920 253 756 253 756 144ZM691 524L691 634 519 634 519 696 691 696 691 840 465 840 465 905 961 905 961 840 756 840 756 696 936 696 936 634 756 634 756 524Z"/>
</svg>