<svg xmlns="http://www.w3.org/2000/svg" name="gid4904" data-unicode="崚"
    viewBox="0 0 1000 1000">
  <!--
© 2014-2021 Adobe (http://www.adobe.com/).
Noto is a trademark of Google Inc.
This Font Software is licensed under the SIL Open Font License, Version 1.1. This Font Software is distributed on an "AS IS" BASIS, WITHOUT WARRANTIES OR CONDITIONS OF ANY KIND, either express or implied. See the SIL Open Font License for the specific language, permissions and limitations governing your use of this Font Software.
http://scripts.sil.org/OFL
  -->
<path d="M596 491C555 587 472 666 378 715 392 727 416 751 426 763 461 742 495 717 527 688 553 731 584 770 621 804 538 852 439 884 338 902 350 917 366 944 373 961 481 938 585 902 674 847 746 900 833 938 930 961 940 942 961 914 976 899 884 881 802 849 733 806 800 753 855 686 890 603L845 582 831 586 616 586C633 561 648 535 660 507ZM678 766C635 730 600 689 573 643L793 643C764 690 725 731 678 766ZM398 279L398 342 542 342C527 427 490 484 375 515 389 526 406 550 413 566 546 525 592 453 608 342L715 342 715 451C715 514 730 533 798 533 811 533 874 533 887 533 938 533 956 510 963 418 944 414 917 405 904 394 903 465 898 473 878 473 865 473 816 473 807 473 784 473 781 470 781 451L781 342 949 342 949 279 703 279 703 190 905 190 905 128 703 128 703 39 634 39 634 128 441 128 441 190 634 190 634 279ZM190 50L190 690 128 690 128 240 72 240 72 853 128 853 128 752 315 752 315 814 370 814 370 240 315 240 315 690 252 690 252 50Z"/>
</svg>