<svg xmlns="http://www.w3.org/2000/svg"
    viewBox="0 0 1000 1000">
  <!--
© 2014-2021 Adobe (http://www.adobe.com/).
Noto is a trademark of Google Inc.
This Font Software is licensed under the SIL Open Font License, Version 1.1. This Font Software is distributed on an "AS IS" BASIS, WITHOUT WARRANTIES OR CONDITIONS OF ANY KIND, either express or implied. See the SIL Open Font License for the specific language, permissions and limitations governing your use of this Font Software.
http://scripts.sil.org/OFL
  -->
<path d="M596 461C555 557 472 636 378 685 392 697 416 721 426 733 461 712 495 687 527 658 553 701 584 740 621 774 538 822 439 854 338 872 350 887 366 914 373 931 481 908 585 872 674 817 746 870 833 908 930 931 940 912 961 884 976 869 884 851 802 819 733 776 800 723 855 656 890 573L845 552 831 556 616 556C633 531 648 505 660 477ZM678 736C635 700 600 659 573 613L793 613C764 660 725 701 678 736ZM398 249L398 312 542 312C527 397 490 454 375 485 389 496 406 520 413 536 546 495 592 423 608 312L715 312 715 421C715 484 730 503 798 503 811 503 874 503 887 503 938 503 956 480 963 388 944 384 917 375 904 364 903 435 898 443 878 443 865 443 816 443 807 443 784 443 781 440 781 421L781 312 949 312 949 249 703 249 703 160 905 160 905 98 703 98 703 9 634 9 634 98 441 98 441 160 634 160 634 249ZM190 20L190 660 128 660 128 210 72 210 72 823 128 823 128 722 315 722 315 784 370 784 370 210 315 210 315 660 252 660 252 20Z"/>
</svg>