<svg xmlns="http://www.w3.org/2000/svg" name="gid4905" data-unicode="崛"
    viewBox="0 0 1000 1000">
  <!--
© 2014-2021 Adobe (http://www.adobe.com/).
Noto is a trademark of Google Inc.
This Font Software is licensed under the SIL Open Font License, Version 1.1. This Font Software is distributed on an "AS IS" BASIS, WITHOUT WARRANTIES OR CONDITIONS OF ANY KIND, either express or implied. See the SIL Open Font License for the specific language, permissions and limitations governing your use of this Font Software.
http://scripts.sil.org/OFL
  -->
<path d="M186 60L186 663 126 663 126 204 71 204 71 818 126 818 126 724 309 724 309 780 361 780 361 204 309 204 309 663 246 663 246 60ZM420 80L420 397C420 557 411 770 305 922 321 928 348 945 359 956 468 798 483 565 483 397L483 321 935 321 935 80ZM483 142L868 142 868 258 483 258ZM529 385L529 616 692 616 692 850 571 850 571 669 510 669 510 959 571 959 571 909 881 909 881 956 942 956 942 669 881 669 881 850 756 850 756 616 924 616 924 385 863 385 863 555 756 555 756 345 692 345 692 555 587 555 587 385Z"/>
</svg>