<svg xmlns="http://www.w3.org/2000/svg"
    viewBox="0 0 1000 1000">
  <!--
© 2014-2021 Adobe (http://www.adobe.com/).
Noto is a trademark of Google Inc.
This Font Software is licensed under the SIL Open Font License, Version 1.1. This Font Software is distributed on an "AS IS" BASIS, WITHOUT WARRANTIES OR CONDITIONS OF ANY KIND, either express or implied. See the SIL Open Font License for the specific language, permissions and limitations governing your use of this Font Software.
http://scripts.sil.org/OFL
  -->
<path d="M188 25L188 659 127 659 127 198 70 198 70 820 127 820 127 722 312 722 312 787 369 787 369 198 312 198 312 659 248 659 248 25ZM405 308L405 468 470 468 470 367 883 367 883 467 950 467 950 308 792 308C811 273 835 222 855 176L823 167 933 167 933 102 704 102 704 14 635 14 635 102 416 102 416 167 539 167 502 176C519 217 535 272 541 308ZM562 167L784 167C771 208 749 264 731 299L763 308 571 308 605 298C599 264 581 210 562 167ZM448 504L448 833 513 833 513 568 638 568 638 930 707 930 707 568 843 568 843 761C843 770 840 773 830 773 819 774 789 774 751 773 760 792 769 818 771 837 822 837 858 836 881 825 904 814 909 795 909 762L909 504 707 504 707 405 638 405 638 504Z"/>
</svg>