<svg xmlns="http://www.w3.org/2000/svg" name="gid4932" data-unicode="嵒"
    viewBox="0 0 1000 1000">
  <!--
© 2014-2021 Adobe (http://www.adobe.com/).
Noto is a trademark of Google Inc.
This Font Software is licensed under the SIL Open Font License, Version 1.1. This Font Software is distributed on an "AS IS" BASIS, WITHOUT WARRANTIES OR CONDITIONS OF ANY KIND, either express or implied. See the SIL Open Font License for the specific language, permissions and limitations governing your use of this Font Software.
http://scripts.sil.org/OFL
  -->
<path d="M312 136L682 136 682 246 312 246ZM241 78L241 304 756 304 756 78ZM156 424L375 424 375 548 156 548ZM88 366L88 606 446 606 446 366ZM617 424L844 424 844 548 617 548ZM549 366L549 606 916 606 916 366ZM794 680L794 845 535 845 535 636 460 636 460 845 207 845 207 680 135 680 135 962 207 962 207 914 794 914 794 958 867 958 867 680Z"/>
</svg>