<svg xmlns="http://www.w3.org/2000/svg" name="gid4936" data-unicode="嵜"
    viewBox="0 0 1000 1000">
  <!--
© 2014-2021 Adobe (http://www.adobe.com/).
Noto is a trademark of Google Inc.
This Font Software is licensed under the SIL Open Font License, Version 1.1. This Font Software is distributed on an "AS IS" BASIS, WITHOUT WARRANTIES OR CONDITIONS OF ANY KIND, either express or implied. See the SIL Open Font License for the specific language, permissions and limitations governing your use of this Font Software.
http://scripts.sil.org/OFL
  -->
<path d="M460 40L460 174 179 174 179 61 104 61 104 237 460 237 460 317 100 317 100 379 320 379 255 395C276 426 297 468 307 498L47 498 47 563 728 563 728 873C728 888 723 893 703 894 684 895 615 895 541 893 552 912 565 939 570 959 661 959 719 959 756 949 792 938 803 918 803 874L803 563 960 563 960 498 332 498 382 485C372 455 347 412 325 379L680 379C667 411 643 456 624 486L699 498C718 469 741 430 764 390L694 379 905 379 905 317 535 317 535 237 899 237 899 61 821 61 821 174 537 174 537 40ZM253 683L499 683 499 793 253 793ZM179 626L179 898 253 898 253 851 573 851 573 626Z"/>
</svg>