<svg xmlns="http://www.w3.org/2000/svg"
    viewBox="0 0 1000 1000">
  <!--
© 2014-2021 Adobe (http://www.adobe.com/).
Noto is a trademark of Google Inc.
This Font Software is licensed under the SIL Open Font License, Version 1.1. This Font Software is distributed on an "AS IS" BASIS, WITHOUT WARRANTIES OR CONDITIONS OF ANY KIND, either express or implied. See the SIL Open Font License for the specific language, permissions and limitations governing your use of this Font Software.
http://scripts.sil.org/OFL
  -->
<path d="M460 10L460 144 179 144 179 31 104 31 104 207 460 207 460 287 100 287 100 349 320 349 255 365C276 396 297 438 307 468L47 468 47 533 728 533 728 843C728 858 723 863 703 864 684 865 615 865 541 863 552 882 565 909 570 929 661 929 719 929 756 919 792 908 803 888 803 844L803 533 960 533 960 468 332 468 382 455C372 425 347 382 325 349L680 349C667 381 643 426 624 456L699 468C718 439 741 400 764 360L694 349 905 349 905 287 535 287 535 207 899 207 899 31 821 31 821 144 537 144 537 10ZM253 653L499 653 499 763 253 763ZM179 596L179 868 253 868 253 821 573 821 573 596Z"/>
</svg>