<svg xmlns="http://www.w3.org/2000/svg" name="gid4944" data-unicode="嵬"
    viewBox="0 0 1000 1000">
  <!--
© 2014-2021 Adobe (http://www.adobe.com/).
Noto is a trademark of Google Inc.
This Font Software is licensed under the SIL Open Font License, Version 1.1. This Font Software is distributed on an "AS IS" BASIS, WITHOUT WARRANTIES OR CONDITIONS OF ANY KIND, either express or implied. See the SIL Open Font License for the specific language, permissions and limitations governing your use of this Font Software.
http://scripts.sil.org/OFL
  -->
<path d="M625 789L636 843 840 824 851 850 898 831C894 885 883 894 847 894 815 894 684 894 660 894 606 894 596 889 596 861L596 651 702 651C693 692 677 747 662 788ZM460 39L460 179 199 179 199 71 124 71 124 244 449 244C444 266 436 293 427 317L153 317 153 651 320 651C298 771 241 853 41 897 56 911 76 942 84 960 305 906 373 804 399 651L526 651 526 862C526 935 553 954 655 954 677 954 832 954 854 954 932 954 955 929 964 830 943 826 916 817 900 806L899 822C885 787 856 737 829 701L781 718C794 737 807 758 819 780L715 785C731 747 747 698 764 656L741 651 860 651 860 317 502 317 536 249 503 244 886 244 886 71 808 71 808 179 537 179 537 39ZM225 510L463 510 463 595 225 595ZM537 510L784 510 784 595 537 595ZM225 374L463 374 463 457 225 457ZM537 374L784 374 784 457 537 457Z"/>
</svg>