<svg xmlns="http://www.w3.org/2000/svg"
    viewBox="0 0 1000 1000">
  <!--
© 2014-2021 Adobe (http://www.adobe.com/).
Noto is a trademark of Google Inc.
This Font Software is licensed under the SIL Open Font License, Version 1.1. This Font Software is distributed on an "AS IS" BASIS, WITHOUT WARRANTIES OR CONDITIONS OF ANY KIND, either express or implied. See the SIL Open Font License for the specific language, permissions and limitations governing your use of this Font Software.
http://scripts.sil.org/OFL
  -->
<path d="M255 234L255 300 71 300 71 357 255 357 255 419 87 419 87 681 255 681 255 747 46 747 46 806 255 806 255 932 323 932 323 806 508 806C495 832 479 857 460 880 477 890 502 914 512 929 601 823 625 680 630 565L764 565 764 929 833 929 833 565 961 565 961 500 631 500 631 367C732 352 846 326 925 293L867 241C809 269 708 294 614 312L562 297 562 514C562 597 555 697 516 788L516 747 323 747 323 681 495 681 495 419 323 419 323 357 509 357 509 300 323 300 323 234ZM147 571L260 571 260 632 147 632ZM318 571L434 571 434 632 318 632ZM147 467L260 467 260 527 147 527ZM318 467L434 467 434 527 318 527ZM460 9L460 148 177 148 177 35 102 35 102 211 898 211 898 35 820 35 820 148 537 148 537 9Z"/>
</svg>