<svg xmlns="http://www.w3.org/2000/svg" name="gid4963" data-unicode="嶐"
    viewBox="0 0 1000 1000">
  <!--
© 2014-2021 Adobe (http://www.adobe.com/).
Noto is a trademark of Google Inc.
This Font Software is licensed under the SIL Open Font License, Version 1.1. This Font Software is distributed on an "AS IS" BASIS, WITHOUT WARRANTIES OR CONDITIONS OF ANY KIND, either express or implied. See the SIL Open Font License for the specific language, permissions and limitations governing your use of this Font Software.
http://scripts.sil.org/OFL
  -->
<path d="M460 601C439 650 396 709 353 747 356 733 358 717 358 700 357 648 339 588 272 519 303 453 337 373 364 305L314 277 303 280 93 280 93 956 161 956 161 340 275 340C256 396 229 467 202 527 270 594 287 649 288 694 288 720 283 742 269 751 261 756 251 759 240 759 226 760 205 759 183 757 195 777 201 804 202 823 225 824 250 824 269 822 288 819 304 814 318 805 336 792 347 773 353 749 367 758 387 772 399 783 419 765 440 741 459 716L616 716 616 774 446 774 446 821 616 821 616 887 352 887 352 942 946 942 946 887 685 887 685 821 871 821 871 774 685 774 685 716 902 716 902 666 685 666 685 601 829 601 829 553 482 553 482 601 616 601 616 666 494 666C503 650 512 634 520 619ZM555 352L767 352C737 380 699 405 657 427 614 406 577 383 548 358ZM578 244C532 302 450 366 336 413 352 422 372 443 383 458 427 438 467 415 502 391 528 415 559 436 592 456 511 489 417 512 325 527 337 539 354 566 360 582 401 574 442 564 482 553 542 536 602 515 656 489 739 528 835 556 931 572 940 554 958 529 972 516 885 504 798 483 722 455 781 419 832 377 869 327L829 299 817 302 609 302C623 288 635 273 647 258ZM460 39L460 173 178 173 178 67 103 67 103 234 901 234 901 67 824 67 824 173 537 173 537 39Z"/>
</svg>