<svg xmlns="http://www.w3.org/2000/svg"
    viewBox="0 0 1000 1000">
  <!--
© 2014-2021 Adobe (http://www.adobe.com/).
Noto is a trademark of Google Inc.
This Font Software is licensed under the SIL Open Font License, Version 1.1. This Font Software is distributed on an "AS IS" BASIS, WITHOUT WARRANTIES OR CONDITIONS OF ANY KIND, either express or implied. See the SIL Open Font License for the specific language, permissions and limitations governing your use of this Font Software.
http://scripts.sil.org/OFL
  -->
<path d="M445 83C439 128 425 176 400 203L440 229C470 197 482 146 489 96ZM711 85C706 131 692 178 665 204L707 231C738 199 750 148 756 96ZM634 74C623 105 601 153 583 184L621 200C639 172 662 131 684 94ZM908 75C896 109 871 160 853 191L892 210C912 180 935 137 958 97ZM407 395L407 555 469 555 469 457 880 457 880 555 945 555 945 395ZM186 21L186 659 126 659 126 210 69 210 69 823 126 823 126 722 307 722 307 783 363 783 363 210 307 210 307 659 244 659 244 21ZM529 11C523 181 504 286 395 346 408 355 424 373 431 386 484 356 519 316 542 265 576 294 611 328 630 351L668 309C644 282 599 243 561 212 576 156 582 90 585 11ZM796 11C791 182 772 285 665 344 677 352 692 372 700 384 752 355 786 317 809 268 853 307 898 353 922 385L963 343C934 307 876 254 828 213 843 158 848 91 851 11ZM624 486C622 521 619 553 614 584L418 584 418 646 602 646C575 754 516 831 374 877 388 890 407 915 414 930 576 873 642 779 671 646L837 646C825 787 812 845 795 862 787 870 778 871 762 871 746 871 704 871 661 866 671 884 678 909 679 927 723 930 767 930 789 928 816 927 833 921 850 904 877 876 891 803 906 614 908 604 909 584 909 584L682 584C687 553 690 520 692 486Z"/>
</svg>