<svg xmlns="http://www.w3.org/2000/svg" name="gid4974" data-unicode="嶢"
    viewBox="0 0 1000 1000">
  <!--
© 2014-2021 Adobe (http://www.adobe.com/).
Noto is a trademark of Google Inc.
This Font Software is licensed under the SIL Open Font License, Version 1.1. This Font Software is distributed on an "AS IS" BASIS, WITHOUT WARRANTIES OR CONDITIONS OF ANY KIND, either express or implied. See the SIL Open Font License for the specific language, permissions and limitations governing your use of this Font Software.
http://scripts.sil.org/OFL
  -->
<path d="M187 54L187 691 126 691 126 234 72 234 72 847 126 847 126 753 311 753 311 807 363 807 363 234 311 234 311 691 246 691 246 54ZM391 247L391 305 939 305 939 247 695 247 695 174 895 174 895 118 695 118 695 39 625 39 625 118 437 118 437 174 625 174 625 247ZM485 321L485 390 400 390 400 442 485 442 485 528 379 542 387 600C460 589 550 575 640 561L639 506 550 519 550 442 628 442 628 390 550 390 550 321ZM656 525L656 579 952 579 952 525 828 525 828 442 926 442 926 390 828 390 828 321 763 321 763 390 676 390 676 442 763 442 763 525ZM385 641L385 700 522 700C507 808 464 871 309 905 324 917 342 944 349 961 525 916 577 837 596 700L705 700 705 863C705 931 720 951 791 951 805 951 868 951 882 951 939 951 958 923 964 811 945 807 916 795 902 785 899 876 895 887 874 887 860 887 811 887 801 887 778 887 775 884 775 863L775 700 962 700 962 641Z"/>
</svg>