<svg xmlns="http://www.w3.org/2000/svg"
    viewBox="0 0 1000 1000">
  <!--
© 2014-2021 Adobe (http://www.adobe.com/).
Noto is a trademark of Google Inc.
This Font Software is licensed under the SIL Open Font License, Version 1.1. This Font Software is distributed on an "AS IS" BASIS, WITHOUT WARRANTIES OR CONDITIONS OF ANY KIND, either express or implied. See the SIL Open Font License for the specific language, permissions and limitations governing your use of this Font Software.
http://scripts.sil.org/OFL
  -->
<path d="M455 10C431 121 393 230 340 306L340 182 288 182 288 650 230 650 230 36 173 36 173 650 119 650 119 182 68 182 68 803 119 803 119 710 288 710 288 767 340 767 340 324C354 332 372 346 380 354L388 342 388 560C388 665 381 801 314 897 326 903 347 920 355 931 404 862 426 769 434 681L595 681 595 855C595 867 591 870 580 870 569 871 535 871 494 870 502 887 510 914 512 931 567 930 600 930 621 919 642 908 648 888 648 856L648 630C662 636 684 648 695 655 708 626 719 591 727 552L787 552 787 676 657 676 657 736 787 736 787 930 845 930 845 736 963 736 963 676 845 676 845 552 947 552 947 494 845 494 845 389 787 389 787 494 739 494C743 466 747 438 750 409L697 402C690 485 677 569 648 628L648 264 564 264C584 222 604 169 619 124L581 100 572 103 492 103C499 76 506 49 512 22ZM495 324L495 441 440 441 440 324ZM537 324L595 324 595 441 537 441ZM432 264C448 231 462 195 475 157L547 157C535 194 520 234 506 264ZM495 500L495 621 439 621 440 560 440 500ZM537 500L595 500 595 621 537 621ZM665 60L665 118 748 118C740 215 717 296 652 343 666 352 683 372 691 386 769 329 795 234 805 118L880 118C876 244 872 291 862 304 857 311 852 312 841 312 831 312 810 312 783 310 791 324 797 348 798 365 825 367 852 366 868 365 887 363 900 357 912 343 929 321 934 258 939 86 939 77 939 60 939 60Z"/>
</svg>