<svg xmlns="http://www.w3.org/2000/svg"
    viewBox="0 0 1000 1000">
  <!--
© 2014-2021 Adobe (http://www.adobe.com/).
Noto is a trademark of Google Inc.
This Font Software is licensed under the SIL Open Font License, Version 1.1. This Font Software is distributed on an "AS IS" BASIS, WITHOUT WARRANTIES OR CONDITIONS OF ANY KIND, either express or implied. See the SIL Open Font License for the specific language, permissions and limitations governing your use of this Font Software.
http://scripts.sil.org/OFL
  -->
<path d="M460 9L460 138 175 138 175 36 100 36 100 195 896 195 896 36 818 36 818 138 537 138 537 9ZM452 535L452 659 485 659 485 880 551 880 551 709 657 709 657 930 726 930 726 709 838 709 838 818C838 826 836 828 828 828 820 828 799 828 772 827 780 843 789 864 791 879 833 879 861 879 880 871 900 861 904 847 904 819L904 659 939 659 939 535ZM657 589L657 654 515 654 515 589ZM726 654L726 589 874 589 874 654ZM89 579L89 631 219 631 219 826 147 836 147 672 87 672 87 843 45 848 54 910C158 894 304 873 444 852L442 795 283 817 283 741 419 741 419 692 283 692 283 631 417 631 417 472 153 472 153 432 406 432 406 276 252 276 275 215 198 206C194 225 186 252 179 276L89 276ZM434 345L434 394 813 394 813 444 496 444 496 494 882 494 882 394 961 394 961 345 882 345 882 246 499 246 499 297 813 297 813 345ZM153 327L342 327 342 383 153 383ZM153 524L353 524 353 579 153 579Z"/>
</svg>