<svg xmlns="http://www.w3.org/2000/svg" name="gid4998" data-unicode="巒"
    viewBox="0 0 1000 1000">
  <!--
© 2014-2021 Adobe (http://www.adobe.com/).
Noto is a trademark of Google Inc.
This Font Software is licensed under the SIL Open Font License, Version 1.1. This Font Software is distributed on an "AS IS" BASIS, WITHOUT WARRANTIES OR CONDITIONS OF ANY KIND, either express or implied. See the SIL Open Font License for the specific language, permissions and limitations governing your use of this Font Software.
http://scripts.sil.org/OFL
  -->
<path d="M249 438C271 480 292 536 300 571L350 550C343 516 320 461 297 420ZM92 423C81 483 64 544 35 588 50 595 74 611 84 619 113 572 136 503 149 435ZM848 439C875 490 902 559 912 601L964 578C954 538 925 471 897 421ZM680 424C668 481 649 538 618 580 633 587 657 603 668 611 697 567 722 500 737 435ZM376 70L376 116 605 116 605 70ZM374 248L374 294 607 294 607 248ZM374 335L374 381 607 381 607 335ZM335 157L335 207 639 207 639 157ZM780 670L780 856 533 856 533 619 460 619 460 856 220 856 220 672 149 672 149 959 220 959 220 923 780 923 780 954 853 954 853 670ZM243 136C227 163 207 194 184 226 174 214 161 202 147 189 174 154 205 106 232 63L174 39C159 73 133 120 108 157L78 134 43 176C80 204 122 242 149 273 132 295 115 317 99 335L38 336 45 394 169 387 169 635 230 635 230 384 298 380 315 414 363 388C347 354 313 303 282 265L236 288 266 330 167 333C212 282 261 218 301 163ZM841 136C825 162 804 192 781 222 769 210 754 196 738 183 766 149 797 104 824 63L766 39C751 71 724 116 699 152L673 133 640 176C675 202 716 239 743 269 724 293 705 315 687 334L626 335 633 394 762 387 762 635 824 635 824 383 898 379C906 392 912 404 917 415L965 387C950 353 914 300 880 261L834 285C845 298 856 313 867 329L756 332C804 282 857 218 899 162ZM367 423L367 609 424 609 424 585 554 585 554 608 613 608 613 423ZM424 538L424 470 554 470 554 538Z"/>
</svg>