<svg xmlns="http://www.w3.org/2000/svg"
    viewBox="0 0 1000 1000">
  <!--
© 2014-2021 Adobe (http://www.adobe.com/).
Noto is a trademark of Google Inc.
This Font Software is licensed under the SIL Open Font License, Version 1.1. This Font Software is distributed on an "AS IS" BASIS, WITHOUT WARRANTIES OR CONDITIONS OF ANY KIND, either express or implied. See the SIL Open Font License for the specific language, permissions and limitations governing your use of this Font Software.
http://scripts.sil.org/OFL
  -->
<path d="M407 29C434 68 461 119 474 155L283 155 305 144C287 106 242 52 201 14L139 43C171 76 207 119 228 155L158 155 158 528 460 528 460 601 61 601 61 668 394 668C302 745 159 814 34 849 51 864 73 893 85 912 214 869 362 789 460 696L460 931 535 931 535 691C630 790 777 873 915 914 926 895 948 864 965 849 834 817 692 749 602 668L943 668 943 601 535 601 535 528 852 528 852 155 769 155C800 120 833 79 862 40L786 13C762 55 720 113 685 155L505 155 547 140C535 103 503 47 473 7ZM231 369L460 369 460 468 231 468ZM535 369L777 369 777 468 535 468ZM231 215L460 215 460 312 231 312ZM535 215L777 215 777 312 535 312Z"/>
</svg>