<svg xmlns="http://www.w3.org/2000/svg" name="gid5011" data-unicode="巤"
    viewBox="0 0 1000 1000">
  <!--
© 2014-2021 Adobe (http://www.adobe.com/).
Noto is a trademark of Google Inc.
This Font Software is licensed under the SIL Open Font License, Version 1.1. This Font Software is distributed on an "AS IS" BASIS, WITHOUT WARRANTIES OR CONDITIONS OF ANY KIND, either express or implied. See the SIL Open Font License for the specific language, permissions and limitations governing your use of this Font Software.
http://scripts.sil.org/OFL
  -->
<path d="M267 600C309 620 358 654 381 680L419 637C394 611 345 579 303 560ZM258 727C298 750 345 785 368 812L406 770C384 743 336 709 295 688ZM560 598C603 620 654 655 679 680L715 636C689 611 638 579 595 558ZM555 728C598 754 649 794 673 821L713 779C687 751 635 713 591 689ZM747 536C749 791 782 960 882 960 931 960 954 935 963 839 946 833 924 822 909 808 907 869 901 895 885 895 840 895 814 759 816 536ZM658 310C620 329 574 347 525 363 471 343 414 324 363 310ZM685 310L803 310 803 467 676 467 706 442C674 425 631 405 583 386 632 367 679 348 717 327ZM306 340C352 352 401 368 450 385 381 404 309 420 242 432 254 440 270 456 279 467L200 467 200 310 348 310ZM301 467C367 452 442 432 512 410 560 429 604 449 639 467ZM772 40C743 69 694 112 646 150 700 187 750 226 779 257L543 257 588 239C563 212 519 177 477 149 511 122 548 91 582 61L510 40C482 70 434 112 388 151 440 187 487 226 516 257L284 257 329 239C304 213 262 177 219 149 254 121 289 91 322 60L251 40C223 70 177 112 132 151 183 187 229 226 257 257L130 257 130 520 875 520 875 257 800 257 849 237C824 211 780 176 736 148 772 122 810 91 843 61ZM46 883L56 950C148 936 273 918 393 899L390 834 237 857 237 537 167 537 167 867ZM396 885L407 950C501 935 629 913 752 894L749 832 520 867 520 539 452 539 452 877Z"/>
</svg>