<svg xmlns="http://www.w3.org/2000/svg" name="gid5028" data-unicode="巽"
    viewBox="0 0 1000 1000">
  <!--
© 2014-2021 Adobe (http://www.adobe.com/).
Noto is a trademark of Google Inc.
This Font Software is licensed under the SIL Open Font License, Version 1.1. This Font Software is distributed on an "AS IS" BASIS, WITHOUT WARRANTIES OR CONDITIONS OF ANY KIND, either express or implied. See the SIL Open Font License for the specific language, permissions and limitations governing your use of this Font Software.
http://scripts.sil.org/OFL
  -->
<path d="M570 841C690 878 810 925 882 962L950 910C871 873 741 827 622 791ZM367 790C296 831 156 879 48 905 65 920 90 945 103 961 209 935 347 887 436 840ZM628 437L628 527 372 527 372 437 296 437 296 527 120 527 120 594 296 594 296 706 56 706 56 773 946 773 946 706 704 706 704 594 886 594 886 527 704 527 704 437ZM372 706L372 594 628 594 628 706ZM104 218L104 344C104 415 128 432 219 432 237 432 358 432 378 432 446 432 468 412 476 322 456 318 427 309 412 299 409 361 403 370 370 370 344 370 245 370 225 370 182 370 175 366 175 344L175 275 439 275 439 81 96 81 96 138 368 138 368 218ZM536 218L536 344C536 415 561 432 655 432 675 432 804 432 825 432 895 432 916 412 926 322 905 318 877 309 860 299 857 361 850 370 816 370 789 370 682 370 661 370 615 370 608 366 608 343L608 275 878 275 878 81 528 81 528 138 807 138 807 218Z"/>
</svg>