<svg xmlns="http://www.w3.org/2000/svg"
    viewBox="0 0 1000 1000">
  <!--
© 2014-2021 Adobe (http://www.adobe.com/).
Noto is a trademark of Google Inc.
This Font Software is licensed under the SIL Open Font License, Version 1.1. This Font Software is distributed on an "AS IS" BASIS, WITHOUT WARRANTIES OR CONDITIONS OF ANY KIND, either express or implied. See the SIL Open Font License for the specific language, permissions and limitations governing your use of this Font Software.
http://scripts.sil.org/OFL
  -->
<path d="M704 237C773 287 852 359 889 410L947 369C909 318 829 248 759 200ZM214 202C183 260 115 325 49 365 64 375 87 395 99 409 169 365 242 292 283 223ZM149 525L149 863 222 863 222 593 459 593 459 930 534 930 534 593 784 593 784 768C784 781 780 784 765 785 749 786 696 786 637 784 647 803 657 832 660 854 737 854 787 853 818 841 850 830 858 809 858 770L858 525 534 525 534 435 459 435 459 525ZM63 100L63 165 366 165 366 206C366 289 336 389 186 461 201 471 227 497 238 512 399 432 437 309 437 207L437 165 578 165 578 462 649 462 649 165 934 165 934 100 535 100 535 10 459 10 459 100Z"/>
</svg>