<svg xmlns="http://www.w3.org/2000/svg" name="gid5066" data-unicode="幀"
    viewBox="0 0 1000 1000">
  <!--
© 2014-2021 Adobe (http://www.adobe.com/).
Noto is a trademark of Google Inc.
This Font Software is licensed under the SIL Open Font License, Version 1.1. This Font Software is distributed on an "AS IS" BASIS, WITHOUT WARRANTIES OR CONDITIONS OF ANY KIND, either express or implied. See the SIL Open Font License for the specific language, permissions and limitations governing your use of this Font Software.
http://scripts.sil.org/OFL
  -->
<path d="M540 474L836 474 836 567 540 567ZM540 621L836 621 836 714 540 714ZM540 329L836 329 836 420 540 420ZM740 827C793 868 855 922 890 959L954 922C915 884 850 831 791 789ZM566 789C527 830 445 879 375 907 390 920 410 944 421 958 493 929 578 878 631 828ZM472 266L472 777 906 777 906 266 709 266 709 187 949 187 949 124 709 124 709 39 639 39 639 266ZM67 229L67 753 125 753 125 296 198 296 198 958 262 958 262 296 341 296 341 669C341 677 339 679 333 679 325 679 306 679 281 679 291 697 300 726 302 744 337 744 360 742 378 730 394 718 398 698 398 670L398 229 262 229 262 39 198 39 198 229Z"/>
</svg>