<svg xmlns="http://www.w3.org/2000/svg" name="gid5071" data-unicode="幉"
    viewBox="0 0 1000 1000">
  <!--
© 2014-2021 Adobe (http://www.adobe.com/).
Noto is a trademark of Google Inc.
This Font Software is licensed under the SIL Open Font License, Version 1.1. This Font Software is distributed on an "AS IS" BASIS, WITHOUT WARRANTIES OR CONDITIONS OF ANY KIND, either express or implied. See the SIL Open Font License for the specific language, permissions and limitations governing your use of this Font Software.
http://scripts.sil.org/OFL
  -->
<path d="M66 230L66 754 124 754 124 298 197 298 197 960 262 960 262 298 340 298 340 670C340 678 338 680 331 681 323 681 305 681 280 680 290 698 299 727 301 745 335 745 358 744 376 732 393 720 397 699 397 672L397 230 262 230 262 41 197 41 197 230ZM481 68L481 187 407 187 407 248 481 248 481 528 649 528 649 616 420 616 420 680 614 680C553 764 453 844 359 883 376 897 397 923 408 940 495 897 585 818 649 731L649 959 719 959 719 727C775 811 854 890 931 932 942 914 965 890 981 876 896 838 808 760 753 680L951 680 951 616 719 616 719 528 940 528 940 467 547 467 547 248 643 248 643 395 872 395 872 248 960 248 960 187 872 187 872 63 808 63 808 187 705 187 705 52 643 52 643 187 547 187 547 68ZM808 248L808 340 705 340 705 248Z"/>
</svg>