<svg xmlns="http://www.w3.org/2000/svg"
    viewBox="0 0 1000 1000">
  <!--
© 2014-2021 Adobe (http://www.adobe.com/).
Noto is a trademark of Google Inc.
This Font Software is licensed under the SIL Open Font License, Version 1.1. This Font Software is distributed on an "AS IS" BASIS, WITHOUT WARRANTIES OR CONDITIONS OF ANY KIND, either express or implied. See the SIL Open Font License for the specific language, permissions and limitations governing your use of this Font Software.
http://scripts.sil.org/OFL
  -->
<path d="M518 231L848 231 848 310 518 310ZM518 99L848 99 848 178 518 178ZM452 411C481 457 511 520 522 560L584 536C572 497 541 435 510 390ZM857 386C839 431 804 499 777 539L834 561C861 522 895 463 922 410ZM414 577L414 642 560 642C547 765 506 835 360 874 375 887 393 914 400 931 566 881 614 792 629 642L721 642 721 823C721 879 727 896 745 909 760 921 785 926 808 926 821 926 855 926 869 926 887 926 912 923 925 918 941 912 953 901 959 885 965 869 969 828 971 790 952 784 927 772 913 759 912 798 911 827 909 840 906 852 901 859 894 861 889 864 876 865 865 865 853 865 834 865 824 865 814 865 806 864 802 860 795 857 794 846 794 829L794 642 953 642 953 577 718 577 718 366 918 366 918 45 451 45 451 366 646 366 646 577ZM67 199L67 723 125 723 125 266 198 266 198 928 262 928 262 266 341 266 341 639C341 647 339 649 333 649 325 649 306 649 281 649 291 667 300 696 302 714 337 714 360 712 378 700 394 688 398 668 398 640L398 199 262 199 262 9 198 9 198 199Z"/>
</svg>