<svg xmlns="http://www.w3.org/2000/svg"
    viewBox="0 0 1000 1000">
  <!--
© 2014-2021 Adobe (http://www.adobe.com/).
Noto is a trademark of Google Inc.
This Font Software is licensed under the SIL Open Font License, Version 1.1. This Font Software is distributed on an "AS IS" BASIS, WITHOUT WARRANTIES OR CONDITIONS OF ANY KIND, either express or implied. See the SIL Open Font License for the specific language, permissions and limitations governing your use of this Font Software.
http://scripts.sil.org/OFL
  -->
<path d="M408 58C436 100 464 158 475 195L530 168C519 132 490 77 460 35ZM879 32C863 72 831 132 808 170L857 191C883 157 914 105 940 57ZM494 284C511 318 527 362 535 393L417 393 417 452 635 452 635 521 447 521 447 580 635 580 635 591C635 611 634 633 630 655L388 655 388 715 610 715C578 777 510 836 364 879 379 892 398 916 407 931 569 877 645 803 678 727 725 828 809 898 930 930 939 912 958 886 972 872 863 850 783 794 739 715L961 715 961 655 699 655C702 634 703 613 703 592L703 580 909 580 909 521 703 521 703 452 941 452 941 393 798 393C815 363 837 321 856 282L809 269 953 269 953 207 777 207 777 10 712 10 712 207 627 207 627 10 563 10 563 207 399 207 399 269 549 269ZM554 269L786 269C775 304 754 352 737 383L771 393 562 393 599 381C592 351 573 304 554 269ZM61 200L61 722 118 722 118 267 186 267 186 930 249 930 249 267 317 267 317 638C317 646 315 647 308 648 301 648 284 648 263 648 272 666 281 695 283 713 315 713 336 711 352 699 369 687 373 666 373 640L373 200 249 200 249 11 186 11 186 200Z"/>
</svg>