<svg xmlns="http://www.w3.org/2000/svg"
    viewBox="0 0 1000 1000">
  <!--
© 2014-2021 Adobe (http://www.adobe.com/).
Noto is a trademark of Google Inc.
This Font Software is licensed under the SIL Open Font License, Version 1.1. This Font Software is distributed on an "AS IS" BASIS, WITHOUT WARRANTIES OR CONDITIONS OF ANY KIND, either express or implied. See the SIL Open Font License for the specific language, permissions and limitations governing your use of this Font Software.
http://scripts.sil.org/OFL
  -->
<path d="M815 87C853 145 891 223 904 273L965 247C952 198 912 122 873 65ZM608 185C602 224 588 285 575 323L627 334C640 298 655 244 671 197ZM410 197C422 240 433 297 436 334L494 323C490 287 478 230 464 188ZM365 119L365 180 708 180 708 119 572 119 572 11 504 11 504 119ZM724 10C725 127 727 238 731 338L355 338 355 173 238 173 238 10 177 10 177 173 61 173 61 709 116 709 116 241 179 241 179 925 236 925 236 241 301 241 301 627C301 635 299 637 293 637 286 638 269 638 245 637 255 657 264 687 265 705 298 705 319 703 335 691 351 678 355 656 355 630L355 402 734 402C740 521 749 624 764 707 738 742 710 775 681 804L681 469 403 469 403 866 466 866 466 818 667 818C640 843 612 865 584 885 598 895 618 915 627 926 682 888 734 840 781 784 806 877 843 931 896 933 928 934 961 898 981 766 969 758 941 738 930 722 924 798 912 846 898 845 870 844 849 796 833 715 880 646 920 567 949 482L890 453C872 513 847 569 818 621 811 559 805 485 801 402L959 402 959 338 798 338C794 238 793 127 793 10ZM466 667L617 667 617 760 466 760ZM466 613L466 527 617 527 617 613Z"/>
</svg>