<svg xmlns="http://www.w3.org/2000/svg" name="gid5085" data-unicode="幟"
    viewBox="0 0 1000 1000">
  <!--
© 2014-2021 Adobe (http://www.adobe.com/).
Noto is a trademark of Google Inc.
This Font Software is licensed under the SIL Open Font License, Version 1.1. This Font Software is distributed on an "AS IS" BASIS, WITHOUT WARRANTIES OR CONDITIONS OF ANY KIND, either express or implied. See the SIL Open Font License for the specific language, permissions and limitations governing your use of this Font Software.
http://scripts.sil.org/OFL
  -->
<path d="M815 117C853 175 891 253 904 303L965 277C952 228 912 152 873 95ZM608 215C602 254 588 315 575 353L627 364C640 328 655 274 671 227ZM410 227C422 270 433 327 436 364L494 353C490 317 478 260 464 218ZM365 149L365 210 708 210 708 149 572 149 572 41 504 41 504 149ZM724 40C725 157 727 268 731 368L355 368 355 203 238 203 238 40 177 40 177 203 61 203 61 739 116 739 116 271 179 271 179 955 236 955 236 271 301 271 301 657C301 665 299 667 293 667 286 668 269 668 245 667 255 687 264 717 265 735 298 735 319 733 335 721 351 708 355 686 355 660L355 432 734 432C740 551 749 654 764 737 738 772 710 805 681 834L681 499 403 499 403 896 466 896 466 848 667 848C640 873 612 895 584 915 598 925 618 945 627 956 682 918 734 870 781 814 806 907 843 961 896 963 928 964 961 928 981 796 969 788 941 768 930 752 924 828 912 876 898 875 870 874 849 826 833 745 880 676 920 597 949 512L890 483C872 543 847 599 818 651 811 589 805 515 801 432L959 432 959 368 798 368C794 268 793 157 793 40ZM466 697L617 697 617 790 466 790ZM466 643L466 557 617 557 617 643Z"/>
</svg>