<svg xmlns="http://www.w3.org/2000/svg"
    viewBox="0 0 1000 1000">
  <!--
© 2014-2021 Adobe (http://www.adobe.com/).
Noto is a trademark of Google Inc.
This Font Software is licensed under the SIL Open Font License, Version 1.1. This Font Software is distributed on an "AS IS" BASIS, WITHOUT WARRANTIES OR CONDITIONS OF ANY KIND, either express or implied. See the SIL Open Font License for the specific language, permissions and limitations governing your use of this Font Software.
http://scripts.sil.org/OFL
  -->
<path d="M383 492L588 492 588 617 383 617ZM121 107L121 421C121 563 113 756 28 891 45 899 76 922 89 935 179 791 193 574 193 421L193 175 379 175C341 283 273 389 197 457 215 468 245 491 259 504 276 487 293 468 310 447L310 804C310 902 351 925 486 925 515 925 762 925 794 925 917 925 943 886 956 743 935 738 905 727 888 715 879 837 867 860 791 860 737 860 526 860 486 860 399 860 383 848 383 804L383 679 658 679 658 430 323 430C344 402 365 371 384 339L804 339C798 556 791 634 776 653 770 663 762 665 748 665 735 665 703 665 667 661 677 680 684 709 685 729 724 731 762 731 784 728 809 725 826 719 840 698 863 668 871 574 878 305 879 295 879 272 879 272L419 272C432 245 444 218 454 190L392 175 952 175 952 107 568 107 568 10 491 10 491 107Z"/>
</svg>