<svg xmlns="http://www.w3.org/2000/svg" name="gid5130" data-unicode="度"
    viewBox="0 0 1000 1000">
  <!--
© 2014-2021 Adobe (http://www.adobe.com/).
Noto is a trademark of Google Inc.
This Font Software is licensed under the SIL Open Font License, Version 1.1. This Font Software is distributed on an "AS IS" BASIS, WITHOUT WARRANTIES OR CONDITIONS OF ANY KIND, either express or implied. See the SIL Open Font License for the specific language, permissions and limitations governing your use of this Font Software.
http://scripts.sil.org/OFL
  -->
<path d="M386 233L386 320 225 320 225 382 386 382 386 548 775 548 775 382 937 382 937 320 775 320 775 233 701 233 701 320 458 320 458 233ZM701 382L701 488 458 488 458 382ZM758 674C716 726 658 768 589 801 521 767 464 725 425 674ZM239 612L239 674 391 674 353 689C393 746 447 794 511 833 416 866 309 886 200 897 212 913 227 942 232 960 358 945 480 918 587 873 682 917 795 946 917 962 927 943 945 913 961 897 854 886 753 865 667 834 752 785 822 720 867 634L820 609 807 612ZM121 139L121 428C121 573 114 777 31 920 49 928 80 948 93 961 180 810 193 583 193 428L193 207 943 207 943 139 568 139 568 40 491 40 491 139Z"/>
</svg>