<svg xmlns="http://www.w3.org/2000/svg" name="gid5143" data-unicode="庹"
    viewBox="0 0 1000 1000">
  <!--
© 2014-2021 Adobe (http://www.adobe.com/).
Noto is a trademark of Google Inc.
This Font Software is licensed under the SIL Open Font License, Version 1.1. This Font Software is distributed on an "AS IS" BASIS, WITHOUT WARRANTIES OR CONDITIONS OF ANY KIND, either express or implied. See the SIL Open Font License for the specific language, permissions and limitations governing your use of this Font Software.
http://scripts.sil.org/OFL
  -->
<path d="M380 208L380 279 215 279 215 337 380 337 380 475 762 475 762 337 941 337 941 279 762 279 762 208 690 208 690 279 451 279 451 208ZM690 337L690 417 451 417 451 337ZM121 133L121 422C121 568 114 772 31 915 49 923 80 944 94 956 179 805 193 577 193 422L193 199 952 199 952 133 568 133 568 40 491 40 491 133ZM388 682L388 663 388 590 770 590 770 682ZM318 532L318 662C318 745 295 840 157 908 171 919 196 947 206 962 319 904 365 821 381 740L554 740C610 866 723 934 904 959 912 939 931 910 947 895 788 880 680 830 627 740L843 740 843 532Z"/>
</svg>