<svg xmlns="http://www.w3.org/2000/svg" name="gid5158" data-unicode="廐"
    viewBox="0 0 1000 1000">
  <!--
© 2014-2021 Adobe (http://www.adobe.com/).
Noto is a trademark of Google Inc.
This Font Software is licensed under the SIL Open Font License, Version 1.1. This Font Software is distributed on an "AS IS" BASIS, WITHOUT WARRANTIES OR CONDITIONS OF ANY KIND, either express or implied. See the SIL Open Font License for the specific language, permissions and limitations governing your use of this Font Software.
http://scripts.sil.org/OFL
  -->
<path d="M286 457L467 457 467 534 286 534ZM286 332L467 332 467 408 286 408ZM476 632C435 658 368 686 302 708L302 607 237 607 237 847C237 918 255 937 334 937 349 937 445 937 461 937 487 937 505 932 519 919 532 931 554 953 561 965 656 907 721 833 766 739L766 850C766 907 771 922 785 934 799 946 821 950 840 950 851 950 880 950 892 950 909 950 928 947 940 941 953 935 963 924 968 907 974 891 977 845 978 803 961 799 941 789 929 778 928 821 927 853 924 868 922 881 918 889 912 892 908 895 898 896 888 896 878 896 862 896 854 896 845 896 840 894 835 891 830 887 829 877 829 857L829 574 959 574 959 513 832 513C842 454 849 390 853 320L945 320 945 258 589 258 589 320 786 320C782 390 776 454 766 513L656 513C664 465 671 414 677 369L617 364C608 441 592 544 578 608L638 614 646 574 754 574C719 723 653 831 529 905 540 885 545 856 549 812 530 807 502 798 488 786 485 864 480 876 454 876 434 876 356 876 341 876 308 876 302 872 302 847L302 763C380 741 467 711 529 678ZM357 208C353 228 343 256 334 281L227 281 227 585 529 585 529 281 402 281 429 222ZM110 125L110 433C110 578 104 778 32 920 48 927 79 950 91 963 168 812 179 587 179 433L179 189 949 189 949 125 568 125 568 40 491 40 491 125Z"/>
</svg>