<svg xmlns="http://www.w3.org/2000/svg" name="gid5172" data-unicode="廠"
    viewBox="0 0 1000 1000">
  <!--
© 2014-2021 Adobe (http://www.adobe.com/).
Noto is a trademark of Google Inc.
This Font Software is licensed under the SIL Open Font License, Version 1.1. This Font Software is distributed on an "AS IS" BASIS, WITHOUT WARRANTIES OR CONDITIONS OF ANY KIND, either express or implied. See the SIL Open Font License for the specific language, permissions and limitations governing your use of this Font Software.
http://scripts.sil.org/OFL
  -->
<path d="M214 265C239 311 261 372 266 412L323 393C318 354 295 293 268 248ZM538 242C526 286 501 352 481 393L533 412C553 372 578 314 601 262ZM707 428L844 428C833 515 813 601 779 679 747 605 723 520 707 428ZM695 216C672 337 636 455 582 537L582 434 433 434 433 218 369 218 369 434 217 434 217 959 272 959 272 492 525 492 525 887C525 899 521 902 509 902 497 903 458 903 413 902 421 918 429 943 431 958 491 958 529 958 552 948 568 942 576 931 580 915 592 927 609 950 616 962 684 922 737 870 779 809 818 873 866 925 925 961 935 944 956 919 970 907 906 873 855 818 815 750 866 653 894 542 911 428L955 428 955 364 728 364C741 320 752 274 761 228ZM582 559C597 569 616 586 625 595 641 572 656 545 670 516 688 601 713 678 745 746 705 812 652 869 580 912L582 888ZM321 563L321 831 360 831 360 794 476 794 476 563ZM360 614L435 614 435 743 360 743ZM105 125L105 437C105 581 99 779 33 920 49 927 78 949 90 962 163 813 174 590 174 437L174 189 952 189 952 125 568 125 568 40 491 40 491 125Z"/>
</svg>