<svg xmlns="http://www.w3.org/2000/svg"
    viewBox="0 0 1000 1000">
  <!--
© 2014-2021 Adobe (http://www.adobe.com/).
Noto is a trademark of Google Inc.
This Font Software is licensed under the SIL Open Font License, Version 1.1. This Font Software is distributed on an "AS IS" BASIS, WITHOUT WARRANTIES OR CONDITIONS OF ANY KIND, either express or implied. See the SIL Open Font License for the specific language, permissions and limitations governing your use of this Font Software.
http://scripts.sil.org/OFL
  -->
<path d="M336 280L437 280C425 306 411 334 397 357L288 357C305 333 321 307 336 280ZM321 159C290 246 239 331 179 388 195 396 222 413 234 424L238 420 238 571C238 670 231 805 165 901 178 907 202 924 212 934 257 867 278 779 287 696L496 696 496 858C496 869 492 873 479 873 467 874 425 875 378 873 387 889 395 914 398 930 460 930 499 929 522 919 545 910 552 892 552 859L552 357 462 357C483 324 503 285 518 250L477 223 468 226 363 226 384 174ZM635 500C621 565 597 628 561 674 576 680 600 693 611 701 625 682 637 660 648 636L740 636 740 729 575 729 575 790 740 790 740 929 804 929 804 790 958 790 958 729 804 729 804 636 939 636 939 577 804 577 804 494 740 494 740 577 672 577C679 555 686 533 691 511ZM589 211L589 271 688 271C672 353 633 410 560 447 575 457 598 482 607 493 687 446 735 375 754 271L862 271C858 365 853 402 846 413 839 419 833 421 821 420 810 420 781 420 748 417 756 432 762 456 764 472 797 474 832 474 851 472 873 471 888 465 900 450 918 430 924 377 928 238 929 229 929 211 929 211ZM369 413L369 498 294 498 294 413ZM417 413L496 413 496 498 417 498ZM369 550L369 640 292 640 294 571 294 550ZM417 550L496 550 496 640 417 640ZM104 88L104 390C104 536 98 742 31 889 47 896 77 919 88 932 161 776 172 545 172 390L172 151 952 151 952 88 568 88 568 10 491 10 491 88Z"/>
</svg>