<svg xmlns="http://www.w3.org/2000/svg" name="gid5182" data-unicode="廱"
    viewBox="0 0 1000 1000">
  <!--
© 2014-2021 Adobe (http://www.adobe.com/).
Noto is a trademark of Google Inc.
This Font Software is licensed under the SIL Open Font License, Version 1.1. This Font Software is distributed on an "AS IS" BASIS, WITHOUT WARRANTIES OR CONDITIONS OF ANY KIND, either express or implied. See the SIL Open Font License for the specific language, permissions and limitations governing your use of this Font Software.
http://scripts.sil.org/OFL
  -->
<path d="M262 209C247 237 221 277 194 312 228 350 255 388 270 419L315 401C301 375 276 342 249 310 269 284 291 253 310 221ZM379 209C364 237 336 276 309 311 343 349 371 387 387 417L433 399C418 374 393 340 365 310 386 283 408 253 428 222ZM500 209C483 237 455 277 427 312 463 350 494 388 511 419L558 400C542 374 514 341 484 310 506 284 529 254 550 222ZM287 481L471 481 471 543 287 543ZM675 205C644 312 594 421 532 493L532 435 228 435 228 589 532 589 532 499C547 510 571 531 580 540 592 525 604 509 615 492L615 962 677 962 677 915 956 915 956 853 829 853 829 745 927 745 927 686 829 686 829 582 927 582 927 524 829 524 829 419 942 419 942 358 830 358C848 320 868 273 886 231L820 214C809 255 787 314 768 358L686 358C706 313 724 266 738 219ZM354 671L354 749 271 749 271 671ZM403 671L488 671 488 749 403 749ZM211 623L211 862C211 932 234 949 319 949 338 949 471 949 490 949 556 949 575 926 583 839 565 835 540 826 526 816 523 881 517 891 484 891 456 891 344 891 324 891 278 891 271 886 271 861L271 797 547 797 547 623ZM677 582L768 582 768 686 677 686ZM677 524L677 419 768 419 768 524ZM677 745L768 745 768 853 677 853ZM103 118L103 420C103 566 97 772 30 919 46 926 76 949 87 962 160 806 171 575 171 420L171 181 952 181 952 118 568 118 568 40 491 40 491 118Z"/>
</svg>