<svg xmlns="http://www.w3.org/2000/svg" name="gid5186" data-unicode="廷"
    viewBox="0 0 1000 1000">
  <!--
© 2014-2021 Adobe (http://www.adobe.com/).
Noto is a trademark of Google Inc.
This Font Software is licensed under the SIL Open Font License, Version 1.1. This Font Software is distributed on an "AS IS" BASIS, WITHOUT WARRANTIES OR CONDITIONS OF ANY KIND, either express or implied. See the SIL Open Font License for the specific language, permissions and limitations governing your use of this Font Software.
http://scripts.sil.org/OFL
  -->
<path d="M855 41C750 82 558 117 396 137 404 153 415 180 417 198 485 191 558 181 629 169L629 375 386 375 386 443 629 443 629 682 414 682 414 749 922 749 922 682 703 682 703 443 954 443 954 375 703 375 703 155C780 140 851 122 909 101ZM126 535L67 558C94 645 129 713 171 766 133 826 86 873 32 907 49 918 77 944 88 960 139 926 184 879 223 820 333 916 481 940 663 940L935 940C939 918 953 884 965 866 911 867 707 867 665 867 500 867 360 847 258 758 304 665 337 546 354 399L310 387 297 389 185 389C245 294 305 194 348 119L295 99 283 103 53 103 53 171 237 171C185 260 107 384 43 480L112 503 142 456 275 456C261 552 238 634 206 702 173 658 146 603 126 535Z"/>
</svg>