<svg xmlns="http://www.w3.org/2000/svg" name="gid5191" data-unicode="廼"
    viewBox="0 0 1000 1000">
  <!--
© 2014-2021 Adobe (http://www.adobe.com/).
Noto is a trademark of Google Inc.
This Font Software is licensed under the SIL Open Font License, Version 1.1. This Font Software is distributed on an "AS IS" BASIS, WITHOUT WARRANTIES OR CONDITIONS OF ANY KIND, either express or implied. See the SIL Open Font License for the specific language, permissions and limitations governing your use of this Font Software.
http://scripts.sil.org/OFL
  -->
<path d="M375 255L375 786 442 786 442 757 854 757 854 783 923 783 923 255 743 255 743 154 940 154 940 89 355 89 355 154 534 154 534 255ZM442 690L442 545C456 553 478 572 486 583 578 528 596 451 596 386L596 317 681 317 681 456C681 516 696 531 756 531 767 531 832 531 843 531L854 531 854 690ZM597 154L681 154 681 255 597 255ZM442 543L442 317 539 317 539 384C539 437 524 496 442 543ZM738 317L854 317 854 471C851 473 848 474 834 474 821 474 772 474 762 474 741 474 738 472 738 455ZM136 536L76 558C101 640 133 705 171 755 134 822 89 873 34 910 50 920 79 947 90 962 141 925 185 876 222 812 328 909 472 933 655 933L937 933C941 912 955 877 967 860 914 862 698 862 656 862 490 861 352 840 255 747 295 655 323 540 338 397L294 387 281 388 177 388C224 293 272 191 304 115L253 100 241 103 43 103 43 171 205 171C164 259 105 382 54 476L123 495 143 456 260 456C248 545 229 621 203 686 176 645 154 596 136 536Z"/>
</svg>