<svg xmlns="http://www.w3.org/2000/svg" name="gid5192" data-unicode="廽"
    viewBox="0 0 1000 1000">
  <!--
© 2014-2021 Adobe (http://www.adobe.com/).
Noto is a trademark of Google Inc.
This Font Software is licensed under the SIL Open Font License, Version 1.1. This Font Software is distributed on an "AS IS" BASIS, WITHOUT WARRANTIES OR CONDITIONS OF ANY KIND, either express or implied. See the SIL Open Font License for the specific language, permissions and limitations governing your use of this Font Software.
http://scripts.sil.org/OFL
  -->
<path d="M381 98L381 808 447 808 447 764 842 764 842 804 910 804 910 98ZM447 701L447 162 531 162 531 701ZM842 701L754 701 754 162 842 162ZM592 701L592 559 694 559 694 701ZM592 162L694 162 694 301 592 301ZM133 537L76 558C101 640 132 704 169 755 133 823 86 875 31 912 47 922 74 948 85 963 137 926 181 876 218 811 324 910 469 935 654 935L935 935C939 915 952 882 964 866 913 867 695 867 655 867 486 867 347 845 250 749 290 657 318 541 333 399L291 389 277 390 173 390C219 294 266 190 298 114L248 98 236 102 42 102 42 169 200 169C162 258 104 382 56 476L123 493 140 458 257 458C245 547 226 624 200 689 173 648 150 598 133 537ZM592 361L694 361 694 500 592 500Z"/>
</svg>