<svg xmlns="http://www.w3.org/2000/svg" name="gid5201" data-unicode="弇"
    viewBox="0 0 1000 1000">
  <!--
© 2014-2021 Adobe (http://www.adobe.com/).
Noto is a trademark of Google Inc.
This Font Software is licensed under the SIL Open Font License, Version 1.1. This Font Software is distributed on an "AS IS" BASIS, WITHOUT WARRANTIES OR CONDITIONS OF ANY KIND, either express or implied. See the SIL Open Font License for the specific language, permissions and limitations governing your use of this Font Software.
http://scripts.sil.org/OFL
  -->
<path d="M247 404L755 404 755 520 247 520ZM175 346L175 577 829 577 829 346ZM292 239L292 281 703 281 703 235C773 270 848 299 915 318 926 297 944 268 960 251 809 215 641 140 529 38L455 38C372 127 209 214 44 261 59 278 76 308 84 325 155 302 227 272 292 239ZM496 99C544 143 608 185 678 222L323 222C393 183 453 141 496 99ZM646 600L646 680 363 680 363 600 290 600 290 680 57 680 57 747 284 747C268 807 215 866 49 906 65 919 87 947 96 963 292 913 347 832 359 747L646 747 646 961 721 961 721 747 943 747 943 680 721 680 721 600Z"/>
</svg>