<svg xmlns="http://www.w3.org/2000/svg" name="gid5209" data-unicode="式"
    viewBox="0 0 1000 1000">
  <!--
© 2014-2021 Adobe (http://www.adobe.com/).
Noto is a trademark of Google Inc.
This Font Software is licensed under the SIL Open Font License, Version 1.1. This Font Software is distributed on an "AS IS" BASIS, WITHOUT WARRANTIES OR CONDITIONS OF ANY KIND, either express or implied. See the SIL Open Font License for the specific language, permissions and limitations governing your use of this Font Software.
http://scripts.sil.org/OFL
  -->
<path d="M709 89C761 125 823 179 853 215L905 168C875 133 811 82 760 47ZM565 44C565 106 567 167 570 227L55 227 55 300 575 300C601 672 685 962 849 962 926 962 954 911 967 736 946 728 918 711 901 694 894 828 883 884 855 884 756 884 678 639 653 300L947 300 947 227 649 227C646 168 645 107 645 44ZM59 856L83 930C211 902 395 860 565 820L559 752 345 798 345 522 532 522 532 449 90 449 90 522 270 522 270 813Z"/>
</svg>