<svg xmlns="http://www.w3.org/2000/svg" name="gid5213" data-unicode="弔"
    viewBox="0 0 1000 1000">
  <!--
© 2014-2021 Adobe (http://www.adobe.com/).
Noto is a trademark of Google Inc.
This Font Software is licensed under the SIL Open Font License, Version 1.1. This Font Software is distributed on an "AS IS" BASIS, WITHOUT WARRANTIES OR CONDITIONS OF ANY KIND, either express or implied. See the SIL Open Font License for the specific language, permissions and limitations governing your use of this Font Software.
http://scripts.sil.org/OFL
  -->
<path d="M170 332C150 440 117 586 91 673L169 686 185 623 458 623 458 961 534 961 534 623 850 623C839 733 826 783 807 798 798 806 788 807 767 807 745 807 685 806 624 800 638 821 647 850 649 872 709 875 767 876 796 873 829 871 850 866 869 847 898 818 914 750 929 585 931 575 932 553 932 553L534 553 534 411 859 411 859 107 111 107 111 178 458 178 458 341 248 341ZM458 553L202 553 233 411 458 411ZM534 178L784 178 784 341 534 341Z"/>
</svg>