<svg xmlns="http://www.w3.org/2000/svg" name="gid5222" data-unicode="弞"
    viewBox="0 0 1000 1000">
  <!--
© 2014-2021 Adobe (http://www.adobe.com/).
Noto is a trademark of Google Inc.
This Font Software is licensed under the SIL Open Font License, Version 1.1. This Font Software is distributed on an "AS IS" BASIS, WITHOUT WARRANTIES OR CONDITIONS OF ANY KIND, either express or implied. See the SIL Open Font License for the specific language, permissions and limitations governing your use of this Font Software.
http://scripts.sil.org/OFL
  -->
<path d="M528 40C504 201 457 358 383 457 402 466 436 486 451 497 487 442 519 372 544 294L633 294 633 446C633 528 597 777 364 899 378 914 399 944 407 960 594 859 658 671 670 589 682 669 743 864 919 960 930 942 952 912 966 895 743 777 707 525 707 446L707 294 865 294C849 361 829 432 810 479L871 505C900 437 932 331 956 240L902 221 890 225 565 225C580 170 593 112 603 52ZM97 312C85 409 64 538 45 618L119 629 127 587 307 587C294 780 279 857 259 877 250 887 241 889 224 889 206 889 163 888 117 883 129 904 137 934 138 956 185 959 230 959 255 957 284 955 303 947 320 927 350 893 366 801 382 553 383 542 384 518 384 518L140 518 161 382 375 382 375 82 72 82 72 152 303 152 303 312Z"/>
</svg>