<svg xmlns="http://www.w3.org/2000/svg" name="gid5240" data-unicode="弴"
    viewBox="0 0 1000 1000">
  <!--
© 2014-2021 Adobe (http://www.adobe.com/).
Noto is a trademark of Google Inc.
This Font Software is licensed under the SIL Open Font License, Version 1.1. This Font Software is distributed on an "AS IS" BASIS, WITHOUT WARRANTIES OR CONDITIONS OF ANY KIND, either express or implied. See the SIL Open Font License for the specific language, permissions and limitations governing your use of this Font Software.
http://scripts.sil.org/OFL
  -->
<path d="M508 310L791 310 791 413 508 413ZM437 254L437 468 865 468 865 254ZM350 137L350 198 947 198 947 137 686 137 686 40 612 40 612 137ZM349 708L349 770 614 770 614 879C614 891 610 894 595 895 581 896 534 896 480 894 489 914 500 940 503 960 573 960 620 960 650 950 681 939 688 920 688 881L688 770 960 770 960 708 688 708 688 683C756 650 832 604 888 558L844 523 828 527 414 527 414 586 750 586C718 608 681 629 647 645L614 645 614 708ZM80 309C74 405 61 532 48 610L114 621 119 582 264 582C254 784 243 862 224 882 216 891 207 893 190 893 173 893 127 892 80 888 92 908 100 936 102 957 148 960 195 960 220 958 248 955 267 949 284 928 312 896 324 803 336 549 337 538 338 516 338 516L127 516 141 380 330 380 330 79 54 79 54 149 259 149 259 309Z"/>
</svg>