<svg xmlns="http://www.w3.org/2000/svg"
    viewBox="0 0 1000 1000">
  <!--
© 2014-2021 Adobe (http://www.adobe.com/).
Noto is a trademark of Google Inc.
This Font Software is licensed under the SIL Open Font License, Version 1.1. This Font Software is distributed on an "AS IS" BASIS, WITHOUT WARRANTIES OR CONDITIONS OF ANY KIND, either express or implied. See the SIL Open Font License for the specific language, permissions and limitations governing your use of this Font Software.
http://scripts.sil.org/OFL
  -->
<path d="M439 35L439 144 360 144 360 207 439 207 439 486 619 486 619 577 361 577 361 642 575 642C515 727 421 807 331 847 347 860 367 884 378 901 466 855 558 771 619 679L619 929 691 929 691 669C751 760 841 849 926 897 937 878 959 855 974 841 889 802 796 723 738 642L955 642 955 577 691 577 691 486 928 486 928 423 505 423 505 207 606 207 606 352 855 352 855 207 953 207 953 144 855 144 855 29 787 29 787 144 672 144 672 11 606 11 606 144 505 144 505 35ZM787 207L787 297 672 297 672 207ZM76 277C71 372 57 499 44 578L111 589 117 543 270 543C260 747 248 827 229 847 220 857 211 859 194 858 175 858 127 858 78 854 90 874 99 905 100 927 149 930 197 930 223 927 253 925 271 919 289 897 318 864 329 767 342 511 343 500 343 477 343 477L125 477 138 345 340 345 340 56 58 56 58 124 268 124 268 277Z"/>
</svg>