<svg xmlns="http://www.w3.org/2000/svg" name="gid5249" data-unicode="弾"
    viewBox="0 0 1000 1000">
  <!--
© 2014-2021 Adobe (http://www.adobe.com/).
Noto is a trademark of Google Inc.
This Font Software is licensed under the SIL Open Font License, Version 1.1. This Font Software is distributed on an "AS IS" BASIS, WITHOUT WARRANTIES OR CONDITIONS OF ANY KIND, either express or implied. See the SIL Open Font License for the specific language, permissions and limitations governing your use of this Font Software.
http://scripts.sil.org/OFL
  -->
<path d="M394 81C428 132 460 202 471 249L536 223C523 177 491 109 454 59ZM578 57C606 112 630 185 637 233L702 212C695 164 670 92 640 39ZM866 48C839 111 788 200 749 254L764 262 409 262 409 628 624 628 624 715 361 715 361 782 624 782 624 960 697 960 697 782 961 782 961 715 697 715 697 628 925 628 925 262 818 262C856 211 899 141 934 80ZM475 473L624 473 624 568 475 568ZM697 473L856 473 856 568 697 568ZM475 322L624 322 624 416 475 416ZM697 322L856 322 856 416 697 416ZM76 312C71 408 57 535 44 613L111 625 117 579 268 579C258 780 247 858 228 877 219 887 210 889 192 888 174 888 126 888 76 884 89 904 97 935 99 957 148 960 196 960 222 957 252 955 270 949 288 927 316 894 328 799 340 546 341 536 341 513 341 513L125 513 138 381 340 381 340 92 58 92 58 160 268 160 268 312Z"/>
</svg>