<svg xmlns="http://www.w3.org/2000/svg" name="gid5260" data-unicode="彎"
    viewBox="0 0 1000 1000">
  <!--
© 2014-2021 Adobe (http://www.adobe.com/).
Noto is a trademark of Google Inc.
This Font Software is licensed under the SIL Open Font License, Version 1.1. This Font Software is distributed on an "AS IS" BASIS, WITHOUT WARRANTIES OR CONDITIONS OF ANY KIND, either express or implied. See the SIL Open Font License for the specific language, permissions and limitations governing your use of this Font Software.
http://scripts.sil.org/OFL
  -->
<path d="M260 398C280 433 301 480 309 510L357 490C349 460 328 414 307 381ZM100 382C87 433 68 483 39 522 53 528 77 541 89 549 115 510 140 450 155 394ZM847 403C873 444 901 502 911 537L961 514C950 479 921 424 893 383ZM673 384C661 432 641 480 613 515 627 522 651 535 662 542 688 505 713 448 728 396ZM385 67L385 109 602 109 602 67ZM383 233L383 274 605 274 605 233ZM383 314L383 356 605 356 605 314ZM438 438L550 438 550 502 438 502ZM383 397L383 543 606 543 606 397ZM199 676C182 732 159 799 138 847L206 859 219 825 795 825C782 870 770 894 755 904 744 910 734 911 709 911 683 911 607 910 535 903 545 918 552 941 554 956 626 960 699 961 732 960 766 960 789 957 810 944 836 925 856 885 874 806 877 797 879 775 879 775L238 775 254 726 803 726 803 575 145 575 145 625 732 625 732 676ZM261 119C242 147 216 180 188 212 178 201 165 189 151 177 178 145 210 102 238 61L184 39C169 70 140 114 115 147L92 129 57 166C90 191 127 226 152 253L106 300 44 300 49 357 180 352 180 554 239 554 239 350 313 347 329 375 372 346C356 315 320 265 287 230L245 254 279 297 171 299C219 253 272 194 315 144ZM345 148L345 194 635 194 635 167C668 192 705 225 731 251 714 269 697 285 681 300L618 300 623 357 754 352 754 554 814 554 814 349 900 345 919 377 964 347C945 314 904 264 869 229L827 253C839 266 852 281 864 297L748 299C799 252 856 191 901 139L848 114C827 143 799 177 768 211 757 199 743 186 727 173 754 142 784 100 811 61L757 39C742 69 714 111 690 144L662 125 635 156 635 148Z"/>
</svg>