<svg xmlns="http://www.w3.org/2000/svg"
    viewBox="0 0 1000 1000">
  <!--
© 2014-2021 Adobe (http://www.adobe.com/).
Noto is a trademark of Google Inc.
This Font Software is licensed under the SIL Open Font License, Version 1.1. This Font Software is distributed on an "AS IS" BASIS, WITHOUT WARRANTIES OR CONDITIONS OF ANY KIND, either express or implied. See the SIL Open Font License for the specific language, permissions and limitations governing your use of this Font Software.
http://scripts.sil.org/OFL
  -->
<path d="M686 61C744 92 814 141 847 175L896 124C861 90 790 45 732 16ZM41 782L58 853C164 835 310 811 448 786L445 721C296 745 141 768 41 782ZM162 418L337 418 337 579 162 579ZM92 357L92 640 410 640 410 357ZM41 187L41 256 561 256C566 312 573 366 582 418 533 444 480 467 428 484 441 496 464 521 473 534 512 518 553 500 593 478 600 517 609 554 618 589 567 621 511 648 455 670 469 682 492 708 502 720 547 700 592 677 636 650 648 687 661 721 675 752 595 805 501 846 402 875 416 889 441 917 450 932 540 901 627 861 705 811 749 886 801 930 861 930 927 930 951 896 965 783 948 776 924 760 910 744 904 833 893 858 868 858 833 858 797 825 765 768 838 711 901 643 945 562L880 537C845 602 795 659 735 708 723 678 710 644 699 607 769 557 830 497 874 429L813 407C780 458 735 505 682 545 674 512 666 477 659 439 715 403 766 361 804 315L743 293C718 323 685 352 648 377 642 338 637 298 632 256L960 256 960 187 626 187C622 129 620 70 620 10L547 10C548 70 550 129 555 187Z"/>
</svg>