<svg xmlns="http://www.w3.org/2000/svg"
    viewBox="0 0 1000 1000">
  <!--
© 2014-2021 Adobe (http://www.adobe.com/).
Noto is a trademark of Google Inc.
This Font Software is licensed under the SIL Open Font License, Version 1.1. This Font Software is distributed on an "AS IS" BASIS, WITHOUT WARRANTIES OR CONDITIONS OF ANY KIND, either express or implied. See the SIL Open Font License for the specific language, permissions and limitations governing your use of this Font Software.
http://scripts.sil.org/OFL
  -->
<path d="M258 11C212 84 119 170 36 224 48 239 68 269 76 285 169 225 268 128 329 39ZM805 9C786 61 747 136 717 184L771 206 536 206 586 181C570 136 531 66 493 15L431 42C465 93 502 160 517 206L376 206 376 275 613 275 613 418 391 418 391 488 613 488 613 643 338 643 338 713 613 713 613 931 688 931 688 713 962 713 962 643 688 643 688 488 915 488 915 418 688 418 688 275 939 275 939 206 780 206C811 162 850 95 884 37ZM291 208C227 317 122 424 23 493 36 509 58 545 66 561 106 531 146 495 186 455L186 929 259 929 259 374C297 329 331 282 359 234Z"/>
</svg>