<svg xmlns="http://www.w3.org/2000/svg"
    viewBox="0 0 1000 1000">
  <!--
© 2014-2021 Adobe (http://www.adobe.com/).
Noto is a trademark of Google Inc.
This Font Software is licensed under the SIL Open Font License, Version 1.1. This Font Software is distributed on an "AS IS" BASIS, WITHOUT WARRANTIES OR CONDITIONS OF ANY KIND, either express or implied. See the SIL Open Font License for the specific language, permissions and limitations governing your use of this Font Software.
http://scripts.sil.org/OFL
  -->
<path d="M563 344L700 344 700 589 563 589ZM503 280L503 653 762 653 762 280ZM245 14C204 84 121 168 46 220 59 235 78 265 86 282 171 222 261 128 317 41ZM347 73L347 925 418 925 418 865 849 865 849 917 923 917 923 73ZM418 792L418 145 849 145 849 792ZM266 218C211 319 120 418 33 483 46 500 67 540 74 556 105 531 136 501 167 468L167 929 240 929 240 383C275 338 307 291 333 244Z"/>
</svg>