<svg xmlns="http://www.w3.org/2000/svg" name="gid5311" data-unicode="後"
    viewBox="0 0 1000 1000">
  <!--
© 2014-2021 Adobe (http://www.adobe.com/).
Noto is a trademark of Google Inc.
This Font Software is licensed under the SIL Open Font License, Version 1.1. This Font Software is distributed on an "AS IS" BASIS, WITHOUT WARRANTIES OR CONDITIONS OF ANY KIND, either express or implied. See the SIL Open Font License for the specific language, permissions and limitations governing your use of this Font Software.
http://scripts.sil.org/OFL
  -->
<path d="M244 40C200 111 111 197 33 250 45 263 65 290 74 305 160 244 253 151 312 67ZM302 420L309 488 540 481C480 570 386 648 291 700 307 713 332 742 342 757 383 732 424 702 463 668 495 714 534 756 578 793 491 844 389 878 288 898 302 914 318 944 325 963 435 937 544 897 638 838 721 894 820 936 928 961 938 942 957 913 974 897 872 877 778 842 698 795 771 738 831 667 869 579L821 556 808 559 567 559C588 533 607 506 624 478L866 470C885 497 900 522 910 543L973 506C942 445 870 354 807 289L748 320C773 347 799 378 822 409L553 415C647 338 749 239 829 153L761 116C714 175 648 245 580 309 557 285 525 258 491 231 537 187 590 128 634 74L567 40C536 86 486 147 441 194L382 153 336 202C403 246 480 308 528 357 504 379 480 399 458 417ZM509 624L514 619 768 619C735 671 690 717 637 755 585 717 542 673 509 624ZM268 244C209 350 113 454 21 523 34 538 56 574 64 589 101 559 140 522 177 482L177 963 248 963 248 398C281 356 310 312 335 268Z"/>
</svg>