<svg xmlns="http://www.w3.org/2000/svg"
    viewBox="0 0 1000 1000">
  <!--
© 2014-2021 Adobe (http://www.adobe.com/).
Noto is a trademark of Google Inc.
This Font Software is licensed under the SIL Open Font License, Version 1.1. This Font Software is distributed on an "AS IS" BASIS, WITHOUT WARRANTIES OR CONDITIONS OF ANY KIND, either express or implied. See the SIL Open Font License for the specific language, permissions and limitations governing your use of this Font Software.
http://scripts.sil.org/OFL
  -->
<path d="M244 10C200 81 111 167 33 220 45 233 65 260 74 275 160 214 253 121 312 37ZM495 406L495 930 563 930 563 890 843 890 843 925 914 925 914 406 721 406 728 305 959 305 959 240 731 240 735 116C801 105 862 92 913 78L859 25C760 55 586 80 431 97L369 79 369 380C369 528 362 728 283 879 302 887 329 911 341 925 428 761 440 535 440 381L440 305 659 305 655 406ZM440 153C512 147 589 138 663 127L661 240 440 240ZM563 608L843 608 843 693 563 693ZM563 554L563 469 843 469 843 554ZM563 835L563 748 843 748 843 835ZM268 214C209 320 113 424 21 493 34 508 56 544 64 559 101 529 140 492 177 452L177 929 248 929 248 368C281 326 310 282 335 238Z"/>
</svg>