<svg xmlns="http://www.w3.org/2000/svg" name="gid5346" data-unicode="徼"
    viewBox="0 0 1000 1000">
  <!--
© 2014-2021 Adobe (http://www.adobe.com/).
Noto is a trademark of Google Inc.
This Font Software is licensed under the SIL Open Font License, Version 1.1. This Font Software is distributed on an "AS IS" BASIS, WITHOUT WARRANTIES OR CONDITIONS OF ANY KIND, either express or implied. See the SIL Open Font License for the specific language, permissions and limitations governing your use of this Font Software.
http://scripts.sil.org/OFL
  -->
<path d="M357 316L552 316 552 392 357 392ZM357 187L552 187 552 262 357 262ZM193 40C158 105 89 187 28 239 40 252 60 280 68 296 138 236 213 145 261 65ZM729 39C709 185 674 325 616 422L616 131 467 131C479 106 492 76 504 47L426 38C420 65 409 101 398 131L295 131 295 449 418 449 418 533 256 533 256 595 373 595C362 731 333 848 230 915 246 925 264 946 273 962 355 908 396 826 418 729L542 729C535 839 527 883 516 896 511 903 504 904 493 904 482 904 459 904 430 901 439 916 445 942 446 959 476 961 506 961 523 959 543 957 557 951 571 937 591 914 599 854 608 699 609 689 610 671 610 671L429 671C433 646 436 621 438 595L650 595 650 533 488 533 488 449 616 449C629 464 643 486 649 498 664 476 678 451 691 425 707 531 729 629 760 714 722 794 670 861 599 912 612 925 635 952 642 966 705 917 754 859 792 790 827 862 872 921 928 961 939 943 961 917 976 905 913 865 865 799 828 716 875 601 900 463 916 298L961 298 961 236 758 236C773 177 786 114 796 51ZM740 298L850 298C840 422 824 531 794 625 765 533 746 428 733 320ZM214 240C168 345 92 451 19 522 33 538 55 572 63 588 89 561 116 529 142 494L142 958 209 958 209 395C236 352 260 307 280 263Z"/>
</svg>