<svg xmlns="http://www.w3.org/2000/svg" name="gid5355" data-unicode="忌"
    viewBox="0 0 1000 1000">
  <!--
© 2014-2021 Adobe (http://www.adobe.com/).
Noto is a trademark of Google Inc.
This Font Software is licensed under the SIL Open Font License, Version 1.1. This Font Software is distributed on an "AS IS" BASIS, WITHOUT WARRANTIES OR CONDITIONS OF ANY KIND, either express or implied. See the SIL Open Font License for the specific language, permissions and limitations governing your use of this Font Software.
http://scripts.sil.org/OFL
  -->
<path d="M300 641L300 845C300 924 327 946 433 946 454 946 605 946 628 946 716 946 740 914 749 783 729 778 698 767 681 755 677 863 669 878 622 878 589 878 463 878 438 878 383 878 374 872 374 845L374 641ZM720 661C795 734 870 834 896 906L965 870C936 798 859 699 784 630ZM164 641C144 729 102 819 32 872L95 912C168 853 207 755 231 662ZM372 588C445 627 525 688 561 736L617 685C581 640 506 587 438 550L733 550C864 550 894 522 908 400 886 396 856 386 836 374 829 467 815 483 731 483 662 483 401 483 351 483 241 483 221 475 221 440L221 336 809 336 809 85 115 85 115 151 735 151 735 270 147 270 147 441C147 531 193 550 355 550L414 550Z"/>
</svg>