<svg xmlns="http://www.w3.org/2000/svg" name="gid5368" data-unicode="忞"
    viewBox="0 0 1000 1000">
  <!--
© 2014-2021 Adobe (http://www.adobe.com/).
Noto is a trademark of Google Inc.
This Font Software is licensed under the SIL Open Font License, Version 1.1. This Font Software is distributed on an "AS IS" BASIS, WITHOUT WARRANTIES OR CONDITIONS OF ANY KIND, either express or implied. See the SIL Open Font License for the specific language, permissions and limitations governing your use of this Font Software.
http://scripts.sil.org/OFL
  -->
<path d="M312 639L312 845C312 925 338 946 440 946 461 946 604 946 627 946 713 946 735 915 744 788 724 783 693 772 677 760 672 863 665 878 621 878 589 878 470 878 446 878 395 878 386 873 386 845L386 639ZM372 570C447 606 536 664 578 706L624 651C579 608 489 553 416 520ZM713 670C788 740 864 839 891 908L960 871C930 799 851 703 776 636ZM176 648C159 741 118 824 38 870L97 913C185 861 222 768 243 667ZM685 208C636 272 572 326 497 370 423 325 362 271 317 208ZM460 40L460 141 63 141 63 208 237 208C286 285 351 351 428 406 317 459 188 496 49 520 63 535 84 567 92 583 237 552 374 510 493 448 611 517 753 563 913 587 923 567 942 537 958 520 810 501 675 463 563 407 647 354 719 288 773 208L937 208 937 141 537 141 537 40Z"/>
</svg>