<svg xmlns="http://www.w3.org/2000/svg" name="gid5372" data-unicode="忤"
    viewBox="0 0 1000 1000">
  <!--
© 2014-2021 Adobe (http://www.adobe.com/).
Noto is a trademark of Google Inc.
This Font Software is licensed under the SIL Open Font License, Version 1.1. This Font Software is distributed on an "AS IS" BASIS, WITHOUT WARRANTIES OR CONDITIONS OF ANY KIND, either express or implied. See the SIL Open Font License for the specific language, permissions and limitations governing your use of this Font Software.
http://scripts.sil.org/OFL
  -->
<path d="M187 40L187 959 261 959 261 40ZM85 233C82 321 66 429 30 490L86 515C125 446 141 332 142 241ZM274 215C304 270 333 342 343 387L370 373C388 383 408 395 419 403 450 365 479 318 505 265L639 265 639 491 365 491 365 563 639 563 639 959 714 959 714 563 961 563 961 491 714 491 714 265 931 265 931 193 538 193C557 149 573 102 586 55L512 40C484 144 439 247 384 323 369 283 346 234 323 193Z"/>
</svg>