<svg xmlns="http://www.w3.org/2000/svg" name="gid5376" data-unicode="快"
    viewBox="0 0 1000 1000">
  <!--
© 2014-2021 Adobe (http://www.adobe.com/).
Noto is a trademark of Google Inc.
This Font Software is licensed under the SIL Open Font License, Version 1.1. This Font Software is distributed on an "AS IS" BASIS, WITHOUT WARRANTIES OR CONDITIONS OF ANY KIND, either express or implied. See the SIL Open Font License for the specific language, permissions and limitations governing your use of this Font Software.
http://scripts.sil.org/OFL
  -->
<path d="M170 40L170 959 245 959 245 40ZM80 233C73 314 55 424 28 490L87 511C114 438 132 322 137 241ZM247 224C277 284 309 363 321 411L377 383C365 336 331 259 300 201ZM805 499L650 499C654 456 655 414 655 373L655 270 805 270ZM580 40L580 199 384 199 384 270 580 270 580 373C580 413 579 456 575 499L330 499 330 572 565 572C539 695 473 818 297 906 314 920 340 948 350 964 518 871 594 747 628 620 686 777 779 901 920 963 931 941 956 909 974 893 834 842 738 720 684 572L965 572 965 499 879 499 879 199 655 199 655 40Z"/>
</svg>