<svg xmlns="http://www.w3.org/2000/svg"
    viewBox="0 0 1000 1000">
  <!--
© 2014-2021 Adobe (http://www.adobe.com/).
Noto is a trademark of Google Inc.
This Font Software is licensed under the SIL Open Font License, Version 1.1. This Font Software is distributed on an "AS IS" BASIS, WITHOUT WARRANTIES OR CONDITIONS OF ANY KIND, either express or implied. See the SIL Open Font License for the specific language, permissions and limitations governing your use of this Font Software.
http://scripts.sil.org/OFL
  -->
<path d="M187 10L187 929 261 929 261 10ZM85 203C82 291 66 399 30 460L86 485C125 416 141 302 142 211ZM274 194C306 253 338 331 350 380L401 353C390 307 356 230 323 172ZM433 86L433 384C433 533 420 726 298 867 317 877 345 903 355 919 479 776 504 575 507 421L714 421 714 927 790 927 790 421 960 421 960 352 507 352 507 168C648 151 809 122 918 86L859 28C777 59 632 87 502 106Z"/>
</svg>