<svg xmlns="http://www.w3.org/2000/svg" name="gid5390" data-unicode="忼"
    viewBox="0 0 1000 1000">
  <!--
© 2014-2021 Adobe (http://www.adobe.com/).
Noto is a trademark of Google Inc.
This Font Software is licensed under the SIL Open Font License, Version 1.1. This Font Software is distributed on an "AS IS" BASIS, WITHOUT WARRANTIES OR CONDITIONS OF ANY KIND, either express or implied. See the SIL Open Font License for the specific language, permissions and limitations governing your use of this Font Software.
http://scripts.sil.org/OFL
  -->
<path d="M178 40L178 959 251 959 251 40ZM79 233C77 321 61 429 27 490L79 514C116 445 132 331 133 240ZM260 224C291 283 323 363 334 411L384 386C373 338 340 262 307 203ZM364 208L364 280 960 280 960 208 695 208 695 40 619 40 619 208ZM481 394L481 570C481 680 461 813 311 909 326 919 352 949 362 965 524 861 555 699 555 572L555 464 759 464 759 827C759 897 764 915 780 929 796 942 818 948 839 948 850 948 875 948 889 948 908 948 928 944 942 935 956 926 965 910 970 886 975 863 978 794 979 739 961 733 937 721 922 708 922 771 921 819 919 841 916 862 913 871 908 876 903 880 894 882 886 882 876 882 864 882 857 882 848 882 843 880 838 877 833 872 833 857 833 830L833 394Z"/>
</svg>