<svg xmlns="http://www.w3.org/2000/svg" name="gid5395" data-unicode="怍"
    viewBox="0 0 1000 1000">
  <!--
© 2014-2021 Adobe (http://www.adobe.com/).
Noto is a trademark of Google Inc.
This Font Software is licensed under the SIL Open Font License, Version 1.1. This Font Software is distributed on an "AS IS" BASIS, WITHOUT WARRANTIES OR CONDITIONS OF ANY KIND, either express or implied. See the SIL Open Font License for the specific language, permissions and limitations governing your use of this Font Software.
http://scripts.sil.org/OFL
  -->
<path d="M173 40L173 959 245 959 245 40ZM81 233C75 312 59 423 36 491L96 511C118 436 135 320 138 242ZM258 204C278 265 295 344 302 392L360 371C354 326 333 248 313 189ZM513 39C481 183 425 327 356 419 372 432 399 461 409 475 450 420 486 349 517 271L581 271 581 960 654 960 654 702 943 702 943 634 654 634 654 480 934 480 934 411 654 411 654 271 960 271 960 201 543 201C559 153 574 104 586 54Z"/>
</svg>