<svg xmlns="http://www.w3.org/2000/svg" name="gid5403" data-unicode="怖"
    viewBox="0 0 1000 1000">
  <!--
© 2014-2021 Adobe (http://www.adobe.com/).
Noto is a trademark of Google Inc.
This Font Software is licensed under the SIL Open Font License, Version 1.1. This Font Software is distributed on an "AS IS" BASIS, WITHOUT WARRANTIES OR CONDITIONS OF ANY KIND, either express or implied. See the SIL Open Font License for the specific language, permissions and limitations governing your use of this Font Software.
http://scripts.sil.org/OFL
  -->
<path d="M168 40L168 959 240 959 240 40ZM75 233C73 309 62 421 44 490L104 505C123 430 133 315 133 240ZM248 221C274 282 301 362 311 411L369 384C358 338 331 260 304 201ZM589 35C575 90 558 143 538 192L344 192 344 262 506 262C452 370 381 459 292 524 305 542 326 582 333 601 367 574 399 544 429 511L429 823 499 823 499 497 636 497 636 959 708 959 708 497 856 497 856 735C856 745 853 748 842 748 831 749 799 749 757 748 767 768 776 796 777 817 834 817 872 817 897 804 921 792 927 771 927 736L927 429 708 429 708 310 636 310 636 429 494 429C530 378 561 322 588 262L952 262 952 192 617 192C634 147 648 100 661 51Z"/>
</svg>