<svg xmlns="http://www.w3.org/2000/svg" name="gid5414" data-unicode="怢"
    viewBox="0 0 1000 1000">
  <!--
© 2014-2021 Adobe (http://www.adobe.com/).
Noto is a trademark of Google Inc.
This Font Software is licensed under the SIL Open Font License, Version 1.1. This Font Software is distributed on an "AS IS" BASIS, WITHOUT WARRANTIES OR CONDITIONS OF ANY KIND, either express or implied. See the SIL Open Font License for the specific language, permissions and limitations governing your use of this Font Software.
http://scripts.sil.org/OFL
  -->
<path d="M178 40L178 959 251 959 251 40ZM79 233C77 321 61 429 27 490L79 514C116 445 132 331 133 240ZM260 208C290 265 321 341 330 388L346 380C364 389 398 407 412 417 435 384 456 343 475 297L612 297 612 392C612 424 612 458 609 492L350 492 350 561 601 561C579 688 512 815 314 902 331 917 355 945 365 960 541 874 622 757 658 635 711 784 796 898 922 960 934 940 958 909 975 894 840 837 750 716 703 561L954 561 954 492 684 492C686 458 687 425 687 392L687 297 921 297 921 228 687 228 687 41 612 41 612 228 499 228C511 187 522 144 530 100L457 88C441 181 414 270 374 338 360 293 334 234 307 186Z"/>
</svg>