<svg xmlns="http://www.w3.org/2000/svg"
    viewBox="0 0 1000 1000">
  <!--
© 2014-2021 Adobe (http://www.adobe.com/).
Noto is a trademark of Google Inc.
This Font Software is licensed under the SIL Open Font License, Version 1.1. This Font Software is distributed on an "AS IS" BASIS, WITHOUT WARRANTIES OR CONDITIONS OF ANY KIND, either express or implied. See the SIL Open Font License for the specific language, permissions and limitations governing your use of this Font Software.
http://scripts.sil.org/OFL
  -->
<path d="M485 74C582 101 710 148 774 183L807 115C740 82 612 38 517 15ZM169 10L169 929 241 929 241 10ZM79 203C77 291 61 399 27 460L77 484C114 415 130 301 131 210ZM250 180C277 237 301 314 309 360L359 338C350 293 325 219 297 162ZM890 296C851 346 788 409 735 456 714 409 697 359 684 310L684 212 413 212 413 280 612 280 612 839C612 853 607 858 592 858 577 859 527 860 474 857 484 877 494 910 497 931 571 931 618 930 646 917 675 905 684 882 684 840L684 486C739 634 819 762 923 830 936 809 961 778 979 763 892 716 819 626 764 519 824 472 896 403 951 341ZM316 396L316 464 480 464C445 606 375 709 283 767 299 778 324 807 334 823 444 748 528 611 562 409L518 395 505 396Z"/>
</svg>