<svg xmlns="http://www.w3.org/2000/svg"
    viewBox="0 0 1000 1000">
  <!--
© 2014-2021 Adobe (http://www.adobe.com/).
Noto is a trademark of Google Inc.
This Font Software is licensed under the SIL Open Font License, Version 1.1. This Font Software is distributed on an "AS IS" BASIS, WITHOUT WARRANTIES OR CONDITIONS OF ANY KIND, either express or implied. See the SIL Open Font License for the specific language, permissions and limitations governing your use of this Font Software.
http://scripts.sil.org/OFL
  -->
<path d="M303 640L303 827C303 904 329 924 432 924 453 924 602 924 625 924 711 924 732 894 741 768 721 763 692 752 676 740 671 843 663 858 618 858 586 858 462 858 438 858 385 858 376 853 376 826L376 640ZM393 614C453 653 519 714 549 757L603 715C572 672 504 615 445 576ZM714 661C789 733 867 834 899 902L965 862C931 793 850 695 775 626ZM718 285C782 349 849 440 876 500L942 465C914 404 844 316 780 254ZM178 642C154 722 108 808 36 858L97 900C172 844 215 751 243 665ZM198 254C167 327 107 399 46 440 61 452 83 473 95 486 160 440 227 362 265 280ZM64 120L64 188 367 188 367 237C367 333 353 457 208 551 226 562 253 584 266 600 421 494 438 353 438 238L438 188 579 188 579 497C579 508 575 511 562 512 550 512 508 512 463 511 473 530 483 557 486 576 550 576 590 575 617 565 643 553 650 535 650 498L650 188 938 188 938 120 536 120 536 10 460 10 460 120Z"/>
</svg>