<svg xmlns="http://www.w3.org/2000/svg" name="gid5443" data-unicode="恒"
    viewBox="0 0 1000 1000">
  <!--
© 2014-2021 Adobe (http://www.adobe.com/).
Noto is a trademark of Google Inc.
This Font Software is licensed under the SIL Open Font License, Version 1.1. This Font Software is distributed on an "AS IS" BASIS, WITHOUT WARRANTIES OR CONDITIONS OF ANY KIND, either express or implied. See the SIL Open Font License for the specific language, permissions and limitations governing your use of this Font Software.
http://scripts.sil.org/OFL
  -->
<path d="M178 40L178 959 251 959 251 40ZM81 233C74 314 56 424 29 490L91 512C118 439 136 323 141 241ZM260 224C288 282 319 359 331 405L389 376C376 332 343 257 314 201ZM383 94L383 163 942 163 942 94ZM352 835L352 905 959 905 959 835ZM503 540L807 540 807 681 503 681ZM503 338L807 338 807 478 503 478ZM431 271L431 748 883 748 883 271Z"/>
</svg>