<svg xmlns="http://www.w3.org/2000/svg" name="gid5472" data-unicode="悁"
    viewBox="0 0 1000 1000">
  <!--
© 2014-2021 Adobe (http://www.adobe.com/).
Noto is a trademark of Google Inc.
This Font Software is licensed under the SIL Open Font License, Version 1.1. This Font Software is distributed on an "AS IS" BASIS, WITHOUT WARRANTIES OR CONDITIONS OF ANY KIND, either express or implied. See the SIL Open Font License for the specific language, permissions and limitations governing your use of this Font Software.
http://scripts.sil.org/OFL
  -->
<path d="M528 135L835 135 835 270 528 270ZM457 73L457 332 908 332 908 73ZM187 40L187 959 261 959 261 40ZM85 233C82 321 66 429 30 490L86 515C125 446 141 332 142 241ZM274 224C306 283 338 361 350 410L401 383C390 337 356 260 323 202ZM506 617L856 617 856 704 506 704ZM506 554L506 470 856 470 856 554ZM433 405L433 959 506 959 506 767 856 767 856 872C856 884 852 889 837 889 823 890 775 890 723 888 733 908 743 938 746 958 818 958 865 958 895 946 923 934 932 913 932 872L932 405Z"/>
</svg>