<svg xmlns="http://www.w3.org/2000/svg" name="gid5482" data-unicode="悌"
    viewBox="0 0 1000 1000">
  <!--
© 2014-2021 Adobe (http://www.adobe.com/).
Noto is a trademark of Google Inc.
This Font Software is licensed under the SIL Open Font License, Version 1.1. This Font Software is distributed on an "AS IS" BASIS, WITHOUT WARRANTIES OR CONDITIONS OF ANY KIND, either express or implied. See the SIL Open Font License for the specific language, permissions and limitations governing your use of this Font Software.
http://scripts.sil.org/OFL
  -->
<path d="M790 40C771 86 735 153 706 196L768 218C798 178 834 119 865 63ZM178 40L178 959 251 959 251 40ZM79 233C77 321 61 429 27 490L79 514C116 445 132 331 133 240ZM260 224C290 282 322 359 332 407L383 381C372 335 340 260 307 203ZM397 402C382 483 360 587 341 654L409 665 417 634 560 634C500 728 407 815 315 859 331 873 352 899 362 915 453 865 545 776 609 675L609 959 682 959 682 634 865 634C856 740 846 784 834 798 826 807 818 808 805 808 793 808 764 807 731 804 742 823 749 852 751 875 787 877 823 876 842 874 865 871 882 865 896 849 920 823 931 757 943 598 944 589 945 568 945 568L682 568 682 468 910 468 910 219 514 219 577 194C563 153 526 92 491 46L430 69C464 115 498 178 512 219L383 219 383 285 609 285 609 402ZM455 468L609 468 609 568 433 568ZM682 285L835 285 835 402 682 402Z"/>
</svg>