<svg xmlns="http://www.w3.org/2000/svg" name="gid5486" data-unicode="悒"
    viewBox="0 0 1000 1000">
  <!--
© 2014-2021 Adobe (http://www.adobe.com/).
Noto is a trademark of Google Inc.
This Font Software is licensed under the SIL Open Font License, Version 1.1. This Font Software is distributed on an "AS IS" BASIS, WITHOUT WARRANTIES OR CONDITIONS OF ANY KIND, either express or implied. See the SIL Open Font License for the specific language, permissions and limitations governing your use of this Font Software.
http://scripts.sil.org/OFL
  -->
<path d="M492 143L799 143 799 263 492 263ZM423 79L423 328 871 328 871 79ZM170 40L170 959 241 959 241 40ZM73 233C70 313 57 424 33 490L93 512C118 438 131 322 132 240ZM258 218C285 279 315 359 325 407L381 379C369 333 338 255 309 196ZM459 469L613 469 613 615 459 615ZM387 402L387 819C387 916 424 939 546 939 572 939 790 939 819 939 923 939 948 904 960 781 939 777 909 765 891 753 885 852 875 870 815 870 768 870 583 870 547 870 472 870 459 861 459 819L459 681 909 681 909 402ZM681 469L838 469 838 615 681 615Z"/>
</svg>