<svg xmlns="http://www.w3.org/2000/svg" name="gid5493" data-unicode="悚"
    viewBox="0 0 1000 1000">
  <!--
© 2014-2021 Adobe (http://www.adobe.com/).
Noto is a trademark of Google Inc.
This Font Software is licensed under the SIL Open Font License, Version 1.1. This Font Software is distributed on an "AS IS" BASIS, WITHOUT WARRANTIES OR CONDITIONS OF ANY KIND, either express or implied. See the SIL Open Font License for the specific language, permissions and limitations governing your use of this Font Software.
http://scripts.sil.org/OFL
  -->
<path d="M80 233C73 314 55 424 28 490L89 511C116 439 134 323 139 241ZM170 40L170 959 241 959 241 228C269 288 300 365 313 411L368 383C356 338 321 260 291 201L241 223 241 40ZM392 319L392 600 565 600C504 706 404 806 307 857 323 871 344 897 356 914 450 858 545 758 610 647L610 960 684 960 684 645C743 754 830 856 918 913 930 894 954 867 971 853 880 803 786 704 728 600L914 600 914 319 684 319 684 228 942 228 942 160 684 160 684 41 610 41 610 160 358 160 358 228 610 228 610 319ZM463 384L610 384 610 534 463 534ZM684 384L841 384 841 534 684 534Z"/>
</svg>