<svg xmlns="http://www.w3.org/2000/svg"
    viewBox="0 0 1000 1000">
  <!--
© 2014-2021 Adobe (http://www.adobe.com/).
Noto is a trademark of Google Inc.
This Font Software is licensed under the SIL Open Font License, Version 1.1. This Font Software is distributed on an "AS IS" BASIS, WITHOUT WARRANTIES OR CONDITIONS OF ANY KIND, either express or implied. See the SIL Open Font License for the specific language, permissions and limitations governing your use of this Font Software.
http://scripts.sil.org/OFL
  -->
<path d="M305 663L305 821C305 898 330 919 434 919 456 919 604 919 626 919 709 919 731 891 741 775 721 770 689 759 674 748 669 838 662 851 620 851 587 851 464 851 440 851 387 851 378 846 378 820L378 663ZM711 688C786 749 862 836 893 900L958 861C926 796 847 711 772 653ZM177 659C155 737 111 815 39 860L100 903C177 852 218 767 244 681ZM123 357L123 601 193 601 193 569 460 569 460 616 421 594 371 635C434 669 506 722 538 762L591 716C570 692 534 663 496 638L534 638 534 569 808 569 808 599 881 599 881 357 534 357 534 292 848 292 848 86 534 86 534 10 460 10 460 86 158 86 158 292 460 292 460 357ZM228 144L460 144 460 235 228 235ZM534 144L775 144 775 235 534 235ZM460 415L460 511 193 511 193 415ZM534 415L808 415 808 511 534 511Z"/>
</svg>