<svg xmlns="http://www.w3.org/2000/svg"
    viewBox="0 0 1000 1000">
  <!--
© 2014-2021 Adobe (http://www.adobe.com/).
Noto is a trademark of Google Inc.
This Font Software is licensed under the SIL Open Font License, Version 1.1. This Font Software is distributed on an "AS IS" BASIS, WITHOUT WARRANTIES OR CONDITIONS OF ANY KIND, either express or implied. See the SIL Open Font License for the specific language, permissions and limitations governing your use of this Font Software.
http://scripts.sil.org/OFL
  -->
<path d="M464 262C437 332 392 403 340 450 358 460 388 478 401 489 452 438 503 359 535 280ZM300 631L300 813C300 891 326 913 431 913 453 913 602 913 625 913 710 913 733 883 743 761 722 756 691 745 675 733 671 831 663 844 619 844 586 844 461 844 437 844 383 844 374 840 374 813L374 631ZM385 601C450 634 524 687 559 728L612 679C576 638 500 588 436 557ZM714 662C789 727 864 820 892 887L959 848C928 781 851 691 776 627ZM178 644C157 727 113 808 40 854L101 897C180 845 219 755 245 666ZM733 284C779 350 828 441 849 500L914 469C895 419 858 350 818 290L867 300C892 256 922 183 947 120L895 107 883 109 503 109C516 83 528 56 538 28L468 11C435 106 376 197 308 257 324 267 352 291 364 304 400 269 436 224 467 174L606 174 606 501C606 513 602 516 589 517 577 517 535 517 488 516 498 535 509 563 512 582 575 582 616 582 643 571 671 559 678 540 678 502L678 174 852 174C838 211 822 248 808 276L795 258ZM273 10C216 120 123 230 28 300 43 313 68 344 77 358 112 330 147 296 181 259L181 582 254 582 254 169C287 125 316 79 341 32Z"/>
</svg>