<svg xmlns="http://www.w3.org/2000/svg"
    viewBox="0 0 1000 1000">
  <!--
© 2014-2021 Adobe (http://www.adobe.com/).
Noto is a trademark of Google Inc.
This Font Software is licensed under the SIL Open Font License, Version 1.1. This Font Software is distributed on an "AS IS" BASIS, WITHOUT WARRANTIES OR CONDITIONS OF ANY KIND, either express or implied. See the SIL Open Font License for the specific language, permissions and limitations governing your use of this Font Software.
http://scripts.sil.org/OFL
  -->
<path d="M178 10L178 929 251 929 251 10ZM79 203C77 291 61 399 27 460L79 484C116 415 132 301 133 210ZM260 194C291 253 323 333 334 381L384 356C373 308 340 232 307 173ZM864 574C831 608 778 652 731 685 703 642 680 594 663 543L960 543 960 476 508 476 508 396 860 396 860 335 508 335 508 258 860 258 860 197 508 197 508 121 893 121 893 58 435 58 435 476 314 476 314 543 434 543 434 825 322 843 339 913C435 894 564 870 686 846L682 782 507 813 507 543 594 543C651 728 755 868 918 931 928 913 949 885 965 871 884 843 817 795 764 731 814 700 871 659 919 620Z"/>
</svg>