<svg xmlns="http://www.w3.org/2000/svg" name="gid5520" data-unicode="悾"
    viewBox="0 0 1000 1000">
  <!--
© 2014-2021 Adobe (http://www.adobe.com/).
Noto is a trademark of Google Inc.
This Font Software is licensed under the SIL Open Font License, Version 1.1. This Font Software is distributed on an "AS IS" BASIS, WITHOUT WARRANTIES OR CONDITIONS OF ANY KIND, either express or implied. See the SIL Open Font License for the specific language, permissions and limitations governing your use of this Font Software.
http://scripts.sil.org/OFL
  -->
<path d="M169 40L169 959 241 959 241 40ZM79 247C77 336 61 444 27 505L77 528C114 459 130 346 131 255ZM250 236C278 297 304 375 312 424L362 401C354 355 327 278 298 218ZM349 153L349 322 414 322 414 216 524 216C515 358 483 437 332 479 346 491 365 517 371 533 540 481 581 383 592 216L694 216 694 419C694 487 710 506 781 506 795 506 866 506 881 506 935 506 954 481 960 383 942 379 914 369 900 358 898 434 894 444 873 444 857 444 801 444 789 444 764 444 761 441 761 419L761 216 885 216 885 319 952 319 952 153 676 153 676 45 603 45 603 153ZM315 855L315 924 961 924 961 855 676 855 676 660 923 660 923 592 374 592 374 660 603 660 603 855Z"/>
</svg>