<svg xmlns="http://www.w3.org/2000/svg" name="gid5525" data-unicode="惇"
    viewBox="0 0 1000 1000">
  <!--
© 2014-2021 Adobe (http://www.adobe.com/).
Noto is a trademark of Google Inc.
This Font Software is licensed under the SIL Open Font License, Version 1.1. This Font Software is distributed on an "AS IS" BASIS, WITHOUT WARRANTIES OR CONDITIONS OF ANY KIND, either express or implied. See the SIL Open Font License for the specific language, permissions and limitations governing your use of this Font Software.
http://scripts.sil.org/OFL
  -->
<path d="M496 311L812 311 812 417 496 417ZM427 254L427 473 885 473 885 254ZM178 40L178 959 251 959 251 40ZM79 233C77 321 61 429 27 490L79 514C116 445 132 331 133 240ZM260 224C291 283 323 363 334 411L384 386C373 338 340 262 307 203ZM364 134L364 199 950 199 950 134 690 134 690 40 615 40 615 134ZM332 708L332 770 616 770 616 879C616 891 613 894 598 895 584 896 537 896 483 894 492 914 503 940 507 960 577 960 623 959 652 950 683 939 691 920 691 881L691 770 960 770 960 708 691 708 691 677C760 647 836 603 890 558L846 523 831 527 415 527 415 586 750 586C716 607 678 628 643 643L616 643 616 708Z"/>
</svg>