<svg xmlns="http://www.w3.org/2000/svg" name="gid5535" data-unicode="惕"
    viewBox="0 0 1000 1000">
  <!--
© 2014-2021 Adobe (http://www.adobe.com/).
Noto is a trademark of Google Inc.
This Font Software is licensed under the SIL Open Font License, Version 1.1. This Font Software is distributed on an "AS IS" BASIS, WITHOUT WARRANTIES OR CONDITIONS OF ANY KIND, either express or implied. See the SIL Open Font License for the specific language, permissions and limitations governing your use of this Font Software.
http://scripts.sil.org/OFL
  -->
<path d="M174 40L174 959 246 959 246 40ZM82 233C75 314 57 424 31 490L92 511C118 439 136 323 141 241ZM261 224C289 286 318 367 328 417L386 389C375 342 344 262 314 202ZM491 295L815 295 815 388 491 388ZM491 147L815 147 815 239 491 239ZM420 88L420 448 497 448C454 538 382 629 296 691 312 702 335 724 347 737 394 701 438 657 476 608L564 608C519 705 441 798 348 862 362 872 385 894 395 905 498 832 582 725 633 608L723 608C686 729 617 842 523 915 538 925 562 947 572 960 675 875 749 749 790 608L862 608C848 792 834 865 814 885 806 895 797 896 782 896 766 896 728 896 687 892 697 911 704 938 706 958 748 960 790 960 813 959 839 956 857 949 874 930 902 898 919 811 935 574 936 564 938 542 938 542L521 542C540 512 557 480 571 448L889 448 889 88Z"/>
</svg>