<svg xmlns="http://www.w3.org/2000/svg"
    viewBox="0 0 1000 1000">
  <!--
© 2014-2021 Adobe (http://www.adobe.com/).
Noto is a trademark of Google Inc.
This Font Software is licensed under the SIL Open Font License, Version 1.1. This Font Software is distributed on an "AS IS" BASIS, WITHOUT WARRANTIES OR CONDITIONS OF ANY KIND, either express or implied. See the SIL Open Font License for the specific language, permissions and limitations governing your use of this Font Software.
http://scripts.sil.org/OFL
  -->
<path d="M178 10L178 929 251 929 251 10ZM79 203C77 291 61 399 27 460L79 484C116 415 132 301 133 210ZM260 158C290 213 320 287 330 333L371 313C351 341 329 366 306 388 324 398 357 422 369 435 392 411 414 383 435 352L435 928 508 928 508 873 955 873 955 803 750 803 750 658 921 658 921 589 750 589 750 462 921 462 921 393 750 393 750 264 945 264 945 192 758 192C782 143 808 86 830 35L751 13C736 66 709 136 683 192L526 192C551 139 572 83 590 26L516 9C485 116 438 218 379 301 368 255 338 188 308 136ZM508 803L508 658 678 658 678 803ZM508 589L508 462 678 462 678 589ZM508 393L508 264 678 264 678 393Z"/>
</svg>