<svg xmlns="http://www.w3.org/2000/svg" name="gid5559" data-unicode="惷"
    viewBox="0 0 1000 1000">
  <!--
© 2014-2021 Adobe (http://www.adobe.com/).
Noto is a trademark of Google Inc.
This Font Software is licensed under the SIL Open Font License, Version 1.1. This Font Software is distributed on an "AS IS" BASIS, WITHOUT WARRANTIES OR CONDITIONS OF ANY KIND, either express or implied. See the SIL Open Font License for the specific language, permissions and limitations governing your use of this Font Software.
http://scripts.sil.org/OFL
  -->
<path d="M305 721L305 852C305 926 329 945 433 945 454 945 598 945 620 945 699 945 723 920 732 814 712 810 681 800 664 788 661 869 653 879 613 879 581 879 462 879 438 879 387 879 378 875 378 851L378 721ZM719 750C791 801 865 876 896 932L959 891C927 835 849 761 778 713ZM180 722C156 789 110 855 40 892L99 935C174 892 216 819 245 747ZM325 566L673 566 673 618 325 618ZM325 468L673 468 673 519 325 519ZM443 38C436 65 429 92 420 117L105 117 105 168 402 168 380 216 155 216 155 266 353 266C343 283 332 299 320 315L65 315 65 368 276 368C212 437 132 490 34 529 51 543 77 574 88 589 150 561 205 528 254 488L254 667 430 667 395 698C455 725 523 770 556 806L606 759C577 728 520 692 467 667L747 667 747 491C797 528 854 558 916 578 926 559 947 531 963 517 864 489 777 437 710 368L933 368 933 315 666 315C654 299 644 283 634 266L844 266 844 216 461 216 481 168 893 168 893 117 499 117C506 95 512 73 518 50ZM329 419C344 403 359 386 372 368L624 368C637 386 651 403 666 419ZM437 266L563 266C571 283 580 299 589 315L409 315Z"/>
</svg>