<svg xmlns="http://www.w3.org/2000/svg" name="gid5561" data-unicode="惹"
    viewBox="0 0 1000 1000">
  <!--
© 2014-2021 Adobe (http://www.adobe.com/).
Noto is a trademark of Google Inc.
This Font Software is licensed under the SIL Open Font License, Version 1.1. This Font Software is distributed on an "AS IS" BASIS, WITHOUT WARRANTIES OR CONDITIONS OF ANY KIND, either express or implied. See the SIL Open Font License for the specific language, permissions and limitations governing your use of this Font Software.
http://scripts.sil.org/OFL
  -->
<path d="M327 481L748 481 748 588 327 588ZM292 702L292 850C292 927 319 947 428 947 450 947 611 947 635 947 721 947 744 920 754 807 733 802 702 791 686 780 682 867 674 879 628 879 593 879 459 879 433 879 375 879 366 874 366 849L366 702ZM738 728C798 788 865 871 894 925L961 890C931 835 862 755 801 697ZM169 700C142 767 95 846 36 894L100 933C160 881 204 798 234 727ZM410 684C475 717 551 768 589 804L639 758C602 724 529 677 465 647L823 647 823 423 332 423C356 398 379 371 400 342L932 342 932 281 439 281C451 261 461 241 471 220L398 202C385 229 371 256 354 281L64 281 64 342 309 342C238 427 144 495 38 541 54 555 80 585 91 600 149 570 205 534 257 492L257 647 452 647ZM631 40L631 112 364 112 364 40 291 40 291 112 69 112 69 174 291 174 291 241 364 241 364 174 631 174 631 241 705 241 705 174 932 174 932 112 705 112 705 40Z"/>
</svg>