<svg xmlns="http://www.w3.org/2000/svg"
    viewBox="0 0 1000 1000">
  <!--
© 2014-2021 Adobe (http://www.adobe.com/).
Noto is a trademark of Google Inc.
This Font Software is licensed under the SIL Open Font License, Version 1.1. This Font Software is distributed on an "AS IS" BASIS, WITHOUT WARRANTIES OR CONDITIONS OF ANY KIND, either express or implied. See the SIL Open Font License for the specific language, permissions and limitations governing your use of this Font Software.
http://scripts.sil.org/OFL
  -->
<path d="M305 672L305 820C305 896 329 916 433 916 453 916 598 916 619 916 700 916 723 890 733 777 712 773 681 762 665 750 660 837 654 848 612 848 581 848 462 848 438 848 387 848 378 844 378 819L378 672ZM716 689C789 749 864 835 893 897L959 858C928 795 850 711 777 654ZM178 669C156 744 110 817 39 858L101 901C177 854 218 774 245 692ZM527 137C516 212 488 286 436 327L492 362C549 316 573 235 587 154ZM879 129C859 188 821 272 792 324L848 348C880 298 918 222 950 156ZM696 13L659 13 659 229C659 292 626 471 428 561 438 572 451 591 461 606L426 588 377 630C440 663 512 715 547 755L599 708C573 679 528 646 481 618 628 544 683 412 696 349 710 412 768 553 917 624 926 606 948 575 962 558 767 471 734 291 734 229L734 13ZM407 13C326 39 179 61 55 73 63 87 72 111 75 127 126 123 181 117 235 110L235 210 53 210 53 274 220 274C176 365 104 460 37 509 53 521 76 545 87 562 138 519 191 449 235 373L235 620 305 620 305 386C339 419 379 458 397 479L445 429C424 410 334 335 305 314L305 274 453 274 453 210 305 210 305 99C362 89 416 78 460 64Z"/>
</svg>