<svg xmlns="http://www.w3.org/2000/svg" name="gid5573" data-unicode="愉"
    viewBox="0 0 1000 1000">
  <!--
© 2014-2021 Adobe (http://www.adobe.com/).
Noto is a trademark of Google Inc.
This Font Software is licensed under the SIL Open Font License, Version 1.1. This Font Software is distributed on an "AS IS" BASIS, WITHOUT WARRANTIES OR CONDITIONS OF ANY KIND, either express or implied. See the SIL Open Font License for the specific language, permissions and limitations governing your use of this Font Software.
http://scripts.sil.org/OFL
  -->
<path d="M676 464L676 812 739 812 739 464ZM834 429L834 882C834 893 831 896 819 896 807 897 770 897 728 895 737 915 746 941 748 959 805 960 843 958 866 948 890 937 897 918 897 882L897 429ZM159 40L159 959 227 959 227 40ZM75 223C74 310 60 419 27 481L76 502C111 433 126 319 125 230ZM244 188C262 234 277 294 281 331L333 311C329 275 312 217 293 172ZM624 111C691 213 813 331 922 403 933 382 950 356 965 339 853 276 731 157 655 40L587 40C530 147 412 276 291 349 305 365 323 391 332 409 376 381 418 346 458 310L458 369 790 369 790 308 460 308C528 245 586 174 624 111ZM544 508L544 586 412 586 412 508ZM350 448L350 959 412 959 412 782 544 782 544 885C544 893 542 896 534 896 525 897 504 897 477 896 485 914 493 942 495 959 535 959 563 958 583 948 602 936 606 917 606 886L606 448ZM412 643L544 643 544 725 412 725Z"/>
</svg>