<svg xmlns="http://www.w3.org/2000/svg" name="gid5577" data-unicode="愎"
    viewBox="0 0 1000 1000">
  <!--
© 2014-2021 Adobe (http://www.adobe.com/).
Noto is a trademark of Google Inc.
This Font Software is licensed under the SIL Open Font License, Version 1.1. This Font Software is distributed on an "AS IS" BASIS, WITHOUT WARRANTIES OR CONDITIONS OF ANY KIND, either express or implied. See the SIL Open Font License for the specific language, permissions and limitations governing your use of this Font Software.
http://scripts.sil.org/OFL
  -->
<path d="M499 441L815 441 815 509 499 509ZM499 323L815 323 815 390 499 390ZM161 40L161 962 230 962 230 40ZM77 233C71 311 55 422 32 490L91 510C114 435 130 319 134 241ZM238 218C261 282 285 366 293 417L349 393C340 345 315 262 291 199ZM491 40C457 139 397 234 327 295 344 306 373 329 386 341 401 326 416 309 431 290L431 564 536 564C483 642 399 710 311 755 327 767 353 792 363 804 404 780 445 750 484 716 514 756 550 791 592 822 504 862 401 887 299 900 312 915 327 944 333 963 446 944 558 913 655 864 733 910 825 943 924 962 934 941 954 911 970 895 881 882 796 858 723 825 792 779 849 721 886 648L840 623 827 627 570 627C586 607 601 586 614 564L885 564 885 269 447 269C463 248 477 226 491 203L943 203 943 141 525 141C538 114 550 86 560 57ZM782 684C750 725 707 760 657 789 607 759 565 724 533 684Z"/>
</svg>