<svg xmlns="http://www.w3.org/2000/svg"
    viewBox="0 0 1000 1000">
  <!--
© 2014-2021 Adobe (http://www.adobe.com/).
Noto is a trademark of Google Inc.
This Font Software is licensed under the SIL Open Font License, Version 1.1. This Font Software is distributed on an "AS IS" BASIS, WITHOUT WARRANTIES OR CONDITIONS OF ANY KIND, either express or implied. See the SIL Open Font License for the specific language, permissions and limitations governing your use of this Font Software.
http://scripts.sil.org/OFL
  -->
<path d="M487 248L819 248 819 335 487 335ZM487 108L819 108 819 193 487 193ZM178 10L178 929 251 929 251 10ZM79 203C77 291 61 399 27 460L79 484C116 415 132 301 133 210ZM260 194C291 253 323 333 334 381L384 356C373 308 340 232 307 173ZM608 544C590 633 542 699 469 741L469 572 442 572 477 532 869 532C857 749 845 830 826 852 818 861 809 864 794 863 779 863 743 863 702 859 712 878 719 906 720 926 763 929 805 929 828 926 854 923 872 917 887 896 915 864 929 767 942 500 943 490 943 467 943 467L525 467C541 443 556 418 569 393L892 393 892 50 417 50 417 393 491 393C440 481 364 563 283 617 298 629 325 655 338 668 359 652 380 634 401 614L401 900 469 900 469 851 783 851 783 787 469 787 469 743C483 752 506 769 516 780 556 754 591 720 617 679 661 712 708 751 734 778L775 736C746 707 690 665 643 631 654 607 662 580 667 551Z"/>
</svg>