<svg xmlns="http://www.w3.org/2000/svg"
    viewBox="0 0 1000 1000">
  <!--
© 2014-2021 Adobe (http://www.adobe.com/).
Noto is a trademark of Google Inc.
This Font Software is licensed under the SIL Open Font License, Version 1.1. This Font Software is distributed on an "AS IS" BASIS, WITHOUT WARRANTIES OR CONDITIONS OF ANY KIND, either express or implied. See the SIL Open Font License for the specific language, permissions and limitations governing your use of this Font Software.
http://scripts.sil.org/OFL
  -->
<path d="M463 239L463 300 861 300 861 239ZM358 497C385 533 412 583 422 616L471 593C461 561 434 512 405 478ZM676 473C661 509 632 564 610 596L656 616C680 584 707 538 731 495ZM159 10L159 929 227 929 227 10ZM75 185C75 271 61 381 28 442L77 464C112 395 127 281 126 192ZM249 161C268 202 285 256 290 290L341 267C336 235 317 183 298 144ZM326 628L326 685 481 685C437 753 368 818 302 851 315 861 334 882 343 897 403 861 466 799 512 731L512 919 578 919 578 757C625 793 689 843 715 867L752 816C724 795 614 721 578 699L578 685 751 685 751 628 578 628 578 458 512 458 512 628ZM472 10C436 134 371 252 290 327 308 337 338 359 351 372 401 320 448 251 486 173L941 173 941 112 513 112C525 84 535 55 544 26ZM371 369L371 431 782 431C783 681 788 902 888 926 936 940 965 905 972 781 959 772 940 752 927 736 924 805 917 858 910 856 855 844 851 614 853 369Z"/>
</svg>