<svg xmlns="http://www.w3.org/2000/svg"
    viewBox="0 0 1000 1000">
  <!--
© 2014-2021 Adobe (http://www.adobe.com/).
Noto is a trademark of Google Inc.
This Font Software is licensed under the SIL Open Font License, Version 1.1. This Font Software is distributed on an "AS IS" BASIS, WITHOUT WARRANTIES OR CONDITIONS OF ANY KIND, either express or implied. See the SIL Open Font License for the specific language, permissions and limitations governing your use of this Font Software.
http://scripts.sil.org/OFL
  -->
<path d="M305 681L305 823C305 899 330 920 434 920 455 920 602 920 625 920 707 920 730 894 739 781 718 777 688 765 672 754 668 840 661 852 619 852 586 852 463 852 440 852 387 852 378 848 378 822L378 681ZM662 486C732 524 813 584 851 628L907 587C867 543 784 485 713 449ZM717 706C789 760 864 839 894 898L959 858C927 799 850 721 778 670ZM178 679C154 750 108 819 39 860L101 903C174 856 216 779 244 702ZM334 322L771 322 771 378 334 378ZM334 221L771 221 771 276 334 276ZM350 452C310 501 243 550 180 583 195 593 221 616 234 628 296 590 369 530 415 473ZM123 51L123 230C123 337 114 482 36 588 51 596 80 620 92 634 177 519 193 349 193 231L193 112 496 112 479 173 266 173 266 427 506 427 506 560C506 570 503 573 492 574 481 574 447 574 406 573 414 587 423 606 427 622L388 655C450 685 521 733 554 772L605 726C577 695 524 658 471 631 505 630 530 628 548 621 572 611 578 595 578 562L578 427 842 427 842 173 556 173 582 112 905 112 905 51Z"/>
</svg>