<svg xmlns="http://www.w3.org/2000/svg" name="gid5617" data-unicode="慆"
    viewBox="0 0 1000 1000">
  <!--
© 2014-2021 Adobe (http://www.adobe.com/).
Noto is a trademark of Google Inc.
This Font Software is licensed under the SIL Open Font License, Version 1.1. This Font Software is distributed on an "AS IS" BASIS, WITHOUT WARRANTIES OR CONDITIONS OF ANY KIND, either express or implied. See the SIL Open Font License for the specific language, permissions and limitations governing your use of this Font Software.
http://scripts.sil.org/OFL
  -->
<path d="M595 194C614 252 629 327 631 376L700 359C697 311 681 237 660 180ZM780 172C830 242 882 339 902 402L967 373C945 310 892 218 840 148ZM178 40L178 959 251 959 251 40ZM79 233C77 321 61 429 27 490L79 514C116 445 132 331 133 240ZM404 465L404 959 476 959 476 914 847 914 847 955 921 955 921 461 678 461 678 526 847 526 847 652 689 652 689 716 847 716 847 848 476 848 476 716 626 716 626 652 476 652 476 534C540 514 608 486 661 457L603 407C569 432 512 458 457 480ZM260 170C290 226 320 301 330 347L376 323C362 352 346 378 329 400 348 408 382 426 397 437 443 370 482 273 507 168 640 152 789 127 893 94L834 42C755 67 622 93 498 111L445 102C431 178 409 253 379 317 368 272 338 203 307 150Z"/>
</svg>