<svg xmlns="http://www.w3.org/2000/svg" name="gid5619" data-unicode="慈"
    viewBox="0 0 1000 1000">
  <!--
© 2014-2021 Adobe (http://www.adobe.com/).
Noto is a trademark of Google Inc.
This Font Software is licensed under the SIL Open Font License, Version 1.1. This Font Software is distributed on an "AS IS" BASIS, WITHOUT WARRANTIES OR CONDITIONS OF ANY KIND, either express or implied. See the SIL Open Font License for the specific language, permissions and limitations governing your use of this Font Software.
http://scripts.sil.org/OFL
  -->
<path d="M305 695L305 851C305 928 330 949 436 949 458 949 608 949 631 949 716 949 739 919 748 797 728 792 697 782 681 769 676 868 669 881 624 881 591 881 466 881 442 881 388 881 378 876 378 850L378 695ZM716 718C790 777 866 864 897 926L962 887C929 824 851 740 777 683ZM178 699C154 773 108 850 40 894L101 938C174 886 216 803 244 723ZM372 665C435 698 508 751 542 790L594 744C564 711 508 670 453 640L488 624C473 581 430 524 388 483L334 507C349 523 365 541 379 559L232 569C297 504 368 417 424 344L361 315C339 350 309 391 277 432 262 415 243 397 222 379 254 341 290 290 322 244L310 239 659 239C641 272 617 310 594 342L550 310 505 351C557 389 617 442 652 486 625 518 597 548 571 573L505 576 514 637C609 631 736 622 861 613 872 632 881 649 886 665L945 639C927 591 880 524 831 476L776 501C793 518 810 538 825 559L648 569C715 502 790 416 847 343L784 313C760 350 729 392 695 434 679 416 659 397 637 378 669 340 706 290 739 244L727 239 943 239 943 174 683 174C709 142 737 102 762 64L681 40C664 79 631 137 605 174L369 174 381 168C367 131 330 78 294 40L232 69C259 100 287 140 303 174L57 174 57 239 243 239C226 272 201 311 179 343L139 314 93 354C145 390 201 442 236 484 208 517 180 548 154 574L73 579 81 641C174 634 294 624 414 613L421 624Z"/>
</svg>