<svg xmlns="http://www.w3.org/2000/svg" name="gid5622" data-unicode="態"
    viewBox="0 0 1000 1000">
  <!--
© 2014-2021 Adobe (http://www.adobe.com/).
Noto is a trademark of Google Inc.
This Font Software is licensed under the SIL Open Font License, Version 1.1. This Font Software is distributed on an "AS IS" BASIS, WITHOUT WARRANTIES OR CONDITIONS OF ANY KIND, either express or implied. See the SIL Open Font License for the specific language, permissions and limitations governing your use of this Font Software.
http://scripts.sil.org/OFL
  -->
<path d="M305 737L305 860C305 932 331 950 435 950 457 950 612 950 634 950 715 950 737 926 745 821 725 817 697 807 681 796 677 876 669 888 627 888 593 888 465 888 441 888 387 888 377 883 377 859L377 737ZM722 757C793 808 868 884 899 940L962 901C929 844 852 771 781 722ZM180 733C156 798 109 865 39 902L98 944C173 901 216 829 244 756ZM111 299L111 692 179 692 179 560 396 560 396 618C396 629 393 632 381 632 369 632 333 632 291 632 300 647 309 669 313 687 368 687 406 687 429 678L391 713C450 740 519 784 552 819L600 772C567 737 499 696 441 673 460 663 465 647 465 618L465 299ZM396 353L396 408 179 408 179 353ZM179 456L396 456 396 511 179 511ZM833 74C784 102 698 131 616 154L616 48 546 48 546 257C546 330 570 350 664 350 684 350 816 350 837 350 910 350 931 325 939 226 919 222 892 212 877 202 872 277 866 287 830 287 802 287 691 287 670 287 623 287 616 283 616 257L616 209C709 187 815 156 889 120ZM844 404C791 433 702 463 616 486L616 373 546 373 546 599C546 673 570 693 665 693 685 693 820 693 841 693 915 693 935 667 944 566 924 562 897 552 881 541 878 618 871 630 834 630 806 630 692 630 671 630 623 630 616 625 616 598L616 542C713 519 823 487 900 451ZM52 186L56 247 437 231C449 248 460 264 467 278L524 245C499 197 440 131 386 86L332 115C352 133 373 154 392 176L203 182C231 144 261 98 287 57L213 35C194 79 161 139 130 184Z"/>
</svg>