<svg xmlns="http://www.w3.org/2000/svg"
    viewBox="0 0 1000 1000">
  <!--
© 2014-2021 Adobe (http://www.adobe.com/).
Noto is a trademark of Google Inc.
This Font Software is licensed under the SIL Open Font License, Version 1.1. This Font Software is distributed on an "AS IS" BASIS, WITHOUT WARRANTIES OR CONDITIONS OF ANY KIND, either express or implied. See the SIL Open Font License for the specific language, permissions and limitations governing your use of this Font Software.
http://scripts.sil.org/OFL
  -->
<path d="M305 709L305 832C305 904 331 922 434 922 456 922 606 922 629 922 707 922 730 899 739 799 718 795 690 786 674 775 670 849 662 860 622 860 589 860 464 860 440 860 387 860 378 855 378 831L378 709ZM722 745C792 790 869 858 903 907L962 863C925 813 847 749 777 705ZM181 711C156 772 108 836 42 872L102 914C171 872 215 804 245 738ZM446 436L749 436 749 504 446 504ZM903 46L124 46 124 661 442 661 404 694C464 722 533 768 566 803L614 759C583 726 521 687 466 661L922 661 922 600 197 600 197 106 903 106ZM473 232L464 251 464 224 644 224 644 262 712 262 712 224 877 224 877 175 712 175 712 116 644 116 644 175 464 175 464 116 397 116 397 175 242 175 242 224 397 224 397 262 458 262 440 292 234 292 234 341 401 341C352 394 290 437 223 467 237 478 260 502 268 514 307 494 345 469 380 441L380 549 819 549 819 391 435 391C450 375 465 359 478 341L885 341 885 292 511 292C520 277 528 261 535 245Z"/>
</svg>