<svg xmlns="http://www.w3.org/2000/svg" name="gid5635" data-unicode="慢"
    viewBox="0 0 1000 1000">
  <!--
© 2014-2021 Adobe (http://www.adobe.com/).
Noto is a trademark of Google Inc.
This Font Software is licensed under the SIL Open Font License, Version 1.1. This Font Software is distributed on an "AS IS" BASIS, WITHOUT WARRANTIES OR CONDITIONS OF ANY KIND, either express or implied. See the SIL Open Font License for the specific language, permissions and limitations governing your use of this Font Software.
http://scripts.sil.org/OFL
  -->
<path d="M754 431L858 431 858 521 754 521ZM594 431L696 431 696 521 594 521ZM437 431L536 431 536 521 437 521ZM369 380L369 572 929 572 929 380ZM486 227L809 227 809 286 486 286ZM486 124L809 124 809 181 486 181ZM417 75L417 335 880 335 880 75ZM169 40L169 959 241 959 241 40ZM79 233C77 321 61 429 27 490L77 514C114 445 130 331 131 240ZM248 221C276 284 303 366 311 416L361 393C353 345 325 265 295 203ZM794 681C760 727 712 765 657 796 598 763 548 725 513 681ZM360 619L360 681 497 681 447 702C483 751 531 793 586 830 502 865 405 888 308 900 321 915 336 944 342 963 452 945 561 916 655 870 735 912 828 942 924 960 934 941 954 911 970 896 884 883 800 860 727 829 801 781 861 718 900 638L854 616 841 619Z"/>
</svg>