<svg xmlns="http://www.w3.org/2000/svg" name="gid5638" data-unicode="慥"
    viewBox="0 0 1000 1000">
  <!--
© 2014-2021 Adobe (http://www.adobe.com/).
Noto is a trademark of Google Inc.
This Font Software is licensed under the SIL Open Font License, Version 1.1. This Font Software is distributed on an "AS IS" BASIS, WITHOUT WARRANTIES OR CONDITIONS OF ANY KIND, either express or implied. See the SIL Open Font License for the specific language, permissions and limitations governing your use of this Font Software.
http://scripts.sil.org/OFL
  -->
<path d="M244 195C269 239 295 297 308 332L359 304C348 270 318 214 293 172ZM333 115C378 150 427 200 449 236L501 190C479 154 427 105 382 73ZM310 389C358 417 417 460 444 492L489 437C460 407 400 366 353 340ZM159 40L159 959 227 959 227 40ZM75 221C74 308 60 417 27 479L76 500C111 431 126 317 125 228ZM697 45L697 172 611 172C622 141 633 109 641 76L577 63C557 148 521 232 476 289 491 297 519 314 531 324 549 300 567 270 583 237L697 237 697 351 485 351 485 418 697 418 697 495 766 495 766 418 957 418 957 351 766 351 766 237 932 237 932 172 766 172 766 45ZM554 518L554 822 622 822 622 787 843 787 843 816 913 816 913 518ZM622 724L622 580 843 580 843 724ZM456 553L287 553 287 618 391 618 391 787C354 822 313 858 279 883L314 951C355 912 391 876 426 839 473 902 539 937 634 941 713 944 864 942 945 939 948 919 958 887 966 871 878 876 715 879 636 876 553 873 490 838 456 780Z"/>
</svg>