<svg xmlns="http://www.w3.org/2000/svg" name="gid5639" data-unicode="慧"
    viewBox="0 0 1000 1000">
  <!--
© 2014-2021 Adobe (http://www.adobe.com/).
Noto is a trademark of Google Inc.
This Font Software is licensed under the SIL Open Font License, Version 1.1. This Font Software is distributed on an "AS IS" BASIS, WITHOUT WARRANTIES OR CONDITIONS OF ANY KIND, either express or implied. See the SIL Open Font License for the specific language, permissions and limitations governing your use of this Font Software.
http://scripts.sil.org/OFL
  -->
<path d="M298 724L298 855C298 929 325 949 430 949 452 949 604 949 627 949 708 949 731 924 740 818 721 813 690 803 674 792 670 872 662 883 620 883 587 883 460 883 436 883 381 883 372 879 372 854L372 724ZM727 756C796 806 868 880 898 934L962 895C929 840 855 768 786 720ZM174 728C150 792 105 857 39 894L99 937C169 893 211 822 238 752ZM177 517L177 567 767 567 767 629 139 629 139 681 428 681 395 710C453 737 519 781 552 816L601 769C573 740 522 705 472 681L840 681 840 407 145 407 145 459 767 459 767 517ZM66 303L70 358 240 346 240 392 309 392 309 341 471 328 471 278 309 289 309 240 450 240 450 191 309 191 309 142 464 142 464 92 309 92 309 40 240 40 240 92 79 92 79 142 240 142 240 191 100 191 100 240 240 240 240 293ZM670 40L670 92 505 92 505 142 670 142 670 191 527 191 527 240 670 240 670 291 494 291 494 340 670 340 670 392 741 392 741 340 934 340 934 291 741 291 741 240 900 240 900 191 741 191 741 142 916 142 916 92 741 92 741 40Z"/>
</svg>