<svg xmlns="http://www.w3.org/2000/svg"
    viewBox="0 0 1000 1000">
  <!--
© 2014-2021 Adobe (http://www.adobe.com/).
Noto is a trademark of Google Inc.
This Font Software is licensed under the SIL Open Font License, Version 1.1. This Font Software is distributed on an "AS IS" BASIS, WITHOUT WARRANTIES OR CONDITIONS OF ANY KIND, either express or implied. See the SIL Open Font License for the specific language, permissions and limitations governing your use of this Font Software.
http://scripts.sil.org/OFL
  -->
<path d="M303 665L303 824C303 901 329 921 434 921 456 921 604 921 626 921 710 921 733 893 742 776 722 772 691 761 675 749 670 841 663 853 620 853 587 853 464 853 439 853 387 853 377 848 377 823L377 665ZM388 637C450 670 519 723 552 762L604 716C571 677 500 626 438 596ZM324 43C369 80 422 132 446 169L500 132C475 96 421 45 375 11ZM716 677C790 737 867 822 897 883L964 844C931 781 853 699 778 642ZM174 662C150 736 105 813 38 859L100 901C170 849 212 766 240 686ZM191 16C157 70 100 121 42 157 58 168 83 190 94 202 150 162 214 100 254 37ZM252 154C210 222 133 305 28 365 43 375 64 396 74 410 97 395 119 380 139 364L139 594 444 594 444 362 456 377 502 325C462 276 382 203 316 154ZM207 412L376 412 376 535 207 535ZM207 354L152 354C212 306 258 256 292 212 344 252 400 310 437 354ZM606 12C580 110 534 205 476 269 492 278 520 299 532 311 561 277 588 234 612 186L673 186 673 245C673 295 655 472 471 559 484 574 502 601 508 616 652 548 701 417 711 355 722 417 774 551 919 617 928 600 949 571 961 557 768 472 747 295 747 245L747 186 863 186C849 228 832 270 816 300L874 318C900 273 928 199 950 134L902 120 891 123 641 123C653 92 665 59 674 26Z"/>
</svg>