<svg xmlns="http://www.w3.org/2000/svg" name="gid5687" data-unicode="憩"
    viewBox="0 0 1000 1000">
  <!--
© 2014-2021 Adobe (http://www.adobe.com/).
Noto is a trademark of Google Inc.
This Font Software is licensed under the SIL Open Font License, Version 1.1. This Font Software is distributed on an "AS IS" BASIS, WITHOUT WARRANTIES OR CONDITIONS OF ANY KIND, either express or implied. See the SIL Open Font License for the specific language, permissions and limitations governing your use of this Font Software.
http://scripts.sil.org/OFL
  -->
<path d="M303 697L303 851C303 928 329 949 435 949 457 949 607 949 631 949 715 949 738 921 748 803 727 798 696 788 680 776 676 868 668 880 624 880 591 880 465 880 440 880 386 880 376 876 376 850L376 697ZM381 658C444 691 516 744 550 784L602 738C567 697 494 647 430 617ZM721 724C793 782 867 866 895 927L962 890C930 828 854 746 782 690ZM177 696C158 776 115 846 41 885L102 929C184 884 221 804 244 718ZM106 384L106 613 453 613 453 384 313 384 313 294 494 294 494 232 313 232 313 139C374 131 431 121 476 107L425 54C345 79 194 94 71 101 78 117 87 142 90 157 139 155 192 152 244 147L244 232 57 232 57 294 244 294 244 384ZM171 443L387 443 387 553 171 553ZM846 330L846 415 601 415 601 330ZM601 194L846 194 846 276 601 276ZM846 470L846 560 601 560 601 470ZM531 131L531 623 919 623 919 131 726 131C739 105 753 74 765 44L684 31C677 60 663 98 650 131Z"/>
</svg>