<svg xmlns="http://www.w3.org/2000/svg" name="gid5691" data-unicode="憭"
    viewBox="0 0 1000 1000">
  <!--
© 2014-2021 Adobe (http://www.adobe.com/).
Noto is a trademark of Google Inc.
This Font Software is licensed under the SIL Open Font License, Version 1.1. This Font Software is distributed on an "AS IS" BASIS, WITHOUT WARRANTIES OR CONDITIONS OF ANY KIND, either express or implied. See the SIL Open Font License for the specific language, permissions and limitations governing your use of this Font Software.
http://scripts.sil.org/OFL
  -->
<path d="M488 553L781 553 781 627 488 627ZM488 425L781 425 781 499 488 499ZM432 718C403 781 352 844 300 887 316 897 344 916 357 927 408 880 464 806 498 736ZM754 746C804 798 861 872 886 919L943 881C917 834 858 763 807 712ZM159 40L159 959 227 959 227 40ZM75 233C74 320 60 429 27 490L76 512C111 443 126 329 125 240ZM243 210C264 272 281 353 285 402L336 384C332 337 313 259 290 197ZM885 228C866 251 836 283 807 309 783 279 761 248 743 215L956 215 956 151 617 151C629 119 639 86 648 51L579 38C570 78 558 116 544 151L338 151 338 215 515 215C500 244 484 271 465 296 444 275 418 254 394 238L352 279C377 297 404 322 426 345 383 391 333 430 276 460 290 473 316 500 325 514 360 493 393 469 423 442L423 683 598 683 598 881C598 891 595 895 582 895 569 896 529 896 481 895 491 914 501 941 504 961 566 961 608 961 636 950 664 939 670 920 670 883L670 683 848 683 848 443C875 466 902 485 931 500 943 482 964 457 979 444 931 422 885 389 845 349 874 325 907 296 935 268ZM590 215L676 215C701 270 735 323 775 370L493 370C531 324 564 273 590 215Z"/>
</svg>