<svg xmlns="http://www.w3.org/2000/svg"
    viewBox="0 0 1000 1000">
  <!--
© 2014-2021 Adobe (http://www.adobe.com/).
Noto is a trademark of Google Inc.
This Font Software is licensed under the SIL Open Font License, Version 1.1. This Font Software is distributed on an "AS IS" BASIS, WITHOUT WARRANTIES OR CONDITIONS OF ANY KIND, either express or implied. See the SIL Open Font License for the specific language, permissions and limitations governing your use of this Font Software.
http://scripts.sil.org/OFL
  -->
<path d="M386 705C372 775 342 850 294 893L349 928C403 879 429 798 446 723ZM508 721C523 788 534 875 535 926L602 916C600 866 587 781 570 714ZM653 723C681 789 709 875 719 928L783 911C773 859 743 774 712 710ZM800 725C844 790 889 877 904 933L967 907C951 851 904 766 858 702ZM169 10L169 929 241 929 241 10ZM79 179C77 267 61 375 27 436L77 459C114 391 130 276 131 186ZM252 143C273 189 292 249 298 287L310 282 304 288C320 298 346 319 357 331 378 309 399 284 418 257L418 376 313 376 313 443 418 443 418 606 327 606 327 672 957 672 957 606 880 606 880 443 965 443 965 376 880 376 880 212 944 212 944 146 484 146C503 107 520 67 533 25L469 10C441 96 398 180 344 245 335 209 317 162 299 125ZM478 212L550 212 550 376 478 376ZM609 212L684 212 684 376 609 376ZM744 212L819 212 819 376 744 376ZM478 443L550 443 550 606 478 606ZM609 443L684 443 684 606 609 606ZM744 443L819 443 819 606 744 606Z"/>
</svg>