<svg xmlns="http://www.w3.org/2000/svg"
    viewBox="0 0 1000 1000">
  <!--
© 2014-2021 Adobe (http://www.adobe.com/).
Noto is a trademark of Google Inc.
This Font Software is licensed under the SIL Open Font License, Version 1.1. This Font Software is distributed on an "AS IS" BASIS, WITHOUT WARRANTIES OR CONDITIONS OF ANY KIND, either express or implied. See the SIL Open Font License for the specific language, permissions and limitations governing your use of this Font Software.
http://scripts.sil.org/OFL
  -->
<path d="M485 523L828 523 828 585 485 585ZM485 414L828 414 828 474 485 474ZM396 695C382 764 350 837 297 878L353 915C412 868 442 789 458 713ZM508 696L508 838C508 907 527 925 609 925 626 925 728 925 746 925 807 925 827 903 834 814 815 809 787 799 773 788 770 854 765 862 738 862 716 862 632 862 616 862 581 862 575 859 575 837L575 696ZM777 714C833 772 888 853 909 907L968 873C945 818 888 740 832 683ZM169 10L169 929 241 929 241 10ZM79 203C77 291 61 399 27 460L77 484C114 415 130 301 131 210ZM250 191C278 252 303 332 311 381L362 358C360 345 356 330 352 314L959 314 959 253 790 253C806 222 823 184 839 146L822 142 924 142 924 84 686 84 686 10 612 10 612 84 378 84 378 142 498 142 469 151C487 182 504 222 511 253L350 253 350 308C337 266 318 215 297 173ZM533 142L768 142C757 177 740 221 724 253L567 253 576 250C570 221 553 177 533 142ZM561 662C611 691 669 736 696 769L738 724C714 697 667 662 623 635L899 635 899 364 416 364 416 635 588 635Z"/>
</svg>