<svg xmlns="http://www.w3.org/2000/svg" name="gid5694" data-unicode="憶"
    viewBox="0 0 1000 1000">
  <!--
© 2014-2021 Adobe (http://www.adobe.com/).
Noto is a trademark of Google Inc.
This Font Software is licensed under the SIL Open Font License, Version 1.1. This Font Software is distributed on an "AS IS" BASIS, WITHOUT WARRANTIES OR CONDITIONS OF ANY KIND, either express or implied. See the SIL Open Font License for the specific language, permissions and limitations governing your use of this Font Software.
http://scripts.sil.org/OFL
  -->
<path d="M485 553L828 553 828 615 485 615ZM485 444L828 444 828 504 485 504ZM396 725C382 794 350 867 297 908L353 945C412 898 442 819 458 743ZM508 726L508 868C508 937 527 955 609 955 626 955 728 955 746 955 807 955 827 933 834 844 815 839 787 829 773 818 770 884 765 892 738 892 716 892 632 892 616 892 581 892 575 889 575 867L575 726ZM777 744C833 802 888 883 909 937L968 903C945 848 888 770 832 713ZM169 40L169 959 241 959 241 40ZM79 233C77 321 61 429 27 490L77 514C114 445 130 331 131 240ZM250 221C278 282 303 362 311 411L362 388C360 375 356 360 352 344L959 344 959 283 790 283C806 252 823 214 839 176L822 172 924 172 924 114 686 114 686 40 612 40 612 114 378 114 378 172 498 172 469 181C487 212 504 252 511 283L350 283 350 338C337 296 318 245 297 203ZM533 172L768 172C757 207 740 251 724 283L567 283 576 280C570 251 553 207 533 172ZM561 692C611 721 669 766 696 799L738 754C714 727 667 692 623 665L899 665 899 394 416 394 416 665 588 665Z"/>
</svg>