<svg xmlns="http://www.w3.org/2000/svg" name="gid5697" data-unicode="憺"
    viewBox="0 0 1000 1000">
  <!--
© 2014-2021 Adobe (http://www.adobe.com/).
Noto is a trademark of Google Inc.
This Font Software is licensed under the SIL Open Font License, Version 1.1. This Font Software is distributed on an "AS IS" BASIS, WITHOUT WARRANTIES OR CONDITIONS OF ANY KIND, either express or implied. See the SIL Open Font License for the specific language, permissions and limitations governing your use of this Font Software.
http://scripts.sil.org/OFL
  -->
<path d="M518 438L518 483 874 483 874 438ZM504 606L504 651 889 651 889 606ZM504 689L504 735 889 735 889 689ZM169 40L169 959 241 959 241 40ZM79 206C77 292 61 397 27 457L77 480C114 413 130 301 131 214ZM254 165C275 207 296 263 303 298L353 272C346 239 324 185 301 144ZM520 156L694 156C682 181 668 207 653 228L476 228C492 204 507 180 520 156ZM503 40C466 134 394 255 288 344 304 354 326 374 338 388 353 375 367 361 381 347L381 483C381 613 371 791 279 920 296 928 326 946 339 958 416 848 441 696 448 567L955 567 955 520 450 520 450 483 450 411C462 422 477 438 483 451 570 416 610 361 628 285L711 285 711 337C711 391 726 404 792 404 805 404 869 404 882 404 928 404 945 387 950 330 933 327 910 320 897 312 895 352 891 357 873 357 860 357 810 357 800 357 778 357 775 354 775 337L775 285 954 285 954 228 728 228C749 197 770 162 786 130L739 99 727 101 548 101 571 51ZM450 285L565 285C550 339 518 381 450 406ZM483 773L483 959 550 959 550 937 840 937 840 958 909 958 909 773ZM550 891L550 819 840 819 840 891Z"/>
</svg>