<svg xmlns="http://www.w3.org/2000/svg" name="gid5703" data-unicode="懃"
    viewBox="0 0 1000 1000">
  <!--
© 2014-2021 Adobe (http://www.adobe.com/).
Noto is a trademark of Google Inc.
This Font Software is licensed under the SIL Open Font License, Version 1.1. This Font Software is distributed on an "AS IS" BASIS, WITHOUT WARRANTIES OR CONDITIONS OF ANY KIND, either express or implied. See the SIL Open Font License for the specific language, permissions and limitations governing your use of this Font Software.
http://scripts.sil.org/OFL
  -->
<path d="M299 733L299 858C299 930 325 949 429 949 450 949 603 949 625 949 705 949 728 923 737 818 717 814 687 804 672 793 667 875 660 886 618 886 585 886 458 886 434 886 381 886 371 882 371 858L371 733ZM391 715C450 741 518 783 552 818L601 771C566 736 497 696 438 674ZM721 756C789 807 861 882 890 937L954 901C923 844 849 771 780 721ZM178 728C156 797 110 863 39 900L98 942C175 900 216 827 243 751ZM665 41L665 202 537 202 537 266 664 266C659 385 633 528 520 638L521 606 334 616 334 571 498 571 498 529 334 529 334 487 517 487 517 443 334 443 334 406 507 406 507 263 334 263 334 228 445 228 445 142 553 142 553 93 445 93 445 40 379 40 379 93 219 93 219 40 156 40 156 93 54 93 54 142 156 142 156 228 267 228 267 263 101 263 101 406 267 406 267 443 86 443 86 487 267 487 267 529 107 529 107 571 267 571 267 619 68 628 73 683 515 655C531 666 553 682 563 694 697 572 730 405 735 266L852 266C845 500 837 584 822 605 814 615 806 618 792 617 778 617 743 617 705 613 715 632 722 660 724 680 762 682 802 683 824 680 850 677 867 670 882 650 906 618 914 519 922 235 922 224 923 202 923 202L736 202 736 41ZM379 142L379 187 219 187 219 142ZM159 306L267 306 267 362 159 362ZM334 306L446 306 446 362 334 362Z"/>
</svg>