<svg xmlns="http://www.w3.org/2000/svg" name="gid5705" data-unicode="懇"
    viewBox="0 0 1000 1000">
  <!--
© 2014-2021 Adobe (http://www.adobe.com/).
Noto is a trademark of Google Inc.
This Font Software is licensed under the SIL Open Font License, Version 1.1. This Font Software is distributed on an "AS IS" BASIS, WITHOUT WARRANTIES OR CONDITIONS OF ANY KIND, either express or implied. See the SIL Open Font License for the specific language, permissions and limitations governing your use of this Font Software.
http://scripts.sil.org/OFL
  -->
<path d="M304 719L304 852C304 926 329 946 434 946 455 946 603 946 625 946 707 946 730 920 739 807 719 803 688 793 672 781 668 868 660 880 618 880 585 880 463 880 439 880 386 880 378 875 378 851L378 719ZM394 694C454 722 524 769 556 806L607 760C573 724 503 679 442 652ZM723 744C794 797 867 875 896 933L960 894C929 836 853 760 783 708ZM176 717C157 792 114 859 40 896L99 939C181 896 218 820 241 739ZM373 41C304 77 172 110 59 132 67 145 76 166 79 180 198 159 336 126 427 84ZM101 206C125 233 149 270 159 296L210 268C201 242 175 206 151 181ZM238 168C256 194 273 229 279 253L333 228C327 205 308 170 290 146ZM817 255L817 325 593 325 593 255ZM817 201L593 201 593 132 817 132ZM668 381C686 440 712 493 745 538L593 561 593 381ZM523 76L523 572 462 580 475 645C553 632 653 615 752 599L749 544C793 601 849 646 917 673 927 656 946 631 961 618 896 596 843 559 801 509 845 489 897 459 938 428L891 390C861 413 812 444 771 468 754 441 740 412 729 381L887 381 887 76ZM434 158C357 232 199 295 54 337 63 350 72 370 76 383 145 363 217 339 284 311 297 322 309 333 319 345 257 390 154 432 69 452 81 463 98 482 106 496 183 472 279 428 346 381 356 396 363 410 370 425 297 491 167 553 58 582 72 594 90 616 98 631 194 600 306 542 386 478 396 531 385 576 361 593 347 605 331 606 310 606 293 606 267 606 238 602 248 620 254 647 256 664 279 665 306 665 324 665 360 665 385 658 411 635 481 580 473 402 339 287 396 260 448 229 488 196Z"/>
</svg>