<svg xmlns="http://www.w3.org/2000/svg" name="gid5714" data-unicode="懐"
    viewBox="0 0 1000 1000">
  <!--
© 2014-2021 Adobe (http://www.adobe.com/).
Noto is a trademark of Google Inc.
This Font Software is licensed under the SIL Open Font License, Version 1.1. This Font Software is distributed on an "AS IS" BASIS, WITHOUT WARRANTIES OR CONDITIONS OF ANY KIND, either express or implied. See the SIL Open Font License for the specific language, permissions and limitations governing your use of this Font Software.
http://scripts.sil.org/OFL
  -->
<path d="M756 320L865 320 865 442 756 442ZM597 320L703 320 703 442 597 442ZM441 320L543 320 543 442 441 442ZM169 40L169 959 241 959 241 40ZM79 233C77 321 61 429 27 490L77 514C114 445 130 331 131 240ZM248 221C276 284 303 366 311 416L361 393C353 345 325 265 295 203ZM881 653C850 680 799 717 755 744 730 710 711 672 696 631L957 631 957 569 686 569 686 503 929 503 929 259 686 259 686 189 950 189 950 125 686 125 686 40 611 40 611 125 348 125 348 189 611 189 611 259 379 259 379 503 611 503 611 569 325 569 325 631 584 631C512 689 399 739 295 759 310 774 326 799 333 817 378 805 425 788 470 768L470 877 375 893 393 955C484 938 612 914 732 890L726 829 542 864 542 730C578 709 611 685 638 661 692 805 787 913 931 961 941 942 961 915 977 900 901 879 838 838 789 785 834 761 889 728 932 696Z"/>
</svg>