<svg xmlns="http://www.w3.org/2000/svg"
    viewBox="0 0 1000 1000">
  <!--
© 2014-2021 Adobe (http://www.adobe.com/).
Noto is a trademark of Google Inc.
This Font Software is licensed under the SIL Open Font License, Version 1.1. This Font Software is distributed on an "AS IS" BASIS, WITHOUT WARRANTIES OR CONDITIONS OF ANY KIND, either express or implied. See the SIL Open Font License for the specific language, permissions and limitations governing your use of this Font Software.
http://scripts.sil.org/OFL
  -->
<path d="M64 170L64 242 571 242C582 421 605 582 644 703 591 772 530 831 459 877 475 890 502 918 513 932 572 889 626 839 673 781 716 875 773 931 847 931 923 931 951 880 964 709 945 703 917 686 900 670 895 804 882 857 853 857 803 857 760 803 726 711 797 606 854 481 894 339L823 324C793 434 751 535 698 622 672 520 654 390 646 242L941 242 941 170 866 170 908 133C874 97 804 48 747 16L698 57C750 89 811 135 845 170L642 170C640 119 640 66 640 12L564 12C564 66 566 118 568 170ZM175 292L175 489 63 489 63 558 174 558C169 660 146 777 53 860 70 870 96 891 108 904 214 809 240 676 245 558L372 558 372 849 443 849 443 558 555 558 555 489 443 489 443 293 372 293 372 489 246 489 246 292Z"/>
</svg>