<svg xmlns="http://www.w3.org/2000/svg" name="gid5759" data-unicode="或"
    viewBox="0 0 1000 1000">
  <!--
© 2014-2021 Adobe (http://www.adobe.com/).
Noto is a trademark of Google Inc.
This Font Software is licensed under the SIL Open Font License, Version 1.1. This Font Software is distributed on an "AS IS" BASIS, WITHOUT WARRANTIES OR CONDITIONS OF ANY KIND, either express or implied. See the SIL Open Font License for the specific language, permissions and limitations governing your use of this Font Software.
http://scripts.sil.org/OFL
  -->
<path d="M692 89C753 119 827 165 863 199L909 147C872 113 797 69 736 43ZM62 814L77 891C193 866 357 830 511 796L505 725C342 759 171 794 62 814ZM195 428L399 428 399 602 195 602ZM125 362L125 667 472 667 472 362ZM68 200L68 274 561 274C573 437 596 587 632 705 565 786 484 852 391 902 408 916 437 945 449 960 528 913 599 855 661 786 706 895 766 961 843 961 920 961 948 911 962 739 941 731 913 714 896 696 890 830 878 883 850 883 800 883 755 821 719 716 793 617 853 499 897 364L822 346C790 450 746 543 692 625 667 527 649 407 640 274L936 274 936 200 635 200C633 149 632 96 632 42L552 42C552 95 554 148 557 200Z"/>
</svg>