<svg xmlns="http://www.w3.org/2000/svg" name="gid5763" data-unicode="戝"
    viewBox="0 0 1000 1000">
  <!--
© 2014-2021 Adobe (http://www.adobe.com/).
Noto is a trademark of Google Inc.
This Font Software is licensed under the SIL Open Font License, Version 1.1. This Font Software is distributed on an "AS IS" BASIS, WITHOUT WARRANTIES OR CONDITIONS OF ANY KIND, either express or implied. See the SIL Open Font License for the specific language, permissions and limitations governing your use of this Font Software.
http://scripts.sil.org/OFL
  -->
<path d="M155 726C129 797 85 869 37 919 54 929 83 949 97 960 145 906 194 824 224 744ZM289 754C327 808 372 881 392 928L452 895C432 849 387 779 347 725ZM155 329L358 329 358 454 155 454ZM155 517L358 517 358 643 155 643ZM155 142L358 142 358 267 155 267ZM86 76L86 710 430 710 430 76ZM736 88C788 127 847 186 873 227L925 185C898 143 838 88 784 49ZM848 401C820 479 778 557 727 629 709 555 693 467 682 369L956 340 948 272 674 300C666 220 660 135 657 47L585 47C589 138 595 225 603 308L453 323 461 393 610 377C624 501 644 612 669 702 604 778 529 841 450 881 471 895 494 917 508 935 574 897 638 843 695 780 738 892 796 958 873 962 918 964 957 915 977 752 964 746 933 728 919 714 910 820 895 876 871 874 824 870 784 811 751 714 817 628 870 532 906 435Z"/>
</svg>