<svg xmlns="http://www.w3.org/2000/svg"
    viewBox="0 0 1000 1000">
  <!--
© 2014-2021 Adobe (http://www.adobe.com/).
Noto is a trademark of Google Inc.
This Font Software is licensed under the SIL Open Font License, Version 1.1. This Font Software is distributed on an "AS IS" BASIS, WITHOUT WARRANTIES OR CONDITIONS OF ANY KIND, either express or implied. See the SIL Open Font License for the specific language, permissions and limitations governing your use of this Font Software.
http://scripts.sil.org/OFL
  -->
<path d="M741 62C793 106 851 171 875 215L931 175C905 130 846 70 794 27ZM172 101L399 101 399 200 172 200ZM103 43L103 259 471 259 471 43ZM607 17C610 110 615 200 622 284L514 297 517 319 50 319 50 386 109 386 109 753 34 758 43 829 394 797 394 930 464 930 464 386 520 386 520 342 523 364 628 351C641 482 659 597 684 690 627 764 559 827 482 876 498 889 526 917 536 931 600 887 658 833 710 771 748 870 798 929 865 932 907 933 944 887 966 729 952 723 922 705 908 690 900 790 886 845 864 844 825 841 791 788 763 701 823 615 872 516 909 407L838 390C812 468 779 542 739 608 723 533 709 443 699 343L953 312 943 246 693 276C686 194 681 107 679 17ZM394 386L394 465 179 465 179 386ZM394 524L394 601 179 601 179 524ZM394 660L394 730 179 748 179 660Z"/>
</svg>