<svg xmlns="http://www.w3.org/2000/svg" name="gid5770" data-unicode="戦"
    viewBox="0 0 1000 1000">
  <!--
© 2014-2021 Adobe (http://www.adobe.com/).
Noto is a trademark of Google Inc.
This Font Software is licensed under the SIL Open Font License, Version 1.1. This Font Software is distributed on an "AS IS" BASIS, WITHOUT WARRANTIES OR CONDITIONS OF ANY KIND, either express or implied. See the SIL Open Font License for the specific language, permissions and limitations governing your use of this Font Software.
http://scripts.sil.org/OFL
  -->
<path d="M769 87C815 138 865 211 885 259L945 222C925 175 873 106 826 56ZM42 84C73 136 103 207 112 252L177 227C168 182 137 114 104 63ZM227 57C250 112 267 186 270 230L339 213C335 169 316 97 293 43ZM489 46C469 104 431 187 400 238L459 260C491 212 533 136 566 69ZM636 45C639 144 644 238 651 326L539 340 548 410 657 396C669 518 685 626 707 714 640 795 559 862 471 903 491 916 513 939 526 957 600 918 669 860 730 792 766 895 815 956 882 959 922 961 959 916 980 760 967 754 938 735 924 720 916 818 902 872 881 872 843 869 811 814 785 724 846 640 896 544 929 447L870 414C845 491 809 567 764 637 749 565 737 481 727 388L965 358 956 289 721 318C714 232 709 140 707 45ZM139 479L269 479 269 571 139 571ZM335 479L465 479 465 571 335 571ZM139 332L269 332 269 423 139 423ZM335 332L465 332 465 423 335 423ZM39 717L39 784 266 784 266 960 338 960 338 784 562 784 562 717 338 717 338 630 531 630 531 273 75 273 75 630 266 630 266 717Z"/>
</svg>