<svg xmlns="http://www.w3.org/2000/svg"
    viewBox="0 0 1000 1000">
  <!--
© 2014-2021 Adobe (http://www.adobe.com/).
Noto is a trademark of Google Inc.
This Font Software is licensed under the SIL Open Font License, Version 1.1. This Font Software is distributed on an "AS IS" BASIS, WITHOUT WARRANTIES OR CONDITIONS OF ANY KIND, either express or implied. See the SIL Open Font License for the specific language, permissions and limitations governing your use of this Font Software.
http://scripts.sil.org/OFL
  -->
<path d="M129 93L220 93 220 189 129 189ZM71 41L71 241 279 241 279 41ZM384 93L479 93 479 189 384 189ZM326 41L326 241 537 241 537 41ZM769 59C815 110 865 183 885 230L945 194C924 147 873 78 826 27ZM870 384C845 462 809 539 763 608 749 537 737 452 728 359L966 329 957 260 721 289C715 203 710 112 708 17L637 17C640 115 645 210 652 297L540 311 549 381 658 367C669 490 684 598 706 686 642 763 565 828 481 868 500 881 523 904 536 922 606 884 672 829 729 764 765 868 814 930 880 933 920 934 958 889 978 731 966 724 935 706 922 691 914 790 900 845 880 844 843 842 811 787 784 696 846 611 896 515 929 416ZM144 493L268 493 268 577 144 577ZM334 493L462 493 462 577 334 577ZM144 353L268 353 268 437 144 437ZM334 353L462 353 462 437 334 437ZM38 707L38 774 265 774 265 931 338 931 338 774 561 774 561 707 338 707 338 636 529 636 529 295 80 295 80 636 265 636 265 707Z"/>
</svg>