<svg xmlns="http://www.w3.org/2000/svg"
    viewBox="0 0 1000 1000">
  <!--
© 2014-2021 Adobe (http://www.adobe.com/).
Noto is a trademark of Google Inc.
This Font Software is licensed under the SIL Open Font License, Version 1.1. This Font Software is distributed on an "AS IS" BASIS, WITHOUT WARRANTIES OR CONDITIONS OF ANY KIND, either express or implied. See the SIL Open Font License for the specific language, permissions and limitations governing your use of this Font Software.
http://scripts.sil.org/OFL
  -->
<path d="M172 474L172 524 593 524 593 474ZM247 737C262 768 273 810 276 837L334 824C330 798 316 757 300 726ZM267 608L491 608 491 678 267 678ZM783 57C828 109 875 179 894 226L952 192C932 146 884 77 838 28ZM664 15C667 113 671 207 677 295L578 308C589 272 602 226 611 185L566 175 555 177 353 177 353 125 582 125 582 71 353 71 353 10 283 10 283 177 89 177 89 457C89 582 84 754 28 876 42 883 70 904 81 916 143 786 153 591 153 457L153 231 280 231 280 300 176 310 182 355 280 345 280 370C280 425 297 437 367 437 381 437 472 437 487 437 533 437 550 423 555 369 540 365 519 359 507 351 505 388 501 393 479 393 461 393 386 393 372 393 342 393 337 390 337 370L337 340 504 323 498 278 337 294 337 231 537 231C530 262 522 293 515 316L571 329 577 375 682 362C692 495 708 612 730 704 689 758 643 804 593 841L592 810 469 825C481 798 494 765 506 734L444 721C436 752 421 799 409 829L418 831 157 860 166 919 546 871C565 884 587 905 600 923 655 888 707 840 754 783 786 874 829 927 886 929 924 930 961 887 981 732 967 725 939 707 927 692 919 788 906 843 887 843 855 841 828 794 806 715 868 624 917 520 949 415L892 384C868 467 831 550 785 625 770 549 758 456 750 353L958 326 949 259 745 286C739 201 735 109 734 15ZM208 566L208 721 553 721 553 566Z"/>
</svg>