<svg xmlns="http://www.w3.org/2000/svg"
    viewBox="0 0 1000 1000">
  <!--
© 2014-2021 Adobe (http://www.adobe.com/).
Noto is a trademark of Google Inc.
This Font Software is licensed under the SIL Open Font License, Version 1.1. This Font Software is distributed on an "AS IS" BASIS, WITHOUT WARRANTIES OR CONDITIONS OF ANY KIND, either express or implied. See the SIL Open Font License for the specific language, permissions and limitations governing your use of this Font Software.
http://scripts.sil.org/OFL
  -->
<path d="M160 118C131 153 85 188 41 216 54 224 75 244 84 254 127 224 179 177 213 136ZM409 117C379 151 333 185 289 212 302 221 323 241 332 251 376 222 428 175 462 134ZM782 56C829 108 878 180 898 227L956 194C935 147 885 77 837 27ZM190 641L321 641 321 707 190 707ZM190 591L190 527 321 527 321 591ZM664 15C667 114 671 208 677 296L578 309 588 373 682 361C692 484 706 594 725 683 679 743 626 795 569 835L569 824 388 824 388 757 542 757 542 707 388 707 388 641 543 641 543 591 388 591 388 527 563 527 563 472 386 472 428 395 359 378C350 405 334 442 320 472L209 472C224 446 237 419 249 393L186 373C149 460 90 547 28 606 42 619 65 649 73 662 89 645 106 626 122 605L122 931 190 931 190 881 533 881C547 893 561 908 570 920 634 882 694 828 747 763 780 866 825 927 886 929 924 930 961 887 981 732 967 725 939 707 927 692 919 788 906 843 887 843 853 841 823 785 800 693 859 607 906 510 937 412L881 381C857 457 823 533 780 602 768 531 757 446 750 352L962 324 953 260 745 287C739 202 735 110 734 15ZM190 757L321 757 321 824 190 824ZM178 242C146 286 97 331 48 362 61 372 82 392 90 402 136 368 188 317 225 269L225 380 288 380 288 46 59 46 59 103 225 103 225 258ZM447 224C414 266 364 309 314 340 327 349 348 370 357 379 404 346 461 293 498 245L498 380 561 380 561 46 324 46 324 103 498 103 498 241Z"/>
</svg>