<svg xmlns="http://www.w3.org/2000/svg" name="gid5818" data-unicode="扨"
    viewBox="0 0 1000 1000">
  <!--
© 2014-2021 Adobe (http://www.adobe.com/).
Noto is a trademark of Google Inc.
This Font Software is licensed under the SIL Open Font License, Version 1.1. This Font Software is distributed on an "AS IS" BASIS, WITHOUT WARRANTIES OR CONDITIONS OF ANY KIND, either express or implied. See the SIL Open Font License for the specific language, permissions and limitations governing your use of this Font Software.
http://scripts.sil.org/OFL
  -->
<path d="M840 192C831 422 821 580 809 686 732 640 664 581 606 514 625 419 636 312 643 192ZM461 278L397 299C432 382 476 460 529 529 492 696 424 822 298 909 316 920 349 947 360 960 476 871 545 752 587 598 648 665 719 722 798 767 788 823 777 854 764 868 753 884 742 887 724 887 702 887 656 887 604 882 617 903 624 937 625 958 675 961 724 962 754 958 787 955 809 946 831 915 846 896 858 862 869 804L923 826C934 806 956 778 973 762 941 752 910 739 880 725 894 609 904 432 915 163 916 152 916 122 916 122L383 122 383 192 568 192C564 280 557 361 546 435 512 386 484 333 461 278ZM181 40L181 241 42 241 42 312 181 312 181 530 28 572 49 645 181 604 181 873C181 888 175 892 162 892 149 893 108 893 62 892 72 912 82 942 85 960 151 960 192 958 218 947 244 935 253 915 253 873L253 582 376 543 366 476 253 509 253 312 365 312 365 241 253 241 253 40Z"/>
</svg>