<svg xmlns="http://www.w3.org/2000/svg" name="gid5822" data-unicode="扱"
    viewBox="0 0 1000 1000">
  <!--
© 2014-2021 Adobe (http://www.adobe.com/).
Noto is a trademark of Google Inc.
This Font Software is licensed under the SIL Open Font License, Version 1.1. This Font Software is distributed on an "AS IS" BASIS, WITHOUT WARRANTIES OR CONDITIONS OF ANY KIND, either express or implied. See the SIL Open Font License for the specific language, permissions and limitations governing your use of this Font Software.
http://scripts.sil.org/OFL
  -->
<path d="M715 164C702 249 681 366 662 454L731 462 742 411 864 411C833 532 780 633 713 713 621 599 562 449 526 278L529 164ZM383 93L383 164 457 164C452 491 429 747 294 909 312 920 347 945 359 957 454 830 495 668 514 463 551 579 599 681 663 765 599 825 526 869 449 897 464 911 483 939 493 957 572 924 645 880 710 820 767 880 835 928 917 961 929 941 951 911 969 895 888 866 820 822 762 766 850 666 916 532 950 357L902 340 889 343 755 343C771 257 787 167 797 97L746 90 733 93ZM187 40L187 242 44 242 44 313 187 313 187 527 28 570 50 643 187 602 187 872C187 886 181 890 168 891 155 891 113 891 68 890 78 910 88 941 91 959 158 960 198 957 225 946 250 934 260 914 260 871L260 580 387 541 378 471 260 506 260 313 376 313 376 242 260 242 260 40Z"/>
</svg>