<svg xmlns="http://www.w3.org/2000/svg"
    viewBox="0 0 1000 1000">
  <!--
© 2014-2021 Adobe (http://www.adobe.com/).
Noto is a trademark of Google Inc.
This Font Software is licensed under the SIL Open Font License, Version 1.1. This Font Software is distributed on an "AS IS" BASIS, WITHOUT WARRANTIES OR CONDITIONS OF ANY KIND, either express or implied. See the SIL Open Font License for the specific language, permissions and limitations governing your use of this Font Software.
http://scripts.sil.org/OFL
  -->
<path d="M478 50L478 150C478 220 461 305 362 368 376 378 403 407 412 422 523 349 549 240 549 152L549 120 737 120 737 290C737 361 754 380 818 380 831 380 878 380 892 380 948 380 966 349 972 226 953 221 923 210 908 198 906 301 903 316 884 316 874 316 837 316 829 316 812 316 808 312 808 290L808 50ZM801 511C767 588 717 653 656 706 597 652 551 586 521 511ZM418 443L418 511 506 511 451 528C486 615 535 690 596 751 517 805 424 842 328 864 342 880 360 911 368 931 471 904 569 862 653 802 728 861 819 904 925 930 936 910 958 879 975 863 874 841 787 804 714 753 797 679 861 583 899 460L851 440 837 443ZM191 10L191 208 45 208 45 278 191 278 191 501C131 519 75 536 32 547L57 624 191 578 191 842C191 856 185 860 172 861 159 861 117 861 72 860 82 880 92 911 95 929 162 930 203 927 229 916 255 904 265 884 265 841L265 552 377 513 367 448 265 479 265 278 377 278 377 208 265 208 265 10Z"/>
</svg>