<svg xmlns="http://www.w3.org/2000/svg"
    viewBox="0 0 1000 1000">
  <!--
© 2014-2021 Adobe (http://www.adobe.com/).
Noto is a trademark of Google Inc.
This Font Software is licensed under the SIL Open Font License, Version 1.1. This Font Software is distributed on an "AS IS" BASIS, WITHOUT WARRANTIES OR CONDITIONS OF ANY KIND, either express or implied. See the SIL Open Font License for the specific language, permissions and limitations governing your use of this Font Software.
http://scripts.sil.org/OFL
  -->
<path d="M642 200L642 268 718 268C710 468 689 634 621 738 636 746 659 767 669 781 746 664 771 484 779 268L857 268C851 563 843 666 829 689 823 701 816 703 806 703 793 703 771 703 745 700 755 716 761 743 761 760 787 761 814 761 832 759 854 756 870 750 883 730 906 696 912 584 919 231 919 222 919 200 919 200L781 200 784 11 722 11 720 200ZM401 16L400 260 318 260 318 329 399 329C393 586 367 771 256 886 272 895 296 917 306 931 427 805 458 604 465 329L542 329 542 803C542 892 569 913 662 913 682 913 827 913 850 913 931 913 951 878 960 762 940 758 914 748 898 736 894 832 886 851 846 851 814 851 690 851 666 851 616 851 607 843 607 803L607 260 467 260 468 16ZM144 10L144 212 49 212 49 282 144 282 144 489 35 523 54 596 144 565 144 849C144 861 140 864 130 864 121 864 92 865 61 864 70 882 79 911 81 927 130 927 161 926 183 915 203 904 211 885 211 849L211 542 316 505 305 437 211 467 211 282 293 282 293 212 211 212 211 10Z"/>
</svg>