<svg xmlns="http://www.w3.org/2000/svg"
    viewBox="0 0 1000 1000">
  <!--
© 2014-2021 Adobe (http://www.adobe.com/).
Noto is a trademark of Google Inc.
This Font Software is licensed under the SIL Open Font License, Version 1.1. This Font Software is distributed on an "AS IS" BASIS, WITHOUT WARRANTIES OR CONDITIONS OF ANY KIND, either express or implied. See the SIL Open Font License for the specific language, permissions and limitations governing your use of this Font Software.
http://scripts.sil.org/OFL
  -->
<path d="M477 360L629 360 629 514 477 514ZM477 291L477 141 629 141 629 291ZM855 360L855 514 700 514 700 360ZM855 291L700 291 700 141 855 141ZM404 71L404 639 477 639 477 584 629 584 629 929 700 929 700 584 855 584 855 636 930 636 930 71ZM174 10L174 212 51 212 51 282 174 282 174 503 38 539 60 612 174 579 174 838C174 852 170 856 157 856 145 856 106 857 63 856 72 875 82 905 85 923 148 923 187 922 212 910 237 899 247 879 247 838L247 557 363 521 353 453 247 483 247 282 357 282 357 212 247 212 247 10Z"/>
</svg>