<svg xmlns="http://www.w3.org/2000/svg" name="gid5880" data-unicode="拍"
    viewBox="0 0 1000 1000">
  <!--
© 2014-2021 Adobe (http://www.adobe.com/).
Noto is a trademark of Google Inc.
This Font Software is licensed under the SIL Open Font License, Version 1.1. This Font Software is distributed on an "AS IS" BASIS, WITHOUT WARRANTIES OR CONDITIONS OF ANY KIND, either express or implied. See the SIL Open Font License for the specific language, permissions and limitations governing your use of this Font Software.
http://scripts.sil.org/OFL
  -->
<path d="M178 40L178 242 47 242 47 315 178 315 178 531C124 546 74 559 32 569L52 646 178 609 178 869C178 884 172 888 159 889 146 889 104 889 59 888 68 909 79 940 81 959 150 960 191 958 217 945 244 933 254 913 254 870L254 586 379 548 370 477 254 510 254 315 370 315 370 242 254 242 254 40ZM497 594L833 594 833 831 497 831ZM497 523L497 291 833 291 833 523ZM634 41C626 93 609 165 591 220L422 220 422 957 497 957 497 903 833 903 833 951 910 951 910 220 666 220C684 170 704 108 721 53Z"/>
</svg>