<svg xmlns="http://www.w3.org/2000/svg" name="gid5883" data-unicode="拐"
    viewBox="0 0 1000 1000">
  <!--
© 2014-2021 Adobe (http://www.adobe.com/).
Noto is a trademark of Google Inc.
This Font Software is licensed under the SIL Open Font License, Version 1.1. This Font Software is distributed on an "AS IS" BASIS, WITHOUT WARRANTIES OR CONDITIONS OF ANY KIND, either express or implied. See the SIL Open Font License for the specific language, permissions and limitations governing your use of this Font Software.
http://scripts.sil.org/OFL
  -->
<path d="M520 150L836 150 836 345 520 345ZM451 83L451 413 909 413 909 83ZM407 509L407 579 577 579C561 737 517 844 336 904 352 917 373 944 381 962 582 892 636 765 654 579L854 579C842 781 828 859 808 880 799 890 789 892 772 892 754 892 708 891 659 887 671 906 678 936 680 957 729 960 778 960 804 958 833 955 853 949 871 928 900 894 915 798 930 542 930 532 931 509 931 509ZM181 40L181 241 42 241 42 312 181 312 181 530 28 572 49 645 181 604 181 873C181 888 175 892 162 892 149 893 108 893 62 892 72 912 82 942 85 960 151 960 192 958 218 947 244 935 253 915 253 873L253 582 376 543 366 476 253 509 253 312 365 312 365 241 253 241 253 40Z"/>
</svg>