<svg xmlns="http://www.w3.org/2000/svg" name="gid5888" data-unicode="拕"
    viewBox="0 0 1000 1000">
  <!--
© 2014-2021 Adobe (http://www.adobe.com/).
Noto is a trademark of Google Inc.
This Font Software is licensed under the SIL Open Font License, Version 1.1. This Font Software is distributed on an "AS IS" BASIS, WITHOUT WARRANTIES OR CONDITIONS OF ANY KIND, either express or implied. See the SIL Open Font License for the specific language, permissions and limitations governing your use of this Font Software.
http://scripts.sil.org/OFL
  -->
<path d="M397 193L397 391 466 391 466 260 875 260 875 391 946 391 946 193 702 193 702 43 627 43 627 193ZM855 433C779 479 663 534 564 573L564 346 490 346 490 832C490 928 519 953 625 953 647 953 804 953 828 953 927 953 949 908 960 756 939 751 908 738 891 725 884 856 876 883 824 883 790 883 656 883 630 883 574 883 564 874 564 832L564 640C672 602 809 543 909 487ZM189 40L189 242 46 242 46 312 189 312 189 528C130 544 75 558 31 569L53 642 189 603 189 873C189 887 184 892 170 892 157 893 113 893 67 892 76 912 86 942 89 960 158 961 200 959 226 947 252 935 262 915 262 872L262 581 394 541 385 473 262 508 262 312 379 312 379 242 262 242 262 40Z"/>
</svg>