<svg xmlns="http://www.w3.org/2000/svg" name="gid5889" data-unicode="拖"
    viewBox="0 0 1000 1000">
  <!--
© 2014-2021 Adobe (http://www.adobe.com/).
Noto is a trademark of Google Inc.
This Font Software is licensed under the SIL Open Font License, Version 1.1. This Font Software is distributed on an "AS IS" BASIS, WITHOUT WARRANTIES OR CONDITIONS OF ANY KIND, either express or implied. See the SIL Open Font License for the specific language, permissions and limitations governing your use of this Font Software.
http://scripts.sil.org/OFL
  -->
<path d="M166 41L166 242 38 242 38 312 166 312 166 535 29 575 48 648 166 610 166 866C166 880 161 884 148 884 136 885 97 885 54 884 64 905 74 937 76 956 140 957 179 954 204 941 229 929 238 908 238 866L238 586 347 550 337 481 238 513 238 312 341 312 341 242 238 242 238 41ZM496 39C461 166 399 288 321 367 338 377 369 400 382 411 422 367 459 311 491 248L952 248 952 180 523 180C540 140 555 98 568 56ZM450 360L450 530 347 570 370 633 450 602 450 835C450 928 481 952 592 952 617 952 806 952 833 952 926 952 949 917 960 800 939 796 911 786 894 774 889 868 880 886 829 886 789 886 626 886 595 886 530 886 518 877 518 835L518 575 639 528 639 791 706 791 706 502 827 455C827 574 826 660 823 675 820 691 813 694 801 694 791 694 764 694 744 693 753 709 759 738 761 759 785 759 819 758 842 752 869 745 886 727 889 691 892 662 893 536 894 398L897 386 849 367 836 377 831 382 706 430 706 279 639 279 639 456 518 503 518 360Z"/>
</svg>