<svg xmlns="http://www.w3.org/2000/svg"
    viewBox="0 0 1000 1000">
  <!--
© 2014-2021 Adobe (http://www.adobe.com/).
Noto is a trademark of Google Inc.
This Font Software is licensed under the SIL Open Font License, Version 1.1. This Font Software is distributed on an "AS IS" BASIS, WITHOUT WARRANTIES OR CONDITIONS OF ANY KIND, either express or implied. See the SIL Open Font License for the specific language, permissions and limitations governing your use of this Font Software.
http://scripts.sil.org/OFL
  -->
<path d="M797 54C839 98 885 159 905 199L960 162C939 123 891 65 849 22ZM691 15L696 218 376 218 376 290 698 290C714 668 755 927 872 929 908 930 947 888 968 719 954 712 921 693 907 678 901 774 890 831 873 831 820 829 786 600 773 290L948 290 948 218 770 218C768 153 767 85 767 15ZM350 789L368 861C462 842 589 819 710 795L705 726 568 751 568 506 673 506 673 436 387 436 387 506 498 506 498 764ZM170 10L170 212 46 212 46 282 170 282 170 504C119 518 72 530 34 539L56 612 170 578 170 835C170 849 165 853 152 854 138 854 95 855 48 853 58 872 68 903 71 922 139 922 182 921 207 909 234 897 244 877 244 835L244 556 357 522 348 453 244 483 244 282 351 282 351 212 244 212 244 10Z"/>
</svg>