<svg xmlns="http://www.w3.org/2000/svg" name="gid5902" data-unicode="拮"
    viewBox="0 0 1000 1000">
  <!--
© 2014-2021 Adobe (http://www.adobe.com/).
Noto is a trademark of Google Inc.
This Font Software is licensed under the SIL Open Font License, Version 1.1. This Font Software is distributed on an "AS IS" BASIS, WITHOUT WARRANTIES OR CONDITIONS OF ANY KIND, either express or implied. See the SIL Open Font License for the specific language, permissions and limitations governing your use of this Font Software.
http://scripts.sil.org/OFL
  -->
<path d="M627 40L627 188 387 188 387 259 627 259 627 410 419 410 419 481 913 481 913 410 704 410 704 259 943 259 943 188 704 188 704 40ZM443 587L443 961 517 961 517 915 819 915 819 957 895 957 895 587ZM517 847L517 655 819 655 819 847ZM176 40L176 242 50 242 50 312 176 312 176 533C124 548 77 560 38 569L60 642 176 608 176 866C176 879 171 883 159 883 147 884 107 884 66 883 75 903 85 934 89 953 151 954 190 951 215 939 241 928 250 907 250 866L250 586 365 552 355 483 250 513 250 312 348 312 348 242 250 242 250 40Z"/>
</svg>