<svg xmlns="http://www.w3.org/2000/svg" name="gid5931" data-unicode="挙"
    viewBox="0 0 1000 1000">
  <!--
© 2014-2021 Adobe (http://www.adobe.com/).
Noto is a trademark of Google Inc.
This Font Software is licensed under the SIL Open Font License, Version 1.1. This Font Software is distributed on an "AS IS" BASIS, WITHOUT WARRANTIES OR CONDITIONS OF ANY KIND, either express or implied. See the SIL Open Font License for the specific language, permissions and limitations governing your use of this Font Software.
http://scripts.sil.org/OFL
  -->
<path d="M394 68C430 117 468 183 483 225L289 225 329 204C309 162 262 100 220 56L157 88C194 129 233 184 255 225L56 225 56 294 299 294C238 390 135 475 29 517 45 531 67 558 79 576 151 542 222 490 280 427 285 439 289 452 290 462 344 459 402 455 460 448L460 537 201 537 201 597 460 597 460 691 81 691 81 755 460 755 460 873C460 890 454 895 435 895 416 896 347 897 274 894 285 913 298 941 302 960 394 960 452 960 487 949 522 939 534 919 534 874L534 755 916 755 916 691 534 691 534 597 794 597 794 537 534 537 534 439C593 431 647 421 691 408L641 356C564 380 422 397 299 406 329 371 356 333 377 294L627 294C693 407 806 513 920 567 931 548 954 519 971 505 870 465 767 384 705 294L946 294 946 225 728 225C765 181 806 126 840 76L762 49C734 102 685 175 644 225L488 225 551 196C535 154 494 89 457 42Z"/>
</svg>