<svg xmlns="http://www.w3.org/2000/svg" name="gid5947" data-unicode="挼"
    viewBox="0 0 1000 1000">
  <!--
© 2014-2021 Adobe (http://www.adobe.com/).
Noto is a trademark of Google Inc.
This Font Software is licensed under the SIL Open Font License, Version 1.1. This Font Software is distributed on an "AS IS" BASIS, WITHOUT WARRANTIES OR CONDITIONS OF ANY KIND, either express or implied. See the SIL Open Font License for the specific language, permissions and limitations governing your use of this Font Software.
http://scripts.sil.org/OFL
  -->
<path d="M594 201C617 259 638 338 643 388L713 371C706 321 684 245 660 186ZM779 175C827 245 879 341 900 403L966 372C943 310 891 218 841 148ZM441 92C421 200 387 309 338 381 357 389 392 406 406 416 445 353 478 263 501 168 635 159 793 141 902 116L848 56C766 76 630 93 507 104ZM591 382C576 421 557 465 538 509L363 509 363 576 507 576C476 644 444 709 417 758L486 784 503 751C544 767 587 785 629 805 559 850 465 878 339 894 353 911 369 939 375 961 520 938 627 901 705 842 783 882 854 926 903 963L952 903C904 868 836 828 761 790 810 734 843 664 863 576L960 576 960 509 618 509 667 398ZM588 576L784 576C765 650 735 709 690 755 638 731 584 709 533 690ZM180 41L180 242 44 242 44 312 180 312 180 530 27 572 45 645 180 604 180 869C180 883 175 888 162 888 149 888 108 888 62 887 72 908 82 940 85 959 151 960 191 957 217 945 243 933 252 911 252 868L252 581 358 548 349 481 252 509 252 312 349 312 349 242 252 242 252 41Z"/>
</svg>