<svg xmlns="http://www.w3.org/2000/svg" name="gid5950" data-unicode="挿"
    viewBox="0 0 1000 1000">
  <!--
© 2014-2021 Adobe (http://www.adobe.com/).
Noto is a trademark of Google Inc.
This Font Software is licensed under the SIL Open Font License, Version 1.1. This Font Software is distributed on an "AS IS" BASIS, WITHOUT WARRANTIES OR CONDITIONS OF ANY KIND, either express or implied. See the SIL Open Font License for the specific language, permissions and limitations governing your use of this Font Software.
http://scripts.sil.org/OFL
  -->
<path d="M393 382L393 807 462 807 462 765 618 765 618 960 689 960 689 765 849 765 849 800 921 800 921 382 689 382 689 303 954 303 954 237 689 237 689 146C772 138 849 127 912 115L867 57C750 82 546 99 375 108 382 124 390 149 393 166 465 164 542 159 618 153L618 237 362 237 362 303 618 303 618 382ZM462 602L618 602 618 701 462 701ZM462 540L462 445 618 445 618 540ZM849 602L849 701 689 701 689 602ZM849 540L689 540 689 445 849 445ZM180 41L180 242 44 242 44 312 180 312 180 530 27 572 45 645 180 604 180 869C180 883 175 888 162 888 149 888 108 888 62 887 72 908 82 940 85 959 151 960 191 957 217 945 243 933 252 911 252 868L252 581 358 548 349 481 252 509 252 312 349 312 349 242 252 242 252 41Z"/>
</svg>