<svg xmlns="http://www.w3.org/2000/svg"
    viewBox="0 0 1000 1000">
  <!--
© 2014-2021 Adobe (http://www.adobe.com/).
Noto is a trademark of Google Inc.
This Font Software is licensed under the SIL Open Font License, Version 1.1. This Font Software is distributed on an "AS IS" BASIS, WITHOUT WARRANTIES OR CONDITIONS OF ANY KIND, either express or implied. See the SIL Open Font License for the specific language, permissions and limitations governing your use of this Font Software.
http://scripts.sil.org/OFL
  -->
<path d="M480 33C454 137 409 240 350 307 368 315 399 333 412 343 438 311 462 271 484 227L632 227 632 370 369 370 369 439 632 439 632 530 706 530 706 439 958 439 958 370 706 370 706 227 927 227 927 160 706 160 706 9 632 9 632 160 513 160C527 124 539 86 549 48ZM435 548L435 931 507 931 507 885 839 885 839 928 913 928 913 548ZM507 817L507 616 839 616 839 817ZM181 10L181 211 42 211 42 282 181 282 181 500 28 542 49 615 181 574 181 843C181 858 175 862 162 862 149 863 108 863 62 862 72 882 82 912 85 930 151 930 192 928 218 917 244 905 253 885 253 843L253 552 376 513 366 446 253 479 253 282 365 282 365 211 253 211 253 10Z"/>
</svg>