<svg xmlns="http://www.w3.org/2000/svg"
    viewBox="0 0 1000 1000">
  <!--
© 2014-2021 Adobe (http://www.adobe.com/).
Noto is a trademark of Google Inc.
This Font Software is licensed under the SIL Open Font License, Version 1.1. This Font Software is distributed on an "AS IS" BASIS, WITHOUT WARRANTIES OR CONDITIONS OF ANY KIND, either express or implied. See the SIL Open Font License for the specific language, permissions and limitations governing your use of this Font Software.
http://scripts.sil.org/OFL
  -->
<path d="M484 612L484 931 550 931 550 890 858 890 858 927 927 927 927 612 734 612 734 488 958 488 958 423 734 423 734 313 923 313 923 54 395 54 395 356C395 515 386 733 282 887 299 895 330 917 344 929 427 807 455 637 464 488L663 488 663 612ZM468 119L851 119 851 247 468 247ZM468 313L663 313 663 423 467 423 468 356ZM550 828L550 676 858 676 858 828ZM167 11L167 212 42 212 42 282 167 282 167 501C115 517 67 531 29 541L49 615 167 577 167 836C167 850 162 854 150 854 138 855 99 855 56 854 65 874 75 905 77 923 140 924 179 921 203 909 228 898 237 877 237 836L237 554 352 516 341 447 237 480 237 282 350 282 350 212 237 212 237 11Z"/>
</svg>