<svg xmlns="http://www.w3.org/2000/svg" name="gid5996" data-unicode="掃"
    viewBox="0 0 1000 1000">
  <!--
© 2014-2021 Adobe (http://www.adobe.com/).
Noto is a trademark of Google Inc.
This Font Software is licensed under the SIL Open Font License, Version 1.1. This Font Software is distributed on an "AS IS" BASIS, WITHOUT WARRANTIES OR CONDITIONS OF ANY KIND, either express or implied. See the SIL Open Font License for the specific language, permissions and limitations governing your use of this Font Software.
http://scripts.sil.org/OFL
  -->
<path d="M426 197L426 251 807 251 807 322 401 322 401 381 878 381 878 73 410 73 410 131 807 131 807 197ZM876 591L677 591 677 493 876 493ZM415 591L415 886 483 886 483 651 609 651 609 961 677 961 677 651 817 651 817 817C817 826 814 829 803 830 792 830 761 830 721 829 730 847 738 872 741 890 794 890 829 891 854 879 877 869 882 850 882 818L882 614 945 614 945 431 348 431 348 616 414 616 414 493 609 493 609 591ZM167 41L167 242 42 242 42 312 167 312 167 517 28 559 47 631 167 592 167 873C167 887 162 891 150 891 138 892 99 892 56 890 65 911 75 942 77 960 141 961 179 958 203 946 228 935 237 914 237 873L237 570 344 534 334 465 237 496 237 312 349 312 349 242 237 242 237 41Z"/>
</svg>