<svg xmlns="http://www.w3.org/2000/svg"
    viewBox="0 0 1000 1000">
  <!--
© 2014-2021 Adobe (http://www.adobe.com/).
Noto is a trademark of Google Inc.
This Font Software is licensed under the SIL Open Font License, Version 1.1. This Font Software is distributed on an "AS IS" BASIS, WITHOUT WARRANTIES OR CONDITIONS OF ANY KIND, either express or implied. See the SIL Open Font License for the specific language, permissions and limitations governing your use of this Font Software.
http://scripts.sil.org/OFL
  -->
<path d="M785 455C641 481 363 494 139 496 145 508 152 531 153 546 251 546 359 544 463 538L463 603 122 603 122 658 463 658 463 718 46 718 46 775 463 775 463 853C463 867 457 871 441 872 426 873 368 873 308 871 318 888 329 913 333 931 415 931 465 930 496 921 527 911 537 894 537 855L537 775 955 775 955 718 537 718 537 658 887 658 887 603 537 603 537 534C649 527 754 516 835 501ZM88 393L88 445 484 445 484 393 331 393 331 326 473 326 473 159 331 159 331 100 482 100 482 48 88 48ZM157 393L157 326 266 326 266 393ZM266 100L266 159 157 159 157 100ZM157 205L403 205 403 279 157 279ZM614 110L553 125C580 198 617 261 665 314 616 349 560 374 502 391 515 404 532 430 539 447 601 427 660 398 712 361 768 409 834 446 910 470 919 451 938 425 953 412 881 392 817 360 764 318 833 255 886 171 916 61L872 46 860 48 522 48 522 108 830 108C804 174 764 229 716 274 671 227 637 172 614 110Z"/>
</svg>