<svg xmlns="http://www.w3.org/2000/svg" name="gid6023" data-unicode="控"
    viewBox="0 0 1000 1000">
  <!--
© 2014-2021 Adobe (http://www.adobe.com/).
Noto is a trademark of Google Inc.
This Font Software is licensed under the SIL Open Font License, Version 1.1. This Font Software is distributed on an "AS IS" BASIS, WITHOUT WARRANTIES OR CONDITIONS OF ANY KIND, either express or implied. See the SIL Open Font License for the specific language, permissions and limitations governing your use of this Font Software.
http://scripts.sil.org/OFL
  -->
<path d="M328 863L328 932 960 932 960 863 683 863 683 652 912 652 912 583 392 583 392 652 608 652 608 863ZM609 39L609 145 359 145 359 316 425 316 425 210 531 210C524 355 498 432 354 472 368 484 386 509 391 525 556 475 591 381 600 210L694 210 694 407C694 474 710 494 781 494 795 494 858 494 873 494 927 494 946 468 953 370 934 365 906 354 892 343 889 420 885 431 864 431 851 431 800 431 790 431 768 431 764 428 764 406L764 210 883 210 883 308 952 308 952 145 683 145 683 39ZM167 41L167 242 42 242 42 312 167 312 167 513 28 559 47 631 167 588 167 873C167 887 162 891 150 891 138 892 99 892 56 890 65 911 75 942 77 960 141 961 179 958 203 946 228 935 237 914 237 873L237 563 349 522 336 454 237 489 237 312 342 312 342 242 237 242 237 41Z"/>
</svg>