<svg xmlns="http://www.w3.org/2000/svg"
    viewBox="0 0 1000 1000">
  <!--
© 2014-2021 Adobe (http://www.adobe.com/).
Noto is a trademark of Google Inc.
This Font Software is licensed under the SIL Open Font License, Version 1.1. This Font Software is distributed on an "AS IS" BASIS, WITHOUT WARRANTIES OR CONDITIONS OF ANY KIND, either express or implied. See the SIL Open Font License for the specific language, permissions and limitations governing your use of this Font Software.
http://scripts.sil.org/OFL
  -->
<path d="M279 743L294 810 553 765 553 928 620 928 620 341 702 341 655 348C674 493 703 620 751 723 714 789 671 840 622 874 637 887 656 910 667 927 712 892 752 847 787 792 822 849 864 896 915 932 926 913 948 887 964 873 907 838 862 786 826 722 881 609 918 463 934 282L893 272 881 275 620 275 620 148 943 148 943 81 307 81 307 148 364 148 364 731ZM430 148L553 148 553 289 430 289ZM864 341C850 457 824 559 789 644 754 556 731 453 716 341ZM430 354L553 354 553 499 430 499ZM430 565L553 565 553 704 430 722ZM164 10L164 212 42 212 42 282 164 282 164 486 27 527 46 599 164 561 164 844C164 858 159 862 147 862 135 863 96 863 53 862 62 882 71 912 74 930 137 931 176 928 199 917 224 905 233 885 233 844L233 539 341 502 331 433 233 464 233 282 325 282 325 212 233 212 233 10Z"/>
</svg>