<svg xmlns="http://www.w3.org/2000/svg" name="gid6027" data-unicode="掫"
    viewBox="0 0 1000 1000">
  <!--
© 2014-2021 Adobe (http://www.adobe.com/).
Noto is a trademark of Google Inc.
This Font Software is licensed under the SIL Open Font License, Version 1.1. This Font Software is distributed on an "AS IS" BASIS, WITHOUT WARRANTIES OR CONDITIONS OF ANY KIND, either express or implied. See the SIL Open Font License for the specific language, permissions and limitations governing your use of this Font Software.
http://scripts.sil.org/OFL
  -->
<path d="M279 773L294 840 553 795 553 958 620 958 620 371 702 371 655 378C674 523 703 650 751 753 714 819 671 870 622 904 637 917 656 940 667 957 712 922 752 877 787 822 822 879 864 926 915 962 926 943 948 917 964 903 907 868 862 816 826 752 881 639 918 493 934 312L893 302 881 305 620 305 620 178 943 178 943 111 307 111 307 178 364 178 364 761ZM430 178L553 178 553 319 430 319ZM864 371C850 487 824 589 789 674 754 586 731 483 716 371ZM430 384L553 384 553 529 430 529ZM430 595L553 595 553 734 430 752ZM164 40L164 242 42 242 42 312 164 312 164 516 27 557 46 629 164 591 164 874C164 888 159 892 147 892 135 893 96 893 53 892 62 912 71 942 74 960 137 961 176 958 199 947 224 935 233 915 233 874L233 569 341 532 331 463 233 494 233 312 325 312 325 242 233 242 233 40Z"/>
</svg>