<svg xmlns="http://www.w3.org/2000/svg"
    viewBox="0 0 1000 1000">
  <!--
© 2014-2021 Adobe (http://www.adobe.com/).
Noto is a trademark of Google Inc.
This Font Software is licensed under the SIL Open Font License, Version 1.1. This Font Software is distributed on an "AS IS" BASIS, WITHOUT WARRANTIES OR CONDITIONS OF ANY KIND, either express or implied. See the SIL Open Font License for the specific language, permissions and limitations governing your use of this Font Software.
http://scripts.sil.org/OFL
  -->
<path d="M492 377C511 419 533 476 541 510L586 490C578 458 555 403 535 362ZM772 357C759 397 734 457 714 495L753 512C775 475 799 423 823 376ZM615 10L615 117 364 117 364 184 615 184 615 272 393 272 393 597 560 597C497 686 395 770 299 813 316 827 338 852 350 871 446 821 547 730 615 630L615 929 687 929 687 623C747 722 838 816 926 868 938 849 960 823 976 809 890 767 800 684 744 597L920 597 920 272 687 272 687 184 943 184 943 117 687 117 687 10ZM456 333L619 333 619 536 456 536ZM684 333L855 333 855 536 684 536ZM181 10L181 211 42 211 42 282 181 282 181 500 28 542 49 615 181 574 181 843C181 858 175 862 162 862 149 863 108 863 62 862 72 882 82 912 85 930 151 930 192 928 218 917 244 905 253 885 253 843L253 552 376 513 366 446 253 479 253 282 365 282 365 211 253 211 253 10Z"/>
</svg>