<svg xmlns="http://www.w3.org/2000/svg"
    viewBox="0 0 1000 1000">
  <!--
© 2014-2021 Adobe (http://www.adobe.com/).
Noto is a trademark of Google Inc.
This Font Software is licensed under the SIL Open Font License, Version 1.1. This Font Software is distributed on an "AS IS" BASIS, WITHOUT WARRANTIES OR CONDITIONS OF ANY KIND, either express or implied. See the SIL Open Font License for the specific language, permissions and limitations governing your use of this Font Software.
http://scripts.sil.org/OFL
  -->
<path d="M167 11L167 212 42 212 42 282 167 282 167 487 28 529 47 601 167 562 167 843C167 857 162 861 150 861 138 862 99 862 56 860 65 881 75 912 77 930 141 931 179 928 203 916 228 905 237 884 237 843L237 539 347 503 338 446 347 461C382 441 416 416 448 386L448 447 602 447 602 567 602 576 355 576 355 645 594 645C575 726 512 814 320 876 337 891 357 916 367 932 536 873 614 794 649 714 704 820 793 893 918 929 928 909 950 879 966 864 827 834 733 757 686 645L934 645 934 576 676 576 676 568 676 447 826 447 826 386C857 419 892 446 931 468 941 450 962 424 978 410 927 386 883 350 846 305 885 282 930 254 969 223L920 179C895 204 852 237 815 262 800 239 787 214 775 187 809 164 852 131 887 99L841 58C819 81 785 111 754 136 742 101 731 63 723 24L660 36C691 177 743 295 821 380L455 380C533 304 595 198 626 64L583 48 571 51 385 51 385 115 544 115C530 156 512 194 491 229 464 206 429 181 397 163L357 207C390 228 428 257 454 282 411 337 359 380 305 407 313 414 323 425 331 436L237 465 237 282 345 282 345 212 237 212 237 11Z"/>
</svg>