<svg xmlns="http://www.w3.org/2000/svg" name="gid6050" data-unicode="插"
    viewBox="0 0 1000 1000">
  <!--
© 2014-2021 Adobe (http://www.adobe.com/).
Noto is a trademark of Google Inc.
This Font Software is licensed under the SIL Open Font License, Version 1.1. This Font Software is distributed on an "AS IS" BASIS, WITHOUT WARRANTIES OR CONDITIONS OF ANY KIND, either express or implied. See the SIL Open Font License for the specific language, permissions and limitations governing your use of this Font Software.
http://scripts.sil.org/OFL
  -->
<path d="M730 625L730 689 857 689 857 838 685 838 685 333 952 333 952 266 685 266 685 158C772 148 853 135 918 119L870 60C754 90 545 110 371 121 378 137 387 164 389 181 461 178 539 173 615 165L615 266 355 266 355 333 615 333 615 838 445 838 445 689 573 689 573 625 445 625 445 511C500 496 561 475 608 452L549 399C520 417 476 437 431 454L376 436 376 958 445 958 445 905 857 905 857 955 926 955 926 436 726 436 726 501 857 501 857 625ZM167 41L167 242 42 242 42 312 167 312 167 517 28 559 47 631 167 592 167 873C167 887 162 891 150 891 138 892 99 892 56 890 65 911 75 942 77 960 141 961 179 958 203 946 228 935 237 914 237 873L237 569 347 533 336 464 237 495 237 312 345 312 345 242 237 242 237 41Z"/>
</svg>