<svg xmlns="http://www.w3.org/2000/svg"
    viewBox="0 0 1000 1000">
  <!--
© 2014-2021 Adobe (http://www.adobe.com/).
Noto is a trademark of Google Inc.
This Font Software is licensed under the SIL Open Font License, Version 1.1. This Font Software is distributed on an "AS IS" BASIS, WITHOUT WARRANTIES OR CONDITIONS OF ANY KIND, either express or implied. See the SIL Open Font License for the specific language, permissions and limitations governing your use of this Font Software.
http://scripts.sil.org/OFL
  -->
<path d="M520 200L520 257 786 257 786 200ZM181 10L181 211 42 211 42 282 181 282 181 500 28 542 49 615 181 574 181 843C181 858 175 862 162 862 149 863 108 863 62 862 72 882 82 912 85 930 151 930 192 928 218 917 244 905 253 885 253 843L253 552 376 513 366 446 253 479 253 282 354 282 354 249C363 261 372 276 377 288 486 234 593 148 651 70 718 151 831 236 932 283 942 263 958 237 972 221 868 180 754 99 682 9L615 9C563 89 460 173 354 223L354 211 253 211 253 10ZM438 314L438 567 505 567 505 536 804 536 804 564 874 564 874 314ZM505 478L505 372 804 372 804 478ZM740 577L740 658 579 658 579 578 511 578 511 658 333 658 333 722 504 722C491 778 451 840 344 886 359 897 381 919 390 933 517 878 561 797 574 722L740 722 740 929 807 929 807 722 956 722 956 658 807 658 807 577Z"/>
</svg>