<svg xmlns="http://www.w3.org/2000/svg" name="gid6073" data-unicode="揷"
    viewBox="0 0 1000 1000">
  <!--
© 2014-2021 Adobe (http://www.adobe.com/).
Noto is a trademark of Google Inc.
This Font Software is licensed under the SIL Open Font License, Version 1.1. This Font Software is distributed on an "AS IS" BASIS, WITHOUT WARRANTIES OR CONDITIONS OF ANY KIND, either express or implied. See the SIL Open Font License for the specific language, permissions and limitations governing your use of this Font Software.
http://scripts.sil.org/OFL
  -->
<path d="M737 392L737 455 858 455 858 540 740 540 740 600 858 600 858 701 689 701 689 303 958 303 958 238 689 238 689 142C771 134 849 123 912 110L869 51C754 77 552 96 385 105 392 121 400 146 403 163 471 160 545 156 618 149L618 238 367 238 367 303 618 303 618 701 459 701 459 600 562 600 562 540 459 540 459 456C505 440 555 420 597 399L542 353C516 371 472 392 430 409L391 396 391 820 459 820 459 765 618 765 618 959 689 959 689 765 858 765 858 815 926 815 926 392ZM180 41L180 242 44 242 44 312 180 312 180 530 27 572 45 645 180 604 180 869C180 883 175 888 162 888 149 888 108 888 62 887 72 908 82 940 85 959 151 960 191 957 217 945 243 933 252 911 252 868L252 581 358 548 349 481 252 509 252 312 349 312 349 242 252 242 252 41Z"/>
</svg>