<svg xmlns="http://www.w3.org/2000/svg" name="gid6082" data-unicode="搐"
    viewBox="0 0 1000 1000">
  <!--
© 2014-2021 Adobe (http://www.adobe.com/).
Noto is a trademark of Google Inc.
This Font Software is licensed under the SIL Open Font License, Version 1.1. This Font Software is distributed on an "AS IS" BASIS, WITHOUT WARRANTIES OR CONDITIONS OF ANY KIND, either express or implied. See the SIL Open Font License for the specific language, permissions and limitations governing your use of this Font Software.
http://scripts.sil.org/OFL
  -->
<path d="M396 291C456 320 526 364 573 401 546 424 518 445 493 464L354 466 360 532C495 529 688 523 873 517 888 536 900 554 909 569L969 538C936 484 863 406 802 350L745 378C771 402 798 430 824 458L588 463C672 397 764 316 836 243L770 215C732 258 680 308 626 356 603 339 576 321 546 303 582 271 621 231 653 192L949 192 949 130 688 130 688 39 614 39 614 130 356 130 356 192 570 192C548 219 521 248 494 274L444 248ZM468 779L619 779 619 868 468 868ZM468 726L468 641 619 641 619 726ZM842 779L842 868 684 868 684 779ZM842 726L684 726 684 641 842 641ZM401 585L401 963 468 963 468 925 842 925 842 959 912 959 912 585ZM167 41L167 242 42 242 42 312 167 312 167 517 28 559 47 631 167 592 167 873C167 887 162 891 150 891 138 892 99 892 56 890 65 911 75 942 77 960 141 961 179 958 203 946 228 935 237 914 237 873L237 569 347 533 336 464 237 495 237 312 345 312 345 242 237 242 237 41Z"/>
</svg>