<svg xmlns="http://www.w3.org/2000/svg"
    viewBox="0 0 1000 1000">
  <!--
© 2014-2021 Adobe (http://www.adobe.com/).
Noto is a trademark of Google Inc.
This Font Software is licensed under the SIL Open Font License, Version 1.1. This Font Software is distributed on an "AS IS" BASIS, WITHOUT WARRANTIES OR CONDITIONS OF ANY KIND, either express or implied. See the SIL Open Font License for the specific language, permissions and limitations governing your use of this Font Software.
http://scripts.sil.org/OFL
  -->
<path d="M360 64L360 126 923 126 923 64ZM350 324L360 381 567 360 577 394 631 374C621 338 597 280 574 236L523 252C532 270 541 290 549 310L459 317C481 268 503 207 524 155L457 137C445 190 422 267 400 321ZM650 320L659 377 877 358 896 397 949 372C932 333 894 272 861 226L811 248C824 267 838 288 850 309L748 315C772 268 797 207 819 156L751 138C737 190 711 265 688 318ZM167 11L167 212 42 212 42 282 167 282 167 487 28 529 47 601 167 562 167 843C167 857 162 861 150 861 138 862 99 862 56 860 65 881 75 912 77 930 141 931 179 928 203 916 228 905 237 884 237 843L237 539 347 503 343 481 955 481 955 416 332 416 332 435 237 465 237 282 345 282 345 212 237 212 237 11ZM480 747L814 747 814 840 480 840ZM480 691L480 603 814 603 814 691ZM412 546L412 930 480 930 480 896 814 896 814 926 885 926 885 546Z"/>
</svg>