<svg xmlns="http://www.w3.org/2000/svg" name="gid6094" data-unicode="搥"
    viewBox="0 0 1000 1000">
  <!--
© 2014-2021 Adobe (http://www.adobe.com/).
Noto is a trademark of Google Inc.
This Font Software is licensed under the SIL Open Font License, Version 1.1. This Font Software is distributed on an "AS IS" BASIS, WITHOUT WARRANTIES OR CONDITIONS OF ANY KIND, either express or implied. See the SIL Open Font License for the specific language, permissions and limitations governing your use of this Font Software.
http://scripts.sil.org/OFL
  -->
<path d="M375 90C418 127 467 181 491 218L542 176C519 141 468 89 425 53ZM344 319C389 355 443 406 468 441L518 397C492 363 437 314 392 281ZM164 40L164 242 42 242 42 312 164 312 164 516 27 557 46 629 164 591 164 874C164 888 159 892 147 892 135 893 96 893 53 892 62 912 71 942 74 960 137 961 176 958 199 947 224 935 233 915 233 874L233 569 339 533 339 583 437 583 437 772C394 813 345 855 304 887L342 955C388 912 429 872 469 831 514 900 580 940 675 945 748 948 877 947 951 943 954 922 964 890 972 873 892 879 749 881 678 877 596 873 533 834 500 770L500 518 339 518 331 463 233 494 233 312 325 312 325 242 233 242 233 40ZM578 158L578 823 646 823 646 776 857 776 857 814 925 814 925 502 646 502 646 417 907 417 907 158 752 158 799 55 718 40C711 74 698 121 685 158ZM857 714L646 714 646 565 857 565ZM646 221L839 221 839 354 646 354Z"/>
</svg>