<svg xmlns="http://www.w3.org/2000/svg"
    viewBox="0 0 1000 1000">
  <!--
© 2014-2021 Adobe (http://www.adobe.com/).
Noto is a trademark of Google Inc.
This Font Software is licensed under the SIL Open Font License, Version 1.1. This Font Software is distributed on an "AS IS" BASIS, WITHOUT WARRANTIES OR CONDITIONS OF ANY KIND, either express or implied. See the SIL Open Font License for the specific language, permissions and limitations governing your use of this Font Software.
http://scripts.sil.org/OFL
  -->
<path d="M742 10L742 113 550 113 550 10 480 10 480 113 353 113 353 179 480 179 480 264 550 264 550 179 742 179 742 266 813 266 813 179 954 179 954 113 813 113 813 10ZM180 11L180 212 44 212 44 282 180 282 180 473C122 490 69 505 27 516L45 589 180 547 180 839C180 853 175 858 162 858 149 858 108 858 62 857 72 878 82 910 85 929 151 930 191 927 217 915 243 903 252 881 252 838L252 523 342 494 314 509C327 525 343 551 351 569 399 543 446 511 489 475L489 532 808 532 808 474C850 507 894 537 937 559 947 539 964 512 977 494 868 445 748 347 674 238L604 238C556 327 461 423 356 486L347 422 252 451 252 282 349 282 349 212 252 212 252 11ZM643 305C682 362 739 419 801 469L496 469C557 417 609 359 643 305ZM425 614L425 931 494 931 494 887 807 887 807 926 877 926 877 614ZM494 825L494 676 807 676 807 825Z"/>
</svg>