<svg xmlns="http://www.w3.org/2000/svg" name="gid6103" data-unicode="搴"
    viewBox="0 0 1000 1000">
  <!--
© 2014-2021 Adobe (http://www.adobe.com/).
Noto is a trademark of Google Inc.
This Font Software is licensed under the SIL Open Font License, Version 1.1. This Font Software is distributed on an "AS IS" BASIS, WITHOUT WARRANTIES OR CONDITIONS OF ANY KIND, either express or implied. See the SIL Open Font License for the specific language, permissions and limitations governing your use of this Font Software.
http://scripts.sil.org/OFL
  -->
<path d="M81 113L81 281 150 281 150 175 847 175 847 281 918 281 918 113 536 113 536 40 461 40 461 113ZM59 460L59 521 283 521C217 583 119 641 32 671 47 684 68 709 78 725 180 685 298 606 366 521L641 521C707 603 817 680 920 718 930 702 951 676 967 663 879 636 784 582 721 521L944 521 944 460 692 460 692 405 822 405 822 357 692 357 692 303 838 303 838 252 692 252 692 197 620 197 620 252 379 252 379 197 308 197 308 252 157 252 157 303 308 303 308 357 177 357 177 405 308 405 308 460ZM379 303L620 303 620 357 379 357ZM379 405L620 405 620 460 379 460ZM625 555C552 571 417 584 303 590 309 602 317 621 319 633 364 631 413 629 461 624L461 678 208 678 208 727 461 727 461 781 127 781 127 832 461 832 461 888C461 900 457 903 443 904 428 905 376 906 320 904 330 921 340 943 344 960 416 960 463 960 493 951 523 943 532 927 532 889L532 832 863 832 863 781 532 781 532 727 785 727 785 678 532 678 532 617C583 611 631 604 670 595Z"/>
</svg>