<svg xmlns="http://www.w3.org/2000/svg" name="gid6106" data-unicode="携"
    viewBox="0 0 1000 1000">
  <!--
© 2014-2021 Adobe (http://www.adobe.com/).
Noto is a trademark of Google Inc.
This Font Software is licensed under the SIL Open Font License, Version 1.1. This Font Software is distributed on an "AS IS" BASIS, WITHOUT WARRANTIES OR CONDITIONS OF ANY KIND, either express or implied. See the SIL Open Font License for the specific language, permissions and limitations governing your use of this Font Software.
http://scripts.sil.org/OFL
  -->
<path d="M167 41L167 242 42 242 42 312 167 312 167 517 28 559 47 631 167 592 167 873C167 887 162 891 150 891 138 892 99 892 56 890 65 911 75 942 77 960 141 961 179 958 203 946 228 935 237 914 237 873L237 569 351 531 340 462 237 495 237 312 337 312C348 323 358 335 364 342 384 323 404 302 422 279L422 552 943 552 943 494 712 494 712 430 905 430 905 381 712 381 712 317 905 317 905 268 712 268 712 207 933 207 933 151 720 151C736 123 752 92 768 61L695 43C685 74 666 116 648 151L503 151C518 121 531 89 542 56L476 39C449 125 402 204 345 262L345 242 237 242 237 41ZM644 430L644 494 488 494 488 430ZM644 381L488 381 488 317 644 317ZM362 607L362 670 501 670C485 794 425 866 310 908 325 921 350 949 359 963 486 908 555 822 576 670L703 670C693 713 682 758 672 791L737 801 750 752 877 752C866 839 856 877 841 890 833 897 823 899 806 899 789 899 739 898 690 893 701 911 709 938 711 956 761 960 809 960 832 958 861 957 879 951 896 935 921 912 934 855 948 724 950 714 951 694 951 694L765 694 784 607ZM644 268L488 268 488 207 644 207Z"/>
</svg>