<svg xmlns="http://www.w3.org/2000/svg"
    viewBox="0 0 1000 1000">
  <!--
© 2014-2021 Adobe (http://www.adobe.com/).
Noto is a trademark of Google Inc.
This Font Software is licensed under the SIL Open Font License, Version 1.1. This Font Software is distributed on an "AS IS" BASIS, WITHOUT WARRANTIES OR CONDITIONS OF ANY KIND, either express or implied. See the SIL Open Font License for the specific language, permissions and limitations governing your use of this Font Software.
http://scripts.sil.org/OFL
  -->
<path d="M461 114C431 154 380 191 330 218 343 227 365 248 373 259 424 228 481 178 517 131ZM759 110C729 149 678 185 627 212 641 222 663 241 672 252 723 221 779 173 815 127ZM636 524C582 576 483 625 396 654 410 664 426 681 436 693 529 661 631 607 692 544ZM733 607C663 672 534 724 412 753 425 765 440 786 449 800 580 766 712 706 790 628ZM837 684C752 788 571 847 355 872 368 888 381 912 388 930 617 896 805 830 901 708ZM630 440C702 512 824 583 928 620 938 602 953 576 967 560 858 527 739 462 660 383L611 383 611 48 356 48 356 108 546 108 546 240 507 228C469 283 402 334 336 369 350 379 372 401 381 412 438 378 502 327 546 272L546 395 585 395C523 463 413 531 302 570 315 585 330 610 337 628 453 583 568 508 630 440ZM814 210C777 264 710 312 644 345 658 355 681 376 690 387 750 354 814 303 857 248L857 404 923 404 923 48 660 48 660 108 857 108 857 223ZM164 10L164 212 42 212 42 282 164 282 164 486 27 527 46 599 164 561 164 844C164 858 159 862 147 862 135 863 96 863 53 862 62 882 71 912 74 930 137 931 176 928 199 917 224 905 233 885 233 844L233 539 341 502 331 433 233 464 233 282 325 282 325 212 233 212 233 10Z"/>
</svg>