<svg xmlns="http://www.w3.org/2000/svg"
    viewBox="0 0 1000 1000">
  <!--
© 2014-2021 Adobe (http://www.adobe.com/).
Noto is a trademark of Google Inc.
This Font Software is licensed under the SIL Open Font License, Version 1.1. This Font Software is distributed on an "AS IS" BASIS, WITHOUT WARRANTIES OR CONDITIONS OF ANY KIND, either express or implied. See the SIL Open Font License for the specific language, permissions and limitations governing your use of this Font Software.
http://scripts.sil.org/OFL
  -->
<path d="M509 394L802 394 802 514 509 514ZM442 335L442 572 620 572 620 662 401 662 401 726 620 726 620 843 337 843 337 908 962 908 962 843 692 843 692 726 913 726 913 662 692 662 692 572 874 572 874 335ZM850 27C832 69 798 132 771 170L812 188 692 188 692 10 620 10 620 188 496 188 541 166C526 128 494 71 462 29L404 56C432 96 461 150 477 188L359 188 359 359 426 359 426 249 883 249 883 359 952 359 952 188 833 188C859 152 890 102 916 54ZM167 11L167 212 42 212 42 282 167 282 167 487 28 529 47 601 167 562 167 843C167 857 162 861 150 861 138 862 99 862 56 860 65 881 75 912 77 930 141 931 179 928 203 916 228 905 237 884 237 843L237 539 347 503 336 434 237 465 237 282 345 282 345 212 237 212 237 11Z"/>
</svg>