<svg xmlns="http://www.w3.org/2000/svg"
    viewBox="0 0 1000 1000">
  <!--
© 2014-2021 Adobe (http://www.adobe.com/).
Noto is a trademark of Google Inc.
This Font Software is licensed under the SIL Open Font License, Version 1.1. This Font Software is distributed on an "AS IS" BASIS, WITHOUT WARRANTIES OR CONDITIONS OF ANY KIND, either express or implied. See the SIL Open Font License for the specific language, permissions and limitations governing your use of this Font Software.
http://scripts.sil.org/OFL
  -->
<path d="M465 433L813 433 813 505 465 505ZM465 308L813 308 813 378 465 378ZM724 10L724 93 569 93 569 10 498 10 498 93 348 93 348 157 498 157 498 232 569 232 569 157 724 157 724 232 797 232 797 157 939 157 939 93 797 93 797 10ZM395 251L395 561 598 561C595 591 590 618 584 644L328 644 328 708 561 708C524 785 451 838 302 870 317 885 336 913 342 931 518 888 600 816 640 710 691 820 783 895 912 930 922 911 943 883 959 868 846 844 760 789 712 708L939 708 939 644 659 644C665 618 669 590 672 561L885 561 885 251ZM162 11L162 212 47 212 47 282 162 282 162 505 37 541 56 614 162 580 162 836C162 850 157 854 144 854 132 855 94 855 50 854 60 874 69 905 72 923 135 924 174 921 197 909 222 898 231 877 231 836L231 557 348 519 338 451 231 484 231 282 336 282 336 212 231 212 231 11Z"/>
</svg>