<svg xmlns="http://www.w3.org/2000/svg" name="gid6138" data-unicode="摽"
    viewBox="0 0 1000 1000">
  <!--
© 2014-2021 Adobe (http://www.adobe.com/).
Noto is a trademark of Google Inc.
This Font Software is licensed under the SIL Open Font License, Version 1.1. This Font Software is distributed on an "AS IS" BASIS, WITHOUT WARRANTIES OR CONDITIONS OF ANY KIND, either express or implied. See the SIL Open Font License for the specific language, permissions and limitations governing your use of this Font Software.
http://scripts.sil.org/OFL
  -->
<path d="M394 521L394 579 898 579 898 521ZM764 776C815 826 875 895 902 939L959 898C930 856 869 789 818 741ZM448 740C416 790 358 851 303 889 318 901 338 920 350 934 408 893 467 832 505 772ZM367 223L367 465 924 465 924 223 757 223 757 152 949 152 949 90 339 90 339 152 525 152 525 223ZM588 152L694 152 694 223 588 223ZM326 646L326 709 605 709 605 883C605 894 602 897 588 898 574 899 532 899 480 897 490 915 500 941 504 960 571 960 613 959 640 949 668 938 675 919 675 884L675 709 952 709 952 646ZM430 281L533 281 533 407 430 407ZM588 281L694 281 694 407 588 407ZM749 281L857 281 857 407 749 407ZM167 41L167 242 42 242 42 312 167 312 167 517 28 559 47 631 167 592 167 873C167 887 162 891 150 891 138 892 99 892 56 890 65 911 75 942 77 960 141 961 179 958 203 946 228 935 237 914 237 873L237 569 347 533 336 464 237 495 237 312 345 312 345 242 237 242 237 41Z"/>
</svg>