<svg xmlns="http://www.w3.org/2000/svg"
    viewBox="0 0 1000 1000">
  <!--
© 2014-2021 Adobe (http://www.adobe.com/).
Noto is a trademark of Google Inc.
This Font Software is licensed under the SIL Open Font License, Version 1.1. This Font Software is distributed on an "AS IS" BASIS, WITHOUT WARRANTIES OR CONDITIONS OF ANY KIND, either express or implied. See the SIL Open Font License for the specific language, permissions and limitations governing your use of this Font Software.
http://scripts.sil.org/OFL
  -->
<path d="M768 491C626 513 362 525 142 527 148 539 155 561 156 575 254 575 360 572 463 567L463 621 120 621 120 675 463 675 463 730 46 730 46 785 463 785 463 853C463 867 457 871 442 872 426 873 368 873 308 872 318 888 329 912 332 929 415 929 465 929 496 920 527 911 537 894 537 855L537 785 955 785 955 730 537 730 537 675 886 675 886 621 537 621 537 563C642 557 740 548 819 536ZM245 10L245 66 63 66 63 113 245 113 245 151 88 151 88 362 245 362 245 402 55 402 55 450 245 450 245 504 310 504 310 450 499 450 499 402 310 402 310 362 469 362 469 151 310 151 310 113 493 113 493 66 310 66 310 10ZM148 276L245 276 245 321 148 321ZM310 276L407 276 407 321 310 321ZM148 192L245 192 245 236 148 236ZM310 192L407 192 407 236 310 236ZM567 41L567 97C567 133 556 170 487 202 499 210 524 238 532 253L532 294 798 294C773 326 740 354 702 376 668 353 641 326 622 294L564 309C584 345 612 377 645 404 600 422 551 435 502 444 513 456 527 479 534 494 592 482 648 465 698 440 758 475 831 499 914 513 922 495 939 471 953 458 879 449 813 432 757 407 814 369 859 320 886 256L847 239 835 242 551 242C616 201 632 148 632 99L632 96 760 96 760 126C760 170 764 185 777 196 789 208 810 212 828 212 838 212 863 212 873 212 886 212 904 210 914 206 924 202 934 193 939 182 945 172 948 141 950 114 934 109 913 100 902 89 902 114 901 133 898 142 896 150 892 154 888 155 885 157 877 157 870 157 862 157 850 157 843 157 837 157 832 157 829 154 826 152 826 144 826 129L826 41Z"/>
</svg>