<svg xmlns="http://www.w3.org/2000/svg" name="gid6139" data-unicode="撃"
    viewBox="0 0 1000 1000">
  <!--
© 2014-2021 Adobe (http://www.adobe.com/).
Noto is a trademark of Google Inc.
This Font Software is licensed under the SIL Open Font License, Version 1.1. This Font Software is distributed on an "AS IS" BASIS, WITHOUT WARRANTIES OR CONDITIONS OF ANY KIND, either express or implied. See the SIL Open Font License for the specific language, permissions and limitations governing your use of this Font Software.
http://scripts.sil.org/OFL
  -->
<path d="M768 521C626 543 362 555 142 557 148 569 155 591 156 605 254 605 360 602 463 597L463 651 120 651 120 705 463 705 463 760 46 760 46 815 463 815 463 883C463 897 457 901 442 902 426 903 368 903 308 902 318 918 329 942 332 959 415 959 465 959 496 950 527 941 537 924 537 885L537 815 955 815 955 760 537 760 537 705 886 705 886 651 537 651 537 593C642 587 740 578 819 566ZM245 40L245 96 63 96 63 143 245 143 245 181 88 181 88 392 245 392 245 432 55 432 55 480 245 480 245 534 310 534 310 480 499 480 499 432 310 432 310 392 469 392 469 181 310 181 310 143 493 143 493 96 310 96 310 40ZM148 306L245 306 245 351 148 351ZM310 306L407 306 407 351 310 351ZM148 222L245 222 245 266 148 266ZM310 222L407 222 407 266 310 266ZM567 71L567 127C567 163 556 200 487 232 499 240 524 268 532 283L532 324 798 324C773 356 740 384 702 406 668 383 641 356 622 324L564 339C584 375 612 407 645 434 600 452 551 465 502 474 513 486 527 509 534 524 592 512 648 495 698 470 758 505 831 529 914 543 922 525 939 501 953 488 879 479 813 462 757 437 814 399 859 350 886 286L847 269 835 272 551 272C616 231 632 178 632 129L632 126 760 126 760 156C760 200 764 215 777 226 789 238 810 242 828 242 838 242 863 242 873 242 886 242 904 240 914 236 924 232 934 223 939 212 945 202 948 171 950 144 934 139 913 130 902 119 902 144 901 163 898 172 896 180 892 184 888 185 885 187 877 187 870 187 862 187 850 187 843 187 837 187 832 187 829 184 826 182 826 174 826 159L826 71Z"/>
</svg>