<svg xmlns="http://www.w3.org/2000/svg" name="gid6146" data-unicode="撒"
    viewBox="0 0 1000 1000">
  <!--
© 2014-2021 Adobe (http://www.adobe.com/).
Noto is a trademark of Google Inc.
This Font Software is licensed under the SIL Open Font License, Version 1.1. This Font Software is distributed on an "AS IS" BASIS, WITHOUT WARRANTIES OR CONDITIONS OF ANY KIND, either express or implied. See the SIL Open Font License for the specific language, permissions and limitations governing your use of this Font Software.
http://scripts.sil.org/OFL
  -->
<path d="M399 638L553 638 553 716 399 716ZM399 582L399 504 553 504 553 582ZM712 41C699 152 680 260 649 350L649 332 584 332 584 214 641 214 641 154 584 154 584 52 522 52 522 154 434 154 434 52 372 52 372 154 305 154 305 214 372 214 372 332 290 332 290 393 632 393C624 411 616 429 607 445L335 445 335 955 399 955 399 772 553 772 553 885C553 894 551 897 542 897 533 898 508 898 478 897 487 913 496 937 499 953 541 953 571 951 591 943 602 937 609 929 612 916 626 929 645 951 652 963 709 913 754 855 789 787 825 856 870 916 928 962 938 945 960 918 973 906 907 859 859 792 822 716 869 600 896 462 913 301L956 301 956 235 747 235C760 176 770 114 778 51ZM616 470C628 483 641 500 647 509 661 486 674 461 685 434 700 526 721 622 756 711 721 788 676 854 615 905L616 885ZM434 214L522 214 522 332 434 332ZM731 301L847 301C836 423 817 533 787 628 753 528 735 421 724 323ZM150 40L150 242 41 242 41 312 150 312 150 521 27 560 46 633 150 597 150 876C150 890 145 894 133 894 121 895 83 895 41 894 50 913 59 943 63 960 123 960 160 958 184 947 207 935 216 916 216 876L216 574 319 538 308 469 216 500 216 312 307 312 307 242 216 242 216 40Z"/>
</svg>