<svg xmlns="http://www.w3.org/2000/svg" name="gid6147" data-unicode="撓"
    viewBox="0 0 1000 1000">
  <!--
© 2014-2021 Adobe (http://www.adobe.com/).
Noto is a trademark of Google Inc.
This Font Software is licensed under the SIL Open Font License, Version 1.1. This Font Software is distributed on an "AS IS" BASIS, WITHOUT WARRANTIES OR CONDITIONS OF ANY KIND, either express or implied. See the SIL Open Font License for the specific language, permissions and limitations governing your use of this Font Software.
http://scripts.sil.org/OFL
  -->
<path d="M610 41L610 118 415 118 415 176 610 176 610 254 359 254 359 315 947 315 947 254 681 254 681 176 894 176 894 118 681 118 681 41ZM336 653L336 716 508 716C494 816 451 870 301 900 315 914 334 943 342 960 510 919 562 846 580 716L694 716 694 870C694 937 712 955 785 955 800 955 872 955 887 955 945 955 964 931 970 830 951 825 923 815 908 804 905 883 901 894 879 894 863 894 806 894 794 894 768 894 764 891 764 870L764 716 953 716 953 653ZM760 336L760 402 663 402 663 458 760 458 760 538 647 538 647 594 949 594 949 538 827 538 827 458 936 458 936 402 827 402 827 336ZM349 559L358 618C435 609 533 596 631 582L629 528 532 539 532 458 623 458 623 402 532 402 532 336 466 336 466 402 371 402 371 458 466 458 466 547ZM167 41L167 242 42 242 42 312 167 312 167 517 28 559 47 631 167 592 167 873C167 887 162 891 150 891 138 892 99 892 56 890 65 911 75 942 77 960 141 961 179 958 203 946 228 935 237 914 237 873L237 569 347 533 336 464 237 495 237 312 345 312 345 242 237 242 237 41Z"/>
</svg>