<svg xmlns="http://www.w3.org/2000/svg"
    viewBox="0 0 1000 1000">
  <!--
© 2014-2021 Adobe (http://www.adobe.com/).
Noto is a trademark of Google Inc.
This Font Software is licensed under the SIL Open Font License, Version 1.1. This Font Software is distributed on an "AS IS" BASIS, WITHOUT WARRANTIES OR CONDITIONS OF ANY KIND, either express or implied. See the SIL Open Font License for the specific language, permissions and limitations governing your use of this Font Software.
http://scripts.sil.org/OFL
  -->
<path d="M336 77C380 116 428 172 452 208L499 166C477 131 426 78 382 40ZM301 296C347 332 398 384 421 420L471 379C446 344 393 294 348 260ZM449 512L287 512 287 578 388 578 388 746C350 787 306 830 269 861L306 927C347 883 384 844 420 803 464 872 529 912 628 917 712 919 866 918 951 915 954 894 964 863 972 846 881 853 712 855 629 852 543 848 482 809 449 744ZM693 187L693 355 622 355 622 104 823 104 823 187ZM743 355L743 239 823 239 823 355ZM563 46L563 355 506 355 506 793 566 793 566 415 874 415 874 721C874 729 871 732 861 733 852 733 822 733 788 732 797 749 806 775 808 792 856 792 886 791 908 780 928 770 934 752 934 722L934 355 884 355 884 46ZM626 474L626 723 674 723 674 673 816 673 816 474ZM674 519L768 519 768 629 674 629ZM159 10L159 212 42 212 42 282 159 282 159 468C109 485 64 500 27 511L47 584 159 544 159 846C159 860 154 864 142 864 130 865 92 865 50 864 59 883 68 913 72 930 132 930 169 928 192 917 216 905 225 886 225 846L225 520 323 484 312 415 225 445 225 282 308 282 308 212 225 212 225 10Z"/>
</svg>