<svg xmlns="http://www.w3.org/2000/svg"
    viewBox="0 0 1000 1000">
  <!--
© 2014-2021 Adobe (http://www.adobe.com/).
Noto is a trademark of Google Inc.
This Font Software is licensed under the SIL Open Font License, Version 1.1. This Font Software is distributed on an "AS IS" BASIS, WITHOUT WARRANTIES OR CONDITIONS OF ANY KIND, either express or implied. See the SIL Open Font License for the specific language, permissions and limitations governing your use of this Font Software.
http://scripts.sil.org/OFL
  -->
<path d="M167 11L167 212 42 212 42 282 167 282 167 487 28 529 47 601 167 562 167 843C167 857 162 861 150 861 138 862 99 862 56 860 65 881 75 912 77 930 141 931 179 928 203 916 228 905 237 884 237 843L237 539 347 503 336 434 237 465 237 282 338 282 352 306C466 248 577 155 636 74 705 158 823 249 927 301 937 282 952 258 966 242 859 196 741 108 666 14L602 14C550 94 450 180 345 236L345 212 237 212 237 11ZM470 237L470 287 810 287 810 237 669 237 669 158 607 158 607 237ZM452 767L458 823 751 804C761 822 769 838 775 851L824 827C806 786 763 721 725 673L678 692C692 711 708 733 722 755L580 762C591 730 603 693 615 655L849 655 849 862C849 873 846 876 835 876 822 878 789 878 744 876 752 893 761 914 764 931 823 931 862 931 886 921 910 912 916 895 916 862L916 599 631 599 645 550 879 550 879 313 818 313 818 496 462 496 462 313 403 313 403 550 578 550 567 599 360 599 360 929 424 929 424 655 553 655C543 694 532 732 521 764ZM504 350C533 362 564 377 595 393 560 414 523 432 486 446 498 455 518 476 526 487 565 469 607 446 645 419 683 440 718 461 742 478L778 438C755 423 723 405 688 386 714 365 737 341 755 317L703 301C687 323 665 343 641 362 606 345 571 328 540 315Z"/>
</svg>