<svg xmlns="http://www.w3.org/2000/svg"
    viewBox="0 0 1000 1000">
  <!--
© 2014-2021 Adobe (http://www.adobe.com/).
Noto is a trademark of Google Inc.
This Font Software is licensed under the SIL Open Font License, Version 1.1. This Font Software is distributed on an "AS IS" BASIS, WITHOUT WARRANTIES OR CONDITIONS OF ANY KIND, either express or implied. See the SIL Open Font License for the specific language, permissions and limitations governing your use of this Font Software.
http://scripts.sil.org/OFL
  -->
<path d="M167 11L167 212 42 212 42 282 167 282 167 487 28 529 47 601 167 562 167 843C167 857 162 861 150 861 138 862 99 862 56 860 65 881 75 912 77 930 141 931 179 928 203 916 228 905 237 884 237 843L237 539 347 503 336 434 237 465 237 282 317 282C331 297 351 321 359 332 378 313 397 292 415 269L415 537 949 537 949 481 714 481 714 410 917 410 917 360 714 360 714 296 914 296 914 246 714 246 714 182 934 182 934 125 722 125C741 96 760 64 777 33L702 12C689 45 668 90 648 125L507 125C524 93 539 61 552 28L484 9C452 94 402 178 345 242L345 212 237 212 237 11ZM645 296L645 360 485 360 485 296ZM645 246L485 246 485 182 645 182ZM645 410L645 481 485 481 485 410ZM374 588L374 930 440 930 440 648 543 648 543 795 770 795 770 648 873 648 873 855C873 867 869 871 855 872 841 872 796 872 742 870 751 888 760 913 763 930 832 930 878 931 905 921 933 910 939 892 939 856L939 588 708 588 708 737 603 737 603 588Z"/>
</svg>