<svg xmlns="http://www.w3.org/2000/svg" name="gid6236" data-unicode="攞"
    viewBox="0 0 1000 1000">
  <!--
© 2014-2021 Adobe (http://www.adobe.com/).
Noto is a trademark of Google Inc.
This Font Software is licensed under the SIL Open Font License, Version 1.1. This Font Software is distributed on an "AS IS" BASIS, WITHOUT WARRANTIES OR CONDITIONS OF ANY KIND, either express or implied. See the SIL Open Font License for the specific language, permissions and limitations governing your use of this Font Software.
http://scripts.sil.org/OFL
  -->
<path d="M752 143L865 143 865 251 752 251ZM588 143L699 143 699 251 588 251ZM428 143L535 143 535 251 428 251ZM528 732C549 784 567 851 573 893L623 873C617 834 597 768 576 717ZM350 717C337 779 319 844 290 890 305 896 331 908 342 917 369 869 393 797 407 729ZM305 628L313 688 439 681 439 962 499 962 499 677 566 672C571 685 575 698 578 709L625 686C614 649 586 591 556 547L513 566C523 582 533 600 542 619L440 623C491 560 546 478 590 410L535 383C515 422 486 470 456 517 444 501 428 484 411 466 437 428 469 376 496 329L452 309 933 309 933 86 363 86 363 309 437 309C422 345 398 393 375 431L354 411 321 454C357 487 398 532 422 566 407 587 392 607 378 625ZM840 317C830 350 811 396 793 433L713 433C728 398 742 362 754 326L696 311C668 400 623 491 572 552 586 560 611 577 623 587L642 561 642 961 702 961 702 916 963 916 963 856 842 856 842 771 940 771 940 717 842 717 842 632 938 632 938 577 842 577 842 491 946 491 946 433 852 433 901 335ZM785 491L785 577 702 577 702 491ZM702 632L785 632 785 717 702 717ZM702 771L785 771 785 856 702 856ZM159 40L159 242 42 242 42 312 159 312 159 512C109 528 64 542 27 553L47 626 159 587 159 876C159 890 154 894 142 894 130 895 92 895 50 894 59 913 68 943 72 960 132 960 169 958 192 947 216 935 225 916 225 876L225 564 324 530 313 461 225 490 225 312 308 312 308 242 225 242 225 40Z"/>
</svg>