<svg xmlns="http://www.w3.org/2000/svg"
    viewBox="0 0 1000 1000">
  <!--
© 2014-2021 Adobe (http://www.adobe.com/).
Noto is a trademark of Google Inc.
This Font Software is licensed under the SIL Open Font License, Version 1.1. This Font Software is distributed on an "AS IS" BASIS, WITHOUT WARRANTIES OR CONDITIONS OF ANY KIND, either express or implied. See the SIL Open Font License for the specific language, permissions and limitations governing your use of this Font Software.
http://scripts.sil.org/OFL
  -->
<path d="M752 113L865 113 865 221 752 221ZM588 113L699 113 699 221 588 221ZM428 113L535 113 535 221 428 221ZM528 702C549 754 567 821 573 863L623 843C617 804 597 738 576 687ZM350 687C337 749 319 814 290 860 305 866 331 878 342 887 369 839 393 767 407 699ZM305 598L313 658 439 651 439 932 499 932 499 647 566 642C571 655 575 668 578 679L625 656C614 619 586 561 556 517L513 536C523 552 533 570 542 589L440 593C491 530 546 448 590 380L535 353C515 392 486 440 456 487 444 471 428 454 411 436 437 398 469 346 496 299L452 279 933 279 933 56 363 56 363 279 437 279C422 315 398 363 375 401L354 381 321 424C357 457 398 502 422 536 407 557 392 577 378 595ZM840 287C830 320 811 366 793 403L713 403C728 368 742 332 754 296L696 281C668 370 623 461 572 522 586 530 611 547 623 557L642 531 642 931 702 931 702 886 963 886 963 826 842 826 842 741 940 741 940 687 842 687 842 602 938 602 938 547 842 547 842 461 946 461 946 403 852 403 901 305ZM785 461L785 547 702 547 702 461ZM702 602L785 602 785 687 702 687ZM702 741L785 741 785 826 702 826ZM159 10L159 212 42 212 42 282 159 282 159 482C109 498 64 512 27 523L47 596 159 557 159 846C159 860 154 864 142 864 130 865 92 865 50 864 59 883 68 913 72 930 132 930 169 928 192 917 216 905 225 886 225 846L225 534 324 500 313 431 225 460 225 282 308 282 308 212 225 212 225 10Z"/>
</svg>