<svg xmlns="http://www.w3.org/2000/svg"
    viewBox="0 0 1000 1000">
  <!--
© 2014-2021 Adobe (http://www.adobe.com/).
Noto is a trademark of Google Inc.
This Font Software is licensed under the SIL Open Font License, Version 1.1. This Font Software is distributed on an "AS IS" BASIS, WITHOUT WARRANTIES OR CONDITIONS OF ANY KIND, either express or implied. See the SIL Open Font License for the specific language, permissions and limitations governing your use of this Font Software.
http://scripts.sil.org/OFL
  -->
<path d="M722 211L720 211C742 152 761 87 776 22L716 10C693 126 653 241 599 321L485 321 485 266 586 266 586 148 642 148 642 94 586 94 586 9 525 9 525 94 397 94 397 9 339 9 339 94 275 94 275 148 339 148 339 266 426 266 426 321 301 321 301 516 426 516 426 570 297 570 297 624 425 624C424 646 422 666 418 686L271 686 271 742 402 742C379 799 334 846 249 883 261 894 278 917 285 930 366 895 415 850 444 797 495 833 550 878 579 910L618 862C586 828 521 779 466 744L467 742 629 742 629 686 479 686C482 666 483 645 484 624L616 624 616 570 485 570 485 516 613 516 613 360 634 381C644 367 654 351 663 335L663 930 722 930 722 876 964 876 964 818 862 818 862 666 946 666 946 608 862 608 862 467 944 467 944 407 862 407 862 276 948 276 948 211 858 211C876 160 896 96 913 41L853 22C842 77 820 156 801 211ZM525 148L525 216 397 216 397 148ZM351 371L426 371 426 466 351 466ZM485 371L560 371 560 466 485 466ZM804 276L804 407 722 407 722 276ZM722 467L804 467 804 608 722 608ZM722 666L804 666 804 818 722 818ZM149 11L149 213 44 213 44 283 149 283 149 473C104 491 63 507 29 518L53 589 149 549 149 848C149 861 145 864 133 864 123 865 90 865 53 864 62 882 71 912 73 929 129 930 162 927 185 916 206 905 215 886 215 848L215 520 295 486 281 420 215 447 215 283 280 283 280 213 215 213 215 11Z"/>
</svg>