<svg xmlns="http://www.w3.org/2000/svg" name="gid6253" data-unicode="攷"
    viewBox="0 0 1000 1000">
  <!--
© 2014-2021 Adobe (http://www.adobe.com/).
Noto is a trademark of Google Inc.
This Font Software is licensed under the SIL Open Font License, Version 1.1. This Font Software is distributed on an "AS IS" BASIS, WITHOUT WARRANTIES OR CONDITIONS OF ANY KIND, either express or implied. See the SIL Open Font License for the specific language, permissions and limitations governing your use of this Font Software.
http://scripts.sil.org/OFL
  -->
<path d="M40 98L40 169 148 169C125 295 93 448 67 544L140 557 166 448 341 448C325 722 306 831 280 858 269 870 259 871 242 871 221 871 173 870 122 866 134 886 143 917 144 938 194 941 244 942 272 940 303 936 324 929 344 905 378 868 395 760 412 479 430 491 456 515 467 528 496 492 523 449 547 402 573 512 608 611 654 697 589 782 502 848 387 896 401 912 424 946 431 963 541 912 628 847 695 765 752 849 824 916 914 961 925 941 949 912 966 897 873 855 799 787 742 700 811 592 855 459 885 295L960 295 960 224 620 224C637 170 652 112 665 54L590 40C557 207 499 365 413 468L416 414C418 404 419 379 419 379L181 379C196 310 211 236 223 169L474 169 474 98ZM595 295L809 295C786 427 751 536 700 627 651 532 617 419 594 297Z"/>
</svg>