<svg xmlns="http://www.w3.org/2000/svg"
    viewBox="0 0 1000 1000">
  <!--
© 2014-2021 Adobe (http://www.adobe.com/).
Noto is a trademark of Google Inc.
This Font Software is licensed under the SIL Open Font License, Version 1.1. This Font Software is distributed on an "AS IS" BASIS, WITHOUT WARRANTIES OR CONDITIONS OF ANY KIND, either express or implied. See the SIL Open Font License for the specific language, permissions and limitations governing your use of this Font Software.
http://scripts.sil.org/OFL
  -->
<path d="M615 269L819 269C798 400 765 509 715 599 668 506 634 398 611 281ZM110 212C183 249 271 309 318 354L41 354 41 421 217 421C175 539 99 662 26 730 38 748 56 778 64 800 129 738 191 632 237 523L237 844C237 856 233 858 222 859 210 859 172 859 131 858 140 879 150 908 154 928 212 928 251 927 275 916 301 904 308 883 308 845L308 421 400 421C382 477 360 535 339 575L392 601C415 560 439 504 459 446 475 458 496 474 506 484 528 455 548 422 566 385 592 490 626 586 670 668 605 755 518 820 401 867 415 882 437 916 444 932 556 882 643 818 710 735 766 819 835 885 921 930 932 910 956 881 973 866 884 824 813 756 757 670 824 565 867 433 894 269L961 269 961 199 638 199C655 143 669 84 680 24L604 11C580 150 539 284 479 383L484 367 438 351 426 354 336 354 378 312C364 298 345 282 323 266 386 219 452 152 493 88L445 57 432 60 68 60 68 125 379 125C349 162 310 201 271 231 234 207 193 185 157 167Z"/>
</svg>