<svg xmlns="http://www.w3.org/2000/svg" name="gid6294" data-unicode="敷"
    viewBox="0 0 1000 1000">
  <!--
© 2014-2021 Adobe (http://www.adobe.com/).
Noto is a trademark of Google Inc.
This Font Software is licensed under the SIL Open Font License, Version 1.1. This Font Software is distributed on an "AS IS" BASIS, WITHOUT WARRANTIES OR CONDITIONS OF ANY KIND, either express or implied. See the SIL Open Font License for the specific language, permissions and limitations governing your use of this Font Software.
http://scripts.sil.org/OFL
  -->
<path d="M631 40C607 195 564 346 498 450L498 239 320 239 320 188 531 188 531 131 466 131 500 92C477 72 432 48 395 35L360 71C395 85 440 111 464 131L320 131 320 46 252 46 252 131 54 131 54 188 252 188 252 239 83 239 83 516 252 516 252 587 47 587 47 645 192 645C178 756 145 854 39 910 54 922 74 945 83 962 169 914 214 843 239 757L406 757C399 845 391 882 380 893 373 901 365 902 351 902 336 902 298 901 257 897 267 914 274 940 275 957 318 960 359 960 381 959 406 957 422 951 437 937 457 915 467 861 475 728 477 718 477 700 477 700L253 700 261 645 535 645 535 587 320 587 320 516 498 516 498 485C515 498 534 514 544 524 565 493 584 458 601 420 624 522 653 615 692 696 636 783 562 850 461 900 474 915 496 946 503 963 598 911 672 847 729 767 778 849 840 915 918 961 929 941 952 914 969 900 887 856 822 786 772 698 831 590 868 457 891 296L961 296 961 226 669 226C684 170 697 111 707 51ZM146 401L252 401 252 465 146 465ZM320 401L432 401 432 465 320 465ZM146 290L252 290 252 352 146 352ZM320 290L432 290 432 352 320 352ZM648 296L819 296C801 422 775 529 733 619 693 526 665 419 646 304Z"/>
</svg>