<svg xmlns="http://www.w3.org/2000/svg"
    viewBox="0 0 1000 1000">
  <!--
© 2014-2021 Adobe (http://www.adobe.com/).
Noto is a trademark of Google Inc.
This Font Software is licensed under the SIL Open Font License, Version 1.1. This Font Software is distributed on an "AS IS" BASIS, WITHOUT WARRANTIES OR CONDITIONS OF ANY KIND, either express or implied. See the SIL Open Font License for the specific language, permissions and limitations governing your use of this Font Software.
http://scripts.sil.org/OFL
  -->
<path d="M670 162C626 205 570 241 505 272 432 241 368 205 319 162ZM457 10L457 97 65 97 65 162 226 162C278 218 344 266 421 306 306 346 172 372 34 389 48 405 70 439 78 456 228 433 378 399 506 345 629 394 772 426 921 442 931 422 949 391 965 374 832 362 704 339 592 303 662 265 722 219 770 162L933 162 933 97 538 97 538 10ZM463 593L463 639 60 639 60 706 463 706 463 845C463 858 458 862 441 863 423 864 358 864 293 862 305 881 316 910 321 930 405 930 460 930 495 920 531 909 542 889 542 846L542 706 937 706 937 639 542 639 542 635C626 599 715 547 779 496L731 456 714 460 223 460 223 523 631 523C592 549 545 574 501 593Z"/>
</svg>