<svg xmlns="http://www.w3.org/2000/svg" name="gid6317" data-unicode="斜"
    viewBox="0 0 1000 1000">
  <!--
© 2014-2021 Adobe (http://www.adobe.com/).
Noto is a trademark of Google Inc.
This Font Software is licensed under the SIL Open Font License, Version 1.1. This Font Software is distributed on an "AS IS" BASIS, WITHOUT WARRANTIES OR CONDITIONS OF ANY KIND, either express or implied. See the SIL Open Font License for the specific language, permissions and limitations governing your use of this Font Software.
http://scripts.sil.org/OFL
  -->
<path d="M381 629C417 695 453 782 465 837L527 810C514 757 477 672 440 607ZM124 609C105 690 71 774 29 831 46 839 75 857 88 868 130 807 169 713 192 624ZM528 402C589 440 660 500 692 542L743 493C710 451 637 394 577 358ZM563 152C621 194 687 257 717 301L771 254C740 211 673 151 614 111ZM247 40C206 135 127 255 15 344 31 355 54 380 65 396 87 378 108 358 127 339L127 375 260 375 260 483 51 483 51 551 260 551 260 876C260 889 256 892 243 893 230 893 189 893 143 892 153 912 164 941 167 961 232 961 272 959 297 947 323 936 332 916 332 877L332 551 513 551 513 483 332 483 332 375 462 375 462 308 156 308C215 242 260 174 293 115 358 171 429 251 464 302L521 241C477 183 390 99 319 40ZM514 672L530 742 792 686 792 958 866 958 866 670 973 647 958 578 866 597 866 41 792 41 792 613Z"/>
</svg>