<svg xmlns="http://www.w3.org/2000/svg" name="gid6331" data-unicode="斯"
    viewBox="0 0 1000 1000">
  <!--
© 2014-2021 Adobe (http://www.adobe.com/).
Noto is a trademark of Google Inc.
This Font Software is licensed under the SIL Open Font License, Version 1.1. This Font Software is distributed on an "AS IS" BASIS, WITHOUT WARRANTIES OR CONDITIONS OF ANY KIND, either express or implied. See the SIL Open Font License for the specific language, permissions and limitations governing your use of this Font Software.
http://scripts.sil.org/OFL
  -->
<path d="M179 737C150 801 98 865 44 908 62 918 91 941 105 953 159 905 216 830 251 757ZM337 767C376 811 422 872 443 911L473 893 461 909C478 918 503 943 513 958 625 819 640 621 640 479L640 443 792 443 792 960 863 960 863 443 960 443 960 374 640 374 640 212C747 185 865 149 948 108L884 54C823 89 721 124 624 151L570 134 570 477C570 596 562 742 494 860 470 822 429 772 394 735ZM394 51L394 173 204 173 204 51 135 51 135 173 53 173 53 240 135 240 135 649 38 649 38 716 536 716 536 649 463 649 463 240 529 240 529 173 463 173 463 51ZM204 240L394 240 394 332 204 332ZM204 392L394 392 394 486 204 486ZM204 547L394 547 394 649 204 649Z"/>
</svg>