<svg xmlns="http://www.w3.org/2000/svg" name="gid6340" data-unicode="於"
    viewBox="0 0 1000 1000">
  <!--
© 2014-2021 Adobe (http://www.adobe.com/).
Noto is a trademark of Google Inc.
This Font Software is licensed under the SIL Open Font License, Version 1.1. This Font Software is distributed on an "AS IS" BASIS, WITHOUT WARRANTIES OR CONDITIONS OF ANY KIND, either express or implied. See the SIL Open Font License for the specific language, permissions and limitations governing your use of this Font Software.
http://scripts.sil.org/OFL
  -->
<path d="M696 126C742 253 831 391 931 473 942 450 957 420 971 401 876 332 783 187 731 41L654 41C616 176 528 328 428 407 441 424 459 454 466 475 569 391 655 248 696 126ZM587 473C656 517 735 582 771 629L824 575C786 529 704 467 636 426ZM506 744C628 800 775 892 845 960L893 895C822 827 672 740 551 686ZM221 42L221 203 44 203 44 274 154 274C150 531 139 775 29 911 48 923 74 947 86 964 176 851 208 677 220 481L349 481C343 759 335 857 318 879 311 891 302 893 288 893 272 893 235 893 193 889 204 908 212 938 213 958 255 960 297 960 322 958 348 955 366 948 382 925 408 891 414 778 421 446 422 436 422 411 422 411L223 411 227 274 470 274 470 203 296 203 296 42Z"/>
</svg>