<svg xmlns="http://www.w3.org/2000/svg"
    viewBox="0 0 1000 1000">
  <!--
© 2014-2021 Adobe (http://www.adobe.com/).
Noto is a trademark of Google Inc.
This Font Software is licensed under the SIL Open Font License, Version 1.1. This Font Software is distributed on an "AS IS" BASIS, WITHOUT WARRANTIES OR CONDITIONS OF ANY KIND, either express or implied. See the SIL Open Font License for the specific language, permissions and limitations governing your use of this Font Software.
http://scripts.sil.org/OFL
  -->
<path d="M234 255L770 255 770 343 234 343ZM234 110L770 110 770 197 234 197ZM162 48L162 404 845 404 845 48ZM509 472L509 929 583 929 583 538 822 538 822 771C822 783 818 787 803 788 789 788 736 789 679 787 689 806 699 833 702 854 780 854 829 853 859 842 889 831 897 810 897 771L897 472ZM405 408C353 434 270 464 191 488L124 475 124 780 47 792 60 864C165 846 311 821 450 796L445 727 198 768 198 549C288 526 386 497 460 466Z"/>
</svg>