<svg xmlns="http://www.w3.org/2000/svg" name="gid6408" data-unicode="昞"
    viewBox="0 0 1000 1000">
  <!--
© 2014-2021 Adobe (http://www.adobe.com/).
Noto is a trademark of Google Inc.
This Font Software is licensed under the SIL Open Font License, Version 1.1. This Font Software is distributed on an "AS IS" BASIS, WITHOUT WARRANTIES OR CONDITIONS OF ANY KIND, either express or implied. See the SIL Open Font License for the specific language, permissions and limitations governing your use of this Font Software.
http://scripts.sil.org/OFL
  -->
<path d="M853 363L853 676C775 616 724 495 699 363ZM385 94L385 162 621 162 621 272 621 295 408 295 408 959 476 959 476 693C492 704 514 727 525 741 606 664 647 576 668 487 700 593 747 682 813 734 822 720 839 700 853 689L853 872C853 886 849 889 836 890 823 891 779 891 731 889 741 909 750 939 753 959 817 959 862 958 889 946 917 934 924 913 924 873L924 295 688 295 688 273 688 162 949 162 949 94ZM476 690L476 363 618 363C610 473 580 592 476 690ZM280 467L280 695 145 695 145 467ZM280 400L145 400 145 182 280 182ZM76 114L76 839 145 839 145 762 348 762 348 114Z"/>
</svg>