<svg xmlns="http://www.w3.org/2000/svg" name="gid6418" data-unicode="昨"
    viewBox="0 0 1000 1000">
  <!--
© 2014-2021 Adobe (http://www.adobe.com/).
Noto is a trademark of Google Inc.
This Font Software is licensed under the SIL Open Font License, Version 1.1. This Font Software is distributed on an "AS IS" BASIS, WITHOUT WARRANTIES OR CONDITIONS OF ANY KIND, either express or implied. See the SIL Open Font License for the specific language, permissions and limitations governing your use of this Font Software.
http://scripts.sil.org/OFL
  -->
<path d="M532 39C499 175 443 311 374 399 390 412 419 440 431 454 469 404 503 341 533 271L593 271 593 960 667 960 667 702 951 702 951 634 667 634 667 480 942 480 942 411 667 411 667 271 964 271 964 201 561 201C578 154 593 104 606 55ZM299 473L299 704 147 704 147 473ZM299 406L147 406 147 186 299 186ZM76 118L76 850 147 850 147 772 371 772 371 118Z"/>
</svg>