<svg xmlns="http://www.w3.org/2000/svg" name="gid6429" data-unicode="昴"
    viewBox="0 0 1000 1000">
  <!--
© 2014-2021 Adobe (http://www.adobe.com/).
Noto is a trademark of Google Inc.
This Font Software is licensed under the SIL Open Font License, Version 1.1. This Font Software is distributed on an "AS IS" BASIS, WITHOUT WARRANTIES OR CONDITIONS OF ANY KIND, either express or implied. See the SIL Open Font License for the specific language, permissions and limitations governing your use of this Font Software.
http://scripts.sil.org/OFL
  -->
<path d="M237 265L768 265 768 346 237 346ZM237 130L768 130 768 209 237 209ZM119 462L119 736 45 747 56 816 347 761C321 818 255 868 102 904 116 918 136 945 144 961 401 897 436 787 436 668L436 526 365 526 365 666 364 695 190 724 190 538C290 516 399 484 478 449L420 405 843 405 843 71 164 71 164 405 400 405C344 432 255 460 170 481ZM550 457L550 959 623 959 623 523 827 523 827 776C827 787 823 791 809 791 795 792 747 793 696 791 706 809 716 837 719 856 790 856 835 856 863 845 891 834 899 814 899 777L899 457Z"/>
</svg>