<svg xmlns="http://www.w3.org/2000/svg" name="gid6431" data-unicode="昶"
    viewBox="0 0 1000 1000">
  <!--
© 2014-2021 Adobe (http://www.adobe.com/).
Noto is a trademark of Google Inc.
This Font Software is licensed under the SIL Open Font License, Version 1.1. This Font Software is distributed on an "AS IS" BASIS, WITHOUT WARRANTIES OR CONDITIONS OF ANY KIND, either express or implied. See the SIL Open Font License for the specific language, permissions and limitations governing your use of this Font Software.
http://scripts.sil.org/OFL
  -->
<path d="M83 91L83 158 531 158 531 91ZM600 135L600 407 543 362C515 402 469 453 429 494 413 444 400 388 391 328L391 253 111 253 111 316 321 316 321 873C321 888 316 892 302 892 289 893 242 894 191 891 201 910 212 940 215 958 284 958 328 957 354 946 382 934 391 913 391 874L391 571C471 783 622 901 922 938 931 917 950 886 965 871 679 843 530 738 451 553 498 515 554 459 600 409L600 743 668 743 668 702 850 702 850 739 921 739 921 135ZM52 440L52 502 197 502C168 650 103 775 23 841 39 853 60 879 70 895 170 808 243 656 272 452L229 437 217 440ZM668 451L850 451 850 636 668 636ZM668 387L668 201 850 201 850 387Z"/>
</svg>