<svg xmlns="http://www.w3.org/2000/svg"
    viewBox="0 0 1000 1000">
  <!--
© 2014-2021 Adobe (http://www.adobe.com/).
Noto is a trademark of Google Inc.
This Font Software is licensed under the SIL Open Font License, Version 1.1. This Font Software is distributed on an "AS IS" BASIS, WITHOUT WARRANTIES OR CONDITIONS OF ANY KIND, either express or implied. See the SIL Open Font License for the specific language, permissions and limitations governing your use of this Font Software.
http://scripts.sil.org/OFL
  -->
<path d="M83 828L83 896 924 896 924 828ZM333 596L675 596 675 693 333 693ZM333 446L675 446 675 542 333 542ZM177 55L177 195C177 334 161 527 32 667 48 677 78 706 89 721 195 605 234 446 247 310L686 310C692 337 699 363 708 389L264 389 264 750 747 750 747 492C789 586 845 664 915 714 927 693 951 665 970 650 870 588 797 456 757 310L854 310 854 55ZM252 119L779 119 779 245 251 245 252 196Z"/>
</svg>