<svg xmlns="http://www.w3.org/2000/svg" name="gid6445" data-unicode="晈"
    viewBox="0 0 1000 1000">
  <!--
© 2014-2021 Adobe (http://www.adobe.com/).
Noto is a trademark of Google Inc.
This Font Software is licensed under the SIL Open Font License, Version 1.1. This Font Software is distributed on an "AS IS" BASIS, WITHOUT WARRANTIES OR CONDITIONS OF ANY KIND, either express or implied. See the SIL Open Font License for the specific language, permissions and limitations governing your use of this Font Software.
http://scripts.sil.org/OFL
  -->
<path d="M726 312C790 371 865 455 899 508L961 468C925 415 848 335 784 278ZM269 471L269 702 146 702 146 471ZM269 404L146 404 146 181 269 181ZM507 283C468 356 406 430 340 479L340 112 76 112 76 852 146 852 146 770 340 770 340 481C357 492 385 515 398 527 463 473 532 387 578 303ZM363 182L363 253 957 253 957 182 687 182 687 43 611 43 611 182ZM763 457C738 538 700 609 649 671 602 610 565 540 539 465L472 483C504 573 546 654 600 724 522 799 421 858 300 902 317 916 338 944 348 961 467 915 567 856 646 780 721 860 811 922 919 960 930 941 952 911 969 896 862 863 770 804 697 727 758 656 804 573 835 476Z"/>
</svg>