<svg xmlns="http://www.w3.org/2000/svg" name="gid6460" data-unicode="晝"
    viewBox="0 0 1000 1000">
  <!--
© 2014-2021 Adobe (http://www.adobe.com/).
Noto is a trademark of Google Inc.
This Font Software is licensed under the SIL Open Font License, Version 1.1. This Font Software is distributed on an "AS IS" BASIS, WITHOUT WARRANTIES OR CONDITIONS OF ANY KIND, either express or implied. See the SIL Open Font License for the specific language, permissions and limitations governing your use of this Font Software.
http://scripts.sil.org/OFL
  -->
<path d="M52 878L52 931 950 931 950 878ZM254 734L757 734 757 787 254 787ZM254 640L757 640 757 691 254 691ZM180 596L180 831 833 831 833 596ZM763 247L763 302 534 302 534 247ZM458 39L458 101 160 101 160 148 458 148 458 199 54 199 54 247 458 247 458 302 154 302 154 349 458 349 458 400 129 400 129 447 458 447 458 500 52 500 52 552 951 552 951 500 534 500 534 447 878 447 878 400 534 400 534 349 838 349 838 247 947 247 947 199 838 199 838 101 534 101 534 39ZM763 199L534 199 534 148 763 148Z"/>
</svg>