<svg xmlns="http://www.w3.org/2000/svg"
    viewBox="0 0 1000 1000">
  <!--
© 2014-2021 Adobe (http://www.adobe.com/).
Noto is a trademark of Google Inc.
This Font Software is licensed under the SIL Open Font License, Version 1.1. This Font Software is distributed on an "AS IS" BASIS, WITHOUT WARRANTIES OR CONDITIONS OF ANY KIND, either express or implied. See the SIL Open Font License for the specific language, permissions and limitations governing your use of this Font Software.
http://scripts.sil.org/OFL
  -->
<path d="M484 459L837 459 837 551 484 551ZM484 310L837 310 837 401 484 401ZM412 250L412 611 616 611 616 697 353 697 353 764 616 764 616 930 690 930 690 764 961 764 961 697 690 697 690 611 911 611 911 250 689 250 689 164 949 164 949 99 689 99 689 10 615 10 615 250ZM268 438L268 667 142 667 142 438ZM268 371L142 371 142 152 268 152ZM75 84L75 813 142 813 142 735 336 735 336 84Z"/>
</svg>