<svg xmlns="http://www.w3.org/2000/svg" name="gid6477" data-unicode="普"
    viewBox="0 0 1000 1000">
  <!--
© 2014-2021 Adobe (http://www.adobe.com/).
Noto is a trademark of Google Inc.
This Font Software is licensed under the SIL Open Font License, Version 1.1. This Font Software is distributed on an "AS IS" BASIS, WITHOUT WARRANTIES OR CONDITIONS OF ANY KIND, either express or implied. See the SIL Open Font License for the specific language, permissions and limitations governing your use of this Font Software.
http://scripts.sil.org/OFL
  -->
<path d="M158 262C193 309 225 374 237 418L303 392C290 348 256 284 219 238ZM777 233C756 281 717 350 687 394L745 415C776 374 814 312 845 256ZM691 38C674 71 642 119 618 149L654 161 345 161 373 149C360 116 330 71 297 39L232 64C257 92 283 130 297 161L108 161 108 225 362 225 362 421 52 421 52 484 950 484 950 421 631 421 631 225 901 225 901 161 693 161C715 134 741 98 764 62ZM432 225L559 225 559 421 432 421ZM275 763L727 763 727 864 275 864ZM275 704L275 606 727 606 727 704ZM199 546L199 959 275 959 275 924 727 924 727 955 805 955 805 546Z"/>
</svg>