<svg xmlns="http://www.w3.org/2000/svg"
    viewBox="0 0 1000 1000">
  <!--
© 2014-2021 Adobe (http://www.adobe.com/).
Noto is a trademark of Google Inc.
This Font Software is licensed under the SIL Open Font License, Version 1.1. This Font Software is distributed on an "AS IS" BASIS, WITHOUT WARRANTIES OR CONDITIONS OF ANY KIND, either express or implied. See the SIL Open Font License for the specific language, permissions and limitations governing your use of this Font Software.
http://scripts.sil.org/OFL
  -->
<path d="M230 212L751 212 751 272 230 272ZM230 103L751 103 751 162 230 162ZM158 51L158 325 826 325 826 51ZM849 315C810 351 765 384 716 416L716 382 472 382 472 336 397 336 397 382 133 382 133 439 397 439 397 505 63 505 63 563 409 563C289 607 162 642 36 667 48 682 68 713 76 729 128 717 180 703 232 688L232 931 305 931 305 901 766 901 766 930 841 930 841 622 431 622C479 604 527 584 573 563L935 563 935 505 688 505C770 460 844 408 907 351ZM472 505L472 439 678 439C637 462 595 484 550 505ZM305 783L766 783 766 849 305 849ZM305 734L305 673 766 673 766 734Z"/>
</svg>