<svg xmlns="http://www.w3.org/2000/svg"
    viewBox="0 0 1000 1000">
  <!--
© 2014-2021 Adobe (http://www.adobe.com/).
Noto is a trademark of Google Inc.
This Font Software is licensed under the SIL Open Font License, Version 1.1. This Font Software is distributed on an "AS IS" BASIS, WITHOUT WARRANTIES OR CONDITIONS OF ANY KIND, either express or implied. See the SIL Open Font License for the specific language, permissions and limitations governing your use of this Font Software.
http://scripts.sil.org/OFL
  -->
<path d="M589 132C601 176 612 234 616 268L680 253C675 221 662 165 649 122ZM869 17C752 43 539 60 365 66 373 82 381 107 383 124 559 120 777 103 913 73ZM410 153C428 193 448 247 457 280L519 259C510 228 488 176 469 137ZM830 111C809 161 771 231 737 280L380 280 380 342 505 342 497 421 350 421 350 485 487 485C462 631 407 788 264 876 282 888 305 912 315 929 415 864 475 769 513 667 545 717 585 760 631 798 572 834 503 858 427 875 441 888 462 916 469 932 550 912 624 882 687 839 755 882 835 914 923 933 933 913 954 884 970 869 886 854 810 828 746 793 806 737 854 664 883 569L841 550 828 553 546 553 560 485 952 485 952 421 569 421 577 342 930 342 930 280 810 280C840 236 873 183 901 134ZM555 611L796 611C771 670 734 718 688 757 632 717 587 668 555 611ZM266 440L266 669 142 669 142 440ZM266 373L142 373 142 153 266 153ZM75 86L75 815 142 815 142 736 334 736 334 86Z"/>
</svg>