<svg xmlns="http://www.w3.org/2000/svg" name="gid6523" data-unicode="暲"
    viewBox="0 0 1000 1000">
  <!--
© 2014-2021 Adobe (http://www.adobe.com/).
Noto is a trademark of Google Inc.
This Font Software is licensed under the SIL Open Font License, Version 1.1. This Font Software is distributed on an "AS IS" BASIS, WITHOUT WARRANTIES OR CONDITIONS OF ANY KIND, either express or implied. See the SIL Open Font License for the specific language, permissions and limitations governing your use of this Font Software.
http://scripts.sil.org/OFL
  -->
<path d="M485 550L823 550 823 617 485 617ZM485 436L823 436 823 502 485 502ZM416 385L416 668 618 668 618 741 350 741 350 802 618 802 618 957 692 957 692 802 958 802 958 741 692 741 692 668 894 668 894 385ZM483 174C497 203 508 240 514 268L358 268 358 328 956 328 956 268 789 268C804 242 822 209 839 175L822 171 929 171 929 112 695 112 695 40 620 40 620 112 393 112 393 171 496 171ZM547 171L767 171C756 199 738 237 724 263L742 268 562 268 579 263C575 240 561 202 547 171ZM268 466L268 696 142 696 142 466ZM268 400L142 400 142 180 268 180ZM75 113L75 842 142 842 142 763 336 763 336 113Z"/>
</svg>