<svg xmlns="http://www.w3.org/2000/svg"
    viewBox="0 0 1000 1000">
  <!--
© 2014-2021 Adobe (http://www.adobe.com/).
Noto is a trademark of Google Inc.
This Font Software is licensed under the SIL Open Font License, Version 1.1. This Font Software is distributed on an "AS IS" BASIS, WITHOUT WARRANTIES OR CONDITIONS OF ANY KIND, either express or implied. See the SIL Open Font License for the specific language, permissions and limitations governing your use of this Font Software.
http://scripts.sil.org/OFL
  -->
<path d="M261 437L261 666 139 666 139 437ZM261 371L139 371 139 151 261 151ZM72 84L72 813 139 813 139 734 329 734 329 84ZM476 371L614 371 614 464 476 464ZM685 371L829 371 829 464 685 464ZM490 10L490 89 355 89 355 147 490 147 490 265 614 265 614 316 408 316 408 518 614 518 614 574 395 574 395 633 612 633C611 655 607 676 601 696L349 696 349 754 571 754C532 807 458 849 319 872 333 887 352 915 360 930 525 896 609 836 649 761 699 856 790 909 931 930 939 910 957 883 972 868 848 856 762 820 716 754L962 754 962 696 674 696C679 676 682 655 683 633L928 633 928 574 685 574 685 518 899 518 899 316 685 316 685 265 816 265 816 147 961 147 961 89 816 89 816 10 744 10 744 89 559 89 559 10ZM744 147L744 213 559 213 559 147Z"/>
</svg>