<svg xmlns="http://www.w3.org/2000/svg" name="gid6529" data-unicode="暻"
    viewBox="0 0 1000 1000">
  <!--
© 2014-2021 Adobe (http://www.adobe.com/).
Noto is a trademark of Google Inc.
This Font Software is licensed under the SIL Open Font License, Version 1.1. This Font Software is distributed on an "AS IS" BASIS, WITHOUT WARRANTIES OR CONDITIONS OF ANY KIND, either express or implied. See the SIL Open Font License for the specific language, permissions and limitations governing your use of this Font Software.
http://scripts.sil.org/OFL
  -->
<path d="M503 583L813 583 813 676 503 676ZM754 787C807 832 873 896 904 936L963 902C931 862 864 800 810 758ZM490 238L826 238 826 301 490 301ZM490 127L826 127 826 189 490 189ZM477 760C442 815 381 868 321 904 337 913 365 934 378 946 437 906 502 843 544 780ZM265 469L265 698 141 698 141 469ZM265 403L141 403 141 183 265 183ZM74 116L74 845 141 845 141 765 333 765 333 116ZM419 76L419 353 619 353 619 417 356 417 356 477 958 477 958 417 692 417 692 353 899 353 899 76ZM432 530L432 730 619 730 619 887C619 896 617 900 605 900 595 900 559 900 518 899 527 917 537 942 540 961 597 961 635 960 660 950 687 940 692 924 692 888L692 730 885 730 885 530Z"/>
</svg>