<svg xmlns="http://www.w3.org/2000/svg"
    viewBox="0 0 1000 1000">
  <!--
© 2014-2021 Adobe (http://www.adobe.com/).
Noto is a trademark of Google Inc.
This Font Software is licensed under the SIL Open Font License, Version 1.1. This Font Software is distributed on an "AS IS" BASIS, WITHOUT WARRANTIES OR CONDITIONS OF ANY KIND, either express or implied. See the SIL Open Font License for the specific language, permissions and limitations governing your use of this Font Software.
http://scripts.sil.org/OFL
  -->
<path d="M207 256C199 317 186 376 160 422 173 427 194 436 204 443 228 398 244 330 254 264ZM343 268C364 312 383 371 390 409L437 392C429 355 407 297 386 253ZM372 59C409 89 448 130 475 164L332 164 332 10 268 10 268 164 137 164C169 130 200 89 222 50L161 33C133 82 87 133 41 169 56 177 82 195 94 205L94 515 153 515 153 215 273 215 273 508 326 508 326 215 447 215 447 445C447 453 444 456 436 456 426 457 400 457 369 456 375 471 384 493 386 508 431 508 462 508 481 498 501 489 506 474 506 446L506 240C521 251 544 276 554 289 573 271 591 250 609 227 631 277 660 324 693 366 646 409 587 442 519 466 532 479 556 506 565 519 630 491 688 457 736 413 789 465 852 506 923 532 934 514 955 488 970 475 898 452 835 415 782 367 826 315 859 253 881 178L941 178 941 118 673 118C687 87 699 55 709 22L643 8C616 100 569 182 506 238L506 180 546 154C522 117 470 64 422 28ZM264 742L743 742 743 833 264 833ZM264 685L264 597 743 597 743 685ZM192 536L192 930 264 930 264 893 743 893 743 926 819 926 819 536ZM812 178C795 233 769 280 737 320 701 278 672 230 651 178Z"/>
</svg>