<svg xmlns="http://www.w3.org/2000/svg"
    viewBox="0 0 1000 1000">
  <!--
© 2014-2021 Adobe (http://www.adobe.com/).
Noto is a trademark of Google Inc.
This Font Software is licensed under the SIL Open Font License, Version 1.1. This Font Software is distributed on an "AS IS" BASIS, WITHOUT WARRANTIES OR CONDITIONS OF ANY KIND, either express or implied. See the SIL Open Font License for the specific language, permissions and limitations governing your use of this Font Software.
http://scripts.sil.org/OFL
  -->
<path d="M122 58L122 354C122 512 115 734 34 892 52 899 83 917 97 928 182 763 194 520 194 354L194 126 944 126 944 58ZM472 148C419 172 311 190 222 199 229 212 237 231 239 243 276 240 315 235 354 229L354 289 224 289 224 342 331 342C295 400 241 457 191 487 205 498 225 519 235 534 276 504 319 454 354 400L354 551 417 551 417 412C446 436 478 465 492 482L531 433C513 418 443 368 417 351L417 342 535 342 535 289 417 289 417 218C456 209 492 199 522 187ZM841 146C782 170 665 186 567 195 574 207 582 227 585 239 621 236 661 233 700 227L700 289 565 289 565 342 663 342C625 401 568 459 514 489 528 500 547 521 556 536 608 501 662 440 700 376L700 551 764 551 764 376C802 440 857 500 915 534 925 518 945 495 959 483 898 456 838 401 801 342L930 342 930 289 764 289 764 217C811 209 855 198 890 185ZM356 759L785 759 785 837 356 837ZM356 707L356 634 785 634 785 707ZM282 577L282 929 356 929 356 894 785 894 785 928 861 928 861 577Z"/>
</svg>