<svg xmlns="http://www.w3.org/2000/svg"
    viewBox="0 0 1000 1000">
  <!--
© 2014-2021 Adobe (http://www.adobe.com/).
Noto is a trademark of Google Inc.
This Font Software is licensed under the SIL Open Font License, Version 1.1. This Font Software is distributed on an "AS IS" BASIS, WITHOUT WARRANTIES OR CONDITIONS OF ANY KIND, either express or implied. See the SIL Open Font License for the specific language, permissions and limitations governing your use of this Font Software.
http://scripts.sil.org/OFL
  -->
<path d="M268 424L268 648 142 648 142 424ZM268 358L142 358 142 142 268 142ZM75 74L75 791 142 791 142 716 336 716 336 74ZM465 159C482 189 498 232 505 260L351 260 351 322 961 322 961 260 783 260C801 233 823 195 843 156L774 143 934 143 934 84 684 84 684 12 609 12 609 84 378 84 378 143 769 143C759 173 737 218 721 250L767 260 514 260 571 248C564 220 547 178 527 147ZM472 533L612 533 612 600 472 600ZM685 533L835 533 835 600 685 600ZM472 422L612 422 612 488 472 488ZM685 422L835 422 835 488 685 488ZM322 844L322 904 962 904 962 844 685 844 685 769 923 769 923 710 685 710 685 649 902 649 902 373 406 373 406 649 612 649 612 710 384 710 384 769 612 769 612 844Z"/>
</svg>