<svg xmlns="http://www.w3.org/2000/svg" name="gid6554" data-unicode="曦"
    viewBox="0 0 1000 1000">
  <!--
© 2014-2021 Adobe (http://www.adobe.com/).
Noto is a trademark of Google Inc.
This Font Software is licensed under the SIL Open Font License, Version 1.1. This Font Software is distributed on an "AS IS" BASIS, WITHOUT WARRANTIES OR CONDITIONS OF ANY KIND, either express or implied. See the SIL Open Font License for the specific language, permissions and limitations governing your use of this Font Software.
http://scripts.sil.org/OFL
  -->
<path d="M246 471L246 701 137 701 137 471ZM246 404L137 404 137 185 246 185ZM75 118L75 847 137 847 137 768 309 768 309 118ZM774 39C760 71 735 116 714 148L552 148 559 145C547 116 519 72 492 41L434 62C453 88 474 121 488 148L358 148 358 198 600 198 600 249 386 249 386 298 600 298 600 350 333 350 333 401 960 401 960 350 670 350 670 298 903 298 903 249 670 249 670 198 918 198 918 148 787 148C805 122 825 91 844 60ZM890 588C867 644 831 700 789 751 773 700 760 639 752 569L960 569 960 520 747 520C744 487 743 453 742 417L680 417C681 452 683 487 686 520L534 520 534 474C579 470 621 464 655 457L621 416C556 430 436 440 340 443 347 454 353 471 355 483 393 483 436 481 478 479L478 520 328 520 328 569 446 569C407 602 354 635 310 652 322 662 339 679 347 692 388 672 439 636 478 601L478 689 534 689 534 612C568 632 612 657 630 671L661 630C640 618 560 581 534 569L691 569C702 658 719 737 743 800 701 840 656 874 610 897 615 876 620 848 624 809 626 800 627 784 627 784L446 784 458 742 665 742 665 694 338 694 338 742 402 742C391 780 379 820 367 851L420 859 430 831 566 831C560 877 553 898 545 906 539 912 532 913 520 913 508 913 477 912 442 909 449 923 455 943 456 957 490 959 525 959 541 958 562 957 575 952 588 942 595 935 601 924 607 907 622 918 637 935 646 949 688 926 730 895 769 859 802 922 844 958 892 958 944 958 966 929 975 825 959 820 939 808 926 796 922 869 915 898 895 898 866 898 837 868 812 814 865 754 910 685 939 617ZM766 444C809 465 861 498 887 520L925 478C898 455 845 425 803 405Z"/>
</svg>