<svg xmlns="http://www.w3.org/2000/svg"
    viewBox="0 0 1000 1000">
  <!--
© 2014-2021 Adobe (http://www.adobe.com/).
Noto is a trademark of Google Inc.
This Font Software is licensed under the SIL Open Font License, Version 1.1. This Font Software is distributed on an "AS IS" BASIS, WITHOUT WARRANTIES OR CONDITIONS OF ANY KIND, either express or implied. See the SIL Open Font License for the specific language, permissions and limitations governing your use of this Font Software.
http://scripts.sil.org/OFL
  -->
<path d="M333 44L333 97 614 97 614 44ZM656 44L656 97 951 97 951 44ZM672 143L672 322 727 322 727 190 869 190 869 320 925 320 925 143ZM457 214L457 308 497 308 497 214ZM776 214L776 305 817 305 817 214ZM896 677C862 692 808 708 756 721L756 651 928 651 928 475 755 475 755 412 956 412 956 360 668 360 668 292 602 292 602 143 357 143 357 322 410 322 410 190 547 190 547 320 597 320 597 360 350 360 350 517C350 626 340 779 264 891 280 897 309 914 320 925 373 847 398 745 408 651L456 651 456 850 380 855 389 917C465 910 561 900 658 891L657 834 519 845 519 758 646 758 646 708 519 708 519 651 692 651 692 836C692 900 710 918 780 918 794 918 872 918 888 918 941 918 960 895 966 809 948 804 922 795 909 785 906 851 902 859 880 859 864 859 800 859 788 859 761 859 756 856 756 835L756 770C818 758 888 742 942 721ZM519 412L519 475 415 475 415 412ZM584 412L690 412 690 475 584 475ZM519 524L519 602 412 602C414 575 415 548 415 524ZM584 524L690 524 690 602 584 602ZM755 524L862 524 862 602 755 602ZM244 442L244 671 136 671 136 442ZM244 375L136 375 136 156 244 156ZM74 88L74 817 136 817 136 738 307 738 307 88Z"/>
</svg>