<svg xmlns="http://www.w3.org/2000/svg" name="gid6563" data-unicode="更"
    viewBox="0 0 1000 1000">
  <!--
© 2014-2021 Adobe (http://www.adobe.com/).
Noto is a trademark of Google Inc.
This Font Software is licensed under the SIL Open Font License, Version 1.1. This Font Software is distributed on an "AS IS" BASIS, WITHOUT WARRANTIES OR CONDITIONS OF ANY KIND, either express or implied. See the SIL Open Font License for the specific language, permissions and limitations governing your use of this Font Software.
http://scripts.sil.org/OFL
  -->
<path d="M252 642L188 668C222 726 264 772 313 809 252 844 166 873 47 895 63 912 83 944 92 961 222 933 315 896 382 852 520 925 704 948 937 957 941 932 955 900 969 883 745 877 572 862 443 804 495 753 522 695 534 633L873 633 873 246 545 246 545 161 935 161 935 93 65 93 65 161 467 161 467 246 156 246 156 633 455 633C443 681 420 726 374 766 326 734 285 694 252 642ZM228 469L467 469 467 509C467 530 467 551 465 571L228 571ZM543 571C544 551 545 531 545 510L545 469 798 469 798 571ZM228 309L467 309 467 409 228 409ZM545 309L798 309 798 409 545 409Z"/>
</svg>