<svg xmlns="http://www.w3.org/2000/svg" name="gid6567" data-unicode="曹"
    viewBox="0 0 1000 1000">
  <!--
© 2014-2021 Adobe (http://www.adobe.com/).
Noto is a trademark of Google Inc.
This Font Software is licensed under the SIL Open Font License, Version 1.1. This Font Software is distributed on an "AS IS" BASIS, WITHOUT WARRANTIES OR CONDITIONS OF ANY KIND, either express or implied. See the SIL Open Font License for the specific language, permissions and limitations governing your use of this Font Software.
http://scripts.sil.org/OFL
  -->
<path d="M269 784L727 784 727 865 269 865ZM269 732L269 660 727 660 727 732ZM192 602L192 959 269 959 269 924 727 924 727 955 808 955 808 602ZM128 238L128 548 866 548 866 238 644 238 644 179 930 179 930 116 644 116 644 41 571 41 571 116 418 116 418 41 345 41 345 116 69 116 69 179 345 179 345 238ZM418 179L571 179 571 238 418 238ZM202 417L345 417 345 492 202 492ZM418 417L571 417 571 492 418 492ZM202 294L345 294 345 368 202 368ZM418 294L571 294 571 368 418 368ZM644 417L789 417 789 492 644 492ZM644 294L789 294 789 368 644 368Z"/>
</svg>