<svg xmlns="http://www.w3.org/2000/svg"
    viewBox="0 0 1000 1000">
  <!--
© 2014-2021 Adobe (http://www.adobe.com/).
Noto is a trademark of Google Inc.
This Font Software is licensed under the SIL Open Font License, Version 1.1. This Font Software is distributed on an "AS IS" BASIS, WITHOUT WARRANTIES OR CONDITIONS OF ANY KIND, either express or implied. See the SIL Open Font License for the specific language, permissions and limitations governing your use of this Font Software.
http://scripts.sil.org/OFL
  -->
<path d="M235 248L774 248 774 336 235 336ZM235 108L774 108 774 194 235 194ZM250 528L411 528C394 582 371 630 343 672 309 643 257 608 210 581 224 564 237 546 250 528ZM161 50L161 393 247 393C201 494 123 585 37 644 53 657 81 682 93 695 118 676 143 654 166 630 214 660 267 699 299 729 238 798 162 847 75 880 92 892 118 919 128 936 300 865 440 724 498 484L453 464 438 467 288 467C300 445 311 423 321 400L296 393 851 393 851 50ZM521 492L521 716 439 716 439 781 725 781 725 932 799 932 799 781 962 781 962 716 799 716 799 556 937 556 937 492 799 492 799 399 725 399 725 492ZM725 716L591 716 591 556 725 556Z"/>
</svg>