<svg xmlns="http://www.w3.org/2000/svg"
    viewBox="0 0 1000 1000">
  <!--
© 2014-2021 Adobe (http://www.adobe.com/).
Noto is a trademark of Google Inc.
This Font Software is licensed under the SIL Open Font License, Version 1.1. This Font Software is distributed on an "AS IS" BASIS, WITHOUT WARRANTIES OR CONDITIONS OF ANY KIND, either express or implied. See the SIL Open Font License for the specific language, permissions and limitations governing your use of this Font Software.
http://scripts.sil.org/OFL
  -->
<path d="M246 207L753 207 753 269 246 269ZM246 97L753 97 753 158 246 158ZM174 45L174 321 827 321 827 45ZM651 421L823 421 823 504 651 504ZM409 421L578 421 578 504 409 504ZM174 421L337 421 337 504 174 504ZM103 368L103 557 897 557 897 368ZM718 671C664 718 592 754 508 783 424 754 353 717 300 671ZM87 609L87 671 223 671 213 676C264 730 331 775 409 812 296 840 171 856 50 864 61 881 74 911 79 931 225 918 376 895 508 851 629 893 768 918 914 930 923 911 940 882 955 865 833 857 714 840 609 813 707 769 789 712 844 636L798 606 784 609Z"/>
</svg>