<svg xmlns="http://www.w3.org/2000/svg" name="gid6570" data-unicode="曼"
    viewBox="0 0 1000 1000">
  <!--
© 2014-2021 Adobe (http://www.adobe.com/).
Noto is a trademark of Google Inc.
This Font Software is licensed under the SIL Open Font License, Version 1.1. This Font Software is distributed on an "AS IS" BASIS, WITHOUT WARRANTIES OR CONDITIONS OF ANY KIND, either express or implied. See the SIL Open Font License for the specific language, permissions and limitations governing your use of this Font Software.
http://scripts.sil.org/OFL
  -->
<path d="M246 237L753 237 753 299 246 299ZM246 127L753 127 753 188 246 188ZM174 75L174 351 827 351 827 75ZM651 451L823 451 823 534 651 534ZM409 451L578 451 578 534 409 534ZM174 451L337 451 337 534 174 534ZM103 398L103 587 897 587 897 398ZM718 701C664 748 592 784 508 813 424 784 353 747 300 701ZM87 639L87 701 223 701 213 706C264 760 331 805 409 842 296 870 171 886 50 894 61 911 74 941 79 961 225 948 376 925 508 881 629 923 768 948 914 960 923 941 940 912 955 895 833 887 714 870 609 843 707 799 789 742 844 666L798 636 784 639Z"/>
</svg>