<svg xmlns="http://www.w3.org/2000/svg" name="gid6572" data-unicode="曾"
    viewBox="0 0 1000 1000">
  <!--
© 2014-2021 Adobe (http://www.adobe.com/).
Noto is a trademark of Google Inc.
This Font Software is licensed under the SIL Open Font License, Version 1.1. This Font Software is distributed on an "AS IS" BASIS, WITHOUT WARRANTIES OR CONDITIONS OF ANY KIND, either express or implied. See the SIL Open Font License for the specific language, permissions and limitations governing your use of this Font Software.
http://scripts.sil.org/OFL
  -->
<path d="M283 348C308 386 335 436 344 469L398 447C388 414 361 365 334 329ZM651 324C636 361 607 417 584 452L635 470C658 437 687 389 712 343ZM234 312L464 312 464 477 234 477ZM529 312L771 312 771 477 529 477ZM298 84C242 180 140 265 35 317 50 331 75 362 85 377 113 361 141 343 168 323L168 531 840 531 840 319C865 336 892 350 918 362 928 342 950 312 966 297 854 253 739 166 687 65L392 65 392 129 641 129C671 175 710 218 755 257L247 257C295 212 337 161 368 107ZM290 787L718 787 718 870 290 870ZM290 732L290 648 718 648 718 732ZM218 589L218 958 290 958 290 929 718 929 718 958 792 958 792 589Z"/>
</svg>