<svg xmlns="http://www.w3.org/2000/svg"
    viewBox="0 0 1000 1000">
  <!--
© 2014-2021 Adobe (http://www.adobe.com/).
Noto is a trademark of Google Inc.
This Font Software is licensed under the SIL Open Font License, Version 1.1. This Font Software is distributed on an "AS IS" BASIS, WITHOUT WARRANTIES OR CONDITIONS OF ANY KIND, either express or implied. See the SIL Open Font License for the specific language, permissions and limitations governing your use of this Font Software.
http://scripts.sil.org/OFL
  -->
<path d="M250 215L752 215 752 286 250 286ZM250 95L752 95 752 165 250 165ZM178 42L178 339 827 339 827 42ZM396 458L396 526 214 526 214 458ZM49 806L56 873 396 832 396 930 468 930 468 867C483 881 500 907 508 924 578 900 647 865 708 818 767 868 838 906 918 929 928 912 947 884 963 871 885 851 817 818 759 774 825 712 877 633 908 536L862 517 849 520 503 520 503 581 590 581 547 594C574 660 611 720 657 770 600 813 534 845 468 864L468 458 940 458 940 395 58 395 58 458 145 458 145 797ZM609 581L816 581C790 637 752 686 708 728 666 686 632 636 609 581ZM396 583L396 653 214 653 214 583ZM396 709L396 769 214 790 214 709Z"/>
</svg>