<svg xmlns="http://www.w3.org/2000/svg" name="gid6614" data-unicode="朸"
    viewBox="0 0 1000 1000">
  <!--
© 2014-2021 Adobe (http://www.adobe.com/).
Noto is a trademark of Google Inc.
This Font Software is licensed under the SIL Open Font License, Version 1.1. This Font Software is distributed on an "AS IS" BASIS, WITHOUT WARRANTIES OR CONDITIONS OF ANY KIND, either express or implied. See the SIL Open Font License for the specific language, permissions and limitations governing your use of this Font Software.
http://scripts.sil.org/OFL
  -->
<path d="M617 43C617 121 617 199 614 273L449 273 449 344 611 344C598 582 550 786 378 907 398 919 423 943 435 962 620 827 671 602 686 344L866 344C857 712 845 844 822 874 813 887 804 890 787 890 768 890 724 889 675 886 688 906 695 937 698 958 744 960 791 961 820 958 850 954 870 947 888 920 921 877 930 735 941 311 941 300 942 273 942 273L690 273C692 198 693 121 693 43ZM214 40L214 254 52 254 52 326 205 326C170 464 99 622 29 705 41 723 60 753 68 773 122 704 175 593 214 478L214 959 287 959 287 502C324 551 369 612 387 645L434 584C412 557 321 452 287 416L287 326 427 326 427 254 287 254 287 40Z"/>
</svg>