<svg xmlns="http://www.w3.org/2000/svg" name="gid6641" data-unicode="杠"
    viewBox="0 0 1000 1000">
  <!--
© 2014-2021 Adobe (http://www.adobe.com/).
Noto is a trademark of Google Inc.
This Font Software is licensed under the SIL Open Font License, Version 1.1. This Font Software is distributed on an "AS IS" BASIS, WITHOUT WARRANTIES OR CONDITIONS OF ANY KIND, either express or implied. See the SIL Open Font License for the specific language, permissions and limitations governing your use of this Font Software.
http://scripts.sil.org/OFL
  -->
<path d="M214 40L214 234 48 234 48 304 210 304C177 444 109 606 40 695 53 712 72 741 81 763 130 699 177 598 214 493L214 959 289 959 289 437C326 491 372 561 392 597L435 525C415 497 322 377 289 338L289 304 427 304 427 234 289 234 289 40ZM382 820L382 895 959 895 959 820 713 820 713 209 931 209 931 134 431 134 431 209 633 209 633 820Z"/>
</svg>