<svg xmlns="http://www.w3.org/2000/svg"
    viewBox="0 0 1000 1000">
  <!--
© 2014-2021 Adobe (http://www.adobe.com/).
Noto is a trademark of Google Inc.
This Font Software is licensed under the SIL Open Font License, Version 1.1. This Font Software is distributed on an "AS IS" BASIS, WITHOUT WARRANTIES OR CONDITIONS OF ANY KIND, either express or implied. See the SIL Open Font License for the specific language, permissions and limitations governing your use of this Font Software.
http://scripts.sil.org/OFL
  -->
<path d="M792 148C791 237 789 334 785 431L601 431C608 334 615 236 620 148ZM363 822L363 893 964 893 964 822 837 822C843 733 848 620 853 501L965 501 965 431 856 431C860 309 864 184 866 77L418 77 418 148 546 148C542 235 536 333 528 431L376 431 376 501 523 501C514 619 503 733 492 822ZM783 501C778 619 772 733 765 822L566 822C576 734 586 620 595 501ZM205 10L205 222 49 222 49 293 196 293C163 432 97 593 31 680 44 697 63 725 71 745 121 676 169 565 205 452L205 929 277 929 277 481C312 526 353 584 370 616L414 548C394 523 306 424 277 394L277 293 408 293 408 222 277 222 277 10Z"/>
</svg>