<svg xmlns="http://www.w3.org/2000/svg"
    viewBox="0 0 1000 1000">
  <!--
© 2014-2021 Adobe (http://www.adobe.com/).
Noto is a trademark of Google Inc.
This Font Software is licensed under the SIL Open Font License, Version 1.1. This Font Software is distributed on an "AS IS" BASIS, WITHOUT WARRANTIES OR CONDITIONS OF ANY KIND, either express or implied. See the SIL Open Font License for the specific language, permissions and limitations governing your use of this Font Software.
http://scripts.sil.org/OFL
  -->
<path d="M758 139L758 412 581 412 581 139ZM373 412L373 484 508 484C505 624 479 778 350 887 367 897 393 921 405 935 548 816 577 646 581 484L758 484 758 929 831 929 831 484 961 484 961 412 831 412 831 139 936 139 936 68 398 68 398 139 509 139 509 412ZM199 10L199 224 52 224 52 295 191 295C160 432 96 590 32 675 45 692 63 721 71 741 119 676 164 569 199 459L199 929 269 929 269 460C302 513 341 578 358 613L400 555C382 526 298 406 269 371L269 295 391 295 391 224 269 224 269 10Z"/>
</svg>