<svg xmlns="http://www.w3.org/2000/svg" name="gid6686" data-unicode="果"
    viewBox="0 0 1000 1000">
  <!--
© 2014-2021 Adobe (http://www.adobe.com/).
Noto is a trademark of Google Inc.
This Font Software is licensed under the SIL Open Font License, Version 1.1. This Font Software is distributed on an "AS IS" BASIS, WITHOUT WARRANTIES OR CONDITIONS OF ANY KIND, either express or implied. See the SIL Open Font License for the specific language, permissions and limitations governing your use of this Font Software.
http://scripts.sil.org/OFL
  -->
<path d="M159 88L159 486 461 486 461 571 62 571 62 640 400 640C310 736 167 822 36 865 53 881 76 908 88 927 220 877 364 782 461 672L461 960 540 960 540 667C639 774 785 871 914 922 925 903 949 875 965 859 839 817 694 732 601 640L939 640 939 571 540 571 540 486 848 486 848 88ZM236 317L461 317 461 421 236 421ZM540 317L767 317 767 421 540 421ZM236 153L461 153 461 255 236 255ZM540 153L767 153 767 255 540 255Z"/>
</svg>