<svg xmlns="http://www.w3.org/2000/svg" name="gid6690" data-unicode="枢"
    viewBox="0 0 1000 1000">
  <!--
© 2014-2021 Adobe (http://www.adobe.com/).
Noto is a trademark of Google Inc.
This Font Software is licensed under the SIL Open Font License, Version 1.1. This Font Software is distributed on an "AS IS" BASIS, WITHOUT WARRANTIES OR CONDITIONS OF ANY KIND, either express or implied. See the SIL Open Font License for the specific language, permissions and limitations governing your use of this Font Software.
http://scripts.sil.org/OFL
  -->
<path d="M426 98L426 961 499 961 499 909 963 909 963 839 499 839 499 168 946 168 946 98ZM799 221C780 292 754 363 723 430 675 389 624 349 576 314L528 359C582 399 639 446 692 494 644 585 585 668 516 732 533 742 558 763 570 776 637 711 695 631 745 544 801 599 850 654 881 699L934 647C899 597 843 538 778 479 815 405 845 326 870 245ZM196 40L196 254 52 254 52 325 188 325C157 462 93 620 29 705 42 722 60 751 68 771 116 706 161 599 196 489L196 959 266 959 266 505C297 554 333 615 349 648L395 591C376 562 295 448 266 413L266 325 391 325 391 254 266 254 266 40Z"/>
</svg>