<svg xmlns="http://www.w3.org/2000/svg" name="gid6698" data-unicode="枳"
    viewBox="0 0 1000 1000">
  <!--
© 2014-2021 Adobe (http://www.adobe.com/).
Noto is a trademark of Google Inc.
This Font Software is licensed under the SIL Open Font License, Version 1.1. This Font Software is distributed on an "AS IS" BASIS, WITHOUT WARRANTIES OR CONDITIONS OF ANY KIND, either express or implied. See the SIL Open Font License for the specific language, permissions and limitations governing your use of this Font Software.
http://scripts.sil.org/OFL
  -->
<path d="M534 177L846 177 846 529 534 529ZM463 104L463 603 921 603 921 104ZM749 675C809 764 871 884 893 958L967 927C942 851 878 735 817 647ZM545 647C509 749 450 849 381 914 400 925 433 948 448 960 515 889 581 779 622 666ZM207 40L207 254 52 254 52 326 197 326C164 464 96 621 28 705 40 723 59 753 67 773 119 705 169 593 207 479L207 959 280 959 280 505C315 554 355 615 372 647L419 587C399 559 312 453 280 417L280 326 416 326 416 254 280 254 280 40Z"/>
</svg>