<svg xmlns="http://www.w3.org/2000/svg"
    viewBox="0 0 1000 1000">
  <!--
© 2014-2021 Adobe (http://www.adobe.com/).
Noto is a trademark of Google Inc.
This Font Software is licensed under the SIL Open Font License, Version 1.1. This Font Software is distributed on an "AS IS" BASIS, WITHOUT WARRANTIES OR CONDITIONS OF ANY KIND, either express or implied. See the SIL Open Font License for the specific language, permissions and limitations governing your use of this Font Software.
http://scripts.sil.org/OFL
  -->
<path d="M494 330C524 470 548 652 550 756L625 743C621 639 594 460 562 320ZM646 24L646 190 421 190 421 261 951 261 951 190 720 190 720 24ZM802 314C783 468 741 686 704 819L381 819 381 890 964 890 964 819 776 819C812 686 854 484 881 326ZM207 10L207 224 52 224 52 296 197 296C164 434 96 591 28 675 40 693 59 723 67 743 119 675 169 563 207 449L207 929 280 929 280 475C315 524 355 585 372 617L419 557C399 529 312 423 280 387L280 296 397 296 397 224 280 224 280 10Z"/>
</svg>