<svg xmlns="http://www.w3.org/2000/svg"
    viewBox="0 0 1000 1000">
  <!--
© 2014-2021 Adobe (http://www.adobe.com/).
Noto is a trademark of Google Inc.
This Font Software is licensed under the SIL Open Font License, Version 1.1. This Font Software is distributed on an "AS IS" BASIS, WITHOUT WARRANTIES OR CONDITIONS OF ANY KIND, either express or implied. See the SIL Open Font License for the specific language, permissions and limitations governing your use of this Font Software.
http://scripts.sil.org/OFL
  -->
<path d="M184 11L184 204 46 204 46 274 175 274C148 411 91 573 33 664 46 682 66 711 75 734 115 671 154 575 184 474L184 930 254 930 254 403C283 459 316 525 331 563L385 502C366 468 279 325 254 291L254 274 374 274 374 204 254 204 254 11ZM505 564L828 564 828 801 505 801ZM505 493L505 261 828 261 828 493ZM629 11C621 63 604 135 586 190L430 190 430 927 505 927 505 873 828 873 828 921 905 921 905 190 662 190C680 140 700 78 716 23Z"/>
</svg>