<svg xmlns="http://www.w3.org/2000/svg" name="gid6726" data-unicode="柗"
    viewBox="0 0 1000 1000">
  <!--
© 2014-2021 Adobe (http://www.adobe.com/).
Noto is a trademark of Google Inc.
This Font Software is licensed under the SIL Open Font License, Version 1.1. This Font Software is distributed on an "AS IS" BASIS, WITHOUT WARRANTIES OR CONDITIONS OF ANY KIND, either express or implied. See the SIL Open Font License for the specific language, permissions and limitations governing your use of this Font Software.
http://scripts.sil.org/OFL
  -->
<path d="M507 181C484 276 433 392 364 464 381 475 408 496 422 510 497 432 553 306 585 198ZM205 40L205 252 49 252 49 323 196 323C163 462 97 623 31 710 44 727 63 755 71 775 121 706 169 595 205 482L205 959 277 959 277 507C314 552 360 611 380 644L423 576C401 552 308 453 277 424L277 323 411 323 411 252 277 252 277 40ZM546 88L546 158 739 158C772 292 833 419 904 498 919 482 950 458 970 446 892 372 828 232 798 88ZM456 508L456 960 526 960 526 896 822 896 822 960 894 960 894 508ZM526 827L526 577 822 577 822 827Z"/>
</svg>