<svg xmlns="http://www.w3.org/2000/svg"
    viewBox="0 0 1000 1000">
  <!--
© 2014-2021 Adobe (http://www.adobe.com/).
Noto is a trademark of Google Inc.
This Font Software is licensed under the SIL Open Font License, Version 1.1. This Font Software is distributed on an "AS IS" BASIS, WITHOUT WARRANTIES OR CONDITIONS OF ANY KIND, either express or implied. See the SIL Open Font License for the specific language, permissions and limitations governing your use of this Font Software.
http://scripts.sil.org/OFL
  -->
<path d="M186 10L186 203 50 203 50 273 179 273C149 405 86 557 24 637 37 656 56 688 63 709 109 646 153 542 186 435L186 929 257 929 257 376C285 423 318 481 332 511L379 455C360 427 280 316 257 288L257 273 377 273 377 203 257 203 257 10ZM378 80L378 152 565 152C522 322 438 511 311 628 326 641 349 668 361 684 404 643 443 596 477 543L477 930 548 930 548 872 839 872 839 925 912 925 912 424 544 424C587 336 620 243 645 152L957 152 957 80ZM548 801L548 495 839 495 839 801Z"/>
</svg>