<svg xmlns="http://www.w3.org/2000/svg" name="gid6728" data-unicode="柙"
    viewBox="0 0 1000 1000">
  <!--
© 2014-2021 Adobe (http://www.adobe.com/).
Noto is a trademark of Google Inc.
This Font Software is licensed under the SIL Open Font License, Version 1.1. This Font Software is distributed on an "AS IS" BASIS, WITHOUT WARRANTIES OR CONDITIONS OF ANY KIND, either express or implied. See the SIL Open Font License for the specific language, permissions and limitations governing your use of this Font Software.
http://scripts.sil.org/OFL
  -->
<path d="M184 40L184 234 55 234 55 304 178 304C149 442 88 605 27 695 40 712 60 741 68 763 111 700 152 602 184 500L184 959 257 959 257 445C285 495 316 555 330 589L375 522C359 494 283 376 257 341L257 304 364 304 364 234 257 234 257 40ZM483 390L633 390 633 544 483 544ZM483 321L483 171 633 171 633 321ZM849 390L849 544 706 544 706 390ZM849 321L706 321 706 171 849 171ZM411 101L411 669 483 669 483 614 633 614 633 959 706 959 706 614 849 614 849 666 925 666 925 101Z"/>
</svg>