<svg xmlns="http://www.w3.org/2000/svg" name="gid6746" data-unicode="柳"
    viewBox="0 0 1000 1000">
  <!--
© 2014-2021 Adobe (http://www.adobe.com/).
Noto is a trademark of Google Inc.
This Font Software is licensed under the SIL Open Font License, Version 1.1. This Font Software is distributed on an "AS IS" BASIS, WITHOUT WARRANTIES OR CONDITIONS OF ANY KIND, either express or implied. See the SIL Open Font License for the specific language, permissions and limitations governing your use of this Font Software.
http://scripts.sil.org/OFL
  -->
<path d="M545 215L545 500C545 540 544 586 537 632L443 657 443 197C505 168 584 125 644 83L583 39C541 72 473 116 415 148L375 135 375 674 311 690 335 759 523 699C499 780 452 858 356 913 371 925 391 949 400 963 592 846 611 652 611 501L611 215ZM685 134L685 960 752 960 752 198 865 198 865 697C865 709 861 712 850 713 840 714 807 714 768 713 777 730 786 760 789 778 846 778 880 777 904 765 927 754 933 733 933 698L933 134ZM175 40L175 257 52 257 52 327 169 327C142 462 87 621 31 705 43 721 60 749 68 768 108 706 146 606 175 501L175 959 242 959 242 488C268 538 298 598 310 630L349 576C334 548 267 438 242 401L242 327 338 327 338 257 242 257 242 40Z"/>
</svg>