<svg xmlns="http://www.w3.org/2000/svg"
    viewBox="0 0 1000 1000">
  <!--
© 2014-2021 Adobe (http://www.adobe.com/).
Noto is a trademark of Google Inc.
This Font Software is licensed under the SIL Open Font License, Version 1.1. This Font Software is distributed on an "AS IS" BASIS, WITHOUT WARRANTIES OR CONDITIONS OF ANY KIND, either express or implied. See the SIL Open Font License for the specific language, permissions and limitations governing your use of this Font Software.
http://scripts.sil.org/OFL
  -->
<path d="M515 478C494 619 438 788 327 884 343 895 370 917 383 931 500 827 562 647 592 490ZM617 10L617 164 391 164 391 222 277 222 277 10 205 10 205 222 49 222 49 293 196 293C163 432 97 593 31 680 44 697 63 725 71 745 121 676 169 565 205 452L205 929 277 929 277 477C314 522 360 581 380 614L423 546C401 522 308 423 277 394L277 293 391 293 391 352 460 352 460 233 878 233 878 352 950 352 950 164 692 164 692 10ZM511 357L511 425 739 425C763 636 817 824 914 932 929 915 959 893 978 882 879 780 823 579 801 357Z"/>
</svg>