<svg xmlns="http://www.w3.org/2000/svg" name="gid6767" data-unicode="栘"
    viewBox="0 0 1000 1000">
  <!--
© 2014-2021 Adobe (http://www.adobe.com/).
Noto is a trademark of Google Inc.
This Font Software is licensed under the SIL Open Font License, Version 1.1. This Font Software is distributed on an "AS IS" BASIS, WITHOUT WARRANTIES OR CONDITIONS OF ANY KIND, either express or implied. See the SIL Open Font License for the specific language, permissions and limitations governing your use of this Font Software.
http://scripts.sil.org/OFL
  -->
<path d="M630 41C586 118 501 205 378 266L378 254 263 254 263 40 193 40 193 254 52 254 52 325 187 325C156 462 93 620 30 705 43 722 60 751 69 770 115 706 159 602 193 493L193 959 263 959 263 487C293 537 328 599 343 632L385 573C368 547 290 434 263 401L263 325 378 325 378 267C394 278 415 302 426 318 454 303 480 286 504 269 552 302 605 344 640 377 563 430 472 468 380 490 395 505 412 533 420 552 512 526 602 487 681 434 627 519 526 612 383 679 399 690 420 714 430 731 469 712 504 691 537 668 591 704 650 750 688 787 600 846 493 883 380 903 394 919 411 948 418 967 666 914 878 796 960 535L912 514 898 517 705 517C729 488 749 459 767 430L702 419C793 353 867 266 911 154L864 131 850 134 649 134C670 108 689 82 705 55ZM592 196L812 196C783 249 743 296 695 336 659 303 604 262 555 230ZM647 580L865 580C836 645 794 699 743 744 704 707 645 662 592 628 611 613 629 597 647 580Z"/>
</svg>