<svg xmlns="http://www.w3.org/2000/svg"
    viewBox="0 0 1000 1000">
  <!--
© 2014-2021 Adobe (http://www.adobe.com/).
Noto is a trademark of Google Inc.
This Font Software is licensed under the SIL Open Font License, Version 1.1. This Font Software is distributed on an "AS IS" BASIS, WITHOUT WARRANTIES OR CONDITIONS OF ANY KIND, either express or implied. See the SIL Open Font License for the specific language, permissions and limitations governing your use of this Font Software.
http://scripts.sil.org/OFL
  -->
<path d="M410 289L410 928 480 928 480 866 813 866 813 923 885 923 885 289 628 289C642 242 656 185 669 132L923 132 923 62 365 62 365 132 589 132C581 182 568 241 556 289ZM480 611L813 611 813 796 480 796ZM480 542L480 359 813 359 813 542ZM199 10L199 203 50 203 50 273 192 273C160 410 97 569 32 653 46 671 64 704 72 726 119 659 165 550 199 437L199 929 267 929 267 413C295 463 326 522 340 554L385 500C368 471 292 355 267 321L267 273 382 273 382 203 267 203 267 10Z"/>
</svg>