<svg xmlns="http://www.w3.org/2000/svg"
    viewBox="0 0 1000 1000">
  <!--
© 2014-2021 Adobe (http://www.adobe.com/).
Noto is a trademark of Google Inc.
This Font Software is licensed under the SIL Open Font License, Version 1.1. This Font Software is distributed on an "AS IS" BASIS, WITHOUT WARRANTIES OR CONDITIONS OF ANY KIND, either express or implied. See the SIL Open Font License for the specific language, permissions and limitations governing your use of this Font Software.
http://scripts.sil.org/OFL
  -->
<path d="M615 82L615 149 936 149 936 82ZM509 22C466 98 402 176 338 228 351 242 375 272 383 285 449 225 523 132 571 44ZM582 323L582 390 781 390 781 842C781 855 777 859 762 860 747 860 697 861 644 859 655 878 667 909 669 928 739 928 785 927 813 916 842 904 851 882 851 843L851 390 960 390 960 323ZM527 231C482 329 409 429 337 497 350 511 373 543 381 557 405 533 430 504 455 472L455 927 520 927 520 380C547 338 571 295 591 253ZM168 10L168 203 51 203 51 273 158 273C133 405 80 559 27 641 39 657 57 687 64 706 103 643 140 541 168 435L168 929 233 929 233 429C259 478 289 538 301 569L339 517C325 490 260 384 233 343L233 273 321 273 321 203 233 203 233 10Z"/>
</svg>