<svg xmlns="http://www.w3.org/2000/svg" name="gid6800" data-unicode="框"
    viewBox="0 0 1000 1000">
  <!--
© 2014-2021 Adobe (http://www.adobe.com/).
Noto is a trademark of Google Inc.
This Font Software is licensed under the SIL Open Font License, Version 1.1. This Font Software is distributed on an "AS IS" BASIS, WITHOUT WARRANTIES OR CONDITIONS OF ANY KIND, either express or implied. See the SIL Open Font License for the specific language, permissions and limitations governing your use of this Font Software.
http://scripts.sil.org/OFL
  -->
<path d="M517 680L517 746 939 746 939 680 759 680 759 523 906 523 906 459 759 459 759 320 917 320 917 254 533 254 533 320 688 320 688 459 549 459 549 523 688 523 688 680ZM403 92L403 960 475 960 475 904 963 904 963 833 475 833 475 161 949 161 949 92ZM192 40L192 257 52 257 52 327 184 327C155 463 94 621 31 705 43 722 61 750 69 770 115 705 158 600 192 492L192 959 261 959 261 475C290 525 325 586 339 618L381 562C363 535 288 421 261 385L261 327 373 327 373 257 261 257 261 40Z"/>
</svg>