<svg xmlns="http://www.w3.org/2000/svg"
    viewBox="0 0 1000 1000">
  <!--
© 2014-2021 Adobe (http://www.adobe.com/).
Noto is a trademark of Google Inc.
This Font Software is licensed under the SIL Open Font License, Version 1.1. This Font Software is distributed on an "AS IS" BASIS, WITHOUT WARRANTIES OR CONDITIONS OF ANY KIND, either express or implied. See the SIL Open Font License for the specific language, permissions and limitations governing your use of this Font Software.
http://scripts.sil.org/OFL
  -->
<path d="M611 426L611 536 364 536 388 503C370 478 293 377 266 345L266 295 389 295 389 224 266 224 266 10 196 10 196 224 52 224 52 295 188 295C157 432 93 590 29 675 42 692 60 721 68 741 116 676 161 569 196 459L196 929 266 929 266 430C296 475 331 532 345 562L355 548 355 604 571 604C508 700 404 786 299 829 315 844 338 870 349 888 446 841 543 755 611 657L611 930 684 930 684 641C747 736 840 827 925 877 936 859 960 832 976 818 888 775 791 691 731 604L949 604 949 536 684 536 684 426ZM396 56L396 122 507 122C497 257 466 366 354 428 370 441 391 465 399 483 528 408 565 281 579 122L700 122C693 176 684 233 676 274L742 284 750 237 867 237C858 341 847 383 834 397 827 404 819 406 804 406 791 406 756 405 719 402 728 419 735 447 736 466 776 469 815 468 835 467 859 465 875 459 890 443 913 419 925 357 937 204 938 194 940 174 940 174L760 174C766 134 771 93 775 56Z"/>
</svg>