<svg xmlns="http://www.w3.org/2000/svg" name="gid6820" data-unicode="档"
    viewBox="0 0 1000 1000">
  <!--
© 2014-2021 Adobe (http://www.adobe.com/).
Noto is a trademark of Google Inc.
This Font Software is licensed under the SIL Open Font License, Version 1.1. This Font Software is distributed on an "AS IS" BASIS, WITHOUT WARRANTIES OR CONDITIONS OF ANY KIND, either express or implied. See the SIL Open Font License for the specific language, permissions and limitations governing your use of this Font Software.
http://scripts.sil.org/OFL
  -->
<path d="M851 104C830 178 788 283 753 346L813 365C848 305 891 207 925 125ZM397 129C430 201 469 298 486 359L551 333C533 272 493 179 458 106ZM193 40L193 254 47 254 47 325 181 325C151 462 88 620 26 705 38 722 56 752 65 772 113 705 159 593 193 479L193 959 264 959 264 456C295 506 332 568 347 601L393 543C375 515 291 398 264 364L264 325 390 325 390 254 264 254 264 40ZM369 817L369 889 842 889 842 951 916 951 916 409 694 409 694 43 621 43 621 409 392 409 392 482 842 482 842 611 404 611 404 679 842 679 842 817Z"/>
</svg>