<svg xmlns="http://www.w3.org/2000/svg" name="gid6830" data-unicode="桶"
    viewBox="0 0 1000 1000">
  <!--
© 2014-2021 Adobe (http://www.adobe.com/).
Noto is a trademark of Google Inc.
This Font Software is licensed under the SIL Open Font License, Version 1.1. This Font Software is distributed on an "AS IS" BASIS, WITHOUT WARRANTIES OR CONDITIONS OF ANY KIND, either express or implied. See the SIL Open Font License for the specific language, permissions and limitations governing your use of this Font Software.
http://scripts.sil.org/OFL
  -->
<path d="M181 40L181 233 52 233 52 303 174 303C145 434 85 586 25 666 38 684 56 717 63 739 107 677 149 577 181 472L181 959 251 959 251 438C277 484 304 536 317 563L362 509C346 483 278 383 251 346L251 303 367 303 367 233 251 233 251 40ZM381 333L381 959 450 959 450 747 609 747 609 953 678 953 678 747 843 747 843 878C843 890 839 894 828 894 818 894 782 894 743 893 752 911 762 941 765 960 822 960 859 959 883 948 907 936 914 916 914 879L914 333 772 333 784 313C764 300 738 285 709 270 782 226 854 167 904 108L857 73 842 77 386 77 386 141 777 141C738 176 690 211 642 237 597 216 550 197 508 183L473 234C543 259 624 297 687 333ZM450 571L609 571 609 681 450 681ZM450 505L450 400 609 400 609 505ZM843 400L843 505 678 505 678 400ZM843 571L843 681 678 681 678 571Z"/>
</svg>