<svg xmlns="http://www.w3.org/2000/svg"
    viewBox="0 0 1000 1000">
  <!--
© 2014-2021 Adobe (http://www.adobe.com/).
Noto is a trademark of Google Inc.
This Font Software is licensed under the SIL Open Font License, Version 1.1. This Font Software is distributed on an "AS IS" BASIS, WITHOUT WARRANTIES OR CONDITIONS OF ANY KIND, either express or implied. See the SIL Open Font License for the specific language, permissions and limitations governing your use of this Font Software.
http://scripts.sil.org/OFL
  -->
<path d="M50 198C104 216 171 247 205 272L239 216C203 192 136 163 84 149ZM114 60C167 79 233 110 267 135L299 80C265 57 197 27 145 12ZM460 491L460 576 57 576 57 643 389 643C300 733 161 812 34 851 51 866 73 895 85 914 219 865 366 771 460 661L460 930 538 930 538 668C631 773 776 862 913 908 924 889 947 860 964 845 831 807 691 732 604 643L945 643 945 576 538 576 538 491ZM360 51L360 117 545 117C528 287 464 393 325 453 340 465 367 492 377 506 523 432 595 315 617 117L741 117C731 316 720 391 703 410 695 420 687 421 673 421 659 421 627 421 590 417 600 435 607 462 608 481 647 483 685 484 706 481 730 479 747 472 763 453 784 428 795 365 806 209 843 272 876 344 888 393L954 366C937 306 890 215 843 148L809 161 813 82C814 73 814 51 814 51ZM375 159C355 209 320 274 280 314L242 276C185 345 119 418 72 462L126 512C179 455 238 387 287 322L334 351C376 307 409 238 432 185Z"/>
</svg>