<svg xmlns="http://www.w3.org/2000/svg"
    viewBox="0 0 1000 1000">
  <!--
© 2014-2021 Adobe (http://www.adobe.com/).
Noto is a trademark of Google Inc.
This Font Software is licensed under the SIL Open Font License, Version 1.1. This Font Software is distributed on an "AS IS" BASIS, WITHOUT WARRANTIES OR CONDITIONS OF ANY KIND, either express or implied. See the SIL Open Font License for the specific language, permissions and limitations governing your use of this Font Software.
http://scripts.sil.org/OFL
  -->
<path d="M517 327L843 327 843 428 517 428ZM517 171L843 171 843 270 517 270ZM519 504L519 630 353 652 362 720 519 699 519 817C519 902 545 925 646 925 668 925 814 925 837 925 921 925 944 893 954 769 933 765 903 753 886 741 882 839 875 855 831 855 799 855 676 855 652 855 601 855 592 849 592 817L592 690 967 640 959 573 592 621 592 504ZM447 111L447 487 916 487 916 111 688 111 719 21 634 10C630 39 621 78 611 111ZM202 10L202 224 52 224 52 295 193 295C162 433 95 590 28 675 41 692 60 721 67 741 117 675 165 566 202 453L202 929 273 929 273 468C306 516 344 576 361 608L407 549C388 522 301 412 273 380L273 295 403 295 403 224 273 224 273 10Z"/>
</svg>