<svg xmlns="http://www.w3.org/2000/svg"
    viewBox="0 0 1000 1000">
  <!--
© 2014-2021 Adobe (http://www.adobe.com/).
Noto is a trademark of Google Inc.
This Font Software is licensed under the SIL Open Font License, Version 1.1. This Font Software is distributed on an "AS IS" BASIS, WITHOUT WARRANTIES OR CONDITIONS OF ANY KIND, either express or implied. See the SIL Open Font License for the specific language, permissions and limitations governing your use of this Font Software.
http://scripts.sil.org/OFL
  -->
<path d="M476 232C499 288 520 363 525 409L594 388C588 343 565 271 541 215ZM631 10L631 136 404 136 404 206 798 206C785 261 757 340 734 389L793 409C818 363 847 290 874 227L801 206 941 206 941 136 705 136 705 10ZM397 621L397 691 631 691 631 930 705 930 705 691 946 691 946 621 705 621 705 484 965 484 965 413 369 413 369 484 631 484 631 621ZM196 10L196 224 52 224 52 295 188 295C157 432 93 590 29 675 42 692 60 721 68 741 116 676 161 569 196 459L196 929 266 929 266 475C297 524 333 585 349 618L395 561C376 532 295 418 266 383L266 295 391 295 391 224 266 224 266 10Z"/>
</svg>