<svg xmlns="http://www.w3.org/2000/svg" name="gid6851" data-unicode="梖"
    viewBox="0 0 1000 1000">
  <!--
© 2014-2021 Adobe (http://www.adobe.com/).
Noto is a trademark of Google Inc.
This Font Software is licensed under the SIL Open Font License, Version 1.1. This Font Software is distributed on an "AS IS" BASIS, WITHOUT WARRANTIES OR CONDITIONS OF ANY KIND, either express or implied. See the SIL Open Font License for the specific language, permissions and limitations governing your use of this Font Software.
http://scripts.sil.org/OFL
  -->
<path d="M503 348L821 348 821 475 503 475ZM503 540L821 540 821 667 503 667ZM503 157L821 157 821 283 503 283ZM430 88L430 737 897 737 897 88ZM715 797C781 847 855 913 895 962L965 921C920 873 842 807 771 757ZM533 756C489 810 403 877 324 914 343 926 373 948 388 961 464 924 553 855 606 794ZM202 40L202 254 52 254 52 325 193 325C161 463 94 620 27 705 40 722 59 752 67 772 117 705 166 595 202 481L202 959 273 959 273 500C306 549 347 610 364 643L409 584C390 556 302 443 273 411L273 325 398 325 398 254 273 254 273 40Z"/>
</svg>