<svg xmlns="http://www.w3.org/2000/svg"
    viewBox="0 0 1000 1000">
  <!--
© 2014-2021 Adobe (http://www.adobe.com/).
Noto is a trademark of Google Inc.
This Font Software is licensed under the SIL Open Font License, Version 1.1. This Font Software is distributed on an "AS IS" BASIS, WITHOUT WARRANTIES OR CONDITIONS OF ANY KIND, either express or implied. See the SIL Open Font License for the specific language, permissions and limitations governing your use of this Font Software.
http://scripts.sil.org/OFL
  -->
<path d="M460 569L460 642 57 642 57 704 386 704C295 773 158 832 38 861 53 875 74 903 85 921 214 882 366 805 460 715L460 929 536 929 536 717C630 806 783 880 916 916 927 897 948 869 964 855 839 829 699 773 609 704L945 704 945 642 536 642 536 569ZM431 10C425 32 413 62 402 88L164 88 164 518 805 518C798 550 791 566 784 573 777 578 770 579 755 579 742 579 705 578 666 575 675 589 681 611 682 626 726 629 768 629 789 628 812 628 829 623 844 610 863 594 874 562 884 494 886 484 887 467 887 467L237 467 237 422 950 422 950 371 237 371 237 326 812 326 812 88 476 88C487 68 499 45 510 22ZM736 231L736 276 237 276 237 231ZM736 182L237 182 237 137 736 137Z"/>
</svg>