<svg xmlns="http://www.w3.org/2000/svg"
    viewBox="0 0 1000 1000">
  <!--
© 2014-2021 Adobe (http://www.adobe.com/).
Noto is a trademark of Google Inc.
This Font Software is licensed under the SIL Open Font License, Version 1.1. This Font Software is distributed on an "AS IS" BASIS, WITHOUT WARRANTIES OR CONDITIONS OF ANY KIND, either express or implied. See the SIL Open Font License for the specific language, permissions and limitations governing your use of this Font Software.
http://scripts.sil.org/OFL
  -->
<path d="M540 118L830 118 830 326 540 326ZM442 522L442 930 514 930 514 882 862 882 862 926 936 926 936 522 690 522 723 393 904 393 904 50 469 50 469 393 640 393C634 435 625 483 616 522ZM514 814L514 591 862 591 862 814ZM212 10L212 222 52 222 52 293 206 293C172 433 99 594 29 684 42 701 62 730 70 751 122 684 172 579 212 470L212 929 286 929 286 476C321 524 364 585 382 618L426 546C406 521 315 414 286 383L286 293 432 293 432 222 286 222 286 10Z"/>
</svg>