<svg xmlns="http://www.w3.org/2000/svg"
    viewBox="0 0 1000 1000">
  <!--
© 2014-2021 Adobe (http://www.adobe.com/).
Noto is a trademark of Google Inc.
This Font Software is licensed under the SIL Open Font License, Version 1.1. This Font Software is distributed on an "AS IS" BASIS, WITHOUT WARRANTIES OR CONDITIONS OF ANY KIND, either express or implied. See the SIL Open Font License for the specific language, permissions and limitations governing your use of this Font Software.
http://scripts.sil.org/OFL
  -->
<path d="M573 8C552 64 515 141 482 199L383 202 386 270 530 263C516 353 479 409 363 441 377 452 395 477 402 492 538 451 583 377 599 260L706 254 706 380C706 444 722 461 792 461 805 461 871 461 885 461 937 461 956 439 962 351 944 346 917 337 903 326 900 394 896 402 876 402 862 402 811 402 800 402 777 402 773 400 773 380L773 250 866 245C883 268 898 288 908 306L967 269C933 214 858 130 794 70L738 102C764 127 791 156 817 185L556 196C588 145 621 82 649 28ZM563 597L785 597C756 649 717 693 669 730 624 693 586 650 559 602ZM591 438C546 535 456 630 350 688 365 699 386 721 396 734 437 710 477 681 513 648 541 692 575 733 614 768 533 817 438 850 341 868 354 884 371 912 378 930 483 907 583 870 669 814 741 866 825 905 919 929 929 910 949 882 965 867 876 848 795 816 726 772 794 716 849 645 883 555L836 533 822 537 612 537C629 512 645 486 659 460ZM192 10L192 227 52 227 52 297 184 297C155 433 94 591 31 675 43 692 61 720 69 740 115 675 158 570 192 462L192 929 261 929 261 449C291 500 326 562 340 595L382 539C365 512 288 395 261 360L261 297 370 297 370 227 261 227 261 10Z"/>
</svg>