<svg xmlns="http://www.w3.org/2000/svg"
    viewBox="0 0 1000 1000">
  <!--
© 2014-2021 Adobe (http://www.adobe.com/).
Noto is a trademark of Google Inc.
This Font Software is licensed under the SIL Open Font License, Version 1.1. This Font Software is distributed on an "AS IS" BASIS, WITHOUT WARRANTIES OR CONDITIONS OF ANY KIND, either express or implied. See the SIL Open Font License for the specific language, permissions and limitations governing your use of this Font Software.
http://scripts.sil.org/OFL
  -->
<path d="M624 152L624 306 476 306 476 368 613 368C579 475 519 584 456 643 467 658 482 683 489 701 540 651 588 568 624 479L624 771 688 771 688 461C725 550 772 636 818 687 828 674 845 656 859 646L859 809 443 809 443 116 859 116 859 642C801 583 739 474 702 368L834 368 834 306 688 306 688 152ZM375 51L375 934 443 934 443 875 859 875 859 925 929 925 929 51ZM178 10L178 227 52 227 52 297 171 297C143 432 87 591 30 675 43 692 60 720 68 739 109 676 148 574 178 469L178 929 246 929 246 456C274 506 307 571 320 603L359 549C344 521 270 405 246 372L246 297 352 297 352 227 246 227 246 10Z"/>
</svg>