<svg xmlns="http://www.w3.org/2000/svg"
    viewBox="0 0 1000 1000">
  <!--
© 2014-2021 Adobe (http://www.adobe.com/).
Noto is a trademark of Google Inc.
This Font Software is licensed under the SIL Open Font License, Version 1.1. This Font Software is distributed on an "AS IS" BASIS, WITHOUT WARRANTIES OR CONDITIONS OF ANY KIND, either express or implied. See the SIL Open Font License for the specific language, permissions and limitations governing your use of this Font Software.
http://scripts.sil.org/OFL
  -->
<path d="M460 487L460 572 57 572 57 639 394 639C306 731 165 811 37 852 53 866 74 894 86 912 219 862 367 768 460 658L460 930 535 930 535 659C628 767 776 859 913 906 925 887 947 858 964 843 831 805 689 729 602 639L945 639 945 572 535 572 535 487ZM595 8C572 90 534 168 485 227L485 181 314 181 314 93C371 85 425 74 468 61L413 13C334 38 184 55 59 63 67 77 76 101 78 115 131 113 188 108 244 102L244 181 55 181 55 242 225 242C178 312 103 384 39 421 55 433 75 455 86 471 138 435 197 375 244 312L244 493 314 493 314 315C357 346 413 390 437 413L475 361C449 341 347 273 314 254L314 242 472 242 445 269C462 278 490 299 502 309 536 275 568 231 596 181L690 181C653 289 590 380 510 442 525 452 552 474 564 485 648 414 719 308 762 181L856 181C845 335 833 396 816 413 810 422 801 423 788 423 774 423 742 423 706 419 716 437 722 465 724 483 762 485 797 485 818 483 842 482 858 475 873 458 898 430 913 352 927 146 928 136 929 116 929 116L627 116C640 86 652 54 661 22Z"/>
</svg>