<svg xmlns="http://www.w3.org/2000/svg"
    viewBox="0 0 1000 1000">
  <!--
© 2014-2021 Adobe (http://www.adobe.com/).
Noto is a trademark of Google Inc.
This Font Software is licensed under the SIL Open Font License, Version 1.1. This Font Software is distributed on an "AS IS" BASIS, WITHOUT WARRANTIES OR CONDITIONS OF ANY KIND, either express or implied. See the SIL Open Font License for the specific language, permissions and limitations governing your use of this Font Software.
http://scripts.sil.org/OFL
  -->
<path d="M590 172C616 233 640 313 647 362L717 344C710 296 684 217 656 158ZM772 152C828 223 881 319 900 382L965 354C945 290 889 196 833 127ZM199 10L199 227 52 227 52 297 191 297C159 434 96 591 31 675 44 692 62 721 70 740 118 675 164 568 199 458L199 929 269 929 269 408C300 450 336 502 351 530L392 472C375 448 297 357 269 328L269 297 380 297 380 227 269 227 269 10ZM452 71C438 165 408 288 355 364 372 373 399 391 414 404 461 336 494 234 516 141 654 130 815 107 920 72L865 15C781 45 632 67 499 80ZM622 392L622 504 374 504 374 570 575 570C516 677 417 776 317 827 334 840 356 867 368 885 465 829 560 728 622 615L622 930 694 930 694 620C753 727 841 829 925 886 937 868 959 842 976 829 887 777 793 675 738 570L950 570 950 504 694 504 694 392Z"/>
</svg>