<svg xmlns="http://www.w3.org/2000/svg"
    viewBox="0 0 1000 1000">
  <!--
© 2014-2021 Adobe (http://www.adobe.com/).
Noto is a trademark of Google Inc.
This Font Software is licensed under the SIL Open Font License, Version 1.1. This Font Software is distributed on an "AS IS" BASIS, WITHOUT WARRANTIES OR CONDITIONS OF ANY KIND, either express or implied. See the SIL Open Font License for the specific language, permissions and limitations governing your use of this Font Software.
http://scripts.sil.org/OFL
  -->
<path d="M476 319L476 385 881 385 881 319ZM474 632C447 706 400 779 349 829 367 838 397 858 410 870 462 816 513 732 545 650ZM794 661C834 725 879 812 899 865L966 833C945 782 897 697 857 634ZM407 496L407 562 635 562 635 849C635 860 631 864 617 864 604 865 560 865 510 863 520 883 530 912 533 932 600 932 645 932 673 920 701 909 709 889 709 850L709 562 949 562 949 496ZM411 142L411 305 480 305 480 207 871 207 871 305 943 305 943 142 709 142 709 10 635 10 635 142ZM193 10L193 224 52 224 52 295 187 295C156 432 93 590 30 675 43 692 60 721 69 740 115 676 159 572 193 463L193 929 263 929 263 457C293 507 328 569 343 602L385 543C368 517 290 404 263 371L263 295 380 295 380 224 263 224 263 10Z"/>
</svg>