<svg xmlns="http://www.w3.org/2000/svg"
    viewBox="0 0 1000 1000">
  <!--
© 2014-2021 Adobe (http://www.adobe.com/).
Noto is a trademark of Google Inc.
This Font Software is licensed under the SIL Open Font License, Version 1.1. This Font Software is distributed on an "AS IS" BASIS, WITHOUT WARRANTIES OR CONDITIONS OF ANY KIND, either express or implied. See the SIL Open Font License for the specific language, permissions and limitations governing your use of this Font Software.
http://scripts.sil.org/OFL
  -->
<path d="M786 497C826 521 872 557 894 584L933 543C911 517 864 482 824 461ZM199 10L199 227 52 227 52 297 191 297C159 434 96 591 31 675 44 692 62 721 70 740 118 675 164 568 199 458L199 929 269 929 269 455C303 506 344 570 360 605L403 548C384 520 298 406 269 371L269 297 386 297 386 227 269 227 269 10ZM488 269L861 269 861 387 488 387ZM861 24C766 50 601 71 456 83L418 71 418 409C418 556 407 742 299 879 317 889 343 913 353 928 462 791 484 600 488 451L932 451 932 205 488 205 488 140C636 130 800 110 914 82ZM673 467L673 587 486 587 486 651 668 651C655 731 603 817 438 878 452 891 472 916 482 929 615 877 681 809 712 737 755 830 823 894 928 929 937 910 957 884 973 869 852 837 781 761 746 651L955 651 955 587 739 587 739 467Z"/>
</svg>