<svg xmlns="http://www.w3.org/2000/svg"
    viewBox="0 0 1000 1000">
  <!--
© 2014-2021 Adobe (http://www.adobe.com/).
Noto is a trademark of Google Inc.
This Font Software is licensed under the SIL Open Font License, Version 1.1. This Font Software is distributed on an "AS IS" BASIS, WITHOUT WARRANTIES OR CONDITIONS OF ANY KIND, either express or implied. See the SIL Open Font License for the specific language, permissions and limitations governing your use of this Font Software.
http://scripts.sil.org/OFL
  -->
<path d="M446 49C425 113 388 177 343 224L343 212 251 212 251 10 183 10 183 212 52 212 52 282 176 282C148 418 87 576 28 660 40 677 58 706 66 726 110 662 151 559 183 452L183 929 251 929 251 406C279 452 311 509 324 538L364 484C347 458 276 356 251 324L251 282 343 282 343 259C357 268 371 277 380 284 402 262 423 235 443 206L443 258 555 258C542 295 527 330 510 364L346 364 346 430 472 430C427 497 370 556 297 600 311 612 333 636 343 651 388 623 428 590 462 553L462 819C462 903 490 924 594 924 616 924 774 924 798 924 883 924 907 893 916 774 896 770 866 758 849 747 845 841 838 856 792 856 758 856 625 856 599 856 543 856 533 850 533 818L533 595 742 595C737 659 730 685 722 696 716 701 709 702 697 702 686 702 656 702 623 699 631 714 638 738 638 756 675 757 710 758 727 756 749 754 764 749 778 735 795 716 804 669 811 561 812 552 813 535 813 535L478 535C506 503 530 467 552 430L744 430C793 517 855 591 924 637 936 619 958 593 975 580 918 546 866 493 823 430L948 430 948 364 783 364C765 330 750 294 737 258L854 258 854 194C875 226 893 255 904 279L964 242C936 188 874 106 819 45L763 77C794 111 826 153 853 193L646 193C661 137 673 80 682 23L610 13C602 73 591 134 575 193L451 193C476 154 498 110 513 65ZM711 364L586 364C601 330 615 294 627 258L671 258C682 294 696 330 711 364Z"/>
</svg>