<svg xmlns="http://www.w3.org/2000/svg" name="gid6921" data-unicode="森"
    viewBox="0 0 1000 1000">
  <!--
© 2014-2021 Adobe (http://www.adobe.com/).
Noto is a trademark of Google Inc.
This Font Software is licensed under the SIL Open Font License, Version 1.1. This Font Software is distributed on an "AS IS" BASIS, WITHOUT WARRANTIES OR CONDITIONS OF ANY KIND, either express or implied. See the SIL Open Font License for the specific language, permissions and limitations governing your use of this Font Software.
http://scripts.sil.org/OFL
  -->
<path d="M458 38L458 151 106 151 106 219 390 219C308 304 185 376 68 412 83 426 104 453 115 470 240 425 371 341 458 240L458 479 533 479 533 236C623 337 760 421 890 466 901 447 923 418 939 404 815 370 687 301 601 219L897 219 897 151 533 151 533 38ZM234 446L234 567 53 567 53 633 204 633C161 715 94 794 28 837 39 856 55 885 62 905 128 861 188 784 234 700L234 961 305 961 305 725C344 758 389 798 409 819L453 762C431 745 342 681 305 656L305 633 453 633 453 567 305 567 305 446ZM669 446L669 567 496 567 496 633 626 633C576 728 497 817 417 863 432 876 453 900 464 917 542 866 617 777 669 678L669 961 740 961 740 674C790 769 860 861 926 914 939 895 963 869 979 855 909 809 832 721 780 633L952 633 952 567 740 567 740 446Z"/>
</svg>