<svg xmlns="http://www.w3.org/2000/svg"
    viewBox="0 0 1000 1000">
  <!--
© 2014-2021 Adobe (http://www.adobe.com/).
Noto is a trademark of Google Inc.
This Font Software is licensed under the SIL Open Font License, Version 1.1. This Font Software is distributed on an "AS IS" BASIS, WITHOUT WARRANTIES OR CONDITIONS OF ANY KIND, either express or implied. See the SIL Open Font License for the specific language, permissions and limitations governing your use of this Font Software.
http://scripts.sil.org/OFL
  -->
<path d="M631 10L631 69 363 69 363 10 291 10 291 69 55 69 55 131 291 131 291 200 363 200 363 131 631 131 631 200 704 200 704 131 948 131 948 69 704 69 704 10ZM460 540L460 627 62 627 62 689 389 689C300 763 161 826 34 856 50 871 69 896 79 914 215 876 365 798 460 705L460 930 535 930 535 700C631 795 781 873 919 911 929 892 949 865 964 850 838 822 700 761 610 689L941 689 941 627 535 627 535 540ZM397 214L397 274 637 274C663 305 698 333 738 357L250 357C304 325 351 286 382 241L315 221C266 290 160 341 55 370 70 383 93 411 104 425 145 410 187 392 227 370L227 416 407 416C362 495 253 530 126 547 137 560 154 587 159 602 306 576 428 526 479 416L697 416C689 470 680 495 669 505 662 511 655 511 641 511 627 511 591 511 552 507 562 523 568 547 569 564 611 567 651 567 672 565 695 564 712 559 727 545 747 526 760 482 772 385L773 377C812 398 853 415 894 428 905 412 930 388 947 375 839 348 724 289 676 214Z"/>
</svg>