<svg xmlns="http://www.w3.org/2000/svg" name="gid6931" data-unicode="棻"
    viewBox="0 0 1000 1000">
  <!--
© 2014-2021 Adobe (http://www.adobe.com/).
Noto is a trademark of Google Inc.
This Font Software is licensed under the SIL Open Font License, Version 1.1. This Font Software is distributed on an "AS IS" BASIS, WITHOUT WARRANTIES OR CONDITIONS OF ANY KIND, either express or implied. See the SIL Open Font License for the specific language, permissions and limitations governing your use of this Font Software.
http://scripts.sil.org/OFL
  -->
<path d="M631 40L631 99 363 99 363 40 291 40 291 99 55 99 55 161 291 161 291 230 363 230 363 161 631 161 631 230 704 230 704 161 948 161 948 99 704 99 704 40ZM460 570L460 657 62 657 62 719 389 719C300 793 161 856 34 886 50 901 69 926 79 944 215 906 365 828 460 735L460 960 535 960 535 730C631 825 781 903 919 941 929 922 949 895 964 880 838 852 700 791 610 719L941 719 941 657 535 657 535 570ZM397 244L397 304 637 304C663 335 698 363 738 387L250 387C304 355 351 316 382 271L315 251C266 320 160 371 55 400 70 413 93 441 104 455 145 440 187 422 227 400L227 446 407 446C362 525 253 560 126 577 137 590 154 617 159 632 306 606 428 556 479 446L697 446C689 500 680 525 669 535 662 541 655 541 641 541 627 541 591 541 552 537 562 553 568 577 569 594 611 597 651 597 672 595 695 594 712 589 727 575 747 556 760 512 772 415L773 407C812 428 853 445 894 458 905 442 930 418 947 405 839 378 724 319 676 244Z"/>
</svg>