<svg xmlns="http://www.w3.org/2000/svg"
    viewBox="0 0 1000 1000">
  <!--
© 2014-2021 Adobe (http://www.adobe.com/).
Noto is a trademark of Google Inc.
This Font Software is licensed under the SIL Open Font License, Version 1.1. This Font Software is distributed on an "AS IS" BASIS, WITHOUT WARRANTIES OR CONDITIONS OF ANY KIND, either express or implied. See the SIL Open Font License for the specific language, permissions and limitations governing your use of this Font Software.
http://scripts.sil.org/OFL
  -->
<path d="M684 350L684 814C684 893 704 912 772 912 787 912 866 912 882 912 941 912 959 881 967 771 947 766 922 755 907 743 905 832 900 848 876 848 859 848 793 848 780 848 752 848 748 843 748 814L748 411 856 411 856 629C856 637 854 640 845 640 837 641 813 641 780 640 789 657 797 682 800 700 845 700 875 699 896 688 916 678 920 660 920 630L920 350ZM492 431L593 431C584 493 571 549 554 598 528 574 490 546 456 525 469 495 481 464 492 431ZM467 262C442 403 396 534 324 619 339 629 366 651 376 662 395 638 412 611 428 581 465 607 503 639 529 664 485 762 424 832 349 878 362 889 385 916 394 931 535 842 632 667 665 379L625 368 612 369 510 369C518 338 526 306 532 273ZM384 141L384 309 452 309 452 205 878 205 878 309 948 309 948 141 703 141 703 10 630 10 630 141ZM186 10L186 227 52 227 52 297 179 297C151 433 91 591 31 675 43 692 61 721 69 740 113 677 154 573 186 466L186 929 254 929 254 423C282 468 314 524 327 553L366 497C350 473 279 373 254 341L254 297 362 297 362 227 254 227 254 10Z"/>
</svg>