<svg xmlns="http://www.w3.org/2000/svg" name="gid6937" data-unicode="椄"
    viewBox="0 0 1000 1000">
  <!--
© 2014-2021 Adobe (http://www.adobe.com/).
Noto is a trademark of Google Inc.
This Font Software is licensed under the SIL Open Font License, Version 1.1. This Font Software is distributed on an "AS IS" BASIS, WITHOUT WARRANTIES OR CONDITIONS OF ANY KIND, either express or implied. See the SIL Open Font License for the specific language, permissions and limitations governing your use of this Font Software.
http://scripts.sil.org/OFL
  -->
<path d="M483 225C503 271 521 330 527 370L362 370 362 437 962 437 962 370 799 370C819 329 842 272 864 222L820 211 935 211 935 145 701 145 701 40 627 40 627 145 405 145 405 211 534 211ZM551 211L782 211C770 257 749 321 730 362L757 370 561 370 597 359C593 321 573 259 551 211ZM199 40L199 254 52 254 52 325 191 325C160 462 96 620 32 705 45 722 63 751 71 771 119 706 164 599 199 489L199 959 269 959 269 460C299 506 334 564 350 595L369 568 369 614 510 614C483 671 456 724 434 765L499 787 509 768C548 783 588 799 629 818 566 853 477 879 350 896 364 910 380 941 386 958 533 935 634 901 704 853 779 890 847 930 892 963L941 908C896 875 831 838 760 804 808 753 834 690 850 614L959 614 959 548 618 548 661 452 588 437C574 471 558 509 540 548L383 548 392 536C375 510 297 405 269 373L269 325 391 325 391 254 269 254 269 40ZM586 614L772 614C758 677 735 730 690 773 638 750 586 730 538 713Z"/>
</svg>