<svg xmlns="http://www.w3.org/2000/svg" name="gid6938" data-unicode="椅"
    viewBox="0 0 1000 1000">
  <!--
© 2014-2021 Adobe (http://www.adobe.com/).
Noto is a trademark of Google Inc.
This Font Software is licensed under the SIL Open Font License, Version 1.1. This Font Software is distributed on an "AS IS" BASIS, WITHOUT WARRANTIES OR CONDITIONS OF ANY KIND, either express or implied. See the SIL Open Font License for the specific language, permissions and limitations governing your use of this Font Software.
http://scripts.sil.org/OFL
  -->
<path d="M441 548L441 841 506 841 506 784 716 784 716 548ZM506 604L649 604 649 728 506 728ZM642 41C640 73 637 102 633 129L417 129 417 191 618 191C590 275 530 325 391 355 404 368 423 393 428 410 548 382 617 339 657 276 738 319 831 373 881 406L930 355C874 317 768 260 685 219L693 191 921 191 921 129 706 129C710 102 712 73 714 41ZM375 410L375 473 810 473 810 873C810 888 805 892 788 893 771 893 713 893 648 891 659 911 672 940 676 960 758 960 810 959 842 948 874 937 884 916 884 874L884 473 959 473 959 410ZM186 40L186 233 49 233 49 303 177 303C150 439 91 598 33 683 46 701 64 735 72 756 114 690 155 584 186 474L186 959 256 959 256 448C281 496 308 550 320 581L368 525C352 497 284 387 256 348L256 303 366 303 366 233 256 233 256 40Z"/>
</svg>