<svg xmlns="http://www.w3.org/2000/svg"
    viewBox="0 0 1000 1000">
  <!--
© 2014-2021 Adobe (http://www.adobe.com/).
Noto is a trademark of Google Inc.
This Font Software is licensed under the SIL Open Font License, Version 1.1. This Font Software is distributed on an "AS IS" BASIS, WITHOUT WARRANTIES OR CONDITIONS OF ANY KIND, either express or implied. See the SIL Open Font License for the specific language, permissions and limitations governing your use of this Font Software.
http://scripts.sil.org/OFL
  -->
<path d="M451 269L568 269 568 371 451 371ZM451 212L451 114 568 114 568 212ZM738 269L861 269 861 371 738 371ZM738 212L738 114 861 114 861 212ZM382 54L382 929 451 929 451 431 629 431 629 54ZM861 54L677 54 677 431 861 431 861 838C861 853 856 857 842 858 827 859 778 859 727 857 737 876 747 910 751 929 820 929 865 928 894 916 922 904 930 881 930 838L930 54ZM178 10L178 227 52 227 52 297 171 297C143 432 87 591 30 675 43 692 60 720 68 739 109 676 148 574 178 469L178 929 246 929 246 456C274 506 307 571 320 603L359 549C344 521 270 405 246 372L246 297 355 297 355 227 246 227 246 10Z"/>
</svg>