<svg xmlns="http://www.w3.org/2000/svg"
    viewBox="0 0 1000 1000">
  <!--
© 2014-2021 Adobe (http://www.adobe.com/).
Noto is a trademark of Google Inc.
This Font Software is licensed under the SIL Open Font License, Version 1.1. This Font Software is distributed on an "AS IS" BASIS, WITHOUT WARRANTIES OR CONDITIONS OF ANY KIND, either express or implied. See the SIL Open Font License for the specific language, permissions and limitations governing your use of this Font Software.
http://scripts.sil.org/OFL
  -->
<path d="M464 37C498 101 529 185 537 238L604 215C595 162 562 80 527 18ZM414 422C444 528 464 665 463 746L526 730C526 650 503 515 472 410ZM810 12C792 73 755 162 726 217L785 239C816 186 854 105 886 35ZM858 401C846 502 817 648 793 733L842 749C870 668 903 526 928 420ZM364 829L364 898 961 898 961 829 772 829 772 319 941 319 941 250 404 250 404 319 559 319 559 829ZM627 319L705 319 705 829 627 829ZM193 10L193 224 52 224 52 295 187 295C156 432 93 590 30 675 43 692 60 721 69 740 115 676 159 572 193 463L193 929 263 929 263 457C293 507 328 569 343 602L385 543C368 517 290 404 263 371L263 295 380 295 380 224 263 224 263 10Z"/>
</svg>