<svg xmlns="http://www.w3.org/2000/svg"
    viewBox="0 0 1000 1000">
  <!--
© 2014-2021 Adobe (http://www.adobe.com/).
Noto is a trademark of Google Inc.
This Font Software is licensed under the SIL Open Font License, Version 1.1. This Font Software is distributed on an "AS IS" BASIS, WITHOUT WARRANTIES OR CONDITIONS OF ANY KIND, either express or implied. See the SIL Open Font License for the specific language, permissions and limitations governing your use of this Font Software.
http://scripts.sil.org/OFL
  -->
<path d="M732 21C716 57 694 93 667 127 633 106 598 85 566 68L526 105C559 124 595 146 630 169 595 205 554 238 510 263 523 273 541 291 549 303 596 275 639 240 677 202 715 228 748 255 771 277L814 234C790 212 754 185 715 159 744 123 768 84 787 44ZM587 493C551 567 475 650 359 708 374 718 395 741 405 757 448 733 485 708 518 680 544 720 575 757 612 788 534 830 441 857 344 871 357 886 372 913 379 930 484 911 583 880 667 831 738 879 824 913 920 933 929 914 948 888 963 872 874 857 794 829 726 791 792 740 844 675 877 591L832 571 819 574 616 574C632 551 646 528 658 505ZM781 632C754 680 715 720 669 753 626 720 590 681 563 637L568 632ZM425 35L425 372 539 372C523 451 478 497 352 522 366 534 383 560 390 576 535 540 588 478 607 372L705 372 705 455C705 519 720 536 789 536 803 536 867 536 881 536 935 536 953 513 960 414 941 410 914 400 900 389 898 468 894 477 872 477 858 477 809 477 799 477 776 477 772 474 772 455L772 372 910 372 910 35 841 35 841 309 491 309 491 35ZM192 10L192 227 52 227 52 297 184 297C155 433 94 591 31 675 43 692 61 720 69 740 115 675 158 570 192 462L192 929 261 929 261 390C289 436 322 492 336 521L377 466C360 441 287 338 261 305L261 297 377 297 377 227 261 227 261 10Z"/>
</svg>