<svg xmlns="http://www.w3.org/2000/svg" name="gid6979" data-unicode="楆"
    viewBox="0 0 1000 1000">
  <!--
© 2014-2021 Adobe (http://www.adobe.com/).
Noto is a trademark of Google Inc.
This Font Software is licensed under the SIL Open Font License, Version 1.1. This Font Software is distributed on an "AS IS" BASIS, WITHOUT WARRANTIES OR CONDITIONS OF ANY KIND, either express or implied. See the SIL Open Font License for the specific language, permissions and limitations governing your use of this Font Software.
http://scripts.sil.org/OFL
  -->
<path d="M192 40L192 257 52 257 52 327 184 327C155 463 94 621 31 705 43 722 61 750 69 770 115 705 158 600 192 492L192 959 261 959 261 466C291 515 326 575 340 607L381 552C364 525 288 413 261 378L261 327 374 327 374 257 261 257 261 40ZM399 240L399 501 577 501 531 586 363 586 363 651 494 651C464 704 433 755 407 794L473 817 490 791C533 803 576 817 618 831 551 867 460 888 341 900 353 916 366 943 372 963 515 943 621 912 697 861 776 893 845 928 895 963L948 911C898 878 831 845 755 814 797 771 826 718 845 651L962 651 962 586 613 586 658 505 642 501 932 501 932 240 770 240 770 157 952 157 952 89 374 89 374 157 547 157 547 240ZM610 157L706 157 706 240 610 240ZM575 651L768 651C750 707 722 752 683 787 631 769 577 752 523 738ZM461 303L552 303 552 438 461 438ZM610 303L706 303 706 438 610 438ZM765 303L867 303 867 438 765 438Z"/>
</svg>