<svg xmlns="http://www.w3.org/2000/svg" name="gid6980" data-unicode="楉"
    viewBox="0 0 1000 1000">
  <!--
© 2014-2021 Adobe (http://www.adobe.com/).
Noto is a trademark of Google Inc.
This Font Software is licensed under the SIL Open Font License, Version 1.1. This Font Software is distributed on an "AS IS" BASIS, WITHOUT WARRANTIES OR CONDITIONS OF ANY KIND, either express or implied. See the SIL Open Font License for the specific language, permissions and limitations governing your use of this Font Software.
http://scripts.sil.org/OFL
  -->
<path d="M202 40L202 254 52 254 52 325 193 325C162 463 95 620 28 705 41 722 60 751 67 771 117 705 165 596 202 483L202 959 273 959 273 480C304 527 339 584 355 615L401 556C383 529 300 421 273 390L273 325 400 325 400 254 273 254 273 40ZM769 40L769 145 588 145 588 40 515 40 515 145 389 145 389 213 515 213 515 314 588 314 588 213 769 213 769 314 842 314 842 213 962 213 962 145 842 145 842 40ZM610 284C599 326 586 367 571 406L381 406 381 476 540 476C491 575 425 657 344 716 361 729 389 757 401 772 437 743 470 710 500 673L500 961 571 961 571 912 844 912 844 958 918 958 918 606 549 606C576 566 600 523 621 476L963 476 963 406 650 406C662 372 674 336 684 299ZM571 844L571 674 844 674 844 844Z"/>
</svg>