<svg xmlns="http://www.w3.org/2000/svg" name="gid6988" data-unicode="楚"
    viewBox="0 0 1000 1000">
  <!--
© 2014-2021 Adobe (http://www.adobe.com/).
Noto is a trademark of Google Inc.
This Font Software is licensed under the SIL Open Font License, Version 1.1. This Font Software is distributed on an "AS IS" BASIS, WITHOUT WARRANTIES OR CONDITIONS OF ANY KIND, either express or implied. See the SIL Open Font License for the specific language, permissions and limitations governing your use of this Font Software.
http://scripts.sil.org/OFL
  -->
<path d="M229 594C213 710 178 838 40 905 58 918 80 946 90 965 173 921 225 859 258 789 331 919 446 950 638 950L936 950C940 929 951 897 963 879 910 880 679 881 641 880 603 880 567 879 535 875L535 735 817 735 817 670 535 670 535 547 832 547C817 582 800 616 784 641L849 657C876 615 907 550 932 490L879 476 866 479 77 479 77 547 460 547 460 861C379 838 323 791 290 697 298 664 304 629 309 594ZM241 40L241 133 58 133 58 196 213 196C168 264 98 331 35 365 50 377 72 401 83 418 137 381 196 319 241 254L241 444 309 444 309 275C350 308 405 352 427 375L467 314C443 296 342 233 309 214L309 196 482 196 482 133 309 133 309 40ZM679 40L679 133 503 133 503 196 654 196C608 264 538 330 471 364 487 376 509 401 520 418 575 383 634 324 679 260L679 441 749 441 749 247C797 315 862 381 921 419 933 401 954 377 971 364 904 330 831 264 784 196L949 196 949 133 749 133 749 40Z"/>
</svg>