<svg xmlns="http://www.w3.org/2000/svg"
    viewBox="0 0 1000 1000">
  <!--
© 2014-2021 Adobe (http://www.adobe.com/).
Noto is a trademark of Google Inc.
This Font Software is licensed under the SIL Open Font License, Version 1.1. This Font Software is distributed on an "AS IS" BASIS, WITHOUT WARRANTIES OR CONDITIONS OF ANY KIND, either express or implied. See the SIL Open Font License for the specific language, permissions and limitations governing your use of this Font Software.
http://scripts.sil.org/OFL
  -->
<path d="M488 646L488 835C488 906 509 925 595 925 612 925 718 925 736 925 803 925 824 898 831 789 812 785 783 774 769 763 765 851 760 864 729 864 706 864 620 864 603 864 565 864 558 860 558 836L558 646ZM388 653C378 732 354 813 305 859L361 897C416 844 438 755 450 670ZM535 610C596 642 667 694 700 732L741 681C707 643 635 594 575 563ZM784 667C844 732 896 822 910 886L973 854C958 789 903 702 842 637ZM498 13C466 107 410 195 342 257L342 227 248 227 248 10 179 10 179 227 52 227 52 297 173 297C145 433 85 590 26 675 38 692 56 721 64 740 107 678 147 579 179 475L179 929 248 929 248 434C277 482 312 542 326 574L366 519C349 493 274 384 248 350L248 297 342 297 342 293C355 302 368 313 375 320 416 283 455 236 489 183L582 183C568 217 551 249 532 279L471 260 437 310 496 329C458 378 413 420 363 453 377 462 402 483 413 494 465 456 514 408 556 351L641 386C602 445 554 496 499 535 515 544 542 565 554 575 609 532 658 477 699 412 729 427 756 442 777 455L813 397C791 384 763 370 732 355 759 303 782 245 800 183L873 183C858 386 841 465 820 488 812 497 802 499 788 499 772 499 736 499 695 495 706 513 713 541 714 561 757 563 797 563 820 561 846 558 863 553 880 532 910 499 928 405 946 150 947 140 948 118 948 118L527 118C541 89 554 60 565 29ZM591 299C613 263 632 224 648 183L733 183C718 236 698 285 674 330Z"/>
</svg>