<svg xmlns="http://www.w3.org/2000/svg"
    viewBox="0 0 1000 1000">
  <!--
© 2014-2021 Adobe (http://www.adobe.com/).
Noto is a trademark of Google Inc.
This Font Software is licensed under the SIL Open Font License, Version 1.1. This Font Software is distributed on an "AS IS" BASIS, WITHOUT WARRANTIES OR CONDITIONS OF ANY KIND, either express or implied. See the SIL Open Font License for the specific language, permissions and limitations governing your use of this Font Software.
http://scripts.sil.org/OFL
  -->
<path d="M199 10L199 224 52 224 52 295 191 295C160 432 96 590 32 675 45 692 63 721 71 741 119 676 164 569 199 459L199 929 269 929 269 435C296 479 328 532 344 565L326 573C342 588 366 619 375 633 416 613 456 590 494 566L494 930 564 930 564 888 820 888 820 927 892 927 892 506 840 506 877 471C852 444 804 407 764 381L721 420C757 444 800 480 824 506L579 506C632 466 681 422 726 374L961 374 961 308 784 308C845 233 898 150 942 59L874 36C849 90 819 142 786 191L786 127 646 127 646 11 575 11 575 127 420 127 420 192 575 192 575 308 375 308 375 374 628 374C548 447 458 509 359 558L391 514C373 488 297 380 269 347L269 295 391 295 391 224 269 224 269 10ZM646 192L785 192C757 233 726 272 693 308L646 308ZM564 724L820 724 820 825 564 825ZM564 663L564 565 820 565 820 663Z"/>
</svg>