<svg xmlns="http://www.w3.org/2000/svg" name="gid7013" data-unicode="極"
    viewBox="0 0 1000 1000">
  <!--
© 2014-2021 Adobe (http://www.adobe.com/).
Noto is a trademark of Google Inc.
This Font Software is licensed under the SIL Open Font License, Version 1.1. This Font Software is distributed on an "AS IS" BASIS, WITHOUT WARRANTIES OR CONDITIONS OF ANY KIND, either express or implied. See the SIL Open Font License for the specific language, permissions and limitations governing your use of this Font Software.
http://scripts.sil.org/OFL
  -->
<path d="M330 861L330 925 962 925 962 861ZM345 81L345 146 522 146C506 208 486 277 468 326L537 336 545 311 628 311C624 625 618 734 603 757 596 769 588 772 574 771 561 771 528 771 491 768 501 784 508 810 509 828 544 830 581 830 603 827 628 825 644 817 660 796 683 761 688 647 693 285 693 276 693 252 693 252L562 252 591 146 944 146 944 81ZM763 376L713 388C729 473 754 553 787 622 757 675 721 718 681 746 695 757 713 779 721 793 759 765 792 729 821 684 851 730 887 769 928 797 939 781 958 758 973 746 927 719 887 676 855 624 896 539 925 431 939 300L902 291 890 293 721 293 721 353 873 353C861 428 843 496 819 555 794 500 776 439 763 376ZM364 369L364 739 418 739 418 674 557 674 557 369ZM418 424L502 424 502 619 418 619ZM178 40L178 257 52 257 52 327 171 327C143 463 88 621 31 705 43 721 60 749 68 768 109 704 148 602 178 496L178 959 246 959 246 486C274 536 307 601 320 633L359 579C344 551 270 435 246 402L246 327 355 327 355 257 246 257 246 40Z"/>
</svg>