<svg xmlns="http://www.w3.org/2000/svg"
    viewBox="0 0 1000 1000">
  <!--
© 2014-2021 Adobe (http://www.adobe.com/).
Noto is a trademark of Google Inc.
This Font Software is licensed under the SIL Open Font License, Version 1.1. This Font Software is distributed on an "AS IS" BASIS, WITHOUT WARRANTIES OR CONDITIONS OF ANY KIND, either express or implied. See the SIL Open Font License for the specific language, permissions and limitations governing your use of this Font Software.
http://scripts.sil.org/OFL
  -->
<path d="M512 737L810 737 810 829 512 829ZM512 681L512 595 810 595 810 681ZM442 535L442 928 512 928 512 889 810 889 810 926 882 926 882 535ZM196 10L196 222 52 222 52 293 188 293C156 431 93 592 29 680 41 697 60 725 69 745 116 678 161 572 196 462L196 929 266 929 266 446C290 483 317 525 329 550L342 530C356 544 372 562 381 575 465 523 557 430 620 333L620 518 692 518 692 331C753 423 841 512 922 562 933 544 956 517 973 504 895 464 810 387 752 308L952 308 952 241 692 241 692 128C772 116 847 101 907 82L851 24C746 59 553 84 391 98 399 114 409 141 412 158 478 154 550 147 620 138L620 241 376 241 376 222 266 222 266 10ZM559 308C507 382 433 453 361 499L372 483C357 464 291 384 266 356L266 293 375 293 375 308Z"/>
</svg>