<svg xmlns="http://www.w3.org/2000/svg" name="gid7032" data-unicode="榔"
    viewBox="0 0 1000 1000">
  <!--
© 2014-2021 Adobe (http://www.adobe.com/).
Noto is a trademark of Google Inc.
This Font Software is licensed under the SIL Open Font License, Version 1.1. This Font Software is distributed on an "AS IS" BASIS, WITHOUT WARRANTIES OR CONDITIONS OF ANY KIND, either express or implied. See the SIL Open Font License for the specific language, permissions and limitations governing your use of this Font Software.
http://scripts.sil.org/OFL
  -->
<path d="M430 387L582 387 582 503 430 503ZM430 328L430 227 582 227 582 328ZM640 602C622 625 593 656 567 682L523 609 472 634C494 671 517 713 538 755L430 797 430 564 646 564 646 166 541 166 541 41 472 41 472 166 367 166 367 820 295 846 323 914 564 808C585 851 602 892 612 924L668 894C653 850 625 790 593 730 623 705 657 672 685 641ZM169 40L169 252 47 252 47 322 162 322C138 457 87 619 35 706 47 723 65 751 74 771 109 710 142 616 169 518L169 959 240 959 240 489C268 526 301 571 315 597L354 529C339 511 269 437 240 409L240 322 345 322 345 252 240 252 240 40ZM689 106L689 957 755 957 755 170 873 170C856 247 834 336 807 430 868 533 894 606 894 670 894 705 888 744 873 757 866 763 855 765 843 766 828 767 805 767 781 764 792 782 798 809 799 827 823 828 849 828 868 826 888 824 906 817 918 807 945 785 958 731 958 672 958 604 929 524 869 422 901 317 930 216 953 128L905 103 896 106Z"/>
</svg>