<svg xmlns="http://www.w3.org/2000/svg" name="gid7041" data-unicode="榦"
    viewBox="0 0 1000 1000">
  <!--
© 2014-2021 Adobe (http://www.adobe.com/).
Noto is a trademark of Google Inc.
This Font Software is licensed under the SIL Open Font License, Version 1.1. This Font Software is distributed on an "AS IS" BASIS, WITHOUT WARRANTIES OR CONDITIONS OF ANY KIND, either express or implied. See the SIL Open Font License for the specific language, permissions and limitations governing your use of this Font Software.
http://scripts.sil.org/OFL
  -->
<path d="M153 491L374 491 374 569 153 569ZM153 357L374 357 374 434 153 434ZM708 119C759 213 850 320 937 386 948 365 965 337 979 320 891 261 798 152 740 45L669 45C627 146 537 264 443 332L443 297 298 297 298 213 473 213 473 146 298 146 298 40 225 40 225 146 52 146 52 213 225 213 225 297 85 297 85 629 225 629 225 714 41 714 41 782 225 782 225 960 298 960 298 782 470 782C454 797 438 809 422 820 438 834 460 858 471 877 553 816 622 709 670 588L670 959 745 959 745 585C789 699 853 804 924 864 936 846 959 821 976 809 895 751 822 637 779 519L947 519 947 449 745 449 745 297 670 297 670 449 481 449 481 519 634 519C599 614 546 705 483 769L483 714 298 714 298 629 443 629 443 334C457 349 473 375 482 395 577 324 662 212 708 119Z"/>
</svg>