<svg xmlns="http://www.w3.org/2000/svg" name="gid7046" data-unicode="榮"
    viewBox="0 0 1000 1000">
  <!--
© 2014-2021 Adobe (http://www.adobe.com/).
Noto is a trademark of Google Inc.
This Font Software is licensed under the SIL Open Font License, Version 1.1. This Font Software is distributed on an "AS IS" BASIS, WITHOUT WARRANTIES OR CONDITIONS OF ANY KIND, either express or implied. See the SIL Open Font License for the specific language, permissions and limitations governing your use of this Font Software.
http://scripts.sil.org/OFL
  -->
<path d="M427 92C410 124 377 173 353 204L399 225C426 197 459 156 489 116ZM149 94C134 140 104 190 63 217L110 248C156 215 183 162 199 111ZM864 90C846 124 809 175 781 207L828 229C858 201 896 157 929 115ZM564 91C550 138 520 187 477 214L524 245C573 213 599 160 615 108ZM460 486L460 590 113 590 113 657 411 657C326 753 186 831 43 866 60 881 82 910 93 929 233 887 369 804 460 700L460 959 534 959 534 696C625 801 763 889 899 933 912 913 934 882 952 866 813 830 671 751 585 657L896 657 896 590 534 590 534 486ZM681 40C673 203 643 283 476 327 490 340 509 366 516 383 608 355 663 318 697 264 763 307 839 360 880 394L84 394 84 557 157 557 157 461 844 461 844 557 920 557 920 394 882 394 930 345C882 309 793 251 724 207 739 161 746 106 749 40ZM263 40C256 214 225 293 48 338 61 350 80 376 86 392 184 366 243 327 278 271 327 304 380 343 409 368L459 321C424 292 357 248 305 215 321 167 328 110 331 40Z"/>
</svg>