<svg xmlns="http://www.w3.org/2000/svg"
    viewBox="0 0 1000 1000">
  <!--
© 2014-2021 Adobe (http://www.adobe.com/).
Noto is a trademark of Google Inc.
This Font Software is licensed under the SIL Open Font License, Version 1.1. This Font Software is distributed on an "AS IS" BASIS, WITHOUT WARRANTIES OR CONDITIONS OF ANY KIND, either express or implied. See the SIL Open Font License for the specific language, permissions and limitations governing your use of this Font Software.
http://scripts.sil.org/OFL
  -->
<path d="M628 10L628 117 379 117 379 181 953 181 953 117 700 117 700 10ZM361 366L361 430 435 430 435 556 594 556C526 617 418 673 322 707 334 721 353 747 362 763 404 747 448 726 490 703L490 838 396 854 417 919C509 902 632 879 749 857L744 795 560 827 560 661C594 639 626 614 654 589 706 747 794 870 927 932 939 912 960 884 977 869 904 841 844 792 797 729 846 701 905 663 951 626L899 578C866 608 812 650 765 680 743 642 725 600 711 556L902 556 902 430 976 430 976 366 902 366 902 245 435 245 435 366ZM830 425L830 501 504 501 504 425ZM504 301L830 301 830 371 504 371ZM192 10L192 227 52 227 52 297 184 297C155 433 94 591 31 675 43 692 61 720 69 740 115 675 158 570 192 462L192 929 261 929 261 455C292 504 330 566 345 599L386 543C368 516 289 404 261 369L261 297 377 297 377 227 261 227 261 10Z"/>
</svg>