<svg xmlns="http://www.w3.org/2000/svg"
    viewBox="0 0 1000 1000">
  <!--
© 2014-2021 Adobe (http://www.adobe.com/).
Noto is a trademark of Google Inc.
This Font Software is licensed under the SIL Open Font License, Version 1.1. This Font Software is distributed on an "AS IS" BASIS, WITHOUT WARRANTIES OR CONDITIONS OF ANY KIND, either express or implied. See the SIL Open Font License for the specific language, permissions and limitations governing your use of this Font Software.
http://scripts.sil.org/OFL
  -->
<path d="M494 116L821 116 821 399 494 399ZM427 58L427 458 890 458 890 58ZM406 527L406 832 330 832 330 897 966 897 966 832 914 832 914 527ZM474 832L474 587 560 587 560 832ZM615 832L615 587 701 587 701 832ZM756 832L756 587 843 587 843 832ZM642 129C626 223 582 295 509 342 523 351 546 371 554 381 593 353 626 319 651 277 691 311 732 351 756 378L795 337C768 308 718 263 675 228 686 200 695 169 701 136ZM192 10L192 227 52 227 52 297 184 297C155 433 94 591 31 675 43 692 61 720 69 740 115 675 158 570 192 462L192 929 261 929 261 449C291 500 326 562 340 595L382 539C365 512 288 395 261 360L261 297 377 297 377 227 261 227 261 10Z"/>
</svg>