<svg xmlns="http://www.w3.org/2000/svg"
    viewBox="0 0 1000 1000">
  <!--
© 2014-2021 Adobe (http://www.adobe.com/).
Noto is a trademark of Google Inc.
This Font Software is licensed under the SIL Open Font License, Version 1.1. This Font Software is distributed on an "AS IS" BASIS, WITHOUT WARRANTIES OR CONDITIONS OF ANY KIND, either express or implied. See the SIL Open Font License for the specific language, permissions and limitations governing your use of this Font Software.
http://scripts.sil.org/OFL
  -->
<path d="M523 213C539 241 556 274 571 306L457 347 450 148C511 127 582 101 635 71L579 19C544 44 485 73 429 94L379 79 389 371 343 386 373 448C438 422 516 390 594 356L608 393 662 368C643 394 619 417 590 435 603 444 625 466 635 478 747 409 788 261 797 130L886 130C881 307 875 371 863 387 856 396 850 398 838 398 826 398 798 398 765 394 774 410 780 437 782 456 815 458 849 458 868 456 890 453 905 447 918 429 938 403 944 323 951 96 951 87 951 67 951 67L646 67 646 130 731 130C727 211 710 299 664 366 646 321 609 248 575 192ZM623 725L623 832 484 832 484 725ZM690 725L836 725 836 832 690 832ZM623 665L484 665 484 565 623 565ZM690 665L690 565 836 565 836 665ZM417 503L417 932 484 932 484 894 836 894 836 929 906 929 906 503ZM186 10L186 227 52 227 52 297 179 297C151 433 91 591 31 675 43 692 61 721 69 740 113 676 154 573 186 466L186 929 254 929 254 459C283 509 317 571 330 603L371 548C354 521 280 408 254 374L254 297 361 297 361 227 254 227 254 10Z"/>
</svg>