<svg xmlns="http://www.w3.org/2000/svg"
    viewBox="0 0 1000 1000">
  <!--
© 2014-2021 Adobe (http://www.adobe.com/).
Noto is a trademark of Google Inc.
This Font Software is licensed under the SIL Open Font License, Version 1.1. This Font Software is distributed on an "AS IS" BASIS, WITHOUT WARRANTIES OR CONDITIONS OF ANY KIND, either express or implied. See the SIL Open Font License for the specific language, permissions and limitations governing your use of this Font Software.
http://scripts.sil.org/OFL
  -->
<path d="M499 238L825 238 825 317 499 317ZM499 104L825 104 825 183 499 183ZM430 48L430 375 895 375 895 48ZM791 502C757 545 689 597 634 628 645 638 664 659 673 670 732 635 804 577 850 524ZM490 504C456 547 389 598 335 629 347 639 365 659 374 671 432 636 503 579 548 526ZM517 650C476 707 392 773 320 813 331 823 349 845 358 858 428 818 506 754 560 693L560 855C560 867 556 871 544 871 533 872 492 872 447 870 455 888 465 913 467 930 532 930 571 930 596 919 621 909 628 891 628 856L628 427 372 427 372 487 560 487 560 666ZM821 643C782 700 704 765 636 805 648 816 666 838 674 850 741 809 815 746 865 684L865 855C865 867 861 871 848 871 837 872 796 872 750 870 758 888 767 914 770 932 835 932 875 931 900 920 925 910 932 891 932 856L932 427 665 427 665 487 865 487 865 659ZM186 10L186 227 52 227 52 297 179 297C151 433 91 591 31 675 43 692 61 721 69 740 113 676 154 573 186 466L186 929 254 929 254 450C282 498 316 559 329 590L370 535C353 509 280 399 254 365L254 297 365 297 365 227 254 227 254 10Z"/>
</svg>