<svg xmlns="http://www.w3.org/2000/svg"
    viewBox="0 0 1000 1000">
  <!--
© 2014-2021 Adobe (http://www.adobe.com/).
Noto is a trademark of Google Inc.
This Font Software is licensed under the SIL Open Font License, Version 1.1. This Font Software is distributed on an "AS IS" BASIS, WITHOUT WARRANTIES OR CONDITIONS OF ANY KIND, either express or implied. See the SIL Open Font License for the specific language, permissions and limitations governing your use of this Font Software.
http://scripts.sil.org/OFL
  -->
<path d="M386 324L386 388 960 388 960 324ZM516 513L832 513 832 624 516 624ZM500 703C520 745 538 802 545 838L366 838 366 903 964 903 964 838 783 838C804 803 830 748 853 700L787 682 904 682 904 455 447 455 447 682 775 682C763 724 741 785 722 823L769 838 552 838 612 820C606 785 586 729 565 686ZM431 54L431 260 925 260 925 54 853 54 853 200 708 200 708 10 636 10 636 200 500 200 500 54ZM199 10L199 227 52 227 52 297 191 297C159 434 96 591 31 675 44 692 62 721 70 740 118 675 164 568 199 458L199 929 269 929 269 455C303 506 344 570 360 605L403 548C384 520 298 406 269 371L269 297 391 297 391 227 269 227 269 10Z"/>
</svg>