<svg xmlns="http://www.w3.org/2000/svg" name="gid7060" data-unicode="槁"
    viewBox="0 0 1000 1000">
  <!--
© 2014-2021 Adobe (http://www.adobe.com/).
Noto is a trademark of Google Inc.
This Font Software is licensed under the SIL Open Font License, Version 1.1. This Font Software is distributed on an "AS IS" BASIS, WITHOUT WARRANTIES OR CONDITIONS OF ANY KIND, either express or implied. See the SIL Open Font License for the specific language, permissions and limitations governing your use of this Font Software.
http://scripts.sil.org/OFL
  -->
<path d="M547 317L793 317 793 415 547 415ZM478 263L478 469 864 469 864 263ZM628 40L628 148 386 148 386 210 947 210 947 148 702 148 702 40ZM401 522L401 961 469 961 469 581 867 581 867 888C867 899 864 902 852 902 842 903 806 903 767 901 776 919 785 943 788 961 844 961 882 961 906 951 930 940 937 923 937 889L937 522ZM541 633L541 876 595 876 595 828 800 828 800 633ZM595 685L745 685 745 776 595 776ZM194 40L194 254 52 254 52 325 187 325C156 462 92 620 29 705 42 722 60 752 68 772 115 707 160 601 194 492L194 959 264 959 264 492C295 537 330 592 346 622L390 564C372 539 294 439 264 408L264 325 383 325 383 254 264 254 264 40Z"/>
</svg>