<svg xmlns="http://www.w3.org/2000/svg" name="gid7070" data-unicode="槏"
    viewBox="0 0 1000 1000">
  <!--
© 2014-2021 Adobe (http://www.adobe.com/).
Noto is a trademark of Google Inc.
This Font Software is licensed under the SIL Open Font License, Version 1.1. This Font Software is distributed on an "AS IS" BASIS, WITHOUT WARRANTIES OR CONDITIONS OF ANY KIND, either express or implied. See the SIL Open Font License for the specific language, permissions and limitations governing your use of this Font Software.
http://scripts.sil.org/OFL
  -->
<path d="M384 364L384 421 521 421 521 489 336 489 336 527C309 484 264 417 246 393L246 327 344 327 344 257 246 257 246 40 178 40 178 257 52 257 52 327 171 327C143 463 88 621 31 705 43 721 60 749 68 768 109 704 148 602 178 496L178 959 246 959 246 478C273 525 305 583 317 614L356 559 349 548 521 548 521 621 384 621 384 678 489 678C441 754 367 827 295 864 311 877 332 902 343 918 407 877 472 809 521 733L521 960 587 960 587 678 690 678 690 960 756 960 756 733C803 808 867 877 930 916 941 898 964 872 979 859 910 823 837 752 791 678L917 678 917 548 969 548 969 489 917 489 917 364 756 364 756 297 949 297 949 237 756 237 756 167C819 145 882 119 930 91L863 49C818 81 734 116 659 141 668 154 679 176 683 190L690 188 690 237 587 237 587 135C622 120 655 105 682 88L613 49C562 85 461 123 371 148 381 161 392 184 396 197 437 187 479 174 521 160L521 237 360 237 360 297 521 297 521 364ZM587 297L690 297 690 364 587 364ZM587 548L690 548 690 621 587 621ZM587 489L587 421 690 421 690 489ZM756 548L853 548 853 621 756 621ZM756 489L756 421 853 421 853 489Z"/>
</svg>