<svg xmlns="http://www.w3.org/2000/svg" name="gid7078" data-unicode="槝"
    viewBox="0 0 1000 1000">
  <!--
© 2014-2021 Adobe (http://www.adobe.com/).
Noto is a trademark of Google Inc.
This Font Software is licensed under the SIL Open Font License, Version 1.1. This Font Software is distributed on an "AS IS" BASIS, WITHOUT WARRANTIES OR CONDITIONS OF ANY KIND, either express or implied. See the SIL Open Font License for the specific language, permissions and limitations governing your use of this Font Software.
http://scripts.sil.org/OFL
  -->
<path d="M812 310L812 378 481 378 481 310ZM812 256L481 256 481 186 812 186ZM707 709L707 819 587 819 587 675 871 675C863 818 854 873 840 888 833 896 825 898 808 898 794 898 753 898 710 894 721 911 728 938 729 958 774 960 818 960 841 958 867 956 883 950 899 933 922 906 932 835 941 648 942 638 943 617 943 617L481 617 481 550 962 550 962 496 481 496 481 434 882 434 882 129 661 129 694 50 609 38C604 63 594 99 583 129L410 129 410 675 524 675 524 819 408 819 408 709 347 709 347 918 408 918 408 878 768 878 768 709ZM192 40L192 257 52 257 52 327 184 327C155 463 94 621 31 705 43 722 61 750 69 770 115 705 158 600 192 492L192 959 261 959 261 479C291 530 326 592 340 625L382 569C365 542 288 425 261 390L261 327 377 327 377 257 261 257 261 40Z"/>
</svg>