<svg xmlns="http://www.w3.org/2000/svg"
    viewBox="0 0 1000 1000">
  <!--
© 2014-2021 Adobe (http://www.adobe.com/).
Noto is a trademark of Google Inc.
This Font Software is licensed under the SIL Open Font License, Version 1.1. This Font Software is distributed on an "AS IS" BASIS, WITHOUT WARRANTIES OR CONDITIONS OF ANY KIND, either express or implied. See the SIL Open Font License for the specific language, permissions and limitations governing your use of this Font Software.
http://scripts.sil.org/OFL
  -->
<path d="M435 285L590 285 590 378 435 378ZM377 231L377 431 650 431 650 231ZM479 10L479 119 341 119 341 182 680 182 680 119 546 119 546 10ZM477 605L477 680 319 698 331 761 477 742 477 862C477 872 474 875 463 875 453 876 416 876 376 875 384 892 393 915 396 933 454 933 490 932 514 923 538 913 544 897 544 863L544 734 684 716 682 656 544 672 544 644C588 607 636 556 669 506L629 480 617 483 363 483 363 544 567 544C548 566 527 587 506 605ZM703 65L703 930 768 930 768 128 875 128C858 208 836 302 810 399 870 503 894 570 894 633 895 668 890 707 876 719 868 725 858 727 846 728 832 728 811 728 788 726 801 745 808 774 808 792 830 793 856 793 873 791 892 789 911 782 922 772 950 749 962 695 962 635 962 568 935 493 875 390 906 283 935 176 958 87L907 61 897 65ZM178 10L178 227 52 227 52 297 171 297C143 433 88 591 31 675 43 691 60 719 68 738 109 674 148 572 178 466L178 929 246 929 246 456C274 506 307 571 320 603L359 549C344 521 270 405 246 372L246 297 352 297 352 227 246 227 246 10Z"/>
</svg>