<svg xmlns="http://www.w3.org/2000/svg" name="gid7094" data-unicode="槴"
    viewBox="0 0 1000 1000">
  <!--
© 2014-2021 Adobe (http://www.adobe.com/).
Noto is a trademark of Google Inc.
This Font Software is licensed under the SIL Open Font License, Version 1.1. This Font Software is distributed on an "AS IS" BASIS, WITHOUT WARRANTIES OR CONDITIONS OF ANY KIND, either express or implied. See the SIL Open Font License for the specific language, permissions and limitations governing your use of this Font Software.
http://scripts.sil.org/OFL
  -->
<path d="M573 463L823 463 823 527 573 527ZM510 416L510 573 890 573 890 416ZM187 40L187 251 51 251 51 320 180 320C151 457 90 618 29 706 41 723 60 751 68 772 112 707 154 603 187 496L187 959 256 959 256 511C286 553 320 605 335 634L377 568C359 545 283 452 256 423L256 320 371 320 371 251 256 251 256 40ZM460 251L859 251 859 319 460 319ZM871 49C769 73 589 89 432 98L391 87 391 401C391 553 382 759 293 911 311 919 338 941 349 956 447 791 460 560 460 401L460 374 931 374 931 197 460 197 460 150C619 143 800 127 919 98ZM670 662L670 738 543 738 543 662ZM731 662L860 662 860 738 731 738ZM477 612L477 855C477 931 507 947 614 947 637 947 831 947 855 947 936 947 959 924 967 835 949 832 923 823 908 813 903 880 895 890 850 890 810 890 647 890 617 890 554 890 543 884 543 854L543 788 924 788 924 612Z"/>
</svg>