<svg xmlns="http://www.w3.org/2000/svg" name="gid7098" data-unicode="槻"
    viewBox="0 0 1000 1000">
  <!--
© 2014-2021 Adobe (http://www.adobe.com/).
Noto is a trademark of Google Inc.
This Font Software is licensed under the SIL Open Font License, Version 1.1. This Font Software is distributed on an "AS IS" BASIS, WITHOUT WARRANTIES OR CONDITIONS OF ANY KIND, either express or implied. See the SIL Open Font License for the specific language, permissions and limitations governing your use of this Font Software.
http://scripts.sil.org/OFL
  -->
<path d="M687 296L855 296 855 406 687 406ZM687 466L855 466 855 576 687 576ZM687 128L855 128 855 237 687 237ZM339 217L339 283 433 283 433 392 433 445 329 445 329 512 430 512C421 636 391 774 290 860 306 871 328 894 338 909 411 843 451 753 473 660 506 712 538 767 557 805L599 749C577 706 530 634 488 573L494 512 598 512 598 445 497 445 498 392 498 283 589 283 589 217 498 217 498 56 433 56 433 217ZM619 65L619 639 668 639C657 773 624 862 493 911 508 923 526 947 533 963 679 902 720 797 733 639L785 639 785 867C785 910 789 925 802 936 815 948 835 952 854 952 864 952 888 952 899 952 914 952 932 949 943 943 955 936 964 925 970 909 973 893 977 849 978 809 962 804 941 792 930 782 930 820 928 853 926 866 924 875 920 881 915 885 912 888 903 889 894 889 886 889 875 889 869 889 862 889 856 887 852 883 848 881 846 875 846 868L846 639 925 639 925 65ZM175 40L175 257 52 257 52 327 169 327C142 463 87 621 31 705 43 721 60 749 68 767 108 704 146 603 175 498L175 959 242 959 242 492C267 541 297 601 309 633L348 579C333 552 267 442 242 405L242 327 338 327 338 257 242 257 242 40Z"/>
</svg>