<svg xmlns="http://www.w3.org/2000/svg"
    viewBox="0 0 1000 1000">
  <!--
© 2014-2021 Adobe (http://www.adobe.com/).
Noto is a trademark of Google Inc.
This Font Software is licensed under the SIL Open Font License, Version 1.1. This Font Software is distributed on an "AS IS" BASIS, WITHOUT WARRANTIES OR CONDITIONS OF ANY KIND, either express or implied. See the SIL Open Font License for the specific language, permissions and limitations governing your use of this Font Software.
http://scripts.sil.org/OFL
  -->
<path d="M462 496C458 532 453 565 445 596L68 596 68 663 423 663C376 766 276 831 42 865 55 880 72 911 78 930 336 889 446 807 498 679 575 824 709 900 919 930 928 909 947 879 963 863 768 842 636 781 567 663L933 663 933 596 523 596C530 565 535 532 539 496ZM191 10L191 137 60 137 60 202 177 202C142 283 86 367 33 414 44 430 60 456 66 475 112 434 156 367 191 296L191 530 257 530 257 297C285 332 315 372 329 392L371 343C353 324 289 257 257 228L257 202 366 202 366 137 257 137 257 10ZM366 320C393 336 422 355 450 375 415 411 376 442 335 466 351 475 376 498 387 509 425 483 464 450 499 413 525 433 547 454 563 471L597 436C610 448 626 466 634 479 674 439 710 376 739 306L739 530 805 530 805 302C843 354 890 422 910 456L954 405C932 375 842 267 805 228L805 202 942 202 942 137 805 137 805 10 739 10 739 137 620 137 620 202 723 202C696 286 651 369 601 418 585 401 564 384 540 366 565 334 587 300 605 265L543 248C529 276 511 304 490 330 463 311 435 294 409 279ZM374 87C400 102 428 119 455 138 424 167 390 193 355 215 370 224 394 247 404 259 438 236 473 207 505 174 531 194 554 214 570 231L615 185C599 168 575 148 548 128 570 101 591 73 608 44L548 26C534 49 517 72 498 94 471 77 444 60 418 47Z"/>
</svg>