<svg xmlns="http://www.w3.org/2000/svg"
    viewBox="0 0 1000 1000">
  <!--
© 2014-2021 Adobe (http://www.adobe.com/).
Noto is a trademark of Google Inc.
This Font Software is licensed under the SIL Open Font License, Version 1.1. This Font Software is distributed on an "AS IS" BASIS, WITHOUT WARRANTIES OR CONDITIONS OF ANY KIND, either express or implied. See the SIL Open Font License for the specific language, permissions and limitations governing your use of this Font Software.
http://scripts.sil.org/OFL
  -->
<path d="M335 57C373 93 417 144 436 178L486 140C466 107 422 59 383 24ZM598 471L702 471 702 560 598 560ZM598 415L598 327 702 327 702 415ZM868 471L868 560 760 560 760 471ZM868 415L760 415 760 327 868 327ZM602 168C650 195 705 234 742 268L536 268 536 788 598 788 598 619 702 619 702 784 760 784 760 619 868 619 868 727C868 734 866 737 858 737 851 738 829 738 804 737 812 753 819 777 821 793 862 793 889 793 908 783 927 773 932 757 932 727L932 268 800 268 815 254C804 242 788 228 771 215 828 176 890 123 933 71L891 39 878 43 526 43 526 101 822 101C793 129 758 158 724 180 698 162 670 144 645 130ZM472 483L323 483 323 529 237 432 237 290 332 290C371 326 417 375 437 408L486 369C465 335 417 287 377 253L338 281 338 222 237 222 237 10 168 10 168 222 46 222 46 290 162 290C138 426 88 588 35 676 47 693 65 721 74 741 109 681 142 588 168 491L168 929 237 929 237 518C261 552 288 591 300 614L342 551 335 543 410 543 410 748C374 789 333 831 298 862L336 926C376 883 410 843 443 802 493 871 567 911 667 915 742 919 876 918 951 914 954 893 964 863 972 847 890 853 743 855 669 851 581 847 509 809 472 744Z"/>
</svg>