<svg xmlns="http://www.w3.org/2000/svg" name="gid7110" data-unicode="樏"
    viewBox="0 0 1000 1000">
  <!--
© 2014-2021 Adobe (http://www.adobe.com/).
Noto is a trademark of Google Inc.
This Font Software is licensed under the SIL Open Font License, Version 1.1. This Font Software is distributed on an "AS IS" BASIS, WITHOUT WARRANTIES OR CONDITIONS OF ANY KIND, either express or implied. See the SIL Open Font License for the specific language, permissions and limitations governing your use of this Font Software.
http://scripts.sil.org/OFL
  -->
<path d="M751 793C805 839 869 904 899 945L961 914C928 872 862 809 809 766ZM489 767C454 819 397 872 340 909 358 918 386 939 398 951 452 911 515 848 555 788ZM410 84L410 425 573 425C550 454 522 486 495 513L453 486 409 526C459 558 519 603 558 639L510 676 354 678 362 744 618 737 618 959 690 959 690 734 881 728C894 744 904 760 911 774L971 743C941 692 875 617 817 564L762 591C787 615 813 642 836 670L604 675C678 617 759 545 823 480L759 449C721 493 665 548 607 597 589 581 566 563 542 545 579 511 621 467 658 425L908 425 908 84ZM187 40L187 251 52 251 52 320 180 320C151 457 90 618 29 706 41 723 60 751 68 772 112 707 154 603 187 496L187 959 256 959 256 503C286 545 320 597 335 626L377 561C359 537 283 445 256 416L256 320 367 320 367 251 256 251 256 40ZM478 281L621 281 621 366 478 366ZM687 281L838 281 838 366 687 366ZM478 143L621 143 621 226 478 226ZM687 143L838 143 838 226 687 226Z"/>
</svg>