<svg xmlns="http://www.w3.org/2000/svg" name="gid7111" data-unicode="樑"
    viewBox="0 0 1000 1000">
  <!--
© 2014-2021 Adobe (http://www.adobe.com/).
Noto is a trademark of Google Inc.
This Font Software is licensed under the SIL Open Font License, Version 1.1. This Font Software is distributed on an "AS IS" BASIS, WITHOUT WARRANTIES OR CONDITIONS OF ANY KIND, either express or implied. See the SIL Open Font License for the specific language, permissions and limitations governing your use of this Font Software.
http://scripts.sil.org/OFL
  -->
<path d="M318 233C358 248 409 276 434 295L469 243C442 223 392 199 352 185ZM371 99C409 116 457 141 480 162L517 109C492 90 445 66 407 52ZM864 202C892 266 914 351 918 403L974 382C970 330 946 248 917 184ZM547 85L547 146 655 146C646 298 620 424 515 494 529 504 548 525 557 540 674 459 706 318 717 146L797 146C790 354 782 429 768 447 761 457 755 459 743 458 732 458 706 458 676 455 685 471 691 497 692 515 723 516 753 517 772 514 794 512 809 506 822 488 843 459 852 372 860 114 861 105 861 85 861 85ZM610 536L610 614 347 614 347 678 558 678C497 762 402 839 312 880 327 892 348 917 359 934 449 887 545 803 610 710L610 960 682 960 682 707C743 798 835 881 925 927 937 908 958 884 974 870 886 832 796 760 738 678L950 678 950 614 682 614 682 536ZM177 40L177 257 52 257 52 327 169 327C142 463 86 621 29 705 41 721 58 749 66 768 108 704 147 601 177 495L177 959 245 959 245 478C273 527 307 588 320 620L359 565C343 539 270 430 245 396L245 327 353 327 353 257 245 257 245 40ZM551 192C539 247 517 313 486 352L452 323C416 388 372 459 340 503L394 543C429 488 466 423 497 363L532 385C566 341 588 269 600 210Z"/>
</svg>