<svg xmlns="http://www.w3.org/2000/svg"
    viewBox="0 0 1000 1000">
  <!--
© 2014-2021 Adobe (http://www.adobe.com/).
Noto is a trademark of Google Inc.
This Font Software is licensed under the SIL Open Font License, Version 1.1. This Font Software is distributed on an "AS IS" BASIS, WITHOUT WARRANTIES OR CONDITIONS OF ANY KIND, either express or implied. See the SIL Open Font License for the specific language, permissions and limitations governing your use of this Font Software.
http://scripts.sil.org/OFL
  -->
<path d="M863 11C837 42 793 87 749 127 803 167 851 211 879 244L515 244 562 224C541 196 503 158 467 126 495 96 526 62 553 28L493 11C471 43 432 87 394 127 440 168 480 211 503 244L420 244 420 561 625 561 625 623 370 623 370 685 584 685C520 756 420 822 331 856 347 869 369 895 380 912 464 874 558 805 625 729L625 931 697 931 697 721C759 797 847 871 923 911 934 893 956 868 972 854 891 821 799 754 738 685L950 685 950 623 697 623 697 561 912 561 912 244 890 244 937 222C912 195 870 157 827 126 859 96 894 63 925 30ZM488 427L628 427 628 508 488 508ZM694 427L841 427 841 508 694 508ZM488 297L628 297 628 377 488 377ZM694 297L841 297 841 377 694 377ZM674 11C650 42 610 86 570 126 620 167 664 211 688 244L743 220C721 193 683 155 645 124 674 95 706 62 734 29ZM192 10L192 227 52 227 52 297 184 297C155 433 94 591 31 675 43 692 61 720 69 740 115 675 158 570 192 462L192 929 261 929 261 449C291 500 326 562 340 595L382 539C365 512 288 395 261 360L261 297 377 297 377 227 261 227 261 10Z"/>
</svg>