<svg xmlns="http://www.w3.org/2000/svg" name="gid7125" data-unicode="樢"
    viewBox="0 0 1000 1000">
  <!--
© 2014-2021 Adobe (http://www.adobe.com/).
Noto is a trademark of Google Inc.
This Font Software is licensed under the SIL Open Font License, Version 1.1. This Font Software is distributed on an "AS IS" BASIS, WITHOUT WARRANTIES OR CONDITIONS OF ANY KIND, either express or implied. See the SIL Open Font License for the specific language, permissions and limitations governing your use of this Font Software.
http://scripts.sil.org/OFL
  -->
<path d="M395 717C381 787 353 867 308 914L363 950C413 898 439 810 453 735ZM488 741C503 801 513 878 511 925L568 915C569 869 558 793 541 734ZM593 736C621 783 648 846 657 887L706 865C697 826 668 765 639 719ZM698 717C729 747 763 790 778 818L819 791C803 762 769 721 738 692ZM808 309L808 376 496 376 496 309ZM808 256L496 256 496 191 808 191ZM424 133L424 677 868 677C859 820 848 877 834 894 827 902 818 903 802 903 788 903 749 902 707 899 718 916 724 942 726 961 769 963 812 964 833 962 859 960 877 954 892 937 916 910 928 837 938 648 939 637 940 617 940 617L496 617 496 553 963 553 963 496 496 496 496 434 880 434 880 133 676 133 708 51 620 40C616 66 607 102 598 133ZM192 40L192 257 52 257 52 327 184 327C155 463 94 621 31 705 43 722 61 750 69 770 115 705 158 600 192 492L192 959 261 959 261 485C291 534 326 596 340 629L381 573C364 545 288 431 261 396L261 327 377 327 377 257 261 257 261 40Z"/>
</svg>