<svg xmlns="http://www.w3.org/2000/svg" name="gid7126" data-unicode="樣"
    viewBox="0 0 1000 1000">
  <!--
© 2014-2021 Adobe (http://www.adobe.com/).
Noto is a trademark of Google Inc.
This Font Software is licensed under the SIL Open Font License, Version 1.1. This Font Software is distributed on an "AS IS" BASIS, WITHOUT WARRANTIES OR CONDITIONS OF ANY KIND, either express or implied. See the SIL Open Font License for the specific language, permissions and limitations governing your use of this Font Software.
http://scripts.sil.org/OFL
  -->
<path d="M368 672L368 727 513 727C476 801 408 858 337 887 350 899 369 922 378 937 473 893 558 809 595 687L553 670 542 672ZM885 590C853 626 799 674 754 709 733 680 715 650 701 617L701 560 447 560 447 616 631 616 631 884C631 895 628 899 615 899 603 899 562 899 518 898 527 916 535 943 538 961 601 961 642 961 668 950 695 939 701 921 701 885L701 730C757 819 836 891 927 931 938 913 959 888 974 875 903 849 839 805 788 750 835 718 893 673 941 632ZM794 39C779 71 754 118 733 149L749 155 568 155 594 143C582 115 554 71 530 40L473 63C493 91 515 127 529 155L399 155 399 212 630 212 630 274 440 274 440 330 630 330 630 395 374 395 374 454 580 454 550 489C628 512 725 552 776 582L815 533C770 507 689 476 619 454L954 454 954 395 702 395 702 330 911 330 911 274 702 274 702 212 942 212 942 155 796 155C816 128 839 95 860 61ZM193 40L193 257 53 257 53 327 185 327C156 463 95 621 32 705 44 722 62 750 70 770 116 705 159 600 193 492L193 959 262 959 262 479C291 530 326 592 341 625L383 569C366 542 289 425 262 390L262 327 377 327 377 257 262 257 262 40Z"/>
</svg>