<svg xmlns="http://www.w3.org/2000/svg" name="gid7135" data-unicode="樳"
    viewBox="0 0 1000 1000">
  <!--
© 2014-2021 Adobe (http://www.adobe.com/).
Noto is a trademark of Google Inc.
This Font Software is licensed under the SIL Open Font License, Version 1.1. This Font Software is distributed on an "AS IS" BASIS, WITHOUT WARRANTIES OR CONDITIONS OF ANY KIND, either express or implied. See the SIL Open Font License for the specific language, permissions and limitations governing your use of this Font Software.
http://scripts.sil.org/OFL
  -->
<path d="M442 784C488 817 540 867 564 901L615 859C591 824 537 777 491 745ZM732 467L871 467 871 555 732 555ZM671 418L671 605 935 605 935 418ZM185 40L185 252 47 252 47 322 175 322C147 459 88 622 29 710 42 728 62 758 70 780 113 714 154 612 185 505L185 959 255 959 255 499C282 536 312 580 326 606L370 539C354 518 282 434 255 408L255 322 375 322 375 252 255 252 255 40ZM375 196L375 252 806 253 806 316 441 316 441 368 878 368 878 253 963 253 963 196 878 196 878 82 445 82 445 134 806 134 806 196ZM350 577L363 633C442 623 543 610 643 596L642 543 538 556 538 472 636 472 636 420 376 420 376 472 473 472 473 563ZM742 619L742 680 363 680 363 741 742 741 742 884C742 896 738 899 722 900 707 902 657 901 600 899 609 918 619 943 623 961 697 961 745 962 775 951 805 942 813 923 813 885L813 741 963 741 963 680 813 680 813 619Z"/>
</svg>