<svg xmlns="http://www.w3.org/2000/svg" name="gid7142" data-unicode="樺"
    viewBox="0 0 1000 1000">
  <!--
© 2014-2021 Adobe (http://www.adobe.com/).
Noto is a trademark of Google Inc.
This Font Software is licensed under the SIL Open Font License, Version 1.1. This Font Software is distributed on an "AS IS" BASIS, WITHOUT WARRANTIES OR CONDITIONS OF ANY KIND, either express or implied. See the SIL Open Font License for the specific language, permissions and limitations governing your use of this Font Software.
http://scripts.sil.org/OFL
  -->
<path d="M757 40L757 134 597 134 597 40 526 40 526 134 387 134 387 199 526 199 526 274 597 274 597 199 757 199 757 274 829 274 829 199 955 199 955 134 829 134 829 40ZM643 367L643 456 542 456 542 367ZM712 367L819 367 819 456 712 456ZM390 753L390 818 643 818 643 960 712 960 712 818 960 818 960 753 712 753 712 675 952 675 952 612 883 612 883 520 969 520 969 456 883 456 883 367 948 367 948 304 405 304 405 367 478 367 478 456 377 456 377 520 478 520 478 612 401 612 401 675 643 675 643 753ZM643 612L542 612 542 520 643 520ZM712 612L712 520 819 520 819 612ZM199 40L199 257 52 257 52 327 191 327C159 464 96 621 31 705 44 722 62 751 70 770 118 705 164 598 199 488L199 959 269 959 269 488C301 538 339 601 355 634L397 578C379 551 298 439 269 402L269 327 387 327 387 257 269 257 269 40Z"/>
</svg>