<svg xmlns="http://www.w3.org/2000/svg" name="gid7145" data-unicode="樾"
    viewBox="0 0 1000 1000">
  <!--
© 2014-2021 Adobe (http://www.adobe.com/).
Noto is a trademark of Google Inc.
This Font Software is licensed under the SIL Open Font License, Version 1.1. This Font Software is distributed on an "AS IS" BASIS, WITHOUT WARRANTIES OR CONDITIONS OF ANY KIND, either express or implied. See the SIL Open Font License for the specific language, permissions and limitations governing your use of this Font Software.
http://scripts.sil.org/OFL
  -->
<path d="M835 74C866 112 900 164 915 196L963 167C946 136 910 86 880 50ZM901 335C888 400 869 463 844 522 837 456 830 376 826 280L951 280 951 214 823 214C822 161 820 103 820 42L761 42 767 214 633 214 633 645 549 687 576 748C637 712 711 668 781 626L764 574 691 614 691 280 770 280C777 414 788 524 802 609 761 682 709 747 647 798 661 808 682 827 692 838 741 796 783 746 819 690 841 777 869 821 904 821 950 820 970 796 978 662 965 657 946 643 934 630 931 724 922 761 910 761 894 761 875 716 859 622 902 538 933 445 954 346ZM334 510C328 672 313 812 251 905 266 913 292 932 301 942 334 890 355 826 370 753 432 902 533 936 698 936L941 936C945 917 956 885 967 869 924 870 731 870 699 870 621 870 559 862 509 832L509 589 604 589 604 524 509 524 509 411 614 411 614 344 501 344 501 230 603 230 603 165 501 165 501 39 439 39 439 165 335 165 335 230 439 230 439 344 315 344 315 411 448 411 448 776C422 741 402 693 387 630 391 593 393 555 395 516ZM167 40L167 252 52 252 52 322 161 322C137 460 84 621 30 708 42 724 60 752 68 772 106 712 140 619 167 521L167 959 235 959 235 459C256 499 278 544 288 570L328 514C314 491 259 399 235 364L235 322 325 322 325 252 235 252 235 40Z"/>
</svg>