<svg xmlns="http://www.w3.org/2000/svg" name="gid7167" data-unicode="橢"
    viewBox="0 0 1000 1000">
  <!--
© 2014-2021 Adobe (http://www.adobe.com/).
Noto is a trademark of Google Inc.
This Font Software is licensed under the SIL Open Font License, Version 1.1. This Font Software is distributed on an "AS IS" BASIS, WITHOUT WARRANTIES OR CONDITIONS OF ANY KIND, either express or implied. See the SIL Open Font License for the specific language, permissions and limitations governing your use of this Font Software.
http://scripts.sil.org/OFL
  -->
<path d="M677 678L860 678 860 748 677 748ZM677 624L677 558 860 558 860 624ZM612 501L612 959 677 959 677 803 860 803 860 885C860 896 857 899 846 899 837 899 806 900 770 898 778 916 788 941 790 959 841 959 875 958 898 948 920 937 926 919 926 886L926 501ZM683 40C679 68 674 97 666 127L568 127 568 186 649 186C622 262 582 335 525 385 538 394 559 413 569 425 620 381 658 320 687 254L687 304 771 304 771 392 633 392 633 448 960 448 960 392 833 392 833 304 934 304 934 250 688 250C697 229 706 208 713 186L956 186 956 127 730 127C737 101 743 74 748 49ZM350 77L350 958 410 958 410 139 496 139C483 211 464 312 444 392 491 479 499 551 499 608 499 641 495 673 486 684 479 689 472 692 464 692 454 693 441 692 427 691 436 710 441 735 441 753 458 753 475 753 488 751 504 749 518 744 529 734 550 714 559 670 559 616 558 551 548 474 500 387 523 299 549 185 568 99L524 74 514 77ZM168 40L168 257 52 257 52 327 162 327C139 463 85 624 32 708 43 723 60 751 68 769 105 707 140 610 168 507L168 959 235 959 235 478C259 526 286 584 298 616L336 560C322 534 261 430 235 389L235 327 325 327 325 257 235 257 235 40Z"/>
</svg>