<svg xmlns="http://www.w3.org/2000/svg" name="gid7174" data-unicode="橲"
    viewBox="0 0 1000 1000">
  <!--
© 2014-2021 Adobe (http://www.adobe.com/).
Noto is a trademark of Google Inc.
This Font Software is licensed under the SIL Open Font License, Version 1.1. This Font Software is distributed on an "AS IS" BASIS, WITHOUT WARRANTIES OR CONDITIONS OF ANY KIND, either express or implied. See the SIL Open Font License for the specific language, permissions and limitations governing your use of this Font Software.
http://scripts.sil.org/OFL
  -->
<path d="M503 391L819 391 819 474 503 474ZM620 40L620 113 383 113 383 170 620 170 620 235 418 235 418 291 911 291 911 235 694 235 694 170 934 170 934 113 694 113 694 40ZM491 538C503 562 515 592 523 617L346 617 346 677 964 677 964 617 793 617C808 594 825 564 841 536L809 527 889 527 889 339 435 339 435 527 535 527ZM584 617L590 615C583 592 567 555 553 527L770 527C760 554 742 591 728 617ZM428 727L428 960 496 960 496 931 833 931 833 956 903 956 903 727ZM496 874L496 781 833 781 833 874ZM193 40L193 257 53 257 53 327 185 327C156 463 95 621 32 705 44 722 62 750 70 770 116 705 159 600 193 492L193 959 262 959 262 460C291 510 326 572 341 605L383 549C366 522 289 405 262 370L262 327 377 327 377 257 262 257 262 40Z"/>
</svg>