<svg xmlns="http://www.w3.org/2000/svg" name="gid7176" data-unicode="橸"
    viewBox="0 0 1000 1000">
  <!--
© 2014-2021 Adobe (http://www.adobe.com/).
Noto is a trademark of Google Inc.
This Font Software is licensed under the SIL Open Font License, Version 1.1. This Font Software is distributed on an "AS IS" BASIS, WITHOUT WARRANTIES OR CONDITIONS OF ANY KIND, either express or implied. See the SIL Open Font License for the specific language, permissions and limitations governing your use of this Font Software.
http://scripts.sil.org/OFL
  -->
<path d="M509 301L789 301 789 398 509 398ZM509 149L789 149 789 244 509 244ZM438 90L438 458 863 458 863 90ZM186 40L186 257 52 257 52 327 179 327C151 463 91 621 31 705 43 722 61 751 69 770 113 706 154 603 186 496L186 959 254 959 254 489C283 539 317 601 330 633L366 585 366 961 429 961 429 917 561 917 561 955 625 955 625 518 366 518 366 570C344 535 278 436 254 404L254 327 365 327 365 257 254 257 254 40ZM429 857L429 743 561 743 561 857ZM671 518L671 961 734 961 734 917 871 917 871 953 936 953 936 518ZM734 857L734 743 871 743 871 857ZM429 685L429 578 561 578 561 685ZM734 685L734 578 871 578 871 685Z"/>
</svg>