<svg xmlns="http://www.w3.org/2000/svg"
    viewBox="0 0 1000 1000">
  <!--
© 2014-2021 Adobe (http://www.adobe.com/).
Noto is a trademark of Google Inc.
This Font Software is licensed under the SIL Open Font License, Version 1.1. This Font Software is distributed on an "AS IS" BASIS, WITHOUT WARRANTIES OR CONDITIONS OF ANY KIND, either express or implied. See the SIL Open Font License for the specific language, permissions and limitations governing your use of this Font Software.
http://scripts.sil.org/OFL
  -->
<path d="M583 329L730 329 730 434 583 434ZM583 168L730 168 730 271 583 271ZM346 90C391 140 438 211 457 257L513 224C493 177 445 110 399 61ZM339 446L382 502C426 460 476 412 522 364L494 311C437 363 377 415 339 446ZM896 52C871 101 826 168 792 212L792 107 674 107 705 17 627 9C625 37 619 74 613 107L523 107 523 494 621 494 621 581 362 581 362 646 582 646C519 730 419 809 329 848 344 861 365 887 377 904 463 860 555 782 621 695L621 930 693 930 693 689C757 773 847 855 924 901 935 883 957 859 973 846 892 805 796 725 734 646L952 646 952 581 693 581 693 494 792 494 792 352C841 399 896 459 923 499L972 454C941 412 878 348 826 302L792 331 792 216 842 244C878 201 922 140 958 84ZM186 10L186 227 52 227 52 297 179 297C151 433 91 591 31 675 43 692 61 721 69 740 113 676 154 573 186 466L186 929 254 929 254 453C283 502 317 564 330 597L371 542C354 515 280 402 254 367L254 297 365 297 365 227 254 227 254 10Z"/>
</svg>