<svg xmlns="http://www.w3.org/2000/svg"
    viewBox="0 0 1000 1000">
  <!--
© 2014-2021 Adobe (http://www.adobe.com/).
Noto is a trademark of Google Inc.
This Font Software is licensed under the SIL Open Font License, Version 1.1. This Font Software is distributed on an "AS IS" BASIS, WITHOUT WARRANTIES OR CONDITIONS OF ANY KIND, either express or implied. See the SIL Open Font License for the specific language, permissions and limitations governing your use of this Font Software.
http://scripts.sil.org/OFL
  -->
<path d="M536 228L536 313C536 375 554 390 627 390 641 390 728 390 743 390 795 390 814 373 820 304 802 300 777 292 763 282 761 329 756 335 734 335 716 335 647 335 634 335 604 335 600 331 600 313L600 228ZM804 250C848 291 898 348 920 386L974 353C951 315 899 260 854 220ZM451 225C433 274 399 329 355 360L407 397C456 360 487 301 507 249ZM427 423L427 571 353 571 353 629 964 629 964 571 906 571 906 423ZM489 571L489 476 572 476 572 571ZM623 571L623 476 706 476 706 571ZM757 571L757 476 842 476 842 571ZM363 685L363 744 628 744 628 856C628 867 624 870 611 871 599 871 553 871 505 870 514 888 523 913 526 931 593 931 638 932 666 921 694 911 701 893 701 857L701 744 957 744 957 685ZM378 94L378 234 444 234 444 151 884 151 884 234 952 234 952 94 701 94 701 11 628 11 628 94ZM579 187C626 211 682 247 709 275L749 233C721 207 664 172 618 151ZM186 10L186 227 52 227 52 297 179 297C151 433 91 591 31 675 43 692 61 721 69 740 113 676 154 573 186 466L186 929 254 929 254 417C283 466 317 526 331 558L371 503C354 476 280 368 254 335L254 297 361 297 361 227 254 227 254 10Z"/>
</svg>