<svg xmlns="http://www.w3.org/2000/svg" name="gid7225" data-unicode="櫐"
    viewBox="0 0 1000 1000">
  <!--
© 2014-2021 Adobe (http://www.adobe.com/).
Noto is a trademark of Google Inc.
This Font Software is licensed under the SIL Open Font License, Version 1.1. This Font Software is distributed on an "AS IS" BASIS, WITHOUT WARRANTIES OR CONDITIONS OF ANY KIND, either express or implied. See the SIL Open Font License for the specific language, permissions and limitations governing your use of this Font Software.
http://scripts.sil.org/OFL
  -->
<path d="M538 348L538 578 918 578 918 348ZM202 70L202 302 800 302 800 70ZM145 484L242 484 242 533 145 533ZM295 484L397 484 397 533 295 533ZM145 393L242 393 242 441 145 441ZM295 393L397 393 397 441 295 441ZM460 578L460 655 54 655 54 717 395 717C305 792 164 856 38 886 53 901 73 927 83 945 217 905 367 826 460 732L460 960 536 960 536 732C628 826 779 903 916 940 927 921 948 893 964 878 833 851 691 791 601 717L947 717 947 655 536 655 536 578ZM83 348L83 578 460 578 460 348ZM271 208L462 208 462 254 271 254ZM532 208L728 208 728 254 532 254ZM271 117L462 117 462 162 271 162ZM532 117L728 117 728 162 532 162ZM600 484L698 484 698 533 600 533ZM751 484L854 484 854 533 751 533ZM600 393L698 393 698 441 600 441ZM751 393L854 393 854 441 751 441Z"/>
</svg>