<svg xmlns="http://www.w3.org/2000/svg"
    viewBox="0 0 1000 1000">
  <!--
© 2014-2021 Adobe (http://www.adobe.com/).
Noto is a trademark of Google Inc.
This Font Software is licensed under the SIL Open Font License, Version 1.1. This Font Software is distributed on an "AS IS" BASIS, WITHOUT WARRANTIES OR CONDITIONS OF ANY KIND, either express or implied. See the SIL Open Font License for the specific language, permissions and limitations governing your use of this Font Software.
http://scripts.sil.org/OFL
  -->
<path d="M689 170L689 217 924 217 924 170ZM484 580L826 580 826 626 484 626ZM484 670L826 670 826 718 484 718ZM484 490L826 490 826 537 484 537ZM856 298L905 298 905 367 856 367ZM773 298L820 298 820 367 773 367ZM691 298L737 298 737 367 691 367ZM646 254L646 410 952 410 952 254ZM616 43L352 43 352 409 620 409 620 358 528 358 528 301 608 301 608 201C619 208 631 217 639 225 663 200 685 168 703 134L959 134 959 82 728 82C737 62 744 42 750 23L691 10C677 64 646 128 608 176L608 146 528 146 528 94 616 94ZM416 446L416 762 519 762C502 830 451 861 306 877 319 890 336 915 342 931 510 907 569 859 590 762L685 762 685 839C685 902 702 919 776 919 791 919 872 919 887 919 942 919 961 898 968 816 949 811 922 802 909 792 906 853 901 860 879 860 861 860 797 860 784 860 755 860 751 857 751 838L751 762 896 762 896 446ZM476 146L407 146 407 94 476 94ZM476 301L476 358 407 358 407 301ZM407 192L554 192 554 255 407 255ZM178 10L178 227 52 227 52 296 171 296C144 432 88 591 31 675 43 691 60 719 68 738 109 674 148 572 178 466L178 929 246 929 246 456C274 506 307 571 320 603L359 549C344 521 270 405 246 372L246 296 337 296 337 227 246 227 246 10Z"/>
</svg>