<svg xmlns="http://www.w3.org/2000/svg"
    viewBox="0 0 1000 1000">
  <!--
© 2014-2021 Adobe (http://www.adobe.com/).
Noto is a trademark of Google Inc.
This Font Software is licensed under the SIL Open Font License, Version 1.1. This Font Software is distributed on an "AS IS" BASIS, WITHOUT WARRANTIES OR CONDITIONS OF ANY KIND, either express or implied. See the SIL Open Font License for the specific language, permissions and limitations governing your use of this Font Software.
http://scripts.sil.org/OFL
  -->
<path d="M531 623C544 644 556 674 560 694L594 682C590 663 578 634 564 613ZM703 611C696 630 682 662 670 683L702 695C714 675 725 651 739 624ZM167 10L167 222 49 222 49 292 161 292C137 430 84 591 30 678 42 694 60 722 68 742 106 682 140 589 167 491L167 929 235 929 235 481C257 517 280 558 291 582L333 522C319 502 257 418 235 390L235 292 324 292 324 222 235 222 235 10ZM729 10L729 78 537 78 537 10 469 10 469 78 312 78 312 137 469 137 469 184 537 184 537 137 729 137 729 184 798 184 798 137 955 137 955 78 798 78 798 10ZM347 209L347 933 411 933 411 440 605 440 605 209ZM411 258L544 258 544 302 411 302ZM411 391L411 342 544 342 544 391ZM724 342L864 342 864 391 724 391ZM724 302L724 258 864 258 864 302ZM864 209L664 209 664 440 864 440 864 861C864 872 861 876 850 876 841 876 808 876 773 875 781 891 791 916 794 932 845 932 881 931 903 921 926 911 932 895 932 861L932 209ZM604 446L604 490 456 490 456 535 604 535 604 569 473 569 473 736 578 736C541 778 488 818 442 839 454 848 471 867 480 880 521 857 567 816 604 774L604 902 659 902 659 766C696 807 743 850 780 875 789 862 806 844 818 834 779 813 729 774 692 736L802 736 802 569 659 569 659 535 812 535 812 490 659 490 659 446ZM517 608L609 608 609 696 517 696ZM654 608L756 608 756 696 654 696Z"/>
</svg>