<svg xmlns="http://www.w3.org/2000/svg"
    viewBox="0 0 1000 1000">
  <!--
© 2014-2021 Adobe (http://www.adobe.com/).
Noto is a trademark of Google Inc.
This Font Software is licensed under the SIL Open Font License, Version 1.1. This Font Software is distributed on an "AS IS" BASIS, WITHOUT WARRANTIES OR CONDITIONS OF ANY KIND, either express or implied. See the SIL Open Font License for the specific language, permissions and limitations governing your use of this Font Software.
http://scripts.sil.org/OFL
  -->
<path d="M377 261L440 261 440 362 377 362ZM560 261L623 261 623 362 560 362ZM515 213L515 411 669 411 669 213ZM749 271L870 271 870 378 749 378ZM749 437L870 437 870 545 749 545ZM749 106L870 106 870 212 749 212ZM547 10L547 83 455 83 455 10 398 10 398 83 311 83 311 140 398 140 398 195 455 195 455 140 547 140 547 195 604 195 604 140 678 140 678 83 604 83 604 10ZM491 651L491 708 406 708 406 651ZM691 44L691 608 722 608C716 711 701 790 654 844L654 813 547 813 547 756 648 756 648 708 547 708 547 651 648 651 648 604 547 604 547 547 666 547 666 494 563 494 593 426 531 416C525 438 515 468 505 494L427 494C438 471 448 448 457 424L406 411 485 411 485 213 332 213 332 411 397 411C367 491 321 571 268 626 282 635 307 655 317 664 328 652 338 639 349 624L349 917 406 917 406 867 630 867C623 873 615 879 606 884 620 895 638 918 646 933 742 869 768 761 776 608L814 608 814 845C814 884 817 899 828 910 840 921 857 924 874 924 882 924 900 924 910 924 923 924 938 921 947 916 958 909 966 897 970 881 974 865 977 816 978 774 963 769 944 758 933 749 933 792 932 828 930 843 928 852 925 860 921 863 918 866 912 868 905 868 899 868 892 868 887 868 881 868 876 866 874 863 870 860 870 854 870 848L870 608 930 608 930 44ZM491 604L406 604 406 547 491 547ZM491 756L491 813 406 813 406 756ZM162 10L162 227 52 227 52 297 157 297C133 433 83 594 31 678 43 693 58 720 66 738 102 678 136 581 162 479L162 929 228 929 228 414C251 460 276 516 287 545L323 491C310 465 251 366 228 330L228 297 315 297 315 227 228 227 228 10Z"/>
</svg>