<svg xmlns="http://www.w3.org/2000/svg"
    viewBox="0 0 1000 1000">
  <!--
© 2014-2021 Adobe (http://www.adobe.com/).
Noto is a trademark of Google Inc.
This Font Software is licensed under the SIL Open Font License, Version 1.1. This Font Software is distributed on an "AS IS" BASIS, WITHOUT WARRANTIES OR CONDITIONS OF ANY KIND, either express or implied. See the SIL Open Font License for the specific language, permissions and limitations governing your use of this Font Software.
http://scripts.sil.org/OFL
  -->
<path d="M38 724L87 786C154 721 239 634 313 553L271 489C187 578 96 669 38 724ZM70 131C134 176 213 242 251 286L307 224C268 181 187 118 123 77ZM446 12C411 172 350 329 265 427 285 436 321 457 337 469 379 413 416 343 449 264L571 264 571 392C571 486 519 748 214 868 228 883 251 913 260 930 501 828 593 627 610 533 625 626 710 834 921 930 932 912 955 881 970 863 697 745 648 480 649 392L649 264 857 264C836 331 805 405 779 452 797 459 826 475 842 483 879 416 926 312 953 216L898 186 883 190 477 190C495 138 511 82 524 26Z"/>
</svg>