<svg xmlns="http://www.w3.org/2000/svg" name="gid7275" data-unicode="欧"
    viewBox="0 0 1000 1000">
  <!--
© 2014-2021 Adobe (http://www.adobe.com/).
Noto is a trademark of Google Inc.
This Font Software is licensed under the SIL Open Font License, Version 1.1. This Font Software is distributed on an "AS IS" BASIS, WITHOUT WARRANTIES OR CONDITIONS OF ANY KIND, either express or implied. See the SIL Open Font License for the specific language, permissions and limitations governing your use of this Font Software.
http://scripts.sil.org/OFL
  -->
<path d="M162 340C206 381 252 428 294 477 259 560 216 632 164 688 181 699 209 723 220 735 267 680 308 612 343 536 382 585 416 633 437 672L487 618C462 574 421 520 373 464 402 388 426 304 444 217L374 205C360 275 343 343 321 407 283 367 243 328 206 294ZM576 39C555 200 518 357 453 457 471 467 502 491 515 504 550 446 579 372 602 289L666 289 666 431C666 500 644 686 509 821L509 766 154 766 154 175 500 175 500 105 82 105 82 912 154 912 154 836 493 836C470 857 443 877 413 895 427 910 449 941 457 957 629 852 691 667 702 582 713 664 770 857 919 956 930 938 952 908 966 892 771 766 739 511 740 431L740 289 867 289C856 355 842 426 826 474L882 503C909 434 934 326 950 234L899 215 887 219 620 219C633 165 643 108 651 51Z"/>
</svg>