<svg xmlns="http://www.w3.org/2000/svg" name="gid7289" data-unicode="款"
    viewBox="0 0 1000 1000">
  <!--
© 2014-2021 Adobe (http://www.adobe.com/).
Noto is a trademark of Google Inc.
This Font Software is licensed under the SIL Open Font License, Version 1.1. This Font Software is distributed on an "AS IS" BASIS, WITHOUT WARRANTIES OR CONDITIONS OF ANY KIND, either express or implied. See the SIL Open Font License for the specific language, permissions and limitations governing your use of this Font Software.
http://scripts.sil.org/OFL
  -->
<path d="M116 661C98 737 67 812 24 863 40 870 69 885 82 895 123 840 160 757 181 674ZM376 684C404 733 435 799 448 839L507 811C494 772 462 708 433 661ZM247 43L247 135 51 135 51 199 247 199 247 285 74 285 74 348 493 348 493 285 318 285 318 199 513 199 513 135 318 135 318 43ZM39 563L39 627 248 627 248 883C248 893 245 896 233 896 222 897 187 897 147 896 156 915 166 942 169 961 226 961 263 960 287 949 312 938 318 919 318 884L318 627 523 627 523 563ZM599 39C579 195 543 348 481 447L481 423 85 423 85 486 481 486 481 454C499 464 531 486 543 497 576 441 603 370 626 290L680 290 680 427C681 510 651 766 440 901 454 915 476 945 484 961 648 853 706 667 716 581 727 664 778 859 920 960 931 943 953 913 967 896 783 767 752 507 753 427L753 290 871 290C862 356 850 427 838 474L897 492C918 426 937 320 950 232L901 218 889 221 643 221C656 166 666 109 674 50Z"/>
</svg>