<svg xmlns="http://www.w3.org/2000/svg" name="gid7301" data-unicode="歓"
    viewBox="0 0 1000 1000">
  <!--
© 2014-2021 Adobe (http://www.adobe.com/).
Noto is a trademark of Google Inc.
This Font Software is licensed under the SIL Open Font License, Version 1.1. This Font Software is distributed on an "AS IS" BASIS, WITHOUT WARRANTIES OR CONDITIONS OF ANY KIND, either express or implied. See the SIL Open Font License for the specific language, permissions and limitations governing your use of this Font Software.
http://scripts.sil.org/OFL
  -->
<path d="M301 638L301 709 189 709 189 638ZM605 39C585 197 549 350 486 448L501 455C519 464 541 475 551 483 582 430 608 364 629 289L688 289 688 426C689 499 667 716 516 855L516 836 367 836 367 764 488 764 488 709 367 709 367 638 488 638 488 583 367 583 367 514 501 514 501 455 371 455 405 381 336 365C329 391 317 425 305 455L196 455C214 424 231 390 246 356L519 356 519 293 272 293C285 260 296 226 306 192L499 192 499 131 199 131C209 106 219 81 227 55L159 39C135 120 93 199 42 252 58 261 88 280 101 291 125 264 148 230 168 192L236 192C226 227 214 260 201 293L42 293 42 356 173 356C132 439 82 511 23 565 36 579 59 610 68 625 87 607 105 587 122 565L122 959 189 959 189 895 465 895C478 909 500 940 508 956 661 849 715 663 725 582 734 661 783 853 921 956 932 938 954 907 968 891 788 762 760 504 761 426L761 289 875 289C867 354 856 423 844 470L904 487C923 422 941 317 953 230L904 216 893 219 646 219C659 165 669 108 677 50ZM301 583L189 583 189 514 301 514ZM301 764L301 836 189 836 189 764Z"/>
</svg>