<svg xmlns="http://www.w3.org/2000/svg" name="gid7308" data-unicode="歟"
    viewBox="0 0 1000 1000">
  <!--
© 2014-2021 Adobe (http://www.adobe.com/).
Noto is a trademark of Google Inc.
This Font Software is licensed under the SIL Open Font License, Version 1.1. This Font Software is distributed on an "AS IS" BASIS, WITHOUT WARRANTIES OR CONDITIONS OF ANY KIND, either express or implied. See the SIL Open Font License for the specific language, permissions and limitations governing your use of this Font Software.
http://scripts.sil.org/OFL
  -->
<path d="M185 737C155 804 103 871 47 915 63 926 92 949 104 961 160 910 218 834 254 756ZM394 766C432 807 479 863 501 898L559 860C537 825 489 772 450 734ZM653 41C638 183 611 322 564 421 568 312 571 196 572 100L422 100 422 159 513 159 511 280 430 280 430 338 509 338 505 463 430 463 430 521 502 521 495 648 403 648 403 307 302 307 302 199 415 199 415 143 302 143 302 46 250 46 250 362 351 362 351 648 294 648 294 436 245 436 245 648 151 648 148 522 220 522 220 463 147 463 145 338 216 338 216 280 144 280 142 174C174 156 212 130 245 101L201 59C182 78 152 104 125 124L85 110 96 648 37 648 37 712 613 712 613 648 553 648C556 594 560 528 563 457 577 466 595 479 603 486 633 431 657 362 676 285L720 285 720 433C721 509 699 765 515 905 527 918 546 946 555 961 696 851 745 670 754 589 762 667 803 855 923 961 933 944 954 917 967 901 810 767 788 507 788 434L788 285 885 285C877 349 865 418 853 465L906 492C928 424 947 318 959 229L913 212 901 216 691 216C702 162 710 106 717 49Z"/>
</svg>