<svg xmlns="http://www.w3.org/2000/svg"
    viewBox="0 0 1000 1000">
  <!--
© 2014-2021 Adobe (http://www.adobe.com/).
Noto is a trademark of Google Inc.
This Font Software is licensed under the SIL Open Font License, Version 1.1. This Font Software is distributed on an "AS IS" BASIS, WITHOUT WARRANTIES OR CONDITIONS OF ANY KIND, either express or implied. See the SIL Open Font License for the specific language, permissions and limitations governing your use of this Font Software.
http://scripts.sil.org/OFL
  -->
<path d="M185 707C155 774 103 841 47 885 63 896 92 919 104 931 160 880 218 804 254 726ZM394 736C432 777 479 833 501 868L559 830C537 795 489 742 450 704ZM653 11C638 153 611 292 564 391 568 282 571 166 572 70L422 70 422 129 513 129 511 250 430 250 430 308 509 308 505 433 430 433 430 491 502 491 495 618 403 618 403 277 302 277 302 169 415 169 415 113 302 113 302 16 250 16 250 332 351 332 351 618 294 618 294 406 245 406 245 618 151 618 148 492 220 492 220 433 147 433 145 308 216 308 216 250 144 250 142 144C174 126 212 100 245 71L201 29C182 48 152 74 125 94L85 80 96 618 37 618 37 682 613 682 613 618 553 618C556 564 560 498 563 427 577 436 595 449 603 456 633 401 657 332 676 255L720 255 720 403C721 479 699 735 515 875 527 888 546 916 555 931 696 821 745 640 754 559 762 637 803 825 923 931 933 914 954 887 967 871 810 737 788 477 788 404L788 255 885 255C877 319 865 388 853 435L906 462C928 394 947 288 959 199L913 182 901 186 691 186C702 132 710 76 717 19Z"/>
</svg>