<svg xmlns="http://www.w3.org/2000/svg"
    viewBox="0 0 1000 1000">
  <!--
© 2014-2021 Adobe (http://www.adobe.com/).
Noto is a trademark of Google Inc.
This Font Software is licensed under the SIL Open Font License, Version 1.1. This Font Software is distributed on an "AS IS" BASIS, WITHOUT WARRANTIES OR CONDITIONS OF ANY KIND, either express or implied. See the SIL Open Font License for the specific language, permissions and limitations governing your use of this Font Software.
http://scripts.sil.org/OFL
  -->
<path d="M513 72L513 830 393 830 393 898 969 898 969 830 897 830 897 72ZM585 830L585 639 822 639 822 830ZM585 388L822 388 822 572 585 572ZM585 321L585 143 822 143 822 321ZM56 71L56 140 186 140C156 294 105 433 27 525 44 537 74 563 86 577 104 554 121 528 136 500 191 535 251 580 287 617 235 733 164 819 78 876 94 887 121 914 132 930 290 819 404 606 445 276L401 262 387 265 231 265C242 225 253 183 261 140L470 140 470 71ZM210 333L366 333C354 412 337 483 315 546 277 511 219 471 167 441 182 407 197 371 210 333Z"/>
</svg>