<svg xmlns="http://www.w3.org/2000/svg" name="gid7346" data-unicode="殍"
    viewBox="0 0 1000 1000">
  <!--
© 2014-2021 Adobe (http://www.adobe.com/).
Noto is a trademark of Google Inc.
This Font Software is licensed under the SIL Open Font License, Version 1.1. This Font Software is distributed on an "AS IS" BASIS, WITHOUT WARRANTIES OR CONDITIONS OF ANY KIND, either express or implied. See the SIL Open Font License for the specific language, permissions and limitations governing your use of this Font Software.
http://scripts.sil.org/OFL
  -->
<path d="M632 185C650 234 665 301 668 344L733 327C728 284 713 219 693 169ZM798 155C841 218 886 302 904 358L966 328C947 274 901 191 855 130ZM473 373L473 439 774 439C746 474 712 510 680 539L648 539 648 621 400 621 400 689 648 689 648 875C648 887 644 891 629 891 615 891 565 892 514 890 523 909 536 940 540 960 610 960 655 959 684 947 713 936 721 915 721 876L721 689 961 689 961 621 721 621 721 582C781 534 844 466 889 404L842 369 828 373ZM49 86L49 155 174 155C145 313 96 460 22 555 38 566 68 591 80 604 96 582 111 558 124 532 174 565 225 606 259 641 211 761 144 850 62 909 78 920 104 945 114 962 258 853 363 645 404 333 421 342 449 359 462 368 498 316 529 242 552 163 672 149 808 125 905 93L843 40C776 64 660 88 553 103L497 91C479 178 448 264 405 325L408 302 365 289 352 292 216 292C228 248 238 202 247 155L437 155 437 86ZM196 360L331 360C321 436 305 506 286 568 249 536 200 499 154 472 169 437 183 399 196 360Z"/>
</svg>