<svg xmlns="http://www.w3.org/2000/svg"
    viewBox="0 0 1000 1000">
  <!--
© 2014-2021 Adobe (http://www.adobe.com/).
Noto is a trademark of Google Inc.
This Font Software is licensed under the SIL Open Font License, Version 1.1. This Font Software is distributed on an "AS IS" BASIS, WITHOUT WARRANTIES OR CONDITIONS OF ANY KIND, either express or implied. See the SIL Open Font License for the specific language, permissions and limitations governing your use of this Font Software.
http://scripts.sil.org/OFL
  -->
<path d="M800 196C789 251 764 331 745 380L805 397C827 351 852 278 875 215ZM507 216C527 273 546 348 549 397L616 379C611 331 593 257 570 201ZM411 406L411 472 961 472 961 406ZM438 122L438 188 946 188 946 122 719 122 719 11 646 11 646 122ZM467 554L467 930 538 930 538 888 836 888 836 926 909 926 909 554ZM538 822L538 620 836 620 836 822ZM52 57L52 126 174 126C145 283 96 430 22 525 38 536 68 561 80 574 96 552 111 528 124 502 174 535 225 576 259 611 211 731 144 820 62 879 78 890 104 915 114 932 263 819 370 601 408 272L365 259 352 262 216 262C228 218 238 173 247 126L430 126 430 57ZM196 330L331 330C321 406 305 476 286 538 249 506 200 469 154 442 169 407 183 369 196 330Z"/>
</svg>