<svg xmlns="http://www.w3.org/2000/svg" name="gid7348" data-unicode="殖"
    viewBox="0 0 1000 1000">
  <!--
© 2014-2021 Adobe (http://www.adobe.com/).
Noto is a trademark of Google Inc.
This Font Software is licensed under the SIL Open Font License, Version 1.1. This Font Software is distributed on an "AS IS" BASIS, WITHOUT WARRANTIES OR CONDITIONS OF ANY KIND, either express or implied. See the SIL Open Font License for the specific language, permissions and limitations governing your use of this Font Software.
http://scripts.sil.org/OFL
  -->
<path d="M621 488L832 488 832 571 621 571ZM621 626L832 626 832 709 621 709ZM621 352L832 352 832 433 621 433ZM670 40L662 145 432 145 432 211 655 211 644 294 554 294 554 767 901 767 901 294 714 294 727 211 949 211 949 145 736 145 747 45ZM414 365L414 960 482 960 482 908 962 908 962 840 482 840 482 365ZM57 82L57 151 174 151C147 309 104 455 32 551 49 562 77 588 88 601 102 581 115 560 127 537 175 568 226 609 258 642 211 763 145 853 65 912 81 923 106 949 118 965 262 852 366 636 402 310L359 297 347 300 215 300C227 252 237 202 246 151L408 151 408 82ZM196 368L327 368C317 441 302 508 284 569 249 538 201 504 155 478 170 443 184 407 196 368Z"/>
</svg>