<svg xmlns="http://www.w3.org/2000/svg"
    viewBox="0 0 1000 1000">
  <!--
© 2014-2021 Adobe (http://www.adobe.com/).
Noto is a trademark of Google Inc.
This Font Software is licensed under the SIL Open Font License, Version 1.1. This Font Software is distributed on an "AS IS" BASIS, WITHOUT WARRANTIES OR CONDITIONS OF ANY KIND, either express or implied. See the SIL Open Font License for the specific language, permissions and limitations governing your use of this Font Software.
http://scripts.sil.org/OFL
  -->
<path d="M703 52C753 72 813 103 845 126L882 76C849 54 787 25 740 8ZM692 496C747 514 816 544 852 565L889 515C852 494 782 467 729 452ZM821 211C794 243 758 272 716 297 697 272 679 242 665 208L942 184 937 122 643 146C630 104 622 59 619 10L552 10C555 60 563 108 575 152L414 165 420 229 595 214C611 257 632 296 655 329 585 362 504 388 424 407 438 419 460 447 468 462 544 441 623 413 694 377 746 431 807 462 870 462 929 462 953 434 965 334 948 329 926 319 911 306 907 374 899 397 873 397 834 398 793 378 755 343 806 311 851 275 885 233ZM821 656C790 694 746 728 696 757 673 727 654 691 637 651L960 626 955 564 616 589C605 547 597 502 594 454L525 454C528 503 536 550 547 594L393 606 399 670 567 657C585 706 607 750 634 788 554 825 462 853 370 872 385 886 406 917 415 931 503 908 593 878 674 838 730 897 796 931 868 931 932 931 958 901 969 790 952 784 929 773 914 761 909 838 901 865 871 865 825 866 778 844 737 804 796 769 848 728 887 681ZM49 56L49 125 174 125C145 283 96 430 22 525 38 536 68 561 80 574 96 552 111 528 124 502 174 535 225 576 259 611 211 731 144 820 62 879 78 890 104 915 114 932 263 819 370 601 408 272L365 259 352 262 216 262C228 218 238 172 247 125L437 125 437 56ZM196 330L331 330C321 406 305 476 286 538 249 506 200 469 154 442 169 407 183 369 196 330Z"/>
</svg>