<svg xmlns="http://www.w3.org/2000/svg" name="gid7351" data-unicode="殛"
    viewBox="0 0 1000 1000">
  <!--
© 2014-2021 Adobe (http://www.adobe.com/).
Noto is a trademark of Google Inc.
This Font Software is licensed under the SIL Open Font License, Version 1.1. This Font Software is distributed on an "AS IS" BASIS, WITHOUT WARRANTIES OR CONDITIONS OF ANY KIND, either express or implied. See the SIL Open Font License for the specific language, permissions and limitations governing your use of this Font Software.
http://scripts.sil.org/OFL
  -->
<path d="M329 864L329 928 961 928 961 864ZM53 77L53 143 148 143C126 308 90 463 24 567 40 577 67 602 78 614 92 590 106 564 118 536 158 568 199 607 224 639 186 760 131 852 63 914 78 924 103 947 114 963 239 847 323 626 352 303L311 293 298 295 190 295C201 246 209 195 216 143L360 143 360 77ZM175 361L280 361C272 436 260 505 245 568 217 538 178 505 141 478 154 441 165 402 175 361ZM383 80L383 144 521 144C506 205 486 273 469 320L537 330 545 307 624 307C619 622 613 731 598 755 591 766 583 769 570 768 556 768 523 768 487 765 497 782 503 807 504 825 540 827 577 827 599 825 624 822 641 815 655 793 679 758 683 644 689 281 689 271 689 248 689 248L562 248 591 144 943 144 943 80ZM762 372L711 383C727 476 751 563 786 636 756 691 720 734 680 762 693 774 710 796 719 811 757 783 791 746 820 700 850 748 886 787 928 816 937 800 958 777 972 765 925 737 886 693 854 639 896 550 925 436 938 295L901 288 889 290 715 290 715 350 871 350C860 432 842 505 818 567 793 508 774 442 762 372ZM364 360L364 740 418 740 418 675 557 675 557 360ZM418 414L502 414 502 621 418 621Z"/>
</svg>