<svg xmlns="http://www.w3.org/2000/svg"
    viewBox="0 0 1000 1000">
  <!--
© 2014-2021 Adobe (http://www.adobe.com/).
Noto is a trademark of Google Inc.
This Font Software is licensed under the SIL Open Font License, Version 1.1. This Font Software is distributed on an "AS IS" BASIS, WITHOUT WARRANTIES OR CONDITIONS OF ANY KIND, either express or implied. See the SIL Open Font License for the specific language, permissions and limitations governing your use of this Font Software.
http://scripts.sil.org/OFL
  -->
<path d="M241 709C220 776 181 844 135 890 151 899 178 918 190 929 236 879 281 801 306 724ZM371 727C405 772 442 835 457 878L517 850C500 809 463 748 427 703ZM642 519L577 535C604 616 640 688 687 749 626 804 555 844 478 869 492 885 511 913 519 931 598 901 670 860 733 803 786 858 850 901 924 930 934 911 956 883 971 868 898 844 835 804 783 752 848 678 898 583 926 464L880 448 868 451 540 451 540 518 837 518C813 588 778 648 735 699 695 646 664 585 642 519ZM166 476L238 476 238 605 158 605C162 561 165 517 166 476ZM388 303L388 415 294 415 294 303 238 303 238 415 167 415 167 398 167 281 510 281 510 51 101 51 101 399C101 539 95 730 26 863 43 870 72 890 84 903 123 827 144 731 155 635L155 667 528 667 528 605 444 605 444 476 506 476 506 415 444 415 444 303ZM294 476L388 476 388 605 294 605ZM591 51L591 190C591 255 580 331 500 388 515 397 541 422 550 436 641 371 658 272 658 191L658 117 786 117 786 286C786 343 790 358 803 372 816 383 837 388 855 388 864 388 884 388 896 388 910 388 927 386 937 379 950 374 958 363 964 347 969 331 972 286 974 247 956 241 933 230 919 218 918 259 918 289 915 303 913 316 910 323 907 326 904 329 898 330 891 330 884 330 875 330 871 330 865 330 860 329 857 326 854 322 854 309 854 290L854 51ZM167 110L441 110 441 221 167 221Z"/>
</svg>