<svg xmlns="http://www.w3.org/2000/svg" name="gid7407" data-unicode="毫"
    viewBox="0 0 1000 1000">
  <!--
© 2014-2021 Adobe (http://www.adobe.com/).
Noto is a trademark of Google Inc.
This Font Software is licensed under the SIL Open Font License, Version 1.1. This Font Software is distributed on an "AS IS" BASIS, WITHOUT WARRANTIES OR CONDITIONS OF ANY KIND, either express or implied. See the SIL Open Font License for the specific language, permissions and limitations governing your use of this Font Software.
http://scripts.sil.org/OFL
  -->
<path d="M73 459L73 624 140 624 140 514 861 514 861 618 930 618 930 459ZM268 280L737 280 737 359 268 359ZM194 232L194 407 816 407 816 232ZM458 39L458 122 59 122 59 178 944 178 944 122 537 122 537 39ZM717 520C599 553 373 577 187 589 193 601 199 620 201 633 274 629 354 623 431 615L431 668 127 688 132 737 431 717 431 778 79 801 84 853 431 830 431 861C431 939 464 956 582 956 608 956 805 956 832 956 920 956 944 934 953 842 933 839 905 830 889 820 884 889 875 901 826 901 783 901 617 901 586 901 518 901 505 894 505 861L505 825 905 798 900 747 505 773 505 712 846 689 841 641 505 663 505 607C602 595 692 580 761 562Z"/>
</svg>