<svg xmlns="http://www.w3.org/2000/svg" name="gid7415" data-unicode="毿"
    viewBox="0 0 1000 1000">
  <!--
© 2014-2021 Adobe (http://www.adobe.com/).
Noto is a trademark of Google Inc.
This Font Software is licensed under the SIL Open Font License, Version 1.1. This Font Software is distributed on an "AS IS" BASIS, WITHOUT WARRANTIES OR CONDITIONS OF ANY KIND, either express or implied. See the SIL Open Font License for the specific language, permissions and limitations governing your use of this Font Software.
http://scripts.sil.org/OFL
  -->
<path d="M298 515C254 565 174 614 106 644 121 655 138 672 148 685 220 651 302 597 353 537ZM375 610C318 675 208 732 107 763 121 776 138 796 147 810 255 772 366 709 432 633ZM452 699C385 802 246 874 77 909 91 924 108 947 116 965 297 921 442 842 516 720ZM331 110C351 129 372 150 392 172L218 182C240 144 265 98 287 58L216 40C202 82 176 141 151 186L65 190 73 249 434 222C448 240 459 256 467 270L522 240C495 195 434 129 382 84ZM432 325L459 367 385 374 421 265 366 250C359 286 345 339 330 379L319 364 258 364 253 372C242 352 228 329 214 311L171 330C180 342 188 356 196 371L127 378 170 272 114 255C105 292 89 344 74 384L35 387 45 445 216 416 217 419C168 476 97 531 25 564 38 578 53 601 60 617 152 568 241 491 291 420 347 494 442 568 526 612 536 595 552 571 564 557 500 529 432 483 376 428L483 412C490 426 495 438 499 449L547 425C537 392 507 341 478 305ZM541 613L549 681 682 658 682 838C682 924 702 947 773 947 788 947 863 947 878 947 943 947 961 905 968 777 948 773 921 760 904 747 901 856 898 881 873 881 858 881 795 881 783 881 755 881 751 875 751 839L751 646 958 611 949 544 751 577 751 414 938 381 930 314 751 345 751 174C812 151 869 126 915 98L850 46C782 95 654 142 540 173 550 188 561 214 566 230 604 220 643 209 682 197L682 357 555 379 563 447 682 426 682 589Z"/>
</svg>