<svg xmlns="http://www.w3.org/2000/svg" name="gid7423" data-unicode="氎"
    viewBox="0 0 1000 1000">
  <!--
© 2014-2021 Adobe (http://www.adobe.com/).
Noto is a trademark of Google Inc.
This Font Software is licensed under the SIL Open Font License, Version 1.1. This Font Software is distributed on an "AS IS" BASIS, WITHOUT WARRANTIES OR CONDITIONS OF ANY KIND, either express or implied. See the SIL Open Font License for the specific language, permissions and limitations governing your use of this Font Software.
http://scripts.sil.org/OFL
  -->
<path d="M126 67L126 287 507 287 507 67ZM109 451L158 451 158 494 109 494ZM199 451L250 451 250 494 199 494ZM109 367L158 367 158 409 109 409ZM199 367L250 367 250 409 199 409ZM335 323L335 521 296 521 296 323 64 323 64 537 284 537 284 581 59 581 59 705 116 705 116 632 239 632C205 705 145 770 78 814 93 822 118 840 129 850 171 819 213 777 248 729L392 729C375 756 354 783 331 809 307 792 275 773 249 760L212 792C239 808 271 828 294 846 280 860 265 873 249 885L44 885 44 940 595 940 595 885 330 885C387 834 444 763 486 694L439 678 425 681 279 681C288 666 296 650 303 634L295 632 517 632 517 705 576 705 576 581 347 581 347 537 571 537 571 323ZM187 199L284 199 284 240 187 240ZM344 199L444 199 444 240 344 240ZM187 114L284 114 284 154 187 154ZM344 114L444 114 444 154 344 154ZM380 451L430 451 430 494 380 494ZM472 451L524 451 524 494 472 494ZM380 367L430 367 430 409 380 409ZM472 367L524 367 524 409 472 409ZM584 605L597 672 688 652 688 836C688 920 707 943 775 943 789 943 856 943 870 943 933 943 949 901 956 773 936 768 910 756 894 743 892 852 888 877 864 877 850 877 796 877 785 877 760 877 756 872 756 836L756 637 963 592 951 526 756 568 756 404 934 363 921 297 756 335 756 171C816 149 874 123 920 96L857 43C791 90 671 138 564 171 574 186 585 211 589 227 621 218 655 207 688 196L688 350 590 373 604 439 688 420 688 583Z"/>
</svg>