<svg xmlns="http://www.w3.org/2000/svg" name="gid7444" data-unicode="氶"
    viewBox="0 0 1000 1000">
  <!--
© 2014-2021 Adobe (http://www.adobe.com/).
Noto is a trademark of Google Inc.
This Font Software is licensed under the SIL Open Font License, Version 1.1. This Font Software is distributed on an "AS IS" BASIS, WITHOUT WARRANTIES OR CONDITIONS OF ANY KIND, either express or implied. See the SIL Open Font License for the specific language, permissions and limitations governing your use of this Font Software.
http://scripts.sil.org/OFL
  -->
<path d="M870 290C816 358 726 446 652 507 618 452 590 392 568 331 658 276 754 202 822 133L771 95 755 98 168 98 168 166 684 166C631 214 562 264 499 301L464 301 464 860C464 877 457 882 438 883 419 883 352 884 279 881 290 903 301 935 306 956 398 956 458 955 493 943 528 931 540 909 540 861L540 428C623 623 754 786 920 870 932 851 956 821 974 807 860 757 762 668 686 559 764 501 863 412 937 336ZM58 370L58 437 313 437C261 605 154 736 30 809 48 820 78 847 90 863 227 774 349 611 404 388L355 367 343 370Z"/>
</svg>