<svg xmlns="http://www.w3.org/2000/svg" name="gid7459" data-unicode="汐"
    viewBox="0 0 1000 1000">
  <!--
© 2014-2021 Adobe (http://www.adobe.com/).
Noto is a trademark of Google Inc.
This Font Software is licensed under the SIL Open Font License, Version 1.1. This Font Software is distributed on an "AS IS" BASIS, WITHOUT WARRANTIES OR CONDITIONS OF ANY KIND, either express or implied. See the SIL Open Font License for the specific language, permissions and limitations governing your use of this Font Software.
http://scripts.sil.org/OFL
  -->
<path d="M96 103C164 131 245 179 285 215L329 153C287 117 204 73 137 48ZM38 376C107 400 191 443 233 476L274 412C231 380 144 340 77 318ZM76 896L139 947C198 854 268 729 321 623L266 574C208 687 129 819 76 896ZM583 39C521 223 414 391 283 494 302 507 335 533 350 546 381 519 411 488 439 454 529 507 626 581 680 642 584 764 461 850 330 898 347 913 367 943 377 962 643 853 865 622 944 228L894 209 880 212 595 212C620 163 642 111 661 58ZM482 399C508 364 533 325 556 285L854 285C825 396 782 493 727 577 668 517 571 448 482 399Z"/>
</svg>