<svg xmlns="http://www.w3.org/2000/svg" name="gid7465" data-unicode="汚"
    viewBox="0 0 1000 1000">
  <!--
© 2014-2021 Adobe (http://www.adobe.com/).
Noto is a trademark of Google Inc.
This Font Software is licensed under the SIL Open Font License, Version 1.1. This Font Software is distributed on an "AS IS" BASIS, WITHOUT WARRANTIES OR CONDITIONS OF ANY KIND, either express or implied. See the SIL Open Font License for the specific language, permissions and limitations governing your use of this Font Software.
http://scripts.sil.org/OFL
  -->
<path d="M92 102C157 132 235 181 273 219L317 157C278 121 198 76 134 48ZM38 373C104 401 184 448 223 482L265 420C225 387 143 342 78 317ZM71 897L135 946C190 854 257 728 306 622L250 574C195 688 122 819 71 897ZM324 332L324 402 492 402C472 494 450 582 430 648L507 659 522 603 814 603C798 781 780 858 754 880 743 889 731 891 709 891 684 891 617 890 550 884 564 904 573 934 575 956 640 960 704 961 735 958 773 956 796 950 818 928 853 892 873 800 893 569 894 558 896 535 896 535L539 535 570 402 960 402 960 332 585 332 619 167 920 167 920 97 366 97 366 167 541 167C531 219 520 275 508 332Z"/>
</svg>