<svg xmlns="http://www.w3.org/2000/svg" name="gid7480" data-unicode="汲"
    viewBox="0 0 1000 1000">
  <!--
© 2014-2021 Adobe (http://www.adobe.com/).
Noto is a trademark of Google Inc.
This Font Software is licensed under the SIL Open Font License, Version 1.1. This Font Software is distributed on an "AS IS" BASIS, WITHOUT WARRANTIES OR CONDITIONS OF ANY KIND, either express or implied. See the SIL Open Font License for the specific language, permissions and limitations governing your use of this Font Software.
http://scripts.sil.org/OFL
  -->
<path d="M92 102C157 132 235 181 273 219L317 157C278 121 198 76 134 48ZM38 373C104 401 184 448 223 482L265 420C225 387 143 342 78 317ZM66 899L131 947C185 854 250 727 299 621L242 574C188 689 116 821 66 899ZM720 155C711 217 698 297 686 363L498 363C503 298 506 229 508 155ZM339 85L339 155 434 155C429 498 397 755 236 913 253 924 289 949 301 961 420 831 470 658 492 431L503 431C539 552 589 661 656 751 587 818 505 867 415 901 432 913 457 943 467 960 554 924 634 874 703 807 765 874 840 926 928 960 939 941 961 912 977 898 890 868 815 818 753 753 832 658 892 535 926 379L879 360 865 363 760 363C776 275 792 169 802 88L749 81 736 85ZM838 431C809 537 764 625 705 697 647 621 602 530 572 431Z"/>
</svg>