<svg xmlns="http://www.w3.org/2000/svg" name="gid7489" data-unicode="汾"
    viewBox="0 0 1000 1000">
  <!--
© 2014-2021 Adobe (http://www.adobe.com/).
Noto is a trademark of Google Inc.
This Font Software is licensed under the SIL Open Font License, Version 1.1. This Font Software is distributed on an "AS IS" BASIS, WITHOUT WARRANTIES OR CONDITIONS OF ANY KIND, either express or implied. See the SIL Open Font License for the specific language, permissions and limitations governing your use of this Font Software.
http://scripts.sil.org/OFL
  -->
<path d="M445 172C414 285 357 388 280 453 298 465 328 490 340 504 418 430 484 316 519 188ZM91 103C155 132 232 180 270 217L313 155C274 120 196 76 132 49ZM38 374C103 402 181 447 220 481L263 418C223 385 143 342 79 318ZM67 898L132 946C187 852 253 726 303 620L246 573C191 688 118 820 67 898ZM479 75L479 146 721 146C759 280 830 403 917 476 931 458 960 434 979 421 888 352 811 219 779 75ZM402 438L402 509 525 509C505 705 442 834 297 909 314 922 342 949 351 964 504 873 575 732 600 509L782 509C775 763 766 858 746 880 737 890 727 892 710 892 691 892 640 892 585 887 598 906 607 936 608 957 660 960 713 960 742 958 772 955 792 948 811 925 838 890 846 782 855 472 856 462 856 438 856 438Z"/>
</svg>