<svg xmlns="http://www.w3.org/2000/svg" name="gid7490" data-unicode="沁"
    viewBox="0 0 1000 1000">
  <!--
© 2014-2021 Adobe (http://www.adobe.com/).
Noto is a trademark of Google Inc.
This Font Software is licensed under the SIL Open Font License, Version 1.1. This Font Software is distributed on an "AS IS" BASIS, WITHOUT WARRANTIES OR CONDITIONS OF ANY KIND, either express or implied. See the SIL Open Font License for the specific language, permissions and limitations governing your use of this Font Software.
http://scripts.sil.org/OFL
  -->
<path d="M464 105C558 148 669 220 721 274L771 207C716 153 604 86 510 46ZM478 261L478 829C478 924 503 950 594 950 612 950 725 950 745 950 831 950 852 901 861 744 839 738 808 726 792 712 787 849 780 879 740 879 716 879 621 879 602 879 561 879 554 871 554 829L554 261ZM352 398C342 509 320 636 271 713L335 747C386 663 407 526 418 413ZM774 390C832 488 882 620 896 707L972 684C955 596 905 466 844 367ZM89 103C150 133 223 181 259 217L303 155C267 120 192 76 132 49ZM38 373C100 400 174 445 210 478L253 417C216 384 141 341 80 317ZM60 903L130 945C175 851 228 726 268 619L206 577C163 692 103 824 60 903Z"/>
</svg>