<svg xmlns="http://www.w3.org/2000/svg" name="gid7493" data-unicode="沄"
    viewBox="0 0 1000 1000">
  <!--
© 2014-2021 Adobe (http://www.adobe.com/).
Noto is a trademark of Google Inc.
This Font Software is licensed under the SIL Open Font License, Version 1.1. This Font Software is distributed on an "AS IS" BASIS, WITHOUT WARRANTIES OR CONDITIONS OF ANY KIND, either express or implied. See the SIL Open Font License for the specific language, permissions and limitations governing your use of this Font Software.
http://scripts.sil.org/OFL
  -->
<path d="M93 103C161 131 243 178 282 215L327 151C285 116 202 72 135 46ZM38 376C107 400 192 443 233 476L276 411C232 379 146 340 79 318ZM72 896L136 947C194 853 263 728 316 623L260 574C203 687 125 819 72 896ZM387 117L387 189 891 189 891 117ZM723 640C762 691 800 752 831 810L490 834C531 735 579 597 613 483L949 483 949 410 320 410 320 483 527 483C500 596 453 743 413 839L312 845 324 922C467 911 670 894 865 877 879 907 891 935 898 960L970 927C941 839 863 709 788 611Z"/>
</svg>