<svg xmlns="http://www.w3.org/2000/svg"
    viewBox="0 0 1000 1000">
  <!--
© 2014-2021 Adobe (http://www.adobe.com/).
Noto is a trademark of Google Inc.
This Font Software is licensed under the SIL Open Font License, Version 1.1. This Font Software is distributed on an "AS IS" BASIS, WITHOUT WARRANTIES OR CONDITIONS OF ANY KIND, either express or implied. See the SIL Open Font License for the specific language, permissions and limitations governing your use of this Font Software.
http://scripts.sil.org/OFL
  -->
<path d="M93 73C161 101 243 148 282 185L327 121C285 86 202 42 135 16ZM38 346C107 370 192 413 233 446L276 381C232 349 146 310 79 288ZM72 866L136 917C194 823 263 698 316 593L260 544C203 657 125 789 72 866ZM387 87L387 159 891 159 891 87ZM723 610C762 661 800 722 831 780L490 804C531 705 579 567 613 453L949 453 949 380 320 380 320 453 527 453C500 566 453 713 413 809L312 815 324 892C467 881 670 864 865 847 879 877 891 905 898 930L970 897C941 809 863 679 788 581Z"/>
</svg>