<svg xmlns="http://www.w3.org/2000/svg" name="gid7499" data-unicode="沌"
    viewBox="0 0 1000 1000">
  <!--
© 2014-2021 Adobe (http://www.adobe.com/).
Noto is a trademark of Google Inc.
This Font Software is licensed under the SIL Open Font License, Version 1.1. This Font Software is distributed on an "AS IS" BASIS, WITHOUT WARRANTIES OR CONDITIONS OF ANY KIND, either express or implied. See the SIL Open Font License for the specific language, permissions and limitations governing your use of this Font Software.
http://scripts.sil.org/OFL
  -->
<path d="M91 103C155 132 232 180 270 217L313 155C274 120 196 76 132 49ZM38 374C103 402 181 447 220 481L263 418C223 385 143 342 79 318ZM67 898L132 946C187 852 253 726 303 620L246 573C191 688 118 820 67 898ZM864 93C810 115 737 135 656 153L656 44 582 44 582 168C490 186 392 201 301 212 310 229 320 257 323 275 406 265 495 253 582 238L582 628 431 628 431 338 360 338 360 767 431 767 431 698 582 698 582 816C582 902 594 922 620 937 644 950 679 954 708 954 726 954 791 954 812 954 840 954 875 952 897 946 920 939 937 928 946 907 955 887 962 838 964 798 939 792 912 779 894 764 893 809 890 842 886 858 882 872 870 878 859 881 848 883 826 884 806 884 781 884 739 884 721 884 702 884 689 882 675 879 661 873 656 854 656 823L656 698 815 698 815 746 887 746 887 338 815 338 815 628 656 628 656 224C755 205 847 182 920 154Z"/>
</svg>