<svg xmlns="http://www.w3.org/2000/svg" name="gid7510" data-unicode="沚"
    viewBox="0 0 1000 1000">
  <!--
© 2014-2021 Adobe (http://www.adobe.com/).
Noto is a trademark of Google Inc.
This Font Software is licensed under the SIL Open Font License, Version 1.1. This Font Software is distributed on an "AS IS" BASIS, WITHOUT WARRANTIES OR CONDITIONS OF ANY KIND, either express or implied. See the SIL Open Font License for the specific language, permissions and limitations governing your use of this Font Software.
http://scripts.sil.org/OFL
  -->
<path d="M93 102C161 131 242 178 282 215L326 152C285 117 201 73 134 47ZM39 375C108 400 192 443 233 476L274 412C231 380 145 340 78 318ZM72 897L136 947C194 854 263 729 315 623L260 574C203 688 125 820 72 897ZM405 273L405 855 290 855 290 928 961 928 961 855 696 855 696 465 934 465 934 392 696 392 696 40 618 40 618 855 479 855 479 273Z"/>
</svg>