<svg xmlns="http://www.w3.org/2000/svg" name="gid7511" data-unicode="沛"
    viewBox="0 0 1000 1000">
  <!--
© 2014-2021 Adobe (http://www.adobe.com/).
Noto is a trademark of Google Inc.
This Font Software is licensed under the SIL Open Font License, Version 1.1. This Font Software is distributed on an "AS IS" BASIS, WITHOUT WARRANTIES OR CONDITIONS OF ANY KIND, either express or implied. See the SIL Open Font License for the specific language, permissions and limitations governing your use of this Font Software.
http://scripts.sil.org/OFL
  -->
<path d="M85 109C144 141 223 190 261 221L300 159C260 130 181 85 123 54ZM42 381C99 413 176 460 214 490L252 428C212 398 135 354 79 326ZM70 896L126 947C181 854 247 729 296 623L247 574C193 687 120 819 70 896ZM591 39L591 188 312 188 312 261 591 261 591 385 356 385 356 830 430 830 430 457 591 457 591 961 667 961 667 457 836 457 836 739C836 750 833 753 820 754 808 754 770 754 726 753 736 774 745 804 748 825 810 825 851 825 877 812 904 799 910 778 910 740L910 385 667 385 667 261 959 261 959 188 667 188 667 39Z"/>
</svg>