<svg xmlns="http://www.w3.org/2000/svg"
    viewBox="0 0 1000 1000">
  <!--
© 2014-2021 Adobe (http://www.adobe.com/).
Noto is a trademark of Google Inc.
This Font Software is licensed under the SIL Open Font License, Version 1.1. This Font Software is distributed on an "AS IS" BASIS, WITHOUT WARRANTIES OR CONDITIONS OF ANY KIND, either express or implied. See the SIL Open Font License for the specific language, permissions and limitations governing your use of this Font Software.
http://scripts.sil.org/OFL
  -->
<path d="M347 81L347 153 944 153 944 81ZM92 72C157 102 235 151 273 189L317 127C278 91 198 46 134 18ZM38 343C104 371 184 418 223 452L265 390C225 357 143 312 78 287ZM71 867L135 916C190 824 257 698 306 592L250 544C195 658 122 789 71 867ZM395 272L395 473C395 598 382 765 268 884 286 894 316 919 328 933 417 838 452 708 464 591L839 591 839 648 913 648 913 272ZM839 521L469 521 470 473 470 342 839 342Z"/>
</svg>