<svg xmlns="http://www.w3.org/2000/svg" name="gid7519" data-unicode="沭"
    viewBox="0 0 1000 1000">
  <!--
© 2014-2021 Adobe (http://www.adobe.com/).
Noto is a trademark of Google Inc.
This Font Software is licensed under the SIL Open Font License, Version 1.1. This Font Software is distributed on an "AS IS" BASIS, WITHOUT WARRANTIES OR CONDITIONS OF ANY KIND, either express or implied. See the SIL Open Font License for the specific language, permissions and limitations governing your use of this Font Software.
http://scripts.sil.org/OFL
  -->
<path d="M89 103C152 132 228 180 266 217L309 156C271 121 194 76 131 50ZM38 374C102 402 179 448 217 481L260 420C221 387 142 344 79 319ZM66 898L129 944C184 851 249 724 298 618L243 574C189 688 117 820 66 898ZM751 376L751 774C751 848 766 870 828 870 839 870 878 870 890 870 947 870 963 831 968 690 949 684 920 672 905 660 903 784 900 804 883 804 873 804 845 804 838 804 823 804 821 800 821 774L821 376ZM400 376L400 468C400 585 389 739 274 862 292 873 317 895 329 911 455 774 468 603 468 469L468 376ZM698 98C758 134 831 187 866 225L913 173C876 136 801 85 742 52ZM571 44L571 240 302 240 302 311 571 311 571 959 643 959 643 311 954 311 954 240 643 240 643 44Z"/>
</svg>