<svg xmlns="http://www.w3.org/2000/svg" name="gid7522" data-unicode="沱"
    viewBox="0 0 1000 1000">
  <!--
© 2014-2021 Adobe (http://www.adobe.com/).
Noto is a trademark of Google Inc.
This Font Software is licensed under the SIL Open Font License, Version 1.1. This Font Software is distributed on an "AS IS" BASIS, WITHOUT WARRANTIES OR CONDITIONS OF ANY KIND, either express or implied. See the SIL Open Font License for the specific language, permissions and limitations governing your use of this Font Software.
http://scripts.sil.org/OFL
  -->
<path d="M93 102C161 131 242 178 282 215L326 152C285 117 201 73 134 47ZM39 375C108 400 192 443 233 476L274 412C231 380 145 340 78 318ZM76 897L139 947C198 854 267 729 320 623L265 574C207 688 129 820 76 897ZM349 188L349 383 420 383 420 258 862 258 862 383 935 383 935 188 677 188 677 41 601 41 601 188ZM810 434C743 483 631 536 521 579L521 344 447 344 447 822C447 918 478 944 587 944 611 944 779 944 805 944 906 944 929 900 939 747 919 743 888 730 870 717 863 848 855 874 801 874 764 874 620 874 591 874 532 874 521 865 521 822L521 646C646 603 781 546 875 488Z"/>
</svg>