<svg xmlns="http://www.w3.org/2000/svg" name="gid7528" data-unicode="沺"
    viewBox="0 0 1000 1000">
  <!--
© 2014-2021 Adobe (http://www.adobe.com/).
Noto is a trademark of Google Inc.
This Font Software is licensed under the SIL Open Font License, Version 1.1. This Font Software is distributed on an "AS IS" BASIS, WITHOUT WARRANTIES OR CONDITIONS OF ANY KIND, either express or implied. See the SIL Open Font License for the specific language, permissions and limitations governing your use of this Font Software.
http://scripts.sil.org/OFL
  -->
<path d="M91 103C155 132 232 180 270 217L313 155C274 120 196 76 132 49ZM38 374C103 402 181 447 220 481L263 418C223 385 143 342 79 318ZM67 898L132 946C187 852 253 726 303 620L246 573C191 688 118 820 67 898ZM601 827L439 827 439 530 601 530ZM674 827L674 530 844 530 844 827ZM367 99L367 960 439 960 439 900 844 900 844 952 919 952 919 99ZM601 458L439 458 439 171 601 171ZM674 458L674 171 844 171 844 458Z"/>
</svg>