<svg xmlns="http://www.w3.org/2000/svg"
    viewBox="0 0 1000 1000">
  <!--
© 2014-2021 Adobe (http://www.adobe.com/).
Noto is a trademark of Google Inc.
This Font Software is licensed under the SIL Open Font License, Version 1.1. This Font Software is distributed on an "AS IS" BASIS, WITHOUT WARRANTIES OR CONDITIONS OF ANY KIND, either express or implied. See the SIL Open Font License for the specific language, permissions and limitations governing your use of this Font Software.
http://scripts.sil.org/OFL
  -->
<path d="M102 72C169 99 249 142 288 176L332 114C291 80 208 40 144 17ZM39 351C110 376 197 417 240 450L281 385C236 354 147 315 78 294ZM77 871L141 919C204 823 279 693 337 584L282 537C220 655 135 792 77 871ZM457 126L828 126 828 394 457 394ZM383 56L383 465 490 465C480 671 452 800 267 870 283 884 305 913 313 931 515 848 552 698 564 465L680 465 680 819C680 897 699 921 774 921 788 921 856 921 872 921 939 921 958 881 965 733 944 728 914 715 898 703 895 832 891 854 865 854 851 854 796 854 785 854 759 854 755 849 755 818L755 465 904 465 904 56Z"/>
</svg>