<svg xmlns="http://www.w3.org/2000/svg"
    viewBox="0 0 1000 1000">
  <!--
© 2014-2021 Adobe (http://www.adobe.com/).
Noto is a trademark of Google Inc.
This Font Software is licensed under the SIL Open Font License, Version 1.1. This Font Software is distributed on an "AS IS" BASIS, WITHOUT WARRANTIES OR CONDITIONS OF ANY KIND, either express or implied. See the SIL Open Font License for the specific language, permissions and limitations governing your use of this Font Software.
http://scripts.sil.org/OFL
  -->
<path d="M88 73C150 101 226 149 264 185L307 123C269 89 192 44 130 18ZM38 344C101 370 177 415 215 448L259 385C220 353 142 311 79 287ZM62 872L129 917C182 823 244 696 291 589L232 545C180 660 111 793 62 872ZM333 74L333 926 404 926 404 849 855 849 855 917 928 917 928 74ZM404 778L404 589C418 600 434 614 442 625 559 544 575 433 575 315L575 144 666 144 666 458C666 528 682 546 747 546 759 546 830 546 843 546L855 545 855 778ZM404 572L404 144 514 144 514 314C514 409 501 503 404 572ZM728 144L855 144 855 476C853 479 849 481 836 481 822 481 764 481 754 481 731 481 728 477 728 457Z"/>
</svg>