<svg xmlns="http://www.w3.org/2000/svg" name="gid7559" data-unicode="波"
    viewBox="0 0 1000 1000">
  <!--
© 2014-2021 Adobe (http://www.adobe.com/).
Noto is a trademark of Google Inc.
This Font Software is licensed under the SIL Open Font License, Version 1.1. This Font Software is distributed on an "AS IS" BASIS, WITHOUT WARRANTIES OR CONDITIONS OF ANY KIND, either express or implied. See the SIL Open Font License for the specific language, permissions and limitations governing your use of this Font Software.
http://scripts.sil.org/OFL
  -->
<path d="M92 103C151 135 227 184 265 218L309 158C271 125 194 79 135 50ZM38 374C99 403 177 449 215 482L258 420C219 389 140 345 80 318ZM62 901L128 947C180 854 240 729 285 624L226 579C177 692 110 824 62 901ZM597 255L597 432 426 432 426 255ZM354 185L354 438C354 583 343 782 234 922 252 929 283 947 296 959 395 831 420 647 425 499L451 499C489 603 542 693 611 768 541 827 458 870 368 900 384 913 407 944 417 962 507 930 590 883 663 820 734 882 819 930 918 960 929 940 950 911 967 896 870 870 786 826 715 768 791 686 851 581 886 450L839 429 825 432 670 432 670 255 859 255C843 301 824 347 807 379L872 400C900 349 932 268 957 196L903 182 890 185 670 185 670 39 597 39 597 185ZM522 499L793 499C763 586 718 659 662 719 602 657 555 582 522 499Z"/>
</svg>