<svg xmlns="http://www.w3.org/2000/svg" name="gid7589" data-unicode="洗"
    viewBox="0 0 1000 1000">
  <!--
© 2014-2021 Adobe (http://www.adobe.com/).
Noto is a trademark of Google Inc.
This Font Software is licensed under the SIL Open Font License, Version 1.1. This Font Software is distributed on an "AS IS" BASIS, WITHOUT WARRANTIES OR CONDITIONS OF ANY KIND, either express or implied. See the SIL Open Font License for the specific language, permissions and limitations governing your use of this Font Software.
http://scripts.sil.org/OFL
  -->
<path d="M85 102C147 135 220 187 255 225L302 167C266 131 191 82 131 52ZM38 372C101 403 177 453 215 488L259 428C220 393 142 347 80 318ZM67 901L132 948C182 853 240 727 283 620L228 577C179 691 113 823 67 901ZM435 55C413 182 369 305 308 385 327 394 360 415 374 425 403 385 430 333 452 276L600 276 600 455 306 455 306 527 481 527C470 714 440 835 260 902 277 915 298 943 306 961 504 882 543 742 557 527L686 527 686 847C686 925 705 948 779 948 794 948 865 948 881 948 949 948 967 908 974 759 954 754 923 742 908 729 905 859 900 880 874 880 859 880 802 880 790 880 764 880 760 874 760 847L760 527 960 527 960 455 674 455 674 276 921 276 921 205 674 205 674 40 600 40 600 205 476 205C490 161 502 115 511 69Z"/>
</svg>