<svg xmlns="http://www.w3.org/2000/svg" name="gid7600" data-unicode="洩"
    viewBox="0 0 1000 1000">
  <!--
© 2014-2021 Adobe (http://www.adobe.com/).
Noto is a trademark of Google Inc.
This Font Software is licensed under the SIL Open Font License, Version 1.1. This Font Software is distributed on an "AS IS" BASIS, WITHOUT WARRANTIES OR CONDITIONS OF ANY KIND, either express or implied. See the SIL Open Font License for the specific language, permissions and limitations governing your use of this Font Software.
http://scripts.sil.org/OFL
  -->
<path d="M91 103C155 132 232 180 270 217L313 155C274 120 196 76 132 49ZM38 374C103 402 181 447 220 481L263 418C223 385 143 342 79 318ZM67 898L132 946C187 852 253 726 303 620L246 573C191 688 118 820 67 898ZM810 604C784 643 750 678 710 710 697 669 686 623 677 571L912 571 912 165 642 165 642 41 567 41 569 165 342 165 342 625 414 625 414 571 603 571C615 639 629 700 648 753 547 815 422 859 293 887 307 903 329 937 337 954 456 922 574 878 674 818 717 908 776 960 855 960 929 960 955 918 968 776 950 769 924 754 909 739 902 851 891 888 859 888 809 888 768 848 736 777 793 735 843 687 882 631ZM414 230L571 230 577 335 414 335ZM414 506L414 398 582 398C585 435 589 471 593 506ZM839 398L839 506 667 506C662 472 658 436 654 398ZM839 335L650 335 644 230 839 230Z"/>
</svg>