<svg xmlns="http://www.w3.org/2000/svg"
    viewBox="0 0 1000 1000">
  <!--
© 2014-2021 Adobe (http://www.adobe.com/).
Noto is a trademark of Google Inc.
This Font Software is licensed under the SIL Open Font License, Version 1.1. This Font Software is distributed on an "AS IS" BASIS, WITHOUT WARRANTIES OR CONDITIONS OF ANY KIND, either express or implied. See the SIL Open Font License for the specific language, permissions and limitations governing your use of this Font Software.
http://scripts.sil.org/OFL
  -->
<path d="M412 32L412 381C412 562 399 742 275 885 295 895 323 916 337 930 468 775 484 578 484 382L484 32ZM332 294C319 375 293 474 252 534L308 565C351 501 376 395 390 311ZM487 328C516 397 544 487 552 547L610 525C601 466 574 376 542 309ZM81 74C137 105 209 153 243 185L289 124C253 94 180 50 126 21ZM38 344C95 373 170 417 207 446L251 385C212 357 137 316 80 289ZM58 877L126 917C169 825 220 702 257 597L197 558C156 670 99 800 58 877ZM842 31L842 495C821 434 783 353 744 291L695 312 695 47 624 47 624 908 695 908 695 327C736 397 775 487 791 547L842 524 842 929 915 929 915 31Z"/>
</svg>