<svg xmlns="http://www.w3.org/2000/svg" name="gid7606" data-unicode="洲"
    viewBox="0 0 1000 1000">
  <!--
© 2014-2021 Adobe (http://www.adobe.com/).
Noto is a trademark of Google Inc.
This Font Software is licensed under the SIL Open Font License, Version 1.1. This Font Software is distributed on an "AS IS" BASIS, WITHOUT WARRANTIES OR CONDITIONS OF ANY KIND, either express or implied. See the SIL Open Font License for the specific language, permissions and limitations governing your use of this Font Software.
http://scripts.sil.org/OFL
  -->
<path d="M412 62L412 411C412 592 399 772 275 915 295 925 323 946 337 960 468 805 484 608 484 412L484 62ZM332 324C319 405 293 504 252 564L308 595C351 531 376 425 390 341ZM487 358C516 427 544 517 552 577L610 555C601 496 574 406 542 339ZM81 104C137 135 209 183 243 215L289 154C253 124 180 80 126 51ZM38 374C95 403 170 447 207 476L251 415C212 387 137 346 80 319ZM58 907L126 947C169 855 220 732 257 627L197 588C156 700 99 830 58 907ZM842 61L842 525C821 464 783 383 744 321L695 342 695 77 624 77 624 938 695 938 695 357C736 427 775 517 791 577L842 554 842 959 915 959 915 61Z"/>
</svg>