<svg xmlns="http://www.w3.org/2000/svg"
    viewBox="0 0 1000 1000">
  <!--
© 2014-2021 Adobe (http://www.adobe.com/).
Noto is a trademark of Google Inc.
This Font Software is licensed under the SIL Open Font License, Version 1.1. This Font Software is distributed on an "AS IS" BASIS, WITHOUT WARRANTIES OR CONDITIONS OF ANY KIND, either express or implied. See the SIL Open Font License for the specific language, permissions and limitations governing your use of this Font Software.
http://scripts.sil.org/OFL
  -->
<path d="M81 74C137 103 205 149 237 183L282 123C248 90 180 47 124 21ZM38 344C97 370 168 411 203 443L246 382C211 351 139 312 79 289ZM60 882L129 917C165 823 207 699 237 593L175 557C142 671 94 802 60 882ZM412 9C401 70 387 140 372 211L267 211 267 281 357 281C327 417 294 553 266 647L327 676 345 608C375 632 406 659 435 686 390 775 330 838 256 882 273 892 301 916 312 931 382 887 441 824 486 736 522 773 553 808 574 838L621 781C597 748 560 708 517 668 562 554 591 407 603 218L561 210 548 211 440 211 481 17ZM424 281L531 281C520 419 497 530 464 620 430 591 396 563 363 539 383 459 404 370 424 281ZM641 98L641 910 710 910 710 841 852 841 852 902 924 902 924 98ZM710 771L710 168 852 168 852 771Z"/>
</svg>