<svg xmlns="http://www.w3.org/2000/svg"
    viewBox="0 0 1000 1000">
  <!--
© 2014-2021 Adobe (http://www.adobe.com/).
Noto is a trademark of Google Inc.
This Font Software is licensed under the SIL Open Font License, Version 1.1. This Font Software is distributed on an "AS IS" BASIS, WITHOUT WARRANTIES OR CONDITIONS OF ANY KIND, either express or implied. See the SIL Open Font License for the specific language, permissions and limitations governing your use of this Font Software.
http://scripts.sil.org/OFL
  -->
<path d="M92 72C159 103 240 154 279 193L324 132C283 94 200 47 134 18ZM38 343C106 372 187 420 227 455L270 392C228 358 145 313 78 287ZM69 866L133 915C192 819 264 689 318 579L263 531C204 649 123 786 69 866ZM471 269L804 269 804 370 471 370ZM471 426L804 426 804 529 471 529ZM471 112L804 112 804 213 471 213ZM399 50L399 591 497 591C479 720 429 821 261 874 276 888 296 914 303 932 492 867 549 747 573 591L676 591 676 825C676 898 695 920 771 920 786 920 861 920 877 920 943 920 962 886 970 750 949 745 920 733 904 721 901 837 896 853 869 853 854 853 793 853 781 853 753 853 749 849 749 824L749 591 879 591 879 50Z"/>
</svg>