<svg xmlns="http://www.w3.org/2000/svg"
    viewBox="0 0 1000 1000">
  <!--
© 2014-2021 Adobe (http://www.adobe.com/).
Noto is a trademark of Google Inc.
This Font Software is licensed under the SIL Open Font License, Version 1.1. This Font Software is distributed on an "AS IS" BASIS, WITHOUT WARRANTIES OR CONDITIONS OF ANY KIND, either express or implied. See the SIL Open Font License for the specific language, permissions and limitations governing your use of this Font Software.
http://scripts.sil.org/OFL
  -->
<path d="M87 76C148 111 231 162 273 194L318 134C275 104 191 55 131 23ZM38 344C100 377 185 425 227 454L271 392C227 364 142 319 82 290ZM64 865L127 911C182 819 248 692 298 586L242 540C187 654 114 787 64 865ZM354 303L354 929 425 929 425 717 593 717 593 923 664 923 664 717 839 717 839 848C839 860 835 864 823 864 812 864 776 864 736 863 746 881 756 911 759 930 817 930 855 929 880 918 905 906 912 886 912 849L912 303 764 303 776 285C755 271 728 256 698 240 773 196 847 137 899 78L850 43 835 47 355 47 355 111 768 111C729 146 678 181 629 208 584 187 536 168 493 154L459 204C529 229 613 267 676 303ZM425 541L593 541 593 651 425 651ZM425 475L425 370 593 370 593 475ZM839 370L839 475 664 475 664 370ZM839 541L839 651 664 651 664 541Z"/>
</svg>