<svg xmlns="http://www.w3.org/2000/svg" name="gid7657" data-unicode="涎"
    viewBox="0 0 1000 1000">
  <!--
© 2014-2021 Adobe (http://www.adobe.com/).
Noto is a trademark of Google Inc.
This Font Software is licensed under the SIL Open Font License, Version 1.1. This Font Software is distributed on an "AS IS" BASIS, WITHOUT WARRANTIES OR CONDITIONS OF ANY KIND, either express or implied. See the SIL Open Font License for the specific language, permissions and limitations governing your use of this Font Software.
http://scripts.sil.org/OFL
  -->
<path d="M38 372C95 400 163 444 195 477L240 417C206 385 137 343 81 318ZM58 907L126 947C169 855 220 732 257 627L197 588C156 700 99 830 58 907ZM348 552L290 572C308 646 330 706 357 754 321 821 276 872 223 905 239 919 258 944 266 961 319 926 363 878 400 817 479 911 588 938 731 938L944 938C948 919 959 886 970 869 931 870 764 870 735 870 607 870 504 845 432 752 473 659 500 539 512 387L471 379 459 381 390 381C427 283 465 176 490 97L440 85 428 88 275 88 275 154C241 121 178 78 124 51L80 104C135 134 202 181 233 216L278 157 277 156 400 156C370 245 325 371 287 465L352 478 366 443 441 443C431 534 414 613 389 680 373 644 359 602 348 552ZM877 42C798 88 652 130 524 156 533 172 543 197 547 214 603 203 662 190 719 175L719 714 669 714C636 714 628 703 628 669L628 316 562 316 562 668C562 756 589 782 676 782 694 782 838 782 868 782 903 782 939 781 954 776 952 760 948 726 947 709 927 713 891 714 867 714L789 714 789 454 951 454 951 386 789 386 789 155C844 137 896 118 938 96Z"/>
</svg>