<svg xmlns="http://www.w3.org/2000/svg"
    viewBox="0 0 1000 1000">
  <!--
© 2014-2021 Adobe (http://www.adobe.com/).
Noto is a trademark of Google Inc.
This Font Software is licensed under the SIL Open Font License, Version 1.1. This Font Software is distributed on an "AS IS" BASIS, WITHOUT WARRANTIES OR CONDITIONS OF ANY KIND, either express or implied. See the SIL Open Font License for the specific language, permissions and limitations governing your use of this Font Software.
http://scripts.sil.org/OFL
  -->
<path d="M94 73C156 101 232 149 269 185L313 123C275 89 198 44 136 18ZM38 344C101 370 177 415 215 448L259 385C220 353 142 311 79 287ZM74 871L141 917C194 824 256 697 304 590L246 545C194 660 123 793 74 871ZM591 10L591 118 358 118 358 185 591 185 591 291 301 291 301 357 777 357C761 398 733 456 711 493L748 506 494 506 539 488C531 453 506 398 480 357L416 380C439 419 461 470 469 506L318 506 318 573 591 573 591 686 340 686 340 752 591 752 591 930 666 930 666 752 922 752 922 686 666 686 666 573 945 573 945 506 775 506C799 471 828 421 854 375L795 357 960 357 960 291 666 291 666 185 903 185 903 118 666 118 666 10Z"/>
</svg>