<svg xmlns="http://www.w3.org/2000/svg" name="gid7673" data-unicode="涯"
    viewBox="0 0 1000 1000">
  <!--
© 2014-2021 Adobe (http://www.adobe.com/).
Noto is a trademark of Google Inc.
This Font Software is licensed under the SIL Open Font License, Version 1.1. This Font Software is distributed on an "AS IS" BASIS, WITHOUT WARRANTIES OR CONDITIONS OF ANY KIND, either express or implied. See the SIL Open Font License for the specific language, permissions and limitations governing your use of this Font Software.
http://scripts.sil.org/OFL
  -->
<path d="M89 103C150 133 223 181 259 217L303 155C267 120 192 76 132 49ZM38 373C100 400 174 445 210 478L253 417C216 384 141 341 80 317ZM60 903L129 946C177 852 233 727 275 620L214 578C168 692 105 825 60 903ZM347 88L347 369C347 533 337 763 230 925 247 932 279 949 293 960 403 792 418 541 418 369L418 154 955 154 955 88ZM656 178L656 277 479 277 479 339 656 339 656 465 438 465 438 529 948 529 948 465 726 465 726 339 913 339 913 277 726 277 726 178ZM656 552L656 656 454 656 454 719 656 719 656 865 391 865 391 929 960 929 960 865 726 865 726 719 931 719 931 656 726 656 726 552Z"/>
</svg>