<svg xmlns="http://www.w3.org/2000/svg"
    viewBox="0 0 1000 1000">
  <!--
© 2014-2021 Adobe (http://www.adobe.com/).
Noto is a trademark of Google Inc.
This Font Software is licensed under the SIL Open Font License, Version 1.1. This Font Software is distributed on an "AS IS" BASIS, WITHOUT WARRANTIES OR CONDITIONS OF ANY KIND, either express or implied. See the SIL Open Font License for the specific language, permissions and limitations governing your use of this Font Software.
http://scripts.sil.org/OFL
  -->
<path d="M84 74C140 103 208 149 240 183L285 123C251 90 183 47 127 21ZM38 344C97 370 168 411 203 443L246 382C211 351 139 312 79 289ZM57 881L127 917C164 822 208 694 239 586L177 550C142 666 93 800 57 881ZM402 10L402 220 269 220 269 291 397 291C358 447 293 611 222 695 239 707 262 731 275 748 323 682 367 579 402 466L402 929 470 929 470 460C503 501 542 552 559 580L599 513C582 493 506 416 470 382L470 291 586 291 586 220 470 220 470 10ZM875 10C830 43 756 79 681 110L619 91 619 436C619 574 609 750 515 880 533 889 559 913 569 928 674 785 689 581 689 436L689 405 803 405 803 930 873 930 873 405 961 405 961 335 689 335 689 174C777 143 874 103 944 62Z"/>
</svg>