<svg xmlns="http://www.w3.org/2000/svg" name="gid7695" data-unicode="淐"
    viewBox="0 0 1000 1000">
  <!--
© 2014-2021 Adobe (http://www.adobe.com/).
Noto is a trademark of Google Inc.
This Font Software is licensed under the SIL Open Font License, Version 1.1. This Font Software is distributed on an "AS IS" BASIS, WITHOUT WARRANTIES OR CONDITIONS OF ANY KIND, either express or implied. See the SIL Open Font License for the specific language, permissions and limitations governing your use of this Font Software.
http://scripts.sil.org/OFL
  -->
<path d="M468 298L799 298 799 392 468 392ZM468 148L799 148 799 241 468 241ZM395 89L395 452 874 452 874 89ZM92 102C157 132 235 181 273 219L317 157C278 121 198 76 134 48ZM38 373C104 401 184 448 223 482L265 420C225 387 143 342 78 317ZM71 897L135 946C190 854 257 728 306 622L250 574C195 688 122 819 71 897ZM425 750L844 750 844 853 425 853ZM425 690L425 589 844 589 844 690ZM352 528L352 960 425 960 425 915 844 915 844 956 918 956 918 528Z"/>
</svg>