<svg xmlns="http://www.w3.org/2000/svg"
    viewBox="0 0 1000 1000">
  <!--
© 2014-2021 Adobe (http://www.adobe.com/).
Noto is a trademark of Google Inc.
This Font Software is licensed under the SIL Open Font License, Version 1.1. This Font Software is distributed on an "AS IS" BASIS, WITHOUT WARRANTIES OR CONDITIONS OF ANY KIND, either express or implied. See the SIL Open Font License for the specific language, permissions and limitations governing your use of this Font Software.
http://scripts.sil.org/OFL
  -->
<path d="M89 73C150 103 223 151 259 187L303 125C267 90 192 46 132 19ZM38 343C100 370 174 415 210 448L253 387C216 354 141 311 80 287ZM67 871L133 917C185 824 245 700 289 594L231 549C181 662 114 794 67 871ZM436 9C395 132 326 255 249 336 267 346 297 367 310 379 347 337 383 285 416 227L851 227C846 655 838 813 810 846 800 859 790 862 771 862 748 862 689 861 624 856 637 876 646 906 648 926 704 929 764 931 799 927 833 924 855 915 876 885 910 839 918 681 924 199 924 189 924 160 924 160L451 160C472 117 491 72 507 27ZM694 598L694 728 593 728 593 555 802 555 802 495 593 495 593 396 757 396 757 336 488 336C499 310 508 283 516 257L452 243C428 322 392 401 346 454 363 462 392 476 405 485 424 460 443 430 461 396L527 396 527 495 311 495 311 555 527 555 527 728 429 728 429 599 367 599 367 839 429 839 429 786 694 786 694 817 755 817 755 598Z"/>
</svg>