<svg xmlns="http://www.w3.org/2000/svg" name="gid7702" data-unicode="淚"
    viewBox="0 0 1000 1000">
  <!--
© 2014-2021 Adobe (http://www.adobe.com/).
Noto is a trademark of Google Inc.
This Font Software is licensed under the SIL Open Font License, Version 1.1. This Font Software is distributed on an "AS IS" BASIS, WITHOUT WARRANTIES OR CONDITIONS OF ANY KIND, either express or implied. See the SIL Open Font License for the specific language, permissions and limitations governing your use of this Font Software.
http://scripts.sil.org/OFL
  -->
<path d="M92 103C154 133 229 182 265 219L308 158C272 122 196 77 134 49ZM38 374C101 402 178 447 215 482L258 420C219 386 141 343 79 318ZM65 899L130 945C182 852 243 727 288 621L230 576C180 689 112 822 65 899ZM635 497C633 537 630 574 625 608L433 608C439 564 442 521 444 480L914 480 914 236 445 236 445 175C597 161 769 136 888 103L831 45C734 74 567 99 418 115L373 101 373 406C373 560 360 762 237 911 255 921 283 945 293 962 363 878 401 776 422 674L613 674C586 783 526 858 385 903 400 917 418 943 426 960 569 911 638 832 673 722 722 835 804 918 921 960 931 941 951 914 967 900 850 864 768 782 724 674L956 674 956 608 875 608 917 569C891 542 838 507 793 485L751 520C795 544 847 580 873 608L696 608C701 573 704 536 706 497ZM445 299L841 299 841 416 445 416 445 406Z"/>
</svg>