<svg xmlns="http://www.w3.org/2000/svg" name="gid7705" data-unicode="淞"
    viewBox="0 0 1000 1000">
  <!--
© 2014-2021 Adobe (http://www.adobe.com/).
Noto is a trademark of Google Inc.
This Font Software is licensed under the SIL Open Font License, Version 1.1. This Font Software is distributed on an "AS IS" BASIS, WITHOUT WARRANTIES OR CONDITIONS OF ANY KIND, either express or implied. See the SIL Open Font License for the specific language, permissions and limitations governing your use of this Font Software.
http://scripts.sil.org/OFL
  -->
<path d="M83 104C140 133 207 179 240 213L285 153C251 120 183 77 126 51ZM38 374C97 400 168 441 203 473L246 412C211 381 139 342 79 319ZM55 912L126 949C162 855 205 729 237 623L174 586C140 700 90 833 55 912ZM629 169C611 278 576 385 526 454 541 465 570 487 582 498 635 421 675 303 698 181ZM393 40L393 255 273 255 273 326 388 326C353 477 294 636 228 718 244 730 268 755 280 771 323 709 362 614 393 509L393 959 461 959 461 528C490 567 522 613 536 639L577 572C561 552 495 479 461 445L461 326 567 326 567 255 461 255 461 40ZM644 76L644 146 798 146C815 286 851 412 909 489 922 473 950 450 968 439 909 367 870 227 856 76ZM772 645C800 699 828 762 852 822L669 834C704 716 742 552 768 423L692 406C672 536 636 717 601 838L530 841 540 913C632 906 754 897 875 886 885 913 893 939 898 961L965 933C942 848 888 719 834 619Z"/>
</svg>