<svg xmlns="http://www.w3.org/2000/svg"
    viewBox="0 0 1000 1000">
  <!--
© 2014-2021 Adobe (http://www.adobe.com/).
Noto is a trademark of Google Inc.
This Font Software is licensed under the SIL Open Font License, Version 1.1. This Font Software is distributed on an "AS IS" BASIS, WITHOUT WARRANTIES OR CONDITIONS OF ANY KIND, either express or implied. See the SIL Open Font License for the specific language, permissions and limitations governing your use of this Font Software.
http://scripts.sil.org/OFL
  -->
<path d="M423 75C405 139 371 210 332 250L396 277C437 230 471 155 489 90ZM412 511C394 581 359 657 318 701L382 733C427 681 462 598 480 525ZM832 72C808 125 762 202 725 249L783 273C822 228 869 160 907 99ZM842 504C815 562 766 644 727 694L787 719C827 672 878 596 919 531ZM89 78C150 110 228 161 265 197L313 138C274 104 196 56 135 26ZM36 349C97 380 174 428 212 462L260 404C221 370 144 325 83 297ZM62 860L130 909C182 817 244 695 290 591L230 542C179 654 110 784 62 860ZM595 10C588 263 562 366 315 422 330 436 350 465 356 482 504 446 582 391 623 301 724 356 835 427 894 478L939 418C874 366 749 292 645 237 661 176 666 101 669 10ZM591 426C581 693 552 807 270 866 285 882 305 912 312 931 502 887 588 816 628 695 681 816 773 896 923 928 933 908 953 879 969 863 789 834 693 725 654 571 659 527 662 479 664 426Z"/>
</svg>