<svg xmlns="http://www.w3.org/2000/svg"
    viewBox="0 0 1000 1000">
  <!--
© 2014-2021 Adobe (http://www.adobe.com/).
Noto is a trademark of Google Inc.
This Font Software is licensed under the SIL Open Font License, Version 1.1. This Font Software is distributed on an "AS IS" BASIS, WITHOUT WARRANTIES OR CONDITIONS OF ANY KIND, either express or implied. See the SIL Open Font License for the specific language, permissions and limitations governing your use of this Font Software.
http://scripts.sil.org/OFL
  -->
<path d="M554 184C579 240 602 315 608 364L676 340C669 292 645 218 618 163ZM765 157C816 224 873 314 898 373L963 338C937 281 880 193 826 128ZM89 73C150 103 223 151 259 187L303 125C267 90 192 46 132 19ZM38 343C100 370 174 415 210 448L253 387C216 354 141 311 80 287ZM65 871L131 917C182 824 242 699 287 594L228 549C179 662 112 794 65 871ZM846 363C732 397 523 421 348 431 356 449 365 476 367 493 438 489 515 484 590 476L590 607 303 607 303 675 590 675 590 834 339 834 339 902 927 902 927 834 665 834 665 675 959 675 959 607 665 607 665 466C752 455 834 440 898 421ZM414 75C390 176 347 278 294 345 312 353 345 372 359 383 403 324 442 239 471 149 617 133 783 106 895 67L835 13C753 45 607 70 472 88Z"/>
</svg>