<svg xmlns="http://www.w3.org/2000/svg" name="gid7718" data-unicode="淮"
    viewBox="0 0 1000 1000">
  <!--
© 2014-2021 Adobe (http://www.adobe.com/).
Noto is a trademark of Google Inc.
This Font Software is licensed under the SIL Open Font License, Version 1.1. This Font Software is distributed on an "AS IS" BASIS, WITHOUT WARRANTIES OR CONDITIONS OF ANY KIND, either express or implied. See the SIL Open Font License for the specific language, permissions and limitations governing your use of this Font Software.
http://scripts.sil.org/OFL
  -->
<path d="M91 103C155 132 232 180 270 217L313 155C274 120 196 76 132 49ZM38 374C103 402 181 447 220 481L263 418C223 385 143 342 79 318ZM67 898L132 946C187 852 253 726 303 620L246 573C191 688 118 820 67 898ZM477 509L643 509 643 640 477 640ZM477 441L477 311 643 311 643 441ZM489 40C441 199 362 356 267 456 285 470 314 499 327 513 353 482 379 447 404 408L404 960 477 960 477 913 960 913 960 844 715 844 715 708 906 708 906 640 715 640 715 509 905 509 905 441 715 441 715 311 934 311 934 242 726 242C752 189 780 125 803 69L721 48C705 105 677 182 651 242L494 242C521 183 545 122 565 60ZM477 708L643 708 643 844 477 844Z"/>
</svg>