<svg xmlns="http://www.w3.org/2000/svg"
    viewBox="0 0 1000 1000">
  <!--
© 2014-2021 Adobe (http://www.adobe.com/).
Noto is a trademark of Google Inc.
This Font Software is licensed under the SIL Open Font License, Version 1.1. This Font Software is distributed on an "AS IS" BASIS, WITHOUT WARRANTIES OR CONDITIONS OF ANY KIND, either express or implied. See the SIL Open Font License for the specific language, permissions and limitations governing your use of this Font Software.
http://scripts.sil.org/OFL
  -->
<path d="M87 73C149 102 225 151 263 186L304 124C266 90 188 45 126 18ZM38 344C102 372 181 418 220 451L260 387C220 355 140 312 77 287ZM62 869L127 915C180 822 241 698 287 593L229 549C179 661 110 792 62 869ZM779 263C761 361 722 448 663 505L652 486 652 218 961 218 961 148 652 148 652 8 579 8 579 148 305 148 305 218 579 218 579 488C509 619 379 752 254 815 271 829 294 856 306 874 404 816 504 717 579 606L579 930 652 930 652 600C728 710 828 810 925 869 937 849 960 821 978 806 864 748 742 631 667 512 684 520 708 535 719 545 748 515 773 478 794 436 836 478 879 528 902 561L952 515C925 476 867 418 820 374 831 343 840 310 846 275ZM412 262C391 371 348 468 280 529 296 539 324 560 335 572 370 536 400 491 425 440 456 474 488 511 506 537L554 494C532 464 488 417 450 380 462 347 471 311 479 274Z"/>
</svg>