<svg xmlns="http://www.w3.org/2000/svg"
    viewBox="0 0 1000 1000">
  <!--
© 2014-2021 Adobe (http://www.adobe.com/).
Noto is a trademark of Google Inc.
This Font Software is licensed under the SIL Open Font License, Version 1.1. This Font Software is distributed on an "AS IS" BASIS, WITHOUT WARRANTIES OR CONDITIONS OF ANY KIND, either express or implied. See the SIL Open Font License for the specific language, permissions and limitations governing your use of this Font Software.
http://scripts.sil.org/OFL
  -->
<path d="M86 80C141 113 212 164 246 200L294 144C258 109 187 61 132 30ZM39 349C95 381 168 430 203 463L250 406C213 373 140 326 84 298ZM66 864L131 916C182 823 242 700 289 596L231 545C180 658 112 788 66 864ZM537 9C526 52 513 93 498 132L298 132 298 200 467 200C414 301 342 382 249 439 265 452 291 482 301 497 325 481 348 463 369 444L369 781 438 781 438 737 576 737 576 816C576 903 600 926 690 926 710 926 833 926 854 926 932 926 952 890 961 770 940 766 912 755 897 742 893 841 886 861 849 861 822 861 718 861 697 861 655 861 647 854 647 817L647 737 863 737 863 448C882 464 902 478 923 490 935 471 958 444 975 431 887 386 805 297 755 200L955 200 955 132 575 132C588 97 599 61 609 23ZM576 297L576 377 435 377C479 326 516 266 547 200L679 200C707 264 746 325 790 377L647 377 647 297ZM438 582L576 582 576 675 438 675ZM438 525L438 439 576 439 576 525ZM793 582L793 675 647 675 647 582ZM793 525L647 525 647 439 793 439Z"/>
</svg>