<svg xmlns="http://www.w3.org/2000/svg"
    viewBox="0 0 1000 1000">
  <!--
© 2014-2021 Adobe (http://www.adobe.com/).
Noto is a trademark of Google Inc.
This Font Software is licensed under the SIL Open Font License, Version 1.1. This Font Software is distributed on an "AS IS" BASIS, WITHOUT WARRANTIES OR CONDITIONS OF ANY KIND, either express or implied. See the SIL Open Font License for the specific language, permissions and limitations governing your use of this Font Software.
http://scripts.sil.org/OFL
  -->
<path d="M461 246L804 246 804 328 461 328ZM461 107L804 107 804 188 461 188ZM89 73C150 103 223 151 259 187L303 125C267 90 192 46 132 19ZM38 343C100 370 174 415 210 448L253 387C216 354 141 311 80 287ZM64 871L130 916C178 829 233 714 276 613 292 625 318 650 329 663 351 646 374 626 396 605L396 759C396 831 417 849 503 849 521 849 636 849 654 849 719 849 739 827 748 736 728 732 700 722 687 711 684 777 678 787 647 787 623 787 528 787 509 787 470 787 464 783 464 758L464 706C550 687 647 661 718 632L671 581C622 605 541 631 464 651L464 569 431 569 462 533 855 533C842 747 827 829 806 852 797 862 788 863 771 863 753 863 710 863 663 858 675 878 682 907 684 927 731 930 778 930 803 928 831 925 849 918 868 898 898 864 913 765 929 501 930 490 931 468 931 468L510 468C527 442 543 416 557 389L878 389 878 46 390 46 390 389 476 389C428 474 355 554 278 608L284 593 224 549C176 662 110 794 64 871Z"/>
</svg>