<svg xmlns="http://www.w3.org/2000/svg"
    viewBox="0 0 1000 1000">
  <!--
© 2014-2021 Adobe (http://www.adobe.com/).
Noto is a trademark of Google Inc.
This Font Software is licensed under the SIL Open Font License, Version 1.1. This Font Software is distributed on an "AS IS" BASIS, WITHOUT WARRANTIES OR CONDITIONS OF ANY KIND, either express or implied. See the SIL Open Font License for the specific language, permissions and limitations governing your use of this Font Software.
http://scripts.sil.org/OFL
  -->
<path d="M761 451C814 509 875 587 902 638L964 600C935 551 873 474 819 419ZM447 424C413 494 360 565 304 614 321 624 350 646 362 657 417 604 477 522 516 443ZM802 588C730 747 568 830 324 865 340 883 356 911 363 932 622 886 793 791 872 610ZM91 73C155 102 232 150 270 187L313 125C274 90 196 46 132 19ZM38 344C103 372 181 417 220 451L263 388C223 355 143 312 79 288ZM60 870L125 917C179 824 243 698 292 591L234 545C181 660 110 792 60 870ZM409 91L409 310 295 310 295 379 606 379 606 619C606 631 602 634 589 634 575 635 531 635 479 634 489 655 499 682 501 703 569 703 614 703 642 692 671 680 678 659 678 621L678 379 960 379 960 310 678 310 678 192 913 192 913 125 678 125 678 10 605 10 605 310 479 310 479 91Z"/>
</svg>