<svg xmlns="http://www.w3.org/2000/svg" name="gid7747" data-unicode="渝"
    viewBox="0 0 1000 1000">
  <!--
© 2014-2021 Adobe (http://www.adobe.com/).
Noto is a trademark of Google Inc.
This Font Software is licensed under the SIL Open Font License, Version 1.1. This Font Software is distributed on an "AS IS" BASIS, WITHOUT WARRANTIES OR CONDITIONS OF ANY KIND, either express or implied. See the SIL Open Font License for the specific language, permissions and limitations governing your use of this Font Software.
http://scripts.sil.org/OFL
  -->
<path d="M84 103C141 133 208 181 240 216L286 158C252 123 184 78 128 50ZM38 372C96 400 165 446 198 480L243 420C208 386 138 344 81 318ZM58 906L126 948C171 855 222 731 260 626L200 586C158 698 99 829 58 906ZM379 605C414 625 456 658 477 680L516 639C494 618 451 588 416 568ZM701 444C682 507 643 610 607 690 656 783 699 890 716 960L778 935C759 874 714 773 671 689 702 618 739 529 763 459ZM853 444C831 507 788 610 748 690 804 783 856 891 879 960L939 931C916 870 865 770 814 689 848 618 890 528 916 460ZM367 74L367 138 515 138C446 233 340 322 242 368 259 383 282 410 294 428 342 402 391 367 437 325L437 376 763 376 763 315C811 355 863 391 915 418 927 399 953 372 970 358 846 303 716 192 651 74ZM604 138C644 199 698 259 758 310L454 310C508 259 558 199 595 138ZM311 464L311 959 373 959 373 525 519 525 519 886C519 896 516 899 506 899 496 900 466 900 430 899 439 916 446 942 449 959 499 959 532 959 554 949 577 938 582 919 582 886L582 464ZM373 738C408 762 452 797 474 821L514 782C492 758 447 725 411 703Z"/>
</svg>