<svg xmlns="http://www.w3.org/2000/svg" name="gid7763" data-unicode="港"
    viewBox="0 0 1000 1000">
  <!--
© 2014-2021 Adobe (http://www.adobe.com/).
Noto is a trademark of Google Inc.
This Font Software is licensed under the SIL Open Font License, Version 1.1. This Font Software is distributed on an "AS IS" BASIS, WITHOUT WARRANTIES OR CONDITIONS OF ANY KIND, either express or implied. See the SIL Open Font License for the specific language, permissions and limitations governing your use of this Font Software.
http://scripts.sil.org/OFL
  -->
<path d="M86 103C147 133 221 181 256 217L300 155C264 120 189 76 129 49ZM35 373C97 400 171 445 207 478L250 417C213 384 138 341 77 317ZM62 901L128 947C176 860 231 745 275 645 286 657 298 670 304 680 355 645 407 591 451 530L451 570 715 570 715 678 405 678 405 858C405 938 437 958 548 958 571 958 752 958 777 958 871 958 894 929 904 804 885 800 854 789 838 777 832 876 824 891 772 891 732 891 581 891 552 891 487 891 477 885 477 857L477 739 784 739 784 529C826 587 876 638 928 670 939 651 963 625 980 611 904 571 831 491 787 407L965 407 965 338 787 338 787 222 937 222 937 154 787 154 787 41 713 41 713 154 518 154 518 41 445 41 445 154 310 154 310 222 445 222 445 338 268 338 268 407 448 407C405 487 337 566 269 612L225 579C176 692 109 824 62 901ZM518 222L713 222 713 338 518 338ZM523 407L713 407C729 442 748 476 770 509L466 509C488 476 507 442 523 407Z"/>
</svg>