<svg xmlns="http://www.w3.org/2000/svg" name="gid7784" data-unicode="湏"
    viewBox="0 0 1000 1000">
  <!--
© 2014-2021 Adobe (http://www.adobe.com/).
Noto is a trademark of Google Inc.
This Font Software is licensed under the SIL Open Font License, Version 1.1. This Font Software is distributed on an "AS IS" BASIS, WITHOUT WARRANTIES OR CONDITIONS OF ANY KIND, either express or implied. See the SIL Open Font License for the specific language, permissions and limitations governing your use of this Font Software.
http://scripts.sil.org/OFL
  -->
<path d="M86 103C147 132 221 180 257 217L302 156C265 122 190 77 129 50ZM38 374C100 401 176 446 213 480L257 419C219 387 142 343 79 319ZM62 901L128 946C181 853 245 725 292 618L235 574C182 689 112 822 62 901ZM467 457L815 457 815 555 467 555ZM467 610L815 610 815 709 467 709ZM467 305L815 305 815 402 467 402ZM524 781C473 826 369 877 279 906 295 920 317 945 328 960 418 930 525 876 591 823ZM689 822C767 863 869 922 919 961L978 914C924 875 821 818 744 781ZM396 247L396 767 888 767 888 247 643 247 677 151 947 151 947 87 327 87 327 151 593 151C586 183 577 218 569 247Z"/>
</svg>