<svg xmlns="http://www.w3.org/2000/svg" name="gid7793" data-unicode="湜"
    viewBox="0 0 1000 1000">
  <!--
© 2014-2021 Adobe (http://www.adobe.com/).
Noto is a trademark of Google Inc.
This Font Software is licensed under the SIL Open Font License, Version 1.1. This Font Software is distributed on an "AS IS" BASIS, WITHOUT WARRANTIES OR CONDITIONS OF ANY KIND, either express or implied. See the SIL Open Font License for the specific language, permissions and limitations governing your use of this Font Software.
http://scripts.sil.org/OFL
  -->
<path d="M457 263L806 263 806 342 457 342ZM457 130L806 130 806 209 457 209ZM385 73L385 400 880 400 880 73ZM91 103C155 132 232 180 270 217L313 155C274 120 196 76 132 49ZM38 374C103 402 181 447 220 481L263 418C223 385 143 342 79 318ZM64 898L128 946C184 852 249 726 299 620L242 573C187 688 114 820 64 898ZM410 583C393 731 346 844 253 915 270 925 300 948 312 960 366 914 407 854 436 780 503 918 613 945 764 945L946 945C949 925 960 894 970 877 934 878 792 878 767 878 732 878 698 877 667 872L667 715 887 715 887 653 667 653 667 535 950 535 950 472 316 472 316 535 594 535 594 853C536 830 490 785 460 704 469 669 476 631 481 591Z"/>
</svg>