<svg xmlns="http://www.w3.org/2000/svg" name="gid7799" data-unicode="湧"
    viewBox="0 0 1000 1000">
  <!--
© 2014-2021 Adobe (http://www.adobe.com/).
Noto is a trademark of Google Inc.
This Font Software is licensed under the SIL Open Font License, Version 1.1. This Font Software is distributed on an "AS IS" BASIS, WITHOUT WARRANTIES OR CONDITIONS OF ANY KIND, either express or implied. See the SIL Open Font License for the specific language, permissions and limitations governing your use of this Font Software.
http://scripts.sil.org/OFL
  -->
<path d="M91 103C155 132 232 180 270 217L313 155C274 120 196 76 132 49ZM38 374C103 402 181 447 220 481L263 418C223 385 143 342 79 318ZM67 898L132 946C187 852 253 726 303 620L246 573C191 688 118 820 67 898ZM433 469L596 469 596 547 433 547ZM666 469L835 469 835 547 666 547ZM433 338L596 338 596 416 433 416ZM666 338L835 338 835 416 666 416ZM470 220C529 236 597 259 654 283L365 283 365 602 583 602C580 627 576 650 571 672L316 672 316 734 550 734C513 815 439 870 284 902 298 916 316 944 323 962 507 920 589 845 629 734L847 734C836 834 823 877 807 892 798 900 789 901 770 901 752 901 701 900 648 895 659 913 666 939 667 957 722 960 773 961 800 959 829 957 849 952 867 935 893 910 908 849 923 702 924 693 926 672 926 672L647 672C651 650 655 627 658 602L906 602 906 283 758 283 769 266C752 257 731 247 707 237 775 202 842 156 891 109L845 73 829 77 361 77 361 138 758 138C723 165 680 191 639 211 594 196 547 182 506 172Z"/>
</svg>