<svg xmlns="http://www.w3.org/2000/svg"
    viewBox="0 0 1000 1000">
  <!--
© 2014-2021 Adobe (http://www.adobe.com/).
Noto is a trademark of Google Inc.
This Font Software is licensed under the SIL Open Font License, Version 1.1. This Font Software is distributed on an "AS IS" BASIS, WITHOUT WARRANTIES OR CONDITIONS OF ANY KIND, either express or implied. See the SIL Open Font License for the specific language, permissions and limitations governing your use of this Font Software.
http://scripts.sil.org/OFL
  -->
<path d="M433 277L817 277 817 378 433 378ZM433 116L817 116 817 216 433 216ZM362 53L362 441 890 441 890 53ZM319 553C359 624 395 721 407 784L473 760C460 698 423 603 380 531ZM868 526C846 598 803 700 769 763L824 784C860 724 905 628 940 549ZM93 76C155 105 229 151 265 185L308 124C271 90 196 47 134 22ZM38 340C101 368 177 414 214 448L258 388C219 354 142 311 81 285ZM65 866L131 910C178 817 233 692 273 587L214 544C170 657 108 788 65 866ZM675 474L675 834 573 834 573 474 504 474 504 834 260 834 260 901 961 901 961 834 745 834 745 474Z"/>
</svg>