<svg xmlns="http://www.w3.org/2000/svg" name="gid7811" data-unicode="満"
    viewBox="0 0 1000 1000">
  <!--
© 2014-2021 Adobe (http://www.adobe.com/).
Noto is a trademark of Google Inc.
This Font Software is licensed under the SIL Open Font License, Version 1.1. This Font Software is distributed on an "AS IS" BASIS, WITHOUT WARRANTIES OR CONDITIONS OF ANY KIND, either express or implied. See the SIL Open Font License for the specific language, permissions and limitations governing your use of this Font Software.
http://scripts.sil.org/OFL
  -->
<path d="M86 104C148 133 222 182 257 217L303 157C266 123 191 78 130 51ZM37 382C102 406 181 448 219 481L262 417C221 385 141 346 77 325ZM64 901L130 947C181 854 241 729 285 624L227 579C177 692 111 824 64 901ZM323 475L323 959 391 959 391 541 589 541 589 745 508 745 508 595 458 595 458 864 508 864 508 803 732 803 732 849 781 849 781 595 732 595 732 745 647 745 647 541 853 541 853 878C853 891 849 895 836 895 821 896 775 896 723 894 732 913 740 940 743 958 815 958 861 958 889 948 916 936 924 917 924 879L924 475 654 475 654 390 956 390 956 323 780 323 780 211 928 211 928 144 780 144 780 40 707 40 707 144 530 144 530 40 460 40 460 144 316 144 316 211 460 211 460 323 282 323 282 390 582 390 582 475ZM530 211L707 211 707 323 530 323Z"/>
</svg>