<svg xmlns="http://www.w3.org/2000/svg" name="gid7822" data-unicode="溜"
    viewBox="0 0 1000 1000">
  <!--
© 2014-2021 Adobe (http://www.adobe.com/).
Noto is a trademark of Google Inc.
This Font Software is licensed under the SIL Open Font License, Version 1.1. This Font Software is distributed on an "AS IS" BASIS, WITHOUT WARRANTIES OR CONDITIONS OF ANY KIND, either express or implied. See the SIL Open Font License for the specific language, permissions and limitations governing your use of this Font Software.
http://scripts.sil.org/OFL
  -->
<path d="M90 103C150 132 222 179 257 214L302 154C266 120 192 76 134 49ZM38 374C100 400 176 445 212 478L256 417C218 384 142 343 79 319ZM64 903L129 947C182 854 245 726 291 618L233 575C182 691 112 824 64 903ZM431 761L590 761 590 861 431 861ZM822 761L822 861 657 861 657 761ZM431 702L431 604 590 604 590 702ZM822 702L657 702 657 604 822 604ZM544 40C508 66 450 94 395 118L344 103 351 389 290 407 318 474 557 387C564 401 571 414 575 426L628 399C606 431 575 458 535 479 549 490 568 511 576 526 712 453 747 327 759 155L861 155C856 335 850 400 838 417 832 426 824 428 812 428 799 428 771 427 738 424 749 442 756 470 756 489 790 491 823 491 842 489 867 486 881 479 896 461 916 435 922 352 929 123 929 114 929 93 929 93L601 93 601 155 693 155C687 253 673 334 630 396 612 351 570 283 530 235L477 259C494 282 512 308 527 334L418 369 413 174C475 152 544 123 597 93ZM363 542L363 960 431 960 431 923 822 923 822 956 892 956 892 542Z"/>
</svg>