<svg xmlns="http://www.w3.org/2000/svg"
    viewBox="0 0 1000 1000">
  <!--
© 2014-2021 Adobe (http://www.adobe.com/).
Noto is a trademark of Google Inc.
This Font Software is licensed under the SIL Open Font License, Version 1.1. This Font Software is distributed on an "AS IS" BASIS, WITHOUT WARRANTIES OR CONDITIONS OF ANY KIND, either express or implied. See the SIL Open Font License for the specific language, permissions and limitations governing your use of this Font Software.
http://scripts.sil.org/OFL
  -->
<path d="M82 72C140 101 209 150 242 184L287 127C252 93 183 48 126 21ZM38 344C97 372 168 417 201 451L245 393C210 360 139 317 80 292ZM556 11C552 44 547 75 542 106L314 106 314 169 529 169 512 235 340 235 340 294 493 294C484 319 474 342 464 365L274 365 274 428 430 428C386 501 329 561 256 607L258 601 200 561C158 671 101 799 60 875L125 916C167 830 215 716 252 616 269 629 293 654 302 666 355 629 401 587 439 538 444 550 448 562 450 571 489 567 531 562 573 556L573 632 352 632 352 693 537 693C477 761 382 826 297 858 312 871 333 896 344 913 424 876 512 808 573 734L573 930 643 930 643 727C707 799 798 870 874 907 885 890 906 866 921 853 841 820 748 757 686 693L870 693 870 632 643 632 643 545C688 537 730 527 765 515L710 469C652 488 548 507 455 517 476 490 494 460 511 428L714 428C767 523 839 602 924 649 935 630 957 605 973 592 902 558 840 499 792 428L956 428 956 365 754 365C743 342 732 318 723 294L899 294 899 235 584 235 601 169 925 169 925 106 613 106 627 19ZM567 294L655 294C663 318 672 342 682 365L540 365C550 342 558 319 567 294Z"/>
</svg>