<svg xmlns="http://www.w3.org/2000/svg" name="gid7835" data-unicode="溲"
    viewBox="0 0 1000 1000">
  <!--
© 2014-2021 Adobe (http://www.adobe.com/).
Noto is a trademark of Google Inc.
This Font Software is licensed under the SIL Open Font License, Version 1.1. This Font Software is distributed on an "AS IS" BASIS, WITHOUT WARRANTIES OR CONDITIONS OF ANY KIND, either express or implied. See the SIL Open Font License for the specific language, permissions and limitations governing your use of this Font Software.
http://scripts.sil.org/OFL
  -->
<path d="M88 103C150 131 226 179 264 215L307 153C269 119 192 74 130 48ZM38 374C101 400 177 445 215 478L259 415C220 383 142 341 79 317ZM66 901L132 947C185 854 248 727 295 620L237 575C185 690 115 823 66 901ZM336 578L336 643 436 643 407 654C447 717 500 771 564 816 478 855 380 881 280 895 293 912 308 942 315 961 427 941 537 909 631 859 716 906 813 940 919 960 929 940 950 910 966 893 870 879 781 853 703 816 783 761 849 690 890 598L843 575 829 578 664 578 664 41 592 41 592 578ZM784 643C746 698 695 743 633 780 570 742 517 696 480 643ZM708 113L708 178 847 178 847 276 715 276 715 339 847 339 847 439 708 439 708 504 918 504 918 113ZM500 60C471 84 425 115 387 138L349 125 349 503 551 503 551 438 418 438 418 339 545 339 545 276 418 276 418 184C458 166 506 140 548 114Z"/>
</svg>