<svg xmlns="http://www.w3.org/2000/svg"
    viewBox="0 0 1000 1000">
  <!--
© 2014-2021 Adobe (http://www.adobe.com/).
Noto is a trademark of Google Inc.
This Font Software is licensed under the SIL Open Font License, Version 1.1. This Font Software is distributed on an "AS IS" BASIS, WITHOUT WARRANTIES OR CONDITIONS OF ANY KIND, either express or implied. See the SIL Open Font License for the specific language, permissions and limitations governing your use of this Font Software.
http://scripts.sil.org/OFL
  -->
<path d="M88 73C150 101 226 149 264 185L307 123C269 89 192 44 130 18ZM38 344C101 370 177 415 215 448L259 385C220 353 142 311 79 287ZM64 869L128 914C178 822 240 697 284 592L229 549C179 661 111 792 64 869ZM435 289L797 289 797 361 435 361ZM435 413L797 413 797 486 435 486ZM435 166L797 166 797 237 435 237ZM589 9C582 38 566 78 552 111L365 111 365 540 569 540 569 607 567 636 291 636 291 700 548 700C515 765 434 831 247 880 262 893 284 919 294 935 478 883 568 812 609 739 667 847 771 907 931 930 940 911 959 882 975 867 813 851 709 797 660 700L949 700 949 636 841 636 869 610C846 590 802 560 764 540L870 540 870 111 627 111 672 24ZM711 570C743 589 781 615 807 636L640 636 641 608 641 540 748 540Z"/>
</svg>