<svg xmlns="http://www.w3.org/2000/svg"
    viewBox="0 0 1000 1000">
  <!--
© 2014-2021 Adobe (http://www.adobe.com/).
Noto is a trademark of Google Inc.
This Font Software is licensed under the SIL Open Font License, Version 1.1. This Font Software is distributed on an "AS IS" BASIS, WITHOUT WARRANTIES OR CONDITIONS OF ANY KIND, either express or implied. See the SIL Open Font License for the specific language, permissions and limitations governing your use of this Font Software.
http://scripts.sil.org/OFL
  -->
<path d="M77 75C134 108 209 156 247 187L291 126C252 98 177 52 121 23ZM41 343C100 374 178 420 216 449L261 388C220 360 142 317 84 289ZM62 876L128 917C177 824 236 696 279 589L219 549C172 664 107 797 62 876ZM759 321C735 352 696 392 662 424 645 387 622 353 593 323 619 301 643 277 663 253L814 253 814 196 422 196 422 253 592 253C540 305 468 351 398 383 411 394 431 416 439 427 476 408 514 383 551 356 564 370 575 385 585 400 538 445 460 494 401 518 414 531 430 552 438 566 492 535 559 489 609 445 617 463 624 483 629 502 575 563 482 626 406 657 419 669 435 691 442 706 508 673 584 619 640 564 647 628 636 683 615 703 602 719 586 720 567 720 551 720 526 719 500 717 510 733 515 758 516 775 540 776 564 777 580 776 615 776 640 768 664 743 695 713 709 640 700 560 740 594 778 632 800 661L844 615C812 574 746 517 686 475 725 442 772 399 809 358ZM315 53L315 930 382 930 382 882 854 882 854 922 924 922 924 53ZM382 819L382 117 854 117 854 819Z"/>
</svg>