<svg xmlns="http://www.w3.org/2000/svg" name="gid7839" data-unicode="溷"
    viewBox="0 0 1000 1000">
  <!--
© 2014-2021 Adobe (http://www.adobe.com/).
Noto is a trademark of Google Inc.
This Font Software is licensed under the SIL Open Font License, Version 1.1. This Font Software is distributed on an "AS IS" BASIS, WITHOUT WARRANTIES OR CONDITIONS OF ANY KIND, either express or implied. See the SIL Open Font License for the specific language, permissions and limitations governing your use of this Font Software.
http://scripts.sil.org/OFL
  -->
<path d="M77 105C134 138 209 186 247 217L291 156C252 128 177 82 121 53ZM41 373C100 404 178 450 216 479L261 418C220 390 142 347 84 319ZM62 906L128 947C177 854 236 726 279 619L219 579C172 694 107 827 62 906ZM759 351C735 382 696 422 662 454 645 417 622 383 593 353 619 331 643 307 663 283L814 283 814 226 422 226 422 283 592 283C540 335 468 381 398 413 411 424 431 446 439 457 476 438 514 413 551 386 564 400 575 415 585 430 538 475 460 524 401 548 414 561 430 582 438 596 492 565 559 519 609 475 617 493 624 513 629 532 575 593 482 656 406 687 419 699 435 721 442 736 508 703 584 649 640 594 647 658 636 713 615 733 602 749 586 750 567 750 551 750 526 749 500 747 510 763 515 788 516 805 540 806 564 807 580 806 615 806 640 798 664 773 695 743 709 670 700 590 740 624 778 662 800 691L844 645C812 604 746 547 686 505 725 472 772 429 809 388ZM315 83L315 960 382 960 382 912 854 912 854 952 924 952 924 83ZM382 849L382 147 854 147 854 849Z"/>
</svg>