<svg xmlns="http://www.w3.org/2000/svg" name="gid7854" data-unicode="滊"
    viewBox="0 0 1000 1000">
  <!--
© 2014-2021 Adobe (http://www.adobe.com/).
Noto is a trademark of Google Inc.
This Font Software is licensed under the SIL Open Font License, Version 1.1. This Font Software is distributed on an "AS IS" BASIS, WITHOUT WARRANTIES OR CONDITIONS OF ANY KIND, either express or implied. See the SIL Open Font License for the specific language, permissions and limitations governing your use of this Font Software.
http://scripts.sil.org/OFL
  -->
<path d="M433 257L433 313 895 313 895 257ZM91 103C155 132 232 180 270 217L313 155C274 120 196 76 132 49ZM349 506C374 545 399 599 408 633L464 611C455 577 429 525 402 487ZM38 374C103 402 181 447 220 481L263 418C223 385 143 342 79 318ZM67 898L132 946C187 852 253 726 303 620L246 573C191 688 118 820 67 898ZM679 486C665 522 638 578 617 612L665 632C687 600 714 551 739 508ZM441 40C407 140 347 237 278 299 295 309 324 332 337 344 376 305 414 253 447 196L947 196 947 135 479 135C491 110 502 85 511 59ZM509 464L509 641 313 641 313 701 480 701C428 767 350 830 282 865 296 879 314 904 323 920 386 882 456 821 509 757L509 962 573 962 573 789C628 827 686 870 719 900L759 851C718 815 637 761 573 721L573 701 764 701 764 641 573 641 573 464ZM359 379L359 441 785 441C788 750 795 960 902 960 958 960 970 912 976 778 962 768 941 750 928 735 927 822 922 891 908 891 858 891 854 665 854 379Z"/>
</svg>