<svg xmlns="http://www.w3.org/2000/svg" name="gid7861" data-unicode="滓"
    viewBox="0 0 1000 1000">
  <!--
© 2014-2021 Adobe (http://www.adobe.com/).
Noto is a trademark of Google Inc.
This Font Software is licensed under the SIL Open Font License, Version 1.1. This Font Software is distributed on an "AS IS" BASIS, WITHOUT WARRANTIES OR CONDITIONS OF ANY KIND, either express or implied. See the SIL Open Font License for the specific language, permissions and limitations governing your use of this Font Software.
http://scripts.sil.org/OFL
  -->
<path d="M88 103C150 131 226 179 264 215L307 153C269 119 192 74 130 48ZM38 374C101 400 177 445 215 478L259 415C220 383 142 341 79 317ZM66 901L132 947C185 854 248 727 295 620L237 575C185 690 115 823 66 901ZM445 408C465 448 486 501 494 536L310 536 310 601 596 601 596 702 352 702 352 767 596 767 596 959 670 959 670 767 924 767 924 702 670 702 670 601 962 601 962 536 766 536C785 502 805 452 826 406L759 390 915 390 915 327 669 327 669 228 594 228 594 327 361 327 361 390 750 390C740 429 718 486 702 522L757 536 510 536 564 521C556 486 535 431 511 391ZM593 40L593 134 325 134 325 292 395 292 395 199 873 199 873 292 945 292 945 134 669 134 669 40Z"/>
</svg>