<svg xmlns="http://www.w3.org/2000/svg" name="gid7867" data-unicode="滝"
    viewBox="0 0 1000 1000">
  <!--
© 2014-2021 Adobe (http://www.adobe.com/).
Noto is a trademark of Google Inc.
This Font Software is licensed under the SIL Open Font License, Version 1.1. This Font Software is distributed on an "AS IS" BASIS, WITHOUT WARRANTIES OR CONDITIONS OF ANY KIND, either express or implied. See the SIL Open Font License for the specific language, permissions and limitations governing your use of this Font Software.
http://scripts.sil.org/OFL
  -->
<path d="M89 103C150 133 223 181 259 217L303 155C267 120 192 76 132 49ZM38 373C100 400 174 445 210 478L253 417C216 384 141 341 80 317ZM65 901L131 947C182 854 242 729 287 624L228 579C179 692 112 824 65 901ZM409 622L577 622 577 710 409 710ZM409 566L409 482 577 482 577 566ZM833 622L833 710 648 710 648 622ZM833 566L648 566 648 482 833 482ZM415 178C435 212 453 256 460 290L277 290 277 354 954 354 954 290 759 290C778 260 799 217 819 177L791 171 927 171 927 108 650 108 650 40 574 40 574 108 323 108 323 171 443 171ZM488 171L737 171C725 207 703 253 686 286L705 290 514 290 534 285C529 253 510 208 488 171ZM338 420L338 827 409 827 409 772 577 772 577 857C577 936 601 956 692 956 712 956 838 956 858 956 936 956 957 923 965 806 945 801 918 791 902 780 898 878 891 896 853 896 826 896 720 896 699 896 655 896 648 890 648 857L648 772 905 772 905 420Z"/>
</svg>