<svg xmlns="http://www.w3.org/2000/svg"
    viewBox="0 0 1000 1000">
  <!--
© 2014-2021 Adobe (http://www.adobe.com/).
Noto is a trademark of Google Inc.
This Font Software is licensed under the SIL Open Font License, Version 1.1. This Font Software is distributed on an "AS IS" BASIS, WITHOUT WARRANTIES OR CONDITIONS OF ANY KIND, either express or implied. See the SIL Open Font License for the specific language, permissions and limitations governing your use of this Font Software.
http://scripts.sil.org/OFL
  -->
<path d="M81 74C138 102 206 149 239 182L284 122C249 89 181 47 124 21ZM38 344C97 369 167 411 202 443L245 382C210 350 139 312 79 289ZM58 877L126 917C169 825 220 702 257 597L197 558C156 670 99 800 58 877ZM778 12L778 135 718 135 718 10 655 10 655 135 569 135 569 10 508 10 508 135 451 135 451 14 389 14 389 135 284 135 284 199 384 199C375 255 346 308 267 350 282 360 303 382 313 396 409 344 440 273 448 199L508 199 508 348 718 348 718 199 778 199 778 270C778 325 782 340 795 352 808 363 828 368 847 368 856 368 880 368 891 368 905 368 923 366 932 361 944 357 954 348 960 336 964 326 968 296 969 268 954 263 936 254 925 245 924 269 923 288 920 297 918 305 914 308 909 311 906 313 897 314 889 314 881 314 868 314 862 314 854 314 849 312 846 309 842 305 841 295 841 277L841 199 959 199 959 135 841 135 841 12ZM655 199L655 288 569 288 569 199ZM575 478L575 568 367 568 367 478ZM647 478L865 478 865 568 647 568ZM298 414L298 578 366 578 366 869 435 869 435 631 575 631 575 937 647 937 647 631 802 631 802 792C802 801 799 804 788 804 776 804 742 805 701 803 710 822 719 848 721 867 779 867 817 867 841 855 865 845 872 826 872 792L872 578 937 578 937 414Z"/>
</svg>