<svg xmlns="http://www.w3.org/2000/svg" name="gid7875" data-unicode="滲"
    viewBox="0 0 1000 1000">
  <!--
© 2014-2021 Adobe (http://www.adobe.com/).
Noto is a trademark of Google Inc.
This Font Software is licensed under the SIL Open Font License, Version 1.1. This Font Software is distributed on an "AS IS" BASIS, WITHOUT WARRANTIES OR CONDITIONS OF ANY KIND, either express or implied. See the SIL Open Font License for the specific language, permissions and limitations governing your use of this Font Software.
http://scripts.sil.org/OFL
  -->
<path d="M87 104C144 132 212 179 245 212L289 152C255 119 186 77 130 51ZM38 374C97 399 167 441 202 473L245 412C210 380 139 342 79 319ZM58 907L126 947C169 855 220 732 257 627L197 588C156 700 99 830 58 907ZM637 489C579 550 471 608 374 641 389 652 405 670 416 684 518 647 629 584 695 512ZM717 594C644 666 506 729 379 762 393 775 410 796 419 811 555 771 694 705 778 619ZM826 690C733 801 543 870 321 900 335 917 348 942 357 960 593 921 789 846 892 716ZM518 39C498 78 466 130 435 172L317 176 320 238C451 234 640 225 823 216 845 237 863 257 877 274L929 237C891 191 812 123 745 76L694 107C716 123 739 141 762 161L514 169C541 134 570 94 594 57ZM837 321C849 338 862 357 874 376L771 384C788 349 806 307 823 269L761 253C750 293 730 348 711 388L708 388C682 360 658 331 638 300L572 300C557 327 538 354 516 380 505 356 492 329 479 308L430 323C439 340 449 359 457 378L363 385C382 350 402 306 421 269L360 250C348 291 324 348 303 390L259 393 266 455 470 430C409 490 334 542 255 576 268 591 282 615 289 632 421 570 544 463 608 362 682 470 813 571 935 626 944 608 959 583 972 567 903 541 832 498 768 445L903 426 921 464 972 440C956 401 919 343 885 300Z"/>
</svg>