<svg xmlns="http://www.w3.org/2000/svg"
    viewBox="0 0 1000 1000">
  <!--
© 2014-2021 Adobe (http://www.adobe.com/).
Noto is a trademark of Google Inc.
This Font Software is licensed under the SIL Open Font License, Version 1.1. This Font Software is distributed on an "AS IS" BASIS, WITHOUT WARRANTIES OR CONDITIONS OF ANY KIND, either express or implied. See the SIL Open Font License for the specific language, permissions and limitations governing your use of this Font Software.
http://scripts.sil.org/OFL
  -->
<path d="M85 73C147 102 221 150 258 186L302 125C265 90 190 46 128 19ZM38 344C100 370 175 415 212 449L256 388C218 355 142 313 79 289ZM64 874L130 917C181 823 242 696 287 589L228 547C178 662 111 795 64 874ZM425 175C445 210 464 257 474 293L329 293 329 928 399 928 399 356 592 356 592 444 444 444 444 499 592 499 592 587 479 587 479 834 538 834 538 800 774 800 774 587 652 587 652 499 805 499 805 444 652 444 652 356 854 356 854 848C854 861 850 865 837 865 824 866 779 867 732 865 741 883 750 911 754 929 820 929 864 928 890 918 917 907 925 887 925 848L925 293 763 293C783 261 804 217 825 175L793 168 948 168 948 103 658 103 658 11 584 11 584 103 314 103 314 168 449 168ZM498 168L745 168C732 204 709 254 692 287L716 293 527 293 548 286C540 253 520 206 498 168ZM538 641L714 641 714 747 538 747Z"/>
</svg>