<svg xmlns="http://www.w3.org/2000/svg"
    viewBox="0 0 1000 1000">
  <!--
© 2014-2021 Adobe (http://www.adobe.com/).
Noto is a trademark of Google Inc.
This Font Software is licensed under the SIL Open Font License, Version 1.1. This Font Software is distributed on an "AS IS" BASIS, WITHOUT WARRANTIES OR CONDITIONS OF ANY KIND, either express or implied. See the SIL Open Font License for the specific language, permissions and limitations governing your use of this Font Software.
http://scripts.sil.org/OFL
  -->
<path d="M548 386C576 413 609 452 624 478L665 443C649 417 616 381 585 356ZM403 560C430 588 459 628 472 655L512 620C499 594 469 557 441 529ZM88 73C150 101 226 149 264 185L307 123C269 89 192 44 130 18ZM38 344C101 370 177 415 215 448L259 385C220 353 142 311 79 287ZM66 871L132 917C185 824 248 697 295 590L237 545C185 660 115 793 66 871ZM328 277L328 928 395 928 395 885 858 885 858 922 928 922 928 277 651 277 651 179 923 179 923 112 651 112 651 10 577 10 577 277ZM584 717C612 748 640 790 654 819L395 819 395 344 858 344 858 593C841 568 812 536 785 512L749 544C778 572 810 612 825 639L858 608 858 819 655 819 697 790C684 762 654 721 625 691ZM448 460C498 497 551 540 601 585 547 648 486 703 423 745 437 754 461 775 471 786 530 742 588 686 642 623 693 673 737 721 765 761L811 722C780 681 732 630 678 580 721 523 760 462 792 399L736 382C709 437 675 492 636 542 588 500 538 460 490 426Z"/>
</svg>