<svg xmlns="http://www.w3.org/2000/svg"
    viewBox="0 0 1000 1000">
  <!--
© 2014-2021 Adobe (http://www.adobe.com/).
Noto is a trademark of Google Inc.
This Font Software is licensed under the SIL Open Font License, Version 1.1. This Font Software is distributed on an "AS IS" BASIS, WITHOUT WARRANTIES OR CONDITIONS OF ANY KIND, either express or implied. See the SIL Open Font License for the specific language, permissions and limitations governing your use of this Font Software.
http://scripts.sil.org/OFL
  -->
<path d="M490 721C505 784 515 866 512 919L578 907C578 855 568 773 551 711ZM628 722C659 784 689 866 698 920L760 899C750 846 720 766 688 706ZM783 723C833 785 883 873 904 930L966 896C944 839 893 755 841 693ZM366 702C348 773 311 847 253 889L309 931C372 881 407 800 427 723ZM91 74C151 104 225 152 260 188L305 126C269 91 194 47 133 19ZM39 342C101 369 175 413 211 447L254 385C217 352 142 310 81 285ZM66 871L132 917C183 824 243 698 289 592L229 547C180 662 113 794 66 871ZM499 166L674 166C658 199 637 235 616 263L432 263C455 232 478 200 499 166ZM495 11C441 135 353 257 258 334 275 348 303 377 315 392 331 378 346 362 362 346L362 661 902 661 902 263 698 263C728 222 757 175 779 131L730 96 715 101 536 101C547 79 558 56 568 34ZM430 491L594 491 594 599 430 599ZM662 491L832 491 832 599 662 599ZM430 324L594 324 594 432 430 432ZM662 324L832 324 832 432 662 432Z"/>
</svg>