<svg xmlns="http://www.w3.org/2000/svg" name="gid7906" data-unicode="漥"
    viewBox="0 0 1000 1000">
  <!--
© 2014-2021 Adobe (http://www.adobe.com/).
Noto is a trademark of Google Inc.
This Font Software is licensed under the SIL Open Font License, Version 1.1. This Font Software is distributed on an "AS IS" BASIS, WITHOUT WARRANTIES OR CONDITIONS OF ANY KIND, either express or implied. See the SIL Open Font License for the specific language, permissions and limitations governing your use of this Font Software.
http://scripts.sil.org/OFL
  -->
<path d="M85 106C147 136 221 186 257 222L303 162C266 127 190 81 128 52ZM38 381C102 405 181 445 220 477L260 411C220 380 141 343 76 323ZM62 902L126 946C177 856 237 736 281 633L225 591C176 700 109 827 62 902ZM309 124L309 275 377 275 377 186 506 186C494 283 452 330 304 356 316 368 334 393 340 410 507 375 557 310 573 186L665 186 665 300C665 361 682 377 753 377 768 377 839 377 854 377 905 377 923 359 930 283 911 280 885 271 871 261 869 314 864 321 845 321 829 321 773 321 762 321 737 321 732 318 732 299L732 186 883 186 883 256 954 256 954 124 661 124 661 43 588 43 588 124ZM374 438L374 498 588 498 588 580 317 580 317 641 942 641 942 580 661 580 661 498 891 498 891 438 661 438 661 371 588 371 588 438ZM288 876L288 938 960 938 960 876 661 876 661 782 907 782 907 721 661 721 661 653 588 653 588 721 354 721 354 782 588 782 588 876Z"/>
</svg>