<svg xmlns="http://www.w3.org/2000/svg"
    viewBox="0 0 1000 1000">
  <!--
© 2014-2021 Adobe (http://www.adobe.com/).
Noto is a trademark of Google Inc.
This Font Software is licensed under the SIL Open Font License, Version 1.1. This Font Software is distributed on an "AS IS" BASIS, WITHOUT WARRANTIES OR CONDITIONS OF ANY KIND, either express or implied. See the SIL Open Font License for the specific language, permissions and limitations governing your use of this Font Software.
http://scripts.sil.org/OFL
  -->
<path d="M85 76C147 106 221 156 257 192L303 132C266 97 190 51 128 22ZM38 351C102 375 181 415 220 447L260 381C220 350 141 313 76 293ZM62 872L126 916C177 826 237 706 281 603L225 561C176 670 109 797 62 872ZM309 94L309 245 377 245 377 156 506 156C494 253 452 300 304 326 316 338 334 363 340 380 507 345 557 280 573 156L665 156 665 270C665 331 682 347 753 347 768 347 839 347 854 347 905 347 923 329 930 253 911 250 885 241 871 231 869 284 864 291 845 291 829 291 773 291 762 291 737 291 732 288 732 269L732 156 883 156 883 226 954 226 954 94 661 94 661 13 588 13 588 94ZM374 408L374 468 588 468 588 550 317 550 317 611 942 611 942 550 661 550 661 468 891 468 891 408 661 408 661 341 588 341 588 408ZM288 846L288 908 960 908 960 846 661 846 661 752 907 752 907 691 661 691 661 623 588 623 588 691 354 691 354 752 588 752 588 846Z"/>
</svg>