<svg xmlns="http://www.w3.org/2000/svg" name="gid7923" data-unicode="漾"
    viewBox="0 0 1000 1000">
  <!--
© 2014-2021 Adobe (http://www.adobe.com/).
Noto is a trademark of Google Inc.
This Font Software is licensed under the SIL Open Font License, Version 1.1. This Font Software is distributed on an "AS IS" BASIS, WITHOUT WARRANTIES OR CONDITIONS OF ANY KIND, either express or implied. See the SIL Open Font License for the specific language, permissions and limitations governing your use of this Font Software.
http://scripts.sil.org/OFL
  -->
<path d="M85 103C143 132 213 179 246 213L291 152C256 119 186 76 129 49ZM38 374C98 400 170 443 205 475L248 414C212 382 140 343 79 319ZM60 905L127 947C173 854 225 731 265 627L205 585C162 697 102 828 60 905ZM764 39C748 70 716 118 694 147L711 154 521 154 543 143C528 113 495 71 463 41L404 68C428 93 454 127 470 154L325 154 325 213 586 213 586 272 358 272 358 327 586 327 586 388 291 388 291 448 489 448 457 494C555 507 678 541 744 570L777 516C714 491 605 462 513 448L955 448 955 388 658 388 658 327 907 327 907 272 658 272 658 213 930 213 930 154 767 154C789 129 811 97 833 64ZM284 671L284 729 450 729C402 802 319 861 240 889 252 902 269 925 278 940 386 896 493 809 541 686L499 669 488 671ZM887 577C844 617 775 669 718 705 693 672 673 636 657 597L657 558 389 558 389 618 587 618 587 882C587 893 584 897 571 898 559 898 515 898 468 896 477 915 487 941 489 960 554 960 597 960 624 949 650 938 657 919 657 883L657 721C719 819 809 892 924 931 934 912 954 885 969 872 884 849 812 806 755 748 814 714 885 665 939 620Z"/>
</svg>