<svg xmlns="http://www.w3.org/2000/svg" name="gid7945" data-unicode="潦"
    viewBox="0 0 1000 1000">
  <!--
© 2014-2021 Adobe (http://www.adobe.com/).
Noto is a trademark of Google Inc.
This Font Software is licensed under the SIL Open Font License, Version 1.1. This Font Software is distributed on an "AS IS" BASIS, WITHOUT WARRANTIES OR CONDITIONS OF ANY KIND, either express or implied. See the SIL Open Font License for the specific language, permissions and limitations governing your use of this Font Software.
http://scripts.sil.org/OFL
  -->
<path d="M470 558L782 558 782 632 470 632ZM470 433L782 433 782 505 470 505ZM436 723C398 785 332 844 269 884 286 895 314 918 327 930 390 885 462 813 506 744ZM733 759C795 808 866 881 900 927L962 886C927 840 855 773 792 725ZM91 113C144 153 208 213 237 252L290 199C258 161 193 104 140 66ZM42 384C96 420 164 475 195 511L242 453C208 418 140 367 86 333ZM63 890L129 937C180 845 237 724 281 621L222 575C174 686 109 814 63 890ZM892 232C871 256 836 291 806 317 778 284 754 248 735 210L949 210 949 144 616 144C627 115 636 84 644 52L570 38C561 75 551 111 538 144L319 144 319 210 509 210C492 243 472 274 450 303 424 279 389 252 359 234L315 279C345 300 380 328 406 354 365 394 319 429 266 456 281 470 309 498 319 514 348 496 376 477 402 456L402 687 591 687 591 878C591 888 588 891 575 892 563 892 524 892 480 891 490 911 500 939 502 959 562 959 602 959 630 949 658 937 664 918 664 880L664 687 852 687 852 463C874 481 897 496 920 509 932 490 954 463 970 450 926 429 883 397 845 360 877 337 913 308 945 279ZM589 210L664 210C690 270 725 328 767 378L482 378C524 329 560 273 589 210Z"/>
</svg>