<svg xmlns="http://www.w3.org/2000/svg"
    viewBox="0 0 1000 1000">
  <!--
© 2014-2021 Adobe (http://www.adobe.com/).
Noto is a trademark of Google Inc.
This Font Software is licensed under the SIL Open Font License, Version 1.1. This Font Software is distributed on an "AS IS" BASIS, WITHOUT WARRANTIES OR CONDITIONS OF ANY KIND, either express or implied. See the SIL Open Font License for the specific language, permissions and limitations governing your use of this Font Software.
http://scripts.sil.org/OFL
  -->
<path d="M73 73C127 105 191 154 221 189L267 133C235 99 171 53 117 24ZM36 340C91 369 158 415 190 448L234 390C200 357 133 315 78 288ZM53 878L118 915C159 823 207 700 242 596L184 560C146 671 92 801 53 878ZM879 50C841 148 790 240 730 321L694 321 694 193 809 193 809 128 694 128 694 11 629 11 629 128 512 128 512 193 629 193 629 321 482 321 482 387 676 387C613 460 541 522 463 572L463 550C463 432 457 322 422 218 457 161 488 98 512 33L444 16C429 58 410 99 388 139 368 98 341 58 308 19L256 55C297 104 325 155 346 208 314 255 277 297 238 331 254 343 280 370 291 384 319 357 346 326 372 291 382 335 388 379 391 425 353 510 285 601 224 649 239 663 257 691 265 709 310 669 357 609 395 546L395 549C395 675 388 817 366 846 360 855 352 858 339 859 320 861 290 862 252 859 265 879 273 906 274 929 310 931 344 929 370 925 392 921 408 913 420 896 451 852 461 727 463 601 475 614 488 629 495 638 519 622 542 606 565 588L565 931 631 931 631 893 839 893 839 927 907 927 907 509 859 509 895 473C875 448 832 414 795 392L755 429C790 451 829 484 850 509L655 509C694 471 730 431 764 387L961 387 961 321 812 321C864 245 909 161 946 70ZM631 726L839 726 839 831 631 831ZM631 667L631 571 839 571 839 667Z"/>
</svg>