<svg xmlns="http://www.w3.org/2000/svg" name="gid7952" data-unicode="潴"
    viewBox="0 0 1000 1000">
  <!--
© 2014-2021 Adobe (http://www.adobe.com/).
Noto is a trademark of Google Inc.
This Font Software is licensed under the SIL Open Font License, Version 1.1. This Font Software is distributed on an "AS IS" BASIS, WITHOUT WARRANTIES OR CONDITIONS OF ANY KIND, either express or implied. See the SIL Open Font License for the specific language, permissions and limitations governing your use of this Font Software.
http://scripts.sil.org/OFL
  -->
<path d="M73 103C127 135 191 184 221 219L267 163C235 129 171 83 117 54ZM36 370C91 399 158 445 190 478L234 420C200 387 133 345 78 318ZM53 908L118 945C159 853 207 730 242 626L184 590C146 701 92 831 53 908ZM879 80C841 178 790 270 730 351L694 351 694 223 809 223 809 158 694 158 694 41 629 41 629 158 512 158 512 223 629 223 629 351 482 351 482 417 676 417C613 490 541 552 463 602L463 580C463 462 457 352 422 248 457 191 488 128 512 63L444 46C429 88 410 129 388 169 368 128 341 88 308 49L256 85C297 134 325 185 346 238 314 285 277 327 238 361 254 373 280 400 291 414 319 387 346 356 372 321 382 365 388 409 391 455 353 540 285 631 224 679 239 693 257 721 265 739 310 699 357 639 395 576L395 579C395 705 388 847 366 876 360 885 352 888 339 889 320 891 290 892 252 889 265 909 273 936 274 959 310 961 344 959 370 955 392 951 408 943 420 926 451 882 461 757 463 631 475 644 488 659 495 668 519 652 542 636 565 618L565 961 631 961 631 923 839 923 839 957 907 957 907 539 859 539 895 503C875 478 832 444 795 422L755 459C790 481 829 514 850 539L655 539C694 501 730 461 764 417L961 417 961 351 812 351C864 275 909 191 946 100ZM631 756L839 756 839 861 631 861ZM631 697L631 601 839 601 839 697Z"/>
</svg>