<svg xmlns="http://www.w3.org/2000/svg" name="gid7954" data-unicode="潺"
    viewBox="0 0 1000 1000">
  <!--
© 2014-2021 Adobe (http://www.adobe.com/).
Noto is a trademark of Google Inc.
This Font Software is licensed under the SIL Open Font License, Version 1.1. This Font Software is distributed on an "AS IS" BASIS, WITHOUT WARRANTIES OR CONDITIONS OF ANY KIND, either express or implied. See the SIL Open Font License for the specific language, permissions and limitations governing your use of this Font Software.
http://scripts.sil.org/OFL
  -->
<path d="M81 104C138 132 206 179 239 212L284 152C249 119 181 77 124 51ZM38 374C97 399 167 441 202 473L245 412C210 380 139 342 79 319ZM58 907L126 947C169 855 220 732 257 627L197 588C156 700 99 830 58 907ZM319 76L319 393C319 550 311 765 217 917 234 924 263 942 276 954 374 794 387 559 387 393L387 262 922 262 922 76ZM387 133L852 133 852 204 387 204ZM650 386L650 415 427 415 427 468 650 468 650 515C650 525 648 528 636 528 624 529 586 529 542 527 550 542 558 563 562 578 622 578 660 578 685 571 709 562 716 548 716 517L716 468 937 468 937 415 728 415C773 392 822 362 860 332L822 300 808 304 488 304 488 353 743 353C726 365 706 376 687 386ZM489 696L489 759 362 781 372 837 489 814 489 895C489 905 486 907 476 908 466 909 435 909 396 907 403 923 411 945 414 960 467 960 502 960 524 951 546 942 551 927 551 897L551 801 643 782 640 731 551 747 551 733C586 704 626 665 656 628L618 598 605 602 402 602 402 654 560 654C547 669 534 683 521 696ZM773 696L773 750 651 750 651 805 773 805 773 894C773 903 770 906 759 906 748 907 714 907 674 905 682 922 689 944 692 960 748 960 784 961 808 951 831 942 837 927 837 895L837 805 960 805 960 750 837 750 837 731C876 702 918 665 950 629L911 598 899 602 682 602 682 654 850 654C835 669 820 683 804 696Z"/>
</svg>