<svg xmlns="http://www.w3.org/2000/svg" name="gid7955" data-unicode="潼"
    viewBox="0 0 1000 1000">
  <!--
© 2014-2021 Adobe (http://www.adobe.com/).
Noto is a trademark of Google Inc.
This Font Software is licensed under the SIL Open Font License, Version 1.1. This Font Software is distributed on an "AS IS" BASIS, WITHOUT WARRANTIES OR CONDITIONS OF ANY KIND, either express or implied. See the SIL Open Font License for the specific language, permissions and limitations governing your use of this Font Software.
http://scripts.sil.org/OFL
  -->
<path d="M89 103C150 133 223 181 259 217L303 155C267 120 192 76 132 49ZM38 373C100 400 174 445 210 478L253 417C216 384 141 341 80 317ZM65 901L131 947C182 854 242 729 287 624L228 579C179 692 112 824 65 901ZM424 177C442 206 459 245 466 274L285 274 285 334 951 334 951 274 765 274C782 246 802 211 820 176L785 168 923 168 923 110 654 110 654 40 578 40 578 110 333 110 333 168 458 168ZM494 168L739 168C728 199 707 240 691 268L713 274 512 274 539 266C532 238 515 198 494 168ZM361 389L361 684 582 684 582 750 338 750 338 807 582 807 582 881 273 881 273 941 960 941 960 881 654 881 654 807 904 807 904 750 654 750 654 684 883 684 883 389ZM429 560L582 560 582 634 429 634ZM654 560L812 560 812 634 654 634ZM429 439L582 439 582 512 429 512ZM654 439L812 439 812 512 654 512Z"/>
</svg>