<svg xmlns="http://www.w3.org/2000/svg" name="gid7957" data-unicode="潾"
    viewBox="0 0 1000 1000">
  <!--
© 2014-2021 Adobe (http://www.adobe.com/).
Noto is a trademark of Google Inc.
This Font Software is licensed under the SIL Open Font License, Version 1.1. This Font Software is distributed on an "AS IS" BASIS, WITHOUT WARRANTIES OR CONDITIONS OF ANY KIND, either express or implied. See the SIL Open Font License for the specific language, permissions and limitations governing your use of this Font Software.
http://scripts.sil.org/OFL
  -->
<path d="M81 104C138 132 206 179 239 212L284 152C249 119 181 77 124 51ZM38 374C97 399 167 441 202 473L245 412C210 380 139 342 79 319ZM57 907L123 946C166 853 217 729 254 624L195 585C155 698 98 829 57 907ZM808 55C786 96 745 156 715 192L770 217C801 183 841 131 873 83ZM363 88C395 128 430 183 447 220L309 220 309 283 528 283C464 348 367 409 282 439 297 452 317 476 327 492 412 455 509 388 577 313L577 499 647 499 647 309C718 381 822 447 914 481 924 464 945 439 961 426 871 398 770 342 702 283L940 283 940 220 647 220 647 40 577 40 577 220 449 220 507 189C491 154 453 99 420 60ZM771 616L771 753 681 753 681 616ZM543 753L543 817 771 817 771 958 839 958 839 817 960 817 960 753 839 753 839 616 937 616 937 555 839 555 839 473 771 473 771 555 618 555 618 753ZM514 603C500 650 482 694 459 732 434 708 399 679 368 656 380 638 392 621 403 603ZM398 476C368 553 310 651 224 724 239 733 260 752 270 765 293 744 314 723 333 700 364 726 400 758 423 784 380 840 327 882 270 908 283 921 300 946 308 961 440 895 546 760 588 557L548 544 536 546 434 546C445 526 454 506 462 486Z"/>
</svg>