<svg xmlns="http://www.w3.org/2000/svg" name="gid7969" data-unicode="澎"
    viewBox="0 0 1000 1000">
  <!--
© 2014-2021 Adobe (http://www.adobe.com/).
Noto is a trademark of Google Inc.
This Font Software is licensed under the SIL Open Font License, Version 1.1. This Font Software is distributed on an "AS IS" BASIS, WITHOUT WARRANTIES OR CONDITIONS OF ANY KIND, either express or implied. See the SIL Open Font License for the specific language, permissions and limitations governing your use of this Font Software.
http://scripts.sil.org/OFL
  -->
<path d="M38 372C95 400 163 444 195 477L240 417C206 385 137 343 81 318ZM58 907L126 947C169 855 220 732 257 627L197 588C156 700 99 830 58 907ZM253 863L272 931C381 908 533 876 676 845L670 783C516 814 355 846 253 863ZM322 652C344 702 363 770 367 814L431 793C426 750 406 684 382 634ZM538 629C529 676 510 745 494 788L554 805C571 764 592 701 610 647ZM369 452L556 452 556 559 369 559ZM304 397L304 613 624 613 624 397ZM861 60C813 146 723 238 642 291 662 304 683 326 696 341 783 280 873 183 929 84ZM868 341C821 426 729 512 639 561 658 574 680 596 692 613 788 555 881 463 937 365ZM883 621C834 746 733 850 600 906 617 920 637 943 648 960 793 894 897 782 954 642ZM427 42L427 130 275 130 275 154C241 121 178 78 124 51L80 104C135 134 202 181 233 216L275 161 275 193 427 193 427 276 291 276 291 337 634 337 634 276 499 276 499 193 657 193 657 130 499 130 499 42Z"/>
</svg>