<svg xmlns="http://www.w3.org/2000/svg"
    viewBox="0 0 1000 1000">
  <!--
© 2014-2021 Adobe (http://www.adobe.com/).
Noto is a trademark of Google Inc.
This Font Software is licensed under the SIL Open Font License, Version 1.1. This Font Software is distributed on an "AS IS" BASIS, WITHOUT WARRANTIES OR CONDITIONS OF ANY KIND, either express or implied. See the SIL Open Font License for the specific language, permissions and limitations governing your use of this Font Software.
http://scripts.sil.org/OFL
  -->
<path d="M81 71C137 99 205 146 237 180L282 121C247 88 179 46 123 20ZM38 344C96 370 167 412 202 444L244 385C209 354 138 315 79 291ZM56 874L120 914C165 821 217 698 256 593L200 554C157 666 97 797 56 874ZM350 500L350 559 884 559 884 500ZM392 286L392 332 541 332 541 286ZM367 388L367 434 541 434 541 388ZM682 286L682 332 838 332 838 286ZM682 388L682 434 862 434 862 388ZM303 838L313 903C449 896 648 886 838 874 856 895 870 914 881 931L938 895C903 841 825 762 758 708L705 738C732 761 761 789 788 817L491 830C515 789 541 737 563 690L956 690 956 629 271 629 271 690 482 690C465 737 441 792 419 833ZM290 173L290 328 353 328 353 231 577 231 577 451 644 451 644 231 879 231 879 328 944 328 944 173 644 173 644 109 900 109 900 48 333 48 333 109 577 109 577 173Z"/>
</svg>