<svg xmlns="http://www.w3.org/2000/svg" name="gid7971" data-unicode="澑"
    viewBox="0 0 1000 1000">
  <!--
© 2014-2021 Adobe (http://www.adobe.com/).
Noto is a trademark of Google Inc.
This Font Software is licensed under the SIL Open Font License, Version 1.1. This Font Software is distributed on an "AS IS" BASIS, WITHOUT WARRANTIES OR CONDITIONS OF ANY KIND, either express or implied. See the SIL Open Font License for the specific language, permissions and limitations governing your use of this Font Software.
http://scripts.sil.org/OFL
  -->
<path d="M38 374C98 400 170 443 205 475L248 414C212 382 140 343 79 319ZM60 905L127 947C173 854 225 731 265 627L205 585C162 697 102 828 60 905ZM328 577L328 960 397 960 397 926 839 926 839 956 910 956 910 577 726 577 726 491 926 491 926 242 726 242 726 150 955 150 955 86 286 86 286 148C250 115 184 75 129 49L85 103C143 132 213 179 246 213L291 152 289 150 501 150 501 242 315 242 315 491 501 491 501 577ZM568 150L660 150 660 577 568 577ZM578 778L578 866 397 866 397 778ZM649 778L839 778 839 866 649 866ZM578 721L397 721 397 637 578 637ZM649 721L649 637 839 637 839 721ZM501 430L379 430 379 303 501 303ZM726 303L858 303 858 430 726 430Z"/>
</svg>