<svg xmlns="http://www.w3.org/2000/svg" name="gid7976" data-unicode="澗"
    viewBox="0 0 1000 1000">
  <!--
© 2014-2021 Adobe (http://www.adobe.com/).
Noto is a trademark of Google Inc.
This Font Software is licensed under the SIL Open Font License, Version 1.1. This Font Software is distributed on an "AS IS" BASIS, WITHOUT WARRANTIES OR CONDITIONS OF ANY KIND, either express or implied. See the SIL Open Font License for the specific language, permissions and limitations governing your use of this Font Software.
http://scripts.sil.org/OFL
  -->
<path d="M78 104C135 132 204 179 236 212L281 152C247 119 178 77 122 51ZM38 374C97 399 167 441 202 473L245 412C210 380 139 342 79 319ZM55 907L123 947C166 855 217 732 254 627L194 588C153 700 96 830 55 907ZM364 275L505 275 505 359 364 359ZM364 221L364 140 505 140 505 221ZM851 275L851 359 704 359 704 275ZM851 221L704 221 704 140 851 140ZM884 82L639 82 639 418 851 418 851 870C851 887 846 892 830 892 814 892 760 893 705 891 715 910 725 942 728 960 805 960 853 960 882 947 910 936 921 914 921 870L921 82ZM296 82L296 960 364 960 364 418 568 418 568 82ZM522 679L689 679 689 763 522 763ZM522 625L522 549 689 549 689 625ZM461 493L461 870 522 870 522 818 750 818 750 493Z"/>
</svg>