<svg xmlns="http://www.w3.org/2000/svg"
    viewBox="0 0 1000 1000">
  <!--
© 2014-2021 Adobe (http://www.adobe.com/).
Noto is a trademark of Google Inc.
This Font Software is licensed under the SIL Open Font License, Version 1.1. This Font Software is distributed on an "AS IS" BASIS, WITHOUT WARRANTIES OR CONDITIONS OF ANY KIND, either express or implied. See the SIL Open Font License for the specific language, permissions and limitations governing your use of this Font Software.
http://scripts.sil.org/OFL
  -->
<path d="M87 78C147 110 224 161 260 196L304 137C266 103 189 56 130 26ZM36 341C96 371 173 419 210 452L252 391C214 358 137 314 77 286ZM59 867L128 909C172 814 222 687 259 579L198 537C157 653 100 787 59 867ZM484 102L754 102 754 200 484 200ZM418 44L418 259 824 259 824 44ZM382 367L518 367 518 470 382 470ZM319 311L319 526 584 526 584 311ZM713 367L857 367 857 470 713 470ZM650 311L650 526 924 526 924 311ZM289 610L289 675 520 675C452 751 347 821 252 857 268 871 291 897 302 916 400 872 508 789 579 699L579 930 652 930 652 696C719 784 823 869 916 912 928 894 951 867 967 853 875 819 774 749 708 675L948 675 948 610 652 610 652 528 579 528 579 610Z"/>
</svg>