<svg xmlns="http://www.w3.org/2000/svg"
    viewBox="0 0 1000 1000">
  <!--
© 2014-2021 Adobe (http://www.adobe.com/).
Noto is a trademark of Google Inc.
This Font Software is licensed under the SIL Open Font License, Version 1.1. This Font Software is distributed on an "AS IS" BASIS, WITHOUT WARRANTIES OR CONDITIONS OF ANY KIND, either express or implied. See the SIL Open Font License for the specific language, permissions and limitations governing your use of this Font Software.
http://scripts.sil.org/OFL
  -->
<path d="M81 74C138 102 206 149 239 182L284 122C249 89 181 47 124 21ZM38 344C97 369 167 411 202 443L245 382C210 350 139 312 79 289ZM58 877L125 917C168 825 219 701 256 597L196 558C156 670 98 800 58 877ZM787 475C768 514 732 571 705 606L740 622 640 622 640 463 570 463 570 622 468 622 505 604C492 571 461 522 432 486L373 513C398 546 424 590 438 622L285 622 285 686 523 686C452 755 343 819 249 852 265 865 286 890 296 907 389 869 496 799 570 723L570 929 640 929 640 716C714 794 823 865 919 903 930 884 952 858 967 844 870 814 760 753 690 686L951 686 951 622 767 622C794 590 825 545 852 503ZM636 220C670 243 707 270 743 298 698 345 647 382 594 405 608 417 626 441 635 457 692 429 746 389 793 338 838 377 878 415 903 446L949 398C922 367 880 328 833 290 877 231 912 159 933 75L891 60 879 63 680 63 680 124 851 124C834 170 810 213 782 251 748 225 713 200 680 179ZM389 160C360 222 309 281 253 322 268 330 294 350 305 361 323 346 341 329 359 310 387 331 417 357 439 379 393 420 339 452 286 471 298 483 315 505 324 520 453 466 576 359 628 197L587 178 575 181 521 181 521 129 646 129 646 72 521 72 521 11 458 11 458 181 449 181 451 177ZM547 235C530 272 507 307 480 338 457 315 424 289 394 268L417 235Z"/>
</svg>