<svg xmlns="http://www.w3.org/2000/svg"
    viewBox="0 0 1000 1000">
  <!--
© 2014-2021 Adobe (http://www.adobe.com/).
Noto is a trademark of Google Inc.
This Font Software is licensed under the SIL Open Font License, Version 1.1. This Font Software is distributed on an "AS IS" BASIS, WITHOUT WARRANTIES OR CONDITIONS OF ANY KIND, either express or implied. See the SIL Open Font License for the specific language, permissions and limitations governing your use of this Font Software.
http://scripts.sil.org/OFL
  -->
<path d="M85 73C143 102 213 149 246 183L291 122C256 89 186 46 129 19ZM38 344C98 370 170 413 205 445L248 384C212 352 140 313 79 289ZM60 875L127 917C173 824 225 701 265 597L205 555C162 667 102 798 60 875ZM580 9C572 38 559 76 546 108L331 108 331 603 398 603 398 170 838 170 838 598 907 598 907 108 621 108 662 24ZM721 259C712 283 692 321 678 345L706 358 642 358 642 249C691 243 737 234 773 224L737 185C669 203 544 219 443 226 449 238 455 255 458 266 499 264 543 261 587 256L587 358 524 358 551 344C544 324 526 292 509 268L469 284C484 307 500 336 508 358L435 358 435 406 562 406C526 455 469 504 418 527 430 538 447 556 455 569 500 542 550 494 587 444L587 563 642 563 642 458C682 487 737 528 760 548L790 504C765 485 672 424 642 407L642 406 803 406 803 358 718 358C733 336 749 307 768 278ZM580 586C577 607 574 626 569 644L277 644 277 708 547 708C508 789 429 840 259 869 272 884 290 913 297 931 478 895 567 832 613 736 672 840 773 903 923 930 932 910 951 880 968 865 825 847 725 795 672 708L949 708 949 644 643 644C647 626 650 606 653 586Z"/>
</svg>