<svg xmlns="http://www.w3.org/2000/svg"
    viewBox="0 0 1000 1000">
  <!--
© 2014-2021 Adobe (http://www.adobe.com/).
Noto is a trademark of Google Inc.
This Font Software is licensed under the SIL Open Font License, Version 1.1. This Font Software is distributed on an "AS IS" BASIS, WITHOUT WARRANTIES OR CONDITIONS OF ANY KIND, either express or implied. See the SIL Open Font License for the specific language, permissions and limitations governing your use of this Font Software.
http://scripts.sil.org/OFL
  -->
<path d="M72 69C126 98 195 144 228 175L269 111C235 82 166 39 111 13ZM34 344C88 372 156 417 188 448L230 388C195 357 127 316 74 290ZM53 875L118 912C160 819 208 694 243 588L185 551C147 664 92 796 53 875ZM643 232C660 286 675 358 680 401L739 383C734 342 717 273 698 218ZM850 212C842 263 823 339 808 386L860 402C877 358 897 288 916 230ZM310 66L310 305C310 453 302 665 221 817 233 824 261 851 271 865 302 809 324 744 340 676L340 921 403 921 403 844 588 844 588 498 368 498C371 456 374 415 375 377L573 377 573 66ZM376 130L508 130 508 313 376 313 376 305ZM403 562L523 562 523 780 403 780ZM601 134L601 200 951 200 951 134 808 134 808 19 736 19 736 134ZM608 610L608 676 736 676 736 929 808 929 808 676 949 676 949 610 808 610 808 472 965 472 965 406 583 406 583 472 736 472 736 610Z"/>
</svg>