<svg xmlns="http://www.w3.org/2000/svg" name="gid8001" data-unicode="激"
    viewBox="0 0 1000 1000">
  <!--
© 2014-2021 Adobe (http://www.adobe.com/).
Noto is a trademark of Google Inc.
This Font Software is licensed under the SIL Open Font License, Version 1.1. This Font Software is distributed on an "AS IS" BASIS, WITHOUT WARRANTIES OR CONDITIONS OF ANY KIND, either express or implied. See the SIL Open Font License for the specific language, permissions and limitations governing your use of this Font Software.
http://scripts.sil.org/OFL
  -->
<path d="M363 329L540 329 540 409 363 409ZM363 198L540 198 540 276 363 276ZM82 103C137 133 204 181 235 215L280 157C247 122 181 78 126 50ZM39 372C96 399 164 444 197 477L241 417C207 384 138 343 82 317ZM59 908L126 949C170 856 220 733 257 628L197 589C157 701 99 831 59 908ZM692 39C676 173 649 302 605 401L605 142 469 142 503 50 423 39C418 68 407 108 397 142L301 142 301 465 413 465 413 541 255 541 255 604 365 604 365 640C365 715 351 833 223 922 239 934 262 953 274 966 373 896 410 807 423 729L531 729C526 829 519 868 509 880 505 887 497 888 484 888 471 888 438 888 402 885 412 901 419 927 420 947 458 949 496 948 515 946 538 944 553 939 567 923L572 915C588 927 614 951 624 963 690 913 742 853 783 782 819 850 866 912 926 959 936 942 960 914 974 901 906 854 856 788 818 712 867 600 897 464 914 301L962 301 962 232 731 232C744 174 754 113 763 51ZM484 465L574 465C590 477 615 504 625 517 642 489 658 458 672 423 687 515 710 614 747 705 706 789 651 857 575 910 588 881 593 820 598 695 599 686 600 667 600 667L430 667 430 642 430 604 647 604 647 541 484 541ZM845 301C833 424 813 533 780 626 743 524 722 413 710 313L713 301Z"/>
</svg>