<svg xmlns="http://www.w3.org/2000/svg" name="gid8002" data-unicode="濁"
    viewBox="0 0 1000 1000">
  <!--
© 2014-2021 Adobe (http://www.adobe.com/).
Noto is a trademark of Google Inc.
This Font Software is licensed under the SIL Open Font License, Version 1.1. This Font Software is distributed on an "AS IS" BASIS, WITHOUT WARRANTIES OR CONDITIONS OF ANY KIND, either express or implied. See the SIL Open Font License for the specific language, permissions and limitations governing your use of this Font Software.
http://scripts.sil.org/OFL
  -->
<path d="M731 135L843 135 843 245 731 245ZM562 135L671 135 671 245 562 245ZM396 135L502 135 502 245 396 245ZM85 103C143 132 213 179 246 213L291 152C256 119 186 76 129 49ZM38 374C98 400 170 443 205 475L248 414C212 382 140 343 79 319ZM60 905L127 947C173 854 225 731 265 627L205 585C162 697 102 828 60 905ZM329 74L329 306 420 306C379 397 315 481 245 538 262 549 291 574 302 587 345 549 387 499 424 444L859 444C851 754 843 861 824 886 815 899 807 901 792 901 775 901 736 900 692 896 702 913 709 939 710 957 756 960 799 960 825 957 852 954 870 948 886 925 912 889 921 771 930 414 930 404 930 379 930 379L464 379C477 355 489 331 500 306L913 306 913 74ZM423 579L524 579 524 673 423 673ZM589 579L694 579 694 673 589 673ZM644 760L680 802 589 808 589 725 758 725 758 527 589 527 589 455 524 455 524 527 363 527 363 725 524 725 524 812 312 825 321 888 720 856C728 869 736 881 741 891L795 860C776 824 734 772 694 735Z"/>
</svg>