<svg xmlns="http://www.w3.org/2000/svg" name="gid8008" data-unicode="濈"
    viewBox="0 0 1000 1000">
  <!--
© 2014-2021 Adobe (http://www.adobe.com/).
Noto is a trademark of Google Inc.
This Font Software is licensed under the SIL Open Font License, Version 1.1. This Font Software is distributed on an "AS IS" BASIS, WITHOUT WARRANTIES OR CONDITIONS OF ANY KIND, either express or implied. See the SIL Open Font License for the specific language, permissions and limitations governing your use of this Font Software.
http://scripts.sil.org/OFL
  -->
<path d="M76 102C130 132 195 178 226 212L271 153C240 120 174 76 119 49ZM38 372C92 399 158 444 189 476L234 416C202 384 135 343 81 318ZM57 906L122 945C165 853 215 730 251 625L193 587C153 698 97 829 57 906ZM368 133L537 133 537 241 368 241ZM304 77L304 297 603 297 603 77ZM789 111C827 160 867 227 884 269L941 240C924 198 881 133 843 85ZM526 418L526 495 379 495 379 418ZM235 795L247 862 526 824 526 960 592 960 592 816 641 809 640 749 592 755 592 418 634 418 634 357 261 357 261 418 314 418 314 786ZM526 548L526 628 379 628 379 548ZM526 681L526 762 379 779 379 681ZM866 454C851 519 830 584 803 645 792 582 782 509 775 428L960 389 948 327 770 365C762 264 758 155 758 42L690 42C692 157 697 272 705 378L635 393 648 455 710 442C721 555 736 658 755 742 716 809 670 870 615 919 630 929 652 947 662 959 705 919 743 874 777 823 805 909 840 960 882 960 940 960 959 913 970 771 953 764 932 750 918 735 915 841 907 892 892 892 870 892 846 838 824 747 868 665 903 574 928 479Z"/>
</svg>