<svg xmlns="http://www.w3.org/2000/svg" name="gid8010" data-unicode="濊"
    viewBox="0 0 1000 1000">
  <!--
© 2014-2021 Adobe (http://www.adobe.com/).
Noto is a trademark of Google Inc.
This Font Software is licensed under the SIL Open Font License, Version 1.1. This Font Software is distributed on an "AS IS" BASIS, WITHOUT WARRANTIES OR CONDITIONS OF ANY KIND, either express or implied. See the SIL Open Font License for the specific language, permissions and limitations governing your use of this Font Software.
http://scripts.sil.org/OFL
  -->
<path d="M88 101C149 131 222 178 258 215L300 156C264 121 190 76 129 49ZM38 372C100 399 174 444 210 478L251 418C214 386 139 344 78 319ZM58 901L121 943C170 850 228 725 271 619L217 579C169 691 104 823 58 901ZM424 614C410 669 389 724 354 764 368 771 392 784 402 792 434 750 462 686 477 623ZM825 496C810 557 789 613 764 665 749 606 736 535 728 453L957 453 957 393 867 393 897 367C877 347 839 317 806 298L962 298 962 240 662 240 662 167 868 167 868 113 662 113 662 40 593 40 593 240 469 240 469 77 402 77 402 240 281 240 281 298 650 298 657 393 308 393 308 526C308 640 296 802 211 921 228 929 256 948 267 960 356 833 373 652 373 526L373 453 662 453C675 568 695 665 720 743 672 815 613 874 541 918 557 929 583 950 593 962 651 921 702 872 746 814 787 909 836 959 886 959 937 958 961 934 971 808 956 802 935 790 923 776 917 867 909 893 889 893 862 893 824 845 790 749 832 679 865 599 889 508ZM754 327C783 344 818 371 841 393L722 393 717 298 791 298ZM606 623C593 666 574 705 551 740L551 562 651 562 651 509 397 509 397 562 496 562 496 806C460 842 417 871 369 894 380 904 399 925 407 936 522 872 616 772 658 633Z"/>
</svg>