<svg xmlns="http://www.w3.org/2000/svg"
    viewBox="0 0 1000 1000">
  <!--
© 2014-2021 Adobe (http://www.adobe.com/).
Noto is a trademark of Google Inc.
This Font Software is licensed under the SIL Open Font License, Version 1.1. This Font Software is distributed on an "AS IS" BASIS, WITHOUT WARRANTIES OR CONDITIONS OF ANY KIND, either express or implied. See the SIL Open Font License for the specific language, permissions and limitations governing your use of this Font Software.
http://scripts.sil.org/OFL
  -->
<path d="M88 71C149 101 222 148 258 185L300 126C264 91 190 46 129 19ZM38 342C100 369 174 414 210 448L251 388C214 356 139 314 78 289ZM58 871L121 913C170 820 228 695 271 589L217 549C169 661 104 793 58 871ZM424 584C410 639 389 694 354 734 368 741 392 754 402 762 434 720 462 656 477 593ZM825 466C810 527 789 583 764 635 749 576 736 505 728 423L957 423 957 363 867 363 897 337C877 317 839 287 806 268L962 268 962 210 662 210 662 137 868 137 868 83 662 83 662 10 593 10 593 210 469 210 469 47 402 47 402 210 281 210 281 268 650 268 657 363 308 363 308 496C308 610 296 772 211 891 228 899 256 918 267 930 356 803 373 622 373 496L373 423 662 423C675 538 695 635 720 713 672 785 613 844 541 888 557 899 583 920 593 932 651 891 702 842 746 784 787 879 836 929 886 929 937 928 961 904 971 778 956 772 935 760 923 746 917 837 909 863 889 863 862 863 824 815 790 719 832 649 865 569 889 478ZM754 297C783 314 818 341 841 363L722 363 717 268 791 268ZM606 593C593 636 574 675 551 710L551 532 651 532 651 479 397 479 397 532 496 532 496 776C460 812 417 841 369 864 380 874 399 895 407 906 522 842 616 742 658 603Z"/>
</svg>