<svg xmlns="http://www.w3.org/2000/svg"
    viewBox="0 0 1000 1000">
  <!--
© 2014-2021 Adobe (http://www.adobe.com/).
Noto is a trademark of Google Inc.
This Font Software is licensed under the SIL Open Font License, Version 1.1. This Font Software is distributed on an "AS IS" BASIS, WITHOUT WARRANTIES OR CONDITIONS OF ANY KIND, either express or implied. See the SIL Open Font License for the specific language, permissions and limitations governing your use of this Font Software.
http://scripts.sil.org/OFL
  -->
<path d="M85 73C143 102 213 149 246 183L291 122C256 89 186 46 129 19ZM38 344C98 370 170 413 205 445L248 384C212 352 140 313 79 289ZM60 875L127 917C173 824 225 701 265 597L205 555C162 667 102 798 60 875ZM443 277L443 329 806 329 806 277ZM438 343C402 391 344 440 286 474 302 484 328 504 340 515 396 478 460 419 501 362ZM725 377C785 413 857 471 892 510L939 468C903 430 832 375 770 340ZM308 172L308 324 376 324 376 230 870 230 870 324 941 324 941 172 650 172 650 122 886 122 886 69 650 69 650 9 577 9 577 172ZM469 708L780 708 780 755 469 755ZM469 664L469 617 780 617 780 664ZM469 800L780 800 780 848 469 848ZM469 900L780 900 780 926 850 926 850 638C875 654 901 668 925 680 935 661 951 635 965 619 850 570 724 477 645 376L578 376C518 468 397 570 273 628 286 644 302 669 310 685 341 670 372 652 401 633L401 930 469 930ZM614 439C648 481 694 524 744 564L493 564C542 523 584 480 614 439Z"/>
</svg>