<svg xmlns="http://www.w3.org/2000/svg" name="gid8030" data-unicode="濵"
    viewBox="0 0 1000 1000">
  <!--
© 2014-2021 Adobe (http://www.adobe.com/).
Noto is a trademark of Google Inc.
This Font Software is licensed under the SIL Open Font License, Version 1.1. This Font Software is distributed on an "AS IS" BASIS, WITHOUT WARRANTIES OR CONDITIONS OF ANY KIND, either express or implied. See the SIL Open Font License for the specific language, permissions and limitations governing your use of this Font Software.
http://scripts.sil.org/OFL
  -->
<path d="M88 103C144 132 215 179 248 213L291 150C256 118 185 75 129 48ZM38 374C97 401 169 444 205 475L246 412C210 382 137 342 78 318ZM65 905L132 947C178 854 230 731 270 627L210 585C166 697 107 828 65 905ZM531 617L817 617 817 669 531 669ZM531 713L817 713 817 766 531 766ZM531 523L817 523 817 573 531 573ZM732 854C789 885 852 928 888 959L953 924C913 892 843 849 782 818ZM585 40L585 121 298 121 298 277 363 277 363 395C363 540 348 744 234 893 249 902 278 929 289 943 405 793 431 578 434 424L879 424 879 275 945 275 945 121 658 121 658 40ZM368 249L368 179 872 179 872 249ZM588 300L588 372 434 372 434 300ZM656 300L806 300 806 372 656 372ZM465 474L465 814 557 814C519 849 442 889 381 913 397 925 419 947 432 960 494 935 573 891 624 850L562 814 886 814 886 474Z"/>
</svg>