<svg xmlns="http://www.w3.org/2000/svg"
    viewBox="0 0 1000 1000">
  <!--
© 2014-2021 Adobe (http://www.adobe.com/).
Noto is a trademark of Google Inc.
This Font Software is licensed under the SIL Open Font License, Version 1.1. This Font Software is distributed on an "AS IS" BASIS, WITHOUT WARRANTIES OR CONDITIONS OF ANY KIND, either express or implied. See the SIL Open Font License for the specific language, permissions and limitations governing your use of this Font Software.
http://scripts.sil.org/OFL
  -->
<path d="M90 73C150 102 222 149 257 184L302 124C266 90 192 46 134 19ZM38 344C100 370 176 415 212 448L256 387C218 354 142 313 79 289ZM64 874L131 917C177 827 229 711 269 610L210 568C165 676 106 800 64 874ZM589 383L492 383 516 373C507 348 483 312 459 284 501 281 545 277 589 273ZM795 264C779 297 751 347 729 377L742 383 658 383 658 265C725 256 788 245 838 232L795 182C705 207 537 226 401 236 408 250 415 272 418 286L429 285 396 298C417 324 438 357 450 383L300 383 300 444 522 444C453 506 351 562 264 591 280 605 300 629 310 646 329 638 350 629 370 619L370 929 438 929 438 898 817 898 817 927 887 927 887 622 926 638C936 621 957 596 972 583 886 556 792 503 728 444L954 444 954 383 796 383C816 356 838 323 858 290ZM590 772L590 843 438 843 438 772ZM657 772L817 772 817 843 657 843ZM590 722L438 722 438 654 590 654ZM657 722L657 654 817 654 817 722ZM589 460L589 586 658 586 658 455C707 510 774 562 844 600L405 600C472 562 539 512 589 460ZM313 98L313 245 381 245 381 158 875 158 875 244 946 244 946 98 659 98 659 10 586 10 586 98Z"/>
</svg>