<svg xmlns="http://www.w3.org/2000/svg"
    viewBox="0 0 1000 1000">
  <!--
© 2014-2021 Adobe (http://www.adobe.com/).
Noto is a trademark of Google Inc.
This Font Software is licensed under the SIL Open Font License, Version 1.1. This Font Software is distributed on an "AS IS" BASIS, WITHOUT WARRANTIES OR CONDITIONS OF ANY KIND, either express or implied. See the SIL Open Font License for the specific language, permissions and limitations governing your use of this Font Software.
http://scripts.sil.org/OFL
  -->
<path d="M419 238L538 238 538 319 419 319ZM715 238L837 238 837 320 715 320ZM89 73C150 103 223 151 259 187L303 125C267 90 192 46 132 19ZM38 343C100 370 174 415 210 448L253 387C216 354 141 311 80 287ZM61 871L127 917C180 824 241 699 287 594L228 549C178 662 109 794 61 871ZM586 10L586 93 315 93 315 153 951 153 951 93 660 93 660 10ZM658 195L658 364 699 364 699 413 542 413 542 363 597 363 597 195 363 195 363 363 476 363 476 413 335 413 335 467 476 467 476 517 366 517 366 566 476 566 476 618 306 618 306 674 524 674C453 714 356 745 268 766 280 778 298 805 306 818 352 805 400 788 447 769L447 852 364 866 380 926C466 910 579 887 689 866L684 810 510 841 510 740C549 721 585 699 615 675 673 800 782 892 926 933 936 915 955 890 969 876 901 861 840 834 790 797 834 776 886 749 927 719L878 682C845 706 792 738 748 761 720 735 697 706 679 674L953 674 953 618 766 618 766 566 901 566 901 517 766 517 766 467 922 467 922 413 766 413 766 364 896 364 896 195ZM542 618L542 566 699 566 699 618ZM542 467L699 467 699 517 542 517Z"/>
</svg>