<svg xmlns="http://www.w3.org/2000/svg"
    viewBox="0 0 1000 1000">
  <!--
© 2014-2021 Adobe (http://www.adobe.com/).
Noto is a trademark of Google Inc.
This Font Software is licensed under the SIL Open Font License, Version 1.1. This Font Software is distributed on an "AS IS" BASIS, WITHOUT WARRANTIES OR CONDITIONS OF ANY KIND, either express or implied. See the SIL Open Font License for the specific language, permissions and limitations governing your use of this Font Software.
http://scripts.sil.org/OFL
  -->
<path d="M55 72C104 103 162 150 189 185L235 133C207 100 147 55 98 26ZM35 340C86 369 148 414 177 446L221 391C191 360 128 317 77 291ZM50 879L112 914C151 823 196 698 228 594L173 560C137 671 86 801 50 879ZM311 572L507 572 507 637 311 637ZM254 523L254 686 566 686 566 523ZM280 711C296 748 311 797 315 829L371 813C367 782 351 733 334 697ZM219 425L219 479 597 479 597 425ZM213 851L225 910C323 893 455 872 583 849L580 796 484 811C496 782 509 744 523 707L461 691C454 724 440 773 429 805L461 814C367 829 278 843 213 851ZM802 351C821 377 840 406 858 435L718 447C734 406 750 355 766 309L954 309 954 253 797 253 797 164 929 164 929 108 797 108 797 9 740 9 740 108 620 108 620 164 740 164 740 253 595 253 595 309 701 309C690 355 674 411 659 452L604 456 615 516 885 486C894 505 901 522 906 537L959 509C941 460 895 383 851 328ZM608 563L608 853 573 853 573 907 962 907 962 853 931 853 931 563ZM656 853L656 613 702 613 702 853ZM744 853L744 613 791 613 791 853ZM833 853L833 613 882 613 882 853ZM295 260L341 260 341 332 295 332ZM385 260L430 260 430 332 385 332ZM295 142L341 142 341 212 295 212ZM385 142L430 142 430 212 385 212ZM247 90L247 383 574 383 574 90 475 90 475 10 430 10 430 90 385 90 385 10 341 10 341 90ZM475 260L524 260 524 332 475 332ZM475 142L524 142 524 212 475 212Z"/>
</svg>