<svg xmlns="http://www.w3.org/2000/svg"
    viewBox="0 0 1000 1000">
  <!--
© 2014-2021 Adobe (http://www.adobe.com/).
Noto is a trademark of Google Inc.
This Font Software is licensed under the SIL Open Font License, Version 1.1. This Font Software is distributed on an "AS IS" BASIS, WITHOUT WARRANTIES OR CONDITIONS OF ANY KIND, either express or implied. See the SIL Open Font License for the specific language, permissions and limitations governing your use of this Font Software.
http://scripts.sil.org/OFL
  -->
<path d="M224 276L777 276 777 380 224 380ZM224 114L777 114 777 216 224 216ZM239 489C218 567 175 638 100 675L156 723C240 678 280 598 303 512ZM786 488C756 549 703 633 661 686L725 709C768 658 822 580 864 511ZM150 51L150 443 454 443C432 664 379 804 42 865 57 881 75 912 82 931 345 878 451 777 499 627 563 803 682 898 920 930 929 908 949 874 966 856 684 830 571 708 529 476L533 443 854 443 854 51Z"/>
</svg>