<svg xmlns="http://www.w3.org/2000/svg" name="gid8102" data-unicode="炅"
    viewBox="0 0 1000 1000">
  <!--
© 2014-2021 Adobe (http://www.adobe.com/).
Noto is a trademark of Google Inc.
This Font Software is licensed under the SIL Open Font License, Version 1.1. This Font Software is distributed on an "AS IS" BASIS, WITHOUT WARRANTIES OR CONDITIONS OF ANY KIND, either express or implied. See the SIL Open Font License for the specific language, permissions and limitations governing your use of this Font Software.
http://scripts.sil.org/OFL
  -->
<path d="M224 306L777 306 777 410 224 410ZM224 144L777 144 777 246 224 246ZM239 519C218 597 175 668 100 705L156 753C240 708 280 628 303 542ZM786 518C756 579 703 663 661 716L725 739C768 688 822 610 864 541ZM150 81L150 473 454 473C432 694 379 834 42 895 57 911 75 942 82 961 345 908 451 807 499 657 563 833 682 928 920 960 929 938 949 904 966 886 684 860 571 738 529 506L533 473 854 473 854 81Z"/>
</svg>