<svg xmlns="http://www.w3.org/2000/svg"
    viewBox="0 0 1000 1000">
  <!--
© 2014-2021 Adobe (http://www.adobe.com/).
Noto is a trademark of Google Inc.
This Font Software is licensed under the SIL Open Font License, Version 1.1. This Font Software is distributed on an "AS IS" BASIS, WITHOUT WARRANTIES OR CONDITIONS OF ANY KIND, either express or implied. See the SIL Open Font License for the specific language, permissions and limitations governing your use of this Font Software.
http://scripts.sil.org/OFL
  -->
<path d="M95 216C92 307 75 405 36 458L89 485C132 423 148 318 149 224ZM346 182C329 244 295 335 269 390L316 413C342 366 372 295 400 231L598 231C569 289 530 358 494 411L441 371 396 423C470 478 558 556 610 615 559 686 506 754 458 809L374 812 383 887C509 880 691 871 868 860 882 887 894 913 902 935L968 897C940 821 866 707 798 622L737 655C770 697 802 745 831 793L542 806C648 681 770 511 859 372L789 337C753 402 705 477 654 552 625 520 585 485 544 450 589 390 640 307 682 238L668 231 957 231 957 161 704 161 704 14 630 14 630 161 388 161 388 199ZM192 15L192 357C192 543 176 735 34 884 51 895 77 917 89 933 167 851 210 756 234 656 273 705 321 768 343 803L397 747C375 720 285 614 248 575 258 504 260 430 260 357L260 15Z"/>
</svg>