<svg xmlns="http://www.w3.org/2000/svg" name="gid8123" data-unicode="炱"
    viewBox="0 0 1000 1000">
  <!--
© 2014-2021 Adobe (http://www.adobe.com/).
Noto is a trademark of Google Inc.
This Font Software is licensed under the SIL Open Font License, Version 1.1. This Font Software is distributed on an "AS IS" BASIS, WITHOUT WARRANTIES OR CONDITIONS OF ANY KIND, either express or implied. See the SIL Open Font License for the specific language, permissions and limitations governing your use of this Font Software.
http://scripts.sil.org/OFL
  -->
<path d="M224 588C205 661 164 728 93 765L150 805C228 764 265 690 288 610ZM799 581C771 637 720 714 681 762L744 787C784 741 834 671 873 608ZM241 374L751 374 751 478 241 478ZM169 312L169 538 828 538 828 312ZM455 552C431 746 369 856 38 903 51 918 67 946 73 964 342 921 450 835 499 695 566 855 691 933 923 961 932 941 950 912 964 895 695 874 573 779 528 575L531 552ZM365 39C339 84 296 143 256 190L70 192 74 258 797 240C833 268 864 294 887 318L943 274C881 212 755 127 647 76L592 114C632 133 674 157 714 183L346 189C380 150 416 107 447 67Z"/>
</svg>