<svg xmlns="http://www.w3.org/2000/svg"
    viewBox="0 0 1000 1000">
  <!--
© 2014-2021 Adobe (http://www.adobe.com/).
Noto is a trademark of Google Inc.
This Font Software is licensed under the SIL Open Font License, Version 1.1. This Font Software is distributed on an "AS IS" BASIS, WITHOUT WARRANTIES OR CONDITIONS OF ANY KIND, either express or implied. See the SIL Open Font License for the specific language, permissions and limitations governing your use of this Font Software.
http://scripts.sil.org/OFL
  -->
<path d="M87 213C82 293 64 396 37 458L93 481C121 411 138 302 142 221ZM350 194C334 256 302 346 277 402L324 424C352 370 385 287 412 218ZM192 13L192 355C192 538 177 730 39 877 56 889 81 914 93 931 170 850 213 757 236 658 276 710 328 781 350 819L401 765C379 736 281 611 251 579 262 506 264 430 264 355L264 13ZM392 68L392 140 573 140C532 308 454 495 335 612 350 625 373 652 384 668 421 632 454 589 484 544L484 921 556 921 556 859 842 859 842 916 915 916 915 411 557 411C597 323 629 230 653 140L960 140 960 68ZM556 788L556 482 842 482 842 788Z"/>
</svg>