<svg xmlns="http://www.w3.org/2000/svg" name="gid8136" data-unicode="烓"
    viewBox="0 0 1000 1000">
  <!--
© 2014-2021 Adobe (http://www.adobe.com/).
Noto is a trademark of Google Inc.
This Font Software is licensed under the SIL Open Font License, Version 1.1. This Font Software is distributed on an "AS IS" BASIS, WITHOUT WARRANTIES OR CONDITIONS OF ANY KIND, either express or implied. See the SIL Open Font License for the specific language, permissions and limitations governing your use of this Font Software.
http://scripts.sil.org/OFL
  -->
<path d="M378 214C358 276 317 367 285 422L335 447C368 394 410 311 445 242ZM101 242C97 333 76 431 34 484L87 512C133 449 153 345 157 251ZM646 40L646 183 462 183 462 251 646 251 646 404 418 404 418 471 952 471 952 404 721 404 721 251 917 251 917 183 721 183 721 40ZM646 492L646 619 441 619 441 687 646 687 646 857 368 857 368 926 966 926 966 857 721 857 721 687 929 687 929 619 721 619 721 492ZM210 53L210 384C210 565 193 754 33 896 49 908 74 933 85 949 180 865 229 766 254 660 302 712 363 783 390 820L441 766C414 737 311 627 268 586 278 520 280 452 280 384L280 53Z"/>
</svg>