<svg xmlns="http://www.w3.org/2000/svg" name="gid8145" data-unicode="烤"
    viewBox="0 0 1000 1000">
  <!--
© 2014-2021 Adobe (http://www.adobe.com/).
Noto is a trademark of Google Inc.
This Font Software is licensed under the SIL Open Font License, Version 1.1. This Font Software is distributed on an "AS IS" BASIS, WITHOUT WARRANTIES OR CONDITIONS OF ANY KIND, either express or implied. See the SIL Open Font License for the specific language, permissions and limitations governing your use of this Font Software.
http://scripts.sil.org/OFL
  -->
<path d="M96 244C92 334 74 432 34 486L86 511C130 449 147 344 150 251ZM339 213C323 275 291 366 266 421L312 444C341 391 374 307 403 239ZM876 61C854 106 829 149 801 191L801 152 646 152 646 43 574 43 574 152 415 152 415 218 574 218 574 340 375 340 375 408 614 408C531 484 437 549 336 598 350 612 373 642 382 658 430 632 476 603 521 572 509 636 495 703 482 751L550 760 560 718 819 718C806 824 791 870 773 886 764 894 754 896 737 896 718 896 670 895 621 890 633 909 641 938 643 959 692 962 740 962 765 961 794 958 813 953 832 935 860 908 878 841 896 686 897 676 899 654 899 654L573 654 590 563 880 563 880 500 613 500C647 471 680 440 711 408L962 408 962 340 772 340C838 263 895 177 942 84ZM646 218L782 218C752 261 719 302 683 340L646 340ZM194 53L194 390C194 573 178 763 31 908 46 919 70 943 80 959 164 878 209 784 234 684 271 734 319 801 340 836L392 784C370 755 279 640 249 605 259 535 261 462 261 390L261 53Z"/>
</svg>