<svg xmlns="http://www.w3.org/2000/svg" name="gid8147" data-unicode="烱"
    viewBox="0 0 1000 1000">
  <!--
© 2014-2021 Adobe (http://www.adobe.com/).
Noto is a trademark of Google Inc.
This Font Software is licensed under the SIL Open Font License, Version 1.1. This Font Software is distributed on an "AS IS" BASIS, WITHOUT WARRANTIES OR CONDITIONS OF ANY KIND, either express or implied. See the SIL Open Font License for the specific language, permissions and limitations governing your use of this Font Software.
http://scripts.sil.org/OFL
  -->
<path d="M93 246C91 337 74 435 35 488L87 515C131 453 147 348 148 254ZM605 526L730 526 730 703 605 703ZM551 469L551 819 605 819 605 759 783 759 783 469ZM343 209C326 272 292 362 266 418L313 441C341 390 375 310 404 243L404 960 473 960 473 410C485 416 503 433 510 443 601 383 620 296 620 226L620 149 695 149 695 321C695 375 710 386 764 386 774 386 837 386 847 386L857 386 857 873C857 888 852 893 838 893 824 893 776 894 725 892 735 911 745 942 748 961 821 961 864 960 891 947 918 936 928 915 928 873L928 85 404 85 404 235ZM857 335C856 338 852 339 839 339 827 339 778 339 769 339 749 339 746 337 746 320L746 149 857 149ZM571 149L571 224C571 285 556 354 473 408L473 149ZM192 46L192 386C192 570 176 762 32 909 49 920 72 945 83 961 164 880 208 787 233 689 272 738 322 802 343 837L396 783C373 756 284 649 248 612 259 538 261 462 261 386L261 46Z"/>
</svg>