<svg xmlns="http://www.w3.org/2000/svg"
    viewBox="0 0 1000 1000">
  <!--
© 2014-2021 Adobe (http://www.adobe.com/).
Noto is a trademark of Google Inc.
This Font Software is licensed under the SIL Open Font License, Version 1.1. This Font Software is distributed on an "AS IS" BASIS, WITHOUT WARRANTIES OR CONDITIONS OF ANY KIND, either express or implied. See the SIL Open Font License for the specific language, permissions and limitations governing your use of this Font Software.
http://scripts.sil.org/OFL
  -->
<path d="M183 698C163 776 119 848 44 888L103 932C186 886 226 805 249 721ZM331 725C354 787 371 870 374 921L445 904C442 854 422 773 398 712ZM522 728C564 788 606 868 622 919L690 892C674 841 628 763 586 706ZM721 730C788 789 863 875 895 931L962 892C927 835 849 753 783 695ZM342 489L787 489 787 612 342 612ZM158 37L158 95 410 95C404 121 397 146 389 170L57 170 57 228 368 228C358 255 346 280 332 304L151 304 151 361 296 361C233 449 148 515 36 562 51 577 76 608 85 624 156 590 218 550 270 501L270 670 862 670 862 430 336 430C353 408 369 385 384 361L822 361 822 228 937 228 937 170 822 170 822 37ZM448 228L746 228 746 304 415 304C427 280 438 255 448 228ZM467 170C475 146 482 121 488 95L746 95 746 170Z"/>
</svg>