<svg xmlns="http://www.w3.org/2000/svg" name="gid8163" data-unicode="焚"
    viewBox="0 0 1000 1000">
  <!--
© 2014-2021 Adobe (http://www.adobe.com/).
Noto is a trademark of Google Inc.
This Font Software is licensed under the SIL Open Font License, Version 1.1. This Font Software is distributed on an "AS IS" BASIS, WITHOUT WARRANTIES OR CONDITIONS OF ANY KIND, either express or implied. See the SIL Open Font License for the specific language, permissions and limitations governing your use of this Font Software.
http://scripts.sil.org/OFL
  -->
<path d="M227 575C209 650 170 717 98 752L150 796C233 753 269 677 289 594ZM787 571C758 626 704 703 663 750L726 775C767 729 819 660 860 598ZM238 40L238 164 57 164 57 230 208 230C165 318 98 406 32 451 47 463 69 486 80 502 137 456 195 378 238 294L238 536 307 536 307 320C347 354 396 397 416 419L457 366C436 346 343 281 307 258L307 230 462 230 462 164 307 164 307 40ZM667 40L667 164 497 164 497 230 627 230C583 314 513 394 442 434 457 446 478 470 489 487 555 441 621 362 667 274L667 536 738 536 738 267C784 357 851 443 918 491 930 473 952 449 967 436 897 395 826 314 781 230L946 230 946 164 738 164 738 40ZM455 530C433 736 375 850 38 898 51 913 68 943 74 961 341 919 450 833 499 695 565 855 689 935 921 963 931 942 949 911 964 895 693 871 573 774 528 566L533 530Z"/>
</svg>