<svg xmlns="http://www.w3.org/2000/svg"
    viewBox="0 0 1000 1000">
  <!--
© 2014-2021 Adobe (http://www.adobe.com/).
Noto is a trademark of Google Inc.
This Font Software is licensed under the SIL Open Font License, Version 1.1. This Font Software is distributed on an "AS IS" BASIS, WITHOUT WARRANTIES OR CONDITIONS OF ANY KIND, either express or implied. See the SIL Open Font License for the specific language, permissions and limitations governing your use of this Font Software.
http://scripts.sil.org/OFL
  -->
<path d="M227 545C209 620 170 687 98 722L150 766C233 723 269 647 289 564ZM787 541C758 596 704 673 663 720L726 745C767 699 819 630 860 568ZM238 10L238 134 57 134 57 200 208 200C165 288 98 376 32 421 47 433 69 456 80 472 137 426 195 348 238 264L238 506 307 506 307 290C347 324 396 367 416 389L457 336C436 316 343 251 307 228L307 200 462 200 462 134 307 134 307 10ZM667 10L667 134 497 134 497 200 627 200C583 284 513 364 442 404 457 416 478 440 489 457 555 411 621 332 667 244L667 506 738 506 738 237C784 327 851 413 918 461 930 443 952 419 967 406 897 365 826 284 781 200L946 200 946 134 738 134 738 10ZM455 500C433 706 375 820 38 868 51 883 68 913 74 931 341 889 450 803 499 665 565 825 689 905 921 933 931 912 949 881 964 865 693 841 573 744 528 536L533 500Z"/>
</svg>