<svg xmlns="http://www.w3.org/2000/svg" name="gid8165" data-unicode="焞"
    viewBox="0 0 1000 1000">
  <!--
© 2014-2021 Adobe (http://www.adobe.com/).
Noto is a trademark of Google Inc.
This Font Software is licensed under the SIL Open Font License, Version 1.1. This Font Software is distributed on an "AS IS" BASIS, WITHOUT WARRANTIES OR CONDITIONS OF ANY KIND, either express or implied. See the SIL Open Font License for the specific language, permissions and limitations governing your use of this Font Software.
http://scripts.sil.org/OFL
  -->
<path d="M97 244C92 334 74 432 34 486L87 512C131 449 148 345 151 251ZM355 213C338 276 305 366 278 421L325 445C354 391 390 308 419 240ZM528 314L816 314 816 407 528 407ZM460 257L460 464 887 464 887 257ZM201 53L201 390C201 574 184 764 33 909 50 921 73 945 84 961 168 880 214 787 239 689 278 738 326 804 347 839L400 786C379 759 290 648 255 611 266 538 269 464 269 390L269 53ZM635 40L635 138 405 138 405 200 955 200 955 138 706 138 706 40ZM635 638L635 700 391 700 391 764 635 764 635 883C635 895 631 898 617 898 603 900 557 900 503 898 513 917 523 943 526 962 594 962 640 962 670 952 700 941 706 923 706 885L706 764 961 764 961 700 706 700 706 679C769 646 838 599 886 551L843 517 829 521 450 521 450 580 762 580C735 601 704 622 674 638Z"/>
</svg>