<svg xmlns="http://www.w3.org/2000/svg" name="gid8168" data-unicode="焦"
    viewBox="0 0 1000 1000">
  <!--
© 2014-2021 Adobe (http://www.adobe.com/).
Noto is a trademark of Google Inc.
This Font Software is licensed under the SIL Open Font License, Version 1.1. This Font Software is distributed on an "AS IS" BASIS, WITHOUT WARRANTIES OR CONDITIONS OF ANY KIND, either express or implied. See the SIL Open Font License for the specific language, permissions and limitations governing your use of this Font Software.
http://scripts.sil.org/OFL
  -->
<path d="M345 767C358 826 365 904 366 951L439 941C438 895 427 819 414 760ZM549 767C575 826 600 904 610 952L684 936C674 889 646 812 619 754ZM753 760C803 822 860 908 885 962L959 935C933 881 874 797 824 737ZM170 741C146 813 100 889 49 932L117 962C171 914 215 834 242 759ZM261 242L506 242 506 331 260 331 260 243ZM576 43C561 82 535 135 511 178L302 178C325 140 345 101 363 62L285 38C228 170 132 296 29 376 48 389 80 417 93 432 124 405 155 374 185 340L185 702 939 702 939 637 580 637 580 544 854 544 854 483 580 483 580 391 851 391 851 331 580 331 580 242 911 242 911 178 594 178C616 143 638 103 659 65ZM506 391L506 483 260 483 260 391ZM506 544L506 637 260 637 260 544Z"/>
</svg>