<svg xmlns="http://www.w3.org/2000/svg" name="gid8171" data-unicode="焮"
    viewBox="0 0 1000 1000">
  <!--
© 2014-2021 Adobe (http://www.adobe.com/).
Noto is a trademark of Google Inc.
This Font Software is licensed under the SIL Open Font License, Version 1.1. This Font Software is distributed on an "AS IS" BASIS, WITHOUT WARRANTIES OR CONDITIONS OF ANY KIND, either express or implied. See the SIL Open Font License for the specific language, permissions and limitations governing your use of this Font Software.
http://scripts.sil.org/OFL
  -->
<path d="M85 249C85 341 71 438 33 491L78 521C122 460 135 354 135 255ZM291 201C278 267 252 365 230 424L275 442C298 386 326 294 350 222ZM360 122L360 466C360 558 357 669 331 771 312 743 241 636 217 606 225 536 227 465 227 394L227 52 165 52 165 394C165 576 152 764 35 912 49 923 72 944 82 958 148 877 184 785 204 688 232 734 267 792 282 823L330 775C317 823 300 870 275 911 291 919 315 940 324 953 411 809 422 609 422 467L422 408 507 408 507 957 570 957 570 408 631 408 631 340 422 340 422 200C491 171 567 134 626 95L570 41C534 72 475 108 418 138ZM703 41C688 214 663 389 611 501 626 508 655 522 667 531 694 468 715 388 731 300L758 300 758 462C758 560 737 773 584 921 600 931 622 949 633 962 720 871 768 754 793 653 814 761 854 884 929 961 939 944 963 914 976 901 871 808 832 629 817 492L818 462 818 300 898 300C890 371 877 450 863 501L912 516C934 447 952 336 963 244L923 234 913 236 742 236C751 176 758 113 764 49Z"/>
</svg>