<svg xmlns="http://www.w3.org/2000/svg" name="gid8172" data-unicode="焯"
    viewBox="0 0 1000 1000">
  <!--
© 2014-2021 Adobe (http://www.adobe.com/).
Noto is a trademark of Google Inc.
This Font Software is licensed under the SIL Open Font License, Version 1.1. This Font Software is distributed on an "AS IS" BASIS, WITHOUT WARRANTIES OR CONDITIONS OF ANY KIND, either express or implied. See the SIL Open Font License for the specific language, permissions and limitations governing your use of this Font Software.
http://scripts.sil.org/OFL
  -->
<path d="M484 489L837 489 837 581 484 581ZM484 340L837 340 837 431 484 431ZM85 245C80 324 65 427 41 489L98 512C124 442 139 333 142 252ZM341 215C325 278 293 368 268 424L314 445C342 392 375 308 404 240ZM412 280L412 641 616 641 616 728 356 728 356 795 616 795 616 960 690 960 690 795 962 795 962 728 690 728 690 641 911 641 911 280 689 280 689 194 949 194 949 129 689 129 689 40 615 40 615 280ZM188 45L188 387C188 571 173 762 34 910 51 921 76 946 87 963 162 886 204 797 228 703 257 748 289 802 304 833L356 780C341 755 275 658 245 618 257 542 259 464 259 387L259 45Z"/>
</svg>