<svg xmlns="http://www.w3.org/2000/svg" name="gid8177" data-unicode="焼"
    viewBox="0 0 1000 1000">
  <!--
© 2014-2021 Adobe (http://www.adobe.com/).
Noto is a trademark of Google Inc.
This Font Software is licensed under the SIL Open Font License, Version 1.1. This Font Software is distributed on an "AS IS" BASIS, WITHOUT WARRANTIES OR CONDITIONS OF ANY KIND, either express or implied. See the SIL Open Font License for the specific language, permissions and limitations governing your use of this Font Software.
http://scripts.sil.org/OFL
  -->
<path d="M92 246C90 337 73 435 34 488L85 514C128 452 144 348 145 253ZM341 209C325 272 293 362 268 418L314 439C342 386 375 302 403 234ZM768 267L768 387 551 387 551 267 482 267 482 387 365 387 365 452 482 452 482 577 366 577 366 642 521 642C511 784 477 860 323 902 337 915 356 942 363 958 538 905 580 811 592 642L705 642 705 863C705 933 722 954 794 954 808 954 873 954 888 954 945 954 964 924 971 807 952 802 923 791 908 780 906 876 901 890 880 890 866 890 814 890 804 890 781 890 776 887 776 863L776 642 957 642 957 577 839 577 839 452 958 452 958 387 839 387 839 267ZM551 452L768 452 768 577 551 577ZM623 40L623 145 404 145 404 210 623 210 623 325 695 325 695 210 921 210 921 145 695 145 695 40ZM189 49L189 389C189 573 174 763 35 909 51 921 75 945 86 961 164 880 207 787 230 688 268 736 315 798 335 832L386 778C365 752 278 647 244 611 255 538 257 464 257 390L257 49Z"/>
</svg>