<svg xmlns="http://www.w3.org/2000/svg"
    viewBox="0 0 1000 1000">
  <!--
© 2014-2021 Adobe (http://www.adobe.com/).
Noto is a trademark of Google Inc.
This Font Software is licensed under the SIL Open Font License, Version 1.1. This Font Software is distributed on an "AS IS" BASIS, WITHOUT WARRANTIES OR CONDITIONS OF ANY KIND, either express or implied. See the SIL Open Font License for the specific language, permissions and limitations governing your use of this Font Software.
http://scripts.sil.org/OFL
  -->
<path d="M96 214C92 304 74 402 34 456L86 481C130 419 147 314 150 221ZM339 186C322 248 290 338 265 394L312 416C340 364 373 280 402 211ZM194 23L194 360C194 543 178 733 31 878 46 889 69 913 80 928 163 847 208 753 233 654 270 704 317 771 338 806L390 754C368 725 278 610 248 575 258 505 260 432 260 360L260 23ZM626 238L626 321 429 321 429 555 357 555 357 622 613 622C588 718 520 815 334 881 350 894 371 919 380 934 543 871 623 786 661 695 713 812 799 891 928 932 938 913 957 887 973 873 833 837 744 749 701 622L961 622 961 555 899 555 899 321 696 321 696 238ZM496 555L496 387 626 387 626 493C626 513 626 534 624 555ZM830 555L694 555C695 534 696 513 696 493L696 387 830 387ZM743 10L743 108 579 108 579 10 513 10 513 108 378 108 378 174 513 174 513 271 579 271 579 174 743 174 743 269 810 269 810 174 953 174 953 108 810 108 810 10Z"/>
</svg>