<svg xmlns="http://www.w3.org/2000/svg" name="gid8194" data-unicode="煙"
    viewBox="0 0 1000 1000">
  <!--
© 2014-2021 Adobe (http://www.adobe.com/).
Noto is a trademark of Google Inc.
This Font Software is licensed under the SIL Open Font License, Version 1.1. This Font Software is distributed on an "AS IS" BASIS, WITHOUT WARRANTIES OR CONDITIONS OF ANY KIND, either express or implied. See the SIL Open Font License for the specific language, permissions and limitations governing your use of this Font Software.
http://scripts.sil.org/OFL
  -->
<path d="M85 244C80 325 65 426 37 487L86 513C115 444 131 334 134 251ZM291 223C280 283 256 375 236 430L278 445C299 393 325 308 348 241ZM361 252L361 534 929 534 929 252 768 252 768 159 948 159 948 93 336 93 336 159 520 159 520 252ZM590 159L698 159 698 252 590 252ZM607 549L607 655 372 655 372 719 607 719 607 864 307 864 307 930 961 930 961 864 682 864 682 719 917 719 917 655 682 655 682 549ZM425 315L526 315 526 471 425 471ZM589 315L698 315 698 471 589 471ZM761 315L860 315 860 471 761 471ZM170 51L170 402C170 583 157 767 35 911 49 922 72 944 82 959 148 883 185 796 206 705 236 756 274 823 290 858L337 810C320 781 246 661 220 625 230 552 232 477 232 401L232 51Z"/>
</svg>