<svg xmlns="http://www.w3.org/2000/svg" name="gid8201" data-unicode="煥"
    viewBox="0 0 1000 1000">
  <!--
© 2014-2021 Adobe (http://www.adobe.com/).
Noto is a trademark of Google Inc.
This Font Software is licensed under the SIL Open Font License, Version 1.1. This Font Software is distributed on an "AS IS" BASIS, WITHOUT WARRANTIES OR CONDITIONS OF ANY KIND, either express or implied. See the SIL Open Font License for the specific language, permissions and limitations governing your use of this Font Software.
http://scripts.sil.org/OFL
  -->
<path d="M92 246C90 337 73 435 34 488L85 514C128 452 144 348 145 253ZM628 554C626 586 622 616 617 643L369 643 369 708 601 708C569 801 501 864 349 901 363 915 382 943 389 960 548 917 625 846 664 742 712 853 797 925 928 959 937 940 957 911 973 897 845 871 761 807 719 708L953 708 953 643 689 643C694 615 697 585 700 554ZM565 177L713 177C701 206 685 237 670 262L515 262C534 234 551 206 565 177ZM550 39C527 107 488 189 432 262L429 262 429 265C409 291 387 315 363 338 380 346 404 367 416 382L429 369 429 607 493 607 493 493C503 504 513 519 518 529 602 491 627 430 634 323L697 323 697 412C697 454 701 467 714 477 724 487 745 490 764 490 773 490 802 490 811 490 822 490 839 490 848 488L848 604 915 604 915 262 739 262C762 225 785 182 802 143L757 114 746 117 594 117C605 94 614 72 622 50ZM751 323L848 323 848 443 846 445C842 446 837 446 832 446 829 446 817 446 809 446 799 446 782 446 774 446 765 446 759 445 756 442 751 440 751 432 751 421ZM493 481L493 323 581 323C575 406 557 452 493 481ZM332 193C316 254 283 342 257 397L257 389 257 51 189 51 189 389C189 571 174 760 35 905 51 917 75 942 86 957 162 878 205 788 228 693 266 745 312 813 332 851L385 797C364 768 277 651 244 612 254 542 257 471 257 399L304 416C332 364 367 281 395 212Z"/>
</svg>