<svg xmlns="http://www.w3.org/2000/svg" name="gid8202" data-unicode="煦"
    viewBox="0 0 1000 1000">
  <!--
© 2014-2021 Adobe (http://www.adobe.com/).
Noto is a trademark of Google Inc.
This Font Software is licensed under the SIL Open Font License, Version 1.1. This Font Software is distributed on an "AS IS" BASIS, WITHOUT WARRANTIES OR CONDITIONS OF ANY KIND, either express or implied. See the SIL Open Font License for the specific language, permissions and limitations governing your use of this Font Software.
http://scripts.sil.org/OFL
  -->
<path d="M345 763C358 825 366 905 366 953L440 942C439 896 428 817 414 756ZM549 763C576 824 602 903 612 953L686 937C676 888 647 809 619 750ZM753 755C804 819 861 906 885 960L957 934C930 879 871 794 820 733ZM170 736C145 808 101 887 53 931L124 960C174 910 217 827 243 753ZM168 159L311 159 311 326 168 326ZM168 574L168 392 311 392 311 574ZM536 40C503 135 447 230 381 294L381 92 99 92 99 697 168 697 168 642 381 642 381 313C398 325 420 341 430 351 445 336 460 319 474 301L474 610 538 610 538 558 737 558 737 294 479 294C499 268 518 240 535 210L843 210C833 501 821 611 798 637 790 647 780 650 764 650 745 650 700 649 650 645 662 664 670 694 671 715 719 717 768 717 795 715 825 712 845 704 863 680 894 642 905 524 917 178 918 168 918 143 918 143L571 143C585 115 597 87 608 58ZM538 352L674 352 674 500 538 500Z"/>
</svg>