<svg xmlns="http://www.w3.org/2000/svg"
    viewBox="0 0 1000 1000">
  <!--
© 2014-2021 Adobe (http://www.adobe.com/).
Noto is a trademark of Google Inc.
This Font Software is licensed under the SIL Open Font License, Version 1.1. This Font Software is distributed on an "AS IS" BASIS, WITHOUT WARRANTIES OR CONDITIONS OF ANY KIND, either express or implied. See the SIL Open Font License for the specific language, permissions and limitations governing your use of this Font Software.
http://scripts.sil.org/OFL
  -->
<path d="M517 237L807 237 807 316 517 316ZM517 104L807 104 807 182 517 182ZM448 47L448 374 879 374 879 47ZM93 216C91 307 74 405 35 458L86 484C129 422 144 318 145 223ZM342 179C326 242 293 332 269 388L314 409C342 356 376 272 404 204ZM365 440L365 501 493 501C453 569 395 636 341 672 355 683 376 706 386 721 417 698 449 666 479 629L568 629C517 719 436 805 360 850 374 862 393 883 404 899 490 841 580 737 634 629L717 629C678 732 611 828 536 877 551 889 571 910 582 926 665 863 738 751 779 629L848 629C836 779 822 839 805 857 797 866 789 867 774 867 760 867 726 866 688 863 698 880 704 908 706 928 746 930 785 930 806 928 831 926 847 919 864 902 890 874 905 797 921 599 922 589 923 568 923 568L523 568C537 546 550 524 561 501L961 501 961 440ZM190 23L190 360C190 543 174 731 35 877 52 888 76 913 86 929 161 852 203 765 227 672 262 723 303 787 322 822L375 768C356 741 280 635 244 589 256 514 258 437 258 360L258 23Z"/>
</svg>