<svg xmlns="http://www.w3.org/2000/svg"
    viewBox="0 0 1000 1000">
  <!--
© 2014-2021 Adobe (http://www.adobe.com/).
Noto is a trademark of Google Inc.
This Font Software is licensed under the SIL Open Font License, Version 1.1. This Font Software is distributed on an "AS IS" BASIS, WITHOUT WARRANTIES OR CONDITIONS OF ANY KIND, either express or implied. See the SIL Open Font License for the specific language, permissions and limitations governing your use of this Font Software.
http://scripts.sil.org/OFL
  -->
<path d="M737 791C800 833 869 890 907 931L973 894C931 852 856 796 788 754ZM533 493L845 493 845 565 533 565ZM533 618L845 618 845 690 533 690ZM533 371L845 371 845 441 533 441ZM465 316L465 744 916 744 916 316ZM96 214C92 304 73 402 33 456L86 482C130 419 148 315 150 221ZM577 753C527 801 435 851 346 881 361 894 382 916 392 932 483 899 579 846 639 789ZM417 194L417 255 955 255 955 194 716 194 716 105 912 105 912 46 463 46 463 105 645 105 645 194ZM352 172C335 235 300 327 273 383L320 406C350 352 386 268 417 199ZM202 22L202 359C202 542 185 732 34 877 50 889 73 913 84 930 168 850 215 758 241 659 282 710 334 777 357 813L409 760C386 732 293 621 256 584 268 510 271 434 271 359L271 22Z"/>
</svg>