<svg xmlns="http://www.w3.org/2000/svg"
    viewBox="0 0 1000 1000">
  <!--
© 2014-2021 Adobe (http://www.adobe.com/).
Noto is a trademark of Google Inc.
This Font Software is licensed under the SIL Open Font License, Version 1.1. This Font Software is distributed on an "AS IS" BASIS, WITHOUT WARRANTIES OR CONDITIONS OF ANY KIND, either express or implied. See the SIL Open Font License for the specific language, permissions and limitations governing your use of this Font Software.
http://scripts.sil.org/OFL
  -->
<path d="M90 215C87 302 70 401 36 457L88 480C127 418 142 312 144 221ZM342 192C324 251 288 336 261 388L308 410C338 361 375 283 406 218ZM772 727C824 778 881 849 907 897L965 860C938 814 881 746 827 696ZM500 699C468 759 416 819 361 861 378 870 406 890 419 902 472 856 530 786 567 717ZM461 473L461 534 892 534 892 473ZM191 22L191 360C191 543 176 732 33 878 49 889 72 913 83 928 163 847 207 754 231 655 268 707 315 777 336 813L388 761C367 732 278 614 246 575 256 504 258 431 258 359L258 22ZM417 185L417 421 939 421 939 185 775 185 775 119 956 119 956 57 394 57 394 119 570 119 570 185ZM627 119L717 119 717 185 627 185ZM480 243L570 243 570 363 480 363ZM627 243L717 243 717 363 627 363ZM775 243L873 243 873 363 775 363ZM397 603L397 665 639 665 639 856C639 865 636 869 624 869 613 870 579 870 538 869 546 887 556 912 558 930 616 930 653 930 678 920 703 910 708 892 708 857L708 665 961 665 961 603Z"/>
</svg>