<svg xmlns="http://www.w3.org/2000/svg" name="gid8227" data-unicode="熢"
    viewBox="0 0 1000 1000">
  <!--
© 2014-2021 Adobe (http://www.adobe.com/).
Noto is a trademark of Google Inc.
This Font Software is licensed under the SIL Open Font License, Version 1.1. This Font Software is distributed on an "AS IS" BASIS, WITHOUT WARRANTIES OR CONDITIONS OF ANY KIND, either express or implied. See the SIL Open Font License for the specific language, permissions and limitations governing your use of this Font Software.
http://scripts.sil.org/OFL
  -->
<path d="M87 249C86 341 71 438 34 491L81 521C124 459 138 353 138 256ZM300 192C286 254 258 346 235 401L279 419C304 367 334 281 360 213ZM322 347C363 383 409 434 428 470L480 427C459 393 411 344 371 309ZM341 112C382 148 430 200 451 235L501 192C479 157 431 108 389 74ZM169 54L169 395C169 577 156 764 33 912 48 923 72 946 83 962 150 882 188 792 210 696 238 741 272 797 288 828L339 776C322 751 251 648 224 613 233 542 235 469 235 396L235 54ZM550 607L550 658 686 658 686 720 510 720 510 773 686 773 686 852 750 852 750 773 933 773 933 720 750 720 750 658 896 658 896 607 750 607 750 548 912 548 912 496 750 496 750 425 686 425 686 496 533 496 533 548 686 548 686 607ZM642 186L799 186C779 226 751 262 719 294 685 264 656 231 634 196ZM653 38C615 131 548 218 474 276 489 286 514 308 524 319 549 297 574 272 597 244 619 276 645 306 674 334 616 378 549 411 481 431 494 443 511 467 518 482 590 458 660 422 721 374 780 418 848 453 921 474 931 457 950 432 964 419 893 402 826 371 768 332 818 281 859 219 885 145L843 127 832 130 677 130C691 105 703 80 714 54ZM466 546L306 546 306 610 400 610 400 783C366 822 326 861 294 891L329 955C368 912 403 873 435 833 478 899 540 940 633 945 716 948 867 946 951 943 953 923 963 892 971 876 881 882 716 885 635 882 555 878 497 839 466 777Z"/>
</svg>