<svg xmlns="http://www.w3.org/2000/svg" name="gid8245" data-unicode="燉"
    viewBox="0 0 1000 1000">
  <!--
© 2014-2021 Adobe (http://www.adobe.com/).
Noto is a trademark of Google Inc.
This Font Software is licensed under the SIL Open Font License, Version 1.1. This Font Software is distributed on an "AS IS" BASIS, WITHOUT WARRANTIES OR CONDITIONS OF ANY KIND, either express or implied. See the SIL Open Font License for the specific language, permissions and limitations governing your use of this Font Software.
http://scripts.sil.org/OFL
  -->
<path d="M427 316L562 316 562 416 427 416ZM370 266L370 466 623 466 623 266ZM87 251C86 343 71 440 34 493L81 523C124 461 138 355 138 258ZM295 215C283 275 259 364 238 417L283 434C306 384 332 301 356 235ZM333 151L333 212 661 212 661 151 529 151 529 40 461 40 461 151ZM169 51L169 394C169 575 156 763 33 911 48 922 73 945 84 961 150 883 188 794 209 700 238 750 273 812 289 845L340 795 330 778 461 765 461 891C461 900 458 903 447 904 436 904 401 904 363 903 372 920 380 944 384 961 439 961 475 960 498 950 522 941 528 925 528 892L528 759 669 744 669 686 528 699 528 673C566 639 610 593 641 549L602 518 587 521 346 521 346 579 541 579C526 600 508 622 491 640L461 640 461 705 311 718 319 760C290 715 244 643 224 614 233 542 235 467 235 393L235 51ZM856 299C847 410 831 509 804 595 780 508 763 411 751 310L754 299ZM729 40C711 209 680 375 618 482 632 494 658 521 667 534 684 505 699 473 712 438 726 527 744 612 768 687 725 780 665 855 582 912 598 923 621 947 631 962 702 911 757 847 798 770 831 849 872 914 924 961 935 944 958 919 974 907 915 858 869 784 835 692 879 582 904 450 917 299L962 299 962 232 768 232C780 173 789 111 796 49Z"/>
</svg>