<svg xmlns="http://www.w3.org/2000/svg" name="gid8268" data-unicode="燵"
    viewBox="0 0 1000 1000">
  <!--
© 2014-2021 Adobe (http://www.adobe.com/).
Noto is a trademark of Google Inc.
This Font Software is licensed under the SIL Open Font License, Version 1.1. This Font Software is distributed on an "AS IS" BASIS, WITHOUT WARRANTIES OR CONDITIONS OF ANY KIND, either express or implied. See the SIL Open Font License for the specific language, permissions and limitations governing your use of this Font Software.
http://scripts.sil.org/OFL
  -->
<path d="M355 95C392 129 435 177 455 210L505 172C484 140 440 95 403 62ZM331 325C371 357 419 402 440 433L488 391C465 361 417 318 377 289ZM89 248C88 340 73 437 35 490L82 520C125 459 139 352 140 255ZM572 327C590 359 609 403 616 434L513 434 513 488 697 488 697 554 538 554 538 609 697 609 697 682 505 682 505 737 697 737 697 860 767 860 767 737 956 737 956 682 767 682 767 609 923 609 923 554 767 554 767 488 952 488 952 434 830 434C851 405 878 364 901 323L851 307 953 307 953 251 767 251 767 174 928 174 928 119 767 119 767 39 697 39 697 119 540 119 540 174 697 174 697 251 507 251 507 307 836 307C823 342 798 389 778 419L820 434 631 434 676 418C667 388 648 343 626 309ZM483 514L321 514 321 575 421 575 421 788C379 826 332 863 293 892L326 956C372 915 414 878 454 839 499 904 565 942 657 946 733 949 872 948 949 944 952 924 961 894 969 878 886 884 734 886 660 884 579 880 516 844 483 783ZM301 195C287 255 260 344 236 399L236 391 236 48 169 48 169 391C169 573 156 762 34 910 49 921 73 944 84 960 151 880 189 790 210 694 240 740 276 798 293 829L343 778C326 752 252 647 224 613 233 544 236 475 236 405L279 423C304 370 335 284 361 216Z"/>
</svg>