<svg xmlns="http://www.w3.org/2000/svg" name="gid8275" data-unicode="爀"
    viewBox="0 0 1000 1000">
  <!--
© 2014-2021 Adobe (http://www.adobe.com/).
Noto is a trademark of Google Inc.
This Font Software is licensed under the SIL Open Font License, Version 1.1. This Font Software is distributed on an "AS IS" BASIS, WITHOUT WARRANTIES OR CONDITIONS OF ANY KIND, either express or implied. See the SIL Open Font License for the specific language, permissions and limitations governing your use of this Font Software.
http://scripts.sil.org/OFL
  -->
<path d="M327 496C313 563 290 630 256 678 269 685 291 701 300 710 335 659 363 582 379 506ZM75 250C75 341 63 438 27 492L72 521C112 459 125 352 124 256ZM638 507C634 541 629 573 622 603 613 571 599 534 584 503L544 520 544 425 613 425 613 359 506 359 506 237 603 237 603 173 506 173 506 47 440 47 440 173 339 173 339 237 440 237 440 359 310 359 310 425 392 425C387 646 370 826 264 925 278 934 296 952 304 964 419 854 439 662 445 425L492 425 492 891C492 901 489 903 480 904 471 904 441 904 407 903 414 919 422 944 424 958 469 958 500 957 520 948 540 938 544 922 544 891L544 522C563 566 580 622 587 659L609 650C598 680 585 708 568 731 581 738 600 753 608 761 650 701 675 611 687 515ZM647 173L647 237 754 237 754 359 632 359 632 425 704 425C700 657 684 826 582 923 595 931 614 949 622 962 733 856 752 674 756 425L806 425 806 892C806 902 804 905 793 905 783 906 752 906 714 905 722 922 729 945 731 960 780 960 814 959 834 949 854 940 860 923 860 892L860 425 960 425 960 359 821 359 821 237 935 237 935 173 821 173 821 47 754 47 754 173ZM860 518C886 589 914 684 923 746L971 726C961 665 932 571 904 499ZM272 202C261 265 240 355 221 414L221 408 221 54 158 54 158 408C158 588 145 769 31 913 46 923 69 946 79 961 142 883 178 795 197 702 224 751 254 810 268 843L314 786C300 760 239 655 212 613 219 550 221 485 221 421L261 436C282 381 307 291 330 221Z"/>
</svg>