<svg xmlns="http://www.w3.org/2000/svg"
    viewBox="0 0 1000 1000">
  <!--
© 2014-2021 Adobe (http://www.adobe.com/).
Noto is a trademark of Google Inc.
This Font Software is licensed under the SIL Open Font License, Version 1.1. This Font Software is distributed on an "AS IS" BASIS, WITHOUT WARRANTIES OR CONDITIONS OF ANY KIND, either express or implied. See the SIL Open Font License for the specific language, permissions and limitations governing your use of this Font Software.
http://scripts.sil.org/OFL
  -->
<path d="M611 584L611 861C611 871 607 874 595 875 584 876 545 876 501 874 510 890 522 914 526 929 586 930 623 930 647 920 672 911 678 895 678 862L678 584ZM692 784C766 817 845 862 891 897L934 853C884 818 802 775 727 743ZM330 838L356 892C421 864 498 829 573 794L561 747C476 782 389 817 330 838ZM462 198L831 198 831 259 462 259ZM462 90L831 90 831 150 462 150ZM96 215C93 307 77 404 38 458L86 489C131 426 147 321 148 223ZM326 176C311 239 280 332 257 389L301 409C328 355 360 270 387 200ZM717 427L717 499 564 499 564 427ZM717 371L564 371 564 311 717 311ZM395 39L395 311 496 311 496 371 368 371 368 427 496 427 496 499 332 499 332 555 488 555C442 603 374 650 315 674 330 686 350 709 360 724 390 709 423 687 454 662 479 687 505 720 517 742L566 710C552 686 522 652 495 628L493 630C518 606 542 580 560 555L744 555C757 577 775 599 794 619 775 645 742 684 717 708L759 734C781 715 808 688 833 658 865 687 899 712 932 729 943 714 963 691 977 680 916 655 851 606 808 555L958 555 958 499 787 499 787 427 926 427 926 371 787 371 787 311 900 311 900 39ZM184 21L184 362C184 545 170 734 39 881 55 892 78 916 89 931 162 850 202 758 225 661 259 709 300 771 319 805L369 753C350 726 270 619 239 582 249 510 251 436 251 362L251 21Z"/>
</svg>