<svg xmlns="http://www.w3.org/2000/svg" name="gid8277" data-unicode="爇"
    viewBox="0 0 1000 1000">
  <!--
© 2014-2021 Adobe (http://www.adobe.com/).
Noto is a trademark of Google Inc.
This Font Software is licensed under the SIL Open Font License, Version 1.1. This Font Software is distributed on an "AS IS" BASIS, WITHOUT WARRANTIES OR CONDITIONS OF ANY KIND, either express or implied. See the SIL Open Font License for the specific language, permissions and limitations governing your use of this Font Software.
http://scripts.sil.org/OFL
  -->
<path d="M342 784C353 838 361 909 360 952L435 942C434 901 424 832 412 778ZM548 782C571 836 594 907 602 951L676 935C668 893 642 822 617 770ZM754 778C801 834 854 911 878 960L950 934C926 885 871 810 824 755ZM176 764C149 828 102 893 53 932L120 961C171 918 217 848 245 783ZM248 213L248 260 90 260 90 310 248 310 248 364 59 364 59 416 183 416C170 466 136 494 50 510 63 520 78 542 84 557 188 531 228 489 243 416L307 416 307 458C307 512 320 526 374 526 384 526 424 526 435 526 474 526 490 510 495 447 479 443 457 436 446 427 443 471 440 475 426 475 418 475 388 475 382 475 366 475 364 474 364 458L364 416 500 416 500 364 316 364 316 310 469 310 469 260 316 260 316 215 369 215 369 160 626 160 626 215 699 215 699 160 944 160 944 100 699 100 699 40 626 40 626 100 369 100 369 40 296 40 296 100 55 100 55 160 296 160 296 213ZM514 490C543 508 574 529 605 551 584 612 551 661 499 700L499 660 317 674 317 618 478 618 478 566 317 566 317 511 249 511 249 566 88 566 88 618 249 618 249 679 51 692 58 751 480 716C494 727 513 749 522 762 589 719 632 663 660 593 689 616 715 639 733 658L769 604C747 582 715 556 679 529 690 485 697 435 702 381L787 381C791 614 802 756 900 756 952 756 965 716 971 616 956 607 938 590 924 576 923 644 919 691 905 691 859 691 855 535 854 319L706 319 709 222 643 222 640 319 516 319 516 381 636 381C633 420 628 455 622 489 597 472 571 456 548 442Z"/>
</svg>