<svg xmlns="http://www.w3.org/2000/svg" name="gid8292" data-unicode="爫"
    viewBox="0 0 1000 1000">
  <!--
© 2014-2021 Adobe (http://www.adobe.com/).
Noto is a trademark of Google Inc.
This Font Software is licensed under the SIL Open Font License, Version 1.1. This Font Software is distributed on an "AS IS" BASIS, WITHOUT WARRANTIES OR CONDITIONS OF ANY KIND, either express or implied. See the SIL Open Font License for the specific language, permissions and limitations governing your use of this Font Software.
http://scripts.sil.org/OFL
  -->
<path d="M422 413C456 473 485 552 492 602L562 580C553 529 522 452 487 394ZM704 384C773 454 849 552 882 615L947 579C912 515 834 420 765 352ZM210 312C174 421 112 528 40 597 59 607 92 629 106 642 164 581 220 491 262 395 453 380 675 351 824 309L761 252C652 285 461 313 287 330Z"/>
</svg>