<svg xmlns="http://www.w3.org/2000/svg"
    viewBox="0 0 1000 1000">
  <!--
© 2014-2021 Adobe (http://www.adobe.com/).
Noto is a trademark of Google Inc.
This Font Software is licensed under the SIL Open Font License, Version 1.1. This Font Software is distributed on an "AS IS" BASIS, WITHOUT WARRANTIES OR CONDITIONS OF ANY KIND, either express or implied. See the SIL Open Font License for the specific language, permissions and limitations governing your use of this Font Software.
http://scripts.sil.org/OFL
  -->
<path d="M335 12C269 70 159 124 61 159 76 171 101 198 112 211 208 171 325 105 399 38ZM595 52C695 93 817 159 878 206L931 160C866 112 742 49 645 11ZM365 103L307 131C340 166 381 197 427 224 312 268 173 296 36 313 50 328 71 359 79 374 222 351 374 316 499 260 619 314 767 347 919 363 928 344 945 316 961 301 821 290 684 264 572 224 620 196 662 164 696 128L630 100C597 136 552 167 498 193 444 168 399 138 365 103ZM481 290C401 372 247 434 105 468 118 481 139 508 146 522 195 507 245 489 295 468 334 488 377 514 408 536 311 580 200 612 98 629 111 643 127 667 133 684 349 641 596 543 709 379L664 352 652 355 494 355C510 342 526 328 540 313ZM471 505C441 483 398 458 358 439L412 410 602 410C567 445 522 477 471 505ZM657 494C571 595 404 668 245 709 259 721 280 749 287 763 344 745 404 723 460 697 501 721 546 752 576 778 452 829 303 859 157 872 169 888 182 916 187 934 484 901 783 810 910 586L865 558 851 561 674 561C689 547 703 533 716 518ZM640 748C610 722 564 690 521 666 549 652 575 636 600 619L805 619C764 671 707 714 640 748Z"/>
</svg>