<svg xmlns="http://www.w3.org/2000/svg"
    viewBox="0 0 1000 1000">
  <!--
© 2014-2021 Adobe (http://www.adobe.com/).
Noto is a trademark of Google Inc.
This Font Software is licensed under the SIL Open Font License, Version 1.1. This Font Software is distributed on an "AS IS" BASIS, WITHOUT WARRANTIES OR CONDITIONS OF ANY KIND, either express or implied. See the SIL Open Font License for the specific language, permissions and limitations governing your use of this Font Software.
http://scripts.sil.org/OFL
  -->
<path d="M331 12C265 69 153 125 54 159 70 171 95 201 106 215 204 174 323 108 399 39ZM589 54C692 94 820 162 882 211L936 160C870 110 740 46 639 9ZM365 132L304 158C337 196 378 229 426 257 311 299 173 326 37 342 52 357 74 389 83 405 225 382 373 349 499 296 619 352 766 386 922 402 931 383 949 354 964 338 822 327 686 301 574 260 628 231 675 197 712 157L643 128C607 167 557 200 498 227 444 200 399 169 365 132ZM850 429L850 431 570 431 570 930 643 930 643 491 821 491C794 536 759 588 724 634 816 682 849 725 850 761 850 784 841 798 824 806 813 810 799 813 786 813 762 815 733 815 699 811 711 829 720 857 722 876 754 878 789 878 818 875 837 873 858 867 874 858 908 840 924 811 924 767 924 721 894 674 805 622 846 573 892 512 930 457L877 426 865 429ZM388 492L388 552 201 552 201 492ZM49 802L57 863 388 829 388 930 461 930 461 492 523 492 523 431 61 431 61 492 131 492 131 796ZM388 604L388 666 201 666 201 604ZM388 717L388 774 201 790 201 717Z"/>
</svg>