<svg xmlns="http://www.w3.org/2000/svg" name="gid8307" data-unicode="爾"
    viewBox="0 0 1000 1000">
  <!--
© 2014-2021 Adobe (http://www.adobe.com/).
Noto is a trademark of Google Inc.
This Font Software is licensed under the SIL Open Font License, Version 1.1. This Font Software is distributed on an "AS IS" BASIS, WITHOUT WARRANTIES OR CONDITIONS OF ANY KIND, either express or implied. See the SIL Open Font License for the specific language, permissions and limitations governing your use of this Font Software.
http://scripts.sil.org/OFL
  -->
<path d="M64 100L64 168 462 168 462 304 206 304C257 271 306 233 342 194L274 170C217 229 122 284 33 320 50 331 78 357 90 370L130 349 130 960 201 960 201 367 462 367 462 955 534 955 534 367 808 367 808 877C808 891 803 896 789 897 772 898 721 898 663 896 672 914 683 942 686 960 762 960 812 960 842 948 871 938 880 918 880 877L880 337 909 358 965 310C908 269 804 209 715 168L942 168 942 100ZM647 205C706 231 774 268 830 304L534 304 534 168 694 168ZM236 460C258 471 281 485 303 500 278 533 249 563 219 588 231 594 252 609 260 617 288 592 316 561 342 527 366 545 386 563 401 578L432 537C417 522 395 505 371 487 389 459 405 430 419 401L371 389C360 413 346 437 331 461 309 447 287 434 266 424ZM234 693C258 707 283 724 307 742 280 782 248 818 213 846 226 853 247 869 256 877 288 849 319 813 347 773 370 792 391 812 406 828L436 787C421 771 399 751 374 731 392 700 408 668 421 634L371 622C360 649 348 676 333 701 310 685 286 670 264 657ZM565 456C588 468 613 483 637 500 610 534 580 565 549 590 562 597 582 612 591 619 619 594 648 562 675 527 700 546 722 565 737 581L768 541C752 525 729 506 703 487 722 459 738 430 752 401L704 389C693 413 680 437 664 460 642 446 618 432 595 421ZM568 690C593 704 619 720 644 738 616 778 582 814 547 842 559 849 580 865 589 873 622 844 655 808 684 767 709 786 730 805 746 821L776 780C760 763 738 744 712 725 729 696 745 665 758 633L708 621C698 647 686 672 671 697 647 681 622 665 598 653Z"/>
</svg>