<svg xmlns="http://www.w3.org/2000/svg"
    viewBox="0 0 1000 1000">
  <!--
© 2014-2021 Adobe (http://www.adobe.com/).
Noto is a trademark of Google Inc.
This Font Software is licensed under the SIL Open Font License, Version 1.1. This Font Software is distributed on an "AS IS" BASIS, WITHOUT WARRANTIES OR CONDITIONS OF ANY KIND, either express or implied. See the SIL Open Font License for the specific language, permissions and limitations governing your use of this Font Software.
http://scripts.sil.org/OFL
  -->
<path d="M614 45L614 367 685 367 685 45ZM828 18L828 395C828 407 823 410 809 411 795 412 746 412 695 410 704 429 715 455 719 474 789 474 834 474 862 463 891 452 899 434 899 396L899 18ZM238 469C205 542 149 612 87 660 105 669 137 688 152 700 180 676 208 645 234 611L460 611 460 707 53 707 53 773 460 773 460 930 538 930 538 773 947 773 947 707 538 707 538 611 855 611 855 546 538 546 538 449 460 449 460 546 279 546C290 527 301 508 310 488ZM452 13C367 38 204 55 68 63 76 77 85 100 87 114 144 112 206 107 266 101L266 182 55 182 55 242 240 242C190 310 113 377 44 411 59 423 79 446 90 462 150 426 216 365 266 300L266 467 339 467 339 306C382 342 436 391 460 415L498 361C474 341 374 264 339 242L540 242 540 182 339 182 339 92C402 84 461 72 509 58Z"/>
</svg>