<svg xmlns="http://www.w3.org/2000/svg" name="gid8382" data-unicode="犾"
    viewBox="0 0 1000 1000">
  <!--
© 2014-2021 Adobe (http://www.adobe.com/).
Noto is a trademark of Google Inc.
This Font Software is licensed under the SIL Open Font License, Version 1.1. This Font Software is distributed on an "AS IS" BASIS, WITHOUT WARRANTIES OR CONDITIONS OF ANY KIND, either express or implied. See the SIL Open Font License for the specific language, permissions and limitations governing your use of this Font Software.
http://scripts.sil.org/OFL
  -->
<path d="M733 106C787 159 850 233 877 282L938 239C910 190 846 119 791 69ZM602 42L602 298 602 336 367 336 367 410 599 410C588 573 538 762 308 904 327 919 353 945 365 961 548 840 625 689 657 543 700 736 775 882 914 961 925 941 949 911 967 896 810 817 735 636 700 410L947 410 947 336 679 336 679 299 679 42ZM307 46C285 85 255 126 221 166 191 125 153 85 105 47L52 89C104 131 143 175 173 219 129 264 81 306 32 340 48 352 72 375 84 389 127 358 169 323 208 284 228 327 240 371 248 416 198 510 110 610 30 662 48 676 70 701 82 719 142 673 207 600 258 524L259 581C259 715 249 832 221 866 213 878 203 884 187 886 162 888 119 889 66 884 80 906 89 935 90 959 136 961 179 961 217 953 243 949 263 939 277 919 320 862 332 730 332 582 332 459 321 341 262 229 304 182 342 131 373 81Z"/>
</svg>