<svg xmlns="http://www.w3.org/2000/svg"
    viewBox="0 0 1000 1000">
  <!--
© 2014-2021 Adobe (http://www.adobe.com/).
Noto is a trademark of Google Inc.
This Font Software is licensed under the SIL Open Font License, Version 1.1. This Font Software is distributed on an "AS IS" BASIS, WITHOUT WARRANTIES OR CONDITIONS OF ANY KIND, either express or implied. See the SIL Open Font License for the specific language, permissions and limitations governing your use of this Font Software.
http://scripts.sil.org/OFL
  -->
<path d="M734 279C795 340 864 425 894 481L956 441C925 385 854 304 793 245ZM504 249C467 325 408 401 345 452 363 463 393 484 406 495 467 440 533 353 576 268ZM300 15C279 55 250 96 217 136 188 96 151 56 104 18L52 59C103 101 141 145 170 190 127 235 81 276 33 310 50 322 74 344 85 358 126 327 166 292 204 254 224 298 236 343 244 390 195 481 107 578 29 627 48 642 69 667 80 684 139 640 203 570 253 498L254 551C254 685 244 803 217 838 209 849 198 855 183 857 159 859 117 860 66 856 80 877 88 905 88 929 133 931 176 930 212 923 238 919 257 909 272 889 314 832 325 700 325 552 325 429 315 310 256 199 298 150 336 99 366 48ZM361 149L361 218 951 218 951 149 689 149 689 9 612 9 612 149ZM543 435L476 453C507 547 550 630 603 701 532 776 440 832 329 871 343 886 368 916 377 932 485 889 575 831 649 756 722 834 812 894 921 931 932 912 954 883 971 868 861 835 770 777 698 701 755 629 799 543 830 441L756 426C732 511 697 583 651 646 604 584 568 513 543 435Z"/>
</svg>