<svg xmlns="http://www.w3.org/2000/svg" name="gid8413" data-unicode="狹"
    viewBox="0 0 1000 1000">
  <!--
© 2014-2021 Adobe (http://www.adobe.com/).
Noto is a trademark of Google Inc.
This Font Software is licensed under the SIL Open Font License, Version 1.1. This Font Software is distributed on an "AS IS" BASIS, WITHOUT WARRANTIES OR CONDITIONS OF ANY KIND, either express or implied. See the SIL Open Font License for the specific language, permissions and limitations governing your use of this Font Software.
http://scripts.sil.org/OFL
  -->
<path d="M808 307C791 412 757 507 700 570 685 521 680 479 680 452L680 265 948 265 948 195 680 195 680 43 607 43 607 195 343 195 343 265 607 265 607 452C607 539 554 779 305 896 319 913 341 943 350 960 553 862 628 677 643 591 659 675 730 865 925 960 935 941 956 910 971 893 812 816 736 685 703 580 719 590 740 606 749 615 777 583 800 544 820 499 863 542 906 591 928 626L972 572C946 535 892 479 845 434 856 397 866 357 873 316ZM460 306C439 423 397 526 329 593 343 604 368 629 377 641 414 603 444 556 469 502 499 532 527 565 544 589L582 532C564 506 528 469 494 438 507 400 518 359 526 316ZM292 45C271 84 243 126 210 166 182 126 147 86 102 48L50 89C99 132 136 176 163 221 123 265 78 305 33 338 50 350 74 371 85 385 123 356 161 323 196 287 215 331 226 377 233 424 186 512 103 606 29 654 47 668 68 694 80 712 134 669 194 603 241 535L242 580C242 712 233 836 208 869 199 880 189 885 174 887 151 889 112 890 64 886 77 907 85 935 85 959 129 961 170 960 204 954 229 949 248 939 262 920 304 864 313 728 313 581 313 459 304 342 249 231 291 182 329 130 358 78Z"/>
</svg>