<svg xmlns="http://www.w3.org/2000/svg" name="gid8415" data-unicode="狻"
    viewBox="0 0 1000 1000">
  <!--
© 2014-2021 Adobe (http://www.adobe.com/).
Noto is a trademark of Google Inc.
This Font Software is licensed under the SIL Open Font License, Version 1.1. This Font Software is distributed on an "AS IS" BASIS, WITHOUT WARRANTIES OR CONDITIONS OF ANY KIND, either express or implied. See the SIL Open Font License for the specific language, permissions and limitations governing your use of this Font Software.
http://scripts.sil.org/OFL
  -->
<path d="M733 145C758 169 784 197 808 225L539 234C573 183 609 122 640 68L562 39C539 97 497 177 461 236L340 239 346 308 507 301C489 393 427 446 332 477 346 491 367 518 374 531 484 488 557 418 578 298L684 293 684 421C684 486 701 504 774 504 788 504 864 504 879 504 935 504 954 481 960 391 941 387 914 377 900 367 898 434 893 443 871 443 855 443 795 443 783 443 756 443 752 440 752 421L752 290 858 285C874 306 888 325 898 342L957 301C923 248 850 168 788 111ZM541 633L773 633C743 686 702 730 653 767 606 729 568 685 541 633ZM567 471C520 571 434 660 339 716 356 727 383 751 395 764 428 742 461 715 492 685 519 731 553 771 592 806 512 851 417 880 319 896 333 912 349 942 357 960 463 939 564 905 650 852 727 904 820 940 928 961 938 940 959 910 975 893 875 878 787 849 714 807 783 752 838 681 872 590L824 568 811 571 588 571C606 545 622 519 635 491ZM292 45C271 84 243 126 210 166 182 126 147 86 102 48L50 89C99 132 136 176 163 221 123 265 78 305 33 338 50 350 74 371 85 385 123 356 161 323 196 287 215 331 226 377 233 424 186 512 103 606 29 654 47 668 68 694 80 712 134 669 194 603 241 535L242 580C242 712 233 836 208 869 199 880 189 885 174 887 151 889 112 890 64 886 77 907 85 935 85 959 129 961 170 960 204 954 229 949 248 939 262 920 304 864 313 728 313 581 313 459 304 342 249 231 291 182 329 130 358 78Z"/>
</svg>