<svg xmlns="http://www.w3.org/2000/svg"
    viewBox="0 0 1000 1000">
  <!--
© 2014-2021 Adobe (http://www.adobe.com/).
Noto is a trademark of Google Inc.
This Font Software is licensed under the SIL Open Font License, Version 1.1. This Font Software is distributed on an "AS IS" BASIS, WITHOUT WARRANTIES OR CONDITIONS OF ANY KIND, either express or implied. See the SIL Open Font License for the specific language, permissions and limitations governing your use of this Font Software.
http://scripts.sil.org/OFL
  -->
<path d="M505 323L818 323 818 449 505 449ZM505 514L818 514 818 640 505 640ZM505 133L818 133 818 258 505 258ZM432 65L432 710 894 710 894 65ZM711 764C779 815 853 882 893 931L963 891C919 841 840 775 767 724ZM532 720C489 775 403 845 322 883 342 895 372 917 387 931 463 891 552 820 605 758ZM300 15C279 55 250 96 217 136 188 96 151 56 104 18L52 59C103 101 141 145 170 190 127 235 81 276 33 310 50 322 74 344 85 358 126 327 166 292 204 254 224 298 236 343 244 390 195 481 107 578 29 627 48 642 69 667 80 684 139 640 203 570 253 498L254 551C254 685 244 803 217 838 209 849 198 855 183 857 159 859 117 860 66 856 80 877 88 905 88 929 133 931 176 930 212 923 238 919 257 909 272 889 314 832 325 700 325 552 325 429 315 310 256 199 298 150 336 99 366 48Z"/>
</svg>