<svg xmlns="http://www.w3.org/2000/svg" name="gid8436" data-unicode="猟"
    viewBox="0 0 1000 1000">
  <!--
© 2014-2021 Adobe (http://www.adobe.com/).
Noto is a trademark of Google Inc.
This Font Software is licensed under the SIL Open Font License, Version 1.1. This Font Software is distributed on an "AS IS" BASIS, WITHOUT WARRANTIES OR CONDITIONS OF ANY KIND, either express or implied. See the SIL Open Font License for the specific language, permissions and limitations governing your use of this Font Software.
http://scripts.sil.org/OFL
  -->
<path d="M353 90C393 147 431 224 443 275L505 244C491 194 452 120 410 64ZM542 61C574 121 603 199 611 249L675 223C667 174 636 97 603 39ZM276 44C256 83 230 124 200 164 174 125 142 86 101 48L49 87C95 130 128 175 154 222 115 266 73 307 30 340 47 351 71 372 82 386 117 357 152 325 185 290 201 334 210 379 216 426 173 512 97 606 29 654 46 668 67 693 78 711 127 669 180 606 224 540L224 579C224 709 216 839 192 871 184 881 175 885 162 887 141 889 106 889 65 886 78 907 85 936 85 959 123 961 161 960 191 954 215 950 234 940 246 922 286 868 296 726 296 580 296 458 287 341 237 231 277 182 313 129 341 77ZM386 293L386 559C386 674 376 818 276 920 292 929 321 950 333 962 396 898 427 814 443 729L590 729 590 941 657 941 657 729 805 729C815 856 838 944 891 962 935 980 970 949 978 809 966 800 947 778 935 763 932 835 926 894 918 892 862 879 865 607 868 293L795 293C835 234 880 151 917 81L842 50C814 122 761 221 721 282L745 293ZM590 361L590 475 456 475 456 361ZM657 361L797 361 797 475 657 475ZM590 540L590 663 452 663C455 627 456 592 456 560L456 540ZM657 540L797 540 801 663 657 663Z"/>
</svg>