<svg xmlns="http://www.w3.org/2000/svg" name="gid8441" data-unicode="猨"
    viewBox="0 0 1000 1000">
  <!--
© 2014-2021 Adobe (http://www.adobe.com/).
Noto is a trademark of Google Inc.
This Font Software is licensed under the SIL Open Font License, Version 1.1. This Font Software is distributed on an "AS IS" BASIS, WITHOUT WARRANTIES OR CONDITIONS OF ANY KIND, either express or implied. See the SIL Open Font License for the specific language, permissions and limitations governing your use of this Font Software.
http://scripts.sil.org/OFL
  -->
<path d="M575 178C597 221 616 279 622 316L691 298C684 261 663 205 640 163ZM774 161C815 208 856 271 882 320L401 320 401 381 512 381 504 461 331 461 331 525 494 525C465 695 408 824 294 907 309 919 338 947 347 960 435 889 492 796 530 678 556 725 595 773 644 817 583 857 514 886 443 903 457 917 475 944 483 961 560 938 633 906 698 860 758 903 830 939 913 962 924 943 944 914 959 900 880 881 811 852 753 816 812 762 860 694 889 611L844 592 831 594 552 594 566 525 958 525 958 461 575 461 584 381 887 381 887 329 895 346 954 312C931 261 880 187 830 132ZM796 654C771 701 737 741 697 776 650 738 614 697 588 654ZM425 86C399 173 358 262 307 323 325 331 355 351 368 361 408 309 446 235 475 157 617 149 785 131 896 101L842 47C758 71 610 88 478 98ZM275 46C255 84 229 125 199 164 174 124 142 86 101 48L49 87C94 130 128 175 153 221 115 265 73 305 30 339 47 350 70 371 82 386 117 357 152 325 185 289 201 333 211 378 217 424 174 511 97 605 28 654 45 669 67 694 78 712 128 670 182 605 225 539L225 579C225 710 216 840 192 871 185 881 175 886 162 887 141 890 107 890 65 887 78 908 85 936 85 959 122 961 160 960 192 954 215 951 234 940 247 922 287 868 296 726 296 580 296 457 287 341 236 231 276 181 312 130 340 78Z"/>
</svg>