<svg xmlns="http://www.w3.org/2000/svg" name="gid8442" data-unicode="猩"
    viewBox="0 0 1000 1000">
  <!--
© 2014-2021 Adobe (http://www.adobe.com/).
Noto is a trademark of Google Inc.
This Font Software is licensed under the SIL Open Font License, Version 1.1. This Font Software is distributed on an "AS IS" BASIS, WITHOUT WARRANTIES OR CONDITIONS OF ANY KIND, either express or implied. See the SIL Open Font License for the specific language, permissions and limitations governing your use of this Font Software.
http://scripts.sil.org/OFL
  -->
<path d="M472 373L472 284 833 284 833 373ZM472 226L472 139 833 139 833 226ZM905 78L402 78 402 433 905 433ZM102 48L50 89C99 132 136 176 163 221 123 265 78 305 33 338 50 350 74 371 85 385 123 356 161 323 196 287 215 331 226 377 233 424 186 512 103 606 29 654 48 668 69 693 80 712 134 669 194 603 241 535L242 580C242 712 233 836 208 869 199 880 189 885 174 887 151 889 112 890 64 886 77 907 85 935 85 959 129 961 170 960 204 954 229 949 248 939 262 920 296 875 308 777 312 664 328 674 351 690 362 700 390 673 417 640 442 603L616 603 616 700 407 700 407 761 616 761 616 874 330 874 330 937 958 937 958 874 690 874 690 761 907 761 907 700 690 700 690 603 932 603 932 540 690 540 690 453 616 453 616 540 478 540C492 514 503 487 513 460L445 444C418 523 370 600 312 652L313 581C313 459 304 342 249 231 291 182 329 130 358 78L292 45C271 84 243 126 210 166 182 126 147 86 102 48Z"/>
</svg>