<svg xmlns="http://www.w3.org/2000/svg"
    viewBox="0 0 1000 1000">
  <!--
© 2014-2021 Adobe (http://www.adobe.com/).
Noto is a trademark of Google Inc.
This Font Software is licensed under the SIL Open Font License, Version 1.1. This Font Software is distributed on an "AS IS" BASIS, WITHOUT WARRANTIES OR CONDITIONS OF ANY KIND, either express or implied. See the SIL Open Font License for the specific language, permissions and limitations governing your use of this Font Software.
http://scripts.sil.org/OFL
  -->
<path d="M285 16C264 55 237 96 205 136 178 96 144 57 102 19L50 59C96 102 131 145 158 190 119 232 76 271 33 303 50 315 73 336 84 351 120 323 156 291 190 257 208 302 219 348 225 397 181 483 100 576 28 623 45 637 66 663 78 681 130 639 188 575 234 508L234 550C234 682 226 807 200 840 192 851 183 855 168 857 147 860 110 860 66 857 79 878 85 905 86 929 126 931 165 930 198 924 223 920 242 909 254 892 296 836 305 698 305 551 305 429 296 311 242 200 284 151 321 100 350 48ZM388 52L388 296 910 296 910 52 839 52 839 232 677 232 677 9 606 9 606 232 457 232 457 52ZM377 544L377 930 444 930 444 606 539 606 539 920 599 920 599 606 696 606 696 920 756 920 756 606 857 606 857 855C857 865 854 868 845 868 836 869 808 869 773 868 781 886 790 912 793 930 842 930 875 930 898 918 920 908 925 889 925 856L925 544 641 544 675 444 948 444 948 378 343 378 343 444 594 444C587 477 578 513 569 544Z"/>
</svg>