<svg xmlns="http://www.w3.org/2000/svg"
    viewBox="0 0 1000 1000">
  <!--
© 2014-2021 Adobe (http://www.adobe.com/).
Noto is a trademark of Google Inc.
This Font Software is licensed under the SIL Open Font License, Version 1.1. This Font Software is distributed on an "AS IS" BASIS, WITHOUT WARRANTIES OR CONDITIONS OF ANY KIND, either express or implied. See the SIL Open Font License for the specific language, permissions and limitations governing your use of this Font Software.
http://scripts.sil.org/OFL
  -->
<path d="M503 182C548 201 601 228 646 254L367 254 367 314 571 314C517 379 437 433 355 469 369 482 392 507 401 520 492 473 588 400 648 314L655 314 655 442C655 451 653 454 640 454 627 455 590 455 543 454 553 471 564 495 568 514 626 514 665 514 690 504 717 493 723 476 723 443L723 314 859 314C837 355 811 395 788 424L847 443C884 400 924 330 957 267L907 252 895 254 753 254C740 244 724 234 707 224 772 187 840 136 889 87L843 52 828 56 423 56 423 113 765 113C731 142 688 170 648 192 613 174 577 157 544 145ZM615 524L615 595 350 595 350 658 566 658C505 736 406 808 312 843 327 857 348 882 359 900 452 858 549 781 615 696L615 932 685 932 685 696C745 778 834 855 917 896 929 878 951 852 967 838 881 803 788 733 731 658L941 658 941 595 685 595 685 524ZM297 30C276 66 248 105 216 142 190 105 157 69 117 33L66 73C109 112 143 152 169 194 124 239 75 279 31 306 46 322 66 354 76 374 117 344 161 304 203 261 221 303 232 346 239 390 192 481 112 574 37 622 53 639 72 668 82 687 140 642 201 574 249 501L250 554C250 683 240 805 215 838 207 848 198 853 183 854 161 857 123 857 75 854 88 874 97 902 98 926 139 927 180 927 212 921 238 917 255 906 269 888 309 834 320 699 320 555 320 433 310 316 254 205 293 159 328 112 354 67Z"/>
</svg>