<svg xmlns="http://www.w3.org/2000/svg" name="gid8460" data-unicode="猿"
    viewBox="0 0 1000 1000">
  <!--
© 2014-2021 Adobe (http://www.adobe.com/).
Noto is a trademark of Google Inc.
This Font Software is licensed under the SIL Open Font License, Version 1.1. This Font Software is distributed on an "AS IS" BASIS, WITHOUT WARRANTIES OR CONDITIONS OF ANY KIND, either express or implied. See the SIL Open Font License for the specific language, permissions and limitations governing your use of this Font Software.
http://scripts.sil.org/OFL
  -->
<path d="M480 442L820 442 820 545 480 545ZM292 45C271 84 243 126 210 166 182 126 147 86 102 48L50 89C99 132 136 176 163 221 123 265 78 305 33 338 50 350 74 371 85 385 123 356 161 323 196 287 215 331 226 377 233 424 186 512 103 606 29 654 47 668 68 694 80 712 134 669 194 603 241 535L242 580C242 712 233 836 208 869 199 880 189 885 174 887 151 889 112 890 64 886 77 907 85 935 85 959 129 961 170 960 204 954 229 949 248 939 262 920 304 864 313 728 313 581 313 459 304 342 249 231 291 182 329 130 358 78ZM344 263L344 326 947 326 947 263 682 263 682 184 900 184 900 122 682 122 682 39 607 39 607 122 401 122 401 184 607 184 607 263ZM898 619C862 651 801 696 752 727 728 689 708 647 694 601L894 601 894 387 410 387 410 601 581 601C516 657 415 703 321 731 334 745 354 777 363 792 398 779 434 764 470 746L470 869 363 884 376 952C471 936 601 914 725 894L721 829 539 859 539 709C576 686 610 662 639 635 690 789 784 908 924 963 935 944 956 917 972 902 897 877 835 833 787 775 838 746 901 706 948 668Z"/>
</svg>