<svg xmlns="http://www.w3.org/2000/svg"
    viewBox="0 0 1000 1000">
  <!--
© 2014-2021 Adobe (http://www.adobe.com/).
Noto is a trademark of Google Inc.
This Font Software is licensed under the SIL Open Font License, Version 1.1. This Font Software is distributed on an "AS IS" BASIS, WITHOUT WARRANTIES OR CONDITIONS OF ANY KIND, either express or implied. See the SIL Open Font License for the specific language, permissions and limitations governing your use of this Font Software.
http://scripts.sil.org/OFL
  -->
<path d="M473 258L473 317 795 317 795 258ZM629 80C697 170 817 273 924 333 935 313 952 286 967 269 857 215 738 115 660 13L591 13C534 107 418 215 299 278 313 294 331 320 339 338 456 272 568 168 629 80ZM423 435L545 435 545 564 423 564ZM366 382L366 617 604 617 604 382ZM721 435L846 435 846 564 721 564ZM664 382L664 617 906 617 906 382ZM285 16C264 55 237 96 205 136 178 96 144 57 102 19L50 59C96 102 131 145 158 190 119 232 76 271 33 303 50 315 73 336 84 351 120 323 156 291 190 257 208 302 219 348 225 397 181 483 100 576 28 623 45 637 66 663 78 681 130 639 188 575 234 508L234 550C234 682 226 807 200 840 192 851 183 855 168 857 147 860 110 860 66 857 79 878 85 905 86 929 126 931 165 930 198 924 223 920 242 909 254 892 296 836 305 698 305 551 305 429 296 311 242 200 284 151 321 100 350 48ZM469 625C446 739 391 832 299 884 312 896 333 919 342 933 402 897 448 848 482 787 519 816 556 848 575 873L615 823C592 797 549 761 508 732 520 704 529 673 536 641ZM749 625C731 745 685 836 593 885 607 897 628 921 636 935 694 902 738 856 768 797 824 843 883 896 915 932L961 880C924 841 854 782 794 737 804 707 812 674 817 639Z"/>
</svg>