<svg xmlns="http://www.w3.org/2000/svg" name="gid8483" data-unicode="獬"
    viewBox="0 0 1000 1000">
  <!--
© 2014-2021 Adobe (http://www.adobe.com/).
Noto is a trademark of Google Inc.
This Font Software is licensed under the SIL Open Font License, Version 1.1. This Font Software is distributed on an "AS IS" BASIS, WITHOUT WARRANTIES OR CONDITIONS OF ANY KIND, either express or implied. See the SIL Open Font License for the specific language, permissions and limitations governing your use of this Font Software.
http://scripts.sil.org/OFL
  -->
<path d="M638 690L638 755 773 755 773 959 835 959 835 755 960 755 960 690 835 690 835 575 945 575 945 514 835 514 835 417 773 417 773 514 718 514C724 487 728 458 732 430L678 421C669 504 653 588 621 646 634 652 658 666 667 674 681 646 694 612 704 575L773 575 773 690ZM416 184L508 184C497 222 483 264 468 298L358 298C381 261 400 223 416 184ZM399 40C378 126 337 238 267 321 281 329 302 348 312 362L321 351 321 570C321 679 315 823 254 927 268 934 293 951 302 963 347 887 366 786 373 691L562 691 562 881C562 892 559 895 548 895 538 896 506 896 468 895 477 913 486 943 487 960 538 960 571 959 592 948 614 937 620 916 620 882L620 359C634 369 652 390 661 405 745 347 778 253 791 146L882 146C875 265 869 311 859 323 854 331 847 332 837 332 827 332 805 332 779 329 788 345 794 371 795 389 821 390 848 391 863 389 883 387 897 380 909 366 928 344 935 281 942 114 943 105 944 86 944 86L639 86 639 146 731 146C719 233 691 311 620 357L620 298 529 298C549 250 571 193 585 144L544 119 534 122 439 122C447 97 454 72 460 48ZM378 361L445 361 445 459 378 459ZM378 521L445 521 445 628 377 628 378 570ZM562 361L562 459 491 459 491 361ZM562 521L562 628 491 628 491 521ZM246 48C228 86 205 126 178 165 156 127 130 89 96 51L44 87C83 131 113 177 134 224 101 265 65 303 28 335 44 347 66 367 79 380 107 355 135 326 162 296 174 338 182 381 187 425 151 512 87 607 28 657 44 671 64 697 74 714 115 673 158 613 194 550L194 579C194 708 187 846 164 876 158 885 149 889 137 891 120 892 91 892 59 890 70 910 76 937 76 959 108 960 141 960 166 955 189 951 205 942 217 926 254 874 261 725 261 581 261 458 253 344 211 235 249 185 283 132 310 79Z"/>
</svg>