<svg xmlns="http://www.w3.org/2000/svg"
    viewBox="0 0 1000 1000">
  <!--
© 2014-2021 Adobe (http://www.adobe.com/).
Noto is a trademark of Google Inc.
This Font Software is licensed under the SIL Open Font License, Version 1.1. This Font Software is distributed on an "AS IS" BASIS, WITHOUT WARRANTIES OR CONDITIONS OF ANY KIND, either express or implied. See the SIL Open Font License for the specific language, permissions and limitations governing your use of this Font Software.
http://scripts.sil.org/OFL
  -->
<path d="M272 15C252 54 226 94 195 134 171 95 140 57 101 19L49 57C93 100 125 144 150 190 113 231 73 270 32 301 49 313 72 333 83 348 116 321 149 290 180 258 196 302 206 349 212 396 171 482 97 575 31 622 48 636 69 661 79 680 127 638 178 577 220 512L220 550C220 680 211 811 187 842 180 852 171 857 158 858 138 860 104 860 65 857 77 878 83 906 84 929 120 931 157 930 187 924 211 921 230 910 242 893 281 839 290 696 290 551 290 428 281 311 231 200 271 151 308 99 336 47ZM342 61L342 125 463 125C426 171 364 222 304 255 319 266 338 286 349 299L352 297 352 929 417 929 417 319 608 319 608 928 665 928 665 798C677 805 689 816 697 824 724 797 749 766 770 731 787 751 801 770 811 786L840 753C830 735 813 714 793 692 809 662 823 630 834 598L794 579C786 606 774 633 761 661 745 646 729 632 713 620L684 648C703 663 722 680 740 698 719 735 693 769 665 796L665 547C675 554 687 566 694 573 721 549 746 520 768 488 785 507 800 526 810 542L838 508C828 491 811 472 791 452 807 424 821 394 832 365L792 346C784 371 772 396 758 422 742 408 726 395 710 384L684 413C701 426 720 441 737 457 716 489 691 519 665 543L665 319 854 319 854 853C854 864 850 867 840 868 829 868 797 869 761 867 769 885 778 912 780 929 834 929 869 929 891 918 914 907 921 888 921 854L921 270 952 244C922 210 865 161 812 125L948 125 948 61ZM748 150C792 180 843 224 878 260L671 260 671 125 781 125ZM409 260C453 228 495 189 525 150L483 125 602 125 602 260ZM441 417C459 431 477 446 494 463 472 495 447 526 419 550 430 557 444 571 452 579 479 554 504 526 525 494 543 513 557 531 567 547L595 513C585 496 569 477 549 457 566 429 580 400 591 370L551 351C542 376 531 402 516 427 500 413 483 400 467 389ZM441 658C460 672 479 689 497 706 475 743 449 777 420 804 430 811 444 823 452 831 480 804 506 773 528 738 546 758 561 777 571 793L599 760C588 742 571 721 550 700 567 670 581 638 592 607L553 587C544 614 532 642 518 669 502 654 485 640 469 628Z"/>
</svg>