<svg xmlns="http://www.w3.org/2000/svg" name="gid8491" data-unicode="獸"
    viewBox="0 0 1000 1000">
  <!--
© 2014-2021 Adobe (http://www.adobe.com/).
Noto is a trademark of Google Inc.
This Font Software is licensed under the SIL Open Font License, Version 1.1. This Font Software is distributed on an "AS IS" BASIS, WITHOUT WARRANTIES OR CONDITIONS OF ANY KIND, either express or implied. See the SIL Open Font License for the specific language, permissions and limitations governing your use of this Font Software.
http://scripts.sil.org/OFL
  -->
<path d="M84 289L84 563 523 563 523 289ZM39 605L39 662 570 662 570 605ZM795 98C833 149 872 218 887 264L949 236C934 191 894 124 854 74ZM132 118L219 118 219 203 132 203ZM76 69L76 252 277 252 277 69ZM378 118L472 118 472 203 378 203ZM322 69L322 252 531 252 531 69ZM152 450L267 450 267 513 152 513ZM331 450L453 450 453 513 331 513ZM152 339L267 339 267 401 152 401ZM331 339L453 339 453 401 331 401ZM103 707L103 958 172 958 172 913 439 913 439 940 510 940 510 914C528 926 549 947 560 960 670 840 720 693 743 552 776 727 828 871 916 962 929 942 953 915 970 901 862 802 809 609 782 387L953 387 953 317 761 317 761 291 761 42 688 42 688 291 688 317 538 317 538 387 687 387C681 549 652 751 510 902L510 707ZM172 857L172 762 439 762 439 857Z"/>
</svg>