<svg xmlns="http://www.w3.org/2000/svg"
    viewBox="0 0 1000 1000">
  <!--
© 2014-2021 Adobe (http://www.adobe.com/).
Noto is a trademark of Google Inc.
This Font Software is licensed under the SIL Open Font License, Version 1.1. This Font Software is distributed on an "AS IS" BASIS, WITHOUT WARRANTIES OR CONDITIONS OF ANY KIND, either express or implied. See the SIL Open Font License for the specific language, permissions and limitations governing your use of this Font Software.
http://scripts.sil.org/OFL
  -->
<path d="M636 86L636 824 707 824 707 86ZM849 38L849 929 922 929 922 38ZM430 45L430 409C430 584 416 757 289 887 309 897 338 920 351 935 487 792 503 601 503 409L503 45ZM33 719L53 793C145 762 268 720 383 679L373 610 245 652 245 438 359 438 359 368 245 368 245 163 374 163 374 93 47 93 47 163 172 163 172 368 60 368 60 438 172 438 172 676Z"/>
</svg>