<svg xmlns="http://www.w3.org/2000/svg"
    viewBox="0 0 1000 1000">
  <!--
© 2014-2021 Adobe (http://www.adobe.com/).
Noto is a trademark of Google Inc.
This Font Software is licensed under the SIL Open Font License, Version 1.1. This Font Software is distributed on an "AS IS" BASIS, WITHOUT WARRANTIES OR CONDITIONS OF ANY KIND, either express or implied. See the SIL Open Font License for the specific language, permissions and limitations governing your use of this Font Software.
http://scripts.sil.org/OFL
  -->
<path d="M35 728L53 802C149 776 280 740 404 704L395 636 252 673 252 446 367 446 367 376 252 376 252 161 388 161 388 91 47 91 47 161 179 161 179 376 62 376 62 446 179 446 179 692ZM443 71L443 142 825 142 825 398 453 398 453 788C453 884 486 908 596 908 619 908 795 908 820 908 924 908 948 864 959 708 938 703 906 690 888 677 882 812 873 837 816 837 778 837 630 837 601 837 538 837 527 828 527 788L527 467 825 467 825 518 898 518 898 71Z"/>
</svg>