<svg xmlns="http://www.w3.org/2000/svg"
    viewBox="0 0 1000 1000">
  <!--
© 2014-2021 Adobe (http://www.adobe.com/).
Noto is a trademark of Google Inc.
This Font Software is licensed under the SIL Open Font License, Version 1.1. This Font Software is distributed on an "AS IS" BASIS, WITHOUT WARRANTIES OR CONDITIONS OF ANY KIND, either express or implied. See the SIL Open Font License for the specific language, permissions and limitations governing your use of this Font Software.
http://scripts.sil.org/OFL
  -->
<path d="M623 23L623 192 419 192 419 264 623 264 623 363C623 391 622 419 620 447L386 447 386 518 612 518C588 655 516 784 313 874 329 888 351 916 360 934 546 849 631 733 669 606 720 753 800 866 921 930 933 909 957 880 975 864 843 805 759 677 714 518L954 518 954 447 695 447C696 419 697 392 697 364L697 264 929 264 929 192 697 192 697 23ZM34 733L51 808C148 781 280 743 403 706L394 637 252 676 252 456 362 456 362 386 252 386 252 176 388 176 388 106 47 106 47 176 179 176 179 386 59 386 59 456 179 456 179 696Z"/>
</svg>