<svg xmlns="http://www.w3.org/2000/svg" name="gid8520" data-unicode="玦"
    viewBox="0 0 1000 1000">
  <!--
© 2014-2021 Adobe (http://www.adobe.com/).
Noto is a trademark of Google Inc.
This Font Software is licensed under the SIL Open Font License, Version 1.1. This Font Software is distributed on an "AS IS" BASIS, WITHOUT WARRANTIES OR CONDITIONS OF ANY KIND, either express or implied. See the SIL Open Font License for the specific language, permissions and limitations governing your use of this Font Software.
http://scripts.sil.org/OFL
  -->
<path d="M817 501L661 501C664 465 665 429 665 392L665 280 817 280ZM591 51L591 209 409 209 409 280 591 280 591 392C591 429 590 465 587 501L380 501 380 572 576 572C550 699 480 817 301 905 318 918 343 946 353 962 538 869 615 744 645 608 697 772 786 897 923 962 934 941 958 911 975 896 840 840 751 723 703 572L958 572 958 501 889 501 889 209 665 209 665 51ZM34 763L49 836C146 811 277 777 401 743L394 675 252 711 252 486 362 486 362 416 252 416 252 206 388 206 388 136 47 136 47 206 179 206 179 416 59 416 59 486 179 486 179 729Z"/>
</svg>