<svg xmlns="http://www.w3.org/2000/svg"
    viewBox="0 0 1000 1000">
  <!--
© 2014-2021 Adobe (http://www.adobe.com/).
Noto is a trademark of Google Inc.
This Font Software is licensed under the SIL Open Font License, Version 1.1. This Font Software is distributed on an "AS IS" BASIS, WITHOUT WARRANTIES OR CONDITIONS OF ANY KIND, either express or implied. See the SIL Open Font License for the specific language, permissions and limitations governing your use of this Font Software.
http://scripts.sil.org/OFL
  -->
<path d="M38 750L55 822C139 789 249 746 354 704L342 636 239 676 239 437 330 437 330 367 239 367 239 148 352 148 352 78 47 78 47 148 168 148 168 367 56 367 56 437 168 437 168 703C119 721 74 738 38 750ZM393 158L393 420C393 557 382 743 283 875 299 883 329 908 340 922 436 796 459 613 463 469L473 469C510 576 563 669 631 744 566 801 490 843 411 870 426 884 444 912 453 930 536 899 614 854 682 794 749 852 827 897 918 926 929 906 951 876 967 861 878 836 800 795 735 742 811 659 870 552 903 417L857 399 843 403 694 403 694 228 857 228C845 275 831 322 819 355L884 370C905 320 930 238 949 168L895 155 884 158 694 158 694 10 622 10 622 158ZM622 228L622 403 464 403 464 228ZM815 469C785 557 739 632 683 694 623 631 576 555 544 469Z"/>
</svg>