<svg xmlns="http://www.w3.org/2000/svg" name="gid8554" data-unicode="珞"
    viewBox="0 0 1000 1000">
  <!--
© 2014-2021 Adobe (http://www.adobe.com/).
Noto is a trademark of Google Inc.
This Font Software is licensed under the SIL Open Font License, Version 1.1. This Font Software is distributed on an "AS IS" BASIS, WITHOUT WARRANTIES OR CONDITIONS OF ANY KIND, either express or implied. See the SIL Open Font License for the specific language, permissions and limitations governing your use of this Font Software.
http://scripts.sil.org/OFL
  -->
<path d="M33 772L50 844C146 817 275 781 396 746L387 676 245 716 245 490 358 490 358 420 245 420 245 206 382 206 382 136 44 136 44 206 172 206 172 420 58 420 58 490 172 490 172 736ZM568 40C530 132 455 249 348 335 365 345 388 367 400 383 440 348 476 310 508 271 537 325 573 376 614 422 532 491 435 545 334 580 349 593 370 624 378 642 402 633 425 623 448 612L448 962 520 962 520 920 801 920 801 962 876 962 876 607 926 626C937 606 958 577 976 562 877 534 788 485 715 422 785 348 843 260 882 157L836 131 823 135 600 135C616 107 630 79 642 52ZM520 853L520 666 801 666 801 853ZM476 598C542 564 605 522 663 471 719 523 783 566 854 598ZM560 200L786 200C755 265 714 323 664 374 618 325 580 270 552 211Z"/>
</svg>