<svg xmlns="http://www.w3.org/2000/svg"
    viewBox="0 0 1000 1000">
  <!--
© 2014-2021 Adobe (http://www.adobe.com/).
Noto is a trademark of Google Inc.
This Font Software is licensed under the SIL Open Font License, Version 1.1. This Font Software is distributed on an "AS IS" BASIS, WITHOUT WARRANTIES OR CONDITIONS OF ANY KIND, either express or implied. See the SIL Open Font License for the specific language, permissions and limitations governing your use of this Font Software.
http://scripts.sil.org/OFL
  -->
<path d="M477 56C460 178 428 298 374 376 392 384 423 403 436 413 461 372 483 323 501 267L632 267 632 444 379 444 379 513 597 513C534 641 426 765 321 827 337 841 360 867 371 884 469 819 565 706 632 580L632 929 704 929 704 576C763 694 846 807 926 873 939 855 963 828 980 815 890 753 795 632 738 513L960 513 960 444 704 444 704 267 911 267 911 198 704 198 704 10 632 10 632 198 521 198C531 156 540 113 547 68ZM42 750L58 823C150 795 271 758 385 724L376 654 246 693 246 437 361 437 361 367 246 367 246 148 381 148 381 78 46 78 46 148 174 148 174 367 55 367 55 437 174 437 174 714Z"/>
</svg>