<svg xmlns="http://www.w3.org/2000/svg"
    viewBox="0 0 1000 1000">
  <!--
© 2014-2021 Adobe (http://www.adobe.com/).
Noto is a trademark of Google Inc.
This Font Software is licensed under the SIL Open Font License, Version 1.1. This Font Software is distributed on an "AS IS" BASIS, WITHOUT WARRANTIES OR CONDITIONS OF ANY KIND, either express or implied. See the SIL Open Font License for the specific language, permissions and limitations governing your use of this Font Software.
http://scripts.sil.org/OFL
  -->
<path d="M798 135L798 267 539 267 539 135ZM374 723L382 793 798 743 798 932 872 932 872 734 962 723 954 654 872 664 872 135 957 135 957 63 396 63 396 135 466 135 466 712ZM798 334L798 476 539 476 539 334ZM798 542L798 673 539 703 539 542ZM34 769L52 839C146 804 271 756 388 710L375 645 246 693 246 444 356 444 356 374 246 374 246 148 365 148 365 78 47 78 47 148 169 148 169 374 58 374 58 444 169 444 169 721Z"/>
</svg>