<svg xmlns="http://www.w3.org/2000/svg"
    viewBox="0 0 1000 1000">
  <!--
© 2014-2021 Adobe (http://www.adobe.com/).
Noto is a trademark of Google Inc.
This Font Software is licensed under the SIL Open Font License, Version 1.1. This Font Software is distributed on an "AS IS" BASIS, WITHOUT WARRANTIES OR CONDITIONS OF ANY KIND, either express or implied. See the SIL Open Font License for the specific language, permissions and limitations governing your use of this Font Software.
http://scripts.sil.org/OFL
  -->
<path d="M359 83C399 157 438 257 448 319L517 294C505 232 465 134 423 61ZM569 40C601 116 627 216 633 276L704 258C697 197 668 99 636 24ZM885 48C853 154 801 268 747 343 766 351 800 367 816 378 869 300 924 179 960 66ZM31 737L50 809C142 782 264 746 380 712L371 642 244 679 244 447 360 447 360 377 244 377 244 167 364 167 364 97 44 97 44 167 171 167 171 377 54 377 54 447 171 447 171 699ZM344 463L344 531 502 531C474 597 444 660 420 707L488 736 503 706C541 724 581 744 621 764 553 808 457 844 319 866 332 882 349 912 355 930 510 902 617 859 693 802 774 847 848 893 897 931L950 874C901 837 828 794 749 752 809 689 840 614 861 531L971 531 971 463 612 463 662 340 586 326C570 368 551 415 531 463ZM530 648L583 531 782 531C763 600 735 663 680 717 630 692 578 668 530 648Z"/>
</svg>