<svg xmlns="http://www.w3.org/2000/svg"
    viewBox="0 0 1000 1000">
  <!--
© 2014-2021 Adobe (http://www.adobe.com/).
Noto is a trademark of Google Inc.
This Font Software is licensed under the SIL Open Font License, Version 1.1. This Font Software is distributed on an "AS IS" BASIS, WITHOUT WARRANTIES OR CONDITIONS OF ANY KIND, either express or implied. See the SIL Open Font License for the specific language, permissions and limitations governing your use of this Font Software.
http://scripts.sil.org/OFL
  -->
<path d="M31 698L53 771C143 740 264 698 377 658L365 588 239 631 239 427 347 427 347 357 239 357 239 151 365 151 365 80 42 80 42 151 166 151 166 357 57 357 57 427 166 427 166 656C115 672 69 687 31 698ZM818 287L818 394 603 394C613 360 621 324 629 287ZM414 52L414 118 585 118C581 154 576 188 570 221L366 221 366 287 558 287C549 324 540 360 530 394L404 394 404 460 506 460C461 571 397 661 304 726 320 739 348 767 358 781 402 747 439 709 472 666L472 929 544 929 544 877 839 877 839 926 913 926 913 557 539 557C555 526 569 494 581 460L891 460 891 287 962 287 962 221 891 221 891 52ZM818 221L642 221C648 188 653 154 657 118L818 118ZM544 810L544 624 839 624 839 810Z"/>
</svg>