<svg xmlns="http://www.w3.org/2000/svg"
    viewBox="0 0 1000 1000">
  <!--
© 2014-2021 Adobe (http://www.adobe.com/).
Noto is a trademark of Google Inc.
This Font Software is licensed under the SIL Open Font License, Version 1.1. This Font Software is distributed on an "AS IS" BASIS, WITHOUT WARRANTIES OR CONDITIONS OF ANY KIND, either express or implied. See the SIL Open Font License for the specific language, permissions and limitations governing your use of this Font Software.
http://scripts.sil.org/OFL
  -->
<path d="M510 278L837 278 837 379 510 379ZM510 439L837 439 837 541 510 541ZM510 117L837 117 837 218 510 218ZM31 701L50 773C149 744 283 704 409 667L399 600 261 639 261 414 384 414 384 345 261 345 261 131 393 131 393 61 49 61 49 131 188 131 188 345 61 345 61 414 188 414 188 659ZM440 54L440 605 529 605C512 736 467 826 290 875 305 889 325 918 333 936 529 876 584 765 603 605L702 605 702 829C702 902 719 923 791 923 806 923 874 923 889 923 949 923 968 891 975 768 955 763 925 751 910 740 908 842 903 858 881 858 866 858 813 858 802 858 778 858 774 854 774 829L774 605 910 605 910 54Z"/>
</svg>