<svg xmlns="http://www.w3.org/2000/svg" name="gid8581" data-unicode="琅"
    viewBox="0 0 1000 1000">
  <!--
© 2014-2021 Adobe (http://www.adobe.com/).
Noto is a trademark of Google Inc.
This Font Software is licensed under the SIL Open Font License, Version 1.1. This Font Software is distributed on an "AS IS" BASIS, WITHOUT WARRANTIES OR CONDITIONS OF ANY KIND, either express or implied. See the SIL Open Font License for the specific language, permissions and limitations governing your use of this Font Software.
http://scripts.sil.org/OFL
  -->
<path d="M31 763L46 836C141 810 270 775 391 741L383 672 245 709 245 486 358 486 358 416 245 416 245 206 382 206 382 136 44 136 44 206 172 206 172 416 58 416 58 486 172 486 172 728C119 742 71 754 31 763ZM432 159L432 857 334 875 350 946C445 925 575 898 699 870L692 803 506 842 506 567 612 567C664 755 760 896 921 962 931 943 953 914 969 900 888 871 823 821 772 755 830 721 899 675 951 629L896 585C856 622 793 668 738 704 714 662 694 616 679 567L895 567 895 159 696 159 696 42 623 42 623 159ZM506 223L821 223 821 331 506 331ZM506 503L506 391 821 391 821 503Z"/>
</svg>