<svg xmlns="http://www.w3.org/2000/svg" name="gid8593" data-unicode="琥"
    viewBox="0 0 1000 1000">
  <!--
© 2014-2021 Adobe (http://www.adobe.com/).
Noto is a trademark of Google Inc.
This Font Software is licensed under the SIL Open Font License, Version 1.1. This Font Software is distributed on an "AS IS" BASIS, WITHOUT WARRANTIES OR CONDITIONS OF ANY KIND, either express or implied. See the SIL Open Font License for the specific language, permissions and limitations governing your use of this Font Software.
http://scripts.sil.org/OFL
  -->
<path d="M553 634C546 777 524 862 406 910 420 922 439 946 447 963 582 904 612 800 621 634ZM718 633L718 861C718 930 734 950 801 950 815 950 874 950 888 950 945 950 963 919 969 795 951 790 922 779 908 767 905 873 901 887 880 887 867 887 822 887 812 887 791 887 787 884 787 860L787 633ZM384 254L384 491C384 620 373 793 273 916 288 924 318 947 329 960 436 828 453 632 453 492L453 314 874 314 858 390 918 405C930 368 943 312 954 263L906 251 894 254 674 254 674 175 928 175 928 118 674 118 674 40 604 40 604 254ZM600 327L600 409 481 422 487 474 600 461 600 500C600 565 621 582 706 582 724 582 840 582 858 582 920 582 940 561 947 481 929 477 904 468 889 458 887 518 881 527 851 527 826 527 731 527 712 527 672 527 666 523 666 500L666 454 834 435 828 384 666 402 666 327ZM31 752L47 823C132 799 243 766 348 735L339 666 226 698 226 481 328 481 328 414 226 414 226 207 344 207 344 139 44 139 44 207 157 207 157 414 56 414 56 481 157 481 157 718Z"/>
</svg>