<svg xmlns="http://www.w3.org/2000/svg"
    viewBox="0 0 1000 1000">
  <!--
© 2014-2021 Adobe (http://www.adobe.com/).
Noto is a trademark of Google Inc.
This Font Software is licensed under the SIL Open Font License, Version 1.1. This Font Software is distributed on an "AS IS" BASIS, WITHOUT WARRANTIES OR CONDITIONS OF ANY KIND, either express or implied. See the SIL Open Font License for the specific language, permissions and limitations governing your use of this Font Software.
http://scripts.sil.org/OFL
  -->
<path d="M160 660L160 725 705 725C677 782 640 855 608 913L681 934C726 853 777 752 812 673L756 656 743 660ZM47 356L55 421 425 371C333 451 181 528 26 573 40 590 58 618 66 637 146 612 225 578 297 541L297 587 699 587 699 538C776 576 858 608 932 629 944 609 961 580 977 562 842 530 694 468 581 386L957 386 957 326 758 326 758 246 919 246 919 189 758 189 758 114 940 114 940 55 515 55 515 114 686 114 686 189 534 189 534 246 686 246 686 326 523 326 523 344 468 344 467 308 305 327 305 248 454 248 454 191 305 191 305 114 466 114 466 55 67 55 67 114 234 114 234 191 88 191 88 248 234 248 234 336ZM495 406C543 449 608 490 678 527L323 527C392 489 453 447 495 406Z"/>
</svg>