<svg xmlns="http://www.w3.org/2000/svg"
    viewBox="0 0 1000 1000">
  <!--
© 2014-2021 Adobe (http://www.adobe.com/).
Noto is a trademark of Google Inc.
This Font Software is licensed under the SIL Open Font License, Version 1.1. This Font Software is distributed on an "AS IS" BASIS, WITHOUT WARRANTIES OR CONDITIONS OF ANY KIND, either express or implied. See the SIL Open Font License for the specific language, permissions and limitations governing your use of this Font Software.
http://scripts.sil.org/OFL
  -->
<path d="M33 706L50 778C137 750 251 714 359 678L348 610 236 646 236 432 342 432 342 364 236 364 236 148 357 148 357 80 45 80 45 148 167 148 167 364 55 364 55 432 167 432 167 667C117 683 71 696 33 706ZM462 719L470 784 786 752C794 772 800 792 804 808L851 788C838 740 804 668 768 613L725 631C738 651 750 673 762 696L681 703 681 582 857 582 857 858C857 868 853 871 843 872 831 873 792 873 748 872 757 888 766 913 770 930 830 930 870 930 894 920 919 909 926 892 926 858L926 518 681 518 681 436 903 436 903 196 681 196 681 109C766 100 847 87 911 71L857 15C747 42 546 62 379 70 387 86 396 113 399 131 467 128 541 123 613 116L613 196 403 196 403 436 613 436 613 518 375 518 375 929 442 929 442 582 613 582 613 708ZM468 258L613 258 613 374 468 374ZM681 258L835 258 835 374 681 374Z"/>
</svg>