<svg xmlns="http://www.w3.org/2000/svg"
    viewBox="0 0 1000 1000">
  <!--
© 2014-2021 Adobe (http://www.adobe.com/).
Noto is a trademark of Google Inc.
This Font Software is licensed under the SIL Open Font License, Version 1.1. This Font Software is distributed on an "AS IS" BASIS, WITHOUT WARRANTIES OR CONDITIONS OF ANY KIND, either express or implied. See the SIL Open Font License for the specific language, permissions and limitations governing your use of this Font Software.
http://scripts.sil.org/OFL
  -->
<path d="M496 228L809 228 809 308 496 308ZM496 95L809 95 809 174 496 174ZM428 40L428 364 880 364 880 40ZM31 684L53 756C136 724 243 682 344 641L332 575 222 616 222 406 324 406 324 339 222 339 222 136 341 136 341 68 40 68 40 136 154 136 154 339 56 339 56 406 154 406 154 641ZM332 420L332 485 467 485C425 569 360 643 286 693 302 704 328 726 340 739 383 706 425 664 462 615L554 615C500 709 413 803 330 850 348 861 368 881 380 897 471 837 568 723 620 615L713 615C672 724 599 833 517 888 536 898 558 917 571 931 658 866 736 737 775 615L858 615C844 775 830 839 812 857 804 866 796 868 782 868 767 868 735 867 699 863 709 881 716 909 716 928 755 931 792 930 813 928 837 926 854 920 869 903 897 873 913 793 930 584 931 574 932 554 932 554L503 554C517 532 529 509 540 485L961 485 961 420Z"/>
</svg>