<svg xmlns="http://www.w3.org/2000/svg" name="gid8623" data-unicode="瑓"
    viewBox="0 0 1000 1000">
  <!--
© 2014-2021 Adobe (http://www.adobe.com/).
Noto is a trademark of Google Inc.
This Font Software is licensed under the SIL Open Font License, Version 1.1. This Font Software is distributed on an "AS IS" BASIS, WITHOUT WARRANTIES OR CONDITIONS OF ANY KIND, either express or implied. See the SIL Open Font License for the specific language, permissions and limitations governing your use of this Font Software.
http://scripts.sil.org/OFL
  -->
<path d="M489 404C509 446 530 503 539 537L584 517C575 485 553 431 533 389ZM770 385C757 424 731 484 712 522L751 539C772 503 797 450 821 403ZM31 749L48 821C134 793 243 758 347 724L337 656 230 690 230 472 334 472 334 404 230 404 230 190 346 190 346 122 42 122 42 190 161 190 161 404 55 404 55 472 161 472 161 711ZM614 44L614 144 363 144 363 211 614 211 614 300 391 300 391 624 568 624C506 719 405 807 304 851 321 865 342 892 353 910 451 860 549 770 614 667L614 960 686 960 686 660C745 759 833 852 919 904 930 886 953 859 970 845 883 801 792 714 736 624L918 624 918 300 686 300 686 211 947 211 947 144 686 144 686 44ZM454 361L618 361 618 563 454 563ZM682 361L853 361 853 563 682 563Z"/>
</svg>