<svg xmlns="http://www.w3.org/2000/svg"
    viewBox="0 0 1000 1000">
  <!--
© 2014-2021 Adobe (http://www.adobe.com/).
Noto is a trademark of Google Inc.
This Font Software is licensed under the SIL Open Font License, Version 1.1. This Font Software is distributed on an "AS IS" BASIS, WITHOUT WARRANTIES OR CONDITIONS OF ANY KIND, either express or implied. See the SIL Open Font License for the specific language, permissions and limitations governing your use of this Font Software.
http://scripts.sil.org/OFL
  -->
<path d="M464 18C439 68 393 144 350 207 407 278 461 358 486 412L549 380C525 335 474 264 426 205 461 153 503 89 532 35ZM870 18C839 68 782 144 730 207 799 277 867 358 899 412L961 381C929 335 868 263 809 205 852 154 902 92 937 38ZM31 726L47 798C135 773 252 740 362 707L353 638 234 672 234 445 342 445 342 378 234 378 234 162 353 162 353 93 46 93 46 162 164 162 164 378 58 378 58 445 164 445 164 691ZM622 388C616 411 604 442 592 468L390 468 390 933 459 933 459 891 862 891 862 928 933 928 933 468 667 468C677 450 688 429 699 407L757 379C729 334 672 262 619 204 656 153 701 91 733 37L665 18C638 67 587 144 540 206 599 270 655 343 687 396ZM459 828L459 529 862 529 862 828ZM745 548C722 582 693 614 660 645 623 621 585 598 551 578L514 614C547 633 584 656 619 680 576 714 528 744 482 768 495 779 517 800 526 810 572 784 620 750 665 713 708 743 745 773 771 798L810 757C785 733 748 705 706 676 742 642 775 605 801 567Z"/>
</svg>