<svg xmlns="http://www.w3.org/2000/svg"
    viewBox="0 0 1000 1000">
  <!--
© 2014-2021 Adobe (http://www.adobe.com/).
Noto is a trademark of Google Inc.
This Font Software is licensed under the SIL Open Font License, Version 1.1. This Font Software is distributed on an "AS IS" BASIS, WITHOUT WARRANTIES OR CONDITIONS OF ANY KIND, either express or implied. See the SIL Open Font License for the specific language, permissions and limitations governing your use of this Font Software.
http://scripts.sil.org/OFL
  -->
<path d="M721 397C705 463 670 569 637 651 687 747 732 859 749 929L809 906C789 842 744 736 698 650 727 577 760 488 782 410ZM874 397C854 463 813 569 776 651 831 747 882 859 902 929L963 906C940 841 890 735 840 650 872 577 911 488 936 412ZM31 722L46 794C132 771 244 739 351 709L343 640 226 672 226 447 326 447 326 379 226 379 226 164 341 164 341 95 43 95 43 164 157 164 157 379 56 379 56 447 157 447 157 690ZM423 37L423 99 561 99C495 185 395 266 301 307 315 322 333 348 342 368 388 344 435 311 479 274 540 222 596 161 636 101 700 207 812 302 927 357 937 338 956 309 970 295 851 247 733 149 678 37ZM785 274L479 274 479 334 785 334ZM426 544C462 565 503 597 522 622L555 585 555 737C535 710 491 675 454 652L423 682 423 467 555 467 555 581C534 557 493 527 458 509ZM363 407L363 930 423 930 423 689C460 713 501 749 520 777L555 739 555 856C555 866 552 869 543 870 534 870 505 870 471 870 480 886 490 912 493 929 540 929 570 927 590 917 611 906 616 887 616 858L616 407Z"/>
</svg>