<svg xmlns="http://www.w3.org/2000/svg" name="gid8629" data-unicode="瑜"
    viewBox="0 0 1000 1000">
  <!--
© 2014-2021 Adobe (http://www.adobe.com/).
Noto is a trademark of Google Inc.
This Font Software is licensed under the SIL Open Font License, Version 1.1. This Font Software is distributed on an "AS IS" BASIS, WITHOUT WARRANTIES OR CONDITIONS OF ANY KIND, either express or implied. See the SIL Open Font License for the specific language, permissions and limitations governing your use of this Font Software.
http://scripts.sil.org/OFL
  -->
<path d="M721 427C705 493 670 599 637 681 687 777 732 889 749 959L809 936C789 872 744 766 698 680 727 607 760 518 782 440ZM874 427C854 493 813 599 776 681 831 777 882 889 902 959L963 936C940 871 890 765 840 680 872 607 911 518 936 442ZM31 752L46 824C132 801 244 769 351 739L343 670 226 702 226 477 326 477 326 409 226 409 226 194 341 194 341 125 43 125 43 194 157 194 157 409 56 409 56 477 157 477 157 720ZM423 67L423 129 561 129C495 215 395 296 301 337 315 352 333 378 342 398 388 374 435 341 479 304 540 252 596 191 636 131 700 237 812 332 927 387 937 368 956 339 970 325 851 277 733 179 678 67ZM785 304L479 304 479 364 785 364ZM426 574C462 595 503 627 522 652L555 615 555 767C535 740 491 705 454 682L423 712 423 497 555 497 555 611C534 587 493 557 458 539ZM363 437L363 960 423 960 423 719C460 743 501 779 520 807L555 769 555 886C555 896 552 899 543 900 534 900 505 900 471 900 480 916 490 942 493 959 540 959 570 957 590 947 611 936 616 917 616 888L616 437Z"/>
</svg>