<svg xmlns="http://www.w3.org/2000/svg"
    viewBox="0 0 1000 1000">
  <!--
© 2014-2021 Adobe (http://www.adobe.com/).
Noto is a trademark of Google Inc.
This Font Software is licensed under the SIL Open Font License, Version 1.1. This Font Software is distributed on an "AS IS" BASIS, WITHOUT WARRANTIES OR CONDITIONS OF ANY KIND, either express or implied. See the SIL Open Font License for the specific language, permissions and limitations governing your use of this Font Software.
http://scripts.sil.org/OFL
  -->
<path d="M33 721L50 792C143 767 268 731 386 697L377 628 237 667 237 443 347 443 347 375 237 375 237 160 370 160 370 93 45 93 45 160 168 160 168 375 58 375 58 443 168 443 168 686ZM401 115L401 521 487 521C474 684 441 812 280 878 295 891 316 916 324 933 500 855 542 710 557 521L635 521 635 807C635 868 644 885 666 898 685 910 717 914 747 914 763 914 819 914 836 914 859 914 893 912 910 908 930 903 946 895 955 881 963 868 968 838 970 808 952 803 929 793 915 782 914 808 912 828 908 837 904 845 893 849 883 851 874 852 853 853 835 853 812 853 775 853 758 853 740 853 727 851 718 849 707 844 704 833 704 814L704 521 906 521 906 115 643 115 685 19 608 10C601 40 586 82 572 115ZM469 348L616 348 616 455 469 455ZM685 348L835 348 835 455 685 455ZM469 181L616 181 616 286 469 286ZM685 181L835 181 835 286 685 286ZM848 640C858 658 868 678 877 699L793 706C810 659 829 600 845 549L788 535C778 586 758 660 740 710L714 712 722 766 893 743 901 768 949 751C941 718 917 666 893 626Z"/>
</svg>