<svg xmlns="http://www.w3.org/2000/svg" name="gid8647" data-unicode="瑱"
    viewBox="0 0 1000 1000">
  <!--
© 2014-2021 Adobe (http://www.adobe.com/).
Noto is a trademark of Google Inc.
This Font Software is licensed under the SIL Open Font License, Version 1.1. This Font Software is distributed on an "AS IS" BASIS, WITHOUT WARRANTIES OR CONDITIONS OF ANY KIND, either express or implied. See the SIL Open Font License for the specific language, permissions and limitations governing your use of this Font Software.
http://scripts.sil.org/OFL
  -->
<path d="M719 838C786 873 870 927 913 960L969 917C924 883 838 832 774 799ZM586 473L810 473 810 529 586 529ZM586 574L810 574 810 631 586 631ZM586 373L810 373 810 428 586 428ZM518 324L518 680 881 680 881 324ZM381 353L381 788 957 788 957 728 449 728 449 353ZM553 795C507 836 408 882 325 906 338 921 357 945 366 960 453 933 554 885 616 835ZM822 57C748 86 616 113 495 131L495 40 428 40 428 190C428 260 459 276 574 276 598 276 805 276 831 276 914 276 936 257 944 174 926 171 901 163 885 153 881 213 872 222 825 222 781 222 607 222 575 222 506 222 495 217 495 190L495 182C627 163 776 135 876 101ZM32 747L47 819C137 795 254 763 365 731L359 663 233 696 233 473 338 473 338 406 233 406 233 195 360 195 360 126 45 126 45 195 163 195 163 406 58 406 58 473 163 473 163 715Z"/>
</svg>