<svg xmlns="http://www.w3.org/2000/svg"
    viewBox="0 0 1000 1000">
  <!--
© 2014-2021 Adobe (http://www.adobe.com/).
Noto is a trademark of Google Inc.
This Font Software is licensed under the SIL Open Font License, Version 1.1. This Font Software is distributed on an "AS IS" BASIS, WITHOUT WARRANTIES OR CONDITIONS OF ANY KIND, either express or implied. See the SIL Open Font License for the specific language, permissions and limitations governing your use of this Font Software.
http://scripts.sil.org/OFL
  -->
<path d="M327 299C372 340 424 397 447 436L498 393C474 354 422 299 375 261ZM344 70C387 112 434 172 454 212L507 171C487 131 438 74 395 33ZM34 732L47 806C134 783 247 755 355 727L348 657 228 687 228 455 326 455 326 385 228 385 228 173 339 173 339 103 46 103 46 173 158 173 158 385 60 385 60 455 158 455 158 704ZM472 506L320 506 320 568 406 568 406 745C367 785 323 825 287 856L326 923C367 880 404 841 439 800 489 869 563 908 663 912 737 916 872 915 947 911 950 890 960 858 968 842 886 847 738 849 666 846 579 842 508 806 472 743ZM596 429L699 429 699 507 596 507ZM757 429L863 429 863 507 757 507ZM596 299L699 299 699 375 596 375ZM757 299L863 299 863 375 757 375ZM694 9L694 109 510 109 510 172 694 172 694 242 535 242 535 564 694 564 694 637 497 637 497 699 694 699 694 821 762 821 762 699 964 699 964 637 762 637 762 564 926 564 926 242 762 242 762 172 951 172 951 109 762 109 762 9Z"/>
</svg>