<svg xmlns="http://www.w3.org/2000/svg" name="gid8660" data-unicode="璋"
    viewBox="0 0 1000 1000">
  <!--
© 2014-2021 Adobe (http://www.adobe.com/).
Noto is a trademark of Google Inc.
This Font Software is licensed under the SIL Open Font License, Version 1.1. This Font Software is distributed on an "AS IS" BASIS, WITHOUT WARRANTIES OR CONDITIONS OF ANY KIND, either express or implied. See the SIL Open Font License for the specific language, permissions and limitations governing your use of this Font Software.
http://scripts.sil.org/OFL
  -->
<path d="M501 543L829 543 829 614 501 614ZM501 426L829 426 829 495 501 495ZM32 747L47 819C141 793 267 758 385 725L376 656 237 694 237 470 347 470 347 402 237 402 237 187 370 187 370 119 45 119 45 187 168 187 168 402 58 402 58 470 168 470 168 712ZM622 44L622 106 404 106 404 165 484 165C498 195 512 232 519 261L365 261 365 320 956 320 956 261 795 261C810 234 827 200 844 165L934 165 934 106 697 106 697 44ZM553 165L771 165C759 195 742 234 728 261L583 261 587 260C581 234 568 197 553 165ZM429 375L429 665 621 665 621 739 362 739 362 799 621 799 621 960 696 960 696 799 961 799 961 739 696 739 696 665 903 665 903 375Z"/>
</svg>