<svg xmlns="http://www.w3.org/2000/svg"
    viewBox="0 0 1000 1000">
  <!--
© 2014-2021 Adobe (http://www.adobe.com/).
Noto is a trademark of Google Inc.
This Font Software is licensed under the SIL Open Font License, Version 1.1. This Font Software is distributed on an "AS IS" BASIS, WITHOUT WARRANTIES OR CONDITIONS OF ANY KIND, either express or implied. See the SIL Open Font License for the specific language, permissions and limitations governing your use of this Font Software.
http://scripts.sil.org/OFL
  -->
<path d="M514 480L806 480 806 599 514 599ZM445 421L445 658 878 658 878 421ZM738 18L676 31C701 136 732 217 772 282L545 282C584 219 615 146 634 62L591 45 579 48 395 48 395 110 553 110C540 149 524 186 505 220 479 198 444 172 415 153L378 195C408 218 446 248 473 272 433 329 386 374 337 404L337 370 235 370 235 157 354 157 354 88 44 88 44 157 164 157 164 370 57 370 57 440 164 440 164 672C114 689 69 704 32 715L50 787C139 756 258 714 370 673L359 605 235 648 235 440 337 440 337 410C351 422 369 443 378 457 433 422 485 372 528 309L528 344 790 344 790 309C828 364 874 408 931 448 940 427 961 404 978 389 928 356 887 320 852 276 887 255 927 227 961 200L916 154C894 177 856 210 823 234 810 213 798 191 787 166 820 145 858 116 893 89L851 41C831 62 797 93 768 117 757 87 747 54 738 18ZM765 664C754 709 728 776 708 817L758 835 542 835 601 814C594 777 571 717 547 671L485 690C507 735 528 796 536 835L350 835 350 900 959 900 959 835 765 835C787 797 814 738 839 687Z"/>
</svg>