<svg xmlns="http://www.w3.org/2000/svg"
    viewBox="0 0 1000 1000">
  <!--
© 2014-2021 Adobe (http://www.adobe.com/).
Noto is a trademark of Google Inc.
This Font Software is licensed under the SIL Open Font License, Version 1.1. This Font Software is distributed on an "AS IS" BASIS, WITHOUT WARRANTIES OR CONDITIONS OF ANY KIND, either express or implied. See the SIL Open Font License for the specific language, permissions and limitations governing your use of this Font Software.
http://scripts.sil.org/OFL
  -->
<path d="M821 117C805 158 773 219 748 258L793 275 689 275 689 101C769 92 845 79 905 64L861 9C749 38 549 59 382 70 390 85 398 110 400 126 470 122 546 117 620 109L620 275 497 275 556 252C546 220 520 171 496 133L436 153C459 191 484 242 494 275L358 275 358 339 555 339C501 421 415 496 332 535 348 549 369 573 380 591 396 582 411 573 427 562L427 929 494 929 494 887 816 887 816 924 886 924 886 552 923 575C935 557 957 532 973 519 896 483 810 412 755 339L954 339 954 275 803 275C829 240 861 187 888 140ZM620 354L620 526 689 526 689 352C736 424 806 496 876 545L450 545C516 495 578 426 620 354ZM622 604L622 687 494 687 494 604ZM687 604L816 604 816 687 687 687ZM622 743L622 830 494 830 494 743ZM687 743L816 743 816 830 687 830ZM32 714L48 786C141 761 264 728 381 696L374 627 237 663 237 436 347 436 347 368 237 368 237 154 365 154 365 86 45 86 45 154 168 154 168 368 58 368 58 436 168 436 168 681Z"/>
</svg>