<svg xmlns="http://www.w3.org/2000/svg" name="gid8701" data-unicode="瓔"
    viewBox="0 0 1000 1000">
  <!--
© 2014-2021 Adobe (http://www.adobe.com/).
Noto is a trademark of Google Inc.
This Font Software is licensed under the SIL Open Font License, Version 1.1. This Font Software is distributed on an "AS IS" BASIS, WITHOUT WARRANTIES OR CONDITIONS OF ANY KIND, either express or implied. See the SIL Open Font License for the specific language, permissions and limitations governing your use of this Font Software.
http://scripts.sil.org/OFL
  -->
<path d="M427 218L548 218 548 272 427 272ZM427 319L548 319 548 374 427 374ZM427 119L548 119 548 172 427 172ZM368 71L368 422 608 422 608 71ZM511 451C536 472 565 504 579 526L623 496C609 475 579 444 554 424ZM814 450C849 484 887 531 905 562L952 534C934 502 894 456 860 424ZM726 218L851 218 851 272 726 272ZM726 319L851 319 851 374 726 374ZM726 119L851 119 851 172 726 172ZM667 71L667 422 910 422 910 71ZM410 425C392 464 354 511 315 537 327 547 349 564 359 575 397 548 440 497 466 450ZM711 425C694 461 658 504 619 530 633 538 654 556 664 567 700 542 742 494 768 451ZM320 622L320 668 220 697 220 471 319 471 319 404 220 404 220 190 334 190 334 122 42 122 42 190 153 190 153 404 56 404 56 471 153 471 153 716 31 749 46 819C129 795 237 763 341 730L334 682 471 682C444 730 416 776 394 811L464 832 478 808C516 818 555 830 594 843 529 870 439 888 313 900 323 915 338 942 343 959 498 942 605 914 679 872 761 902 836 933 886 960L937 908C887 883 817 854 741 828 783 788 809 740 826 682L960 682 960 622 582 622 619 549 550 534 504 622ZM508 757L550 682 747 682C732 731 707 770 666 803 612 785 558 770 508 757Z"/>
</svg>