<svg xmlns="http://www.w3.org/2000/svg" name="gid8702" data-unicode="瓖"
    viewBox="0 0 1000 1000">
  <!--
© 2014-2021 Adobe (http://www.adobe.com/).
Noto is a trademark of Google Inc.
This Font Software is licensed under the SIL Open Font License, Version 1.1. This Font Software is distributed on an "AS IS" BASIS, WITHOUT WARRANTIES OR CONDITIONS OF ANY KIND, either express or implied. See the SIL Open Font License for the specific language, permissions and limitations governing your use of this Font Software.
http://scripts.sil.org/OFL
  -->
<path d="M444 255L563 255 563 338 444 338ZM732 255L853 255 853 338 732 338ZM31 748L48 816C128 791 231 758 329 726L320 661 218 693 218 469 308 469 308 403 218 403 218 189 326 189 326 122 42 122 42 189 151 189 151 403 56 403 56 469 151 469 151 713ZM608 43L608 110 351 110 351 168 956 168 956 110 684 110 684 43ZM673 208L673 383 730 383 730 436 566 436 566 383 624 383 624 208 385 208 385 383 497 383 497 436 362 436 362 486 497 486 497 536 384 536 384 587 497 587 497 638 333 638 333 694 545 694C478 737 386 770 301 791 313 804 332 832 340 844 384 830 432 812 477 792L477 880 387 892 406 952C495 937 614 917 729 897L726 843 542 870 542 759C577 739 609 718 636 694L646 694C695 826 790 920 931 960 939 944 958 919 972 906 909 891 855 864 811 828 854 808 907 781 947 751L905 711C871 735 815 769 772 791 746 763 725 730 709 694L958 694 958 638 800 638 800 587 927 587 927 536 800 536 800 486 943 486 943 436 800 436 800 383 915 383 915 208ZM566 486L730 486 730 536 566 536ZM566 587L730 587 730 638 566 638Z"/>
</svg>