<svg xmlns="http://www.w3.org/2000/svg" name="gid8704" data-unicode="瓚"
    viewBox="0 0 1000 1000">
  <!--
© 2014-2021 Adobe (http://www.adobe.com/).
Noto is a trademark of Google Inc.
This Font Software is licensed under the SIL Open Font License, Version 1.1. This Font Software is distributed on an "AS IS" BASIS, WITHOUT WARRANTIES OR CONDITIONS OF ANY KIND, either express or implied. See the SIL Open Font License for the specific language, permissions and limitations governing your use of this Font Software.
http://scripts.sil.org/OFL
  -->
<path d="M503 607L815 607 815 659 503 659ZM503 705L815 705 815 757 503 757ZM503 512L815 512 815 561 503 561ZM488 384L507 435C552 421 597 409 645 395L641 349 575 365 575 290 632 290 632 238 540 238 540 173 621 173 621 122 540 122 540 42 483 42 483 122 439 122C444 105 449 87 453 70L402 60C392 108 376 156 351 193 363 199 385 214 395 221 404 207 412 191 420 173L483 173 483 238 363 238 363 290 426 290C418 359 396 406 334 436 346 444 364 465 371 478 445 439 471 378 480 290L521 290 521 377ZM769 42L769 122 726 122 737 73 686 62C677 111 664 160 641 197 654 204 676 217 685 225 694 210 702 192 709 173L769 173 769 237 654 237 654 288 712 288C706 347 685 390 631 416 643 425 659 444 666 457L435 457 435 811 552 811C506 850 415 892 338 915 353 927 376 948 387 961 465 937 557 891 615 846L555 811 749 811 704 847C776 883 854 927 899 960L964 921C914 889 833 846 759 811L885 811 885 457 670 457C735 420 759 364 768 288L808 288 808 357C808 397 811 410 821 420 831 430 848 433 864 433 871 433 892 433 900 433 911 433 924 432 932 428 941 424 949 417 953 407 958 399 961 371 961 349 949 345 934 338 925 330 924 351 923 367 920 374 918 381 916 385 913 386 910 388 904 388 897 388 891 388 882 388 877 388 872 388 868 387 866 385 863 382 862 376 862 363L862 288 954 288 954 237 827 237 827 173 930 173 930 122 827 122 827 42ZM33 756L49 828C136 802 249 768 356 734L347 666 226 702 226 477 326 477 326 409 226 409 226 194 341 194 341 125 43 125 43 194 157 194 157 409 56 409 56 477 157 477 157 722Z"/>
</svg>