<svg xmlns="http://www.w3.org/2000/svg"
    viewBox="0 0 1000 1000">
  <!--
© 2014-2021 Adobe (http://www.adobe.com/).
Noto is a trademark of Google Inc.
This Font Software is licensed under the SIL Open Font License, Version 1.1. This Font Software is distributed on an "AS IS" BASIS, WITHOUT WARRANTIES OR CONDITIONS OF ANY KIND, either express or implied. See the SIL Open Font License for the specific language, permissions and limitations governing your use of this Font Software.
http://scripts.sil.org/OFL
  -->
<path d="M542 82L542 368C542 524 531 735 431 892 447 900 471 919 481 933 589 763 603 531 603 368L603 147 683 132 683 795 566 812 580 876C647 864 729 849 813 832 817 860 819 886 820 908L867 898C864 837 846 744 823 673L780 683C789 712 797 744 803 775L742 785 742 124 723 124C756 117 789 109 821 100 829 444 848 759 927 929 939 913 961 890 977 879 902 729 885 410 876 84 898 77 918 70 936 62L876 14C809 44 692 73 584 94ZM220 11C213 51 204 89 193 124L51 124 51 189 169 189C135 267 86 332 22 378 38 390 64 415 74 429 104 405 130 378 154 348L154 406 407 406 407 345C430 376 456 402 484 421 496 403 517 379 532 366 472 331 419 263 386 189L511 189 511 124 265 124C275 91 283 56 290 20ZM243 189L322 189C342 244 371 298 405 343L158 343C192 298 220 247 243 189ZM63 488L63 552 159 552C146 611 128 677 113 723L182 733 196 686 362 686C352 796 341 843 325 858 318 866 308 867 292 866 275 866 230 866 184 862 196 880 203 908 205 927 251 930 298 930 321 928 349 927 366 921 382 904 408 878 422 813 435 654 437 644 438 623 438 623L212 623 229 552 490 552 490 488Z"/>
</svg>