<svg xmlns="http://www.w3.org/2000/svg"
    viewBox="0 0 1000 1000">
  <!--
© 2014-2021 Adobe (http://www.adobe.com/).
Noto is a trademark of Google Inc.
This Font Software is licensed under the SIL Open Font License, Version 1.1. This Font Software is distributed on an "AS IS" BASIS, WITHOUT WARRANTIES OR CONDITIONS OF ANY KIND, either express or implied. See the SIL Open Font License for the specific language, permissions and limitations governing your use of this Font Software.
http://scripts.sil.org/OFL
  -->
<path d="M201 449C234 517 262 607 271 666L330 648C320 589 291 500 256 432ZM814 266L814 466 709 466 709 180C782 167 850 151 903 131L859 75C820 90 767 103 709 115L709 24 641 24 641 128C573 139 502 148 436 154 444 171 453 196 456 212 515 207 578 200 641 191L641 466 540 466 540 267 476 267 476 592 540 592 540 531 641 531 641 656C641 737 660 758 730 758 745 758 818 758 833 758 891 758 910 727 917 634 897 629 872 618 856 607 854 678 850 694 828 694 813 694 751 694 739 694 713 694 709 689 709 656L709 531 814 531 814 567 880 567 880 266ZM27 842L45 910C128 887 235 858 337 829L329 765 153 811C168 684 184 507 198 337L359 337 354 825C354 878 389 913 476 913L827 913C929 913 956 887 967 761 949 758 920 748 903 738 899 836 887 849 834 849L466 849C437 849 419 840 419 813 419 778 420 736 426 291 426 286 426 277 426 271L203 271 214 116 476 116 476 49 52 49 52 116 151 116C136 343 109 645 84 829Z"/>
</svg>