<svg xmlns="http://www.w3.org/2000/svg"
    viewBox="0 0 1000 1000">
  <!--
© 2014-2021 Adobe (http://www.adobe.com/).
Noto is a trademark of Google Inc.
This Font Software is licensed under the SIL Open Font License, Version 1.1. This Font Software is distributed on an "AS IS" BASIS, WITHOUT WARRANTIES OR CONDITIONS OF ANY KIND, either express or implied. See the SIL Open Font License for the specific language, permissions and limitations governing your use of this Font Software.
http://scripts.sil.org/OFL
  -->
<path d="M650 460C685 527 719 616 731 674L785 654C773 596 738 508 700 441ZM40 403L40 469 509 469 509 403ZM116 225C138 278 158 350 162 396L227 377C221 331 200 261 176 208ZM368 202C356 255 332 332 313 379L374 396C395 350 418 280 440 219ZM469 843L490 912C576 893 686 870 793 844L788 785 611 819C623 694 636 518 646 347L809 347C811 683 811 930 904 930 952 930 965 891 971 782 958 772 940 753 927 738 926 807 921 860 911 860 873 860 875 576 877 282L650 282 658 130 961 130 961 64 505 64 505 130 590 130C582 354 560 650 540 831ZM236 11L236 123 64 123 64 189 490 189 490 123 306 123 306 11ZM100 548L100 928 169 928 169 875 376 875 376 921 447 921 447 548ZM169 808L169 615 376 615 376 808Z"/>
</svg>