<svg xmlns="http://www.w3.org/2000/svg"
    viewBox="0 0 1000 1000">
  <!--
© 2014-2021 Adobe (http://www.adobe.com/).
Noto is a trademark of Google Inc.
This Font Software is licensed under the SIL Open Font License, Version 1.1. This Font Software is distributed on an "AS IS" BASIS, WITHOUT WARRANTIES OR CONDITIONS OF ANY KIND, either express or implied. See the SIL Open Font License for the specific language, permissions and limitations governing your use of this Font Software.
http://scripts.sil.org/OFL
  -->
<path d="M117 736C152 770 192 820 207 853L262 822C245 788 205 741 169 708ZM644 448C679 517 712 610 724 671L777 653C766 593 732 502 694 432ZM246 14L246 74 48 74 48 133 246 133 246 185 71 185 71 448 246 448 246 512 37 519 42 578 456 559C466 574 474 589 480 602L527 574C512 538 473 486 434 448L490 448 490 185 311 185 311 133 504 133 504 74 311 74 311 14ZM347 583L347 639 40 639 40 697 347 697 347 851C347 862 344 865 332 866 318 867 278 867 228 865 238 883 250 909 254 927 315 927 356 927 382 917 408 906 415 887 415 852L415 697 517 697 517 639 415 639 415 583ZM129 339L246 339 246 401 129 401ZM311 339L430 339 430 401 311 401ZM129 233L246 233 246 293 129 293ZM311 233L430 233 430 293 311 293ZM383 466C395 478 407 492 418 506L311 510 311 448 417 448ZM460 841L480 907C570 892 692 870 805 848L800 785 605 818C617 691 629 512 638 339L804 339C806 668 811 929 913 929 965 929 978 882 983 748 970 740 952 724 939 708 937 796 933 861 920 861 871 861 869 565 870 273L642 273 648 131 950 131 950 64 512 64 512 131 584 131C576 354 556 648 536 829Z"/>
</svg>