<svg xmlns="http://www.w3.org/2000/svg"
    viewBox="0 0 1000 1000">
  <!--
© 2014-2021 Adobe (http://www.adobe.com/).
Noto is a trademark of Google Inc.
This Font Software is licensed under the SIL Open Font License, Version 1.1. This Font Software is distributed on an "AS IS" BASIS, WITHOUT WARRANTIES OR CONDITIONS OF ANY KIND, either express or implied. See the SIL Open Font License for the specific language, permissions and limitations governing your use of this Font Software.
http://scripts.sil.org/OFL
  -->
<path d="M304 319L695 319 695 410 304 410ZM235 268L235 462 767 462 767 268ZM57 550L57 612 218 612 218 930 290 930 290 892 711 892 711 927 784 927 784 612 945 612 945 550 784 550 784 496 711 496 711 550 290 550 290 496 218 496 218 550ZM290 612L711 612 711 692 290 692ZM290 747L711 747 711 830 290 830ZM760 21C743 55 707 106 680 139L696 145 536 145 536 10 460 10 460 145 299 145 324 133C308 102 274 56 243 22L176 49C201 78 227 115 244 145L86 145 86 345 157 345 157 210 850 210 850 345 924 345 924 145 758 145C783 117 812 82 838 47Z"/>
</svg>