<svg xmlns="http://www.w3.org/2000/svg"
    viewBox="0 0 1000 1000">
  <!--
© 2014-2021 Adobe (http://www.adobe.com/).
Noto is a trademark of Google Inc.
This Font Software is licensed under the SIL Open Font License, Version 1.1. This Font Software is distributed on an "AS IS" BASIS, WITHOUT WARRANTIES OR CONDITIONS OF ANY KIND, either express or implied. See the SIL Open Font License for the specific language, permissions and limitations governing your use of this Font Software.
http://scripts.sil.org/OFL
  -->
<path d="M318 216L318 319C318 387 343 403 441 403 461 403 609 403 631 403 703 403 724 383 731 298 713 294 685 285 671 275 667 337 660 345 623 345 592 345 469 345 446 345 395 345 387 342 387 319L387 216ZM228 221C200 278 147 330 69 355L117 403C205 370 256 310 285 246ZM394 188C452 212 522 255 560 287L601 241C564 213 493 172 436 147ZM691 240C757 285 835 350 871 395L926 357C888 312 808 248 743 206ZM79 79L79 247 151 247 151 143 847 143 847 247 923 247 923 79 536 79 536 10 461 10 461 79ZM463 642L463 716 244 716 244 642ZM534 642L760 642 760 716 534 716ZM463 585L244 585 244 512 463 512ZM534 585L534 512 760 512 760 585ZM173 452L173 931 244 931 244 775 463 775 463 921 534 921 534 775 760 775 760 851C760 864 755 869 740 869 726 869 675 870 621 868 630 886 641 911 644 929 720 929 767 929 796 919 824 908 832 889 832 852L832 452Z"/>
</svg>