<svg xmlns="http://www.w3.org/2000/svg" name="gid8768" data-unicode="申"
    viewBox="0 0 1000 1000">
  <!--
© 2014-2021 Adobe (http://www.adobe.com/).
Noto is a trademark of Google Inc.
This Font Software is licensed under the SIL Open Font License, Version 1.1. This Font Software is distributed on an "AS IS" BASIS, WITHOUT WARRANTIES OR CONDITIONS OF ANY KIND, either express or implied. See the SIL Open Font License for the specific language, permissions and limitations governing your use of this Font Software.
http://scripts.sil.org/OFL
  -->
<path d="M186 460L458 460 458 613 186 613ZM186 390L186 244 458 244 458 390ZM816 460L816 613 536 613 536 460ZM816 390L536 390 536 244 816 244ZM458 40L458 172 112 172 112 742 186 742 186 685 458 685 458 959 536 959 536 685 816 685 816 737 893 737 893 172 536 172 536 40Z"/>
</svg>