<svg xmlns="http://www.w3.org/2000/svg"
    viewBox="0 0 1000 1000">
  <!--
© 2014-2021 Adobe (http://www.adobe.com/).
Noto is a trademark of Google Inc.
This Font Software is licensed under the SIL Open Font License, Version 1.1. This Font Software is distributed on an "AS IS" BASIS, WITHOUT WARRANTIES OR CONDITIONS OF ANY KIND, either express or implied. See the SIL Open Font License for the specific language, permissions and limitations governing your use of this Font Software.
http://scripts.sil.org/OFL
  -->
<path d="M74 61L74 818 139 818 139 740 499 740 499 61ZM139 128L255 128 255 361 139 361ZM139 673L139 428 255 428 255 673ZM433 428L433 673 316 673 316 428ZM433 361L316 361 316 128 433 128ZM518 129L518 203 749 203 749 831C749 849 743 855 723 856 703 857 632 858 560 855 571 876 583 909 587 930 681 930 743 930 779 917 814 905 826 881 826 832L826 203 968 203 968 129Z"/>
</svg>