<svg xmlns="http://www.w3.org/2000/svg" name="gid8779" data-unicode="畀"
    viewBox="0 0 1000 1000">
  <!--
© 2014-2021 Adobe (http://www.adobe.com/).
Noto is a trademark of Google Inc.
This Font Software is licensed under the SIL Open Font License, Version 1.1. This Font Software is distributed on an "AS IS" BASIS, WITHOUT WARRANTIES OR CONDITIONS OF ANY KIND, either express or implied. See the SIL Open Font License for the specific language, permissions and limitations governing your use of this Font Software.
http://scripts.sil.org/OFL
  -->
<path d="M156 79L156 477 845 477 845 79ZM229 307L459 307 459 414 229 414ZM534 307L769 307 769 414 534 414ZM229 141L459 141 459 247 229 247ZM534 141L769 141 769 247 534 247ZM56 559L56 630 273 630 273 655C273 734 254 835 70 903 87 916 110 944 120 962 324 882 350 758 350 657L350 630 638 630 638 960 718 960 718 630 946 630 946 559Z"/>
</svg>