<svg xmlns="http://www.w3.org/2000/svg" name="gid8811" data-unicode="畩"
    viewBox="0 0 1000 1000">
  <!--
© 2014-2021 Adobe (http://www.adobe.com/).
Noto is a trademark of Google Inc.
This Font Software is licensed under the SIL Open Font License, Version 1.1. This Font Software is distributed on an "AS IS" BASIS, WITHOUT WARRANTIES OR CONDITIONS OF ANY KIND, either express or implied. See the SIL Open Font License for the specific language, permissions and limitations governing your use of this Font Software.
http://scripts.sil.org/OFL
  -->
<path d="M900 391C865 434 807 492 757 536 737 459 723 374 713 284L951 284 951 216 699 216 699 49 626 49 626 216 392 216 392 284 598 284C549 391 471 484 379 549L379 122 74 122 74 862 131 862 131 775 379 775 379 600 401 623C436 598 471 570 503 538L503 847 391 872 409 942C502 918 627 886 746 856L738 791 571 831 571 461C604 419 633 373 658 323 692 614 761 844 923 960 935 941 957 915 974 901 878 840 816 733 774 598 832 554 902 491 957 436ZM131 188L197 188 197 405 131 405ZM131 709L131 468 197 468 197 709ZM321 468L321 709 250 709 250 468ZM321 405L250 405 250 188 321 188Z"/>
</svg>