<svg xmlns="http://www.w3.org/2000/svg"
    viewBox="0 0 1000 1000">
  <!--
© 2014-2021 Adobe (http://www.adobe.com/).
Noto is a trademark of Google Inc.
This Font Software is licensed under the SIL Open Font License, Version 1.1. This Font Software is distributed on an "AS IS" BASIS, WITHOUT WARRANTIES OR CONDITIONS OF ANY KIND, either express or implied. See the SIL Open Font License for the specific language, permissions and limitations governing your use of this Font Software.
http://scripts.sil.org/OFL
  -->
<path d="M274 360C228 416 146 467 69 501 85 512 110 534 121 547 198 508 286 446 339 382ZM642 393C718 434 811 496 856 538L912 498C864 455 770 395 695 357ZM105 288L105 348 462 348 462 473C462 484 459 487 445 488 432 489 385 489 334 487 343 504 353 526 358 543 427 544 472 544 500 535 528 525 536 510 536 475L536 348 894 348 894 288ZM713 189C783 219 856 243 922 258 931 240 947 213 962 197 811 166 640 101 526 9L457 9C372 90 208 166 42 207 55 223 70 249 77 266 152 245 228 217 297 186L297 228 713 228ZM496 66C544 105 608 142 678 174L322 174C392 140 453 103 496 66ZM242 752L462 752 462 837 242 837ZM242 697L242 614 462 614 462 697ZM763 752L763 837 533 837 533 752ZM763 697L533 697 533 614 763 614ZM169 557L169 930 242 930 242 894 763 894 763 930 839 930 839 557Z"/>
</svg>