<svg xmlns="http://www.w3.org/2000/svg" name="gid8826" data-unicode="畹"
    viewBox="0 0 1000 1000">
  <!--
© 2014-2021 Adobe (http://www.adobe.com/).
Noto is a trademark of Google Inc.
This Font Software is licensed under the SIL Open Font License, Version 1.1. This Font Software is distributed on an "AS IS" BASIS, WITHOUT WARRANTIES OR CONDITIONS OF ANY KIND, either express or implied. See the SIL Open Font License for the specific language, permissions and limitations governing your use of this Font Software.
http://scripts.sil.org/OFL
  -->
<path d="M694 366L694 852C694 927 713 944 779 944 793 944 869 944 884 944 943 944 960 911 967 794 948 789 924 779 910 768 907 868 904 886 878 886 863 886 799 886 787 886 760 886 755 880 755 852L755 427 856 427 856 656C856 665 854 667 846 667 838 668 816 668 787 667 796 684 805 709 807 727 848 727 876 726 894 715 913 704 918 686 918 658L918 366ZM405 170L405 336 473 336 473 232 873 232 873 336 942 336 942 170 703 170 703 47 631 47 631 170ZM512 450L602 450C595 515 583 574 567 627 543 604 510 577 477 555 490 522 502 487 512 450ZM74 122L74 851 131 851 131 755 377 755 377 649C390 658 404 668 411 675 426 655 439 633 452 609 486 635 522 668 544 695 503 796 445 867 374 908 387 921 404 945 412 960 555 870 642 697 667 397L629 390 618 392 526 392C532 363 537 333 542 303L479 294C464 418 431 532 377 612L377 122ZM131 185L197 185 197 401 131 401ZM131 690L131 465 197 465 197 690ZM319 465L319 690 250 690 250 465ZM319 401L250 401 250 185 319 185Z"/>
</svg>