<svg xmlns="http://www.w3.org/2000/svg"
    viewBox="0 0 1000 1000">
  <!--
© 2014-2021 Adobe (http://www.adobe.com/).
Noto is a trademark of Google Inc.
This Font Software is licensed under the SIL Open Font License, Version 1.1. This Font Software is distributed on an "AS IS" BASIS, WITHOUT WARRANTIES OR CONDITIONS OF ANY KIND, either express or implied. See the SIL Open Font License for the specific language, permissions and limitations governing your use of this Font Software.
http://scripts.sil.org/OFL
  -->
<path d="M73 92L73 821 130 821 130 725 377 725 377 92ZM130 155L197 155 197 371 130 371ZM130 660L130 435 197 435 197 660ZM319 435L319 660 249 660 249 435ZM319 371L249 371 249 155 319 155ZM386 842L386 904 965 904 965 842 711 842 711 758 923 758 923 697 711 697 711 629 917 629 917 323 711 323 711 254 956 254 956 192 711 192 711 107C792 97 868 84 928 68L875 16C772 44 582 62 424 71 431 87 439 111 442 128 506 125 574 121 642 114L642 192 407 192 407 254 642 254 642 323 443 323 443 629 642 629 642 697 439 697 439 758 642 758 642 842ZM509 501L642 501 642 575 509 575ZM711 501L849 501 849 575 711 575ZM509 377L642 377 642 450 509 450ZM711 377L849 377 849 450 711 450Z"/>
</svg>