<svg xmlns="http://www.w3.org/2000/svg"
    viewBox="0 0 1000 1000">
  <!--
© 2014-2021 Adobe (http://www.adobe.com/).
Noto is a trademark of Google Inc.
This Font Software is licensed under the SIL Open Font License, Version 1.1. This Font Software is distributed on an "AS IS" BASIS, WITHOUT WARRANTIES OR CONDITIONS OF ANY KIND, either express or implied. See the SIL Open Font License for the specific language, permissions and limitations governing your use of this Font Software.
http://scripts.sil.org/OFL
  -->
<path d="M786 534C755 597 713 655 662 707 632 653 607 585 587 507L950 507 950 445 833 445 834 444C815 421 774 391 740 369L877 358C884 375 890 391 894 404L949 381C933 336 894 265 858 213L807 232C822 255 838 281 852 308L701 315C760 253 825 175 876 108L819 79C794 118 761 164 725 209 710 195 690 180 670 165 699 127 731 79 759 36L702 9C685 46 656 96 630 136L599 115 564 157C605 185 654 224 688 256 669 278 650 299 632 318L570 320 581 379 730 370 687 396C708 410 731 428 750 445L572 445C544 317 529 169 529 11L455 11C457 164 471 313 498 445L53 445 53 507 512 507C536 604 567 690 606 759 565 793 520 823 472 849L472 560 102 560 102 904 162 904 162 872 424 872 408 879C425 894 446 918 457 936 525 905 588 865 645 818 698 888 764 929 840 929 919 929 947 890 962 748 943 742 917 726 902 711 894 825 881 858 844 858 791 858 742 826 700 768 761 707 813 637 851 560ZM411 739L411 819 312 819 312 739ZM411 690L312 690 312 612 411 612ZM162 739L260 739 260 819 162 819ZM162 690L162 612 260 612 260 690ZM74 333L85 394 383 373C391 391 397 409 401 423L456 400C442 356 407 284 375 230L322 248C335 270 348 295 360 321L218 327C279 266 345 186 397 119L340 91C317 127 285 170 251 213 235 198 216 182 195 166 225 129 257 80 286 37L227 11C211 47 182 97 156 136L122 114 85 157C128 186 179 226 212 260 191 285 169 309 148 330Z"/>
</svg>