<svg xmlns="http://www.w3.org/2000/svg"
    viewBox="0 0 1000 1000">
  <!--
© 2014-2021 Adobe (http://www.adobe.com/).
Noto is a trademark of Google Inc.
This Font Software is licensed under the SIL Open Font License, Version 1.1. This Font Software is distributed on an "AS IS" BASIS, WITHOUT WARRANTIES OR CONDITIONS OF ANY KIND, either express or implied. See the SIL Open Font License for the specific language, permissions and limitations governing your use of this Font Software.
http://scripts.sil.org/OFL
  -->
<path d="M37 224C77 279 117 355 131 404L190 371C176 322 135 250 93 196ZM29 580L56 649C98 624 144 595 190 566 177 676 143 791 56 880 71 890 100 916 111 932 249 794 270 579 270 423L270 198 955 198 955 128 576 128 576 10 498 10 498 128 197 128 197 423 196 489C133 525 73 558 29 580ZM505 213C463 348 388 473 294 553 312 564 344 588 357 600 413 547 464 477 507 397L702 397C629 627 462 794 282 868 298 882 318 911 329 929 462 868 587 766 678 622 727 761 805 872 917 930 929 910 952 881 970 866 848 811 766 687 724 540 753 481 777 418 794 348L744 327 730 331 540 331C554 298 568 265 579 230Z"/>
</svg>