<svg xmlns="http://www.w3.org/2000/svg"
    viewBox="0 0 1000 1000">
  <!--
© 2014-2021 Adobe (http://www.adobe.com/).
Noto is a trademark of Google Inc.
This Font Software is licensed under the SIL Open Font License, Version 1.1. This Font Software is distributed on an "AS IS" BASIS, WITHOUT WARRANTIES OR CONDITIONS OF ANY KIND, either express or implied. See the SIL Open Font License for the specific language, permissions and limitations governing your use of this Font Software.
http://scripts.sil.org/OFL
  -->
<path d="M718 480L718 929 791 929 791 480ZM448 480L448 602C448 695 432 801 295 879 311 891 335 916 345 933 499 844 518 717 518 603L518 480ZM620 290C690 388 815 491 927 548 937 529 954 502 969 484 854 433 730 332 651 224L581 224C524 322 406 426 285 485 299 501 316 528 324 546 443 484 559 382 620 290ZM39 222C79 277 118 353 133 402L192 369C178 321 137 248 95 194ZM31 578L58 647C100 622 146 593 192 564 180 674 146 790 58 880 73 889 102 916 113 932 251 793 272 578 272 422L272 196 957 196 957 126 576 126 576 10 498 10 498 126 199 126 199 421 198 487C135 523 75 557 31 578Z"/>
</svg>