<svg xmlns="http://www.w3.org/2000/svg"
    viewBox="0 0 1000 1000">
  <!--
© 2014-2021 Adobe (http://www.adobe.com/).
Noto is a trademark of Google Inc.
This Font Software is licensed under the SIL Open Font License, Version 1.1. This Font Software is distributed on an "AS IS" BASIS, WITHOUT WARRANTIES OR CONDITIONS OF ANY KIND, either express or implied. See the SIL Open Font License for the specific language, permissions and limitations governing your use of this Font Software.
http://scripts.sil.org/OFL
  -->
<path d="M45 211C74 274 101 357 108 409L168 382C160 332 133 251 101 189ZM325 364L325 834 249 846 264 916C367 895 509 867 645 839L640 776 529 797 529 527 637 527 637 460 529 460 529 230 462 230 462 809 385 823 385 364ZM672 230L672 813C672 897 692 920 765 920 780 920 859 920 875 920 944 920 961 876 968 734 948 730 921 718 905 705 902 828 897 854 870 854 853 854 788 854 774 854 746 854 741 848 741 813L741 565C809 527 884 481 940 436L889 382C853 419 797 461 741 498L741 230ZM30 579L55 645 178 573C166 681 136 794 58 882 72 891 100 917 110 931 234 794 254 583 254 430L254 177 957 177 957 111 589 111 589 10 511 10 511 111 184 111 184 430 183 500C124 532 70 560 30 579Z"/>
</svg>