<svg xmlns="http://www.w3.org/2000/svg"
    viewBox="0 0 1000 1000">
  <!--
© 2014-2021 Adobe (http://www.adobe.com/).
Noto is a trademark of Google Inc.
This Font Software is licensed under the SIL Open Font License, Version 1.1. This Font Software is distributed on an "AS IS" BASIS, WITHOUT WARRANTIES OR CONDITIONS OF ANY KIND, either express or implied. See the SIL Open Font License for the specific language, permissions and limitations governing your use of this Font Software.
http://scripts.sil.org/OFL
  -->
<path d="M40 197C69 260 97 342 104 393L161 367C154 316 125 237 94 175ZM254 875L312 915C359 833 412 726 454 632L405 594C358 693 297 807 254 875ZM309 255C358 281 415 321 443 351L486 301C458 271 398 233 350 210ZM256 421C305 446 363 487 390 517L434 465C405 437 346 398 298 375ZM787 320C834 397 883 502 900 567L961 537C942 473 891 371 843 295ZM565 303C543 397 504 490 453 552 469 561 497 579 509 590 560 522 604 420 630 317ZM676 204L676 592C676 602 673 604 662 605 651 605 618 605 580 604 589 622 600 649 602 667 655 667 690 666 713 655 737 644 743 627 743 592L743 204ZM819 561C771 727 660 825 464 871 479 887 494 912 502 930 712 872 831 761 883 577ZM23 565L49 631 167 559C158 671 131 789 56 880 71 889 99 915 109 929 224 792 242 580 242 429L242 176 952 176 952 111 589 111 589 10 511 10 511 111 171 111 171 429 170 487C115 518 62 547 23 565Z"/>
</svg>