<svg xmlns="http://www.w3.org/2000/svg" name="gid8914" data-unicode="痺"
    viewBox="0 0 1000 1000">
  <!--
© 2014-2021 Adobe (http://www.adobe.com/).
Noto is a trademark of Google Inc.
This Font Software is licensed under the SIL Open Font License, Version 1.1. This Font Software is distributed on an "AS IS" BASIS, WITHOUT WARRANTIES OR CONDITIONS OF ANY KIND, either express or implied. See the SIL Open Font License for the specific language, permissions and limitations governing your use of this Font Software.
http://scripts.sil.org/OFL
  -->
<path d="M46 241C75 304 102 387 109 439L169 412C162 362 134 281 102 219ZM571 206C563 228 549 258 535 284L344 284 344 616 526 616C494 650 442 680 360 704 370 712 382 726 391 738L266 738 266 802 669 802 669 959 738 959 738 802 957 802 957 738 738 738 738 637 669 637 669 738 445 738C528 704 578 661 608 616L895 616 895 284 610 284C622 265 635 243 647 220ZM413 474L580 474C580 502 576 533 563 563L413 563ZM647 474L824 474 824 563 633 563C643 533 647 503 647 474ZM413 337L580 337 580 424 413 424ZM647 337L824 337 824 424 647 424ZM31 609L56 675 178 603C167 711 136 824 59 911 74 920 101 946 112 961 236 822 255 609 255 455L255 198 961 198 961 133 589 133 589 40 511 40 511 133 185 133 185 455 184 531C125 562 71 590 31 609Z"/>
</svg>