<svg xmlns="http://www.w3.org/2000/svg"
    viewBox="0 0 1000 1000">
  <!--
© 2014-2021 Adobe (http://www.adobe.com/).
Noto is a trademark of Google Inc.
This Font Software is licensed under the SIL Open Font License, Version 1.1. This Font Software is distributed on an "AS IS" BASIS, WITHOUT WARRANTIES OR CONDITIONS OF ANY KIND, either express or implied. See the SIL Open Font License for the specific language, permissions and limitations governing your use of this Font Software.
http://scripts.sil.org/OFL
  -->
<path d="M41 218C72 278 104 357 112 407L172 377C162 328 130 251 97 192ZM576 191L576 276 316 276 316 339 936 339 936 276 650 276 650 191ZM743 356C718 449 660 522 580 567 591 575 608 590 620 602L576 602 576 650 276 650 276 714 576 714 576 931 650 931 650 714 962 714 962 650 650 650 650 602 648 602C687 574 722 539 750 497 802 535 862 581 894 612L939 564C902 533 835 483 780 446 792 422 802 396 809 368ZM462 356C435 449 376 525 298 573 313 583 338 606 349 618 394 586 435 544 468 495 500 520 532 549 550 570L589 524C569 502 531 470 496 445 508 421 518 396 526 369ZM26 582L52 650 182 573C169 680 137 790 57 876 72 885 100 912 110 926 241 787 261 573 261 417L261 171 954 171 954 105 589 105 589 10 511 10 511 105 190 105 190 417 188 499C127 532 69 563 26 582Z"/>
</svg>