<svg xmlns="http://www.w3.org/2000/svg" name="gid8932" data-unicode="瘓"
    viewBox="0 0 1000 1000">
  <!--
© 2014-2021 Adobe (http://www.adobe.com/).
Noto is a trademark of Google Inc.
This Font Software is licensed under the SIL Open Font License, Version 1.1. This Font Software is distributed on an "AS IS" BASIS, WITHOUT WARRANTIES OR CONDITIONS OF ANY KIND, either express or implied. See the SIL Open Font License for the specific language, permissions and limitations governing your use of this Font Software.
http://scripts.sil.org/OFL
  -->
<path d="M45 240C74 302 101 385 108 437L168 410C160 360 133 279 101 217ZM30 607L55 673 173 604C162 711 133 823 59 910 74 919 101 944 112 959 232 820 250 607 250 454L250 195 449 195C419 274 357 368 265 437 281 445 304 466 315 481L343 458 343 674 408 674 408 423 514 423C508 506 489 551 417 579 428 587 444 608 450 622 539 586 564 526 571 423L642 423 642 513C642 569 655 582 710 582 721 582 763 582 774 582 796 582 810 578 820 565L820 670 887 670 887 366 672 366C693 339 714 308 729 280L683 248 672 251 498 251 520 202 476 195 961 195 961 132 589 132 589 40 511 40 511 132 180 132 180 454 179 531C121 561 69 589 30 607ZM468 307L636 307C624 328 611 349 598 366L428 366C442 347 456 327 468 307ZM699 423L820 423 820 511C807 507 793 501 785 495 782 528 779 531 765 531 756 531 724 531 717 531 701 531 699 529 699 513ZM571 617C568 647 565 674 559 699L274 699 274 757 538 757C500 834 421 877 252 902 265 916 281 942 287 959 476 926 564 869 606 770 659 878 761 938 922 960 930 943 946 918 961 904 812 890 713 843 665 757L954 757 954 699 627 699C632 674 636 647 639 617Z"/>
</svg>