<svg xmlns="http://www.w3.org/2000/svg"
    viewBox="0 0 1000 1000">
  <!--
© 2014-2021 Adobe (http://www.adobe.com/).
Noto is a trademark of Google Inc.
This Font Software is licensed under the SIL Open Font License, Version 1.1. This Font Software is distributed on an "AS IS" BASIS, WITHOUT WARRANTIES OR CONDITIONS OF ANY KIND, either express or implied. See the SIL Open Font License for the specific language, permissions and limitations governing your use of this Font Software.
http://scripts.sil.org/OFL
  -->
<path d="M38 217C69 278 101 357 110 407L169 376C159 328 127 250 94 192ZM429 332C445 365 460 408 466 440L288 440 288 501 961 501 961 440 765 440C782 408 801 364 819 325L806 322 926 322 926 262 649 262 649 194 577 194 577 262 325 262 325 322 474 322ZM494 322L739 322C729 358 712 406 699 437L710 440 511 440 534 434C528 403 512 357 494 322ZM453 752L801 752 801 838 453 838ZM453 699L453 616 801 616 801 699ZM384 558L384 931 453 931 453 896 801 896 801 931 873 931 873 558ZM23 582L49 649 179 573C167 679 134 790 54 876 69 885 97 911 107 926 238 787 258 572 258 417L258 170 951 170 951 104 589 104 589 10 511 10 511 104 187 104 187 417 185 498C124 531 66 562 23 582Z"/>
</svg>