<svg xmlns="http://www.w3.org/2000/svg"
    viewBox="0 0 1000 1000">
  <!--
© 2014-2021 Adobe (http://www.adobe.com/).
Noto is a trademark of Google Inc.
This Font Software is licensed under the SIL Open Font License, Version 1.1. This Font Software is distributed on an "AS IS" BASIS, WITHOUT WARRANTIES OR CONDITIONS OF ANY KIND, either express or implied. See the SIL Open Font License for the specific language, permissions and limitations governing your use of this Font Software.
http://scripts.sil.org/OFL
  -->
<path d="M558 302C588 321 622 348 639 368L674 339C656 320 620 294 591 277ZM303 351C337 382 375 424 393 454L437 424C419 396 380 354 345 326ZM38 203C68 266 94 349 101 401L161 374C154 324 126 243 95 181ZM798 276C757 330 698 375 629 410 559 374 502 329 463 276ZM316 221L316 276 446 276 403 293C443 351 498 400 563 440 470 478 365 502 262 515 274 530 287 557 294 575 411 557 528 526 630 478 721 522 826 552 937 569 946 551 963 525 977 510 877 498 781 475 698 442 782 391 852 326 897 242L854 218 841 221ZM425 615L586 615 586 702 425 702ZM655 615L816 615 816 702 655 702ZM279 841L285 902C432 898 653 890 862 882 880 901 896 918 908 933L963 899C928 856 857 794 798 748L883 748 883 569 655 569 655 503 586 503 586 569 361 569 361 748 586 748 586 834ZM741 774C761 790 783 809 805 828L655 833 655 748 786 748ZM24 571L49 638 171 565C160 676 130 792 51 881 66 891 94 916 105 931 228 791 247 576 247 421L247 160 953 160 953 95 589 95 589 10 511 10 511 95 177 95 177 420 176 493C118 524 64 552 24 571Z"/>
</svg>