<svg xmlns="http://www.w3.org/2000/svg"
    viewBox="0 0 1000 1000">
  <!--
© 2014-2021 Adobe (http://www.adobe.com/).
Noto is a trademark of Google Inc.
This Font Software is licensed under the SIL Open Font License, Version 1.1. This Font Software is distributed on an "AS IS" BASIS, WITHOUT WARRANTIES OR CONDITIONS OF ANY KIND, either express or implied. See the SIL Open Font License for the specific language, permissions and limitations governing your use of this Font Software.
http://scripts.sil.org/OFL
  -->
<path d="M306 253L306 305 485 305 485 253ZM715 253L715 305 900 305 900 253ZM42 211C71 274 98 357 105 409L165 382C157 332 130 251 98 189ZM458 669L741 669 741 732 458 732ZM458 620L458 557 741 557 741 620ZM565 189C556 261 529 334 481 399L481 368 296 368 296 422 463 422C413 482 342 534 248 571 262 582 282 607 289 624 326 608 360 591 390 571L390 930 458 930 458 782 741 782 741 858C741 869 737 873 724 873 711 874 668 874 620 872 628 890 638 914 641 932 708 932 751 931 777 921 803 911 811 894 811 857L811 569C845 589 883 605 925 618 935 600 954 574 968 561 870 535 793 488 735 422L912 422 912 368 716 368 716 399C677 348 648 288 629 219L633 196ZM718 500L480 500C534 446 573 385 599 320 628 391 668 451 718 500ZM27 579L52 645 174 574C162 682 133 794 55 881 69 890 97 916 107 931 231 792 251 579 251 425L251 168 957 168 957 103 589 103 589 10 511 10 511 103 180 103 180 425 179 501C120 532 67 560 27 579Z"/>
</svg>