<svg xmlns="http://www.w3.org/2000/svg" name="gid8946" data-unicode="瘤"
    viewBox="0 0 1000 1000">
  <!--
© 2014-2021 Adobe (http://www.adobe.com/).
Noto is a trademark of Google Inc.
This Font Software is licensed under the SIL Open Font License, Version 1.1. This Font Software is distributed on an "AS IS" BASIS, WITHOUT WARRANTIES OR CONDITIONS OF ANY KIND, either express or implied. See the SIL Open Font License for the specific language, permissions and limitations governing your use of this Font Software.
http://scripts.sil.org/OFL
  -->
<path d="M48 243C77 306 104 389 111 441L171 414C164 364 136 283 104 221ZM578 791L578 871 417 871 417 791ZM642 791L813 791 813 871 642 871ZM578 739L417 739 417 662 578 662ZM642 739L642 662 813 662 813 739ZM536 225C501 246 443 268 386 286L330 271 342 500 289 514 308 572 545 497C553 512 559 526 564 538L611 516C595 531 576 544 553 555 567 565 585 588 594 602 702 545 741 450 756 326L852 326C848 445 842 491 831 503 825 511 818 512 806 512 795 512 766 512 734 508 743 524 749 550 750 567 783 569 818 569 835 568 858 565 872 560 884 544 904 522 911 459 917 295 918 286 919 267 919 267L606 267 606 326 694 326C685 401 665 464 617 511 600 469 560 406 522 361L471 383C487 403 504 426 518 450L406 482 398 335C465 318 537 294 590 267ZM349 604L349 962 417 962 417 929 813 929 813 958 883 958 883 604ZM33 611L58 677C97 655 139 630 180 605 169 713 138 826 61 913 76 922 103 948 114 963 237 824 257 611 257 457L257 200 963 200 963 135 589 135 589 40 511 40 511 135 187 135 187 457 186 533C127 564 73 592 33 611Z"/>
</svg>