<svg xmlns="http://www.w3.org/2000/svg"
    viewBox="0 0 1000 1000">
  <!--
© 2014-2021 Adobe (http://www.adobe.com/).
Noto is a trademark of Google Inc.
This Font Software is licensed under the SIL Open Font License, Version 1.1. This Font Software is distributed on an "AS IS" BASIS, WITHOUT WARRANTIES OR CONDITIONS OF ANY KIND, either express or implied. See the SIL Open Font License for the specific language, permissions and limitations governing your use of this Font Software.
http://scripts.sil.org/OFL
  -->
<path d="M42 210C71 273 98 356 105 407L165 381C157 330 130 250 98 188ZM657 836C751 867 844 903 898 930L961 893C898 864 796 829 704 801ZM504 529L782 529 782 575 504 575ZM504 618L782 618 782 666 504 666ZM504 440L782 440 782 486 504 486ZM434 395L434 712 854 712 854 395ZM302 400L302 798 956 798 956 748 367 748 367 400ZM518 800C459 832 340 866 246 885 258 896 278 918 287 930 382 912 501 875 576 836ZM27 578L52 644C90 622 130 599 171 574 160 681 131 793 60 879 74 888 101 913 111 926 227 787 244 574 244 422L244 157 957 157 957 99 587 99 587 10 511 10 511 99 177 99 177 422 176 502C118 532 66 560 27 578ZM804 179C717 201 558 219 418 230L418 169 351 169 351 276C351 343 386 355 508 355 534 355 772 355 800 355 881 355 905 340 912 273 895 270 871 263 856 254 852 301 842 307 793 307 744 307 543 307 508 307 431 307 418 302 418 276L418 274C568 265 741 247 853 219Z"/>
</svg>