<svg xmlns="http://www.w3.org/2000/svg"
    viewBox="0 0 1000 1000">
  <!--
© 2014-2021 Adobe (http://www.adobe.com/).
Noto is a trademark of Google Inc.
This Font Software is licensed under the SIL Open Font License, Version 1.1. This Font Software is distributed on an "AS IS" BASIS, WITHOUT WARRANTIES OR CONDITIONS OF ANY KIND, either express or implied. See the SIL Open Font License for the specific language, permissions and limitations governing your use of this Font Software.
http://scripts.sil.org/OFL
  -->
<path d="M286 479L286 629 352 629 352 536 872 536 872 629 940 629 940 479ZM349 234C340 272 322 309 291 328L330 354C364 329 381 288 390 247ZM654 232C645 270 626 308 596 328L635 354C669 328 685 287 695 244ZM553 234C542 260 519 300 502 326L538 343C556 320 578 287 599 255ZM876 229C864 256 836 298 817 325L853 343C874 319 898 284 922 250ZM47 217C75 279 100 358 107 408L162 381C155 332 128 255 98 195ZM547 556C545 589 542 618 537 645L330 645 330 703 522 703C491 793 423 845 265 877 279 890 296 915 302 931 484 890 560 822 594 703L795 703C783 805 770 849 755 864 747 872 738 872 721 872 704 872 660 872 614 868 625 885 631 911 633 929 680 932 725 932 748 930 776 929 793 923 809 908 836 883 850 821 866 675 867 665 869 645 869 645L606 645C611 618 614 588 616 556ZM436 193C430 318 405 387 295 426 307 436 323 457 329 471 388 448 426 416 451 374 484 400 518 431 537 454L575 416C552 391 509 355 471 327 483 290 489 245 492 193ZM745 193C739 324 716 388 600 426 611 436 628 458 633 472 697 448 736 417 761 374 805 406 852 444 877 471L919 434C888 403 830 359 781 326 792 289 798 245 800 193ZM33 581L59 646 170 577C158 685 128 797 53 885 67 894 94 919 104 933 227 792 246 575 246 420L246 165 962 165 962 102 589 102 589 10 511 10 511 102 177 102 177 420 175 505C121 535 71 563 33 581Z"/>
</svg>