<svg xmlns="http://www.w3.org/2000/svg"
    viewBox="0 0 1000 1000">
  <!--
© 2014-2021 Adobe (http://www.adobe.com/).
Noto is a trademark of Google Inc.
This Font Software is licensed under the SIL Open Font License, Version 1.1. This Font Software is distributed on an "AS IS" BASIS, WITHOUT WARRANTIES OR CONDITIONS OF ANY KIND, either express or implied. See the SIL Open Font License for the specific language, permissions and limitations governing your use of this Font Software.
http://scripts.sil.org/OFL
  -->
<path d="M42 202C72 265 99 347 107 399L164 372C157 322 128 242 96 180ZM680 593L680 643 537 643 537 593ZM482 547L482 685C482 745 474 815 415 868 428 876 451 894 460 905 498 870 518 826 528 780L680 780 680 837C680 845 678 848 668 848 660 849 633 849 601 848 609 862 616 882 618 897 663 897 693 897 712 888 732 879 736 864 736 837L736 547ZM680 686L680 737 535 737C536 719 537 702 537 686ZM367 387L515 387 515 454 367 454ZM367 342L367 282 515 282 515 342ZM851 387L851 454 701 454 701 387ZM851 342L701 342 701 282 851 282ZM301 231L301 930 367 930 367 504 576 504 576 231ZM879 231L641 231 641 504 851 504 851 848C851 860 848 864 837 865 826 865 790 866 749 864 759 883 768 913 770 932 826 932 863 931 887 919 911 907 917 886 917 850L917 231ZM25 570L51 637 164 568C154 678 125 792 48 881 63 890 90 915 100 929 220 791 239 578 239 425L239 168 954 168 954 102 589 102 589 10 511 10 511 102 170 102 170 424 169 494C115 524 63 552 25 570Z"/>
</svg>