<svg xmlns="http://www.w3.org/2000/svg"
    viewBox="0 0 1000 1000">
  <!--
© 2014-2021 Adobe (http://www.adobe.com/).
Noto is a trademark of Google Inc.
This Font Software is licensed under the SIL Open Font License, Version 1.1. This Font Software is distributed on an "AS IS" BASIS, WITHOUT WARRANTIES OR CONDITIONS OF ANY KIND, either express or implied. See the SIL Open Font License for the specific language, permissions and limitations governing your use of this Font Software.
http://scripts.sil.org/OFL
  -->
<path d="M648 398L648 604 705 604 705 398ZM538 712C581 737 629 776 652 804L700 766C677 738 627 702 585 678ZM762 758C817 804 880 870 906 915L963 878C934 832 871 769 815 725ZM453 729L453 842C453 906 473 922 556 922 572 922 689 922 707 922 766 922 785 902 792 822 774 818 749 809 735 800 732 858 727 865 698 865 674 865 579 865 562 865 523 865 517 861 517 841L517 729ZM811 386L811 628C811 637 808 640 798 641 787 641 753 641 714 640 721 655 731 676 734 693 788 693 823 693 845 683 868 674 873 660 873 629L873 386ZM341 733C325 790 291 847 239 879L293 916C350 878 381 815 400 752ZM48 213C77 276 104 359 111 411L171 384C164 334 136 253 104 191ZM387 516L527 516 527 558 387 558ZM387 477L387 436 527 436 527 477ZM33 581L58 647C97 625 139 600 180 575 169 683 138 796 61 883 76 892 103 918 114 933 237 794 257 581 257 427L257 170 570 170C506 236 383 299 259 334 271 349 286 374 293 390 356 370 418 343 473 313L473 353 748 353 748 313C807 343 870 368 927 384 937 366 952 341 966 325 851 298 724 243 638 170L963 170 963 105 589 105 589 10 511 10 511 105 187 105 187 427 186 503C127 534 73 562 33 581ZM607 220C641 251 686 280 734 306L486 306C534 279 576 249 607 220ZM329 392L329 689 387 689 387 597 527 597 527 637C527 645 525 647 517 647 509 648 485 648 459 647 465 659 473 675 475 689 516 689 544 689 562 681 580 674 585 662 585 637L585 392Z"/>
</svg>