<svg xmlns="http://www.w3.org/2000/svg" name="gid8978" data-unicode="癕"
    viewBox="0 0 1000 1000">
  <!--
© 2014-2021 Adobe (http://www.adobe.com/).
Noto is a trademark of Google Inc.
This Font Software is licensed under the SIL Open Font License, Version 1.1. This Font Software is distributed on an "AS IS" BASIS, WITHOUT WARRANTIES OR CONDITIONS OF ANY KIND, either express or implied. See the SIL Open Font License for the specific language, permissions and limitations governing your use of this Font Software.
http://scripts.sil.org/OFL
  -->
<path d="M39 245C67 307 92 386 99 436L154 409C147 360 120 283 91 223ZM25 609L51 674 162 605C150 713 120 825 46 913 60 922 87 946 97 960 218 819 236 603 236 448L236 192 954 192 954 130 586 130 586 40 511 40 511 130 169 130 169 448 167 533C114 563 62 591 25 609ZM463 635C460 655 455 675 450 693L362 705C416 632 474 538 520 460L464 437C448 472 425 513 401 554 389 536 374 517 356 498 384 459 416 404 445 356L401 338 627 338C598 432 550 524 495 585 508 597 529 624 537 635 550 620 562 604 574 587L574 960 635 960 635 922 943 922 943 865 797 865 797 781 907 781 907 727 797 727 797 644 905 644 905 589 797 589 797 507 926 507 926 449 796 449 839 354 780 338 944 338 944 279 627 279 627 204 556 204 556 279 265 279 265 338 383 338C368 374 343 422 319 460L296 439 262 483C301 519 343 568 368 607 343 646 318 683 295 713L239 720 255 778 429 748C395 822 340 878 265 917 278 927 297 948 306 961 424 900 495 792 521 645ZM639 338L772 338C764 370 750 414 736 449L650 449C664 417 676 384 687 351ZM635 644L737 644 737 727 635 727ZM635 589L635 507 737 507 737 589ZM635 781L737 781 737 865 635 865Z"/>
</svg>