<svg xmlns="http://www.w3.org/2000/svg" name="gid8995" data-unicode="癯"
    viewBox="0 0 1000 1000">
  <!--
© 2014-2021 Adobe (http://www.adobe.com/).
Noto is a trademark of Google Inc.
This Font Software is licensed under the SIL Open Font License, Version 1.1. This Font Software is distributed on an "AS IS" BASIS, WITHOUT WARRANTIES OR CONDITIONS OF ANY KIND, either express or implied. See the SIL Open Font License for the specific language, permissions and limitations governing your use of this Font Software.
http://scripts.sil.org/OFL
  -->
<path d="M374 367L517 367 517 406 374 406ZM374 445L517 445 517 486 374 486ZM374 290L517 290 517 329 374 329ZM689 367L833 367 833 406 689 406ZM689 445L833 445 833 486 689 486ZM689 290L833 290 833 329 689 329ZM45 233C75 295 102 378 109 429L166 402C159 352 130 272 99 210ZM611 517C603 538 590 567 577 591L439 591C453 570 467 549 478 527L468 524 576 524 576 251 317 251 317 524 406 524C364 595 298 661 231 706 246 718 269 744 279 757 302 740 325 720 348 698L348 962 417 962 417 930 934 930 934 878 649 878 649 826 861 826 861 781 649 781 649 731 861 731 861 687 649 687 649 639 894 639 894 591 643 591 679 533 641 524 892 524 892 251 632 251 632 522ZM581 639L581 687 417 687 417 639ZM417 731L581 731 581 781 417 781ZM417 826L581 826 581 878 417 878ZM29 600L54 667 167 598C156 707 127 822 51 911 65 920 92 946 103 959 223 821 241 608 241 455L241 198 957 198 957 132 589 132 589 40 511 40 511 132 173 132 173 454 172 525C118 555 66 583 29 600Z"/>
</svg>