<svg xmlns="http://www.w3.org/2000/svg" name="gid8997" data-unicode="癱"
    viewBox="0 0 1000 1000">
  <!--
© 2014-2021 Adobe (http://www.adobe.com/).
Noto is a trademark of Google Inc.
This Font Software is licensed under the SIL Open Font License, Version 1.1. This Font Software is distributed on an "AS IS" BASIS, WITHOUT WARRANTIES OR CONDITIONS OF ANY KIND, either express or implied. See the SIL Open Font License for the specific language, permissions and limitations governing your use of this Font Software.
http://scripts.sil.org/OFL
  -->
<path d="M36 245C63 306 87 384 92 433L146 407C140 359 115 282 86 223ZM712 220C688 325 648 426 595 500L595 456 469 456 469 420 558 420 558 331 628 331 628 284 558 284 558 225 498 225 498 284 381 284 381 225 323 225 323 284 252 284 252 331 323 331 323 420 407 420 407 456 285 456 285 607 407 607 407 648 278 648 278 696 407 696 407 718 406 745 251 745 251 796 393 796C374 841 331 886 233 916 246 927 264 948 272 961 356 931 405 891 433 849 483 881 538 921 568 947L610 905C574 877 509 833 457 801L458 796 611 796 611 745 468 745 469 719 469 696 602 696 602 648 469 648 469 607 595 607 595 540 619 570C633 553 646 534 659 514L659 962 716 962 716 920 962 920 962 861 850 861 850 757 940 757 940 699 850 699 850 598 940 598 940 540 850 540 850 439 954 439 954 381 851 381C869 340 887 290 904 246L845 227C834 271 815 335 796 381L724 381C743 334 758 284 770 233ZM498 331L498 376 381 376 381 331ZM336 498L412 498 412 564 336 564ZM464 498L542 498 542 564 464 564ZM716 598L796 598 796 699 716 699ZM716 540L716 439 796 439 796 540ZM716 757L796 757 796 861 716 861ZM21 606L46 669C82 647 119 622 156 596 145 707 116 822 40 912 54 921 80 945 90 960 210 818 228 602 228 447L228 190 956 190 956 129 589 129 589 40 511 40 511 129 162 129 162 447 161 523C108 556 58 586 21 606Z"/>
</svg>