<svg xmlns="http://www.w3.org/2000/svg"
    viewBox="0 0 1000 1000">
  <!--
© 2014-2021 Adobe (http://www.adobe.com/).
Noto is a trademark of Google Inc.
This Font Software is licensed under the SIL Open Font License, Version 1.1. This Font Software is distributed on an "AS IS" BASIS, WITHOUT WARRANTIES OR CONDITIONS OF ANY KIND, either express or implied. See the SIL Open Font License for the specific language, permissions and limitations governing your use of this Font Software.
http://scripts.sil.org/OFL
  -->
<path d="M552 427C607 500 675 600 705 661L769 621C736 562 667 465 610 394ZM240 8C232 56 215 122 199 171L87 171 87 904 156 904 156 825 435 825 435 171 268 171C285 128 304 72 321 22ZM156 238L366 238 366 449 156 449ZM156 757L156 515 366 515 366 757ZM598 6C566 144 512 282 443 371 461 381 492 402 506 414 540 366 572 305 600 237L856 237C844 638 828 792 796 826 784 840 773 843 753 843 730 843 670 842 604 837 618 856 627 888 629 909 685 912 744 914 778 911 814 907 836 899 859 869 899 820 913 665 928 206 929 196 929 168 929 168L627 168C643 121 658 71 670 22Z"/>
</svg>