<svg xmlns="http://www.w3.org/2000/svg" name="gid9015" data-unicode="皈"
    viewBox="0 0 1000 1000">
  <!--
© 2014-2021 Adobe (http://www.adobe.com/).
Noto is a trademark of Google Inc.
This Font Software is licensed under the SIL Open Font License, Version 1.1. This Font Software is distributed on an "AS IS" BASIS, WITHOUT WARRANTIES OR CONDITIONS OF ANY KIND, either express or implied. See the SIL Open Font License for the specific language, permissions and limitations governing your use of this Font Software.
http://scripts.sil.org/OFL
  -->
<path d="M208 40C200 86 183 151 168 198L81 198 81 869 149 869 149 785 378 785 378 198 237 198C253 156 272 102 288 54ZM149 265L309 265 309 453 149 453ZM149 718L149 520 309 520 309 718ZM462 89L462 440C462 591 450 784 325 919 343 927 372 947 385 959 514 820 533 601 533 441L533 418 534 418C570 543 621 656 687 750 631 818 565 870 495 903 511 917 531 944 541 961 611 924 676 873 733 809 787 872 850 924 922 961 933 943 955 916 972 902 897 868 832 817 777 753 849 652 903 522 932 360L885 346 871 348 533 348 533 157 948 157 948 89ZM847 418C821 524 781 616 730 693 673 613 630 519 599 418Z"/>
</svg>