<svg xmlns="http://www.w3.org/2000/svg"
    viewBox="0 0 1000 1000">
  <!--
© 2014-2021 Adobe (http://www.adobe.com/).
Noto is a trademark of Google Inc.
This Font Software is licensed under the SIL Open Font License, Version 1.1. This Font Software is distributed on an "AS IS" BASIS, WITHOUT WARRANTIES OR CONDITIONS OF ANY KIND, either express or implied. See the SIL Open Font License for the specific language, permissions and limitations governing your use of this Font Software.
http://scripts.sil.org/OFL
  -->
<path d="M533 252C495 324 431 395 364 442 380 453 407 478 419 491 485 438 557 354 602 272ZM723 284C793 342 872 423 909 478L968 440C930 386 848 306 779 250ZM626 11L626 155 386 155 386 225 956 225 956 155 701 155 701 11ZM201 10C194 56 178 121 164 168L80 168 80 839 148 839 148 755 359 755 359 168 232 168C248 125 266 72 282 24ZM148 235L291 235 291 423 148 423ZM148 688L148 490 291 490 291 688ZM559 429L497 445C525 542 564 628 615 700 540 778 442 834 319 873 335 887 361 917 371 932 486 890 583 833 659 756 728 835 815 894 922 931 932 913 953 885 969 870 862 838 774 781 706 705 765 631 809 541 839 432L766 417C743 507 708 583 660 648 616 584 582 510 559 429Z"/>
</svg>