<svg xmlns="http://www.w3.org/2000/svg" name="gid9023" data-unicode="皖"
    viewBox="0 0 1000 1000">
  <!--
© 2014-2021 Adobe (http://www.adobe.com/).
Noto is a trademark of Google Inc.
This Font Software is licensed under the SIL Open Font License, Version 1.1. This Font Software is distributed on an "AS IS" BASIS, WITHOUT WARRANTIES OR CONDITIONS OF ANY KIND, either express or implied. See the SIL Open Font License for the specific language, permissions and limitations governing your use of this Font Software.
http://scripts.sil.org/OFL
  -->
<path d="M470 342L470 408 867 408 867 342ZM196 40C189 86 174 151 159 198L77 198 77 869 144 869 144 785 353 785 353 198 227 198C243 155 260 102 275 54ZM144 265L286 265 286 453 144 453ZM144 718L144 520 286 520 286 718ZM389 518L389 585 534 585C520 747 480 849 307 904 322 917 341 944 349 961 540 895 588 774 604 585L714 585 714 861C714 935 730 955 800 955 813 955 873 955 888 955 947 955 966 922 972 791 953 787 923 775 908 762 906 873 902 889 880 889 867 889 819 889 809 889 788 889 784 886 784 861L784 585 955 585 955 518ZM628 47L628 171 393 171 393 341 462 341 462 237 877 237 877 341 947 341 947 171 702 171 702 47Z"/>
</svg>