<svg xmlns="http://www.w3.org/2000/svg" name="gid9027" data-unicode="皜"
    viewBox="0 0 1000 1000">
  <!--
© 2014-2021 Adobe (http://www.adobe.com/).
Noto is a trademark of Google Inc.
This Font Software is licensed under the SIL Open Font License, Version 1.1. This Font Software is distributed on an "AS IS" BASIS, WITHOUT WARRANTIES OR CONDITIONS OF ANY KIND, either express or implied. See the SIL Open Font License for the specific language, permissions and limitations governing your use of this Font Software.
http://scripts.sil.org/OFL
  -->
<path d="M532 319L789 319 789 413 532 413ZM465 264L465 468 859 468 859 264ZM192 40C186 86 171 150 157 198L77 198 77 869 143 869 143 785 345 785 345 198 223 198C238 155 255 101 270 54ZM143 265L279 265 279 453 143 453ZM143 718L143 520 279 520 279 718ZM373 144L373 210 949 210 949 144 695 144 695 41 619 41 619 144ZM390 529L390 959 459 959 459 592 864 592 864 886C864 897 861 900 849 901 838 902 802 902 760 900 769 918 778 943 781 960 841 960 878 959 902 949 926 939 933 921 933 887L933 529ZM586 703L736 703 736 800 586 800ZM532 651L532 899 586 899 586 852 791 852 791 651Z"/>
</svg>