<svg xmlns="http://www.w3.org/2000/svg"
    viewBox="0 0 1000 1000">
  <!--
© 2014-2021 Adobe (http://www.adobe.com/).
Noto is a trademark of Google Inc.
This Font Software is licensed under the SIL Open Font License, Version 1.1. This Font Software is distributed on an "AS IS" BASIS, WITHOUT WARRANTIES OR CONDITIONS OF ANY KIND, either express or implied. See the SIL Open Font License for the specific language, permissions and limitations governing your use of this Font Software.
http://scripts.sil.org/OFL
  -->
<path d="M413 487L413 544 582 544 582 487ZM394 605L394 662 582 662 582 605ZM740 487L740 544 914 544 914 487ZM740 605L740 662 933 662 933 605ZM491 288L837 288 837 372 491 372ZM491 152L837 152 837 234 491 234ZM187 11C181 55 168 116 156 163L75 163 75 824 143 824 143 743 336 743 336 163 221 163C235 121 251 70 265 25ZM143 230L268 230 268 415 143 415ZM143 676L143 482 268 482 268 676ZM625 445L625 722 352 722 352 788 625 788 625 932 697 932 697 788 962 788 962 722 697 722 697 445ZM423 95L423 428 908 428 908 95 671 95 699 18 616 10C610 38 604 68 597 95Z"/>
</svg>