<svg xmlns="http://www.w3.org/2000/svg" name="gid9039" data-unicode="皨"
    viewBox="0 0 1000 1000">
  <!--
© 2014-2021 Adobe (http://www.adobe.com/).
Noto is a trademark of Google Inc.
This Font Software is licensed under the SIL Open Font License, Version 1.1. This Font Software is distributed on an "AS IS" BASIS, WITHOUT WARRANTIES OR CONDITIONS OF ANY KIND, either express or implied. See the SIL Open Font License for the specific language, permissions and limitations governing your use of this Font Software.
http://scripts.sil.org/OFL
  -->
<path d="M277 248L721 248 721 300 277 300ZM277 151L721 151 721 202 277 202ZM160 567L378 567 378 623 160 623ZM160 466L378 466 378 521 160 521ZM611 567L836 567 836 623 611 623ZM611 466L836 466 836 521 611 521ZM459 669L459 736 138 736 138 794 459 794 459 874 46 874 46 931 955 931 955 874 534 874 534 794 869 794 869 736 534 736 534 669ZM204 104L204 347 797 347 797 104 513 104 543 49 459 39C453 56 442 82 432 104ZM93 419L93 670 447 670 447 419 289 419 315 367 238 357C232 374 222 398 212 419ZM543 419L543 670 906 670 906 419 742 419 772 365 692 356C686 374 674 397 664 419Z"/>
</svg>