<svg xmlns="http://www.w3.org/2000/svg"
    viewBox="0 0 1000 1000">
  <!--
© 2014-2021 Adobe (http://www.adobe.com/).
Noto is a trademark of Google Inc.
This Font Software is licensed under the SIL Open Font License, Version 1.1. This Font Software is distributed on an "AS IS" BASIS, WITHOUT WARRANTIES OR CONDITIONS OF ANY KIND, either express or implied. See the SIL Open Font License for the specific language, permissions and limitations governing your use of this Font Software.
http://scripts.sil.org/OFL
  -->
<path d="M277 218L721 218 721 270 277 270ZM277 121L721 121 721 172 277 172ZM160 537L378 537 378 593 160 593ZM160 436L378 436 378 491 160 491ZM611 537L836 537 836 593 611 593ZM611 436L836 436 836 491 611 491ZM459 639L459 706 138 706 138 764 459 764 459 844 46 844 46 901 955 901 955 844 534 844 534 764 869 764 869 706 534 706 534 639ZM204 74L204 317 797 317 797 74 513 74 543 19 459 9C453 26 442 52 432 74ZM93 389L93 640 447 640 447 389 289 389 315 337 238 327C232 344 222 368 212 389ZM543 389L543 640 906 640 906 389 742 389 772 335 692 326C686 344 674 367 664 389Z"/>
</svg>