<svg xmlns="http://www.w3.org/2000/svg" name="gid9040" data-unicode="皪"
    viewBox="0 0 1000 1000">
  <!--
© 2014-2021 Adobe (http://www.adobe.com/).
Noto is a trademark of Google Inc.
This Font Software is licensed under the SIL Open Font License, Version 1.1. This Font Software is distributed on an "AS IS" BASIS, WITHOUT WARRANTIES OR CONDITIONS OF ANY KIND, either express or implied. See the SIL Open Font License for the specific language, permissions and limitations governing your use of this Font Software.
http://scripts.sil.org/OFL
  -->
<path d="M594 363L685 363 685 473 594 473ZM594 204L685 204 685 312 594 312ZM171 40C167 85 158 146 148 194L72 194 72 855 135 855 135 767 310 767 310 194 209 194 246 52ZM135 261L248 261 248 447 135 447ZM135 700L135 514 248 514 248 700ZM617 37C613 68 604 114 595 149L541 149 541 506C531 469 515 426 499 390L461 408C470 429 479 453 487 477L407 487C450 410 497 305 533 223L482 205C471 236 457 272 442 310 431 290 417 267 402 245 426 196 454 121 476 62L422 46C412 90 392 153 372 203L349 173 320 215C355 261 394 323 416 370 396 415 374 459 354 494L314 499 326 554 501 527 511 570 551 550 546 527 603 527 603 618 336 618 336 682 558 682C492 761 390 836 295 873 310 887 332 911 343 928 435 885 535 805 603 718L603 959 675 959 675 709C742 793 841 877 925 923 937 906 959 881 974 869 889 831 789 757 724 682L956 682 956 618 675 618 675 527 739 527 743 545 912 521C917 538 921 555 923 569L967 550C957 502 931 429 904 374L864 391C876 416 888 446 898 475L807 484C854 407 906 296 945 208L892 191C881 224 866 262 849 300 838 280 824 258 809 236 833 191 860 118 883 62L828 46C817 88 797 148 778 195L762 176 739 205 739 149 651 149 683 49ZM739 490L739 225C771 266 804 318 824 358 801 406 777 453 756 489Z"/>
</svg>