<svg xmlns="http://www.w3.org/2000/svg" name="gid9043" data-unicode="皯"
    viewBox="0 0 1000 1000">
  <!--
© 2014-2021 Adobe (http://www.adobe.com/).
Noto is a trademark of Google Inc.
This Font Software is licensed under the SIL Open Font License, Version 1.1. This Font Software is distributed on an "AS IS" BASIS, WITHOUT WARRANTIES OR CONDITIONS OF ANY KIND, either express or implied. See the SIL Open Font License for the specific language, permissions and limitations governing your use of this Font Software.
http://scripts.sil.org/OFL
  -->
<path d="M265 236L265 412 158 412 158 236ZM177 561C219 607 263 660 305 713 253 792 190 855 123 894 138 907 158 933 167 949 234 906 296 845 348 769 389 823 424 875 448 916L502 869C475 824 434 766 387 706 431 626 467 531 488 424L445 409 433 412 331 412 331 236 436 236C424 279 411 322 400 353L456 370C477 323 499 247 517 181L471 168 459 171 331 171 331 40 265 40 265 171 93 171 93 469C93 600 88 782 32 911 47 918 76 937 87 949 148 816 158 617 158 478L409 478C393 540 370 598 342 651 304 605 265 560 227 520ZM501 447L501 516 696 516 696 957 769 957 769 516 963 516 963 447 769 447 769 178 942 178 942 109 528 109 528 178 696 178 696 447Z"/>
</svg>