<svg xmlns="http://www.w3.org/2000/svg"
    viewBox="0 0 1000 1000">
  <!--
© 2014-2021 Adobe (http://www.adobe.com/).
Noto is a trademark of Google Inc.
This Font Software is licensed under the SIL Open Font License, Version 1.1. This Font Software is distributed on an "AS IS" BASIS, WITHOUT WARRANTIES OR CONDITIONS OF ANY KIND, either express or implied. See the SIL Open Font License for the specific language, permissions and limitations governing your use of this Font Software.
http://scripts.sil.org/OFL
  -->
<path d="M247 218L247 389 149 389 149 218ZM158 537C197 580 239 632 277 683 234 761 180 823 122 862 137 874 157 901 166 918 224 876 277 817 320 744 350 787 375 828 392 862L448 816C427 776 394 727 356 676 394 597 422 504 439 399L396 386 384 389 310 389 310 218 401 218C391 260 381 301 372 331L425 347C443 301 461 226 477 163L433 151 422 154 310 154 310 9 247 9 247 154 87 154 87 468C87 594 83 763 31 884 45 891 72 910 83 921 140 794 149 602 149 468L149 452 363 452C350 510 332 566 310 616 278 575 243 535 210 499ZM580 10C553 143 505 274 438 358 455 368 486 390 498 402L500 399 500 810C500 903 530 925 631 925 653 925 814 925 838 925 930 925 951 884 961 743 942 738 915 727 899 715 893 838 885 862 834 862 800 862 661 862 635 862 577 862 567 853 567 811L567 593 769 593 769 304 556 304C569 277 582 248 594 218L865 218C858 513 850 616 833 640 826 651 817 653 803 653 789 653 753 653 713 649 724 668 730 696 732 716 772 718 812 718 836 715 862 712 878 705 893 683 919 648 925 532 933 184 933 173 933 150 933 150L617 150C631 109 642 66 652 23ZM567 367L704 367 704 529 567 529Z"/>
</svg>