<svg xmlns="http://www.w3.org/2000/svg"
    viewBox="0 0 1000 1000">
  <!--
© 2014-2021 Adobe (http://www.adobe.com/).
Noto is a trademark of Google Inc.
This Font Software is licensed under the SIL Open Font License, Version 1.1. This Font Software is distributed on an "AS IS" BASIS, WITHOUT WARRANTIES OR CONDITIONS OF ANY KIND, either express or implied. See the SIL Open Font License for the specific language, permissions and limitations governing your use of this Font Software.
http://scripts.sil.org/OFL
  -->
<path d="M161 573L161 835 45 835 45 902 956 902 956 835 841 835 841 573ZM233 835L233 635 363 635 363 835ZM433 835L433 635 564 635 564 835ZM634 835L634 635 767 635 767 835ZM65 269L65 337 470 337 470 449C470 463 465 467 448 469 430 469 370 470 303 467 313 487 326 515 330 534 414 535 468 535 501 524 536 513 547 494 547 450L547 337 938 337 938 269 547 269 547 127 838 127 838 60 168 60 168 127 470 127 470 269Z"/>
</svg>