<svg xmlns="http://www.w3.org/2000/svg" name="gid9062" data-unicode="盌"
    viewBox="0 0 1000 1000">
  <!--
© 2014-2021 Adobe (http://www.adobe.com/).
Noto is a trademark of Google Inc.
This Font Software is licensed under the SIL Open Font License, Version 1.1. This Font Software is distributed on an "AS IS" BASIS, WITHOUT WARRANTIES OR CONDITIONS OF ANY KIND, either express or implied. See the SIL Open Font License for the specific language, permissions and limitations governing your use of this Font Software.
http://scripts.sil.org/OFL
  -->
<path d="M268 38C220 146 136 246 43 310 60 321 89 345 101 358 124 340 147 320 169 298 221 330 277 374 311 410 244 482 158 531 65 559 79 573 96 602 104 621 303 553 460 410 518 146L473 132 460 134 298 134C312 109 326 84 338 58ZM211 252C226 235 240 218 254 199L431 199C413 259 386 312 353 358 318 324 262 283 211 252ZM552 105L552 454C552 538 578 559 672 559 692 559 826 559 847 559 923 559 945 531 954 425 934 420 904 409 888 397 884 477 877 491 841 491 812 491 700 491 679 491 632 491 624 485 624 453L624 172 813 172 813 309C813 320 810 323 798 323 785 324 747 324 699 323 708 341 718 365 720 385 784 385 825 385 851 374 877 362 883 344 883 310L883 105ZM164 604L164 859 45 859 45 925 956 925 956 859 839 859 839 604ZM235 859L235 665 364 665 364 859ZM433 859L433 665 564 665 564 859ZM634 859L634 665 765 665 765 859Z"/>
</svg>