<svg xmlns="http://www.w3.org/2000/svg" name="gid9077" data-unicode="盤"
    viewBox="0 0 1000 1000">
  <!--
© 2014-2021 Adobe (http://www.adobe.com/).
Noto is a trademark of Google Inc.
This Font Software is licensed under the SIL Open Font License, Version 1.1. This Font Software is distributed on an "AS IS" BASIS, WITHOUT WARRANTIES OR CONDITIONS OF ANY KIND, either express or implied. See the SIL Open Font License for the specific language, permissions and limitations governing your use of this Font Software.
http://scripts.sil.org/OFL
  -->
<path d="M232 207C253 238 276 281 286 309L335 289C325 262 301 221 279 190ZM258 408L258 546 309 546 309 408ZM41 333L44 394 126 390C117 463 93 539 33 600 47 608 71 630 81 643 151 571 179 475 188 387L389 376 389 544C389 554 386 558 375 559 363 559 328 559 286 558 296 575 304 601 306 618 361 618 399 618 423 607 446 597 452 578 452 544L452 372 498 370 499 313 452 315 452 112 305 112 336 49 269 38C262 59 251 87 240 112L131 112 131 297 130 330ZM193 167L389 167 389 318 193 327 193 298ZM565 77L565 147C565 193 553 244 484 286 496 295 518 319 526 333L524 333 524 388 600 388 554 401C577 445 609 483 649 516 599 539 541 556 480 568 492 579 509 607 517 624 585 608 649 586 705 555 766 591 839 617 922 632 931 613 949 587 964 573 889 563 821 544 764 516 818 474 862 420 889 349L850 331 838 333 528 333C608 281 627 210 627 149L627 133 760 133 760 224C760 283 776 299 830 299 841 299 880 299 892 299 936 299 953 276 958 190 942 186 916 177 904 167 902 235 898 243 883 243 875 243 846 243 840 243 825 243 823 241 823 223L823 77ZM800 388C777 426 745 457 707 483 669 456 638 424 616 388ZM163 643L163 869 45 869 45 931 956 931 956 869 837 869 837 643ZM234 869L234 704 362 704 362 869ZM432 869L432 704 563 704 563 869ZM632 869L632 704 764 704 764 869Z"/>
</svg>