<svg xmlns="http://www.w3.org/2000/svg"
    viewBox="0 0 1000 1000">
  <!--
© 2014-2021 Adobe (http://www.adobe.com/).
Noto is a trademark of Google Inc.
This Font Software is licensed under the SIL Open Font License, Version 1.1. This Font Software is distributed on an "AS IS" BASIS, WITHOUT WARRANTIES OR CONDITIONS OF ANY KIND, either express or implied. See the SIL Open Font License for the specific language, permissions and limitations governing your use of this Font Software.
http://scripts.sil.org/OFL
  -->
<path d="M146 692L146 847 45 847 45 904 956 904 956 847 859 847 859 692ZM214 847L214 745 360 745 360 847ZM427 847L427 745 573 745 573 847ZM640 847L640 745 788 745 788 847ZM665 156C750 196 845 228 929 246 937 231 951 208 963 194 811 165 636 100 522 9L464 9C379 89 213 165 44 205 55 219 68 241 74 255 164 231 254 197 332 159L332 188 665 188ZM497 57C537 88 586 118 641 145L360 145C414 117 461 87 497 57ZM151 402L151 654 852 654 852 402 597 402 597 366 909 366 909 319 728 319C742 295 755 269 769 238L719 222 707 226 209 226 209 270 680 270 653 319 100 319 100 366 399 366C398 379 396 391 393 402ZM535 366L535 402 449 402 454 366ZM785 575L785 613 216 613 216 575ZM216 442L375 442C352 472 309 487 232 497 242 506 255 524 258 537 362 522 414 496 437 442L535 442 535 455C535 505 557 513 629 513 643 513 749 513 764 513L785 512 785 539 216 539ZM597 442L785 442 785 475 781 473C778 477 773 477 755 477 735 477 649 477 635 477 603 477 597 474 597 456Z"/>
</svg>