<svg xmlns="http://www.w3.org/2000/svg" name="gid9082" data-unicode="盪"
    viewBox="0 0 1000 1000">
  <!--
© 2014-2021 Adobe (http://www.adobe.com/).
Noto is a trademark of Google Inc.
This Font Software is licensed under the SIL Open Font License, Version 1.1. This Font Software is distributed on an "AS IS" BASIS, WITHOUT WARRANTIES OR CONDITIONS OF ANY KIND, either express or implied. See the SIL Open Font License for the specific language, permissions and limitations governing your use of this Font Software.
http://scripts.sil.org/OFL
  -->
<path d="M106 95C159 118 227 156 263 182L302 127C265 102 198 67 144 46ZM38 265C90 282 157 315 192 339L232 283C196 260 130 230 77 214ZM58 611L106 664C165 590 235 492 291 408L249 358C188 449 111 552 58 611ZM463 204L784 204 784 256 463 256ZM463 111L784 111 784 162 463 162ZM392 67L392 300 858 300 858 67ZM160 677L160 869 45 869 45 931 956 931 956 869 841 869 841 677ZM230 869L230 737 361 737 361 869ZM431 869L431 737 564 737 564 869ZM634 869L634 737 767 737 767 869ZM307 340L307 396 425 396C383 450 326 499 267 534 281 544 304 565 314 577 349 554 385 525 418 492L518 492C478 546 422 595 365 630 379 639 402 659 411 670 476 626 542 563 587 492L677 492C647 550 603 603 554 641 569 650 592 668 602 677 656 632 708 565 742 492L835 492C828 558 821 587 812 597 805 604 798 604 786 604 774 605 744 604 711 601 719 616 726 640 727 657 763 659 798 658 817 657 839 656 853 650 867 638 886 619 895 573 904 467 906 457 907 440 907 440L465 440C476 426 487 411 497 396L947 396 947 340Z"/>
</svg>