<svg xmlns="http://www.w3.org/2000/svg" name="gid9088" data-unicode="盲"
    viewBox="0 0 1000 1000">
  <!--
© 2014-2021 Adobe (http://www.adobe.com/).
Noto is a trademark of Google Inc.
This Font Software is licensed under the SIL Open Font License, Version 1.1. This Font Software is distributed on an "AS IS" BASIS, WITHOUT WARRANTIES OR CONDITIONS OF ANY KIND, either express or implied. See the SIL Open Font License for the specific language, permissions and limitations governing your use of this Font Software.
http://scripts.sil.org/OFL
  -->
<path d="M269 654L740 654 740 732 269 732ZM269 599L269 522 740 522 740 599ZM269 786L740 786 740 867 269 867ZM197 464L197 959 269 959 269 924 740 924 740 954 816 954 816 464ZM462 40L462 123 65 123 65 188 165 188 165 276C165 360 200 389 314 389 349 389 662 389 721 389 786 389 858 388 883 382 880 366 877 338 874 316 840 322 760 323 712 323 654 323 364 323 310 323 252 323 240 311 240 277L240 188 934 188 934 123 535 123 535 40Z"/>
</svg>