<svg xmlns="http://www.w3.org/2000/svg" name="gid9101" data-unicode="眈"
    viewBox="0 0 1000 1000">
  <!--
© 2014-2021 Adobe (http://www.adobe.com/).
Noto is a trademark of Google Inc.
This Font Software is licensed under the SIL Open Font License, Version 1.1. This Font Software is distributed on an "AS IS" BASIS, WITHOUT WARRANTIES OR CONDITIONS OF ANY KIND, either express or implied. See the SIL Open Font License for the specific language, permissions and limitations governing your use of this Font Software.
http://scripts.sil.org/OFL
  -->
<path d="M619 40L619 236 398 236 398 449 466 449 466 303 619 303 619 345C619 537 585 755 305 910 324 924 349 945 361 962 551 856 634 718 669 574L669 845C669 926 688 948 763 948 779 948 857 948 873 948 942 948 960 908 967 764 948 758 919 747 903 734 900 860 895 881 867 881 850 881 786 881 772 881 744 881 739 876 739 845L739 427 690 427C691 400 692 373 692 346L692 303 875 303 875 449 945 449 945 236 692 236 692 40ZM282 373L282 515 145 515 145 373ZM282 308L145 308 145 169 282 169ZM282 580L282 727 145 727 145 580ZM73 101L73 881 145 881 145 794 353 794 353 101Z"/>
</svg>