<svg xmlns="http://www.w3.org/2000/svg" name="gid9117" data-unicode="眠"
    viewBox="0 0 1000 1000">
  <!--
© 2014-2021 Adobe (http://www.adobe.com/).
Noto is a trademark of Google Inc.
This Font Software is licensed under the SIL Open Font License, Version 1.1. This Font Software is distributed on an "AS IS" BASIS, WITHOUT WARRANTIES OR CONDITIONS OF ANY KIND, either express or implied. See the SIL Open Font License for the specific language, permissions and limitations governing your use of this Font Software.
http://scripts.sil.org/OFL
  -->
<path d="M285 366L285 512 144 512 144 366ZM285 301L144 301 144 160 285 160ZM285 577L285 726 144 726 144 577ZM73 92L73 877 144 877 144 794 355 794 355 92ZM347 875L368 948C467 928 599 902 725 876L719 810 518 846 518 583 692 583C723 802 788 955 886 955 946 955 972 915 983 774 963 768 938 754 923 739 919 838 911 884 892 885 840 885 789 765 763 583L958 583 958 513 755 513C750 468 747 419 746 369L928 369 928 86 446 86 446 859ZM518 154L855 154 855 301 518 301ZM518 369L674 369C676 419 679 467 684 513L518 513Z"/>
</svg>