<svg xmlns="http://www.w3.org/2000/svg"
    viewBox="0 0 1000 1000">
  <!--
© 2014-2021 Adobe (http://www.adobe.com/).
Noto is a trademark of Google Inc.
This Font Software is licensed under the SIL Open Font License, Version 1.1. This Font Software is distributed on an "AS IS" BASIS, WITHOUT WARRANTIES OR CONDITIONS OF ANY KIND, either express or implied. See the SIL Open Font License for the specific language, permissions and limitations governing your use of this Font Software.
http://scripts.sil.org/OFL
  -->
<path d="M293 339L293 481 144 481 144 339ZM293 274L144 274 144 134 293 134ZM293 546L293 692 144 692 144 546ZM74 67L74 847 144 847 144 759 364 759 364 67ZM802 305C763 381 711 468 656 553 627 522 586 484 542 448 585 388 635 302 677 229L959 229 959 160 706 160 706 10 632 10 632 160 392 160 392 229 590 229C564 287 527 356 493 409L438 368 396 422C472 479 563 559 613 618 563 690 513 758 467 813L365 817 376 892C509 884 696 874 877 861 889 885 900 908 907 928L973 893C944 818 871 704 803 618L743 648C776 692 811 744 840 794L555 809C662 676 786 490 875 338Z"/>
</svg>