<svg xmlns="http://www.w3.org/2000/svg"
    viewBox="0 0 1000 1000">
  <!--
© 2014-2021 Adobe (http://www.adobe.com/).
Noto is a trademark of Google Inc.
This Font Software is licensed under the SIL Open Font License, Version 1.1. This Font Software is distributed on an "AS IS" BASIS, WITHOUT WARRANTIES OR CONDITIONS OF ANY KIND, either express or implied. See the SIL Open Font License for the specific language, permissions and limitations governing your use of this Font Software.
http://scripts.sil.org/OFL
  -->
<path d="M287 345L287 487 144 487 144 345ZM287 279L144 279 144 140 287 140ZM287 552L287 698 144 698 144 552ZM74 73L74 853 144 853 144 765 357 765 357 73ZM637 321L637 441 531 441C544 410 555 379 565 347L497 332C471 421 429 512 377 572 394 580 425 596 439 606 460 579 481 545 500 508L637 508 637 650 384 650 384 718 637 718 637 929 711 929 711 718 964 718 964 650 711 650 711 508 929 508 929 441 711 441 711 321ZM735 124C765 152 795 186 823 220L547 230C584 171 625 95 658 30L578 11C554 76 512 167 474 232L380 235 390 304 869 282C883 301 894 320 903 336L963 302C931 243 857 157 792 94Z"/>
</svg>