<svg xmlns="http://www.w3.org/2000/svg" name="gid9140" data-unicode="睆"
    viewBox="0 0 1000 1000">
  <!--
© 2014-2021 Adobe (http://www.adobe.com/).
Noto is a trademark of Google Inc.
This Font Software is licensed under the SIL Open Font License, Version 1.1. This Font Software is distributed on an "AS IS" BASIS, WITHOUT WARRANTIES OR CONDITIONS OF ANY KIND, either express or implied. See the SIL Open Font License for the specific language, permissions and limitations governing your use of this Font Software.
http://scripts.sil.org/OFL
  -->
<path d="M442 351L442 418 882 418 882 351ZM270 369L270 511 141 511 141 369ZM270 304L141 304 141 164 270 164ZM270 576L270 722 141 722 141 576ZM73 97L73 877 141 877 141 789 338 789 338 97ZM619 40L619 162 378 162 378 338 447 338 447 228 870 228 870 338 941 338 941 162 696 162 696 40ZM372 524L372 592 516 592C504 747 469 846 298 900 314 914 335 942 342 959 532 895 576 775 591 592L699 592 699 850C699 924 716 946 787 946 801 946 864 946 879 946 941 946 960 911 966 775 946 770 917 758 901 745 899 862 894 879 871 879 859 879 808 879 798 879 776 879 772 875 772 849L772 592 948 592 948 524Z"/>
</svg>