<svg xmlns="http://www.w3.org/2000/svg"
    viewBox="0 0 1000 1000">
  <!--
© 2014-2021 Adobe (http://www.adobe.com/).
Noto is a trademark of Google Inc.
This Font Software is licensed under the SIL Open Font License, Version 1.1. This Font Software is distributed on an "AS IS" BASIS, WITHOUT WARRANTIES OR CONDITIONS OF ANY KIND, either express or implied. See the SIL Open Font License for the specific language, permissions and limitations governing your use of this Font Software.
http://scripts.sil.org/OFL
  -->
<path d="M520 272L815 272 815 376 520 376ZM520 432L815 432 815 537 520 537ZM520 113L815 113 815 215 520 215ZM287 335L287 477 144 477 144 335ZM287 269L144 269 144 130 287 130ZM287 542L287 688 144 688 144 542ZM74 63L74 843 144 843 144 755 357 755 357 63ZM447 51L447 599 528 599C512 739 470 826 298 873 313 886 332 913 340 931 531 872 584 767 602 599L685 599 685 830C685 904 703 925 777 925 791 925 859 925 874 925 938 925 957 891 964 754 944 748 914 736 898 724 896 842 892 859 867 859 852 859 798 859 787 859 762 859 758 855 758 830L758 599 891 599 891 51Z"/>
</svg>