<svg xmlns="http://www.w3.org/2000/svg"
    viewBox="0 0 1000 1000">
  <!--
© 2014-2021 Adobe (http://www.adobe.com/).
Noto is a trademark of Google Inc.
This Font Software is licensed under the SIL Open Font License, Version 1.1. This Font Software is distributed on an "AS IS" BASIS, WITHOUT WARRANTIES OR CONDITIONS OF ANY KIND, either express or implied. See the SIL Open Font License for the specific language, permissions and limitations governing your use of this Font Software.
http://scripts.sil.org/OFL
  -->
<path d="M274 339L274 481 142 481 142 339ZM274 274L142 274 142 134 274 134ZM274 546L274 692 142 692 142 546ZM73 67L73 847 142 847 142 759 344 759 344 67ZM618 289L618 424 513 424 513 289ZM687 289L797 289 797 424 687 424ZM867 19C755 46 552 66 382 74 390 90 399 116 400 133 470 131 545 126 618 120L618 225 375 225 375 289 450 289 450 424 355 424 355 491 450 491 450 637 374 637 374 701 618 701 618 841 346 841 346 907 961 907 961 841 687 841 687 701 940 701 940 637 861 637 861 491 962 491 962 424 861 424 861 289 940 289 940 225 687 225 687 113C774 103 855 91 920 75ZM618 637L513 637 513 491 618 491ZM687 637L687 491 797 491 797 637Z"/>
</svg>