<svg xmlns="http://www.w3.org/2000/svg" name="gid9156" data-unicode="睡"
    viewBox="0 0 1000 1000">
  <!--
© 2014-2021 Adobe (http://www.adobe.com/).
Noto is a trademark of Google Inc.
This Font Software is licensed under the SIL Open Font License, Version 1.1. This Font Software is distributed on an "AS IS" BASIS, WITHOUT WARRANTIES OR CONDITIONS OF ANY KIND, either express or implied. See the SIL Open Font License for the specific language, permissions and limitations governing your use of this Font Software.
http://scripts.sil.org/OFL
  -->
<path d="M274 369L274 511 142 511 142 369ZM274 304L142 304 142 164 274 164ZM274 576L274 722 142 722 142 576ZM73 97L73 877 142 877 142 789 344 789 344 97ZM618 319L618 454 513 454 513 319ZM687 319L797 319 797 454 687 454ZM867 49C755 76 552 96 382 104 390 120 399 146 400 163 470 161 545 156 618 150L618 255 375 255 375 319 450 319 450 454 355 454 355 521 450 521 450 667 374 667 374 731 618 731 618 871 346 871 346 937 961 937 961 871 687 871 687 731 940 731 940 667 861 667 861 521 962 521 962 454 861 454 861 319 940 319 940 255 687 255 687 143C774 133 855 121 920 105ZM618 667L513 667 513 521 618 521ZM687 667L687 521 797 521 797 667Z"/>
</svg>