<svg xmlns="http://www.w3.org/2000/svg" name="gid9157" data-unicode="睢"
    viewBox="0 0 1000 1000">
  <!--
© 2014-2021 Adobe (http://www.adobe.com/).
Noto is a trademark of Google Inc.
This Font Software is licensed under the SIL Open Font License, Version 1.1. This Font Software is distributed on an "AS IS" BASIS, WITHOUT WARRANTIES OR CONDITIONS OF ANY KIND, either express or implied. See the SIL Open Font License for the specific language, permissions and limitations governing your use of this Font Software.
http://scripts.sil.org/OFL
  -->
<path d="M535 500L688 500 688 638 535 638ZM535 435L535 299 688 299 688 435ZM74 90L74 875 143 875 143 792 353 792 353 435C368 451 386 475 393 487 418 458 442 425 465 388L465 959 535 959 535 912 961 912 961 843 759 843 759 703 911 703 911 638 759 638 759 500 911 500 911 435 759 435 759 299 941 299 941 231 768 231C789 183 811 124 829 71L755 53C742 105 719 177 697 231L547 231C570 176 591 118 608 59L536 40C498 182 432 320 353 413L353 90ZM535 703L688 703 688 843 535 843ZM283 365L283 511 143 511 143 365ZM283 300L143 300 143 157 283 157ZM283 576L283 724 143 724 143 576Z"/>
</svg>