<svg xmlns="http://www.w3.org/2000/svg"
    viewBox="0 0 1000 1000">
  <!--
© 2014-2021 Adobe (http://www.adobe.com/).
Noto is a trademark of Google Inc.
This Font Software is licensed under the SIL Open Font License, Version 1.1. This Font Software is distributed on an "AS IS" BASIS, WITHOUT WARRANTIES OR CONDITIONS OF ANY KIND, either express or implied. See the SIL Open Font License for the specific language, permissions and limitations governing your use of this Font Software.
http://scripts.sil.org/OFL
  -->
<path d="M291 319C244 363 165 404 91 432 106 443 131 468 141 480 214 447 300 395 354 341ZM245 267L245 319 686 319 641 354C710 387 799 439 842 474L893 431C848 397 764 350 696 319L755 319 755 267ZM304 898L697 898 697 932 772 932 772 578C823 600 875 618 924 631 934 613 950 587 964 571 812 536 638 459 527 354L460 354C375 447 211 535 43 582 56 597 72 623 79 639 131 623 183 603 232 581L232 932 304 932ZM304 845L304 786 697 786 697 845ZM304 739L304 681 697 681 697 739ZM304 633L304 576 697 576 697 633ZM497 410C541 451 597 489 658 523L344 523C405 487 458 449 497 410ZM458 9L458 165 91 165 91 321 163 321 163 217 836 217 836 321 911 321 911 165 533 165 533 115 840 115 840 68 533 68 533 9Z"/>
</svg>