<svg xmlns="http://www.w3.org/2000/svg" name="gid9177" data-unicode="瞀"
    viewBox="0 0 1000 1000">
  <!--
© 2014-2021 Adobe (http://www.adobe.com/).
Noto is a trademark of Google Inc.
This Font Software is licensed under the SIL Open Font License, Version 1.1. This Font Software is distributed on an "AS IS" BASIS, WITHOUT WARRANTIES OR CONDITIONS OF ANY KIND, either express or implied. See the SIL Open Font License for the specific language, permissions and limitations governing your use of this Font Software.
http://scripts.sil.org/OFL
  -->
<path d="M256 687L746 687 746 747 256 747ZM256 639L256 579 746 579 746 639ZM256 796L746 796 746 856 256 856ZM182 524L182 958 256 958 256 912 746 912 746 957 823 957 823 524ZM629 40C606 108 559 190 502 245L480 238 469 241 374 241 359 229C413 195 470 148 513 104L470 68 455 72 95 72 95 129 397 129C371 154 340 179 311 197 281 179 249 161 220 147L176 177C209 195 247 219 280 241L60 241 60 297 238 297C185 345 111 387 42 416 55 427 75 453 82 464 157 429 239 376 298 315L298 437C298 447 295 450 284 450 273 451 237 451 196 449 204 465 212 484 215 501 271 501 309 501 332 491 356 483 361 468 361 438L361 297 438 297C422 327 404 357 386 378L439 398C466 367 494 318 517 271L543 293C558 279 573 263 586 246 609 291 638 332 672 368 620 404 555 430 481 448 494 461 514 489 521 503 596 480 663 450 719 410 773 453 837 486 910 507 919 488 937 462 952 448 882 432 820 405 768 368 816 321 853 263 875 190L951 190 951 131 662 131C675 106 687 81 696 57ZM627 190L804 190C787 246 758 291 720 329 679 290 646 245 624 194Z"/>
</svg>