<svg xmlns="http://www.w3.org/2000/svg"
    viewBox="0 0 1000 1000">
  <!--
© 2014-2021 Adobe (http://www.adobe.com/).
Noto is a trademark of Google Inc.
This Font Software is licensed under the SIL Open Font License, Version 1.1. This Font Software is distributed on an "AS IS" BASIS, WITHOUT WARRANTIES OR CONDITIONS OF ANY KIND, either express or implied. See the SIL Open Font License for the specific language, permissions and limitations governing your use of this Font Software.
http://scripts.sil.org/OFL
  -->
<path d="M514 537L829 537 829 602 514 602ZM514 650L829 650 829 715 514 715ZM514 427L829 427 829 490 514 490ZM446 374L446 768 901 768 901 374ZM718 813C784 850 856 896 897 931L968 892C920 857 841 811 772 774ZM561 773C516 812 421 856 341 880 355 894 376 917 385 932 467 906 565 861 624 812ZM278 345L278 487 142 487 142 345ZM278 279L142 279 142 140 278 140ZM278 552L278 698 142 698 142 552ZM72 73L72 853 142 853 142 765 348 765 348 73ZM372 271L372 324 955 324 955 271 698 271 698 217 908 217 908 168 698 168 698 117 930 117 930 65 698 65 698 10 626 10 626 65 410 65 410 117 626 117 626 168 429 168 429 217 626 217 626 271Z"/>
</svg>