<svg xmlns="http://www.w3.org/2000/svg"
    viewBox="0 0 1000 1000">
  <!--
© 2014-2021 Adobe (http://www.adobe.com/).
Noto is a trademark of Google Inc.
This Font Software is licensed under the SIL Open Font License, Version 1.1. This Font Software is distributed on an "AS IS" BASIS, WITHOUT WARRANTIES OR CONDITIONS OF ANY KIND, either express or implied. See the SIL Open Font License for the specific language, permissions and limitations governing your use of this Font Software.
http://scripts.sil.org/OFL
  -->
<path d="M249 339L249 482 138 482 138 339ZM249 274L138 274 138 134 249 134ZM249 545L249 692 138 692 138 545ZM73 68L73 848 138 848 138 758 315 758 315 68ZM472 10L472 102 338 102 338 163 472 163 472 310 611 310 611 376 372 376 372 930 437 930 437 758C447 766 458 779 463 791 494 763 516 715 530 658 540 704 556 748 584 787 590 779 604 767 613 762L613 922 677 922 677 434 862 434 862 750C801 670 797 573 797 490L710 490 710 539 762 539 764 580 756 576C745 650 717 719 677 751 688 759 699 775 704 786 736 758 760 710 776 656 787 701 804 744 833 782 839 774 854 763 862 756L862 852C862 863 858 866 847 866 836 867 802 867 762 866 771 883 781 911 784 929 838 929 874 928 897 918 920 906 927 886 927 853L927 376 679 376 679 310 822 310 822 163 951 163 951 102 822 102 822 10 752 10 752 102 541 102 541 10ZM752 163L752 247 541 247 541 163ZM509 576C499 653 475 724 437 756L437 434 613 434 613 756C556 676 551 579 551 490L469 490 469 539 517 539 519 580Z"/>
</svg>