<svg xmlns="http://www.w3.org/2000/svg"
    viewBox="0 0 1000 1000">
  <!--
© 2014-2021 Adobe (http://www.adobe.com/).
Noto is a trademark of Google Inc.
This Font Software is licensed under the SIL Open Font License, Version 1.1. This Font Software is distributed on an "AS IS" BASIS, WITHOUT WARRANTIES OR CONDITIONS OF ANY KIND, either express or implied. See the SIL Open Font License for the specific language, permissions and limitations governing your use of this Font Software.
http://scripts.sil.org/OFL
  -->
<path d="M522 413L786 413 786 518 522 518ZM833 33C814 78 778 145 750 187L813 204C843 165 878 106 909 51ZM410 52C445 98 482 161 498 202L560 173C543 132 506 72 469 27ZM259 343L259 485 136 485 136 343ZM259 278L136 278 136 139 259 139ZM259 550L259 697 136 697 136 550ZM72 71L72 851 136 851 136 764 323 764 323 71ZM355 841L355 903 955 903 955 841 694 841 694 726 898 726 898 664 694 664 694 574 855 574 855 357 456 357 456 574 624 574 624 664 408 664 408 726 624 726 624 841ZM624 9L624 213 372 213 372 389 443 389 443 279 862 279 862 389 936 389 936 213 694 213 694 9Z"/>
</svg>