<svg xmlns="http://www.w3.org/2000/svg" name="gid9205" data-unicode="瞶"
    viewBox="0 0 1000 1000">
  <!--
© 2014-2021 Adobe (http://www.adobe.com/).
Noto is a trademark of Google Inc.
This Font Software is licensed under the SIL Open Font License, Version 1.1. This Font Software is distributed on an "AS IS" BASIS, WITHOUT WARRANTIES OR CONDITIONS OF ANY KIND, either express or implied. See the SIL Open Font License for the specific language, permissions and limitations governing your use of this Font Software.
http://scripts.sil.org/OFL
  -->
<path d="M497 603L806 603 806 662 497 662ZM497 709L806 709 806 770 497 770ZM497 498L806 498 806 556 497 556ZM271 373L271 515 141 515 141 373ZM271 307L141 307 141 168 271 168ZM271 580L271 726 141 726 141 580ZM73 101L73 881 141 881 141 793 339 793 339 101ZM421 116L421 294 613 294 613 346 358 346 358 401 960 401 960 346 684 346 684 294 884 294 884 116 684 116 684 40 613 40 613 116ZM483 166L613 166 613 244 483 244ZM684 166L818 166 818 244 684 244ZM705 853C779 885 856 927 900 961L962 924C914 891 832 849 757 818L879 818 879 450 427 450 427 818 534 818C483 857 389 889 304 910 320 923 344 950 355 963 441 936 544 891 603 838L543 818 749 818Z"/>
</svg>