<svg xmlns="http://www.w3.org/2000/svg" name="gid9212" data-unicode="瞿"
    viewBox="0 0 1000 1000">
  <!--
© 2014-2021 Adobe (http://www.adobe.com/).
Noto is a trademark of Google Inc.
This Font Software is licensed under the SIL Open Font License, Version 1.1. This Font Software is distributed on an "AS IS" BASIS, WITHOUT WARRANTIES OR CONDITIONS OF ANY KIND, either express or implied. See the SIL Open Font License for the specific language, permissions and limitations governing your use of this Font Software.
http://scripts.sil.org/OFL
  -->
<path d="M193 220L401 220 401 273 193 273ZM193 317L401 317 401 371 193 371ZM193 125L401 125 401 176 193 176ZM606 220L817 220 817 272 606 272ZM606 317L817 317 817 370 606 370ZM606 125L817 125 817 176 606 176ZM504 671L504 741 267 741 267 671ZM504 618L267 618 267 550 504 550ZM540 78L540 406 535 405C525 431 507 465 489 494L301 494C320 470 338 444 354 419L348 417 469 417 469 78 128 78 128 417 264 417C209 497 125 572 40 621 58 634 88 663 100 678 131 658 163 633 194 606L194 960 267 960 267 923 949 923 949 866 576 866 576 794 853 794 853 741 576 741 576 671 852 671 852 618 576 618 576 550 907 550 907 494 568 494 613 426 576 416 884 416 884 78ZM504 794L504 866 267 866 267 794Z"/>
</svg>