<svg xmlns="http://www.w3.org/2000/svg"
    viewBox="0 0 1000 1000">
  <!--
© 2014-2021 Adobe (http://www.adobe.com/).
Noto is a trademark of Google Inc.
This Font Software is licensed under the SIL Open Font License, Version 1.1. This Font Software is distributed on an "AS IS" BASIS, WITHOUT WARRANTIES OR CONDITIONS OF ANY KIND, either express or implied. See the SIL Open Font License for the specific language, permissions and limitations governing your use of this Font Software.
http://scripts.sil.org/OFL
  -->
<path d="M191 158L400 158 400 194 191 194ZM191 233L400 233 400 270 191 270ZM191 84L400 84 400 119 191 119ZM607 158L820 158 820 194 607 194ZM607 233L820 233 820 270 607 270ZM607 84L820 84 820 119 607 119ZM485 488L485 529 256 529 256 488ZM485 446L256 446 256 406 485 406ZM543 45L543 300 515 295C507 313 492 338 478 360L287 360C302 344 316 327 328 310L466 310 466 45 126 45 126 310 242 310C189 371 113 426 38 463 55 475 82 502 93 516 123 498 155 477 186 453L186 659 927 659 927 614 557 614 557 572 836 572 836 529 557 529 557 488 834 488 834 446 557 446 557 406 884 406 884 360 557 360 595 310 886 310 886 45ZM485 572L485 614 256 614 256 572ZM693 744C642 774 577 797 504 816 427 797 361 773 312 744ZM97 697L97 744 266 744 239 757C282 789 336 816 399 839 288 860 166 871 53 876 62 891 74 916 78 932 218 923 368 905 502 871 629 905 775 924 917 932 925 915 940 889 953 874 837 869 718 858 610 839 692 810 763 772 813 725L772 694 760 697Z"/>
</svg>