<svg xmlns="http://www.w3.org/2000/svg" name="gid9226" data-unicode="矟"
    viewBox="0 0 1000 1000">
  <!--
© 2014-2021 Adobe (http://www.adobe.com/).
Noto is a trademark of Google Inc.
This Font Software is licensed under the SIL Open Font License, Version 1.1. This Font Software is distributed on an "AS IS" BASIS, WITHOUT WARRANTIES OR CONDITIONS OF ANY KIND, either express or implied. See the SIL Open Font License for the specific language, permissions and limitations governing your use of this Font Software.
http://scripts.sil.org/OFL
  -->
<path d="M532 100C504 172 458 244 406 292 423 302 453 323 467 335 518 282 571 199 603 117ZM776 122C831 184 887 268 908 325L971 291C949 234 890 151 836 92ZM108 246C179 283 263 340 314 386L45 386 45 453 207 453C166 559 97 670 30 731 42 749 60 778 67 799 124 744 179 655 221 561L221 877C221 889 217 893 203 893 191 893 149 893 101 892 110 912 120 941 123 960 189 960 230 959 256 947 283 936 290 915 290 878L290 453 379 453C364 512 345 574 326 616L381 638C411 577 440 481 460 398L413 383 402 386 347 386 377 351C358 332 332 311 303 290 362 241 424 175 462 114L412 82 399 85 60 85 60 150 349 150C321 186 285 224 248 255 216 234 181 215 150 200ZM550 572L839 572 839 679 550 679ZM550 512L550 408 839 408 839 512ZM655 41L655 342 478 342 478 960 550 960 550 743 839 743 839 875C839 888 834 891 822 892 809 892 765 893 718 891 728 909 740 940 744 959 810 959 851 958 877 947 904 935 913 914 913 875L913 342 728 342 728 41Z"/>
</svg>