<svg xmlns="http://www.w3.org/2000/svg" name="gid9236" data-unicode="矬"
    viewBox="0 0 1000 1000">
  <!--
© 2014-2021 Adobe (http://www.adobe.com/).
Noto is a trademark of Google Inc.
This Font Software is licensed under the SIL Open Font License, Version 1.1. This Font Software is distributed on an "AS IS" BASIS, WITHOUT WARRANTIES OR CONDITIONS OF ANY KIND, either express or implied. See the SIL Open Font License for the specific language, permissions and limitations governing your use of this Font Software.
http://scripts.sil.org/OFL
  -->
<path d="M155 42C132 162 90 279 31 355 47 364 76 384 88 395 118 354 145 301 168 243L209 243 209 387 208 440 66 440 66 508 203 508C190 633 148 772 26 879 41 888 67 915 78 930 164 854 214 757 243 660 278 715 325 792 344 832L394 770C375 740 290 619 261 582 265 557 269 532 271 508L374 508 353 536C368 546 393 569 403 580 446 527 476 462 498 385 528 442 565 517 581 556L624 519 624 635 417 635 417 702 624 702 624 861 366 861 366 929 961 929 961 861 695 861 695 702 912 702 912 635 695 635 695 523C709 534 727 552 734 562 773 516 803 459 825 394 858 450 899 522 916 560L970 512C953 482 880 367 846 317 860 259 869 196 876 128L811 121C797 278 767 414 695 503L695 40 624 40 624 492C598 444 541 341 518 304 529 249 536 191 542 128L477 122C466 270 440 401 383 494L383 440 276 440 277 388 277 243 384 243 384 175 192 175C204 136 214 96 223 55Z"/>
</svg>