<svg xmlns="http://www.w3.org/2000/svg" name="gid9238" data-unicode="矮"
    viewBox="0 0 1000 1000">
  <!--
© 2014-2021 Adobe (http://www.adobe.com/).
Noto is a trademark of Google Inc.
This Font Software is licensed under the SIL Open Font License, Version 1.1. This Font Software is distributed on an "AS IS" BASIS, WITHOUT WARRANTIES OR CONDITIONS OF ANY KIND, either express or implied. See the SIL Open Font License for the specific language, permissions and limitations governing your use of this Font Software.
http://scripts.sil.org/OFL
  -->
<path d="M118 39C105 162 82 285 39 366 56 375 86 394 99 404 121 359 139 303 154 241L211 241 211 399 210 447 43 447 43 518 206 518C193 645 154 786 36 894 51 904 78 930 88 945 169 870 218 776 245 680 286 737 341 816 365 856L414 795C393 765 301 645 264 603 269 574 273 546 276 518L398 518 398 462C412 474 431 496 441 512 510 475 585 410 640 339L640 498 598 490 557 589 396 589 396 654 529 654C505 707 480 758 460 796L524 819 538 791C571 804 606 818 641 834 583 866 502 889 387 904 399 918 414 945 420 961 553 941 646 910 711 866 776 899 835 932 874 960L926 909C886 881 828 850 765 820 807 775 831 720 846 654L961 654 961 589 631 589 667 503 656 501 712 501 712 326C772 395 854 463 924 500 935 484 956 460 971 447 900 417 815 359 757 299L951 299 951 235 712 235 712 137C784 127 851 113 902 95L845 45C756 77 574 96 427 102 434 118 443 143 445 159 507 157 574 152 640 145L640 235 411 235 411 299 599 299C546 363 469 423 398 456L398 447 280 447 281 400 281 241 393 241 393 172 169 172C176 133 182 92 187 51ZM602 654L774 654C761 709 739 754 701 791 654 771 607 752 564 737Z"/>
</svg>