<svg xmlns="http://www.w3.org/2000/svg"
    viewBox="0 0 1000 1000">
  <!--
© 2014-2021 Adobe (http://www.adobe.com/).
Noto is a trademark of Google Inc.
This Font Software is licensed under the SIL Open Font License, Version 1.1. This Font Software is distributed on an "AS IS" BASIS, WITHOUT WARRANTIES OR CONDITIONS OF ANY KIND, either express or implied. See the SIL Open Font License for the specific language, permissions and limitations governing your use of this Font Software.
http://scripts.sil.org/OFL
  -->
<path d="M388 281L388 349 527 349C502 527 443 678 367 758L367 368 188 368C207 295 223 217 235 137L406 137 406 69 48 69 48 137 164 137C139 309 99 472 28 578 42 594 65 628 74 644 90 620 104 593 118 565L118 880 183 880 183 794 367 794 367 785C380 799 393 816 400 828 505 727 574 540 598 290L557 279 545 281ZM183 434L301 434 301 728 183 728ZM887 204C854 263 800 340 752 399 729 327 711 251 697 173L697 22 626 22 626 840C626 855 621 859 607 859 593 860 550 860 502 859 513 878 524 911 528 930 592 930 636 928 661 915 687 903 697 882 697 840L697 416C746 591 817 741 918 829 931 810 956 782 972 769 888 705 823 595 774 465 829 405 897 318 951 243Z"/>
</svg>