<svg xmlns="http://www.w3.org/2000/svg" name="gid9250" data-unicode="砉"
    viewBox="0 0 1000 1000">
  <!--
© 2014-2021 Adobe (http://www.adobe.com/).
Noto is a trademark of Google Inc.
This Font Software is licensed under the SIL Open Font License, Version 1.1. This Font Software is distributed on an "AS IS" BASIS, WITHOUT WARRANTIES OR CONDITIONS OF ANY KIND, either express or implied. See the SIL Open Font License for the specific language, permissions and limitations governing your use of this Font Software.
http://scripts.sil.org/OFL
  -->
<path d="M58 539L58 601 303 601C238 694 140 771 37 821 52 835 75 866 85 881 138 851 191 815 239 773L239 959 315 959 315 924 774 924 774 954 853 954 853 685 326 685C348 658 369 630 387 601L941 601 941 539ZM315 864L315 745 774 745 774 864ZM888 300C798 331 671 356 535 376L535 298C663 277 785 251 880 219L828 173C752 199 647 221 535 239L535 168C644 149 748 126 831 98L778 54C714 75 628 94 535 109L535 41 459 41 459 121C343 138 220 150 116 155 129 173 141 199 147 214 244 207 352 196 459 180L459 250C344 265 225 277 122 282 134 299 146 326 151 342 247 335 353 324 459 309L459 386C330 401 197 412 80 416 92 435 102 463 107 479 217 473 339 462 459 447L459 526 535 526 535 437C686 415 829 385 939 348Z"/>
</svg>