<svg xmlns="http://www.w3.org/2000/svg" name="gid9251" data-unicode="砌"
    viewBox="0 0 1000 1000">
  <!--
© 2014-2021 Adobe (http://www.adobe.com/).
Noto is a trademark of Google Inc.
This Font Software is licensed under the SIL Open Font License, Version 1.1. This Font Software is distributed on an "AS IS" BASIS, WITHOUT WARRANTIES OR CONDITIONS OF ANY KIND, either express or implied. See the SIL Open Font License for the specific language, permissions and limitations governing your use of this Font Software.
http://scripts.sil.org/OFL
  -->
<path d="M44 105L44 174 154 174C132 345 95 507 27 614 41 630 64 663 71 679 88 653 103 624 117 592L117 913 177 913 177 827 351 827 351 400 181 400C199 329 212 252 223 174L374 174 374 105ZM580 108L580 178 687 178C684 520 673 774 436 907 453 919 476 944 486 961 734 814 750 541 755 178L861 178C854 666 845 834 822 868 813 884 805 887 791 887 773 887 738 886 698 883 710 904 717 936 719 957 758 959 796 960 823 956 850 952 868 944 886 915 918 868 923 694 931 149 931 139 931 108 931 108ZM177 467L288 467 288 761 177 761ZM421 57L421 306 333 324 341 391 421 375 421 640C421 713 426 730 440 743 453 754 475 760 493 760 504 760 529 760 541 760 558 760 577 756 589 750 601 742 609 730 614 711 618 695 622 647 623 608 606 602 589 593 575 583 575 625 574 657 572 672 570 685 565 693 561 696 556 699 547 700 538 700 530 700 516 700 509 700 502 700 496 699 492 696 487 690 486 676 486 649L486 361 618 334 610 268 486 293 486 57Z"/>
</svg>