<svg xmlns="http://www.w3.org/2000/svg"
    viewBox="0 0 1000 1000">
  <!--
© 2014-2021 Adobe (http://www.adobe.com/).
Noto is a trademark of Google Inc.
This Font Software is licensed under the SIL Open Font License, Version 1.1. This Font Software is distributed on an "AS IS" BASIS, WITHOUT WARRANTIES OR CONDITIONS OF ANY KIND, either express or implied. See the SIL Open Font License for the specific language, permissions and limitations governing your use of this Font Software.
http://scripts.sil.org/OFL
  -->
<path d="M591 453C628 525 663 620 674 682L735 661C722 599 687 505 648 433ZM44 69L44 138 162 138C139 311 99 474 28 581 42 597 66 631 74 648 90 625 104 599 117 572L117 881 182 881 182 796 390 796 390 370 189 370C208 297 223 219 234 138L405 138 405 69ZM182 437L324 437 324 730 182 730ZM768 779L537 817C551 692 567 515 580 344L768 344ZM385 841L403 913C502 894 638 867 769 841 773 897 791 912 840 912 851 912 883 912 895 912 950 912 965 868 970 714 951 709 924 697 909 684 907 822 904 849 888 849 880 849 857 849 851 849 837 849 835 844 835 814L835 277 585 277 595 132 953 132 953 64 440 64 440 132 528 132C515 354 490 646 467 828Z"/>
</svg>