<svg xmlns="http://www.w3.org/2000/svg"
    viewBox="0 0 1000 1000">
  <!--
© 2014-2021 Adobe (http://www.adobe.com/).
Noto is a trademark of Google Inc.
This Font Software is licensed under the SIL Open Font License, Version 1.1. This Font Software is distributed on an "AS IS" BASIS, WITHOUT WARRANTIES OR CONDITIONS OF ANY KIND, either express or implied. See the SIL Open Font License for the specific language, permissions and limitations governing your use of this Font Software.
http://scripts.sil.org/OFL
  -->
<path d="M48 63L48 132 164 132C140 305 101 466 28 573 42 588 66 623 74 639 91 614 107 585 121 555L121 870 185 870 185 785 379 785 379 358 191 358C210 287 224 210 236 132L415 132 415 63ZM185 424L313 424 313 718 185 718ZM458 159L458 370C458 519 446 730 340 882 357 889 387 910 400 922 510 764 528 530 528 371L528 228 949 228 949 159 736 159 736 13 663 13 663 159ZM775 575C802 633 828 700 850 764L646 783C683 645 723 448 750 293L672 281C653 434 615 648 578 789L506 795 520 868C616 858 744 843 871 827 882 866 892 902 897 931L965 906C947 816 893 669 838 556Z"/>
</svg>