<svg xmlns="http://www.w3.org/2000/svg" name="gid9280" data-unicode="硇"
    viewBox="0 0 1000 1000">
  <!--
© 2014-2021 Adobe (http://www.adobe.com/).
Noto is a trademark of Google Inc.
This Font Software is licensed under the SIL Open Font License, Version 1.1. This Font Software is distributed on an "AS IS" BASIS, WITHOUT WARRANTIES OR CONDITIONS OF ANY KIND, either express or implied. See the SIL Open Font License for the specific language, permissions and limitations governing your use of this Font Software.
http://scripts.sil.org/OFL
  -->
<path d="M43 101L43 170 162 170C139 343 99 506 28 613 42 629 66 664 74 680 90 657 104 631 117 604L117 914 182 914 182 829 372 829 372 402 189 402C208 329 223 251 234 170L401 170 401 101ZM182 469L306 469 306 763 182 763ZM635 41C629 86 615 147 602 194L439 194 439 960 507 960 507 907 853 907 853 956 923 956 923 194 674 194C687 153 701 101 713 53ZM738 289C722 357 701 423 676 485 639 451 601 417 566 388L523 434C563 468 606 509 647 550 608 631 561 703 507 759L507 261 853 261 853 842 507 842 507 769C522 780 542 797 552 808 605 750 652 678 693 597 732 640 767 681 790 714L837 660C810 624 769 578 723 531 753 460 779 382 800 301Z"/>
</svg>