<svg xmlns="http://www.w3.org/2000/svg" name="gid9288" data-unicode="硝"
    viewBox="0 0 1000 1000">
  <!--
© 2014-2021 Adobe (http://www.adobe.com/).
Noto is a trademark of Google Inc.
This Font Software is licensed under the SIL Open Font License, Version 1.1. This Font Software is distributed on an "AS IS" BASIS, WITHOUT WARRANTIES OR CONDITIONS OF ANY KIND, either express or implied. See the SIL Open Font License for the specific language, permissions and limitations governing your use of this Font Software.
http://scripts.sil.org/OFL
  -->
<path d="M446 108C479 170 519 254 537 303L596 274C577 227 536 147 502 86ZM868 86C845 146 800 229 767 281L820 305C854 255 897 179 929 113ZM527 572L832 572 832 679 527 679ZM527 512L527 408 832 408 832 512ZM646 40L646 342 454 342 454 960 527 960 527 743 832 743 832 868C832 881 827 885 814 885 801 885 757 886 710 884 720 903 732 933 736 952 802 952 843 952 870 940 897 928 905 907 905 869L905 342 719 342 719 40ZM54 93L54 162 178 162C150 315 105 457 34 552 46 571 63 614 68 633 87 609 104 582 120 552L120 914 184 914 184 834 373 834 373 401 186 401C212 326 233 245 249 162L395 162 395 93ZM184 469L308 469 308 767 184 767Z"/>
</svg>