<svg xmlns="http://www.w3.org/2000/svg" name="gid9294" data-unicode="硨"
    viewBox="0 0 1000 1000">
  <!--
© 2014-2021 Adobe (http://www.adobe.com/).
Noto is a trademark of Google Inc.
This Font Software is licensed under the SIL Open Font License, Version 1.1. This Font Software is distributed on an "AS IS" BASIS, WITHOUT WARRANTIES OR CONDITIONS OF ANY KIND, either express or implied. See the SIL Open Font License for the specific language, permissions and limitations governing your use of this Font Software.
http://scripts.sil.org/OFL
  -->
<path d="M431 291L431 645 638 645 638 731 393 731 393 798 638 798 638 960 709 960 709 798 961 798 961 731 709 731 709 645 925 645 925 291 709 291 709 214 948 214 948 147 709 147 709 44 638 44 638 147 399 147 399 214 638 214 638 291ZM499 496L638 496 638 585 499 585ZM709 496L854 496 854 585 709 585ZM499 351L638 351 638 439 499 439ZM709 351L854 351 854 439 709 439ZM45 97L45 166 161 166C138 337 98 497 28 603 42 618 66 653 74 669 90 646 104 620 117 593L117 904 182 904 182 818 369 818 369 392 188 392C207 321 222 244 233 166L386 166 386 97ZM182 458L303 458 303 752 182 752Z"/>
</svg>