<svg xmlns="http://www.w3.org/2000/svg"
    viewBox="0 0 1000 1000">
  <!--
© 2014-2021 Adobe (http://www.adobe.com/).
Noto is a trademark of Google Inc.
This Font Software is licensed under the SIL Open Font License, Version 1.1. This Font Software is distributed on an "AS IS" BASIS, WITHOUT WARRANTIES OR CONDITIONS OF ANY KIND, either express or implied. See the SIL Open Font License for the specific language, permissions and limitations governing your use of this Font Software.
http://scripts.sil.org/OFL
  -->
<path d="M627 483L627 879 691 879 691 483ZM468 479L468 600C468 693 455 801 332 882 348 893 371 915 381 929 517 839 534 714 534 601L534 479ZM788 478L788 825C788 871 791 886 804 899 818 912 836 916 855 916 865 916 886 916 897 916 913 916 930 912 940 905 953 896 961 884 966 864 970 846 974 793 974 746 957 741 934 729 922 717 923 764 921 805 919 822 917 833 913 841 910 845 907 849 899 850 892 850 885 850 876 850 871 850 865 850 859 848 856 844 853 841 851 835 851 829L851 478ZM395 363L403 431 870 403C886 423 899 442 909 459L967 422C933 365 855 283 787 226L733 259C762 285 793 315 821 346L551 357C581 310 615 251 644 198L957 198 957 133 700 133 700 14 627 14 627 133 400 133 400 66 45 66 45 135 161 135C138 306 98 466 28 573 42 588 66 623 74 639 90 616 104 590 117 563L117 874 182 874 182 788 369 788 369 362 188 362C207 290 222 214 234 135L392 135 392 198 563 198C540 250 507 313 479 360ZM182 428L303 428 303 722 182 722Z"/>
</svg>