<svg xmlns="http://www.w3.org/2000/svg" name="gid9307" data-unicode="碇"
    viewBox="0 0 1000 1000">
  <!--
© 2014-2021 Adobe (http://www.adobe.com/).
Noto is a trademark of Google Inc.
This Font Software is licensed under the SIL Open Font License, Version 1.1. This Font Software is distributed on an "AS IS" BASIS, WITHOUT WARRANTIES OR CONDITIONS OF ANY KIND, either express or implied. See the SIL Open Font License for the specific language, permissions and limitations governing your use of this Font Software.
http://scripts.sil.org/OFL
  -->
<path d="M45 102L45 171 161 171C139 343 99 506 28 612 42 628 66 663 74 679 90 656 104 630 117 603L117 913 182 913 182 828 369 828 369 401 189 401C207 328 222 251 234 171L397 171 397 102ZM182 468L303 468 303 762 182 762ZM416 157L416 326 484 326 484 223 869 223 869 326 939 326 939 157 709 157 709 43 637 43 637 157ZM476 519C466 695 433 831 334 914 351 925 379 950 389 963 446 910 483 844 509 762 574 915 679 947 812 947L945 947C948 927 958 894 969 878 938 878 839 878 817 878 780 878 745 875 713 867L713 658 907 658 907 592 713 592 713 429 921 429 921 363 436 363 436 429 642 429 642 836C595 805 557 751 532 661 539 618 545 572 548 523Z"/>
</svg>