<svg xmlns="http://www.w3.org/2000/svg" name="gid9311" data-unicode="碎"
    viewBox="0 0 1000 1000">
  <!--
© 2014-2021 Adobe (http://www.adobe.com/).
Noto is a trademark of Google Inc.
This Font Software is licensed under the SIL Open Font License, Version 1.1. This Font Software is distributed on an "AS IS" BASIS, WITHOUT WARRANTIES OR CONDITIONS OF ANY KIND, either express or implied. See the SIL Open Font License for the specific language, permissions and limitations governing your use of this Font Software.
http://scripts.sil.org/OFL
  -->
<path d="M119 396L118 398C96 478 66 550 28 606 42 622 66 657 74 673 90 649 105 623 118 596L118 908 183 908 183 822 377 822 377 396 190 396C209 323 224 245 236 164L414 164 414 96 48 96 48 164 164 164C153 245 139 324 119 396ZM183 462L311 462 311 756 183 756ZM421 158L421 227 943 227 943 158 709 158 709 40 635 40 635 158ZM778 251C751 370 695 474 612 540 622 545 637 555 648 565L635 565 635 655 396 655 396 725 635 725 635 959 709 959 709 725 961 725 961 655 709 655 709 565 685 565C723 528 756 482 783 431 830 477 880 530 906 567L954 517C923 478 864 418 811 371 825 337 837 300 846 262ZM522 251C502 366 461 469 393 536 408 546 436 566 448 577 484 538 515 487 539 430 565 456 592 485 607 506L648 457C630 433 593 397 562 368 573 334 582 298 589 261Z"/>
</svg>