<svg xmlns="http://www.w3.org/2000/svg" name="gid9317" data-unicode="碗"
    viewBox="0 0 1000 1000">
  <!--
© 2014-2021 Adobe (http://www.adobe.com/).
Noto is a trademark of Google Inc.
This Font Software is licensed under the SIL Open Font License, Version 1.1. This Font Software is distributed on an "AS IS" BASIS, WITHOUT WARRANTIES OR CONDITIONS OF ANY KIND, either express or implied. See the SIL Open Font License for the specific language, permissions and limitations governing your use of this Font Software.
http://scripts.sil.org/OFL
  -->
<path d="M468 276C446 405 407 527 347 610L347 396 180 396C198 324 212 247 223 168L373 168 373 99 43 99 43 168 153 168C132 339 95 500 27 606 41 621 64 655 71 671 86 648 99 622 112 595L112 906 174 906 174 822 347 822 347 635C361 645 379 660 387 668 404 645 420 618 435 590 471 619 507 653 530 679 486 784 426 860 351 910 366 919 390 942 399 956 536 859 630 675 664 379L624 367 612 369 514 369C521 342 527 314 532 286ZM174 463L283 463 283 756 174 756ZM685 355L685 853C685 930 706 949 773 949 787 949 867 949 882 949 942 949 959 917 966 810 947 806 922 796 907 785 905 871 901 887 877 887 861 887 794 887 782 887 753 887 750 882 750 853L750 419 858 419 858 656C858 664 856 667 847 668 839 668 814 668 782 668 791 685 799 710 801 728 846 728 876 727 896 716 916 706 921 687 921 657L921 355ZM390 156L390 318 458 318 458 220 873 220 873 318 943 318 943 156 695 156 695 43 624 43 624 156ZM498 428L594 428C585 496 571 557 554 612 528 587 493 560 459 537 474 503 487 466 498 428Z"/>
</svg>