<svg xmlns="http://www.w3.org/2000/svg" name="gid9342" data-unicode="碾"
    viewBox="0 0 1000 1000">
  <!--
© 2014-2021 Adobe (http://www.adobe.com/).
Noto is a trademark of Google Inc.
This Font Software is licensed under the SIL Open Font License, Version 1.1. This Font Software is distributed on an "AS IS" BASIS, WITHOUT WARRANTIES OR CONDITIONS OF ANY KIND, either express or implied. See the SIL Open Font License for the specific language, permissions and limitations governing your use of this Font Software.
http://scripts.sil.org/OFL
  -->
<path d="M42 100L42 169 159 169C148 250 134 329 115 402 93 482 65 554 28 611 42 627 65 661 73 677 88 654 102 628 115 601L115 910 179 910 179 827 361 827 361 401 185 401C203 328 218 250 230 169L398 169 398 100ZM588 475L588 592 496 592C499 552 501 512 502 475ZM652 475L775 475 775 592 652 592ZM436 78L436 441C436 590 426 780 319 913 335 920 363 940 374 952 440 869 473 761 488 654L559 654 559 869 481 882 496 948C574 932 673 911 771 891L766 830 624 857 624 654 694 654C733 797 808 907 927 960 936 943 956 918 971 905 911 883 863 846 826 797 863 772 908 740 944 707L897 669C872 693 832 727 797 754 779 724 765 690 753 654L961 654 961 592 840 592 840 475 931 475 931 413 840 413 840 315 775 315 775 413 652 413 652 315 588 315 588 413 502 413 502 305 926 305 926 78ZM179 468L296 468 296 761 179 761ZM502 140L856 140 856 241 502 241Z"/>
</svg>