<svg xmlns="http://www.w3.org/2000/svg" name="gid9355" data-unicode="磑"
    viewBox="0 0 1000 1000">
  <!--
© 2014-2021 Adobe (http://www.adobe.com/).
Noto is a trademark of Google Inc.
This Font Software is licensed under the SIL Open Font License, Version 1.1. This Font Software is distributed on an "AS IS" BASIS, WITHOUT WARRANTIES OR CONDITIONS OF ANY KIND, either express or implied. See the SIL Open Font License for the specific language, permissions and limitations governing your use of this Font Software.
http://scripts.sil.org/OFL
  -->
<path d="M395 364L395 426 953 426 953 364ZM521 544L822 544 822 657 521 657ZM454 490L454 713 892 713 892 490ZM45 98L45 168 161 168C138 340 99 503 28 609 42 625 66 659 74 675 90 652 104 626 117 599L117 909 182 909 182 824 369 824 369 398 189 398C207 326 222 248 234 168L401 168 401 98ZM499 740C523 781 544 838 551 874L365 874 365 938 961 938 961 874 782 874C804 839 831 787 854 739L785 717C770 758 744 819 722 857L771 874 556 874 616 852C609 816 586 761 560 719ZM182 464L303 464 303 758 182 758ZM634 40L634 240 506 240 506 84 439 84 439 302 908 302 908 84 839 84 839 240 704 240 704 40Z"/>
</svg>