<svg xmlns="http://www.w3.org/2000/svg" name="gid9364" data-unicode="磠"
    viewBox="0 0 1000 1000">
  <!--
© 2014-2021 Adobe (http://www.adobe.com/).
Noto is a trademark of Google Inc.
This Font Software is licensed under the SIL Open Font License, Version 1.1. This Font Software is distributed on an "AS IS" BASIS, WITHOUT WARRANTIES OR CONDITIONS OF ANY KIND, either express or implied. See the SIL Open Font License for the specific language, permissions and limitations governing your use of this Font Software.
http://scripts.sil.org/OFL
  -->
<path d="M590 430C618 452 649 485 665 506L698 471C683 450 651 421 622 400ZM630 760C655 786 683 823 696 848L731 816C718 792 689 757 662 731ZM424 322L424 960 489 960 489 916 863 916 863 954 929 954 929 322 704 322 704 219 955 219 955 153 704 153 704 44 632 44 632 322ZM763 592C790 616 819 651 834 675L863 644 863 850 489 850 489 609C512 630 534 656 546 677L582 645C568 624 539 594 512 574L489 595 489 388 863 388 863 634C848 613 820 584 793 562ZM513 502C557 538 603 581 645 624 601 683 551 735 498 776 511 785 532 803 541 812 589 770 637 719 680 661 724 709 761 755 785 793L825 757C799 717 758 668 711 619 750 562 785 501 814 437L763 422C739 478 709 532 675 583 634 543 591 504 550 471ZM44 105L44 174 158 174C148 253 134 330 115 402 93 482 65 554 28 611 42 627 65 661 73 677 88 654 102 628 115 601L115 910 179 910 179 827 365 827 365 401 185 401C203 329 217 253 229 174L400 174 400 105ZM179 468L300 468 300 761 179 761Z"/>
</svg>