<svg xmlns="http://www.w3.org/2000/svg" name="gid9366" data-unicode="磤"
    viewBox="0 0 1000 1000">
  <!--
© 2014-2021 Adobe (http://www.adobe.com/).
Noto is a trademark of Google Inc.
This Font Software is licensed under the SIL Open Font License, Version 1.1. This Font Software is distributed on an "AS IS" BASIS, WITHOUT WARRANTIES OR CONDITIONS OF ANY KIND, either express or implied. See the SIL Open Font License for the specific language, permissions and limitations governing your use of this Font Software.
http://scripts.sil.org/OFL
  -->
<path d="M714 548L657 561C677 644 706 719 744 784 702 837 653 878 600 905 615 918 634 944 642 960 694 931 742 892 784 842 823 891 870 932 925 960 935 943 956 917 971 904 913 878 864 838 824 787 875 709 913 611 934 492L891 479 879 481 635 481 635 546 856 546C839 614 814 674 783 726 753 674 730 613 714 548ZM443 394L557 394 557 473 443 473 443 449ZM443 342L443 267 557 267 557 342ZM581 42C542 65 474 89 412 105L382 94 382 448C382 589 377 775 315 916 331 923 354 943 364 956 402 871 422 770 433 671L550 671C544 821 537 876 526 891 520 899 513 901 501 900 490 900 464 900 435 897 443 914 449 940 450 958 481 960 512 959 529 958 551 955 565 949 578 933 598 909 605 836 613 642 613 633 614 614 614 614L438 614 442 529 615 529 615 425C629 431 651 450 661 460 717 393 727 296 727 222L727 146 814 146 814 351C814 392 816 405 828 417 839 429 856 432 872 432 880 432 897 432 906 432 919 432 932 429 941 423 952 416 960 406 964 391 968 375 971 330 972 290 956 286 937 275 926 265 927 303 925 337 923 351 921 360 918 367 916 371 913 373 907 375 901 375 896 375 890 375 886 375 881 375 877 373 874 369 872 367 871 361 871 356L871 82 669 82 669 221C669 284 663 362 615 423L615 210 443 210 443 156C509 141 581 119 636 92ZM44 95L44 163 149 163C128 334 93 496 25 603 39 619 60 654 67 670 82 646 96 620 109 591L109 906 170 906 170 822 326 822 326 396 174 396C193 322 206 244 217 163L358 163 358 95ZM170 463L263 463 263 756 170 756Z"/>
</svg>