<svg xmlns="http://www.w3.org/2000/svg"
    viewBox="0 0 1000 1000">
  <!--
© 2014-2021 Adobe (http://www.adobe.com/).
Noto is a trademark of Google Inc.
This Font Software is licensed under the SIL Open Font License, Version 1.1. This Font Software is distributed on an "AS IS" BASIS, WITHOUT WARRANTIES OR CONDITIONS OF ANY KIND, either express or implied. See the SIL Open Font License for the specific language, permissions and limitations governing your use of this Font Software.
http://scripts.sil.org/OFL
  -->
<path d="M215 519L215 581 441 581C379 664 275 744 168 793 181 805 202 831 211 847 263 822 314 790 361 754L361 930 433 930 433 898 824 898 824 929 899 929 899 669 455 669C481 641 505 611 525 581L949 581 949 519ZM729 178L729 250 598 250 598 305 706 305C666 355 607 404 553 429 566 440 584 460 593 474 639 448 689 404 729 356L729 492 791 492 791 355C830 400 879 444 922 470 932 455 951 434 965 423 914 398 853 351 812 305L944 305 944 250 791 250 791 178ZM371 178L371 250 224 250 224 305 350 305C310 355 251 404 197 429 210 440 228 460 237 474 282 448 332 405 371 357L371 487 432 487 432 368C467 393 511 426 530 444L568 396C546 381 460 329 432 314L432 305 567 305 567 250 432 250 432 178ZM433 842L433 726 824 726 824 842ZM110 98L110 409C110 553 103 750 27 891 44 899 76 920 88 933 169 784 181 562 181 409L181 165 946 165 946 98 568 98 568 10 491 10 491 98Z"/>
</svg>