<svg xmlns="http://www.w3.org/2000/svg" name="gid9426" data-unicode="祇"
    viewBox="0 0 1000 1000">
  <!--
© 2014-2021 Adobe (http://www.adobe.com/).
Noto is a trademark of Google Inc.
This Font Software is licensed under the SIL Open Font License, Version 1.1. This Font Software is distributed on an "AS IS" BASIS, WITHOUT WARRANTIES OR CONDITIONS OF ANY KIND, either express or implied. See the SIL Open Font License for the specific language, permissions and limitations governing your use of this Font Software.
http://scripts.sil.org/OFL
  -->
<path d="M77 106L77 173 398 173 398 106ZM342 445L342 804 397 804 397 445ZM73 446L73 564C73 654 68 761 36 844 51 851 74 868 85 880 123 786 129 669 129 565L129 446ZM868 58C789 92 654 126 528 148L477 133 477 856 396 870 415 940C502 922 618 899 729 875L723 809 548 843 548 487 711 487C732 770 779 956 888 959 924 960 959 920 978 770 965 764 935 746 922 732 916 819 905 870 889 870 834 867 799 713 781 487L953 487 953 419 776 419C772 340 769 254 768 163 828 149 884 132 931 114ZM548 209C597 201 648 191 698 180 700 264 702 345 707 419L548 419ZM50 307L50 374 202 374 202 960 269 960 269 374 417 374 417 307Z"/>
</svg>