<svg xmlns="http://www.w3.org/2000/svg" name="gid9432" data-unicode="祐"
    viewBox="0 0 1000 1000">
  <!--
© 2014-2021 Adobe (http://www.adobe.com/).
Noto is a trademark of Google Inc.
This Font Software is licensed under the SIL Open Font License, Version 1.1. This Font Software is distributed on an "AS IS" BASIS, WITHOUT WARRANTIES OR CONDITIONS OF ANY KIND, either express or implied. See the SIL Open Font License for the specific language, permissions and limitations governing your use of this Font Software.
http://scripts.sil.org/OFL
  -->
<path d="M602 41C595 105 587 167 576 225L409 225 409 294 562 294C522 469 456 610 344 706 361 720 391 751 402 766 446 724 484 677 516 623L516 958 587 958 587 898 843 898 843 958 917 958 917 497 578 497C603 435 623 367 639 294L947 294 947 225 653 225C663 169 672 110 679 48ZM587 829L587 565 843 565 843 829ZM192 40L192 228 55 228 55 296 308 296C245 429 129 555 19 627 31 640 50 675 58 695 103 663 148 623 192 577L192 958 265 958 265 516C301 554 348 603 369 630L413 569C395 551 327 489 290 457 335 393 374 324 401 252L360 225 346 228 265 228 265 40Z"/>
</svg>