<svg xmlns="http://www.w3.org/2000/svg" name="gid9444" data-unicode="神"
    viewBox="0 0 1000 1000">
  <!--
© 2014-2021 Adobe (http://www.adobe.com/).
Noto is a trademark of Google Inc.
This Font Software is licensed under the SIL Open Font License, Version 1.1. This Font Software is distributed on an "AS IS" BASIS, WITHOUT WARRANTIES OR CONDITIONS OF ANY KIND, either express or implied. See the SIL Open Font License for the specific language, permissions and limitations governing your use of this Font Software.
http://scripts.sil.org/OFL
  -->
<path d="M644 476L644 609 498 609 498 476ZM716 476L868 476 868 609 716 609ZM644 411L498 411 498 282 644 282ZM716 411L716 282 868 282 868 411ZM429 213L429 720 498 720 498 677 644 677 644 960 716 960 716 677 868 677 868 715 940 715 940 213 716 213 716 40 644 40 644 213ZM192 40L192 228 55 228 55 296 308 296C245 429 129 555 19 627 31 640 50 675 58 695 103 663 148 623 192 577L192 958 265 958 265 526C302 564 350 615 371 642L415 581C396 562 321 493 285 464 332 399 373 327 401 252L360 225 346 228 265 228 265 40Z"/>
</svg>