<svg xmlns="http://www.w3.org/2000/svg" name="gid9466" data-unicode="禊"
    viewBox="0 0 1000 1000">
  <!--
© 2014-2021 Adobe (http://www.adobe.com/).
Noto is a trademark of Google Inc.
This Font Software is licensed under the SIL Open Font License, Version 1.1. This Font Software is distributed on an "AS IS" BASIS, WITHOUT WARRANTIES OR CONDITIONS OF ANY KIND, either express or implied. See the SIL Open Font License for the specific language, permissions and limitations governing your use of this Font Software.
http://scripts.sil.org/OFL
  -->
<path d="M75 104L75 171 348 171 348 104ZM309 446L309 815 359 815 359 446ZM69 446L69 564C69 654 64 761 34 844 48 851 70 866 80 877 114 784 120 669 120 565L120 446ZM669 95L669 155 740 155C734 321 711 438 607 504 618 512 633 528 641 542 639 569 636 595 632 619L388 619 388 683 619 683C589 791 521 860 355 901 369 915 387 941 394 958 555 915 633 844 673 740 720 850 802 923 926 960 936 941 955 914 971 900 840 869 758 795 718 683L940 683 940 619 703 619C707 590 710 560 712 527L675 527C769 448 793 324 802 155L881 155C876 372 871 447 860 465 854 474 848 477 837 476 825 476 802 476 774 473 783 489 789 515 790 534 819 536 848 535 866 533 887 531 902 524 914 506 934 478 939 390 944 125 944 115 944 95 944 95ZM367 410L378 468 492 451 492 560 554 560 554 441 649 427 646 373 554 386 554 310 634 310 634 254 554 254 554 180 651 180 651 124 554 124 554 46 492 46 492 124 382 124 382 180 492 180 492 254 387 254 387 310 492 310 492 394ZM50 307L50 374 183 374 183 960 246 960 246 374 365 374 365 307Z"/>
</svg>