<svg xmlns="http://www.w3.org/2000/svg" name="gid9469" data-unicode="禍"
    viewBox="0 0 1000 1000">
  <!--
© 2014-2021 Adobe (http://www.adobe.com/).
Noto is a trademark of Google Inc.
This Font Software is licensed under the SIL Open Font License, Version 1.1. This Font Software is distributed on an "AS IS" BASIS, WITHOUT WARRANTIES OR CONDITIONS OF ANY KIND, either express or implied. See the SIL Open Font License for the specific language, permissions and limitations governing your use of this Font Software.
http://scripts.sil.org/OFL
  -->
<path d="M606 626L741 626 741 758 606 758ZM552 571L552 865 606 865 606 813 795 813 795 571ZM192 40L192 228 55 228 55 296 308 296C245 429 129 555 19 627 31 640 50 675 58 695 103 663 148 623 192 577L192 958 265 958 265 526C302 564 350 615 371 642L405 595 405 959 472 959 472 493 873 493 873 883C873 894 869 897 857 898 847 899 811 899 772 897 782 915 792 942 795 960 852 960 888 959 911 948 934 937 941 918 941 884L941 431 878 431 878 91 477 91 477 431 405 431 405 571C377 545 316 490 285 464 332 399 373 327 401 252L360 225 346 228 265 228 265 40ZM811 294L811 431 693 431 693 294ZM634 237L634 431 541 431 541 151 811 151 811 237Z"/>
</svg>