<svg xmlns="http://www.w3.org/2000/svg"
    viewBox="0 0 1000 1000">
  <!--
© 2014-2021 Adobe (http://www.adobe.com/).
Noto is a trademark of Google Inc.
This Font Software is licensed under the SIL Open Font License, Version 1.1. This Font Software is distributed on an "AS IS" BASIS, WITHOUT WARRANTIES OR CONDITIONS OF ANY KIND, either express or implied. See the SIL Open Font License for the specific language, permissions and limitations governing your use of this Font Software.
http://scripts.sil.org/OFL
  -->
<path d="M554 752C511 800 434 850 357 879 374 893 394 916 405 931 485 898 566 846 617 788ZM733 793C795 835 863 889 900 929L970 891C928 850 854 796 787 755ZM532 448L834 448 834 535 532 535ZM532 593L834 593 834 681 532 681ZM532 304L834 304 834 391 532 391ZM632 10L632 243 461 243 461 742 908 742 908 243 707 243 707 160 944 160 944 98 707 98 707 10ZM202 10L202 198 56 198 56 266 319 266C252 399 133 526 19 597 31 611 50 645 58 665 106 632 155 591 202 542L202 930 275 930 275 503C318 546 372 604 396 635L442 573C420 551 337 473 293 435 342 369 384 297 413 222L371 195 358 198 275 198 275 10Z"/>
</svg>