<svg xmlns="http://www.w3.org/2000/svg" name="gid9477" data-unicode="禘"
    viewBox="0 0 1000 1000">
  <!--
© 2014-2021 Adobe (http://www.adobe.com/).
Noto is a trademark of Google Inc.
This Font Software is licensed under the SIL Open Font License, Version 1.1. This Font Software is distributed on an "AS IS" BASIS, WITHOUT WARRANTIES OR CONDITIONS OF ANY KIND, either express or implied. See the SIL Open Font License for the specific language, permissions and limitations governing your use of this Font Software.
http://scripts.sil.org/OFL
  -->
<path d="M75 104L75 171 348 171 348 104ZM309 446L309 815 359 815 359 446ZM69 446L69 564C69 654 64 761 34 844 48 851 70 866 80 877 114 784 120 669 120 565L120 446ZM402 330L402 489 468 489 468 389 883 389 883 488 951 488 951 330 801 330 853 210 805 197 930 197 930 133 707 133 707 39 637 39 637 133 418 133 418 197 557 197 506 208C521 246 535 296 541 330ZM567 197L781 197C772 235 752 289 737 324L756 330 581 330 607 323C601 292 585 238 567 197ZM450 511L450 853 516 853 516 575 637 575 637 958 707 958 707 575 835 575 835 780C835 790 833 792 822 793 812 794 782 794 744 792 753 811 762 838 764 857 815 857 851 858 874 846 897 834 902 815 902 781L902 511 707 511 707 414 637 414 637 511ZM50 307L50 374 183 374 183 960 246 960 246 374 365 374 365 307Z"/>
</svg>