<svg xmlns="http://www.w3.org/2000/svg"
    viewBox="0 0 1000 1000">
  <!--
© 2014-2021 Adobe (http://www.adobe.com/).
Noto is a trademark of Google Inc.
This Font Software is licensed under the SIL Open Font License, Version 1.1. This Font Software is distributed on an "AS IS" BASIS, WITHOUT WARRANTIES OR CONDITIONS OF ANY KIND, either express or implied. See the SIL Open Font License for the specific language, permissions and limitations governing your use of this Font Software.
http://scripts.sil.org/OFL
  -->
<path d="M620 436L839 436 839 492 620 492ZM620 535L839 535 839 591 620 591ZM620 339L839 339 839 393 620 393ZM558 289L558 640 903 640 903 289ZM425 313L425 757 948 757 948 697 488 697 488 313ZM578 766C534 808 439 857 360 884 375 897 397 918 409 931 488 902 584 852 642 802ZM736 803C800 840 867 891 905 930L968 893C927 853 853 803 785 765ZM75 74L75 141 348 141 348 74ZM309 416L309 785 359 785 359 416ZM69 416L69 534C69 624 64 731 34 814 48 821 70 836 80 847 114 754 120 639 120 535L120 416ZM832 30C761 53 634 71 521 82L521 13 456 13 456 156C456 227 484 243 595 243 618 243 810 243 835 243 915 243 938 223 946 135 928 131 902 123 887 113 883 177 875 186 828 186 788 186 627 186 596 186 531 186 521 181 521 155L521 133C642 125 784 105 876 78ZM50 277L50 344 183 344 183 930 246 930 246 344 365 344 365 277Z"/>
</svg>