<svg xmlns="http://www.w3.org/2000/svg"
    viewBox="0 0 1000 1000">
  <!--
© 2014-2021 Adobe (http://www.adobe.com/).
Noto is a trademark of Google Inc.
This Font Software is licensed under the SIL Open Font License, Version 1.1. This Font Software is distributed on an "AS IS" BASIS, WITHOUT WARRANTIES OR CONDITIONS OF ANY KIND, either express or implied. See the SIL Open Font License for the specific language, permissions and limitations governing your use of this Font Software.
http://scripts.sil.org/OFL
  -->
<path d="M75 76L75 142 359 142 359 76ZM320 415L320 784 372 784 372 415ZM69 416L69 534C69 624 64 731 34 814 49 821 70 837 81 848 116 754 121 638 121 535L121 416ZM578 627L796 627C766 673 726 713 679 746 636 713 601 674 576 629ZM605 482C568 552 495 633 387 690 403 701 424 724 434 739 469 719 501 696 529 673 554 714 585 751 621 783 544 825 454 854 364 870 377 885 394 913 401 930 498 909 594 876 677 826 747 874 831 909 925 930 935 910 955 881 971 866 883 851 804 824 737 785 804 734 859 670 894 590L848 567 834 570 627 570C646 545 662 520 676 494ZM506 233L640 233 640 308 506 308ZM706 233L845 233 845 308 706 308ZM506 107L640 107 640 182 506 182ZM706 107L845 107 845 182 706 182ZM440 54L440 362 546 362C520 432 467 478 383 501 396 513 414 538 420 553 524 521 590 456 615 362L707 362 707 441C707 502 722 520 792 520 805 520 874 520 888 520 937 520 956 500 963 424 944 420 917 411 904 401 902 455 897 462 879 462 865 462 811 462 801 462 778 462 774 459 774 440L774 362 913 362 913 54ZM49 277L49 344 188 344 188 929 252 929 252 344 382 344 382 277Z"/>
</svg>