<svg xmlns="http://www.w3.org/2000/svg"
    viewBox="0 0 1000 1000">
  <!--
© 2014-2021 Adobe (http://www.adobe.com/).
Noto is a trademark of Google Inc.
This Font Software is licensed under the SIL Open Font License, Version 1.1. This Font Software is distributed on an "AS IS" BASIS, WITHOUT WARRANTIES OR CONDITIONS OF ANY KIND, either express or implied. See the SIL Open Font License for the specific language, permissions and limitations governing your use of this Font Software.
http://scripts.sil.org/OFL
  -->
<path d="M478 237L583 237 583 315 478 315ZM754 238L863 238 863 316 754 316ZM75 74L75 141 348 141 348 74ZM69 416L69 534C69 624 64 731 34 814 48 821 70 836 80 847 114 754 120 639 120 535L120 416ZM631 10L631 91 390 91 390 149 948 149 948 91 702 91 702 10ZM309 416L309 785 359 785 359 764C372 775 389 799 397 810 431 798 467 785 502 768L502 852 408 866 422 922C507 909 619 891 726 874L724 819 569 842 569 734C603 714 634 693 660 669 709 795 800 890 923 935 933 918 951 895 965 883 903 864 850 832 806 790 846 769 894 740 932 709L885 672C856 695 809 727 770 751 748 722 729 691 714 658L956 658 956 608 809 608 809 556 934 556 934 507 809 507 809 459 944 459 944 409 809 409 809 360 923 360 923 193 698 193 698 360 742 360 742 409 600 409 600 359 642 359 642 192 422 192 422 359 532 359 532 409 401 409 401 459 532 459 532 507 411 507 411 556 532 556 532 608 385 608 385 658 591 658C531 703 442 738 359 761L359 416ZM600 459L742 459 742 507 600 507ZM600 556L742 556 742 608 600 608ZM50 277L50 344 183 344 183 930 246 930 246 344 365 344 365 277Z"/>
</svg>