<svg xmlns="http://www.w3.org/2000/svg" name="gid9510" data-unicode="秌"
    viewBox="0 0 1000 1000">
  <!--
© 2014-2021 Adobe (http://www.adobe.com/).
Noto is a trademark of Google Inc.
This Font Software is licensed under the SIL Open Font License, Version 1.1. This Font Software is distributed on an "AS IS" BASIS, WITHOUT WARRANTIES OR CONDITIONS OF ANY KIND, either express or implied. See the SIL Open Font License for the specific language, permissions and limitations governing your use of this Font Software.
http://scripts.sil.org/OFL
  -->
<path d="M97 244C92 334 74 432 34 486L87 512C131 449 148 345 151 251ZM347 204C329 267 294 357 267 413L315 436C345 383 380 299 411 231ZM194 52L194 388C194 571 178 760 32 904 49 916 73 941 84 956 170 871 216 772 239 667 272 714 310 771 328 803L382 746C362 720 286 620 253 582 261 518 263 453 263 389L263 52ZM848 48C747 88 559 122 397 142 406 158 417 186 420 204 484 197 553 187 620 176L620 367 390 367 390 437 590 437C538 577 444 719 347 797 360 816 380 844 388 866 478 790 563 656 620 519L620 959 691 959 691 497C750 636 835 772 920 848 933 829 958 805 975 791 881 718 784 576 727 437L950 437 950 367 691 367 691 163C774 147 852 127 914 104Z"/>
</svg>