<svg xmlns="http://www.w3.org/2000/svg"
    viewBox="0 0 1000 1000">
  <!--
© 2014-2021 Adobe (http://www.adobe.com/).
Noto is a trademark of Google Inc.
This Font Software is licensed under the SIL Open Font License, Version 1.1. This Font Software is distributed on an "AS IS" BASIS, WITHOUT WARRANTIES OR CONDITIONS OF ANY KIND, either express or implied. See the SIL Open Font License for the specific language, permissions and limitations governing your use of this Font Software.
http://scripts.sil.org/OFL
  -->
<path d="M97 214C92 304 74 402 34 456L87 482C131 419 148 315 151 221ZM347 174C329 237 294 327 267 383L315 406C345 353 380 269 411 201ZM194 22L194 358C194 541 178 730 32 874 49 886 73 911 84 926 170 841 216 742 239 637 272 684 310 741 328 773L382 716C362 690 286 590 253 552 261 488 263 423 263 359L263 22ZM848 18C747 58 559 92 397 112 406 128 417 156 420 174 484 167 553 157 620 146L620 337 390 337 390 407 590 407C538 547 444 689 347 767 360 786 380 814 388 836 478 760 563 626 620 489L620 929 691 929 691 467C750 606 835 742 920 818 933 799 958 775 975 761 881 688 784 546 727 407L950 407 950 337 691 337 691 133C774 117 852 97 914 74Z"/>
</svg>