<svg xmlns="http://www.w3.org/2000/svg"
    viewBox="0 0 1000 1000">
  <!--
© 2014-2021 Adobe (http://www.adobe.com/).
Noto is a trademark of Google Inc.
This Font Software is licensed under the SIL Open Font License, Version 1.1. This Font Software is distributed on an "AS IS" BASIS, WITHOUT WARRANTIES OR CONDITIONS OF ANY KIND, either express or implied. See the SIL Open Font License for the specific language, permissions and limitations governing your use of this Font Software.
http://scripts.sil.org/OFL
  -->
<path d="M439 358C430 465 408 588 361 662L419 690C469 612 489 480 499 370ZM519 61C593 103 677 167 717 214L767 161C726 114 639 54 566 14ZM849 62C807 258 732 435 618 584L618 213 545 213 545 670C482 737 410 797 328 849 346 860 371 885 381 900 441 861 496 818 545 772L545 806C545 898 568 923 652 923 669 923 769 923 788 923 866 923 885 878 893 731 873 726 844 713 827 700 823 827 817 854 782 854 761 854 678 854 661 854 625 854 618 847 618 806L618 697C702 603 768 497 819 381 862 471 898 585 907 661L976 642C964 561 924 439 874 346L829 358C866 271 896 177 919 78ZM347 27C276 59 150 87 42 105 50 122 60 146 64 162 109 156 157 148 204 138L204 293 45 293 45 363 187 363C151 478 89 609 30 681 43 698 61 729 69 749 118 685 167 580 204 475L204 929 276 929 276 477C306 518 341 569 355 595L400 541C382 517 305 430 276 403L276 363 400 363 400 293 276 293 276 122C322 110 364 97 400 83Z"/>
</svg>