<svg xmlns="http://www.w3.org/2000/svg" name="gid9543" data-unicode="稃"
    viewBox="0 0 1000 1000">
  <!--
© 2014-2021 Adobe (http://www.adobe.com/).
Noto is a trademark of Google Inc.
This Font Software is licensed under the SIL Open Font License, Version 1.1. This Font Software is distributed on an "AS IS" BASIS, WITHOUT WARRANTIES OR CONDITIONS OF ANY KIND, either express or implied. See the SIL Open Font License for the specific language, permissions and limitations governing your use of this Font Software.
http://scripts.sil.org/OFL
  -->
<path d="M604 188C627 239 648 307 653 350L720 329C714 287 691 221 668 170ZM784 158C833 219 885 303 905 357L967 325C946 271 892 190 842 130ZM649 542L649 624 404 624 404 692 649 692 649 873C649 885 645 889 630 889 616 889 567 890 514 888 525 908 537 939 540 960 612 960 656 958 685 948 714 935 723 914 723 874L723 692 966 692 966 624 723 624 723 591C794 547 872 483 924 421L876 386 862 391 470 391 470 457 796 457C764 487 725 518 687 542ZM361 54C287 88 155 117 43 136 52 152 62 177 65 193 112 187 162 178 212 168L212 322 49 322 49 392 202 392C162 507 93 637 28 708 41 726 59 756 67 777 118 715 171 616 212 515L212 958 286 958 286 527C320 569 360 623 377 651L422 592C402 569 315 479 286 454L286 392 404 392 404 331C416 340 428 350 435 357 474 307 508 238 534 168 662 154 808 131 909 101L851 47C775 71 646 94 527 109L478 96C459 172 423 259 379 314L391 322 286 322 286 151C333 140 377 127 413 112Z"/>
</svg>