<svg xmlns="http://www.w3.org/2000/svg" name="gid9546" data-unicode="稈"
    viewBox="0 0 1000 1000">
  <!--
© 2014-2021 Adobe (http://www.adobe.com/).
Noto is a trademark of Google Inc.
This Font Software is licensed under the SIL Open Font License, Version 1.1. This Font Software is distributed on an "AS IS" BASIS, WITHOUT WARRANTIES OR CONDITIONS OF ANY KIND, either express or implied. See the SIL Open Font License for the specific language, permissions and limitations governing your use of this Font Software.
http://scripts.sil.org/OFL
  -->
<path d="M526 290L841 290 841 379 526 379ZM526 145L841 145 841 234 526 234ZM455 85L455 440 915 440 915 85ZM389 685L389 753 642 753 642 960 716 960 716 753 961 753 961 685 716 685 716 573 932 573 932 505 433 505 433 573 642 573 642 685ZM361 54C287 88 155 117 43 136 52 152 62 177 65 193 112 187 162 178 212 168L212 322 49 322 49 392 202 392C162 507 93 637 28 708 41 726 59 756 67 777 118 715 171 616 212 515L212 958 286 958 286 527C320 569 360 623 377 651L422 592C402 569 315 479 286 454L286 392 411 392 411 322 286 322 286 151C333 140 377 127 413 112Z"/>
</svg>