<svg xmlns="http://www.w3.org/2000/svg"
    viewBox="0 0 1000 1000">
  <!--
© 2014-2021 Adobe (http://www.adobe.com/).
Noto is a trademark of Google Inc.
This Font Software is licensed under the SIL Open Font License, Version 1.1. This Font Software is distributed on an "AS IS" BASIS, WITHOUT WARRANTIES OR CONDITIONS OF ANY KIND, either express or implied. See the SIL Open Font License for the specific language, permissions and limitations governing your use of this Font Software.
http://scripts.sil.org/OFL
  -->
<path d="M310 205L695 205 695 250 310 250ZM240 165L240 289 767 289 767 165ZM359 449L640 449 640 499 359 499ZM294 410L294 537 707 537 707 410ZM460 10L460 75 81 75 81 129 924 129 924 75 536 75 536 10ZM108 326L108 567 178 567 178 374 824 374 824 498C824 506 821 509 813 509 804 509 780 509 752 508 760 523 769 545 773 562 816 562 847 562 868 553 890 543 895 528 895 498L895 326ZM758 559C624 582 369 594 163 596 168 608 175 630 177 644 267 644 365 642 460 637L460 687 57 687 57 742 397 742C304 797 160 843 37 865 52 878 70 903 79 920 207 892 363 833 460 761L460 928 536 928 536 761C632 834 787 892 921 919 931 901 949 877 963 863 833 844 688 800 596 742L945 742 945 687 536 687 536 633C638 626 733 616 807 603Z"/>
</svg>