<svg xmlns="http://www.w3.org/2000/svg" name="gid9585" data-unicode="穀"
    viewBox="0 0 1000 1000">
  <!--
© 2014-2021 Adobe (http://www.adobe.com/).
Noto is a trademark of Google Inc.
This Font Software is licensed under the SIL Open Font License, Version 1.1. This Font Software is distributed on an "AS IS" BASIS, WITHOUT WARRANTIES OR CONDITIONS OF ANY KIND, either express or implied. See the SIL Open Font License for the specific language, permissions and limitations governing your use of this Font Software.
http://scripts.sil.org/OFL
  -->
<path d="M622 550L557 566C584 646 622 717 669 777 604 832 528 873 447 898 463 913 481 942 490 961 573 931 650 889 717 831 774 887 842 931 920 960 931 941 952 912 968 898 891 873 824 833 769 781 837 707 891 613 922 497L875 479 862 482 518 482 518 549 831 549C805 618 767 678 720 729 678 677 645 616 622 550ZM240 40L240 116 49 116 49 173 240 173 240 245 78 245 78 303 484 303 484 245 310 245 310 173 513 173 513 116 310 116 310 40ZM383 451C320 474 204 495 104 507 111 521 120 542 123 556 161 552 201 547 241 540L241 609 47 609 47 672 220 672C174 742 100 812 35 849 50 862 68 888 77 905 133 867 194 807 241 745L241 960 310 960 310 749C356 788 415 839 439 865L482 811C456 790 354 715 310 687L310 672 495 672 495 609 310 609 310 528C358 518 402 507 439 494L502 494 502 415C516 427 532 444 539 454 625 390 642 295 642 217L642 148 781 148 781 319C781 374 786 390 799 403 811 415 832 420 850 420 860 420 882 420 893 420 907 420 924 417 935 411 947 405 956 394 961 378 966 363 970 319 971 282 953 276 931 265 917 253 917 292 916 322 913 334 911 347 908 354 905 357 902 360 895 361 888 361 881 361 872 361 867 361 861 361 857 359 854 356 850 353 850 342 850 323L850 81 574 81 574 216C574 274 565 341 502 395L502 355 64 355 64 494 126 494 126 413 437 413 437 492Z"/>
</svg>