<svg xmlns="http://www.w3.org/2000/svg" name="gid9597" data-unicode="穏"
    viewBox="0 0 1000 1000">
  <!--
© 2014-2021 Adobe (http://www.adobe.com/).
Noto is a trademark of Google Inc.
This Font Software is licensed under the SIL Open Font License, Version 1.1. This Font Software is distributed on an "AS IS" BASIS, WITHOUT WARRANTIES OR CONDITIONS OF ANY KIND, either express or implied. See the SIL Open Font License for the specific language, permissions and limitations governing your use of this Font Software.
http://scripts.sil.org/OFL
  -->
<path d="M854 43C749 72 558 94 397 105 405 120 414 145 416 160 581 151 778 130 905 95ZM429 195C454 232 477 284 485 319L547 295C537 261 513 211 487 174ZM598 168C616 210 634 264 641 300L704 280C697 245 678 192 658 151ZM523 717L523 872C523 939 543 957 622 957 637 957 732 957 749 957 809 957 828 935 835 845 817 840 789 830 775 820 773 888 767 896 741 896 721 896 643 896 629 896 595 896 590 893 590 871L590 717ZM431 725C416 786 387 860 347 904L405 937C447 889 474 810 491 746ZM801 740C849 799 895 880 912 935L973 906C954 851 908 772 856 715ZM579 684C625 714 676 760 699 794L748 756C725 724 674 681 629 652L914 652 914 328 814 328C845 284 883 222 913 168L849 139C827 192 785 267 754 313L784 328 437 328 437 386 843 386 843 461 457 461 457 519 843 519 843 594 433 594 433 652 623 652ZM330 62C264 94 144 122 40 141 48 155 58 180 62 196 103 190 147 182 191 173L191 329 45 329 45 398 180 398C146 512 88 643 33 716 45 734 63 763 71 784 114 724 157 628 191 531L191 962 262 962 262 520C294 561 332 613 348 640L392 583C373 560 289 472 262 448L262 398 385 398 385 329 262 329 262 156C308 144 351 130 387 115Z"/>
</svg>