<svg xmlns="http://www.w3.org/2000/svg"
    viewBox="0 0 1000 1000">
  <!--
© 2014-2021 Adobe (http://www.adobe.com/).
Noto is a trademark of Google Inc.
This Font Software is licensed under the SIL Open Font License, Version 1.1. This Font Software is distributed on an "AS IS" BASIS, WITHOUT WARRANTIES OR CONDITIONS OF ANY KIND, either express or implied. See the SIL Open Font License for the specific language, permissions and limitations governing your use of this Font Software.
http://scripts.sil.org/OFL
  -->
<path d="M622 282L622 495 680 495 680 282ZM537 188C548 204 560 223 569 241L360 241 360 293 413 293C402 361 375 412 323 445 335 455 351 477 357 488 420 445 454 380 467 293L517 293C514 376 511 408 505 417 501 424 496 425 487 425 479 425 463 425 442 422 448 436 453 457 455 473 475 474 497 474 509 473 529 471 539 466 550 453 564 435 568 388 571 265L572 246C580 262 587 277 591 290L637 266C627 238 604 198 581 168ZM615 9L615 101 348 101 348 163 956 163 956 101 688 101 688 9ZM722 163C711 193 687 240 669 270L712 288 741 244 741 415 704 419 718 469C769 460 822 451 879 440L877 395 793 407 793 295 842 281C860 363 891 444 940 486 948 472 965 453 978 443 934 409 903 339 887 266 911 257 933 247 953 237L906 198C878 216 830 235 784 251L744 238 778 183ZM815 621L815 704 493 704C496 680 497 656 497 634L497 621ZM427 496L427 633C427 712 414 820 319 895 336 903 361 922 374 934 434 887 466 826 482 765L815 765 815 930 884 930 884 495 815 495 815 561 497 561 497 496ZM303 31C243 59 134 84 39 99 48 114 57 139 61 154 97 149 134 143 172 136L172 297 46 297 46 366 166 366C135 479 78 611 25 684 37 702 54 731 63 752 102 696 140 608 172 517L172 930 241 930 241 479C269 521 302 574 315 601L354 546C338 523 268 435 241 404L241 366 355 366 355 297 241 297 241 121C283 111 322 99 355 85Z"/>
</svg>