<svg xmlns="http://www.w3.org/2000/svg"
    viewBox="0 0 1000 1000">
  <!--
© 2014-2021 Adobe (http://www.adobe.com/).
Noto is a trademark of Google Inc.
This Font Software is licensed under the SIL Open Font License, Version 1.1. This Font Software is distributed on an "AS IS" BASIS, WITHOUT WARRANTIES OR CONDITIONS OF ANY KIND, either express or implied. See the SIL Open Font License for the specific language, permissions and limitations governing your use of this Font Software.
http://scripts.sil.org/OFL
  -->
<path d="M213 549C197 617 173 702 150 759L228 770 239 737 793 737C775 809 757 847 736 862 725 869 712 870 689 870 662 870 590 869 522 862 534 880 543 907 544 926 613 930 679 931 710 930 748 929 770 925 793 908 826 882 851 825 876 710 879 699 881 677 881 677L257 677 276 608 820 608 820 411 156 411 156 471 745 471 745 549ZM81 99L81 260 154 260 154 160 343 160C320 259 262 316 72 345 85 358 103 383 109 400 322 364 394 291 421 160L561 160 561 286C561 351 582 368 665 368 682 368 777 368 795 368 853 368 873 349 880 283 860 279 831 270 817 260 813 303 809 309 785 309 765 309 688 309 674 309 640 309 635 306 635 285L635 160 846 160 846 246 922 246 922 99 538 99 538 9 461 9 461 99Z"/>
</svg>