<svg xmlns="http://www.w3.org/2000/svg"
    viewBox="0 0 1000 1000">
  <!--
© 2014-2021 Adobe (http://www.adobe.com/).
Noto is a trademark of Google Inc.
This Font Software is licensed under the SIL Open Font License, Version 1.1. This Font Software is distributed on an "AS IS" BASIS, WITHOUT WARRANTIES OR CONDITIONS OF ANY KIND, either express or implied. See the SIL Open Font License for the specific language, permissions and limitations governing your use of this Font Software.
http://scripts.sil.org/OFL
  -->
<path d="M77 101L77 261 150 261 150 166 346 166C319 264 255 324 68 357 83 371 101 396 107 413 202 393 269 367 318 332 259 463 156 578 41 649 58 663 88 692 100 708 172 658 242 590 300 511L422 511 422 931 499 931 499 801 897 801 897 739 499 739 499 654 879 654 879 592 499 592 499 511 934 511 934 447 344 447C364 414 382 380 398 345L328 325C379 284 408 232 425 166L560 166 560 288C560 355 581 372 664 372 681 372 777 372 794 372 855 372 875 351 882 270 863 266 834 257 819 246 816 304 811 312 785 312 765 312 687 312 673 312 640 312 634 308 634 287L634 166 861 166 861 256 936 256 936 101 538 101 538 9 461 9 461 101Z"/>
</svg>