<svg xmlns="http://www.w3.org/2000/svg" name="gid9643" data-unicode="窗"
    viewBox="0 0 1000 1000">
  <!--
© 2014-2021 Adobe (http://www.adobe.com/).
Noto is a trademark of Google Inc.
This Font Software is licensed under the SIL Open Font License, Version 1.1. This Font Software is distributed on an "AS IS" BASIS, WITHOUT WARRANTIES OR CONDITIONS OF ANY KIND, either express or implied. See the SIL Open Font License for the specific language, permissions and limitations governing your use of this Font Software.
http://scripts.sil.org/OFL
  -->
<path d="M427 329C416 358 397 399 378 431L133 431 133 958 204 958 204 919 800 919 800 953 874 953 874 431 455 431C473 405 491 375 508 345ZM204 862L204 488 800 488 800 862ZM268 597L349 633C316 656 279 677 238 696 250 704 268 721 276 734 323 711 364 685 401 658 439 677 476 696 512 716 446 762 366 796 290 814 302 826 316 847 324 860 407 836 492 799 563 745 610 773 651 800 682 824L721 783C691 760 651 735 607 709 650 670 685 624 709 571L671 551 660 554 512 554 538 520 480 510C459 539 430 570 394 600 363 586 333 573 305 562ZM630 597C611 628 586 656 557 681 521 661 482 642 444 623L472 597ZM71 116L71 276 143 276 143 177 343 177C317 270 253 322 58 348 71 362 89 391 95 409 314 373 392 303 422 177L552 177 552 284C552 351 572 367 657 367 674 367 774 367 792 367 853 367 874 347 881 268L940 268 940 116 538 116 538 39 461 39 461 116ZM865 255C848 250 830 243 818 235 816 299 810 308 783 308 762 308 682 308 666 308 632 308 626 305 626 284L626 177 865 177Z"/>
</svg>