<svg xmlns="http://www.w3.org/2000/svg"
    viewBox="0 0 1000 1000">
  <!--
© 2014-2021 Adobe (http://www.adobe.com/).
Noto is a trademark of Google Inc.
This Font Software is licensed under the SIL Open Font License, Version 1.1. This Font Software is distributed on an "AS IS" BASIS, WITHOUT WARRANTIES OR CONDITIONS OF ANY KIND, either express or implied. See the SIL Open Font License for the specific language, permissions and limitations governing your use of this Font Software.
http://scripts.sil.org/OFL
  -->
<path d="M663 450C643 527 584 578 504 611 511 616 521 625 530 634L457 634 457 685 55 685 55 752 457 752 457 931 532 931 532 752 947 752 947 685 532 685 532 636C540 644 547 652 551 658 594 638 632 611 664 577 724 609 790 649 826 678L871 631C831 601 760 561 699 531 712 509 723 484 730 458ZM461 294L461 385 132 385 132 445 886 445 886 385 535 385 535 294ZM308 448C276 530 203 592 114 630 130 642 155 667 165 680 220 652 272 614 312 567 355 592 400 623 425 644L469 600C441 577 390 546 346 522 358 502 369 482 377 460ZM70 91L70 233 145 233 145 151 345 151C320 235 258 280 79 304 92 317 109 343 115 360 317 327 392 267 421 151L545 151 545 244C545 309 566 324 651 324 668 324 769 324 788 324 848 324 868 305 875 232L864 229 937 229 937 91 538 91 538 9 461 9 461 91ZM860 228C843 223 824 217 812 209 809 260 804 267 778 267 757 267 675 267 659 267 625 267 619 264 619 243L619 151 860 151Z"/>
</svg>