<svg xmlns="http://www.w3.org/2000/svg" name="gid9648" data-unicode="窣"
    viewBox="0 0 1000 1000">
  <!--
© 2014-2021 Adobe (http://www.adobe.com/).
Noto is a trademark of Google Inc.
This Font Software is licensed under the SIL Open Font License, Version 1.1. This Font Software is distributed on an "AS IS" BASIS, WITHOUT WARRANTIES OR CONDITIONS OF ANY KIND, either express or implied. See the SIL Open Font License for the specific language, permissions and limitations governing your use of this Font Software.
http://scripts.sil.org/OFL
  -->
<path d="M663 480C643 557 584 608 504 641 511 646 521 655 530 664L457 664 457 715 55 715 55 782 457 782 457 961 532 961 532 782 947 782 947 715 532 715 532 666C540 674 547 682 551 688 594 668 632 641 664 607 724 639 790 679 826 708L871 661C831 631 760 591 699 561 712 539 723 514 730 488ZM461 324L461 415 132 415 132 475 886 475 886 415 535 415 535 324ZM308 478C276 560 203 622 114 660 130 672 155 697 165 710 220 682 272 644 312 597 355 622 400 653 425 674L469 630C441 607 390 576 346 552 358 532 369 512 377 490ZM70 121L70 263 145 263 145 181 345 181C320 265 258 310 79 334 92 347 109 373 115 390 317 357 392 297 421 181L545 181 545 274C545 339 566 354 651 354 668 354 769 354 788 354 848 354 868 335 875 262L864 259 937 259 937 121 538 121 538 39 461 39 461 121ZM860 258C843 253 824 247 812 239 809 290 804 297 778 297 757 297 675 297 659 297 625 297 619 294 619 273L619 181 860 181Z"/>
</svg>