<svg xmlns="http://www.w3.org/2000/svg"
    viewBox="0 0 1000 1000">
  <!--
© 2014-2021 Adobe (http://www.adobe.com/).
Noto is a trademark of Google Inc.
This Font Software is licensed under the SIL Open Font License, Version 1.1. This Font Software is distributed on an "AS IS" BASIS, WITHOUT WARRANTIES OR CONDITIONS OF ANY KIND, either express or implied. See the SIL Open Font License for the specific language, permissions and limitations governing your use of this Font Software.
http://scripts.sil.org/OFL
  -->
<path d="M734 506L734 577 519 577 519 506ZM451 460L451 577 281 577 281 409 734 409 734 460ZM113 577L113 928 186 928 186 636 826 636 826 847C826 859 822 862 808 862 795 863 746 863 694 862 704 881 716 908 720 928 792 928 837 927 865 917 892 905 900 884 900 847L900 577 807 577 807 351 211 351 211 577ZM305 690L305 891 373 891 373 855 712 855 712 690ZM373 735L642 735 642 809 373 809ZM67 92L67 240 140 240 140 153 341 153C318 240 257 287 72 310 85 323 101 350 108 367 318 335 391 273 421 153L544 153 544 243C544 305 566 320 650 320 667 320 767 320 786 320 845 320 865 302 873 232L939 232 939 92 538 92 538 9 461 9 461 92ZM864 218C846 214 825 207 812 198 809 259 804 267 776 267 756 267 674 267 658 267 624 267 618 264 618 243L618 153 864 153Z"/>
</svg>