<svg xmlns="http://www.w3.org/2000/svg"
    viewBox="0 0 1000 1000">
  <!--
© 2014-2021 Adobe (http://www.adobe.com/).
Noto is a trademark of Google Inc.
This Font Software is licensed under the SIL Open Font License, Version 1.1. This Font Software is distributed on an "AS IS" BASIS, WITHOUT WARRANTIES OR CONDITIONS OF ANY KIND, either express or implied. See the SIL Open Font License for the specific language, permissions and limitations governing your use of this Font Software.
http://scripts.sil.org/OFL
  -->
<path d="M64 870L109 929C175 871 250 796 314 730L276 673C206 746 121 824 64 870ZM107 401C165 423 236 459 273 485L307 429C270 404 196 371 140 352ZM44 562C102 583 175 618 213 645L246 588C207 562 134 530 76 512ZM345 688L345 745 587 745 587 847 291 847 291 907 944 907 944 847 658 847 658 745 909 745 909 688 658 688 658 600 923 600 923 542 658 542 658 453 892 453 892 395 658 395 658 340 587 340 587 395 359 395 359 453 587 453 587 542 309 542 309 600 587 600 587 688ZM68 78L68 239 140 239 140 140 356 140C334 227 273 269 93 292 106 306 123 333 130 350 335 319 405 258 432 140L548 140 548 236C548 300 569 316 653 316 671 316 771 316 788 316 846 316 868 298 876 229L941 229 941 78 539 78 539 10 462 10 462 78ZM866 213C848 209 826 201 814 193 811 251 806 259 779 259 758 259 678 259 662 259 628 259 622 257 622 235L622 140 866 140Z"/>
</svg>