<svg xmlns="http://www.w3.org/2000/svg" name="gid9653" data-unicode="窯"
    viewBox="0 0 1000 1000">
  <!--
© 2014-2021 Adobe (http://www.adobe.com/).
Noto is a trademark of Google Inc.
This Font Software is licensed under the SIL Open Font License, Version 1.1. This Font Software is distributed on an "AS IS" BASIS, WITHOUT WARRANTIES OR CONDITIONS OF ANY KIND, either express or implied. See the SIL Open Font License for the specific language, permissions and limitations governing your use of this Font Software.
http://scripts.sil.org/OFL
  -->
<path d="M176 778C157 837 115 893 51 923L106 960C177 926 214 864 236 800ZM535 802C567 849 600 912 611 953L675 933C662 892 628 830 595 785ZM735 802C795 848 860 916 890 962L951 931C920 885 852 819 793 774ZM337 798C355 848 369 912 369 952L437 943C437 902 422 839 402 789ZM272 361C293 383 313 412 326 437L101 437 101 494 461 494 461 566 154 566 154 621 461 621 461 698 61 698 61 757 937 757 937 698 538 698 538 621 857 621 857 566 538 566 538 494 907 494 907 437 669 437C690 415 713 387 735 359L662 337C646 366 615 408 592 437L395 437 400 435C390 406 361 366 333 339ZM66 110L66 256 138 256 138 171 336 171C312 251 249 293 71 315 84 327 101 353 107 369 307 339 383 282 413 171L539 171 539 254C539 317 561 330 645 330 662 330 768 330 786 330 844 330 864 314 871 251L935 251 935 110 538 110 538 39 461 39 461 110ZM860 237C843 234 823 226 811 219 809 270 804 277 777 277 755 277 669 277 653 277 617 277 611 275 611 254L611 171 860 171Z"/>
</svg>