<svg xmlns="http://www.w3.org/2000/svg" name="gid9657" data-unicode="窶"
    viewBox="0 0 1000 1000">
  <!--
© 2014-2021 Adobe (http://www.adobe.com/).
Noto is a trademark of Google Inc.
This Font Software is licensed under the SIL Open Font License, Version 1.1. This Font Software is distributed on an "AS IS" BASIS, WITHOUT WARRANTIES OR CONDITIONS OF ANY KIND, either express or implied. See the SIL Open Font License for the specific language, permissions and limitations governing your use of this Font Software.
http://scripts.sil.org/OFL
  -->
<path d="M67 101L67 229 139 229 139 156 340 156C310 220 240 251 79 267 89 278 104 298 109 312 295 291 379 251 415 156L538 156 538 205C538 263 560 275 641 275 658 275 766 275 783 275 828 275 849 265 858 229L933 229 933 101 538 101 538 40 461 40 461 101ZM246 358L462 358 462 398 246 398ZM462 473L246 473 246 433 462 433ZM537 358L758 358 758 398 537 398ZM537 473L537 433 758 433 758 473ZM51 391L51 440 178 440 178 515 462 515 462 548 150 548 150 683 343 683 308 721 55 721 55 772 259 772C232 799 207 823 184 844L256 859 265 850C327 859 387 868 444 877 337 898 210 906 83 907 94 921 114 948 119 962 273 954 434 940 561 898 667 919 759 940 827 962L899 920C833 901 746 881 650 862 695 838 734 809 761 772L954 772 954 721 391 721 425 683 860 683 860 548 537 548 537 515 830 515 830 440 950 440 950 391 830 391 830 316 537 316 537 259 462 259 462 316 178 316 178 391ZM218 589L462 589 462 642 218 642ZM537 589L788 589 788 642 537 642ZM858 198C842 195 820 188 806 181 804 222 798 229 774 229 753 229 666 229 649 229 615 229 609 225 609 206L609 156 858 156ZM343 772L680 772C652 803 611 827 561 846 479 831 393 818 308 808Z"/>
</svg>