<svg xmlns="http://www.w3.org/2000/svg" name="gid9659" data-unicode="窺"
    viewBox="0 0 1000 1000">
  <!--
© 2014-2021 Adobe (http://www.adobe.com/).
Noto is a trademark of Google Inc.
This Font Software is licensed under the SIL Open Font License, Version 1.1. This Font Software is distributed on an "AS IS" BASIS, WITHOUT WARRANTIES OR CONDITIONS OF ANY KIND, either express or implied. See the SIL Open Font License for the specific language, permissions and limitations governing your use of this Font Software.
http://scripts.sil.org/OFL
  -->
<path d="M544 537L817 537 817 594 544 594ZM544 641L817 641 817 699 544 699ZM544 434L817 434 817 490 544 490ZM475 386L475 747 545 747C529 832 484 880 354 907 369 919 387 945 394 961 546 924 598 859 617 747L706 747 706 867C706 932 722 949 792 949 806 949 871 949 885 949 939 949 957 926 964 832 945 827 917 817 903 807 901 880 897 889 876 889 862 889 812 889 801 889 779 889 775 887 775 867L775 747 888 747 888 386ZM212 381L212 456 65 456 65 514 212 514 212 583 212 602 52 602 52 661 208 661C198 748 163 845 44 908 59 921 81 945 90 960 182 904 231 830 257 755 308 792 361 837 389 871L433 821C401 783 333 729 273 692L278 661 448 661 448 602 282 602 282 582 282 514 436 514 436 456 282 456 282 381ZM65 109L65 259 140 259 140 170 340 170C315 253 253 297 72 319 85 333 101 358 107 375 314 345 390 285 419 170L550 170 550 261C550 325 570 341 653 341 671 341 766 341 784 341 842 341 863 323 870 254L941 254 941 109 538 109 538 40 461 40 461 109ZM863 239C845 235 822 227 808 218 806 277 800 285 774 285 755 285 677 285 662 285 629 285 623 282 623 261L623 170 863 170Z"/>
</svg>