<svg xmlns="http://www.w3.org/2000/svg"
    viewBox="0 0 1000 1000">
  <!--
© 2014-2021 Adobe (http://www.adobe.com/).
Noto is a trademark of Google Inc.
This Font Software is licensed under the SIL Open Font License, Version 1.1. This Font Software is distributed on an "AS IS" BASIS, WITHOUT WARRANTIES OR CONDITIONS OF ANY KIND, either express or implied. See the SIL Open Font License for the specific language, permissions and limitations governing your use of this Font Software.
http://scripts.sil.org/OFL
  -->
<path d="M118 398L118 558 878 558 878 398ZM239 694L765 694 765 727 239 727ZM239 764L765 764 765 799 239 799ZM239 625L765 625 765 658 239 658ZM460 201L460 249 65 249 65 289 460 289 460 326 135 326 135 366 867 366 867 326 534 326 534 289 933 289 933 249 534 249 534 201ZM185 434L389 434C372 465 323 474 214 476 220 483 229 497 231 507 367 502 425 484 442 434L556 434 556 443C556 487 574 495 646 495 661 495 776 495 791 495L808 494 808 522 185 522ZM808 456C805 465 800 466 781 466 760 466 667 466 651 466 619 466 612 463 612 444L612 434 808 434ZM578 854C697 879 810 908 877 930L939 894C880 877 790 855 699 835L835 835 835 588 172 588 172 835 313 835C245 859 141 877 53 888 67 898 89 920 99 932 197 915 324 883 397 845L370 835 605 835ZM67 72L67 203 136 203C145 213 158 230 163 242 304 224 384 197 422 125L536 125 536 157C536 211 556 221 634 221 649 221 756 221 773 221 825 221 843 207 847 155 831 152 808 147 795 139 792 174 788 178 763 178 742 178 655 178 640 178 606 178 600 176 600 158L600 125 857 125 857 203 932 203 932 72 538 72 538 10 461 10 461 72ZM140 199L140 125 358 125C328 170 260 188 140 199Z"/>
</svg>