<svg xmlns="http://www.w3.org/2000/svg" name="gid9677" data-unicode="竏"
    viewBox="0 0 1000 1000">
  <!--
© 2014-2021 Adobe (http://www.adobe.com/).
Noto is a trademark of Google Inc.
This Font Software is licensed under the SIL Open Font License, Version 1.1. This Font Software is distributed on an "AS IS" BASIS, WITHOUT WARRANTIES OR CONDITIONS OF ANY KIND, either express or implied. See the SIL Open Font License for the specific language, permissions and limitations governing your use of this Font Software.
http://scripts.sil.org/OFL
  -->
<path d="M97 360C118 476 135 627 135 726L201 716C199 614 183 466 159 349ZM867 48C769 90 584 126 426 148 435 165 447 193 450 211 515 203 584 193 651 180L651 424 425 424 425 499 651 499 651 959 728 959 728 499 961 499 961 424 728 424 728 164C806 147 878 127 936 104ZM220 53L220 233 56 233 56 303 451 303 451 233 291 233 291 53ZM333 341C321 462 294 637 269 741L271 741C182 761 101 778 39 790L55 865C169 839 325 803 473 767L466 698 337 727C362 624 389 473 407 355Z"/>
</svg>