<svg xmlns="http://www.w3.org/2000/svg"
    viewBox="0 0 1000 1000">
  <!--
© 2014-2021 Adobe (http://www.adobe.com/).
Noto is a trademark of Google Inc.
This Font Software is licensed under the SIL Open Font License, Version 1.1. This Font Software is distributed on an "AS IS" BASIS, WITHOUT WARRANTIES OR CONDITIONS OF ANY KIND, either express or implied. See the SIL Open Font License for the specific language, permissions and limitations governing your use of this Font Software.
http://scripts.sil.org/OFL
  -->
<path d="M82 329C103 442 118 589 118 687L182 676C181 578 164 433 142 319ZM812 12C724 71 557 129 407 168 416 184 429 211 433 227 485 214 539 199 592 183L592 329 425 357 436 429 592 402 592 557 414 586 424 657 592 629 592 789C592 887 617 914 705 914 725 914 831 914 851 914 935 914 955 866 965 715 943 710 912 696 894 682 889 811 883 841 846 841 823 841 733 841 714 841 676 841 668 833 668 789L668 617 959 569 948 498 668 544 668 389 911 348 900 277 668 316 668 158C749 131 824 99 884 65ZM189 23L189 209 54 209 54 279 392 279 392 209 259 209 259 23ZM297 311C286 430 262 605 239 708 161 727 89 744 34 756L52 830C154 804 293 768 423 733L415 664 303 692C326 589 351 440 368 325Z"/>
</svg>