<svg xmlns="http://www.w3.org/2000/svg" name="gid9694" data-unicode="竧"
    viewBox="0 0 1000 1000">
  <!--
© 2014-2021 Adobe (http://www.adobe.com/).
Noto is a trademark of Google Inc.
This Font Software is licensed under the SIL Open Font License, Version 1.1. This Font Software is distributed on an "AS IS" BASIS, WITHOUT WARRANTIES OR CONDITIONS OF ANY KIND, either express or implied. See the SIL Open Font License for the specific language, permissions and limitations governing your use of this Font Software.
http://scripts.sil.org/OFL
  -->
<path d="M81 350C105 453 120 585 118 672L181 662C181 574 166 443 140 340ZM185 48L185 229 49 229 49 298 388 298 388 229 254 229 254 48ZM524 354L801 354 801 437 524 437ZM524 296L524 217 801 217 801 296ZM524 496L801 496 801 554 792 564 524 593ZM634 39C629 72 619 117 609 154L454 154 454 601 374 608 384 676 288 695C312 598 339 455 357 343L286 328C274 442 249 606 225 703L233 705 37 742 52 818C151 795 284 766 411 736L406 675 722 633C608 734 467 813 316 867 332 881 358 913 369 929 527 864 678 773 801 656L801 869C801 886 796 891 779 892 761 892 699 893 637 890 647 910 658 942 661 961 742 962 798 960 830 949 863 937 873 915 873 869L873 581C906 543 935 503 962 461L891 433 873 461 873 154 679 154 713 53Z"/>
</svg>