<svg xmlns="http://www.w3.org/2000/svg"
    viewBox="0 0 1000 1000">
  <!--
© 2014-2021 Adobe (http://www.adobe.com/).
Noto is a trademark of Google Inc.
This Font Software is licensed under the SIL Open Font License, Version 1.1. This Font Software is distributed on an "AS IS" BASIS, WITHOUT WARRANTIES OR CONDITIONS OF ANY KIND, either express or implied. See the SIL Open Font License for the specific language, permissions and limitations governing your use of this Font Software.
http://scripts.sil.org/OFL
  -->
<path d="M579 6C544 114 482 217 406 283 417 289 434 301 449 311L449 569 166 569 166 930 238 930 238 890 759 890 759 927 835 927 835 569 524 569 524 442 915 442 915 375 524 375 524 266C544 240 562 213 580 183L651 183C685 230 718 287 732 325L800 296C787 265 761 222 733 183L957 183 957 118 614 118C628 87 641 55 652 23ZM238 823L238 635 759 635 759 823ZM184 5C154 118 100 229 31 300 50 310 81 331 96 342 132 300 166 245 196 183L230 183C254 232 278 291 286 329L353 302C344 270 326 225 305 183L487 183 487 118 224 118C236 87 248 55 257 22Z"/>
</svg>