<svg xmlns="http://www.w3.org/2000/svg" name="gid9740" data-unicode="笮"
    viewBox="0 0 1000 1000">
  <!--
© 2014-2021 Adobe (http://www.adobe.com/).
Noto is a trademark of Google Inc.
This Font Software is licensed under the SIL Open Font License, Version 1.1. This Font Software is distributed on an "AS IS" BASIS, WITHOUT WARRANTIES OR CONDITIONS OF ANY KIND, either express or implied. See the SIL Open Font License for the specific language, permissions and limitations governing your use of this Font Software.
http://scripts.sil.org/OFL
  -->
<path d="M184 35C153 134 99 231 36 296 54 305 86 326 100 337 132 300 164 252 192 199L231 199C249 233 267 273 275 300L307 288C253 409 169 522 78 596 95 608 125 636 137 650 199 595 261 520 312 436L422 436 422 960 497 960 497 758 890 758 890 693 497 693 497 596 875 596 875 531 497 531 497 436 937 436 937 370 350 370C364 343 377 315 389 287L338 272C332 252 320 225 306 199L487 199 487 135 224 135C236 108 247 81 257 53ZM579 35C549 133 494 225 428 285 445 294 476 316 490 328 524 293 557 249 586 199L649 199C683 243 716 297 729 333L795 307C783 277 757 236 730 199L949 199 949 135 619 135C631 108 642 80 651 52Z"/>
</svg>