<svg xmlns="http://www.w3.org/2000/svg" name="gid9746" data-unicode="笵"
    viewBox="0 0 1000 1000">
  <!--
© 2014-2021 Adobe (http://www.adobe.com/).
Noto is a trademark of Google Inc.
This Font Software is licensed under the SIL Open Font License, Version 1.1. This Font Software is distributed on an "AS IS" BASIS, WITHOUT WARRANTIES OR CONDITIONS OF ANY KIND, either express or implied. See the SIL Open Font License for the specific language, permissions and limitations governing your use of this Font Software.
http://scripts.sil.org/OFL
  -->
<path d="M115 391C172 414 245 454 283 483L324 425C285 398 214 361 155 340ZM37 557C97 575 170 610 210 637L248 577C208 552 135 519 75 503ZM82 906L144 956C208 876 284 773 345 682L292 633C225 732 140 842 82 906ZM427 369L427 824C427 923 463 948 579 948 604 948 795 948 823 948 928 948 953 908 965 767 944 763 912 751 895 738 888 855 879 878 819 878 778 878 614 878 582 878 514 878 502 868 502 824L502 438 815 438 815 619C815 632 811 637 792 637 774 639 715 639 644 637 654 656 665 683 669 704 755 704 811 704 845 693 879 682 887 661 887 620L887 369ZM182 37C150 131 96 226 33 288 51 297 82 317 97 329 130 293 162 246 191 194L225 194C248 238 269 291 276 325L344 303C336 274 319 232 299 194L485 194 485 130 223 130C235 105 245 80 254 55ZM577 37C542 134 478 225 404 284 422 294 454 315 468 327 507 292 546 246 580 194L649 194C682 238 715 291 729 327L795 298C782 269 758 230 731 194L955 194 955 130 617 130C629 106 641 81 650 55Z"/>
</svg>