<svg xmlns="http://www.w3.org/2000/svg"
    viewBox="0 0 1000 1000">
  <!--
© 2014-2021 Adobe (http://www.adobe.com/).
Noto is a trademark of Google Inc.
This Font Software is licensed under the SIL Open Font License, Version 1.1. This Font Software is distributed on an "AS IS" BASIS, WITHOUT WARRANTIES OR CONDITIONS OF ANY KIND, either express or implied. See the SIL Open Font License for the specific language, permissions and limitations governing your use of this Font Software.
http://scripts.sil.org/OFL
  -->
<path d="M184 5C151 103 95 201 31 265 49 274 80 294 94 306 127 268 160 220 190 166L235 166C254 204 271 247 278 277L346 256C339 231 325 198 309 166L486 166 486 102 222 102C234 76 245 50 254 23ZM578 5C546 96 486 181 417 238 435 247 465 268 479 280 513 249 546 210 576 166L655 166C685 207 716 256 730 290L797 262C784 235 761 199 736 166L957 166 957 102 614 102C627 76 639 50 649 23ZM578 263L578 358 413 358 413 263 341 263 341 358 108 358 108 931 179 931 179 884 819 884 819 928 893 928 893 358 651 358 651 263ZM179 816L179 652 341 652 341 816ZM819 816L651 816 651 652 819 652ZM413 816L413 652 578 652 578 816ZM179 585L179 427 341 427 341 585ZM819 585L651 585 651 427 819 427ZM413 585L413 427 578 427 578 585Z"/>
</svg>