<svg xmlns="http://www.w3.org/2000/svg" name="gid9760" data-unicode="筌"
    viewBox="0 0 1000 1000">
  <!--
© 2014-2021 Adobe (http://www.adobe.com/).
Noto is a trademark of Google Inc.
This Font Software is licensed under the SIL Open Font License, Version 1.1. This Font Software is distributed on an "AS IS" BASIS, WITHOUT WARRANTIES OR CONDITIONS OF ANY KIND, either express or implied. See the SIL Open Font License for the specific language, permissions and limitations governing your use of this Font Software.
http://scripts.sil.org/OFL
  -->
<path d="M578 35C545 124 485 208 414 262 432 272 460 291 474 304L279 304 337 281C331 257 317 223 301 191L486 191 486 128 221 128C233 103 244 78 254 53L184 35C152 124 98 211 36 270 54 279 85 300 98 310 129 278 160 237 187 191L226 191C245 229 263 273 270 304L188 304 188 366 400 366C307 462 169 536 27 583 45 596 71 625 82 640 142 617 203 588 261 555L261 598 460 598 460 696 198 696 198 760 460 760 460 862 67 862 67 930 935 930 935 862 537 862 537 760 804 760 804 696 537 696 537 598 739 598 739 550C795 582 855 609 913 629 926 610 952 583 970 570 809 522 635 421 547 304L478 304C513 273 546 234 576 191L653 191C687 237 722 292 736 330L804 300C791 270 765 229 736 191L941 191 941 128 614 128C628 104 639 79 649 53ZM706 531L301 531C374 484 441 429 493 366L505 366C557 427 628 484 706 531Z"/>
</svg>