<svg xmlns="http://www.w3.org/2000/svg" name="gid9769" data-unicode="筕"
    viewBox="0 0 1000 1000">
  <!--
© 2014-2021 Adobe (http://www.adobe.com/).
Noto is a trademark of Google Inc.
This Font Software is licensed under the SIL Open Font License, Version 1.1. This Font Software is distributed on an "AS IS" BASIS, WITHOUT WARRANTIES OR CONDITIONS OF ANY KIND, either express or implied. See the SIL Open Font License for the specific language, permissions and limitations governing your use of this Font Software.
http://scripts.sil.org/OFL
  -->
<path d="M452 336L452 403 917 403 917 336ZM262 293C217 347 127 411 54 451 67 464 88 491 98 506 177 461 271 388 332 321ZM398 520L398 587 723 587 723 870C723 885 718 888 700 889 683 889 619 890 554 888 564 908 575 938 579 958 668 958 721 957 754 947 788 935 797 914 797 872L797 587 961 587 961 520ZM306 455C241 543 134 628 34 681 50 696 76 729 86 744 124 721 163 693 202 661L202 959 276 959 276 596C313 560 348 522 376 484ZM205 35C172 132 114 226 44 287 62 296 93 314 107 325 144 290 180 244 211 193L266 193C284 227 301 266 309 292L374 268C368 248 355 220 341 193L490 193 490 132 244 132C257 106 268 79 278 51ZM593 35C568 130 520 221 460 279 478 288 510 308 524 319 555 285 585 242 610 193L683 193C714 232 745 281 758 313L824 287C812 261 789 225 765 193L942 193 942 132 638 132C649 105 659 78 667 50Z"/>
</svg>