<svg xmlns="http://www.w3.org/2000/svg"
    viewBox="0 0 1000 1000">
  <!--
© 2014-2021 Adobe (http://www.adobe.com/).
Noto is a trademark of Google Inc.
This Font Software is licensed under the SIL Open Font License, Version 1.1. This Font Software is distributed on an "AS IS" BASIS, WITHOUT WARRANTIES OR CONDITIONS OF ANY KIND, either express or implied. See the SIL Open Font License for the specific language, permissions and limitations governing your use of this Font Software.
http://scripts.sil.org/OFL
  -->
<path d="M578 6C546 96 487 180 417 235 430 242 450 255 465 266L465 301 68 301 68 367 465 367 465 445 140 445 140 704 218 704 218 510 465 510 465 597C376 707 209 796 43 835 60 850 80 879 91 898 228 859 367 784 465 687L465 930 545 930 545 689C632 770 764 852 920 893 931 874 953 844 968 828 784 787 625 694 545 605L545 510 795 510 795 631C795 641 792 644 781 644 769 645 731 645 690 644 699 660 711 684 715 703 772 703 812 703 838 693 865 682 872 666 872 631L872 445 545 445 545 367 929 367 929 301 545 301 545 237 523 237C543 214 563 189 581 162L656 162C682 201 706 246 716 278L783 254C774 229 755 194 734 162L942 162 942 98 619 98C631 74 642 49 652 24ZM191 6C157 94 98 180 33 237 51 247 82 268 96 279 128 247 160 207 190 162L238 162C260 202 281 249 291 280L357 255C349 230 332 195 314 162L485 162 485 98 227 98C240 74 252 50 262 25Z"/>
</svg>