<svg xmlns="http://www.w3.org/2000/svg" name="gid9780" data-unicode="筭"
    viewBox="0 0 1000 1000">
  <!--
© 2014-2021 Adobe (http://www.adobe.com/).
Noto is a trademark of Google Inc.
This Font Software is licensed under the SIL Open Font License, Version 1.1. This Font Software is distributed on an "AS IS" BASIS, WITHOUT WARRANTIES OR CONDITIONS OF ANY KIND, either express or implied. See the SIL Open Font License for the specific language, permissions and limitations governing your use of this Font Software.
http://scripts.sil.org/OFL
  -->
<path d="M577 39C557 86 527 131 491 170L491 126 237 126C249 104 260 81 270 59L200 39C165 123 107 208 44 264 61 273 89 291 104 303L98 303 98 362 460 362 460 429 140 429 140 484 460 484 460 561 61 561 61 621 940 621 940 561 535 561 535 484 859 484 859 429 535 429 535 362 899 362 899 303 109 303C140 271 172 229 202 184L240 184C264 218 289 263 299 291L365 269C355 246 337 213 317 184L477 184C454 208 429 229 402 247 421 255 452 274 465 285 500 258 536 223 568 184L632 184C662 218 692 260 705 289L769 262C758 240 737 211 715 184L952 184 952 126 610 126C624 104 637 80 647 56ZM283 642L283 708 283 716 55 716 55 778 268 778C245 825 189 874 59 911 76 924 100 948 112 962 268 913 327 844 347 778L638 778 638 960 712 960 712 778 946 778 946 716 712 716 712 642 638 642 638 716 357 716 357 710 357 642Z"/>
</svg>