<svg xmlns="http://www.w3.org/2000/svg"
    viewBox="0 0 1000 1000">
  <!--
© 2014-2021 Adobe (http://www.adobe.com/).
Noto is a trademark of Google Inc.
This Font Software is licensed under the SIL Open Font License, Version 1.1. This Font Software is distributed on an "AS IS" BASIS, WITHOUT WARRANTIES OR CONDITIONS OF ANY KIND, either express or implied. See the SIL Open Font License for the specific language, permissions and limitations governing your use of this Font Software.
http://scripts.sil.org/OFL
  -->
<path d="M578 5C545 95 485 179 415 234 426 240 440 249 453 258L453 334 59 334 59 401 453 401 453 455C453 612 411 775 35 871 50 885 69 915 77 933 351 863 461 752 503 630 553 777 664 892 920 933 928 911 947 876 961 859 752 833 642 759 583 656 602 665 630 681 644 691 677 662 708 625 733 581 791 623 851 676 883 713L935 661C898 621 828 564 764 522 777 492 787 461 795 428L723 415C700 514 651 597 581 652 552 599 536 539 527 474L527 455 527 401 942 401 942 334 527 334 527 239 519 239C540 216 560 191 579 163L651 163C682 203 713 252 726 286L793 257C781 231 759 195 735 163L957 163 957 98 618 98C630 74 642 49 651 23ZM228 415C202 527 142 616 54 672 71 684 99 711 109 725 160 689 204 641 238 584 278 617 319 658 342 687L398 642C371 609 317 560 269 524 282 494 293 463 301 429ZM184 5C152 96 98 188 36 248 54 257 85 278 99 289 131 255 162 212 190 163L227 163C248 203 267 250 274 282L342 259C335 233 319 197 303 163L486 163 486 98 225 98C236 74 247 49 256 24Z"/>
</svg>