<svg xmlns="http://www.w3.org/2000/svg" name="gid9802" data-unicode="箑"
    viewBox="0 0 1000 1000">
  <!--
© 2014-2021 Adobe (http://www.adobe.com/).
Noto is a trademark of Google Inc.
This Font Software is licensed under the SIL Open Font License, Version 1.1. This Font Software is distributed on an "AS IS" BASIS, WITHOUT WARRANTIES OR CONDITIONS OF ANY KIND, either express or implied. See the SIL Open Font License for the specific language, permissions and limitations governing your use of this Font Software.
http://scripts.sil.org/OFL
  -->
<path d="M577 39C557 86 527 131 491 170L491 126 235 126C248 104 259 81 269 59L200 39C165 120 106 202 43 257 61 267 91 287 106 299 138 267 171 227 201 182L239 182C263 216 289 262 299 291L365 269C355 245 336 212 315 182L480 182C457 205 432 226 406 244 422 250 448 266 463 277L463 319 91 319 91 371 463 371 463 428 165 428 165 477 463 477 463 533 52 533 52 585 463 585 463 642 165 642 165 692 463 692 463 866C386 852 325 827 281 782 293 759 303 735 311 710L238 698C209 797 136 871 41 916 59 927 88 950 101 963 158 930 211 886 251 830 349 924 494 944 702 944L937 944C940 925 951 896 962 881 917 881 734 882 703 881 642 881 585 880 534 875L534 800 872 800 872 746 534 746 534 692 832 692 832 588 951 588 951 532 832 532 832 428 534 428 534 371 913 371 913 319 534 319 534 256 500 256C524 234 548 209 570 182L630 182C660 216 691 259 705 289L769 262C757 239 736 209 713 182L947 182 947 126 610 126C624 103 637 80 647 56ZM756 585L756 642 534 642 534 585ZM756 533L534 533 534 477 756 477Z"/>
</svg>