<svg xmlns="http://www.w3.org/2000/svg" name="gid9803" data-unicode="箒"
    viewBox="0 0 1000 1000">
  <!--
© 2014-2021 Adobe (http://www.adobe.com/).
Noto is a trademark of Google Inc.
This Font Software is licensed under the SIL Open Font License, Version 1.1. This Font Software is distributed on an "AS IS" BASIS, WITHOUT WARRANTIES OR CONDITIONS OF ANY KIND, either express or implied. See the SIL Open Font License for the specific language, permissions and limitations governing your use of this Font Software.
http://scripts.sil.org/OFL
  -->
<path d="M573 35C553 84 523 131 487 170L487 116 222 116C234 96 244 75 253 54L183 35C152 111 98 187 38 237 56 247 86 267 100 279 129 251 159 214 187 174L227 174C245 206 263 243 270 268L338 248C332 228 318 200 303 174L484 174C462 197 439 218 415 236 432 244 460 260 476 271L186 271 186 319 744 319 744 372 54 372 54 422 744 422 744 473 180 473 180 521 820 521 820 426 949 426 949 368 820 368 820 271 484 271C515 245 546 212 574 174L652 174C677 206 702 244 714 270L783 247C773 226 755 199 735 174L942 174 942 116 613 116C625 96 635 74 644 53ZM188 690L188 918 259 918 259 749 461 749 461 959 534 959 534 749 743 749 743 847C743 857 739 860 727 861 714 862 675 862 624 860 633 878 643 901 648 919 713 919 756 919 783 909 810 899 816 881 816 846L816 690 534 690 534 628 853 628 853 730 926 730 926 573 79 573 79 730 149 730 149 628 461 628 461 690Z"/>
</svg>