<svg xmlns="http://www.w3.org/2000/svg"
    viewBox="0 0 1000 1000">
  <!--
© 2014-2021 Adobe (http://www.adobe.com/).
Noto is a trademark of Google Inc.
This Font Software is licensed under the SIL Open Font License, Version 1.1. This Font Software is distributed on an "AS IS" BASIS, WITHOUT WARRANTIES OR CONDITIONS OF ANY KIND, either express or implied. See the SIL Open Font License for the specific language, permissions and limitations governing your use of this Font Software.
http://scripts.sil.org/OFL
  -->
<path d="M573 5C553 54 523 101 487 140L487 86 222 86C234 66 244 45 253 24L183 5C152 81 98 157 38 207 56 217 86 237 100 249 129 221 159 184 187 144L227 144C245 176 263 213 270 238L338 218C332 198 318 170 303 144L484 144C462 167 439 188 415 206 432 214 460 230 476 241L186 241 186 289 744 289 744 342 54 342 54 392 744 392 744 443 180 443 180 491 820 491 820 396 949 396 949 338 820 338 820 241 484 241C515 215 546 182 574 144L652 144C677 176 702 214 714 240L783 217C773 196 755 169 735 144L942 144 942 86 613 86C625 66 635 44 644 23ZM188 660L188 888 259 888 259 719 461 719 461 929 534 929 534 719 743 719 743 817C743 827 739 830 727 831 714 832 675 832 624 830 633 848 643 871 648 889 713 889 756 889 783 879 810 869 816 851 816 816L816 660 534 660 534 598 853 598 853 700 926 700 926 543 79 543 79 700 149 700 149 598 461 598 461 660Z"/>
</svg>