<svg xmlns="http://www.w3.org/2000/svg" name="gid9804" data-unicode="箔"
    viewBox="0 0 1000 1000">
  <!--
© 2014-2021 Adobe (http://www.adobe.com/).
Noto is a trademark of Google Inc.
This Font Software is licensed under the SIL Open Font License, Version 1.1. This Font Software is distributed on an "AS IS" BASIS, WITHOUT WARRANTIES OR CONDITIONS OF ANY KIND, either express or implied. See the SIL Open Font License for the specific language, permissions and limitations governing your use of this Font Software.
http://scripts.sil.org/OFL
  -->
<path d="M129 393C186 420 259 463 299 491L334 432C294 406 222 366 164 341ZM60 558C119 582 195 622 236 650L271 590C230 565 153 527 94 504ZM84 905L139 959C206 887 286 791 350 707L303 654C233 745 144 846 84 905ZM468 686L827 686 827 842 468 842ZM468 621L468 471 827 471 827 621ZM395 402L395 958 468 958 468 911 827 911 827 954 902 954 902 402 649 402 686 330 609 308C600 335 584 372 569 402ZM184 36C153 136 99 235 36 300 54 309 85 330 99 342 132 304 164 256 192 202L241 202C266 248 291 303 301 339L367 313C357 284 337 241 316 202L487 202 487 138 224 138C236 110 247 82 257 54ZM577 36C546 136 491 231 424 292 441 301 472 323 486 336 522 300 555 254 585 202L649 202C682 246 716 301 730 337L797 309C785 279 760 239 733 202L944 202 944 138 617 138C630 111 641 83 650 54Z"/>
</svg>