<svg xmlns="http://www.w3.org/2000/svg" name="gid9809" data-unicode="箙"
    viewBox="0 0 1000 1000">
  <!--
© 2014-2021 Adobe (http://www.adobe.com/).
Noto is a trademark of Google Inc.
This Font Software is licensed under the SIL Open Font License, Version 1.1. This Font Software is distributed on an "AS IS" BASIS, WITHOUT WARRANTIES OR CONDITIONS OF ANY KIND, either express or implied. See the SIL Open Font License for the specific language, permissions and limitations governing your use of this Font Software.
http://scripts.sil.org/OFL
  -->
<path d="M499 318L499 960 569 960 569 629 582 629C612 703 654 769 706 824 666 859 620 886 571 906 585 918 607 945 617 961 667 939 714 909 756 871 804 910 859 942 919 964 929 945 950 919 966 905 906 887 851 858 803 822 855 760 897 682 922 586L879 566 866 569 569 569 569 381 830 381C828 440 825 465 818 473 812 479 803 479 789 479 775 479 733 479 689 475 699 490 706 515 707 531 754 534 800 534 822 532 847 531 866 525 880 511 895 493 900 449 903 344 903 336 903 318 903 318ZM838 629C817 686 788 736 752 778 709 735 674 684 649 629ZM355 384L355 489 191 489 191 384ZM121 318L121 573C121 682 114 824 38 925 54 932 85 951 97 964 147 897 171 810 182 724L355 724 355 877C355 890 352 893 339 893 327 894 286 895 240 893 250 912 259 941 261 960 325 960 367 959 392 948 417 936 425 916 425 877L425 318ZM355 552L355 659 188 659C190 629 191 601 191 574L191 552ZM184 35C152 124 98 211 36 270 54 279 85 300 98 310 130 277 161 234 189 187L226 187C247 226 265 273 272 304L338 278C332 254 318 219 302 187L486 187 486 128 221 128C233 103 244 78 254 53ZM578 35C545 124 485 208 414 262 433 272 463 293 476 306 512 274 548 233 579 187L650 187C680 227 710 274 722 308L788 281C777 254 755 219 732 187L957 187 957 128 614 128C628 104 639 79 649 53Z"/>
</svg>