<svg xmlns="http://www.w3.org/2000/svg"
    viewBox="0 0 1000 1000">
  <!--
© 2014-2021 Adobe (http://www.adobe.com/).
Noto is a trademark of Google Inc.
This Font Software is licensed under the SIL Open Font License, Version 1.1. This Font Software is distributed on an "AS IS" BASIS, WITHOUT WARRANTIES OR CONDITIONS OF ANY KIND, either express or implied. See the SIL Open Font License for the specific language, permissions and limitations governing your use of this Font Software.
http://scripts.sil.org/OFL
  -->
<path d="M578 5C549 75 500 146 443 193 462 201 494 219 509 231 534 207 559 178 582 145L652 145C679 177 705 216 717 242L779 220C753 258 709 309 673 344L494 344 533 327C520 294 487 245 455 210L390 237C417 269 445 311 459 344L272 344 296 330C279 297 239 254 202 224L142 258C170 283 198 315 217 344L155 344 155 671 460 671 460 745 53 745 53 808 460 808 460 929 535 929 535 808 948 808 948 745 535 745 535 671 847 671 847 344 766 344C795 314 826 278 852 243L786 216C775 196 757 170 737 145L957 145 957 82 621 82C631 63 641 43 649 23ZM225 533L460 533 460 615 225 615ZM535 533L774 533 774 615 535 615ZM225 399L460 399 460 480 225 480ZM535 399L774 399 774 480 535 480ZM183 5C151 83 97 161 36 212 54 222 84 242 98 254 128 225 159 187 187 145L233 145C255 179 277 219 286 245L352 222C344 201 328 172 311 145L487 145 487 82 225 82C235 63 245 43 253 24Z"/>
</svg>