<svg xmlns="http://www.w3.org/2000/svg" name="gid9826" data-unicode="箴"
    viewBox="0 0 1000 1000">
  <!--
© 2014-2021 Adobe (http://www.adobe.com/).
Noto is a trademark of Google Inc.
This Font Software is licensed under the SIL Open Font License, Version 1.1. This Font Software is distributed on an "AS IS" BASIS, WITHOUT WARRANTIES OR CONDITIONS OF ANY KIND, either express or implied. See the SIL Open Font License for the specific language, permissions and limitations governing your use of this Font Software.
http://scripts.sil.org/OFL
  -->
<path d="M238 486L238 543 529 543 529 486ZM573 35C545 122 497 205 436 259 454 269 485 290 498 302 529 271 558 231 584 186L656 186C676 209 695 237 709 261L682 298C727 314 780 339 817 361L628 361C626 331 625 300 624 269L552 269C553 300 555 331 557 361L124 361 124 578C124 683 116 823 37 923 54 930 86 949 99 961 181 855 195 695 195 579L195 422 563 422C577 549 605 663 643 754 580 815 506 865 426 904 442 916 469 944 480 957 550 919 615 873 675 818 724 907 787 960 859 960 927 960 955 923 967 790 948 784 922 770 906 756 901 853 891 890 864 890 816 891 768 845 727 766 798 689 858 599 903 497L834 479C800 560 754 633 697 698 669 622 646 528 634 422L940 422 940 361 847 361 873 322C850 307 812 289 774 274L793 266C783 244 763 214 741 186L946 186 946 127 614 127C626 103 636 77 644 52ZM247 606L247 883 309 883 309 835 519 835 519 606ZM309 663L456 663 456 778 309 778ZM184 35C152 125 97 214 34 273 52 282 83 303 96 313 129 280 161 236 190 187L230 187C251 228 271 277 278 309L346 285C339 259 324 221 307 187L490 187 490 128 222 128C234 103 245 78 254 53Z"/>
</svg>