<svg xmlns="http://www.w3.org/2000/svg"
    viewBox="0 0 1000 1000">
  <!--
© 2014-2021 Adobe (http://www.adobe.com/).
Noto is a trademark of Google Inc.
This Font Software is licensed under the SIL Open Font License, Version 1.1. This Font Software is distributed on an "AS IS" BASIS, WITHOUT WARRANTIES OR CONDITIONS OF ANY KIND, either express or implied. See the SIL Open Font License for the specific language, permissions and limitations governing your use of this Font Software.
http://scripts.sil.org/OFL
  -->
<path d="M402 494L402 575 190 575 190 494ZM402 437L190 437 190 359 402 359ZM311 683C335 710 360 741 382 773L190 801 190 634 474 634 474 299 119 299 119 812 42 822 54 889C153 875 288 853 420 832 435 858 448 882 456 903L519 870C492 809 431 719 369 654ZM558 299L558 925 629 925 629 368 841 368 841 723C841 737 837 741 821 742 805 743 751 743 691 741 701 761 711 791 715 811 794 811 844 811 874 799 905 787 913 765 913 725L913 299ZM184 5C152 94 98 181 36 240 54 249 85 270 98 280 130 247 161 204 189 157L227 157C249 198 268 247 275 280L339 254C333 228 318 191 300 157L486 157 486 98 221 98C233 73 244 48 254 23ZM578 5C545 96 484 180 414 236 432 245 462 267 476 279 513 246 549 204 580 157L650 157C683 199 714 249 726 285L792 258C780 229 756 191 730 157L948 157 948 98 615 98C628 74 639 49 649 23Z"/>
</svg>