<svg xmlns="http://www.w3.org/2000/svg" name="gid9845" data-unicode="篌"
    viewBox="0 0 1000 1000">
  <!--
© 2014-2021 Adobe (http://www.adobe.com/).
Noto is a trademark of Google Inc.
This Font Software is licensed under the SIL Open Font License, Version 1.1. This Font Software is distributed on an "AS IS" BASIS, WITHOUT WARRANTIES OR CONDITIONS OF ANY KIND, either express or implied. See the SIL Open Font License for the specific language, permissions and limitations governing your use of this Font Software.
http://scripts.sil.org/OFL
  -->
<path d="M297 691L297 753 568 753C541 812 469 867 285 904 299 918 318 945 325 962 519 921 601 857 634 785 687 883 781 939 926 962 935 942 953 915 968 900 825 885 733 838 686 753L957 753 957 691 655 691 655 672 655 601 896 601 896 542 473 542C482 521 490 500 497 479L480 475 948 475 948 415 843 415 843 279 391 279 391 336 771 336 771 415 317 415 317 475 426 475C404 542 369 607 327 653 344 661 373 679 386 690 406 665 426 635 444 601L583 601 583 671 582 691ZM184 35C152 115 97 195 35 247 53 256 83 277 97 289 128 259 159 220 187 178L228 178C248 211 267 250 274 276L238 265C190 391 112 520 30 604 46 618 72 649 82 663 112 629 143 589 172 545L172 960 244 960 244 424C268 379 290 333 309 287L275 277 343 257C335 235 320 206 305 178L487 178 487 117 223 117C235 96 245 75 254 54ZM576 35C556 86 524 136 487 178 465 202 442 224 417 242 436 250 468 267 484 278 516 251 548 217 577 178L656 178C682 211 708 250 720 277L787 250C778 230 760 203 741 178L953 178 953 117 617 117C628 96 639 74 648 52Z"/>
</svg>