<svg xmlns="http://www.w3.org/2000/svg" name="gid9846" data-unicode="篏"
    viewBox="0 0 1000 1000">
  <!--
© 2014-2021 Adobe (http://www.adobe.com/).
Noto is a trademark of Google Inc.
This Font Software is licensed under the SIL Open Font License, Version 1.1. This Font Software is distributed on an "AS IS" BASIS, WITHOUT WARRANTIES OR CONDITIONS OF ANY KIND, either express or implied. See the SIL Open Font License for the specific language, permissions and limitations governing your use of this Font Software.
http://scripts.sil.org/OFL
  -->
<path d="M374 299L374 413 206 413 206 300 135 300 135 413 45 413 45 479 135 479 135 959 206 959 206 891 374 891 374 931 445 931 445 906C458 921 476 945 484 960 645 878 706 728 718 661 729 727 784 882 929 960 939 943 960 914 973 898 781 799 754 595 754 534L754 457 874 457C861 507 844 559 827 594L888 612C915 560 942 475 961 400L910 388 898 391 648 391C658 361 667 330 674 299L601 285C576 401 530 511 465 582 482 593 511 617 523 629 562 584 596 524 624 457L681 457 681 534C681 597 655 795 445 900L445 479 528 479 528 413 445 413 445 299ZM206 479L374 479 374 615 206 615ZM206 679L374 679 374 825 206 825ZM184 35C152 122 98 208 37 265 54 274 85 295 99 306 129 274 160 234 187 189L252 189C276 228 299 274 308 306L376 285C367 259 349 222 329 189L486 189 486 125 223 125C234 102 245 78 254 54ZM576 37C545 120 494 201 433 254 452 263 483 283 497 295 526 266 554 229 580 189L665 189C698 230 731 279 745 314L814 288C801 260 777 223 750 189L944 189 944 125 616 125C628 102 638 79 647 55Z"/>
</svg>