<svg xmlns="http://www.w3.org/2000/svg" name="gid9849" data-unicode="篗"
    viewBox="0 0 1000 1000">
  <!--
© 2014-2021 Adobe (http://www.adobe.com/).
Noto is a trademark of Google Inc.
This Font Software is licensed under the SIL Open Font License, Version 1.1. This Font Software is distributed on an "AS IS" BASIS, WITHOUT WARRANTIES OR CONDITIONS OF ANY KIND, either express or implied. See the SIL Open Font License for the specific language, permissions and limitations governing your use of this Font Software.
http://scripts.sil.org/OFL
  -->
<path d="M480 454L480 502 267 502 267 454ZM576 33C544 108 485 179 419 226 438 234 469 253 484 264 496 254 508 244 520 233 512 255 498 283 485 308L292 308C302 291 312 274 321 257L303 252 340 241C333 221 319 193 304 166L487 166 487 114 220 114C231 95 242 75 251 55L180 35C149 106 96 177 37 225 55 234 85 255 98 267 128 240 158 205 186 166L228 166C242 190 256 217 265 240L254 237C211 322 136 404 60 458 76 469 102 494 113 507 140 486 167 462 193 434L193 652 927 652 927 599 553 599 553 549 850 549 850 502 553 502 553 454 850 454 850 408 553 408 553 360 894 360 894 308 564 308C577 287 592 263 605 239L527 226C546 208 563 188 580 166L655 166C681 197 706 236 718 263L787 240C777 219 759 192 739 166L945 166 945 114 615 114C628 94 639 72 648 51ZM480 408L267 408 267 360 480 360ZM480 549L480 599 267 599 267 549ZM723 749C670 786 599 814 518 836 438 813 369 785 320 749ZM96 694L96 749 291 749 253 769C296 804 350 834 414 859 300 881 175 892 56 897 66 913 78 942 81 959 229 950 384 931 519 895 641 929 781 949 919 958 928 940 944 913 957 898 843 893 728 881 625 861 716 826 793 780 845 720L804 691 791 694Z"/>
</svg>