<svg xmlns="http://www.w3.org/2000/svg" name="gid9854" data-unicode="篠"
    viewBox="0 0 1000 1000">
  <!--
© 2014-2021 Adobe (http://www.adobe.com/).
Noto is a trademark of Google Inc.
This Font Software is licensed under the SIL Open Font License, Version 1.1. This Font Software is distributed on an "AS IS" BASIS, WITHOUT WARRANTIES OR CONDITIONS OF ANY KIND, either express or implied. See the SIL Open Font License for the specific language, permissions and limitations governing your use of this Font Software.
http://scripts.sil.org/OFL
  -->
<path d="M297 362L297 847 361 847 361 362ZM567 257C535 320 471 394 378 447 394 455 415 475 427 489 460 468 490 445 516 421 543 456 576 486 615 512 549 542 472 563 390 578 402 591 422 619 430 633 518 613 603 586 676 547 746 582 829 605 921 619 930 602 947 576 962 561 879 552 802 534 737 509 784 475 822 435 849 386L947 386 947 330 596 330C611 309 624 288 635 267ZM775 386C750 423 716 454 675 480 628 454 589 423 561 386ZM631 586L631 666 405 666 405 724 592 724C533 795 436 858 346 890 361 903 379 926 390 941 475 906 567 841 631 767L631 963 702 963 702 764C758 836 842 902 922 936 932 919 953 896 968 884 883 854 795 791 743 724L944 724 944 666 702 666 702 586ZM193 36C158 125 100 213 35 271 52 280 83 301 97 311 130 278 163 236 193 189L240 189C256 217 272 248 284 275L223 257C187 364 113 492 27 572 39 587 57 615 65 631 95 603 124 570 151 534L151 959 219 959 219 431C246 384 270 335 289 288L295 305 360 279C352 255 335 221 316 189L492 189 492 129 228 129C240 105 252 79 262 54ZM583 36C549 127 485 212 412 267 431 276 460 298 474 310 512 278 549 236 582 189L661 189C693 226 725 271 740 303L804 271C792 247 771 217 747 189L948 189 948 129 619 129C633 105 645 80 655 54Z"/>
</svg>