<svg xmlns="http://www.w3.org/2000/svg" name="gid9862" data-unicode="篰"
    viewBox="0 0 1000 1000">
  <!--
© 2014-2021 Adobe (http://www.adobe.com/).
Noto is a trademark of Google Inc.
This Font Software is licensed under the SIL Open Font License, Version 1.1. This Font Software is distributed on an "AS IS" BASIS, WITHOUT WARRANTIES OR CONDITIONS OF ANY KIND, either express or implied. See the SIL Open Font License for the specific language, permissions and limitations governing your use of this Font Software.
http://scripts.sil.org/OFL
  -->
<path d="M146 409C164 448 180 497 185 531L47 531 47 593 567 593 567 531 421 531C439 498 460 451 480 408L432 396 545 396 545 336 345 336 345 271 286 271 343 248C336 231 324 209 310 187L486 187 486 128 222 128C234 103 246 78 256 53L185 35C152 124 96 212 33 271 51 280 81 300 95 312 127 278 160 235 189 187L232 187C250 215 269 248 278 271L273 271 273 336 80 336 80 396 410 396C399 434 376 487 360 522L395 531 212 531 251 522C246 488 229 435 208 396ZM571 35C540 124 481 208 414 262 432 272 462 293 476 305 511 273 545 233 575 187L650 187C678 224 706 268 717 299L784 272C774 248 754 217 732 187L945 187 945 128 609 128C622 104 633 79 642 53ZM120 657L120 957 188 957 188 913 441 913 441 943 512 943 512 657ZM188 849L188 719 441 719 441 849ZM608 307L608 960 679 960 679 373 847 373C820 430 783 499 747 559 839 625 868 682 869 729 869 757 862 778 843 787 832 793 819 796 804 797 783 798 754 798 723 795 733 813 742 841 743 860 773 861 806 861 832 859 854 856 874 851 891 840 924 820 938 784 938 734 938 680 913 619 822 549 864 483 909 403 947 334L896 304 885 307Z"/>
</svg>