<svg xmlns="http://www.w3.org/2000/svg" name="gid9887" data-unicode="簑"
    viewBox="0 0 1000 1000">
  <!--
© 2014-2021 Adobe (http://www.adobe.com/).
Noto is a trademark of Google Inc.
This Font Software is licensed under the SIL Open Font License, Version 1.1. This Font Software is distributed on an "AS IS" BASIS, WITHOUT WARRANTIES OR CONDITIONS OF ANY KIND, either express or implied. See the SIL Open Font License for the specific language, permissions and limitations governing your use of this Font Software.
http://scripts.sil.org/OFL
  -->
<path d="M576 35C556 84 524 131 487 171L487 118 222 118C233 97 244 75 253 54L183 35C152 113 98 191 38 242 55 252 86 272 100 284 130 255 160 217 188 175L226 175C246 208 265 248 272 275L341 255C334 233 318 203 302 175L483 175C463 196 441 215 419 231 431 237 448 246 463 255L463 307 71 307 71 364 932 364 932 307 535 307 535 243 514 243C535 223 556 200 576 175L655 175C682 208 709 250 721 277L788 254C778 232 758 202 737 175L942 175 942 118 615 118C627 97 639 75 648 53ZM733 569L733 623 267 623 267 569ZM267 467L733 467 733 521 267 521ZM169 893L181 957C294 941 456 917 610 894L608 833 349 869 349 765C407 743 460 717 504 689 586 832 732 923 923 961 933 942 953 914 968 899 864 882 772 850 699 803 764 776 844 738 907 701L850 661C801 695 720 740 654 770 619 742 590 709 567 673L806 673 806 573 948 573 948 517 806 517 806 417 197 417 197 517 53 517 53 573 197 573 197 673 424 673C320 726 167 767 35 785 49 799 67 824 76 841 140 830 210 812 278 790L278 879Z"/>
</svg>