<svg xmlns="http://www.w3.org/2000/svg" name="gid9889" data-unicode="簓"
    viewBox="0 0 1000 1000">
  <!--
© 2014-2021 Adobe (http://www.adobe.com/).
Noto is a trademark of Google Inc.
This Font Software is licensed under the SIL Open Font License, Version 1.1. This Font Software is distributed on an "AS IS" BASIS, WITHOUT WARRANTIES OR CONDITIONS OF ANY KIND, either express or implied. See the SIL Open Font License for the specific language, permissions and limitations governing your use of this Font Software.
http://scripts.sil.org/OFL
  -->
<path d="M833 260C776 331 668 398 569 436 586 449 605 471 616 487 723 443 833 370 899 286ZM868 450C807 532 689 608 577 650 595 664 614 686 625 702 743 653 863 570 934 476ZM901 649C834 764 703 854 553 902L555 878 555 289 103 289 103 563C103 675 96 820 31 924 47 932 74 951 86 963 156 851 167 685 167 564L167 345 491 345 491 877C491 889 487 893 475 893 462 894 421 895 377 893 386 911 396 941 399 959 457 959 498 957 523 947 539 939 548 927 552 908 567 923 585 946 594 963 754 905 892 806 967 674ZM210 643L210 888 260 888 260 833 442 833 442 643 352 643 352 579 451 579 451 529 352 529 352 472 451 472 451 421 352 421 352 359 300 359 300 421 203 421 203 472 300 472 300 529 200 529 200 579 300 579 300 643ZM260 693L392 693 392 783 260 783ZM576 35C556 85 524 134 487 176L487 116 223 116C234 96 244 75 253 54L183 35C152 113 98 191 38 242 55 252 86 272 100 284 129 255 159 218 186 177L225 177C245 210 265 251 272 277L339 257C332 236 317 205 301 177L486 177C465 200 442 221 419 238 437 246 469 265 484 275 516 249 548 215 576 177L654 177C682 211 711 255 724 284L791 258C780 235 760 205 738 177L946 177 946 116 617 116C629 96 639 74 648 53Z"/>
</svg>