<svg xmlns="http://www.w3.org/2000/svg"
    viewBox="0 0 1000 1000">
  <!--
© 2014-2021 Adobe (http://www.adobe.com/).
Noto is a trademark of Google Inc.
This Font Software is licensed under the SIL Open Font License, Version 1.1. This Font Software is distributed on an "AS IS" BASIS, WITHOUT WARRANTIES OR CONDITIONS OF ANY KIND, either express or implied. See the SIL Open Font License for the specific language, permissions and limitations governing your use of this Font Software.
http://scripts.sil.org/OFL
  -->
<path d="M224 647L779 647 779 694 224 694ZM224 559L779 559 779 605 224 605ZM154 515L154 738 461 738 461 784 52 784 52 839 461 839 461 929 537 929 537 839 952 839 952 784 537 784 537 738 851 738 851 515ZM180 5C147 80 89 155 26 204 44 213 74 233 87 245L91 241 91 285 345 285 345 331 119 331 119 474 882 474 882 331 641 331 641 285 916 285 916 235 98 235C127 208 156 175 182 139L234 139C254 169 273 205 280 229L348 207C340 188 326 162 311 139L487 139 487 84 219 84C231 64 242 44 251 24ZM411 285L575 285 575 331 411 331ZM188 374L345 374 345 431 188 431ZM411 374L575 374 575 431 411 431ZM641 374L810 374 810 431 641 431ZM576 3C547 78 492 149 430 195 448 204 480 222 495 233 525 208 555 176 582 139L654 139C678 168 701 203 712 228L780 206C771 187 755 162 736 139L945 139 945 84 617 84C629 64 639 42 648 21Z"/>
</svg>