<svg xmlns="http://www.w3.org/2000/svg" name="gid9898" data-unicode="簣"
    viewBox="0 0 1000 1000">
  <!--
© 2014-2021 Adobe (http://www.adobe.com/).
Noto is a trademark of Google Inc.
This Font Software is licensed under the SIL Open Font License, Version 1.1. This Font Software is distributed on an "AS IS" BASIS, WITHOUT WARRANTIES OR CONDITIONS OF ANY KIND, either express or implied. See the SIL Open Font License for the specific language, permissions and limitations governing your use of this Font Software.
http://scripts.sil.org/OFL
  -->
<path d="M343 835C277 869 157 894 50 909 68 922 96 947 109 962 210 942 338 907 414 861ZM242 650L767 650 767 696 242 696ZM242 737L767 737 767 784 242 784ZM242 565L767 565 767 609 242 609ZM171 523L171 826 840 826 840 523ZM581 876C694 903 805 937 868 962L950 921C876 895 753 862 641 836ZM576 36C556 80 525 122 488 157L488 105 223 105C233 88 242 71 250 54L179 35C148 104 95 173 37 219 54 228 85 249 98 261 128 233 160 197 188 158L230 158C246 186 260 218 266 241L334 220C329 203 318 180 305 158L487 158C468 176 449 191 428 205L462 220 462 252 185 252 185 389 462 389 462 430 58 430 58 482 944 482 944 430 536 430 536 389 829 389 829 252 536 252 536 207 534 207C550 192 565 176 580 158L655 158C678 185 700 218 710 241L776 220C768 202 753 180 736 158L953 158 953 105 619 105C630 88 640 71 648 53ZM257 294L462 294 462 346 257 346ZM536 294L754 294 754 346 536 346Z"/>
</svg>