<svg xmlns="http://www.w3.org/2000/svg"
    viewBox="0 0 1000 1000">
  <!--
© 2014-2021 Adobe (http://www.adobe.com/).
Noto is a trademark of Google Inc.
This Font Software is licensed under the SIL Open Font License, Version 1.1. This Font Software is distributed on an "AS IS" BASIS, WITHOUT WARRANTIES OR CONDITIONS OF ANY KIND, either express or implied. See the SIL Open Font License for the specific language, permissions and limitations governing your use of this Font Software.
http://scripts.sil.org/OFL
  -->
<path d="M283 603L703 603 703 687 283 687ZM209 546L209 744 781 744 781 546ZM863 349C831 373 781 406 737 431 716 414 696 397 677 378 719 355 768 322 808 289L751 249C723 275 678 309 638 336 615 308 596 279 580 248L520 269C551 329 592 384 640 432L373 432C416 393 453 350 480 301L433 274 421 277 113 277 113 336 376 336C347 372 309 406 266 436 233 408 180 374 137 351L97 392C136 413 181 444 213 470 154 505 89 533 28 551 43 564 62 588 71 603 167 570 269 518 353 449L353 489 651 489 651 443C727 515 820 572 920 606 930 588 951 561 967 548 904 529 843 502 788 467 831 445 879 418 918 389ZM638 745C624 774 600 817 579 847L360 847 402 835C394 810 374 773 353 747L283 764C301 789 318 822 326 847L66 847 66 907 937 907 937 847 658 847C676 823 696 794 713 765ZM202 6C167 93 108 176 41 231 59 240 91 257 105 269 140 236 176 193 207 145L262 145C283 181 304 223 313 251L378 226C370 204 355 174 338 145L492 145 492 87 242 87C252 67 262 46 271 25ZM590 7C563 91 512 171 450 222 468 230 500 248 513 259 546 228 577 188 604 143L682 143C708 177 733 219 744 247L809 222C800 200 782 171 762 143L942 143 942 86 634 86C644 65 653 43 660 21Z"/>
</svg>