<svg xmlns="http://www.w3.org/2000/svg"
    viewBox="0 0 1000 1000">
  <!--
© 2014-2021 Adobe (http://www.adobe.com/).
Noto is a trademark of Google Inc.
This Font Software is licensed under the SIL Open Font License, Version 1.1. This Font Software is distributed on an "AS IS" BASIS, WITHOUT WARRANTIES OR CONDITIONS OF ANY KIND, either express or implied. See the SIL Open Font License for the specific language, permissions and limitations governing your use of this Font Software.
http://scripts.sil.org/OFL
  -->
<path d="M576 3C544 78 485 149 419 196 438 204 469 223 484 234 517 208 550 174 580 136L655 136C674 160 693 187 707 211L637 211 637 266 362 266 362 211 340 211C333 191 319 163 304 136L487 136 487 84 220 84C231 65 242 45 251 25L180 5C149 76 96 147 37 195 55 204 85 225 98 237 128 210 158 175 186 136L228 136C247 167 265 205 272 231L289 226 289 266 74 266 74 316 289 316 289 411 713 411 713 316 927 316 927 266 713 266 713 223 718 233 787 210C777 189 759 162 739 136L955 136 955 84 615 84C628 64 639 42 648 21ZM637 316L637 365 362 365 362 316ZM588 842C695 867 802 901 865 929L935 885C867 858 754 825 650 803L852 803 852 546 534 546 534 501 955 501 955 449 47 449 47 501 463 501 463 546 155 546 155 803 336 803C271 837 156 862 55 878 71 890 95 917 105 931 207 910 332 873 406 826L345 803 637 803ZM225 697L463 697 463 754 225 754ZM534 697L779 697 779 754 534 754ZM225 595L463 595 463 650 225 650ZM534 595L779 595 779 650 534 650Z"/>
</svg>