<svg xmlns="http://www.w3.org/2000/svg" name="gid9904" data-unicode="簫"
    viewBox="0 0 1000 1000">
  <!--
© 2014-2021 Adobe (http://www.adobe.com/).
Noto is a trademark of Google Inc.
This Font Software is licensed under the SIL Open Font License, Version 1.1. This Font Software is distributed on an "AS IS" BASIS, WITHOUT WARRANTIES OR CONDITIONS OF ANY KIND, either express or implied. See the SIL Open Font License for the specific language, permissions and limitations governing your use of this Font Software.
http://scripts.sil.org/OFL
  -->
<path d="M783 433L783 485 533 485 533 433ZM576 33C556 78 524 122 487 159L487 114 221 114C232 94 242 74 251 54L180 35C149 111 96 186 36 236 54 245 84 266 98 278 129 249 160 211 188 169L227 169C246 202 267 244 274 271L342 251C335 229 319 197 303 169L476 169C456 188 434 205 412 220 426 227 446 238 462 248L462 282 149 282 149 330 462 330 462 380 48 380 48 433 462 433 462 485 137 485 137 533 462 533 462 717 201 717 203 674 387 674 387 553 328 553 328 630 203 630 203 556 134 556 134 656C134 740 124 839 38 915 56 926 83 948 96 962 132 929 156 892 172 853L328 853 328 958 387 958 387 810 186 810C190 795 194 780 196 765L462 765 462 960 533 960 533 765 805 765 805 810 611 810 611 958 670 958 670 853 805 853 805 960 877 960 877 552 805 552 805 630 669 630 669 553 611 553 611 674 805 674 805 717 533 717 533 533 854 533 854 433 954 433 954 380 854 380 854 282 533 282 533 228 513 228C533 210 553 190 571 169L653 169C680 202 707 244 720 272L788 250C777 227 757 197 735 169L953 169 953 114 612 114C626 94 638 73 648 51ZM783 380L533 380 533 330 783 330Z"/>
</svg>