<svg xmlns="http://www.w3.org/2000/svg" name="gid9907" data-unicode="簱"
    viewBox="0 0 1000 1000">
  <!--
© 2014-2021 Adobe (http://www.adobe.com/).
Noto is a trademark of Google Inc.
This Font Software is licensed under the SIL Open Font License, Version 1.1. This Font Software is distributed on an "AS IS" BASIS, WITHOUT WARRANTIES OR CONDITIONS OF ANY KIND, either express or implied. See the SIL Open Font License for the specific language, permissions and limitations governing your use of this Font Software.
http://scripts.sil.org/OFL
  -->
<path d="M574 802C536 847 467 887 400 914 417 925 446 949 459 961 525 929 601 877 644 822ZM747 831C804 869 866 919 901 957L969 928C929 889 860 838 797 799ZM576 35C556 84 524 132 487 172L487 116 222 116C233 96 244 76 253 55L183 35C151 110 96 185 35 234 53 244 83 265 97 276 126 249 155 215 182 177L228 177C246 208 264 244 271 270L206 270 206 364 46 364 46 432 162 432C157 636 139 813 33 912 51 923 73 946 84 963 173 877 207 744 222 585L338 585C332 790 324 865 309 883 302 892 294 894 281 894 267 894 235 893 199 890 209 907 216 934 217 953 254 955 291 955 312 953 337 951 353 944 368 925 391 896 399 805 408 551 408 540 408 519 408 519L227 519 231 432 435 432 435 364 272 364 272 272 273 275 341 255C334 234 320 204 304 177L482 177C462 198 441 217 419 233 437 241 469 260 484 271 515 246 547 213 575 177L657 177C683 209 707 247 719 273L788 250C779 230 761 202 741 177L947 177 947 116 616 116C628 96 639 74 648 53ZM795 274L795 347 604 347 604 274 535 274 535 347 451 347 451 408 535 408 535 728 441 728 441 789 952 789 952 728 863 728 863 408 946 408 946 347 863 347 863 274ZM604 408L795 408 795 474 604 474ZM604 728L604 651 795 651 795 728ZM604 526L795 526 795 599 604 599Z"/>
</svg>