<svg xmlns="http://www.w3.org/2000/svg"
    viewBox="0 0 1000 1000">
  <!--
© 2014-2021 Adobe (http://www.adobe.com/).
Noto is a trademark of Google Inc.
This Font Software is licensed under the SIL Open Font License, Version 1.1. This Font Software is distributed on an "AS IS" BASIS, WITHOUT WARRANTIES OR CONDITIONS OF ANY KIND, either express or implied. See the SIL Open Font License for the specific language, permissions and limitations governing your use of this Font Software.
http://scripts.sil.org/OFL
  -->
<path d="M314 781C347 813 385 857 402 887L458 857C440 827 401 784 368 754ZM165 751C140 799 94 853 51 886 67 897 88 915 100 926 145 891 194 833 226 778ZM695 386L695 507 586 507 586 386ZM519 326L519 557C519 660 512 795 447 893 462 900 490 921 502 933 572 830 586 677 586 564L594 564C622 645 661 718 711 778 663 822 606 854 542 877 556 889 578 916 587 931 649 906 707 872 756 825 805 871 861 907 924 931 934 913 955 886 971 872 907 851 850 819 802 777 856 711 897 628 922 522L882 505 869 507 764 507 764 386 875 386C868 420 859 453 850 477L913 487C930 449 946 386 956 332L908 324 895 326 764 326 764 243 695 243 695 326ZM843 564C823 630 793 685 756 731 713 683 680 626 656 564ZM358 244L358 320 200 320 200 244 133 244 133 320 56 320 56 377 133 377 133 679 45 679 45 736 495 736 495 679 425 679 425 377 493 377 493 320 425 320 425 244ZM200 377L358 377 358 439 200 439ZM200 679L200 611 358 611 358 679ZM200 492L358 492 358 558 200 558ZM184 5C153 84 97 162 36 214 53 223 84 244 98 255 127 227 157 190 185 150L241 150C262 182 284 222 294 248L359 222C351 202 335 175 318 150L487 150 487 88 223 88C235 67 246 46 255 24ZM576 5C546 88 491 168 427 220 446 227 477 245 492 256 523 228 554 191 582 150L659 150C684 179 708 213 720 237L786 211C777 193 762 171 745 150L944 150 944 88 618 88C629 67 639 44 647 22Z"/>
</svg>