<svg xmlns="http://www.w3.org/2000/svg"
    viewBox="0 0 1000 1000">
  <!--
© 2014-2021 Adobe (http://www.adobe.com/).
Noto is a trademark of Google Inc.
This Font Software is licensed under the SIL Open Font License, Version 1.1. This Font Software is distributed on an "AS IS" BASIS, WITHOUT WARRANTIES OR CONDITIONS OF ANY KIND, either express or implied. See the SIL Open Font License for the specific language, permissions and limitations governing your use of this Font Software.
http://scripts.sil.org/OFL
  -->
<path d="M797 296C746 317 648 334 565 345 572 356 579 373 582 384L603 382 603 405 490 405 490 353C513 348 534 343 552 337L510 303C456 321 354 334 270 341 276 351 283 368 285 379 330 377 379 372 425 365L425 405 219 405 219 452 425 452 425 500 266 500 266 548 425 548 425 599 213 599 213 646 425 646 425 704 259 704 259 751 390 751C333 805 244 855 166 880 179 891 198 913 207 928 281 900 365 847 425 789L425 925 490 925 490 751 603 751 603 930 668 930 668 778C731 840 826 898 906 928 916 912 935 889 950 877 867 854 773 804 713 751L855 751 855 646 958 646 958 599 855 599 855 500 668 500 668 452 909 452 909 405 668 405 668 373C732 363 796 349 844 331ZM490 452L603 452 603 500 490 500ZM490 646L603 646 603 704 490 704ZM490 599L490 548 603 548 603 599ZM668 646L789 646 789 704 668 704ZM668 599L668 548 789 548 789 599ZM576 5C545 81 487 153 421 199 441 207 473 222 490 232L490 241 123 241 123 505C123 623 114 781 33 894 50 901 80 919 93 931 177 811 191 635 191 506L191 293 945 293 945 241 562 241 562 195 530 195C547 178 563 160 578 140L655 140C682 172 707 211 719 237L787 214C777 193 758 165 738 140L946 140 946 81 618 81C629 62 640 42 648 22ZM184 7C152 82 98 157 38 206 55 215 85 235 98 247 129 218 160 181 188 140L230 140C248 172 267 212 274 237L340 218C334 197 319 167 303 140L487 140 487 81 225 81C235 63 245 44 253 26Z"/>
</svg>