<svg xmlns="http://www.w3.org/2000/svg"
    viewBox="0 0 1000 1000">
  <!--
© 2014-2021 Adobe (http://www.adobe.com/).
Noto is a trademark of Google Inc.
This Font Software is licensed under the SIL Open Font License, Version 1.1. This Font Software is distributed on an "AS IS" BASIS, WITHOUT WARRANTIES OR CONDITIONS OF ANY KIND, either express or implied. See the SIL Open Font License for the specific language, permissions and limitations governing your use of this Font Software.
http://scripts.sil.org/OFL
  -->
<path d="M582 782C545 823 478 862 414 888 430 898 457 920 469 932 534 902 607 853 649 801ZM754 811C808 847 868 895 900 931L966 903C928 865 862 817 803 780ZM573 5C553 53 522 100 485 140L485 86 220 86C232 66 243 45 252 24L183 5C151 80 96 155 35 204 53 213 82 234 96 246 125 219 154 185 181 147L228 147C241 169 254 194 263 216L206 216 206 325 49 325 49 392 165 392C159 591 140 779 32 883 49 894 71 914 81 929 170 842 206 708 222 553L341 553C334 761 327 837 311 855 304 865 296 866 283 866 270 866 237 866 201 863 211 880 218 907 219 926 257 927 293 927 315 925 340 923 356 917 371 897 394 868 402 777 410 518 410 508 411 486 411 486L227 486 232 392 431 392 431 389C443 396 455 403 462 409 484 388 507 361 527 332L956 332 956 274 564 274C575 254 585 234 593 213L527 197C506 252 472 306 431 347L431 325 272 325 272 242 273 245 341 225C334 204 320 174 304 147L479 147C459 168 437 187 415 203 433 211 464 229 478 240 509 215 540 183 568 147L657 147C683 179 707 217 719 243L788 220C779 200 761 172 741 147L954 147 954 86 610 86C622 65 633 44 642 22ZM793 355L793 413 614 413 614 354 545 354 545 413 459 413 459 464 545 464 545 719 440 719 440 772 957 772 957 719 862 719 862 464 946 464 946 413 862 413 862 355ZM614 464L793 464 793 519 614 519ZM614 719L614 664 793 664 793 719ZM614 562L793 562 793 620 614 620Z"/>
</svg>