<svg xmlns="http://www.w3.org/2000/svg"
    viewBox="0 0 1000 1000">
  <!--
© 2014-2021 Adobe (http://www.adobe.com/).
Noto is a trademark of Google Inc.
This Font Software is licensed under the SIL Open Font License, Version 1.1. This Font Software is distributed on an "AS IS" BASIS, WITHOUT WARRANTIES OR CONDITIONS OF ANY KIND, either express or implied. See the SIL Open Font License for the specific language, permissions and limitations governing your use of this Font Software.
http://scripts.sil.org/OFL
  -->
<path d="M597 606L836 606 836 658 597 658ZM597 702L836 702 836 754 597 754ZM597 513L836 513 836 563 597 563ZM576 5C556 54 524 102 487 142L487 84 223 84C234 64 244 44 253 24L183 5C152 81 98 156 38 206 56 215 86 236 100 248 129 220 159 184 186 144L227 144C242 171 258 201 266 225L235 225 235 295 59 295 59 354 235 354 235 420 83 420 83 633 201 633C160 712 92 793 32 836 47 850 64 875 72 892 129 845 191 768 235 691L235 930 300 930 300 726C342 759 393 800 417 822L460 765C434 747 336 681 300 660L300 633 458 633 458 420 300 420 300 354 474 354 474 295 300 295 300 228 337 218C331 198 317 170 302 144L485 144C465 166 442 186 419 203 437 211 469 230 484 241 516 215 548 182 577 144L655 144C681 176 707 215 719 242L787 219C777 198 759 170 739 144L953 144 953 84 617 84C629 64 639 44 648 23ZM756 834C814 863 877 901 912 931L970 893C932 863 868 828 809 801L907 801 907 466 553 466C625 430 687 381 715 305L862 305C855 354 849 375 840 384 835 390 827 390 815 390 802 391 771 390 737 387 744 400 750 421 751 435 789 437 826 437 844 436 867 435 881 431 894 419 913 402 923 364 932 278 933 268 934 252 934 252L507 252 507 305 643 305C614 373 546 416 458 442 475 451 503 472 515 483L530 477 530 801 795 801ZM606 801C564 835 491 865 424 886 440 896 466 917 479 928 544 905 623 865 670 823ZM144 475L235 475 235 578 144 578ZM300 475L395 475 395 578 300 578Z"/>
</svg>