<svg xmlns="http://www.w3.org/2000/svg" name="gid9974" data-unicode="粔"
    viewBox="0 0 1000 1000">
  <!--
© 2014-2021 Adobe (http://www.adobe.com/).
Noto is a trademark of Google Inc.
This Font Software is licensed under the SIL Open Font License, Version 1.1. This Font Software is distributed on an "AS IS" BASIS, WITHOUT WARRANTIES OR CONDITIONS OF ANY KIND, either express or implied. See the SIL Open Font License for the specific language, permissions and limitations governing your use of this Font Software.
http://scripts.sil.org/OFL
  -->
<path d="M52 124C79 192 102 281 105 339L166 324C160 266 137 178 108 110ZM47 385L47 455 193 455C157 565 93 690 34 758 46 777 65 809 72 831 121 771 169 675 207 577L207 959 278 959 278 589C315 634 359 692 377 723L424 662C402 637 310 538 278 507L278 455 423 455 423 385 278 385 278 40 207 40 207 385ZM403 854L403 926 961 926 961 854 559 854 559 682 904 682 904 323 559 323 559 167 949 167 949 95 430 95 430 119 369 103C355 170 324 268 300 327L352 344C376 294 405 216 430 146L430 167 484 167 484 854ZM559 393L832 393 832 613 559 613Z"/>
</svg>