<svg xmlns="http://www.w3.org/2000/svg" name="gid9985" data-unicode="粥"
    viewBox="0 0 1000 1000">
  <!--
© 2014-2021 Adobe (http://www.adobe.com/).
Noto is a trademark of Google Inc.
This Font Software is licensed under the SIL Open Font License, Version 1.1. This Font Software is distributed on an "AS IS" BASIS, WITHOUT WARRANTIES OR CONDITIONS OF ANY KIND, either express or implied. See the SIL Open Font License for the specific language, permissions and limitations governing your use of this Font Software.
http://scripts.sil.org/OFL
  -->
<path d="M600 130C588 196 563 293 543 352L590 368C613 311 642 220 665 147ZM326 143C350 213 368 304 370 363L426 351C422 292 403 202 378 132ZM458 53L458 411 317 411 317 480 440 480C405 586 344 707 289 774 302 793 319 824 327 845 374 783 421 684 458 583L458 947 522 947 522 608C557 660 601 730 618 765L661 708C641 679 550 561 522 530L522 480 653 480 653 411 522 411 522 53ZM691 311C686 406 674 534 662 612L725 619 730 579 866 579C858 785 849 863 830 882 822 892 813 894 796 893 779 893 734 893 686 889 697 908 705 936 707 956 754 959 801 960 826 957 855 955 873 949 891 928 917 896 927 803 937 548 938 537 938 515 938 515L736 515 748 380 933 380 933 79 667 79 667 146 864 146 864 311ZM70 311C66 406 56 534 45 612L107 620 111 579 229 579C221 787 212 865 195 884 187 893 177 895 162 895 145 895 102 894 56 890 67 909 75 937 76 957 122 960 167 960 191 957 220 955 238 949 254 928 280 897 290 804 299 547 299 537 300 515 300 515L117 515 128 380 295 380 295 80 55 80 55 147 227 147 227 311Z"/>
</svg>