<svg xmlns="http://www.w3.org/2000/svg" name="gid9995" data-unicode="粳"
    viewBox="0 0 1000 1000">
  <!--
© 2014-2021 Adobe (http://www.adobe.com/).
Noto is a trademark of Google Inc.
This Font Software is licensed under the SIL Open Font License, Version 1.1. This Font Software is distributed on an "AS IS" BASIS, WITHOUT WARRANTIES OR CONDITIONS OF ANY KIND, either express or implied. See the SIL Open Font License for the specific language, permissions and limitations governing your use of this Font Software.
http://scripts.sil.org/OFL
  -->
<path d="M52 114C78 183 101 275 106 334L162 320C155 260 132 171 104 101ZM340 96C326 163 297 262 274 321L321 336C348 280 379 187 403 112ZM493 640L428 658C454 715 488 763 529 803 482 844 411 879 307 904 322 920 342 948 350 965 458 936 533 895 586 848 673 908 787 944 929 960 939 940 958 910 973 893 833 880 718 850 633 796 671 743 689 683 697 621L924 621 924 250 702 250 702 169 952 169 952 103 413 103 413 169 629 169 629 250 422 250 422 621 623 621C617 667 603 712 575 752 540 721 513 683 493 640ZM490 464L629 464 629 522 628 561 490 561ZM702 464L852 464 852 561 701 561 702 521ZM490 310L629 310 629 406 490 406ZM702 310L852 310 852 406 702 406ZM46 372L46 443 175 443C141 554 80 684 24 755 36 775 54 806 62 828 108 765 154 663 189 562L189 959 258 959 258 548C295 603 340 675 359 710L404 653C384 622 293 506 258 468L258 443 385 443 385 372 258 372 258 40 189 40 189 372Z"/>
</svg>