<svg xmlns="http://www.w3.org/2000/svg" name="gid10001" data-unicode="粼"
    viewBox="0 0 1000 1000">
  <!--
© 2014-2021 Adobe (http://www.adobe.com/).
Noto is a trademark of Google Inc.
This Font Software is licensed under the SIL Open Font License, Version 1.1. This Font Software is distributed on an "AS IS" BASIS, WITHOUT WARRANTIES OR CONDITIONS OF ANY KIND, either express or implied. See the SIL Open Font License for the specific language, permissions and limitations governing your use of this Font Software.
http://scripts.sil.org/OFL
  -->
<path d="M104 83C132 122 164 175 177 209L237 183C225 149 191 97 161 60ZM503 55C486 94 452 152 426 188L483 209C509 176 542 126 570 79ZM702 46C682 154 632 338 588 475 653 639 712 836 731 955L799 923C777 814 714 626 652 474 693 346 742 183 770 60ZM863 46C839 155 782 339 731 478 806 643 875 841 899 962L969 927C942 819 869 629 799 478 845 348 901 188 932 62ZM170 608L273 608C263 650 250 688 234 722 209 701 175 676 143 657ZM164 466C137 561 88 651 27 711 41 719 65 738 75 748 88 734 100 719 113 702 146 725 181 753 205 775 166 838 117 885 61 917 75 926 96 949 106 962 219 893 306 764 343 564L306 551 295 553 195 553C205 529 214 504 222 479ZM359 555L359 764 315 764 315 824 484 824 484 960 541 960 541 824 638 824 638 764 541 764 541 615 611 615 611 555 541 555 541 464 484 464 484 555ZM484 764L412 764 412 615 484 615ZM300 44L300 213 56 213 56 276 254 276C195 338 110 398 36 429 51 441 71 464 82 480 154 443 239 379 300 310L300 476 369 476 369 345C435 377 507 415 547 441L591 391C539 360 441 312 369 280L369 276 600 276 600 213 369 213 369 44Z"/>
</svg>