<svg xmlns="http://www.w3.org/2000/svg"
    viewBox="0 0 1000 1000">
  <!--
© 2014-2021 Adobe (http://www.adobe.com/).
Noto is a trademark of Google Inc.
This Font Software is licensed under the SIL Open Font License, Version 1.1. This Font Software is distributed on an "AS IS" BASIS, WITHOUT WARRANTIES OR CONDITIONS OF ANY KIND, either express or implied. See the SIL Open Font License for the specific language, permissions and limitations governing your use of this Font Software.
http://scripts.sil.org/OFL
  -->
<path d="M53 94C79 162 100 251 103 310L162 295C157 236 136 148 107 80ZM354 73C340 139 311 236 287 295L338 311C364 255 396 165 422 91ZM403 526L403 594 593 594C532 688 437 779 347 826 363 839 385 865 397 882 484 830 576 738 640 638L640 928 710 928 710 641C766 737 846 831 919 884 931 866 954 841 971 828 893 780 808 687 755 594L949 594 949 526 710 526 710 455 922 455 922 63 440 63 440 455 640 455 640 526ZM508 289L640 289 640 393 508 393ZM710 289L851 289 851 393 710 393ZM508 126L640 126 640 229 508 229ZM710 126L851 126 851 229 710 229ZM45 355L45 425 181 425C147 532 87 653 31 720 44 739 63 771 71 793 117 734 162 641 198 546L198 929 268 929 268 554C303 601 346 661 363 692L410 633C390 607 301 505 268 471L268 425 405 425 405 355 268 355 268 10 198 10 198 355Z"/>
</svg>