<svg xmlns="http://www.w3.org/2000/svg" name="gid10010" data-unicode="糈"
    viewBox="0 0 1000 1000">
  <!--
© 2014-2021 Adobe (http://www.adobe.com/).
Noto is a trademark of Google Inc.
This Font Software is licensed under the SIL Open Font License, Version 1.1. This Font Software is distributed on an "AS IS" BASIS, WITHOUT WARRANTIES OR CONDITIONS OF ANY KIND, either express or implied. See the SIL Open Font License for the specific language, permissions and limitations governing your use of this Font Software.
http://scripts.sil.org/OFL
  -->
<path d="M52 118C77 189 94 280 95 340L150 327C147 267 130 175 102 105ZM312 100C303 167 282 267 265 328L311 342C330 285 352 191 371 116ZM479 164C467 278 433 369 363 427 378 437 405 459 416 471 457 434 488 386 510 328 568 410 654 430 778 430L943 430C946 413 955 385 965 370 931 370 804 370 782 370 752 370 724 369 698 366L698 282 869 282 869 225 698 225 698 137 876 137C869 163 862 189 855 208L913 223C928 188 944 134 958 86L911 74 899 77 383 77 383 137 630 137 630 350C587 334 554 306 532 258 538 230 543 202 547 171ZM518 668L823 668 823 740 518 740ZM518 611L518 539 823 539 823 611ZM448 480L448 961 518 961 518 799 823 799 823 880C823 891 819 895 806 895 793 896 751 896 703 895 712 913 723 940 726 959 791 959 834 959 861 948 887 936 894 917 894 880L894 480ZM45 376L45 446 169 446C140 558 85 689 34 761 46 777 63 805 70 823 110 766 148 675 179 582L179 957 242 957 242 580C273 626 310 687 325 720L371 659C352 632 265 525 242 501L242 446 352 446 352 376 242 376 242 40 179 40 179 376Z"/>
</svg>