<svg xmlns="http://www.w3.org/2000/svg"
    viewBox="0 0 1000 1000">
  <!--
© 2014-2021 Adobe (http://www.adobe.com/).
Noto is a trademark of Google Inc.
This Font Software is licensed under the SIL Open Font License, Version 1.1. This Font Software is distributed on an "AS IS" BASIS, WITHOUT WARRANTIES OR CONDITIONS OF ANY KIND, either express or implied. See the SIL Open Font License for the specific language, permissions and limitations governing your use of this Font Software.
http://scripts.sil.org/OFL
  -->
<path d="M50 90C73 160 94 251 98 310L151 296C145 237 124 147 99 77ZM310 74C296 141 271 240 250 298L296 314C319 258 348 165 370 91ZM372 460L372 875 435 875 435 804 634 804 634 460 537 460 537 278 657 278 657 211 537 211 537 11 471 11 471 211 346 211 346 278 471 278 471 460ZM687 44L687 487C687 621 680 787 601 901 616 908 642 929 652 941 718 849 739 715 745 594L877 594 877 843C877 856 872 860 860 860 848 861 809 861 766 860 775 878 783 908 785 925 848 926 884 924 909 913 931 901 939 881 939 843L939 44ZM748 108L877 108 877 284 748 284ZM748 348L877 348 877 530 748 530 748 486ZM435 525L571 525 571 740 435 740ZM55 346L55 413 166 413C137 524 81 658 32 729 44 748 61 781 68 803 105 746 141 657 171 566L171 928 235 928 235 526C262 575 293 634 305 666L350 609C335 581 261 473 235 438L235 413 335 413 335 346 235 346 235 13 171 13 171 346Z"/>
</svg>