<svg xmlns="http://www.w3.org/2000/svg" name="gid10029" data-unicode="糠"
    viewBox="0 0 1000 1000">
  <!--
© 2014-2021 Adobe (http://www.adobe.com/).
Noto is a trademark of Google Inc.
This Font Software is licensed under the SIL Open Font License, Version 1.1. This Font Software is distributed on an "AS IS" BASIS, WITHOUT WARRANTIES OR CONDITIONS OF ANY KIND, either express or implied. See the SIL Open Font License for the specific language, permissions and limitations governing your use of this Font Software.
http://scripts.sil.org/OFL
  -->
<path d="M419 859L452 919C507 891 568 856 630 823L614 772C541 806 470 839 419 859ZM467 658C503 683 544 722 563 750L606 709C588 682 545 644 507 621ZM46 123C68 191 85 278 87 336L143 323C140 265 123 179 98 111ZM312 102C301 169 278 268 259 327L307 341C329 286 355 192 376 118ZM891 617C862 645 814 686 774 715 751 679 732 640 718 599L905 599 905 474 961 474 961 417 905 417 905 294 718 294 718 220 652 220 652 294 504 294 504 350 652 350 652 417 455 417 455 214 948 214 948 151 701 151 701 40 625 40 625 151 390 151 390 487C390 623 380 799 283 922 298 930 324 952 335 965 439 833 455 633 455 487L455 474 652 474 652 542 501 542 501 599 652 599 652 884C652 896 648 899 637 899 626 900 592 900 555 899 564 916 572 943 575 960 629 960 665 959 688 949 711 938 718 921 718 884L718 727C766 819 835 893 926 929 936 910 956 885 970 873 903 852 848 810 804 756 845 731 894 696 936 664ZM841 474L841 542 718 542 718 474ZM841 417L718 417 718 350 841 350ZM41 384L41 454 164 454C133 561 78 683 27 750 39 769 57 800 65 820 104 766 143 682 174 594L174 959 241 959 241 593C269 637 301 689 315 717L359 656C343 632 271 539 241 503L241 454 359 454 359 384 241 384 241 40 174 40 174 384Z"/>
</svg>