<svg xmlns="http://www.w3.org/2000/svg" name="gid10031" data-unicode="糦"
    viewBox="0 0 1000 1000">
  <!--
© 2014-2021 Adobe (http://www.adobe.com/).
Noto is a trademark of Google Inc.
This Font Software is licensed under the SIL Open Font License, Version 1.1. This Font Software is distributed on an "AS IS" BASIS, WITHOUT WARRANTIES OR CONDITIONS OF ANY KIND, either express or implied. See the SIL Open Font License for the specific language, permissions and limitations governing your use of this Font Software.
http://scripts.sil.org/OFL
  -->
<path d="M51 122C75 191 93 279 94 337L152 324C149 266 131 178 105 110ZM513 391L832 391 832 474 513 474ZM502 538C514 562 526 592 534 617L371 617 383 600C366 578 290 497 258 466L258 454 393 454 393 384 258 384 258 40 189 40 189 384 45 384 45 454 176 454C143 562 82 683 27 750 39 769 58 801 65 823 110 766 154 675 189 581L189 959 258 959 258 539C289 581 326 632 341 659L362 630 362 677 964 677 964 617 805 617 852 536 820 527 902 527 902 339 446 339 446 527 545 527ZM631 40L631 113 405 113 405 118 340 101C328 167 300 263 278 321L328 336C351 283 381 197 405 125L405 170 631 170 631 235 428 235 428 291 922 291 922 235 704 235 704 170 944 170 944 113 704 113 704 40ZM594 617L600 615C594 592 578 555 563 527L781 527C771 554 753 591 741 617ZM439 727L439 960 507 960 507 931 843 931 843 956 913 956 913 727ZM507 874L507 781 843 781 843 874Z"/>
</svg>