<svg xmlns="http://www.w3.org/2000/svg" name="gid10032" data-unicode="糧"
    viewBox="0 0 1000 1000">
  <!--
© 2014-2021 Adobe (http://www.adobe.com/).
Noto is a trademark of Google Inc.
This Font Software is licensed under the SIL Open Font License, Version 1.1. This Font Software is distributed on an "AS IS" BASIS, WITHOUT WARRANTIES OR CONDITIONS OF ANY KIND, either express or implied. See the SIL Open Font License for the specific language, permissions and limitations governing your use of this Font Software.
http://scripts.sil.org/OFL
  -->
<path d="M515 215L829 215 829 269 515 269ZM515 118L829 118 829 170 515 170ZM448 71L448 316 898 316 898 71ZM51 122C75 192 93 281 94 340L153 326C150 268 132 178 105 110ZM337 101C324 167 297 263 275 321L325 336C350 282 380 192 404 119ZM431 469L431 719 634 719 634 772 417 772 417 825 634 825 634 889 369 889 369 945 960 945 960 889 703 889 703 825 921 825 921 772 703 772 703 719 910 719 910 469ZM497 615L634 615 634 674 497 674ZM703 615L843 615 843 674 703 674ZM497 514L634 514 634 572 497 572ZM703 514L843 514 843 572 703 572ZM45 384L45 454 175 454C143 562 86 683 33 750 45 769 63 801 71 823 114 767 155 679 188 587L188 959 256 959 256 585C290 632 329 691 346 722L392 663C373 637 289 536 256 501L256 454 387 454 387 419 957 419 957 363 385 363 385 384 256 384 256 40 188 40 188 384Z"/>
</svg>