<svg xmlns="http://www.w3.org/2000/svg" name="gid10039" data-unicode="糶"
    viewBox="0 0 1000 1000">
  <!--
© 2014-2021 Adobe (http://www.adobe.com/).
Noto is a trademark of Google Inc.
This Font Software is licensed under the SIL Open Font License, Version 1.1. This Font Software is distributed on an "AS IS" BASIS, WITHOUT WARRANTIES OR CONDITIONS OF ANY KIND, either express or implied. See the SIL Open Font License for the specific language, permissions and limitations governing your use of this Font Software.
http://scripts.sil.org/OFL
  -->
<path d="M707 75L707 132 875 132 875 418 937 418 937 75ZM554 148C526 182 482 218 439 247 452 254 474 272 483 281 525 252 575 205 607 164ZM818 262C790 306 743 351 697 383 710 391 731 410 741 419 786 384 839 329 872 279ZM76 498C97 534 115 582 120 613L175 594C168 563 149 516 127 482ZM370 476C359 510 336 561 318 594L366 611C386 582 409 537 431 496ZM72 273L72 436 427 436 427 273 370 273 370 378 277 378 277 240 409 240 409 83 354 83 354 185 277 185 277 40 216 40 216 185 142 185 142 83 89 83 89 240 216 240 216 378 127 378 127 273ZM567 686L697 686 697 751 567 751ZM567 634L567 570 697 570 697 634ZM214 455L214 625 51 625 51 687 194 687C153 755 90 823 32 860 46 874 63 900 72 916 120 879 173 823 214 763L214 961 280 961 280 768C323 807 378 859 400 885L443 832C418 810 317 729 280 704L280 687 425 687 451 713C468 694 485 673 502 650L502 961 567 961 567 923 961 923 961 868 761 868 761 803 919 803 919 751 761 751 761 686 919 686 919 634 761 634 761 570 940 570 940 515 763 515 806 442 738 420C728 447 711 485 696 515L585 515C599 487 612 458 624 430L560 411C530 491 483 571 431 633L431 625 280 625 280 455ZM567 803L697 803 697 868 567 868ZM794 146C766 181 724 216 682 244L682 75 458 75 458 132 621 132 621 284 574 269C543 316 494 363 444 397 458 405 479 424 488 434 533 399 586 346 621 295L621 415 682 415 682 246C695 254 716 271 726 280 767 250 815 204 847 163Z"/>
</svg>