<svg xmlns="http://www.w3.org/2000/svg"
    viewBox="0 0 1000 1000">
  <!--
© 2014-2021 Adobe (http://www.adobe.com/).
Noto is a trademark of Google Inc.
This Font Software is licensed under the SIL Open Font License, Version 1.1. This Font Software is distributed on an "AS IS" BASIS, WITHOUT WARRANTIES OR CONDITIONS OF ANY KIND, either express or implied. See the SIL Open Font License for the specific language, permissions and limitations governing your use of this Font Software.
http://scripts.sil.org/OFL
  -->
<path d="M356 595C387 660 419 744 431 800L496 776C484 721 451 638 418 574ZM107 580C94 668 70 758 34 818 51 826 83 841 98 851 133 787 161 689 177 593ZM549 39L549 782C549 888 577 918 672 918 691 918 819 918 841 918 935 918 955 860 964 695 943 690 911 676 892 661 887 807 880 844 836 844 809 844 700 844 679 844 634 844 626 834 626 783L626 39ZM37 448L45 520 232 508 232 930 306 930 306 503 429 495C441 518 452 540 459 558L518 525C495 470 440 385 390 322L335 350C354 375 373 403 391 432L200 441C274 357 358 246 421 153L352 119C320 174 277 240 232 302 213 280 188 256 162 232 204 178 254 102 293 37L222 9C198 64 156 137 118 192L78 160 41 210C93 252 152 311 190 357 165 389 141 419 117 445Z"/>
</svg>