<svg xmlns="http://www.w3.org/2000/svg"
    viewBox="0 0 1000 1000">
  <!--
© 2014-2021 Adobe (http://www.adobe.com/).
Noto is a trademark of Google Inc.
This Font Software is licensed under the SIL Open Font License, Version 1.1. This Font Software is distributed on an "AS IS" BASIS, WITHOUT WARRANTIES OR CONDITIONS OF ANY KIND, either express or implied. See the SIL Open Font License for the specific language, permissions and limitations governing your use of this Font Software.
http://scripts.sil.org/OFL
  -->
<path d="M660 106L660 827 728 827 728 106ZM859 54L859 918 930 918 930 54ZM471 68L471 398C471 570 458 741 338 878 357 887 385 908 398 923 526 774 540 588 540 399L540 68ZM298 592C324 649 349 724 358 772L416 752C406 704 380 630 353 575ZM91 582C79 670 59 759 25 820 42 826 71 840 85 849 117 785 142 688 155 593ZM34 458L41 526 198 516 198 932 265 932 265 512 344 507C353 529 359 549 363 566L420 541C406 486 366 400 325 335L272 357C289 384 305 416 319 447L170 453C238 365 314 248 371 153L308 124C281 178 245 242 205 304 190 284 169 261 147 238 184 183 227 103 261 37L195 10C174 66 138 141 106 197L76 171 38 221C84 262 136 319 167 363 145 397 122 429 101 456Z"/>
</svg>