<svg xmlns="http://www.w3.org/2000/svg"
    viewBox="0 0 1000 1000">
  <!--
© 2014-2021 Adobe (http://www.adobe.com/).
Noto is a trademark of Google Inc.
This Font Software is licensed under the SIL Open Font License, Version 1.1. This Font Software is distributed on an "AS IS" BASIS, WITHOUT WARRANTIES OR CONDITIONS OF ANY KIND, either express or implied. See the SIL Open Font License for the specific language, permissions and limitations governing your use of this Font Software.
http://scripts.sil.org/OFL
  -->
<path d="M324 596C355 662 387 748 398 805L461 782C447 726 416 641 383 577ZM98 582C84 670 61 759 24 820 40 826 71 841 84 849 119 786 148 689 163 594ZM503 360L503 428 743 428C482 719 471 774 471 821 471 882 514 919 612 919L854 919C938 919 967 891 976 721 955 717 929 707 908 697 904 827 895 845 857 845L611 845C572 845 548 836 548 811 548 777 569 726 874 395 879 390 882 384 885 379L834 358 817 360ZM568 10C530 126 466 243 392 318 411 327 444 350 458 362 490 326 522 280 551 230L948 230 948 158 589 158C610 116 628 72 644 28ZM34 457L42 525 215 517 215 932 284 932 284 514 390 508C401 530 409 551 415 568L474 538C455 483 406 398 360 336L305 362C324 388 342 419 359 449L185 454C258 367 340 249 402 153L336 124C307 178 267 243 224 306 207 285 184 262 160 239 198 183 244 104 281 37L212 10C189 66 150 142 115 200L79 171 44 222C94 261 150 316 186 360 160 395 135 427 111 455Z"/>
</svg>