<svg xmlns="http://www.w3.org/2000/svg"
    viewBox="0 0 1000 1000">
  <!--
© 2014-2021 Adobe (http://www.adobe.com/).
Noto is a trademark of Google Inc.
This Font Software is licensed under the SIL Open Font License, Version 1.1. This Font Software is distributed on an "AS IS" BASIS, WITHOUT WARRANTIES OR CONDITIONS OF ANY KIND, either express or implied. See the SIL Open Font License for the specific language, permissions and limitations governing your use of this Font Software.
http://scripts.sil.org/OFL
  -->
<path d="M298 592C324 651 350 727 360 777L417 757C407 708 381 632 353 575ZM91 582C79 670 59 759 25 820 42 826 71 840 85 849 117 785 142 688 155 593ZM435 106L435 177 648 177C642 451 612 738 380 878 396 891 421 918 432 932 675 782 713 473 724 177L862 177C851 637 837 798 810 833 799 849 790 852 774 851 754 851 711 851 663 847 675 867 682 900 684 922 730 924 777 925 807 921 837 918 857 909 877 879 912 831 924 662 936 146 937 136 937 106 937 106ZM34 458L41 526 198 516 198 932 265 932 265 512 344 507C353 529 359 549 363 566L417 542C411 555 403 567 395 578L456 608C509 530 537 406 546 293L484 284C476 373 455 470 419 539 405 484 365 399 325 335L272 357C289 384 305 416 319 447L170 453C238 365 314 248 371 153L308 124C281 178 245 242 205 304 190 284 169 261 147 238 184 183 227 103 261 37L195 10C174 66 138 141 106 197L76 171 38 221C84 262 136 319 167 363 145 397 122 429 101 456Z"/>
</svg>