<svg xmlns="http://www.w3.org/2000/svg"
    viewBox="0 0 1000 1000">
  <!--
© 2014-2021 Adobe (http://www.adobe.com/).
Noto is a trademark of Google Inc.
This Font Software is licensed under the SIL Open Font License, Version 1.1. This Font Software is distributed on an "AS IS" BASIS, WITHOUT WARRANTIES OR CONDITIONS OF ANY KIND, either express or implied. See the SIL Open Font License for the specific language, permissions and limitations governing your use of this Font Software.
http://scripts.sil.org/OFL
  -->
<path d="M91 582C79 670 59 759 25 820 42 826 71 840 85 849 117 785 142 688 155 593ZM729 143C714 228 691 345 670 433L739 440 749 394 859 394C831 507 785 601 727 678 636 552 581 382 549 194L549 143ZM300 591C325 648 351 722 360 770L403 755C382 801 356 846 322 888 340 897 366 916 379 928 495 781 533 596 544 433 578 547 622 649 681 732 624 793 557 839 485 873 501 884 526 913 536 929 604 894 668 848 725 788 780 850 845 898 924 931 934 912 956 884 972 870 893 841 827 794 772 734 851 634 911 504 944 341L899 322 886 325 764 325C781 239 798 148 810 77L759 69 747 73 384 73 384 143 482 143 482 290C482 416 475 581 413 732 402 686 379 622 355 574ZM34 458L41 526 198 517 198 932 265 932 265 512 355 506C363 528 370 549 374 566L431 541C418 486 378 400 336 335L283 357C299 384 315 414 329 445L171 453C238 365 314 248 371 153L308 124C281 178 245 242 205 304 190 284 169 261 147 238 184 183 227 103 261 37L195 10C174 66 138 141 106 197L76 171 38 221C84 262 136 319 167 363 145 397 123 428 101 456Z"/>
</svg>