<svg xmlns="http://www.w3.org/2000/svg" name="gid10070" data-unicode="紜"
    viewBox="0 0 1000 1000">
  <!--
© 2014-2021 Adobe (http://www.adobe.com/).
Noto is a trademark of Google Inc.
This Font Software is licensed under the SIL Open Font License, Version 1.1. This Font Software is distributed on an "AS IS" BASIS, WITHOUT WARRANTIES OR CONDITIONS OF ANY KIND, either express or implied. See the SIL Open Font License for the specific language, permissions and limitations governing your use of this Font Software.
http://scripts.sil.org/OFL
  -->
<path d="M470 131L470 203 910 203 910 131ZM310 626C337 687 364 768 373 821L435 800C424 748 395 668 366 607ZM91 612C79 700 59 789 25 850 42 856 71 870 85 879 117 815 142 718 155 623ZM409 845L421 919 869 883C881 911 891 937 898 960L968 929C939 842 872 711 805 612L741 640C775 693 809 755 838 816L582 834C615 732 651 593 677 478L949 478 949 405 432 405 432 478 591 478C571 591 537 737 505 839ZM36 487L42 555 206 546 206 962 274 962 274 542 361 537C369 558 376 578 381 595L440 567C425 512 382 427 340 362L284 386C301 413 318 445 333 476L173 482C243 396 322 278 382 182L316 154C288 208 250 274 208 338 193 317 171 292 148 269 185 213 228 133 262 66L195 40C174 96 138 171 106 228L75 201 38 251C85 293 138 350 169 396 147 428 124 459 102 485Z"/>
</svg>