<svg xmlns="http://www.w3.org/2000/svg"
    viewBox="0 0 1000 1000">
  <!--
© 2014-2021 Adobe (http://www.adobe.com/).
Noto is a trademark of Google Inc.
This Font Software is licensed under the SIL Open Font License, Version 1.1. This Font Software is distributed on an "AS IS" BASIS, WITHOUT WARRANTIES OR CONDITIONS OF ANY KIND, either express or implied. See the SIL Open Font License for the specific language, permissions and limitations governing your use of this Font Software.
http://scripts.sil.org/OFL
  -->
<path d="M298 592C324 651 350 727 360 777L417 757C407 708 381 632 353 575ZM91 582C79 670 59 759 25 820 42 826 71 840 85 849 117 785 142 688 155 593ZM699 68C762 100 838 152 874 190L919 138C882 101 805 52 742 21ZM34 458L41 526 198 516 198 932 265 932 265 512 344 507C353 529 359 549 363 566L420 541C406 486 366 400 325 335L272 357C289 384 305 416 319 447L170 453C238 365 314 248 371 153L308 124C281 178 245 242 205 304 190 284 169 261 147 238 184 183 227 103 261 37L195 10C174 66 138 141 106 197L76 171 38 221C84 262 136 319 167 363 145 397 122 429 101 456ZM534 13L534 208 381 208 381 277 534 277C533 465 511 701 328 882 346 893 373 915 385 928 518 795 571 634 592 480 617 568 648 647 689 715 642 781 582 835 508 877 525 889 552 916 563 930 629 888 685 837 731 777 782 842 845 894 923 930 934 911 956 884 972 870 890 837 825 784 772 716 832 617 873 497 898 352L826 342C807 462 775 565 729 651 669 548 632 421 609 277L944 277 944 208 605 208 605 13Z"/>
</svg>