<svg xmlns="http://www.w3.org/2000/svg"
    viewBox="0 0 1000 1000">
  <!--
© 2014-2021 Adobe (http://www.adobe.com/).
Noto is a trademark of Google Inc.
This Font Software is licensed under the SIL Open Font License, Version 1.1. This Font Software is distributed on an "AS IS" BASIS, WITHOUT WARRANTIES OR CONDITIONS OF ANY KIND, either express or implied. See the SIL Open Font License for the specific language, permissions and limitations governing your use of this Font Software.
http://scripts.sil.org/OFL
  -->
<path d="M298 592C324 651 350 727 360 777L417 757C407 708 381 632 353 575ZM91 582C79 670 59 759 25 820 42 826 71 840 85 849 117 785 142 688 155 593ZM472 517L472 930 542 930 542 878 844 878 844 926 917 926 917 517ZM542 810L542 584 844 584 844 810ZM435 62L435 132 597 132C579 254 536 356 397 412 413 425 434 451 442 468 598 400 650 281 671 132L864 132C857 290 848 351 834 367 827 376 818 377 802 377 786 377 742 377 697 373 708 392 716 421 718 443 765 444 809 445 833 442 861 440 879 434 895 415 919 386 928 306 935 93 936 83 937 62 937 62ZM34 458L41 526 198 516 198 932 265 932 265 512 344 507C353 529 359 549 363 566L420 541C406 486 366 400 325 335L272 357C289 384 305 416 319 447L170 453C238 365 314 248 371 153L308 124C281 178 245 242 205 304 190 284 169 261 147 238 184 183 227 103 261 37L195 10C174 66 138 141 106 197L76 171 38 221C84 262 136 319 167 363 145 397 122 429 101 456Z"/>
</svg>