<svg xmlns="http://www.w3.org/2000/svg" name="gid10108" data-unicode="絏"
    viewBox="0 0 1000 1000">
  <!--
© 2014-2021 Adobe (http://www.adobe.com/).
Noto is a trademark of Google Inc.
This Font Software is licensed under the SIL Open Font License, Version 1.1. This Font Software is distributed on an "AS IS" BASIS, WITHOUT WARRANTIES OR CONDITIONS OF ANY KIND, either express or implied. See the SIL Open Font License for the specific language, permissions and limitations governing your use of this Font Software.
http://scripts.sil.org/OFL
  -->
<path d="M296 625C320 683 341 759 346 809L405 790C398 741 377 666 351 609ZM89 612C77 699 59 789 26 850 42 856 71 869 84 878 115 814 139 717 152 622ZM494 415L642 415C645 455 648 493 652 530L494 530ZM712 415L858 415 858 530 722 530C718 494 715 455 712 415ZM494 238L635 238 639 353 494 353ZM705 238L858 238 858 353 709 353ZM632 42L633 174 424 174 424 596 660 596C668 660 679 716 694 765 606 824 497 867 382 890 398 905 418 934 429 952 533 927 632 886 717 832 752 913 801 960 868 960 938 960 960 922 972 798 956 790 932 775 917 759 912 859 901 890 875 890 834 890 802 854 776 790 831 747 877 697 913 642L849 616C824 654 792 689 754 721 745 684 737 642 731 596L931 596 931 174 704 174 704 42ZM28 482L37 549 195 539 195 960 261 960 261 535 340 530C349 554 357 576 361 595L421 567C406 513 366 426 324 361L269 383C285 409 300 438 314 468L170 475C237 390 314 276 371 184L308 154C280 208 242 274 201 337 186 316 168 294 147 271 184 215 228 133 262 65L196 40C175 96 139 172 107 229L76 201 37 249C82 292 132 349 162 395 140 425 119 454 99 479Z"/>
</svg>