<svg xmlns="http://www.w3.org/2000/svg"
    viewBox="0 0 1000 1000">
  <!--
© 2014-2021 Adobe (http://www.adobe.com/).
Noto is a trademark of Google Inc.
This Font Software is licensed under the SIL Open Font License, Version 1.1. This Font Software is distributed on an "AS IS" BASIS, WITHOUT WARRANTIES OR CONDITIONS OF ANY KIND, either express or implied. See the SIL Open Font License for the specific language, permissions and limitations governing your use of this Font Software.
http://scripts.sil.org/OFL
  -->
<path d="M634 781C718 814 824 870 875 910L933 865C877 824 771 771 689 740ZM294 743C233 790 135 835 46 865 63 877 90 902 102 916 188 881 292 826 361 770ZM63 667L66 731 460 724 460 930 535 930 535 722 829 715C854 734 875 753 891 769L946 725C892 673 785 603 697 560L646 598C680 616 716 638 751 660L436 664C520 617 612 560 684 508L619 470C566 514 490 566 414 612 393 597 367 581 341 566 388 538 444 499 490 461L423 428C390 461 334 506 287 537 260 524 232 511 207 500L158 540C222 569 298 612 350 648L318 665ZM235 10L235 79 68 79 68 138 235 138 235 204 89 204 89 261 235 261 235 341 49 358 55 419 235 400 235 461 304 461 304 392 484 372 484 316 304 334 304 261 451 261 451 204 304 204 304 138 467 138 467 79 304 79 304 10ZM503 60L503 123 631 123C619 250 586 347 468 400 484 412 504 437 512 453 647 387 686 274 701 123L843 123C834 291 825 355 809 372 801 381 792 383 778 383 762 383 725 382 684 378 695 396 702 424 704 443 746 445 787 445 809 444 835 441 852 435 868 416 892 388 904 307 915 91 916 80 916 60 916 60Z"/>
</svg>