<svg xmlns="http://www.w3.org/2000/svg"
    viewBox="0 0 1000 1000">
  <!--
© 2014-2021 Adobe (http://www.adobe.com/).
Noto is a trademark of Google Inc.
This Font Software is licensed under the SIL Open Font License, Version 1.1. This Font Software is distributed on an "AS IS" BASIS, WITHOUT WARRANTIES OR CONDITIONS OF ANY KIND, either express or implied. See the SIL Open Font License for the specific language, permissions and limitations governing your use of this Font Software.
http://scripts.sil.org/OFL
  -->
<path d="M617 167C635 225 648 299 649 348L718 333C716 285 702 211 683 154ZM784 149C833 220 883 316 902 379L967 345C946 283 894 190 845 120ZM296 595C320 653 341 729 346 779L405 760C398 711 377 636 351 579ZM89 582C77 669 59 759 26 820 42 826 71 839 84 848 115 784 139 687 152 592ZM470 68C451 176 414 281 358 349 378 358 411 376 426 388 471 326 508 236 533 138 659 126 800 105 901 77L843 21C770 44 647 64 532 79ZM28 452L37 519 195 509 195 930 261 930 261 505 340 500C349 524 356 547 360 566L419 539 545 539C515 609 485 676 459 726L526 753 545 713C583 728 621 746 658 765 595 814 508 847 391 867 404 882 420 909 427 927 557 901 653 860 723 801 795 843 859 890 901 932L952 878C909 837 845 791 773 750 819 694 849 624 868 539L961 539 961 473 651 473 697 359 623 346 573 473 414 473 414 522C397 467 361 391 324 332L269 353C284 379 300 408 313 438L170 445C237 360 314 246 371 154L308 124C280 178 242 244 201 307 186 286 168 264 147 241 184 185 228 103 262 35L196 10C175 66 139 142 107 199L76 171 37 219C82 262 132 319 162 365 140 395 119 424 99 449ZM623 539L794 539C776 610 749 669 709 716 664 693 617 673 572 656Z"/>
</svg>