<svg xmlns="http://www.w3.org/2000/svg" name="gid10160" data-unicode="綜"
    viewBox="0 0 1000 1000">
  <!--
© 2014-2021 Adobe (http://www.adobe.com/).
Noto is a trademark of Google Inc.
This Font Software is licensed under the SIL Open Font License, Version 1.1. This Font Software is distributed on an "AS IS" BASIS, WITHOUT WARRANTIES OR CONDITIONS OF ANY KIND, either express or implied. See the SIL Open Font License for the specific language, permissions and limitations governing your use of this Font Software.
http://scripts.sil.org/OFL
  -->
<path d="M503 330L503 396 862 396 862 330ZM495 633C471 711 432 791 384 844 401 854 430 874 443 885 491 826 536 737 563 649ZM787 656C830 725 878 819 898 879L964 849C942 790 893 699 848 630ZM298 622C323 679 349 753 358 801L415 781C406 733 380 660 353 605ZM91 612C79 700 59 789 25 850 42 856 71 870 85 879 117 815 142 718 155 623ZM432 503L432 572 641 572 641 877C641 889 637 891 625 892 611 893 570 893 523 891 533 912 543 940 546 960 609 960 651 959 678 949 706 937 713 917 713 878L713 572 944 572 944 503ZM417 154L417 327 486 327 486 219 874 219 874 327 945 327 945 154 711 154 711 40 636 40 636 154ZM34 488L41 556 198 546 198 962 265 962 265 542 344 537C353 559 359 579 363 596L420 571C406 516 366 430 325 365L272 387C289 414 305 446 319 477L170 483C238 395 314 278 371 183L308 154C281 208 245 272 205 334 190 314 169 291 147 268 184 213 227 133 261 67L195 40C174 96 138 171 106 227L76 201 38 251C84 292 136 349 167 393 145 427 122 459 101 486Z"/>
</svg>