<svg xmlns="http://www.w3.org/2000/svg" name="gid10163" data-unicode="綟"
    viewBox="0 0 1000 1000">
  <!--
© 2014-2021 Adobe (http://www.adobe.com/).
Noto is a trademark of Google Inc.
This Font Software is licensed under the SIL Open Font License, Version 1.1. This Font Software is distributed on an "AS IS" BASIS, WITHOUT WARRANTIES OR CONDITIONS OF ANY KIND, either express or implied. See the SIL Open Font License for the specific language, permissions and limitations governing your use of this Font Software.
http://scripts.sil.org/OFL
  -->
<path d="M406 97L406 163 946 163 946 97ZM89 612C77 699 59 789 26 850 42 856 71 869 84 878 115 814 139 717 152 622ZM296 626C320 683 341 760 347 809L401 792C385 837 362 879 331 917 348 926 378 945 390 957 454 877 486 774 500 673L664 673C639 781 583 857 451 905 466 917 486 943 494 959 619 911 683 838 718 738 760 840 829 921 926 961 936 942 958 915 974 902 867 867 794 779 756 673L950 673 950 608 746 608C750 577 753 544 755 510L684 510C682 545 679 577 676 608L508 608C511 567 512 528 512 492L512 489 925 489 925 238 444 238 444 491C444 579 439 686 404 784 396 735 376 664 351 609ZM512 302L854 302 854 425 512 425ZM28 482L37 549 195 539 195 960 261 960 261 535 340 530C349 554 357 576 361 595L421 567C406 513 366 426 324 361L269 383C285 409 300 438 314 468L170 475C237 390 314 276 371 184L308 154C280 208 242 274 201 337 186 316 168 294 147 271 184 215 228 133 262 65L196 40C175 96 139 172 107 229L76 201 37 249C82 292 132 349 162 395 140 425 119 454 99 479Z"/>
</svg>