<svg xmlns="http://www.w3.org/2000/svg" name="gid10166" data-unicode="綣"
    viewBox="0 0 1000 1000">
  <!--
© 2014-2021 Adobe (http://www.adobe.com/).
Noto is a trademark of Google Inc.
This Font Software is licensed under the SIL Open Font License, Version 1.1. This Font Software is distributed on an "AS IS" BASIS, WITHOUT WARRANTIES OR CONDITIONS OF ANY KIND, either express or implied. See the SIL Open Font License for the specific language, permissions and limitations governing your use of this Font Software.
http://scripts.sil.org/OFL
  -->
<path d="M782 105C832 165 884 249 906 304L966 270C943 214 890 134 838 74ZM484 74C461 149 421 226 374 278 391 286 420 302 433 311 479 257 523 172 550 88ZM283 624C307 683 326 761 331 812L388 794C382 744 361 667 337 608ZM89 612C77 699 59 789 26 850 42 856 70 869 82 877 113 813 137 717 150 622ZM385 403L385 470 506 470C468 540 420 600 360 647 376 658 404 684 415 697 448 668 477 637 503 602L503 857C503 938 530 957 627 957 647 957 792 957 814 957 896 957 917 928 926 809 907 804 877 793 862 781 858 877 851 892 809 892 777 892 655 892 632 892 581 892 572 886 572 856L572 627 768 627C764 694 760 722 752 730 747 736 741 737 730 737 719 737 691 737 660 734 669 750 675 776 676 794 710 797 743 796 760 795 781 792 796 787 808 773 824 753 829 706 834 593L835 578C862 615 893 647 925 672 937 654 960 629 977 616 928 583 883 531 846 470L949 470 949 403 810 403C794 369 780 333 769 297L853 297 853 232 662 232C676 174 687 112 696 47L626 39C617 107 606 172 592 232L493 232 493 297 575 297C564 334 552 370 538 403ZM646 297L703 297C713 333 725 369 739 403L611 403C624 369 635 334 646 297ZM582 470L769 470C787 504 806 537 826 566L528 566C548 536 566 504 582 470ZM28 482L37 549 189 540 189 960 254 960 254 536 327 531C335 554 341 577 344 595L401 572C390 516 354 428 317 361L265 381C279 408 292 438 304 468L171 475C236 390 309 276 364 182L302 154C276 208 239 274 200 337 186 317 168 295 148 273 184 217 226 134 261 65L196 40C176 96 140 173 108 231L76 200 37 247C83 290 134 349 163 395 143 426 123 454 104 479Z"/>
</svg>