<svg xmlns="http://www.w3.org/2000/svg"
    viewBox="0 0 1000 1000">
  <!--
© 2014-2021 Adobe (http://www.adobe.com/).
Noto is a trademark of Google Inc.
This Font Software is licensed under the SIL Open Font License, Version 1.1. This Font Software is distributed on an "AS IS" BASIS, WITHOUT WARRANTIES OR CONDITIONS OF ANY KIND, either express or implied. See the SIL Open Font License for the specific language, permissions and limitations governing your use of this Font Software.
http://scripts.sil.org/OFL
  -->
<path d="M70 50L70 108 499 108 499 50ZM634 768C719 807 823 869 874 912L932 867C878 822 772 764 690 728ZM291 728C230 781 133 831 45 864 62 876 90 902 103 916 188 878 292 817 360 755ZM66 654L69 717 461 708 461 931 535 931 535 706 817 698C842 717 865 736 881 752L933 707C878 655 769 587 680 544L632 585C666 602 704 624 739 646L414 651C498 600 588 537 659 480L610 455C647 437 681 417 713 394 771 443 841 480 921 504 932 485 951 458 967 443 890 424 822 393 766 350 815 303 853 245 877 174L955 174 955 111 656 111C669 83 680 55 689 26L620 10C590 110 536 203 467 263 483 274 510 299 521 312 544 290 565 264 586 236 607 277 634 314 664 348 615 382 557 408 490 428 505 441 529 469 538 484L553 478C510 515 458 554 405 590 382 573 353 554 322 536 371 499 430 448 477 401L413 369C378 411 319 468 269 507L216 481 169 522C228 551 299 593 347 628L306 653ZM803 174C783 226 753 269 715 306 677 267 647 223 626 174ZM114 161L114 272C114 335 104 415 35 474 50 484 79 510 90 524 143 477 167 415 177 355L459 355 459 161ZM184 217L390 217 390 299 183 299 184 273Z"/>
</svg>