<svg xmlns="http://www.w3.org/2000/svg"
    viewBox="0 0 1000 1000">
  <!--
© 2014-2021 Adobe (http://www.adobe.com/).
Noto is a trademark of Google Inc.
This Font Software is licensed under the SIL Open Font License, Version 1.1. This Font Software is distributed on an "AS IS" BASIS, WITHOUT WARRANTIES OR CONDITIONS OF ANY KIND, either express or implied. See the SIL Open Font License for the specific language, permissions and limitations governing your use of this Font Software.
http://scripts.sil.org/OFL
  -->
<path d="M296 595C320 653 341 728 346 777L404 759C398 710 377 636 351 579ZM89 582C77 669 59 759 26 820 42 826 71 839 84 848 115 784 139 687 152 592ZM28 452L37 519 195 509 195 930 261 930 261 505 340 500C348 521 355 540 359 557L403 537 403 597 599 597C539 696 442 790 347 838 364 852 386 877 397 894 486 842 577 751 641 649L641 930 712 930 712 646C768 741 847 835 921 887 933 870 956 844 973 831 894 782 810 690 756 597L947 597 947 529 712 529 712 449 920 449 920 58 436 58 436 449 641 449 641 529 416 529C403 475 364 393 324 331L269 353C285 379 300 409 314 438L170 445C237 360 314 246 371 154L308 124C280 178 242 244 201 307 186 286 168 264 147 241 184 185 228 103 262 35L196 10C175 66 139 142 107 199L76 171 37 219C82 262 132 319 162 365 140 395 119 424 99 449ZM504 283L641 283 641 387 504 387ZM712 283L849 283 849 387 712 387ZM504 121L641 121 641 223 504 223ZM712 121L849 121 849 223 712 223Z"/>
</svg>