<svg xmlns="http://www.w3.org/2000/svg" name="gid10188" data-unicode="綾"
    viewBox="0 0 1000 1000">
  <!--
© 2014-2021 Adobe (http://www.adobe.com/).
Noto is a trademark of Google Inc.
This Font Software is licensed under the SIL Open Font License, Version 1.1. This Font Software is distributed on an "AS IS" BASIS, WITHOUT WARRANTIES OR CONDITIONS OF ANY KIND, either express or implied. See the SIL Open Font License for the specific language, permissions and limitations governing your use of this Font Software.
http://scripts.sil.org/OFL
  -->
<path d="M283 624C307 682 326 758 330 808L387 790C381 741 361 666 337 608ZM89 612C77 699 59 789 26 850 42 856 70 869 82 877 113 813 137 717 150 622ZM391 280L391 344 534 344C522 422 488 467 382 494 396 505 415 531 422 547 547 509 589 448 603 344L712 344 712 443C712 506 728 523 798 523 812 523 876 523 890 523 942 523 960 503 967 419 948 414 920 405 907 395 904 457 900 465 881 465 868 465 818 465 808 465 786 465 782 462 782 443L782 344 948 344 948 280 703 280 703 191 909 191 909 127 703 127 703 39 631 39 631 127 435 127 435 191 631 191 631 280ZM592 480C552 578 473 662 382 715 398 727 422 754 432 767 465 745 498 719 528 689 555 731 587 769 625 803 552 848 460 883 348 906 364 921 382 945 391 963 507 937 603 898 680 848 751 899 835 937 929 960 938 942 959 913 974 899 885 881 805 849 737 806 808 747 857 677 886 597L838 576 824 579 616 579C632 553 647 526 659 497ZM573 638L788 639C764 685 728 727 681 765 637 728 600 686 573 638ZM28 482L37 549 189 540 189 960 254 960 254 536 326 531C334 555 339 577 342 596L400 573C391 517 357 428 320 360L266 379C280 406 293 437 305 468L171 475C236 390 309 276 364 182L302 154C276 208 239 274 200 337 186 317 168 295 148 273 184 217 226 134 261 65L196 40C176 96 140 173 108 231L76 200 37 247C83 290 134 349 163 395 143 426 123 454 104 479Z"/>
</svg>