<svg xmlns="http://www.w3.org/2000/svg"
    viewBox="0 0 1000 1000">
  <!--
© 2014-2021 Adobe (http://www.adobe.com/).
Noto is a trademark of Google Inc.
This Font Software is licensed under the SIL Open Font License, Version 1.1. This Font Software is distributed on an "AS IS" BASIS, WITHOUT WARRANTIES OR CONDITIONS OF ANY KIND, either express or implied. See the SIL Open Font License for the specific language, permissions and limitations governing your use of this Font Software.
http://scripts.sil.org/OFL
  -->
<path d="M635 783C720 817 827 873 878 914L936 868C880 827 773 774 690 742ZM295 745C235 792 137 837 49 866 65 877 93 903 105 916 190 882 294 828 362 772ZM85 47L85 447 386 447C355 475 313 507 276 532 251 520 227 508 204 499L155 541C218 570 294 612 346 648L315 664 65 667 69 731 460 722 460 930 535 930 535 720 837 713C860 731 881 748 896 764L950 722C898 671 793 603 706 561L654 597C688 614 724 635 758 657L433 663C522 614 617 555 693 500L627 463C572 508 492 563 412 611 389 595 361 578 330 561 375 533 427 498 469 464L435 447 497 447 497 392 335 392 335 330 479 330 479 161 335 161 335 101 496 101 496 47ZM613 127L552 146C580 217 619 280 667 334 617 371 560 399 501 417 516 431 533 457 541 474 604 452 663 422 716 382 773 432 840 471 915 496 926 478 946 451 963 437 890 416 824 382 769 337 838 271 892 183 922 72L877 57 864 59 525 59 525 123 832 123C806 189 767 245 719 291 673 243 637 188 613 127ZM155 392L155 330 272 330 272 392ZM155 210L409 210 409 280 155 280ZM155 161L155 101 272 101 272 161Z"/>
</svg>