<svg xmlns="http://www.w3.org/2000/svg" name="gid10219" data-unicode="緤"
    viewBox="0 0 1000 1000">
  <!--
© 2014-2021 Adobe (http://www.adobe.com/).
Noto is a trademark of Google Inc.
This Font Software is licensed under the SIL Open Font License, Version 1.1. This Font Software is distributed on an "AS IS" BASIS, WITHOUT WARRANTIES OR CONDITIONS OF ANY KIND, either express or implied. See the SIL Open Font License for the specific language, permissions and limitations governing your use of this Font Software.
http://scripts.sil.org/OFL
  -->
<path d="M296 625C320 683 341 759 346 809L405 790C398 741 377 666 351 609ZM89 612C77 699 59 789 26 850 42 856 71 869 84 878 115 814 139 717 152 622ZM461 62L461 170 379 170 379 232 461 232 461 514 635 514 635 598 402 598 402 661 589 661C534 749 444 832 359 873 375 887 396 911 407 929 490 881 576 794 635 700L635 961 706 961 706 695C764 783 846 870 919 917 931 900 954 875 970 862 894 821 807 741 751 661L948 661 948 598 706 598 706 514 931 514 931 453 527 453 527 232 631 232 631 387 866 387 866 232 952 232 952 170 866 170 866 51 799 51 799 170 696 170 696 38 631 38 631 170 527 170 527 62ZM799 232L799 329 696 329 696 232ZM28 482L37 549 195 539 195 960 261 960 261 535 343 530C351 553 358 574 362 592L422 564C407 510 367 424 326 359L271 382C287 408 303 438 317 468L170 475C237 390 314 276 371 184L308 154C280 208 242 274 201 337 186 316 168 294 147 271 184 215 228 133 262 65L196 40C175 96 139 172 107 229L76 201 37 249C82 292 132 349 162 395 140 425 119 454 99 479Z"/>
</svg>