<svg xmlns="http://www.w3.org/2000/svg" name="gid10221" data-unicode="緦"
    viewBox="0 0 1000 1000">
  <!--
© 2014-2021 Adobe (http://www.adobe.com/).
Noto is a trademark of Google Inc.
This Font Software is licensed under the SIL Open Font License, Version 1.1. This Font Software is distributed on an "AS IS" BASIS, WITHOUT WARRANTIES OR CONDITIONS OF ANY KIND, either express or implied. See the SIL Open Font License for the specific language, permissions and limitations governing your use of this Font Software.
http://scripts.sil.org/OFL
  -->
<path d="M442 86L442 509 908 509 908 86ZM548 629L548 860C548 933 566 954 641 954 657 954 737 954 753 954 816 954 835 923 843 800 824 795 795 784 780 772 777 874 772 888 746 888 729 888 664 888 651 888 622 888 618 883 618 859L618 629ZM449 645C438 731 413 822 362 876L420 909C476 852 499 752 511 659ZM557 563C623 590 700 636 738 672L781 616C741 582 662 538 597 514ZM802 662C856 735 901 834 913 901L978 871C964 804 918 707 862 636ZM296 625C320 683 341 759 346 809L405 790C398 741 377 666 351 609ZM89 612C77 699 59 789 26 850 42 856 71 869 84 878 115 814 139 717 152 622ZM510 327L639 327 639 445 510 445ZM705 327L837 327 837 445 705 445ZM510 150L639 150 639 267 510 267ZM705 150L837 150 837 267 705 267ZM28 482L37 549 195 539 195 960 261 960 261 535 340 530C349 554 357 576 361 595L421 567C406 513 366 426 324 361L269 383C285 409 300 438 314 468L170 475C237 390 314 276 371 184L308 154C280 208 242 274 201 337 186 316 168 294 147 271 184 215 228 133 262 65L196 40C175 96 139 172 107 229L76 201 37 249C82 292 132 349 162 395 140 425 119 454 99 479Z"/>
</svg>