<svg xmlns="http://www.w3.org/2000/svg"
    viewBox="0 0 1000 1000">
  <!--
© 2014-2021 Adobe (http://www.adobe.com/).
Noto is a trademark of Google Inc.
This Font Software is licensed under the SIL Open Font License, Version 1.1. This Font Software is distributed on an "AS IS" BASIS, WITHOUT WARRANTIES OR CONDITIONS OF ANY KIND, either express or implied. See the SIL Open Font License for the specific language, permissions and limitations governing your use of this Font Software.
http://scripts.sil.org/OFL
  -->
<path d="M636 780C707 821 798 884 841 926L901 882C854 839 763 780 692 740ZM282 742C234 794 156 845 83 879 101 891 130 915 144 928 214 889 297 828 353 767ZM421 56C402 89 366 139 339 170L385 192C414 164 451 121 484 80ZM150 57C138 109 112 158 66 184L113 216C165 184 187 130 201 73ZM866 54C847 88 809 139 780 170L827 192C858 164 897 121 931 79ZM563 59C552 111 524 159 476 185L523 218C577 186 601 132 615 75ZM685 10C676 170 645 249 472 293 481 302 493 317 502 332L147 332C208 307 249 275 277 233 320 262 367 298 392 323L440 278C410 249 351 208 303 179 319 133 326 77 330 10L262 10C254 176 221 255 44 298 58 310 75 334 82 351L82 509 154 509 154 396 401 396C371 430 327 471 286 504L233 477 185 521C248 551 323 596 373 634L344 653 82 655 86 722 461 715 461 929 535 929 535 713 818 706C847 728 872 750 890 769L947 727C890 671 779 595 688 546L634 582C668 601 704 624 739 648L450 652C538 593 631 522 705 458L636 425C585 476 509 538 433 592 408 574 375 553 341 533 386 500 436 458 478 417L434 396 846 396 846 509 921 509 921 332 914 332 947 295C898 257 803 207 728 172 743 127 751 74 754 10ZM881 332L560 332C628 306 673 272 702 227 765 258 835 299 881 332Z"/>
</svg>