<svg xmlns="http://www.w3.org/2000/svg"
    viewBox="0 0 1000 1000">
  <!--
© 2014-2021 Adobe (http://www.adobe.com/).
Noto is a trademark of Google Inc.
This Font Software is licensed under the SIL Open Font License, Version 1.1. This Font Software is distributed on an "AS IS" BASIS, WITHOUT WARRANTIES OR CONDITIONS OF ANY KIND, either express or implied. See the SIL Open Font License for the specific language, permissions and limitations governing your use of this Font Software.
http://scripts.sil.org/OFL
  -->
<path d="M470 727C512 767 557 826 577 864L635 823C613 786 567 732 524 693ZM283 594C307 652 326 728 330 778L387 760C381 711 361 636 337 578ZM89 582C77 669 59 759 26 820 42 826 70 839 82 847 113 783 137 687 150 592ZM429 235L429 551 742 551 742 622 390 622 390 686 742 686 742 849C742 861 739 864 725 865 711 865 668 865 617 864 626 883 636 910 640 930 707 930 751 929 778 919 807 908 814 888 814 851L814 686 962 686 962 622 814 622 814 551 927 551 927 235 708 235 708 172 950 172 950 112 879 112 909 80C880 59 825 28 781 12L742 48C780 63 824 90 855 112L708 112 708 12 638 12 638 112 396 112 396 172 638 172 638 235ZM498 419L638 419 638 497 498 497ZM708 419L856 419 856 497 708 497ZM498 290L638 290 638 366 498 366ZM708 290L856 290 856 366 708 366ZM28 452L35 519 189 510 189 930 254 930 254 506 329 500C337 524 343 547 346 565L403 541C392 485 355 397 318 330L265 351C279 378 293 408 305 438L171 445C236 360 309 246 364 152L302 124C276 178 239 244 200 307 186 287 168 265 148 243 184 187 226 104 261 35L196 10C176 66 140 143 108 201L76 170 37 217C83 260 134 319 163 365 143 396 123 424 104 449Z"/>
</svg>