<svg xmlns="http://www.w3.org/2000/svg" name="gid10258" data-unicode="縣"
    viewBox="0 0 1000 1000">
  <!--
© 2014-2021 Adobe (http://www.adobe.com/).
Noto is a trademark of Google Inc.
This Font Software is licensed under the SIL Open Font License, Version 1.1. This Font Software is distributed on an "AS IS" BASIS, WITHOUT WARRANTIES OR CONDITIONS OF ANY KIND, either express or implied. See the SIL Open Font License for the specific language, permissions and limitations governing your use of this Font Software.
http://scripts.sil.org/OFL
  -->
<path d="M825 692C860 759 894 848 906 907L968 884C954 826 919 738 883 671ZM387 704C419 753 450 819 462 862L522 834C508 792 476 727 442 679ZM585 678C567 755 537 834 497 888 513 895 543 910 556 919 595 862 629 775 650 690ZM133 686C113 757 80 832 41 884 58 893 88 909 101 919 139 865 177 781 202 703ZM259 255L422 255 422 333 259 333ZM259 386L422 386 422 465 259 465ZM259 126L422 126 422 202 259 202ZM198 69L198 521 485 521 485 69ZM67 153L67 649 268 649 268 960 336 960 336 649 505 649 505 584 131 584 131 153ZM809 455C828 479 846 506 863 534L676 548C746 466 825 360 884 271L820 240C792 290 754 349 714 406 695 384 671 358 645 333 685 281 732 208 771 145L754 138C819 127 880 113 929 97L883 42C795 72 640 97 510 112 518 128 527 152 530 168 580 163 634 157 688 149 664 195 633 250 603 294L565 261 525 307C577 352 638 414 674 461 649 494 623 526 599 554L518 560 527 627 705 611 705 959 773 959 773 605 896 594C905 613 912 630 917 645L975 618C959 565 911 488 863 430Z"/>
</svg>