<svg xmlns="http://www.w3.org/2000/svg"
    viewBox="0 0 1000 1000">
  <!--
© 2014-2021 Adobe (http://www.adobe.com/).
Noto is a trademark of Google Inc.
This Font Software is licensed under the SIL Open Font License, Version 1.1. This Font Software is distributed on an "AS IS" BASIS, WITHOUT WARRANTIES OR CONDITIONS OF ANY KIND, either express or implied. See the SIL Open Font License for the specific language, permissions and limitations governing your use of this Font Software.
http://scripts.sil.org/OFL
  -->
<path d="M274 589C295 645 314 717 319 765L374 748C368 701 348 630 326 576ZM88 582C77 669 60 759 28 820 43 826 71 838 83 846 113 782 135 686 147 592ZM471 9C436 134 377 256 306 336 321 347 345 373 355 385 368 370 380 354 392 336L392 927 454 927 454 231C486 167 514 97 535 25ZM685 178L841 178C824 225 800 267 769 303 731 264 703 221 684 180ZM506 160L506 755 565 755 565 274C577 285 591 299 597 307 616 287 634 263 651 237 670 273 696 311 728 346 683 387 628 418 566 442 578 453 599 480 606 493 669 466 724 431 772 388 815 426 868 459 930 481 939 464 959 437 972 424 910 406 858 377 815 344 854 297 886 242 907 178L958 178 958 114 715 114C727 85 738 54 747 23L685 9C660 99 619 184 565 246L565 160ZM735 461L735 566 581 566 581 631 713 631C669 717 599 802 529 844 544 857 565 880 575 896 634 855 692 784 735 705L735 930 797 930 797 685C832 764 880 839 928 884 940 867 961 844 976 832 921 791 863 711 828 631L953 631 953 566 797 566 797 461ZM37 456L45 522 182 514 182 930 246 930 246 510 311 506C317 524 321 542 323 557L380 536C370 481 337 395 301 329L249 346C264 376 279 411 292 445L166 451C226 365 294 246 344 150L283 124C260 177 228 241 193 303 180 282 161 258 140 234 174 179 213 100 245 35L184 10C165 63 132 136 102 192L73 164 38 214C82 259 130 319 158 365 138 397 119 428 100 454Z"/>
</svg>