<svg xmlns="http://www.w3.org/2000/svg"
    viewBox="0 0 1000 1000">
  <!--
© 2014-2021 Adobe (http://www.adobe.com/).
Noto is a trademark of Google Inc.
This Font Software is licensed under the SIL Open Font License, Version 1.1. This Font Software is distributed on an "AS IS" BASIS, WITHOUT WARRANTIES OR CONDITIONS OF ANY KIND, either express or implied. See the SIL Open Font License for the specific language, permissions and limitations governing your use of this Font Software.
http://scripts.sil.org/OFL
  -->
<path d="M477 12C444 85 391 161 338 214 352 225 377 250 388 261 442 203 501 114 540 32ZM270 596C296 659 319 741 326 794L384 777C375 724 350 642 324 580ZM78 582C69 669 52 759 21 820 36 826 64 839 77 847 107 783 127 686 140 592ZM650 16C634 157 601 286 536 368 551 377 578 397 589 408 622 363 648 307 668 244 689 267 709 291 721 309L756 252C741 232 713 203 686 178 697 129 706 77 713 23ZM731 394L731 814C695 784 665 732 645 644 652 588 656 529 658 472L593 472C589 624 573 794 504 887 520 897 542 916 552 931 587 884 611 823 626 755 679 891 760 920 861 920L950 920C953 901 962 870 972 854 948 854 880 854 864 854 840 854 818 852 796 847L796 632 944 632 944 565 796 565 796 394ZM833 16C817 154 781 273 707 348 721 358 746 380 754 392 790 353 819 305 841 250 875 300 910 355 930 393L974 345C951 302 906 235 864 180 878 132 888 79 895 23ZM29 452L44 521 177 513 177 930 242 930 242 509 309 505C316 525 322 543 325 558L382 534C377 511 367 482 354 452 366 466 383 489 389 499 405 484 421 466 437 447L437 930 499 930 499 360C524 319 547 276 564 232L503 215C468 301 412 386 350 443 333 406 314 369 294 336L240 356C256 384 272 417 286 449L156 451C219 366 291 249 345 155L282 127C259 177 227 237 193 295 180 277 163 256 144 235 175 179 213 100 243 34L176 11C160 64 131 136 103 192L73 164 37 216C80 257 127 311 156 356 134 391 111 424 90 452Z"/>
</svg>