<svg xmlns="http://www.w3.org/2000/svg"
    viewBox="0 0 1000 1000">
  <!--
© 2014-2021 Adobe (http://www.adobe.com/).
Noto is a trademark of Google Inc.
This Font Software is licensed under the SIL Open Font License, Version 1.1. This Font Software is distributed on an "AS IS" BASIS, WITHOUT WARRANTIES OR CONDITIONS OF ANY KIND, either express or implied. See the SIL Open Font License for the specific language, permissions and limitations governing your use of this Font Software.
http://scripts.sil.org/OFL
  -->
<path d="M503 10C482 41 445 86 409 127 453 170 491 215 512 249L568 226C549 198 515 159 480 126 508 95 538 61 564 27ZM681 10C659 41 620 87 583 127 628 170 668 215 690 249L746 225C726 197 692 159 656 126 684 96 715 61 742 27ZM867 10C842 42 800 89 758 128 809 173 854 219 878 254L935 229C912 201 873 161 834 127 865 97 899 62 929 28ZM296 595C320 653 341 729 346 779L405 760C398 711 377 636 351 579ZM89 582C77 669 59 759 26 820 42 826 71 839 84 848 115 784 139 687 152 592ZM440 260L440 568 642 568 642 627 405 627 405 689 602 689C543 760 452 825 367 858 382 871 403 896 414 912 495 875 580 808 642 733L642 928 712 928 712 722C769 799 850 871 924 911 935 894 956 869 972 856 895 824 811 758 756 689L949 689 949 627 712 627 712 568 919 568 919 260ZM506 439L642 439 642 515 506 515ZM712 439L851 439 851 515 712 515ZM506 313L642 313 642 388 506 388ZM712 313L851 313 851 388 712 388ZM28 452L37 519 195 509 195 930 261 930 261 505 340 500C349 524 357 546 361 565L421 537C406 483 366 396 324 331L269 353C285 379 300 408 314 438L170 445C237 360 314 246 371 154L308 124C280 178 242 244 201 307 186 286 168 264 147 241 184 185 228 103 262 35L196 10C175 66 139 142 107 199L76 171 37 219C82 262 132 319 162 365 140 395 119 424 99 449Z"/>
</svg>