<svg xmlns="http://www.w3.org/2000/svg"
    viewBox="0 0 1000 1000">
  <!--
© 2014-2021 Adobe (http://www.adobe.com/).
Noto is a trademark of Google Inc.
This Font Software is licensed under the SIL Open Font License, Version 1.1. This Font Software is distributed on an "AS IS" BASIS, WITHOUT WARRANTIES OR CONDITIONS OF ANY KIND, either express or implied. See the SIL Open Font License for the specific language, permissions and limitations governing your use of this Font Software.
http://scripts.sil.org/OFL
  -->
<path d="M775 713C820 766 871 841 895 888L953 857C930 810 879 739 831 686ZM485 686C458 750 412 814 361 857 378 866 406 884 419 894 468 847 520 775 550 702ZM524 521L809 521 809 595 524 595ZM524 398L809 398 809 470 524 470ZM286 593C306 645 325 713 332 758L387 740C380 697 360 629 339 578ZM87 582C76 669 59 759 27 820 42 826 71 839 84 847 114 783 136 687 149 592ZM625 8C618 44 608 80 595 115L395 115 395 178 568 178C553 210 534 241 513 271 491 249 462 225 436 207L396 251C422 271 451 297 473 320 440 357 401 390 357 416 344 386 328 356 312 329L260 348C276 377 292 411 305 444L171 451C235 365 307 246 362 151L298 124C273 178 238 244 201 306 187 285 167 262 146 239 183 183 226 102 260 34L194 10C174 65 138 140 106 197L79 172 40 220C85 263 135 323 163 368 143 399 123 428 104 454L36 456 44 522 191 513 191 930 256 930 256 509 328 504C334 524 339 542 342 557L399 534C392 505 379 466 362 426 375 438 392 455 401 465 422 452 442 438 461 423L461 648 632 648 632 853C632 863 629 866 617 866 606 867 568 867 525 865 534 884 544 911 546 930 605 931 644 930 670 919 696 908 702 890 702 854L702 648 876 648 876 428C894 443 913 455 932 466 942 449 963 424 978 411 937 391 898 361 862 325 892 301 925 271 956 240L901 199C883 223 852 256 825 282 800 250 777 214 760 178L951 178 951 115 666 115C678 83 687 51 695 19ZM691 178C716 238 751 295 792 345L539 345C581 295 615 238 641 178Z"/>
</svg>