<svg xmlns="http://www.w3.org/2000/svg" name="gid10304" data-unicode="繦"
    viewBox="0 0 1000 1000">
  <!--
© 2014-2021 Adobe (http://www.adobe.com/).
Noto is a trademark of Google Inc.
This Font Software is licensed under the SIL Open Font License, Version 1.1. This Font Software is distributed on an "AS IS" BASIS, WITHOUT WARRANTIES OR CONDITIONS OF ANY KIND, either express or implied. See the SIL Open Font License for the specific language, permissions and limitations governing your use of this Font Software.
http://scripts.sil.org/OFL
  -->
<path d="M692 134L852 134 852 261 692 261ZM265 629C288 688 310 765 316 816L372 799C365 749 341 672 317 613ZM78 612C69 699 54 789 25 850 40 856 67 868 79 876 107 812 127 716 139 622ZM580 861L597 930 901 901C906 923 911 944 913 962L971 945C961 887 935 797 905 730L851 746C863 775 875 809 885 842L802 847 802 701 930 701 930 422 802 422 802 321 917 321 917 74 630 74 630 321 739 321 739 422 618 422 618 701 740 701 740 851ZM29 482L44 552 173 544 173 960 237 960 237 540 300 536C307 556 313 575 316 591L358 573 354 607 417 612 421 576 516 576C508 789 500 868 483 888 475 898 466 899 452 899 437 899 400 899 359 895 371 913 377 940 378 959 418 961 458 962 480 959 506 957 523 950 540 931 564 900 573 808 583 545 584 535 584 514 584 514L426 514 437 370 517 370 517 399 581 399 581 74 354 74 354 138 517 138 517 307 377 307C375 374 370 458 363 528 346 478 316 414 287 364L232 384C248 413 264 446 278 479L153 481C215 395 285 277 338 182L274 156C252 206 221 266 187 324 175 306 158 286 141 266 172 210 208 130 238 63L172 41C156 94 127 167 100 223L71 194 37 245C78 285 124 340 152 384 131 419 109 453 89 482ZM671 482L745 482 745 640 671 640ZM797 482L874 482 874 640 797 640Z"/>
</svg>