<svg xmlns="http://www.w3.org/2000/svg" name="gid10313" data-unicode="繳"
    viewBox="0 0 1000 1000">
  <!--
© 2014-2021 Adobe (http://www.adobe.com/).
Noto is a trademark of Google Inc.
This Font Software is licensed under the SIL Open Font License, Version 1.1. This Font Software is distributed on an "AS IS" BASIS, WITHOUT WARRANTIES OR CONDITIONS OF ANY KIND, either express or implied. See the SIL Open Font License for the specific language, permissions and limitations governing your use of this Font Software.
http://scripts.sil.org/OFL
  -->
<path d="M425 314L586 314 586 397 425 397ZM425 179L586 179 586 261 425 261ZM255 625C278 686 301 766 308 818L362 800C354 748 331 669 307 609ZM83 613C73 700 57 790 28 851 44 856 71 869 84 876 111 813 131 716 143 624ZM35 488L40 554 174 547 174 960 238 960 238 543 301 539C306 558 310 575 312 590L347 576 347 600 431 600C425 753 405 855 305 914 319 924 338 947 345 961 430 910 468 833 484 727L583 727C574 837 565 882 554 895 548 902 539 904 528 904 516 904 490 903 459 900 468 916 473 940 475 958 507 959 539 959 556 957 579 956 592 951 606 936 626 913 637 852 648 697 649 688 649 670 649 670L491 670 495 600 675 600 675 538 538 538 538 452 640 452 627 474C641 485 667 510 676 522 691 498 704 471 716 442 731 534 750 621 776 699 739 789 689 861 623 908 640 921 663 944 673 960 728 917 773 856 809 783 840 853 878 912 925 957 936 938 960 913 976 901 920 854 876 786 842 702 882 591 907 459 922 315L964 315 964 247 773 247C786 184 796 117 803 49L738 40C723 188 698 330 649 433L649 124 520 124 544 46 471 38C468 62 462 95 455 124L364 124 364 452 472 452 472 538 362 538C351 488 327 424 301 372L249 390C262 418 274 450 284 481L162 484C223 398 292 281 343 185L282 160C259 211 227 273 193 333 179 313 160 291 140 269 173 215 213 134 245 66L183 42C164 97 131 173 101 230L73 203 36 251C80 292 129 348 158 392 137 427 116 459 95 486ZM757 315L862 315C851 422 834 520 808 607 783 523 765 430 752 333Z"/>
</svg>