<svg xmlns="http://www.w3.org/2000/svg"
    viewBox="0 0 1000 1000">
  <!--
© 2014-2021 Adobe (http://www.adobe.com/).
Noto is a trademark of Google Inc.
This Font Software is licensed under the SIL Open Font License, Version 1.1. This Font Software is distributed on an "AS IS" BASIS, WITHOUT WARRANTIES OR CONDITIONS OF ANY KIND, either express or implied. See the SIL Open Font License for the specific language, permissions and limitations governing your use of this Font Software.
http://scripts.sil.org/OFL
  -->
<path d="M286 593C306 645 325 713 332 758L387 740C380 697 360 629 339 578ZM87 582C76 669 59 759 27 820 42 826 71 839 84 847 114 783 136 687 149 592ZM445 279L445 324 596 324 596 279ZM724 279L724 324 874 324 874 279ZM423 375L423 421 594 421 594 375ZM724 375L724 421 896 421 896 375ZM406 613L406 932 468 932 468 670 563 670 563 924 620 924 620 670 713 670 713 924 771 924 771 670 871 670 871 864C871 872 869 875 861 875 853 876 831 876 806 875 813 891 822 915 824 931 866 931 895 930 914 921 934 911 938 895 938 865L938 613 653 613 682 538 960 538 960 479 384 479 384 483C367 434 340 376 312 329L260 348C276 377 292 411 305 444L171 451C235 365 307 246 362 151L298 124C273 178 238 244 201 306 187 285 167 262 146 239 183 183 226 102 260 34L194 10C174 65 138 140 106 197L79 172 40 220C85 263 135 323 163 368 143 399 123 428 104 454L36 456 44 522 191 513 191 930 256 930 256 509 328 504C334 524 339 542 342 557L389 538 607 538C601 563 593 590 585 613ZM377 172L377 317 436 317 436 225 631 225 631 442 691 442 691 225 893 225 893 317 954 317 954 172 691 172 691 113 928 113 928 56 404 56 404 113 631 113 631 172Z"/>
</svg>