<svg xmlns="http://www.w3.org/2000/svg" name="gid10337" data-unicode="纓"
    viewBox="0 0 1000 1000">
  <!--
© 2014-2021 Adobe (http://www.adobe.com/).
Noto is a trademark of Google Inc.
This Font Software is licensed under the SIL Open Font License, Version 1.1. This Font Software is distributed on an "AS IS" BASIS, WITHOUT WARRANTIES OR CONDITIONS OF ANY KIND, either express or implied. See the SIL Open Font License for the specific language, permissions and limitations governing your use of this Font Software.
http://scripts.sil.org/OFL
  -->
<path d="M546 462C564 478 592 505 607 523L651 492C635 473 608 449 584 432ZM736 436C714 468 671 510 634 536 648 544 668 561 678 571 713 546 759 502 789 463ZM825 464C859 495 903 538 926 569L974 537C948 506 905 466 866 434ZM460 221L571 221 571 275 460 275ZM460 319L571 319 571 375 460 375ZM460 123L571 123 571 176 460 176ZM403 73L403 425 631 425 631 73ZM750 221L869 221 869 275 750 275ZM750 319L869 319 869 375 750 375ZM750 123L869 123 869 176 750 176ZM692 73L692 425 930 425 930 73ZM274 619C295 675 314 747 319 795L374 778C368 731 348 660 326 606ZM88 612C77 699 60 789 28 850 43 856 71 868 83 876 113 812 135 716 147 622ZM591 541L543 624 377 624 377 683 508 683C480 729 452 773 428 806L488 828 504 805C543 816 583 828 621 840 553 872 464 891 350 902 363 917 375 942 381 962 518 944 623 915 700 868 780 898 851 930 903 961L954 909C904 881 836 851 760 823 800 786 829 740 848 683L962 683 962 624 620 624 660 559ZM584 683L775 683C756 730 728 768 689 799 640 782 589 767 538 754ZM37 486L45 552 182 544 182 960 246 960 246 540 311 536C317 554 321 572 323 587L380 566 375 543C388 552 405 565 413 573 444 546 486 499 513 460L459 433C441 465 405 507 373 534 358 481 331 413 301 359L249 376C264 406 279 441 292 475L166 481C226 395 294 276 344 180L283 154C260 207 228 271 193 333 180 312 161 288 140 264 174 209 213 130 245 65L184 40C165 93 132 166 102 222L73 194 38 244C82 289 130 349 158 395 138 427 119 458 100 484Z"/>
</svg>