<svg xmlns="http://www.w3.org/2000/svg" name="gid10354" data-unicode="缾"
    viewBox="0 0 1000 1000">
  <!--
© 2014-2021 Adobe (http://www.adobe.com/).
Noto is a trademark of Google Inc.
This Font Software is licensed under the SIL Open Font License, Version 1.1. This Font Software is distributed on an "AS IS" BASIS, WITHOUT WARRANTIES OR CONDITIONS OF ANY KIND, either express or implied. See the SIL Open Font License for the specific language, permissions and limitations governing your use of this Font Software.
http://scripts.sil.org/OFL
  -->
<path d="M120 38C106 148 79 261 39 336 57 345 90 363 104 373 123 335 140 286 154 233L220 233 220 383 40 383 40 452 220 452 220 748 138 748 138 519 75 519 75 902 138 902 138 816 374 816 374 867 437 867 437 519 374 519 374 748 290 748 290 452 468 452 468 383 290 383 290 233 445 233 445 164 172 164C180 127 187 89 193 52ZM785 320L785 515 644 515 644 320ZM851 40C834 97 800 180 772 231L828 251 608 251 662 227C650 177 615 100 580 41L519 65C553 123 585 201 598 251L478 251 478 320 574 320 574 515 469 515 469 584 573 584C569 705 545 821 425 914 441 925 468 948 480 963 612 860 639 724 643 584L785 584 785 960 856 960 856 584 965 584 965 515 856 515 856 320 946 320 946 251 832 251C859 203 894 128 924 63Z"/>
</svg>