<svg xmlns="http://www.w3.org/2000/svg" name="gid10356" data-unicode="罃"
    viewBox="0 0 1000 1000">
  <!--
© 2014-2021 Adobe (http://www.adobe.com/).
Noto is a trademark of Google Inc.
This Font Software is licensed under the SIL Open Font License, Version 1.1. This Font Software is distributed on an "AS IS" BASIS, WITHOUT WARRANTIES OR CONDITIONS OF ANY KIND, either express or implied. See the SIL Open Font License for the specific language, permissions and limitations governing your use of this Font Software.
http://scripts.sil.org/OFL
  -->
<path d="M426 88C409 118 377 163 353 192L398 212C424 187 458 149 487 112ZM149 85C135 127 106 172 66 196L115 227C158 198 184 150 200 103ZM866 86C848 117 812 164 785 194L832 215C861 189 898 149 931 111ZM569 86C554 127 524 172 485 197L534 228C576 198 602 151 620 105ZM262 40C254 195 220 268 46 308 59 320 78 346 84 362L84 519 156 519 156 422 847 422 847 519 922 519 922 361 88 361C179 337 235 303 271 254 322 286 378 324 409 350L456 302C420 275 353 233 300 202 317 158 325 105 329 40ZM685 40C676 187 642 258 474 297 488 310 506 336 512 353 602 330 658 297 694 250 761 284 838 329 880 359L925 306C879 274 794 229 724 197 742 154 750 102 754 40ZM271 430C248 487 205 557 142 610 159 618 182 635 196 648L63 648 63 706 460 706 460 857 239 857 239 729 167 729 167 960 239 960 239 918 762 918 762 960 835 960 835 729 762 729 762 857 534 857 534 706 939 706 939 648 534 648 534 561 829 561 829 504 310 504C321 483 332 462 341 441ZM460 648L202 648C230 621 254 591 275 561L460 561Z"/>
</svg>