<svg xmlns="http://www.w3.org/2000/svg" name="gid10357" data-unicode="罄"
    viewBox="0 0 1000 1000">
  <!--
© 2014-2021 Adobe (http://www.adobe.com/).
Noto is a trademark of Google Inc.
This Font Software is licensed under the SIL Open Font License, Version 1.1. This Font Software is distributed on an "AS IS" BASIS, WITHOUT WARRANTIES OR CONDITIONS OF ANY KIND, either express or implied. See the SIL Open Font License for the specific language, permissions and limitations governing your use of this Font Software.
http://scripts.sil.org/OFL
  -->
<path d="M564 72L564 140C564 178 552 216 479 248 492 256 515 276 524 288L515 288 515 339 592 339 551 352C573 391 603 425 640 455 589 475 533 489 476 498 487 511 501 535 507 549 573 536 636 518 692 491 755 528 832 555 917 569 926 551 944 526 958 512 881 503 812 484 753 457 811 418 858 368 886 301L848 285 836 288 530 288C607 250 624 193 624 142L624 127 759 127 759 191C759 247 775 262 829 262 840 262 879 262 890 262 932 262 948 243 953 176 936 172 912 164 901 154 898 204 895 210 881 210 873 210 845 210 839 210 825 210 823 208 823 190L823 72ZM799 339C773 374 739 403 698 426 660 402 629 372 608 339ZM250 40L250 98 63 98 63 149 250 149 250 197 91 197 91 247 470 247 470 197 316 197 316 149 500 149 500 98 316 98 316 40ZM264 482C240 539 189 609 137 654 152 663 176 680 190 692 214 671 237 645 259 617L461 617 461 692 55 692 55 751 461 751 461 870 233 870 233 780 162 780 162 962 233 962 233 927 771 927 771 962 844 962 844 779 771 779 771 870 534 870 534 751 947 751 947 692 534 692 534 617 835 617 835 560 299 560C312 540 323 519 333 500ZM257 332L257 403 161 403 162 375 162 332ZM310 332L407 332 407 403 310 403ZM103 286L103 373C103 429 93 498 33 553 46 560 71 581 80 594 125 553 146 501 155 450L469 450 469 286Z"/>
</svg>