<svg xmlns="http://www.w3.org/2000/svg"
    viewBox="0 0 1000 1000">
  <!--
© 2014-2021 Adobe (http://www.adobe.com/).
Noto is a trademark of Google Inc.
This Font Software is licensed under the SIL Open Font License, Version 1.1. This Font Software is distributed on an "AS IS" BASIS, WITHOUT WARRANTIES OR CONDITIONS OF ANY KIND, either express or implied. See the SIL Open Font License for the specific language, permissions and limitations governing your use of this Font Software.
http://scripts.sil.org/OFL
  -->
<path d="M564 42L564 110C564 148 552 186 479 218 492 226 515 246 524 258L515 258 515 309 592 309 551 322C573 361 603 395 640 425 589 445 533 459 476 468 487 481 501 505 507 519 573 506 636 488 692 461 755 498 832 525 917 539 926 521 944 496 958 482 881 473 812 454 753 427 811 388 858 338 886 271L848 255 836 258 530 258C607 220 624 163 624 112L624 97 759 97 759 161C759 217 775 232 829 232 840 232 879 232 890 232 932 232 948 213 953 146 936 142 912 134 901 124 898 174 895 180 881 180 873 180 845 180 839 180 825 180 823 178 823 160L823 42ZM799 309C773 344 739 373 698 396 660 372 629 342 608 309ZM250 10L250 68 63 68 63 119 250 119 250 167 91 167 91 217 470 217 470 167 316 167 316 119 500 119 500 68 316 68 316 10ZM264 452C240 509 189 579 137 624 152 633 176 650 190 662 214 641 237 615 259 587L461 587 461 662 55 662 55 721 461 721 461 840 233 840 233 750 162 750 162 932 233 932 233 897 771 897 771 932 844 932 844 749 771 749 771 840 534 840 534 721 947 721 947 662 534 662 534 587 835 587 835 530 299 530C312 510 323 489 333 470ZM257 302L257 373 161 373 162 345 162 302ZM310 302L407 302 407 373 310 373ZM103 256L103 343C103 399 93 468 33 523 46 530 71 551 80 564 125 523 146 471 155 420L469 420 469 256Z"/>
</svg>