<svg xmlns="http://www.w3.org/2000/svg" name="gid10363" data-unicode="罏"
    viewBox="0 0 1000 1000">
  <!--
© 2014-2021 Adobe (http://www.adobe.com/).
Noto is a trademark of Google Inc.
This Font Software is licensed under the SIL Open Font License, Version 1.1. This Font Software is distributed on an "AS IS" BASIS, WITHOUT WARRANTIES OR CONDITIONS OF ANY KIND, either express or implied. See the SIL Open Font License for the specific language, permissions and limitations governing your use of this Font Software.
http://scripts.sil.org/OFL
  -->
<path d="M547 463L547 684 896 684 896 463ZM519 325L524 368 625 358 625 372C625 427 645 438 721 438 736 438 844 438 860 438 910 438 928 424 933 367 917 365 896 358 883 351 880 389 875 395 852 395 829 395 743 395 726 395 692 395 685 392 685 372L685 353 828 339 824 297 685 310 685 257 880 257C874 282 867 306 861 324L913 339C927 307 942 257 953 215L911 202 900 205 691 205 691 151 901 151 901 100 691 100 691 39 624 39 624 205 434 205 434 512C434 639 427 808 352 928 367 934 396 951 407 961 485 837 498 648 498 512L498 257 625 257 625 315ZM528 721L528 875 467 875 467 930 963 930 963 875 919 875 919 721ZM580 875L580 770 643 770 643 875ZM689 875L689 770 753 770 753 875ZM798 875L798 770 864 770 864 875ZM602 593L692 593 692 642 602 642ZM746 593L840 593 840 642 746 642ZM602 506L692 506 692 552 602 552ZM746 506L840 506 840 552 746 552ZM115 38C102 147 78 259 41 335 58 343 87 358 100 368 118 329 134 279 148 225L200 225 200 387 40 387 40 452 200 452 200 752 129 752 129 518 74 518 74 898 129 898 129 816 331 816 331 856 387 856 387 518 331 518 331 752 262 752 262 452 407 452 407 387 262 387 262 225 386 225 386 161 163 161C170 125 177 87 182 50Z"/>
</svg>