<svg xmlns="http://www.w3.org/2000/svg"
    viewBox="0 0 1000 1000">
  <!--
© 2014-2021 Adobe (http://www.adobe.com/).
Noto is a trademark of Google Inc.
This Font Software is licensed under the SIL Open Font License, Version 1.1. This Font Software is distributed on an "AS IS" BASIS, WITHOUT WARRANTIES OR CONDITIONS OF ANY KIND, either express or implied. See the SIL Open Font License for the specific language, permissions and limitations governing your use of this Font Software.
http://scripts.sil.org/OFL
  -->
<path d="M649 106L816 106 816 203 649 203ZM417 106L580 106 580 203 417 203ZM189 106L348 106 348 203 189 203ZM54 324L54 386 274 386C208 461 124 522 30 564 46 577 72 606 82 621 123 600 163 576 201 548L201 855 271 855 271 796 462 796 462 825C462 905 493 924 599 924 622 924 797 924 822 924 910 924 931 895 939 791 921 787 894 778 878 767 873 853 864 870 817 870 780 870 632 870 603 870 544 870 534 862 534 825L534 796 807 796 807 550C843 576 881 598 919 614 930 596 952 570 968 556 876 524 786 459 728 386L946 386 946 324 407 324C419 303 431 281 441 259L890 259 890 50 118 50 118 259 360 259C349 281 336 303 322 324ZM462 414L462 480 282 480C312 451 340 420 365 386L652 386C673 419 698 451 727 480L534 480 534 414ZM735 661L735 742 534 742 534 661ZM735 610L534 610 534 534 735 534ZM462 661L462 742 271 742 271 661ZM462 610L271 610 271 534 462 534Z"/>
</svg>