<svg xmlns="http://www.w3.org/2000/svg"
    viewBox="0 0 1000 1000">
  <!--
© 2014-2021 Adobe (http://www.adobe.com/).
Noto is a trademark of Google Inc.
This Font Software is licensed under the SIL Open Font License, Version 1.1. This Font Software is distributed on an "AS IS" BASIS, WITHOUT WARRANTIES OR CONDITIONS OF ANY KIND, either express or implied. See the SIL Open Font License for the specific language, permissions and limitations governing your use of this Font Software.
http://scripts.sil.org/OFL
  -->
<path d="M645 110L817 110 817 210 645 210ZM408 110L576 110 576 210 408 210ZM177 110L339 110 339 210 177 210ZM105 50L105 269 892 269 892 50ZM652 298L652 927 727 927 727 581C805 626 885 680 928 721L969 654C917 607 814 544 727 499L727 298ZM281 578L281 651 83 651 83 712 281 712 281 819 52 839 59 906C196 892 397 871 589 850L589 789 355 812 355 712 550 712 550 651 355 651 355 578ZM281 290L281 357 95 357 95 416 281 416 281 497 55 497 55 558 572 558 572 497 355 497 355 416 541 416 541 357 355 357 355 290Z"/>
</svg>