<svg xmlns="http://www.w3.org/2000/svg"
    viewBox="0 0 1000 1000">
  <!--
© 2014-2021 Adobe (http://www.adobe.com/).
Noto is a trademark of Google Inc.
This Font Software is licensed under the SIL Open Font License, Version 1.1. This Font Software is distributed on an "AS IS" BASIS, WITHOUT WARRANTIES OR CONDITIONS OF ANY KIND, either express or implied. See the SIL Open Font License for the specific language, permissions and limitations governing your use of this Font Software.
http://scripts.sil.org/OFL
  -->
<path d="M654 106L833 106 833 206 654 206ZM409 106L585 106 585 206 409 206ZM170 106L339 106 339 206 170 206ZM98 49L98 263 908 263 908 49ZM387 579L387 636 179 636 179 579ZM114 523L114 930 179 930 179 794 387 794 387 864C387 875 383 879 372 879 360 879 320 879 277 878 286 894 294 916 298 931 359 932 398 931 423 922 447 913 454 897 454 865L454 523ZM179 686L387 686 387 744 179 744ZM833 298C782 325 695 353 611 373L611 282 542 282 542 475C542 547 566 566 660 566 680 566 813 566 834 566 908 566 929 541 937 438 918 433 890 424 874 413 871 493 864 505 827 505 799 505 687 505 666 505 620 505 611 500 611 475L611 430C707 410 814 380 889 344ZM841 621C788 650 699 678 612 700L612 591 542 591 542 820C542 895 567 914 661 914 682 914 817 914 838 914 914 914 934 887 942 781 923 777 895 767 880 756 876 839 869 851 832 851 803 851 689 851 668 851 620 851 612 846 612 819L612 757C711 736 821 706 898 670ZM53 407L55 470C159 468 302 464 444 459 456 475 467 490 474 503L529 471C501 424 440 359 385 314L333 343C354 360 375 380 395 401L216 405C242 368 270 324 294 284L223 264C205 305 174 362 145 406Z"/>
</svg>