<svg xmlns="http://www.w3.org/2000/svg" name="gid10395" data-unicode="罽"
    viewBox="0 0 1000 1000">
  <!--
© 2014-2021 Adobe (http://www.adobe.com/).
Noto is a trademark of Google Inc.
This Font Software is licensed under the SIL Open Font License, Version 1.1. This Font Software is distributed on an "AS IS" BASIS, WITHOUT WARRANTIES OR CONDITIONS OF ANY KIND, either express or implied. See the SIL Open Font License for the specific language, permissions and limitations governing your use of this Font Software.
http://scripts.sil.org/OFL
  -->
<path d="M648 136L816 136 816 225 648 225ZM413 136L578 136 578 225 413 225ZM184 136L344 136 344 225 184 225ZM112 79L112 282 891 282 891 79ZM264 435C257 481 232 527 198 550L245 575C285 548 308 493 315 446ZM537 432C520 465 488 515 464 546L506 566C532 538 564 496 593 456ZM257 689C250 736 224 783 189 806L235 831C277 803 302 749 308 701ZM541 689C522 723 488 775 462 806L506 827C534 799 567 754 598 713ZM648 460L648 807 712 807 712 460ZM822 419L822 883C822 895 818 898 805 899 793 899 750 900 705 898 714 916 723 943 726 961 790 961 830 960 855 950 881 939 888 921 888 884L888 419ZM105 341L105 574C105 679 97 819 28 920 44 928 74 948 86 960 161 852 173 690 173 574L173 400 936 400 936 341ZM373 410C367 546 337 609 198 645 210 655 226 677 232 692 319 667 369 631 397 577 446 609 498 648 527 677L568 635C536 602 471 557 416 526 425 493 430 454 432 410ZM373 654C365 809 331 876 160 913 173 925 189 947 194 961 300 935 360 897 393 837 454 874 521 923 556 958L598 912C559 874 480 821 415 784 426 748 431 705 434 654Z"/>
</svg>