<svg xmlns="http://www.w3.org/2000/svg"
    viewBox="0 0 1000 1000">
  <!--
© 2014-2021 Adobe (http://www.adobe.com/).
Noto is a trademark of Google Inc.
This Font Software is licensed under the SIL Open Font License, Version 1.1. This Font Software is distributed on an "AS IS" BASIS, WITHOUT WARRANTIES OR CONDITIONS OF ANY KIND, either express or implied. See the SIL Open Font License for the specific language, permissions and limitations governing your use of this Font Software.
http://scripts.sil.org/OFL
  -->
<path d="M647 98L814 98 814 159 647 159ZM413 98L578 98 578 159 413 159ZM186 98L344 98 344 159 186 159ZM115 47L115 210 888 210 888 47ZM233 487L762 487 762 529 233 529ZM233 405L762 405 762 446 233 446ZM53 614L53 667 239 667C185 704 117 737 35 763 50 774 69 797 77 813 125 796 169 776 208 755L208 902 275 902 275 767 461 767 461 929 533 929 533 767 730 767 730 835C730 845 727 848 715 849 704 850 665 850 620 848 628 863 638 883 641 899 703 899 743 899 767 891 792 882 798 867 798 836L798 754C839 774 882 791 921 803 931 787 951 763 965 751 894 734 812 703 751 667L947 667 947 614 392 614C404 600 415 586 425 572L834 572 834 362 163 362 163 572 344 572C333 586 320 600 305 614ZM627 223L627 259 374 259 374 223 304 223 304 259 61 259 61 314 304 314 304 350 374 350 374 314 627 314 627 350 698 350 698 314 931 314 931 259 698 259 698 223ZM461 667L461 716 274 716C297 700 318 684 338 667ZM533 667L659 667C679 684 703 700 728 716L533 716Z"/>
</svg>