<svg xmlns="http://www.w3.org/2000/svg"
    viewBox="0 0 1000 1000">
  <!--
© 2014-2021 Adobe (http://www.adobe.com/).
Noto is a trademark of Google Inc.
This Font Software is licensed under the SIL Open Font License, Version 1.1. This Font Software is distributed on an "AS IS" BASIS, WITHOUT WARRANTIES OR CONDITIONS OF ANY KIND, either express or implied. See the SIL Open Font License for the specific language, permissions and limitations governing your use of this Font Software.
http://scripts.sil.org/OFL
  -->
<path d="M82 885L137 932C189 869 249 789 297 718L250 673C195 751 128 835 82 885ZM42 598C103 612 175 641 212 668L248 613C210 586 135 560 76 549ZM122 472C181 490 252 523 287 552L326 498C289 471 217 440 159 425ZM678 9C664 37 639 78 617 107L385 107C371 78 343 39 314 10L250 34C268 55 288 82 302 107L102 107 102 166 460 166 460 230 152 230 152 286 460 286 460 353 67 353 67 412 459 412C429 505 374 592 310 651 327 661 358 681 371 693 405 660 438 617 466 569L581 569 581 614C581 660 545 809 284 872 298 887 318 914 326 930 528 878 603 761 620 701 638 762 713 879 916 930 925 915 945 885 957 869 694 807 658 659 658 614L658 569 825 569C808 613 787 658 770 688L833 703C860 657 891 582 918 517L866 505 854 507 498 507C510 481 521 455 530 428L463 412 935 412 935 353 537 353 537 286 851 286 851 230 537 230 537 166 900 166 900 107 699 107C718 84 739 57 758 29Z"/>
</svg>