<svg xmlns="http://www.w3.org/2000/svg" name="gid10425" data-unicode="羨"
    viewBox="0 0 1000 1000">
  <!--
© 2014-2021 Adobe (http://www.adobe.com/).
Noto is a trademark of Google Inc.
This Font Software is licensed under the SIL Open Font License, Version 1.1. This Font Software is distributed on an "AS IS" BASIS, WITHOUT WARRANTIES OR CONDITIONS OF ANY KIND, either express or implied. See the SIL Open Font License for the specific language, permissions and limitations governing your use of this Font Software.
http://scripts.sil.org/OFL
  -->
<path d="M82 915L137 962C189 899 249 819 297 748L250 703C195 781 128 865 82 915ZM42 628C103 642 175 671 212 698L248 643C210 616 135 590 76 579ZM122 502C181 520 252 553 287 582L326 528C289 501 217 470 159 455ZM678 39C664 67 639 108 617 137L385 137C371 108 343 69 314 40L250 64C268 85 288 112 302 137L102 137 102 196 460 196 460 260 152 260 152 316 460 316 460 383 67 383 67 442 459 442C429 535 374 622 310 681 327 691 358 711 371 723 405 690 438 647 466 599L581 599 581 644C581 690 545 839 284 902 298 917 318 944 326 960 528 908 603 791 620 731 638 792 713 909 916 960 925 945 945 915 957 899 694 837 658 689 658 644L658 599 825 599C808 643 787 688 770 718L833 733C860 687 891 612 918 547L866 535 854 537 498 537C510 511 521 485 530 458L463 442 935 442 935 383 537 383 537 316 851 316 851 260 537 260 537 196 900 196 900 137 699 137C718 114 739 87 758 59Z"/>
</svg>