<svg xmlns="http://www.w3.org/2000/svg"
    viewBox="0 0 1000 1000">
  <!--
© 2014-2021 Adobe (http://www.adobe.com/).
Noto is a trademark of Google Inc.
This Font Software is licensed under the SIL Open Font License, Version 1.1. This Font Software is distributed on an "AS IS" BASIS, WITHOUT WARRANTIES OR CONDITIONS OF ANY KIND, either express or implied. See the SIL Open Font License for the specific language, permissions and limitations governing your use of this Font Software.
http://scripts.sil.org/OFL
  -->
<path d="M678 9C664 37 637 78 615 107L385 107C372 79 344 39 314 10L250 34C269 55 288 83 302 107L99 107 99 161 460 161 460 218 147 218 147 269 460 269 460 327 53 327 53 384 947 384 947 327 536 327 536 269 851 269 851 218 536 218 536 161 903 161 903 107 697 107C717 84 739 57 758 29ZM699 437C743 453 796 481 831 506L634 506C629 472 626 436 624 399L551 399C553 436 556 472 561 506L328 506 328 457C388 451 445 444 489 434L448 396C365 414 207 425 77 428 84 439 90 457 92 469 146 468 205 466 262 462L262 506 55 506 55 561 208 561C163 603 94 643 33 663 47 675 65 695 75 709 93 702 111 692 130 681L130 717 183 717C170 757 154 799 139 832L196 843 213 801 382 801C375 848 368 870 358 879 352 884 345 885 330 885 316 885 277 885 237 880 244 894 250 913 251 926 293 929 334 929 354 928 377 927 393 923 407 912 426 895 435 860 445 782 446 774 448 758 448 758L230 758 244 717 461 717 461 671 146 671C190 643 232 607 262 572L262 654 328 654 328 594C390 618 458 651 498 675L536 634C499 613 435 584 377 561L570 561C586 639 610 708 640 766 584 805 523 839 461 865 475 880 497 911 505 926 563 898 622 864 676 824 725 891 785 930 853 930 917 930 943 898 956 780 937 774 912 762 896 748 892 830 884 860 857 860 813 861 770 831 733 778 791 728 842 671 881 608L815 585C785 634 745 680 698 720 676 675 657 621 644 561L945 561 945 506 852 506 883 468C849 444 787 411 737 394Z"/>
</svg>