<svg xmlns="http://www.w3.org/2000/svg"
    viewBox="0 0 1000 1000">
  <!--
© 2014-2021 Adobe (http://www.adobe.com/).
Noto is a trademark of Google Inc.
This Font Software is licensed under the SIL Open Font License, Version 1.1. This Font Software is distributed on an "AS IS" BASIS, WITHOUT WARRANTIES OR CONDITIONS OF ANY KIND, either express or implied. See the SIL Open Font License for the specific language, permissions and limitations governing your use of this Font Software.
http://scripts.sil.org/OFL
  -->
<path d="M655 508L655 604 372 604 372 508 300 508 300 604 57 604 57 675 296 675C282 748 232 821 62 872 78 886 100 913 109 930 306 868 358 772 369 675L655 675 655 929 730 929 730 675 943 675 943 604 730 604 730 508ZM79 62L79 125 245 125C197 172 124 221 60 254 74 265 98 288 108 300 177 259 259 197 314 139L275 125 382 125 382 238 350 226C282 310 169 393 67 446 81 458 106 484 117 497 205 445 306 368 382 285L382 490 454 490 454 62ZM516 62L516 125 666 125C618 174 548 222 484 256 498 266 522 290 533 301 600 261 681 197 736 137L703 125 820 125 820 229 785 215C715 298 598 379 493 430 508 443 533 469 542 482 635 430 742 353 820 271L820 488 892 488 892 62Z"/>
</svg>