<svg xmlns="http://www.w3.org/2000/svg" name="gid10441" data-unicode="翃"
    viewBox="0 0 1000 1000">
  <!--
© 2014-2021 Adobe (http://www.adobe.com/).
Noto is a trademark of Google Inc.
This Font Software is licensed under the SIL Open Font License, Version 1.1. This Font Software is distributed on an "AS IS" BASIS, WITHOUT WARRANTIES OR CONDITIONS OF ANY KIND, either express or implied. See the SIL Open Font License for the specific language, permissions and limitations governing your use of this Font Software.
http://scripts.sil.org/OFL
  -->
<path d="M194 43L184 192 51 192 51 263 177 263C156 475 116 704 26 857 40 869 63 892 73 906 174 736 219 491 244 263L480 263 480 192 251 192 263 48ZM592 480C560 556 500 651 441 714 432 679 421 644 409 612L351 633C367 683 383 741 396 797L265 821C302 699 342 521 369 383L302 369C282 509 241 709 203 832L148 841 163 907 409 857C413 881 417 903 419 923L480 900C474 850 460 783 442 718 456 728 475 747 484 759 529 710 575 645 613 580L613 875C613 889 609 893 597 893 584 894 542 894 498 893 508 911 517 943 519 962 580 962 621 960 646 949 671 937 679 915 679 876L679 89 466 89 466 157 613 157 613 228 581 218C553 282 500 363 449 417 462 426 483 447 494 459 535 415 578 355 613 296L613 487ZM834 468C803 542 742 637 686 700 699 711 719 731 730 744 775 693 822 625 861 558L861 873C861 887 857 891 844 892 830 892 785 893 738 891 747 910 757 943 760 962 824 962 867 960 893 948 919 937 928 914 928 873L928 89 701 89 701 157 861 157 861 222 823 210C795 273 741 353 691 406 703 416 724 436 735 449 779 403 825 339 861 278L861 477Z"/>
</svg>