<svg xmlns="http://www.w3.org/2000/svg" name="gid10451" data-unicode="翕"
    viewBox="0 0 1000 1000">
  <!--
© 2014-2021 Adobe (http://www.adobe.com/).
Noto is a trademark of Google Inc.
This Font Software is licensed under the SIL Open Font License, Version 1.1. This Font Software is distributed on an "AS IS" BASIS, WITHOUT WARRANTIES OR CONDITIONS OF ANY KIND, either express or implied. See the SIL Open Font License for the specific language, permissions and limitations governing your use of this Font Software.
http://scripts.sil.org/OFL
  -->
<path d="M274 365L726 365 726 448 274 448ZM204 312L204 502 799 502 799 312ZM330 213L330 258 671 258 671 207C755 249 847 284 929 305 939 286 956 258 971 241 818 208 645 137 531 41L461 41C374 127 207 213 34 259 48 276 63 303 71 320 162 293 252 255 330 213ZM500 99C545 136 603 173 667 205L345 205C407 171 461 134 500 99ZM332 698C269 776 161 848 61 894 75 906 98 931 108 944 205 893 314 815 385 731L385 886C385 897 382 901 368 902 354 903 311 903 261 901 269 919 279 944 282 962 348 962 393 961 420 951 448 941 455 923 455 886L455 555 88 555 88 615 244 615C198 653 131 691 73 717 86 728 109 751 119 763 183 728 263 674 316 625L288 615 385 615 385 718ZM778 692C712 772 599 845 493 891 507 903 531 929 541 941 640 891 752 815 827 730L827 886C827 897 823 901 809 902 795 903 750 903 699 901 709 919 718 944 721 962 788 962 833 961 861 951 889 941 896 923 896 886L896 555 518 555 518 615 675 615C627 654 560 692 500 720 514 730 537 755 547 766 614 731 695 674 749 623L727 615 827 615 827 710Z"/>
</svg>