<svg xmlns="http://www.w3.org/2000/svg"
    viewBox="0 0 1000 1000">
  <!--
© 2014-2021 Adobe (http://www.adobe.com/).
Noto is a trademark of Google Inc.
This Font Software is licensed under the SIL Open Font License, Version 1.1. This Font Software is distributed on an "AS IS" BASIS, WITHOUT WARRANTIES OR CONDITIONS OF ANY KIND, either express or implied. See the SIL Open Font License for the specific language, permissions and limitations governing your use of this Font Software.
http://scripts.sil.org/OFL
  -->
<path d="M487 644L487 714 268 714 268 644ZM285 361C229 456 135 549 44 609 60 622 87 650 98 665 130 641 164 613 196 582L196 929 268 929 268 894 921 894 921 839 558 839 558 766 838 766 838 714 558 714 558 644 838 644 838 592 558 592 558 524 875 524 875 468 567 468C583 445 600 419 615 394L575 385C659 340 756 274 819 211L761 186C698 246 595 307 507 346 515 354 527 368 536 380 525 406 508 439 491 468L298 468C319 441 338 414 355 386ZM487 592L268 592 268 524 487 524ZM487 766L487 839 268 839 268 766ZM330 205C267 267 164 328 76 367 89 380 111 408 120 421 208 374 316 302 387 232L387 398 458 398 458 53 90 53 90 112 257 112C207 150 131 189 66 216 79 228 99 254 108 267 178 233 264 179 320 130L275 112 387 112 387 229ZM524 53L524 112 658 112C612 149 541 186 481 210 493 222 514 249 523 261 589 228 673 175 727 127L691 112 824 112 824 398 896 398 896 53Z"/>
</svg>