<svg xmlns="http://www.w3.org/2000/svg" name="gid10453" data-unicode="翟"
    viewBox="0 0 1000 1000">
  <!--
© 2014-2021 Adobe (http://www.adobe.com/).
Noto is a trademark of Google Inc.
This Font Software is licensed under the SIL Open Font License, Version 1.1. This Font Software is distributed on an "AS IS" BASIS, WITHOUT WARRANTIES OR CONDITIONS OF ANY KIND, either express or implied. See the SIL Open Font License for the specific language, permissions and limitations governing your use of this Font Software.
http://scripts.sil.org/OFL
  -->
<path d="M487 674L487 744 268 744 268 674ZM285 391C229 486 135 579 44 639 60 652 87 680 98 695 130 671 164 643 196 612L196 959 268 959 268 924 921 924 921 869 558 869 558 796 838 796 838 744 558 744 558 674 838 674 838 622 558 622 558 554 875 554 875 498 567 498C583 475 600 449 615 424L575 415C659 370 756 304 819 241L761 216C698 276 595 337 507 376 515 384 527 398 536 410 525 436 508 469 491 498L298 498C319 471 338 444 355 416ZM487 622L268 622 268 554 487 554ZM487 796L487 869 268 869 268 796ZM330 235C267 297 164 358 76 397 89 410 111 438 120 451 208 404 316 332 387 262L387 428 458 428 458 83 90 83 90 142 257 142C207 180 131 219 66 246 79 258 99 284 108 297 178 263 264 209 320 160L275 142 387 142 387 259ZM524 83L524 142 658 142C612 179 541 216 481 240 493 252 514 279 523 291 589 258 673 205 727 157L691 142 824 142 824 428 896 428 896 83Z"/>
</svg>