<svg xmlns="http://www.w3.org/2000/svg"
    viewBox="0 0 1000 1000">
  <!--
© 2014-2021 Adobe (http://www.adobe.com/).
Noto is a trademark of Google Inc.
This Font Software is licensed under the SIL Open Font License, Version 1.1. This Font Software is distributed on an "AS IS" BASIS, WITHOUT WARRANTIES OR CONDITIONS OF ANY KIND, either express or implied. See the SIL Open Font License for the specific language, permissions and limitations governing your use of this Font Software.
http://scripts.sil.org/OFL
  -->
<path d="M356 170C295 225 183 270 87 299 99 310 118 334 126 345 216 314 321 264 391 206L391 314 462 314 462 48 97 48 97 105 253 105C207 130 142 154 85 171 97 182 115 205 122 216 188 193 270 151 320 114L296 105 391 105 391 183ZM780 169C722 220 617 263 525 290 537 300 557 323 566 334 653 304 759 253 824 198L824 315 896 315 896 48 530 48 530 105 670 105C626 131 561 154 506 171 518 182 535 205 543 216 608 192 689 150 739 113L718 105 824 105 824 185ZM268 430C287 452 304 482 314 506L68 506 68 562 370 562 321 625 54 625 54 682 275 682C242 722 209 759 181 789L249 808 270 785C333 795 399 807 465 821 377 849 255 866 85 875 93 889 104 914 106 930 321 917 467 891 568 844 686 872 795 903 872 930L926 882C850 857 748 829 638 803 683 770 716 730 740 682L947 682 947 625 405 625 455 562 931 562 931 506 672 506C688 486 706 461 724 432L681 423 880 423 880 367 534 367 534 315 460 315 460 367 119 367 119 423 299 423ZM341 423L650 423C638 446 617 478 601 501L626 506 362 506 386 500C378 478 359 446 341 423ZM358 682L659 682C636 723 603 757 554 784 471 766 387 750 311 737Z"/>
</svg>