<svg xmlns="http://www.w3.org/2000/svg"
    viewBox="0 0 1000 1000">
  <!--
© 2014-2021 Adobe (http://www.adobe.com/).
Noto is a trademark of Google Inc.
This Font Software is licensed under the SIL Open Font License, Version 1.1. This Font Software is distributed on an "AS IS" BASIS, WITHOUT WARRANTIES OR CONDITIONS OF ANY KIND, either express or implied. See the SIL Open Font License for the specific language, permissions and limitations governing your use of this Font Software.
http://scripts.sil.org/OFL
  -->
<path d="M510 235C537 298 565 384 576 435L629 416C618 367 588 283 560 220ZM734 232C761 295 789 379 799 429L853 413C842 364 812 281 784 220ZM402 113C390 152 366 211 346 250L313 250 313 97C375 89 433 80 479 69L438 17C348 39 187 57 55 65 63 79 70 102 73 117 128 115 189 110 249 104L249 250 49 250 49 309 223 309C176 376 99 446 36 484 47 501 62 530 68 549L84 538 84 929 143 929 143 872 409 872 409 917 470 917 470 530 94 530C148 488 205 426 249 365L249 512 313 512 313 363C364 404 433 464 460 493L498 434C473 413 372 341 323 309L483 309 483 250 405 250C423 216 443 172 460 132ZM100 140C115 175 132 222 140 250L193 233C185 206 167 161 151 127ZM253 725L253 812 143 812 143 725ZM308 725L409 725 409 812 308 812ZM253 671L143 671 143 589 253 589ZM308 671L308 589 409 589 409 671ZM493 651L528 703C565 664 606 618 647 572L647 844C647 857 643 860 632 860 620 861 584 861 546 860 556 878 564 908 566 925 620 925 656 924 679 913 701 901 709 881 709 844L709 57 512 57 512 121 647 121 647 486C589 551 531 612 493 651ZM722 640L758 692C792 656 830 614 867 572L867 842C867 856 863 860 851 860 840 860 802 861 762 859 772 877 782 909 785 927 839 927 877 925 900 914 924 902 932 881 932 843L932 58 733 58 733 122 867 122 867 487C813 546 759 604 722 640Z"/>
</svg>