<svg xmlns="http://www.w3.org/2000/svg"
    viewBox="0 0 1000 1000">
  <!--
© 2014-2021 Adobe (http://www.adobe.com/).
Noto is a trademark of Google Inc.
This Font Software is licensed under the SIL Open Font License, Version 1.1. This Font Software is distributed on an "AS IS" BASIS, WITHOUT WARRANTIES OR CONDITIONS OF ANY KIND, either express or implied. See the SIL Open Font License for the specific language, permissions and limitations governing your use of this Font Software.
http://scripts.sil.org/OFL
  -->
<path d="M50 781L57 833 431 795 431 824C431 901 463 919 577 919 601 919 798 919 823 919 912 919 934 894 943 799 923 795 897 786 881 776 876 850 867 862 818 862 777 862 610 862 579 862 513 862 501 855 501 823L501 788 940 744 933 693 501 736 501 678 847 643 839 592 501 625 501 563C601 549 694 533 769 515L715 472C583 507 337 536 127 553 133 564 140 586 142 599 236 592 335 583 431 571L431 632 113 663 120 717 431 685 431 743ZM805 285C710 310 539 332 387 344L387 340C454 315 521 287 584 256L949 256 949 201 689 201C760 161 825 117 882 69L832 36C797 65 759 93 717 120L717 83 469 83 469 10 395 10 395 83 138 83 138 137 395 137 395 201 52 201 52 256 451 256C319 311 175 356 35 388 48 400 68 426 77 439 158 418 241 392 323 364L323 382C323 450 358 464 490 464 518 464 778 464 807 464 901 464 925 445 934 358 916 356 892 348 876 339 871 403 860 412 801 412 746 412 528 412 488 412 409 412 390 407 388 388 547 377 730 356 850 326ZM469 201L469 137 689 137C652 159 613 181 572 201Z"/>
</svg>