<svg xmlns="http://www.w3.org/2000/svg" name="gid10488" data-unicode="耎"
    viewBox="0 0 1000 1000">
  <!--
© 2014-2021 Adobe (http://www.adobe.com/).
Noto is a trademark of Google Inc.
This Font Software is licensed under the SIL Open Font License, Version 1.1. This Font Software is distributed on an "AS IS" BASIS, WITHOUT WARRANTIES OR CONDITIONS OF ANY KIND, either express or implied. See the SIL Open Font License for the specific language, permissions and limitations governing your use of this Font Software.
http://scripts.sil.org/OFL
  -->
<path d="M140 249L140 565 212 565 212 312 356 312 356 551 425 551 425 312 572 312 572 551 641 551 641 312 794 312 794 487C794 496 792 499 780 500 769 500 735 500 694 499 703 517 715 544 718 562 772 563 811 562 835 552 861 541 868 522 868 487L868 249 497 249C508 222 519 190 530 158L929 158 929 93 71 93 71 158 453 158C446 188 436 221 426 249ZM458 540C454 576 450 609 443 639L54 639 54 705 422 705C376 808 276 866 36 896 49 912 67 942 72 961 341 923 451 847 500 714 571 864 705 934 920 960 930 939 948 909 965 892 764 876 633 822 569 705L947 705 947 639 522 639C528 608 532 576 536 540Z"/>
</svg>