<svg xmlns="http://www.w3.org/2000/svg"
    viewBox="0 0 1000 1000">
  <!--
© 2014-2021 Adobe (http://www.adobe.com/).
Noto is a trademark of Google Inc.
This Font Software is licensed under the SIL Open Font License, Version 1.1. This Font Software is distributed on an "AS IS" BASIS, WITHOUT WARRANTIES OR CONDITIONS OF ANY KIND, either express or implied. See the SIL Open Font License for the specific language, permissions and limitations governing your use of this Font Software.
http://scripts.sil.org/OFL
  -->
<path d="M432 10C418 44 398 78 372 111L72 111 72 180 308 180C241 242 149 298 32 339 48 352 70 381 79 400 112 388 142 374 171 360L171 397 244 397 244 767 100 772 104 843 684 817 684 929 761 929 761 814 900 807 904 740 761 747 761 397 831 397 831 354C860 370 890 383 919 393 930 376 951 349 967 335 868 306 761 247 687 180L930 180 930 111 466 111C485 82 502 53 516 23ZM320 397L684 397 684 474 320 474ZM787 330L227 330C302 286 363 235 412 180L600 180C649 236 716 288 787 330ZM320 535L684 535 684 616 320 616ZM320 677L684 677 684 750 320 765Z"/>
</svg>