<svg xmlns="http://www.w3.org/2000/svg"
    viewBox="0 0 1000 1000">
  <!--
© 2014-2021 Adobe (http://www.adobe.com/).
Noto is a trademark of Google Inc.
This Font Software is licensed under the SIL Open Font License, Version 1.1. This Font Software is distributed on an "AS IS" BASIS, WITHOUT WARRANTIES OR CONDITIONS OF ANY KIND, either express or implied. See the SIL Open Font License for the specific language, permissions and limitations governing your use of this Font Software.
http://scripts.sil.org/OFL
  -->
<path d="M36 715L51 787 339 738 339 930 409 930 409 123 483 123 483 54 48 54 48 123 116 123 116 704ZM184 123L339 123 339 262 184 262ZM184 326L339 326 339 469 184 469ZM520 250L520 837 440 837 440 905 961 905 961 837 769 837 769 432 940 432 940 363 769 363 769 11 697 11 697 837 589 837 589 250ZM184 533L339 533 339 670 184 694Z"/>
</svg>