<svg xmlns="http://www.w3.org/2000/svg" name="gid10527" data-unicode="聆"
    viewBox="0 0 1000 1000">
  <!--
© 2014-2021 Adobe (http://www.adobe.com/).
Noto is a trademark of Google Inc.
This Font Software is licensed under the SIL Open Font License, Version 1.1. This Font Software is distributed on an "AS IS" BASIS, WITHOUT WARRANTIES OR CONDITIONS OF ANY KIND, either express or implied. See the SIL Open Font License for the specific language, permissions and limitations governing your use of this Font Software.
http://scripts.sil.org/OFL
  -->
<path d="M546 334L546 397 831 397 831 334ZM686 115C741 210 839 324 931 394 942 373 959 345 974 327 880 265 780 150 719 41L649 41C602 143 507 265 409 336L409 153 480 153 480 84 49 84 49 153 116 153 116 734 36 745 50 817 339 768 339 960 409 960 409 340C422 356 437 382 446 400 545 325 637 209 686 115ZM184 153L339 153 339 292 184 292ZM184 356L339 356 339 499 184 499ZM184 563L339 563 339 700 184 724ZM451 504L451 571 599 571 599 959 671 959 671 571 839 571 839 778C839 787 836 790 825 791 813 791 776 791 733 790 743 808 753 836 755 855 816 855 854 854 878 843 903 832 909 812 909 779L909 504Z"/>
</svg>