<svg xmlns="http://www.w3.org/2000/svg" name="gid10532" data-unicode="聚"
    viewBox="0 0 1000 1000">
  <!--
© 2014-2021 Adobe (http://www.adobe.com/).
Noto is a trademark of Google Inc.
This Font Software is licensed under the SIL Open Font License, Version 1.1. This Font Software is distributed on an "AS IS" BASIS, WITHOUT WARRANTIES OR CONDITIONS OF ANY KIND, either express or implied. See the SIL Open Font License for the specific language, permissions and limitations governing your use of this Font Software.
http://scripts.sil.org/OFL
  -->
<path d="M284 520C222 570 129 622 46 656 62 667 89 692 100 704 180 666 278 603 348 547ZM323 698C252 772 136 845 30 891 48 903 76 929 90 943 191 891 312 809 392 726ZM664 491C572 546 416 601 291 631 305 644 327 675 336 689 375 677 418 662 461 646L461 957 535 957 535 617 537 616C612 772 744 891 908 948 919 928 941 899 958 885 859 857 772 805 703 738 770 700 851 646 914 595L853 557C806 599 729 656 664 695 637 663 614 627 596 590 643 568 687 545 724 522ZM545 285C588 306 634 331 680 358 622 400 557 433 493 454 507 468 526 493 535 509 606 483 678 445 741 394 807 435 867 477 905 511L959 458C919 425 860 385 795 347 848 294 892 231 921 157L873 134 861 138 538 138 538 89 61 89 61 145 138 145 138 443 46 449 55 508C151 500 279 488 406 476L406 529 475 529 475 145 527 145 527 199 824 199C801 240 770 278 735 312 687 285 639 260 595 240ZM406 145L406 207 207 207 207 145ZM406 256L406 318 207 318 207 256ZM406 366L406 422 207 438 207 366Z"/>
</svg>