<svg xmlns="http://www.w3.org/2000/svg"
    viewBox="0 0 1000 1000">
  <!--
© 2014-2021 Adobe (http://www.adobe.com/).
Noto is a trademark of Google Inc.
This Font Software is licensed under the SIL Open Font License, Version 1.1. This Font Software is distributed on an "AS IS" BASIS, WITHOUT WARRANTIES OR CONDITIONS OF ANY KIND, either express or implied. See the SIL Open Font License for the specific language, permissions and limitations governing your use of this Font Software.
http://scripts.sil.org/OFL
  -->
<path d="M36 715L51 787 312 740 312 930 380 930 380 121 446 121 446 53 49 53 49 121 110 121 110 705ZM177 121L312 121 312 263 177 263ZM177 326L312 326 312 469 177 469ZM177 533L312 533 312 673 177 695ZM445 140L445 305 511 305 511 203 875 203 875 305 943 305 943 140 726 140 726 16 653 16 653 140ZM494 489C488 636 470 797 385 883 401 894 423 915 433 932 479 884 509 820 528 748 592 884 693 912 819 912L948 912C951 893 962 859 972 841 942 842 845 842 824 842 791 842 759 840 729 833L729 628 909 628 909 563 729 563 729 407 913 407 913 341 473 341 473 407 659 407 659 806C612 778 573 728 548 642 555 592 559 540 561 489Z"/>
</svg>