<svg xmlns="http://www.w3.org/2000/svg" name="gid10549" data-unicode="聶"
    viewBox="0 0 1000 1000">
  <!--
© 2014-2021 Adobe (http://www.adobe.com/).
Noto is a trademark of Google Inc.
This Font Software is licensed under the SIL Open Font License, Version 1.1. This Font Software is distributed on an "AS IS" BASIS, WITHOUT WARRANTIES OR CONDITIONS OF ANY KIND, either express or implied. See the SIL Open Font License for the specific language, permissions and limitations governing your use of this Font Software.
http://scripts.sil.org/OFL
  -->
<path d="M117 91L117 147 248 147 248 388 104 391 109 445 689 428 689 467 761 467 761 425 879 421 881 371 761 375 761 147 897 147 897 91ZM318 387L318 333 689 333 689 377ZM507 495L507 551 551 551 551 817 487 820 493 876C579 872 696 865 817 857L817 960 885 960 885 852 939 848 940 797 885 800 885 551 949 551 949 495ZM618 814L618 757 817 757 817 804ZM318 147L689 147 689 193 318 193ZM318 239L689 239 689 286 318 286ZM40 828L45 888 367 867 367 959 434 959 434 551 488 551 488 495 52 495 52 551 120 551 120 824ZM185 551L367 551 367 607 185 607ZM185 653L367 653 367 710 185 710ZM185 757L367 757 367 811 185 821ZM618 653L817 653 817 710 618 710ZM618 607L618 551 817 551 817 607Z"/>
</svg>