<svg xmlns="http://www.w3.org/2000/svg" name="gid10570" data-unicode="肙"
    viewBox="0 0 1000 1000">
  <!--
© 2014-2021 Adobe (http://www.adobe.com/).
Noto is a trademark of Google Inc.
This Font Software is licensed under the SIL Open Font License, Version 1.1. This Font Software is distributed on an "AS IS" BASIS, WITHOUT WARRANTIES OR CONDITIONS OF ANY KIND, either express or implied. See the SIL Open Font License for the specific language, permissions and limitations governing your use of this Font Software.
http://scripts.sil.org/OFL
  -->
<path d="M276 142L721 142 721 249 276 249ZM204 81L204 310 797 310 797 81ZM755 446L755 534 243 534 243 446ZM167 381L167 960 243 960 243 753 755 753 755 869C755 885 750 890 731 891 713 891 647 892 581 890 591 909 603 940 606 961 696 961 753 960 787 948 821 937 831 915 831 870L831 381ZM243 598L755 598 755 688 243 688Z"/>
</svg>