<svg xmlns="http://www.w3.org/2000/svg" name="gid10572" data-unicode="肛"
    viewBox="0 0 1000 1000">
  <!--
© 2014-2021 Adobe (http://www.adobe.com/).
Noto is a trademark of Google Inc.
This Font Software is licensed under the SIL Open Font License, Version 1.1. This Font Software is distributed on an "AS IS" BASIS, WITHOUT WARRANTIES OR CONDITIONS OF ANY KIND, either express or implied. See the SIL Open Font License for the specific language, permissions and limitations governing your use of this Font Software.
http://scripts.sil.org/OFL
  -->
<path d="M108 77L108 436C108 584 102 785 34 926 52 932 82 949 95 961 141 866 161 740 170 621L333 621 333 862C333 875 328 880 314 880 302 880 259 881 213 879 223 899 232 932 234 952 303 952 342 950 369 938 394 925 402 902 402 862L402 77ZM176 147L333 147 333 311 176 311ZM176 381L333 381 333 550 174 550C175 510 176 471 176 436ZM452 837L452 909 958 909 958 837 742 837 742 207 930 207 930 134 471 134 471 207 662 207 662 837Z"/>
</svg>