<svg xmlns="http://www.w3.org/2000/svg"
    viewBox="0 0 1000 1000">
  <!--
© 2014-2021 Adobe (http://www.adobe.com/).
Noto is a trademark of Google Inc.
This Font Software is licensed under the SIL Open Font License, Version 1.1. This Font Software is distributed on an "AS IS" BASIS, WITHOUT WARRANTIES OR CONDITIONS OF ANY KIND, either express or implied. See the SIL Open Font License for the specific language, permissions and limitations governing your use of this Font Software.
http://scripts.sil.org/OFL
  -->
<path d="M108 47L108 406C108 554 102 755 34 896 52 902 82 919 95 931 141 836 161 710 170 591L333 591 333 832C333 845 328 850 314 850 302 850 259 851 213 849 223 869 232 902 234 922 303 922 342 920 369 908 394 895 402 872 402 832L402 47ZM176 117L333 117 333 281 176 281ZM176 351L333 351 333 520 174 520C175 480 176 441 176 406ZM452 807L452 879 958 879 958 807 742 807 742 177 930 177 930 104 471 104 471 177 662 177 662 807Z"/>
</svg>