<svg xmlns="http://www.w3.org/2000/svg"
    viewBox="0 0 1000 1000">
  <!--
© 2014-2021 Adobe (http://www.adobe.com/).
Noto is a trademark of Google Inc.
This Font Software is licensed under the SIL Open Font License, Version 1.1. This Font Software is distributed on an "AS IS" BASIS, WITHOUT WARRANTIES OR CONDITIONS OF ANY KIND, either express or implied. See the SIL Open Font License for the specific language, permissions and limitations governing your use of this Font Software.
http://scripts.sil.org/OFL
  -->
<path d="M742 59C793 102 851 165 877 207L935 168C907 126 850 68 796 25ZM106 47L106 406C106 554 101 755 33 896 50 902 81 919 94 931 140 836 160 710 169 591L315 591 315 840C315 854 309 858 297 858 284 859 242 859 196 858 206 878 216 911 219 930 285 930 325 929 350 916 377 904 385 881 385 840L385 47ZM175 117L315 117 315 281 175 281ZM175 351L315 351 315 520 173 520C174 480 175 441 175 406ZM618 11C618 86 617 166 613 247L414 247 414 318 609 318C592 536 542 749 386 875 407 888 433 910 447 928 549 840 608 718 642 581L642 805C642 888 663 911 742 911 758 911 847 911 863 911 939 911 958 868 965 711 945 706 915 694 899 681 896 819 891 843 857 843 838 843 766 843 751 843 719 843 714 838 714 804L714 386 676 386 682 318 961 318 961 247 686 247C690 167 691 87 692 11Z"/>
</svg>