<svg xmlns="http://www.w3.org/2000/svg"
    viewBox="0 0 1000 1000">
  <!--
© 2014-2021 Adobe (http://www.adobe.com/).
Noto is a trademark of Google Inc.
This Font Software is licensed under the SIL Open Font License, Version 1.1. This Font Software is distributed on an "AS IS" BASIS, WITHOUT WARRANTIES OR CONDITIONS OF ANY KIND, either express or implied. See the SIL Open Font License for the specific language, permissions and limitations governing your use of this Font Software.
http://scripts.sil.org/OFL
  -->
<path d="M727 497L727 574 279 574 279 497ZM204 434L204 930 279 930 279 763 727 763 727 849C727 863 722 868 706 868 689 869 630 870 572 868 582 886 593 912 597 930 677 930 729 929 761 919 792 909 803 890 803 850L803 434ZM279 630L727 630 727 707 279 707ZM460 9L460 108 61 108 61 175 323 175C299 215 267 263 237 301L100 302 103 372C279 369 547 362 801 353 828 377 851 399 868 419L931 374C878 316 769 232 680 175L941 175 941 108 537 108 537 9ZM617 212C653 236 691 263 728 292L321 300C354 261 388 217 418 175L674 175Z"/>
</svg>