<svg xmlns="http://www.w3.org/2000/svg"
    viewBox="0 0 1000 1000">
  <!--
© 2014-2021 Adobe (http://www.adobe.com/).
Noto is a trademark of Google Inc.
This Font Software is licensed under the SIL Open Font License, Version 1.1. This Font Software is distributed on an "AS IS" BASIS, WITHOUT WARRANTIES OR CONDITIONS OF ANY KIND, either express or implied. See the SIL Open Font License for the specific language, permissions and limitations governing your use of this Font Software.
http://scripts.sil.org/OFL
  -->
<path d="M437 825L437 897 961 897 961 825ZM570 405L836 405 836 610 570 610ZM570 134L836 134 836 335 570 335ZM499 65L499 679 909 679 909 65ZM108 47L108 407C108 554 102 755 34 896 52 902 83 920 97 932 143 837 163 710 172 591L333 591 333 830C333 843 328 848 314 849 302 849 259 850 212 848 223 867 232 901 234 921 303 921 343 920 370 907 395 894 404 871 404 830L404 47ZM178 118L333 118 333 281 178 281ZM178 352L333 352 333 520 176 520C177 480 178 441 178 406Z"/>
</svg>