<svg xmlns="http://www.w3.org/2000/svg" name="gid10622" data-unicode="胯"
    viewBox="0 0 1000 1000">
  <!--
© 2014-2021 Adobe (http://www.adobe.com/).
Noto is a trademark of Google Inc.
This Font Software is licensed under the SIL Open Font License, Version 1.1. This Font Software is distributed on an "AS IS" BASIS, WITHOUT WARRANTIES OR CONDITIONS OF ANY KIND, either express or implied. See the SIL Open Font License for the specific language, permissions and limitations governing your use of this Font Software.
http://scripts.sil.org/OFL
  -->
<path d="M599 40C593 77 584 116 570 154L393 154 393 223 541 223C503 298 447 368 367 423L367 77 103 77 103 437C103 585 98 786 31 927 49 934 78 950 92 962 136 867 155 740 163 621L298 621 298 870C298 884 294 888 281 888 268 889 229 889 184 888 194 908 204 940 206 959 271 959 309 957 334 945 359 933 367 910 367 871L367 429C382 440 403 464 412 481 455 450 492 416 524 379L524 437 813 437 813 378C845 416 880 449 917 472 929 453 951 428 968 415 897 377 831 303 790 223L949 223 949 154 647 154C658 119 667 83 673 48ZM169 145L298 145 298 311 169 311ZM169 380L298 380 298 551 167 551C169 511 169 472 169 437ZM718 223C741 277 772 329 809 373L529 373C567 326 597 275 620 223ZM422 515L422 579 529 579C513 638 493 705 474 753L544 770 560 723 784 723C773 826 760 872 744 887 734 895 725 895 706 895 687 895 633 895 581 890 593 908 601 936 603 956 656 959 707 959 733 957 764 956 784 950 802 933 829 907 844 843 860 691 861 680 863 659 863 659L580 659 603 579 918 579 918 515Z"/>
</svg>