<svg xmlns="http://www.w3.org/2000/svg" name="gid10624" data-unicode="胱"
    viewBox="0 0 1000 1000">
  <!--
© 2014-2021 Adobe (http://www.adobe.com/).
Noto is a trademark of Google Inc.
This Font Software is licensed under the SIL Open Font License, Version 1.1. This Font Software is distributed on an "AS IS" BASIS, WITHOUT WARRANTIES OR CONDITIONS OF ANY KIND, either express or implied. See the SIL Open Font License for the specific language, permissions and limitations governing your use of this Font Software.
http://scripts.sil.org/OFL
  -->
<path d="M434 118C469 198 501 305 509 374L576 354C566 285 533 180 496 100ZM847 91C828 171 788 284 758 353L817 374C851 307 890 201 921 113ZM634 47L634 426 407 426 407 497 543 497C534 684 509 828 364 905 380 918 402 945 411 964 572 874 603 711 613 497L710 497 710 844C710 922 727 945 794 945 808 945 866 945 880 945 942 945 960 905 966 755 947 750 917 738 902 724 900 856 895 877 873 877 861 877 815 877 805 877 784 877 781 872 781 844L781 497 953 497 953 426 705 426 705 47ZM101 77L101 462C101 603 97 792 39 926 56 932 86 948 99 960 140 865 157 738 164 619L290 619 290 869C290 881 286 885 274 886 264 886 228 886 188 884 197 903 206 934 208 952 267 952 302 951 325 939 348 927 355 906 355 869L355 77ZM168 144L290 144 290 311 168 311ZM168 378L290 378 290 551 167 551 168 462Z"/>
</svg>