<svg xmlns="http://www.w3.org/2000/svg" name="gid10634" data-unicode="胻"
    viewBox="0 0 1000 1000">
  <!--
© 2014-2021 Adobe (http://www.adobe.com/).
Noto is a trademark of Google Inc.
This Font Software is licensed under the SIL Open Font License, Version 1.1. This Font Software is distributed on an "AS IS" BASIS, WITHOUT WARRANTIES OR CONDITIONS OF ANY KIND, either express or implied. See the SIL Open Font License for the specific language, permissions and limitations governing your use of this Font Software.
http://scripts.sil.org/OFL
  -->
<path d="M613 113L613 180 936 180 936 113ZM505 52C465 127 401 204 338 255L338 77 98 77 98 437C98 584 93 786 30 927 47 933 76 950 89 961 132 865 150 738 158 618L271 618 271 876C271 888 267 892 256 892 246 893 213 893 177 892 186 909 195 941 197 958 251 958 285 957 307 945 330 933 338 913 338 877L338 532C351 547 371 574 378 587 402 563 427 534 452 502L452 957 517 957 517 410C544 369 568 325 589 283L524 261C480 357 409 455 338 523L338 261C351 276 373 303 380 315 446 255 520 162 568 74ZM163 144L271 144 271 311 163 311ZM163 378L271 378 271 551 161 551 163 437ZM580 353L580 420 781 420 781 872C781 885 777 889 762 890 747 890 697 891 644 889 655 908 667 939 669 958 739 958 785 957 813 946 842 934 851 912 851 873L851 420 961 420 961 353Z"/>
</svg>