<svg xmlns="http://www.w3.org/2000/svg" name="gid10648" data-unicode="脖"
    viewBox="0 0 1000 1000">
  <!--
© 2014-2021 Adobe (http://www.adobe.com/).
Noto is a trademark of Google Inc.
This Font Software is licensed under the SIL Open Font License, Version 1.1. This Font Software is distributed on an "AS IS" BASIS, WITHOUT WARRANTIES OR CONDITIONS OF ANY KIND, either express or implied. See the SIL Open Font License for the specific language, permissions and limitations governing your use of this Font Software.
http://scripts.sil.org/OFL
  -->
<path d="M416 143L416 210 628 210 628 303 396 303 396 478 463 478 463 368 876 368 876 478 947 478 947 303 704 303 704 210 935 210 935 143 704 143 704 40 628 40 628 143ZM390 660L390 729 632 729 632 877C632 889 628 892 614 893 600 894 553 894 500 892 511 912 521 941 524 961 592 961 639 961 669 950 699 939 707 919 707 879L707 729 950 729 950 660 707 660 707 638C762 598 823 544 866 494L817 455 800 460 478 460 478 523 741 523C717 549 688 576 660 597L632 597 632 660ZM100 87L100 444C100 590 95 789 32 930 49 936 78 952 91 963 132 870 151 748 159 632L293 632 293 874C293 888 288 892 275 892 263 892 226 893 182 891 192 911 201 943 203 961 267 961 303 960 328 947 352 935 360 914 360 875L360 87ZM165 156L293 156 293 322 165 322ZM165 391L293 391 293 562 163 562C164 520 165 480 165 444Z"/>
</svg>