<svg xmlns="http://www.w3.org/2000/svg" name="gid10656" data-unicode="脣"
    viewBox="0 0 1000 1000">
  <!--
© 2014-2021 Adobe (http://www.adobe.com/).
Noto is a trademark of Google Inc.
This Font Software is licensed under the SIL Open Font License, Version 1.1. This Font Software is distributed on an "AS IS" BASIS, WITHOUT WARRANTIES OR CONDITIONS OF ANY KIND, either express or implied. See the SIL Open Font License for the specific language, permissions and limitations governing your use of this Font Software.
http://scripts.sil.org/OFL
  -->
<path d="M277 185L277 229 846 229 846 185ZM745 599L745 656 274 656 274 599ZM198 544L198 959 274 959 274 820 745 820 745 885C745 898 740 902 724 904 709 904 649 905 590 902 600 920 611 943 615 961 696 961 748 961 780 951 812 942 822 925 822 885L822 544ZM274 708L745 708 745 768 274 768ZM221 444L227 505C329 499 471 490 608 480L609 430C694 487 804 525 926 544 935 525 953 498 968 485 878 474 794 454 724 424 780 405 845 382 896 353L837 327C795 348 727 377 670 398 632 376 598 352 572 324L938 324 938 277 215 277C217 254 218 232 218 211L218 139 916 139 916 86 146 86 146 209C146 301 132 423 38 514 55 523 85 546 97 560 165 494 196 406 209 324L315 324 315 440ZM384 324L497 324C524 362 559 396 600 425L384 437Z"/>
</svg>