<svg xmlns="http://www.w3.org/2000/svg" name="gid10674" data-unicode="腆"
    viewBox="0 0 1000 1000">
  <!--
© 2014-2021 Adobe (http://www.adobe.com/).
Noto is a trademark of Google Inc.
This Font Software is licensed under the SIL Open Font License, Version 1.1. This Font Software is distributed on an "AS IS" BASIS, WITHOUT WARRANTIES OR CONDITIONS OF ANY KIND, either express or implied. See the SIL Open Font License for the specific language, permissions and limitations governing your use of this Font Software.
http://scripts.sil.org/OFL
  -->
<path d="M542 731C502 798 438 867 374 913 391 924 420 947 433 959 496 908 567 829 613 753ZM716 759C775 819 845 904 875 957L941 922C908 868 838 787 778 729ZM91 77L91 437C91 583 87 785 32 927 47 933 77 949 89 959 127 864 144 739 151 621L278 621 278 867C278 879 273 883 261 884 250 884 213 885 171 883 180 902 188 933 191 952 253 952 289 951 313 938 336 926 344 904 344 867L344 77ZM156 145L278 145 278 311 156 311ZM156 380L278 380 278 551 154 551 156 436ZM473 467L562 467 562 642 473 642ZM847 467L847 642 758 642 758 467ZM473 402L473 239 562 239 562 402ZM847 402L758 402 758 239 847 239ZM618 467L702 467 702 642 618 642ZM618 402L618 239 702 239 702 402ZM702 38L702 172 618 172 618 39 552 39 552 172 410 172 410 642 362 642 362 710 959 710 959 642 912 642 912 172 768 172 768 38Z"/>
</svg>