<svg xmlns="http://www.w3.org/2000/svg" name="gid10691" data-unicode="腦"
    viewBox="0 0 1000 1000">
  <!--
© 2014-2021 Adobe (http://www.adobe.com/).
Noto is a trademark of Google Inc.
This Font Software is licensed under the SIL Open Font License, Version 1.1. This Font Software is distributed on an "AS IS" BASIS, WITHOUT WARRANTIES OR CONDITIONS OF ANY KIND, either express or implied. See the SIL Open Font License for the specific language, permissions and limitations governing your use of this Font Software.
http://scripts.sil.org/OFL
  -->
<path d="M490 42C468 91 423 168 383 229 438 299 488 379 512 432L572 403C550 358 503 287 457 228 490 176 529 112 556 59ZM868 42C842 91 792 167 745 228 809 298 869 378 897 430L959 398C931 353 876 283 824 227 862 176 906 113 937 61ZM620 393C614 417 603 451 592 480L421 480 421 959 489 959 489 919 861 919 861 955 931 955 931 480 670 480 698 424 758 394C734 350 684 281 637 224 671 174 712 111 741 59L674 42C650 90 605 165 562 226 613 286 661 354 688 405ZM489 856L489 543 861 543 861 856ZM534 624C567 645 603 671 637 697 597 732 553 765 508 791 521 802 540 820 550 833 596 804 642 770 683 733 721 764 755 795 778 820L821 775C798 751 764 722 727 692 760 658 789 623 813 587L758 559C738 591 711 625 679 657 645 631 608 607 575 586ZM100 77L100 436C100 583 95 784 32 926 49 932 78 948 91 959 133 864 151 739 159 621L284 621 284 872C284 886 279 890 267 890 256 891 217 891 174 890 184 909 192 941 195 959 258 960 295 958 320 946 343 934 351 911 351 873L351 77ZM165 145L284 145 284 311 165 311ZM165 380L284 380 284 551 163 551C165 510 165 471 165 436Z"/>
</svg>