<svg xmlns="http://www.w3.org/2000/svg"
    viewBox="0 0 1000 1000">
  <!--
© 2014-2021 Adobe (http://www.adobe.com/).
Noto is a trademark of Google Inc.
This Font Software is licensed under the SIL Open Font License, Version 1.1. This Font Software is distributed on an "AS IS" BASIS, WITHOUT WARRANTIES OR CONDITIONS OF ANY KIND, either express or implied. See the SIL Open Font License for the specific language, permissions and limitations governing your use of this Font Software.
http://scripts.sil.org/OFL
  -->
<path d="M746 376C734 411 712 465 694 499L741 514C760 482 781 435 801 392ZM99 47L99 406C99 553 94 754 30 896 47 902 76 918 89 929 132 834 150 708 158 589L272 589 272 844C272 856 267 860 256 860 246 861 213 861 177 860 186 878 194 910 197 927 252 927 285 926 308 915 331 903 338 881 338 845L338 47ZM164 115L272 115 272 281 164 281ZM164 349L272 349 272 521 162 521C164 480 164 441 164 406ZM400 289L400 929 468 929 468 353 858 353 858 844C858 856 854 859 843 860 831 860 794 860 752 859 761 878 771 909 774 928 831 928 870 927 894 915 920 904 926 882 926 845L926 289 696 289 696 187 949 187 949 120 696 120 696 10 626 10 626 120 378 120 378 187 626 187 626 289ZM518 397C540 434 560 484 568 518L510 518 510 572 630 572 630 663 502 663 502 719 630 719 630 886 693 886 693 719 822 719 822 663 693 663 693 572 817 572 817 518 574 518 621 499C612 466 589 416 566 379Z"/>
</svg>