<svg xmlns="http://www.w3.org/2000/svg" name="gid10697" data-unicode="腮"
    viewBox="0 0 1000 1000">
  <!--
© 2014-2021 Adobe (http://www.adobe.com/).
Noto is a trademark of Google Inc.
This Font Software is licensed under the SIL Open Font License, Version 1.1. This Font Software is distributed on an "AS IS" BASIS, WITHOUT WARRANTIES OR CONDITIONS OF ANY KIND, either express or implied. See the SIL Open Font License for the specific language, permissions and limitations governing your use of this Font Software.
http://scripts.sil.org/OFL
  -->
<path d="M551 630L551 859C551 932 569 954 645 954 660 954 740 954 756 954 818 954 838 924 844 807 825 802 795 790 781 778 778 873 773 886 748 886 731 886 667 886 654 886 625 886 621 882 621 859L621 630ZM451 651C442 732 421 819 377 868L434 912C484 854 504 756 515 668ZM793 667C847 738 894 834 908 901L975 868C959 802 911 707 854 638ZM508 328L637 328 637 444 508 444ZM704 328L839 328 839 444 704 444ZM508 152L637 152 637 267 508 267ZM704 152L839 152 839 267 704 267ZM556 556C624 579 707 623 748 658L788 599C750 569 679 534 616 510L911 510 911 87 439 87 439 510 588 510ZM103 77L103 437C103 585 98 786 31 927 49 934 78 950 92 962 136 867 155 740 163 621L298 621 298 870C298 884 294 888 281 888 268 889 229 889 184 888 194 908 204 940 206 959 271 959 309 957 334 945 359 933 367 910 367 871L367 77ZM169 145L298 145 298 311 169 311ZM169 380L298 380 298 551 167 551C169 511 169 472 169 437Z"/>
</svg>