<svg xmlns="http://www.w3.org/2000/svg"
    viewBox="0 0 1000 1000">
  <!--
© 2014-2021 Adobe (http://www.adobe.com/).
Noto is a trademark of Google Inc.
This Font Software is licensed under the SIL Open Font License, Version 1.1. This Font Software is distributed on an "AS IS" BASIS, WITHOUT WARRANTIES OR CONDITIONS OF ANY KIND, either express or implied. See the SIL Open Font License for the specific language, permissions and limitations governing your use of this Font Software.
http://scripts.sil.org/OFL
  -->
<path d="M98 57L98 415C98 561 94 760 31 901 48 907 77 923 89 933 130 840 149 718 157 602L277 602 277 844C277 858 273 862 261 862 250 862 213 863 171 861 180 880 189 912 191 930 252 930 288 929 312 916 336 905 343 884 343 848 356 861 370 878 379 890 430 853 482 793 523 726L523 930 590 930 590 644 690 644 690 930 756 930 756 710C801 784 860 851 918 891 930 874 952 848 969 835 900 796 829 722 785 644L909 644 909 518 965 518 965 459 909 459 909 337 756 337 756 266 951 266 951 206 756 206 756 139C814 117 870 92 915 66L855 20C807 56 718 94 638 121 647 134 658 156 662 170L690 161 690 206 590 206 590 107C624 93 655 77 682 61L613 21C564 56 470 96 387 122 396 135 408 158 412 171 448 160 486 148 523 134L523 206 363 206 363 266 523 266 523 337 392 337 392 393 523 393 523 459 359 459 359 518 523 518 523 588 392 588 392 644 505 644C465 717 405 789 343 829L343 57ZM590 266L690 266 690 337 590 337ZM590 518L690 518 690 588 590 588ZM590 459L590 393 690 393 690 459ZM756 518L847 518 847 588 756 588ZM756 459L756 393 847 393 847 459ZM163 126L277 126 277 292 163 292ZM163 361L277 361 277 532 161 532C162 490 163 451 163 415Z"/>
</svg>