<svg xmlns="http://www.w3.org/2000/svg"
    viewBox="0 0 1000 1000">
  <!--
© 2014-2021 Adobe (http://www.adobe.com/).
Noto is a trademark of Google Inc.
This Font Software is licensed under the SIL Open Font License, Version 1.1. This Font Software is distributed on an "AS IS" BASIS, WITHOUT WARRANTIES OR CONDITIONS OF ANY KIND, either express or implied. See the SIL Open Font License for the specific language, permissions and limitations governing your use of this Font Software.
http://scripts.sil.org/OFL
  -->
<path d="M541 238L805 238 805 339 541 339ZM472 181L472 397 877 397 877 181ZM408 59L408 124 944 124 944 59ZM100 47L100 406C100 553 95 754 32 896 49 902 78 918 91 929 133 834 151 709 159 591L284 591 284 842C284 856 279 860 267 860 256 861 217 861 174 860 184 879 192 911 195 929 258 930 295 928 320 916 343 904 351 881 351 843L351 47ZM165 115L284 115 284 281 165 281ZM165 350L284 350 284 521 163 521C165 480 165 441 165 406ZM531 697L531 751 641 751 641 907 702 907 702 751 822 751 822 697ZM865 512L865 592 851 592C839 592 793 592 784 592 765 592 762 590 762 575L762 512ZM415 452L415 929 482 929 482 639C494 648 507 668 513 680 601 649 631 599 640 512L707 512 707 576C707 632 720 645 778 645 789 645 850 645 860 645L865 645 865 852C865 864 861 867 849 868 839 868 800 868 756 867 765 885 774 912 777 930 838 930 877 929 902 918 926 908 932 889 932 854L932 452ZM482 636L482 512 583 512C576 579 553 615 482 636Z"/>
</svg>