<svg xmlns="http://www.w3.org/2000/svg" name="gid10715" data-unicode="膈"
    viewBox="0 0 1000 1000">
  <!--
© 2014-2021 Adobe (http://www.adobe.com/).
Noto is a trademark of Google Inc.
This Font Software is licensed under the SIL Open Font License, Version 1.1. This Font Software is distributed on an "AS IS" BASIS, WITHOUT WARRANTIES OR CONDITIONS OF ANY KIND, either express or implied. See the SIL Open Font License for the specific language, permissions and limitations governing your use of this Font Software.
http://scripts.sil.org/OFL
  -->
<path d="M541 268L805 268 805 369 541 369ZM472 211L472 427 877 427 877 211ZM408 89L408 154 944 154 944 89ZM100 77L100 436C100 583 95 784 32 926 49 932 78 948 91 959 133 864 151 739 159 621L284 621 284 872C284 886 279 890 267 890 256 891 217 891 174 890 184 909 192 941 195 959 258 960 295 958 320 946 343 934 351 911 351 873L351 77ZM165 145L284 145 284 311 165 311ZM165 380L284 380 284 551 163 551C165 510 165 471 165 436ZM531 727L531 781 641 781 641 937 702 937 702 781 822 781 822 727ZM865 542L865 622 851 622C839 622 793 622 784 622 765 622 762 620 762 605L762 542ZM415 482L415 959 482 959 482 669C494 678 507 698 513 710 601 679 631 629 640 542L707 542 707 606C707 662 720 675 778 675 789 675 850 675 860 675L865 675 865 882C865 894 861 897 849 898 839 898 800 898 756 897 765 915 774 942 777 960 838 960 877 959 902 948 926 938 932 919 932 884L932 482ZM482 666L482 542 583 542C576 609 553 645 482 666Z"/>
</svg>