<svg xmlns="http://www.w3.org/2000/svg"
    viewBox="0 0 1000 1000">
  <!--
© 2014-2021 Adobe (http://www.adobe.com/).
Noto is a trademark of Google Inc.
This Font Software is licensed under the SIL Open Font License, Version 1.1. This Font Software is distributed on an "AS IS" BASIS, WITHOUT WARRANTIES OR CONDITIONS OF ANY KIND, either express or implied. See the SIL Open Font License for the specific language, permissions and limitations governing your use of this Font Software.
http://scripts.sil.org/OFL
  -->
<path d="M505 437L819 437 819 509 505 509ZM505 314L819 314 819 385 505 385ZM736 11L736 93 587 93 587 11 518 11 518 93 381 93 381 156 518 156 518 229 587 229 587 156 736 156 736 230 805 230 805 156 947 156 947 93 805 93 805 11ZM436 259L436 564 619 564C617 590 614 615 609 638L381 638 381 703 592 703C560 786 495 841 355 875 370 888 388 914 395 932 553 890 627 823 663 720 709 824 791 898 909 932 919 913 940 886 957 871 847 846 769 786 726 703L943 703 943 638 684 638C688 615 691 590 693 564L889 564 889 259ZM98 55L98 412C98 557 92 757 30 897 46 903 74 919 87 929 130 833 148 707 156 588L282 588 282 840C282 853 278 857 267 857 256 858 221 858 183 857 191 874 200 905 202 921 259 921 293 920 316 909 338 897 345 877 345 842L345 55ZM161 124L282 124 282 284 161 284ZM161 353L282 353 282 518 159 518 161 412Z"/>
</svg>