<svg xmlns="http://www.w3.org/2000/svg"
    viewBox="0 0 1000 1000">
  <!--
© 2014-2021 Adobe (http://www.adobe.com/).
Noto is a trademark of Google Inc.
This Font Software is licensed under the SIL Open Font License, Version 1.1. This Font Software is distributed on an "AS IS" BASIS, WITHOUT WARRANTIES OR CONDITIONS OF ANY KIND, either express or implied. See the SIL Open Font License for the specific language, permissions and limitations governing your use of this Font Software.
http://scripts.sil.org/OFL
  -->
<path d="M624 599L624 679 427 679 427 738 624 738 624 841 378 841 378 903 961 903 961 841 698 841 698 738 912 738 912 679 698 679 698 599ZM738 473C757 489 777 507 795 526L567 534C586 502 607 465 626 430L934 430 934 369 409 369 409 430 548 430C533 465 513 504 494 536L404 539 410 601C524 596 686 589 845 580 861 599 874 617 884 633L940 598C912 552 847 486 791 441ZM624 10L624 83 395 83 395 220 460 220 460 140 559 140C552 236 523 275 396 299 409 310 427 335 432 351 579 319 617 261 626 140L701 140 701 253C701 311 715 327 781 327 793 327 852 327 864 327 911 327 929 309 935 246 916 242 891 234 877 224 875 267 871 272 855 272 843 272 799 272 790 272 771 272 768 270 768 252L768 140 881 140 881 217 948 217 948 83 699 83 699 10ZM100 47L100 406C100 553 95 754 32 896 49 902 78 918 91 929 133 834 151 709 159 591L284 591 284 842C284 856 279 860 267 860 256 861 217 861 174 860 184 879 192 911 195 929 258 930 295 928 320 916 343 904 351 881 351 843L351 47ZM165 115L284 115 284 281 165 281ZM165 350L284 350 284 521 163 521C165 480 165 441 165 406Z"/>
</svg>