<svg xmlns="http://www.w3.org/2000/svg"
    viewBox="0 0 1000 1000">
  <!--
© 2014-2021 Adobe (http://www.adobe.com/).
Noto is a trademark of Google Inc.
This Font Software is licensed under the SIL Open Font License, Version 1.1. This Font Software is distributed on an "AS IS" BASIS, WITHOUT WARRANTIES OR CONDITIONS OF ANY KIND, either express or implied. See the SIL Open Font License for the specific language, permissions and limitations governing your use of this Font Software.
http://scripts.sil.org/OFL
  -->
<path d="M469 307L469 357 598 357 598 307ZM731 307L731 357 866 357 866 307ZM450 420L450 470 598 470 598 420ZM731 420L731 470 889 470 889 420ZM392 182L392 338 455 338 455 241 631 241 631 509 697 509 697 241 881 241 881 338 946 338 946 182 697 182 697 113 923 113 923 51 419 51 419 113 631 113 631 182ZM450 546L450 606 812 606 812 684 394 684 394 747 812 747 812 830 444 830 444 892 812 892 812 929 883 929 883 747 953 747 953 684 883 684 883 546ZM100 47L100 406C100 553 95 754 32 896 49 902 78 918 91 929 133 834 151 709 159 591L284 591 284 842C284 856 279 860 267 860 256 861 217 861 174 860 184 879 192 911 195 929 258 930 295 928 320 916 343 904 351 881 351 843L351 47ZM165 115L284 115 284 281 165 281ZM165 350L284 350 284 521 163 521C165 480 165 441 165 406Z"/>
</svg>