<svg xmlns="http://www.w3.org/2000/svg" name="gid10733" data-unicode="膤"
    viewBox="0 0 1000 1000">
  <!--
© 2014-2021 Adobe (http://www.adobe.com/).
Noto is a trademark of Google Inc.
This Font Software is licensed under the SIL Open Font License, Version 1.1. This Font Software is distributed on an "AS IS" BASIS, WITHOUT WARRANTIES OR CONDITIONS OF ANY KIND, either express or implied. See the SIL Open Font License for the specific language, permissions and limitations governing your use of this Font Software.
http://scripts.sil.org/OFL
  -->
<path d="M469 337L469 387 598 387 598 337ZM731 337L731 387 866 387 866 337ZM450 450L450 500 598 500 598 450ZM731 450L731 500 889 500 889 450ZM392 212L392 368 455 368 455 271 631 271 631 539 697 539 697 271 881 271 881 368 946 368 946 212 697 212 697 143 923 143 923 81 419 81 419 143 631 143 631 212ZM450 576L450 636 812 636 812 714 394 714 394 777 812 777 812 860 444 860 444 922 812 922 812 959 883 959 883 777 953 777 953 714 883 714 883 576ZM100 77L100 436C100 583 95 784 32 926 49 932 78 948 91 959 133 864 151 739 159 621L284 621 284 872C284 886 279 890 267 890 256 891 217 891 174 890 184 909 192 941 195 959 258 960 295 958 320 946 343 934 351 911 351 873L351 77ZM165 145L284 145 284 311 165 311ZM165 380L284 380 284 551 163 551C165 510 165 471 165 436Z"/>
</svg>