<svg xmlns="http://www.w3.org/2000/svg" name="gid10735" data-unicode="膩"
    viewBox="0 0 1000 1000">
  <!--
© 2014-2021 Adobe (http://www.adobe.com/).
Noto is a trademark of Google Inc.
This Font Software is licensed under the SIL Open Font License, Version 1.1. This Font Software is distributed on an "AS IS" BASIS, WITHOUT WARRANTIES OR CONDITIONS OF ANY KIND, either express or implied. See the SIL Open Font License for the specific language, permissions and limitations governing your use of this Font Software.
http://scripts.sil.org/OFL
  -->
<path d="M401 298L401 346 686 346 686 298ZM370 393L370 442 709 442 709 393ZM457 623L630 623 630 672 457 672ZM457 716L630 716 630 765 457 765ZM457 532L630 532 630 579 457 579ZM809 82C848 110 893 151 915 178L965 143C942 115 896 76 857 51ZM95 77L95 437C95 584 91 786 30 927 46 933 75 949 88 960 128 864 147 739 154 621L263 621 263 875C263 888 259 892 248 892 236 893 202 893 162 892 171 910 180 942 182 960 240 960 276 959 299 947 322 935 330 913 330 875L330 77ZM160 145L263 145 263 311 160 311ZM160 380L263 380 263 551 158 551 160 436ZM729 41L731 181 356 181 356 247 733 247C744 657 776 955 890 958 921 959 956 922 975 776 962 769 935 751 922 735 917 819 905 869 892 869 839 866 809 597 800 247L961 247 961 181 799 181 798 41ZM570 842C611 874 659 920 685 954L738 921C712 888 662 845 618 812L692 812 692 486 396 486 396 812 461 812C433 848 382 894 338 921 354 931 378 948 390 958 432 930 487 880 523 838L472 812 612 812Z"/>
</svg>