<svg xmlns="http://www.w3.org/2000/svg"
    viewBox="0 0 1000 1000">
  <!--
© 2014-2021 Adobe (http://www.adobe.com/).
Noto is a trademark of Google Inc.
This Font Software is licensed under the SIL Open Font License, Version 1.1. This Font Software is distributed on an "AS IS" BASIS, WITHOUT WARRANTIES OR CONDITIONS OF ANY KIND, either express or implied. See the SIL Open Font License for the specific language, permissions and limitations governing your use of this Font Software.
http://scripts.sil.org/OFL
  -->
<path d="M100 47L100 406C100 553 95 754 31 896 48 902 77 918 90 929 132 834 152 709 160 591L293 591 293 842C293 856 288 860 275 860 263 861 224 861 181 860 190 879 199 911 202 929 266 930 303 928 328 916 352 904 360 881 360 843L360 47ZM166 115L293 115 293 281 166 281ZM166 350L293 350 293 521 164 521C165 480 166 441 166 406ZM821 117C807 158 778 219 756 257L798 273 702 273 702 105C781 95 856 83 915 68L864 14C758 42 565 61 403 69 410 85 419 110 421 127 489 124 561 119 633 112L633 273 524 273 574 254C565 221 541 170 515 132L456 153C479 190 502 239 510 273L391 273 391 337 570 337C516 411 434 483 360 520 376 532 397 557 409 574L446 550 446 930 512 930 512 893 829 893 829 926 897 926 897 543 922 558C933 541 955 516 971 504 898 471 818 405 765 337L949 337 949 273 814 273C839 238 866 187 892 140ZM634 741L634 833 512 833 512 741ZM699 741L829 741 829 833 699 833ZM634 686L512 686 512 599 634 599ZM699 686L699 599 829 599 829 686ZM633 355L633 517 702 517 702 348C749 420 821 493 891 539L461 539C525 491 589 423 633 355Z"/>
</svg>