<svg xmlns="http://www.w3.org/2000/svg"
    viewBox="0 0 1000 1000">
  <!--
© 2014-2021 Adobe (http://www.adobe.com/).
Noto is a trademark of Google Inc.
This Font Software is licensed under the SIL Open Font License, Version 1.1. This Font Software is distributed on an "AS IS" BASIS, WITHOUT WARRANTIES OR CONDITIONS OF ANY KIND, either express or implied. See the SIL Open Font License for the specific language, permissions and limitations governing your use of this Font Software.
http://scripts.sil.org/OFL
  -->
<path d="M342 63C382 99 429 150 450 185L502 142C481 108 433 60 392 26ZM88 47L88 408C88 554 85 756 32 899 48 904 77 920 89 930 124 834 140 709 146 591L249 591 249 846C249 858 245 862 234 862 224 863 192 863 155 862 164 880 173 912 175 929 230 929 262 928 285 916 306 904 313 883 313 847L313 47ZM151 115L249 115 249 281 151 281ZM151 350L249 350 249 521 149 521 151 407ZM643 11C638 40 632 68 625 95L519 95 519 152 607 152C580 229 541 294 489 342 465 310 417 267 378 238L330 278C372 311 420 359 443 392L491 349C507 359 532 378 543 389 561 370 578 349 594 326L594 373 947 373 947 321 804 321 804 255 911 255 911 205 658 205 678 152 952 152 952 95 694 95C700 71 706 46 710 21ZM740 255L740 321 598 321C616 293 633 262 648 229L648 255ZM637 577L840 577 840 633 637 633ZM637 530L637 477 840 477 840 530ZM572 427L572 800 637 800 637 679 840 679 840 737C840 747 836 750 826 750 816 751 783 751 747 750 754 764 763 785 767 801 820 801 855 801 878 792 900 783 906 768 906 737L906 427ZM481 475L338 475 338 543 415 543 415 748C383 789 348 830 318 861L357 925C392 880 422 840 451 799 498 868 569 909 668 914 742 917 877 916 952 912 954 892 964 861 972 845 891 851 743 853 671 850 584 846 516 806 481 742Z"/>
</svg>