<svg xmlns="http://www.w3.org/2000/svg" name="gid10777" data-unicode="臥"
    viewBox="0 0 1000 1000">
  <!--
© 2014-2021 Adobe (http://www.adobe.com/).
Noto is a trademark of Google Inc.
This Font Software is licensed under the SIL Open Font License, Version 1.1. This Font Software is distributed on an "AS IS" BASIS, WITHOUT WARRANTIES OR CONDITIONS OF ANY KIND, either express or implied. See the SIL Open Font License for the specific language, permissions and limitations governing your use of this Font Software.
http://scripts.sil.org/OFL
  -->
<path d="M151 381L457 381 457 549 151 549ZM151 619L296 619 296 785 151 785ZM151 311L151 161 296 161 296 311ZM671 48L671 298C671 444 666 641 525 807L525 785 367 785 367 619 530 619 530 311 367 311 367 161 541 161 541 91 79 91 79 917 151 917 151 855 479 855C459 873 438 891 414 908 433 921 459 947 470 963 620 848 690 707 721 570 755 717 812 863 914 957 926 937 954 905 971 890 821 766 769 523 747 323L747 298 747 48Z"/>
</svg>