<svg xmlns="http://www.w3.org/2000/svg"
    viewBox="0 0 1000 1000">
  <!--
© 2014-2021 Adobe (http://www.adobe.com/).
Noto is a trademark of Google Inc.
This Font Software is licensed under the SIL Open Font License, Version 1.1. This Font Software is distributed on an "AS IS" BASIS, WITHOUT WARRANTIES OR CONDITIONS OF ANY KIND, either express or implied. See the SIL Open Font License for the specific language, permissions and limitations governing your use of this Font Software.
http://scripts.sil.org/OFL
  -->
<path d="M120 516L120 586 396 586 396 516 194 516 194 372 391 372 391 303 194 303 194 174C268 154 349 129 411 101L357 43C310 67 235 95 165 117L120 103ZM605 99L605 169 812 169 812 303 608 303 608 372 812 372 812 513 602 513 602 583 886 583 886 99ZM458 10L458 387C458 590 412 769 43 866 57 882 77 915 84 933 344 863 457 751 504 616 578 787 704 889 918 934 928 911 949 879 966 862 717 820 589 694 531 481 534 450 535 419 535 388L535 10Z"/>
</svg>