<svg xmlns="http://www.w3.org/2000/svg" name="gid10799" data-unicode="臿"
    viewBox="0 0 1000 1000">
  <!--
© 2014-2021 Adobe (http://www.adobe.com/).
Noto is a trademark of Google Inc.
This Font Software is licensed under the SIL Open Font License, Version 1.1. This Font Software is distributed on an "AS IS" BASIS, WITHOUT WARRANTIES OR CONDITIONS OF ANY KIND, either express or implied. See the SIL Open Font License for the specific language, permissions and limitations governing your use of this Font Software.
http://scripts.sil.org/OFL
  -->
<path d="M592 641L592 704 829 704 829 852 536 852 536 342 949 342 949 273 536 273 536 165 873 165 873 96 146 96 146 165 466 165 466 273 55 273 55 342 466 342 466 852 187 852 187 704 409 704 409 641 187 641 187 526C276 505 374 477 448 447L390 398C340 422 259 449 180 471L115 449 115 962 187 962 187 916 829 916 829 960 901 960 901 451 582 451 582 515 829 515 829 641Z"/>
</svg>