<svg xmlns="http://www.w3.org/2000/svg" name="gid10836" data-unicode="舮"
    viewBox="0 0 1000 1000">
  <!--
© 2014-2021 Adobe (http://www.adobe.com/).
Noto is a trademark of Google Inc.
This Font Software is licensed under the SIL Open Font License, Version 1.1. This Font Software is distributed on an "AS IS" BASIS, WITHOUT WARRANTIES OR CONDITIONS OF ANY KIND, either express or implied. See the SIL Open Font License for the specific language, permissions and limitations governing your use of this Font Software.
http://scripts.sil.org/OFL
  -->
<path d="M477 98L477 169 957 169 957 98ZM236 569L236 807 286 807 286 569ZM206 301C233 343 256 401 263 440L316 417C308 379 284 322 254 281ZM514 278L514 556C514 671 505 817 424 921 441 929 471 950 484 963 559 868 579 727 583 609L853 609 853 664 926 664 926 278ZM853 541L584 541 584 345 853 345ZM355 242L355 476 176 487 176 242ZM235 39C228 80 214 138 201 181L114 181 114 491 36 495 43 560 114 555C114 674 106 821 39 926 54 933 81 950 92 961 164 850 176 679 176 550L355 537 355 883C355 896 351 899 338 900 326 901 289 901 246 900 254 916 264 944 267 961 327 961 364 960 387 949 410 938 418 918 418 883L418 532 469 528 468 468 418 471 418 181 267 181C282 144 300 97 315 56Z"/>
</svg>