<svg xmlns="http://www.w3.org/2000/svg"
    viewBox="0 0 1000 1000">
  <!--
© 2014-2021 Adobe (http://www.adobe.com/).
Noto is a trademark of Google Inc.
This Font Software is licensed under the SIL Open Font License, Version 1.1. This Font Software is distributed on an "AS IS" BASIS, WITHOUT WARRANTIES OR CONDITIONS OF ANY KIND, either express or implied. See the SIL Open Font License for the specific language, permissions and limitations governing your use of this Font Software.
http://scripts.sil.org/OFL
  -->
<path d="M226 537L226 776 275 776 275 537ZM201 268C226 311 250 369 257 407L308 385C300 348 276 291 248 249ZM456 156L456 336 524 336 524 221 878 221 878 336 949 336 949 156 735 156 735 12 662 12 662 156ZM868 409C804 455 704 511 619 552L619 326 549 326 549 805C549 895 574 919 671 919 691 919 827 919 849 919 936 919 957 877 965 731 946 726 917 714 901 701 896 829 889 854 844 854 814 854 700 854 678 854 628 854 619 846 619 806L619 619C712 579 833 516 919 458ZM343 208L343 443 170 454 170 208ZM231 9C223 48 208 105 194 147L108 147 108 458 36 462 44 526 108 521C108 641 100 790 34 897 49 903 76 920 87 931 158 819 170 646 170 517L343 504 343 851C343 864 338 868 326 868 315 869 277 869 233 868 242 885 252 912 255 929 315 929 351 928 375 917 398 906 406 887 406 852L406 499 464 495 463 434 406 438 406 147 261 147C277 111 295 66 311 26Z"/>
</svg>