<svg xmlns="http://www.w3.org/2000/svg"
    viewBox="0 0 1000 1000">
  <!--
© 2014-2021 Adobe (http://www.adobe.com/).
Noto is a trademark of Google Inc.
This Font Software is licensed under the SIL Open Font License, Version 1.1. This Font Software is distributed on an "AS IS" BASIS, WITHOUT WARRANTIES OR CONDITIONS OF ANY KIND, either express or implied. See the SIL Open Font License for the specific language, permissions and limitations governing your use of this Font Software.
http://scripts.sil.org/OFL
  -->
<path d="M226 537L226 776 275 776 275 537ZM201 268C226 311 250 369 257 407L308 385C300 348 276 291 248 249ZM441 77L441 147 819 147 819 834C819 851 813 856 795 857 778 858 719 857 655 855 666 877 676 910 680 930 762 930 818 928 849 917 880 904 891 882 891 834L891 147 962 147 962 77ZM552 349L676 349 676 603 552 603ZM493 289L493 733 552 733 552 662 735 662 735 289ZM343 208L343 443 170 454 170 208ZM231 9C223 48 208 105 194 147L108 147 108 458 36 462 45 526 108 521C108 641 100 790 34 897 49 903 76 920 87 931 158 819 170 646 170 517L343 504 343 851C343 864 338 868 326 868 315 869 277 869 233 868 242 885 252 912 255 929 315 929 351 928 375 917 398 906 406 887 406 852L406 499 464 495 463 434 406 438 406 147 261 147C277 111 295 66 311 26Z"/>
</svg>