<svg xmlns="http://www.w3.org/2000/svg" name="gid10860" data-unicode="艘"
    viewBox="0 0 1000 1000">
  <!--
© 2014-2021 Adobe (http://www.adobe.com/).
Noto is a trademark of Google Inc.
This Font Software is licensed under the SIL Open Font License, Version 1.1. This Font Software is distributed on an "AS IS" BASIS, WITHOUT WARRANTIES OR CONDITIONS OF ANY KIND, either express or implied. See the SIL Open Font License for the specific language, permissions and limitations governing your use of this Font Software.
http://scripts.sil.org/OFL
  -->
<path d="M221 567L221 805 269 805 269 567ZM196 298C218 341 238 400 244 438L294 418C288 381 266 323 243 280ZM450 562L450 626 558 626 504 644C536 708 580 764 634 811 565 853 485 882 404 899 418 914 435 943 441 961 530 938 616 904 690 856 759 904 839 939 928 961 938 941 959 912 976 897 892 880 816 851 751 811 822 752 879 676 913 579L868 560 855 562 727 562 727 41 662 41 662 562ZM329 238L329 472 166 483 166 238ZM231 39C224 79 209 135 195 177L106 177 106 487 35 491 42 554 106 549C106 670 98 822 33 928 48 935 74 951 85 962 155 848 166 674 166 545L329 533 329 881C329 894 325 898 314 898 302 899 264 899 221 898 230 915 239 942 242 959 301 959 338 958 361 947 384 936 392 917 392 882L392 528 445 524 444 464 392 468 392 177 260 177 310 55ZM817 626C787 683 744 731 692 771 640 730 598 681 569 626ZM767 432L767 492 932 492 932 123 768 123 768 183 869 183 869 275 773 275 773 332 869 332 869 432ZM607 66C581 88 537 119 500 141L463 129 463 492 621 492 621 432 523 432 523 332 617 332 617 275 523 275 523 188C562 169 611 140 650 108Z"/>
</svg>