<svg xmlns="http://www.w3.org/2000/svg" name="gid10864" data-unicode="艝"
    viewBox="0 0 1000 1000">
  <!--
© 2014-2021 Adobe (http://www.adobe.com/).
Noto is a trademark of Google Inc.
This Font Software is licensed under the SIL Open Font License, Version 1.1. This Font Software is distributed on an "AS IS" BASIS, WITHOUT WARRANTIES OR CONDITIONS OF ANY KIND, either express or implied. See the SIL Open Font License for the specific language, permissions and limitations governing your use of this Font Software.
http://scripts.sil.org/OFL
  -->
<path d="M215 567L215 806 263 806 263 567ZM187 297C208 342 227 401 231 439L282 420C276 382 256 324 234 280ZM743 328L743 382 872 382 872 328ZM477 449L477 503 621 503 621 449ZM744 449L744 503 891 503 891 449ZM319 238L319 474 163 485 163 238ZM223 39C217 78 201 135 187 177L103 177 103 489 34 493 42 556 103 552C102 672 94 822 32 928 46 935 73 951 84 962 150 849 162 676 163 547L319 535 319 881C319 894 315 898 303 898 291 899 253 899 210 898 219 915 228 942 231 959 291 959 327 958 350 947 373 936 381 917 381 882L381 530 437 526 436 465 381 469 381 177 253 177C269 141 287 96 303 55ZM481 579L481 638 818 638 818 722 423 722 423 782 818 782 818 868 480 868 480 928 818 928 818 960 887 960 887 782 961 782 961 722 887 722 887 579ZM436 209L436 366 496 366 496 382 621 382 621 328 499 328 499 264 649 264 649 543 714 543 714 264 874 264 874 366 937 366 937 209 714 209 714 144 924 144 924 84 454 84 454 144 649 144 649 209Z"/>
</svg>