<svg xmlns="http://www.w3.org/2000/svg"
    viewBox="0 0 1000 1000">
  <!--
© 2014-2021 Adobe (http://www.adobe.com/).
Noto is a trademark of Google Inc.
This Font Software is licensed under the SIL Open Font License, Version 1.1. This Font Software is distributed on an "AS IS" BASIS, WITHOUT WARRANTIES OR CONDITIONS OF ANY KIND, either express or implied. See the SIL Open Font License for the specific language, permissions and limitations governing your use of this Font Software.
http://scripts.sil.org/OFL
  -->
<path d="M621 362L710 362 710 553 621 553ZM621 302L607 302C628 264 648 223 666 179L782 179C766 221 745 267 725 302ZM75 325C68 411 53 524 39 594L97 600 102 567 180 567C170 690 139 801 49 889 64 898 88 917 99 930 198 831 231 706 241 567L312 567 312 929 372 929 372 567 451 567C447 680 443 721 435 733 431 740 425 742 417 741 409 741 395 741 377 739 384 754 389 777 391 794 411 795 433 794 447 793 465 791 477 785 488 771 503 750 508 692 512 530 513 522 513 505 513 505L372 505 372 387 501 387 501 347C518 356 544 373 556 382L559 378 559 808C559 901 584 922 674 922 694 922 833 922 853 922 934 922 955 882 964 750 945 745 918 733 903 722 898 833 892 855 850 855 820 855 701 855 679 855 630 855 621 847 621 809L621 613 860 613 860 653 923 653 923 302 791 302C818 253 847 193 866 140L823 114 812 117 690 117C701 87 710 56 719 25L651 11C619 133 567 257 501 338L501 139 372 139 372 12 312 12 312 139 245 139 245 11 185 11 185 139 52 139 52 201 185 201 185 325ZM860 553L766 553 766 362 860 362ZM185 387L185 434 184 505 111 505 126 387ZM245 387L312 387 312 505 244 505 245 435ZM245 201L312 201 312 325 245 325ZM372 201L440 201 440 325 372 325Z"/>
</svg>