<svg xmlns="http://www.w3.org/2000/svg"
    viewBox="0 0 1000 1000">
  <!--
© 2014-2021 Adobe (http://www.adobe.com/).
Noto is a trademark of Google Inc.
This Font Software is licensed under the SIL Open Font License, Version 1.1. This Font Software is distributed on an "AS IS" BASIS, WITHOUT WARRANTIES OR CONDITIONS OF ANY KIND, either express or implied. See the SIL Open Font License for the specific language, permissions and limitations governing your use of this Font Software.
http://scripts.sil.org/OFL
  -->
<path d="M153 578L393 578 393 666 153 666ZM129 730C146 765 161 812 164 843L222 828C217 798 201 752 183 718ZM42 420L42 478 500 478 500 420ZM121 255L188 255 188 323 121 323ZM236 255L304 255 304 323 236 323ZM352 255L425 255 425 323 352 323ZM121 140L188 140 188 208 121 208ZM236 140L304 140 304 208 236 208ZM352 140L425 140 425 208 352 208ZM304 9L304 91 236 91 236 9 178 9 178 91 68 91 68 372 480 372 480 341C497 352 524 374 535 384L542 375 542 804C542 894 570 916 663 916 684 916 828 916 849 916 933 916 955 879 963 751 944 746 916 735 901 723 895 831 888 852 845 852 814 852 692 852 669 852 619 852 610 844 610 804L610 605 871 605 871 648 939 648 939 292 792 292C818 244 844 187 862 138L818 112 807 115 679 115C690 86 700 56 709 26L639 9C605 132 549 255 480 335L480 91 361 91 361 9ZM36 859L45 921C165 909 338 891 503 874L503 815 364 829C378 799 394 760 411 722L387 716 460 716 460 528 87 528 87 716 344 716C335 749 319 794 307 823L333 832ZM610 352L708 352 708 543 610 543ZM610 292L597 292C617 256 637 218 654 177L776 177C761 215 742 258 723 292ZM871 543L766 543 766 352 871 352Z"/>
</svg>