<svg xmlns="http://www.w3.org/2000/svg"
    viewBox="0 0 1000 1000">
  <!--
© 2014-2021 Adobe (http://www.adobe.com/).
Noto is a trademark of Google Inc.
This Font Software is licensed under the SIL Open Font License, Version 1.1. This Font Software is distributed on an "AS IS" BASIS, WITHOUT WARRANTIES OR CONDITIONS OF ANY KIND, either express or implied. See the SIL Open Font License for the specific language, permissions and limitations governing your use of this Font Software.
http://scripts.sil.org/OFL
  -->
<path d="M628 10L628 113 367 113 367 10 294 10 294 113 64 113 64 182 294 182 294 280 367 280 367 182 628 182 628 280 703 280 703 182 937 182 937 113 703 113 703 10ZM57 536L57 607 467 607 467 830C467 847 461 852 441 852 421 853 350 853 275 851 288 871 301 904 305 926 398 926 459 925 494 913 530 901 543 879 543 831L543 607 944 607 944 536 543 536 543 382 873 382 873 311 135 311 135 382 467 382 467 536Z"/>
</svg>