<svg xmlns="http://www.w3.org/2000/svg"
    viewBox="0 0 1000 1000">
  <!--
© 2014-2021 Adobe (http://www.adobe.com/).
Noto is a trademark of Google Inc.
This Font Software is licensed under the SIL Open Font License, Version 1.1. This Font Software is distributed on an "AS IS" BASIS, WITHOUT WARRANTIES OR CONDITIONS OF ANY KIND, either express or implied. See the SIL Open Font License for the specific language, permissions and limitations governing your use of this Font Software.
http://scripts.sil.org/OFL
  -->
<path d="M188 454C167 542 133 655 105 728L184 740 201 690 804 690C784 786 761 834 737 853 724 862 711 862 688 862 660 862 587 861 517 854 531 874 541 904 542 926 612 930 677 931 710 929 748 928 771 923 795 904 834 872 860 803 888 657 892 646 894 623 894 623L221 623 250 521 838 521 838 277 137 277 137 344 763 344 763 454ZM635 10L635 95 361 95 361 10 287 10 287 95 62 95 62 163 287 163 287 253 361 253 361 163 635 163 635 253 709 253 709 163 941 163 941 95 709 95 709 10Z"/>
</svg>