<svg xmlns="http://www.w3.org/2000/svg" name="gid10908" data-unicode="芝"
    viewBox="0 0 1000 1000">
  <!--
© 2014-2021 Adobe (http://www.adobe.com/).
Noto is a trademark of Google Inc.
This Font Software is licensed under the SIL Open Font License, Version 1.1. This Font Software is distributed on an "AS IS" BASIS, WITHOUT WARRANTIES OR CONDITIONS OF ANY KIND, either express or implied. See the SIL Open Font License for the specific language, permissions and limitations governing your use of this Font Software.
http://scripts.sil.org/OFL
  -->
<path d="M118 954C153 908 188 854 218 804 303 915 436 938 639 938L930 938C933 916 946 883 957 866 905 867 680 867 642 867 534 866 444 861 374 835 554 736 739 576 845 428L791 393 775 397 535 397 535 262 461 262 461 397 128 397 128 467 718 467C620 584 458 718 303 796 284 780 267 762 254 740L279 693 214 661C177 740 109 849 50 914ZM636 40L636 144 361 144 361 40 287 40 287 144 64 144 64 213 287 213 287 312 361 312 361 213 636 213 636 312 710 312 710 213 937 213 937 144 710 144 710 40Z"/>
</svg>