<svg xmlns="http://www.w3.org/2000/svg"
    viewBox="0 0 1000 1000">
  <!--
© 2014-2021 Adobe (http://www.adobe.com/).
Noto is a trademark of Google Inc.
This Font Software is licensed under the SIL Open Font License, Version 1.1. This Font Software is distributed on an "AS IS" BASIS, WITHOUT WARRANTIES OR CONDITIONS OF ANY KIND, either express or implied. See the SIL Open Font License for the specific language, permissions and limitations governing your use of this Font Software.
http://scripts.sil.org/OFL
  -->
<path d="M118 924C153 878 188 824 218 774 303 885 436 908 639 908L930 908C933 886 946 853 957 836 905 837 680 837 642 837 534 836 444 831 374 805 554 706 739 546 845 398L791 363 775 367 535 367 535 232 461 232 461 367 128 367 128 437 718 437C620 554 458 688 303 766 284 750 267 732 254 710L279 663 214 631C177 710 109 819 50 884ZM636 10L636 114 361 114 361 10 287 10 287 114 64 114 64 183 287 183 287 282 361 282 361 183 636 183 636 282 710 282 710 183 937 183 937 114 710 114 710 10Z"/>
</svg>