<svg xmlns="http://www.w3.org/2000/svg" name="gid10928" data-unicode="芳"
    viewBox="0 0 1000 1000">
  <!--
© 2014-2021 Adobe (http://www.adobe.com/).
Noto is a trademark of Google Inc.
This Font Software is licensed under the SIL Open Font License, Version 1.1. This Font Software is distributed on an "AS IS" BASIS, WITHOUT WARRANTIES OR CONDITIONS OF ANY KIND, either express or implied. See the SIL Open Font License for the specific language, permissions and limitations governing your use of this Font Software.
http://scripts.sil.org/OFL
  -->
<path d="M55 383L55 453 341 453C322 642 278 816 36 902 52 917 74 945 83 964 267 894 349 776 388 637L748 637C732 793 714 862 691 883 680 892 667 893 646 893 621 893 555 892 490 886 504 906 513 936 515 957 579 961 641 962 673 960 709 958 732 951 753 930 788 897 807 811 827 603 829 591 830 569 830 569L404 569C411 531 416 493 420 453L947 453 947 383 536 383 536 254 461 254 461 383ZM635 40L635 126 361 126 361 40 287 40 287 126 62 126 62 194 287 194 287 294 361 294 361 194 635 194 635 294 709 294 709 194 941 194 941 126 709 126 709 40Z"/>
</svg>