<svg xmlns="http://www.w3.org/2000/svg" name="gid10933" data-unicode="芺"
    viewBox="0 0 1000 1000">
  <!--
© 2014-2021 Adobe (http://www.adobe.com/).
Noto is a trademark of Google Inc.
This Font Software is licensed under the SIL Open Font License, Version 1.1. This Font Software is distributed on an "AS IS" BASIS, WITHOUT WARRANTIES OR CONDITIONS OF ANY KIND, either express or implied. See the SIL Open Font License for the specific language, permissions and limitations governing your use of this Font Software.
http://scripts.sil.org/OFL
  -->
<path d="M637 40L637 123 359 123 359 40 285 40 285 123 63 123 63 191 285 191 285 294 359 294 359 191 637 191 637 284 711 284 711 191 939 191 939 123 711 123 711 40ZM817 270C656 317 355 345 109 355 116 372 125 400 126 419 233 415 350 408 463 397 459 445 453 491 445 534L55 534 55 602 427 602C383 736 286 841 51 898 67 913 86 942 94 961 345 895 453 775 503 622 578 797 709 910 909 960 919 939 939 909 956 893 767 853 638 753 570 602L948 602 948 534 526 534C535 488 541 439 545 389 666 375 777 356 863 331Z"/>
</svg>