<svg xmlns="http://www.w3.org/2000/svg"
    viewBox="0 0 1000 1000">
  <!--
© 2014-2021 Adobe (http://www.adobe.com/).
Noto is a trademark of Google Inc.
This Font Software is licensed under the SIL Open Font License, Version 1.1. This Font Software is distributed on an "AS IS" BASIS, WITHOUT WARRANTIES OR CONDITIONS OF ANY KIND, either express or implied. See the SIL Open Font License for the specific language, permissions and limitations governing your use of this Font Software.
http://scripts.sil.org/OFL
  -->
<path d="M609 371L609 734 681 734 681 371ZM812 250L812 840C812 853 808 857 795 857 781 858 738 858 692 856 702 877 713 909 716 929 781 929 823 928 851 916 878 903 887 882 887 841L887 250ZM430 273C406 354 372 439 330 520 270 449 207 379 150 318L94 358C158 427 228 508 292 588 230 691 153 785 61 855 78 867 103 891 117 905 204 835 278 747 340 650 391 718 435 782 464 834L528 785C494 728 441 656 380 581 432 488 474 388 506 291ZM637 10L637 99 358 99 358 10 284 10 284 99 62 99 62 168 284 168 284 271 358 271 358 168 637 168 637 271 711 271 711 168 941 168 941 99 711 99 711 10Z"/>
</svg>