<svg xmlns="http://www.w3.org/2000/svg"
    viewBox="0 0 1000 1000">
  <!--
© 2014-2021 Adobe (http://www.adobe.com/).
Noto is a trademark of Google Inc.
This Font Software is licensed under the SIL Open Font License, Version 1.1. This Font Software is distributed on an "AS IS" BASIS, WITHOUT WARRANTIES OR CONDITIONS OF ANY KIND, either express or implied. See the SIL Open Font License for the specific language, permissions and limitations governing your use of this Font Software.
http://scripts.sil.org/OFL
  -->
<path d="M294 430L294 491 716 491 716 431C787 470 863 503 931 526 942 506 961 477 977 459 821 416 645 325 532 212L457 212C372 312 203 414 31 470 47 487 65 515 73 534 149 506 225 470 294 430ZM498 276C552 329 626 381 706 426L300 426C381 379 451 326 498 276ZM115 578L115 647 396 647 396 932 470 932 470 647 771 647 771 793C771 805 767 808 750 809 734 811 679 811 614 809 624 828 636 856 641 877 720 877 772 876 804 865 836 854 845 832 845 794L845 578ZM635 10L635 87 357 87 357 10 283 10 283 87 62 87 62 155 283 155 283 259 357 259 357 155 635 155 635 259 709 259 709 155 941 155 941 87 709 87 709 10Z"/>
</svg>