<svg xmlns="http://www.w3.org/2000/svg"
    viewBox="0 0 1000 1000">
  <!--
© 2014-2021 Adobe (http://www.adobe.com/).
Noto is a trademark of Google Inc.
This Font Software is licensed under the SIL Open Font License, Version 1.1. This Font Software is distributed on an "AS IS" BASIS, WITHOUT WARRANTIES OR CONDITIONS OF ANY KIND, either express or implied. See the SIL Open Font License for the specific language, permissions and limitations governing your use of this Font Software.
http://scripts.sil.org/OFL
  -->
<path d="M170 287L170 928 244 928 244 878 754 878 754 928 831 928 831 287ZM244 809L244 698 754 698 754 809ZM244 526L754 526 754 633 244 633ZM244 461L244 356 754 356 754 461ZM635 10L635 101 362 101 362 10 287 10 287 101 62 101 62 169 287 169 287 259 362 259 362 169 635 169 635 259 710 259 710 169 940 169 940 101 710 101 710 10Z"/>
</svg>