<svg xmlns="http://www.w3.org/2000/svg"
    viewBox="0 0 1000 1000">
  <!--
© 2014-2021 Adobe (http://www.adobe.com/).
Noto is a trademark of Google Inc.
This Font Software is licensed under the SIL Open Font License, Version 1.1. This Font Software is distributed on an "AS IS" BASIS, WITHOUT WARRANTIES OR CONDITIONS OF ANY KIND, either express or implied. See the SIL Open Font License for the specific language, permissions and limitations governing your use of this Font Software.
http://scripts.sil.org/OFL
  -->
<path d="M410 805L410 717C567 686 742 642 859 589L796 535C708 580 554 623 410 654L410 511 337 511 337 807C337 898 373 921 503 921 530 921 752 921 782 921 893 921 919 886 931 753 910 748 878 737 860 724 854 833 844 851 779 851 730 851 540 851 503 851 424 851 410 843 410 805ZM876 246L157 246 157 453C157 584 144 762 36 889 54 897 86 919 99 933 205 806 228 621 231 480L876 480ZM231 309L801 309 801 416 231 416ZM941 88L703 88 703 10 629 10 629 88 367 88 367 10 293 10 293 88 63 88 63 156 293 156 293 221 367 221 367 156 629 156 629 221 703 221 703 156 941 156Z"/>
</svg>