<svg xmlns="http://www.w3.org/2000/svg"
    viewBox="0 0 1000 1000">
  <!--
© 2014-2021 Adobe (http://www.adobe.com/).
Noto is a trademark of Google Inc.
This Font Software is licensed under the SIL Open Font License, Version 1.1. This Font Software is distributed on an "AS IS" BASIS, WITHOUT WARRANTIES OR CONDITIONS OF ANY KIND, either express or implied. See the SIL Open Font License for the specific language, permissions and limitations governing your use of this Font Software.
http://scripts.sil.org/OFL
  -->
<path d="M155 430C138 512 112 617 90 683L165 694 174 664 334 664C308 749 243 820 87 870 101 884 120 914 128 931 315 869 386 777 411 664L575 664 575 930 647 930 647 664 844 664C836 732 826 762 815 773 808 780 800 781 786 781 771 781 734 781 695 776 706 795 713 821 714 841 757 844 797 843 819 842 843 840 859 835 875 820 897 798 909 746 921 629 922 618 923 599 923 599L647 599 647 502 876 502 876 274 647 274 647 212 702 212 702 140 942 140 942 74 702 74 702 10 629 10 629 74 366 74 366 10 293 10 293 74 61 74 61 140 293 140 293 212 351 212 351 274 102 274 102 339 351 339 351 439 230 439ZM575 210L575 274 423 274 423 210 366 210 366 140 629 140 629 210ZM575 599L420 599C422 575 423 551 423 526L423 502 575 502ZM192 599L216 502 351 502 351 526C351 551 350 575 347 599ZM575 339L575 439 423 439 423 339ZM647 339L801 339 801 439 647 439Z"/>
</svg>