<svg xmlns="http://www.w3.org/2000/svg"
    viewBox="0 0 1000 1000">
  <!--
© 2014-2021 Adobe (http://www.adobe.com/).
Noto is a trademark of Google Inc.
This Font Software is licensed under the SIL Open Font License, Version 1.1. This Font Software is distributed on an "AS IS" BASIS, WITHOUT WARRANTIES OR CONDITIONS OF ANY KIND, either express or implied. See the SIL Open Font License for the specific language, permissions and limitations governing your use of this Font Software.
http://scripts.sil.org/OFL
  -->
<path d="M75 865L127 927C201 851 289 754 358 669L317 612C239 704 140 806 75 865ZM116 322C175 355 258 405 299 435L342 378C299 350 217 304 158 273ZM56 512C118 541 202 584 244 611L286 553C242 527 157 487 97 461ZM410 309L410 785C410 888 446 913 565 913 591 913 787 913 815 913 923 913 948 872 960 735 938 730 906 717 888 705 881 819 871 841 811 841 769 841 601 841 568 841 500 841 487 832 487 785L487 380 796 380 796 562C796 575 792 579 773 580 755 581 694 581 623 579 635 599 648 629 652 650 737 650 793 649 827 638 862 626 871 604 871 562L871 309ZM638 10L638 97 359 97 359 10 283 10 283 97 58 97 58 167 283 167 283 264 359 264 359 167 638 167 638 264 715 264 715 167 944 167 944 97 715 97 715 10Z"/>
</svg>