<svg xmlns="http://www.w3.org/2000/svg" name="gid10989" data-unicode="茌"
    viewBox="0 0 1000 1000">
  <!--
© 2014-2021 Adobe (http://www.adobe.com/).
Noto is a trademark of Google Inc.
This Font Software is licensed under the SIL Open Font License, Version 1.1. This Font Software is distributed on an "AS IS" BASIS, WITHOUT WARRANTIES OR CONDITIONS OF ANY KIND, either express or implied. See the SIL Open Font License for the specific language, permissions and limitations governing your use of this Font Software.
http://scripts.sil.org/OFL
  -->
<path d="M634 40L634 122 362 122 362 40 288 40 288 122 60 122 60 192 288 192 288 275 362 275 362 192 634 192 634 275 708 275 708 192 942 192 942 122 708 122 708 40ZM340 865L340 937 933 937 933 865 669 865 669 563 951 563 951 491 669 491 669 292 594 292 594 491 317 491 317 563 594 563 594 865ZM265 278C214 397 124 510 31 582 44 599 66 638 73 655 108 626 142 592 175 554L175 959 250 959 250 456C284 407 313 354 337 301Z"/>
</svg>