<svg xmlns="http://www.w3.org/2000/svg"
    viewBox="0 0 1000 1000">
  <!--
© 2014-2021 Adobe (http://www.adobe.com/).
Noto is a trademark of Google Inc.
This Font Software is licensed under the SIL Open Font License, Version 1.1. This Font Software is distributed on an "AS IS" BASIS, WITHOUT WARRANTIES OR CONDITIONS OF ANY KIND, either express or implied. See the SIL Open Font License for the specific language, permissions and limitations governing your use of this Font Software.
http://scripts.sil.org/OFL
  -->
<path d="M324 383L324 759 392 759 392 383ZM147 262L147 929 221 929 221 890 938 890 938 821 575 821 575 706 833 706 833 434 575 434 575 331 911 331 911 262ZM503 668L503 706 503 821 221 821 221 331 503 331 503 502 759 502 759 638 503 638ZM63 84L63 153 292 153 292 236 365 236 365 153 630 153 630 236 703 236 703 153 940 153 940 84 703 84 703 10 630 10 630 84 365 84 365 10 292 10 292 84Z"/>
</svg>