<svg xmlns="http://www.w3.org/2000/svg" name="gid11017" data-unicode="茹"
    viewBox="0 0 1000 1000">
  <!--
© 2014-2021 Adobe (http://www.adobe.com/).
Noto is a trademark of Google Inc.
This Font Software is licensed under the SIL Open Font License, Version 1.1. This Font Software is distributed on an "AS IS" BASIS, WITHOUT WARRANTIES OR CONDITIONS OF ANY KIND, either express or implied. See the SIL Open Font License for the specific language, permissions and limitations governing your use of this Font Software.
http://scripts.sil.org/OFL
  -->
<path d="M545 364L545 940 616 940 616 867 831 867 831 932 905 932 905 364ZM616 798L616 434 831 434 831 798ZM635 40L635 131 361 131 361 40 287 40 287 131 57 131 57 200 287 200 287 282 250 276 206 400 66 400 66 468 180 468C145 562 106 655 76 722L141 749 163 700C202 721 242 746 280 771 222 835 148 877 61 902 75 917 91 944 100 963 196 931 276 884 339 813 384 847 424 881 450 912L500 856C472 824 430 789 382 755 437 670 474 557 492 407L448 397 435 400 281 400 316 301 361 301 361 200 635 200 635 303 709 303 709 200 944 200 944 131 709 131 709 40ZM255 468L413 468C396 569 365 651 323 715 279 687 232 661 188 639 210 585 233 527 255 468Z"/>
</svg>