<svg xmlns="http://www.w3.org/2000/svg" name="gid11041" data-unicode="荘"
    viewBox="0 0 1000 1000">
  <!--
© 2014-2021 Adobe (http://www.adobe.com/).
Noto is a trademark of Google Inc.
This Font Software is licensed under the SIL Open Font License, Version 1.1. This Font Software is distributed on an "AS IS" BASIS, WITHOUT WARRANTIES OR CONDITIONS OF ANY KIND, either express or implied. See the SIL Open Font License for the specific language, permissions and limitations governing your use of this Font Software.
http://scripts.sil.org/OFL
  -->
<path d="M59 392C109 449 161 527 181 578L249 549C227 497 173 421 122 366ZM627 321L627 504 375 504 375 575 627 575 627 853 399 853 399 924 943 924 943 853 701 853 701 575 952 575 952 504 701 504 701 321ZM34 772L69 842 254 734 254 959 328 959 328 321 254 321 254 656C172 701 91 745 34 772ZM635 40L635 123 361 123 361 40 287 40 287 123 59 123 59 191 287 191 287 290 361 290 361 191 635 191 635 290 709 290 709 191 944 191 944 123 709 123 709 40Z"/>
</svg>