<svg xmlns="http://www.w3.org/2000/svg" name="gid11052" data-unicode="荽"
    viewBox="0 0 1000 1000">
  <!--
© 2014-2021 Adobe (http://www.adobe.com/).
Noto is a trademark of Google Inc.
This Font Software is licensed under the SIL Open Font License, Version 1.1. This Font Software is distributed on an "AS IS" BASIS, WITHOUT WARRANTIES OR CONDITIONS OF ANY KIND, either express or implied. See the SIL Open Font License for the specific language, permissions and limitations governing your use of this Font Software.
http://scripts.sil.org/OFL
  -->
<path d="M702 337C758 393 820 470 847 522L911 487C883 436 819 359 763 306ZM439 362C463 411 486 475 492 515L559 496C552 455 527 393 503 345ZM60 110L60 174 290 174 290 248 363 248 363 174 631 174 631 244 704 244 704 174 943 174 943 110 704 110 704 40 631 40 631 110 363 110 363 40 290 40 290 110ZM207 285C184 353 135 437 79 490 96 499 123 519 137 531 184 487 226 422 257 357 452 346 680 321 829 282L773 228C656 260 445 285 260 298ZM381 417C361 456 337 500 312 544L45 544 45 611 273 611C239 669 205 725 176 767L247 791 263 766C329 781 394 798 456 816 359 859 231 884 66 895 80 912 92 940 97 961 295 943 444 908 553 844 674 882 782 922 863 959L912 896C836 863 736 827 624 793 679 745 720 685 750 611L956 611 956 544 397 544 458 434ZM358 611L669 611C638 676 596 728 540 768 462 746 381 726 300 708Z"/>
</svg>