<svg xmlns="http://www.w3.org/2000/svg"
    viewBox="0 0 1000 1000">
  <!--
© 2014-2021 Adobe (http://www.adobe.com/).
Noto is a trademark of Google Inc.
This Font Software is licensed under the SIL Open Font License, Version 1.1. This Font Software is distributed on an "AS IS" BASIS, WITHOUT WARRANTIES OR CONDITIONS OF ANY KIND, either express or implied. See the SIL Open Font License for the specific language, permissions and limitations governing your use of this Font Software.
http://scripts.sil.org/OFL
  -->
<path d="M292 821L292 890 957 890 957 821ZM406 473C446 578 474 715 476 803L549 789C545 699 516 563 472 458ZM764 452C747 556 709 706 678 795L743 808C775 720 812 579 839 465ZM635 10L635 87 361 87 361 10 287 10 287 87 62 87 62 155 287 155 287 253 361 253 361 155 635 155 635 247 581 247 581 361 321 361 321 430 934 430 934 361 655 361 655 253 709 253 709 155 941 155 941 87 709 87 709 10ZM234 245C190 366 115 485 28 560 46 573 75 600 87 614 114 588 141 557 166 523L166 931 239 931 239 410C265 363 289 314 308 264Z"/>
</svg>