<svg xmlns="http://www.w3.org/2000/svg" name="gid11058" data-unicode="莆"
    viewBox="0 0 1000 1000">
  <!--
© 2014-2021 Adobe (http://www.adobe.com/).
Noto is a trademark of Google Inc.
This Font Software is licensed under the SIL Open Font License, Version 1.1. This Font Software is distributed on an "AS IS" BASIS, WITHOUT WARRANTIES OR CONDITIONS OF ANY KIND, either express or implied. See the SIL Open Font License for the specific language, permissions and limitations governing your use of this Font Software.
http://scripts.sil.org/OFL
  -->
<path d="M154 458L154 960 228 960 228 799 474 799 474 955 549 955 549 799 792 799 792 877C792 891 787 895 771 896 756 897 699 897 640 895 649 913 660 939 663 957 744 957 797 957 827 947 857 936 867 917 867 877L867 458 549 458 549 389 930 389 930 329 856 329 884 290C844 271 771 241 716 221L706 233 706 174 947 174 947 108 706 108 706 40 632 40 632 108 361 108 361 40 287 40 287 108 56 108 56 174 287 174 287 253 361 253 361 174 632 174 632 248 694 248 682 262C731 280 793 308 835 329L549 329 549 227 474 227 474 324 75 324 75 388 474 388 474 458ZM474 659L474 742 228 742 228 659ZM549 659L792 659 792 742 549 742ZM474 602L228 602 228 521 474 521ZM549 602L549 521 792 521 792 602Z"/>
</svg>