<svg xmlns="http://www.w3.org/2000/svg"
    viewBox="0 0 1000 1000">
  <!--
© 2014-2021 Adobe (http://www.adobe.com/).
Noto is a trademark of Google Inc.
This Font Software is licensed under the SIL Open Font License, Version 1.1. This Font Software is distributed on an "AS IS" BASIS, WITHOUT WARRANTIES OR CONDITIONS OF ANY KIND, either express or implied. See the SIL Open Font License for the specific language, permissions and limitations governing your use of this Font Software.
http://scripts.sil.org/OFL
  -->
<path d="M259 376C283 418 305 475 316 512L55 512 55 581 459 581 459 696 120 696 120 764 459 764 459 930 536 930 536 764 880 764 880 696 536 696 536 581 945 581 945 512 670 512C693 476 720 425 743 378L682 360 855 360 855 293 535 293 535 204 461 204 461 293 145 293 145 360 317 360ZM325 360L667 360C651 402 624 462 603 500L640 512 341 512 387 498C377 461 352 403 325 360ZM62 100L62 168 288 168 288 244 361 244 361 168 633 168 633 244 706 244 706 168 940 168 940 100 706 100 706 10 633 10 633 100 361 100 361 10 288 10 288 100Z"/>
</svg>