<svg xmlns="http://www.w3.org/2000/svg"
    viewBox="0 0 1000 1000">
  <!--
© 2014-2021 Adobe (http://www.adobe.com/).
Noto is a trademark of Google Inc.
This Font Software is licensed under the SIL Open Font License, Version 1.1. This Font Software is distributed on an "AS IS" BASIS, WITHOUT WARRANTIES OR CONDITIONS OF ANY KIND, either express or implied. See the SIL Open Font License for the specific language, permissions and limitations governing your use of this Font Software.
http://scripts.sil.org/OFL
  -->
<path d="M664 351C576 377 406 395 266 403 273 417 281 438 283 451 341 449 403 444 464 438L464 516 235 516 235 574 432 574C376 640 291 703 215 735 229 746 249 769 258 785 329 750 407 688 464 620L464 795 531 795 531 618C587 684 665 748 734 782 744 767 764 745 778 734 703 702 616 639 563 574L766 574 766 516 531 516 531 431C600 422 664 410 715 396ZM627 10L627 77 369 77 369 10 295 10 295 77 58 77 58 144 295 144 295 225 369 225 369 144 627 144 627 225 701 225 701 144 942 144 942 77 701 77 701 10ZM121 259L121 931 192 931 192 891 810 891 810 931 884 931 884 259ZM192 825L192 324 810 324 810 825Z"/>
</svg>