<svg xmlns="http://www.w3.org/2000/svg"
    viewBox="0 0 1000 1000">
  <!--
© 2014-2021 Adobe (http://www.adobe.com/).
Noto is a trademark of Google Inc.
This Font Software is licensed under the SIL Open Font License, Version 1.1. This Font Software is distributed on an "AS IS" BASIS, WITHOUT WARRANTIES OR CONDITIONS OF ANY KIND, either express or implied. See the SIL Open Font License for the specific language, permissions and limitations governing your use of this Font Software.
http://scripts.sil.org/OFL
  -->
<path d="M629 10L629 81 368 81 368 10 294 10 294 81 58 81 58 148 294 148 294 223 368 223 368 148 629 148 629 223 703 223 703 148 945 148 945 81 703 81 703 10ZM575 227L575 930 649 930 649 735 955 735 955 666 649 666 649 552 908 552 908 487 649 487 649 378 930 378 930 312 649 312 649 227ZM345 227L345 312 79 312 79 378 345 378 345 485 101 485 101 550 345 550C344 583 341 614 333 645 224 662 118 680 44 689L56 760 306 715C272 777 207 831 90 872 105 886 126 914 134 932 384 842 418 695 418 525L418 227Z"/>
</svg>