<svg xmlns="http://www.w3.org/2000/svg" name="gid11128" data-unicode="菽"
    viewBox="0 0 1000 1000">
  <!--
© 2014-2021 Adobe (http://www.adobe.com/).
Noto is a trademark of Google Inc.
This Font Software is licensed under the SIL Open Font License, Version 1.1. This Font Software is distributed on an "AS IS" BASIS, WITHOUT WARRANTIES OR CONDITIONS OF ANY KIND, either express or implied. See the SIL Open Font License for the specific language, permissions and limitations governing your use of this Font Software.
http://scripts.sil.org/OFL
  -->
<path d="M125 626C108 704 81 784 44 839 61 847 90 863 103 874 141 815 173 726 192 640ZM383 645C411 699 444 771 457 818L520 791C505 745 473 675 443 621ZM629 40L629 113 368 113 368 40 294 40 294 113 56 113 56 180 294 180 294 248 368 248 368 180 629 180 629 249 703 249 703 180 944 180 944 113 703 113 703 40ZM826 364C803 475 766 572 718 652 671 568 636 470 613 364ZM511 296L511 364 569 364 546 369C576 501 617 619 674 717 612 800 535 862 451 901 467 915 486 942 497 961 580 918 654 860 717 783 771 858 836 918 914 960 925 941 949 913 965 899 884 859 816 799 762 722 832 615 884 479 910 307L862 293 849 296ZM233 255L233 505 45 505 45 572 254 572 254 885C254 895 251 899 239 899 228 900 194 900 155 899 165 916 175 943 178 961 233 961 270 960 294 949 318 939 325 922 325 887L325 572 523 572 523 505 304 505 304 401 487 401 487 337 304 337 304 255Z"/>
</svg>