<svg xmlns="http://www.w3.org/2000/svg" name="gid11135" data-unicode="萋"
    viewBox="0 0 1000 1000">
  <!--
© 2014-2021 Adobe (http://www.adobe.com/).
Noto is a trademark of Google Inc.
This Font Software is licensed under the SIL Open Font License, Version 1.1. This Font Software is distributed on an "AS IS" BASIS, WITHOUT WARRANTIES OR CONDITIONS OF ANY KIND, either express or implied. See the SIL Open Font License for the specific language, permissions and limitations governing your use of this Font Software.
http://scripts.sil.org/OFL
  -->
<path d="M632 40L632 102 363 102 363 40 289 40 289 102 57 102 57 162 289 162 289 229 363 229 363 162 632 162 632 229 707 229 707 162 947 162 947 102 707 102 707 40ZM158 358L158 409 459 409 459 465 55 465 55 514 459 514 459 571 152 571 152 622 375 622 329 675 56 675 56 729 280 729C249 763 218 795 192 820L258 842 277 823C338 833 399 844 457 856 357 884 228 897 70 901 80 916 90 941 93 961 291 951 449 928 563 878 684 905 790 934 870 961L921 911C846 887 747 862 638 837 680 808 713 773 736 729L948 729 948 675 413 675 459 622 823 622 823 519 945 519 945 460 823 460 823 358 533 358 533 311 922 311 922 257 533 257 533 199 459 199 459 257 81 257 81 311 459 311 459 358ZM533 514L750 514 750 571 533 571ZM533 465L533 409 750 409 750 465ZM365 729L660 729C634 766 598 796 553 819 478 804 399 790 320 777Z"/>
</svg>