<svg xmlns="http://www.w3.org/2000/svg" name="gid11148" data-unicode="萪"
    viewBox="0 0 1000 1000">
  <!--
© 2014-2021 Adobe (http://www.adobe.com/).
Noto is a trademark of Google Inc.
This Font Software is licensed under the SIL Open Font License, Version 1.1. This Font Software is distributed on an "AS IS" BASIS, WITHOUT WARRANTIES OR CONDITIONS OF ANY KIND, either express or implied. See the SIL Open Font License for the specific language, permissions and limitations governing your use of this Font Software.
http://scripts.sil.org/OFL
  -->
<path d="M542 338C595 374 655 427 684 465L735 419C706 381 644 330 591 296ZM516 535C572 572 635 627 663 667L716 622C686 582 622 529 566 495ZM632 40L632 110 364 110 364 40 290 40 290 110 56 110 56 176 290 176 290 251 364 251 364 176 632 176 632 251 707 251 707 176 947 176 947 110 707 110 707 40ZM406 249C326 279 183 305 59 320 67 336 77 362 80 378 132 372 188 365 243 355L243 471 53 471 53 537 225 537C179 639 104 745 36 799 52 813 76 838 88 856 142 805 198 724 243 637L243 959 314 959 314 648C356 688 410 741 431 767L479 714C454 692 350 606 314 581L314 537 482 537 482 471 314 471 314 342C369 331 422 317 465 302ZM467 756L479 823 769 776 769 961 842 961 842 764 964 744 953 678 842 696 842 252 769 252 769 708Z"/>
</svg>