<svg xmlns="http://www.w3.org/2000/svg" name="gid11151" data-unicode="萱"
    viewBox="0 0 1000 1000">
  <!--
© 2014-2021 Adobe (http://www.adobe.com/).
Noto is a trademark of Google Inc.
This Font Software is licensed under the SIL Open Font License, Version 1.1. This Font Software is distributed on an "AS IS" BASIS, WITHOUT WARRANTIES OR CONDITIONS OF ANY KIND, either express or implied. See the SIL Open Font License for the specific language, permissions and limitations governing your use of this Font Software.
http://scripts.sil.org/OFL
  -->
<path d="M211 402L211 454 789 454 789 402ZM57 863L57 927 944 927 944 863ZM292 679L705 679 705 752 292 752ZM292 561L705 561 705 632 292 632ZM221 512L221 801 779 801 779 512ZM85 286L85 459 154 459 154 345 843 345 843 459 914 459 914 286 534 286 534 209 460 209 460 286ZM62 106L62 170 284 170 284 245 357 245 357 170 637 170 637 245 710 245 710 170 941 170 941 106 710 106 710 40 637 40 637 106 357 106 357 40 284 40 284 106Z"/>
</svg>