<svg xmlns="http://www.w3.org/2000/svg"
    viewBox="0 0 1000 1000">
  <!--
© 2014-2021 Adobe (http://www.adobe.com/).
Noto is a trademark of Google Inc.
This Font Software is licensed under the SIL Open Font License, Version 1.1. This Font Software is distributed on an "AS IS" BASIS, WITHOUT WARRANTIES OR CONDITIONS OF ANY KIND, either express or implied. See the SIL Open Font License for the specific language, permissions and limitations governing your use of this Font Software.
http://scripts.sil.org/OFL
  -->
<path d="M240 204L240 258 73 258 73 315 240 315 240 371 95 371 95 428 240 428 240 492 60 509 68 569 240 551 240 606 310 606 310 543 468 525 467 469 310 485 310 428 449 428 449 371 310 371 310 315 469 315 469 258 310 258 310 209 370 209 370 146 625 146 625 209 698 209 698 146 940 146 940 81 698 81 698 10 625 10 625 81 370 81 370 10 297 10 297 81 61 81 61 146 297 146 297 204ZM462 575C458 600 453 623 447 644L59 644 59 708 419 708C368 794 263 843 33 868 45 884 61 913 66 930 330 897 445 830 500 712 575 847 713 909 925 931 934 910 952 881 968 864 776 851 643 807 574 708L942 708 942 644 525 644C530 622 535 599 539 575L513 575C632 520 673 428 689 302L829 302C820 431 808 485 794 500 786 508 778 509 763 509 748 509 712 509 672 504 682 523 690 550 691 570 732 572 771 572 792 570 818 568 835 562 851 545 876 519 888 449 901 269 902 258 902 237 902 237L491 237 491 302 619 302C605 410 568 487 453 532 466 541 481 561 490 575Z"/>
</svg>