<svg xmlns="http://www.w3.org/2000/svg" name="gid11184" data-unicode="葩"
    viewBox="0 0 1000 1000">
  <!--
© 2014-2021 Adobe (http://www.adobe.com/).
Noto is a trademark of Google Inc.
This Font Software is licensed under the SIL Open Font License, Version 1.1. This Font Software is distributed on an "AS IS" BASIS, WITHOUT WARRANTIES OR CONDITIONS OF ANY KIND, either express or implied. See the SIL Open Font License for the specific language, permissions and limitations governing your use of this Font Software.
http://scripts.sil.org/OFL
  -->
<path d="M630 40L630 114 368 114 368 40 294 40 294 114 60 114 60 183 294 183 294 271 368 271 368 183 630 183 630 273 704 273 704 183 943 183 943 114 704 114 704 40ZM653 583L531 583 531 376 653 376ZM716 583L716 376 837 376 837 583ZM462 309L462 826C462 924 494 948 601 948 625 948 804 948 830 948 927 948 950 907 961 775 941 770 911 758 895 746 889 857 880 881 826 881 788 881 634 881 604 881 543 881 531 870 531 826L531 650 837 650 837 684 907 684 907 309ZM319 646L319 797 167 797 167 646ZM319 582L167 582 167 436 319 436ZM99 368L99 923 167 923 167 865 390 865 390 368 254 368C267 335 281 296 294 258L218 244C212 280 197 330 184 368Z"/>
</svg>