<svg xmlns="http://www.w3.org/2000/svg" name="gid11189" data-unicode="葮"
    viewBox="0 0 1000 1000">
  <!--
© 2014-2021 Adobe (http://www.adobe.com/).
Noto is a trademark of Google Inc.
This Font Software is licensed under the SIL Open Font License, Version 1.1. This Font Software is distributed on an "AS IS" BASIS, WITHOUT WARRANTIES OR CONDITIONS OF ANY KIND, either express or implied. See the SIL Open Font License for the specific language, permissions and limitations governing your use of this Font Software.
http://scripts.sil.org/OFL
  -->
<path d="M629 40L629 104 367 104 367 40 293 40 293 104 58 104 58 171 293 171 293 248 367 248 367 171 629 171 629 248 703 248 703 171 945 171 945 104 703 104 703 40ZM518 275L518 365C518 419 505 480 422 528 433 537 457 562 467 577L464 577 464 639 798 639C771 694 732 740 684 778 635 739 595 693 568 639L505 656C535 719 575 773 626 818 558 858 478 885 393 901 407 916 424 945 431 963 524 942 610 910 684 863 751 907 831 940 921 959 930 939 951 910 967 894 883 880 808 854 744 818 810 761 862 688 893 592L847 574 834 577 476 577C567 519 587 437 587 367L587 340 741 340 741 438C741 489 747 505 761 518 774 530 798 534 817 534 828 534 856 534 869 534 885 534 905 533 916 527 929 521 940 511 946 497 951 482 955 443 956 407 938 401 913 389 900 378 899 413 898 440 896 453 894 464 889 471 885 473 880 475 872 476 863 476 854 476 840 476 833 476 825 476 820 475 816 472 812 469 811 459 811 442L811 275ZM391 245C339 266 254 289 173 306L131 293 131 760 41 770 49 839 131 828 131 962 204 962 204 819 462 785 461 722 204 752 204 650 426 650 426 586 204 586 204 498 424 498 424 434 204 434 204 358C288 343 380 322 448 296Z"/>
</svg>