<svg xmlns="http://www.w3.org/2000/svg"
    viewBox="0 0 1000 1000">
  <!--
© 2014-2021 Adobe (http://www.adobe.com/).
Noto is a trademark of Google Inc.
This Font Software is licensed under the SIL Open Font License, Version 1.1. This Font Software is distributed on an "AS IS" BASIS, WITHOUT WARRANTIES OR CONDITIONS OF ANY KIND, either express or implied. See the SIL Open Font License for the specific language, permissions and limitations governing your use of this Font Software.
http://scripts.sil.org/OFL
  -->
<path d="M85 67C143 103 208 158 237 199L291 151C259 111 194 58 136 24ZM51 270C110 306 176 363 206 404L260 356C228 315 160 260 102 226ZM303 108L303 173 458 173 458 251 529 251 529 173 711 173 711 250 747 250 708 287C744 307 787 336 816 360L654 360 654 246 582 246 582 360 308 360 308 425 541 425C483 536 387 644 293 698 309 711 330 736 341 752 431 693 521 586 582 471L582 791 654 791 654 466C716 580 811 688 903 747 915 729 937 703 954 689 856 638 756 534 697 425L942 425 942 360 850 360 877 332C850 306 796 272 753 250L782 250 782 173 950 173 950 108 782 108 782 11 711 11 711 108 529 108 529 11 458 11 458 108ZM251 475L46 475 46 545 178 545 178 740C132 780 79 820 36 850L74 922C125 878 174 836 220 793 284 871 375 906 506 911 617 915 830 913 940 908 944 887 955 853 964 836 845 844 615 847 505 843 388 838 300 804 251 732Z"/>
</svg>