<svg xmlns="http://www.w3.org/2000/svg"
    viewBox="0 0 1000 1000">
  <!--
© 2014-2021 Adobe (http://www.adobe.com/).
Noto is a trademark of Google Inc.
This Font Software is licensed under the SIL Open Font License, Version 1.1. This Font Software is distributed on an "AS IS" BASIS, WITHOUT WARRANTIES OR CONDITIONS OF ANY KIND, either express or implied. See the SIL Open Font License for the specific language, permissions and limitations governing your use of this Font Software.
http://scripts.sil.org/OFL
  -->
<path d="M120 232C168 248 230 276 262 297L294 243C261 222 198 197 151 183ZM53 336C102 351 165 379 196 400L228 346C195 325 132 300 85 286ZM94 541L140 591C203 534 277 464 340 398L304 354C233 423 151 498 94 541ZM62 86L62 148 291 148 291 211 364 211 364 148 631 148 631 211 704 211 704 148 941 148 941 86 704 86 704 10 631 10 631 86 364 86 364 10 291 10 291 86ZM460 520L460 608 62 608 62 670 397 670C306 751 161 821 33 855 50 869 71 896 82 915 214 873 363 791 460 694L460 929 535 929 535 689C628 788 779 868 920 908 930 889 952 861 968 846 834 815 692 750 605 670L941 670 941 608 535 608 535 520ZM533 187C531 217 529 244 525 269L354 269 354 332 511 332C484 418 428 473 304 508 318 521 337 547 344 563 490 518 553 445 582 332L720 332 720 438C720 492 725 509 740 522 754 534 779 539 800 539 811 539 839 539 853 539 869 539 890 536 903 531 918 525 928 514 934 498 941 481 944 438 945 396 926 390 900 378 886 365 885 406 885 437 882 452 879 465 874 472 870 475 865 478 855 479 847 479 837 479 822 479 815 479 806 479 800 479 796 475 791 472 790 460 790 442L790 269 594 269C598 243 600 216 602 187Z"/>
</svg>