<svg xmlns="http://www.w3.org/2000/svg" name="gid11226" data-unicode="蒲"
    viewBox="0 0 1000 1000">
  <!--
© 2014-2021 Adobe (http://www.adobe.com/).
Noto is a trademark of Google Inc.
This Font Software is licensed under the SIL Open Font License, Version 1.1. This Font Software is distributed on an "AS IS" BASIS, WITHOUT WARRANTIES OR CONDITIONS OF ANY KIND, either express or implied. See the SIL Open Font License for the specific language, permissions and limitations governing your use of this Font Software.
http://scripts.sil.org/OFL
  -->
<path d="M86 295C144 320 215 361 250 391L293 334C257 303 185 266 127 244ZM39 486C99 511 173 551 211 581L252 523C214 492 140 455 80 434ZM65 909L125 954C175 875 234 770 278 681L226 637C176 733 110 843 65 909ZM349 460L349 958 421 958 421 787 583 787 583 955 654 955 654 787 833 787 833 884C833 895 829 898 817 899 805 899 767 899 725 898 734 916 743 942 747 959 807 959 847 959 872 948 897 938 905 920 905 884L905 460 654 460 654 383 948 383 948 321 864 321 897 278C868 255 812 222 766 203L731 246C774 264 826 296 856 321L654 321 654 248 703 248 703 174 947 174 947 107 703 107 703 40 629 40 629 107 367 107 367 40 293 40 293 107 56 107 56 174 293 174 293 248 367 248 367 174 629 174 629 236 583 236 583 321 311 321 311 383 583 383 583 460ZM583 652L583 731 421 731 421 652ZM654 652L833 652 833 731 654 731ZM583 596L421 596 421 519 583 519ZM654 596L654 519 833 519 833 596Z"/>
</svg>