<svg xmlns="http://www.w3.org/2000/svg" name="gid11228" data-unicode="蒸"
    viewBox="0 0 1000 1000">
  <!--
© 2014-2021 Adobe (http://www.adobe.com/).
Noto is a trademark of Google Inc.
This Font Software is licensed under the SIL Open Font License, Version 1.1. This Font Software is distributed on an "AS IS" BASIS, WITHOUT WARRANTIES OR CONDITIONS OF ANY KIND, either express or implied. See the SIL Open Font License for the specific language, permissions and limitations governing your use of this Font Software.
http://scripts.sil.org/OFL
  -->
<path d="M225 692L225 756 773 756 773 692ZM185 771C158 827 111 888 50 924L109 964C172 924 216 859 246 800ZM341 803C358 852 370 915 372 955L444 942C442 904 427 842 409 794ZM533 804C564 851 593 914 604 954L668 931C658 891 627 830 595 784ZM732 806C792 850 861 915 893 960L951 920C918 875 847 812 788 770ZM629 39L629 108 368 108 368 39 294 39 294 108 57 108 57 173 294 173 294 245 368 245 368 173 629 173 629 245 703 245 703 173 944 173 944 108 703 108 703 39ZM872 331C827 372 754 428 693 467 674 441 657 414 644 386 685 360 723 331 754 302L708 264 693 268 214 268 214 329 619 329C587 353 548 377 511 396L462 396 462 592C462 602 459 606 448 606 435 606 396 606 351 605 360 622 370 646 374 665 435 665 476 664 502 655 528 645 535 629 535 593L535 446 590 418C656 557 772 668 911 722 922 703 943 675 961 661 872 632 791 578 729 511 794 475 871 421 932 372ZM64 400L64 462 293 462C239 562 140 641 40 677 55 691 74 718 83 735 211 681 334 572 387 416L341 397 328 400Z"/>
</svg>