<svg xmlns="http://www.w3.org/2000/svg" name="gid11236" data-unicode="蓀"
    viewBox="0 0 1000 1000">
  <!--
© 2014-2021 Adobe (http://www.adobe.com/).
Noto is a trademark of Google Inc.
This Font Software is licensed under the SIL Open Font License, Version 1.1. This Font Software is distributed on an "AS IS" BASIS, WITHOUT WARRANTIES OR CONDITIONS OF ANY KIND, either express or implied. See the SIL Open Font License for the specific language, permissions and limitations governing your use of this Font Software.
http://scripts.sil.org/OFL
  -->
<path d="M760 759C810 815 868 890 894 939L952 905C925 857 865 784 814 731ZM479 734C447 799 396 866 343 912 360 921 389 940 402 951 452 901 509 824 546 752ZM404 465C463 499 532 549 574 589L523 635 364 639 369 708 618 699 618 960 691 960 691 696 879 688C893 707 905 725 914 741L969 707C938 653 869 576 808 520L756 550C780 573 806 599 829 626L614 633C692 562 777 474 844 398L780 363C739 417 681 482 622 542 602 524 577 504 549 484 586 446 627 395 663 349L654 345C748 334 839 320 908 302L857 247C752 276 557 295 396 304L401 316 356 284 342 288 62 288 62 353 293 353C269 386 240 421 211 449L186 449 186 571 35 598 48 673 186 644 186 878C186 889 183 892 171 892 159 893 120 893 77 892 87 912 97 942 100 962 159 962 199 961 225 949 251 937 258 917 258 878L258 629 409 597 404 528 258 557 258 488C309 441 364 377 402 318 408 333 414 350 415 362 466 360 520 357 574 352 553 385 526 421 501 451L446 419ZM629 40L629 108 368 108 368 40 294 40 294 108 57 108 57 175 294 175 294 253 368 253 368 175 629 175 629 253 703 253 703 175 944 175 944 108 703 108 703 40Z"/>
</svg>