<svg xmlns="http://www.w3.org/2000/svg"
    viewBox="0 0 1000 1000">
  <!--
© 2014-2021 Adobe (http://www.adobe.com/).
Noto is a trademark of Google Inc.
This Font Software is licensed under the SIL Open Font License, Version 1.1. This Font Software is distributed on an "AS IS" BASIS, WITHOUT WARRANTIES OR CONDITIONS OF ANY KIND, either express or implied. See the SIL Open Font License for the specific language, permissions and limitations governing your use of this Font Software.
http://scripts.sil.org/OFL
  -->
<path d="M327 338C278 394 197 447 119 482 134 494 159 520 170 533 248 493 337 427 393 360ZM608 373C685 414 778 481 826 527L881 484C832 441 738 376 661 335ZM299 897L708 897 708 930 782 930 782 675C829 698 876 717 921 732 932 712 948 685 964 668 812 625 641 534 532 419L462 419C379 521 215 627 45 685 59 701 75 728 83 745 132 727 181 705 227 681L227 930 299 930ZM299 834L299 686 708 686 708 834ZM501 481C549 531 614 580 686 623L327 623C398 578 458 528 501 481ZM92 250L92 419 162 419 162 311 841 311 841 419 914 419 914 250 535 250 535 173 461 173 461 250ZM62 73L62 138 288 138 288 211 361 211 361 138 633 138 633 211 706 211 706 138 941 138 941 73 706 73 706 10 633 10 633 73 361 73 361 10 288 10 288 73Z"/>
</svg>