<svg xmlns="http://www.w3.org/2000/svg"
    viewBox="0 0 1000 1000">
  <!--
© 2014-2021 Adobe (http://www.adobe.com/).
Noto is a trademark of Google Inc.
This Font Software is licensed under the SIL Open Font License, Version 1.1. This Font Software is distributed on an "AS IS" BASIS, WITHOUT WARRANTIES OR CONDITIONS OF ANY KIND, either express or implied. See the SIL Open Font License for the specific language, permissions and limitations governing your use of this Font Software.
http://scripts.sil.org/OFL
  -->
<path d="M365 320C396 424 423 559 430 648L486 631C479 542 451 408 417 304ZM627 10L627 83 369 83 369 10 296 10 296 83 57 83 57 148 296 148 296 216 369 216 369 148 627 148 627 216 700 216 700 148 944 148 944 83 700 83 700 10ZM856 195C783 226 656 255 542 275L511 265 511 506C511 620 504 771 437 887 453 895 478 917 488 931 563 802 575 628 575 507L575 325C646 314 722 299 790 281 805 552 835 797 923 928 934 911 958 887 974 875 890 761 860 519 847 265 870 259 891 251 911 244ZM343 659C356 694 368 734 377 773L314 785 314 312 258 312 258 796 152 815 166 875 389 827 397 875 446 860C438 803 415 714 390 645ZM441 195C375 225 260 255 157 276L123 265 123 477C123 598 114 761 32 887 48 895 73 917 82 930 173 793 188 608 188 479L188 326C294 306 412 278 495 244ZM745 659C756 693 766 733 775 772L710 784 710 312 654 312 654 795 546 814 559 874C625 861 704 844 785 826L791 877 842 863C835 804 815 715 793 645Z"/>
</svg>