<svg xmlns="http://www.w3.org/2000/svg"
    viewBox="0 0 1000 1000">
  <!--
© 2014-2021 Adobe (http://www.adobe.com/).
Noto is a trademark of Google Inc.
This Font Software is licensed under the SIL Open Font License, Version 1.1. This Font Software is distributed on an "AS IS" BASIS, WITHOUT WARRANTIES OR CONDITIONS OF ANY KIND, either express or implied. See the SIL Open Font License for the specific language, permissions and limitations governing your use of this Font Software.
http://scripts.sil.org/OFL
  -->
<path d="M461 178L461 248 64 248 64 307 938 307 938 248 535 248 535 178ZM734 521L734 587 271 587 271 521ZM271 410L734 410 734 471 271 471ZM857 629C803 663 718 710 648 742 612 711 582 677 560 637L806 637 806 526 947 526 947 465 806 465 806 359 203 359 203 465 56 465 56 526 203 526 203 637 377 637C294 679 178 716 37 743 52 755 70 780 79 798 148 782 211 764 268 745L268 845 168 856 180 921C294 906 459 883 614 863L613 801 340 836 340 717C397 694 447 667 490 637 568 795 714 892 923 930 932 911 950 884 965 870 859 854 768 823 696 777 767 748 848 709 912 670ZM62 84L62 147 287 147 287 209 360 209 360 147 633 147 633 209 706 209 706 147 941 147 941 84 706 84 706 10 633 10 633 84 360 84 360 10 287 10 287 84Z"/>
</svg>