<svg xmlns="http://www.w3.org/2000/svg"
    viewBox="0 0 1000 1000">
  <!--
© 2014-2021 Adobe (http://www.adobe.com/).
Noto is a trademark of Google Inc.
This Font Software is licensed under the SIL Open Font License, Version 1.1. This Font Software is distributed on an "AS IS" BASIS, WITHOUT WARRANTIES OR CONDITIONS OF ANY KIND, either express or implied. See the SIL Open Font License for the specific language, permissions and limitations governing your use of this Font Software.
http://scripts.sil.org/OFL
  -->
<path d="M215 286L788 286 788 514 215 514ZM56 853L61 920C178 908 345 890 503 874L504 810 244 836 244 719 498 719 498 657 244 657 244 578 174 578 174 842ZM854 614C797 642 702 673 611 697L611 578 541 578 541 820C541 898 566 919 665 919 686 919 827 919 849 919 928 919 950 890 959 777 939 772 910 762 894 750 890 840 883 853 843 853 811 853 693 853 670 853 620 853 611 848 611 820L611 755C715 731 830 698 913 663ZM463 165C455 187 446 210 437 232L145 232 145 568 862 568 862 232 512 232C522 215 532 196 542 176ZM295 339C348 353 406 373 462 395 397 422 327 444 260 460 274 471 296 494 305 505 376 484 454 456 525 421 587 448 643 476 682 501L727 460C690 439 640 415 585 391 629 366 669 338 702 308L646 287C614 316 572 342 525 366 463 341 398 318 339 302ZM62 80L62 144 284 144 284 209 357 209 357 144 637 144 637 209 710 209 710 144 941 144 941 80 710 80 710 10 637 10 637 80 357 80 357 10 284 10 284 80Z"/>
</svg>