<svg xmlns="http://www.w3.org/2000/svg"
    viewBox="0 0 1000 1000">
  <!--
© 2014-2021 Adobe (http://www.adobe.com/).
Noto is a trademark of Google Inc.
This Font Software is licensed under the SIL Open Font License, Version 1.1. This Font Software is distributed on an "AS IS" BASIS, WITHOUT WARRANTIES OR CONDITIONS OF ANY KIND, either express or implied. See the SIL Open Font License for the specific language, permissions and limitations governing your use of this Font Software.
http://scripts.sil.org/OFL
  -->
<path d="M650 573L650 510 822 510 822 573ZM412 573L412 510 581 510 581 573ZM179 573L179 510 342 510 342 573ZM895 462L108 462 108 621 895 621ZM244 373L244 326 752 326 752 373ZM244 280L244 234 752 234 752 280ZM824 187L175 187 175 420 824 420ZM943 67L703 67 703 10 629 10 629 67 367 67 367 10 293 10 293 67 58 67 58 127 293 127 293 172 367 172 367 127 629 127 629 172 703 172 703 127 943 127ZM402 830C291 852 169 864 49 869 60 885 71 912 75 930 222 921 373 902 505 866 631 903 778 924 926 933 935 915 950 888 964 873 840 868 718 855 610 832 703 797 782 749 837 687L794 657 781 661 91 661 91 715 268 715 236 731C280 770 336 803 402 830ZM504 806C424 782 356 752 307 715L713 715C659 753 586 783 504 806Z"/>
</svg>