<svg xmlns="http://www.w3.org/2000/svg" name="gid11281" data-unicode="蔓"
    viewBox="0 0 1000 1000">
  <!--
© 2014-2021 Adobe (http://www.adobe.com/).
Noto is a trademark of Google Inc.
This Font Software is licensed under the SIL Open Font License, Version 1.1. This Font Software is distributed on an "AS IS" BASIS, WITHOUT WARRANTIES OR CONDITIONS OF ANY KIND, either express or implied. See the SIL Open Font License for the specific language, permissions and limitations governing your use of this Font Software.
http://scripts.sil.org/OFL
  -->
<path d="M650 603L650 540 822 540 822 603ZM412 603L412 540 581 540 581 603ZM179 603L179 540 342 540 342 603ZM895 492L108 492 108 651 895 651ZM244 403L244 356 752 356 752 403ZM244 310L244 264 752 264 752 310ZM824 217L175 217 175 450 824 450ZM943 97L703 97 703 40 629 40 629 97 367 97 367 40 293 40 293 97 58 97 58 157 293 157 293 202 367 202 367 157 629 157 629 202 703 202 703 157 943 157ZM402 860C291 882 169 894 49 899 60 915 71 942 75 960 222 951 373 932 505 896 631 933 778 954 926 963 935 945 950 918 964 903 840 898 718 885 610 862 703 827 782 779 837 717L794 687 781 691 91 691 91 745 268 745 236 761C280 800 336 833 402 860ZM504 836C424 812 356 782 307 745L713 745C659 783 586 813 504 836Z"/>
</svg>