<svg xmlns="http://www.w3.org/2000/svg"
    viewBox="0 0 1000 1000">
  <!--
© 2014-2021 Adobe (http://www.adobe.com/).
Noto is a trademark of Google Inc.
This Font Software is licensed under the SIL Open Font License, Version 1.1. This Font Software is distributed on an "AS IS" BASIS, WITHOUT WARRANTIES OR CONDITIONS OF ANY KIND, either express or implied. See the SIL Open Font License for the specific language, permissions and limitations governing your use of this Font Software.
http://scripts.sil.org/OFL
  -->
<path d="M188 383C170 445 133 507 75 539L131 579C196 540 230 474 250 405ZM728 418C786 467 849 537 876 586L934 548C906 499 840 431 783 384ZM631 10L631 77 364 77 364 10 291 10 291 77 61 77 61 141 291 141 291 218 364 218 364 141 631 141 631 217 706 217 706 141 939 141 939 77 706 77 706 10ZM674 328C603 409 494 475 369 525L369 372 301 372 301 542 301 551C225 578 145 599 66 616 78 629 99 660 106 675 178 657 251 636 322 610 340 627 374 632 432 632 454 632 616 632 639 632 720 632 741 608 750 507 731 503 704 494 688 482 684 560 676 571 634 571 598 571 462 571 436 571L419 571C544 516 656 445 735 356ZM79 247L79 411 150 411 150 311 401 311 373 340C424 365 484 404 513 434L553 390C527 365 479 333 434 311L853 311 853 411 927 411 927 247 536 247 536 175 461 175 461 247ZM777 664L777 818 537 818 537 644 463 644 463 818 236 818 236 668 162 668 162 929 236 929 236 884 777 884 777 928 853 928 853 664Z"/>
</svg>