<svg xmlns="http://www.w3.org/2000/svg"
    viewBox="0 0 1000 1000">
  <!--
© 2014-2021 Adobe (http://www.adobe.com/).
Noto is a trademark of Google Inc.
This Font Software is licensed under the SIL Open Font License, Version 1.1. This Font Software is distributed on an "AS IS" BASIS, WITHOUT WARRANTIES OR CONDITIONS OF ANY KIND, either express or implied. See the SIL Open Font License for the specific language, permissions and limitations governing your use of this Font Software.
http://scripts.sil.org/OFL
  -->
<path d="M478 548L478 780 525 780 525 548ZM253 548L253 612C253 680 247 768 184 834 196 842 212 859 221 870 292 793 302 694 302 613L302 548ZM585 548L585 627C585 695 578 779 507 842 519 850 536 867 544 880 625 807 635 711 635 628L635 548ZM816 548L816 761C816 811 819 825 829 836 838 845 855 849 870 849 877 849 892 849 900 849 911 849 924 847 931 842 940 837 948 829 952 816 956 802 959 764 960 730 947 727 931 719 921 710 920 744 919 771 918 782 915 793 913 799 909 802 907 805 902 806 896 806 891 806 885 806 881 806 876 806 872 804 870 801 867 797 867 787 867 770L867 548ZM466 173L466 259 128 259 128 495C128 614 120 772 38 886 53 895 83 917 95 931 184 809 199 625 199 495L199 326 923 326 923 259 541 259 541 173ZM361 343L361 440 225 440 225 500 361 500 361 928 419 928 419 500 546 500 546 440 419 440 419 343ZM695 343L695 440 570 440 570 500 695 500 695 928 755 928 755 500 918 500 918 440 755 440 755 343ZM633 10L633 80 364 80 364 10 290 10 290 80 57 80 57 145 290 145 290 218 364 218 364 145 633 145 633 220 707 220 707 145 944 145 944 80 707 80 707 10Z"/>
</svg>