<svg xmlns="http://www.w3.org/2000/svg" name="gid11309" data-unicode="蔾"
    viewBox="0 0 1000 1000">
  <!--
© 2014-2021 Adobe (http://www.adobe.com/).
Noto is a trademark of Google Inc.
This Font Software is licensed under the SIL Open Font License, Version 1.1. This Font Software is distributed on an "AS IS" BASIS, WITHOUT WARRANTIES OR CONDITIONS OF ANY KIND, either express or implied. See the SIL Open Font License for the specific language, permissions and limitations governing your use of this Font Software.
http://scripts.sil.org/OFL
  -->
<path d="M399 209L368 217 368 161 627 161 627 215 581 205C550 287 498 368 437 422 455 431 484 449 497 459 527 429 557 390 583 347L680 347C647 424 598 495 539 542 557 551 586 567 599 578 660 522 716 439 752 347L851 347C839 463 826 511 810 526 803 534 795 535 781 535 767 535 735 534 699 531 709 548 715 575 716 594 755 596 792 596 812 594 836 593 852 587 868 570 893 545 908 479 924 315 925 306 927 286 927 286L618 286C629 264 639 242 647 220L643 219 701 219 701 161 942 161 942 100 701 100 701 40 627 40 627 100 368 100 368 40 295 40 295 100 56 100 56 161 295 161 295 219 356 219C276 235 161 245 66 250 73 265 80 287 82 302 128 300 179 297 229 293L229 346 53 346 53 399 205 399C160 452 94 505 38 533 52 544 73 567 83 582 131 554 186 505 229 454L229 600 296 600 296 468C341 493 388 523 415 545L452 494C417 467 349 429 296 404L296 399 458 399 458 346 296 346 296 285C349 279 398 271 436 261ZM462 553L462 640 53 640 53 701 395 701C301 776 155 844 30 877 46 892 69 921 81 940 210 900 361 820 462 730L462 960 537 960 537 722C635 812 789 896 917 937 930 917 952 887 970 871 847 839 702 773 609 701L945 701 945 640 537 640 537 553Z"/>
</svg>