<svg xmlns="http://www.w3.org/2000/svg" name="gid11313" data-unicode="蕃"
    viewBox="0 0 1000 1000">
  <!--
© 2014-2021 Adobe (http://www.adobe.com/).
Noto is a trademark of Google Inc.
This Font Software is licensed under the SIL Open Font License, Version 1.1. This Font Software is distributed on an "AS IS" BASIS, WITHOUT WARRANTIES OR CONDITIONS OF ANY KIND, either express or implied. See the SIL Open Font License for the specific language, permissions and limitations governing your use of this Font Software.
http://scripts.sil.org/OFL
  -->
<path d="M629 40L629 108 367 108 367 40 293 40 293 108 56 108 56 174 293 174 293 239 367 239 367 174 629 174 629 228 703 228 703 174 947 174 947 108 703 108 703 40ZM462 492L462 608 534 608 534 492 536 492C588 543 658 590 734 628L269 628C342 589 411 542 462 492ZM462 429L294 429 336 409C324 388 299 353 278 326 339 323 401 320 462 315ZM214 344C233 371 256 405 270 429L56 429 56 492 372 492C282 559 151 617 35 646 51 661 73 688 83 706 114 696 146 685 179 671L179 961 250 961 250 927 752 927 752 960 825 960 825 668C856 680 888 690 918 698 928 680 949 652 965 638 843 612 710 558 621 492L947 492 947 429 719 429C743 399 768 362 792 327L720 306C704 343 674 393 649 429L534 429 534 310C653 300 764 286 853 269L791 218C638 248 353 268 112 275 119 290 127 316 128 331L254 327ZM464 802L464 871 250 871 250 802ZM536 802L752 802 752 871 536 871ZM464 751L250 751 250 684 464 684ZM536 751L536 684 752 684 752 751Z"/>
</svg>