<svg xmlns="http://www.w3.org/2000/svg"
    viewBox="0 0 1000 1000">
  <!--
© 2014-2021 Adobe (http://www.adobe.com/).
Noto is a trademark of Google Inc.
This Font Software is licensed under the SIL Open Font License, Version 1.1. This Font Software is distributed on an "AS IS" BASIS, WITHOUT WARRANTIES OR CONDITIONS OF ANY KIND, either express or implied. See the SIL Open Font License for the specific language, permissions and limitations governing your use of this Font Software.
http://scripts.sil.org/OFL
  -->
<path d="M629 10L629 72 368 72 368 10 294 10 294 72 58 72 58 138 294 138 294 210 368 210 368 138 629 138 629 207 703 207 703 138 945 138 945 72 703 72 703 10ZM457 252C424 324 368 392 306 437 321 449 347 473 358 486 396 455 434 414 467 368L467 414 555 414 555 484 385 484 385 931 452 931 452 899 834 899 834 931 902 931 902 484 723 484 723 414 810 414 810 365C841 409 878 448 916 477 928 461 953 438 969 427 908 386 843 311 811 232L555 232 555 291 766 291C777 315 791 338 806 360L473 360C492 331 510 301 524 270ZM606 414L671 414 671 484 606 484ZM452 776L834 776 834 845 452 845ZM452 721L452 539 553 539C548 589 529 636 465 670 478 679 497 697 505 709 580 664 600 605 605 539L671 539 671 599C671 654 685 666 739 666 749 666 809 666 819 666L834 665 834 721ZM279 215C260 248 237 280 212 310 187 279 156 248 117 218L66 256C109 290 141 324 165 360 125 399 81 433 37 460 53 472 78 500 89 514 125 489 163 458 198 424 211 454 219 485 224 517 178 587 99 664 31 702 48 717 68 742 78 759 128 724 185 669 231 612L231 630C231 735 223 818 201 846 193 856 185 860 171 861 152 864 118 864 78 861 90 881 98 907 98 930 136 931 172 931 201 925 224 922 240 912 253 898 291 850 301 752 301 634 301 542 294 453 250 370 287 328 320 284 346 238ZM723 539L834 539 834 616 830 614C828 617 825 618 811 618 800 618 753 618 745 618 725 618 723 615 723 599Z"/>
</svg>