<svg xmlns="http://www.w3.org/2000/svg"
    viewBox="0 0 1000 1000">
  <!--
© 2014-2021 Adobe (http://www.adobe.com/).
Noto is a trademark of Google Inc.
This Font Software is licensed under the SIL Open Font License, Version 1.1. This Font Software is distributed on an "AS IS" BASIS, WITHOUT WARRANTIES OR CONDITIONS OF ANY KIND, either express or implied. See the SIL Open Font License for the specific language, permissions and limitations governing your use of this Font Software.
http://scripts.sil.org/OFL
  -->
<path d="M242 586L763 586 763 642 242 642ZM242 689L763 689 763 747 242 747ZM242 483L763 483 763 539 242 539ZM629 10L629 77 367 77 367 10 294 10 294 77 60 77 60 133 294 133 294 184 367 184 367 133 629 133 629 184 702 184 702 133 944 133 944 77 702 77 702 10ZM57 321L57 374 264 374 264 419 335 419 335 374 662 374 662 419 734 419 734 374 943 374 943 321 734 321 734 271 662 271 662 321 335 321 335 271 264 271 264 321ZM461 150L461 201 153 201 153 253 461 253 461 305 534 305 534 253 864 253 864 201 534 201 534 150ZM584 827C698 861 809 900 873 930L949 894C879 864 765 826 658 796L837 796 837 434 170 434 170 796 341 796C268 830 153 861 54 880 71 892 95 919 106 933 206 908 333 864 415 820L363 796 632 796Z"/>
</svg>