<svg xmlns="http://www.w3.org/2000/svg"
    viewBox="0 0 1000 1000">
  <!--
© 2014-2021 Adobe (http://www.adobe.com/).
Noto is a trademark of Google Inc.
This Font Software is licensed under the SIL Open Font License, Version 1.1. This Font Software is distributed on an "AS IS" BASIS, WITHOUT WARRANTIES OR CONDITIONS OF ANY KIND, either express or implied. See the SIL Open Font License for the specific language, permissions and limitations governing your use of this Font Software.
http://scripts.sil.org/OFL
  -->
<path d="M624 10L624 86 371 86 371 10 298 10 298 86 53 86 53 149 298 149 298 213 371 213 371 149 624 149 624 213 699 213 699 149 948 149 948 86 699 86 699 10ZM520 684L520 713C466 665 428 604 401 529 440 491 487 438 527 390L473 352C451 387 415 433 383 471 369 421 359 364 352 302L518 302 518 240 59 240 59 302 216 302C169 360 104 412 39 448 54 460 78 485 88 497 123 475 160 447 194 415 209 432 221 451 232 471 187 526 108 584 43 614 57 626 74 650 82 666 140 633 207 579 256 527 264 549 270 572 275 594 221 674 121 754 34 793 48 807 65 833 73 850 147 811 228 745 287 675 293 756 280 824 259 847 245 866 229 868 209 868 193 868 168 867 141 864 151 883 156 911 157 928 182 930 207 930 224 930 263 930 290 920 313 891 380 821 377 525 236 375 257 352 277 327 295 302L296 302C342 702 471 881 928 916 936 895 952 865 965 849 784 840 656 807 565 747L941 747 941 684 763 684 763 566 903 566 903 504 763 504 763 397 917 397 917 335 763 335 763 226 697 226 697 335 622 335C631 308 639 279 645 251L581 239C564 323 533 407 489 464 504 471 532 488 545 497 565 469 583 435 599 397L697 397 697 504 560 504 560 566 697 566 697 684Z"/>
</svg>