<svg xmlns="http://www.w3.org/2000/svg"
    viewBox="0 0 1000 1000">
  <!--
© 2014-2021 Adobe (http://www.adobe.com/).
Noto is a trademark of Google Inc.
This Font Software is licensed under the SIL Open Font License, Version 1.1. This Font Software is distributed on an "AS IS" BASIS, WITHOUT WARRANTIES OR CONDITIONS OF ANY KIND, either express or implied. See the SIL Open Font License for the specific language, permissions and limitations governing your use of this Font Software.
http://scripts.sil.org/OFL
  -->
<path d="M211 207C177 267 106 339 42 383 55 396 75 419 85 432 156 383 231 302 278 230ZM629 10L629 77 367 77 367 10 293 10 293 77 56 77 56 144 293 144 293 218 367 218 367 144 629 144 629 218 698 218C684 320 663 418 628 496L287 496 287 553 598 553 593 561C609 571 635 594 646 605 661 581 675 555 688 526 704 596 725 661 752 719 709 789 651 844 574 885 589 897 614 921 623 934 690 893 743 843 786 783 823 845 870 895 928 931 938 913 960 888 975 874 913 840 863 787 824 720 868 636 896 535 913 413L950 413 950 349 742 349C751 307 759 262 765 217L703 208 703 144 946 144 946 77 703 77 703 10ZM437 205L437 383 361 383 361 254 310 254 310 436 624 436 624 254 570 254 570 383 493 383 493 205ZM491 779L508 838C560 822 614 804 671 786L664 733 585 755 585 611 336 611 336 701C336 759 327 834 269 894 283 900 311 918 322 929 384 865 398 771 398 701L398 665 525 665 525 771ZM239 367C198 453 115 556 33 621 46 634 66 659 77 674 106 649 136 621 164 589L164 931 232 931 232 507C261 468 286 429 307 391ZM726 413L848 413C836 503 817 581 788 649 759 581 738 504 724 422Z"/>
</svg>