<svg xmlns="http://www.w3.org/2000/svg"
    viewBox="0 0 1000 1000">
  <!--
© 2014-2021 Adobe (http://www.adobe.com/).
Noto is a trademark of Google Inc.
This Font Software is licensed under the SIL Open Font License, Version 1.1. This Font Software is distributed on an "AS IS" BASIS, WITHOUT WARRANTIES OR CONDITIONS OF ANY KIND, either express or implied. See the SIL Open Font License for the specific language, permissions and limitations governing your use of this Font Software.
http://scripts.sil.org/OFL
  -->
<path d="M612 267L612 738 682 738 682 267ZM824 218L824 840C824 855 818 859 803 859 788 860 738 860 684 858 694 879 704 911 707 931 780 931 827 929 856 917 885 906 894 884 894 841L894 218ZM119 733C107 797 81 861 33 897L88 932C140 892 163 821 177 751ZM219 744C231 796 240 863 239 907L296 899C295 856 287 788 273 737ZM329 739C351 788 371 853 377 895L433 881C425 840 404 776 382 728ZM444 733C477 780 512 844 527 885L580 864C564 824 529 762 494 717ZM629 10L629 74 368 74 368 10 294 10 294 74 58 74 58 141 294 141 294 218 368 218 368 141 629 141 629 219 703 219 703 141 945 141 945 74 703 74 703 10ZM351 313C339 335 324 357 309 375L168 375C186 355 202 334 217 313ZM213 191C180 262 118 349 29 414 44 423 67 444 78 460L114 430 114 696 536 696 536 375 382 375C404 347 426 314 443 284L402 254 389 258 253 258C264 239 274 221 283 203ZM178 561L290 561 290 642 178 642ZM353 561L470 561 470 642 353 642ZM178 430L290 430 290 509 178 509ZM353 430L470 430 470 509 353 509Z"/>
</svg>