<svg xmlns="http://www.w3.org/2000/svg"
    viewBox="0 0 1000 1000">
  <!--
© 2014-2021 Adobe (http://www.adobe.com/).
Noto is a trademark of Google Inc.
This Font Software is licensed under the SIL Open Font License, Version 1.1. This Font Software is distributed on an "AS IS" BASIS, WITHOUT WARRANTIES OR CONDITIONS OF ANY KIND, either express or implied. See the SIL Open Font License for the specific language, permissions and limitations governing your use of this Font Software.
http://scripts.sil.org/OFL
  -->
<path d="M238 516L388 516 388 609 238 609ZM169 461L169 663 460 663 460 461ZM604 516L758 516 758 609 604 609ZM533 461L533 663 832 663 832 461ZM629 10L629 76 366 76 366 10 292 10 292 76 57 76 57 138 292 138 292 218 366 218 366 138 629 138 629 218 703 218 703 138 944 138 944 76 703 76 703 10ZM337 356L337 407 669 407 669 355C754 401 848 440 931 464 942 446 958 418 973 401 818 363 644 283 530 182L460 182C375 272 208 362 37 412 51 428 67 455 75 472 166 442 258 401 337 356ZM499 240C542 278 598 316 660 350L347 350C408 315 461 277 499 240ZM290 668C254 767 166 836 57 878 72 890 96 918 105 932 177 900 243 855 292 797 340 824 392 861 421 888L467 835C436 809 381 771 330 745 342 725 352 704 360 682ZM656 667C626 768 548 839 443 880 459 892 484 918 494 933 563 900 625 854 670 793 745 836 831 892 881 929L933 880C879 842 782 782 703 739 712 719 721 699 727 677Z"/>
</svg>