<svg xmlns="http://www.w3.org/2000/svg"
    viewBox="0 0 1000 1000">
  <!--
© 2014-2021 Adobe (http://www.adobe.com/).
Noto is a trademark of Google Inc.
This Font Software is licensed under the SIL Open Font License, Version 1.1. This Font Software is distributed on an "AS IS" BASIS, WITHOUT WARRANTIES OR CONDITIONS OF ANY KIND, either express or implied. See the SIL Open Font License for the specific language, permissions and limitations governing your use of this Font Software.
http://scripts.sil.org/OFL
  -->
<path d="M493 352C528 361 566 372 604 384 550 399 492 411 439 420 449 428 464 445 473 456L382 456 382 585C382 677 369 799 289 891 304 898 332 918 344 929 430 831 447 689 447 586L447 511 946 511 946 456 821 456 854 425C825 411 787 395 745 380 780 365 812 348 838 330L809 318 936 318 936 263 703 263 703 210 632 210 632 263 390 263 390 318 776 318C750 333 718 347 682 359 631 343 578 329 531 319ZM538 528C519 589 487 649 447 692 462 698 488 711 499 718 516 699 532 675 547 649L663 649 663 720 515 720 515 772 663 772 663 857 446 857 446 911 951 911 951 857 729 857 729 772 892 772 892 720 729 720 729 649 917 649 917 597 729 597 729 535 663 535 663 597 573 597C581 578 589 559 595 540ZM622 10L622 68 372 68 372 10 298 10 298 68 57 68 57 132 298 132 298 200 372 200 372 132 622 132 622 198 696 198 696 132 947 132 947 68 696 68 696 10ZM508 456C562 443 621 427 676 408 723 424 766 441 799 456ZM93 225L93 932 159 932 159 286 273 286C254 344 228 416 201 479 268 546 286 605 287 653 287 679 282 704 268 713 261 718 251 720 241 721 228 721 210 721 190 719 201 737 207 764 207 782 228 783 250 782 268 780 285 778 301 773 314 763 341 744 352 707 352 658 351 603 334 541 266 470 298 402 331 318 358 248L311 222 300 225Z"/>
</svg>