<svg xmlns="http://www.w3.org/2000/svg" name="gid11425" data-unicode="藪"
    viewBox="0 0 1000 1000">
  <!--
© 2014-2021 Adobe (http://www.adobe.com/).
Noto is a trademark of Google Inc.
This Font Software is licensed under the SIL Open Font License, Version 1.1. This Font Software is distributed on an "AS IS" BASIS, WITHOUT WARRANTIES OR CONDITIONS OF ANY KIND, either express or implied. See the SIL Open Font License for the specific language, permissions and limitations governing your use of this Font Software.
http://scripts.sil.org/OFL
  -->
<path d="M406 757C390 788 368 812 338 833 295 817 251 803 211 792L237 757ZM470 757L573 757 573 704 274 704 303 661 529 661 529 569C543 580 558 593 565 602 584 578 602 550 618 519 640 601 668 676 703 741 652 809 583 862 494 900 468 886 435 871 399 856 431 829 455 797 470 757ZM53 344L53 399 119 399 119 482 279 482 279 519 99 519 99 661 233 661 204 704 52 704 52 757 167 757C146 785 126 812 109 833L165 853 178 836C209 844 241 854 272 865 218 886 149 898 63 906 73 920 83 944 87 960 194 946 279 925 343 892 387 910 428 929 457 946L495 904C509 919 529 948 536 963 622 921 690 869 743 804 792 871 852 925 926 961 937 943 958 915 974 901 897 868 835 814 786 745 841 659 877 553 900 423L957 423 957 357 682 357C693 319 703 279 711 238L656 228 703 228 703 168 947 168 947 104 703 104 703 40 629 40 629 104 367 104 367 40 293 40 293 104 56 104 56 168 293 168 293 216 279 216 279 261 119 261 119 344ZM660 423L827 423C810 522 783 606 744 677 706 604 678 519 659 426ZM638 228C618 341 582 449 529 526L529 519 342 519 342 482 509 482 509 399 575 399 575 344 509 344 509 261 342 261 342 232 367 232 367 168 629 168 629 228ZM162 563L279 563 279 619 162 619ZM342 563L464 563 464 619 342 619ZM177 306L279 306 279 351 177 351ZM279 437L177 437 177 391 279 391ZM342 306L448 306 448 351 342 351ZM342 437L342 391 448 391 448 437Z"/>
</svg>