<svg xmlns="http://www.w3.org/2000/svg"
    viewBox="0 0 1000 1000">
  <!--
© 2014-2021 Adobe (http://www.adobe.com/).
Noto is a trademark of Google Inc.
This Font Software is licensed under the SIL Open Font License, Version 1.1. This Font Software is distributed on an "AS IS" BASIS, WITHOUT WARRANTIES OR CONDITIONS OF ANY KIND, either express or implied. See the SIL Open Font License for the specific language, permissions and limitations governing your use of this Font Software.
http://scripts.sil.org/OFL
  -->
<path d="M631 10L631 74 364 74 364 10 292 10 292 74 58 74 58 130 292 130 292 179 364 179 364 130 631 130 631 179 705 179 705 130 945 130 945 74 705 74 705 10ZM203 579L402 579 402 626 203 626ZM203 538L203 491 402 491 402 538ZM203 668L402 668 402 700 396 704 203 723ZM71 206L71 339 142 339 142 260 353 260C326 326 261 356 98 373 109 385 125 409 130 424 200 415 255 403 297 387 292 404 284 425 277 444L135 444 135 730 51 737 60 790 320 758C242 805 150 842 60 868 71 879 88 905 95 917 201 881 312 830 402 764L402 860C402 871 399 874 388 875 376 875 340 876 299 874 309 890 320 914 324 930 379 930 416 929 440 920 464 910 471 893 471 860L471 705C485 691 499 676 511 661L471 646 471 444 344 444 372 388 312 381C373 353 406 315 424 260L556 260 556 314C556 374 577 387 658 387 674 387 772 387 789 387 836 387 857 375 865 334L931 334 931 206 535 206 535 148 461 148 461 206ZM561 556C548 620 528 700 511 753L578 766 588 733 840 733C828 814 814 850 798 864 789 871 779 872 761 872 743 872 692 871 640 866 651 884 660 909 661 927 712 931 762 931 786 929 816 928 835 923 854 908 880 884 897 830 915 708 917 698 918 678 918 678L602 678 618 609 889 609 889 431 527 431 527 485 819 485 819 556ZM858 308C841 304 821 298 810 291 807 330 802 336 779 336 759 336 681 336 666 336 633 336 629 333 629 314L629 260 858 260Z"/>
</svg>