<svg xmlns="http://www.w3.org/2000/svg"
    viewBox="0 0 1000 1000">
  <!--
© 2014-2021 Adobe (http://www.adobe.com/).
Noto is a trademark of Google Inc.
This Font Software is licensed under the SIL Open Font License, Version 1.1. This Font Software is distributed on an "AS IS" BASIS, WITHOUT WARRANTIES OR CONDITIONS OF ANY KIND, either express or implied. See the SIL Open Font License for the specific language, permissions and limitations governing your use of this Font Software.
http://scripts.sil.org/OFL
  -->
<path d="M102 238L102 290 359 290 359 238ZM96 443L96 495 361 495 361 443ZM96 545L96 596 361 596 361 545ZM45 339L45 393 413 393 413 339ZM719 530C743 543 769 562 789 579L630 579C664 552 697 523 729 492L947 492 947 434 784 434C837 375 884 311 924 242L860 219C837 261 810 301 780 339L780 289 646 289 646 218 703 218 703 148 945 148 945 81 703 81 703 10 629 10 629 81 367 81 367 10 293 10 293 81 53 81 53 148 293 148 293 218 367 218 367 148 629 148 629 207 577 207 577 289 438 289 438 346 577 346 577 434 407 434 407 492 633 492C596 523 557 552 517 579L509 579 509 584C466 612 421 637 375 659 390 672 414 699 424 713 453 698 481 682 509 664L509 930 577 930 577 897 806 897 806 927 878 927 878 579 821 579 846 557C828 537 791 512 759 496ZM646 434L646 346 775 346C750 377 724 406 696 434ZM577 761L806 761 806 841 577 841ZM577 710L577 635 806 635 806 710ZM91 647L91 929 155 929 155 883 367 883 367 647ZM155 703L301 703 301 827 155 827Z"/>
</svg>