<svg xmlns="http://www.w3.org/2000/svg" name="gid11433" data-unicode="藻"
    viewBox="0 0 1000 1000">
  <!--
© 2014-2021 Adobe (http://www.adobe.com/).
Noto is a trademark of Google Inc.
This Font Software is licensed under the SIL Open Font License, Version 1.1. This Font Software is distributed on an "AS IS" BASIS, WITHOUT WARRANTIES OR CONDITIONS OF ANY KIND, either express or implied. See the SIL Open Font License for the specific language, permissions and limitations governing your use of this Font Software.
http://scripts.sil.org/OFL
  -->
<path d="M99 281C156 312 226 359 260 393L306 339C271 304 200 261 143 233ZM46 480C104 509 175 555 208 588L253 533C218 499 147 456 90 430ZM54 910L118 953C162 877 213 778 252 694L196 652C153 743 94 847 54 910ZM492 295L742 295 742 369 492 369ZM421 246L421 418 815 418 815 246ZM382 500L525 500 525 578 382 578ZM319 455L319 621 591 621 591 455ZM709 499L857 499 857 577 709 577ZM646 455L646 621 925 621 925 455ZM631 40L631 104 367 104 367 40 293 40 293 104 56 104 56 170 293 170 293 239 367 239 367 170 631 170 631 235 705 235 705 170 947 170 947 104 705 104 705 40ZM582 622L582 683 280 683 280 745 521 745C452 811 345 868 244 896 260 910 281 936 291 954 397 917 510 846 582 764L582 960 655 960 655 762C720 842 825 913 926 948 937 930 958 903 974 889 877 864 776 809 713 745L954 745 954 683 655 683 655 622Z"/>
</svg>