<svg xmlns="http://www.w3.org/2000/svg" name="gid11437" data-unicode="蘀"
    viewBox="0 0 1000 1000">
  <!--
© 2014-2021 Adobe (http://www.adobe.com/).
Noto is a trademark of Google Inc.
This Font Software is licensed under the SIL Open Font License, Version 1.1. This Font Software is distributed on an "AS IS" BASIS, WITHOUT WARRANTIES OR CONDITIONS OF ANY KIND, either express or implied. See the SIL Open Font License for the specific language, permissions and limitations governing your use of this Font Software.
http://scripts.sil.org/OFL
  -->
<path d="M760 289L857 289 857 364 760 364ZM605 289L700 289 700 364 605 364ZM454 289L545 289 545 364 454 364ZM622 40L622 100 372 100 372 40 299 40 299 100 58 100 58 162 299 162 299 219 372 219 372 162 622 162 622 216 695 216 695 162 945 162 945 100 695 100 695 40ZM174 223L174 365 52 365 52 429 174 429 174 601C123 616 77 630 39 640L61 709 174 671 174 879C174 891 170 894 158 895 146 895 109 896 67 894 76 913 85 942 88 960 149 960 187 959 211 948 236 937 245 917 245 878L245 647 344 614 334 551 245 579 245 429 351 429 351 365 245 365 245 223ZM477 629C490 651 502 679 510 702L359 702 359 756 614 756 614 814 381 814 381 868 614 868 614 960 686 960 686 868 926 868 926 814 686 814 686 756 949 756 949 702 792 702 835 629 819 625 961 625 961 570 686 570 686 518 906 518 906 464 686 464 686 417 922 417 922 237 391 237 391 417 614 417 614 464 401 464 401 518 614 518 614 570 349 570 349 625 493 625ZM544 625L759 625C749 649 735 680 724 702L579 702C573 681 559 650 544 625Z"/>
</svg>