<svg xmlns="http://www.w3.org/2000/svg" name="gid11457" data-unicode="蘞"
    viewBox="0 0 1000 1000">
  <!--
© 2014-2021 Adobe (http://www.adobe.com/).
Noto is a trademark of Google Inc.
This Font Software is licensed under the SIL Open Font License, Version 1.1. This Font Software is distributed on an "AS IS" BASIS, WITHOUT WARRANTIES OR CONDITIONS OF ANY KIND, either express or implied. See the SIL Open Font License for the specific language, permissions and limitations governing your use of this Font Software.
http://scripts.sil.org/OFL
  -->
<path d="M136 557L222 557 222 643 136 643ZM84 504L84 697 276 697 276 504ZM368 557L455 557 455 643 368 643ZM629 40L629 104 367 104 367 40 293 40 293 104 56 104 56 167 293 167 293 214 367 214 367 167 629 167 629 214 703 214 703 167 947 167 947 104 703 104 703 40ZM263 227C219 295 140 374 31 432 46 442 67 466 77 481 112 461 143 439 171 417L171 450 439 450 439 401 486 448 533 397C486 350 398 278 329 227ZM199 394C242 357 277 320 305 287 348 317 394 358 432 394ZM631 222C609 338 568 450 509 528L509 504 316 504 316 697 509 697 509 566C523 578 538 593 546 601 567 576 586 546 604 514 629 596 660 672 698 739 651 809 588 864 506 904 520 918 543 947 550 962 628 919 690 866 738 801 787 869 846 923 916 961 927 943 949 917 965 903 891 868 829 811 778 740 828 653 860 548 880 422L957 422 957 360 669 360C682 320 693 278 702 236ZM157 700C141 793 105 868 41 918 55 928 81 950 90 961 129 929 160 886 184 835 207 859 230 886 242 906L287 864C270 840 236 803 205 777 212 754 218 731 222 706ZM379 700C364 793 328 868 261 916 276 926 300 948 310 960 351 928 384 886 407 835 436 862 464 893 479 916L525 874C505 846 464 806 429 776 435 753 440 730 444 705ZM646 422L809 422C795 518 771 602 737 673 696 599 666 515 645 426Z"/>
</svg>