<svg xmlns="http://www.w3.org/2000/svg"
    viewBox="0 0 1000 1000">
  <!--
© 2014-2021 Adobe (http://www.adobe.com/).
Noto is a trademark of Google Inc.
This Font Software is licensed under the SIL Open Font License, Version 1.1. This Font Software is distributed on an "AS IS" BASIS, WITHOUT WARRANTIES OR CONDITIONS OF ANY KIND, either express or implied. See the SIL Open Font License for the specific language, permissions and limitations governing your use of this Font Software.
http://scripts.sil.org/OFL
  -->
<path d="M135 320C151 351 165 392 169 422L47 422 47 479 509 479 509 422 385 422C400 394 417 355 433 319L392 307 494 307 494 251 315 251 315 188 367 188 367 140 629 140 629 188 702 188 702 140 947 140 947 78 702 78 702 10 629 10 629 78 367 78 367 10 294 10 294 78 56 78 56 140 294 140 294 177 246 177 246 251 73 251 73 307 184 307ZM369 307C359 341 341 389 326 419L336 422 209 422 230 416C225 386 211 341 192 307ZM172 685L388 685 388 741 172 741ZM172 638L172 584 388 584 388 638ZM107 530L107 931 172 931 172 791 388 791 388 861C388 872 385 875 374 875 363 876 327 876 287 874 296 891 305 913 309 930 365 930 402 930 425 920 448 910 455 894 455 862L455 530ZM541 489L541 825C541 901 569 919 664 919 685 919 837 919 858 919 930 919 952 897 960 817 940 814 913 805 898 794 895 850 888 861 852 861 821 861 693 861 669 861 619 861 611 854 611 824L611 793 892 793 892 746 611 746 611 698 875 698 875 653 611 653 611 604 890 604 890 558 611 558 611 510 903 510 903 349 611 349 611 294 926 294 926 244 611 244 611 177 541 177 541 398 834 398 834 460 541 460Z"/>
</svg>