<svg xmlns="http://www.w3.org/2000/svg" name="gid11486" data-unicode="虗"
    viewBox="0 0 1000 1000">
  <!--
© 2014-2021 Adobe (http://www.adobe.com/).
Noto is a trademark of Google Inc.
This Font Software is licensed under the SIL Open Font License, Version 1.1. This Font Software is distributed on an "AS IS" BASIS, WITHOUT WARRANTIES OR CONDITIONS OF ANY KIND, either express or implied. See the SIL Open Font License for the specific language, permissions and limitations governing your use of this Font Software.
http://scripts.sil.org/OFL
  -->
<path d="M127 236L127 478C127 609 119 791 40 921 58 928 90 947 104 959 187 823 200 620 200 478L200 296 439 296 439 369 235 386 241 438 439 421 439 437C439 507 469 522 579 522 602 522 786 522 810 522 888 522 912 503 919 426 900 423 873 415 857 405 853 460 846 468 803 468 765 468 610 468 582 468 520 468 510 462 510 437L510 414 778 391 772 340 510 362 510 296 844 296C834 323 823 348 813 368L878 390C899 354 922 298 940 247L886 232 872 236 526 236 526 170 866 170 866 111 526 111 526 40 452 40 452 236ZM628 880L368 880 368 751 628 751ZM296 570L296 880 173 880 173 938 946 938 946 880 699 880 699 751 898 751 898 693 368 693 368 636C528 628 711 611 835 583L780 535C684 556 514 574 361 584Z"/>
</svg>