<svg xmlns="http://www.w3.org/2000/svg" name="gid11515" data-unicode="蚉"
    viewBox="0 0 1000 1000">
  <!--
© 2014-2021 Adobe (http://www.adobe.com/).
Noto is a trademark of Google Inc.
This Font Software is licensed under the SIL Open Font License, Version 1.1. This Font Software is distributed on an "AS IS" BASIS, WITHOUT WARRANTIES OR CONDITIONS OF ANY KIND, either express or implied. See the SIL Open Font License for the specific language, permissions and limitations governing your use of this Font Software.
http://scripts.sil.org/OFL
  -->
<path d="M227 571L460 571 460 682 227 682ZM534 571L774 571 774 682 534 682ZM661 782C690 799 721 819 752 840L534 847 534 741 847 741 847 511 534 511 534 441 460 441 460 511 158 511 158 741 460 741 460 850C311 854 175 857 74 859L80 928 833 902C857 923 878 942 894 959L956 919C905 868 806 794 722 747ZM71 128L71 189 232 189C283 246 347 295 422 335 313 374 185 401 47 418 60 434 74 462 81 482 238 460 383 425 504 374 625 425 765 458 913 476 922 456 940 427 956 410 824 397 697 371 586 334 659 294 720 246 767 189L931 189 931 128 535 128 535 40 460 40 460 128ZM322 189L674 189C629 233 571 270 504 301 432 270 370 233 322 189Z"/>
</svg>