<svg xmlns="http://www.w3.org/2000/svg" name="gid11520" data-unicode="蚑"
    viewBox="0 0 1000 1000">
  <!--
© 2014-2021 Adobe (http://www.adobe.com/).
Noto is a trademark of Google Inc.
This Font Software is licensed under the SIL Open Font License, Version 1.1. This Font Software is distributed on an "AS IS" BASIS, WITHOUT WARRANTIES OR CONDITIONS OF ANY KIND, either express or implied. See the SIL Open Font License for the specific language, permissions and limitations governing your use of this Font Software.
http://scripts.sil.org/OFL
  -->
<path d="M319 656C335 688 350 725 362 762L272 777 272 586 409 586 409 222 272 222 272 49 206 49 206 222 69 222 69 631 129 631 129 586 206 586 206 788 38 815 50 887 382 824C389 849 394 871 397 891L379 897C394 911 418 942 427 961 522 928 611 881 688 816 754 878 832 927 920 959 931 940 954 910 971 895 885 867 808 822 743 765 826 680 890 571 929 434L880 411 865 414 726 414 726 260 954 260 954 188 726 188 726 43 653 43 653 188 426 188 426 260 653 260 653 414 442 414 442 483 529 483 485 496C522 597 573 687 637 762 583 805 522 841 457 868 444 804 412 711 376 639ZM833 483C801 575 752 651 690 713 631 647 584 569 552 483ZM129 287L211 287 211 521 129 521ZM267 287L349 287 349 521 267 521Z"/>
</svg>