<svg xmlns="http://www.w3.org/2000/svg"
    viewBox="0 0 1000 1000">
  <!--
© 2014-2021 Adobe (http://www.adobe.com/).
Noto is a trademark of Google Inc.
This Font Software is licensed under the SIL Open Font License, Version 1.1. This Font Software is distributed on an "AS IS" BASIS, WITHOUT WARRANTIES OR CONDITIONS OF ANY KIND, either express or implied. See the SIL Open Font License for the specific language, permissions and limitations governing your use of this Font Software.
http://scripts.sil.org/OFL
  -->
<path d="M440 588L450 655 619 623 619 799C619 892 641 917 723 917 739 917 839 917 856 917 931 917 950 872 958 736 938 732 909 720 893 706 889 821 884 849 852 849 831 849 748 849 731 849 697 849 690 841 690 800L690 610 962 559 951 494 690 542 690 382 922 337 910 271 690 313 690 143C764 121 833 97 889 70L826 16C737 63 576 111 435 143 444 159 455 185 459 201 511 190 565 177 619 163L619 327 458 358 470 425 619 396 619 555ZM310 625C325 657 340 693 353 730L278 744 278 556 410 556 410 192 278 192 278 14 209 14 209 192 73 192 73 604 136 604 136 556 210 556 210 758 41 789 54 861 373 793C381 821 387 846 391 868L453 847C440 780 406 681 366 605ZM136 255L217 255 217 493 136 493ZM272 255L347 255 347 493 272 493Z"/>
</svg>