<svg xmlns="http://www.w3.org/2000/svg" name="gid11535" data-unicode="蚪"
    viewBox="0 0 1000 1000">
  <!--
© 2014-2021 Adobe (http://www.adobe.com/).
Noto is a trademark of Google Inc.
This Font Software is licensed under the SIL Open Font License, Version 1.1. This Font Software is distributed on an "AS IS" BASIS, WITHOUT WARRANTIES OR CONDITIONS OF ANY KIND, either express or implied. See the SIL Open Font License for the specific language, permissions and limitations governing your use of this Font Software.
http://scripts.sil.org/OFL
  -->
<path d="M516 153C573 194 641 254 671 295L723 246C691 204 622 147 565 109ZM484 413C547 455 620 517 654 561L704 511C669 468 593 408 531 368ZM333 661C349 695 366 734 379 773L288 785 288 586 440 586 440 222 289 222 289 45 220 45 220 222 75 222 75 634 136 634 136 586 219 586 219 795 41 819 53 891 401 838C408 864 415 889 418 911L476 892C463 824 427 722 387 643ZM136 285L224 285 224 523 136 523ZM283 285L378 285 378 523 283 523ZM450 690L463 761 769 708 769 958 840 958 840 695 975 672 962 603 840 624 840 39 769 39 769 636Z"/>
</svg>