<svg xmlns="http://www.w3.org/2000/svg"
    viewBox="0 0 1000 1000">
  <!--
© 2014-2021 Adobe (http://www.adobe.com/).
Noto is a trademark of Google Inc.
This Font Software is licensed under the SIL Open Font License, Version 1.1. This Font Software is distributed on an "AS IS" BASIS, WITHOUT WARRANTIES OR CONDITIONS OF ANY KIND, either express or implied. See the SIL Open Font License for the specific language, permissions and limitations governing your use of this Font Software.
http://scripts.sil.org/OFL
  -->
<path d="M311 631C325 666 338 707 349 746L261 760 261 562 390 562 390 359C405 371 422 385 430 394 446 376 462 355 477 333L477 795C477 889 509 912 615 912 638 912 811 912 837 912 929 912 951 876 962 751 942 747 912 735 896 723 890 825 882 845 832 845 795 845 647 845 618 845 558 845 548 836 548 795L548 608 764 608 764 322 485 322C504 293 523 261 541 227L854 227C846 523 836 627 817 651 810 663 802 666 788 665 773 665 740 665 703 662 714 681 721 709 722 730 759 731 797 732 820 729 845 726 862 718 878 696 904 660 914 543 924 193 924 182 924 158 924 158L574 158C593 116 609 72 623 27L551 10C516 128 460 243 390 325L390 196 262 196 262 21 199 21 199 196 73 196 73 608 130 608 130 562 198 562 198 770C137 779 82 787 37 793L48 864 364 809C369 834 373 858 375 878L435 862C427 795 399 694 366 616ZM548 386L699 386 699 545 548 545ZM130 259L203 259 203 498 130 498ZM256 259L334 259 334 498 256 498Z"/>
</svg>