<svg xmlns="http://www.w3.org/2000/svg"
    viewBox="0 0 1000 1000">
  <!--
© 2014-2021 Adobe (http://www.adobe.com/).
Noto is a trademark of Google Inc.
This Font Software is licensed under the SIL Open Font License, Version 1.1. This Font Software is distributed on an "AS IS" BASIS, WITHOUT WARRANTIES OR CONDITIONS OF ANY KIND, either express or implied. See the SIL Open Font License for the specific language, permissions and limitations governing your use of this Font Software.
http://scripts.sil.org/OFL
  -->
<path d="M536 573L662 573 662 806 536 806ZM536 506L536 291 662 291 662 506ZM861 573L861 806 730 806 730 573ZM861 506L730 506 730 291 861 291ZM660 10L660 223 467 223 467 930 536 930 536 874 861 874 861 924 932 924 932 223 732 223 732 10ZM315 637C324 668 332 703 340 738L263 754 263 566 395 566 395 189 264 189 264 14 203 14 203 189 72 189 72 619 132 619 132 566 203 566 203 767C144 778 90 789 47 796L59 866 353 801C358 832 363 861 366 885L425 871C416 804 394 704 369 624ZM132 253L210 253 210 502 132 502ZM257 253L333 253 333 502 257 502Z"/>
</svg>