<svg xmlns="http://www.w3.org/2000/svg"
    viewBox="0 0 1000 1000">
  <!--
© 2014-2021 Adobe (http://www.adobe.com/).
Noto is a trademark of Google Inc.
This Font Software is licensed under the SIL Open Font License, Version 1.1. This Font Software is distributed on an "AS IS" BASIS, WITHOUT WARRANTIES OR CONDITIONS OF ANY KIND, either express or implied. See the SIL Open Font License for the specific language, permissions and limitations governing your use of this Font Software.
http://scripts.sil.org/OFL
  -->
<path d="M431 198L431 268 512 268 512 929 585 929 585 869 806 869 806 929 880 929 880 268 961 268 961 198 880 198 880 16 806 16 806 198 585 198 585 16 512 16 512 198ZM585 268L806 268 806 492 585 492ZM585 562L806 562 806 798 585 798ZM309 625C325 662 341 704 355 745L268 757 268 556 400 556 400 192 268 192 268 14 200 14 200 192 64 192 64 604 125 604 125 556 200 556 200 766 30 789 42 859C133 845 256 827 375 807 382 832 387 855 391 875L449 857C437 789 401 687 364 607ZM125 255L206 255 206 493 125 493ZM262 255L337 255 337 493 262 493Z"/>
</svg>