<svg xmlns="http://www.w3.org/2000/svg"
    viewBox="0 0 1000 1000">
  <!--
© 2014-2021 Adobe (http://www.adobe.com/).
Noto is a trademark of Google Inc.
This Font Software is licensed under the SIL Open Font License, Version 1.1. This Font Software is distributed on an "AS IS" BASIS, WITHOUT WARRANTIES OR CONDITIONS OF ANY KIND, either express or implied. See the SIL Open Font License for the specific language, permissions and limitations governing your use of this Font Software.
http://scripts.sil.org/OFL
  -->
<path d="M245 444L462 444 462 587 245 587ZM536 444L758 444 758 587 536 587ZM689 709C718 740 749 776 778 813L536 821 536 652 837 652 837 378 536 378 536 286 462 286 462 378 170 378 170 652 462 652 462 824 77 835 84 908C270 902 558 891 829 880 846 904 861 926 872 945L943 910C905 847 823 750 756 680ZM407 32C436 78 462 138 473 180L268 180 301 163C284 124 242 68 204 26L140 56C172 93 206 142 226 180L72 180 72 372 144 372 144 249 854 249 854 372 929 372 929 180 761 180C796 141 837 93 871 47L791 19C763 67 713 136 674 179L676 180 491 180 545 161C535 120 504 57 473 10Z"/>
</svg>