<svg xmlns="http://www.w3.org/2000/svg" name="gid11562" data-unicode="蛔"
    viewBox="0 0 1000 1000">
  <!--
© 2014-2021 Adobe (http://www.adobe.com/).
Noto is a trademark of Google Inc.
This Font Software is licensed under the SIL Open Font License, Version 1.1. This Font Software is distributed on an "AS IS" BASIS, WITHOUT WARRANTIES OR CONDITIONS OF ANY KIND, either express or implied. See the SIL Open Font License for the specific language, permissions and limitations governing your use of this Font Software.
http://scripts.sil.org/OFL
  -->
<path d="M630 346L739 346 739 636 630 636ZM579 293L579 691 791 691 791 293ZM449 94L449 960 514 960 514 895 857 895 857 956 924 956 924 94ZM514 829L514 158 857 158 857 829ZM321 645C330 683 339 726 347 769L270 780 270 575 402 575 402 222 270 222 270 42 205 42 205 222 75 222 75 628 134 628 134 575 204 575 204 790C140 800 81 808 34 814L46 886 358 834 367 907 426 892C419 821 398 715 377 632ZM134 285L210 285 210 513 134 513ZM264 285L344 285 344 513 264 513Z"/>
</svg>