<svg xmlns="http://www.w3.org/2000/svg" name="gid11572" data-unicode="蛣"
    viewBox="0 0 1000 1000">
  <!--
© 2014-2021 Adobe (http://www.adobe.com/).
Noto is a trademark of Google Inc.
This Font Software is licensed under the SIL Open Font License, Version 1.1. This Font Software is distributed on an "AS IS" BASIS, WITHOUT WARRANTIES OR CONDITIONS OF ANY KIND, either express or implied. See the SIL Open Font License for the specific language, permissions and limitations governing your use of this Font Software.
http://scripts.sil.org/OFL
  -->
<path d="M323 663C338 700 352 743 363 784L274 797 274 586 410 586 410 227 274 227 274 51 208 51 208 227 75 227 75 639 134 639 134 586 208 586 208 806 35 829 45 901 380 850C385 873 389 895 392 914L455 896C445 828 414 725 381 647ZM134 289L213 289 213 524 134 524ZM269 289L351 289 351 524 269 524ZM653 42L653 188 433 188 433 257 653 257 653 412 464 412 464 480 927 480 927 412 724 412 724 257 961 257 961 188 724 188 724 42ZM486 586L486 960 555 960 555 916 828 916 828 956 898 956 898 586ZM555 848L555 654 828 654 828 848Z"/>
</svg>