<svg xmlns="http://www.w3.org/2000/svg"
    viewBox="0 0 1000 1000">
  <!--
© 2014-2021 Adobe (http://www.adobe.com/).
Noto is a trademark of Google Inc.
This Font Software is licensed under the SIL Open Font License, Version 1.1. This Font Software is distributed on an "AS IS" BASIS, WITHOUT WARRANTIES OR CONDITIONS OF ANY KIND, either express or implied. See the SIL Open Font License for the specific language, permissions and limitations governing your use of this Font Software.
http://scripts.sil.org/OFL
  -->
<path d="M269 537L462 537 462 650 269 650ZM536 537L728 537 728 650 536 650ZM623 9L623 110 374 110 374 9 300 9 300 110 102 110 102 179 300 179 300 288 56 288 56 356 288 356C224 438 127 505 26 548 41 562 68 592 79 606 119 587 158 563 196 536L196 711 462 711 462 826 97 832 101 901C283 897 567 889 838 880 858 901 876 921 890 938L951 901C908 850 820 769 745 716L687 746C715 768 746 793 775 820L536 825 536 711 804 711 804 531C841 557 879 580 916 597 927 578 950 552 967 537 875 501 773 431 705 356L946 356 946 288 698 288 698 179 901 179 901 110 698 110 698 9ZM462 405L462 475 272 475C311 439 347 399 375 356L621 356C652 397 690 438 733 475L536 475 536 405ZM374 288L374 179 623 179 623 288Z"/>
</svg>