<svg xmlns="http://www.w3.org/2000/svg"
    viewBox="0 0 1000 1000">
  <!--
© 2014-2021 Adobe (http://www.adobe.com/).
Noto is a trademark of Google Inc.
This Font Software is licensed under the SIL Open Font License, Version 1.1. This Font Software is distributed on an "AS IS" BASIS, WITHOUT WARRANTIES OR CONDITIONS OF ANY KIND, either express or implied. See the SIL Open Font License for the specific language, permissions and limitations governing your use of this Font Software.
http://scripts.sil.org/OFL
  -->
<path d="M798 67C837 122 878 196 895 243L955 217C937 171 893 99 854 45ZM696 18C697 122 698 222 702 315L568 315 568 115C609 100 648 84 681 68L626 19C565 55 453 94 356 121 365 135 375 157 379 171 419 161 461 150 502 137L502 315 376 315 376 382 502 382 502 566C450 579 402 589 364 597L381 665 502 633 502 848C502 861 498 864 486 865 474 865 436 866 395 864 404 883 414 912 417 929 475 930 512 928 536 917 559 905 568 886 568 848L568 615 687 584 680 522 568 550 568 382 705 382C712 506 722 615 739 703 695 769 641 825 579 869 594 881 619 905 629 918 677 881 720 836 759 786 786 877 824 929 878 929 939 929 959 885 970 749 955 742 931 728 917 714 913 820 904 863 885 863 853 863 827 810 807 715 855 637 894 547 922 448L857 435C840 499 818 559 790 614 781 547 775 469 770 382L953 382 953 315 767 315C764 224 763 124 764 18ZM278 617C290 652 301 691 310 730L240 741 240 543 355 543 355 189 240 189 240 11 183 11 183 189 71 189 71 580 125 580 125 543 182 543 182 751 35 772 46 837 321 789C324 808 326 826 327 842L381 829C377 769 355 675 328 604ZM125 251L188 251 188 481 125 481ZM234 251L302 251 302 481 234 481Z"/>
</svg>