<svg xmlns="http://www.w3.org/2000/svg" name="gid11591" data-unicode="蜃"
    viewBox="0 0 1000 1000">
  <!--
© 2014-2021 Adobe (http://www.adobe.com/).
Noto is a trademark of Google Inc.
This Font Software is licensed under the SIL Open Font License, Version 1.1. This Font Software is distributed on an "AS IS" BASIS, WITHOUT WARRANTIES OR CONDITIONS OF ANY KIND, either express or implied. See the SIL Open Font License for the specific language, permissions and limitations governing your use of this Font Software.
http://scripts.sil.org/OFL
  -->
<path d="M267 183L267 230 823 230 823 183ZM200 466L206 524C305 514 441 501 574 486L574 434 382 451 382 339 494 339C578 459 733 526 926 553 935 534 952 508 967 494 877 485 794 468 725 440 773 421 828 397 872 370L821 339 931 339 931 283 207 283C209 259 210 236 210 215L210 132 906 132 906 76 138 76 138 214C138 309 124 437 31 531 47 540 77 566 89 580 156 512 187 423 201 339L312 339 312 457ZM815 339C777 362 717 392 666 414 627 393 594 368 568 339ZM240 624L462 624 462 712 240 712ZM536 624L774 624 774 712 536 712ZM69 860L74 929C267 924 562 915 839 906 865 929 887 951 904 969L961 929C918 885 835 816 764 768L847 768 847 568 536 568 536 512 462 512 462 568 170 568 170 768 462 768 462 854C312 857 173 859 69 860ZM699 795C721 810 745 828 769 847L536 852 536 768 742 768Z"/>
</svg>