<svg xmlns="http://www.w3.org/2000/svg" name="gid11593" data-unicode="蜅"
    viewBox="0 0 1000 1000">
  <!--
© 2014-2021 Adobe (http://www.adobe.com/).
Noto is a trademark of Google Inc.
This Font Software is licensed under the SIL Open Font License, Version 1.1. This Font Software is distributed on an "AS IS" BASIS, WITHOUT WARRANTIES OR CONDITIONS OF ANY KIND, either express or implied. See the SIL Open Font License for the specific language, permissions and limitations governing your use of this Font Software.
http://scripts.sil.org/OFL
  -->
<path d="M320 618C333 652 346 691 357 729L271 745 271 559 403 559 403 213 271 213 271 51 205 51 205 213 71 213 71 612 130 612 130 559 205 559 205 756C141 767 81 777 34 783L44 854C135 837 256 815 373 791 378 813 381 833 383 851L443 834C434 770 407 675 376 602ZM130 275L210 275 210 497 130 497ZM265 275L344 275 344 497 265 497ZM656 40L656 178 434 178 434 245 656 245 656 337 461 337 461 956 528 956 528 725 661 725 661 955 724 955 724 725 865 725 865 876C865 887 861 890 850 890 841 890 808 890 772 889 782 908 791 938 794 957 849 957 882 955 905 944 928 932 934 911 934 877L934 337 729 337 729 245 960 245 960 178 901 178 940 133C912 102 853 62 804 37L763 80C811 106 866 147 895 178L729 178 729 40ZM865 401L865 498 724 498 724 401ZM528 559L661 559 661 660 528 660ZM528 498L528 401 661 401 661 498ZM865 559L865 660 724 660 724 559Z"/>
</svg>