<svg xmlns="http://www.w3.org/2000/svg" name="gid11603" data-unicode="蜐"
    viewBox="0 0 1000 1000">
  <!--
© 2014-2021 Adobe (http://www.adobe.com/).
Noto is a trademark of Google Inc.
This Font Software is licensed under the SIL Open Font License, Version 1.1. This Font Software is distributed on an "AS IS" BASIS, WITHOUT WARRANTIES OR CONDITIONS OF ANY KIND, either express or implied. See the SIL Open Font License for the specific language, permissions and limitations governing your use of this Font Software.
http://scripts.sil.org/OFL
  -->
<path d="M541 579C558 621 574 669 586 715L469 735C489 660 509 560 525 476L669 476 669 413 544 413 544 267 653 267 653 204 544 204 544 42 480 42 480 204 382 204 382 267 480 267 480 413 362 413 362 476 457 476C446 561 426 671 408 745L373 751 387 816 599 774 606 818 641 805C620 846 593 883 560 915 576 924 600 945 611 959 749 822 788 600 800 345L876 345C868 721 857 852 837 881 828 894 820 897 806 897 790 897 757 896 717 893 727 911 734 939 736 959 774 960 811 961 834 957 862 955 880 948 895 923 924 882 932 745 942 317 942 307 943 282 943 282L802 282C804 204 805 123 805 41L740 41C740 123 740 204 738 282L661 282 661 345 735 345C728 505 710 651 659 767 648 708 623 627 595 562ZM264 652C276 684 287 722 296 758L234 771 234 571 342 571 342 222 234 222 234 41 176 41 176 222 68 222 68 618 121 618 121 571 176 571 176 782C122 793 73 802 33 808L47 873 309 817C313 839 316 860 317 878L372 864C366 803 343 710 313 638ZM121 283L181 283 181 510 121 510ZM228 283L289 283 289 510 228 510Z"/>
</svg>