<svg xmlns="http://www.w3.org/2000/svg"
    viewBox="0 0 1000 1000">
  <!--
© 2014-2021 Adobe (http://www.adobe.com/).
Noto is a trademark of Google Inc.
This Font Software is licensed under the SIL Open Font License, Version 1.1. This Font Software is distributed on an "AS IS" BASIS, WITHOUT WARRANTIES OR CONDITIONS OF ANY KIND, either express or implied. See the SIL Open Font License for the specific language, permissions and limitations governing your use of this Font Software.
http://scripts.sil.org/OFL
  -->
<path d="M422 199L422 265C422 334 445 360 532 360 557 360 773 360 815 360 860 360 910 359 929 354 927 339 925 315 922 295 898 300 842 302 810 302L692 302 692 220 907 220 907 167 692 167 692 95C769 86 841 73 897 57L850 8C751 36 560 55 405 62 413 77 421 100 423 115 486 113 555 109 622 103L622 302 533 302C496 302 488 294 488 266L488 157 422 157ZM135 281L80 304C105 345 134 377 169 400 127 431 78 454 26 471 40 482 62 509 71 525 130 503 186 473 234 433 311 462 415 469 559 469L929 469C933 451 945 423 955 409 898 410 598 410 557 410 442 410 352 405 283 386 326 337 361 277 384 203L342 184 330 186 228 186C268 145 308 103 340 67L292 39 281 44 76 44 76 105 221 105C180 148 130 199 85 242L142 273 173 242 300 242C279 288 251 327 217 360 182 341 155 316 135 281ZM226 593L462 593 462 684 226 684ZM536 593L780 593 780 684 536 684ZM84 834L89 903C278 899 570 891 846 884 865 904 882 923 894 939L955 904C920 860 848 791 786 742L854 742 854 536 536 536 536 475 462 475 462 536 156 536 156 742 462 742 462 830ZM722 767C742 784 765 803 786 824L536 828 536 742 773 742Z"/>
</svg>