<svg xmlns="http://www.w3.org/2000/svg" name="gid11619" data-unicode="蜩"
    viewBox="0 0 1000 1000">
  <!--
© 2014-2021 Adobe (http://www.adobe.com/).
Noto is a trademark of Google Inc.
This Font Software is licensed under the SIL Open Font License, Version 1.1. This Font Software is distributed on an "AS IS" BASIS, WITHOUT WARRANTIES OR CONDITIONS OF ANY KIND, either express or implied. See the SIL Open Font License for the specific language, permissions and limitations governing your use of this Font Software.
http://scripts.sil.org/OFL
  -->
<path d="M299 640C311 672 322 709 330 745L256 759 256 573 381 573 381 213 257 213 257 50 194 50 194 213 72 213 72 615 127 615 127 573 194 573 194 771C134 782 79 792 35 799L54 868 343 806C347 825 349 843 350 859L390 848C379 876 364 902 346 926 363 933 391 949 401 960 494 836 507 643 507 496L507 152 857 152 857 877C857 892 851 897 837 897 824 897 779 898 729 896 738 914 748 943 750 960 822 960 863 959 889 947 915 936 924 917 924 878L924 86 443 86 443 496C443 595 439 711 404 813 395 757 377 684 353 626ZM648 175L648 257 544 257 544 312 648 312 648 396 541 396 541 450 648 450 648 528 706 528 706 450 817 450 817 396 706 396 706 312 816 312 816 257 706 257 706 175ZM558 550L558 858 611 858 611 798 801 798 801 550ZM611 605L746 605 746 743 611 743ZM127 277L199 277 199 510 127 510ZM251 277L324 277 324 510 251 510Z"/>
</svg>