<svg xmlns="http://www.w3.org/2000/svg"
    viewBox="0 0 1000 1000">
  <!--
© 2014-2021 Adobe (http://www.adobe.com/).
Noto is a trademark of Google Inc.
This Font Software is licensed under the SIL Open Font License, Version 1.1. This Font Software is distributed on an "AS IS" BASIS, WITHOUT WARRANTIES OR CONDITIONS OF ANY KIND, either express or implied. See the SIL Open Font License for the specific language, permissions and limitations governing your use of this Font Software.
http://scripts.sil.org/OFL
  -->
<path d="M279 630C290 664 301 702 310 740L252 754 252 567 377 567 377 190 256 190 256 14 191 14 191 190 67 190 67 620 125 620 125 567 192 567 192 767C135 780 82 791 39 798L52 864 323 800 333 863 389 846 388 839C402 852 418 872 427 885 506 833 586 740 642 640L642 929 715 929 715 634C769 728 848 824 917 878 929 859 953 834 970 821 893 773 806 682 752 593L952 593 952 526 715 526 715 442 915 442 915 52 448 52 448 442 642 442 642 526 413 526 413 593 605 593C552 685 468 774 385 823 375 762 354 680 332 616ZM515 277L647 277 647 381 515 381ZM710 277L844 277 844 381 710 381ZM515 114L647 114 647 216 515 216ZM710 114L844 114 844 216 710 216ZM125 253L197 253 197 503 125 503ZM247 253L315 253 315 503 247 503Z"/>
</svg>