<svg xmlns="http://www.w3.org/2000/svg"
    viewBox="0 0 1000 1000">
  <!--
© 2014-2021 Adobe (http://www.adobe.com/).
Noto is a trademark of Google Inc.
This Font Software is licensed under the SIL Open Font License, Version 1.1. This Font Software is distributed on an "AS IS" BASIS, WITHOUT WARRANTIES OR CONDITIONS OF ANY KIND, either express or implied. See the SIL Open Font License for the specific language, permissions and limitations governing your use of this Font Software.
http://scripts.sil.org/OFL
  -->
<path d="M696 343L696 825C696 905 715 924 781 924 795 924 869 924 883 924 943 924 961 889 968 765 949 761 923 749 909 738 907 841 903 859 878 859 862 859 800 859 789 859 761 859 757 853 757 825L757 403 858 403 858 633C858 641 856 644 848 644 840 645 817 645 789 644 797 661 804 684 806 701 848 701 877 701 896 690 915 680 920 663 920 634L920 343ZM482 271L480 286 480 216 872 216 872 316 942 316 942 154 708 154 708 14 636 14 636 154 413 154 413 316 475 316C455 435 419 542 361 614 376 623 403 642 414 652 430 631 444 608 457 582 491 609 526 642 549 668 508 767 450 837 378 878 392 891 409 914 417 929 559 840 646 670 673 374L635 366 624 368 529 368C535 340 540 310 545 280ZM514 427L607 427C600 491 588 548 573 600 548 576 514 549 481 527 494 496 505 462 514 427ZM299 634C312 669 325 710 334 749L255 761 255 556 381 556 381 196 255 196 255 21 193 21 193 196 72 196 72 597 128 597 128 556 193 556 193 770 34 791 45 861 348 811C351 832 354 850 355 867L414 851C407 788 384 693 354 619ZM128 259L198 259 198 493 128 493ZM250 259L324 259 324 493 250 493Z"/>
</svg>