<svg xmlns="http://www.w3.org/2000/svg"
    viewBox="0 0 1000 1000">
  <!--
© 2014-2021 Adobe (http://www.adobe.com/).
Noto is a trademark of Google Inc.
This Font Software is licensed under the SIL Open Font License, Version 1.1. This Font Software is distributed on an "AS IS" BASIS, WITHOUT WARRANTIES OR CONDITIONS OF ANY KIND, either express or implied. See the SIL Open Font License for the specific language, permissions and limitations governing your use of this Font Software.
http://scripts.sil.org/OFL
  -->
<path d="M277 617C289 652 301 691 309 730L241 741 241 543 355 543 355 189 242 189 242 15 181 15 181 189 70 189 70 580 123 580 123 543 181 543 181 751 35 772 46 837 320 790C324 810 326 829 327 846L381 833C378 791 366 733 351 678 364 690 379 707 388 719 427 669 464 591 494 506L494 930 562 930 562 519C591 555 626 600 640 624L680 571C663 551 588 471 562 446L562 374 666 374 633 403C683 436 741 484 767 519L815 472C787 439 728 392 679 362L668 372 668 309 562 309 562 127C604 112 644 96 677 78L617 27C560 63 455 100 363 125 372 140 382 164 386 179 421 171 458 161 494 150L494 309 377 309 377 374 485 374C453 484 401 601 347 664 340 643 334 623 327 605ZM657 181C703 215 756 266 781 301L821 266 821 617 618 657 631 722 821 684 821 931 890 931 890 670 968 654 955 590 890 603 890 23 821 23 821 246C794 213 745 172 704 143ZM123 251L188 251 188 481 123 481ZM234 251L302 251 302 481 234 481Z"/>
</svg>