<svg xmlns="http://www.w3.org/2000/svg"
    viewBox="0 0 1000 1000">
  <!--
© 2014-2021 Adobe (http://www.adobe.com/).
Noto is a trademark of Google Inc.
This Font Software is licensed under the SIL Open Font License, Version 1.1. This Font Software is distributed on an "AS IS" BASIS, WITHOUT WARRANTIES OR CONDITIONS OF ANY KIND, either express or implied. See the SIL Open Font License for the specific language, permissions and limitations governing your use of this Font Software.
http://scripts.sil.org/OFL
  -->
<path d="M285 617C299 652 313 692 324 732L250 745 250 555 371 555 371 300C387 312 405 330 416 342 450 316 481 283 507 245L507 290 574 290 574 379 428 379 428 930 493 930 493 882 846 882 846 925 912 925 912 379 750 379 750 290 828 290 828 242C856 278 888 308 920 332 932 315 956 291 972 278 899 233 828 146 797 49L568 49 568 114 752 114C769 155 792 195 819 230L517 230C539 197 557 161 571 124L509 98C484 172 433 249 371 296L371 201 250 201 250 12 188 12 188 201 71 201 71 599 127 599 127 555 188 555 188 755 34 780 45 849C128 834 234 814 338 793 343 815 346 837 348 855L406 839C398 774 372 677 340 602ZM493 822L493 742 846 742 846 822ZM493 685L493 617C504 624 523 639 531 648 611 603 630 535 630 479L630 439 693 439 693 538C693 590 707 602 759 602 769 602 825 602 835 602L846 602 846 685ZM630 379L630 290 693 290 693 379ZM493 613L493 439 579 439 579 477C579 523 565 573 493 613ZM744 439L846 439 846 553C843 555 840 555 826 555 815 555 773 555 765 555 747 555 744 553 744 537ZM127 264L193 264 193 492 127 492ZM245 264L315 264 315 492 245 492Z"/>
</svg>