<svg xmlns="http://www.w3.org/2000/svg"
    viewBox="0 0 1000 1000">
  <!--
© 2014-2021 Adobe (http://www.adobe.com/).
Noto is a trademark of Google Inc.
This Font Software is licensed under the SIL Open Font License, Version 1.1. This Font Software is distributed on an "AS IS" BASIS, WITHOUT WARRANTIES OR CONDITIONS OF ANY KIND, either express or implied. See the SIL Open Font License for the specific language, permissions and limitations governing your use of this Font Software.
http://scripts.sil.org/OFL
  -->
<path d="M684 62L684 126 863 126 863 316 684 316 684 381 931 381 931 62ZM265 634C278 667 290 705 300 742L238 754 238 552 352 552 352 181 238 181 238 14 180 14 180 181 70 181 70 583 123 583 123 552 180 552 180 766 35 794 49 858 315 801C321 830 326 856 329 879L383 865C374 799 346 698 316 621ZM123 244L185 244 185 490 123 490ZM233 244L298 244 298 490 233 490ZM403 62L403 929 469 929 469 732 652 732 652 668 469 668 469 544 642 544 642 480 469 480 469 375 653 375 653 62ZM727 523L670 538C690 615 719 687 755 750 703 808 638 850 564 875 578 889 595 914 602 931 675 902 740 862 793 807 833 860 880 904 935 933 945 915 966 891 981 878 924 852 876 809 836 756 889 683 927 589 948 468L906 457 894 459 663 459 663 522 869 522C853 589 828 647 796 696 766 643 743 585 727 523ZM469 126L589 126 589 311 469 311Z"/>
</svg>