<svg xmlns="http://www.w3.org/2000/svg"
    viewBox="0 0 1000 1000">
  <!--
© 2014-2021 Adobe (http://www.adobe.com/).
Noto is a trademark of Google Inc.
This Font Software is licensed under the SIL Open Font License, Version 1.1. This Font Software is distributed on an "AS IS" BASIS, WITHOUT WARRANTIES OR CONDITIONS OF ANY KIND, either express or implied. See the SIL Open Font License for the specific language, permissions and limitations governing your use of this Font Software.
http://scripts.sil.org/OFL
  -->
<path d="M636 625L636 710 498 710 498 625ZM704 625L852 625 852 710 704 710ZM636 567L498 567 498 487 636 487ZM704 567L704 487 852 487 852 567ZM517 236L636 236 636 316 517 316ZM704 236L831 236 831 316 704 316ZM517 105L636 105 636 184 517 184ZM704 105L831 105 831 184 704 184ZM433 429L433 822 498 822 498 769 636 769 636 816C636 904 658 926 738 926 755 926 859 926 877 926 942 926 962 896 969 806 950 801 925 790 909 779 906 848 900 866 872 866 852 866 764 866 746 866 710 866 704 858 704 817L704 769 920 769 920 429 704 429 704 372 896 372 896 51 455 51 455 372 636 372 636 429ZM307 631C321 668 333 710 342 751L261 763 261 562 393 562 393 196 262 196 262 22 198 22 198 196 70 196 70 608 127 608 127 562 198 562 198 772 37 793 48 864 355 814C358 837 361 858 362 876L422 861C416 794 393 694 363 616ZM127 259L203 259 203 498 127 498ZM256 259L336 259 336 498 256 498Z"/>
</svg>