<svg xmlns="http://www.w3.org/2000/svg"
    viewBox="0 0 1000 1000">
  <!--
© 2014-2021 Adobe (http://www.adobe.com/).
Noto is a trademark of Google Inc.
This Font Software is licensed under the SIL Open Font License, Version 1.1. This Font Software is distributed on an "AS IS" BASIS, WITHOUT WARRANTIES OR CONDITIONS OF ANY KIND, either express or implied. See the SIL Open Font License for the specific language, permissions and limitations governing your use of this Font Software.
http://scripts.sil.org/OFL
  -->
<path d="M650 554C633 579 607 612 582 641 566 617 550 595 533 574L485 604C519 647 552 698 580 749L462 791 462 530 654 530 654 137 555 137 555 11 494 11 494 137 402 137 402 812 346 831 365 895C436 869 523 834 607 800 622 828 633 855 642 878L694 845C677 798 645 739 608 680 636 654 668 621 697 590ZM462 198L594 198 594 303 462 303ZM462 471L462 361 594 361 594 471ZM699 72L699 930 762 930 762 137 876 137C856 216 829 310 799 405 869 504 898 569 898 631 898 666 893 703 876 715 869 721 859 723 847 724 833 724 812 724 790 722 801 740 807 766 808 783 829 784 853 784 871 781 890 779 907 774 920 763 948 741 960 689 960 632 960 566 930 495 860 397 895 289 930 182 957 94L910 70 900 72ZM277 607C289 642 300 683 309 723L240 735 240 543 355 543 355 189 240 189 240 15 183 15 183 189 71 189 71 580 125 580 125 543 182 543 182 744 35 768 46 833 319 782 324 825 378 811C374 753 353 663 328 594ZM125 251L188 251 188 481 125 481ZM234 251L302 251 302 481 234 481Z"/>
</svg>