<svg xmlns="http://www.w3.org/2000/svg"
    viewBox="0 0 1000 1000">
  <!--
© 2014-2021 Adobe (http://www.adobe.com/).
Noto is a trademark of Google Inc.
This Font Software is licensed under the SIL Open Font License, Version 1.1. This Font Software is distributed on an "AS IS" BASIS, WITHOUT WARRANTIES OR CONDITIONS OF ANY KIND, either express or implied. See the SIL Open Font License for the specific language, permissions and limitations governing your use of this Font Software.
http://scripts.sil.org/OFL
  -->
<path d="M178 229L410 229 410 325 178 325ZM113 175L113 379 479 379 479 175ZM60 54L60 118 531 118 531 54ZM563 209L563 588 706 588 706 815 536 841 554 913 888 852C895 881 900 908 903 931L966 913C956 842 918 728 876 642L818 657C837 697 855 744 869 789L773 805 773 588 926 588 926 209 773 209 773 17 706 17 706 209ZM175 671L175 725 263 725 263 902 320 902 320 725 414 725 414 671ZM624 274L710 274 710 521 624 521ZM769 274L861 274 861 521 769 521ZM455 493L455 580C452 584 450 585 437 585 428 585 395 585 389 585 374 585 372 584 372 569L372 493ZM71 436L71 928 131 928 131 493 213 493 213 496C213 537 205 596 132 633 144 640 163 656 172 667 251 620 261 553 261 498L261 493 323 493 323 570C323 621 335 632 384 632 392 632 437 632 447 632L455 632 455 857C455 867 452 870 442 870 431 871 398 871 359 870 367 887 375 912 377 928 432 928 467 927 489 918 512 907 517 890 517 857L517 436Z"/>
</svg>