<svg xmlns="http://www.w3.org/2000/svg" name="gid11691" data-unicode="螫"
    viewBox="0 0 1000 1000">
  <!--
© 2014-2021 Adobe (http://www.adobe.com/).
Noto is a trademark of Google Inc.
This Font Software is licensed under the SIL Open Font License, Version 1.1. This Font Software is distributed on an "AS IS" BASIS, WITHOUT WARRANTIES OR CONDITIONS OF ANY KIND, either express or implied. See the SIL Open Font License for the specific language, permissions and limitations governing your use of this Font Software.
http://scripts.sil.org/OFL
  -->
<path d="M110 301C96 341 71 381 39 411 52 419 74 433 84 442 115 410 144 359 162 313ZM402 324C429 361 459 410 473 440L523 415C509 386 476 339 449 304ZM84 864L89 933C277 929 567 921 842 914 860 933 876 951 888 966L944 928C909 885 839 818 779 772L854 772 854 566 538 566 538 517C605 493 666 462 719 423 771 473 835 517 911 546 921 529 940 501 955 487 881 463 819 425 768 381 817 333 856 275 881 203L945 203 945 140 665 140C679 112 692 83 702 53L636 37C610 114 568 187 515 240L515 223 321 223 321 160 486 160 486 106 321 106 321 40 254 40 254 106 83 106 83 160 254 160 254 223 48 223 48 279 208 279C202 394 163 468 74 513 88 522 111 543 120 553 212 498 258 414 268 279L330 279 330 453C330 462 328 465 317 465 308 466 279 465 240 465 248 482 256 504 258 521 307 521 340 521 362 511 384 500 389 484 389 454L389 279 501 279C516 290 531 303 540 312 558 295 576 276 592 255 613 295 640 336 674 376 622 414 560 444 488 465 501 476 520 496 530 510L464 510 464 566 156 566 156 772 464 772 464 859ZM808 203C788 255 759 299 721 336 682 293 652 247 631 203ZM226 623L464 623 464 714 226 714ZM538 623L780 623 780 714 538 714ZM720 800C740 816 761 834 781 854L538 858 538 772 767 772Z"/>
</svg>