<svg xmlns="http://www.w3.org/2000/svg" name="gid11692" data-unicode="螬"
    viewBox="0 0 1000 1000">
  <!--
© 2014-2021 Adobe (http://www.adobe.com/).
Noto is a trademark of Google Inc.
This Font Software is licensed under the SIL Open Font License, Version 1.1. This Font Software is distributed on an "AS IS" BASIS, WITHOUT WARRANTIES OR CONDITIONS OF ANY KIND, either express or implied. See the SIL Open Font License for the specific language, permissions and limitations governing your use of this Font Software.
http://scripts.sil.org/OFL
  -->
<path d="M291 655C304 689 317 727 327 764L257 778 257 586 375 586 375 222 257 222 257 44 194 44 194 222 73 222 73 634 130 634 130 586 194 586 194 791 41 819 54 891 343 830C350 859 354 886 356 909L412 893C404 825 376 721 343 640ZM130 285L201 285 201 523 130 523ZM250 285L317 285 317 523 250 523ZM518 796L841 796 841 865 518 865ZM518 742L518 677 841 677 841 742ZM454 619L454 958 518 958 518 922 841 922 841 955 907 955 907 619ZM727 39L727 123 639 123 639 40 579 40 579 123 405 123 405 184 579 184 579 248 426 248 426 566 932 566 932 248 787 248 787 184 956 184 956 123 787 123 787 39ZM639 184L727 184 727 248 639 248ZM488 432L581 432 581 513 488 513ZM637 432L729 432 729 513 637 513ZM785 432L868 432 868 513 785 513ZM488 301L581 301 581 381 488 381ZM637 301L729 301 729 381 637 381ZM785 301L868 301 868 381 785 381Z"/>
</svg>