<svg xmlns="http://www.w3.org/2000/svg"
    viewBox="0 0 1000 1000">
  <!--
© 2014-2021 Adobe (http://www.adobe.com/).
Noto is a trademark of Google Inc.
This Font Software is licensed under the SIL Open Font License, Version 1.1. This Font Software is distributed on an "AS IS" BASIS, WITHOUT WARRANTIES OR CONDITIONS OF ANY KIND, either express or implied. See the SIL Open Font License for the specific language, permissions and limitations governing your use of this Font Software.
http://scripts.sil.org/OFL
  -->
<path d="M525 429L838 429 838 506 525 506ZM525 300L838 300 838 376 525 376ZM414 90L414 155 538 155 538 226 608 226 608 155 753 155 753 226 824 226 824 155 949 155 949 90 824 90 824 10 753 10 753 90 608 90 608 10 538 10 538 90ZM456 246L456 561 637 561C634 589 631 614 627 638L421 638 421 704 609 704C577 786 513 839 377 871 390 886 409 913 416 930 568 890 641 825 677 726 724 826 805 897 919 931 929 912 949 884 966 869 858 845 780 786 739 704L947 704 947 638 699 638C703 614 706 588 709 561L910 561 910 246ZM306 598C317 629 328 664 337 699L263 717 263 537 392 537 392 177 263 177 263 16 200 16 200 177 70 177 70 584 127 584 127 537 200 537 200 732 36 769 49 838C134 817 244 790 353 761 358 785 362 806 364 825L421 809C412 748 386 655 359 583ZM127 240L205 240 205 474 127 474ZM258 240L335 240 335 474 258 474Z"/>
</svg>