<svg xmlns="http://www.w3.org/2000/svg"
    viewBox="0 0 1000 1000">
  <!--
© 2014-2021 Adobe (http://www.adobe.com/).
Noto is a trademark of Google Inc.
This Font Software is licensed under the SIL Open Font License, Version 1.1. This Font Software is distributed on an "AS IS" BASIS, WITHOUT WARRANTIES OR CONDITIONS OF ANY KIND, either express or implied. See the SIL Open Font License for the specific language, permissions and limitations governing your use of this Font Software.
http://scripts.sil.org/OFL
  -->
<path d="M551 364L800 364 800 463 551 463ZM298 631C311 667 324 709 334 749L254 761 254 556 379 556 379 196 254 196 254 21 191 21 191 196 67 196 67 597 122 597 122 556 192 556 192 770 34 791 45 861 348 811C352 835 355 857 356 876L416 861C410 795 385 693 354 616ZM122 259L197 259 197 493 122 493ZM249 259L323 259 323 493 249 493ZM852 26C835 67 803 125 779 162L813 175 708 175 708 13 639 13 639 175 530 175 570 160C558 122 529 69 500 28L441 48C467 86 493 138 505 175L412 175 412 329 476 329 476 233 882 233 882 329 948 329 948 175 842 175C865 142 893 95 917 51ZM445 585L445 861 512 861 512 646 639 646 639 931 708 931 708 646 847 646 847 792C847 801 845 803 834 803 824 804 793 804 757 803 765 821 775 846 777 865 828 865 863 864 886 853 909 842 914 825 914 793L914 585 708 585 708 516 868 516 868 312 487 312 487 516 639 516 639 585Z"/>
</svg>