<svg xmlns="http://www.w3.org/2000/svg" name="gid11734" data-unicode="蟲"
    viewBox="0 0 1000 1000">
  <!--
© 2014-2021 Adobe (http://www.adobe.com/).
Noto is a trademark of Google Inc.
This Font Software is licensed under the SIL Open Font License, Version 1.1. This Font Software is distributed on an "AS IS" BASIS, WITHOUT WARRANTIES OR CONDITIONS OF ANY KIND, either express or implied. See the SIL Open Font License for the specific language, permissions and limitations governing your use of this Font Software.
http://scripts.sil.org/OFL
  -->
<path d="M236 160L461 160 461 249 236 249ZM536 160L768 160 768 249 536 249ZM93 388L98 453C280 451 554 445 816 437 840 457 862 476 878 492L931 454C887 414 803 352 731 306L842 306 842 102 536 102 536 37 461 37 461 102 166 102 166 306 461 306 461 387C319 388 190 389 93 388ZM666 329C691 345 718 364 745 383L536 386 536 306 703 306ZM139 590L237 590 237 696 139 696ZM300 590L398 590 398 696 300 696ZM355 789C366 806 378 825 389 844L300 849 300 755 458 755 458 533 300 533 300 461 237 461 237 533 80 533 80 755 237 755 237 852 37 861 43 927 421 904C431 925 439 945 445 962L500 936C484 890 445 819 407 766ZM581 589L684 589 684 695 581 695ZM749 589L854 589 854 695 749 695ZM809 788C823 806 837 826 850 846L749 851 749 754 915 754 915 531 749 531 749 461 684 461 684 531 522 531 522 754 684 754 684 853 495 861 502 928 886 905C898 926 907 945 914 962L971 933C951 886 906 815 863 762Z"/>
</svg>