<svg xmlns="http://www.w3.org/2000/svg"
    viewBox="0 0 1000 1000">
  <!--
© 2014-2021 Adobe (http://www.adobe.com/).
Noto is a trademark of Google Inc.
This Font Software is licensed under the SIL Open Font License, Version 1.1. This Font Software is distributed on an "AS IS" BASIS, WITHOUT WARRANTIES OR CONDITIONS OF ANY KIND, either express or implied. See the SIL Open Font License for the specific language, permissions and limitations governing your use of this Font Software.
http://scripts.sil.org/OFL
  -->
<path d="M799 465C838 492 883 533 904 563L948 525C927 497 881 458 841 432ZM472 34C493 59 514 92 526 118L406 118 406 174 630 174 630 236 432 236 432 289 630 289 630 358 386 358 386 414 952 414 952 358 700 358 700 289 916 289 916 236 700 236 700 174 940 174 940 118 804 118C824 94 847 63 867 32L803 10C788 39 759 84 738 113L751 118 573 118 592 110C582 82 555 41 529 12ZM875 644C856 677 830 711 799 742 789 710 780 673 774 631L962 631 962 576 766 576C761 533 758 485 757 435L693 435C695 484 698 532 703 576L571 576 571 495C608 488 643 480 672 471L632 426C573 447 467 463 380 472 387 485 394 504 396 517 431 514 468 510 506 505L506 576 382 576 382 631 506 631 506 703 384 718 393 775 506 760 506 861C506 870 503 873 492 873 483 874 451 874 417 873 425 890 433 913 436 930 488 930 521 928 543 919 565 910 571 894 571 861L571 751 673 736 672 682 571 695 571 631 711 631C720 689 733 742 749 785 702 821 650 851 598 869 613 882 629 906 637 921 683 901 730 873 773 839 803 898 842 931 887 931 937 931 957 903 967 807 951 802 932 791 919 778 916 843 908 869 891 869 866 869 842 844 820 799 862 759 898 716 922 673ZM277 629C290 663 303 702 313 740L247 752 247 554 365 554 365 186 248 186 248 15 189 15 189 186 72 186 72 597 127 597 127 554 188 554 188 762 35 788 48 855 327 800C332 824 335 846 337 865L393 849C386 785 361 689 329 614ZM127 248L194 248 194 492 127 492ZM242 248L309 248 309 492 242 492Z"/>
</svg>