<svg xmlns="http://www.w3.org/2000/svg" name="gid11748" data-unicode="蠆"
    viewBox="0 0 1000 1000">
  <!--
© 2014-2021 Adobe (http://www.adobe.com/).
Noto is a trademark of Google Inc.
This Font Software is licensed under the SIL Open Font License, Version 1.1. This Font Software is distributed on an "AS IS" BASIS, WITHOUT WARRANTIES OR CONDITIONS OF ANY KIND, either express or implied. See the SIL Open Font License for the specific language, permissions and limitations governing your use of this Font Software.
http://scripts.sil.org/OFL
  -->
<path d="M250 296L462 296 462 331 250 331ZM534 296L754 296 754 331 534 331ZM250 226L462 226 462 259 250 259ZM534 226L754 226 754 259 534 259ZM235 504L239 555C357 553 527 548 693 543 705 559 716 573 723 586L726 585C730 593 734 602 736 611 800 611 842 611 866 603 893 594 899 581 899 547L899 402 534 402 534 369 828 369 828 187 178 187 178 369 462 369 462 402 107 402 107 612 178 612 178 448 462 448 462 502ZM616 466C628 476 641 488 653 500L534 502 534 448 665 448ZM826 448L826 548C826 558 823 562 811 563L777 564C757 528 712 481 669 448ZM78 86L78 136 286 136 286 178 359 178 359 136 635 136 635 178 708 178 708 136 924 136 924 86 708 86 708 40 635 40 635 86 359 86 359 40 286 40 286 86ZM226 684L460 684 460 754 226 754ZM534 684L779 684 779 754 534 754ZM84 882L89 941C278 938 572 931 850 923 867 942 883 959 894 974L952 940C922 902 862 845 807 802L851 802 851 636 534 636 534 582 460 582 460 636 157 636 157 802 460 802 460 878ZM743 823C761 837 780 854 799 872L534 877 534 802 782 802Z"/>
</svg>