<svg xmlns="http://www.w3.org/2000/svg"
    viewBox="0 0 1000 1000">
  <!--
© 2014-2021 Adobe (http://www.adobe.com/).
Noto is a trademark of Google Inc.
This Font Software is licensed under the SIL Open Font License, Version 1.1. This Font Software is distributed on an "AS IS" BASIS, WITHOUT WARRANTIES OR CONDITIONS OF ANY KIND, either express or implied. See the SIL Open Font License for the specific language, permissions and limitations governing your use of this Font Software.
http://scripts.sil.org/OFL
  -->
<path d="M194 240L194 732 140 743 140 240ZM239 240L295 240 295 711 239 723ZM340 240L398 240 398 688 340 701ZM30 765L43 838C169 810 349 770 519 732L513 663 452 676 452 180 268 180C285 135 304 79 321 27L242 11C231 61 211 130 193 180L86 180 86 754ZM816 131C815 223 813 325 810 426L664 426C671 325 678 222 683 131ZM417 834L417 903 960 903 960 834 862 834C868 742 873 622 877 496L960 496 960 426 879 426C883 300 885 172 886 63L484 63 484 131 614 131C611 222 605 324 597 426L479 426 479 496 592 496C583 621 572 741 561 834ZM808 496C803 621 797 741 790 834L629 834C639 742 649 621 659 496Z"/>
</svg>