<svg xmlns="http://www.w3.org/2000/svg" name="gid11795" data-unicode="衊"
    viewBox="0 0 1000 1000">
  <!--
© 2014-2021 Adobe (http://www.adobe.com/).
Noto is a trademark of Google Inc.
This Font Software is licensed under the SIL Open Font License, Version 1.1. This Font Software is distributed on an "AS IS" BASIS, WITHOUT WARRANTIES OR CONDITIONS OF ANY KIND, either express or implied. See the SIL Open Font License for the specific language, permissions and limitations governing your use of this Font Software.
http://scripts.sil.org/OFL
  -->
<path d="M795 308L878 308 878 417 795 417ZM662 308L742 308 742 417 662 417ZM532 308L609 308 609 417 532 417ZM181 253L181 770 130 783 130 253ZM226 253L278 253 278 746 226 759ZM323 253L376 253 376 721 323 734ZM683 480L691 553 478 553 478 681C478 704 477 728 473 754L466 698 431 707 431 193 260 193C275 150 291 100 305 56L231 41C224 85 210 145 196 193L76 193 76 795 28 806 43 876 472 761C463 815 442 873 392 921 407 929 435 950 446 961 517 894 539 797 543 716 583 748 626 789 648 818L693 776C668 744 615 698 572 667L544 692 544 682 544 613 700 613C712 684 729 749 750 803 701 846 645 881 585 908 598 921 618 947 626 960 679 933 730 900 776 860 809 921 851 959 902 959 936 959 961 925 976 822 964 816 943 803 930 791 925 859 914 893 899 892 872 892 846 863 822 816 865 770 902 719 928 663L867 646C850 685 826 721 798 754 784 713 772 665 763 613L956 613 956 553 882 553 909 530C893 511 859 487 831 469L936 469 936 256 474 256 474 469 822 469 784 500C808 515 834 535 853 553L753 553 746 480ZM763 40L763 114 642 114 642 40 578 40 578 114 445 114 445 174 578 174 578 237 642 237 642 174 763 174 763 237 828 237 828 174 957 174 957 114 828 114 828 40Z"/>
</svg>