<svg xmlns="http://www.w3.org/2000/svg" name="gid11805" data-unicode="街"
    viewBox="0 0 1000 1000">
  <!--
© 2014-2021 Adobe (http://www.adobe.com/).
Noto is a trademark of Google Inc.
This Font Software is licensed under the SIL Open Font License, Version 1.1. This Font Software is distributed on an "AS IS" BASIS, WITHOUT WARRANTIES OR CONDITIONS OF ANY KIND, either express or implied. See the SIL Open Font License for the specific language, permissions and limitations governing your use of this Font Software.
http://scripts.sil.org/OFL
  -->
<path d="M694 99L694 166 946 166 946 99ZM209 40C173 108 99 191 31 241 43 255 63 282 72 297 148 239 229 147 278 65ZM443 40L443 166 310 166 310 231 443 231 443 365 290 365 290 432 667 432 667 365 514 365 514 231 649 231 649 166 514 166 514 40ZM685 367L685 435 792 435 792 868C792 881 788 885 773 886 758 887 711 886 655 885 665 907 675 939 678 960 750 960 799 959 828 946 858 934 866 912 866 868L866 435 960 435 960 367ZM268 818L277 888C387 874 540 855 687 835L685 769 514 790 514 642 660 642 660 576 514 576 514 453 442 453 442 576 296 576 296 642 442 642 442 798ZM239 241C188 352 103 458 16 529 31 544 52 579 61 594 91 568 121 537 150 503L150 961 219 961 219 413C252 365 282 314 306 264Z"/>
</svg>