<svg xmlns="http://www.w3.org/2000/svg" name="gid11806" data-unicode="衘"
    viewBox="0 0 1000 1000">
  <!--
© 2014-2021 Adobe (http://www.adobe.com/).
Noto is a trademark of Google Inc.
This Font Software is licensed under the SIL Open Font License, Version 1.1. This Font Software is distributed on an "AS IS" BASIS, WITHOUT WARRANTIES OR CONDITIONS OF ANY KIND, either express or implied. See the SIL Open Font License for the specific language, permissions and limitations governing your use of this Font Software.
http://scripts.sil.org/OFL
  -->
<path d="M706 111L706 180 949 180 949 111ZM198 40C162 106 91 187 28 239 40 252 59 280 68 296 140 236 217 146 267 65ZM692 379L692 450 810 450 810 874C810 885 807 889 795 890 782 890 741 890 694 889 704 910 713 940 716 960 779 960 821 959 847 947 874 935 881 913 881 874L881 450 965 450 965 379ZM269 837L286 906C394 889 547 866 690 841L688 777 540 799 540 628 666 628 666 563 540 563 540 441 671 441 671 372 540 372 540 217 666 217 666 148 424 148C434 117 443 84 450 52L383 39C363 138 326 236 278 301 295 310 324 328 337 338 360 305 381 263 399 217L471 217 471 372 303 372 303 441 471 441 471 810 387 822 387 517 327 517 327 830ZM219 240C170 346 92 452 17 524 30 540 52 574 60 589 89 560 118 526 147 488L147 958 216 958 216 388C242 347 266 305 286 263Z"/>
</svg>