<svg xmlns="http://www.w3.org/2000/svg"
    viewBox="0 0 1000 1000">
  <!--
© 2014-2021 Adobe (http://www.adobe.com/).
Noto is a trademark of Google Inc.
This Font Software is licensed under the SIL Open Font License, Version 1.1. This Font Software is distributed on an "AS IS" BASIS, WITHOUT WARRANTIES OR CONDITIONS OF ANY KIND, either express or implied. See the SIL Open Font License for the specific language, permissions and limitations governing your use of this Font Software.
http://scripts.sil.org/OFL
  -->
<path d="M700 69L700 136 943 136 943 69ZM209 10C173 78 99 161 31 211 43 225 63 252 72 267 148 209 229 117 278 35ZM319 238L319 299 399 299C391 350 383 399 375 439L286 439 286 503 699 503 699 439 641 439 641 238 474 238 487 135 661 135 661 72 316 72 316 135 421 135 408 238ZM446 439L466 299 578 299 578 439ZM395 632L592 632 592 782 395 782ZM331 570L331 909 395 909 395 845 655 845 655 570ZM690 345L690 413 797 413 797 837C797 851 793 855 778 855 762 856 714 856 658 854 669 877 678 909 681 930 754 930 803 928 832 916 862 904 870 881 870 838L870 413 960 413 960 345ZM239 211C188 322 103 428 16 499 31 514 52 549 61 564 91 538 121 507 150 473L150 931 219 931 219 383C252 335 282 284 306 234Z"/>
</svg>