<svg xmlns="http://www.w3.org/2000/svg"
    viewBox="0 0 1000 1000">
  <!--
© 2014-2021 Adobe (http://www.adobe.com/).
Noto is a trademark of Google Inc.
This Font Software is licensed under the SIL Open Font License, Version 1.1. This Font Software is distributed on an "AS IS" BASIS, WITHOUT WARRANTIES OR CONDITIONS OF ANY KIND, either express or implied. See the SIL Open Font License for the specific language, permissions and limitations governing your use of this Font Software.
http://scripts.sil.org/OFL
  -->
<path d="M717 68L717 137 948 137 948 68ZM198 10C162 76 91 157 28 209 40 222 59 250 68 266 140 206 217 116 267 35ZM704 322L704 391 809 391 809 844C809 856 806 859 794 860 781 860 743 860 698 859 708 880 717 911 720 930 780 930 821 929 847 917 873 906 880 884 880 844L880 391 968 391 968 322ZM219 210C170 316 92 422 17 494 30 510 52 544 60 559 89 530 118 496 147 458L147 928 216 928 216 358C241 318 265 276 285 235L285 245 461 245 461 313 302 313 302 599 461 599 461 664 300 664 300 723 461 723 461 803 271 815 280 878C393 870 551 857 702 844L703 786 523 799 523 723 686 723 686 664 523 664 523 599 683 599 683 313 523 313 523 245 714 245 714 184 523 184 523 101C585 94 643 84 690 72L651 17C563 39 412 56 286 65 293 80 302 104 304 119 354 117 408 113 461 108L461 184 285 184 285 233ZM358 479L461 479 461 550 358 550ZM523 479L624 479 624 550 523 550ZM358 363L461 363 461 432 358 432ZM523 363L624 363 624 432 523 432Z"/>
</svg>