<svg xmlns="http://www.w3.org/2000/svg" name="gid11813" data-unicode="衟"
    viewBox="0 0 1000 1000">
  <!--
© 2014-2021 Adobe (http://www.adobe.com/).
Noto is a trademark of Google Inc.
This Font Software is licensed under the SIL Open Font License, Version 1.1. This Font Software is distributed on an "AS IS" BASIS, WITHOUT WARRANTIES OR CONDITIONS OF ANY KIND, either express or implied. See the SIL Open Font License for the specific language, permissions and limitations governing your use of this Font Software.
http://scripts.sil.org/OFL
  -->
<path d="M720 117L720 184 949 184 949 117ZM374 56C352 96 311 154 272 203 322 257 366 317 390 359L440 337C418 300 377 247 336 202 367 162 402 113 429 72ZM502 56C480 95 439 154 400 202 452 254 498 314 521 355L571 332C548 297 506 244 464 200 495 161 530 113 557 72ZM633 56C610 96 568 154 529 203 582 257 631 318 656 359L706 336C682 299 638 246 594 202 625 162 661 114 688 72ZM198 40C162 106 91 187 28 239 40 252 59 280 68 296 140 236 217 146 267 65ZM320 519L320 950 385 950 385 910 672 910 672 519 498 519 522 445 691 445 691 382 282 382 282 445 446 445 431 519ZM385 681L605 681 605 744 385 744ZM385 633L385 574 605 574 605 633ZM385 792L605 792 605 856 385 856ZM703 358L703 427 816 427 816 871C816 883 812 886 800 887 789 887 749 887 706 885 716 905 725 935 728 955 790 955 828 955 853 943 879 930 886 909 886 872L886 427 964 427 964 358ZM219 240C170 346 92 452 17 524 30 540 52 574 60 589 89 560 118 526 147 488L147 958 216 958 216 388C242 347 266 305 286 263Z"/>
</svg>