<svg xmlns="http://www.w3.org/2000/svg"
    viewBox="0 0 1000 1000">
  <!--
© 2014-2021 Adobe (http://www.adobe.com/).
Noto is a trademark of Google Inc.
This Font Software is licensed under the SIL Open Font License, Version 1.1. This Font Software is distributed on an "AS IS" BASIS, WITHOUT WARRANTIES OR CONDITIONS OF ANY KIND, either express or implied. See the SIL Open Font License for the specific language, permissions and limitations governing your use of this Font Software.
http://scripts.sil.org/OFL
  -->
<path d="M140 860L164 930C283 900 455 857 613 815L605 748 355 810 355 582C412 546 464 505 505 464 575 693 705 854 918 927 929 906 951 876 968 861 855 827 765 766 697 684 765 645 847 590 910 539L851 493C802 538 725 594 660 635 625 583 597 524 576 459L937 459 937 394 536 394 536 303 863 303 863 241 536 241 536 159 902 159 902 93 536 93 536 10 460 10 460 93 100 93 100 159 460 159 460 241 145 241 145 303 460 303 460 394 63 394 63 459 411 459C311 542 160 617 28 654 44 670 66 697 77 716 142 694 213 663 281 626L281 828Z"/>
</svg>