<svg xmlns="http://www.w3.org/2000/svg" name="gid11819" data-unicode="表"
    viewBox="0 0 1000 1000">
  <!--
© 2014-2021 Adobe (http://www.adobe.com/).
Noto is a trademark of Google Inc.
This Font Software is licensed under the SIL Open Font License, Version 1.1. This Font Software is distributed on an "AS IS" BASIS, WITHOUT WARRANTIES OR CONDITIONS OF ANY KIND, either express or implied. See the SIL Open Font License for the specific language, permissions and limitations governing your use of this Font Software.
http://scripts.sil.org/OFL
  -->
<path d="M140 890L164 960C283 930 455 887 613 845L605 778 355 840 355 612C412 576 464 535 505 494 575 723 705 884 918 957 929 936 951 906 968 891 855 857 765 796 697 714 765 675 847 620 910 569L851 523C802 568 725 624 660 665 625 613 597 554 576 489L937 489 937 424 536 424 536 333 863 333 863 271 536 271 536 189 902 189 902 123 536 123 536 40 460 40 460 123 100 123 100 189 460 189 460 271 145 271 145 333 460 333 460 424 63 424 63 489 411 489C311 572 160 647 28 684 44 700 66 727 77 746 142 724 213 693 281 656L281 858Z"/>
</svg>