<svg xmlns="http://www.w3.org/2000/svg"
    viewBox="0 0 1000 1000">
  <!--
© 2014-2021 Adobe (http://www.adobe.com/).
Noto is a trademark of Google Inc.
This Font Software is licensed under the SIL Open Font License, Version 1.1. This Font Software is distributed on an "AS IS" BASIS, WITHOUT WARRANTIES OR CONDITIONS OF ANY KIND, either express or implied. See the SIL Open Font License for the specific language, permissions and limitations governing your use of this Font Software.
http://scripts.sil.org/OFL
  -->
<path d="M262 418L741 418 741 523 262 523ZM75 235L75 296 922 296 922 235 535 235 535 151 848 151 848 92 535 92 535 10 461 10 461 92 152 92 152 151 461 151 461 235ZM162 855L175 922C287 902 449 876 601 848L597 786 341 828 341 684C399 654 452 620 494 584 574 758 720 880 918 932 928 913 947 884 963 870 866 847 780 807 709 753 770 720 841 673 896 630L836 585C793 624 721 676 662 711 623 673 591 630 566 583L816 583 816 359 189 359 189 583 402 583C305 646 161 699 35 724 49 738 69 764 78 781 140 766 206 744 270 717L270 839Z"/>
</svg>