<svg xmlns="http://www.w3.org/2000/svg" name="gid11838" data-unicode="袋"
    viewBox="0 0 1000 1000">
  <!--
© 2014-2021 Adobe (http://www.adobe.com/).
Noto is a trademark of Google Inc.
This Font Software is licensed under the SIL Open Font License, Version 1.1. This Font Software is distributed on an "AS IS" BASIS, WITHOUT WARRANTIES OR CONDITIONS OF ANY KIND, either express or implied. See the SIL Open Font License for the specific language, permissions and limitations governing your use of this Font Software.
http://scripts.sil.org/OFL
  -->
<path d="M679 87C737 106 813 138 851 162L886 111C846 89 770 59 712 43ZM55 548L55 615 399 615C304 679 164 732 38 758 53 772 72 798 82 815 146 800 213 778 277 750L277 878 163 893 174 959C292 942 462 918 620 896L619 832 349 869 349 716C406 686 458 652 500 614 575 793 710 910 913 961 923 940 943 910 960 895 860 874 776 836 709 782 769 754 842 712 897 673L838 629C794 663 722 708 662 740 627 703 598 662 576 615L946 615 946 548 536 548 536 444 460 444 460 548ZM506 43C510 100 518 153 532 202L322 221 330 285 552 265C610 419 717 519 846 518 915 518 943 490 954 379 935 373 909 361 893 346 888 421 880 447 850 447 762 448 678 375 628 258L943 229 935 166 606 196C592 149 583 98 580 43ZM290 40C231 148 129 248 24 311 40 324 67 353 79 366 118 339 158 307 196 271L196 508 268 508 268 195C303 153 335 109 360 63Z"/>
</svg>