<svg xmlns="http://www.w3.org/2000/svg"
    viewBox="0 0 1000 1000">
  <!--
© 2014-2021 Adobe (http://www.adobe.com/).
Noto is a trademark of Google Inc.
This Font Software is licensed under the SIL Open Font License, Version 1.1. This Font Software is distributed on an "AS IS" BASIS, WITHOUT WARRANTIES OR CONDITIONS OF ANY KIND, either express or implied. See the SIL Open Font License for the specific language, permissions and limitations governing your use of this Font Software.
http://scripts.sil.org/OFL
  -->
<path d="M576 833L576 903 950 903 950 833 794 833 794 503 966 503 966 431 794 431 794 164C851 147 904 127 948 105L891 44C816 88 681 127 563 152 572 169 584 196 588 213 632 204 678 195 723 183L723 431 553 431 553 503 723 503 723 833ZM539 16C494 152 419 287 338 376 351 389 375 418 384 431 406 405 427 377 448 346L448 930 517 930 517 229C550 167 579 100 602 33ZM319 395C308 416 288 444 270 469L250 444C292 374 328 298 353 222L315 196 302 199 238 199 238 15 172 15 172 199 54 199 54 265 270 265C217 399 120 537 28 616 40 628 60 661 67 679 102 646 137 606 172 560L172 931 238 931 238 512C269 558 307 615 322 645L364 593 300 509C319 487 340 461 360 436Z"/>
</svg>