<svg xmlns="http://www.w3.org/2000/svg" name="gid11863" data-unicode="袼"
    viewBox="0 0 1000 1000">
  <!--
© 2014-2021 Adobe (http://www.adobe.com/).
Noto is a trademark of Google Inc.
This Font Software is licensed under the SIL Open Font License, Version 1.1. This Font Software is distributed on an "AS IS" BASIS, WITHOUT WARRANTIES OR CONDITIONS OF ANY KIND, either express or implied. See the SIL Open Font License for the specific language, permissions and limitations governing your use of this Font Software.
http://scripts.sil.org/OFL
  -->
<path d="M375 413C358 443 329 484 303 516L268 478C315 407 354 330 382 250L341 224 328 227 255 227 255 45 184 45 184 227 54 227 54 295 293 295C234 431 128 567 26 644 37 656 57 690 65 709 106 676 147 635 187 587L187 960 258 960 258 550C295 597 339 656 358 688L404 636 335 553C363 523 395 483 422 447ZM589 211L809 211C780 276 739 335 691 387 642 337 604 283 577 230ZM594 38C548 160 468 275 377 347 395 359 424 385 437 398 471 368 504 331 535 290 563 339 598 389 642 435 567 503 478 555 390 586 405 600 424 628 433 646L477 627 477 961 548 961 548 917 827 917 827 957 899 957 899 616 933 629C944 609 965 580 980 565 887 536 808 489 743 435 811 360 867 270 902 164L855 143 842 146 625 146C640 117 653 88 665 58ZM548 851L548 658 827 658 827 851ZM543 593C595 563 646 527 692 485 738 525 791 563 851 593Z"/>
</svg>