<svg xmlns="http://www.w3.org/2000/svg"
    viewBox="0 0 1000 1000">
  <!--
© 2014-2021 Adobe (http://www.adobe.com/).
Noto is a trademark of Google Inc.
This Font Software is licensed under the SIL Open Font License, Version 1.1. This Font Software is distributed on an "AS IS" BASIS, WITHOUT WARRANTIES OR CONDITIONS OF ANY KIND, either express or implied. See the SIL Open Font License for the specific language, permissions and limitations governing your use of this Font Software.
http://scripts.sil.org/OFL
  -->
<path d="M419 54L419 418 375 386C359 415 331 457 306 490L268 448C315 377 354 300 382 220L341 194 328 197 255 197 255 15 184 15 184 197 54 197 54 265 293 265C234 401 128 537 26 614 37 626 57 660 65 679 106 646 147 605 187 557L187 930 258 930 258 520C295 567 339 626 358 658L404 606 337 526C363 496 394 457 419 420L419 930 487 930 487 871 860 871 860 922 930 922 930 54ZM637 154L637 328 515 328 515 391 636 391C632 505 609 624 496 718 511 728 532 748 542 761 622 694 661 615 679 532 710 627 754 708 814 756 824 739 844 717 859 705 779 648 726 525 699 391L831 391 831 328 696 328 696 154ZM487 803L487 122 860 122 860 803Z"/>
</svg>