<svg xmlns="http://www.w3.org/2000/svg" name="gid11872" data-unicode="装"
    viewBox="0 0 1000 1000">
  <!--
© 2014-2021 Adobe (http://www.adobe.com/).
Noto is a trademark of Google Inc.
This Font Software is licensed under the SIL Open Font License, Version 1.1. This Font Software is distributed on an "AS IS" BASIS, WITHOUT WARRANTIES OR CONDITIONS OF ANY KIND, either express or implied. See the SIL Open Font License for the specific language, permissions and limitations governing your use of this Font Software.
http://scripts.sil.org/OFL
  -->
<path d="M269 40L269 511 339 511 339 40ZM68 138C113 169 166 215 190 246L238 198C213 167 158 124 114 95ZM37 395L63 458C121 431 190 398 257 368L242 305C165 340 90 374 37 395ZM52 575L52 634 396 634C303 696 163 746 37 770 51 784 70 809 80 826 143 812 210 791 273 764L273 873 154 888 167 954C277 938 432 917 579 895L576 832 346 863 346 730C402 702 453 669 494 633 574 801 719 914 920 964 929 944 948 917 964 902 866 882 779 845 709 794 769 767 841 728 894 691L839 650C796 684 724 727 664 757 625 721 592 680 567 634L949 634 949 575 536 575 536 494 460 494 460 575ZM629 40L629 178 389 178 389 244 629 244 629 403 421 403 421 469 921 469 921 403 703 403 703 244 951 244 951 178 703 178 703 40Z"/>
</svg>