<svg xmlns="http://www.w3.org/2000/svg"
    viewBox="0 0 1000 1000">
  <!--
© 2014-2021 Adobe (http://www.adobe.com/).
Noto is a trademark of Google Inc.
This Font Software is licensed under the SIL Open Font License, Version 1.1. This Font Software is distributed on an "AS IS" BASIS, WITHOUT WARRANTIES OR CONDITIONS OF ANY KIND, either express or implied. See the SIL Open Font License for the specific language, permissions and limitations governing your use of this Font Software.
http://scripts.sil.org/OFL
  -->
<path d="M54 611L54 666 411 666C313 712 169 749 44 764 57 777 73 800 82 816 146 806 216 789 283 769L283 851 175 863 184 922C292 909 446 889 593 870L592 814 353 843 353 745C407 725 457 701 497 676 579 811 728 895 919 930 928 912 945 886 960 872 864 858 778 832 708 793 761 770 822 740 870 710L821 670C779 698 711 736 656 761 617 734 585 702 560 666L946 666 946 611 834 611 845 604C863 587 874 556 884 492 886 481 887 465 887 465L235 465 235 419 950 419 950 369 235 369 235 323 793 323 793 87 475 87C487 68 499 46 511 22L431 10C424 31 412 61 401 87L160 87 160 515 804 515C798 544 792 559 784 566 778 571 771 572 756 572 743 572 706 572 668 568 675 580 680 597 682 611L536 611 536 548 460 548 460 611ZM717 227L717 274 235 274 235 227ZM717 182L235 182 235 135 717 135Z"/>
</svg>