<svg xmlns="http://www.w3.org/2000/svg"
    viewBox="0 0 1000 1000">
  <!--
© 2014-2021 Adobe (http://www.adobe.com/).
Noto is a trademark of Google Inc.
This Font Software is licensed under the SIL Open Font License, Version 1.1. This Font Software is distributed on an "AS IS" BASIS, WITHOUT WARRANTIES OR CONDITIONS OF ANY KIND, either express or implied. See the SIL Open Font License for the specific language, permissions and limitations governing your use of this Font Software.
http://scripts.sil.org/OFL
  -->
<path d="M441 62L441 128 595 128C592 164 589 199 584 233L395 233 395 301 574 301C568 339 560 375 550 409L432 409 432 476 529 476C489 584 429 669 338 730 354 743 381 770 391 784 434 752 470 715 501 674L501 928 571 928 571 883 842 883 842 928 916 928 916 576 560 576C576 545 589 511 601 476L894 476 894 301 962 301 962 233 894 233 894 62ZM571 817L571 643 842 643 842 817ZM820 301L820 409 620 409C629 375 637 339 643 301ZM820 233L654 233C658 199 662 164 665 128L820 128ZM375 380C359 409 329 451 305 482L272 447C320 375 361 296 390 217L350 191 337 194 259 194 259 10 187 10 187 194 50 194 50 262 301 262C239 397 129 535 26 614 38 626 57 660 65 680 105 647 147 606 187 558L187 931 259 931 259 516C296 561 342 621 361 651L407 599 338 519C364 490 396 452 423 415Z"/>
</svg>