<svg xmlns="http://www.w3.org/2000/svg"
    viewBox="0 0 1000 1000">
  <!--
© 2014-2021 Adobe (http://www.adobe.com/).
Noto is a trademark of Google Inc.
This Font Software is licensed under the SIL Open Font License, Version 1.1. This Font Software is distributed on an "AS IS" BASIS, WITHOUT WARRANTIES OR CONDITIONS OF ANY KIND, either express or implied. See the SIL Open Font License for the specific language, permissions and limitations governing your use of this Font Software.
http://scripts.sil.org/OFL
  -->
<path d="M372 383C357 411 330 452 306 484L271 444C316 375 355 298 382 220L341 194 328 197 255 197 255 15 184 15 184 197 54 197 54 265 293 265C234 401 128 537 26 614 37 626 57 660 65 679 106 646 147 605 187 557L187 930 258 930 258 514C295 561 339 620 358 652L404 601 338 521C355 502 373 479 391 455L391 482 589 482C526 558 433 622 338 664 352 678 376 708 385 722 420 704 456 683 490 659L490 826 382 846 403 915C498 894 628 867 749 839L744 774 559 812 559 606C595 575 629 541 657 504 702 700 783 853 923 929 934 910 956 883 972 869 896 832 838 769 794 689 845 657 907 613 957 572L905 518C870 553 813 598 766 632 746 586 730 535 718 482L947 482 947 417 705 417 705 329 931 329 931 267 705 267 705 188 939 188 939 124 705 124 705 11 632 11 632 124 406 124 406 188 632 188 632 267 423 267 423 329 632 329 632 417 419 417Z"/>
</svg>