<svg xmlns="http://www.w3.org/2000/svg" name="gid11898" data-unicode="裱"
    viewBox="0 0 1000 1000">
  <!--
© 2014-2021 Adobe (http://www.adobe.com/).
Noto is a trademark of Google Inc.
This Font Software is licensed under the SIL Open Font License, Version 1.1. This Font Software is distributed on an "AS IS" BASIS, WITHOUT WARRANTIES OR CONDITIONS OF ANY KIND, either express or implied. See the SIL Open Font License for the specific language, permissions and limitations governing your use of this Font Software.
http://scripts.sil.org/OFL
  -->
<path d="M372 413C357 441 330 482 306 514L271 474C316 405 355 328 382 250L341 224 328 227 255 227 255 45 184 45 184 227 54 227 54 295 293 295C234 431 128 567 26 644 37 656 57 690 65 709 106 676 147 635 187 587L187 960 258 960 258 544C295 591 339 650 358 682L404 631 338 551C355 532 373 509 391 485L391 512 589 512C526 588 433 652 338 694 352 708 376 738 385 752 420 734 456 713 490 689L490 856 382 876 403 945C498 924 628 897 749 869L744 804 559 842 559 636C595 605 629 571 657 534 702 730 783 883 923 959 934 940 956 913 972 899 896 862 838 799 794 719 845 687 907 643 957 602L905 548C870 583 813 628 766 662 746 616 730 565 718 512L947 512 947 447 705 447 705 359 931 359 931 297 705 297 705 218 939 218 939 154 705 154 705 41 632 41 632 154 406 154 406 218 632 218 632 297 423 297 423 359 632 359 632 447 419 447Z"/>
</svg>