<svg xmlns="http://www.w3.org/2000/svg"
    viewBox="0 0 1000 1000">
  <!--
© 2014-2021 Adobe (http://www.adobe.com/).
Noto is a trademark of Google Inc.
This Font Software is licensed under the SIL Open Font License, Version 1.1. This Font Software is distributed on an "AS IS" BASIS, WITHOUT WARRANTIES OR CONDITIONS OF ANY KIND, either express or implied. See the SIL Open Font License for the specific language, permissions and limitations governing your use of this Font Software.
http://scripts.sil.org/OFL
  -->
<path d="M298 322L703 322 703 418 298 418ZM812 606C772 641 707 688 651 722 612 686 580 644 555 597L932 597 932 535 536 535 536 474 777 474 777 267 227 267 227 474 461 474 461 535 65 535 65 597 408 597C314 660 172 703 37 728 51 742 73 773 81 788 152 771 225 750 294 723L294 841 158 861 176 927C291 910 456 883 610 858L607 794 366 831 366 692C412 670 454 644 490 615 570 780 711 885 916 928 927 908 948 878 964 862 860 844 771 810 700 760 755 729 819 688 869 648ZM763 17C744 53 707 107 680 140L536 140 536 10 461 10 461 140 309 140 318 136C301 103 267 55 234 18L168 45C191 73 216 110 234 140L83 140 83 342 154 342 154 206 852 206 852 342 925 342 925 140 764 140C788 112 816 77 841 43Z"/>
</svg>