<svg xmlns="http://www.w3.org/2000/svg" name="gid11901" data-unicode="裴"
    viewBox="0 0 1000 1000">
  <!--
© 2014-2021 Adobe (http://www.adobe.com/).
Noto is a trademark of Google Inc.
This Font Software is licensed under the SIL Open Font License, Version 1.1. This Font Software is distributed on an "AS IS" BASIS, WITHOUT WARRANTIES OR CONDITIONS OF ANY KIND, either express or implied. See the SIL Open Font License for the specific language, permissions and limitations governing your use of this Font Software.
http://scripts.sil.org/OFL
  -->
<path d="M46 383L53 441 294 417C258 456 198 490 100 517 113 530 131 552 139 569L52 569 52 627 391 627C297 685 159 731 37 755 51 769 70 793 79 810 142 796 209 776 273 750L273 869 148 886 160 951C276 934 442 908 599 883L596 821 345 858 345 718C400 691 451 660 491 627L493 627C571 803 714 914 920 964 929 944 949 917 964 902 860 881 772 843 701 790 764 760 839 721 896 680L840 640C795 675 718 720 656 750 619 714 588 673 565 627L949 627 949 569 536 569 536 488 460 488 460 569 162 569C387 499 419 385 419 251L419 40 348 40 348 126 75 126 75 180 348 180 348 246 99 246 99 299 346 299C343 320 338 341 330 361 223 371 119 379 46 383ZM580 40L580 536 653 536 653 431 952 431 952 373 653 373 653 304 902 304 902 249 653 249 653 181 926 181 926 126 653 126 653 40Z"/>
</svg>