<svg xmlns="http://www.w3.org/2000/svg" name="gid11905" data-unicode="裹"
    viewBox="0 0 1000 1000">
  <!--
© 2014-2021 Adobe (http://www.adobe.com/).
Noto is a trademark of Google Inc.
This Font Software is licensed under the SIL Open Font License, Version 1.1. This Font Software is distributed on an "AS IS" BASIS, WITHOUT WARRANTIES OR CONDITIONS OF ANY KIND, either express or implied. See the SIL Open Font License for the specific language, permissions and limitations governing your use of this Font Software.
http://scripts.sil.org/OFL
  -->
<path d="M307 547C243 589 131 628 38 651 50 663 69 692 76 704 172 674 290 623 363 571ZM617 580C712 611 832 663 893 700L941 660C875 622 755 573 662 544ZM69 110L69 165 932 165 932 110 536 110 536 38 460 38 460 110ZM170 208L170 438 461 438 461 481 52 481 52 536 461 536 461 615 469 615C373 686 208 746 36 786 50 799 69 824 78 839 145 822 211 802 273 779L273 874 154 892 164 954C274 936 431 911 579 887L576 828 345 863 345 751C398 728 447 703 490 676 578 821 732 918 921 961 930 943 949 917 964 903 857 883 761 844 683 791 733 767 790 735 835 703L781 663C745 691 687 728 637 755 597 721 564 683 540 640L555 627 528 615 535 615 535 536 949 536 949 481 535 481 535 438 831 438 831 208ZM241 344L461 344 461 395 241 395ZM535 344L756 344 756 395 535 395ZM241 252L461 252 461 301 241 301ZM535 252L756 252 756 301 535 301Z"/>
</svg>