<svg xmlns="http://www.w3.org/2000/svg"
    viewBox="0 0 1000 1000">
  <!--
© 2014-2021 Adobe (http://www.adobe.com/).
Noto is a trademark of Google Inc.
This Font Software is licensed under the SIL Open Font License, Version 1.1. This Font Software is distributed on an "AS IS" BASIS, WITHOUT WARRANTIES OR CONDITIONS OF ANY KIND, either express or implied. See the SIL Open Font License for the specific language, permissions and limitations governing your use of this Font Software.
http://scripts.sil.org/OFL
  -->
<path d="M609 49L609 386 678 386 678 49ZM838 20L838 437C838 449 834 453 819 453 804 454 756 454 701 452 711 471 721 497 725 515 796 515 842 515 870 504 899 494 907 476 907 437L907 20ZM55 556L55 618 406 618C309 677 165 725 38 747 53 761 72 787 81 804 145 790 214 769 280 743L280 844 177 859 190 922C296 906 444 881 586 858L583 798 353 833 353 712C407 686 457 657 498 625 574 789 714 890 919 932 928 914 946 886 962 872 859 854 772 821 703 773 766 744 839 706 896 666L841 626C795 660 719 705 656 735 618 701 588 662 565 618L946 618 946 556 538 556 538 496 462 496 462 556ZM146 13C128 68 101 125 66 166 81 172 107 186 120 195 133 178 146 157 158 134L276 134 276 196 51 196 51 250 276 250 276 303 101 303 101 491 161 491 161 354 276 354 276 518 343 518 343 354 464 354 464 426C464 434 462 437 453 437 444 438 419 438 386 437 393 451 403 470 406 485 451 485 481 485 501 476 523 468 527 454 527 426L527 303 343 303 343 250 556 250 556 196 343 196 343 134 521 134 521 81 343 81 343 10 276 10 276 81 184 81C192 63 199 45 205 27Z"/>
</svg>