<svg xmlns="http://www.w3.org/2000/svg"
    viewBox="0 0 1000 1000">
  <!--
© 2014-2021 Adobe (http://www.adobe.com/).
Noto is a trademark of Google Inc.
This Font Software is licensed under the SIL Open Font License, Version 1.1. This Font Software is distributed on an "AS IS" BASIS, WITHOUT WARRANTIES OR CONDITIONS OF ANY KIND, either express or implied. See the SIL Open Font License for the specific language, permissions and limitations governing your use of this Font Software.
http://scripts.sil.org/OFL
  -->
<path d="M387 55L387 123 947 123 947 55ZM607 563L607 674 528 674 528 563ZM660 563L740 563 740 674 660 674ZM424 190L424 388C424 531 413 732 308 877 324 885 352 908 364 922 416 850 448 762 467 673L467 931 528 931 528 734 607 734 607 924 660 924 660 734 740 734 740 924 793 924 793 734 874 734 874 861C874 869 872 871 865 871 858 871 840 871 817 871 825 888 833 913 836 931 872 931 897 930 916 919 934 909 938 891 938 862L938 501 490 501 494 428 922 428 922 190ZM793 563L874 563 874 674 793 674ZM494 254L852 254 852 365 494 365ZM355 382C341 412 315 456 293 488L260 447C303 377 339 300 365 222L326 197 313 200 245 200 245 15 176 15 176 200 54 200 54 266 281 266C226 403 126 540 29 618 42 630 61 663 68 681 105 649 143 609 179 563L179 930 247 930 247 516C280 562 317 618 333 648L378 597 324 526C348 495 376 453 400 415Z"/>
</svg>