<svg xmlns="http://www.w3.org/2000/svg" name="gid11924" data-unicode="褘"
    viewBox="0 0 1000 1000">
  <!--
© 2014-2021 Adobe (http://www.adobe.com/).
Noto is a trademark of Google Inc.
This Font Software is licensed under the SIL Open Font License, Version 1.1. This Font Software is distributed on an "AS IS" BASIS, WITHOUT WARRANTIES OR CONDITIONS OF ANY KIND, either express or implied. See the SIL Open Font License for the specific language, permissions and limitations governing your use of this Font Software.
http://scripts.sil.org/OFL
  -->
<path d="M531 432L828 432 828 529 531 529ZM805 264L622 264 641 172 805 172ZM591 39L579 113 448 113 448 172 568 172 548 264 385 264 385 327 961 327 961 264 876 264 876 113 653 113 665 45ZM447 645L447 793 374 793 374 856 679 856 679 962 751 962 751 856 964 856 964 793 751 793 751 704 915 704 915 645 751 645 751 585 899 585 899 377 463 377 463 585 679 585 679 645ZM679 793L514 793 514 704 679 704ZM375 416C359 445 331 487 306 520L268 478C315 407 354 330 382 250L341 224 328 227 255 227 255 45 184 45 184 227 54 227 54 295 293 295C234 431 128 567 26 644 37 656 57 690 65 709 106 676 147 635 187 587L187 960 258 960 258 550C295 597 339 656 358 688L404 636 338 557C365 526 396 487 422 450Z"/>
</svg>