<svg xmlns="http://www.w3.org/2000/svg" name="gid11931" data-unicode="褥"
    viewBox="0 0 1000 1000">
  <!--
© 2014-2021 Adobe (http://www.adobe.com/).
Noto is a trademark of Google Inc.
This Font Software is licensed under the SIL Open Font License, Version 1.1. This Font Software is distributed on an "AS IS" BASIS, WITHOUT WARRANTIES OR CONDITIONS OF ANY KIND, either express or implied. See the SIL Open Font License for the specific language, permissions and limitations governing your use of this Font Software.
http://scripts.sil.org/OFL
  -->
<path d="M523 199L523 255 902 255 902 199ZM521 759C562 796 606 850 626 886L681 848C660 812 614 761 573 725ZM773 570L773 648 474 648 474 710 773 710 773 886C773 897 770 900 757 901 747 902 707 902 665 901 674 918 685 943 688 961 750 961 787 960 812 950 837 940 844 923 844 888L844 710 963 710 963 648 844 648 844 570ZM895 378C872 397 835 426 801 447 779 424 761 398 746 369L954 369 954 312 477 312 477 142 946 142 946 80 409 80 409 391C409 545 400 753 295 900 311 908 338 932 350 946 460 790 477 554 477 391L477 369 552 369 552 521 494 529 514 591C583 577 668 561 753 544L749 490 614 512 614 369 688 369C731 479 813 558 930 595 939 578 958 553 972 541 919 528 873 506 835 477 869 460 906 437 938 414ZM342 409C328 439 303 481 282 514L250 474C292 404 328 328 353 252L315 226 302 229 238 229 238 45 172 45 172 229 54 229 54 295 270 295C217 429 120 567 28 646 40 658 60 691 67 709 102 676 137 636 172 590L172 961 238 961 238 542C269 588 307 645 322 675L364 623 310 551C334 521 362 480 387 443Z"/>
</svg>