<svg xmlns="http://www.w3.org/2000/svg"
    viewBox="0 0 1000 1000">
  <!--
© 2014-2021 Adobe (http://www.adobe.com/).
Noto is a trademark of Google Inc.
This Font Software is licensed under the SIL Open Font License, Version 1.1. This Font Software is distributed on an "AS IS" BASIS, WITHOUT WARRANTIES OR CONDITIONS OF ANY KIND, either express or implied. See the SIL Open Font License for the specific language, permissions and limitations governing your use of this Font Software.
http://scripts.sil.org/OFL
  -->
<path d="M765 650C734 676 685 713 641 741 610 713 584 682 563 647L779 647 779 625C824 653 871 676 917 691 928 673 949 647 965 634 870 608 769 554 703 494L944 494 944 436 687 436 687 375 825 375 825 325 687 325 687 265 842 265 842 214 687 214 687 157 615 157 615 214 385 214 385 157 314 157 314 214 156 214 156 265 314 265 314 325 173 325 173 375 314 375 314 436 59 436 59 494 304 494C234 560 127 619 30 649 45 662 66 687 76 704 126 685 179 659 229 627L229 647 418 647C334 702 215 747 106 768 119 782 137 805 146 821 202 807 261 787 317 762L317 848 225 862 240 922C338 905 469 883 593 860L589 804 384 838 384 729C427 706 466 680 498 652 570 795 702 889 877 931 886 913 904 885 919 871 828 853 748 821 683 775 727 751 776 720 817 689ZM385 265L615 265 615 325 385 325ZM385 375L615 375 615 436 385 436ZM464 516L464 590 282 590C321 560 356 528 384 494L624 494C651 528 687 561 727 590L532 590 532 516ZM461 9L461 82 82 82 82 247 151 247 151 143 846 143 846 247 918 247 918 82 536 82 536 9Z"/>
</svg>