<svg xmlns="http://www.w3.org/2000/svg" name="gid11939" data-unicode="褲"
    viewBox="0 0 1000 1000">
  <!--
© 2014-2021 Adobe (http://www.adobe.com/).
Noto is a trademark of Google Inc.
This Font Software is licensed under the SIL Open Font License, Version 1.1. This Font Software is distributed on an "AS IS" BASIS, WITHOUT WARRANTIES OR CONDITIONS OF ANY KIND, either express or implied. See the SIL Open Font License for the specific language, permissions and limitations governing your use of this Font Software.
http://scripts.sil.org/OFL
  -->
<path d="M385 132L385 427 385 441 342 409C328 439 303 481 282 514L250 474C292 404 328 328 353 252L315 226 302 229 238 229 238 45 172 45 172 229 54 229 54 295 270 295C217 429 120 567 28 646 40 658 60 691 67 709 102 676 137 636 172 590L172 961 238 961 238 542C269 588 307 645 322 675L364 623 310 551C333 522 360 482 385 446 384 591 373 783 294 921 310 928 340 948 352 960 440 808 453 583 453 427L453 195 952 195 952 132 703 132 703 40 631 40 631 132ZM500 403L500 694 680 694 680 759 461 759 461 822 680 822 680 960 747 960 747 822 962 822 962 759 747 759 747 694 929 694 929 403 747 403 747 342 942 342 942 284 747 284 747 210 680 210 680 284 493 284 493 342 680 342 680 403ZM558 572L680 572 680 643 558 643ZM747 572L869 572 869 643 747 643ZM558 454L680 454 680 523 558 523ZM747 454L869 454 869 523 747 523Z"/>
</svg>