<svg xmlns="http://www.w3.org/2000/svg"
    viewBox="0 0 1000 1000">
  <!--
© 2014-2021 Adobe (http://www.adobe.com/).
Noto is a trademark of Google Inc.
This Font Software is licensed under the SIL Open Font License, Version 1.1. This Font Software is distributed on an "AS IS" BASIS, WITHOUT WARRANTIES OR CONDITIONS OF ANY KIND, either express or implied. See the SIL Open Font License for the specific language, permissions and limitations governing your use of this Font Software.
http://scripts.sil.org/OFL
  -->
<path d="M500 127C471 163 417 209 365 237 378 246 395 261 405 273 458 242 514 197 551 152ZM782 122C754 159 702 203 652 231 665 240 682 255 692 267 743 237 797 192 833 148ZM383 53L383 112 574 112 574 429 636 429C630 453 620 483 610 509L428 509 428 932 498 932 498 893 845 893 845 928 917 928 917 509 680 509 715 435 640 420 640 53ZM522 264C490 305 432 358 378 390 391 400 409 415 419 427 475 391 534 340 574 290ZM667 53L667 112 867 112 867 431 934 431 934 53ZM815 252C784 294 725 346 671 378 684 388 702 403 712 415 768 380 827 329 867 279ZM498 730L845 730 845 832 498 832ZM498 670L498 570 845 570 845 670ZM340 382C326 411 303 451 282 484L250 444C292 374 328 298 353 222L315 196 302 199 238 199 238 15 172 15 172 199 54 199 54 265 270 265C217 399 120 537 28 616 40 628 60 661 67 679 102 646 137 606 172 560L172 931 238 931 238 512C269 558 307 615 322 645L364 593 310 522C334 491 360 451 385 415Z"/>
</svg>