<svg xmlns="http://www.w3.org/2000/svg"
    viewBox="0 0 1000 1000">
  <!--
© 2014-2021 Adobe (http://www.adobe.com/).
Noto is a trademark of Google Inc.
This Font Software is licensed under the SIL Open Font License, Version 1.1. This Font Software is distributed on an "AS IS" BASIS, WITHOUT WARRANTIES OR CONDITIONS OF ANY KIND, either express or implied. See the SIL Open Font License for the specific language, permissions and limitations governing your use of this Font Software.
http://scripts.sil.org/OFL
  -->
<path d="M315 386C302 413 278 453 257 484L228 445C267 374 300 297 324 221L286 196 273 199 222 199 222 10 156 10 156 199 52 199 52 266 242 266C194 398 105 538 22 621 34 632 53 664 61 683 92 650 125 609 156 563L156 931 222 931 222 520C252 564 287 620 302 649L342 600C333 587 310 554 285 520 308 492 335 454 359 419ZM436 114L558 114 558 194 436 194ZM436 332L436 249 558 249 558 332ZM369 55L369 931 436 931 436 391 619 391 619 55ZM734 249L863 249 863 332 734 332ZM734 194L734 114 863 114 863 194ZM714 505L714 567 579 567 579 505ZM521 454L521 629C521 702 518 795 474 864 488 870 515 884 526 893 553 848 567 789 574 731L714 731 714 818C714 827 712 830 702 831 694 831 669 831 638 830 646 846 654 869 656 885 699 885 728 885 747 875 756 871 762 865 766 856 770 848 772 836 772 819L772 454ZM714 616L714 682 578 682 579 631 579 616ZM863 55L673 55 673 391 863 391 863 840C863 853 859 856 848 857L766 856C775 876 787 909 790 929 841 929 876 927 900 914 924 902 930 878 930 841L930 55Z"/>
</svg>