<svg xmlns="http://www.w3.org/2000/svg" name="gid11967" data-unicode="襠"
    viewBox="0 0 1000 1000">
  <!--
© 2014-2021 Adobe (http://www.adobe.com/).
Noto is a trademark of Google Inc.
This Font Software is licensed under the SIL Open Font License, Version 1.1. This Font Software is distributed on an "AS IS" BASIS, WITHOUT WARRANTIES OR CONDITIONS OF ANY KIND, either express or implied. See the SIL Open Font License for the specific language, permissions and limitations governing your use of this Font Software.
http://scripts.sil.org/OFL
  -->
<path d="M550 391L800 391 800 482 550 482ZM484 335L484 538 870 538 870 335ZM634 650L634 731 486 731 486 650ZM703 650L858 650 858 731 703 731ZM634 786L634 869 486 869 486 786ZM703 786L858 786 858 869 703 869ZM633 40L633 208 514 208 559 185C545 148 513 95 481 55L424 83C453 120 482 171 496 208L395 208 395 376 464 376 464 270 879 270 879 376 951 376 951 208 836 208C862 172 894 121 921 75L850 52C834 94 802 154 777 193L816 208 703 208 703 40ZM417 593L417 961 486 961 486 927 858 927 858 957 928 957 928 593ZM355 412C341 442 315 486 293 518L260 477C303 407 339 330 365 252L326 227 313 230 245 230 245 45 176 45 176 230 54 230 54 296 281 296C226 433 126 570 29 648 42 660 61 693 68 711 105 679 143 639 179 593L179 960 247 960 247 546C280 592 317 648 333 678L378 627 324 556C348 525 376 483 400 445Z"/>
</svg>