<svg xmlns="http://www.w3.org/2000/svg" name="gid11994" data-unicode="覇"
    viewBox="0 0 1000 1000">
  <!--
© 2014-2021 Adobe (http://www.adobe.com/).
Noto is a trademark of Google Inc.
This Font Software is licensed under the SIL Open Font License, Version 1.1. This Font Software is distributed on an "AS IS" BASIS, WITHOUT WARRANTIES OR CONDITIONS OF ANY KIND, either express or implied. See the SIL Open Font License for the specific language, permissions and limitations governing your use of this Font Software.
http://scripts.sil.org/OFL
  -->
<path d="M115 192L115 366 890 366 890 192 650 192 650 140 949 140 949 84 52 84 52 140 344 140 344 192ZM412 140L579 140 579 192 412 192ZM567 420L567 623C567 692 560 770 518 840L518 818 312 818 312 775 484 775 484 622 312 622 312 582 421 582 421 482 514 482 514 432 421 432 421 383 356 383 356 432 207 432 207 383 145 383 145 432 52 432 52 482 145 482 145 582 247 582 247 622 84 622 84 775 247 775 247 818 45 818 45 873 247 873 247 959 312 959 312 873 495 873C482 889 466 905 448 919 464 927 492 948 503 961 573 904 607 830 622 756L835 756 835 880C835 894 831 898 816 898 802 899 754 899 701 897 710 915 719 942 722 959 795 959 841 959 869 949 896 938 905 919 905 881L905 420ZM356 482L356 535 207 535 207 482ZM835 481L835 559 635 559 635 481ZM835 618L835 698 631 698C634 673 635 648 635 624L635 618ZM145 669L247 669 247 729 145 729ZM312 669L419 669 419 729 312 729ZM183 244L344 244 344 313 183 313ZM412 244L579 244 579 313 412 313ZM650 244L819 244 819 313 650 313Z"/>
</svg>