<svg xmlns="http://www.w3.org/2000/svg" name="gid12006" data-unicode="覗"
    viewBox="0 0 1000 1000">
  <!--
© 2014-2021 Adobe (http://www.adobe.com/).
Noto is a trademark of Google Inc.
This Font Software is licensed under the SIL Open Font License, Version 1.1. This Font Software is distributed on an "AS IS" BASIS, WITHOUT WARRANTIES OR CONDITIONS OF ANY KIND, either express or implied. See the SIL Open Font License for the specific language, permissions and limitations governing your use of this Font Software.
http://scripts.sil.org/OFL
  -->
<path d="M48 245L48 306 347 306 347 245ZM594 312L843 312 843 416 594 416ZM594 478L843 478 843 582 594 582ZM594 148L843 148 843 250 594 250ZM526 81L526 649 598 649C589 782 559 860 438 908 449 894 454 874 454 846L454 89 55 89 55 154 386 154 386 845C386 862 380 867 365 867 349 867 298 868 240 866 251 886 261 918 265 938 343 938 388 936 417 924 425 920 432 915 438 909 452 920 471 946 479 962 616 905 653 807 663 649L737 649 737 858C737 926 752 947 815 947 828 947 875 947 888 947 944 947 960 914 967 779 948 774 919 763 906 751 904 869 901 883 880 883 870 883 833 883 825 883 806 883 804 880 804 857L804 649 913 649 913 81ZM133 464L247 464 247 656 133 656ZM71 400L71 791 133 791 133 720 307 720 307 400Z"/>
</svg>