<svg xmlns="http://www.w3.org/2000/svg"
    viewBox="0 0 1000 1000">
  <!--
© 2014-2021 Adobe (http://www.adobe.com/).
Noto is a trademark of Google Inc.
This Font Software is licensed under the SIL Open Font License, Version 1.1. This Font Software is distributed on an "AS IS" BASIS, WITHOUT WARRANTIES OR CONDITIONS OF ANY KIND, either express or implied. See the SIL Open Font License for the specific language, permissions and limitations governing your use of this Font Software.
http://scripts.sil.org/OFL
  -->
<path d="M567 277L838 277 838 377 567 377ZM567 438L838 438 838 540 567 540ZM567 116L838 116 838 215 567 215ZM209 11L209 438 81 438 81 880 153 880 153 807 431 807 431 438 282 438 282 262 464 262 464 193 282 193 282 11ZM153 505L360 505 360 738 153 738ZM499 49L499 606 576 606C563 737 526 828 383 877 398 890 418 916 426 934 587 873 632 764 647 606L729 606 729 824C729 895 744 917 810 917 824 917 872 917 887 917 944 917 962 883 968 747 949 742 919 731 905 718 903 835 899 850 879 850 868 850 829 850 820 850 801 850 799 847 799 824L799 606 909 606 909 49Z"/>
</svg>