<svg xmlns="http://www.w3.org/2000/svg"
    viewBox="0 0 1000 1000">
  <!--
© 2014-2021 Adobe (http://www.adobe.com/).
Noto is a trademark of Google Inc.
This Font Software is licensed under the SIL Open Font License, Version 1.1. This Font Software is distributed on an "AS IS" BASIS, WITHOUT WARRANTIES OR CONDITIONS OF ANY KIND, either express or implied. See the SIL Open Font License for the specific language, permissions and limitations governing your use of this Font Software.
http://scripts.sil.org/OFL
  -->
<path d="M630 277L847 277 847 382 630 382ZM630 441L847 441 847 546 630 546ZM630 115L847 115 847 218 630 218ZM131 841L142 898C243 886 383 867 520 848 505 858 488 868 468 876 482 888 502 913 509 929 642 870 677 767 687 610L749 610 749 827C749 894 763 914 824 914 836 914 878 914 892 914 944 914 961 882 967 752 949 747 921 736 908 724 905 838 902 851 883 851 874 851 841 851 834 851 817 851 814 848 814 827L814 610 917 610 917 51 564 51 564 610 622 610C615 710 597 782 540 832L539 793 484 800 484 487 201 487 201 833ZM250 239L250 306 160 316 164 363 250 353 250 372C250 429 267 442 335 442 349 442 430 442 444 442 491 442 508 427 514 369 497 366 474 359 462 350 460 389 456 394 435 394 419 394 354 394 342 394 315 394 310 391 310 372L310 346 445 331 442 285 310 300 310 239 476 239C472 268 466 296 460 317L511 330C523 294 534 239 543 190L503 180 493 183 325 183 325 131 506 131 506 78 325 78 325 10 258 10 258 183 82 183 82 464C82 586 77 754 24 873 38 880 66 900 76 912 135 784 145 595 145 463L145 239ZM260 650L422 650 422 706 260 706ZM260 600L260 544 422 544 422 600ZM260 756L422 756 422 807 260 826Z"/>
</svg>