<svg xmlns="http://www.w3.org/2000/svg" name="gid12032" data-unicode="觀"
    viewBox="0 0 1000 1000">
  <!--
© 2014-2021 Adobe (http://www.adobe.com/).
Noto is a trademark of Google Inc.
This Font Software is licensed under the SIL Open Font License, Version 1.1. This Font Software is distributed on an "AS IS" BASIS, WITHOUT WARRANTIES OR CONDITIONS OF ANY KIND, either express or implied. See the SIL Open Font License for the specific language, permissions and limitations governing your use of this Font Software.
http://scripts.sil.org/OFL
  -->
<path d="M127 299L211 299 211 384 127 384ZM363 299L454 299 454 384 363 384ZM628 306L850 306 850 408 628 408ZM628 468L850 468 850 571 628 571ZM628 145L850 145 850 246 628 246ZM280 679L280 738 173 738 173 679ZM562 79L562 636 626 636C620 752 599 830 519 880L519 847 344 847 344 788 495 788 495 738 344 738 344 679 495 679 495 629 344 629 344 571 516 571 516 517 354 517 388 448 335 434 510 434 510 249 311 249 311 434 323 434C316 458 306 490 294 517L184 517C195 493 205 468 213 443L178 434 266 434 266 249 73 249 73 434 153 434C124 520 76 602 22 659 34 671 54 698 62 710 79 692 95 671 111 648L111 951 173 951 173 903 472 903 467 905C482 917 500 943 509 960 647 900 681 799 691 636L757 636 757 856C757 923 771 943 831 943 843 943 882 943 895 943 948 943 964 910 969 776 951 771 924 761 910 749 909 866 905 881 887 881 878 881 848 881 841 881 826 881 823 877 823 856L823 636 919 636 919 79ZM280 629L173 629 173 571 280 571ZM280 788L280 847 173 847 173 788ZM357 42L357 107 224 107 224 42 158 42 158 107 49 107 49 164 158 164 158 228 224 228 224 164 357 164 357 228 422 228 422 164 526 164 526 107 422 107 422 42Z"/>
</svg>