<svg xmlns="http://www.w3.org/2000/svg"
    viewBox="0 0 1000 1000">
  <!--
© 2014-2021 Adobe (http://www.adobe.com/).
Noto is a trademark of Google Inc.
This Font Software is licensed under the SIL Open Font License, Version 1.1. This Font Software is distributed on an "AS IS" BASIS, WITHOUT WARRANTIES OR CONDITIONS OF ANY KIND, either express or implied. See the SIL Open Font License for the specific language, permissions and limitations governing your use of this Font Software.
http://scripts.sil.org/OFL
  -->
<path d="M484 829L484 895 777 895 777 829ZM452 695L474 764C548 745 643 723 736 699L729 638 583 669 583 407 734 407C751 692 791 885 888 887 922 888 956 846 973 690 961 684 933 669 921 656 915 748 904 804 888 803 841 801 812 639 799 407L959 407 959 342 796 342C793 270 791 193 791 113 840 99 887 84 926 67L864 16C797 47 682 79 573 103L515 83 515 683ZM583 342L583 162C629 153 677 142 723 131 725 205 727 275 730 342ZM242 323L242 434 166 434 166 323ZM296 323L376 323 376 434 296 434ZM156 265C174 232 190 196 205 158L306 158C292 196 272 236 254 265ZM179 10C150 131 99 250 32 327 49 337 77 359 89 371L105 350 105 532C105 644 98 792 32 898 47 905 74 922 86 932 132 858 152 759 161 665L376 665 376 850C376 863 371 867 358 868 345 868 301 868 249 867 259 884 269 913 272 931 340 931 381 930 406 918 431 907 439 887 439 851L439 265 323 265C348 221 373 170 392 123L349 94 336 98 226 98C234 74 241 49 247 24ZM242 491L242 606 164 606 166 532 166 491ZM296 491L376 491 376 606 296 606Z"/>
</svg>