<svg xmlns="http://www.w3.org/2000/svg" name="gid12061" data-unicode="訂"
    viewBox="0 0 1000 1000">
  <!--
© 2014-2021 Adobe (http://www.adobe.com/).
Noto is a trademark of Google Inc.
This Font Software is licensed under the SIL Open Font License, Version 1.1. This Font Software is distributed on an "AS IS" BASIS, WITHOUT WARRANTIES OR CONDITIONS OF ANY KIND, either express or implied. See the SIL Open Font License for the specific language, permissions and limitations governing your use of this Font Software.
http://scripts.sil.org/OFL
  -->
<path d="M86 343L86 402 398 402 398 343ZM91 75L91 135 399 135 399 75ZM86 476L86 536 398 536 398 476ZM38 206L38 269 436 269 436 206ZM449 129L449 201 696 201 696 862C696 880 689 885 670 886 651 886 589 886 521 884 531 906 544 940 547 961 635 961 692 959 725 947 759 935 771 912 771 862L771 201 962 201 962 129ZM84 611L84 949 151 949 151 903 395 903 395 611ZM151 674L328 674 328 841 151 841Z"/>
</svg>