<svg xmlns="http://www.w3.org/2000/svg"
    viewBox="0 0 1000 1000">
  <!--
© 2014-2021 Adobe (http://www.adobe.com/).
Noto is a trademark of Google Inc.
This Font Software is licensed under the SIL Open Font License, Version 1.1. This Font Software is distributed on an "AS IS" BASIS, WITHOUT WARRANTIES OR CONDITIONS OF ANY KIND, either express or implied. See the SIL Open Font License for the specific language, permissions and limitations governing your use of this Font Software.
http://scripts.sil.org/OFL
  -->
<path d="M86 313L86 372 398 372 398 313ZM91 45L91 105 399 105 399 45ZM86 446L86 506 398 506 398 446ZM38 176L38 239 436 239 436 176ZM434 403L434 474 656 474 656 930 731 930 731 474 963 474 963 403 731 403 731 147 942 147 942 76 463 76 463 147 656 147 656 403ZM84 581L84 919 151 919 151 873 395 873 395 581ZM151 644L328 644 328 811 151 811Z"/>
</svg>