<svg xmlns="http://www.w3.org/2000/svg" name="gid12078" data-unicode="託"
    viewBox="0 0 1000 1000">
  <!--
© 2014-2021 Adobe (http://www.adobe.com/).
Noto is a trademark of Google Inc.
This Font Software is licensed under the SIL Open Font License, Version 1.1. This Font Software is distributed on an "AS IS" BASIS, WITHOUT WARRANTIES OR CONDITIONS OF ANY KIND, either express or implied. See the SIL Open Font License for the specific language, permissions and limitations governing your use of this Font Software.
http://scripts.sil.org/OFL
  -->
<path d="M86 343L86 402 398 402 398 343ZM91 75L91 135 399 135 399 75ZM86 476L86 536 398 536 398 476ZM38 206L38 269 436 269 436 206ZM422 489L435 561 627 531 627 827C627 923 650 949 732 949 750 949 846 949 863 949 942 949 961 900 969 754 947 749 917 736 899 722 895 847 890 877 858 877 838 877 758 877 742 877 709 877 702 869 702 827L702 520 964 479 952 409 702 447 702 177C782 158 857 136 917 111L854 51C759 95 590 135 442 161 452 178 463 206 467 224 519 216 573 206 627 194L627 458ZM84 611L84 949 151 949 151 903 395 903 395 611ZM151 674L328 674 328 841 151 841Z"/>
</svg>