<svg xmlns="http://www.w3.org/2000/svg"
    viewBox="0 0 1000 1000">
  <!--
© 2014-2021 Adobe (http://www.adobe.com/).
Noto is a trademark of Google Inc.
This Font Software is licensed under the SIL Open Font License, Version 1.1. This Font Software is distributed on an "AS IS" BASIS, WITHOUT WARRANTIES OR CONDITIONS OF ANY KIND, either express or implied. See the SIL Open Font License for the specific language, permissions and limitations governing your use of this Font Software.
http://scripts.sil.org/OFL
  -->
<path d="M79 313L79 372 336 372 336 313ZM86 45L86 105 334 105 334 45ZM79 446L79 506 336 506 336 446ZM38 176L38 239 362 239 362 176ZM883 184C846 244 796 304 741 359L741 24 668 24 668 426C631 458 594 486 558 509 574 521 597 543 608 557 628 544 648 529 668 514L668 806C668 900 689 926 764 926 780 926 860 926 876 926 949 926 965 874 973 728 952 722 924 709 906 694 902 823 898 858 871 858 854 858 788 858 775 858 747 858 741 850 741 807L741 454C818 386 892 306 948 225ZM548 17C500 165 418 306 322 395 337 410 362 440 372 454 404 422 434 385 463 344L463 930 534 930 534 228C567 167 595 102 618 36ZM78 581L78 919 140 919 140 872 335 872 335 581ZM140 643L273 643 273 810 140 810Z"/>
</svg>