<svg xmlns="http://www.w3.org/2000/svg" name="gid12102" data-unicode="診"
    viewBox="0 0 1000 1000">
  <!--
© 2014-2021 Adobe (http://www.adobe.com/).
Noto is a trademark of Google Inc.
This Font Software is licensed under the SIL Open Font License, Version 1.1. This Font Software is distributed on an "AS IS" BASIS, WITHOUT WARRANTIES OR CONDITIONS OF ANY KIND, either express or implied. See the SIL Open Font License for the specific language, permissions and limitations governing your use of this Font Software.
http://scripts.sil.org/OFL
  -->
<path d="M671 113C729 212 836 321 935 385 946 364 963 337 977 319 877 263 769 153 703 41L632 41C583 146 480 265 371 331 384 347 402 374 410 392 519 322 619 209 671 113ZM692 298C638 368 539 441 453 483 470 495 491 514 503 529 595 481 695 405 757 324ZM776 445C709 537 580 623 459 671 477 685 496 707 508 723 636 668 764 576 842 473ZM867 595C782 739 614 845 413 899 431 916 449 943 460 962 669 900 841 784 934 625ZM85 343L85 402 378 402 378 343ZM89 75L89 135 374 135 374 75ZM85 476L85 536 378 536 378 476ZM38 206L38 269 409 269 409 206ZM84 611L84 949 150 949 150 903 379 903 379 611ZM150 674L313 674 313 841 150 841Z"/>
</svg>