<svg xmlns="http://www.w3.org/2000/svg" name="gid12106" data-unicode="訾"
    viewBox="0 0 1000 1000">
  <!--
© 2014-2021 Adobe (http://www.adobe.com/).
Noto is a trademark of Google Inc.
This Font Software is licensed under the SIL Open Font License, Version 1.1. This Font Software is distributed on an "AS IS" BASIS, WITHOUT WARRANTIES OR CONDITIONS OF ANY KIND, either express or implied. See the SIL Open Font License for the specific language, permissions and limitations governing your use of this Font Software.
http://scripts.sil.org/OFL
  -->
<path d="M204 667L204 716 796 716 796 667ZM204 574L204 623 796 623 796 574ZM46 479L46 530 955 530 955 479ZM218 387L218 435 784 435 784 387ZM113 104L113 309 43 317 55 375C173 361 342 342 500 323L499 268 331 286 331 191 489 191 489 136 331 136 331 40 263 40 263 294 177 303 177 104ZM845 90C789 116 693 141 602 160L602 40 531 40 531 255C531 326 557 343 653 343 674 343 820 343 841 343 914 343 935 319 942 229 924 226 897 217 882 207 878 276 871 286 834 286 804 286 682 286 659 286 610 286 602 282 602 255L602 213C704 195 817 168 895 136ZM188 760L188 960 260 960 260 931 738 931 738 959 812 959 812 760ZM260 881L260 810 738 810 738 881Z"/>
</svg>