<svg xmlns="http://www.w3.org/2000/svg" name="gid12111" data-unicode="詆"
    viewBox="0 0 1000 1000">
  <!--
© 2014-2021 Adobe (http://www.adobe.com/).
Noto is a trademark of Google Inc.
This Font Software is licensed under the SIL Open Font License, Version 1.1. This Font Software is distributed on an "AS IS" BASIS, WITHOUT WARRANTIES OR CONDITIONS OF ANY KIND, either express or implied. See the SIL Open Font License for the specific language, permissions and limitations governing your use of this Font Software.
http://scripts.sil.org/OFL
  -->
<path d="M102 76L102 136 361 136 361 76ZM91 347L91 407 372 407 372 347ZM91 480L91 540 372 540 372 480ZM423 864L423 932 785 932 785 864ZM40 208L40 272 426 272 426 208ZM853 44C776 77 643 110 521 134L473 120 473 723 398 735 416 803C499 787 610 766 718 747L713 684 543 712 543 439 711 439C732 705 779 882 887 885 923 886 957 844 975 700 962 694 934 677 921 663 916 750 904 800 887 799 832 796 797 652 779 439L958 439 958 371 774 371C770 300 767 224 766 143 820 130 871 114 913 98ZM543 371L543 190C593 181 645 171 697 160 699 234 702 305 706 371ZM83 614L83 945 151 945 151 896 380 896 380 614ZM151 674L312 674 312 836 151 836Z"/>
</svg>