<svg xmlns="http://www.w3.org/2000/svg" name="gid12112" data-unicode="詇"
    viewBox="0 0 1000 1000">
  <!--
© 2014-2021 Adobe (http://www.adobe.com/).
Noto is a trademark of Google Inc.
This Font Software is licensed under the SIL Open Font License, Version 1.1. This Font Software is distributed on an "AS IS" BASIS, WITHOUT WARRANTIES OR CONDITIONS OF ANY KIND, either express or implied. See the SIL Open Font License for the specific language, permissions and limitations governing your use of this Font Software.
http://scripts.sil.org/OFL
  -->
<path d="M83 343L83 402 355 402 355 343ZM87 75L87 135 352 135 352 75ZM83 476L83 536 355 536 355 476ZM38 206L38 269 394 269 394 206ZM631 50L631 196 441 196 441 512 373 512 373 580 622 580C601 708 539 821 363 903 379 916 403 943 413 959 570 883 643 782 676 666 726 802 807 903 925 961 936 941 958 913 975 898 845 843 761 729 719 580L961 580 961 512 903 512 903 196 701 196 701 50ZM508 512L508 263 631 263 631 435C631 461 630 487 629 512ZM833 512L699 512 701 435 701 263 833 263ZM81 611L81 949 146 949 146 903 358 903 358 611ZM146 674L292 674 292 841 146 841Z"/>
</svg>