<svg xmlns="http://www.w3.org/2000/svg"
    viewBox="0 0 1000 1000">
  <!--
© 2014-2021 Adobe (http://www.adobe.com/).
Noto is a trademark of Google Inc.
This Font Software is licensed under the SIL Open Font License, Version 1.1. This Font Software is distributed on an "AS IS" BASIS, WITHOUT WARRANTIES OR CONDITIONS OF ANY KIND, either express or implied. See the SIL Open Font License for the specific language, permissions and limitations governing your use of this Font Software.
http://scripts.sil.org/OFL
  -->
<path d="M85 313L85 372 378 372 378 313ZM89 45L89 105 374 105 374 45ZM85 446L85 506 378 506 378 446ZM38 176L38 239 408 239 408 176ZM434 153L434 345 506 345 506 220 876 220 876 345 950 345 950 153 727 153 727 11 652 11 652 153ZM853 389C793 438 694 491 596 533L596 320 522 320 522 801C522 894 550 920 650 920 672 920 816 920 839 920 933 920 955 874 965 720 944 715 914 703 896 690 890 824 883 851 835 851 803 851 682 851 656 851 605 851 596 842 596 802L596 601C708 557 828 501 913 444ZM84 581L84 919 150 919 150 873 379 873 379 581ZM150 644L313 644 313 811 150 811Z"/>
</svg>