<svg xmlns="http://www.w3.org/2000/svg" name="gid12121" data-unicode="詔"
    viewBox="0 0 1000 1000">
  <!--
© 2014-2021 Adobe (http://www.adobe.com/).
Noto is a trademark of Google Inc.
This Font Software is licensed under the SIL Open Font License, Version 1.1. This Font Software is distributed on an "AS IS" BASIS, WITHOUT WARRANTIES OR CONDITIONS OF ANY KIND, either express or implied. See the SIL Open Font License for the specific language, permissions and limitations governing your use of this Font Software.
http://scripts.sil.org/OFL
  -->
<path d="M86 348L86 408 379 408 379 348ZM92 75L92 135 377 135 377 75ZM86 485L86 544 379 544 379 485ZM38 209L38 271 411 271 411 209ZM483 550L483 959 555 959 555 914 832 914 832 955 906 955 906 550ZM555 845L555 619 832 619 832 845ZM453 80L453 151 603 151C587 285 547 393 409 454 425 467 446 494 455 512 612 439 659 311 678 151L858 151C850 327 840 394 824 412 816 421 807 423 791 422 774 422 730 422 682 418 694 437 702 465 704 486 751 488 798 489 823 487 852 484 870 477 885 458 912 428 922 343 932 112 932 102 932 80 932 80ZM84 622L84 959 150 959 150 913 382 913 382 622ZM150 684L315 684 315 852 150 852Z"/>
</svg>