<svg xmlns="http://www.w3.org/2000/svg" name="gid12126" data-unicode="詛"
    viewBox="0 0 1000 1000">
  <!--
© 2014-2021 Adobe (http://www.adobe.com/).
Noto is a trademark of Google Inc.
This Font Software is licensed under the SIL Open Font License, Version 1.1. This Font Software is distributed on an "AS IS" BASIS, WITHOUT WARRANTIES OR CONDITIONS OF ANY KIND, either express or implied. See the SIL Open Font License for the specific language, permissions and limitations governing your use of this Font Software.
http://scripts.sil.org/OFL
  -->
<path d="M86 343L86 402 384 402 384 343ZM90 75L90 135 382 135 382 75ZM86 476L86 536 384 536 384 476ZM38 206L38 269 419 269 419 206ZM571 408L811 408 811 597 571 597ZM571 340L571 153 811 153 811 340ZM571 664L811 664 811 855 571 855ZM499 84L499 855 403 855 403 924 973 924 973 855 885 855 885 84ZM84 611L84 949 150 949 150 903 383 903 383 611ZM150 674L317 674 317 841 150 841Z"/>
</svg>