<svg xmlns="http://www.w3.org/2000/svg" name="gid12128" data-unicode="詝"
    viewBox="0 0 1000 1000">
  <!--
© 2014-2021 Adobe (http://www.adobe.com/).
Noto is a trademark of Google Inc.
This Font Software is licensed under the SIL Open Font License, Version 1.1. This Font Software is distributed on an "AS IS" BASIS, WITHOUT WARRANTIES OR CONDITIONS OF ANY KIND, either express or implied. See the SIL Open Font License for the specific language, permissions and limitations governing your use of this Font Software.
http://scripts.sil.org/OFL
  -->
<path d="M83 343L83 402 366 402 366 343ZM88 75L88 135 363 135 363 75ZM83 476L83 536 366 536 366 476ZM39 206L39 269 407 269 407 206ZM431 169L431 357 501 357 501 237 878 237 878 357 950 357 950 169 723 169 723 40 650 40 650 169ZM419 414L419 484 655 484 655 872C655 886 651 889 636 890 620 890 566 890 509 888 519 910 530 940 533 961 608 961 658 960 688 948 720 937 729 916 729 873L729 484 961 484 961 414ZM81 611L81 949 147 949 147 903 369 903 369 611ZM147 674L302 674 302 841 147 841Z"/>
</svg>