<svg xmlns="http://www.w3.org/2000/svg" name="gid12137" data-unicode="詩"
    viewBox="0 0 1000 1000">
  <!--
© 2014-2021 Adobe (http://www.adobe.com/).
Noto is a trademark of Google Inc.
This Font Software is licensed under the SIL Open Font License, Version 1.1. This Font Software is distributed on an "AS IS" BASIS, WITHOUT WARRANTIES OR CONDITIONS OF ANY KIND, either express or implied. See the SIL Open Font License for the specific language, permissions and limitations governing your use of this Font Software.
http://scripts.sil.org/OFL
  -->
<path d="M467 659C507 712 551 783 569 828L634 799C615 753 569 684 528 633ZM83 349L83 408 367 408 367 349ZM87 75L87 135 364 135 364 75ZM83 485L83 545 367 545 367 485ZM38 209L38 272 393 272 393 209ZM643 39L643 158 445 158 445 226 643 226 643 350 399 350 399 420 765 420 765 529 405 529 405 597 765 597 765 870C765 885 761 889 745 889 729 890 675 891 615 889 625 908 637 938 641 958 718 958 768 957 799 947 830 935 838 914 838 872L838 597 952 597 952 529 838 529 838 420 965 420 965 350 718 350 718 226 927 226 927 158 718 158 718 39ZM82 623L82 957 146 957 146 915 368 915 368 623ZM146 685L303 685 303 853 146 853Z"/>
</svg>