<svg xmlns="http://www.w3.org/2000/svg" name="gid12142" data-unicode="詰"
    viewBox="0 0 1000 1000">
  <!--
© 2014-2021 Adobe (http://www.adobe.com/).
Noto is a trademark of Google Inc.
This Font Software is licensed under the SIL Open Font License, Version 1.1. This Font Software is distributed on an "AS IS" BASIS, WITHOUT WARRANTIES OR CONDITIONS OF ANY KIND, either express or implied. See the SIL Open Font License for the specific language, permissions and limitations governing your use of this Font Software.
http://scripts.sil.org/OFL
  -->
<path d="M86 348L86 408 384 408 384 348ZM90 75L90 135 382 135 382 75ZM86 485L86 544 384 544 384 485ZM38 209L38 271 417 271 417 209ZM657 39L657 174 436 174 436 244 657 244 657 402 463 402 463 471 941 471 941 402 734 402 734 244 960 244 960 174 734 174 734 39ZM489 576L489 959 560 959 560 916 842 916 842 955 915 955 915 576ZM560 848L560 644 842 644 842 848ZM84 622L84 959 150 959 150 913 385 913 385 622ZM150 684L319 684 319 852 150 852Z"/>
</svg>