<svg xmlns="http://www.w3.org/2000/svg" name="gid12152" data-unicode="詼"
    viewBox="0 0 1000 1000">
  <!--
© 2014-2021 Adobe (http://www.adobe.com/).
Noto is a trademark of Google Inc.
This Font Software is licensed under the SIL Open Font License, Version 1.1. This Font Software is distributed on an "AS IS" BASIS, WITHOUT WARRANTIES OR CONDITIONS OF ANY KIND, either express or implied. See the SIL Open Font License for the specific language, permissions and limitations governing your use of this Font Software.
http://scripts.sil.org/OFL
  -->
<path d="M749 282L715 282 715 540C715 603 688 797 505 904 519 919 537 945 546 961 685 876 738 731 748 667 758 729 804 880 930 961 940 943 959 916 972 901 808 797 783 602 783 540L783 282ZM898 386C882 453 851 552 825 611L875 631C900 574 932 483 958 409ZM609 394C600 473 580 563 542 615L591 645C633 587 651 491 660 408ZM83 343L83 402 367 402 367 343ZM87 75L87 135 364 135 364 75ZM83 476L83 536 367 536 367 476ZM38 206L38 269 393 269 393 206ZM82 611L82 949 146 949 146 903 355 903 350 912C369 921 397 940 410 952 535 747 548 470 548 270L548 236 961 236 961 166 548 166 548 58 478 58 478 166 409 166 409 236 478 236 478 271C478 445 469 689 368 880L368 611ZM146 674L303 674 303 841 146 841Z"/>
</svg>