<svg xmlns="http://www.w3.org/2000/svg"
    viewBox="0 0 1000 1000">
  <!--
© 2014-2021 Adobe (http://www.adobe.com/).
Noto is a trademark of Google Inc.
This Font Software is licensed under the SIL Open Font License, Version 1.1. This Font Software is distributed on an "AS IS" BASIS, WITHOUT WARRANTIES OR CONDITIONS OF ANY KIND, either express or implied. See the SIL Open Font License for the specific language, permissions and limitations governing your use of this Font Software.
http://scripts.sil.org/OFL
  -->
<path d="M83 313L83 372 367 372 367 313ZM87 45L87 105 364 105 364 45ZM83 446L83 506 367 506 367 446ZM38 176L38 239 393 239 393 176ZM510 202C582 228 667 268 729 305L437 305 437 928 504 928 504 699 645 699 645 918 711 918 711 699 858 699 858 845C858 856 854 859 843 859 832 860 797 860 757 859 767 878 779 909 782 929 836 929 872 927 896 916 921 903 927 880 927 845L927 305 804 305 823 281C802 266 774 249 743 233 808 190 874 133 919 77L872 44 857 48 446 48 446 112 795 112C762 144 720 177 679 202 637 182 592 164 552 151ZM504 534L645 534 645 636 504 636ZM504 470L504 370 645 370 645 470ZM858 534L858 636 711 636 711 534ZM858 470L711 470 711 370 858 370ZM82 581L82 919 146 919 146 873 368 873 368 581ZM146 644L303 644 303 811 146 811Z"/>
</svg>