<svg xmlns="http://www.w3.org/2000/svg" name="gid12186" data-unicode="誨"
    viewBox="0 0 1000 1000">
  <!--
© 2014-2021 Adobe (http://www.adobe.com/).
Noto is a trademark of Google Inc.
This Font Software is licensed under the SIL Open Font License, Version 1.1. This Font Software is distributed on an "AS IS" BASIS, WITHOUT WARRANTIES OR CONDITIONS OF ANY KIND, either express or implied. See the SIL Open Font License for the specific language, permissions and limitations governing your use of this Font Software.
http://scripts.sil.org/OFL
  -->
<path d="M598 411C641 438 688 480 710 510L757 476C735 445 686 405 643 379ZM581 638C626 671 677 719 699 753L748 719C724 685 673 638 627 607ZM81 343L81 402 351 402 351 343ZM87 75L87 135 348 135 348 75ZM81 476L81 536 351 536 351 476ZM38 206L38 269 381 269 381 206ZM829 358L824 523 537 523 555 358ZM493 297C487 365 479 444 469 523L378 523 378 585 461 585C448 685 434 781 421 852L491 857 496 824 801 824C795 857 789 876 781 885 772 898 761 900 744 900 724 900 675 900 620 896 631 913 638 940 640 959 691 962 743 963 773 960 804 957 825 949 844 923 857 907 866 878 873 824L955 824 955 762 880 762C884 716 888 658 891 585L967 585 967 523 893 523 899 333C900 323 900 297 900 297ZM809 762L506 762 529 585 821 585C818 660 814 718 809 762ZM521 40C489 149 433 255 367 325 384 335 414 358 427 369 463 327 498 273 529 213L951 213 951 146 560 146C572 117 583 87 593 57ZM80 611L80 949 144 949 144 902 352 902 352 611ZM144 673L288 673 288 840 144 840Z"/>
</svg>