<svg xmlns="http://www.w3.org/2000/svg" name="gid12198" data-unicode="誹"
    viewBox="0 0 1000 1000">
  <!--
© 2014-2021 Adobe (http://www.adobe.com/).
Noto is a trademark of Google Inc.
This Font Software is licensed under the SIL Open Font License, Version 1.1. This Font Software is distributed on an "AS IS" BASIS, WITHOUT WARRANTIES OR CONDITIONS OF ANY KIND, either express or implied. See the SIL Open Font License for the specific language, permissions and limitations governing your use of this Font Software.
http://scripts.sil.org/OFL
  -->
<path d="M81 343L81 402 351 402 351 343ZM87 75L87 135 348 135 348 75ZM81 476L81 536 351 536 351 476ZM38 206L38 269 374 269 374 206ZM363 662L383 727C428 716 479 701 531 686 511 776 466 851 372 912 389 924 414 949 425 965 543 886 590 785 607 664L665 647 658 588 614 600C616 566 617 531 617 495L617 47 548 47 548 211 398 211 398 279 548 279 548 419 401 419 401 486 548 486 548 495C548 538 547 579 543 618 475 636 411 652 363 662ZM713 47L713 959 785 959 785 699 962 699 962 630 785 630 785 486 941 486 941 419 785 419 785 279 950 279 950 211 785 211 785 47ZM80 611L80 949 144 949 144 902 352 902 352 611ZM144 673L288 673 288 840 144 840Z"/>
</svg>