<svg xmlns="http://www.w3.org/2000/svg"
    viewBox="0 0 1000 1000">
  <!--
© 2014-2021 Adobe (http://www.adobe.com/).
Noto is a trademark of Google Inc.
This Font Software is licensed under the SIL Open Font License, Version 1.1. This Font Software is distributed on an "AS IS" BASIS, WITHOUT WARRANTIES OR CONDITIONS OF ANY KIND, either express or implied. See the SIL Open Font License for the specific language, permissions and limitations governing your use of this Font Software.
http://scripts.sil.org/OFL
  -->
<path d="M79 313L79 372 336 372 336 313ZM86 45L86 105 334 105 334 45ZM79 446L79 506 336 506 336 446ZM38 176L38 239 362 239 362 176ZM636 137L636 223 533 223 533 282 636 282 636 377 524 377 524 436 818 436 818 377 697 377 697 282 804 282 804 223 697 223 697 137ZM413 52L413 411C413 559 406 756 328 895 344 903 375 924 387 936 470 789 481 567 481 411L481 117 860 117 860 835C860 851 855 855 840 856 824 856 772 857 717 855 727 875 737 910 740 929 814 929 865 928 892 916 921 903 930 880 930 835L930 52ZM539 512L539 811 596 811 596 771 798 771 798 512ZM596 570L740 570 740 713 596 713ZM78 581L78 919 140 919 140 872 335 872 335 581ZM140 643L273 643 273 810 140 810Z"/>
</svg>