<svg xmlns="http://www.w3.org/2000/svg" name="gid12212" data-unicode="諌"
    viewBox="0 0 1000 1000">
  <!--
© 2014-2021 Adobe (http://www.adobe.com/).
Noto is a trademark of Google Inc.
This Font Software is licensed under the SIL Open Font License, Version 1.1. This Font Software is distributed on an "AS IS" BASIS, WITHOUT WARRANTIES OR CONDITIONS OF ANY KIND, either express or implied. See the SIL Open Font License for the specific language, permissions and limitations governing your use of this Font Software.
http://scripts.sil.org/OFL
  -->
<path d="M83 343L83 402 367 402 367 343ZM87 75L87 135 364 135 364 75ZM83 476L83 536 367 536 367 476ZM38 206L38 269 393 269 393 206ZM406 142L406 208 641 208 641 284 437 284 437 624 592 624C540 718 451 814 368 862 386 876 408 901 419 920 500 865 586 769 641 672L641 960 713 960 713 670C769 766 849 861 921 916 933 898 957 873 974 860 899 809 814 716 761 624L919 624 919 284 713 284 713 208 951 208 951 142 713 142 713 41 641 41 641 142ZM503 481L641 481 641 567 503 567ZM713 481L851 481 851 567 713 567ZM503 340L641 340 641 425 503 425ZM713 340L851 340 851 425 713 425ZM82 611L82 949 146 949 146 903 368 903 368 611ZM146 674L303 674 303 841 146 841Z"/>
</svg>