<svg xmlns="http://www.w3.org/2000/svg"
    viewBox="0 0 1000 1000">
  <!--
© 2014-2021 Adobe (http://www.adobe.com/).
Noto is a trademark of Google Inc.
This Font Software is licensed under the SIL Open Font License, Version 1.1. This Font Software is distributed on an "AS IS" BASIS, WITHOUT WARRANTIES OR CONDITIONS OF ANY KIND, either express or implied. See the SIL Open Font License for the specific language, permissions and limitations governing your use of this Font Software.
http://scripts.sil.org/OFL
  -->
<path d="M204 667L204 710 796 710 796 667ZM204 586L204 630 796 630 796 586ZM46 504L46 550 955 550 955 504ZM222 424L222 468 779 468 779 424ZM432 85L793 85 793 146 432 146ZM363 36L363 195 865 195 865 36ZM573 219L573 393 639 393 639 219ZM391 213L391 260C391 297 379 342 276 367 292 379 312 404 321 420 441 384 458 320 458 262L458 213ZM757 213L757 313C757 360 762 374 775 387 788 399 809 403 827 403 837 403 861 403 871 403 885 403 904 401 914 395 926 390 935 381 941 368 947 355 950 319 951 285 934 280 912 269 900 258 899 290 898 315 896 326 894 336 890 343 885 345 882 347 875 348 867 348 860 348 848 348 842 348 836 348 831 347 828 344 825 341 824 332 824 319L824 213ZM194 747L194 930 265 930 265 904 733 904 733 929 807 929 807 747ZM265 858L265 793 733 793 733 858ZM260 12C211 106 125 195 39 252 52 265 74 295 82 308 114 285 146 257 177 226L177 413 246 413 246 148C275 111 301 73 322 33Z"/>
</svg>