<svg xmlns="http://www.w3.org/2000/svg" name="gid12217" data-unicode="諒"
    viewBox="0 0 1000 1000">
  <!--
© 2014-2021 Adobe (http://www.adobe.com/).
Noto is a trademark of Google Inc.
This Font Software is licensed under the SIL Open Font License, Version 1.1. This Font Software is distributed on an "AS IS" BASIS, WITHOUT WARRANTIES OR CONDITIONS OF ANY KIND, either express or implied. See the SIL Open Font License for the specific language, permissions and limitations governing your use of this Font Software.
http://scripts.sil.org/OFL
  -->
<path d="M544 378L838 378 838 518 544 518ZM500 645C476 719 434 793 386 843 404 852 434 872 447 883 494 829 542 745 570 663ZM799 668C841 737 885 828 901 884L967 853C950 797 904 709 860 643ZM85 343L85 402 378 402 378 343ZM89 75L89 135 374 135 374 75ZM85 476L85 536 378 536 378 476ZM38 206L38 269 406 269 406 206ZM652 39L652 160 415 160 415 229 963 229 963 160 728 160 728 39ZM474 312L474 583 653 583 653 875C653 887 650 890 637 890 623 891 581 891 533 890 543 910 553 939 556 960 620 960 663 959 691 948 719 936 726 915 726 876L726 583 912 583 912 312ZM84 611L84 949 150 949 150 903 379 903 379 611ZM150 674L313 674 313 841 150 841Z"/>
</svg>