<svg xmlns="http://www.w3.org/2000/svg" name="gid12222" data-unicode="諗"
    viewBox="0 0 1000 1000">
  <!--
© 2014-2021 Adobe (http://www.adobe.com/).
Noto is a trademark of Google Inc.
This Font Software is licensed under the SIL Open Font License, Version 1.1. This Font Software is distributed on an "AS IS" BASIS, WITHOUT WARRANTIES OR CONDITIONS OF ANY KIND, either express or implied. See the SIL Open Font License for the specific language, permissions and limitations governing your use of this Font Software.
http://scripts.sil.org/OFL
  -->
<path d="M528 665L528 864C528 933 546 953 623 953 638 953 720 953 736 953 796 953 816 927 822 821 803 817 775 807 761 795 758 879 753 890 729 890 711 890 645 890 632 890 602 890 598 887 598 863L598 665ZM432 683C418 754 390 840 348 890L407 921C451 867 477 778 493 703ZM544 598C603 632 671 689 706 730L753 683C720 645 651 591 590 556ZM785 701C837 765 888 854 908 914L969 880C948 819 897 733 841 670ZM82 343L82 402 337 402 337 343ZM85 75L85 135 334 135 334 75ZM82 476L82 536 337 536 337 476ZM38 206L38 269 377 269 377 206ZM808 259L517 259 517 320 808 320ZM660 106C724 192 837 288 937 347 947 327 963 301 976 284 873 233 762 139 690 42L624 42C571 131 463 231 355 289 367 305 384 331 391 349 434 324 477 293 517 259 576 210 627 155 660 106ZM430 394L430 456 797 456C773 506 743 569 715 619L780 637C818 565 862 476 891 405L842 390 830 394ZM78 611L78 949 144 949 144 903 341 903 341 611ZM144 674L276 674 276 841 144 841Z"/>
</svg>