<svg xmlns="http://www.w3.org/2000/svg" name="gid12230" data-unicode="諡"
    viewBox="0 0 1000 1000">
  <!--
© 2014-2021 Adobe (http://www.adobe.com/).
Noto is a trademark of Google Inc.
This Font Software is licensed under the SIL Open Font License, Version 1.1. This Font Software is distributed on an "AS IS" BASIS, WITHOUT WARRANTIES OR CONDITIONS OF ANY KIND, either express or implied. See the SIL Open Font License for the specific language, permissions and limitations governing your use of this Font Software.
http://scripts.sil.org/OFL
  -->
<path d="M79 343L79 402 336 402 336 343ZM86 75L86 135 334 135 334 75ZM79 476L79 536 336 536 336 476ZM38 206L38 269 362 269 362 206ZM494 100C465 167 414 233 358 277 373 287 401 309 413 319 440 296 467 267 491 235L491 287 540 287C521 340 495 399 473 441L541 453 559 414 771 414C762 481 752 512 739 523 732 531 723 531 707 531 692 531 648 531 605 526 615 544 623 570 624 588 670 591 714 591 736 590 763 588 781 583 797 567 820 547 834 497 847 386 849 375 850 355 850 355L584 355 612 287 828 287 828 229C853 260 879 288 906 310 919 294 947 272 965 261 906 220 842 144 810 67L569 67 569 131 764 131C782 165 803 198 827 228L496 228C522 194 544 156 561 117ZM430 598L430 860 356 860 356 926 960 926 960 860 905 860 905 598ZM492 860L492 658 571 658 571 860ZM625 860L625 658 705 658 705 860ZM758 860L758 658 841 658 841 860ZM78 611L78 949 140 949 140 902 335 902 335 611ZM140 673L273 673 273 840 140 840Z"/>
</svg>