<svg xmlns="http://www.w3.org/2000/svg"
    viewBox="0 0 1000 1000">
  <!--
© 2014-2021 Adobe (http://www.adobe.com/).
Noto is a trademark of Google Inc.
This Font Software is licensed under the SIL Open Font License, Version 1.1. This Font Software is distributed on an "AS IS" BASIS, WITHOUT WARRANTIES OR CONDITIONS OF ANY KIND, either express or implied. See the SIL Open Font License for the specific language, permissions and limitations governing your use of this Font Software.
http://scripts.sil.org/OFL
  -->
<path d="M371 386L403 444C457 416 519 382 578 349L562 294C490 330 420 365 371 386ZM396 79C440 113 489 164 512 199L562 158C538 122 488 74 442 41ZM81 313L81 372 351 372 351 313ZM87 45L87 105 348 105 348 45ZM81 446L81 506 351 506 351 446ZM38 176L38 239 381 239 381 176ZM644 10C619 104 576 196 520 257 537 266 565 285 578 295 605 263 631 223 653 178L708 178 708 241C708 283 689 406 498 473 511 487 528 511 536 527 675 478 732 382 744 335 757 382 809 482 932 527 941 511 960 485 972 470 800 409 780 284 780 241L780 178 884 178C874 215 862 252 852 279L907 292C926 250 947 183 964 124L919 113 908 115 680 115C692 86 702 55 710 24ZM462 555L462 932 533 932 533 882 819 882 819 928 892 928 892 555ZM533 814L533 622 819 622 819 814ZM80 581L80 919 144 919 144 872 352 872 352 581ZM144 643L288 643 288 810 144 810Z"/>
</svg>