<svg xmlns="http://www.w3.org/2000/svg"
    viewBox="0 0 1000 1000">
  <!--
© 2014-2021 Adobe (http://www.adobe.com/).
Noto is a trademark of Google Inc.
This Font Software is licensed under the SIL Open Font License, Version 1.1. This Font Software is distributed on an "AS IS" BASIS, WITHOUT WARRANTIES OR CONDITIONS OF ANY KIND, either express or implied. See the SIL Open Font License for the specific language, permissions and limitations governing your use of this Font Software.
http://scripts.sil.org/OFL
  -->
<path d="M78 313L78 372 322 372 322 313ZM84 45L84 105 320 105 320 45ZM78 446L78 506 322 506 322 446ZM38 176L38 239 347 239 347 176ZM76 581L76 919 137 919 137 872 318 872 309 890C323 896 351 918 361 930 441 785 452 565 452 413L452 112 822 112C821 580 817 906 900 931 945 944 968 912 979 775 969 765 951 742 940 724 936 794 929 860 923 859 884 846 886 511 891 51L388 51 388 413C388 547 383 724 324 859L324 581ZM496 335L496 629 603 629 603 780 449 791 458 855 759 823C768 855 776 885 781 910L825 893C812 831 779 737 746 664L705 679C717 707 730 738 741 769L661 775 661 629 778 629 778 335 663 335 663 232C709 225 753 216 788 205L746 152C681 173 566 189 470 200 478 215 486 237 489 252 525 249 565 246 604 241L604 335ZM539 394L613 394 613 570 539 570ZM654 394L734 394 734 570 654 570ZM137 643L262 643 262 810 137 810Z"/>
</svg>