<svg xmlns="http://www.w3.org/2000/svg"
    viewBox="0 0 1000 1000">
  <!--
© 2014-2021 Adobe (http://www.adobe.com/).
Noto is a trademark of Google Inc.
This Font Software is licensed under the SIL Open Font License, Version 1.1. This Font Software is distributed on an "AS IS" BASIS, WITHOUT WARRANTIES OR CONDITIONS OF ANY KIND, either express or implied. See the SIL Open Font License for the specific language, permissions and limitations governing your use of this Font Software.
http://scripts.sil.org/OFL
  -->
<path d="M524 389L524 434 782 434 782 389ZM455 572L455 615 848 615 848 572ZM455 660L455 703 848 703 848 660ZM595 10C587 59 577 105 563 147L379 147 379 204 543 204C532 230 520 255 506 278L346 278 346 337 465 337C428 384 383 423 328 454L328 47 95 47 95 406C95 554 91 755 30 897 46 903 74 918 86 929 126 833 144 709 152 591L263 591 263 847C263 860 259 864 248 864 236 864 202 865 162 863 171 882 179 912 182 929 239 930 275 928 297 917 320 905 328 884 328 847L328 457C342 470 362 498 370 511 388 500 404 489 420 476L420 528 882 528 882 475 422 475C472 436 514 390 548 337L759 337C804 407 860 466 924 502 935 485 955 461 971 448 921 424 876 385 837 337L956 337 956 278 796 278C782 254 769 229 759 204L920 204 920 147 810 147C829 117 849 75 871 35L800 14C789 48 767 98 750 130L797 147 633 147C645 107 654 64 662 18ZM434 747L434 931 503 931 503 902 795 902 795 931 866 931 866 747ZM503 857L503 792 795 792 795 857ZM157 115L263 115 263 281 157 281ZM157 350L263 350 263 521 155 521 157 406ZM693 204C703 229 713 254 725 278L582 278C594 255 604 230 614 204ZM406 38C426 72 445 117 452 147L512 126C504 96 484 53 462 20Z"/>
</svg>