<svg xmlns="http://www.w3.org/2000/svg"
    viewBox="0 0 1000 1000">
  <!--
© 2014-2021 Adobe (http://www.adobe.com/).
Noto is a trademark of Google Inc.
This Font Software is licensed under the SIL Open Font License, Version 1.1. This Font Software is distributed on an "AS IS" BASIS, WITHOUT WARRANTIES OR CONDITIONS OF ANY KIND, either express or implied. See the SIL Open Font License for the specific language, permissions and limitations governing your use of this Font Software.
http://scripts.sil.org/OFL
  -->
<path d="M81 313L81 372 351 372 351 313ZM87 45L87 105 348 105 348 45ZM81 446L81 506 351 506 351 446ZM38 176L38 239 381 239 381 176ZM797 624C768 671 728 712 680 746 635 711 599 670 572 624ZM593 475C548 567 465 649 374 701 390 712 416 738 426 750 460 728 494 701 526 671 552 712 584 750 621 783 543 826 452 855 361 871 375 886 390 914 397 931 496 910 593 876 677 826 747 875 831 911 926 932 936 913 955 885 970 870 883 854 804 825 737 785 805 733 860 667 894 585L848 563 835 566 616 566C633 543 647 518 660 493ZM502 219L635 219 635 291 502 291ZM701 219L841 219 841 291 701 291ZM502 98L635 98 635 168 502 168ZM701 98L841 98 841 168 701 168ZM434 45L434 344 537 344C518 419 456 462 369 487 382 499 403 526 411 540 512 505 584 445 608 344L702 344 702 430C702 493 718 511 788 511 802 511 870 511 884 511 938 511 956 488 963 395 944 391 917 381 904 371 901 444 898 451 876 451 861 451 807 451 796 451 772 451 768 449 768 430L768 344 911 344 911 45ZM80 581L80 919 144 919 144 872 352 872 352 581ZM144 643L288 643 288 810 144 810Z"/>
</svg>