<svg xmlns="http://www.w3.org/2000/svg" name="gid12267" data-unicode="謖"
    viewBox="0 0 1000 1000">
  <!--
© 2014-2021 Adobe (http://www.adobe.com/).
Noto is a trademark of Google Inc.
This Font Software is licensed under the SIL Open Font License, Version 1.1. This Font Software is distributed on an "AS IS" BASIS, WITHOUT WARRANTIES OR CONDITIONS OF ANY KIND, either express or implied. See the SIL Open Font License for the specific language, permissions and limitations governing your use of this Font Software.
http://scripts.sil.org/OFL
  -->
<path d="M81 343L81 402 351 402 351 343ZM87 75L87 135 348 135 348 75ZM81 476L81 536 351 536 351 476ZM38 206L38 269 381 269 381 206ZM797 654C768 701 728 742 680 776 635 741 599 700 572 654ZM593 505C548 597 465 679 374 731 390 742 416 768 426 780 460 758 494 731 526 701 552 742 584 780 621 813 543 856 452 885 361 901 375 916 390 944 397 961 496 940 593 906 677 856 747 905 831 941 926 962 936 943 955 915 970 900 883 884 804 855 737 815 805 763 860 697 894 615L848 593 835 596 616 596C633 573 647 548 660 523ZM502 249L635 249 635 321 502 321ZM701 249L841 249 841 321 701 321ZM502 128L635 128 635 198 502 198ZM701 128L841 128 841 198 701 198ZM434 75L434 374 537 374C518 449 456 492 369 517 382 529 403 556 411 570 512 535 584 475 608 374L702 374 702 460C702 523 718 541 788 541 802 541 870 541 884 541 938 541 956 518 963 425 944 421 917 411 904 401 901 474 898 481 876 481 861 481 807 481 796 481 772 481 768 479 768 460L768 374 911 374 911 75ZM80 611L80 949 144 949 144 902 352 902 352 611ZM144 673L288 673 288 840 144 840Z"/>
</svg>