<svg xmlns="http://www.w3.org/2000/svg" name="gid12271" data-unicode="講"
    viewBox="0 0 1000 1000">
  <!--
© 2014-2021 Adobe (http://www.adobe.com/).
Noto is a trademark of Google Inc.
This Font Software is licensed under the SIL Open Font License, Version 1.1. This Font Software is distributed on an "AS IS" BASIS, WITHOUT WARRANTIES OR CONDITIONS OF ANY KIND, either express or implied. See the SIL Open Font License for the specific language, permissions and limitations governing your use of this Font Software.
http://scripts.sil.org/OFL
  -->
<path d="M82 348L82 408 348 408 348 348ZM87 75L87 135 344 135 344 75ZM82 485L82 544 348 544 348 485ZM38 209L38 271 374 271 374 209ZM441 486L441 740 380 740 380 802 441 802 441 960 506 960 506 802 839 802 839 883C839 895 835 899 822 900 809 901 764 901 715 899 724 917 732 942 735 960 802 960 847 959 874 950 900 939 908 921 908 884L908 802 964 802 964 740 908 740 908 486 702 486 702 429 962 429 962 369 824 369 824 302 928 302 928 245 824 245 824 183 948 183 948 126 824 126 824 40 755 40 755 126 595 126 595 40 527 40 527 126 408 126 408 183 527 183 527 245 428 245 428 302 527 302 527 369 381 369 381 429 638 429 638 486ZM595 183L755 183 755 245 595 245ZM595 369L595 302 755 302 755 369ZM638 740L506 740 506 668 638 668ZM702 740L702 668 839 668 839 740ZM638 617L506 617 506 542 638 542ZM702 617L702 542 839 542 839 617ZM80 622L80 959 144 959 144 913 352 913 352 622ZM144 684L287 684 287 852 144 852Z"/>
</svg>