<svg xmlns="http://www.w3.org/2000/svg" name="gid12273" data-unicode="謝"
    viewBox="0 0 1000 1000">
  <!--
© 2014-2021 Adobe (http://www.adobe.com/).
Noto is a trademark of Google Inc.
This Font Software is licensed under the SIL Open Font License, Version 1.1. This Font Software is distributed on an "AS IS" BASIS, WITHOUT WARRANTIES OR CONDITIONS OF ANY KIND, either express or implied. See the SIL Open Font License for the specific language, permissions and limitations governing your use of this Font Software.
http://scripts.sil.org/OFL
  -->
<path d="M684 454C712 533 735 634 739 700L798 686C792 620 769 519 739 441ZM78 343L78 402 316 402 316 343ZM83 75L83 135 314 135 314 75ZM78 476L78 536 316 536 316 476ZM38 206L38 269 338 269 338 206ZM575 562L442 588 442 481 575 481ZM486 39C480 67 470 108 459 141L380 141 380 599 332 607 348 669 532 630C471 709 396 777 317 825 332 839 356 868 366 882 440 831 512 762 575 684L575 879C575 892 570 897 557 898 544 898 501 898 451 896 462 914 472 943 476 961 540 961 579 959 604 948 629 937 638 916 638 879L638 596C655 569 671 542 685 514L638 499 638 141 526 141 559 53ZM838 48L838 287 659 287 659 358 838 358 838 874C838 889 832 893 819 893 805 894 760 894 710 892 720 913 730 944 733 963 802 963 844 961 871 949 897 937 907 917 907 873L907 358 963 358 963 287 907 287 907 48ZM76 611L76 949 136 949 136 902 317 902 317 611ZM136 673L255 673 255 840 136 840ZM575 339L575 423 442 423 442 339ZM575 281L442 281 442 199 575 199Z"/>
</svg>