<svg xmlns="http://www.w3.org/2000/svg"
    viewBox="0 0 1000 1000">
  <!--
© 2014-2021 Adobe (http://www.adobe.com/).
Noto is a trademark of Google Inc.
This Font Software is licensed under the SIL Open Font License, Version 1.1. This Font Software is distributed on an "AS IS" BASIS, WITHOUT WARRANTIES OR CONDITIONS OF ANY KIND, either express or implied. See the SIL Open Font License for the specific language, permissions and limitations governing your use of this Font Software.
http://scripts.sil.org/OFL
  -->
<path d="M519 361L824 361 824 444 519 444ZM83 313L83 372 351 372 351 313ZM87 45L87 105 348 105 348 45ZM83 446L83 506 351 506 351 446ZM38 176L38 239 390 239 390 176ZM629 10L629 83 403 83 403 140 629 140 629 205 436 205 436 261 913 261 913 205 702 205 702 140 945 140 945 83 702 83 702 10ZM511 504C524 529 536 562 544 587L384 587 384 645 960 645 960 587 797 587 840 503 817 497 893 497 893 309 452 309 452 497 539 497ZM596 587L610 583C605 561 590 526 576 497L770 497C761 525 745 561 733 587ZM446 696L446 930 512 930 512 902 832 902 832 927 900 927 900 696ZM512 845L512 752 832 752 832 845ZM81 581L81 919 146 919 146 873 356 873 356 581ZM146 644L290 644 290 811 146 811Z"/>
</svg>