<svg xmlns="http://www.w3.org/2000/svg"
    viewBox="0 0 1000 1000">
  <!--
© 2014-2021 Adobe (http://www.adobe.com/).
Noto is a trademark of Google Inc.
This Font Software is licensed under the SIL Open Font License, Version 1.1. This Font Software is distributed on an "AS IS" BASIS, WITHOUT WARRANTIES OR CONDITIONS OF ANY KIND, either express or implied. See the SIL Open Font License for the specific language, permissions and limitations governing your use of this Font Software.
http://scripts.sil.org/OFL
  -->
<path d="M81 313L81 372 346 372 346 313ZM87 45L87 105 342 105 342 45ZM81 446L81 506 346 506 346 446ZM38 176L38 239 373 239 373 176ZM576 346L765 346 765 429 576 429ZM80 581L80 919 144 919 144 872 348 872 348 581ZM144 643L285 643 285 810 144 810ZM723 237C735 257 749 277 764 296L575 296C590 277 603 257 615 237ZM856 24C757 48 572 61 421 66 428 80 436 103 438 118 488 117 542 115 596 112 590 133 582 155 572 176L395 176 395 237 537 237C497 295 440 350 362 392 377 402 398 425 408 441 448 418 483 392 513 364L513 479 831 479 831 367C862 395 895 419 928 437 939 420 960 396 975 383 909 354 840 298 793 237L950 237 950 176 645 176C655 153 663 130 669 107 757 100 840 89 903 74ZM415 530L415 929 482 929 482 590 863 590 863 855C863 864 860 867 850 868 841 868 810 868 773 867 783 885 792 910 796 928 846 928 880 928 902 917 925 906 931 888 931 856L931 530ZM547 640L547 872 604 872 604 827 794 827 794 640ZM604 690L737 690 737 778 604 778Z"/>
</svg>