<svg xmlns="http://www.w3.org/2000/svg" name="gid12304" data-unicode="譔"
    viewBox="0 0 1000 1000">
  <!--
© 2014-2021 Adobe (http://www.adobe.com/).
Noto is a trademark of Google Inc.
This Font Software is licensed under the SIL Open Font License, Version 1.1. This Font Software is distributed on an "AS IS" BASIS, WITHOUT WARRANTIES OR CONDITIONS OF ANY KIND, either express or implied. See the SIL Open Font License for the specific language, permissions and limitations governing your use of this Font Software.
http://scripts.sil.org/OFL
  -->
<path d="M369 206L38 206 38 269 369 269ZM343 476L81 476 81 536 343 536ZM340 75L87 75 87 135 340 135ZM343 343L81 343 81 402 343 402ZM793 788L736 822C796 863 871 924 908 962L969 924C929 885 852 828 793 788ZM610 811L540 790C499 838 427 885 357 916 374 927 402 951 414 965 484 929 563 871 610 811ZM346 611L80 611 80 949 144 949 144 902 346 902ZM144 673L283 673 283 840 144 840ZM752 333L752 265 934 265 934 75 691 75 691 333C691 400 710 416 777 416 791 416 873 416 887 416 940 416 958 394 965 314 947 309 923 301 909 290 906 349 902 359 880 359 863 359 797 359 785 359 756 359 752 354 752 333ZM752 128L876 128 876 213 752 213ZM460 333L460 264 643 264 643 75 399 75 399 333C399 400 418 416 484 416 498 416 575 416 589 416 640 416 658 394 665 314 647 310 622 300 610 291 607 350 603 359 581 359 566 359 503 359 492 359 464 359 460 355 460 333ZM460 128L585 128 585 211 460 211ZM750 702L594 702 594 590 750 590ZM946 526L820 526 820 438 750 438 750 526 594 526 594 437 525 437 525 526 401 526 401 590 525 590 525 702 371 702 371 767 964 767 964 702 820 702 820 590 946 590Z"/>
</svg>