<svg xmlns="http://www.w3.org/2000/svg" name="gid12306" data-unicode="識"
    viewBox="0 0 1000 1000">
  <!--
© 2014-2021 Adobe (http://www.adobe.com/).
Noto is a trademark of Google Inc.
This Font Software is licensed under the SIL Open Font License, Version 1.1. This Font Software is distributed on an "AS IS" BASIS, WITHOUT WARRANTIES OR CONDITIONS OF ANY KIND, either express or implied. See the SIL Open Font License for the specific language, permissions and limitations governing your use of this Font Software.
http://scripts.sil.org/OFL
  -->
<path d="M401 230C417 277 428 337 428 376L487 363C485 324 472 264 454 219ZM798 111C841 165 883 239 898 290L960 264C942 213 899 140 855 87ZM588 214C581 258 566 324 554 365L607 377C621 339 636 279 652 226ZM78 343L78 402 322 402 322 343ZM84 75L84 135 320 135 320 75ZM78 476L78 536 322 536 322 476ZM38 206L38 269 347 269 347 206ZM598 698L598 783 446 783 446 698ZM598 643L446 643 446 561 598 561ZM491 40L491 149 360 149 360 209 688 209 688 149 560 149 560 40ZM865 487C848 548 826 604 798 655 791 594 786 523 783 443L951 443 951 380 780 380C778 279 777 165 778 41L711 41C712 164 713 278 717 380L333 380 333 443 719 443C724 558 732 657 746 737 720 772 692 804 662 833L662 506 386 506 386 893 446 893 446 839 655 839C624 868 591 892 556 913 570 924 590 944 600 956 659 919 714 872 763 815 789 908 828 961 888 964 923 965 956 926 975 787 963 780 937 762 925 747 919 830 907 882 890 881 855 878 831 832 813 750 860 683 898 605 925 518ZM76 611L76 949 137 949 137 902 324 902 324 611ZM137 673L262 673 262 840 137 840Z"/>
</svg>