<svg xmlns="http://www.w3.org/2000/svg" name="gid12307" data-unicode="譙"
    viewBox="0 0 1000 1000">
  <!--
© 2014-2021 Adobe (http://www.adobe.com/).
Noto is a trademark of Google Inc.
This Font Software is licensed under the SIL Open Font License, Version 1.1. This Font Software is distributed on an "AS IS" BASIS, WITHOUT WARRANTIES OR CONDITIONS OF ANY KIND, either express or implied. See the SIL Open Font License for the specific language, permissions and limitations governing your use of this Font Software.
http://scripts.sil.org/OFL
  -->
<path d="M439 730C422 797 390 878 345 926L404 959C452 907 481 822 500 752ZM547 750C560 813 569 895 570 944L635 934C634 887 622 806 607 744ZM676 751C702 812 725 894 732 944L796 927C788 878 763 799 737 739ZM808 747C850 813 892 901 906 957L970 930C955 873 912 788 869 724ZM82 343L82 402 337 402 337 343ZM85 75L85 135 334 135 334 75ZM82 476L82 536 337 536 337 476ZM38 206L38 269 377 269 377 206ZM662 394L662 476 510 476 510 394ZM506 42C473 148 413 265 338 340 355 350 379 370 391 383 408 366 424 347 439 326L439 685 959 685 959 622 732 622 732 534 915 534 915 476 732 476 732 394 915 394 915 336 732 336 732 256 940 256 940 194 736 194 798 69 716 47C705 90 685 148 665 194L520 194C541 153 559 109 574 66ZM662 336L510 336 510 256 662 256ZM662 534L662 622 510 622 510 534ZM78 611L78 949 144 949 144 903 341 903 341 611ZM144 674L276 674 276 841 144 841Z"/>
</svg>