<svg xmlns="http://www.w3.org/2000/svg"
    viewBox="0 0 1000 1000">
  <!--
© 2014-2021 Adobe (http://www.adobe.com/).
Noto is a trademark of Google Inc.
This Font Software is licensed under the SIL Open Font License, Version 1.1. This Font Software is distributed on an "AS IS" BASIS, WITHOUT WARRANTIES OR CONDITIONS OF ANY KIND, either express or implied. See the SIL Open Font License for the specific language, permissions and limitations governing your use of this Font Software.
http://scripts.sil.org/OFL
  -->
<path d="M790 465C831 493 877 534 899 564L945 526C923 497 875 458 835 432ZM79 313L79 372 336 372 336 313ZM86 45L86 105 334 105 334 45ZM79 446L79 506 336 506 336 446ZM38 176L38 239 362 239 362 176ZM361 350L361 408 952 408 952 350 694 350 694 281 904 281 904 229 694 229 694 163 931 163 931 109 803 109C821 86 840 58 859 29L792 8C780 37 755 80 736 109L582 109 587 107C576 79 549 38 523 9L469 31C488 54 508 84 521 109L397 109 397 163 622 163 622 229 429 229 429 281 622 281 622 350ZM855 656C838 688 816 718 789 746 780 714 773 677 766 635L953 635 953 576 759 576C755 532 753 484 752 431L688 431C690 483 693 531 697 576L568 576 568 497C605 490 640 481 669 472L624 425C566 446 462 463 375 474 382 488 389 508 392 521 426 518 464 514 501 508L501 576 360 576 360 635 501 635 501 711 356 728 366 789 501 769 501 859C501 870 498 873 486 874 474 875 436 875 393 873 402 890 411 914 414 930 472 930 511 930 536 920 560 911 568 895 568 861L568 759 678 743 676 687 568 702 568 635 704 635C712 696 724 749 739 792 695 827 646 857 597 878 610 889 628 908 636 920 679 900 721 875 761 845 791 906 831 938 882 938 931 937 955 909 967 818 952 811 932 802 918 790 914 854 904 877 887 877 859 877 833 853 810 804 850 768 885 726 910 682ZM78 581L78 919 140 919 140 872 335 872 335 581ZM140 643L273 643 273 810 140 810Z"/>
</svg>