<svg xmlns="http://www.w3.org/2000/svg"
    viewBox="0 0 1000 1000">
  <!--
© 2014-2021 Adobe (http://www.adobe.com/).
Noto is a trademark of Google Inc.
This Font Software is licensed under the SIL Open Font License, Version 1.1. This Font Software is distributed on an "AS IS" BASIS, WITHOUT WARRANTIES OR CONDITIONS OF ANY KIND, either express or implied. See the SIL Open Font License for the specific language, permissions and limitations governing your use of this Font Software.
http://scripts.sil.org/OFL
  -->
<path d="M511 571L820 571 820 625 511 625ZM511 671L820 671 820 725 511 725ZM511 473L820 473 820 525 511 525ZM555 781C511 819 422 862 347 887 362 899 385 919 396 932 470 907 560 861 617 816ZM79 313L79 372 336 372 336 313ZM86 45L86 105 334 105 334 45ZM79 446L79 506 336 506 336 446ZM38 176L38 239 362 239 362 176ZM713 818C786 853 863 898 908 929L968 889C918 856 835 813 761 779L889 779 889 419 695 419C750 382 783 336 804 290 832 349 875 405 922 437 933 420 954 397 970 385 921 361 878 312 850 260L959 260 959 202 828 202C831 181 832 162 832 143L947 143 947 86 832 86 832 11 766 11 766 86 675 86 675 143 766 143C766 161 765 181 762 202L671 202 671 260 748 260C731 303 701 345 643 377 655 387 672 405 682 419L449 419C482 390 504 357 520 324 546 349 579 383 593 402L638 351C622 337 565 294 538 276L542 260 648 260 648 202 551 202 553 157 553 143 643 143 643 86 553 86 553 11 488 11 488 86 399 86 399 143 488 143 488 157 486 202 385 202 385 260 476 260C461 315 428 370 355 409 369 420 389 442 398 457 415 447 430 435 444 424L444 779 758 779ZM78 581L78 919 140 919 140 872 335 872 335 581ZM140 643L273 643 273 810 140 810Z"/>
</svg>