<svg xmlns="http://www.w3.org/2000/svg"
    viewBox="0 0 1000 1000">
  <!--
© 2014-2021 Adobe (http://www.adobe.com/).
Noto is a trademark of Google Inc.
This Font Software is licensed under the SIL Open Font License, Version 1.1. This Font Software is distributed on an "AS IS" BASIS, WITHOUT WARRANTIES OR CONDITIONS OF ANY KIND, either express or implied. See the SIL Open Font License for the specific language, permissions and limitations governing your use of this Font Software.
http://scripts.sil.org/OFL
  -->
<path d="M204 668L204 710 796 710 796 668ZM204 588L204 631 796 631 796 588ZM46 506L46 552 955 552 955 506ZM218 426L218 469 784 469 784 426ZM194 749L194 930 265 930 265 903 733 903 733 929 807 929 807 749ZM265 858L265 794 733 794 733 858ZM275 222L275 262 185 262 185 222ZM932 97L770 97C782 77 795 54 807 30L744 13C736 36 721 71 708 97L620 97C634 74 647 50 657 26L598 9C565 81 513 151 456 199L456 180 335 180 335 141 483 141 483 97 332 97 368 30 306 13C299 36 284 71 272 97L190 97C203 74 214 50 224 26L164 9C134 83 84 156 28 204 42 216 65 240 74 251 90 236 106 218 122 198L122 387 491 387 491 344 335 344 335 303 456 303 456 262 335 262 335 222 456 222 456 203C470 214 491 235 500 246 518 230 536 211 554 190L554 387 946 387 946 344 778 344 778 303 900 303 900 262 778 262 778 222 900 222 900 180 778 180 778 141 932 141ZM275 180L185 180 185 141 275 141ZM275 303L275 344 185 344 185 303ZM717 222L717 262 616 262 616 222ZM717 180L616 180 616 141 717 141ZM717 303L717 344 616 344 616 303Z"/>
</svg>