<svg xmlns="http://www.w3.org/2000/svg" name="gid12344" data-unicode="讒"
    viewBox="0 0 1000 1000">
  <!--
© 2014-2021 Adobe (http://www.adobe.com/).
Noto is a trademark of Google Inc.
This Font Software is licensed under the SIL Open Font License, Version 1.1. This Font Software is distributed on an "AS IS" BASIS, WITHOUT WARRANTIES OR CONDITIONS OF ANY KIND, either express or implied. See the SIL Open Font License for the specific language, permissions and limitations governing your use of this Font Software.
http://scripts.sil.org/OFL
  -->
<path d="M504 225L841 225 841 285 504 285ZM81 343L81 402 351 402 351 343ZM87 75L87 135 348 135 348 75ZM81 476L81 536 351 536 351 476ZM543 134L702 134C690 150 676 166 661 179L501 179C516 164 530 149 543 134ZM892 342C860 357 807 371 757 382L757 331 908 331 908 179 739 179C757 158 774 133 786 110L746 86 737 89 577 89 602 51 535 39C504 94 447 158 368 206L38 206 38 269 381 269 381 214C394 224 408 237 416 248L440 231 440 331 463 331 463 463 379 468 387 520 508 509C475 561 422 617 352 660L352 611 80 611 80 949 144 949 144 902 352 902 352 664C368 673 388 691 398 704L433 678 433 789 591 789C549 846 476 884 343 907 355 920 372 946 378 961 540 928 623 874 667 790L667 878C667 935 686 949 762 949 778 949 874 949 890 949 944 949 963 931 968 856 951 852 927 845 914 836 911 892 906 901 881 901 861 901 784 901 769 901 737 901 731 898 731 877L731 789 914 789 914 624 741 624C759 603 776 578 788 554L747 530 738 533 568 533 588 502 665 494 665 449 527 459 527 413 658 413 658 369 527 369 527 331 692 331 692 444C692 502 709 514 780 514 793 514 874 514 888 514 935 514 953 499 959 442 942 438 918 432 905 423 902 462 898 467 879 467 863 467 799 467 788 467 762 467 757 465 757 444L757 425C814 417 881 402 928 383ZM498 672L636 672C632 697 626 720 617 741L498 741ZM703 672L846 672 846 741 687 741C694 720 699 697 703 672ZM534 579L702 579C690 595 675 611 660 624L494 624C508 609 522 594 534 579ZM770 817C799 837 833 866 850 885L889 853C872 834 837 807 808 789ZM144 673L288 673 288 840 144 840Z"/>
</svg>