<svg xmlns="http://www.w3.org/2000/svg"
    viewBox="0 0 1000 1000">
  <!--
© 2014-2021 Adobe (http://www.adobe.com/).
Noto is a trademark of Google Inc.
This Font Software is licensed under the SIL Open Font License, Version 1.1. This Font Software is distributed on an "AS IS" BASIS, WITHOUT WARRANTIES OR CONDITIONS OF ANY KIND, either express or implied. See the SIL Open Font License for the specific language, permissions and limitations governing your use of this Font Software.
http://scripts.sil.org/OFL
  -->
<path d="M171 36C140 111 90 189 36 241 53 250 81 272 93 283 147 227 202 138 240 54ZM578 11C575 75 571 138 566 199L467 199 471 197C450 152 401 82 357 31L300 58C343 111 391 181 410 228L462 202 462 265 561 265C537 515 492 733 399 882 416 891 450 912 462 922 557 758 602 531 629 265L945 265 945 199 635 199C640 139 644 77 648 14ZM196 581L349 581 349 782 196 782ZM240 236C200 329 125 449 20 537 37 547 61 569 73 585 92 568 110 550 127 532L127 910 196 910 196 848 418 848 418 518 424 529 484 482C447 416 372 311 308 236ZM196 515L143 515C204 447 250 375 284 314 333 376 386 458 417 515ZM551 820L565 890 880 839C889 872 897 902 901 928L965 906C949 820 898 681 845 573L786 592C813 649 839 715 860 776L682 802C718 675 755 490 781 348L707 336C688 479 652 681 617 811Z"/>
</svg>