<svg xmlns="http://www.w3.org/2000/svg" name="gid12369" data-unicode="豊"
    viewBox="0 0 1000 1000">
  <!--
© 2014-2021 Adobe (http://www.adobe.com/).
Noto is a trademark of Google Inc.
This Font Software is licensed under the SIL Open Font License, Version 1.1. This Font Software is distributed on an "AS IS" BASIS, WITHOUT WARRANTIES OR CONDITIONS OF ANY KIND, either express or implied. See the SIL Open Font License for the specific language, permissions and limitations governing your use of this Font Software.
http://scripts.sil.org/OFL
  -->
<path d="M68 466L68 522 935 522 935 466ZM256 627L741 627 741 716 256 716ZM275 785C295 812 313 849 323 878L52 878 52 938 950 938 950 878 667 878C686 852 707 818 727 784L686 769 818 769 818 574 182 574 182 769 326 769ZM370 878L396 869C386 840 365 800 342 769L657 769C642 800 617 843 598 870L619 878ZM214 288L351 288 351 360 214 360ZM416 288L564 288 564 360 416 360ZM630 288L776 288 776 360 630 360ZM214 166L351 166 351 236 214 236ZM416 166L564 166 564 236 416 236ZM630 166L776 166 776 236 630 236ZM564 38L564 111 416 111 416 38 351 38 351 111 144 111 144 414 849 414 849 111 630 111 630 38Z"/>
</svg>