<svg xmlns="http://www.w3.org/2000/svg"
    viewBox="0 0 1000 1000">
  <!--
© 2014-2021 Adobe (http://www.adobe.com/).
Noto is a trademark of Google Inc.
This Font Software is licensed under the SIL Open Font License, Version 1.1. This Font Software is distributed on an "AS IS" BASIS, WITHOUT WARRANTIES OR CONDITIONS OF ANY KIND, either express or implied. See the SIL Open Font License for the specific language, permissions and limitations governing your use of this Font Software.
http://scripts.sil.org/OFL
  -->
<path d="M94 495L94 548 911 548 911 495ZM263 640L737 640 737 718 263 718ZM291 777C306 800 322 829 332 852L52 852 52 910 950 910 950 852 667 852C685 831 704 804 722 774L702 768 814 768 814 592 190 592 190 768 321 768ZM384 852L404 845C396 823 380 793 362 768L646 768C632 793 611 825 594 848L607 852ZM490 48L89 48 89 445 501 445 501 418C514 433 528 457 536 473 603 450 666 418 722 374 775 419 836 454 906 477 916 459 936 433 952 419 884 400 824 369 773 329 838 264 888 179 916 71L874 57 862 59 525 59 525 121 612 121 560 135C587 209 626 274 675 329 623 368 564 397 501 415L501 392 334 392 334 329 483 329 483 163 334 163 334 101 490 101ZM621 121L833 121C808 186 771 241 725 286 680 239 644 183 621 121ZM269 163L158 163 158 101 269 101ZM269 329L269 392 158 392 158 329ZM158 211L415 211 415 281 158 281Z"/>
</svg>