<svg xmlns="http://www.w3.org/2000/svg" name="gid12373" data-unicode="豏"
    viewBox="0 0 1000 1000">
  <!--
© 2014-2021 Adobe (http://www.adobe.com/).
Noto is a trademark of Google Inc.
This Font Software is licensed under the SIL Open Font License, Version 1.1. This Font Software is distributed on an "AS IS" BASIS, WITHOUT WARRANTIES OR CONDITIONS OF ANY KIND, either express or implied. See the SIL Open Font License for the specific language, permissions and limitations governing your use of this Font Software.
http://scripts.sil.org/OFL
  -->
<path d="M45 98L45 163 393 163 393 98ZM134 321L299 321 299 467 134 467ZM72 259L72 528 366 528 366 259ZM88 573C106 635 120 715 122 768L183 753C180 701 164 621 144 560ZM881 45C838 74 759 106 688 127L696 141 696 209 615 209 615 125C655 112 693 98 724 83L672 40C615 70 508 100 418 120 425 134 435 155 439 168 475 161 513 152 551 143L551 209 406 209 406 270 551 270 551 340 423 340 423 399 551 399 551 478 399 478 399 538 551 538 551 621 418 621 418 679 531 679C487 757 410 836 338 875 353 887 374 910 385 925 444 886 506 819 551 747L551 958 615 958 615 679 696 679 696 960 760 960 760 740C805 809 865 879 915 920 927 902 950 879 966 866 905 826 831 750 785 679L908 679 908 538 961 538 961 478 908 478 908 340 760 340 760 270 952 270 952 209 760 209 760 159C823 139 889 114 937 86ZM615 270L696 270 696 340 615 340ZM848 538L848 621 760 621 760 538ZM848 478L760 478 760 399 848 399ZM615 538L696 538 696 621 615 621ZM615 478L615 399 696 399 696 478ZM33 817L47 886C144 864 276 833 400 803L394 738 294 761C308 712 327 634 343 569L276 555C269 613 252 698 237 750L289 762C192 784 99 804 33 817Z"/>
</svg>