<svg xmlns="http://www.w3.org/2000/svg"
    viewBox="0 0 1000 1000">
  <!--
© 2014-2021 Adobe (http://www.adobe.com/).
Noto is a trademark of Google Inc.
This Font Software is licensed under the SIL Open Font License, Version 1.1. This Font Software is distributed on an "AS IS" BASIS, WITHOUT WARRANTIES OR CONDITIONS OF ANY KIND, either express or implied. See the SIL Open Font License for the specific language, permissions and limitations governing your use of this Font Software.
http://scripts.sil.org/OFL
  -->
<path d="M168 577L421 577 421 655 168 655ZM548 568L548 837 512 837 511 786 398 798 436 717 392 704 486 704 486 527 104 527 104 704 369 704C362 731 347 768 337 794L363 802 36 836 44 899 481 849 481 900 968 900 968 837 926 837 926 568ZM152 719C166 749 180 791 184 817L245 800C240 773 226 733 209 704ZM792 366C810 388 828 413 845 439L678 450C695 407 714 354 731 307L953 307 953 247 774 247 774 157 924 157 924 99 774 99 774 10 706 10 706 99 570 99 570 157 706 157 706 247 543 247 543 307 659 307C647 355 630 410 614 453L537 457 544 521 879 494C891 516 901 537 908 554L964 523C943 472 891 395 844 339ZM44 422L44 480 537 480 537 422ZM77 44L77 373 523 373 523 47 473 47 473 320 417 320 417 276 458 276 458 240 417 240 417 198 452 198 452 162 417 162 417 121 458 121 458 85 417 85 417 32 378 32 378 85 341 85 341 121 378 121 378 162 345 162 345 198 378 198 378 240 341 240 341 276 378 276 378 320 321 320 321 10 272 10 272 320 214 320 214 276 252 276 252 240 214 240 214 198 247 198 247 162 214 162 214 121 250 121 250 85 214 85 214 32 177 32 177 85 141 85 141 121 177 121 177 162 144 162 144 198 177 198 177 240 140 240 140 276 177 276 177 320 126 320 126 44ZM603 837L603 629 661 629 661 837ZM705 837L705 629 764 629 764 837ZM809 837L809 629 869 629 869 837Z"/>
</svg>