<svg xmlns="http://www.w3.org/2000/svg" name="gid12382" data-unicode="豚"
    viewBox="0 0 1000 1000">
  <!--
© 2014-2021 Adobe (http://www.adobe.com/).
Noto is a trademark of Google Inc.
This Font Software is licensed under the SIL Open Font License, Version 1.1. This Font Software is distributed on an "AS IS" BASIS, WITHOUT WARRANTIES OR CONDITIONS OF ANY KIND, either express or implied. See the SIL Open Font License for the specific language, permissions and limitations governing your use of this Font Software.
http://scripts.sil.org/OFL
  -->
<path d="M100 77L100 436C100 583 95 784 32 926 49 932 78 948 91 959 133 864 151 739 159 621L284 621 284 872C284 886 279 890 267 890 256 891 217 891 174 890 184 909 192 941 195 959 258 960 295 958 320 946 343 934 351 911 351 873L351 77ZM165 145L284 145 284 311 165 311ZM900 295C872 331 827 376 785 414 766 339 751 260 740 178L951 178 951 107 396 107 396 178 617 178C548 255 452 323 358 368 372 382 396 413 405 426 445 405 485 379 525 350 545 370 563 392 579 415 527 475 437 539 364 571 378 586 395 614 404 631 472 594 554 531 611 470 626 499 638 530 647 561 582 656 460 754 353 799 368 815 385 843 393 861 488 813 593 728 666 640 682 742 669 833 635 866 616 890 595 892 567 892 545 892 514 890 482 887 494 908 499 937 500 956 531 959 560 960 582 959 628 958 660 950 691 916 783 830 764 485 573 312 612 280 648 246 679 209 719 481 788 721 920 850 933 830 959 802 977 789 901 722 845 612 804 481 852 444 910 393 959 348ZM165 380L284 380 284 551 163 551C165 510 165 471 165 436Z"/>
</svg>