<svg xmlns="http://www.w3.org/2000/svg"
    viewBox="0 0 1000 1000">
  <!--
© 2014-2021 Adobe (http://www.adobe.com/).
Noto is a trademark of Google Inc.
This Font Software is licensed under the SIL Open Font License, Version 1.1. This Font Software is distributed on an "AS IS" BASIS, WITHOUT WARRANTIES OR CONDITIONS OF ANY KIND, either express or implied. See the SIL Open Font License for the specific language, permissions and limitations governing your use of this Font Software.
http://scripts.sil.org/OFL
  -->
<path d="M545 11C511 92 444 191 346 263 362 272 386 293 398 309L437 275 437 440 602 440C537 483 449 519 370 543 388 491 403 430 413 374L368 361 357 364 287 364 329 321C312 303 290 283 264 263 318 214 376 150 415 87L371 57 358 61 55 61 55 124 310 124C283 160 249 198 216 228 188 209 159 192 131 178L87 221C156 257 235 318 277 364L43 364 43 429 178 429 178 843C178 856 174 859 161 859 149 860 107 860 61 859 71 879 83 910 86 930 146 930 187 929 214 916 240 904 247 882 247 845L247 429 337 429C325 485 309 545 291 585L344 607C353 589 361 568 369 545 381 557 399 582 406 595 454 577 507 555 556 529 570 541 584 554 596 567 535 614 436 662 359 687 372 699 388 721 396 736 470 705 563 654 626 606 637 622 646 639 654 655 581 728 452 805 345 839 358 852 373 873 381 888 478 850 594 780 672 709 688 775 677 832 652 853 637 868 621 870 602 870 584 870 560 870 533 867 544 885 549 911 550 927 574 929 597 929 615 929 649 929 674 922 699 898 770 840 765 629 606 500 635 483 662 464 685 444 721 625 792 773 914 848 924 829 946 804 962 791 899 758 850 703 812 635 856 607 909 571 949 535L907 488C875 517 828 553 786 582 767 538 753 490 742 440L920 440 920 219 748 219C773 184 798 142 815 105L768 74 757 78 589 78C599 59 609 41 617 23ZM720 136C706 164 689 195 671 219L491 219C515 192 536 164 554 136ZM502 276L640 276 640 383 502 383ZM706 276L852 276 852 383 706 383Z"/>
</svg>