<svg xmlns="http://www.w3.org/2000/svg"
    viewBox="0 0 1000 1000">
  <!--
© 2014-2021 Adobe (http://www.adobe.com/).
Noto is a trademark of Google Inc.
This Font Software is licensed under the SIL Open Font License, Version 1.1. This Font Software is distributed on an "AS IS" BASIS, WITHOUT WARRANTIES OR CONDITIONS OF ANY KIND, either express or implied. See the SIL Open Font License for the specific language, permissions and limitations governing your use of this Font Software.
http://scripts.sil.org/OFL
  -->
<path d="M712 54L712 116 863 116 863 302 712 302 712 364 928 364 928 54ZM356 233C336 273 304 326 274 370 257 322 236 278 209 241 235 209 258 175 277 140L416 140 416 76 47 76 47 140 203 140C159 212 96 278 28 324 43 335 67 360 77 372 108 348 140 319 170 287 183 308 194 332 203 357 164 418 92 485 32 519 47 531 65 554 75 570 126 535 183 478 225 422 232 451 239 481 243 511 198 595 110 683 29 726 43 740 60 766 68 782 133 742 202 674 253 604 259 717 246 815 224 842 212 864 197 867 176 867 163 867 137 867 112 864 121 882 126 910 127 929 150 930 176 930 192 930 231 929 258 918 281 886 318 840 334 687 312 531 347 578 378 628 395 666L438 625 438 930 503 930 503 727 676 727 676 661 503 661 503 534 662 534 662 470 503 470 503 362 680 362 680 54 438 54 438 619C412 565 356 486 299 427 335 383 377 322 413 268ZM746 508L690 520C707 605 732 683 767 750 719 808 660 849 593 878 605 890 626 918 634 934 698 905 754 865 802 810 837 862 880 904 930 934 940 917 960 893 975 880 922 852 879 810 843 757 895 680 933 581 954 455L913 443 901 444 685 444 685 504 879 504C863 578 838 641 807 693 780 638 760 575 746 508ZM503 116L616 116 616 300 503 300Z"/>
</svg>