<svg xmlns="http://www.w3.org/2000/svg"
    viewBox="0 0 1000 1000">
  <!--
© 2014-2021 Adobe (http://www.adobe.com/).
Noto is a trademark of Google Inc.
This Font Software is licensed under the SIL Open Font License, Version 1.1. This Font Software is distributed on an "AS IS" BASIS, WITHOUT WARRANTIES OR CONDITIONS OF ANY KIND, either express or implied. See the SIL Open Font License for the specific language, permissions and limitations governing your use of this Font Software.
http://scripts.sil.org/OFL
  -->
<path d="M63 216C90 253 119 304 130 338L185 311C173 277 144 229 114 192ZM198 165C220 197 243 241 252 271L302 244C295 217 270 174 247 142ZM330 12C262 60 138 108 27 136 40 149 56 172 64 188 178 158 301 111 375 56ZM369 844L387 916C467 894 569 866 667 839L658 770 517 808 517 377 664 377 664 307 517 307 517 25 447 25 447 826ZM904 236C869 268 814 310 764 342L764 24 693 24 693 798C693 889 713 913 782 913 795 913 866 913 880 913 946 913 962 866 969 736 949 731 921 718 904 705 901 815 898 845 876 845 861 845 804 845 793 845 768 845 764 839 764 799L764 415C824 382 896 334 952 289ZM369 196C295 274 162 356 33 409 47 421 65 443 74 456 123 435 173 410 220 383 235 402 247 422 257 443 203 496 108 556 36 586 50 599 66 624 75 640 141 605 222 549 280 496 289 522 297 548 302 574 238 652 123 737 28 779 43 793 60 817 69 833 149 791 243 720 311 650 318 743 300 822 273 846 256 865 239 867 215 867 198 867 166 866 134 863 144 882 150 909 150 928 179 929 211 930 230 930 272 929 299 920 327 891 400 824 411 529 271 353 327 317 377 278 416 238Z"/>
</svg>