<svg xmlns="http://www.w3.org/2000/svg"
    viewBox="0 0 1000 1000">
  <!--
© 2014-2021 Adobe (http://www.adobe.com/).
Noto is a trademark of Google Inc.
This Font Software is licensed under the SIL Open Font License, Version 1.1. This Font Software is distributed on an "AS IS" BASIS, WITHOUT WARRANTIES OR CONDITIONS OF ANY KIND, either express or implied. See the SIL Open Font License for the specific language, permissions and limitations governing your use of this Font Software.
http://scripts.sil.org/OFL
  -->
<path d="M73 216C100 253 129 305 140 338L194 311C183 278 153 229 124 192ZM211 165C234 197 257 241 265 270L316 243C308 216 284 173 260 142ZM342 12C271 60 142 108 25 136 39 149 55 173 63 188 182 158 309 111 387 56ZM448 55L448 278 931 278 931 55 865 55 865 216 715 216 715 12 649 12 649 216 512 216 512 55ZM444 525L444 928 507 928 507 587 589 587 589 918 644 918 644 587 730 587 730 918 785 918 785 587 877 587 877 858C877 867 874 870 866 870 858 870 834 870 805 870 813 886 821 911 823 928 867 928 896 927 916 917 935 906 940 889 940 859L940 525 664 525C678 495 694 459 708 425L950 425 950 360 421 360 421 425 630 425C620 458 608 495 596 525ZM376 195C300 276 166 358 33 410 47 423 64 445 73 459 127 437 181 411 232 382 246 401 258 421 269 442 211 495 113 555 37 586 51 599 68 624 77 640 145 605 231 548 292 494 301 520 309 547 314 574 248 652 127 738 29 779 44 793 61 817 69 833 153 791 252 719 323 648 330 741 312 821 285 845 268 864 251 866 227 866 210 866 178 866 146 863 156 881 162 909 163 928 191 929 223 930 242 930 285 929 311 920 339 891 413 824 424 527 282 351 337 316 386 277 425 237Z"/>
</svg>