<svg xmlns="http://www.w3.org/2000/svg" name="gid12430" data-unicode="貧"
    viewBox="0 0 1000 1000">
  <!--
© 2014-2021 Adobe (http://www.adobe.com/).
Noto is a trademark of Google Inc.
This Font Software is licensed under the SIL Open Font License, Version 1.1. This Font Software is distributed on an "AS IS" BASIS, WITHOUT WARRANTIES OR CONDITIONS OF ANY KIND, either express or implied. See the SIL Open Font License for the specific language, permissions and limitations governing your use of this Font Software.
http://scripts.sil.org/OFL
  -->
<path d="M255 579L757 579 757 647 255 647ZM255 695L757 695 757 763 255 763ZM255 465L757 465 757 531 255 531ZM581 864C695 896 806 934 869 962L949 921C875 892 752 853 641 825ZM354 826C281 860 160 890 57 909 74 922 100 950 112 965 212 942 340 900 421 856ZM653 42L590 71C623 110 668 149 717 183L279 183C331 149 378 109 411 66L342 41C282 117 168 178 57 216 74 229 100 257 112 271 154 254 197 233 239 208L239 244 407 244C359 314 266 361 74 387 86 401 103 429 108 446 134 442 159 437 182 432L182 813 833 813 833 415 249 415C375 377 445 321 486 244L701 244C694 297 686 323 676 332 668 339 658 340 640 340 622 340 566 339 512 334 522 350 530 374 531 391 588 394 643 395 669 394 698 392 717 388 733 372 753 354 765 313 776 221 820 247 865 269 908 284 920 266 943 238 960 223 848 188 719 116 653 42Z"/>
</svg>