<svg xmlns="http://www.w3.org/2000/svg"
    viewBox="0 0 1000 1000">
  <!--
© 2014-2021 Adobe (http://www.adobe.com/).
Noto is a trademark of Google Inc.
This Font Software is licensed under the SIL Open Font License, Version 1.1. This Font Software is distributed on an "AS IS" BASIS, WITHOUT WARRANTIES OR CONDITIONS OF ANY KIND, either express or implied. See the SIL Open Font License for the specific language, permissions and limitations governing your use of this Font Software.
http://scripts.sil.org/OFL
  -->
<path d="M138 699C118 771 80 842 32 889 50 899 79 920 92 932 140 879 184 797 209 715ZM267 724C295 765 326 821 340 856L402 824C388 790 356 738 327 698ZM153 298L317 298 317 426 153 426ZM153 485L317 485 317 615 153 615ZM153 111L317 111 317 239 153 239ZM85 49L85 677 388 677 388 49ZM471 60L471 424C471 570 464 759 373 892 390 900 420 920 432 933 528 791 541 579 541 424L541 382 548 382C577 516 621 632 684 726 629 790 564 838 493 868 509 882 528 911 537 929 609 895 673 847 729 785 781 847 844 896 919 932 930 913 952 885 968 872 890 840 826 791 773 728 844 627 895 495 920 324L875 313 862 315 541 315 541 129 936 129 936 60ZM728 667C676 587 639 490 614 382L840 382C817 495 779 590 728 667Z"/>
</svg>