<svg xmlns="http://www.w3.org/2000/svg"
    viewBox="0 0 1000 1000">
  <!--
© 2014-2021 Adobe (http://www.adobe.com/).
Noto is a trademark of Google Inc.
This Font Software is licensed under the SIL Open Font License, Version 1.1. This Font Software is distributed on an "AS IS" BASIS, WITHOUT WARRANTIES OR CONDITIONS OF ANY KIND, either express or implied. See the SIL Open Font License for the specific language, permissions and limitations governing your use of this Font Software.
http://scripts.sil.org/OFL
  -->
<path d="M255 560L757 560 757 622 255 622ZM255 669L757 669 757 732 255 732ZM255 452L757 452 757 514 255 514ZM581 831C693 863 803 902 867 931L947 891C874 861 752 821 641 791ZM351 790C278 826 157 858 54 877 71 890 97 918 108 933 209 908 336 866 418 821ZM577 10L577 65 422 65 422 10 354 10 354 65 108 65 108 116 354 116 354 172 153 172C137 225 115 290 94 335L164 339 169 326 305 326C264 367 189 400 56 425 69 439 86 467 92 484 125 477 155 470 182 462L182 781 833 781 833 426 857 426C877 425 893 419 906 407 922 392 928 362 935 301 935 292 936 276 936 276L648 276 648 222 873 222 873 65 648 65 648 10ZM207 222L352 222C351 241 347 259 339 276L188 276ZM421 222L577 222 577 276 413 276C417 259 420 241 421 222ZM422 116L577 116 577 172 422 172ZM648 116L804 116 804 172 648 172ZM860 326C857 352 853 365 847 371 841 377 835 378 824 378 813 378 785 377 754 374 758 382 762 393 765 404L318 404C354 381 378 355 394 326L577 326 577 401 648 401 648 326Z"/>
</svg>