<svg xmlns="http://www.w3.org/2000/svg" name="gid12460" data-unicode="賈"
    viewBox="0 0 1000 1000">
  <!--
© 2014-2021 Adobe (http://www.adobe.com/).
Noto is a trademark of Google Inc.
This Font Software is licensed under the SIL Open Font License, Version 1.1. This Font Software is distributed on an "AS IS" BASIS, WITHOUT WARRANTIES OR CONDITIONS OF ANY KIND, either express or implied. See the SIL Open Font License for the specific language, permissions and limitations governing your use of this Font Software.
http://scripts.sil.org/OFL
  -->
<path d="M255 579L757 579 757 647 255 647ZM255 695L757 695 757 763 255 763ZM255 465L757 465 757 531 255 531ZM182 415L182 813 833 813 833 415ZM581 864C693 896 801 933 863 961L949 923C876 894 755 855 644 826ZM354 826C281 860 160 890 57 909 74 922 100 950 112 965 212 942 340 900 421 856ZM122 190L122 367 888 367 888 190 648 190 648 138 936 138 936 82 63 82 63 138 346 138 346 190ZM414 138L579 138 579 190 414 190ZM191 242L346 242 346 315 191 315ZM414 242L579 242 579 315 414 315ZM648 242L817 242 817 315 648 315Z"/>
</svg>