<svg xmlns="http://www.w3.org/2000/svg"
    viewBox="0 0 1000 1000">
  <!--
© 2014-2021 Adobe (http://www.adobe.com/).
Noto is a trademark of Google Inc.
This Font Software is licensed under the SIL Open Font License, Version 1.1. This Font Software is distributed on an "AS IS" BASIS, WITHOUT WARRANTIES OR CONDITIONS OF ANY KIND, either express or implied. See the SIL Open Font License for the specific language, permissions and limitations governing your use of this Font Software.
http://scripts.sil.org/OFL
  -->
<path d="M547 233L547 297 905 297 905 233ZM132 699C113 771 76 843 31 891 47 900 76 920 89 931 134 878 176 796 200 714ZM258 723C282 760 308 810 320 842L380 813C367 781 340 734 314 698ZM149 297L299 297 299 426 149 426ZM149 485L299 485 299 616 149 616ZM149 110L299 110 299 238 149 238ZM83 48L83 678 366 678 366 48ZM903 509C876 541 833 582 794 616 780 572 770 525 761 475L955 475 955 411 511 411 511 370 511 123 937 123 937 58 444 58 444 370C444 524 436 735 350 885 366 893 395 912 406 925 480 799 503 623 509 475L570 475 570 832 488 848 505 913C584 895 688 872 787 849L781 787 634 819 634 475 705 475C735 684 798 849 926 932 936 913 958 887 974 873 900 832 848 760 812 669 857 636 910 593 953 552Z"/>
</svg>