<svg xmlns="http://www.w3.org/2000/svg" name="gid12477" data-unicode="賞"
    viewBox="0 0 1000 1000">
  <!--
© 2014-2021 Adobe (http://www.adobe.com/).
Noto is a trademark of Google Inc.
This Font Software is licensed under the SIL Open Font License, Version 1.1. This Font Software is distributed on an "AS IS" BASIS, WITHOUT WARRANTIES OR CONDITIONS OF ANY KIND, either express or implied. See the SIL Open Font License for the specific language, permissions and limitations governing your use of this Font Software.
http://scripts.sil.org/OFL
  -->
<path d="M312 310L699 310 699 379 312 379ZM242 262L242 427 773 427 773 262ZM258 621L758 621 758 676 258 676ZM258 721L758 721 758 777 258 777ZM258 521L758 521 758 576 258 576ZM186 475L186 824 832 824 832 475ZM350 832C285 866 164 892 61 907 77 920 104 949 117 965 218 943 346 905 421 860ZM580 872C690 900 801 935 865 962L941 918C868 891 746 855 636 829ZM756 42C738 73 702 120 675 149L689 154 536 154 536 40 460 40 460 154 305 154 332 144C315 115 282 75 251 47L185 68C210 93 237 127 254 154L88 154 88 329 159 329 159 209 849 209 849 329 922 329 922 154 752 154C777 129 806 97 831 64Z"/>
</svg>