<svg xmlns="http://www.w3.org/2000/svg" name="gid12478" data-unicode="賠"
    viewBox="0 0 1000 1000">
  <!--
© 2014-2021 Adobe (http://www.adobe.com/).
Noto is a trademark of Google Inc.
This Font Software is licensed under the SIL Open Font License, Version 1.1. This Font Software is distributed on an "AS IS" BASIS, WITHOUT WARRANTIES OR CONDITIONS OF ANY KIND, either express or implied. See the SIL Open Font License for the specific language, permissions and limitations governing your use of this Font Software.
http://scripts.sil.org/OFL
  -->
<path d="M411 438L411 504 960 504 960 438ZM803 230C791 285 766 366 746 416L806 432C828 385 852 312 875 248ZM501 248C523 306 541 382 544 431L611 413C606 364 588 290 562 233ZM138 729C118 801 80 872 32 919 50 929 79 950 92 962 140 909 184 827 209 745ZM267 754C301 805 338 872 354 915L416 885C399 842 362 778 327 729ZM153 328L317 328 317 456 153 456ZM153 515L317 515 317 645 153 645ZM153 141L317 141 317 269 153 269ZM85 79L85 707 388 707 388 79ZM478 587L478 960 549 960 549 919 825 919 825 956 898 956 898 587ZM549 854L549 651 825 651 825 854ZM434 158L434 223 931 223 931 158 721 158 721 41 647 41 647 158Z"/>
</svg>