<svg xmlns="http://www.w3.org/2000/svg"
    viewBox="0 0 1000 1000">
  <!--
© 2014-2021 Adobe (http://www.adobe.com/).
Noto is a trademark of Google Inc.
This Font Software is licensed under the SIL Open Font License, Version 1.1. This Font Software is distributed on an "AS IS" BASIS, WITHOUT WARRANTIES OR CONDITIONS OF ANY KIND, either express or implied. See the SIL Open Font License for the specific language, permissions and limitations governing your use of this Font Software.
http://scripts.sil.org/OFL
  -->
<path d="M377 628L741 628 741 677 377 677ZM377 714L741 714 741 763 377 763ZM377 543L741 543 741 590 377 590ZM768 346L768 397 497 397C508 381 518 364 527 346ZM768 299L547 299 561 254 768 254ZM514 156L505 205 271 205 271 254 492 254C488 269 483 284 476 299L214 299 214 346 453 346C443 364 431 381 417 397L265 397 265 446 364 446C319 480 261 508 185 529 188 478 189 430 189 388L189 149 949 149 949 84 568 84 568 10 491 10 491 84 118 84 118 388C118 536 110 743 31 890 48 898 79 919 92 933 152 821 176 670 185 535 197 547 211 568 216 581 250 571 281 560 309 547L309 810 434 810C372 839 270 869 187 885 200 897 217 919 227 932 318 913 431 877 498 840L455 810 651 810 614 847C713 873 813 907 871 934L928 889C870 864 776 834 685 810L812 810 812 549C846 566 880 580 914 591 923 575 943 552 957 539 885 522 804 487 748 446L842 446 842 352 944 352 944 297 842 297 842 205 573 205 582 156ZM667 446C684 464 705 481 727 497L398 497C420 481 440 464 457 446Z"/>
</svg>