<svg xmlns="http://www.w3.org/2000/svg" name="gid12480" data-unicode="賢"
    viewBox="0 0 1000 1000">
  <!--
© 2014-2021 Adobe (http://www.adobe.com/).
Noto is a trademark of Google Inc.
This Font Software is licensed under the SIL Open Font License, Version 1.1. This Font Software is distributed on an "AS IS" BASIS, WITHOUT WARRANTIES OR CONDITIONS OF ANY KIND, either express or implied. See the SIL Open Font License for the specific language, permissions and limitations governing your use of this Font Software.
http://scripts.sil.org/OFL
  -->
<path d="M255 590L757 590 757 652 255 652ZM255 699L757 699 757 762 255 762ZM255 482L757 482 757 544 255 544ZM182 434L182 811 833 811 833 434ZM581 861C691 893 799 932 861 960L947 922C875 893 754 853 644 823ZM351 820C278 856 157 888 54 907 71 920 97 948 108 963 209 938 336 896 418 851ZM280 162L164 162 164 117 280 117ZM497 69L100 69 100 397 504 397 504 354C517 367 535 392 541 407 605 391 664 370 717 340 776 381 845 412 921 431 931 412 951 386 967 372 897 357 832 333 776 300 840 250 890 184 920 95L879 76 866 78 529 78 529 136 831 136C805 188 767 229 721 262 677 227 641 186 617 140L558 158C584 210 620 257 663 296 615 320 562 338 504 350L504 349 341 349 341 300 478 300 478 162 341 162 341 117 497 117ZM280 300L280 349 164 349 164 300ZM164 204L416 204 416 258 164 258Z"/>
</svg>