<svg xmlns="http://www.w3.org/2000/svg" name="gid12485" data-unicode="質"
    viewBox="0 0 1000 1000">
  <!--
© 2014-2021 Adobe (http://www.adobe.com/).
Noto is a trademark of Google Inc.
This Font Software is licensed under the SIL Open Font License, Version 1.1. This Font Software is distributed on an "AS IS" BASIS, WITHOUT WARRANTIES OR CONDITIONS OF ANY KIND, either express or implied. See the SIL Open Font License for the specific language, permissions and limitations governing your use of this Font Software.
http://scripts.sil.org/OFL
  -->
<path d="M251 558L758 558 758 628 251 628ZM251 677L758 677 758 748 251 748ZM251 440L758 440 758 509 251 509ZM178 389L178 799 833 799 833 389ZM584 851C693 887 801 930 864 962L948 924C875 891 754 847 645 813ZM348 810C276 849 156 885 53 907 70 920 97 948 109 963 209 936 336 889 417 841ZM127 67L127 166C127 231 115 311 44 376 60 386 84 409 94 424 152 370 178 303 188 243L311 243 311 369 378 369 378 243 496 243 496 185 194 185 194 170 194 134C288 125 395 111 469 89L419 42C365 59 272 74 185 83ZM536 69L536 159C536 215 521 279 440 332 456 343 478 367 487 383 547 342 577 292 591 243L731 243 731 371 799 371 799 243 948 243 948 185 602 185 603 161 603 134C704 126 819 112 898 91L848 44C789 60 687 75 594 84Z"/>
</svg>