<svg xmlns="http://www.w3.org/2000/svg"
    viewBox="0 0 1000 1000">
  <!--
© 2014-2021 Adobe (http://www.adobe.com/).
Noto is a trademark of Google Inc.
This Font Software is licensed under the SIL Open Font License, Version 1.1. This Font Software is distributed on an "AS IS" BASIS, WITHOUT WARRANTIES OR CONDITIONS OF ANY KIND, either express or implied. See the SIL Open Font License for the specific language, permissions and limitations governing your use of this Font Software.
http://scripts.sil.org/OFL
  -->
<path d="M127 699C108 771 73 843 29 891 45 900 74 920 86 931 131 878 172 796 195 714ZM249 722C281 775 316 848 331 895L391 867C376 821 340 751 305 698ZM145 295L292 295 292 425 145 425ZM145 483L292 483 292 614 145 614ZM145 108L292 108 292 236 145 236ZM80 46L80 677 359 677 359 46ZM410 47L410 197 479 197 479 106 871 106 871 197 942 197 942 47ZM443 349L443 664 636 664 636 734 388 734 388 796 636 796 636 930 707 930 707 796 961 796 961 734 707 734 707 664 910 664 910 349 707 349 707 281 917 281 917 223 707 223 707 140 636 140 636 223 433 223 433 281 636 281 636 349ZM508 533L636 533 636 608 508 608ZM707 533L841 533 841 608 707 608ZM508 405L636 405 636 480 508 480ZM707 405L841 405 841 480 707 480Z"/>
</svg>