<svg xmlns="http://www.w3.org/2000/svg"
    viewBox="0 0 1000 1000">
  <!--
© 2014-2021 Adobe (http://www.adobe.com/).
Noto is a trademark of Google Inc.
This Font Software is licensed under the SIL Open Font License, Version 1.1. This Font Software is distributed on an "AS IS" BASIS, WITHOUT WARRANTIES OR CONDITIONS OF ANY KIND, either express or implied. See the SIL Open Font License for the specific language, permissions and limitations governing your use of this Font Software.
http://scripts.sil.org/OFL
  -->
<path d="M524 586L783 586 783 642 524 642ZM524 689L783 689 783 747 524 747ZM524 483L783 483 783 537 524 537ZM535 807C497 839 430 867 368 887 383 898 408 920 420 932 482 908 556 868 599 826ZM718 836C774 862 843 902 877 930L937 898C900 868 830 830 775 807ZM694 228C703 254 713 279 725 303L593 303C604 279 614 254 623 228ZM750 70C782 99 816 134 844 168L642 168C655 121 666 71 674 18L606 10C598 67 587 119 572 168L478 168C503 133 525 94 541 56L479 40C452 102 409 163 361 206 376 214 403 232 415 243 433 225 452 203 470 179L470 228 552 228C542 254 531 279 519 303L358 303 358 364 481 364C444 416 399 460 343 494L343 57 98 57 98 415C98 561 94 760 31 901 48 907 77 923 89 933 140 819 156 660 161 523 198 553 237 589 257 614L277 592 277 844C277 858 273 862 261 862 250 862 213 863 171 861 180 880 189 912 191 930 252 930 288 929 312 916 336 905 343 883 343 846L343 501C358 513 380 537 389 549 417 530 443 509 466 486L466 799 843 799 843 472C867 496 893 516 921 532 932 514 953 489 969 476 920 451 874 412 836 364L952 364 952 303 795 303C780 279 768 254 757 228L846 228 846 170C866 194 882 216 893 235L949 200C921 155 857 86 802 39ZM758 364C772 387 788 409 805 430L516 430C533 409 547 387 561 364ZM163 296C199 322 236 355 256 379L277 355 277 542C251 517 216 490 186 469L162 492 163 415ZM163 263L163 126 277 126 277 309C251 286 216 260 185 240Z"/>
</svg>