<svg xmlns="http://www.w3.org/2000/svg" name="gid12498" data-unicode="購"
    viewBox="0 0 1000 1000">
  <!--
© 2014-2021 Adobe (http://www.adobe.com/).
Noto is a trademark of Google Inc.
This Font Software is licensed under the SIL Open Font License, Version 1.1. This Font Software is distributed on an "AS IS" BASIS, WITHOUT WARRANTIES OR CONDITIONS OF ANY KIND, either express or implied. See the SIL Open Font License for the specific language, permissions and limitations governing your use of this Font Software.
http://scripts.sil.org/OFL
  -->
<path d="M132 729C113 801 76 873 31 921 47 930 76 950 89 961 134 908 176 826 200 744ZM258 753C289 803 324 869 339 912L398 883C383 841 347 776 315 728ZM149 327L299 327 299 456 149 456ZM149 515L299 515 299 646 149 646ZM149 140L299 140 299 268 149 268ZM83 78L83 708 366 708 366 78ZM445 481L445 737 381 737 381 794 445 794 445 961 513 961 513 794 832 794 832 882C832 895 827 898 813 899 800 899 752 899 699 898 708 915 717 941 721 959 793 959 838 959 866 949 892 938 900 919 900 882L900 794 961 794 961 737 900 737 900 481 702 481 702 423 957 423 957 366 813 366 813 299 919 299 919 244 813 244 813 184 935 184 935 127 813 127 813 41 745 41 745 127 596 127 596 41 529 41 529 127 408 127 408 184 529 184 529 244 434 244 434 299 529 299 529 366 385 366 385 423 636 423 636 481ZM596 184L745 184 745 244 596 244ZM596 366L596 299 745 299 745 366ZM636 737L513 737 513 662 636 662ZM702 737L702 662 832 662 832 737ZM636 538L636 610 513 610 513 538ZM702 538L832 538 832 610 702 610Z"/>
</svg>