<svg xmlns="http://www.w3.org/2000/svg" name="gid12508" data-unicode="贉"
    viewBox="0 0 1000 1000">
  <!--
© 2014-2021 Adobe (http://www.adobe.com/).
Noto is a trademark of Google Inc.
This Font Software is licensed under the SIL Open Font License, Version 1.1. This Font Software is distributed on an "AS IS" BASIS, WITHOUT WARRANTIES OR CONDITIONS OF ANY KIND, either express or implied. See the SIL Open Font License for the specific language, permissions and limitations governing your use of this Font Software.
http://scripts.sil.org/OFL
  -->
<path d="M129 729C110 801 75 873 31 921 46 930 75 950 88 961 132 907 173 826 196 744ZM257 753C287 801 320 867 334 908L393 881C379 840 345 776 314 728ZM147 327L296 327 296 456 147 456ZM147 515L296 515 296 646 147 646ZM147 140L296 140 296 268 147 268ZM81 78L81 708 364 708 364 78ZM519 595L836 595 836 658 519 658ZM519 485L836 485 836 547 519 547ZM452 435L452 709 639 709 639 770 393 770 393 831 639 831 639 960 710 960 710 831 962 831 962 770 710 770 710 709 905 709 905 435ZM422 202L422 403 484 403 484 258 573 258 573 382 778 382 778 258 869 258 869 403 933 403 933 202 778 202 778 138 951 138 951 78 405 78 405 138 573 138 573 202ZM718 138L718 202 631 202 631 138ZM718 258L718 332 631 332 631 258Z"/>
</svg>