<svg xmlns="http://www.w3.org/2000/svg"
    viewBox="0 0 1000 1000">
  <!--
© 2014-2021 Adobe (http://www.adobe.com/).
Noto is a trademark of Google Inc.
This Font Software is licensed under the SIL Open Font License, Version 1.1. This Font Software is distributed on an "AS IS" BASIS, WITHOUT WARRANTIES OR CONDITIONS OF ANY KIND, either express or implied. See the SIL Open Font License for the specific language, permissions and limitations governing your use of this Font Software.
http://scripts.sil.org/OFL
  -->
<path d="M493 814C515 837 540 869 553 889L598 860C585 840 558 809 537 788ZM233 321L768 321 768 376 233 376ZM165 273L165 425 838 425 838 273ZM422 603L534 603 534 651 422 651ZM422 693L534 693 534 742 422 742ZM422 514L534 514 534 561 422 561ZM368 470L368 786 589 786 589 470ZM115 69L115 136C115 203 143 230 251 230 287 230 658 230 724 230 795 230 869 229 898 224 895 211 892 191 888 169 856 175 763 178 711 178 646 178 312 178 250 178 193 178 182 169 182 137L182 124 924 124 924 69 536 69 536 12 461 12 461 69ZM256 522L256 588 159 588 159 522ZM408 790C388 823 348 865 310 889 313 882 314 872 314 860L314 470 102 470 102 643C102 721 95 821 33 895 47 901 72 918 82 928 121 881 141 819 151 758L256 758 256 860C256 870 253 872 242 873 232 874 199 874 161 873 168 888 177 911 179 926 232 927 266 926 287 917 299 911 307 903 310 891 324 900 345 916 356 926 390 901 435 855 462 815ZM256 639L256 708 157 708C158 686 159 664 159 644L159 639ZM646 470L646 663C646 739 638 830 569 897 583 904 606 921 616 931 689 860 701 750 701 664L701 655C731 683 763 719 778 744L811 720 811 817C811 878 814 893 826 905 837 916 854 920 870 920 878 920 893 920 902 920 916 920 929 918 937 912 948 905 955 895 960 878 964 864 967 818 968 778 953 774 935 766 923 756 923 796 922 827 920 842 919 855 915 862 913 865 910 868 905 870 900 870 894 870 886 870 882 870 877 870 874 868 872 865 869 861 869 847 869 824L869 470ZM701 632L701 525 811 525 811 693C790 666 758 635 730 612Z"/>
</svg>