<svg xmlns="http://www.w3.org/2000/svg" name="gid12513" data-unicode="贏"
    viewBox="0 0 1000 1000">
  <!--
© 2014-2021 Adobe (http://www.adobe.com/).
Noto is a trademark of Google Inc.
This Font Software is licensed under the SIL Open Font License, Version 1.1. This Font Software is distributed on an "AS IS" BASIS, WITHOUT WARRANTIES OR CONDITIONS OF ANY KIND, either express or implied. See the SIL Open Font License for the specific language, permissions and limitations governing your use of this Font Software.
http://scripts.sil.org/OFL
  -->
<path d="M493 844C515 867 540 899 553 919L598 890C585 870 558 839 537 818ZM233 351L768 351 768 406 233 406ZM165 303L165 455 838 455 838 303ZM422 633L534 633 534 681 422 681ZM422 723L534 723 534 772 422 772ZM422 544L534 544 534 591 422 591ZM368 500L368 816 589 816 589 500ZM115 99L115 166C115 233 143 260 251 260 287 260 658 260 724 260 795 260 869 259 898 254 895 241 892 221 888 199 856 205 763 208 711 208 646 208 312 208 250 208 193 208 182 199 182 167L182 154 924 154 924 99 536 99 536 42 461 42 461 99ZM256 552L256 618 159 618 159 552ZM408 820C388 853 348 895 310 919 313 912 314 902 314 890L314 500 102 500 102 673C102 751 95 851 33 925 47 931 72 948 82 958 121 911 141 849 151 788L256 788 256 890C256 900 253 902 242 903 232 904 199 904 161 903 168 918 177 941 179 956 232 957 266 956 287 947 299 941 307 933 310 921 324 930 345 946 356 956 390 931 435 885 462 845ZM256 669L256 738 157 738C158 716 159 694 159 674L159 669ZM646 500L646 693C646 769 638 860 569 927 583 934 606 951 616 961 689 890 701 780 701 694L701 685C731 713 763 749 778 774L811 750 811 847C811 908 814 923 826 935 837 946 854 950 870 950 878 950 893 950 902 950 916 950 929 948 937 942 948 935 955 925 960 908 964 894 967 848 968 808 953 804 935 796 923 786 923 826 922 857 920 872 919 885 915 892 913 895 910 898 905 900 900 900 894 900 886 900 882 900 877 900 874 898 872 895 869 891 869 877 869 854L869 500ZM701 662L701 555 811 555 811 723C790 696 758 665 730 642Z"/>
</svg>