<svg xmlns="http://www.w3.org/2000/svg"
    viewBox="0 0 1000 1000">
  <!--
© 2014-2021 Adobe (http://www.adobe.com/).
Noto is a trademark of Google Inc.
This Font Software is licensed under the SIL Open Font License, Version 1.1. This Font Software is distributed on an "AS IS" BASIS, WITHOUT WARRANTIES OR CONDITIONS OF ANY KIND, either express or implied. See the SIL Open Font License for the specific language, permissions and limitations governing your use of this Font Software.
http://scripts.sil.org/OFL
  -->
<path d="M415 483C442 549 466 636 474 693L533 676C524 619 498 534 470 468ZM93 475C81 552 60 631 26 686 42 692 68 706 80 713 112 657 137 570 152 487ZM93 131L93 198 254 198 254 322 53 322 53 392 192 392C187 625 171 786 49 878 64 890 86 913 94 929 230 826 252 645 257 392L329 392 329 847C329 857 326 860 316 860 304 861 270 861 230 860 238 880 246 909 248 927 306 927 342 926 365 914 388 903 394 883 394 847L394 392 515 392 515 322 327 322 327 198 485 198 485 131 327 131 327 9 254 9 254 131ZM630 9C603 181 558 353 486 463 503 476 531 505 542 520 565 483 585 441 604 395 627 494 656 585 694 665 638 753 563 822 463 873 478 887 504 917 513 932 604 880 675 815 732 736 781 817 842 883 917 929 929 909 953 880 970 865 890 822 826 753 776 667 834 561 873 433 899 280L951 280 951 211 663 211C679 150 693 86 704 22ZM736 589C695 497 666 392 646 280L826 280C806 399 778 501 736 589Z"/>
</svg>