<svg xmlns="http://www.w3.org/2000/svg"
    viewBox="0 0 1000 1000">
  <!--
© 2014-2021 Adobe (http://www.adobe.com/).
Noto is a trademark of Google Inc.
This Font Software is licensed under the SIL Open Font License, Version 1.1. This Font Software is distributed on an "AS IS" BASIS, WITHOUT WARRANTIES OR CONDITIONS OF ANY KIND, either express or implied. See the SIL Open Font License for the specific language, permissions and limitations governing your use of this Font Software.
http://scripts.sil.org/OFL
  -->
<path d="M590 462L852 462 852 550 590 550ZM590 609L852 609 852 698 590 698ZM590 316L852 316 852 404 590 404ZM97 475C86 545 65 639 28 700 41 708 61 721 72 730 111 665 138 566 153 488ZM383 489C413 562 441 659 448 717L501 695C494 639 465 545 433 472ZM764 799C817 841 879 896 914 933L972 897C933 858 870 806 813 764L923 764 923 251 740 251 740 160 946 160 946 96 740 96 740 10 670 10 670 251 523 251 523 764 609 764C574 804 505 852 446 880 460 894 480 916 491 930 552 899 626 848 674 800L617 764 811 764ZM45 338L45 407 179 407 179 461C179 588 169 757 54 896 69 906 91 925 101 939 226 787 239 603 239 462L239 407 309 407 309 854C309 864 306 867 296 867 285 868 254 868 216 867 225 885 233 912 236 930 287 930 322 929 344 918 367 907 372 888 372 854L372 407 496 407 496 338 310 338 310 213 461 213 461 145 310 145 310 9 239 9 239 145 90 145 90 213 239 213 239 338Z"/>
</svg>