<svg xmlns="http://www.w3.org/2000/svg"
    viewBox="0 0 1000 1000">
  <!--
© 2014-2021 Adobe (http://www.adobe.com/).
Noto is a trademark of Google Inc.
This Font Software is licensed under the SIL Open Font License, Version 1.1. This Font Software is distributed on an "AS IS" BASIS, WITHOUT WARRANTIES OR CONDITIONS OF ANY KIND, either express or implied. See the SIL Open Font License for the specific language, permissions and limitations governing your use of this Font Software.
http://scripts.sil.org/OFL
  -->
<path d="M99 463C96 641 85 802 26 903 44 911 77 929 90 938 119 883 138 813 150 734 222 871 342 904 555 904L940 904C945 882 958 847 971 830 908 833 603 833 554 832 460 832 386 825 328 803L328 599 491 599 491 533 328 533 328 384 501 384 501 316 312 316 312 190 476 190 476 123 312 123 312 11 241 11 241 123 74 123 74 190 241 190 241 316 48 316 48 384 259 384 259 765C216 731 186 680 163 606 166 562 169 516 170 468ZM548 334L548 661C548 746 576 768 670 768 690 768 824 768 846 768 931 768 953 731 962 589 942 584 911 572 895 559 890 680 884 700 841 700 810 700 699 700 677 700 629 700 620 694 620 661L620 401 833 401 833 426 905 426 905 58 538 58 538 124 833 124 833 334Z"/>
</svg>