<svg xmlns="http://www.w3.org/2000/svg" name="gid12542" data-unicode="趄"
    viewBox="0 0 1000 1000">
  <!--
© 2014-2021 Adobe (http://www.adobe.com/).
Noto is a trademark of Google Inc.
This Font Software is licensed under the SIL Open Font License, Version 1.1. This Font Software is distributed on an "AS IS" BASIS, WITHOUT WARRANTIES OR CONDITIONS OF ANY KIND, either express or implied. See the SIL Open Font License for the specific language, permissions and limitations governing your use of this Font Software.
http://scripts.sil.org/OFL
  -->
<path d="M544 93L544 728 464 728 464 793 952 793 952 728 888 728 888 93ZM611 728L611 570 818 570 818 728ZM611 507L611 362 818 362 818 507ZM611 300L611 158 818 158 818 300ZM106 493C104 668 96 822 34 919 50 928 78 951 89 961 123 905 143 836 155 756 241 914 387 943 600 943L936 943C941 921 954 887 966 870 908 872 647 872 601 872 491 872 399 865 326 832L326 621 474 621 474 554 326 554 326 419 497 419 497 352 313 352 313 226 468 226 468 159 313 159 313 40 244 40 244 159 83 159 83 226 244 226 244 352 51 352 51 419 257 419 257 789C219 757 189 712 166 650 170 602 172 551 173 497Z"/>
</svg>