<svg xmlns="http://www.w3.org/2000/svg" name="gid12585" data-unicode="跙"
    viewBox="0 0 1000 1000">
  <!--
© 2014-2021 Adobe (http://www.adobe.com/).
Noto is a trademark of Google Inc.
This Font Software is licensed under the SIL Open Font License, Version 1.1. This Font Software is distributed on an "AS IS" BASIS, WITHOUT WARRANTIES OR CONDITIONS OF ANY KIND, either express or implied. See the SIL Open Font License for the specific language, permissions and limitations governing your use of this Font Software.
http://scripts.sil.org/OFL
  -->
<path d="M150 149L338 149 338 324 150 324ZM34 843L52 914C158 884 304 842 441 803L431 736 286 776 286 598 422 598 422 532 286 532 286 390 408 390 408 84 83 84 83 390 218 390 218 795 147 814 147 484 84 484 84 830ZM567 408L799 408 799 600 567 600ZM567 340L567 150 799 150 799 340ZM567 668L799 668 799 865 567 865ZM496 80L496 865 389 865 389 935 961 935 961 865 873 865 873 80Z"/>
</svg>