<svg xmlns="http://www.w3.org/2000/svg"
    viewBox="0 0 1000 1000">
  <!--
© 2014-2021 Adobe (http://www.adobe.com/).
Noto is a trademark of Google Inc.
This Font Software is licensed under the SIL Open Font License, Version 1.1. This Font Software is distributed on an "AS IS" BASIS, WITHOUT WARRANTIES OR CONDITIONS OF ANY KIND, either express or implied. See the SIL Open Font License for the specific language, permissions and limitations governing your use of this Font Software.
http://scripts.sil.org/OFL
  -->
<path d="M152 119L332 119 332 296 152 296ZM36 808L54 879C160 849 305 807 442 767L433 704 286 743 286 565 427 565 427 499 286 499 286 361 401 361 401 54 86 54 86 361 219 361 219 761 150 779 150 454 87 454 87 795ZM554 121L832 121 832 242 554 242ZM554 434L554 308 832 308 832 434ZM899 528C864 562 808 607 760 640 740 597 725 551 713 501L905 501 905 54 481 54 481 826 400 844 418 914C506 892 626 863 739 834L732 767 554 809 554 501 643 501C688 701 771 855 921 930 932 910 954 881 971 866 893 832 833 773 788 697 840 664 902 621 952 579Z"/>
</svg>