<svg xmlns="http://www.w3.org/2000/svg" name="gid12613" data-unicode="踈"
    viewBox="0 0 1000 1000">
  <!--
© 2014-2021 Adobe (http://www.adobe.com/).
Noto is a trademark of Google Inc.
This Font Software is licensed under the SIL Open Font License, Version 1.1. This Font Software is distributed on an "AS IS" BASIS, WITHOUT WARRANTIES OR CONDITIONS OF ANY KIND, either express or implied. See the SIL Open Font License for the specific language, permissions and limitations governing your use of this Font Software.
http://scripts.sil.org/OFL
  -->
<path d="M150 148L319 148 319 325 150 325ZM446 312L446 598 602 598C545 708 451 805 347 854 363 867 385 893 397 911 494 858 583 762 644 651L644 960 716 960 716 645C770 749 848 847 925 902 937 883 960 857 976 843 894 793 809 698 756 598L924 598 924 312 716 312 716 217 951 217 951 147 716 147 716 44 644 44 644 147 419 147 419 217 644 217 644 312ZM512 377L644 377 644 533 512 533ZM716 377L854 377 854 533 716 533ZM37 837L54 908C155 880 291 843 422 807L413 741 277 777 277 601 409 601 409 534 277 534 277 390 387 390 387 84 85 84 85 390 210 390 210 795 147 811 147 485 84 485 84 826Z"/>
</svg>