<svg xmlns="http://www.w3.org/2000/svg"
    viewBox="0 0 1000 1000">
  <!--
© 2014-2021 Adobe (http://www.adobe.com/).
Noto is a trademark of Google Inc.
This Font Software is licensed under the SIL Open Font License, Version 1.1. This Font Software is distributed on an "AS IS" BASIS, WITHOUT WARRANTIES OR CONDITIONS OF ANY KIND, either express or implied. See the SIL Open Font License for the specific language, permissions and limitations governing your use of this Font Software.
http://scripts.sil.org/OFL
  -->
<path d="M150 118L319 118 319 295 150 295ZM446 282L446 568 602 568C545 678 451 775 347 824 363 837 385 863 397 881 494 828 583 732 644 621L644 930 716 930 716 615C770 719 848 817 925 872 937 853 960 827 976 813 894 763 809 668 756 568L924 568 924 282 716 282 716 187 951 187 951 117 716 117 716 14 644 14 644 117 419 117 419 187 644 187 644 282ZM512 347L644 347 644 503 512 503ZM716 347L854 347 854 503 716 503ZM37 807L54 878C155 850 291 813 422 777L413 711 277 747 277 571 409 571 409 504 277 504 277 360 387 360 387 54 85 54 85 360 210 360 210 765 147 781 147 455 84 455 84 796Z"/>
</svg>