<svg xmlns="http://www.w3.org/2000/svg"
    viewBox="0 0 1000 1000">
  <!--
© 2014-2021 Adobe (http://www.adobe.com/).
Noto is a trademark of Google Inc.
This Font Software is licensed under the SIL Open Font License, Version 1.1. This Font Software is distributed on an "AS IS" BASIS, WITHOUT WARRANTIES OR CONDITIONS OF ANY KIND, either express or implied. See the SIL Open Font License for the specific language, permissions and limitations governing your use of this Font Software.
http://scripts.sil.org/OFL
  -->
<path d="M145 118L312 118 312 292 145 292ZM545 700C584 738 627 791 647 827L700 785C680 751 636 700 596 665ZM622 11L616 115 420 115 420 179 610 179 602 253 443 253 443 316 594 316C590 346 585 374 579 402L393 402 393 466 564 466C557 494 548 522 539 548L398 548 398 614 512 614C483 675 447 728 402 773L394 715 269 749 269 569 391 569 391 503 269 503 269 357 380 357 380 54 80 54 80 357 203 357 203 767 141 783 141 455 80 455 80 798 36 809 53 880 392 783C379 796 365 808 350 819 366 832 393 859 403 873 485 803 544 717 586 614L789 614 789 845C789 856 785 860 771 860 758 861 714 861 665 860 675 878 686 908 689 926 756 926 798 925 825 914 851 903 859 883 859 845L859 614 961 614 961 548 859 548 859 466 958 466 958 402 647 402 661 316 919 316 919 253 670 253 678 179 936 179 936 115 684 115 691 14ZM789 548L609 548C618 522 626 494 633 466L789 466Z"/>
</svg>