<svg xmlns="http://www.w3.org/2000/svg"
    viewBox="0 0 1000 1000">
  <!--
© 2014-2021 Adobe (http://www.adobe.com/).
Noto is a trademark of Google Inc.
This Font Software is licensed under the SIL Open Font License, Version 1.1. This Font Software is distributed on an "AS IS" BASIS, WITHOUT WARRANTIES OR CONDITIONS OF ANY KIND, either express or implied. See the SIL Open Font License for the specific language, permissions and limitations governing your use of this Font Software.
http://scripts.sil.org/OFL
  -->
<path d="M674 46C723 65 787 101 819 126L867 84C834 60 771 27 720 9ZM648 469C699 489 762 527 797 554L844 513C810 487 745 453 694 432ZM149 117L314 117 314 297 149 297ZM522 10C530 60 541 108 556 153L404 164 409 225 577 212C593 251 612 287 633 318 559 348 475 371 396 387 409 402 428 431 434 446 512 426 595 400 672 366 725 425 793 460 874 463 915 464 942 432 960 342 944 336 921 322 906 307 900 367 888 392 868 392 821 390 777 369 739 334 794 305 843 271 880 233L818 209C787 239 746 266 699 289 681 265 664 238 650 207L945 185 940 125 626 148C611 106 600 59 592 10ZM506 436C514 486 524 534 536 579L392 589 397 651 556 639C575 692 598 740 626 781 543 820 448 849 354 869 366 884 386 916 393 931 487 907 581 874 666 832 722 892 792 929 878 933 923 934 952 898 970 801 954 795 929 780 913 765 906 832 894 862 872 861 819 858 772 835 731 795 794 756 849 711 889 657L825 631C791 675 744 714 689 747 666 715 646 677 629 634L959 610 955 550 608 574C595 531 585 485 578 436ZM37 799L51 869C150 843 284 810 412 777L405 711 273 744 273 569 400 569 400 503 273 503 273 361 381 361 381 53 84 53 84 361 208 361 208 760 145 775 145 455 83 455 83 789Z"/>
</svg>