<svg xmlns="http://www.w3.org/2000/svg"
    viewBox="0 0 1000 1000">
  <!--
© 2014-2021 Adobe (http://www.adobe.com/).
Noto is a trademark of Google Inc.
This Font Software is licensed under the SIL Open Font License, Version 1.1. This Font Software is distributed on an "AS IS" BASIS, WITHOUT WARRANTIES OR CONDITIONS OF ANY KIND, either express or implied. See the SIL Open Font License for the specific language, permissions and limitations governing your use of this Font Software.
http://scripts.sil.org/OFL
  -->
<path d="M135 118L276 118 276 294 135 294ZM427 9C412 135 386 261 339 345L339 53 75 53 75 359 201 359 201 760 136 777 136 455 78 455 78 792 36 802 50 871C139 846 257 813 370 780L361 717 261 744 261 564 355 564 355 498 261 498 261 359 339 359 339 348C356 357 384 375 395 385 419 340 439 283 456 220L489 220 489 418 367 418 367 488 487 488C481 619 448 769 314 880 328 890 352 915 361 929 451 855 500 760 526 665 571 716 614 776 636 817L682 760C654 712 597 641 543 585 549 552 552 519 553 488L667 488 667 418 555 418 555 220 655 220 655 153 471 153C480 110 488 66 494 21ZM687 118L687 897 750 897 750 825 864 825 864 881 930 881 930 118ZM750 756L750 186 864 186 864 756Z"/>
</svg>