<svg xmlns="http://www.w3.org/2000/svg" name="gid12626" data-unicode="踠"
    viewBox="0 0 1000 1000">
  <!--
© 2014-2021 Adobe (http://www.adobe.com/).
Noto is a trademark of Google Inc.
This Font Software is licensed under the SIL Open Font License, Version 1.1. This Font Software is distributed on an "AS IS" BASIS, WITHOUT WARRANTIES OR CONDITIONS OF ANY KIND, either express or implied. See the SIL Open Font License for the specific language, permissions and limitations governing your use of this Font Software.
http://scripts.sil.org/OFL
  -->
<path d="M150 165L311 165 311 342 150 342ZM688 363L688 857C688 933 708 951 775 951 789 951 867 951 882 951 943 951 960 916 966 798 949 793 923 783 910 772 907 872 903 892 877 892 861 892 795 892 783 892 755 892 751 886 751 857L751 426 860 426 860 655C860 664 858 666 851 666 842 667 820 667 792 666 800 682 808 707 809 724 850 724 879 724 898 713 918 702 922 685 922 656L922 363ZM35 841L50 912C147 886 278 851 403 817L395 752 272 783 272 606 370 606 352 630C368 638 395 657 406 668 421 649 434 627 447 604 483 630 520 662 547 689 503 793 441 866 365 909 380 921 397 947 405 963 555 872 647 696 676 392L636 384 625 386 526 386C532 361 537 334 542 308L479 297 479 223 875 223 875 332 946 332 946 158 708 158 708 45 635 45 635 158 410 158 410 332 471 332C453 431 422 524 377 595L377 539 272 539 272 407 376 407 376 100 87 100 87 407 209 407 209 799 145 815 145 486 89 486 89 829ZM510 448L608 448C599 512 587 570 571 622 544 598 508 570 474 548 487 517 499 483 510 448Z"/>
</svg>