<svg xmlns="http://www.w3.org/2000/svg" name="gid12631" data-unicode="踧"
    viewBox="0 0 1000 1000">
  <!--
© 2014-2021 Adobe (http://www.adobe.com/).
Noto is a trademark of Google Inc.
This Font Software is licensed under the SIL Open Font License, Version 1.1. This Font Software is distributed on an "AS IS" BASIS, WITHOUT WARRANTIES OR CONDITIONS OF ANY KIND, either express or implied. See the SIL Open Font License for the specific language, permissions and limitations governing your use of this Font Software.
http://scripts.sil.org/OFL
  -->
<path d="M137 147L282 147 282 316 137 316ZM573 554C601 623 628 713 638 768L695 744C686 692 656 603 628 536ZM397 541C387 618 372 698 348 761L345 739 253 770 253 589 350 589 350 524 253 524 253 380 345 380 345 83 77 83 77 380 193 380 193 790 134 809 134 483 77 483 77 827 33 840 51 908 338 809C353 817 373 827 383 834 417 764 442 657 457 553ZM481 43L481 385 355 385 355 449 486 449 486 884C486 894 483 897 473 897 462 898 431 898 394 897 404 915 415 943 418 961 466 961 499 959 521 948 543 937 550 918 550 885L550 449 683 449 683 385 546 385 546 245 651 245 651 182 546 182 546 43ZM744 199L685 206C701 377 725 534 765 667 721 773 667 856 603 912 619 923 639 945 650 961 707 908 756 841 797 757 830 840 873 909 928 961 940 942 963 917 979 904 917 850 870 769 834 670 888 528 924 347 938 122L897 114 885 116 659 116 659 181 870 181C858 325 834 453 802 562 774 453 756 329 744 199Z"/>
</svg>