<svg xmlns="http://www.w3.org/2000/svg" name="gid12632" data-unicode="踪"
    viewBox="0 0 1000 1000">
  <!--
© 2014-2021 Adobe (http://www.adobe.com/).
Noto is a trademark of Google Inc.
This Font Software is licensed under the SIL Open Font License, Version 1.1. This Font Software is distributed on an "AS IS" BASIS, WITHOUT WARRANTIES OR CONDITIONS OF ANY KIND, either express or implied. See the SIL Open Font License for the specific language, permissions and limitations governing your use of this Font Software.
http://scripts.sil.org/OFL
  -->
<path d="M150 146L320 146 320 328 150 328ZM497 333L497 399 877 399 877 333ZM797 644C841 718 884 817 896 879L964 854C949 791 905 695 859 621ZM503 623C485 685 456 747 422 798L415 739 283 774 283 598 408 598 408 531 283 531 283 392 389 392 389 82 84 82 84 392 216 392 216 792 148 809 148 486 86 486 86 824 30 837 49 908 418 804C407 820 396 835 384 849 401 858 431 878 444 890 494 828 542 733 572 639ZM425 146L425 317 494 317 494 211 879 211 879 317 950 317 950 146 724 146 724 44 651 44 651 146ZM431 497L431 564 651 564 651 879C651 891 647 894 633 895 620 896 575 896 525 895 534 914 543 941 546 960 616 960 659 959 687 948 714 938 722 919 722 880L722 564 947 564 947 497Z"/>
</svg>