<svg xmlns="http://www.w3.org/2000/svg"
    viewBox="0 0 1000 1000">
  <!--
© 2014-2021 Adobe (http://www.adobe.com/).
Noto is a trademark of Google Inc.
This Font Software is licensed under the SIL Open Font License, Version 1.1. This Font Software is distributed on an "AS IS" BASIS, WITHOUT WARRANTIES OR CONDITIONS OF ANY KIND, either express or implied. See the SIL Open Font License for the specific language, permissions and limitations governing your use of this Font Software.
http://scripts.sil.org/OFL
  -->
<path d="M150 116L320 116 320 298 150 298ZM497 303L497 369 877 369 877 303ZM797 614C841 688 884 787 896 849L964 824C949 761 905 665 859 591ZM503 593C485 655 456 717 422 768L415 709 283 744 283 568 408 568 408 501 283 501 283 362 389 362 389 52 84 52 84 362 216 362 216 762 148 779 148 456 86 456 86 794 30 807 49 878 418 774C407 790 396 805 384 819 401 828 431 848 444 860 494 798 542 703 572 609ZM425 116L425 287 494 287 494 181 879 181 879 287 950 287 950 116 724 116 724 14 651 14 651 116ZM431 467L431 534 651 534 651 849C651 861 647 864 633 865 620 866 575 866 525 865 534 884 543 911 546 930 616 930 659 929 687 918 714 908 722 889 722 850L722 534 947 534 947 467Z"/>
</svg>