<svg xmlns="http://www.w3.org/2000/svg" name="gid12638" data-unicode="踶"
    viewBox="0 0 1000 1000">
  <!--
© 2014-2021 Adobe (http://www.adobe.com/).
Noto is a trademark of Google Inc.
This Font Software is licensed under the SIL Open Font License, Version 1.1. This Font Software is distributed on an "AS IS" BASIS, WITHOUT WARRANTIES OR CONDITIONS OF ANY KIND, either express or implied. See the SIL Open Font License for the specific language, permissions and limitations governing your use of this Font Software.
http://scripts.sil.org/OFL
  -->
<path d="M151 145L317 145 317 325 151 325ZM535 265L829 265 829 344 535 344ZM535 131L829 131 829 209 535 209ZM468 73L468 402 898 402 898 73ZM37 836L54 906C153 877 288 838 415 800L406 735 273 773 273 593 401 593 401 528 273 528 273 389 384 389 384 81 86 81 86 389 208 389 208 791 145 808 145 483 83 483 83 825ZM484 592C470 734 431 846 346 918 362 927 390 949 401 961 448 918 483 864 508 799 565 916 654 942 783 942L949 942C952 923 962 891 972 874 939 875 810 875 787 875 761 875 736 874 713 870L713 723 917 723 917 657 713 657 713 536 959 536 959 470 412 470 412 536 643 536 643 851C595 828 559 787 534 713 542 677 548 639 553 598Z"/>
</svg>