<svg xmlns="http://www.w3.org/2000/svg"
    viewBox="0 0 1000 1000">
  <!--
© 2014-2021 Adobe (http://www.adobe.com/).
Noto is a trademark of Google Inc.
This Font Software is licensed under the SIL Open Font License, Version 1.1. This Font Software is distributed on an "AS IS" BASIS, WITHOUT WARRANTIES OR CONDITIONS OF ANY KIND, either express or implied. See the SIL Open Font License for the specific language, permissions and limitations governing your use of this Font Software.
http://scripts.sil.org/OFL
  -->
<path d="M144 118L303 118 303 294 144 294ZM36 808L54 878C148 851 272 816 391 782L382 718 281 745 281 565 381 565 381 499 281 499 281 359 373 359 373 53 78 53 78 359 215 359 215 763 146 781 146 454 84 454 84 797ZM414 520L414 929 481 929 481 586 568 586 568 914 628 914 628 586 719 586 719 912 780 912 780 586 872 586 872 861C872 869 869 871 862 872 854 872 830 872 803 871 812 888 821 914 824 930 867 930 894 930 914 919 935 909 939 892 939 861L939 520 677 520 704 430 960 430 960 365 386 365 386 430 623 430C619 460 613 492 607 520ZM424 60L424 294 923 294 923 60 853 60 853 228 702 228 702 10 632 10 632 228 492 228 492 60Z"/>
</svg>