<svg xmlns="http://www.w3.org/2000/svg" name="gid12642" data-unicode="踽"
    viewBox="0 0 1000 1000">
  <!--
© 2014-2021 Adobe (http://www.adobe.com/).
Noto is a trademark of Google Inc.
This Font Software is licensed under the SIL Open Font License, Version 1.1. This Font Software is distributed on an "AS IS" BASIS, WITHOUT WARRANTIES OR CONDITIONS OF ANY KIND, either express or implied. See the SIL Open Font License for the specific language, permissions and limitations governing your use of this Font Software.
http://scripts.sil.org/OFL
  -->
<path d="M140 148L320 148 320 324 140 324ZM506 755L513 814 793 782C800 803 807 823 811 839L852 825C839 778 809 704 782 647L743 659 773 732 699 739 699 612 866 612 866 889C866 901 861 904 850 905 838 906 791 906 746 905 754 920 763 942 767 957 830 957 871 957 895 949 921 939 929 924 929 889L929 548 705 548 705 466 907 466 907 226 705 226 705 140C783 130 857 117 916 101L865 45C764 72 583 92 431 100 438 116 446 143 449 161 511 158 577 153 643 146L643 226 451 226 451 466 643 466 643 548 426 548 426 959 488 959 488 612 643 612 643 744ZM512 288L643 288 643 404 512 404ZM705 288L844 288 844 404 705 404ZM35 838L52 909C146 880 277 839 399 802L391 736 271 772 271 595 390 595 390 529 271 529 271 389 381 389 381 83 81 83 81 389 212 389 212 789 138 810 138 484 82 484 82 825Z"/>
</svg>