<svg xmlns="http://www.w3.org/2000/svg"
    viewBox="0 0 1000 1000">
  <!--
© 2014-2021 Adobe (http://www.adobe.com/).
Noto is a trademark of Google Inc.
This Font Software is licensed under the SIL Open Font License, Version 1.1. This Font Software is distributed on an "AS IS" BASIS, WITHOUT WARRANTIES OR CONDITIONS OF ANY KIND, either express or implied. See the SIL Open Font License for the specific language, permissions and limitations governing your use of this Font Software.
http://scripts.sil.org/OFL
  -->
<path d="M150 118L312 118 312 294 150 294ZM407 584L407 648 594 648C534 731 439 809 352 849 367 862 389 887 401 904 484 859 573 780 637 693L637 930 708 930 708 690C769 771 852 850 923 895 935 878 957 853 973 840 897 800 809 724 749 648L949 648 949 584 708 584 708 489 637 489 637 584ZM530 158C573 177 623 204 665 231L415 231 415 292 594 292C537 351 458 406 390 436 404 448 425 471 435 487 514 446 606 369 665 292L673 292 673 411C673 421 669 424 658 424 646 425 607 425 564 423 572 441 580 463 584 482 644 482 684 482 710 472 736 463 742 446 742 413L742 292 866 292C846 331 825 369 807 397L868 417C897 374 932 305 964 244L912 228 900 231 769 231 723 200C785 165 850 118 896 70L850 36 835 40 461 40 461 99 769 99C739 124 703 149 669 168 637 151 604 134 573 121ZM33 808L53 879C147 849 274 811 393 773L383 708 288 736 288 565 386 565 386 499 288 499 288 359 382 359 382 53 84 53 84 359 223 359 223 755 152 776 152 454 90 454 90 793Z"/>
</svg>