<svg xmlns="http://www.w3.org/2000/svg" name="gid12648" data-unicode="蹈"
    viewBox="0 0 1000 1000">
  <!--
© 2014-2021 Adobe (http://www.adobe.com/).
Noto is a trademark of Google Inc.
This Font Software is licensed under the SIL Open Font License, Version 1.1. This Font Software is distributed on an "AS IS" BASIS, WITHOUT WARRANTIES OR CONDITIONS OF ANY KIND, either express or implied. See the SIL Open Font License for the specific language, permissions and limitations governing your use of this Font Software.
http://scripts.sil.org/OFL
  -->
<path d="M147 147L303 147 303 327 147 327ZM618 196C640 253 655 327 657 374L723 358C720 311 703 237 681 182ZM785 171C836 240 886 335 903 398L966 370C946 307 896 214 843 146ZM474 101C455 205 420 309 370 380L370 83 82 83 82 391 202 391 202 799 142 814 142 485 81 485 81 829 36 839 51 909C147 883 277 848 400 815L393 750 267 783 267 602 383 602 383 536 267 536 267 391 370 391 370 388C388 397 417 415 430 424 474 360 511 266 536 165 658 149 796 124 894 92L834 40C762 66 637 92 523 110ZM703 459L703 525 848 525 848 653 709 653 709 718 848 718 848 850 509 850 509 718 641 718 641 653 509 653 509 534C569 509 634 476 683 443L622 393C588 423 530 457 475 483L438 473 438 960 509 960 509 916 848 916 848 959 920 959 920 459Z"/>
</svg>