<svg xmlns="http://www.w3.org/2000/svg"
    viewBox="0 0 1000 1000">
  <!--
© 2014-2021 Adobe (http://www.adobe.com/).
Noto is a trademark of Google Inc.
This Font Software is licensed under the SIL Open Font License, Version 1.1. This Font Software is distributed on an "AS IS" BASIS, WITHOUT WARRANTIES OR CONDITIONS OF ANY KIND, either express or implied. See the SIL Open Font License for the specific language, permissions and limitations governing your use of this Font Software.
http://scripts.sil.org/OFL
  -->
<path d="M150 118L319 118 319 295 150 295ZM37 807L54 878 408 783C385 821 358 853 328 881 344 891 375 916 388 928 467 849 522 739 557 604L557 657 692 657 692 833 484 833 484 899 962 899 962 833 764 833 764 657 918 657 918 592 560 592C568 561 575 529 580 495L962 495 962 431 717 431 717 348 928 348 928 288 717 288 717 204 949 204 949 142 818 142C839 112 864 71 887 32L814 9C800 46 770 100 748 134L772 142 595 142 622 132C611 99 586 49 559 12L494 34C514 66 536 109 548 142L427 142 427 204 644 204 644 288 450 288 450 348 644 348 644 431 403 431 403 495 507 495C489 598 461 690 418 765L412 714 277 749 277 571 409 571 409 504 277 504 277 360 387 360 387 54 85 54 85 360 210 360 210 766 147 782 147 455 84 455 84 797Z"/>
</svg>