<svg xmlns="http://www.w3.org/2000/svg" name="gid12659" data-unicode="蹙"
    viewBox="0 0 1000 1000">
  <!--
© 2014-2021 Adobe (http://www.adobe.com/).
Noto is a trademark of Google Inc.
This Font Software is licensed under the SIL Open Font License, Version 1.1. This Font Software is distributed on an "AS IS" BASIS, WITHOUT WARRANTIES OR CONDITIONS OF ANY KIND, either express or implied. See the SIL Open Font License for the specific language, permissions and limitations governing your use of this Font Software.
http://scripts.sil.org/OFL
  -->
<path d="M235 594L770 594 770 655 235 655ZM262 372C245 410 216 446 182 474 194 481 215 496 225 504 259 474 294 428 314 384ZM449 392C479 418 513 456 527 483L569 454C554 428 521 392 490 367ZM238 732C212 821 135 878 35 913 52 924 80 949 91 962 156 934 215 896 257 844 342 928 471 945 670 945L941 945C945 928 955 900 965 885 915 886 706 886 671 886 624 886 580 885 540 883L540 814 892 814 892 765 540 765 540 703 847 703 847 546 163 546 163 703 464 703 464 875C387 864 327 841 288 797 297 779 304 760 310 740ZM705 66C739 81 778 104 804 123L665 123C662 97 659 69 658 41L590 41C592 69 594 96 597 123L121 123 121 255C121 334 111 437 36 515 51 524 80 546 91 560 173 475 190 349 190 256L190 178 340 178 340 308 211 308 211 353 360 353 360 460C360 468 357 471 347 472 338 473 312 473 278 472 286 485 296 504 301 520 346 520 376 520 398 511 419 503 424 492 424 461L424 353 589 353 589 308 402 308 402 262 558 262 558 222 402 222 402 178 606 178C622 263 647 338 679 396 640 431 597 460 551 484 566 494 590 518 599 531 639 507 677 480 713 448 754 502 803 533 856 533 913 532 938 502 949 388 931 382 909 370 894 356 890 435 882 467 859 467 826 467 792 443 761 401 810 349 851 288 880 220L817 207C796 258 765 305 729 347 706 301 687 243 674 178L931 178 931 123 826 123 862 98C837 77 790 52 752 36Z"/>
</svg>