<svg xmlns="http://www.w3.org/2000/svg" name="gid12669" data-unicode="蹤"
    viewBox="0 0 1000 1000">
  <!--
© 2014-2021 Adobe (http://www.adobe.com/).
Noto is a trademark of Google Inc.
This Font Software is licensed under the SIL Open Font License, Version 1.1. This Font Software is distributed on an "AS IS" BASIS, WITHOUT WARRANTIES OR CONDITIONS OF ANY KIND, either express or implied. See the SIL Open Font License for the specific language, permissions and limitations governing your use of this Font Software.
http://scripts.sil.org/OFL
  -->
<path d="M139 148L275 148 275 326 139 326ZM484 267C457 358 405 469 345 550L345 536 250 536 250 391 338 391 338 83 78 83 78 391 189 391 189 797 133 812 133 485 75 485 75 826 35 835 50 905C139 879 256 847 369 816L361 752 250 781 250 602 345 602 345 587C353 597 362 609 367 618 389 592 409 562 429 531L429 959 492 959 492 415C513 371 531 327 546 286ZM475 42C449 116 395 210 338 271 350 282 370 304 380 318 443 251 503 149 540 62ZM646 44C628 186 595 313 529 396 542 406 567 428 577 439 613 393 641 335 662 269 680 296 700 328 709 347L747 284C738 272 703 231 680 205 692 157 701 106 708 52ZM730 426L730 841C694 810 666 756 647 664 654 610 656 557 658 512L593 510C592 632 583 822 503 923 517 931 539 950 550 961 586 916 610 855 626 789 675 918 751 947 850 947L949 947C951 929 960 897 970 881 945 881 872 882 855 882 834 882 815 880 796 875L796 663 938 663 938 598 796 598 796 426ZM827 44C814 184 782 302 709 378 723 387 746 410 754 421 790 383 817 337 838 283 872 333 907 387 926 426L972 380C948 337 903 270 861 213 874 163 884 109 890 50Z"/>
</svg>