<svg xmlns="http://www.w3.org/2000/svg"
    viewBox="0 0 1000 1000">
  <!--
© 2014-2021 Adobe (http://www.adobe.com/).
Noto is a trademark of Google Inc.
This Font Software is licensed under the SIL Open Font License, Version 1.1. This Font Software is distributed on an "AS IS" BASIS, WITHOUT WARRANTIES OR CONDITIONS OF ANY KIND, either express or implied. See the SIL Open Font License for the specific language, permissions and limitations governing your use of this Font Software.
http://scripts.sil.org/OFL
  -->
<path d="M541 473L800 473 800 593 541 593ZM473 414L473 652 871 652 871 414ZM154 137L327 137 327 311 154 311ZM90 70L90 377 218 377 218 769 149 784 149 456 92 456 92 796 35 807 51 880C153 855 291 823 422 792L415 724 280 755 280 577 398 577 398 509 280 509 280 377 382 377 361 390C375 402 393 426 402 441 459 406 512 354 556 287L556 342 792 342 792 288C830 349 876 399 929 434 940 417 962 391 978 378 936 354 898 318 866 275 898 254 935 225 967 197L918 155C898 176 865 206 836 231 823 211 811 189 800 166 833 143 870 113 902 84L855 41C836 62 807 91 779 115 766 82 756 48 747 13L686 27C709 121 743 209 788 282L560 282C600 220 632 146 651 62L610 46 598 49 439 49 439 113 571 113C559 150 543 185 525 217 503 195 473 172 447 155L410 202C437 221 467 247 490 271 461 310 428 343 394 368L394 70ZM768 661C756 707 732 775 713 817L760 832 562 832 623 813C616 773 595 712 568 668L506 687C530 731 550 792 556 832L383 832 383 898 953 898 953 832 775 832C795 793 818 734 838 682Z"/>
</svg>