<svg xmlns="http://www.w3.org/2000/svg"
    viewBox="0 0 1000 1000">
  <!--
© 2014-2021 Adobe (http://www.adobe.com/).
Noto is a trademark of Google Inc.
This Font Software is licensed under the SIL Open Font License, Version 1.1. This Font Software is distributed on an "AS IS" BASIS, WITHOUT WARRANTIES OR CONDITIONS OF ANY KIND, either express or implied. See the SIL Open Font License for the specific language, permissions and limitations governing your use of this Font Software.
http://scripts.sil.org/OFL
  -->
<path d="M141 117L297 117 297 294 141 294ZM32 799L47 869C144 844 276 810 401 778L395 712 261 745 261 567 376 567 376 502 261 502 261 358 364 358 364 53 77 53 77 358 196 358 196 761 138 775 138 455 76 455 76 789ZM832 113C817 151 787 209 765 244L811 263 709 263 709 103C782 92 850 79 905 63L857 10C756 40 571 63 419 75 426 90 434 114 437 131 502 126 572 120 641 112L641 263 527 263 580 242C570 213 545 168 521 134L464 154C485 188 508 233 518 263L398 263 398 326 592 326C539 397 458 464 382 498 397 511 418 535 429 552 505 511 587 436 641 355L641 514 709 514 709 344C764 425 848 505 922 548 934 531 956 507 972 494 899 460 818 394 766 326L959 326 959 263 820 263C844 230 874 181 899 137ZM643 603L643 686 513 686 513 603ZM707 603L841 603 841 686 707 686ZM643 741L643 829 513 829 513 741ZM707 741L841 741 841 829 707 829ZM446 543L446 930 513 930 513 888 841 888 841 924 910 924 910 543Z"/>
</svg>