<svg xmlns="http://www.w3.org/2000/svg"
    viewBox="0 0 1000 1000">
  <!--
© 2014-2021 Adobe (http://www.adobe.com/).
Noto is a trademark of Google Inc.
This Font Software is licensed under the SIL Open Font License, Version 1.1. This Font Software is distributed on an "AS IS" BASIS, WITHOUT WARRANTIES OR CONDITIONS OF ANY KIND, either express or implied. See the SIL Open Font License for the specific language, permissions and limitations governing your use of this Font Software.
http://scripts.sil.org/OFL
  -->
<path d="M134 117L261 117 261 283 134 283ZM33 804L49 873C133 847 244 814 350 781L340 719 242 747 242 560 334 560 334 496 242 496 242 346 323 346 323 54 74 54 74 346 182 346 182 764 128 779 128 453 71 453 71 794ZM353 99L353 158 644 158 644 99 530 99 530 12 465 12 465 99ZM677 225L677 282 867 282 867 376 677 376 677 823C677 901 697 920 768 920 783 920 867 920 883 920 938 920 958 896 966 810 946 806 919 795 906 783 903 844 898 856 876 856 858 856 790 856 777 856 749 856 744 851 744 822L744 771 939 771 939 718 744 718 744 657 917 657 917 605 744 605 744 545 928 545 928 493 744 493 744 434 933 434 933 225 744 225 744 154 961 154 961 93 744 93 744 10 677 10ZM561 161C553 199 537 259 524 296L563 309 425 309 468 296C465 260 451 205 435 163L385 178C400 219 412 272 415 309L339 309 339 371 652 371 652 309 573 309C587 273 602 224 618 178ZM434 611L564 611 564 684 434 684ZM434 559L434 485 564 485 564 559ZM371 428L371 929 434 929 434 736 564 736 564 857C564 866 561 868 554 869 546 869 521 869 493 868 502 885 512 911 515 928 556 928 583 927 602 917 621 905 627 888 627 858L627 428Z"/>
</svg>