<svg xmlns="http://www.w3.org/2000/svg" name="gid12732" data-unicode="軈"
    viewBox="0 0 1000 1000">
  <!--
© 2014-2021 Adobe (http://www.adobe.com/).
Noto is a trademark of Google Inc.
This Font Software is licensed under the SIL Open Font License, Version 1.1. This Font Software is distributed on an "AS IS" BASIS, WITHOUT WARRANTIES OR CONDITIONS OF ANY KIND, either express or implied. See the SIL Open Font License for the specific language, permissions and limitations governing your use of this Font Software.
http://scripts.sil.org/OFL
  -->
<path d="M614 747L614 879C614 938 629 953 692 953 705 953 768 953 781 953 828 953 845 933 851 850 834 846 810 839 798 829 796 893 792 900 773 900 759 900 710 900 700 900 678 900 674 898 674 879L674 747ZM526 749C516 808 492 872 453 908L499 943C545 900 566 829 578 765ZM624 702C671 721 728 758 757 786L793 743C764 717 706 683 659 664ZM818 762C862 816 904 889 916 938L971 910C957 860 914 790 869 738ZM410 142L410 495C410 626 404 798 338 921 353 928 380 947 391 959 462 830 473 635 473 495L473 448 492 477C506 461 520 442 533 422L533 670 589 670 589 432C600 443 614 462 620 471 633 455 646 438 659 418L659 657 960 657 960 609 839 609 839 547 927 547 927 504 839 504 839 446 927 446 927 403 839 403 839 346 940 346 940 299 848 299 882 226 829 210C823 234 809 271 798 299L723 299C734 273 744 247 753 220L701 206C677 286 637 365 589 420L589 319C604 285 618 250 629 215L576 201C553 276 516 352 473 409L473 200 959 200 959 142 710 142 710 40 641 40 641 142ZM786 446L786 504 711 504 711 446ZM786 403L711 403 711 346 786 346ZM786 609L711 609 711 547 786 547ZM38 596L51 659 222 628C168 709 104 781 34 834 47 845 72 869 81 880 149 824 214 750 269 665L269 880C269 894 264 898 251 898 239 899 198 899 151 898 160 915 169 944 171 961 237 961 276 960 300 949 324 938 333 918 333 881L333 554C345 530 357 505 367 480L333 471 333 150 226 150C241 121 257 85 271 50L198 39C191 71 175 116 162 150L91 150 91 589ZM269 207L269 290 148 290 148 207ZM148 345L269 345 269 431 148 431ZM148 486L269 486 269 547 260 563 148 581Z"/>
</svg>