<svg xmlns="http://www.w3.org/2000/svg"
    viewBox="0 0 1000 1000">
  <!--
© 2014-2021 Adobe (http://www.adobe.com/).
Noto is a trademark of Google Inc.
This Font Software is licensed under the SIL Open Font License, Version 1.1. This Font Software is distributed on an "AS IS" BASIS, WITHOUT WARRANTIES OR CONDITIONS OF ANY KIND, either express or implied. See the SIL Open Font License for the specific language, permissions and limitations governing your use of this Font Software.
http://scripts.sil.org/OFL
  -->
<path d="M601 23L601 782C601 887 625 917 712 917 729 917 829 917 848 917 938 917 956 851 965 664 944 659 914 644 894 629 889 801 884 845 843 845 820 845 739 845 721 845 684 845 676 836 676 784L676 23ZM83 260L83 608 260 608 260 690 42 690 42 757 260 757 260 929 332 929 332 757 537 757 537 690 332 690 332 608 514 608 514 260 332 260 332 185 532 185 532 117 332 117 332 9 260 9 260 117 53 117 53 185 260 185 260 260ZM146 460L265 460 265 551 146 551ZM327 460L449 460 449 551 327 551ZM146 316L265 316 265 406 146 406ZM327 316L449 316 449 406 327 406Z"/>
</svg>