<svg xmlns="http://www.w3.org/2000/svg"
    viewBox="0 0 1000 1000">
  <!--
© 2014-2021 Adobe (http://www.adobe.com/).
Noto is a trademark of Google Inc.
This Font Software is licensed under the SIL Open Font License, Version 1.1. This Font Software is distributed on an "AS IS" BASIS, WITHOUT WARRANTIES OR CONDITIONS OF ANY KIND, either express or implied. See the SIL Open Font License for the specific language, permissions and limitations governing your use of this Font Software.
http://scripts.sil.org/OFL
  -->
<path d="M74 259L74 607 216 607 216 689 38 689 38 755 216 755 216 931 284 931 284 755 452 755C439 802 421 847 396 886 412 894 442 916 453 927 543 787 555 570 555 418L555 143 947 143 947 74 486 74 486 418C486 516 483 637 454 746L454 689 284 689 284 607 429 607 429 259 284 259 284 185 440 185 440 119 284 119 284 10 216 10 216 119 52 119 52 185 216 185 216 259ZM626 256L626 808C626 896 650 918 729 918 746 918 848 918 866 918 942 918 960 874 968 732 949 727 921 715 905 703 901 827 896 853 862 853 840 853 754 853 737 853 702 853 695 845 695 808L695 322 849 322 849 556C849 566 847 569 836 570 826 570 795 570 754 569 763 588 771 615 774 635 828 635 865 634 889 623 913 611 918 592 918 557L918 256ZM131 459L223 459 223 551 131 551ZM277 459L371 459 371 551 277 551ZM131 315L223 315 223 405 131 405ZM277 315L371 315 371 405 277 405Z"/>
</svg>