<svg xmlns="http://www.w3.org/2000/svg" name="gid12759" data-unicode="軾"
    viewBox="0 0 1000 1000">
  <!--
© 2014-2021 Adobe (http://www.adobe.com/).
Noto is a trademark of Google Inc.
This Font Software is licensed under the SIL Open Font License, Version 1.1. This Font Software is distributed on an "AS IS" BASIS, WITHOUT WARRANTIES OR CONDITIONS OF ANY KIND, either express or implied. See the SIL Open Font License for the specific language, permissions and limitations governing your use of this Font Software.
http://scripts.sil.org/OFL
  -->
<path d="M806 84C841 121 878 173 894 208L950 179C934 146 895 95 859 58ZM722 42L724 222 451 222 451 292 725 292C734 694 764 953 890 957 925 959 960 918 979 767 967 760 938 742 925 728 919 815 908 870 892 869 826 864 797 634 791 292L950 292 950 222 790 222 790 42ZM419 846L439 915C522 896 628 871 730 846L725 782 610 807 610 489 696 489 696 424 461 424 461 489 544 489 544 821ZM74 289L74 637 216 637 216 719 38 719 38 785 216 785 216 961 284 961 284 785 454 785 454 719 284 719 284 637 429 637 429 289 284 289 284 215 440 215 440 149 284 149 284 40 216 40 216 149 52 149 52 215 216 215 216 289ZM131 489L223 489 223 581 131 581ZM277 489L371 489 371 581 277 581ZM131 345L223 345 223 435 131 435ZM277 345L371 345 371 435 277 435Z"/>
</svg>