<svg xmlns="http://www.w3.org/2000/svg" name="gid12774" data-unicode="輕"
    viewBox="0 0 1000 1000">
  <!--
© 2014-2021 Adobe (http://www.adobe.com/).
Noto is a trademark of Google Inc.
This Font Software is licensed under the SIL Open Font License, Version 1.1. This Font Software is distributed on an "AS IS" BASIS, WITHOUT WARRANTIES OR CONDITIONS OF ANY KIND, either express or implied. See the SIL Open Font License for the specific language, permissions and limitations governing your use of this Font Software.
http://scripts.sil.org/OFL
  -->
<path d="M452 89L452 154 949 154 949 89ZM532 187C512 236 471 313 435 374 482 445 524 524 545 577L606 551C586 505 545 433 504 373 535 321 570 256 595 203ZM695 187C674 236 633 312 595 373 645 444 691 522 712 575L773 549C752 503 708 432 665 372 696 320 734 256 759 203ZM866 187C843 236 800 313 759 374 813 445 862 524 886 577L946 550C923 504 876 432 831 373 864 321 903 257 931 204ZM414 870L414 935 962 935 962 870 730 870 730 674 930 674 930 609 470 609 470 674 655 674 655 870ZM70 289L70 637 208 637 208 719 38 719 38 785 208 785 208 961 272 961 272 785 435 785 435 719 272 719 272 637 413 637 413 289 271 289 271 215 426 215 426 149 271 149 271 40 207 40 207 149 52 149 52 215 207 215 207 289ZM126 489L213 489 213 581 126 581ZM266 489L355 489 355 581 266 581ZM126 345L213 345 213 435 126 435ZM266 345L355 345 355 435 266 435Z"/>
</svg>