<svg xmlns="http://www.w3.org/2000/svg"
    viewBox="0 0 1000 1000">
  <!--
© 2014-2021 Adobe (http://www.adobe.com/).
Noto is a trademark of Google Inc.
This Font Software is licensed under the SIL Open Font License, Version 1.1. This Font Software is distributed on an "AS IS" BASIS, WITHOUT WARRANTIES OR CONDITIONS OF ANY KIND, either express or implied. See the SIL Open Font License for the specific language, permissions and limitations governing your use of this Font Software.
http://scripts.sil.org/OFL
  -->
<path d="M452 59L452 124 949 124 949 59ZM532 157C512 206 471 283 435 344 482 415 524 494 545 547L606 521C586 475 545 403 504 343 535 291 570 226 595 173ZM695 157C674 206 633 282 595 343 645 414 691 492 712 545L773 519C752 473 708 402 665 342 696 290 734 226 759 173ZM866 157C843 206 800 283 759 344 813 415 862 494 886 547L946 520C923 474 876 402 831 343 864 291 903 227 931 174ZM414 840L414 905 962 905 962 840 730 840 730 644 930 644 930 579 470 579 470 644 655 644 655 840ZM70 259L70 607 208 607 208 689 38 689 38 755 208 755 208 931 272 931 272 755 435 755 435 689 272 689 272 607 413 607 413 259 271 259 271 185 426 185 426 119 271 119 271 10 207 10 207 119 52 119 52 185 207 185 207 259ZM126 459L213 459 213 551 126 551ZM266 459L355 459 355 551 266 551ZM126 315L213 315 213 405 126 405ZM266 315L355 315 355 405 266 405Z"/>
</svg>