<svg xmlns="http://www.w3.org/2000/svg" name="gid12776" data-unicode="輗"
    viewBox="0 0 1000 1000">
  <!--
© 2014-2021 Adobe (http://www.adobe.com/).
Noto is a trademark of Google Inc.
This Font Software is licensed under the SIL Open Font License, Version 1.1. This Font Software is distributed on an "AS IS" BASIS, WITHOUT WARRANTIES OR CONDITIONS OF ANY KIND, either express or implied. See the SIL Open Font License for the specific language, permissions and limitations governing your use of this Font Software.
http://scripts.sil.org/OFL
  -->
<path d="M502 517L502 582 592 582C580 736 549 846 404 905 420 918 440 944 448 961 610 890 650 762 664 582L734 582 734 863C734 937 749 958 816 958 829 958 876 958 890 958 947 958 966 923 972 784 952 779 922 767 908 755 905 875 902 893 882 893 871 893 835 893 827 893 808 893 805 889 805 863L805 582 933 582 933 115 734 115 734 181 864 181 864 313 739 313 739 374 864 374 864 517 568 517 568 374 685 374 685 313 568 313 568 182C623 162 683 136 729 107L673 54C641 80 587 109 536 131L502 120ZM76 289L76 637 224 637 224 719 39 719 39 785 224 785 224 961 292 961 292 785 471 785 471 719 292 719 292 637 445 637 445 289 292 289 292 217 464 217 464 149 292 149 292 40 224 40 224 149 50 149 50 217 224 217 224 289ZM135 489L231 489 231 581 135 581ZM286 489L385 489 385 581 286 581ZM135 346L231 346 231 435 135 435ZM286 346L385 346 385 435 286 435Z"/>
</svg>