<svg xmlns="http://www.w3.org/2000/svg" name="gid12783" data-unicode="輟"
    viewBox="0 0 1000 1000">
  <!--
© 2014-2021 Adobe (http://www.adobe.com/).
Noto is a trademark of Google Inc.
This Font Software is licensed under the SIL Open Font License, Version 1.1. This Font Software is distributed on an "AS IS" BASIS, WITHOUT WARRANTIES OR CONDITIONS OF ANY KIND, either express or implied. See the SIL Open Font License for the specific language, permissions and limitations governing your use of this Font Software.
http://scripts.sil.org/OFL
  -->
<path d="M433 241C466 262 501 288 534 314 498 375 453 423 405 454 420 465 438 488 448 503 498 468 545 419 583 356 605 376 624 396 638 413L683 368C666 347 641 324 613 300 642 241 664 172 678 95L637 80 625 82 436 82 436 144 604 144C593 185 579 224 563 261 534 239 503 219 475 201ZM415 681C451 704 489 733 525 763 484 830 432 881 376 913 391 925 409 947 419 963 478 927 531 874 573 806 596 827 616 847 630 865L676 818C659 797 634 773 605 749 634 688 656 618 670 537L628 522 617 525 425 525 425 586 595 586C585 630 571 670 554 708 522 683 489 660 458 640ZM742 600L686 614C705 684 732 749 767 805 725 852 675 887 620 909 634 922 651 947 660 963 714 938 763 905 806 860 841 903 882 939 929 963 939 947 958 924 973 912 925 889 882 854 847 811 898 740 935 649 954 534L913 522 901 525 681 525 681 586 879 586C862 650 838 706 807 753 779 707 757 655 742 600ZM686 242C722 263 761 290 797 317 758 378 711 425 659 454 674 467 693 491 702 507 758 472 808 423 849 359 878 384 903 408 920 429L967 382C946 358 916 330 881 303 911 243 934 173 948 94L905 80 894 82 699 82 699 144 871 144C860 187 845 227 828 263 795 240 762 219 730 201ZM70 286L70 641 197 641 197 719 39 719 39 784 197 784 197 961 262 961 262 784 411 784 411 719 262 719 262 641 393 641 393 286 262 286 262 213 404 213 404 148 262 148 262 40 197 40 197 148 48 148 48 213 197 213 197 286ZM123 489L204 489 204 585 123 585ZM256 489L338 489 338 585 256 585ZM123 342L204 342 204 435 123 435ZM256 342L338 342 338 435 256 435Z"/>
</svg>