<svg xmlns="http://www.w3.org/2000/svg"
    viewBox="0 0 1000 1000">
  <!--
© 2014-2021 Adobe (http://www.adobe.com/).
Noto is a trademark of Google Inc.
This Font Software is licensed under the SIL Open Font License, Version 1.1. This Font Software is distributed on an "AS IS" BASIS, WITHOUT WARRANTIES OR CONDITIONS OF ANY KIND, either express or implied. See the SIL Open Font License for the specific language, permissions and limitations governing your use of this Font Software.
http://scripts.sil.org/OFL
  -->
<path d="M614 453L614 561 524 561C526 524 528 487 529 453ZM676 453L782 453 782 561 676 561ZM70 259L70 607 208 607 208 689 38 689 38 755 208 755 208 931 272 931 272 755 425 755C411 802 391 847 365 887 380 894 407 916 418 928 476 843 504 731 517 622L579 622 579 841 495 856 514 919C587 904 678 886 767 868L762 807 643 829 643 622 711 622C742 773 807 880 932 931 941 913 960 889 975 876 914 855 868 819 834 770 873 746 918 712 956 682L910 637C885 663 844 699 807 727 791 695 779 660 770 622L960 622 960 561 845 561 845 453 942 453 942 393 845 393 845 295 782 295 782 393 676 393 676 295 614 295 614 393 529 393 529 279 928 279 928 56 465 56 465 407C465 505 461 625 431 735L431 689 272 689 272 607 413 607 413 259 271 259 271 185 426 185 426 119 271 119 271 10 207 10 207 119 52 119 52 185 207 185 207 259ZM529 116L859 116 859 219 529 219ZM126 459L213 459 213 551 126 551ZM266 459L355 459 355 551 266 551ZM126 315L213 315 213 405 126 405ZM266 315L355 315 355 405 266 405Z"/>
</svg>