<svg xmlns="http://www.w3.org/2000/svg" name="gid12811" data-unicode="轂"
    viewBox="0 0 1000 1000">
  <!--
© 2014-2021 Adobe (http://www.adobe.com/).
Noto is a trademark of Google Inc.
This Font Software is licensed under the SIL Open Font License, Version 1.1. This Font Software is distributed on an "AS IS" BASIS, WITHOUT WARRANTIES OR CONDITIONS OF ANY KIND, either express or implied. See the SIL Open Font License for the specific language, permissions and limitations governing your use of this Font Software.
http://scripts.sil.org/OFL
  -->
<path d="M139 382L139 427 443 427 443 382ZM645 548L580 564C606 644 642 716 688 777 626 833 552 874 474 899 489 915 508 944 516 961 596 931 670 889 734 832 787 887 850 930 924 959 934 941 955 912 971 898 899 873 836 833 784 781 849 707 900 612 929 494L883 478 870 481 546 481 546 548 840 548C816 617 780 676 737 727 697 675 666 614 645 548ZM63 291L63 420 120 420 120 341 460 341 460 420 515 420C529 430 551 451 560 464 647 399 664 301 664 221L664 147 791 147 791 318C791 373 796 389 808 402 820 413 840 418 858 418 867 418 886 418 897 418 910 418 926 416 936 409 948 404 956 393 961 377 966 362 969 318 971 280 953 275 931 264 918 253 917 291 916 321 914 334 912 346 909 353 906 356 904 359 898 360 892 360 887 360 879 360 874 360 869 360 866 359 863 356 861 352 860 341 860 322L860 81 597 81 597 219C597 280 588 351 521 407L521 291ZM255 40L255 100 56 100 56 150 255 150 255 200 103 200 103 250 475 250 475 200 325 200 325 150 522 150 522 100 325 100 325 40ZM106 563L106 775 257 775 257 816 45 816 45 867 257 867 257 960 323 960 323 867 530 867 530 816 323 816 323 775 477 775 477 563 323 563 323 522 498 522 498 477 323 477 323 430 257 430 257 477 80 477 80 522 257 522 257 563ZM166 689L257 689 257 733 166 733ZM323 689L415 689 415 733 323 733ZM166 606L257 606 257 648 166 648ZM323 606L415 606 415 648 323 648Z"/>
</svg>