<svg xmlns="http://www.w3.org/2000/svg"
    viewBox="0 0 1000 1000">
  <!--
© 2014-2021 Adobe (http://www.adobe.com/).
Noto is a trademark of Google Inc.
This Font Software is licensed under the SIL Open Font License, Version 1.1. This Font Software is distributed on an "AS IS" BASIS, WITHOUT WARRANTIES OR CONDITIONS OF ANY KIND, either express or implied. See the SIL Open Font License for the specific language, permissions and limitations governing your use of this Font Software.
http://scripts.sil.org/OFL
  -->
<path d="M70 256L70 611 197 611 197 689 39 689 39 754 197 754 197 931 262 931 262 754 406 754C393 805 375 853 349 895 365 901 394 919 406 931 476 817 496 652 500 515L943 515 943 270 791 270 791 187 736 187 736 270 646 270 646 187 591 187 591 270 501 270 501 166 949 166 949 101 730 101 730 11 661 11 661 101 435 101 435 447C435 533 432 636 411 733L411 689 262 689 262 611 393 611 393 256 262 256 262 183 404 183 404 118 262 118 262 10 197 10 197 118 48 118 48 183 197 183 197 256ZM473 866L487 926C555 912 638 895 720 878L715 821 599 843 599 695 709 695 709 639 599 639 599 538 538 538 538 855ZM591 332L591 453 501 453 501 446 501 332ZM646 332L736 332 736 453 646 453ZM791 332L882 332 882 453 791 453ZM913 582C883 605 836 636 795 660L795 536 734 536 734 836C734 903 749 920 810 920 823 920 880 920 893 920 944 920 961 893 967 784 950 780 924 770 911 760 909 849 905 862 886 862 873 862 828 862 819 862 799 862 795 858 795 836L795 720C843 698 905 664 951 632ZM123 459L204 459 204 555 123 555ZM256 459L338 459 338 555 256 555ZM123 312L204 312 204 405 123 405ZM256 312L338 312 338 405 256 405Z"/>
</svg>