<svg xmlns="http://www.w3.org/2000/svg"
    viewBox="0 0 1000 1000">
  <!--
© 2014-2021 Adobe (http://www.adobe.com/).
Noto is a trademark of Google Inc.
This Font Software is licensed under the SIL Open Font License, Version 1.1. This Font Software is distributed on an "AS IS" BASIS, WITHOUT WARRANTIES OR CONDITIONS OF ANY KIND, either express or implied. See the SIL Open Font License for the specific language, permissions and limitations governing your use of this Font Software.
http://scripts.sil.org/OFL
  -->
<path d="M70 259L70 607 206 607 206 689 38 689 38 755 206 755 206 931 270 931 270 755 430 755 430 689 270 689 270 607 408 607 408 259 269 259 269 185 421 185 421 119 269 119 269 10 205 10 205 119 52 119 52 185 205 185 205 259ZM126 459L211 459 211 551 126 551ZM264 459L350 459 350 551 264 551ZM126 315L211 315 211 405 126 405ZM264 315L350 315 350 405 264 405ZM534 10L534 92 444 92 444 150 534 150 534 225 451 225 451 282 534 282 534 364 428 380 438 440 534 423 534 493 598 493 598 412 686 395 684 339 598 353 598 282 673 282 673 225 598 225 598 150 680 150 680 92 598 92 598 10ZM790 10L790 92 701 92 701 150 790 150 790 224 710 224 710 281 790 281 790 360 695 360 695 418 790 418 790 493 855 493 855 418 961 418 961 360 855 360 855 281 948 281 948 224 855 224 855 150 951 150 951 92 855 92 855 10ZM481 833L481 896 830 896 830 930 899 930 899 740 961 740 961 677 899 677 899 523 485 523 485 587 830 587 830 677 453 677 453 740 830 740 830 833Z"/>
</svg>