<svg xmlns="http://www.w3.org/2000/svg" name="gid12819" data-unicode="轌"
    viewBox="0 0 1000 1000">
  <!--
© 2014-2021 Adobe (http://www.adobe.com/).
Noto is a trademark of Google Inc.
This Font Software is licensed under the SIL Open Font License, Version 1.1. This Font Software is distributed on an "AS IS" BASIS, WITHOUT WARRANTIES OR CONDITIONS OF ANY KIND, either express or implied. See the SIL Open Font License for the specific language, permissions and limitations governing your use of this Font Software.
http://scripts.sil.org/OFL
  -->
<path d="M492 443L492 497 633 497 633 443ZM764 443L764 497 911 497 911 443ZM505 566L505 627 825 627 825 714 470 714 470 776 825 776 825 869 495 869 495 930 825 930 825 962 895 962 895 776 964 776 964 714 895 714 895 566ZM458 210L458 350 512 350 512 384 632 384 632 331 520 331 520 266 665 266 665 529 731 529 731 266 885 266 885 331 764 331 764 384 889 384 889 350 949 350 949 210 731 210 731 148 935 148 935 87 476 87 476 148 665 148 665 210ZM72 289L72 637 214 637 214 719 38 719 38 785 214 785 214 961 282 961 282 785 449 785 449 719 282 719 282 637 427 637 427 289 282 289 282 215 435 215 435 149 282 149 282 40 214 40 214 149 52 149 52 215 214 215 214 289ZM128 489L221 489 221 581 128 581ZM275 489L368 489 368 581 275 581ZM128 345L221 345 221 435 128 435ZM275 345L368 345 368 435 275 435Z"/>
</svg>