<svg xmlns="http://www.w3.org/2000/svg"
    viewBox="0 0 1000 1000">
  <!--
© 2014-2021 Adobe (http://www.adobe.com/).
Noto is a trademark of Google Inc.
This Font Software is licensed under the SIL Open Font License, Version 1.1. This Font Software is distributed on an "AS IS" BASIS, WITHOUT WARRANTIES OR CONDITIONS OF ANY KIND, either express or implied. See the SIL Open Font License for the specific language, permissions and limitations governing your use of this Font Software.
http://scripts.sil.org/OFL
  -->
<path d="M610 343L786 343 786 426 610 426ZM71 259L71 607 209 607 209 689 38 689 38 755 209 755 209 931 277 931 277 755 440 755 440 689 277 689 277 607 421 607 421 360C435 372 455 393 463 405 494 387 522 367 549 344L549 479 850 479 850 352C875 375 901 393 928 407 938 389 958 367 973 355 913 328 855 279 816 224L950 224 950 165 682 165C691 144 700 121 707 98 782 92 854 84 910 73L867 20C773 38 608 50 471 54 477 69 486 92 487 107 534 107 585 105 637 102 629 124 620 145 609 165L443 165 443 224 572 224C533 277 482 320 421 352L421 259 277 259 277 185 433 185 433 119 277 119 277 10 209 10 209 119 52 119 52 185 209 185 209 259ZM650 224L748 224C760 247 775 270 792 291L602 291C619 270 636 248 650 224ZM463 524L463 926 529 926 529 583 871 583 871 857C871 869 868 872 855 872 842 873 802 873 755 871 764 889 774 914 776 931 838 931 880 931 905 920 931 911 938 892 938 858L938 524ZM639 682L761 682 761 762 639 762ZM589 636L589 857 639 857 639 807 811 807 811 636ZM126 459L216 459 216 551 126 551ZM270 459L363 459 363 551 270 551ZM126 315L216 315 216 405 126 405ZM270 315L363 315 363 405 270 405Z"/>
</svg>