<svg xmlns="http://www.w3.org/2000/svg" name="gid12841" data-unicode="辜"
    viewBox="0 0 1000 1000">
  <!--
© 2014-2021 Adobe (http://www.adobe.com/).
Noto is a trademark of Google Inc.
This Font Software is licensed under the SIL Open Font License, Version 1.1. This Font Software is distributed on an "AS IS" BASIS, WITHOUT WARRANTIES OR CONDITIONS OF ANY KIND, either express or implied. See the SIL Open Font License for the specific language, permissions and limitations governing your use of this Font Software.
http://scripts.sil.org/OFL
  -->
<path d="M238 286L779 286 779 360 238 360ZM166 235L166 412 459 412 459 474 123 474 123 534 301 534 268 544C286 571 303 606 313 634L59 634 59 696 459 696 459 779 105 779 105 839 459 839 459 961 535 961 535 839 903 839 903 779 535 779 535 696 941 696 941 634 682 634C701 607 724 572 745 538L728 534 888 534 888 474 535 474 535 412 855 412 855 235 535 235 535 177 934 177 934 118 535 118 535 40 459 40 459 118 71 118 71 177 459 177 459 235ZM340 534L658 534C646 565 626 604 610 632L617 634 364 634 388 626C380 602 360 564 340 534Z"/>
</svg>