<svg xmlns="http://www.w3.org/2000/svg" name="gid12852" data-unicode="辧"
    viewBox="0 0 1000 1000">
  <!--
© 2014-2021 Adobe (http://www.adobe.com/).
Noto is a trademark of Google Inc.
This Font Software is licensed under the SIL Open Font License, Version 1.1. This Font Software is distributed on an "AS IS" BASIS, WITHOUT WARRANTIES OR CONDITIONS OF ANY KIND, either express or implied. See the SIL Open Font License for the specific language, permissions and limitations governing your use of this Font Software.
http://scripts.sil.org/OFL
  -->
<path d="M83 268C100 319 113 387 113 431L173 415C170 371 157 304 138 253ZM272 251C264 301 246 374 230 420L280 434C297 391 317 322 335 265ZM663 267C681 320 695 389 697 434L755 419C752 374 739 306 718 253ZM861 249C853 299 832 374 816 420L868 435C886 391 906 322 925 265ZM52 173L52 237 348 237 348 175 418 175C415 508 396 762 249 912 263 924 286 950 293 963 450 791 473 533 479 175L548 175C543 668 536 834 517 867 509 883 502 886 489 885 473 885 446 885 414 882 424 900 430 929 430 947 463 949 494 950 517 946 541 943 558 934 574 907 600 863 604 696 610 146 610 137 611 108 611 108L347 108 347 173 239 173 239 39 169 39 169 173ZM37 656L49 723 166 702C159 775 133 857 49 910 65 922 86 946 96 960 199 887 230 781 237 689L363 666 358 603 239 624 239 504 361 504 361 440 41 440 41 504 169 504 169 635ZM632 172L632 235 950 235 950 172 825 172 825 39 755 39 755 172ZM633 645L633 710 755 710 755 962 825 962 825 710 945 710 945 645 825 645 825 503 961 503 961 440 624 440 624 503 755 503 755 645Z"/>
</svg>