<svg xmlns="http://www.w3.org/2000/svg"
    viewBox="0 0 1000 1000">
  <!--
© 2014-2021 Adobe (http://www.adobe.com/).
Noto is a trademark of Google Inc.
This Font Software is licensed under the SIL Open Font License, Version 1.1. This Font Software is distributed on an "AS IS" BASIS, WITHOUT WARRANTIES OR CONDITIONS OF ANY KIND, either express or implied. See the SIL Open Font License for the specific language, permissions and limitations governing your use of this Font Software.
http://scripts.sil.org/OFL
  -->
<path d="M116 102L186 102 186 210 116 210ZM64 50L64 263 240 263 240 50ZM332 102L405 102 405 210 332 210ZM279 50L279 263 459 263 459 50ZM601 224L601 287 915 287 915 224ZM914 501C888 537 848 584 812 621 798 574 787 522 779 469L950 469 950 407 571 407 571 383 571 119 943 119 943 55 506 55 506 384C506 498 502 645 467 773L467 708 291 708 291 635 447 635 447 308 78 308 78 635 228 635 228 708 40 708 40 775 228 775 228 928 291 928 291 775 466 775C455 815 441 854 423 889 439 896 468 913 480 925 546 796 565 617 570 469L616 469 616 839 552 855 568 918C638 898 726 873 811 848L804 788 677 823 677 469 724 469C753 676 813 847 929 931 939 914 960 889 974 877 909 836 863 765 830 676 870 639 917 592 956 549ZM139 498L228 498 228 579 139 579ZM291 498L384 498 384 579 291 579ZM139 364L228 364 228 444 139 444ZM291 364L384 364 384 444 291 444Z"/>
</svg>