<svg xmlns="http://www.w3.org/2000/svg"
    viewBox="0 0 1000 1000">
  <!--
© 2014-2021 Adobe (http://www.adobe.com/).
Noto is a trademark of Google Inc.
This Font Software is licensed under the SIL Open Font License, Version 1.1. This Font Software is distributed on an "AS IS" BASIS, WITHOUT WARRANTIES OR CONDITIONS OF ANY KIND, either express or implied. See the SIL Open Font License for the specific language, permissions and limitations governing your use of this Font Software.
http://scripts.sil.org/OFL
  -->
<path d="M60 79C124 124 199 191 231 240L291 190C255 142 180 77 114 34ZM489 161L489 378 315 378 315 446 489 446 489 780 561 780 561 446 730 446 730 378 561 378 561 161ZM324 58L324 126 759 126C762 534 766 785 886 785 937 785 952 744 960 627 945 615 925 594 913 576 911 650 906 708 892 708 834 708 832 429 834 58ZM262 405L49 405 49 475 189 475 189 730C139 772 81 814 36 845L75 922C129 877 180 834 228 791 292 870 382 906 513 911 624 915 831 913 940 908 943 885 956 849 965 832 846 840 622 843 513 838 397 834 309 799 262 726Z"/>
</svg>