<svg xmlns="http://www.w3.org/2000/svg"
    viewBox="0 0 1000 1000">
  <!--
© 2014-2021 Adobe (http://www.adobe.com/).
Noto is a trademark of Google Inc.
This Font Software is licensed under the SIL Open Font License, Version 1.1. This Font Software is distributed on an "AS IS" BASIS, WITHOUT WARRANTIES OR CONDITIONS OF ANY KIND, either express or implied. See the SIL Open Font License for the specific language, permissions and limitations governing your use of this Font Software.
http://scripts.sil.org/OFL
  -->
<path d="M57 78C119 124 189 194 219 243L278 195C247 146 175 79 113 34ZM249 405L49 405 49 475 176 475 176 730C129 772 77 814 33 845L73 922C124 877 171 834 217 791 282 871 374 906 509 911 620 915 828 913 939 908 942 885 954 849 963 832 844 840 618 843 509 838 389 834 298 800 249 726ZM384 60L384 291C384 420 373 595 276 720 293 728 325 749 337 762 429 643 452 473 455 338L478 338C512 441 560 530 622 604 560 658 489 699 415 724 430 739 449 768 458 787 535 757 609 714 673 657 738 718 817 765 910 795 921 775 943 746 959 730 867 705 790 662 725 605 801 523 859 416 891 283L844 267 830 269 456 269 456 130 924 130 924 60ZM800 338C771 421 727 493 673 553 620 492 579 420 550 338Z"/>
</svg>