<svg xmlns="http://www.w3.org/2000/svg" name="gid12888" data-unicode="迚"
    viewBox="0 0 1000 1000">
  <!--
© 2014-2021 Adobe (http://www.adobe.com/).
Noto is a trademark of Google Inc.
This Font Software is licensed under the SIL Open Font License, Version 1.1. This Font Software is distributed on an "AS IS" BASIS, WITHOUT WARRANTIES OR CONDITIONS OF ANY KIND, either express or implied. See the SIL Open Font License for the specific language, permissions and limitations governing your use of this Font Software.
http://scripts.sil.org/OFL
  -->
<path d="M90 99C150 132 220 185 253 224L306 173C272 134 200 84 140 52ZM51 302C114 334 189 384 224 423L276 369C239 331 163 283 100 253ZM251 505L46 505 46 575 178 575 178 763C130 805 77 846 33 877L72 952C124 908 173 865 219 822 283 901 374 936 506 941 618 945 828 943 939 938 943 916 955 881 964 863 844 871 616 874 505 870 388 865 300 831 251 758ZM405 286L589 286 589 521 405 521ZM663 286L862 286 862 521 663 521ZM333 213L333 595 589 595 589 829 663 829 663 595 937 595 937 213 663 213 663 41 589 41 589 213Z"/>
</svg>