<svg xmlns="http://www.w3.org/2000/svg"
    viewBox="0 0 1000 1000">
  <!--
© 2014-2021 Adobe (http://www.adobe.com/).
Noto is a trademark of Google Inc.
This Font Software is licensed under the SIL Open Font License, Version 1.1. This Font Software is distributed on an "AS IS" BASIS, WITHOUT WARRANTIES OR CONDITIONS OF ANY KIND, either express or implied. See the SIL Open Font License for the specific language, permissions and limitations governing your use of this Font Software.
http://scripts.sil.org/OFL
  -->
<path d="M90 69C150 102 220 155 253 194L306 143C272 104 200 54 140 22ZM51 272C114 304 189 354 224 393L276 339C239 301 163 253 100 223ZM450 515L819 515 819 687 450 687ZM378 449L378 753 894 753 894 449 666 449 666 315 949 315 949 250 666 250 666 114C757 103 843 89 911 72L859 16C739 47 523 68 341 80 348 95 358 122 359 139 433 135 513 130 591 122L591 250 309 250 309 315 591 315 591 449ZM251 475L46 475 46 545 178 545 178 733C130 775 77 816 33 847L72 922C124 878 173 835 219 792 283 871 374 906 506 911 618 915 828 913 939 908 943 886 955 851 964 833 844 841 616 844 505 840 388 835 300 801 251 728Z"/>
</svg>