<svg xmlns="http://www.w3.org/2000/svg"
    viewBox="0 0 1000 1000">
  <!--
© 2014-2021 Adobe (http://www.adobe.com/).
Noto is a trademark of Google Inc.
This Font Software is licensed under the SIL Open Font License, Version 1.1. This Font Software is distributed on an "AS IS" BASIS, WITHOUT WARRANTIES OR CONDITIONS OF ANY KIND, either express or implied. See the SIL Open Font License for the specific language, permissions and limitations governing your use of this Font Software.
http://scripts.sil.org/OFL
  -->
<path d="M90 69C149 102 218 153 251 192L303 140C270 102 199 53 140 22ZM51 272C113 303 186 352 220 389L272 335C236 298 161 251 100 223ZM250 475L46 475 46 545 177 545 177 739C130 779 78 821 36 851L74 922C125 878 173 836 218 793 283 871 373 906 505 911 616 915 829 913 940 909 944 887 955 854 964 836 844 845 614 847 504 843 387 839 298 804 250 731ZM338 237L338 758 900 758 900 237 637 237 637 157 933 157 933 93 637 93 637 10 562 10 562 237ZM406 441L659 441 659 545 406 545ZM406 300L829 300 829 695 406 695 406 599 727 599 727 387 406 387Z"/>
</svg>