<svg xmlns="http://www.w3.org/2000/svg" name="gid12926" data-unicode="透"
    viewBox="0 0 1000 1000">
  <!--
© 2014-2021 Adobe (http://www.adobe.com/).
Noto is a trademark of Google Inc.
This Font Software is licensed under the SIL Open Font License, Version 1.1. This Font Software is distributed on an "AS IS" BASIS, WITHOUT WARRANTIES OR CONDITIONS OF ANY KIND, either express or implied. See the SIL Open Font License for the specific language, permissions and limitations governing your use of this Font Software.
http://scripts.sil.org/OFL
  -->
<path d="M56 107C117 155 185 226 214 276L275 229C245 180 174 111 113 65ZM246 435L46 435 46 505 173 505 173 764C128 806 78 848 36 878L75 952C124 908 170 865 214 822 277 901 368 936 500 941 612 945 826 943 938 939 941 916 953 882 962 865 841 873 610 876 499 871 381 866 293 832 246 758ZM859 57C741 83 523 100 343 108 350 122 358 146 360 161 434 159 514 155 593 149L593 225 313 225 313 284 547 284C481 356 375 422 281 455 296 468 316 492 326 509 419 470 522 398 593 319L593 453 665 453 665 316C732 393 831 463 923 499 934 482 954 457 969 444 874 415 773 352 709 284L952 284 952 225 665 225 665 142C756 134 841 122 908 108ZM392 477L392 536 511 536C493 643 449 722 312 765 327 778 345 804 353 820 509 767 561 670 582 536L700 536C692 576 684 617 675 649L739 658 747 624 846 624C837 699 828 732 815 744 807 751 799 752 781 752 765 752 718 751 670 747 680 764 687 788 688 805 738 809 786 809 810 807 837 806 855 801 872 785 894 764 906 714 918 596 919 586 920 568 920 568L760 568 777 477Z"/>
</svg>