<svg xmlns="http://www.w3.org/2000/svg" name="gid12954" data-unicode="進"
    viewBox="0 0 1000 1000">
  <!--
© 2014-2021 Adobe (http://www.adobe.com/).
Noto is a trademark of Google Inc.
This Font Software is licensed under the SIL Open Font License, Version 1.1. This Font Software is distributed on an "AS IS" BASIS, WITHOUT WARRANTIES OR CONDITIONS OF ANY KIND, either express or implied. See the SIL Open Font License for the specific language, permissions and limitations governing your use of this Font Software.
http://scripts.sil.org/OFL
  -->
<path d="M56 107C117 155 185 226 214 276L275 229C245 180 174 111 113 65ZM246 435L46 435 46 505 173 505 173 764C128 806 78 848 36 878L75 952C124 908 170 865 214 822 277 901 368 936 500 941 612 945 826 943 938 939 941 916 953 882 962 865 841 873 610 876 499 871 381 866 293 832 246 758ZM468 42C418 169 332 289 234 365 251 379 280 408 292 423 322 397 352 366 380 333L380 772 940 772 940 707 700 707 700 598 896 598 896 535 700 535 700 429 898 429 898 366 700 366 700 262 924 262 924 196 710 196C731 156 753 110 772 67L692 50C680 93 657 149 636 196L477 196C502 154 524 109 543 64ZM453 429L628 429 628 535 453 535ZM453 366L453 262 628 262 628 366ZM453 598L628 598 628 707 453 707Z"/>
</svg>