<svg xmlns="http://www.w3.org/2000/svg" name="gid12970" data-unicode="遇"
    viewBox="0 0 1000 1000">
  <!--
© 2014-2021 Adobe (http://www.adobe.com/).
Noto is a trademark of Google Inc.
This Font Software is licensed under the SIL Open Font License, Version 1.1. This Font Software is distributed on an "AS IS" BASIS, WITHOUT WARRANTIES OR CONDITIONS OF ANY KIND, either express or implied. See the SIL Open Font License for the specific language, permissions and limitations governing your use of this Font Software.
http://scripts.sil.org/OFL
  -->
<path d="M56 102C117 150 185 221 214 271L275 224C245 174 174 106 113 60ZM246 433L46 433 46 503 173 503 173 764C128 806 78 848 36 878L75 952C124 908 170 865 214 822 277 901 368 936 500 941 612 945 826 943 938 939 941 916 953 882 962 865 841 873 610 876 499 871 381 866 293 832 246 758ZM434 645L441 707 755 683C760 699 764 715 767 728L817 714C808 671 779 601 751 550L703 561C714 582 725 605 734 628L645 633 645 523 846 523 846 758C846 768 843 771 830 772 817 773 776 773 728 771 737 787 746 809 750 826 815 826 858 826 883 816 910 807 917 791 917 757L917 461 649 461 649 398 868 398 868 73 373 73 373 398 582 398 582 461 333 461 333 812 402 812 402 523 580 523 580 637ZM439 261L582 261 582 342 439 342ZM649 261L799 261 799 342 649 342ZM439 127L582 127 582 208 439 208ZM649 127L799 127 799 208 649 208Z"/>
</svg>