<svg xmlns="http://www.w3.org/2000/svg" name="gid12972" data-unicode="遊"
    viewBox="0 0 1000 1000">
  <!--
© 2014-2021 Adobe (http://www.adobe.com/).
Noto is a trademark of Google Inc.
This Font Software is licensed under the SIL Open Font License, Version 1.1. This Font Software is distributed on an "AS IS" BASIS, WITHOUT WARRANTIES OR CONDITIONS OF ANY KIND, either express or implied. See the SIL Open Font License for the specific language, permissions and limitations governing your use of this Font Software.
http://scripts.sil.org/OFL
  -->
<path d="M48 101C102 153 161 227 184 277L247 236C223 185 162 114 107 64ZM232 435L44 435 44 505 161 505 161 766C119 808 73 850 34 881L73 952C118 907 161 864 201 820 265 900 358 935 491 940 607 944 828 942 942 938 946 916 957 883 966 866 843 874 604 877 490 873 370 868 281 834 232 759ZM690 36C675 106 650 174 617 228L617 176 481 176 481 40 411 40 411 176 274 176 274 240 367 240 367 389C367 507 355 660 261 772 277 782 298 802 309 816 410 699 428 540 430 409L526 409C519 645 512 728 498 749 492 759 485 760 473 760 461 760 433 760 403 757 413 774 419 801 420 820 452 821 484 821 503 819 526 817 541 809 555 790 577 760 584 664 592 377 592 368 592 346 592 346L430 346 430 240 610 240C600 255 590 269 579 281 594 290 621 311 633 322 657 292 680 255 699 213L950 213 950 149 725 149C737 117 747 84 755 50ZM754 429L754 514 619 514 619 576 754 576 754 746C754 755 751 758 739 758 727 759 690 759 648 758 657 776 667 803 670 821 727 821 765 820 788 809 814 799 819 780 819 746L819 576 956 576 956 514 819 514 819 473C862 434 909 379 941 327L900 297 887 301 652 301 652 360 842 360C826 384 806 408 786 429Z"/>
</svg>