<svg xmlns="http://www.w3.org/2000/svg"
    viewBox="0 0 1000 1000">
  <!--
© 2014-2021 Adobe (http://www.adobe.com/).
Noto is a trademark of Google Inc.
This Font Software is licensed under the SIL Open Font License, Version 1.1. This Font Software is distributed on an "AS IS" BASIS, WITHOUT WARRANTIES OR CONDITIONS OF ANY KIND, either express or implied. See the SIL Open Font License for the specific language, permissions and limitations governing your use of this Font Software.
http://scripts.sil.org/OFL
  -->
<path d="M56 77C117 125 185 196 214 246L275 199C245 150 174 81 113 35ZM310 45L310 175 378 175 378 102 860 102 860 175 931 175 931 45ZM246 405L46 405 46 475 173 475 173 734C128 776 78 818 36 848L75 922C124 878 170 835 214 792 277 871 368 906 500 911 612 915 826 913 938 909 941 886 953 852 962 835 841 843 610 846 499 841 381 836 293 802 246 728ZM429 480L581 480 581 548 429 548ZM654 480L809 480 809 548 654 548ZM429 365L581 365 581 431 429 431ZM654 365L809 365 809 431 654 431ZM294 660L294 718 581 718 581 813 654 813 654 718 948 718 948 660 654 660 654 599 878 599 878 314 654 314 654 253 906 253 906 197 654 197 654 127 581 127 581 197 332 197 332 253 581 253 581 314 363 314 363 599 581 599 581 660Z"/>
</svg>