<svg xmlns="http://www.w3.org/2000/svg"
    viewBox="0 0 1000 1000">
  <!--
© 2014-2021 Adobe (http://www.adobe.com/).
Noto is a trademark of Google Inc.
This Font Software is licensed under the SIL Open Font License, Version 1.1. This Font Software is distributed on an "AS IS" BASIS, WITHOUT WARRANTIES OR CONDITIONS OF ANY KIND, either express or implied. See the SIL Open Font License for the specific language, permissions and limitations governing your use of this Font Software.
http://scripts.sil.org/OFL
  -->
<path d="M450 255L803 255 803 323 450 323ZM450 139L803 139 803 206 450 206ZM90 69C150 102 220 155 253 194L306 143C272 104 200 54 140 22ZM51 272C114 304 189 354 224 393L276 339C239 301 163 253 100 223ZM306 704L306 762 948 762 948 704 660 704 660 623 894 623 894 566 660 566 660 493 924 493 924 436 332 436 332 493 586 493 586 566 364 566 364 623 586 623 586 704ZM379 88L379 374 877 374 877 88 634 88 667 20 582 6C577 29 566 61 556 88ZM251 475L46 475 46 545 178 545 178 733C130 775 77 816 33 847L72 922C124 878 173 835 219 792 283 871 374 906 506 911 618 915 828 913 939 908 943 886 955 851 964 833 844 841 616 844 505 840 388 835 300 801 251 728Z"/>
</svg>