<svg xmlns="http://www.w3.org/2000/svg" name="gid12980" data-unicode="遒"
    viewBox="0 0 1000 1000">
  <!--
© 2014-2021 Adobe (http://www.adobe.com/).
Noto is a trademark of Google Inc.
This Font Software is licensed under the SIL Open Font License, Version 1.1. This Font Software is distributed on an "AS IS" BASIS, WITHOUT WARRANTIES OR CONDITIONS OF ANY KIND, either express or implied. See the SIL Open Font License for the specific language, permissions and limitations governing your use of this Font Software.
http://scripts.sil.org/OFL
  -->
<path d="M83 98C141 131 209 182 239 221L292 170C260 132 191 83 133 52ZM48 302C109 333 180 384 213 421L263 369C229 331 157 284 97 254ZM420 106C384 184 321 258 253 307 269 318 296 343 309 355 345 327 381 289 414 246L414 281 510 281 510 357 332 357 332 801 895 801 895 357 707 357 707 281 810 281 810 252C842 289 878 321 915 345 926 327 950 302 967 289 887 247 813 162 780 67L481 67 481 121ZM398 745L398 665 827 665 827 745ZM398 612L398 412 509 412C506 462 486 510 398 547 410 554 429 576 436 588 537 545 562 477 565 412L652 412 652 466C652 511 657 524 670 534 682 544 704 548 723 548 733 548 773 548 784 548 797 548 816 547 827 546L827 612ZM707 412L827 412 827 496C827 498 825 498 823 499 821 500 815 500 809 500 805 500 791 500 781 500 767 500 743 500 734 500 725 500 717 500 713 497 707 494 707 487 707 472ZM652 357L565 357 565 281 652 281ZM486 131L733 131C747 163 766 195 788 224L431 224C452 194 471 163 486 131ZM241 505L43 505 43 575 168 575 168 768C124 809 74 849 33 880L72 953C121 909 167 866 210 823 274 902 366 937 500 942 613 946 828 944 940 939 943 917 955 883 964 866 843 874 611 877 499 872 380 868 290 834 241 760Z"/>
</svg>