<svg xmlns="http://www.w3.org/2000/svg" name="gid12982" data-unicode="達"
    viewBox="0 0 1000 1000">
  <!--
© 2014-2021 Adobe (http://www.adobe.com/).
Noto is a trademark of Google Inc.
This Font Software is licensed under the SIL Open Font License, Version 1.1. This Font Software is distributed on an "AS IS" BASIS, WITHOUT WARRANTIES OR CONDITIONS OF ANY KIND, either express or implied. See the SIL Open Font License for the specific language, permissions and limitations governing your use of this Font Software.
http://scripts.sil.org/OFL
  -->
<path d="M56 107C117 155 185 226 214 276L275 229C245 180 174 111 113 65ZM246 435L46 435 46 505 173 505 173 764C128 806 78 848 36 878L75 952C124 908 170 865 214 822 277 901 368 936 500 941 612 945 826 943 938 939 941 916 953 882 962 865 841 873 610 876 499 871 381 866 293 832 246 758ZM578 40L578 116 359 116 359 172 578 172 578 247 292 247 292 306 465 306 420 317C439 347 458 387 464 415L315 415 315 472 578 472 578 538 353 538 353 595 578 595 578 670 303 670 303 728 578 728 578 822 652 822 652 728 940 728 940 670 652 670 652 595 894 595 894 538 652 538 652 472 935 472 935 415 759 415C775 388 795 352 814 318L770 306 948 306 948 247 652 247 652 172 880 172 880 116 652 116 652 40ZM493 415L535 404C528 376 509 337 488 306L738 306C728 336 709 378 693 405L725 415Z"/>
</svg>