<svg xmlns="http://www.w3.org/2000/svg" name="gid12984" data-unicode="遖"
    viewBox="0 0 1000 1000">
  <!--
© 2014-2021 Adobe (http://www.adobe.com/).
Noto is a trademark of Google Inc.
This Font Software is licensed under the SIL Open Font License, Version 1.1. This Font Software is distributed on an "AS IS" BASIS, WITHOUT WARRANTIES OR CONDITIONS OF ANY KIND, either express or implied. See the SIL Open Font License for the specific language, permissions and limitations governing your use of this Font Software.
http://scripts.sil.org/OFL
  -->
<path d="M484 357C506 390 525 435 531 465L581 448C575 419 555 375 532 343ZM709 340C699 371 678 419 662 449L708 463C725 436 745 395 764 356ZM83 98C141 131 209 182 239 221L292 170C260 132 191 83 133 52ZM48 302C109 333 180 384 213 421L263 369C229 331 157 284 97 254ZM323 126L323 190 587 190 587 272 343 272 343 818 412 818 412 331 845 331 845 737C845 749 842 752 829 753 816 753 776 753 731 752 741 770 751 798 754 816 814 816 856 816 881 805 908 793 915 774 915 737L915 272 660 272 660 190 940 190 940 126 660 126 660 41 587 41 587 126ZM463 466L463 520 592 520 592 592 460 592 460 646 592 646 592 788 655 788 655 646 791 646 791 592 655 592 655 520 788 520 788 466ZM241 505L43 505 43 575 168 575 168 768C124 809 74 849 33 880L72 953C121 909 167 866 210 823 274 902 366 937 500 942 613 946 828 944 940 939 943 917 955 883 964 866 843 874 611 877 499 872 380 868 290 834 241 760Z"/>
</svg>