<svg xmlns="http://www.w3.org/2000/svg"
    viewBox="0 0 1000 1000">
  <!--
© 2014-2021 Adobe (http://www.adobe.com/).
Noto is a trademark of Google Inc.
This Font Software is licensed under the SIL Open Font License, Version 1.1. This Font Software is distributed on an "AS IS" BASIS, WITHOUT WARRANTIES OR CONDITIONS OF ANY KIND, either express or implied. See the SIL Open Font License for the specific language, permissions and limitations governing your use of this Font Software.
http://scripts.sil.org/OFL
  -->
<path d="M56 77C117 125 185 196 214 246L275 199C245 150 174 81 113 35ZM447 382L782 382 782 482 447 482ZM246 405L46 405 46 475 173 475 173 734C128 776 78 818 36 848L75 922C124 878 170 835 214 792 277 871 368 906 500 911 612 915 826 913 938 909 941 886 953 852 962 835 841 843 610 846 499 841 381 836 293 802 246 728ZM869 520L854 533 854 327 377 327 377 537 547 537C485 605 386 659 290 695 304 709 326 739 335 753 419 717 505 665 573 602L573 800 645 800 645 625C710 696 801 752 900 781 909 762 927 737 943 724 883 709 825 685 775 654 823 628 880 591 926 556ZM849 537C815 565 769 598 730 623 697 597 669 568 648 537ZM575 11L575 87 349 87 349 144 575 144 575 215 294 215 294 273 939 273 939 215 648 215 648 144 879 144 879 87 648 87 648 11Z"/>
</svg>