<svg xmlns="http://www.w3.org/2000/svg"
    viewBox="0 0 1000 1000">
  <!--
© 2014-2021 Adobe (http://www.adobe.com/).
Noto is a trademark of Google Inc.
This Font Software is licensed under the SIL Open Font License, Version 1.1. This Font Software is distributed on an "AS IS" BASIS, WITHOUT WARRANTIES OR CONDITIONS OF ANY KIND, either express or implied. See the SIL Open Font License for the specific language, permissions and limitations governing your use of this Font Software.
http://scripts.sil.org/OFL
  -->
<path d="M50 71C108 120 173 193 200 243L263 200C234 150 168 80 108 33ZM471 584C456 649 423 718 373 756L424 789C479 746 508 671 526 603ZM568 601C577 657 583 729 581 776L640 772C641 725 634 653 623 597ZM681 605C703 660 726 731 734 778L790 763C782 717 758 646 735 592ZM801 597C841 654 884 732 901 784L958 759C939 709 896 632 853 576ZM239 405L45 405 45 475 168 475 168 736C124 777 75 820 34 850L73 922C121 877 166 834 209 790 271 870 363 905 496 910 609 914 828 912 942 908 945 886 956 853 965 836 843 844 607 847 494 843 376 838 287 804 239 729ZM529 196L529 291 411 291 411 171 947 171 947 108 672 108 672 10 599 10 599 108 342 108 342 323C342 439 333 596 252 709 268 716 297 737 309 749 397 628 411 451 411 324L411 352 529 352 529 538 825 538 825 352 946 352 946 291 825 291 825 196 756 196 756 291 596 291 596 196ZM756 352L756 479 596 479 596 352Z"/>
</svg>