<svg xmlns="http://www.w3.org/2000/svg" name="gid13009" data-unicode="遷"
    viewBox="0 0 1000 1000">
  <!--
© 2014-2021 Adobe (http://www.adobe.com/).
Noto is a trademark of Google Inc.
This Font Software is licensed under the SIL Open Font License, Version 1.1. This Font Software is distributed on an "AS IS" BASIS, WITHOUT WARRANTIES OR CONDITIONS OF ANY KIND, either express or implied. See the SIL Open Font License for the specific language, permissions and limitations governing your use of this Font Software.
http://scripts.sil.org/OFL
  -->
<path d="M51 98C112 148 177 221 203 273L265 231C237 178 170 108 109 60ZM243 437L45 437 45 507 172 507 172 757C128 802 78 849 37 882L78 952C125 905 169 859 212 814 274 896 364 936 499 941 612 945 827 943 938 938 942 917 953 884 962 867 842 875 610 878 499 873 377 869 290 830 243 751ZM392 237L494 237 494 322 392 322ZM555 237L661 237 661 322 555 322ZM722 237L837 237 837 322 722 322ZM411 645L411 743C411 809 442 824 549 824 572 824 756 824 779 824 858 824 881 803 888 712 871 709 845 701 830 691 826 761 817 770 772 770 733 770 581 770 552 770 491 770 479 765 479 742L479 691 771 691 771 554C817 597 871 634 923 657 933 640 953 617 968 604 900 579 828 532 777 479L948 479 948 423 546 423C556 406 564 388 572 370L906 370 906 189 722 189 722 133 944 133 944 78 292 78 292 133 494 133 494 189 325 189 325 370 499 370C491 388 481 406 471 423L280 423 280 479 428 479C380 532 319 575 251 606 266 617 291 641 301 654 344 632 386 605 423 573L423 582 707 582 707 645ZM555 189L555 133 661 133 661 189ZM511 479L704 479C718 499 735 518 752 536L462 536C480 518 496 499 511 479Z"/>
</svg>