<svg xmlns="http://www.w3.org/2000/svg" name="gid13019" data-unicode="邃"
    viewBox="0 0 1000 1000">
  <!--
© 2014-2021 Adobe (http://www.adobe.com/).
Noto is a trademark of Google Inc.
This Font Software is licensed under the SIL Open Font License, Version 1.1. This Font Software is distributed on an "AS IS" BASIS, WITHOUT WARRANTIES OR CONDITIONS OF ANY KIND, either express or implied. See the SIL Open Font License for the specific language, permissions and limitations governing your use of this Font Software.
http://scripts.sil.org/OFL
  -->
<path d="M82 96C140 129 205 181 235 220L288 171C256 133 189 84 132 52ZM46 303C106 335 176 385 208 422L259 371C225 334 154 287 94 257ZM581 40L581 114 307 114 307 236 375 236 375 169 501 169C480 237 430 275 302 297 315 308 331 331 337 346 482 315 542 262 565 169L650 169 650 237C650 292 663 308 720 309 707 331 684 363 666 385L678 389 540 389 556 383C546 361 524 329 502 307L445 326C461 345 478 369 488 389L300 389 300 447 525 447C460 485 377 516 300 537 313 548 333 572 341 583 407 560 481 529 545 492 560 504 574 517 586 530 518 578 406 627 320 650 332 660 347 679 355 692 435 665 542 615 614 564 624 578 632 593 638 607 562 678 424 742 306 771 318 782 336 803 344 817 448 786 571 726 654 659 664 710 653 754 629 771 615 785 599 786 579 786 561 786 536 785 508 782 519 799 525 825 526 841 550 843 572 843 590 843 624 843 647 838 673 816 713 787 730 718 712 643 786 689 861 744 902 784L947 736C901 693 816 634 736 588 784 562 840 527 883 492L828 457C792 489 730 533 680 562 659 527 630 492 591 463L613 447 945 447 945 389 734 389C752 371 770 349 788 326L735 309 811 309C854 309 872 293 878 239L866 236C851 232 834 225 824 218 822 252 818 256 802 256 790 256 744 256 735 256 714 256 712 254 712 237L712 169 866 169 866 236 937 236 937 114 653 114 653 40ZM234 505L42 505 42 574 163 574 163 770C121 810 73 851 34 882L72 953C119 908 163 866 204 823 269 901 361 936 495 941 610 945 829 943 943 939 947 917 958 884 967 868 845 876 607 878 494 874 374 869 283 835 234 762Z"/>
</svg>