<svg xmlns="http://www.w3.org/2000/svg"
    viewBox="0 0 1000 1000">
  <!--
© 2014-2021 Adobe (http://www.adobe.com/).
Noto is a trademark of Google Inc.
This Font Software is licensed under the SIL Open Font License, Version 1.1. This Font Software is distributed on an "AS IS" BASIS, WITHOUT WARRANTIES OR CONDITIONS OF ANY KIND, either express or implied. See the SIL Open Font License for the specific language, permissions and limitations governing your use of this Font Software.
http://scripts.sil.org/OFL
  -->
<path d="M83 68C141 101 209 152 239 191L292 140C260 102 191 53 133 22ZM48 272C109 303 180 354 213 391L263 339C229 301 157 254 97 224ZM450 176L788 176 788 218 450 218ZM450 256L788 256 788 300 450 300ZM450 97L788 97 788 139 450 139ZM241 475L43 475 43 545 168 545 168 738C124 779 74 819 33 850L72 923C121 879 167 836 210 793 274 872 366 907 500 912 613 916 828 914 940 909 943 887 955 853 964 836 843 844 611 847 499 842 380 838 290 804 241 730ZM304 380L304 482 370 482 370 423 502 423C484 472 436 496 331 510 342 520 357 541 362 554 483 532 538 496 558 423L643 423 643 460C643 511 657 523 717 523 728 523 790 523 801 523 841 523 857 510 862 460 847 456 825 450 814 442 812 475 808 479 792 479 780 479 733 479 724 479 703 479 701 477 701 460L701 423 869 423 869 482 937 482 937 380 646 380 646 338 861 338 861 59 635 59C643 47 652 33 660 18L583 8C579 22 571 41 563 59L379 59 379 338 576 338 576 380ZM301 562L301 609 503 609C483 684 432 731 305 758 319 769 336 795 342 810 443 785 501 747 535 693L769 693C759 733 750 754 739 763 731 769 723 769 706 769 689 770 645 769 600 764 607 778 613 798 614 810 662 814 707 815 729 814 754 813 771 810 788 798 810 781 824 746 838 673 841 664 842 648 842 648L557 648C562 636 566 623 569 609L946 609 946 562 646 562 646 501 577 501 577 562Z"/>
</svg>