<svg xmlns="http://www.w3.org/2000/svg" name="gid13039" data-unicode="邢"
    viewBox="0 0 1000 1000">
  <!--
© 2014-2021 Adobe (http://www.adobe.com/).
Noto is a trademark of Google Inc.
This Font Software is licensed under the SIL Open Font License, Version 1.1. This Font Software is distributed on an "AS IS" BASIS, WITHOUT WARRANTIES OR CONDITIONS OF ANY KIND, either express or implied. See the SIL Open Font License for the specific language, permissions and limitations governing your use of this Font Software.
http://scripts.sil.org/OFL
  -->
<path d="M385 174L385 438 238 438 238 174ZM51 438L51 510 166 510C163 659 141 802 33 919 52 928 81 950 95 965 211 837 234 677 238 510L385 510 385 952 457 952 457 510 576 510 576 438 457 438 457 174 556 174 556 102 64 102 64 174 167 174 167 438ZM608 102L608 961 682 961 682 173 858 173C824 253 778 360 734 444 840 532 873 607 873 670 873 707 866 736 842 749 830 756 814 760 796 761 775 762 746 761 713 758 726 780 734 811 736 831 766 834 800 833 827 830 853 827 875 820 894 809 931 785 946 738 945 678 945 606 918 527 812 434 861 343 915 228 957 134L903 99 891 102Z"/>
</svg>