<svg xmlns="http://www.w3.org/2000/svg"
    viewBox="0 0 1000 1000">
  <!--
© 2014-2021 Adobe (http://www.adobe.com/).
Noto is a trademark of Google Inc.
This Font Software is licensed under the SIL Open Font License, Version 1.1. This Font Software is distributed on an "AS IS" BASIS, WITHOUT WARRANTIES OR CONDITIONS OF ANY KIND, either express or implied. See the SIL Open Font License for the specific language, permissions and limitations governing your use of this Font Software.
http://scripts.sil.org/OFL
  -->
<path d="M385 144L385 408 238 408 238 144ZM51 408L51 480 166 480C163 629 141 772 33 889 52 898 81 920 95 935 211 807 234 647 238 480L385 480 385 922 457 922 457 480 576 480 576 408 457 408 457 144 556 144 556 72 64 72 64 144 167 144 167 408ZM608 72L608 931 682 931 682 143 858 143C824 223 778 330 734 414 840 502 873 577 873 640 873 677 866 706 842 719 830 726 814 730 796 731 775 732 746 731 713 728 726 750 734 781 736 801 766 804 800 803 827 800 853 797 875 790 894 779 931 755 946 708 945 648 945 576 918 497 812 404 861 313 915 198 957 104L903 69 891 72Z"/>
</svg>