<svg xmlns="http://www.w3.org/2000/svg" name="gid13053" data-unicode="邸"
    viewBox="0 0 1000 1000">
  <!--
© 2014-2021 Adobe (http://www.adobe.com/).
Noto is a trademark of Google Inc.
This Font Software is licensed under the SIL Open Font License, Version 1.1. This Font Software is distributed on an "AS IS" BASIS, WITHOUT WARRANTIES OR CONDITIONS OF ANY KIND, either express or implied. See the SIL Open Font License for the specific language, permissions and limitations governing your use of this Font Software.
http://scripts.sil.org/OFL
  -->
<path d="M94 863L94 930 471 930 471 863ZM597 89L597 959 667 959 667 158 865 158C832 238 786 347 741 434 846 521 878 597 878 660 878 697 871 726 848 739 836 746 820 750 803 751 782 752 752 751 721 749 733 770 741 802 742 822 773 824 806 824 833 821 859 818 882 811 900 799 936 775 951 729 950 667 950 596 924 516 818 423 867 332 921 217 963 121L909 86 897 89ZM488 51C414 80 286 105 168 122L116 103 116 712 38 726 50 799C135 781 248 758 355 735L349 666 185 699 185 432 353 432C378 681 427 811 502 811 551 811 575 783 584 658 567 652 547 638 533 624 530 713 523 741 508 741 477 741 439 640 420 432L561 432 561 362 414 362C410 298 407 225 407 144 458 133 507 120 547 106ZM185 362L185 182C234 176 286 168 337 159 339 232 342 300 347 362Z"/>
</svg>