<svg xmlns="http://www.w3.org/2000/svg"
    viewBox="0 0 1000 1000">
  <!--
© 2014-2021 Adobe (http://www.adobe.com/).
Noto is a trademark of Google Inc.
This Font Software is licensed under the SIL Open Font License, Version 1.1. This Font Software is distributed on an "AS IS" BASIS, WITHOUT WARRANTIES OR CONDITIONS OF ANY KIND, either express or implied. See the SIL Open Font License for the specific language, permissions and limitations governing your use of this Font Software.
http://scripts.sil.org/OFL
  -->
<path d="M641 68L641 930 711 930 711 137 868 137C840 216 801 324 764 409 852 499 878 573 878 636 878 672 872 703 852 716 842 723 828 726 812 727 793 728 765 728 736 725 748 746 755 776 756 796 784 797 816 797 841 794 865 792 886 785 903 774 935 751 948 704 948 644 948 573 926 494 836 400 878 307 925 190 960 97L909 65 897 68ZM301 479C245 606 134 739 29 803 46 816 69 842 81 860 160 804 240 711 301 608L301 930 371 930 371 618C439 686 511 764 550 816L602 762C553 700 450 599 371 526L371 492C385 503 410 521 420 532 447 502 470 464 488 422 523 463 557 509 575 542L625 498C603 460 555 402 512 357 521 325 529 291 534 255L470 245C456 344 425 431 371 489L371 206 608 206 608 136 371 136 371 12 301 12 301 136 53 136 53 206 301 206ZM154 245C137 356 100 455 37 519 53 527 79 548 90 558 122 523 149 477 171 425 200 458 229 495 245 521L293 475C274 445 231 397 194 360 204 327 212 292 218 256Z"/>
</svg>