<svg xmlns="http://www.w3.org/2000/svg" name="gid13086" data-unicode="郴"
    viewBox="0 0 1000 1000">
  <!--
© 2014-2021 Adobe (http://www.adobe.com/).
Noto is a trademark of Google Inc.
This Font Software is licensed under the SIL Open Font License, Version 1.1. This Font Software is distributed on an "AS IS" BASIS, WITHOUT WARRANTIES OR CONDITIONS OF ANY KIND, either express or implied. See the SIL Open Font License for the specific language, permissions and limitations governing your use of this Font Software.
http://scripts.sil.org/OFL
  -->
<path d="M186 44L186 249 57 249 57 319 172 319C140 469 87 628 32 712 48 723 72 747 85 763 123 696 158 591 186 479L186 959 255 959 255 434C285 474 319 522 334 547L372 488C355 466 284 382 255 351L255 319 334 319 334 249 255 249 255 44ZM461 44L461 249 364 249 364 319 451 319C416 483 355 651 282 735 298 747 321 771 333 788 384 719 428 609 461 488L461 959 530 959 530 452C560 493 595 543 611 569L648 509C631 487 559 399 530 368L530 319 635 319 635 249 530 249 530 44ZM668 87L668 959 736 959 736 153 871 153C844 232 806 341 770 427 856 518 880 594 880 657 880 692 874 725 854 737 844 745 831 748 816 748 797 750 770 749 742 746 753 766 759 796 760 813 787 816 819 815 843 813 866 810 887 804 902 793 933 770 946 723 946 664 946 593 924 514 837 419 878 325 924 208 958 114L909 84 898 87Z"/>
</svg>