<svg xmlns="http://www.w3.org/2000/svg"
    viewBox="0 0 1000 1000">
  <!--
© 2014-2021 Adobe (http://www.adobe.com/).
Noto is a trademark of Google Inc.
This Font Software is licensed under the SIL Open Font License, Version 1.1. This Font Software is distributed on an "AS IS" BASIS, WITHOUT WARRANTIES OR CONDITIONS OF ANY KIND, either express or implied. See the SIL Open Font License for the specific language, permissions and limitations governing your use of this Font Software.
http://scripts.sil.org/OFL
  -->
<path d="M43 376L43 443 471 443 471 376ZM113 202C131 255 145 324 148 369L211 357C207 312 193 244 172 192ZM345 187C336 236 316 311 300 356L358 370C376 326 395 260 412 201ZM592 107L825 107 825 236 592 236ZM525 45L525 297 893 297 893 45ZM225 14L225 114 58 114 58 179 464 179 464 114 295 114 295 14ZM100 525L100 897 166 897 166 844 360 844 360 889 430 889 430 525ZM166 781L166 590 360 590 360 781ZM495 369L495 802C495 893 525 914 629 914 652 914 819 914 843 914 935 914 957 878 968 750 948 745 918 734 902 722 897 829 889 848 839 848 803 848 660 848 633 848 575 848 564 841 564 801L564 652 854 652 854 681 923 681 923 369ZM854 588L738 588 738 434 854 434ZM564 434L674 434 674 588 564 588Z"/>
</svg>