<svg xmlns="http://www.w3.org/2000/svg"
    viewBox="0 0 1000 1000">
  <!--
© 2014-2021 Adobe (http://www.adobe.com/).
Noto is a trademark of Google Inc.
This Font Software is licensed under the SIL Open Font License, Version 1.1. This Font Software is distributed on an "AS IS" BASIS, WITHOUT WARRANTIES OR CONDITIONS OF ANY KIND, either express or implied. See the SIL Open Font License for the specific language, permissions and limitations governing your use of this Font Software.
http://scripts.sil.org/OFL
  -->
<path d="M636 58L636 930 705 930 705 126 863 126C835 205 796 313 758 399 847 489 873 563 873 626 873 662 867 693 847 706 837 713 822 716 806 717 788 718 761 718 731 715 743 736 750 766 751 786 778 787 811 787 836 784 859 782 881 775 897 764 930 741 943 694 943 634 943 564 921 484 831 390 873 297 920 181 955 87L903 55 892 58ZM197 378L197 926 263 926 263 880 495 880 495 922 563 922 563 378ZM263 818L263 731 495 731 495 818ZM263 672L263 585 495 585 495 672ZM263 526L263 439 495 439 495 526ZM102 57L102 352C102 503 96 717 24 870 40 876 70 893 83 904 158 745 169 511 169 352L169 311 568 311 568 57ZM169 119L300 119 300 249 169 249ZM366 119L499 119 499 249 366 249Z"/>
</svg>