<svg xmlns="http://www.w3.org/2000/svg" name="gid13092" data-unicode="郿"
    viewBox="0 0 1000 1000">
  <!--
© 2014-2021 Adobe (http://www.adobe.com/).
Noto is a trademark of Google Inc.
This Font Software is licensed under the SIL Open Font License, Version 1.1. This Font Software is distributed on an "AS IS" BASIS, WITHOUT WARRANTIES OR CONDITIONS OF ANY KIND, either express or implied. See the SIL Open Font License for the specific language, permissions and limitations governing your use of this Font Software.
http://scripts.sil.org/OFL
  -->
<path d="M636 88L636 960 705 960 705 156 863 156C835 235 796 343 758 429 847 519 873 593 873 656 873 692 867 723 847 736 837 743 822 746 806 747 788 748 761 748 731 745 743 766 750 796 751 816 778 817 811 817 836 814 859 812 881 805 897 794 930 771 943 724 943 664 943 594 921 514 831 420 873 327 920 211 955 117L903 85 892 88ZM197 408L197 956 263 956 263 910 495 910 495 952 563 952 563 408ZM263 848L263 761 495 761 495 848ZM263 702L263 615 495 615 495 702ZM263 556L263 469 495 469 495 556ZM102 87L102 382C102 533 96 747 24 900 40 906 70 923 83 934 158 775 169 541 169 382L169 341 568 341 568 87ZM169 149L300 149 300 279 169 279ZM366 149L499 149 499 279 366 279Z"/>
</svg>