<svg xmlns="http://www.w3.org/2000/svg" name="gid13095" data-unicode="鄄"
    viewBox="0 0 1000 1000">
  <!--
© 2014-2021 Adobe (http://www.adobe.com/).
Noto is a trademark of Google Inc.
This Font Software is licensed under the SIL Open Font License, Version 1.1. This Font Software is distributed on an "AS IS" BASIS, WITHOUT WARRANTIES OR CONDITIONS OF ANY KIND, either express or implied. See the SIL Open Font License for the specific language, permissions and limitations governing your use of this Font Software.
http://scripts.sil.org/OFL
  -->
<path d="M635 87L635 959 704 959 704 153 870 153C842 232 801 341 762 427 854 518 881 593 881 656 881 692 875 724 854 736 843 743 828 746 812 747 793 748 764 748 734 745 746 765 753 796 754 814 783 816 816 816 841 813 865 810 887 804 903 793 936 770 950 722 950 663 950 593 927 513 834 418 877 324 925 209 961 116L911 84 899 87ZM47 856L55 924C194 908 397 883 588 859L587 796 356 822 356 703 561 703 561 640 356 640 356 547 573 547 573 235 416 235 416 156 585 156 585 93 57 93 57 156 226 156 226 235 74 235 74 547 286 547 286 640 87 640 87 703 286 703 286 830ZM286 156L356 156 356 235 286 235ZM135 294L233 294C227 361 205 393 136 412 147 421 161 441 166 454 250 427 278 381 284 294L356 294 356 345C356 384 360 398 372 407 382 417 404 420 423 420 431 420 463 420 472 420L510 419 510 488 135 488ZM407 294L510 294 510 374C510 376 509 376 508 376 504 376 498 376 494 376 490 377 478 377 469 377 458 377 440 377 431 377 423 377 416 376 413 374 408 371 407 364 407 353Z"/>
</svg>