<svg xmlns="http://www.w3.org/2000/svg" name="gid13127" data-unicode="鄺"
    viewBox="0 0 1000 1000">
  <!--
© 2014-2021 Adobe (http://www.adobe.com/).
Noto is a trademark of Google Inc.
This Font Software is licensed under the SIL Open Font License, Version 1.1. This Font Software is distributed on an "AS IS" BASIS, WITHOUT WARRANTIES OR CONDITIONS OF ANY KIND, either express or implied. See the SIL Open Font License for the specific language, permissions and limitations governing your use of this Font Software.
http://scripts.sil.org/OFL
  -->
<path d="M277 822C244 858 183 891 126 915 140 926 165 949 175 961 234 933 301 887 341 841ZM440 851C485 881 539 922 568 954L625 920C592 889 534 848 483 817ZM99 121L99 430C99 566 93 751 26 883 38 891 65 917 75 931 139 811 159 640 163 501L354 501 354 553 190 553 190 812 588 812 588 553 414 553 414 501 623 501 623 448 164 448 164 430 164 290 251 290 251 409 520 409 520 290 613 290 613 239 520 239 520 178 620 178 620 121 407 121 407 43 337 43 337 121ZM247 704L354 704 354 766 247 766ZM414 704L529 704 529 766 414 766ZM247 600L354 600 354 659 247 659ZM414 600L529 600 529 659 414 659ZM460 290L460 358 308 358 308 290ZM251 239L164 239 164 178 251 178ZM460 239L308 239 308 178 460 178ZM656 96L656 959 723 959 723 162 872 162C845 241 805 350 768 436 857 527 882 602 882 665 883 702 876 733 857 746 846 753 832 756 816 757 797 758 770 758 741 755 753 775 760 804 761 823 788 825 819 825 844 822 868 820 889 813 905 802 937 780 949 732 949 672 949 602 927 523 838 428 880 334 926 217 961 124L911 93 900 96Z"/>
</svg>