<svg xmlns="http://www.w3.org/2000/svg" name="gid13129" data-unicode="鄽"
    viewBox="0 0 1000 1000">
  <!--
© 2014-2021 Adobe (http://www.adobe.com/).
Noto is a trademark of Google Inc.
This Font Software is licensed under the SIL Open Font License, Version 1.1. This Font Software is distributed on an "AS IS" BASIS, WITHOUT WARRANTIES OR CONDITIONS OF ANY KIND, either express or implied. See the SIL Open Font License for the specific language, permissions and limitations governing your use of this Font Software.
http://scripts.sil.org/OFL
  -->
<path d="M82 113L82 502C82 627 78 789 20 902 33 911 59 938 68 952 137 829 148 637 148 501L148 170 630 170 630 113 402 113 402 42 326 42 326 113ZM195 213L195 431 354 431 354 474 199 474 199 521 354 521 354 569 168 569 168 617 287 617C273 664 237 691 152 706 165 716 180 737 187 750 288 726 331 686 348 617L424 617 424 658C424 710 437 723 496 723 507 723 558 723 569 723 609 723 625 709 630 655 614 651 591 645 580 637 577 672 574 677 559 677 549 677 512 677 504 677 488 677 485 674 485 658L485 617 616 617 616 569 420 569 420 521 584 521 584 474 420 474 420 431 583 431 583 213ZM132 877L132 928 632 928 632 877 424 877 424 816 593 816 593 766 424 766 424 694 356 694 356 766 195 766 195 816 356 816 356 877ZM251 342L358 342 358 390 251 390ZM416 342L526 342 526 390 416 390ZM251 255L358 255 358 302 251 302ZM416 255L526 255 526 302 416 302ZM657 96L657 959 725 959 725 162 871 162C844 241 806 350 769 436 856 527 881 602 881 665 881 702 874 733 855 746 845 752 831 756 816 757 797 758 770 758 742 755 754 775 760 804 761 823 788 825 819 825 844 822 867 820 888 813 904 802 935 780 948 732 948 672 948 602 926 523 838 428 879 335 925 218 960 124L910 93 899 96Z"/>
</svg>