<svg xmlns="http://www.w3.org/2000/svg" name="gid13141" data-unicode="酒"
    viewBox="0 0 1000 1000">
  <!--
© 2014-2021 Adobe (http://www.adobe.com/).
Noto is a trademark of Google Inc.
This Font Software is licensed under the SIL Open Font License, Version 1.1. This Font Software is distributed on an "AS IS" BASIS, WITHOUT WARRANTIES OR CONDITIONS OF ANY KIND, either express or implied. See the SIL Open Font License for the specific language, permissions and limitations governing your use of this Font Software.
http://scripts.sil.org/OFL
  -->
<path d="M71 111C124 143 196 188 232 217L277 156C239 129 166 87 113 57ZM34 380C90 410 166 454 204 480L246 418C207 392 131 352 76 325ZM53 901L120 945C171 852 232 725 277 618L218 575C168 690 100 822 53 901ZM327 299L327 959 396 959 396 911 846 911 846 956 918 956 918 299 729 299 729 164 955 164 955 95 291 95 291 164 498 164 498 299ZM565 164L661 164 661 299 565 299ZM396 730L846 730 846 845 396 845ZM396 665L396 579C408 589 424 605 431 614 540 557 567 472 567 401L567 366 659 366 659 489C659 553 675 569 739 569 751 569 823 569 836 569L846 569 846 665ZM396 567L396 366 507 366 507 400C507 454 486 517 396 567ZM719 366L846 366 846 505C844 507 840 508 827 508 812 508 756 508 746 508 722 508 719 505 719 488Z"/>
</svg>