<svg xmlns="http://www.w3.org/2000/svg"
    viewBox="0 0 1000 1000">
  <!--
© 2014-2021 Adobe (http://www.adobe.com/).
Noto is a trademark of Google Inc.
This Font Software is licensed under the SIL Open Font License, Version 1.1. This Font Software is distributed on an "AS IS" BASIS, WITHOUT WARRANTIES OR CONDITIONS OF ANY KIND, either express or implied. See the SIL Open Font License for the specific language, permissions and limitations governing your use of this Font Software.
http://scripts.sil.org/OFL
  -->
<path d="M125 694L399 694 399 795 125 795ZM125 635L125 552C135 559 149 570 155 579 218 524 232 446 232 387L232 313 289 313 289 467C289 516 301 526 342 526 350 526 385 526 392 526L399 526 399 635ZM47 54L47 118 178 118 178 249 65 249 65 928 125 928 125 856 399 856 399 914 461 914 461 249 344 249 344 118 470 118 470 54ZM232 249L232 118 289 118 289 249ZM125 545L125 313 188 313 188 386C188 436 180 496 125 545ZM333 313L399 313 399 478C397 480 395 480 385 480 377 480 352 480 346 480 334 480 333 478 333 466ZM676 432L676 586 482 586 482 657 676 657 676 929 749 929 749 657 962 657 962 586 749 586 749 432ZM619 11C618 52 617 90 615 125L490 125 490 193 608 193C592 304 555 380 463 430 478 442 498 467 507 484 617 423 660 329 678 193L779 193 779 340C779 394 783 409 796 421 809 434 829 437 848 437 857 437 880 437 891 437 906 437 923 435 934 429 946 422 954 411 960 394 965 378 968 331 969 291 952 286 930 275 918 264 917 306 916 338 914 354 911 366 909 375 905 377 902 380 893 382 886 382 879 382 869 382 863 382 857 382 852 380 848 377 845 374 844 363 844 344L844 125 685 125C687 89 689 52 690 11Z"/>
</svg>