<svg xmlns="http://www.w3.org/2000/svg"
    viewBox="0 0 1000 1000">
  <!--
© 2014-2021 Adobe (http://www.adobe.com/).
Noto is a trademark of Google Inc.
This Font Software is licensed under the SIL Open Font License, Version 1.1. This Font Software is distributed on an "AS IS" BASIS, WITHOUT WARRANTIES OR CONDITIONS OF ANY KIND, either express or implied. See the SIL Open Font License for the specific language, permissions and limitations governing your use of this Font Software.
http://scripts.sil.org/OFL
  -->
<path d="M49 56L49 120 178 120 178 249 65 249 65 928 125 928 125 856 399 856 399 914 461 914 461 892C476 904 491 919 500 931 608 851 670 740 705 608L705 817C705 869 710 885 728 900 746 914 772 918 795 918 808 918 846 918 862 918 883 918 909 914 925 905 941 896 953 882 959 859 965 837 969 775 970 721 950 715 924 702 910 688 911 745 908 794 906 814 904 827 897 836 890 841 883 844 869 846 857 846 843 846 822 846 811 846 800 846 791 844 783 840 777 837 773 831 773 820L773 393 741 393C744 350 747 305 749 260L874 260 874 389 942 389 942 194 750 194 752 10 681 10 680 194 505 194 505 389 570 389 570 260 678 260C669 516 631 737 461 868L461 249 344 249 344 120 471 120 471 56ZM125 694L399 694 399 795 125 795ZM125 635L125 552C135 559 149 570 155 579 218 524 232 446 232 387L232 313 289 313 289 467C289 516 301 526 342 526 350 526 385 526 392 526L399 526 399 635ZM232 249L232 120 289 120 289 249ZM125 545L125 313 188 313 188 386C188 436 180 496 125 545ZM333 313L399 313 399 478C397 480 395 480 385 480 377 480 352 480 346 480 334 480 333 478 333 466Z"/>
</svg>