<svg xmlns="http://www.w3.org/2000/svg" name="gid13147" data-unicode="酙"
    viewBox="0 0 1000 1000">
  <!--
© 2014-2021 Adobe (http://www.adobe.com/).
Noto is a trademark of Google Inc.
This Font Software is licensed under the SIL Open Font License, Version 1.1. This Font Software is distributed on an "AS IS" BASIS, WITHOUT WARRANTIES OR CONDITIONS OF ANY KIND, either express or implied. See the SIL Open Font License for the specific language, permissions and limitations governing your use of this Font Software.
http://scripts.sil.org/OFL
  -->
<path d="M539 161C597 200 664 257 694 298L746 251C714 210 646 155 588 120ZM508 404C568 444 637 505 668 548L721 503C687 460 618 402 557 364ZM474 676L487 743 778 689 778 958 850 958 850 676 968 654 956 587 850 607 850 43 778 43 778 620ZM125 724L399 724 399 825 125 825ZM125 665L125 579C135 585 149 597 155 605 218 551 232 475 232 415L232 343 289 343 289 495C289 544 301 554 342 554 350 554 385 554 393 554L399 554 399 665ZM47 84L47 148 178 148 178 279 65 279 65 958 125 958 125 886 399 886 399 944 461 944 461 279 344 279 344 148 472 148 472 84ZM232 279L232 148 289 148 289 279ZM125 572L125 343 188 343 188 414C188 464 180 523 125 572ZM333 343L399 343 399 506C397 508 395 508 385 508 377 508 352 508 346 508 334 508 333 507 333 495Z"/>
</svg>