<svg xmlns="http://www.w3.org/2000/svg"
    viewBox="0 0 1000 1000">
  <!--
© 2014-2021 Adobe (http://www.adobe.com/).
Noto is a trademark of Google Inc.
This Font Software is licensed under the SIL Open Font License, Version 1.1. This Font Software is distributed on an "AS IS" BASIS, WITHOUT WARRANTIES OR CONDITIONS OF ANY KIND, either express or implied. See the SIL Open Font License for the specific language, permissions and limitations governing your use of this Font Software.
http://scripts.sil.org/OFL
  -->
<path d="M605 114L847 114 847 284 605 284ZM536 49L536 349 919 349 919 49ZM870 381C787 417 635 449 503 469 512 484 522 510 525 526 577 519 633 510 687 499L687 621 491 621 491 687 687 687 687 835 519 835 519 901 939 901 939 835 760 835 760 687 960 687 960 621 760 621 760 484C823 470 882 453 931 434ZM125 694L399 694 399 795 125 795ZM125 635L125 552C135 559 149 570 155 579 218 524 232 446 232 387L232 313 289 313 289 467C289 516 301 526 342 526 350 526 385 526 392 526L399 526 399 635ZM47 54L47 118 178 118 178 249 65 249 65 928 125 928 125 856 399 856 399 914 461 914 461 249 344 249 344 118 470 118 470 54ZM232 249L232 118 289 118 289 249ZM125 545L125 313 188 313 188 386C188 436 180 496 125 545ZM333 313L399 313 399 478C397 480 395 480 385 480 377 480 352 480 346 480 334 480 333 478 333 466Z"/>
</svg>