<svg xmlns="http://www.w3.org/2000/svg"
    viewBox="0 0 1000 1000">
  <!--
© 2014-2021 Adobe (http://www.adobe.com/).
Noto is a trademark of Google Inc.
This Font Software is licensed under the SIL Open Font License, Version 1.1. This Font Software is distributed on an "AS IS" BASIS, WITHOUT WARRANTIES OR CONDITIONS OF ANY KIND, either express or implied. See the SIL Open Font License for the specific language, permissions and limitations governing your use of this Font Software.
http://scripts.sil.org/OFL
  -->
<path d="M635 584L821 584C796 638 761 684 719 724 681 685 651 641 628 593ZM54 55L54 119 170 119 170 243 63 243 63 926 122 926 122 856 389 856 389 913 449 913 449 871C463 885 479 911 487 928 569 903 648 866 716 814 777 866 849 905 932 930 942 911 962 884 977 869 898 849 827 815 769 769 831 709 881 634 911 541L866 522 854 525 676 525C691 500 705 473 716 446L648 429C609 526 535 609 449 664L449 430C463 442 481 466 488 482 604 437 639 363 651 250L734 245 734 368C734 430 749 447 814 447 826 447 881 447 894 447 943 447 961 426 967 337 949 332 922 323 909 313 907 381 902 388 885 388 874 388 831 388 823 388 803 388 800 386 800 367L800 241 883 236C896 253 906 270 914 284L972 251C944 202 881 129 825 79L771 108C793 129 816 153 837 177L616 188C644 140 673 81 699 31L626 8C607 62 573 136 542 191L459 194 464 260 585 254C575 340 545 396 449 429L449 243 338 243 338 119 453 119 453 55ZM583 643C607 688 635 730 668 766 603 814 527 849 449 870L449 682C464 695 481 712 490 722 522 700 554 673 583 643ZM122 694L389 694 389 795 122 795ZM122 635L122 549C131 555 143 567 149 574 211 519 226 442 226 382L226 307 281 307 281 465C281 513 293 522 333 522 341 522 374 522 382 522L389 522 389 635ZM225 243L225 119 283 119 283 243ZM122 540L122 307 183 307 183 382C183 432 175 492 122 540ZM324 307L389 307 389 475C387 477 384 478 374 478 367 478 342 478 337 478 325 478 324 476 324 464Z"/>
</svg>