<svg xmlns="http://www.w3.org/2000/svg" name="gid13172" data-unicode="醅"
    viewBox="0 0 1000 1000">
  <!--
© 2014-2021 Adobe (http://www.adobe.com/).
Noto is a trademark of Google Inc.
This Font Software is licensed under the SIL Open Font License, Version 1.1. This Font Software is distributed on an "AS IS" BASIS, WITHOUT WARRANTIES OR CONDITIONS OF ANY KIND, either express or implied. See the SIL Open Font License for the specific language, permissions and limitations governing your use of this Font Software.
http://scripts.sil.org/OFL
  -->
<path d="M818 236C806 289 779 366 759 414L817 431C840 387 866 315 890 256ZM544 254C566 310 587 384 592 432L656 414C650 365 630 293 605 238ZM469 434L469 499 962 499 962 434ZM490 164L490 228 940 228 940 164 746 164 746 39 676 39 676 164ZM518 584L518 961 585 961 585 913 841 913 841 958 911 958 911 584ZM585 848L585 650 841 650 841 848ZM123 724L390 724 390 825 123 825ZM123 665L123 583C132 589 144 600 150 607 213 553 227 476 227 416L227 341 282 341 282 499C282 547 294 556 334 556 342 556 376 556 383 556L390 556 390 665ZM47 83L47 147 172 147 172 277 64 277 64 957 123 957 123 886 390 886 390 944 450 944 450 277 339 277 339 147 460 147 460 83ZM226 277L226 147 284 147 284 277ZM123 574L123 341 184 341 184 416C184 466 176 526 123 574ZM325 341L390 341 390 509C388 511 385 512 375 512 368 512 343 512 338 512 327 512 325 510 325 498Z"/>
</svg>