<svg xmlns="http://www.w3.org/2000/svg"
    viewBox="0 0 1000 1000">
  <!--
© 2014-2021 Adobe (http://www.adobe.com/).
Noto is a trademark of Google Inc.
This Font Software is licensed under the SIL Open Font License, Version 1.1. This Font Software is distributed on an "AS IS" BASIS, WITHOUT WARRANTIES OR CONDITIONS OF ANY KIND, either express or implied. See the SIL Open Font License for the specific language, permissions and limitations governing your use of this Font Software.
http://scripts.sil.org/OFL
  -->
<path d="M124 689L358 689 358 794 124 794ZM124 633L124 557C133 563 144 573 149 579 203 523 215 442 215 383L215 306 262 306 262 474C262 520 274 529 311 529 318 529 346 529 353 529L358 529 358 633ZM47 54L47 118 163 118 163 242 69 242 69 925 124 925 124 855 358 855 358 912 415 912 415 242 315 242 315 118 432 118 432 54ZM215 242L215 118 263 118 263 242ZM124 544L124 306 174 306 174 382C174 432 167 494 124 544ZM302 306L358 306 358 485C356 486 353 486 345 486 338 486 319 486 315 486 304 486 302 485 302 473ZM778 10L778 142 624 142 624 10 560 10 560 142 465 142 465 208 560 208 560 340 446 340 446 408 956 408 956 340 843 340 843 208 927 208 927 142 843 142 843 10ZM624 208L778 208 778 340 624 340ZM573 717L831 717 831 823 573 823ZM573 656L573 553 831 553 831 656ZM508 489L508 930 573 930 573 885 831 885 831 925 898 925 898 489Z"/>
</svg>