<svg xmlns="http://www.w3.org/2000/svg" name="gid13182" data-unicode="醒"
    viewBox="0 0 1000 1000">
  <!--
© 2014-2021 Adobe (http://www.adobe.com/).
Noto is a trademark of Google Inc.
This Font Software is licensed under the SIL Open Font License, Version 1.1. This Font Software is distributed on an "AS IS" BASIS, WITHOUT WARRANTIES OR CONDITIONS OF ANY KIND, either express or implied. See the SIL Open Font License for the specific language, permissions and limitations governing your use of this Font Software.
http://scripts.sil.org/OFL
  -->
<path d="M586 367L586 281 845 281 845 367ZM586 225L586 141 845 141 845 225ZM914 80L520 80 520 427 914 427ZM333 513L333 337 398 337 398 526C396 527 393 528 385 528 377 528 352 528 346 528 334 528 333 526 333 513ZM232 413L232 337 287 337 287 513C287 564 300 575 342 575 350 575 385 575 393 575L398 575 398 665 125 665 125 581C135 588 148 599 153 606 218 551 232 473 232 413ZM186 337L186 412C186 462 177 520 125 568L125 337ZM288 147L288 273 231 273 231 147ZM964 872L755 872 755 757 914 757 914 696 755 696 755 597 934 597 934 536 755 536 755 447 687 447 687 536 593 536C603 510 613 482 620 455L559 443C539 518 505 592 460 645L460 273 344 273 344 147 469 147 469 83 49 83 49 147 176 147 176 273 65 273 65 955 125 955 125 886 398 886 398 941 460 941 460 657C476 665 496 679 506 687 527 662 547 631 565 597L687 597 687 696 528 696 528 757 687 757 687 872 484 872 484 935 964 935ZM125 825L125 724 398 724 398 825Z"/>
</svg>