<svg xmlns="http://www.w3.org/2000/svg" name="gid13186" data-unicode="醗"
    viewBox="0 0 1000 1000">
  <!--
© 2014-2021 Adobe (http://www.adobe.com/).
Noto is a trademark of Google Inc.
This Font Software is licensed under the SIL Open Font License, Version 1.1. This Font Software is distributed on an "AS IS" BASIS, WITHOUT WARRANTIES OR CONDITIONS OF ANY KIND, either express or implied. See the SIL Open Font License for the specific language, permissions and limitations governing your use of this Font Software.
http://scripts.sil.org/OFL
  -->
<path d="M48 85L48 146 160 146 160 278 66 278 66 957 122 957 122 886 356 886 356 941 414 941 414 444C427 454 448 481 456 497 483 476 509 450 533 420L533 456 581 456 581 593 457 593 457 659 578 659C569 746 536 839 432 910 445 920 468 946 476 960 595 879 634 762 644 659L738 659 738 839C738 907 744 924 760 936 774 949 798 954 817 954 829 954 858 954 872 954 890 954 910 951 923 945 938 937 948 926 954 907 960 890 963 839 965 796 945 790 920 778 906 765 905 812 904 848 902 865 900 880 895 887 889 891 884 894 874 895 865 895 854 895 838 895 831 895 822 895 816 893 811 890 805 886 803 870 803 846L803 659 940 659 940 593 803 593 803 456 859 456 859 424C878 445 899 464 922 479 933 461 955 436 970 423 924 396 885 355 854 304 887 285 928 261 960 233L922 187C898 207 859 235 827 256 817 235 808 214 800 192 830 172 865 147 893 120L857 73C838 91 808 116 782 137 772 105 764 73 758 39L701 50C725 184 767 303 831 390L555 390C610 311 654 207 677 85L637 68 624 71 489 71 489 134 600 134C590 172 577 209 563 243 536 224 501 202 474 185L440 236C469 255 506 281 533 302 500 360 459 408 414 442L414 278 311 278 311 146 428 146 428 85ZM647 456L738 456 738 593 647 593ZM122 724L356 724 356 825 122 825ZM122 665L122 591C131 597 141 604 146 610 200 552 212 470 212 409L212 340 260 340 260 497C260 545 271 555 310 555 317 555 343 555 351 555L356 555 356 665ZM211 278L211 146 258 146 258 278ZM122 570L122 340 169 340 169 409C169 457 161 518 122 570ZM303 340L356 340 356 507C354 509 351 509 342 509 336 509 318 509 314 509 304 509 303 508 303 496Z"/>
</svg>