<svg xmlns="http://www.w3.org/2000/svg"
    viewBox="0 0 1000 1000">
  <!--
© 2014-2021 Adobe (http://www.adobe.com/).
Noto is a trademark of Google Inc.
This Font Software is licensed under the SIL Open Font License, Version 1.1. This Font Software is distributed on an "AS IS" BASIS, WITHOUT WARRANTIES OR CONDITIONS OF ANY KIND, either express or implied. See the SIL Open Font License for the specific language, permissions and limitations governing your use of this Font Software.
http://scripts.sil.org/OFL
  -->
<path d="M62 81C95 125 130 184 144 222L202 190C188 152 151 95 116 53ZM387 140C414 173 442 218 453 249L506 221C495 191 466 148 438 116ZM550 119C573 153 594 200 601 231L657 207C650 177 627 131 604 98ZM838 11C729 34 527 50 356 57 363 71 371 92 373 105 548 100 755 84 890 56ZM121 594L121 929 192 929 192 903 810 903 810 927 884 927 884 594 604 594 604 543 930 543 930 491 69 491 69 543 375 543 375 594ZM192 858L192 815 810 815 810 858ZM192 771L192 640 371 640C360 672 323 705 207 722 220 734 235 754 244 767 384 738 424 690 433 640L543 640 543 669C543 723 562 734 640 734 657 734 776 734 793 734L810 734 810 771ZM435 543L543 543 543 594 435 594ZM604 640L810 640 810 690C808 692 802 693 784 693 761 693 663 693 646 693 610 693 604 689 604 669ZM803 92C781 130 739 186 706 221L751 242 751 255 348 255 348 308 468 308 422 343C467 373 519 416 544 447L594 407C568 376 515 335 471 308L751 308 751 403C751 415 747 418 733 419 720 420 672 420 621 418 630 433 639 454 643 470 713 470 757 470 784 462 811 453 818 439 818 405L818 308 938 308 938 255 818 255 818 205 793 205C818 179 843 148 866 119ZM44 349L75 411 238 331 238 471 309 471 309 11 238 11 238 269C165 300 95 331 44 349Z"/>
</svg>