<svg xmlns="http://www.w3.org/2000/svg"
    viewBox="0 0 1000 1000">
  <!--
© 2014-2021 Adobe (http://www.adobe.com/).
Noto is a trademark of Google Inc.
This Font Software is licensed under the SIL Open Font License, Version 1.1. This Font Software is distributed on an "AS IS" BASIS, WITHOUT WARRANTIES OR CONDITIONS OF ANY KIND, either express or implied. See the SIL Open Font License for the specific language, permissions and limitations governing your use of this Font Software.
http://scripts.sil.org/OFL
  -->
<path d="M662 10L662 97 443 97 443 159 955 159 955 97 736 97 736 10ZM489 193L489 466 657 466 645 533 467 533 467 926 528 926 528 594 632 594C621 644 609 693 598 731L555 734 565 788 793 762C800 781 805 799 808 814L855 799C845 755 816 683 785 631L741 642C753 665 765 691 776 717L656 727C668 688 681 642 694 594L871 594 871 857C871 868 867 871 856 871 845 871 806 872 762 870 771 887 781 912 783 928 843 928 879 928 903 918 926 908 932 890 932 858L932 533 710 533 726 466 905 466 905 193 846 193 846 411 547 411 547 193ZM741 175C728 202 712 229 693 253 666 237 639 221 613 208L583 242C609 256 636 272 662 289 635 318 605 343 574 363 586 370 606 388 614 396 644 374 675 348 703 317 733 339 761 362 779 381L811 342C792 324 765 302 733 280 756 251 775 220 790 188ZM122 694L356 694 356 795 122 795ZM122 635L122 561C131 567 141 574 146 580 200 522 212 440 212 379L212 310 260 310 260 467C260 515 271 525 310 525 317 525 343 525 351 525L356 525 356 635ZM49 60L49 121 160 121 160 248 66 248 66 927 122 927 122 856 356 856 356 911 414 911 414 248 311 248 311 121 424 121 424 60ZM211 248L211 121 258 121 258 248ZM122 540L122 310 169 310 169 379C169 427 161 488 122 540ZM303 310L356 310 356 477C354 479 351 479 342 479 336 479 318 479 314 479 304 479 303 478 303 466Z"/>
</svg>