<svg xmlns="http://www.w3.org/2000/svg"
    viewBox="0 0 1000 1000">
  <!--
© 2014-2021 Adobe (http://www.adobe.com/).
Noto is a trademark of Google Inc.
This Font Software is licensed under the SIL Open Font License, Version 1.1. This Font Software is distributed on an "AS IS" BASIS, WITHOUT WARRANTIES OR CONDITIONS OF ANY KIND, either express or implied. See the SIL Open Font License for the specific language, permissions and limitations governing your use of this Font Software.
http://scripts.sil.org/OFL
  -->
<path d="M48 57L48 118 162 118 162 245 63 245 63 925 119 925 119 856 358 856 358 911 416 911 416 901C430 909 445 920 452 927 526 804 538 618 538 484L538 228 657 228 657 291 565 300 570 347 657 338 657 364C657 419 673 433 740 433 753 433 830 433 844 433 889 433 907 416 912 356 896 353 874 346 861 338 859 380 854 386 835 386 820 386 759 386 747 386 722 386 717 383 717 364L717 332 843 320 838 274 717 286 717 228 890 228C887 255 882 282 878 301L932 311C942 278 951 224 958 179L915 169 904 172 717 172 717 122 910 122 910 68 717 68 717 10 652 10 652 172 475 172 475 484C475 597 469 744 416 858L416 245 314 245 314 118 432 118 432 57ZM916 560C895 579 860 607 831 629 818 593 808 554 799 515L952 515 952 461 557 461 557 515 689 515C648 550 594 580 542 603 553 613 570 636 577 647 604 634 632 617 659 599 668 609 677 620 684 631 643 666 578 701 526 718 538 729 551 749 557 762 607 740 664 704 706 669 713 683 718 697 722 711 672 761 583 812 510 836 522 847 536 868 542 881 605 855 678 810 732 764 735 812 725 851 707 865 695 877 681 878 664 878 649 878 627 878 601 875 611 890 616 914 617 928 637 929 660 930 675 930 708 930 728 924 749 904 806 856 809 679 699 570 719 553 739 536 755 518 783 673 837 813 925 881 935 866 954 845 968 834 919 801 880 745 850 678 883 658 923 631 954 603ZM119 691L358 691 358 796 119 796ZM119 635L119 561C129 568 141 578 147 585 201 530 214 450 214 391L214 307 261 307 261 469C261 517 273 526 314 526L358 526 358 635ZM213 245L213 118 261 118 261 245ZM119 550L119 307 171 307 171 390C171 440 164 501 119 550ZM303 307L358 307 358 482 354 482C347 482 323 482 317 482 305 482 303 480 303 468Z"/>
</svg>