<svg xmlns="http://www.w3.org/2000/svg" name="gid13223" data-unicode="釉"
    viewBox="0 0 1000 1000">
  <!--
© 2014-2021 Adobe (http://www.adobe.com/).
Noto is a trademark of Google Inc.
This Font Software is licensed under the SIL Open Font License, Version 1.1. This Font Software is distributed on an "AS IS" BASIS, WITHOUT WARRANTIES OR CONDITIONS OF ANY KIND, either express or implied. See the SIL Open Font License for the specific language, permissions and limitations governing your use of this Font Software.
http://scripts.sil.org/OFL
  -->
<path d="M68 205C87 260 107 333 112 380L168 361C162 314 142 243 120 188ZM363 171C351 227 327 312 308 363L354 383C376 335 401 258 425 195ZM536 603L663 603 663 836 536 836ZM536 536L536 321 663 321 663 536ZM857 603L857 836 730 836 730 603ZM857 536L730 536 730 321 857 321ZM657 41L657 253 468 253 468 960 536 960 536 904 857 904 857 954 927 954 927 253 736 253 736 41ZM369 41C294 71 160 94 50 107 58 123 67 146 70 162 113 158 161 152 208 145L208 408 41 408 41 475 195 475C157 584 90 711 33 781 45 797 63 826 70 846 118 786 169 687 208 588L208 961 278 961 278 563C315 613 361 677 381 709L425 657C403 629 308 512 278 480L278 475 434 475 434 408 278 408 278 133C327 123 373 111 410 97Z"/>
</svg>