<svg xmlns="http://www.w3.org/2000/svg" name="gid13226" data-unicode="重"
    viewBox="0 0 1000 1000">
  <!--
© 2014-2021 Adobe (http://www.adobe.com/).
Noto is a trademark of Google Inc.
This Font Software is licensed under the SIL Open Font License, Version 1.1. This Font Software is distributed on an "AS IS" BASIS, WITHOUT WARRANTIES OR CONDITIONS OF ANY KIND, either express or implied. See the SIL Open Font License for the specific language, permissions and limitations governing your use of this Font Software.
http://scripts.sil.org/OFL
  -->
<path d="M159 340L159 651 459 651 459 720 127 720 127 780 459 780 459 867 52 867 52 928 949 928 949 867 534 867 534 780 886 780 886 720 534 720 534 651 848 651 848 340 534 340 534 279 944 279 944 217 534 217 534 140C651 131 761 119 847 104L807 46C649 74 366 93 133 99 140 114 148 141 149 158 247 156 354 152 459 146L459 217 58 217 58 279 459 279 459 340ZM232 520L459 520 459 596 232 596ZM534 520L772 520 772 596 534 596ZM232 394L459 394 459 469 232 469ZM534 394L772 394 772 469 534 469Z"/>
</svg>