<svg xmlns="http://www.w3.org/2000/svg"
    viewBox="0 0 1000 1000">
  <!--
© 2014-2021 Adobe (http://www.adobe.com/).
Noto is a trademark of Google Inc.
This Font Software is licensed under the SIL Open Font License, Version 1.1. This Font Software is distributed on an "AS IS" BASIS, WITHOUT WARRANTIES OR CONDITIONS OF ANY KIND, either express or implied. See the SIL Open Font License for the specific language, permissions and limitations governing your use of this Font Software.
http://scripts.sil.org/OFL
  -->
<path d="M135 290L256 290 256 401 135 401ZM320 290L440 290 440 401 320 401ZM135 122L256 122 256 231 135 231ZM320 122L440 122 440 231 320 231ZM38 818L48 892C175 873 358 847 531 820L530 754 324 782 324 644 505 644 505 576 324 576 324 463 505 463 505 60 72 60 72 463 252 463 252 576 71 576 71 644 252 644 252 791ZM577 237C650 275 732 333 787 383L526 383 526 455 687 455 687 837C687 851 683 855 667 856 651 857 599 857 540 854 550 876 561 908 564 929 639 929 691 928 722 916 753 904 762 881 762 839L762 455 879 455C862 514 842 574 823 615L885 632C914 572 945 477 970 394L919 380 906 383 847 383 867 361C845 339 813 313 778 287 844 233 909 160 954 91L904 58 889 62 538 62 538 130 835 130C804 172 765 216 726 250 692 228 658 207 625 191Z"/>
</svg>