<svg xmlns="http://www.w3.org/2000/svg" name="gid13237" data-unicode="釚"
    viewBox="0 0 1000 1000">
  <!--
© 2014-2021 Adobe (http://www.adobe.com/).
Noto is a trademark of Google Inc.
This Font Software is licensed under the SIL Open Font License, Version 1.1. This Font Software is distributed on an "AS IS" BASIS, WITHOUT WARRANTIES OR CONDITIONS OF ANY KIND, either express or implied. See the SIL Open Font License for the specific language, permissions and limitations governing your use of this Font Software.
http://scripts.sil.org/OFL
  -->
<path d="M81 594C102 654 118 730 121 781L178 766C173 716 156 640 134 581ZM372 569C362 623 340 704 323 753L371 769C390 722 413 649 433 587ZM218 40C183 120 117 222 22 298 37 308 59 331 70 347L111 310 111 352 226 352 226 458 60 458 60 524 226 524 226 829 47 862 65 930 437 854C420 876 402 897 382 918 401 927 430 947 443 962 617 783 638 554 639 346L769 346 769 848C769 901 773 918 788 932 803 947 823 952 844 952 856 952 878 952 891 952 909 952 928 948 941 938 955 927 964 912 968 886 973 862 976 791 977 734 958 728 934 716 920 702 921 765 920 819 918 841 916 856 913 867 908 872 903 877 895 879 887 879 879 879 869 879 863 879 856 879 850 876 845 872 841 869 839 862 839 854L839 274 639 274 639 41 569 41 569 274 452 274 452 346 569 346C568 508 554 682 452 833L448 787 293 817 293 524 440 524 440 458 293 458 293 352 414 352 414 287 133 287C190 227 232 163 263 109 322 162 386 237 419 285L470 227C432 175 351 95 286 40Z"/>
</svg>