<svg xmlns="http://www.w3.org/2000/svg" name="gid13239" data-unicode="釜"
    viewBox="0 0 1000 1000">
  <!--
© 2014-2021 Adobe (http://www.adobe.com/).
Noto is a trademark of Google Inc.
This Font Software is licensed under the SIL Open Font License, Version 1.1. This Font Software is distributed on an "AS IS" BASIS, WITHOUT WARRANTIES OR CONDITIONS OF ANY KIND, either express or implied. See the SIL Open Font License for the specific language, permissions and limitations governing your use of this Font Software.
http://scripts.sil.org/OFL
  -->
<path d="M587 85C687 141 812 227 872 284L934 235C870 178 743 96 645 43ZM324 46C261 120 154 190 54 234 71 247 99 276 111 291 210 239 323 158 396 72ZM626 176C592 219 549 257 499 291 446 257 402 220 367 179L305 210C342 253 387 293 437 329 319 396 173 442 24 472 39 487 62 521 72 538 127 525 182 509 236 491L236 554 461 554 461 650 123 650 123 713 461 713 461 874 324 874 362 861C351 820 316 759 281 715L220 734C253 776 282 833 295 874L72 874 72 937 931 937 931 874 692 874C721 835 755 781 783 732L707 717C688 763 653 828 624 870L640 874 534 874 534 713 882 713 882 650 534 650 534 554 768 554 768 490 239 490C333 459 423 420 503 372 625 445 772 498 921 526 931 508 951 478 967 462 824 438 682 393 566 331 616 295 660 254 697 209Z"/>
</svg>