<svg xmlns="http://www.w3.org/2000/svg"
    viewBox="0 0 1000 1000">
  <!--
© 2014-2021 Adobe (http://www.adobe.com/).
Noto is a trademark of Google Inc.
This Font Software is licensed under the SIL Open Font License, Version 1.1. This Font Software is distributed on an "AS IS" BASIS, WITHOUT WARRANTIES OR CONDITIONS OF ANY KIND, either express or implied. See the SIL Open Font License for the specific language, permissions and limitations governing your use of this Font Software.
http://scripts.sil.org/OFL
  -->
<path d="M85 569C104 629 122 705 126 756L185 740C179 690 161 614 141 555ZM395 546C384 599 362 678 343 726L398 742C417 696 440 624 459 563ZM882 329C855 369 821 407 784 442L784 297 950 297 950 225 784 225 784 15 709 15 709 225 480 225 480 297 709 297 709 506C626 571 533 625 444 663 460 677 480 702 490 717 562 684 638 642 709 593L709 832C709 849 703 853 688 854 671 854 617 855 560 853 571 875 582 910 586 931 660 932 712 930 743 916 773 904 784 881 784 832L784 538C844 490 899 436 942 379ZM232 10C195 94 123 200 24 279 39 289 62 312 72 328 88 315 103 301 118 287L118 327 234 327 234 435 61 435 61 502 234 502 234 800 46 833 64 903C179 882 335 852 482 822L478 756 305 788 305 502 471 502 471 435 305 435 305 327 429 327 429 262 142 262C201 200 245 135 277 79 340 135 408 214 443 264L496 207C455 151 372 68 303 10Z"/>
</svg>