<svg xmlns="http://www.w3.org/2000/svg"
    viewBox="0 0 1000 1000">
  <!--
© 2014-2021 Adobe (http://www.adobe.com/).
Noto is a trademark of Google Inc.
This Font Software is licensed under the SIL Open Font License, Version 1.1. This Font Software is distributed on an "AS IS" BASIS, WITHOUT WARRANTIES OR CONDITIONS OF ANY KIND, either express or implied. See the SIL Open Font License for the specific language, permissions and limitations governing your use of this Font Software.
http://scripts.sil.org/OFL
  -->
<path d="M78 563C97 622 114 698 119 748L177 733C171 684 153 608 133 550ZM376 541C366 594 345 671 327 719L380 734C398 689 420 618 439 558ZM657 13L657 191 477 191 477 263 657 263 657 336C657 368 657 402 654 437L450 437 450 509 647 509C626 640 565 776 386 872 404 886 429 914 439 929 600 834 673 708 706 581 746 736 813 863 919 931 930 910 954 882 972 867 859 805 789 669 756 509L960 509 960 437 728 437C730 402 731 368 731 336L731 263 924 263 924 191 731 191 731 13ZM221 10C186 94 120 200 26 280 41 290 63 313 74 329 89 316 103 302 117 287L117 321 224 321 224 429 56 429 56 496 224 496 224 799 43 833 62 902C172 880 320 848 461 817L455 752 293 785 293 496 437 496 437 429 293 429 293 321 408 321 408 256 146 256C198 196 238 133 266 80 324 133 387 210 419 258L472 204C434 149 355 67 290 10Z"/>
</svg>