<svg xmlns="http://www.w3.org/2000/svg"
    viewBox="0 0 1000 1000">
  <!--
© 2014-2021 Adobe (http://www.adobe.com/).
Noto is a trademark of Google Inc.
This Font Software is licensed under the SIL Open Font License, Version 1.1. This Font Software is distributed on an "AS IS" BASIS, WITHOUT WARRANTIES OR CONDITIONS OF ANY KIND, either express or implied. See the SIL Open Font License for the specific language, permissions and limitations governing your use of this Font Software.
http://scripts.sil.org/OFL
  -->
<path d="M77 560C97 621 112 699 114 751L170 737C166 686 150 609 129 548ZM355 539C347 592 328 671 313 719L362 734C379 687 397 615 414 554ZM208 10C175 90 110 192 20 268 34 278 56 301 67 316 82 303 96 289 109 276L109 321 211 321 211 429 56 429 56 495 211 495 211 799 45 830 61 899C164 878 303 848 434 818L429 755 278 786 278 495 420 495 420 429 278 429 278 321 394 321 394 257 127 257C181 197 223 133 252 79 305 129 363 200 393 245L439 192C446 207 451 223 453 235 516 227 583 217 648 205L648 581 527 581 527 303 460 303 460 715 527 715 527 651 648 651 648 800C648 895 669 919 747 919 763 919 853 919 870 919 940 919 958 877 967 757 945 752 919 740 901 728 898 825 894 851 866 851 848 851 771 851 756 851 724 851 719 843 719 801L719 651 845 651 845 699 914 699 914 303 845 303 845 581 719 581 719 191C797 175 871 156 931 134L879 73C836 90 781 106 719 121L719 10 648 10 648 137C577 151 502 164 432 173 395 124 329 58 276 10Z"/>
</svg>