<svg xmlns="http://www.w3.org/2000/svg" name="gid13277" data-unicode="鈑"
    viewBox="0 0 1000 1000">
  <!--
© 2014-2021 Adobe (http://www.adobe.com/).
Noto is a trademark of Google Inc.
This Font Software is licensed under the SIL Open Font License, Version 1.1. This Font Software is distributed on an "AS IS" BASIS, WITHOUT WARRANTIES OR CONDITIONS OF ANY KIND, either express or implied. See the SIL Open Font License for the specific language, permissions and limitations governing your use of this Font Software.
http://scripts.sil.org/OFL
  -->
<path d="M80 588C100 649 115 727 117 780L173 765C169 714 153 637 132 576ZM357 567C349 619 330 696 315 744L365 759C381 713 399 642 416 582ZM211 40C178 120 113 222 23 298 37 308 59 331 70 346 84 333 98 320 111 307L111 352 214 352 214 459 59 459 59 524 214 524 214 827 48 860 64 929 422 847C410 873 397 897 381 920 398 927 428 947 441 959 543 813 557 590 557 430L557 424 573 424C601 550 642 662 699 754 646 821 584 871 516 902 531 916 551 944 561 961 628 926 690 878 743 816 792 878 852 929 923 964 934 945 956 918 973 904 899 872 837 822 786 759 854 659 903 529 928 365L884 353 871 355 557 355 557 170 946 170 946 99 487 99 487 430C487 548 481 697 432 823L428 782 281 813 281 524 431 524 431 459 281 459 281 352 400 352 400 288 129 288C185 226 227 161 257 106 314 157 376 232 407 280L459 223C422 171 347 94 285 40ZM847 424C825 529 788 620 741 696 693 618 657 525 633 424Z"/>
</svg>