<svg xmlns="http://www.w3.org/2000/svg"
    viewBox="0 0 1000 1000">
  <!--
© 2014-2021 Adobe (http://www.adobe.com/).
Noto is a trademark of Google Inc.
This Font Software is licensed under the SIL Open Font License, Version 1.1. This Font Software is distributed on an "AS IS" BASIS, WITHOUT WARRANTIES OR CONDITIONS OF ANY KIND, either express or implied. See the SIL Open Font License for the specific language, permissions and limitations governing your use of this Font Software.
http://scripts.sil.org/OFL
  -->
<path d="M667 10L667 533C667 546 662 550 649 551 635 551 591 551 541 550 551 570 562 600 565 619 635 620 676 618 703 606 730 594 739 574 739 534L739 10ZM789 185C841 268 888 378 903 451L969 424C951 351 904 242 849 161ZM846 470C790 682 661 808 421 866 438 883 456 910 465 931 717 859 853 721 914 489ZM81 564C102 624 118 700 121 751L178 736C173 686 156 610 134 551ZM370 539C360 593 338 674 321 723L369 739C388 692 411 619 431 557ZM218 10C183 90 117 192 22 268 37 278 59 301 70 317L111 280 111 322 224 322 224 428 60 428 60 494 224 494 224 800 47 832 65 900C170 879 316 850 453 821L448 757 291 787 291 494 438 494 438 431C456 440 483 458 494 469 541 397 580 286 602 177L532 163C513 263 481 362 435 428L291 428 291 322 414 322 414 257 133 257C190 197 232 133 263 79 322 132 386 207 419 255L470 197C432 145 351 65 286 10Z"/>
</svg>