<svg xmlns="http://www.w3.org/2000/svg" name="gid13280" data-unicode="鈔"
    viewBox="0 0 1000 1000">
  <!--
© 2014-2021 Adobe (http://www.adobe.com/).
Noto is a trademark of Google Inc.
This Font Software is licensed under the SIL Open Font License, Version 1.1. This Font Software is distributed on an "AS IS" BASIS, WITHOUT WARRANTIES OR CONDITIONS OF ANY KIND, either express or implied. See the SIL Open Font License for the specific language, permissions and limitations governing your use of this Font Software.
http://scripts.sil.org/OFL
  -->
<path d="M667 40L667 563C667 576 662 580 649 581 635 581 591 581 541 580 551 600 562 630 565 649 635 650 676 648 703 636 730 624 739 604 739 564L739 40ZM789 215C841 298 888 408 903 481L969 454C951 381 904 272 849 191ZM846 500C790 712 661 838 421 896 438 913 456 940 465 961 717 889 853 751 914 519ZM81 594C102 654 118 730 121 781L178 766C173 716 156 640 134 581ZM370 569C360 623 338 704 321 753L369 769C388 722 411 649 431 587ZM218 40C183 120 117 222 22 298 37 308 59 331 70 347L111 310 111 352 224 352 224 458 60 458 60 524 224 524 224 830 47 862 65 930C170 909 316 880 453 851L448 787 291 817 291 524 438 524 438 461C456 470 483 488 494 499 541 427 580 316 602 207L532 193C513 293 481 392 435 458L291 458 291 352 414 352 414 287 133 287C190 227 232 163 263 109 322 162 386 237 419 285L470 227C432 175 351 95 286 40Z"/>
</svg>