<svg xmlns="http://www.w3.org/2000/svg" name="gid13282" data-unicode="鈖"
    viewBox="0 0 1000 1000">
  <!--
© 2014-2021 Adobe (http://www.adobe.com/).
Noto is a trademark of Google Inc.
This Font Software is licensed under the SIL Open Font License, Version 1.1. This Font Software is distributed on an "AS IS" BASIS, WITHOUT WARRANTIES OR CONDITIONS OF ANY KIND, either express or implied. See the SIL Open Font License for the specific language, permissions and limitations governing your use of this Font Software.
http://scripts.sil.org/OFL
  -->
<path d="M531 140C510 232 462 347 395 417 411 427 436 447 448 460 521 383 574 259 603 155ZM77 590C97 651 112 729 114 781L170 767C166 716 150 639 129 578ZM355 569C347 622 328 701 313 749L362 764C379 717 397 645 414 584ZM467 445L467 513 588 513C576 688 544 827 391 902 408 914 429 941 439 958 607 870 645 713 660 513L816 513C806 763 795 857 774 880 766 890 757 893 741 893 725 893 685 892 641 888 653 907 661 937 663 958 706 960 749 961 774 958 802 955 820 947 837 926 866 890 878 784 889 479 890 469 890 445 890 445ZM575 69L575 137 759 137C792 262 849 383 916 457 931 442 959 420 977 410 906 338 842 203 812 69ZM208 43C175 123 110 225 20 301 34 311 56 333 67 348 81 335 95 322 108 309L108 352 211 352 211 459 55 459 55 525 211 525 211 829 45 860 61 929C164 908 303 878 434 848L429 785 278 816 278 525 421 525 421 459 278 459 278 352 390 352 390 288 128 288C182 228 223 165 253 111 309 162 370 235 402 280L453 223C415 172 338 96 276 43Z"/>
</svg>