<svg xmlns="http://www.w3.org/2000/svg"
    viewBox="0 0 1000 1000">
  <!--
© 2014-2021 Adobe (http://www.adobe.com/).
Noto is a trademark of Google Inc.
This Font Software is licensed under the SIL Open Font License, Version 1.1. This Font Software is distributed on an "AS IS" BASIS, WITHOUT WARRANTIES OR CONDITIONS OF ANY KIND, either express or implied. See the SIL Open Font License for the specific language, permissions and limitations governing your use of this Font Software.
http://scripts.sil.org/OFL
  -->
<path d="M471 62L471 133 956 133 956 62ZM81 561C102 621 118 697 121 748L178 733C173 683 156 607 134 548ZM372 535C362 588 341 666 324 714L372 730C391 684 413 613 432 553ZM218 10C183 90 117 192 22 268 37 278 59 301 70 317 85 305 99 292 112 279L112 318 224 318 224 425 60 425 60 491 224 491 224 793 47 828 66 896 441 814C426 842 408 868 385 892 402 900 433 921 445 934 537 838 563 698 569 578L863 578 863 630 935 630 935 248 499 248 499 511C499 599 493 707 448 800L443 748 291 779 291 491 440 491 440 425 291 425 291 318 417 318 417 254 136 254C191 195 233 132 263 79 322 132 386 207 419 255L470 197C432 145 351 65 286 10ZM863 509L571 509 571 317 863 317Z"/>
</svg>