<svg xmlns="http://www.w3.org/2000/svg"
    viewBox="0 0 1000 1000">
  <!--
© 2014-2021 Adobe (http://www.adobe.com/).
Noto is a trademark of Google Inc.
This Font Software is licensed under the SIL Open Font License, Version 1.1. This Font Software is distributed on an "AS IS" BASIS, WITHOUT WARRANTIES OR CONDITIONS OF ANY KIND, either express or implied. See the SIL Open Font License for the specific language, permissions and limitations governing your use of this Font Software.
http://scripts.sil.org/OFL
  -->
<path d="M82 548C101 608 118 684 123 734L180 718C174 670 157 593 136 536ZM380 526C370 578 349 655 331 702L382 717C400 672 422 601 441 542ZM221 10C185 93 117 199 21 278 36 288 58 311 69 326 85 312 101 298 115 283L115 319 224 319 224 420 56 420 56 487 224 487 224 778 44 812 62 882C167 859 308 829 442 798 425 831 403 863 376 892 394 900 424 921 437 934 553 807 582 621 587 467L687 467C722 673 789 843 914 930 926 909 950 880 968 865 856 795 791 644 758 467L918 467 918 59 517 59 517 404C517 517 510 654 454 774L450 731 293 764 293 487 456 487 456 420 293 420 293 319 424 319 424 261 475 208C436 152 356 69 290 10ZM588 129L845 129 845 397 588 397ZM142 254C196 195 236 132 265 80 321 132 381 204 416 254Z"/>
</svg>