<svg xmlns="http://www.w3.org/2000/svg" name="gid13298" data-unicode="鈳"
    viewBox="0 0 1000 1000">
  <!--
© 2014-2021 Adobe (http://www.adobe.com/).
Noto is a trademark of Google Inc.
This Font Software is licensed under the SIL Open Font License, Version 1.1. This Font Software is distributed on an "AS IS" BASIS, WITHOUT WARRANTIES OR CONDITIONS OF ANY KIND, either express or implied. See the SIL Open Font License for the specific language, permissions and limitations governing your use of this Font Software.
http://scripts.sil.org/OFL
  -->
<path d="M75 594C96 654 112 730 115 781L172 766C167 716 149 640 128 581ZM360 569C351 624 330 705 314 755L361 771C380 724 401 649 421 586ZM430 94L430 164 822 164 822 863C822 880 816 885 799 886 781 886 722 887 658 885 669 907 681 940 684 961 764 961 819 959 851 947 882 935 894 912 894 864L894 164 961 164 961 94ZM535 367L670 367 670 614 535 614ZM472 309L472 737 535 737 535 671 733 671 733 309ZM209 40C175 120 114 222 25 298 40 308 62 331 73 347L105 316 105 352 214 352 214 458 54 458 54 524 214 524 214 831 43 862 61 930C166 910 310 880 446 852L442 788 281 818 281 524 427 524 427 458 281 458 281 352 396 352 396 287 132 287C185 227 225 164 254 110 311 164 375 240 407 289L458 232C420 178 341 97 276 40Z"/>
</svg>