<svg xmlns="http://www.w3.org/2000/svg"
    viewBox="0 0 1000 1000">
  <!--
© 2014-2021 Adobe (http://www.adobe.com/).
Noto is a trademark of Google Inc.
This Font Software is licensed under the SIL Open Font License, Version 1.1. This Font Software is distributed on an "AS IS" BASIS, WITHOUT WARRANTIES OR CONDITIONS OF ANY KIND, either express or implied. See the SIL Open Font License for the specific language, permissions and limitations governing your use of this Font Software.
http://scripts.sil.org/OFL
  -->
<path d="M536 304L536 370 838 370 838 304ZM81 564C102 624 118 700 121 751L178 736C173 686 156 610 134 551ZM370 539C360 593 338 674 321 723L369 739C388 692 411 619 431 557ZM461 472L461 537 597 537 597 931 670 931 670 537 843 537 843 737C843 748 839 751 826 751 813 751 770 752 721 750 731 770 740 799 743 818 811 819 853 818 879 806 907 795 913 774 913 738L913 472ZM218 10C183 90 117 192 22 268 37 278 59 301 70 317L111 280 111 322 224 322 224 428 60 428 60 494 224 494 224 800 47 832 65 900C172 879 320 849 459 820L454 756 291 787 291 494 440 494 440 428 291 428 291 322 404 322C417 338 431 359 439 376 539 298 632 179 682 84 738 179 838 296 930 369 941 347 959 321 973 303 881 237 778 119 714 10L645 10C601 108 509 227 414 302L414 257 133 257C190 197 232 133 263 79 318 131 377 203 408 249L459 193C423 141 348 64 286 10Z"/>
</svg>