<svg xmlns="http://www.w3.org/2000/svg" name="gid13306" data-unicode="鈼"
    viewBox="0 0 1000 1000">
  <!--
© 2014-2021 Adobe (http://www.adobe.com/).
Noto is a trademark of Google Inc.
This Font Software is licensed under the SIL Open Font License, Version 1.1. This Font Software is distributed on an "AS IS" BASIS, WITHOUT WARRANTIES OR CONDITIONS OF ANY KIND, either express or implied. See the SIL Open Font License for the specific language, permissions and limitations governing your use of this Font Software.
http://scripts.sil.org/OFL
  -->
<path d="M78 599C96 658 114 734 118 784L176 769C170 720 153 643 132 585ZM377 577C367 630 344 707 326 755L379 770C398 724 421 654 440 594ZM571 39C540 182 484 318 408 404 427 414 460 437 474 449 511 403 545 344 573 279L640 279 640 959 713 959 713 696 935 696 935 628 713 628 713 485 916 485 916 417 713 417 713 279 961 279 961 208 602 208C619 159 635 107 647 54ZM220 40C185 123 119 228 25 308 41 318 63 341 74 356L114 318 114 357 223 357 223 465 58 465 58 532 223 532 223 832 41 863 59 932C170 912 321 882 463 854L459 788 291 819 291 532 446 532 446 465 291 465 291 357 407 357 407 292 138 292C194 230 235 165 265 110 325 164 389 241 421 290L472 234C434 180 353 97 287 40Z"/>
</svg>