<svg xmlns="http://www.w3.org/2000/svg"
    viewBox="0 0 1000 1000">
  <!--
© 2014-2021 Adobe (http://www.adobe.com/).
Noto is a trademark of Google Inc.
This Font Software is licensed under the SIL Open Font License, Version 1.1. This Font Software is distributed on an "AS IS" BASIS, WITHOUT WARRANTIES OR CONDITIONS OF ANY KIND, either express or implied. See the SIL Open Font License for the specific language, permissions and limitations governing your use of this Font Software.
http://scripts.sil.org/OFL
  -->
<path d="M73 564C94 624 111 700 113 751L170 736C165 686 147 610 126 551ZM354 539C345 594 324 675 308 725L355 741C374 694 395 619 414 556ZM519 250L654 250 654 450 519 450ZM723 250L867 250 867 450 723 450ZM554 561L491 576C515 642 548 698 589 746 550 799 489 844 391 873 406 888 427 915 436 932 531 898 594 850 637 794 712 860 810 904 932 929 942 910 962 881 977 865 850 845 748 802 673 736 707 668 719 593 722 517L937 517 937 184 723 184 723 17 654 17 654 184 452 184 452 517 653 517C651 574 644 631 623 683 594 648 571 607 554 561ZM205 10C172 90 111 190 24 266 39 275 62 299 72 314L102 285 102 322 210 322 210 428 56 428 56 494 210 494 210 803 43 832 61 900C164 881 306 854 438 828L434 763 277 792 277 494 418 494 418 428 277 428 277 322 393 322 393 257 128 257C181 198 220 135 249 81 305 134 365 208 395 255L446 198C410 145 334 66 272 10Z"/>
</svg>