<svg xmlns="http://www.w3.org/2000/svg" name="gid13322" data-unicode="鉏"
    viewBox="0 0 1000 1000">
  <!--
© 2014-2021 Adobe (http://www.adobe.com/).
Noto is a trademark of Google Inc.
This Font Software is licensed under the SIL Open Font License, Version 1.1. This Font Software is distributed on an "AS IS" BASIS, WITHOUT WARRANTIES OR CONDITIONS OF ANY KIND, either express or implied. See the SIL Open Font License for the specific language, permissions and limitations governing your use of this Font Software.
http://scripts.sil.org/OFL
  -->
<path d="M82 606C101 665 118 742 123 792L180 776C174 727 157 651 136 593ZM387 584C376 636 353 712 335 759L388 775C407 730 429 661 449 602ZM514 89L514 868 414 868 414 938 961 938 961 868 889 868 889 89ZM585 868L585 675 815 675 815 868ZM585 415L815 415 815 605 585 605ZM585 344L585 160 815 160 815 344ZM226 51C189 135 119 240 21 319 36 329 59 352 69 367 85 354 100 340 114 326L114 364 230 364 230 471 56 471 56 537 230 537 230 837 44 873 60 943C172 919 323 886 466 854L459 789 297 823 297 537 455 537 455 471 297 471 297 364 421 364 421 298 141 298C197 238 239 175 271 121 332 178 398 258 432 309L486 254C446 197 363 111 295 51Z"/>
</svg>