<svg xmlns="http://www.w3.org/2000/svg"
    viewBox="0 0 1000 1000">
  <!--
© 2014-2021 Adobe (http://www.adobe.com/).
Noto is a trademark of Google Inc.
This Font Software is licensed under the SIL Open Font License, Version 1.1. This Font Software is distributed on an "AS IS" BASIS, WITHOUT WARRANTIES OR CONDITIONS OF ANY KIND, either express or implied. See the SIL Open Font License for the specific language, permissions and limitations governing your use of this Font Software.
http://scripts.sil.org/OFL
  -->
<path d="M78 569C96 628 114 704 118 754L176 739C170 690 153 613 132 555ZM377 547C367 600 344 677 326 725L379 740C391 710 405 670 419 630 436 644 461 674 472 688 502 652 530 611 554 566L554 928 625 928 625 869 847 869 847 921 919 921 919 421 619 421C650 336 675 243 694 144L951 144 951 71 452 71 452 144 615 144C580 334 520 504 423 617L440 564ZM847 798L625 798 625 492 847 492ZM220 10C185 93 119 198 25 278 41 288 63 311 74 326L114 288 114 327 223 327 223 435 56 435 56 502 223 502 223 801 39 833 57 902C167 882 317 852 458 824L454 758 291 789 291 502 444 502 444 435 291 435 291 327 407 327 407 262 138 262C194 200 235 135 265 80 325 135 390 212 422 261L475 207C436 151 355 68 289 10Z"/>
</svg>