<svg xmlns="http://www.w3.org/2000/svg" name="gid13324" data-unicode="鉑"
    viewBox="0 0 1000 1000">
  <!--
© 2014-2021 Adobe (http://www.adobe.com/).
Noto is a trademark of Google Inc.
This Font Software is licensed under the SIL Open Font License, Version 1.1. This Font Software is distributed on an "AS IS" BASIS, WITHOUT WARRANTIES OR CONDITIONS OF ANY KIND, either express or implied. See the SIL Open Font License for the specific language, permissions and limitations governing your use of this Font Software.
http://scripts.sil.org/OFL
  -->
<path d="M76 604C96 665 112 744 113 796L169 781C165 730 149 653 129 592ZM355 581C347 634 328 713 313 762L363 776C379 729 397 657 414 596ZM539 580L845 580 845 812 539 812ZM539 510L539 285 845 285 845 510ZM467 214L467 953 539 953 539 883 845 883 845 953 921 953 921 214 687 214C704 165 723 106 739 53L652 37C644 89 627 160 611 214ZM208 53C175 134 110 236 20 312 34 322 56 344 67 359L106 322 106 366 211 366 211 473 55 473 55 538 211 538 211 844 44 874 60 943C164 922 307 893 443 865L438 800 278 831 278 538 424 538 424 473 278 473 278 366 395 366 395 301 126 301C182 240 223 176 253 121 309 172 371 244 402 290L449 230C413 180 337 105 276 53Z"/>
</svg>