<svg xmlns="http://www.w3.org/2000/svg"
    viewBox="0 0 1000 1000">
  <!--
© 2014-2021 Adobe (http://www.adobe.com/).
Noto is a trademark of Google Inc.
This Font Software is licensed under the SIL Open Font License, Version 1.1. This Font Software is distributed on an "AS IS" BASIS, WITHOUT WARRANTIES OR CONDITIONS OF ANY KIND, either express or implied. See the SIL Open Font License for the specific language, permissions and limitations governing your use of this Font Software.
http://scripts.sil.org/OFL
  -->
<path d="M616 215C656 255 702 311 722 348L777 310C755 274 708 220 667 181ZM587 537C635 576 692 632 719 669L770 628C742 591 684 538 636 501ZM77 560C97 621 112 699 114 751L170 737C166 686 150 609 129 548ZM355 539C347 592 328 671 313 719L362 734C379 687 397 615 414 554ZM572 132L840 132 833 389 554 389ZM208 10C175 90 110 192 20 268 34 278 56 301 67 316 81 303 95 290 108 277L108 322 211 322 211 429 55 429 55 495 211 495 211 799 45 830 61 899C164 878 303 848 434 818L429 755 278 786 278 495 421 495 421 456 481 456C470 591 457 719 444 812L514 818 519 772 808 772C802 814 794 838 786 849 776 864 767 868 751 867 732 867 693 867 648 863 659 882 666 910 667 929 709 931 752 932 780 929 809 925 830 916 849 886 862 868 871 834 879 772L957 772 957 706 886 706C891 644 896 562 900 456L968 456 968 389 902 389 910 107C910 96 910 66 910 66L508 66C503 163 496 276 487 389L416 389 416 429 278 429 278 322 395 322 395 258 126 258C181 197 223 133 253 78 308 129 369 201 401 246L451 188C413 138 337 63 275 10ZM548 456L831 456C826 564 822 646 816 706L526 706C534 631 541 545 548 456Z"/>
</svg>