<svg xmlns="http://www.w3.org/2000/svg" name="gid13341" data-unicode="鉨"
    viewBox="0 0 1000 1000">
  <!--
© 2014-2021 Adobe (http://www.adobe.com/).
Noto is a trademark of Google Inc.
This Font Software is licensed under the SIL Open Font License, Version 1.1. This Font Software is distributed on an "AS IS" BASIS, WITHOUT WARRANTIES OR CONDITIONS OF ANY KIND, either express or implied. See the SIL Open Font License for the specific language, permissions and limitations governing your use of this Font Software.
http://scripts.sil.org/OFL
  -->
<path d="M793 448C835 551 878 687 893 775L961 754C944 666 901 532 856 429ZM522 433C504 547 472 660 423 735 440 743 471 759 485 768 532 689 569 568 590 446ZM77 590C97 651 112 729 114 781L170 767C166 716 150 639 129 578ZM355 569C347 622 328 701 313 749L362 764C379 717 397 645 414 584ZM547 40C519 175 471 307 404 392 422 400 453 419 467 430 499 385 529 329 554 266L662 266 662 871C662 885 657 889 643 890 629 890 582 890 531 888 542 908 554 941 558 960 624 960 669 958 696 947 725 934 734 913 734 871L734 266 870 266C859 314 845 364 830 399L892 417C917 365 941 281 956 207L905 194 892 197 579 197C594 151 607 103 618 54ZM208 40C175 120 110 222 20 298 34 308 56 331 67 346 81 333 95 320 108 307L108 352 211 352 211 459 55 459 55 525 211 525 211 828 45 860 61 929C164 907 303 876 436 846L430 783 278 815 278 525 421 525 421 459 278 459 278 352 390 352 390 288 126 288C181 227 223 163 253 108 306 159 365 233 394 279L445 222C410 171 337 94 278 40Z"/>
</svg>