<svg xmlns="http://www.w3.org/2000/svg"
    viewBox="0 0 1000 1000">
  <!--
© 2014-2021 Adobe (http://www.adobe.com/).
Noto is a trademark of Google Inc.
This Font Software is licensed under the SIL Open Font License, Version 1.1. This Font Software is distributed on an "AS IS" BASIS, WITHOUT WARRANTIES OR CONDITIONS OF ANY KIND, either express or implied. See the SIL Open Font License for the specific language, permissions and limitations governing your use of this Font Software.
http://scripts.sil.org/OFL
  -->
<path d="M812 47C848 83 888 133 906 167L961 136C942 103 901 55 863 21ZM70 560C90 621 106 699 108 751L162 737C158 686 141 608 121 548ZM335 538C328 590 310 670 295 718L344 731C359 685 377 612 392 552ZM716 12L719 197 434 197 434 265 721 265C735 699 775 930 880 930 937 930 961 903 970 750 954 743 932 727 918 711 913 825 904 859 887 859 841 859 799 670 790 265L960 265 960 197 788 197 788 12ZM417 814L437 881C521 854 629 818 731 783L721 721 595 761 595 474 693 474 693 410 434 410 434 474 529 474 529 781ZM202 10C168 91 106 193 17 270 33 280 54 302 65 317L102 281 102 322 201 322 201 429 51 429 51 495 201 495 201 802 41 832 58 900C157 880 287 851 412 824L407 761 267 789 267 495 393 495 393 429 267 429 267 322 374 322 374 258 123 258C176 198 216 134 245 80 297 132 352 203 380 249L435 195C400 144 329 66 270 10Z"/>
</svg>