<svg xmlns="http://www.w3.org/2000/svg"
    viewBox="0 0 1000 1000">
  <!--
© 2014-2021 Adobe (http://www.adobe.com/).
Noto is a trademark of Google Inc.
This Font Software is licensed under the SIL Open Font License, Version 1.1. This Font Software is distributed on an "AS IS" BASIS, WITHOUT WARRANTIES OR CONDITIONS OF ANY KIND, either express or implied. See the SIL Open Font License for the specific language, permissions and limitations governing your use of this Font Software.
http://scripts.sil.org/OFL
  -->
<path d="M81 564C102 624 118 700 121 751L178 736C173 686 156 610 134 551ZM370 539C360 593 338 674 321 723L369 739C388 692 411 619 431 557ZM840 297L840 415 564 415 564 297ZM840 232L564 232 564 119 840 119ZM493 52L493 828 408 847 431 920C522 897 643 867 757 837L749 768 564 812 564 482 656 482C700 688 783 852 930 932 941 912 962 884 979 870 904 834 845 771 801 692 849 660 907 615 953 574L901 523C868 557 817 601 772 635 752 588 735 536 722 482L912 482 912 52ZM218 10C183 90 117 192 22 268 37 278 59 301 70 317L111 280 111 322 224 322 224 428 60 428 60 494 224 494 224 800 47 832 65 900C170 879 316 850 453 821L448 757 291 787 291 494 440 494 440 428 291 428 291 322 414 322 414 257 133 257C190 197 232 133 263 79 322 132 386 207 419 255L470 197C432 145 351 65 286 10Z"/>
</svg>