<svg xmlns="http://www.w3.org/2000/svg"
    viewBox="0 0 1000 1000">
  <!--
© 2014-2021 Adobe (http://www.adobe.com/).
Noto is a trademark of Google Inc.
This Font Software is licensed under the SIL Open Font License, Version 1.1. This Font Software is distributed on an "AS IS" BASIS, WITHOUT WARRANTIES OR CONDITIONS OF ANY KIND, either express or implied. See the SIL Open Font License for the specific language, permissions and limitations governing your use of this Font Software.
http://scripts.sil.org/OFL
  -->
<path d="M537 259L840 259 840 355 537 355ZM537 107L840 107 840 202 537 202ZM466 48L466 415 913 415 913 48ZM77 560C97 621 112 699 114 751L170 737C166 686 150 609 129 548ZM355 539C347 592 328 671 313 719L362 734C379 687 397 615 414 554ZM411 849L425 916C500 902 597 886 691 868L687 805 547 829 547 647 674 647 674 583 547 583 547 446 480 446 480 839ZM903 523C870 553 820 591 774 622L774 447 707 447 707 827C707 900 723 921 792 921 805 921 870 921 885 921 942 921 959 889 966 769 947 764 920 754 906 742 904 842 899 859 877 859 863 859 812 859 801 859 778 859 774 854 774 827L774 688C829 658 897 614 949 573ZM208 10C175 90 110 192 20 268 34 278 56 301 67 316 81 303 95 290 108 277L108 322 211 322 211 429 55 429 55 495 211 495 211 799 45 830 61 899C164 878 303 848 434 818L429 755 278 786 278 495 421 495 421 429 278 429 278 322 390 322 390 258 126 258C181 197 223 133 253 79 307 129 366 200 397 245L448 188C411 138 336 63 276 10Z"/>
</svg>