<svg xmlns="http://www.w3.org/2000/svg"
    viewBox="0 0 1000 1000">
  <!--
© 2014-2021 Adobe (http://www.adobe.com/).
Noto is a trademark of Google Inc.
This Font Software is licensed under the SIL Open Font License, Version 1.1. This Font Software is distributed on an "AS IS" BASIS, WITHOUT WARRANTIES OR CONDITIONS OF ANY KIND, either express or implied. See the SIL Open Font License for the specific language, permissions and limitations governing your use of this Font Software.
http://scripts.sil.org/OFL
  -->
<path d="M76 560C96 621 110 699 112 750L168 736C164 686 149 608 129 548ZM353 540C345 593 326 672 311 720L359 735C376 688 393 616 410 554ZM422 429L422 496 494 496 494 632 435 632 435 698 649 698 649 838 411 838 411 905 957 905 957 838 720 838 720 698 950 698 950 632 880 632 880 496 966 496 966 429 880 429 880 295 946 295 946 229 720 229 720 113C800 103 875 91 936 76L885 18C778 45 590 66 431 76 439 93 448 119 451 137 514 134 582 128 649 121L649 229 430 229 430 295 494 295 494 429ZM649 295L649 429 553 429 553 295ZM720 295L820 295 820 429 720 429ZM649 632L553 632 553 496 649 496ZM720 632L720 496 820 496 820 632ZM208 10C175 90 110 192 20 268 34 278 56 301 67 316 81 303 95 290 108 277L108 322 210 322 210 429 58 429 58 494 210 494 210 800 45 830 58 899C161 879 300 850 432 821L427 758 277 787 277 494 406 494 406 429 277 429 277 322 390 322 390 258 126 258C181 197 223 133 253 79 307 129 366 200 397 245L448 188C411 138 336 63 276 10Z"/>
</svg>