<svg xmlns="http://www.w3.org/2000/svg"
    viewBox="0 0 1000 1000">
  <!--
© 2014-2021 Adobe (http://www.adobe.com/).
Noto is a trademark of Google Inc.
This Font Software is licensed under the SIL Open Font License, Version 1.1. This Font Software is distributed on an "AS IS" BASIS, WITHOUT WARRANTIES OR CONDITIONS OF ANY KIND, either express or implied. See the SIL Open Font License for the specific language, permissions and limitations governing your use of this Font Software.
http://scripts.sil.org/OFL
  -->
<path d="M540 14C516 68 470 153 429 222 478 300 524 388 544 447L604 423C585 370 541 289 498 221 533 163 575 88 603 31ZM706 14C681 68 633 152 588 220 642 298 689 385 711 444L772 419C750 367 704 286 657 220 694 161 738 89 768 31ZM877 14C850 68 798 153 750 222 811 299 869 388 897 447L956 420C930 369 874 286 822 221 861 163 909 90 941 32ZM77 560C97 621 112 699 114 751L170 737C166 686 150 609 129 548ZM355 539C347 592 328 671 313 719L362 734C379 687 397 615 414 554ZM529 713L657 713 657 829 529 829ZM529 653L529 540 657 540 657 653ZM861 713L861 829 724 829 724 713ZM861 653L724 653 724 540 861 540ZM461 474L461 929 529 929 529 894 861 894 861 924 932 924 932 474ZM208 10C175 90 110 192 20 268 34 278 56 301 67 316 81 303 95 290 108 277L108 322 211 322 211 429 55 429 55 495 211 495 211 799 45 830 61 899C164 878 303 848 434 818L429 755 278 786 278 495 421 495 421 429 278 429 278 322 390 322 390 258 126 258C182 196 224 131 254 76 306 125 363 197 392 241L443 185C409 136 339 62 282 10Z"/>
</svg>