<svg xmlns="http://www.w3.org/2000/svg"
    viewBox="0 0 1000 1000">
  <!--
© 2014-2021 Adobe (http://www.adobe.com/).
Noto is a trademark of Google Inc.
This Font Software is licensed under the SIL Open Font License, Version 1.1. This Font Software is distributed on an "AS IS" BASIS, WITHOUT WARRANTIES OR CONDITIONS OF ANY KIND, either express or implied. See the SIL Open Font License for the specific language, permissions and limitations governing your use of this Font Software.
http://scripts.sil.org/OFL
  -->
<path d="M73 564C94 624 111 700 113 751L170 736C165 686 147 610 126 551ZM354 539C345 594 324 675 308 725L355 741C374 694 395 619 414 556ZM660 9C659 42 657 71 653 98L450 98 450 163 639 163C613 243 555 287 423 314 437 328 456 356 462 373 574 346 640 307 679 247 756 287 848 340 896 373L942 317C887 282 785 228 706 189L714 163 940 163 940 98 726 98C729 71 731 41 733 9ZM428 378L428 445 815 445 815 842C815 856 811 860 796 861 780 861 727 862 671 860 681 880 691 909 694 928 767 928 817 928 848 917 878 905 886 884 886 843L886 445 961 445 961 378ZM539 571L671 571 671 695 539 695ZM478 513L478 803 539 803 539 753 733 753 733 513ZM205 10C172 90 111 190 24 266 39 275 62 299 72 314L102 285 102 322 210 322 210 428 56 428 56 494 210 494 210 803 43 832 61 900C164 881 306 854 438 828L434 763 277 792 277 494 418 494 418 428 277 428 277 322 393 322 393 257 128 257C181 198 221 135 249 81 305 133 364 207 393 254L445 197C409 145 334 66 272 10Z"/>
</svg>