<svg xmlns="http://www.w3.org/2000/svg" name="gid13467" data-unicode="錨"
    viewBox="0 0 1000 1000">
  <!--
© 2014-2021 Adobe (http://www.adobe.com/).
Noto is a trademark of Google Inc.
This Font Software is licensed under the SIL Open Font License, Version 1.1. This Font Software is distributed on an "AS IS" BASIS, WITHOUT WARRANTIES OR CONDITIONS OF ANY KIND, either express or implied. See the SIL Open Font License for the specific language, permissions and limitations governing your use of this Font Software.
http://scripts.sil.org/OFL
  -->
<path d="M73 594C94 654 111 730 113 781L170 766C165 716 147 640 126 581ZM354 569C345 624 324 705 308 755L355 771C374 724 395 649 414 586ZM205 40C172 120 111 220 24 296 39 305 62 329 72 344L102 315 102 352 210 352 210 458 56 458 56 524 210 524 210 833 43 862 61 930C164 911 306 884 438 858L434 793 277 822 277 524 418 524 418 458 277 458 277 352 393 352 393 287 128 287C181 228 221 165 249 111 305 163 364 237 393 284L438 235 549 235 549 364 619 364 619 235 764 235 764 364 834 364 834 235 958 235 958 165 834 165 834 40 764 40 764 165 619 165 619 40 549 40 549 165 431 165 431 208C392 157 327 90 272 40ZM658 479L658 628 535 628 535 479ZM724 479L853 479 853 628 724 628ZM535 692L658 692 658 844 535 844ZM853 692L853 844 724 844 724 692ZM467 412L467 954 535 954 535 911 853 911 853 948 924 948 924 412Z"/>
</svg>