<svg xmlns="http://www.w3.org/2000/svg" name="gid13474" data-unicode="録"
    viewBox="0 0 1000 1000">
  <!--
© 2014-2021 Adobe (http://www.adobe.com/).
Noto is a trademark of Google Inc.
This Font Software is licensed under the SIL Open Font License, Version 1.1. This Font Software is distributed on an "AS IS" BASIS, WITHOUT WARRANTIES OR CONDITIONS OF ANY KIND, either express or implied. See the SIL Open Font License for the specific language, permissions and limitations governing your use of this Font Software.
http://scripts.sil.org/OFL
  -->
<path d="M894 479C865 522 814 584 777 621L825 655C864 618 913 565 953 516ZM447 528C489 569 535 627 554 666L608 629C587 591 540 535 497 496ZM77 590C97 651 112 729 114 781L170 767C166 716 150 639 129 578ZM355 569C347 622 328 701 313 749L362 764C379 717 397 645 414 584ZM426 378L426 443 650 443 650 880C650 891 647 894 636 895 625 895 591 895 553 894 562 914 571 941 573 960 629 960 666 960 689 948 714 937 720 918 720 881L720 639C762 736 828 838 930 900 941 881 963 851 978 838 829 760 753 597 720 466L720 443 961 443 961 378 878 378 878 80 478 80 478 144 808 144 808 230 498 230 498 290 808 290 808 378ZM208 40C175 120 110 222 20 298 34 308 56 331 67 346 81 333 95 320 108 307L108 352 211 352 211 459 55 459 55 525 211 525 211 829 45 860 61 929 417 852 440 891C499 850 567 800 631 751L609 694C540 741 470 788 419 820L416 788 278 816 278 525 421 525 421 459 278 459 278 352 393 352 393 288 126 288C181 227 222 164 252 109 305 160 363 232 394 277L444 221C409 170 336 94 276 40Z"/>
</svg>