<svg xmlns="http://www.w3.org/2000/svg" name="gid13484" data-unicode="鍈"
    viewBox="0 0 1000 1000">
  <!--
© 2014-2021 Adobe (http://www.adobe.com/).
Noto is a trademark of Google Inc.
This Font Software is licensed under the SIL Open Font License, Version 1.1. This Font Software is distributed on an "AS IS" BASIS, WITHOUT WARRANTIES OR CONDITIONS OF ANY KIND, either express or implied. See the SIL Open Font License for the specific language, permissions and limitations governing your use of this Font Software.
http://scripts.sil.org/OFL
  -->
<path d="M70 590C90 651 106 729 108 781L162 767C158 716 141 638 121 578ZM335 568C328 620 310 700 295 748L344 761C359 715 377 642 392 582ZM640 268L640 350 458 350 458 590 397 590 397 657 623 657C597 750 528 843 357 909 372 923 394 947 403 963 571 893 648 797 683 699 726 827 803 918 925 965 935 946 955 920 971 906 852 867 774 777 736 657L959 657 959 590 895 590 895 350 710 350 710 268ZM523 590L523 413 640 413 640 512C640 537 639 563 636 590ZM828 590L706 590C709 564 710 538 710 513L710 413 828 413ZM202 40C168 121 106 223 17 300 33 310 54 332 65 347L102 311 102 352 201 352 201 459 51 459 51 525 201 525 201 832 41 862 58 930C157 910 287 881 412 854L407 791 267 819 267 525 393 525 393 459 267 459 267 352 374 352 374 288 123 288C176 228 216 164 245 110 297 162 352 233 380 279L435 225 419 203 533 203 533 297 599 297 599 203 750 203 750 296 817 296 817 203 952 203 952 136 817 136 817 40 750 40 750 136 599 136 599 40 533 40 533 136 414 136 414 197C376 148 319 86 270 40Z"/>
</svg>