<svg xmlns="http://www.w3.org/2000/svg"
    viewBox="0 0 1000 1000">
  <!--
© 2014-2021 Adobe (http://www.adobe.com/).
Noto is a trademark of Google Inc.
This Font Software is licensed under the SIL Open Font License, Version 1.1. This Font Software is distributed on an "AS IS" BASIS, WITHOUT WARRANTIES OR CONDITIONS OF ANY KIND, either express or implied. See the SIL Open Font License for the specific language, permissions and limitations governing your use of this Font Software.
http://scripts.sil.org/OFL
  -->
<path d="M70 560C90 621 106 699 108 751L162 737C158 686 141 608 121 548ZM335 538C328 590 310 670 295 718L344 731C359 685 377 612 392 552ZM640 238L640 320 458 320 458 560 397 560 397 627 623 627C597 720 528 813 357 879 372 893 394 917 403 933 571 863 648 767 683 669 726 797 803 888 925 935 935 916 955 890 971 876 852 837 774 747 736 627L959 627 959 560 895 560 895 320 710 320 710 238ZM523 560L523 383 640 383 640 482C640 507 639 533 636 560ZM828 560L706 560C709 534 710 508 710 483L710 383 828 383ZM202 10C168 91 106 193 17 270 33 280 54 302 65 317L102 281 102 322 201 322 201 429 51 429 51 495 201 495 201 802 41 832 58 900C157 880 287 851 412 824L407 761 267 789 267 495 393 495 393 429 267 429 267 322 374 322 374 258 123 258C176 198 216 134 245 80 297 132 352 203 380 249L435 195 419 173 533 173 533 267 599 267 599 173 750 173 750 266 817 266 817 173 952 173 952 106 817 106 817 10 750 10 750 106 599 106 599 10 533 10 533 106 414 106 414 167C376 118 319 56 270 10Z"/>
</svg>