<svg xmlns="http://www.w3.org/2000/svg"
    viewBox="0 0 1000 1000">
  <!--
© 2014-2021 Adobe (http://www.adobe.com/).
Noto is a trademark of Google Inc.
This Font Software is licensed under the SIL Open Font License, Version 1.1. This Font Software is distributed on an "AS IS" BASIS, WITHOUT WARRANTIES OR CONDITIONS OF ANY KIND, either express or implied. See the SIL Open Font License for the specific language, permissions and limitations governing your use of this Font Software.
http://scripts.sil.org/OFL
  -->
<path d="M541 368C561 412 577 470 582 508L625 495C620 457 602 400 582 356ZM791 351C780 393 756 456 737 494L777 509C796 472 818 416 838 367ZM77 560C97 621 112 699 114 751L170 737C166 686 150 609 129 548ZM355 539C347 592 328 671 313 719L362 734C379 687 397 615 414 554ZM448 266L448 591 610 591C569 671 503 749 433 802L429 755 278 786 278 495 421 495 421 429 278 429 278 322 390 322 390 258 126 258C181 197 222 134 252 79 305 130 363 203 392 249L443 192 431 175 650 175 650 266ZM208 10C175 90 110 192 20 268 34 278 56 301 67 316 81 303 95 290 108 277L108 322 211 322 211 429 55 429 55 495 211 495 211 799 45 830 61 899C154 880 277 854 397 826L373 840C389 854 412 880 423 898 509 844 593 750 650 645L650 930 720 930 720 640C773 737 850 835 920 890 933 872 956 847 973 833 897 782 811 685 760 591L930 591 930 266 720 266 720 175 948 175 948 109 720 109 720 10 650 10 650 109 429 109 429 173C391 123 328 58 276 10ZM509 324L658 324 658 533 509 533ZM712 324L866 324 866 533 712 533Z"/>
</svg>