<svg xmlns="http://www.w3.org/2000/svg"
    viewBox="0 0 1000 1000">
  <!--
© 2014-2021 Adobe (http://www.adobe.com/).
Noto is a trademark of Google Inc.
This Font Software is licensed under the SIL Open Font License, Version 1.1. This Font Software is distributed on an "AS IS" BASIS, WITHOUT WARRANTIES OR CONDITIONS OF ANY KIND, either express or implied. See the SIL Open Font License for the specific language, permissions and limitations governing your use of this Font Software.
http://scripts.sil.org/OFL
  -->
<path d="M493 111L593 111 593 240 493 240ZM435 54L435 297 653 297 653 54ZM765 111L870 111 870 240 765 240ZM707 54L707 297 930 297 930 54ZM479 358L479 421 884 421 884 358ZM70 560C90 621 106 699 108 751L162 737C158 686 141 608 121 548ZM335 538C328 590 310 670 295 718L344 731C359 685 377 612 392 552ZM416 496L416 560 539 560C518 622 493 690 472 737L540 756 564 695 821 695C805 794 788 839 768 855 758 863 749 864 730 864 711 864 663 863 615 858 626 878 634 906 635 927 686 930 733 930 758 929 787 927 805 921 825 904 855 876 876 811 898 665 900 654 902 633 902 633L587 633 612 560 960 560 960 496ZM202 10C168 91 106 193 17 270 33 280 54 302 65 317L102 281 102 322 201 322 201 429 51 429 51 495 201 495 201 802 41 832 58 900C157 880 287 851 412 824L407 761 267 789 267 495 395 495 395 429 267 429 267 322 374 322 374 258 123 258C176 198 216 134 245 80 294 130 345 200 371 243L426 190C394 139 326 64 270 10Z"/>
</svg>