<svg xmlns="http://www.w3.org/2000/svg" name="gid13506" data-unicode="鍪"
    viewBox="0 0 1000 1000">
  <!--
© 2014-2021 Adobe (http://www.adobe.com/).
Noto is a trademark of Google Inc.
This Font Software is licensed under the SIL Open Font License, Version 1.1. This Font Software is distributed on an "AS IS" BASIS, WITHOUT WARRANTIES OR CONDITIONS OF ANY KIND, either express or implied. See the SIL Open Font License for the specific language, permissions and limitations governing your use of this Font Software.
http://scripts.sil.org/OFL
  -->
<path d="M261 792C279 817 297 849 307 875L64 875 64 930 938 930 938 875 686 875C706 850 727 818 746 786L708 775 825 775 825 724 536 724 536 665 690 665 690 623C770 655 856 679 931 693 940 676 955 648 969 632 837 611 689 566 576 502 634 480 686 452 731 419 785 472 849 514 922 541 932 523 951 498 966 485 895 463 832 426 779 379 833 328 873 268 899 202L952 202 952 142 675 142C690 114 702 86 712 59L647 42C623 117 572 208 513 271L486 262 475 265 409 265 422 248C404 239 382 229 356 219 408 189 461 150 500 111L460 80 447 83 91 83 91 137 386 137C359 159 326 181 295 197 254 184 212 172 174 164L139 206C199 220 268 242 323 265L54 265 54 320 235 320C188 382 110 443 33 481 45 491 63 511 72 523 152 481 231 417 286 348L286 488C286 498 283 501 272 501 261 502 227 502 186 500 194 516 202 536 205 552 259 552 295 552 318 543 340 534 345 518 345 489L345 320 443 320C426 351 405 382 386 404L438 424C466 393 495 346 520 300L550 323C571 302 592 277 611 249 633 294 659 335 689 372 641 407 585 435 521 456L538 477 530 472 463 472C373 547 208 614 36 650 48 665 62 691 69 708 154 688 241 660 317 627L317 665 463 665 463 724 178 724 178 775 316 775ZM650 202L826 202C806 250 775 295 735 334 700 294 672 250 650 202ZM500 524C546 558 606 589 672 616L341 616C405 587 460 555 500 524ZM463 875L348 875 376 865C366 840 344 803 323 775L463 775ZM536 875L536 775 677 775C661 804 637 845 618 872L627 875Z"/>
</svg>