<svg xmlns="http://www.w3.org/2000/svg"
    viewBox="0 0 1000 1000">
  <!--
© 2014-2021 Adobe (http://www.adobe.com/).
Noto is a trademark of Google Inc.
This Font Software is licensed under the SIL Open Font License, Version 1.1. This Font Software is distributed on an "AS IS" BASIS, WITHOUT WARRANTIES OR CONDITIONS OF ANY KIND, either express or implied. See the SIL Open Font License for the specific language, permissions and limitations governing your use of this Font Software.
http://scripts.sil.org/OFL
  -->
<path d="M77 560C97 621 112 699 114 751L170 737C166 686 150 609 129 548ZM355 539C347 592 328 671 313 719L362 734C379 687 397 615 414 554ZM802 217C842 256 886 292 927 320 938 300 955 274 970 257 878 204 778 107 712 13L645 13C597 102 498 207 400 269 414 284 431 310 440 328 485 297 529 260 568 220L568 264 802 264ZM681 79C710 120 749 166 792 208L580 208C621 165 656 120 681 79ZM543 486L830 486 830 546 541 546ZM543 434L543 378 830 378 830 434ZM208 10C175 90 110 192 20 268 34 278 56 301 67 316 81 303 95 290 108 277L108 322 211 322 211 429 55 429 55 495 211 495 211 799 45 830 61 899C154 880 277 853 396 826 384 847 369 868 352 887 367 894 395 916 406 928 459 868 492 796 512 723L512 929 576 929 576 891 846 891 846 926 913 926 913 658 527 658 536 600 897 600 897 324 477 324 477 471C477 557 469 667 426 769L425 756 278 786 278 495 421 495 421 429 278 429 278 322 393 322 393 258 126 258C181 197 223 133 253 79 307 129 366 200 397 245L448 188C411 138 336 63 276 10ZM576 834L576 715 846 715 846 834Z"/>
</svg>