<svg xmlns="http://www.w3.org/2000/svg" name="gid13536" data-unicode="鎗"
    viewBox="0 0 1000 1000">
  <!--
© 2014-2021 Adobe (http://www.adobe.com/).
Noto is a trademark of Google Inc.
This Font Software is licensed under the SIL Open Font License, Version 1.1. This Font Software is distributed on an "AS IS" BASIS, WITHOUT WARRANTIES OR CONDITIONS OF ANY KIND, either express or implied. See the SIL Open Font License for the specific language, permissions and limitations governing your use of this Font Software.
http://scripts.sil.org/OFL
  -->
<path d="M77 590C97 651 112 729 114 781L170 767C166 716 150 639 129 578ZM355 569C347 622 328 701 313 749L362 764C379 717 397 645 414 584ZM802 247C842 286 886 322 927 350 938 330 955 304 970 287 878 234 778 137 712 43L645 43C597 132 498 237 400 299 414 314 431 340 440 358 485 327 529 290 568 250L568 294 802 294ZM681 109C710 150 749 196 792 238L580 238C621 195 656 150 681 109ZM543 516L830 516 830 576 541 576ZM543 464L543 408 830 408 830 464ZM208 40C175 120 110 222 20 298 34 308 56 331 67 346 81 333 95 320 108 307L108 352 211 352 211 459 55 459 55 525 211 525 211 829 45 860 61 929C154 910 277 883 396 856 384 877 369 898 352 917 367 924 395 946 406 958 459 898 492 826 512 753L512 959 576 959 576 921 846 921 846 956 913 956 913 688 527 688 536 630 897 630 897 354 477 354 477 501C477 587 469 697 426 799L425 786 278 816 278 525 421 525 421 459 278 459 278 352 393 352 393 288 126 288C181 227 223 163 253 109 307 159 366 230 397 275L448 218C411 168 336 93 276 40ZM576 864L576 745 846 745 846 864Z"/>
</svg>