<svg xmlns="http://www.w3.org/2000/svg"
    viewBox="0 0 1000 1000">
  <!--
© 2014-2021 Adobe (http://www.adobe.com/).
Noto is a trademark of Google Inc.
This Font Software is licensed under the SIL Open Font License, Version 1.1. This Font Software is distributed on an "AS IS" BASIS, WITHOUT WARRANTIES OR CONDITIONS OF ANY KIND, either express or implied. See the SIL Open Font License for the specific language, permissions and limitations governing your use of this Font Software.
http://scripts.sil.org/OFL
  -->
<path d="M71 559C89 620 103 698 104 750L156 738C153 687 139 609 119 548ZM317 537C311 589 294 669 280 718L326 729C340 682 355 610 369 549ZM805 10C789 59 758 132 733 176L779 191 568 191 617 170C605 126 572 61 538 12L480 35C512 82 543 147 555 191L401 191 401 257 959 257 959 191 794 191C820 149 850 85 877 31ZM194 10C162 91 103 193 17 270 31 280 53 301 63 316L95 284 95 322 193 322 193 427 50 427 50 492 193 492 193 804 39 833 55 899 360 836 374 901 597 862C601 883 604 902 605 919L662 897C655 836 633 743 605 670L552 691C565 726 576 767 586 806L472 820C538 707 611 549 664 424L603 404C584 456 559 517 532 579 517 556 496 530 475 504 507 441 545 350 575 275L507 258C491 317 463 397 435 461L415 441 378 481C425 529 475 595 503 643 472 711 438 776 408 828L386 831 381 766 255 792 255 492 371 492 371 427 255 427 255 322 356 322 356 259 118 259C170 199 208 135 236 81 281 129 327 195 351 235L400 181C371 133 308 61 256 10ZM659 833L680 899 900 863C905 885 910 906 912 924L970 900C959 835 927 737 890 662L837 684C854 722 871 766 884 808L747 824C813 712 889 556 944 432L880 411C861 463 836 523 808 584 793 560 772 534 750 508 783 444 821 351 850 275L783 258C766 319 738 400 710 465L689 444 652 485C700 533 752 601 778 648 745 715 711 779 680 831Z"/>
</svg>