<svg xmlns="http://www.w3.org/2000/svg" name="gid13571" data-unicode="鏐"
    viewBox="0 0 1000 1000">
  <!--
© 2014-2021 Adobe (http://www.adobe.com/).
Noto is a trademark of Google Inc.
This Font Software is licensed under the SIL Open Font License, Version 1.1. This Font Software is distributed on an "AS IS" BASIS, WITHOUT WARRANTIES OR CONDITIONS OF ANY KIND, either express or implied. See the SIL Open Font License for the specific language, permissions and limitations governing your use of this Font Software.
http://scripts.sil.org/OFL
  -->
<path d="M514 153C482 192 430 229 380 256 394 266 416 287 426 298 476 268 534 218 571 172ZM688 570C640 614 552 656 476 680 490 691 506 707 516 720 596 692 686 646 741 591ZM770 650C707 709 586 759 475 785 490 797 506 817 515 831 630 799 753 744 824 673ZM866 724C781 820 606 880 414 907 427 922 442 946 450 963 651 927 833 860 927 749ZM70 589C88 650 102 728 103 780L157 767C154 716 139 638 121 578ZM328 568C320 619 303 700 289 748L338 762C353 714 369 643 385 582ZM675 483C738 551 844 622 936 663 946 643 962 618 977 602 880 566 776 498 705 424L654 424 654 255C669 263 690 280 702 290 747 260 801 211 835 166L776 148C747 186 700 225 654 253L654 76 409 76 409 136 590 136 590 286 547 273C511 330 448 382 383 417 398 426 422 448 432 459 488 424 548 372 590 316L590 427 637 427C584 494 483 568 382 610 395 625 412 650 420 668 520 621 619 548 675 483ZM825 253C794 305 738 354 679 388 695 396 720 415 731 425 778 395 828 349 864 301L864 440 929 440 929 76 693 76 693 136 864 136 864 263ZM197 40C165 121 104 223 17 300 32 310 53 332 64 347L98 314 98 353 196 353 196 457 52 457 52 523 196 523 196 832 40 862 57 930C152 910 280 883 401 858L395 793 259 820 259 523 382 523 382 457 259 457 259 353 364 353 364 289 120 289C173 229 212 165 240 111 285 159 332 225 356 266L408 209C379 162 315 91 263 40Z"/>
</svg>