<svg xmlns="http://www.w3.org/2000/svg"
    viewBox="0 0 1000 1000">
  <!--
© 2014-2021 Adobe (http://www.adobe.com/).
Noto is a trademark of Google Inc.
This Font Software is licensed under the SIL Open Font License, Version 1.1. This Font Software is distributed on an "AS IS" BASIS, WITHOUT WARRANTIES OR CONDITIONS OF ANY KIND, either express or implied. See the SIL Open Font License for the specific language, permissions and limitations governing your use of this Font Software.
http://scripts.sil.org/OFL
  -->
<path d="M70 559C88 620 102 698 103 750L157 737C154 686 139 608 121 548ZM328 538C320 589 303 670 289 718L338 732C353 684 369 613 385 552ZM483 236L621 236 621 319 483 319ZM483 371L547 371 547 448 483 448ZM483 183L483 111 547 111 547 183ZM640 546L640 647 450 647 450 711 640 711 640 840 383 840 383 904 961 904 961 840 711 840 711 711 910 711 910 647 711 647 711 546 698 546C740 518 779 483 812 440 844 492 883 535 931 566 940 548 961 524 975 511 924 483 883 439 850 384 899 303 933 198 951 67L912 57 901 59 700 59 700 118 751 118 709 126C724 219 747 305 780 378 754 416 724 448 692 473L692 448 601 448 601 371 680 371 680 183 601 183 601 111 680 111 680 53 423 53 423 553 483 553 483 505 646 505 629 514C637 522 648 534 656 546ZM881 118C867 194 845 260 816 316 791 257 773 190 761 118ZM197 10C165 91 104 193 17 270 32 280 53 302 64 317L98 284 98 323 196 323 196 427 52 427 52 493 196 493 196 802 40 832 57 900C152 880 280 853 401 828L395 763 259 790 259 493 382 493 382 427 259 427 259 323 364 323 364 259 120 259C173 199 212 135 240 81 288 133 340 205 366 250L420 195C388 143 321 66 264 10Z"/>
</svg>