<svg xmlns="http://www.w3.org/2000/svg" name="gid13611" data-unicode="鐖"
    viewBox="0 0 1000 1000">
  <!--
© 2014-2021 Adobe (http://www.adobe.com/).
Noto is a trademark of Google Inc.
This Font Software is licensed under the SIL Open Font License, Version 1.1. This Font Software is distributed on an "AS IS" BASIS, WITHOUT WARRANTIES OR CONDITIONS OF ANY KIND, either express or implied. See the SIL Open Font License for the specific language, permissions and limitations governing your use of this Font Software.
http://scripts.sil.org/OFL
  -->
<path d="M70 589C88 650 102 728 103 780L157 767C154 716 139 638 120 578ZM318 567C311 619 295 699 281 748L329 759C343 712 358 640 372 579ZM859 638C838 686 806 730 766 768 748 724 733 671 723 611L947 611 947 553 872 553 894 527C871 506 824 476 786 457L753 493C782 508 819 532 845 553L714 553 707 484 645 484 652 553 423 553 423 658C423 717 417 792 386 861 376 883 363 904 347 924 362 931 390 951 401 962 461 888 481 788 486 704 524 740 570 788 593 818L641 779C617 747 565 698 524 663L486 692 487 659 487 611 660 611C673 686 691 754 715 810 661 850 596 884 525 909 538 920 557 943 566 956 631 931 691 900 742 863 779 923 826 959 886 961 922 961 949 925 963 819 950 814 929 802 916 789 910 861 900 895 883 894 849 893 818 867 792 823 847 775 890 719 919 654ZM505 38C490 79 464 134 440 179L417 159 386 199C425 233 469 281 496 317 474 354 451 390 429 420L381 425 389 483 610 453 617 487 668 467C660 426 636 358 611 307L564 322C575 346 586 373 595 400L491 413C540 344 594 252 637 177L582 154C567 188 547 227 525 266 512 250 494 231 476 212 504 169 537 109 565 57ZM194 40C162 121 103 223 17 300 31 310 53 331 63 346L95 314 95 351 194 351 194 457 57 457 57 520 194 520 194 834 39 863 55 929 386 861 381 796 256 822 256 520 371 520 371 457 256 457 256 351 356 351 356 289 118 289C169 230 207 167 235 114 281 164 326 231 351 274L399 221C370 172 306 95 251 40ZM780 40C765 80 737 136 712 180L684 154 653 195C693 232 739 283 765 320 745 352 724 383 705 408L667 412 678 468C741 460 816 448 894 436 901 454 906 472 909 486L958 464C948 421 917 351 887 298L840 317C852 338 864 362 874 386L767 400C815 334 869 247 911 176L859 155C842 189 820 230 796 270 783 253 766 234 747 214 776 172 809 111 838 60Z"/>
</svg>