<svg xmlns="http://www.w3.org/2000/svg" name="gid13625" data-unicode="鐵"
    viewBox="0 0 1000 1000">
  <!--
© 2014-2021 Adobe (http://www.adobe.com/).
Noto is a trademark of Google Inc.
This Font Software is licensed under the SIL Open Font License, Version 1.1. This Font Software is distributed on an "AS IS" BASIS, WITHOUT WARRANTIES OR CONDITIONS OF ANY KIND, either express or implied. See the SIL Open Font License for the specific language, permissions and limitations governing your use of this Font Software.
http://scripts.sil.org/OFL
  -->
<path d="M455 435L621 435 621 518 455 518ZM397 384L397 568 681 568 681 384ZM812 85C849 135 886 202 901 246L960 217C944 174 905 108 867 60ZM66 589C84 650 98 728 99 780L151 768C148 717 134 639 115 578ZM313 567C306 619 289 699 275 748L321 759C336 712 350 640 364 579ZM194 40C162 121 103 223 17 300 31 310 53 331 63 346L90 320 90 352 188 352 188 457 50 457 50 522 188 522 188 835 39 863 55 929 357 867 364 912C434 906 520 897 610 887L576 912C591 924 617 949 627 961 679 922 726 876 768 823 793 914 829 961 880 961 938 960 962 932 972 779 955 773 933 757 919 743 914 858 905 890 886 890 860 890 836 844 819 750 873 662 915 560 945 446L880 432C861 508 835 579 803 643 794 562 788 461 784 338L961 338 961 276 783 276C782 204 781 125 782 40L710 40 714 276 574 276 574 190 681 190 681 130 574 130 574 40 506 40 506 130 396 130 396 190 506 190 506 276 359 276 359 338 716 338C722 503 732 636 749 736 727 768 704 798 678 825L571 835 571 771 679 771 679 722 571 722 571 666 691 666 691 614 385 614 385 666 506 666 506 722 401 722 401 771 506 771 506 840 385 851 381 796 250 823 250 522 369 522 369 457 250 457 250 352 350 352 350 289 118 289C169 229 208 166 236 112 281 163 329 233 353 276L403 222C373 171 309 95 256 40Z"/>
</svg>