<svg xmlns="http://www.w3.org/2000/svg"
    viewBox="0 0 1000 1000">
  <!--
© 2014-2021 Adobe (http://www.adobe.com/).
Noto is a trademark of Google Inc.
This Font Software is licensed under the SIL Open Font License, Version 1.1. This Font Software is distributed on an "AS IS" BASIS, WITHOUT WARRANTIES OR CONDITIONS OF ANY KIND, either express or implied. See the SIL Open Font License for the specific language, permissions and limitations governing your use of this Font Software.
http://scripts.sil.org/OFL
  -->
<path d="M604 44C630 61 661 86 676 104L703 75C687 58 656 35 630 20ZM70 560C90 621 106 699 108 751L162 737C158 686 141 608 121 548ZM335 538C328 590 310 670 295 718L344 731C359 685 377 612 392 552ZM761 154C789 170 822 194 839 212L845 204 845 326 717 326 741 303C726 285 696 258 670 241L642 264C667 282 694 307 710 326L505 326 505 173C526 188 546 208 559 221L586 195C572 178 544 156 520 141L505 154 505 57 442 57 442 384 556 384C537 462 478 510 393 539 408 551 432 575 441 588 534 549 605 486 626 384L712 384 712 471C712 532 728 548 796 548 810 548 873 548 887 548 937 548 955 528 962 445 943 440 917 432 903 422 901 483 897 490 877 490 864 490 815 490 805 490 783 490 780 488 780 470L780 384 910 384 910 57 845 57 845 165C828 152 805 137 784 127ZM530 105C567 126 606 150 644 176 603 215 558 250 513 278 524 286 542 303 549 310 593 280 639 243 681 201 727 234 769 267 797 293L827 258C799 232 757 201 711 169 747 129 780 85 806 39L762 26C739 68 709 108 674 145 636 120 595 95 559 75ZM784 653C757 692 722 725 680 754 640 724 608 691 587 657L590 653ZM604 520C571 589 505 665 403 719 419 729 440 749 451 765 485 745 515 723 542 700 563 730 590 760 622 788 545 829 454 856 363 871 376 886 392 913 399 930 499 910 596 879 679 831 746 875 831 911 932 931 940 913 959 884 973 870 881 855 802 827 739 792 801 745 851 687 884 615L838 593 825 596 635 596C650 575 662 554 673 532ZM202 10C168 91 106 193 17 270 33 280 54 302 65 317L102 281 102 322 201 322 201 429 51 429 51 495 201 495 201 802 41 832 58 900C157 880 287 851 412 824L407 761 267 789 267 495 393 495 393 429 267 429 267 322 374 322 374 258 123 258C176 198 216 134 245 80 295 129 347 198 374 241L428 188C395 138 327 63 270 10Z"/>
</svg>