<svg xmlns="http://www.w3.org/2000/svg" name="gid13632" data-unicode="鑁"
    viewBox="0 0 1000 1000">
  <!--
© 2014-2021 Adobe (http://www.adobe.com/).
Noto is a trademark of Google Inc.
This Font Software is licensed under the SIL Open Font License, Version 1.1. This Font Software is distributed on an "AS IS" BASIS, WITHOUT WARRANTIES OR CONDITIONS OF ANY KIND, either express or implied. See the SIL Open Font License for the specific language, permissions and limitations governing your use of this Font Software.
http://scripts.sil.org/OFL
  -->
<path d="M604 74C630 91 661 116 676 134L703 105C687 88 656 65 630 50ZM70 590C90 651 106 729 108 781L162 767C158 716 141 638 121 578ZM335 568C328 620 310 700 295 748L344 761C359 715 377 642 392 582ZM761 184C789 200 822 224 839 242L845 234 845 356 717 356 741 333C726 315 696 288 670 271L642 294C667 312 694 337 710 356L505 356 505 203C526 218 546 238 559 251L586 225C572 208 544 186 520 171L505 184 505 87 442 87 442 414 556 414C537 492 478 540 393 569 408 581 432 605 441 618 534 579 605 516 626 414L712 414 712 501C712 562 728 578 796 578 810 578 873 578 887 578 937 578 955 558 962 475 943 470 917 462 903 452 901 513 897 520 877 520 864 520 815 520 805 520 783 520 780 518 780 500L780 414 910 414 910 87 845 87 845 195C828 182 805 167 784 157ZM530 135C567 156 606 180 644 206 603 245 558 280 513 308 524 316 542 333 549 340 593 310 639 273 681 231 727 264 769 297 797 323L827 288C799 262 757 231 711 199 747 159 780 115 806 69L762 56C739 98 709 138 674 175 636 150 595 125 559 105ZM784 683C757 722 722 755 680 784 640 754 608 721 587 687L590 683ZM604 550C571 619 505 695 403 749 419 759 440 779 451 795 485 775 515 753 542 730 563 760 590 790 622 818 545 859 454 886 363 901 376 916 392 943 399 960 499 940 596 909 679 861 746 905 831 941 932 961 940 943 959 914 973 900 881 885 802 857 739 822 801 775 851 717 884 645L838 623 825 626 635 626C650 605 662 584 673 562ZM202 40C168 121 106 223 17 300 33 310 54 332 65 347L102 311 102 352 201 352 201 459 51 459 51 525 201 525 201 832 41 862 58 930C157 910 287 881 412 854L407 791 267 819 267 525 393 525 393 459 267 459 267 352 374 352 374 288 123 288C176 228 216 164 245 110 295 159 347 228 374 271L428 218C395 168 327 93 270 40Z"/>
</svg>