<svg xmlns="http://www.w3.org/2000/svg"
    viewBox="0 0 1000 1000">
  <!--
© 2014-2021 Adobe (http://www.adobe.com/).
Noto is a trademark of Google Inc.
This Font Software is licensed under the SIL Open Font License, Version 1.1. This Font Software is distributed on an "AS IS" BASIS, WITHOUT WARRANTIES OR CONDITIONS OF ANY KIND, either express or implied. See the SIL Open Font License for the specific language, permissions and limitations governing your use of this Font Software.
http://scripts.sil.org/OFL
  -->
<path d="M537 436L537 653 900 653 900 436ZM70 559C88 620 102 698 103 750L157 737C154 686 139 608 121 548ZM328 538C320 589 303 670 289 718L338 732C353 684 369 613 385 552ZM197 14C165 95 104 197 17 274 32 284 53 306 64 321L98 288 98 323 196 323 196 427 52 427 52 493 196 493 196 802 40 832 57 900 368 835C356 859 343 882 328 904 344 910 372 927 384 939 479 807 493 607 493 464L493 223 634 223 634 280 511 290 516 334 634 324 634 336C634 391 653 403 724 403 739 403 832 403 847 403 895 403 912 389 918 337 902 334 880 328 868 320 865 354 861 359 839 359 820 359 744 359 730 359 699 359 694 356 694 337L694 319 845 306 840 264 694 276 694 223 888 223C882 247 875 270 868 288L924 302C938 271 953 221 964 178L920 167 908 169 708 169 708 119 920 119 920 68 708 68 708 10 643 10 643 169 428 169 428 464C428 553 424 663 394 763L259 790 259 493 382 493 382 427 259 427 259 323 364 323 364 259 124 259C174 200 212 138 240 85 288 137 340 208 366 253L420 199C388 147 321 70 264 14ZM516 695L516 857 450 857 450 910 964 910 964 857 920 857 920 695ZM571 857L571 745 635 745 635 857ZM684 857L684 745 748 745 748 857ZM796 857L796 745 863 745 863 857ZM595 565L686 565 686 609 595 609ZM743 565L841 565 841 609 743 609ZM595 480L686 480 686 523 595 523ZM743 480L841 480 841 523 743 523Z"/>
</svg>