<svg xmlns="http://www.w3.org/2000/svg" name="gid13661" data-unicode="鑲"
    viewBox="0 0 1000 1000">
  <!--
© 2014-2021 Adobe (http://www.adobe.com/).
Noto is a trademark of Google Inc.
This Font Software is licensed under the SIL Open Font License, Version 1.1. This Font Software is distributed on an "AS IS" BASIS, WITHOUT WARRANTIES OR CONDITIONS OF ANY KIND, either express or implied. See the SIL Open Font License for the specific language, permissions and limitations governing your use of this Font Software.
http://scripts.sil.org/OFL
  -->
<path d="M497 266L588 266 588 342 497 342ZM767 266L860 266 860 342 767 342ZM70 589C88 650 102 728 103 780L157 767C154 716 139 638 121 578ZM328 568C320 619 303 700 289 748L338 762C353 714 369 643 385 582ZM644 40L644 121 404 121 404 175 957 175 957 121 716 121 716 40ZM197 40C165 121 104 223 17 300 32 310 53 332 64 347L98 314 98 353 196 353 196 457 52 457 52 523 196 523 196 832 40 862 58 930C147 911 266 885 380 860L375 796C386 807 405 831 413 843 449 829 486 813 523 794L523 881 444 895 458 953C537 938 640 917 740 898L735 842 589 870 589 757C619 739 647 718 670 697 720 819 810 915 929 961 939 944 957 921 971 909 910 890 856 857 812 814 852 796 896 771 937 743L892 704C865 725 818 757 780 778 758 752 740 723 725 692L957 692 957 643 818 643 818 588 928 588 928 539 818 539 818 486 942 486 942 437 818 437 818 387 920 387 920 220 710 220 710 387 750 387 750 437 608 437 608 387 647 387 647 220 441 220 441 387 540 387 540 437 416 437 416 486 540 486 540 539 427 539 427 588 540 588 540 643 399 643 399 692 593 692C533 735 450 771 374 795L259 819 259 523 382 523 382 457 259 457 259 353 364 353 364 289 120 289C173 229 212 165 240 111 286 159 335 227 360 269L413 215C383 166 318 92 264 40ZM608 486L750 486 750 539 608 539ZM608 588L750 588 750 643 608 643Z"/>
</svg>