<svg xmlns="http://www.w3.org/2000/svg"
    viewBox="0 0 1000 1000">
  <!--
© 2014-2021 Adobe (http://www.adobe.com/).
Noto is a trademark of Google Inc.
This Font Software is licensed under the SIL Open Font License, Version 1.1. This Font Software is distributed on an "AS IS" BASIS, WITHOUT WARRANTIES OR CONDITIONS OF ANY KIND, either express or implied. See the SIL Open Font License for the specific language, permissions and limitations governing your use of this Font Software.
http://scripts.sil.org/OFL
  -->
<path d="M471 146L592 146 592 180 471 180ZM471 218L592 218 592 254 471 254ZM471 75L592 75 592 109 471 109ZM749 145L872 145 872 180 749 180ZM749 217L872 217 872 253 749 253ZM749 75L872 75 872 109 749 109ZM66 559C84 620 98 698 99 750L153 737C150 686 136 608 116 548ZM324 538C317 589 299 670 284 718L334 732C349 684 365 613 381 552ZM193 10C162 90 103 193 18 270 33 280 55 302 65 317L93 289 93 323 191 323 191 427 48 427 48 493 191 493 191 803 40 832 57 900C151 881 277 854 396 829L391 764 255 791 255 493 368 493C380 504 393 517 399 525 416 509 434 490 451 469L451 638 948 638 948 591 725 591 725 546 896 546 896 509 725 509 725 467 894 467 894 429 725 429 725 388 926 388 926 345 729 345 760 305 709 291 930 291 930 37 693 37 693 289C685 305 673 326 660 345L535 345 558 298 537 292 648 292 648 37 416 37 416 292 490 292C463 350 423 407 378 451L378 427 255 427 255 323 359 323 359 259 120 259C171 199 209 136 236 82 282 132 331 200 356 243L408 188C379 138 314 63 260 10ZM659 467L659 509 518 509 518 467ZM659 429L518 429 518 388 659 388ZM659 546L659 591 518 591 518 546ZM801 730C768 761 725 786 676 806 628 785 587 760 558 730ZM426 677L426 730 527 730 493 742C521 776 559 806 603 832 527 854 443 868 359 875 370 890 384 917 390 933 490 921 590 902 677 869 752 900 839 922 930 933 939 916 957 890 971 876 894 868 819 854 753 834 819 800 873 755 908 696L865 674 852 677Z"/>
</svg>