<svg xmlns="http://www.w3.org/2000/svg"
    viewBox="0 0 1000 1000">
  <!--
© 2014-2021 Adobe (http://www.adobe.com/).
Noto is a trademark of Google Inc.
This Font Software is licensed under the SIL Open Font License, Version 1.1. This Font Software is distributed on an "AS IS" BASIS, WITHOUT WARRANTIES OR CONDITIONS OF ANY KIND, either express or implied. See the SIL Open Font License for the specific language, permissions and limitations governing your use of this Font Software.
http://scripts.sil.org/OFL
  -->
<path d="M532 421L532 511 248 511 248 574 502 574C434 662 321 747 221 787 236 800 256 825 268 842 359 798 461 718 532 631L532 826C532 838 528 840 516 841 504 841 464 842 422 840 431 857 442 884 445 903 505 903 543 902 568 891 593 880 600 862 600 827L600 574 756 574 756 511 600 511 600 421ZM383 250L383 339 165 339 165 250ZM383 195L165 195 165 111 383 111ZM840 250L840 340 615 340 615 250ZM840 195L615 195 615 111 840 111ZM878 53L544 53 544 398 840 398 840 829C840 847 834 853 815 854 796 854 731 855 664 853 675 873 688 909 691 930 779 930 837 929 871 916 904 903 916 879 916 829L916 53ZM90 53L90 931 165 931 165 396 453 396 453 53Z"/>
</svg>