<svg xmlns="http://www.w3.org/2000/svg"
    viewBox="0 0 1000 1000">
  <!--
© 2014-2021 Adobe (http://www.adobe.com/).
Noto is a trademark of Google Inc.
This Font Software is licensed under the SIL Open Font License, Version 1.1. This Font Software is distributed on an "AS IS" BASIS, WITHOUT WARRANTIES OR CONDITIONS OF ANY KIND, either express or implied. See the SIL Open Font License for the specific language, permissions and limitations governing your use of this Font Software.
http://scripts.sil.org/OFL
  -->
<path d="M566 515L566 624 426 624 426 515ZM233 624L233 688 358 688C351 746 323 829 239 880 255 891 278 912 289 926 385 861 417 755 424 688L566 688 566 911 633 911 633 688 769 688 769 624 633 624 633 515 748 515 748 453 251 453 251 515 360 515 360 624ZM383 245L383 332 163 332 163 245ZM383 192L163 192 163 110 383 110ZM842 245L842 333 614 333 614 245ZM842 192L614 192 614 110 842 110ZM878 53L543 53 543 391 842 391 842 832C842 848 837 853 821 854 805 854 752 854 697 853 708 873 718 908 720 928 797 929 847 927 877 915 906 902 916 878 916 833L916 53ZM89 53L89 931 163 931 163 390 454 390 454 53Z"/>
</svg>