<svg xmlns="http://www.w3.org/2000/svg" name="gid13686" data-unicode="開"
    viewBox="0 0 1000 1000">
  <!--
© 2014-2021 Adobe (http://www.adobe.com/).
Noto is a trademark of Google Inc.
This Font Software is licensed under the SIL Open Font License, Version 1.1. This Font Software is distributed on an "AS IS" BASIS, WITHOUT WARRANTIES OR CONDITIONS OF ANY KIND, either express or implied. See the SIL Open Font License for the specific language, permissions and limitations governing your use of this Font Software.
http://scripts.sil.org/OFL
  -->
<path d="M566 545L566 654 426 654 426 545ZM233 654L233 718 358 718C351 776 323 859 239 910 255 921 278 942 289 956 385 891 417 785 424 718L566 718 566 941 633 941 633 718 769 718 769 654 633 654 633 545 748 545 748 483 251 483 251 545 360 545 360 654ZM383 275L383 362 163 362 163 275ZM383 222L163 222 163 140 383 140ZM842 275L842 363 614 363 614 275ZM842 222L614 222 614 140 842 140ZM878 83L543 83 543 421 842 421 842 862C842 878 837 883 821 884 805 884 752 884 697 883 708 903 718 938 720 958 797 959 847 957 877 945 906 932 916 908 916 863L916 83ZM89 83L89 961 163 961 163 420 454 420 454 83Z"/>
</svg>