<svg xmlns="http://www.w3.org/2000/svg" name="gid13691" data-unicode="閑"
    viewBox="0 0 1000 1000">
  <!--
© 2014-2021 Adobe (http://www.adobe.com/).
Noto is a trademark of Google Inc.
This Font Software is licensed under the SIL Open Font License, Version 1.1. This Font Software is distributed on an "AS IS" BASIS, WITHOUT WARRANTIES OR CONDITIONS OF ANY KIND, either express or implied. See the SIL Open Font License for the specific language, permissions and limitations governing your use of this Font Software.
http://scripts.sil.org/OFL
  -->
<path d="M461 441L461 534 239 534 239 597 430 597C379 689 298 774 214 817 230 830 251 855 262 871 335 825 408 747 461 658L461 931 529 931 529 649C580 738 654 818 728 863 739 845 761 820 776 807 694 767 611 685 561 597L763 597 763 534 529 534 529 441ZM383 280L383 369 165 369 165 280ZM383 225L165 225 165 141 383 141ZM840 280L840 370 615 370 615 280ZM840 225L615 225 615 141 840 141ZM878 83L544 83 544 428 840 428 840 859C840 877 834 883 815 884 796 884 731 885 664 883 675 903 688 939 691 960 779 960 837 959 871 946 904 933 916 909 916 859L916 83ZM90 83L90 961 165 961 165 426 453 426 453 83Z"/>
</svg>