<svg xmlns="http://www.w3.org/2000/svg" name="gid13697" data-unicode="閙"
    viewBox="0 0 1000 1000">
  <!--
© 2014-2021 Adobe (http://www.adobe.com/).
Noto is a trademark of Google Inc.
This Font Software is licensed under the SIL Open Font License, Version 1.1. This Font Software is distributed on an "AS IS" BASIS, WITHOUT WARRANTIES OR CONDITIONS OF ANY KIND, either express or implied. See the SIL Open Font License for the specific language, permissions and limitations governing your use of this Font Software.
http://scripts.sil.org/OFL
  -->
<path d="M280 612L280 884 344 884 344 670 462 670 462 940 530 940 530 670 653 670 653 816C653 824 650 826 642 827 634 828 606 828 575 827 583 842 592 863 595 880 642 880 672 880 693 871 713 861 718 845 718 817L718 612 530 612 530 543 772 543 772 486 531 486 531 417 461 417 461 486 234 486 234 543 462 543 462 612ZM383 271L383 354 163 354 163 271ZM383 218L163 218 163 140 383 140ZM842 271L842 354 614 354 614 271ZM842 218L614 218 614 140 842 140ZM878 83L543 83 543 411 842 411 842 862C842 878 837 883 821 884 805 884 752 884 697 883 708 903 718 938 720 958 797 959 847 957 877 945 906 932 916 908 916 863L916 83ZM89 83L89 961 163 961 163 411 454 411 454 83Z"/>
</svg>