<svg xmlns="http://www.w3.org/2000/svg"
    viewBox="0 0 1000 1000">
  <!--
© 2014-2021 Adobe (http://www.adobe.com/).
Noto is a trademark of Google Inc.
This Font Software is licensed under the SIL Open Font License, Version 1.1. This Font Software is distributed on an "AS IS" BASIS, WITHOUT WARRANTIES OR CONDITIONS OF ANY KIND, either express or implied. See the SIL Open Font License for the specific language, permissions and limitations governing your use of this Font Software.
http://scripts.sil.org/OFL
  -->
<path d="M878 53L543 53 543 379 842 379 842 840C842 854 838 858 825 859L732 858C741 845 752 833 761 825 658 805 582 755 541 684L761 684 761 627 526 627 526 618 526 548 745 548 745 492 626 492 678 410 610 389C600 418 578 461 561 492L432 492C423 463 400 421 376 391L318 409C336 433 353 465 363 492L255 492 255 548 457 548 457 617 457 627 239 627 239 684 446 684C426 737 371 794 229 833 244 846 264 868 273 883 406 841 470 786 500 730 547 803 621 855 718 881L729 863C737 883 746 911 749 930 812 930 856 929 881 917 908 904 916 882 916 840L916 53ZM383 239L383 322 163 322 163 239ZM383 187L163 187 163 109 383 109ZM842 239L842 323 614 323 614 239ZM842 187L614 187 614 109 842 109ZM89 53L89 931 163 931 163 377 454 377 454 53Z"/>
</svg>