<svg xmlns="http://www.w3.org/2000/svg" name="gid13704" data-unicode="閣"
    viewBox="0 0 1000 1000">
  <!--
© 2014-2021 Adobe (http://www.adobe.com/).
Noto is a trademark of Google Inc.
This Font Software is licensed under the SIL Open Font License, Version 1.1. This Font Software is distributed on an "AS IS" BASIS, WITHOUT WARRANTIES OR CONDITIONS OF ANY KIND, either express or implied. See the SIL Open Font License for the specific language, permissions and limitations governing your use of this Font Software.
http://scripts.sil.org/OFL
  -->
<path d="M420 401C380 459 309 525 212 575 227 584 245 602 255 615 296 592 332 567 363 541 389 569 420 596 455 620 379 665 290 698 208 717 220 729 236 752 243 767 267 761 292 753 316 745L316 949 376 949 376 926 623 926 623 948 684 948 684 734C706 742 728 748 750 754 760 737 779 712 793 698 713 682 631 654 559 618 613 576 659 527 690 471L649 449 638 451 453 451 483 412ZM376 873L376 777 623 777 623 873ZM408 501L599 501C574 533 542 562 505 588 465 563 430 536 402 506ZM507 654C553 681 604 705 655 724L370 724C418 705 464 681 507 654ZM383 266L383 344 160 344 160 266ZM383 214L160 214 160 139 383 139ZM846 266L846 344 615 344 615 266ZM846 214L615 214 615 139 846 139ZM883 83L543 83 543 400 846 400 846 864C846 880 842 885 827 885 812 886 764 886 713 884 724 905 734 939 736 959 807 959 854 958 882 945 910 933 919 909 919 866L919 83ZM87 83L87 961 160 961 160 400 454 400 454 83Z"/>
</svg>