<svg xmlns="http://www.w3.org/2000/svg"
    viewBox="0 0 1000 1000">
  <!--
© 2014-2021 Adobe (http://www.adobe.com/).
Noto is a trademark of Google Inc.
This Font Software is licensed under the SIL Open Font License, Version 1.1. This Font Software is distributed on an "AS IS" BASIS, WITHOUT WARRANTIES OR CONDITIONS OF ANY KIND, either express or implied. See the SIL Open Font License for the specific language, permissions and limitations governing your use of this Font Software.
http://scripts.sil.org/OFL
  -->
<path d="M369 550L369 591 631 591 631 546C675 575 721 601 765 619 773 601 788 575 801 560 703 526 595 458 527 378L464 378C413 452 311 527 205 569 217 584 232 607 238 624 283 604 328 578 369 550ZM499 433C529 469 571 505 617 537L387 537C432 504 471 468 499 433ZM316 650L316 906 382 906 382 876 618 876 618 904 685 904 685 650ZM382 819L382 706 618 706 618 819ZM383 236L383 314 159 314 159 236ZM383 184L159 184 159 109 383 109ZM846 236L846 314 615 314 615 236ZM846 184L615 184 615 109 846 109ZM883 53L543 53 543 370 846 370 846 834C846 849 842 853 829 854 815 854 770 854 724 853 734 873 744 907 748 927 812 927 856 926 884 914 911 901 919 878 919 835L919 53ZM87 53L87 931 159 931 159 370 454 370 454 53Z"/>
</svg>