<svg xmlns="http://www.w3.org/2000/svg" name="gid13717" data-unicode="閶"
    viewBox="0 0 1000 1000">
  <!--
© 2014-2021 Adobe (http://www.adobe.com/).
Noto is a trademark of Google Inc.
This Font Software is licensed under the SIL Open Font License, Version 1.1. This Font Software is distributed on an "AS IS" BASIS, WITHOUT WARRANTIES OR CONDITIONS OF ANY KIND, either express or implied. See the SIL Open Font License for the specific language, permissions and limitations governing your use of this Font Software.
http://scripts.sil.org/OFL
  -->
<path d="M380 513L614 513 614 555 380 555ZM380 429L614 429 614 471 380 471ZM315 386L315 599 681 599 681 386ZM340 781L657 781 657 828 340 828ZM340 736L340 690 657 690 657 736ZM277 642L277 906 340 906 340 877 657 877 657 906 723 906 723 642ZM380 231L380 286 166 286 166 231ZM380 183L166 183 166 129 380 129ZM837 231L837 286 616 286 616 231ZM837 183L616 183 616 129 837 129ZM878 75L544 75 544 341 837 341 837 875C837 888 834 892 821 893 809 893 770 894 730 892 739 911 749 942 752 960 811 961 853 959 877 947 903 935 911 915 911 874L911 75ZM93 75L93 959 166 959 166 341 451 341 451 75Z"/>
</svg>