<svg xmlns="http://www.w3.org/2000/svg"
    viewBox="0 0 1000 1000">
  <!--
© 2014-2021 Adobe (http://www.adobe.com/).
Noto is a trademark of Google Inc.
This Font Software is licensed under the SIL Open Font License, Version 1.1. This Font Software is distributed on an "AS IS" BASIS, WITHOUT WARRANTIES OR CONDITIONS OF ANY KIND, either express or implied. See the SIL Open Font License for the specific language, permissions and limitations governing your use of this Font Software.
http://scripts.sil.org/OFL
  -->
<path d="M540 491C556 521 566 560 568 587L493 587 493 641 614 641 614 715 509 715 509 768 614 768 614 903 673 903 673 768 783 768 783 715 673 715 673 641 800 641 800 587 717 587 750 491 707 478 788 478 788 425 673 425 673 365 614 365 614 425 505 425 505 478 700 478C694 508 682 553 672 582L688 587 592 587 615 581C613 553 601 511 583 480ZM240 389L240 514C240 602 232 724 173 818 186 825 208 847 217 859 242 821 259 778 271 734L271 904 324 904 324 859 486 859 486 645 289 645C292 621 294 597 295 575L472 575 472 389ZM297 439L415 439 415 525 297 525 297 515ZM324 699L431 699 431 806 324 806ZM383 215L383 282 158 282 158 215ZM383 166L158 166 158 103 383 103ZM847 215L847 280 615 280 615 215ZM847 166L615 166 615 103 847 103ZM883 50L543 50 543 332 847 332 847 844C847 857 843 862 830 862 818 863 778 863 735 862 745 880 755 912 758 931 818 931 860 929 886 918 911 906 920 885 920 844L920 50ZM87 50L87 931 158 931 158 334 454 334 454 50Z"/>
</svg>