<svg xmlns="http://www.w3.org/2000/svg"
    viewBox="0 0 1000 1000">
  <!--
© 2014-2021 Adobe (http://www.adobe.com/).
Noto is a trademark of Google Inc.
This Font Software is licensed under the SIL Open Font License, Version 1.1. This Font Software is distributed on an "AS IS" BASIS, WITHOUT WARRANTIES OR CONDITIONS OF ANY KIND, either express or implied. See the SIL Open Font License for the specific language, permissions and limitations governing your use of this Font Software.
http://scripts.sil.org/OFL
  -->
<path d="M81 53L81 930 152 930 152 121 299 121C275 190 242 283 208 356 289 434 310 501 310 555 311 587 305 613 288 624 278 630 266 633 253 633 234 635 212 635 186 632 198 652 205 681 206 701 231 702 259 702 282 700 303 697 322 691 338 681 368 660 381 619 381 564 381 502 362 430 280 348 317 268 359 165 392 81L341 50 329 53ZM619 9L619 160 385 160 385 230 956 230 956 160 693 160 693 9ZM475 356L475 556C475 661 457 787 318 876 331 887 357 916 366 932 518 833 546 679 546 557L546 425 740 425 740 794C740 862 745 880 761 894 777 907 800 912 819 912 831 912 859 912 872 912 891 912 912 909 925 900 940 891 949 877 954 853 960 832 963 770 964 717 944 712 919 699 904 685 903 744 902 789 900 809 898 828 894 838 889 842 885 846 875 847 866 847 858 847 844 847 837 847 829 847 824 845 819 842 814 838 813 824 813 798L813 356Z"/>
</svg>