<svg xmlns="http://www.w3.org/2000/svg" name="gid13767" data-unicode="阮"
    viewBox="0 0 1000 1000">
  <!--
© 2014-2021 Adobe (http://www.adobe.com/).
Noto is a trademark of Google Inc.
This Font Software is licensed under the SIL Open Font License, Version 1.1. This Font Software is distributed on an "AS IS" BASIS, WITHOUT WARRANTIES OR CONDITIONS OF ANY KIND, either express or implied. See the SIL Open Font License for the specific language, permissions and limitations governing your use of this Font Software.
http://scripts.sil.org/OFL
  -->
<path d="M437 109L437 181 895 181 895 109ZM377 385L377 457 521 457C513 684 491 824 320 902 336 916 358 943 367 960 554 869 585 710 593 457L706 457 706 849C706 927 721 949 791 949 805 949 862 949 877 949 939 949 956 910 963 768 943 762 914 751 898 739 896 861 892 881 870 881 858 881 812 881 801 881 781 881 777 877 777 849L777 457 956 457 956 385ZM78 81L78 958 149 958 149 149 285 149C264 216 235 304 206 376 277 455 296 524 296 578 296 608 290 636 275 647 267 653 256 655 244 656 228 657 208 657 185 655 197 675 204 705 205 723 227 725 252 724 273 722 293 719 311 713 326 703 354 683 366 640 366 585 366 523 349 451 276 367 310 288 347 190 376 108L325 78 314 81Z"/>
</svg>