<svg xmlns="http://www.w3.org/2000/svg" name="gid13780" data-unicode="阿"
    viewBox="0 0 1000 1000">
  <!--
© 2014-2021 Adobe (http://www.adobe.com/).
Noto is a trademark of Google Inc.
This Font Software is licensed under the SIL Open Font License, Version 1.1. This Font Software is distributed on an "AS IS" BASIS, WITHOUT WARRANTIES OR CONDITIONS OF ANY KIND, either express or implied. See the SIL Open Font License for the specific language, permissions and limitations governing your use of this Font Software.
http://scripts.sil.org/OFL
  -->
<path d="M381 108L381 179 805 179 805 866C805 886 798 892 776 892 755 894 681 894 602 891 612 911 623 941 627 959 730 960 791 960 827 948 862 938 877 917 877 866L877 179 963 179 963 108ZM415 320L415 759 480 759 480 683 698 683 698 320ZM480 386L631 386 631 618 480 618ZM81 83L81 960 148 960 148 151 281 151C259 218 230 306 201 377 273 457 291 526 291 581 291 611 286 640 270 651 262 656 251 659 239 660 223 661 203 660 181 658 192 678 199 707 199 725 222 726 247 726 267 723 287 721 305 715 319 705 347 684 358 642 358 588 358 525 342 453 269 369 303 289 339 191 368 109L320 80 308 83Z"/>
</svg>