<svg xmlns="http://www.w3.org/2000/svg"
    viewBox="0 0 1000 1000">
  <!--
© 2014-2021 Adobe (http://www.adobe.com/).
Noto is a trademark of Google Inc.
This Font Software is licensed under the SIL Open Font License, Version 1.1. This Font Software is distributed on an "AS IS" BASIS, WITHOUT WARRANTIES OR CONDITIONS OF ANY KIND, either express or implied. See the SIL Open Font License for the specific language, permissions and limitations governing your use of this Font Software.
http://scripts.sil.org/OFL
  -->
<path d="M76 50L76 927 143 927 143 118 274 118C253 185 223 273 194 345 266 425 285 493 285 548 285 579 279 607 264 618 255 624 244 626 232 627 217 628 197 627 174 626 185 645 192 674 193 692 215 693 240 693 260 691 281 688 298 683 312 672 340 652 352 609 352 555 352 492 335 420 262 336 296 257 333 158 362 77L313 47 302 50ZM401 158L401 419C401 559 389 744 279 875 294 884 322 908 333 923 440 798 465 614 469 469L480 469C516 576 568 669 635 745 572 800 499 842 422 868 436 883 455 911 464 929 544 898 619 854 685 795 750 853 826 898 916 927 926 907 947 878 964 862 876 837 801 797 737 743 813 660 871 553 904 417L859 400 846 403 692 403 692 228 862 228C851 275 837 322 824 355L888 370C909 320 933 238 952 168L900 155 888 158 692 158 692 10 622 10 622 158ZM622 228L622 403 470 403 470 228ZM817 469C787 557 742 633 686 695 626 632 580 555 548 469Z"/>
</svg>