<svg xmlns="http://www.w3.org/2000/svg"
    viewBox="0 0 1000 1000">
  <!--
© 2014-2021 Adobe (http://www.adobe.com/).
Noto is a trademark of Google Inc.
This Font Software is licensed under the SIL Open Font License, Version 1.1. This Font Software is distributed on an "AS IS" BASIS, WITHOUT WARRANTIES OR CONDITIONS OF ANY KIND, either express or implied. See the SIL Open Font License for the specific language, permissions and limitations governing your use of this Font Software.
http://scripts.sil.org/OFL
  -->
<path d="M574 436C611 508 656 605 676 666L738 636C717 575 672 482 632 410ZM802 22L802 240 553 240 553 310 802 310 802 834C802 850 796 854 781 855 766 856 719 856 665 854 676 875 686 909 690 928 764 929 808 926 836 914 863 901 874 878 874 833L874 310 963 310 963 240 874 240 874 22ZM516 11C474 157 401 300 317 393 332 408 356 440 365 455 390 426 414 393 437 356L437 925 505 925 505 233C536 168 563 99 585 29ZM83 53L83 930 150 930 150 121 273 121C253 191 226 283 200 357 266 439 281 511 281 566 281 599 276 628 262 639 255 645 244 648 233 648 219 649 201 649 180 647 192 666 197 694 197 714 219 715 242 715 261 712 280 710 297 704 310 693 337 674 348 630 348 574 348 510 333 435 266 349 297 266 332 163 358 78L310 49 298 53Z"/>
</svg>