<svg xmlns="http://www.w3.org/2000/svg" name="gid13786" data-unicode="陌"
    viewBox="0 0 1000 1000">
  <!--
© 2014-2021 Adobe (http://www.adobe.com/).
Noto is a trademark of Google Inc.
This Font Software is licensed under the SIL Open Font License, Version 1.1. This Font Software is distributed on an "AS IS" BASIS, WITHOUT WARRANTIES OR CONDITIONS OF ANY KIND, either express or implied. See the SIL Open Font License for the specific language, permissions and limitations governing your use of this Font Software.
http://scripts.sil.org/OFL
  -->
<path d="M78 81L78 959 148 959 148 153 295 153C270 221 235 310 203 382 284 466 306 535 307 592 307 623 300 650 282 662 271 667 258 671 243 671 222 672 194 672 162 669 175 690 183 719 184 738 212 741 246 740 273 738 295 735 317 729 332 718 363 697 377 653 377 598 377 535 359 462 277 373 315 292 357 193 390 110L338 78 326 81ZM516 632L830 632 830 819 516 819ZM516 564L516 379 830 379 830 564ZM412 86L412 156 620 156C615 206 606 265 596 311L444 311 444 960 516 960 516 889 830 889 830 957 903 957 903 311 666 311C677 265 689 209 700 156L947 156 947 86Z"/>
</svg>