<svg xmlns="http://www.w3.org/2000/svg" name="gid13787" data-unicode="降"
    viewBox="0 0 1000 1000">
  <!--
© 2014-2021 Adobe (http://www.adobe.com/).
Noto is a trademark of Google Inc.
This Font Software is licensed under the SIL Open Font License, Version 1.1. This Font Software is distributed on an "AS IS" BASIS, WITHOUT WARRANTIES OR CONDITIONS OF ANY KIND, either express or implied. See the SIL Open Font License for the specific language, permissions and limitations governing your use of this Font Software.
http://scripts.sil.org/OFL
  -->
<path d="M686 609L686 743 552 743 552 609ZM686 465L686 546 413 546 413 609 485 609 485 743 363 743 363 809 686 809 686 960 758 960 758 809 948 809 948 743 758 743 758 609 919 609 919 546 758 546 758 465ZM81 83L81 960 148 960 148 151 279 151C258 219 228 310 199 383 271 461 290 528 290 583 290 613 284 640 269 651 261 657 250 659 237 660 221 661 202 660 179 659 190 678 197 707 198 725 220 726 245 725 265 723 286 721 303 715 317 705 345 686 357 644 357 590 357 528 340 457 267 374 301 294 338 192 367 109L318 80 307 83ZM790 188C761 240 721 285 674 324 629 287 592 243 565 196L571 188ZM588 39C549 120 474 216 363 286 379 296 402 319 412 334 453 306 489 276 521 244 548 288 582 329 620 364 543 416 453 453 362 474 376 489 393 516 401 534 498 508 593 467 675 408 747 460 832 497 927 519 937 500 957 472 972 458 881 441 799 409 730 365 797 306 852 234 887 146L840 124 827 127 616 127C633 102 647 76 660 51Z"/>
</svg>