<svg xmlns="http://www.w3.org/2000/svg"
    viewBox="0 0 1000 1000">
  <!--
© 2014-2021 Adobe (http://www.adobe.com/).
Noto is a trademark of Google Inc.
This Font Software is licensed under the SIL Open Font License, Version 1.1. This Font Software is distributed on an "AS IS" BASIS, WITHOUT WARRANTIES OR CONDITIONS OF ANY KIND, either express or implied. See the SIL Open Font License for the specific language, permissions and limitations governing your use of this Font Software.
http://scripts.sil.org/OFL
  -->
<path d="M646 24L610 24 610 164 352 164 352 232 610 232 610 448C610 534 559 755 315 866 329 882 350 914 360 930 558 839 631 667 645 587 661 665 731 841 922 930 933 911 953 880 968 862 797 783 725 647 697 545 687 506 683 472 683 448L683 232 950 232 950 164 683 164 683 24ZM807 285C794 394 762 486 697 545 712 555 737 576 747 588 780 555 806 515 827 468 864 511 902 559 922 592L965 546C941 509 893 452 849 405 859 370 866 333 871 293ZM81 53L81 930 148 930 148 121 269 121C249 189 222 280 196 353 263 431 278 499 279 553 279 583 273 610 260 621 252 627 242 630 229 630 216 631 198 630 177 629 188 648 194 677 195 695 217 696 240 695 258 693 278 691 294 685 308 676 335 656 346 614 346 561L346 550C361 560 384 580 394 591 426 557 452 514 472 465 501 500 528 539 542 567L586 524C568 490 530 441 494 401 504 368 511 332 516 294L453 286C439 393 407 486 346 547 343 489 325 422 263 344 294 264 329 161 355 79L306 50 295 53Z"/>
</svg>