<svg xmlns="http://www.w3.org/2000/svg" name="gid13798" data-unicode="陞"
    viewBox="0 0 1000 1000">
  <!--
© 2014-2021 Adobe (http://www.adobe.com/).
Noto is a trademark of Google Inc.
This Font Software is licensed under the SIL Open Font License, Version 1.1. This Font Software is distributed on an "AS IS" BASIS, WITHOUT WARRANTIES OR CONDITIONS OF ANY KIND, either express or implied. See the SIL Open Font License for the specific language, permissions and limitations governing your use of this Font Software.
http://scripts.sil.org/OFL
  -->
<path d="M622 42C568 78 464 112 372 135 381 149 391 171 395 185 431 177 469 168 506 157L506 273 356 273 356 339 505 339C501 410 479 493 382 538 397 551 418 575 428 590 540 530 571 429 576 339L744 339 744 559 816 559 816 339 949 339 949 273 816 273 816 48 744 48 744 273 577 273 577 134C616 120 653 104 683 87ZM611 531L611 653 399 653 399 720 611 720 611 867 326 867 326 935 961 935 961 867 684 867 684 720 907 720 907 653 684 653 684 531ZM81 83L81 960 148 960 148 151 279 151C258 219 228 310 199 383 271 461 290 528 290 583 290 613 284 640 269 651 261 657 250 659 237 660 221 661 202 660 179 659 190 678 197 707 198 725 220 726 245 725 265 723 286 721 303 715 317 705 345 686 357 644 357 590 357 528 340 457 267 374 301 294 338 192 367 109L318 80 307 83Z"/>
</svg>