<svg xmlns="http://www.w3.org/2000/svg"
    viewBox="0 0 1000 1000">
  <!--
© 2014-2021 Adobe (http://www.adobe.com/).
Noto is a trademark of Google Inc.
This Font Software is licensed under the SIL Open Font License, Version 1.1. This Font Software is distributed on an "AS IS" BASIS, WITHOUT WARRANTIES OR CONDITIONS OF ANY KIND, either express or implied. See the SIL Open Font License for the specific language, permissions and limitations governing your use of this Font Software.
http://scripts.sil.org/OFL
  -->
<path d="M81 53L81 930 148 930 148 121 287 121C263 192 231 288 199 364 276 439 299 503 299 556 299 587 294 612 277 623 267 630 256 632 242 633 226 634 203 633 178 631 189 650 196 679 196 698 222 700 249 699 271 697 291 695 311 689 325 679 355 659 367 618 367 564 367 502 346 434 268 355 305 271 346 163 376 80L326 50 315 53ZM401 401L401 658 605 658C579 743 509 821 326 878 340 890 360 919 367 935 545 878 627 794 663 703 723 830 808 889 928 935 936 912 955 887 973 871 855 832 772 782 714 658L915 658 915 401 688 401 688 314 856 314 856 257C884 275 912 291 939 304 949 284 964 257 978 240 872 196 757 108 685 11L616 11C562 100 450 198 335 251 348 267 364 294 372 312 402 297 432 279 461 259L461 314 619 314 619 401ZM653 76C700 137 771 200 846 250L474 250C548 197 613 134 653 76ZM468 462L619 462 619 548C619 564 618 580 617 596L468 596ZM688 462L846 462 846 596 686 596 688 550Z"/>
</svg>