<svg xmlns="http://www.w3.org/2000/svg" name="gid13828" data-unicode="隆"
    viewBox="0 0 1000 1000">
  <!--
© 2014-2021 Adobe (http://www.adobe.com/).
Noto is a trademark of Google Inc.
This Font Software is licensed under the SIL Open Font License, Version 1.1. This Font Software is distributed on an "AS IS" BASIS, WITHOUT WARRANTIES OR CONDITIONS OF ANY KIND, either express or implied. See the SIL Open Font License for the specific language, permissions and limitations governing your use of this Font Software.
http://scripts.sil.org/OFL
  -->
<path d="M782 180C753 230 713 274 666 312 621 276 583 234 555 188L562 180ZM627 476L627 569 515 569C526 545 535 520 543 495L499 485C558 461 615 431 666 395 740 448 827 488 922 511 932 493 952 465 968 451 876 432 792 398 721 352 788 295 843 225 878 140L833 117 820 121 603 121C617 98 630 74 642 51L569 39C529 121 455 220 348 293 364 303 388 325 398 341 441 309 479 275 513 238 541 280 574 318 612 352 533 403 442 441 352 462 366 476 383 504 390 522 418 514 446 505 473 495 450 568 410 637 361 685 377 694 404 714 415 725 439 699 463 666 484 630L627 630 627 720 443 720 443 779 627 779 627 876 352 876 352 938 957 938 957 876 699 876 699 779 892 779 892 720 699 720 699 630 909 630 909 569 699 569 699 476ZM81 83L81 960 148 960 148 151 279 151C258 219 228 310 199 383 271 461 290 528 290 583 290 613 284 640 269 651 261 657 250 659 237 660 221 661 202 660 179 659 190 678 197 707 198 725 220 726 245 725 265 723 286 721 303 715 317 705 345 686 357 644 357 590 357 528 340 457 267 374 301 294 338 192 367 109L318 80 307 83Z"/>
</svg>