<svg xmlns="http://www.w3.org/2000/svg"
    viewBox="0 0 1000 1000">
  <!--
© 2014-2021 Adobe (http://www.adobe.com/).
Noto is a trademark of Google Inc.
This Font Software is licensed under the SIL Open Font License, Version 1.1. This Font Software is distributed on an "AS IS" BASIS, WITHOUT WARRANTIES OR CONDITIONS OF ANY KIND, either express or implied. See the SIL Open Font License for the specific language, permissions and limitations governing your use of this Font Software.
http://scripts.sil.org/OFL
  -->
<path d="M81 53L81 930 148 930 148 121 279 121C258 189 228 280 199 353 271 431 290 498 290 553 290 583 284 610 269 621 261 627 250 629 237 630 221 631 202 630 179 629 190 648 197 677 198 695 220 696 245 695 265 693 286 691 303 685 317 675 340 659 353 627 356 586 370 599 386 620 394 636 458 599 539 540 597 487 610 512 621 538 630 564 554 657 413 755 294 801 310 815 329 838 339 855 443 807 565 721 648 634 664 728 652 809 623 838 608 859 590 861 568 861 548 861 522 860 492 856 505 877 510 907 511 926 537 928 563 929 582 929 622 928 650 920 678 891 759 815 754 510 567 341 600 315 631 287 658 258 701 502 779 708 919 818 931 799 954 773 971 760 894 706 835 618 792 510 844 470 906 416 955 366L905 318C872 359 817 411 770 451 748 387 732 317 719 245L950 245 950 179 785 179C811 140 841 84 867 34L796 10C778 57 745 123 720 165L760 179 531 179 569 165C558 123 529 61 498 15L436 37C464 80 490 137 501 179L360 179 360 245 583 245C515 310 421 370 331 409 346 422 369 450 378 463 423 440 470 412 516 380 534 397 551 417 566 437 512 489 424 548 356 580L357 560C357 498 340 427 267 344 301 264 338 162 367 79L318 50 307 53Z"/>
</svg>