<svg xmlns="http://www.w3.org/2000/svg" name="gid13838" data-unicode="隕"
    viewBox="0 0 1000 1000">
  <!--
© 2014-2021 Adobe (http://www.adobe.com/).
Noto is a trademark of Google Inc.
This Font Software is licensed under the SIL Open Font License, Version 1.1. This Font Software is distributed on an "AS IS" BASIS, WITHOUT WARRANTIES OR CONDITIONS OF ANY KIND, either express or implied. See the SIL Open Font License for the specific language, permissions and limitations governing your use of this Font Software.
http://scripts.sil.org/OFL
  -->
<path d="M510 136L804 136 804 242 510 242ZM438 81L438 297 879 297 879 81ZM479 536L839 536 839 610 479 610ZM479 663L839 663 839 738 479 738ZM479 410L839 410 839 483 479 483ZM409 354L409 794 911 794 911 354ZM717 840C785 877 855 925 896 960L967 921C922 885 842 837 771 800ZM533 799C489 839 395 884 317 909 332 923 354 946 365 961 446 935 542 888 600 840ZM81 83L81 960 148 960 148 151 269 151C249 219 222 310 196 383 263 461 278 529 279 583 279 613 273 640 260 651 252 657 242 660 229 660 216 661 198 660 177 659 188 678 194 707 195 725 217 726 240 725 258 723 278 721 294 715 308 706 335 686 346 644 346 591 346 529 330 458 263 374 294 294 329 191 355 109L306 80 295 83Z"/>
</svg>