<svg xmlns="http://www.w3.org/2000/svg"
    viewBox="0 0 1000 1000">
  <!--
© 2014-2021 Adobe (http://www.adobe.com/).
Noto is a trademark of Google Inc.
This Font Software is licensed under the SIL Open Font License, Version 1.1. This Font Software is distributed on an "AS IS" BASIS, WITHOUT WARRANTIES OR CONDITIONS OF ANY KIND, either express or implied. See the SIL Open Font License for the specific language, permissions and limitations governing your use of this Font Software.
http://scripts.sil.org/OFL
  -->
<path d="M501 393L796 393 796 506 501 506ZM839 24C822 63 789 119 765 153L820 179C846 147 877 99 904 53ZM79 58L79 930 147 930 147 125 270 125C249 197 219 294 191 371 262 453 278 524 278 581 278 613 273 642 258 654 249 659 238 662 226 662 211 664 192 664 170 661 181 680 187 709 188 729 210 730 235 729 254 727 274 724 292 719 306 708 334 688 345 644 345 589 345 524 329 449 258 363 290 278 328 170 356 84L307 54 296 58ZM433 333L433 565 610 565 610 658 393 658 393 720 610 720 610 843 325 843 325 906 960 906 960 843 682 843 682 720 907 720 907 658 682 658 682 565 868 565 868 333ZM398 55C423 92 451 145 463 180L347 180 347 351 414 351 414 243 880 243 880 351 948 351 948 180 680 180 680 14 609 14 609 180 476 180 527 156C514 121 485 69 456 29Z"/>
</svg>