<svg xmlns="http://www.w3.org/2000/svg"
    viewBox="0 0 1000 1000">
  <!--
© 2014-2021 Adobe (http://www.adobe.com/).
Noto is a trademark of Google Inc.
This Font Software is licensed under the SIL Open Font License, Version 1.1. This Font Software is distributed on an "AS IS" BASIS, WITHOUT WARRANTIES OR CONDITIONS OF ANY KIND, either express or implied. See the SIL Open Font License for the specific language, permissions and limitations governing your use of this Font Software.
http://scripts.sil.org/OFL
  -->
<path d="M466 57C441 117 395 176 344 216 361 225 389 244 401 255 452 211 503 142 533 73ZM769 83C822 134 880 205 907 252L965 218C937 171 876 102 824 53ZM380 721C367 783 337 848 298 884L355 917C399 873 427 800 442 733ZM485 746C495 796 501 861 499 904L558 895C558 853 552 788 542 739ZM605 741C625 784 643 841 649 878L702 863C696 826 677 770 656 728ZM718 729C745 761 772 805 784 835L830 812C818 784 790 741 762 710ZM442 654L442 704 875 704C868 810 860 852 847 865 840 873 833 874 820 874 806 874 773 874 738 870 747 885 754 910 755 927 790 930 826 929 846 928 870 926 886 921 900 906 921 883 931 826 941 681 942 672 943 654 943 654L715 654 715 599 897 599 897 552 715 552 715 496 897 496 897 450 715 450 715 394 926 394 926 341 613 341C710 302 795 250 849 180L781 159C755 193 717 222 672 247 679 238 681 225 681 207L681 22 611 22 611 205C611 214 608 217 598 218 587 219 552 219 512 217 521 233 532 255 536 272 577 272 608 272 630 268 541 309 430 336 319 353 332 367 354 398 361 413L442 395ZM81 53L81 930 148 930 148 121 279 121C258 189 229 280 199 353 271 431 290 498 290 552 290 582 284 609 269 620 261 626 249 628 237 629 221 630 202 629 179 628 190 647 197 677 198 695 221 696 246 696 266 694 287 691 304 685 318 676 346 656 358 614 358 560 358 498 342 427 268 344 302 265 339 163 368 80L319 50 307 53ZM648 394L648 450 513 450 513 394ZM513 496L648 496 648 552 513 552ZM513 599L648 599 648 654 513 654Z"/>
</svg>