<svg xmlns="http://www.w3.org/2000/svg" name="gid13868" data-unicode="隺"
    viewBox="0 0 1000 1000">
  <!--
© 2014-2021 Adobe (http://www.adobe.com/).
Noto is a trademark of Google Inc.
This Font Software is licensed under the SIL Open Font License, Version 1.1. This Font Software is distributed on an "AS IS" BASIS, WITHOUT WARRANTIES OR CONDITIONS OF ANY KIND, either express or implied. See the SIL Open Font License for the specific language, permissions and limitations governing your use of this Font Software.
http://scripts.sil.org/OFL
  -->
<path d="M498 584L498 684 277 684 277 584ZM572 241C559 276 535 324 513 361L313 361C346 318 376 272 402 223L835 223 835 330 907 330 907 157 434 157C449 124 463 90 475 54L403 38C389 79 373 119 355 157L92 157 92 333 162 333 162 223 320 223C249 345 152 443 33 510 49 525 74 557 84 572 127 545 168 513 206 478L206 959 277 959 277 912 880 912 880 847 568 847 568 744 832 744 832 684 568 684 568 584 832 584 832 524 568 524 568 424 852 424 852 361 587 361C606 330 627 294 647 260ZM498 524L277 524 277 424 498 424ZM498 744L498 847 277 847 277 744Z"/>
</svg>