<svg xmlns="http://www.w3.org/2000/svg" name="gid13886" data-unicode="雕"
    viewBox="0 0 1000 1000">
  <!--
© 2014-2021 Adobe (http://www.adobe.com/).
Noto is a trademark of Google Inc.
This Font Software is licensed under the SIL Open Font License, Version 1.1. This Font Software is distributed on an "AS IS" BASIS, WITHOUT WARRANTIES OR CONDITIONS OF ANY KIND, either express or implied. See the SIL Open Font License for the specific language, permissions and limitations governing your use of this Font Software.
http://scripts.sil.org/OFL
  -->
<path d="M814 50C803 103 780 177 758 231L655 231C676 174 695 115 711 56L644 40C612 171 562 302 501 397L501 87 90 87 90 485C90 620 86 797 31 923 45 930 72 950 83 961 144 829 152 628 152 485L152 152 437 152 437 865C437 879 433 884 419 884 405 884 360 885 313 883 322 902 334 935 337 953 399 954 441 952 468 939 493 927 501 905 501 866L501 439C514 449 529 462 536 471 551 449 565 426 579 400L579 961 646 961 646 908 964 908 964 839 821 839 821 700 945 700 945 635 821 635 821 498 945 498 945 434 821 434 821 299 953 299 953 231 825 231C845 182 867 121 885 67ZM264 173L264 253 188 253 188 307 264 307 264 380 185 380 185 435 264 435 264 516 319 516 319 435 400 435 400 380 319 380 319 307 397 307 397 253 319 253 319 173ZM190 533L190 841 241 841 241 783 389 783 389 533ZM241 587L339 587 339 728 241 728ZM646 498L757 498 757 635 646 635ZM646 434L646 299 757 299 757 434ZM646 700L757 700 757 839 646 839Z"/>
</svg>