<svg xmlns="http://www.w3.org/2000/svg"
    viewBox="0 0 1000 1000">
  <!--
© 2014-2021 Adobe (http://www.adobe.com/).
Noto is a trademark of Google Inc.
This Font Software is licensed under the SIL Open Font License, Version 1.1. This Font Software is distributed on an "AS IS" BASIS, WITHOUT WARRANTIES OR CONDITIONS OF ANY KIND, either express or implied. See the SIL Open Font License for the specific language, permissions and limitations governing your use of this Font Software.
http://scripts.sil.org/OFL
  -->
<path d="M935 258L724 258 756 189 818 189 818 133 948 133 948 74 818 74 818 10 752 10 752 74 610 74 610 10 544 10 544 74 412 74 412 133 544 133 544 186 504 175C477 249 432 322 382 373L382 69 104 69 104 448 104 486 31 494 39 565 102 556C97 673 82 801 32 899 46 905 70 923 80 934 136 826 154 678 159 548L323 526 323 837C323 850 320 853 310 853 299 854 264 854 227 852 236 871 244 905 246 924 297 924 332 922 353 910 376 897 382 875 382 838L382 518 430 511 428 445 382 451 382 381C395 392 415 412 423 423 440 405 458 384 474 360L474 601 952 601 952 550 726 550 726 497 905 497 905 452 726 452 726 402 905 402 905 358 726 358 726 308 935 308ZM161 139L217 139 217 472 161 479 161 448ZM323 139L323 458 264 466 264 139ZM818 697C787 734 745 764 697 789 648 764 608 733 580 697ZM444 642L444 697 542 697 512 707C542 750 582 788 629 819 559 846 479 864 399 874 411 889 426 916 432 932 525 917 616 894 696 857 767 891 848 915 935 929 943 912 962 885 977 871 901 861 828 844 764 820 830 779 883 727 917 660L875 639 862 642ZM686 176C681 199 670 231 660 258L535 258C546 236 556 213 564 191L556 189 610 189 610 133 752 133 752 188ZM664 402L664 452 539 452 539 402ZM664 358L539 358 539 308 664 308ZM664 497L664 550 539 550 539 497Z"/>
</svg>