<svg xmlns="http://www.w3.org/2000/svg" name="gid13897" data-unicode="難"
    viewBox="0 0 1000 1000">
  <!--
© 2014-2021 Adobe (http://www.adobe.com/).
Noto is a trademark of Google Inc.
This Font Software is licensed under the SIL Open Font License, Version 1.1. This Font Software is distributed on an "AS IS" BASIS, WITHOUT WARRANTIES OR CONDITIONS OF ANY KIND, either express or implied. See the SIL Open Font License for the specific language, permissions and limitations governing your use of this Font Software.
http://scripts.sil.org/OFL
  -->
<path d="M798 50C783 103 758 177 734 231L624 231C646 175 665 115 681 56L612 40C580 166 529 293 468 382L468 283 74 283 74 493 234 493 234 555 76 555 76 613 234 613 234 629C234 645 233 663 231 681L42 681 42 742 216 742C194 805 143 868 33 912 49 925 70 948 80 963 177 921 232 867 264 810 320 852 400 916 435 947L480 885C449 863 339 787 288 754L291 742 495 742 495 681 302 681C303 664 304 647 304 630L304 613 471 613 471 555 304 555 304 493 468 493 468 414C483 426 501 441 510 450 522 434 533 416 544 397L544 961 613 961 613 908 963 908 963 839 806 839 806 700 945 700 945 635 806 635 806 498 945 498 945 434 806 434 806 299 951 299 951 231 804 231C827 182 850 122 870 68ZM336 40L336 133 210 133 210 40 144 40 144 133 47 133 47 194 144 194 144 261 210 261 210 194 336 194 336 261 402 261 402 194 497 194 497 133 402 133 402 40ZM134 336L237 336 237 439 134 439ZM300 336L405 336 405 439 300 439ZM613 498L738 498 738 635 613 635ZM613 434L613 299 738 299 738 434ZM613 700L738 700 738 839 613 839Z"/>
</svg>