<svg xmlns="http://www.w3.org/2000/svg" name="gid13908" data-unicode="雹"
    viewBox="0 0 1000 1000">
  <!--
© 2014-2021 Adobe (http://www.adobe.com/).
Noto is a trademark of Google Inc.
This Font Software is licensed under the SIL Open Font License, Version 1.1. This Font Software is distributed on an "AS IS" BASIS, WITHOUT WARRANTIES OR CONDITIONS OF ANY KIND, either express or implied. See the SIL Open Font License for the specific language, permissions and limitations governing your use of this Font Software.
http://scripts.sil.org/OFL
  -->
<path d="M193 294L193 341 410 341 410 294ZM584 391L584 438 831 438 831 391ZM584 294L584 341 806 341 806 294ZM76 189L76 365 144 365 144 241 460 241 460 461 534 461 534 241 855 241 855 365 925 365 925 189 534 189 534 133 865 133 865 76 134 76 134 133 460 133 460 189ZM171 391L171 438 259 438C219 510 144 595 41 659 58 668 83 691 95 707 135 680 170 651 202 620L202 838C202 926 247 944 403 944 437 944 748 944 785 944 913 944 941 916 954 795 934 792 906 783 889 772 880 868 866 885 783 885 714 885 449 885 399 885 292 885 271 876 271 837L271 790 627 790 627 616 207 616C225 598 242 579 258 560L789 560C781 665 771 707 759 720 753 727 746 729 733 728 720 728 692 728 659 725 670 744 677 773 678 795 713 796 748 796 766 794 789 792 805 786 820 769 841 746 852 685 863 534 864 523 865 503 865 503L302 503C315 486 326 468 336 451L265 438 411 438 411 391ZM271 666L557 666 557 740 271 740Z"/>
</svg>