<svg xmlns="http://www.w3.org/2000/svg"
    viewBox="0 0 1000 1000">
  <!--
© 2014-2021 Adobe (http://www.adobe.com/).
Noto is a trademark of Google Inc.
This Font Software is licensed under the SIL Open Font License, Version 1.1. This Font Software is distributed on an "AS IS" BASIS, WITHOUT WARRANTIES OR CONDITIONS OF ANY KIND, either express or implied. See the SIL Open Font License for the specific language, permissions and limitations governing your use of this Font Software.
http://scripts.sil.org/OFL
  -->
<path d="M188 213L188 253 411 253 411 213ZM166 288L166 329 411 329 411 288ZM582 288L582 329 834 329 834 288ZM582 213L582 253 811 253 811 213ZM250 408L750 408 750 451 250 451ZM179 366L179 493 824 493 824 366ZM223 652L781 652 781 693 223 693ZM223 733L781 733 781 776 223 776ZM223 571L781 571 781 611 223 611ZM357 820C286 849 159 870 53 883 67 894 90 919 100 931 202 914 337 882 415 843ZM76 131L76 281 139 281 139 178 460 178 460 348 533 348 533 178 858 178 858 281 924 281 924 131 533 131 533 92 864 92 864 45 138 45 138 92 460 92 460 131ZM581 852C697 877 807 906 870 929L940 894C868 870 745 841 635 818ZM152 529L152 818 855 818 855 529Z"/>
</svg>