<svg xmlns="http://www.w3.org/2000/svg" name="gid13943" data-unicode="露"
    viewBox="0 0 1000 1000">
  <!--
© 2014-2021 Adobe (http://www.adobe.com/).
Noto is a trademark of Google Inc.
This Font Software is licensed under the SIL Open Font License, Version 1.1. This Font Software is distributed on an "AS IS" BASIS, WITHOUT WARRANTIES OR CONDITIONS OF ANY KIND, either express or implied. See the SIL Open Font License for the specific language, permissions and limitations governing your use of this Font Software.
http://scripts.sil.org/OFL
  -->
<path d="M200 281L200 325 404 325 404 281ZM182 369L182 413 403 413 403 369ZM591 369L591 413 815 413 815 369ZM591 281L591 325 798 325 798 281ZM180 511L371 511 371 600 180 600ZM77 188L77 357 146 357 146 240 460 240 460 430 534 430 534 240 852 240 852 357 922 357 922 188 534 188 534 136 865 136 865 80 136 80 136 136 460 136 460 188ZM111 685L111 887 54 892 61 953C169 942 321 926 468 910L467 852 311 868 311 772 442 772 442 724C453 736 466 756 471 768 492 763 513 756 534 749L534 960 599 960 599 935 801 935 801 958 868 958 868 746C889 752 910 757 931 761 940 745 958 720 972 707 894 694 819 671 755 639 811 598 859 548 890 490L849 467 838 471 656 471C666 457 675 444 684 430L622 420C589 476 527 538 441 585 455 593 474 610 484 624 515 605 543 585 568 564 591 591 619 617 649 639 583 675 508 702 437 718L311 718 311 652 436 652 436 459 118 459 118 652 247 652 247 874 169 882 169 685ZM599 884L599 787 801 787 801 884ZM844 738L566 738C613 721 659 699 701 674 745 700 793 722 844 738ZM607 528L613 521 799 521C773 553 739 583 701 609 663 585 631 558 607 528Z"/>
</svg>