<svg xmlns="http://www.w3.org/2000/svg"
    viewBox="0 0 1000 1000">
  <!--
© 2014-2021 Adobe (http://www.adobe.com/).
Noto is a trademark of Google Inc.
This Font Software is licensed under the SIL Open Font License, Version 1.1. This Font Software is distributed on an "AS IS" BASIS, WITHOUT WARRANTIES OR CONDITIONS OF ANY KIND, either express or implied. See the SIL Open Font License for the specific language, permissions and limitations governing your use of this Font Software.
http://scripts.sil.org/OFL
  -->
<path d="M192 231L192 273 409 273 409 231ZM172 311L172 353 410 353 410 311ZM584 311L584 353 829 353 829 311ZM584 231L584 273 806 273 806 231ZM556 436L761 436C732 459 694 479 653 497 611 482 575 464 547 443ZM473 641C450 684 410 724 365 755L366 738C366 695 347 648 286 593 313 537 345 468 369 411L322 387 310 390 98 390 98 930 166 930 166 448 281 448C264 495 242 552 218 602 279 654 297 697 298 732 299 754 293 770 281 778 273 781 264 784 254 784 239 784 220 784 197 782 207 799 215 825 216 843 239 844 263 844 283 842 298 840 315 835 328 827 349 813 362 789 365 757 380 764 402 779 412 788 433 772 455 752 475 730L610 730 610 773 453 773 453 814 610 814 610 864 358 864 358 911 937 911 937 864 680 864 680 814 863 814 863 773 680 773 680 730 889 730 889 688 680 688 680 641 823 641 823 600 495 600C549 587 602 570 651 550 735 582 832 604 926 616 934 600 950 576 964 563 880 555 794 540 719 519 776 490 824 454 857 412L821 389 810 392 606 392 627 368 566 357C528 404 454 451 355 485 369 493 387 511 396 525 436 509 472 491 503 472 527 491 555 507 586 522 507 549 418 567 337 577 347 589 360 612 366 626 404 620 443 612 482 603L482 641 610 641 610 688 508 688C516 677 523 666 529 655ZM76 143L76 310 139 310 139 189 460 189 460 366 533 366 533 189 858 189 858 310 924 310 924 143 533 143 533 98 864 98 864 48 138 48 138 98 460 98 460 143Z"/>
</svg>