<svg xmlns="http://www.w3.org/2000/svg" name="gid13946" data-unicode="霸"
    viewBox="0 0 1000 1000">
  <!--
© 2014-2021 Adobe (http://www.adobe.com/).
Noto is a trademark of Google Inc.
This Font Software is licensed under the SIL Open Font License, Version 1.1. This Font Software is distributed on an "AS IS" BASIS, WITHOUT WARRANTIES OR CONDITIONS OF ANY KIND, either express or implied. See the SIL Open Font License for the specific language, permissions and limitations governing your use of this Font Software.
http://scripts.sil.org/OFL
  -->
<path d="M193 279L193 321 410 321 410 279ZM171 364L171 406 411 406 411 364ZM584 364L584 406 831 406 831 364ZM584 279L584 321 806 321 806 279ZM76 184L76 345 144 345 144 233 460 233 460 432 534 432 534 233 855 233 855 345 925 345 925 184 534 184 534 134 865 134 865 80 134 80 134 134 460 134 460 184ZM151 428L151 469 58 469 58 519 151 519 151 605 255 605 255 642 94 642 94 784 255 784 255 824 52 824 52 874 255 874 255 960 320 960 320 874 514 874 514 824 320 824 320 784 488 784 488 642 320 642 320 605 434 605 434 519 527 519 527 469 434 469 434 428 371 428 371 469 211 469 211 428ZM371 519L371 562 211 562 211 519ZM570 456L570 642C570 731 561 844 486 927 503 934 533 951 545 961 589 910 613 846 625 781L835 781 835 879C835 890 831 894 817 895 805 896 762 896 715 895 723 912 733 938 735 955 802 956 845 955 871 945 896 934 904 915 904 879L904 456ZM636 516L835 516 835 593 636 593ZM636 647L835 647 835 728 632 728C635 700 636 672 636 647ZM152 684L255 684 255 741 152 741ZM320 684L428 684 428 741 320 741Z"/>
</svg>