<svg xmlns="http://www.w3.org/2000/svg"
    viewBox="0 0 1000 1000">
  <!--
© 2014-2021 Adobe (http://www.adobe.com/).
Noto is a trademark of Google Inc.
This Font Software is licensed under the SIL Open Font License, Version 1.1. This Font Software is distributed on an "AS IS" BASIS, WITHOUT WARRANTIES OR CONDITIONS OF ANY KIND, either express or implied. See the SIL Open Font License for the specific language, permissions and limitations governing your use of this Font Software.
http://scripts.sil.org/OFL
  -->
<path d="M193 249L193 291 410 291 410 249ZM171 334L171 376 411 376 411 334ZM584 334L584 376 831 376 831 334ZM584 249L584 291 806 291 806 249ZM76 154L76 315 144 315 144 203 460 203 460 402 534 402 534 203 855 203 855 315 925 315 925 154 534 154 534 104 865 104 865 50 134 50 134 104 460 104 460 154ZM151 398L151 439 58 439 58 489 151 489 151 575 255 575 255 612 94 612 94 754 255 754 255 794 52 794 52 844 255 844 255 930 320 930 320 844 514 844 514 794 320 794 320 754 488 754 488 612 320 612 320 575 434 575 434 489 527 489 527 439 434 439 434 398 371 398 371 439 211 439 211 398ZM371 489L371 532 211 532 211 489ZM570 426L570 612C570 701 561 814 486 897 503 904 533 921 545 931 589 880 613 816 625 751L835 751 835 849C835 860 831 864 817 865 805 866 762 866 715 865 723 882 733 908 735 925 802 926 845 925 871 915 896 904 904 885 904 849L904 426ZM636 486L835 486 835 563 636 563ZM636 617L835 617 835 698 632 698C635 670 636 642 636 617ZM152 654L255 654 255 711 152 711ZM320 654L428 654 428 711 320 711Z"/>
</svg>