<svg xmlns="http://www.w3.org/2000/svg"
    viewBox="0 0 1000 1000">
  <!--
© 2014-2021 Adobe (http://www.adobe.com/).
Noto is a trademark of Google Inc.
This Font Software is licensed under the SIL Open Font License, Version 1.1. This Font Software is distributed on an "AS IS" BASIS, WITHOUT WARRANTIES OR CONDITIONS OF ANY KIND, either express or implied. See the SIL Open Font License for the specific language, permissions and limitations governing your use of this Font Software.
http://scripts.sil.org/OFL
  -->
<path d="M193 226L193 268 410 268 410 226ZM171 305L171 347 410 347 410 305ZM582 305L582 347 829 347 829 305ZM582 226L582 268 806 268 806 226ZM106 699C122 738 137 788 142 821L193 805C188 772 172 723 154 686ZM370 677C361 710 341 760 326 792L370 809C388 779 406 736 426 696ZM498 776C487 822 465 869 429 895L474 925C515 894 534 843 546 792ZM576 786C585 825 591 875 591 908L639 899C639 868 632 818 623 779ZM661 784C676 816 692 858 697 886L740 872C734 845 717 804 701 773ZM76 140L76 309 139 309 139 186 460 186 460 365 533 365 533 186 858 186 858 309 924 309 924 140 533 140 533 96 864 96 864 47 138 47 138 96 460 96 460 140ZM230 363C193 418 125 481 34 529 48 537 68 557 77 570 99 558 119 545 138 532L138 552 235 552 235 612 73 612 73 661 235 661 235 830 57 854 69 912C173 896 313 873 450 850L447 800 297 822 297 661 445 661 445 612 297 612 297 552 402 552 402 523 417 539 461 493C426 455 356 399 298 363ZM175 504C214 473 246 441 271 413 308 438 350 473 382 504ZM645 353C640 371 630 397 621 420L504 420 504 758 871 758C866 838 861 870 852 882 846 888 838 889 827 889 815 889 786 888 754 885 761 898 766 917 767 929 802 931 837 932 855 931 877 930 892 925 904 913 921 894 928 850 935 739 936 731 936 716 936 716L572 716 572 682 949 682 949 640 572 640 572 608 892 608 892 420 692 420 720 369ZM572 460L824 460 824 493 572 493ZM572 567L572 533 824 533 824 567ZM743 775C762 797 784 829 794 849L831 830C821 810 799 780 778 758Z"/>
</svg>