<svg xmlns="http://www.w3.org/2000/svg" name="gid13962" data-unicode="靏"
    viewBox="0 0 1000 1000">
  <!--
© 2014-2021 Adobe (http://www.adobe.com/).
Noto is a trademark of Google Inc.
This Font Software is licensed under the SIL Open Font License, Version 1.1. This Font Software is distributed on an "AS IS" BASIS, WITHOUT WARRANTIES OR CONDITIONS OF ANY KIND, either express or implied. See the SIL Open Font License for the specific language, permissions and limitations governing your use of this Font Software.
http://scripts.sil.org/OFL
  -->
<path d="M193 260L193 303 410 303 410 260ZM582 341L582 382 829 382 829 341ZM582 260L582 303 806 303 806 260ZM583 816C591 855 597 905 597 938L645 929C645 898 638 848 629 809ZM667 814C682 846 698 888 703 916L746 902C740 875 724 834 707 803ZM271 628L271 677 185 677 185 630 186 628ZM504 806C496 842 480 878 457 904L457 862 329 862 329 810 436 810 436 769 329 769 329 718 436 718 436 677 329 677 329 628 451 628 451 582 335 582 361 528 305 514C300 533 290 559 281 582L214 582C230 554 245 525 258 495L427 495 427 567 483 567 483 447 278 447 297 393 251 382 410 382 410 341 171 341 171 382 238 382C231 404 223 426 214 447L69 447 69 567 124 567 124 495 193 495C151 583 94 661 29 717 43 728 65 753 73 765 91 748 108 730 125 710L125 952 185 952 185 913 449 913 435 925 480 955C521 924 541 873 552 822ZM271 718L271 769 185 769 185 718ZM271 810L271 862 185 862 185 810ZM76 173L76 342 139 342 139 219 460 219 460 396 533 396 533 219 858 219 858 342 924 342 924 173 533 173 533 127 864 127 864 78 138 78 138 127 460 127 460 173ZM651 383C646 401 637 427 628 450L510 450 510 788 878 788C873 868 867 900 857 912 852 918 844 919 833 919 822 919 792 918 760 915 767 928 772 947 773 959 809 961 843 962 861 961 882 960 898 955 910 943 927 924 934 880 941 769 942 761 942 746 942 746L578 746 578 712 955 712 955 670 578 670 578 638 899 638 899 450 698 450 726 399ZM578 490L831 490 831 523 578 523ZM578 597L578 563 831 563 831 597ZM749 805C768 827 790 859 800 879L837 860C826 840 805 810 783 788Z"/>
</svg>