<svg xmlns="http://www.w3.org/2000/svg" name="gid13966" data-unicode="靖"
    viewBox="0 0 1000 1000">
  <!--
© 2014-2021 Adobe (http://www.adobe.com/).
Noto is a trademark of Google Inc.
This Font Software is licensed under the SIL Open Font License, Version 1.1. This Font Software is distributed on an "AS IS" BASIS, WITHOUT WARRANTIES OR CONDITIONS OF ANY KIND, either express or implied. See the SIL Open Font License for the specific language, permissions and limitations governing your use of this Font Software.
http://scripts.sil.org/OFL
  -->
<path d="M80 358C103 460 118 593 116 679L179 669C179 582 163 451 138 347ZM630 44L630 115 409 115 409 172 630 172 630 237 435 237 435 292 630 292 630 362 385 362 385 419 962 419 962 362 705 362 705 292 925 292 925 237 705 237 705 172 939 172 939 115 705 115 705 44ZM529 660L823 660 823 733 529 733ZM529 606L529 535 823 535 823 606ZM459 478L459 961 529 961 529 787 823 787 823 883C823 895 818 899 805 899 792 900 747 900 700 898 708 916 718 941 721 958 791 959 834 959 861 949 887 937 895 920 895 883L895 478ZM181 48L181 237 49 237 49 305 381 305 381 237 249 237 249 48ZM282 336C271 449 246 612 222 709 152 725 88 739 37 749L55 823C154 799 285 767 410 736L401 668 286 695C310 598 334 459 353 351Z"/>
</svg>