<svg xmlns="http://www.w3.org/2000/svg" name="gid13974" data-unicode="靠"
    viewBox="0 0 1000 1000">
  <!--
© 2014-2021 Adobe (http://www.adobe.com/).
Noto is a trademark of Google Inc.
This Font Software is licensed under the SIL Open Font License, Version 1.1. This Font Software is distributed on an "AS IS" BASIS, WITHOUT WARRANTIES OR CONDITIONS OF ANY KIND, either express or implied. See the SIL Open Font License for the specific language, permissions and limitations governing your use of this Font Software.
http://scripts.sil.org/OFL
  -->
<path d="M244 378L770 378 770 453 244 453ZM461 40L461 105 276 105 300 56 230 46C210 95 172 152 118 197 130 202 146 210 159 220L67 220 67 275 461 275 461 305 535 305 535 275 934 275 934 220 535 220 535 158 860 158 860 105 535 105 535 40ZM193 220C212 200 229 180 244 158L461 158 461 220ZM46 786L51 840 313 821C281 858 221 891 110 911 124 924 144 952 152 967 376 912 421 810 421 706L421 505 579 505 579 959 653 959 653 829 958 829 958 776 653 776 653 715 908 715 908 665 653 665 653 606 929 606 929 554 653 554 653 505 846 505 846 326 171 326 171 505 348 505 348 555 74 555 74 606 348 606 348 665 97 665 97 715 348 715C347 734 345 753 340 772 229 777 123 783 46 786Z"/>
</svg>