<svg xmlns="http://www.w3.org/2000/svg"
    viewBox="0 0 1000 1000">
  <!--
© 2014-2021 Adobe (http://www.adobe.com/).
Noto is a trademark of Google Inc.
This Font Software is licensed under the SIL Open Font License, Version 1.1. This Font Software is distributed on an "AS IS" BASIS, WITHOUT WARRANTIES OR CONDITIONS OF ANY KIND, either express or implied. See the SIL Open Font License for the specific language, permissions and limitations governing your use of this Font Software.
http://scripts.sil.org/OFL
  -->
<path d="M570 228L687 228 687 401 570 401ZM74 370L74 618 225 618 225 700 40 700 40 766 225 766 225 931 294 931 294 766 464 766C450 809 432 851 408 888 425 895 453 917 465 929 551 798 568 608 570 465L572 465C603 570 648 665 705 745 655 800 597 843 535 871 551 885 570 913 579 930 641 899 699 856 750 801 800 856 857 900 922 932 934 913 955 886 971 872 904 844 845 800 795 746 858 659 906 548 932 413L887 398 875 401 757 401 757 228 883 228C876 272 866 317 857 349L917 364C933 316 951 236 964 170L915 158 903 160 757 160 757 18 687 18 687 160 502 160 502 442C502 519 499 611 481 700L294 700 294 618 455 618 455 370 295 370 295 304 398 304 398 168 477 168 477 105 398 105 398 20 330 20 330 105 191 105 191 20 124 20 124 105 44 105 44 168 124 168 124 304 225 304 225 370ZM850 465C828 551 793 626 749 689 701 624 664 547 638 465ZM330 168L330 246 191 246 191 168ZM138 427L231 427 231 561 138 561ZM289 427L391 427 391 561 289 561Z"/>
</svg>