<svg xmlns="http://www.w3.org/2000/svg" name="gid14020" data-unicode="鞣"
    viewBox="0 0 1000 1000">
  <!--
© 2014-2021 Adobe (http://www.adobe.com/).
Noto is a trademark of Google Inc.
This Font Software is licensed under the SIL Open Font License, Version 1.1. This Font Software is distributed on an "AS IS" BASIS, WITHOUT WARRANTIES OR CONDITIONS OF ANY KIND, either express or implied. See the SIL Open Font License for the specific language, permissions and limitations governing your use of this Font Software.
http://scripts.sil.org/OFL
  -->
<path d="M452 607L452 670 623 670C571 752 489 831 411 870 425 883 445 907 456 922 529 878 604 802 658 719L658 959 728 959 728 720C781 797 852 872 915 914 927 897 949 872 965 860 894 820 814 745 761 670L950 670 950 607 728 607 728 541 658 541 658 607ZM565 194C604 211 650 234 690 258L466 258 466 317 630 317C578 378 502 436 435 466 449 478 469 501 479 516 552 474 639 395 693 317L693 459C693 469 689 472 678 472 666 473 628 473 584 471 592 488 601 509 604 527 664 527 703 527 728 518 753 508 760 494 760 460L760 317 867 317C850 357 830 397 813 425L869 443C896 400 930 330 958 270L911 255 899 258 801 258 751 227C808 195 867 151 910 105L866 73 850 76 496 76 496 134 787 134C760 157 728 180 698 198 668 182 636 168 608 156ZM78 400L78 640 220 640 220 721 48 721 48 786 220 786 220 961 288 961 288 786 448 786 448 721 288 721 288 640 426 640 426 400 291 400 291 334 386 334 386 195 459 195 459 132 386 132 386 41 317 41 317 132 187 132 187 41 120 41 120 132 45 132 45 195 120 195 120 334 220 334 220 400ZM317 195L317 274 187 274 187 195ZM139 459L226 459 226 581 139 581ZM282 459L364 459 364 581 282 581Z"/>
</svg>