<svg xmlns="http://www.w3.org/2000/svg" name="gid14022" data-unicode="鞨"
    viewBox="0 0 1000 1000">
  <!--
© 2014-2021 Adobe (http://www.adobe.com/).
Noto is a trademark of Google Inc.
This Font Software is licensed under the SIL Open Font License, Version 1.1. This Font Software is distributed on an "AS IS" BASIS, WITHOUT WARRANTIES OR CONDITIONS OF ANY KIND, either express or implied. See the SIL Open Font License for the specific language, permissions and limitations governing your use of this Font Software.
http://scripts.sil.org/OFL
  -->
<path d="M562 273L834 273 834 356 562 356ZM562 135L834 135 834 217 562 217ZM493 76L493 415 558 415C529 480 481 555 416 615L416 396 275 396 275 330 371 330 371 197 443 197 443 134 371 134 371 41 303 41 303 134 180 134 180 41 115 41 115 134 46 134 46 197 115 197 115 330 207 330 207 396 70 396 70 641 207 641 207 713 39 713 39 777 207 777 207 961 275 961 275 777 451 777 451 713 275 713 275 641 404 641C419 653 436 672 444 684 460 670 475 656 489 641L489 901 550 901 550 855 825 855 825 793 550 793 550 593 530 593 563 548 875 548C867 786 858 871 844 890 837 901 829 904 816 903 803 903 774 903 741 899 750 916 757 942 758 960 793 962 828 962 849 959 873 956 889 950 904 930 928 899 936 805 945 520 945 510 945 488 945 488L600 488C613 464 626 439 637 415L905 415 905 76ZM303 197L303 272 180 272 180 197ZM131 453L212 453 212 584 131 584ZM270 453L355 453 355 584 270 584ZM679 557C662 636 620 697 555 737 568 746 586 768 594 778 631 754 662 722 687 683 723 714 761 752 782 777L821 738C798 710 751 668 711 636 721 613 729 589 734 563Z"/>
</svg>