<svg xmlns="http://www.w3.org/2000/svg" name="gid14037" data-unicode="鞾"
    viewBox="0 0 1000 1000">
  <!--
© 2014-2021 Adobe (http://www.adobe.com/).
Noto is a trademark of Google Inc.
This Font Software is licensed under the SIL Open Font License, Version 1.1. This Font Software is distributed on an "AS IS" BASIS, WITHOUT WARRANTIES OR CONDITIONS OF ANY KIND, either express or implied. See the SIL Open Font License for the specific language, permissions and limitations governing your use of this Font Software.
http://scripts.sil.org/OFL
  -->
<path d="M663 345L663 442 580 442 580 345ZM730 345L818 345 818 442 730 442ZM435 442L435 505 514 505 514 604 454 604 454 667 663 667 663 751 448 751 448 813 663 813 663 960 730 960 730 813 950 813 950 751 730 751 730 667 948 667 948 604 884 604 884 505 961 505 961 442 884 442 884 345 946 345 946 284 455 284 455 345 514 345 514 442ZM663 604L580 604 580 505 663 505ZM730 604L730 505 818 505 818 604ZM759 40L759 125 635 125 635 40 568 40 568 125 462 125 462 186 568 186 568 255 635 255 635 186 759 186 759 255 826 255 826 186 949 186 949 125 826 125 826 40ZM75 402L75 641 207 641 207 714 40 714 40 774 207 774 207 961 272 961 272 774 431 774 431 714 272 714 272 641 409 641 409 402 272 402 272 338 366 338 366 196 435 196 435 137 366 137 366 41 302 41 302 137 181 137 181 41 119 41 119 137 44 137 44 196 119 196 119 338 207 338 207 402ZM302 196L302 280 181 280 181 196ZM136 460L213 460 213 584 136 584ZM266 460L348 460 348 584 266 584Z"/>
</svg>