<svg xmlns="http://www.w3.org/2000/svg"
    viewBox="0 0 1000 1000">
  <!--
© 2014-2021 Adobe (http://www.adobe.com/).
Noto is a trademark of Google Inc.
This Font Software is licensed under the SIL Open Font License, Version 1.1. This Font Software is distributed on an "AS IS" BASIS, WITHOUT WARRANTIES OR CONDITIONS OF ANY KIND, either express or implied. See the SIL Open Font License for the specific language, permissions and limitations governing your use of this Font Software.
http://scripts.sil.org/OFL
  -->
<path d="M785 290L873 290 873 405 785 405ZM648 290L733 290 733 405 648 405ZM515 290L596 290 596 405 515 405ZM70 366L70 611 200 611 200 683 38 683 38 746 200 746 200 931 267 931 267 746 424 746 424 683 267 683 267 611 398 611 398 366 267 366 267 299 356 299 356 166 421 166 421 104 356 104 356 11 291 11 291 104 175 104 175 11 112 11 112 104 43 104 43 166 112 166 112 299 200 299 200 366ZM291 166L291 242 175 242 175 166ZM130 423L206 423 206 554 130 554ZM260 423L338 423 338 554 260 554ZM764 11L764 88 629 88 629 11 562 11 562 88 436 88 436 147 562 147 562 219 629 219 629 147 764 147 764 221 831 221 831 147 953 147 953 88 831 88 831 11ZM857 637C839 674 815 708 786 738 771 700 759 654 750 602L951 602 951 541 893 541 921 514C904 497 872 476 841 460L933 460 933 235 456 235 456 460 669 460C671 488 673 515 676 541L456 541 456 643C456 717 446 816 378 892 394 899 423 918 435 929 489 869 511 787 518 714 554 743 592 778 613 802L656 758C632 729 582 687 540 659L521 676 522 644 522 602 684 602C696 672 714 734 736 785 690 823 636 855 581 879 593 892 612 920 620 933 671 908 720 877 765 840 800 896 843 929 890 929 941 929 963 900 973 798 957 792 936 781 923 768 919 837 912 866 893 866 867 866 838 841 813 796 855 754 891 707 917 654ZM782 486C810 501 842 522 864 541L741 541C738 515 736 488 735 460L811 460Z"/>
</svg>