<svg xmlns="http://www.w3.org/2000/svg" name="gid14059" data-unicode="韛"
    viewBox="0 0 1000 1000">
  <!--
© 2014-2021 Adobe (http://www.adobe.com/).
Noto is a trademark of Google Inc.
This Font Software is licensed under the SIL Open Font License, Version 1.1. This Font Software is distributed on an "AS IS" BASIS, WITHOUT WARRANTIES OR CONDITIONS OF ANY KIND, either express or implied. See the SIL Open Font License for the specific language, permissions and limitations governing your use of this Font Software.
http://scripts.sil.org/OFL
  -->
<path d="M156 428L336 428 336 518 156 518ZM765 42L765 124 639 124 639 42 572 42 572 124 445 124 445 188 572 188 572 271 639 271 639 188 765 188 765 271 834 271 834 188 957 188 957 124 834 124 834 42ZM91 632L91 772 40 772 40 831 264 831 264 960 330 960 330 831 434 831C426 861 415 889 401 915 415 922 442 941 453 952 512 848 521 691 521 577L521 361 957 361 957 300 460 300 460 577C460 650 458 740 437 821L437 772 330 772 330 689 428 689 428 632 330 632 330 571 401 571 401 375 93 375 93 571 264 571 264 632ZM867 488L867 574 775 574 775 488ZM571 430L571 960 632 960 632 779 720 779 720 947 775 947 775 779 867 779 867 886C867 896 865 898 857 898 849 899 825 899 797 898 806 915 816 942 818 958 859 958 886 957 906 947 925 936 930 917 930 887L930 430ZM720 488L720 574 632 574 632 488ZM632 632L720 632 720 720 632 720ZM867 632L867 720 775 720 775 632ZM326 263L215 263 234 181 326 181ZM198 40L182 122 81 122 81 181 169 181 149 263 45 263 45 323 438 323 438 263 390 263 390 122 247 122 263 46ZM264 772L154 772 154 689 264 689Z"/>
</svg>