<svg xmlns="http://www.w3.org/2000/svg"
    viewBox="0 0 1000 1000">
  <!--
© 2014-2021 Adobe (http://www.adobe.com/).
Noto is a trademark of Google Inc.
This Font Software is licensed under the SIL Open Font License, Version 1.1. This Font Software is distributed on an "AS IS" BASIS, WITHOUT WARRANTIES OR CONDITIONS OF ANY KIND, either express or implied. See the SIL Open Font License for the specific language, permissions and limitations governing your use of this Font Software.
http://scripts.sil.org/OFL
  -->
<path d="M166 396L364 396 364 489 166 489ZM646 180C667 235 683 307 684 355L750 339C748 292 732 220 708 165ZM781 142C842 214 892 314 907 383L970 354C954 285 902 187 839 116ZM536 69C525 143 508 215 483 275L483 227 418 227 418 84 245 84 256 16 187 10 176 84 84 84 84 144 165 144 149 227 43 227 43 289 477 289C465 315 451 339 436 359 453 368 484 386 497 397 541 332 574 239 595 137 703 122 825 96 907 61L849 8C790 36 686 61 589 77ZM234 144L349 144 349 227 218 227ZM89 607L89 759 39 759 39 821 267 821 267 931 336 931 336 821 483 821 483 759 336 759 336 667 458 667 458 607 336 607 336 544 433 544 433 340 101 340 101 544 267 544 267 607ZM156 759L156 667 267 667 267 759ZM742 623L742 688 857 688 857 810 576 810 576 688 691 688 691 623 576 623 576 508C629 486 685 458 727 426L667 377C642 402 600 429 557 451L508 435 508 928 576 928 576 875 857 875 857 925 927 925 927 444 734 444 734 508 857 508 857 623Z"/>
</svg>