<svg xmlns="http://www.w3.org/2000/svg" name="gid14062" data-unicode="韞"
    viewBox="0 0 1000 1000">
  <!--
© 2014-2021 Adobe (http://www.adobe.com/).
Noto is a trademark of Google Inc.
This Font Software is licensed under the SIL Open Font License, Version 1.1. This Font Software is distributed on an "AS IS" BASIS, WITHOUT WARRANTIES OR CONDITIONS OF ANY KIND, either express or implied. See the SIL Open Font License for the specific language, permissions and limitations governing your use of this Font Software.
http://scripts.sil.org/OFL
  -->
<path d="M576 143L836 143 836 415 576 415ZM514 86L514 471 901 471 901 86ZM159 418L380 418 380 511 159 511ZM692 160C679 251 645 321 580 367 592 376 610 394 617 403 653 376 681 343 702 303 737 333 773 368 793 393L830 357C807 329 761 289 721 258 732 229 739 198 744 164ZM501 535L501 862 437 862 437 927 968 927 968 862 914 862 914 535ZM557 862L557 597 623 597 623 862ZM672 862L672 597 739 597 739 862ZM787 862L787 597 855 597 855 862ZM367 259L229 259 247 172 367 172ZM203 41L191 115 89 115 89 172 181 172 163 259 39 259 39 318 496 318 496 259 432 259 432 115 257 115 269 47ZM94 621L94 779 39 779 39 840 279 840 279 960 347 960 347 840 479 840 479 779 347 779 347 678 461 678 461 621 347 621 347 563 446 563 446 365 96 365 96 563 279 563 279 621ZM279 779L157 779 157 678 279 678Z"/>
</svg>