<svg xmlns="http://www.w3.org/2000/svg"
    viewBox="0 0 1000 1000">
  <!--
© 2014-2021 Adobe (http://www.adobe.com/).
Noto is a trademark of Google Inc.
This Font Software is licensed under the SIL Open Font License, Version 1.1. This Font Software is distributed on an "AS IS" BASIS, WITHOUT WARRANTIES OR CONDITIONS OF ANY KIND, either express or implied. See the SIL Open Font License for the specific language, permissions and limitations governing your use of this Font Software.
http://scripts.sil.org/OFL
  -->
<path d="M519 429L849 429 849 526 519 526ZM519 582L849 582 849 681 519 681ZM519 277L849 277 849 373 519 373ZM553 756C503 799 401 848 314 876 329 890 351 914 362 929 450 900 554 848 618 798ZM719 801C788 837 876 894 919 931L978 885C932 847 843 794 776 760ZM328 202C287 242 224 292 166 331L166 40 94 40 94 630C94 721 115 746 191 746 206 746 287 746 304 746 375 746 394 699 401 549 380 544 351 532 334 518 331 645 326 674 298 674 280 674 214 674 201 674 171 674 166 667 166 630L166 405C233 365 319 307 384 254ZM449 219L449 739 923 739 923 219 687 219 719 122 953 122 953 57 397 57 397 122 634 122C628 153 620 189 611 219Z"/>
</svg>