<svg xmlns="http://www.w3.org/2000/svg" name="gid14136" data-unicode="顎"
    viewBox="0 0 1000 1000">
  <!--
© 2014-2021 Adobe (http://www.adobe.com/).
Noto is a trademark of Google Inc.
This Font Software is licensed under the SIL Open Font License, Version 1.1. This Font Software is distributed on an "AS IS" BASIS, WITHOUT WARRANTIES OR CONDITIONS OF ANY KIND, either express or implied. See the SIL Open Font License for the specific language, permissions and limitations governing your use of this Font Software.
http://scripts.sil.org/OFL
  -->
<path d="M77 384L77 446 456 446 456 384ZM112 145L188 145 188 268 112 268ZM61 87L61 326 240 326 240 87ZM332 145L407 145 407 268 332 268ZM280 87L280 326 460 326 460 87ZM583 459L854 459 854 555 583 555ZM583 611L854 611 854 709 583 709ZM583 306L854 306 854 402 583 402ZM606 788C566 832 484 883 411 912 428 924 449 947 461 962 535 931 620 878 671 826ZM753 830C811 868 886 925 921 961L979 920C940 882 866 829 807 792ZM40 518L40 581 142 581C129 637 113 698 100 742L168 752 178 716 358 716C348 818 336 862 319 877 311 884 302 885 285 885 266 885 219 885 171 880 182 898 189 925 191 945 240 947 287 947 312 946 340 944 358 939 375 922 401 897 416 836 430 687 432 678 433 657 433 657L193 657 211 581 484 581 484 518ZM515 247L515 768 925 768 925 247 720 247C730 218 741 185 751 153L950 153 950 87 483 87 483 153 670 153C665 183 657 217 649 247Z"/>
</svg>