<svg xmlns="http://www.w3.org/2000/svg" name="gid14140" data-unicode="顓"
    viewBox="0 0 1000 1000">
  <!--
© 2014-2021 Adobe (http://www.adobe.com/).
Noto is a trademark of Google Inc.
This Font Software is licensed under the SIL Open Font License, Version 1.1. This Font Software is distributed on an "AS IS" BASIS, WITHOUT WARRANTIES OR CONDITIONS OF ANY KIND, either express or implied. See the SIL Open Font License for the specific language, permissions and limitations governing your use of this Font Software.
http://scripts.sil.org/OFL
  -->
<path d="M624 458L860 458 860 557 624 557ZM624 612L860 612 860 712 624 712ZM624 306L860 306 860 402 624 402ZM644 792C610 834 541 886 480 916 495 928 517 949 528 963 590 932 662 878 707 828ZM777 829C827 868 888 925 917 963L975 924C945 887 882 832 833 794ZM242 52L242 258 135 258 135 85 73 85 73 323 485 323 485 85 420 85 420 258 307 258 307 52ZM74 547L74 943 133 943 133 610 203 610 203 933 250 933 250 610 318 610 318 933 366 933 366 610 437 610 437 865C437 873 435 875 428 875 420 876 401 876 377 875 386 890 397 916 399 933 432 933 456 932 474 921 491 910 495 893 495 866L495 547 289 547 312 461 512 461 512 394 49 394 49 461 241 461C237 489 231 520 225 547ZM559 247L559 770 927 770 927 247 753 247 777 153 957 153 957 88 528 88 528 153 703 153C699 183 693 217 687 247Z"/>
</svg>