<svg xmlns="http://www.w3.org/2000/svg" name="gid14145" data-unicode="願"
    viewBox="0 0 1000 1000">
  <!--
© 2014-2021 Adobe (http://www.adobe.com/).
Noto is a trademark of Google Inc.
This Font Software is licensed under the SIL Open Font License, Version 1.1. This Font Software is distributed on an "AS IS" BASIS, WITHOUT WARRANTIES OR CONDITIONS OF ANY KIND, either express or implied. See the SIL Open Font License for the specific language, permissions and limitations governing your use of this Font Software.
http://scripts.sil.org/OFL
  -->
<path d="M218 664C204 733 183 803 151 852 167 859 194 873 205 882 236 830 262 751 278 676ZM421 680C445 732 470 802 480 844L535 823C524 782 498 714 472 663ZM267 461L440 461 440 560 267 560ZM267 309L440 309 440 407 267 407ZM627 460L861 460 861 558 627 558ZM627 614L861 614 861 713 627 713ZM627 307L861 307 861 404 627 404ZM645 793C609 835 536 885 473 913 488 926 510 948 521 961 585 931 660 879 708 829ZM778 829C828 868 889 924 918 961L976 921C945 885 882 831 833 794ZM207 253L207 616 322 616 322 888C322 897 319 900 309 901 299 902 269 902 234 901 242 917 251 942 254 959 303 959 336 958 357 949 379 938 385 921 385 890L385 616 503 616 503 253 365 253 393 153 507 153 507 87 90 87 90 456C90 594 85 776 27 905 42 911 71 932 83 943 146 808 155 602 155 456L155 153 318 153C314 184 307 222 301 253ZM562 249L562 772 928 772 928 249 752 249 777 152 954 152 954 87 529 87 529 152 702 152C698 183 692 219 685 249Z"/>
</svg>