<svg xmlns="http://www.w3.org/2000/svg" name="gid14146" data-unicode="顙"
    viewBox="0 0 1000 1000">
  <!--
© 2014-2021 Adobe (http://www.adobe.com/).
Noto is a trademark of Google Inc.
This Font Software is licensed under the SIL Open Font License, Version 1.1. This Font Software is distributed on an "AS IS" BASIS, WITHOUT WARRANTIES OR CONDITIONS OF ANY KIND, either express or implied. See the SIL Open Font License for the specific language, permissions and limitations governing your use of this Font Software.
http://scripts.sil.org/OFL
  -->
<path d="M633 452L863 452 863 549 633 549ZM633 606L863 606 863 704 633 704ZM633 300L863 300 863 395 633 395ZM658 794C624 835 555 886 494 916 510 928 532 949 544 962 604 932 676 878 722 829ZM783 831C831 870 888 926 916 963L973 923C944 886 885 833 837 796ZM303 466C326 476 352 488 376 501 353 525 327 544 300 558L311 568 276 568 276 640 56 640 56 699 244 699C193 775 112 845 35 882 50 893 70 916 81 933 150 896 222 831 276 759L276 960 343 960 343 782C395 816 467 864 498 888L535 830C505 811 388 745 343 722L343 699 540 699 540 640 343 640 343 601C374 583 404 560 431 531 461 549 488 566 506 581L546 539C526 524 497 506 466 489 493 451 515 406 530 354L489 338 477 341 313 341 313 394 450 394C439 418 426 441 411 461 387 450 362 439 340 430ZM158 191C186 202 217 214 247 228 200 256 149 279 99 294 111 305 129 326 137 340 195 321 255 293 309 258 352 280 392 302 418 321L461 278C435 260 399 240 360 220 404 184 441 141 467 92L423 70 411 73 143 73 143 127 370 127C350 150 327 172 300 193 265 177 230 163 198 152ZM70 463C93 473 118 485 143 498 114 529 82 554 49 571 62 582 80 603 88 616 126 594 163 565 195 528 220 543 241 557 257 570L292 529C275 516 252 501 227 486 253 448 274 403 288 353L250 339 238 341 74 341 74 394 211 394C201 417 189 438 175 458 151 446 126 435 104 426ZM569 240L569 763 928 763 928 240 757 240 780 153 952 153 952 88 535 88 535 153 703 153C700 181 694 212 689 240Z"/>
</svg>