<svg xmlns="http://www.w3.org/2000/svg"
    viewBox="0 0 1000 1000">
  <!--
© 2014-2021 Adobe (http://www.adobe.com/).
Noto is a trademark of Google Inc.
This Font Software is licensed under the SIL Open Font License, Version 1.1. This Font Software is distributed on an "AS IS" BASIS, WITHOUT WARRANTIES OR CONDITIONS OF ANY KIND, either express or implied. See the SIL Open Font License for the specific language, permissions and limitations governing your use of this Font Software.
http://scripts.sil.org/OFL
  -->
<path d="M39 666L39 729 510 729 510 666ZM163 380L398 380 398 445 163 445ZM163 492L398 492 398 558 163 558ZM163 269L398 269 398 333 163 333ZM177 744C146 790 84 848 28 882 43 895 66 916 77 930 134 894 199 834 241 780ZM603 432L862 432 862 528 603 528ZM603 585L862 585 862 683 603 683ZM603 279L862 279 862 375 603 375ZM761 800C816 839 884 896 918 932L976 891C942 854 872 800 818 763ZM243 10L243 97 59 97 59 157 243 157 243 220 101 220 101 607 464 607 464 220 312 220 312 157 494 157 494 97 312 97 312 10ZM621 759C591 792 536 831 480 860L492 851C467 820 416 776 376 746L324 783C361 813 405 853 430 883L429 884 436 890 439 893C453 906 470 922 480 934 551 903 636 848 686 797ZM536 220L536 742 931 742 931 220 739 220 766 123 953 123 953 58 502 58 502 123 689 123C684 154 677 190 670 220Z"/>
</svg>