<svg xmlns="http://www.w3.org/2000/svg" name="gid14166" data-unicode="颫"
    viewBox="0 0 1000 1000">
  <!--
© 2014-2021 Adobe (http://www.adobe.com/).
Noto is a trademark of Google Inc.
This Font Software is licensed under the SIL Open Font License, Version 1.1. This Font Software is distributed on an "AS IS" BASIS, WITHOUT WARRANTIES OR CONDITIONS OF ANY KIND, either express or implied. See the SIL Open Font License for the specific language, permissions and limitations governing your use of this Font Software.
http://scripts.sil.org/OFL
  -->
<path d="M716 41L716 185 581 185 581 248 716 248 716 343 715 390 563 390 563 453 711 453C702 553 673 650 594 734 541 603 529 391 528 83L94 83 94 434C94 579 89 778 34 921 46 928 72 953 81 967 145 812 154 586 154 434L154 145 466 145C473 735 525 960 844 961 928 960 954 931 965 837 951 831 927 817 912 804 906 879 893 899 844 900 742 900 673 867 625 795 696 728 735 653 757 571 790 671 840 753 911 800 921 783 942 759 958 747 867 696 811 583 784 453L949 453 949 390 779 390 780 344 780 248 929 248 929 185 780 185 780 41ZM380 701C393 728 406 758 417 788L339 799 339 650 438 650 438 370 339 370 339 261C379 251 416 240 447 227L407 175C351 203 252 226 169 242 176 256 184 277 187 291 218 287 251 281 284 274L284 370 189 370 189 650 284 650 284 807 148 825 164 887C241 875 339 859 435 841 442 864 448 884 451 902L503 885C492 830 461 749 429 686ZM236 428L292 428 292 591 236 591ZM332 428L389 428 389 591 332 591Z"/>
</svg>