<svg xmlns="http://www.w3.org/2000/svg"
    viewBox="0 0 1000 1000">
  <!--
© 2014-2021 Adobe (http://www.adobe.com/).
Noto is a trademark of Google Inc.
This Font Software is licensed under the SIL Open Font License, Version 1.1. This Font Software is distributed on an "AS IS" BASIS, WITHOUT WARRANTIES OR CONDITIONS OF ANY KIND, either express or implied. See the SIL Open Font License for the specific language, permissions and limitations governing your use of this Font Software.
http://scripts.sil.org/OFL
  -->
<path d="M77 332C98 434 110 568 109 656L170 646C171 557 157 425 135 323ZM176 23L176 210 53 210 53 278 368 278 368 210 244 210 244 23ZM400 49L400 422C400 501 397 592 379 680L374 642 285 665C306 566 328 428 342 321L272 309C264 421 242 579 221 681 152 699 87 715 37 726L54 800C145 775 261 742 373 709 356 777 329 841 287 896 303 903 332 921 344 932 450 793 465 579 465 422L465 114 809 114C808 536 804 892 891 925 934 944 966 915 977 770 967 761 948 737 938 721 934 794 927 859 921 857 871 842 874 474 878 49ZM510 338L510 633 604 633 604 786 453 804 470 871 743 829C751 856 756 882 760 903L808 884C797 824 768 734 740 665L696 682C706 709 717 739 726 770L662 779 662 633 765 633 765 338 665 338 665 236C710 226 752 213 787 199L739 150C680 178 573 202 481 218 488 233 497 254 500 268 535 263 571 257 608 249L608 338ZM553 397L614 397 614 574 553 574ZM658 397L720 397 720 574 658 574Z"/>
</svg>