<svg xmlns="http://www.w3.org/2000/svg" name="gid14173" data-unicode="颶"
    viewBox="0 0 1000 1000">
  <!--
© 2014-2021 Adobe (http://www.adobe.com/).
Noto is a trademark of Google Inc.
This Font Software is licensed under the SIL Open Font License, Version 1.1. This Font Software is distributed on an "AS IS" BASIS, WITHOUT WARRANTIES OR CONDITIONS OF ANY KIND, either express or implied. See the SIL Open Font License for the specific language, permissions and limitations governing your use of this Font Software.
http://scripts.sil.org/OFL
  -->
<path d="M784 644C824 683 868 740 889 778L943 742C922 705 878 653 835 614ZM646 618C628 657 600 697 569 730 521 601 512 393 511 84L89 84 89 435C89 579 85 777 33 921 46 928 71 952 80 965 138 810 146 585 146 434L146 146 450 146C457 756 503 961 835 961 924 961 948 927 959 825 944 820 921 806 906 794 901 877 887 901 835 902 706 902 627 859 580 758 592 764 603 771 610 776 645 741 685 685 709 635ZM665 262L827 262 827 323 665 323ZM665 213L665 153 827 153 827 213ZM665 371L827 371 827 434 665 434ZM665 482L827 482 827 546 665 546ZM604 96L604 546 541 546 541 604 956 604 956 546 890 546 890 96ZM366 707C379 733 392 762 404 791L327 799 327 651 423 651 423 372 327 372 327 262C366 252 402 241 432 228L392 177C339 204 241 226 161 241 169 256 177 276 180 290 209 286 241 280 273 274L273 372 181 372 181 651 273 651 273 805 139 818 153 882 425 848C434 873 441 898 446 918L498 901C484 845 448 759 414 693ZM227 430L280 430 280 593 227 593ZM320 430L377 430 377 593 320 593Z"/>
</svg>