<svg xmlns="http://www.w3.org/2000/svg" name="gid14178" data-unicode="颼"
    viewBox="0 0 1000 1000">
  <!--
© 2014-2021 Adobe (http://www.adobe.com/).
Noto is a trademark of Google Inc.
This Font Software is licensed under the SIL Open Font License, Version 1.1. This Font Software is distributed on an "AS IS" BASIS, WITHOUT WARRANTIES OR CONDITIONS OF ANY KIND, either express or implied. See the SIL Open Font License for the specific language, permissions and limitations governing your use of this Font Software.
http://scripts.sil.org/OFL
  -->
<path d="M667 64C643 77 604 96 572 110L538 101 538 402 684 402 684 349 593 349 593 272 679 272 679 221 593 221 593 150C627 138 667 123 699 102ZM779 349L779 402 931 402 931 95 782 95 782 148 876 148 876 221 784 221 784 272 876 272 876 349ZM85 83L85 435C85 580 81 780 28 923 40 931 64 954 73 966 133 811 142 586 142 434L142 143 426 143C428 776 471 960 837 961 931 960 956 931 966 845 952 840 929 828 914 816 908 887 895 903 835 904 716 904 637 879 584 815 637 796 688 770 734 738 781 776 836 805 897 825 905 808 924 783 939 771 881 755 829 730 783 697 843 642 891 571 918 482L878 466 866 469 758 469 758 42 704 42 704 469 540 469 540 526 835 526C812 578 778 622 736 658 696 620 664 576 643 527L586 543C611 600 645 652 688 696 646 725 600 747 552 763 491 640 484 427 485 83ZM352 703C364 729 376 759 387 789L309 798 309 651 396 651 396 371 309 371 309 260C347 250 383 239 412 226L374 177C322 203 228 226 150 240 158 255 166 275 169 288 197 284 228 278 259 272L259 371 174 371 174 651 259 651 259 805 134 818 143 879 405 843C412 867 418 890 421 909L472 893C461 838 431 753 399 689ZM217 429L265 429 265 593 217 593ZM304 429L353 429 353 593 304 593Z"/>
</svg>