<svg xmlns="http://www.w3.org/2000/svg"
    viewBox="0 0 1000 1000">
  <!--
© 2014-2021 Adobe (http://www.adobe.com/).
Noto is a trademark of Google Inc.
This Font Software is licensed under the SIL Open Font License, Version 1.1. This Font Software is distributed on an "AS IS" BASIS, WITHOUT WARRANTIES OR CONDITIONS OF ANY KIND, either express or implied. See the SIL Open Font License for the specific language, permissions and limitations governing your use of this Font Software.
http://scripts.sil.org/OFL
  -->
<path d="M658 362C672 386 685 417 690 438L731 419C724 400 710 369 695 347ZM872 362C885 385 900 415 907 437L946 417C940 398 924 367 908 345ZM85 51L85 404C85 549 81 749 28 892 40 899 64 922 73 935 133 780 142 555 142 403L142 111 426 111C428 753 467 930 835 931 932 930 957 898 966 807 952 803 929 790 914 779 909 855 895 874 835 875 688 875 602 839 552 742 587 703 609 654 622 592 644 628 666 667 678 694L716 658C700 622 665 566 633 522L635 499 710 499 710 446 639 446C641 411 642 374 642 335L589 335C589 375 588 412 586 446L508 446 508 499 582 499C575 577 560 638 528 684 487 556 483 355 484 51ZM689 14C688 52 686 86 682 115L533 115 533 171 669 171C648 236 606 275 519 302 531 312 547 333 553 348 652 315 701 266 725 188 753 263 807 318 899 343 908 326 925 304 938 292 853 275 801 232 775 171L930 171 930 115 868 115 900 83C884 62 851 33 821 11L785 43C811 64 840 93 857 115L740 115C744 85 746 51 747 14ZM798 335C798 375 797 412 795 446L733 446 733 499 791 499C781 605 756 681 696 732 709 741 727 760 734 773 788 726 817 661 833 577 850 657 877 729 922 769 931 755 948 735 961 725 908 684 878 593 864 499L951 499 951 446 847 446 851 335ZM352 671C365 698 377 729 388 759L309 769 309 619 396 619 396 340 309 340 309 229C347 219 383 208 412 195L374 145C322 171 228 194 150 209 158 223 166 243 169 256 197 252 228 247 259 240L259 340 174 340 174 619 259 619 259 775 135 789 150 850C224 841 315 828 406 814 413 838 419 859 422 878L471 863C460 807 430 722 398 658ZM217 398L265 398 265 561 217 561ZM304 398L353 398 353 561 304 561Z"/>
</svg>