<svg xmlns="http://www.w3.org/2000/svg"
    viewBox="0 0 1000 1000">
  <!--
© 2014-2021 Adobe (http://www.adobe.com/).
Noto is a trademark of Google Inc.
This Font Software is licensed under the SIL Open Font License, Version 1.1. This Font Software is distributed on an "AS IS" BASIS, WITHOUT WARRANTIES OR CONDITIONS OF ANY KIND, either express or implied. See the SIL Open Font License for the specific language, permissions and limitations governing your use of this Font Software.
http://scripts.sil.org/OFL
  -->
<path d="M881 75C864 110 831 162 806 193L855 215C880 185 911 142 937 100ZM606 77C596 123 570 167 535 189L582 221C623 191 648 137 659 88ZM701 436C692 467 673 515 660 545L691 559C706 530 723 490 739 452ZM915 436C906 468 886 517 871 548L905 563C921 534 941 492 959 454ZM757 442C753 481 739 524 719 548L751 569C776 539 789 489 793 449ZM712 17C707 205 682 287 519 334 532 345 549 368 555 383 648 355 702 314 733 253 794 297 861 349 897 384L943 339C901 300 820 240 754 197 767 148 772 89 774 17ZM556 438C552 476 539 518 519 542 503 420 499 260 499 54L89 54 89 403C89 547 85 745 33 888 47 895 72 920 81 933 140 779 148 554 148 402L148 114 439 114C444 732 491 931 838 931 930 931 956 896 966 791 951 786 928 773 913 761 907 848 893 872 837 873 698 873 616 831 567 726 599 699 620 664 634 620 658 646 682 674 695 694L731 657C713 632 678 596 647 566 656 514 660 453 661 380L610 380C608 523 600 615 548 675 536 638 527 595 520 545L550 564C575 535 588 485 592 445ZM359 677C372 703 385 732 397 761L325 769 325 621 416 621 416 342 325 342 325 230C362 220 397 209 425 197L386 147C335 174 241 196 163 211 170 225 178 245 182 258 211 254 243 249 274 242L274 342 183 342 183 621 274 621 274 774 140 787 155 848 417 814C427 842 434 868 439 890L487 874C474 817 440 730 404 664ZM226 400L280 400 280 563 226 563ZM319 400L372 400 372 563 319 563ZM813 380C809 565 792 664 682 721 694 730 710 749 716 762 776 730 812 686 834 626 870 666 908 711 929 742L968 703C943 668 892 613 849 570 860 517 864 455 866 380Z"/>
</svg>