<svg xmlns="http://www.w3.org/2000/svg" name="gid14187" data-unicode="飋"
    viewBox="0 0 1000 1000">
  <!--
© 2014-2021 Adobe (http://www.adobe.com/).
Noto is a trademark of Google Inc.
This Font Software is licensed under the SIL Open Font License, Version 1.1. This Font Software is distributed on an "AS IS" BASIS, WITHOUT WARRANTIES OR CONDITIONS OF ANY KIND, either express or implied. See the SIL Open Font License for the specific language, permissions and limitations governing your use of this Font Software.
http://scripts.sil.org/OFL
  -->
<path d="M658 411C690 440 727 482 744 511L792 483C776 454 738 413 704 385ZM842 527C870 585 895 660 902 707L959 690C951 644 924 570 895 513ZM840 411C805 487 757 558 700 619L700 476 641 476 641 677C610 704 576 729 542 750 555 760 578 780 586 791 605 778 624 764 642 749 646 792 664 805 715 805 728 805 779 805 791 805 841 805 857 779 862 674 845 670 821 661 810 651 807 738 804 749 784 749 773 749 732 749 723 749 703 749 700 745 700 725L700 698C778 623 846 530 894 427ZM85 81L85 434C85 579 81 779 28 922 40 929 64 952 73 965 133 810 142 585 142 433L142 141 426 141C428 783 467 960 835 961 932 960 957 928 966 837 952 833 929 820 914 809 909 885 895 904 835 905 653 906 564 849 522 691L561 711C593 666 610 592 621 528L570 511C562 567 545 632 518 676 487 548 483 356 484 81ZM506 358L522 413C581 399 651 379 721 361L716 309 648 326 648 255 714 255 714 203 648 203 648 137 722 137 722 84 518 84 518 137 592 137 592 203 526 203 526 255 592 255 592 339ZM743 203L743 255 811 255 811 333 728 333 728 387 960 387 960 333 867 333 867 255 940 255 940 203 867 203 867 137 946 137 946 84 737 84 737 137 811 137 811 203ZM352 701C365 728 377 758 388 789L309 799 309 649 396 649 396 370 309 370 309 259C347 249 383 238 412 225L374 175C322 201 228 224 150 239 158 253 166 273 169 286 197 282 228 277 259 270L259 370 174 370 174 649 259 649 259 805 136 818 151 880 406 843C413 867 419 889 422 908L471 893C460 837 430 752 398 688ZM217 428L265 428 265 591 217 591ZM304 428L353 428 353 591 304 591Z"/>
</svg>