<svg xmlns="http://www.w3.org/2000/svg" name="gid14196" data-unicode="飢"
    viewBox="0 0 1000 1000">
  <!--
© 2014-2021 Adobe (http://www.adobe.com/).
Noto is a trademark of Google Inc.
This Font Software is licensed under the SIL Open Font License, Version 1.1. This Font Software is distributed on an "AS IS" BASIS, WITHOUT WARRANTIES OR CONDITIONS OF ANY KIND, either express or implied. See the SIL Open Font License for the specific language, permissions and limitations governing your use of this Font Software.
http://scripts.sil.org/OFL
  -->
<path d="M534 80L534 480C534 591 527 722 466 832 448 781 405 710 365 657L308 683C325 706 342 733 357 759L187 804 187 628 454 628 454 304 317 304 317 210 253 210 253 304 118 304 118 822 39 841 64 912 388 818C398 838 405 857 410 873L456 850C440 876 420 900 397 923 414 931 445 950 457 963 587 837 605 635 605 479L605 149 771 149 771 838C771 895 775 912 790 927 805 942 826 948 846 948 858 948 880 948 893 948 911 948 930 944 943 933 956 923 964 908 969 882 973 859 977 796 977 744 958 739 935 726 920 712 921 768 919 816 917 836 916 850 912 860 907 866 903 870 896 871 888 871 881 871 872 871 867 871 860 871 853 869 849 864 846 861 843 853 843 845L843 80ZM187 493L385 493 385 572 187 572ZM187 437L187 360 385 360 385 437ZM235 40C196 118 123 214 21 285 36 294 59 316 70 332 166 260 234 174 281 104 341 155 410 230 444 277L496 226C456 173 375 95 308 40Z"/>
</svg>