<svg xmlns="http://www.w3.org/2000/svg"
    viewBox="0 0 1000 1000">
  <!--
© 2014-2021 Adobe (http://www.adobe.com/).
Noto is a trademark of Google Inc.
This Font Software is licensed under the SIL Open Font License, Version 1.1. This Font Software is distributed on an "AS IS" BASIS, WITHOUT WARRANTIES OR CONDITIONS OF ANY KIND, either express or implied. See the SIL Open Font License for the specific language, permissions and limitations governing your use of this Font Software.
http://scripts.sil.org/OFL
  -->
<path d="M534 50L534 450C534 561 527 692 466 802 448 751 405 680 365 627L308 653C325 676 342 703 357 729L187 774 187 598 454 598 454 274 317 274 317 180 253 180 253 274 118 274 118 792 39 811 64 882 388 788C398 808 405 827 410 843L456 820C440 846 420 870 397 893 414 901 445 920 457 933 587 807 605 605 605 449L605 119 771 119 771 808C771 865 775 882 790 897 805 912 826 918 846 918 858 918 880 918 893 918 911 918 930 914 943 903 956 893 964 878 969 852 973 829 977 766 977 714 958 709 935 696 920 682 921 738 919 786 917 806 916 820 912 830 907 836 903 840 896 841 888 841 881 841 872 841 867 841 860 841 853 839 849 834 846 831 843 823 843 815L843 50ZM187 463L385 463 385 542 187 542ZM187 407L187 330 385 330 385 407ZM235 10C196 88 123 184 21 255 36 264 59 286 70 302 166 230 234 144 281 74 341 125 410 200 444 247L496 196C456 143 375 65 308 10Z"/>
</svg>