<svg xmlns="http://www.w3.org/2000/svg" name="gid14206" data-unicode="飯"
    viewBox="0 0 1000 1000">
  <!--
© 2014-2021 Adobe (http://www.adobe.com/).
Noto is a trademark of Google Inc.
This Font Software is licensed under the SIL Open Font License, Version 1.1. This Font Software is distributed on an "AS IS" BASIS, WITHOUT WARRANTIES OR CONDITIONS OF ANY KIND, either express or implied. See the SIL Open Font License for the specific language, permissions and limitations governing your use of this Font Software.
http://scripts.sil.org/OFL
  -->
<path d="M635 421L861 421C837 527 800 617 752 691 700 613 661 521 635 421ZM506 89L506 441C506 560 499 708 440 832 420 781 385 713 351 661L290 685C306 710 321 739 336 768L176 815 176 630 428 630 428 304 307 304 307 210 243 210 243 304 108 304 108 834 39 852 66 922C151 895 258 860 363 825 372 848 380 869 386 886L419 871C410 887 400 902 388 917 404 926 434 947 446 960 559 820 576 606 576 448 607 562 651 665 708 751 656 814 594 863 526 899 541 910 565 940 575 956 640 920 700 872 752 810 801 870 858 920 924 956 935 937 958 910 974 896 906 862 846 813 796 752 864 652 916 524 944 366L899 350 886 352 576 352 576 159 943 159 943 89ZM176 492L360 492 360 574 176 574ZM176 437L176 360 360 360 360 437ZM225 40C187 120 116 219 16 292 32 302 53 324 65 339 161 265 228 174 272 102 328 152 390 224 421 269L471 216C434 165 359 92 297 40Z"/>
</svg>