<svg xmlns="http://www.w3.org/2000/svg" name="gid14214" data-unicode="飽"
    viewBox="0 0 1000 1000">
  <!--
© 2014-2021 Adobe (http://www.adobe.com/).
Noto is a trademark of Google Inc.
This Font Software is licensed under the SIL Open Font License, Version 1.1. This Font Software is distributed on an "AS IS" BASIS, WITHOUT WARRANTIES OR CONDITIONS OF ANY KIND, either express or implied. See the SIL Open Font License for the specific language, permissions and limitations governing your use of this Font Software.
http://scripts.sil.org/OFL
  -->
<path d="M224 40C188 123 119 226 20 303 36 313 59 335 70 350L108 317 108 835 41 851 63 921C149 897 260 867 368 835 384 867 397 897 404 921L468 890C448 828 394 735 340 665L280 692C299 718 319 748 337 778L176 819 176 630 427 630 427 363C444 373 465 390 476 399 488 385 499 370 510 353L510 398 690 398 690 538 502 538 502 847C502 932 533 953 636 953 657 953 820 953 844 953 936 953 959 918 968 783 948 778 918 767 902 754 897 868 889 886 840 886 804 886 667 886 640 886 582 886 572 879 572 846L572 603 756 603 756 334 523 334C541 304 559 271 575 236L861 236C856 507 850 602 835 624 828 634 820 637 806 636 792 637 758 636 720 633 731 651 738 680 740 701 779 702 817 703 840 700 865 696 881 690 897 669 920 635 926 528 931 205 932 195 932 171 932 171L602 171C617 133 630 93 641 53L569 38C541 154 492 267 427 343L427 304 308 304 308 209 245 209 245 304 121 304C189 237 238 164 273 103 329 153 390 224 420 269L469 214C433 164 359 91 297 40ZM176 493L358 493 358 573 176 573ZM176 440L176 361 358 361 358 440Z"/>
</svg>