<svg xmlns="http://www.w3.org/2000/svg" name="gid14218" data-unicode="餅"
    viewBox="0 0 1000 1000">
  <!--
© 2014-2021 Adobe (http://www.adobe.com/).
Noto is a trademark of Google Inc.
This Font Software is licensed under the SIL Open Font License, Version 1.1. This Font Software is distributed on an "AS IS" BASIS, WITHOUT WARRANTIES OR CONDITIONS OF ANY KIND, either express or implied. See the SIL Open Font License for the specific language, permissions and limitations governing your use of this Font Software.
http://scripts.sil.org/OFL
  -->
<path d="M779 323L779 516 631 516 631 323ZM491 66C529 124 565 203 578 254L462 254 462 323 559 323 559 516 442 516 442 585 559 585C555 698 533 825 418 917 434 926 463 949 475 962 598 862 627 712 631 585L779 585 779 960 852 960 852 585 961 585 961 516 852 516 852 323 945 323 945 254 584 254 645 228C631 178 592 100 553 42ZM839 39C820 98 785 182 756 233L818 254C847 205 885 128 915 62ZM163 496L346 496 346 561 163 561ZM163 447L163 384 346 384 346 447ZM100 332L100 959 163 959 163 860 416 860 416 800 163 800 163 734 407 734 407 676 163 676 163 614 409 614 409 332ZM211 40C177 117 111 213 19 285 34 294 56 315 67 329 105 298 138 265 166 231L166 275 363 275 363 220 176 220C210 178 237 136 259 99 314 151 373 227 404 274L450 222C416 171 344 95 285 40Z"/>
</svg>