<svg xmlns="http://www.w3.org/2000/svg"
    viewBox="0 0 1000 1000">
  <!--
© 2014-2021 Adobe (http://www.adobe.com/).
Noto is a trademark of Google Inc.
This Font Software is licensed under the SIL Open Font License, Version 1.1. This Font Software is distributed on an "AS IS" BASIS, WITHOUT WARRANTIES OR CONDITIONS OF ANY KIND, either express or implied. See the SIL Open Font License for the specific language, permissions and limitations governing your use of this Font Software.
http://scripts.sil.org/OFL
  -->
<path d="M41 299L61 359C139 338 243 311 343 283L337 229C226 256 116 283 41 299ZM73 83L73 140 332 140 332 83ZM479 10C455 71 407 143 333 196 350 204 373 221 385 235 421 206 451 174 476 141L587 141C556 239 482 295 290 325 302 337 317 361 323 376 365 368 402 359 434 349 343 422 192 490 39 530 51 544 66 567 72 582 177 552 283 508 369 461L369 490 629 490 629 460C674 484 722 505 771 524L276 525 237 525 237 848 119 859 128 919C239 907 397 890 548 875L548 828C640 885 767 917 909 930 918 913 933 888 947 874 861 869 781 857 711 838 765 812 826 780 876 748L821 713 777 743 777 526C828 546 880 562 928 573 936 558 951 534 964 519 811 487 636 417 522 325L497 325C560 295 601 257 627 207 667 282 744 351 924 382 931 365 947 340 961 326 748 296 687 218 662 141L832 141C815 171 793 201 773 222L831 243C865 208 901 150 927 97L877 82 865 85 512 85C525 63 535 42 544 20ZM496 375C525 399 561 422 600 444L398 444C436 421 469 398 496 375ZM308 570L705 570 705 616 308 616ZM308 708L308 658 705 658 705 708ZM308 755L462 755C481 779 505 800 533 819L308 842ZM759 755C723 777 683 800 648 817 604 800 567 780 538 755Z"/>
</svg>