<svg xmlns="http://www.w3.org/2000/svg"
    viewBox="0 0 1000 1000">
  <!--
© 2014-2021 Adobe (http://www.adobe.com/).
Noto is a trademark of Google Inc.
This Font Software is licensed under the SIL Open Font License, Version 1.1. This Font Software is distributed on an "AS IS" BASIS, WITHOUT WARRANTIES OR CONDITIONS OF ANY KIND, either express or implied. See the SIL Open Font License for the specific language, permissions and limitations governing your use of this Font Software.
http://scripts.sil.org/OFL
  -->
<path d="M420 551L445 618 527 583C523 700 500 804 390 883 407 895 433 918 446 934 577 836 597 703 597 553L678 518 678 576 781 576 781 930 853 930 853 576 961 576 961 507 853 507 853 289 947 289 947 222 823 222C850 167 880 92 906 30L828 9C812 72 783 162 756 222L697 222 697 289 781 289 781 507 682 507 670 453 597 482 597 289 673 289 673 222 577 222C602 166 629 92 652 30L575 9C562 72 536 162 513 222L435 222 435 289 527 289 527 510ZM163 466L346 466 346 531 163 531ZM163 417L163 354 346 354 346 417ZM100 302L100 929 163 929 163 830 416 830 416 770 163 770 163 704 407 704 407 646 163 646 163 584 409 584 409 302ZM211 10C177 87 111 183 19 255 34 264 56 285 67 299 105 268 138 235 166 201L166 245 363 245 363 190 176 190C210 148 237 106 259 69 314 121 373 197 404 244L450 192C416 141 344 65 285 10Z"/>
</svg>