<svg xmlns="http://www.w3.org/2000/svg"
    viewBox="0 0 1000 1000">
  <!--
© 2014-2021 Adobe (http://www.adobe.com/).
Noto is a trademark of Google Inc.
This Font Software is licensed under the SIL Open Font License, Version 1.1. This Font Software is distributed on an "AS IS" BASIS, WITHOUT WARRANTIES OR CONDITIONS OF ANY KIND, either express or implied. See the SIL Open Font License for the specific language, permissions and limitations governing your use of this Font Software.
http://scripts.sil.org/OFL
  -->
<path d="M167 466L357 466 357 531 167 531ZM167 417L167 354 357 354 357 417ZM103 302L103 931 167 931 167 830 434 830 434 770 167 770 167 704 423 704 423 646 167 646 167 584 420 584 420 302ZM218 10C182 87 114 183 18 255 34 264 56 285 67 301 105 271 138 238 167 206L167 245 374 245 374 190 180 190C216 148 244 106 267 69 323 119 385 193 418 240L465 187C428 137 354 63 292 10ZM655 395C622 418 569 449 523 471L487 460 487 928 557 928 557 879 866 879 866 929 936 929 936 458 721 458 721 520 866 520 866 632 730 632 730 693 866 693 866 815 557 815 557 693 678 693 678 632 557 632 557 518C604 498 663 469 709 436ZM593 10C566 152 514 280 432 360 450 370 482 392 495 404 549 345 592 266 624 173L858 173C851 263 843 301 830 313 823 320 813 321 799 321 782 322 741 321 697 317 708 335 716 363 717 383 763 386 807 385 829 384 856 382 873 376 888 359 911 336 922 276 932 135 933 125 934 106 934 106L645 106C653 79 659 51 665 22Z"/>
</svg>