<svg xmlns="http://www.w3.org/2000/svg" name="gid14240" data-unicode="餡"
    viewBox="0 0 1000 1000">
  <!--
© 2014-2021 Adobe (http://www.adobe.com/).
Noto is a trademark of Google Inc.
This Font Software is licensed under the SIL Open Font License, Version 1.1. This Font Software is distributed on an "AS IS" BASIS, WITHOUT WARRANTIES OR CONDITIONS OF ANY KIND, either express or implied. See the SIL Open Font License for the specific language, permissions and limitations governing your use of this Font Software.
http://scripts.sil.org/OFL
  -->
<path d="M167 496L357 496 357 561 167 561ZM167 447L167 384 357 384 357 447ZM103 332L103 961 167 961 167 860 434 860 434 800 167 800 167 734 423 734 423 676 167 676 167 614 420 614 420 332ZM218 40C182 117 114 213 18 285 34 294 56 315 67 331 105 301 138 268 167 236L167 275 374 275 374 220 180 220C216 178 244 136 267 99 323 149 385 223 418 270L465 217C428 167 354 93 292 40ZM655 425C622 448 569 479 523 501L487 490 487 958 557 958 557 909 866 909 866 959 936 959 936 488 721 488 721 550 866 550 866 662 730 662 730 723 866 723 866 845 557 845 557 723 678 723 678 662 557 662 557 548C604 528 663 499 709 466ZM593 40C566 182 514 310 432 390 450 400 482 422 495 434 549 375 592 296 624 203L858 203C851 293 843 331 830 343 823 350 813 351 799 351 782 352 741 351 697 347 708 365 716 393 717 413 763 416 807 415 829 414 856 412 873 406 888 389 911 366 922 306 932 165 933 155 934 136 934 136L645 136C653 109 659 81 665 52Z"/>
</svg>