<svg xmlns="http://www.w3.org/2000/svg" name="gid14250" data-unicode="餲"
    viewBox="0 0 1000 1000">
  <!--
© 2014-2021 Adobe (http://www.adobe.com/).
Noto is a trademark of Google Inc.
This Font Software is licensed under the SIL Open Font License, Version 1.1. This Font Software is distributed on an "AS IS" BASIS, WITHOUT WARRANTIES OR CONDITIONS OF ANY KIND, either express or implied. See the SIL Open Font License for the specific language, permissions and limitations governing your use of this Font Software.
http://scripts.sil.org/OFL
  -->
<path d="M553 280L839 280 839 362 553 362ZM553 146L839 146 839 226 553 226ZM100 333L100 959 165 959 165 880 429 880 429 820 165 820 165 752 414 752 414 692 165 692 165 625 383 625 379 628C395 638 421 662 432 675 447 663 462 650 477 635L477 924 540 924 540 865 818 865 818 805 540 805 540 603 508 603C522 588 536 572 549 555L881 555C873 785 864 867 848 887 841 897 833 899 818 899 804 899 768 899 729 895 739 912 746 938 747 956 788 958 828 958 851 956 875 954 893 948 908 927 932 896 940 802 950 526 950 516 950 494 950 494L593 494C608 470 623 445 635 419L910 419 910 89 485 89 485 419 560 419C523 490 469 555 409 605L409 333ZM664 570C649 651 608 713 542 753 556 762 578 780 588 790 624 765 654 733 677 694 715 727 756 765 778 791L818 752C792 722 742 679 700 647 709 625 716 602 720 577ZM165 504L346 504 346 572 165 572ZM165 452L165 386 346 386 346 452ZM210 40C176 117 110 213 18 285 34 294 55 315 66 330 104 299 137 265 166 231L166 275 361 275 361 221 174 221C209 179 237 137 258 100 313 150 372 225 403 270L450 219C416 168 344 93 285 40Z"/>
</svg>