<svg xmlns="http://www.w3.org/2000/svg"
    viewBox="0 0 1000 1000">
  <!--
© 2014-2021 Adobe (http://www.adobe.com/).
Noto is a trademark of Google Inc.
This Font Software is licensed under the SIL Open Font License, Version 1.1. This Font Software is distributed on an "AS IS" BASIS, WITHOUT WARRANTIES OR CONDITIONS OF ANY KIND, either express or implied. See the SIL Open Font License for the specific language, permissions and limitations governing your use of this Font Software.
http://scripts.sil.org/OFL
  -->
<path d="M638 782L575 745C534 792 447 850 374 883 389 895 410 917 421 929 495 895 583 836 638 782ZM777 746L730 787C797 828 880 889 921 928L970 881C927 842 842 784 777 746ZM655 42L427 42 427 181C392 131 326 61 270 10L202 10C167 84 106 179 22 252 38 261 60 281 72 296 104 267 133 235 158 204L158 243 345 243 345 189 169 189C200 149 226 109 246 73 299 124 356 195 384 240L427 193 427 299C427 362 444 378 507 378 520 378 591 378 603 378 651 378 668 357 675 279 658 275 635 267 622 257 620 315 616 323 596 323 581 323 525 323 513 323 489 323 485 320 485 299L485 231 655 231ZM324 418L163 418 163 353 324 353ZM324 468L324 538 163 538 163 468ZM163 300L98 300 98 932 163 932 163 837 397 837 397 776 163 776 163 709 389 709 389 650 163 650 163 591 388 591 388 300ZM933 42L701 42 701 297C701 361 719 376 783 376 796 376 874 376 888 376 937 376 955 356 961 278 944 274 920 266 908 256 905 314 902 322 881 322 865 322 802 322 790 322 763 322 759 318 759 296L759 230 933 230ZM759 93L875 93 875 178 759 178ZM485 94L598 94 598 178 485 178ZM956 663L821 663 821 546 940 546 940 483 821 483 821 397 754 397 754 483 607 483 607 397 541 397 541 483 428 483 428 546 541 546 541 663 411 663 411 726 956 726ZM754 546L754 663 607 663 607 546Z"/>
</svg>