<svg xmlns="http://www.w3.org/2000/svg"
    viewBox="0 0 1000 1000">
  <!--
© 2014-2021 Adobe (http://www.adobe.com/).
Noto is a trademark of Google Inc.
This Font Software is licensed under the SIL Open Font License, Version 1.1. This Font Software is distributed on an "AS IS" BASIS, WITHOUT WARRANTIES OR CONDITIONS OF ANY KIND, either express or implied. See the SIL Open Font License for the specific language, permissions and limitations governing your use of this Font Software.
http://scripts.sil.org/OFL
  -->
<path d="M541 358L833 358 833 433 541 433ZM472 692L472 930 541 930 541 896 831 896 831 928 902 928 902 692ZM541 841L541 746 831 746 831 841ZM646 9L646 89 428 89 428 144 646 144 646 205 455 205 455 259 924 259 924 205 717 205 717 144 948 144 948 89 717 89 717 9ZM473 308L473 483 570 483 528 495C542 521 555 556 563 583L416 583 416 641 959 641 959 583 803 583 847 494 805 483 905 483 905 308ZM626 583L632 581C625 555 608 515 591 483L776 483C768 513 752 554 739 581L746 583ZM162 466L335 466 335 531 162 531ZM162 417L162 354 335 354 335 417ZM99 302L99 929 162 929 162 831 408 831 408 771 162 771 162 704 398 704 398 646 162 646 162 584 398 584 398 302ZM205 10C170 84 108 179 22 252 37 262 59 281 71 296 104 266 134 234 160 202L160 245 355 245 355 190 170 190C203 147 231 105 252 69 308 120 369 196 402 243L449 192C414 141 340 65 279 10Z"/>
</svg>