<svg xmlns="http://www.w3.org/2000/svg"
    viewBox="0 0 1000 1000">
  <!--
© 2014-2021 Adobe (http://www.adobe.com/).
Noto is a trademark of Google Inc.
This Font Software is licensed under the SIL Open Font License, Version 1.1. This Font Software is distributed on an "AS IS" BASIS, WITHOUT WARRANTIES OR CONDITIONS OF ANY KIND, either express or implied. See the SIL Open Font License for the specific language, permissions and limitations governing your use of this Font Software.
http://scripts.sil.org/OFL
  -->
<path d="M643 10L643 98 457 98 457 155 643 155 643 227 411 227 411 285 950 285 950 227 714 227 714 155 908 155 908 98 714 98 714 10ZM500 308L500 377 416 377 416 430 500 430 500 503 400 519 415 574C485 559 570 541 655 522L652 476 561 492 561 430 643 430 643 377 561 377 561 308ZM399 612L399 672 547 672C532 777 492 840 359 877 373 889 393 915 399 932 550 885 599 803 616 672L712 672 712 834C712 903 728 924 798 924 812 924 874 924 889 924 943 924 962 898 969 794 950 790 921 779 907 768 905 848 900 859 880 859 867 859 818 859 808 859 786 859 782 855 782 834L782 672 956 672 956 612ZM776 308L776 377 691 377 691 430 776 430 776 504 668 504 668 557 951 557 951 504 839 504 839 430 939 430 939 377 839 377 839 308ZM163 468L324 468 324 538 163 538ZM163 418L163 353 324 353 324 418ZM98 300L98 931 163 931 163 837 397 837 397 776 163 776 163 709 389 709 389 650 163 650 163 591 388 591 388 300ZM202 10C167 84 106 179 22 252 38 262 60 281 72 297 104 267 133 235 158 204L158 243 345 243 345 189 170 189C200 148 226 109 246 73 299 124 356 196 384 241L432 188C399 138 329 64 270 10Z"/>
</svg>