<svg xmlns="http://www.w3.org/2000/svg" name="gid14313" data-unicode="駃"
    viewBox="0 0 1000 1000">
  <!--
© 2014-2021 Adobe (http://www.adobe.com/).
Noto is a trademark of Google Inc.
This Font Software is licensed under the SIL Open Font License, Version 1.1. This Font Software is distributed on an "AS IS" BASIS, WITHOUT WARRANTIES OR CONDITIONS OF ANY KIND, either express or implied. See the SIL Open Font License for the specific language, permissions and limitations governing your use of this Font Software.
http://scripts.sil.org/OFL
  -->
<path d="M229 664C248 716 264 783 268 827L308 817C304 775 287 708 267 657ZM157 674C167 733 173 808 171 858L213 853C214 804 209 728 196 669ZM83 659C75 725 60 823 40 882L88 901C106 840 120 741 129 673ZM834 503L725 503C727 467 728 430 728 394L728 280 834 280ZM655 40L655 209 511 209 511 280 655 280 655 394C655 430 654 467 652 503L493 503 493 573 645 573C627 698 581 816 462 912 479 923 506 947 518 962 633 869 686 755 709 633 751 776 818 894 915 962 927 942 952 914 970 900 869 838 800 716 762 573L961 573 961 503 902 503 902 209 728 209 728 40ZM260 294L260 390 154 390 154 294ZM458 82L91 82 91 606 400 606C397 667 394 716 390 755 379 721 356 672 333 636L298 648C321 689 345 744 354 780L389 767C381 840 372 874 361 886 354 896 347 897 332 897 318 897 284 897 246 894 256 910 263 936 264 955 301 956 338 956 359 954 384 952 401 946 416 928 442 898 453 813 466 574 467 565 468 544 468 544L322 544 322 450 435 450 435 390 322 390 322 294 435 294 435 235 322 235 322 143 458 143ZM260 235L154 235 154 143 260 143ZM260 450L260 544 154 544 154 450Z"/>
</svg>