<svg xmlns="http://www.w3.org/2000/svg"
    viewBox="0 0 1000 1000">
  <!--
© 2014-2021 Adobe (http://www.adobe.com/).
Noto is a trademark of Google Inc.
This Font Software is licensed under the SIL Open Font License, Version 1.1. This Font Software is distributed on an "AS IS" BASIS, WITHOUT WARRANTIES OR CONDITIONS OF ANY KIND, either express or implied. See the SIL Open Font License for the specific language, permissions and limitations governing your use of this Font Software.
http://scripts.sil.org/OFL
  -->
<path d="M226 634C245 685 262 752 265 796L306 786C301 743 284 676 264 626ZM152 644C162 703 168 778 166 829L207 822C209 773 202 698 191 639ZM81 624C77 712 65 802 29 853L71 878C111 822 122 725 127 632ZM536 51L536 431C536 576 527 763 433 893 450 901 481 919 494 932 586 804 604 611 606 461L697 461C730 675 792 843 919 934 930 914 953 887 970 873 855 799 795 646 765 461L926 461 926 51ZM606 120L857 120 857 391 606 391ZM249 263L249 354 152 354 152 263ZM87 51L87 567 400 567C397 630 393 681 390 722 378 688 356 640 333 604L298 617C321 658 346 712 355 748L388 734C381 812 372 848 361 860 354 870 346 872 332 872 319 872 287 871 252 867 261 885 267 911 269 929 305 931 341 931 361 929 385 927 401 921 416 902 441 872 453 783 465 536 466 526 467 506 467 506L312 506 312 413 438 413 438 354 312 354 312 263 438 263 438 203 312 203 312 114 458 114 458 51ZM249 203L152 203 152 114 249 114ZM249 413L249 506 152 506 152 413Z"/>
</svg>