<svg xmlns="http://www.w3.org/2000/svg" name="gid14323" data-unicode="駔"
    viewBox="0 0 1000 1000">
  <!--
© 2014-2021 Adobe (http://www.adobe.com/).
Noto is a trademark of Google Inc.
This Font Software is licensed under the SIL Open Font License, Version 1.1. This Font Software is distributed on an "AS IS" BASIS, WITHOUT WARRANTIES OR CONDITIONS OF ANY KIND, either express or implied. See the SIL Open Font License for the specific language, permissions and limitations governing your use of this Font Software.
http://scripts.sil.org/OFL
  -->
<path d="M273 648C295 689 319 745 332 781L369 766C357 732 330 677 308 636ZM209 663C225 715 243 783 249 827L289 818C282 774 264 707 248 656ZM146 674C153 732 158 806 158 856L201 851C200 802 194 728 186 669ZM78 655C70 721 52 818 30 876L79 894C99 835 115 736 124 670ZM519 91L519 870 439 870 439 939 962 939 962 870 883 870 883 91ZM589 870L589 674 811 674 811 870ZM589 415L811 415 811 606 589 606ZM589 346L589 159 811 159 811 346ZM246 300L246 389 152 389 152 300ZM441 85L88 85 88 607 380 607C374 801 366 872 353 890 346 899 339 901 327 901 315 901 287 901 255 898 264 914 272 938 273 956 304 957 336 958 356 955 379 953 394 948 408 930 431 902 438 818 446 572 446 563 446 543 446 543L309 543 309 448 427 448 427 389 309 389 309 300 426 300 426 241 309 241 309 148 441 148ZM246 241L152 241 152 148 246 148ZM246 448L246 543 152 543 152 448Z"/>
</svg>