<svg xmlns="http://www.w3.org/2000/svg"
    viewBox="0 0 1000 1000">
  <!--
© 2014-2021 Adobe (http://www.adobe.com/).
Noto is a trademark of Google Inc.
This Font Software is licensed under the SIL Open Font License, Version 1.1. This Font Software is distributed on an "AS IS" BASIS, WITHOUT WARRANTIES OR CONDITIONS OF ANY KIND, either express or implied. See the SIL Open Font License for the specific language, permissions and limitations governing your use of this Font Software.
http://scripts.sil.org/OFL
  -->
<path d="M572 244C541 313 489 382 434 429 450 440 478 464 490 476 547 423 604 342 641 263ZM756 274C814 333 877 415 903 470L965 433C936 377 872 298 813 242ZM222 634C240 686 256 753 260 797L300 787C295 745 280 678 260 627ZM151 644C161 703 167 778 165 828L206 823C207 774 201 698 190 639ZM80 629C76 714 64 802 29 852L71 876C111 822 121 728 126 638ZM782 430C763 510 735 580 698 641 660 580 631 512 610 438L546 454C573 546 609 630 656 702 598 775 523 832 431 873 448 886 474 917 484 932 569 888 641 833 700 763 760 837 834 895 922 932 933 912 955 885 972 871 881 837 804 779 744 705 793 631 831 544 856 442ZM663 10L663 156 449 156 449 224 961 224 961 156 736 156 736 10ZM248 263L248 354 151 354 151 263ZM87 51L87 567 389 567C386 631 383 682 379 723 368 689 346 642 325 606L290 618C313 659 336 714 345 750L378 737C371 813 363 848 353 860 346 870 338 872 326 872 313 872 282 871 248 868 258 885 263 910 265 928 300 931 335 931 354 928 378 927 394 920 408 902 432 872 443 784 454 535 455 526 455 506 455 506L310 506 310 413 423 413 423 354 310 354 310 263 423 263 423 203 310 203 310 114 444 114 444 51ZM248 203L151 203 151 114 248 114ZM248 413L248 506 151 506 151 413Z"/>
</svg>