<svg xmlns="http://www.w3.org/2000/svg" name="gid14347" data-unicode="駹"
    viewBox="0 0 1000 1000">
  <!--
© 2014-2021 Adobe (http://www.adobe.com/).
Noto is a trademark of Google Inc.
This Font Software is licensed under the SIL Open Font License, Version 1.1. This Font Software is distributed on an "AS IS" BASIS, WITHOUT WARRANTIES OR CONDITIONS OF ANY KIND, either express or implied. See the SIL Open Font License for the specific language, permissions and limitations governing your use of this Font Software.
http://scripts.sil.org/OFL
  -->
<path d="M833 311C793 366 722 425 664 462 681 472 700 490 712 503 772 463 844 398 891 334ZM866 455C822 517 741 581 667 617 683 628 701 647 712 660 791 618 874 550 924 477ZM884 611C839 686 749 751 650 786 666 798 684 819 694 834 801 792 894 720 946 632ZM691 95C741 124 801 170 829 202L872 152C843 121 782 79 732 50ZM201 660C221 711 236 778 241 822L279 813C275 770 258 703 238 652ZM140 670C150 729 154 804 153 853L194 848C195 799 189 724 179 665ZM76 660C72 744 62 833 28 883L71 907C108 852 117 757 121 668ZM83 80L83 596 363 596C360 662 357 714 354 755 343 721 320 671 296 633L263 644C286 685 311 740 320 776L353 762C347 844 339 881 329 893 322 903 315 904 302 904 289 904 260 904 228 900 236 916 241 941 243 958 276 960 309 960 328 958 351 956 367 950 380 932L387 920C406 929 429 946 441 961 504 878 545 770 571 651L571 834C571 918 595 940 685 940 706 940 837 940 858 940 936 940 956 906 965 786 946 781 919 770 903 759 899 858 893 877 853 877 825 877 713 877 692 877 646 877 638 870 638 835L638 375 609 375 614 288 956 288 956 222 616 222C618 160 619 99 619 41L551 41C551 98 550 159 549 222L423 222 423 288 547 288C537 516 504 757 393 905 408 860 416 764 424 565 425 556 425 536 425 536L292 536 292 443 400 443 400 384 292 384 292 293 400 293 400 234 292 234 292 142 420 142 420 80ZM232 293L232 384 144 384 144 293ZM232 234L144 234 144 142 232 142ZM232 443L232 536 144 536 144 443Z"/>
</svg>