<svg xmlns="http://www.w3.org/2000/svg" name="gid14359" data-unicode="騊"
    viewBox="0 0 1000 1000">
  <!--
© 2014-2021 Adobe (http://www.adobe.com/).
Noto is a trademark of Google Inc.
This Font Software is licensed under the SIL Open Font License, Version 1.1. This Font Software is distributed on an "AS IS" BASIS, WITHOUT WARRANTIES OR CONDITIONS OF ANY KIND, either express or implied. See the SIL Open Font License for the specific language, permissions and limitations governing your use of this Font Software.
http://scripts.sil.org/OFL
  -->
<path d="M220 664C238 716 254 783 258 827L297 817C292 775 277 708 257 657ZM151 674C161 733 166 808 164 858L205 853C207 804 201 728 189 669ZM79 655C75 740 64 829 29 879L72 904C111 849 121 754 126 664ZM245 293L245 384 151 384 151 293ZM544 41C517 126 471 209 417 270L417 233 307 233 307 144 433 144 433 81 87 81 87 597 379 597 371 745C360 711 340 669 320 636L285 648C308 689 332 744 341 780L370 768C364 846 357 881 347 893 341 903 333 905 320 904 308 904 277 904 243 901 252 917 258 942 259 960 294 962 329 962 349 960 372 958 387 951 401 934 424 904 433 817 442 565 442 556 443 536 443 536L307 536 307 443 417 443 417 384 307 384 307 293 395 293C411 303 439 324 452 335 478 306 504 272 528 233L873 233C866 686 858 847 834 879 826 894 817 897 802 897 784 897 743 897 697 893 708 911 715 939 717 958 759 960 802 961 829 958 858 954 878 946 896 918 927 872 933 716 941 207 941 197 941 168 941 168L564 168C582 133 598 96 610 58ZM245 233L151 233 151 144 245 144ZM245 443L245 536 151 536 151 443ZM463 495L463 554 615 554 615 728 539 728 539 600 485 600 485 843 539 843 539 786 750 786 750 825 805 825 805 600 750 600 750 728 674 728 674 554 826 554 826 495 674 495 674 398 804 398 804 340 584 340C594 318 602 296 610 274L553 266C535 321 504 391 459 445 474 451 495 465 506 477 526 452 542 425 557 398L615 398 615 495Z"/>
</svg>