<svg xmlns="http://www.w3.org/2000/svg"
    viewBox="0 0 1000 1000">
  <!--
© 2014-2021 Adobe (http://www.adobe.com/).
Noto is a trademark of Google Inc.
This Font Software is licensed under the SIL Open Font License, Version 1.1. This Font Software is distributed on an "AS IS" BASIS, WITHOUT WARRANTIES OR CONDITIONS OF ANY KIND, either express or implied. See the SIL Open Font License for the specific language, permissions and limitations governing your use of this Font Software.
http://scripts.sil.org/OFL
  -->
<path d="M162 763C136 806 92 859 45 891L106 928C154 893 193 839 223 792ZM291 791C304 831 315 882 317 917L383 904C379 870 367 819 353 781ZM457 791C478 825 499 872 507 902L568 883C559 853 537 808 515 775ZM58 176L58 229 224 229C174 277 104 322 44 345 58 357 74 378 83 392 152 358 232 301 283 243L283 354C283 362 280 364 271 364 262 365 232 365 201 364 209 377 218 397 222 412 270 412 300 412 321 404 342 395 347 383 347 355L347 229 447 229C432 260 414 290 400 313L451 329C471 302 491 264 511 225L542 250C562 233 583 212 602 190 623 223 648 254 677 282 626 313 565 336 498 352 512 364 532 391 540 405 609 384 672 358 725 323 782 365 849 398 923 418 932 400 951 375 966 361 895 346 831 319 777 283 818 246 851 201 872 145L950 145 950 89 672 89C683 68 693 47 702 25L638 9C612 75 569 137 519 183L489 174 478 176 409 176C397 168 382 161 366 153 410 127 456 93 493 60L454 29 440 32 104 32 104 83 382 83C360 100 335 118 312 132 276 119 238 107 204 99L172 136C211 145 255 160 294 176ZM801 145C784 184 759 218 727 246 693 216 665 182 644 145ZM253 559L466 559 466 610 253 610ZM253 516L253 465 466 465 466 516ZM621 788C647 814 675 851 687 876L700 870C708 885 713 907 714 923 757 926 797 926 817 924 840 923 856 917 872 903 892 884 904 837 916 732 917 722 919 704 919 704L539 704 539 653 811 653 811 610 539 610 539 559 809 559 809 516 539 516 539 465 838 465 838 415 180 415 180 754 842 754C834 822 824 851 813 862 806 868 798 869 785 869 772 870 742 869 708 866L742 849C728 825 699 791 673 766ZM253 653L466 653 466 704 253 704Z"/>
</svg>