<svg xmlns="http://www.w3.org/2000/svg" name="gid14370" data-unicode="騚"
    viewBox="0 0 1000 1000">
  <!--
© 2014-2021 Adobe (http://www.adobe.com/).
Noto is a trademark of Google Inc.
This Font Software is licensed under the SIL Open Font License, Version 1.1. This Font Software is distributed on an "AS IS" BASIS, WITHOUT WARRANTIES OR CONDITIONS OF ANY KIND, either express or implied. See the SIL Open Font License for the specific language, permissions and limitations governing your use of this Font Software.
http://scripts.sil.org/OFL
  -->
<path d="M201 660C221 711 236 778 241 822L279 813C275 770 258 703 238 652ZM140 670C150 729 154 804 153 853L194 848C195 799 189 724 179 665ZM76 660C72 744 62 833 28 883L71 907C108 852 117 757 121 668ZM431 218L431 283 961 283 961 218ZM522 63C549 111 574 176 582 216L644 194C636 154 609 92 581 44ZM810 39C796 86 768 154 746 196L803 215C827 176 856 114 881 61ZM736 386L736 781 791 781 791 386ZM864 340L864 889C864 899 861 902 851 903 840 903 808 904 770 903 780 918 791 945 794 962 843 962 875 959 896 949 918 939 925 921 925 889L925 340ZM228 293L228 384 144 384 144 293ZM83 80L83 596 356 596 349 741C337 708 316 666 296 633L263 644C286 685 311 740 320 776L347 765C341 845 334 881 324 893 317 903 310 904 297 904 284 904 256 904 224 900 232 916 238 941 239 958 272 960 305 960 324 958 347 956 362 950 376 932 398 903 408 816 417 565 418 556 418 536 418 536L288 536 288 443 392 443 392 384 288 384 288 293 392 293 392 234 288 234 288 142 411 142 411 80ZM228 234L144 234 144 142 228 142ZM228 443L228 536 144 536 144 443ZM518 530C546 552 577 580 593 601L617 576 617 714C596 693 566 667 540 648L518 668ZM518 507L518 418 617 418 617 549C597 529 567 504 541 486ZM460 358L460 960 518 960 518 693C545 717 575 745 591 765L617 740 617 889C617 898 614 901 606 902 597 902 570 902 541 900 548 917 556 943 558 959 602 959 632 958 650 948 671 938 676 920 676 889L676 358Z"/>
</svg>