<svg xmlns="http://www.w3.org/2000/svg"
    viewBox="0 0 1000 1000">
  <!--
© 2014-2021 Adobe (http://www.adobe.com/).
Noto is a trademark of Google Inc.
This Font Software is licensed under the SIL Open Font License, Version 1.1. This Font Software is distributed on an "AS IS" BASIS, WITHOUT WARRANTIES OR CONDITIONS OF ANY KIND, either express or implied. See the SIL Open Font License for the specific language, permissions and limitations governing your use of this Font Software.
http://scripts.sil.org/OFL
  -->
<path d="M516 800L465 816C487 847 507 889 514 917L569 899C560 870 539 829 516 800ZM385 806L330 814C342 850 350 897 349 927L409 917C408 887 398 840 385 806ZM259 813L203 790C186 830 154 874 112 897L164 931C210 902 239 856 259 813ZM258 353L258 306 749 306 749 353ZM258 264L258 218 749 218 749 264ZM303 567L480 567 480 603 303 603ZM824 173L187 173 187 397 332 397C326 408 318 420 310 431L51 431 51 486 262 486C208 539 132 586 35 622 49 633 68 657 76 673 135 649 187 622 231 591L231 797 642 797 606 815C631 836 657 868 669 890L715 865C704 844 678 817 655 797L815 797C809 843 803 865 795 873 790 879 784 880 773 880 762 880 738 879 709 876 717 891 723 914 724 929 756 931 786 931 802 929 823 929 837 923 850 912 867 895 876 859 884 779 885 770 887 753 887 753L548 753 548 715 801 715 801 677 548 677 548 640 791 640 791 603 548 603 548 567 726 567 726 554C785 603 857 644 928 667 938 650 958 624 973 611 887 589 798 541 737 486L950 486 950 431 389 431 408 397 824 397ZM303 753L303 715 480 715 480 753ZM303 677L303 640 480 640 480 677ZM693 524L313 524C326 512 337 499 348 486L658 486C669 499 681 512 693 524ZM939 66L702 66 702 10 629 10 629 66 367 66 367 10 294 10 294 66 62 66 62 123 294 123 294 162 367 162 367 123 629 123 629 162 702 162 702 123 939 123Z"/>
</svg>