<svg xmlns="http://www.w3.org/2000/svg"
    viewBox="0 0 1000 1000">
  <!--
© 2014-2021 Adobe (http://www.adobe.com/).
Noto is a trademark of Google Inc.
This Font Software is licensed under the SIL Open Font License, Version 1.1. This Font Software is distributed on an "AS IS" BASIS, WITHOUT WARRANTIES OR CONDITIONS OF ANY KIND, either express or implied. See the SIL Open Font License for the specific language, permissions and limitations governing your use of this Font Software.
http://scripts.sil.org/OFL
  -->
<path d="M682 223L819 223 819 361 682 361ZM624 173L624 410 879 410 879 173ZM612 524L682 524 682 701 612 701ZM568 474L568 751 727 751 727 474ZM815 524L889 524 889 701 815 701ZM770 474L770 751 936 751 936 474ZM203 635C223 686 238 754 243 797L281 788C277 745 260 678 240 627ZM142 646C152 704 156 778 154 828L196 822C197 774 191 700 181 641ZM77 627C73 712 63 800 29 851L72 875C109 819 118 725 123 636ZM463 51L463 930 526 930 526 883 961 883 961 823 526 823 526 111 940 111 940 51ZM234 263L234 354 146 354 146 263ZM84 50L84 566 363 566C360 632 358 684 355 725 342 691 320 644 298 609L265 621C288 662 313 716 322 753L354 740C348 816 340 851 331 863 324 873 316 874 304 874 291 874 263 874 230 870 238 887 244 912 245 930 279 931 313 931 332 929 355 927 370 921 384 903 407 874 416 786 426 535 427 526 427 506 427 506L295 506 295 413 401 413 401 354 295 354 295 263 400 263 400 204 295 204 295 112 419 112 419 50ZM234 204L146 204 146 112 234 112ZM234 413L234 506 146 506 146 413Z"/>
</svg>