<svg xmlns="http://www.w3.org/2000/svg" name="gid14396" data-unicode="驊"
    viewBox="0 0 1000 1000">
  <!--
© 2014-2021 Adobe (http://www.adobe.com/).
Noto is a trademark of Google Inc.
This Font Software is licensed under the SIL Open Font License, Version 1.1. This Font Software is distributed on an "AS IS" BASIS, WITHOUT WARRANTIES OR CONDITIONS OF ANY KIND, either express or implied. See the SIL Open Font License for the specific language, permissions and limitations governing your use of this Font Software.
http://scripts.sil.org/OFL
  -->
<path d="M203 665C223 716 238 784 243 827L281 818C277 775 260 708 240 657ZM142 676C152 734 156 808 154 858L196 852C197 804 191 730 181 671ZM77 657C73 742 63 830 29 881L72 905C109 849 118 755 123 666ZM420 457L420 519 513 519 513 617 447 617 447 678 662 678 662 753 451 753 451 813 662 813 662 960 728 960 728 813 946 813 946 753 728 753 728 678 950 678 950 617 877 617 877 519 962 519 962 457 877 457 877 361 950 361 950 300 446 300 446 361 513 361 513 457ZM662 617L575 617 575 519 662 519ZM728 617L728 519 813 519 813 617ZM662 361L662 457 575 457 575 361ZM728 361L813 361 813 457 728 457ZM766 47L766 139 624 139 624 47 561 47 561 139 429 139 429 200 561 200 561 278 624 278 624 200 766 200 766 278 829 278 829 200 957 200 957 139 829 139 829 47ZM234 293L234 384 146 384 146 293ZM84 80L84 596 363 596C360 662 358 714 355 755 342 721 320 674 298 639L265 651C288 692 313 746 322 783L354 770C348 846 340 881 331 893 324 903 316 904 304 904 291 904 263 904 230 900 238 917 244 942 245 960 279 961 313 961 332 959 355 957 370 951 384 933 407 904 416 816 426 565 427 556 427 536 427 536L295 536 295 443 401 443 401 384 295 384 295 293 400 293 400 234 295 234 295 142 419 142 419 80ZM234 234L146 234 146 142 234 142ZM234 443L234 536 146 536 146 443Z"/>
</svg>