<svg xmlns="http://www.w3.org/2000/svg" name="gid14411" data-unicode="驟"
    viewBox="0 0 1000 1000">
  <!--
© 2014-2021 Adobe (http://www.adobe.com/).
Noto is a trademark of Google Inc.
This Font Software is licensed under the SIL Open Font License, Version 1.1. This Font Software is distributed on an "AS IS" BASIS, WITHOUT WARRANTIES OR CONDITIONS OF ANY KIND, either express or implied. See the SIL Open Font License for the specific language, permissions and limitations governing your use of this Font Software.
http://scripts.sil.org/OFL
  -->
<path d="M562 698C529 763 471 826 411 868 426 879 450 903 461 915 523 867 588 792 627 715ZM203 665C223 716 238 784 243 827L281 818C277 775 260 708 240 657ZM142 676C152 734 156 808 154 858L196 852C197 804 191 730 181 671ZM77 657C73 742 63 830 29 881L72 905C109 849 118 755 123 666ZM651 555L651 570 648 571 651 576 651 961 717 961 717 682C766 788 838 880 923 929 934 911 955 887 970 874 908 844 853 793 809 731 854 705 908 669 953 633L905 592C874 621 824 660 783 689 765 659 750 628 738 595 798 575 858 551 903 525L852 481C815 506 754 533 694 555ZM84 80L84 596 363 596C360 662 358 714 355 755 342 721 320 674 298 639L265 651C288 692 313 746 322 783L354 770C348 846 340 881 331 893 324 903 316 904 304 904 291 904 263 904 230 900 238 917 244 942 245 960 279 961 313 961 332 959 355 957 370 951 384 933 404 908 413 838 422 657 435 667 457 689 468 700 523 662 586 602 626 545L565 526C531 573 476 621 422 654L426 565C427 556 427 536 427 536L295 536 295 443 401 443 401 384 295 384 295 293 400 293 400 234 295 234 295 142 419 142 419 80ZM234 293L234 384 146 384 146 293ZM234 234L146 234 146 142 234 142ZM234 443L234 536 146 536 146 443ZM707 256C738 280 771 308 804 336 772 380 734 414 693 436 706 447 723 470 730 484 775 458 815 422 848 376 880 406 908 433 928 456L972 410C950 386 917 356 881 324 911 269 933 204 946 127L910 116 899 118 732 118 732 81 435 81 435 136 472 136 472 415 413 422 425 478 627 447 627 507 683 507 683 136 719 136 719 176 877 176C866 216 852 253 835 286L747 217ZM528 136L627 136 627 193 528 193ZM528 239L627 239 627 296 528 296ZM528 342L627 342 627 395 528 408Z"/>
</svg>