<svg xmlns="http://www.w3.org/2000/svg" name="gid14433" data-unicode="骹"
    viewBox="0 0 1000 1000">
  <!--
© 2014-2021 Adobe (http://www.adobe.com/).
Noto is a trademark of Google Inc.
This Font Software is licensed under the SIL Open Font License, Version 1.1. This Font Software is distributed on an "AS IS" BASIS, WITHOUT WARRANTIES OR CONDITIONS OF ANY KIND, either express or implied. See the SIL Open Font License for the specific language, permissions and limitations governing your use of this Font Software.
http://scripts.sil.org/OFL
  -->
<path d="M782 312C833 370 890 448 914 498L971 462C945 413 886 337 836 281ZM189 654L353 654 353 728 189 728ZM189 600L189 529 353 529 353 600ZM123 474L123 960 189 960 189 783 353 783 353 888C353 898 349 901 338 901 328 902 295 902 256 901 265 918 275 943 278 960 333 960 368 959 390 949 412 939 419 921 419 888L419 474ZM600 283C574 347 531 413 484 460L484 353 420 353 420 75 122 75 122 353 61 353 61 498 122 498 122 408 421 408 421 498 484 498 484 473C500 483 521 498 531 507 580 456 631 376 664 301ZM243 197L243 353 182 353 182 132 359 132 359 197ZM359 353L292 353 292 245 359 245ZM634 458L573 472C599 568 634 656 680 732 624 805 552 863 462 906 476 919 498 948 507 962 592 917 662 860 720 790 776 863 844 922 926 961 937 943 957 917 972 903 888 868 817 809 761 733 811 658 848 569 873 465L805 454C786 536 758 609 721 672 683 608 654 536 634 458ZM484 182L484 248 955 248 955 182 761 182 761 41 691 41 691 182Z"/>
</svg>