<svg xmlns="http://www.w3.org/2000/svg"
    viewBox="0 0 1000 1000">
  <!--
© 2014-2021 Adobe (http://www.adobe.com/).
Noto is a trademark of Google Inc.
This Font Software is licensed under the SIL Open Font License, Version 1.1. This Font Software is distributed on an "AS IS" BASIS, WITHOUT WARRANTIES OR CONDITIONS OF ANY KIND, either express or implied. See the SIL Open Font License for the specific language, permissions and limitations governing your use of this Font Software.
http://scripts.sil.org/OFL
  -->
<path d="M828 12C762 59 643 102 548 125 564 137 581 157 591 172 690 143 809 96 885 40ZM860 139C796 189 675 231 570 255 585 267 602 288 612 303 723 275 845 227 920 165ZM890 270C825 336 691 381 554 403 568 416 583 439 591 454 738 425 877 374 951 293ZM79 397L84 448C186 444 323 437 460 430 469 440 476 449 482 457L532 427C513 401 475 366 439 339L561 339 561 292 210 292 210 250 492 250 492 207 210 207 210 166 492 166 492 122 210 122 210 82 518 82 518 35 141 35 141 292 53 292 53 339 176 339C168 358 157 378 147 395ZM377 355C390 364 403 375 416 387L213 394 245 339 405 339ZM195 563C182 641 162 745 144 809L216 819 230 763 791 763C780 819 768 848 754 860 744 868 734 870 714 870 694 870 640 869 585 864 595 881 603 908 604 926 661 930 715 930 743 928 773 927 794 921 814 904 845 875 865 802 885 627 887 616 888 595 888 595L529 595 529 537 929 537 929 483 77 483 77 537 458 537 458 709 241 709C251 663 260 614 267 571ZM801 709L529 709 529 647 809 647Z"/>
</svg>