<svg xmlns="http://www.w3.org/2000/svg"
    viewBox="0 0 1000 1000">
  <!--
© 2014-2021 Adobe (http://www.adobe.com/).
Noto is a trademark of Google Inc.
This Font Software is licensed under the SIL Open Font License, Version 1.1. This Font Software is distributed on an "AS IS" BASIS, WITHOUT WARRANTIES OR CONDITIONS OF ANY KIND, either express or implied. See the SIL Open Font License for the specific language, permissions and limitations governing your use of this Font Software.
http://scripts.sil.org/OFL
  -->
<path d="M829 14C761 62 638 108 543 134 559 147 577 167 587 182 686 152 808 100 889 43ZM860 149C797 204 678 250 575 275 591 288 608 309 618 324 728 293 846 241 920 176ZM893 292C825 360 687 409 550 433 564 448 581 470 589 487 736 456 878 401 956 319ZM211 753L358 753 358 842 211 842ZM791 753L791 842 640 842 640 753ZM211 700L211 618 358 618 358 700ZM791 700L640 700 640 618 791 618ZM427 753L570 753 570 842 427 842ZM427 700L427 618 570 618 570 700ZM570 500L570 560 427 560 427 501 358 501 358 560 143 560 143 928 211 928 211 899 791 899 791 926 863 926 863 560 640 560 640 500ZM73 437L82 495C186 488 326 477 463 464 472 475 479 486 485 495L536 470C517 436 473 390 433 357L562 357 562 306 210 306 210 264 488 264 488 220 210 220 210 178 488 178 488 134 210 134 210 92 518 92 518 44 141 44 141 306 54 306 54 357 180 357C169 382 155 410 142 433ZM374 373C389 385 405 400 420 415L208 429 248 357 407 357Z"/>
</svg>