<svg xmlns="http://www.w3.org/2000/svg"
    viewBox="0 0 1000 1000">
  <!--
© 2014-2021 Adobe (http://www.adobe.com/).
Noto is a trademark of Google Inc.
This Font Software is licensed under the SIL Open Font License, Version 1.1. This Font Software is distributed on an "AS IS" BASIS, WITHOUT WARRANTIES OR CONDITIONS OF ANY KIND, either express or implied. See the SIL Open Font License for the specific language, permissions and limitations governing your use of this Font Software.
http://scripts.sil.org/OFL
  -->
<path d="M828 13C761 59 641 101 548 124 563 137 580 157 591 171 689 143 809 97 887 41ZM862 127C799 177 681 218 579 241 595 254 611 275 621 289 729 262 848 214 921 153ZM891 248C825 312 688 354 549 373 563 387 579 409 587 426 735 398 876 349 953 273ZM662 435L717 471 475 471C484 456 492 440 499 424L484 420 510 404C494 383 462 357 432 336L562 336 562 289 210 289 210 250 488 250 488 209 210 209 210 171 488 171 488 129 210 129 210 90 518 90 518 43 141 43 141 289 54 289 54 336 174 336C166 353 157 371 148 386L76 388 80 439 242 430C208 470 160 507 110 534 122 542 143 558 154 570L57 570 57 620 259 620C195 667 119 703 37 730 52 743 75 768 84 782 148 756 210 725 266 688L266 830C266 903 302 917 421 917 448 917 664 917 692 917 784 917 809 893 818 794 799 791 773 783 756 773 752 852 741 864 686 864 639 864 457 864 423 864 351 864 338 858 338 830L338 718 630 718C626 752 622 767 615 773 609 780 602 780 587 780 574 780 531 780 488 775 496 788 502 808 503 821 549 824 595 824 616 824 640 823 658 818 671 806 687 791 693 761 699 693 700 685 700 669 700 669L294 669C315 654 335 637 354 620L651 620C728 686 825 738 924 767 933 750 952 725 966 713 890 694 815 661 750 620L945 620 945 570 682 570C663 554 646 537 631 520L745 520 745 491C781 518 814 545 834 566L886 527C847 490 772 436 711 401ZM368 352L401 377 214 384 243 336 394 336ZM320 426L431 419C422 437 413 454 402 471L284 471C297 456 309 441 320 426ZM263 492L263 520 366 520C352 538 336 554 320 570L167 570C199 549 233 522 263 492ZM443 520L559 520C571 537 585 554 599 570L404 570C418 554 431 537 443 520Z"/>
</svg>