<svg xmlns="http://www.w3.org/2000/svg" name="gid14499" data-unicode="鬐"
    viewBox="0 0 1000 1000">
  <!--
© 2014-2021 Adobe (http://www.adobe.com/).
Noto is a trademark of Google Inc.
This Font Software is licensed under the SIL Open Font License, Version 1.1. This Font Software is distributed on an "AS IS" BASIS, WITHOUT WARRANTIES OR CONDITIONS OF ANY KIND, either express or implied. See the SIL Open Font License for the specific language, permissions and limitations governing your use of this Font Software.
http://scripts.sil.org/OFL
  -->
<path d="M845 39C773 77 642 108 540 125 554 137 569 155 578 167 683 148 814 112 896 66ZM869 136C799 179 665 212 554 228 567 240 581 258 590 272 707 251 840 214 921 161ZM897 233C826 288 683 323 542 338 555 351 568 371 576 385 725 363 873 323 951 256ZM790 554C706 570 560 584 423 592 480 575 535 557 589 537L938 537 938 493 696 493C764 462 825 428 878 390L832 359C792 388 744 415 692 440L692 415 500 415 500 394 469 394 516 368C505 349 483 324 460 304L549 304 549 263 209 263 209 233 504 233 504 197 209 197 209 167 504 167 504 131 209 131 209 100 516 100 516 60 143 60 143 263 56 263 56 304 185 304 166 343 75 344 79 390C180 386 315 380 451 373L466 394 431 394 431 415 163 415 163 457 431 457 431 493 64 493 64 537 431 537 352 559 314 559 314 569C225 590 134 608 47 621 57 633 73 659 79 672 155 658 235 641 314 621L314 627C314 689 355 699 481 699 510 699 771 699 802 699 881 699 908 686 914 627 896 624 874 619 860 611 854 651 844 657 793 657 740 657 518 657 480 657 403 657 386 653 385 630 539 625 715 610 830 587ZM395 312L420 336 230 341 253 304 410 304ZM500 493L500 457 655 457C626 470 596 482 565 493ZM252 853L756 853 756 895 252 895ZM252 814L252 774 756 774 756 814ZM178 730L178 961 252 961 252 937 756 937 756 960 832 960 832 730Z"/>
</svg>