<svg xmlns="http://www.w3.org/2000/svg" name="gid14501" data-unicode="鬖"
    viewBox="0 0 1000 1000">
  <!--
© 2014-2021 Adobe (http://www.adobe.com/).
Noto is a trademark of Google Inc.
This Font Software is licensed under the SIL Open Font License, Version 1.1. This Font Software is distributed on an "AS IS" BASIS, WITHOUT WARRANTIES OR CONDITIONS OF ANY KIND, either express or implied. See the SIL Open Font License for the specific language, permissions and limitations governing your use of this Font Software.
http://scripts.sil.org/OFL
  -->
<path d="M527 620C452 674 315 721 202 747 214 757 228 774 237 786 355 757 492 705 576 644ZM621 695C534 755 369 802 224 825 236 836 249 854 256 866 407 839 574 789 670 719ZM743 768C630 850 401 892 172 909 183 924 195 947 200 962 439 939 674 891 797 796ZM838 41C768 79 640 110 543 127 556 138 571 156 580 168 682 149 808 113 888 67ZM858 134C791 178 664 211 558 229 570 240 585 259 593 272 705 250 833 212 910 159ZM892 230C820 285 676 322 540 339 553 350 567 370 574 383 717 362 866 320 944 255ZM789 535C801 547 813 561 825 575L697 584 745 509 688 492C678 519 657 558 638 588L635 588C593 565 554 539 520 510L463 510C436 537 401 563 361 587 348 565 326 540 306 522L263 544C273 554 283 565 292 577L190 585 236 514 178 496C168 523 149 560 132 589L75 593 82 641 307 617C228 657 135 690 39 711 49 725 62 746 67 761 236 719 404 641 495 558 601 650 783 722 934 751 941 738 953 713 966 699 886 686 800 662 720 629L852 613 869 641 917 615C902 585 867 542 834 513ZM82 352L86 398C160 396 251 392 348 387 335 407 320 429 306 447L191 449 195 499C339 495 545 487 743 477 761 491 778 504 790 515L840 485C800 450 724 402 659 375L610 401C632 411 656 423 679 436L375 445C391 426 409 405 425 383L463 381 483 403 529 374C514 355 485 331 458 312L547 312 547 270 209 270 209 240 492 240 492 205 209 205 209 173 492 173 492 138 209 138 209 108 510 108 510 66 143 66 143 270 55 270 55 312 177 312 157 351ZM394 326L420 344 221 350 244 312 417 312Z"/>
</svg>