<svg xmlns="http://www.w3.org/2000/svg" name="gid14537" data-unicode="魃"
    viewBox="0 0 1000 1000">
  <!--
© 2014-2021 Adobe (http://www.adobe.com/).
Noto is a trademark of Google Inc.
This Font Software is licensed under the SIL Open Font License, Version 1.1. This Font Software is distributed on an "AS IS" BASIS, WITHOUT WARRANTIES OR CONDITIONS OF ANY KIND, either express or implied. See the SIL Open Font License for the specific language, permissions and limitations governing your use of this Font Software.
http://scripts.sil.org/OFL
  -->
<path d="M769 99C818 126 876 168 904 199L940 146C913 116 854 76 805 52ZM394 555C388 606 375 681 361 734L340 736 340 537 466 537 466 147 280 147 318 47 244 36C237 68 223 112 210 147L66 147 66 537 149 537 149 565C149 660 134 803 25 913 40 924 61 947 71 963 191 841 211 674 211 566L211 537 275 537 275 833C275 926 314 947 461 947 493 947 786 947 820 947 932 947 958 921 969 822 950 819 922 809 906 799 899 872 887 885 818 885 756 885 504 885 458 885 357 885 340 875 340 833L340 750 352 790 497 760 505 789 550 769C545 744 531 709 515 675 531 685 548 699 558 712 616 637 651 536 672 425 690 486 712 542 739 593 701 665 651 725 589 770 604 782 630 805 640 817 694 773 740 719 778 655 815 708 860 752 913 782 924 763 946 737 961 724 902 694 853 648 813 590 848 515 875 429 894 333L829 323C816 395 797 462 773 523 737 453 712 373 695 287L954 287 954 222 698 222C703 161 705 101 707 43L640 43C639 100 637 161 632 222L516 222 516 287 627 287C612 432 581 572 510 664L496 638 453 653C463 673 473 695 482 718L408 728C421 680 436 618 450 566ZM127 368L233 368 233 475 127 475ZM292 368L403 368 403 475 292 475ZM127 208L233 208 233 313 127 313ZM292 208L403 208 403 313 292 313Z"/>
</svg>