<svg xmlns="http://www.w3.org/2000/svg" name="gid14585" data-unicode="鮎"
    viewBox="0 0 1000 1000">
  <!--
© 2014-2021 Adobe (http://www.adobe.com/).
Noto is a trademark of Google Inc.
This Font Software is licensed under the SIL Open Font License, Version 1.1. This Font Software is distributed on an "AS IS" BASIS, WITHOUT WARRANTIES OR CONDITIONS OF ANY KIND, either express or implied. See the SIL Open Font License for the specific language, permissions and limitations governing your use of this Font Software.
http://scripts.sil.org/OFL
  -->
<path d="M388 724C417 775 446 843 457 888L508 867C496 823 467 757 437 706ZM294 733C316 789 334 862 339 910L392 897C386 850 366 777 344 722ZM201 734C212 794 217 870 213 920L268 913C270 863 265 787 253 727ZM111 726C102 805 82 886 35 931L85 961C137 911 156 824 166 739ZM525 527L525 960 596 960 596 917 854 917 854 956 927 956 927 527 750 527 750 328 963 328 963 260 750 260 750 41 677 41 677 527ZM596 851L596 594 854 594 854 851ZM321 190C306 226 287 264 269 293L157 293C176 259 192 225 207 190ZM186 40C162 134 113 258 35 351 52 360 76 380 88 395L101 378 101 680 464 680 464 293 340 293C366 251 392 201 412 155L368 126 355 130 230 130C239 102 248 75 255 49ZM164 515L251 515 251 618 164 618ZM308 515L399 515 399 618 308 618ZM164 355L251 355 251 456 164 456ZM308 355L399 355 399 456 308 456Z"/>
</svg>