<svg xmlns="http://www.w3.org/2000/svg"
    viewBox="0 0 1000 1000">
  <!--
© 2014-2021 Adobe (http://www.adobe.com/).
Noto is a trademark of Google Inc.
This Font Software is licensed under the SIL Open Font License, Version 1.1. This Font Software is distributed on an "AS IS" BASIS, WITHOUT WARRANTIES OR CONDITIONS OF ANY KIND, either express or implied. See the SIL Open Font License for the specific language, permissions and limitations governing your use of this Font Software.
http://scripts.sil.org/OFL
  -->
<path d="M277 704C298 758 314 828 318 875L369 863C364 817 347 747 326 693ZM191 705C201 764 206 839 202 889L256 881C258 832 253 757 241 698ZM105 696C97 775 78 855 34 901L84 931C133 880 149 793 159 709ZM563 273C589 235 611 196 631 157L769 157C753 197 732 240 712 273ZM366 696C389 738 413 794 422 830L465 813C454 841 438 868 419 892 435 900 463 920 474 931 560 825 573 662 573 542L573 337 957 337 957 273 779 273C808 227 837 171 857 122L813 93 802 96 659 96C670 70 680 45 688 21L616 11C586 106 527 227 435 319 452 328 475 351 486 367L508 343 508 541C508 622 503 719 469 805 458 769 436 718 412 679ZM635 421L635 825C635 904 657 924 734 924 750 924 855 924 872 924 938 924 957 892 965 781 946 776 919 765 904 754 901 844 896 860 866 860 845 860 758 860 742 860 707 860 701 855 701 824L701 487 845 487 845 628C845 637 843 640 833 641 822 641 795 641 757 640 766 658 775 682 778 701 829 701 862 700 884 689 905 678 910 660 910 629L910 421ZM300 160C286 196 269 234 252 263L151 263C169 229 184 195 197 160ZM172 10C150 104 106 227 35 321 51 330 75 350 88 365L97 353 97 650 433 650 433 263 319 263C344 220 369 170 388 125L343 96 331 100 218 100C227 72 235 45 242 19ZM158 485L235 485 235 588 158 588ZM290 485L370 485 370 588 290 588ZM158 325L235 325 235 426 158 426ZM290 325L370 325 370 426 290 426Z"/>
</svg>