<svg xmlns="http://www.w3.org/2000/svg" name="gid14600" data-unicode="鮧"
    viewBox="0 0 1000 1000">
  <!--
© 2014-2021 Adobe (http://www.adobe.com/).
Noto is a trademark of Google Inc.
This Font Software is licensed under the SIL Open Font License, Version 1.1. This Font Software is distributed on an "AS IS" BASIS, WITHOUT WARRANTIES OR CONDITIONS OF ANY KIND, either express or implied. See the SIL Open Font License for the specific language, permissions and limitations governing your use of this Font Software.
http://scripts.sil.org/OFL
  -->
<path d="M374 722C395 762 417 817 426 852L474 834C464 799 441 746 418 706ZM282 734C300 785 315 853 318 897L370 886C366 842 350 775 330 724ZM192 739C202 798 207 874 203 923L257 915C259 867 254 791 242 733ZM106 726C98 805 79 885 34 930L84 960C133 910 150 823 159 739ZM651 40L651 150 438 150 438 213 651 213 651 287 473 287 473 346 651 346 651 432 486 432C479 508 466 606 453 669L514 675 522 632 636 632C613 741 551 844 394 906 409 921 430 948 439 962 584 897 654 801 688 696 731 823 805 916 923 962 933 943 952 917 968 903 842 863 766 763 730 632L886 632C881 700 876 728 869 738 863 744 858 746 849 745 841 745 826 745 805 743 813 759 819 784 820 802 842 803 865 803 878 801 897 799 909 794 921 781 937 762 944 713 951 596 952 587 952 570 952 570L714 570C716 544 718 518 718 492L922 492 922 287 719 287 719 213 956 213 956 150 719 150 719 40ZM542 492L651 492C650 518 649 544 646 570L532 570ZM719 346L854 346 854 432 719 432ZM156 515L239 515 239 618 156 618ZM292 515L378 515 378 618 292 618ZM156 355L239 355 239 456 156 456ZM292 355L378 355 378 456 292 456ZM257 293L152 293C171 259 188 225 202 190L301 190C289 226 273 264 257 293ZM182 40C158 134 111 256 34 349 51 357 75 377 87 392L99 376 99 680 438 680 438 293 323 293C346 250 370 200 387 155L343 126 331 130 225 130C234 102 243 75 250 49Z"/>
</svg>