<svg xmlns="http://www.w3.org/2000/svg" name="gid14607" data-unicode="鮮"
    viewBox="0 0 1000 1000">
  <!--
© 2014-2021 Adobe (http://www.adobe.com/).
Noto is a trademark of Google Inc.
This Font Software is licensed under the SIL Open Font License, Version 1.1. This Font Software is distributed on an "AS IS" BASIS, WITHOUT WARRANTIES OR CONDITIONS OF ANY KIND, either express or implied. See the SIL Open Font License for the specific language, permissions and limitations governing your use of this Font Software.
http://scripts.sil.org/OFL
  -->
<path d="M395 724C427 781 461 858 473 908L525 888C511 839 477 764 443 706ZM296 734C318 790 336 863 341 911L393 898C388 851 369 778 345 723ZM202 732C213 792 217 869 214 918L269 911C271 862 266 785 254 726ZM111 725C102 804 82 885 36 931L87 961C137 910 155 823 165 739ZM836 39C819 94 787 172 760 221L807 235 618 235 662 218C650 170 620 97 589 42L527 64C555 116 583 186 595 235L499 235 499 302 680 302 680 432 520 432 520 498 680 498 680 636 488 636 488 704 680 704 680 959 752 959 752 704 963 704 963 636 752 636 752 498 922 498 922 432 752 432 752 302 939 302 939 235 823 235C852 189 884 120 912 59ZM324 190C309 225 290 263 272 292L159 292C177 259 194 224 208 190ZM186 39C163 134 114 257 36 351 53 360 77 380 90 395L102 379 102 680 472 680 472 292 343 292C369 250 395 201 414 155L370 126 357 130 231 130C240 102 249 75 256 49ZM164 515L256 515 256 618 164 618ZM312 515L407 515 407 618 312 618ZM164 354L256 354 256 456 164 456ZM312 354L407 354 407 456 312 456Z"/>
</svg>