<svg xmlns="http://www.w3.org/2000/svg"
    viewBox="0 0 1000 1000">
  <!--
© 2014-2021 Adobe (http://www.adobe.com/).
Noto is a trademark of Google Inc.
This Font Software is licensed under the SIL Open Font License, Version 1.1. This Font Software is distributed on an "AS IS" BASIS, WITHOUT WARRANTIES OR CONDITIONS OF ANY KIND, either express or implied. See the SIL Open Font License for the specific language, permissions and limitations governing your use of this Font Software.
http://scripts.sil.org/OFL
  -->
<path d="M371 692C391 732 412 786 420 821L469 803C461 768 439 715 417 676ZM280 704C298 754 313 821 316 864L367 853C364 811 348 744 328 694ZM192 709C202 768 207 844 203 893L257 885C259 837 254 761 242 703ZM106 696C98 775 79 855 34 900L84 930C133 880 150 793 159 709ZM156 485L239 485 239 588 156 588ZM292 485L378 485 378 588 292 588ZM156 325L239 325 239 426 156 426ZM292 325L378 325 378 426 292 426ZM256 263L150 263C169 229 184 195 198 160L303 160C290 196 273 234 256 263ZM177 10C154 104 108 226 34 319 51 327 74 347 87 361L99 345 99 650 438 650 438 263 323 263C348 220 372 170 390 125L347 96 334 100 220 100C229 72 237 45 244 19ZM623 162L749 162C732 200 711 241 691 273L563 273C585 239 605 201 623 162ZM606 9C571 127 511 244 439 319 456 330 485 352 496 365L497 364 497 583 650 583C619 713 556 816 414 879 429 891 449 915 457 931 597 865 668 762 704 634L704 814C704 873 710 889 728 901 744 914 770 919 792 919 805 919 841 919 856 919 875 919 900 916 915 910 931 902 943 891 950 871 956 854 960 803 961 755 941 750 916 737 901 725 901 774 900 812 897 829 895 845 889 853 882 856 875 860 862 861 850 861 836 861 816 861 805 861 794 861 786 859 779 856 773 852 771 841 771 821L771 583 934 583 934 273 765 273C793 228 822 173 841 126L794 96 783 99 650 99C660 75 668 51 676 26ZM561 337L677 337C674 401 670 462 662 519L561 519ZM743 337L868 337 868 519 728 519C736 462 740 401 743 337Z"/>
</svg>