<svg xmlns="http://www.w3.org/2000/svg"
    viewBox="0 0 1000 1000">
  <!--
© 2014-2021 Adobe (http://www.adobe.com/).
Noto is a trademark of Google Inc.
This Font Software is licensed under the SIL Open Font License, Version 1.1. This Font Software is distributed on an "AS IS" BASIS, WITHOUT WARRANTIES OR CONDITIONS OF ANY KIND, either express or implied. See the SIL Open Font License for the specific language, permissions and limitations governing your use of this Font Software.
http://scripts.sil.org/OFL
  -->
<path d="M364 694C383 731 403 780 410 812L459 793C451 762 431 714 409 678ZM275 704C295 756 310 825 314 869L364 858C360 814 343 745 322 694ZM189 705C200 764 203 839 200 889L252 881C255 833 250 757 239 699ZM104 696C96 775 77 855 34 901L84 931C132 880 148 793 157 709ZM554 262L838 262 838 354 554 354ZM554 113L838 113 838 204 554 204ZM487 52L487 416 567 416C535 491 484 561 427 611L427 263 317 263C340 221 364 170 382 125L339 96 326 100 216 100C226 72 234 45 241 19L172 10C150 102 106 223 34 314 50 323 73 343 86 357L93 348 93 650 427 650 427 634C440 644 456 657 463 665 495 637 527 601 556 561L627 561C585 663 517 754 437 814 451 824 473 845 483 856 566 785 642 680 689 561L760 561C724 696 661 814 572 890 587 899 610 919 620 930 711 843 782 714 822 561L882 561C871 762 860 839 844 858 836 867 829 869 815 869 802 869 771 869 736 865 746 883 753 909 754 928 789 930 824 930 844 928 869 926 885 919 899 900 925 870 937 780 948 529 949 520 950 499 950 499L596 499C611 472 625 444 637 416L907 416 907 52ZM296 160C283 196 266 234 251 263L146 263C165 229 180 195 194 160ZM152 485L232 485 232 590 152 590ZM286 485L366 485 366 590 286 590ZM152 323L232 323 232 427 152 427ZM286 323L366 323 366 427 286 427Z"/>
</svg>