<svg xmlns="http://www.w3.org/2000/svg" name="gid14647" data-unicode="鯮"
    viewBox="0 0 1000 1000">
  <!--
© 2014-2021 Adobe (http://www.adobe.com/).
Noto is a trademark of Google Inc.
This Font Software is licensed under the SIL Open Font License, Version 1.1. This Font Software is distributed on an "AS IS" BASIS, WITHOUT WARRANTIES OR CONDITIONS OF ANY KIND, either express or implied. See the SIL Open Font License for the specific language, permissions and limitations governing your use of this Font Software.
http://scripts.sil.org/OFL
  -->
<path d="M280 734C299 786 314 855 316 899L368 888C364 844 348 776 328 724ZM192 739C202 798 207 874 203 923L257 915C259 867 254 791 242 733ZM106 726C98 805 79 885 34 930L84 960C133 910 150 823 159 739ZM531 348L531 412 884 412 884 348ZM802 669C843 734 885 821 900 877L961 849C945 794 901 708 858 645ZM156 515L239 515 239 618 156 618ZM292 515L378 515 378 618 292 618ZM156 355L239 355 239 456 156 456ZM292 355L378 355 378 456 292 456ZM541 650C524 708 497 768 464 815 455 785 436 739 415 704L371 720C390 755 410 803 417 835L463 818 440 847C457 855 484 875 496 885 539 830 581 746 606 665ZM256 293L150 293C169 259 184 225 198 190L303 190C290 226 273 264 256 293ZM177 40C154 134 108 256 34 349 51 357 74 377 87 391L99 375 99 680 438 680 438 293 323 293C348 250 372 200 390 155L347 126 334 130 220 130C229 102 237 75 244 49ZM467 514L467 580 670 580 670 882C670 891 667 895 656 895 644 896 610 896 569 894 579 914 588 940 590 959 645 959 684 958 708 948 733 937 739 918 739 882L739 580 952 580 952 514ZM468 164L468 332 533 332 533 228 881 228 881 332 948 332 948 164 738 164 738 40 668 40 668 164Z"/>
</svg>