<svg xmlns="http://www.w3.org/2000/svg"
    viewBox="0 0 1000 1000">
  <!--
© 2014-2021 Adobe (http://www.adobe.com/).
Noto is a trademark of Google Inc.
This Font Software is licensed under the SIL Open Font License, Version 1.1. This Font Software is distributed on an "AS IS" BASIS, WITHOUT WARRANTIES OR CONDITIONS OF ANY KIND, either express or implied. See the SIL Open Font License for the specific language, permissions and limitations governing your use of this Font Software.
http://scripts.sil.org/OFL
  -->
<path d="M262 704C279 758 294 828 296 875L343 865C341 819 326 749 306 695ZM180 705C188 764 191 839 186 888L237 882C241 833 238 758 228 699ZM97 696C90 777 73 858 31 903L79 932C126 880 141 793 149 708ZM622 589C618 748 604 833 502 883 516 894 534 916 541 931 657 871 679 768 684 589ZM769 587L769 824C769 878 773 893 787 905 800 917 821 921 840 921 850 921 877 921 889 921 904 921 922 919 933 914 947 907 956 897 961 882 967 867 970 826 971 790 954 785 932 774 919 763 919 801 918 830 915 843 913 854 909 860 904 863 900 866 891 867 883 867 873 867 860 867 854 867 846 867 841 866 837 863 833 859 832 849 832 832L832 587ZM279 160C267 196 251 234 235 263L143 263C160 229 175 194 187 160ZM164 10C143 103 101 227 32 321 48 329 72 349 84 363L91 353 91 650 408 650 408 263 300 263C323 220 346 170 364 124L321 96 309 100 208 100C217 72 224 45 231 19ZM471 215L471 543C471 622 467 715 439 796 429 761 410 716 390 680L345 696C367 738 388 794 396 830L430 818C420 844 406 869 388 892 404 900 433 919 444 931 524 827 536 666 536 544L536 274 888 274C884 304 880 334 875 357L933 371C944 334 956 274 962 223L914 212 903 215 728 215 728 147 932 147 932 89 728 89 728 10 658 10 658 215ZM149 484L221 484 221 591 149 591ZM272 484L348 484 348 591 272 591ZM149 322L221 322 221 427 149 427ZM272 322L348 322 348 427 272 427ZM660 277L660 364 552 374 558 426 660 416 660 470C660 533 677 549 753 549 767 549 854 549 870 549 924 549 942 530 949 451 931 446 906 438 893 428 890 487 885 495 862 495 844 495 774 495 760 495 730 495 725 492 725 470L725 410 877 396 870 346 725 359 725 277Z"/>
</svg>