<svg xmlns="http://www.w3.org/2000/svg" name="gid14655" data-unicode="鯸"
    viewBox="0 0 1000 1000">
  <!--
© 2014-2021 Adobe (http://www.adobe.com/).
Noto is a trademark of Google Inc.
This Font Software is licensed under the SIL Open Font License, Version 1.1. This Font Software is distributed on an "AS IS" BASIS, WITHOUT WARRANTIES OR CONDITIONS OF ANY KIND, either express or implied. See the SIL Open Font License for the specific language, permissions and limitations governing your use of this Font Software.
http://scripts.sil.org/OFL
  -->
<path d="M345 726C372 782 397 856 407 903L455 887C444 840 418 767 390 711ZM262 734C279 788 293 858 295 905L343 895C341 849 326 779 306 725ZM180 735C188 794 191 869 186 918L237 912C241 863 238 788 228 729ZM97 726C90 807 73 888 31 933L79 962C126 910 141 823 149 738ZM279 190C267 226 251 264 235 293L143 293C160 259 175 224 187 190ZM551 39C522 179 474 313 408 408L408 293 300 293C323 250 346 200 364 154L321 126 309 130 208 130C217 102 224 75 231 49L164 40C143 133 101 257 32 351 48 359 72 379 84 393L91 383 91 680 408 680 408 459C417 473 426 489 430 498 454 468 476 433 496 396L496 958 558 958 558 257C582 193 602 124 617 54ZM149 514L221 514 221 621 149 621ZM272 514L348 514 348 621 272 621ZM149 352L221 352 221 457 149 457ZM272 352L348 352 348 457 272 457ZM590 264L590 326 961 326 961 264 887 264C893 209 899 139 903 81L646 81 646 142 833 142C830 184 825 227 821 264ZM583 622L583 685 732 685C719 763 682 851 576 915 592 927 613 948 622 962 707 906 753 838 777 771 810 853 858 921 925 959 934 943 954 919 969 907 891 868 838 783 809 685L956 685 956 622 803 622 803 597 803 494 939 494 939 432 706 432C716 406 724 378 731 351L668 338C648 418 616 499 573 555 589 563 616 580 629 589 648 563 666 530 682 494L738 494 738 596 738 622Z"/>
</svg>