<svg xmlns="http://www.w3.org/2000/svg"
    viewBox="0 0 1000 1000">
  <!--
© 2014-2021 Adobe (http://www.adobe.com/).
Noto is a trademark of Google Inc.
This Font Software is licensed under the SIL Open Font License, Version 1.1. This Font Software is distributed on an "AS IS" BASIS, WITHOUT WARRANTIES OR CONDITIONS OF ANY KIND, either express or implied. See the SIL Open Font License for the specific language, permissions and limitations governing your use of this Font Software.
http://scripts.sil.org/OFL
  -->
<path d="M364 696C392 751 420 824 430 871L481 853C469 806 440 734 410 679ZM275 704C296 758 313 830 317 877L367 865C362 819 344 748 322 693ZM189 705C200 764 204 839 200 889L253 881C255 832 250 757 239 698ZM104 696C96 775 77 855 34 901L84 931C132 880 148 793 157 709ZM294 160C281 196 264 234 249 263L147 263C165 229 180 195 193 160ZM602 10C595 46 586 80 575 113L446 113 446 173 553 173C522 248 481 312 427 360L427 263 314 263C338 221 362 170 380 125L337 96 324 100 214 100C223 73 231 46 238 20L171 11C149 105 105 229 32 322 48 330 72 349 84 364L96 347 96 650 427 650 427 372C442 384 463 405 472 415 521 370 562 312 595 245L595 289 699 289 699 368 527 368 527 425 942 425 942 368 766 368 766 289 891 289 891 234 600 234C610 214 618 194 626 173L951 173 951 113 647 113C656 83 663 52 670 20ZM155 485L232 485 232 590 155 590ZM286 485L366 485 366 590 286 590ZM155 323L232 323 232 427 155 427ZM286 323L366 323 366 427 286 427ZM838 653L838 720 579 720 579 653ZM838 600L579 600 579 534 838 534ZM510 479L510 930 579 930 579 775 838 775 838 857C838 867 834 870 823 870 813 870 778 870 740 869 749 886 758 912 761 929 816 929 852 929 876 919 900 908 906 891 906 857L906 479Z"/>
</svg>