<svg xmlns="http://www.w3.org/2000/svg" name="gid14683" data-unicode="鰝"
    viewBox="0 0 1000 1000">
  <!--
© 2014-2021 Adobe (http://www.adobe.com/).
Noto is a trademark of Google Inc.
This Font Software is licensed under the SIL Open Font License, Version 1.1. This Font Software is distributed on an "AS IS" BASIS, WITHOUT WARRANTIES OR CONDITIONS OF ANY KIND, either express or implied. See the SIL Open Font License for the specific language, permissions and limitations governing your use of this Font Software.
http://scripts.sil.org/OFL
  -->
<path d="M596 316L809 316 809 410 596 410ZM532 260L532 466 875 466 875 260ZM364 725C386 769 410 830 418 868L466 850C457 812 433 753 408 709ZM274 734C295 788 312 858 315 904L365 893C360 847 343 777 321 723ZM188 737C199 796 203 870 199 918L252 911C254 863 249 789 238 731ZM104 726C96 805 77 885 34 931L84 961C132 910 148 823 157 739ZM449 143L449 205 953 205 953 143 736 143 736 44 664 44 664 143ZM471 521L471 960 534 960 534 582 874 582 874 890C874 900 871 903 861 903 852 904 822 904 788 903 796 920 805 944 807 960 856 960 889 960 911 950 933 941 938 923 938 891L938 521ZM647 688L761 688 761 779 647 779ZM593 637L593 872 647 872 647 830 814 830 814 637ZM293 190C279 226 262 264 246 293L145 293C162 259 178 224 191 190ZM171 41C149 135 105 259 32 352 48 360 71 379 82 393L96 374 96 680 423 680 423 293 312 293C336 251 361 200 379 154L336 126 324 130 212 130C221 103 229 76 236 50ZM155 515L229 515 229 620 155 620ZM284 515L361 515 361 620 284 620ZM155 353L229 353 229 457 155 457ZM284 353L361 353 361 457 284 457Z"/>
</svg>