<svg xmlns="http://www.w3.org/2000/svg" name="gid14686" data-unicode="鰢"
    viewBox="0 0 1000 1000">
  <!--
© 2014-2021 Adobe (http://www.adobe.com/).
Noto is a trademark of Google Inc.
This Font Software is licensed under the SIL Open Font License, Version 1.1. This Font Software is distributed on an "AS IS" BASIS, WITHOUT WARRANTIES OR CONDITIONS OF ANY KIND, either express or implied. See the SIL Open Font License for the specific language, permissions and limitations governing your use of this Font Software.
http://scripts.sil.org/OFL
  -->
<path d="M365 724C384 762 404 813 412 847L459 829C450 797 430 746 409 709ZM275 734C295 786 311 855 315 899L364 887C360 843 343 775 322 723ZM189 735C200 794 204 869 200 919L253 911C255 862 250 787 239 728ZM104 726C96 805 77 885 34 931L84 961C132 910 148 823 157 739ZM577 692C588 750 595 825 593 874L645 866C646 817 639 743 627 684ZM667 680C687 728 707 791 712 832L762 817C755 776 735 714 714 667ZM489 684C483 761 470 845 437 895L489 921C524 867 536 777 543 696ZM294 190C281 226 264 264 249 293L147 293C165 259 180 225 193 190ZM171 41C149 135 105 259 32 352 48 360 72 379 84 394L96 377 96 680 427 680 427 293 314 293C338 251 362 200 380 155L337 126 324 130 214 130C223 103 231 76 238 50ZM155 515L232 515 232 620 155 620ZM286 515L366 515 366 620 286 620ZM155 353L232 353 232 457 155 457ZM286 353L366 353 366 457 286 457ZM678 302L678 395 558 395 558 302ZM491 84L491 616 873 616C871 671 867 716 864 753 851 722 823 673 795 638L754 656C780 693 808 744 819 776L864 756C856 839 847 877 836 890 828 899 820 901 807 900 793 901 759 900 723 897 733 914 740 941 741 959 778 961 815 961 835 959 860 957 876 950 891 932 917 902 929 817 941 582 942 572 942 551 942 551L744 551 744 457 888 457 888 395 744 395 744 302 888 302 888 241 744 241 744 148 915 148 915 84ZM678 241L558 241 558 148 678 148ZM678 457L678 551 558 551 558 457Z"/>
</svg>