<svg xmlns="http://www.w3.org/2000/svg" name="gid14691" data-unicode="鰧"
    viewBox="0 0 1000 1000">
  <!--
© 2014-2021 Adobe (http://www.adobe.com/).
Noto is a trademark of Google Inc.
This Font Software is licensed under the SIL Open Font License, Version 1.1. This Font Software is distributed on an "AS IS" BASIS, WITHOUT WARRANTIES OR CONDITIONS OF ANY KIND, either express or implied. See the SIL Open Font License for the specific language, permissions and limitations governing your use of this Font Software.
http://scripts.sil.org/OFL
  -->
<path d="M551 839C565 875 581 922 587 953L642 935C635 905 618 859 603 825ZM674 836C695 871 719 919 731 950L783 928C772 898 746 852 724 817ZM800 835C838 873 882 927 903 961L954 928C932 894 887 843 847 806ZM451 815C435 863 404 905 364 927L412 961C459 933 491 880 507 828ZM574 489L682 489C670 508 657 527 644 543L527 543C543 526 559 508 574 489ZM581 377C548 445 477 524 408 575 420 583 439 601 449 613L454 609 454 804 870 804 870 543 709 543C729 518 748 489 763 461L726 436 716 439 612 439 639 396ZM163 326C199 352 236 385 256 409L277 385 277 572C251 547 216 520 186 499L162 522 163 445ZM163 293L163 156 277 156 277 339C251 316 216 290 185 270ZM469 63C452 118 413 183 369 225 383 233 406 249 419 259 437 241 455 220 471 196L471 225 550 225C538 251 525 276 511 300L368 300 368 359 470 359C434 404 392 442 343 474L343 87 98 87 98 445C98 591 94 790 31 931 48 937 77 953 89 963 140 849 156 690 161 553 198 583 237 619 257 644L277 622 277 874C277 888 273 892 261 892 250 892 213 893 171 891 180 910 189 942 191 960 252 960 288 959 312 946 336 935 343 913 343 876L343 484C358 496 378 517 387 528 452 483 507 427 552 359L763 359C808 428 864 486 926 522 936 505 957 481 972 469 924 444 879 405 841 359L954 359 954 300 799 300C784 276 771 251 760 225L844 225 844 185C863 211 879 236 890 257L945 224C921 179 868 111 822 62L768 90C789 113 810 139 830 166L643 166C654 129 665 91 673 50L607 39C598 84 587 126 573 166L490 166C507 137 522 107 533 79ZM517 696L627 696 627 756 517 756ZM687 696L804 696 804 756 687 756ZM517 590L627 590 627 649 517 649ZM687 590L804 590 804 649 687 649ZM695 225C705 251 716 276 729 300L587 300C599 276 611 251 621 225Z"/>
</svg>