<svg xmlns="http://www.w3.org/2000/svg"
    viewBox="0 0 1000 1000">
  <!--
© 2014-2021 Adobe (http://www.adobe.com/).
Noto is a trademark of Google Inc.
This Font Software is licensed under the SIL Open Font License, Version 1.1. This Font Software is distributed on an "AS IS" BASIS, WITHOUT WARRANTIES OR CONDITIONS OF ANY KIND, either express or implied. See the SIL Open Font License for the specific language, permissions and limitations governing your use of this Font Software.
http://scripts.sil.org/OFL
  -->
<path d="M364 696C392 751 420 824 430 871L481 853C469 806 440 734 410 679ZM275 704C296 758 313 830 317 877L367 865C362 819 344 748 322 693ZM189 705C200 764 204 839 200 889L253 881C255 832 250 757 239 698ZM104 696C96 775 77 855 34 901L84 931C132 880 148 793 157 709ZM171 11C149 105 105 229 32 322 48 330 72 349 84 364L96 347 96 650 427 650 427 450 451 478C484 462 516 444 548 425L548 468C548 533 573 549 670 549 690 549 842 549 863 549 931 549 952 529 959 445 941 442 916 433 901 424 898 486 891 496 855 496 824 496 698 496 675 496 625 496 615 492 615 467L615 436C713 424 829 401 906 373L862 328C804 351 705 373 615 388L615 382C658 353 699 321 738 286L957 286 957 227 799 227C853 172 902 111 942 45L880 23C855 64 827 102 795 139L795 92 665 92 665 10 595 10 595 92 459 92 459 150 595 150 595 227 437 227 437 286 639 286C617 303 594 320 570 335L548 335 548 349C509 374 468 396 427 415L427 263 314 263C338 221 362 170 380 125L337 96 324 100 214 100C223 73 231 46 238 20ZM665 150L786 150C762 177 737 203 710 227L665 227ZM499 593L499 931 566 931 566 897 845 897 845 931 916 931 916 593ZM566 840L566 770 845 770 845 840ZM566 718L566 649 845 649 845 718ZM294 160C281 196 264 234 249 263L147 263C165 229 180 195 193 160ZM155 485L232 485 232 590 155 590ZM286 485L366 485 366 590 286 590ZM155 323L232 323 232 427 155 427ZM286 323L366 323 366 427 286 427Z"/>
</svg>