<svg xmlns="http://www.w3.org/2000/svg" name="gid14700" data-unicode="鰲"
    viewBox="0 0 1000 1000">
  <!--
© 2014-2021 Adobe (http://www.adobe.com/).
Noto is a trademark of Google Inc.
This Font Software is licensed under the SIL Open Font License, Version 1.1. This Font Software is distributed on an "AS IS" BASIS, WITHOUT WARRANTIES OR CONDITIONS OF ANY KIND, either express or implied. See the SIL Open Font License for the specific language, permissions and limitations governing your use of this Font Software.
http://scripts.sil.org/OFL
  -->
<path d="M191 826C163 863 111 898 47 916L107 961C178 937 224 899 256 855ZM338 845C350 879 359 924 360 954L430 941C428 912 417 867 403 834ZM523 850C550 881 581 926 596 955L662 931C647 902 617 861 589 830ZM726 859C783 885 852 930 888 962L950 921C914 890 845 848 788 823ZM53 173L53 219 248 219 248 261 68 261 68 307 193 307C173 384 122 439 47 473 61 483 85 507 94 518 153 487 200 443 231 385L388 385C382 412 376 425 369 431 363 437 357 438 345 438 334 438 305 438 274 434 280 447 285 465 286 478L300 479C246 530 159 583 48 622 64 633 87 655 98 671 129 658 158 645 186 630L186 811 844 811 844 581 602 581C625 562 646 541 663 520L623 491 610 494 377 494 393 477C403 475 412 471 421 464 438 450 446 423 456 365 457 357 458 341 458 341L249 341 259 307 482 307 482 262C497 273 517 290 526 299 545 283 564 265 581 245 603 286 629 324 660 358 608 390 546 414 477 431 489 444 508 474 514 489 586 467 651 440 706 403 765 455 837 494 919 519 930 501 949 474 964 460 886 440 817 406 759 361 809 317 847 262 872 194L942 194 942 135 657 135C670 109 682 83 692 55L626 41C597 127 542 204 473 256L480 261 316 261 316 219 497 219 497 173 316 173 316 129 458 129 458 84 316 84 316 39 248 39 248 84 105 84 105 129 248 129 248 173ZM800 194C780 244 750 285 712 319 676 282 647 240 626 194ZM564 541C551 555 535 569 520 581L269 581C289 568 307 555 324 541ZM545 624L771 624 771 675 541 675 541 627ZM257 716L471 716 471 769 257 769ZM541 716L771 716 771 769 541 769ZM257 624L471 624 471 675 257 675Z"/>
</svg>