<svg xmlns="http://www.w3.org/2000/svg" name="gid14714" data-unicode="鱇"
    viewBox="0 0 1000 1000">
  <!--
© 2014-2021 Adobe (http://www.adobe.com/).
Noto is a trademark of Google Inc.
This Font Software is licensed under the SIL Open Font License, Version 1.1. This Font Software is distributed on an "AS IS" BASIS, WITHOUT WARRANTIES OR CONDITIONS OF ANY KIND, either express or implied. See the SIL Open Font License for the specific language, permissions and limitations governing your use of this Font Software.
http://scripts.sil.org/OFL
  -->
<path d="M487 841L518 897C566 866 620 831 673 797L655 747C592 784 530 820 487 841ZM531 624C560 656 589 700 602 730L651 700C638 671 607 629 576 598ZM262 734C279 788 294 858 296 905L343 895C341 849 326 779 306 725ZM180 735C188 794 191 869 186 918L237 912C241 863 238 788 228 729ZM97 726C90 807 73 888 31 933L79 962C126 910 141 823 149 738ZM345 726C367 768 388 824 396 860L413 854C405 876 394 898 382 918 397 924 425 943 437 954 510 837 521 655 521 520L521 199 948 199 948 137 736 137 736 46 668 46 668 137 457 137 457 520C457 606 454 708 430 800 420 771 405 738 390 710ZM850 446L850 517 745 517 745 446ZM889 590C866 623 827 668 795 701 774 667 757 630 745 592L745 571 910 571 910 446 965 446 965 393 910 393 910 271 745 271 745 207 682 207 682 271 559 271 559 325 682 325 682 393 524 393 524 446 682 446 682 517 556 517 556 571 682 571 682 884C682 896 679 900 668 900 656 900 621 900 581 899 590 917 599 943 602 959 656 959 692 958 714 948 738 937 745 919 745 884L745 717C787 801 848 872 920 911 930 894 950 871 964 859 909 835 861 794 823 743 858 710 900 667 937 625ZM850 393L745 393 745 325 850 325ZM279 190C267 226 251 264 235 293L143 293C160 259 174 224 187 190ZM164 40C143 133 101 257 32 351 48 359 72 378 84 392L91 382 91 680 408 680 408 293 300 293C323 250 346 200 364 154L321 126 309 130 207 130C216 102 224 75 230 49ZM149 514L221 514 221 621 149 621ZM272 514L348 514 348 621 272 621ZM149 352L221 352 221 457 149 457ZM272 352L348 352 348 457 272 457Z"/>
</svg>