<svg xmlns="http://www.w3.org/2000/svg"
    viewBox="0 0 1000 1000">
  <!--
© 2014-2021 Adobe (http://www.adobe.com/).
Noto is a trademark of Google Inc.
This Font Software is licensed under the SIL Open Font License, Version 1.1. This Font Software is distributed on an "AS IS" BASIS, WITHOUT WARRANTIES OR CONDITIONS OF ANY KIND, either express or implied. See the SIL Open Font License for the specific language, permissions and limitations governing your use of this Font Software.
http://scripts.sil.org/OFL
  -->
<path d="M251 704C268 759 281 830 281 876L328 868C326 821 313 750 294 696ZM172 706C179 766 180 840 175 889L223 884C228 835 227 760 218 701ZM90 697C84 776 70 857 31 903L78 931C121 880 135 792 142 708ZM269 159C257 195 242 233 226 263L136 263C153 229 168 194 180 159ZM157 10C137 102 96 225 30 319 45 326 68 345 80 359L85 352 85 650 390 650 390 263 289 263C311 220 334 170 351 124L310 96 297 100 200 100C208 72 216 44 222 18ZM141 484L211 484 211 592 141 592ZM259 484L333 484 333 592 259 592ZM141 321L211 321 211 428 141 428ZM259 321L333 321 333 428 259 428ZM650 10L650 78 464 78 464 133 650 133 650 191 415 191 415 245 650 245 650 307 464 307 464 360 655 360 655 624 501 624 501 620 501 575 607 575 607 409 563 409 563 530 501 530 501 395 444 395 444 620C444 686 441 750 422 807 413 770 395 720 376 681L333 695C353 738 372 796 379 833L417 820C407 846 394 870 376 893 390 901 413 919 424 932 460 886 480 832 490 774L564 774 564 922 608 922 608 729 496 729 500 680 655 680 655 930 709 930 709 680 869 680 869 729 754 729 754 922 799 922 799 774 869 774 869 930 928 930 928 393 869 393 869 530 799 530 799 409 755 409 755 575 869 575 869 624 709 624 709 360 907 360 907 245 962 245 962 191 907 191 907 78 714 78 714 10ZM845 245L845 307 714 307 714 245ZM845 191L714 191 714 133 845 133Z"/>
</svg>