<svg xmlns="http://www.w3.org/2000/svg"
    viewBox="0 0 1000 1000">
  <!--
© 2014-2021 Adobe (http://www.adobe.com/).
Noto is a trademark of Google Inc.
This Font Software is licensed under the SIL Open Font License, Version 1.1. This Font Software is distributed on an "AS IS" BASIS, WITHOUT WARRANTIES OR CONDITIONS OF ANY KIND, either express or implied. See the SIL Open Font License for the specific language, permissions and limitations governing your use of this Font Software.
http://scripts.sil.org/OFL
  -->
<path d="M347 694C373 745 398 813 408 856L456 839C445 796 418 729 392 678ZM262 704C279 757 294 826 297 871L346 860C343 816 328 746 308 694ZM178 705C187 764 190 839 186 889L238 881C242 833 238 757 228 699ZM94 697C87 775 71 856 31 901L80 931C125 879 139 792 147 710ZM512 749C558 782 609 830 633 863L682 821C657 788 604 742 559 712ZM753 433L865 433 865 523 753 523ZM696 383L696 573 926 573 926 383ZM277 160C264 196 248 234 232 263L141 263C158 229 173 194 186 160ZM165 10C144 103 102 227 32 321 47 329 70 348 82 362L89 352 89 650 409 650 409 263 296 263C319 220 343 170 361 124L319 96 306 100 207 100C215 72 223 44 230 18ZM148 485L219 485 219 590 148 590ZM273 485L348 485 348 590 273 590ZM148 323L219 323 219 427 148 427ZM273 323L348 323 348 427 273 427ZM439 163L439 219 820 219 820 280 488 280 488 334 885 334 885 219 960 219 960 163 885 163 885 50 491 50 491 103 820 103 820 163ZM440 545L450 599C516 588 593 574 672 560L669 509 590 522 590 440 668 440 668 388 450 388 450 440 527 440 527 532ZM770 589L770 653 438 653 438 711 770 711 770 856C770 866 767 870 754 870 742 871 703 871 656 870 664 888 674 913 676 930 738 930 778 930 804 920 831 910 837 892 837 857L837 711 960 711 960 653 837 653 837 589Z"/>
</svg>