<svg xmlns="http://www.w3.org/2000/svg" name="gid14730" data-unicode="鱝"
    viewBox="0 0 1000 1000">
  <!--
© 2014-2021 Adobe (http://www.adobe.com/).
Noto is a trademark of Google Inc.
This Font Software is licensed under the SIL Open Font License, Version 1.1. This Font Software is distributed on an "AS IS" BASIS, WITHOUT WARRANTIES OR CONDITIONS OF ANY KIND, either express or implied. See the SIL Open Font License for the specific language, permissions and limitations governing your use of this Font Software.
http://scripts.sil.org/OFL
  -->
<path d="M553 569L839 569 839 632 553 632ZM553 681L839 681 839 745 553 745ZM553 458L839 458 839 520 553 520ZM486 406L486 797 908 797 908 406ZM743 837C805 876 874 925 914 960L978 930C933 894 859 845 792 806ZM593 805C549 847 475 888 406 916 422 927 448 949 460 961 527 929 607 878 657 827ZM357 722C380 767 403 828 412 868L459 849C450 811 426 751 401 706ZM268 732C288 787 305 858 309 905L358 894C354 849 337 776 315 723ZM182 737C192 796 196 871 192 921L245 913C248 864 243 789 232 730ZM95 725C87 801 69 883 28 930L77 959C122 907 139 819 149 737ZM662 40L662 113 470 113 470 170 662 170 662 249 726 249 726 170 929 170 929 113 726 113 726 40ZM787 194L787 270 602 270 602 194 540 194 540 270 434 270 434 327 540 327 540 387 602 387 602 327 787 327 787 387 851 387 851 327 961 327 961 270 851 270 851 194ZM281 190C268 226 251 264 234 293L139 293C157 259 173 224 186 190ZM169 41C147 135 102 259 28 352 44 360 66 378 77 392L88 377 88 680 412 680 412 293 298 293C322 250 346 199 364 154L323 126 311 130 208 130C217 102 225 76 232 50ZM147 515L220 515 220 619 147 619ZM274 515L351 515 351 619 274 619ZM147 354L220 354 220 457 147 457ZM274 354L351 354 351 457 274 457Z"/>
</svg>