<svg xmlns="http://www.w3.org/2000/svg"
    viewBox="0 0 1000 1000">
  <!--
© 2014-2021 Adobe (http://www.adobe.com/).
Noto is a trademark of Google Inc.
This Font Software is licensed under the SIL Open Font License, Version 1.1. This Font Software is distributed on an "AS IS" BASIS, WITHOUT WARRANTIES OR CONDITIONS OF ANY KIND, either express or implied. See the SIL Open Font License for the specific language, permissions and limitations governing your use of this Font Software.
http://scripts.sil.org/OFL
  -->
<path d="M456 444L456 501 954 501 954 444ZM571 600L835 600 835 684 571 684ZM364 696C387 740 411 800 420 838L470 819C459 781 435 723 410 679ZM275 704C295 758 312 828 316 875L365 864C361 818 343 747 322 694ZM189 705C200 764 203 839 200 889L252 881C255 833 250 757 239 699ZM104 696C96 775 77 855 34 901L84 931C132 880 148 793 157 709ZM554 757C568 786 582 822 590 852L438 852 438 910 962 910 962 852 808 852C825 824 846 789 864 755L796 735C785 768 764 818 746 852L649 852 655 850C648 820 630 773 610 739ZM478 87L478 391 933 391 933 87 799 87 799 10 738 10 738 87 664 87 664 10 603 10 603 87ZM537 264L614 264 614 337 537 337ZM664 264L738 264 738 337 664 337ZM789 264L871 264 871 337 789 337ZM537 141L614 141 614 213 537 213ZM664 141L738 141 738 213 664 213ZM789 141L871 141 871 213 789 213ZM505 549L505 735 905 735 905 549ZM294 160C281 196 264 234 249 263L148 263C166 229 181 194 194 160ZM170 10C149 104 106 227 34 321 50 330 74 349 87 364L96 351 96 650 427 650 427 263 314 263C338 221 362 170 380 125L337 96 324 100 215 100C224 72 231 45 238 19ZM155 485L232 485 232 590 155 590ZM286 485L366 485 366 590 286 590ZM155 323L232 323 232 427 155 427ZM286 323L366 323 366 427 286 427Z"/>
</svg>