<svg xmlns="http://www.w3.org/2000/svg"
    viewBox="0 0 1000 1000">
  <!--
© 2014-2021 Adobe (http://www.adobe.com/).
Noto is a trademark of Google Inc.
This Font Software is licensed under the SIL Open Font License, Version 1.1. This Font Software is distributed on an "AS IS" BASIS, WITHOUT WARRANTIES OR CONDITIONS OF ANY KIND, either express or implied. See the SIL Open Font License for the specific language, permissions and limitations governing your use of this Font Software.
http://scripts.sil.org/OFL
  -->
<path d="M546 193L834 193 834 250 546 250ZM546 91L834 91 834 146 546 146ZM364 688C389 737 415 804 424 847L471 829C461 787 435 722 408 673ZM278 705C298 760 314 831 317 878L366 866C362 821 345 748 324 694ZM190 711C200 771 205 848 200 898L252 891C255 842 251 765 239 705ZM102 696C94 772 75 854 34 901L84 930C129 878 146 791 156 709ZM874 312C854 343 831 372 806 401L806 358 685 358 685 299 901 299 901 42 481 42 481 299 618 299 618 358 477 358 477 411 618 411 618 480 445 480 445 534 658 534C587 586 509 630 429 664 443 676 464 703 473 715 496 704 520 692 543 679L543 929 610 929 610 899 834 899 834 927 903 927 903 611 836 611 865 587C850 570 819 548 792 534L960 534 960 480 812 480C857 435 898 387 933 335ZM153 485L232 485 232 590 153 590ZM286 485L366 485 366 590 286 590ZM153 323L232 323 232 427 153 427ZM286 323L366 323 366 427 286 427ZM246 263L148 263C166 229 181 195 195 160L288 160C276 196 261 234 246 263ZM174 11C152 105 107 229 32 322 49 330 72 349 84 364L95 349 95 650 427 650 427 263 310 263C332 220 355 170 372 124L329 96 317 100 216 100C225 73 233 46 240 20ZM685 411L797 411C774 435 751 458 725 480L685 480ZM747 561C772 575 799 594 816 611L652 611C687 587 721 561 753 534L782 534ZM610 779L834 779 834 844 610 844ZM610 728L610 665 834 665 834 728Z"/>
</svg>