<svg xmlns="http://www.w3.org/2000/svg"
    viewBox="0 0 1000 1000">
  <!--
© 2014-2021 Adobe (http://www.adobe.com/).
Noto is a trademark of Google Inc.
This Font Software is licensed under the SIL Open Font License, Version 1.1. This Font Software is distributed on an "AS IS" BASIS, WITHOUT WARRANTIES OR CONDITIONS OF ANY KIND, either express or implied. See the SIL Open Font License for the specific language, permissions and limitations governing your use of this Font Software.
http://scripts.sil.org/OFL
  -->
<path d="M364 695C386 737 409 794 417 831L467 812C457 777 434 720 410 679ZM275 704C295 757 311 826 315 871L365 860C360 815 343 746 322 694ZM189 705C200 765 203 840 200 890L252 883C255 834 250 758 239 699ZM104 696C96 775 77 855 34 901L84 931C132 880 148 793 157 709ZM870 8C775 38 599 63 453 77 460 91 469 115 472 130 623 118 804 95 922 59ZM597 375L597 466C597 524 611 538 676 538 687 538 754 538 766 538 811 538 828 521 834 452 817 448 794 440 783 431 780 481 776 487 758 487 744 487 692 487 682 487 660 487 656 485 656 466L656 375ZM814 399C852 441 894 501 911 540L962 511C943 473 902 415 862 374ZM294 160C281 196 264 234 249 263L148 263C165 229 180 195 193 160ZM170 10C149 104 106 227 34 321 50 329 74 348 86 363L96 349 96 650 427 650 427 263 314 263C338 221 362 170 380 125L337 96 324 100 214 100C223 72 231 45 237 19ZM155 485L232 485 232 590 155 590ZM286 485L366 485 366 590 286 590ZM155 323L232 323 232 427 155 427ZM286 323L366 323 366 427 286 427ZM619 330C662 349 717 384 746 409L782 369C756 348 709 320 667 301L883 301 883 383 947 383 947 244 849 244C870 211 894 166 916 124L850 105C836 144 810 200 788 237L811 244 693 244 740 226C733 196 714 149 696 113L642 133C658 168 675 213 681 244L573 244 601 231C592 204 571 161 550 129L498 149C514 178 530 216 541 244L469 244 469 383 531 383 531 301 647 301ZM519 383C507 430 482 485 448 516L497 546C535 511 556 453 570 401ZM624 655L801 655C778 694 747 729 710 759 671 729 640 696 618 663ZM630 534C590 612 522 685 448 734 463 745 487 768 496 779 524 759 552 734 579 707 600 737 626 766 659 794 594 834 517 862 439 878 451 892 467 917 474 932 558 912 639 880 709 833 770 875 844 910 930 931 940 914 958 887 971 874 890 857 819 829 762 794 816 748 860 690 888 620L846 600 834 603 662 603C673 586 683 569 692 552Z"/>
</svg>