<svg xmlns="http://www.w3.org/2000/svg" name="gid14761" data-unicode="鳳"
    viewBox="0 0 1000 1000">
  <!--
© 2014-2021 Adobe (http://www.adobe.com/).
Noto is a trademark of Google Inc.
This Font Software is licensed under the SIL Open Font License, Version 1.1. This Font Software is distributed on an "AS IS" BASIS, WITHOUT WARRANTIES OR CONDITIONS OF ANY KIND, either express or implied. See the SIL Open Font License for the specific language, permissions and limitations governing your use of this Font Software.
http://scripts.sil.org/OFL
  -->
<path d="M264 762C248 814 217 869 171 900L216 931C266 896 295 836 313 780ZM345 775C355 820 360 876 358 912L406 906C408 870 402 813 392 770ZM437 776C456 812 473 861 479 894L526 880C519 848 500 800 480 764ZM535 769C560 796 585 834 596 860L639 840C626 814 601 778 575 752ZM147 92L147 347C147 514 137 749 34 918 51 926 82 947 95 960 203 782 219 523 219 347L219 158 779 158C782 589 779 960 901 960 952 959 966 908 974 779 960 768 941 745 928 726 927 814 921 881 909 881 850 881 849 457 850 92ZM288 312L288 729 689 729C681 834 674 875 661 888 654 895 647 896 634 896 621 896 587 896 550 892 559 907 565 930 566 946 604 948 642 948 662 947 685 946 701 940 716 925 736 903 745 849 754 708 755 699 756 682 756 682L357 682 357 636 754 636 754 589 357 589 357 544 691 544 691 312 501 312 526 258 746 258 746 208 252 208 252 258 453 258 437 312ZM357 449L623 449 623 499 357 499ZM357 405L357 358 623 358 623 405Z"/>
</svg>