<svg xmlns="http://www.w3.org/2000/svg"
    viewBox="0 0 1000 1000">
  <!--
© 2014-2021 Adobe (http://www.adobe.com/).
Noto is a trademark of Google Inc.
This Font Software is licensed under the SIL Open Font License, Version 1.1. This Font Software is distributed on an "AS IS" BASIS, WITHOUT WARRANTIES OR CONDITIONS OF ANY KIND, either express or implied. See the SIL Open Font License for the specific language, permissions and limitations governing your use of this Font Software.
http://scripts.sil.org/OFL
  -->
<path d="M173 777C155 826 114 871 55 895L110 933C176 904 212 855 234 799ZM302 798C316 836 329 887 331 921L396 908C393 874 379 824 362 787ZM455 801C478 834 501 880 511 909L572 891C560 862 536 818 511 786ZM607 804C632 827 659 861 671 884L725 858C712 835 684 804 658 782ZM202 383L202 765 823 765C812 833 801 863 789 875 783 881 775 882 762 882 750 882 720 882 687 878 695 892 701 915 702 928 739 931 774 931 792 930 814 929 830 924 844 912 866 892 881 849 894 746 896 736 898 718 898 718L275 718 275 679 944 679 944 633 275 633 275 594 822 594 822 383 529 383C537 370 546 357 555 341L560 353C619 338 676 316 728 287 788 327 857 357 929 376 938 358 957 334 972 320 905 306 841 283 785 252 849 205 901 145 932 68L891 50 879 53 537 53 537 108 620 108 569 126C596 171 632 212 675 248 628 271 577 288 525 299 532 307 540 317 547 328L482 322C477 339 466 362 456 383ZM627 108L842 108C815 151 776 187 730 217 687 185 652 148 627 108ZM260 8L221 70 59 70 59 125 184 125C157 164 130 201 107 230L165 252 174 240C205 249 238 259 269 271 201 309 121 335 37 349 49 362 64 389 70 405 169 385 263 351 339 298 378 314 412 331 438 345L480 296C456 284 426 270 392 256 442 211 482 155 507 85L466 67 454 70 295 70 325 25ZM258 125L420 125C397 167 366 202 328 232 288 217 247 204 209 194ZM749 508L749 549 275 549 275 508ZM749 466L275 466 275 427 749 427Z"/>
</svg>