<svg xmlns="http://www.w3.org/2000/svg" name="gid14778" data-unicode="鴘"
    viewBox="0 0 1000 1000">
  <!--
© 2014-2021 Adobe (http://www.adobe.com/).
Noto is a trademark of Google Inc.
This Font Software is licensed under the SIL Open Font License, Version 1.1. This Font Software is distributed on an "AS IS" BASIS, WITHOUT WARRANTIES OR CONDITIONS OF ANY KIND, either express or implied. See the SIL Open Font License for the specific language, permissions and limitations governing your use of this Font Software.
http://scripts.sil.org/OFL
  -->
<path d="M499 711C491 781 474 859 441 906L494 935C531 884 546 800 555 726ZM589 724C601 777 610 845 609 889L658 881C658 837 648 769 636 718ZM676 715C696 759 714 816 721 854L767 841C760 804 739 747 719 704ZM757 696C780 728 807 773 818 803L860 784C847 756 821 712 795 680ZM141 381L141 521 38 521 38 589 141 589C138 699 122 818 37 915 54 926 79 948 90 963 186 853 205 717 208 589L327 589 327 957 394 957 394 589 493 589 493 521 394 521 394 377 327 377 327 521 208 521 208 381ZM310 162C336 191 362 225 386 258L186 269C220 207 256 128 286 59L208 41C187 109 148 205 113 273L43 276 49 346 425 320C437 340 446 359 453 375L511 342C486 284 423 197 363 134ZM824 304L824 371 585 371 585 304ZM824 253L585 253 585 188 824 188ZM517 133L517 659 883 659C874 817 863 878 848 895 841 903 832 904 819 904 806 904 773 904 737 900 746 917 752 942 753 959 790 961 827 961 847 959 871 957 886 951 901 935 925 908 936 833 947 630 949 620 949 601 949 601L585 601 585 541 961 541 961 485 585 485 585 426 892 426 892 133 713 133 747 53 667 40C662 66 652 102 641 133Z"/>
</svg>