<svg xmlns="http://www.w3.org/2000/svg"
    viewBox="0 0 1000 1000">
  <!--
© 2014-2021 Adobe (http://www.adobe.com/).
Noto is a trademark of Google Inc.
This Font Software is licensed under the SIL Open Font License, Version 1.1. This Font Software is distributed on an "AS IS" BASIS, WITHOUT WARRANTIES OR CONDITIONS OF ANY KIND, either express or implied. See the SIL Open Font License for the specific language, permissions and limitations governing your use of this Font Software.
http://scripts.sil.org/OFL
  -->
<path d="M499 681C491 751 474 829 441 876L494 905C531 854 546 770 555 696ZM589 694C601 747 610 815 609 859L658 851C658 807 648 739 636 688ZM676 685C696 729 714 786 721 824L767 811C760 774 739 717 719 674ZM757 666C780 698 807 743 818 773L860 754C847 726 821 682 795 650ZM141 351L141 491 38 491 38 559 141 559C138 669 122 788 37 885 54 896 79 918 90 933 186 823 205 687 208 559L327 559 327 927 394 927 394 559 493 559 493 491 394 491 394 347 327 347 327 491 208 491 208 351ZM310 132C336 161 362 195 386 228L186 239C220 177 256 98 286 29L208 11C187 79 148 175 113 243L43 246 49 316 425 290C437 310 446 329 453 345L511 312C486 254 423 167 363 104ZM824 274L824 341 585 341 585 274ZM824 223L585 223 585 158 824 158ZM517 103L517 629 883 629C874 787 863 848 848 865 841 873 832 874 819 874 806 874 773 874 737 870 746 887 752 912 753 929 790 931 827 931 847 929 871 927 886 921 901 905 925 878 936 803 947 600 949 590 949 571 949 571L585 571 585 511 961 511 961 455 585 455 585 396 892 396 892 103 713 103 747 23 667 10C662 36 652 72 641 103Z"/>
</svg>