<svg xmlns="http://www.w3.org/2000/svg"
    viewBox="0 0 1000 1000">
  <!--
© 2014-2021 Adobe (http://www.adobe.com/).
Noto is a trademark of Google Inc.
This Font Software is licensed under the SIL Open Font License, Version 1.1. This Font Software is distributed on an "AS IS" BASIS, WITHOUT WARRANTIES OR CONDITIONS OF ANY KIND, either express or implied. See the SIL Open Font License for the specific language, permissions and limitations governing your use of this Font Software.
http://scripts.sil.org/OFL
  -->
<path d="M173 774C155 824 115 870 57 895L112 932C177 903 212 852 234 796ZM302 796C316 834 329 885 331 918L396 905C393 872 379 822 362 784ZM455 799C478 832 501 877 511 907L572 888C560 859 536 816 511 783ZM607 801C632 826 660 861 673 885L727 858C713 835 684 803 658 779ZM250 7C216 71 148 142 43 192 57 202 78 224 87 239 115 224 141 208 165 191 203 213 245 243 273 267 210 309 136 338 59 355 73 368 88 394 94 411 136 400 176 386 215 369L215 763 820 763C813 834 803 864 794 875 788 881 780 882 768 882 756 882 726 882 694 878 702 892 708 914 709 928 745 931 781 931 799 930 821 929 836 923 851 911 870 892 881 848 891 743 893 733 894 717 894 717L288 717 288 674 950 674 950 627 288 627 288 584 808 584 808 361 496 361C510 340 525 314 539 288L459 281C452 303 438 334 426 361L233 361C351 305 448 216 495 81L454 64 441 67 287 67C299 51 308 35 317 19ZM735 493L735 540 288 540 288 493ZM735 452L288 452 288 406 735 406ZM540 49L540 245C540 314 567 330 662 330 682 330 829 330 851 330 924 330 945 307 952 216 933 211 907 203 892 193 889 264 882 275 844 275 812 275 690 275 667 275 617 275 609 270 609 245L609 103 794 103 794 158C794 167 791 170 780 170 768 172 733 172 688 170 697 184 707 202 711 219 769 219 807 219 831 210 856 202 862 188 862 157L862 49ZM244 121L408 121C387 162 357 198 322 229 293 205 249 176 210 154 222 144 233 132 244 121Z"/>
</svg>