<svg xmlns="http://www.w3.org/2000/svg" name="gid14804" data-unicode="鵄"
    viewBox="0 0 1000 1000">
  <!--
© 2014-2021 Adobe (http://www.adobe.com/).
Noto is a trademark of Google Inc.
This Font Software is licensed under the SIL Open Font License, Version 1.1. This Font Software is distributed on an "AS IS" BASIS, WITHOUT WARRANTIES OR CONDITIONS OF ANY KIND, either express or implied. See the SIL Open Font License for the specific language, permissions and limitations governing your use of this Font Software.
http://scripts.sil.org/OFL
  -->
<path d="M488 703C478 778 457 856 414 902L466 934C514 883 534 798 544 719ZM577 731C589 784 597 852 597 896L646 888C645 844 637 776 623 724ZM667 721C686 765 705 823 711 860L757 847C750 810 730 754 709 710ZM749 703C772 735 799 780 810 810L851 791C839 762 813 719 787 687ZM45 363L52 433 398 404C407 422 415 438 420 453L481 425C459 368 408 285 355 223L299 248C321 276 344 309 364 341L186 354C210 298 237 226 260 165L468 165 468 97 52 97 52 165 182 165C165 227 140 304 118 359ZM219 442L219 554 66 554 66 621 219 621 219 786 38 814 49 888C158 868 310 841 455 815L451 746 290 774 290 621 441 621 441 554 290 554 290 442ZM826 298L826 368 565 368 565 298ZM826 246L565 246 565 180 826 180ZM496 125L496 659 880 659C870 817 857 879 841 896 834 905 825 906 809 906 794 906 753 905 709 901 718 917 724 941 726 958 771 961 815 961 837 959 862 957 880 951 894 935 920 907 932 831 945 630 946 620 947 601 947 601L565 601 565 539 959 539 959 483 565 483 565 422 894 422 894 125 705 125 736 53 656 39C652 63 642 96 632 125Z"/>
</svg>