<svg xmlns="http://www.w3.org/2000/svg" name="gid14809" data-unicode="鵊"
    viewBox="0 0 1000 1000">
  <!--
© 2014-2021 Adobe (http://www.adobe.com/).
Noto is a trademark of Google Inc.
This Font Software is licensed under the SIL Open Font License, Version 1.1. This Font Software is distributed on an "AS IS" BASIS, WITHOUT WARRANTIES OR CONDITIONS OF ANY KIND, either express or implied. See the SIL Open Font License for the specific language, permissions and limitations governing your use of this Font Software.
http://scripts.sil.org/OFL
  -->
<path d="M511 714C506 782 493 861 467 908L519 934C546 884 558 800 564 728ZM593 724C605 777 614 845 614 889L662 881C662 837 653 769 639 718ZM678 715C698 759 717 816 724 854L769 841C762 804 742 747 721 704ZM757 696C780 728 807 773 818 803L860 784C847 756 821 712 795 680ZM373 300C364 392 345 477 304 537L294 478 295 398 295 259 480 259 480 192 295 192 295 42 229 42 229 192 47 192 47 259 229 259 229 398C229 584 210 768 38 905 53 916 76 940 86 955 193 871 246 769 272 658 301 761 348 866 422 930 432 913 455 884 469 872 383 804 336 681 310 568L334 590C357 561 375 526 390 487 416 525 441 569 454 600L489 549C473 515 441 465 409 422 418 386 424 347 428 307ZM116 301C108 420 88 526 34 596 47 603 70 623 79 632 108 593 128 544 143 489 161 518 177 549 187 571L222 522C209 495 184 453 159 418 165 383 170 346 173 307ZM824 304L824 371 585 371 585 304ZM824 253L585 253 585 188 824 188ZM517 133L517 659 875 659C866 817 855 878 840 895 833 903 825 904 811 904 799 904 766 904 729 900 738 917 744 942 746 959 782 961 820 961 839 959 863 957 879 951 893 935 917 908 928 833 939 630 941 620 941 601 941 601L585 601 585 541 961 541 961 485 585 485 585 426 892 426 892 133 713 133 747 53 667 40C662 66 652 102 641 133Z"/>
</svg>