<svg xmlns="http://www.w3.org/2000/svg" name="gid14816" data-unicode="鵜"
    viewBox="0 0 1000 1000">
  <!--
© 2014-2021 Adobe (http://www.adobe.com/).
Noto is a trademark of Google Inc.
This Font Software is licensed under the SIL Open Font License, Version 1.1. This Font Software is distributed on an "AS IS" BASIS, WITHOUT WARRANTIES OR CONDITIONS OF ANY KIND, either express or implied. See the SIL Open Font License for the specific language, permissions and limitations governing your use of this Font Software.
http://scripts.sil.org/OFL
  -->
<path d="M504 703C494 775 473 855 435 902L488 933C530 881 548 794 559 718ZM589 732C600 785 606 853 605 897L654 890C654 845 647 778 636 725ZM678 720C697 764 713 821 719 859L765 847C758 810 740 754 721 709ZM758 702C780 734 805 780 815 809L856 791C846 763 821 719 796 687ZM83 370C74 450 59 555 45 622L107 628 113 594 216 594C171 689 96 787 25 836 40 848 61 871 73 888 129 842 187 767 232 685L232 956 296 956 296 594 411 594C408 699 404 739 397 750 392 758 385 759 376 759 366 759 345 758 321 756 328 772 333 798 335 816 363 818 391 818 406 815 427 813 440 807 451 793 468 772 473 712 477 560 477 550 477 533 477 533L296 533 296 431 463 431 463 192 364 192C386 157 412 105 436 59L364 39C352 79 327 140 307 179L348 192 167 192 214 174C206 138 182 82 156 41L99 61C121 101 144 154 153 192L65 192 65 252 232 252 232 370ZM232 533L123 533 137 431 232 431ZM296 252L399 252 399 370 296 370ZM674 39C668 65 657 101 646 132L518 132 518 658 885 658C876 819 865 880 850 897 843 906 835 907 820 907 807 907 769 906 729 903 738 918 744 942 745 958 786 960 826 961 847 959 872 957 888 951 902 935 926 908 937 833 948 629 949 619 949 600 949 600L586 600 586 541 962 541 962 485 586 485 586 426 894 426 894 132 718 132C729 108 742 80 753 53ZM586 186L827 186 827 253 586 253ZM586 372L586 304 827 304 827 372Z"/>
</svg>