<svg xmlns="http://www.w3.org/2000/svg"
    viewBox="0 0 1000 1000">
  <!--
© 2014-2021 Adobe (http://www.adobe.com/).
Noto is a trademark of Google Inc.
This Font Software is licensed under the SIL Open Font License, Version 1.1. This Font Software is distributed on an "AS IS" BASIS, WITHOUT WARRANTIES OR CONDITIONS OF ANY KIND, either express or implied. See the SIL Open Font License for the specific language, permissions and limitations governing your use of this Font Software.
http://scripts.sil.org/OFL
  -->
<path d="M504 673C494 745 473 825 435 872L488 903C530 851 548 764 559 688ZM589 702C600 755 606 823 605 867L654 860C654 815 647 748 636 695ZM678 690C697 734 713 791 719 829L765 817C758 780 740 724 721 679ZM758 672C780 704 805 750 815 779L856 761C846 733 821 689 796 657ZM83 340C74 420 59 525 45 592L107 598 113 564 216 564C171 659 96 757 25 806 40 818 61 841 73 858 129 812 187 737 232 655L232 926 296 926 296 564 411 564C408 669 404 709 397 720 392 728 385 729 376 729 366 729 345 728 321 726 328 742 333 768 335 786 363 788 391 788 406 785 427 783 440 777 451 763 468 742 473 682 477 530 477 520 477 503 477 503L296 503 296 401 463 401 463 162 364 162C386 127 412 75 436 29L364 9C352 49 327 110 307 149L348 162 167 162 214 144C206 108 182 52 156 11L99 31C121 71 144 124 153 162L65 162 65 222 232 222 232 340ZM232 503L123 503 137 401 232 401ZM296 222L399 222 399 340 296 340ZM674 9C668 35 657 71 646 102L518 102 518 628 885 628C876 789 865 850 850 867 843 876 835 877 820 877 807 877 769 876 729 873 738 888 744 912 745 928 786 930 826 931 847 929 872 927 888 921 902 905 926 878 937 803 948 599 949 589 949 570 949 570L586 570 586 511 962 511 962 455 586 455 586 396 894 396 894 102 718 102C729 78 742 50 753 23ZM586 156L827 156 827 223 586 223ZM586 342L586 274 827 274 827 342Z"/>
</svg>