<svg xmlns="http://www.w3.org/2000/svg"
    viewBox="0 0 1000 1000">
  <!--
© 2014-2021 Adobe (http://www.adobe.com/).
Noto is a trademark of Google Inc.
This Font Software is licensed under the SIL Open Font License, Version 1.1. This Font Software is distributed on an "AS IS" BASIS, WITHOUT WARRANTIES OR CONDITIONS OF ANY KIND, either express or implied. See the SIL Open Font License for the specific language, permissions and limitations governing your use of this Font Software.
http://scripts.sil.org/OFL
  -->
<path d="M146 460L378 460 378 546 146 546ZM146 322L378 322 378 406 146 406ZM491 693C481 761 456 832 410 872L461 904C511 859 534 782 547 709ZM575 697C587 751 596 821 596 867L646 859C646 814 637 744 622 690ZM661 688C683 731 706 789 715 827L760 813C751 775 728 719 703 676ZM747 673C773 704 803 748 817 778L858 757C844 729 813 687 785 656ZM38 690L38 755 223 755 223 929 293 929 293 755 468 755 468 690 293 690 293 602 447 602 447 265 293 265 293 183 467 183 467 117 293 117 293 12 223 12 223 265 80 265 80 602 223 602 223 690ZM662 10C657 36 644 73 633 103L506 103 506 628 876 628C866 785 855 846 839 863 831 872 823 873 807 873 792 873 752 872 708 868 718 884 724 910 725 928 771 930 814 930 837 929 862 927 879 921 893 903 920 876 931 799 943 598 944 589 945 569 945 569L575 569 575 511 961 511 961 453 575 453 575 396 889 396 889 103 704 103C715 80 728 52 741 23ZM575 158L820 158 820 222 575 222ZM575 341L575 274 820 274 820 341Z"/>
</svg>