<svg xmlns="http://www.w3.org/2000/svg"
    viewBox="0 0 1000 1000">
  <!--
© 2014-2021 Adobe (http://www.adobe.com/).
Noto is a trademark of Google Inc.
This Font Software is licensed under the SIL Open Font License, Version 1.1. This Font Software is distributed on an "AS IS" BASIS, WITHOUT WARRANTIES OR CONDITIONS OF ANY KIND, either express or implied. See the SIL Open Font License for the specific language, permissions and limitations governing your use of this Font Software.
http://scripts.sil.org/OFL
  -->
<path d="M604 698C615 751 621 818 619 862L670 855C670 811 663 744 651 692ZM683 689C702 731 721 786 729 823L774 809C766 773 746 719 726 678ZM678 10C673 36 661 73 649 103L534 103 534 628 869 628C866 677 863 717 860 749 847 723 822 685 797 657L761 673C784 703 810 744 822 772L860 753C853 822 846 853 835 865 828 873 820 874 806 874 792 874 757 874 717 870 726 886 733 911 734 929 775 932 814 931 835 930 860 927 876 921 890 905 914 878 925 802 934 598 935 588 936 569 936 569L603 569 603 511 961 511 961 453 603 453 603 396 896 396 896 103 719 103C731 79 744 51 756 23ZM603 158L828 158 828 222 603 222ZM603 341L603 274 828 274 828 341ZM93 63L93 462C93 597 89 775 31 900 45 906 73 922 84 932 146 802 154 604 154 461L154 129 414 129 414 842C414 856 410 860 397 861 384 861 341 862 295 859 305 878 316 911 319 929 378 930 420 927 445 916 461 908 470 896 474 879L514 902C554 857 572 781 582 711L528 697C520 755 505 816 477 857L477 843 477 63ZM253 151L253 226 186 226 186 282 253 282 253 351 183 351 183 406 253 406 253 488 307 488 307 406 384 406 384 351 307 351 307 282 381 282 381 226 307 226 307 151ZM189 515L189 818 235 818 235 759 371 759 371 515ZM235 569L325 569 325 705 235 705Z"/>
</svg>