<svg xmlns="http://www.w3.org/2000/svg" name="gid14831" data-unicode="鵰"
    viewBox="0 0 1000 1000">
  <!--
© 2014-2021 Adobe (http://www.adobe.com/).
Noto is a trademark of Google Inc.
This Font Software is licensed under the SIL Open Font License, Version 1.1. This Font Software is distributed on an "AS IS" BASIS, WITHOUT WARRANTIES OR CONDITIONS OF ANY KIND, either express or implied. See the SIL Open Font License for the specific language, permissions and limitations governing your use of this Font Software.
http://scripts.sil.org/OFL
  -->
<path d="M604 728C615 781 621 848 619 892L670 885C670 841 663 774 651 722ZM683 719C702 761 721 816 729 853L774 839C766 803 746 749 726 708ZM678 40C673 66 661 103 649 133L534 133 534 658 869 658C866 707 863 747 860 779 847 753 822 715 797 687L761 703C784 733 810 774 822 802L860 783C853 852 846 883 835 895 828 903 820 904 806 904 792 904 757 904 717 900 726 916 733 941 734 959 775 962 814 961 835 960 860 957 876 951 890 935 914 908 925 832 934 628 935 618 936 599 936 599L603 599 603 541 961 541 961 483 603 483 603 426 896 426 896 133 719 133C731 109 744 81 756 53ZM603 188L828 188 828 252 603 252ZM603 371L603 304 828 304 828 371ZM93 93L93 492C93 627 89 805 31 930 45 936 73 952 84 962 146 832 154 634 154 491L154 159 414 159 414 872C414 886 410 890 397 891 384 891 341 892 295 889 305 908 316 941 319 959 378 960 420 957 445 946 461 938 470 926 474 909L514 932C554 887 572 811 582 741L528 727C520 785 505 846 477 887L477 873 477 93ZM253 181L253 256 186 256 186 312 253 312 253 381 183 381 183 436 253 436 253 518 307 518 307 436 384 436 384 381 307 381 307 312 381 312 381 256 307 256 307 181ZM189 545L189 848 235 848 235 789 371 789 371 545ZM235 599L325 599 325 735 235 735Z"/>
</svg>