<svg xmlns="http://www.w3.org/2000/svg" name="gid14834" data-unicode="鵶"
    viewBox="0 0 1000 1000">
  <!--
© 2014-2021 Adobe (http://www.adobe.com/).
Noto is a trademark of Google Inc.
This Font Software is licensed under the SIL Open Font License, Version 1.1. This Font Software is distributed on an "AS IS" BASIS, WITHOUT WARRANTIES OR CONDITIONS OF ANY KIND, either express or implied. See the SIL Open Font License for the specific language, permissions and limitations governing your use of this Font Software.
http://scripts.sil.org/OFL
  -->
<path d="M525 721C518 789 505 864 474 907L524 933C557 886 570 806 577 734ZM603 726C615 780 622 848 622 894L673 886C672 841 663 772 650 719ZM685 717C705 759 725 814 732 851L777 837C769 801 748 747 727 706ZM51 100L51 165 176 165 176 317 74 317 74 632 176 632 176 830 40 850 49 918C167 899 334 872 494 845L491 782 360 802 360 632 477 632 477 317 360 317 360 165 496 165 496 100ZM299 317L299 376 415 376 415 572 299 572 299 812 237 821 237 572 134 572 134 376 237 376 237 165 299 165ZM679 40C674 66 663 103 653 133L532 133 532 658 870 658 862 768C848 743 825 709 803 684L765 700C790 731 817 773 830 802L861 785C854 851 847 881 838 892 831 900 824 902 810 902 798 902 765 901 729 898 739 914 745 940 746 958 783 960 821 960 840 958 864 956 880 950 893 933 916 906 926 832 935 628 936 619 937 599 937 599L601 599 601 541 961 541 961 483 601 483 601 426 895 426 895 133 721 133 757 53ZM601 188L827 188 827 252 601 252ZM601 371L601 304 827 304 827 371Z"/>
</svg>