<svg xmlns="http://www.w3.org/2000/svg" name="gid14845" data-unicode="鶊"
    viewBox="0 0 1000 1000">
  <!--
© 2014-2021 Adobe (http://www.adobe.com/).
Noto is a trademark of Google Inc.
This Font Software is licensed under the SIL Open Font License, Version 1.1. This Font Software is distributed on an "AS IS" BASIS, WITHOUT WARRANTIES OR CONDITIONS OF ANY KIND, either express or implied. See the SIL Open Font License for the specific language, permissions and limitations governing your use of this Font Software.
http://scripts.sil.org/OFL
  -->
<path d="M520 714C513 786 497 864 463 908L511 936C548 887 562 803 571 728ZM604 726C614 779 619 847 617 891L666 884C666 840 660 773 649 720ZM695 716C712 760 727 816 733 854L777 842C771 806 755 750 736 707ZM778 698C801 730 823 776 833 805L873 787C867 854 860 884 850 895 844 903 836 904 823 904 809 904 778 904 743 900 752 916 758 940 759 958 794 960 830 960 849 958 873 956 888 950 902 934 925 907 934 833 945 628 946 618 946 599 946 599L611 599 611 541 961 541 961 483 611 483 611 426 903 426 903 133 721 133C733 109 746 81 758 53L680 40C675 66 663 103 651 133L543 133 543 658 882 658C879 711 877 752 873 786 863 757 839 715 817 683ZM611 188L837 188 837 252 611 252ZM611 371L611 304 837 304 837 371ZM418 473L418 557 336 557 337 514 337 473ZM275 217L275 278 173 278 173 334 275 334 275 412 150 412 150 473 275 473 275 515 275 557 169 557 169 613 272 613C263 721 232 843 124 915 139 926 158 947 167 960 257 896 300 805 320 712 347 787 386 850 441 887 451 870 470 847 485 836 416 796 372 709 350 613L475 613 475 473 516 473 516 412 475 412 475 278 337 278 337 217ZM418 412L337 412 337 334 418 334ZM82 136L82 409C82 550 77 750 20 895 35 901 62 921 73 932 135 780 145 557 145 409L145 197 502 197 502 136 335 136 335 40 268 40 268 136Z"/>
</svg>