<svg xmlns="http://www.w3.org/2000/svg" name="gid14852" data-unicode="鶖"
    viewBox="0 0 1000 1000">
  <!--
© 2014-2021 Adobe (http://www.adobe.com/).
Noto is a trademark of Google Inc.
This Font Software is licensed under the SIL Open Font License, Version 1.1. This Font Software is distributed on an "AS IS" BASIS, WITHOUT WARRANTIES OR CONDITIONS OF ANY KIND, either express or implied. See the SIL Open Font License for the specific language, permissions and limitations governing your use of this Font Software.
http://scripts.sil.org/OFL
  -->
<path d="M874 90C853 131 812 190 782 227L835 248C866 215 905 163 938 115ZM536 98C530 154 504 209 461 235L510 264C560 232 585 170 592 109ZM174 816C155 860 113 901 54 922L110 960C176 934 212 890 235 839ZM301 836C313 872 321 918 322 949L388 937C385 907 375 860 362 826ZM456 837C477 868 500 912 507 941L568 922C558 894 536 853 512 822ZM408 44C329 63 185 77 68 83 75 97 81 115 83 128 132 127 186 124 239 119L239 176 61 176 61 228 217 228C170 282 99 335 38 363 52 373 71 395 81 410 132 380 192 331 239 279L239 399 307 399 307 278C345 305 395 343 415 362L449 309C429 296 343 245 311 228L464 228 464 176 307 176 307 112C359 106 406 98 445 88ZM216 422L216 805 823 805C815 868 805 896 794 906 788 913 781 914 768 914 755 914 722 914 688 909 695 924 700 945 701 959 741 961 778 962 798 961 820 960 836 955 851 943 871 925 883 884 895 787 897 778 898 760 898 760L289 760 289 721 957 721 957 676 289 676 289 637 810 637 810 422 480 422 494 400 496 404C636 363 679 282 690 234 706 282 760 364 927 404 935 389 952 363 963 350 753 303 724 192 724 162L724 42 656 42 656 162C656 192 632 302 463 352L477 372 432 366C428 382 419 403 410 422ZM737 549L737 593 289 593 289 549ZM737 509L289 509 289 465 737 465ZM613 839C637 861 663 894 675 915L688 909 729 890C716 868 689 838 663 817Z"/>
</svg>