<svg xmlns="http://www.w3.org/2000/svg"
    viewBox="0 0 1000 1000">
  <!--
© 2014-2021 Adobe (http://www.adobe.com/).
Noto is a trademark of Google Inc.
This Font Software is licensed under the SIL Open Font License, Version 1.1. This Font Software is distributed on an "AS IS" BASIS, WITHOUT WARRANTIES OR CONDITIONS OF ANY KIND, either express or implied. See the SIL Open Font License for the specific language, permissions and limitations governing your use of this Font Software.
http://scripts.sil.org/OFL
  -->
<path d="M93 365L93 425 457 425 457 365ZM125 113L198 113 198 259 125 259ZM74 59L74 314 250 314 250 59ZM343 113L422 113 422 259 343 259ZM293 59L293 314 475 314 475 59ZM503 673C495 747 477 826 439 872L492 903C534 852 550 766 559 688ZM588 701C599 754 606 822 604 866L653 859C654 814 646 747 635 694ZM677 691C695 735 712 793 717 830L763 818C757 781 738 725 720 681ZM758 673C781 705 805 750 815 780L857 762C846 733 821 690 796 658ZM40 494L40 553 156 553C144 608 127 670 113 715L181 724 193 683 355 683C346 797 335 845 321 859 313 867 305 869 290 868 275 868 236 868 194 864 205 882 212 908 214 928 255 930 297 930 318 928 344 926 360 920 376 904 400 879 412 814 425 653 426 643 428 623 428 623L208 623 225 553 498 553 498 494ZM676 10C671 36 661 72 650 103L521 103 521 629 880 629C871 789 861 851 846 868 839 876 831 878 816 878 802 878 766 877 725 873 734 888 740 912 741 929 782 931 822 931 843 930 868 928 884 922 898 906 921 878 932 804 944 599 945 589 945 571 945 571L588 571 588 511 962 511 962 455 588 455 588 396 896 396 896 103 721 103 756 23ZM588 158L829 158 829 223 588 223ZM588 341L588 274 829 274 829 341Z"/>
</svg>