<svg xmlns="http://www.w3.org/2000/svg" name="gid14866" data-unicode="鶲"
    viewBox="0 0 1000 1000">
  <!--
© 2014-2021 Adobe (http://www.adobe.com/).
Noto is a trademark of Google Inc.
This Font Software is licensed under the SIL Open Font License, Version 1.1. This Font Software is distributed on an "AS IS" BASIS, WITHOUT WARRANTIES OR CONDITIONS OF ANY KIND, either express or implied. See the SIL Open Font License for the specific language, permissions and limitations governing your use of this Font Software.
http://scripts.sil.org/OFL
  -->
<path d="M145 121C121 179 80 236 35 275 50 285 76 305 86 316 133 272 180 203 208 137ZM611 731C621 784 625 852 624 896L673 889C673 845 667 778 656 725ZM696 721C713 765 728 821 733 858L778 847C772 810 756 754 738 712ZM773 703C795 735 818 780 828 810L869 792C859 764 834 721 811 688ZM203 70L203 127 348 127C377 195 422 259 468 303 481 289 506 269 522 259 472 218 418 144 391 70ZM46 514L46 572 149 572C118 610 74 647 37 669 50 679 66 698 74 711 110 685 150 647 181 609L181 681C145 735 84 791 31 820 43 830 59 850 67 863 105 838 147 800 181 761L181 890C181 901 178 904 167 904 157 904 124 905 85 903 93 920 102 944 105 960 158 960 192 959 214 950 236 940 241 922 241 891L241 514ZM91 390L99 454 404 436C413 452 420 468 425 481L480 450C462 404 416 337 373 287L321 313C338 334 356 358 372 382L224 387C247 342 272 287 293 237L223 219C209 269 183 338 161 388ZM530 703C523 776 508 853 474 900L474 891 474 514 271 514 271 572 382 572C349 610 302 647 262 669 275 679 290 698 297 711 335 685 379 647 413 610L413 683C374 736 309 792 252 820 265 830 280 850 288 863 329 838 375 799 413 758L413 890C413 901 410 904 400 904 389 904 355 905 316 903 324 920 332 944 335 960 389 960 425 959 446 950 466 941 472 927 474 903L521 930C560 880 575 794 583 717ZM678 40C673 66 661 103 649 133L537 133 537 658 883 658C874 817 865 878 850 895 843 903 835 904 820 904 807 904 771 904 732 900 740 916 746 940 747 957 788 960 827 960 847 958 872 956 887 950 902 934 925 907 936 832 946 628 947 618 947 599 947 599L605 599 605 541 961 541 961 483 605 483 605 426 895 426 895 133 719 133C731 109 744 81 756 53ZM605 188L827 188 827 252 605 252ZM605 371L605 304 827 304 827 371Z"/>
</svg>