<svg xmlns="http://www.w3.org/2000/svg"
    viewBox="0 0 1000 1000">
  <!--
© 2014-2021 Adobe (http://www.adobe.com/).
Noto is a trademark of Google Inc.
This Font Software is licensed under the SIL Open Font License, Version 1.1. This Font Software is distributed on an "AS IS" BASIS, WITHOUT WARRANTIES OR CONDITIONS OF ANY KIND, either express or implied. See the SIL Open Font License for the specific language, permissions and limitations governing your use of this Font Software.
http://scripts.sil.org/OFL
  -->
<path d="M580 688C576 760 568 836 538 880L582 907C615 858 624 776 628 698ZM659 695C670 749 676 817 675 862L718 855C719 812 712 743 700 690ZM737 688C754 732 768 789 773 826L815 815C810 778 793 723 776 680ZM298 609C294 744 278 835 201 888 214 897 232 917 239 930 329 868 349 763 355 609ZM716 10C711 35 700 73 690 103L588 103 588 629 890 629 883 734C873 710 859 683 844 661L810 675C828 705 847 746 854 773L881 762C875 828 868 858 858 869 853 878 845 879 833 879 821 879 792 878 758 876 766 890 772 913 773 929 806 931 839 930 857 929 880 927 894 921 908 906 930 880 939 806 948 598 949 589 949 571 949 571L651 571 651 511 962 511 962 455 651 455 651 396 900 396 900 103 753 103 788 22ZM651 158L838 158 838 223 651 223ZM651 341L651 274 838 274 838 341ZM497 12C412 43 259 71 126 90L83 77 83 427C83 558 78 729 21 858 35 864 59 885 68 899 135 757 144 564 144 428L144 141C203 134 265 124 325 114L325 279 188 279 188 488C188 606 179 767 104 886 116 893 140 913 149 925 230 798 245 616 245 489L245 438 249 470 323 461 323 497C323 553 337 566 398 566 409 566 474 566 486 566 529 566 546 549 551 485 535 482 514 474 503 466 500 512 496 519 479 519 465 519 414 519 405 519 382 519 378 516 378 497L378 454 493 440 488 399 532 411C545 381 557 330 564 287L525 276 516 279 386 279 386 227 540 227 540 175 386 175 386 111 339 111C417 97 491 80 549 60ZM245 422L245 334 323 334 323 412ZM378 406L378 334 499 334C495 356 490 377 485 393ZM374 836L398 889C449 862 505 831 560 799L549 752 466 793 466 607 410 607 410 820Z"/>
</svg>