<svg xmlns="http://www.w3.org/2000/svg" name="gid14885" data-unicode="鷏"
    viewBox="0 0 1000 1000">
  <!--
© 2014-2021 Adobe (http://www.adobe.com/).
Noto is a trademark of Google Inc.
This Font Software is licensed under the SIL Open Font License, Version 1.1. This Font Software is distributed on an "AS IS" BASIS, WITHOUT WARRANTIES OR CONDITIONS OF ANY KIND, either express or implied. See the SIL Open Font License for the specific language, permissions and limitations governing your use of this Font Software.
http://scripts.sil.org/OFL
  -->
<path d="M42 674L42 735 486 735 486 674ZM163 747C135 811 86 876 35 920 51 929 80 949 93 960 144 912 198 838 231 766ZM309 773C336 817 370 878 386 917L445 886C428 849 394 791 365 747ZM167 409L377 409 377 468 167 468ZM167 515L377 515 377 575 167 575ZM167 305L377 305 377 363 167 363ZM503 703C495 777 477 856 439 902L492 933C534 882 550 796 559 718ZM588 731C599 784 606 852 604 896L653 889C654 844 646 777 635 724ZM677 721C695 765 712 823 717 860L763 848C757 811 738 755 720 711ZM758 703C781 735 805 780 815 810L857 792C846 763 821 720 796 688ZM104 257L104 623 442 623 442 257 302 257 302 192 473 192 473 134 302 134 302 43 235 43 235 134 52 134 52 192 235 192 235 257ZM676 40C671 66 661 102 650 133L521 133 521 659 880 659C871 819 861 881 846 898 839 906 831 908 816 908 802 908 766 907 725 903 734 918 740 942 741 959 782 961 822 961 843 960 868 958 884 952 898 936 921 908 932 834 944 629 945 619 945 601 945 601L588 601 588 541 962 541 962 485 588 485 588 426 896 426 896 133 721 133 756 53ZM588 188L829 188 829 253 588 253ZM588 371L588 304 829 304 829 371Z"/>
</svg>