<svg xmlns="http://www.w3.org/2000/svg"
    viewBox="0 0 1000 1000">
  <!--
© 2014-2021 Adobe (http://www.adobe.com/).
Noto is a trademark of Google Inc.
This Font Software is licensed under the SIL Open Font License, Version 1.1. This Font Software is distributed on an "AS IS" BASIS, WITHOUT WARRANTIES OR CONDITIONS OF ANY KIND, either express or implied. See the SIL Open Font License for the specific language, permissions and limitations governing your use of this Font Software.
http://scripts.sil.org/OFL
  -->
<path d="M193 659C186 730 171 808 138 854L185 879C220 829 233 746 241 671ZM270 679C277 735 279 806 275 851L322 847C325 801 322 730 314 676ZM346 675C362 724 375 788 378 829L425 818C420 777 405 714 389 666ZM607 701C617 754 621 822 620 866L669 859C669 815 663 748 652 695ZM692 691C709 735 724 791 729 828L774 817C768 780 752 724 734 682ZM769 673C791 705 814 750 824 780L865 762C855 734 830 691 807 658ZM89 132L89 456C89 580 84 748 29 867 44 874 71 894 81 906 142 778 152 589 152 456L152 196 514 196 514 132 343 132 343 11 272 11 272 132ZM222 221L222 338 154 338 154 399 222 399 222 595 431 595 431 399 502 399 502 338 431 338 431 221 371 221 371 338 280 338 280 221ZM371 399L371 536 280 536 280 399ZM526 673C523 701 519 730 514 758 502 726 482 682 460 649L421 664C442 702 465 753 473 786L511 771C501 810 488 846 468 872L518 900C556 850 571 764 579 687ZM678 10C673 36 661 73 649 103L537 103 537 628 879 628C870 787 861 848 846 865 839 873 831 874 816 874 803 874 767 874 728 870 736 886 743 910 744 927 784 930 823 930 844 928 868 926 883 920 898 904 921 877 932 802 942 598 943 588 943 569 943 569L605 569 605 511 961 511 961 453 605 453 605 396 895 396 895 103 719 103C731 79 744 51 756 23ZM605 158L827 158 827 222 605 222ZM605 341L605 274 827 274 827 341Z"/>
</svg>