<svg xmlns="http://www.w3.org/2000/svg" name="gid14890" data-unicode="鷗"
    viewBox="0 0 1000 1000">
  <!--
© 2014-2021 Adobe (http://www.adobe.com/).
Noto is a trademark of Google Inc.
This Font Software is licensed under the SIL Open Font License, Version 1.1. This Font Software is distributed on an "AS IS" BASIS, WITHOUT WARRANTIES OR CONDITIONS OF ANY KIND, either express or implied. See the SIL Open Font License for the specific language, permissions and limitations governing your use of this Font Software.
http://scripts.sil.org/OFL
  -->
<path d="M610 728C620 781 625 847 624 892L672 885C673 841 666 774 655 722ZM687 719C706 760 724 816 731 853L774 840C766 804 747 750 727 708ZM761 702C784 732 810 774 821 801L859 783C847 757 821 717 796 688ZM281 276L401 276 401 381 281 381ZM231 224L231 432 453 432 453 224ZM222 538L277 538 277 677 222 677ZM181 491L181 725 319 725 319 491ZM400 538L460 538 460 677 400 677ZM359 491L359 725 503 725 503 491ZM77 101L77 925 139 925 139 852 507 852 507 785 139 785 139 168 499 168 499 101ZM540 726C534 769 524 814 507 852 498 871 487 889 474 903L521 930C562 885 580 810 591 740ZM690 40C684 66 672 103 661 133L546 133 546 658 869 658C860 819 851 879 836 896 829 905 821 906 807 906 793 906 759 905 720 902 729 917 735 941 736 958 776 961 814 960 835 959 858 957 874 951 888 935 911 908 922 832 931 627 932 618 933 599 933 599L613 599 613 541 960 541 960 483 613 483 613 426 898 426 898 133 730 133 768 53ZM613 188L832 188 832 252 613 252ZM613 371L613 304 832 304 832 371Z"/>
</svg>