<svg xmlns="http://www.w3.org/2000/svg" name="gid14892" data-unicode="鷚"
    viewBox="0 0 1000 1000">
  <!--
© 2014-2021 Adobe (http://www.adobe.com/).
Noto is a trademark of Google Inc.
This Font Software is licensed under the SIL Open Font License, Version 1.1. This Font Software is distributed on an "AS IS" BASIS, WITHOUT WARRANTIES OR CONDITIONS OF ANY KIND, either express or implied. See the SIL Open Font License for the specific language, permissions and limitations governing your use of this Font Software.
http://scripts.sil.org/OFL
  -->
<path d="M531 708C523 782 505 859 467 904L514 932C557 883 574 799 582 720ZM622 727C631 780 638 848 637 892L681 886C681 842 674 774 663 722ZM705 719C722 763 739 820 744 858L786 847C780 810 762 753 743 710ZM782 703C804 734 826 777 836 805L874 787C863 760 840 719 818 688ZM301 549C258 598 177 647 107 675 121 685 137 702 146 713 222 681 305 628 355 569ZM373 635C320 695 217 749 121 780 136 791 152 808 161 820 261 786 365 727 426 657ZM430 731C364 819 227 882 75 913 88 927 104 948 113 964 275 925 416 856 492 755ZM712 40C706 65 694 103 682 133L559 133 559 659 888 659C879 819 867 881 852 898 845 906 838 908 824 908 811 908 780 907 745 903 753 919 759 942 760 958 796 960 831 960 850 959 874 957 889 951 903 935 927 908 938 834 951 629 952 619 952 601 952 601L625 601 625 541 960 541 960 485 625 485 625 426 907 426 907 133 749 133 786 53ZM625 188L841 188 841 253 625 253ZM625 371L625 304 841 304 841 371ZM175 270C142 317 87 363 34 395 47 404 68 424 77 433 119 404 166 362 203 319L203 412 265 412 265 76 56 76 56 134 203 134 203 167 156 152C126 189 81 226 36 254 49 263 70 282 79 291 121 261 169 217 203 175L203 279ZM423 267C392 311 343 352 293 384 306 392 327 412 335 421 375 395 418 355 452 315L452 414 514 414 514 76 304 76 304 134 452 134 452 165 404 149C377 185 334 220 292 248 305 257 326 275 334 284 375 256 421 212 452 171L452 276ZM260 414C213 474 130 542 21 591 35 601 53 623 62 638 165 586 241 525 294 472 364 518 444 587 486 631L533 583C484 534 391 463 316 414Z"/>
</svg>