<svg xmlns="http://www.w3.org/2000/svg" name="gid14909" data-unicode="鷸"
    viewBox="0 0 1000 1000">
  <!--
© 2014-2021 Adobe (http://www.adobe.com/).
Noto is a trademark of Google Inc.
This Font Software is licensed under the SIL Open Font License, Version 1.1. This Font Software is distributed on an "AS IS" BASIS, WITHOUT WARRANTIES OR CONDITIONS OF ANY KIND, either express or implied. See the SIL Open Font License for the specific language, permissions and limitations governing your use of this Font Software.
http://scripts.sil.org/OFL
  -->
<path d="M616 732C625 785 630 853 629 897L677 890C678 846 672 779 661 726ZM703 720C719 763 735 820 740 857L784 846C779 809 763 753 744 710ZM528 703C522 770 508 842 478 889L478 489 72 489 72 959 130 959 130 674C139 683 149 697 152 707 164 703 174 698 183 692L183 899 231 899 231 855 366 855 366 683 196 683C233 654 245 611 248 543L300 543 300 613C300 662 312 673 357 673 364 673 404 673 412 673L418 673 418 890C418 900 415 903 404 903 394 904 360 904 321 903 329 919 337 942 339 957 393 958 428 957 450 948 468 940 475 927 477 905L520 929C558 879 573 793 581 716ZM231 729L318 729 318 810 231 810ZM154 194C186 206 222 224 254 243L45 243 45 296 209 296C162 344 94 390 33 413 48 425 64 447 72 463 141 429 218 369 268 310L268 422C268 431 266 433 256 433 247 434 219 434 186 433 193 448 201 470 204 486 251 486 283 486 303 476 324 467 329 452 329 424L329 296 427 296C414 329 398 361 384 384L435 402C459 364 486 305 507 253L465 240 455 243 356 243 332 227C382 193 434 150 471 108L428 75 414 79 83 79 83 132 360 132C336 155 307 178 279 197 250 181 219 167 191 156ZM418 543L418 624C416 627 414 628 403 628 395 628 367 628 361 628 347 628 345 626 345 612L345 543ZM130 667L130 543 200 543C198 613 184 646 130 667ZM782 702C804 734 827 780 837 809L872 794C866 855 858 883 849 894 842 902 834 904 820 904 806 904 770 903 731 900 740 915 746 939 747 957 787 959 826 959 847 957 871 955 887 949 901 933 924 906 935 831 945 627 946 617 947 598 947 598L604 598 604 541 961 541 961 484 604 484 604 426 898 426 898 132 718 132 755 53 677 39C671 65 659 102 648 132L536 132 536 658 882 658C879 709 876 750 873 782 862 754 841 716 820 687ZM604 186L830 186 830 253 604 253ZM604 372L604 305 830 305 830 372Z"/>
</svg>