<svg xmlns="http://www.w3.org/2000/svg"
    viewBox="0 0 1000 1000">
  <!--
© 2014-2021 Adobe (http://www.adobe.com/).
Noto is a trademark of Google Inc.
This Font Software is licensed under the SIL Open Font License, Version 1.1. This Font Software is distributed on an "AS IS" BASIS, WITHOUT WARRANTIES OR CONDITIONS OF ANY KIND, either express or implied. See the SIL Open Font License for the specific language, permissions and limitations governing your use of this Font Software.
http://scripts.sil.org/OFL
  -->
<path d="M172 789C153 835 111 874 48 893L103 931C172 907 209 864 232 812ZM305 807C317 841 326 886 327 916L393 904C391 874 380 829 365 797ZM458 809C477 839 496 881 503 909L564 892C555 865 536 824 516 794ZM607 812C629 834 652 867 663 888L674 884C679 896 684 914 685 927 730 929 771 930 792 929 815 928 832 924 846 911 866 893 878 852 889 756 891 746 892 729 892 729L292 729 292 689 956 689 956 646 292 646 292 607 777 607 777 402 489 402C500 388 512 371 523 353L853 353 853 452 924 452 924 307 830 307C837 236 843 128 846 42L634 42 634 88 778 88 776 130 643 130 643 175 773 175 770 218 640 218 640 263 767 263 762 307 429 307C458 292 487 274 514 254 538 268 560 283 576 295L617 260C601 248 578 235 553 221 573 203 590 183 604 163L553 150C541 167 526 183 508 198 486 187 464 178 444 170L405 200C425 208 446 217 467 228 440 246 410 262 379 276 389 282 405 297 414 307L244 307 241 263 373 263 373 219 238 219 235 174 370 174 370 129 233 129 230 95C282 83 338 66 382 45L333 8C306 23 261 40 217 53L162 39 178 307 81 307 81 452 149 452 149 353 444 353 419 402 220 402 220 773 818 773C810 836 800 865 790 875 783 881 776 882 761 882 749 883 718 882 684 879L717 865C706 843 682 813 659 791ZM705 524L705 565 292 565 292 524ZM705 486L292 486 292 444 705 444ZM403 58C422 65 442 74 461 83 436 99 408 112 380 124 392 132 411 151 419 160 449 146 480 128 509 107 534 121 556 135 572 147L609 112C594 101 573 88 549 75 568 58 585 40 599 22L550 9C538 25 522 39 505 53 483 43 460 33 439 26Z"/>
</svg>