<svg xmlns="http://www.w3.org/2000/svg" name="gid14935" data-unicode="鹻"
    viewBox="0 0 1000 1000">
  <!--
© 2014-2021 Adobe (http://www.adobe.com/).
Noto is a trademark of Google Inc.
This Font Software is licensed under the SIL Open Font License, Version 1.1. This Font Software is distributed on an "AS IS" BASIS, WITHOUT WARRANTIES OR CONDITIONS OF ANY KIND, either express or implied. See the SIL Open Font License for the specific language, permissions and limitations governing your use of this Font Software.
http://scripts.sil.org/OFL
  -->
<path d="M165 395C190 415 218 444 232 464L264 430C249 412 221 385 194 365ZM203 724C227 750 254 787 266 812L301 784C288 760 261 725 235 700ZM860 40C826 68 762 101 704 122L709 130 709 207 630 207 630 122C658 109 684 95 706 80L653 40C613 72 538 104 471 125 478 138 488 159 492 171 516 164 542 156 568 147L568 207 444 207 444 269 568 269 568 344 461 344 461 403 568 403 568 478 441 478 441 540 568 540 568 616 455 616 455 676 559 676C527 749 477 823 426 864L426 295 277 295 277 200 436 200 436 139 277 139 277 40 211 40 211 295 65 295 65 947 120 947 120 882 368 882 368 925 426 925 426 881C438 892 451 908 460 920 499 887 537 834 568 775L568 959 630 959 630 676 709 676 709 960 771 960 771 742C812 812 867 878 920 915 932 899 952 876 967 864 902 827 834 751 792 676L911 676 911 540 962 540 962 478 911 478 911 344 771 344 771 269 952 269 952 207 771 207 771 153C823 133 877 108 918 81ZM294 551C319 572 346 603 360 625L368 617 368 821 120 821 120 731 153 758C185 720 217 674 245 623 275 666 301 706 318 739L355 709C336 672 305 625 269 577 296 524 319 468 338 410L292 399C277 446 258 492 237 536 212 505 186 474 160 447L126 473C155 506 186 543 214 581 186 634 154 681 120 720L120 583C134 600 147 618 155 632L186 604C174 583 149 554 126 532L120 537 120 356 368 356 368 566C354 552 338 537 322 524ZM630 540L709 540 709 616 630 616ZM630 478L630 403 709 403 709 478ZM771 540L850 540 850 616 771 616ZM771 478L771 403 850 403 850 478ZM630 269L709 269 709 344 630 344Z"/>
</svg>