<svg xmlns="http://www.w3.org/2000/svg"
    viewBox="0 0 1000 1000">
  <!--
© 2014-2021 Adobe (http://www.adobe.com/).
Noto is a trademark of Google Inc.
This Font Software is licensed under the SIL Open Font License, Version 1.1. This Font Software is distributed on an "AS IS" BASIS, WITHOUT WARRANTIES OR CONDITIONS OF ANY KIND, either express or implied. See the SIL Open Font License for the specific language, permissions and limitations governing your use of this Font Software.
http://scripts.sil.org/OFL
  -->
<path d="M871 27C854 64 820 118 796 152L843 176C869 145 900 99 930 55ZM516 57C545 95 574 146 585 180L641 153C629 119 599 70 570 33ZM84 115L84 515C84 633 81 785 33 891 46 897 72 914 82 924 133 813 141 641 141 515L141 508 473 508 473 388C486 400 502 419 512 433 576 396 645 327 689 256L689 445 754 445 754 259C799 324 866 392 922 429 933 412 955 389 970 376 915 349 850 295 805 242L955 242 955 181 754 181 754 10 689 10 689 181 493 181 493 242 633 242C592 297 530 351 473 380L473 270 358 270 358 190 310 190 310 270 245 270 245 190 196 190 196 270 141 270 141 178 492 178 492 115 319 115 319 7 255 7 255 115ZM179 521L179 831 131 841 149 901C201 887 256 872 313 856L306 801 232 818 232 682 304 682 304 625 232 625 232 521ZM836 426L836 524 702 524 702 583 727 583 727 719 671 719 671 781 836 781 836 930 895 930 895 781 967 781 967 719 895 719 895 583 956 583 956 524 895 524 895 426ZM777 583L836 583 836 719 777 719ZM196 329L196 450 141 450 141 329ZM245 329L310 329 310 450 245 450ZM358 329L420 329 420 450 358 450ZM321 521L321 821C321 878 332 893 381 893 390 893 422 893 431 893 469 893 484 872 489 794 473 790 452 782 441 772 439 834 436 842 424 842 417 842 394 842 388 842 376 842 373 840 373 821L373 700C405 679 446 647 480 615L441 574C424 592 398 618 373 639L373 521ZM550 417C528 522 489 621 432 688 446 697 468 717 477 727 490 710 503 692 515 671 541 693 568 718 585 738 553 803 513 852 466 883 479 894 495 917 502 930 605 858 676 719 701 512L667 502 657 504 586 504C594 479 600 453 606 427ZM609 680C590 660 565 639 542 622 551 602 560 581 568 559L640 559C632 603 622 643 609 680Z"/>
</svg>