<svg xmlns="http://www.w3.org/2000/svg" name="gid14961" data-unicode="麟"
    viewBox="0 0 1000 1000">
  <!--
© 2014-2021 Adobe (http://www.adobe.com/).
Noto is a trademark of Google Inc.
This Font Software is licensed under the SIL Open Font License, Version 1.1. This Font Software is distributed on an "AS IS" BASIS, WITHOUT WARRANTIES OR CONDITIONS OF ANY KIND, either express or implied. See the SIL Open Font License for the specific language, permissions and limitations governing your use of this Font Software.
http://scripts.sil.org/OFL
  -->
<path d="M871 57C854 94 820 148 796 182L843 206C869 175 900 129 930 85ZM516 87C545 125 574 176 585 210L641 183C629 149 599 100 570 63ZM84 145L84 545C84 663 81 815 33 921 46 927 72 944 82 954 133 843 141 671 141 545L141 538 473 538 473 418C486 430 502 449 512 463 576 426 645 357 689 286L689 475 754 475 754 289C799 354 866 422 922 459 933 442 955 419 970 406 915 379 850 325 805 272L955 272 955 211 754 211 754 40 689 40 689 211 493 211 493 272 633 272C592 327 530 381 473 410L473 300 358 300 358 220 310 220 310 300 245 300 245 220 196 220 196 300 141 300 141 208 492 208 492 145 319 145 319 37 255 37 255 145ZM179 551L179 861 131 871 149 931C201 917 256 902 313 886L306 831 232 848 232 712 304 712 304 655 232 655 232 551ZM836 456L836 554 702 554 702 613 727 613 727 749 671 749 671 811 836 811 836 960 895 960 895 811 967 811 967 749 895 749 895 613 956 613 956 554 895 554 895 456ZM777 613L836 613 836 749 777 749ZM196 359L196 480 141 480 141 359ZM245 359L310 359 310 480 245 480ZM358 359L420 359 420 480 358 480ZM321 551L321 851C321 908 332 923 381 923 390 923 422 923 431 923 469 923 484 902 489 824 473 820 452 812 441 802 439 864 436 872 424 872 417 872 394 872 388 872 376 872 373 870 373 851L373 730C405 709 446 677 480 645L441 604C424 622 398 648 373 669L373 551ZM550 447C528 552 489 651 432 718 446 727 468 747 477 757 490 740 503 722 515 701 541 723 568 748 585 768 553 833 513 882 466 913 479 924 495 947 502 960 605 888 676 749 701 542L667 532 657 534 586 534C594 509 600 483 606 457ZM609 710C590 690 565 669 542 652 551 632 560 611 568 589L640 589C632 633 622 673 609 710Z"/>
</svg>