<svg xmlns="http://www.w3.org/2000/svg" name="gid14962" data-unicode="麤"
    viewBox="0 0 1000 1000">
  <!--
© 2014-2021 Adobe (http://www.adobe.com/).
Noto is a trademark of Google Inc.
This Font Software is licensed under the SIL Open Font License, Version 1.1. This Font Software is distributed on an "AS IS" BASIS, WITHOUT WARRANTIES OR CONDITIONS OF ANY KIND, either express or implied. See the SIL Open Font License for the specific language, permissions and limitations governing your use of this Font Software.
http://scripts.sil.org/OFL
  -->
<path d="M911 769C887 783 852 797 818 809L818 747 939 747 939 607 817 607 817 568 957 568 957 522 771 522 771 476 845 476C905 476 924 459 930 393 914 389 891 383 877 374 873 423 867 430 837 430 808 430 694 430 673 430 628 430 620 426 620 404L620 387C702 382 796 369 864 355L830 320C780 332 696 343 620 351L620 303 881 303 881 178 663 178 663 140 906 140 906 90 541 90 541 40 470 40 470 90 167 90 167 201C167 278 155 378 74 454 90 461 118 483 130 496 187 442 214 371 226 303L279 303 279 425 207 428 212 476C299 472 418 464 535 457L535 411 343 422 343 376 529 376 529 339 343 339 343 303 556 303 556 404C556 463 579 476 668 476L708 476 708 522 529 522 529 686C529 747 526 824 497 888L498 877C483 873 463 866 453 858 450 900 447 905 434 905 426 905 396 905 390 905 376 905 374 903 374 887L374 847C411 836 453 820 486 805L456 768C435 780 404 793 374 804L374 744 495 744 495 607 378 607 378 568 506 568 506 522 332 522 332 476 269 476 269 522 89 522 89 689C89 762 82 855 30 925 42 932 63 952 71 963 119 902 136 817 140 744L170 744 170 896 119 901 127 950C181 942 241 934 307 925L305 879 222 889 222 832 303 832 303 790 222 790 222 744 321 744 321 887C321 938 333 951 383 951 393 951 432 951 442 951 465 951 479 945 487 927 499 935 514 950 521 958 561 899 576 818 581 747L607 747 607 894 558 899 566 950C623 942 686 932 753 922L751 875 659 887 659 833 749 833 749 792 659 792 659 747 766 747 766 887C766 938 779 951 833 951 844 951 899 951 909 951 948 951 964 935 968 877 954 873 934 867 922 858 920 900 917 905 902 905 890 905 848 905 839 905 821 905 818 903 818 886L818 851C858 839 905 822 941 806ZM211 568L211 607 142 607 142 568ZM260 568L328 568 328 607 260 607ZM211 649L211 703 142 703 142 691 142 649ZM260 649L328 649 328 703 260 703ZM378 649L447 649 447 703 378 703ZM652 568L652 607 583 607 583 568ZM700 568L768 568 768 607 700 607ZM652 650L652 704 583 704 583 686 583 650ZM700 650L768 650 768 704 700 704ZM817 650L888 650 888 704 817 704ZM389 140L389 178 235 178 235 140ZM452 140L598 140 598 178 452 178ZM389 219L389 262 232 262 235 219ZM452 219L598 219 598 262 452 262ZM663 219L810 219 810 262 663 262Z"/>
</svg>