<svg xmlns="http://www.w3.org/2000/svg" name="gid14975" data-unicode="麵"
    viewBox="0 0 1000 1000">
  <!--
© 2014-2021 Adobe (http://www.adobe.com/).
Noto is a trademark of Google Inc.
This Font Software is licensed under the SIL Open Font License, Version 1.1. This Font Software is distributed on an "AS IS" BASIS, WITHOUT WARRANTIES OR CONDITIONS OF ANY KIND, either express or implied. See the SIL Open Font License for the specific language, permissions and limitations governing your use of this Font Software.
http://scripts.sil.org/OFL
  -->
<path d="M232 39L232 116 48 116 48 174 232 174 232 322C188 392 105 468 30 502 44 513 62 533 73 548 127 517 186 461 232 402L232 499 192 489C157 577 98 659 29 714 44 726 68 750 78 762 104 739 130 712 154 681 173 728 196 767 223 798 169 847 106 883 38 908 52 919 75 946 83 960 151 933 214 895 268 845 363 924 492 942 655 942L936 942C940 922 952 890 964 874 910 876 698 876 656 876 516 875 399 862 312 799 363 740 404 666 430 577L388 557 375 560 230 560C239 542 248 524 255 505L247 503 295 503 295 404C344 439 409 489 435 513L476 464C447 444 335 370 295 348L295 174 471 174 471 116 295 116 295 39ZM191 628L198 617 346 617C326 670 298 716 264 755 235 722 210 681 191 628ZM124 191C112 261 83 321 36 363 49 370 70 384 79 393 102 371 121 344 137 312 152 328 166 345 175 358L210 322C198 307 177 285 157 267 164 245 171 223 175 199ZM370 190C360 247 338 296 301 332 313 338 333 353 342 361 356 346 368 329 379 310 401 332 424 356 438 373L474 335C458 316 428 287 400 263 407 243 413 221 417 198ZM503 245L503 820 561 820 561 780 874 780 874 817 934 817 934 245 721 245 744 148 949 148 949 88 478 88 478 148 672 148C669 179 664 215 659 245ZM678 454L754 454 754 559 678 559ZM678 401L678 302 754 302 754 401ZM678 611L754 611 754 723 678 723ZM629 723L561 723 561 302 629 302ZM802 723L802 302 874 302 874 723Z"/>
</svg>