<svg xmlns="http://www.w3.org/2000/svg" name="gid14996" data-unicode="黔"
    viewBox="0 0 1000 1000">
  <!--
© 2014-2021 Adobe (http://www.adobe.com/).
Noto is a trademark of Google Inc.
This Font Software is licensed under the SIL Open Font License, Version 1.1. This Font Software is distributed on an "AS IS" BASIS, WITHOUT WARRANTIES OR CONDITIONS OF ANY KIND, either express or implied. See the SIL Open Font License for the specific language, permissions and limitations governing your use of this Font Software.
http://scripts.sil.org/OFL
  -->
<path d="M584 375L584 440 856 440 856 375ZM151 181C167 229 180 293 182 334L222 323C219 283 205 219 188 171ZM182 753C196 811 206 885 206 934L258 926C258 878 247 804 231 747ZM278 747C300 800 322 867 327 912L379 901C371 856 349 788 326 737ZM376 734C409 781 444 845 458 887L509 865C494 823 458 761 422 715ZM94 750C87 819 69 891 33 933L84 960C124 915 139 838 148 764ZM355 168C346 214 325 285 310 328L342 340C360 301 381 236 400 184ZM522 532L522 600 818 600C794 699 757 841 725 946L797 959C835 829 880 654 905 539L853 528 841 532ZM70 497L70 557 237 557 237 635 50 644 54 711C171 704 337 694 496 683L498 621 304 632 304 557 474 557 474 497 304 497 304 429 473 429 473 368C485 385 501 409 508 428 598 350 678 224 718 117 764 226 847 349 933 424 943 403 959 375 972 357 888 292 802 166 750 43L680 43C642 159 562 288 473 362L473 76 77 76 77 429 237 429 237 497ZM137 131L245 131 245 375 137 375ZM296 131L412 131 412 375 296 375Z"/>
</svg>