<svg xmlns="http://www.w3.org/2000/svg"
    viewBox="0 0 1000 1000">
  <!--
© 2014-2021 Adobe (http://www.adobe.com/).
Noto is a trademark of Google Inc.
This Font Software is licensed under the SIL Open Font License, Version 1.1. This Font Software is distributed on an "AS IS" BASIS, WITHOUT WARRANTIES OR CONDITIONS OF ANY KIND, either express or implied. See the SIL Open Font License for the specific language, permissions and limitations governing your use of this Font Software.
http://scripts.sil.org/OFL
  -->
<path d="M151 151C167 199 180 263 182 304L222 293C219 253 205 189 188 141ZM184 723C198 779 209 850 208 898L260 891C260 844 249 772 234 717ZM280 717C303 769 323 836 329 880L380 868C373 824 351 758 328 707ZM376 704C409 751 445 815 459 857L509 835C494 793 458 731 422 685ZM99 719C91 789 71 861 32 902L84 930C126 885 143 808 152 734ZM355 138C346 184 326 255 312 298L344 310C362 271 382 206 399 154ZM674 12L674 486 528 486 528 929 598 929 598 883 850 883 850 925 922 925 922 486 747 486 747 299 961 299 961 229 747 229 747 12ZM598 813L598 554 850 554 850 813ZM137 101L245 101 245 343 137 343ZM296 101L412 101 412 343 296 343ZM70 467L70 527 237 527 237 605 49 614 52 680C168 673 334 662 493 651L495 591 304 601 304 527 480 527 480 467 304 467 304 398 473 398 473 46 77 46 77 398 237 398 237 467Z"/>
</svg>