<svg xmlns="http://www.w3.org/2000/svg"
    viewBox="0 0 1000 1000">
  <!--
© 2014-2021 Adobe (http://www.adobe.com/).
Noto is a trademark of Google Inc.
This Font Software is licensed under the SIL Open Font License, Version 1.1. This Font Software is distributed on an "AS IS" BASIS, WITHOUT WARRANTIES OR CONDITIONS OF ANY KIND, either express or implied. See the SIL Open Font License for the specific language, permissions and limitations governing your use of this Font Software.
http://scripts.sil.org/OFL
  -->
<path d="M176 774C151 814 108 863 61 890L120 929C171 897 210 847 238 804ZM330 797C345 838 358 892 360 925L429 913C426 879 412 827 396 787ZM525 801C553 839 585 892 597 925L664 905C650 870 618 820 589 783ZM729 800C776 839 834 895 861 929L925 900C896 864 837 811 789 773ZM288 457C310 480 333 513 344 534L392 511C381 490 356 458 334 436ZM654 433C642 456 614 491 596 513L638 533C658 514 682 486 704 456ZM52 146L52 199 211 199C166 246 97 295 40 318 53 329 72 350 81 365 134 338 197 288 243 238L243 368 312 368 312 245C348 273 395 311 416 332L450 278C431 265 369 223 331 199L473 199 473 146 312 146 312 80C366 73 417 63 457 51L406 10C331 32 184 48 64 54 70 66 78 87 80 100 132 98 188 94 243 88L243 146ZM586 8C559 90 512 169 454 221 470 230 498 249 510 260 538 232 564 198 588 159L688 159C653 229 601 291 538 334 554 344 581 364 592 375 658 323 720 246 759 159L859 159C853 253 847 291 837 302 830 309 823 310 811 310 799 310 769 310 736 307 744 322 751 347 752 364 788 367 824 366 842 365 866 363 880 357 894 342 913 321 921 266 928 128 929 118 930 101 930 101L620 101C632 75 643 49 652 22ZM158 386L158 579 460 579 460 624 140 624 140 673 460 673 460 722 62 722 62 772 938 772 938 722 533 722 533 673 858 673 858 624 533 624 533 579 845 579 845 386ZM227 430L460 430 460 535 227 535ZM533 430L772 430 772 535 533 535Z"/>
</svg>