<svg xmlns="http://www.w3.org/2000/svg"
    viewBox="0 0 1000 1000">
  <!--
© 2014-2021 Adobe (http://www.adobe.com/).
Noto is a trademark of Google Inc.
This Font Software is licensed under the SIL Open Font License, Version 1.1. This Font Software is distributed on an "AS IS" BASIS, WITHOUT WARRANTIES OR CONDITIONS OF ANY KIND, either express or implied. See the SIL Open Font License for the specific language, permissions and limitations governing your use of this Font Software.
http://scripts.sil.org/OFL
  -->
<path d="M788 49C829 75 879 113 905 140L949 102C924 75 872 39 831 16ZM341 540L341 794 377 794 377 540ZM54 63C75 104 94 159 99 195L153 176C147 140 127 86 104 46ZM441 44C431 84 408 143 391 180L439 197C458 163 481 111 502 63ZM171 539L171 647C171 696 166 766 145 815 154 818 169 825 177 831 201 778 206 703 206 648L206 539ZM702 9L702 149 518 149 518 215 702 215 702 308 541 308 541 930 602 930 602 700 706 700 706 928 767 928 767 700 876 700 876 856C876 865 874 868 865 868 857 868 834 868 808 868 816 885 824 912 827 928 868 929 896 927 915 917 935 906 940 887 940 857L940 308 771 308 771 215 959 215 959 149 771 149 771 9ZM876 533L876 639 767 639 767 533ZM876 472L767 472 767 369 876 369ZM602 533L706 533 706 639 602 639ZM602 472L602 369 706 369 706 472ZM138 285C111 331 68 378 25 413 38 422 63 439 74 449L74 930 129 930 129 491 249 491 249 925 299 925 299 491 421 491 421 859C421 869 419 871 410 872 401 873 371 873 337 872 345 888 354 913 355 929 404 929 434 928 455 919 476 908 481 891 481 860L481 428 473 428 513 400C488 366 436 318 392 285L345 315C388 347 435 394 459 428L305 428 305 268 514 268 514 204 367 204 367 10 310 10 310 204 239 204 239 10 183 10 183 204 39 204 39 268 242 268 242 428 101 428C136 392 173 346 198 303Z"/>
</svg>