<svg xmlns="http://www.w3.org/2000/svg"
    viewBox="0 0 1000 1000">
  <!--
© 2014-2021 Adobe (http://www.adobe.com/).
Noto is a trademark of Google Inc.
This Font Software is licensed under the SIL Open Font License, Version 1.1. This Font Software is distributed on an "AS IS" BASIS, WITHOUT WARRANTIES OR CONDITIONS OF ANY KIND, either express or implied. See the SIL Open Font License for the specific language, permissions and limitations governing your use of this Font Software.
http://scripts.sil.org/OFL
  -->
<path d="M512 62L512 412 909 412 909 62ZM522 702L562 702 562 843 522 843ZM642 702L642 843 602 843 602 702ZM522 653L522 514 562 514 562 653ZM642 653L602 653 602 514 642 514ZM191 864L210 920C259 901 312 880 368 859L360 809 272 838 272 681C298 704 324 734 339 754L369 732C378 846 396 915 434 915 454 915 467 907 477 886L477 928 522 928 522 892 642 892 642 923 688 923 688 465 477 465 477 794C469 789 461 783 454 776 452 832 447 860 438 860 419 860 413 696 418 433L361 433 362 567C344 549 319 528 298 513L272 533 272 433 218 433 218 569C201 551 176 530 154 514L134 528 134 432 77 432 77 850 32 866 52 923C99 902 149 881 202 858L194 807 134 829 134 683C155 704 177 729 190 747L218 726 218 856ZM574 263L677 263 677 356 574 356ZM737 263L845 263 845 356 737 356ZM574 119L677 119 677 209 574 209ZM737 119L845 119 845 209 737 209ZM772 702L814 702 814 843 772 843ZM897 702L897 843 855 843 855 702ZM772 653L772 515 814 515 814 653ZM897 653L855 653 855 515 897 515ZM726 465L726 928 772 928 772 892 897 892 897 923 943 923 943 465ZM217 12C191 29 149 53 113 72L72 62 72 398 429 398 429 61 263 61 263 119 369 119 369 199 265 199 265 255 369 255 369 341 132 341 132 255 231 255 231 199 132 199 132 119C171 103 220 81 259 55ZM134 554C156 573 180 597 193 614L218 594 218 706C201 685 175 660 153 641L134 654ZM272 548C298 569 326 595 340 614L363 595C364 637 365 677 368 712 349 690 320 663 296 644L272 660Z"/>
</svg>