<svg xmlns="http://www.w3.org/2000/svg" name="gid15063" data-unicode="鼽"
    viewBox="0 0 1000 1000">
  <!--
© 2014-2021 Adobe (http://www.adobe.com/).
Noto is a trademark of Google Inc.
This Font Software is licensed under the SIL Open Font License, Version 1.1. This Font Software is distributed on an "AS IS" BASIS, WITHOUT WARRANTIES OR CONDITIONS OF ANY KIND, either express or implied. See the SIL Open Font License for the specific language, permissions and limitations governing your use of this Font Software.
http://scripts.sil.org/OFL
  -->
<path d="M184 238L411 238 411 280 184 280ZM184 321L411 321 411 364 184 364ZM184 157L411 157 411 197 184 197ZM80 446L80 661 519 661 519 446ZM45 701L45 761 171 761C158 835 126 888 46 921 60 932 80 956 88 971 184 928 221 858 237 761L355 761 355 960 423 960 423 761 553 761 553 701ZM143 574L266 574 266 619 143 619ZM326 574L453 574 453 619 326 619ZM143 489L266 489 266 532 143 532ZM326 489L453 489 453 532 326 532ZM269 37C264 58 255 88 246 114L118 114 118 407 480 407 480 114 317 114C326 94 336 71 346 46ZM610 54L610 257 520 257 520 326 610 326 610 372C610 561 598 761 470 922 487 931 514 951 527 964 662 792 677 576 677 372L677 326 777 326 777 844C777 895 781 912 795 926 810 940 829 945 849 945 860 945 882 945 895 945 912 945 930 941 942 932 955 923 964 908 969 885 973 863 977 800 977 749 959 742 934 730 920 718 921 773 919 823 917 842 916 855 912 865 908 870 904 874 896 876 888 876 880 876 871 876 866 876 859 876 853 873 849 869 846 866 844 859 844 851L844 257 677 257 677 54Z"/>
</svg>