<svg xmlns="http://www.w3.org/2000/svg"
    viewBox="0 0 1000 1000">
  <!--
© 2014-2021 Adobe (http://www.adobe.com/).
Noto is a trademark of Google Inc.
This Font Software is licensed under the SIL Open Font License, Version 1.1. This Font Software is distributed on an "AS IS" BASIS, WITHOUT WARRANTIES OR CONDITIONS OF ANY KIND, either express or implied. See the SIL Open Font License for the specific language, permissions and limitations governing your use of this Font Software.
http://scripts.sil.org/OFL
  -->
<path d="M539 857C591 878 649 908 682 930L747 902C709 878 642 849 586 827ZM366 673L646 673 646 710 366 710ZM366 745L646 745 646 783 366 783ZM366 602L646 602 646 637 366 637ZM304 566L304 819 709 819 709 566ZM397 829C358 855 289 876 227 892 241 902 264 921 275 931 336 912 411 880 454 847ZM463 234L463 376 530 376 530 234ZM783 452L783 488 242 488 242 452ZM72 180L72 232 167 232C153 291 119 332 40 357 52 367 69 387 76 401 170 367 210 313 227 232L317 232C313 288 309 312 303 320 297 326 292 327 282 327 272 327 250 327 224 323 231 337 237 358 237 372L175 372 175 531C175 647 163 780 51 884 67 895 91 919 101 934 226 819 242 667 242 532L242 530 783 530 783 930 851 930 851 372 783 372 783 410 242 410 242 372C268 374 294 374 308 373 327 372 341 367 352 355 367 338 374 298 379 205 381 196 381 180 381 180ZM854 149C811 166 738 181 671 192L632 181 632 319 581 322 594 376C656 370 725 363 798 355L798 307 691 315 691 237 764 225C791 306 842 369 924 401 933 384 950 362 964 350 891 327 843 278 817 214 847 207 874 200 898 191ZM460 8L460 81 58 81 58 136 423 136 378 155C398 181 418 218 427 242L480 218C471 196 449 162 429 136L575 136C562 162 540 198 523 221L572 240C591 217 613 187 636 152L591 136 944 136 944 81 535 81 535 8Z"/>
</svg>