<svg xmlns="http://www.w3.org/2000/svg" name="gid15082" data-unicode="齗"
    viewBox="0 0 1000 1000">
  <!--
© 2014-2021 Adobe (http://www.adobe.com/).
Noto is a trademark of Google Inc.
This Font Software is licensed under the SIL Open Font License, Version 1.1. This Font Software is distributed on an "AS IS" BASIS, WITHOUT WARRANTIES OR CONDITIONS OF ANY KIND, either express or implied. See the SIL Open Font License for the specific language, permissions and limitations governing your use of this Font Software.
http://scripts.sil.org/OFL
  -->
<path d="M439 358L439 557 136 557 136 358 77 358 77 944 136 944 136 887 439 887 439 932 499 932 499 922C514 934 529 950 536 960 630 819 643 620 643 480L643 448 775 448 775 960 848 960 848 448 962 448 962 378 643 378 643 202C742 176 850 140 928 100L866 46C806 81 705 119 610 146L571 134 571 478C571 601 564 755 499 879L499 358ZM115 99L115 263 40 263 40 324 542 324 542 263 333 263 333 186 504 186 504 129 333 129 333 41 266 41 266 263 178 263 178 99ZM136 614L439 614 439 829 136 829ZM336 359C328 413 314 460 283 495 272 479 252 454 232 433 238 411 242 388 245 363L202 358C194 424 178 479 138 517 149 524 165 540 171 547 190 528 206 504 217 477 231 494 243 512 251 525L276 503 266 513C277 520 293 536 299 543 319 525 335 502 347 476 367 499 388 525 400 543L430 512C417 492 389 460 364 434 371 412 376 389 379 364ZM336 627C329 682 313 728 284 764 272 747 251 722 231 701 237 679 241 656 244 632L200 627C193 693 177 749 137 788 147 795 163 810 170 817 189 797 204 773 216 745 231 763 245 782 254 796L265 786C275 793 290 807 296 814 317 795 334 771 347 744 368 769 390 796 403 814L434 784C419 762 390 729 364 703 371 681 376 657 379 632Z"/>
</svg>