<svg xmlns="http://www.w3.org/2000/svg"
    viewBox="0 0 1000 1000">
  <!--
© 2014-2021 Adobe (http://www.adobe.com/).
Noto is a trademark of Google Inc.
This Font Software is licensed under the SIL Open Font License, Version 1.1. This Font Software is distributed on an "AS IS" BASIS, WITHOUT WARRANTIES OR CONDITIONS OF ANY KIND, either express or implied. See the SIL Open Font License for the specific language, permissions and limitations governing your use of this Font Software.
http://scripts.sil.org/OFL
  -->
<path d="M560 514L560 931 626 931 626 879 846 879 846 926 915 926 915 514ZM626 810L626 580 846 580 846 810ZM667 11C647 115 610 263 574 360L504 366 517 435 877 398C887 423 895 446 900 467L964 439C943 363 888 249 830 163L770 188C799 233 828 285 851 337L644 354C679 261 717 132 746 29ZM195 328C188 394 171 449 132 487 142 494 158 510 165 517 183 499 198 475 210 449 222 465 233 481 240 492L272 464C262 448 244 425 225 404 232 382 236 358 239 333ZM424 328L424 531 132 531 132 328 75 328 75 922 132 922 132 866 424 866 424 907 482 907 482 328ZM326 329C318 393 299 447 258 484 268 491 284 507 290 514 310 496 326 473 338 446 358 470 377 495 389 513L419 483C406 463 379 431 355 405 362 383 367 359 370 335ZM194 601C187 666 170 722 132 760L132 586 424 586 424 808 132 808 132 762C142 770 157 784 164 792 182 773 197 750 209 723 222 739 235 757 242 769L274 740C264 724 244 699 224 678 231 655 235 631 238 606ZM327 602C319 668 300 722 259 761 268 767 285 783 290 790 310 771 326 748 339 721 359 746 379 772 391 791L422 760C408 739 380 706 355 679 362 656 367 632 371 607ZM111 67L111 233 40 233 40 294 513 294 513 233 317 233 317 156 480 156 480 99 317 99 317 11 252 11 252 233 172 233 172 67Z"/>
</svg>