<svg xmlns="http://www.w3.org/2000/svg" name="gid15119" data-unicode="龗"
    viewBox="0 0 1000 1000">
  <!--
© 2014-2021 Adobe (http://www.adobe.com/).
Noto is a trademark of Google Inc.
This Font Software is licensed under the SIL Open Font License, Version 1.1. This Font Software is distributed on an "AS IS" BASIS, WITHOUT WARRANTIES OR CONDITIONS OF ANY KIND, either express or implied. See the SIL Open Font License for the specific language, permissions and limitations governing your use of this Font Software.
http://scripts.sil.org/OFL
  -->
<path d="M188 214L188 253 411 253 411 214ZM166 280L166 319 411 319 411 280ZM582 280L582 319 834 319 834 280ZM582 214L582 253 811 253 811 214ZM169 384L281 384 281 416 169 416ZM112 348L112 453 340 453 340 348ZM440 384L555 384 555 416 440 416ZM382 348L382 453 614 453 614 348ZM715 384L833 384 833 416 715 416ZM657 348L657 453 893 453 893 348ZM51 599L51 643 512 643 512 599 384 599 420 539 490 539 490 495 311 495 311 461 241 461 241 495 76 495 76 539 144 539C154 557 163 580 169 599ZM547 654L547 880C547 942 576 954 669 954 690 954 845 954 866 954 934 954 954 936 959 869 942 866 919 859 904 851 900 902 893 912 858 912 827 912 698 912 675 912 626 912 616 907 616 880L616 875 887 875 887 840 616 840 616 808 875 808 875 772 616 772 616 740 880 740 880 704 616 704 616 672 901 672 901 557 616 557 616 525 926 525 926 485 616 485 616 461 547 461 547 595 833 595 833 633 547 633ZM393 717L393 753 174 753 174 717ZM109 677L109 959 174 959 174 864 393 864 393 907C393 917 390 919 379 920 369 920 335 920 298 919 304 932 312 947 314 960 372 960 410 960 431 953 452 946 459 935 459 907L459 677ZM174 826L174 790 393 790 393 826ZM354 539C346 558 335 581 326 599L230 599C226 582 216 558 204 539ZM76 144L76 288 139 288 139 187 460 187 460 321 533 321 533 187 858 187 858 288 924 288 924 144 533 144 533 114 864 114 864 68 138 68 138 114 460 114 460 144Z"/>
</svg>