<svg xmlns="http://www.w3.org/2000/svg"
    viewBox="0 0 1000 1000">
  <!--
© 2014-2021 Adobe (http://www.adobe.com/).
Noto is a trademark of Google Inc.
This Font Software is licensed under the SIL Open Font License, Version 1.1. This Font Software is distributed on an "AS IS" BASIS, WITHOUT WARRANTIES OR CONDITIONS OF ANY KIND, either express or implied. See the SIL Open Font License for the specific language, permissions and limitations governing your use of this Font Software.
http://scripts.sil.org/OFL
  -->
<path d="M356 499L535 499 535 549 356 549ZM602 499L781 499 781 549 602 549ZM535 644L356 644 356 589 535 589ZM602 644L602 589 781 589 781 644ZM217 546L217 593 287 593 287 687 513 687C511 703 508 717 504 730L225 730 225 782 478 782C439 835 360 861 204 877 216 890 231 916 236 931 425 909 513 867 553 782L812 782C802 835 791 861 778 871 771 878 763 878 748 878 733 878 693 878 652 874 661 889 668 912 669 928 713 931 755 931 776 930 800 929 818 925 834 912 856 893 872 850 886 759 888 748 890 730 890 730L571 730C574 717 577 702 579 687L853 687 853 593 936 593 936 546 853 546 853 457 287 457 287 546ZM126 178L126 436C126 570 119 757 39 890 56 898 88 919 100 932 185 791 198 581 198 436L198 234 451 234 451 285 251 296 254 341 451 330 451 345C451 410 483 423 591 423 614 423 805 423 830 423 905 423 926 406 934 340 915 337 891 332 875 323 871 367 863 374 822 374 783 374 623 374 594 374 532 374 522 370 522 345L522 327 775 313 773 268 522 281 522 234 841 234C833 259 824 283 815 301L879 319C898 286 918 235 933 188L880 174 867 178 526 178 526 127 866 127 866 74 526 74 526 10 452 10 452 178Z"/>
</svg>