<svg xmlns="http://www.w3.org/2000/svg" name="gid15155" data-unicode="隆"
    viewBox="0 0 1000 1000">
  <!--
© 2014-2021 Adobe (http://www.adobe.com/).
Noto is a trademark of Google Inc.
This Font Software is licensed under the SIL Open Font License, Version 1.1. This Font Software is distributed on an "AS IS" BASIS, WITHOUT WARRANTIES OR CONDITIONS OF ANY KIND, either express or implied. See the SIL Open Font License for the specific language, permissions and limitations governing your use of this Font Software.
http://scripts.sil.org/OFL
  -->
<path d="M307 83L81 83 81 960 148 960 148 151 280 151C258 220 229 312 199 386 271 464 290 533 290 587 290 618 284 645 268 656 260 662 249 665 237 665 221 667 201 666 178 664 190 683 196 712 197 730 220 732 245 731 265 729 285 726 303 721 317 711 345 691 357 649 357 595 357 532 340 461 266 377 300 296 338 193 367 110L318 80ZM904 606L695 606 695 537 624 537 624 606 507 606C517 585 526 563 534 542L470 527C447 596 407 665 359 712 376 719 403 736 415 746 436 723 456 695 475 664L624 664 624 735 439 735 439 792 624 792 624 873 352 873 352 935 956 935 956 873 695 873 695 792 892 792 892 735 695 735 695 664 904 664ZM843 457L490 457C551 435 611 407 666 372 744 422 835 458 934 479 944 460 963 432 977 418 885 402 798 373 725 333 794 281 852 219 890 146L844 120 832 123 605 123C622 99 637 75 650 51L576 38C537 115 462 206 352 273 368 283 391 305 402 321 443 294 480 264 512 233 540 269 572 302 609 332 528 378 435 412 346 431 359 446 376 473 383 490 417 481 452 471 486 458L486 513 843 513ZM555 188L561 181 789 181C758 224 715 262 666 296 621 265 583 228 555 188Z"/>
</svg>