<svg xmlns="http://www.w3.org/2000/svg"
    viewBox="0 0 1000 1000">
  <!--
© 2014-2021 Adobe (http://www.adobe.com/).
Noto is a trademark of Google Inc.
This Font Software is licensed under the SIL Open Font License, Version 1.1. This Font Software is distributed on an "AS IS" BASIS, WITHOUT WARRANTIES OR CONDITIONS OF ANY KIND, either express or implied. See the SIL Open Font License for the specific language, permissions and limitations governing your use of this Font Software.
http://scripts.sil.org/OFL
  -->
<path d="M351 52L351 228 422 228 422 119 862 119 862 228 936 228 936 52ZM901 356C869 392 817 439 772 476 749 419 731 357 717 295L881 295 881 231 403 231 403 295 582 295C506 354 404 407 311 443 325 455 348 481 358 494 402 474 450 449 497 421 519 440 539 460 556 480 530 502 497 526 462 548L427 508 376 536 411 578C373 599 335 617 302 630 317 643 335 663 344 679 375 664 409 645 445 624 463 650 479 676 491 698 421 747 343 791 275 818 291 832 309 857 318 874 424 824 553 736 643 651 664 739 648 816 612 843 594 860 574 862 549 862 529 862 497 861 465 858 477 878 483 908 484 927 513 929 543 930 564 929 606 929 634 921 665 895 759 823 757 557 551 387 589 363 625 336 656 309 702 525 785 721 916 816 929 795 953 767 972 752 900 707 841 627 796 532 846 497 905 450 953 406ZM496 591C529 569 561 546 588 524 601 545 613 566 622 587 599 611 572 636 541 660 529 639 514 615 496 591ZM36 656L60 730C142 692 249 644 348 598L334 532 228 577 228 320 330 320 330 250 228 250 228 23 157 23 157 250 45 250 45 320 157 320 157 608C112 627 70 643 36 656Z"/>
</svg>