<svg xmlns="http://www.w3.org/2000/svg" name="gid15160" data-unicode="﨑"
    viewBox="0 0 1000 1000">
  <!--
© 2014-2021 Adobe (http://www.adobe.com/).
Noto is a trademark of Google Inc.
This Font Software is licensed under the SIL Open Font License, Version 1.1. This Font Software is distributed on an "AS IS" BASIS, WITHOUT WARRANTIES OR CONDITIONS OF ANY KIND, either express or implied. See the SIL Open Font License for the specific language, permissions and limitations governing your use of this Font Software.
http://scripts.sil.org/OFL
  -->
<path d="M489 223C511 270 531 334 537 374L601 357C596 318 574 257 552 209ZM787 204C773 250 746 317 724 359L782 376C805 336 833 275 856 221ZM391 380L391 447 812 447 812 871C812 886 807 890 792 891 775 891 719 891 659 889 669 910 681 939 685 959 764 959 814 958 844 947 875 935 885 914 885 872L885 447 961 447 961 380ZM188 51L188 689 128 689 128 240 71 240 71 853 128 853 128 752 313 752 313 813 368 813 368 240 313 240 313 689 250 689 250 51ZM415 135L415 201 935 201 935 135 704 135 704 40 629 40 629 135ZM454 524L454 825 516 825 516 766 729 766 729 524ZM516 581L666 581 666 710 516 710Z"/>
</svg>