<svg xmlns="http://www.w3.org/2000/svg"
    viewBox="0 0 1000 1000">
  <!--
© 2014-2021 Adobe (http://www.adobe.com/).
Noto is a trademark of Google Inc.
This Font Software is licensed under the SIL Open Font License, Version 1.1. This Font Software is distributed on an "AS IS" BASIS, WITHOUT WARRANTIES OR CONDITIONS OF ANY KIND, either express or implied. See the SIL Open Font License for the specific language, permissions and limitations governing your use of this Font Software.
http://scripts.sil.org/OFL
  -->
<path d="M451 327C471 362 488 408 493 439L538 424C533 395 514 349 495 316ZM737 309C726 342 704 394 687 426L730 441C747 410 767 367 785 325ZM406 292L588 292 588 457 406 457ZM645 292L831 292 831 457 645 457ZM445 63C403 146 330 225 257 277 271 291 294 321 303 334 316 324 330 312 343 300L343 512 896 512 896 297 930 320C940 300 960 270 973 255 890 212 804 128 763 37L532 37 532 99 718 99C745 148 782 195 824 236L406 236C446 190 483 137 510 84ZM459 756L783 756 783 838 459 838ZM459 702L459 623 783 623 783 702ZM390 566L390 930 459 930 459 895 783 895 783 927 854 927 854 566ZM264 14C208 166 115 316 16 413 30 430 51 469 58 487 93 451 127 409 160 363L160 928 232 928 232 250C271 181 307 108 335 35Z"/>
</svg>