<svg xmlns="http://www.w3.org/2000/svg" name="gid15197" data-unicode="器"
    viewBox="0 0 1000 1000">
  <!--
© 2014-2021 Adobe (http://www.adobe.com/).
Noto is a trademark of Google Inc.
This Font Software is licensed under the SIL Open Font License, Version 1.1. This Font Software is distributed on an "AS IS" BASIS, WITHOUT WARRANTIES OR CONDITIONS OF ANY KIND, either express or implied. See the SIL Open Font License for the specific language, permissions and limitations governing your use of this Font Software.
http://scripts.sil.org/OFL
  -->
<path d="M196 150L366 150 366 291 196 291ZM622 150L802 150 802 291 622 291ZM614 396C656 412 706 437 740 460L452 460C475 428 495 395 511 362L437 348 437 85 128 85 128 356 431 356C415 391 392 426 364 460L52 460 52 527 298 527C230 587 141 641 30 682 45 696 64 722 72 739L128 715 128 960 198 960 198 931 365 931 365 954 437 954 437 651 246 651C305 613 355 571 396 527L582 527C624 573 679 616 739 651L555 651 555 960 624 960 624 931 802 931 802 954 875 954 875 716 924 732C934 714 955 686 972 672 863 646 751 592 675 527L949 527 949 460 774 460 801 431C768 405 704 374 653 356ZM553 85L553 356 875 356 875 85ZM198 865L198 717 365 717 365 865ZM624 865L624 717 802 717 802 865Z"/>
</svg>