<svg xmlns="http://www.w3.org/2000/svg"
    viewBox="0 0 1000 1000">
  <!--
© 2014-2021 Adobe (http://www.adobe.com/).
Noto is a trademark of Google Inc.
This Font Software is licensed under the SIL Open Font License, Version 1.1. This Font Software is distributed on an "AS IS" BASIS, WITHOUT WARRANTIES OR CONDITIONS OF ANY KIND, either express or implied. See the SIL Open Font License for the specific language, permissions and limitations governing your use of this Font Software.
http://scripts.sil.org/OFL
  -->
<path d="M425 178C451 234 470 307 473 355L530 339C526 291 505 219 478 164ZM860 158C846 212 819 290 797 338L848 355C872 309 900 237 925 176ZM283 594C307 652 326 728 330 778L387 760C381 711 361 636 337 578ZM89 582C77 669 59 759 26 820 42 826 70 839 82 847 113 783 137 687 150 592ZM521 724L822 724 822 827 521 827ZM521 664L521 568 822 568 822 664ZM453 504L453 931 521 931 521 891 822 891 822 927 893 927 893 504ZM28 452L37 519 189 510 189 930 254 930 254 506 329 500C337 524 343 547 346 565L403 541C397 512 384 474 368 435L964 435 964 368 763 368 763 132 939 132 939 66 392 66 392 132 567 132 567 368 365 368 365 427C351 394 334 360 318 330L265 351C279 378 293 408 305 438L171 445C236 360 309 246 364 152L302 124C276 178 239 244 200 307 186 287 168 265 148 243 184 187 226 104 261 35L196 10C176 66 140 143 108 201L76 170 37 217C83 260 134 319 163 365 143 396 123 424 104 449ZM628 132L703 132 703 368 628 368Z"/>
</svg>