<svg xmlns="http://www.w3.org/2000/svg"
    viewBox="0 0 2600 2600">
  <!--
Digitized data copyright © 2011, Google Corporation.
Android is a trademark of Google and may be registered in certain jurisdictions.
Licensed under the Apache License, Version 2.0
http://www.apache.org/licenses/LICENSE-2.0
  -->
<path d="M1988 2237L1988 2237 1988 297Q1988 275 1972 259.5 1956 244 1936 244L1936 244 565 244Q544 244 528.5 259.5 513 275 513 297L513 297 513 2237Q513 2259 528.5 2274.5 544 2290 565 2290L565 2290 1936 2290Q1956 2290 1972 2274.5 1988 2259 1988 2237ZM565 130L565 130 1936 130Q2003 130 2052 179L2052 179Q2076 204 2089 233 2102 262 2102 297L2102 297 2102 2237Q2102 2272 2089 2301 2076 2330 2052 2355L2052 2355Q2003 2404 1936 2404L1936 2404 565 2404Q497 2404 446 2355L446 2355Q398 2305 398 2237L398 2237 398 297Q398 229 446 179L446 179Q497 130 565 130ZM1097 1249L1097 1249Q1110 1249 1121 1257L1121 1257Q1170 1300 1242 1300L1242 1300Q1312 1300 1361 1259L1361 1259Q1370 1251 1386 1251L1386 1251Q1411 1251 1411 1279L1411 1279Q1411 1321 1356 1361L1356 1361Q1304 1401 1236 1401L1236 1401Q1176 1401 1129 1363L1129 1363Q1081 1324 1081 1268L1081 1268Q1081 1249 1097 1249ZM1303 1169L1303 1169Q1303 1140 1330 1110L1330 1110Q1356 1080 1389 1080L1389 1080Q1430 1080 1430 1136L1430 1136Q1430 1173 1409.5 1195.5 1389 1218 1360 1218L1360 1218Q1338 1218 1320.5 1204 1303 1190 1303 1169ZM1137 1208L1137 1208Q1109 1208 1089 1186 1069 1164 1069 1126L1069 1126Q1069 1070 1110 1070L1110 1070Q1138 1070 1167 1099L1167 1099Q1196 1126 1196 1158L1196 1158Q1196 1179 1178.5 1193.5 1161 1208 1137 1208ZM1613 660L1613 660Q1613 643 1567 621L1567 621Q1520 599 1489 599L1489 599Q1402 599 1331 676L1331 676Q1263 752 1263 852L1263 852 1267 888Q1273 914 1346 914L1346 914 1371 914 1411 915Q1429 916 1441.5 914 1454 912 1461.5 904.5 1469 897 1473 883 1477 869 1479 846L1479 846Q1490 697 1602 669L1602 669Q1613 667 1613 660ZM1498 1494L1498 1494 1475 1491Q1452 1491 1435.5 1502.5 1419 1514 1405.5 1527.5 1392 1541 1380.5 1552.5 1369 1564 1357 1564L1357 1564Q1344 1564 1330 1557 1316 1550 1299 1550L1299 1550Q1252 1550 1210 1567L1210 1567 1195 1569Q1183 1569 1177 1561L1177 1561Q1144 1520 1087 1520L1087 1520 1063 1526 1039 1531Q1021 1531 1015 1501L1015 1501Q1013 1490 1004.5 1479.5 996 1469 984.5 1460.5 973 1452 959 1446.5 945 1441 933 1441L933 1441Q913 1441 895 1450.5 877 1460 864 1476 851 1492 843.5 1514 836 1536 836 1560L836 1560Q836 1573 839.5 1585.5 843 1598 851.5 1608 860 1618 873.5 1624 887 1630 907 1630L907 1630Q921 1630 932.5 1624.5 944 1619 961 1619L961 1619Q973 1619 973 1627L973 1627 966 1677Q966 1735 1050 1735L1050 1735Q1073 1735 1089.5 1727.5 1106 1720 1126 1710L1126 1710Q1134 1706 1141 1696.5 1148 1687 1159 1687L1159 1687 1167 1690Q1189 1777 1275 1777L1275 1777Q1340 1777 1357 1733L1357 1733 1361 1718Q1367 1697 1372 1686.5 1377 1676 1385 1676L1385 1676 1397 1680 1407 1690Q1421 1704 1437 1711 1453 1718 1474 1718L1474 1718Q1491 1718 1507 1713 1523 1708 1536 1698 1549 1688 1556.5 1674 1564 1660 1564 1642L1564 1642 1558 1613 1553 1591Q1553 1580 1564 1580L1564 1580Q1576 1580 1592.5 1587 1609 1594 1621 1594L1621 1594Q1636 1594 1650.5 1587.5 1665 1581 1676 1570 1687 1559 1694 1545 1701 1531 1701 1516L1701 1516Q1701 1481 1664 1441L1664 1441Q1627 1401 1594 1401L1594 1401Q1571 1401 1557.5 1411 1544 1421 1527 1450L1527 1450Q1525 1455 1523 1462.5 1521 1470 1517.5 1477 1514 1484 1509.5 1489 1505 1494 1498 1494ZM1227 1973L1227 1973 1227 1958Q1227 1924 1225.5 1902 1224 1880 1220.5 1868 1217 1856 1211 1851 1205 1846 1195 1846L1195 1846 1169 1840Q1161 1836 1133 1801L1133 1801 1126 1795Q1112 1795 1087 1814L1087 1814Q1073 1824 1060 1829.5 1047 1835 1033 1835L1033 1835Q1005 1835 966 1817L966 1817Q956 1811 943 1792L943 1792Q931 1776 922 1776L922 1776Q913 1776 904.5 1785.5 896 1795 888 1811 880 1827 873 1847 866 1867 861 1889L861 1889 853 1924 847 1948Q847 1985 931 2013L931 2013Q1013 2040 1149 2040L1149 2040Q1193 2040 1204 2033L1204 2033Q1217 2026 1222 2007 1227 1988 1227 1973ZM996 1262L996 1262Q995 1336 1032 1389L1032 1389Q1067 1438 1139 1469L1139 1469Q1207 1500 1274 1500L1274 1500Q1304 1500 1333 1490.5 1362 1481 1392 1464L1392 1464Q1452 1428 1480 1368 1508 1308 1508 1237L1508 1237Q1508 1154 1478 1080L1478 1080Q1471 1064 1467 1049 1463 1034 1460 1018L1460 1018Q1456 992 1427 992L1427 992 1381 999 1285 1003Q1259 1004 1232.5 1001 1206 998 1179.5 994.5 1153 991 1127 987.5 1101 984 1076 984L1076 984Q1054 984 1036 1032L1036 1032Q1027 1055 1019.5 1085 1012 1115 1007 1153L1007 1153Q1002 1191 999.5 1218 997 1245 996 1262ZM1866 777L1866 777Q1866 809 1845.5 834 1825 859 1787 859L1787 859Q1770 859 1754 854.5 1738 850 1724.5 840 1711 830 1703 815 1695 800 1695 779L1695 779Q1695 771 1697 763 1699 755 1702 746L1702 746Q1684 731 1653 731L1653 731Q1621 731 1601.5 759 1582 787 1569 843L1569 843 1558 892Q1551 914 1547 933.5 1543 953 1543 972L1543 972Q1543 1004 1557 1034L1557 1034Q1568 1058 1577 1087.5 1586 1117 1595 1151L1595 1151Q1605 1185 1609 1213 1613 1241 1615 1264L1615 1264 1613 1288Q1612 1305 1625.5 1317 1639 1329 1682 1348L1682 1348Q1724 1367 1754 1422L1754 1422Q1786 1478 1786 1531L1786 1531Q1786 1576 1760.5 1613 1735 1650 1687 1665L1687 1665Q1646 1674 1646 1687L1646 1687Q1646 1698 1653 1705L1653 1705Q1699 1786 1722.5 1855.5 1746 1925 1746 1984L1746 1984Q1746 2051 1623 2091L1623 2091Q1500 2130 1325 2130L1325 2130Q1182 2130 1043 2112L1043 2112Q903 2095 834.5 2056.5 766 2018 766 1961L766 1961Q766 1922 780 1876 794 1830 820 1776L820 1776Q825 1765 835.5 1750.5 846 1736 846 1724L846 1724Q846 1713 835.5 1706.5 825 1700 817 1695L817 1695Q798 1685 784.5 1670 771 1655 763 1637.5 755 1620 751 1601 747 1582 747 1564L747 1564Q747 1510 766 1474L766 1474Q802 1386 870 1367L870 1367Q907 1357 907 1331L907 1331 900 1260Q900 1203 911 1147 922 1091 943 1034L943 1034Q959 992 974 952 989 912 989 868L989 868Q989 802 962 771 935 740 869 740L869 740Q807 740 810 773L810 773 812 790Q810 825 785.5 851 761 877 724 877L724 877Q679 877 653.5 853 628 829 628 787L628 787Q628 769 636 753 644 737 657.5 725 671 713 688 706 705 699 723 699L723 699Q745 699 758 709L758 709Q823 623 897 578.5 971 534 1044 534L1044 534Q1159 534 1234 625L1234 625Q1246 639 1253 639L1253 639Q1269 639 1278 630L1278 630Q1375 526 1494 526L1494 526Q1525 526 1559 537.5 1593 549 1625 569 1657 589 1685.5 616.5 1714 644 1735 677L1735 677Q1743 697 1755 697L1755 697 1781 691Q1798 691 1813.5 697.5 1829 704 1840.5 716 1852 728 1859 743.5 1866 759 1866 777Z"/>
</svg>