<svg xmlns="http://www.w3.org/2000/svg"
    viewBox="0 0 2600 2600">
  <!--
Digitized data copyright © 2011, Google Corporation.
Android is a trademark of Google and may be registered in certain jurisdictions.
Licensed under the Apache License, Version 2.0
http://www.apache.org/licenses/LICENSE-2.0
  -->
<path d="M670 335L670 335 1830 335Q1847 335 1858.5 346.5 1870 358 1870 373L1870 373 1870 666Q1870 683 1858.5 694.5 1847 706 1830 706L1830 706 1091 706 1091 1000 1707 1000Q1724 1000 1734.5 1011.5 1745 1023 1745 1039L1745 1039 1745 1332Q1745 1349 1734.5 1360.5 1724 1372 1707 1372L1707 1372 1091 1372 1091 2141Q1091 2158 1080 2168.5 1069 2179 1053 2179L1053 2179 670 2179Q653 2179 641.5 2168.5 630 2158 630 2141L630 2141 630 373Q630 358 641.5 346.5 653 335 670 335Z"/>
</svg>