<svg xmlns="http://www.w3.org/2000/svg"
    viewBox="0 0 2600 2600">
  <!--
Digitized data copyright © 2011, Google Corporation.
Android is a trademark of Google and may be registered in certain jurisdictions.
Licensed under the Apache License, Version 2.0
http://www.apache.org/licenses/LICENSE-2.0
  -->
<path d="M1861 704L1861 704 1062 704 1062 1050 1676 1050Q1693 1050 1704.5 1061.5 1716 1073 1716 1090L1716 1090 1716 1383Q1716 1400 1704.5 1411.5 1693 1423 1676 1423L1676 1423 1062 1423 1062 1808 1861 1808Q1878 1808 1889 1819.5 1900 1831 1900 1847L1900 1847 1900 2139Q1900 2156 1889 2167.5 1878 2179 1861 2179L1861 2179 639 2179Q622 2179 611 2167.5 600 2156 600 2139L600 2139 600 375Q600 358 611 346.5 622 335 639 335L639 335 1861 335Q1878 335 1889 346.5 1900 358 1900 375L1900 375 1900 665Q1900 682 1889 693 1878 704 1861 704Z"/>
</svg>