<svg xmlns="http://www.w3.org/2000/svg"
    viewBox="0 0 2600 2850">
  <!--
Digitized data copyright © 2011, Google Corporation.
Android is a trademark of Google and may be registered in certain jurisdictions.
Licensed under the Apache License, Version 2.0
http://www.apache.org/licenses/LICENSE-2.0
  -->
<path d="M1713 544L1713 544 2104 544Q2121 544 2133 555.5 2145 567 2145 587L2145 587 2143 601 1497 2350Q1491 2378 1457 2378L1457 2378 1043 2378Q1029 2378 1018.5 2371 1008 2364 1003 2350L1003 2350 357 601 355 587Q355 567 367 555.5 379 544 396 544L396 544 786 544Q814 544 825 572L825 572 1249 1679 1675 572Q1686 544 1713 544Z"/>
</svg>