<svg xmlns="http://www.w3.org/2000/svg"
    viewBox="0 0 2600 2850">
  <!--
Digitized data copyright © 2011, Google Corporation.
Android is a trademark of Google and may be registered in certain jurisdictions.
Licensed under the Apache License, Version 2.0
http://www.apache.org/licenses/LICENSE-2.0
  -->
<path d="M565 986L565 986Q565 972 571 966L571 966 650 865Q658 856 671 856L671 856 686 860 880 1005Q888 1016 888 1027L888 1027 884 1040 803 1143Q795 1152 784 1152L784 1152Q774 1152 769 1147L769 1147 576 1002Q571 999 569 995 567 991 565 986ZM545 1390L545 1390Q545 1376 550 1371L550 1371 630 1269Q635 1261 649 1261L649 1261 664 1265 858 1411Q868 1417 868 1432L868 1432Q868 1439 862 1445L862 1445 783 1546Q774 1557 762 1557L762 1557 749 1552 554 1407Q546 1399 545 1390ZM824 1748L898 1853 902 1868Q902 1877 895 1884L895 1884 669 2120Q663 2126 650 2126L650 2126Q638 2125 631 2116L631 2116 557 2010 553 1996Q553 1986 560 1979L560 1979 786 1743Q795 1737 805 1737L805 1737Q818 1739 824 1748L824 1748ZM1535 1102L1297 1102 1297 1193 1535 1193 1535 1102ZM1724 1102L1724 1193 1892 1193Q1900 1193 1908 1199.5 1916 1206 1916 1219L1916 1219 1916 1349Q1916 1373 1892 1373L1892 1373 1494 1373 1494 1430 1892 1430Q1916 1430 1916 1455L1916 1455 1916 2050Q1916 2107 1884 2140 1852 2173 1802 2173L1802 2173 1643 2173Q1622 2173 1619 2152L1619 2152 1598 2038 1597 2032Q1597 2009 1621 2009L1621 2009 1727 2009 1727 1609 1494 1609 1494 1831 1532 1831 1532 1719Q1532 1708 1540 1700.5 1548 1693 1557 1693L1557 1693 1668 1693Q1676 1693 1684.5 1700.5 1693 1708 1693 1719L1693 1719 1693 1966Q1693 1977 1684.5 1984 1676 1991 1668 1991L1668 1991 1166 1991Q1155 1991 1148 1983.5 1141 1976 1141 1966L1141 1966 1141 1719Q1141 1693 1166 1693L1166 1693 1275 1693Q1300 1693 1300 1719L1300 1719 1300 1831 1336 1831 1336 1609 1106 1609 1106 2148Q1106 2158 1099 2165.5 1092 2173 1081 2173L1081 2173 942 2173Q917 2173 917 2148L917 2148 917 1455Q917 1430 942 1430L942 1430 1336 1430 1336 1373 942 1373Q917 1373 917 1349L917 1349 917 1219Q917 1208 924.5 1200.5 932 1193 942 1193L942 1193 1110 1193 1110 1102 977 1102Q954 1102 954 1076L954 1076 954 946Q954 923 977 923L977 923 1110 923 1110 836Q1110 825 1117.5 817.5 1125 810 1133 810L1133 810 1274 810Q1282 810 1289.5 816.5 1297 823 1297 836L1297 836 1297 923 1535 923 1535 836Q1535 810 1560 810L1560 810 1699 810Q1724 810 1724 836L1724 836 1724 923 1855 923Q1880 923 1880 946L1880 946 1880 1076Q1880 1102 1855 1102L1855 1102 1724 1102ZM2169 2345L2169 2345 2169 596Q2169 578 2155.5 565 2142 552 2125 552L2125 552 377 552Q357 552 343.5 565 330 578 330 596L330 596 330 2345Q330 2365 343.5 2377.5 357 2390 377 2390L377 2390 2125 2390Q2142 2390 2155.5 2377.5 2169 2365 2169 2345ZM377 473L377 473 2125 473Q2150 473 2172.5 482.5 2195 492 2211.5 508.5 2228 525 2238 547.5 2248 570 2248 596L2248 596 2248 2345Q2248 2370 2238 2392.5 2228 2415 2211.5 2431.5 2195 2448 2172.5 2458 2150 2468 2125 2468L2125 2468 377 2468Q351 2468 328 2458 305 2448 288 2431.5 271 2415 261.5 2392.5 252 2370 252 2345L252 2345 252 596Q252 570 261.5 547.5 271 525 288 508.5 305 492 328 482.5 351 473 377 473Z"/>
</svg>