<svg xmlns="http://www.w3.org/2000/svg"
    viewBox="0 0 2600 2850">
  <!--
Digitized data copyright © 2011, Google Corporation.
Android is a trademark of Google and may be registered in certain jurisdictions.
Licensed under the Apache License, Version 2.0
http://www.apache.org/licenses/LICENSE-2.0
  -->
<path d="M563 810L563 810 658 1048 660 1063Q660 1078 650 1088.5 640 1099 626 1101L626 1101 372 1129 409 1168Q526 1180 659 1268L659 1268Q723 1096 879 992L879 992Q1040 886 1240 886L1240 886Q1472 886 1641 1010L1641 1010Q1811 1132 1853 1337L1853 1337Q1935 1288 1987 1272L1987 1272 2124 1146 1882 1133Q1865 1131 1854.5 1120 1844 1109 1844 1092L1844 1092 1930 840 1682 917 1673 918Q1656 918 1644 906.5 1632 895 1632 878L1632 878 1632 874 1660 625 1436 795Q1424 802 1410 802L1410 802Q1389 802 1377 780L1377 780 1249 520 1134 770Q1129 782 1119 787.5 1109 793 1097 793L1097 793Q1082 793 1072 784L1072 784 857 599 861 856Q862 873 850.5 884.5 839 896 823 896L823 896Q819 896 563 810ZM1784 1382L1784 1382Q1737 1182 1599 1073 1461 964 1240 964L1240 964Q1149 964 1068 989 987 1014 915 1063L915 1063Q774 1160 725 1317L725 1317Q815 1394 1052 1629L1052 1629 1091 1669Q1138 1715 1180 1739 1222 1763 1262 1763L1262 1763Q1283 1763 1313 1747.5 1343 1732 1385.5 1701.5 1428 1671 1484 1624.5 1540 1578 1614 1516L1614 1516Q1656 1481 1697.5 1447 1739 1413 1784 1382ZM2426 1342L2426 1342 2426 2259Q2426 2351 2361 2416L2361 2416Q2295 2482 2205 2482L2205 2482 297 2482Q205 2482 139 2416L139 2416Q74 2351 74 2259L74 2259 74 1268Q214 1189 305 1172L305 1172 261 1124Q250 1113 250 1100L250 1100Q250 1083 258.5 1072 267 1061 284 1059L284 1059 566 1029Q455 752 455 747L455 747Q455 730 466.5 718 478 706 495 706L495 706 782 802 778 513Q778 497 788 485 798 473 818 473L818 473Q831 473 842 483L842 483 1083 691 1210 412Q1221 388 1246 388L1246 388Q1270 388 1281 410L1281 410 1426 703 1686 507Q1697 499 1710 499L1710 499Q1730 499 1739.5 511 1749 523 1749 539L1749 539 1716 824 1981 743 1991 741Q2009 741 2020 753.5 2031 766 2031 781L2031 781 2030 793 1938 1057 2220 1074Q2257 1075 2257 1114L2257 1114Q2257 1130 2245 1142L2245 1142 2132 1245Q2276 1245 2426 1342Z"/>
</svg>