<svg xmlns="http://www.w3.org/2000/svg"
    viewBox="0 0 2600 2600">
  <!--
Digitized data copyright © 2011, Google Corporation.
Android is a trademark of Google and may be registered in certain jurisdictions.
Licensed under the Apache License, Version 2.0
http://www.apache.org/licenses/LICENSE-2.0
  -->
<path d="M299 332L299 332Q299 297 320.5 274.5 342 252 374 252L374 252Q416 252 454 282L454 282Q524 354 524 410L524 410Q524 441 484 441L484 441Q472 441 462.5 440 453 439 446 436L446 436Q352 410 327 388L327 388Q299 365 299 332ZM2031 367L2031 367 1934 370Q1885 364 1885 340L1885 340Q1885 312 1942 267L1942 267Q2002 222 2039 222L2039 222Q2068 222 2089 242.5 2110 263 2110 295L2110 295Q2110 329 2088.5 347.5 2067 366 2031 367ZM849 262L849 262Q829 262 799.5 251 770 240 742.5 222.5 715 205 696 183 677 161 680 140L680 140Q680 103 705.5 84 731 65 763 65L763 65Q795 65 822 94 849 123 866 177L866 177Q866 193 871.5 205.5 877 218 877 232L877 232Q877 262 849 262ZM1243 300L1243 300Q1222 300 1197 251L1197 251Q1183 225 1177.5 201 1172 177 1172 154L1172 154Q1172 116 1194.5 94 1217 72 1253 72L1253 72Q1289 72 1307 95 1325 118 1325 146L1325 146Q1325 169 1319 192 1313 215 1299 237L1299 237Q1284 261 1271.5 280.5 1259 300 1243 300ZM930 163L930 163Q930 134 947 114.5 964 95 990 95L990 95Q1026 95 1057 135L1057 135Q1073 155 1084.5 182.5 1096 210 1105 245L1105 245Q1123 316 1123 456L1123 456Q1123 470 1117.5 484.5 1112 499 1101 499L1101 499Q1079 499 1060 423L1060 423Q1051 390 1035.5 359.5 1020 329 998 300L998 300Q987 285 975 269.5 963 254 953 237 943 220 936.5 201.5 930 183 930 163ZM2299 756L2299 756Q2299 820 2205 820L2205 820Q2144 820 2093 814.5 2042 809 1985 809L1985 809Q1910 809 1833 819 1756 829 1678 849L1678 849Q1676 850 1666 852 1656 854 1639 857L1639 857Q1621 860 1607.5 862 1594 864 1585 864L1585 864Q1566 864 1566 857L1566 857Q1566 815 1688 774L1688 774Q1810 732 1896 720L1896 720Q1982 708 2176 702L2176 702Q2198 702 2215.5 704 2233 706 2247 709L2247 709Q2299 730 2299 756ZM1193 780L1193 780Q1171 780 1171 753L1171 753Q1171 651 1222 544 1273 437 1365 345L1365 345Q1456 254 1563 203L1563 203Q1669 152 1722 152L1722 152Q1764 152 1790 168.5 1816 185 1816 214L1816 214Q1816 311 1619 351L1619 351Q1367 402 1228 746L1228 746Q1215 780 1193 780ZM410 706L410 706 365 708Q312 710 278.5 704 245 698 229 689L229 689Q201 671 201 641L201 641Q201 599 242 576 283 553 348 553L348 553Q383 553 416.5 558 450 563 484 571L484 571Q519 580 567 600 615 620 678 652L678 652Q804 715 881 780L881 780Q957 847 957 876L957 876Q957 893 945.5 905 934 917 919 917L919 917Q904 917 892 905L892 905Q800 819 660 763L660 763Q590 735 528 719.5 466 704 410 706ZM312 1214L312 1214Q274 1214 257 1196 240 1178 240 1158L240 1158Q240 1108 303 1048L303 1048Q336 1018 378 994 420 970 467.5 953.5 515 937 566.5 928 618 919 669 919L669 919Q707 919 744.5 924 782 929 819 940L819 940Q891 962 945 999L945 999Q997 1036 997 1059L997 1059Q997 1073 988 1083.5 979 1094 965 1094L965 1094Q955 1094 949 1088L949 1088Q856 1028 738 1028L738 1028Q667 1028 606.5 1047 546 1066 496 1105L496 1105 433 1154Q356 1214 312 1214ZM2145 1084L2145 1084Q2145 1098 2137.5 1109.5 2130 1121 2118.5 1129 2107 1137 2093.5 1141.5 2080 1146 2067 1146L2067 1146Q2051 1146 2037 1140.5 2023 1135 2012 1126L2012 1126Q1975 1098 1938 1079 1901 1060 1862 1048.5 1823 1037 1781 1032 1739 1027 1691 1027L1691 1027Q1575 1027 1502 1054L1502 1054Q1480 1062 1462 1062L1462 1062Q1424 1062 1424 1044L1424 1044Q1424 1012 1480 987L1480 987 1504 976Q1564 950 1629.5 932 1695 914 1773 914L1773 914Q1886 914 2016 964L2016 964Q2145 1012 2145 1084ZM1896 463L1896 463Q1937 463 1965.5 479 1994 495 1994 531L1994 531Q1994 569 1966.5 591.5 1939 614 1868 619L1868 619Q1834 621 1788.5 634.5 1743 648 1684 671L1684 671Q1567 715 1503 760L1503 760Q1471 783 1440 817 1409 851 1373 890L1373 890 1339 927Q1326 940 1319 952.5 1312 965 1297 965L1297 965Q1269 965 1269 942L1269 942Q1269 934 1271 924 1273 914 1279 903L1279 903Q1287 870 1308 838.5 1329 807 1349 779L1349 779Q1445 641 1599 553L1599 553Q1755 463 1896 463ZM633 367L633 367Q633 352 639 338 645 324 656 313 667 302 682 295 697 288 715 288L715 288Q762 288 848 359L848 359Q936 431 1004 546L1004 546Q1072 662 1126 839L1126 839Q1152 927 1165.5 972.5 1179 1018 1179 1022L1179 1022Q1179 1038 1168 1046.5 1157 1055 1142 1055L1142 1055Q1117 1055 1108 1031L1108 1031 1079 953 1052 875Q1008 751 930 657.5 852 564 742 494L742 494Q710 474 690.5 459 671 444 663 436L663 436Q647 419 640 403 633 387 633 367ZM2084 2116L2084 2116Q2084 2187 1989 2245L1989 2245Q1941 2275 1858.5 2303 1776 2331 1655 2359L1655 2359Q1534 2387 1426.5 2401 1319 2415 1221 2415L1221 2415Q1052 2415 886.5 2387.5 721 2360 569 2302L569 2302Q417 2243 368 2195L368 2195Q316 2146 316 2088L316 2088Q316 2065 322.5 2047 329 2029 339.5 2013.5 350 1998 364.5 1984.5 379 1971 395 1957L395 1957Q472 1890 544 1820.5 616 1751 680 1677 744 1603 797 1523.5 850 1444 890 1358L890 1358 915 1304Q941 1249 962.5 1220 984 1191 1012 1191L1012 1191Q1042 1191 1057 1209L1057 1209Q1074 1228 1090 1228L1090 1228Q1105 1228 1135 1204L1135 1204Q1149 1193 1161.5 1187 1174 1181 1184 1181L1184 1181Q1204 1181 1216.5 1189 1229 1197 1238 1207 1247 1217 1255.5 1225 1264 1233 1277 1233L1277 1233Q1294 1233 1318 1206L1318 1206Q1343 1180 1377 1180L1377 1180Q1447 1180 1503 1306L1503 1306Q1531 1368 1575.5 1445.5 1620 1523 1684 1618L1684 1618Q1747 1712 1817 1792 1887 1872 1964 1942L1964 1942Q1998 1972 2018 1993 2038 2014 2046 2025L2046 2025Q2063 2047 2073.5 2069.5 2084 2092 2084 2116Z"/>
</svg>