<svg xmlns="http://www.w3.org/2000/svg"
    viewBox="0 0 2600 2850">
  <!--
Digitized data copyright © 2011, Google Corporation.
Android is a trademark of Google and may be registered in certain jurisdictions.
Licensed under the Apache License, Version 2.0
http://www.apache.org/licenses/LICENSE-2.0
  -->
<path d="M177 2321L177 2321 572 2321 572 2598Q278 2513 177 2321ZM1972 2066L1727 2066 1727 1259Q1786 1307 1847 1351 1908 1395 1972 1437L1972 1437 1972 2066ZM215 1656L215 1656 215 2066 89 2066Q63 1929 56 1706L56 1706Q103 1693 142.5 1680.5 182 1668 215 1656ZM561 2066L318 2066 318 1616Q384 1591 443 1558.5 502 1526 561 1493L561 1493 561 2066ZM1624 2066L1397 2066 1397 946Q1452 1006 1508.5 1062 1565 1118 1624 1172L1624 1172 1624 2066ZM2311 775L2311 775Q2331 775 2345.5 760.5 2360 746 2360 726L2360 726Q2360 706 2345.5 692 2331 678 2311 678L2311 678Q2291 678 2277 692 2263 706 2263 726L2263 726Q2263 746 2277 760.5 2291 775 2311 775ZM2214 1172L2214 1172Q2234 1172 2248 1158 2262 1144 2262 1124L2262 1124Q2262 1103 2248 1088.5 2234 1074 2214 1074L2214 1074Q2193 1074 2179 1088.5 2165 1103 2165 1124L2165 1124Q2165 1144 2179 1158 2193 1172 2214 1172ZM1991 445L1991 445Q2024 445 2047 422 2070 399 2070 366L2070 366Q2070 334 2047 311 2024 288 1991 288L1991 288Q1959 288 1936 311 1913 334 1913 366L1913 366Q1913 399 1936 422 1959 445 1991 445ZM1854 823L1854 823Q1874 823 1888 809 1902 795 1902 775L1902 775Q1902 754 1888 740 1874 726 1854 726L1854 726Q1834 726 1819.5 740 1805 754 1805 775L1805 775Q1805 795 1819.5 809 1834 823 1854 823ZM1626 455L1626 455Q1646 455 1659.5 440.5 1673 426 1673 405L1673 405Q1673 385 1659.5 370.5 1646 356 1626 356L1626 356Q1605 356 1590.5 370.5 1576 385 1576 405L1576 405Q1576 426 1590.5 440.5 1605 455 1626 455ZM979 405L979 405Q995 405 1009 399 1023 393 1033.5 382.5 1044 372 1050.5 357.5 1057 343 1057 327L1057 327Q1057 311 1050.5 296.5 1044 282 1033.5 271.5 1023 261 1009 254.5 995 248 979 248L979 248Q946 248 922.5 271.5 899 295 899 327L899 327Q899 359 922.5 382 946 405 979 405ZM840 775L840 775Q861 775 875.5 760.5 890 746 890 726L890 726Q890 706 875.5 692 861 678 840 678L840 678Q820 678 806 692 792 706 792 726L792 726Q792 746 806 760.5 820 775 840 775ZM461 883L461 883Q494 883 516.5 860 539 837 539 805L539 805Q539 772 516.5 749 494 726 461 726L461 726Q429 726 406 749 383 772 383 805L383 805Q383 821 389 835 395 849 405.5 859.5 416 870 430.5 876.5 445 883 461 883ZM429 356L429 356Q408 356 394.5 370.5 381 385 381 405L381 405Q381 426 394.5 440.5 408 455 429 455L429 455Q449 455 463.5 440.5 478 426 478 405L478 405Q478 385 463.5 370.5 449 356 429 356ZM304 1256L304 1256Q332 1256 351.5 1237 371 1218 371 1189L371 1189Q371 1161 351.5 1142.5 332 1124 304 1124L304 1124Q276 1124 256.5 1142.5 237 1161 237 1189L237 1189Q237 1218 256.5 1237 276 1256 304 1256ZM2546 1196L2546 1196Q2546 1218 2544 1319.5 2542 1421 2537 1604L2537 1604Q2319 1539 2102 1411L2102 1411Q1882 1282 1678 1098L1678 1098Q1575 1005 1494.5 920 1414 835 1355 756L1355 756Q1336 730 1312 730L1312 730Q1290 730 1277 747L1277 747Q1164 895 954 1089L954 1089Q849 1185 737.5 1267.5 626 1350 512 1416.5 398 1483 282.5 1532.5 167 1582 54 1613L54 1613Q54 1421 55.5 1288.5 57 1156 61 1079L61 1079Q68 925 92.5 791.5 117 658 163 535L163 535Q186 474 216.5 418 247 362 286.5 314 326 266 375 228 424 190 486 166L486 166Q610 118 780 98L780 98Q951 77 1360 77L1360 77Q1526 77 1651.5 85.5 1777 94 1862 110L1862 110Q2035 142 2160 211L2160 211Q2286 282 2373 415L2373 415Q2460 548 2502 735L2502 735Q2524 828 2535 942 2546 1056 2546 1196ZM1229 2066L1011 2066 1011 1162Q1064 1114 1118 1060 1172 1006 1229 946L1229 946 1229 2066ZM2052 2571L2052 2571 2052 2321 2362 2321Q2241 2495 2052 2571ZM2318 2066L2074 2066 2074 1498Q2131 1533 2192 1562.5 2253 1592 2318 1620L2318 1620 2318 2066ZM909 1251L909 1251 909 2066 664 2066 664 1430Q780 1354 909 1251ZM2479 2066L2420 2066 2420 1660Q2476 1682 2533 1697L2533 1697Q2518 1930 2479 2066L2479 2066ZM890 2648L890 2648 890 2321 1736 2321 1736 2642Q1697 2645 1658 2647 1619 2649 1580 2650L1580 2650Q1542 2652 1432.5 2653 1323 2654 1140 2656L1140 2656Q1062 2657 1000 2654.5 938 2652 890 2648Z"/>
</svg>