<svg xmlns="http://www.w3.org/2000/svg"
    viewBox="0 0 2600 2600">
  <!--
Digitized data copyright © 2011, Google Corporation.
Android is a trademark of Google and may be registered in certain jurisdictions.
Licensed under the Apache License, Version 2.0
http://www.apache.org/licenses/LICENSE-2.0
  -->
<path d="M981 1454L876 1886 1251 1648 1626 1886 1519 1454 1857 1173 1416 1138 1251 732 1084 1138 643 1173 981 1454ZM1870 2158L1870 2158Q1870 2179 1855 2194 1840 2209 1820 2209L1820 2209Q1807 2209 1794 2201L1794 2201 1251 1856 706 2201Q693 2209 680 2209L680 2209Q660 2209 645 2194 630 2179 630 2158L630 2158Q630 2153 786 1518L786 1518 294 1110Q277 1097 277 1072L277 1072Q277 1052 289.5 1038.5 302 1025 322 1023L322 1023 962 971 1204 383Q1218 351 1251 351L1251 351Q1282 351 1296 383L1296 383 1538 971 2178 1023Q2198 1025 2210.5 1038.5 2223 1052 2223 1072L2223 1072Q2223 1097 2206 1110L2206 1110 1716 1518Q1793 1837 1831.5 1996 1870 2155 1870 2158ZM2408 1888L2408 1888Q2408 1910 2374 1971L2374 1971Q2357 2001 2339 2027 2321 2053 2303 2072 2285 2091 2268 2102 2251 2113 2237 2113L2237 2113Q2217 2113 2204 2099 2191 2085 2180 2074L2180 2074Q2109 2002 2038.5 1932 1968 1862 1906 1781L1906 1781Q1898 1770 1898 1759L1898 1759Q1898 1750 1902.5 1741.5 1907 1733 1914 1726.5 1921 1720 1929.5 1715.5 1938 1711 1946 1711L1946 1711Q1954 1711 1975.5 1715 1997 1719 2032 1727L2032 1727Q2067 1735 2097.5 1743.5 2128 1752 2155 1762L2155 1762 2189 1770Q2234 1781 2272 1793 2310 1805 2342 1820L2342 1820Q2408 1852 2408 1888ZM1831 826L1831 826Q1813 826 1798 810 1783 794 1783 774L1783 774Q1783 766 1788 755 1793 744 1801 727L1801 727 1846 641 1943 472Q1957 447 1973.5 421.5 1990 396 2007 375 2024 354 2042 341 2060 328 2077 328L2077 328Q2090 328 2100.5 332.5 2111 337 2121.5 345 2132 353 2144 364.5 2156 376 2171 390L2171 390Q2192 409 2214 436.5 2236 464 2252.5 490.5 2269 517 2277.5 536.5 2286 556 2282 559L2282 559Q2282 576 2271 587L2271 587Q2269 592 2263 593L2263 593 2062 711Q1865 826 1831 826ZM554 1711L554 1711Q562 1711 570.5 1715.5 579 1720 586 1726.5 593 1733 597.5 1741.5 602 1750 602 1759L602 1759Q602 1770 594 1781L594 1781Q563 1821 530.5 1858.5 498 1896 463 1931L463 1931 296 2100Q282 2113 263 2113L263 2113Q236 2113 195 2069L195 2069Q174 2048 156 2021.5 138 1995 122 1963L122 1963Q113 1945 102.5 1927 92 1909 92 1889L92 1889Q92 1855 139.5 1829 187 1803 281 1778L281 1778 344 1762Q369 1755 399.5 1746.5 430 1738 468 1729L468 1729Q544 1711 554 1711ZM216 559L216 559Q216 532 256 474L256 474Q276 445 296.5 422 317 399 337 381L337 381Q346 374 354.5 364.5 363 355 372.5 347 382 339 393.5 333.5 405 328 419 328L419 328Q460 328 504 390L504 390Q518 410 532.5 430 547 450 558 472L558 472 654 641 695 723Q706 744 711.5 756.5 717 769 717 774L717 774Q717 783 713 792 709 801 702 808.5 695 816 686.5 821 678 826 669 826L669 826 654 823Q554 778 462 725 370 672 275 617L275 617Q266 612 255.5 606.5 245 601 236.5 594.5 228 588 222 579.5 216 571 216 559Z"/>
</svg>