<svg xmlns="http://www.w3.org/2000/svg"
    viewBox="0 0 2600 2600">
  <!--
Digitized data copyright © 2011, Google Corporation.
Android is a trademark of Google and may be registered in certain jurisdictions.
Licensed under the Apache License, Version 2.0
http://www.apache.org/licenses/LICENSE-2.0
  -->
<path d="M340 1194L340 1194Q340 1337 355 1410L355 1410Q368 1483 403 1543L403 1543Q435 1601 504 1630 573 1659 691 1659L691 1659 713 1659Q866 1659 866 1623L866 1623Q866 1606 859 1592L859 1592 671 1603Q609 1607 563 1588.5 517 1570 485 1536L485 1536Q453 1502 434.5 1439.5 416 1377 409 1284L409 1284Q405 1233 401 1199 397 1165 392 1145 387 1125 381 1117 375 1109 366 1109L366 1109 360 1110Q340 1123 340 1194ZM1620 1232L1620 1232Q1620 1257 1641 1257L1641 1257Q1654 1257 1668.5 1250 1683 1243 1694 1240L1694 1240Q1748 1219 1795 1191.5 1842 1164 1895 1138L1895 1138Q1948 1112 1984 1078 2020 1044 2042 1002.5 2064 961 2073.5 912 2083 863 2082 807L2082 807 2081 693 2081 648 2078 470 2078 413 2081 355 2088 303Q2088 291 2082.5 278 2077 265 2066 265L2066 265Q2047 265 2032 325L2032 325Q2024 355 2021 377.5 2018 400 2017 415L2017 415Q2012 448 2010.5 492 2009 536 2009 591L2009 591 2009 719 2010 819Q2011 864 2004.5 899 1998 934 1987 959L1987 959Q1962 1011 1901.5 1057.5 1841 1104 1745 1150L1745 1150 1653 1194Q1642 1201 1631 1208 1620 1215 1620 1232ZM873 1797L873 1797Q873 1788 871 1779.5 869 1771 866 1763L866 1763 654 1766Q508 1767 419 1716L419 1716Q333 1668 281 1550L281 1550Q230 1433 230 1284L230 1284Q230 1196 248 1136L248 1136Q251 1125 253 1114 255 1103 255 1094L255 1094Q255 1073 242 1073L242 1073Q224 1073 209.5 1089.5 195 1106 185 1136 175 1166 169.5 1207.5 164 1249 164 1298L164 1298Q164 1355 172 1411 180 1467 195.5 1518 211 1569 233 1613.5 255 1658 282 1693L282 1693Q337 1763 422 1793L422 1793Q464 1809 525.5 1816 587 1823 668 1823L668 1823Q722 1823 766 1819.5 810 1816 846 1809L846 1809Q854 1807 863.5 1806 873 1805 873 1797ZM2301 570L2301 570Q2301 437 2278 340L2278 340Q2255 244 2208 244L2208 244Q2188 244 2188 279L2188 279 2193 309Q2232 420 2232 621L2232 621Q2232 833 2206 945L2206 945Q2180 1054 2132 1121L2132 1121Q2082 1190 1997 1245 1912 1300 1801 1351L1801 1351 1673 1410Q1626 1432 1626 1457L1626 1457Q1626 1487 1652 1487L1652 1487Q1664 1487 1683 1481 1702 1475 1731 1462 1760 1449 1802 1429.5 1844 1410 1902 1384L1902 1384Q2017 1332 2114 1249L2114 1249Q2211 1165 2229 1110L2229 1110Q2257 1053 2272 980.5 2287 908 2292 816L2292 816Q2301 635 2301 570ZM1512 1919L1528 1313 1531 1068Q1533 931 1527 832.5 1521 734 1512 670L1512 670Q1503 606 1489.5 550 1476 494 1459 444L1459 444Q1423 346 1368 266L1368 266Q1313 187 1284 187L1284 187Q1264 187 1264 205L1264 205Q1264 218 1278 240L1278 240Q1289 257 1297 274.5 1305 292 1312 310L1312 310 1341 383Q1364 440 1381 497.5 1398 555 1409 615L1409 615Q1421 675 1430 758.5 1439 842 1444 950L1444 950Q1449 1059 1452 1140.5 1455 1222 1455 1280L1455 1280Q1455 1410 1450.5 1608.5 1446 1807 1435 2079L1435 2079 1429 2262 1429 2270Q1429 2321 1449 2321L1449 2321Q1474 2321 1483 2262L1483 2262Q1496 2177 1503 2091.5 1510 2006 1512 1919L1512 1919ZM1110 2365L1110 2365Q1126 2365 1126 2329L1126 2329 1126 2316 1103 2146 1078 1967 1028 1574Q1009 1428 996 1315 983 1202 977 1121L977 1121 958 861Q954 813 952.5 767.5 951 722 951 680L951 680Q951 600 957 532 963 464 977 405L977 405Q991 346 1003 305.5 1015 265 1026 242L1026 242Q1031 231 1033 224 1035 217 1035 212L1035 212Q1035 188 1017 188L1017 188Q985 188 942 272L942 272Q920 314 904.5 361.5 889 409 879.5 460 870 511 866 563.5 862 616 862 667L862 667Q862 718 868 804.5 874 891 887 1015L887 1015Q899 1139 915.5 1281 932 1423 954 1588L954 1588Q997 1914 1028 2091.5 1059 2269 1071 2309L1071 2309Q1082 2365 1110 2365ZM1281 2362L1281 2362Q1304 2362 1304 2283L1304 2283Q1304 2118 1292 1956L1292 1956 1267 1629Q1255 1468 1248.5 1222.5 1242 977 1238 645L1238 645Q1238 603 1237 559.5 1236 516 1234 474.5 1232 433 1229 395 1226 357 1221 327L1221 327Q1210 266 1199.5 232 1189 198 1169 198L1169 198Q1147 198 1140.5 209.5 1134 221 1132 247L1132 247 1126 298Q1124 312 1124.5 334.5 1125 357 1125 391L1125 391 1125 437 1126 485Q1136 849 1157.5 1171.5 1179 1494 1203 1777L1203 1777 1226 2048Q1230 2094 1237.5 2167.5 1245 2241 1256 2342L1256 2342Q1258 2351 1265.5 2356.5 1273 2362 1281 2362ZM2445 492L2445 492Q2445 624 2427 799L2427 799Q2419 887 2409 954 2399 1021 2386 1069L2386 1069Q2362 1165 2315 1240L2315 1240Q2270 1312 2211 1362L2211 1362Q2182 1387 2124 1420.5 2066 1454 1977 1496L1977 1496Q1889 1538 1806 1575.5 1723 1613 1642 1647L1642 1647 1631 1808Q1617 2024 1599 2149 1581 2274 1561 2312L1561 2312Q1475 2480 1263 2480L1263 2480Q1218 2480 1174 2469.5 1130 2459 1089.5 2440.5 1049 2422 1014.5 2396 980 2370 954 2339L954 2339Q943 2326 935.5 2304.5 928 2283 920.5 2248.5 913 2214 905.5 2165 898 2116 887 2049L887 2049 865 1913Q784 1923 723 1928 662 1933 620 1933L620 1933Q491 1933 399.5 1902 308 1871 251 1814L251 1814Q195 1757 145 1656L145 1656Q120 1605 102.5 1560 85 1515 74.5 1473 64 1431 59.5 1390 55 1349 55 1306L55 1306Q55 1173 125 1078L125 1078Q160 1029 205.5 1005.5 251 982 305 982L305 982Q379 982 424.5 1012.5 470 1043 498 1093L498 1093Q527 1144 542 1206L542 1206 587 1387Q597 1427 634.5 1454 672 1481 727 1478L727 1478 788 1476Q742 1211 718.5 1023.5 695 836 695 719L695 719Q695 102 1190 102L1190 102Q1440 102 1556 272L1556 272Q1615 357 1646 499.5 1677 642 1672 844L1672 844 1667 1071Q1719 1037 1754 1010 1789 983 1809 963L1809 963Q1829 942 1843.5 921 1858 900 1868 875.5 1878 851 1882 822 1886 793 1885 755L1885 755 1881 618 1876 452Q1874 386 1883 336.5 1892 287 1909 255L1909 255Q1926 223 1952.5 196 1979 169 2012 149.5 2045 130 2083 119.5 2121 109 2160 109L2160 109Q2232 109 2289 139.5 2346 170 2383 224L2383 224Q2420 277 2432.5 339.5 2445 402 2445 492Z"/>
</svg>