<svg xmlns="http://www.w3.org/2000/svg"
    viewBox="0 0 2600 2600">
  <!--
Digitized data copyright © 2011, Google Corporation.
Android is a trademark of Google and may be registered in certain jurisdictions.
Licensed under the Apache License, Version 2.0
http://www.apache.org/licenses/LICENSE-2.0
  -->
<path d="M1333 634L1333 634Q1253 634 1202 567L1202 567Q1176 534 1163 494.5 1150 455 1150 410L1150 410Q1150 332 1209 332L1209 332Q1284 332 1359 392L1359 392Q1435 452 1435 529L1435 529Q1435 549 1429.5 568 1424 587 1412 601.5 1400 616 1380.5 625 1361 634 1333 634ZM1253 1050L1253 1050Q1221 1050 1199 1000L1199 1000Q1188 974 1183.5 947.5 1179 921 1179 894L1179 894Q1179 855 1190 820.5 1201 786 1221.5 761 1242 736 1270 721.5 1298 707 1331 707L1331 707Q1350 707 1367 718.5 1384 730 1397 748.5 1410 767 1418 791 1426 815 1426 840L1426 840Q1426 920 1365 985L1365 985Q1303 1050 1253 1050ZM1131 918L1131 918Q1131 986 1087 1054L1087 1054Q1044 1122 1000 1122L1000 1122Q971 1122 945 1080L945 1080Q929 1055 919 1036 909 1017 903 999.5 897 982 895 965 893 948 893 927L893 927Q893 893 902 863.5 911 834 928 812.5 945 791 968 778.5 991 766 1020 766L1020 766Q1052 766 1093 811L1093 811Q1131 855 1131 918ZM874 1061L874 1061Q874 1089 865.5 1119 857 1149 841 1183L841 1183Q810 1250 773 1250L773 1250Q737 1250 685 1186L685 1186Q634 1122 634 1037L634 1037Q634 1008 642.5 982 651 956 666 936.5 681 917 700.5 905.5 720 894 742 894L742 894Q790 894 831 941L831 941Q874 987 874 1061ZM682 1303L682 1303Q682 1369 643 1436L643 1436Q604 1503 562 1503L562 1503Q531 1503 488 1442L488 1442Q444 1378 444 1302L444 1302Q444 1271 453 1242.5 462 1214 478.5 1192.5 495 1171 517 1158.5 539 1146 566 1146L566 1146Q604 1146 643 1191L643 1191Q682 1236 682 1303ZM418 1502L418 1502Q418 1579 368 1645L368 1645Q317 1713 277 1711L277 1711Q253 1711 228 1673L228 1673Q216 1653 207 1637.5 198 1622 193 1610L193 1610Q187 1596 183.5 1575.5 180 1555 179 1525L179 1525Q178 1488 188 1457.5 198 1427 216 1404.5 234 1382 258.5 1369.5 283 1357 312 1357L312 1357Q348 1357 383 1399L383 1399Q418 1443 418 1502ZM426 1146L426 1146Q426 1182 411.5 1211.5 397 1241 370.5 1263 344 1285 308 1297 272 1309 229 1309L229 1309Q163 1309 125 1291.5 87 1274 87 1242L87 1242Q87 1211 123 1161L123 1161Q160 1110 205 1083 250 1056 305 1056L305 1056Q355 1056 391 1087L391 1087Q426 1119 426 1146ZM426 1015L426 1015Q362 1015 295 978L295 978Q227 939 227 897L227 897Q227 867 288 822L288 822Q349 777 431 777L431 777Q469 777 509 793L509 793Q527 801 541 814 555 827 564.5 842 574 857 579 871.5 584 886 584 897L584 897Q584 935 539 975L539 975Q494 1015 426 1015ZM710 800L710 800Q638 800 569 743L569 743Q499 685 499 621L499 621Q499 594 548 573L548 573Q599 551 651 551L651 551Q690 551 725 562.5 760 574 785.5 594 811 614 826 642.5 841 671 841 704L841 704Q841 731 826 748L826 748Q776 800 710 800ZM1132 589L1132 589Q1132 618 1123 637.5 1114 657 1099 669 1084 681 1065 686.5 1046 692 1026 692L1026 692Q952 692 894 625L894 625Q837 558 837 469L837 469Q837 401 898 401L898 401Q992 401 1063 461L1063 461Q1132 520 1132 589ZM2413 836L2413 836Q2413 851 2399 868L2399 868Q2291 1003 2199.5 1155.5 2108 1308 2036.5 1475.5 1965 1643 1915 1825.5 1865 2008 1840 2204L1840 2204Q1835 2240 1811.5 2259.5 1788 2279 1753 2279L1753 2279Q1733 2279 1718 2271 1703 2263 1692.5 2250.5 1682 2238 1676.5 2223 1671 2208 1671 2194L1671 2194Q1671 2171 1659 2075L1659 2075Q1649 1981 1597 1853L1597 1853Q1572 1790 1541 1737 1510 1684 1472 1637L1472 1637Q1434 1591 1383 1546.5 1332 1502 1266 1458L1266 1458Q1234 1437 1234 1416L1234 1416Q1234 1379 1320 1379L1320 1379Q1402 1379 1507 1421L1507 1421Q1561 1443 1607 1472.5 1653 1502 1693 1543L1693 1543Q1709 1437 1717 1351.5 1725 1266 1725 1201L1725 1201Q1725 836 1465 749L1465 749Q1447 743 1437.5 732.5 1428 722 1428 704L1428 704Q1428 647 1478 647L1478 647 1499 650Q1668 697 1752 842L1752 842Q1794 916 1818 1003 1842 1090 1837 1193L1837 1193 1831 1294Q1866 1232 1906.5 1175 1947 1118 1996 1064L1996 1064Q2094 956 2202 879L2202 879Q2313 803 2368 803L2368 803Q2388 803 2400 812L2400 812Q2413 822 2413 836Z"/>
</svg>