<svg xmlns="http://www.w3.org/2000/svg"
    viewBox="0 0 2600 2850">
  <!--
Digitized data copyright © 2011, Google Corporation.
Android is a trademark of Google and may be registered in certain jurisdictions.
Licensed under the Apache License, Version 2.0
http://www.apache.org/licenses/LICENSE-2.0
  -->
<path d="M2090 1372L2090 1372Q2090 1325 2086 1279.5 2082 1234 2075 1189L2075 1189Q2067 1142 2055 1086 2043 1030 2026 963L2026 963Q2008 896 1994 855 1980 814 1971 799L1971 799Q1962 783 1953 776 1944 769 1937 769L1937 769 1931 769 1855 803Q1879 848 1900.5 907 1922 966 1942 1044L1942 1044Q1962 1120 1972 1192.5 1982 1265 1982 1334L1982 1334Q1982 1484 1919 1629L1919 1629Q1856 1775 1731 1851 1606 1927 1421 1927L1421 1927Q1272 1927 1113 1870L1113 1870Q955 1813 822 1707L822 1707Q688 1600 607 1474L607 1474 548 1383 431 1435Q481 1533 578 1650L578 1650Q676 1765 784 1845 892 1925 1000 1966L1000 1966Q1268 2067 1437 2067L1437 2067Q1604 2067 1766 1970L1766 1970Q1927 1872 2008.5 1724.5 2090 1577 2090 1372ZM1068 2148L1068 2148 1068 2154Q1138 2154 1198.5 2149.5 1259 2145 1312 2135L1312 2135Q1251 2127 1174.5 2106.5 1098 2086 1005 2052L1005 2052Q1005 2072 1031 2093L1031 2093Q1068 2123 1068 2148ZM863 2020L863 2020 867 1990Q816 1964 767 1930 718 1896 670 1853L670 1853 669 1868Q669 1908 700 1936L700 1936Q733 1965 736 1981L736 1981 738 2007 742 2033Q746 2044 768 2064L768 2064Q787 2081 800.5 2093 814 2105 822 2115L822 2115Q882 2132 923 2138L923 2138 923 2124 922 2111Q920 2101 912 2091 904 2081 890 2068L890 2068Q863 2044 863 2020ZM611 2016L611 2016Q609 2006 603.5 1996 598 1986 588 1977L588 1977Q569 1958 569 1940L569 1940 569 1908Q569 1891 559 1882L559 1882 540 1863Q524 1843 524 1791L524 1791Q524 1769 503 1743L503 1743Q483 1717 483 1685L483 1685 483 1669 484 1655Q464 1630 445 1604.5 426 1579 409 1551L409 1551 413 1659Q415 1718 419 1754.5 423 1791 433 1807L433 1807Q488 1931 611 2016ZM1013 1496L1013 1496Q1029 1496 1042 1487 1055 1478 1064 1464 1073 1450 1077.5 1433.5 1082 1417 1082 1402L1082 1402Q1082 1354 1052 1354L1052 1354Q1039 1354 1024.5 1362 1010 1370 998 1383.5 986 1397 978.5 1413.5 971 1430 971 1447L971 1447Q971 1467 982 1481.5 993 1496 1013 1496ZM1320 1481L1320 1481Q1320 1453 1303 1421L1303 1421Q1286 1390 1269 1390L1269 1390Q1259 1390 1250 1397 1241 1404 1234.5 1415 1228 1426 1224 1441 1220 1456 1220 1472L1220 1472Q1220 1483 1223 1494.5 1226 1506 1232 1516.5 1238 1527 1248 1533.5 1258 1540 1272 1540L1272 1540Q1294 1540 1307 1521 1320 1502 1320 1481ZM1552 1416L1552 1416Q1597 1416 1597 1373L1597 1373Q1597 1357 1588 1341.5 1579 1326 1565.5 1314 1552 1302 1535 1294.5 1518 1287 1502 1287L1502 1287Q1474 1287 1474 1321L1474 1321Q1474 1338 1480.5 1354.5 1487 1371 1498 1385 1509 1399 1523 1407.5 1537 1416 1552 1416ZM1641 1090L1641 1090Q1585 1090 1585 1122L1585 1122Q1585 1136 1593.5 1149 1602 1162 1615 1172 1628 1182 1644.5 1188.5 1661 1195 1678 1195L1678 1195Q1687 1195 1696.5 1191.5 1706 1188 1714 1182 1722 1176 1727 1168 1732 1160 1732 1150L1732 1150Q1732 1136 1724 1125 1716 1114 1703 1106 1690 1098 1673.5 1094 1657 1090 1641 1090ZM2190 1369L2190 1369Q2190 1866 1760 2086L1760 2086Q1436 2253 1105 2253L1105 2253Q831 2253 628 2143L628 2143Q425 2034 343 1845L343 1845Q327 1808 318.5 1726.5 310 1645 310 1516L310 1516Q310 1485 313.5 1458.5 317 1432 326 1410.5 335 1389 351.5 1372 368 1355 395 1343L395 1343 1889 680Q1910 670 1937 670L1937 670Q2044 670 2095 847L2095 847 2121 937Q2154 1052 2172 1159.5 2190 1267 2190 1369Z"/>
</svg>