<svg xmlns="http://www.w3.org/2000/svg"
    viewBox="0 0 2600 2600">
  <!--
Digitized data copyright © 2011, Google Corporation.
Android is a trademark of Google and may be registered in certain jurisdictions.
Licensed under the Apache License, Version 2.0
http://www.apache.org/licenses/LICENSE-2.0
  -->
<path d="M747 950L747 950Q842 950 914 1019L914 1019Q987 1089 987 1189L987 1189Q987 1288 917 1359L917 1359Q849 1428 747 1428L747 1428Q649 1428 579 1359L579 1359Q509 1289 509 1189L509 1189Q509 1085 580 1018L580 1018Q653 950 747 950ZM965 868L965 868Q965 764 1036 697L1036 697Q1108 628 1204 628L1204 628Q1303 628 1374 701L1374 701Q1409 737 1426.5 778 1444 819 1444 868L1444 868Q1444 963 1374 1036L1374 1036Q1305 1107 1204 1107L1204 1107Q1100 1107 1033 1036L1033 1036Q965 963 965 868ZM1204 1640L1204 1640Q1156 1640 1113.5 1623 1071 1606 1036 1571L1036 1571Q965 1500 965 1401L965 1401Q965 1304 1035 1233L1035 1233Q1103 1162 1204 1162L1204 1162Q1299 1162 1371 1231L1371 1231Q1444 1301 1444 1401L1444 1401Q1444 1495 1371 1568L1371 1568Q1299 1640 1204 1640ZM1449 1182L1449 1182Q1449 1086 1520 1015L1520 1015Q1593 944 1687 944L1687 944Q1787 944 1857 1014L1857 1014Q1926 1083 1926 1184L1926 1184Q1926 1282 1855 1353L1855 1353Q1786 1423 1684 1423L1684 1423Q1584 1423 1516 1350L1516 1350Q1449 1280 1449 1182ZM1277 1762L1277 1762Q1277 1854 1206 1922L1206 1922Q1136 1989 1039 1989L1039 1989Q939 1989 869 1920L869 1920Q799 1848 799 1750L799 1750Q799 1683 836 1621L836 1621Q875 1558 914 1558L914 1558Q939 1558 952 1589L952 1589Q978 1644 1050 1682L1050 1682Q1086 1701 1125 1709.5 1164 1718 1204 1718L1204 1718Q1228 1718 1242.5 1719.5 1257 1721 1264.5 1725.5 1272 1730 1274.5 1739 1277 1748 1277 1762ZM1517 917L1517 917 1522 868Q1526 821 1513.5 778 1501 735 1476.5 698 1452 661 1418 632 1384 603 1345 583L1345 583Q1377 538 1426.5 512 1476 486 1537 486L1537 486Q1637 486 1706 556L1706 556Q1776 625 1776 724L1776 724Q1776 808 1728 869L1728 869 1687 866Q1642 863 1600 877 1558 891 1517 917ZM725 1508L725 1508 760 1506Q795 1504 795 1539L795 1539Q795 1564 775 1621L775 1621Q755 1676 717.5 1700.5 680 1725 626 1725L626 1725Q527 1725 457 1656L457 1656Q387 1584 387 1486L387 1486Q387 1460 392.5 1435.5 398 1411 408 1386L408 1386Q429 1335 452 1335L452 1335Q469 1335 478 1352L478 1352Q515 1419 583 1463L583 1463Q618 1486 654 1498 690 1510 725 1508ZM1762 1662L1762 1662Q1764 1703 1746.5 1738 1729 1773 1697 1803L1697 1803Q1632 1863 1554 1863L1554 1863Q1445 1863 1367 1749L1367 1749Q1349 1727 1349 1703L1349 1703Q1349 1685 1361 1682L1361 1682 1383 1669Q1452 1621 1494 1512L1494 1512Q1497 1504 1500.5 1495.5 1504 1487 1508.5 1480.5 1513 1474 1519 1469.5 1525 1465 1535 1465L1535 1465Q1550 1465 1564 1469.5 1578 1474 1592.5 1479.5 1607 1485 1622 1489.5 1637 1494 1653 1494L1653 1494Q1684 1494 1720 1535L1720 1535Q1738 1555 1749 1586 1760 1617 1762 1662ZM1710 1921L1710 1921Q1732 1921 1732 1958L1732 1958Q1732 2042 1656 2110L1656 2110Q1580 2177 1491 2177L1491 2177Q1404 2177 1340 2122L1340 2122Q1274 2067 1274 1988L1274 1988Q1274 1951 1297 1910L1297 1910Q1320 1869 1348 1869L1348 1869Q1364 1869 1377 1879L1377 1879Q1479 1955 1579 1955L1579 1955Q1636 1955 1688 1926L1688 1926Q1700 1921 1710 1921ZM1989 1337L1989 1337Q2026 1337 2070 1390L2070 1390Q2114 1443 2114 1517L2114 1517Q2114 1621 2046 1694L2046 1694Q1979 1764 1857 1764L1857 1764Q1839 1764 1835 1754 1831 1744 1831 1727L1831 1727 1836 1672Q1836 1604 1809 1545L1809 1545Q1792 1519 1792 1505L1792 1505Q1792 1484 1824 1469L1824 1469 1855 1454Q1887 1440 1932 1386L1932 1386Q1946 1369 1957.5 1353 1969 1337 1989 1337ZM2149 1926L2149 1926Q2149 2026 2080 2096L2080 2096Q2011 2166 1910 2166L1910 2166Q1781 2166 1781 2106L1781 2106 1784 2091Q1788 2072 1793.5 2054.5 1799 2037 1804 2020.5 1809 2004 1813 1987 1817 1970 1817 1950L1817 1950 1810 1888Q1810 1851 1847 1851L1847 1851 1898 1857Q1934 1857 1966.5 1847 1999 1837 2030 1818L2030 1818Q2057 1803 2080 1803L2080 1803Q2109 1803 2129 1838 2149 1873 2149 1926ZM441 929L441 929Q405 929 378 910 351 891 351 862L351 862Q351 821 383 773L383 773Q417 722 552 598L552 598Q620 535 680 487.5 740 440 792 408L792 408Q900 342 922 342L922 342Q937 342 950 350 963 358 972.5 370.5 982 383 988 398 994 413 994 427L994 427Q994 479 928 512L928 512Q891 523 839 571L839 571Q788 616 788 634L788 634Q788 645 807.5 662 827 679 850.5 700 874 721 893.5 745.5 913 770 913 795L913 795Q913 825 895 858L895 858Q878 891 855 891L855 891Q830 891 809 881 788 871 770 856 752 841 736 823 720 805 705 790 690 775 675.5 765 661 755 645 755L645 755Q634 755 624.5 761 615 767 606 775 597 783 589.5 792.5 582 802 576 809L576 809 545 848Q526 872 512 887.5 498 903 486.5 912.5 475 922 464 925.5 453 929 441 929Z"/>
</svg>