<svg xmlns="http://www.w3.org/2000/svg"
    viewBox="0 0 2600 2850">
  <!--
Digitized data copyright © 2011, Google Corporation.
Android is a trademark of Google and may be registered in certain jurisdictions.
Licensed under the Apache License, Version 2.0
http://www.apache.org/licenses/LICENSE-2.0
  -->
<path d="M2213 1840L2213 1840Q2185 1868 2157 1882.5 2129 1897 2100 1895L2100 1895 2004 1888Q1974 1886 1950.5 1893 1927 1900 1907.5 1918.5 1888 1937 1870 1967.5 1852 1998 1831 2043L1831 2043Q1803 2105 1744 2137 1685 2169 1602 2169L1602 2169Q1546 2169 1506 2156L1506 2156Q1485 2149 1455 2128.5 1425 2108 1384 2074L1384 2074Q1352 2048 1320.5 2028.5 1289 2009 1247 2009L1247 2009Q1219 2009 1180 2018L1180 2018Q1162 2023 1146.5 2027.5 1131 2032 1120 2037L1120 2037Q1109 2042 1082.5 2058.5 1056 2075 1016 2103L1016 2103Q931 2162 860 2162L860 2162Q766 2162 712.5 2098 659 2034 649 1909L649 1909Q641 1793 585 1766L585 1766Q570 1759 544 1753 518 1747 483 1743L483 1743Q444 1738 415 1732 386 1726 366 1716L366 1716Q329 1696 299 1665 269 1634 249 1599L249 1599Q252 1699 309 1848L309 1848Q337 1923 373.5 1985.5 410 2048 455 2100L455 2100Q500 2152 553.5 2193.5 607 2235 667 2267L667 2267Q728 2299 800.5 2324 873 2349 951.5 2366 1030 2383 1112.5 2391.5 1195 2400 1277 2400L1277 2400Q1507 2400 1716 2331L1716 2331Q1822 2296 1902 2248 1982 2200 2039 2140L2039 2140Q2097 2079 2140 2004.5 2183 1930 2213 1840ZM1625 1478L1625 1478 1625 1489 1623 1501Q1659 1459 1683 1403 1707 1347 1707 1293L1707 1293Q1707 1216 1654 1152L1654 1152Q1602 1091 1528 1091L1528 1091Q1502 1091 1475.5 1101.5 1449 1112 1407 1137L1407 1137Q1347 1175 1264 1175L1264 1175Q1228 1175 1158 1143L1158 1143Q1124 1126 1099 1118.5 1074 1111 1058 1111L1058 1111Q990 1111 939 1177L939 1177Q890 1241 890 1320L890 1320Q890 1360 911 1405L911 1405Q921 1427 943.5 1460.5 966 1494 1001 1539L1001 1539Q986 1506 986 1472L986 1472Q986 1423 1009.5 1383 1033 1343 1077 1315 1121 1287 1183.5 1272 1246 1257 1324 1257L1324 1257Q1391 1257 1446.5 1277.5 1502 1298 1542 1330 1582 1362 1603.5 1401 1625 1440 1625 1478ZM1504 1475L1504 1475Q1504 1450 1491 1428.5 1478 1407 1455 1391 1432 1375 1400 1366 1368 1357 1329 1357L1329 1357Q1283 1357 1241.5 1365.5 1200 1374 1162 1390L1162 1390Q1087 1422 1087 1471L1087 1471Q1087 1525 1145 1558L1145 1558Q1200 1591 1283 1591L1283 1591Q1326 1591 1364 1584 1402 1577 1436 1561L1436 1561Q1504 1531 1504 1475ZM2366 1593L2366 1593Q2366 1812 2301 1959L2301 1959Q2236 2104 2084 2247L2084 2247Q1935 2387 1730 2454L1730 2454Q1526 2522 1238 2522L1238 2522Q991 2522 794.5 2457.5 598 2393 444 2253L444 2253Q366 2183 308.5 2100 251 2017 212 1920L212 1920Q172 1823 153 1729 134 1635 134 1543L134 1543Q134 1380 181.5 1236.5 229 1093 335 958L335 958Q389 889 450 830 511 771 581 718L581 718Q652 665 736 624.5 820 584 920 554L920 554Q1020 525 1121 510 1222 495 1328 495L1328 495Q1590 495 1837 617L1837 617Q1961 678 2052.5 747.5 2144 817 2206 895 2268 973 2301.5 1058 2335 1143 2343 1236L2343 1236Q2351 1324 2358.5 1413 2366 1502 2366 1593Z"/>
</svg>