<svg xmlns="http://www.w3.org/2000/svg"
    viewBox="0 0 2600 2600">
  <!--
Digitized data copyright © 2011, Google Corporation.
Android is a trademark of Google and may be registered in certain jurisdictions.
Licensed under the Apache License, Version 2.0
http://www.apache.org/licenses/LICENSE-2.0
  -->
<path d="M2093 782L2093 782Q2104 774 2118 759.5 2132 745 2132 730L2132 730Q2132 712 2118 704.5 2104 697 2093 697L2093 697Q2073 697 2050 708 2027 719 2007.5 736.5 1988 754 1975 775.5 1962 797 1962 819L1962 819Q1962 826 1969 828.5 1976 831 1984 831L1984 831Q1996 831 2010.5 826.5 2025 822 2040 815 2055 808 2068.5 799.5 2082 791 2093 782ZM1881 1203L1881 1203Q1911 1200 1924 1178.5 1937 1157 1937 1129L1937 1129Q1937 1110 1931 1096.5 1925 1083 1918 1071.5 1911 1060 1905 1049 1899 1038 1899 1024L1899 1024Q1899 1016 1899.5 1008 1900 1000 1900 992L1900 992Q1900 972 1891 956 1882 940 1857 932L1857 932Q1851 930 1844.5 930 1838 930 1833 928.5 1828 927 1823.5 923 1819 919 1817 909L1817 909Q1808 885 1786 876.5 1764 868 1742 868L1742 868Q1730 868 1722.5 871 1715 874 1710 878 1705 882 1701.5 885 1698 888 1694 888L1694 888Q1688 888 1684.5 886 1681 884 1676 881.5 1671 879 1663 877 1655 875 1641 875L1641 875Q1625 875 1611.5 883 1598 891 1588 903.5 1578 916 1572.5 930.5 1567 945 1567 957L1567 957Q1552 957 1536.5 963 1521 969 1508 979.5 1495 990 1485.5 1004.5 1476 1019 1474 1036L1474 1036Q1471 1054 1466 1062 1461 1070 1454.5 1072.5 1448 1075 1439.5 1075 1431 1075 1422 1077L1422 1077Q1389 1083 1377.5 1099.5 1366 1116 1362 1133.5 1358 1151 1355 1165.5 1352 1180 1336 1183L1336 1183Q1307 1188 1279.5 1189.5 1252 1191 1227 1203L1227 1203Q1219 1207 1209.5 1214.5 1200 1222 1191.5 1231 1183 1240 1175.5 1249.5 1168 1259 1165 1267L1165 1267Q1160 1275 1156 1281 1152 1287 1143 1287L1143 1287Q1132 1287 1125 1284.5 1118 1282 1110 1278.5 1102 1275 1091 1272.5 1080 1270 1061 1270L1061 1270Q1041 1270 1025.5 1278 1010 1286 996 1297L996 1297Q989 1301 984 1310.5 979 1320 974 1329.5 969 1339 963.5 1346.5 958 1354 951 1354L951 1354Q941 1354 932.5 1350.5 924 1347 915.5 1342.5 907 1338 898 1334 889 1330 879 1330L879 1330Q851 1330 821 1345.5 791 1361 773 1382L773 1382Q766 1390 760 1400.5 754 1411 742 1411L742 1411Q732 1411 725.5 1404.5 719 1398 712 1393L712 1393Q683 1374 657 1374L657 1374Q630 1374 605 1389L605 1389Q594 1396 584.5 1409.5 575 1423 564 1423L564 1423Q550 1423 540.5 1419.5 531 1416 520 1412 509 1408 495 1404.5 481 1401 460 1401L460 1401Q448 1401 434 1406 420 1411 408 1420 396 1429 387 1441 378 1453 374 1466L374 1466Q370 1477 369.5 1490.5 369 1504 368 1518L368 1518Q368 1528 366 1532.5 364 1537 360.5 1539.5 357 1542 351 1543.5 345 1545 338 1548L338 1548Q320 1555 306 1569.5 292 1584 282.5 1602 273 1620 268 1640 263 1660 263 1678L263 1678Q263 1698 270.5 1716 278 1734 296 1749L296 1749Q302 1754 307 1756.5 312 1759 315.5 1762 319 1765 321 1771 323 1777 323 1789L323 1789Q323 1802 321 1816 319 1830 319 1842L319 1842Q319 1863 325 1874 331 1885 341 1891.5 351 1898 363 1901 375 1904 387 1908L387 1908Q403 1913 406 1920.5 409 1928 411 1942L411 1942Q416 1974 447 1993.5 478 2013 519 2013L519 2013 527 2013Q535 2012 545.5 2007 556 2002 567 2002L567 2002Q570 2002 574.5 2007.5 579 2013 583.5 2020.5 588 2028 592.5 2035.5 597 2043 602 2047L602 2047Q642 2076 699 2076L699 2076Q713 2075 725.5 2069.5 738 2064 748.5 2058 759 2052 767.5 2047.5 776 2043 783 2043L783 2043Q793 2043 801 2047 809 2051 818.5 2056 828 2061 840 2065 852 2069 870 2069L870 2069Q895 2069 918.5 2061.5 942 2054 962 2038L962 2038Q968 2033 971.5 2026.5 975 2020 979 2014 983 2008 988.5 2003.5 994 1999 1002 1999L1002 1999Q1023 1999 1037 2003 1051 2007 1071 2007L1071 2007Q1081 2007 1096 2001.5 1111 1996 1125.5 1986.5 1140 1977 1151 1964.5 1162 1952 1165 1938L1165 1938Q1187 1938 1214 1937 1241 1936 1266.5 1929.5 1292 1923 1314 1909 1336 1895 1348 1869L1348 1869Q1353 1860 1353 1848.5 1353 1837 1360 1830L1360 1830Q1368 1822 1380.5 1821.5 1393 1821 1401 1821L1401 1821Q1416 1820 1434.5 1812.5 1453 1805 1469.5 1793.5 1486 1782 1499 1767.5 1512 1753 1516 1738L1516 1738Q1521 1729 1520 1718 1519 1707 1522 1696L1522 1696Q1527 1675 1545.5 1669 1564 1663 1582 1656L1582 1656Q1638 1633 1665 1583L1665 1583Q1673 1570 1674.5 1557 1676 1544 1680 1529L1680 1529Q1683 1518 1688 1510.5 1693 1503 1693 1492L1693 1492Q1693 1481 1690.5 1470.5 1688 1460 1688 1447L1688 1447Q1711 1447 1729.5 1438 1748 1429 1762.5 1414.5 1777 1400 1787 1382.5 1797 1365 1803 1348L1803 1348Q1806 1340 1805 1332 1804 1324 1809 1319L1809 1319Q1815 1313 1822 1311 1829 1309 1836.5 1307.5 1844 1306 1851.5 1303.5 1859 1301 1865 1295L1865 1295Q1877 1282 1881 1264 1885 1246 1885 1229L1885 1229Q1885 1221 1883 1216 1881 1211 1881 1203ZM1835 638L1835 638Q1833 644 1830.5 655 1828 666 1826 679 1824 692 1822 706 1820 720 1820 732L1820 732Q1820 749 1824 760 1828 771 1839 771L1839 771Q1853 771 1868.5 754.5 1884 738 1897.5 714 1911 690 1920 662.5 1929 635 1929 612L1929 612Q1929 592 1920.5 578 1912 564 1895 564L1895 564Q1884 564 1873.5 572.5 1863 581 1855 593 1847 605 1841.5 617.5 1836 630 1835 638ZM2266 629L2266 629Q2290 643 2299 665 2308 687 2308 712L2308 712Q2308 757 2285.5 795 2263 833 2228.5 865 2194 897 2154 923.5 2114 950 2078 972L2078 972Q2053 987 2029 1002.5 2005 1018 1977 1029L1977 1029Q1994 1054 2000.5 1079.5 2007 1105 2007 1131L2007 1131Q2007 1166 1993.5 1196.5 1980 1227 1955 1247L1955 1247Q1949 1341 1870 1373L1870 1373Q1855 1418 1826.5 1451 1798 1484 1764 1500L1764 1500Q1761 1515 1757.5 1526.5 1754 1538 1749 1549L1749 1549Q1744 1577 1731 1605.5 1718 1634 1698 1658.5 1678 1683 1651 1701.5 1624 1720 1590 1728L1590 1728Q1585 1766 1569 1788 1553 1810 1537 1827L1537 1827Q1513 1850 1486 1868 1459 1886 1415 1891L1415 1891 1411 1901Q1388 1955 1335 1980.5 1282 2006 1207 2006L1207 2006Q1178 2042 1141 2060.5 1104 2079 1071 2079L1071 2079Q1062 2079 1054 2078 1046 2077 1039 2076L1039 2076 1024 2074Q1000 2106 957.5 2123 915 2140 870 2140L870 2140Q844 2140 822.5 2134.5 801 2129 786 2120L786 2120Q770 2129 749 2138 728 2147 705 2147L705 2147Q683 2147 659.5 2144 636 2141 614 2133.5 592 2126 572.5 2113.5 553 2101 539 2083L539 2083Q534 2083 528 2083.5 522 2084 519 2084L519 2084Q457 2084 409.5 2055.5 362 2027 345 1969L345 1969Q305 1960 276.5 1924.5 248 1889 248 1838L248 1838Q248 1830 249.5 1822.5 251 1815 251 1804L251 1804Q222 1780 207 1747 192 1714 192 1676L192 1676Q192 1642 201 1612.5 210 1583 225 1558.5 240 1534 259 1516.5 278 1499 299 1489L299 1489Q301 1458 314 1430 327 1402 348.5 1380 370 1358 398.5 1345 427 1332 460 1332L460 1332Q502 1332 546 1347L546 1347Q568 1325 597.5 1314 627 1303 657 1303L657 1303Q696 1303 732 1322L732 1322Q761 1294 799.5 1277.5 838 1261 879 1261L879 1261Q905 1261 928 1269L928 1269Q938 1251 954.5 1238 971 1225 989.5 1216 1008 1207 1027 1203 1046 1199 1061 1199L1061 1199Q1081 1199 1094 1200 1107 1201 1121 1206L1121 1206Q1128 1196 1135 1189.5 1142 1183 1149 1176L1149 1176 1155 1170Q1169 1156 1186 1146.5 1203 1137 1221 1131 1239 1125 1257 1121.5 1275 1118 1292 1116L1292 1116Q1301 1078 1332 1047.5 1363 1017 1408 1007L1408 1007Q1419 972 1444 944.5 1469 917 1511 899L1511 899Q1527 855 1562.5 829.5 1598 804 1641 804L1641 804Q1649 804 1660.5 806.5 1672 809 1687 809L1687 809Q1686 798 1686 787 1686 776 1686 765L1686 765Q1686 720 1691.5 673 1697 626 1710 581.5 1723 537 1744.5 497 1766 457 1798 425L1798 425Q1815 407 1839 396 1863 385 1888 385L1888 385Q1906 385 1918 391.5 1930 398 1940 406 1950 414 1960.5 420.5 1971 427 1985 427L1985 427Q1995 427 2003.5 424 2012 421 2020 417 2028 413 2036.5 410 2045 407 2055 407L2055 407Q2084 407 2115.5 417 2147 427 2173.5 445.5 2200 464 2217 489.5 2234 515 2234 546L2234 546Q2234 561 2231.5 569.5 2229 578 2226.5 583.5 2224 589 2221.5 593.5 2219 598 2219 605L2219 605Q2219 611 2224 614 2229 617 2236.5 619 2244 621 2252 623 2260 625 2266 629Z"/>
</svg>