<svg xmlns="http://www.w3.org/2000/svg"
    viewBox="0 0 2600 2850">
  <!--
Digitized data copyright © 2011, Google Corporation.
Android is a trademark of Google and may be registered in certain jurisdictions.
Licensed under the Apache License, Version 2.0
http://www.apache.org/licenses/LICENSE-2.0
  -->
<path d="M2210 2289L2210 2289 2212 2305Q2256 2286 2271 2273 2286 2260 2286 2245L2286 2245Q2286 2234 2277.5 2226.5 2269 2219 2257 2219L2257 2219Q2244 2219 2235 2225.5 2226 2232 2220 2242 2214 2252 2211.5 2264.5 2209 2277 2210 2289ZM2454 2497L2454 2497 2450 2513 2403 2590Q2395 2605 2379 2605L2379 2605 2373 2603 2370 2603Q2297 2603 2221 2557L2221 2557Q2145 2510 2113 2436L2113 2436Q2035 2425 1975 2369 1915 2313 1883 2222L1883 2222 1881 2211Q1881 2199 1890 2190L1890 2190 1953 2126Q1961 2118 1974 2118L1974 2118Q1990 2118 2004 2144L2004 2144Q2048 2245 2102 2280L2102 2280Q2126 2198 2167 2156 2208 2114 2273 2114L2273 2114Q2323 2114 2355 2149.5 2387 2185 2387 2244L2387 2244Q2387 2266 2379.5 2289 2372 2312 2357.5 2334 2343 2356 2321.5 2375.5 2300 2395 2272 2410L2272 2410Q2305 2436 2341 2449.5 2377 2463 2416 2468L2416 2468 2435 2471 2440 2473Q2454 2483 2454 2497ZM28 1055L28 1055 32 1040 65 985Q71 970 90 970L90 970Q100 970 110 978L110 978Q141 1007 176 1007L176 1007Q188 1007 200.5 1003.5 213 1000 227.5 996 242 992 258.5 988.5 275 985 295 985L295 985Q356 985 394 1036L394 1036Q409 1056 421 1069 433 1082 445 1090 457 1098 470.5 1101.5 484 1105 502 1105L502 1105Q513 1105 523 1112.5 533 1120 532 1135L532 1135 529 1208Q527 1237 484 1237L484 1237Q444 1237 408 1218.5 372 1200 353 1174L353 1174Q338 1154 328 1143 318 1132 309.5 1126.5 301 1121 292.5 1119.5 284 1118 272 1118L272 1118Q250 1118 223 1128 196 1138 158 1138L158 1138Q135 1138 112 1131 89 1124 69 1109L69 1109Q28 1079 28 1055ZM329 2256L329 2256Q329 2267 320 2276L320 2276 257 2341Q246 2349 235 2349L235 2349Q224 2349 214 2341L214 2341 150 2276Q142 2268 142 2256L142 2256Q142 2242 150 2234L150 2234 214 2171Q224 2161 235 2161L235 2161Q246 2161 257 2171L257 2171 320 2234Q329 2243 329 2256ZM428 2434L428 2434 518 2434Q531 2434 539.5 2442.5 548 2451 548 2462L548 2462 548 2554Q548 2565 539.5 2574 531 2583 518 2583L518 2583 428 2583Q417 2583 407.5 2575.5 398 2568 398 2554L398 2554 398 2462Q398 2449 407.5 2441.5 417 2434 428 2434ZM1327 2213L1327 2213 1413 2213Q1424 2213 1433 2222 1442 2231 1442 2242L1442 2242 1442 2327Q1442 2341 1433 2349 1424 2357 1413 2357L1413 2357 1327 2357Q1298 2357 1298 2327L1298 2327 1298 2242Q1298 2231 1306 2222 1314 2213 1327 2213ZM864 2239L864 2239 864 2330Q864 2360 835 2360L835 2360 745 2360Q731 2360 723 2351 715 2342 715 2330L715 2330 715 2239Q715 2228 723 2219.5 731 2211 745 2211L745 2211 835 2211Q848 2211 856 2219.5 864 2228 864 2239ZM2026 2564L2026 2564Q2026 2577 2017 2584L2017 2584 1957 2644Q1946 2653 1935 2653L1935 2653Q1922 2653 1915 2644L1915 2644 1855 2584Q1846 2577 1846 2564L1846 2564Q1846 2552 1855 2543L1855 2543 1915 2483Q1925 2473 1935 2473L1935 2473Q1946 2473 1957 2483L1957 2483 2017 2543Q2026 2552 2026 2564ZM2165 1895L2165 1895Q2177 1895 2186 1904L2186 1904 2246 1964Q2254 1974 2254 1985L2254 1985Q2254 1997 2246 2005L2246 2005 2186 2066Q2178 2075 2165 2075L2165 2075Q2151 2075 2145 2066L2145 2066 2083 2005Q2075 1995 2075 1985L2075 1985Q2075 1975 2083 1964L2083 1964 2145 1904Q2154 1895 2165 1895ZM1398 2551L1398 2551Q1398 2562 1390 2572L1390 2572 1329 2632Q1324 2637 1318 2638.5 1312 2640 1307 2640L1307 2640Q1294 2640 1287 2632L1287 2632 1227 2572Q1219 2564 1219 2551L1219 2551Q1219 2536 1227 2531L1227 2531 1287 2469Q1295 2461 1307 2461L1307 2461Q1319 2461 1329 2469L1329 2469 1390 2531Q1398 2539 1398 2551ZM608 2192L608 2192Q608 2205 600 2212L600 2212 536 2276Q527 2285 515 2285L515 2285Q502 2285 495 2276L495 2276 431 2212Q421 2205 421 2192L421 2192Q421 2178 431 2171L431 2171 495 2107Q502 2097 515 2097L515 2097Q527 2097 536 2107L536 2107 600 2171Q608 2176 608 2192ZM121 1562L121 1562Q108 1562 101 1554L101 1554 37 1490Q28 1481 28 1469L28 1469Q28 1457 37 1449L37 1449 101 1384Q111 1375 121 1375L121 1375Q131 1375 143 1384L143 1384 206 1449Q216 1459 216 1469L216 1469Q216 1480 206 1490L206 1490 143 1554Q134 1562 121 1562ZM406 1298L406 1298Q417 1298 428 1306L428 1306 491 1371Q499 1379 499 1391L499 1391Q499 1402 491 1412L491 1412 428 1476Q417 1486 406 1486L406 1486Q395 1486 385 1476L385 1476 321 1412Q313 1402 313 1391L313 1391Q313 1379 321 1371L321 1371 385 1306Q395 1298 406 1298ZM716 2044L716 2044 626 2044Q612 2044 604 2035 596 2026 596 2014L596 2014 596 1923Q596 1911 605.5 1902 615 1893 626 1893L626 1893 716 1893Q728 1893 736.5 1902 745 1911 745 1923L745 1923 745 2014Q745 2025 737 2036L737 2036Q726 2044 716 2044ZM229 1921L229 1921 221 1921Q208 1921 199 1910L199 1910 153 1851Q146 1844 146 1833L146 1833Q146 1821 156 1812.5 166 1804 183 1804L183 1804Q203 1804 217 1797 231 1790 242 1778.5 253 1767 262.5 1752 272 1737 284 1720L284 1720Q302 1694 332 1678.5 362 1663 405 1659L405 1659Q436 1657 457.5 1652.5 479 1648 494 1640 509 1632 518.5 1619 528 1606 535 1586L535 1586Q555 1526 589.5 1496 624 1466 670 1469L670 1469 712 1472Q767 1468 803 1415L803 1415 814 1391Q819 1374 824.5 1368.5 830 1363 844 1363L844 1363Q855 1363 867 1373L867 1373 913 1431 919 1450Q915 1497 864 1543L864 1543Q813 1589 759 1588L759 1588 716 1587Q689 1586 673 1600.5 657 1615 640 1659L640 1659 617 1703Q597 1740 560.5 1757 524 1774 476 1774L476 1774Q427 1774 406 1787L406 1787Q397 1792 386 1803 375 1814 364 1832L364 1832Q336 1876 303 1898.5 270 1921 229 1921ZM1183 2241L1183 2241 1190 2320Q1194 2368 1175.5 2397 1157 2426 1131.5 2445 1106 2464 1080.5 2478 1055 2492 1045 2508L1045 2508 1038 2536Q1035 2575 1029.5 2601.5 1024 2628 1019 2642L1019 2642Q1007 2671 984 2694 961 2717 939 2717L939 2717 860 2687Q843 2681 841 2661L841 2661Q841 2643 857 2633L857 2633Q900 2614 903 2554L903 2554Q906 2492 915 2471L915 2471Q919 2461 924.5 2450.5 930 2440 941 2428.5 952 2417 969.5 2403 987 2389 1016 2372L1016 2372Q1039 2358 1051 2336.5 1063 2315 1061 2287L1061 2287 1056 2213Q1052 2169 1074.5 2138.5 1097 2108 1139 2089L1139 2089Q1208 2058 1208 1984L1208 1984 1205 1956 1203 1955 1202 1945Q1202 1934 1210 1924.5 1218 1915 1231 1915L1231 1915 1243 1918 1312 1945Q1315 1947 1319.5 1949 1324 1951 1327.5 1957.5 1331 1964 1333.5 1976.5 1336 1989 1336 2011L1336 2011Q1336 2056 1314 2097.5 1292 2139 1253 2160L1253 2160 1223 2176Q1200 2189 1190.5 2202.5 1181 2216 1183 2241ZM1807 2256L1807 2256Q1807 2311 1774 2356L1774 2356Q1741 2399 1721 2399L1721 2399 1719 2399 1640 2386Q1627 2384 1621 2375.5 1615 2367 1615 2356L1615 2356Q1615 2344 1625 2334L1625 2334Q1670 2289 1670 2242L1670 2242Q1670 2193 1615 2148L1615 2148Q1562 2104 1562 2051L1562 2051Q1562 2021 1585 1964L1585 1964Q1608 1909 1608 1893L1608 1893Q1608 1852 1566 1814L1566 1814Q1496 1751 1496 1669L1496 1669Q1496 1641 1504 1617L1504 1617Q1513 1595 1532 1566L1532 1566Q1550 1538 1569 1538L1569 1538 1573 1538 1652 1553Q1675 1555 1675 1581L1675 1581Q1675 1594 1667 1602L1667 1602Q1633 1645 1633 1684L1633 1684Q1633 1733 1685 1785L1685 1785Q1745 1845 1745 1907L1745 1907Q1745 1929 1736 1961.5 1727 1994 1707 2036L1707 2036Q1699 2054 1699 2064L1699 2064Q1699 2093 1730 2116L1730 2116Q1807 2178 1807 2256ZM1504 1312L1504 1312Q1505 1347 1493.5 1377 1482 1407 1460 1430.5 1438 1454 1407 1469.5 1376 1485 1338 1491L1338 1491Q1301 1497 1283 1509L1283 1509Q1274 1515 1266 1523 1258 1531 1253 1542L1253 1542Q1248 1551 1242.5 1572 1237 1593 1232 1625L1232 1625Q1214 1731 1109 1741L1109 1741Q994 1755 994 1856L994 1856 998 1893 998 1897Q998 1910 990 1919 982 1928 970 1928L970 1928Q962 1928 886 1893L886 1893Q880 1892 876 1889.5 872 1887 869 1880 866 1873 864.5 1860.5 863 1848 863 1825L863 1825Q863 1752 908.5 1704.5 954 1657 1032 1651L1032 1651Q1065 1649 1081 1632 1097 1615 1102 1583L1102 1583 1110 1536Q1122 1471 1160 1442 1198 1413 1255 1402L1255 1402Q1314 1391 1345 1360.5 1376 1330 1373 1280L1373 1280 1372 1254Q1371 1243 1379 1233.5 1387 1224 1400 1224L1400 1224 1413 1227 1484 1259Q1500 1266 1502 1278 1504 1290 1504 1312ZM671 953L671 953Q671 1051 710 1141L710 1141Q773 1133 820 1125 867 1117 897 1109L897 1109Q958 1094 1018.5 1074 1079 1054 1158 1022L1158 1022Q1382 930 1584 767L1584 767Q1525 633 1407 557L1407 557Q1288 479 1146 479L1146 479Q1022 479 912 540L912 540Q800 602 736 714L736 714Q671 827 671 953ZM1879 804L1879 804Q1794 804 1715 834L1715 834Q1720 905 1733 980.5 1746 1056 1766 1138L1766 1138Q1805 1302 1882 1461L1882 1461Q1920 1541 1960 1607 2000 1673 2042 1728L2042 1728Q2183 1677 2268 1554L2268 1554Q2354 1431 2354 1282L2354 1282Q2354 1216 2337 1156 2320 1096 2288 1041L2288 1041Q2223 931 2112 867L2112 867Q2001 804 1879 804ZM710 1259L710 1259Q637 1259 595 1174L595 1174Q552 1091 552 955L552 955Q552 795 632 659L632 659Q712 522 851 442L851 442Q920 402 993.5 381.5 1067 361 1146 361L1146 361Q1321 361 1470 458L1470 458Q1619 555 1691 718L1691 718Q1738 703 1784.5 695 1831 687 1879 687L1879 687Q2035 687 2172 766L2172 766Q2309 846 2390 982L2390 982Q2472 1122 2472 1280L2472 1280Q2472 1386 2434 1486.5 2396 1587 2329 1666L2329 1666Q2265 1743 2175 1795L2175 1795Q2088 1845 2042 1845L2042 1845Q1983 1845 1949 1799L1949 1799Q1941 1791 1925.5 1769.5 1910 1748 1887 1711L1887 1711Q1864 1676 1841 1635 1818 1594 1794 1547L1794 1547Q1723 1410 1674 1244.5 1625 1079 1604 902L1604 902Q1537 949 1469 991 1401 1033 1329 1071L1329 1071Q1258 1109 1175.5 1141.5 1093 1174 996 1202L996 1202Q899 1230 828.5 1244.5 758 1259 710 1259Z"/>
</svg>