<svg xmlns="http://www.w3.org/2000/svg"
    viewBox="0 0 2600 2600">
  <!--
Digitized data copyright © 2011, Google Corporation.
Android is a trademark of Google and may be registered in certain jurisdictions.
Licensed under the Apache License, Version 2.0
http://www.apache.org/licenses/LICENSE-2.0
  -->
<path d="M976 1437L976 1437Q942 1437 918.5 1414 895 1391 895 1358L895 1358Q895 1324 918.5 1300.5 942 1277 976 1277L976 1277Q992 1277 1006.5 1283.5 1021 1290 1031.5 1301 1042 1312 1048.5 1326.5 1055 1341 1055 1358L1055 1358Q1055 1391 1031.5 1414 1008 1437 976 1437ZM721 1710L721 1710Q726 1716 734 1722.5 742 1729 749.5 1736.5 757 1744 762.5 1752 768 1760 768 1770L768 1770Q768 1787 757.5 1792 747 1797 734 1797L734 1797Q703 1797 676 1786.5 649 1776 627 1759.5 605 1743 588 1724.5 571 1706 561 1689L561 1689Q557 1683 553.5 1675.5 550 1668 545.5 1661.5 541 1655 535 1651 529 1647 519 1647L519 1647Q508 1647 497.5 1649.5 487 1652 478 1652L478 1652Q458 1652 432.5 1648.5 407 1645 385 1637.5 363 1630 348 1617.5 333 1605 333 1587L333 1587Q333 1573 342.5 1563.5 352 1554 372 1554L372 1554Q388 1554 403 1555 418 1556 434 1556L434 1556Q451 1556 471 1553 491 1550 510 1546.5 529 1543 544.5 1540 560 1537 569 1537L569 1537Q591 1537 605 1546.5 619 1556 628.5 1570.5 638 1585 644 1601.5 650 1618 657 1632L657 1632Q668 1655 684.5 1674 701 1693 721 1710ZM2174 793L2174 793Q2206 793 2234.5 780 2263 767 2284.5 744.5 2306 722 2318.5 692.5 2331 663 2331 629L2331 629Q2331 600 2319.5 574.5 2308 549 2287 530 2266 511 2236 500 2206 489 2169 489L2169 489Q2140 489 2111.5 498.5 2083 508 2060.5 527 2038 546 2023.5 574.5 2009 603 2009 641L2009 641Q2009 677 2023 705.5 2037 734 2060.5 753.5 2084 773 2113.5 783 2143 793 2174 793ZM1755 1592L1755 1592Q1784 1572 1797 1537 1810 1502 1810 1468L1810 1468Q1810 1414 1785 1364 1760 1314 1728 1269L1728 1269Q1656 1169 1567.5 1082.5 1479 996 1374 930L1374 930Q1323 899 1271.5 867 1220 835 1166 807.5 1112 780 1055.5 757.5 999 735 940 721L940 721Q888 709 824.5 695.5 761 682 698 682L698 682Q661 682 626.5 689.5 592 697 563 714L563 714Q521 739 496 785.5 471 832 471 881L471 881Q471 913 482 922 493 931 513 931L513 931Q537 931 562 925.5 587 920 610 920L610 920Q693 920 772 945 851 970 925 1007L925 1007Q1003 1045 1080 1086.5 1157 1128 1229.5 1176.5 1302 1225 1368 1282 1434 1339 1489 1409L1489 1409Q1518 1447 1546.5 1490 1575 1533 1613 1561L1613 1561Q1635 1576 1660 1590 1685 1604 1713 1604L1713 1604Q1732 1604 1755 1592ZM1526 1808L1526 1808Q1536 1798 1546 1784 1556 1770 1564.5 1754 1573 1738 1578 1720 1583 1702 1583 1684L1583 1684Q1583 1674 1577 1663 1571 1652 1561.5 1643 1552 1634 1539 1628 1526 1622 1512 1622L1512 1622Q1492 1622 1478 1636.5 1464 1651 1454.5 1670.5 1445 1690 1438 1711 1431 1732 1426 1745L1426 1745Q1421 1757 1416.5 1773.5 1412 1790 1412 1807L1412 1807Q1412 1824 1418.5 1837.5 1425 1851 1445 1851L1445 1851Q1465 1851 1487.5 1837.5 1510 1824 1526 1808ZM1311 1812L1311 1812Q1316 1785 1321 1758 1326 1731 1334 1705 1342 1679 1354.5 1655.5 1367 1632 1387 1611L1387 1611Q1403 1595 1416 1574.5 1429 1554 1429 1532L1429 1532Q1429 1518 1419 1504 1409 1490 1398 1477L1398 1477Q1395 1472 1384 1458.5 1373 1445 1359.5 1431 1346 1417 1332.5 1406 1319 1395 1310 1395L1310 1395Q1299 1395 1294 1405 1289 1415 1286.5 1428.5 1284 1442 1283 1455.5 1282 1469 1281 1477L1281 1477Q1274 1525 1260.5 1567 1247 1609 1222 1640 1197 1671 1158.5 1689 1120 1707 1063 1707L1063 1707Q1025 1707 987.5 1696.5 950 1686 911 1670L911 1670Q886 1660 864.5 1639 843 1618 822 1596.5 801 1575 778 1558.5 755 1542 727 1540L727 1540Q711 1539 684 1539 657 1539 626.5 1537 596 1535 564.5 1530 533 1525 507.5 1514 482 1503 466 1485 450 1467 450 1439L450 1439Q450 1428 453 1419 456 1410 460 1396L460 1396Q407 1392 372.5 1375.5 338 1359 315 1325L315 1325Q286 1375 261.5 1424.5 237 1474 219 1526 201 1578 191 1632.5 181 1687 181 1747L181 1747Q181 1795 188 1846.5 195 1898 209.5 1947 224 1996 247.5 2040 271 2084 303.5 2117.5 336 2151 378.5 2170.5 421 2190 475 2190L475 2190Q480 2190 484 2189.5 488 2189 493 2188L493 2188Q571 2183 651.5 2182 732 2181 812.5 2175 893 2169 971 2153 1049 2137 1121 2102L1121 2102Q1172 2077 1205 2045.5 1238 2014 1259 1977.5 1280 1941 1291.5 1899 1303 1857 1311 1812ZM420 1160L420 1160Q409 1177 399.5 1196.5 390 1216 390 1236L390 1236Q390 1258 410.5 1272.5 431 1287 481 1287L481 1287Q504 1287 515.5 1273.5 527 1260 542 1246L542 1246Q520 1238 506.5 1220 493 1202 493 1178L493 1178Q493 1148 514 1127 535 1106 564 1106L564 1106Q596 1106 616 1127 636 1148 636 1178L636 1178Q636 1187 635 1190L635 1190Q648 1187 664 1181.5 680 1176 697 1176L697 1176Q725 1176 725 1198L725 1198Q725 1207 721 1212L721 1212Q704 1236 676 1253 648 1270 622 1287.5 596 1305 577 1328 558 1351 558 1387L558 1387Q558 1402 564.5 1411.5 571 1421 581.5 1426 592 1431 605 1433 618 1435 632 1435L632 1435Q650 1435 668 1433 686 1431 703 1431L703 1431Q736 1431 769 1436 802 1441 831 1458L831 1458Q859 1475 875.5 1498 892 1521 911 1542 930 1563 960.5 1577.5 991 1592 1048 1592L1048 1592Q1074 1592 1094 1583.5 1114 1575 1129.5 1556.5 1145 1538 1157 1507.5 1169 1477 1180 1433L1180 1433Q1183 1423 1188 1408.5 1193 1394 1198 1378.5 1203 1363 1206.5 1346.5 1210 1330 1210 1316L1210 1316Q1210 1284 1190 1269L1190 1269Q1167 1252 1139 1234 1111 1216 1082 1201L1082 1201Q1026 1172 969.5 1140 913 1108 854 1081.5 795 1055 733.5 1037.5 672 1020 608 1020L608 1020Q574 1020 542 1027 510 1034 489 1054L489 1054Q467 1074 452 1104.5 437 1135 420 1160ZM2141 370L2141 370Q2210 370 2266 386.5 2322 403 2361.5 437.5 2401 472 2422.5 524.5 2444 577 2444 649L2444 649Q2444 704 2423.5 751.5 2403 799 2366.5 833.5 2330 868 2279 888 2228 908 2167 908L2167 908Q2126 908 2087 898.5 2048 889 2014.5 869 1981 849 1954 819.5 1927 790 1911 749L1911 749Q1892 776 1880.5 810 1869 844 1863 881 1857 918 1855 956 1853 994 1853 1030L1853 1030Q1853 1084 1856 1137.5 1859 1191 1859 1246L1859 1246Q1859 1263 1859.5 1283 1860 1303 1868 1318L1868 1318Q1874 1337 1881 1358 1888 1379 1894 1400.5 1900 1422 1903.5 1442 1907 1462 1907 1478L1907 1478Q1907 1517 1898.5 1555 1890 1593 1871.5 1626 1853 1659 1822 1685 1791 1711 1746 1725L1746 1725Q1740 1727 1730.5 1729 1721 1731 1711.5 1733.5 1702 1736 1694 1739.5 1686 1743 1683 1749L1683 1749Q1675 1762 1671.5 1777 1668 1792 1664 1805L1664 1805Q1658 1823 1645.5 1842 1633 1861 1616.5 1878.5 1600 1896 1581 1911 1562 1926 1543 1935L1543 1935Q1516 1949 1487 1951 1458 1953 1433 1963L1433 1963Q1413 1971 1405 1986.5 1397 2002 1386 2017L1386 2017Q1338 2084 1277 2141 1216 2198 1137 2225L1137 2225Q1039 2259 931.5 2277.5 824 2296 721 2301L721 2301Q668 2303 602 2310.5 536 2318 470 2318L470 2318Q432 2318 397 2313.5 362 2309 334 2298L334 2298Q282 2277 241 2241.5 200 2206 169.5 2160.5 139 2115 117 2061.5 95 2008 81.5 1951.5 68 1895 62 1838 56 1781 56 1727L56 1727Q56 1687 59 1652L59 1652Q65 1578 90.5 1508.5 116 1439 152.5 1373.5 189 1308 231.5 1247.5 274 1187 315 1131L315 1131Q323 1120 333.5 1107 344 1094 354 1080.5 364 1067 370.5 1053.5 377 1040 377 1027L377 1027Q377 1007 368 992.5 359 978 352 961L352 961Q344 944 341 925 338 906 338 886L338 886Q338 819 363.5 768 389 717 431 680 473 643 526.5 621 580 599 636 591L636 591Q657 589 676.5 586.5 696 584 716 584L716 584Q744 584 781 565.5 818 547 861 521 904 495 949.5 467 995 439 1039 420L1039 420Q1108 390 1178 363 1248 336 1319.5 315.5 1391 295 1464.5 283 1538 271 1613 271L1613 271Q1733 271 1846 298.5 1959 326 2062 385L2062 385Q2082 378 2101.5 374 2121 370 2141 370Z"/>
</svg>