<svg xmlns="http://www.w3.org/2000/svg"
    viewBox="0 0 2600 2850">
  <!--
Digitized data copyright © 2011, Google Corporation.
Android is a trademark of Google and may be registered in certain jurisdictions.
Licensed under the Apache License, Version 2.0
http://www.apache.org/licenses/LICENSE-2.0
  -->
<path d="M1418 2553L1418 2553 1465 2550Q1381 2529 1335 2489L1335 2489Q1289 2447 1263.5 2380 1238 2313 1236 2240L1236 2240Q1235 2164 1264.5 2098 1294 2032 1343.5 1983.5 1393 1935 1457.5 1908 1522 1881 1591 1882L1591 1882Q1640 1884 1681 1895L1681 1895 1729 1840Q1706 1815 1681.5 1796 1657 1777 1629 1762L1629 1762Q1618 1756 1569 1747L1569 1747Q1545 1743 1525 1741 1505 1739 1489 1739L1489 1739Q1373 1739 1269 1806L1269 1806Q1167 1872 1105 1985L1105 1985Q1045 2098 1045 2220L1045 2220Q1045 2302 1069 2366 1093 2430 1140 2473.5 1187 2517 1256.5 2537.5 1326 2558 1418 2553ZM2332 1144L2332 1144Q2332 975 2283 859L2283 859Q2234 746 2141 650L2141 650Q2047 555 1920.5 492 1794 429 1647 412L1647 412Q1858 510 1955 654L1955 654Q2050 797 2050 1019L2050 1019Q2050 1082 2037.5 1138 2025 1194 2006 1244 1987 1294 1964.5 1337 1942 1380 1923 1416.5 1904 1453 1891.5 1482.5 1879 1512 1879 1535L1879 1535 1883 1562Q1896 1593 1986 1642L1986 1642Q2077 1691 2124 1691L2124 1691Q2150 1691 2166 1682.5 2182 1674 2190 1659L2190 1659Q2260 1529 2296 1401 2332 1273 2332 1144ZM814 1446L814 1446Q814 1413 804 1385 794 1357 776 1336.5 758 1316 733 1304.5 708 1293 677 1293L677 1293Q588 1293 511 1375L511 1375Q435 1457 435 1551L435 1551Q435 1581 445.5 1606.5 456 1632 475 1650.5 494 1669 520 1679.5 546 1690 576 1690L576 1690Q661 1690 737 1614L737 1614Q814 1539 814 1446ZM156 1487L156 1487 160 1510 161 1499Q169 1442 191.5 1384.5 214 1327 256 1268L256 1268Q338 1150 444 1091 550 1032 692 1032L692 1032Q660 1015 623.5 1007.5 587 1000 546 999L546 999Q468 996 395.5 1029.5 323 1063 267.5 1120.5 212 1178 178.5 1253 145 1328 147 1409L147 1409Q148 1447 156 1487ZM2431 1144L2431 1144Q2431 1424 2276 1707L2276 1707Q2264 1730 2246 1745.5 2228 1761 2208 1771 2188 1781 2166.5 1785 2145 1789 2124 1789L2124 1789Q2107 1789 2092 1787 2077 1785 2063 1780L2063 1780Q2033 1841 1995 1901.5 1957 1962 1912 2025L1912 2025Q1922 2078 1922 2119L1922 2119Q1922 2253 1855 2374L1855 2374Q1821 2434 1775.5 2481 1730 2528 1671 2564L1671 2564Q1555 2635 1418 2635L1418 2635 1413 2634Q1398 2640 1342 2640L1342 2640Q1203 2640 1080 2577L1080 2577Q958 2514 890 2407 822 2300 822 2160L822 2160Q822 2082 841 2008.5 860 1935 898 1863L898 1863Q975 1721 1108 1639L1108 1639Q1240 1556 1395 1556L1395 1556Q1523 1556 1629 1614L1629 1614Q1738 1674 1781 1770L1781 1770Q1824 1704 1842 1664L1842 1664Q1781 1616 1781 1535L1781 1535Q1781 1504 1793.5 1469 1806 1434 1824.5 1395.5 1843 1357 1865 1315 1887 1273 1905.5 1227.5 1924 1182 1936.5 1133.5 1949 1085 1949 1033L1949 1033Q1949 878 1829 762L1829 762Q1708 647 1537 647L1537 647Q1382 647 1239 733L1239 733Q1205 754 1171.5 783 1138 812 1102 850L1102 850 1035 919Q1024 928 1015 936.5 1006 945 994.5 952 983 959 968.5 963 954 967 933 967L933 967 919 967 905 965Q885 985 869.5 1005.5 854 1026 845 1047L845 1047Q853 1054 860.5 1063.5 868 1073 877 1078L877 1078Q923 1102 956.5 1136 990 1170 1011 1211 1032 1252 1042 1298.5 1052 1345 1052 1394L1052 1394Q1052 1568 952 1695L952 1695Q852 1822 751.5 1880.5 651 1939 548 1939L548 1939Q429 1939 329 1885L329 1885Q280 1859 243.5 1823 207 1787 190 1739L190 1739Q157 1704 134 1663.5 111 1623 97 1580.5 83 1538 76.5 1494 70 1450 69 1409L69 1409Q68 1343 85.5 1281 103 1219 135.5 1164.5 168 1110 213 1064.5 258 1019 311 986.5 364 954 424 937 484 920 546 921L546 921Q581 922 617 927.5 653 933 688 944L688 944Q739 872 767 841L767 841Q764 831 762 821.5 760 812 760 804L760 804Q760 738 864 629L864 629Q969 523 1075 457L1075 457Q1182 391 1307 351 1432 311 1577 311L1577 311Q1730 311 1886 372L1886 372Q1966 403 2036 446 2106 489 2168 543L2168 543Q2230 598 2279 660 2328 722 2361.5 794.5 2395 867 2413 953.5 2431 1040 2431 1144Z"/>
</svg>