<svg xmlns="http://www.w3.org/2000/svg"
    viewBox="0 0 2600 2850">
  <!--
Digitized data copyright © 2011, Google Corporation.
Android is a trademark of Google and may be registered in certain jurisdictions.
Licensed under the Apache License, Version 2.0
http://www.apache.org/licenses/LICENSE-2.0
  -->
<path d="M1916 1307L1916 1307Q1934 1307 1951 1300 1968 1293 1980.5 1280.5 1993 1268 2001 1252 2009 1236 2009 1218L2009 1218Q2009 1200 2002 1184.5 1995 1169 1983.5 1157 1972 1145 1957 1138.5 1942 1132 1926 1132L1926 1132Q1908 1132 1891 1139.5 1874 1147 1860.5 1159.5 1847 1172 1839 1188.5 1831 1205 1831 1223L1831 1223Q1831 1261 1856.5 1284 1882 1307 1916 1307ZM1622 1215L1622 1215Q1622 1199 1615.5 1183.5 1609 1168 1597.5 1156 1586 1144 1570.5 1136.5 1555 1129 1537 1129L1537 1129Q1519 1129 1502 1136.5 1485 1144 1472 1156.5 1459 1169 1451.5 1185.5 1444 1202 1444 1221L1444 1221Q1444 1258 1469 1281 1494 1304 1526 1304L1526 1304Q1542 1304 1559.5 1296.5 1577 1289 1590.5 1276.5 1604 1264 1613 1248 1622 1232 1622 1215ZM1733 1479L1733 1479Q1749 1479 1766 1471.5 1783 1464 1796 1452 1809 1440 1817.5 1423.5 1826 1407 1826 1389L1826 1389Q1826 1373 1819.5 1357.5 1813 1342 1801.5 1330 1790 1318 1774.5 1310.5 1759 1303 1742 1303L1742 1303Q1724 1303 1707 1310.5 1690 1318 1677 1330 1664 1342 1656.5 1358.5 1649 1375 1649 1393L1649 1393Q1649 1431 1674.5 1455 1700 1479 1733 1479ZM1805 1044L1805 1044Q1805 1028 1798.5 1012 1792 996 1780.5 984 1769 972 1754 964.5 1739 957 1721 957L1721 957Q1702 957 1685 964.5 1668 972 1655.5 984.5 1643 997 1635.5 1013.5 1628 1030 1628 1048L1628 1048Q1628 1070 1636 1086 1644 1102 1656 1112.5 1668 1123 1683 1128 1698 1133 1712 1133L1712 1133Q1729 1133 1746 1125.5 1763 1118 1776 1105 1789 1092 1797 1076.5 1805 1061 1805 1044ZM1555 1736L1555 1736Q1595 1736 1622 1710.5 1649 1685 1649 1643L1649 1643Q1649 1621 1640.5 1604.5 1632 1588 1618.5 1576.5 1605 1565 1588 1559.5 1571 1554 1554 1554L1554 1554Q1535 1554 1517.5 1560.5 1500 1567 1487 1579.5 1474 1592 1466 1610.5 1458 1629 1458 1653L1458 1653Q1458 1687 1485.5 1711.5 1513 1736 1555 1736ZM923 1721L923 1721Q963 1721 990 1695.5 1017 1670 1017 1628L1017 1628Q1017 1606 1008.5 1589.5 1000 1573 986.5 1561.5 973 1550 956 1544.5 939 1539 922 1539L922 1539Q903 1539 886 1545.5 869 1552 855.5 1564.5 842 1577 834 1595.5 826 1614 826 1638L826 1638Q826 1659 834.5 1674.5 843 1690 856.5 1700.5 870 1711 887.5 1716 905 1721 923 1721ZM1232 1706L1232 1706Q1273 1706 1300 1681.5 1327 1657 1327 1615L1327 1615Q1327 1593 1318 1576 1309 1559 1295.5 1547.5 1282 1536 1264.5 1530 1247 1524 1231 1524L1231 1524Q1193 1524 1164 1549.5 1135 1575 1135 1624L1135 1624Q1135 1644 1143.5 1659 1152 1674 1165.5 1684.5 1179 1695 1196.5 1700.5 1214 1706 1232 1706ZM785 1292L785 1292 800 1286 818 1288Q841 1290 858.5 1287.5 876 1285 890 1283L890 1283Q904 1281 912.5 1263 921 1245 919 1210L919 1210 918 1181Q917 1158 907 1148L907 1148Q896 1138 841 1133L841 1133Q782 1127 782 1110L782 1110 784 1096Q784 1071 782.5 1053 781 1035 779 1022L779 1022Q776 996 706 996L706 996Q680 996 665.5 998.5 651 1001 647 1003L647 1003Q638 1011 630 1073L630 1073Q624 1130 607 1130L607 1130Q541 1130 522 1136L522 1136Q503 1139 496 1154L496 1154Q489 1168 489 1226L489 1226Q492 1237 492 1247.5 492 1258 495.5 1266.5 499 1275 511 1280 523 1285 552 1285L552 1285 604 1285Q626 1285 626 1308L626 1308 626 1341Q626 1399 641 1409L641 1409Q655 1419 723 1419L723 1419Q756 1419 771 1405L771 1405Q781 1399 781 1357L781 1357 781 1323Q781 1293 785 1292ZM2418 1961L2418 1961 2418 1977Q2418 2082 2357 2160L2357 2160Q2297 2236 2202 2236L2202 2236Q2088 2236 1970 2104L1970 2104Q1862 1985 1812 1950L1812 1950Q1763 1914 1688 1891L1688 1891Q1651 1879 1607 1870.5 1563 1862 1508.5 1856 1454 1850 1386.5 1847 1319 1844 1235 1844L1235 1844Q1126 1844 1043.5 1849.5 961 1855 904 1866L904 1866Q847 1877 801.5 1891.5 756 1906 722 1926L722 1926Q655 1965 532 2104L532 2104Q415 2236 297 2236L297 2236Q201 2236 142 2159L142 2159Q82 2081 82 1977L82 1977Q82 1916 98 1842.5 114 1769 147 1680L147 1680Q181 1591 216 1510.5 251 1430 286 1355L286 1355 394 1118Q419 1064 446 1026 473 988 495.5 961 518 934 533 915.5 548 897 548 880L548 880 543 821Q545 758 604 728L604 728Q772 647 923 647L923 647Q947 647 958 657.5 969 668 976 697L976 697Q981 718 991.5 726 1002 734 1030 732L1030 732 1240 721 1478 734Q1499 735 1510 729 1521 723 1526.5 713.5 1532 704 1535 692 1538 680 1542.5 670 1547 660 1556.5 653.5 1566 647 1585 647L1585 647Q1632 647 1682.5 656.5 1733 666 1788 683L1788 683Q1897 718 1931 746L1931 746Q1965 773 1965 818L1965 818 1960 879Q1960 898 1978 917L1978 917Q2014 957 2056.5 1029.5 2099 1102 2150 1208L2150 1208Q2201 1314 2247 1422 2293 1530 2335 1642L2335 1642Q2418 1864 2418 1961Z"/>
</svg>