<svg xmlns="http://www.w3.org/2000/svg"
    viewBox="0 0 2600 2850">
  <!--
Digitized data copyright © 2011, Google Corporation.
Android is a trademark of Google and may be registered in certain jurisdictions.
Licensed under the Apache License, Version 2.0
http://www.apache.org/licenses/LICENSE-2.0
  -->
<path d="M1161 1442L1161 1442Q1074 1442 1008 1382L1008 1382Q942 1322 942 1242L942 1242Q942 1141 1031 1064L1031 1064Q1120 988 1242 988L1242 988Q1331 988 1390 1025L1390 1025 1395 345Q1395 323 1410.5 311.5 1426 300 1457 302L1457 302 1488 305Q1563 321 1625.5 349 1688 377 1742 419L1742 419Q1848 501 1870 642L1870 642Q1879 701 1909 721L1909 721Q1946 743 1946 759L1946 759Q1946 769 1939.5 776.5 1933 784 1922.5 789 1912 794 1899.5 796.5 1887 799 1875 799L1875 799Q1858 799 1843 795 1828 791 1811 781 1794 771 1774 753 1754 735 1727 707L1727 707Q1651 625 1477 625L1477 625 1474 1157Q1474 1261 1374 1352L1374 1352Q1275 1442 1161 1442ZM1193 1941L1193 1941Q1193 1961 1170.5 1970 1148 1979 1124 1979L1124 1979Q1109 1979 1093.5 1975 1078 1971 1063 1962L1063 1962Q1048 1953 1027 1932.5 1006 1912 979 1877L979 1877Q944 1833 878 1806.5 812 1780 733 1780L733 1780 696 2310Q689 2411 588 2494L588 2494Q488 2576 381 2576L381 2576Q299 2576 229 2516L229 2516Q161 2456 161 2372L161 2372Q161 2319 183.5 2276 206 2233 251 2198L251 2198Q343 2127 462 2127L462 2127Q556 2127 622 2174L622 2174 669 1495Q671 1455 727 1455L727 1455Q755 1455 795.5 1469 836 1483 889 1509L889 1509Q995 1562 1055.5 1641.5 1116 1721 1124 1821L1124 1821Q1128 1873 1143 1891L1143 1891 1156 1901Q1193 1927 1193 1941ZM2339 1756L2339 1756Q2339 1767 2332 1775 2325 1783 2314.5 1788 2304 1793 2291 1796 2278 1799 2266 1799L2266 1799Q2249 1799 2233.5 1795 2218 1791 2201 1780.5 2184 1770 2164.5 1753 2145 1736 2120 1709L2120 1709Q2081 1667 2023 1645.5 1965 1624 1887 1629L1887 1629 1868 1631 1874 2163Q1875 2273 1775 2364L1775 2364Q1678 2453 1563 2453L1563 2453Q1479 2453 1411 2394L1411 2394Q1344 2334 1344 2254L1344 2254Q1344 2148 1436 2074L1436 2074Q1530 1997 1655 1997L1655 1997Q1694 1997 1727.5 2006.5 1761 2016 1789 2033L1789 2033 1781 1353Q1779 1308 1846 1308L1846 1308 1874 1310Q2035 1342 2136.5 1426 2238 1510 2261 1640L2261 1640Q2270 1690 2287 1709L2287 1709 2302 1720Q2319 1732 2329 1740.5 2339 1749 2339 1756Z"/>
</svg>