<svg xmlns="http://www.w3.org/2000/svg"
    viewBox="0 0 2600 2850">
  <!--
Digitized data copyright © 2011, Google Corporation.
Android is a trademark of Google and may be registered in certain jurisdictions.
Licensed under the Apache License, Version 2.0
http://www.apache.org/licenses/LICENSE-2.0
  -->
<path d="M1824 1459L2026 1459 2026 1203 1824 1203 1824 1459ZM1824 1868L2026 1868 2026 1611 1824 1611 1824 1868ZM1486 1459L1688 1459 1688 1203 1486 1203 1486 1459ZM1486 1868L1688 1868 1688 1611 1486 1611 1486 1868ZM1430 757L1430 757 1430 705Q1430 691 1420.5 681.5 1411 672 1396 672L1396 672 1342 672Q1329 672 1318.5 662.5 1308 653 1308 639L1308 639 1308 585Q1308 552 1275 552L1275 552 1225 552Q1211 552 1200.5 560.5 1190 569 1190 585L1190 585 1190 639Q1190 653 1180.5 662.5 1171 672 1158 672L1158 672 1103 672Q1089 672 1079.5 681.5 1070 691 1070 705L1070 705 1070 757Q1070 771 1079.5 780.5 1089 790 1103 790L1103 790 1158 790Q1171 790 1180.5 799 1190 808 1190 824L1190 824 1190 877Q1190 891 1200.5 901 1211 911 1225 911L1225 911 1275 911Q1291 911 1299.5 901 1308 891 1308 877L1308 877 1308 824Q1308 808 1318.5 799 1329 790 1342 790L1342 790 1396 790Q1411 790 1420.5 780.5 1430 771 1430 757ZM1149 1459L1351 1459 1351 1203 1149 1203 1149 1459ZM1149 1868L1351 1868 1351 1611 1149 1611 1149 1868ZM812 1459L1013 1459 1013 1203 812 1203 812 1459ZM812 1868L1013 1868 1013 1611 812 1611 812 1868ZM474 1459L675 1459 675 1203 474 1203 474 1459ZM474 1868L675 1868 675 1611 474 1611 474 1868ZM1771 916L1771 916 2065 916Q2131 916 2178 963L2178 963Q2226 1011 2226 1077L2226 1077 2226 2405 1522 2405 1522 2193Q1522 2155 1495.5 2129 1469 2103 1431 2103L1431 2103 1069 2103Q1031 2103 1004.5 2129 978 2155 978 2193L978 2193 978 2405 274 2405 274 1077Q274 1011 322 963L322 963Q369 916 435 916L435 916 729 916Q835 916 835 828L835 828 835 527Q835 461 883 414L883 414Q929 366 996 366L996 366 1504 366Q1570 366 1617 414L1617 414Q1665 461 1665 527L1665 527 1665 828Q1665 916 1771 916Z"/>
</svg>