<svg xmlns="http://www.w3.org/2000/svg"
    viewBox="0 0 2600 2600">
  <!--
Digitized data copyright © 2011, Google Corporation.
Android is a trademark of Google and may be registered in certain jurisdictions.
Licensed under the Apache License, Version 2.0
http://www.apache.org/licenses/LICENSE-2.0
  -->
<path d="M1228 358L1273 358 1273 526Q1292 542 1292 560L1292 560Q1292 577 1279.5 590 1267 603 1250 603L1250 603Q1237 603 1231 597L1231 597 1128 657 1105 616 1209 557Q1209 539 1228 526L1228 526 1228 358ZM1825 1276L2026 1276 2026 1018 1825 1018 1825 1276ZM1825 1683L2026 1683 2026 1426 1825 1426 1825 1683ZM1487 1276L1689 1276 1689 1018 1487 1018 1487 1276ZM1487 1683L1689 1683 1689 1426 1487 1426 1487 1683ZM1250 793L1250 793Q1348 793 1416 726L1416 726Q1484 658 1484 560L1484 560Q1484 466 1414 396L1414 396Q1344 326 1250 326L1250 326Q1153 326 1084 396L1084 396Q1017 464 1017 560L1017 560Q1017 657 1084 724L1084 724Q1155 793 1250 793ZM1150 1276L1351 1276 1351 1018 1150 1018 1150 1276ZM1150 1683L1351 1683 1351 1426 1150 1426 1150 1683ZM812 1276L1013 1276 1013 1018 812 1018 812 1276ZM812 1683L1013 1683 1013 1426 812 1426 812 1683ZM474 1276L677 1276 677 1018 474 1018 474 1276ZM474 1683L677 1683 677 1426 474 1426 474 1683ZM1771 676L1771 676 2065 676Q2129 676 2179 724L2179 724Q2227 774 2227 839L2227 839 2227 2210 1522 2210 1522 1998Q1522 1961 1495.5 1934.5 1469 1908 1432 1908L1432 1908 1069 1908Q1032 1908 1005.5 1934.5 979 1961 979 1998L979 1998 979 2210 273 2210 273 839Q273 771 321 724L321 724Q370 676 436 676L436 676 730 676Q778 676 806 660 834 644 834 600L834 600 834 391Q834 378 842.5 363 851 348 863 341L863 341 1221 142Q1231 136 1250 136L1250 136Q1268 136 1279 142L1279 142 1637 341Q1666 358 1666 391L1666 391 1666 596Q1666 641 1691.5 658.5 1717 676 1771 676Z"/>
</svg>