<svg xmlns="http://www.w3.org/2000/svg"
    viewBox="0 0 2600 2600">
  <!--
Digitized data copyright © 2011, Google Corporation.
Android is a trademark of Google and may be registered in certain jurisdictions.
Licensed under the Apache License, Version 2.0
http://www.apache.org/licenses/LICENSE-2.0
  -->
<path d="M485 609L485 609 485 620Q485 702 548 750L548 750 609 750Q623 738 635.5 719.5 648 701 662 676L662 676Q681 643 705 643L705 643Q716 643 725 649L725 649Q766 675 805 675L805 675Q823 675 840.5 668 858 661 873 650.5 888 640 899.5 627 911 614 917 602L917 602Q928 582 951 582L951 582Q968 582 981 596L981 596Q1022 636 1071 654.5 1120 673 1181 675L1181 675Q1224 676 1259.5 665 1295 654 1321 638.5 1347 623 1362 607 1377 591 1378 582L1378 582Q1389 559 1415 559L1415 559Q1431 559 1442 568L1442 568Q1561 672 1703 672L1703 672Q1828 672 1916 590L1916 590Q2003 508 2003 388L2003 388Q2003 259 1926 180L1926 180Q1851 100 1731 100L1731 100Q1689 100 1652 107.5 1615 115 1584 129 1553 143 1531 162 1509 181 1497 204L1497 204Q1486 225 1461 225L1461 225Q1452 225 1445 221 1438 217 1431 210L1431 210Q1429 207 1417.5 195.5 1406 184 1382.5 171 1359 158 1321.5 147.5 1284 137 1229 137L1229 137Q1188 137 1153 146 1118 155 1089.5 171.5 1061 188 1041.5 210.5 1022 233 1013 260L1013 260Q1008 274 998 281 988 288 974 288L974 288 958 284Q933 273 908.5 266.5 884 260 859 260L859 260Q769 260 716.5 314.5 664 369 664 463L664 463Q664 480 652.5 492 641 504 624 503L624 503 605 501Q583 499 563 508 543 517 523 534L523 534Q485 566 485 609ZM2165 1295L2165 1295 2165 2228 335 2228 335 1619Q335 1600 353 1589L353 1589 423 1550 448 782Q448 769 455 765L455 765Q405 695 405 622L405 622Q405 546 456 490L456 490Q507 433 587 425L587 425Q595 369 617.5 324 640 279 675 247.5 710 216 756.5 199 803 182 859 182L859 182Q886 182 909.5 186 933 190 955 197L955 197Q1039 58 1223 58L1223 58Q1368 58 1457 128L1457 128Q1555 22 1729 22L1729 22Q1881 22 1983 124L1983 124Q2082 223 2082 385L2082 385Q2082 537 1973 643L1973 643Q1865 750 1702 750L1702 750Q1547 750 1423 654L1423 654Q1389 700 1325 726.5 1261 753 1184 753L1184 753Q1058 753 957 679L957 679Q889 754 805 754L805 754Q767 754 720 735L720 735 688 779 690 782 709 1392 940 1263 958 1259Q975 1259 983.5 1270 992 1281 992 1295L992 1295 992 1559 1526 1263 1543 1259Q1559 1259 1569 1270 1579 1281 1579 1295L1579 1295 1579 1559 2113 1263 2130 1259Q2147 1259 2156 1270 2165 1281 2165 1295Z"/>
</svg>