<svg xmlns="http://www.w3.org/2000/svg"
    viewBox="0 0 2600 2600">
  <!--
Digitized data copyright © 2011, Google Corporation.
Android is a trademark of Google and may be registered in certain jurisdictions.
Licensed under the Apache License, Version 2.0
http://www.apache.org/licenses/LICENSE-2.0
  -->
<path d="M1156 456L1156 456Q1124 457 1104 480 1084 503 1084 535L1084 535Q1084 570 1105 593 1126 616 1158 616L1158 616Q1173 616 1186 609.5 1199 603 1209.5 591.5 1220 580 1226 565.5 1232 551 1232 535L1232 535Q1232 498 1209 476.5 1186 455 1156 456ZM2251 1530L2251 1530Q2270 1530 2285 1578L2285 1578Q2292 1601 2296 1627.5 2300 1654 2300 1683L2300 1683Q2300 1791 2253 1902L2253 1902Q2207 2012 2137 2067 2067 2122 1980 2122L1980 2122Q1888 2122 1816 2068L1816 2068Q1778 2040 1756 2005.5 1734 1971 1724 1931L1724 1931Q1710 1873 1710 1845L1710 1845Q1710 1791 1705.5 1766 1701 1741 1680 1741L1680 1741Q1643 1741 1598 1820L1598 1820 1576 1852Q1263 2224 900 2225L900 2225Q799 2225 706.5 2197.5 614 2170 544 2120 474 2070 433 2001 392 1932 394 1849L394 1849Q396 1768 437 1674 478 1580 560 1471L560 1471 821 1125Q833 1109 845 1089.5 857 1070 866.5 1051.5 876 1033 882 1016 888 999 888 987L888 987Q888 963 873.5 946 859 929 835.5 917.5 812 906 783 897.5 754 889 725.5 882 697 875 671.5 867 646 859 630 849L630 849Q615 869 598 886.5 581 904 563.5 921 546 938 529 956 512 974 497 994L497 994Q455 1051 401 1087 347 1123 294 1124L294 1124Q280 1124 265.5 1122 251 1120 239 1116.5 227 1113 219.5 1107.5 212 1102 212 1096L212 1096Q212 1070 266 1070L266 1070Q305 1070 349 1043L349 1043Q393 1016 393 984L393 984Q393 974 381.5 967.5 370 961 346 960L346 960Q315 958 288.5 952 262 946 242.5 936.5 223 927 211.5 915.5 200 904 200 891L200 891Q200 871 219 871L219 871Q234 871 253 879L253 879Q276 888 299.5 893.5 323 899 346 898L346 898Q364 897 380.5 895 397 893 413 888L413 888Q446 879 475 861L475 861Q489 852 508 833 527 814 550 786L550 786Q502 727 502 672L502 672Q502 637 510.5 599 519 561 537 522.5 555 484 582 447 609 410 646 378L646 378Q721 312 822.5 276 924 240 1035 240L1035 240Q1245 240 1385 377L1385 377Q1526 515 1526 717L1526 717Q1526 1104 1041 1568L1041 1568Q976 1632 976 1678L976 1678Q976 1706 989 1717 1002 1728 1015 1728L1015 1728Q1034 1728 1059.5 1715 1085 1702 1119 1672.5 1153 1643 1197 1596 1241 1549 1297 1481L1297 1481Q1419 1333 1525 1260.5 1631 1188 1721 1188L1721 1188Q1805 1188 1880 1245L1880 1245Q1917 1274 1946.5 1313.5 1976 1353 1997 1405.5 2018 1458 2030 1525 2042 1592 2046 1676L2046 1676Q2047 1705 2050.5 1727 2054 1749 2067 1749L2067 1749Q2088 1749 2132 1687L2132 1687Q2153 1656 2170.5 1628 2188 1600 2199 1574L2199 1574Q2217 1530 2251 1530Z"/>
</svg>