<svg xmlns="http://www.w3.org/2000/svg"
    viewBox="0 0 2600 2600">
  <!--
Digitized data copyright © 2011, Google Corporation.
Android is a trademark of Google and may be registered in certain jurisdictions.
Licensed under the Apache License, Version 2.0
http://www.apache.org/licenses/LICENSE-2.0
  -->
<path d="M963 1616L963 1616Q1031 1616 1096 1579L1096 1579Q1162 1542 1162 1494L1162 1494Q1162 1470 1149 1452.5 1136 1435 1113 1435L1113 1435Q1090 1435 1078 1465L1078 1465Q1067 1494 1038.5 1511 1010 1528 981 1528L981 1528Q971 1528 962 1524 953 1520 943.5 1515 934 1510 924 1506 914 1502 903 1502L903 1502Q891 1502 876.5 1512.5 862 1523 862 1543L862 1543Q862 1558 871.5 1571.5 881 1585 895.5 1594.5 910 1604 928 1610 946 1616 963 1616ZM831 1382L831 1382Q831 1359 823.5 1339.5 816 1320 803.5 1305.5 791 1291 774.5 1283 758 1275 740 1275L740 1275Q708 1275 686 1300 664 1325 664 1365L664 1365Q664 1388 671 1408 678 1428 690.5 1442.5 703 1457 719 1465 735 1473 753 1473L753 1473 764 1472Q793 1468 812 1443 831 1418 831 1382ZM1077 1241L1077 1241Q1077 1264 1085 1284 1093 1304 1106 1319 1119 1334 1136.5 1343 1154 1352 1173 1352L1173 1352Q1191 1352 1205 1344 1219 1336 1228 1323 1237 1310 1242 1295 1247 1280 1247 1265L1247 1265Q1247 1244 1240 1224 1233 1204 1220.5 1189 1208 1174 1191 1164.5 1174 1155 1154 1155L1154 1155Q1121 1155 1099 1180 1077 1205 1077 1241ZM1987 1895L1987 1895Q2037 1875 2081 1843L2081 1843Q2081 1768 2063.5 1700.5 2046 1633 2013 1576 1980 1519 1932.5 1475 1885 1431 1825 1404L1825 1404Q1776 1425 1745 1449L1745 1449Q1777 1469 1846 1544L1846 1544Q1880 1582 1906.5 1625 1933 1668 1951 1713.5 1969 1759 1978 1805 1987 1851 1987 1895ZM1604 1808L1604 1808 1595 1807Q1608 1838 1631 1860 1654 1882 1684 1897 1714 1912 1749 1920 1784 1928 1820 1929L1820 1929 1820 1895Q1820 1802 1779 1717L1779 1717Q1736 1631 1676 1590L1676 1590 1684 1599Q1721 1630 1721 1642L1721 1642Q1721 1654 1693 1658L1693 1658Q1664 1662 1664 1672L1664 1672Q1664 1681 1673 1689.5 1682 1698 1682 1710L1682 1710Q1682 1732 1657 1732L1657 1732 1638 1732Q1620 1732 1620 1744L1620 1744Q1620 1755 1627 1765.5 1634 1776 1634 1785L1634 1785Q1634 1808 1604 1808ZM1936 568L1936 568 1928 568Q1873 568 1822 594 1771 620 1723 666L1723 666Q1674 713 1633 785.5 1592 858 1556 958L1556 958Q1520 1057 1504 1146 1488 1235 1481 1316L1481 1316 1476 1361 1478 1371Q1489 1360 1498 1360L1498 1360Q1512 1360 1512 1378L1512 1378 1511 1390Q1511 1412 1523 1412L1523 1412Q1531 1412 1565 1387L1565 1387 1578 1383Q1590 1383 1593 1405L1593 1405 1593 1425 1594 1442Q1614 1436 1639 1419L1639 1419 1650 1413Q1762 1342 1839 1287 1916 1232 1958 1194L1958 1194Q2044 1116 2093.5 1028.5 2143 941 2143 837L2143 837Q2143 726 2082 647L2082 647Q2022 568 1936 568ZM1178 796L1178 796 1178 814 1180 833Q1353 912 1435 1092L1435 1092Q1504 785 1653 627L1653 627Q1632 590 1605.5 558.5 1579 527 1548 504 1517 481 1482.5 468.5 1448 456 1411 456L1411 456Q1310 456 1244 555L1244 555Q1178 654 1178 796ZM2230 1605L2230 1605 2230 1592Q2230 1549 2214 1512 2198 1475 2168.5 1446.5 2139 1418 2099 1399.5 2059 1381 2011 1375L2011 1375Q2046 1398 2077 1431 2108 1464 2133.5 1505.5 2159 1547 2177 1596.5 2195 1646 2204 1702L2204 1702Q2218 1672 2224 1647.5 2230 1623 2230 1605ZM2274 1460L2274 1460Q2308 1524 2308 1596L2308 1596Q2308 1693 2244 1787L2244 1787Q2212 1833 2169 1872 2126 1911 2071 1941L2071 1941Q2017 1971 1962 1988 1907 2005 1850 2007L1850 2007Q1769 2009 1707 1989.5 1645 1970 1598 1934L1598 1934 1598 1960 1597 2088Q1597 2111 1593.5 2123 1590 2135 1584 2140.5 1578 2146 1569.5 2147 1561 2148 1549 2148L1549 2148Q1529 2148 1519 2135.5 1509 2123 1511 2098L1511 2098 1515 2037 1515 1964 1516 1866Q1504 1866 1494 1881L1494 1881Q1484 1897 1476 1897L1476 1897Q1473 1897 1469.5 1893.5 1466 1890 1463 1886 1460 1882 1456.5 1878.5 1453 1875 1449 1875L1449 1875 1450 1910 1450 2014Q1450 2068 1448.5 2099.5 1447 2131 1442 2138L1442 2138Q1437 2149 1401 2149L1401 2149Q1378 2149 1369.5 2137 1361 2125 1363 2101L1363 2101 1366 2038 1366 1966 1368 1873Q1357 1876 1349 1886 1341 1896 1330 1896L1330 1896Q1311 1896 1311 1860L1311 1860Q1295 1880 1278 1898.5 1261 1917 1241 1934L1241 1934Q1205 1967 1193 1974L1193 1974Q1165 1991 1147 2000.5 1129 2010 1121 2010L1121 2010Q1105 2010 1093 1997.5 1081 1985 1081 1970L1081 1970Q1081 1941 1122 1921L1122 1921Q1156 1904 1184 1873 1212 1842 1240 1814L1240 1814 1226 1815Q1204 1815 1204 1804L1204 1804Q1204 1797 1213 1784.5 1222 1772 1222 1761L1222 1761 1221 1754 1182 1795Q1137 1843 1095 1869 1053 1895 1011 1893L1011 1893 954 1891 890 1895Q831 1898 831 1852L831 1852Q831 1831 844.5 1819 858 1807 884 1808L884 1808 996 1814Q1015 1815 1032 1808.5 1049 1802 1064 1790.5 1079 1779 1093 1764 1107 1749 1121 1732L1121 1732Q1022 1767 895 1767L895 1767Q679 1767 549 1653L549 1653Q418 1538 418 1338L418 1338Q418 1215 467 1104L467 1104Q516 992 598 925L598 925Q597 922 584 908.5 571 895 548 869L548 869Q501 819 462 799.5 423 780 379 780L379 780 333 784Q315 786 291.5 794.5 268 803 247 803L247 803Q233 803 222.5 797.5 212 792 205.5 784 199 776 195.5 767 192 758 192 750L192 750Q192 715 239 689 286 663 378 663L378 663Q524 663 631 788L631 788 694 862Q737 840 782 826 827 812 873 803L873 803 880 802Q853 687 829 647L829 647Q806 605 765.5 581 725 557 672 547L672 547Q594 534 594 484L594 484Q594 430 673 430L673 430Q694 430 719.5 436 745 442 771.5 452.5 798 463 823 479 848 495 869 514L869 514Q890 534 907.5 556.5 925 579 939 607L939 607Q953 635 967 681.5 981 728 995 795L995 795Q1025 796 1051 799.5 1077 803 1100 808L1100 808Q1100 721 1121.5 643 1143 565 1183 506.5 1223 448 1280 413.5 1337 379 1409 379L1409 379Q1454 379 1497 393 1540 407 1579 432.5 1618 458 1652 494 1686 530 1712 573L1712 573Q1764 531 1820 510.5 1876 490 1935 490L1935 490Q2054 490 2137 592L2137 592Q2219 693 2219 837L2219 837Q2219 959 2158 1070.5 2097 1182 1958 1295L1958 1295 1976 1294Q2039 1289 2094.5 1310 2150 1331 2199 1368L2199 1368 2232 1365 2273 1365Q2290 1365 2290 1388L2290 1388Q2290 1410 2284 1425 2278 1440 2274 1460Z"/>
</svg>