<svg xmlns="http://www.w3.org/2000/svg"
    viewBox="0 0 2600 2850">
  <!--
Digitized data copyright © 2011, Google Corporation.
Android is a trademark of Google and may be registered in certain jurisdictions.
Licensed under the Apache License, Version 2.0
http://www.apache.org/licenses/LICENSE-2.0
  -->
<path d="M1913 506L1913 506 1783 516 1775 516 1765 514Q1765 483 1810 457L1810 457Q1859 429 1902 423L1902 423Q1914 419 1923.5 411.5 1933 404 1944 399L1944 399Q1961 392 1974 389.5 1987 387 1998 387L1998 387Q2018 387 2024 398L2024 398 2036 421 2055 435Q2082 470 2082 531L2082 531Q2082 547 2074 547L2074 547Q2067 547 2054 533L2054 533Q2035 520 2000 511 1965 502 1913 506ZM1481 684L1481 684Q1481 662 1528 618L1528 618Q1553 596 1591 583.5 1629 571 1682 566L1682 566Q1734 561 1774 559 1814 557 1843 557L1843 557Q1942 557 1999 574L1999 574Q2027 583 2049.5 596.5 2072 610 2087.5 626.5 2103 643 2111 660 2119 677 2119 693L2119 693Q2119 730 2107 730L2107 730 2091 725Q2061 708 2004 698.5 1947 689 1864 691L1864 691 1543 698 1522 698Q1481 698 1481 684ZM1731 916L1329 912 1218 918Q1193 919 1193 901L1193 901Q1193 878 1203.5 859.5 1214 841 1234 825L1234 825 1256 807Q1299 773 1367 759L1367 759Q1437 745 1713 745L1713 745Q1986 745 2067 771L2067 771Q2148 798 2148 869L2148 869Q2148 892 2132.5 909 2117 926 2085 925L2085 925 1781 916 1731 916ZM2191 1228L2191 1228Q2191 1286 2177.5 1328.5 2164 1371 2139 1399L2139 1399Q2112 1428 2077 1449 2042 1470 1994.5 1484.5 1947 1499 1885.5 1507.5 1824 1516 1746 1520L1746 1520Q1690 1523 1629 1534 1568 1545 1500 1563L1500 1563Q1367 1600 1255 1661L1255 1661Q1146 1719 1093 1762L1093 1762Q1068 1782 1047.5 1804 1027 1826 1010 1849L1010 1849Q993 1872 982 1894 971 1916 964 1939.5 957 1963 954.5 1989.5 952 2016 952 2049L952 2049Q952 2177 1030 2248.5 1108 2320 1248 2320L1248 2320Q1428 2320 1558 2185L1558 2185Q1690 2049 1727 1823L1727 1823 1728 1767 1728 1710Q1728 1645 1745 1622L1745 1622Q1760 1599 1825 1599L1825 1599Q1849 1599 1867 1603 1885 1607 1899 1614L1899 1614Q1925 1628 1939 1694 1953 1760 1954 1870L1954 1870Q1955 2032 1906.5 2168.5 1858 2305 1766.5 2404 1675 2503 1543.5 2557.5 1412 2612 1247 2610L1247 2610Q1125 2608 1010.5 2581.5 896 2555 786 2499L786 2499Q567 2389 438 2201L438 2201Q310 2013 310 1814L310 1814Q310 1649 397 1487L397 1487Q485 1325 639 1198L639 1198Q717 1135 800 1087.5 883 1040 974 1008L974 1008Q1017 993 1079 984.5 1141 976 1223 978L1223 978 1757 986Q1841 988 1902 993 1963 998 2003 1009L2003 1009Q2086 1033 2137 1081L2137 1081Q2191 1129 2191 1228Z"/>
</svg>