<svg xmlns="http://www.w3.org/2000/svg"
    viewBox="0 0 2600 2600">
  <!--
Digitized data copyright © 2011, Google Corporation.
Android is a trademark of Google and may be registered in certain jurisdictions.
Licensed under the Apache License, Version 2.0
http://www.apache.org/licenses/LICENSE-2.0
  -->
<path d="M1907 966L1907 966Q1907 1031 1841 1031L1841 1031Q1799 1031 1773.5 1019.5 1748 1008 1748 988L1748 988 1748 981 1794 981Q1806 981 1816.5 979.5 1827 978 1835 973 1843 968 1847.5 958.5 1852 949 1852 933L1852 933 1848 901 1844 877Q1844 863 1855 863L1855 863Q1864 863 1870 869L1870 869Q1885 880 1896 908.5 1907 937 1907 966ZM771 993L771 993Q771 1006 760.5 1014.5 750 1023 733 1023L733 1023Q710 1023 689 1015.5 668 1008 651 996 634 984 624 967.5 614 951 614 933L614 933Q614 913 621.5 895 629 877 640 863.5 651 850 663.5 842 676 834 686 834L686 834 689 834Q701 834 701 849L701 849Q701 857 698.5 867.5 696 878 692.5 888.5 689 899 686.5 907.5 684 916 684 921L684 921Q684 941 697.5 951 711 961 727.5 967 744 973 757.5 978 771 983 771 993ZM794 893L794 893Q794 874 802.5 856.5 811 839 824.5 825.5 838 812 856 804 874 796 893 796L893 796Q933 796 957 820 981 844 981 880L981 880Q981 902 972.5 920.5 964 939 950 952.5 936 966 918 973.5 900 981 881 981L881 981Q845 981 819.5 955.5 794 930 794 893ZM1625 981L1625 981Q1604 981 1585 972.5 1566 964 1552 949.5 1538 935 1529.5 917 1521 899 1521 880L1521 880Q1521 848 1543 822.5 1565 797 1606 797L1606 797Q1626 797 1644.5 804.5 1663 812 1677.5 825.5 1692 839 1701 858 1710 877 1710 899L1710 899Q1710 935 1686 958 1662 981 1625 981ZM606 839L606 839Q581 839 556 796L556 796Q532 753 532 703L532 703Q532 644 564.5 606.5 597 569 656 569L656 569Q701 569 740 590L740 590Q779 610 779 642L779 642Q779 669 722 709L722 709Q687 733 644 808L644 808Q626 839 606 839ZM1708 655L1708 655Q1708 623 1748 600L1748 600Q1789 577 1833 577L1833 577Q1893 577 1926.5 615.5 1960 654 1960 711L1960 711Q1960 751 1938 799L1938 799Q1915 847 1889 847L1889 847Q1870 847 1842 807L1842 807 1819 771 1793 739 1770 719Q1708 683 1708 655ZM1264 1845L1264 1845Q1354 1845 1401 1814 1448 1783 1448 1726L1448 1726Q1448 1684 1432.5 1648.5 1417 1613 1387 1581L1387 1581Q1326 1520 1231 1520L1231 1520Q1139 1520 1076 1579L1076 1579Q1013 1638 1013 1722L1013 1722Q1013 1769 1037 1791L1037 1791Q1048 1802 1070.5 1811 1093 1820 1127 1829L1127 1829Q1161 1838 1195 1841.5 1229 1845 1264 1845ZM1537 1565L1537 1565Q1537 1582 1541.5 1606 1546 1630 1554 1662L1554 1662Q1569 1725 1569 1761L1569 1761Q1569 1849 1474 1900L1474 1900Q1379 1951 1231 1951L1231 1951Q1105 1951 994 1901L994 1901Q886 1853 886 1737L886 1737Q886 1709 903 1647L903 1647Q919 1587 919 1551L919 1551Q919 1498 890 1469L890 1469Q794 1446 744.5 1390.5 695 1335 695 1260L695 1260Q695 1222 709 1198.5 723 1175 745 1175L745 1175Q765 1175 771 1220L771 1220Q780 1284 855 1326L855 1326Q930 1368 1026 1368L1026 1368Q1097 1368 1136.5 1338.5 1176 1309 1172 1252L1172 1252 1171 1230Q1123 1222 1075 1198 1027 1174 989.5 1145.5 952 1117 929 1089 906 1061 908 1044L908 1044Q908 1019 949 1019L949 1019 986 1023 1128 1056Q1156 1063 1184 1067 1212 1071 1240 1071L1240 1071Q1262 1071 1292.5 1067 1323 1063 1364 1053L1364 1053Q1404 1044 1434.5 1040 1465 1036 1487 1036L1487 1036Q1496 1036 1505.5 1036.5 1515 1037 1523 1039 1531 1041 1536 1045 1541 1049 1541 1057L1541 1057Q1541 1076 1515 1109L1515 1109Q1489 1146 1426 1181L1426 1181Q1365 1214 1297 1231L1297 1231 1292 1261Q1292 1341 1368 1357L1368 1357Q1406 1365 1446 1370 1486 1375 1528 1376L1528 1376Q1560 1377 1586.5 1371.5 1613 1366 1636 1356L1636 1356Q1659 1346 1673.5 1334 1688 1322 1696.5 1308 1705 1294 1709.5 1278 1714 1262 1716 1243L1716 1243Q1722 1201 1740 1201L1740 1201Q1757 1201 1768 1220 1779 1239 1779 1264L1779 1264Q1779 1360 1721 1419.5 1663 1479 1559 1491L1559 1491 1550 1503Q1537 1529 1537 1565ZM2065 1594L2065 1594Q2007 1658 1915 1698L1915 1698Q1827 1736 1737 1736L1737 1736Q1681 1736 1681 1704L1681 1704Q1681 1681 1747 1670L1747 1670Q1796 1662 1866 1628L1866 1628Q1936 1592 1985 1545.5 2034 1499 2052 1445L2052 1445 2046 1417Q2000 1490 1896 1539L1896 1539Q1794 1585 1697 1585L1697 1585Q1649 1585 1649 1565L1649 1565Q1649 1546 1693 1533L1693 1533Q1770 1513 1862 1442L1862 1442Q1955 1369 2008 1254L2008 1254 1996 1191Q1976 1211 1963 1217L1963 1217 1929 1238 1898 1267Q1879 1290 1866 1304.5 1853 1319 1843 1327 1833 1335 1825.5 1338 1818 1341 1811 1341L1811 1341Q1800 1341 1800 1327L1800 1327Q1800 1318 1808 1305L1808 1305Q1833 1265 1833 1224L1833 1224Q1833 1203 1827.5 1183.5 1822 1164 1812 1146L1812 1146 1804 1131 1797 1118Q1797 1107 1812 1107L1812 1107Q1829 1107 1856 1137L1856 1137Q1883 1167 1904 1167L1904 1167Q1914 1167 1922.5 1157 1931 1147 1937 1131 1943 1115 1946.5 1095 1950 1075 1950 1055L1950 1055Q1950 1039 1942.5 1011.5 1935 984 1927 942L1927 942 1922 915Q1922 901 1938 901L1938 901Q1947 901 1963 915L1963 915Q1968 901 1975.5 886 1983 871 1993 855L1993 855Q2027 798 2027 740L2027 740Q2027 656 1970 596L1970 596Q1913 538 1825 538L1825 538Q1797 538 1769 545 1741 552 1712 568L1712 568Q1684 583 1665 592 1646 601 1636 605L1636 605Q1626 607 1615 610 1604 613 1593 611L1593 611 1561 609 1555 607Q1540 605 1524.5 601 1509 597 1495 592L1495 592Q1475 585 1434 576 1393 567 1332 557L1332 557Q1314 563 1314 594L1314 594 1354 602 1433 618Q1530 639 1530 677L1530 677Q1530 696 1491 696L1491 696 1483 696 1306 672 1301 710Q1301 714 1306 716 1311 718 1318.5 719 1326 720 1334.5 721 1343 722 1349 724L1349 724 1379 732Q1421 743 1441.5 754.5 1462 766 1462 781L1462 781Q1462 799 1429 799L1429 799Q1393 799 1358.5 791 1324 783 1290 778L1290 778Q1273 840 1238 849L1238 849 1231 851Q1187 851 1171 771L1171 771 1113 778Q1076 788 1068 788L1068 788Q1056 788 1041.5 779 1027 770 1027 759L1027 759Q1027 742 1064.5 729 1102 716 1162 711L1162 711 1160 669Q1122 673 1084.5 681 1047 689 1007 689L1007 689Q960 689 960 673L960 673Q960 661 976 650L976 650Q994 639 1067 616L1067 616Q1137 593 1157 596L1157 596Q1149 555 1126 555L1126 555Q1083 560 1046.5 567.5 1010 575 978 584L978 584Q934 596 915 596L915 596Q876 596 827 559L827 559Q809 546 788 535 767 524 745.5 515.5 724 507 702.5 502 681 497 662 497L662 497Q570 497 515 557L515 557Q459 616 459 699L459 699Q459 773 498 830L498 830Q531 881 533 921L533 921Q551 896 565 896L565 896Q573 896 573 907L573 907Q573 929 562 964L562 964Q550 991 550 1027L550 1027Q550 1050 556 1071 562 1092 570.5 1108 579 1124 589 1133 599 1142 608 1142L608 1142 621 1137Q652 1107 669 1107L669 1107Q680 1107 680 1116L680 1116Q680 1127 670 1138L670 1138Q641 1165 641 1224L641 1224Q641 1300 667 1338L667 1338Q674 1346 674 1360L674 1360Q674 1367 667 1367L667 1367Q644 1367 615 1335L615 1335Q588 1305 580 1274L580 1274Q570 1240 559 1232L559 1232Q512 1202 485 1146L485 1146 483 1155Q487 1291 540.5 1372 594 1453 696 1492L696 1492Q779 1525 779 1557L779 1557Q779 1587 740 1587L740 1587Q637 1587 557.5 1544 478 1501 436 1427L436 1427 436 1462Q436 1494 448 1526.5 460 1559 485 1589 510 1619 549 1645.5 588 1672 641 1691L641 1691Q736 1726 736 1750L736 1750Q736 1759 710.5 1767.5 685 1776 649 1776L649 1776Q600 1776 545 1756L545 1756Q553 1767 574 1782.5 595 1798 629 1815L629 1815Q663 1833 696.5 1846 730 1859 763 1869L763 1869Q885 1904 933 1985L933 1985Q949 2013 978.5 2036.5 1008 2060 1046 2076.5 1084 2093 1129.5 2102 1175 2111 1224 2111L1224 2111Q1324 2111 1407.5 2073 1491 2035 1541 1964L1541 1964Q1570 1924 1621.5 1896.5 1673 1869 1763 1848L1763 1848Q1826 1833 1878 1808.5 1930 1784 1969 1751.5 2008 1719 2032.5 1679 2057 1639 2065 1594ZM2168 1555L2168 1555Q2168 1697 2063 1800L2063 1800Q2010 1852 1955 1884.5 1900 1917 1841 1932L1841 1932Q1782 1946 1743 1958 1704 1970 1684 1978L1684 1978Q1644 1993 1622 2023L1622 2023Q1556 2113 1452.5 2162.5 1349 2212 1224 2212L1224 2212Q1162 2212 1105.5 2201 1049 2190 1000.5 2167.5 952 2145 912.5 2112.5 873 2080 846 2036L846 2036Q836 2020 823.5 2009.5 811 1999 795 1990.5 779 1982 759.5 1975.5 740 1969 716 1960L716 1960 670 1944Q590 1916 527 1870.5 464 1825 420.5 1766 377 1707 354.5 1635.5 332 1564 332 1484L332 1484Q332 1455 336.5 1420 341 1385 348 1343L348 1343 364 1258Q375 1192 390.5 1116 406 1040 432 953L432 953 435 933Q435 915 414 885L414 885Q359 803 359 700L359 700Q359 572 446 486L446 486Q533 398 663 398L663 398Q722 398 779 421 836 444 896 484L896 484 916 498 949 488Q1015 469 1083.5 459.5 1152 450 1224 450L1224 450Q1302 450 1382.5 463 1463 476 1547 503L1547 503Q1558 507 1571 509.5 1584 512 1597 512L1597 512Q1608 512 1619 505L1619 505Q1720 438 1823 438L1823 438Q1954 438 2041 525L2041 525Q2127 613 2127 741L2127 741Q2127 761 2125.5 779.5 2124 798 2118.5 817 2113 836 2104 856.5 2095 877 2080 901L2080 901Q2050 954 2050 974L2050 974Q2050 983 2052.5 994 2055 1005 2058 1016L2058 1016 2072 1064 2098 1197 2124 1321Q2132 1359 2140 1390.5 2148 1422 2154 1450 2160 1478 2164 1503.5 2168 1529 2168 1555Z"/>
</svg>