<svg xmlns="http://www.w3.org/2000/svg"
    viewBox="0 0 2600 2600">
  <!--
Digitized data copyright © 2011, Google Corporation.
Android is a trademark of Google and may be registered in certain jurisdictions.
Licensed under the Apache License, Version 2.0
http://www.apache.org/licenses/LICENSE-2.0
  -->
<path d="M671 945L671 945Q699 945 715 924 731 903 731 875L731 875Q731 847 714 827 697 807 669 807L669 807Q646 807 627.5 826 609 845 609 875L609 875Q609 901 626 923 643 945 671 945ZM293 1042L322 1047 404 1056 422 1054Q369 922 346 922L346 922Q339 922 334 926L334 926Q331 927 317 940 303 953 279 976L279 976 266 990Q247 1009 236 1019.5 225 1030 223 1035L223 1035 277 1042 293 1042ZM2348 991L2348 991Q2348 1024 2330 1052L2330 1052Q2313 1079 2286 1101L2286 1101Q2258 1124 2163 1168L2163 1168Q2142 1178 2113.5 1193.5 2085 1209 2050 1231L2050 1231Q1918 1312 1838 1363.5 1758 1415 1728 1440L1728 1440Q1739 1446 1753 1459L1753 1459Q1787 1484 1787 1514L1787 1514Q1787 1547 1767 1571.5 1747 1596 1721 1606L1721 1606 1716 1612Q1699 1633 1685.5 1647.5 1672 1662 1661 1669L1661 1669 1604 1703Q1576 1731 1527.5 1745 1479 1759 1424 1760L1424 1760Q1369 1761 1313.5 1747 1258 1733 1204.5 1706 1151 1679 1103 1641 1055 1603 1016.5 1555 978 1507 951 1451 924 1395 913 1333L913 1333Q902 1309 894 1309L894 1309Q886 1309 881.5 1320 877 1331 877 1343L877 1343Q877 1394 910 1473L910 1473Q927 1513 949.5 1552 972 1591 1002 1627L1002 1627Q1062 1701 1134.5 1747.5 1207 1794 1289 1811L1289 1811 1248 1827Q1264 1907 1264 1943L1264 1943Q1264 1975 1256.5 2004 1249 2033 1241 2061L1241 2061Q1237 2075 1233 2087 1229 2099 1221.5 2107.5 1214 2116 1200.5 2120.5 1187 2125 1165 2125L1165 2125Q1103 2125 1103 2097L1103 2097Q1103 2078 1119 2058L1119 2058Q1139 2035 1156 1980L1156 1980Q1174 1928 1174 1882L1174 1882 1174 1867 1173 1853Q1145 1861 1119.5 1865.5 1094 1870 1070 1872L1070 1872Q1065 1903 1062 1924.5 1059 1946 1059 1960L1059 1960Q1059 2021 999.5 2057.5 940 2094 838 2094L838 2094Q797 2094 797 2069L797 2069Q797 2049 809 2035.5 821 2022 865 2012L865 2012Q898 2005 921.5 1994.5 945 1984 961 1968.5 977 1953 984.5 1931 992 1909 992 1878L992 1878Q851 1878 727.5 1839.5 604 1801 517 1727L517 1727Q474 1690 444.5 1650.5 415 1611 400 1567L400 1567Q384 1523 371.5 1451.5 359 1380 348 1279L348 1279Q344 1244 335 1213 326 1182 314 1151L314 1151 299 1114 262 1112Q212 1108 182 1089.5 152 1071 152 1035L152 1035Q152 992 211 943L211 943Q235 924 259 894L259 894Q261 765 315 666L315 666Q371 565 487 500L487 500Q606 435 724 435L724 435Q880 435 1002 536L1002 536Q1062 587 1105 653 1148 719 1173 804L1173 804Q1189 861 1267 934L1267 934Q1347 1008 1398 1008L1398 1008Q1420 1008 1444 983 1468 958 1504 904L1504 904Q1515 887 1533.5 865.5 1552 844 1578 818L1578 818Q1605 791 1628 772.5 1651 754 1674.5 743 1698 732 1723.5 727.5 1749 723 1780 723L1780 723Q1816 723 1850 728.5 1884 734 1916 742L1916 742Q1932 747 1969.5 757.5 2007 768 2067 785L2067 785Q2128 802 2177 824 2226 846 2267 875L2267 875Q2348 932 2348 991Z"/>
</svg>