<svg xmlns="http://www.w3.org/2000/svg"
    viewBox="0 0 2600 2600">
  <!--
Digitized data copyright © 2011, Google Corporation.
Android is a trademark of Google and may be registered in certain jurisdictions.
Licensed under the Apache License, Version 2.0
http://www.apache.org/licenses/LICENSE-2.0
  -->
<path d="M797 755L792 732 677 732Q669 746 669 762L669 762Q669 790 687 806 705 822 731 822L731 822Q759 822 778 802.5 797 783 797 755L797 755ZM2316 1473L2316 1473Q2316 1522 2278 1578L2278 1578Q2239 1636 2196 1636L2196 1636Q2180 1636 2180 1626L2180 1626 2189 1593Q2189 1577 2185.5 1562 2182 1547 2177.5 1532 2173 1517 2169.5 1502.5 2166 1488 2166 1472L2166 1472Q2166 1409 2217 1396L2217 1396Q2217 1360 2203.5 1326 2190 1292 2166 1263.5 2142 1235 2108 1213 2074 1191 2033 1179L2033 1179Q2047 1227 2053 1269 2059 1311 2059 1346L2059 1346Q2059 1392 2050 1462 2041 1532 2029 1629L2029 1629 2017 1729Q2009 1792 2004.5 1830 2000 1868 1995 1882L1995 1882Q1984 1909 1948 1909L1948 1909Q1919 1909 1902 1904 1885 1899 1885 1879L1885 1879Q1885 1863 1888.5 1848 1892 1833 1896 1818 1900 1803 1903.5 1788.5 1907 1774 1907 1758L1907 1758Q1907 1710 1906 1674.5 1905 1639 1902 1614L1902 1614Q1889 1570 1860 1551.5 1831 1533 1791 1521L1791 1521 1776 1613Q1772 1636 1770.5 1660.5 1769 1685 1768 1708L1768 1708 1766 1737 1757 1801Q1753 1825 1736.5 1836.5 1720 1848 1686 1848L1686 1848Q1639 1848 1639 1814L1639 1814Q1639 1800 1641.5 1788 1644 1776 1649 1764L1649 1764Q1659 1739 1663.5 1705 1668 1671 1668 1629L1668 1629Q1668 1526 1623 1478L1623 1478Q1540 1498 1515 1587L1515 1587Q1501 1632 1489.5 1724.5 1478 1817 1487 1957L1487 1957 1493 2042Q1496 2095 1471.5 2113 1447 2131 1407 2131L1407 2131Q1348 2131 1348 2075L1348 2075Q1348 2050 1364 2023L1364 2023Q1379 1999 1379 1976L1379 1976 1374 1934Q1374 1885 1334 1814L1334 1814Q1314 1779 1291.5 1749 1269 1719 1242 1696L1242 1696 1240 1836 1244 1919Q1245 1947 1239.5 1964.5 1234 1982 1222.5 1992 1211 2002 1194.5 2005.5 1178 2009 1158 2009L1158 2009Q1099 2009 1099 1956L1099 1956Q1099 1929 1115 1903L1115 1903Q1130 1878 1130 1853L1130 1853Q1130 1797 1114 1723L1114 1723Q1108 1696 1070 1622L1070 1622 1007 1600Q957 1583 908.5 1552.5 860 1522 812 1473L812 1473Q764 1425 723 1370 682 1315 657 1249L657 1249 645 1216Q630 1177 615.5 1153 601 1129 584 1121L584 1121Q543 1142 505.5 1152 468 1162 434 1162L434 1162Q343 1162 263 1106L263 1106Q184 1051 184 968L184 968Q184 910 218 872L218 872Q235 852 273 823.5 311 795 371 755L371 755Q422 720 449 649L449 649Q466 607 480 586 494 565 515 550L515 550Q493 524 493 498L493 498Q493 469 511.5 445 530 421 560 421L560 421Q606 421 628 492L628 492Q652 485 675.5 481.5 699 478 723 478L723 478Q791 478 847 510L847 510Q878 459 921 459L921 459Q937 459 952.5 464.5 968 470 980.5 480.5 993 491 1001 505 1009 519 1009 535L1009 535Q1009 584 951 611L951 611Q973 652 986 695.5 999 739 995 785L995 785 989 848Q1000 865 1016.5 880.5 1033 896 1056 908L1056 908Q1080 920 1100.5 926.5 1121 933 1141 933L1141 933Q1164 933 1182.5 910 1201 887 1219 842L1219 842 1233 808Q1287 673 1363.5 610.5 1440 548 1523 548L1523 548Q1602 548 1669 609.5 1736 671 1805 792L1805 792Q1827 830 1860 872.5 1893 915 1940 963L1940 963Q1975 999 1989 1042L1989 1042 2009 1098Q2147 1154 2210 1224.5 2273 1295 2273 1385L2273 1385 2273 1399Q2316 1421 2316 1473Z"/>
</svg>