<svg xmlns="http://www.w3.org/2000/svg"
    viewBox="0 0 2600 2600">
  <!--
Digitized data copyright © 2011, Google Corporation.
Android is a trademark of Google and may be registered in certain jurisdictions.
Licensed under the Apache License, Version 2.0
http://www.apache.org/licenses/LICENSE-2.0
  -->
<path d="M444 522L444 522 606 569 660 461 606 350Q548 376 504 422 460 468 444 522ZM366 521L366 521Q366 501 382 463.5 398 426 426 391L426 391Q441 373 455 359 469 345 486 332.5 503 320 525 307 547 294 577 279L577 279 606 273Q654 273 675 316L675 316 730 425Q735 433 736.5 442.5 738 452 738 461L738 461Q738 480 730 495L730 495 675 604Q664 627 646.5 637 629 647 606 647L606 647 585 644 422 596Q396 588 381 567.5 366 547 366 521ZM1641 128L1641 128Q1620 128 1596.5 132 1573 136 1547 143L1547 143 1603 304 1740 252 1740 143Q1732 143 1707.5 135.5 1683 128 1641 128ZM1530 328L1474 169 1470 143Q1470 52 1641 52L1641 52Q1703 52 1748 67L1748 67Q1777 70 1796.5 92 1816 114 1816 143L1816 143 1816 252Q1816 306 1767 324L1767 324 1630 376 1603 380Q1578 380 1558.5 366 1539 352 1530 328L1530 328ZM2016 387L1912 587 2130 548Q2075 446 2016 387L2016 387ZM2143 625L1926 663 1912 665Q1880 665 1858 642 1836 619 1836 587L1836 587Q1836 566 1844 551L1844 551 1948 351Q1969 310 2016 310L2016 310Q2026 310 2035 311.5 2044 313 2054.5 319.5 2065 326 2078 339 2091 352 2109 375L2109 375Q2128 398 2144.5 422 2161 446 2176 472L2176 472Q2192 498 2199 517 2206 536 2206 548L2206 548Q2206 577 2188.5 598.5 2171 620 2143 625L2143 625ZM1164 1078L1164 1078 1165 1067 1176 1055Q1206 1020 1223.5 1001.5 1241 983 1249 983L1249 983Q1260 983 1266 992L1266 992 1295 1020Q1316 1041 1327 1053.5 1338 1066 1338 1074L1338 1074Q1338 1077 1333 1083 1328 1089 1320.5 1096 1313 1103 1305.5 1110 1298 1117 1292 1123L1292 1123Q1290 1127 1285.5 1132.5 1281 1138 1275.5 1143.5 1270 1149 1264 1152.5 1258 1156 1254 1156L1254 1156Q1237 1156 1228 1145L1228 1145Q1195 1106 1164 1078ZM877 929L877 929Q877 957 892 977.5 907 998 935 998L935 998Q948 998 960.5 992 973 986 982.5 975.5 992 965 998 950.5 1004 936 1004 919L1004 919Q1004 891 988.5 869.5 973 848 945 848L945 848Q931 848 918.5 854.5 906 861 897 872.5 888 884 882.5 898.5 877 913 877 929ZM1100 1063L1100 1063 1095 1079Q1095 1089 1102 1096L1102 1096 1175 1183 1191 1205Q1208 1228 1222 1242 1236 1256 1251 1257L1251 1257Q1270 1258 1278.5 1246 1287 1234 1297 1223L1297 1223 1355 1156Q1405 1100 1405 1078L1405 1078Q1405 1065 1386 1039 1367 1013 1332 970L1332 970 1302 933Q1297 927 1291.5 918 1286 909 1279.5 901 1273 893 1266 887.5 1259 882 1250 882L1250 882Q1237 882 1198 933L1198 933 1116 1038Q1103 1051 1100 1063ZM1503 919L1503 919Q1503 953 1524 975.5 1545 998 1571 998L1571 998Q1596 998 1612.5 978 1629 958 1629 930L1629 930Q1629 894 1608 871 1587 848 1561 848L1561 848Q1537 848 1520 868.5 1503 889 1503 919ZM2053 1518L1820 1711 1536 1529 1250 1692 939 1529 715 1692 448 1516Q439 1548 435 1581 431 1614 431 1647L431 1647Q431 1714 448.5 1777 466 1840 499 1897 532 1954 580 2004 628 2054 688 2094L688 2094Q810 2176 960 2212L960 2212Q1036 2230 1107 2238.5 1178 2247 1245 2247L1245 2247Q1310 2247 1376 2240 1442 2233 1506 2218.5 1570 2204 1630.5 2183 1691 2162 1744 2135L1744 2135Q1798 2108 1840.5 2076 1883 2044 1918 2009L1918 2009Q1952 1974 1980 1930.5 2008 1887 2027 1837 2046 1787 2055 1731.5 2064 1676 2060 1617L2060 1617 2053 1518ZM1851 1583L1851 1583 2002 1457Q2024 1438 2053 1438L2053 1438Q2095 1438 2119 1475L2119 1475Q2141 1511 2141 1618L2141 1618Q2141 1783 2076 1916 2011 2049 1883 2144L1883 2144Q1757 2237 1582 2283L1582 2283Q1494 2306 1410 2317 1326 2328 1245 2328L1245 2328Q1001 2328 793 2242L793 2242Q585 2156 468 2000L468 2000Q350 1843 350 1647L350 1647Q350 1436 448 1436L448 1436Q462 1436 472 1439.5 482 1443 492 1450L492 1450 637 1544Q626 1510 619.5 1475.5 613 1441 608 1406L608 1406Q453 1365 342 1219L342 1219Q285 1145 258 1067 231 989 231 907L231 907Q231 785 313 785L313 785Q346 785 378 802.5 410 820 437 837L437 837Q482 863 538 886 594 909 663 926L663 926 675 927Q694 878 713.5 834 733 790 755 752L755 752Q777 714 808.5 673.5 840 633 882 591L882 591Q925 548 967 519 1009 490 1054 472 1099 454 1147 446 1195 438 1250 438L1250 438Q1384 438 1477 480L1477 480Q1523 501 1570.5 540 1618 579 1662.5 635.5 1707 692 1748 765.5 1789 839 1822 929L1822 929Q1895 911 1955.5 888.5 2016 866 2064 837L2064 837Q2092 820 2124 802.5 2156 785 2188 785L2188 785Q2269 785 2269 907L2269 907Q2269 1008 2219 1117L2219 1117Q2168 1228 2082.5 1303 1997 1378 1893 1406L1893 1406Q1881 1511 1851 1583Z"/>
</svg>