<svg xmlns="http://www.w3.org/2000/svg"
    viewBox="0 0 2600 2850">
  <!--
Digitized data copyright © 2011, Google Corporation.
Android is a trademark of Google and may be registered in certain jurisdictions.
Licensed under the Apache License, Version 2.0
http://www.apache.org/licenses/LICENSE-2.0
  -->
<path d="M1258 1864L1258 1864Q1227 1864 1200.5 1854.5 1174 1845 1154.5 1829 1135 1813 1124 1792 1113 1771 1113 1748L1113 1748Q1113 1724 1124 1703 1135 1682 1154.5 1666 1174 1650 1200.5 1641 1227 1632 1258 1632L1258 1632Q1289 1632 1315 1641.5 1341 1651 1360.5 1667 1380 1683 1391 1704 1402 1725 1402 1748L1402 1748Q1402 1772 1391 1793 1380 1814 1360.5 1830 1341 1846 1314.5 1855 1288 1864 1258 1864ZM1440 1908L1440 1908Q1456 1908 1464 1918 1472 1928 1472 1941L1472 1941Q1472 1954 1466 1960L1466 1960Q1464 1962 1452 1976.5 1440 1991 1414.5 2008.5 1389 2026 1350.5 2040 1312 2054 1258 2054L1258 2054Q1204 2054 1165.5 2040 1127 2026 1102 2008.5 1077 1991 1064 1976.5 1051 1962 1050 1960L1050 1960Q1045 1955 1045 1941L1045 1941Q1045 1928 1053.5 1918 1062 1908 1078 1908L1078 1908Q1095 1908 1105 1922L1105 1922 1116 1933Q1136 1956 1174 1971.5 1212 1987 1258 1987L1258 1987Q1277 1987 1295 1985.5 1313 1984 1331 1977 1349 1970 1368.5 1957.5 1388 1945 1411 1922L1411 1922Q1421 1908 1440 1908ZM1585 1566L1585 1566Q1604 1566 1621 1559 1638 1552 1650.5 1540 1663 1528 1670.5 1511.5 1678 1495 1678 1477L1678 1477Q1678 1458 1670.5 1441.5 1663 1425 1650.5 1413 1638 1401 1621 1394 1604 1387 1585 1387L1585 1387Q1566 1387 1549.5 1394 1533 1401 1520.5 1413 1508 1425 1501 1441.5 1494 1458 1494 1477L1494 1477Q1494 1514 1520.5 1540 1547 1566 1585 1566ZM1777 1901L1777 1901Q1727 1901 1683.5 1881 1640 1861 1600 1823L1600 1823Q1559 1784 1472 1673L1472 1673Q1427 1616 1405 1566 1383 1516 1383 1473L1383 1473Q1383 1382 1450 1325L1450 1325Q1517 1268 1613 1268L1613 1268Q1713 1268 1811 1342L1811 1342Q1909 1416 1951.5 1494 1994 1572 1994 1660L1994 1660Q1994 1713 1979 1757 1964 1801 1936.5 1833 1909 1865 1868.5 1883 1828 1901 1777 1901ZM927 1566L927 1566Q946 1566 963 1559 980 1552 992.5 1540 1005 1528 1012 1511.5 1019 1495 1019 1477L1019 1477Q1019 1439 992 1413 965 1387 927 1387L927 1387Q908 1387 891.5 1394 875 1401 862.5 1413 850 1425 842.5 1441.5 835 1458 835 1477L835 1477Q835 1495 842.5 1511.5 850 1528 862.5 1540 875 1552 891.5 1559 908 1566 927 1566ZM742 1885L742 1885Q656 1885 596 1822L596 1822Q537 1759 537 1656L537 1656Q537 1514 658 1400L658 1400Q781 1285 900 1285L900 1285Q986 1285 1052 1340L1052 1340Q1084 1367 1102 1401.5 1120 1436 1116 1481L1116 1481 1113 1514Q1101 1556 1080 1591L1080 1591Q1070 1608 1042 1646.5 1014 1685 967 1744L967 1744Q933 1786 903.5 1814.5 874 1843 848 1857L848 1857Q798 1885 742 1885ZM1257 2205L1257 2205Q1333 2205 1410.5 2195 1488 2185 1567 2165L1567 2165Q1726 2126 1833 2043L1833 2043Q1941 1960 1995 1838.5 2049 1717 2049 1552L2049 1552Q2049 1212 1834 979L1834 979Q1619 748 1260 748L1260 748Q1145 748 1043.5 773.5 942 799 852 852L852 852Q672 958 574 1140L574 1140Q476 1324 476 1547L476 1547Q476 1709 527.5 1831 579 1953 680 2034L680 2034Q778 2114 938 2160L938 2160Q1095 2205 1257 2205ZM2072 1149L2072 1149 2072 1164Q2149 1344 2149 1545L2149 1545Q2149 1647 2133 1733 2117 1819 2083.5 1891 2050 1963 1999 2022.5 1948 2082 1878 2131L1878 2131Q1740 2227 1571 2266L1571 2266Q1488 2286 1409.5 2295.5 1331 2305 1257 2306L1257 2306Q1189 2307 1112.5 2296.5 1036 2286 948 2266L948 2266Q860 2246 782.5 2210.5 705 2175 636 2124L636 2124Q497 2023 435 1877.5 373 1732 376 1552L376 1552Q378 1460 390.5 1378 403 1296 431 1221L431 1221Q436 1211 436 1195L436 1195Q436 1180 432 1165.5 428 1151 418 1138L418 1138Q335 1022 335 897L335 897Q335 772 421 696L421 696Q509 618 619 618L619 618Q663 618 706.5 630.5 750 643 797 667L797 667Q827 683 856 691 885 699 915 699L915 699 956 694Q1101 648 1264 648L1264 648Q1333 648 1399 657.5 1465 667 1530 684L1530 684Q1555 690 1587 690L1587 690Q1649 690 1703 660L1703 660Q1747 635 1791.5 623 1836 611 1881 611L1881 611Q1959 611 2030 652L2030 652Q2100 694 2132.5 753 2165 812 2165 890L2165 890Q2165 1004 2097 1108L2097 1108Q2089 1119 2082 1127.5 2075 1136 2072 1149Z"/>
</svg>