<svg xmlns="http://www.w3.org/2000/svg"
    viewBox="0 0 2600 2850">
  <!--
Digitized data copyright © 2011, Google Corporation.
Android is a trademark of Google and may be registered in certain jurisdictions.
Licensed under the Apache License, Version 2.0
http://www.apache.org/licenses/LICENSE-2.0
  -->
<path d="M1425 1879L1425 1879Q1459 1879 1459 1912L1459 1912Q1459 1933 1425 1961L1425 1961Q1392 1990 1347.5 2007 1303 2024 1246 2024L1246 2024Q1207 2024 1172 2014.5 1137 2005 1109.5 1991 1082 1977 1063.5 1960.5 1045 1944 1038 1930L1038 1930Q1035 1925 1033 1920.5 1031 1916 1031 1911L1031 1911Q1031 1898 1041.5 1888.5 1052 1879 1065 1879L1065 1879Q1082 1879 1093 1893L1093 1893Q1118 1923 1158.5 1940 1199 1957 1246 1957L1246 1957Q1338 1957 1399 1893L1399 1893Q1412 1879 1425 1879ZM1246 1805L1246 1805Q1175 1805 1124 1766L1124 1766Q1074 1726 1074 1667L1074 1667Q1074 1610 1124 1570L1124 1570Q1150 1550 1180 1539.5 1210 1529 1246 1529L1246 1529Q1282 1529 1312 1539.5 1342 1550 1368 1570L1368 1570Q1418 1610 1418 1667L1418 1667Q1418 1726 1368 1766L1368 1766Q1317 1805 1246 1805ZM1774 1655L1774 1655Q1795 1655 1813.5 1645.5 1832 1636 1845.5 1619.5 1859 1603 1867 1580.5 1875 1558 1875 1533L1875 1533Q1875 1509 1867 1487 1859 1465 1845.5 1448.5 1832 1432 1813.5 1422.5 1795 1413 1774 1413L1774 1413Q1753 1413 1734.5 1422.5 1716 1432 1702.5 1448.5 1689 1465 1681 1487 1673 1509 1673 1533L1673 1533Q1673 1558 1681 1580.5 1689 1603 1702.5 1619.5 1716 1636 1734.5 1645.5 1753 1655 1774 1655ZM1246 2105L1246 2105Q1429 2105 1518.5 2030 1608 1955 1608 1811L1608 1811Q1608 1644 1502 1526L1502 1526Q1394 1407 1246 1407L1246 1407Q1094 1407 987 1526L987 1526Q882 1645 882 1811L882 1811Q882 2105 1246 2105ZM716 1655L716 1655Q737 1655 756 1645.5 775 1636 788.5 1619.5 802 1603 810 1580.5 818 1558 818 1533L818 1533Q818 1509 810 1487 802 1465 788.5 1448.5 775 1432 756 1422.5 737 1413 716 1413L716 1413Q695 1413 676.5 1422.5 658 1432 644.5 1448.5 631 1465 623 1487 615 1509 615 1533L615 1533Q615 1558 623 1580.5 631 1603 644.5 1619.5 658 1636 676.5 1645.5 695 1655 716 1655ZM561 970L561 970Q581 970 614 920L614 920Q653 862 674 842L674 842 696 826Q755 781 755 758L755 758Q755 735 714 715L714 715Q671 695 636 695L636 695Q578 695 530 738L530 738Q485 782 485 848L485 848Q485 871 491.5 893 498 915 508.5 932 519 949 532.5 959.5 546 970 561 970ZM1853 695L1853 695Q1833 695 1813.5 700 1794 705 1774 716L1774 716Q1736 739 1736 758L1736 758Q1736 783 1794 826L1794 826Q1827 849 1846 879L1846 879Q1864 905 1877 922.5 1890 940 1899.5 950.5 1909 961 1916 965.5 1923 970 1930 970L1930 970Q1945 970 1958.5 959.5 1972 949 1982.5 931.5 1993 914 1999 892.5 2005 871 2005 848L2005 848Q2005 785 1960 740L1960 740Q1915 695 1853 695ZM2202 1548L2202 1548Q2202 1754 2136.5 1900 2071 2046 1937 2149L1937 2149Q1870 2200 1791 2238.5 1712 2277 1618 2303L1618 2303Q1524 2329 1431 2341.5 1338 2354 1243 2354L1243 2354Q1061 2354 877 2302L877 2302Q783 2276 703 2236.5 623 2197 556 2145L556 2145Q424 2041 361 1894.5 298 1748 298 1545L298 1545Q298 1309 391 1109L391 1109Q372 1083 356 1051.5 340 1020 328 986.5 316 953 309.5 918.5 303 884 303 851L303 851Q303 716 392 632L392 632Q480 548 593 548L593 548Q679 548 775 602L775 602Q832 633 897 633L897 633 912 633Q1073 578 1250 578L1250 578Q1331 578 1409 589.5 1487 601 1562 625L1562 625 1580 626Q1609 628 1639 619 1669 610 1700 593L1700 593Q1798 540 1882 540L1882 540Q1937 540 1989.5 562.5 2042 585 2083.5 625 2125 665 2149.5 720 2174 775 2172 840L2172 840Q2170 903 2151.5 963 2133 1023 2095 1080L2095 1080Q2202 1293 2202 1548Z"/>
</svg>