<svg xmlns="http://www.w3.org/2000/svg"
    viewBox="0 0 2600 2850">
  <!--
Digitized data copyright © 2011, Google Corporation.
Android is a trademark of Google and may be registered in certain jurisdictions.
Licensed under the Apache License, Version 2.0
http://www.apache.org/licenses/LICENSE-2.0
  -->
<path d="M1964 1002L1964 1002Q1964 1040 1961 1076 1958 1112 1953 1147L1953 1147Q1948 1181 1941 1213.5 1934 1246 1924 1278L1924 1278Q1915 1310 1894.5 1365 1874 1420 1841 1500L1841 1500Q1806 1585 1778 1652.5 1750 1720 1732 1773L1732 1773Q1713 1826 1694.5 1892 1676 1958 1659 2039L1659 2039Q1608 2270 1450 2416L1450 2416Q1292 2560 1083 2560L1083 2560Q998 2560 927.5 2537 857 2514 796 2474L796 2474Q766 2454 738 2429 710 2404 682 2372L682 2372Q626 2308 617 2277L617 2277Q614 2270 612 2263 610 2256 610 2246L610 2246Q610 2219 628.5 2198.5 647 2178 677 2178L677 2178Q721 2178 740 2216L740 2216Q740 2218 749.5 2234.5 759 2251 778 2274 797 2297 825.5 2323 854 2349 892 2371.5 930 2394 978 2408.5 1026 2423 1084 2423L1084 2423Q1245 2423 1365 2307L1365 2307Q1486 2191 1525 2010L1525 2010Q1539 1941 1554.5 1881 1570 1821 1587 1770L1587 1770Q1604 1719 1631.5 1650 1659 1581 1695 1491L1695 1491 1734 1393Q1777 1286 1801.5 1189 1826 1092 1826 1000L1826 1000Q1826 933 1810.5 872 1795 811 1766 757L1766 757Q1706 648 1599 584L1599 584Q1492 521 1370 521L1370 521 1332 521Q1153 521 1017 601L1017 601Q949 640 895.5 698 842 756 799.5 830.5 757 905 725.5 994 694 1083 671 1184L671 1184Q666 1208 647.5 1223 629 1238 606 1238L606 1238Q576 1238 556 1218.5 536 1199 536 1171L536 1171 537 1156Q537 1145 547 1108.5 557 1072 577 1011L577 1011Q617 887 665.5 791 714 695 771 632L771 632Q852 544 926 497L926 497Q1003 448 1104.5 415.5 1206 383 1338 383L1338 383 1379 383Q1450 383 1519.5 403 1589 423 1659 461L1659 461Q1729 500 1785 553 1841 606 1881 673.5 1921 741 1942.5 823 1964 905 1964 1002ZM835 1889L835 1889Q835 1819 846.5 1768 858 1717 879 1683L879 1683Q948 1575 948 1483L948 1483Q948 1461 944 1440.5 940 1420 930 1400L930 1400Q896 1331 887 1300L887 1300Q883 1284 881 1267 879 1250 879 1230L879 1230Q879 1117 955 989L955 989Q1032 858 1130 796.5 1228 735 1336 735L1336 735Q1406 735 1463 761 1520 787 1561 836.5 1602 886 1624.5 958.5 1647 1031 1647 1123L1647 1123Q1647 1159 1613 1159L1613 1159Q1576 1159 1573 1123L1573 1123Q1564 1026 1496 950L1496 950Q1429 874 1349 874L1349 874Q1249 874 1176 955L1176 955Q1104 1035 1104 1138L1104 1138Q1104 1196 1142 1218L1142 1218 1184 1237Q1212 1249 1254 1290L1254 1290Q1275 1311 1288 1327.5 1301 1344 1308 1358 1315 1372 1317.5 1385 1320 1398 1320 1412L1320 1412Q1320 1429 1309.5 1445 1299 1461 1281 1461L1281 1461Q1263 1461 1251 1439L1251 1439 1231 1402Q1198 1367 1162 1367L1162 1367Q1120 1367 1120 1400L1120 1400 1126 1423Q1149 1490 1149 1524L1149 1524Q1149 1601 1094 1677L1094 1677Q1062 1722 1040.5 1767 1019 1812 1019 1866L1019 1866Q1019 2002 1142 2002L1142 2002Q1159 2002 1178 1999 1197 1996 1217 1991L1217 1991Q1238 1978 1251 1968 1264 1958 1277 1958L1277 1958Q1295 1958 1308 1973 1321 1988 1321 2008L1321 2008Q1321 2046 1235 2099L1235 2099Q1149 2151 1057 2151L1057 2151Q954 2151 894.5 2085.5 835 2020 835 1889Z"/>
</svg>