<svg xmlns="http://www.w3.org/2000/svg"
    viewBox="0 0 2600 2850">
  <!--
Digitized data copyright © 2011, Google Corporation.
Android is a trademark of Google and may be registered in certain jurisdictions.
Licensed under the Apache License, Version 2.0
http://www.apache.org/licenses/LICENSE-2.0
  -->
<path d="M340 1386L340 1386 340 1455 343 1821Q380 1821 404.5 1819.5 429 1818 443.5 1814 458 1810 463.5 1802.5 469 1795 469 1782L469 1782 463 1451Q462 1364 466.5 1289 471 1214 474 1148L474 1148 476 1118Q477 1091 459 1084L459 1084Q451 1081 437 1080 423 1079 403 1077L403 1077Q383 1076 370 1075.5 357 1075 350 1075L350 1075Q345 1118 342.5 1195.5 340 1273 340 1386ZM1247 2053L1247 2053 1264 2054Q1286 2056 1308.5 2051.5 1331 2047 1348.5 2038.5 1366 2030 1377 2018.5 1388 2007 1388 1995L1388 1995Q1388 1975 1362 1962L1362 1962Q1335 1949 1335 1930L1335 1930Q1335 1914 1350 1914L1350 1914Q1367 1914 1384 1919.5 1401 1925 1422 1925L1422 1925Q1446 1925 1468.5 1918.5 1491 1912 1508 1900 1525 1888 1535 1871.5 1545 1855 1545 1836L1545 1836Q1545 1814 1533 1804 1521 1794 1507 1787 1493 1780 1481 1772 1469 1764 1469 1746L1469 1746Q1469 1723 1506 1723L1506 1723Q1577 1723 1619.5 1690 1662 1657 1662 1603L1662 1603Q1662 1524 1582 1505L1582 1505Q1540 1496 1540 1471L1540 1471Q1540 1462 1551.5 1455.5 1563 1449 1583.5 1443.5 1604 1438 1631 1435 1658 1432 1689 1430L1689 1430 2157 1411Q2189 1410 2212.5 1401 2236 1392 2251 1378 2266 1364 2273.5 1346.5 2281 1329 2281 1311L2281 1311Q2281 1247 2234 1224L2234 1224Q2185 1201 2057 1198L2057 1198 1431 1184Q1382 1183 1339 1180.5 1296 1178 1255 1170L1255 1170Q1176 1157 1176 1133L1176 1133Q1176 1115 1194 1110L1194 1110Q1213 1104 1302 1102L1302 1102Q1321 1102 1343 1099.5 1365 1097 1387.5 1092.5 1410 1088 1431 1082 1452 1076 1470 1068L1470 1068Q1507 1052 1531.5 1031 1556 1010 1556 968L1556 968Q1556 927 1531.5 899 1507 871 1465 871L1465 871Q1447 871 1428 876 1409 881 1389.5 887 1370 893 1351.5 899 1333 905 1317 906L1317 906 1206 916Q1155 921 1113 930.5 1071 940 1035 957.5 999 975 967 1001.5 935 1028 904 1065L904 1065Q866 1110 838 1140 810 1170 789 1187L789 1187Q748 1220 703 1242 658 1264 606 1259L606 1259 574 1256 569 1441Q566 1525 568.5 1582 571 1639 573 1668L573 1668Q630 1676 671.5 1702 713 1728 756 1782L756 1782Q853 1903 975.5 1971.5 1098 2040 1247 2053ZM1271 2183L1271 2183Q1236 2183 1192.5 2177 1149 2171 1097 2157L1097 2157Q994 2130 894 2063.5 794 1997 692 1891L692 1891Q681 1881 671.5 1871.5 662 1862 650.5 1854 639 1846 624 1839.5 609 1833 587 1828L587 1828Q587 1877 566 1895L566 1895Q546 1912 485 1919L485 1919Q456 1922 424 1923 392 1924 358 1924L358 1924Q358 1999 336 2021L336 2021Q312 2045 236 2051L236 2051Q161 2057 117 2057L117 2057 86 2057 86 872 123 871 201 871Q335 871 357 893L357 893Q372 908 372 961L372 961Q384 961 403.5 963 423 965 451 968L451 968Q479 971 502.5 976 526 981 547 986L547 986Q592 997 589 1040L589 1040 585 1099Q706 1077 774 998L774 998Q822 941 868 901.5 914 862 957 841L957 841Q1001 819 1057.5 806 1114 793 1184 780L1184 780 1287 763 1355 749Q1410 728 1473 728L1473 728Q1527 728 1570.5 742.5 1614 757 1644.5 784.5 1675 812 1691.5 851 1708 890 1708 939L1708 939Q1708 963 1703 982 1698 1001 1691 1015.5 1684 1030 1676.5 1040.5 1669 1051 1663 1059L1663 1059 1811 1058Q1951 1056 2046.5 1061.5 2142 1067 2198 1075L2198 1075Q2309 1090 2361.5 1156.5 2414 1223 2414 1326L2414 1326Q2414 1415 2350 1481L2350 1481Q2328 1503 2301 1518.5 2274 1534 2237 1544.5 2200 1555 2151.5 1561 2103 1567 2038 1570L2038 1570Q1911 1576 1847 1579.5 1783 1583 1779 1585L1779 1585 1782 1612Q1782 1644 1769.5 1673.5 1757 1703 1739 1726.5 1721 1750 1701 1766 1681 1782 1666 1786L1666 1786 1671 1806 1675 1847Q1675 1892 1659 1914L1659 1914Q1641 1940 1623.5 1959.5 1606 1979 1587.5 1992 1569 2005 1547.5 2012.5 1526 2020 1500 2023L1500 2023Q1480 2105 1425 2144 1370 2183 1271 2183Z"/>
</svg>