<svg xmlns="http://www.w3.org/2000/svg"
    viewBox="0 0 2600 2850">
  <!--
Digitized data copyright © 2011, Google Corporation.
Android is a trademark of Google and may be registered in certain jurisdictions.
Licensed under the Apache License, Version 2.0
http://www.apache.org/licenses/LICENSE-2.0
  -->
<path d="M1751 1197L1751 1197 1720 1171Q1717 1177 1714 1189.5 1711 1202 1709 1216 1707 1230 1704.5 1243.5 1702 1257 1701 1264L1701 1264 1702 1270 1721 1275Q1726 1269 1733 1249.5 1740 1230 1751 1197ZM2102 1294L2102 1294Q2102 1229 2071 1194.5 2040 1160 1985 1160L1985 1160Q1898 1160 1870 1256L1870 1256Q1868 1264 1860 1289 1852 1314 1835 1340.5 1818 1367 1790.5 1387.5 1763 1408 1721 1408L1721 1408Q1686 1408 1657.5 1396.5 1629 1385 1609 1365 1589 1345 1578.5 1317 1568 1289 1568 1256L1568 1256Q1568 1214 1578.5 1172.5 1589 1131 1609 1098.5 1629 1066 1658 1046.5 1687 1027 1724 1029L1724 1029Q1761 1031 1809 1074L1809 1074Q1853 1115 1903 1115L1903 1115Q1946 1115 1981 1080L1981 1080Q2015 1044 2017 1003L2017 1003Q2018 971 1992.5 932.5 1967 894 1923.5 860.5 1880 827 1823.5 805 1767 783 1706 784L1706 784Q1615 786 1546 834 1477 882 1437 967L1437 967 1424 1019Q1419 1040 1413.5 1055 1408 1070 1399 1080.5 1390 1091 1377 1098 1364 1105 1344 1110L1344 1110Q1226 1141 1122 1178 1018 1215 926 1260L926 1260Q914 1266 901.5 1274 889 1282 877 1288.5 865 1295 854.5 1300 844 1305 835 1305L835 1305Q816 1305 816 1293L816 1293Q816 1276 853 1240L853 1240Q781 1165 724.5 1060 668 955 630 840L630 840Q597 742 513 742L513 742Q461 742 429.5 773.5 398 805 398 862L398 862Q398 893 408 935 418 977 439 1030L439 1030Q460 1083 488 1135.5 516 1188 550 1242L550 1242Q584 1296 618.5 1341 653 1386 688 1424L688 1424Q709 1465 739 1509.5 769 1554 806.5 1598 844 1642 889 1683.5 934 1725 985 1761L985 1761Q1042 1801 1070.5 1839 1099 1877 1102 1913L1102 1913 1107 1998 1336 2004Q1422 2007 1491.5 2004 1561 2001 1615 1998L1615 1998 1615 1888Q1615 1862 1641 1829.5 1667 1797 1713 1769L1713 1769 1775 1740Q1825 1717 1868 1683 1911 1649 1950 1608L1950 1608Q2102 1448 2102 1294ZM965 2225L965 2225Q966 2225 989 2227 1012 2229 1054 2231.5 1096 2234 1155.5 2235.5 1215 2237 1289 2236L1289 2236 1717 2231Q1717 2194 1715.5 2169.5 1714 2145 1710 2131 1706 2117 1698.5 2111.5 1691 2106 1678 2106L1678 2106 1401 2110Q1301 2112 1213 2107 1125 2102 1045 2099L1045 2099 1010 2097Q991 2096 982.5 2106 974 2116 971 2133 968 2150 968 2174 968 2198 965 2225ZM754 621L754 621 754 646Q754 790 794 933 834 1076 907 1197L907 1197Q1018 1125 1114 1092L1114 1092Q1018 902 994 586L994 586Q988 516 954.5 484 921 452 873 452L873 452Q816 452 785 496 754 540 754 621ZM1121 810L1121 810Q1121 950 1180 1069L1180 1069 1282 1043Q1307 1032 1323 1016 1339 1000 1347.5 980.5 1356 961 1358.5 938.5 1361 916 1360 892L1360 892 1356 798 1361 743Q1365 728 1383.5 683 1402 638 1437 563L1437 563Q1447 540 1453 520 1459 500 1459 482L1459 482Q1459 459 1450 438 1441 417 1425.5 401.5 1410 386 1390 377 1370 368 1348 368L1348 368Q1281 368 1226 452L1226 452Q1171 535 1146 627 1121 719 1121 810ZM2137 1077L2137 1077Q2234 1150 2234 1294L2234 1294Q2234 1395 2185 1502L2185 1502Q2137 1606 2035 1710L2035 1710Q1983 1763 1929 1801 1875 1839 1818 1865L1818 1865Q1762 1891 1747 1906L1747 1906 1747 1987Q1801 1993 1812 2056L1812 2056Q1821 2121 1821 2216L1821 2216Q1866 2216 1890.5 2224 1915 2232 1929 2252L1929 2252Q1942 2271 1948 2338L1948 2338Q1951 2371 1953 2399.5 1955 2428 1955 2454L1955 2454 1955 2490 761 2490 760 2387Q759 2356 760.5 2330.5 762 2305 764 2283L764 2283Q766 2262 768.5 2247 771 2232 776 2225L776 2225Q786 2209 850 2203L850 2203Q857 2115 868 2059L868 2059Q877 2004 896 1993L896 1993Q906 1988 915 1985.5 924 1983 933 1984L933 1984 973 1987 970 1926 955 1909 922 1877Q874 1851 826 1809 778 1767 727 1710L727 1710Q626 1597 579 1500L579 1500Q514 1426 459 1344.5 404 1263 357 1170L357 1170Q266 987 266 862L266 862Q266 750 337 680L337 680Q410 610 515 610L515 610Q571 610 621 635L621 635Q621 563 638.5 504.5 656 446 689 404.5 722 363 768.5 341 815 319 873 319L873 319Q939 319 993.5 349 1048 379 1082 434L1082 434Q1187 237 1346 237L1346 237Q1399 237 1442 255.5 1485 274 1520 309L1520 309Q1591 381 1591 482L1591 482Q1591 508 1585.5 533 1580 558 1570.5 583.5 1561 609 1548.5 636 1536 663 1522 694L1522 694Q1611 651 1708 651L1708 651Q1888 651 2020 765L2020 765Q2149 878 2149 1004L2149 1004Q2149 1043 2137 1077Z"/>
</svg>