<svg xmlns="http://www.w3.org/2000/svg"
    viewBox="0 0 2600 2600">
  <!--
Digitized data copyright © 2011, Google Corporation.
Android is a trademark of Google and may be registered in certain jurisdictions.
Licensed under the Apache License, Version 2.0
http://www.apache.org/licenses/LICENSE-2.0
  -->
<path d="M1578 1682L1578 1682Q1607 1682 1628 1706 1649 1730 1649 1764L1649 1764Q1649 1798 1628 1822 1607 1846 1578 1846L1578 1846Q1549 1846 1529 1822 1509 1798 1509 1764L1509 1764Q1509 1730 1529 1706 1549 1682 1578 1682ZM1924 1716L1924 1716Q1924 1750 1903.5 1774 1883 1798 1854 1798L1854 1798Q1824 1798 1803.5 1774 1783 1750 1783 1716L1783 1716Q1783 1683 1804 1659 1825 1635 1854 1635L1854 1635Q1868 1635 1881 1642 1894 1649 1903.5 1660.5 1913 1672 1918.5 1686.5 1924 1701 1924 1716ZM921 1682L921 1682Q950 1682 970.5 1706 991 1730 991 1764L991 1764Q991 1798 970.5 1822 950 1846 921 1846L921 1846Q892 1846 871.5 1822 851 1798 851 1764L851 1764Q851 1730 871.5 1706 892 1682 921 1682ZM716 1716L716 1716Q716 1750 696 1774 676 1798 646 1798L646 1798Q617 1798 596.5 1774 576 1750 576 1716L576 1716Q576 1683 596.5 1659 617 1635 646 1635L646 1635Q675 1635 695.5 1658.5 716 1682 716 1716ZM1396 1675L1396 1675Q1396 1740 1355 1792L1355 1792Q1314 1843 1252 1843L1252 1843Q1223 1843 1196.5 1830 1170 1817 1150.5 1794.5 1131 1772 1119.5 1741 1108 1710 1108 1675L1108 1675Q1108 1609 1149 1557L1149 1557Q1193 1505 1252 1505L1252 1505Q1303 1505 1349 1553L1349 1553Q1396 1602 1396 1675ZM2087 1766L2087 1766 2088 1665Q2056 1645 2035.5 1608 2015 1571 2015 1523L2015 1523Q2015 1473 2037.5 1434 2060 1395 2096 1378L2096 1378 2103 1114 1673 1518Q1653 1533 1632 1533L1632 1533Q1601 1533 1584 1507L1584 1507 1253 1011 920 1507Q902 1534 869 1534L869 1534Q860 1534 850 1530 840 1526 831 1518L831 1518 401 1114 408 1381Q442 1398 463.5 1436.5 485 1475 485 1523L485 1523Q485 1570 465.5 1606.5 446 1643 416 1663L416 1663 419 1764Q420 1816 535 1872L535 1872Q593 1900 668.5 1922 744 1944 838 1961L838 1961Q1025 1994 1252 1994L1252 1994Q1474 1994 1662 1961L1662 1961Q1853 1928 1969 1873L1969 1873Q2086 1818 2087 1766ZM2225 976L2225 976 2203 1768Q2199 1920 1928 2017L1928 2017Q1661 2111 1252 2111L1252 2111Q1115 2111 992 2100 869 2089 757 2065L757 2065Q534 2017 419 1941 304 1865 301 1766L301 1766 279 973Q279 951 296 933.5 313 916 338 916L338 916Q363 916 379 932L379 932 642 1178 735 888Q740 873 754 860 768 847 786 847L786 847Q826 847 843 877L843 877 1003 1171 1204 873Q1221 847 1253 847L1253 847Q1286 847 1303 873L1303 873 1498 1167 1657 877Q1673 847 1708 847L1708 847Q1751 847 1765 888L1765 888 1858 1182 2125 932Q2141 916 2165 916L2165 916Q2191 916 2208.5 934 2226 952 2225 976ZM2199 721L2199 721Q2231 721 2252 700 2273 679 2273 649L2273 649Q2273 617 2252 596 2231 575 2199 575L2199 575Q2169 575 2147.5 596 2126 617 2126 649L2126 649Q2126 679 2147.5 700 2169 721 2199 721ZM2199 505L2199 505Q2257 505 2300 548L2300 548Q2342 589 2342 649L2342 649Q2342 707 2301 749L2301 749Q2260 791 2199 791L2199 791Q2170 791 2144 780 2118 769 2098.5 749.5 2079 730 2067.5 704 2056 678 2056 649L2056 649Q2056 618 2068 591.5 2080 565 2100 545.5 2120 526 2146 515.5 2172 505 2199 505ZM1738 769L1738 769Q1713 769 1691 759.5 1669 750 1652.5 734 1636 718 1626.5 696.5 1617 675 1617 650L1617 650Q1617 624 1626.5 601.5 1636 579 1652 562.5 1668 546 1690 537 1712 528 1736 528L1736 528Q1761 528 1783 537.5 1805 547 1821.5 563.5 1838 580 1847.5 602 1857 624 1857 649L1857 649Q1857 674 1847.5 695.5 1838 717 1822 733.5 1806 750 1784 759.5 1762 769 1738 769ZM762 769L762 769Q738 769 716 759.5 694 750 677.5 734 661 718 651.5 696 642 674 642 649L642 649Q642 624 651.5 602 661 580 677.5 563.5 694 547 716 537.5 738 528 762 528L762 528Q787 528 809 537.5 831 547 847.5 563.5 864 580 873.5 602 883 624 883 649L883 649Q883 674 873.5 695.5 864 717 847.5 733.5 831 750 809 759.5 787 769 762 769ZM227 649L227 649Q227 679 248.5 700 270 721 300 721L300 721Q332 721 353 700 374 679 374 649L374 649Q374 617 353 596 332 575 300 575L300 575Q270 575 248.5 596 227 617 227 649ZM444 649L444 649Q444 705 403 749L403 749Q361 791 300 791L300 791Q271 791 245 780 219 769 199.5 749.5 180 730 169 704 158 678 158 649L158 649Q158 618 170 591.5 182 565 201.5 545.5 221 526 247 515.5 273 505 300 505L300 505Q358 505 401 548L401 548Q444 588 444 649ZM1249 449L1249 449Q1209 449 1181.5 477.5 1154 506 1154 546L1154 546Q1154 587 1181.5 615 1209 643 1249 643L1249 643Q1291 643 1318.5 615 1346 587 1346 546L1346 546Q1346 526 1338.5 508.5 1331 491 1318 477.5 1305 464 1287.5 456.5 1270 449 1249 449ZM1249 721L1249 721Q1175 721 1125 671L1125 671Q1074 620 1074 546L1074 546Q1074 473 1125 422L1125 422Q1177 370 1249 370L1249 370Q1322 370 1374 422L1374 422Q1426 474 1426 546L1426 546Q1426 619 1374 671L1374 671Q1324 721 1249 721Z"/>
</svg>