<svg xmlns="http://www.w3.org/2000/svg"
    viewBox="0 0 2600 2850">
  <!--
Digitized data copyright © 2011, Google Corporation.
Android is a trademark of Google and may be registered in certain jurisdictions.
Licensed under the Apache License, Version 2.0
http://www.apache.org/licenses/LICENSE-2.0
  -->
<path d="M2329 2114L2329 2114 2346 2114Q2378 2192 2378 2221L2378 2221Q2378 2245 2360.5 2261.5 2343 2278 2290 2295L2290 2295Q2218 2319 2169 2362L2169 2362Q2076 2443 1954 2451L1954 2451 1907 2454Q1845 2458 1800.5 2473 1756 2488 1739 2499L1739 2499Q1651 2542 1605 2556L1605 2556Q1560 2571 1509 2571L1509 2571Q1480 2571 1429 2562 1378 2553 1304 2547L1304 2547 1253 2543 1204 2547Q1129 2553 1076.5 2562 1024 2571 991 2571L991 2571Q940 2571 894 2556L894 2556Q870 2549 837.5 2534.5 805 2520 761 2499L761 2499Q725 2481 687.5 2469 650 2457 594 2454L594 2454 546 2451 500 2444Q449 2436 409 2415 369 2394 337 2368L337 2368Q274 2315 215 2296L215 2296Q185 2287 166.5 2280 148 2273 140 2265L140 2265Q123 2250 122 2224L122 2224Q121 2210 129.5 2183.5 138 2157 154 2114L154 2114Q205 2116 241 2123.5 277 2131 299 2142L299 2142Q320 2153 339 2167.5 358 2182 374 2202L374 2202Q395 2228 418 2247.5 441 2267 469 2279.5 497 2292 531 2297.5 565 2303 608 2300L608 2300 678 2296Q713 2295 744 2312 775 2329 820 2369L820 2369Q902 2443 1015 2443L1015 2443Q1079 2443 1141 2418L1141 2418Q1205 2394 1249 2394L1249 2394Q1273 2394 1301 2399.5 1329 2405 1362 2418L1362 2418Q1394 2430 1424.5 2436.5 1455 2443 1485 2443L1485 2443Q1512 2443 1537 2439.5 1562 2436 1586.5 2426.5 1611 2417 1636 2401.5 1661 2386 1687 2362L1687 2362Q1702 2348 1720 2335.5 1738 2323 1756 2314 1774 2305 1791.5 2300 1809 2295 1823 2296L1823 2296 1892 2300Q1928 2302 1958.5 2298.5 1989 2295 2016 2284.5 2043 2274 2067 2256.5 2091 2239 2114 2212L2114 2212Q2152 2167 2207.5 2140.5 2263 2114 2329 2114ZM563 512L563 512Q563 485 584 469.5 605 454 635 444 665 434 697.5 427 730 420 753 409L753 409Q788 391 823.5 376 859 361 900 361L900 361Q908 361 917 363 926 365 939 367L939 367Q965 374 965 385L965 385 961 399 957 421Q958 449 977 474.5 996 500 1032 518.5 1068 537 1122.5 548 1177 559 1251 558L1251 558Q1394 556 1468.5 517 1543 478 1543 419L1543 419Q1543 403 1539 395.5 1535 388 1535 384L1535 384Q1535 373 1560 367L1560 367Q1587 361 1600 361L1600 361Q1642 361 1677 376.5 1712 392 1747 409L1747 409Q1771 420 1803.5 427.5 1836 435 1865 445 1894 455 1915 470 1936 485 1937 512L1937 512Q1939 558 1921 607 1903 656 1873.5 696.5 1844 737 1808 762.5 1772 788 1738 787L1738 787 1716 790Q1710 810 1701.5 838.5 1693 867 1683 906L1683 906Q1664 982 1664 1016L1664 1016Q1664 1077 1672 1120L1672 1120Q1640 1143 1595.5 1163 1551 1183 1493 1197L1493 1197Q1380 1224 1248 1224L1248 1224Q1186 1224 1126.5 1217.5 1067 1211 1013 1198 959 1185 912 1165.5 865 1146 828 1121L828 1121Q832 1100 834 1073.5 836 1047 836 1016L836 1016Q836 995 829 961.5 822 928 813 893.5 804 859 795.5 830 787 801 784 790L784 790Q732 790 678 751L678 751Q621 709 592 643.5 563 578 563 512ZM200 2005L200 2005Q238 1924 275 1860 312 1796 348 1748L348 1748Q384 1698 435 1645.5 486 1593 552 1536L552 1536 652 1448Q697 1409 732 1356.5 767 1304 794 1238L794 1238Q910 1305 1099 1332L1099 1332Q996 1493 827 1523L827 1523 825 1552Q822 1623 859 1645L859 1645 887 1662Q911 1676 930 1691 949 1706 961 1722L961 1722Q988 1760 1066 1772L1066 1772Q1070 1768 1092.5 1746.5 1115 1725 1143.5 1683.5 1172 1642 1201.5 1579.5 1231 1517 1251 1430L1251 1430Q1301 1640 1434 1772L1434 1772Q1513 1760 1541 1722L1541 1722Q1552 1706 1570 1691 1588 1676 1613 1662L1613 1662Q1636 1649 1649 1635.5 1662 1622 1668 1608.5 1674 1595 1675 1580.5 1676 1566 1675 1552L1675 1552 1673 1523Q1497 1493 1401 1331L1401 1331Q1585 1309 1706 1236L1706 1236Q1733 1303 1769 1355 1805 1407 1851 1448L1851 1448Q1950 1535 2011.5 1594.5 2073 1654 2102 1686L2102 1686Q2158 1752 2208 1832.5 2258 1913 2300 2005L2300 2005Q2223 2011 2151 2046L2151 2046Q2082 2080 2056 2113L2056 2113Q2020 2161 1988 2176L1988 2176Q1973 2184 1948.5 2188.5 1924 2193 1891 2191L1891 2191 1823 2187Q1773 2184 1721 2207.5 1669 2231 1602 2290L1602 2290Q1552 2332 1487 2332L1487 2332Q1467 2332 1440 2325.5 1413 2319 1378 2307L1378 2307Q1307 2284 1249 2284L1249 2284Q1191 2284 1122 2307L1122 2307Q1052 2332 1011 2332L1011 2332Q948 2332 899 2290L899 2290Q868 2264 845 2247.5 822 2231 806 2223L806 2223Q774 2205 742 2195 710 2185 678 2187L678 2187 609 2191Q575 2193 551.5 2189 528 2185 511.5 2176.5 495 2168 484 2158 473 2148 464 2138L464 2138Q433 2103 403 2079.5 373 2056 344 2042L344 2042Q315 2028 279.5 2018.5 244 2009 200 2005Z"/>
</svg>