<svg xmlns="http://www.w3.org/2000/svg"
    viewBox="0 0 2600 2600">
  <!--
Digitized data copyright © 2011, Google Corporation.
Android is a trademark of Google and may be registered in certain jurisdictions.
Licensed under the Apache License, Version 2.0
http://www.apache.org/licenses/LICENSE-2.0
  -->
<path d="M2339 2181L2339 2181Q2339 2243 2328 2279 2317 2315 2294 2336L2294 2336Q2282 2347 2262.5 2357 2243 2367 2217.5 2374.5 2192 2382 2162.5 2387 2133 2392 2100 2392L2100 2392Q2002 2392 1896 2351L1896 2351Q1791 2310 1737 2258L1737 2258Q1710 2232 1689 2190 1668 2148 1651 2091L1651 2091Q1639 2050 1628 2050L1628 2050Q1616 2050 1615 2060 1614 2070 1611 2082 1608 2094 1596.5 2104 1585 2114 1552 2114L1552 2114Q1508 2114 1479.5 2095.5 1451 2077 1451 2048L1451 2048Q1451 2011 1445.5 1964 1440 1917 1429 1860L1429 1860Q1418 1802 1412 1758 1406 1714 1406 1682L1406 1682Q1406 1648 1413 1592 1420 1536 1433 1455L1433 1455Q1441 1408 1444 1363 1447 1318 1447 1273L1447 1273Q1447 1216 1441 1142.5 1435 1069 1421 977L1421 977Q1407 886 1396.5 814 1386 742 1376 687L1376 687Q1363 617 1347 545 1331 473 1328 401L1328 401 1306 544Q1288 661 1272.5 745.5 1257 830 1249 884L1249 884 1217 1085Q1206 1151 1200.5 1201.5 1195 1252 1195 1287L1195 1287Q1195 1335 1203.5 1377.5 1212 1420 1227 1456L1227 1456Q1241 1491 1250.5 1515.5 1260 1540 1265.5 1559 1271 1578 1273.5 1594 1276 1610 1276 1626L1276 1626Q1276 1687 1240 1793L1240 1793Q1222 1849 1212.5 1890.5 1203 1932 1203 1960L1203 1960 1203 2027Q1203 2047 1178 2060 1153 2073 1117 2073L1117 2073Q1083 2073 1068.5 2066 1054 2059 1053 2039L1053 2039Q1051 1988 1046.5 1958.5 1042 1929 1039 1920L1039 1920Q1033 1902 1022 1902L1022 1902Q999 1902 967 1966L967 1966Q935 2028 852 2120L852 2120Q768 2211 668.5 2258.5 569 2306 457 2306L457 2306Q326 2306 245 2256L245 2256Q161 2207 161 2124L161 2124Q161 2061 220 2024L220 2024 351 1942Q404 1909 452.5 1868 501 1827 543 1776L543 1776Q627 1674 669 1552L669 1552Q710 1427 710 1218L710 1218Q710 1069 695.5 924.5 681 780 664 633L664 633Q659 586 652 537.5 645 489 638 441 631 393 626.5 345 622 297 622 250L622 250Q622 189 663 154L663 154Q705 118 808 103L808 103Q861 96 906 92 951 88 991 88L991 88Q1084 88 1167 106L1167 106Q1209 115 1234.5 121 1260 127 1269 132L1269 132Q1288 142 1299 154L1299 154Q1309 166 1317 203L1317 203Q1321 222 1324 236 1327 250 1328 261L1328 261Q1338 174 1353 157L1353 157Q1365 139 1400 125L1400 125Q1417 118 1445.5 111.5 1474 105 1510 100 1546 95 1586.5 91.5 1627 88 1669 88L1669 88Q1720 88 1767.5 92.5 1815 97 1862 105L1862 105Q1956 121 1996.5 155.5 2037 190 2037 244L2037 244Q2037 292 2032.5 341 2028 390 2020 440L2020 440Q2011 496 1998.5 593 1986 690 1971 831L1971 831Q1955 972 1948 1084.5 1941 1197 1941 1282L1941 1282Q1941 1447 1959.5 1577.5 1978 1708 2014 1806.5 2050 1905 2103 1973.5 2156 2042 2224 2084L2224 2084 2261 2102Q2305 2119 2322 2136 2339 2153 2339 2181Z"/>
</svg>