<svg xmlns="http://www.w3.org/2000/svg"
    viewBox="0 0 2600 2850">
  <!--
Digitized data copyright © 2011, Google Corporation.
Android is a trademark of Google and may be registered in certain jurisdictions.
Licensed under the Apache License, Version 2.0
http://www.apache.org/licenses/LICENSE-2.0
  -->
<path d="M1343 2209L1343 2209Q1376 2209 1376 2175L1376 2175Q1376 2159 1365.5 2145.5 1355 2132 1335 2118L1335 2118Q1294 2091 1258 2091L1258 2091Q1217 2091 1178 2121L1178 2121Q1138 2151 1138 2185L1138 2185Q1138 2211 1171 2211L1171 2211Q1193 2211 1213 2191L1213 2191Q1234 2170 1254 2170L1254 2170Q1269 2170 1298 2190L1298 2190Q1328 2209 1343 2209ZM1574 1701L1574 1701 1320 1835Q1320 1868 1332 1895 1344 1922 1365 1940.5 1386 1959 1414.5 1969.5 1443 1980 1476 1980L1476 1980Q1515 1980 1548.5 1968.5 1582 1957 1606.5 1937 1631 1917 1645 1890.5 1659 1864 1659 1833L1659 1833Q1659 1757 1574 1701ZM842 1830L842 1830Q842 1862 856 1889.5 870 1917 894.5 1937 919 1957 952.5 1968.5 986 1980 1024 1980L1024 1980Q1059 1980 1088 1969.5 1117 1959 1138 1940 1159 1921 1170.5 1894 1182 1867 1182 1835L1182 1835 927 1701Q842 1753 842 1830ZM365 1166L365 1166 377 1161Q408 1147 427.5 1138 447 1129 458 1129L458 1129Q475 1129 484 1137 493 1145 493 1153L493 1153Q493 1163 488 1168L488 1168Q481 1175 414 1224L414 1224Q364 1260 354 1332L354 1332Q362 1403 383.5 1462 405 1521 437 1553L437 1553 436 1541Q436 1492 461 1458L461 1458Q474 1440 498.5 1416.5 523 1393 559 1363L559 1363Q611 1320 611 1289L611 1289 607 1272 603 1250Q603 1225 625 1225L625 1225Q635 1225 642.5 1231 650 1237 655 1247 660 1257 663 1268.5 666 1280 666 1292L666 1292Q666 1328 650 1347.5 634 1367 613 1385L613 1385Q507 1475 507 1545L507 1545Q507 1630 678 1666L678 1666 695 1642Q713 1616 739.5 1595.5 766 1575 797 1560.5 828 1546 861.5 1538 895 1530 927 1530L927 1530Q897 1510 882.5 1476.5 868 1443 868 1408L868 1408Q868 1332 912 1332L912 1332Q948 1332 946 1367L946 1367 945 1395Q944 1416 949 1436 954 1456 964.5 1471.5 975 1487 990 1497.5 1005 1508 1023 1511L1023 1511 1060 1517Q1085 1511 1107 1502.5 1129 1494 1147 1480 1165 1466 1178 1444.5 1191 1423 1197 1391L1197 1391Q1189 1367 1175.5 1348.5 1162 1330 1145 1314L1145 1314Q1124 1301 1124 1288L1124 1288Q1124 1273 1142 1273L1142 1273Q1152 1273 1161 1277 1170 1281 1178 1286 1186 1291 1191.5 1296 1197 1301 1199 1302L1199 1302 1202 1280 1202 1206 1186 1175Q1178 1160 1162.5 1146.5 1147 1133 1126.5 1122.5 1106 1112 1081.5 1105.5 1057 1099 1032 1099L1032 1099Q1003 1099 949 1127L949 1127Q894 1155 857 1155L857 1155Q801 1155 768 1120L768 1120Q757 1108 744.5 1095.5 732 1083 712 1083L712 1083 656 1094Q633 1094 633 1071L633 1071Q633 1057 640 1047.5 647 1038 658 1032 669 1026 682.5 1023.5 696 1021 710 1021L710 1021Q750 1021 796 1049L796 1049Q818 1062 836 1069 854 1076 868 1076L868 1076Q897 1076 953 1054L953 1054Q1007 1032 1041 1032L1041 1032Q1086 1032 1130 1045 1174 1058 1202 1084L1202 1084 1202 971Q1192 859 1097 835L1097 835Q1086 833 1071.5 832 1057 831 1057 823L1057 823Q1057 812 1070 805 1083 798 1098 798L1098 798Q1162 798 1202 835L1202 835 1202 752Q1130 680 1061 675L1061 675Q1041 679 1024.5 682 1008 685 993.5 694 979 703 965.5 721.5 952 740 938 776L938 776 933 797Q927 818 919.5 829.5 912 841 900 841L900 841Q890 841 883.5 831.5 877 822 877 807L877 807Q877 743 919 682L919 682Q736 714 589 827L589 827Q673 827 708 853L708 853Q744 880 744 891L744 891Q744 908 725 908L725 908 711 904Q667 883 639 883L639 883Q615 883 588.5 889.5 562 896 536.5 909 511 922 488.5 941.5 466 961 450 987L450 987Q429 1019 420 1025L420 1025Q402 1060 388 1094.5 374 1129 365 1166ZM1912 827L1912 827Q1765 714 1582 682L1582 682Q1603 714 1613 745.5 1623 777 1623 807L1623 807Q1623 841 1600 841L1600 841Q1574 841 1569 797L1569 797Q1568 791 1564.5 780.5 1561 770 1555.5 759 1550 748 1544 737 1538 726 1532 718L1532 718Q1527 710 1521 703.5 1515 697 1507 694L1507 694Q1501 690 1484.5 685 1468 680 1440 675L1440 675Q1371 680 1299 752L1299 752 1299 835Q1339 798 1403 798L1403 798Q1419 798 1431 805 1443 812 1443 823L1443 823Q1443 831 1429 831L1429 831Q1370 835 1334.5 871.5 1299 908 1299 971L1299 971 1299 1084Q1327 1059 1370.5 1045.5 1414 1032 1459 1032L1459 1032Q1492 1032 1548 1054L1548 1054Q1602 1076 1633 1076L1633 1076Q1647 1076 1665.5 1069 1684 1062 1707 1049L1707 1049Q1755 1021 1790 1021L1790 1021Q1868 1021 1868 1071L1868 1071Q1868 1094 1845 1094L1845 1094 1789 1083Q1769 1083 1756.5 1095.5 1744 1108 1733 1120L1733 1120Q1700 1155 1643 1155L1643 1155Q1625 1155 1603 1148 1581 1141 1554 1127L1554 1127Q1499 1099 1468 1099L1468 1099Q1442 1099 1418 1105 1394 1111 1373.5 1121 1353 1131 1338.5 1145 1324 1159 1317 1175L1317 1175 1299 1206 1299 1280 1302 1302Q1331 1273 1359 1273L1359 1273Q1376 1273 1376 1288L1376 1288Q1376 1300 1357 1314L1357 1314Q1334 1329 1303 1392L1303 1392Q1310 1424 1323 1445.5 1336 1467 1354 1481 1372 1495 1394 1503.5 1416 1512 1442 1517L1442 1517 1462 1512Q1511 1509 1533 1474 1555 1439 1555 1389L1555 1389 1555 1367Q1555 1332 1588 1332L1588 1332Q1633 1332 1633 1407L1633 1407Q1633 1447 1618 1474 1603 1501 1574 1530L1574 1530Q1601 1530 1631 1536.5 1661 1543 1689.5 1554.5 1718 1566 1743.5 1582.5 1769 1599 1788 1619L1788 1619 1823 1666Q1994 1629 1994 1545L1994 1545Q1994 1475 1889 1385L1889 1385Q1866 1366 1851 1347 1836 1328 1836 1292L1836 1292Q1836 1280 1838.5 1268.5 1841 1257 1846.5 1247 1852 1237 1859.5 1231 1867 1225 1877 1225L1877 1225Q1897 1225 1897 1250L1897 1250 1893 1272 1889 1289 1896 1309Q1914 1340 1942.5 1363.5 1971 1387 1998 1411.5 2025 1436 2044.5 1466 2064 1496 2064 1541L2064 1541 2064 1553Q2085 1529 2099 1503 2113 1477 2122 1449 2131 1421 2136.5 1392 2142 1363 2146 1332L2146 1332Q2146 1264 2086 1222L2086 1222Q2066 1209 2049.5 1197 2033 1185 2021.5 1176 2010 1167 2006 1161 2002 1155 2008 1153L2008 1153Q2008 1145 2017.5 1137 2027 1129 2043 1129L2043 1129Q2054 1129 2067.5 1132.5 2081 1136 2094 1141.5 2107 1147 2118 1153.5 2129 1160 2135 1166L2135 1166Q2122 1098 2082 1025L2082 1025Q2070 1016 2038 967L2038 967Q2016 932 1963 908L1963 908Q1908 883 1862 883L1862 883Q1831 883 1803 898L1803 898Q1784 908 1775 908L1775 908Q1758 908 1758 891L1758 891Q1758 879 1792 853L1792 853Q1825 827 1912 827ZM2245 1265L2245 1265Q2245 1456 2202 1579L2202 1579Q2180 1642 2146.5 1697.5 2113 1753 2064 1804L2064 1804Q1967 1904 1848 1938L1848 1938Q1823 1945 1797.5 1966 1772 1987 1744 2021L1744 2021Q1687 2092 1659 2110L1659 2110Q1646 2119 1630.5 2125 1615 2131 1597 2136L1597 2136Q1545 2151 1530 2216L1530 2216Q1524 2242 1517 2261.5 1510 2281 1502 2294L1502 2294Q1487 2317 1432 2351L1432 2351Q1405 2368 1382 2377.5 1359 2387 1338 2392 1317 2397 1295.5 2398 1274 2399 1250 2399L1250 2399Q1200 2399 1163 2391 1126 2383 1100 2369L1100 2369Q1057 2345 1029 2322 1001 2299 990 2276L990 2276 971 2216Q961 2184 945 2164 929 2144 903 2136L903 2136 857 2118Q819 2096 758 2020L758 2020Q703 1953 652 1938L652 1938Q593 1920 539.5 1886.5 486 1853 437 1802L437 1802Q388 1751 354 1695.5 320 1640 298 1579L298 1579Q255 1460 255 1261L255 1261Q255 1093 362 935L362 935Q468 778 648 678L648 678Q829 578 1020 578L1020 578Q1152 578 1250 666L1250 666Q1348 578 1481 578L1481 578Q1670 578 1849 674L1849 674Q2029 769 2136 930L2136 930Q2245 1090 2245 1265Z"/>
</svg>