<svg xmlns="http://www.w3.org/2000/svg"
    viewBox="0 0 2600 2850">
  <!--
Digitized data copyright © 2011, Google Corporation.
Android is a trademark of Google and may be registered in certain jurisdictions.
Licensed under the Apache License, Version 2.0
http://www.apache.org/licenses/LICENSE-2.0
  -->
<path d="M1242 1919L1242 1919Q1221 1919 1201.5 1912.5 1182 1906 1166.5 1896 1151 1886 1142 1873 1133 1860 1133 1848L1133 1848Q1133 1829 1154 1829L1154 1829Q1163 1829 1169 1835L1169 1835Q1205 1872 1242 1872L1242 1872Q1281 1872 1318 1835L1318 1835Q1324 1829 1333 1829L1333 1829Q1353 1829 1353 1848L1353 1848Q1353 1860 1344 1872.5 1335 1885 1319.5 1895.5 1304 1906 1284 1912.5 1264 1919 1242 1919ZM1468 1997L1468 1997Q1468 2034 1405 2078L1405 2078Q1342 2121 1262 2121L1262 2121Q1169 2121 1102 2083L1102 2083Q1032 2044 1032 2000L1032 2000Q1032 1989 1038.5 1978.5 1045 1968 1058 1968L1058 1968Q1065 1968 1074 1972.5 1083 1977 1096 1985L1096 1985Q1139 2009 1179.5 2020 1220 2031 1258 2031L1258 2031Q1290 2031 1329.5 2016.5 1369 2002 1418 1975L1418 1975Q1429 1968 1442 1968L1442 1968 1453 1971Q1468 1982 1468 1997ZM1595 1582L1595 1582Q1615 1582 1632.5 1590.5 1650 1599 1663 1613.5 1676 1628 1683.5 1647.5 1691 1667 1691 1689L1691 1689Q1691 1734 1663.5 1764 1636 1794 1595 1794L1595 1794Q1575 1794 1557.5 1786 1540 1778 1526.5 1763.5 1513 1749 1505.5 1730 1498 1711 1498 1689L1498 1689Q1498 1667 1505.5 1647.5 1513 1628 1526.5 1613.5 1540 1599 1557.5 1590.5 1575 1582 1595 1582ZM888 1582L888 1582Q908 1582 926 1590.5 944 1599 957 1613.5 970 1628 977.5 1647.5 985 1667 985 1689L985 1689Q985 1734 957 1764 929 1794 888 1794L888 1794Q868 1794 850.5 1786 833 1778 820 1763.5 807 1749 799.5 1730 792 1711 792 1689L792 1689Q792 1667 799.5 1647.5 807 1628 820 1613.5 833 1599 850.5 1590.5 868 1582 888 1582ZM2022 1766L2022 1766 2037 1768 2051 1768Q2099 1768 2125 1735 2151 1702 2151 1648L2151 1648Q2151 1545 2032 1534L2032 1534 2036 1622Q2038 1658 2034 1694 2030 1730 2022 1766ZM2107 1355L2107 1355 2095 1342Q2063 1313 2053 1290.5 2043 1268 2036 1240L2036 1240Q2016 1161 1992.5 1087.5 1969 1014 1943 945L1943 945Q1892 806 1798.5 721.5 1705 637 1575 589L1575 589 1575 1216Q1575 1236 1560.5 1250 1546 1264 1526 1264L1526 1264Q1506 1264 1492 1250 1478 1236 1478 1216L1478 1216 1478 497Q1478 470 1459 452.5 1440 435 1415 435L1415 435 1066 435Q1038 435 1020.5 452.5 1003 470 1003 497L1003 497 1003 1216Q1003 1236 989 1250 975 1264 955 1264L955 1264Q935 1264 920.5 1250 906 1236 906 1216L906 1216 906 589Q637 690 549 913L549 913Q483 1078 449 1223L449 1223Q445 1239 440.5 1253 436 1267 429.5 1281 423 1295 412.5 1309.5 402 1324 386 1342L386 1342 374 1355Q419 1375 502.5 1391.5 586 1408 709 1421L709 1421Q832 1434 964.5 1440 1097 1446 1240 1446L1240 1446Q1549 1446 1764.5 1423 1980 1400 2107 1355ZM1937 1671L1937 1671Q1911 1625 1881.5 1586.5 1852 1548 1817 1517L1817 1517Q1581 1547 1240 1547L1240 1547Q902 1547 664 1517L664 1517Q632 1545 603 1580.5 574 1616 548 1663L548 1663Q555 1804 610.5 1925.5 666 2047 769 2136L769 2136Q820 2181 877.5 2211.5 935 2242 1000 2261L1000 2261Q1066 2279 1125 2288.5 1184 2298 1238 2298L1238 2298Q1279 2298 1325.5 2292.5 1372 2287 1426 2276L1426 2276Q1480 2265 1528.5 2247.5 1577 2230 1621 2205L1621 2205Q1688 2168 1744 2112.5 1800 2057 1840.5 1988 1881 1919 1906 1839 1931 1759 1937 1671ZM349 1648L349 1648Q349 1702 375 1736 401 1770 449 1770L449 1770 464 1768Q457 1732 452.5 1696 448 1660 450 1622L450 1622 455 1534Q397 1542 373 1571.5 349 1601 349 1648ZM2123 1456L2123 1456Q2154 1468 2177 1489 2200 1510 2214 1535.5 2228 1561 2235 1590 2242 1619 2242 1648L2242 1648Q2242 1708 2217 1755L2217 1755Q2190 1802 2134 1829L2134 1829Q2106 1842 2081 1850 2056 1858 2033 1856L2033 1856 2002 1853Q1964 1981 1891.5 2083 1819 2185 1713 2258L1713 2258Q1660 2294 1601.5 2320.5 1543 2347 1478 2362L1478 2362Q1347 2394 1238 2394L1238 2394Q1130 2394 1000 2361L1000 2361Q871 2328 768 2255L768 2255Q664 2183 593 2082.5 522 1982 485 1855L485 1855 467 1856Q444 1858 418.5 1850.5 393 1843 364 1829L364 1829Q307 1801 282.5 1754 258 1707 258 1648L258 1648Q258 1590 284.5 1538.5 311 1487 370 1461L370 1461Q307 1443 285 1422 263 1401 263 1365L263 1365Q263 1313 316 1269L316 1269Q324 1264 329 1257L329 1257Q331 1254 337 1238.5 343 1223 352 1195L352 1195 397 1049Q425 959 451 889 477 819 509 770L509 770Q574 670 675 597 776 524 907 482L907 482Q910 451 924 424.5 938 398 960 378.5 982 359 1009.5 348 1037 337 1066 337L1066 337 1415 337Q1444 337 1471 348 1498 359 1520 378.5 1542 398 1556 424.5 1570 451 1574 482L1574 482Q1678 517 1761.5 568.5 1845 620 1910 692L1910 692Q2039 833 2129 1195L2129 1195Q2132 1209 2134.5 1219 2137 1229 2140 1236.5 2143 1244 2148.5 1251.5 2154 1259 2165 1269L2165 1269Q2190 1293 2203.5 1317 2217 1341 2217 1365L2217 1365Q2217 1383 2212.5 1396 2208 1409 2197 1419 2186 1429 2168 1437.5 2150 1446 2123 1456Z"/>
</svg>