<svg xmlns="http://www.w3.org/2000/svg"
    viewBox="0 0 2600 2850">
  <!--
Digitized data copyright © 2011, Google Corporation.
Android is a trademark of Google and may be registered in certain jurisdictions.
Licensed under the Apache License, Version 2.0
http://www.apache.org/licenses/LICENSE-2.0
  -->
<path d="M1422 1970L1422 1970Q1422 1962 1417 1954.5 1412 1947 1400 1947L1400 1947Q1391 1947 1381 1952.5 1371 1958 1364 1962L1364 1962Q1330 1979 1301.5 1987.5 1273 1996 1249 1996L1249 1996Q1219 1996 1189.5 1986 1160 1976 1128 1959L1128 1959 1113 1951 1097 1947Q1076 1947 1076 1970L1076 1970Q1076 2011 1135 2040L1135 2040Q1195 2069 1258 2069L1258 2069Q1296 2069 1327.5 2056.5 1359 2044 1387 2021L1387 2021Q1404 2007 1413 1994.5 1422 1982 1422 1970ZM856 1658L855 1668 855 1680Q855 1712 865 1740.5 875 1769 896 1792L896 1792Q938 1840 1005 1840L1005 1840Q1053 1840 1094 1811L1094 1811Q1139 1780 1145 1746L1145 1746 856 1658ZM1476 1840L1476 1840Q1536 1840 1581 1795L1581 1795Q1626 1750 1626 1680L1626 1680 1623 1658 1335 1746Q1341 1781 1384 1811L1384 1811Q1425 1840 1476 1840ZM1023 2320L1030 2364 1034 2411Q1034 2427 1033 2437 1032 2447 1028.5 2453 1025 2459 1018 2461 1011 2463 998 2463L998 2463Q974 2463 950 2445L950 2445Q927 2427 898.5 2419 870 2411 835 2411L835 2411Q809 2411 785 2415 761 2419 737 2428L737 2428Q714 2437 695 2437L695 2437Q671 2437 655.5 2419.5 640 2402 622 2364L622 2364Q599 2314 484 2279L484 2279Q385 2261 385 2235L385 2235Q385 2232 386.5 2228 388 2224 390.5 2217 393 2210 394.5 2198 396 2186 396 2167L396 2167Q396 2105 358.5 2068 321 2031 254 2003L254 2003Q242 1998 232.5 1992 223 1986 223 1970L223 1970Q223 1953 240.5 1943.5 258 1934 294 1936L294 1936 347 1939 562 1966Q618 2096 741 2188L741 2188Q804 2234 874.5 2267 945 2300 1023 2320L1023 2320ZM2277 1971L2277 1971Q2277 1991 2247 2003L2247 2003Q2180 2030 2142.5 2067.5 2105 2105 2105 2166L2105 2166Q2105 2198 2110 2213 2115 2228 2115 2235L2115 2235Q2115 2259 2039 2274L2039 2274Q1911 2299 1879 2364L1879 2364Q1859 2406 1844 2421.5 1829 2437 1805 2437L1805 2437Q1785 2437 1764 2428L1764 2428Q1741 2419 1716.5 2415 1692 2411 1666 2411L1666 2411Q1607 2411 1573 2431L1573 2431Q1521 2463 1503 2463L1503 2463Q1491 2463 1484.5 2461.5 1478 2460 1474 2455 1470 2450 1469 2440.5 1468 2431 1468 2415L1468 2415Q1468 2397 1470.5 2373 1473 2349 1478 2317L1478 2317Q1639 2273 1754.5 2181.5 1870 2090 1923 1969L1923 1969Q2152 1936 2206 1936L2206 1936Q2277 1936 2277 1971ZM477 1378L477 1378Q477 1417 489 1447L489 1447Q496 1463 512.5 1484.5 529 1506 555 1534L555 1534Q566 1546 574.5 1566 583 1586 593 1605.5 603 1625 617 1639.5 631 1654 652 1654L652 1654 659 1654Q663 1654 663 1635L663 1635Q663 1606 659 1594.5 655 1583 655 1573L655 1573Q655 1556 671 1543 687 1530 729 1510L729 1510Q772 1491 792 1439L792 1439Q797 1424 805.5 1410.5 814 1397 823 1386L823 1386Q804 1367 804 1342L804 1342Q804 1308 827 1308L827 1308Q837 1308 863 1323L863 1323Q883 1340 916 1350 949 1360 996 1356L996 1356 1043 1352Q1052 1287 1100 1287L1100 1287Q1110 1287 1119 1290.5 1128 1294 1136.5 1298 1145 1302 1153.5 1305.5 1162 1309 1172 1309L1172 1309Q1184 1309 1200 1298 1216 1287 1236 1287L1236 1287Q1251 1287 1251 1308L1251 1308Q1251 1330 1235.5 1343 1220 1356 1194 1356L1194 1356 1130 1346Q1116 1346 1116 1359L1116 1359Q1116 1374 1136 1401L1136 1401Q1158 1429 1190.5 1441.5 1223 1454 1257 1454L1257 1454Q1325 1454 1390 1409L1390 1409Q1439 1374 1481 1374L1481 1374Q1512 1374 1541 1402L1541 1402Q1556 1417 1567.5 1425.5 1579 1434 1588 1437.5 1597 1441 1604 1442 1611 1443 1618 1443L1618 1443 1643 1443Q1697 1443 1722 1432L1722 1432Q1732 1428 1739.5 1422 1747 1416 1754 1410 1761 1404 1767 1399.5 1773 1395 1779 1395L1779 1395Q1796 1395 1796 1419L1796 1419Q1796 1466 1745 1488L1745 1488Q1747 1506 1757 1516.5 1767 1527 1781 1532.5 1795 1538 1810.5 1542 1826 1546 1839.5 1551.5 1853 1557 1862 1566 1871 1575 1871 1592L1871 1592Q1871 1610 1863 1621 1855 1632 1855 1647L1855 1647Q1855 1665 1878 1665L1878 1665 1885 1665Q1901 1664 1922 1636L1922 1636Q1932 1622 1939 1612 1946 1602 1950 1593 1954 1584 1955.5 1575 1957 1566 1957 1553L1957 1553Q1957 1525 1951 1499 1945 1473 1945 1445L1945 1445Q1945 1428 1949 1407 1953 1386 1961 1360L1961 1360Q1979 1302 1978 1278L1978 1278Q1976 1248 1971.5 1218 1967 1188 1957 1161 1947 1134 1929 1111.5 1911 1089 1882 1074L1882 1074Q1808 1148 1737 1148L1737 1148Q1668 1148 1607 1092L1607 1092Q1548 1037 1548 974L1548 974Q1548 938 1565 910 1582 882 1621 850L1621 850 1663 814Q1646 802 1626 793.5 1606 785 1585.5 779 1565 773 1546 770 1527 767 1513 768L1513 768 1429 772Q1406 773 1375 764 1344 755 1305 739L1305 739Q1224 706 1175 706L1175 706Q1119 706 1065 727L1065 727Q1040 736 1000 772L1000 772Q982 787 970 797 958 807 952 811L952 811 926 824Q920 826 900.5 828.5 881 831 848 835L848 835 885 866Q938 911 938 965L938 965Q938 1030 879 1089L879 1089Q821 1148 748 1148L748 1148Q679 1148 621 1089L621 1089Q613 1103 598.5 1121.5 584 1140 561 1164L561 1164Q522 1204 511 1227L511 1227Q505 1239 499 1257 493 1275 488 1295.5 483 1316 480 1337.5 477 1359 477 1378ZM1245 2270L1245 2270Q1013 2270 834 2155L834 2155Q656 2040 608 1859L608 1859 600 1859Q545 1859 485 1815L485 1815Q425 1772 425 1679L425 1679Q425 1615 458 1568L458 1568Q381 1494 381 1378L381 1378Q381 1301 414 1212L414 1212Q437 1156 492 1096L492 1096Q540 1044 555 992L555 992Q518 900 518 803L518 803Q518 735 533.5 673 549 611 578 553L578 553Q638 436 712 436L712 436Q744 436 744 467L744 467 738 498Q733 515 730 534 727 553 727 573L727 573Q727 621 739.5 665.5 752 710 775 753L775 753Q795 746 813 743 831 740 846.5 738.5 862 737 875 735.5 888 734 898 731L898 731 950 688Q996 651 1051 630.5 1106 610 1175 610L1175 610Q1219 610 1252.5 619.5 1286 629 1313.5 640.5 1341 652 1365 662.5 1389 673 1414 676L1414 676 1513 672Q1570 670 1620.5 687.5 1671 705 1719 737L1719 737Q1739 697 1749 656 1759 615 1759 571L1759 571Q1759 547 1755 526.5 1751 506 1744 487L1744 487 1741 467Q1741 436 1774 436L1774 436Q1842 436 1905 549L1905 549Q1968 660 1968 803L1968 803Q1968 919 1933 992L1933 992Q1971 1015 1998 1047.5 2025 1080 2042 1118 2059 1156 2066.5 1197.5 2074 1239 2074 1281L2074 1281Q2074 1299 2070 1322.5 2066 1346 2057 1375L2057 1375Q2049 1401 2045 1417 2041 1433 2041 1439L2041 1439Q2041 1461 2047 1487.5 2053 1514 2053 1550L2053 1550 2053 1565 2052 1580Q2076 1625 2076 1679L2076 1679Q2076 1799 1961 1847L1961 1847Q1935 1854 1920 1857.5 1905 1861 1898 1861L1898 1861 1879 1858Q1855 1955 1794.5 2031.5 1734 2108 1649 2161 1564 2214 1460 2242 1356 2270 1245 2270Z"/>
</svg>