<svg xmlns="http://www.w3.org/2000/svg"
    viewBox="0 0 2600 2600">
  <!--
Digitized data copyright © 2011, Google Corporation.
Android is a trademark of Google and may be registered in certain jurisdictions.
Licensed under the Apache License, Version 2.0
http://www.apache.org/licenses/LICENSE-2.0
  -->
<path d="M1247 1793L1247 1793Q1228 1793 1212.5 1787.5 1197 1782 1185.5 1774 1174 1766 1168 1757 1162 1748 1162 1740L1162 1740Q1162 1726 1178 1726L1178 1726Q1186 1726 1190 1732L1190 1732Q1215 1759 1247 1759L1247 1759Q1279 1759 1304 1732L1304 1732Q1308 1726 1315 1726L1315 1726Q1331 1726 1331 1740L1331 1740Q1331 1748 1325 1757 1319 1766 1308 1774 1297 1782 1281.5 1787.5 1266 1793 1247 1793ZM1379 1825L1379 1825Q1392 1825 1392 1838L1392 1838Q1392 1859 1381 1877 1370 1895 1351.5 1907.5 1333 1920 1307.5 1927.5 1282 1935 1253 1935L1253 1935Q1225 1935 1200 1928 1175 1921 1156 1908 1137 1895 1126 1877.5 1115 1860 1115 1840L1115 1840Q1115 1825 1128 1825L1128 1825 1141 1827Q1199 1860 1253 1860L1253 1860Q1308 1860 1356 1834L1356 1834Q1369 1825 1379 1825ZM2010 2191L2089 2186 2091 2150 2088 2098 2025 2108 1959 2113Q1897 2118 1854.5 2124 1812 2130 1801 2149L1801 2149Q1824 2172 1860.5 2184.5 1897 2197 1948 2194L1948 2194 1999 2191 2010 2191ZM497 2191L509 2191 558 2194Q610 2197 646.5 2184.5 683 2172 706 2149L706 2149Q692 2125 584 2116L584 2116 490 2108 419 2100 416 2161 418 2186 497 2191ZM791 537L791 537Q791 548 794.5 556 798 564 801.5 571 805 578 808.5 585 812 592 812 600L812 600Q812 608 808.5 615.5 805 623 801.5 631 798 639 794.5 647.5 791 656 791 666L791 666Q791 692 809 709.5 827 727 855 727L855 727Q866 727 874 724 882 721 889 717 896 713 902.5 710 909 707 917 707L917 707 933 710Q967 727 981 727L981 727Q997 727 1009 721 1021 715 1028.5 706 1036 697 1040 686.5 1044 676 1044 666L1044 666Q1044 654 1040.5 645.5 1037 637 1033 629.5 1029 622 1025.5 615 1022 608 1022 600L1022 600Q1022 592 1029 580L1029 580 1026 558Q1026 523 1036 506L1036 506 1032 499Q1018 476 980 476L980 476Q954 476 942 485L942 485Q928 495 917 495L917 495 905 491Q873 474 854 474L854 474Q826 474 808.5 491.5 791 509 791 537ZM795 1994L795 1994Q723 1928 684 1871L684 1871 504 1864Q445 1862 416 1880.5 387 1899 387 1934L387 1934Q387 1979 447.5 1999.5 508 2020 639 2030L639 2030Q686 2033 719.5 2048.5 753 2064 776 2090L776 2090Q778 2086 783 2062.5 788 2039 795 1994ZM1490 604L1490 604Q1490 612 1487 619 1484 626 1480 633 1476 640 1473 648 1470 656 1470 666L1470 666Q1470 696 1489.5 712.5 1509 729 1531 729L1531 729Q1558 729 1569 719L1569 719Q1581 710 1595 710L1595 710Q1603 710 1610.5 713.5 1618 717 1625 721 1632 725 1640 728.5 1648 732 1658 732L1658 732Q1673 732 1685 726 1697 720 1705.5 710.5 1714 701 1718.5 689.5 1723 678 1723 666L1723 666Q1723 651 1705 619L1705 619 1701 606 1706 587Q1721 560 1721 539L1721 539Q1721 514 1703.5 495.5 1686 477 1658 477L1658 477Q1648 477 1640 480.5 1632 484 1624.5 487.5 1617 491 1610 494.5 1603 498 1595 498L1595 498Q1587 498 1581 494.5 1575 491 1568 487.5 1561 484 1552.5 480.5 1544 477 1532 477L1532 477Q1490 477 1475 514L1475 514 1481 552 1479 574Q1490 585 1490 604ZM2113 1934L2113 1934Q2113 1900 2083.5 1882 2054 1864 1995 1866L1995 1866 1816 1871Q1771 1936 1712 1987L1712 1987 1720 2041 1731 2090Q1749 2069 1772 2056.5 1795 2044 1822.5 2037.5 1850 2031 1882 2028 1914 2025 1951 2023L1951 2023Q2026 2018 2069.5 1995 2113 1972 2113 1934ZM1100 552L1100 552Q1100 581 1113 593 1126 605 1142.5 611.5 1159 618 1173 624.5 1187 631 1189 649L1189 649Q1191 674 1210.5 690.5 1230 707 1253 707L1253 707Q1278 707 1296.5 690.5 1315 674 1318 649L1318 649Q1321 621 1349 618L1349 618Q1374 616 1390.5 596.5 1407 577 1407 552L1407 552Q1407 528 1390.5 511 1374 494 1349 489L1349 489Q1332 486 1325.5 472 1319 458 1313 442.5 1307 427 1294.5 414 1282 401 1253 401L1253 401Q1201 401 1189 457L1189 457Q1185 475 1158 488L1158 488 1136 498Q1100 514 1100 552ZM504 1774L504 1774Q536 1775 567.5 1775.5 599 1776 628 1779L628 1779 675 1779 719 1777 721 1744Q729 1656 739.5 1576 750 1496 758 1422L758 1422Q768 1332 782 1250 796 1168 813.5 1090.5 831 1013 851 940 871 867 892 796L892 796 859 801Q808 801 770 772.5 732 744 721 695L721 695Q654 753 584 898L584 898Q550 970 517.5 1055.5 485 1141 452.5 1244 420 1347 387 1469 354 1591 319 1736L319 1736Q305 1793 297.5 1829 290 1865 290 1881L290 1881Q290 1892 292 1904 294 1916 297 1929L297 1929Q297 1896 312 1867 327 1838 354.5 1817 382 1796 420.5 1784.5 459 1773 504 1774ZM2203 1929L2203 1929Q2206 1916 2208 1904 2210 1892 2210 1879L2210 1879Q2210 1843 2203.5 1812.5 2197 1782 2186 1758L2186 1758Q2135 1550 2097 1409.5 2059 1269 2033 1193L2033 1193Q2008 1117 1980 1046 1952 975 1921.5 912.5 1891 850 1858 797.5 1825 745 1791 706L1791 706Q1777 750 1741 777 1705 804 1658 804L1658 804Q1626 804 1606 793L1606 793 1617 825Q1643 931 1671.5 1041.5 1700 1152 1720 1277L1720 1277 1743 1427 1773 1722Q1775 1736 1776.5 1749.5 1778 1763 1781 1777L1781 1777 1820 1779 1995 1774Q2041 1773 2079.5 1783.5 2118 1794 2145.5 1815 2173 1836 2188 1865 2203 1894 2203 1929ZM1714 1853L1714 1853Q1700 1847 1697 1823L1697 1823Q1676 1711 1664 1539L1664 1539Q1658 1551 1649 1558 1640 1565 1631.5 1569 1623 1573 1616 1574.5 1609 1576 1606 1576L1606 1576Q1606 1597 1599.5 1616 1593 1635 1581.5 1650 1570 1665 1553 1673.5 1536 1682 1515 1682L1515 1682Q1496 1682 1479.5 1674 1463 1666 1450.5 1652.5 1438 1639 1431 1621 1424 1603 1424 1582L1424 1582Q1424 1561 1431 1542.5 1438 1524 1450.5 1510.5 1463 1497 1479.5 1489 1496 1481 1515 1481L1515 1481 1532 1484Q1542 1484 1550.5 1480.5 1559 1477 1566 1472.5 1573 1468 1579.5 1464.5 1586 1461 1593 1461L1593 1461Q1609 1461 1609 1476L1609 1476Q1609 1484 1604.5 1490 1600 1496 1594.5 1500 1589 1504 1584.5 1507 1580 1510 1580 1513L1580 1513Q1587 1520 1600 1520L1600 1520 1650 1510 1661 1514Q1656 1447 1643.5 1363.5 1631 1280 1610 1179L1610 1179 1586 1142Q1531 1061 1520 1061L1520 1061Q1510 1061 1489 1076L1489 1076Q1292 1221 1014 1323L1014 1323Q911 1360 853 1388L853 1388 843 1477 838 1515 848 1510 896 1520Q917 1520 917 1513L917 1513 903 1500Q890 1491 890 1474L890 1474Q890 1461 906 1461L906 1461Q912 1461 918 1464.5 924 1468 931.5 1472.5 939 1477 947 1480.5 955 1484 965 1484L965 1484 983 1481Q1002 1481 1018.5 1489 1035 1497 1047.5 1510.5 1060 1524 1067 1542.5 1074 1561 1074 1582L1074 1582Q1074 1603 1067 1621 1060 1639 1047.5 1652.5 1035 1666 1018.5 1674 1002 1682 983 1682L983 1682Q945 1682 918.5 1653 892 1624 892 1576L892 1576Q861 1576 836 1541L836 1541Q832 1565 830.5 1588.5 829 1612 827 1634L827 1634 813 1762Q805 1837 784 1853L784 1853 807 1878Q828 1901 854.5 1924.5 881 1948 916 1971L916 1971Q983 2015 1081 2038L1081 2038Q1175 2060 1245 2060L1245 2060Q1327 2060 1419 2038L1419 2038Q1466 2027 1506 2011.5 1546 1996 1581 1974 1616 1952 1648.5 1922.5 1681 1893 1714 1853ZM2300 1881L2300 1881Q2300 2008 2181 2068L2181 2068 2177 2071 2181 2157Q2183 2193 2178.5 2215.5 2174 2238 2167 2247L2167 2247Q2141 2282 2014 2282L2014 2282 2004 2282 1948 2284Q1908 2286 1874 2279 1840 2272 1812 2261L1812 2261 1799 2261Q1726 2245 1684 2193 1642 2141 1631 2049L1631 2049Q1590 2074 1543 2093 1496 2112 1446.5 2124.5 1397 2137 1345.5 2143.5 1294 2150 1245 2150L1245 2150Q1199 2150 1151 2143.5 1103 2137 1055.5 2124.5 1008 2112 962 2094 916 2076 876 2053L876 2053Q867 2104 852.5 2139.5 838 2175 817.5 2199.5 797 2224 769.5 2238.5 742 2253 708 2261L708 2261 698 2261Q669 2272 634.5 2279 600 2286 560 2284L560 2284 502 2282 494 2282Q437 2282 403 2275.5 369 2269 355 2261L355 2261Q327 2245 327 2193L327 2193 327 2161 330 2074Q263 2041 231.5 1996 200 1951 200 1882L200 1882Q200 1868 201 1853.5 202 1839 204 1825L204 1825Q207 1810 227.5 1725.5 248 1641 288 1485L288 1485Q366 1176 448 983L448 983Q530 791 589 708L589 708Q648 624 723 577L723 577Q717 561 717 539L717 539Q717 510 727.5 485 738 460 756.5 441 775 422 800.5 411.5 826 401 855 401L855 401Q885 401 918 416L918 416Q949 401 980 401L980 401Q1033 401 1081 444L1081 444Q1092 436 1101.5 431 1111 426 1122 422L1122 422Q1138 380 1173 353.5 1208 327 1253 327L1253 327Q1299 327 1335 353.5 1371 380 1385 422L1385 422Q1399 427 1410.5 433 1422 439 1431 448L1431 448Q1476 403 1534 403L1534 403Q1549 403 1564.5 407 1580 411 1595 418L1595 418Q1621 405 1658 405L1658 405Q1711 405 1754 446L1754 446Q1797 486 1797 541L1797 541Q1797 551 1795 562 1793 573 1790 584L1790 584Q1864 638 1933.5 747.5 2003 857 2070 1031L2070 1031Q2104 1118 2132.5 1209 2161 1300 2186 1398L2186 1398Q2212 1496 2226 1553 2240 1610 2244 1628L2244 1628Q2249 1651 2255 1671.5 2261 1692 2268 1712L2268 1712 2274 1734 2281 1763Q2290 1791 2295 1820.5 2300 1850 2300 1881Z"/>
</svg>