<svg xmlns="http://www.w3.org/2000/svg"
    viewBox="0 0 2600 2600">
  <!--
Digitized data copyright © 2011, Google Corporation.
Android is a trademark of Google and may be registered in certain jurisdictions.
Licensed under the Apache License, Version 2.0
http://www.apache.org/licenses/LICENSE-2.0
  -->
<path d="M1052 1094L1052 1094Q1037 1094 1022 1088.5 1007 1083 995 1072.5 983 1062 975.5 1047 968 1032 968 1012L968 1012Q968 980 989 958.5 1010 937 1050 937L1050 937Q1071 937 1086.5 944 1102 951 1111.5 962 1121 973 1126 987 1131 1001 1131 1015L1131 1015Q1131 1052 1107.5 1073 1084 1094 1052 1094ZM484 1971L484 1971Q484 1944 480.5 1918.5 477 1893 471 1871 465 1849 457.5 1832 450 1815 442 1807L442 1807Q440 1818 426 1852 412 1886 388 1945L388 1945Q364 2004 346 2041.5 328 2079 317 2098L317 2098 338 2109Q386 2142 414 2142L414 2142Q432 2142 458 2093L458 2093Q484 2041 484 1971ZM2186 1465L2186 1465Q2175 1416 2124 1418L2124 1418 2064 1420Q1980 1421 1961 1380L1961 1380Q1958 1372 1955.5 1363.5 1953 1355 1949 1348 1945 1341 1939.5 1336.5 1934 1332 1924 1332L1924 1332Q1890 1332 1853 1481L1853 1481Q1846 1514 1836 1532L1836 1532 1836 1541Q1853 1552 1869.5 1565 1886 1578 1901 1593L1901 1593Q1923 1579 1944.5 1568 1966 1557 1989 1549L1989 1549Q2147 1495 2161 1487L2161 1487Q2176 1477 2186 1465ZM868 1474L868 1474Q727 1474 596 1415L596 1415 595 1437Q593 1470 604 1500.5 615 1531 637 1560L637 1560Q680 1618 727 1618L727 1618Q754 1618 804 1577L804 1577Q854 1536 870 1536L870 1536Q883 1536 934 1575L934 1575Q986 1615 1020 1615L1020 1615Q1066 1615 1102 1563L1102 1563Q1139 1511 1139 1454L1139 1454Q1139 1427 1134 1418L1134 1418Q1011 1474 868 1474ZM1840 1712L1840 1712Q1840 1693 1819 1678L1819 1678Q1759 1618 1729 1618L1729 1618Q1721 1618 1714 1625L1714 1625 1681 1666Q1654 1699 1626 1727.5 1598 1756 1569 1781L1569 1781Q1512 1829 1478 1829L1478 1829Q1453 1829 1431 1807L1431 1807 1369 1746Q1346 1724 1333.5 1712 1321 1700 1316 1699L1316 1699 1292 1845 1292 1863Q1292 1936 1340 1991L1340 1991Q1387 2047 1454 2047L1454 2047Q1494 2047 1552.5 2003.5 1611 1960 1695 1876L1695 1876 1789 1782Q1813 1758 1826.5 1741.5 1840 1725 1840 1712ZM893 240L893 240Q808 240 737 260.5 666 281 612 320.5 558 360 522.5 417.5 487 475 474 548L474 548Q509 521 554.5 499 600 477 652 461 704 445 761.5 436.5 819 428 878 428L878 428Q917 428 956.5 433 996 438 1038 448L1038 448Q1080 458 1116.5 475 1153 492 1183 513 1213 534 1236 557.5 1259 581 1273 604L1273 604Q1223 240 893 240ZM617 975L617 975 451 1060Q480 1186 595 1265L595 1265Q709 1343 868 1343L868 1343Q1051 1343 1172 1240L1172 1240Q1295 1137 1295 980L1295 980Q1295 848 1201 723L1201 723 699 938Q768 946 768 1013L768 1013Q768 1033 761 1048.5 754 1064 742.5 1074 731 1084 716 1089 701 1094 685 1094L685 1094Q649 1094 627.5 1071.5 606 1049 606 1015L606 1015Q606 994 617 975ZM1234 2168L1234 2168Q1234 2163 1224 2149.5 1214 2136 1195 2112L1195 2112Q1168 2076 1168 1994L1168 1994Q1168 1968 1175 1930 1182 1892 1197 1841L1197 1841Q1225 1744 1225 1697L1225 1697Q1225 1669 1221 1649.5 1217 1630 1211.5 1617 1206 1604 1200.5 1595.5 1195 1587 1193 1581L1193 1581 1178 1617Q1159 1657 1113 1688L1113 1688Q1068 1716 1031 1716L1031 1716Q988 1716 898 1666L898 1666Q881 1656 870 1656L870 1656Q858 1656 812 1685L812 1685Q764 1716 726 1716L726 1716Q698 1716 671.5 1705 645 1694 617 1673L617 1673Q563 1630 540 1570L540 1570Q515 1640 515 1701L515 1701Q515 1721 519.5 1743.5 524 1766 531 1787 538 1808 546 1827 554 1846 561 1859L561 1859Q562 1864 568 1879.5 574 1895 580 1917.5 586 1940 591 1967 596 1994 596 2021L596 2021Q596 2082 556 2161L556 2161Q547 2181 547 2184L547 2184Q547 2195 569.5 2211 592 2227 635 2242 678 2257 739 2267 800 2277 878 2275L878 2275Q929 2273 973.5 2270 1018 2267 1058 2259L1058 2259Q1098 2252 1130.5 2240.5 1163 2229 1186 2216 1209 2203 1221.5 2190.5 1234 2178 1234 2168ZM2290 1448L2290 1448Q2290 1473 2280.5 1494 2271 1515 2249 1533.5 2227 1552 2192 1570 2157 1588 2105 1607L2105 1607Q2063 1622 2026 1643 1989 1664 1956 1690L1956 1690 1959 1714Q1957 1723 1956 1732 1955 1741 1952 1751L1952 1751Q1946 1770 1908 1812L1908 1812Q1888 1834 1834 1888 1780 1942 1689 2032L1689 2032Q1619 2102 1559 2133 1499 2164 1433 2161L1433 2161 1368 2158Q1368 2175 1359.5 2195.5 1351 2216 1333 2239L1333 2239Q1316 2262 1295 2279 1274 2296 1250 2310L1250 2310Q1174 2353 1089 2371 1004 2389 901 2389L901 2389Q837 2389 776 2383 715 2377 661 2365 607 2353 563 2335.5 519 2318 488 2295L488 2295Q423 2248 374 2240L374 2240Q300 2229 255 2197 210 2165 210 2123L210 2123 212 2109Q214 2092 258 1994L258 1994Q294 1916 324.5 1846.5 355 1777 377.5 1720 400 1663 413 1619.5 426 1576 428 1549L428 1549Q435 1518 444 1488 453 1458 463 1432.5 473 1407 483 1387.5 493 1368 502 1358L502 1358Q436 1307 395 1244.5 354 1182 329 1108L329 1108Q309 1079 292.5 1035.5 276 992 276 948L276 948Q276 873 293.5 816 311 759 343 699L343 699 343 652Q343 408 493 264L493 264Q569 190 668.5 154.5 768 119 893 119L893 119Q1005 119 1098 156.5 1191 194 1258 266L1258 266Q1291 302 1316.5 346 1342 390 1359.5 438 1377 486 1386 535 1395 584 1395 630L1395 630Q1395 696 1369 744L1369 744Q1425 858 1425 980L1425 980Q1425 1100 1373 1197.5 1321 1295 1229 1362L1229 1362Q1255 1395 1279 1428.5 1303 1462 1324 1498L1324 1498Q1446 1704 1477 1704L1477 1704Q1508 1704 1588 1614L1588 1614 1614 1578Q1642 1540 1662 1516.5 1682 1493 1696 1485L1696 1485 1718 1478Q1749 1474 1759 1457.5 1769 1441 1775 1409L1775 1409Q1781 1379 1794 1349 1807 1319 1829 1288L1829 1288Q1874 1225 1915 1225L1915 1225Q1964 1225 2026 1299L2026 1299Q2040 1315 2053 1317L2053 1317Q2290 1331 2290 1448Z"/>
</svg>