<svg xmlns="http://www.w3.org/2000/svg"
    viewBox="0 0 2600 2600">
  <!--
Digitized data copyright © 2011, Google Corporation.
Android is a trademark of Google and may be registered in certain jurisdictions.
Licensed under the Apache License, Version 2.0
http://www.apache.org/licenses/LICENSE-2.0
  -->
<path d="M1156 1043L1156 1043Q1164 1043 1172 1040.5 1180 1038 1189.5 1031.5 1199 1025 1212.5 1013.5 1226 1002 1245 983L1245 983 1269 963 1210 968Q1184 970 1159.5 965.5 1135 961 1112 955L1112 955Q1115 967 1117.5 982.5 1120 998 1124.5 1011.5 1129 1025 1136.5 1034 1144 1043 1156 1043ZM1091 600L1091 600Q1111 600 1128.5 612 1146 624 1146 647L1146 647Q1146 672 1129.5 686.5 1113 701 1091 701L1091 701Q1068 701 1052.5 686.5 1037 672 1037 650L1037 650Q1037 633 1049.5 616.5 1062 600 1091 600ZM1329 600L1329 600Q1350 600 1367.5 613.5 1385 627 1385 650L1385 650Q1385 672 1369 686.5 1353 701 1329 701L1329 701Q1309 701 1292 686.5 1275 672 1275 649L1275 649Q1275 628 1289 614 1303 600 1329 600ZM1920 1575L1920 1575Q1920 1530 1893 1511 1866 1492 1830 1494L1830 1494 1789 1497Q1771 1499 1745 1526L1745 1526Q1721 1550 1721 1571L1721 1571Q1721 1588 1741 1597L1741 1597 1766 1602 1785 1627Q1799 1641 1844 1641L1844 1641Q1920 1641 1920 1575ZM708 278L708 278Q708 344 785 344L785 344Q828 344 849 330L849 330Q872 315 882 290L882 290Q887 278 889 252.5 891 227 893 189L893 189 897 123Q899 93 890 77.5 881 62 864 62L864 62Q841 62 829 110L829 110Q824 128 818.5 140.5 813 153 807 158L807 158Q795 168 755 186L755 186Q745 191 736.5 201 728 211 721.5 224 715 237 711.5 251.5 708 266 708 278ZM870 1069L870 1069Q874 1061 880 1049 886 1037 894 1018L894 1018Q911 981 911 972L911 972Q911 964 902.5 957 894 950 883.5 941.5 873 933 864.5 923.5 856 914 856 902L856 902Q856 877 920 839L920 839Q849 756 849 641L849 641 853 602Q848 579 845 558 842 537 844 520L844 520 846 474Q849 442 829 442L829 442 800 446 729 448 696 442Q680 442 681 464L681 464 682 482 682 532Q682 612 699.5 690 717 768 760 843L760 843 785 885Q812 932 830.5 965.5 849 999 856 1022L856 1022Q870 1050 870 1069ZM946 1310L946 1310 941 1360Q941 1393 964.5 1408.5 988 1424 1037 1426L1037 1426 1168 1429 1194 1427Q1194 1251 1227 1107L1227 1107 1227 1100Q1227 1087 1212 1087L1212 1087Q1191 1087 1177 1096.5 1163 1106 1149 1106L1149 1106Q1136 1106 1126 1098.5 1116 1091 1105 1084L1105 1084Q1097 1076 1087 1069 1077 1062 1065 1054L1065 1054 1005 1015Q994 1009 985 1009L985 1009Q967 1009 968 1030L968 1030 970 1051Q972 1087 964.5 1151.5 957 1216 946 1310ZM1473 697L1473 697 1469 654Q1469 630 1467.5 612 1466 594 1462.5 579 1459 564 1453.5 550.5 1448 537 1439 523L1439 523Q1423 503 1395.5 492.5 1368 482 1328 485L1328 485 1214 491 1135 485 1098 478 1060 474Q1009 474 975 527L975 527Q942 578 942 641L942 641Q942 742 1019 810L1019 810Q1094 876 1210 876L1210 876Q1258 876 1300.5 864 1343 852 1377.5 829 1412 806 1436.5 772.5 1461 739 1473 697ZM1730 1352L1730 1352 1727 1390Q1726 1410 1739.5 1416 1753 1422 1790 1422L1790 1422 1883 1422Q1886 1411 1888 1399.5 1890 1388 1890 1374L1890 1374Q1890 1321 1863 1237L1863 1237Q1837 1155 1778 1081L1778 1081Q1718 1006 1628 963L1628 963Q1533 920 1487 920L1487 920Q1461 920 1461 943L1461 943Q1461 958 1472 974 1483 990 1483 1006L1483 1006Q1483 1033 1431 1051L1431 1051Q1380 1069 1350 1073L1350 1073Q1325 1076 1315.5 1084.5 1306 1093 1306 1110L1306 1110Q1306 1125 1295 1186L1295 1186Q1284 1246 1286 1281L1286 1281 1290 1379 1301 1520Q1304 1561 1316 1587 1328 1613 1350 1613L1350 1613Q1382 1613 1447 1593L1447 1593Q1513 1572 1513 1560L1513 1560 1507 1542Q1496 1519 1487 1500.5 1478 1482 1473 1457L1473 1457Q1465 1409 1455.5 1362 1446 1315 1446 1260L1446 1260Q1446 1091 1498 1091L1498 1091Q1549 1091 1596 1105 1643 1119 1673 1145L1673 1145Q1703 1172 1716 1212L1716 1212Q1724 1232 1729 1266.5 1734 1301 1730 1352ZM1454 1695L1454 1695 1437 1698Q1395 1705 1367 1709.5 1339 1714 1324 1714L1324 1714Q1266 1714 1249 1662L1249 1662 1216 1568 1213 1549Q1211 1504 1179 1507L1179 1507 1143 1509 997 1501Q959 1499 926 1525.5 893 1552 849 1610L849 1610 812 1660Q777 1706 752.5 1755 728 1804 712.5 1858.5 697 1913 689.5 1974.5 682 2036 682 2108L682 2108Q682 2142 699 2154L699 2154Q708 2160 730.5 2164 753 2168 790 2166L790 2166 857 2163 920 2167Q945 2169 957.5 2162 970 2155 970 2143L970 2143Q970 2136 968 2129.5 966 2123 963 2115L963 2115Q958 2108 951.5 2087 945 2066 935 2032L935 2032Q926 1998 921 1969.5 916 1941 916 1920L916 1920Q916 1842 967 1764L967 1764Q1018 1687 1079 1656L1079 1656Q1095 1647 1095 1636L1095 1636 1090 1616Q1090 1602 1104 1602L1104 1602Q1120 1602 1154 1624L1154 1624Q1188 1646 1217.5 1686.5 1247 1727 1279 1801L1279 1801Q1358 1987 1473 2045L1473 2045 1647 2159Q1675 2178 1701 2178L1701 2178Q1744 2178 1779 2134L1779 2134Q1797 2113 1806 2087.5 1815 2062 1815 2035L1815 2035Q1815 1997 1806.5 1977.5 1798 1958 1773 1950L1773 1950 1704 1928Q1669 1917 1643 1909.5 1617 1902 1602 1896L1602 1896Q1587 1891 1574 1883.5 1561 1876 1550 1868L1550 1868Q1525 1851 1507.5 1822.5 1490 1794 1481 1749L1481 1749Q1470 1695 1454 1695ZM2015 1580L2015 1580Q2015 1634 1970 1682L1970 1682Q1923 1729 1871 1729L1871 1729 1800 1721Q1774 1718 1756 1713.5 1738 1709 1727 1698L1727 1698Q1722 1693 1716 1689 1710 1685 1703 1682L1703 1682Q1668 1665 1650 1644 1632 1623 1632 1587L1632 1587Q1632 1569 1639 1549L1639 1549Q1643 1535 1648.5 1525.5 1654 1516 1659.5 1509.5 1665 1503 1669 1497.5 1673 1492 1673 1486L1673 1486Q1673 1474 1660 1464L1660 1464Q1647 1454 1647 1441L1647 1441 1648 1361Q1649 1310 1642 1278 1635 1246 1623 1230L1623 1230Q1600 1199 1574 1199L1574 1199Q1543 1199 1543 1289L1543 1289Q1543 1312 1545 1341.5 1547 1371 1552 1409L1552 1409Q1562 1482 1570 1504L1570 1504Q1574 1516 1581 1531 1588 1546 1595 1561.5 1602 1577 1606.5 1592 1611 1607 1611 1620L1611 1620Q1611 1634 1585 1653L1585 1653Q1558 1673 1558 1703L1558 1703Q1558 1766 1600.5 1803 1643 1840 1730 1857L1730 1857Q1827 1877 1853 1902L1853 1902Q1881 1927 1893 1987L1893 1987Q1893 1999 1898.5 2000.5 1904 2002 1912 2007L1912 2007Q1957 2039 1957 2078L1957 2078Q1957 2092 1953 2103 1949 2114 1943.5 2123.5 1938 2133 1933.5 2141 1929 2149 1929 2156L1929 2156Q1925 2195 1918.5 2223 1912 2251 1901.5 2271.5 1891 2292 1876 2306 1861 2320 1841 2331L1841 2331Q1800 2355 1730 2356L1730 2356Q1694 2357 1669 2359 1644 2361 1630 2363L1630 2363Q1618 2363 1605 2360.5 1592 2358 1581.5 2353 1571 2348 1564.5 2339.5 1558 2331 1558 2319L1558 2319Q1558 2291 1584 2268L1584 2268Q1588 2265 1593.5 2263.5 1599 2262 1605 2260.5 1611 2259 1615.5 2256.5 1620 2254 1622 2248L1622 2248Q1622 2243 1615 2236L1615 2236Q1612 2233 1596.5 2221 1581 2209 1552 2192L1552 2192 1458 2137Q1395 2101 1351 2062.5 1307 2024 1277 1989L1277 1989Q1248 1955 1224.5 1917 1201 1879 1187 1835L1187 1835Q1170 1778 1159.5 1749 1149 1720 1141 1720L1141 1720Q1131 1720 1091 1757L1091 1757Q1051 1794 1033 1832 1015 1870 1015 1905L1015 1905Q1015 1935 1026 1963L1026 1963 1046 2021 1065 2091 1084 2160 1090 2185Q1090 2196 1083.5 2206 1077 2216 1066 2224 1055 2232 1041.5 2237 1028 2242 1013 2242L1013 2242Q1001 2245 1001 2256L1001 2256 1001 2299Q1001 2339 981.5 2351 962 2363 913 2363L913 2363Q889 2363 883 2353L883 2353Q877 2343 871 2341L871 2341 856 2345Q766 2389 651 2389L651 2389Q573 2389 529 2374 485 2359 485 2333L485 2333Q485 2301 548 2278L548 2278 574 2268 641 2234Q637 2227 630 2227L630 2227 622 2227Q610 2226 598 2221 586 2216 576.5 2208.5 567 2201 560.5 2191.5 554 2182 554 2170L554 2170Q554 2156 557.5 2127 561 2098 569 2056L569 2056Q577 2014 587 1968.5 597 1923 608 1873L608 1873Q632 1774 654 1735L654 1735Q665 1715 680 1695.5 695 1676 712 1656L712 1656Q720 1647 727 1638 734 1629 734 1620L734 1620Q734 1601 720 1594 706 1587 689.5 1581.5 673 1576 659 1567 645 1558 645 1534L645 1534Q645 1503 655 1474 665 1445 680 1417 695 1389 713 1362.5 731 1336 746 1309 761 1282 771 1254 781 1226 781 1197L781 1197Q781 1111 693 942L693 942Q658 873 635 824.5 612 776 602 746L602 746Q583 686 581 630L581 630 576 459Q574 414 583 384 592 354 608 337L608 337Q616 330 618 319L618 319Q618 309 616 301 614 293 611 284.5 608 276 606 266 604 256 604 244L604 244Q604 224 609.5 207 615 190 627.5 173 640 156 661 137.5 682 119 714 95L714 95Q726 85 736 75.5 746 66 753 55L753 55Q813-34 867-34L867-34Q904-34 934-8L934-8Q965 18 978 55L978 55Q990 90 990 210L990 210 990 236 989 263Q1052 197 1161 197L1161 197Q1240 197 1332 230L1332 230Q1423 262 1488 330L1488 330Q1520 365 1540.5 399.5 1561 434 1569 470L1569 470Q1569 474 1570.5 490.5 1572 507 1573.5 528 1575 549 1576.5 571.5 1578 594 1578 610L1578 610Q1578 715 1554 746L1554 746Q1540 787 1510 828L1510 828Q1525 831 1538.5 835 1552 839 1566 844L1566 844Q1591 854 1669 892L1669 892Q1707 911 1738.5 931.5 1770 952 1797 973L1797 973Q1837 1003 1872 1050.5 1907 1098 1932.5 1151.5 1958 1205 1971.5 1259.5 1985 1314 1982 1359L1982 1359 1976 1449Q1975 1478 1986 1497L1986 1497Q2015 1549 2015 1580Z"/>
</svg>