<svg xmlns="http://www.w3.org/2000/svg"
    viewBox="0 0 2600 2850">
  <!--
Digitized data copyright © 2011, Google Corporation.
Android is a trademark of Google and may be registered in certain jurisdictions.
Licensed under the Apache License, Version 2.0
http://www.apache.org/licenses/LICENSE-2.0
  -->
<path d="M385 1308L385 1308Q385 1268 408 1241.5 431 1215 459 1215L459 1215Q477 1215 490 1223 503 1231 512 1243.5 521 1256 525.5 1271 530 1286 530 1301L530 1301Q530 1342 507 1371 484 1400 452 1400L452 1400Q424 1400 404.5 1373 385 1346 385 1308ZM735 1014L735 1014Q720 1014 705.5 1008 691 1002 679.5 991 668 980 661 965 654 950 654 932L654 932Q654 916 660.5 901 667 886 679 874 691 862 707 854.5 723 847 742 847L742 847Q778 847 802.5 869 827 891 827 921L827 921Q827 940 819.5 957 812 974 799.5 986.5 787 999 770 1006.5 753 1014 735 1014ZM1177 754L1177 754Q1160 754 1145.5 746.5 1131 739 1120.5 726 1110 713 1103.5 697.5 1097 682 1097 665L1097 665Q1097 647 1104 631 1111 615 1123 603.5 1135 592 1150 585.5 1165 579 1181 579L1181 579Q1221 579 1242 604 1263 629 1263 661L1263 661Q1263 679 1256 696 1249 713 1237 725.5 1225 738 1209.5 746 1194 754 1177 754ZM1115 1883L1115 1883Q1098 1883 1084.5 1876 1071 1869 1061 1857 1051 1845 1045.5 1830 1040 1815 1040 1799L1040 1799Q1040 1759 1062 1730.5 1084 1702 1125 1702L1125 1702Q1146 1702 1162 1709.5 1178 1717 1189 1729 1200 1741 1205.5 1756.5 1211 1772 1211 1788L1211 1788Q1211 1809 1203 1826 1195 1843 1182 1855.5 1169 1868 1151.5 1875.5 1134 1883 1115 1883ZM1550 849L1550 849 1550 840Q1550 803 1577.5 779.5 1605 756 1642 756L1642 756Q1678 756 1705 777.5 1732 799 1732 834L1732 834Q1732 853 1724 870 1716 887 1703 899.5 1690 912 1673 919.5 1656 927 1638 927L1638 927Q1621 927 1605.5 921.5 1590 916 1577.5 906 1565 896 1557.5 881.5 1550 867 1550 849ZM657 1802L657 1802Q621 1802 599.5 1774 578 1746 578 1710L578 1710Q578 1692 584.5 1676 591 1660 602 1647.5 613 1635 629 1627.5 645 1620 664 1620L664 1620Q704 1620 726.5 1646.5 749 1673 749 1709L749 1709Q749 1728 741 1745 733 1762 720 1774.5 707 1787 690.5 1794.5 674 1802 657 1802ZM1694 1315L1694 1315Q1710 1315 1725.5 1321 1741 1327 1753 1338 1765 1349 1772.5 1364.5 1780 1380 1780 1400L1780 1400Q1780 1418 1772.5 1434 1765 1450 1752.5 1462 1740 1474 1723 1480.5 1706 1487 1687 1487L1687 1487Q1671 1487 1655.5 1482 1640 1477 1627.5 1468 1615 1459 1607.5 1445.5 1600 1432 1600 1414L1600 1414Q1600 1368 1627 1341.5 1654 1315 1694 1315ZM1040 1226L1040 1226Q1040 1204 1048.5 1185 1057 1166 1070.5 1152.5 1084 1139 1102 1131.5 1120 1124 1139 1124L1139 1124Q1156 1124 1172.5 1131 1189 1138 1202.5 1150 1216 1162 1224.5 1178.5 1233 1195 1233 1215L1233 1215Q1233 1234 1225 1252 1217 1270 1202.5 1284.5 1188 1299 1168.5 1307.5 1149 1316 1126 1316L1126 1316Q1084 1316 1062 1291.5 1040 1267 1040 1226ZM1992 846L1992 846 1995 873 1995 894Q1995 982 1918 1050L1918 1050Q1899 1062 1894 1076L1894 1076 1880 1107Q1906 1113 1928.5 1126 1951 1139 1968.5 1158.5 1986 1178 1996.5 1203 2007 1228 2010 1256L2010 1256Q2033 1280 2046 1317.5 2059 1355 2059 1385L2059 1385Q2059 1420 2047 1451.5 2035 1483 2009 1511L2009 1511 2010 1530Q2012 1555 2003 1579.5 1994 1604 1977 1628L1977 1628 1985 1626 2020 1612Q2075 1590 2104 1574.5 2133 1559 2133 1539L2133 1539 2126 1512Q2108 1459 2098.5 1425.5 2089 1392 2089 1377L2089 1377Q2089 1351 2095 1330 2101 1309 2111 1291.5 2121 1274 2132.5 1260 2144 1246 2156 1234L2156 1234Q2191 1199 2262 1094L2262 1094 2270 1081Q2264 1061 2196 1029L2196 1029Q2092 981 2063 959L2063 959Q2037 939 2018.5 911 2000 883 1992 846ZM481 924L481 924 481 929 486 946Q531 953 564 985L564 985 580 984Q604 982 630.5 992.5 657 1003 686 1022L686 1022Q742 1059 757 1100L757 1100Q770 1014 848 968L848 968 850 966Q858 945 870.5 927.5 883 910 900 897L900 897Q870 858 870 798L870 798Q826 758 818 695L818 695Q818 697 813 700 808 703 802 706 796 709 790 711 784 713 781 713L781 713 777 712Q769 711 764.5 703.5 760 696 754.5 688 749 680 739 673.5 729 667 710 667L710 667Q690 667 679 673.5 668 680 662 688.5 656 697 651 704.5 646 712 638 715L638 715 631 716 615 713 606 713Q592 713 578.5 719.5 565 726 554.5 737 544 748 537.5 761.5 531 775 531 788L531 788Q531 804 536.5 816 542 828 542 839L542 839Q542 848 535 851 528 854 523 857L523 857Q481 883 481 924ZM948 611L948 611 943 622Q916 648 916 675L916 675Q916 714 942 731L942 731Q951 736 964.5 740 978 744 978 757L978 757 973 776 968 794 969 797 968 803Q968 828 987 850L987 850Q996 845 1030 845L1030 845Q1069 845 1099 858L1099 858Q1126 831 1192 831L1192 831Q1212 831 1228 836.5 1244 842 1267 850L1267 850 1264 820Q1264 720 1345 667L1345 667Q1356 601 1396 565L1396 565Q1379 557 1368 553.5 1357 550 1361 534L1361 534 1363 520Q1363 490 1325 463L1325 463Q1284 434 1255 434L1255 434Q1238 434 1227.5 443.5 1217 453 1206 453L1206 453 1193 446Q1153 411 1129 411L1129 411 1123 412Q1081 418 1062 468L1062 468Q1059 476 1059 482 1059 488 1051 492L1051 492 1045 492 1029 490 1019 489Q1003 489 988 495.5 973 502 962 513.5 951 525 944 539.5 937 554 937 570L937 570 942 590Q948 601 948 611ZM263 1351L263 1351 264 1356Q264 1364 261 1370.5 258 1377 254.5 1383.5 251 1390 248 1397 245 1404 245 1412L245 1412Q245 1442 266 1467 287 1492 316 1501L316 1501 323 1503 346 1498 356 1501 359 1504Q379 1468 413.5 1444 448 1420 489 1415L489 1415 504 1394Q532 1365 566 1349.5 600 1334 642 1334L642 1334Q692 1334 732 1356L732 1356 745 1326 740 1304Q740 1264 721 1245L721 1245 712 1239Q675 1224 675 1208L675 1208 680 1181Q680 1148 645 1115L645 1115Q627 1099 611.5 1091 596 1083 580 1083L580 1083 569 1084Q542 1094 538 1094L538 1094Q531 1094 508 1068L508 1068Q496 1054 483.5 1048 471 1042 460 1042L460 1042Q434 1042 420.5 1052 407 1062 399 1074 391 1086 387 1096.5 383 1107 377 1109L377 1109 374 1109 356 1104 333 1100 323 1100Q295 1105 273.5 1127.5 252 1150 252 1178L252 1178 258 1208Q258 1216 248 1223 238 1230 230 1237L230 1237Q212 1266 212 1285L212 1285Q212 1311 233 1327L233 1327Q238 1335 249 1339 260 1343 263 1351ZM1240 2301L1240 2301Q1245 2301 1256 2295L1256 2295Q1261 2290 1278.5 2272.5 1296 2255 1326 2223L1326 2223Q1356 2191 1378 2164 1400 2137 1415 2114L1415 2114Q1431 2089 1450.5 2068 1470 2047 1491.5 2032 1513 2017 1534.5 2008 1556 1999 1576 1998L1576 1998 1831 1980Q1844 1979 1855.5 1977 1867 1975 1876 1970L1876 1970 1879 1949 1870 1771Q1869 1744 1876 1722.5 1883 1701 1894 1686L1894 1686 1853 1694Q1829 1726 1785 1743.5 1741 1761 1693 1761L1693 1761Q1619 1761 1567 1720L1567 1720 1557 1721 1522 1721 1494 1719Q1497 1734 1499 1747.5 1501 1761 1501 1772L1501 1772Q1501 1826 1470 1880L1470 1880 1472 1906 1470 1936Q1443 2067 1308 2088L1308 2088Q1283 2130 1239 2156 1195 2182 1143 2182L1143 2182Q1082 2182 1036 2145L1036 2145 1000 2152Q969 2152 940.5 2143 912 2134 888 2118 864 2102 847.5 2080 831 2058 824 2031L824 2031Q789 2052 751 2062L751 2062Q767 2073 775 2095 783 2117 781 2150L781 2150 780 2171 781 2177 783 2188 787 2213Q798 2213 809.5 2211 821 2209 835 2206L835 2206Q888 2192 927 2186 966 2180 994 2180L994 2180Q1038 2180 1076.5 2195.5 1115 2211 1148 2243L1148 2243Q1153 2249 1163 2258 1173 2267 1189 2278L1189 2278Q1221 2301 1240 2301ZM2221 2340L2221 2340Q2221 2322 2205 2309 2189 2296 2169 2281L2169 2281Q2152 2269 2140.5 2259.5 2129 2250 2122 2241L2122 2241Q2109 2225 2103 2179.5 2097 2134 2097 2046L2097 2046 2097 1979 2093 1705 2033 1728Q2009 1738 1995 1744.5 1981 1751 1985 1767L1985 1767 1994 1944Q1992 1974 1985.5 2000.5 1979 2027 1960.5 2047.5 1942 2068 1906 2080.5 1870 2093 1809 2096L1809 2096Q1783 2101 1756 2101.5 1729 2102 1701 2104L1701 2104 1587 2111Q1570 2113 1551.5 2132 1533 2151 1498 2196L1498 2196 1468 2234 1703 2247Q1762 2250 1819.5 2256 1877 2262 1935 2273L1935 2273Q1961 2278 1978 2289 1995 2300 2004 2315L2004 2315 2022 2344Q2053 2393 2071 2419 2089 2445 2103 2445L2103 2445Q2119 2445 2134 2431L2134 2431 2195 2381Q2221 2361 2221 2340ZM404 1734L404 1734Q404 1755 411 1774.5 418 1794 434 1810L434 1810 441 1817Q447 1821 454 1823 461 1825 467 1827.5 473 1830 477 1834 481 1838 481 1847L481 1847 475 1877Q479 1908 489 1924.5 499 1941 512.5 1949 526 1957 542 1959.5 558 1962 574 1964L574 1964Q586 1964 596.5 1960.5 607 1957 615.5 1953.5 624 1950 630.5 1946.5 637 1943 641 1943L641 1943 647 1947Q663 1968 709 1968L709 1968Q723 1968 738 1964 753 1960 765.5 1953 778 1946 788 1936 798 1926 802 1914L802 1914Q765 1862 765 1793L765 1793Q765 1692 827 1641L827 1641Q828 1616 833.5 1596 839 1576 848 1559L848 1559Q839 1556 832.5 1553 826 1550 827 1538L827 1538 828 1515Q829 1502 822.5 1491.5 816 1481 806 1473 796 1465 784 1460.5 772 1456 760 1456L760 1456 717 1466 712 1466 694 1451Q679 1433 642 1433L642 1433Q576 1433 560 1496L560 1496 553 1512 545 1515 527 1512 517 1512Q439 1512 439 1582L439 1582Q439 1599 446 1612.5 453 1626 453 1635L453 1635Q453 1646 444 1652L444 1652Q416 1665 410 1688.5 404 1712 404 1734ZM1565 630L1565 630Q1557 630 1541.5 623 1526 616 1509 616L1509 616Q1490 616 1477.5 623 1465 630 1457 641 1449 652 1445.5 666 1442 680 1442 694L1442 694 1445 723Q1445 733 1437 735L1437 735Q1399 740 1381 763.5 1363 787 1363 817L1363 817 1366 839Q1366 850 1382 869L1382 869Q1397 887 1397 894L1397 894 1392 916 1386 935 1387 946Q1403 955 1419 970 1435 985 1452 1005L1452 1005Q1472 1005 1480.5 1011.5 1489 1018 1489 1033L1489 1033 1491 1052 1502 1073Q1518 1065 1534 1062 1550 1059 1565 1059L1565 1059 1578 1059 1587 1061Q1647 1025 1703 1025L1703 1025Q1754 1025 1798 1048L1798 1048 1799 1035 1792 985 1794 979 1807 979 1832 983Q1855 983 1876 953L1876 953Q1887 937 1892.5 922.5 1898 908 1898 892L1898 892Q1898 879 1897 869 1896 859 1892 853L1892 853 1873 817Q1873 806 1884 784L1884 784Q1895 765 1895 750L1895 750Q1895 705 1870 679 1845 653 1807 653L1807 653 1776 658 1772 657Q1759 655 1753 628L1753 628 1747 619Q1741 609 1730.5 602 1720 595 1707.5 590.5 1695 586 1681.5 584 1668 582 1656 582L1656 582Q1613 582 1597 598L1597 598Q1582 630 1565 630ZM1806 1593L1806 1593 1816 1593 1838 1597Q1873 1597 1892 1576 1911 1555 1911 1529L1911 1529Q1911 1505 1905 1495 1899 1485 1899 1474L1899 1474Q1899 1467 1920 1456L1920 1456Q1961 1435 1961 1388L1961 1388Q1961 1366 1951 1340L1951 1340Q1947 1333 1940 1328 1933 1323 1926 1318 1919 1313 1914.5 1308 1910 1303 1910 1295L1910 1295 1911 1269Q1913 1241 1893 1220.5 1873 1200 1843 1200L1843 1200 1810 1207Q1798 1206 1791 1189L1791 1189Q1770 1124 1703 1124L1703 1124Q1649 1124 1639 1151L1639 1151Q1635 1163 1624 1165L1624 1165 1615 1166 1565 1158 1554 1159Q1485 1177 1485 1237L1485 1237 1493 1284 1489 1295 1479 1300Q1397 1321 1397 1393L1397 1393Q1397 1414 1406.5 1426.5 1416 1439 1428 1447.5 1440 1456 1449.5 1462.5 1459 1469 1459 1479L1459 1479Q1459 1486 1455.5 1492.5 1452 1499 1447.5 1506.5 1443 1514 1438.5 1523.5 1434 1533 1433 1545L1433 1545Q1433 1581 1461.5 1602.5 1490 1624 1548 1624L1548 1624Q1561 1624 1572 1617.5 1583 1611 1594 1611L1594 1611 1595 1611Q1610 1611 1613 1623L1613 1623Q1618 1640 1639.5 1651.5 1661 1663 1693 1663L1693 1663Q1759 1663 1777 1630L1777 1630Q1784 1617 1787.5 1605 1791 1593 1806 1593ZM909 1943L909 1943Q909 1991 930 2022.5 951 2054 988 2054L988 2054Q1001 2054 1010.5 2049.5 1020 2045 1028 2040 1036 2035 1043 2030.5 1050 2026 1056 2026L1056 2026Q1070 2026 1078 2047L1078 2047Q1099 2084 1143 2084L1143 2084Q1175 2084 1201.5 2064.5 1228 2045 1233 2013L1233 2013Q1235 2004 1237.5 1994 1240 1984 1253 1984L1253 1984 1294 1991Q1309 1991 1323.5 1984.5 1338 1978 1349 1967 1360 1956 1367 1941 1374 1926 1374 1909L1374 1909 1364 1854Q1364 1840 1375 1835L1375 1835Q1403 1824 1403 1772L1403 1772Q1403 1712 1357 1689L1357 1689Q1351 1687 1344 1685.5 1337 1684 1330.5 1681.5 1324 1679 1319.5 1675 1315 1671 1315 1663L1315 1663 1320 1630Q1320 1590 1288 1575L1288 1575Q1272 1564 1253 1564L1253 1564 1223 1568Q1213 1568 1208 1560L1208 1560Q1181 1519 1134 1519L1134 1519Q1108 1519 1092 1530.5 1076 1542 1062 1568L1062 1568 1050 1583 1044 1585 995 1575Q975 1575 961.5 1581.5 948 1588 940 1598.5 932 1609 928.5 1622.5 925 1636 925 1650L925 1650 929 1683Q929 1696 916 1702L916 1702Q887 1717 875.5 1737.5 864 1758 864 1794L864 1794Q864 1814 869 1831.5 874 1849 885 1862L885 1862 895 1869Q921 1881 921 1895L921 1895Q921 1906 915 1915 909 1924 909 1943ZM1106 973L1106 973 1104 973Q1100 973 1087 964L1087 964Q1074 952 1060 947 1046 942 1030 942L1030 942Q1015 942 1000.5 947 986 952 973 961 960 970 951.5 982.5 943 995 940 1011L940 1011Q934 1045 911 1048L911 1048Q888 1053 871 1074 854 1095 854 1121L854 1121 854 1129 857 1140 862 1148Q873 1164 879 1174 885 1184 885 1189L885 1189Q885 1200 872 1210L872 1210Q850 1226 844 1241 838 1256 838 1280L838 1280Q838 1300 844.5 1318 851 1336 860 1349.5 869 1363 879.5 1371 890 1379 899 1379L899 1379 907 1378Q934 1378 936 1423L936 1423Q936 1446 948 1459L948 1459 969 1481 995 1477 1003 1477 1022 1460Q1045 1440 1073.5 1431 1102 1422 1134 1422L1134 1422Q1170 1422 1198 1430 1226 1438 1244 1455L1244 1455Q1256 1465 1275 1468L1275 1468Q1297 1446 1303 1426L1303 1426 1299 1392Q1299 1339 1322.5 1297 1346 1255 1386 1230L1386 1230 1387 1223Q1381 1222 1381 1210L1381 1210Q1381 1204 1384.5 1198 1388 1192 1392.5 1185 1397 1178 1400.5 1169 1404 1160 1404 1148L1404 1148Q1404 1109 1377 1068L1377 1068Q1348 1025 1320 1025L1320 1025 1294 1025Q1277 1025 1267 1003L1267 1003Q1263 971 1241.5 950 1220 929 1192 929L1192 929Q1163 929 1128 958L1128 958Q1123 963 1118 968 1113 973 1106 973ZM2385 2304L2385 2304Q2385 2346 2365.5 2383 2346 2420 2308 2455L2308 2455 2262 2497Q2245 2513 2226.5 2528.5 2208 2544 2188 2556 2168 2568 2146 2575.5 2124 2583 2100 2583L2100 2583Q2065 2583 2035.5 2564 2006 2545 1978 2508L1978 2508 1950 2470 1936 2444Q1913 2379 1876 2379L1876 2379Q1801 2379 1724 2369 1647 2359 1572 2353L1572 2353Q1521 2349 1471.5 2348 1422 2347 1372 2340L1372 2340Q1360 2353 1346.5 2366.5 1333 2380 1317 2391 1301 2402 1282 2409 1263 2416 1240 2416L1240 2416Q1163 2416 1069 2326L1069 2326Q1034 2293 994 2293L994 2293Q960 2293 850 2319L850 2319Q833 2324 816.5 2325.5 800 2327 784 2327L784 2327Q680 2327 669 2202L669 2202 667 2169 667 2147 595 2148 557 2148Q423 2148 423 2063L423 2063 427 2032 427 2026 430 2007Q416 1993 407 1978 398 1963 393 1948 388 1933 384.5 1918.5 381 1904 378 1892L378 1892Q313 1836 307 1738L307 1738Q241 1690 241 1630L241 1630Q241 1607 253 1581L253 1581Q205 1555 176.5 1510 148 1465 148 1412L148 1412 151 1384Q115 1339 115 1285L115 1285Q115 1226 155 1174L155 1174Q155 1110 201 1061L201 1061Q249 1012 307 1003L307 1003 314 1003 331 1002Q358 974 387 959L387 959 382 923Q382 888 395 858.5 408 829 434 803L434 803 433 794 434 786 434 780Q434 748 447.5 720.5 461 693 485 669L485 669Q533 621 594 616L594 616Q644 568 710 568L710 568Q762 568 802 597L802 597 842 593 840 571Q838 540 848 512 858 484 876 461.5 894 439 917.5 423 941 407 966 399L966 399 972 396 991 393Q1037 314 1129 314L1129 314Q1174 314 1218 341L1218 341Q1232 336 1255 336L1255 336Q1325 336 1387 386L1387 386Q1395 383 1403.5 381 1412 379 1422 379L1422 379Q1440 382 1453 387.5 1466 393 1475 399 1484 405 1489 411 1494 417 1496 420L1496 420 1500 425 1557 507Q1579 496 1603.5 489.5 1628 483 1656 483L1656 483Q1756 483 1813 546L1813 546 1906 539Q1966 535 2005.5 561.5 2045 588 2065 638L2065 638Q2073 658 2079 687.5 2085 717 2091 757L2091 757Q2096 793 2103.5 817.5 2111 842 2121 858L2121 858Q2130 874 2210 909L2210 909Q2252 928 2280 943.5 2308 959 2322 970L2322 970Q2351 993 2368 1021 2385 1049 2385 1087L2385 1087Q2385 1116 2353 1163L2353 1163Q2320 1213 2295.5 1245.5 2271 1278 2258 1293L2258 1293 2217 1340 2218 1426Q2247 1479 2247 1539L2247 1539Q2247 1587 2218 1627L2218 1627 2217 1656 2217 1684 2218 1742 2212 1946 2214 2014 2211 2077Q2210 2103 2216.5 2123 2223 2143 2235.5 2159.5 2248 2176 2267 2190 2286 2204 2310 2217L2310 2217Q2348 2239 2366.5 2261.5 2385 2284 2385 2304Z"/>
</svg>