<svg xmlns="http://www.w3.org/2000/svg"
    viewBox="0 0 2600 2850">
  <!--
Digitized data copyright © 2011, Google Corporation.
Android is a trademark of Google and may be registered in certain jurisdictions.
Licensed under the Apache License, Version 2.0
http://www.apache.org/licenses/LICENSE-2.0
  -->
<path d="M1859 622L1859 622 2276 1039Q2254 894 2139 766L2139 766Q2025 637 1859 622ZM2283 1156L2283 1156 1751 622Q1717 625 1683 631 1649 637 1615 647L1615 647 2265 1295Q2273 1272 2277 1237 2281 1202 2283 1156ZM1250 2295L1250 2295 1269 2280 224 1235 232 1283Q248 1380 346.5 1510 445 1640 633 1803L633 1803Q692 1854 866 1968L866 1968Q942 2019 1000 2063 1058 2107 1098 2145L1098 2145 1176 2220 1212 2260Q1223 2272 1232 2281.5 1241 2291 1250 2295ZM1436 734L1436 734 2184 1483Q2201 1457 2214.5 1431 2228 1405 2239 1379L2239 1379 1536 676Q1490 696 1436 734ZM1264 829L1264 829 2068 1633Q2108 1593 2141 1548L2141 1548 1372 779Q1362 785 1351.5 794 1341 803 1328 810.5 1315 818 1299.5 823.5 1284 829 1264 829ZM794 626L794 626 1926 1759Q1982 1715 2012 1688L2012 1688 1049 723Q998 689 935 664.5 872 640 794 626ZM1321 2223L1357 2191 1402 2146 236 981Q230 1004 225 1038 220 1072 217 1120L217 1120 1321 2223ZM543 643L543 643 1771 1871 1864 1805 678 621Q605 621 543 643ZM268 903L268 903 1461 2095 1548 2024 328 804Q296 848 268 903ZM379 745L379 745 1611 1979 1706 1915 468 677Q418 706 379 745ZM1807 522L1807 522Q1885 522 1956.5 542.5 2028 563 2095 604L2095 604Q2228 685 2305 829L2305 829Q2381 972 2381 1137L2381 1137Q2381 1200 2372.5 1257 2364 1314 2346.5 1368 2329 1422 2302.5 1474.5 2276 1527 2239 1581L2239 1581Q2202 1635 2156 1684.5 2110 1734 2056 1781L2056 1781Q2001 1827 1904 1896.5 1807 1966 1666 2061L1666 2061Q1613 2097 1563.5 2135.5 1514 2174 1469 2217L1469 2217 1391 2291 1366 2318Q1335 2353 1307 2373.5 1279 2394 1253 2394L1253 2394 1247 2394Q1218 2394 1189 2373 1160 2352 1130 2314L1130 2314Q1116 2297 1087 2269 1058 2241 1013 2201L1013 2201Q969 2160 924.5 2126 880 2092 834 2061L834 2061Q695 1968 599.5 1899 504 1830 447 1782L447 1782Q390 1735 344.5 1685 299 1635 261 1580L261 1580Q223 1525 196.5 1472.5 170 1420 152.5 1366.5 135 1313 127 1256.5 119 1200 119 1137L119 1137Q119 972 199 826L199 826Q239 753 292.5 696 346 639 409 600.5 472 562 543 542 614 522 689 522L689 522Q760 522 824 532 888 542 948 563 1008 584 1065.5 617 1123 650 1180 695L1180 695Q1233 736 1250 736L1250 736Q1266 736 1379 652L1379 652Q1418 623 1467 599 1516 575 1571 558 1626 541 1685.5 531.5 1745 522 1807 522Z"/>
</svg>