<svg xmlns="http://www.w3.org/2000/svg"
    viewBox="0 0 2600 2600">
  <!--
Digitized data copyright © 2011, Google Corporation.
Android is a trademark of Google and may be registered in certain jurisdictions.
Licensed under the Apache License, Version 2.0
http://www.apache.org/licenses/LICENSE-2.0
  -->
<path d="M2244 1874L2244 1874Q2244 1915 2228.5 1948.5 2213 1982 2185 2006 2157 2030 2118.5 2043 2080 2056 2035 2056L2035 2056Q2006 2056 1978 2051 1950 2046 1922 2040 1894 2034 1865.5 2029.5 1837 2025 1808 2026L1808 2026 1757 2027Q1733 2027 1733 2004L1733 2004 1733 1987Q1733 1940 1718 1853L1718 1853Q1710 1811 1705.5 1777.5 1701 1744 1701 1721L1701 1721Q1701 1633 1753 1573L1753 1573Q1807 1513 1881 1513L1881 1513Q1934 1513 1979 1556L1979 1556Q2001 1578 2014.5 1600.5 2028 1623 2031 1649L2031 1649Q2038 1709 2061 1715L2061 1715Q2079 1720 2097.5 1724 2116 1728 2133.5 1733.5 2151 1739 2167 1747.5 2183 1756 2197 1771L2197 1771 2203 1777Q2244 1817 2244 1874ZM1484 1909L1484 1909Q1484 1939 1480 1969 1476 1999 1471.5 2029 1467 2059 1463.5 2089 1460 2119 1462 2149L1462 2149 1466 2219Q1467 2240 1439 2240L1439 2240 1424 2240 1383 2243 1314 2254Q1254 2264 1217.5 2274 1181 2284 1165 2287L1165 2287Q1151 2289 1136.5 2290.5 1122 2292 1108 2292L1108 2292Q1008 2292 942 2235L942 2235Q876 2177 876 2091L876 2091Q876 2060 888.5 2033 901 2006 924 1982L924 1982Q947 1959 971 1943 995 1927 1023 1922L1023 1922Q1063 1914 1078.5 1906.5 1094 1899 1097 1883L1097 1883Q1106 1832 1114 1802.5 1122 1773 1128 1762L1128 1762Q1134 1751 1142 1741 1150 1731 1158 1721L1158 1721Q1206 1667 1276 1667L1276 1667Q1361 1667 1422 1734L1422 1734Q1484 1802 1484 1909ZM874 1727L874 1727Q874 1750 835 1753L835 1753Q772 1759 688 1793L688 1793Q580 1837 521 1856L521 1856Q492 1865 465.5 1868.5 439 1872 413 1872L413 1872Q301 1872 229 1804L229 1804Q157 1735 157 1645L157 1645Q157 1592 197 1532L197 1532Q212 1509 230.5 1493 249 1477 270 1464.5 291 1452 314 1442 337 1432 361 1421L361 1421Q381 1412 381 1372L381 1372 381 1339Q381 1246 436 1175L436 1175Q492 1102 588 1102L588 1102Q664 1102 733 1153L733 1153Q767 1178 789.5 1209.5 812 1241 825 1282 838 1323 843.5 1374.5 849 1426 849 1492L849 1492 849 1540Q849 1582 854 1618.5 859 1655 868 1686L868 1686Q874 1707 874 1727ZM2343 1086L2343 1086Q2341 1140 2322 1184.5 2303 1229 2261 1264L2261 1264Q2179 1332 2056 1332L2056 1332Q2021 1332 1986 1327 1951 1322 1915 1316.5 1879 1311 1843 1307 1807 1303 1771 1305L1771 1305 1688 1309Q1660 1311 1660 1273L1660 1273 1660 1257Q1660 1189 1626 1046L1626 1046Q1602 944 1602 885L1602 885Q1602 762 1671 686L1671 686Q1743 608 1841 608L1841 608Q1911 608 1972 666L1972 666Q2032 722 2049 796L2049 796 2060 845Q2061 853 2065 858.5 2069 864 2079 868.5 2089 873 2106 876 2123 879 2150 881L2150 881Q2182 883 2217 902 2252 921 2280.5 949.5 2309 978 2326.5 1014 2344 1050 2343 1086ZM485 682L485 682Q485 561 563 489L563 489Q603 453 653.5 432.5 704 412 767 417L767 417 819 421 871 429Q881 429 889.5 425 898 421 907.5 411.5 917 402 928 384.5 939 367 953 340L953 340Q983 286 1049 239L1049 239Q1116 193 1188 193L1188 193Q1258 193 1327 238L1327 238Q1393 283 1425.5 349 1458 415 1458 492L1458 492Q1458 529 1451 566 1444 603 1431 640L1431 640Q1417 677 1390 730 1363 783 1321 855L1321 855Q1304 884 1290 913 1276 942 1266 972L1266 972 1246 1038Q1239 1059 1231.5 1070.5 1224 1082 1212 1082L1212 1082Q1204 1082 1198 1080 1192 1078 1184 1075L1184 1075 1160 1065Q1110 1046 1061 1036.5 1012 1027 964 1022L964 1022Q889 1014 830 1003 771 992 726 977 681 962 648 943.5 615 925 591 903L591 903Q542 858 513.5 798.5 485 739 485 682Z"/>
</svg>