<svg xmlns="http://www.w3.org/2000/svg"
    viewBox="0 0 2600 2600">
  <!--
Digitized data copyright © 2011, Google Corporation.
Android is a trademark of Google and may be registered in certain jurisdictions.
Licensed under the Apache License, Version 2.0
http://www.apache.org/licenses/LICENSE-2.0
  -->
<path d="M869 1980L869 1980Q869 2000 848 2019 827 2038 787 2062L787 2062 716 2104 652 2137Q611 2158 590 2169 569 2180 569 2185L569 2185Q569 2190 575 2191 581 2192 584 2195L584 2195 624 2211Q675 2232 699.5 2252 724 2272 724 2296L724 2296Q724 2321 699 2360L699 2360Q677 2397 641 2397L641 2397Q627 2397 614 2393.5 601 2390 587 2383L587 2383 448 2319Q385 2290 345 2274 305 2258 289 2247L289 2247Q273 2236 266 2223.5 259 2211 259 2199L259 2199Q259 2166 315 2126L315 2126Q347 2103 404.5 2070.5 462 2038 548 1998L548 1998Q560 1992 560 1985L560 1985Q560 1981 535 1972L535 1972Q400 1920 400 1872L400 1872Q400 1853 407 1834.5 414 1816 425 1801 436 1786 451 1777 466 1768 482 1768L482 1768Q509 1768 537 1782L537 1782 589 1808 755 1877Q812 1900 840.5 1925 869 1950 869 1980ZM1608 1430L1608 1430Q1608 1461 1577.5 1485.5 1547 1510 1489 1537L1489 1537 1387 1583 1300 1617Q1181 1664 1181 1671L1181 1671Q1181 1677 1201 1686L1201 1686 1251 1713Q1311 1746 1341.5 1775 1372 1804 1372 1831L1372 1831Q1372 1846 1364 1866.5 1356 1887 1338 1913L1338 1913Q1304 1962 1258 1962L1258 1962Q1239 1962 1212.5 1949.5 1186 1937 1148 1916L1148 1916 1113 1895Q1048 1858 984 1825.5 920 1793 862 1753L862 1753Q843 1744 826.5 1732 810 1720 797.5 1706.5 785 1693 777.5 1679 770 1665 769 1652L769 1652Q768 1627 789.5 1604 811 1581 842.5 1561.5 874 1542 910 1526.5 946 1511 973 1502L973 1502Q999 1490 1039.5 1473.5 1080 1457 1134 1437L1134 1437Q1192 1417 1197 1404L1197 1404Q1197 1398 1145 1371L1145 1371Q1101 1348 1072.5 1329 1044 1310 1027.5 1294.5 1011 1279 1004.5 1264.5 998 1250 998 1236L998 1236Q998 1205 1033 1155L1033 1155Q1069 1104 1113 1104L1113 1104Q1133 1104 1160.5 1116 1188 1128 1223 1150L1223 1150 1259 1171 1468 1288Q1514 1313 1543 1331.5 1572 1350 1583 1367L1583 1367Q1608 1401 1608 1430ZM2241 489L2241 489Q2241 529 2202 562.5 2163 596 2089 634L2089 634 2026 667 1963 699 1769 788Q1731 806 1711 815 1691 824 1691 829L1691 829Q1691 838 1701 842L1701 842Q1855 910 1905 951L1905 951Q1955 993 1955 1035L1955 1035Q1955 1078 1913 1145L1913 1145Q1869 1214 1806 1214L1806 1214Q1781 1214 1746 1199.5 1711 1185 1661 1159L1661 1159 1273 962Q1141 896 1141 829L1141 829Q1141 758 1245 702L1245 702Q1326 659 1417.5 614 1509 569 1613 523L1613 523Q1694 486 1694 472L1694 472Q1694 458 1545 388L1545 388Q1509 371 1485 356 1461 341 1446 326.5 1431 312 1424.5 296.5 1418 281 1418 262L1418 262Q1418 227 1448 174L1448 174Q1478 121 1507 102.5 1536 84 1568 84L1568 84Q1594 84 1629.5 98.5 1665 113 1713 139L1713 139 1760 163 1939 249Q2023 290 2080.5 322 2138 354 2173 378L2173 378Q2241 426 2241 489Z"/>
</svg>