<svg xmlns="http://www.w3.org/2000/svg"
    viewBox="0 0 2600 2600">
  <!--
Digitized data copyright © 2011, Google Corporation.
Android is a trademark of Google and may be registered in certain jurisdictions.
Licensed under the Apache License, Version 2.0
http://www.apache.org/licenses/LICENSE-2.0
  -->
<path d="M1536 539L1536 539 1454 551Q1476 612 1478 691L1478 691Q1509 588 1536 539ZM905 1143L905 1143 905 1157Q905 1214 924 1248.5 943 1283 979 1283L979 1283Q1015 1283 1055.5 1258.5 1096 1234 1134 1180L1134 1180Q1153 1153 1175 1107.5 1197 1062 1221 997L1221 997Q1271 865 1271 754L1271 754Q1271 692 1251 629L1251 629Q1233 568 1216 568L1216 568Q1180 568 1093 680L1093 680Q1048 737 1014 797 980 857 955 923L955 923Q929 989 917 1044 905 1099 905 1143ZM1670 889L1670 889Q1669 981 1694 1031 1719 1081 1766 1081L1766 1081Q1830 1081 1898 1026L1898 1026Q2041 912 2041 667L2041 667Q2041 556 1999.5 499.5 1958 443 1887 443L1887 443 1862 454Q1843 462 1812 503L1812 503Q1797 524 1786 539 1775 554 1768 565L1768 565Q1714 649 1693 721L1693 721Q1683 757 1676.5 799 1670 841 1670 889ZM1800 1413L1855 1403 1864 1403Q1894 1403 1914 1423.5 1934 1444 1934 1473L1934 1473Q1934 1519 1886 1532L1886 1532 1663 1594Q1505 1637 1299 1705 1093 1773 830 1853L830 1853 749 1878Q736 1883 720.5 1890 705 1897 688 1897L688 1897Q647 1897 622 1871 597 1845 597 1800L597 1800Q597 1768 614.5 1746 632 1724 667 1713L667 1713 703 1702Q837 1661 966 1614 1095 1567 1225 1532L1225 1532Q1356 1497 1499 1468.5 1642 1440 1800 1413L1800 1413ZM2173 1568L2173 1568 2187 1566Q2216 1566 2236.5 1586.5 2257 1607 2257 1636L2257 1636Q2257 1658 2243.5 1675.5 2230 1693 2208 1699L2208 1699 1994 1759Q1817 1810 1624 1869 1431 1928 1220 2003L1220 2003Q1010 2077 832 2150.5 654 2224 504 2299L504 2299Q483 2307 462.5 2319.5 442 2332 413 2332L413 2332Q394 2332 375.5 2324 357 2316 342 2302 327 2288 318 2269.5 309 2251 309 2230L309 2230Q309 2197 330.5 2171.5 352 2146 395 2126L395 2126 429 2109Q557 2048 710 1979.5 863 1911 1053 1848L1053 1848Q1242 1786 1418 1740L1418 1740Q1506 1717 1695 1673.5 1884 1630 2173 1568ZM361 810L361 810Q303 810 271.5 784.5 240 759 240 714L240 714Q240 680 264 653 288 626 343 594L343 594Q466 521 618 371L618 371 645 338Q677 300 706 278.5 735 257 766 257L766 257Q792 257 811 268 830 279 843 297 856 315 862 339 868 363 868 390L868 390Q868 447 841 510 814 573 781 639L781 639Q751 699 724.5 766 698 833 675 910L675 910Q653 985 633 1083 613 1181 593 1304L593 1304Q573 1425 559.5 1520 546 1615 544 1687L544 1687Q541 1786 514 1835 487 1884 428 1884L428 1884Q381 1884 356.5 1843.5 332 1803 332 1741L332 1741 339 1663Q363 1388 405.5 1165.5 448 943 500 769L500 769Q409 810 361 810ZM700 1190L700 1190Q700 1037 770 856L770 856Q805 766 850 687.5 895 609 946.5 544.5 998 480 1055.5 431.5 1113 383 1173 353L1173 353 1179 342Q1212 308 1264 308L1264 308 1309 314Q1379 331 1429 331L1429 331Q1496 331 1608 291L1608 291Q1637 281 1660.5 273 1684 265 1704.5 258 1725 251 1743.5 246 1762 241 1782 236L1782 236Q1824 228 1850.5 218.5 1877 209 1897 212L1897 212 1926 216 1964 227Q2098 249 2179 372L2179 372Q2219 433 2239.5 507 2260 581 2260 669L2260 669Q2260 753 2243 831.5 2226 910 2194 986L2194 986Q2128 1138 2024.5 1216 1921 1294 1796 1294L1796 1294Q1636 1294 1546 1209 1456 1124 1447 970L1447 970Q1424 1061 1391.5 1138 1359 1215 1318 1280L1318 1280Q1239 1408 1154.5 1469.5 1070 1531 985 1531L985 1531Q929 1531 878 1509.5 827 1488 787 1445.5 747 1403 723.5 1339 700 1275 700 1190Z"/>
</svg>