<svg xmlns="http://www.w3.org/2000/svg"
    viewBox="0 0 2600 2850">
  <!--
Digitized data copyright © 2011, Google Corporation.
Android is a trademark of Google and may be registered in certain jurisdictions.
Licensed under the Apache License, Version 2.0
http://www.apache.org/licenses/LICENSE-2.0
  -->
<path d="M746 1549L746 1549 746 1645Q795 1632 795 1597L795 1597Q795 1571 746 1549ZM608 1334L608 1334 608 1251Q560 1257 560 1294L560 1294Q560 1319 608 1334ZM370 1690L370 1690 366 1682 368 1673 441 1578 450 1573Q454 1573 466 1579.5 478 1586 498 1596 518 1606 545.5 1616.5 573 1627 608 1636L608 1636 608 1498 583 1487Q522 1460 479.5 1442 437 1424 415 1404L415 1404Q372 1365 372 1305L372 1305Q372 1264 389 1230.5 406 1197 437 1172 468 1147 511.5 1132.5 555 1118 608 1115L608 1115 608 1065Q608 1051 621 1051L621 1051 732 1051Q746 1051 746 1065L746 1065 746 1132Q847 1156 924 1197L924 1197 929 1204 928 1214 868 1305 859 1311 854 1309 746 1270 746 1383Q812 1410 857 1435 902 1460 929.5 1485.5 957 1511 969 1538 981 1565 981 1595L981 1595Q981 1636 965 1669.5 949 1703 914 1732L914 1732Q846 1788 746 1798L746 1798 746 1842Q746 1855 732 1855L732 1855 621 1855Q608 1855 608 1842L608 1842 608 1790Q471 1763 370 1690ZM238 1993L2263 1993 2263 920 238 920 238 1993ZM178 802L178 802 2322 802Q2347 802 2364 819.5 2381 837 2381 861L2381 861 2381 2052Q2381 2076 2364 2093.5 2347 2111 2322 2111L2322 2111 178 2111Q155 2111 137 2093.5 119 2076 119 2052L119 2052 119 861Q119 837 137 819.5 155 802 178 802Z"/>
</svg>