<svg xmlns="http://www.w3.org/2000/svg"
    viewBox="0 0 2600 2850">
  <!--
Digitized data copyright © 2011, Google Corporation.
Android is a trademark of Google and may be registered in certain jurisdictions.
Licensed under the Apache License, Version 2.0
http://www.apache.org/licenses/LICENSE-2.0
  -->
<path d="M2084 2227L2084 2227 2138 1143Q2140 1107 2134 1078.5 2128 1050 2120 1028L2120 1028Q2102 985 2055 950L2055 950Q2032 933 1965.5 897 1899 861 1789 805L1789 805Q1780 800 1770.5 798.5 1761 797 1753 797L1753 797Q1702 797 1659 867L1659 867Q1644 889 1626 889L1626 889Q1607 889 1588 872L1588 872 1552 848 1183 612Q1118 571 1087 571L1087 571Q1055 571 1038.5 599.5 1022 628 1016 703L1016 703Q1005 824 1001.5 946.5 998 1069 990 1190L990 1190Q1088 1257 1165.5 1307 1243 1357 1302 1394L1302 1394Q1408 1460 1482 1510.5 1556 1561 1601 1596L1601 1596Q1688 1666 1734 1734L1734 1734Q1762 1776 1801 1831.5 1840 1887 1891 1959L1891 1959Q1942 2030 1990 2096.5 2038 2163 2084 2227ZM958 1664L961 1669 2077 2381 1975 2242Q1842 2061 1761 1948.5 1680 1836 1651 1788L1651 1788Q1635 1763 1613 1738.5 1591 1714 1562 1688L1562 1688Q1505 1637 1326 1525L1326 1525Q1181 1434 970.5 1294.5 760 1155 480 964L480 964Q402 911 376 911L376 911Q363 911 363 923L363 923 366 939Q372 957 568 1208L568 1208Q666 1333 736.5 1418 807 1503 852 1551L852 1551Q896 1599 922.5 1627 949 1655 958 1664L958 1664ZM2235 1156L2235 1156 2226 1351 2174 2387Q2173 2404 2165.5 2420.5 2158 2437 2145 2450.5 2132 2464 2114.5 2472 2097 2480 2077 2480L2077 2480Q2064 2480 2050.5 2476.5 2037 2473 2024 2465L2024 2465 909 1751 886 1731 723 1554 618 1426 477 1250Q403 1157 360 1100 317 1043 302 1021L302 1021Q286 1000 279 984 272 968 270 957L270 957 265 922Q265 901 273 881.5 281 862 296 846.5 311 831 331.5 821.5 352 812 376 812L376 812Q426 812 486 852L486 852Q516 872 571 907.5 626 943 705 997L705 997Q785 1051 832.5 1083.5 880 1116 895 1127L895 1127 904 1000 910 849Q915 759 918 699 921 639 930 610L930 610Q947 548 986.5 511 1026 474 1087 474L1087 474Q1119 474 1155.5 488.5 1192 503 1236 530L1236 530 1444 663 1604 764 1609 768Q1673 699 1753 699L1753 699Q1761 699 1767.5 699.5 1774 700 1782 701L1782 701Q1789 703 1796 704.5 1803 706 1811 710L1811 710Q1824 713 1961 783L1961 783Q2030 818 2075 846 2120 874 2143 896L2143 896Q2166 917 2184 941 2202 965 2214 996 2226 1027 2231.5 1066 2237 1105 2235 1156Z"/>
</svg>