<svg xmlns="http://www.w3.org/2000/svg"
    viewBox="0 0 2600 2850">
  <!--
Digitized data copyright © 2011, Google Corporation.
Android is a trademark of Google and may be registered in certain jurisdictions.
Licensed under the Apache License, Version 2.0
http://www.apache.org/licenses/LICENSE-2.0
  -->
<path d="M1524 871L1478 951 985 963 1036 884 1524 871ZM861 1155L911 1077 1408 1064 1361 1142 861 1155ZM736 1347L787 1269 1293 1256 1245 1335 736 1347ZM610 1539L662 1461 1177 1447 1130 1527 610 1539ZM1464 2468L1464 2468Q1519 2387 1613 2224 1707 2061 1844 1813L1844 1813Q2118 1317 2144 1235L2144 1235Q2135 1217 2128.5 1198.5 2122 1180 2119 1161L2119 1161Q2091 1217 2003.5 1378 1916 1539 1768 1808L1768 1808Q1475 2342 1456 2361L1456 2361 1453 2406Q1451 2429 1455 2444.5 1459 2460 1464 2468ZM1366 2468L1366 2468 1366 2455Q1366 2404 1357 2356L1357 2356 593 1833Q568 1816 542 1800.5 516 1785 492.5 1773 469 1761 449.5 1754 430 1747 418 1747L418 1747Q387 1747 387 1781L387 1781Q387 1799 404 1825L404 1825Q412 1837 427.5 1850 443 1863 467 1877L467 1877Q490 1891 715 2038.5 940 2186 1366 2468ZM1381 2241L1381 2241Q1426 2241 1450 2186L1450 2186 1541 2030 1647 1829Q1671 1784 1723 1684.5 1775 1585 1857 1427L1857 1427Q2021 1111 2081 982L2081 982 2082 970Q2082 943 2046 926L2046 926 1639 681 1593 758 1110 770 1160 692 1638 680 1452 573 1234 579 1286 499 1308 499Q1294 493 1283.5 488.5 1273 484 1264 480.5 1255 477 1246 475 1237 473 1225 473L1225 473Q1181 473 1146 498 1111 523 1081 572L1081 572Q991 715 891 851.5 791 988 697 1129L697 1129Q625 1236 555.5 1341 486 1446 427 1561L427 1561Q424 1568 418 1576.5 412 1585 406.5 1594 401 1603 397 1612.5 393 1622 393 1631L393 1631Q393 1654 431 1654L431 1654Q469 1654 520 1681L520 1681 538 1654 1061 1640 1014 1718 601 1729 771 1837 946 1832 898 1911 887 1911 1021 1999Q1134 2072 1215 2128 1296 2184 1345 2223L1345 2223Q1367 2241 1381 2241ZM2247 1234L2247 1234Q2247 1265 2159 1438L2159 1438Q2115 1523 2058.5 1630.5 2002 1738 1931 1869L1931 1869Q1859 2000 1795 2112.5 1731 2225 1671 2323L1671 2323Q1550 2519 1491 2577L1491 2577Q1471 2598 1438 2598L1438 2598Q1397 2598 1326 2561L1326 2561Q1254 2523 557 2044L557 2044 346 1899Q320 1881 302.5 1857.5 285 1834 274 1808 263 1782 258 1755.5 253 1729 253 1704L253 1704 258 1661Q267 1608 397 1388L397 1388Q462 1279 549.5 1145.5 637 1012 747 851L747 851Q968 528 1087 391L1087 391Q1118 354 1170 354L1170 354Q1193 354 1214 360L1214 360 1249 368Q1265 372 1312.5 393 1360 414 1439 453L1439 453Q1519 492 1630 552 1741 612 1887 695L1887 695Q2033 777 2110 827 2187 877 2196 896L2196 896Q2204 907 2207 920 2210 933 2210 947L2210 947Q2210 970 2200 997L2200 997 2201 1052Q2203 1103 2211.5 1141.5 2220 1180 2238 1209L2238 1209Q2247 1223 2247 1234Z"/>
</svg>