<svg xmlns="http://www.w3.org/2000/svg"
    viewBox="0 0 2600 2850">
  <!--
Digitized data copyright © 2011, Google Corporation.
Android is a trademark of Google and may be registered in certain jurisdictions.
Licensed under the Apache License, Version 2.0
http://www.apache.org/licenses/LICENSE-2.0
  -->
<path d="M635 460L635 460Q635 411 500 411L500 411Q449 411 389 417L389 417Q370 423 360 435L360 435Q349 446 340 508L340 508Q332 552 325.5 602.5 319 653 313 705.5 307 758 301 809.5 295 861 290 906L290 906Q290 936 318 939L318 939Q350 935 376.5 933.5 403 932 424 932L424 932 442 932 460 933Q471 829 482.5 760.5 494 692 508 658L508 658Q535 590 616 497L616 497Q635 475 635 460ZM1140 903L1140 903Q1140 855 1089 840L1089 840Q1052 829 1015.5 822.5 979 816 943 811L943 811 795 795Q727 788 662 768L662 768 630 761Q608 761 597 796 586 831 578 900L578 900 572 948Q566 1001 560 1051.5 554 1102 550 1153L550 1153 543 1257 543 1274 545 1289Q582 1309 636.5 1323 691 1337 764 1345L764 1345Q915 1361 992 1397L992 1397 1028 1186Q1036 1138 1060.5 1082 1085 1026 1129 960L1129 960Q1140 919 1140 903ZM2154 2402L2154 2402 2199 1807Q2201 1778 2191.5 1756.5 2182 1735 2165 1724L2165 1724 2106 1716Q2037 1706 1979 1694 1921 1682 1873 1665L1873 1665Q1820 1665 1812 1742L1812 1742 1807 1780Q1802 1831 1794 1880.5 1786 1930 1778.5 1980 1771 2030 1766 2081 1761 2132 1761 2185L1761 2185Q1761 2280 1792 2331L1792 2331Q1821 2367 1854.5 2390.5 1888 2414 1937 2431L1937 2431Q1988 2449 2029.5 2462 2071 2475 2088 2472L2088 2472Q2148 2472 2154 2402ZM1786 1402L1786 1402Q1786 1378 1740 1371L1740 1371 1619 1352Q1545 1340 1484 1329 1423 1318 1374 1305.5 1325 1293 1287 1277.5 1249 1262 1221 1242L1221 1242Q1207 1237 1198 1231 1189 1225 1180 1225L1180 1225Q1152 1225 1130 1331L1130 1331Q1119 1385 1113 1450 1107 1515 1100 1593L1100 1593Q1096 1636 1093.5 1663.5 1091 1691 1091 1702L1091 1702Q1091 1760 1116 1796 1141 1832 1178 1857L1178 1857Q1196 1869 1222 1880 1248 1891 1286 1902 1324 1913 1375.5 1924.5 1427 1936 1496 1948L1496 1948Q1571 1961 1638 1989L1638 1989Q1649 1919 1660.5 1849 1672 1779 1687 1707L1687 1707Q1702 1636 1712.5 1591.5 1723 1547 1728 1528L1728 1528Q1730 1501 1760 1457L1760 1457Q1786 1417 1786 1402ZM2314 1750L2314 1750Q2314 1786 2311.5 1823.5 2309 1861 2305 1902L2305 1902 2278 2227 2268 2379Q2266 2417 2262.5 2455.5 2259 2494 2253 2532L2253 2532Q2251 2547 2242.5 2560 2234 2573 2220.5 2582.5 2207 2592 2190.5 2597 2174 2602 2156 2601L2156 2601 2119 2598 2085 2593Q1970 2574 1868.5 2526.5 1767 2479 1673 2404L1673 2404 1653 2387Q1636 2373 1627 2341L1627 2341Q1622 2324 1618.5 2291.5 1615 2259 1619 2208L1619 2208 1626 2104 1609 2096Q1583 2088 1554.5 2080 1526 2072 1491 2064L1491 2064Q1376 2039 1294 2016 1212 1993 1163 1970L1163 1970Q1065 1925 1013.5 1859 962 1793 962 1705L962 1705Q962 1656 965 1608 968 1560 976 1512L976 1512Q941 1478 802 1457L802 1457 661 1435Q430 1399 430 1259L430 1259Q430 1227 434 1173.5 438 1120 448 1043L448 1043 383 1038Q349 1036 315 1041 281 1046 247 1052L247 1052 232 1055Q186 1055 186 965L186 965Q186 908 199.5 810 213 712 233 568L233 568 247 469Q251 440 259 405.5 267 371 278 354L278 354Q288 337 322 328L322 328Q339 323 362 319 385 315 415 312L415 312Q445 309 469 307 493 305 513 305L513 305Q719 305 747 441L747 441Q752 485 755 546.5 758 608 758 687L758 687Q780 692 822.5 697 865 702 931 706L931 706Q1256 727 1256 898L1256 898Q1256 944 1259 1000 1262 1056 1267 1125L1267 1125Q1326 1196 1523 1226L1523 1226Q1638 1243 1711.5 1256 1785 1269 1817 1278L1817 1278Q1881 1296 1902 1316L1902 1316Q1923 1336 1934.5 1366.5 1946 1397 1944 1452L1944 1452 1942 1562Q1968 1570 2014.5 1579 2061 1588 2130 1599L2130 1599Q2193 1609 2232 1618.5 2271 1628 2286 1636L2286 1636Q2314 1647 2314 1750Z"/>
</svg>