<svg xmlns="http://www.w3.org/2000/svg"
    viewBox="0 0 2600 2850">
  <!--
Digitized data copyright © 2011, Google Corporation.
Android is a trademark of Google and may be registered in certain jurisdictions.
Licensed under the Apache License, Version 2.0
http://www.apache.org/licenses/LICENSE-2.0
  -->
<path d="M1267 1230L1267 1230Q1295 1230 1310.5 1238.5 1326 1247 1326 1258L1326 1258Q1326 1286 1262 1286L1262 1286Q1240 1286 1220 1279.5 1200 1273 1200 1258L1200 1258Q1200 1230 1267 1230ZM1769 1218L1769 1218Q1740 1218 1740 1152L1740 1152Q1740 1092 1769 1092L1769 1092Q1797 1092 1797 1156L1797 1156Q1797 1218 1769 1218ZM1054 1092L1054 1092Q1081 1092 1081 1156L1081 1156Q1081 1218 1054 1218L1054 1218Q1025 1218 1025 1152L1025 1152Q1025 1092 1054 1092ZM589 1218L589 1218Q560 1218 560 1152L560 1152Q560 1092 589 1092L589 1092Q616 1092 616 1156L616 1156Q616 1218 589 1218ZM1349 1092L1349 1092Q1377 1092 1377 1158L1377 1158Q1377 1186 1368.5 1202 1360 1218 1349 1218L1349 1218Q1320 1218 1320 1152L1320 1152Q1320 1092 1349 1092ZM1178 1218L1178 1218Q1151 1218 1151 1148L1151 1148Q1151 1092 1178 1092L1178 1092Q1207 1092 1207 1155L1207 1155Q1207 1198 1192 1211L1192 1211Q1185 1218 1178 1218ZM1561 1230L1561 1230Q1621 1230 1621 1258L1621 1258Q1621 1286 1557 1286L1557 1286Q1494 1286 1494 1258L1494 1258Q1494 1252 1500 1246.5 1506 1241 1516 1237.5 1526 1234 1537.5 1232 1549 1230 1561 1230ZM1769 1296L1769 1296Q1797 1296 1797 1360L1797 1360Q1797 1423 1769 1423L1769 1423Q1740 1423 1740 1357L1740 1357Q1740 1336 1747 1316 1754 1296 1769 1296ZM1266 1438L1266 1438Q1326 1438 1326 1466L1326 1466Q1326 1494 1262 1494L1262 1494Q1240 1494 1220 1487.5 1200 1481 1200 1466L1200 1466Q1200 1438 1266 1438ZM972 1230L972 1230Q1000 1230 1016 1238.5 1032 1247 1032 1258L1032 1258Q1032 1286 966 1286L966 1286Q905 1286 905 1258L905 1258Q905 1230 972 1230ZM1054 1296L1054 1296Q1081 1296 1081 1360L1081 1360Q1081 1423 1054 1423L1054 1423Q1025 1423 1025 1357L1025 1357Q1025 1296 1054 1296ZM1553 1078L1553 1078Q1494 1078 1494 1051L1494 1051Q1494 1022 1558 1022L1558 1022Q1621 1022 1621 1051L1621 1051Q1621 1078 1553 1078ZM884 1218L884 1218Q855 1218 855 1152L855 1152Q855 1092 884 1092L884 1092Q911 1092 911 1158L911 1158Q911 1218 884 1218ZM1200 1051L1200 1051Q1200 1022 1264 1022L1264 1022Q1326 1022 1326 1051L1326 1051Q1326 1078 1258 1078L1258 1078 1245 1078Q1230 1078 1215 1070.5 1200 1063 1200 1051ZM676 1230L676 1230Q736 1230 736 1258L736 1258Q736 1286 671 1286L671 1286Q609 1286 609 1258L609 1258Q609 1252 615 1246.5 621 1241 631 1237.5 641 1234 652.5 1232 664 1230 676 1230ZM1857 1230L1857 1230Q1917 1230 1917 1258L1917 1258Q1917 1286 1851 1286L1851 1286Q1790 1286 1790 1258L1790 1258Q1790 1245 1811.5 1237.5 1833 1230 1857 1230ZM616 1360L616 1360Q616 1423 589 1423L589 1423Q560 1423 560 1357L560 1357Q560 1296 589 1296L589 1296Q600 1296 606 1310L606 1310Q616 1326 616 1360ZM1207 1360L1207 1360Q1207 1382 1200.5 1402.5 1194 1423 1178 1423L1178 1423Q1151 1423 1151 1353L1151 1353Q1151 1296 1178 1296L1178 1296Q1207 1296 1207 1360ZM609 1051L609 1051Q609 1022 673 1022L673 1022Q736 1022 736 1051L736 1051Q736 1078 667 1078L667 1078Q609 1078 609 1051ZM1790 1051L1790 1051Q1790 1022 1854 1022L1854 1022Q1917 1022 1917 1051L1917 1051Q1917 1078 1847 1078L1847 1078Q1790 1078 1790 1051ZM1560 1438L1560 1438Q1621 1438 1621 1466L1621 1466Q1621 1494 1557 1494L1557 1494Q1494 1494 1494 1466L1494 1466Q1494 1438 1560 1438ZM1349 1296L1349 1296Q1377 1296 1377 1362L1377 1362Q1377 1423 1349 1423L1349 1423Q1320 1423 1320 1357L1320 1357Q1320 1296 1349 1296ZM675 1438L675 1438Q736 1438 736 1466L736 1466Q736 1494 671 1494L671 1494Q609 1494 609 1466L609 1466Q609 1438 675 1438ZM911 1362L911 1362Q911 1423 884 1423L884 1423Q855 1423 855 1357L855 1357Q855 1296 884 1296L884 1296Q898 1296 904.5 1317 911 1338 911 1362ZM1855 1438L1855 1438Q1917 1438 1917 1466L1917 1466Q1917 1494 1851 1494L1851 1494Q1790 1494 1790 1466L1790 1466Q1790 1438 1855 1438ZM970 1438L970 1438Q1032 1438 1032 1466L1032 1466Q1032 1494 966 1494L966 1494Q905 1494 905 1466L905 1466Q905 1438 970 1438ZM1645 1092L1645 1092Q1672 1092 1672 1158L1672 1158Q1672 1186 1664 1202 1656 1218 1643 1218L1643 1218Q1628 1218 1621.5 1195.5 1615 1173 1615 1148L1615 1148Q1615 1092 1645 1092ZM905 1051L905 1051Q905 1022 969 1022L969 1022Q1032 1022 1032 1051L1032 1051Q1032 1078 962 1078L962 1078Q905 1078 905 1051ZM1474 1218L1474 1218Q1445 1218 1445 1152L1445 1152Q1445 1092 1474 1092L1474 1092Q1502 1092 1502 1155L1502 1155Q1502 1181 1494 1199.5 1486 1218 1474 1218ZM1939 1092L1939 1092Q1968 1092 1968 1155L1968 1155Q1968 1183 1959 1200.5 1950 1218 1939 1218L1939 1218Q1910 1218 1910 1150L1910 1150Q1910 1092 1939 1092ZM758 1092L758 1092Q787 1092 787 1155L787 1155Q787 1183 778 1200.5 769 1218 758 1218L758 1218Q729 1218 729 1152L729 1152Q729 1092 758 1092ZM1645 1296L1645 1296Q1658 1296 1665 1317 1672 1338 1672 1362L1672 1362Q1672 1423 1643 1423L1643 1423Q1628 1423 1621.5 1400.5 1615 1378 1615 1353L1615 1353Q1615 1296 1645 1296ZM1502 1360L1502 1360Q1502 1385 1494.5 1404 1487 1423 1474 1423L1474 1423Q1445 1423 1445 1357L1445 1357Q1445 1336 1451.5 1316 1458 1296 1474 1296L1474 1296Q1502 1296 1502 1360ZM1939 1296L1939 1296Q1968 1296 1968 1360L1968 1360Q1968 1385 1960.5 1404 1953 1423 1939 1423L1939 1423Q1910 1423 1910 1355L1910 1355Q1910 1296 1939 1296ZM758 1296L758 1296Q787 1296 787 1360L787 1360Q787 1385 779.5 1404 772 1423 758 1423L758 1423Q729 1423 729 1357L729 1357Q729 1296 758 1296ZM1501 1887L1501 1887Q1501 1834 1489 1815.5 1477 1797 1453 1797L1453 1797Q1424 1797 1378 1824L1378 1824Q1331 1850 1331 1877L1331 1877Q1331 1896 1371 1936L1371 1936Q1409 1974 1438 1974L1438 1974Q1465 1974 1481 1957L1481 1957Q1501 1931 1501 1887ZM1056 1974L1056 1974Q1091 1974 1129 1937L1129 1937Q1167 1900 1167 1877L1167 1877Q1167 1851 1119 1824L1119 1824Q1072 1797 1045 1797L1045 1797Q1022 1797 1010 1815.5 998 1834 998 1887L998 1887Q998 1925 1013 1949.5 1028 1974 1056 1974ZM1245 2074L1245 2074Q1268 2074 1290 2071 1312 2068 1329.5 2062 1347 2056 1357.5 2047.5 1368 2039 1368 2028L1368 2028Q1368 2003 1327 1969L1327 1969Q1285 1933 1252 1933L1252 1933Q1221 1933 1171 1961L1171 1961Q1125 1988 1125 2021L1125 2021Q1125 2074 1245 2074ZM1125 1742L1125 1742Q1125 1773 1169 1802L1169 1802Q1212 1831 1251 1831L1251 1831Q1282 1831 1325 1797L1325 1797Q1368 1760 1368 1739L1368 1739Q1368 1717 1333.5 1703.5 1299 1690 1245 1690L1245 1690Q1191 1690 1158 1703 1125 1716 1125 1742ZM1855 1981L1855 1981Q1879 1981 1900 1972 1921 1963 1936.5 1947.5 1952 1932 1961 1911 1970 1890 1970 1866L1970 1866Q1970 1842 1961 1821 1952 1800 1936.5 1784.5 1921 1769 1900 1760 1879 1751 1855 1751L1855 1751Q1831 1751 1810 1760 1789 1769 1773.5 1784.5 1758 1800 1749 1821 1740 1842 1740 1866L1740 1866Q1740 1890 1749 1911 1758 1932 1773.5 1947.5 1789 1963 1810 1972 1831 1981 1855 1981ZM643 1981L643 1981Q667 1981 688 1972.5 709 1964 724.5 1948.5 740 1933 749 1912 758 1891 758 1866L758 1866Q758 1842 749.5 1821 741 1800 725.5 1784.5 710 1769 689 1760 668 1751 643 1751L643 1751Q619 1751 598 1760 577 1769 561.5 1784.5 546 1800 537 1821 528 1842 528 1866L528 1866Q528 1890 537 1911 546 1932 561.5 1947.5 577 1963 598 1972 619 1981 643 1981ZM2069 1504L2069 1504 2069 989Q2069 966 2060.5 946 2052 926 2037 911 2022 896 2001.5 887.5 1981 879 1958 879L1958 879 542 879Q519 879 498.5 887.5 478 896 463 911 448 926 439 946 430 966 430 989L430 989 430 1504Q430 1527 439 1547 448 1567 463 1582 478 1597 498.5 1606 519 1615 542 1615L542 1615 1958 1615Q1981 1615 2001.5 1606 2022 1597 2037 1582 2052 1567 2060.5 1547 2069 1527 2069 1504ZM385 701L385 701 2114 701Q2187 701 2240 754L2240 754Q2293 809 2293 880L2293 880 2293 2010Q2293 2085 2240 2137L2240 2137Q2188 2189 2114 2189L2114 2189 385 2189Q311 2189 259 2137L259 2137Q207 2085 207 2010L207 2010 207 880Q207 807 260 754L260 754Q315 701 385 701Z"/>
</svg>