<svg xmlns="http://www.w3.org/2000/svg"
    viewBox="0 0 2600 2600">
  <!--
Digitized data copyright © 2011, Google Corporation.
Android is a trademark of Google and may be registered in certain jurisdictions.
Licensed under the Apache License, Version 2.0
http://www.apache.org/licenses/LICENSE-2.0
  -->
<path d="M1447 803L1721 803 1287 1395 853 803 1123 803 1123 250 1447 250 1447 803ZM1592 2100L1591 2078 1587 1938 1593 1706Q1595 1671 1556 1668L1556 1668 1463 1659Q1445 1657 1426.5 1655.5 1408 1654 1390 1654L1390 1654Q1358 1654 1343 1676L1343 1676Q1281 1773 1240 1799L1240 1799Q1199 1826 1143 1826L1143 1826Q1123 1826 1070.5 1821 1018 1816 931 1806L931 1806Q843 1796 787.5 1788.5 732 1781 708 1773L708 1773Q685 1766 668 1755.5 651 1745 637.5 1730 624 1715 612.5 1693 601 1671 589 1639L589 1639Q557 1548 507 1531L507 1531Q479 1521 452.5 1520.5 426 1520 398 1513L398 1513 346 1509Q329 1507 320.5 1526 312 1545 312 1598L312 1598 312 1636 306 1830 307 1907 307 1925Q307 1957 324 1974L324 1974Q334 1984 855 2055L855 2055Q1117 2090 1278.5 2109.5 1440 2129 1504 2137L1504 2137 1548 2142Q1570 2142 1582 2131.5 1594 2121 1592 2100L1592 2100ZM2290 1104L2290 1104 2290 1573Q2290 1606 2276 1632L2276 1632Q2269 1644 2234 1684 2199 1724 2134 1792L2134 1792Q2069 1860 2001.5 1928.5 1934 1997 1862 2068L1862 2068Q1790 2139 1746.5 2180 1703 2221 1688 2232L1688 2232Q1656 2256 1618 2256L1618 2256 1349 2219Q1166 2194 991 2174 816 2154 644 2127L644 2127Q472 2101 376.5 2083 281 2065 261 2057L261 2057Q220 2040 217 2010L217 2010Q214 1965 212 1927.5 210 1890 210 1858L210 1858Q210 1755 217 1656 224 1557 224 1454L224 1454Q224 1408 271 1373L271 1373 354 1310Q459 1232 582.5 1155 706 1078 846 993L846 993 1138 1390 1064 1384Q1037 1383 1017 1398L1017 1398 733 1620Q712 1632 712 1640L712 1640Q715 1647 721 1654.5 727 1662 744 1669.5 761 1677 792.5 1684 824 1691 879 1695L879 1695Q939 1700 998 1711 1057 1722 1117 1722L1117 1722 1138 1722Q1164 1722 1195.5 1695.5 1227 1669 1262 1618L1262 1618Q1279 1594 1295 1579 1311 1564 1328.5 1555 1346 1546 1366 1543 1386 1540 1411 1540L1411 1540Q1427 1540 1447.5 1541.5 1468 1543 1495 1548L1495 1548Q1522 1553 1545 1555.5 1568 1558 1588 1558L1588 1558Q1625 1558 1648 1543L1648 1543Q1661 1535 1673 1524 1685 1513 1699 1499L1699 1499Q1726 1470 1726 1464L1726 1464Q1726 1459 1715 1457L1715 1457 1414 1420 1463 1354Q1607 1370 1691 1377 1775 1384 1801 1384L1801 1384 1815 1384Q1819 1384 1837 1371 1855 1358 1884 1335 1913 1312 1953 1279 1993 1246 2041 1205L2041 1205 2102 1153Q2142 1121 2142 1111L2142 1111Q2142 1100 2121 1097 2100 1094 2076 1092L2076 1092 1882 1071 1685 1049 1751 962 2176 1011Q2290 1025 2290 1104Z"/>
</svg>