<svg xmlns="http://www.w3.org/2000/svg"
    viewBox="0 0 2600 2850">
  <!--
Digitized data copyright © 2011, Google Corporation.
Android is a trademark of Google and may be registered in certain jurisdictions.
Licensed under the Apache License, Version 2.0
http://www.apache.org/licenses/LICENSE-2.0
  -->
<path d="M1215 1365L1215 1365Q1268 1365 1297 1395.5 1326 1426 1326 1471L1326 1471Q1326 1516 1296.5 1547.5 1267 1579 1216 1579L1216 1579Q1164 1579 1135 1548 1106 1517 1106 1472L1106 1472Q1106 1427 1134 1396 1162 1365 1215 1365ZM1546 1686L1546 1686Q1586 1686 1620.5 1671 1655 1656 1679.5 1629 1704 1602 1718 1565 1732 1528 1732 1483L1732 1483Q1732 1265 1600 1130L1600 1130Q1533 1063 1446.5 1029 1360 995 1249 995L1249 995Q1039 995 903 1127L903 1127Q768 1261 768 1464L768 1464Q768 1669 903 1802L903 1802Q1039 1935 1247 1935L1247 1935Q1426 1935 1549 1841L1549 1841 1464 1727Q1374 1791 1251 1791L1251 1791Q1103 1791 1007 1701L1007 1701Q911 1608 911 1465L911 1465Q911 1320 1006 1230L1006 1230Q1101 1138 1249 1138L1249 1138Q1405 1138 1497 1230L1497 1230Q1589 1324 1589 1478L1589 1478Q1589 1504 1581 1523 1573 1542 1545 1542L1545 1542Q1515 1542 1498 1509.5 1481 1477 1481 1420L1481 1420 1481 1257Q1481 1248 1470 1248L1470 1248 1348 1248Q1338 1248 1338 1257L1338 1257 1338 1271Q1281 1240 1215 1240L1215 1240Q1109 1240 1043 1307L1043 1307Q977 1372 977 1472L977 1472Q977 1572 1043 1638L1043 1638Q1109 1703 1216 1703L1216 1703Q1332 1703 1401 1621L1401 1621Q1457 1686 1546 1686ZM1838 1341L2154 1183 2155 2133 346 2133 346 1188 662 1344Q670 1312 680 1281 690 1250 703 1220L703 1220 345 1044 345 788 2154 788 2154 1040 1795 1218Q1811 1250 1821 1281 1831 1312 1838 1341L1838 1341Z"/>
</svg>