<svg xmlns="http://www.w3.org/2000/svg"
    viewBox="0 0 2600 2600">
  <!--
Digitized data copyright © 2011, Google Corporation.
Android is a trademark of Google and may be registered in certain jurisdictions.
Licensed under the Apache License, Version 2.0
http://www.apache.org/licenses/LICENSE-2.0
  -->
<path d="M876 2121L847 1990 844 1981Q870 1970 886.5 1946.5 903 1923 903 1894L903 1894Q903 1853 876 1825.5 849 1798 809 1798L809 1798Q768 1798 741 1825.5 714 1853 714 1894L714 1894Q714 1923 729.5 1946.5 745 1970 773 1981L773 1981 740 2121 876 2121ZM2054 225L2054 225 1980 228Q1915 230 1864 224 1813 218 1775 207L1775 207Q1842 33 1977 33L1977 33Q2118 33 2186 207L2186 207Q2172 212 2139.5 217.5 2107 223 2054 225ZM2134 950L2134 950 2134 304Q2161 299 2180.5 295 2200 291 2211 286L2211 286Q2227 349 2234.5 417.5 2242 486 2242 560L2242 560 2242 908Q2242 921 2214.5 931.5 2187 942 2134 950ZM2180 1871L2180 1871Q2180 1839 2164 1794 2148 1749 2114 1698L2114 1698 2091 1664Q2066 1667 2038.5 1668 2011 1669 1980 1669L1980 1669Q1950 1669 1922.5 1668 1895 1667 1870 1664L1870 1664Q1826 1720 1803.5 1772 1781 1824 1781 1872L1781 1872Q1781 1940 1823 2028L1823 2028Q1844 2073 1869.5 2110.5 1895 2148 1921 2184L1921 2184 1951 2226 1951 1980Q1929 1972 1914.5 1952 1900 1932 1900 1906L1900 1906Q1900 1873 1923.5 1850 1947 1827 1980 1827L1980 1827Q2013 1827 2036 1850 2059 1873 2059 1906L2059 1906Q2059 1962 2009 1980L2009 1980 2009 2226 2039 2184Q2068 2142 2094.5 2101 2121 2060 2141 2016L2141 2016Q2180 1928 2180 1871ZM2011 314L2011 961 1980 961Q1927 961 1881.5 957 1836 953 1797 946L1797 946Q1719 931 1719 908L1719 908 1719 560Q1719 482 1726 413.5 1733 345 1749 286L1749 286Q1783 300 1848 307 1913 314 2011 314L2011 314ZM571 1503L1045 1503 1045 1250Q1045 1199 1028 1157.5 1011 1116 977 1081L977 1081Q909 1011 809 1011L809 1011Q713 1011 641 1081L641 1081Q571 1148 571 1250L571 1250 571 1503ZM2294 1872L2294 1872Q2294 1954 2247 2063L2247 2063Q2198 2175 2130 2256L2130 2256Q2119 2270 2094.5 2304.5 2070 2339 2033 2396L2033 2396 2029 2400Q2015 2425 1980 2425L1980 2425Q1960 2425 1950 2419L1950 2419Q1942 2414 1896 2344L1896 2344Q1875 2311 1829 2256L1829 2256Q1796 2216 1766.5 2168.5 1737 2121 1713 2065L1713 2065Q1665 1954 1665 1871L1665 1871Q1665 1849 1669.5 1820.5 1674 1792 1684 1760.5 1694 1729 1710.5 1696.5 1727 1664 1751 1633L1751 1633 1747 1623 1747 1141Q1719 1132 1719 1118L1719 1118 1719 999Q1728 1021 1805 1034 1882 1047 2011 1047L2011 1047 2011 1158 2134 1147 2134 1037Q2225 1025 2242 999L2242 999 2242 1117Q2242 1132 2212 1141L2212 1141 2212 1623 2208 1633Q2230 1662 2246.5 1694 2263 1726 2273.5 1758 2284 1790 2289 1819.5 2294 1849 2294 1872ZM1281 1250L1281 1503 1311 1503Q1332 1503 1350.5 1511 1369 1519 1382.5 1532.5 1396 1546 1404 1564.5 1412 1583 1412 1604L1412 1604 1412 2297Q1412 2318 1404 2337 1396 2356 1382.5 2370 1369 2384 1350.5 2392 1332 2400 1311 2400L1311 2400 305 2400Q284 2400 266 2392 248 2384 234.5 2370 221 2356 213.5 2337 206 2318 206 2297L206 2297 206 1604Q206 1583 213.5 1564.5 221 1546 234.5 1532.5 248 1519 266 1511 284 1503 305 1503L305 1503 335 1503 335 1250Q335 1053 474 914L474 914Q543 845 626.5 811.5 710 778 809 776L809 776Q872 775 931.5 792 991 809 1043.5 840.5 1096 872 1139.5 916 1183 960 1214.5 1013 1246 1066 1263.5 1126 1281 1186 1281 1250L1281 1250Z"/>
</svg>