<svg xmlns="http://www.w3.org/2000/svg"
    viewBox="0 0 2600 2600">
  <!--
Digitized data copyright © 2011, Google Corporation.
Android is a trademark of Google and may be registered in certain jurisdictions.
Licensed under the Apache License, Version 2.0
http://www.apache.org/licenses/LICENSE-2.0
  -->
<path d="M1037 790L1037 1571 1102 1571Q1116 1571 1116 1585L1116 1585 1116 1767Q1116 1781 1102 1781L1102 1781 760 1781Q748 1781 748 1767L748 1767 748 1585Q748 1571 760 1571L760 1571 826 1571 826 1034 738 1043Q725 1043 725 1031L725 1031 725 838Q725 826 736 826L736 826 1022 777Q1037 777 1037 790L1037 790ZM1504 1164L1504 1164Q1554 1164 1586.5 1131 1619 1098 1619 1041L1619 1041Q1619 1015 1610.5 992 1602 969 1586.5 952.5 1571 936 1550 926.5 1529 917 1504 917L1504 917Q1453 917 1421.5 952.5 1390 988 1390 1041L1390 1041Q1390 1098 1421.5 1131 1453 1164 1504 1164ZM1377 1485L1377 1485Q1377 1516 1387 1541 1397 1566 1414.5 1584 1432 1602 1455 1612 1478 1622 1504 1622L1504 1622Q1531 1622 1554.5 1611.5 1578 1601 1594.5 1582.5 1611 1564 1620.5 1539 1630 1514 1630 1485L1630 1485Q1630 1424 1594.5 1386 1559 1348 1504 1348L1504 1348Q1447 1348 1412 1386 1377 1424 1377 1485ZM1722 1240L1722 1240Q1830 1333 1830 1485L1830 1485Q1830 1624 1737 1715L1737 1715Q1647 1805 1504 1805L1504 1805Q1362 1805 1271 1715L1271 1715Q1178 1625 1178 1485L1178 1485Q1178 1336 1286 1240L1286 1240Q1210 1165 1210 1041L1210 1041Q1210 915 1294 834L1294 834Q1379 752 1504 752L1504 752Q1630 752 1714 833L1714 833Q1799 913 1799 1041L1799 1041Q1799 1158 1722 1240ZM1504 1575L1504 1575Q1483 1575 1468 1567 1453 1559 1443 1546.5 1433 1534 1428.5 1518 1424 1502 1424 1485L1424 1485Q1424 1424 1466 1404L1466 1404 1580 1518Q1563 1575 1504 1575ZM1223 1238L1223 1238Q1188 1279 1165 1326L1165 1326 1083 1243 1083 1021 1169 1108Q1176 1143 1189 1176 1202 1209 1223 1238ZM1789 1727L1789 1727 1893 1831Q1992 1716 2048 1573.5 2104 1431 2104 1269L2104 1269Q2104 1154 2075.5 1048.5 2047 943 1990 844L1990 844Q1933 744 1855 666 1777 588 1677 530L1677 530Q1477 414 1250 414L1250 414Q1088 414 945.5 470.5 803 527 688 626L688 626 825 764 727 781Q706 784 692 800 678 816 678 839L678 839 580 741Q395 976 395 1269L395 1269Q395 1497 510 1696L510 1696Q626 1896 823 2009L823 2009Q923 2066 1029 2094.5 1135 2123 1250 2123L1250 2123Q1545 2123 1778 1938L1778 1938 1660 1820Q1698 1805 1730 1781.5 1762 1758 1789 1727ZM1250 258L1250 258Q1385 258 1510 292 1635 326 1753 393L1753 393Q1987 527 2124 763L2124 763Q2261 999 2261 1269L2261 1269Q2261 1542 2124 1777L2124 1777Q1987 2013 1752 2146L1752 2146Q1516 2280 1250 2280L1250 2280Q979 2280 744 2145L744 2145Q509 2010 374 1775L374 1775Q239 1540 239 1269L239 1269Q239 998 374 764L374 764Q511 527 744 393L744 393Q979 258 1250 258Z"/>
</svg>