<svg xmlns="http://www.w3.org/2000/svg"
    viewBox="0 0 2600 2600">
  <!--
Digitized data copyright © 2011, Google Corporation.
Android is a trademark of Google and may be registered in certain jurisdictions.
Licensed under the Apache License, Version 2.0
http://www.apache.org/licenses/LICENSE-2.0
  -->
<path d="M1238 1570L1238 1570Q1111 1570 1026 1486L1026 1486Q940 1402 940 1274L940 1274Q940 1214 962.5 1162 985 1110 1032 1068L1032 1068Q1125 983 1255 983L1255 983Q1374 983 1456 1075L1456 1075Q1538 1166 1538 1285L1538 1285Q1538 1410 1450 1489L1450 1489Q1363 1570 1238 1570ZM661 1296L661 1296Q663 1411 702.5 1507 742 1603 825 1681L825 1681Q909 1759 1012 1797 1115 1835 1240 1837L1240 1837Q1322 1838 1398 1817.5 1474 1797 1540 1759.5 1606 1722 1660 1668.5 1714 1615 1752 1550.5 1790 1486 1810.5 1412 1831 1338 1829 1258L1829 1258Q1827 1187 1809 1120.5 1791 1054 1753 991L1753 991Q1676 865 1543 790L1543 790Q1414 718 1264 716L1264 716Q1136 715 1025 758.5 914 802 832.5 879.5 751 957 705 1063.5 659 1170 661 1296ZM1275 2123L1275 2123Q1520 2123 1721 2015L1721 2015Q1824 1960 1901 1884 1978 1808 2035 1711L2035 1711Q2147 1514 2147 1270L2147 1270Q2147 1071 2076.5 905 2006 739 1881 616L1881 616Q1817 616 1654 753L1654 753Q1765 830 1840 969L1840 969Q1916 1108 1916 1258L1916 1258Q1916 1349 1893.5 1431.5 1871 1514 1827 1592L1827 1592Q1738 1747 1582 1834L1582 1834Q1424 1922 1240 1922L1240 1922Q1169 1922 1101.5 1908.5 1034 1895 971.5 1870 909 1845 854 1809.5 799 1774 754 1731L754 1731Q667 1839 647 1924L647 1924Q706 1971 777 2007 848 2043 932 2069L932 2069Q1100 2123 1275 2123ZM1271 295L1271 295Q1537 295 1761 422L1761 422Q1981 548 2107 774L2107 774Q2232 998 2232 1270L2232 1270Q2232 1533 2108 1751L2108 1751Q2047 1859 1962 1943 1877 2027 1766 2087L1766 2087Q1549 2206 1275 2206L1275 2206Q995 2206 761 2093L761 2093Q644 2036 554 1956.5 464 1877 398 1772L398 1772Q268 1565 268 1300L268 1300Q268 1018 396 789L396 789Q460 672 549.5 582 639 492 754 426L754 426Q985 295 1271 295Z"/>
</svg>