<svg xmlns="http://www.w3.org/2000/svg"
    viewBox="0 0 2600 2600">
  <!--
Digitized data copyright © 2011, Google Corporation.
Android is a trademark of Google and may be registered in certain jurisdictions.
Licensed under the Apache License, Version 2.0
http://www.apache.org/licenses/LICENSE-2.0
  -->
<path d="M1674 604L1674 604Q1674 693 1734 754L1734 754Q1795 816 1886 816L1886 816Q1975 816 2037 756L2037 756Q2098 695 2098 604L2098 604Q2098 517 2037 453L2037 453Q1976 392 1886 392L1886 392Q1799 392 1736 453L1736 453Q1674 513 1674 604ZM1333 1475L1333 1475 402 2407 83 2407 83 2088 190 1983 402 1983 402 1771 614 1771 614 1559 1016 1156Q933 996 933 816L933 816Q933 616 1031 445L1031 445Q1131 274 1303 174L1303 174Q1391 124 1482.5 99 1574 74 1674 74L1674 74Q1775 74 1868 100 1961 126 2049 177L2049 177Q2137 228 2204 296 2271 364 2320 450L2320 450Q2417 623 2417 816L2417 816Q2417 1016 2318 1185L2318 1185Q2220 1356 2046 1457L2046 1457Q1958 1508 1866 1533.5 1774 1559 1674 1559L1674 1559Q1498 1559 1333 1475Z"/>
</svg>