<svg xmlns="http://www.w3.org/2000/svg"
    viewBox="0 0 2600 2850">
  <!--
Digitized data copyright © 2011, Google Corporation.
Android is a trademark of Google and may be registered in certain jurisdictions.
Licensed under the Apache License, Version 2.0
http://www.apache.org/licenses/LICENSE-2.0
  -->
<path d="M1655 1946L1655 1946Q1675 1946 1693 1923L1693 1923Q1712 1900 1712 1884L1712 1884Q1712 1873 1696 1851 1680 1829 1649 1794L1649 1794 1502 1626 1426 1532Q1415 1518 1389.5 1488.5 1364 1459 1320 1411L1320 1411Q1304 1395 1284 1395L1284 1395Q1270 1395 1255 1406.5 1240 1418 1228 1433 1216 1448 1208.5 1463.5 1201 1479 1201 1486L1201 1486Q1201 1504 1217.5 1525 1234 1546 1264 1575L1264 1575 1614 1921Q1623 1930 1631 1938 1639 1946 1655 1946ZM2228 2114L2228 2114Q2228 2199 2202 2199L2202 2199Q2185 2199 2126 2146L2126 2146Q2094 2118 2064.5 2103 2035 2088 2009 2090L2009 2090 1949 2094Q1903 2097 1903 2139L1903 2139 1903 2162Q1903 2195 1905.5 2216.5 1908 2238 1915 2248L1915 2248Q1922 2259 1941 2274 1960 2289 1991 2310L1991 2310Q2049 2349 2049 2371L2049 2371Q2049 2387 2037 2400 2025 2413 2003.5 2422 1982 2431 1952.5 2435.5 1923 2440 1887 2440L1887 2440Q1808 2440 1734 2384L1734 2384Q1697 2355 1674 2320 1651 2285 1643 2243L1643 2243Q1633 2190 1618.5 2145.5 1604 2101 1571 2068L1571 2068 1390 1880Q1315 1803 1242.5 1729 1170 1655 1098 1585L1098 1585Q1070 1557 1038 1544.5 1006 1532 972 1532L972 1532 965 1532Q945 1537 908 1539.5 871 1542 815 1542L815 1542Q652 1542 536 1490L536 1490Q420 1438 346 1311L346 1311Q272 1186 272 1024L272 1024Q272 930 288 902L288 902Q306 874 321 874L321 874Q334 874 348.5 885 363 896 374 904L374 904 428 947 585 1073Q605 1089 622 1097.5 639 1106 656 1106L656 1106Q692 1106 856 1051L856 1051Q890 1041 890 1006L890 1006 890 954Q890 836 877 802L877 802Q869 786 845 758.5 821 731 778 692L778 692 648 573Q618 551 618 527L618 527Q618 499 681 481L681 481Q744 463 833 463L833 463Q974 463 1097 541L1097 541Q1221 619 1278 747 1335 875 1335 1055L1335 1055Q1335 1106 1337.5 1151.5 1340 1197 1353 1239L1353 1239Q1359 1259 1366.5 1276 1374 1293 1385 1307L1385 1307 1436 1373Q1451 1393 1546 1501 1641 1609 1816 1809L1816 1809Q1853 1843 1967 1843L1967 1843Q2081 1843 2154 1924L2154 1924Q2191 1965 2209.5 2011.5 2228 2058 2228 2114Z"/>
</svg>