<svg xmlns="http://www.w3.org/2000/svg"
    viewBox="0 0 2600 2850">
  <!--
Digitized data copyright © 2011, Google Corporation.
Android is a trademark of Google and may be registered in certain jurisdictions.
Licensed under the Apache License, Version 2.0
http://www.apache.org/licenses/LICENSE-2.0
  -->
<path d="M2209 600L2209 600Q2209 571 2194 547.5 2179 524 2153 508 2127 492 2092.5 483.5 2058 475 2019 475L2019 475Q2006 475 1975 481L1975 481Q1945 487 1945 501L1945 501Q1945 512 2005 537L2005 537Q2055 559 2080 582.5 2105 606 2117 640L2117 640Q2128 692 2152 692L2152 692Q2172 692 2190 662L2190 662Q2209 629 2209 600ZM1842 775L1842 775Q1868 775 1882.5 758 1897 741 1897 721L1897 721Q1897 701 1882.5 684 1868 667 1836 667L1836 667Q1816 667 1801 680 1786 693 1786 721L1786 721Q1786 743 1800 759 1814 775 1842 775ZM1476 1102L1476 1102Q1501 1102 1515 1084.5 1529 1067 1529 1046L1529 1046Q1529 1026 1514.5 1009.5 1500 993 1468 993L1468 993Q1448 993 1433 1006 1418 1019 1418 1048L1418 1048Q1418 1069 1433 1085.5 1448 1102 1476 1102ZM317 2314L317 2314Q323 2349 344 2349L344 2349Q360 2349 381 2334L381 2334 1409 1626Q1415 1620 1420.5 1615.5 1426 1611 1430.5 1606 1435 1601 1437.5 1595 1440 1589 1440 1579L1440 1579 1435 1554 1224 1167Q1216 1151 1195 1149L1195 1149Q1179 1149 1165 1160L1165 1160Q1037 1263 919.5 1371 802 1479 692 1594L692 1594Q581 1708 506.5 1802.5 432 1897 394 1975L394 1975Q317 2128 317 2314ZM2043 420L2043 420Q2090 420 2130.5 434.5 2171 449 2208 477L2208 477Q2281 535 2281 615L2281 615Q2281 670 2253 713L2253 713Q2239 734 2223.5 748.5 2208 763 2186.5 773.5 2165 784 2135.5 791 2106 798 2065 804L2065 804Q1990 815 1945 849L1945 849Q1901 884 1852 975L1852 975Q1794 1081 1717 1148.5 1640 1216 1545 1246L1545 1246 1507 1250Q1451 1256 1429 1264.5 1407 1273 1407 1298L1407 1298 1543 1546Q1554 1565 1554 1594L1554 1594Q1554 1645 1513 1674L1513 1674 374 2455Q350 2473 318 2473L318 2473Q289 2470 270 2463 251 2456 240 2439 229 2422 224 2392 219 2362 219 2314L219 2314Q219 2230 233 2151.5 247 2073 277.5 1997 308 1921 354.5 1846.5 401 1772 465 1696L465 1696Q530 1620 612.5 1535 695 1450 796 1354L796 1354Q897 1258 983 1182.5 1069 1107 1145 1052L1145 1052 1160 1041 1655 610Q1873 420 2043 420Z"/>
</svg>