<svg xmlns="http://www.w3.org/2000/svg"
    viewBox="0 0 2600 2600">
  <!--
Digitized data copyright © 2011, Google Corporation.
Android is a trademark of Google and may be registered in certain jurisdictions.
Licensed under the Apache License, Version 2.0
http://www.apache.org/licenses/LICENSE-2.0
  -->
<path d="M1249 2118L1260 2119 1271 2119Q1332 2119 1374.5 2115 1417 2111 1443 2102 1469 2093 1481 2077 1493 2061 1493 2037L1493 2037Q1493 1993 1461.5 1980 1430 1967 1352 1970L1352 1970 1249 1974 1145 1970Q1113 1969 1087 1970.5 1061 1972 1042.5 1979 1024 1986 1014 2000 1004 2014 1004 2037L1004 2037Q1004 2082 1050 2100L1050 2100Q1097 2119 1226 2119L1226 2119 1237 2119 1249 2118ZM2337 929L2337 929Q2337 962 2300 988L2300 988Q2284 999 2245 1004L2245 1004Q2211 1008 2191.5 1014.5 2172 1021 2162.5 1029 2153 1037 2149.5 1047.5 2146 1058 2145 1070L2145 1070 2151 1104Q2157 1141 2164.5 1176 2172 1211 2178 1246 2184 1281 2188.5 1318 2193 1355 2193 1395L2193 1395Q2193 1613 2073 1770L2073 1770Q2012 1850 1935.5 1904 1859 1958 1762 1971L1762 1971 1723 1977Q1708 1979 1693.5 1982 1679 1985 1665 1990L1665 1990Q1632 1998 1621 2018 1610 2038 1609 2075L1609 2075Q1608 2095 1601 2114 1594 2133 1576.5 2148.5 1559 2164 1530 2174.5 1501 2185 1456 2189L1456 2189Q1416 2192 1393 2207L1393 2207Q1370 2222 1333 2301L1333 2301Q1302 2368 1264 2371L1264 2371 1249 2372 1234 2371Q1188 2367 1149 2271L1149 2271Q1137 2239 1121 2226L1121 2226Q1113 2218 1105.5 2212 1098 2206 1087.5 2201.5 1077 2197 1060.5 2194 1044 2191 1019 2189L1019 2189Q961 2184 926.5 2152 892 2120 892 2079L892 2079Q891 2070 889 2060 887 2050 884 2038L884 2038Q879 2014 866.5 2005.5 854 1997 821 1986L821 1986 771 1978Q565 1945 434 1778L434 1778Q307 1615 307 1394L307 1394Q307 1337 318 1265.5 329 1194 351 1104L351 1104 355 1071Q355 1032 311 1014L311 1014 284 1007 255 1004Q210 1000 186.5 978 163 956 163 930L163 930Q163 854 411 714L411 714 608 603Q631 590 660 574 689 558 717 558L717 558Q725 558 734.5 560 744 562 752.5 567.5 761 573 767 581.5 773 590 773 602L773 602Q773 632 720 732L720 732Q673 821 642.5 909.5 612 998 594 1085 576 1172 568.5 1256 561 1340 561 1419L561 1419Q561 1516 632 1587L632 1587Q703 1658 802 1658L802 1658Q862 1658 920 1618L920 1618Q977 1579 1000 1523L1000 1523Q1045 1417 1067.5 1279.5 1090 1142 1091 971L1091 971Q1091 817 1000 817L1000 817Q979 817 957.5 828 936 839 916 839L916 839Q895 839 880.5 828.5 866 818 866 798L866 798Q866 761 877 720.5 888 680 911 630.5 934 581 970.5 520.5 1007 460 1058 384L1058 384 1145 253Q1170 216 1195 197 1220 178 1249 178L1249 178Q1302 178 1353 253L1353 253 1444 389Q1632 670 1632 798L1632 798Q1632 815 1618.5 827 1605 839 1582 839L1582 839Q1561 839 1540 828 1519 817 1497 817L1497 817Q1408 817 1408 971L1408 971Q1408 1081 1423 1205L1423 1205Q1431 1268 1442.5 1324 1454 1380 1468 1431L1468 1431Q1497 1534 1528 1572L1528 1572Q1544 1591 1565 1607 1586 1623 1608.5 1634 1631 1645 1654 1651.5 1677 1658 1698 1658L1698 1658Q1746 1658 1789 1640.5 1832 1623 1868 1587L1868 1587Q1940 1515 1940 1419L1940 1419Q1940 1245 1896 1040L1896 1040Q1879 959 1841 866 1803 773 1746 668L1746 668Q1727 634 1727 601L1727 601Q1727 589 1733 581 1739 573 1747.5 567.5 1756 562 1765.5 560 1775 558 1783 558L1783 558Q1824 558 1969 643L1969 643 2149 748Q2243 803 2290 847.5 2337 892 2337 929Z"/>
</svg>