<svg xmlns="http://www.w3.org/2000/svg"
    viewBox="0 0 2600 2850">
  <!--
Digitized data copyright © 2011, Google Corporation.
Android is a trademark of Google and may be registered in certain jurisdictions.
Licensed under the Apache License, Version 2.0
http://www.apache.org/licenses/LICENSE-2.0
  -->
<path d="M1665 1013L1665 1069 1700 1013 1665 1013ZM848 1088L848 1013 800 1013 848 1088ZM1615 1013L1537 1013 1537 1268 1615 1145 1615 1013ZM1488 1013L1409 1013 1409 1468 1488 1345 1488 1013ZM1359 1013L1281 1013 1281 1666 1359 1543 1359 1013ZM1232 1013L1153 1013 1153 1563 1232 1684 1232 1013ZM897 1163L976 1286 976 1013 897 1013 897 1163ZM1104 1013L1026 1013 1026 1363 1104 1486 1104 1013ZM1250 1859L656 935 1844 935 1250 1859Z"/>
</svg>