<svg xmlns="http://www.w3.org/2000/svg"
    viewBox="0 0 2600 2600">
  <!--
Digitized data copyright © 2011, Google Corporation.
Android is a trademark of Google and may be registered in certain jurisdictions.
Licensed under the Apache License, Version 2.0
http://www.apache.org/licenses/LICENSE-2.0
  -->
<path d="M2059 1701L2059 1701Q2059 1730 2040 1747 2021 1764 1998 1764L1998 1764Q1969 1764 1951 1744 1933 1724 1933 1700L1933 1700Q1933 1672 1952 1654.5 1971 1637 1996 1637L1996 1637Q2014 1637 2029 1645L2029 1645Q2045 1654 2052 1668.5 2059 1683 2059 1701ZM1996 901L1996 901Q1970 901 1951.5 883.5 1933 866 1933 838L1933 838Q1933 813 1950.5 793.5 1968 774 1996 774L1996 774Q2020 774 2039.5 791 2059 808 2059 837L2059 837Q2059 876 2029 893L2029 893Q2014 901 1996 901ZM1617 522L1617 522Q1617 494 1637 476.5 1657 459 1680 459L1680 459Q1708 459 1726.5 479 1745 499 1745 522L1745 522Q1745 551 1725 569 1705 587 1682 587L1682 587Q1657 587 1637 569 1617 551 1617 522ZM567 838L567 838Q567 867 547 884 527 901 502 901L502 901Q474 901 456.5 881.5 439 862 439 838L439 838Q439 810 459 792 479 774 504 774L504 774Q530 774 548.5 791.5 567 809 567 838ZM1249 2068L1249 2068Q1277 2068 1295.5 2085.5 1314 2103 1314 2131L1314 2131Q1314 2157 1295.5 2176 1277 2195 1249 2195L1249 2195Q1223 2195 1204.5 2176 1186 2157 1186 2131L1186 2131Q1186 2103 1203.5 2085.5 1221 2068 1249 2068ZM504 1637L504 1637Q527 1637 547 1653.5 567 1670 567 1699L567 1699Q567 1724 549 1744 531 1764 502 1764L502 1764Q478 1764 458.5 1746 439 1728 439 1699L439 1699Q439 1671 459 1654 479 1637 504 1637ZM820 459L820 459Q843 459 863 476 883 493 883 522L883 522Q883 547 865 567 847 587 818 587L818 587Q795 587 775 569 755 551 755 522L755 522Q755 494 774.5 476.5 794 459 820 459ZM1680 1952L1680 1952Q1705 1952 1725 1969.5 1745 1987 1745 2015L1745 2015Q1745 2040 1727 2059.5 1709 2079 1680 2079L1680 2079Q1657 2079 1637 2061.5 1617 2044 1617 2016L1617 2016Q1617 1987 1635.5 1969.5 1654 1952 1680 1952ZM387 1205L387 1205Q415 1205 433.5 1223.5 452 1242 452 1268L452 1268Q452 1296 434 1314 416 1332 390 1332L390 1332Q362 1332 343.5 1314 325 1296 325 1268L325 1268Q325 1242 342.5 1223.5 360 1205 387 1205ZM1249 1333L1249 1333Q1275 1333 1294.5 1314.5 1314 1296 1314 1268L1314 1268Q1314 1242 1295.5 1223.5 1277 1205 1249 1205L1249 1205Q1223 1205 1204.5 1223.5 1186 1242 1186 1268L1186 1268Q1186 1296 1206 1314.5 1226 1333 1249 1333ZM883 2016L883 2016Q883 2045 863 2062 843 2079 818 2079L818 2079Q790 2079 772.5 2059.5 755 2040 755 2015L755 2015Q755 1987 775 1969.5 795 1952 818 1952L818 1952Q846 1952 864.5 1970 883 1988 883 2016ZM2111 1205L2111 1205Q2139 1205 2157 1223.5 2175 1242 2175 1268L2175 1268Q2175 1296 2157 1314.5 2139 1333 2111 1333L2111 1333Q2085 1333 2066.5 1314.5 2048 1296 2048 1268L2048 1268Q2048 1242 2066.5 1223.5 2085 1205 2111 1205ZM1329 1121L1338 1126 1708 912 1787 1050 1418 1264 1419 1268Q1419 1339 1368 1388L1368 1388Q1319 1437 1249 1437L1249 1437Q1179 1437 1130 1388L1130 1388Q1081 1339 1081 1268L1081 1268Q1081 1220 1105.5 1181 1130 1142 1170 1121L1170 1121 1170 359 1329 359 1329 1121ZM1249 2266L1249 2266Q1518 2266 1746 2135L1746 2135Q1977 2002 2111 1771L2111 1771Q2247 1538 2247 1268L2247 1268Q2247 1133 2213 1009 2179 885 2113 770L2113 770Q1979 539 1747 406L1747 406Q1517 272 1249 272L1249 272Q982 272 750 406L750 406Q519 540 386 771L386 771Q253 1001 253 1268L253 1268Q253 1404 286.5 1529.5 320 1655 389 1771L389 1771Q525 2003 755 2135L755 2135Q983 2266 1249 2266ZM1249 165L1249 165Q1397 165 1533 202 1669 239 1798 313L1798 313Q2053 459 2204 717L2204 717Q2353 972 2353 1268L2353 1268Q2353 1567 2204 1822L2204 1822Q2054 2078 1798 2225L1798 2225Q1541 2372 1249 2372L1249 2372Q954 2372 698 2224L698 2224Q443 2078 294 1820L294 1820Q147 1564 147 1268L147 1268Q147 974 294 717L294 717Q443 459 698 313L698 313Q954 165 1249 165Z"/>
</svg>