<svg xmlns="http://www.w3.org/2000/svg"
    viewBox="0 0 2600 2600">
  <!--
Digitized data copyright © 2011, Google Corporation.
Android is a trademark of Google and may be registered in certain jurisdictions.
Licensed under the Apache License, Version 2.0
http://www.apache.org/licenses/LICENSE-2.0
  -->
<path d="M2061 1700L2061 1700Q2061 1728 2041 1745.5 2021 1763 1996 1763L1996 1763Q1968 1763 1950.5 1743.5 1933 1724 1933 1700L1933 1700Q1933 1671 1953 1653.5 1973 1636 1996 1636L1996 1636Q2011 1636 2029 1644L2029 1644Q2061 1665 2061 1700ZM1682 1952L1682 1952Q1705 1952 1725 1969.5 1745 1987 1745 2016L1745 2016Q1745 2041 1726.5 2060 1708 2079 1680 2079L1680 2079Q1657 2079 1637 2061 1617 2043 1617 2015L1617 2015Q1617 1987 1637 1969.5 1657 1952 1682 1952ZM1251 2067L1251 2067Q1279 2067 1296.5 2085 1314 2103 1314 2131L1314 2131Q1314 2157 1296.5 2175.5 1279 2194 1251 2194L1251 2194Q1223 2194 1204.5 2175.5 1186 2157 1186 2131L1186 2131Q1186 2103 1204.5 2085 1223 2067 1251 2067ZM883 2016L883 2016Q883 2044 863 2061.5 843 2079 820 2079L820 2079Q792 2079 773.5 2059.5 755 2040 755 2016L755 2016Q755 1987 775 1969.5 795 1952 818 1952L818 1952Q833 1952 851 1960L851 1960Q883 1981 883 2016ZM504 1636L504 1636Q527 1636 547 1653.5 567 1671 567 1700L567 1700Q567 1724 549.5 1743.5 532 1763 504 1763L504 1763Q480 1763 459.5 1745.5 439 1728 439 1699L439 1699Q439 1671 459 1653.5 479 1636 504 1636ZM387 1205L387 1205Q415 1205 433.5 1223.5 452 1242 452 1268L452 1268Q452 1296 433.5 1314 415 1332 387 1332L387 1332Q361 1332 343 1314 325 1296 325 1268L325 1268Q325 1242 343 1223.5 361 1205 387 1205ZM567 838L567 838Q567 866 547.5 883.5 528 901 502 901L502 901Q474 901 456.5 881.5 439 862 439 838L439 838Q439 810 459.5 792 480 774 504 774L504 774Q530 774 548.5 791.5 567 809 567 838ZM820 585L820 585Q794 585 774.5 567 755 549 755 521L755 521Q755 497 772.5 477.5 790 458 818 458L818 458Q843 458 863 475.5 883 493 883 522L883 522Q883 550 864 567.5 845 585 820 585ZM1745 521L1745 521Q1745 549 1725 567 1705 585 1682 585L1682 585Q1653 585 1635 565.5 1617 546 1617 522L1617 522Q1617 494 1637 476 1657 458 1682 458L1682 458Q1708 458 1726.5 475.5 1745 493 1745 521ZM1996 901L1996 901Q1973 901 1953 883.5 1933 866 1933 838L1933 838Q1933 813 1950.5 793.5 1968 774 1996 774L1996 774Q2021 774 2041 791.5 2061 809 2061 837L2061 837Q2061 872 2029 893L2029 893Q2011 901 1996 901ZM2113 1205L2113 1205Q2140 1205 2158.5 1223 2177 1241 2177 1269L2177 1269Q2177 1295 2158.5 1313.5 2140 1332 2113 1332L2113 1332Q2085 1332 2066.5 1313.5 2048 1295 2048 1269L2048 1269Q2048 1241 2066.5 1223 2085 1205 2113 1205ZM1251 1332L1251 1332Q1263 1332 1274.5 1327 1286 1322 1295 1313.5 1304 1305 1309.5 1293.5 1315 1282 1315 1269L1315 1269Q1315 1243 1296 1224 1277 1205 1251 1205L1251 1205Q1223 1205 1204.5 1223 1186 1241 1186 1269L1186 1269Q1186 1297 1205.5 1314.5 1225 1332 1251 1332ZM1171 359L1330 359 1330 1120Q1370 1142 1394.5 1181 1419 1220 1419 1268L1419 1268Q1419 1342 1368 1390L1368 1390Q1316 1437 1251 1437L1251 1437Q1201 1437 1162 1412.5 1123 1388 1103 1347L1103 1347 676 1347 676 1188 1103 1188Q1127 1144 1171 1120L1171 1120 1171 359ZM1251 2265L1251 2265Q1517 2265 1750 2131L1750 2131Q1867 2064 1957 1973.5 2047 1883 2114 1767L2114 1767Q2248 1535 2248 1269L2248 1269Q2248 1002 2114 770L2114 770Q2047 653 1956 563 1865 473 1749 406L1749 406Q1517 272 1251 272L1251 272Q1115 272 991.5 305.5 868 339 751 406L751 406Q520 540 386 771L386 771Q253 1001 253 1269L253 1269Q253 1536 387 1769L387 1769Q521 2000 751 2132L751 2132Q868 2200 991.5 2232.5 1115 2265 1251 2265ZM1251 165L1251 165Q1547 165 1802 314L1802 314Q2059 464 2206 721L2206 721Q2353 978 2353 1269L2353 1269Q2353 1564 2206 1820L2206 1820Q2057 2078 1802 2224L1802 2224Q1546 2372 1251 2372L1251 2372Q956 2372 701 2225L701 2225Q571 2151 471 2051 371 1951 296 1822L296 1822Q147 1567 147 1269L147 1269Q147 975 294 718L294 718Q369 589 469.5 488 570 387 699 313L699 313Q958 165 1251 165Z"/>
</svg>