<svg xmlns="http://www.w3.org/2000/svg"
    viewBox="0 0 2600 2600">
  <!--
Digitized data copyright © 2011, Google Corporation.
Android is a trademark of Google and may be registered in certain jurisdictions.
Licensed under the Apache License, Version 2.0
http://www.apache.org/licenses/LICENSE-2.0
  -->
<path d="M2061 1699L2061 1699Q2061 1728 2041 1745.5 2021 1763 1995 1763L1995 1763Q1966 1763 1949.5 1742.5 1933 1722 1933 1699L1933 1699Q1933 1671 1953 1653.5 1973 1636 1996 1636L1996 1636Q2025 1636 2043 1654.5 2061 1673 2061 1699ZM1683 1952L1683 1952Q1706 1952 1725.5 1969 1745 1986 1745 2015L1745 2015Q1745 2038 1727.5 2058 1710 2078 1682 2078L1682 2078Q1658 2078 1637.5 2060.5 1617 2043 1617 2014L1617 2014Q1617 1986 1637.5 1969 1658 1952 1683 1952ZM1251 2067L1251 2067Q1279 2067 1296.5 2085.5 1314 2104 1314 2130L1314 2130Q1314 2158 1296.5 2175.5 1279 2193 1251 2193L1251 2193Q1223 2193 1204.5 2175.5 1186 2158 1186 2130L1186 2130Q1186 2104 1204.5 2085.5 1223 2067 1251 2067ZM883 2015L883 2015Q883 2043 863 2060.5 843 2078 818 2078L818 2078Q790 2078 772.5 2058 755 2038 755 2015L755 2015Q755 1987 774.5 1969.5 794 1952 818 1952L818 1952Q847 1952 865 1970.5 883 1989 883 2015ZM504 1636L504 1636Q529 1636 548 1653.5 567 1671 567 1699L567 1699Q567 1722 550 1742.5 533 1763 505 1763L505 1763Q479 1763 459 1745 439 1727 439 1699L439 1699Q439 1673 457.5 1654.5 476 1636 504 1636ZM387 1205L387 1205Q415 1205 433.5 1222.5 452 1240 452 1268L452 1268Q452 1296 433.5 1313.5 415 1331 387 1331L387 1331Q361 1331 343 1313.5 325 1296 325 1268L325 1268Q325 1240 343 1222.5 361 1205 387 1205ZM567 837L567 837Q567 865 547 882.5 527 900 504 900L504 900Q476 900 457.5 881 439 862 439 837L439 837Q439 808 459 790.5 479 773 504 773L504 773Q530 773 548.5 792 567 811 567 837ZM818 585L818 585Q795 585 775 567 755 549 755 520L755 520Q755 496 772.5 477 790 458 818 458L818 458Q843 458 863 475.5 883 493 883 521L883 521Q883 550 863 567.5 843 585 818 585ZM1745 521L1745 521Q1745 550 1725 567.5 1705 585 1682 585L1682 585Q1652 585 1634.5 565.5 1617 546 1617 522L1617 522Q1617 495 1637.5 476.5 1658 458 1682 458L1682 458Q1708 458 1726.5 475.5 1745 493 1745 521ZM1996 900L1996 900Q1973 900 1953 882.5 1933 865 1933 837L1933 837Q1933 812 1950 792.5 1967 773 1996 773L1996 773Q2021 773 2041 790.5 2061 808 2061 837L2061 837Q2061 863 2043 881.5 2025 900 1996 900ZM2113 1205L2113 1205Q2140 1205 2158.5 1222.5 2177 1240 2177 1268L2177 1268Q2177 1296 2158.5 1313.5 2140 1331 2113 1331L2113 1331Q2085 1331 2066.5 1313.5 2048 1296 2048 1268L2048 1268Q2048 1240 2066.5 1222.5 2085 1205 2113 1205ZM1315 1268L1315 1268Q1315 1240 1295.5 1222.5 1276 1205 1251 1205L1251 1205Q1223 1205 1204.5 1222.5 1186 1240 1186 1268L1186 1268Q1186 1296 1204.5 1313.5 1223 1331 1251 1331L1251 1331Q1276 1331 1295.5 1313.5 1315 1296 1315 1268ZM1171 358L1330 358 1330 1119Q1370 1142 1394.5 1181 1419 1220 1419 1268L1419 1268Q1419 1338 1370 1387L1370 1387Q1321 1436 1251 1436L1251 1436Q1201 1436 1162 1410L1162 1410 792 1624 713 1487 1082 1273Q1082 1170 1171 1119L1171 1119 1171 358ZM1251 2264L1251 2264Q1519 2264 1749 2131L1749 2131Q1979 1997 2113 1769L2113 1769Q2248 1537 2248 1268L2248 1268Q2248 1131 2214 1007 2180 883 2113 767L2113 767Q1979 539 1749 405L1749 405Q1519 272 1251 272L1251 272Q982 272 753 405L753 405Q638 472 547 562 456 652 387 769L387 769Q253 999 253 1268L253 1268Q253 1539 387 1769L387 1769Q522 1996 753 2131L753 2131Q982 2264 1251 2264ZM1251 165L1251 165Q1544 165 1802 313L1802 313Q2058 461 2206 717L2206 717Q2353 974 2353 1268L2353 1268Q2353 1563 2206 1819L2206 1819Q2058 2075 1802 2223L1802 2223Q1544 2371 1251 2371L1251 2371Q956 2371 701 2224L701 2224Q571 2150 471 2050 371 1950 296 1821L296 1821Q147 1566 147 1268L147 1268Q147 972 296 717L296 717Q371 588 471.5 487.5 572 387 701 313L701 313Q959 165 1251 165Z"/>
</svg>