<svg xmlns="http://www.w3.org/2000/svg"
    viewBox="0 0 2600 2850">
  <!--
Digitized data copyright © 2011, Google Corporation.
Android is a trademark of Google and may be registered in certain jurisdictions.
Licensed under the Apache License, Version 2.0
http://www.apache.org/licenses/LICENSE-2.0
  -->
<path d="M2061 1899L2061 1899Q2061 1928 2041 1945.5 2021 1963 1995 1963L1995 1963Q1966 1963 1949.5 1942.5 1933 1922 1933 1899L1933 1899Q1933 1871 1953 1853.5 1973 1836 1996 1836L1996 1836Q2025 1836 2043 1854.5 2061 1873 2061 1899ZM1683 2152L1683 2152Q1706 2152 1725.5 2169 1745 2186 1745 2215L1745 2215Q1745 2238 1727.5 2258 1710 2278 1682 2278L1682 2278Q1658 2278 1637.5 2260.5 1617 2243 1617 2214L1617 2214Q1617 2186 1637.5 2169 1658 2152 1683 2152ZM1251 2267L1251 2267Q1279 2267 1296.5 2285.5 1314 2304 1314 2330L1314 2330Q1314 2358 1296.5 2375.5 1279 2393 1251 2393L1251 2393Q1223 2393 1204.5 2375.5 1186 2358 1186 2330L1186 2330Q1186 2304 1204.5 2285.5 1223 2267 1251 2267ZM883 2215L883 2215Q883 2243 863 2260.5 843 2278 818 2278L818 2278Q790 2278 772.5 2258 755 2238 755 2215L755 2215Q755 2187 774.5 2169.5 794 2152 818 2152L818 2152Q847 2152 865 2170.5 883 2189 883 2215ZM504 1836L504 1836Q529 1836 548 1853.5 567 1871 567 1899L567 1899Q567 1922 550 1942.5 533 1963 505 1963L505 1963Q479 1963 459 1945 439 1927 439 1899L439 1899Q439 1873 457.5 1854.5 476 1836 504 1836ZM387 1405L387 1405Q415 1405 433.5 1422.5 452 1440 452 1468L452 1468Q452 1496 433.5 1513.5 415 1531 387 1531L387 1531Q361 1531 343 1513.5 325 1496 325 1468L325 1468Q325 1440 343 1422.5 361 1405 387 1405ZM567 1037L567 1037Q567 1065 547 1082.5 527 1100 504 1100L504 1100Q476 1100 457.5 1081 439 1062 439 1037L439 1037Q439 1008 459 990.5 479 973 504 973L504 973Q530 973 548.5 992 567 1011 567 1037ZM818 785L818 785Q795 785 775 767 755 749 755 720L755 720Q755 696 772.5 677 790 658 818 658L818 658Q843 658 863 675.5 883 693 883 721L883 721Q883 750 863 767.5 843 785 818 785ZM1745 721L1745 721Q1745 750 1725 767.5 1705 785 1682 785L1682 785Q1652 785 1634.5 765.5 1617 746 1617 722L1617 722Q1617 695 1637.5 676.5 1658 658 1682 658L1682 658Q1708 658 1726.5 675.5 1745 693 1745 721ZM1996 1100L1996 1100Q1973 1100 1953 1082.5 1933 1065 1933 1037L1933 1037Q1933 1012 1950 992.5 1967 973 1996 973L1996 973Q2021 973 2041 990.5 2061 1008 2061 1037L2061 1037Q2061 1063 2043 1081.5 2025 1100 1996 1100ZM2113 1405L2113 1405Q2140 1405 2158.5 1422.5 2177 1440 2177 1468L2177 1468Q2177 1496 2158.5 1513.5 2140 1531 2113 1531L2113 1531Q2085 1531 2066.5 1513.5 2048 1496 2048 1468L2048 1468Q2048 1440 2066.5 1422.5 2085 1405 2113 1405ZM1315 1468L1315 1468Q1315 1440 1295.5 1422.5 1276 1405 1251 1405L1251 1405Q1223 1405 1204.5 1422.5 1186 1440 1186 1468L1186 1468Q1186 1496 1204.5 1513.5 1223 1531 1251 1531L1251 1531Q1276 1531 1295.5 1513.5 1315 1496 1315 1468ZM1171 558L1330 558 1330 1319Q1370 1342 1394.5 1381 1419 1420 1419 1468L1419 1468Q1419 1538 1370 1587L1370 1587Q1321 1636 1251 1636L1251 1636Q1201 1636 1162 1610L1162 1610 792 1824 713 1687 1082 1473Q1082 1370 1171 1319L1171 1319 1171 558ZM1251 2464L1251 2464Q1519 2464 1749 2331L1749 2331Q1979 2197 2113 1969L2113 1969Q2248 1737 2248 1468L2248 1468Q2248 1331 2214 1207 2180 1083 2113 967L2113 967Q1979 739 1749 605L1749 605Q1519 472 1251 472L1251 472Q982 472 753 605L753 605Q638 672 547 762 456 852 387 969L387 969Q253 1199 253 1468L253 1468Q253 1739 387 1969L387 1969Q522 2196 753 2331L753 2331Q982 2464 1251 2464ZM1251 365L1251 365Q1544 365 1802 513L1802 513Q2058 661 2206 917L2206 917Q2353 1174 2353 1468L2353 1468Q2353 1763 2206 2019L2206 2019Q2058 2275 1802 2423L1802 2423Q1544 2571 1251 2571L1251 2571Q956 2571 701 2424L701 2424Q571 2350 471 2250 371 2150 296 2021L296 2021Q147 1766 147 1468L147 1468Q147 1172 296 917L296 917Q371 788 471.5 687.5 572 587 701 513L701 513Q959 365 1251 365Z"/>
</svg>