<svg xmlns="http://www.w3.org/2000/svg"
    viewBox="0 0 2600 2600">
  <!--
Digitized data copyright © 2011, Google Corporation.
Android is a trademark of Google and may be registered in certain jurisdictions.
Licensed under the Apache License, Version 2.0
http://www.apache.org/licenses/LICENSE-2.0
  -->
<path d="M1281 647L1220 647 1214 800 1284 803 1281 647ZM1313 1146L1299 1026 1201 1026 1187 1147 1232 1147 1276 1145 1294 1145 1313 1146ZM1054 1427L1054 1427Q1054 1462 1076 1488L1076 1488Q1127 1503 1240 1503L1240 1503Q1276 1503 1308 1501.5 1340 1500 1366 1496L1366 1496Q1393 1492 1409 1486.5 1425 1481 1433 1473 1441 1465 1443.5 1455 1446 1445 1446 1432L1446 1432Q1446 1404 1432 1398L1432 1398Q1395 1388 1279 1388L1279 1388 1213 1388Q1095 1388 1064 1398L1064 1398Q1054 1408 1054 1427ZM1955 2347L1955 2347 2012 2399 1736 2399Q1720 2377 1694 2348.5 1668 2320 1632 2282L1632 2282Q1560 2205 1518 2182L1518 2182Q1474 2157 1437 2157L1437 2157Q1389 2157 1362.5 2187.5 1336 2218 1336 2268L1336 2268Q1336 2316 1337 2349 1338 2382 1340 2399L1340 2399 1160 2399 1164 2268Q1166 2217 1138.5 2187 1111 2157 1064 2157L1064 2157Q1012 2157 957 2198L957 2198Q931 2218 882.5 2268 834 2318 763 2399L763 2399 488 2399Q659 2245 771 2105L771 2105Q883 1966 950 1841L950 1841Q985 1778 1011 1705.5 1037 1633 1057 1552L1057 1552Q1040 1548 1027 1535.5 1014 1523 1004.5 1506 995 1489 990 1468.5 985 1448 985 1427L985 1427Q985 1406 990 1387.5 995 1369 1008 1355.5 1021 1342 1044 1333.5 1067 1325 1102 1323L1102 1323Q1132 1139 1146.5 956.5 1161 774 1161 588L1161 588 1210 588 1225 70Q1226 57 1235 49 1244 41 1255 41L1255 41Q1268 41 1276 49 1284 57 1284 70L1284 70 1299 589 1338 589Q1338 972 1398 1324L1398 1324Q1458 1327 1486 1352 1514 1377 1514 1429L1514 1429Q1514 1522 1442 1550L1442 1550Q1457 1612 1474 1664 1491 1716 1512 1765 1533 1814 1559.5 1862 1586 1910 1622 1963L1622 1963Q1646 1999 1674 2036 1702 2073 1734 2113L1734 2113Q1766 2153 1801 2191.5 1836 2230 1874 2269L1874 2269Q1949 2347 1955 2347Z"/>
</svg>