<svg xmlns="http://www.w3.org/2000/svg"
    viewBox="0 0 2600 2850">
  <!--
Digitized data copyright © 2011, Google Corporation.
Android is a trademark of Google and may be registered in certain jurisdictions.
Licensed under the Apache License, Version 2.0
http://www.apache.org/licenses/LICENSE-2.0
  -->
<path d="M1281 847L1220 847 1214 1000 1284 1003 1281 847ZM1313 1346L1299 1226 1201 1226 1187 1347 1232 1347 1276 1345 1294 1345 1313 1346ZM1054 1627L1054 1627Q1054 1662 1076 1688L1076 1688Q1127 1703 1240 1703L1240 1703Q1276 1703 1308 1701.5 1340 1700 1366 1696L1366 1696Q1393 1692 1409 1686.5 1425 1681 1433 1673 1441 1665 1443.5 1655 1446 1645 1446 1632L1446 1632Q1446 1604 1432 1598L1432 1598Q1395 1588 1279 1588L1279 1588 1213 1588Q1095 1588 1064 1598L1064 1598Q1054 1608 1054 1627ZM1955 2547L1955 2547 2012 2599 1736 2599Q1720 2577 1694 2548.5 1668 2520 1632 2482L1632 2482Q1560 2405 1518 2382L1518 2382Q1474 2357 1437 2357L1437 2357Q1389 2357 1362.5 2387.5 1336 2418 1336 2468L1336 2468Q1336 2516 1337 2549 1338 2582 1340 2599L1340 2599 1160 2599 1164 2468Q1166 2417 1138.5 2387 1111 2357 1064 2357L1064 2357Q1012 2357 957 2398L957 2398Q931 2418 882.5 2468 834 2518 763 2599L763 2599 488 2599Q659 2445 771 2305L771 2305Q883 2166 950 2041L950 2041Q985 1978 1011 1905.5 1037 1833 1057 1752L1057 1752Q1040 1748 1027 1735.5 1014 1723 1004.5 1706 995 1689 990 1668.5 985 1648 985 1627L985 1627Q985 1606 990 1587.5 995 1569 1008 1555.5 1021 1542 1044 1533.5 1067 1525 1102 1523L1102 1523Q1132 1339 1146.5 1156.5 1161 974 1161 788L1161 788 1210 788 1225 270Q1226 257 1235 249 1244 241 1255 241L1255 241Q1268 241 1276 249 1284 257 1284 270L1284 270 1299 789 1338 789Q1338 1172 1398 1524L1398 1524Q1458 1527 1486 1552 1514 1577 1514 1629L1514 1629Q1514 1722 1442 1750L1442 1750Q1457 1812 1474 1864 1491 1916 1512 1965 1533 2014 1559.5 2062 1586 2110 1622 2163L1622 2163Q1646 2199 1674 2236 1702 2273 1734 2313L1734 2313Q1766 2353 1801 2391.5 1836 2430 1874 2469L1874 2469Q1949 2547 1955 2547Z"/>
</svg>