<svg xmlns="http://www.w3.org/2000/svg"
    viewBox="0 0 2600 2600">
  <!--
Digitized data copyright © 2011, Google Corporation.
Android is a trademark of Google and may be registered in certain jurisdictions.
Licensed under the Apache License, Version 2.0
http://www.apache.org/licenses/LICENSE-2.0
  -->
<path d="M2036 1570L2036 1570 2037 1561Q2037 1538 2015 1531L2015 1531Q1979 1519 1949.5 1499.5 1920 1480 1899 1456 1878 1432 1866.5 1405.5 1855 1379 1855 1352L1855 1352Q1855 1341 1846.5 1331 1838 1321 1824 1321L1824 1321Q1794 1321 1792 1352L1792 1352Q1792 1390 1806 1425.5 1820 1461 1846.5 1492 1873 1523 1911 1548.5 1949 1574 1996 1590L1996 1590 2006 1591Q2030 1591 2036 1570ZM1875 1786L1875 1786Q1875 1753 1833 1724L1833 1724Q1813 1710 1784.5 1697 1756 1684 1716 1674.5 1676 1665 1623 1659.5 1570 1654 1501 1654L1501 1654Q1401 1654 1322.5 1660.5 1244 1667 1186 1679L1186 1679Q1071 1703 1005.5 1746 940 1789 940 1839L940 1839Q940 1881 995 1920L995 1920Q1050 1959 1111 1959L1111 1959Q1172 1959 1240 1920L1240 1920Q1371 1843 1418 1827L1418 1827Q1464 1809 1522 1809L1522 1809Q1602 1809 1654 1838L1654 1838Q1714 1871 1755 1871L1755 1871Q1780 1871 1801.5 1863 1823 1855 1839.5 1843 1856 1831 1865.5 1816 1875 1801 1875 1786ZM962 1405L962 1405 961 1416Q961 1439 981 1445L981 1445Q982 1445 992.5 1448.5 1003 1452 1019.5 1456 1036 1460 1058.5 1463 1081 1466 1108 1466L1108 1466Q1207 1466 1290 1418L1290 1418Q1375 1369 1375 1337L1375 1337Q1375 1325 1366 1315.5 1357 1306 1344 1306L1344 1306Q1331 1306 1322 1315L1322 1315Q1234 1403 1107 1403L1107 1403Q1062 1403 1034 1395.5 1006 1388 1003 1386L1003 1386 992 1385Q973 1385 962 1405ZM686 1110L686 1110Q686 1100 677 1100L677 1100Q611 1100 546 1170L546 1170Q483 1239 483 1308L483 1308Q483 1332 498 1355 513 1378 546 1378L546 1378Q579 1378 595.5 1351.5 612 1325 620 1271L620 1271 627 1222Q641 1177 679 1129L679 1129Q682 1124 684 1119.5 686 1115 686 1110ZM2382 1750L2382 1750Q2382 1791 2380 1824 2378 1857 2375 1883L2375 1883Q2350 1917 2277 1947.5 2204 1978 2069 2009L2069 2009Q2002 2024 1916.5 2036.5 1831 2049 1725 2058L1725 2058Q1516 2076 1346 2076L1346 2076Q1164 2076 911 2058L911 2058Q659 2040 545 2013L545 2013Q421 1984 344.5 1956.5 268 1929 223.5 1905 179 1881 158 1862 137 1843 125 1832L125 1832Q122 1823 120 1801 118 1779 118 1743L118 1743Q118 1686 125 1633.5 132 1581 147 1533L147 1533Q177 1435 245 1310L245 1310Q315 1182 432 1080.5 549 979 714 897L714 897 665 486 664 477Q664 444 688 420.5 712 397 746 397L746 397Q778 397 800.5 417 823 437 827 467L827 467 870 838Q947 814 1033.5 802.5 1120 791 1219 791L1219 791Q1408 791 1571.5 826.5 1735 862 1888 947L1888 947 2071 617Q2095 576 2143 576L2143 576Q2161 576 2175.5 583 2190 590 2200.5 601.5 2211 613 2217 628 2223 643 2223 659L2223 659Q2223 669 2221 678.5 2219 688 2214 697L2214 697 2022 1039Q2063 1072 2100 1105 2137 1138 2170 1174.5 2203 1211 2232.5 1252.5 2262 1294 2288 1344L2288 1344Q2314 1394 2332 1442 2350 1490 2361 1539.5 2372 1589 2377 1641 2382 1693 2382 1750Z"/>
</svg>