<svg xmlns="http://www.w3.org/2000/svg"
    viewBox="0 0 2600 2850">
  <!--
Digitized data copyright © 2011, Google Corporation.
Android is a trademark of Google and may be registered in certain jurisdictions.
Licensed under the Apache License, Version 2.0
http://www.apache.org/licenses/LICENSE-2.0
  -->
<path d="M1255 2005L1255 2005Q1300 2016 1337 2022.5 1374 2029 1410 2043L1410 2043Q1363 2051 1322.5 2054 1282 2057 1246 2057L1246 2057Q1168 2057 1097 2044L1097 2044Q1133 2029 1171.5 2022.5 1210 2016 1255 2005ZM1254 1520L1254 1520Q1225 1520 1202 1506 1179 1492 1179 1467L1179 1467Q1179 1430 1254 1430L1254 1430Q1322 1430 1322 1463L1322 1463Q1322 1475 1316 1485 1310 1495 1300 1503 1290 1511 1278 1515.5 1266 1520 1254 1520ZM541 1566L541 1566 554 1564Q541 1499 541 1427L541 1427Q541 1391 550 1310L550 1310Q448 1328 448 1425L448 1425 448 1433 450 1444Q457 1498 479 1532 501 1566 541 1566ZM2052 1425L2052 1425Q2052 1328 1952 1310L1952 1310Q1955 1339 1956 1368.5 1957 1398 1957 1429L1957 1429Q1957 1506 1948 1564L1948 1564 1960 1566Q1982 1566 1999 1554.5 2016 1543 2028 1524 2040 1505 2046 1479.5 2052 1454 2052 1425ZM1032 1423L1032 1423Q1014 1423 998.5 1415 983 1407 971.5 1393 960 1379 953 1360.5 946 1342 946 1321L946 1321Q946 1299 953 1280 960 1261 971.5 1247 983 1233 998.5 1225 1014 1217 1032 1217L1032 1217Q1068 1217 1092.5 1246.5 1117 1276 1117 1321L1117 1321Q1117 1363 1092.5 1393 1068 1423 1032 1423ZM1469 1423L1469 1423Q1451 1423 1435.5 1415 1420 1407 1408 1393 1396 1379 1389.5 1360.5 1383 1342 1383 1321L1383 1321Q1383 1299 1389.5 1280 1396 1261 1408 1247 1420 1233 1435.5 1225 1451 1217 1469 1217L1469 1217Q1505 1217 1529.5 1246.5 1554 1276 1554 1321L1554 1321Q1554 1363 1529.5 1393 1505 1423 1469 1423ZM2087 2117L2087 2117Q2087 2184 2037 2228L2037 2228Q1985 2271 1919 2271L1919 2271Q1807 2271 1656 2148L1656 2148 1578 2085Q1524 2041 1468.5 2012.5 1413 1984 1353 1971L1353 1971Q1381 1957 1403.5 1934.5 1426 1912 1442 1884 1458 1856 1466 1824 1474 1792 1474 1760L1474 1760Q1474 1677 1432.5 1619 1391 1561 1310 1545L1310 1545Q1313 1534 1329 1524 1345 1514 1373 1514L1373 1514Q1402 1514 1429.5 1525 1457 1536 1486 1557.5 1515 1579 1546 1612 1577 1645 1612 1689L1612 1689 1677 1768Q1706 1805 1765.5 1846.5 1825 1888 1913 1938L1913 1938 2001 1987Q2087 2036 2087 2117ZM592 2271L592 2271Q557 2271 526 2259.5 495 2248 472 2227.5 449 2207 435.5 2178.5 422 2150 422 2117L422 2117Q422 2037 508 1987L508 1987 576 1949Q641 1911 692.5 1880 744 1849 782 1819L782 1819Q804 1802 836 1765 868 1728 911 1671L911 1671Q1028 1514 1138 1514L1138 1514Q1161 1514 1181 1524 1201 1534 1201 1545L1201 1545Q1201 1557 1189 1565 1177 1573 1162 1580.5 1147 1588 1135 1596.5 1123 1605 1123 1620L1123 1620Q1123 1629 1132 1629L1132 1629 1154 1623Q1226 1593 1266 1593L1266 1593 1272 1593Q1306 1593 1334 1605 1362 1617 1381.5 1638.5 1401 1660 1411.5 1690.5 1422 1721 1422 1757L1422 1757Q1422 1930 1223 1957L1223 1957 1194 1964Q1063 1977 920 2096L920 2096Q865 2142 819 2175 773 2208 733.5 2229.5 694 2251 659 2261 624 2271 592 2271ZM2134 1423L2134 1423Q2135 1479 2119 1522 2103 1565 2075.5 1595 2048 1625 2013 1641 1978 1657 1942 1657L1942 1657 1926 1656Q1894 1754 1831 1830L1831 1830Q1790 1802 1758.5 1775.5 1727 1749 1706 1723L1706 1723Q1717 1699 1723 1674.5 1729 1650 1729 1622L1729 1622Q1729 1584 1716 1551L1716 1551Q1695 1494 1695 1419L1695 1419Q1695 1392 1699 1367.5 1703 1343 1708 1320 1713 1297 1717 1274.5 1721 1252 1721 1229L1721 1229Q1721 1157 1680 1095L1680 1095Q1638 1032 1584 1013L1584 1013Q1560 1005 1509 1005L1509 1005Q1465 1005 1381 1050L1381 1050Q1297 1095 1254 1095L1254 1095Q1220 1095 1188 1081 1156 1067 1123.5 1050 1091 1033 1059 1019 1027 1005 993 1005L993 1005Q937 1005 916 1013L916 1013Q857 1036 818 1099L818 1099Q779 1164 779 1228L779 1228Q779 1243 782.5 1266 786 1289 793 1321L793 1321Q800 1353 802.5 1377.5 805 1402 805 1421L805 1421Q805 1442 801.5 1467.5 798 1493 790 1522L790 1522Q782 1554 777 1576 772 1598 771 1612L771 1612Q770 1645 777.5 1674.5 785 1704 799 1730L799 1730Q780 1751 748.5 1777 717 1803 673 1834L673 1834Q641 1798 617 1754 593 1710 576 1656L576 1656 559 1657Q520 1661 486.5 1644.5 453 1628 424 1598L424 1598Q366 1540 366 1425L366 1425Q366 1378 379 1338 392 1298 416 1269.5 440 1241 474.5 1225 509 1209 552 1209L552 1209 567 1210Q600 1083 665.5 982 731 881 820.5 811 910 741 1018 704.5 1126 668 1243 670L1243 670Q1329 672 1405.5 686 1482 700 1552 731L1552 731Q1622 762 1682 810 1742 858 1791 919.5 1840 981 1876 1054.5 1912 1128 1933 1210L1933 1210 1948 1209Q1997 1209 2045 1236L2045 1236Q2093 1264 2112.5 1314 2132 1364 2134 1423Z"/>
</svg>