<svg xmlns="http://www.w3.org/2000/svg"
    viewBox="0 0 2600 2850">
  <!--
Digitized data copyright © 2011, Google Corporation.
Android is a trademark of Google and may be registered in certain jurisdictions.
Licensed under the Apache License, Version 2.0
http://www.apache.org/licenses/LICENSE-2.0
  -->
<path d="M1011 1562L1011 1562Q1011 1546 999.5 1534 988 1522 971 1522L971 1522Q937 1522 933 1556L933 1556Q931 1570 919.5 1593.5 908 1617 886.5 1639.5 865 1662 834.5 1678 804 1694 764 1692L764 1692Q744 1691 727.5 1686.5 711 1682 699.5 1677.5 688 1673 681 1669 674 1665 674 1664L674 1664Q663 1658 649 1658L649 1658Q634 1658 622 1668.5 610 1679 610 1696L610 1696Q610 1716 626 1726L626 1726Q642 1742 680.5 1756 719 1770 764 1770L764 1770Q818 1770 865.5 1749.5 913 1729 945 1695L945 1695Q977 1660 994 1622 1011 1584 1011 1562ZM1859 1671L1859 1671Q1859 1654 1847.5 1643.5 1836 1633 1820 1633L1820 1633Q1804 1633 1794 1643L1794 1643Q1748 1677 1695 1677L1695 1677Q1571 1677 1526 1555L1526 1555Q1520 1525 1488 1525L1488 1525Q1471 1525 1459.5 1536.5 1448 1548 1448 1563L1448 1563 1450 1571Q1450 1573 1455 1587 1460 1601 1471 1621.5 1482 1642 1500.5 1665.5 1519 1689 1546 1709 1573 1729 1609.5 1742 1646 1755 1693 1755L1693 1755Q1725 1755 1755 1747 1785 1739 1808 1727 1831 1715 1845 1700 1859 1685 1859 1671ZM1718 2098L1718 2098Q1718 2043 1675 2001L1675 2001Q1653 1980 1627.5 1969.5 1602 1959 1570 1959L1570 1959Q1526 1959 1494.5 1974 1463 1989 1435 2007.5 1407 2026 1378 2041 1349 2056 1310 2056L1310 2056Q1295 2056 1271 2050.5 1247 2045 1214 2034L1214 2034Q1182 2023 1157 2018 1132 2013 1115 2013L1115 2013Q1080 2013 1050.5 2024 1021 2035 999.5 2054.5 978 2074 965.5 2101.5 953 2129 953 2161L953 2161Q953 2223 997 2259.5 1041 2296 1115 2296L1115 2296Q1191 2296 1240 2266L1240 2266Q1312 2224 1364 2224L1364 2224 1377 2224 1418 2228 1484 2244 1524 2249Q1614 2249 1666 2208 1718 2167 1718 2098ZM2406 1937L2406 1937Q2406 1957 2391 1965.5 2376 1974 2359 1974L2359 1974 2179 1941Q2171 1967 2159.5 1993 2148 2019 2134 2043L2134 2043 2306 2098Q2332 2107 2332 2136L2332 2136Q2332 2153 2320.5 2164 2309 2175 2294 2175L2294 2175 2281 2173 2089 2112Q2005 2214 1867 2287L1867 2287Q1798 2323 1720.5 2349.5 1643 2376 1556 2392L1556 2392Q1470 2408 1390 2416 1310 2424 1235 2424L1235 2424Q1160 2424 1079.5 2415.5 999 2407 911 2389L911 2389Q734 2354 605 2282.5 476 2211 398 2117L398 2117 220 2173 208 2175Q192 2175 180 2164 168 2153 168 2136L168 2136Q168 2107 195 2098L195 2098 351 2049Q323 1999 303 1945L303 1945 141 1974Q125 1974 110 1965.5 95 1957 95 1937L95 1937Q95 1901 127 1896L127 1896 284 1868 271 1766 126 1744Q91 1738 91 1705L91 1705Q91 1689 102.5 1677.5 114 1666 131 1666L131 1666 136 1666 269 1686Q269 1556 312 1439L312 1439Q274 1352 243.5 1269.5 213 1187 190 1106L190 1106Q167 1025 156 960.5 145 896 145 845L145 845Q145 757 175.5 717.5 206 678 269 678L269 678Q297 678 331.5 685 366 692 406 705L406 705Q446 719 489 736.5 532 754 577 775L577 775Q623 797 686.5 832.5 750 868 834 919L834 919Q929 885 1030 867.5 1131 850 1242 850L1242 850Q1447 850 1637 915L1637 915 1706 866Q1765 823 1828 783 1891 743 1963 707L1963 707Q2106 634 2186 634L2186 634Q2307 634 2307 837L2307 837Q2307 941 2271 1112L2271 1112Q2252 1197 2227.5 1280.5 2203 1364 2173 1450L2173 1450Q2193 1510 2203 1569 2213 1628 2213 1689L2213 1689 2365 1666 2369 1666Q2386 1666 2397.5 1677.5 2409 1689 2409 1704L2409 1704Q2409 1738 2376 1744L2376 1744 2212 1768 2199 1864 2373 1896Q2406 1902 2406 1937Z"/>
</svg>