<svg xmlns="http://www.w3.org/2000/svg"
    viewBox="0 0 2600 2850">
  <!--
Digitized data copyright © 2011, Google Corporation.
Android is a trademark of Google and may be registered in certain jurisdictions.
Licensed under the Apache License, Version 2.0
http://www.apache.org/licenses/LICENSE-2.0
  -->
<path d="M1247 1524L1247 1524Q1235 1524 1222.5 1520 1210 1516 1199.5 1509.5 1189 1503 1182 1493 1175 1483 1175 1471L1175 1471Q1175 1434 1250 1434L1250 1434Q1318 1434 1318 1469L1318 1469Q1318 1493 1297.5 1508.5 1277 1524 1247 1524ZM1028 1220L1028 1220Q1064 1220 1088.5 1249.5 1113 1279 1113 1324L1113 1324Q1113 1369 1088.5 1398.5 1064 1428 1028 1428L1028 1428Q1010 1428 994.5 1420 979 1412 967.5 1398 956 1384 949 1365 942 1346 942 1324L942 1324Q942 1302 949 1283 956 1264 967.5 1250 979 1236 994.5 1228 1010 1220 1028 1220ZM1465 1220L1465 1220Q1483 1220 1498.5 1228 1514 1236 1526 1250 1538 1264 1544.5 1283 1551 1302 1551 1324L1551 1324Q1551 1346 1544.5 1365 1538 1384 1526 1398 1514 1412 1498.5 1420 1483 1428 1465 1428L1465 1428Q1447 1428 1431.5 1420 1416 1412 1404 1398 1392 1384 1385.5 1365 1379 1346 1379 1324L1379 1324Q1379 1302 1385.5 1283 1392 1264 1404 1250 1416 1236 1431.5 1228 1447 1220 1465 1220ZM1333 1724L1333 1724Q1333 1766 1312 1790.5 1291 1815 1253 1815L1253 1815Q1228 1815 1210.5 1807 1193 1799 1182 1785.5 1171 1772 1166 1754 1161 1736 1161 1717L1161 1717Q1161 1661 1186 1620L1186 1620Q1211 1575 1247 1575L1247 1575 1258 1576Q1273 1578 1286.5 1590.5 1300 1603 1310.5 1623.5 1321 1644 1327 1670 1333 1696 1333 1724ZM1227 1929L1227 1929 1268 1929Q1467 1929 1595 1843L1595 1843Q1725 1754 1725 1629L1725 1629Q1725 1611 1722 1592.5 1719 1574 1712 1557L1712 1557Q1692 1503 1692 1457L1692 1457 1692 1428Q1692 1408 1695 1382 1698 1356 1706 1323L1706 1323Q1718 1260 1718 1230L1718 1230Q1718 1149 1662 1078L1662 1078Q1606 1008 1506 1008L1506 1008Q1473 1008 1441.5 1022 1410 1036 1378.5 1053.5 1347 1071 1315.5 1085 1284 1099 1251 1099L1251 1099Q1214 1099 1181 1085 1148 1071 1116 1053.5 1084 1036 1052.5 1022 1021 1008 987 1008L987 1008Q930 1008 896 1024.5 862 1041 834 1074L834 1074Q806 1106 790.5 1148 775 1190 775 1231L775 1231Q775 1256 789 1323L789 1323Q796 1356 799.5 1381.5 803 1407 801 1426L801 1426 797 1484Q796 1503 791.5 1521 787 1539 781.5 1557 776 1575 772 1593 768 1611 768 1629L768 1629Q768 1757 898 1843L898 1843Q1028 1929 1227 1929ZM2335 1989L2335 1989Q2335 2103 2262 2179L2262 2179Q2191 2256 2083 2256L2083 2256Q2005 2256 1898.5 2183 1792 2110 1667 1960L1667 1960Q1616 1988 1562 2007.5 1508 2027 1447 2038L1447 2038Q1387 2049 1336 2055.5 1285 2062 1242 2062L1242 2062Q1024 2062 834 1966L834 1966Q582 2256 417 2256L417 2256Q313 2256 239 2182L239 2182Q165 2109 165 1988L165 1988Q165 1812 317 1587L317 1587Q342 1550 353 1486L353 1486Q318 1404 318 1331L318 1331Q319 1283 337.5 1241.5 356 1200 382.5 1169 409 1138 438 1120.5 467 1103 488 1104L488 1104Q514 1105 535 1121 556 1137 556 1159L556 1159Q556 1168 549.5 1191 543 1214 529 1252L529 1252Q507 1310 507 1342L507 1342Q507 1361 512.5 1389.5 518 1418 529 1457L529 1457Q540 1497 545 1524.5 550 1552 550 1569L550 1569Q550 1581 549 1590 548 1599 545 1607 542 1615 536.5 1625.5 531 1636 522 1651L522 1651 480 1726Q468 1747 457 1770 446 1793 437 1816 428 1839 422.5 1859.5 417 1880 417 1896L417 1896Q417 1947 457 1947L457 1947Q489 1947 527 1918.5 565 1890 614 1836L614 1836 643 1804Q600 1745 578 1680L578 1680Q613 1622 613 1571L613 1571Q613 1551 607.5 1521.5 602 1492 591 1454L591 1454Q580 1416 574.5 1387.5 569 1359 569 1342L569 1342 571 1316 597 1246Q608 1218 613.5 1196.5 619 1175 619 1157L619 1157Q619 1127 603 1101L603 1101Q689 894 857 784L857 784Q1028 673 1240 673L1240 673Q1467 673 1635 782.5 1803 892 1894 1110L1894 1110Q1883 1134 1883 1159L1883 1159Q1883 1197 1911 1267L1911 1267 1913 1271Q1923 1293 1927 1311 1931 1329 1931 1345L1931 1345Q1931 1359 1926.5 1385 1922 1411 1911 1450L1911 1450Q1889 1529 1889 1566L1889 1566Q1889 1628 1918 1673L1918 1673Q1907 1706 1891 1737.5 1875 1769 1853 1800L1853 1800 1890 1836Q1980 1947 2043 1947L2043 1947Q2084 1947 2084 1896L2084 1896Q2084 1847 2015 1718L2015 1718Q1993 1678 1979.5 1653 1966 1628 1961 1617L1961 1617Q1952 1595 1952 1569L1952 1569Q1952 1549 1957 1522.5 1962 1496 1972 1460L1972 1460Q1993 1388 1993 1341L1993 1341Q1993 1319 1986 1295.5 1979 1272 1968 1244L1968 1244Q1954 1210 1949 1188.5 1944 1167 1944 1159L1944 1159Q1944 1146 1951 1135.5 1958 1125 1969 1117 1980 1109 1993.5 1104.5 2007 1100 2020 1100L2020 1100Q2075 1100 2127 1185L2127 1185Q2153 1227 2166 1269 2179 1311 2179 1356L2179 1356Q2179 1419 2149 1491L2149 1491 2161 1539 2183 1587Q2335 1816 2335 1989Z"/>
</svg>