<svg xmlns="http://www.w3.org/2000/svg"
    viewBox="0 0 2600 2850">
  <!--
Digitized data copyright © 2011, Google Corporation.
Android is a trademark of Google and may be registered in certain jurisdictions.
Licensed under the Apache License, Version 2.0
http://www.apache.org/licenses/LICENSE-2.0
  -->
<path d="M1061 1190L1061 1190Q1061 1172 1054 1155.5 1047 1139 1035 1127 1023 1115 1006.5 1107.5 990 1100 972 1100L972 1100Q954 1100 938 1107.5 922 1115 909.5 1127.5 897 1140 890 1156.5 883 1173 883 1191L883 1191Q883 1227 908.5 1253 934 1279 972 1279L972 1279Q1010 1279 1035.5 1253.5 1061 1228 1061 1190ZM1299 1411L1299 1411Q1300 1394 1292.5 1378 1285 1362 1272 1350 1259 1338 1242.5 1330.5 1226 1323 1208 1323L1208 1323Q1190 1323 1174 1330 1158 1337 1145.5 1349 1133 1361 1126 1377 1119 1393 1119 1411L1119 1411Q1119 1429 1126 1445.5 1133 1462 1145.5 1474.5 1158 1487 1174.5 1494.5 1191 1502 1210 1502L1210 1502Q1252 1502 1274.5 1474.5 1297 1447 1299 1411ZM824 967L824 967Q824 949 817 933 810 917 798 904.5 786 892 769.5 885 753 878 734 878L734 878Q716 878 700 885 684 892 671.5 904 659 916 652 932.5 645 949 645 967L645 967Q645 985 652 1001.5 659 1018 671 1030 683 1042 699 1049.5 715 1057 734 1057L734 1057Q771 1057 797.5 1030.5 824 1004 824 967ZM1859 1979L1859 1979Q1853 1990 1844 2000.5 1835 2011 1824.5 2019.5 1814 2028 1804 2033.5 1794 2039 1788 2039L1788 2039Q1775 2039 1758 2023 1741 2007 1716 1976L1716 1976 1697 1953Q1646 1902 1607 1859.5 1568 1817 1538 1781L1538 1781Q1527 1767 1514.5 1753.5 1502 1740 1502 1719L1502 1719Q1502 1708 1509.5 1703 1517 1698 1532 1689L1532 1689Q1562 1698 1593 1724.5 1624 1751 1662 1789L1662 1789 1699 1826Q1738 1864 1781 1899.5 1824 1935 1859 1979ZM535 522L535 522Q513 603 444.5 676.5 376 750 268 807L268 807Q230 694 230 606L230 606Q230 577 241 547L241 547Q203 512 178 488 153 464 138 448 123 432 116.5 421.5 110 411 110 403L110 403Q110 384 136 384L136 384Q156 384 170 397 184 410 199 424L199 424Q221 444 245 461.5 269 479 286 500L286 500Q300 495 315.5 492 331 489 351 489L351 489Q415 489 535 522ZM2201 1232L2348 1368 2390 1413Q2350 1473 2320 1473L2320 1473Q2296 1473 2266 1436L2266 1436 2215 1462 2173 1481 1881 1632Q1875 1635 1869 1637 1863 1639 1855 1639L1855 1639Q1841 1639 1830 1631.5 1819 1624 1810 1613 1801 1602 1793.5 1588 1786 1574 1780 1562L1780 1562Q1759 1520 1727 1482.5 1695 1445 1668 1406L1668 1406 1627 1346Q1627 1334 1656 1327L1656 1327Q1670 1322 1681.5 1320.5 1693 1319 1702 1318L1702 1318Q1750 1316 1793.5 1312 1837 1308 1881 1297L1881 1297Q1903 1291 1924.5 1287 1946 1283 1969.5 1278.5 1993 1274 2021 1267.5 2049 1261 2085 1249L2085 1249 2093 1246 2077 1227Q2056 1202 2044.5 1185 2033 1168 2033 1156L2033 1156Q2033 1143 2040.5 1138 2048 1133 2063 1124L2063 1124Q2084 1130 2102.5 1142.5 2121 1155 2137.5 1170 2154 1185 2169.5 1201 2185 1217 2201 1232L2201 1232ZM1455 2069L1455 2069Q1455 2083 1449 2093L1449 2093 1327 2370 1278 2488Q1319 2520 1319 2541L1319 2541Q1319 2571 1264 2614L1264 2614Q1211 2576 1165.5 2528 1120 2480 1070 2437L1070 2437Q1054 2424 1036.5 2409.5 1019 2395 1003.5 2379 988 2363 974.5 2345 961 2327 954 2306L954 2306Q962 2291 967 2283 972 2275 984 2275L984 2275Q997 2275 1009.5 2280.5 1022 2286 1033.5 2294.5 1045 2303 1056 2312.5 1067 2322 1077 2329L1077 2329 1080 2320 1114 2116Q1116 2100 1119.5 2059.5 1123 2019 1125 1953L1125 1953Q1128 1857 1147 1857L1147 1857 1173 1871 1210 1894Q1251 1920 1289 1948.5 1327 1977 1372 1996L1372 1996Q1455 2029 1455 2069ZM1452 1706L1452 1706Q1452 1729 1462.5 1753.5 1473 1778 1498 1804L1498 1804 1604 1914Q1539 1950 1485 1950L1485 1950Q1457 1950 1423 1935L1423 1935 1419 1933 1300 1872Q1167 1805 1052 1727 937 1649 833 1565L833 1565Q730 1480 644 1392.5 558 1305 487 1212L487 1212Q416 1118 367 1031.5 318 945 289 864L289 864Q382 823 471 729L471 729Q516 681 545 634.5 574 588 591 540L591 540Q713 580 826 641.5 939 703 1045 785L1045 785Q1259 950 1430 1160.5 1601 1371 1732 1622L1732 1622Q1749 1654 1749 1686L1749 1686Q1749 1708 1742.5 1731.5 1736 1755 1725 1779L1725 1779 1678 1738 1630 1696Q1618 1686 1606.5 1675 1595 1664 1583 1655.5 1571 1647 1557.5 1641.5 1544 1636 1527 1636L1527 1636Q1493 1636 1472.5 1656.5 1452 1677 1452 1706Z"/>
</svg>