<svg xmlns="http://www.w3.org/2000/svg"
    viewBox="0 0 2600 2850">
  <!--
Digitized data copyright © 2011, Google Corporation.
Android is a trademark of Google and may be registered in certain jurisdictions.
Licensed under the Apache License, Version 2.0
http://www.apache.org/licenses/LICENSE-2.0
  -->
<path d="M1762 1780L1762 1780Q1829 1780 1880 1828L1880 1828Q1931 1876 1931 1947L1931 1947Q1931 2018 1881 2066L1881 2066Q1833 2116 1762 2116L1762 2116Q1689 2116 1643 2066L1643 2066Q1620 2040 1607.5 2011 1595 1982 1595 1947L1595 1947Q1595 1878 1643 1830L1643 1830Q1693 1780 1762 1780ZM693 1780L693 1780Q759 1780 810 1828L810 1828Q861 1876 861 1947L861 1947Q861 1982 848.5 2010.5 836 2039 812 2065L812 2065Q764 2116 693 2116L693 2116Q622 2116 574 2066L574 2066Q524 2018 524 1947L524 1947Q524 1874 574 1828L574 1828Q625 1780 693 1780ZM1931 1403L1931 1403 1931 1150Q1931 1130 1917 1116.5 1903 1103 1883 1103L1883 1103 1728 1103Q1708 1103 1694 1116.5 1680 1130 1680 1150L1680 1150 1680 1403Q1680 1423 1694 1437 1708 1451 1728 1451L1728 1451 1883 1451Q1903 1451 1917 1437 1931 1423 1931 1403ZM1594 1403L1594 1403 1594 1150Q1594 1130 1580.5 1116.5 1567 1103 1546 1103L1546 1103 1390 1103Q1370 1103 1357 1116.5 1344 1130 1344 1150L1344 1150 1344 1403Q1344 1423 1357 1437 1370 1451 1390 1451L1390 1451 1546 1451Q1567 1451 1580.5 1437 1594 1423 1594 1403ZM1247 1403L1247 1403 1247 1150Q1247 1130 1233 1116.5 1219 1103 1199 1103L1199 1103 1043 1103Q1023 1103 1009.5 1116.5 996 1130 996 1150L996 1150 996 1403Q996 1423 1009.5 1437 1023 1451 1043 1451L1043 1451 1199 1451Q1219 1451 1233 1437 1247 1423 1247 1403ZM818 1403L818 1403 818 1150Q818 1130 804.5 1116.5 791 1103 771 1103L771 1103 615 1103Q595 1103 581 1116.5 567 1130 567 1150L567 1150 567 1403Q567 1423 581 1437 595 1451 615 1451L615 1451 771 1451Q791 1451 804.5 1437 818 1423 818 1403ZM2206 1090L2206 1090 2206 1912Q2206 1932 2191.5 1946.5 2177 1961 2156 1961L2156 1961 1989 1961 1991 1947Q1991 1853 1922 1787L1922 1787Q1854 1722 1762 1722L1762 1722Q1664 1722 1600 1791L1600 1791Q1535 1861 1535 1961L1535 1961 920 1961Q920 1862 855 1791L855 1791Q792 1722 693 1722L693 1722Q592 1722 528 1791L528 1791Q465 1862 465 1961L465 1961 344 1961Q323 1961 308.5 1946.5 294 1932 294 1912L294 1912 294 1090Q294 974 381 921.5 468 869 636 869L636 869 1866 869Q2032 869 2119 921.5 2206 974 2206 1090Z"/>
</svg>