<svg xmlns="http://www.w3.org/2000/svg"
    viewBox="0 0 2600 2600">
  <!--
Digitized data copyright © 2011, Google Corporation.
Android is a trademark of Google and may be registered in certain jurisdictions.
Licensed under the Apache License, Version 2.0
http://www.apache.org/licenses/LICENSE-2.0
  -->
<path d="M1580 1526L1580 1526Q1616 1526 1641.5 1551 1667 1576 1667 1612L1667 1612Q1667 1648 1641.5 1673 1616 1698 1580 1698L1580 1698Q1544 1698 1519 1673 1494 1648 1494 1612L1494 1612Q1494 1576 1519 1551 1544 1526 1580 1526ZM918 1526L918 1526Q954 1526 979 1551 1004 1576 1004 1612L1004 1612Q1004 1648 979 1673 954 1698 918 1698L918 1698Q882 1698 857 1673 832 1648 832 1612L832 1612Q832 1576 857 1551 882 1526 918 1526ZM958 800L958 800 1542 800Q1568 800 1591 810 1614 820 1631.5 837 1649 854 1659 877.5 1669 901 1669 928L1669 928 1669 1090Q1669 1117 1659 1140 1649 1163 1631.5 1180.5 1614 1198 1591 1208 1568 1218 1542 1218L1542 1218 958 1218Q931 1218 908 1208 885 1198 868 1180.5 851 1163 841 1140 831 1117 831 1090L831 1090 831 928Q831 901 841 878 851 855 868 837.5 885 820 908 810 931 800 958 800ZM1773 1611L1773 1611 1773 958Q1773 860 1703 791L1703 791Q1634 722 1537 722L1537 722 963 722Q867 722 795 791L795 791Q725 861 725 958L725 958 725 1611Q725 1704 787 1772L787 1772Q849 1839 937 1847L937 1847 937 1949Q937 1970 952.5 1984.5 968 1999 989 1999L989 1999Q1011 1999 1025.5 1984.5 1040 1970 1040 1949L1040 1949 1040 1849 1459 1849 1459 1949Q1459 1970 1474 1984.5 1489 1999 1511 1999L1511 1999Q1532 1999 1546.5 1984.5 1561 1970 1561 1949L1561 1949 1561 1847Q1648 1840 1710 1772L1710 1772Q1773 1705 1773 1611ZM1249 322L1249 322Q1511 322 1731 455L1731 455Q1952 588 2074 804L2074 804Q2197 1022 2197 1269L2197 1269Q2197 1394 2167 1510 2137 1626 2074 1737L2074 1737Q1952 1953 1731 2086L1731 2086Q1510 2217 1249 2217L1249 2217Q990 2217 775 2090L775 2090Q558 1962 430 1744L430 1744Q303 1527 303 1269L303 1269Q303 1011 430 794L430 794Q559 576 776 449L776 449Q995 322 1249 322Z"/>
</svg>