<svg xmlns="http://www.w3.org/2000/svg"
    viewBox="0 0 2600 2850">
  <!--
Digitized data copyright © 2011, Google Corporation.
Android is a trademark of Google and may be registered in certain jurisdictions.
Licensed under the Apache License, Version 2.0
http://www.apache.org/licenses/LICENSE-2.0
  -->
<path d="M1832 1862L1832 1862Q1904 1862 1954 1912L1954 1912Q2004 1963 2004 2034L2004 2034Q2004 2106 1954 2156L1954 2156Q1903 2207 1832 2207L1832 2207Q1762 2207 1710 2156L1710 2156Q1660 2106 1660 2034L1660 2034Q1660 1963 1710 1912L1710 1912Q1761 1862 1832 1862ZM662 1862L662 1862Q734 1862 784 1912L784 1912Q810 1938 822.5 1968 835 1998 835 2034L835 2034Q835 2105 784 2156L784 2156Q733 2207 662 2207L662 2207Q592 2207 541 2156L541 2156Q490 2106 490 2034L490 2034Q490 1963 541 1912L541 1912Q591 1862 662 1862ZM1182 1724L1144 1724 1163 1666 1182 1724ZM1382 1404L1382 1404 1742 1404Q1813 1404 1813 1339L1813 1339Q1813 1273 1743 1189L1743 1189Q1708 1147 1670.5 1120.5 1633 1094 1590 1079 1547 1064 1498.5 1058 1450 1052 1394 1052L1394 1052Q1361 1055 1339.5 1057 1318 1059 1305 1066 1292 1073 1286.5 1089.5 1281 1106 1281 1137L1281 1137 1281 1338Q1281 1404 1382 1404ZM1565 1802L1571 1799 1571 1601 1565 1596 1517 1596 1513 1601 1513 1799 1517 1802 1565 1802ZM1429 1802L1485 1802 1489 1800 1487 1795 1422 1700 1487 1603 1487 1599 1483 1596 1429 1596 1389 1651 1353 1599 1349 1596 1294 1596 1290 1599 1290 1603 1355 1700 1290 1795 1290 1800 1294 1802 1352 1802 1355 1800 1389 1750 1422 1800 1429 1802ZM1260 1802L1264 1800 1264 1796 1190 1599 1186 1596 1141 1596 1137 1599 1062 1796 1063 1800 1066 1802 1115 1802 1119 1799 1130 1765 1197 1765 1207 1799 1211 1802 1260 1802ZM1009 1802L1014 1798 1014 1639 1082 1639 1087 1635 1087 1599 1082 1595 894 1595 890 1599 890 1635 894 1639 962 1639 962 1798 966 1802 1009 1802ZM820 1404L820 1404 1092 1404Q1163 1404 1163 1338L1163 1338 1163 1137Q1163 1121 1161.5 1106 1160 1091 1154 1079 1148 1067 1137 1060 1126 1053 1107 1053L1107 1053Q1033 1053 955 1093L955 1093Q879 1132 824 1213L824 1213Q769 1295 769 1353L769 1353Q769 1404 820 1404ZM2329 1746L2329 1746Q2329 1868 2259 1952L2259 1952Q2189 2034 2078 2034L2078 2034 2063 2034Q2063 1940 1994 1871L1994 1871Q1959 1838 1919 1820.5 1879 1803 1832 1803L1832 1803Q1739 1803 1669 1873L1669 1873Q1601 1941 1601 2034L1601 2034 894 2034Q894 1941 824 1871L824 1871Q789 1838 749 1820.5 709 1803 662 1803L662 1803Q566 1803 498 1871L498 1871Q431 1939 431 2033L431 2033Q359 2024 285 1971L285 1971Q210 1918 190 1871L190 1871Q171 1824 171 1761L171 1761Q171 1728 176 1693.5 181 1659 190 1626.5 199 1594 211.5 1564.5 224 1535 240 1513L240 1513Q272 1467 348 1427L348 1427Q386 1406 425.5 1391 465 1376 506 1367L506 1367Q562 1269 609.5 1196.5 657 1124 698 1077L698 1077Q739 1029 785.5 993.5 832 958 886.5 933.5 941 909 1004 895.5 1067 882 1141 878L1141 878Q1141 859 1159 859L1159 859 1173 859 1173 725Q1173 700 1197 700L1197 700 1274 700Q1299 700 1299 725L1299 725 1299 859 1312 859Q1330 859 1330 876L1330 876Q1416 878 1484.5 886.5 1553 895 1606 910L1606 910Q1714 940 1795 1001L1795 1001Q1878 1063 1931 1148L1931 1148Q1957 1190 1983.5 1245 2010 1300 2036 1367L2036 1367Q2066 1374 2096.5 1386 2127 1398 2159 1415L2159 1415Q2191 1432 2215 1450 2239 1468 2255 1488L2255 1488Q2271 1509 2284.5 1538 2298 1567 2308 1601 2318 1635 2323.5 1672 2329 1709 2329 1746Z"/>
</svg>