<svg xmlns="http://www.w3.org/2000/svg"
    viewBox="0 0 2600 2600">
  <!--
Digitized data copyright © 2011, Google Corporation.
Android is a trademark of Google and may be registered in certain jurisdictions.
Licensed under the Apache License, Version 2.0
http://www.apache.org/licenses/LICENSE-2.0
  -->
<path d="M658 1880L658 1880Q680 1880 699 1871.5 718 1863 732 1848.5 746 1834 754.5 1814.5 763 1795 763 1773L763 1773Q763 1751 754 1731.5 745 1712 730.5 1697.5 716 1683 697 1675 678 1667 658 1667L658 1667Q636 1667 616.5 1675.5 597 1684 582.5 1698 568 1712 559.5 1731.5 551 1751 551 1773L551 1773Q551 1795 559.5 1814.5 568 1834 582.5 1848.5 597 1863 616.5 1871.5 636 1880 658 1880ZM1556 1880L1556 1880Q1578 1880 1597.5 1871.5 1617 1863 1631 1848.5 1645 1834 1653.5 1814.5 1662 1795 1662 1773L1662 1773Q1662 1751 1653.5 1731.5 1645 1712 1631 1697.5 1617 1683 1597.5 1675 1578 1667 1556 1667L1556 1667Q1533 1667 1514 1675.5 1495 1684 1480.5 1699 1466 1714 1458 1733 1450 1752 1450 1773L1450 1773Q1450 1795 1458.5 1814.5 1467 1834 1481.5 1848.5 1496 1863 1515 1871.5 1534 1880 1556 1880ZM1866 628L1500 628 1500 1065 1866 1065 1866 628ZM1556 1524L1556 1524Q1661 1524 1733 1598L1733 1598Q1805 1672 1805 1773L1805 1773Q1805 1877 1732 1950L1732 1950Q1658 2022 1556 2022L1556 2022Q1456 2022 1381 1951L1381 1951Q1307 1880 1307 1773L1307 1773Q1307 1674 1379 1600L1379 1600Q1451 1524 1556 1524ZM658 1524L658 1524Q762 1524 834 1598L834 1598Q907 1673 907 1773L907 1773Q907 1876 833 1950L833 1950Q759 2022 658 2022L658 2022Q557 2022 483 1951L483 1951Q409 1881 409 1773L409 1773Q409 1669 481 1597L481 1597Q554 1524 658 1524ZM2126 808L2126 808 2234 808Q2252 808 2268 815 2284 822 2296 834 2308 846 2315.5 862 2323 878 2323 896L2323 896 2323 1429Q2323 1447 2315.5 1463 2308 1479 2296 1491 2284 1503 2268 1510.5 2252 1518 2234 1518L2234 1518 2126 1518Q2108 1518 2092 1510.5 2076 1503 2063.5 1491 2051 1479 2044 1463 2037 1447 2037 1429L2037 1429 2037 896Q2037 878 2044 862 2051 846 2063.5 834 2076 822 2092 815 2108 808 2126 808ZM1250 628L853 628 732 1065 1250 1065 1250 628ZM418 1011L600 1011 742 526 2004 526 2004 1698 1860 1698Q1833 1593 1749 1527L1749 1527Q1666 1460 1556 1460L1556 1460Q1446 1460 1361 1528L1361 1528Q1277 1597 1253 1698L1253 1698 961 1698Q938 1598 852 1528L852 1528Q767 1460 658 1460L658 1460Q548 1460 462 1528L462 1528Q377 1596 353 1698L353 1698 231 1698 231 1613Q207 1612 192 1596 177 1580 177 1559L177 1559 177 1490Q177 1468 192 1452.5 207 1437 231 1434L231 1434 231 1193Q231 1152 244.5 1118.5 258 1085 283 1061 308 1037 342 1024 376 1011 418 1011L418 1011Z"/>
</svg>