<svg xmlns="http://www.w3.org/2000/svg"
    viewBox="0 0 2600 2600">
  <!--
Digitized data copyright © 2011, Google Corporation.
Android is a trademark of Google and may be registered in certain jurisdictions.
Licensed under the Apache License, Version 2.0
http://www.apache.org/licenses/LICENSE-2.0
  -->
<path d="M1952 617L1952 617Q2016 617 2016 700L2016 700Q2016 778 1960 879L1960 879Q1932 930 1893.5 976.5 1855 1023 1804 1065L1804 1065Q1754 1107 1697 1141.5 1640 1176 1578.5 1200.5 1517 1225 1454 1238 1391 1251 1329 1251L1329 1251Q1292 1251 1254.5 1246.5 1217 1242 1179 1237 1141 1232 1103 1227.5 1065 1223 1028 1223L1028 1223Q906 1223 809.5 1249.5 713 1276 641 1331L641 1331 641 2172Q641 2205 618 2227.5 595 2250 562 2250L562 2250Q530 2250 507 2227.5 484 2205 484 2172L484 2172 484 358Q484 325 507 302.5 530 280 562 280L562 280Q595 280 618 302.5 641 325 641 358L641 358 641 363 649 362Q684 356 716 351.5 748 347 778 347L778 347Q1013 350 1255 507L1255 507Q1324 552 1381 584.5 1438 617 1487 637L1487 637Q1582 677 1677 677L1677 677Q1712 677 1749.5 671 1787 665 1829 654L1829 654Q1843 650 1858 644 1873 638 1888.5 632 1904 626 1920 621.5 1936 617 1952 617Z"/>
</svg>