<svg xmlns="http://www.w3.org/2000/svg"
    viewBox="0 0 2600 2600">
  <!--
Digitized data copyright © 2011, Google Corporation.
Android is a trademark of Google and may be registered in certain jurisdictions.
Licensed under the Apache License, Version 2.0
http://www.apache.org/licenses/LICENSE-2.0
  -->
<path d="M2171 637L2260 880 2262 890Q2262 915 2234 920L2234 920 1781 946Q1769 947 1761 937.5 1753 928 1753 916L1753 916Q1753 899 1764 893L1764 893 2126 622Q2132 616 2143 616L2143 616Q2162 616 2171 637L2171 637ZM1601 692L1601 692Q1590 692 1581 683.5 1572 675 1572 663L1572 663 1574 652 1736 231Q1744 211 1765 211L1765 211Q1775 211 1781 217L1781 217 1987 377Q1998 385 1998 398L1998 398Q1998 414 1987 425L1987 425 1617 686Q1611 692 1601 692ZM238 891L238 891 241 880 330 637Q334 616 357 616L357 616Q369 616 375 622L375 622 736 893Q749 902 749 917L749 917Q749 948 719 946L719 946 267 920Q238 918 238 891ZM502 402L502 402Q502 385 513 377L513 377 719 217Q725 211 736 211L736 211Q754 211 765 231L765 231 928 652 929 662Q929 675 920.5 683.5 912 692 900 692L900 692Q889 692 883 686L883 686 515 425Q502 415 502 402ZM740 2083L1795 2083 1795 1768 740 1768 740 2083ZM933 1071L933 1071 933 1541Q933 1553 944 1558L944 1558 951 1559 963 1555 1201 1318Q1207 1314 1207 1306L1207 1306Q1207 1297 1201 1292L1201 1292 963 1057Q960 1051 951 1051L951 1051Q933 1051 933 1071ZM1537 1057L1299 1292 1293 1306Q1293 1313 1299 1318L1299 1318 1537 1555 1550 1559 1557 1558Q1568 1553 1568 1541L1568 1541 1568 1071Q1568 1051 1550 1051L1550 1051Q1543 1051 1537 1057L1537 1057ZM1783 1651L1783 1651 1854 1651Q1877 1651 1895 1668.5 1913 1686 1913 1709L1913 1709 1913 2142Q1913 2167 1895 2184 1877 2201 1854 2201L1854 2201 682 2201Q658 2201 640.5 2184 623 2167 623 2142L623 2142 623 1709Q623 1686 640.5 1668.5 658 1651 682 1651L682 1651 719 1651Q725 1169 851 947L851 947Q979 724 1251 724L1251 724Q1520 724 1649 945L1649 945Q1777 1162 1783 1651Z"/>
</svg>