<svg xmlns="http://www.w3.org/2000/svg"
    viewBox="0 0 2600 2600">
  <!--
Digitized data copyright © 2011, Google Corporation.
Android is a trademark of Google and may be registered in certain jurisdictions.
Licensed under the Apache License, Version 2.0
http://www.apache.org/licenses/LICENSE-2.0
  -->
<path d="M1380 549L1380 549Q1403 549 1419.5 531 1436 513 1436 485L1436 485Q1436 457 1419.5 439 1403 421 1380 421L1380 421Q1357 421 1341 439 1325 457 1325 485L1325 485Q1325 513 1341 531 1357 549 1380 549ZM1373 627L1373 627Q1373 612 1363 603 1353 594 1340 594L1340 594 1323 600Q1291 619 1250 619L1250 619Q1208 619 1178 600L1178 600 1160 594Q1147 594 1137.5 603.5 1128 613 1128 627L1128 627Q1128 638 1138 648.5 1148 659 1165 667 1182 675 1204 680 1226 685 1250 685L1250 685Q1275 685 1297 680 1319 675 1336 667 1353 659 1363 648.5 1373 638 1373 627ZM1065 485L1065 485Q1065 513 1081 531 1097 549 1120 549L1120 549Q1144 549 1160 531 1176 513 1176 485L1176 485Q1176 457 1160 439 1144 421 1120 421L1120 421Q1097 421 1081 439 1065 457 1065 485ZM1867 1541L1867 1541Q1867 1626 1830.5 1678.5 1794 1731 1732 1731L1732 1731Q1708 1731 1686 1723 1664 1715 1648 1701 1632 1687 1623 1668.5 1614 1650 1615 1630L1615 1630 1621 1546 1625 1471Q1627 1439 1620 1409 1613 1379 1600 1341L1600 1341Q1587 1301 1575.5 1276.5 1564 1252 1548 1252L1548 1252Q1536 1252 1529 1257 1522 1262 1522 1284L1522 1284 1529 1336Q1540 1421 1550.5 1476.5 1561 1532 1561 1561L1561 1561Q1561 1610 1549.5 1651.5 1538 1693 1517 1731L1517 1731Q1504 1752 1498 1820L1498 1820Q1494 1854 1492.5 1889 1491 1924 1491 1960L1491 1960Q1491 2131 1528 2158L1528 2158Q1595 2207 1595 2262L1595 2262Q1595 2358 1468 2358L1468 2358Q1363 2358 1317.5 2315 1272 2272 1272 2188L1272 2188Q1272 2162 1274 2130 1276 2098 1280 2059L1280 2059Q1284 2020 1285.5 1986 1287 1952 1287 1923L1287 1923Q1287 1806 1250 1806L1250 1806Q1231 1806 1220 1834.5 1209 1863 1213 1920L1213 1920 1229 2188Q1235 2275 1185 2316.5 1135 2358 1032 2358L1032 2358Q905 2358 905 2262L905 2262Q905 2211 972 2158L972 2158Q992 2142 1001.5 2092 1011 2042 1011 1957L1011 1957Q1011 1917 1008.5 1879.5 1006 1842 1002 1812 998 1782 993 1761 988 1740 983 1731L983 1731Q941 1665 941 1561L941 1561Q941 1529 946 1490.5 951 1452 960 1405L960 1405Q978 1314 978 1284L978 1284Q978 1262 971 1257 964 1252 952 1252L952 1252Q936 1252 924 1277 912 1302 898 1343L898 1343Q885 1383 879 1412.5 873 1442 875 1471L875 1471 881 1546 885 1630Q886 1651 877 1669.5 868 1688 852 1701.5 836 1715 814 1723 792 1731 768 1731L768 1731Q706 1731 669.5 1679.5 633 1628 633 1542L633 1542Q633 1438 684 1292L684 1292Q709 1220 741.5 1153.5 774 1087 812.5 1031.5 851 976 895.5 933.5 940 891 990 866L990 866Q1019 852 1035.5 844.5 1052 837 1052 820L1052 820Q1052 804 1027 784L1027 784Q889 681 889 507L889 507Q889 353 990 254L990 254Q1092 152 1250 152L1250 152Q1401 152 1506 251L1506 251Q1611 350 1611 500L1611 500Q1611 591 1577.5 661.5 1544 732 1474 784L1474 784Q1448 804 1448 820L1448 820Q1448 836 1465 845L1465 845 1510 866Q1561 891 1605.5 932.5 1650 974 1688 1031L1688 1031Q1726 1087 1757.5 1151 1789 1215 1815 1288L1815 1288Q1867 1436 1867 1541Z"/>
</svg>