<svg xmlns="http://www.w3.org/2000/svg"
    viewBox="0 0 2600 2600">
  <!--
Digitized data copyright © 2011, Google Corporation.
Android is a trademark of Google and may be registered in certain jurisdictions.
Licensed under the Apache License, Version 2.0
http://www.apache.org/licenses/LICENSE-2.0
  -->
<path d="M2457 1554L2457 1554Q2457 1571 2450 1585 2443 1599 2431 1609.5 2419 1620 2404 1626 2389 1632 2373 1632L2373 1632Q2350 1632 2326.5 1613.5 2303 1595 2279 1560.5 2255 1526 2232.5 1477.5 2210 1429 2191 1368L2191 1368Q2168 1297 2154 1257.5 2140 1218 2124 1218L2124 1218Q2104 1218 2104 1255L2104 1255Q2104 1289 2115 1333.5 2126 1378 2152 1429L2152 1429 2179 1482Q2195 1515 2206.5 1536 2218 1557 2225 1570.5 2232 1584 2235 1593 2238 1602 2238 1611L2238 1611Q2238 1625 2232.5 1636.5 2227 1648 2214 1657.5 2201 1667 2180.5 1676.5 2160 1686 2130 1696L2130 1696Q2108 1703 2102 1714L2102 1714Q2096 1726 2090 1752.5 2084 1779 2076 1819L2076 1819Q2063 1896 2063 1963L2063 1963Q2063 2034 2080 2047L2080 2047 2104 2065Q2146 2098 2146 2140L2146 2140Q2146 2175 2123.5 2192 2101 2209 2065 2209L2065 2209Q2003 2209 1974.5 2184.5 1946 2160 1949 2097L1949 2097 1960 1852Q1962 1798 1953.5 1771.5 1945 1745 1930 1745L1930 1745Q1910 1745 1904 1774.5 1898 1804 1900 1849L1900 1849 1909 2091Q1912 2157 1883.5 2183 1855 2209 1794 2209L1794 2209Q1759 2209 1735.5 2192 1712 2175 1712 2139L1712 2139Q1712 2122 1718 2109 1724 2096 1734 2085 1744 2074 1755.5 2065 1767 2056 1779 2047L1779 2047Q1788 2041 1792 2020 1796 1999 1796 1965L1796 1965Q1796 1911 1784 1827L1784 1827Q1777 1785 1771 1756.5 1765 1728 1758 1714L1758 1714Q1751 1704 1729 1697 1707 1690 1683 1680 1659 1670 1640 1654.5 1621 1639 1621 1611L1621 1611Q1621 1580 1681 1482L1681 1482Q1695 1461 1708 1432.5 1721 1404 1732 1369L1732 1369Q1755 1295 1755 1257L1755 1257Q1755 1218 1734 1218L1734 1218Q1719 1218 1704.5 1258 1690 1298 1667 1368L1667 1368Q1628 1492 1580 1562 1532 1632 1487 1632L1487 1632Q1471 1632 1455.5 1626 1440 1620 1428 1609.5 1416 1599 1409 1585 1402 1571 1402 1554L1402 1554Q1402 1502 1452 1480L1452 1480Q1513 1453 1536 1387L1536 1387Q1626 1134 1689 1047L1689 1047Q1723 1001 1754 981.5 1785 962 1808.5 954 1832 946 1845.5 939.5 1859 933 1859 912L1859 912Q1859 901 1804 868L1804 868Q1760 919 1675 919L1675 919Q1602 919 1602 883L1602 883Q1602 868 1619 850L1619 850Q1651 820 1651 755L1651 755 1649 667Q1648 591 1668.5 532 1689 473 1726.5 432.5 1764 392 1816 371 1868 350 1930 350L1930 350Q1993 350 2045 371 2097 392 2133.5 432.5 2170 473 2190 532.5 2210 592 2209 670L2209 670 2208 755Q2207 817 2240 850L2240 850Q2258 868 2258 883L2258 883Q2258 919 2183 919L2183 919Q2096 919 2054 868L2054 868Q2000 900 2000 912L2000 912Q2000 932 2013.5 938 2027 944 2050 953L2050 953Q2094 969 2128 1000 2162 1031 2190 1078L2190 1078Q2217 1123 2250.5 1199.5 2284 1276 2323 1387L2323 1387Q2329 1405 2336.5 1418.5 2344 1432 2354 1443 2364 1454 2378.5 1463 2393 1472 2414 1482L2414 1482Q2431 1490 2444 1511 2457 1532 2457 1554ZM740 908L740 908Q740 922 753.5 931.5 767 941 792 958L792 958Q840 990 879 1030 918 1070 950 1119L950 1119Q1015 1216 1054 1328L1054 1328Q1074 1385 1084.5 1433 1095 1481 1095 1523L1095 1523Q1095 1598 1063.5 1641 1032 1684 981 1684L981 1684Q962 1684 944 1677 926 1670 912.5 1658 899 1646 890.5 1630 882 1614 882 1596L882 1596Q882 1550 891 1510 900 1470 900 1426L900 1426Q900 1380 878 1325L878 1325Q855 1272 834 1272L834 1272Q823 1272 813 1276 803 1280 803 1303L803 1303 808 1348Q817 1420 825 1467 833 1514 833 1537L833 1537Q833 1582 823.5 1618 814 1654 797 1682L797 1682Q789 1696 781.5 1746 774 1796 774 1875L774 1875Q774 2023 807 2047L807 2047Q864 2091 864 2136L864 2136Q864 2216 758 2216L758 2216Q579 2216 588 2071L588 2071 595 1961 602 1844Q604 1795 595 1770.5 586 1746 570 1746L570 1746Q555 1746 545.5 1770.5 536 1795 539 1844L539 1844 545 1961 552 2071Q561 2216 383 2216L383 2216Q276 2216 276 2136L276 2136Q276 2089 333 2047L333 2047Q365 2025 365 1878L365 1878Q365 1800 358.5 1749.5 352 1699 343 1682L343 1682Q306 1616 306 1541L306 1541Q306 1516 310 1483.5 314 1451 322 1409L322 1409Q330 1367 334 1340.5 338 1314 338 1303L338 1303Q338 1280 327.5 1276 317 1272 306 1272L306 1272Q280 1272 260 1326L260 1326Q249 1354 244 1379 239 1404 239 1428L239 1428Q239 1470 248.5 1510 258 1550 258 1596L258 1596Q258 1614 249.5 1630 241 1646 227 1658 213 1670 195 1677 177 1684 158 1684L158 1684Q107 1684 75 1640.5 43 1597 43 1523L43 1523Q43 1441 86 1325L86 1325Q130 1207 193.5 1113 257 1019 348 958L348 958Q373 942 386.5 932 400 922 400 908L400 908Q400 893 379 876L379 876Q262 786 262 640L262 640Q262 506 350 422L350 422Q395 380 449 358.5 503 337 570 337L570 337Q699 337 789 422L789 422Q878 506 878 633L878 633Q878 782 762 876L762 876Q740 895 740 908ZM1250 61L1250 61Q1267 61 1279.5 73.5 1292 86 1292 103L1292 103 1292 2301Q1292 2318 1279.5 2330.5 1267 2343 1250 2343L1250 2343Q1233 2343 1219.5 2330.5 1206 2318 1206 2301L1206 2301 1206 103Q1206 86 1219.5 73.5 1233 61 1250 61Z"/>
</svg>