<svg xmlns="http://www.w3.org/2000/svg"
    viewBox="0 0 2600 2850">
  <!--
Digitized data copyright © 2011, Google Corporation.
Android is a trademark of Google and may be registered in certain jurisdictions.
Licensed under the Apache License, Version 2.0
http://www.apache.org/licenses/LICENSE-2.0
  -->
<path d="M1579 1594L1784 1594 1665 1436Q1597 1501 1579 1594L1579 1594ZM1595 1341L1595 1341 1512 1229 1341 1594 1461 1594Q1484 1444 1595 1341ZM1249 1541L1419 1180 1006 1180 1249 1541ZM1892 1981L1892 1981Q2025 1981 2118 1888L2118 1888Q2212 1794 2212 1661L2212 1661Q2212 1530 2118 1436L2118 1436Q2025 1341 1892 1341L1892 1341Q1820 1341 1751 1374L1751 1374 1931 1616Q1940 1629 1940 1648L1940 1648Q1940 1669 1925 1684.5 1910 1700 1888 1700L1888 1700 1575 1700Q1582 1760 1607.5 1811 1633 1862 1679 1902L1679 1902Q1725 1943 1778.5 1962 1832 1981 1892 1981ZM928 1661L928 1661Q928 1530 836 1437L836 1437Q767 1582 667 1682L667 1682Q642 1716 610 1716L610 1716Q589 1716 571.5 1700.5 554 1685 554 1661L554 1661Q554 1632 582 1616L582 1616 589 1611Q690 1510 749 1374L749 1374Q680 1341 608 1341L608 1341Q476 1341 381 1436L381 1436Q288 1528 288 1661L288 1661Q288 1796 381 1888L381 1888Q473 1981 608 1981L608 1981Q741 1981 833 1888L833 1888Q928 1793 928 1661ZM1892 1225L1892 1225Q2072 1225 2200 1353L2200 1353Q2329 1482 2329 1661L2329 1661Q2329 1845 2200 1970L2200 1970Q2071 2096 1892 2096L1892 2096Q1720 2096 1595 1981L1595 1981Q1469 1864 1457 1700L1457 1700 1336 1700 1320 1772Q1392 1772 1392 1828L1392 1828Q1392 1885 1297 1883L1297 1883 1241 1882 1221 1882Q1197 1882 1179.5 1874 1162 1866 1162 1834L1162 1834Q1162 1821 1169 1809 1176 1797 1188 1788 1200 1779 1215.5 1774 1231 1769 1248 1769L1248 1769 1259 1771 1271 1700 1258 1700 1242 1698Q1232 1693 1225 1688 1218 1683 1214 1676L1214 1676 913 1229 883 1323Q957 1385 1000.5 1471.5 1044 1558 1044 1661L1044 1661Q1044 1845 916 1970L916 1970Q787 2096 608 2096L608 2096Q429 2096 300 1970L300 1970Q171 1845 171 1661L171 1661Q171 1481 299 1353L299 1353Q427 1225 608 1225L608 1225Q656 1225 701 1235.5 746 1246 791 1266L791 1266Q808 1218 825.5 1151.5 843 1085 857 998L857 998Q864 952 873.5 918.5 883 885 895.5 862.5 908 840 923.5 826.5 939 813 959 805L959 805Q972 793 987.5 786 1003 779 1022.5 775.5 1042 772 1067.5 771.5 1093 771 1126 771L1126 771Q1204 771 1216 780L1216 780Q1232 788 1242 807 1252 826 1252 843L1252 843Q1252 858 1245 872 1238 886 1222.5 897 1207 908 1183 914.5 1159 921 1126 921L1126 921 1076 921 1022 924Q1001 925 987 913L987 913Q984 916 981.5 920 979 924 977 929L977 929 948 1074 1390 1074Q1367 1072 1346.5 1067 1326 1062 1310 1053.5 1294 1045 1284.5 1033 1275 1021 1275 1006L1275 1006Q1275 981 1293 960 1311 939 1337 936L1337 936Q1372 932 1409.5 925.5 1447 919 1484 913 1521 907 1557 902.5 1593 898 1626 898L1626 898Q1643 898 1658 905 1673 912 1684.5 924 1696 936 1703 951.5 1710 967 1710 985L1710 985Q1710 1030 1672 1059L1672 1059Q1635 1089 1591 1089L1591 1089 1574 1089 1554 1088 1554 1110 1680 1280Q1777 1225 1892 1225Z"/>
</svg>