<svg xmlns="http://www.w3.org/2000/svg"
    viewBox="0 0 2600 2600">
  <!--
Digitized data copyright © 2011, Google Corporation.
Android is a trademark of Google and may be registered in certain jurisdictions.
Licensed under the Apache License, Version 2.0
http://www.apache.org/licenses/LICENSE-2.0
  -->
<path d="M1750 1520L1750 1520Q1770 1520 1784 1533.5 1798 1547 1798 1567L1798 1567Q1798 1589 1782.5 1602 1767 1615 1750 1615L1750 1615Q1728 1615 1715 1599.5 1702 1584 1702 1567L1702 1567Q1702 1546 1717.5 1533 1733 1520 1750 1520ZM1468 1803L1468 1803Q1468 1783 1482 1769 1496 1755 1516 1755L1516 1755Q1536 1755 1549.5 1769 1563 1783 1563 1803L1563 1803Q1563 1823 1549 1836 1535 1849 1515 1849L1515 1849Q1497 1849 1482.5 1837 1468 1825 1468 1803ZM1195 1841L1195 1841Q1215 1841 1228.5 1854.5 1242 1868 1242 1888L1242 1888Q1242 1908 1228.5 1921.5 1215 1935 1195 1935L1195 1935Q1175 1935 1161 1921.5 1147 1908 1147 1888L1147 1888Q1147 1868 1161 1854.5 1175 1841 1195 1841ZM873 1755L873 1755Q890 1755 905.5 1768 921 1781 921 1801L921 1801Q921 1821 907.5 1835 894 1849 874 1849L874 1849Q854 1849 840.5 1836 827 1823 827 1803L827 1803Q827 1783 840 1769 853 1755 873 1755ZM591 1567L591 1567Q591 1547 605 1533.5 619 1520 639 1520L639 1520Q656 1520 671 1533 686 1546 686 1567L686 1567Q686 1584 673.5 1599.5 661 1615 639 1615L639 1615Q619 1615 605 1602 591 1589 591 1567ZM553 1199L553 1199Q573 1199 587 1212.5 601 1226 601 1246L601 1246Q601 1266 587 1280 573 1294 553 1294L553 1294Q533 1294 519.5 1280 506 1266 506 1246L506 1246Q506 1226 519.5 1212.5 533 1199 553 1199ZM639 878L639 878Q656 878 671 892 686 906 686 926L686 926Q686 948 671 961 656 974 639 974L639 974Q617 974 604 958.5 591 943 591 926L591 926Q591 904 606.5 891 622 878 639 878ZM1195 652L1195 652Q1175 652 1161 639 1147 626 1147 606L1147 606Q1147 585 1161 571.5 1175 558 1195 558L1195 558Q1215 558 1228.5 571.5 1242 585 1242 606L1242 606Q1242 626 1228.5 639 1215 652 1195 652ZM921 692L921 692Q921 712 907 725 893 738 873 738L873 738Q853 738 840 724.5 827 711 827 691L827 691Q827 673 840 658.5 853 644 873 644L873 644Q893 644 907 657 921 670 921 692ZM1516 738L1516 738Q1499 738 1483.5 725 1468 712 1468 692L1468 692Q1468 672 1482 658 1496 644 1516 644L1516 644Q1536 644 1549.5 658.5 1563 673 1563 691L1563 691Q1563 711 1549.5 724.5 1536 738 1516 738ZM1788 1246L1788 1246Q1788 1226 1802 1212.5 1816 1199 1836 1199L1836 1199Q1856 1199 1869.5 1212.5 1883 1226 1883 1246L1883 1246Q1883 1266 1869.5 1280 1856 1294 1836 1294L1836 1294Q1816 1294 1802 1280 1788 1266 1788 1246ZM1195 1294L1195 1294Q1215 1294 1228.5 1280 1242 1266 1242 1246L1242 1246Q1242 1230 1229 1214.5 1216 1199 1195 1199L1195 1199Q1174 1199 1160.5 1214 1147 1229 1147 1246L1147 1246Q1147 1266 1160.5 1280 1174 1294 1195 1294ZM1260 1139L1260 1139 1747 860 1807 966 1320 1245Q1320 1271 1310.5 1294 1301 1317 1284.5 1334.5 1268 1352 1245 1362 1222 1372 1195 1372L1195 1372Q1170 1372 1147.5 1362.5 1125 1353 1107.5 1336 1090 1319 1079.5 1295.5 1069 1272 1069 1243L1069 1243 783 1078 843 974 1130 1139Q1160 1122 1195 1122L1195 1122Q1232 1122 1260 1139ZM1936 1246L1936 1246Q1936 1050 1835 877L1835 877Q1734 704 1563 604L1563 604Q1389 505 1195 505L1195 505Q1095 505 1002 530 909 555 823 606L823 606Q650 708 552 878L552 878Q453 1048 453 1246L453 1246Q453 1444 552 1615L552 1615Q650 1787 823 1888L823 1888Q909 1939 1002 1963 1095 1987 1195 1987L1195 1987Q1295 1987 1387.5 1963 1480 1939 1567 1888L1567 1888Q1738 1788 1838 1614L1838 1614Q1936 1441 1936 1246ZM2002 1096L2002 1096 2126 1096 2126 1396 2002 1396Q1970 1563 1880.5 1698.5 1791 1834 1656 1925L1656 1925 1656 2277 734 2277 734 1925Q569 1816 471 1636L471 1636Q374 1457 374 1246L374 1246Q374 1143 397.5 1048 421 953 470 863L470 863Q518 773 583.5 699.5 649 626 734 569L734 569 734 215 1656 215 1656 567Q1791 659 1880.5 795 1970 931 2002 1096Z"/>
</svg>