<svg xmlns="http://www.w3.org/2000/svg"
    viewBox="0 0 2600 2850">
  <!--
Digitized data copyright © 2011, Google Corporation.
Android is a trademark of Google and may be registered in certain jurisdictions.
Licensed under the Apache License, Version 2.0
http://www.apache.org/licenses/LICENSE-2.0
  -->
<path d="M723 1109L597 835 595 823Q595 809 604.5 801.5 614 794 625 794L625 794 637 795 909 923Q927 929 927 949L927 949Q927 963 919 969L919 969 771 1117Q763 1125 751 1125L751 1125Q730 1125 723 1109L723 1109ZM648 1582L648 1582 637 1581 355 1475Q336 1469 336 1448L336 1448Q336 1427 355 1421L355 1421 648 1314Q660 1314 668.5 1323.5 677 1333 677 1344L677 1344 677 1552Q677 1564 668.5 1573 660 1582 648 1582ZM927 1949L927 1949Q927 1969 909 1975L909 1975 637 2101 625 2103Q595 2103 595 2075L595 2075 597 2061 723 1787Q731 1771 749 1771L749 1771Q763 1771 771 1779L771 1779 919 1927Q927 1935 927 1949ZM1145 2020L1145 2020 1354 2020Q1365 2020 1374 2029.5 1383 2039 1383 2050L1383 2050 1381 2061 1277 2343Q1271 2362 1250 2362L1250 2362Q1229 2362 1223 2343L1223 2343 1117 2061 1116 2051Q1116 2020 1145 2020ZM1775 1787L1901 2061 1904 2075Q1904 2086 1896 2094.5 1888 2103 1875 2103L1875 2103 1863 2101 1589 1975Q1573 1967 1573 1949L1573 1949Q1573 1935 1581 1927L1581 1927 1727 1779Q1737 1771 1749 1771L1749 1771Q1765 1771 1775 1787L1775 1787ZM2164 1448L2164 1448Q2164 1469 2145 1475L2145 1475 1862 1581 1852 1582Q1840 1582 1831 1574 1822 1566 1822 1552L1822 1552 1822 1344Q1822 1333 1830 1324 1838 1315 1849 1315L1849 1315 1862 1317 2145 1421Q2164 1427 2164 1448ZM1573 949L1573 949Q1573 933 1589 923L1589 923 1863 795 1875 794Q1886 794 1895 802 1904 810 1904 823L1904 823 1901 835 1775 1109Q1769 1123 1755 1125L1755 1125Q1738 1125 1727 1117L1727 1117 1581 969Q1573 963 1573 949ZM1354 876L1354 876 1145 876Q1132 876 1124 866.5 1116 857 1116 846L1116 846 1117 837 1223 553Q1229 534 1250 534L1250 534Q1271 534 1277 553L1277 553 1381 837 1383 846Q1383 857 1374.5 866.5 1366 876 1354 876ZM1250 964L1250 964Q1314 964 1375 981.5 1436 999 1490 1031.5 1544 1064 1589 1108.5 1634 1153 1666 1207 1698 1261 1716 1322 1734 1383 1734 1448L1734 1448Q1734 1546 1694.5 1634.5 1655 1723 1588 1790 1521 1857 1433.5 1895.5 1346 1934 1250 1932L1250 1932Q1148 1930 1063 1896.5 978 1863 907 1791L907 1791Q835 1720 801.5 1635 768 1550 766 1448L766 1448Q764 1352 802.5 1264 841 1176 908 1109.5 975 1043 1063.5 1003.5 1152 964 1250 964Z"/>
</svg>