<svg xmlns="http://www.w3.org/2000/svg"
    viewBox="0 0 2600 2850">
  <!--
Digitized data copyright © 2011, Google Corporation.
Android is a trademark of Google and may be registered in certain jurisdictions.
Licensed under the Apache License, Version 2.0
http://www.apache.org/licenses/LICENSE-2.0
  -->
<path d="M1762 1086L1762 1086Q1739 1086 1719 1094 1699 1102 1684 1115.5 1669 1129 1660.5 1148.5 1652 1168 1652 1190L1652 1190 1652 1778Q1707 1719 1748 1655.5 1789 1592 1816 1520.5 1843 1449 1856.5 1368 1870 1287 1870 1194L1870 1194Q1870 1172 1861.5 1152 1853 1132 1838 1117.5 1823 1103 1803.5 1094.5 1784 1086 1762 1086ZM2164 1194L2164 1194Q2164 1751 1733 2101L1733 2101Q1811 2152 1975 2152L1975 2152 1975 2446Q1815 2446 1694.5 2409.5 1574 2373 1502 2291L1502 2291 1481 2268Q1383 2322 1273.5 2369 1164 2416 1039 2457L1039 2457 948 2178Q1064 2140 1168.5 2094 1273 2048 1368 1996L1368 1996Q1363 1960 1360.5 1911 1358 1862 1358 1800L1358 1800 1358 847Q1358 824 1349.5 804 1341 784 1326 769.5 1311 755 1291.5 746.5 1272 738 1250 738L1250 738Q1227 738 1207.5 746.5 1188 755 1173 769.5 1158 784 1149.5 804 1141 824 1141 847L1141 847 1141 1700 846 1700 846 847Q846 824 837.5 804 829 784 814 769.5 799 755 779.5 746.5 760 738 738 738L738 738Q715 738 695.5 746.5 676 755 661.5 769.5 647 784 638.5 804 630 824 630 847L630 847 630 1700 336 1700 336 847Q336 678 452 562L452 562Q570 444 738 444L738 444Q811 444 875.5 466.5 940 489 994 536L994 536Q1102 444 1250 444L1250 444Q1407 444 1521 550L1521 550Q1634 654 1651 807L1651 807Q1703 792 1762 792L1762 792Q1947 792 2056 904L2056 904Q2164 1015 2164 1194Z"/>
</svg>