<svg xmlns="http://www.w3.org/2000/svg"
    viewBox="0 0 2600 2850">
  <!--
Digitized data copyright © 2011, Google Corporation.
Android is a trademark of Google and may be registered in certain jurisdictions.
Licensed under the Apache License, Version 2.0
http://www.apache.org/licenses/LICENSE-2.0
  -->
<path d="M1574 1047L1897 826 2149 998 2149 1318 2142 1328 1897 1158 1574 1381 1253 1158 930 1381 607 1158 362 1328 351 1311 351 1001 607 826 930 1047 1253 826 1574 1047ZM1253 1551L1574 1774 1897 1551 2149 1723 2149 2043 2142 2053 1897 1885 1574 2106 1253 1885 930 2106 607 1885 362 2053 351 2036 351 1727 607 1551 930 1774 1253 1551Z"/>
</svg>