<svg xmlns="http://www.w3.org/2000/svg"
    viewBox="0 0 2600 2600">
  <!--
Digitized data copyright © 2011, Google Corporation.
Android is a trademark of Google and may be registered in certain jurisdictions.
Licensed under the Apache License, Version 2.0
http://www.apache.org/licenses/LICENSE-2.0
  -->
<path d="M1974 1638L1974 1638Q2038 1638 2084 1592L2084 1592Q2131 1546 2131 1480L2131 1480Q2131 1429 2094 1380L2094 1380Q2058 1334 2011 1334L2011 1334Q1985 1334 1964.5 1340 1944 1346 1916 1346L1916 1346Q1898 1346 1879 1339.5 1860 1333 1844.5 1320.5 1829 1308 1817 1291 1805 1274 1801 1253L1801 1253Q1795 1224 1780 1200 1765 1176 1743.5 1159 1722 1142 1695.5 1132.5 1669 1123 1640 1123L1640 1123Q1612 1123 1569 1141L1569 1141Q1546 1151 1529.5 1155 1513 1159 1502 1159L1502 1159Q1478 1159 1457 1150.5 1436 1142 1420.5 1127.5 1405 1113 1395.5 1093.5 1386 1074 1384 1052L1384 1052Q1377 966 1312 906L1312 906Q1247 846 1158 846L1158 846Q1115 846 1084 855L1084 855Q1069 860 1056.5 865 1044 870 1031.5 880 1019 890 1004 905.5 989 921 970 945L970 945Q934 991 872 991L872 991 860 989Q825 989 793 1000 761 1011 734 1030.5 707 1050 686.5 1077 666 1104 654 1137L654 1137Q630 1199 543 1218L543 1218Q477 1231 422 1301L422 1301Q369 1372 369 1435L369 1435Q369 1525 435 1591L435 1591Q501 1658 592 1657L592 1657 644 1655Q706 1653 738 1722L738 1722Q781 1812 861 1863.5 941 1915 1041 1915L1041 1915Q1163 1915 1254 1839L1254 1839Q1284 1813 1328 1813L1328 1813Q1368 1813 1399 1836L1399 1836Q1466 1885 1544 1885L1544 1885Q1585 1885 1622 1872 1659 1859 1689 1836 1719 1813 1741 1780.5 1763 1748 1775 1709L1775 1709Q1786 1673 1817.5 1648.5 1849 1624 1889 1624L1889 1624Q1911 1624 1930.5 1631 1950 1638 1974 1638ZM2009 1216L2009 1216Q2059 1216 2100.5 1236.5 2142 1257 2178 1298L2178 1298Q2249 1380 2249 1480L2249 1480Q2249 1593 2167 1675L2167 1675Q2085 1755 1974 1755L1974 1755Q1928 1755 1889 1742L1889 1742Q1854 1859 1758 1930L1758 1930Q1659 2003 1544 2003L1544 2003Q1425 2003 1328 1930L1328 1930Q1204 2033 1041 2033L1041 2033Q912 2033 800 1963L800 1963Q687 1894 632 1773L632 1773 613 1774 592 1774Q450 1774 351 1676L351 1676Q251 1577 251 1435L251 1435Q251 1313 336 1211L336 1211Q420 1111 543 1100L543 1100Q578 997 663 936L663 936Q751 872 860 872L860 872 885 865Q933 803 1003 765.5 1073 728 1158 728L1158 728Q1200 728 1238 737L1238 737Q1289 671 1364 631.5 1439 592 1529 592L1529 592Q1680 592 1788 701L1788 701Q1894 809 1894 958L1894 958Q1894 1033 1862 1112L1862 1112Q1903 1165 1916 1229L1916 1229Q1944 1222 1967.5 1219 1991 1216 2009 1216ZM1158 665L1083 449 1082 442Q1082 420 1104 420L1104 420 1115 423 1312 538Q1323 545 1323 560L1323 560Q1323 568 1314 575L1314 575 1193 675 1179 679Q1161 679 1158 665L1158 665ZM1989 902L1989 902 2000 904 2205 1004Q2217 1010 2217 1023L2217 1023Q2217 1039 2201 1045L2201 1045 1981 1103 1975 1104Q1964 1104 1958 1095.5 1952 1087 1952 1079L1952 1079 1967 922Q1971 902 1989 902ZM1808 609L1808 609Q1808 592 1823 587L1823 587 2038 513 2046 512Q2054 512 2061 519 2068 526 2068 534L2068 534 2065 545 1950 742Q1943 753 1933 753L1933 753Q1920 753 1913 744L1913 744 1814 623Q1808 616 1808 609ZM1472 498L1472 498 1474 489 1574 283Q1580 271 1593 271L1593 271Q1610 271 1615 287L1615 287 1674 513Q1674 535 1649 535L1649 535 1492 520Q1472 514 1472 498Z"/>
</svg>