<svg xmlns="http://www.w3.org/2000/svg"
    viewBox="0 0 2600 2600">
  <!--
Digitized data copyright © 2011, Google Corporation.
Android is a trademark of Google and may be registered in certain jurisdictions.
Licensed under the Apache License, Version 2.0
http://www.apache.org/licenses/LICENSE-2.0
  -->
<path d="M1907 1731L1907 1731Q1907 1633 1833 1544L1833 1544Q1759 1455 1619 1396L1619 1396Q1549 1367 1487 1351.5 1425 1336 1368 1336L1368 1336Q1332 1336 1301 1346.5 1270 1357 1247 1375 1224 1393 1211 1418 1198 1443 1198 1471L1198 1471Q1198 1534 1255 1579 1312 1624 1414 1656L1414 1656Q1510 1686 1554.5 1717 1599 1748 1599 1790L1599 1790Q1599 1827 1581 1827L1581 1827Q1571 1827 1552 1817L1552 1817Q1443 1770 1381 1770L1381 1770Q1346 1770 1315.5 1786 1285 1802 1263.5 1830.5 1242 1859 1230 1897.5 1218 1936 1220 1982L1220 1982 1221 2028Q1222 2065 1209 2065L1209 2065Q1189 2065 1171 2009L1171 2009Q1152 1955 1152 1902L1152 1902Q1152 1861 1164 1802L1164 1802 1149 1815Q1126 1833 1099.5 1843 1073 1853 1041 1853L1041 1853Q993 1853 960 1832L960 1832Q913 1904 874 1924L874 1924Q855 1934 831.5 1938.5 808 1943 779 1945L779 1945 794 2006Q821 2117 933 2176 1045 2235 1225 2235L1225 2235Q1498 2235 1701 2091L1701 2091Q1907 1945 1907 1731ZM749 1850L749 1850Q772 1850 793.5 1842.5 815 1835 832 1822.5 849 1810 859.5 1793 870 1776 870 1757L870 1757Q870 1740 861 1722L861 1722 758 1481Q726 1408 654 1408L654 1408Q623 1408 601.5 1418 580 1428 567 1444.5 554 1461 548.5 1482.5 543 1504 543 1526L543 1526Q543 1549 551 1578 559 1607 576 1640L576 1640Q610 1704 644 1764L644 1764Q661 1794 675 1811.5 689 1829 700 1837L700 1837Q720 1850 749 1850ZM800 1324L800 1324Q800 1342 809 1373.5 818 1405 838 1449L838 1449Q858 1494 876 1534 894 1574 913 1611L913 1611Q953 1684 978 1704L978 1704Q1004 1724 1042 1724L1042 1724Q1062 1724 1081.5 1717 1101 1710 1117 1697 1133 1684 1142.5 1667 1152 1650 1152 1630L1152 1630 1146 1599 1039 1287Q1010 1200 923 1200L923 1200Q862 1200 831 1233 800 1266 800 1324ZM853 485L853 485Q853 567 918 750L918 750Q950 842 977.5 908 1005 974 1026 1018L1026 1018Q1048 1066 1061.5 1101.5 1075 1137 1080 1163L1080 1163Q1082 1175 1086.5 1192.5 1091 1210 1101 1235L1101 1235Q1119 1282 1135 1282L1135 1282Q1142 1282 1160 1272L1160 1272Q1245 1218 1346 1218L1346 1218Q1403 1218 1446 1228 1489 1238 1503 1241L1503 1241Q1526 1247 1558.5 1259 1591 1271 1636 1288L1636 1288 1710 1317Q1713 1312 1720 1269.5 1727 1227 1747 1151L1747 1151 1762 1094 1775 1054Q1814 942 1843 852 1872 762 1891.5 692 1911 622 1921 570.5 1931 519 1931 484L1931 484Q1931 451 1921.5 422 1912 393 1894 372 1876 351 1849.5 338.5 1823 326 1788 326L1788 326Q1713 326 1673 381L1673 381Q1632 436 1602 562L1602 562Q1571 689 1561 809L1561 809Q1541 1015 1513 1087L1513 1087Q1484 1159 1421 1159L1421 1159Q1358 1159 1329 1102L1329 1102Q1315 1073 1296.5 999 1278 925 1254 804L1254 804Q1243 750 1227 687.5 1211 625 1191 553L1191 553Q1152 412 1110 365L1110 365Q1070 318 1016 318L1016 318Q853 318 853 485ZM2050 1749L2050 1749Q2050 1909 1933 2068L1933 2068Q1874 2148 1799.5 2206 1725 2264 1637.5 2302 1550 2340 1451.5 2358.5 1353 2377 1246 2377L1246 2377Q1066 2377 931 2334L931 2334Q796 2292 718 2192 640 2092 607 1945L607 1945Q559 1877 524 1818 489 1759 466 1706.5 443 1654 432 1606.5 421 1559 421 1514L421 1514Q421 1415 492 1344L492 1344Q565 1271 675 1265L675 1265Q678 1213 697 1173 716 1133 744 1105.5 772 1078 806.5 1064 841 1050 875 1050L875 1050Q852 983 827.5 915 803 847 774 778L774 778Q759 743 745.5 701 732 659 722 609L722 609Q712 559 707.5 521 703 483 703 455L703 455Q703 322 782 243L782 243Q861 162 990 162L990 162Q1096 162 1171 225L1171 225Q1209 257 1238 301 1267 345 1287 403L1287 403Q1307 460 1324 521 1341 582 1353 648L1353 648Q1377 779 1389.5 846 1402 913 1411 908L1411 908Q1421 908 1435 791L1435 791 1450 653Q1476 411 1556.5 295 1637 179 1771 179L1771 179Q1843 179 1900.5 201 1958 223 1997.5 262 2037 301 2058 354 2079 407 2079 469L2079 469Q2079 529 2070 588 2061 647 2049 697 2037 747 2025 784 2013 821 2007 839L2007 839Q1963 969 1936 1056.5 1909 1144 1897 1192L1897 1192Q1888 1230 1877.5 1264 1867 1298 1867 1330L1867 1330Q1867 1371 1897 1402L1897 1402Q2050 1554 2050 1749Z"/>
</svg>