<svg xmlns="http://www.w3.org/2000/svg"
    viewBox="0 0 2600 2850">
  <!--
Digitized data copyright © 2011, Google Corporation.
Android is a trademark of Google and may be registered in certain jurisdictions.
Licensed under the Apache License, Version 2.0
http://www.apache.org/licenses/LICENSE-2.0
  -->
<path d="M2358 1456L2358 1456Q2358 1467 2350.5 1474.5 2343 1482 2332 1482L2332 1482Q1866 1482 1539 1576L1539 1576Q1624 1728 1747.5 1884 1871 2040 2033 2204L2033 2204Q2041 2210 2041 2222L2041 2222Q2041 2230 2034 2238.5 2027 2247 2015 2247L2015 2247Q2010 2247 2006 2245 2002 2243 1997 2240L1997 2240Q1676 1915 1369 1746L1369 1746Q1276 2082 1276 2538L1276 2538Q1276 2549 1268.5 2556.5 1261 2564 1250 2564L1250 2564Q1224 2564 1224 2538L1224 2538Q1224 2073 1130 1746L1130 1746Q829 1913 502 2240L502 2240Q495 2247 484 2247L484 2247Q459 2247 459 2222L459 2222Q459 2211 466 2204L466 2204Q793 1877 960 1576L960 1576Q633 1482 168 1482L168 1482Q157 1482 149.5 1474.5 142 1467 142 1456L142 1456Q142 1445 149.5 1437.5 157 1430 168 1430L168 1430Q633 1430 960 1336L960 1336Q876 1184 753.5 1028 631 872 466 709L466 709Q459 702 459 691L459 691Q459 665 484 665L484 665Q490 665 502 672L502 672Q670 838 826 961.5 982 1085 1130 1166L1130 1166Q1224 839 1224 374L1224 374Q1224 363 1231.5 355.5 1239 348 1250 348L1250 348Q1261 348 1268.5 355.5 1276 363 1276 374L1276 374Q1276 830 1369 1166L1369 1166Q1670 999 1997 672L1997 672Q2002 669 2006 667 2010 665 2015 665L2015 665Q2026 665 2033.5 672.5 2041 680 2041 691L2041 691Q2041 701 2033 709L2033 709Q1711 1031 1539 1336L1539 1336Q1866 1430 2332 1430L2332 1430Q2343 1430 2350.5 1437.5 2358 1445 2358 1456Z"/>
</svg>