<svg xmlns="http://www.w3.org/2000/svg"
    viewBox="0 0 2600 2600">
  <!--
Digitized data copyright © 2011, Google Corporation.
Android is a trademark of Google and may be registered in certain jurisdictions.
Licensed under the Apache License, Version 2.0
http://www.apache.org/licenses/LICENSE-2.0
  -->
<path d="M2358 1256L2358 1256Q2358 1267 2350.5 1274.5 2343 1282 2332 1282L2332 1282Q1866 1282 1539 1376L1539 1376Q1624 1528 1747.5 1684 1871 1840 2033 2004L2033 2004Q2041 2010 2041 2022L2041 2022Q2041 2030 2034 2038.5 2027 2047 2015 2047L2015 2047Q2010 2047 2006 2045 2002 2043 1997 2040L1997 2040Q1676 1715 1369 1546L1369 1546Q1276 1882 1276 2338L1276 2338Q1276 2349 1268.5 2356.5 1261 2364 1250 2364L1250 2364Q1224 2364 1224 2338L1224 2338Q1224 1873 1130 1546L1130 1546Q829 1713 502 2040L502 2040Q495 2047 484 2047L484 2047Q459 2047 459 2022L459 2022Q459 2011 466 2004L466 2004Q793 1677 960 1376L960 1376Q633 1282 168 1282L168 1282Q157 1282 149.5 1274.5 142 1267 142 1256L142 1256Q142 1245 149.5 1237.5 157 1230 168 1230L168 1230Q633 1230 960 1136L960 1136Q876 984 753.5 828 631 672 466 509L466 509Q459 502 459 491L459 491Q459 465 484 465L484 465Q490 465 502 472L502 472Q670 638 826 761.5 982 885 1130 966L1130 966Q1224 639 1224 174L1224 174Q1224 163 1231.5 155.5 1239 148 1250 148L1250 148Q1261 148 1268.5 155.5 1276 163 1276 174L1276 174Q1276 630 1369 966L1369 966Q1670 799 1997 472L1997 472Q2002 469 2006 467 2010 465 2015 465L2015 465Q2026 465 2033.5 472.5 2041 480 2041 491L2041 491Q2041 501 2033 509L2033 509Q1711 831 1539 1136L1539 1136Q1866 1230 2332 1230L2332 1230Q2343 1230 2350.5 1237.5 2358 1245 2358 1256Z"/>
</svg>