<svg xmlns="http://www.w3.org/2000/svg"
    viewBox="0 0 2600 2600">
  <!--
Digitized data copyright © 2011, Google Corporation.
Android is a trademark of Google and may be registered in certain jurisdictions.
Licensed under the Apache License, Version 2.0
http://www.apache.org/licenses/LICENSE-2.0
  -->
<path d="M2193 1034L2025 1204 2240 1204Q2262 1204 2262 1226L2262 1226 2262 1319Q2262 1341 2240 1341L2240 1341 2025 1341 2193 1509Q2200 1516 2200 1525L2200 1525Q2200 1533 2193 1540L2193 1540 2128 1606Q2119 1613 2113 1613L2113 1613 2096 1606 1831 1341 1416 1341 1709 1633 2085 1633Q2107 1633 2107 1657L2107 1657 2107 1748Q2107 1770 2085 1770L2085 1770 1847 1770 1999 1922Q2004 1927 2004 1938L2004 1938Q2004 1951 1999 1953L1999 1953 1933 2019Q1926 2026 1917 2026L1917 2026Q1909 2026 1902 2019L1902 2019 1750 1867 1750 2107Q1750 2115 1743 2122 1736 2129 1728 2129L1728 2129 1635 2129Q1612 2129 1612 2107L1612 2107 1612 1730 1319 1438 1319 1852 1584 2118Q1590 2123 1590 2134L1590 2134Q1590 2144 1584 2149L1584 2149 1519 2215Q1512 2222 1504 2222L1504 2222Q1494 2222 1487 2215L1487 2215 1319 2046 1319 2261Q1319 2283 1297 2283L1297 2283 1204 2283Q1182 2283 1182 2261L1182 2261 1182 2046 1013 2215Q1006 2222 998 2222L998 2222Q986 2222 983 2215L983 2215 916 2149Q909 2143 909 2134L909 2134 916 2118 1182 1852 1182 1438 888 1730 888 2107Q888 2129 866 2129L866 2129 773 2129Q764 2129 757.5 2122 751 2115 751 2107L751 2107 751 1867 600 2019Q591 2026 583 2026L583 2026Q575 2026 568 2019L568 2019 502 1953Q496 1947 496 1938L496 1938Q496 1928 502 1922L502 1922 654 1770 415 1770Q393 1770 393 1748L393 1748 393 1657Q393 1633 415 1633L415 1633 791 1633 1084 1341 669 1341 404 1606Q397 1613 389 1613L389 1613 372 1606 307 1540Q300 1533 300 1525L300 1525Q300 1516 307 1509L307 1509 476 1341 260 1341Q238 1341 238 1319L238 1319 238 1226Q238 1204 260 1204L260 1204 476 1204 307 1034Q300 1027 300 1019L300 1019Q300 1010 307 1003L307 1003 372 937Q378 932 387 932L387 932Q399 932 404 937L404 937 669 1204 1084 1204 791 910 415 910Q407 910 400 903 393 896 393 888L393 888 393 795Q393 773 415 773L415 773 654 773 502 621Q496 615 496 605L496 605Q496 596 502 590L502 590 568 524Q575 517 583 517L583 517Q591 517 600 524L600 524 751 676 751 436Q751 428 757.5 421 764 414 773 414L773 414 866 414Q888 414 888 436L888 436 888 813 1182 1105 1182 691 916 425Q909 419 909 409L909 409Q909 400 916 394L916 394 983 328Q985 323 996 323L996 323Q1008 323 1013 328L1013 328 1182 497 1182 282Q1182 260 1204 260L1204 260 1297 260Q1319 260 1319 282L1319 282 1319 497 1487 328Q1494 321 1504 321L1504 321Q1512 321 1519 328L1519 328 1584 394Q1590 399 1590 409L1590 409Q1590 420 1584 425L1584 425 1319 691 1319 1105 1612 813 1612 436Q1612 414 1635 414L1635 414 1728 414Q1736 414 1743 421 1750 428 1750 436L1750 436 1750 676 1902 524Q1909 517 1917 517L1917 517 1933 524 1999 590Q2004 593 2004 605L2004 605Q2004 616 1999 621L1999 621 1847 773 2085 773Q2107 773 2107 795L2107 795 2107 888Q2107 910 2085 910L2085 910 1709 910 1416 1204 1831 1204 2096 937Q2101 932 2113 932L2113 932Q2122 932 2128 937L2128 937 2193 1003Q2200 1010 2200 1019L2200 1019Q2200 1027 2193 1034L2193 1034Z"/>
</svg>