<svg xmlns="http://www.w3.org/2000/svg"
    viewBox="0 0 2600 2600">
  <!--
Digitized data copyright © 2011, Google Corporation.
Android is a trademark of Google and may be registered in certain jurisdictions.
Licensed under the Apache License, Version 2.0
http://www.apache.org/licenses/LICENSE-2.0
  -->
<path d="M989 1952L989 1952Q989 1899 1004.5 1861.5 1020 1824 1047.5 1800 1075 1776 1113 1765 1151 1754 1196 1754L1196 1754Q1294 1754 1346 1806 1398 1858 1398 1952L1398 1952Q1398 2044 1344 2097.5 1290 2151 1196 2151L1196 2151Q1100 2151 1044.5 2100.5 989 2050 989 1952ZM1336 1483L1336 1553 1028 1553 1028 1467Q1028 1359 1073 1275L1073 1275Q1117 1193 1237 1097L1237 1097Q1282 1062 1312 1036 1342 1010 1357 992L1357 992Q1388 957 1401.5 919.5 1415 882 1415 831L1415 831Q1415 765 1369.5 721 1324 677 1233 677L1233 677Q1152 677 1059.5 711 967 745 868 794L868 794 749 537Q808 504 871 476.5 934 449 996.5 430 1059 411 1120 400.5 1181 390 1237 390L1237 390Q1479 390 1615 502L1615 502Q1751 616 1751 814L1751 814Q1751 903 1727 970L1727 970Q1714 1004 1696 1036.5 1678 1069 1653 1099L1653 1099Q1628 1128 1588 1164.5 1548 1201 1494 1245L1494 1245Q1450 1280 1423 1305 1396 1330 1383 1344L1383 1344Q1359 1373 1347.5 1404 1336 1435 1336 1483L1336 1483Z"/>
</svg>