<svg xmlns="http://www.w3.org/2000/svg"
    viewBox="0 0 2600 2600">
  <!--
Digitized data copyright © 2011, Google Corporation.
Android is a trademark of Google and may be registered in certain jurisdictions.
Licensed under the Apache License, Version 2.0
http://www.apache.org/licenses/LICENSE-2.0
  -->
<path d="M2234 1134L2234 1134 2325 1393Q2147 1517 1996 1517L1996 1517Q1951 1517 1911 1508 1871 1499 1836 1478L1836 1478 1759 1431Q1677 1381 1608 1356 1539 1331 1480 1331L1480 1331Q1336 1331 1199 1408L1199 1408Q1163 1429 1132.5 1443.5 1102 1458 1075 1467.5 1048 1477 1022.5 1481.5 997 1486 971 1486L971 1486Q928 1486 890 1474 852 1462 816 1444.5 780 1427 745 1406.5 710 1386 673 1368.5 636 1351 595.5 1339 555 1327 510 1327L510 1327Q473 1327 440.5 1334.5 408 1342 379.5 1354 351 1366 326 1380.5 301 1395 279 1409L279 1409 175 1188Q338 1024 524 1024L524 1024Q574 1024 618 1036 662 1048 701 1065.5 740 1083 775.5 1104 811 1125 844 1142.5 877 1160 909 1172 941 1184 974 1184L974 1184Q1013 1184 1048.5 1172 1084 1160 1119.5 1142.5 1155 1125 1192 1104 1229 1083 1272 1065.5 1315 1048 1366 1036 1417 1024 1480 1024L1480 1024Q1593 1024 1781 1138L1781 1138Q1918 1223 2002 1223L2002 1223Q2095 1223 2234 1134Z"/>
</svg>