<svg xmlns="http://www.w3.org/2000/svg"
    viewBox="0 0 2600 2600">
  <!--
Digitized data copyright © 2011, Google Corporation.
Android is a trademark of Google and may be registered in certain jurisdictions.
Licensed under the Apache License, Version 2.0
http://www.apache.org/licenses/LICENSE-2.0
  -->
<path d="M1328 763L766 1595 1446 1595 1446 1108Q1446 1002 1450 884.5 1454 767 1459 633L1459 633 1463 517 1451 517Q1428 582 1391 654L1391 654Q1372 689 1357 716 1342 743 1328 763L1328 763ZM1686 1595L1978 1595 1978 1822 1686 1822 1686 2270 1446 2270 1446 1822 522 1822 522 1604 1429 260 1686 260 1686 1595Z"/>
</svg>