<svg xmlns="http://www.w3.org/2000/svg"
    viewBox="0 0 2600 2850">
  <!--
Digitized data copyright © 2011, Google Corporation.
Android is a trademark of Google and may be registered in certain jurisdictions.
Licensed under the Apache License, Version 2.0
http://www.apache.org/licenses/LICENSE-2.0
  -->
<path d="M1108 1421L1108 1421 1312 1421Q1377 1421 1424 1370L1424 1370Q1472 1319 1472 1248L1472 1248Q1472 1209 1460 1177 1448 1145 1426 1122.5 1404 1100 1373 1087.5 1342 1075 1305 1075L1305 1075 1100 1075Q1093 1075 1093 1081L1093 1081 1093 1415Q1093 1421 1108 1421ZM1803 2047L1803 2047Q1803 2058 1795 2066.5 1787 2075 1776 2075L1776 2075 1517 2075Q1501 2075 1494 2064L1494 2064 1197 1668 1095 1668 1095 2047Q1095 2073 1069 2073L1069 2073 810 2073Q784 2073 784 2047L784 2047 784 856Q784 845 791.5 836.5 799 828 810 828L810 828 1338 828Q1427 828 1501.5 859 1576 890 1639 953L1639 953Q1764 1076 1764 1248L1764 1248Q1764 1313 1745.5 1372 1727 1431 1692.5 1481.5 1658 1532 1609.5 1571.5 1561 1611 1501 1637L1501 1637 1798 2031Q1803 2036 1803 2047ZM1251 2400L1251 2400Q1504 2400 1719 2276L1719 2276Q1935 2149 2062 1931L2062 1931Q2191 1711 2191 1459L2191 1459Q2191 1204 2062 986L2062 986Q1996 875 1910.5 790 1825 705 1716 642L1716 642Q1501 518 1251 518L1251 518Q1123 518 1007 550 891 582 780 645L780 645Q560 772 435 990L435 990Q310 1210 310 1459L310 1459Q310 1713 435 1930L435 1930Q563 2150 781 2274L781 2274Q1001 2400 1251 2400ZM1251 418L1251 418Q1537 418 1779 563L1779 563Q2021 707 2155 946L2155 946Q2290 1186 2290 1459L2290 1459Q2290 1733 2155 1973L2155 1973Q2020 2214 1777 2356L1777 2356Q1535 2500 1251 2500L1251 2500Q970 2500 729 2361L729 2361Q489 2220 349 1982L349 1982Q279 1861 244.5 1730.5 210 1600 210 1459L210 1459Q210 1178 349 939L349 939Q489 698 728 559L728 559Q968 418 1251 418Z"/>
</svg>