<svg xmlns="http://www.w3.org/2000/svg"
    viewBox="0 0 2600 2850">
  <!--
Digitized data copyright © 2011, Google Corporation.
Android is a trademark of Google and may be registered in certain jurisdictions.
Licensed under the Apache License, Version 2.0
http://www.apache.org/licenses/LICENSE-2.0
  -->
<path d="M2028 654L2028 654 2180 502 2171 499 328 499Q314 499 304.5 508.5 295 518 295 532L295 532 295 2375Q295 2387 305 2398L305 2398 458 2242Q433 2217 433 2182L433 2182 433 725Q433 707 440 691 447 675 459 663 471 651 487 644 503 637 521 637L521 637 1978 637Q2008 637 2028 654ZM1730 864L1730 864 1733 881 1275 2081Q1270 2091 1260 2091L1260 2091 955 2091Q938 2091 938 2075L938 2075 939 2068 1307 1100 758 1100Q741 1100 741 1083L741 1083 741 874Q741 858 758 858L758 858 1716 858Q1725 858 1730 864ZM514 725L514 725 514 2182Q514 2189 521 2189L521 2189 1978 2189Q1986 2189 1986 2182L1986 2182 1986 725Q1986 718 1978 718L1978 718 521 718Q514 718 514 725ZM328 421L328 421 2171 421Q2194 421 2214.5 430 2235 439 2250 454 2265 469 2274 489.5 2283 510 2283 532L2283 532 2283 2375Q2283 2398 2274 2418.5 2265 2439 2250 2454 2235 2469 2214.5 2478 2194 2487 2171 2487L2171 2487 328 2487Q305 2487 285 2478 265 2469 250 2454 235 2439 226 2418.5 217 2398 217 2375L217 2375 217 532Q217 510 226 489.5 235 469 250 454 265 439 285 430 305 421 328 421Z"/>
</svg>