<svg xmlns="http://www.w3.org/2000/svg"
    viewBox="0 0 2600 2600">
  <!--
Digitized data copyright © 2011, Google Corporation.
Android is a trademark of Google and may be registered in certain jurisdictions.
Licensed under the Apache License, Version 2.0
http://www.apache.org/licenses/LICENSE-2.0
  -->
<path d="M2184 1117L2089 808 2089 1205 2113 1180Q2141 1153 2158 1136.5 2175 1120 2184 1117L2184 1117ZM198 1296L198 1314 234 1670 309 1608 309 1190Q276 1216 248.5 1242.5 221 1269 198 1296L198 1296ZM1254 1023L1143 1017 1143 1398 1254 1406 1254 1023ZM955 1001L955 1001 955 1387 1065 1391 1065 1011Q1017 1006 989.5 1003.5 962 1001 955 1001ZM1443 1021L1332 1026 1332 1413 1443 1418 1443 1021ZM766 1002L766 1002 766 1406 875 1391 875 997Q847 997 820.5 998 794 999 766 1002ZM1522 1015L1522 1015 1522 1420 1632 1414 1632 993Q1606 1000 1578.5 1005 1551 1010 1522 1015ZM576 1043L576 1043 576 1461Q604 1450 631 1440.5 658 1431 686 1425L686 1425 686 1015Q657 1020 629.5 1027 602 1034 576 1043ZM387 1134L387 1134 387 1554Q415 1537 442.5 1522 470 1507 498 1493L498 1493 498 1073Q468 1087 440.5 1101.5 413 1116 387 1134ZM1711 968L1711 968 1711 1403Q1741 1398 1768.5 1390 1796 1382 1822 1373L1822 1373 1822 915Q1799 929 1771.5 941.5 1744 954 1711 968ZM1900 864L1900 864 1900 1340Q1928 1326 1955.5 1308.5 1983 1291 2011 1270L2011 1270 2011 770Q1983 796 1955.5 820 1928 844 1900 864ZM1535 1993L1535 1993Q1788 1993 1976 1909L1976 1909Q2165 1825 2344 1640L2344 1640 2225 1257 2201 1173Q2144 1245 2071.5 1301 1999 1357 1911 1398L1911 1398Q1734 1478 1555 1478L1555 1478Q1474 1478 1359.5 1468 1245 1458 1093 1451L1093 1451 972 1446Q868 1441 767 1461 666 1481 573 1520.5 480 1560 396 1617.5 312 1675 242 1745L242 1745 286 2180Q341 2138 392 2107.5 443 2077 491 2054L491 2054Q586 2010 705 1979.5 824 1949 972 1949L972 1949Q1013 1949 1075.5 1954.5 1138 1960 1224 1971L1224 1971Q1310 1982 1386.5 1987.5 1463 1993 1535 1993ZM2457 1641L2457 1641Q2457 1664 2448.5 1683 2440 1702 2425 1718L2425 1718Q2327 1820 2226 1893.5 2125 1967 2017 2013L2017 2013Q1804 2106 1535 2106L1535 2106Q1460 2106 1382 2100.5 1304 2095 1219 2084L1219 2084Q1134 2073 1072.5 2068 1011 2063 971 2063L971 2063Q843 2063 740 2087L740 2087Q689 2099 641.5 2114.5 594 2130 548 2151 502 2172 456 2200 410 2228 361 2265L361 2265Q325 2292 286 2292L286 2292Q240 2292 210 2266L210 2266Q179 2240 173 2201L173 2201Q170 2182 137.5 1857 105 1532 43 902L43 902Q43 849 126 760L126 760Q206 673 312 612L312 612Q416 553 546.5 520 677 487 834 487L834 487Q969 487 1084 494.5 1199 502 1302 502L1302 502Q1505 502 1632 452L1632 452Q1695 428 1755 386 1815 344 1874 285L1874 285Q1908 253 1953 253L1953 253Q1994 253 2022 275 2050 297 2061 332L2061 332 2451 1606Q2457 1623 2457 1641Z"/>
</svg>