<svg xmlns="http://www.w3.org/2000/svg"
    viewBox="0 0 2600 2850">
  <!--
Digitized data copyright © 2011, Google Corporation.
Android is a trademark of Google and may be registered in certain jurisdictions.
Licensed under the Apache License, Version 2.0
http://www.apache.org/licenses/LICENSE-2.0
  -->
<path d="M893 801L892 797 887 795 883 799 871 823Q869 831 857 834L857 834 829 838 825 843 849 866Q855 872 855 882L855 882 849 911 849 914 852 916 856 915 881 900 889 899Q894 899 923 914L923 914 927 915 930 912 930 910 923 881Q923 872 929 864L929 864 952 840 948 836 918 833 904 823 893 801ZM1026 1503L1026 1503 1022 1501Q1017 1501 1017 1505L1017 1505 1009 1532Q1007 1540 997 1543L997 1543 968 1551 963 1555 967 1559 990 1576Q997 1581 997 1591L997 1591 996 1620 997 1625 1002 1624 1026 1607 1037 1603 1042 1605 1069 1615 1072 1617 1075 1614 1075 1610 1067 1583 1065 1579 1069 1566Q1090 1544 1090 1540L1090 1540Q1090 1536 1086 1536L1086 1536 1056 1536Q1042 1536 1026 1503ZM674 1220L645 1228 641 1232 645 1237 669 1252Q677 1260 677 1267L677 1267 677 1297 680 1302 707 1282Q708 1278 716 1278L716 1278 722 1279 751 1289 753 1290 756 1286 756 1283 745 1256 744 1252 748 1239 766 1216 767 1212 763 1209 733 1209Q723 1209 718 1202L718 1202 701 1179 700 1179 696 1176 693 1180 685 1208 674 1220ZM377 936L351 948 348 953 351 956 377 968Q388 971 388 982L388 982 392 1011 395 1016 420 992Q426 986 432 986L432 986 435 986 463 992 466 992 470 989 469 985 454 959 452 951Q452 947 468 918L468 918 469 914 465 911 463 911 435 916 432 916Q422 916 418 911L418 911 395 888Q391 888 391 893L391 893 388 921Q386 931 377 936L377 936ZM214 1055L190 1038 187 1037Q183 1037 183 1044L183 1044 187 1071Q187 1080 180 1087L180 1087 157 1105 156 1109Q156 1113 160 1113L160 1113Q192 1121 195 1124L195 1124Q198 1126 212 1157L212 1157Q212 1161 216 1161L216 1161 220 1159 234 1133Q237 1123 247 1123L247 1123 277 1123Q283 1123 283 1119L283 1119 260 1093Q255 1088 255 1079L255 1079 255 1076 264 1049 265 1046Q265 1042 261 1042L261 1042 257 1044 231 1056 224 1057 214 1055ZM600 1681L587 1655 582 1646 585 1639 599 1613 600 1610 596 1607 595 1607 566 1613Q556 1613 550 1607L550 1607Q528 1585 525 1585L525 1585Q521 1585 521 1589L521 1589Q521 1599 521 1606 521 1613 518.5 1619.5 516 1626 508 1632 500 1638 483 1646L483 1646 480 1650Q480 1652 510 1665L510 1665 519 1678 524 1707Q524 1713 528 1713L528 1713 551 1688Q557 1682 565 1682L565 1682 567 1682 596 1687 599 1687 602 1685 600 1681ZM602 1432L574 1443 570 1449 574 1451 600 1465 610 1477 613 1507Q613 1513 617 1513L617 1513 640 1490Q645 1484 654 1484L654 1484 656 1484 685 1491 688 1491 690 1488 690 1484 677 1460 675 1453Q675 1449 692 1417L692 1417 692 1413 688 1410 659 1414 656 1414Q645 1414 643 1409L643 1409Q622 1386 619 1386L619 1386 617 1390Q608 1427 602 1432L602 1432ZM1034 1209L1034 1209Q1034 1205 1028 1205L1028 1205 1000 1202Q988 1202 985 1193L985 1193 971 1168 967 1165Q963 1165 963 1169L963 1169 952 1194Q949 1205 939 1206L939 1206 911 1212 905 1215 909 1219Q923 1233 930 1240 937 1247 937 1250L937 1250 937 1253 933 1282 935 1289 939 1287 964 1271 972 1269Q980 1269 1008 1283L1008 1283 1011 1284 1013 1280 1013 1278 1007 1249 1007 1246Q1007 1236 1034 1209ZM537 1119L537 1119 536 1148Q536 1153 540 1153L540 1153Q543 1153 566 1133L566 1133 578 1130 582 1130 610 1139 614 1141 617 1137 617 1134 606 1107 604 1101 608 1090 625 1067 626 1063 622 1060 591 1060Q582 1060 577 1053L577 1053 561 1030 556 1027Q552 1027 552 1031L552 1031 545 1059Q543 1070 533 1071L533 1071 506 1081 502 1085Q502 1089 529 1104L529 1104Q538 1110 537 1119ZM347 1752L347 1752 347 1750 354 1722 354 1721Q354 1715 350 1715L350 1715 347 1717 312 1732 305 1729 280 1714 277 1714Q273 1714 273 1718L273 1718 273 1719 277 1747 277 1750Q277 1758 272 1763L272 1763 247 1788 253 1791 280 1795Q292 1797 295 1806L295 1806Q308 1836 310 1836L310 1836Q313 1836 328 1806L328 1806Q329 1797 340 1797L340 1797 370 1795Q374 1795 374 1791L374 1791 373 1786Q361 1773 352 1766.5 343 1760 347 1752ZM452 1357L452 1357 454 1384 454 1387Q454 1392 458 1392L458 1392 484 1369 496 1365 500 1366 528 1375 530 1375 535 1372 533 1368 521 1340 519 1334 522 1324 539 1301 540 1297 535 1294 506 1297Q494 1297 491 1290L491 1290 473 1268 468 1265 465 1269 458 1297Q454 1308 447 1309L447 1309Q417 1320 417 1324L417 1324 420 1328 444 1343Q452 1348 452 1357ZM662 827L645 806 640 803Q636 803 636 807L636 807 630 836Q628 839 627.5 840.5 627 842 624 844 621 846 614 849.5 607 853 592 859L592 859 588 863 592 867 617 881Q625 887 625 895L625 895Q627 930 629 930L629 930 655 908 666 904 671 905 699 914 701 914Q706 914 706 910L706 910 706 907 693 879 692 874 695 863 711 840 712 836 708 833 707 833 678 834 675 834Q667 834 662 827L662 827ZM835 1037L822 1012 816 1009 814 1012 803 1040Q796 1050 790 1050L790 1050 762 1057 758 1061 760 1066 782 1083Q789 1088 789 1098L789 1098 785 1127Q785 1133 789 1133L789 1133 793 1131 816 1115 825 1113Q828 1113 836.5 1117 845 1121 860 1126L860 1126 864 1127 867 1124 867 1122 859 1093 857 1089 863 1075 885 1052Q885 1048 879 1048L879 1048 851 1045Q845 1045 835 1037L835 1037ZM778 1518L777 1517 773 1514Q768 1514 768 1518L768 1518 763 1546Q761 1557 751 1558L751 1558 723 1568 719 1572 722 1577 747 1591Q754 1596 755 1606L755 1606Q757 1641 759 1641L759 1641 785 1620 797 1615 801 1615 830 1625 831 1625 835 1622 835 1620 825 1592 823 1585 826 1576 842 1553 844 1548Q844 1544 838 1544L838 1544 810 1547Q802 1547 794 1539L794 1539 778 1518ZM333 1232L338 1261 340 1267 365 1241 377 1237 380 1237 409 1242Q416 1242 416 1238L416 1238 399 1209 396 1201Q396 1199 413 1167L413 1167 414 1164Q414 1160 407 1160L407 1160 379 1165 376 1165Q366 1165 364 1160L364 1160 339 1138Q335 1138 335 1143L335 1143 332 1171Q332 1182 322 1185L322 1185 297 1198 292 1204 297 1206 322 1217Q332 1223 333 1232L333 1232ZM223 1431L201 1449 198 1453Q198 1457 203 1457L203 1457Q219 1460 227.5 1462.5 236 1465 238 1466L238 1466Q240 1468 244 1476 248 1484 255 1501L255 1501Q255 1505 260 1505L260 1505 264 1501 277 1475Q282 1468 291 1466L291 1466 321 1465Q327 1465 327 1461L327 1461 303 1435Q299 1429 299 1421L299 1421 299 1418 307 1391 307 1388 303 1386 301 1386 268 1399Q265 1399 255.5 1395 246 1391 232 1382L232 1382 229 1380Q225 1380 225 1386L225 1386 229 1414Q229 1425 223 1431L223 1431ZM922 1395L939 1373 942 1369Q942 1365 937 1365L937 1365 908 1365Q898 1365 893 1357L893 1357 877 1334 872 1331Q868 1331 868 1335L868 1335 860 1361Q858 1372 848 1373L848 1373Q815 1384 815 1386L815 1386 818 1390 841 1406Q849 1411 849 1421L849 1421 846 1450Q846 1455 851 1455L851 1455 855 1454 878 1438 889 1434 894 1435 922 1446 923 1446 927 1443 927 1440 919 1412 918 1406 922 1395ZM374 1572L379 1602 381 1607 387 1603 406 1583Q411 1577 420 1577L420 1577 422 1577 451 1583Q457 1583 457 1579L457 1579 442 1550 437 1540 440 1533 454 1507 455 1505Q455 1501 450 1501L450 1501 421 1506 418 1506Q410 1506 380 1479L380 1479Q376 1479 376 1484L376 1484 373 1511Q373 1521 364 1527L364 1527 338 1539 335 1544 338 1548 364 1559Q368 1561 374 1572L374 1572ZM2056 897L2056 897 2026 799Q1960 865 1886 914 1812 963 1725 996L1725 996Q1638 1029 1531 1047.5 1424 1066 1295 1061L1295 1061 1095 1055 1119 1171 1329 1176Q1458 1180 1560.5 1163 1663 1146 1742 1115L1742 1115Q1822 1083 1900 1029 1978 975 2056 897ZM1302 815L1302 815 1049 807 1074 934Q1131 939 1185.5 940.5 1240 942 1292 942L1292 942Q1545 942 1701 878L1701 878Q1781 846 1851.5 793.5 1922 741 1985 667L1985 667 1953 565Q1820 698 1675 756L1675 756Q1602 786 1509.5 802.5 1417 819 1302 815ZM2124 1123L2124 1123 2094 1023Q2013 1096 1931 1148.5 1849 1201 1763 1232L1763 1232Q1678 1264 1568 1280.5 1458 1297 1323 1294L1323 1294 1141 1290 1161 1395 1179 1397Q1351 1409 1455 1409L1455 1409Q1680 1409 1829 1342L1829 1342Q1980 1273 2124 1123ZM2197 1358L2197 1358 2164 1250Q2015 1393 1852 1461L1852 1461Q1690 1527 1455 1527L1455 1527Q1401 1527 1332.5 1523.5 1264 1520 1183 1514L1183 1514 1208 1639Q1280 1644 1337 1646 1394 1648 1439 1648L1439 1648Q1690 1648 1863 1581L1863 1581Q1951 1547 2033.5 1491.5 2116 1436 2197 1358ZM247 2005L247 2005 257 2108Q329 2051 412.5 2005.5 496 1960 587.5 1929 679 1898 777 1883 875 1868 975 1871L975 1871 1104 1875Q1262 1880 1361.5 1890 1461 1900 1504 1900L1504 1900Q1740 1900 1913 1833L1913 1833Q2087 1766 2273 1609L2273 1609 2235 1484Q2062 1636 1879 1702L1879 1702Q1699 1766 1442 1766L1442 1766Q1385 1766 1294.5 1758 1204 1750 1079 1745L1079 1745 965 1741Q896 1739 828 1748 760 1757 693 1774L693 1774Q558 1807 435 1874L435 1874Q372 1908 325.5 1940.5 279 1973 247 2005ZM1535 2193L1535 2193Q1785 2193 1976 2108L1976 2108Q2073 2066 2163.5 1999 2254 1932 2344 1840L2344 1840 2310 1730Q2126 1877 1935 1948L1935 1948Q1841 1983 1732.5 2000.5 1624 2018 1499 2018L1499 2018Q1449 2018 1351.5 2008 1254 1998 1104 1993L1104 1993 975 1989Q860 1985 764.5 2005.5 669 2026 589 2055L589 2055Q510 2084 447 2122L447 2122Q415 2141 385.5 2160.5 356 2180 333 2197.5 310 2215 294 2229.5 278 2244 272 2253L272 2253 286 2380Q341 2338 393 2307 445 2276 493 2253L493 2253Q593 2207 712.5 2178 832 2149 972 2149L972 2149Q1014 2149 1077.5 2154.5 1141 2160 1227 2171L1227 2171Q1312 2182 1389 2187.5 1466 2193 1535 2193ZM2457 1841L2457 1841Q2457 1864 2448.5 1883 2440 1902 2425 1918L2425 1918Q2327 2020 2226 2093.5 2125 2167 2017 2213L2017 2213Q1804 2306 1535 2306L1535 2306Q1466 2306 1389 2300.5 1312 2295 1227 2284L1227 2284Q1141 2273 1077.5 2268 1014 2263 972 2263L972 2263Q878 2263 796.5 2278 715 2293 647 2315 579 2337 526 2363 473 2389 436 2411.5 399 2434 380 2449 361 2464 361 2465L361 2465Q326 2492 284 2492L284 2492Q260 2492 240 2483.5 220 2475 205.5 2461 191 2447 182.5 2429 174 2411 172 2391L172 2391 45 1118 43 1104Q45 1090 46.5 1082 48 1074 49 1070L49 1070Q50 1063 78 1020L78 1020Q104 979 150.5 932.5 197 886 251 848L251 848Q306 810 377 778 448 746 539 722L539 722Q584 710 629.5 702 675 694 723 691L723 691Q771 688 798.5 686.5 826 685 834 687L834 687Q969 687 1084 694.5 1199 702 1302 702L1302 702Q1505 702 1632 652L1632 652Q1695 628 1755 586 1815 544 1874 485L1874 485Q1908 453 1953 453L1953 453Q1994 453 2022 474.5 2050 496 2061 532L2061 532 2451 1806Q2457 1823 2457 1841Z"/>
</svg>