<svg xmlns="http://www.w3.org/2000/svg" name="gid15775" data-unicode="𠈓"
    viewBox="0 0 1000 1000">
  <!--
© 2017-2024 Adobe (http://www.adobe.com/).
Noto is a trademark of Google Inc.
This Font Software is licensed under the SIL Open Font License, Version 1.1. This Font Software is distributed on an "AS IS" BASIS, WITHOUT WARRANTIES OR CONDITIONS OF ANY KIND, either express or implied. See the SIL Open Font License for the specific language, permissions and limitations governing your use of this Font Software.
http://scripts.sil.org/OFL
  -->
<path d="M238 43C191 230 110 421 31 543L45 552C86 509 125 456 161 397L161 957 172 957C196 957 223 941 224 936L224 341C241 339 250 332 254 323L211 308C246 241 277 169 303 95 325 96 337 86 341 75ZM715 410L715 687 639 687 639 317 849 317 849 849C849 865 844 870 828 870 810 870 723 863 723 863L723 879C761 885 784 893 797 903 809 914 814 932 816 952 902 942 912 910 912 858L912 330C932 326 949 317 955 310L873 246 839 288 642 288 642 140 935 140C949 140 958 135 961 124 928 94 876 52 876 52L830 111 311 111 319 140 581 140 581 288 389 288 322 255 322 950 333 950C361 950 383 934 383 927L383 317 584 317 584 687 509 687 509 438C524 436 531 429 533 419L456 411 456 798 467 798C487 798 509 785 509 777L509 716 715 716 715 780 726 780C746 780 768 768 768 761L768 438C783 436 790 429 792 419Z"/>
</svg>