<svg xmlns="http://www.w3.org/2000/svg" name="gid15800" data-unicode="𠮟"
    viewBox="0 0 1000 1000">
  <!--
© 2017-2024 Adobe (http://www.adobe.com/).
Noto is a trademark of Google Inc.
This Font Software is licensed under the SIL Open Font License, Version 1.1. This Font Software is distributed on an "AS IS" BASIS, WITHOUT WARRANTIES OR CONDITIONS OF ANY KIND, either express or implied. See the SIL Open Font License for the specific language, permissions and limitations governing your use of this Font Software.
http://scripts.sil.org/OFL
  -->
<path d="M82 165L82 813 93 813C121 813 144 797 144 789L144 669 299 669 299 764 309 764C332 764 363 746 364 739L364 473 375 497 553 461 553 836C553 898 578 918 661 918L769 918C932 919 970 907 970 874 970 861 964 853 941 843L937 677 924 677C911 749 897 820 889 837 885 847 880 850 868 852 852 854 819 855 770 855L672 855C628 855 620 844 620 819L620 448 951 381C963 379 972 371 973 359 930 333 861 297 861 297L819 378 620 419 620 94C645 90 653 79 655 66L553 54 553 432 364 471 364 207C384 203 400 195 407 187L326 124 290 165 150 165 82 133ZM299 194L299 640 144 640 144 194Z"/>
</svg>