<svg xmlns="http://www.w3.org/2000/svg"
    viewBox="0 0 1000 1000">
  <!--
© 2017-2023 Adobe (http://www.adobe.com/).
Noto is a trademark of Google Inc.
This Font Software is licensed under the SIL Open Font License, Version 1.1. This Font Software is distributed on an "AS IS" BASIS, WITHOUT WARRANTIES OR CONDITIONS OF ANY KIND, either express or implied. See the SIL Open Font License for the specific language, permissions and limitations governing your use of this Font Software.
http://scripts.sil.org/OFL
  -->
<path d="M30 684L78 767C87 762 95 753 97 741 226 670 322 610 389 568L384 555 241 609 241 315 369 315C382 315 392 310 395 299 366 270 318 227 318 227L275 286 241 286 241 64C266 61 275 50 277 36L176 25 176 286 41 286 49 315 176 315 176 634C113 657 60 675 30 684ZM835 306L835 537 488 537C490 503 491 470 491 437L491 306ZM847 22C768 57 623 102 497 131L426 107 426 437C426 620 402 787 257 917L271 931C421 835 470 702 485 566L835 566 835 641 845 641C867 641 900 626 901 620L901 319C920 315 937 306 943 298L862 237 825 277 491 277 491 154C625 141 774 112 871 89 894 99 911 99 921 91Z"/>
</svg>