<svg xmlns="http://www.w3.org/2000/svg" name="gid15814" data-unicode="𡋗"
    viewBox="0 0 1000 1000">
  <!--
© 2017-2024 Adobe (http://www.adobe.com/).
Noto is a trademark of Google Inc.
This Font Software is licensed under the SIL Open Font License, Version 1.1. This Font Software is distributed on an "AS IS" BASIS, WITHOUT WARRANTIES OR CONDITIONS OF ANY KIND, either express or implied. See the SIL Open Font License for the specific language, permissions and limitations governing your use of this Font Software.
http://scripts.sil.org/OFL
  -->
<path d="M434 396L442 426 824 426C837 426 846 421 849 410 816 381 765 343 765 343L720 396ZM651 96C708 227 813 342 928 421 935 394 951 371 977 363L978 349C854 293 737 192 667 85 692 83 700 78 702 67L589 42C549 168 437 328 322 414L331 429C466 353 589 226 651 96ZM33 724L74 808C83 804 91 794 94 783 217 715 311 658 377 619L372 605 228 658 228 364 349 364C363 364 373 359 375 348 346 318 298 276 298 276L256 335 228 335 228 116C253 112 262 102 264 88L163 77 163 335 40 335 48 364 163 364 163 681C107 701 60 716 33 724ZM332 861L372 949C382 947 391 940 398 928 581 893 717 865 817 841 838 876 855 911 863 942 944 1001 995 818 706 674L694 682C730 720 771 770 805 822L507 849C557 777 615 672 657 583L918 583C932 583 942 578 944 567 913 536 862 495 862 495L817 554 358 554 365 583 566 583C543 666 504 777 470 852Z"/>
</svg>