<svg xmlns="http://www.w3.org/2000/svg" name="gid15840" data-unicode="𡷠"
    viewBox="0 0 1000 1000">
  <!--
© 2017-2024 Adobe (http://www.adobe.com/).
Noto is a trademark of Google Inc.
This Font Software is licensed under the SIL Open Font License, Version 1.1. This Font Software is distributed on an "AS IS" BASIS, WITHOUT WARRANTIES OR CONDITIONS OF ANY KIND, either express or implied. See the SIL Open Font License for the specific language, permissions and limitations governing your use of this Font Software.
http://scripts.sil.org/OFL
  -->
<path d="M802 83L802 209 528 209 528 81C553 77 563 67 565 53L464 44 464 209 196 209 196 120C222 117 231 107 234 93L132 83 132 285 144 285C169 285 196 272 196 265L196 239 802 239 802 275 813 275C839 275 867 263 867 256L867 120C892 117 902 107 904 93ZM482 329L482 387C482 461 466 545 359 614L369 628C392 619 412 608 429 597L437 626 488 626C517 696 557 755 608 803 526 864 421 910 296 942L303 958C442 934 556 894 647 836 720 892 810 932 917 960 926 928 947 907 975 901L976 891C872 874 776 845 696 801 755 755 803 699 839 635 863 634 874 632 881 623L809 555 763 596 432 596C533 532 545 446 545 386L545 359 721 359 721 494C721 533 729 549 784 549L839 549C929 549 955 538 955 511 955 501 952 493 933 485L930 388 917 388C909 431 898 471 893 484 890 492 886 493 880 493 875 493 860 493 843 493L802 493C785 493 783 491 783 482L783 367C801 365 810 359 816 353L747 293 712 329 557 329 482 297ZM760 626C732 681 694 729 647 771 590 732 544 684 512 626ZM35 666L79 747C88 743 96 734 98 722L193 675 193 863C193 877 188 883 172 883 154 883 66 876 66 876L66 892C104 896 127 904 140 915 153 926 157 942 160 962 245 953 256 921 256 868L256 643 392 571 387 556 256 599 256 457 388 457C401 457 411 452 413 442 384 413 337 374 337 374L296 428 256 428 256 328C280 325 289 317 292 303L193 292 193 428 42 428 50 457 193 457 193 619C125 641 68 658 35 666Z"/>
</svg>