<svg xmlns="http://www.w3.org/2000/svg"
    viewBox="0 0 1000 1000">
  <!--
© 2017-2024 Adobe (http://www.adobe.com/).
Noto is a trademark of Google Inc.
This Font Software is licensed under the SIL Open Font License, Version 1.1. This Font Software is distributed on an "AS IS" BASIS, WITHOUT WARRANTIES OR CONDITIONS OF ANY KIND, either express or implied. See the SIL Open Font License for the specific language, permissions and limitations governing your use of this Font Software.
http://scripts.sil.org/OFL
  -->
<path d="M681 64C734 169 825 261 929 322 935 296 949 273 973 266L975 253C861 212 759 138 695 54 718 51 727 47 730 36L633 12C591 112 485 240 381 316L381 238C405 235 414 226 417 213L325 202 325 695 254 695 254 81C276 78 284 69 286 55L196 45 196 695 132 695 132 241C156 238 164 228 167 216L76 205 76 844 87 844C107 844 132 831 132 823L132 725 325 725 325 792 337 792C358 792 381 778 381 770L381 334C505 271 621 161 681 64ZM497 286L504 315 634 315 634 412 516 412 445 381 445 680 454 680C485 680 504 667 504 662L504 626 624 626C601 737 533 834 355 914L365 929C585 856 662 746 686 626L690 626C730 772 801 873 919 929 926 898 945 880 970 874L971 863C852 829 760 740 713 626L836 626 836 668 846 668C874 668 898 654 898 650L898 444C917 441 926 435 932 428L864 376 833 412 696 412 696 315 830 315C844 315 853 310 855 299 828 274 785 240 785 240L749 286ZM504 597L504 441 634 441 634 511C634 541 633 569 629 597ZM836 597L691 597C695 568 696 539 696 510L696 441 836 441Z"/>
</svg>