<svg xmlns="http://www.w3.org/2000/svg" name="gid15842" data-unicode="𡸴"
    viewBox="0 0 1000 1000">
  <!--
© 2017-2024 Adobe (http://www.adobe.com/).
Noto is a trademark of Google Inc.
This Font Software is licensed under the SIL Open Font License, Version 1.1. This Font Software is distributed on an "AS IS" BASIS, WITHOUT WARRANTIES OR CONDITIONS OF ANY KIND, either express or implied. See the SIL Open Font License for the specific language, permissions and limitations governing your use of this Font Software.
http://scripts.sil.org/OFL
  -->
<path d="M681 94C734 199 825 291 929 352 935 326 949 303 973 296L975 283C861 242 759 168 695 84 718 81 727 77 730 66L633 42C591 142 485 270 381 346L381 268C405 265 414 256 417 243L325 232 325 725 254 725 254 111C276 108 284 99 286 85L196 75 196 725 132 725 132 271C156 268 164 258 167 246L76 235 76 874 87 874C107 874 132 861 132 853L132 755 325 755 325 822 337 822C358 822 381 808 381 800L381 364C505 301 621 191 681 94ZM497 316L504 345 634 345 634 442 516 442 445 411 445 710 454 710C485 710 504 697 504 692L504 656 624 656C601 767 533 864 355 944L365 959C585 886 662 776 686 656L690 656C730 802 801 903 919 959 926 928 945 910 970 904L971 893C852 859 760 770 713 656L836 656 836 698 846 698C874 698 898 684 898 680L898 474C917 471 926 465 932 458L864 406 833 442 696 442 696 345 830 345C844 345 853 340 855 329 828 304 785 270 785 270L749 316ZM504 627L504 471 634 471 634 541C634 571 633 599 629 627ZM836 627L691 627C695 598 696 569 696 540L696 471 836 471Z"/>
</svg>