<svg xmlns="http://www.w3.org/2000/svg"
    viewBox="0 0 1000 1000">
  <!--
© 2017-2024 Adobe (http://www.adobe.com/).
Noto is a trademark of Google Inc.
This Font Software is licensed under the SIL Open Font License, Version 1.1. This Font Software is distributed on an "AS IS" BASIS, WITHOUT WARRANTIES OR CONDITIONS OF ANY KIND, either express or implied. See the SIL Open Font License for the specific language, permissions and limitations governing your use of this Font Software.
http://scripts.sil.org/OFL
  -->
<path d="M35 530L77 611C86 608 94 598 96 586L182 538 182 826C182 841 177 846 160 846 142 846 55 840 55 840L55 856C94 861 115 868 129 879 141 890 146 908 149 928 235 918 245 886 245 832L245 501C293 473 333 448 365 427L360 414 245 457 245 257 372 257C386 257 396 252 398 241 370 212 322 172 322 172L281 227 245 227 245 50C269 47 279 37 282 23L182 12 182 227 39 227 47 257 182 257 182 480C118 503 65 521 35 530ZM608 246C609 296 611 344 616 391L464 391 387 357 387 488C387 621 376 780 284 915L298 927C439 796 451 607 451 487L451 419 619 419C631 517 653 609 689 689 631 768 558 842 473 896L484 909C574 865 651 805 714 738 746 795 787 846 839 887 878 919 933 944 955 915 963 903 960 889 934 856L948 727 935 725C924 760 909 800 899 821 891 838 885 838 871 825 824 789 787 741 758 687 805 628 842 567 868 509 893 512 902 507 906 496L810 459C792 513 765 570 731 626 707 561 692 491 684 419L926 419C940 419 950 415 953 404 933 387 907 367 888 353 911 329 892 264 765 250L755 259C789 281 829 324 842 358L844 359 817 391 681 391C678 355 676 319 676 283 699 279 707 268 709 257ZM716 21L716 139 550 139 550 59C574 55 584 46 586 32L488 21 488 139 346 139 354 168 488 168 488 253 499 253C522 253 550 242 550 235L550 168 716 168 716 251 728 251C751 251 778 240 778 233L778 168 936 168C949 168 959 163 962 152 930 122 878 79 878 79L833 139 778 139 778 59C804 55 813 46 815 32Z"/>
</svg>