<svg xmlns="http://www.w3.org/2000/svg" name="gid15865" data-unicode="𣆶"
    viewBox="0 0 1000 1000">
  <!--
© 2017-2024 Adobe (http://www.adobe.com/).
Noto is a trademark of Google Inc.
This Font Software is licensed under the SIL Open Font License, Version 1.1. This Font Software is distributed on an "AS IS" BASIS, WITHOUT WARRANTIES OR CONDITIONS OF ANY KIND, either express or implied. See the SIL Open Font License for the specific language, permissions and limitations governing your use of this Font Software.
http://scripts.sil.org/OFL
  -->
<path d="M291 293L172 293 150 284C179 247 206 206 229 166L347 166C334 206 312 257 291 293ZM214 42C179 156 108 299 33 379L46 389C64 375 83 358 100 340L100 591 109 591C139 591 160 575 160 570L160 534 216 534C212 676 198 825 31 942L46 958C246 847 271 692 279 534L345 534 345 856C345 918 370 931 482 931L674 931C932 931 971 923 971 889 971 875 963 868 936 861L934 739 921 739C908 798 896 840 886 857 881 866 875 870 856 872 830 874 761 875 676 875L484 875C414 875 407 868 407 846L407 534 463 534 463 579 473 579C493 579 525 565 526 559L526 331C543 328 558 320 564 314L488 256 454 293 315 293C354 258 392 206 418 173 437 171 448 170 456 163L385 97 347 136 245 136C256 116 265 97 273 78 298 79 306 74 309 63ZM283 506L160 506 160 322 283 322ZM343 506L343 322 463 322 463 506ZM838 445L838 698 650 698 650 445ZM838 416L650 416 650 170 838 170ZM588 140L588 799 599 799C627 799 650 783 650 776L650 727 838 727 838 781 848 781C870 781 900 765 901 758L901 182C921 178 938 170 945 162L865 100 828 140 655 140 588 109Z"/>
</svg>