<svg xmlns="http://www.w3.org/2000/svg" name="gid15876" data-unicode="𣏟"
    viewBox="0 0 1000 1000">
  <!--
© 2017-2024 Adobe (http://www.adobe.com/).
Noto is a trademark of Google Inc.
This Font Software is licensed under the SIL Open Font License, Version 1.1. This Font Software is distributed on an "AS IS" BASIS, WITHOUT WARRANTIES OR CONDITIONS OF ANY KIND, either express or implied. See the SIL Open Font License for the specific language, permissions and limitations governing your use of this Font Software.
http://scripts.sil.org/OFL
  -->
<path d="M364 345L364 750 375 750C396 750 422 737 422 728L422 377C441 374 448 366 450 355ZM106 348C105 527 111 701 31 828L46 844C163 723 163 548 167 381 188 379 196 369 198 356ZM532 348C531 539 538 716 447 844L462 858C589 738 588 560 593 383 614 379 622 370 624 357ZM791 345L791 720C791 789 802 806 854 806L903 806C953 806 972 787 972 763 972 752 968 747 950 738L948 646 934 646C926 693 920 725 916 738 912 749 908 749 902 749L860 749C849 749 849 747 849 722L849 380C868 377 879 368 880 356ZM46 244L54 273 235 273 235 958 247 958C271 958 298 943 298 933L298 273 455 273C469 273 478 268 481 257 452 228 405 188 405 188L363 244 298 244 298 85C322 81 330 71 333 57L235 46 235 244ZM486 243L494 271 660 271 660 958 672 958C696 958 722 943 722 933L722 271 942 271C956 271 964 266 967 255 937 226 886 184 886 184L841 243 722 243 722 85C748 81 756 71 759 57L660 46 660 243Z"/>
</svg>