<svg xmlns="http://www.w3.org/2000/svg" name="gid15875" data-unicode="𣏚"
    viewBox="0 0 1000 1000">
  <!--
© 2017-2024 Adobe (http://www.adobe.com/).
Noto is a trademark of Google Inc.
This Font Software is licensed under the SIL Open Font License, Version 1.1. This Font Software is distributed on an "AS IS" BASIS, WITHOUT WARRANTIES OR CONDITIONS OF ANY KIND, either express or implied. See the SIL Open Font License for the specific language, permissions and limitations governing your use of this Font Software.
http://scripts.sil.org/OFL
  -->
<path d="M499 185C561 181 624 173 684 163 685 257 687 350 695 438L499 438ZM340 877L389 953C398 950 406 941 409 929 557 873 665 828 741 794L737 778C653 801 569 823 499 840L499 467 698 467C716 645 756 801 845 901 878 939 929 967 955 941 966 930 963 913 943 876L957 731 944 729C934 767 920 809 909 831 902 848 896 849 885 836 815 765 776 622 759 467L936 467C950 467 960 462 962 451 931 421 880 379 880 379L834 438 756 438C747 341 746 241 749 152 798 143 843 132 880 122 903 132 921 131 930 123L852 51C782 87 655 129 535 156 538 155 538 154 539 152L435 116 435 856C396 865 363 873 340 877ZM204 39L204 281 50 281 58 310 190 310C160 460 107 605 22 717L35 731C108 660 163 577 204 484L204 957 218 957C241 957 268 942 268 933L268 460C306 502 349 564 362 610 424 655 473 528 268 441L268 310 407 310C421 310 430 305 433 294 402 264 351 223 351 223L305 281 268 281 268 78C294 74 302 64 304 50Z"/>
</svg>