<svg xmlns="http://www.w3.org/2000/svg"
    viewBox="0 0 1000 1000">
  <!--
© 2017-2024 Adobe (http://www.adobe.com/).
Noto is a trademark of Google Inc.
This Font Software is licensed under the SIL Open Font License, Version 1.1. This Font Software is distributed on an "AS IS" BASIS, WITHOUT WARRANTIES OR CONDITIONS OF ANY KIND, either express or implied. See the SIL Open Font License for the specific language, permissions and limitations governing your use of this Font Software.
http://scripts.sil.org/OFL
  -->
<path d="M465 510L455 519C483 536 513 567 524 592 572 619 606 528 465 510ZM463 633L452 642C483 663 518 702 528 733 576 765 612 668 463 633ZM679 515L669 525C698 541 733 573 746 598 796 624 827 529 679 515ZM677 641L667 650C700 672 739 713 751 745 803 777 837 673 677 641ZM176 8L176 247 45 247 53 276 161 276C139 421 99 567 31 681L45 694C101 625 144 548 176 463L176 926 189 926C212 926 239 911 239 903L239 424C267 464 299 519 309 561 365 605 414 491 239 401L239 276 355 276C369 276 377 271 380 260 352 231 305 191 305 191L263 247 239 247 239 47C263 43 271 33 274 19ZM554 12C535 29 499 56 465 78L392 58 392 427 401 427C435 427 453 409 454 404L454 392 819 392 819 422 829 422C850 422 882 408 883 401L883 121C902 117 918 109 924 101L845 40 810 80 668 80 677 109 819 109 819 220 686 220 695 249 819 249 819 362 454 362 454 249 595 249C609 249 618 244 621 233 596 208 556 174 556 174L520 220 454 220 454 110C501 99 555 83 586 71 609 77 624 76 632 67ZM804 445C805 563 809 700 836 798L655 831 655 478C676 476 684 467 686 455L599 446 599 790 440 818 440 477C460 474 468 465 470 453L381 444 381 828 289 842 337 920C346 918 354 911 358 897 464 862 542 832 599 810L599 840 553 847 602 923C611 920 618 913 623 900 717 868 789 839 842 818 854 855 871 885 893 905 918 925 956 937 970 915 978 905 970 885 956 867L966 775 954 772C948 793 937 822 929 838 924 847 921 847 914 841 868 788 865 603 867 479 886 476 895 466 896 454Z"/>
</svg>