<svg xmlns="http://www.w3.org/2000/svg" name="gid15892" data-unicode="𣜜"
    viewBox="0 0 1000 1000">
  <!--
© 2017-2024 Adobe (http://www.adobe.com/).
Noto is a trademark of Google Inc.
This Font Software is licensed under the SIL Open Font License, Version 1.1. This Font Software is distributed on an "AS IS" BASIS, WITHOUT WARRANTIES OR CONDITIONS OF ANY KIND, either express or implied. See the SIL Open Font License for the specific language, permissions and limitations governing your use of this Font Software.
http://scripts.sil.org/OFL
  -->
<path d="M363 147L370 176 513 176 513 245 525 245C553 245 575 234 575 228L575 176 715 176 715 243 729 243C763 242 779 229 779 225L779 176 939 176C953 176 962 171 964 160 934 130 887 94 887 94L845 147 779 147 779 81C802 78 811 67 812 54L715 46 715 147 575 147 575 81C599 78 607 67 608 54L513 46 513 147ZM187 40L187 279 42 279 50 309 172 309C148 458 103 603 29 717L43 732C105 662 152 583 187 496L187 958 201 958C224 958 250 943 250 935L250 436C279 475 315 529 327 571 384 615 437 499 250 415L250 309 378 309C391 309 401 304 404 293 373 263 324 222 324 222L281 279 250 279 250 79C275 75 283 66 286 51ZM478 418L618 418 618 508 478 508ZM826 418L826 508 679 508 679 418ZM478 389L478 302 618 302 618 389ZM826 389L679 389 679 302 826 302ZM376 620L376 958 386 958C411 958 438 943 438 937L438 648 618 648 618 748C555 750 501 752 469 752L508 828C517 826 525 820 532 807 634 788 711 772 766 760 775 781 781 802 783 821 833 865 888 756 730 676L718 683C731 699 745 720 757 742L679 745 679 648 858 648 858 864C858 878 854 884 837 884 818 884 730 877 730 877L730 893C769 898 792 905 805 915 818 924 822 941 824 960 910 951 920 920 920 873L920 661C940 657 957 649 964 642L881 580 848 620 679 620 679 537 826 537 826 572 837 572C865 572 889 557 889 553L889 306C908 303 918 297 925 290L855 237 823 273 489 273 418 242 418 579 427 579C458 579 478 566 478 561L478 537 618 537 618 620 443 620 376 589Z"/>
</svg>