<svg xmlns="http://www.w3.org/2000/svg" name="gid15895" data-unicode="𣝤"
    viewBox="0 0 1000 1000">
  <!--
© 2017-2024 Adobe (http://www.adobe.com/).
Noto is a trademark of Google Inc.
This Font Software is licensed under the SIL Open Font License, Version 1.1. This Font Software is distributed on an "AS IS" BASIS, WITHOUT WARRANTIES OR CONDITIONS OF ANY KIND, either express or implied. See the SIL Open Font License for the specific language, permissions and limitations governing your use of this Font Software.
http://scripts.sil.org/OFL
  -->
<path d="M349 316L339 324C376 356 419 412 428 458 493 503 542 368 349 316ZM171 38L171 277 42 277 50 306 158 306C135 452 93 601 26 717L41 730C96 661 138 582 171 497L171 956 184 956C206 956 233 940 233 931L233 409C262 449 292 503 299 545 353 590 405 473 233 385L233 306 343 306C357 306 366 301 369 290 342 261 296 219 296 219L256 277 233 277 233 76C257 72 265 63 268 49ZM610 421L707 421 707 512 610 512ZM598 260C568 364 519 466 471 530L487 540C509 522 531 500 552 475L552 835 562 835C591 835 610 819 610 814L610 792 927 792C941 792 950 787 953 776 923 748 873 707 873 707L830 763 765 763 765 664 902 664C916 664 925 659 928 648 900 622 858 586 858 586L819 635 765 635 765 541 898 541C911 541 920 536 923 525 897 499 853 464 853 464L816 512 765 512 765 421 915 421C928 421 938 416 940 405 912 378 867 341 867 341L827 392 745 392C768 368 790 340 805 317 826 317 838 309 841 296L742 274C736 308 725 356 714 392L623 392 614 388C629 364 643 338 656 312 676 313 688 305 692 294ZM610 541L707 541 707 635 610 635ZM610 664L707 664 707 763 610 763ZM463 632C490 628 505 620 511 613L430 544 393 593 318 593 324 622 406 622 406 815C367 840 326 864 299 877L342 951C350 947 354 940 351 928 379 902 423 852 451 815 499 910 559 932 685 932 764 932 851 932 922 932 926 904 939 885 963 881L963 867C879 869 769 869 685 869 569 869 513 860 463 795ZM392 88L392 292 404 292C427 292 452 280 452 273L452 242 843 242 843 278 854 278C878 278 903 265 903 258L903 125C928 121 938 113 940 99L843 89 843 212 677 212 677 85C701 81 710 72 712 58L614 48 614 212 452 212 452 125C477 121 486 112 489 98Z"/>
</svg>