<svg xmlns="http://www.w3.org/2000/svg"
    viewBox="0 0 1000 1000">
  <!--
© 2017-2023 Adobe (http://www.adobe.com/).
Noto is a trademark of Google Inc.
This Font Software is licensed under the SIL Open Font License, Version 1.1. This Font Software is distributed on an "AS IS" BASIS, WITHOUT WARRANTIES OR CONDITIONS OF ANY KIND, either express or implied. See the SIL Open Font License for the specific language, permissions and limitations governing your use of this Font Software.
http://scripts.sil.org/OFL
  -->
<path d="M468 451L468 835C468 849 463 854 447 854 428 854 339 848 339 848L339 863C379 868 402 875 415 885 427 894 431 910 433 927 519 918 528 888 528 838L528 486C552 483 561 476 564 462ZM132 800L184 874C193 870 200 861 202 848 309 790 389 742 444 708L439 694C312 741 186 785 132 800ZM555 692L549 708C668 754 763 823 803 866 879 897 912 741 555 692ZM685 499C651 559 608 620 575 656L589 669C633 642 687 601 731 558 751 563 765 556 770 548ZM190 41L179 49C219 89 265 157 274 212 340 264 399 122 190 41ZM697 31C661 102 615 177 579 221L592 233C643 200 702 148 751 94 772 98 786 91 791 81ZM448 10C434 86 413 163 382 237L105 237 113 266 370 266C350 309 327 352 300 392L48 392 57 420 281 420C218 507 136 585 30 645L40 656C124 620 194 575 252 524 291 558 337 617 349 663 415 708 466 576 263 514 296 485 325 453 351 420L654 420C723 507 812 579 908 626 915 598 940 581 973 574L975 561C889 531 798 482 722 420L928 420C942 420 952 415 955 405 920 373 865 332 865 332L816 392 689 392C648 354 612 311 586 266L876 266C890 266 899 261 902 250 869 219 815 178 815 178L768 237 459 237C484 179 503 118 518 58 539 58 554 51 557 36ZM446 266L559 266C579 310 604 353 633 392L372 392C401 352 425 310 446 266Z"/>
</svg>