<svg xmlns="http://www.w3.org/2000/svg"
    viewBox="0 0 1000 1000">
  <!--
© 2017-2023 Adobe (http://www.adobe.com/).
Noto is a trademark of Google Inc.
This Font Software is licensed under the SIL Open Font License, Version 1.1. This Font Software is distributed on an "AS IS" BASIS, WITHOUT WARRANTIES OR CONDITIONS OF ANY KIND, either express or implied. See the SIL Open Font License for the specific language, permissions and limitations governing your use of this Font Software.
http://scripts.sil.org/OFL
  -->
<path d="M110 25L102 34C145 63 199 115 218 159 292 197 328 54 110 25ZM48 242L38 251C80 279 127 328 140 369 210 411 252 271 48 242ZM94 643C83 643 51 643 51 643L51 665C73 667 86 670 100 679 119 694 125 774 112 876 113 908 125 926 144 926 176 926 195 900 197 857 201 775 174 728 173 683 172 659 178 627 185 597 198 550 268 326 304 205L286 201C134 588 134 588 117 623 108 643 104 643 94 643ZM296 268L304 297 473 297C423 395 348 480 242 546L251 559C387 496 483 408 546 297L668 297C723 409 814 492 918 540 927 508 947 489 973 484L974 473C870 444 758 381 694 297L934 297C948 297 958 292 961 282 927 251 874 208 874 208L826 268 562 268C584 224 602 176 615 125 699 113 776 98 838 82 863 92 882 92 890 83L812 11C701 60 486 113 303 133L306 152C380 150 456 145 529 136 519 182 505 226 486 268ZM297 549L305 577 457 577C426 689 359 797 255 866L264 880C405 814 486 702 526 583 548 581 558 579 565 571L494 509 454 549ZM570 396L570 831C570 846 565 850 549 850 531 850 440 844 440 844L440 860C480 865 502 872 515 883 529 893 533 910 536 929 622 920 633 888 633 836L633 505C677 716 768 808 901 879 909 846 929 823 955 817L956 806C860 774 771 727 708 633 752 612 807 581 852 548 873 556 888 551 895 544L817 481C777 533 731 582 696 614 668 567 647 508 633 434L633 432C655 428 665 420 667 407Z"/>
</svg>