<svg xmlns="http://www.w3.org/2000/svg"
    viewBox="0 0 1000 1000">
  <!--
© 2017-2024 Adobe (http://www.adobe.com/).
Noto is a trademark of Google Inc.
This Font Software is licensed under the SIL Open Font License, Version 1.1. This Font Software is distributed on an "AS IS" BASIS, WITHOUT WARRANTIES OR CONDITIONS OF ANY KIND, either express or implied. See the SIL Open Font License for the specific language, permissions and limitations governing your use of this Font Software.
http://scripts.sil.org/OFL
  -->
<path d="M238 827L285 912C294 909 303 900 306 888 508 817 655 758 761 713L757 698 542 754 542 489 730 489C744 489 754 484 756 473 725 442 674 400 674 400L628 460 542 460 542 279C564 276 573 267 575 254L558 252C608 213 666 154 702 120 722 119 734 117 742 110L670 43 629 83 280 83 289 112 624 112C600 153 565 210 535 250L479 244 479 770 382 795 382 375C404 372 412 364 414 352L323 342 323 809Z"/>
</svg>