<svg xmlns="http://www.w3.org/2000/svg" name="gid15935" data-unicode="𥁕"
    viewBox="0 0 1000 1000">
  <!--
© 2017-2024 Adobe (http://www.adobe.com/).
Noto is a trademark of Google Inc.
This Font Software is licensed under the SIL Open Font License, Version 1.1. This Font Software is distributed on an "AS IS" BASIS, WITHOUT WARRANTIES OR CONDITIONS OF ANY KIND, either express or implied. See the SIL Open Font License for the specific language, permissions and limitations governing your use of this Font Software.
http://scripts.sil.org/OFL
  -->
<path d="M359 904L218 904 218 609 359 609ZM421 904L421 609 568 609 568 904ZM631 904L631 609 775 609 775 904ZM155 579L155 904 43 904 51 932 935 932C949 932 958 927 961 916 932 886 882 841 882 841L839 903 839 617C865 615 877 609 885 599L798 535 763 579 230 579 155 548ZM224 102L224 528 234 528C265 528 286 514 286 509L286 463 711 463 711 514 721 514C751 514 774 501 774 496L774 135C796 132 806 126 813 119L740 63 707 102 297 102 224 70ZM286 434L286 131 711 131 711 434ZM484 143C468 236 420 337 332 390L339 406C411 377 462 327 498 270 541 302 591 350 609 387 667 419 695 307 509 252 521 229 531 207 539 184 564 184 570 178 574 168Z"/>
</svg>