<svg xmlns="http://www.w3.org/2000/svg" name="gid15937" data-unicode="𥆩"
    viewBox="0 0 1000 1000">
  <!--
© 2017-2024 Adobe (http://www.adobe.com/).
Noto is a trademark of Google Inc.
This Font Software is licensed under the SIL Open Font License, Version 1.1. This Font Software is distributed on an "AS IS" BASIS, WITHOUT WARRANTIES OR CONDITIONS OF ANY KIND, either express or implied. See the SIL Open Font License for the specific language, permissions and limitations governing your use of this Font Software.
http://scripts.sil.org/OFL
  -->
<path d="M699 583L699 876C699 919 710 934 770 934L837 934C943 934 969 922 969 895 969 884 967 875 948 868L945 729 931 729C921 786 911 847 904 864 900 874 898 875 890 876 883 877 864 877 838 877L786 877C764 877 761 874 761 862L761 618C778 615 788 606 790 594ZM525 592C522 719 513 847 273 944L286 960C566 872 579 741 589 625 611 623 619 613 621 601ZM428 67L428 594 438 594C462 594 488 580 488 573L488 105C513 102 521 92 524 78ZM269 560L269 746 137 746 137 560ZM269 531L137 531 137 345 269 345ZM269 316L137 316 137 143 269 143ZM75 114L75 887 87 887C115 887 137 871 137 863L137 776 269 776 269 852 279 852C301 852 331 835 332 828L332 156C352 152 369 144 375 136L296 73 260 114 142 114 75 81ZM649 318L840 318 840 481 649 481ZM649 290L649 130 840 130 840 290ZM587 101L587 576 597 576C624 576 649 561 649 554L649 510 840 510 840 572 849 572C871 572 901 556 902 549L902 143C922 139 938 130 945 122L866 61 830 101 653 101 587 70Z"/>
</svg>