<svg xmlns="http://www.w3.org/2000/svg" name="gid15938" data-unicode="𥇍"
    viewBox="0 0 1000 1000">
  <!--
© 2017-2024 Adobe (http://www.adobe.com/).
Noto is a trademark of Google Inc.
This Font Software is licensed under the SIL Open Font License, Version 1.1. This Font Software is distributed on an "AS IS" BASIS, WITHOUT WARRANTIES OR CONDITIONS OF ANY KIND, either express or implied. See the SIL Open Font License for the specific language, permissions and limitations governing your use of this Font Software.
http://scripts.sil.org/OFL
  -->
<path d="M279 564L279 745 139 745 139 564ZM279 534L139 534 139 355 279 355ZM279 325L139 325 139 158 279 158ZM77 128L77 890 88 890C117 890 139 873 139 865L139 775 279 775 279 843 288 843C310 843 340 826 341 819L341 169C362 165 379 157 384 149L305 86 269 127 279 128 144 128 77 96ZM429 295L429 671 439 671C464 671 491 656 491 650L491 612 618 612 618 738 362 738 370 768 618 768 618 955 629 955C662 955 683 940 683 936L683 768 946 768C960 768 969 763 972 752 940 720 886 678 886 678L839 738 683 738 683 612 817 612 817 655 825 655C846 655 879 641 880 635L880 337C900 333 916 324 923 317L842 255 806 295 683 295 683 196 910 196C924 196 934 191 937 181 906 151 856 111 856 111L812 167 683 167 683 78C708 75 717 65 719 51L618 41 618 295 497 295 429 264ZM817 324L817 438 491 438 491 324ZM491 467L817 467 817 582 491 582Z"/>
</svg>