<svg xmlns="http://www.w3.org/2000/svg"
    viewBox="0 0 1000 1000">
  <!--
© 2017-2024 Adobe (http://www.adobe.com/).
Noto is a trademark of Google Inc.
This Font Software is licensed under the SIL Open Font License, Version 1.1. This Font Software is distributed on an "AS IS" BASIS, WITHOUT WARRANTIES OR CONDITIONS OF ANY KIND, either express or implied. See the SIL Open Font License for the specific language, permissions and limitations governing your use of this Font Software.
http://scripts.sil.org/OFL
  -->
<path d="M507 179L495 185C516 227 540 294 539 346 591 400 659 282 507 179ZM47 86L55 115 174 115C153 280 111 444 36 573L51 586C79 551 103 514 125 476L125 881 135 881C165 881 185 865 185 860L185 766 300 766 300 841 310 841C330 841 361 827 362 821L362 427C381 424 397 416 403 408L325 349 291 386 197 386 173 376C206 295 228 208 244 115L404 115C418 115 428 110 430 99 397 70 346 29 346 29L300 86ZM300 416L300 737 185 737 185 416ZM401 139L409 167 926 167C940 167 950 162 953 152 920 121 868 80 868 80L820 139 691 139 691 48C713 44 721 35 723 22L627 13 627 139ZM654 522L654 697 528 697 528 522ZM470 493L470 805 479 805C503 805 528 791 528 785L528 727 654 727 654 774 662 774C682 774 710 760 711 754L711 533C730 529 746 521 753 514L678 457 644 493 532 493 470 464ZM768 170C754 218 727 310 706 370L388 370 396 400 818 400 818 826C818 841 813 847 794 847 770 847 654 838 654 838L654 853C705 860 733 868 751 880 764 891 772 909 773 930 870 920 883 881 883 829L883 400 948 400C962 400 971 395 974 384 942 353 890 312 890 312L844 370 727 370 831 219C854 220 863 214 866 204Z"/>
</svg>