<svg xmlns="http://www.w3.org/2000/svg"
    viewBox="0 0 1000 1000">
  <!--
© 2017-2024 Adobe (http://www.adobe.com/).
Noto is a trademark of Google Inc.
This Font Software is licensed under the SIL Open Font License, Version 1.1. This Font Software is distributed on an "AS IS" BASIS, WITHOUT WARRANTIES OR CONDITIONS OF ANY KIND, either express or implied. See the SIL Open Font License for the specific language, permissions and limitations governing your use of this Font Software.
http://scripts.sil.org/OFL
  -->
<path d="M407 367L416 397 638 397 638 821C638 836 633 840 615 840 592 840 481 833 481 833L481 848C530 854 557 863 573 876 587 887 594 907 595 930 691 920 704 878 704 823L704 397 851 397C826 451 786 524 757 569L769 578C825 534 897 462 935 410 956 408 967 406 974 399L896 323 852 367 747 367C781 360 785 301 715 247 780 209 853 156 895 112 916 111 928 109 936 102L859 28 813 72 455 72 464 101 807 101C778 143 734 194 695 233 657 209 603 188 529 174L520 185C593 223 687 299 719 363L732 367ZM375 17C304 59 163 117 47 147L53 163C110 157 171 146 229 134L229 313 48 313 56 343 213 343C175 479 111 619 26 722L39 735C117 665 181 580 229 485L229 928 240 928C271 928 294 912 294 906L294 429C333 469 376 524 390 567 452 611 500 485 294 406L294 343 437 343C450 343 460 338 463 327 433 297 384 258 384 258L342 313 294 313 294 118C336 108 375 96 406 86 431 94 447 93 456 85Z"/>
</svg>