<svg xmlns="http://www.w3.org/2000/svg" name="gid15959" data-unicode="𥮲"
    viewBox="0 0 1000 1000">
  <!--
© 2017-2024 Adobe (http://www.adobe.com/).
Noto is a trademark of Google Inc.
This Font Software is licensed under the SIL Open Font License, Version 1.1. This Font Software is distributed on an "AS IS" BASIS, WITHOUT WARRANTIES OR CONDITIONS OF ANY KIND, either express or implied. See the SIL Open Font License for the specific language, permissions and limitations governing your use of this Font Software.
http://scripts.sil.org/OFL
  -->
<path d="M196 42C158 157 97 269 40 338L54 349C106 308 158 248 202 180L260 180C282 210 304 252 309 286 358 325 410 240 301 180L507 180C521 180 531 175 533 164 504 136 457 99 457 99L417 151 220 151C231 132 241 113 251 94 272 96 284 88 288 78ZM589 42C559 133 510 221 465 275L479 286C516 260 553 223 586 181L633 181C657 207 681 245 686 276 737 314 785 232 688 181L933 181C947 181 957 176 960 165 927 134 876 95 876 95L830 151 608 151C620 133 632 114 643 94 664 97 676 88 680 77ZM91 870L141 955C150 952 158 945 164 933 335 889 456 854 540 827L538 810 308 843 308 672 473 672C556 822 712 911 903 959 910 926 931 905 960 899L961 889C851 872 743 842 655 796 718 776 784 752 826 732 846 739 855 736 863 727L785 672 922 672C936 672 946 667 949 656 915 627 863 587 863 587L817 643 308 643 308 560 788 560C802 560 811 555 814 544 783 517 735 482 735 482L693 531 308 531 308 448 782 448C796 448 805 443 808 432 777 405 730 372 730 372L688 419 308 419 308 337 822 337C835 337 845 332 848 321 815 292 763 253 763 253L716 309 319 309 243 275 243 643 48 643 57 672 243 672 243 852C179 861 126 867 91 870ZM498 672L783 672C747 701 683 746 626 780 575 750 531 714 498 672Z"/>
</svg>