<svg xmlns="http://www.w3.org/2000/svg"
    viewBox="0 0 1000 1000">
  <!--
© 2017-2023 Adobe (http://www.adobe.com/).
Noto is a trademark of Google Inc.
This Font Software is licensed under the SIL Open Font License, Version 1.1. This Font Software is distributed on an "AS IS" BASIS, WITHOUT WARRANTIES OR CONDITIONS OF ANY KIND, either express or implied. See the SIL Open Font License for the specific language, permissions and limitations governing your use of this Font Software.
http://scripts.sil.org/OFL
  -->
<path d="M141 484C130 484 93 484 93 484L93 508C110 509 121 511 135 517 154 525 159 549 151 607 155 622 166 633 178 633 208 633 224 616 224 592 226 557 206 539 206 516 206 501 215 483 226 465 238 443 309 338 335 295L319 287C184 451 184 451 166 471 155 484 152 484 141 484ZM144 231L134 241C167 257 203 291 212 323 269 354 301 242 144 231ZM79 323L69 333C101 349 136 383 147 412 201 443 234 335 79 323ZM359 273L368 301 554 301C549 330 541 357 530 382 486 369 430 359 363 354L357 370C402 383 456 403 508 427 463 502 391 557 279 602L285 616C413 581 502 530 559 453 597 474 630 496 652 518L647 518 646 534C673 538 698 545 709 555 720 565 723 582 723 600 757 600 788 591 811 573 849 543 875 461 885 308 904 306 916 301 923 294L851 235 815 273ZM672 520C710 513 697 450 590 403 606 373 618 339 627 301L822 301C813 427 793 498 772 515 764 522 757 524 741 524ZM467 568L467 657 50 657 59 686 387 686C305 771 181 845 43 894L52 911C221 869 369 799 467 700L467 928 479 928C503 928 532 914 532 906L532 686 536 686C622 788 767 865 911 905 918 874 941 854 967 849L968 838C831 815 667 759 569 686L926 686C940 686 951 681 953 671 919 640 866 600 866 600L819 657 532 657 532 604C555 601 563 591 565 578ZM200 11C159 112 95 205 35 259L47 272C101 240 155 193 201 135L246 135C269 162 293 201 299 232 349 269 396 187 295 135L495 135C507 135 516 130 519 119 491 91 445 55 445 55L406 106 223 106 249 66C271 69 283 61 288 51ZM573 11C542 99 494 183 449 235L463 246C503 219 543 180 579 135L641 135C667 163 692 202 699 234 752 270 798 186 696 135L930 135C943 135 953 130 956 119 924 89 874 49 874 49L828 106 601 106 627 66C647 69 660 61 664 49Z"/>
</svg>