<svg xmlns="http://www.w3.org/2000/svg" name="gid15964" data-unicode="𥹖"
    viewBox="0 0 1000 1000">
  <!--
© 2017-2024 Adobe (http://www.adobe.com/).
Noto is a trademark of Google Inc.
This Font Software is licensed under the SIL Open Font License, Version 1.1. This Font Software is distributed on an "AS IS" BASIS, WITHOUT WARRANTIES OR CONDITIONS OF ANY KIND, either express or implied. See the SIL Open Font License for the specific language, permissions and limitations governing your use of this Font Software.
http://scripts.sil.org/OFL
  -->
<path d="M65 121L51 125C70 180 91 264 90 326 140 383 202 261 65 121ZM334 108C317 185 296 278 279 336L296 344C329 293 366 219 396 158 416 158 427 148 431 137ZM650 232L650 428 507 428 507 232ZM445 202L445 431C445 609 429 794 312 945L326 956C483 816 505 618 507 457L558 457C581 570 619 665 671 744 605 824 520 892 412 942L422 957C539 915 631 856 702 786 758 855 827 911 910 953 922 922 945 903 974 901L977 892C886 858 807 808 742 743 811 661 858 568 890 467 912 464 923 462 930 453L858 386 815 428 713 428 713 232 850 232C836 273 817 329 805 360L819 366C849 335 900 276 928 244 948 243 959 241 966 234L891 161 849 202 713 202 713 86C735 82 744 74 746 60L650 50 650 202 519 202 445 170ZM817 457C793 545 756 627 704 701 648 633 606 552 579 457ZM41 395L49 424 169 424C140 557 92 696 23 800L38 814C101 744 153 662 192 571L192 960 205 960C229 960 255 945 255 936L255 502C287 545 322 606 331 653 392 704 448 573 255 480L255 424 396 424C410 424 419 419 422 408 392 379 343 340 343 340L300 395 255 395 255 79C277 76 284 66 286 53L192 43 192 395Z"/>
</svg>