<svg xmlns="http://www.w3.org/2000/svg"
    viewBox="0 0 1000 1000">
  <!--
© 2017-2024 Adobe (http://www.adobe.com/).
Noto is a trademark of Google Inc.
This Font Software is licensed under the SIL Open Font License, Version 1.1. This Font Software is distributed on an "AS IS" BASIS, WITHOUT WARRANTIES OR CONDITIONS OF ANY KIND, either express or implied. See the SIL Open Font License for the specific language, permissions and limitations governing your use of this Font Software.
http://scripts.sil.org/OFL
  -->
<path d="M754 59L744 68C783 98 827 152 838 197 902 241 949 109 754 59ZM419 414C397 495 350 616 294 698L305 710C378 640 438 537 472 466L472 823C472 838 468 843 451 843 433 843 351 837 351 837L351 852C388 858 410 866 422 876 433 885 438 903 440 922 524 913 534 881 534 830L534 122C554 119 570 110 577 102L494 39 462 81 303 81 304 84 246 40 215 81 53 81 62 110 225 110 225 190 166 162C146 232 99 336 47 405L60 417C128 360 186 276 219 216L225 217 225 438 163 414C144 503 97 632 36 719L48 730C127 655 186 544 219 464L225 465 225 826C225 842 220 847 204 847 185 847 99 841 99 841L99 856C138 862 160 869 172 879 184 889 190 906 192 924 275 916 285 884 285 834L285 122C298 120 310 115 318 110L472 110 472 187 420 162C401 230 358 334 310 402L323 414C385 356 440 274 470 216L472 216 472 437ZM850 368C832 443 803 523 764 601 741 520 727 428 720 330L937 296C950 294 960 287 960 276 926 253 869 221 869 221L833 283 718 301C713 221 712 138 713 56 739 52 748 41 750 28L647 16C647 119 649 218 656 311L546 328 559 355 658 340C669 465 688 579 723 675 671 761 605 839 526 900L538 912C620 861 688 796 743 725 768 783 801 833 841 875 876 913 932 946 959 919 968 908 965 891 939 851L957 697 944 695C932 735 916 783 904 806 896 827 891 827 878 811 839 773 809 723 786 664 840 581 879 493 905 413 931 414 940 409 945 396Z"/>
</svg>