<svg xmlns="http://www.w3.org/2000/svg"
    viewBox="0 0 1000 1000">
  <!--
© 2017-2024 Adobe (http://www.adobe.com/).
Noto is a trademark of Google Inc.
This Font Software is licensed under the SIL Open Font License, Version 1.1. This Font Software is distributed on an "AS IS" BASIS, WITHOUT WARRANTIES OR CONDITIONS OF ANY KIND, either express or implied. See the SIL Open Font License for the specific language, permissions and limitations governing your use of this Font Software.
http://scripts.sil.org/OFL
  -->
<path d="M223 514L223 771 233 771C251 771 274 759 274 752L274 545C292 542 299 535 301 523ZM216 225L203 233C231 277 240 343 242 379 282 432 361 320 216 225ZM511 104L519 134 893 134C906 134 917 129 919 118 888 87 834 45 834 45L789 104ZM167 177L345 177 345 424 167 445ZM227 12C221 52 211 109 203 148L179 148 107 116 107 451 36 458 69 535C79 533 87 526 92 513L107 510C107 655 101 803 41 918L57 928C158 811 166 642 167 496 235 480 294 466 345 452L345 832C345 846 340 851 325 851 308 851 233 845 233 845L233 861C268 866 287 873 299 883 310 893 314 910 316 929 395 920 405 889 405 839L405 437 441 427 438 412 405 416 405 188C425 185 441 177 447 168L366 108 335 148 237 148C256 118 280 81 295 53 316 52 328 44 331 29ZM465 378L473 408 574 408C566 639 546 821 422 915L436 930C599 832 630 668 642 408L746 408 746 845C746 888 756 905 811 905L859 905C948 905 972 893 972 867 972 854 967 846 948 839L945 737 933 737C925 777 914 826 909 837 906 843 902 844 896 845 890 845 877 845 862 845L828 845C810 845 808 841 808 827L808 408 947 408C961 408 970 403 973 392 941 361 889 319 889 319L843 378Z"/>
</svg>