<svg xmlns="http://www.w3.org/2000/svg"
    viewBox="0 0 1000 1000">
  <!--
© 2017-2023 Adobe (http://www.adobe.com/).
Noto is a trademark of Google Inc.
This Font Software is licensed under the SIL Open Font License, Version 1.1. This Font Software is distributed on an "AS IS" BASIS, WITHOUT WARRANTIES OR CONDITIONS OF ANY KIND, either express or implied. See the SIL Open Font License for the specific language, permissions and limitations governing your use of this Font Software.
http://scripts.sil.org/OFL
  -->
<path d="M254 17L243 24C285 66 331 136 339 193 409 246 467 92 254 17ZM671 12C647 70 607 147 571 204L41 204 49 232 931 232C945 232 955 227 958 217 924 185 870 142 870 142L821 204 601 204C651 160 703 107 735 65 756 67 769 59 773 48ZM833 268L833 822 164 822 164 305C188 302 196 292 199 279L100 268 100 928 112 928C136 928 164 913 164 904L164 851 833 851 833 928 846 928C870 928 898 913 898 904L898 306C923 303 931 293 934 280ZM196 384L184 392C221 429 266 494 277 543 324 579 366 507 282 435 314 396 347 344 373 296 393 297 404 288 408 277L315 247C301 306 281 371 262 419 244 407 222 395 196 384ZM407 587L393 592C405 620 418 657 426 695L285 707C345 634 408 537 456 444 478 447 490 438 495 428L408 393C366 505 306 625 254 709L180 713 220 792C229 790 238 784 243 770 324 748 386 730 430 716 433 737 435 757 434 775 484 830 547 711 407 587ZM493 378L481 385C517 425 561 491 570 543 616 579 660 507 580 433 615 397 651 346 681 297 702 298 713 290 718 280L626 247C608 308 584 372 562 418 544 404 521 391 493 378ZM700 579L687 585C702 613 719 651 732 689L578 704C642 631 708 533 761 437 782 440 795 431 799 422L713 385C666 500 601 624 546 707L497 710 538 787C547 785 556 779 561 766 637 743 696 724 738 709 746 734 751 760 752 782 806 835 865 709 700 579Z"/>
</svg>