<svg xmlns="http://www.w3.org/2000/svg"
    viewBox="0 0 1000 1000">
  <!--
© 2017-2024 Adobe (http://www.adobe.com/).
Noto is a trademark of Google Inc.
This Font Software is licensed under the SIL Open Font License, Version 1.1. This Font Software is distributed on an "AS IS" BASIS, WITHOUT WARRANTIES OR CONDITIONS OF ANY KIND, either express or implied. See the SIL Open Font License for the specific language, permissions and limitations governing your use of this Font Software.
http://scripts.sil.org/OFL
  -->
<path d="M42 109L48 139 318 139 318 217 328 217C355 217 381 209 381 202L381 139 611 139 611 215 622 215C654 215 676 203 676 198L676 139 929 139C943 139 953 134 955 123 924 92 871 52 871 52L824 109 676 109 676 45C701 42 710 32 711 19L611 9 611 109 381 109 381 45C406 42 415 32 417 19L318 9 318 109ZM45 540L54 568 292 568C232 648 144 725 45 780L56 797C139 763 216 719 281 666L404 666C333 755 223 832 96 884L104 901C265 851 400 774 486 666L605 666C541 777 433 859 284 914L291 931C478 881 612 797 688 666L798 666C785 760 763 827 740 844 730 851 721 853 703 853 682 853 608 847 567 844L566 860C604 866 643 873 657 884 672 894 675 909 675 927 716 927 753 919 778 901 820 872 850 789 864 674 884 671 896 667 902 660L828 599 791 636 315 636C338 615 358 592 376 568L931 568C945 568 955 563 958 552 924 522 872 480 872 480L825 540ZM715 365L715 444 292 444 292 365ZM715 336L292 336 292 261 715 261ZM227 232L227 515 236 515C264 515 292 501 292 494L292 474 715 474 715 507 725 507C746 507 779 492 780 486L780 274C799 270 816 262 823 254L742 192 705 232 298 232 227 201Z"/>
</svg>