<svg xmlns="http://www.w3.org/2000/svg" name="gid16005" data-unicode="𦾔"
    viewBox="0 0 1000 1000">
  <!--
© 2017-2024 Adobe (http://www.adobe.com/).
Noto is a trademark of Google Inc.
This Font Software is licensed under the SIL Open Font License, Version 1.1. This Font Software is distributed on an "AS IS" BASIS, WITHOUT WARRANTIES OR CONDITIONS OF ANY KIND, either express or implied. See the SIL Open Font License for the specific language, permissions and limitations governing your use of this Font Software.
http://scripts.sil.org/OFL
  -->
<path d="M176 642L176 961 188 961C213 961 241 948 241 940L241 680C266 676 275 667 277 652ZM480 312L480 379 274 379 274 312ZM494 185L465 282 287 282 279 279C292 261 304 244 314 227 333 229 342 227 345 220 366 218 384 212 384 206L384 161 605 161 605 219 616 219C648 219 669 208 669 202L669 161 921 161C935 161 945 156 947 145 915 115 864 75 864 75L818 131 669 131 669 80C694 76 703 67 705 53L605 43 605 131 384 131 384 80C409 76 418 66 419 53L320 43 320 131 48 131 54 161 320 161 320 206 258 187C223 273 153 380 84 441L96 451C135 427 175 394 210 358L210 640 221 640C253 640 274 625 274 620L274 604 880 604C894 604 903 599 905 588 874 562 825 526 825 526L783 576 543 576 543 506 806 506C820 506 829 501 831 490 802 464 758 432 758 432L718 477 543 477 543 408 799 408C812 408 822 403 825 392 795 367 751 334 751 334L710 379 543 379 543 312 850 312C863 312 873 307 875 296 843 268 794 234 794 234L751 282 507 282 556 228C576 228 589 221 593 207ZM480 576L274 576 274 506 480 506ZM480 408L480 477 274 477 274 408ZM762 699L762 772 424 772 424 699ZM359 669L359 959 369 959C396 959 424 945 424 938L424 910 762 910 762 956 772 956C794 956 827 941 829 935L829 714C851 710 870 702 877 693L789 627 750 669 430 669 359 637ZM424 800L762 800 762 881 424 881Z"/>
</svg>