<svg xmlns="http://www.w3.org/2000/svg" name="gid16008" data-unicode="𦿸"
    viewBox="0 0 1000 1000">
  <!--
© 2017-2024 Adobe (http://www.adobe.com/).
Noto is a trademark of Google Inc.
This Font Software is licensed under the SIL Open Font License, Version 1.1. This Font Software is distributed on an "AS IS" BASIS, WITHOUT WARRANTIES OR CONDITIONS OF ANY KIND, either express or implied. See the SIL Open Font License for the specific language, permissions and limitations governing your use of this Font Software.
http://scripts.sil.org/OFL
  -->
<path d="M42 128L48 158 333 158 333 215 343 215C370 215 397 206 397 199L397 158 596 158 596 213 607 213C639 212 660 202 660 196L660 158 929 158C943 158 953 153 955 142 923 112 872 72 872 72L825 128 660 128 660 78C685 75 694 65 696 51L596 42 596 128 397 128 397 78C422 75 430 65 432 51L333 42 333 128ZM802 184C710 213 523 248 374 266L376 281C449 281 527 276 599 269L599 451 504 451 504 344C523 341 531 333 533 321L446 312 446 451 348 451 356 481 893 481C906 481 916 476 918 465 887 436 836 399 836 399L791 451 659 451 659 366 849 366C863 366 872 361 875 350 844 323 797 288 797 288L757 336 659 336 659 264C724 257 782 249 825 242 841 251 855 251 863 245ZM198 652L198 827 208 827C234 827 262 813 262 806L262 783 465 783 465 873C301 878 164 882 87 881L122 958C131 956 142 949 148 937 425 917 626 900 775 884 811 904 838 925 858 946 923 998 1017 852 642 809L637 826C675 837 708 850 737 864L529 871 529 783 750 783 750 808 759 808C780 808 813 794 814 787L814 687C828 684 839 678 843 671L774 620 742 652 529 652 529 618C549 615 557 607 559 595L465 585 465 652 268 652 198 622ZM750 754L529 754 529 682 750 682ZM465 754L262 754 262 682 465 682ZM186 439L211 415 182 399 171 430C148 445 106 470 84 482L118 536C124 533 128 526 124 518 138 503 160 474 176 453 190 473 205 491 221 505 175 558 115 604 42 637L51 652C136 624 205 583 258 533 317 570 391 580 498 580 598 580 832 580 924 580 926 559 938 544 960 541L960 526C856 530 601 530 498 530 407 530 338 527 283 508 318 470 346 428 367 382 388 381 398 378 406 371L340 314 300 348 220 348C245 322 269 296 286 277 309 277 329 272 337 266L273 200 234 236 84 236 93 265 220 265C188 300 146 345 110 379 129 395 146 401 165 403L191 377 300 377C284 416 263 452 237 486 218 474 201 459 186 439Z"/>
</svg>