<svg xmlns="http://www.w3.org/2000/svg" name="gid16009" data-unicode="𧃴"
    viewBox="0 0 1000 1000">
  <!--
© 2017-2024 Adobe (http://www.adobe.com/).
Noto is a trademark of Google Inc.
This Font Software is licensed under the SIL Open Font License, Version 1.1. This Font Software is distributed on an "AS IS" BASIS, WITHOUT WARRANTIES OR CONDITIONS OF ANY KIND, either express or implied. See the SIL Open Font License for the specific language, permissions and limitations governing your use of this Font Software.
http://scripts.sil.org/OFL
  -->
<path d="M300 669L287 675C309 715 335 780 337 831 389 881 452 768 300 669ZM102 667C91 748 67 833 40 891L56 899C98 852 133 782 157 711 179 710 188 701 192 689ZM41 563L69 639C80 637 89 632 95 619L196 602 196 957 206 957C237 957 256 944 256 940L256 591 326 579C331 595 335 611 335 626 388 672 448 556 286 481L274 488C290 506 306 531 317 557L165 562C224 509 289 438 341 366 362 371 375 363 380 354L296 309C247 400 184 497 133 563ZM214 206C192 261 165 318 142 360 121 347 94 336 57 328L47 337C84 363 125 411 137 450 181 478 215 423 162 375 196 344 234 301 265 261 286 263 298 255 303 246ZM598 540L598 959 608 959C634 959 658 945 658 938L658 900 843 900 843 955 852 955C872 955 902 940 903 934L903 578C921 575 936 568 942 560L867 504 834 540 737 540C753 510 770 471 783 438L924 438C938 438 947 433 950 422 923 396 882 364 879 361 897 349 915 336 927 324 946 323 958 322 964 315L897 249 860 287 704 287 704 238C727 234 736 225 737 212L683 206C687 204 689 202 689 200L689 157 929 157C943 157 953 152 955 141 923 112 871 71 871 71L824 128 689 128 689 75C713 72 722 62 724 49L624 39 624 128 368 128 368 75C392 72 401 61 403 49L303 39 303 128 42 128 49 157 303 157 303 220 314 220C341 220 368 212 368 205L368 157 624 157 624 217 635 217 640 217 640 287 482 287C480 275 478 262 475 249L458 248C457 284 432 328 411 345 391 359 379 380 390 400 403 422 437 418 453 402 470 386 482 356 483 316L858 316C848 338 835 362 826 377L841 383C851 378 862 372 873 365L838 408 589 408C594 406 597 401 598 397L508 368C478 479 427 590 376 660L391 671C413 651 434 628 454 602L454 960 465 960C488 960 513 947 514 943L514 561C531 558 542 552 545 543L505 528C526 492 546 455 562 416 572 417 580 415 586 412L593 438 717 438C713 470 708 509 703 540L663 540 598 510ZM658 723L843 723 843 871 658 871ZM658 694L658 569 843 569 843 694Z"/>
</svg>