<svg xmlns="http://www.w3.org/2000/svg" name="gid16011" data-unicode="𧄹"
    viewBox="0 0 1000 1000">
  <!--
© 2017-2024 Adobe (http://www.adobe.com/).
Noto is a trademark of Google Inc.
This Font Software is licensed under the SIL Open Font License, Version 1.1. This Font Software is distributed on an "AS IS" BASIS, WITHOUT WARRANTIES OR CONDITIONS OF ANY KIND, either express or implied. See the SIL Open Font License for the specific language, permissions and limitations governing your use of this Font Software.
http://scripts.sil.org/OFL
  -->
<path d="M43 128L50 158 304 158 304 218 314 218C342 218 369 210 369 203L369 158 625 158 625 216 636 216C669 215 690 205 690 199L690 158 930 158C944 158 954 153 956 142 924 112 872 72 872 72L825 128 690 128 690 76C714 73 723 63 725 50L625 40 625 128 369 128 369 76C393 73 402 63 404 50L304 40 304 128ZM417 346L403 351C416 383 429 434 428 473 474 521 539 431 417 346ZM816 243L805 249C834 287 872 349 879 395 938 445 997 323 816 243ZM77 267L85 296 311 296C325 296 334 291 337 280 307 251 260 214 260 214L220 267ZM73 587L81 617 309 617C322 617 332 612 335 601 307 575 263 539 263 539L226 587ZM43 367L51 395 343 395C357 395 366 390 369 380 339 351 292 313 292 313L249 367ZM578 342C572 386 561 446 548 490L333 490 341 519 718 519C727 602 741 678 763 745 715 825 649 896 565 946L573 960C660 922 730 865 784 801 803 843 826 881 855 914 885 950 935 978 958 953 967 942 964 928 942 892L956 756 943 754C933 789 920 830 910 852 902 870 898 871 888 855 862 826 841 789 825 748 859 698 885 645 903 595 928 595 936 590 941 578L845 549C835 591 820 633 801 674 789 626 781 574 776 519L939 519C953 519 962 514 964 503 933 473 882 433 882 433L837 490 774 490C768 413 767 332 768 253 791 249 799 239 801 227L705 216C706 313 708 405 716 490L571 490C598 456 623 417 637 385 658 385 670 377 673 364ZM73 475L81 504 309 504C321 504 330 500 333 490L335 488C307 462 263 427 263 427L226 475ZM482 215L482 308 350 308 358 337 678 337C692 337 701 332 703 321 677 294 634 259 634 259L596 308 543 308 543 250C565 246 574 237 575 224ZM578 614L578 698 449 698 449 614ZM390 584L390 908 399 908C424 908 449 894 449 888L449 850 578 850 578 885 587 885C607 885 636 870 637 864L637 624C655 620 671 613 677 605L602 548 569 584 454 584 390 555ZM449 727L578 727 578 821 449 821ZM249 735L249 859 135 859 135 735ZM77 706L77 956 86 956C110 956 135 942 135 937L135 888 249 888 249 943 258 943C278 943 307 928 308 922L308 745C326 741 343 734 349 726L274 669 239 706 140 706 77 677Z"/>
</svg>