<svg xmlns="http://www.w3.org/2000/svg" name="gid16016" data-unicode="𧑉"
    viewBox="0 0 1000 1000">
  <!--
© 2017-2024 Adobe (http://www.adobe.com/).
Noto is a trademark of Google Inc.
This Font Software is licensed under the SIL Open Font License, Version 1.1. This Font Software is distributed on an "AS IS" BASIS, WITHOUT WARRANTIES OR CONDITIONS OF ANY KIND, either express or implied. See the SIL Open Font License for the specific language, permissions and limitations governing your use of this Font Software.
http://scripts.sil.org/OFL
  -->
<path d="M374 795L363 803C377 818 392 838 405 859L305 866 305 754 398 754 398 781 407 781C426 781 455 768 456 762L456 620C471 617 485 610 489 604L422 553 390 584 305 584 305 533C325 530 332 522 334 510L247 501 247 584 162 584 100 557 100 800 108 800C131 800 157 787 157 782L157 754 247 754 247 869C158 874 83 877 41 878L75 956C85 954 94 948 100 936 237 912 340 893 415 878 426 900 434 923 436 944 492 990 547 869 374 795ZM398 724L305 724 305 614 398 614ZM157 724L157 614 247 614 247 724ZM823 789L812 797C830 814 849 837 865 861L742 868 742 754 842 754 842 785 851 785C870 785 900 772 901 766L901 619C916 617 930 610 934 603L866 551 834 584 742 584 742 532C762 529 769 521 771 510L684 500 684 584 592 584 529 556 529 796 538 796C562 796 587 783 587 777L587 754 684 754 684 871C607 875 543 877 504 878L543 957C553 954 561 949 567 936 702 914 803 896 877 881 890 903 899 926 903 946 962 991 1013 862 823 789ZM842 724L742 724 742 613 842 613ZM587 724L587 613 684 613 684 724ZM746 168L746 237 253 237 253 168ZM458 34C450 64 435 107 425 138L258 138 187 106 187 513 198 513C225 513 253 499 253 492L253 474 746 474 746 506 756 506C778 506 811 490 812 483L812 180C832 176 848 168 854 160L773 98 737 138 472 138C493 120 517 98 533 81 553 82 568 75 572 61ZM253 266L746 266 746 340 253 340ZM253 369L746 369 746 444 253 444Z"/>
</svg>