<svg xmlns="http://www.w3.org/2000/svg" name="gid16021" data-unicode="𧚓"
    viewBox="0 0 1000 1000">
  <!--
© 2017-2024 Adobe (http://www.adobe.com/).
Noto is a trademark of Google Inc.
This Font Software is licensed under the SIL Open Font License, Version 1.1. This Font Software is distributed on an "AS IS" BASIS, WITHOUT WARRANTIES OR CONDITIONS OF ANY KIND, either express or implied. See the SIL Open Font License for the specific language, permissions and limitations governing your use of this Font Software.
http://scripts.sil.org/OFL
  -->
<path d="M358 387C336 424 313 461 294 488 281 482 266 476 250 471 299 407 338 339 366 274 388 273 399 271 407 262L338 200 296 239 245 239 245 78C270 75 280 65 282 51L183 41 183 239 42 239 51 268 296 268C244 405 139 560 21 659L34 673C89 637 139 595 183 549L183 957 193 957C223 957 244 941 244 935L244 491C286 529 332 583 346 625 401 661 439 570 315 500 337 481 363 457 384 436 403 441 416 434 422 425ZM375 470L424 550C433 547 441 540 444 527 559 487 641 455 696 431L693 416 503 450 503 301 667 301C698 399 756 479 862 525 902 543 946 553 961 525 967 512 963 501 942 482L950 381 936 379C928 409 916 441 908 457 902 469 895 471 881 465 808 436 760 375 732 301L930 301C944 301 954 296 956 285 924 255 873 215 873 215L828 271 722 271C709 228 702 182 700 137 751 129 798 120 836 112 859 121 877 122 886 113L814 44C752 72 642 106 537 129L440 106 440 461ZM503 271L503 159C549 156 595 151 640 145 644 189 649 231 659 271ZM638 493L638 599 513 599 437 568 437 901 447 901C480 901 501 885 501 880L501 629 638 629 638 958 652 958C674 958 703 946 703 939L703 629 842 629 842 805C842 818 838 823 823 823 808 823 742 818 742 818L742 833C773 837 791 845 802 855 812 866 816 884 817 903 897 894 905 864 905 814L905 642C924 638 941 629 948 621L864 560 832 599 703 599 703 523C718 520 725 513 727 503Z"/>
</svg>