<svg xmlns="http://www.w3.org/2000/svg" name="gid16026" data-unicode="𧦅"
    viewBox="0 0 1000 1000">
  <!--
© 2017-2024 Adobe (http://www.adobe.com/).
Noto is a trademark of Google Inc.
This Font Software is licensed under the SIL Open Font License, Version 1.1. This Font Software is distributed on an "AS IS" BASIS, WITHOUT WARRANTIES OR CONDITIONS OF ANY KIND, either express or implied. See the SIL Open Font License for the specific language, permissions and limitations governing your use of this Font Software.
http://scripts.sil.org/OFL
  -->
<path d="M80 111L88 139 353 139C367 139 375 134 378 123 349 95 301 57 301 57L258 111ZM83 363L91 392 360 392C373 392 382 387 385 377 358 350 313 314 313 314L274 363ZM83 491L91 520 360 520C373 520 382 515 385 505 358 477 313 441 313 441L274 491ZM36 236L44 265 409 265C422 265 432 260 434 249 404 221 355 182 355 182L312 236ZM298 649L298 838 146 838 146 649ZM85 620L85 958 94 958C120 958 146 943 146 937L146 867 298 867 298 920 308 920C329 920 360 905 360 899L360 660C379 656 395 648 402 641L324 581 289 620 151 620 85 589ZM772 218C761 283 744 356 720 428 676 393 622 356 555 318L543 327C591 370 648 426 699 486 659 592 603 695 532 774L544 785C627 716 690 626 738 533 778 584 811 635 827 679 891 722 922 618 768 471 800 400 823 328 840 264 866 264 875 258 879 246ZM446 129L446 954 457 954C490 954 511 936 511 931L511 873 941 873C955 873 963 868 966 857 934 827 883 785 883 785L837 844 511 844 511 159 926 159C940 159 950 154 952 143 920 113 868 71 868 71L822 129 523 129 446 97Z"/>
</svg>