<svg xmlns="http://www.w3.org/2000/svg" name="gid16036" data-unicode="𧸐"
    viewBox="0 0 1000 1000">
  <!--
© 2017-2024 Adobe (http://www.adobe.com/).
Noto is a trademark of Google Inc.
This Font Software is licensed under the SIL Open Font License, Version 1.1. This Font Software is distributed on an "AS IS" BASIS, WITHOUT WARRANTIES OR CONDITIONS OF ANY KIND, either express or implied. See the SIL Open Font License for the specific language, permissions and limitations governing your use of this Font Software.
http://scripts.sil.org/OFL
  -->
<path d="M147 721C129 789 88 886 35 945L46 959C114 909 169 832 198 771 222 774 230 770 235 759ZM244 721L231 727C261 770 295 838 299 891 358 941 417 815 244 721ZM411 280L419 310 678 310C692 310 700 305 703 294 680 270 642 241 642 241L611 280ZM394 375L402 404 702 404C715 404 724 399 726 388 703 364 667 335 667 335L635 375ZM593 800L582 809C621 839 665 892 677 935 738 974 781 848 593 800ZM487 791C463 837 411 901 360 938L371 953C434 924 496 879 529 841 551 845 559 841 565 831ZM147 310L284 310 284 461 147 461ZM147 280L147 131 284 131 284 280ZM147 491L284 491 284 648 147 648ZM89 102L89 735 98 735C127 735 147 721 147 716L147 677 284 677 284 720 292 720C320 720 343 706 343 701L343 137C365 134 376 128 383 119L311 63 279 102 159 102 89 72ZM475 583L638 583 638 645 475 645ZM475 554L475 492 638 492 638 554ZM475 675L638 675 638 738 475 738ZM417 463L417 809 426 809C450 809 475 795 475 789L475 767 638 767 638 804 647 804C666 804 696 790 696 783L696 496C709 493 721 487 726 481L661 431 630 463 480 463 417 434ZM738 44L739 194 368 194 376 223 739 223C744 485 765 716 854 886 878 933 930 975 960 952 971 943 968 924 947 878L965 718 952 716C942 755 927 801 917 824 908 845 905 846 895 825 815 679 800 449 800 223L947 223C961 223 970 218 973 207 956 191 932 171 914 158 965 185 1005 91 852 57L842 66C868 87 899 124 909 153L891 139 847 194 801 194 802 84C828 80 836 69 838 56Z"/>
</svg>