<svg xmlns="http://www.w3.org/2000/svg"
    viewBox="0 0 1000 1000">
  <!--
© 2017-2023 Adobe (http://www.adobe.com/).
Noto is a trademark of Google Inc.
This Font Software is licensed under the SIL Open Font License, Version 1.1. This Font Software is distributed on an "AS IS" BASIS, WITHOUT WARRANTIES OR CONDITIONS OF ANY KIND, either express or implied. See the SIL Open Font License for the specific language, permissions and limitations governing your use of this Font Software.
http://scripts.sil.org/OFL
  -->
<path d="M144 110L300 110 300 324 144 324ZM28 822L61 905C71 901 79 892 83 880 211 821 308 769 378 735L373 720 258 756 258 559 372 559C384 559 394 554 396 544 370 514 324 473 324 473L285 530 258 530 258 353 300 353 300 395 309 395C328 395 359 382 360 375L360 122C378 118 395 110 401 102L325 44 291 81 157 81 86 50 86 409 95 409C124 409 144 395 144 390L144 353 200 353 200 773 140 791 140 493C160 490 169 482 171 470L84 461 84 807ZM630 126L630 242 517 242 525 272 630 272 630 395 504 395 512 424 814 424C826 424 835 419 838 408 814 382 773 347 773 347L737 395 688 395 688 272 799 272C813 272 822 267 824 256 800 231 760 198 760 198L726 242 688 242 688 160C709 156 717 148 719 136ZM727 535L727 691 596 691 596 535ZM542 506L542 801 551 801C574 801 596 788 596 783L596 721 727 721 727 780 735 780C753 780 780 766 781 759L781 544C799 541 815 534 821 526L750 472 717 506 601 506 542 479ZM428 73L428 400C428 590 414 774 301 916L316 927C474 787 488 579 488 400L488 102 858 102 858 827C858 844 852 850 833 850 814 850 713 842 713 842L713 858C757 864 783 871 797 882 810 891 816 908 818 927 908 918 919 885 919 835L919 113C938 109 955 102 961 93L880 32 848 73 500 73 428 40Z"/>
</svg>