<svg xmlns="http://www.w3.org/2000/svg"
    viewBox="0 0 1000 1000">
  <!--
© 2017-2023 Adobe (http://www.adobe.com/).
Noto is a trademark of Google Inc.
This Font Software is licensed under the SIL Open Font License, Version 1.1. This Font Software is distributed on an "AS IS" BASIS, WITHOUT WARRANTIES OR CONDITIONS OF ANY KIND, either express or implied. See the SIL Open Font License for the specific language, permissions and limitations governing your use of this Font Software.
http://scripts.sil.org/OFL
  -->
<path d="M78 43L67 51C119 96 183 173 200 234 278 286 328 122 78 43ZM256 478C283 474 298 466 305 459L219 387 179 438 40 438 46 468 194 468 194 763C137 794 76 826 36 843L83 927C92 922 97 916 95 903 135 870 200 810 243 765 312 880 393 903 574 903 685 903 820 903 918 903 922 872 939 853 968 848L968 834C848 838 691 838 573 838 401 838 326 826 256 746ZM386 103L386 768 397 768C426 768 451 752 451 744L451 671 824 671 824 751 834 751C857 751 889 735 890 728L890 146C910 142 927 133 933 125L852 61 814 103 456 103 386 70ZM451 642L451 132 824 132 824 642Z"/>
</svg>