<svg xmlns="http://www.w3.org/2000/svg" name="gid16058" data-unicode="𨨞"
    viewBox="0 0 1000 1000">
  <!--
© 2017-2024 Adobe (http://www.adobe.com/).
Noto is a trademark of Google Inc.
This Font Software is licensed under the SIL Open Font License, Version 1.1. This Font Software is distributed on an "AS IS" BASIS, WITHOUT WARRANTIES OR CONDITIONS OF ANY KIND, either express or implied. See the SIL Open Font License for the specific language, permissions and limitations governing your use of this Font Software.
http://scripts.sil.org/OFL
  -->
<path d="M726 55L718 70C806 119 869 186 891 225 961 262 1007 115 726 55ZM575 47C548 107 491 194 430 249L442 261C516 219 585 151 625 99 646 104 654 99 661 89ZM332 565C324 632 310 710 297 762L315 768C342 726 369 664 389 612 409 612 420 603 424 591ZM90 572L76 577C95 631 114 712 109 775 158 831 222 708 90 572ZM605 219L630 189 599 176 588 211C567 231 530 259 508 273L549 322C554 318 557 311 553 304L594 238C611 269 632 297 657 323 596 385 516 438 425 471L432 486C537 461 626 415 696 358 758 408 835 446 919 471 926 443 943 424 968 419L969 408C885 393 800 366 731 328 763 296 790 263 810 229 834 232 841 227 846 216L756 179C739 219 713 259 681 296 650 274 624 248 605 219ZM814 446C759 473 663 506 570 527L498 505 498 615C498 715 484 840 375 943L387 956C516 876 550 762 559 672L702 672 702 956 712 956C745 956 767 943 767 938L767 672 937 672C952 672 962 667 964 656 930 625 876 583 876 583L827 643 560 643 561 616 561 554C661 546 767 529 836 511 858 520 875 519 883 511ZM259 95C282 93 291 87 294 76L198 45C169 148 94 305 18 392L32 402C123 328 202 208 248 111 306 164 349 224 368 268 424 310 497 192 259 95ZM37 872L87 954C96 950 104 942 108 930 253 871 361 822 437 787L433 772 265 817 265 518 413 518C427 518 436 513 438 503 410 473 363 434 363 434L322 489 265 489 265 362 379 362C392 362 401 357 404 346 376 318 330 280 330 280L289 332 111 332 119 362 206 362 206 489 47 489 55 518 206 518 206 832C133 851 73 865 37 872Z"/>
</svg>