<svg xmlns="http://www.w3.org/2000/svg" name="gid16060" data-unicode="𨩃"
    viewBox="0 0 1000 1000">
  <!--
© 2017-2024 Adobe (http://www.adobe.com/).
Noto is a trademark of Google Inc.
This Font Software is licensed under the SIL Open Font License, Version 1.1. This Font Software is distributed on an "AS IS" BASIS, WITHOUT WARRANTIES OR CONDITIONS OF ANY KIND, either express or implied. See the SIL Open Font License for the specific language, permissions and limitations governing your use of this Font Software.
http://scripts.sil.org/OFL
  -->
<path d="M326 559C317 627 303 705 290 758L307 765C335 721 363 659 383 606 403 606 414 597 418 585ZM90 572L76 577C95 631 114 712 109 775 158 831 222 708 90 572ZM620 48C617 88 613 127 607 165L423 165 431 194 602 194C597 225 591 255 583 284L446 284 454 313 575 313C566 346 555 378 543 409L400 409 408 439 531 439C491 529 440 606 379 670L392 682C428 656 460 626 489 592L489 957 499 957C524 957 549 943 549 936L549 892 776 892 776 950 786 950C806 950 837 935 838 928L838 587 843 586C866 610 892 631 919 649 927 621 947 603 971 599L973 589C905 559 841 506 790 439L946 439C960 439 969 434 971 423 940 394 891 355 891 355L847 409 769 409C748 379 731 347 716 313L885 313C899 313 908 308 910 297 880 269 831 232 831 232L789 284 646 284C654 255 661 225 668 194L916 194C930 194 939 189 942 179 910 149 861 109 861 109L816 165 673 165 686 87C708 86 719 75 721 62ZM794 527L769 553 554 553 529 541C550 510 570 476 588 439L742 439C757 471 775 500 794 527ZM776 733L776 863 549 863 549 733ZM776 704L549 704 549 582 776 582ZM728 409L602 409C615 379 626 347 637 313L694 313C704 347 715 379 728 409ZM259 95C282 93 291 87 294 76L198 45C169 148 94 305 18 392L32 402C123 328 202 208 248 111 306 164 349 224 368 268 424 310 497 192 259 95ZM37 872L87 954C96 950 104 942 108 930 253 871 361 822 437 787L433 772 262 818 262 518 411 518C425 518 434 513 436 503 408 473 362 434 362 434L320 489 262 489 262 362 377 362C390 362 400 357 403 346 374 318 328 280 328 280L287 332 111 332 119 362 203 362 203 489 47 489 55 518 203 518 203 833C131 851 72 865 37 872Z"/>
</svg>