<svg xmlns="http://www.w3.org/2000/svg"
    viewBox="0 0 1000 1000">
  <!--
© 2017-2023 Adobe (http://www.adobe.com/).
Noto is a trademark of Google Inc.
This Font Software is licensed under the SIL Open Font License, Version 1.1. This Font Software is distributed on an "AS IS" BASIS, WITHOUT WARRANTIES OR CONDITIONS OF ANY KIND, either express or implied. See the SIL Open Font License for the specific language, permissions and limitations governing your use of this Font Software.
http://scripts.sil.org/OFL
  -->
<path d="M162 366L162 532C162 665 148 805 45 918L57 931C210 820 224 656 224 532L224 395 756 395C757 608 770 821 868 899 899 925 938 939 957 915 965 904 961 887 942 860L953 735 941 733C933 766 923 797 913 824 909 836 905 837 896 830 830 775 817 559 823 405 842 403 855 397 862 390L784 325 747 366 236 366 175 339C189 334 199 327 199 323L199 306 798 306 798 335 807 335C827 335 860 321 861 315L861 202C878 199 893 191 899 184L823 127 789 163 638 163 638 100 913 100C926 100 936 95 939 84 905 54 853 14 853 14L806 71 59 71 68 100 353 100 353 163 206 163 136 132 136 344 146 344 162 342ZM415 100L575 100 575 163 415 163ZM199 277L199 192 353 192 353 277ZM798 277L638 277 638 192 798 192ZM415 277L415 192 575 192 575 277ZM644 407C558 431 400 460 274 472L278 491C338 491 401 488 462 483L462 553 358 553 295 525 295 763 303 763C326 763 353 750 353 745L353 718 463 718 463 836C363 842 279 846 231 847L268 922C277 920 287 914 292 901 452 878 572 859 661 843 680 867 696 892 702 915 765 958 809 826 596 760L585 769C604 783 625 802 644 823L519 832 519 718 634 718 634 749 643 749C662 749 692 736 693 729L693 588C706 586 719 579 724 572L657 522 626 553 520 553 520 478C570 474 617 469 656 463 675 473 693 475 701 466ZM353 688L353 583 464 583 464 688ZM634 688L518 688 518 583 634 583Z"/>
</svg>