<svg xmlns="http://www.w3.org/2000/svg"
    viewBox="0 0 1000 1000">
  <!--
© 2017-2024 Adobe (http://www.adobe.com/).
Noto is a trademark of Google Inc.
This Font Software is licensed under the SIL Open Font License, Version 1.1. This Font Software is distributed on an "AS IS" BASIS, WITHOUT WARRANTIES OR CONDITIONS OF ANY KIND, either express or implied. See the SIL Open Font License for the specific language, permissions and limitations governing your use of this Font Software.
http://scripts.sil.org/OFL
  -->
<path d="M609 676L594 679C605 720 616 783 611 831 650 879 709 787 609 676ZM677 658L664 664C689 695 715 749 716 790 763 831 813 732 677 658ZM743 632L733 641C765 664 804 706 815 741 864 771 896 669 743 632ZM532 681C534 735 508 795 482 818 465 831 456 852 466 868 479 885 511 878 527 859 552 831 571 767 551 682ZM303 18C295 56 280 108 269 146L183 146 167 139C180 114 192 88 202 61 223 62 234 52 238 41L147 13C124 119 82 222 35 290L50 300C72 280 93 256 113 229L113 547 122 547C151 547 171 531 171 526L171 497 500 497C513 497 523 492 526 481 496 454 450 417 450 417L409 468 336 468 336 390 474 390C488 390 498 385 500 374 474 348 433 315 433 315L396 360 336 360 336 282 472 282C486 282 495 277 497 266 471 241 430 208 430 208L394 253 336 253 336 175 487 175C501 175 509 170 511 159 485 133 439 96 439 96L400 146 301 146C322 119 346 86 362 61 383 62 395 54 400 40ZM171 175L277 175 277 253 171 253ZM171 282L277 282 277 360 171 360ZM171 390L277 390 277 468 171 468ZM46 602L54 631 216 631C175 716 112 796 35 857L45 873C134 824 208 760 261 683L261 926 273 926C297 926 324 912 324 905L324 674C368 704 417 751 435 790 501 824 532 696 324 654L324 631 504 631C517 631 526 626 529 615 500 587 450 548 450 548L408 602 324 602 324 540C342 537 349 529 351 518L261 508 261 602ZM599 150L823 150 823 234 599 234ZM663 12C659 43 651 89 645 121L611 121 540 89 540 644 549 644C579 644 599 629 599 625L599 604 883 604C875 746 860 829 839 847 830 855 822 856 807 856 788 856 732 851 698 849L697 867C728 870 759 878 772 887 784 896 787 913 787 929 821 929 853 920 876 901 912 870 932 778 940 611 960 608 971 604 978 597L907 539 874 575 599 575 599 493 941 493C955 493 964 488 967 478 937 449 889 412 889 412L846 464 599 464 599 379 823 379 823 409 831 409C851 409 881 394 882 387L882 161C902 157 917 150 924 142L847 84 814 121 681 121 731 55C752 55 765 47 769 32ZM599 264L823 264 823 350 599 350Z"/>
</svg>