<svg xmlns="http://www.w3.org/2000/svg" name="gid16110" data-unicode="𪗱"
    viewBox="0 0 1000 1000">
  <!--
© 2017-2024 Adobe (http://www.adobe.com/).
Noto is a trademark of Google Inc.
This Font Software is licensed under the SIL Open Font License, Version 1.1. This Font Software is distributed on an "AS IS" BASIS, WITHOUT WARRANTIES OR CONDITIONS OF ANY KIND, either express or implied. See the SIL Open Font License for the specific language, permissions and limitations governing your use of this Font Software.
http://scripts.sil.org/OFL
  -->
<path d="M162 383L148 388C165 421 182 473 179 514 220 555 272 466 162 383ZM619 393L815 393 815 622 619 622ZM619 364L619 142 815 142 815 364ZM619 651L815 651 815 889 619 889ZM557 113L557 889 478 889 486 918 958 918C971 918 979 913 982 903 960 874 918 831 918 831L884 889 880 889 880 153C903 150 918 144 925 135L839 68 805 113 630 113 557 81ZM115 106L115 296 29 296 37 325 75 325 75 958 84 958C112 958 131 940 131 935L131 877 412 877 412 947 421 947C449 947 468 929 468 924L468 325 507 325C520 325 530 320 532 309 502 280 454 242 454 242L411 296 316 296 316 188 464 188C477 188 487 183 490 173 462 145 418 110 418 110L379 159 316 159 316 77C338 73 347 64 349 51L256 42 256 296 172 296 172 139C193 136 203 127 205 115ZM345 381C338 413 320 478 305 518L318 524C346 491 374 452 390 429 399 429 407 428 412 424L412 563C391 540 358 512 358 512L328 550 296 550 296 387C318 383 327 376 329 363L245 353 245 550 137 550 145 580 219 580C201 646 172 713 136 767L150 782C187 745 219 702 245 656L245 823 256 823C274 823 296 810 296 802L296 622C322 658 349 706 355 743 401 781 444 681 296 594L296 580 388 580C401 580 409 576 412 565L412 848 131 848 131 325 412 325 412 408Z"/>
</svg>