<svg xmlns="http://www.w3.org/2000/svg" name="gid16112" data-unicode="𪘚"
    viewBox="0 0 1000 1000">
  <!--
© 2017-2024 Adobe (http://www.adobe.com/).
Noto is a trademark of Google Inc.
This Font Software is licensed under the SIL Open Font License, Version 1.1. This Font Software is distributed on an "AS IS" BASIS, WITHOUT WARRANTIES OR CONDITIONS OF ANY KIND, either express or implied. See the SIL Open Font License for the specific language, permissions and limitations governing your use of this Font Software.
http://scripts.sil.org/OFL
  -->
<path d="M162 400L148 406C167 437 186 487 186 525 222 562 267 481 162 400ZM114 105L114 301 38 301 46 329 76 329 76 955 85 955C113 955 132 941 132 936L132 875 412 875 412 947 420 947C449 947 468 933 469 928L469 329 503 329C517 329 527 324 529 314 498 285 450 247 450 247L408 301 314 301 314 190 467 190C481 190 490 186 493 175 465 147 419 111 419 111L378 162 314 162 314 77C336 73 345 64 347 51L254 42 254 301 171 301 171 139C192 136 201 127 203 115ZM350 392C342 426 322 491 305 532L318 538C346 504 371 463 387 437 399 439 407 436 412 432L412 569C389 548 359 525 359 525L328 560 292 560 292 396C310 393 317 386 319 375L245 366 245 560 140 560 148 589 228 589C207 648 178 706 139 753L153 771C189 738 220 700 245 660L245 829 255 829C272 829 292 817 292 810L292 631C319 660 348 703 357 736 402 771 441 675 292 610L292 589 391 589C402 589 409 586 412 579L412 846 132 846 132 329 412 329 412 419ZM533 264L542 294 621 294C610 358 598 422 588 471L482 471 490 500 946 500C959 500 968 495 970 484 948 455 904 414 904 414L869 471 859 471 859 305C878 301 895 293 901 285L825 227 788 264 687 264 708 132 902 132C914 132 924 127 926 117 897 87 847 49 847 49L804 103 514 103 522 132 647 132 626 264ZM798 471L651 471C660 422 671 358 682 294L798 294ZM553 584L553 954 562 954C588 954 614 940 614 934L614 882 829 882 829 941 838 941C859 941 891 926 892 920L892 626C911 621 928 613 935 605L855 545 819 584 619 584 553 554ZM829 852L614 852 614 613 829 613Z"/>
</svg>