<svg xmlns="http://www.w3.org/2000/svg"
    viewBox="0 0 1000 1000">
  <!--
© 2017-2024 Adobe (http://www.adobe.com/).
Noto is a trademark of Google Inc.
This Font Software is licensed under the SIL Open Font License, Version 1.1. This Font Software is distributed on an "AS IS" BASIS, WITHOUT WARRANTIES OR CONDITIONS OF ANY KIND, either express or implied. See the SIL Open Font License for the specific language, permissions and limitations governing your use of this Font Software.
http://scripts.sil.org/OFL
  -->
<path d="M369 236C323 365 216 510 87 599L95 613C174 575 246 521 305 461 376 503 460 576 489 636 572 677 598 513 319 445 340 423 358 401 375 378L736 378C642 646 427 823 75 910L82 927C494 857 705 671 817 392 842 390 853 388 861 379L784 304 734 349 575 349 575 202 908 202C922 202 932 197 934 186 903 155 852 115 852 115L806 172 575 172 575 56C596 53 605 44 606 31L509 21 509 349 395 349C408 328 420 307 430 287 449 289 461 287 465 276Z"/>
</svg>