<svg xmlns="http://www.w3.org/2000/svg"
    viewBox="0 0 1000 1000">
  <!--
© 2017-2024 Adobe (http://www.adobe.com/).
Noto is a trademark of Google Inc.
This Font Software is licensed under the SIL Open Font License, Version 1.1. This Font Software is distributed on an "AS IS" BASIS, WITHOUT WARRANTIES OR CONDITIONS OF ANY KIND, either express or implied. See the SIL Open Font License for the specific language, permissions and limitations governing your use of this Font Software.
http://scripts.sil.org/OFL
  -->
<path d="M379 179L370 190C429 219 502 278 528 329 605 364 631 208 379 179ZM349 498L340 508C404 542 486 607 514 661 594 697 618 535 349 498ZM737 116C734 224 730 324 725 413L246 413C262 299 275 192 285 116ZM30 413L38 442 177 442C157 579 135 721 113 836 152 844 168 842 183 831L194 768 684 768C676 797 668 818 658 827 644 839 636 843 614 843 589 843 510 834 460 830L458 848C503 855 550 866 567 878 583 889 587 908 587 928 641 928 683 913 715 875 731 856 744 820 755 768L927 768C941 768 951 763 953 752 922 722 871 680 871 680L826 739 760 739C774 665 784 564 791 442L945 442C960 442 969 437 972 426 940 395 886 351 886 351L839 413 793 413C798 327 801 231 804 126 826 123 839 118 847 109L767 40 727 87 303 87 228 54C218 146 201 276 181 413ZM724 442C716 569 705 671 691 739L198 739C213 648 228 543 242 442Z"/>
</svg>