<svg xmlns="http://www.w3.org/2000/svg"
    viewBox="0 0 1000 1000">
  <!--
© 2017-2024 Adobe (http://www.adobe.com/).
Noto is a trademark of Google Inc.
This Font Software is licensed under the SIL Open Font License, Version 1.1. This Font Software is distributed on an "AS IS" BASIS, WITHOUT WARRANTIES OR CONDITIONS OF ANY KIND, either express or implied. See the SIL Open Font License for the specific language, permissions and limitations governing your use of this Font Software.
http://scripts.sil.org/OFL
  -->
<path d="M549 82L460 28C428 76 384 127 332 177 296 124 254 76 202 33L188 43C234 92 272 146 302 204 224 274 133 339 41 386L51 401C149 364 244 311 325 254 346 302 362 352 373 401 294 515 170 630 46 697L54 711C182 663 307 575 390 492 409 641 388 774 344 831 337 843 326 844 307 844 278 844 195 840 143 834L143 852C191 860 233 871 247 880 261 891 271 908 272 929 334 929 373 914 395 886 485 785 503 477 362 226 422 181 472 134 510 90 532 96 542 92 549 82Z"/>
</svg>