<svg xmlns="http://www.w3.org/2000/svg"
    viewBox="0 0 1000 1000">
  <!--
© 2017-2023 Adobe (http://www.adobe.com/).
Noto is a trademark of Google Inc.
This Font Software is licensed under the SIL Open Font License, Version 1.1. This Font Software is distributed on an "AS IS" BASIS, WITHOUT WARRANTIES OR CONDITIONS OF ANY KIND, either express or implied. See the SIL Open Font License for the specific language, permissions and limitations governing your use of this Font Software.
http://scripts.sil.org/OFL
  -->
<path d="M209 446L209 383 810 383 810 452 820 452C841 452 873 437 874 431L874 144C895 139 911 132 918 124L837 62 800 102 216 102 145 70 145 467 156 467C182 467 209 452 209 446ZM593 132L593 354 436 354 436 132ZM655 132L810 132 810 354 655 354ZM374 132L374 354 209 354 209 132Z"/>
</svg>