<svg xmlns="http://www.w3.org/2000/svg"
    viewBox="0 0 1000 1000">
  <!--
© 2017-2023 Adobe (http://www.adobe.com/).
Noto is a trademark of Google Inc.
This Font Software is licensed under the SIL Open Font License, Version 1.1. This Font Software is distributed on an "AS IS" BASIS, WITHOUT WARRANTIES OR CONDITIONS OF ANY KIND, either express or implied. See the SIL Open Font License for the specific language, permissions and limitations governing your use of this Font Software.
http://scripts.sil.org/OFL
  -->
<path d="M99 122L108 151 887 151C901 151 911 146 913 135 880 104 825 63 825 63L777 122 530 122 530 48C553 43 562 34 564 21L464 12 464 122ZM292 151L281 157C308 192 340 249 344 293 405 345 469 220 292 151ZM649 152C632 199 605 262 579 309L55 309 63 339 918 339C932 339 942 334 944 323 909 290 853 247 853 247L804 309 610 309C648 275 687 233 710 201 731 202 744 195 749 184ZM242 593L463 593 463 706 242 706ZM242 563L242 453 463 453 463 563ZM759 593L759 706 529 706 529 593ZM759 563L529 563 529 453 759 453ZM176 424L176 808 187 808C214 808 242 793 242 786L242 735 463 735 463 841C463 898 486 914 581 914L722 914C924 914 960 908 960 877 960 866 953 858 927 851L924 744 912 744C899 794 887 836 879 849 874 857 868 859 853 861 834 863 785 863 726 863L587 863C536 863 529 856 529 835L529 735 759 735 759 785 769 785C792 785 825 770 826 763L826 466C845 462 861 454 868 446L786 384 749 424 248 424 176 392Z"/>
</svg>