<svg xmlns="http://www.w3.org/2000/svg"
    viewBox="0 0 1000 1000">
  <!--
© 2017-2024 Adobe (http://www.adobe.com/).
Noto is a trademark of Google Inc.
This Font Software is licensed under the SIL Open Font License, Version 1.1. This Font Software is distributed on an "AS IS" BASIS, WITHOUT WARRANTIES OR CONDITIONS OF ANY KIND, either express or implied. See the SIL Open Font License for the specific language, permissions and limitations governing your use of this Font Software.
http://scripts.sil.org/OFL
  -->
<path d="M261 202L248 196C278 171 305 144 330 117L565 117C547 144 524 177 503 202ZM249 231L453 231 453 306 249 306ZM453 811L453 827C453 901 466 908 573 908L835 908C945 908 965 899 965 872 965 861 960 857 928 848L926 731 917 731C900 799 887 837 880 846 872 856 859 856 842 856L573 856C519 856 516 856 516 827L516 770 795 770 795 806 805 806C825 806 858 792 858 785L858 556C878 552 894 545 900 537L820 476 785 516 516 516 516 442 744 442 744 469 754 469C774 469 806 453 807 446L807 242C825 238 841 230 847 223L769 163 734 202 533 202C575 178 617 147 647 124 666 123 679 122 686 114L612 46 571 88 355 88 384 51C409 54 417 51 422 41L326 7C269 116 154 239 44 309L54 323C100 302 145 275 187 244L187 482 197 482C229 482 249 465 249 459L249 442 453 442 453 516 203 516 134 483 134 832 144 832C170 832 196 817 196 810L196 770 453 770ZM249 414L249 336 453 336 453 414ZM744 231L744 306 516 306 516 231ZM744 414L516 414 516 336 744 336ZM196 657L453 657 453 741 196 741ZM196 627L196 545 453 545 453 627ZM795 545L795 627 516 627 516 545ZM795 657L795 741 516 741 516 657Z"/>
</svg>