<svg xmlns="http://www.w3.org/2000/svg"
    viewBox="0 0 1000 1000">
  <!--
© 2017-2023 Adobe (http://www.adobe.com/).
Noto is a trademark of Google Inc.
This Font Software is licensed under the SIL Open Font License, Version 1.1. This Font Software is distributed on an "AS IS" BASIS, WITHOUT WARRANTIES OR CONDITIONS OF ANY KIND, either express or implied. See the SIL Open Font License for the specific language, permissions and limitations governing your use of this Font Software.
http://scripts.sil.org/OFL
  -->
<path d="M697 37L596 25 596 803C596 861 616 881 693 881L784 881C927 881 962 869 962 838 962 825 956 816 932 808L929 633 916 633C903 705 890 783 883 801 878 810 873 814 863 815 851 817 824 818 784 818L706 818C668 818 662 808 662 785L662 64C686 60 696 50 697 37ZM387 37L286 27 286 413C286 624 237 798 33 916L44 930C292 821 351 633 352 413L352 65C377 61 385 51 387 37Z"/>
</svg>