<svg xmlns="http://www.w3.org/2000/svg" name="gid3097" data-unicode="⼏"
    viewBox="0 0 1000 1000">
  <!--
© 2017-2024 Adobe (http://www.adobe.com/).
Noto is a trademark of Google Inc.
This Font Software is licensed under the SIL Open Font License, Version 1.1. This Font Software is distributed on an "AS IS" BASIS, WITHOUT WARRANTIES OR CONDITIONS OF ANY KIND, either express or implied. See the SIL Open Font License for the specific language, permissions and limitations governing your use of this Font Software.
http://scripts.sil.org/OFL
  -->
<path d="M250 101L250 416C250 624 218 807 38 948L51 960C288 825 318 614 318 415L318 141 626 141 626 845C626 899 645 919 718 919L800 920C932 920 965 907 965 876 965 862 959 855 936 846L933 695 920 695C910 755 896 825 889 841 884 850 880 852 871 853 860 854 835 855 802 855L732 855C699 855 693 847 693 825L693 154C717 151 730 145 737 138L655 67 616 111 330 111 250 77Z"/>
</svg>