<svg xmlns="http://www.w3.org/2000/svg" name="gid4729" data-unicode="⼨"
    viewBox="0 0 1000 1000">
  <!--
© 2017-2024 Adobe (http://www.adobe.com/).
Noto is a trademark of Google Inc.
This Font Software is licensed under the SIL Open Font License, Version 1.1. This Font Software is distributed on an "AS IS" BASIS, WITHOUT WARRANTIES OR CONDITIONS OF ANY KIND, either express or implied. See the SIL Open Font License for the specific language, permissions and limitations governing your use of this Font Software.
http://scripts.sil.org/OFL
  -->
<path d="M206 404L194 412C256 474 327 576 341 659 423 723 482 531 206 404ZM627 42L627 278 43 278 52 307 627 307 627 851C627 869 620 877 597 877 569 877 425 866 425 866L425 883C485 890 519 898 540 910 558 921 565 938 570 959 681 948 694 911 694 857L694 307 933 307C947 307 957 302 960 291 922 256 862 209 862 209L808 278 694 278 694 80C718 77 728 67 731 53Z"/>
</svg>