<svg xmlns="http://www.w3.org/2000/svg"
    viewBox="0 0 1000 1000">
  <!--
© 2017-2024 Adobe (http://www.adobe.com/).
Noto is a trademark of Google Inc.
This Font Software is licensed under the SIL Open Font License, Version 1.1. This Font Software is distributed on an "AS IS" BASIS, WITHOUT WARRANTIES OR CONDITIONS OF ANY KIND, either express or implied. See the SIL Open Font License for the specific language, permissions and limitations governing your use of this Font Software.
http://scripts.sil.org/OFL
  -->
<path d="M667 276L653 283C748 382 860 541 877 666 966 740 1019 498 667 276ZM251 270C219 400 142 575 35 686L46 698C180 600 272 443 320 324 345 326 354 320 359 308ZM469 25L469 814C469 832 462 839 440 839 413 839 275 828 275 828L275 844C334 852 365 861 385 873 403 885 411 903 414 927 526 915 539 878 539 820L539 64C564 61 573 51 576 37Z"/>
</svg>