<svg xmlns="http://www.w3.org/2000/svg" name="gid15217" data-unicode="⼬"
    viewBox="0 0 1000 1000">
  <!--
© 2017-2024 Adobe (http://www.adobe.com/).
Noto is a trademark of Google Inc.
This Font Software is licensed under the SIL Open Font License, Version 1.1. This Font Software is distributed on an "AS IS" BASIS, WITHOUT WARRANTIES OR CONDITIONS OF ANY KIND, either express or implied. See the SIL Open Font License for the specific language, permissions and limitations governing your use of this Font Software.
http://scripts.sil.org/OFL
  -->
<path d="M462 44L462 592 202 592 202 215C228 212 237 202 239 188L138 178 138 734 151 734C175 734 202 719 202 711L202 622 462 622 462 958 474 958C499 958 527 941 527 931L527 622 785 622 785 715 797 715C823 715 850 702 850 694L850 217C876 214 884 204 887 190L785 179 785 592 527 592 527 83C552 79 560 69 563 55Z"/>
</svg>