<svg xmlns="http://www.w3.org/2000/svg" name="gid4820" data-unicode="⼭"
    viewBox="0 0 1000 1000">
  <!--
© 2017-2024 Adobe (http://www.adobe.com/).
Noto is a trademark of Google Inc.
This Font Software is licensed under the SIL Open Font License, Version 1.1. This Font Software is distributed on an "AS IS" BASIS, WITHOUT WARRANTIES OR CONDITIONS OF ANY KIND, either express or implied. See the SIL Open Font License for the specific language, permissions and limitations governing your use of this Font Software.
http://scripts.sil.org/OFL
  -->
<path d="M814 279L814 804 529 804 529 106C554 102 564 92 566 77L462 66 462 804 182 804 182 321C207 318 216 308 219 294L115 283 115 955 128 955C154 955 182 940 182 931L182 834 814 834 814 939 827 939C853 939 882 923 882 914L882 317C907 314 916 305 918 291Z"/>
</svg>