<svg xmlns="http://www.w3.org/2000/svg"
    viewBox="0 0 1000 1000">
  <!--
© 2017-2024 Adobe (http://www.adobe.com/).
Noto is a trademark of Google Inc.
This Font Software is licensed under the SIL Open Font License, Version 1.1. This Font Software is distributed on an "AS IS" BASIS, WITHOUT WARRANTIES OR CONDITIONS OF ANY KIND, either express or implied. See the SIL Open Font License for the specific language, permissions and limitations governing your use of this Font Software.
http://scripts.sil.org/OFL
  -->
<path d="M165 342C167 476 110 595 51 642 34 660 24 685 39 703 56 724 96 710 124 679 169 632 224 518 182 341ZM327 35L321 50C450 107 539 189 572 243 652 284 695 105 327 35ZM755 330L746 340C854 434 890 582 894 672 966 757 1053 493 755 330ZM310 239L310 815C310 878 336 895 429 895L566 895C762 895 800 884 800 849 800 836 793 827 768 819L766 637 753 637C739 719 725 791 716 811 711 823 706 827 691 829 673 831 628 832 568 832L437 832C384 832 376 823 376 799L376 277C398 273 407 263 409 250Z"/>
</svg>