<svg xmlns="http://www.w3.org/2000/svg" name="gid5801" data-unicode="⼿"
    viewBox="0 0 1000 1000">
  <!--
© 2017-2024 Adobe (http://www.adobe.com/).
Noto is a trademark of Google Inc.
This Font Software is licensed under the SIL Open Font License, Version 1.1. This Font Software is distributed on an "AS IS" BASIS, WITHOUT WARRANTIES OR CONDITIONS OF ANY KIND, either express or implied. See the SIL Open Font License for the specific language, permissions and limitations governing your use of this Font Software.
http://scripts.sil.org/OFL
  -->
<path d="M785 43C633 99 339 157 93 177L97 196C221 194 350 184 470 170L470 355 97 355 105 384 470 384 470 579 31 579 39 609 470 609 470 849C470 868 463 875 440 875 413 875 273 864 273 864L273 879C333 887 365 895 386 907 403 918 412 936 415 957 523 947 538 906 538 853L538 609 943 609C958 609 967 604 970 593 934 560 876 516 876 516L824 579 538 579 538 384 884 384C898 384 908 380 910 369 875 337 819 293 819 293L768 355 538 355 538 162C639 148 733 131 809 114 835 125 854 124 863 116Z"/>
</svg>