<svg xmlns="http://www.w3.org/2000/svg"
    viewBox="0 0 1000 1000">
  <!--
© 2017-2024 Adobe (http://www.adobe.com/).
Noto is a trademark of Google Inc.
This Font Software is licensed under the SIL Open Font License, Version 1.1. This Font Software is distributed on an "AS IS" BASIS, WITHOUT WARRANTIES OR CONDITIONS OF ANY KIND, either express or implied. See the SIL Open Font License for the specific language, permissions and limitations governing your use of this Font Software.
http://scripts.sil.org/OFL
  -->
<path d="M265 99L256 110C323 146 411 215 445 272 530 306 549 138 265 99ZM172 329L164 340C234 374 327 443 363 500 450 533 466 361 172 329ZM602 13L602 579 49 668 61 694 602 607 602 929 615 929C640 929 668 912 668 902L668 597 936 554C949 553 959 545 960 534 919 507 855 471 855 471L811 545 668 568 668 52C694 48 702 37 705 23Z"/>
</svg>