<svg xmlns="http://www.w3.org/2000/svg"
    viewBox="0 0 1000 1000">
  <!--
© 2017-2023 Adobe (http://www.adobe.com/).
Noto is a trademark of Google Inc.
This Font Software is licensed under the SIL Open Font License, Version 1.1. This Font Software is distributed on an "AS IS" BASIS, WITHOUT WARRANTIES OR CONDITIONS OF ANY KIND, either express or implied. See the SIL Open Font License for the specific language, permissions and limitations governing your use of this Font Software.
http://scripts.sil.org/OFL
  -->
<path d="M654 395L607 454 216 454 216 150 785 150 785 788 216 788 216 484 714 484C728 484 737 479 740 468 707 437 654 395 654 395ZM216 882L216 818 785 818 785 903 794 903C818 903 850 887 851 879L851 167C875 163 895 155 903 145L813 74 773 121 223 121 151 86 151 908 163 908C193 908 216 891 216 882Z"/>
</svg>