<svg xmlns="http://www.w3.org/2000/svg" name="gid7394" data-unicode="⽏"
    viewBox="0 0 1000 1000">
  <!--
© 2017-2024 Adobe (http://www.adobe.com/).
Noto is a trademark of Google Inc.
This Font Software is licensed under the SIL Open Font License, Version 1.1. This Font Software is distributed on an "AS IS" BASIS, WITHOUT WARRANTIES OR CONDITIONS OF ANY KIND, either express or implied. See the SIL Open Font License for the specific language, permissions and limitations governing your use of this Font Software.
http://scripts.sil.org/OFL
  -->
<path d="M472 146C468 226 462 327 454 429L250 429C262 320 272 219 278 146ZM33 429L41 458 182 458C166 599 147 747 128 866 167 873 182 870 197 860L208 780 694 780C686 819 678 844 667 855 655 867 648 871 627 871 605 871 534 864 489 859L488 877C529 885 571 895 586 908 600 919 604 937 604 959 653 959 694 943 722 906 738 885 751 843 761 780L916 780C930 780 939 775 942 765 912 735 860 694 860 694L816 752 765 752C775 678 782 579 787 458L944 458C958 458 966 453 969 442 938 412 888 370 888 370L842 429 788 429C791 348 793 257 795 156 818 152 830 147 837 138L759 71 719 117 295 117 220 84C213 172 201 297 186 429ZM535 146L730 146C728 250 725 345 722 429L517 429C524 328 531 226 535 146ZM452 458C444 566 435 672 427 752L212 752C223 661 235 557 246 458ZM515 458L721 458C716 583 709 683 698 752L490 752C498 672 507 566 515 458Z"/>
</svg>