<svg xmlns="http://www.w3.org/2000/svg"
    viewBox="0 0 1000 1000">
  <!--
© 2017-2023 Adobe (http://www.adobe.com/).
Noto is a trademark of Google Inc.
This Font Software is licensed under the SIL Open Font License, Version 1.1. This Font Software is distributed on an "AS IS" BASIS, WITHOUT WARRANTIES OR CONDITIONS OF ANY KIND, either express or implied. See the SIL Open Font License for the specific language, permissions and limitations governing your use of this Font Software.
http://scripts.sil.org/OFL
  -->
<path d="M776 16C662 57 455 108 273 138L184 106 184 822C130 832 85 840 54 844L98 926C108 924 117 915 120 902 320 844 464 797 572 759L569 743 250 809 250 439 546 439C585 637 668 800 821 889 873 921 929 941 949 910 958 897 954 882 926 852L940 710 928 708C916 747 899 791 888 814 880 832 871 833 853 823 724 758 648 609 610 439L921 439C935 439 945 434 948 423 912 391 854 346 854 346L803 411 604 411C586 317 578 218 580 124 661 111 737 97 799 84 824 94 841 94 851 86ZM250 411L250 164C337 158 428 147 515 134 517 230 525 324 540 411Z"/>
</svg>