<svg xmlns="http://www.w3.org/2000/svg"
    viewBox="0 0 1000 1000">
  <!--
© 2017-2024 Adobe (http://www.adobe.com/).
Noto is a trademark of Google Inc.
This Font Software is licensed under the SIL Open Font License, Version 1.1. This Font Software is distributed on an "AS IS" BASIS, WITHOUT WARRANTIES OR CONDITIONS OF ANY KIND, either express or implied. See the SIL Open Font License for the specific language, permissions and limitations governing your use of this Font Software.
http://scripts.sil.org/OFL
  -->
<path d="M839 196C797 263 714 362 639 435 592 350 555 249 532 127L532 52C557 48 565 39 568 25L466 14 466 823C466 840 460 846 440 846 417 846 299 837 299 837L299 853C351 859 378 868 395 879 410 890 417 908 421 930 521 920 532 884 532 829L532 205C598 531 733 704 906 831 917 799 940 778 969 775L972 765C854 699 737 602 650 454 742 396 837 316 893 260 915 266 924 262 931 252ZM49 295L58 325 314 325C275 512 185 702 30 824L41 838C242 718 337 524 384 333 407 332 416 329 424 320L352 254 310 295Z"/>
</svg>