<svg xmlns="http://www.w3.org/2000/svg" name="gid8316" data-unicode="⽙"
    viewBox="0 0 1000 1000">
  <!--
© 2017-2024 Adobe (http://www.adobe.com/).
Noto is a trademark of Google Inc.
This Font Software is licensed under the SIL Open Font License, Version 1.1. This Font Software is distributed on an "AS IS" BASIS, WITHOUT WARRANTIES OR CONDITIONS OF ANY KIND, either express or implied. See the SIL Open Font License for the specific language, permissions and limitations governing your use of this Font Software.
http://scripts.sil.org/OFL
  -->
<path d="M403 539L201 539 210 569 335 569C331 701 317 836 189 944L204 960C368 858 393 715 401 569L637 569 637 959 650 959C675 959 703 941 703 932L703 85C728 82 737 72 740 58L637 46 637 332 383 332 383 104C408 100 418 91 420 76L317 66 317 431 330 431C354 431 383 418 383 410L383 362 637 362 637 539Z"/>
</svg>