<svg xmlns="http://www.w3.org/2000/svg" name="gid8380" data-unicode="⽝"
    viewBox="0 0 1000 1000">
  <!--
© 2017-2024 Adobe (http://www.adobe.com/).
Noto is a trademark of Google Inc.
This Font Software is licensed under the SIL Open Font License, Version 1.1. This Font Software is distributed on an "AS IS" BASIS, WITHOUT WARRANTIES OR CONDITIONS OF ANY KIND, either express or implied. See the SIL Open Font License for the specific language, permissions and limitations governing your use of this Font Software.
http://scripts.sil.org/OFL
  -->
<path d="M604 101L595 110C652 143 723 206 747 260 828 299 860 136 604 101ZM453 45C452 152 450 247 442 334L59 334 68 364 440 364C412 620 327 794 39 939L51 957C392 820 482 635 510 364L511 364C539 574 618 805 896 954 906 916 930 903 965 899L967 887C671 758 567 561 531 364L925 364C939 364 949 359 952 348 915 314 857 269 857 269L805 334 513 334C519 258 521 175 523 85 547 82 558 70 561 55Z"/>
</svg>