<svg xmlns="http://www.w3.org/2000/svg"
    viewBox="0 0 1000 1000">
  <!--
© 2017-2023 Adobe (http://www.adobe.com/).
Noto is a trademark of Google Inc.
This Font Software is licensed under the SIL Open Font License, Version 1.1. This Font Software is distributed on an "AS IS" BASIS, WITHOUT WARRANTIES OR CONDITIONS OF ANY KIND, either express or implied. See the SIL Open Font License for the specific language, permissions and limitations governing your use of this Font Software.
http://scripts.sil.org/OFL
  -->
<path d="M170 103L170 345C170 532 157 742 45 916L60 927C222 757 235 517 235 346L235 151C304 148 376 142 446 134L446 771C353 781 276 789 230 792L276 875C286 873 294 866 300 853 454 820 568 792 655 769 668 806 677 844 680 877 751 943 811 773 596 598L582 604C604 645 629 696 648 749L511 764 511 127C584 118 654 108 716 98 724 402 758 737 893 927 904 888 926 869 959 864L962 854C795 671 750 391 736 95L800 83C826 94 845 95 854 86L777 11C656 51 433 101 244 128Z"/>
</svg>