<svg xmlns="http://www.w3.org/2000/svg" name="gid8758" data-unicode="⽣"
    viewBox="0 0 1000 1000">
  <!--
© 2017-2024 Adobe (http://www.adobe.com/).
Noto is a trademark of Google Inc.
This Font Software is licensed under the SIL Open Font License, Version 1.1. This Font Software is distributed on an "AS IS" BASIS, WITHOUT WARRANTIES OR CONDITIONS OF ANY KIND, either express or implied. See the SIL Open Font License for the specific language, permissions and limitations governing your use of this Font Software.
http://scripts.sil.org/OFL
  -->
<path d="M258 77C210 256 123 428 35 535L49 545C119 486 183 407 238 313L463 313 463 567 155 567 163 596 463 596 463 887 42 887 50 915 935 915C949 915 958 910 961 900 924 867 865 822 865 822L813 887 531 887 531 596 839 596C853 596 863 591 866 580 830 548 772 503 772 503L721 567 531 567 531 313 875 313C889 313 899 309 902 298 865 263 809 222 809 222L757 284 531 284 531 83C556 79 564 69 567 55L463 44 463 284 254 284C281 236 304 184 325 130 347 131 359 122 363 111Z"/>
</svg>