<svg xmlns="http://www.w3.org/2000/svg" name="gid8854" data-unicode="⽧"
    viewBox="0 0 1000 1000">
  <!--
© 2017-2024 Adobe (http://www.adobe.com/).
Noto is a trademark of Google Inc.
This Font Software is licensed under the SIL Open Font License, Version 1.1. This Font Software is distributed on an "AS IS" BASIS, WITHOUT WARRANTIES OR CONDITIONS OF ANY KIND, either express or implied. See the SIL Open Font License for the specific language, permissions and limitations governing your use of this Font Software.
http://scripts.sil.org/OFL
  -->
<path d="M71 225L58 230C91 281 126 361 129 424 189 481 256 342 71 225ZM34 636L80 717C89 711 95 698 95 688 144 635 183 588 212 554 204 697 172 833 73 947L87 958C262 820 280 615 280 446L280 219 933 219C947 219 957 214 960 203 925 171 869 128 869 128L820 189 567 189 567 79C590 75 599 66 601 52L500 43 500 189 292 189 215 156 215 447 213 528C139 575 65 620 34 636Z"/>
</svg>