<svg xmlns="http://www.w3.org/2000/svg" name="gid9013" data-unicode="⽩"
    viewBox="0 0 1000 1000">
  <!--
© 2017-2024 Adobe (http://www.adobe.com/).
Noto is a trademark of Google Inc.
This Font Software is licensed under the SIL Open Font License, Version 1.1. This Font Software is distributed on an "AS IS" BASIS, WITHOUT WARRANTIES OR CONDITIONS OF ANY KIND, either express or implied. See the SIL Open Font License for the specific language, permissions and limitations governing your use of this Font Software.
http://scripts.sil.org/OFL
  -->
<path d="M778 266L778 533 223 533 223 266ZM444 40C432 98 410 178 390 237L230 237 157 202 157 955 167 955C198 955 223 938 223 929L223 871 778 871 778 951 788 951C813 951 845 932 847 925L847 285C871 280 891 270 900 260L807 189 766 237 418 237C456 189 494 130 519 87 541 87 553 79 556 66ZM223 841L223 562 778 562 778 841Z"/>
</svg>