<svg xmlns="http://www.w3.org/2000/svg"
    viewBox="0 0 1000 1000">
  <!--
© 2017-2023 Adobe (http://www.adobe.com/).
Noto is a trademark of Google Inc.
This Font Software is licensed under the SIL Open Font License, Version 1.1. This Font Software is distributed on an "AS IS" BASIS, WITHOUT WARRANTIES OR CONDITIONS OF ANY KIND, either express or implied. See the SIL Open Font License for the specific language, permissions and limitations governing your use of this Font Software.
http://scripts.sil.org/OFL
  -->
<path d="M247 323L231 328C279 449 333 627 329 762 408 845 464 608 247 323ZM84 220L93 249 894 249C908 249 918 244 921 233 885 201 827 156 827 156L776 220 531 220 531 53C556 50 566 40 568 26L465 16 465 220ZM688 310C659 471 601 688 545 849L41 849 50 878 933 878C948 878 957 873 960 862 924 830 865 785 865 785L814 849 570 849C648 696 721 498 762 360 784 360 796 351 800 339Z"/>
</svg>