<svg xmlns="http://www.w3.org/2000/svg"
    viewBox="0 0 1000 1000">
  <!--
© 2017-2024 Adobe (http://www.adobe.com/).
Noto is a trademark of Google Inc.
This Font Software is licensed under the SIL Open Font License, Version 1.1. This Font Software is distributed on an "AS IS" BASIS, WITHOUT WARRANTIES OR CONDITIONS OF ANY KIND, either express or implied. See the SIL Open Font License for the specific language, permissions and limitations governing your use of this Font Software.
http://scripts.sil.org/OFL
  -->
<path d="M151 79L139 87C195 146 265 243 280 319 352 374 403 207 151 79ZM774 67C724 162 656 265 606 325L619 337C688 288 768 210 832 132 852 137 866 130 872 119ZM464 12L464 388 47 388 56 418 414 418C331 571 189 727 27 828L37 843C216 755 366 624 464 473L464 928 478 928C502 928 530 913 530 903L530 426C614 606 757 752 904 833 915 801 939 781 967 778L969 767C816 707 645 572 550 418L929 418C943 418 953 413 956 402 920 369 862 326 862 326L812 388 530 388 530 51C556 47 564 37 567 23Z"/>
</svg>