<svg xmlns="http://www.w3.org/2000/svg" name="gid10049" data-unicode="⽷"
    viewBox="0 0 1000 1000">
  <!--
© 2017-2024 Adobe (http://www.adobe.com/).
Noto is a trademark of Google Inc.
This Font Software is licensed under the SIL Open Font License, Version 1.1. This Font Software is distributed on an "AS IS" BASIS, WITHOUT WARRANTIES OR CONDITIONS OF ANY KIND, either express or implied. See the SIL Open Font License for the specific language, permissions and limitations governing your use of this Font Software.
http://scripts.sil.org/OFL
  -->
<path d="M647 627L635 636C719 698 826 807 854 895 938 950 974 755 647 627ZM290 622C244 711 146 828 45 902L57 915C174 854 284 755 342 676 365 682 373 677 379 667ZM658 127C577 240 446 394 333 506 217 508 121 509 60 509L96 593C106 591 117 585 123 573L468 547 468 958 478 958C510 958 533 942 533 937L533 541C641 532 734 523 815 515 839 544 859 574 869 602 950 649 979 466 666 362L656 372C701 402 753 445 795 492 640 497 493 502 367 505 491 410 629 281 710 189 731 194 746 188 753 178ZM413 36C371 115 319 199 274 260 238 238 190 217 129 200L119 210C192 256 288 342 318 411 377 441 407 355 297 275 354 226 416 161 468 97 489 102 502 94 508 84Z"/>
</svg>