<svg xmlns="http://www.w3.org/2000/svg" name="gid10446" data-unicode="⽻"
    viewBox="0 0 1000 1000">
  <!--
© 2017-2024 Adobe (http://www.adobe.com/).
Noto is a trademark of Google Inc.
This Font Software is licensed under the SIL Open Font License, Version 1.1. This Font Software is distributed on an "AS IS" BASIS, WITHOUT WARRANTIES OR CONDITIONS OF ANY KIND, either express or implied. See the SIL Open Font License for the specific language, permissions and limitations governing your use of this Font Software.
http://scripts.sil.org/OFL
  -->
<path d="M103 251L93 261C162 315 197 404 217 460 283 516 330 341 103 251ZM37 710L96 784C105 778 111 767 111 755 215 667 296 592 351 543L343 530C216 609 89 685 37 710ZM543 246L535 257C603 307 640 391 661 445 731 500 776 318 543 246ZM485 690L545 763C553 757 558 745 559 733 665 644 746 568 802 516L793 505C665 586 537 664 485 690ZM59 117L68 146 389 146 389 848C389 867 382 874 359 874 334 874 201 864 201 864L201 880C257 887 290 895 308 907 324 917 331 935 335 955 441 945 453 908 453 856L453 155C471 152 486 145 492 137L412 76 379 117ZM510 117L519 146 832 146 832 848C832 866 825 874 802 874 775 874 641 864 641 864L641 879C698 887 731 895 750 907 766 918 774 935 778 956 885 946 898 909 898 856L898 155C915 152 930 145 936 137L855 76 822 117Z"/>
</svg>