<svg xmlns="http://www.w3.org/2000/svg" name="gid13913" data-unicode="⾬"
    viewBox="0 0 1000 1000">
  <!--
© 2017-2024 Adobe (http://www.adobe.com/).
Noto is a trademark of Google Inc.
This Font Software is licensed under the SIL Open Font License, Version 1.1. This Font Software is distributed on an "AS IS" BASIS, WITHOUT WARRANTIES OR CONDITIONS OF ANY KIND, either express or implied. See the SIL Open Font License for the specific language, permissions and limitations governing your use of this Font Software.
http://scripts.sil.org/OFL
  -->
<path d="M237 405L228 415C276 446 336 503 353 550 419 590 456 455 237 405ZM231 612L221 621C270 656 330 718 347 770 414 813 456 672 231 612ZM580 405L571 414C622 447 687 505 709 553 776 590 810 455 580 405ZM581 609L571 618C622 653 684 718 700 770 768 814 811 674 581 609ZM110 303L110 957 121 957C150 957 175 940 175 932L175 332 464 332 464 945 474 945C507 945 529 928 529 923L529 332 820 332 820 855C820 871 815 877 798 877 775 877 673 869 673 869L673 885C718 890 744 899 759 910 773 920 778 937 781 957 875 948 886 915 886 863L886 345C906 341 923 332 930 325L845 261 811 303 529 303 529 160 932 160C946 160 956 155 958 144 923 111 865 69 865 69L815 130 42 130 51 160 464 160 464 303 182 303 110 269Z"/>
</svg>