<svg xmlns="http://www.w3.org/2000/svg" name="gid14315" data-unicode="⾺"
    viewBox="0 0 1000 1000">
  <!--
© 2017-2024 Adobe (http://www.adobe.com/).
Noto is a trademark of Google Inc.
This Font Software is licensed under the SIL Open Font License, Version 1.1. This Font Software is distributed on an "AS IS" BASIS, WITHOUT WARRANTIES OR CONDITIONS OF ANY KIND, either express or implied. See the SIL Open Font License for the specific language, permissions and limitations governing your use of this Font Software.
http://scripts.sil.org/OFL
  -->
<path d="M163 662C165 741 120 810 76 836 55 849 41 869 51 890 63 913 100 910 125 891 167 862 212 784 179 662ZM303 663L289 666C305 719 318 799 309 861 360 923 434 797 303 663ZM443 654L430 661C463 705 499 776 502 832 561 884 622 752 443 654ZM592 634L581 642C623 674 677 733 691 779 756 818 795 686 592 634ZM258 150L480 150 480 270 258 270ZM193 120L193 641 204 641C237 641 258 624 258 619L258 593 848 593C835 742 808 846 779 869 768 878 758 880 741 880 719 880 647 873 606 869L606 887C642 893 682 901 696 912 710 922 714 938 714 957 757 957 794 947 821 925 866 889 899 773 913 602 934 599 946 594 953 587L878 524 840 564 545 564 545 445 827 445C839 445 849 440 852 429 819 399 766 358 766 358L720 416 545 416 545 299 824 299C838 299 848 294 850 283 818 253 766 213 766 213L720 270 545 270 545 150 849 150C863 150 873 145 876 134 841 103 786 61 786 61L738 120 271 120 193 87ZM258 299L480 299 480 416 258 416ZM258 445L480 445 480 564 258 564Z"/>
</svg>