<svg xmlns="http://www.w3.org/2000/svg"
    viewBox="0 0 1000 1000">
  <!--
© 2017-2024 Adobe (http://www.adobe.com/).
Noto is a trademark of Google Inc.
This Font Software is licensed under the SIL Open Font License, Version 1.1. This Font Software is distributed on an "AS IS" BASIS, WITHOUT WARRANTIES OR CONDITIONS OF ANY KIND, either express or implied. See the SIL Open Font License for the specific language, permissions and limitations governing your use of this Font Software.
http://scripts.sil.org/OFL
  -->
<path d="M581 765L576 782C710 819 806 868 861 914 936 967 1046 814 581 765ZM362 750C296 804 156 875 37 913L43 929C173 906 317 858 403 817 428 822 444 821 452 811ZM748 469L748 565 529 565 529 469ZM42 327L51 356 464 356 464 439 257 439 186 406 186 780 196 780C223 780 252 765 252 758L252 728 748 728 748 770 757 770C779 770 813 754 814 748L814 481C834 477 849 469 856 461L774 399 738 439 529 439 529 356 934 356C948 356 957 351 960 340 925 308 869 266 869 266L819 327ZM252 698L252 595 464 595 464 698ZM252 565L252 469 464 469 464 565ZM748 698L529 698 529 595 748 595ZM615 11L615 121 381 121 381 48C405 44 415 35 418 20L315 11 315 121 88 121 97 150 315 150 315 311 327 311C353 311 381 298 381 291L381 260 615 260 615 307 626 307C652 307 680 293 680 286L680 150 898 150C911 150 921 145 924 134 890 103 836 61 836 61L788 121 680 121 680 48C705 44 714 35 717 20ZM381 150L615 150 615 231 381 231Z"/>
</svg>