<svg xmlns="http://www.w3.org/2000/svg"
    viewBox="0 0 1000 1000">
  <!--
© 2017-2023 Adobe (http://www.adobe.com/).
Noto is a trademark of Google Inc.
This Font Software is licensed under the SIL Open Font License, Version 1.1. This Font Software is distributed on an "AS IS" BASIS, WITHOUT WARRANTIES OR CONDITIONS OF ANY KIND, either express or implied. See the SIL Open Font License for the specific language, permissions and limitations governing your use of this Font Software.
http://scripts.sil.org/OFL
  -->
<path d="M737 486C727 512 716 538 703 562 682 550 656 538 625 527L614 537C636 552 662 572 685 594 663 631 638 663 614 687L628 699C657 680 686 653 713 622 730 641 745 661 753 678 793 701 816 645 740 586 752 569 763 551 773 532 793 535 806 527 810 517ZM542 478L542 715 455 715 455 478ZM542 449L455 449 455 207 542 207ZM600 478L821 478 821 715 600 715ZM103 802L112 831 260 831 260 874 270 874C289 874 317 860 318 854L318 744 395 744 395 828 396 828C396 897 411 905 522 905L824 905C941 905 960 895 960 870 960 859 956 856 923 846L921 755 912 755C894 808 881 839 873 846 865 854 851 854 831 854L519 854C459 854 456 854 456 824L455 809 455 744 542 744 542 829 551 829C580 829 600 813 600 808L600 744 821 744 821 792 830 792C852 792 883 777 884 770L884 489C903 485 919 478 925 470L847 410 811 449 600 449 600 337 778 337 778 372 787 372C807 372 839 360 840 355L840 217C857 214 872 205 878 198L803 142 768 178 529 178C565 160 603 134 630 115 649 113 661 112 668 105L596 38 556 79 353 79 384 46C411 46 424 41 427 30L323 8C271 91 159 205 44 272L55 285C98 267 140 244 180 218L180 350 190 350C221 350 242 337 242 333L242 329 395 329 395 449 318 449 318 403C330 400 342 394 346 390L283 342 253 371 108 371 117 401 260 401 260 449 60 449 69 478 260 478 260 531 106 531 115 560 260 560 260 584 270 584C289 584 317 570 318 564L318 478 395 478 395 715 318 715 318 668C333 665 346 659 351 652L283 601 252 633 105 633 114 662 260 662 260 715 59 715 68 744 260 744 260 802ZM600 207L778 207 778 307 600 307ZM244 174C272 152 299 130 323 108L549 108C534 131 515 157 496 178L254 178ZM242 207L395 207 395 300 242 300Z"/>
</svg>