<svg xmlns="http://www.w3.org/2000/svg" name="gid1209" data-unicode="ぃ"
    viewBox="0 0 1000 1000">
  <!--
© 2017-2024 Adobe (http://www.adobe.com/).
Noto is a trademark of Google Inc.
This Font Software is licensed under the SIL Open Font License, Version 1.1. This Font Software is distributed on an "AS IS" BASIS, WITHOUT WARRANTIES OR CONDITIONS OF ANY KIND, either express or implied. See the SIL Open Font License for the specific language, permissions and limitations governing your use of this Font Software.
http://scripts.sil.org/OFL
  -->
<path d="M377 878C413 893 439 879 439 855 439 836 425 833 431 797 435 772 457 708 474 656L455 648C432 695 406 749 382 785 374 795 366 796 355 791 325 775 283 729 283 642 283 550 312 506 312 476 312 449 273 409 239 395 224 389 204 385 186 384L181 395C230 431 239 454 239 495 239 536 234 592 237 648 241 786 317 853 377 878ZM780 751C804 751 816 735 816 699 816 646 794 573 750 530 713 493 673 466 599 456L593 472C647 494 687 529 712 576 741 633 744 691 750 724 754 742 766 751 780 751Z"/>
</svg>