<svg xmlns="http://www.w3.org/2000/svg"
    viewBox="0 0 1000 1000">
  <!--
© 2017-2024 Adobe (http://www.adobe.com/).
Noto is a trademark of Google Inc.
This Font Software is licensed under the SIL Open Font License, Version 1.1. This Font Software is distributed on an "AS IS" BASIS, WITHOUT WARRANTIES OR CONDITIONS OF ANY KIND, either express or implied. See the SIL Open Font License for the specific language, permissions and limitations governing your use of this Font Software.
http://scripts.sil.org/OFL
  -->
<path d="M703 878C778 878 908 869 908 829 908 807 887 793 848 793 811 793 794 813 679 813 631 813 615 796 601 743 592 707 581 665 570 633 557 596 525 580 490 580 473 580 450 580 430 585 484 532 588 438 629 406 664 380 696 372 696 353 696 324 636 288 607 288 592 288 583 302 558 309 501 325 329 367 290 367 269 367 250 345 235 311L219 315C215 335 214 353 220 371 230 400 268 439 310 439 330 439 341 423 368 410 425 386 524 357 569 347 588 342 597 351 583 367 541 416 444 512 368 586 316 636 234 712 192 752 165 778 143 798 143 833 143 852 157 865 173 865 191 865 203 855 215 840 255 791 314 706 381 651 411 624 441 614 472 614 505 614 520 635 526 661 535 697 543 739 549 771 566 852 595 878 703 878ZM385 211L394 232C435 218 522 190 566 186 593 183 608 184 628 184 654 184 663 172 663 159 663 130 626 110 596 110 579 110 567 115 539 114 474 112 415 87 350 41L335 55C396 131 473 152 507 159 476 173 425 194 385 211Z"/>
</svg>