<svg xmlns="http://www.w3.org/2000/svg" name="gid1231" data-unicode="す"
    viewBox="0 0 1000 1000">
  <!--
© 2017-2024 Adobe (http://www.adobe.com/).
Noto is a trademark of Google Inc.
This Font Software is licensed under the SIL Open Font License, Version 1.1. This Font Software is distributed on an "AS IS" BASIS, WITHOUT WARRANTIES OR CONDITIONS OF ANY KIND, either express or implied. See the SIL Open Font License for the specific language, permissions and limitations governing your use of this Font Software.
http://scripts.sil.org/OFL
  -->
<path d="M501 663C455 663 420 624 420 567 420 516 452 472 502 472 545 472 577 505 577 570 577 639 551 663 501 663ZM190 394C216 394 236 378 281 367 342 352 448 329 546 318L551 437C539 433 525 431 510 431 428 431 379 499 379 572 379 674 459 751 557 706 521 804 421 875 299 920L312 945C505 897 643 785 643 602 643 544 630 497 601 467L600 313C801 296 877 320 909 320 928 320 937 312 937 294 937 262 885 243 850 243 829 243 765 252 600 270L602 213C604 188 619 172 619 149 619 124 557 102 516 102 490 102 466 114 448 123L450 143C480 145 501 146 516 150 532 155 537 161 539 181L544 276C426 289 220 320 183 319 149 319 130 287 108 254L89 261C90 281 92 304 99 321 110 349 157 394 190 394Z"/>
</svg>