<svg xmlns="http://www.w3.org/2000/svg" name="gid1238" data-unicode="だ"
    viewBox="0 0 1000 1000">
  <!--
© 2017-2024 Adobe (http://www.adobe.com/).
Noto is a trademark of Google Inc.
This Font Software is licensed under the SIL Open Font License, Version 1.1. This Font Software is distributed on an "AS IS" BASIS, WITHOUT WARRANTIES OR CONDITIONS OF ANY KIND, either express or implied. See the SIL Open Font License for the specific language, permissions and limitations governing your use of this Font Software.
http://scripts.sil.org/OFL
  -->
<path d="M838 319C853 319 864 310 864 293 864 274 854 256 829 234 804 210 766 187 715 166L702 184C744 214 771 246 792 272 812 297 822 319 838 319ZM686 913C745 913 789 907 820 900 849 894 876 883 876 863 876 840 849 829 826 829 797 829 766 848 665 848 579 848 518 825 483 771 464 741 455 705 450 675L425 679C427 714 430 752 447 790 479 878 570 913 686 913ZM634 549L646 567C680 550 728 526 758 515 784 504 799 500 818 499 842 497 858 492 858 474 858 457 846 442 823 430 799 419 754 405 687 405 621 405 554 423 506 442L513 465C556 456 602 450 646 450 676 450 710 453 734 462 743 465 747 470 739 476 726 489 668 527 634 549ZM928 250C942 250 952 242 952 225 952 204 942 185 916 163 891 142 854 124 801 104L790 122C835 153 858 177 880 202 902 227 912 250 928 250ZM201 397C237 397 279 392 315 385 304 427 291 469 278 506 228 646 172 746 122 822 106 848 97 858 97 880 97 902 110 921 126 921 147 921 157 912 170 889 214 819 277 658 324 523 342 475 359 421 373 372 445 354 524 326 546 316 583 300 594 290 594 271 594 253 568 243 551 243 543 243 532 248 517 257 486 273 444 292 391 310L411 239C422 200 436 176 436 159 435 136 372 112 337 110 312 109 294 112 273 117L271 140C292 144 315 150 334 157 352 166 358 175 356 197 353 228 343 275 330 327 293 336 247 343 200 343 152 342 121 324 79 286L62 299C94 375 142 397 201 397Z"/>
</svg>