<svg xmlns="http://www.w3.org/2000/svg"
    viewBox="0 0 1000 1000">
  <!--
© 2017-2023 Adobe (http://www.adobe.com/).
Noto is a trademark of Google Inc.
This Font Software is licensed under the SIL Open Font License, Version 1.1. This Font Software is distributed on an "AS IS" BASIS, WITHOUT WARRANTIES OR CONDITIONS OF ANY KIND, either express or implied. See the SIL Open Font License for the specific language, permissions and limitations governing your use of this Font Software.
http://scripts.sil.org/OFL
  -->
<path d="M811 245C826 245 837 235 837 219 837 198 827 181 803 158 778 135 739 112 689 91L675 109C718 140 745 171 766 196 786 222 796 244 811 245ZM902 175C917 175 927 166 927 149 927 128 916 110 890 87 865 67 826 48 776 30L763 47C808 78 831 102 854 127 875 152 886 175 902 175ZM244 330C266 330 288 329 309 327 290 406 253 548 231 602 217 638 210 642 210 658 210 689 231 726 251 726 270 726 286 688 300 671 372 589 484 503 595 503 678 503 746 554 746 642 746 713 701 793 523 841 470 856 405 867 328 870L330 895C558 909 815 839 815 659 815 558 746 469 598 469 493 469 405 516 311 587 289 605 289 600 295 577L364 321C474 305 571 274 612 259 648 245 675 228 675 211 675 187 647 180 626 180 610 180 589 193 552 212 511 233 446 253 379 265L400 182C409 151 429 145 429 125 429 102 370 72 325 72 305 72 284 76 262 82L263 104C288 108 308 112 323 117 340 123 345 128 344 147 342 170 332 223 322 274 298 276 275 278 253 278 188 278 148 264 91 208L72 221C130 322 160 330 244 330Z"/>
</svg>