<svg xmlns="http://www.w3.org/2000/svg"
    viewBox="0 0 1000 1000">
  <!--
© 2017-2023 Adobe (http://www.adobe.com/).
Noto is a trademark of Google Inc.
This Font Software is licensed under the SIL Open Font License, Version 1.1. This Font Software is distributed on an "AS IS" BASIS, WITHOUT WARRANTIES OR CONDITIONS OF ANY KIND, either express or implied. See the SIL Open Font License for the specific language, permissions and limitations governing your use of this Font Software.
http://scripts.sil.org/OFL
  -->
<path d="M830 333C846 334 858 324 858 308 858 287 846 269 822 246 796 222 760 198 705 176L690 194C735 226 763 259 784 284 804 311 815 333 830 333ZM928 251C942 251 954 243 954 225 954 204 941 184 916 162 890 141 853 120 798 102L785 119C832 151 857 177 879 203 902 228 912 251 928 251ZM137 862C167 862 181 830 217 797L253 765C303 790 348 807 386 821 431 838 470 846 508 846 580 846 631 813 631 743 631 687 613 636 568 581 584 578 600 577 616 577 736 577 816 658 851 747 863 778 876 805 896 805 919 805 929 786 929 765 929 737 919 709 893 671 851 608 752 544 626 544 597 544 569 547 542 553 497 510 427 454 427 416 427 373 512 338 554 329 594 322 639 329 639 297 639 241 595 188 538 156 496 130 450 118 399 107L388 131C462 160 524 198 547 241 557 260 556 268 537 281 497 308 388 356 388 415 388 463 447 517 492 568 394 602 305 668 207 736 153 773 138 781 123 781 102 781 78 747 69 707L49 708C45 724 43 739 43 757 43 805 106 862 137 862ZM514 594C552 646 566 684 566 724 566 766 538 792 473 792 409 792 338 770 278 745 363 674 437 620 514 594Z"/>
</svg>