<svg xmlns="http://www.w3.org/2000/svg"
    viewBox="0 0 1000 1000">
  <!--
© 2017-2023 Adobe (http://www.adobe.com/).
Noto is a trademark of Google Inc.
This Font Software is licensed under the SIL Open Font License, Version 1.1. This Font Software is distributed on an "AS IS" BASIS, WITHOUT WARRANTIES OR CONDITIONS OF ANY KIND, either express or implied. See the SIL Open Font License for the specific language, permissions and limitations governing your use of this Font Software.
http://scripts.sil.org/OFL
  -->
<path d="M821 335C881 335 929 286 929 226 929 167 881 118 821 118 761 118 713 167 713 226 713 286 761 335 821 335ZM821 301C779 301 746 268 746 226 746 184 779 151 821 151 863 151 896 184 896 226 896 268 863 301 821 301ZM143 859C173 859 187 827 223 794L259 762C309 787 354 804 392 818 437 835 476 843 514 843 586 843 637 810 637 740 637 684 620 633 574 578 590 575 606 574 622 574 742 574 822 655 857 744 869 775 883 801 902 801 925 801 935 783 935 762 935 734 925 706 899 668 857 605 758 541 632 541 603 541 575 544 548 550 503 507 433 451 433 413 433 370 518 335 561 326 600 318 645 325 645 294 645 238 602 185 544 153 502 127 456 115 405 104L394 128C468 157 530 195 553 238 563 256 562 265 543 278 503 305 395 353 395 411 395 460 454 514 498 565 400 599 311 665 213 733 159 769 144 777 129 777 108 777 84 744 75 704L55 705C51 721 49 736 49 753 49 802 112 859 143 859ZM520 591C558 642 572 681 572 720 572 763 544 789 479 789 415 789 344 766 284 742 369 670 443 617 520 591Z"/>
</svg>