<svg xmlns="http://www.w3.org/2000/svg"
    viewBox="0 0 1000 1000">
  <!--
© 2017-2023 Adobe (http://www.adobe.com/).
Noto is a trademark of Google Inc.
This Font Software is licensed under the SIL Open Font License, Version 1.1. This Font Software is distributed on an "AS IS" BASIS, WITHOUT WARRANTIES OR CONDITIONS OF ANY KIND, either express or implied. See the SIL Open Font License for the specific language, permissions and limitations governing your use of this Font Software.
http://scripts.sil.org/OFL
  -->
<path d="M911 757C933 757 943 744 943 724 943 701 930 678 903 664 703 556 601 400 493 297 462 266 435 257 409 257 383 257 363 270 342 293 304 335 222 428 176 471 158 487 141 497 128 497 110 497 87 482 63 460L47 474C52 494 59 513 70 526 91 550 130 576 157 576 185 576 200 555 225 522 263 473 334 378 370 336 385 318 397 310 409 310 424 310 440 316 459 335 538 419 618 526 703 611 788 695 873 757 911 757Z"/>
</svg>