<svg xmlns="http://www.w3.org/2000/svg" name="gid1267" data-unicode="ぽ"
    viewBox="0 0 1000 1000">
  <!--
© 2017-2024 Adobe (http://www.adobe.com/).
Noto is a trademark of Google Inc.
This Font Software is licensed under the SIL Open Font License, Version 1.1. This Font Software is distributed on an "AS IS" BASIS, WITHOUT WARRANTIES OR CONDITIONS OF ANY KIND, either express or implied. See the SIL Open Font License for the specific language, permissions and limitations governing your use of this Font Software.
http://scripts.sil.org/OFL
  -->
<path d="M196 939C213 939 222 928 222 911 222 889 211 860 211 828 211 811 216 787 226 757 238 716 281 603 300 547L277 537C254 589 198 722 178 754 170 767 161 766 154 753 143 731 134 702 134 649 134 551 175 432 197 380 221 315 240 295 240 271 240 239 206 188 176 163 158 149 140 139 123 131L106 144C132 175 163 215 163 254 163 288 146 337 137 371 123 424 89 539 89 662 89 773 121 861 146 902 162 927 178 939 196 939ZM880 243C838 243 805 210 805 168 805 127 838 94 880 94 921 94 954 127 954 168 954 210 921 243 880 243ZM880 276C939 276 987 228 987 168 987 109 939 61 880 61 820 61 772 109 772 168L774 187C768 185 761 184 753 184 742 184 731 193 697 204 667 212 623 224 557 224 513 224 483 212 444 186L429 200C468 255 508 274 570 274L610 272C627 280 644 293 645 317 647 341 646 394 646 440 621 444 588 449 553 449 483 449 452 425 411 396L396 411C441 478 489 500 556 500 587 500 616 498 647 493L655 691C633 687 610 685 585 685 477 685 391 731 391 805 391 879 457 916 547 916 650 916 715 873 715 788L714 761C760 782 805 814 849 858 863 872 874 883 890 883 907 883 915 871 915 854 915 830 902 811 878 791 848 765 789 725 710 703 705 637 698 552 696 486 752 476 814 460 857 443 880 433 889 421 889 409 889 386 855 378 840 378 834 378 825 385 798 397 773 407 737 420 696 430 697 383 700 342 710 313 715 294 714 286 702 278 694 273 684 268 674 265 717 258 757 248 779 239 784 237 789 234 791 230 811 258 843 276 880 276ZM657 740L657 756C657 825 620 861 534 861 463 861 425 842 425 802 425 748 506 728 568 728 597 728 627 732 657 740Z"/>
</svg>