<svg xmlns="http://www.w3.org/2000/svg" name="gid1274" data-unicode="や"
    viewBox="0 0 1000 1000">
  <!--
© 2017-2024 Adobe (http://www.adobe.com/).
Noto is a trademark of Google Inc.
This Font Software is licensed under the SIL Open Font License, Version 1.1. This Font Software is distributed on an "AS IS" BASIS, WITHOUT WARRANTIES OR CONDITIONS OF ANY KIND, either express or implied. See the SIL Open Font License for the specific language, permissions and limitations governing your use of this Font Software.
http://scripts.sil.org/OFL
  -->
<path d="M721 611C833 611 929 555 929 447 929 349 850 279 729 279 616 279 486 334 346 404 317 361 277 311 277 290 277 270 289 266 319 262 376 255 467 256 506 260 533 262 550 271 567 271 584 271 595 261 595 238 595 214 582 190 562 167 536 138 487 109 407 101L398 122C462 140 494 169 506 193 513 209 509 216 495 217 466 220 383 225 300 231 269 233 228 227 217 278 207 317 228 333 246 355 261 373 278 394 299 428L215 471C179 489 150 502 129 502 106 502 85 476 70 454L49 463C49 486 54 503 63 519 79 546 125 576 151 576 179 576 192 555 241 525L327 473C387 570 428 679 453 755 473 820 483 876 490 897 498 924 509 934 525 934 547 934 560 914 560 886 560 854 543 798 526 754 489 665 440 552 373 445 497 373 622 313 725 313 804 313 864 362 864 434 864 509 804 554 718 554 643 554 589 534 522 485L504 501C570 578 651 611 721 611Z"/>
</svg>