<svg xmlns="http://www.w3.org/2000/svg"
    viewBox="0 0 1000 1000">
  <!--
© 2017-2023 Adobe (http://www.adobe.com/).
Noto is a trademark of Google Inc.
This Font Software is licensed under the SIL Open Font License, Version 1.1. This Font Software is distributed on an "AS IS" BASIS, WITHOUT WARRANTIES OR CONDITIONS OF ANY KIND, either express or implied. See the SIL Open Font License for the specific language, permissions and limitations governing your use of this Font Software.
http://scripts.sil.org/OFL
  -->
<path d="M323 888L333 912C456 876 527 831 579 763L615 765C797 765 910 657 910 493 910 343 799 240 649 240 627 154 586 94 527 94 492 94 450 119 418 178 396 218 378 274 367 340 287 406 227 491 181 595 169 577 162 540 162 509 162 461 186 400 208 341 217 319 232 289 232 263 232 235 198 196 180 180 162 165 144 156 125 149L112 161C132 188 164 222 164 263 164 332 119 430 119 525 119 615 149 678 170 706 183 720 196 734 211 733 230 733 239 723 239 707 239 683 225 667 225 637 225 584 277 467 361 388 359 412 358 436 358 462 358 612 418 714 523 750 479 810 414 856 323 888ZM618 701C661 611 670 503 670 420 670 369 666 320 657 275 750 280 848 345 848 485 848 634 738 701 619 701ZM411 307C419 265 431 226 445 197 470 146 499 129 522 129 549 129 578 159 594 243 518 252 454 278 411 307ZM403 355C466 310 530 285 600 277 605 317 608 366 608 426 608 528 594 619 557 695 451 671 399 583 399 428 399 404 401 379 403 355Z"/>
</svg>