<svg xmlns="http://www.w3.org/2000/svg"
    viewBox="0 0 1000 1000">
  <!--
© 2017-2024 Adobe (http://www.adobe.com/).
Noto is a trademark of Google Inc.
This Font Software is licensed under the SIL Open Font License, Version 1.1. This Font Software is distributed on an "AS IS" BASIS, WITHOUT WARRANTIES OR CONDITIONS OF ANY KIND, either express or implied. See the SIL Open Font License for the specific language, permissions and limitations governing your use of this Font Software.
http://scripts.sil.org/OFL
  -->
<path d="M585 513C633 513 693 499 715 491 736 484 744 474 744 463 744 441 722 432 691 432 682 432 667 441 644 449 617 459 574 466 547 466L531 465C534 433 537 399 541 382 547 359 558 353 558 336 558 314 508 286 464 286 443 286 421 294 402 302L404 315C421 316 442 319 459 326 472 331 476 337 478 353 481 369 482 463 482 510 483 559 489 647 492 706L449 704C352 704 263 739 263 813 263 871 322 906 402 906 503 906 546 858 546 796L544 765C568 773 589 782 608 793 681 836 706 881 734 881 750 881 759 872 759 854 759 813 698 772 647 749 616 734 580 721 538 713L537 703C533 645 529 556 529 520L530 495C546 504 568 513 585 513ZM493 752C492 822 467 854 378 854 326 854 297 834 297 807 297 773 346 745 419 745 445 745 470 747 493 752Z"/>
</svg>