<svg xmlns="http://www.w3.org/2000/svg" name="gid1277" data-unicode="ょ"
    viewBox="0 0 1000 1000">
  <!--
© 2017-2024 Adobe (http://www.adobe.com/).
Noto is a trademark of Google Inc.
This Font Software is licensed under the SIL Open Font License, Version 1.1. This Font Software is distributed on an "AS IS" BASIS, WITHOUT WARRANTIES OR CONDITIONS OF ANY KIND, either express or implied. See the SIL Open Font License for the specific language, permissions and limitations governing your use of this Font Software.
http://scripts.sil.org/OFL
  -->
<path d="M585 543C633 543 693 529 715 521 736 514 744 504 744 493 744 471 722 462 691 462 682 462 667 471 644 479 617 489 574 496 547 496L531 495C534 463 537 429 541 412 547 389 558 383 558 366 558 344 508 316 464 316 443 316 421 324 402 332L404 345C421 346 442 349 459 356 472 361 476 367 478 383 481 399 482 493 482 540 483 589 489 677 492 736L449 734C352 734 263 769 263 843 263 901 322 936 402 936 503 936 546 888 546 826L544 795C568 803 589 812 608 823 681 866 706 911 734 911 750 911 759 902 759 884 759 843 698 802 647 779 616 764 580 751 538 743L537 733C533 675 529 586 529 550L530 525C546 534 568 543 585 543ZM493 782C492 852 467 884 378 884 326 884 297 864 297 837 297 803 346 775 419 775 445 775 470 777 493 782Z"/>
</svg>