<svg xmlns="http://www.w3.org/2000/svg" name="gid1280" data-unicode="り"
    viewBox="0 0 1000 1000">
  <!--
© 2017-2024 Adobe (http://www.adobe.com/).
Noto is a trademark of Google Inc.
This Font Software is licensed under the SIL Open Font License, Version 1.1. This Font Software is distributed on an "AS IS" BASIS, WITHOUT WARRANTIES OR CONDITIONS OF ANY KIND, either express or implied. See the SIL Open Font License for the specific language, permissions and limitations governing your use of this Font Software.
http://scripts.sil.org/OFL
  -->
<path d="M372 931L383 954C651 884 743 717 743 510 743 332 688 203 568 203 503 203 433 263 386 346 375 366 367 365 371 344 378 305 384 275 394 243 400 219 407 205 407 184 407 162 378 117 341 92 327 82 313 76 293 70L280 83C322 131 337 155 337 207 337 261 289 454 289 562 289 588 294 634 304 655 313 675 325 680 339 680 355 680 367 668 367 648 367 615 361 586 361 546 361 476 381 417 413 355 448 288 511 243 558 243 628 243 673 340 673 503 673 682 614 834 372 931Z"/>
</svg>