<svg xmlns="http://www.w3.org/2000/svg" name="gid1281" data-unicode="る"
    viewBox="0 0 1000 1000">
  <!--
© 2017-2024 Adobe (http://www.adobe.com/).
Noto is a trademark of Google Inc.
This Font Software is licensed under the SIL Open Font License, Version 1.1. This Font Software is distributed on an "AS IS" BASIS, WITHOUT WARRANTIES OR CONDITIONS OF ANY KIND, either express or implied. See the SIL Open Font License for the specific language, permissions and limitations governing your use of this Font Software.
http://scripts.sil.org/OFL
  -->
<path d="M543 850L502 852C405 852 362 821 362 786 362 754 389 733 424 733 481 733 530 773 543 850ZM515 907C704 907 816 804 818 679 821 540 710 455 580 455 513 455 454 473 408 490 400 494 396 486 403 480 448 430 581 301 632 259 667 228 690 227 690 208 690 181 635 139 605 139 591 139 588 149 566 156 521 169 395 201 355 201 329 201 316 171 303 142L285 145C281 164 280 185 284 201 292 230 329 273 367 273 383 273 397 258 416 250 459 233 546 202 578 195 590 193 596 197 587 212 545 279 364 451 207 615 184 638 175 652 174 670 173 695 188 710 200 710 215 711 223 705 238 686 322 578 423 488 567 488 690 488 757 576 754 664 752 742 702 812 602 839 586 742 511 696 439 696 374 696 327 737 327 790 327 862 403 907 515 907Z"/>
</svg>