<svg xmlns="http://www.w3.org/2000/svg" name="gid1282" data-unicode="れ"
    viewBox="0 0 1000 1000">
  <!--
© 2017-2024 Adobe (http://www.adobe.com/).
Noto is a trademark of Google Inc.
This Font Software is licensed under the SIL Open Font License, Version 1.1. This Font Software is distributed on an "AS IS" BASIS, WITHOUT WARRANTIES OR CONDITIONS OF ANY KIND, either express or implied. See the SIL Open Font License for the specific language, permissions and limitations governing your use of this Font Software.
http://scripts.sil.org/OFL
  -->
<path d="M166 460C183 460 193 437 214 424 239 410 274 390 308 372L299 455C230 562 121 696 80 739 62 759 59 771 59 789 59 809 71 824 85 824 100 824 109 811 121 794L186 703C215 747 251 807 260 833 269 855 272 872 277 896 282 919 292 930 310 930 338 930 352 883 352 849 352 827 349 806 347 781 341 721 331 601 337 486 437 377 554 287 639 287 689 287 707 320 707 383 707 491 665 607 665 718 665 806 714 849 785 849 870 849 946 787 990 725L972 707C914 760 866 784 800 784 752 784 729 762 729 708 729 606 772 463 772 385 772 292 729 250 660 250 558 250 440 341 345 427 356 411 366 397 377 385 389 369 400 361 400 349 400 339 380 320 364 309 372 276 379 250 384 235 395 195 407 186 407 165 407 136 356 92 315 92 292 92 271 97 254 103L255 123C277 127 295 133 308 137 326 144 331 148 331 171 330 200 323 252 315 316 274 338 171 387 146 387 128 387 113 370 98 339L80 345C79 359 80 375 84 389 94 422 137 460 166 460ZM293 547C290 637 295 729 294 777 294 793 289 794 280 784 266 767 230 719 202 680 233 635 266 589 293 547Z"/>
</svg>