<svg xmlns="http://www.w3.org/2000/svg"
    viewBox="0 0 1000 1000">
  <!--
© 2017-2023 Adobe (http://www.adobe.com/).
Noto is a trademark of Google Inc.
This Font Software is licensed under the SIL Open Font License, Version 1.1. This Font Software is distributed on an "AS IS" BASIS, WITHOUT WARRANTIES OR CONDITIONS OF ANY KIND, either express or implied. See the SIL Open Font License for the specific language, permissions and limitations governing your use of this Font Software.
http://scripts.sil.org/OFL
  -->
<path d="M128 902C145 902 155 889 163 879 180 853 204 822 234 795 264 769 297 749 335 749 379 749 400 773 417 800 438 832 430 847 445 861 458 873 479 885 493 885 510 885 514 865 528 837 555 778 618 688 693 688 757 688 814 736 830 783 836 805 832 815 818 822 800 834 767 847 728 861L734 880C773 873 802 865 820 865 851 866 857 877 877 877 899 877 909 862 909 834 909 750 811 660 701 660 612 660 532 744 480 803 430 738 383 709 300 730 329 704 391 652 459 608 477 611 496 612 515 612 647 612 774 554 774 439 774 336 682 292 587 292 549 292 500 302 469 312 457 317 454 312 464 304 497 273 561 228 623 185 639 175 668 170 668 153 668 131 612 90 582 90 568 90 564 104 535 113 499 125 386 158 360 158 335 158 323 124 314 108L295 111C293 127 293 146 296 158 304 187 343 223 370 223 386 223 402 205 417 198 459 178 519 155 560 146 574 143 577 149 568 159 516 212 344 362 267 418 221 450 209 461 209 480 209 507 222 515 234 515 251 515 263 504 272 493 326 437 373 392 413 367 461 336 519 320 564 320 663 320 714 362 714 429 714 502 641 564 521 567 537 553 547 538 546 514 546 469 509 439 453 439 398 439 353 477 353 519 353 555 376 579 411 594L274 700C224 738 156 788 133 807 103 832 99 850 99 862 99 886 114 902 128 902ZM451 562C413 554 391 538 391 513 391 486 415 468 444 468 481 468 492 485 492 506 492 527 481 539 451 562Z"/>
</svg>