<svg xmlns="http://www.w3.org/2000/svg"
    viewBox="0 0 1000 1000">
  <!--
© 2017-2024 Adobe (http://www.adobe.com/).
Noto is a trademark of Google Inc.
This Font Software is licensed under the SIL Open Font License, Version 1.1. This Font Software is distributed on an "AS IS" BASIS, WITHOUT WARRANTIES OR CONDITIONS OF ANY KIND, either express or implied. See the SIL Open Font License for the specific language, permissions and limitations governing your use of this Font Software.
http://scripts.sil.org/OFL
  -->
<path d="M554 892C575 892 584 880 584 843 584 783 579 630 586 485 587 460 595 446 595 433 595 419 572 402 544 384 610 321 659 267 696 226 723 196 741 198 741 179 741 153 697 109 658 96 637 87 616 86 593 85L586 104C628 125 645 139 645 155 645 163 637 180 618 206 548 305 375 488 122 629L135 653C310 581 448 471 510 416 521 430 524 442 525 460 528 505 524 672 516 740 512 773 504 793 504 811 504 844 521 892 554 892Z"/>
</svg>