<svg xmlns="http://www.w3.org/2000/svg" name="gid1305" data-unicode="ゥ"
    viewBox="0 0 1000 1000">
  <!--
© 2017-2024 Adobe (http://www.adobe.com/).
Noto is a trademark of Google Inc.
This Font Software is licensed under the SIL Open Font License, Version 1.1. This Font Software is distributed on an "AS IS" BASIS, WITHOUT WARRANTIES OR CONDITIONS OF ANY KIND, either express or implied. See the SIL Open Font License for the specific language, permissions and limitations governing your use of this Font Software.
http://scripts.sil.org/OFL
  -->
<path d="M334 723C350 722 358 713 358 694 358 675 343 533 340 502 353 511 361 515 372 515 398 515 484 494 671 488 682 488 684 490 681 502 642 673 520 834 353 933L366 947C564 858 671 730 744 539 751 522 778 512 778 496 778 477 729 431 703 431 690 431 677 447 662 450 633 454 581 456 535 459 535 438 537 414 539 399 542 375 557 372 557 355 557 338 511 310 475 310 457 310 441 316 423 324L423 337C439 340 455 343 464 348 477 354 477 359 478 376 479 396 480 437 480 463 433 467 375 471 332 473 328 467 321 461 309 454 289 441 263 432 239 424L231 437C251 459 270 477 278 507 286 531 294 599 295 623 295 637 291 651 291 659 292 683 310 723 334 723Z"/>
</svg>