<svg xmlns="http://www.w3.org/2000/svg"
    viewBox="0 0 1000 1000">
  <!--
© 2017-2024 Adobe (http://www.adobe.com/).
Noto is a trademark of Google Inc.
This Font Software is licensed under the SIL Open Font License, Version 1.1. This Font Software is distributed on an "AS IS" BASIS, WITHOUT WARRANTIES OR CONDITIONS OF ANY KIND, either express or implied. See the SIL Open Font License for the specific language, permissions and limitations governing your use of this Font Software.
http://scripts.sil.org/OFL
  -->
<path d="M344 500C364 500 402 492 452 485 468 504 475 523 475 555 475 591 473 669 469 722 371 732 281 741 255 741 228 741 209 724 191 703L178 709C180 730 182 742 187 754 195 773 235 810 260 810 279 810 296 798 327 790 401 771 560 755 641 759 726 761 785 781 808 781 825 781 835 771 835 756 835 727 770 696 736 696 726 696 716 705 679 707 635 709 581 713 526 717 529 665 536 601 540 569 543 551 550 535 550 521 550 504 531 489 506 478L696 459C718 457 727 445 727 431 727 411 678 392 645 392 626 392 632 412 520 429 450 440 386 447 352 447 323 447 299 430 274 409L262 417C269 437 282 456 293 469 308 486 325 500 344 500Z"/>
</svg>