<svg xmlns="http://www.w3.org/2000/svg"
    viewBox="0 0 1000 1000">
  <!--
© 2017-2023 Adobe (http://www.adobe.com/).
Noto is a trademark of Google Inc.
This Font Software is licensed under the SIL Open Font License, Version 1.1. This Font Software is distributed on an "AS IS" BASIS, WITHOUT WARRANTIES OR CONDITIONS OF ANY KIND, either express or implied. See the SIL Open Font License for the specific language, permissions and limitations governing your use of this Font Software.
http://scripts.sil.org/OFL
  -->
<path d="M295 351C319 351 374 340 441 331 464 357 473 380 473 420 473 465 470 578 465 652 330 665 210 678 181 678 146 678 123 652 102 625L83 633C85 659 88 674 96 688 107 710 154 754 184 754 207 754 224 740 262 730 365 704 601 683 710 689 811 693 877 715 903 715 922 715 933 706 933 689 933 653 854 620 813 620 801 620 788 629 745 631 680 634 603 640 526 646 530 575 537 480 542 437 545 408 557 391 557 374 557 355 531 338 500 324 589 314 716 300 754 295 782 291 791 280 791 265 791 242 735 221 698 221 671 221 686 246 530 268 429 282 347 291 307 291 269 291 239 269 207 241L190 252C201 279 219 303 233 318 252 336 272 351 295 351Z"/>
</svg>