<svg xmlns="http://www.w3.org/2000/svg"
    viewBox="0 0 1000 1000">
  <!--
© 2017-2024 Adobe (http://www.adobe.com/).
Noto is a trademark of Google Inc.
This Font Software is licensed under the SIL Open Font License, Version 1.1. This Font Software is distributed on an "AS IS" BASIS, WITHOUT WARRANTIES OR CONDITIONS OF ANY KIND, either express or implied. See the SIL Open Font License for the specific language, permissions and limitations governing your use of this Font Software.
http://scripts.sil.org/OFL
  -->
<path d="M308 545C330 545 348 533 382 525 417 518 464 510 516 504 454 617 321 745 189 827L198 843C335 787 477 674 550 571 551 661 553 764 550 793 549 802 543 806 534 805 511 803 474 794 442 788L436 801C464 816 498 831 519 849 536 865 537 893 559 893 584 893 610 855 610 820 610 796 607 774 605 733 602 677 602 562 603 495 698 487 754 494 786 494 800 494 809 484 809 472 809 450 763 426 733 426 722 426 718 438 603 451 603 426 605 395 608 374 611 346 622 343 622 326 622 311 579 284 541 284 519 284 498 292 483 296L483 309C500 312 516 316 530 323 542 329 548 334 548 349L549 457C468 466 355 480 305 481 282 481 267 466 249 439L236 443C236 458 237 477 241 488 248 508 285 545 308 545Z"/>
</svg>