<svg xmlns="http://www.w3.org/2000/svg" name="gid1334" data-unicode="ヂ"
    viewBox="0 0 1000 1000">
  <!--
© 2017-2024 Adobe (http://www.adobe.com/).
Noto is a trademark of Google Inc.
This Font Software is licensed under the SIL Open Font License, Version 1.1. This Font Software is distributed on an "AS IS" BASIS, WITHOUT WARRANTIES OR CONDITIONS OF ANY KIND, either express or implied. See the SIL Open Font License for the specific language, permissions and limitations governing your use of this Font Software.
http://scripts.sil.org/OFL
  -->
<path d="M856 380C869 380 880 371 880 355 880 336 869 317 845 295 820 273 783 251 734 232L721 249C763 279 788 309 809 335 829 359 840 380 856 380ZM940 310C956 310 965 300 965 285 965 265 954 246 927 225 903 204 867 187 817 168L804 186C847 215 871 239 893 264 915 288 925 310 940 310ZM169 309L174 334C313 319 387 305 441 293 471 320 476 343 477 387L476 451C395 460 220 479 156 479 130 479 113 454 91 424L75 430C76 452 79 470 84 480 95 507 135 551 160 551 185 551 206 538 235 531 273 522 395 504 474 496 458 683 384 802 197 917L212 936C426 843 525 694 541 489 613 484 713 479 757 479 807 479 844 487 860 487 882 487 889 476 889 460 889 431 833 411 793 411 773 411 767 417 704 426L543 444 543 402C543 361 556 353 556 333 556 320 527 296 496 280 550 265 598 247 650 227 674 218 706 220 706 203 706 185 685 161 668 148 652 134 626 119 586 109L573 123C612 153 613 168 597 179 549 212 341 277 169 309Z"/>
</svg>