<svg xmlns="http://www.w3.org/2000/svg"
    viewBox="0 0 1000 1000">
  <!--
© 2017-2023 Adobe (http://www.adobe.com/).
Noto is a trademark of Google Inc.
This Font Software is licensed under the SIL Open Font License, Version 1.1. This Font Software is distributed on an "AS IS" BASIS, WITHOUT WARRANTIES OR CONDITIONS OF ANY KIND, either express or implied. See the SIL Open Font License for the specific language, permissions and limitations governing your use of this Font Software.
http://scripts.sil.org/OFL
  -->
<path d="M203 873L217 895C528 763 692 550 787 345 802 314 829 312 829 288 829 259 775 209 731 200 708 195 682 195 664 196L657 217C713 237 731 251 731 270 731 338 560 684 203 873ZM241 480C265 480 275 462 274 440 274 405 250 358 202 312 181 289 145 257 112 238L94 253C120 284 144 320 165 361 203 432 204 480 241 480ZM476 416C496 416 511 404 511 376 511 335 487 294 452 258 422 228 393 204 355 180L338 195C367 229 388 264 406 301 439 362 442 416 476 416ZM860 225C875 225 884 216 884 199 884 179 874 162 849 139 824 116 786 93 735 72L722 89C765 121 793 152 813 177 834 203 845 225 860 225ZM951 156C966 156 974 147 974 130 974 110 964 91 936 68 913 48 874 29 823 11L810 28C857 59 880 83 903 109 925 133 934 156 951 156Z"/>
</svg>