<svg xmlns="http://www.w3.org/2000/svg" name="gid1339" data-unicode="デ"
    viewBox="0 0 1000 1000">
  <!--
© 2017-2024 Adobe (http://www.adobe.com/).
Noto is a trademark of Google Inc.
This Font Software is licensed under the SIL Open Font License, Version 1.1. This Font Software is distributed on an "AS IS" BASIS, WITHOUT WARRANTIES OR CONDITIONS OF ANY KIND, either express or implied. See the SIL Open Font License for the specific language, permissions and limitations governing your use of this Font Software.
http://scripts.sil.org/OFL
  -->
<path d="M886 303C900 303 910 293 911 278 912 257 902 240 878 217 855 194 817 171 769 149L754 166C797 198 822 229 842 254 862 280 871 302 886 303ZM378 263C466 263 607 238 684 224 716 219 727 209 727 195 727 171 694 155 650 155 630 155 617 171 558 185 508 196 439 208 378 207 345 207 319 196 281 168L266 182C299 234 327 263 378 263ZM965 216C981 217 989 207 989 191 989 170 979 150 953 129 928 110 894 89 844 70L831 86C874 116 896 142 919 168 940 193 948 216 965 216ZM197 502C219 501 246 490 277 482 307 473 399 458 483 448 495 462 500 474 500 488 500 542 444 770 203 927L223 948C463 816 526 650 562 544 572 514 596 510 596 491 596 475 573 456 547 441 638 433 722 430 767 430 815 430 854 437 870 437 892 437 898 428 898 411 898 382 841 360 800 360 785 360 769 372 699 378 515 394 261 433 193 433 167 433 147 406 128 379L111 386C111 407 112 423 118 435 128 464 174 503 197 502Z"/>
</svg>