<svg xmlns="http://www.w3.org/2000/svg"
    viewBox="0 0 1000 1000">
  <!--
© 2017-2024 Adobe (http://www.adobe.com/).
Noto is a trademark of Google Inc.
This Font Software is licensed under the SIL Open Font License, Version 1.1. This Font Software is distributed on an "AS IS" BASIS, WITHOUT WARRANTIES OR CONDITIONS OF ANY KIND, either express or implied. See the SIL Open Font License for the specific language, permissions and limitations governing your use of this Font Software.
http://scripts.sil.org/OFL
  -->
<path d="M793 780C809 780 824 767 824 747 824 726 815 704 798 682 761 634 683 570 619 530 677 454 723 378 757 315 775 281 808 269 808 247 808 217 738 168 711 168 695 168 684 186 660 190 609 199 365 233 315 231 282 229 261 195 247 171L225 180C227 208 233 226 238 240 249 266 294 306 324 306 345 306 363 289 393 282 434 273 636 239 693 237 704 237 706 240 702 251 680 316 629 412 566 498 499 461 421 428 328 396L315 421C402 461 472 504 528 546 449 638 317 753 119 850L131 874C359 788 497 672 576 583 650 640 697 685 732 728 763 766 771 780 793 780Z"/>
</svg>