<svg xmlns="http://www.w3.org/2000/svg" name="gid1344" data-unicode="ヌ"
    viewBox="0 0 1000 1000">
  <!--
© 2017-2024 Adobe (http://www.adobe.com/).
Noto is a trademark of Google Inc.
This Font Software is licensed under the SIL Open Font License, Version 1.1. This Font Software is distributed on an "AS IS" BASIS, WITHOUT WARRANTIES OR CONDITIONS OF ANY KIND, either express or implied. See the SIL Open Font License for the specific language, permissions and limitations governing your use of this Font Software.
http://scripts.sil.org/OFL
  -->
<path d="M793 810C809 810 824 797 824 777 824 756 815 734 798 712 761 664 683 600 619 560 677 484 723 408 757 345 775 311 808 299 808 277 808 247 738 198 711 198 695 198 684 216 660 220 609 229 365 263 315 261 282 259 261 225 247 201L225 210C227 238 233 256 238 270 249 296 294 336 324 336 345 336 363 319 393 312 434 303 636 269 693 267 704 267 706 270 702 281 680 346 629 442 566 528 499 491 421 458 328 426L315 451C402 491 472 534 528 576 449 668 317 783 119 880L131 904C359 818 497 702 576 613 650 670 697 715 732 758 763 796 771 810 793 810Z"/>
</svg>