<svg xmlns="http://www.w3.org/2000/svg"
    viewBox="0 0 1000 1000">
  <!--
© 2017-2023 Adobe (http://www.adobe.com/).
Noto is a trademark of Google Inc.
This Font Software is licensed under the SIL Open Font License, Version 1.1. This Font Software is distributed on an "AS IS" BASIS, WITHOUT WARRANTIES OR CONDITIONS OF ANY KIND, either express or implied. See the SIL Open Font License for the specific language, permissions and limitations governing your use of this Font Software.
http://scripts.sil.org/OFL
  -->
<path d="M181 872L196 894C491 782 670 595 775 345 789 312 818 302 818 280 818 252 745 195 715 195 698 195 692 210 666 215 618 225 300 259 244 259 208 259 187 228 170 203L151 211C153 238 156 254 161 268 171 293 218 340 248 340 268 340 289 322 316 316 373 304 657 263 701 263 711 263 717 265 713 280 652 514 468 727 181 872ZM881 252C896 252 906 243 906 227 906 207 896 189 871 166 846 143 808 120 756 100L743 117C787 148 815 179 835 205 855 230 867 252 881 252ZM970 182C985 182 993 173 993 157 993 136 983 117 955 96 930 76 893 55 842 38L829 54C876 86 899 110 922 135 944 160 953 182 970 182Z"/>
</svg>