<svg xmlns="http://www.w3.org/2000/svg"
    viewBox="0 0 1000 1000">
  <!--
© 2017-2023 Adobe (http://www.adobe.com/).
Noto is a trademark of Google Inc.
This Font Software is licensed under the SIL Open Font License, Version 1.1. This Font Software is distributed on an "AS IS" BASIS, WITHOUT WARRANTIES OR CONDITIONS OF ANY KIND, either express or implied. See the SIL Open Font License for the specific language, permissions and limitations governing your use of this Font Software.
http://scripts.sil.org/OFL
  -->
<path d="M905 755C924 755 935 743 935 724 935 698 919 672 895 656 771 573 618 427 492 301 463 271 439 262 413 262 389 262 369 277 348 299 314 333 229 430 183 472 163 490 150 499 136 499 119 499 95 484 72 463L56 477C62 496 67 514 79 527 100 551 138 575 165 575 193 575 207 554 232 523 269 477 347 376 378 340 394 322 405 317 416 317 429 317 441 324 460 342 536 418 698 589 761 650 828 714 877 755 905 755Z"/>
</svg>