<svg xmlns="http://www.w3.org/2000/svg" name="gid1372" data-unicode="ヨ"
    viewBox="0 0 1000 1000">
  <!--
© 2017-2024 Adobe (http://www.adobe.com/).
Noto is a trademark of Google Inc.
This Font Software is licensed under the SIL Open Font License, Version 1.1. This Font Software is distributed on an "AS IS" BASIS, WITHOUT WARRANTIES OR CONDITIONS OF ANY KIND, either express or implied. See the SIL Open Font License for the specific language, permissions and limitations governing your use of this Font Software.
http://scripts.sil.org/OFL
  -->
<path d="M314 570C332 570 345 557 374 554 461 544 590 527 703 520L680 723C569 729 344 754 274 754 238 754 217 722 197 698L179 708C180 725 187 748 192 759 201 782 246 827 276 827 293 827 316 814 336 811 426 796 549 781 636 781 688 781 741 793 762 793 784 793 793 782 793 765 793 747 767 730 739 725 755 611 780 433 794 348 798 320 826 312 826 291 826 267 759 219 732 219 713 219 709 239 676 244 614 252 345 278 290 278 257 278 239 246 221 222L200 230C201 244 204 267 208 280 216 303 262 351 290 351 308 351 330 335 352 331 447 317 644 292 716 292 724 292 727 295 726 302L709 468C581 476 351 500 316 500 283 500 261 471 241 450L221 461C223 474 229 499 236 510 246 534 288 570 314 570Z"/>
</svg>