<svg xmlns="http://www.w3.org/2000/svg"
    viewBox="0 0 1000 1000">
  <!--
© 2017-2024 Adobe (http://www.adobe.com/).
Noto is a trademark of Google Inc.
This Font Software is licensed under the SIL Open Font License, Version 1.1. This Font Software is distributed on an "AS IS" BASIS, WITHOUT WARRANTIES OR CONDITIONS OF ANY KIND, either express or implied. See the SIL Open Font License for the specific language, permissions and limitations governing your use of this Font Software.
http://scripts.sil.org/OFL
  -->
<path d="M256 873L270 896C529 797 678 637 778 441 790 416 829 405 829 386 829 361 768 310 738 310 721 310 712 325 684 329 614 339 323 377 264 377 235 377 218 354 197 323L178 332C181 352 185 371 192 388 202 412 246 453 270 453 292 453 306 435 337 428 405 414 624 382 705 374 718 372 721 378 717 390 638 586 478 759 256 873ZM391 212C480 212 605 188 679 174 711 167 723 158 723 144 723 120 689 106 646 106 625 106 612 122 553 135 502 146 452 158 390 158 358 158 332 146 294 118L279 131C312 184 340 212 391 212Z"/>
</svg>