<svg xmlns="http://www.w3.org/2000/svg"
    viewBox="0 0 1000 1000">
  <!--
© 2017-2024 Adobe (http://www.adobe.com/).
Noto is a trademark of Google Inc.
This Font Software is licensed under the SIL Open Font License, Version 1.1. This Font Software is distributed on an "AS IS" BASIS, WITHOUT WARRANTIES OR CONDITIONS OF ANY KIND, either express or implied. See the SIL Open Font License for the specific language, permissions and limitations governing your use of this Font Software.
http://scripts.sil.org/OFL
  -->
<path d="M551 793C571 793 584 765 607 751 744 674 890 557 976 434L955 417C862 518 723 625 578 687 568 690 562 688 562 674 562 599 570 327 575 281 578 250 598 250 598 228 598 204 533 168 493 168 470 168 453 171 427 180L429 201C480 206 507 215 508 240 514 336 508 605 503 662 500 702 489 707 489 726 489 745 529 793 551 793ZM46 810L63 831C245 717 338 557 371 404 376 379 395 372 395 351 395 321 324 283 289 280 267 278 246 283 231 287L231 308C255 314 306 326 306 357 306 478 205 686 46 810Z"/>
</svg>