<svg xmlns="http://www.w3.org/2000/svg" name="gid1379" data-unicode="ワ"
    viewBox="0 0 1000 1000">
  <!--
© 2017-2024 Adobe (http://www.adobe.com/).
Noto is a trademark of Google Inc.
This Font Software is licensed under the SIL Open Font License, Version 1.1. This Font Software is distributed on an "AS IS" BASIS, WITHOUT WARRANTIES OR CONDITIONS OF ANY KIND, either express or implied. See the SIL Open Font License for the specific language, permissions and limitations governing your use of this Font Software.
http://scripts.sil.org/OFL
  -->
<path d="M282 590C310 590 313 566 311 537 309 492 295 347 290 291 306 300 321 306 335 306 359 306 418 292 493 284 568 276 696 265 737 265 747 265 749 269 748 277 700 523 524 747 288 886L303 909C554 794 737 589 816 327 821 308 858 293 858 275 858 253 797 197 768 197 752 197 732 216 713 218 616 229 379 249 286 253 284 248 282 244 278 240 247 209 210 189 165 172L151 188C193 226 211 255 220 287 230 324 237 390 239 430 241 464 237 484 237 510 237 534 250 590 282 590Z"/>
</svg>