<svg xmlns="http://www.w3.org/2000/svg"
    viewBox="0 0 1000 1000">
  <!--
© 2017-2024 Adobe (http://www.adobe.com/).
Noto is a trademark of Google Inc.
This Font Software is licensed under the SIL Open Font License, Version 1.1. This Font Software is distributed on an "AS IS" BASIS, WITHOUT WARRANTIES OR CONDITIONS OF ANY KIND, either express or implied. See the SIL Open Font License for the specific language, permissions and limitations governing your use of this Font Software.
http://scripts.sil.org/OFL
  -->
<path d="M284 617L292 647 563 647C535 752 465 841 285 913L297 930C516 860 597 765 630 647L636 647C662 742 724 861 898 928 903 892 923 882 955 878L957 866C774 811 692 727 656 647L935 647C949 647 959 642 962 631 928 600 874 557 874 557L826 617 637 617C647 572 650 523 653 472L883 472C897 472 906 467 909 456 877 426 825 385 825 385L779 443 471 443C483 425 493 406 503 386 524 388 536 380 540 369L452 335 452 305 802 305 802 350 812 350C833 350 866 334 867 327L867 108C887 104 902 95 909 88L828 26 792 66 456 66 386 35 386 356 396 356C414 356 432 350 442 344 413 440 364 527 312 581L326 592C371 564 415 523 451 472L582 472C580 523 578 571 570 617ZM452 276L452 95 802 95 802 276ZM255 13C205 202 117 391 33 510L47 520C90 478 131 427 169 370L169 928 181 928C206 928 233 911 235 906L235 309C251 307 261 300 264 291L225 276C261 211 293 139 320 65 342 66 354 57 358 45Z"/>
</svg>