<svg xmlns="http://www.w3.org/2000/svg" name="gid2204" data-unicode="㖨"
    viewBox="0 0 1000 1000">
  <!--
© 2017-2024 Adobe (http://www.adobe.com/).
Noto is a trademark of Google Inc.
This Font Software is licensed under the SIL Open Font License, Version 1.1. This Font Software is distributed on an "AS IS" BASIS, WITHOUT WARRANTIES OR CONDITIONS OF ANY KIND, either express or implied. See the SIL Open Font License for the specific language, permissions and limitations governing your use of this Font Software.
http://scripts.sil.org/OFL
  -->
<path d="M382 488L371 495C407 534 447 599 454 651 513 702 571 571 382 488ZM257 186L257 593 139 593 139 186ZM78 157L78 748 89 748C115 748 139 733 139 725L139 623 257 623 257 702 266 702C287 702 318 686 319 680L319 198C339 194 355 187 362 179L283 117 247 157 144 157 78 126ZM855 478C827 520 779 589 741 637 710 589 684 530 667 456L943 456C957 456 965 451 968 440 938 410 888 369 888 369L843 427 746 427 807 177C826 176 835 173 842 165L774 107 740 142 535 142 552 84C578 83 587 73 591 60L495 46C480 117 429 285 396 357 422 367 447 367 461 358L476 318 707 318 679 427 326 427 334 456 594 456 594 665C463 727 334 787 282 807L327 883C337 878 343 868 344 856 449 786 534 726 594 685L594 862C594 876 589 882 570 882 549 882 447 874 447 874L447 889C493 895 519 902 534 913 547 923 553 940 554 958 644 950 656 914 656 864L656 473C698 698 787 803 916 884 925 854 943 834 967 829L969 819C888 784 811 735 752 653 800 618 862 569 898 539 916 544 926 542 931 534ZM526 171L744 171 714 289 487 289Z"/>
</svg>