<svg xmlns="http://www.w3.org/2000/svg" name="gid2224" data-unicode="㟨"
    viewBox="0 0 1000 1000">
  <!--
© 2017-2024 Adobe (http://www.adobe.com/).
Noto is a trademark of Google Inc.
This Font Software is licensed under the SIL Open Font License, Version 1.1. This Font Software is distributed on an "AS IS" BASIS, WITHOUT WARRANTIES OR CONDITIONS OF ANY KIND, either express or implied. See the SIL Open Font License for the specific language, permissions and limitations governing your use of this Font Software.
http://scripts.sil.org/OFL
  -->
<path d="M186 66L186 706 129 706 129 257C154 254 163 245 166 231L75 220 75 859 86 859C106 859 129 847 129 838L129 735 303 735 303 806 314 806C334 806 358 793 358 784L358 252C380 249 389 240 391 227L303 217 303 706 243 706 243 103C265 99 273 90 275 76ZM634 42L634 278 494 278 494 132C519 128 528 118 531 105L432 95 432 372 444 372C468 372 494 359 494 352L494 308 843 308 843 350 854 350C878 350 904 337 904 330L904 130C928 126 938 117 940 104L843 94 843 278 698 278 698 76C719 72 727 64 729 51ZM415 563L415 955 425 955C450 955 474 940 474 934L474 591 564 591 564 936 573 936C601 936 620 923 620 919L620 591 713 591 713 936 722 936C750 936 768 922 768 917L768 591 859 591 859 862C859 873 856 877 845 877 834 877 791 874 791 874L791 890C814 894 826 900 834 910 842 921 844 938 846 957 912 949 920 920 920 869L920 602C938 598 953 590 959 583L881 525 850 563 626 563C648 528 674 481 694 443L936 443C951 443 960 438 963 427 930 397 878 358 878 358L833 414 387 414 395 443 622 443C614 480 602 526 592 563L480 563 415 532Z"/>
</svg>