<svg xmlns="http://www.w3.org/2000/svg" name="gid2228" data-unicode="㠯"
    viewBox="0 0 1000 1000">
  <!--
© 2017-2024 Adobe (http://www.adobe.com/).
Noto is a trademark of Google Inc.
This Font Software is licensed under the SIL Open Font License, Version 1.1. This Font Software is distributed on an "AS IS" BASIS, WITHOUT WARRANTIES OR CONDITIONS OF ANY KIND, either express or implied. See the SIL Open Font License for the specific language, permissions and limitations governing your use of this Font Software.
http://scripts.sil.org/OFL
  -->
<path d="M767 860L247 860 247 605 767 605ZM247 931L247 890 767 890 767 947 778 947C801 947 833 929 834 922L834 617C854 613 870 605 877 597L795 535 757 576 247 576 247 410 714 410 714 456 724 456C746 456 779 442 780 436L780 155C798 152 813 145 818 138L740 78 705 117 253 117 181 82 181 957 193 957C223 957 247 940 247 931ZM714 146L714 381 247 381 247 146Z"/>
</svg>