<svg xmlns="http://www.w3.org/2000/svg"
    viewBox="0 0 1000 1000">
  <!--
© 2017-2024 Adobe (http://www.adobe.com/).
Noto is a trademark of Google Inc.
This Font Software is licensed under the SIL Open Font License, Version 1.1. This Font Software is distributed on an "AS IS" BASIS, WITHOUT WARRANTIES OR CONDITIONS OF ANY KIND, either express or implied. See the SIL Open Font License for the specific language, permissions and limitations governing your use of this Font Software.
http://scripts.sil.org/OFL
  -->
<path d="M731 238L731 347 274 347 274 238ZM731 209L274 209 274 101 731 101ZM209 73L209 426 220 426C246 426 274 412 274 405L274 376 731 376 731 415 741 415C762 415 796 401 797 395L797 114C817 110 833 102 839 94L757 32 721 73 280 73 209 40ZM464 571L464 650 37 650 45 679 464 679 464 825C464 841 458 846 438 846 414 846 284 837 284 837L284 853C338 860 369 868 387 878 404 889 410 906 414 927 519 917 531 883 531 829L531 679 936 679C951 679 961 674 963 663 929 631 874 589 874 589L825 650 531 650 531 607C550 604 560 598 564 588 653 567 765 534 828 504 850 503 863 501 872 495L800 426 755 466 131 466 140 495 720 495C665 524 590 557 533 578Z"/>
</svg>