<svg xmlns="http://www.w3.org/2000/svg"
    viewBox="0 0 1000 1000">
  <!--
© 2017-2024 Adobe (http://www.adobe.com/).
Noto is a trademark of Google Inc.
This Font Software is licensed under the SIL Open Font License, Version 1.1. This Font Software is distributed on an "AS IS" BASIS, WITHOUT WARRANTIES OR CONDITIONS OF ANY KIND, either express or implied. See the SIL Open Font License for the specific language, permissions and limitations governing your use of this Font Software.
http://scripts.sil.org/OFL
  -->
<path d="M607 584L595 590C628 630 664 696 667 747 722 797 781 672 607 584ZM322 519L331 547 370 547C368 676 362 809 284 914L300 929C410 827 424 688 429 547L490 547 490 927 501 927C523 927 548 913 548 903L548 53C573 49 580 39 583 25L490 14 490 346 409 346 409 106C432 103 441 94 442 81L353 72 353 239 300 189 260 247 233 247 233 46C257 42 265 33 268 19L171 8 171 247 39 247 47 276 158 276C136 422 98 569 35 686L50 699C101 631 141 555 171 474L171 926 184 926C206 926 233 910 233 901L233 360C262 398 292 453 299 495 353 541 405 423 233 336L233 276 347 276 353 275 353 420 364 420C384 420 409 407 409 400L409 376 490 376 490 519ZM793 376L793 520 563 520 571 548 793 548 793 832C793 846 789 851 775 851 758 851 682 844 682 844L682 860C716 865 736 872 748 882 759 893 763 909 765 928 844 919 853 888 853 837L853 548 948 548C962 548 970 544 972 533 950 505 909 466 909 466L875 520 853 520 853 413C877 409 886 401 889 387ZM731 12C698 97 633 202 568 262L580 274C592 266 605 257 617 248 646 272 680 313 690 347 740 380 779 280 628 239 648 222 668 203 687 182 718 202 754 235 767 263 777 267 785 268 792 265 741 348 668 420 572 472L581 486C760 414 863 287 915 142 938 141 949 138 956 130L888 70 848 107 748 107C762 87 775 66 786 47 810 50 817 45 821 35ZM699 170L726 136 850 136C839 170 825 203 809 235 805 210 774 180 699 170Z"/>
</svg>