<svg xmlns="http://www.w3.org/2000/svg"
    viewBox="0 0 1000 1000">
  <!--
© 2017-2024 Adobe (http://www.adobe.com/).
Noto is a trademark of Google Inc.
This Font Software is licensed under the SIL Open Font License, Version 1.1. This Font Software is distributed on an "AS IS" BASIS, WITHOUT WARRANTIES OR CONDITIONS OF ANY KIND, either express or implied. See the SIL Open Font License for the specific language, permissions and limitations governing your use of this Font Software.
http://scripts.sil.org/OFL
  -->
<path d="M445 523L445 928 456 928C483 928 510 913 510 907L510 848 815 848 815 919 825 919C846 919 879 904 880 898L880 565C901 561 918 553 925 545L842 481 806 523 515 523 445 491ZM510 818L510 552 815 552 815 818ZM397 72L406 101 592 101C573 260 513 379 366 470L373 485C556 406 637 285 667 101L851 101C845 254 833 344 813 363 806 370 798 372 781 372 762 372 700 367 665 364L664 381C696 387 732 395 745 405 758 414 761 432 761 450 799 450 832 440 855 421 892 387 908 288 914 108 934 106 946 101 953 93L879 33 842 72ZM305 15C284 61 254 113 216 164 182 121 138 81 81 44L66 58C120 104 160 151 189 201 143 260 89 316 33 360L42 372C104 338 162 294 213 247 228 279 238 312 247 345 202 457 119 575 26 654L36 666C129 611 214 531 264 458 266 490 267 523 267 556 267 668 255 789 224 830 216 841 208 845 191 845 148 845 67 837 67 837L67 855C103 861 131 871 146 881 159 890 164 905 164 928 215 928 250 917 271 889 321 822 333 684 331 555 330 429 312 313 249 211 296 164 334 115 362 71 385 75 393 71 400 60Z"/>
</svg>