<svg xmlns="http://www.w3.org/2000/svg" name="gid2284" data-unicode="㹨"
    viewBox="0 0 1000 1000">
  <!--
© 2017-2024 Adobe (http://www.adobe.com/).
Noto is a trademark of Google Inc.
This Font Software is licensed under the SIL Open Font License, Version 1.1. This Font Software is distributed on an "AS IS" BASIS, WITHOUT WARRANTIES OR CONDITIONS OF ANY KIND, either express or implied. See the SIL Open Font License for the specific language, permissions and limitations governing your use of this Font Software.
http://scripts.sil.org/OFL
  -->
<path d="M627 581L627 855 476 855 476 581ZM627 552L476 552 476 295 627 295ZM691 581L845 581 845 855 691 855ZM691 552L691 295 845 295 845 552ZM414 266L414 957 425 957C453 957 476 942 476 933L476 885 845 885 845 947 855 947C877 947 908 931 909 923L909 307C928 303 945 295 951 287L872 225 835 266 691 266 691 80C712 76 720 67 722 54L627 44 627 266 482 266 414 233ZM305 45C284 91 254 143 216 194 182 151 138 111 81 74L66 88C120 134 160 181 189 231 143 290 89 346 33 390L42 402C104 368 162 324 213 277 228 309 238 342 247 375 202 487 119 605 26 684L36 696C129 641 214 561 264 488 266 520 267 553 267 586 267 698 255 819 224 860 216 871 208 875 191 875 148 875 67 867 67 867L67 885C103 891 131 901 146 911 159 920 164 935 164 958 215 958 250 947 271 919 321 852 333 714 331 585 330 459 312 343 249 241 296 194 334 145 362 101 385 105 393 101 400 90Z"/>
</svg>