<svg xmlns="http://www.w3.org/2000/svg"
    viewBox="0 0 1000 1000">
  <!--
© 2017-2023 Adobe (http://www.adobe.com/).
Noto is a trademark of Google Inc.
This Font Software is licensed under the SIL Open Font License, Version 1.1. This Font Software is distributed on an "AS IS" BASIS, WITHOUT WARRANTIES OR CONDITIONS OF ANY KIND, either express or implied. See the SIL Open Font License for the specific language, permissions and limitations governing your use of this Font Software.
http://scripts.sil.org/OFL
  -->
<path d="M565 133L553 138C576 171 602 225 605 269 657 317 721 208 565 133ZM746 117L736 127C793 165 859 237 874 298 945 345 985 183 746 117ZM556 680L542 684C557 725 565 791 552 841 596 897 671 787 556 680ZM627 668L615 675C645 706 675 761 675 806 727 851 781 732 627 668ZM720 651L710 659C742 681 775 724 782 759 837 796 877 678 720 651ZM482 685C481 745 448 806 417 829 399 843 388 863 398 880 410 898 442 891 461 874 492 847 520 780 499 686ZM415 74C391 181 349 287 303 355L318 365C380 310 435 223 472 127 598 121 732 99 820 78 842 87 860 88 868 79L794 10C729 41 611 78 500 100ZM401 303L401 428C401 579 387 752 280 897L293 910C387 824 430 714 449 611L868 611C861 749 847 827 827 845 820 852 812 853 797 853 778 853 726 849 695 847L695 864C723 868 753 876 764 885 776 895 779 912 779 930 813 930 845 921 868 902 904 871 922 784 930 618 950 615 962 611 967 603L894 544 859 581 851 581 858 474C874 472 883 470 889 463L825 409 795 440 777 440 783 336C799 335 807 332 813 325L750 271 719 303 474 303 401 271ZM726 332L718 440 463 440 463 427 463 332ZM801 470L792 581 453 581C459 542 461 505 462 470ZM253 10C236 53 211 104 180 156 152 118 117 83 74 50L59 62C100 104 132 148 155 194 120 248 79 301 37 343L49 354C95 322 138 283 177 242 190 275 200 310 208 346 179 455 111 578 32 662L43 673C118 620 184 546 223 480L225 558C225 669 215 794 189 833 181 843 174 846 159 846 125 846 57 840 57 840L57 857C87 863 109 872 122 881 133 889 139 904 139 926 185 926 217 915 235 889 279 825 289 686 288 557 286 426 269 307 211 204 251 156 285 108 310 66 334 70 342 66 348 55Z"/>
</svg>