<svg xmlns="http://www.w3.org/2000/svg"
    viewBox="0 0 1000 1000">
  <!--
© 2017-2023 Adobe (http://www.adobe.com/).
Noto is a trademark of Google Inc.
This Font Software is licensed under the SIL Open Font License, Version 1.1. This Font Software is distributed on an "AS IS" BASIS, WITHOUT WARRANTIES OR CONDITIONS OF ANY KIND, either express or implied. See the SIL Open Font License for the specific language, permissions and limitations governing your use of this Font Software.
http://scripts.sil.org/OFL
  -->
<path d="M264 528L264 710 137 710 137 528ZM264 498L137 498 137 320 264 320ZM264 290L137 290 137 123 264 123ZM76 93L76 856 88 856C115 856 137 840 137 832L137 740 264 740 264 809 273 809C296 809 325 792 326 785L326 135C346 131 363 123 369 115L290 52 254 93 142 93 76 61ZM609 13C558 106 455 212 357 272L367 285C397 272 428 257 457 240 482 265 507 302 515 331 570 368 616 268 478 227 503 211 527 193 550 175 582 198 617 234 630 265 688 295 721 187 566 161L590 141 796 141C694 282 544 375 341 443L351 459C404 446 452 432 498 416 473 473 434 533 392 569L404 580C449 557 492 522 527 484L624 484 624 605 367 605 374 633 624 633 624 835 486 835 486 710C510 706 519 697 521 683L426 674 426 929 436 929C459 929 486 914 486 907L486 864 828 864 828 920 839 920C863 920 890 907 890 899L890 707C914 703 923 695 925 681L828 671 828 835 689 835 689 633 938 633C953 633 962 628 965 617 933 588 881 547 881 547L835 605 689 605 689 484 883 484C897 484 906 479 909 468 877 438 826 398 826 398L781 455 552 455 576 422C600 424 607 420 611 410L552 395C694 336 797 255 878 150 902 149 916 146 923 138L848 75 810 111 621 111C639 93 655 75 669 58 694 62 702 59 707 49Z"/>
</svg>