<svg xmlns="http://www.w3.org/2000/svg"
    viewBox="0 0 1000 1000">
  <!--
© 2017-2024 Adobe (http://www.adobe.com/).
Noto is a trademark of Google Inc.
This Font Software is licensed under the SIL Open Font License, Version 1.1. This Font Software is distributed on an "AS IS" BASIS, WITHOUT WARRANTIES OR CONDITIONS OF ANY KIND, either express or implied. See the SIL Open Font License for the specific language, permissions and limitations governing your use of this Font Software.
http://scripts.sil.org/OFL
  -->
<path d="M550 265L829 265 829 397 550 397ZM550 236L550 107 829 107 829 236ZM550 425L829 425 829 559 550 559ZM488 78L488 645 498 645C530 645 550 630 550 625L550 588 590 588C575 738 525 835 377 912L383 927C562 863 637 763 660 588L722 588 722 848C722 891 731 906 789 906L847 906C945 906 969 892 969 866 969 854 966 845 947 838L944 710 931 710C922 763 911 820 905 835 902 843 899 845 892 846 885 847 870 847 849 847L806 847C786 847 784 843 784 832L784 588 829 588 829 634 839 634C870 634 894 618 894 613L894 112C915 109 926 103 934 95L859 36 825 78 562 78 488 46ZM160 13C140 151 96 286 42 377L58 387C100 342 136 284 167 217L226 217 226 393 226 426 41 426 49 455 225 455C218 605 181 766 34 901L45 913C176 829 238 718 266 607 316 657 363 727 373 785 443 839 496 682 273 581 282 538 286 496 288 455L441 455C455 455 465 450 468 439 438 410 389 369 389 369L346 426 289 426 290 392 290 217 433 217C446 217 456 212 459 201 428 171 376 130 376 130L332 187 180 187C196 146 211 103 223 59 245 58 255 49 259 36Z"/>
</svg>