<svg xmlns="http://www.w3.org/2000/svg" name="gid2302" data-unicode="䄅"
    viewBox="0 0 1000 1000">
  <!--
© 2017-2024 Adobe (http://www.adobe.com/).
Noto is a trademark of Google Inc.
This Font Software is licensed under the SIL Open Font License, Version 1.1. This Font Software is distributed on an "AS IS" BASIS, WITHOUT WARRANTIES OR CONDITIONS OF ANY KIND, either express or implied. See the SIL Open Font License for the specific language, permissions and limitations governing your use of this Font Software.
http://scripts.sil.org/OFL
  -->
<path d="M194 61L183 69C220 106 262 170 270 220 335 270 392 131 194 61ZM297 496L305 525 678 525C691 525 701 520 703 510 673 481 624 443 624 443L581 496ZM636 689L626 698C688 749 771 835 798 902 876 949 915 786 636 689ZM288 684C254 753 183 847 110 906L120 919C211 874 296 799 342 741 365 745 373 740 379 730ZM693 53C661 119 621 189 588 232L464 232C486 184 504 135 518 85 539 85 552 79 557 64L449 37C435 102 415 168 387 232L106 232 115 261 374 261C356 298 335 335 311 370L45 370 54 399 290 399C225 484 141 559 30 616L39 628C181 572 285 492 360 399L647 399C717 483 807 549 905 590 911 563 937 546 968 538L970 526C883 501 791 457 714 399L930 399C944 399 953 394 956 383 921 352 867 309 867 309L818 370 678 370C641 337 609 301 585 261L875 261C889 261 898 256 901 245 868 214 814 173 814 173L766 232 619 232C662 201 708 158 748 115 768 118 782 111 787 102ZM450 261L560 261C578 300 600 336 625 370L383 370C409 335 431 299 450 261ZM127 617L135 646 468 646 468 860C468 873 464 878 446 878 424 878 320 870 320 870L320 885C367 891 394 899 408 911 421 921 427 939 428 959 521 950 534 913 534 862L534 646 842 646C856 646 865 642 868 631 835 600 783 560 783 560L736 617Z"/>
</svg>