<svg xmlns="http://www.w3.org/2000/svg"
    viewBox="0 0 1000 1000">
  <!--
© 2017-2023 Adobe (http://www.adobe.com/).
Noto is a trademark of Google Inc.
This Font Software is licensed under the SIL Open Font License, Version 1.1. This Font Software is distributed on an "AS IS" BASIS, WITHOUT WARRANTIES OR CONDITIONS OF ANY KIND, either express or implied. See the SIL Open Font License for the specific language, permissions and limitations governing your use of this Font Software.
http://scripts.sil.org/OFL
  -->
<path d="M504 51C532 51 545 46 550 35L435 7C367 102 230 215 70 281L79 294C138 278 194 256 245 231 281 263 320 312 331 352 396 394 445 269 266 221 304 202 339 181 372 159 414 185 464 233 480 274 549 309 583 175 388 148L416 127 718 127C566 298 340 404 42 478L50 495C143 479 228 458 306 434 268 485 211 544 158 582L166 594C223 570 283 536 332 502L464 502 464 627 55 627 63 656 464 656 464 836 227 836 227 729C251 725 261 716 263 702L163 692 163 927 175 927C199 927 227 913 227 906L227 866 769 866 769 923 781 923C806 923 834 910 834 903L834 727C858 723 867 714 870 700L769 690 769 836 529 836 529 656 929 656C943 656 952 651 955 640 923 611 872 571 872 571L826 627 529 627 529 502 816 502C830 502 838 497 841 487 809 456 760 419 760 419L716 474 369 474 402 445C430 446 443 440 448 428L385 407C561 343 696 254 803 139 828 138 844 135 852 127L776 60 735 98 453 98C471 82 488 67 504 51Z"/>
</svg>