<svg xmlns="http://www.w3.org/2000/svg"
    viewBox="0 0 1000 1000">
  <!--
© 2017-2023 Adobe (http://www.adobe.com/).
Noto is a trademark of Google Inc.
This Font Software is licensed under the SIL Open Font License, Version 1.1. This Font Software is distributed on an "AS IS" BASIS, WITHOUT WARRANTIES OR CONDITIONS OF ANY KIND, either express or implied. See the SIL Open Font License for the specific language, permissions and limitations governing your use of this Font Software.
http://scripts.sil.org/OFL
  -->
<path d="M420 508L410 517C464 557 537 627 563 680 642 720 676 566 420 508ZM698 721L689 731C759 776 856 858 893 920 976 956 1000 792 698 721ZM373 841L428 923C438 919 444 908 445 896 531 830 596 775 640 739L635 727C527 777 419 825 373 841ZM853 493C803 564 742 633 696 674L707 687C767 660 839 616 901 566 921 574 936 568 942 559ZM166 98L291 98 291 293 166 293ZM104 69L104 379C104 561 103 762 36 920L52 929C128 824 154 687 162 557L291 557 291 825C291 840 286 846 268 846 250 846 162 839 162 839L162 855C201 861 224 868 236 879 249 890 253 908 256 927 343 919 353 885 353 833L353 108C371 104 385 96 391 89L312 29 281 69 179 69 104 36ZM166 322L291 322 291 528 163 528C166 476 166 425 166 378ZM629 12C626 59 620 107 609 153L409 153 418 182 601 182C569 296 506 401 391 472L401 484C551 414 627 303 666 182L855 182C843 299 821 372 799 390 790 397 782 399 765 399 747 399 690 394 659 392L658 408C688 413 717 420 729 430 741 439 744 456 744 473 779 473 812 465 836 446 875 416 903 331 914 189 934 187 947 182 954 175L883 116 847 153 675 153C684 120 691 86 696 52 716 51 728 43 732 27Z"/>
</svg>