<svg xmlns="http://www.w3.org/2000/svg"
    viewBox="0 0 1000 1000">
  <!--
© 2017-2023 Adobe (http://www.adobe.com/).
Noto is a trademark of Google Inc.
This Font Software is licensed under the SIL Open Font License, Version 1.1. This Font Software is distributed on an "AS IS" BASIS, WITHOUT WARRANTIES OR CONDITIONS OF ANY KIND, either express or implied. See the SIL Open Font License for the specific language, permissions and limitations governing your use of this Font Software.
http://scripts.sil.org/OFL
  -->
<path d="M45 132L52 160 311 160 311 268 321 268C348 268 376 259 376 250L376 160 622 160 622 266 633 266C665 265 687 252 687 245L687 160 932 160C946 160 957 155 959 145 928 115 873 71 873 71L825 132 687 132 687 49C712 46 721 36 722 22L622 12 622 132 376 132 376 49C401 46 409 36 411 22L311 12 311 132ZM818 425C777 477 703 556 633 614 588 550 554 474 533 387L932 387C945 387 955 382 958 371 923 340 868 298 868 298L818 357 531 357 531 247C554 243 562 234 564 221L465 212 465 357 42 357 51 387 432 387C343 505 201 612 35 680L43 696C131 669 212 634 285 592L285 822C216 835 159 846 123 851L166 931C175 928 183 920 187 908 377 851 515 805 617 769L613 752 350 808 350 551C414 507 469 456 513 400 567 660 691 821 897 914 909 883 933 865 962 863L964 853C832 808 725 736 648 634 730 590 815 533 868 491 891 497 899 493 907 484Z"/>
</svg>