<svg xmlns="http://www.w3.org/2000/svg"
    viewBox="0 0 1000 1000">
  <!--
© 2017-2023 Adobe (http://www.adobe.com/).
Noto is a trademark of Google Inc.
This Font Software is licensed under the SIL Open Font License, Version 1.1. This Font Software is distributed on an "AS IS" BASIS, WITHOUT WARRANTIES OR CONDITIONS OF ANY KIND, either express or implied. See the SIL Open Font License for the specific language, permissions and limitations governing your use of this Font Software.
http://scripts.sil.org/OFL
  -->
<path d="M42 111L49 140 303 140 303 221 314 221C340 221 368 212 368 205L368 140 624 140 624 218 635 218C668 217 689 207 689 200L689 140 929 140C943 140 953 135 956 124 924 94 871 53 871 53L824 111 689 111 689 46C713 42 722 33 724 19L624 9 624 111 368 111 368 46C392 42 401 33 403 20L303 9 303 111ZM225 538L234 567 297 567C214 607 127 642 39 670L46 686C167 657 284 616 392 567L656 567C621 588 576 611 538 628L479 621 479 703 100 703 108 732 479 732 479 835C479 849 475 854 458 854 438 854 338 847 338 847L338 862C381 868 405 875 420 885 433 895 438 912 441 931 534 922 545 891 545 838L545 732 915 732C929 732 939 727 942 716 908 684 854 642 854 642L806 703 545 703 545 657C564 653 573 648 576 637 641 621 716 598 759 575 780 574 793 573 801 566L731 499 688 538 454 538C509 511 561 482 610 452L930 452C944 452 954 447 957 436 922 406 868 362 868 362L819 423 655 423C735 370 803 314 856 259 878 270 889 268 898 260L819 192C790 227 755 262 716 297 684 267 633 228 633 228L586 287 474 287 474 236C497 232 505 223 507 211L409 201 409 287 142 287 150 317 409 317 409 423 44 423 53 452 507 452C459 482 408 511 356 538ZM474 317L693 317C650 353 603 389 551 423L474 423Z"/>
</svg>