<svg xmlns="http://www.w3.org/2000/svg"
    viewBox="0 0 1000 1000">
  <!--
© 2017-2024 Adobe (http://www.adobe.com/).
Noto is a trademark of Google Inc.
This Font Software is licensed under the SIL Open Font License, Version 1.1. This Font Software is distributed on an "AS IS" BASIS, WITHOUT WARRANTIES OR CONDITIONS OF ANY KIND, either express or implied. See the SIL Open Font License for the specific language, permissions and limitations governing your use of this Font Software.
http://scripts.sil.org/OFL
  -->
<path d="M421 271L429 299 575 299C588 299 597 294 600 284 575 260 536 228 536 228L501 271ZM390 364L398 394 569 394C583 394 592 389 595 378 569 353 529 322 529 322L494 364ZM708 364L716 394 893 394C905 394 914 389 917 378 892 353 850 321 850 321L815 364ZM333 388C310 424 287 458 268 484 255 478 240 471 224 466L224 461C274 390 312 315 338 244L347 243C308 306 437 333 438 203L620 203 620 382 617 381C567 472 447 583 332 645L339 659C392 637 444 608 492 575L499 601 747 601C760 601 769 596 771 585 745 559 703 528 703 528L666 571 498 571C563 526 619 476 656 429 714 520 814 597 925 646 929 623 944 603 965 598L967 584C849 552 739 490 671 420 694 419 702 413 704 404L641 387C665 384 681 373 681 369L681 203 867 203 856 268 809 228 774 271 702 271 710 299 848 299C860 299 869 295 872 287 890 267 916 233 932 213 950 212 962 211 968 203L898 134 861 173 681 173 681 95 897 95C910 95 919 90 922 80 891 51 840 12 840 12L796 66 412 66 420 95 620 95 620 173 436 173 431 143 414 142C409 179 392 207 370 225L310 170 269 209 225 209 225 49C248 46 259 36 261 22L164 12 164 209 42 209 51 238 270 238C227 375 136 531 30 634L43 647C88 614 129 576 165 535L165 929 174 929C203 929 224 914 224 909L224 485C263 522 309 577 324 620 376 655 415 567 291 496 312 478 336 456 357 436 375 442 389 435 394 426ZM384 665L393 694 575 694 575 929 584 929C617 929 638 915 638 911L638 694 811 694 811 789C811 802 808 807 792 807 773 807 691 801 691 801L691 817C729 821 750 830 762 839 773 849 777 865 780 882 861 873 870 844 870 797L870 705C890 702 906 693 912 686L831 628 801 665Z"/>
</svg>