<svg xmlns="http://www.w3.org/2000/svg"
    viewBox="0 0 1000 1000">
  <!--
© 2017-2024 Adobe (http://www.adobe.com/).
Noto is a trademark of Google Inc.
This Font Software is licensed under the SIL Open Font License, Version 1.1. This Font Software is distributed on an "AS IS" BASIS, WITHOUT WARRANTIES OR CONDITIONS OF ANY KIND, either express or implied. See the SIL Open Font License for the specific language, permissions and limitations governing your use of this Font Software.
http://scripts.sil.org/OFL
  -->
<path d="M756 673L746 681C803 727 877 806 897 869 970 917 1013 762 756 673ZM494 664C471 729 418 815 356 867L368 880C444 839 510 771 546 715 570 718 577 714 583 703ZM79 202L68 210C100 241 139 295 147 339 203 381 253 262 79 202ZM207 145L195 152C224 177 254 221 261 256 315 296 366 187 207 145ZM305 11C252 67 136 145 36 187L43 203C154 172 275 114 342 67 366 72 380 70 387 60ZM860 168C847 192 821 232 797 263 767 231 742 196 723 159L934 159C948 159 958 154 961 144 929 113 878 74 878 74L832 130 659 130C669 105 678 80 685 54 710 54 717 49 720 38L614 19C607 57 598 94 585 130L375 130 383 159 575 159C561 194 544 228 524 260 523 234 496 198 421 177L410 184C433 209 462 251 468 285 480 294 492 297 502 294 461 351 410 401 349 438L360 450C395 434 427 415 457 393L457 660 468 660C499 660 520 644 520 639L520 618 630 618 630 837C630 848 626 854 612 854 596 854 525 848 525 848L525 863C560 867 578 874 590 885 600 895 603 913 604 931 684 922 695 887 695 838L695 618 809 618 809 655 819 655C839 655 871 640 872 633L872 411C886 423 900 433 914 443 923 415 941 398 966 396L967 385C913 361 859 324 814 279 848 262 884 242 904 228 924 234 937 226 942 219ZM646 159L700 159C723 230 761 294 808 348L800 357 532 357 511 348C569 294 613 230 646 159ZM630 589L520 589 520 501 809 501 809 589ZM520 472L520 387 809 387 809 472ZM364 200C298 282 164 380 38 438L47 452C116 431 184 400 245 367 256 385 266 405 274 425 218 488 126 555 43 595L51 611C135 581 228 533 295 486 301 507 306 529 309 551 244 636 136 722 37 773L45 789C140 752 241 692 317 631 320 727 301 809 273 842 265 852 256 853 242 853 219 853 146 849 105 845L106 862C142 868 178 877 189 885 200 895 206 907 205 928 263 928 297 918 318 894 396 815 414 534 263 357 320 324 369 289 404 255 427 262 435 259 443 249Z"/>
</svg>