<svg xmlns="http://www.w3.org/2000/svg"
    viewBox="0 0 1000 1000">
  <!--
© 2017-2023 Adobe (http://www.adobe.com/).
Noto is a trademark of Google Inc.
This Font Software is licensed under the SIL Open Font License, Version 1.1. This Font Software is distributed on an "AS IS" BASIS, WITHOUT WARRANTIES OR CONDITIONS OF ANY KIND, either express or implied. See the SIL Open Font License for the specific language, permissions and limitations governing your use of this Font Software.
http://scripts.sil.org/OFL
  -->
<path d="M344 703L380 774C389 771 397 765 402 753L501 712C507 728 510 743 512 757 561 802 617 702 475 619L462 625C472 642 483 665 493 688L421 696C442 655 460 610 472 575 494 575 505 565 508 553L420 535C415 583 404 648 392 699ZM692 379L692 545 590 545 590 379ZM753 379L855 379 855 545 753 545ZM692 350L590 350 590 197 692 197ZM753 350L753 197 855 197 855 350ZM533 167L533 625 543 625C568 625 590 611 590 605L590 573 692 573 692 809 704 809C727 809 753 795 753 786L753 573 855 573 855 617 863 617C883 617 912 602 913 595L913 208C932 204 949 196 955 188L880 130 845 167 753 167 753 53C777 49 785 38 788 24L692 14 692 167 595 167 533 138ZM247 10L222 141 148 141 85 111 85 531 94 531C119 531 143 517 143 511L143 493 167 493C164 664 140 800 32 915L40 928C179 824 221 685 232 493L282 493 282 826C282 890 310 903 429 903L641 903C921 903 962 896 962 862 962 848 954 841 927 834L923 732 912 732C898 783 888 817 878 832 871 840 864 844 845 845 815 848 738 849 643 849L428 849C350 849 342 842 342 817L342 493 406 493 406 521 415 521C435 521 465 505 466 498L466 181C485 177 501 169 507 161L430 103 396 141 255 141C273 113 294 79 309 52 330 51 342 43 345 30ZM406 465L302 465 302 331 406 331ZM406 301L302 301 302 170 406 170ZM143 465L143 331 244 331 244 465ZM143 301L143 170 244 170 244 301Z"/>
</svg>