<svg xmlns="http://www.w3.org/2000/svg" name="gid2390" data-unicode="万"
    viewBox="0 0 1000 1000">
  <!--
© 2017-2024 Adobe (http://www.adobe.com/).
Noto is a trademark of Google Inc.
This Font Software is licensed under the SIL Open Font License, Version 1.1. This Font Software is distributed on an "AS IS" BASIS, WITHOUT WARRANTIES OR CONDITIONS OF ANY KIND, either express or implied. See the SIL Open Font License for the specific language, permissions and limitations governing your use of this Font Software.
http://scripts.sil.org/OFL
  -->
<path d="M47 158L55 187 363 187C359 436 344 718 48 944L63 961C303 812 387 625 418 433L725 433C711 640 684 816 648 848 635 859 625 862 604 862 578 862 485 853 431 847L430 865C478 872 532 884 551 896 566 907 572 925 572 945 622 945 663 932 694 904 745 855 777 669 790 442 811 440 825 434 832 427L755 362 716 404 423 404C433 332 437 259 439 187L928 187C942 187 952 182 955 171 919 139 862 95 862 95L811 158Z"/>
</svg>