<svg xmlns="http://www.w3.org/2000/svg" name="gid2398" data-unicode="丏"
    viewBox="0 0 1000 1000">
  <!--
© 2017-2024 Adobe (http://www.adobe.com/).
Noto is a trademark of Google Inc.
This Font Software is licensed under the SIL Open Font License, Version 1.1. This Font Software is distributed on an "AS IS" BASIS, WITHOUT WARRANTIES OR CONDITIONS OF ANY KIND, either express or implied. See the SIL Open Font License for the specific language, permissions and limitations governing your use of this Font Software.
http://scripts.sil.org/OFL
  -->
<path d="M71 128L80 158 462 158 462 589 241 589 241 304C265 301 274 291 276 278L174 267 174 732 187 732C212 732 241 718 241 711L241 618 794 618C782 749 765 839 741 860 730 870 722 873 701 873 677 873 595 866 544 861L543 878C587 885 636 896 653 908 669 919 673 938 673 958 722 958 762 945 791 914 839 864 864 665 874 388 896 385 908 380 915 372L838 307 799 349 528 349 528 158 907 158C921 158 931 153 934 142 898 110 841 66 841 66L791 128ZM808 379C805 456 801 526 796 589L528 589 528 379Z"/>
</svg>