<svg xmlns="http://www.w3.org/2000/svg" name="gid2399" data-unicode="丐"
    viewBox="0 0 1000 1000">
  <!--
© 2017-2024 Adobe (http://www.adobe.com/).
Noto is a trademark of Google Inc.
This Font Software is licensed under the SIL Open Font License, Version 1.1. This Font Software is distributed on an "AS IS" BASIS, WITHOUT WARRANTIES OR CONDITIONS OF ANY KIND, either express or implied. See the SIL Open Font License for the specific language, permissions and limitations governing your use of this Font Software.
http://scripts.sil.org/OFL
  -->
<path d="M210 263C205 349 175 549 154 631 184 639 212 637 225 626L236 561 808 561C794 718 766 840 735 865 723 875 713 877 693 877 671 877 586 869 538 865L537 883C580 889 627 899 643 910 659 920 664 939 664 958 710 958 749 946 777 923 825 884 859 748 873 570 895 568 907 562 914 555L838 492 800 532 528 532 528 356 839 356C853 356 864 351 866 340 831 309 775 265 775 265L726 326 528 326 528 158 907 158C921 158 931 153 934 142 898 110 841 66 841 66L791 128 71 128 80 158 462 158 462 532 241 532C254 448 267 351 272 301 297 298 306 288 309 274Z"/>
</svg>