<svg xmlns="http://www.w3.org/2000/svg" name="gid2407" data-unicode="丙"
    viewBox="0 0 1000 1000">
  <!--
© 2017-2024 Adobe (http://www.adobe.com/).
Noto is a trademark of Google Inc.
This Font Software is licensed under the SIL Open Font License, Version 1.1. This Font Software is distributed on an "AS IS" BASIS, WITHOUT WARRANTIES OR CONDITIONS OF ANY KIND, either express or implied. See the SIL Open Font License for the specific language, permissions and limitations governing your use of this Font Software.
http://scripts.sil.org/OFL
  -->
<path d="M43 129L52 159 460 159 460 288 459 321 195 321 123 288 123 958 134 958C163 958 188 941 188 933L188 351 457 351C447 481 399 617 225 730L235 744C385 675 459 582 494 488 568 550 659 646 685 721 762 770 796 602 501 468 513 428 519 389 522 351L805 351 805 856C805 872 800 879 778 879 750 879 625 870 625 870L625 886C680 892 710 901 729 911 744 921 750 937 754 957 858 948 871 913 871 862L871 364C891 360 907 351 914 344L829 280 795 321 524 321 525 288 525 159 932 159C946 159 956 154 958 143 922 110 865 67 865 67L813 129Z"/>
</svg>