<svg xmlns="http://www.w3.org/2000/svg"
    viewBox="0 0 1000 1000">
  <!--
© 2017-2024 Adobe (http://www.adobe.com/).
Noto is a trademark of Google Inc.
This Font Software is licensed under the SIL Open Font License, Version 1.1. This Font Software is distributed on an "AS IS" BASIS, WITHOUT WARRANTIES OR CONDITIONS OF ANY KIND, either express or implied. See the SIL Open Font License for the specific language, permissions and limitations governing your use of this Font Software.
http://scripts.sil.org/OFL
  -->
<path d="M465 17L465 205C353 240 237 268 131 290L138 308C244 296 356 277 465 252L465 413C364 446 260 471 164 491L170 511C266 499 367 481 465 459L465 638C343 674 218 701 98 723L102 742C223 729 345 710 465 684L465 928 478 928C502 928 531 912 531 902L531 668C641 641 748 606 849 561 871 571 884 572 894 563L822 492C732 542 633 583 531 617L531 442C619 420 704 392 782 360 802 368 814 368 824 360L752 295C684 332 609 364 531 391L531 236C612 215 691 191 764 163 783 173 796 172 806 165L734 98C671 130 603 158 531 183L531 55C557 51 564 41 567 27Z"/>
</svg>