<svg xmlns="http://www.w3.org/2000/svg"
    viewBox="0 0 1000 1000">
  <!--
© 2017-2024 Adobe (http://www.adobe.com/).
Noto is a trademark of Google Inc.
This Font Software is licensed under the SIL Open Font License, Version 1.1. This Font Software is distributed on an "AS IS" BASIS, WITHOUT WARRANTIES OR CONDITIONS OF ANY KIND, either express or implied. See the SIL Open Font License for the specific language, permissions and limitations governing your use of this Font Software.
http://scripts.sil.org/OFL
  -->
<path d="M412 16C327 221 186 412 61 522L74 534C228 437 374 280 479 81 501 85 513 77 519 66ZM562 261C490 417 368 625 255 781L116 785 166 881C176 879 186 871 192 859 456 827 646 802 784 778 812 821 834 863 845 901 938 965 980 742 603 552L591 560C649 611 716 682 768 755 587 765 416 774 286 779 416 639 548 458 622 328 644 332 658 326 663 316Z"/>
</svg>