<svg xmlns="http://www.w3.org/2000/svg"
    viewBox="0 0 1000 1000">
  <!--
© 2017-2024 Adobe (http://www.adobe.com/).
Noto is a trademark of Google Inc.
This Font Software is licensed under the SIL Open Font License, Version 1.1. This Font Software is distributed on an "AS IS" BASIS, WITHOUT WARRANTIES OR CONDITIONS OF ANY KIND, either express or implied. See the SIL Open Font License for the specific language, permissions and limitations governing your use of this Font Software.
http://scripts.sil.org/OFL
  -->
<path d="M464 29L464 243 96 243 105 272 746 272C643 438 449 619 264 737 248 719 233 698 220 673L260 615 215 600 197 666C156 714 85 786 42 824L113 889C121 881 123 867 114 853 139 814 182 740 211 689 290 862 402 897 620 897 692 897 852 897 917 897 919 872 932 851 959 846L959 831C878 834 699 834 623 834 458 834 352 822 278 752 510 637 712 456 829 282 854 281 865 279 874 270L800 200 752 243 530 243 530 67C555 64 565 54 567 40Z"/>
</svg>