<svg xmlns="http://www.w3.org/2000/svg"
    viewBox="0 0 1000 1000">
  <!--
© 2017-2024 Adobe (http://www.adobe.com/).
Noto is a trademark of Google Inc.
This Font Software is licensed under the SIL Open Font License, Version 1.1. This Font Software is distributed on an "AS IS" BASIS, WITHOUT WARRANTIES OR CONDITIONS OF ANY KIND, either express or implied. See the SIL Open Font License for the specific language, permissions and limitations governing your use of this Font Software.
http://scripts.sil.org/OFL
  -->
<path d="M39 393L48 422 466 422 466 826C466 842 459 848 437 848 410 848 270 838 270 838L270 853C330 860 363 869 383 880 399 891 408 909 410 929 517 920 532 882 532 829L532 422 834 422C794 488 724 577 672 631L684 641C763 589 870 500 923 435 945 434 958 431 965 424L886 347 839 393 598 393C622 375 616 317 527 262 621 226 743 171 809 126 833 125 845 123 854 116L775 41 727 86 154 86 163 114 707 114C654 158 572 213 508 251 463 227 400 205 316 188L310 204C437 260 526 342 558 393Z"/>
</svg>