<svg xmlns="http://www.w3.org/2000/svg"
    viewBox="0 0 1000 1000">
  <!--
© 2017-2023 Adobe (http://www.adobe.com/).
Noto is a trademark of Google Inc.
This Font Software is licensed under the SIL Open Font License, Version 1.1. This Font Software is distributed on an "AS IS" BASIS, WITHOUT WARRANTIES OR CONDITIONS OF ANY KIND, either express or implied. See the SIL Open Font License for the specific language, permissions and limitations governing your use of this Font Software.
http://scripts.sil.org/OFL
  -->
<path d="M335 9C281 133 167 271 51 349L62 361C164 311 260 230 332 145L564 145C541 189 505 248 471 289L202 288 211 317 452 317 452 454 40 454 49 483 452 483 452 627 140 627 149 656 452 656 452 827C452 843 445 849 422 849 395 849 258 840 258 840L258 855C317 862 351 870 369 882 386 891 394 909 397 928 503 919 518 881 518 830L518 656 744 656 744 730 754 730C776 730 809 715 810 708L810 483 944 483C958 483 967 479 969 468 938 436 884 394 884 394L838 454 810 454 810 329C829 325 844 317 851 310L771 248 734 288 499 288C553 250 611 192 649 154 669 152 681 150 689 144L612 72 568 115 356 115C372 94 387 72 400 51 425 54 434 50 438 40ZM744 483L744 627 518 627 518 483ZM744 454L518 454 518 317 744 317Z"/>
</svg>