<svg xmlns="http://www.w3.org/2000/svg" name="gid2475" data-unicode="事"
    viewBox="0 0 1000 1000">
  <!--
© 2017-2024 Adobe (http://www.adobe.com/).
Noto is a trademark of Google Inc.
This Font Software is licensed under the SIL Open Font License, Version 1.1. This Font Software is distributed on an "AS IS" BASIS, WITHOUT WARRANTIES OR CONDITIONS OF ANY KIND, either express or implied. See the SIL Open Font License for the specific language, permissions and limitations governing your use of this Font Software.
http://scripts.sil.org/OFL
  -->
<path d="M183 254L183 464 193 464C220 464 249 450 249 444L249 412 465 412 465 505 160 505 168 534 465 534 465 627 42 627 51 655 465 655 465 749 154 749 163 778 465 778 465 858C465 875 458 882 436 882 413 882 288 873 288 873L288 889C341 895 371 903 389 913 405 924 411 940 415 959 518 950 530 914 530 862L530 778 751 778 751 833 761 833C782 833 814 817 815 810L815 655 941 655C955 655 965 650 967 640 936 609 884 567 884 567L839 627 815 627 815 546C834 542 850 534 857 526L777 466 742 505 530 505 530 412 748 412 748 447 758 447C780 447 813 433 814 427L814 295C833 291 848 283 855 275L774 215 738 254 530 254 530 175 929 175C943 175 954 170 956 159 920 126 863 83 863 83L812 145 530 145 530 80C555 77 565 67 567 53L465 42 465 145 44 145 53 175 465 175 465 254 254 254 183 223ZM530 655L751 655 751 749 530 749ZM530 627L530 534 751 534 751 627ZM465 283L465 383 249 383 249 283ZM530 283L748 283 748 383 530 383Z"/>
</svg>