<svg xmlns="http://www.w3.org/2000/svg"
    viewBox="0 0 1000 1000">
  <!--
© 2017-2024 Adobe (http://www.adobe.com/).
Noto is a trademark of Google Inc.
This Font Software is licensed under the SIL Open Font License, Version 1.1. This Font Software is distributed on an "AS IS" BASIS, WITHOUT WARRANTIES OR CONDITIONS OF ANY KIND, either express or implied. See the SIL Open Font License for the specific language, permissions and limitations governing your use of this Font Software.
http://scripts.sil.org/OFL
  -->
<path d="M145 424L154 453 362 453C332 591 300 732 273 835L38 835 47 865 936 865C951 865 961 860 964 849 928 815 869 768 869 768L818 835 745 835 745 465C766 461 781 453 788 445L708 383 670 424 435 424C456 327 476 232 491 155L876 155C891 155 900 151 902 140 868 107 810 62 810 62L758 127 101 127 110 155 422 155C408 232 389 326 368 424ZM341 835C367 733 399 592 429 453L680 453 680 835Z"/>
</svg>