<svg xmlns="http://www.w3.org/2000/svg"
    viewBox="0 0 1000 1000">
  <!--
© 2017-2024 Adobe (http://www.adobe.com/).
Noto is a trademark of Google Inc.
This Font Software is licensed under the SIL Open Font License, Version 1.1. This Font Software is distributed on an "AS IS" BASIS, WITHOUT WARRANTIES OR CONDITIONS OF ANY KIND, either express or implied. See the SIL Open Font License for the specific language, permissions and limitations governing your use of this Font Software.
http://scripts.sil.org/OFL
  -->
<path d="M77 241L86 271 311 271 311 451C311 475 310 498 309 520L44 520 53 549 307 549C292 703 236 825 96 917L107 931C284 842 353 711 372 549L628 549 628 927 641 927C666 927 695 911 695 901L695 549 939 549C953 549 963 545 966 534 931 501 875 457 875 457L824 520 695 520 695 271 907 271C921 271 931 266 934 255 900 223 846 181 846 181L798 241 695 241 695 55C720 51 728 41 730 27L628 16 628 241 377 241 377 56C401 52 409 42 411 28L311 18 311 241ZM374 520C376 498 377 475 377 451L377 271 628 271 628 520Z"/>
</svg>