<svg xmlns="http://www.w3.org/2000/svg" name="gid2493" data-unicode="亡"
    viewBox="0 0 1000 1000">
  <!--
© 2017-2024 Adobe (http://www.adobe.com/).
Noto is a trademark of Google Inc.
This Font Software is licensed under the SIL Open Font License, Version 1.1. This Font Software is distributed on an "AS IS" BASIS, WITHOUT WARRANTIES OR CONDITIONS OF ANY KIND, either express or implied. See the SIL Open Font License for the specific language, permissions and limitations governing your use of this Font Software.
http://scripts.sil.org/OFL
  -->
<path d="M191 719L191 770C191 856 246 881 356 881L705 881C872 881 900 858 900 828 900 813 886 809 849 801L834 801C821 806 801 810 785 812 764 816 737 818 696 818L351 818C291 818 258 810 258 771L258 297 937 297C951 297 962 292 963 281 926 247 866 201 866 201L812 268 530 268 530 81C555 78 565 68 567 54L464 44 464 268 37 268 46 297 191 297Z"/>
</svg>