<svg xmlns="http://www.w3.org/2000/svg" name="gid2500" data-unicode="京"
    viewBox="0 0 1000 1000">
  <!--
© 2017-2024 Adobe (http://www.adobe.com/).
Noto is a trademark of Google Inc.
This Font Software is licensed under the SIL Open Font License, Version 1.1. This Font Software is distributed on an "AS IS" BASIS, WITHOUT WARRANTIES OR CONDITIONS OF ANY KIND, either express or implied. See the SIL Open Font License for the specific language, permissions and limitations governing your use of this Font Software.
http://scripts.sil.org/OFL
  -->
<path d="M638 673L629 683C706 740 818 837 859 907 941 948 966 785 638 673ZM282 660C233 736 131 837 35 899L45 912C159 864 270 783 330 717 353 722 361 719 368 709ZM213 320L213 626 223 626C250 626 278 611 278 604L278 568 464 568 464 862C464 876 459 882 437 882 414 882 294 874 294 874L294 889C346 894 376 902 393 913 408 924 415 941 417 961 516 951 530 915 530 864L530 568 715 568 715 618 725 618C747 618 780 602 781 596L781 364C801 360 819 351 826 343L742 279 705 320 284 320 213 289ZM278 539L278 350 715 350 715 539ZM463 42L463 181 50 181 59 209 925 209C939 209 949 204 952 193 914 160 854 114 854 114L801 181 530 181 530 79C554 75 565 65 566 51Z"/>
</svg>