<svg xmlns="http://www.w3.org/2000/svg"
    viewBox="0 0 1000 1000">
  <!--
© 2017-2023 Adobe (http://www.adobe.com/).
Noto is a trademark of Google Inc.
This Font Software is licensed under the SIL Open Font License, Version 1.1. This Font Software is distributed on an "AS IS" BASIS, WITHOUT WARRANTIES OR CONDITIONS OF ANY KIND, either express or implied. See the SIL Open Font License for the specific language, permissions and limitations governing your use of this Font Software.
http://scripts.sil.org/OFL
  -->
<path d="M522 74C589 237 735 370 907 452 914 426 939 402 971 395L973 380C791 312 625 204 541 61 567 59 579 54 582 42L459 12C408 171 215 377 32 476L39 490C246 404 434 235 522 74ZM410 367L311 357 311 508C311 654 277 812 63 912L74 927C334 835 374 663 376 509L376 393C400 391 408 380 410 367ZM712 368L609 357 609 928 621 928C647 928 675 914 675 905L675 395C700 391 709 382 712 368Z"/>
</svg>