<svg xmlns="http://www.w3.org/2000/svg"
    viewBox="0 0 1000 1000">
  <!--
© 2017-2024 Adobe (http://www.adobe.com/).
Noto is a trademark of Google Inc.
This Font Software is licensed under the SIL Open Font License, Version 1.1. This Font Software is distributed on an "AS IS" BASIS, WITHOUT WARRANTIES OR CONDITIONS OF ANY KIND, either express or implied. See the SIL Open Font License for the specific language, permissions and limitations governing your use of this Font Software.
http://scripts.sil.org/OFL
  -->
<path d="M818 227L668 280 668 64C694 60 702 49 705 35L605 24 605 302 458 353 458 143C482 139 492 128 493 115L393 104 393 376 262 422 281 447 393 408 393 800C393 872 428 890 532 890L695 890C921 890 966 881 966 845 966 830 960 824 932 815L929 661 916 661C901 735 887 792 878 809 872 820 865 824 849 826 825 828 771 829 697 829L536 829C470 829 458 817 458 786L458 385 605 333 605 745 617 745C640 745 668 731 668 722L668 311 833 254C830 458 824 562 805 582 799 589 792 591 776 591 759 591 710 587 681 584L681 601C709 606 738 614 748 623 759 633 762 651 762 671 796 671 829 660 851 638 885 603 894 497 897 263 916 260 928 256 935 248L860 187 824 225ZM255 13C205 202 119 393 36 513L51 523C92 481 132 431 169 374L169 928 181 928C206 928 233 911 234 906L234 309C251 307 260 300 263 291L227 277C262 211 294 139 321 65 343 66 355 57 359 46Z"/>
</svg>