<svg xmlns="http://www.w3.org/2000/svg"
    viewBox="0 0 1000 1000">
  <!--
© 2017-2023 Adobe (http://www.adobe.com/).
Noto is a trademark of Google Inc.
This Font Software is licensed under the SIL Open Font License, Version 1.1. This Font Software is distributed on an "AS IS" BASIS, WITHOUT WARRANTIES OR CONDITIONS OF ANY KIND, either express or implied. See the SIL Open Font License for the specific language, permissions and limitations governing your use of this Font Software.
http://scripts.sil.org/OFL
  -->
<path d="M441 291L424 291C422 375 382 459 343 492 324 509 315 531 327 550 343 570 380 561 402 536 435 499 468 412 441 291ZM272 292L233 277C267 211 298 139 324 65 347 66 358 56 362 45L256 12C207 210 118 409 31 534L45 545C91 499 135 442 175 379L175 929 187 929C213 929 240 912 241 907L241 311C258 308 268 302 272 292ZM637 122L339 122 348 152 564 152C561 436 553 702 273 908L287 924C613 732 628 457 636 152L849 152C841 515 823 774 780 816 768 827 760 830 738 830 715 830 639 823 592 818L591 836C633 843 679 855 696 868 710 879 714 898 713 920 764 920 806 904 836 868 887 805 908 554 916 161 939 159 952 153 960 145L880 76 839 122Z"/>
</svg>