<svg xmlns="http://www.w3.org/2000/svg"
    viewBox="0 0 1000 1000">
  <!--
© 2017-2024 Adobe (http://www.adobe.com/).
Noto is a trademark of Google Inc.
This Font Software is licensed under the SIL Open Font License, Version 1.1. This Font Software is distributed on an "AS IS" BASIS, WITHOUT WARRANTIES OR CONDITIONS OF ANY KIND, either express or implied. See the SIL Open Font License for the specific language, permissions and limitations governing your use of this Font Software.
http://scripts.sil.org/OFL
  -->
<path d="M257 12C207 202 119 393 32 513L47 523C91 480 133 427 172 367L172 927 184 927C209 927 236 911 238 905L238 308C254 306 264 299 267 290L227 275C263 209 295 138 322 64 344 65 356 56 361 45ZM455 15C425 163 367 309 303 404L317 413C372 361 422 291 463 210L598 210 598 492 294 492 302 522 598 522 598 929 609 929C642 929 664 911 664 906L664 522 944 522C958 522 967 517 970 506 937 476 883 433 883 433L835 492 664 492 664 210 894 210C908 210 917 205 920 194 886 162 833 123 833 123L786 181 477 181C494 144 509 105 523 65 544 66 556 56 560 45Z"/>
</svg>