<svg xmlns="http://www.w3.org/2000/svg"
    viewBox="0 0 1000 1000">
  <!--
© 2017-2024 Adobe (http://www.adobe.com/).
Noto is a trademark of Google Inc.
This Font Software is licensed under the SIL Open Font License, Version 1.1. This Font Software is distributed on an "AS IS" BASIS, WITHOUT WARRANTIES OR CONDITIONS OF ANY KIND, either express or implied. See the SIL Open Font License for the specific language, permissions and limitations governing your use of this Font Software.
http://scripts.sil.org/OFL
  -->
<path d="M520 67C594 213 749 356 910 445 917 420 941 397 971 391L973 376C799 298 631 182 539 54 564 53 576 47 579 36L460 5C404 150 194 365 31 467L38 482C222 388 424 213 520 67ZM218 453L218 862 51 862 60 891 922 891C936 891 946 886 949 876 913 842 854 797 854 797L802 862 534 862 534 559 818 559C831 559 841 554 844 543 809 510 752 467 752 466L702 530 534 530 534 308C559 304 568 294 571 281L467 269 467 862 283 862 283 491C307 487 317 478 319 464Z"/>
</svg>