<svg xmlns="http://www.w3.org/2000/svg"
    viewBox="0 0 1000 1000">
  <!--
© 2017-2023 Adobe (http://www.adobe.com/).
Noto is a trademark of Google Inc.
This Font Software is licensed under the SIL Open Font License, Version 1.1. This Font Software is distributed on an "AS IS" BASIS, WITHOUT WARRANTIES OR CONDITIONS OF ANY KIND, either express or implied. See the SIL Open Font License for the specific language, permissions and limitations governing your use of this Font Software.
http://scripts.sil.org/OFL
  -->
<path d="M272 12C217 205 123 400 34 520L48 531C94 488 137 435 178 375L178 928 190 928C215 928 242 911 244 906L244 303C261 300 270 294 273 284L241 272C277 208 309 138 337 65 359 66 372 57 375 46ZM743 116L707 359 507 359C515 276 518 194 519 116ZM350 86L359 116 454 116C452 362 445 673 265 918L282 934C429 775 483 580 504 389L530 389C557 519 602 629 665 719 591 800 496 867 374 916L383 932C515 890 617 831 695 759 752 829 822 886 905 929 917 899 941 882 968 880L971 870C882 834 802 783 736 717 817 627 869 519 905 399 928 397 938 395 946 386L874 319 831 359 773 359 808 122C825 120 833 117 840 110L770 50 737 86ZM835 389C807 496 764 593 699 677 632 598 581 502 552 389Z"/>
</svg>