<svg xmlns="http://www.w3.org/2000/svg" name="gid2569" data-unicode="伎"
    viewBox="0 0 1000 1000">
  <!--
© 2017-2024 Adobe (http://www.adobe.com/).
Noto is a trademark of Google Inc.
This Font Software is licensed under the SIL Open Font License, Version 1.1. This Font Software is distributed on an "AS IS" BASIS, WITHOUT WARRANTIES OR CONDITIONS OF ANY KIND, either express or implied. See the SIL Open Font License for the specific language, permissions and limitations governing your use of this Font Software.
http://scripts.sil.org/OFL
  -->
<path d="M574 44L574 210 308 210 315 240 574 240 574 420 315 420 324 449 432 449C462 569 512 667 579 746 496 826 393 892 270 941L279 957C415 915 525 856 613 783 691 861 790 919 908 959 920 926 944 906 974 902L976 892C853 861 746 812 658 743 743 661 805 565 849 459 873 458 884 455 892 447L819 377 774 420 641 420 641 240 919 240C934 240 943 235 946 224 912 192 858 149 858 149L810 210 641 210 641 79C662 75 671 67 673 54ZM616 708C543 639 487 553 452 449L774 449C739 544 686 631 616 708ZM265 42C214 234 124 428 37 550L52 561C100 513 147 453 189 386L189 957 201 957C226 957 253 940 254 935L254 342C272 339 281 333 284 324L236 306C272 240 303 169 330 95 353 95 365 87 370 75Z"/>
</svg>