<svg xmlns="http://www.w3.org/2000/svg" name="gid2571" data-unicode="伐"
    viewBox="0 0 1000 1000">
  <!--
© 2017-2024 Adobe (http://www.adobe.com/).
Noto is a trademark of Google Inc.
This Font Software is licensed under the SIL Open Font License, Version 1.1. This Font Software is distributed on an "AS IS" BASIS, WITHOUT WARRANTIES OR CONDITIONS OF ANY KIND, either express or implied. See the SIL Open Font License for the specific language, permissions and limitations governing your use of this Font Software.
http://scripts.sil.org/OFL
  -->
<path d="M687 67L677 76C721 106 780 159 803 200 873 233 904 99 687 67ZM284 360L294 388 540 364C556 481 584 589 628 681 544 779 437 866 310 927L318 941C453 890 564 816 653 730 695 804 749 866 818 913 867 949 929 976 953 944 962 932 959 918 927 880L945 728 933 726C919 767 899 816 887 841 878 861 871 861 853 846 789 806 740 749 702 680 766 608 816 530 851 453 877 457 886 452 891 441L795 401C767 476 726 551 674 623 640 544 618 453 605 357L936 325C948 324 958 317 959 306 927 281 875 246 875 246L835 306 602 329C592 250 589 168 590 87 615 83 624 71 626 58L520 47C520 147 525 244 536 335ZM258 42C207 234 119 428 34 550L48 561C92 517 133 463 172 403L172 958 184 958C210 958 237 941 238 936L238 333C255 330 265 324 268 314L231 301C266 236 296 166 323 94 346 95 358 86 362 75Z"/>
</svg>