<svg xmlns="http://www.w3.org/2000/svg"
    viewBox="0 0 1000 1000">
  <!--
© 2017-2023 Adobe (http://www.adobe.com/).
Noto is a trademark of Google Inc.
This Font Software is licensed under the SIL Open Font License, Version 1.1. This Font Software is distributed on an "AS IS" BASIS, WITHOUT WARRANTIES OR CONDITIONS OF ANY KIND, either express or implied. See the SIL Open Font License for the specific language, permissions and limitations governing your use of this Font Software.
http://scripts.sil.org/OFL
  -->
<path d="M573 440L573 615 292 615 300 644 573 644 573 927 585 927C611 927 639 913 639 905L639 644 928 644C942 644 952 639 954 628 921 596 865 550 865 550L816 615 639 615 639 479C664 476 673 465 675 452ZM510 13C509 62 509 109 505 154L323 154 332 184 502 184C486 304 436 410 275 494L288 510C496 427 553 311 571 184L709 184 709 399C709 441 718 457 776 457L836 457C933 457 960 445 960 418 960 406 955 400 936 393L933 297 920 297C912 337 902 379 896 390 893 397 889 398 883 399 875 399 859 399 839 399L794 399C775 399 773 397 773 386L773 193C790 191 800 185 807 178L736 117 700 154 575 154C578 119 580 84 581 48 602 45 610 35 613 23ZM258 12C207 204 119 398 34 520L48 531C92 487 133 433 172 373L172 928 184 928C210 928 237 911 238 906L238 303C255 300 265 294 268 284L231 271C266 206 296 136 323 64 346 65 358 56 362 45Z"/>
</svg>