<svg xmlns="http://www.w3.org/2000/svg"
    viewBox="0 0 1000 1000">
  <!--
© 2017-2024 Adobe (http://www.adobe.com/).
Noto is a trademark of Google Inc.
This Font Software is licensed under the SIL Open Font License, Version 1.1. This Font Software is distributed on an "AS IS" BASIS, WITHOUT WARRANTIES OR CONDITIONS OF ANY KIND, either express or implied. See the SIL Open Font License for the specific language, permissions and limitations governing your use of this Font Software.
http://scripts.sil.org/OFL
  -->
<path d="M390 512L390 926 400 926C433 926 454 912 454 905L454 859 805 859 805 919 816 919C846 919 871 904 871 899L871 546C892 543 903 538 909 529L835 472 802 512 658 512 658 280 940 280C954 280 964 275 966 264 933 232 878 189 878 189L829 250 658 250 658 57C683 53 692 43 695 29L592 18 592 250 316 250 324 280 592 280 592 512 465 512 390 480ZM454 830L454 542 805 542 805 830ZM263 12C213 202 125 393 38 513L53 523C97 480 139 427 178 367L178 928 189 928C215 928 242 911 244 906L244 310C260 308 270 301 273 292L232 277C268 210 301 138 328 64 350 65 362 56 367 45Z"/>
</svg>