<svg xmlns="http://www.w3.org/2000/svg" name="gid2600" data-unicode="佃"
    viewBox="0 0 1000 1000">
  <!--
© 2017-2024 Adobe (http://www.adobe.com/).
Noto is a trademark of Google Inc.
This Font Software is licensed under the SIL Open Font License, Version 1.1. This Font Software is distributed on an "AS IS" BASIS, WITHOUT WARRANTIES OR CONDITIONS OF ANY KIND, either express or implied. See the SIL Open Font License for the specific language, permissions and limitations governing your use of this Font Software.
http://scripts.sil.org/OFL
  -->
<path d="M599 513L599 845 425 845 425 513ZM662 513L840 513 840 845 662 845ZM599 485L425 485 425 168 599 168ZM662 485L662 168 840 168 840 485ZM363 138L363 953 372 953C405 953 425 937 425 932L425 874 840 874 840 940 850 940C880 940 904 923 904 919L904 175C928 172 941 165 949 157L871 95 835 138 438 138 363 107ZM255 42C205 232 118 425 34 546L48 557C91 514 131 462 169 403L169 958 181 958C206 958 233 941 234 936L234 339C251 337 261 330 264 321L226 307C261 240 293 168 320 94 343 95 355 86 359 75Z"/>
</svg>