<svg xmlns="http://www.w3.org/2000/svg"
    viewBox="0 0 1000 1000">
  <!--
© 2017-2023 Adobe (http://www.adobe.com/).
Noto is a trademark of Google Inc.
This Font Software is licensed under the SIL Open Font License, Version 1.1. This Font Software is distributed on an "AS IS" BASIS, WITHOUT WARRANTIES OR CONDITIONS OF ANY KIND, either express or implied. See the SIL Open Font License for the specific language, permissions and limitations governing your use of this Font Software.
http://scripts.sil.org/OFL
  -->
<path d="M291 842L299 872 943 872C958 872 967 867 969 856 936 824 880 780 880 780L832 842ZM791 134L791 374 462 374 462 134ZM397 105L397 753 408 753C438 753 462 737 462 729L462 669 791 669 791 731 800 731C823 731 855 714 856 707L856 147C876 143 893 135 899 127L818 63 781 105 467 105 397 73ZM462 640L462 403 791 403 791 640ZM256 12C206 203 118 398 35 520L49 531C92 487 134 433 172 372L172 927 184 927C210 927 237 911 238 905L238 311C255 309 265 302 268 293L227 278C262 211 294 138 321 64 344 65 356 56 360 44Z"/>
</svg>