<svg xmlns="http://www.w3.org/2000/svg" name="gid2603" data-unicode="佈"
    viewBox="0 0 1000 1000">
  <!--
© 2017-2024 Adobe (http://www.adobe.com/).
Noto is a trademark of Google Inc.
This Font Software is licensed under the SIL Open Font License, Version 1.1. This Font Software is distributed on an "AS IS" BASIS, WITHOUT WARRANTIES OR CONDITIONS OF ANY KIND, either express or implied. See the SIL Open Font License for the specific language, permissions and limitations governing your use of this Font Software.
http://scripts.sil.org/OFL
  -->
<path d="M257 42C207 232 119 423 33 543L47 553C91 510 133 457 172 397L172 958 184 958C209 958 237 941 238 936L238 339C255 337 264 330 267 321L227 306C263 240 295 168 322 94 344 95 357 86 361 75ZM548 43C534 101 517 157 497 211L305 211 312 240 486 240C426 391 344 519 255 609L269 621C322 582 371 534 415 478L415 850 426 850C457 850 478 835 478 829L478 452 619 452 619 959 630 959C655 959 682 944 682 935L682 452 839 452 839 748C839 761 835 766 821 766 805 766 739 760 739 760L739 776C770 781 788 788 800 799 809 810 813 829 815 848 894 841 903 808 903 757L903 464C921 460 938 452 945 445L862 384 829 423 682 423 682 319C706 317 715 307 717 293L619 282 619 423 490 423 463 412C498 360 529 302 557 240L932 240C946 240 956 235 959 224 926 193 871 151 871 151L824 211 569 211C585 173 599 134 612 93 635 94 646 84 650 72Z"/>
</svg>