<svg xmlns="http://www.w3.org/2000/svg"
    viewBox="0 0 1000 1000">
  <!--
© 2017-2024 Adobe (http://www.adobe.com/).
Noto is a trademark of Google Inc.
This Font Software is licensed under the SIL Open Font License, Version 1.1. This Font Software is distributed on an "AS IS" BASIS, WITHOUT WARRANTIES OR CONDITIONS OF ANY KIND, either express or implied. See the SIL Open Font License for the specific language, permissions and limitations governing your use of this Font Software.
http://scripts.sil.org/OFL
  -->
<path d="M257 12C207 202 119 393 33 513L47 523C91 480 133 427 172 367L172 928 184 928C209 928 237 911 238 906L238 309C255 307 264 300 267 291L227 276C263 210 295 138 322 64 344 65 357 56 361 45ZM548 13C534 71 517 127 497 181L305 181 312 210 486 210C426 361 344 489 255 579L269 591C322 552 371 504 415 448L415 820 426 820C457 820 478 805 478 799L478 422 619 422 619 929 630 929C655 929 682 914 682 905L682 422 839 422 839 718C839 731 835 736 821 736 805 736 739 730 739 730L739 746C770 751 788 758 800 769 809 780 813 799 815 818 894 811 903 778 903 727L903 434C921 430 938 422 945 415L862 354 829 393 682 393 682 289C706 287 715 277 717 263L619 252 619 393 490 393 463 382C498 330 529 272 557 210L932 210C946 210 956 205 959 194 926 163 871 121 871 121L824 181 569 181C585 143 599 104 612 63 635 64 646 54 650 42Z"/>
</svg>