<svg xmlns="http://www.w3.org/2000/svg"
    viewBox="0 0 1000 1000">
  <!--
© 2017-2023 Adobe (http://www.adobe.com/).
Noto is a trademark of Google Inc.
This Font Software is licensed under the SIL Open Font License, Version 1.1. This Font Software is distributed on an "AS IS" BASIS, WITHOUT WARRANTIES OR CONDITIONS OF ANY KIND, either express or implied. See the SIL Open Font License for the specific language, permissions and limitations governing your use of this Font Software.
http://scripts.sil.org/OFL
  -->
<path d="M490 21L479 30C536 71 609 144 633 203 708 244 743 88 490 21ZM282 855L290 883 943 883C958 883 967 879 970 868 934 835 876 790 876 790L825 855 642 855 642 552 897 552C910 552 920 548 923 537 891 506 837 465 837 465L791 523 642 523 642 270 919 270C934 270 943 265 946 254 911 222 856 179 856 179L808 240 306 240 313 270 574 270 574 523 335 523 343 552 574 552 574 855ZM268 12C214 206 120 399 30 520L44 531C90 488 133 436 173 377L173 928 185 928C211 928 238 912 239 906L239 358C256 356 266 349 270 341L210 319C257 241 298 155 332 65 354 66 366 57 371 45Z"/>
</svg>