<svg xmlns="http://www.w3.org/2000/svg"
    viewBox="0 0 1000 1000">
  <!--
© 2017-2023 Adobe (http://www.adobe.com/).
Noto is a trademark of Google Inc.
This Font Software is licensed under the SIL Open Font License, Version 1.1. This Font Software is distributed on an "AS IS" BASIS, WITHOUT WARRANTIES OR CONDITIONS OF ANY KIND, either express or implied. See the SIL Open Font License for the specific language, permissions and limitations governing your use of this Font Software.
http://scripts.sil.org/OFL
  -->
<path d="M491 21L484 33C564 77 619 154 651 208 739 253 757 56 491 21ZM789 367L778 377C848 446 881 554 896 619 965 689 1037 495 789 367ZM369 371C364 455 323 543 288 579 269 597 259 622 274 641 292 663 331 652 351 624 384 584 411 492 386 372ZM255 13C205 202 118 391 32 510L47 520C90 478 131 427 169 370L169 928 181 928C206 928 233 911 234 906L234 309C251 307 260 300 263 291L225 277C261 211 293 139 320 65 342 66 355 57 359 46ZM811 84C759 268 669 466 534 636L534 244C557 240 567 230 568 217L470 206 470 710C409 777 339 837 262 889L274 902C346 862 411 815 470 763L470 823C470 881 491 899 572 899L678 899C836 899 871 885 871 854 871 841 865 832 842 823L839 634 826 634C813 715 800 796 791 815 787 827 782 831 770 832 757 834 724 835 678 835L582 835C541 835 534 827 534 805L534 703C703 532 809 322 874 132 902 134 912 128 917 114Z"/>
</svg>