<svg xmlns="http://www.w3.org/2000/svg"
    viewBox="0 0 1000 1000">
  <!--
© 2017-2024 Adobe (http://www.adobe.com/).
Noto is a trademark of Google Inc.
This Font Software is licensed under the SIL Open Font License, Version 1.1. This Font Software is distributed on an "AS IS" BASIS, WITHOUT WARRANTIES OR CONDITIONS OF ANY KIND, either express or implied. See the SIL Open Font License for the specific language, permissions and limitations governing your use of this Font Software.
http://scripts.sil.org/OFL
  -->
<path d="M632 391L632 619 471 619 471 391ZM409 361L409 738 419 738C445 738 471 723 471 717L471 649 632 649 632 714 642 714C662 714 694 699 695 693L695 403C715 399 731 391 737 383L658 323 622 361 476 361 409 331ZM465 15C424 169 352 323 281 419L296 429C357 375 413 301 461 215L850 215C843 544 827 787 789 824 778 835 769 839 749 839 725 839 645 831 596 826L595 844C639 852 687 863 704 874 719 886 723 905 723 926 773 926 815 911 842 876 891 818 909 579 915 224 938 222 951 216 958 208L880 141 840 186 477 186C497 149 515 109 531 69 553 70 564 61 569 49ZM260 12C210 202 121 393 34 513L49 523C93 480 134 429 173 370L173 927 185 927C211 927 238 910 239 905L239 307C256 305 266 298 269 289L230 275C266 209 298 138 325 64 347 65 359 56 363 45Z"/>
</svg>