<svg xmlns="http://www.w3.org/2000/svg" name="gid2650" data-unicode="侃"
    viewBox="0 0 1000 1000">
  <!--
© 2017-2024 Adobe (http://www.adobe.com/).
Noto is a trademark of Google Inc.
This Font Software is licensed under the SIL Open Font License, Version 1.1. This Font Software is distributed on an "AS IS" BASIS, WITHOUT WARRANTIES OR CONDITIONS OF ANY KIND, either express or implied. See the SIL Open Font License for the specific language, permissions and limitations governing your use of this Font Software.
http://scripts.sil.org/OFL
  -->
<path d="M759 485L759 878C759 920 768 937 823 937L868 937C951 937 975 924 975 898 975 886 972 879 954 871L950 734 937 734C928 788 917 852 912 867 908 876 905 878 899 878 894 878 883 878 869 878L839 878C825 878 823 875 823 863L823 520C841 517 851 508 852 495ZM572 495L572 917 584 917C608 917 635 904 635 897L635 532C659 528 668 519 670 506ZM399 487L399 610C399 718 380 854 268 945L282 958C435 872 459 724 461 612L461 521C485 518 493 509 495 497ZM383 104L383 456 393 456C427 456 447 442 447 437L447 410 799 410 799 448 810 448C839 448 865 434 865 430L865 137C885 134 895 128 902 121L828 65 796 104 458 104 383 72ZM447 380L447 133 799 133 799 380ZM254 43C204 233 117 424 32 544L46 554C92 509 135 453 175 391L175 958 187 958C212 958 240 941 241 936L241 339C258 337 268 330 271 321L226 305C261 239 293 168 319 95 341 96 353 87 358 75Z"/>
</svg>