<svg xmlns="http://www.w3.org/2000/svg"
    viewBox="0 0 1000 1000">
  <!--
© 2017-2023 Adobe (http://www.adobe.com/).
Noto is a trademark of Google Inc.
This Font Software is licensed under the SIL Open Font License, Version 1.1. This Font Software is distributed on an "AS IS" BASIS, WITHOUT WARRANTIES OR CONDITIONS OF ANY KIND, either express or implied. See the SIL Open Font License for the specific language, permissions and limitations governing your use of this Font Software.
http://scripts.sil.org/OFL
  -->
<path d="M554 13C505 127 404 254 298 325L308 338C363 312 416 276 463 235 501 261 542 303 556 338 620 373 656 254 478 222 500 202 520 181 539 160L751 160C654 337 507 449 296 532L306 547C445 507 554 454 642 384 581 498 459 621 336 689L345 704C406 679 465 646 519 607 561 638 607 687 622 728 687 765 725 641 538 593 569 570 597 545 623 520L842 520C732 740 561 840 290 911L298 928C620 872 796 762 920 530 942 529 956 526 964 518L888 452 849 490 652 490C671 469 689 447 704 426 728 432 736 427 742 419L645 382C719 323 778 253 828 169 850 168 864 165 872 157L797 94 759 131 564 131C585 106 604 80 619 55 644 58 652 54 656 44ZM258 12C207 204 119 398 34 520L48 531C92 487 133 433 172 373L172 928 184 928C210 928 237 911 238 906L238 303C255 300 265 294 268 284L231 271C266 206 296 136 323 64 346 65 358 56 362 45Z"/>
</svg>