<svg xmlns="http://www.w3.org/2000/svg"
    viewBox="0 0 1000 1000">
  <!--
© 2017-2023 Adobe (http://www.adobe.com/).
Noto is a trademark of Google Inc.
This Font Software is licensed under the SIL Open Font License, Version 1.1. This Font Software is distributed on an "AS IS" BASIS, WITHOUT WARRANTIES OR CONDITIONS OF ANY KIND, either express or implied. See the SIL Open Font License for the specific language, permissions and limitations governing your use of this Font Software.
http://scripts.sil.org/OFL
  -->
<path d="M876 314L783 261C768 313 729 417 698 483L709 490C760 438 814 367 841 326 860 330 872 322 876 314ZM357 270L344 276C379 329 421 411 426 474 486 528 545 393 357 270ZM837 129L788 190 630 190 630 52C655 48 663 38 665 24L566 14 566 190 308 190 316 219 566 219 566 342C566 403 563 462 553 519L278 519 286 549 548 549C518 695 443 822 272 914L283 930C488 844 576 706 610 549L622 549C649 670 712 831 903 925 910 889 930 877 964 872L966 860C760 778 676 657 642 549L933 549C947 549 957 544 960 533 926 501 870 458 870 458L822 519 616 519C626 461 630 402 630 341L630 219 900 219C914 219 924 214 927 203 892 171 837 129 837 129ZM268 292L229 277C264 210 296 138 323 63 345 64 357 55 361 45L257 12C208 204 120 398 35 520L49 530C93 486 134 433 173 373L173 928 184 928C210 928 237 912 238 906L238 310C255 308 265 301 268 292Z"/>
</svg>