<svg xmlns="http://www.w3.org/2000/svg" name="gid2683" data-unicode="侵"
    viewBox="0 0 1000 1000">
  <!--
© 2017-2024 Adobe (http://www.adobe.com/).
Noto is a trademark of Google Inc.
This Font Software is licensed under the SIL Open Font License, Version 1.1. This Font Software is distributed on an "AS IS" BASIS, WITHOUT WARRANTIES OR CONDITIONS OF ANY KIND, either express or implied. See the SIL Open Font License for the specific language, permissions and limitations governing your use of this Font Software.
http://scripts.sil.org/OFL
  -->
<path d="M348 432C348 466 323 509 302 525 283 539 271 561 281 579 293 602 327 598 344 584 360 568 372 539 373 500L852 500 833 576 847 582C870 565 906 532 926 511 945 510 956 509 963 502L888 429 847 470 372 470C371 458 368 445 365 432ZM369 591L377 621 444 621C474 701 517 764 573 814 493 871 392 913 272 942L278 959C414 936 523 898 611 844 687 899 783 934 902 958 909 926 930 906 958 900L960 889C844 875 744 850 662 809 725 760 775 700 812 629 835 628 846 626 854 617L783 552 740 591ZM614 782C550 742 500 689 466 621L738 621C708 683 667 737 614 782ZM396 221L405 250 785 250 785 348 373 348 382 378 785 378 785 416 795 416C817 416 849 401 850 394L850 139C870 135 886 127 893 119L812 57 775 98 372 98 380 126 785 126 785 221ZM254 43C204 232 116 421 32 540L46 550C89 508 130 457 168 400L168 958 180 958C205 958 233 941 234 936L234 339C251 337 260 330 263 321L224 306C260 241 292 169 319 95 341 96 353 87 358 75Z"/>
</svg>