<svg xmlns="http://www.w3.org/2000/svg" name="gid2690" data-unicode="侾"
    viewBox="0 0 1000 1000">
  <!--
© 2017-2024 Adobe (http://www.adobe.com/).
Noto is a trademark of Google Inc.
This Font Software is licensed under the SIL Open Font License, Version 1.1. This Font Software is distributed on an "AS IS" BASIS, WITHOUT WARRANTIES OR CONDITIONS OF ANY KIND, either express or implied. See the SIL Open Font License for the specific language, permissions and limitations governing your use of this Font Software.
http://scripts.sil.org/OFL
  -->
<path d="M254 43C204 232 116 421 32 540L46 550C89 508 130 457 168 400L168 958 180 958C205 958 233 941 234 936L234 333C251 330 260 324 263 314L227 301C262 237 293 167 319 95 341 96 353 87 358 75ZM827 84C809 118 788 152 764 186 734 158 693 125 693 125L650 181 591 181 591 81C615 77 624 68 626 55L528 45 528 181 347 181 355 210 528 210 528 351 288 351 296 380 596 380C501 470 388 552 267 613L276 628C358 595 434 554 505 508L746 508C717 536 678 568 646 592L601 587 601 681 311 681 319 710 601 710 601 860C601 875 596 881 578 881 556 881 446 873 446 873L446 889C493 895 520 902 536 912 550 923 556 938 559 957 653 948 665 917 665 864L665 710 935 710C949 710 959 705 961 694 929 664 876 624 876 624L831 681 665 681 665 622C687 619 696 612 699 597L686 596C741 573 802 543 839 517 860 516 871 515 879 508L805 437 762 478 549 478C592 447 633 414 671 380L934 380C948 380 958 375 960 364 928 334 876 295 876 295L830 351 702 351C774 282 833 209 876 140 901 146 910 142 917 132ZM591 210L747 210C712 258 671 305 625 351L591 351Z"/>
</svg>