<svg xmlns="http://www.w3.org/2000/svg"
    viewBox="0 0 1000 1000">
  <!--
© 2017-2023 Adobe (http://www.adobe.com/).
Noto is a trademark of Google Inc.
This Font Software is licensed under the SIL Open Font License, Version 1.1. This Font Software is distributed on an "AS IS" BASIS, WITHOUT WARRANTIES OR CONDITIONS OF ANY KIND, either express or implied. See the SIL Open Font License for the specific language, permissions and limitations governing your use of this Font Software.
http://scripts.sil.org/OFL
  -->
<path d="M254 13C204 202 116 391 32 510L46 520C89 478 130 427 168 370L168 928 180 928C205 928 233 911 234 906L234 308C251 305 260 298 263 289L225 275C260 210 292 139 319 65 341 66 353 57 358 45ZM382 65L382 318 392 318C426 318 447 305 447 299L447 268 784 268 784 308 794 308C826 308 850 294 850 290L850 97C870 94 879 89 886 82L814 26 781 65 458 65 382 32ZM447 239L447 94 784 94 784 239ZM814 406L814 598 644 598 644 406ZM346 377L346 840C346 907 375 923 486 923L663 923C906 923 950 914 950 877 950 864 942 856 914 848L912 699 899 699C884 771 871 823 861 842 855 853 850 857 831 859 808 860 747 861 666 861L489 861C422 861 413 854 413 828L413 627 814 627 814 675 824 675C845 675 879 660 880 654L880 418C900 414 915 406 921 398L840 337 804 377 425 377 346 343ZM580 406L580 598 413 598 413 406Z"/>
</svg>