<svg xmlns="http://www.w3.org/2000/svg"
    viewBox="0 0 1000 1000">
  <!--
© 2017-2024 Adobe (http://www.adobe.com/).
Noto is a trademark of Google Inc.
This Font Software is licensed under the SIL Open Font License, Version 1.1. This Font Software is distributed on an "AS IS" BASIS, WITHOUT WARRANTIES OR CONDITIONS OF ANY KIND, either express or implied. See the SIL Open Font License for the specific language, permissions and limitations governing your use of this Font Software.
http://scripts.sil.org/OFL
  -->
<path d="M397 325L405 354 846 354C860 354 869 350 872 339 841 309 791 269 791 269L747 325ZM255 13C205 202 119 393 36 513L51 523C92 481 132 431 169 374L169 927 181 927C206 927 233 911 234 905L234 317C251 314 260 307 263 298L223 283C260 215 293 142 321 65 343 66 355 57 359 46ZM392 107C391 154 363 208 338 228 317 243 304 265 315 286 328 309 363 305 382 288 402 269 418 232 419 181L851 181C844 210 834 245 827 268L840 275C869 255 909 219 932 194 951 193 962 192 969 184L890 108 847 152 657 152 657 54C681 51 691 41 693 27L591 18 591 152 417 152C416 138 413 123 409 108ZM321 484L329 513 495 513C484 699 438 817 266 911L273 926C479 846 544 724 562 513L668 513 668 815C668 893 683 909 753 909L875 909C941 909 963 890 963 864 963 851 961 848 937 836L934 746 920 746C912 793 904 826 898 837 894 847 888 848 876 848L758 848C734 848 733 846 733 819L733 513 922 513C936 513 946 508 949 497 916 467 864 426 864 426L819 484Z"/>
</svg>