<svg xmlns="http://www.w3.org/2000/svg" name="gid2725" data-unicode="俦"
    viewBox="0 0 1000 1000">
  <!--
© 2017-2024 Adobe (http://www.adobe.com/).
Noto is a trademark of Google Inc.
This Font Software is licensed under the SIL Open Font License, Version 1.1. This Font Software is distributed on an "AS IS" BASIS, WITHOUT WARRANTIES OR CONDITIONS OF ANY KIND, either express or implied. See the SIL Open Font License for the specific language, permissions and limitations governing your use of this Font Software.
http://scripts.sil.org/OFL
  -->
<path d="M500 646L490 653C524 687 568 743 581 787 645 830 695 704 500 646ZM252 43C202 231 116 423 34 543L48 553C89 511 129 461 166 404L166 957 178 957C204 957 231 940 232 935L232 339C249 336 259 329 262 320L224 306C260 240 291 169 318 95 340 96 352 87 356 75ZM549 44C548 85 545 127 541 169L311 169 319 197 539 197C535 229 531 260 526 292L348 292 356 320 522 320C516 354 508 388 500 422L268 422 276 450 492 450C481 491 467 532 451 571L294 571 302 600 439 600C394 698 333 787 250 858L263 869C368 797 443 704 495 600L732 600 732 859C732 874 727 880 707 880 686 880 575 872 575 872L575 888C622 894 650 901 666 912 680 923 686 939 689 959 784 950 796 916 796 863L796 600 922 600C936 600 945 595 948 584 918 556 870 516 870 516L828 571 796 571 796 504C819 500 829 492 832 478L732 467 732 571 510 571C528 532 543 491 556 450L939 450C953 450 962 445 965 435 932 405 881 364 881 364L835 422 565 422C574 388 583 354 590 320L848 320C862 320 871 315 874 305 843 275 791 236 791 236L747 292 595 292C601 260 606 228 610 197L894 197C907 197 917 192 920 181 888 152 836 110 836 110L790 169 614 169 623 80C654 76 662 68 665 53Z"/>
</svg>