<svg xmlns="http://www.w3.org/2000/svg"
    viewBox="0 0 1000 1000">
  <!--
© 2017-2024 Adobe (http://www.adobe.com/).
Noto is a trademark of Google Inc.
This Font Software is licensed under the SIL Open Font License, Version 1.1. This Font Software is distributed on an "AS IS" BASIS, WITHOUT WARRANTIES OR CONDITIONS OF ANY KIND, either express or implied. See the SIL Open Font License for the specific language, permissions and limitations governing your use of this Font Software.
http://scripts.sil.org/OFL
  -->
<path d="M505 690C438 784 346 866 268 913L276 928C368 897 469 837 548 757 570 764 578 762 587 753ZM685 701L674 711C748 761 849 852 884 921 967 962 996 794 685 701ZM399 69L399 643 281 643 289 672 945 672C958 672 967 667 970 656 942 628 895 590 895 590L856 643 842 643 842 111C862 106 879 98 886 91L807 28 768 69 475 69 399 37ZM462 643L462 527 778 527 778 643ZM462 240L778 240 778 353 462 353ZM462 211L462 98 778 98 778 211ZM462 383L778 383 778 497 462 497ZM254 13C204 202 116 391 32 510L46 520C89 478 130 427 168 370L168 928 180 928C205 928 233 911 234 906L234 309C251 307 260 300 263 291L224 276C260 211 292 139 319 65 341 66 353 57 358 45Z"/>
</svg>