<svg xmlns="http://www.w3.org/2000/svg" name="gid2735" data-unicode="俺"
    viewBox="0 0 1000 1000">
  <!--
© 2017-2024 Adobe (http://www.adobe.com/).
Noto is a trademark of Google Inc.
This Font Software is licensed under the SIL Open Font License, Version 1.1. This Font Software is distributed on an "AS IS" BASIS, WITHOUT WARRANTIES OR CONDITIONS OF ANY KIND, either express or implied. See the SIL Open Font License for the specific language, permissions and limitations governing your use of this Font Software.
http://scripts.sil.org/OFL
  -->
<path d="M563 445L563 562 425 562 425 445ZM627 445L780 445 780 562 627 562ZM563 312L563 415 438 415 408 403C464 354 513 295 554 223L678 223C706 285 745 345 792 395L772 415 627 415 627 348C649 345 658 335 659 322ZM563 591L563 710 425 710 425 591ZM627 591L780 591 780 710 627 710ZM549 40C534 95 515 146 493 193L294 193 302 223 477 223C417 338 335 428 246 489L257 501C294 484 329 463 362 439L362 798 372 798C404 798 425 781 425 776L425 739 563 739 563 864C563 918 582 936 661 936L765 936C921 936 956 926 956 896 956 883 950 876 926 868L923 726 910 726C899 787 888 848 880 863 875 872 870 875 859 876 846 878 812 878 767 878L673 878C633 878 627 871 627 851L627 739 780 739 780 776 789 776C811 776 841 760 842 753L842 449 847 448C873 470 900 489 928 504 934 476 952 457 979 446L980 433C879 396 763 319 705 223L934 223C948 223 959 218 961 207 926 177 872 136 872 136L823 193 570 193C586 162 601 129 614 93 637 95 648 86 652 75ZM257 43C206 233 116 422 30 540L44 550C89 507 132 454 172 395L172 958 184 958C209 958 236 941 237 936L237 339C254 337 264 330 267 321L226 306C262 240 294 169 321 95 344 97 356 87 361 76Z"/>
</svg>