<svg xmlns="http://www.w3.org/2000/svg"
    viewBox="0 0 1000 1000">
  <!--
© 2017-2024 Adobe (http://www.adobe.com/).
Noto is a trademark of Google Inc.
This Font Software is licensed under the SIL Open Font License, Version 1.1. This Font Software is distributed on an "AS IS" BASIS, WITHOUT WARRANTIES OR CONDITIONS OF ANY KIND, either express or implied. See the SIL Open Font License for the specific language, permissions and limitations governing your use of this Font Software.
http://scripts.sil.org/OFL
  -->
<path d="M563 415L563 532 425 532 425 415ZM627 415L780 415 780 532 627 532ZM563 282L563 385 438 385 408 373C464 324 513 265 554 193L678 193C706 255 745 315 792 365L772 385 627 385 627 318C649 315 658 305 659 292ZM563 561L563 680 425 680 425 561ZM627 561L780 561 780 680 627 680ZM549 10C534 65 515 116 493 163L294 163 302 193 477 193C417 308 335 398 246 459L257 471C294 454 329 433 362 409L362 768 372 768C404 768 425 751 425 746L425 709 563 709 563 834C563 888 582 906 661 906L765 906C921 906 956 896 956 866 956 853 950 846 926 838L923 696 910 696C899 757 888 818 880 833 875 842 870 845 859 846 846 848 812 848 767 848L673 848C633 848 627 841 627 821L627 709 780 709 780 746 789 746C811 746 841 730 842 723L842 419 847 418C873 440 900 459 928 474 934 446 952 427 979 416L980 403C879 366 763 289 705 193L934 193C948 193 959 188 961 177 926 147 872 106 872 106L823 163 570 163C586 132 601 99 614 63 637 65 648 56 652 45ZM257 13C206 203 116 392 30 510L44 520C89 477 132 424 172 365L172 928 184 928C209 928 236 911 237 906L237 309C254 307 264 300 267 291L226 276C262 210 294 139 321 65 344 67 356 57 361 46Z"/>
</svg>