<svg xmlns="http://www.w3.org/2000/svg"
    viewBox="0 0 1000 1000">
  <!--
© 2017-2024 Adobe (http://www.adobe.com/).
Noto is a trademark of Google Inc.
This Font Software is licensed under the SIL Open Font License, Version 1.1. This Font Software is distributed on an "AS IS" BASIS, WITHOUT WARRANTIES OR CONDITIONS OF ANY KIND, either express or implied. See the SIL Open Font License for the specific language, permissions and limitations governing your use of this Font Software.
http://scripts.sil.org/OFL
  -->
<path d="M569 459L523 517 511 517 512 473 512 267 612 267C618 267 623 266 627 264L628 267 724 267 724 517 635 517C606 489 569 460 569 459ZM800 15C786 85 755 174 719 238L624 238C593 211 555 181 555 181L509 238 461 238C508 183 549 114 571 56 592 55 604 45 607 33L507 14C496 84 471 173 438 238L310 238 318 267 448 267 448 473 447 517 302 517 310 547 446 547C438 678 404 808 280 916L293 929C460 829 500 684 510 547L724 547 724 927 734 927C767 927 789 911 789 906L789 547 942 547C956 547 966 542 968 531 937 500 884 459 884 459L838 517 789 517 789 267 928 267C942 267 952 262 955 251 922 221 870 181 870 181L824 238 743 238C792 185 836 115 861 58 882 57 893 48 897 36ZM258 12C208 202 119 393 33 513L47 523C91 480 133 427 172 368L172 928 184 928C210 928 237 911 238 906L238 309C255 307 265 300 268 291L227 276C263 210 295 138 323 64 345 65 357 56 361 45Z"/>
</svg>