<svg xmlns="http://www.w3.org/2000/svg"
    viewBox="0 0 1000 1000">
  <!--
© 2017-2024 Adobe (http://www.adobe.com/).
Noto is a trademark of Google Inc.
This Font Software is licensed under the SIL Open Font License, Version 1.1. This Font Software is distributed on an "AS IS" BASIS, WITHOUT WARRANTIES OR CONDITIONS OF ANY KIND, either express or implied. See the SIL Open Font License for the specific language, permissions and limitations governing your use of this Font Software.
http://scripts.sil.org/OFL
  -->
<path d="M618 64C680 179 795 279 919 346 925 321 941 300 966 292L968 278C835 231 709 146 633 53 658 51 667 46 670 35L558 11C513 124 388 264 265 338L273 355C415 289 548 178 618 64ZM340 411L340 676 350 676C377 676 404 661 404 656L404 623 558 623C533 734 460 832 277 914L287 930C514 856 596 744 623 623L627 623C654 727 720 857 908 930 915 894 935 883 967 878L969 866C770 805 682 712 647 623L810 623 810 664 819 664C842 664 874 646 875 639L875 452C894 448 909 440 916 432L836 372 800 411 636 411 636 310 789 310C802 310 812 305 814 294 785 268 739 233 739 233L699 281 413 281 421 310 571 310 571 411 410 411 340 380ZM404 594L404 440 571 440 571 497C571 530 569 563 564 594ZM810 594L629 594C634 562 636 529 636 496L636 440 810 440ZM254 13C204 202 116 391 32 510L46 520C89 478 130 427 168 370L168 928 180 928C205 928 233 911 234 906L234 309C251 307 260 300 263 291L224 276C260 211 292 139 319 65 341 66 353 57 358 45Z"/>
</svg>