<svg xmlns="http://www.w3.org/2000/svg" name="gid2793" data-unicode="偃"
    viewBox="0 0 1000 1000">
  <!--
© 2017-2024 Adobe (http://www.adobe.com/).
Noto is a trademark of Google Inc.
This Font Software is licensed under the SIL Open Font License, Version 1.1. This Font Software is distributed on an "AS IS" BASIS, WITHOUT WARRANTIES OR CONDITIONS OF ANY KIND, either express or implied. See the SIL Open Font License for the specific language, permissions and limitations governing your use of this Font Software.
http://scripts.sil.org/OFL
  -->
<path d="M612 448C603 470 586 505 567 541L414 541 422 570 551 570C526 615 499 660 478 688 501 700 525 703 540 697L560 666C594 677 626 689 655 701 601 746 526 777 423 800L428 818C554 800 642 771 705 724 755 749 793 776 821 802 878 846 954 754 747 686 775 654 797 616 813 570L925 570C939 570 948 565 950 554 921 526 874 489 874 489L833 541 633 541 661 490C685 491 697 483 701 470ZM617 570L742 570C729 608 711 641 687 669 654 661 616 653 572 647ZM489 200L489 480 499 480C525 480 552 466 552 459L552 437 784 437 784 473 794 473C814 473 847 459 848 453L848 238C864 235 878 227 883 221L809 165 776 200 557 200 489 170ZM552 407L552 333 784 333 784 407ZM552 304L552 230 784 230 784 304ZM330 109L330 959 341 959C374 959 394 941 394 936L394 890 941 890C954 890 964 885 966 874 934 844 882 803 882 803L837 860 394 860 394 137 924 137C937 137 947 132 950 121 916 91 864 50 864 50L817 109 407 109 330 76ZM225 43C184 230 110 424 36 548L51 557C88 514 124 463 156 407L156 957 167 957C191 957 217 941 218 936L218 338C236 336 245 329 248 320L208 306C240 239 267 167 290 94 312 94 323 85 327 73Z"/>
</svg>