<svg xmlns="http://www.w3.org/2000/svg" name="gid2795" data-unicode="偆"
    viewBox="0 0 1000 1000">
  <!--
© 2017-2024 Adobe (http://www.adobe.com/).
Noto is a trademark of Google Inc.
This Font Software is licensed under the SIL Open Font License, Version 1.1. This Font Software is distributed on an "AS IS" BASIS, WITHOUT WARRANTIES OR CONDITIONS OF ANY KIND, either express or implied. See the SIL Open Font License for the specific language, permissions and limitations governing your use of this Font Software.
http://scripts.sil.org/OFL
  -->
<path d="M255 43C205 232 117 421 32 540L46 550C89 509 129 458 167 401L167 957 178 957C203 957 230 941 232 935L232 339C249 337 258 330 261 321L224 307C260 241 292 169 319 95 342 96 354 87 358 76ZM555 42C550 83 544 123 536 161L318 161 326 189 530 189C522 225 512 259 501 292L343 292 351 320 490 320C477 356 461 390 444 422L264 422 272 450 429 450C379 535 317 605 245 661L258 674C311 645 358 609 401 567L401 962 412 962C438 962 463 947 463 940L463 901 728 901 728 948 738 948C760 948 791 932 792 926L792 609C807 606 819 600 825 595 853 618 882 638 914 655 923 623 945 602 972 597L974 587C897 560 823 511 762 450L937 450C951 450 960 446 963 435 930 405 878 364 878 364L831 422 736 422C708 391 685 356 666 320L846 320C860 320 869 315 872 305 839 275 788 235 788 235L742 292 573 292C585 260 596 225 606 189L884 189C898 189 907 184 910 174 878 144 826 103 826 103L778 161 613 161 629 87C651 86 662 76 666 63ZM704 450C725 485 749 517 775 546L755 531 719 569 468 569 421 547C448 518 473 486 495 450ZM688 422L512 422C531 390 547 356 562 320L643 320C656 356 671 390 688 422ZM463 747L728 747 728 871 463 871ZM463 718L463 598 728 598 728 718Z"/>
</svg>