<svg xmlns="http://www.w3.org/2000/svg"
    viewBox="0 0 1000 1000">
  <!--
© 2017-2023 Adobe (http://www.adobe.com/).
Noto is a trademark of Google Inc.
This Font Software is licensed under the SIL Open Font License, Version 1.1. This Font Software is distributed on an "AS IS" BASIS, WITHOUT WARRANTIES OR CONDITIONS OF ANY KIND, either express or implied. See the SIL Open Font License for the specific language, permissions and limitations governing your use of this Font Software.
http://scripts.sil.org/OFL
  -->
<path d="M462 231L795 231 795 341 462 341ZM462 202L462 94 795 94 795 202ZM399 66L399 415 409 415C442 415 462 400 462 395L462 369 495 369C448 466 360 580 272 644L284 657C315 640 346 619 376 596L376 871 388 871C413 871 441 858 441 850L441 799 787 799C801 799 811 794 814 783 783 756 736 721 736 721L695 770 441 770 441 599C465 596 474 586 477 572L412 566C437 543 461 520 482 496L857 496C850 693 834 812 809 836 801 844 793 846 775 846 754 846 692 841 655 837L654 855C688 861 725 869 738 879 752 889 755 907 755 926 793 926 830 916 854 892 894 853 913 728 920 504 941 501 953 496 960 488L885 427 847 467 507 467C525 446 541 424 554 404 578 409 586 405 591 395L521 369 795 369 795 405 805 405C835 405 860 390 860 386L860 99C880 96 891 90 897 83L824 26 792 66 473 66 399 34ZM601 500C581 578 531 671 459 725L469 739C526 711 573 668 608 622 648 648 692 687 711 717 771 745 800 635 622 603 635 584 646 565 655 546 679 548 686 543 691 533ZM252 13C202 202 116 393 34 513L48 523C89 481 129 431 166 374L166 928 178 928C203 928 230 911 231 906L231 309C248 307 257 300 260 291L224 277C259 211 291 139 318 65 340 66 352 57 356 46Z"/>
</svg>