<svg xmlns="http://www.w3.org/2000/svg"
    viewBox="0 0 1000 1000">
  <!--
© 2017-2024 Adobe (http://www.adobe.com/).
Noto is a trademark of Google Inc.
This Font Software is licensed under the SIL Open Font License, Version 1.1. This Font Software is distributed on an "AS IS" BASIS, WITHOUT WARRANTIES OR CONDITIONS OF ANY KIND, either express or implied. See the SIL Open Font License for the specific language, permissions and limitations governing your use of this Font Software.
http://scripts.sil.org/OFL
  -->
<path d="M566 571L557 579C597 610 644 667 657 713 724 754 768 616 566 571ZM796 621L784 628C833 680 887 765 893 834 964 892 1025 726 796 621ZM461 601L461 845C461 892 474 906 548 906L647 906C792 906 822 895 822 867 822 854 816 847 796 840L792 737 780 737C770 783 760 824 754 837 750 845 745 847 735 848 724 849 691 849 650 849L560 849C526 849 523 846 523 833L523 635C540 632 550 623 552 610ZM377 634C371 700 326 762 289 787 270 801 259 822 269 840 282 861 318 855 339 836 374 807 410 737 394 635ZM422 256L417 272C441 281 465 291 487 302 439 373 378 437 304 488L315 504C403 455 474 395 531 324 562 342 590 360 614 377 569 447 511 508 440 560L451 575C533 528 599 472 651 408 666 420 677 432 686 443 729 460 755 411 690 355 726 300 754 238 774 171L850 171C839 352 817 471 788 494 778 503 769 506 752 506 731 506 666 500 630 496L629 514C663 520 699 528 712 537 725 548 729 562 729 580 768 581 805 571 832 548 875 509 902 386 913 179 934 176 946 172 953 164L878 103 841 143 483 143C499 118 514 91 527 63 549 66 561 57 566 46L472 11C429 140 354 255 278 323L292 335C354 297 414 241 464 171L555 171C541 206 524 240 505 273 480 267 452 261 422 256ZM622 171L706 171C691 225 670 276 645 325 622 312 593 299 558 288 583 252 604 213 622 171ZM253 13C203 202 117 393 34 513L49 523C91 481 130 431 167 374L167 928 178 928C203 928 230 911 232 906L232 303C249 301 258 294 261 285L227 272C261 207 292 137 319 65 341 66 353 57 357 46Z"/>
</svg>