<svg xmlns="http://www.w3.org/2000/svg"
    viewBox="0 0 1000 1000">
  <!--
© 2017-2024 Adobe (http://www.adobe.com/).
Noto is a trademark of Google Inc.
This Font Software is licensed under the SIL Open Font License, Version 1.1. This Font Software is distributed on an "AS IS" BASIS, WITHOUT WARRANTIES OR CONDITIONS OF ANY KIND, either express or implied. See the SIL Open Font License for the specific language, permissions and limitations governing your use of this Font Software.
http://scripts.sil.org/OFL
  -->
<path d="M685 103L685 699 696 699C718 699 744 685 744 678L744 140C767 137 776 128 778 114ZM853 28L853 829C853 844 848 849 830 849 810 849 711 842 711 842L711 858C754 864 779 871 794 882 807 893 812 910 815 930 905 920 915 887 915 834L915 66C940 63 950 53 952 39ZM493 708L482 715C523 760 571 834 580 893 644 945 700 805 493 708ZM370 702C345 766 289 859 229 917L239 930C316 883 385 812 424 755 446 758 454 754 460 744ZM529 109L529 261 370 261 370 109ZM308 80L308 708 318 708C346 708 370 692 370 685L370 658 529 658 529 691 538 691C560 691 589 676 590 669L590 121C610 117 626 109 632 101L555 41 519 80 374 80 308 49ZM370 290L529 290 529 444 370 444ZM370 474L529 474 529 628 370 628ZM195 12C159 193 93 383 27 507L41 516C75 474 106 425 135 371L135 927 146 927C170 927 196 911 197 906L197 309C214 307 224 300 227 291L182 274C211 207 237 135 258 62 280 62 292 54 296 41Z"/>
</svg>