<svg xmlns="http://www.w3.org/2000/svg" name="gid2828" data-unicode="偶"
    viewBox="0 0 1000 1000">
  <!--
© 2017-2024 Adobe (http://www.adobe.com/).
Noto is a trademark of Google Inc.
This Font Software is licensed under the SIL Open Font License, Version 1.1. This Font Software is distributed on an "AS IS" BASIS, WITHOUT WARRANTIES OR CONDITIONS OF ANY KIND, either express or implied. See the SIL Open Font License for the specific language, permissions and limitations governing your use of this Font Software.
http://scripts.sil.org/OFL
  -->
<path d="M588 284L588 408 441 408 441 284ZM650 284L811 284 811 408 650 408ZM588 255L441 255 441 134 588 134ZM650 255L650 134 811 134 811 255ZM722 610L709 616C725 641 742 674 755 708L650 715 650 571 863 571 863 857C863 870 859 877 842 877 822 877 734 869 734 869L734 885C774 891 796 898 810 908 821 918 826 935 829 954 916 945 927 914 927 864L927 583C947 579 962 571 968 563L886 503 854 541 650 541 650 437 811 437 811 482 821 482C851 482 875 468 875 463L875 139C896 136 906 130 912 122L840 66 807 106 452 106 378 74 378 492 388 492C421 492 441 477 441 472L441 437 588 437 588 541 392 541 323 509 323 954 333 954C361 954 388 939 388 932L388 571 588 571 588 720C515 724 454 728 418 729L453 817C463 815 473 807 478 795 601 769 694 745 762 727 771 754 778 781 779 805 832 856 889 731 722 610ZM253 43C203 232 117 423 35 543L49 553C91 511 131 460 168 403L168 958 180 958C203 958 230 943 232 938L232 341C249 338 258 332 262 323L224 308C260 242 292 170 319 95 341 96 353 87 357 76Z"/>
</svg>