<svg xmlns="http://www.w3.org/2000/svg"
    viewBox="0 0 1000 1000">
  <!--
© 2017-2023 Adobe (http://www.adobe.com/).
Noto is a trademark of Google Inc.
This Font Software is licensed under the SIL Open Font License, Version 1.1. This Font Software is distributed on an "AS IS" BASIS, WITHOUT WARRANTIES OR CONDITIONS OF ANY KIND, either express or implied. See the SIL Open Font License for the specific language, permissions and limitations governing your use of this Font Software.
http://scripts.sil.org/OFL
  -->
<path d="M409 306L417 336 745 336C759 336 767 331 770 320 740 291 691 255 691 255L647 306ZM694 393C682 441 637 572 607 649 667 729 706 849 712 913 763 962 835 824 633 646 672 582 732 469 753 431 772 434 780 428 784 418ZM839 394C826 441 775 572 742 649 807 728 852 848 861 913 915 962 984 819 769 646 811 583 877 470 900 434 917 436 928 430 931 420ZM383 505L374 514C403 535 439 572 451 601 503 633 541 533 383 505ZM378 650L369 660C402 679 440 718 452 751 505 783 540 677 378 650ZM370 58L379 87 525 87C455 195 346 304 228 380L238 396C387 321 520 214 602 90 662 201 787 303 915 370 923 345 946 325 972 320L974 308C832 261 689 171 630 88 660 88 683 81 693 69L606 13 576 58ZM304 425L304 926 314 926C341 926 364 912 364 904L364 455 517 455 517 832C517 846 513 851 498 851 483 851 417 846 417 846L417 861C448 866 466 872 477 882 487 892 490 909 492 927 568 919 576 889 576 840L576 464C594 460 609 452 615 445L538 389 507 425 369 425 304 396ZM204 12C165 194 98 385 31 508L45 517C78 477 110 429 139 377L139 928 150 928C173 928 200 912 201 907L201 309C218 307 228 300 231 291L190 276C220 209 248 136 270 63 292 63 305 54 308 42Z"/>
</svg>