<svg xmlns="http://www.w3.org/2000/svg" name="gid2832" data-unicode="傀"
    viewBox="0 0 1000 1000">
  <!--
© 2017-2024 Adobe (http://www.adobe.com/).
Noto is a trademark of Google Inc.
This Font Software is licensed under the SIL Open Font License, Version 1.1. This Font Software is distributed on an "AS IS" BASIS, WITHOUT WARRANTIES OR CONDITIONS OF ANY KIND, either express or implied. See the SIL Open Font License for the specific language, permissions and limitations governing your use of this Font Software.
http://scripts.sil.org/OFL
  -->
<path d="M406 364L576 364 576 511 406 511ZM406 334L406 192 576 192 576 334ZM815 364L815 511 640 511 640 364ZM815 334L640 334 640 192 815 192ZM582 39C577 74 567 127 560 163L418 163 344 131 344 598 354 598C386 598 406 582 406 578L406 541 473 541C463 730 417 848 244 943L251 958C457 877 523 756 540 541L616 541 616 877C616 925 629 940 701 940L793 940C931 940 961 930 961 901 961 888 954 880 932 874L929 792 918 792C909 828 898 863 892 872 888 878 882 880 873 881 861 882 831 882 796 882L714 882C682 882 678 877 678 862L678 541 815 541 815 586 824 586C854 586 879 572 879 567L879 196C900 193 910 187 917 180L843 123 811 163 594 163C614 138 638 108 653 86 675 85 687 77 691 63ZM843 671L831 679C842 691 854 708 863 726L764 738C785 700 806 658 819 626 840 628 852 620 856 608L776 580C766 629 751 692 736 741L696 745 726 809C735 807 743 801 747 788 800 772 841 758 872 746 878 760 881 775 882 788 895 799 908 800 918 792 941 777 940 716 843 671ZM252 43C202 232 116 423 33 543L47 553C88 511 128 461 165 404L165 958 177 958C202 958 229 941 230 936L230 339C247 337 257 330 260 321L223 307C258 241 290 169 317 95 340 96 352 87 356 76Z"/>
</svg>