<svg xmlns="http://www.w3.org/2000/svg" name="gid2841" data-unicode="傍"
    viewBox="0 0 1000 1000">
  <!--
© 2017-2024 Adobe (http://www.adobe.com/).
Noto is a trademark of Google Inc.
This Font Software is licensed under the SIL Open Font License, Version 1.1. This Font Software is distributed on an "AS IS" BASIS, WITHOUT WARRANTIES OR CONDITIONS OF ANY KIND, either express or implied. See the SIL Open Font License for the specific language, permissions and limitations governing your use of this Font Software.
http://scripts.sil.org/OFL
  -->
<path d="M246 43C197 232 111 423 30 543L44 553C85 512 124 461 160 405L160 958 171 958C196 958 223 941 225 936L225 339C242 337 251 330 254 321L218 307C253 241 285 169 312 95 334 96 346 87 350 75ZM354 303C352 342 321 387 296 404 276 417 264 438 274 456 286 479 320 475 339 459 357 444 373 413 377 372L853 372 817 452 830 459C859 440 908 405 934 383 954 382 965 381 972 374L896 300 854 342 706 342C740 304 774 259 797 225 818 226 831 218 835 207L758 182 924 182C938 182 948 177 951 166 916 135 863 93 863 93L815 152 647 152 647 81C670 77 678 68 680 55L582 46 582 152 316 152 324 182 441 182 436 184C461 222 487 282 489 329 498 337 507 341 515 342L377 342C376 330 375 317 372 304ZM679 342L520 342C562 338 582 250 455 182L728 182C716 231 696 295 679 342ZM580 396L580 513 295 513 303 542 509 542C502 674 475 821 263 941L276 957C453 879 526 778 559 674L777 674C767 784 747 854 726 872 717 879 709 880 692 880 673 880 609 875 573 872L572 889C606 894 640 902 653 912 666 923 670 940 670 958 707 958 742 949 766 931 806 901 831 816 841 682 861 679 874 675 880 668L806 607 770 645 566 645C575 611 579 576 582 542L943 542C957 542 965 537 968 526 936 497 884 456 884 456L839 513 645 513 645 432C667 428 675 419 677 406Z"/>
</svg>