<svg xmlns="http://www.w3.org/2000/svg"
    viewBox="0 0 1000 1000">
  <!--
© 2017-2024 Adobe (http://www.adobe.com/).
Noto is a trademark of Google Inc.
This Font Software is licensed under the SIL Open Font License, Version 1.1. This Font Software is distributed on an "AS IS" BASIS, WITHOUT WARRANTIES OR CONDITIONS OF ANY KIND, either express or implied. See the SIL Open Font License for the specific language, permissions and limitations governing your use of this Font Software.
http://scripts.sil.org/OFL
  -->
<path d="M308 133L315 161 484 161 484 250 494 250C524 250 545 240 545 234L545 161 695 161 695 248 706 248C740 247 757 235 757 230L757 161 936 161C949 161 959 156 962 146 932 117 883 80 883 80L840 133 757 133 757 47C780 44 790 34 791 21L695 11 695 133 545 133 545 47C569 44 577 34 579 21L484 11 484 133ZM317 281L317 463C317 611 314 779 246 916L260 927C372 793 378 598 378 463L378 310 936 310C950 310 960 305 962 294 930 264 876 223 876 223L830 281 388 281 317 249ZM493 566L634 566 634 683 493 683ZM493 537L493 423 634 423 634 537ZM434 394L434 926 443 926C469 926 493 912 493 905L493 712 634 712 634 916 643 916C673 916 693 900 693 895L693 712 835 712 835 830C835 843 831 848 817 848 801 848 736 843 736 843L736 859C767 863 785 870 795 880 806 891 809 908 811 927 889 919 898 888 898 838L898 436C918 431 934 423 941 416L858 354 825 394 498 394 434 363ZM693 423L835 423 835 537 693 537ZM693 566L835 566 835 683 693 683ZM226 12C185 200 110 394 35 518L51 528C88 486 123 435 156 379L156 928 167 928C191 928 217 912 218 907L218 310C236 308 245 301 248 292L209 278C241 210 269 137 292 63 314 64 325 55 329 42Z"/>
</svg>