<svg xmlns="http://www.w3.org/2000/svg" name="gid2853" data-unicode="傚"
    viewBox="0 0 1000 1000">
  <!--
© 2017-2024 Adobe (http://www.adobe.com/).
Noto is a trademark of Google Inc.
This Font Software is licensed under the SIL Open Font License, Version 1.1. This Font Software is distributed on an "AS IS" BASIS, WITHOUT WARRANTIES OR CONDITIONS OF ANY KIND, either express or implied. See the SIL Open Font License for the specific language, permissions and limitations governing your use of this Font Software.
http://scripts.sil.org/OFL
  -->
<path d="M463 292L453 300C490 333 535 391 548 436 612 479 660 351 463 292ZM335 285C315 352 270 451 220 516L233 529C298 475 355 395 386 337 410 341 418 336 424 326ZM690 44C676 224 636 404 580 530L596 539C625 499 651 452 673 399 685 498 704 592 733 677 682 779 609 869 507 946L517 959C622 898 699 824 757 739 793 824 843 900 911 959 921 928 943 912 973 907L976 898C895 845 834 772 789 686 851 572 884 440 901 290L943 290C957 290 966 285 968 274 939 245 889 204 889 204L846 260 720 260C735 206 748 149 757 91 779 91 790 81 794 69ZM758 622C725 542 703 454 688 361 696 338 704 314 712 290L832 290C822 410 800 521 758 622ZM395 51L395 228 235 228 242 257 617 257C631 257 640 252 642 242 612 211 562 172 562 172L516 228 459 228 459 87C481 83 490 74 492 61ZM476 448C467 492 453 538 436 585 404 555 364 524 316 492L302 500C336 539 377 589 414 642 370 746 306 849 223 922L234 935C327 872 397 784 449 693 479 738 504 783 517 821 578 862 611 770 482 630 503 585 520 541 534 499 560 501 569 496 575 485ZM199 42C162 223 97 413 31 537L45 546C79 504 110 455 139 401L139 958 150 958C173 958 200 942 201 937L201 340C218 338 228 331 231 322L185 306C215 238 241 165 262 92 284 92 296 84 299 71Z"/>
</svg>