<svg xmlns="http://www.w3.org/2000/svg"
    viewBox="0 0 1000 1000">
  <!--
© 2017-2023 Adobe (http://www.adobe.com/).
Noto is a trademark of Google Inc.
This Font Software is licensed under the SIL Open Font License, Version 1.1. This Font Software is distributed on an "AS IS" BASIS, WITHOUT WARRANTIES OR CONDITIONS OF ANY KIND, either express or implied. See the SIL Open Font License for the specific language, permissions and limitations governing your use of this Font Software.
http://scripts.sil.org/OFL
  -->
<path d="M755 745L745 753C801 793 877 864 904 918 980 956 1012 805 755 745ZM616 731C569 791 475 866 396 913L406 927C500 894 611 838 669 788 686 793 698 792 703 783ZM524 231L524 752 534 752C562 752 586 738 586 731L586 702 830 702 830 738 840 738C861 738 893 723 894 716L894 272C913 268 929 260 936 253L857 191 820 231 693 231C713 198 735 153 752 116L942 116C956 116 966 111 967 100 935 70 882 29 882 29L836 87 454 87 462 116 677 116C671 151 663 196 655 231L591 231 524 200ZM586 405L830 405 830 522 586 522ZM586 376L586 261 830 261 830 376ZM586 551L830 551 830 673 586 673ZM441 269C422 299 380 355 341 399L341 179C362 175 371 165 373 152L283 142 283 693C283 734 292 751 345 751L390 751C474 751 499 741 499 716 499 704 493 698 474 691L471 596 458 596C451 632 441 679 435 689 432 694 429 695 424 696 419 696 406 696 391 696L360 696C344 696 341 692 341 678L341 429C395 397 453 352 481 326 496 332 504 330 509 323ZM199 12C162 193 97 383 31 507L45 516C78 475 109 427 137 375L137 927 149 927C172 927 199 911 200 906L200 311C217 309 227 302 230 293L185 277C215 209 241 136 262 62 284 62 296 54 299 41Z"/>
</svg>