<svg xmlns="http://www.w3.org/2000/svg" name="gid2877" data-unicode="傾"
    viewBox="0 0 1000 1000">
  <!--
© 2017-2024 Adobe (http://www.adobe.com/).
Noto is a trademark of Google Inc.
This Font Software is licensed under the SIL Open Font License, Version 1.1. This Font Software is distributed on an "AS IS" BASIS, WITHOUT WARRANTIES OR CONDITIONS OF ANY KIND, either express or implied. See the SIL Open Font License for the specific language, permissions and limitations governing your use of this Font Software.
http://scripts.sil.org/OFL
  -->
<path d="M755 775L745 783C801 823 877 894 904 948 980 986 1012 835 755 775ZM616 761C569 821 475 896 396 943L406 957C500 924 611 868 669 818 686 823 698 822 703 813ZM524 261L524 782 534 782C562 782 586 768 586 761L586 732 830 732 830 768 840 768C861 768 893 753 894 746L894 302C913 298 929 290 936 283L857 221 820 261 693 261C713 228 735 183 752 146L942 146C956 146 966 141 967 130 935 100 882 59 882 59L836 117 454 117 462 146 677 146C671 181 663 226 655 261L591 261 524 230ZM586 435L830 435 830 552 586 552ZM586 406L586 291 830 291 830 406ZM586 581L830 581 830 703 586 703ZM441 299C422 329 380 385 341 429L341 209C362 205 371 195 373 182L283 172 283 723C283 764 292 781 345 781L390 781C474 781 499 771 499 746 499 734 493 728 474 721L471 626 458 626C451 662 441 709 435 719 432 724 429 725 424 726 419 726 406 726 391 726L360 726C344 726 341 722 341 708L341 459C395 427 453 382 481 356 496 362 504 360 509 353ZM199 42C162 223 97 413 31 537L45 546C78 505 109 457 137 405L137 957 149 957C172 957 199 941 200 936L200 341C217 339 227 332 230 323L185 307C215 239 241 166 262 92 284 92 296 84 299 71Z"/>
</svg>