<svg xmlns="http://www.w3.org/2000/svg" name="gid2908" data-unicode="僦"
    viewBox="0 0 1000 1000">
  <!--
© 2017-2024 Adobe (http://www.adobe.com/).
Noto is a trademark of Google Inc.
This Font Software is licensed under the SIL Open Font License, Version 1.1. This Font Software is distributed on an "AS IS" BASIS, WITHOUT WARRANTIES OR CONDITIONS OF ANY KIND, either express or implied. See the SIL Open Font License for the specific language, permissions and limitations governing your use of this Font Software.
http://scripts.sil.org/OFL
  -->
<path d="M318 630C302 716 271 800 236 856L251 866C300 821 342 750 370 674 390 675 401 665 404 653ZM516 632L502 637C523 674 548 733 552 777 602 824 660 722 516 632ZM826 92L814 97C833 127 857 175 863 212 914 256 975 156 826 92ZM361 352L526 352 526 514 361 514ZM711 46C711 139 712 232 709 322L607 322 611 338 550 291 518 322 373 322 302 292 302 584 311 584C341 584 361 570 361 565L361 544 412 544 412 870C412 881 408 887 394 887 379 887 313 882 313 882L313 896C347 900 364 907 374 917 383 927 387 943 388 960 462 952 473 919 473 870L473 544 526 544 526 575 535 575C554 575 584 561 585 555L585 357C597 355 608 350 613 345L615 352 708 352C697 573 658 780 515 942L530 958C648 850 708 719 739 578L739 884C739 925 749 943 803 943L852 943C938 943 963 929 963 903 963 892 960 884 941 876L937 744 924 744C915 796 904 859 898 873 895 881 892 883 886 884 881 884 868 884 852 884L819 884C803 884 800 880 800 867L800 471C820 468 829 458 830 446L761 438 768 352 934 352C948 352 958 347 961 336 930 307 882 267 882 267L838 322 769 322C773 243 773 162 774 83 799 80 807 69 810 55ZM261 205L269 234 637 234C651 234 660 229 663 218 633 189 585 150 585 150L544 205 472 205 472 85C496 82 506 72 508 58L411 49 411 205ZM207 42C171 223 106 411 39 534L54 544C87 503 118 455 147 402L147 958 159 958C182 958 209 942 210 937L210 340C227 338 237 331 240 322L194 306C225 238 251 165 272 92 294 92 306 84 308 71Z"/>
</svg>