<svg xmlns="http://www.w3.org/2000/svg" name="gid2922" data-unicode="價"
    viewBox="0 0 1000 1000">
  <!--
© 2017-2024 Adobe (http://www.adobe.com/).
Noto is a trademark of Google Inc.
This Font Software is licensed under the SIL Open Font License, Version 1.1. This Font Software is distributed on an "AS IS" BASIS, WITHOUT WARRANTIES OR CONDITIONS OF ANY KIND, either express or implied. See the SIL Open Font License for the specific language, permissions and limitations governing your use of this Font Software.
http://scripts.sil.org/OFL
  -->
<path d="M522 785C473 837 366 906 270 943L277 957C384 935 501 888 567 847 590 851 606 848 614 840ZM676 802L670 818C776 854 848 901 887 944 954 1001 1068 850 676 802ZM506 355L395 355 395 247 506 247ZM566 355L566 247 678 247 678 355ZM737 355L737 247 851 247 851 355ZM843 216L851 217 737 217 737 136 931 136C945 136 956 131 958 120 924 90 871 48 871 48L822 107 321 107 329 136 506 136 506 217 401 217 332 186 332 421 342 421C367 421 395 407 395 402L395 384 851 384 851 413 861 413C882 413 914 399 915 392L915 253C931 250 944 243 949 236L876 181ZM566 136L678 136 678 217 566 217ZM372 448L372 817 383 817C409 817 436 802 436 796L436 771 810 771 810 808 819 808C841 808 874 793 875 786L875 484C890 481 903 474 908 467L835 411 802 448 442 448 372 416ZM436 741L436 673 810 673 810 741ZM436 574L810 574 810 643 436 643ZM436 545L436 476 810 476 810 545ZM233 42C190 231 112 426 36 550L51 560C90 517 127 465 161 408L161 958 171 958C196 958 223 941 225 936L225 339C242 337 251 330 254 321L216 307C249 239 278 167 302 94 324 94 336 86 340 73Z"/>
</svg>