<svg xmlns="http://www.w3.org/2000/svg" name="gid2942" data-unicode="儕"
    viewBox="0 0 1000 1000">
  <!--
© 2017-2024 Adobe (http://www.adobe.com/).
Noto is a trademark of Google Inc.
This Font Software is licensed under the SIL Open Font License, Version 1.1. This Font Software is distributed on an "AS IS" BASIS, WITHOUT WARRANTIES OR CONDITIONS OF ANY KIND, either express or implied. See the SIL Open Font License for the specific language, permissions and limitations governing your use of this Font Software.
http://scripts.sil.org/OFL
  -->
<path d="M500 176L490 183C513 207 539 250 543 284 591 323 641 226 500 176ZM574 310L574 513 585 513C605 513 630 501 630 494L630 341C648 338 656 330 657 319L630 316C659 290 689 254 712 219 732 221 744 213 748 203L672 173 932 173C946 173 956 168 959 157 925 126 872 86 872 86L825 143 637 143 637 77C658 73 667 64 669 51L571 42 571 143 291 143 299 173 669 173C650 226 628 280 605 313ZM454 263L454 265 276 265 285 295 349 295C344 362 327 443 249 513L265 528C366 462 392 372 401 295L453 295C451 390 447 429 437 438 432 442 427 443 416 443 402 443 376 441 357 440L357 459C372 461 387 465 395 472 404 480 406 495 406 508 430 508 451 502 469 488 494 468 502 422 504 298 522 295 533 291 540 283L474 232 444 263ZM781 637L781 741 438 741C446 706 449 671 450 640L450 637ZM385 527L385 638C385 737 366 861 260 945L273 958C364 910 409 841 430 771L781 771 781 958 794 958C819 958 846 944 846 936L846 567C872 563 881 553 883 539L781 528 781 607 450 607 450 563C473 560 480 550 482 537ZM877 208C852 225 813 251 778 271L709 253 709 438 664 447 695 513C704 511 710 503 714 491 774 464 822 440 857 423 875 459 897 488 924 511 931 483 948 467 970 462L971 451C911 423 861 363 834 283 863 275 891 267 911 261 932 266 942 263 946 254ZM763 426L763 300 815 288C823 332 835 371 849 405ZM226 43C186 230 112 424 38 548L53 557C89 515 124 465 156 410L156 958 166 958C190 958 217 942 218 937L218 340C235 338 244 331 248 322L209 308C241 240 268 168 291 94 314 94 325 85 329 73Z"/>
</svg>