<svg xmlns="http://www.w3.org/2000/svg"
    viewBox="0 0 1000 1000">
  <!--
© 2017-2024 Adobe (http://www.adobe.com/).
Noto is a trademark of Google Inc.
This Font Software is licensed under the SIL Open Font License, Version 1.1. This Font Software is distributed on an "AS IS" BASIS, WITHOUT WARRANTIES OR CONDITIONS OF ANY KIND, either express or implied. See the SIL Open Font License for the specific language, permissions and limitations governing your use of this Font Software.
http://scripts.sil.org/OFL
  -->
<path d="M199 12C162 193 97 383 31 507L45 516C79 474 110 425 139 371L139 928 150 928C173 928 200 912 201 907L201 310C218 308 228 301 231 292L185 276C215 208 241 135 262 62 284 62 296 54 299 41ZM314 332C303 419 281 505 250 565L266 573C294 544 320 506 340 462L396 462C395 512 394 559 390 603L246 603 254 632 387 632C373 740 336 830 230 902L243 919C353 861 406 787 432 697 460 731 492 777 501 812 556 852 605 744 437 678L446 632 570 632C583 632 592 627 595 616 570 590 530 555 530 555L494 603 450 603C455 559 456 512 457 462L561 462C574 462 583 457 585 446 560 419 518 386 518 386L482 432 353 432C361 414 367 395 373 376 394 376 404 367 407 355ZM519 60C487 85 421 130 367 159L367 55C383 52 393 43 394 31L307 20 307 264C307 305 318 320 380 320L453 320C566 320 592 311 592 285 592 273 585 268 567 261L564 198 552 198C545 225 536 253 530 261 525 266 522 267 514 267 506 268 483 268 455 268L393 268C370 268 367 265 367 252L367 178C435 161 511 132 550 114 563 120 572 119 577 114ZM651 152L640 160C690 198 757 263 780 313 830 340 861 270 775 207 825 179 884 135 916 99 937 98 949 96 956 90L886 22 846 61 585 61 594 90 841 90C818 125 785 168 759 197 732 180 697 165 651 152ZM610 475C614 660 580 803 505 914L520 926C580 871 619 796 643 703 688 857 766 910 887 910 899 910 925 910 938 910 939 884 949 863 967 860L967 846C945 846 911 846 894 846 854 846 820 841 789 829L789 612 928 612C942 612 951 607 953 596 927 569 884 534 884 534L846 582 789 582 789 378 865 378C853 411 835 453 822 480L837 487C868 461 907 418 930 387 948 386 961 384 967 377L899 312 863 349 576 349 585 378 729 378 729 793C697 764 672 723 652 665 662 618 668 566 672 511 694 508 702 498 705 484Z"/>
</svg>