<svg xmlns="http://www.w3.org/2000/svg"
    viewBox="0 0 1000 1000">
  <!--
© 2017-2024 Adobe (http://www.adobe.com/).
Noto is a trademark of Google Inc.
This Font Software is licensed under the SIL Open Font License, Version 1.1. This Font Software is distributed on an "AS IS" BASIS, WITHOUT WARRANTIES OR CONDITIONS OF ANY KIND, either express or implied. See the SIL Open Font License for the specific language, permissions and limitations governing your use of this Font Software.
http://scripts.sil.org/OFL
  -->
<path d="M315 71C265 178 157 307 34 386L43 399C104 372 162 335 212 295L212 607 222 607C248 607 276 592 276 585L276 557 377 557C367 703 328 823 44 913L53 930C389 852 429 726 446 557L556 557 556 846C556 897 572 913 653 913L764 913C926 913 957 901 957 871 957 858 952 850 929 842L927 707 914 707C901 766 890 821 883 837 878 847 875 850 863 851 848 852 812 853 766 853L664 853C626 853 621 848 621 833L621 557 724 557 724 598 734 598C756 598 788 584 789 577L789 327C799 325 808 322 814 318 842 336 870 352 900 367 908 342 932 320 959 314L961 303C814 260 689 173 639 87 669 86 693 79 703 68L618 10 588 56 406 56 415 85 611 85C638 150 683 210 740 261L715 289 282 289 242 270C295 223 339 172 370 125 392 130 401 125 407 114ZM276 528L276 317 724 317 724 528Z"/>
</svg>