<svg xmlns="http://www.w3.org/2000/svg"
    viewBox="0 0 1000 1000">
  <!--
© 2017-2024 Adobe (http://www.adobe.com/).
Noto is a trademark of Google Inc.
This Font Software is licensed under the SIL Open Font License, Version 1.1. This Font Software is distributed on an "AS IS" BASIS, WITHOUT WARRANTIES OR CONDITIONS OF ANY KIND, either express or implied. See the SIL Open Font License for the specific language, permissions and limitations governing your use of this Font Software.
http://scripts.sil.org/OFL
  -->
<path d="M666 583L656 591C699 628 754 693 768 743 833 788 878 652 666 583ZM771 279L771 492 506 492C520 428 527 357 531 279ZM807 11C645 56 340 107 96 126L99 146C218 144 345 135 465 124 466 168 466 209 465 249L236 249 165 217 165 577 174 577C201 577 229 561 229 555L229 522 431 522C382 693 274 816 43 916L52 931C327 843 447 714 498 522L547 522 547 838C547 889 564 904 645 904L761 904C925 904 956 893 956 864 956 850 951 842 928 835L926 691 913 691C901 754 890 812 882 830 878 840 874 842 861 844 846 845 809 846 762 846L655 846C615 846 611 841 611 824L611 522 771 522 771 560 781 560C803 560 835 545 836 539L836 291C856 288 872 279 879 271L798 210 761 249 532 249C534 207 534 163 534 117 642 106 743 92 826 78 850 89 869 90 878 81ZM229 492L229 279 464 279C461 357 454 428 439 492Z"/>
</svg>