<svg xmlns="http://www.w3.org/2000/svg" name="gid3016" data-unicode="其"
    viewBox="0 0 1000 1000">
  <!--
© 2017-2024 Adobe (http://www.adobe.com/).
Noto is a trademark of Google Inc.
This Font Software is licensed under the SIL Open Font License, Version 1.1. This Font Software is distributed on an "AS IS" BASIS, WITHOUT WARRANTIES OR CONDITIONS OF ANY KIND, either express or implied. See the SIL Open Font License for the specific language, permissions and limitations governing your use of this Font Software.
http://scripts.sil.org/OFL
  -->
<path d="M600 751L594 767C724 821 814 886 861 942 931 1004 1041 842 600 751ZM353 736C295 803 168 895 52 945L60 959C190 924 325 854 401 796 428 800 442 797 448 786ZM660 44L660 194 343 194 343 82C368 78 377 68 379 54L278 44 278 194 65 194 74 224 278 224 278 679 42 679 51 709 934 709C949 709 958 704 961 693 926 661 868 617 868 617L818 679 726 679 726 224 913 224C927 224 937 219 939 208 906 177 851 135 851 135L803 194 726 194 726 82C751 78 760 68 762 54ZM343 679L343 545 660 545 660 679ZM343 224L660 224 660 351 343 351ZM343 380L660 380 660 515 343 515Z"/>
</svg>