<svg xmlns="http://www.w3.org/2000/svg"
    viewBox="0 0 1000 1000">
  <!--
© 2017-2023 Adobe (http://www.adobe.com/).
Noto is a trademark of Google Inc.
This Font Software is licensed under the SIL Open Font License, Version 1.1. This Font Software is distributed on an "AS IS" BASIS, WITHOUT WARRANTIES OR CONDITIONS OF ANY KIND, either express or implied. See the SIL Open Font License for the specific language, permissions and limitations governing your use of this Font Software.
http://scripts.sil.org/OFL
  -->
<path d="M602 537L602 928 615 928C638 928 667 914 667 906L667 570C679 568 687 565 690 559 754 607 831 645 910 672 918 640 937 619 964 613L965 603C830 576 680 517 601 433L915 433C930 433 940 428 942 417 909 387 856 345 856 345L808 404 530 404 530 300 823 300C836 300 845 295 848 285 816 255 764 216 764 216L719 271 530 271 530 176 876 176C890 176 900 171 903 160 869 130 816 89 816 89L767 147 621 147C656 120 693 88 717 62 737 65 751 57 755 46L651 13C635 54 611 107 589 147L405 147C435 122 424 45 288 16L278 22C310 53 347 105 354 147L109 147 118 176 463 176 463 271 160 271 168 300 463 300 463 404 61 404 70 433 351 433C279 526 168 606 38 662L47 678C152 645 247 601 323 544L323 645C323 747 282 850 76 913L85 929C339 870 385 755 388 647L388 570C411 567 419 557 420 546L334 536C374 505 408 471 437 433L574 433C599 475 633 512 672 544Z"/>
</svg>