<svg xmlns="http://www.w3.org/2000/svg" name="gid3032" data-unicode="册"
    viewBox="0 0 1000 1000">
  <!--
© 2017-2024 Adobe (http://www.adobe.com/).
Noto is a trademark of Google Inc.
This Font Software is licensed under the SIL Open Font License, Version 1.1. This Font Software is distributed on an "AS IS" BASIS, WITHOUT WARRANTIES OR CONDITIONS OF ANY KIND, either express or implied. See the SIL Open Font License for the specific language, permissions and limitations governing your use of this Font Software.
http://scripts.sil.org/OFL
  -->
<path d="M216 138L368 138 368 450 215 450 216 379ZM39 450L48 480 152 480C147 643 128 809 49 947L65 957C181 822 208 639 214 480L368 480 368 839C368 855 363 862 345 862 324 862 222 854 222 854L222 870C266 876 293 884 307 896 320 905 325 922 329 943 422 933 432 900 432 847L432 480 542 480C538 641 520 807 447 947L463 957C573 819 599 638 604 480L776 480 776 852C776 869 771 875 751 875 730 875 626 867 626 867L626 883C672 889 698 897 713 908 726 918 733 936 736 956 830 946 839 912 839 860L839 480 948 480C962 480 970 475 973 464 944 435 895 392 895 392L851 450 839 450 839 151C860 147 877 139 884 130L799 67 766 109 619 109 543 76 543 374 542 450 432 450 432 150C451 147 468 139 474 130L391 67 358 109 228 109 153 76 153 380 152 450ZM606 138L776 138 776 450 605 450 606 373Z"/>
</svg>