<svg xmlns="http://www.w3.org/2000/svg"
    viewBox="0 0 1000 1000">
  <!--
© 2017-2023 Adobe (http://www.adobe.com/).
Noto is a trademark of Google Inc.
This Font Software is licensed under the SIL Open Font License, Version 1.1. This Font Software is distributed on an "AS IS" BASIS, WITHOUT WARRANTIES OR CONDITIONS OF ANY KIND, either express or implied. See the SIL Open Font License for the specific language, permissions and limitations governing your use of this Font Software.
http://scripts.sil.org/OFL
  -->
<path d="M324 580L332 610 669 610C683 610 691 605 693 594 666 567 622 532 622 532L583 580ZM319 703L327 732 675 732C688 732 697 727 699 716 672 689 626 654 626 654L587 703ZM229 457L229 928 240 928C268 928 295 912 295 905L295 486 717 486 717 830C717 845 712 851 693 851 669 851 559 843 559 843L559 859C607 864 634 872 650 883 665 893 671 911 674 930 771 921 783 887 783 836L783 498C803 495 820 486 826 480L741 416 707 457 300 457 229 424ZM786 252L786 347 531 347 531 252ZM786 223L531 223 531 130 786 130ZM222 252L466 252 466 347 222 347ZM222 223L222 130 466 130 466 223ZM466 7L466 101 229 101 158 69 158 424 167 424C194 424 222 409 222 403L222 376 786 376 786 416 796 416C817 416 850 402 851 395L851 143C871 139 887 131 894 123L813 61 776 101 531 101 531 45C556 41 566 31 568 17Z"/>
</svg>