<svg xmlns="http://www.w3.org/2000/svg" name="gid3039" data-unicode="冓"
    viewBox="0 0 1000 1000">
  <!--
© 2017-2024 Adobe (http://www.adobe.com/).
Noto is a trademark of Google Inc.
This Font Software is licensed under the SIL Open Font License, Version 1.1. This Font Software is distributed on an "AS IS" BASIS, WITHOUT WARRANTIES OR CONDITIONS OF ANY KIND, either express or implied. See the SIL Open Font License for the specific language, permissions and limitations governing your use of this Font Software.
http://scripts.sil.org/OFL
  -->
<path d="M205 471L205 722 50 722 59 751 205 751 205 960 216 960C243 960 270 944 270 936L270 751 732 751 732 856C732 871 727 877 708 877 685 877 577 869 577 869L577 884C624 891 651 899 667 909 681 920 686 938 689 958 786 949 797 915 797 865L797 751 937 751C951 751 961 746 964 735 932 705 881 663 881 663L836 722 797 722 797 513C818 510 833 501 840 493L755 430 722 471 528 471 528 402 923 402C937 402 947 397 950 386 916 357 864 317 864 316L817 373 661 373 661 284 855 284C869 284 879 279 881 268 850 240 801 202 801 202L758 255 661 255 661 172 891 172C904 172 915 167 917 156 885 126 831 86 831 86L786 142 661 142 661 79C684 75 692 67 694 53L596 44 596 142 394 142 394 79C417 75 425 67 427 53L329 44 329 142 103 142 112 172 329 172 329 255 137 255 146 284 329 284 329 373 59 373 68 402 463 402 463 471 276 471 205 439ZM732 722L528 722 528 625 732 625ZM732 596L528 596 528 501 732 501ZM463 722L270 722 270 625 463 625ZM463 596L270 596 270 501 463 501ZM394 373L394 284 596 284 596 373ZM394 255L394 172 596 172 596 255Z"/>
</svg>