<svg xmlns="http://www.w3.org/2000/svg" name="gid3040" data-unicode="冕"
    viewBox="0 0 1000 1000">
  <!--
© 2017-2024 Adobe (http://www.adobe.com/).
Noto is a trademark of Google Inc.
This Font Software is licensed under the SIL Open Font License, Version 1.1. This Font Software is distributed on an "AS IS" BASIS, WITHOUT WARRANTIES OR CONDITIONS OF ANY KIND, either express or implied. See the SIL Open Font License for the specific language, permissions and limitations governing your use of this Font Software.
http://scripts.sil.org/OFL
  -->
<path d="M652 241L613 284 269 284 277 314 698 314C712 314 722 309 724 298 695 272 652 241 652 241ZM647 147L610 188 275 188 283 218 692 218C705 218 714 213 717 202 689 177 647 147 647 147ZM248 716L248 684 446 684C407 787 306 873 37 942L46 960C358 893 469 802 513 684L550 684 550 869C550 917 564 931 645 931L764 931C931 931 961 920 961 891 961 878 955 871 933 864L931 753 918 753C907 802 897 845 889 861 885 870 882 872 869 873 853 874 814 874 766 874L656 874C616 874 612 871 612 858L612 684 768 684 768 722 777 722C798 722 830 708 831 702L831 543C851 539 867 531 874 523L794 462 758 502 541 502C580 482 619 456 646 437 666 436 678 434 686 428L614 360 574 401 368 401 400 368C427 369 438 363 443 352L350 319C294 409 166 530 37 598L48 611C96 593 143 569 186 543L186 737 197 737C227 737 248 721 248 716ZM214 361L214 123 776 123 776 367 786 367C807 367 839 352 840 347L840 134C860 130 877 123 884 115L803 53 766 93 221 93 151 61 151 382 160 382C187 382 214 368 214 361ZM502 502L260 502 253 499C283 477 311 454 336 431L564 431C547 454 524 481 502 502ZM456 654L248 654 248 531 472 531C470 574 466 615 456 654ZM522 654C532 616 537 575 540 531L768 531 768 654Z"/>
</svg>