<svg xmlns="http://www.w3.org/2000/svg"
    viewBox="0 0 1000 1000">
  <!--
© 2017-2024 Adobe (http://www.adobe.com/).
Noto is a trademark of Google Inc.
This Font Software is licensed under the SIL Open Font License, Version 1.1. This Font Software is distributed on an "AS IS" BASIS, WITHOUT WARRANTIES OR CONDITIONS OF ANY KIND, either express or implied. See the SIL Open Font License for the specific language, permissions and limitations governing your use of this Font Software.
http://scripts.sil.org/OFL
  -->
<path d="M306 311L306 491C306 653 260 799 39 912L50 927C333 819 371 644 371 489L371 341 623 341 623 831C623 882 639 900 711 900L797 900C930 900 962 888 962 858 962 845 956 837 934 829L931 693 918 693C908 749 895 810 890 825 885 834 880 836 871 837 859 838 832 839 799 839L724 839C694 839 689 833 689 815L689 353C709 350 721 345 728 337L650 270 614 311 383 311 306 275ZM162 48C170 127 131 197 88 223 66 237 53 259 63 281 76 305 113 302 140 282 171 259 202 207 195 127L833 127C817 171 792 230 774 266L787 273C829 239 886 179 917 140 938 138 949 137 956 130L877 52 832 97 191 97C188 81 184 65 178 47Z"/>
</svg>