<svg xmlns="http://www.w3.org/2000/svg" name="gid3044" data-unicode="写"
    viewBox="0 0 1000 1000">
  <!--
© 2017-2024 Adobe (http://www.adobe.com/).
Noto is a trademark of Google Inc.
This Font Software is licensed under the SIL Open Font License, Version 1.1. This Font Software is distributed on an "AS IS" BASIS, WITHOUT WARRANTIES OR CONDITIONS OF ANY KIND, either express or implied. See the SIL Open Font License for the specific language, permissions and limitations governing your use of this Font Software.
http://scripts.sil.org/OFL
  -->
<path d="M161 71C166 142 131 209 92 234 71 247 58 270 69 291 81 315 118 311 142 292 171 268 198 219 193 146L834 146C819 187 798 239 781 272L793 279C834 249 889 197 918 160 938 158 950 157 957 149L877 72 832 117 189 117C187 102 183 87 178 71ZM323 187C310 277 258 483 225 570 253 579 280 578 295 569L311 514 678 514C674 568 668 618 661 663L45 663 54 693 657 693C642 783 622 846 600 865 588 874 578 876 557 876 534 876 448 869 399 864L399 882C441 888 489 899 506 909 522 921 527 939 527 957 573 957 613 945 642 920 677 890 704 807 723 693L931 693C945 693 955 688 957 677 923 644 868 601 868 601L818 663 728 663C734 620 739 573 743 523 764 520 775 516 783 508L708 445 670 486 319 486 355 351 782 351C796 351 806 346 809 335 775 305 723 264 723 264L677 321 362 321 384 227C409 224 419 214 421 201Z"/>
</svg>