<svg xmlns="http://www.w3.org/2000/svg"
    viewBox="0 0 1000 1000">
  <!--
© 2017-2023 Adobe (http://www.adobe.com/).
Noto is a trademark of Google Inc.
This Font Software is licensed under the SIL Open Font License, Version 1.1. This Font Software is distributed on an "AS IS" BASIS, WITHOUT WARRANTIES OR CONDITIONS OF ANY KIND, either express or implied. See the SIL Open Font License for the specific language, permissions and limitations governing your use of this Font Software.
http://scripts.sil.org/OFL
  -->
<path d="M164 480L154 490C183 508 214 533 242 560 181 594 117 623 56 644L63 662C131 643 202 618 269 589 293 617 313 646 322 674 373 703 403 632 329 562 385 535 437 505 480 475 493 501 502 527 510 553 405 677 217 788 42 846L49 864C224 819 405 734 527 639 537 728 521 805 487 839 480 847 470 848 456 848 429 848 351 844 309 841L310 857C347 863 386 873 399 882 412 892 420 906 420 928 479 928 515 917 537 892 631 806 629 518 421 347 459 325 495 301 526 275L561 275C603 552 711 738 898 850 912 817 937 798 969 796L972 786C851 732 752 647 681 532 755 496 833 447 878 410 900 416 908 412 915 403L828 347C794 394 729 461 669 511 630 442 600 363 582 275L800 275C814 275 824 270 827 259 794 229 742 189 742 189L695 245 178 245 186 275 425 275C331 350 197 419 56 465L65 481C186 453 304 411 402 358 419 376 433 395 446 415 405 455 350 496 290 533 259 513 218 494 164 480ZM162 39C164 103 121 155 79 173 57 185 43 205 51 226 62 251 99 251 125 236 156 218 187 178 189 115L837 115C827 146 812 183 801 207L814 215C848 194 893 156 918 128 938 127 949 125 957 118L879 43 835 86 188 86C187 71 184 56 179 39Z"/>
</svg>