<svg xmlns="http://www.w3.org/2000/svg"
    viewBox="0 0 1000 1000">
  <!--
© 2017-2023 Adobe (http://www.adobe.com/).
Noto is a trademark of Google Inc.
This Font Software is licensed under the SIL Open Font License, Version 1.1. This Font Software is distributed on an "AS IS" BASIS, WITHOUT WARRANTIES OR CONDITIONS OF ANY KIND, either express or implied. See the SIL Open Font License for the specific language, permissions and limitations governing your use of this Font Software.
http://scripts.sil.org/OFL
  -->
<path d="M503 300L512 330 573 330C593 470 629 590 683 689 633 762 570 825 489 876L499 889C586 846 654 793 709 732 759 811 822 875 899 925 913 896 937 879 965 878L969 869C881 826 807 764 746 685 822 583 865 463 892 339 913 337 923 334 930 325L859 261 819 300ZM715 640C658 553 617 448 594 330L823 330C803 440 769 546 715 640ZM157 36C161 99 123 152 82 172 61 183 46 203 55 224 63 241 81 246 101 242L109 271 168 271 168 747 58 760 95 849C105 846 114 839 119 826 244 790 341 759 414 735L414 927 424 927C456 927 477 910 477 905L477 271 555 271C567 271 577 266 580 255 548 224 494 183 494 183L447 242 102 242C111 241 119 237 127 233 156 215 185 175 186 113L831 113C819 147 799 189 785 216L797 223C836 199 888 157 917 126 937 125 948 124 956 116L875 39 830 84 185 84C183 69 180 52 175 35ZM232 271L414 271 414 398 232 398ZM232 426L414 426 414 557 232 557ZM232 587L414 587 414 713 232 739Z"/>
</svg>