<svg xmlns="http://www.w3.org/2000/svg"
    viewBox="0 0 1000 1000">
  <!--
© 2017-2023 Adobe (http://www.adobe.com/).
Noto is a trademark of Google Inc.
This Font Software is licensed under the SIL Open Font License, Version 1.1. This Font Software is distributed on an "AS IS" BASIS, WITHOUT WARRANTIES OR CONDITIONS OF ANY KIND, either express or implied. See the SIL Open Font License for the specific language, permissions and limitations governing your use of this Font Software.
http://scripts.sil.org/OFL
  -->
<path d="M93 52L83 60C128 100 183 169 197 224 268 275 320 125 93 52ZM89 589C78 589 43 589 43 589L43 610C64 612 79 615 93 624 114 638 120 710 107 811 109 842 120 860 138 860 170 860 187 835 189 794 193 716 168 670 167 629 166 607 174 578 183 551 198 511 287 314 329 214L311 208C135 538 135 538 114 570 104 589 101 589 89 589ZM695 21C684 79 664 154 644 211L475 211 470 209C490 161 508 111 524 60 546 61 558 51 562 39L459 13C417 208 337 400 252 523L267 532C315 482 360 421 400 351L400 928 410 928C441 928 462 911 462 906L462 847 936 847C950 847 961 842 963 831 930 801 878 758 878 758L830 818 699 818 699 638 909 638C923 638 934 633 936 622 904 593 852 551 852 551L808 610 699 610 699 437 902 437C916 437 926 432 929 421 897 391 845 350 845 350L801 408 699 408 699 239 923 239C937 239 947 234 949 223 917 194 864 152 864 152L818 211 675 211C710 165 743 109 765 67 786 68 798 58 801 46ZM462 239L634 239 634 408 462 408ZM462 437L634 437 634 610 462 610ZM462 638L634 638 634 818 462 818Z"/>
</svg>