<svg xmlns="http://www.w3.org/2000/svg" name="gid3080" data-unicode="凊"
    viewBox="0 0 1000 1000">
  <!--
© 2017-2024 Adobe (http://www.adobe.com/).
Noto is a trademark of Google Inc.
This Font Software is licensed under the SIL Open Font License, Version 1.1. This Font Software is distributed on an "AS IS" BASIS, WITHOUT WARRANTIES OR CONDITIONS OF ANY KIND, either express or implied. See the SIL Open Font License for the specific language, permissions and limitations governing your use of this Font Software.
http://scripts.sil.org/OFL
  -->
<path d="M76 110L65 118C108 157 160 223 173 276 244 326 297 178 76 110ZM91 644C80 644 44 644 44 644L44 666C65 668 81 672 94 681 116 694 122 767 109 867 111 899 122 915 139 915 172 915 190 891 192 849 196 771 170 727 169 686 169 662 177 633 186 605 202 563 299 351 347 242L329 235C136 592 136 592 116 626 105 644 102 644 91 644ZM583 43L583 145 334 145 342 174 583 174 583 263 385 263 393 292 583 292 583 386 307 386 315 416 932 416C946 416 956 411 958 400 926 371 876 331 876 331L830 386 648 386 648 292 860 292C874 292 883 287 886 276 855 248 806 208 806 208L761 263 648 263 648 174 904 174C918 174 928 169 931 158 899 129 850 90 850 90L806 145 648 145 648 81C672 77 682 67 684 53ZM386 495L386 957 396 957C424 957 449 941 449 934L449 706 791 706 791 855C791 869 786 875 768 875 747 875 648 868 648 868L648 883C691 890 716 898 731 908 744 919 750 937 753 957 844 948 855 914 855 864L855 533C872 530 887 522 893 515L814 457 781 495 455 495 386 463ZM791 676L648 676 648 523 791 523ZM449 676L449 523 586 523 586 676Z"/>
</svg>