<svg xmlns="http://www.w3.org/2000/svg"
    viewBox="0 0 1000 1000">
  <!--
© 2017-2024 Adobe (http://www.adobe.com/).
Noto is a trademark of Google Inc.
This Font Software is licensed under the SIL Open Font License, Version 1.1. This Font Software is distributed on an "AS IS" BASIS, WITHOUT WARRANTIES OR CONDITIONS OF ANY KIND, either express or implied. See the SIL Open Font License for the specific language, permissions and limitations governing your use of this Font Software.
http://scripts.sil.org/OFL
  -->
<path d="M79 78L68 85C109 125 158 192 168 246 239 298 297 149 79 78ZM93 584C82 584 48 584 48 584L48 605C69 607 84 610 98 619 118 633 123 706 110 806 111 837 123 855 141 855 173 855 193 829 195 788 199 711 172 666 171 624 171 601 178 573 185 546 198 510 268 332 302 239L284 234C137 534 137 534 118 565 108 584 104 584 93 584ZM350 270L350 631 360 631C392 631 412 616 412 611L412 567 534 567C463 693 344 806 196 884L206 899C366 835 494 741 580 621L580 930 592 930C617 930 644 913 644 903L644 577C704 709 803 815 912 876 922 842 943 822 971 818L973 807C858 765 733 675 663 567L816 567 816 616 826 616C857 616 881 602 881 597L881 303C901 300 910 294 917 286L846 231 813 270 644 270 644 173 929 173C943 173 952 168 955 157 921 126 868 85 868 85L821 144 644 144 644 52C670 48 677 38 680 24L580 13 580 144 280 144 288 173 580 173 580 270 424 270 350 238ZM580 298L580 405 412 405 412 298ZM644 298L816 298 816 405 644 405ZM580 433L580 538 412 538 412 433ZM644 433L816 433 816 538 644 538Z"/>
</svg>