<svg xmlns="http://www.w3.org/2000/svg" name="gid3098" data-unicode="凡"
    viewBox="0 0 1000 1000">
  <!--
© 2017-2024 Adobe (http://www.adobe.com/).
Noto is a trademark of Google Inc.
This Font Software is licensed under the SIL Open Font License, Version 1.1. This Font Software is distributed on an "AS IS" BASIS, WITHOUT WARRANTIES OR CONDITIONS OF ANY KIND, either express or implied. See the SIL Open Font License for the specific language, permissions and limitations governing your use of this Font Software.
http://scripts.sil.org/OFL
  -->
<path d="M364 352L353 361C416 414 494 504 514 577 594 633 644 456 364 352ZM245 123L245 404C245 610 212 797 35 945L48 958C281 814 311 597 311 402L311 152 638 152 638 865C638 918 656 939 727 939L806 939C934 939 967 926 967 896 967 883 961 875 938 867L935 714 922 714C911 775 898 846 891 861 888 870 882 873 874 874 863 875 839 875 808 875L741 875C709 875 705 868 705 846L705 166C728 163 740 157 748 149L666 80 627 123 323 123 245 89Z"/>
</svg>