<svg xmlns="http://www.w3.org/2000/svg" name="gid3102" data-unicode="凧"
    viewBox="0 0 1000 1000">
  <!--
© 2017-2024 Adobe (http://www.adobe.com/).
Noto is a trademark of Google Inc.
This Font Software is licensed under the SIL Open Font License, Version 1.1. This Font Software is distributed on an "AS IS" BASIS, WITHOUT WARRANTIES OR CONDITIONS OF ANY KIND, either express or implied. See the SIL Open Font License for the specific language, permissions and limitations governing your use of this Font Software.
http://scripts.sil.org/OFL
  -->
<path d="M290 345L290 823 300 823C324 823 348 808 348 802L348 374 463 374 463 950 476 950C499 950 525 935 525 925L525 374 645 374 645 728C645 741 641 746 627 746 613 746 550 741 550 741L550 757C579 761 597 768 607 778 616 787 620 804 621 822 695 814 703 784 703 736L703 382C719 379 734 372 739 365L665 309 636 345 525 345 525 212C550 208 558 199 560 185L463 174 463 345 353 345 290 314ZM158 113L158 338C158 541 144 764 33 947L48 957C210 776 222 521 222 337L222 142 773 142C770 441 773 780 870 904 896 943 933 969 960 950 973 941 969 917 951 880L967 716 956 713C947 750 936 787 924 825 920 839 915 840 907 829 836 738 830 386 840 158 863 155 878 147 884 140L802 69 762 113 234 113 158 78Z"/>
</svg>