<svg xmlns="http://www.w3.org/2000/svg"
    viewBox="0 0 1000 1000">
  <!--
© 2017-2023 Adobe (http://www.adobe.com/).
Noto is a trademark of Google Inc.
This Font Software is licensed under the SIL Open Font License, Version 1.1. This Font Software is distributed on an "AS IS" BASIS, WITHOUT WARRANTIES OR CONDITIONS OF ANY KIND, either express or implied. See the SIL Open Font License for the specific language, permissions and limitations governing your use of this Font Software.
http://scripts.sil.org/OFL
  -->
<path d="M290 315L290 793 300 793C324 793 348 778 348 772L348 344 463 344 463 920 476 920C499 920 525 905 525 895L525 344 645 344 645 698C645 711 641 716 627 716 613 716 550 711 550 711L550 727C579 731 597 738 607 748 616 757 620 774 621 792 695 784 703 754 703 706L703 352C719 349 734 342 739 335L665 279 636 315 525 315 525 182C550 178 558 169 560 155L463 144 463 315 353 315 290 284ZM158 83L158 308C158 511 144 734 33 917L48 927C210 746 222 491 222 307L222 112 773 112C770 411 773 750 870 874 896 913 933 939 960 920 973 911 969 887 951 850L967 686 956 683C947 720 936 757 924 795 920 809 915 810 907 799 836 708 830 356 840 128 863 125 878 117 884 110L802 39 762 83 234 83 158 48Z"/>
</svg>