<svg xmlns="http://www.w3.org/2000/svg" name="gid3103" data-unicode="凩"
    viewBox="0 0 1000 1000">
  <!--
© 2017-2024 Adobe (http://www.adobe.com/).
Noto is a trademark of Google Inc.
This Font Software is licensed under the SIL Open Font License, Version 1.1. This Font Software is distributed on an "AS IS" BASIS, WITHOUT WARRANTIES OR CONDITIONS OF ANY KIND, either express or implied. See the SIL Open Font License for the specific language, permissions and limitations governing your use of this Font Software.
http://scripts.sil.org/OFL
  -->
<path d="M156 114L156 338C156 541 143 764 31 948L47 958C208 776 220 522 220 338L220 143 773 143C770 441 773 780 871 904 896 942 933 969 961 950 973 940 970 917 952 880L968 716 956 713C947 750 937 787 925 825 921 839 916 840 908 829 836 738 830 386 841 159 863 156 878 148 885 141L803 70 763 114 233 114 156 78ZM466 189L466 387 241 387 248 417 430 417C388 571 307 710 184 812L196 827C321 746 409 643 466 519L466 921 479 921C502 921 529 905 529 897L529 510C594 562 675 645 696 711 770 761 808 600 529 490L529 417 735 417C748 417 758 412 760 401 730 372 681 332 681 332L637 387 529 387 529 225C552 222 559 213 562 199Z"/>
</svg>