<svg xmlns="http://www.w3.org/2000/svg" name="gid3114" data-unicode="凶"
    viewBox="0 0 1000 1000">
  <!--
© 2017-2024 Adobe (http://www.adobe.com/).
Noto is a trademark of Google Inc.
This Font Software is licensed under the SIL Open Font License, Version 1.1. This Font Software is distributed on an "AS IS" BASIS, WITHOUT WARRANTIES OR CONDITIONS OF ANY KIND, either express or implied. See the SIL Open Font License for the specific language, permissions and limitations governing your use of this Font Software.
http://scripts.sil.org/OFL
  -->
<path d="M632 76C606 171 566 272 514 371 445 319 360 264 253 208L240 219C315 273 404 346 483 425 408 554 310 674 190 766L202 778C337 696 443 586 525 468 601 550 664 635 692 711 773 764 801 614 563 411 622 316 667 218 699 127 726 128 736 123 741 111ZM833 108L833 821 163 821 163 147C188 143 195 133 198 119L98 108 98 955 110 955C135 955 163 938 163 929L163 850 833 850 833 946 846 946C871 946 900 929 900 919L900 147C925 143 933 133 935 119Z"/>
</svg>