<svg xmlns="http://www.w3.org/2000/svg" name="gid3119" data-unicode="函"
    viewBox="0 0 1000 1000">
  <!--
© 2017-2024 Adobe (http://www.adobe.com/).
Noto is a trademark of Google Inc.
This Font Software is licensed under the SIL Open Font License, Version 1.1. This Font Software is distributed on an "AS IS" BASIS, WITHOUT WARRANTIES OR CONDITIONS OF ANY KIND, either express or implied. See the SIL Open Font License for the specific language, permissions and limitations governing your use of this Font Software.
http://scripts.sil.org/OFL
  -->
<path d="M195 673L250 745C257 739 263 728 264 716 343 648 405 592 446 554L439 542C339 599 238 654 195 673ZM247 350L237 359C279 396 329 460 342 512 407 558 456 421 247 350ZM577 540L567 550C628 595 710 675 734 740 806 783 840 628 577 540ZM701 311C673 358 622 442 585 491L595 502C644 464 715 405 753 372 774 376 783 372 787 363ZM42 119L51 149 389 149C376 211 350 310 330 354 356 363 382 362 396 354L408 314 499 314C497 582 491 704 470 727 462 736 456 738 440 738 423 738 379 733 351 732L350 749C376 753 403 762 414 771 425 780 427 797 427 817 461 817 494 805 515 781 549 742 558 622 561 322 580 319 592 315 599 307L525 245 490 285 417 285C430 240 444 189 453 149L931 149C945 149 956 144 958 133 922 101 864 56 864 56L813 119ZM826 272L826 850 172 850 172 310C197 307 205 298 208 284L108 273 108 956 121 956C145 956 172 941 172 932L172 880 826 880 826 949 839 949C863 949 891 934 891 926L891 309C915 306 924 296 926 283Z"/>
</svg>