<svg xmlns="http://www.w3.org/2000/svg"
    viewBox="0 0 1000 1000">
  <!--
© 2017-2023 Adobe (http://www.adobe.com/).
Noto is a trademark of Google Inc.
This Font Software is licensed under the SIL Open Font License, Version 1.1. This Font Software is distributed on an "AS IS" BASIS, WITHOUT WARRANTIES OR CONDITIONS OF ANY KIND, either express or implied. See the SIL Open Font License for the specific language, permissions and limitations governing your use of this Font Software.
http://scripts.sil.org/OFL
  -->
<path d="M157 346L150 361C244 397 326 440 393 485 349 634 254 782 48 912L61 929C284 812 394 672 449 524 507 568 550 610 576 645 644 679 680 570 471 458 497 359 504 259 508 161L808 161C801 499 783 777 741 818 728 830 720 833 697 833 672 833 584 824 530 819L528 837C577 845 629 858 649 870 664 881 669 902 669 924 725 924 766 906 796 870 848 807 868 534 876 171 898 168 910 162 918 154L838 85 798 132 110 132 119 161 433 161C431 247 427 337 408 427 343 399 260 371 157 346Z"/>
</svg>