<svg xmlns="http://www.w3.org/2000/svg"
    viewBox="0 0 1000 1000">
  <!--
© 2017-2023 Adobe (http://www.adobe.com/).
Noto is a trademark of Google Inc.
This Font Software is licensed under the SIL Open Font License, Version 1.1. This Font Software is distributed on an "AS IS" BASIS, WITHOUT WARRANTIES OR CONDITIONS OF ANY KIND, either express or implied. See the SIL Open Font License for the specific language, permissions and limitations governing your use of this Font Software.
http://scripts.sil.org/OFL
  -->
<path d="M613 99L613 726 625 726C650 726 678 711 678 702L678 138C703 135 711 125 714 111ZM844 30L844 822C844 838 838 845 818 845 797 845 687 836 687 836L687 852C735 859 762 866 778 878 792 889 798 907 802 928 898 918 910 883 910 828L910 69C934 66 944 56 946 42ZM40 415L48 443 279 443C266 650 218 800 41 913L55 930C271 821 329 666 346 443L569 443C583 443 593 438 596 427 563 397 512 355 512 355L467 415 348 415C352 332 352 241 353 139 413 125 468 109 513 94 538 102 556 102 565 93L480 21C387 74 202 141 46 172L50 189C128 182 208 170 284 154 284 250 284 336 281 415Z"/>
</svg>