<svg xmlns="http://www.w3.org/2000/svg" name="gid3169" data-unicode="剉"
    viewBox="0 0 1000 1000">
  <!--
© 2017-2024 Adobe (http://www.adobe.com/).
Noto is a trademark of Google Inc.
This Font Software is licensed under the SIL Open Font License, Version 1.1. This Font Software is distributed on an "AS IS" BASIS, WITHOUT WARRANTIES OR CONDITIONS OF ANY KIND, either express or implied. See the SIL Open Font License for the specific language, permissions and limitations governing your use of this Font Software.
http://scripts.sil.org/OFL
  -->
<path d="M672 127L672 755 684 755C706 755 733 741 733 732L733 165C757 162 765 152 768 138ZM850 61L850 857C850 872 845 878 828 878 809 878 714 871 714 871L714 887C756 892 780 900 793 910 807 922 812 938 814 958 902 949 912 916 912 863L912 99C936 96 946 86 949 72ZM54 860L99 948C109 945 118 936 122 924 348 863 510 815 628 776L625 759 364 808 364 615 574 615C587 615 597 610 599 599 568 570 518 528 518 528L473 585 364 585 364 78C386 75 394 66 396 52L300 42 300 585 77 585 85 615 300 615 300 820C193 839 105 854 54 860ZM153 135C140 289 96 424 30 518L44 528C100 477 143 407 174 322 196 360 217 406 221 443 275 492 333 381 185 290 196 255 206 216 213 176 235 175 245 165 248 153ZM476 134C470 278 436 404 380 497L394 507C442 462 477 401 503 329 537 376 569 436 574 486 633 536 687 408 512 300 524 261 534 219 541 175 563 173 572 163 575 150Z"/>
</svg>