<svg xmlns="http://www.w3.org/2000/svg" name="gid3172" data-unicode="剌"
    viewBox="0 0 1000 1000">
  <!--
© 2017-2024 Adobe (http://www.adobe.com/).
Noto is a trademark of Google Inc.
This Font Software is licensed under the SIL Open Font License, Version 1.1. This Font Software is distributed on an "AS IS" BASIS, WITHOUT WARRANTIES OR CONDITIONS OF ANY KIND, either express or implied. See the SIL Open Font License for the specific language, permissions and limitations governing your use of this Font Software.
http://scripts.sil.org/OFL
  -->
<path d="M662 129L662 752 674 752C697 752 724 738 724 729L724 167C749 164 758 154 761 140ZM847 59L847 855C847 871 841 878 822 878 801 878 691 869 691 869L691 885C739 892 765 899 782 910 795 922 801 939 805 959 899 949 911 915 911 861L911 98C935 95 945 85 948 71ZM286 40L286 182 37 182 45 211 286 211 286 319 157 319 83 288 83 593 92 593C124 593 145 576 145 570L145 546 266 546C215 668 131 785 25 870L36 885C139 824 224 745 286 653L286 958 299 958C322 958 349 941 349 932L349 635C412 673 484 739 506 797 581 841 612 677 349 616L349 546 489 546 489 578 499 578C519 578 551 564 552 558L552 360C570 356 586 348 593 340L515 281 480 319 349 319 349 211 586 211C600 211 609 206 612 195 579 165 527 123 527 123L481 182 349 182 349 78C374 74 381 65 384 50ZM145 349L286 349 286 517 145 517ZM489 349L489 517 349 517 349 349Z"/>
</svg>