<svg xmlns="http://www.w3.org/2000/svg"
    viewBox="0 0 1000 1000">
  <!--
© 2017-2024 Adobe (http://www.adobe.com/).
Noto is a trademark of Google Inc.
This Font Software is licensed under the SIL Open Font License, Version 1.1. This Font Software is distributed on an "AS IS" BASIS, WITHOUT WARRANTIES OR CONDITIONS OF ANY KIND, either express or implied. See the SIL Open Font License for the specific language, permissions and limitations governing your use of this Font Software.
http://scripts.sil.org/OFL
  -->
<path d="M145 201L132 206C160 256 193 333 195 393 254 450 320 316 145 201ZM661 98L661 725 673 725C696 725 723 711 723 702L723 136C748 133 757 123 759 109ZM847 29L847 826C847 842 842 848 823 848 804 848 706 840 706 840L706 856C749 862 773 870 787 880 801 892 806 909 809 929 900 920 910 886 910 833L910 68C934 65 944 55 947 41ZM117 557L117 928 128 928C155 928 183 913 183 907L183 836 460 836 460 906 470 906C491 906 524 891 525 885L525 600C545 596 562 587 567 579L487 517 450 557 187 557 117 526ZM460 808L183 808 183 587 460 587ZM279 14L279 153 39 153 47 182 587 182C601 182 611 177 614 166 581 136 529 94 529 94L484 153 343 153 343 51C368 48 377 38 379 24ZM426 196C411 264 382 357 359 424L28 424 36 454 608 454C623 454 631 449 634 438 602 407 548 364 548 364L499 424 380 424C422 367 465 297 491 246 511 248 523 240 528 228Z"/>
</svg>