<svg xmlns="http://www.w3.org/2000/svg" name="gid3187" data-unicode="剡"
    viewBox="0 0 1000 1000">
  <!--
© 2017-2024 Adobe (http://www.adobe.com/).
Noto is a trademark of Google Inc.
This Font Software is licensed under the SIL Open Font License, Version 1.1. This Font Software is distributed on an "AS IS" BASIS, WITHOUT WARRANTIES OR CONDITIONS OF ANY KIND, either express or implied. See the SIL Open Font License for the specific language, permissions and limitations governing your use of this Font Software.
http://scripts.sil.org/OFL
  -->
<path d="M941 59L842 48 842 858C842 873 837 878 820 878 801 878 707 872 707 872L707 887C748 892 772 901 785 911 799 923 804 939 806 958 894 950 904 917 904 864L904 85C929 82 939 73 941 59ZM751 131L654 120 654 758 666 758C689 758 714 745 714 736L714 157C739 154 748 145 751 131ZM206 534L188 534C187 604 144 662 102 684 83 695 71 713 79 733 89 754 123 751 148 735 187 710 231 643 206 534ZM207 130L189 130C190 197 151 256 111 278 94 290 83 308 91 326 102 346 135 341 157 324 192 299 231 234 207 130ZM598 574L513 521C492 564 444 645 405 701L355 685C373 619 375 547 378 469 400 466 408 457 410 444L314 435C312 658 315 825 37 941L48 959C238 894 316 807 350 704 426 754 520 837 555 901 628 936 652 802 424 709 477 668 532 617 562 584 580 590 594 582 598 574ZM415 58L319 48C316 242 317 394 38 500L49 517C228 462 309 389 347 305 420 348 513 421 549 478 623 509 642 377 410 303 465 265 521 217 551 187 570 193 584 185 588 176L502 125C480 167 430 243 389 297L354 287C377 225 380 156 383 83 405 81 413 70 415 58Z"/>
</svg>