<svg xmlns="http://www.w3.org/2000/svg" name="gid3200" data-unicode="剳"
    viewBox="0 0 1000 1000">
  <!--
© 2017-2024 Adobe (http://www.adobe.com/).
Noto is a trademark of Google Inc.
This Font Software is licensed under the SIL Open Font License, Version 1.1. This Font Software is distributed on an "AS IS" BASIS, WITHOUT WARRANTIES OR CONDITIONS OF ANY KIND, either express or implied. See the SIL Open Font License for the specific language, permissions and limitations governing your use of this Font Software.
http://scripts.sil.org/OFL
  -->
<path d="M180 507L188 536 473 536C486 536 495 531 498 520 471 493 427 458 427 458L389 507ZM665 129L665 752 677 752C701 752 727 738 727 729L727 167C753 164 761 154 764 140ZM851 59L851 855C851 871 845 878 825 878 804 878 694 869 694 869L694 885C742 892 769 899 785 910 799 922 805 939 808 959 903 949 914 915 914 861L914 98C938 95 948 85 951 71ZM40 162L48 191 189 191 189 295 200 295C224 295 250 283 250 276L250 191 405 191 405 291 417 291C440 291 467 278 467 271L467 191 615 191C629 191 638 186 640 176 610 146 560 106 560 106L516 162 467 162 467 84C492 80 501 71 503 57L405 47 405 162 250 162 250 84C275 80 284 71 287 57L189 47 189 162ZM141 631L141 956 150 956C176 956 204 941 204 935L204 884 471 884 471 939 480 939C501 939 533 925 534 918L534 672C554 668 570 660 577 652L496 591 461 631 209 631 141 600ZM471 854L204 854 204 660 471 660ZM347 316C373 315 384 310 388 299L285 267C241 366 138 501 27 579L37 591C167 527 276 419 340 326 440 385 515 466 544 527 608 569 672 421 347 316Z"/>
</svg>