<svg xmlns="http://www.w3.org/2000/svg"
    viewBox="0 0 1000 1000">
  <!--
© 2017-2023 Adobe (http://www.adobe.com/).
Noto is a trademark of Google Inc.
This Font Software is licensed under the SIL Open Font License, Version 1.1. This Font Software is distributed on an "AS IS" BASIS, WITHOUT WARRANTIES OR CONDITIONS OF ANY KIND, either express or implied. See the SIL Open Font License for the specific language, permissions and limitations governing your use of this Font Software.
http://scripts.sil.org/OFL
  -->
<path d="M198 493L206 523 502 523C516 523 525 518 528 507 497 480 450 445 450 445L409 493ZM691 98L691 722 703 722C725 722 750 708 750 699L750 135C774 132 783 122 785 109ZM848 31L848 828C848 843 843 849 826 849 807 849 712 841 712 841L712 857C754 862 778 870 791 880 805 892 810 908 812 928 900 919 910 886 910 833L910 69C934 66 944 56 947 42ZM154 616L154 928 164 928C190 928 217 913 217 907L217 865 489 865 489 917 499 917C520 917 552 903 553 897L553 654C570 651 585 643 591 636L514 578 480 616 222 616 154 585ZM489 835L217 835 217 645 489 645ZM145 18C123 122 82 223 37 288L51 298C89 265 125 221 154 169L170 169C192 201 212 246 213 282 260 326 316 237 209 169L359 169C365 169 370 168 374 166 363 194 351 220 339 242L354 251C379 229 402 201 423 169L463 169C495 204 527 255 532 298 589 342 640 236 509 169L648 169C662 169 671 164 674 153 643 123 592 81 592 81L549 140 441 140C455 117 467 92 477 67 498 67 509 58 513 47L415 18C407 63 394 108 380 149 352 122 309 87 309 87L269 140 170 140C182 116 193 91 202 66 223 67 235 58 239 46ZM358 299C383 299 395 293 399 283L303 254C255 356 144 494 28 575L38 587C166 521 279 409 348 314 435 364 545 453 581 526 662 563 675 393 358 299Z"/>
</svg>