<svg xmlns="http://www.w3.org/2000/svg" name="gid3230" data-unicode="功"
    viewBox="0 0 1000 1000">
  <!--
© 2017-2024 Adobe (http://www.adobe.com/).
Noto is a trademark of Google Inc.
This Font Software is licensed under the SIL Open Font License, Version 1.1. This Font Software is distributed on an "AS IS" BASIS, WITHOUT WARRANTIES OR CONDITIONS OF ANY KIND, either express or implied. See the SIL Open Font License for the specific language, permissions and limitations governing your use of this Font Software.
http://scripts.sil.org/OFL
  -->
<path d="M687 62L585 50C585 134 585 215 583 292L391 292 400 321 582 321C569 574 513 783 252 941L265 958C571 804 632 583 646 321L853 321C843 614 820 820 781 856 768 867 760 870 739 870 717 870 641 863 596 858L595 876C635 883 680 894 695 905 709 916 714 933 714 954 762 955 801 940 830 909 880 855 907 648 917 329 939 327 952 322 959 314L882 249 843 292 648 292C650 227 651 159 652 89 676 85 685 76 687 62ZM382 127L337 185 54 185 62 214 208 214 208 654C134 678 74 696 37 706L88 786C98 782 105 773 108 760 276 685 397 623 483 578L478 563 272 633 272 214 439 214C453 214 463 209 466 198 434 168 382 127 382 127Z"/>
</svg>