<svg xmlns="http://www.w3.org/2000/svg" name="gid3233" data-unicode="劤"
    viewBox="0 0 1000 1000">
  <!--
© 2017-2024 Adobe (http://www.adobe.com/).
Noto is a trademark of Google Inc.
This Font Software is licensed under the SIL Open Font License, Version 1.1. This Font Software is distributed on an "AS IS" BASIS, WITHOUT WARRANTIES OR CONDITIONS OF ANY KIND, either express or implied. See the SIL Open Font License for the specific language, permissions and limitations governing your use of this Font Software.
http://scripts.sil.org/OFL
  -->
<path d="M645 52C645 136 646 217 644 294L511 294 520 323 644 323C637 576 601 784 423 941L437 958C657 802 698 584 707 323L853 323C847 644 834 827 802 860 793 869 785 872 766 872 747 872 687 867 650 863L649 881C684 887 719 896 732 906 745 917 748 934 748 955 788 955 826 942 851 911 894 861 910 682 916 331 938 329 950 323 957 316L882 251 843 294 708 294 711 91C735 88 744 77 747 63ZM430 42C358 82 265 118 184 145L110 120 110 426C110 597 106 784 29 934L44 945C170 799 175 587 175 427L175 400 332 400 332 941 342 941C375 941 395 922 395 917L395 400 529 400C543 400 552 395 555 384 523 354 471 313 471 313L426 371 175 371 175 172C271 160 386 136 476 111 495 117 505 115 512 107Z"/>
</svg>