<svg xmlns="http://www.w3.org/2000/svg"
    viewBox="0 0 1000 1000">
  <!--
© 2017-2023 Adobe (http://www.adobe.com/).
Noto is a trademark of Google Inc.
This Font Software is licensed under the SIL Open Font License, Version 1.1. This Font Software is distributed on an "AS IS" BASIS, WITHOUT WARRANTIES OR CONDITIONS OF ANY KIND, either express or implied. See the SIL Open Font License for the specific language, permissions and limitations governing your use of this Font Software.
http://scripts.sil.org/OFL
  -->
<path d="M41 100L49 130 192 130C164 307 111 487 24 623L39 634C80 586 116 533 146 477L146 887 156 887C186 887 207 871 207 866L207 762 365 762 365 821 375 821C395 821 427 809 428 803L428 418C447 414 464 405 470 397L390 337 355 376 219 376 197 366C226 292 247 213 262 130L485 130C499 130 508 125 511 114 478 83 425 41 425 41L376 100ZM365 405L365 734 207 734 207 405ZM631 13C631 102 632 188 629 270L441 270 450 298 628 298C617 544 570 751 361 910L374 927C627 771 680 552 694 298L855 298C846 588 825 789 789 823 778 834 769 837 749 837 727 837 652 830 608 825L606 843C646 850 690 861 706 872 720 882 724 901 724 921 770 921 810 907 838 877 886 823 909 622 918 307 940 304 953 299 960 291L884 227 845 270 695 270C698 200 698 127 699 52 723 48 732 38 735 24Z"/>
</svg>