<svg xmlns="http://www.w3.org/2000/svg" name="gid3251" data-unicode="劺"
    viewBox="0 0 1000 1000">
  <!--
© 2017-2024 Adobe (http://www.adobe.com/).
Noto is a trademark of Google Inc.
This Font Software is licensed under the SIL Open Font License, Version 1.1. This Font Software is distributed on an "AS IS" BASIS, WITHOUT WARRANTIES OR CONDITIONS OF ANY KIND, either express or implied. See the SIL Open Font License for the specific language, permissions and limitations governing your use of this Font Software.
http://scripts.sil.org/OFL
  -->
<path d="M652 51C652 136 653 218 651 295L542 295 551 323 651 323C643 576 605 784 420 941L434 958C663 803 705 584 714 323L853 323C847 643 833 827 801 860 791 870 783 873 765 873 745 873 685 868 647 864L646 881C682 888 716 896 730 907 743 918 746 936 746 956 786 956 825 943 850 912 894 862 910 682 917 332 939 329 951 324 958 316L882 252 843 295 715 295 718 90C743 87 752 76 755 63ZM219 39C194 114 160 198 131 259L28 259 59 344C69 342 79 336 86 324 243 304 361 286 450 272 466 296 478 320 485 341 558 390 601 230 350 138L339 147C370 174 406 212 435 251L168 258C210 211 252 152 287 96 308 98 320 89 324 78ZM119 372C107 474 81 579 47 650L63 658C95 623 123 578 147 527L263 527 263 694 25 694 33 723 263 723 263 958 275 958C299 958 326 943 326 935L326 723 537 723C552 723 561 718 564 708 532 677 479 635 479 635L433 694 326 694 326 527 501 527C515 527 524 523 527 512 495 482 443 441 443 441L398 499 326 499 326 392C351 389 360 380 362 366L263 355 263 499 159 499C170 473 179 446 187 418 209 417 219 408 223 395Z"/>
</svg>