<svg xmlns="http://www.w3.org/2000/svg"
    viewBox="0 0 1000 1000">
  <!--
© 2017-2024 Adobe (http://www.adobe.com/).
Noto is a trademark of Google Inc.
This Font Software is licensed under the SIL Open Font License, Version 1.1. This Font Software is distributed on an "AS IS" BASIS, WITHOUT WARRANTIES OR CONDITIONS OF ANY KIND, either express or implied. See the SIL Open Font License for the specific language, permissions and limitations governing your use of this Font Software.
http://scripts.sil.org/OFL
  -->
<path d="M183 455L190 484 310 484 310 678 157 678 165 707 529 707C543 707 553 702 555 691 525 662 475 621 475 621L432 678 373 678 373 484 499 484C513 484 521 480 524 469 497 440 451 405 451 404L411 455 373 455 373 280 512 280C526 280 535 275 538 264 509 235 461 196 461 196L420 251 169 251 177 280 310 280 310 455ZM662 22L662 256 548 256 557 285 661 285C657 496 635 676 537 821 504 793 469 765 469 765L419 829 141 829 141 128 546 128C560 128 570 123 572 112 539 81 487 38 487 38L440 98 153 98 77 66 77 928 87 928C119 928 141 910 141 904L141 859 508 859C494 877 478 894 461 910L476 927C681 770 716 549 723 285L856 285C850 619 839 801 809 833 799 843 792 846 773 846 753 846 698 841 663 837L662 855C695 861 728 869 740 879 753 890 756 907 756 928 795 928 832 915 857 884 899 834 913 657 918 293 940 291 952 285 960 277L883 214 845 256 724 256 726 61C751 57 759 47 762 33Z"/>
</svg>