<svg xmlns="http://www.w3.org/2000/svg" name="gid3262" data-unicode="勇"
    viewBox="0 0 1000 1000">
  <!--
© 2017-2024 Adobe (http://www.adobe.com/).
Noto is a trademark of Google Inc.
This Font Software is licensed under the SIL Open Font License, Version 1.1. This Font Software is distributed on an "AS IS" BASIS, WITHOUT WARRANTIES OR CONDITIONS OF ANY KIND, either express or implied. See the SIL Open Font License for the specific language, permissions and limitations governing your use of this Font Software.
http://scripts.sil.org/OFL
  -->
<path d="M455 579C452 613 447 646 437 677L85 677 94 706 427 706C383 811 281 893 50 943L57 958C340 912 456 824 504 706L804 706C792 787 771 854 750 871 740 878 729 879 709 879 686 879 587 871 535 867L534 884C581 890 635 900 652 912 670 922 675 940 675 958 721 959 761 948 786 930 828 902 857 815 869 714 890 712 902 707 908 699L834 638 797 677 514 677C520 659 524 640 527 620 548 619 561 612 565 596ZM323 162L318 178C414 203 483 238 525 272L252 272 182 241 182 616 192 616C219 616 247 601 247 594L247 566 764 566 764 601 774 601C795 601 828 585 829 579L829 315C848 310 865 302 871 294L790 233 754 272 599 272C605 260 602 244 581 227 659 199 756 163 811 135 834 134 846 133 854 125L776 50 729 95 128 95 137 123 702 123C660 151 605 184 558 212 517 190 445 170 323 162ZM468 432L468 537 247 537 247 432ZM468 402L247 402 247 302 468 302ZM532 432L764 432 764 537 532 537ZM532 402L532 302 764 302 764 402Z"/>
</svg>