<svg xmlns="http://www.w3.org/2000/svg" name="gid3270" data-unicode="勐"
    viewBox="0 0 1000 1000">
  <!--
© 2017-2024 Adobe (http://www.adobe.com/).
Noto is a trademark of Google Inc.
This Font Software is licensed under the SIL Open Font License, Version 1.1. This Font Software is distributed on an "AS IS" BASIS, WITHOUT WARRANTIES OR CONDITIONS OF ANY KIND, either express or implied. See the SIL Open Font License for the specific language, permissions and limitations governing your use of this Font Software.
http://scripts.sil.org/OFL
  -->
<path d="M662 53C662 137 663 217 662 293L553 293C567 293 576 288 579 277 549 247 499 208 499 208L456 263 344 263 344 227C367 223 376 216 378 202L368 201C416 179 465 150 501 129 521 128 533 126 541 119L469 53 428 93 107 93 116 122 415 122C392 146 363 174 335 197L284 191 284 263 44 263 52 293 284 293 284 403C284 417 280 422 263 422 245 422 154 415 154 415L154 432C193 436 216 443 230 453 242 463 246 479 249 498 334 489 344 459 344 407L344 293 550 293 559 322 661 322C657 497 641 652 579 783 552 840 516 892 468 940L483 957C679 801 714 581 722 322L856 322C849 646 837 826 805 858 795 868 788 871 769 871 750 871 691 866 654 862L653 880C688 886 722 895 734 905 747 916 750 934 750 954 790 954 827 940 853 910 896 859 912 683 918 331 940 327 953 322 960 315L884 250 846 293 723 293 725 91C750 88 759 77 762 64ZM218 555L218 823 156 833 156 555ZM268 555L334 555 334 806 268 816ZM100 525L100 841 33 849 70 939C80 936 90 928 95 916 310 862 465 818 579 783L576 767 511 777 511 566C531 562 548 554 555 546L480 488 444 525 168 525 100 495ZM386 555L454 555 454 787 386 797Z"/>
</svg>