<svg xmlns="http://www.w3.org/2000/svg" name="gid3275" data-unicode="勖"
    viewBox="0 0 1000 1000">
  <!--
© 2017-2024 Adobe (http://www.adobe.com/).
Noto is a trademark of Google Inc.
This Font Software is licensed under the SIL Open Font License, Version 1.1. This Font Software is distributed on an "AS IS" BASIS, WITHOUT WARRANTIES OR CONDITIONS OF ANY KIND, either express or implied. See the SIL Open Font License for the specific language, permissions and limitations governing your use of this Font Software.
http://scripts.sil.org/OFL
  -->
<path d="M155 214L163 243 413 243C427 243 436 238 438 227 414 201 373 168 373 168L338 214ZM155 344L163 373 413 373C427 373 436 368 438 357 413 331 372 297 372 297L337 344ZM664 45L664 285 554 285 562 315 663 315C659 569 630 782 483 942L497 958C686 798 720 576 727 315L853 315C846 640 832 827 799 860 789 870 781 873 762 873 742 873 683 867 645 864L644 882C679 887 714 897 728 907 740 918 743 936 743 957 784 957 823 944 849 913 894 861 911 679 917 323 939 321 951 316 959 307L882 243 842 285 728 285 730 84C754 80 763 69 766 56ZM417 636L417 725 163 725 163 636ZM417 606L163 606 163 512 417 512ZM417 755L417 847 163 847 163 755ZM100 482L100 959 110 959C137 959 163 943 163 936L163 876 417 876 417 923 426 923C450 923 480 904 481 896L481 523C501 519 516 512 523 504L443 442 407 482 168 482 100 450ZM68 92L68 430 78 430C105 430 132 415 132 408L132 121 451 121 451 424 461 424C482 424 514 409 515 402L515 133C535 129 551 121 558 114L477 52 441 92 137 92 68 60Z"/>
</svg>