<svg xmlns="http://www.w3.org/2000/svg"
    viewBox="0 0 1000 1000">
  <!--
© 2017-2023 Adobe (http://www.adobe.com/).
Noto is a trademark of Google Inc.
This Font Software is licensed under the SIL Open Font License, Version 1.1. This Font Software is distributed on an "AS IS" BASIS, WITHOUT WARRANTIES OR CONDITIONS OF ANY KIND, either express or implied. See the SIL Open Font License for the specific language, permissions and limitations governing your use of this Font Software.
http://scripts.sil.org/OFL
  -->
<path d="M155 184L163 213 413 213C427 213 436 208 438 197 414 171 373 138 373 138L338 184ZM155 314L163 343 413 343C427 343 436 338 438 327 413 301 372 267 372 267L337 314ZM664 15L664 255 554 255 562 285 663 285C659 539 630 752 483 912L497 928C686 768 720 546 727 285L853 285C846 610 832 797 799 830 789 840 781 843 762 843 742 843 683 837 645 834L644 852C679 857 714 867 728 877 740 888 743 906 743 927 784 927 823 914 849 883 894 831 911 649 917 293 939 291 951 286 959 277L882 213 842 255 728 255 730 54C754 50 763 39 766 26ZM417 606L417 695 163 695 163 606ZM417 576L163 576 163 482 417 482ZM417 725L417 817 163 817 163 725ZM100 452L100 929 110 929C137 929 163 913 163 906L163 846 417 846 417 893 426 893C450 893 480 874 481 866L481 493C501 489 516 482 523 474L443 412 407 452 168 452 100 420ZM68 62L68 400 78 400C105 400 132 385 132 378L132 91 451 91 451 394 461 394C482 394 514 379 515 372L515 103C535 99 551 91 558 84L477 22 441 62 137 62 68 30Z"/>
</svg>