<svg xmlns="http://www.w3.org/2000/svg" name="gid3276" data-unicode="勗"
    viewBox="0 0 1000 1000">
  <!--
© 2017-2024 Adobe (http://www.adobe.com/).
Noto is a trademark of Google Inc.
This Font Software is licensed under the SIL Open Font License, Version 1.1. This Font Software is distributed on an "AS IS" BASIS, WITHOUT WARRANTIES OR CONDITIONS OF ANY KIND, either express or implied. See the SIL Open Font License for the specific language, permissions and limitations governing your use of this Font Software.
http://scripts.sil.org/OFL
  -->
<path d="M758 244L758 334 266 334 266 244ZM758 215L266 215 266 128 758 128ZM201 598L374 598 374 694 201 694ZM201 569L201 476 374 476 374 569ZM201 723L374 723 374 809 201 838ZM202 100L202 419 211 419C239 419 266 404 266 397L266 364 758 364 758 411 768 411C790 411 823 397 824 391L824 141C844 137 860 129 867 121L785 59 748 100 272 100 202 67ZM33 863L80 943C90 940 98 933 103 921 293 871 428 831 524 800L521 784 438 798 438 489C457 485 474 477 481 469L402 407 364 447 206 447 138 416 138 848ZM636 405C639 450 639 495 637 538L484 538 493 568 634 568C619 724 556 858 382 943L390 957C606 875 678 733 699 568L845 568C839 739 826 841 804 862 796 870 788 872 771 872 751 872 688 867 651 863L650 881C684 886 720 895 734 904 748 915 751 933 751 951 789 951 824 941 847 919 885 885 902 774 908 576 928 573 940 568 947 561L872 499 835 538 703 538C705 507 707 475 707 442 728 439 740 430 743 413Z"/>
</svg>