<svg xmlns="http://www.w3.org/2000/svg"
    viewBox="0 0 1000 1000">
  <!--
© 2017-2024 Adobe (http://www.adobe.com/).
Noto is a trademark of Google Inc.
This Font Software is licensed under the SIL Open Font License, Version 1.1. This Font Software is distributed on an "AS IS" BASIS, WITHOUT WARRANTIES OR CONDITIONS OF ANY KIND, either express or implied. See the SIL Open Font License for the specific language, permissions and limitations governing your use of this Font Software.
http://scripts.sil.org/OFL
  -->
<path d="M213 720C166 799 97 869 36 909L46 925C117 897 198 844 257 779 277 785 287 781 293 772ZM339 734L330 742C375 772 436 826 459 867 528 896 556 766 339 734ZM151 470L458 470 458 555 151 555ZM151 441L151 358 458 358 458 441ZM121 71L121 298 131 298C162 298 182 285 182 280L182 250 426 250 426 289 436 289C465 289 489 275 489 271L489 103C508 100 517 94 523 88L455 34 423 71 193 71 121 39ZM182 221L182 99 426 99 426 221ZM151 585L458 585 458 671 151 671ZM90 329L90 748 99 748C130 748 151 734 151 729L151 701 458 701 458 737 467 737C497 737 520 723 520 719L520 362C541 359 551 354 558 347L486 291 454 329 162 329 90 298ZM662 22L662 254 542 254 551 283 662 283C658 544 633 759 489 919L504 935C688 775 718 551 724 283L855 283C850 619 841 799 812 831 802 840 796 843 777 843 758 843 703 838 669 835L668 852C700 858 733 867 746 877 757 888 760 905 760 926 799 926 836 912 861 882 900 832 912 658 916 291 938 289 951 284 958 275L882 212 844 254 724 254 726 61C751 57 759 47 762 33Z"/>
</svg>