<svg xmlns="http://www.w3.org/2000/svg" name="gid3286" data-unicode="勢"
    viewBox="0 0 1000 1000">
  <!--
© 2017-2024 Adobe (http://www.adobe.com/).
Noto is a trademark of Google Inc.
This Font Software is licensed under the SIL Open Font License, Version 1.1. This Font Software is distributed on an "AS IS" BASIS, WITHOUT WARRANTIES OR CONDITIONS OF ANY KIND, either express or implied. See the SIL Open Font License for the specific language, permissions and limitations governing your use of this Font Software.
http://scripts.sil.org/OFL
  -->
<path d="M540 297L531 308C558 322 590 342 620 364 592 452 535 525 421 586L433 603 468 587C465 616 460 643 452 669L121 669 130 699 441 699C397 807 294 892 65 944L71 959C351 912 466 820 514 699L796 699C781 785 756 854 734 870 724 877 714 879 694 879 671 879 584 872 536 868L536 885C580 891 625 900 641 912 658 922 663 940 663 958 706 958 745 948 771 930 814 901 846 813 861 707 882 705 894 700 900 692L826 632 789 669 525 669C530 653 534 637 537 620 558 619 571 613 574 597L480 581C579 531 635 470 667 401 696 426 720 451 734 474 792 497 812 413 688 347 701 304 707 258 711 209L800 209C801 364 812 515 874 581 899 606 939 620 957 597 965 584 960 569 943 546L955 439 943 436C934 464 924 492 915 515 911 525 909 526 902 519 868 476 857 327 862 217 880 214 895 208 901 202L827 141 791 180 712 180 716 81C738 78 746 67 748 55L649 45C649 92 649 137 647 180L530 180 539 209 646 209C644 249 639 286 631 322 605 313 575 304 540 297ZM255 40L255 118 85 118 93 148 255 148 255 218 50 218 58 247 186 247C167 312 123 358 41 390L47 406C149 382 220 335 250 247L322 247 322 309C322 345 330 358 379 358L428 358C512 358 532 349 532 327 532 316 527 310 510 306L506 259 496 259C490 280 483 300 478 306 474 310 470 310 465 311 459 311 446 311 432 311L395 311C380 311 378 309 378 300L378 247 510 247C524 247 533 242 535 231 506 204 460 171 460 171L420 218 317 218 317 148 488 148C502 148 511 143 514 132 485 106 439 72 439 72L400 118 317 118 317 72C337 69 344 61 346 50ZM251 353L251 421 99 421 106 450 251 450 251 531C170 542 104 550 64 554L101 631C109 629 119 621 123 609 292 570 416 537 505 512L503 496 313 523 313 450 475 450C488 450 498 445 501 434 472 410 431 379 431 379L394 421 313 421 313 383C332 381 338 373 340 362Z"/>
</svg>