<svg xmlns="http://www.w3.org/2000/svg"
    viewBox="0 0 1000 1000">
  <!--
© 2017-2023 Adobe (http://www.adobe.com/).
Noto is a trademark of Google Inc.
This Font Software is licensed under the SIL Open Font License, Version 1.1. This Font Software is distributed on an "AS IS" BASIS, WITHOUT WARRANTIES OR CONDITIONS OF ANY KIND, either express or implied. See the SIL Open Font License for the specific language, permissions and limitations governing your use of this Font Software.
http://scripts.sil.org/OFL
  -->
<path d="M217 736C167 810 97 876 37 914L46 930C115 904 199 855 257 796 277 801 286 798 294 789ZM332 746L323 755C368 782 422 833 439 877 508 912 541 770 332 746ZM264 13L264 89 63 89 71 118 264 118 264 185 79 185 87 215 264 215 264 288 37 288 44 317 548 317C561 317 571 312 573 301L555 285 659 285C655 541 628 752 484 910L499 927C684 769 716 548 723 285L855 285C849 619 838 800 808 832 798 842 791 845 772 845 752 845 697 840 662 836L661 854C694 860 728 868 740 879 753 890 756 907 756 928 795 928 832 915 857 884 899 833 912 658 917 293 939 291 951 285 958 277L882 213 843 255 723 255 725 52C750 48 759 37 761 23L660 13 660 255 540 255 547 278 497 237 457 288 326 288 326 215 516 215C529 215 538 210 541 199 514 172 470 138 470 138L430 185 326 185 326 118 520 118C534 118 543 113 546 102 517 75 470 38 470 38L429 89 326 89 326 50C351 47 361 37 363 23ZM162 509L439 509 439 579 162 579ZM162 481L162 412 439 412 439 481ZM162 609L439 609 439 679 162 679ZM102 382L102 760 111 760C142 760 162 745 162 741L162 708 439 708 439 743 448 743C477 743 501 728 501 724L501 416C521 413 531 408 538 400L467 344 436 382 174 382 102 351Z"/>
</svg>