<svg xmlns="http://www.w3.org/2000/svg"
    viewBox="0 0 1000 1000">
  <!--
© 2017-2023 Adobe (http://www.adobe.com/).
Noto is a trademark of Google Inc.
This Font Software is licensed under the SIL Open Font License, Version 1.1. This Font Software is distributed on an "AS IS" BASIS, WITHOUT WARRANTIES OR CONDITIONS OF ANY KIND, either express or implied. See the SIL Open Font License for the specific language, permissions and limitations governing your use of this Font Software.
http://scripts.sil.org/OFL
  -->
<path d="M187 725C179 792 121 841 74 857 52 868 37 887 45 909 55 933 91 934 119 919 166 896 222 834 204 726ZM340 731L327 736C345 781 364 850 363 903 419 961 492 842 340 731ZM530 731L518 738C555 780 600 851 610 905 677 955 731 814 530 731ZM732 719L722 729C787 774 872 858 900 923 980 962 1008 794 732 719ZM665 13C665 85 665 154 662 220L532 220 541 248 660 248C647 428 601 585 428 706L442 723C655 602 707 435 722 248L854 248C849 477 839 596 815 619 808 627 801 629 785 629 766 629 715 625 684 622L684 640C712 644 743 653 754 662 765 672 768 689 768 707 804 707 838 697 860 674 897 635 910 514 915 256 936 253 948 248 955 241L881 180 845 220 724 220C727 164 728 107 729 49 752 46 761 36 764 22ZM454 10C365 37 199 74 66 90L71 108C132 107 196 103 259 97L259 156 42 156 50 185 259 185 260 245 162 245 97 216 97 495 105 495C130 495 157 482 157 477L157 468 259 468 259 531 71 531 79 560 259 560 259 626C167 634 90 640 43 642L93 722C102 719 111 713 115 700 302 666 432 640 523 618L521 602 321 620 321 560 500 560C512 560 522 555 524 545 495 518 449 486 449 486L409 531 321 531 321 468 425 468 425 484 434 484C454 484 485 471 486 465L486 283C502 280 517 272 523 265L449 210 417 245 321 245 321 185 524 185C537 185 547 180 550 169 519 142 471 107 471 107L428 156 321 156 321 91C376 85 428 79 471 72 493 81 509 82 518 75ZM425 370L425 438 319 438 319 370ZM425 342L319 342 319 274 425 274ZM157 370L260 370 260 438 157 438ZM157 342L157 274 260 274 260 342Z"/>
</svg>