<svg xmlns="http://www.w3.org/2000/svg" name="gid3314" data-unicode="包"
    viewBox="0 0 1000 1000">
  <!--
© 2017-2024 Adobe (http://www.adobe.com/).
Noto is a trademark of Google Inc.
This Font Software is licensed under the SIL Open Font License, Version 1.1. This Font Software is distributed on an "AS IS" BASIS, WITHOUT WARRANTIES OR CONDITIONS OF ANY KIND, either express or implied. See the SIL Open Font License for the specific language, permissions and limitations governing your use of this Font Software.
http://scripts.sil.org/OFL
  -->
<path d="M281 37C229 200 139 352 50 443L63 454C146 396 223 310 284 206L799 206C791 455 773 606 744 634 733 644 725 646 706 646 686 646 625 640 587 637L587 654C622 660 658 670 671 680 683 691 687 709 687 730 728 730 764 718 791 691 835 646 857 492 865 215 887 212 899 206 905 199L828 134 789 177 301 177C315 150 329 122 342 93 364 95 377 86 381 75ZM186 548L186 856C186 925 218 938 351 938L592 938C907 938 953 929 953 890 953 875 943 869 913 861L911 722 898 722C884 792 871 833 860 854 853 866 847 872 823 874 792 876 707 877 594 877L346 877C260 877 251 871 251 846L251 577 509 577 509 624 519 624C541 624 573 609 574 602L574 375C594 371 610 362 617 354L536 293 499 332 199 332 208 362 509 362 509 548 263 548 186 515Z"/>
</svg>