<svg xmlns="http://www.w3.org/2000/svg"
    viewBox="0 0 1000 1000">
  <!--
© 2017-2024 Adobe (http://www.adobe.com/).
Noto is a trademark of Google Inc.
This Font Software is licensed under the SIL Open Font License, Version 1.1. This Font Software is distributed on an "AS IS" BASIS, WITHOUT WARRANTIES OR CONDITIONS OF ANY KIND, either express or implied. See the SIL Open Font License for the specific language, permissions and limitations governing your use of this Font Software.
http://scripts.sil.org/OFL
  -->
<path d="M302 5C240 173 138 332 41 426L54 437C99 406 144 368 186 324L186 842 199 842C222 842 250 827 250 819L250 744 630 744 630 791 642 791C666 791 693 777 693 768L693 356C717 353 726 344 728 330L630 320 630 715 250 715 250 357C273 354 281 346 283 333L188 322C222 286 255 246 285 202L835 202C829 514 814 789 773 828 760 840 752 844 730 844 704 844 611 834 554 828L552 847C603 855 659 867 679 879 695 890 699 908 699 929 755 929 798 913 827 878 877 816 894 545 900 212 923 209 936 203 943 195L865 129 825 173 304 173C327 138 348 101 367 63 389 65 401 57 406 46ZM486 248C471 312 450 373 425 429 389 405 346 380 294 356L282 366C319 395 363 434 404 476 363 557 314 627 263 680L276 691C337 647 393 588 440 515 478 557 509 600 525 637 585 673 614 580 471 464 500 413 525 357 545 297 566 299 578 290 582 279Z"/>
</svg>