<svg xmlns="http://www.w3.org/2000/svg"
    viewBox="0 0 1000 1000">
  <!--
© 2017-2024 Adobe (http://www.adobe.com/).
Noto is a trademark of Google Inc.
This Font Software is licensed under the SIL Open Font License, Version 1.1. This Font Software is distributed on an "AS IS" BASIS, WITHOUT WARRANTIES OR CONDITIONS OF ANY KIND, either express or implied. See the SIL Open Font License for the specific language, permissions and limitations governing your use of this Font Software.
http://scripts.sil.org/OFL
  -->
<path d="M102 82L102 927 113 927C147 927 168 909 168 903L168 861 940 861C954 861 964 856 967 845 930 811 871 767 871 767L820 831 168 831 168 111 894 111C907 111 917 106 920 95 886 63 829 20 829 20L781 82 181 82 102 47ZM706 262L573 297 573 174C598 171 607 161 609 148L513 137 513 313 378 349 378 223C399 219 409 210 411 198L317 187 317 365 193 398 211 424 317 396 317 659C317 720 343 735 443 735L602 735C820 735 859 727 859 693 859 680 851 674 827 667L824 550 811 550C799 605 787 649 779 664 773 672 767 675 752 676 731 678 675 679 603 679L446 679C386 679 378 671 378 648L378 380 513 344 513 611 524 611C547 611 573 598 573 590L573 328 725 287C721 418 714 481 699 495 693 501 688 503 674 503 657 503 616 499 590 497L589 515C613 518 637 525 647 534 658 543 661 559 661 576 691 576 719 568 739 551 771 525 782 454 786 294 805 291 817 287 823 280L751 222 716 259 718 259Z"/>
</svg>