<svg xmlns="http://www.w3.org/2000/svg"
    viewBox="0 0 1000 1000">
  <!--
© 2017-2023 Adobe (http://www.adobe.com/).
Noto is a trademark of Google Inc.
This Font Software is licensed under the SIL Open Font License, Version 1.1. This Font Software is distributed on an "AS IS" BASIS, WITHOUT WARRANTIES OR CONDITIONS OF ANY KIND, either express or implied. See the SIL Open Font License for the specific language, permissions and limitations governing your use of this Font Software.
http://scripts.sil.org/OFL
  -->
<path d="M594 695L589 713C673 736 732 767 766 799 824 844 916 722 594 695ZM106 92L106 929 117 929C150 929 172 912 172 906L172 861 934 861C948 861 957 856 960 845 926 812 870 767 870 767L821 831 172 831 172 121 895 121C908 121 918 116 921 105 888 74 832 32 832 32L784 92 184 92 106 58ZM219 350L227 379 888 379C901 379 910 374 913 363 882 335 832 296 832 296L789 350 577 350 577 306 707 306 707 326 716 326C736 326 767 312 768 305L768 226C783 223 796 216 801 210L731 157 699 191 577 191 577 165C595 162 602 154 604 143L514 133 514 191 386 191 320 162 320 332 329 332C353 332 381 318 381 313L381 306 514 306 514 350ZM707 277L577 277 577 220 707 220ZM381 277L381 220 514 220 514 277ZM722 529L722 576 385 576 385 529ZM722 499L385 499 385 452 722 452ZM722 605L722 653 385 653 385 605ZM322 422L322 713 332 713C358 713 385 699 385 693L385 682 450 682C404 723 316 772 236 799L242 815C335 800 432 764 488 732 510 738 525 736 531 727L465 682 722 682 722 707 732 707C753 707 784 692 785 685L785 458C801 456 814 449 819 442L748 388 714 422 390 422 322 392Z"/>
</svg>