<svg xmlns="http://www.w3.org/2000/svg"
    viewBox="0 0 1000 1000">
  <!--
© 2017-2023 Adobe (http://www.adobe.com/).
Noto is a trademark of Google Inc.
This Font Software is licensed under the SIL Open Font License, Version 1.1. This Font Software is distributed on an "AS IS" BASIS, WITHOUT WARRANTIES OR CONDITIONS OF ANY KIND, either express or implied. See the SIL Open Font License for the specific language, permissions and limitations governing your use of this Font Software.
http://scripts.sil.org/OFL
  -->
<path d="M111 125L111 929 121 929C155 929 177 911 177 905L177 836 931 836C945 836 955 831 957 820 921 787 862 741 862 741L811 807 177 807 177 153 382 153C378 353 369 529 190 663L204 679C425 551 442 369 448 153L589 153 589 535C589 584 604 601 675 601L763 601C899 601 929 588 929 560 929 546 923 539 901 531L898 420 886 420C877 467 865 516 859 529 854 536 850 538 841 539 829 540 802 540 766 540L688 540C656 540 652 535 652 520L652 153 901 153C915 153 924 148 927 138 894 106 837 64 837 64L789 125 189 125 111 90Z"/>
</svg>