<svg xmlns="http://www.w3.org/2000/svg" name="gid3381" data-unicode="単"
    viewBox="0 0 1000 1000">
  <!--
© 2017-2024 Adobe (http://www.adobe.com/).
Noto is a trademark of Google Inc.
This Font Software is licensed under the SIL Open Font License, Version 1.1. This Font Software is distributed on an "AS IS" BASIS, WITHOUT WARRANTIES OR CONDITIONS OF ANY KIND, either express or implied. See the SIL Open Font License for the specific language, permissions and limitations governing your use of this Font Software.
http://scripts.sil.org/OFL
  -->
<path d="M169 54L159 62C200 100 248 163 261 214 327 260 377 119 169 54ZM406 42L395 48C431 87 471 153 478 204 542 257 601 119 406 42ZM170 254L170 656 181 656C208 656 236 642 236 635L236 607 466 607 466 728 35 728 43 758 466 758 466 960 476 960C510 960 532 943 532 938L532 758 937 758C951 758 962 753 964 742 927 709 868 663 868 663L815 728 532 728 532 607 761 607 761 648 772 648C794 648 827 632 828 625L828 296C847 292 862 284 869 276L788 215 751 254 644 254C696 216 752 159 798 103 820 107 833 99 837 89L741 42C703 121 653 204 614 254L242 254 170 222ZM466 284L466 414 236 414 236 284ZM532 284L761 284 761 414 532 414ZM466 578L236 578 236 443 466 443ZM532 578L532 443 761 443 761 578Z"/>
</svg>