<svg xmlns="http://www.w3.org/2000/svg"
    viewBox="0 0 1000 1000">
  <!--
© 2017-2024 Adobe (http://www.adobe.com/).
Noto is a trademark of Google Inc.
This Font Software is licensed under the SIL Open Font License, Version 1.1. This Font Software is distributed on an "AS IS" BASIS, WITHOUT WARRANTIES OR CONDITIONS OF ANY KIND, either express or implied. See the SIL Open Font License for the specific language, permissions and limitations governing your use of this Font Software.
http://scripts.sil.org/OFL
  -->
<path d="M574 72L574 926 584 926C617 926 638 909 638 904L638 141 848 141 848 655C848 670 844 675 827 675 808 675 719 668 719 668L719 684C758 690 781 698 795 709 807 720 812 737 814 757 902 748 913 715 913 663L913 153C933 150 949 142 956 134L872 70 838 112 650 112ZM485 223L386 212 386 487C386 524 384 559 379 594L194 636 194 168C286 149 387 113 448 84 473 89 489 87 498 77L402 16C361 53 285 104 212 139L131 104 131 649 40 667 91 751C101 748 109 739 112 727 225 683 311 646 374 617 351 736 284 839 124 913L134 927C395 835 449 669 450 487L450 249C474 246 482 236 485 223Z"/>
</svg>