<svg xmlns="http://www.w3.org/2000/svg" name="gid3398" data-unicode="卯"
    viewBox="0 0 1000 1000">
  <!--
© 2017-2024 Adobe (http://www.adobe.com/).
Noto is a trademark of Google Inc.
This Font Software is licensed under the SIL Open Font License, Version 1.1. This Font Software is distributed on an "AS IS" BASIS, WITHOUT WARRANTIES OR CONDITIONS OF ANY KIND, either express or implied. See the SIL Open Font License for the specific language, permissions and limitations governing your use of this Font Software.
http://scripts.sil.org/OFL
  -->
<path d="M574 102L574 956 584 956C617 956 638 939 638 934L638 171 848 171 848 685C848 700 844 705 827 705 808 705 719 698 719 698L719 714C758 720 781 728 795 739 807 750 812 767 814 787 902 778 913 745 913 693L913 183C933 180 949 172 956 164L872 100 838 142 650 142ZM485 253L386 242 386 517C386 554 384 589 379 624L194 666 194 198C286 179 387 143 448 114 473 119 489 117 498 107L402 46C361 83 285 134 212 169L131 134 131 679 40 697 91 781C101 778 109 769 112 757 225 713 311 676 374 647 351 766 284 869 124 943L134 957C395 865 449 699 450 517L450 279C474 276 482 266 485 253Z"/>
</svg>