<svg xmlns="http://www.w3.org/2000/svg"
    viewBox="0 0 1000 1000">
  <!--
© 2017-2024 Adobe (http://www.adobe.com/).
Noto is a trademark of Google Inc.
This Font Software is licensed under the SIL Open Font License, Version 1.1. This Font Software is distributed on an "AS IS" BASIS, WITHOUT WARRANTIES OR CONDITIONS OF ANY KIND, either express or implied. See the SIL Open Font License for the specific language, permissions and limitations governing your use of this Font Software.
http://scripts.sil.org/OFL
  -->
<path d="M536 116L536 928 547 928C579 928 601 910 601 904L601 146 846 146 846 690C846 705 841 711 822 711 802 711 701 704 701 704L701 720C746 726 770 734 785 744 799 755 804 772 807 793 901 783 911 750 911 698L911 158C931 154 947 146 954 138L870 75 836 116 613 116 536 77ZM422 34C352 74 270 113 198 141L105 105 105 860 113 860C152 860 169 844 170 838L170 729 467 729C482 729 492 724 495 713 460 681 404 636 404 636L354 699 170 699 170 426 459 426C474 426 484 421 486 411 453 380 399 337 399 337L353 397 170 397 170 176C255 163 370 137 453 103 471 110 481 109 490 102Z"/>
</svg>