<svg xmlns="http://www.w3.org/2000/svg"
    viewBox="0 0 1000 1000">
  <!--
© 2017-2023 Adobe (http://www.adobe.com/).
Noto is a trademark of Google Inc.
This Font Software is licensed under the SIL Open Font License, Version 1.1. This Font Software is distributed on an "AS IS" BASIS, WITHOUT WARRANTIES OR CONDITIONS OF ANY KIND, either express or implied. See the SIL Open Font License for the specific language, permissions and limitations governing your use of this Font Software.
http://scripts.sil.org/OFL
  -->
<path d="M583 91L583 928 593 928C626 928 647 910 647 905L647 120 846 120 846 663C846 678 842 683 825 683 806 683 715 676 715 676L715 692C755 698 778 707 792 718 805 728 809 747 812 768 901 758 911 725 911 672L911 133C931 129 947 121 954 113L870 50 836 91 659 91 583 52ZM182 117L419 117 419 263 182 263ZM32 769L76 856C86 853 94 844 98 832 232 782 335 740 411 708 429 745 442 783 445 817 515 878 573 701 328 559L315 566C345 598 377 643 401 689L182 739 182 472 419 472 419 540 428 540C449 540 481 525 482 518L482 130C502 126 518 118 525 110L445 48 409 88 193 88 118 54 118 753ZM182 292L419 292 419 442 182 442Z"/>
</svg>