<svg xmlns="http://www.w3.org/2000/svg" name="gid3404" data-unicode="卵"
    viewBox="0 0 1000 1000">
  <!--
© 2017-2024 Adobe (http://www.adobe.com/).
Noto is a trademark of Google Inc.
This Font Software is licensed under the SIL Open Font License, Version 1.1. This Font Software is distributed on an "AS IS" BASIS, WITHOUT WARRANTIES OR CONDITIONS OF ANY KIND, either express or implied. See the SIL Open Font License for the specific language, permissions and limitations governing your use of this Font Software.
http://scripts.sil.org/OFL
  -->
<path d="M232 302L218 308C251 359 286 441 284 505 341 562 406 423 232 302ZM671 305L658 311C698 365 736 452 731 521 793 585 865 426 671 305ZM560 139L560 956 570 956C603 956 624 939 624 934L624 169 848 169 848 697C848 711 844 717 825 717 805 717 704 709 704 709L704 725C749 732 773 741 788 753 801 764 807 782 810 805 902 794 912 760 912 705L912 181C932 177 948 169 955 161L871 98 838 139 636 139 560 100ZM418 47C370 77 283 119 202 151L121 114 121 686C86 697 58 705 38 709L80 792C90 788 97 780 101 767 222 709 318 659 390 621 367 759 292 869 100 946L109 962C393 873 459 711 460 513L460 222C485 219 492 209 495 195L398 186 398 512C398 542 397 571 393 599L183 667 183 182C279 167 386 141 453 119 478 127 495 127 504 117Z"/>
</svg>