<svg xmlns="http://www.w3.org/2000/svg"
    viewBox="0 0 1000 1000">
  <!--
© 2017-2024 Adobe (http://www.adobe.com/).
Noto is a trademark of Google Inc.
This Font Software is licensed under the SIL Open Font License, Version 1.1. This Font Software is distributed on an "AS IS" BASIS, WITHOUT WARRANTIES OR CONDITIONS OF ANY KIND, either express or implied. See the SIL Open Font License for the specific language, permissions and limitations governing your use of this Font Software.
http://scripts.sil.org/OFL
  -->
<path d="M475 165L465 173C494 196 524 238 531 273 591 313 640 193 475 165ZM807 176C738 268 643 349 546 407L557 424C668 379 778 312 858 236 879 240 888 238 895 228ZM833 348C759 445 658 523 550 577L560 595C682 554 798 489 884 406 905 411 915 408 922 399ZM875 525C782 649 661 727 518 782L526 800C684 759 818 693 926 582 948 586 957 583 964 573ZM211 342L219 371 344 371C338 596 304 777 134 910L148 927C307 826 368 694 392 536L392 829C392 889 417 904 520 904L689 904C917 904 957 895 957 862 957 849 949 842 923 835L920 739 907 739C896 785 885 820 875 833 870 840 863 843 847 844 825 846 766 847 691 847L523 847C461 847 454 840 454 818L454 475C475 472 484 462 486 450L402 440 406 371 573 371C588 371 597 366 600 355 569 326 518 287 518 287L474 342 407 342 410 183C433 179 440 170 443 155L346 146 345 342ZM126 82L126 333C126 526 120 742 36 917L53 927C183 754 189 509 189 332L189 111 933 111C947 111 958 106 961 95 925 64 869 20 869 20L819 82 201 82 126 46Z"/>
</svg>