<svg xmlns="http://www.w3.org/2000/svg" name="gid3428" data-unicode="厠"
    viewBox="0 0 1000 1000">
  <!--
© 2017-2024 Adobe (http://www.adobe.com/).
Noto is a trademark of Google Inc.
This Font Software is licensed under the SIL Open Font License, Version 1.1. This Font Software is distributed on an "AS IS" BASIS, WITHOUT WARRANTIES OR CONDITIONS OF ANY KIND, either express or implied. See the SIL Open Font License for the specific language, permissions and limitations governing your use of this Font Software.
http://scripts.sil.org/OFL
  -->
<path d="M660 275L660 758 672 758C695 758 720 745 720 737L720 312C745 309 754 300 756 286ZM837 207L837 854C837 869 832 874 814 874 794 874 695 867 695 867L695 882C739 888 763 896 778 907 791 918 796 934 799 954 890 945 900 912 900 859L900 244C923 241 933 232 935 218ZM455 748L444 756C483 794 530 859 543 910 609 958 661 821 455 748ZM332 746C303 807 240 891 173 941L185 954C267 916 342 853 384 799 406 803 414 799 420 789ZM504 278L504 389 331 389 331 278ZM271 248L271 752 281 752C308 752 331 737 331 730L331 701 504 701 504 737 513 737C534 737 565 721 566 715L566 290C584 286 600 278 607 270L529 210 494 248 336 248 271 218ZM331 419L504 419 504 530 331 530ZM331 559L504 559 504 672 331 672ZM127 111L127 363C127 556 120 772 36 947L51 957C183 783 190 538 190 362L190 140 931 140C945 140 955 135 958 124 922 93 866 49 866 49L816 111 202 111 127 76Z"/>
</svg>