<svg xmlns="http://www.w3.org/2000/svg" name="gid3432" data-unicode="厦"
    viewBox="0 0 1000 1000">
  <!--
© 2017-2024 Adobe (http://www.adobe.com/).
Noto is a trademark of Google Inc.
This Font Software is licensed under the SIL Open Font License, Version 1.1. This Font Software is distributed on an "AS IS" BASIS, WITHOUT WARRANTIES OR CONDITIONS OF ANY KIND, either express or implied. See the SIL Open Font License for the specific language, permissions and limitations governing your use of this Font Software.
http://scripts.sil.org/OFL
  -->
<path d="M755 447L755 514 387 514 387 447ZM755 418L387 418 387 351 755 351ZM755 543L755 610 387 610 387 543ZM525 671C551 672 564 666 568 657L517 640 755 640 755 664 765 664C786 664 819 648 820 641L820 356C833 353 844 347 849 341L780 288 747 322 562 322C577 300 594 272 608 246L898 246C912 246 922 241 924 230 890 202 838 166 838 166L792 217 238 217 247 246 535 246 522 322 392 322 323 291 323 676 334 676C360 676 387 661 387 654L387 640 468 640C415 707 315 787 212 834L222 848C295 826 362 793 419 755 451 790 486 819 525 844 426 890 304 921 172 941L178 958C329 946 463 919 573 871 659 915 767 943 911 959 916 928 936 910 961 903L962 891C828 886 719 871 630 843 681 815 725 781 762 740 786 740 797 738 806 730L738 666 692 705 487 705C501 694 514 682 525 671ZM681 733C651 767 613 796 569 821 519 800 476 774 438 742L451 733ZM130 112L130 363C130 557 123 773 36 947L53 957C187 784 194 539 194 362L194 140 933 140C947 140 957 135 960 124 924 93 868 49 868 49L818 112 207 112 130 76Z"/>
</svg>