<svg xmlns="http://www.w3.org/2000/svg"
    viewBox="0 0 1000 1000">
  <!--
© 2017-2023 Adobe (http://www.adobe.com/).
Noto is a trademark of Google Inc.
This Font Software is licensed under the SIL Open Font License, Version 1.1. This Font Software is distributed on an "AS IS" BASIS, WITHOUT WARRANTIES OR CONDITIONS OF ANY KIND, either express or implied. See the SIL Open Font License for the specific language, permissions and limitations governing your use of this Font Software.
http://scripts.sil.org/OFL
  -->
<path d="M368 12C362 80 352 152 339 225L49 225 57 255 333 255C287 488 199 731 40 902L55 911C252 739 351 489 404 255L925 255C939 255 949 250 952 239 916 207 859 162 859 162L810 225 411 225C424 165 434 106 442 50 473 47 483 39 485 24ZM245 820L293 907C302 904 311 897 316 885 540 850 704 821 825 797 846 836 861 875 868 911 951 976 1002 772 696 585L684 593C726 642 776 708 813 775L450 806C520 685 581 536 617 423 640 422 650 412 654 399L546 378C521 508 474 677 423 808 349 814 287 818 245 820Z"/>
</svg>