<svg xmlns="http://www.w3.org/2000/svg" name="gid3460" data-unicode="友"
    viewBox="0 0 1000 1000">
  <!--
© 2017-2024 Adobe (http://www.adobe.com/).
Noto is a trademark of Google Inc.
This Font Software is licensed under the SIL Open Font License, Version 1.1. This Font Software is distributed on an "AS IS" BASIS, WITHOUT WARRANTIES OR CONDITIONS OF ANY KIND, either express or implied. See the SIL Open Font License for the specific language, permissions and limitations governing your use of this Font Software.
http://scripts.sil.org/OFL
  -->
<path d="M363 43C362 104 358 167 352 229L52 229 61 258 349 258C320 518 240 773 38 940L52 951C233 830 327 653 379 465 410 575 458 664 523 737 440 822 334 891 202 940L212 956C357 914 470 852 558 774 648 860 764 919 906 958 917 926 941 905 972 902L974 891C827 861 700 811 599 734 678 652 734 556 773 449 796 447 807 444 815 435L742 367 697 408 393 408C405 358 413 308 420 258L926 258C940 258 950 253 953 243 917 210 859 166 859 166L809 229 424 229C431 178 435 127 439 77 471 73 479 64 481 49ZM557 698C483 630 426 544 392 438L699 438C668 534 621 622 557 698Z"/>
</svg>