<svg xmlns="http://www.w3.org/2000/svg" name="gid3461" data-unicode="双"
    viewBox="0 0 1000 1000">
  <!--
© 2017-2024 Adobe (http://www.adobe.com/).
Noto is a trademark of Google Inc.
This Font Software is licensed under the SIL Open Font License, Version 1.1. This Font Software is distributed on an "AS IS" BASIS, WITHOUT WARRANTIES OR CONDITIONS OF ANY KIND, either express or implied. See the SIL Open Font License for the specific language, permissions and limitations governing your use of this Font Software.
http://scripts.sil.org/OFL
  -->
<path d="M119 285L105 295C178 358 242 441 293 526 239 687 156 836 34 948L49 960C184 862 273 735 333 597 368 665 393 730 405 782 443 870 507 815 449 677 428 632 399 581 360 527 401 411 425 289 441 170 462 167 472 166 479 156L405 87 365 129 52 129 61 159 372 159C360 262 341 366 312 466 260 405 196 343 119 285ZM671 651C599 769 501 871 373 949L385 962C522 896 624 810 700 710 755 811 825 895 910 959 918 932 943 914 973 912L976 902C879 841 800 759 737 658 832 513 881 344 911 171 934 169 944 166 952 157L876 86 833 129 485 129 494 159 553 159C570 348 609 513 671 651ZM702 596C639 473 597 326 578 159L840 159C816 314 773 464 702 596Z"/>
</svg>