<svg xmlns="http://www.w3.org/2000/svg" name="gid3462" data-unicode="反"
    viewBox="0 0 1000 1000">
  <!--
© 2017-2024 Adobe (http://www.adobe.com/).
Noto is a trademark of Google Inc.
This Font Software is licensed under the SIL Open Font License, Version 1.1. This Font Software is distributed on an "AS IS" BASIS, WITHOUT WARRANTIES OR CONDITIONS OF ANY KIND, either express or implied. See the SIL Open Font License for the specific language, permissions and limitations governing your use of this Font Software.
http://scripts.sil.org/OFL
  -->
<path d="M187 138L187 356C187 556 167 770 36 944L51 956C220 799 249 578 253 403L347 403C380 541 436 650 515 736 419 823 298 891 148 939L157 955C323 916 452 855 553 775 645 860 762 918 905 956 916 923 942 902 973 898L976 889C828 860 702 810 600 735 696 646 763 538 810 415 835 414 845 411 853 402L775 328 728 374 253 374 253 356 253 168 903 168C918 168 928 163 931 152 894 119 837 74 837 74L785 138 265 138 187 103ZM554 697C469 622 406 525 368 403L730 403C692 514 634 613 554 697Z"/>
</svg>