<svg xmlns="http://www.w3.org/2000/svg" name="gid3468" data-unicode="叕"
    viewBox="0 0 1000 1000">
  <!--
© 2017-2024 Adobe (http://www.adobe.com/).
Noto is a trademark of Google Inc.
This Font Software is licensed under the SIL Open Font License, Version 1.1. This Font Software is distributed on an "AS IS" BASIS, WITHOUT WARRANTIES OR CONDITIONS OF ANY KIND, either express or implied. See the SIL Open Font License for the specific language, permissions and limitations governing your use of this Font Software.
http://scripts.sil.org/OFL
  -->
<path d="M93 86L102 115 376 115C360 157 340 198 315 237 268 214 205 193 125 178L116 189C166 212 227 247 281 286 226 358 154 420 68 463L77 478C179 440 260 384 322 317 354 343 381 370 398 395 457 415 474 338 366 266 400 221 427 172 448 122 470 121 480 118 488 109L416 46 375 86ZM521 86L530 115 801 115C782 162 758 207 729 248 677 224 610 201 527 182L518 194C570 218 634 254 692 294 635 358 562 411 473 448L481 463C586 431 668 383 733 324 780 359 820 396 844 431 910 452 923 362 780 275 820 229 851 178 875 122 896 121 907 118 915 109L842 45 802 86ZM83 512L92 541 378 541C363 589 343 635 318 679 265 653 195 628 105 609L97 622C154 647 224 687 285 730 226 815 147 886 46 935L55 951C173 907 262 841 328 762 365 791 396 820 416 848 479 869 493 788 369 708 402 658 429 604 449 548 471 546 482 544 490 535L418 471 377 512ZM494 512L502 541 549 541C573 639 610 718 661 783 592 850 505 903 400 941L408 957C524 925 618 878 692 819 749 879 820 924 906 959 917 926 939 905 968 902L970 891C881 867 803 830 738 779 806 714 856 636 891 549 914 548 924 545 932 536L860 471 818 512ZM570 541L818 541C791 617 751 685 698 745 641 690 598 622 570 541Z"/>
</svg>