<svg xmlns="http://www.w3.org/2000/svg"
    viewBox="0 0 1000 1000">
  <!--
© 2017-2023 Adobe (http://www.adobe.com/).
Noto is a trademark of Google Inc.
This Font Software is licensed under the SIL Open Font License, Version 1.1. This Font Software is distributed on an "AS IS" BASIS, WITHOUT WARRANTIES OR CONDITIONS OF ANY KIND, either express or implied. See the SIL Open Font License for the specific language, permissions and limitations governing your use of this Font Software.
http://scripts.sil.org/OFL
  -->
<path d="M301 4C242 186 139 357 39 459L52 470C139 407 222 317 290 208L839 208C829 511 806 785 762 826 749 838 741 842 716 842 690 842 594 832 535 826L534 844C585 852 642 865 663 877 680 889 685 908 685 929 742 929 784 913 815 877 869 815 894 540 904 217 926 214 939 208 947 200L868 134 828 178 308 178C329 141 349 102 367 61 389 63 402 55 406 44ZM228 358L228 763 238 763C265 763 292 748 292 741L292 647 529 647 529 725 539 725C560 725 592 710 593 704L593 400C613 396 629 388 636 380L555 318 519 358 297 358 228 327ZM292 617L292 387 529 387 529 617Z"/>
</svg>