<svg xmlns="http://www.w3.org/2000/svg"
    viewBox="0 0 1000 1000">
  <!--
© 2017-2024 Adobe (http://www.adobe.com/).
Noto is a trademark of Google Inc.
This Font Software is licensed under the SIL Open Font License, Version 1.1. This Font Software is distributed on an "AS IS" BASIS, WITHOUT WARRANTIES OR CONDITIONS OF ANY KIND, either express or implied. See the SIL Open Font License for the specific language, permissions and limitations governing your use of this Font Software.
http://scripts.sil.org/OFL
  -->
<path d="M486 222C477 487 419 761 195 917L206 930C471 786 536 509 560 260 589 257 597 248 600 235ZM450 82L459 111 702 111C719 485 751 749 908 926 919 900 945 876 973 869L979 858C803 706 754 431 730 129 769 126 797 118 811 102L713 29 678 82ZM284 164L284 565 140 565 140 164ZM78 136L78 738 89 738C116 738 140 723 140 715L140 594 284 594 284 675 294 675C315 675 347 658 348 652L348 177C368 173 383 165 390 157L310 95 274 136 145 136 78 103Z"/>
</svg>