<svg xmlns="http://www.w3.org/2000/svg"
    viewBox="0 0 1000 1000">
  <!--
© 2017-2024 Adobe (http://www.adobe.com/).
Noto is a trademark of Google Inc.
This Font Software is licensed under the SIL Open Font License, Version 1.1. This Font Software is distributed on an "AS IS" BASIS, WITHOUT WARRANTIES OR CONDITIONS OF ANY KIND, either express or implied. See the SIL Open Font License for the specific language, permissions and limitations governing your use of this Font Software.
http://scripts.sil.org/OFL
  -->
<path d="M247 246L255 275 736 275C750 275 759 270 762 259 730 229 677 188 677 188L630 246ZM111 89L111 928 123 928C152 928 176 911 176 902L176 119 823 119 823 825C823 844 816 851 794 851 767 851 635 842 635 842L635 858C692 864 723 872 743 883 759 893 766 908 770 928 875 918 888 883 888 832L888 132C909 128 924 119 931 112L848 47 814 89 182 89 111 56ZM316 400L316 757 327 757C353 757 380 742 380 737L380 652 613 652 613 737 622 737C644 737 676 721 677 714L677 438C694 435 709 427 714 420L638 362 604 400 384 400 316 369ZM380 623L380 428 613 428 613 623Z"/>
</svg>