<svg xmlns="http://www.w3.org/2000/svg"
    viewBox="0 0 1000 1000">
  <!--
© 2017-2024 Adobe (http://www.adobe.com/).
Noto is a trademark of Google Inc.
This Font Software is licensed under the SIL Open Font License, Version 1.1. This Font Software is distributed on an "AS IS" BASIS, WITHOUT WARRANTIES OR CONDITIONS OF ANY KIND, either express or implied. See the SIL Open Font License for the specific language, permissions and limitations governing your use of this Font Software.
http://scripts.sil.org/OFL
  -->
<path d="M296 176L296 626 150 626 150 176ZM87 147L87 783 98 783C126 783 150 767 150 759L150 655 296 655 296 748 305 748C329 748 360 730 361 723L361 188C381 184 396 176 403 168L323 105 286 147 156 147 87 114ZM367 495L380 523 561 491 561 820C561 879 583 898 665 898L769 898C929 898 963 886 963 854 963 840 958 832 934 823L931 650 918 650C904 723 891 798 884 816 879 826 874 830 863 832 848 833 817 833 770 833L676 833C634 833 628 825 628 803L628 479 952 422C963 421 973 414 973 403 937 376 877 340 877 340L836 414 628 450 628 188 628 164C715 139 795 111 854 86 879 94 896 93 903 83L821 20C731 79 547 157 395 199L400 216C453 207 508 196 561 182L561 461Z"/>
</svg>