<svg xmlns="http://www.w3.org/2000/svg" name="gid3527" data-unicode="吤"
    viewBox="0 0 1000 1000">
  <!--
© 2017-2024 Adobe (http://www.adobe.com/).
Noto is a trademark of Google Inc.
This Font Software is licensed under the SIL Open Font License, Version 1.1. This Font Software is distributed on an "AS IS" BASIS, WITHOUT WARRANTIES OR CONDITIONS OF ANY KIND, either express or implied. See the SIL Open Font License for the specific language, permissions and limitations governing your use of this Font Software.
http://scripts.sil.org/OFL
  -->
<path d="M737 394L737 959 749 959C773 959 800 944 800 935L800 430C822 426 830 417 832 405ZM488 395L488 522C488 665 460 835 277 943L288 957C515 857 549 673 551 524L551 432C575 429 582 418 584 406ZM281 191L281 593 139 593 139 191ZM653 99C708 230 807 343 927 419 933 392 949 368 974 361L976 347C849 294 736 197 668 88 692 87 701 81 704 71L602 46C560 162 457 306 344 398L344 203C364 199 379 191 386 184L307 121 271 162 144 162 78 130 78 738 88 738C115 738 139 722 139 715L139 622 281 622 281 705 291 705C311 705 343 690 344 682L344 422C477 343 594 215 653 99Z"/>
</svg>