<svg xmlns="http://www.w3.org/2000/svg" name="gid3528" data-unicode="否"
    viewBox="0 0 1000 1000">
  <!--
© 2017-2024 Adobe (http://www.adobe.com/).
Noto is a trademark of Google Inc.
This Font Software is licensed under the SIL Open Font License, Version 1.1. This Font Software is distributed on an "AS IS" BASIS, WITHOUT WARRANTIES OR CONDITIONS OF ANY KIND, either express or implied. See the SIL Open Font License for the specific language, permissions and limitations governing your use of this Font Software.
http://scripts.sil.org/OFL
  -->
<path d="M603 269L598 284C719 331 829 421 877 490 939 541 972 469 899 404 840 350 736 302 603 269ZM64 114L73 143 492 143C402 289 219 441 33 535L41 549C195 487 347 396 465 287L465 549 477 549C502 549 530 533 531 527L531 256C547 253 558 247 561 238L526 226C550 199 573 171 592 143L911 143C925 143 936 138 939 127 902 96 844 53 844 53L793 114ZM733 608L733 851 274 851 274 608ZM209 580L209 956 220 956C246 956 274 941 274 934L274 880 733 880 733 952 743 952C764 952 797 937 798 931L798 622C819 618 835 609 842 601L759 538 722 580 279 580 209 547Z"/>
</svg>