<svg xmlns="http://www.w3.org/2000/svg"
    viewBox="0 0 1000 1000">
  <!--
© 2017-2023 Adobe (http://www.adobe.com/).
Noto is a trademark of Google Inc.
This Font Software is licensed under the SIL Open Font License, Version 1.1. This Font Software is distributed on an "AS IS" BASIS, WITHOUT WARRANTIES OR CONDITIONS OF ANY KIND, either express or implied. See the SIL Open Font License for the specific language, permissions and limitations governing your use of this Font Software.
http://scripts.sil.org/OFL
  -->
<path d="M838 127L838 443 698 443 698 127ZM437 97L437 815C437 884 468 904 567 904L715 904C925 904 969 893 969 859 969 845 963 838 937 829L933 651 920 651C905 734 891 802 883 822 877 833 871 837 855 839 834 842 785 842 716 842L573 842C511 842 501 831 501 801L501 473 838 473 838 552 848 552C869 552 901 537 902 531L902 136C919 133 934 125 940 118L865 60 829 97 513 97 437 65ZM637 127L637 443 501 443 501 127ZM278 164L278 613 139 613 139 164ZM78 135L78 782 89 782C116 782 139 766 139 758L139 642 278 642 278 739 287 739C309 739 339 723 340 715L340 176C360 172 376 164 382 156L303 95 268 135 145 135 78 104Z"/>
</svg>