<svg xmlns="http://www.w3.org/2000/svg"
    viewBox="0 0 1000 1000">
  <!--
© 2017-2024 Adobe (http://www.adobe.com/).
Noto is a trademark of Google Inc.
This Font Software is licensed under the SIL Open Font License, Version 1.1. This Font Software is distributed on an "AS IS" BASIS, WITHOUT WARRANTIES OR CONDITIONS OF ANY KIND, either express or implied. See the SIL Open Font License for the specific language, permissions and limitations governing your use of this Font Software.
http://scripts.sil.org/OFL
  -->
<path d="M834 13C767 48 643 92 528 118L457 87 457 403C457 597 427 771 259 909L272 922C494 790 521 586 521 402L521 385 717 385 717 927 728 927C762 927 783 911 783 906L783 385 942 385C956 385 964 380 967 369 935 339 884 298 884 298L838 355 521 355 521 142C647 132 777 108 863 83 887 92 905 92 913 84ZM289 158L289 553 140 553 140 158ZM78 129L78 734 89 734C116 734 140 719 140 711L140 583 289 583 289 674 299 674C319 674 351 659 353 652L353 170C373 166 388 158 395 151L315 88 279 129 145 129 78 97Z"/>
</svg>