<svg xmlns="http://www.w3.org/2000/svg" name="gid3556" data-unicode="呈"
    viewBox="0 0 1000 1000">
  <!--
© 2017-2024 Adobe (http://www.adobe.com/).
Noto is a trademark of Google Inc.
This Font Software is licensed under the SIL Open Font License, Version 1.1. This Font Software is distributed on an "AS IS" BASIS, WITHOUT WARRANTIES OR CONDITIONS OF ANY KIND, either express or implied. See the SIL Open Font License for the specific language, permissions and limitations governing your use of this Font Software.
http://scripts.sil.org/OFL
  -->
<path d="M127 513L136 543 464 543 464 695 156 695 164 724 464 724 464 901 57 901 65 930 919 930C933 930 943 925 946 914 911 883 855 838 855 838L806 901 531 901 531 724 853 724C866 724 877 719 880 709 846 677 792 635 792 635L745 695 531 695 531 543 873 543C887 543 898 538 899 527 866 496 812 452 812 452L764 513ZM200 108L200 451 210 451C237 451 265 437 265 430L265 388 734 388 734 432 744 432C764 432 798 418 799 411L799 150C819 146 835 138 841 130L760 68 724 108 271 108 200 76ZM265 359L265 137 734 137 734 359Z"/>
</svg>