<svg xmlns="http://www.w3.org/2000/svg"
    viewBox="0 0 1000 1000">
  <!--
© 2017-2023 Adobe (http://www.adobe.com/).
Noto is a trademark of Google Inc.
This Font Software is licensed under the SIL Open Font License, Version 1.1. This Font Software is distributed on an "AS IS" BASIS, WITHOUT WARRANTIES OR CONDITIONS OF ANY KIND, either express or implied. See the SIL Open Font License for the specific language, permissions and limitations governing your use of this Font Software.
http://scripts.sil.org/OFL
  -->
<path d="M415 216L401 221C435 286 472 384 469 461 531 526 600 367 415 216ZM829 194C807 291 771 401 742 470L758 479C806 419 857 330 895 247 915 247 927 238 931 228ZM840 19C738 66 538 118 368 140L371 156C452 154 537 147 616 136L616 520 329 520 337 549 616 549 616 828C616 844 610 851 590 851 565 851 450 842 450 842L450 858C501 863 529 871 547 882 561 892 568 908 570 928 667 919 680 881 680 831L680 549 957 549C970 549 980 545 982 534 949 502 895 461 895 461L848 520 680 520 680 127C750 115 814 102 865 88 889 97 907 97 916 90ZM78 143L78 766 88 766C115 766 138 751 138 743L138 627 267 627 267 717 276 717C298 717 328 700 329 694L329 184C349 180 365 172 372 164L293 102 257 143 143 143 78 111ZM267 172L267 599 138 599 138 172Z"/>
</svg>