<svg xmlns="http://www.w3.org/2000/svg"
    viewBox="0 0 1000 1000">
  <!--
© 2017-2023 Adobe (http://www.adobe.com/).
Noto is a trademark of Google Inc.
This Font Software is licensed under the SIL Open Font License, Version 1.1. This Font Software is distributed on an "AS IS" BASIS, WITHOUT WARRANTIES OR CONDITIONS OF ANY KIND, either express or implied. See the SIL Open Font License for the specific language, permissions and limitations governing your use of this Font Software.
http://scripts.sil.org/OFL
  -->
<path d="M279 161L279 596 139 596 139 161ZM78 133L78 755 88 755C116 755 139 740 139 732L139 625 279 625 279 714 289 714C312 714 343 696 344 689L344 174C364 170 379 162 386 154L306 91 269 133 144 133 78 100ZM317 822L357 915C367 912 377 905 382 893 592 855 744 824 857 798 879 837 896 876 905 910 987 974 1037 789 739 601L726 608C764 655 810 718 846 780 721 792 600 802 501 810 558 725 627 598 675 494L951 494C965 494 975 489 977 478 945 447 890 404 890 404L843 465 680 465 680 260 923 260C937 260 947 255 950 244 917 213 863 171 863 171L816 230 680 230 680 63C704 59 713 49 716 35L613 24 613 230 384 230 392 260 613 260 613 465 360 465 368 494 582 494C555 590 506 726 467 812 404 817 352 821 317 822Z"/>
</svg>