<svg xmlns="http://www.w3.org/2000/svg" name="gid3589" data-unicode="咀"
    viewBox="0 0 1000 1000">
  <!--
© 2017-2024 Adobe (http://www.adobe.com/).
Noto is a trademark of Google Inc.
This Font Software is licensed under the SIL Open Font License, Version 1.1. This Font Software is distributed on an "AS IS" BASIS, WITHOUT WARRANTIES OR CONDITIONS OF ANY KIND, either express or implied. See the SIL Open Font License for the specific language, permissions and limitations governing your use of this Font Software.
http://scripts.sil.org/OFL
  -->
<path d="M439 114L439 889 235 889 243 918 952 918C965 918 974 913 977 902 950 872 902 828 902 828L861 889 841 889 841 154C866 150 880 145 887 136L800 68 765 114 514 114 439 81ZM503 889L503 653 777 653 777 889ZM503 394L777 394 777 624 503 624ZM503 365L503 143 777 143 777 365ZM280 180L280 626 140 626 140 180ZM78 151L78 783 89 783C116 783 140 768 140 760L140 654 280 654 280 746 290 746C311 746 342 731 343 724L343 192C363 188 379 181 386 172L306 110 270 151 146 151 78 118Z"/>
</svg>