<svg xmlns="http://www.w3.org/2000/svg"
    viewBox="0 0 1000 1000">
  <!--
© 2017-2023 Adobe (http://www.adobe.com/).
Noto is a trademark of Google Inc.
This Font Software is licensed under the SIL Open Font License, Version 1.1. This Font Software is distributed on an "AS IS" BASIS, WITHOUT WARRANTIES OR CONDITIONS OF ANY KIND, either express or implied. See the SIL Open Font License for the specific language, permissions and limitations governing your use of this Font Software.
http://scripts.sil.org/OFL
  -->
<path d="M626 23L626 363 490 363 490 147C515 143 524 134 526 120L428 109 428 473 439 473C463 473 490 460 490 452L490 393 626 393 626 811 472 811 472 571C497 567 507 558 509 545L410 534 410 927 422 927C445 927 472 913 472 906L472 840 848 840 848 919 861 919C885 919 912 905 912 898L912 572C938 568 947 558 949 545L848 534 848 811 691 811 691 393 834 393 834 463 846 463C871 463 899 449 899 441L899 147C924 143 933 134 935 120L834 109 834 363 691 363 691 62C715 58 724 48 726 34ZM274 159L274 594 141 594 141 159ZM79 130L79 766 89 766C118 766 141 750 141 742L141 623 274 623 274 711 283 711C305 711 336 694 337 688L337 171C357 167 373 159 380 152L300 89 264 130 146 130 79 98Z"/>
</svg>