<svg xmlns="http://www.w3.org/2000/svg"
    viewBox="0 0 1000 1000">
  <!--
© 2017-2023 Adobe (http://www.adobe.com/).
Noto is a trademark of Google Inc.
This Font Software is licensed under the SIL Open Font License, Version 1.1. This Font Software is distributed on an "AS IS" BASIS, WITHOUT WARRANTIES OR CONDITIONS OF ANY KIND, either express or implied. See the SIL Open Font License for the specific language, permissions and limitations governing your use of this Font Software.
http://scripts.sil.org/OFL
  -->
<path d="M445 521L445 928 455 928C488 928 508 913 508 908L508 846 819 846 819 918 828 918C858 918 882 902 882 898L882 554C903 551 913 546 920 538L847 482 814 521 520 521 445 489ZM508 817L508 550 819 550 819 817ZM358 360L389 444C399 442 409 435 415 422 605 394 749 370 859 350 878 381 892 411 900 439 979 495 1023 320 733 170L721 178C761 218 808 273 845 329L515 352C572 259 633 147 667 68 690 69 701 61 705 49L598 16C571 115 526 250 486 354 433 357 389 359 358 360ZM278 168L278 593 139 593 139 168ZM78 140L78 750 89 750C116 750 139 735 139 728L139 622 278 622 278 708 288 708C309 708 340 691 341 683L341 180C360 176 376 168 382 161L304 99 268 140 144 140 78 108Z"/>
</svg>