<svg xmlns="http://www.w3.org/2000/svg" name="gid3601" data-unicode="咎"
    viewBox="0 0 1000 1000">
  <!--
© 2017-2024 Adobe (http://www.adobe.com/).
Noto is a trademark of Google Inc.
This Font Software is licensed under the SIL Open Font License, Version 1.1. This Font Software is distributed on an "AS IS" BASIS, WITHOUT WARRANTIES OR CONDITIONS OF ANY KIND, either express or implied. See the SIL Open Font License for the specific language, permissions and limitations governing your use of this Font Software.
http://scripts.sil.org/OFL
  -->
<path d="M720 636L720 851 279 851 279 636ZM214 606L214 958 225 958C250 958 279 942 279 936L279 880 720 880 720 954 730 954C752 954 785 938 786 932L786 646C804 643 819 635 825 628L747 568 711 606 285 606 214 574ZM432 184C408 253 374 318 329 376 286 344 250 303 219 250 236 229 251 206 265 184ZM250 44C215 168 136 313 45 394L57 405C112 369 163 321 207 266 236 323 268 368 307 405 239 484 151 551 42 600L51 615C175 573 272 512 346 438 460 522 615 545 839 545 857 545 899 545 916 545 918 519 932 500 957 495L957 482C922 482 871 482 846 482 638 482 487 466 376 406 433 343 474 270 505 192 528 190 538 188 546 180L474 113 430 155 282 155C296 130 309 106 319 82 345 84 353 78 356 67ZM678 68C662 200 608 339 489 414L497 429C587 391 649 327 691 254 756 295 830 362 854 421 929 460 955 303 701 235 722 195 738 151 749 109 774 108 781 101 784 90Z"/>
</svg>