<svg xmlns="http://www.w3.org/2000/svg"
    viewBox="0 0 1000 1000">
  <!--
© 2017-2023 Adobe (http://www.adobe.com/).
Noto is a trademark of Google Inc.
This Font Software is licensed under the SIL Open Font License, Version 1.1. This Font Software is distributed on an "AS IS" BASIS, WITHOUT WARRANTIES OR CONDITIONS OF ANY KIND, either express or implied. See the SIL Open Font License for the specific language, permissions and limitations governing your use of this Font Software.
http://scripts.sil.org/OFL
  -->
<path d="M498 16L494 30C592 72 666 133 694 172 768 202 799 49 498 16ZM402 225L408 249 617 249 617 826C617 841 612 848 594 848 573 848 472 840 472 840L472 856C517 862 542 869 556 880 570 890 575 908 578 927 670 918 681 885 681 834L681 374C719 619 798 738 922 836 932 804 953 781 980 775L982 765C883 709 794 633 737 493 808 450 885 390 925 354 945 360 961 353 966 345L874 284C845 332 783 414 729 473 708 417 692 351 681 273L681 269C703 265 720 257 727 248L641 182 606 225ZM327 402L336 431 488 431C455 596 378 748 224 841L234 856C429 765 513 610 556 438 577 435 587 433 594 424L523 361 484 401 493 402ZM261 185L261 611 138 611 138 185ZM78 156L78 764 88 764C115 764 138 749 138 741L138 641 261 641 261 712 271 712C292 712 322 696 324 689L324 198C344 194 360 186 367 178L287 116 251 156 143 156 78 125Z"/>
</svg>