<svg xmlns="http://www.w3.org/2000/svg" name="gid3626" data-unicode="咲"
    viewBox="0 0 1000 1000">
  <!--
© 2017-2024 Adobe (http://www.adobe.com/).
Noto is a trademark of Google Inc.
This Font Software is licensed under the SIL Open Font License, Version 1.1. This Font Software is distributed on an "AS IS" BASIS, WITHOUT WARRANTIES OR CONDITIONS OF ANY KIND, either express or implied. See the SIL Open Font License for the specific language, permissions and limitations governing your use of this Font Software.
http://scripts.sil.org/OFL
  -->
<path d="M421 51L410 59C452 106 500 183 508 246 578 302 640 146 421 51ZM762 43C739 113 697 209 658 278L370 278 377 307 590 307 590 463 589 503 353 503 361 532 587 532C571 683 500 825 245 943L254 958C560 854 637 691 653 532L655 532C697 731 773 875 912 957 921 923 943 901 970 895L972 885C831 829 726 693 675 532L939 532C953 532 962 527 965 516 931 484 875 440 875 440L826 503 655 503 656 462 656 307 917 307C932 307 942 302 945 291 911 260 856 218 856 218L809 278 684 278C741 222 799 151 833 95 854 96 866 88 871 77ZM271 199L271 619 140 619 140 199ZM78 170L78 791 89 791C116 791 140 776 140 768L140 648 271 648 271 739 281 739C303 739 333 723 334 717L334 212C354 208 371 199 378 191L298 129 261 170 145 170 78 138Z"/>
</svg>