<svg xmlns="http://www.w3.org/2000/svg"
    viewBox="0 0 1000 1000">
  <!--
© 2017-2023 Adobe (http://www.adobe.com/).
Noto is a trademark of Google Inc.
This Font Software is licensed under the SIL Open Font License, Version 1.1. This Font Software is distributed on an "AS IS" BASIS, WITHOUT WARRANTIES OR CONDITIONS OF ANY KIND, either express or implied. See the SIL Open Font License for the specific language, permissions and limitations governing your use of this Font Software.
http://scripts.sil.org/OFL
  -->
<path d="M684 102L684 249 604 249 604 102ZM393 249L393 923 404 923C431 923 452 907 452 900L452 820 851 820 851 919 860 919C882 919 911 903 912 896L912 290C932 286 949 278 955 270L877 210 841 249 741 249 741 102 933 102C948 102 958 97 961 87 926 56 873 14 873 14L825 73 362 73 370 102 548 102 548 249 458 249 393 217ZM551 278L551 354C551 447 543 566 453 668L466 682C593 587 604 448 604 354L604 278 684 278 684 546C684 584 693 600 743 600L789 600C815 600 836 599 851 597L851 792 452 792 452 278ZM740 278L851 278 851 543 840 544C837 545 833 545 829 545 822 545 808 545 794 545L757 545C743 545 740 542 740 531ZM263 152L263 605 139 605 139 152ZM78 122L78 779 89 779C116 779 139 764 139 756L139 633 263 633 263 724 272 724C294 724 324 709 325 701L325 163C345 159 361 152 368 144L289 81 253 122 144 122 78 90Z"/>
</svg>