<svg xmlns="http://www.w3.org/2000/svg" name="gid3644" data-unicode="哈"
    viewBox="0 0 1000 1000">
  <!--
© 2017-2024 Adobe (http://www.adobe.com/).
Noto is a trademark of Google Inc.
This Font Software is licensed under the SIL Open Font License, Version 1.1. This Font Software is distributed on an "AS IS" BASIS, WITHOUT WARRANTIES OR CONDITIONS OF ANY KIND, either express or implied. See the SIL Open Font License for the specific language, permissions and limitations governing your use of this Font Software.
http://scripts.sil.org/OFL
  -->
<path d="M738 349L694 407 469 407 477 436 794 436C808 436 818 431 821 420 789 390 738 349 738 349ZM141 648L141 171 269 171 269 648ZM704 76L603 38C540 219 433 389 330 490L330 183C350 179 366 172 373 164L295 102 259 142 147 142 81 110 81 801 92 801C120 801 141 785 141 777L141 678 269 678 269 754 278 754C300 754 329 737 330 731L330 496 340 504C461 419 572 285 652 119 708 255 811 390 922 469 928 446 946 430 970 423L973 412C856 345 721 220 666 93 687 95 699 87 704 76ZM776 602L776 857 493 857 493 602ZM493 932L493 887 776 887 776 945 785 945C806 945 837 931 838 924L838 611C856 608 871 601 878 593L801 534 767 572 498 572 429 540 429 953 440 953C466 953 493 938 493 932Z"/>
</svg>