<svg xmlns="http://www.w3.org/2000/svg"
    viewBox="0 0 1000 1000">
  <!--
© 2017-2024 Adobe (http://www.adobe.com/).
Noto is a trademark of Google Inc.
This Font Software is licensed under the SIL Open Font License, Version 1.1. This Font Software is distributed on an "AS IS" BASIS, WITHOUT WARRANTIES OR CONDITIONS OF ANY KIND, either express or implied. See the SIL Open Font License for the specific language, permissions and limitations governing your use of this Font Software.
http://scripts.sil.org/OFL
  -->
<path d="M412 87L412 575 422 575C448 575 472 560 472 553L472 516 622 516 622 670 377 670 385 699 622 699 622 863 277 863 285 892 948 892C962 892 972 887 974 877 940 845 884 801 884 801L834 863 685 863 685 699 910 699C924 699 934 694 937 683 903 652 850 609 850 609L803 670 685 670 685 516 835 516 835 558 844 558C866 558 898 542 899 535L899 128C918 124 934 116 941 108L862 47 825 87 478 87 412 55ZM622 116L622 286 472 286 472 116ZM685 116L835 116 835 286 685 286ZM622 486L472 486 472 316 622 316ZM685 486L685 316 835 316 835 486ZM268 147L268 575 139 575 139 147ZM78 117L78 742 88 742C115 742 139 726 139 718L139 605 268 605 268 693 277 693C299 693 328 678 329 671L329 159C349 155 366 147 373 139L294 77 258 117 144 117 78 86Z"/>
</svg>