<svg xmlns="http://www.w3.org/2000/svg" name="gid3662" data-unicode="哱"
    viewBox="0 0 1000 1000">
  <!--
© 2017-2024 Adobe (http://www.adobe.com/).
Noto is a trademark of Google Inc.
This Font Software is licensed under the SIL Open Font License, Version 1.1. This Font Software is distributed on an "AS IS" BASIS, WITHOUT WARRANTIES OR CONDITIONS OF ANY KIND, either express or implied. See the SIL Open Font License for the specific language, permissions and limitations governing your use of this Font Software.
http://scripts.sil.org/OFL
  -->
<path d="M260 196L260 631 140 631 140 196ZM79 167L79 784 90 784C116 784 140 769 140 761L140 659 260 659 260 742 269 742C292 742 321 726 322 719L322 208C342 204 358 196 366 188L286 126 250 167 144 167 79 135ZM420 274C421 325 393 379 366 400 347 414 335 434 345 453 357 475 390 470 409 453 430 434 448 395 447 341L859 341 822 422 802 404 761 443 450 443 459 473 749 473C724 502 691 538 660 565L620 560 620 657 366 657 373 687 620 687 620 859C620 874 615 879 597 879 577 879 474 871 474 871L474 887C518 893 544 900 558 911 572 922 577 939 581 960 674 950 685 918 685 864L685 687 938 687C952 687 963 682 965 671 932 640 879 599 879 599L832 657 685 657 685 596C707 592 716 585 718 571L687 568C739 542 796 506 835 480 854 479 867 478 875 470L833 432C863 413 911 376 937 352 957 351 967 349 975 341L901 269 860 312 683 312 683 199 931 199C945 199 955 194 958 183 925 153 873 112 873 112L826 170 683 170 683 75C707 72 717 62 719 49L619 38 619 170 397 170 405 199 619 199 619 312 445 312C444 300 441 288 438 275Z"/>
</svg>