<svg xmlns="http://www.w3.org/2000/svg" name="gid3684" data-unicode="唔"
    viewBox="0 0 1000 1000">
  <!--
© 2017-2024 Adobe (http://www.adobe.com/).
Noto is a trademark of Google Inc.
This Font Software is licensed under the SIL Open Font License, Version 1.1. This Font Software is distributed on an "AS IS" BASIS, WITHOUT WARRANTIES OR CONDITIONS OF ANY KIND, either express or implied. See the SIL Open Font License for the specific language, permissions and limitations governing your use of this Font Software.
http://scripts.sil.org/OFL
  -->
<path d="M334 481L342 510 950 510C964 510 973 505 975 494 946 464 896 422 896 422L852 481 827 481 827 314C845 310 862 302 868 294L790 234 752 273 603 273 632 139 925 139C939 139 950 134 953 123 918 94 864 53 864 53L817 111 352 111 360 139 568 139 540 273 383 273 392 302 533 302C519 367 504 431 491 481ZM597 302L762 302 762 481 554 481ZM807 645L807 851 485 851 485 645ZM422 616L422 960 432 960C458 960 485 945 485 939L485 881 807 881 807 952 816 952C837 952 870 936 871 930L871 657C891 653 906 646 913 638L833 576 797 616 490 616 422 585ZM261 196L261 623 138 623 138 196ZM78 167L78 791 88 791C115 791 138 775 138 768L138 652 261 652 261 741 271 741C292 741 322 724 324 718L324 208C344 204 360 196 367 188L288 127 251 167 143 167 78 136Z"/>
</svg>