<svg xmlns="http://www.w3.org/2000/svg"
    viewBox="0 0 1000 1000">
  <!--
© 2017-2024 Adobe (http://www.adobe.com/).
Noto is a trademark of Google Inc.
This Font Software is licensed under the SIL Open Font License, Version 1.1. This Font Software is distributed on an "AS IS" BASIS, WITHOUT WARRANTIES OR CONDITIONS OF ANY KIND, either express or implied. See the SIL Open Font License for the specific language, permissions and limitations governing your use of this Font Software.
http://scripts.sil.org/OFL
  -->
<path d="M472 263L480 292 768 292C781 292 791 287 793 277 764 249 716 211 716 211L675 263ZM800 630L789 637C837 688 893 773 902 840 972 896 1030 737 800 630ZM535 567L526 578C578 606 642 662 664 708 736 740 758 593 535 567ZM374 639C372 712 326 778 284 803 265 817 253 836 263 856 275 876 310 871 334 852 373 823 416 751 392 639ZM467 617L467 847C467 892 480 906 553 906L653 906C797 906 827 896 827 868 827 856 822 848 801 841L798 738 785 738C776 783 765 825 759 839 755 846 751 848 741 849 729 850 696 850 656 850L566 850C532 850 528 847 528 834L528 652C546 649 556 640 557 628ZM391 380L400 410 757 410C736 460 704 526 678 579 705 591 725 592 742 588 768 537 802 463 821 421 842 420 859 415 867 408L795 343 759 380ZM258 156L258 570 138 570 138 156ZM646 62C699 168 802 265 911 327 917 302 937 280 964 273L965 260C848 213 727 140 662 50 685 49 696 44 698 33L589 11C554 108 430 246 320 325L320 168C339 164 355 156 362 149L284 87 248 127 143 127 79 96 79 742 89 742C115 742 138 728 138 720L138 599 258 599 258 689 268 689C289 689 319 673 320 667L320 346C448 280 580 167 646 62Z"/>
</svg>