<svg xmlns="http://www.w3.org/2000/svg"
    viewBox="0 0 1000 1000">
  <!--
© 2017-2023 Adobe (http://www.adobe.com/).
Noto is a trademark of Google Inc.
This Font Software is licensed under the SIL Open Font License, Version 1.1. This Font Software is distributed on an "AS IS" BASIS, WITHOUT WARRANTIES OR CONDITIONS OF ANY KIND, either express or implied. See the SIL Open Font License for the specific language, permissions and limitations governing your use of this Font Software.
http://scripts.sil.org/OFL
  -->
<path d="M704 387L695 395C741 435 791 504 800 562 870 614 924 458 704 387ZM660 680L650 690C725 742 817 834 841 911 927 963 967 774 660 680ZM798 70C819 209 871 313 934 391 939 365 958 344 982 336L984 325C909 267 842 175 813 58 833 56 840 52 843 42L739 19C733 81 713 153 685 222 654 192 607 152 607 152L564 211 494 211 494 51C518 47 528 37 530 23L433 14 433 211 296 211 296 163C315 159 331 152 338 144L260 82 226 122 139 122 75 91 75 777 86 777C112 777 134 762 134 755L134 644 235 644 235 722 244 722C265 722 295 707 296 699L296 236 297 240 404 240C405 509 381 727 230 915L243 927C395 789 443 619 459 410L555 410C547 673 528 802 499 830 490 839 482 842 465 842 447 842 401 838 372 835L371 852C398 857 424 865 435 874 446 884 448 900 448 919 483 919 517 908 542 882 582 840 606 708 614 417 635 414 646 409 653 401L631 383C707 306 769 195 798 70ZM546 380L462 380C465 335 466 289 468 240L661 240C671 240 678 238 681 232 661 281 637 328 612 367L580 341ZM235 152L235 614 134 614 134 152Z"/>
</svg>