<svg xmlns="http://www.w3.org/2000/svg"
    viewBox="0 0 1000 1000">
  <!--
© 2017-2023 Adobe (http://www.adobe.com/).
Noto is a trademark of Google Inc.
This Font Software is licensed under the SIL Open Font License, Version 1.1. This Font Software is distributed on an "AS IS" BASIS, WITHOUT WARRANTIES OR CONDITIONS OF ANY KIND, either express or implied. See the SIL Open Font License for the specific language, permissions and limitations governing your use of this Font Software.
http://scripts.sil.org/OFL
  -->
<path d="M50 84L58 113 501 113C514 113 525 108 527 97 495 67 442 26 442 26L396 84ZM722 604L722 829 275 829 275 604ZM210 575L210 928 220 928C246 928 275 912 275 906L275 858 722 858 722 925 732 925C754 925 787 909 788 902L788 614C805 611 820 603 826 596L748 536 712 575 281 575 210 543ZM388 230L388 370 173 370C175 349 175 328 175 309L175 230ZM112 201L112 310C112 408 107 516 39 607L51 619C132 558 160 475 170 399L388 399 388 451 398 451C419 451 450 436 451 429L451 239C468 236 484 228 489 221L414 164 379 201 186 201 112 168ZM618 13C590 131 536 257 474 330L488 340C530 308 568 265 600 217 619 279 643 335 676 384 613 447 528 497 415 536L422 551C540 521 633 480 704 423 754 486 822 536 915 572 921 541 940 524 966 517L968 507C872 482 799 442 742 390 801 333 841 263 866 176L932 176C946 176 956 171 958 160 926 130 874 87 874 87L828 147 641 147C656 119 669 90 680 62 700 62 712 53 715 41ZM705 351C666 306 637 253 614 194L625 176 791 176C774 243 746 301 705 351Z"/>
</svg>