<svg xmlns="http://www.w3.org/2000/svg"
    viewBox="0 0 1000 1000">
  <!--
© 2017-2024 Adobe (http://www.adobe.com/).
Noto is a trademark of Google Inc.
This Font Software is licensed under the SIL Open Font License, Version 1.1. This Font Software is distributed on an "AS IS" BASIS, WITHOUT WARRANTIES OR CONDITIONS OF ANY KIND, either express or implied. See the SIL Open Font License for the specific language, permissions and limitations governing your use of this Font Software.
http://scripts.sil.org/OFL
  -->
<path d="M272 159L272 567 143 567 143 159ZM82 130L82 707 93 707C119 707 143 692 143 685L143 597 272 597 272 666 281 666C302 666 332 650 333 644L333 171C353 167 370 159 376 152L298 90 262 130 148 130 82 99ZM689 512L689 678 336 678 344 707 689 707 689 927 700 927C725 927 753 914 753 906L753 707 945 707C959 707 968 702 971 691 940 661 889 618 889 618L844 678 753 678 753 550C778 546 787 537 789 523ZM841 160L841 289 688 289 688 160ZM618 12L586 131 486 131 412 99 412 537 421 537C452 537 473 521 473 516L473 483 598 483C566 544 503 596 382 640L391 655C552 614 627 554 661 483L841 483 841 530 850 530C872 530 904 516 904 510L904 172C924 168 939 160 946 153L866 92 831 131 624 131C643 108 667 78 684 56 705 57 717 49 721 35ZM473 160L626 160 626 289 473 289ZM841 318L841 453 673 453C685 416 688 377 688 337L688 318ZM473 318L626 318 626 339C626 380 622 418 610 453L473 453Z"/>
</svg>