<svg xmlns="http://www.w3.org/2000/svg" name="gid3745" data-unicode="喋"
    viewBox="0 0 1000 1000">
  <!--
© 2017-2024 Adobe (http://www.adobe.com/).
Noto is a trademark of Google Inc.
This Font Software is licensed under the SIL Open Font License, Version 1.1. This Font Software is distributed on an "AS IS" BASIS, WITHOUT WARRANTIES OR CONDITIONS OF ANY KIND, either express or implied. See the SIL Open Font License for the specific language, permissions and limitations governing your use of this Font Software.
http://scripts.sil.org/OFL
  -->
<path d="M314 195L322 225 401 225 401 560 413 560C435 560 461 546 461 539L461 504 914 504C928 504 937 499 940 488 906 457 853 417 853 417L806 475 461 475 461 225 570 225 570 424 582 424C604 424 630 411 630 403L630 369 747 369 747 414 759 414C781 414 807 400 807 393L807 225 938 225C951 225 961 220 964 209 934 180 886 141 886 141L843 195 807 195 807 83C832 79 840 70 842 56L747 46 747 195 630 195 630 78C652 74 661 65 663 52L570 42 570 195 461 195 461 89C485 86 493 76 496 63L401 52 401 195ZM630 339L630 225 747 225 747 339ZM319 629L327 658 531 658C460 762 347 856 213 919L223 936C373 881 502 801 588 698L588 958 600 958C624 958 651 945 651 936L651 665C709 780 805 869 911 920 920 888 941 869 967 863L969 853C859 820 741 748 672 658L936 658C950 658 960 653 963 643 927 611 871 569 871 569L821 629 651 630 651 558C677 554 686 545 688 531L588 520 588 629ZM250 160L250 638 137 638 137 160ZM79 131L79 799 89 799C116 799 137 784 137 777L137 667 250 667 250 744 259 744C281 744 311 729 311 721L311 172C331 168 347 160 353 152L276 92 240 131 143 131 79 101Z"/>
</svg>