<svg xmlns="http://www.w3.org/2000/svg" name="gid3754" data-unicode="喙"
    viewBox="0 0 1000 1000">
  <!--
© 2017-2024 Adobe (http://www.adobe.com/).
Noto is a trademark of Google Inc.
This Font Software is licensed under the SIL Open Font License, Version 1.1. This Font Software is distributed on an "AS IS" BASIS, WITHOUT WARRANTIES OR CONDITIONS OF ANY KIND, either express or implied. See the SIL Open Font License for the specific language, permissions and limitations governing your use of this Font Software.
http://scripts.sil.org/OFL
  -->
<path d="M865 437C837 479 788 536 743 580 716 526 695 466 680 405L939 405C953 405 963 400 966 389 933 359 881 317 881 317L835 376 762 376 801 164C817 163 826 160 834 152L765 95 733 129 518 129 528 81C554 79 564 69 567 55L470 43C461 109 425 264 399 328 428 337 455 336 468 326L477 293 710 293 694 376 316 376 316 191C335 188 351 180 358 173L280 112 244 151 144 151 81 120 81 745 91 745C117 745 139 731 139 724L139 617 254 617 254 684 264 684C284 684 314 668 316 661L316 576C395 552 468 520 530 480 541 494 551 509 560 524 488 600 362 679 250 722L257 738C375 707 503 649 591 588 598 606 604 624 609 641 519 735 363 832 223 884L230 901C367 863 517 794 623 722 629 792 618 851 599 877 594 886 585 886 572 886 551 886 484 883 445 880L445 897C479 901 513 910 525 918 537 926 544 939 544 957 598 957 629 946 647 924 708 852 708 609 548 468 575 448 600 428 621 405L660 405C698 629 769 797 911 894 921 861 943 842 968 837L970 827C879 783 806 702 753 601 811 569 879 527 916 496 932 502 944 501 950 492ZM531 405C477 463 401 515 316 555L316 405ZM511 159L736 159 716 264 485 264ZM254 181L254 587 139 587 139 181Z"/>
</svg>