<svg xmlns="http://www.w3.org/2000/svg" name="gid3764" data-unicode="喩"
    viewBox="0 0 1000 1000">
  <!--
© 2017-2024 Adobe (http://www.adobe.com/).
Noto is a trademark of Google Inc.
This Font Software is licensed under the SIL Open Font License, Version 1.1. This Font Software is distributed on an "AS IS" BASIS, WITHOUT WARRANTIES OR CONDITIONS OF ANY KIND, either express or implied. See the SIL Open Font License for the specific language, permissions and limitations governing your use of this Font Software.
http://scripts.sil.org/OFL
  -->
<path d="M453 338L461 368 764 368C777 368 787 363 790 352 760 323 711 286 711 286L669 338ZM429 541L419 551C449 568 483 601 493 632 545 662 579 559 429 541ZM425 677L415 687C447 704 481 737 490 767 543 799 576 694 425 677ZM716 427C707 476 673 605 653 679 699 757 728 876 736 941 785 985 875 885 679 675 711 614 761 510 781 463 797 464 806 459 809 450ZM866 429C854 478 809 606 782 680 838 758 875 874 887 941 938 985 1023 880 809 677 846 616 905 514 929 468 945 468 955 464 958 455ZM74 165L74 782 85 782C110 782 132 768 132 761L132 650 241 650 241 725 249 725C270 725 299 709 300 704L300 407C450 340 568 243 642 121 692 227 800 317 924 376 932 350 956 329 981 323L983 312C843 272 717 194 668 117 698 116 720 110 731 99L646 43 616 87 401 87 410 116 564 116C506 218 414 313 300 383L300 204C319 200 334 192 341 185L266 126 231 165 136 165 74 134ZM354 455L354 958 364 958C389 958 412 944 412 937L412 484 554 484 554 866C554 879 550 885 536 885 519 885 451 879 451 879L451 896C483 900 501 906 512 915 522 925 526 941 528 957 602 950 610 921 610 874L610 497C630 493 647 484 654 476L574 417 544 455 417 455 354 426ZM241 193L241 621 132 621 132 193Z"/>
</svg>