<svg xmlns="http://www.w3.org/2000/svg" name="gid3765" data-unicode="喪"
    viewBox="0 0 1000 1000">
  <!--
© 2017-2024 Adobe (http://www.adobe.com/).
Noto is a trademark of Google Inc.
This Font Software is licensed under the SIL Open Font License, Version 1.1. This Font Software is distributed on an "AS IS" BASIS, WITHOUT WARRANTIES OR CONDITIONS OF ANY KIND, either express or implied. See the SIL Open Font License for the specific language, permissions and limitations governing your use of this Font Software.
http://scripts.sil.org/OFL
  -->
<path d="M801 578C761 619 685 680 619 725 569 679 529 623 502 557L932 557C946 557 955 552 958 541 924 511 869 469 869 469L821 528 529 528 529 195 899 195C913 195 924 190 926 179 892 148 835 105 835 105L786 166 529 166 529 79C554 75 563 65 566 51L464 41 464 166 80 166 89 195 464 195 464 528 43 528 52 557 253 557 253 845C188 860 135 871 101 877L151 958C161 955 169 946 173 934 346 873 469 825 558 788L555 772 317 830 317 557 481 557C547 770 687 889 898 955 907 922 930 901 960 896L961 886C832 859 722 813 637 742 714 711 795 671 845 641 867 647 875 645 883 635ZM154 262L154 489 163 489C185 489 211 476 211 471L211 446 332 446 332 476 341 476C360 476 388 463 389 457L389 297C404 295 417 288 422 281L355 230 324 262 216 262 154 235ZM332 417L211 417 211 292 332 292ZM605 262L605 485 614 485C637 485 663 471 663 466L663 446 790 446 790 475 798 475C818 475 847 460 848 454L848 300C864 297 879 289 885 282L813 228 781 262 667 262 605 235ZM790 417L663 417 663 292 790 292Z"/>
</svg>