<svg xmlns="http://www.w3.org/2000/svg" name="gid3766" data-unicode="喫"
    viewBox="0 0 1000 1000">
  <!--
© 2017-2024 Adobe (http://www.adobe.com/).
Noto is a trademark of Google Inc.
This Font Software is licensed under the SIL Open Font License, Version 1.1. This Font Software is distributed on an "AS IS" BASIS, WITHOUT WARRANTIES OR CONDITIONS OF ANY KIND, either express or implied. See the SIL Open Font License for the specific language, permissions and limitations governing your use of this Font Software.
http://scripts.sil.org/OFL
  -->
<path d="M621 115L629 143 706 143C702 290 682 428 501 536L515 552C539 541 561 529 580 517 582 564 580 609 571 651L319 651 327 680 564 680C532 796 444 887 241 945L248 959C494 905 592 807 630 680 680 823 775 906 922 958 930 924 950 903 977 897L978 888C831 857 713 792 653 680L929 680C943 680 953 675 956 664 921 633 867 591 867 591L818 651 637 651C645 616 649 578 650 539 671 537 684 529 686 512L599 505C741 407 764 281 771 143L865 143C861 334 850 420 831 439 824 445 818 447 804 447 787 447 750 444 726 442L726 460C748 464 769 470 778 479 789 489 791 506 791 523 822 523 852 515 874 494 906 462 922 374 926 151 946 148 958 143 965 136L891 76 856 115ZM437 57L437 158 328 158 336 187 437 187 437 285 333 285 341 314 437 314 437 428C380 442 332 452 303 457L347 533C357 530 365 521 368 510 483 463 568 424 629 396L624 381 497 414 497 314 604 314C618 314 627 310 629 299 603 273 560 239 560 239L523 285 497 285 497 187 608 187C622 187 631 182 633 172 606 145 563 111 563 111L524 158 497 158 497 91C518 88 527 79 529 67ZM242 155L242 617 136 617 136 155ZM78 126L78 806 89 806C115 806 136 792 136 784L136 646 242 646 242 742 251 742C272 742 301 726 302 719L302 166C320 162 336 154 342 147L267 88 232 126 142 126 78 96Z"/>
</svg>