<svg xmlns="http://www.w3.org/2000/svg" name="gid3776" data-unicode="嗄"
    viewBox="0 0 1000 1000">
  <!--
© 2017-2024 Adobe (http://www.adobe.com/).
Noto is a trademark of Google Inc.
This Font Software is licensed under the SIL Open Font License, Version 1.1. This Font Software is distributed on an "AS IS" BASIS, WITHOUT WARRANTIES OR CONDITIONS OF ANY KIND, either express or implied. See the SIL Open Font License for the specific language, permissions and limitations governing your use of this Font Software.
http://scripts.sil.org/OFL
  -->
<path d="M139 646L139 168 261 168 261 646ZM139 774L139 676 261 676 261 751 270 751C292 751 321 735 322 728L322 179C342 175 358 168 365 160L287 99 251 138 144 138 79 107 79 798 90 798C118 798 139 782 139 774ZM560 589C586 588 596 582 598 571L498 552C469 633 401 739 323 804L335 815C388 786 435 746 475 703 502 749 536 788 576 821 482 875 364 915 237 941L244 956C382 939 511 904 618 851 700 904 802 937 923 959 931 927 950 905 978 899L979 887C866 877 761 856 673 820 738 780 791 732 830 675 856 674 870 672 879 664L803 594 754 637 529 637C541 621 551 605 560 589ZM506 667L750 667C718 715 674 757 619 794 567 766 523 730 490 686ZM482 513L482 441 801 441 801 513ZM872 38L825 95 345 95 353 125 581 125 556 214 488 214 420 184 420 585 431 585C457 585 482 570 482 564L482 542 801 542 801 574 810 574C831 574 863 560 864 554L864 256C884 252 900 244 907 236L827 174 791 214 594 214C618 188 644 155 667 125L934 125C948 125 958 120 960 109 926 78 872 38 872 38ZM482 412L482 345 801 345 801 412ZM482 316L482 244 801 244 801 316Z"/>
</svg>