<svg xmlns="http://www.w3.org/2000/svg"
    viewBox="0 0 1000 1000">
  <!--
© 2017-2024 Adobe (http://www.adobe.com/).
Noto is a trademark of Google Inc.
This Font Software is licensed under the SIL Open Font License, Version 1.1. This Font Software is distributed on an "AS IS" BASIS, WITHOUT WARRANTIES OR CONDITIONS OF ANY KIND, either express or implied. See the SIL Open Font License for the specific language, permissions and limitations governing your use of this Font Software.
http://scripts.sil.org/OFL
  -->
<path d="M251 166L251 574 136 574 136 166ZM78 137L78 720 89 720C114 720 136 706 136 699L136 604 251 604 251 663 260 663C281 663 309 646 310 640L310 174C327 171 341 164 347 157L276 100 242 137 140 137 78 107ZM511 866L417 866 417 641 511 641ZM566 866L566 641 660 641 660 866ZM714 866L714 641 810 641 810 866ZM358 612L358 866 266 866 274 895 953 895C966 895 975 890 978 879 952 850 906 809 906 809L870 863 870 648C895 645 908 640 915 629L832 568 799 612 429 612 358 580ZM335 474L369 557C379 555 388 548 395 536 578 515 715 498 818 482 840 508 857 536 866 561 936 604 969 450 712 361L701 371C733 394 770 427 801 462L505 471C540 430 582 375 618 328L926 328C940 328 949 323 952 312 921 281 870 239 870 239L826 298 642 298 642 173 869 173C883 173 892 168 895 157 865 127 816 85 816 85L771 144 642 144 642 56C666 52 677 43 679 28L578 18 578 144 375 144 383 173 578 173 578 298 334 298 342 328 534 328C514 373 489 430 467 472Z"/>
</svg>