<svg xmlns="http://www.w3.org/2000/svg" name="gid3787" data-unicode="嗔"
    viewBox="0 0 1000 1000">
  <!--
© 2017-2024 Adobe (http://www.adobe.com/).
Noto is a trademark of Google Inc.
This Font Software is licensed under the SIL Open Font License, Version 1.1. This Font Software is distributed on an "AS IS" BASIS, WITHOUT WARRANTIES OR CONDITIONS OF ANY KIND, either express or implied. See the SIL Open Font License for the specific language, permissions and limitations governing your use of this Font Software.
http://scripts.sil.org/OFL
  -->
<path d="M720 785L712 796C780 832 874 901 911 954 991 982 1004 828 720 785ZM557 773C500 836 381 908 273 945L282 960C406 937 534 885 604 832 625 839 633 835 641 826ZM371 348L371 813 383 813C406 813 432 800 432 791L432 755 939 755C953 755 962 750 964 739 932 709 880 668 880 668L834 725 432 725 432 380C450 377 458 370 460 358ZM436 45L436 201C436 250 453 261 547 261L705 261C916 261 949 254 949 224 949 213 941 207 917 200L914 129 902 129C893 162 884 189 876 199 871 206 864 208 850 209 831 211 775 211 707 211L552 211C500 211 496 208 496 194L496 150C621 146 754 127 842 109 863 118 880 118 888 110L826 53C752 81 617 112 496 128L496 77C514 74 523 66 525 54ZM244 185L244 622 137 622 137 185ZM78 155L78 777 88 777C114 777 137 762 137 754L137 650 244 650 244 725 253 725C274 725 304 711 305 704L305 195C324 191 340 184 346 176L270 117 234 155 141 155 78 124ZM814 349L814 416 569 416 569 349ZM510 320L510 693 520 693C544 693 569 679 569 673L569 645 814 645 814 673 823 673C842 673 873 658 874 651L874 361C894 357 909 349 916 341L838 282 804 320 574 320 510 290ZM569 446L814 446 814 516 569 516ZM569 545L814 545 814 616 569 616Z"/>
</svg>