<svg xmlns="http://www.w3.org/2000/svg"
    viewBox="0 0 1000 1000">
  <!--
© 2017-2023 Adobe (http://www.adobe.com/).
Noto is a trademark of Google Inc.
This Font Software is licensed under the SIL Open Font License, Version 1.1. This Font Software is distributed on an "AS IS" BASIS, WITHOUT WARRANTIES OR CONDITIONS OF ANY KIND, either express or implied. See the SIL Open Font License for the specific language, permissions and limitations governing your use of this Font Software.
http://scripts.sil.org/OFL
  -->
<path d="M688 242C670 345 635 448 595 517L611 527C642 496 670 456 695 410L740 410C739 469 738 525 733 576L585 576 593 606 729 606C712 731 662 832 520 913L534 929C690 858 755 765 783 647 802 770 839 862 912 929 923 897 942 876 968 872L970 863C882 812 824 725 799 606L946 606C960 606 969 601 971 590 941 560 892 521 892 521L849 576 795 576C801 525 803 470 804 410L929 410C943 410 953 405 955 394 925 365 878 327 878 327L835 380 710 380C724 351 737 320 748 289 769 289 778 281 782 269ZM400 14L400 211 290 211 290 165C309 161 324 154 330 147L255 87 222 126 139 126 76 95 76 783 86 783C112 783 133 768 133 760L133 646 231 646 231 723 240 723C260 723 289 707 290 701L290 222 295 240 365 240C370 516 361 725 208 915L220 926C376 787 415 621 425 406L503 406C497 673 482 796 454 822 446 830 439 833 423 833 405 833 364 829 336 826L336 844C361 849 384 856 395 865 406 875 408 891 408 910 442 910 475 900 498 875 537 833 558 711 564 413 585 411 597 406 604 398L530 337 495 376 426 376 429 240 600 240C606 240 611 239 615 237 601 275 585 310 568 340L582 349C619 312 652 264 679 209L938 209C952 209 962 204 963 193 934 162 883 122 883 122L839 179 693 179C710 141 724 100 736 58 758 58 769 48 772 36L672 12C662 85 644 157 622 220 592 190 546 153 546 153L502 211 461 211 461 51C486 47 496 37 498 23ZM231 154L231 616 133 616 133 154Z"/>
</svg>