<svg xmlns="http://www.w3.org/2000/svg"
    viewBox="0 0 1000 1000">
  <!--
© 2017-2024 Adobe (http://www.adobe.com/).
Noto is a trademark of Google Inc.
This Font Software is licensed under the SIL Open Font License, Version 1.1. This Font Software is distributed on an "AS IS" BASIS, WITHOUT WARRANTIES OR CONDITIONS OF ANY KIND, either express or implied. See the SIL Open Font License for the specific language, permissions and limitations governing your use of this Font Software.
http://scripts.sil.org/OFL
  -->
<path d="M368 87L368 930 377 930C409 930 430 913 430 907L430 873 936 873C950 873 960 868 962 857 930 826 877 785 877 785L831 843 430 843 430 116 920 116C934 116 943 111 946 100 913 70 860 29 860 29L816 87 442 87 368 55ZM240 162L240 617 134 617 134 162ZM77 133L77 771 87 771C113 771 134 755 134 748L134 646 240 646 240 714 249 714C270 714 299 698 300 692L300 173C318 169 334 161 340 154L265 95 230 133 139 133 77 103ZM777 227L777 352 601 352 601 227ZM544 198L544 435 553 435C577 435 601 421 601 416L601 381 777 381 777 423 787 423C807 423 838 409 839 404L839 238C857 234 873 227 880 220L802 161 768 198 606 198 544 170ZM613 515L613 686 533 686 533 515ZM481 486L481 780 490 780C512 780 533 767 533 762L533 715 613 715 613 757 621 757C639 757 665 744 666 739L666 525C684 521 700 514 706 506L636 452 604 486 538 486 481 460ZM854 515L854 686 774 686 774 515ZM724 486L724 776 732 776C754 776 774 764 774 758L774 715 854 715 854 756 862 756C880 756 907 743 908 738L908 525C925 521 941 513 948 506L877 452 845 486 779 486 724 460Z"/>
</svg>