<svg xmlns="http://www.w3.org/2000/svg" name="gid3830" data-unicode="嘩"
    viewBox="0 0 1000 1000">
  <!--
© 2017-2024 Adobe (http://www.adobe.com/).
Noto is a trademark of Google Inc.
This Font Software is licensed under the SIL Open Font License, Version 1.1. This Font Software is distributed on an "AS IS" BASIS, WITHOUT WARRANTIES OR CONDITIONS OF ANY KIND, either express or implied. See the SIL Open Font License for the specific language, permissions and limitations governing your use of this Font Software.
http://scripts.sil.org/OFL
  -->
<path d="M585 331L585 461 486 461 486 331ZM647 331L748 331 748 461 647 461ZM79 160L79 778 89 778C115 778 137 763 137 756L137 639 250 639 250 721 259 721C280 721 310 705 311 699L311 484 313 491 428 491 428 629 322 629 330 658 585 658 585 766 279 766 287 795 585 795 585 960 594 960C627 960 647 945 647 940L647 795 933 795C947 795 957 790 959 779 925 748 870 706 870 706L822 766 647 766 647 658 925 658C939 658 948 653 951 642 920 613 872 575 872 575L830 629 805 629 805 491 945 491C959 491 968 486 970 475 939 445 889 405 889 405L845 461 805 461 805 331 913 331C927 331 938 326 940 315 908 286 858 247 858 247L814 302 329 302 337 331 428 331 428 461 311 461 311 200C325 197 338 192 344 186L483 186 483 260 495 260C522 260 545 250 545 244L545 186 697 186 697 258 711 258C744 257 761 245 761 240L761 186 934 186C948 186 957 181 960 171 929 141 881 103 881 103L838 157 761 157 761 86C784 83 792 72 794 59L697 49 697 157 545 157 545 86C568 83 576 73 578 59L483 49 483 157 322 157 275 120 240 160 142 160 79 129ZM585 629L486 629 486 491 585 491ZM647 629L647 491 748 491 748 629ZM250 188L250 610 137 610 137 188Z"/>
</svg>