<svg xmlns="http://www.w3.org/2000/svg"
    viewBox="0 0 1000 1000">
  <!--
© 2017-2023 Adobe (http://www.adobe.com/).
Noto is a trademark of Google Inc.
This Font Software is licensed under the SIL Open Font License, Version 1.1. This Font Software is distributed on an "AS IS" BASIS, WITHOUT WARRANTIES OR CONDITIONS OF ANY KIND, either express or implied. See the SIL Open Font License for the specific language, permissions and limitations governing your use of this Font Software.
http://scripts.sil.org/OFL
  -->
<path d="M843 566L843 710 763 710 763 551C780 548 787 541 789 530L705 520 705 869 626 869 626 551C643 548 650 541 652 530L568 520 568 710 494 710 494 598C511 594 519 586 521 576L437 566 437 803 448 803C469 803 494 791 494 784L494 740 568 740 568 869 359 869 367 898 955 898C968 898 978 893 981 882 950 853 898 813 898 813L853 869 763 869 763 740 843 740 843 793 854 793C875 793 900 780 900 774L900 598C918 594 925 586 927 576ZM366 201L366 416C366 589 347 766 219 910L232 922C410 782 428 576 428 415L428 230 860 230C851 258 839 291 830 313L844 321C872 300 909 266 930 240 949 239 961 237 967 230L896 160 857 201 647 201 647 133 880 133C894 133 903 128 905 117 875 88 826 49 826 49L782 104 647 104 647 52C670 48 680 39 682 25L584 15 584 201 440 201 366 166ZM564 241L564 344 436 356 446 385 564 373 564 408C564 475 577 488 654 488L826 488C897 488 920 474 920 449 920 438 916 435 893 426L892 365 878 365C870 399 863 420 857 428 851 436 842 436 827 436L658 436C626 436 625 434 625 410L625 367 807 349C820 349 829 343 830 331 802 310 757 279 757 279L724 328 625 338 625 276C642 273 651 265 653 253ZM235 166L235 576 135 576 135 166ZM78 137L78 737 88 737C113 737 135 723 135 715L135 606 235 606 235 684 244 684C265 684 294 670 295 663L295 177C314 173 329 165 336 157L260 99 226 137 139 137 78 106Z"/>
</svg>