<svg xmlns="http://www.w3.org/2000/svg" name="gid3864" data-unicode="噞"
    viewBox="0 0 1000 1000">
  <!--
© 2017-2024 Adobe (http://www.adobe.com/).
Noto is a trademark of Google Inc.
This Font Software is licensed under the SIL Open Font License, Version 1.1. This Font Software is distributed on an "AS IS" BASIS, WITHOUT WARRANTIES OR CONDITIONS OF ANY KIND, either express or implied. See the SIL Open Font License for the specific language, permissions and limitations governing your use of this Font Software.
http://scripts.sil.org/OFL
  -->
<path d="M468 297L476 326 784 326C798 326 808 321 810 311 782 283 737 247 737 247L698 297ZM254 195L254 604 137 604 137 195ZM644 94C705 198 813 289 928 349 935 325 949 303 974 297L975 283C851 241 733 166 660 83 684 82 693 77 696 67L588 45C544 145 429 271 315 338L315 207C335 203 351 195 357 187L280 126 244 166 142 166 79 135 79 754 89 754C115 754 137 740 137 732L137 634 254 634 254 716 263 716C284 716 314 700 315 693L315 346 320 357C451 297 577 197 644 94ZM380 411L380 666 388 666C412 666 436 653 436 648L436 615 546 615 546 653 555 653C573 653 603 640 603 633L603 450C622 447 638 439 643 432L570 376 537 411 441 411 380 383ZM546 586L436 586 436 441 546 441ZM669 411L669 663 678 663C701 663 725 650 725 644L725 615 838 615 838 653 847 653C866 653 896 640 897 633L897 450C914 447 931 439 936 432L862 375 828 411 730 411 669 383ZM838 586L725 586 725 441 838 441ZM466 658C437 760 366 877 265 944L275 958C359 919 426 856 473 790 510 817 547 857 561 889 624 924 662 811 487 769 501 748 513 727 522 706 546 708 554 702 559 691ZM744 663C720 760 662 877 573 946L582 960C654 923 710 866 751 807 808 847 876 906 902 954 977 987 1003 847 763 789 779 763 793 737 803 712 827 713 835 707 840 696Z"/>
</svg>