<svg xmlns="http://www.w3.org/2000/svg"
    viewBox="0 0 1000 1000">
  <!--
© 2017-2023 Adobe (http://www.adobe.com/).
Noto is a trademark of Google Inc.
This Font Software is licensed under the SIL Open Font License, Version 1.1. This Font Software is distributed on an "AS IS" BASIS, WITHOUT WARRANTIES OR CONDITIONS OF ANY KIND, either express or implied. See the SIL Open Font License for the specific language, permissions and limitations governing your use of this Font Software.
http://scripts.sil.org/OFL
  -->
<path d="M376 492L384 522 881 522C895 522 904 517 906 506 875 476 823 436 823 436L776 492ZM735 691L726 701C789 743 870 816 895 880 972 922 1003 757 735 691ZM432 675C395 744 316 832 233 883L243 897C343 860 435 791 485 730 507 735 515 730 521 720ZM238 165L238 579 134 579 134 165ZM453 20L453 152 333 152 262 97 228 136 139 136 77 105 77 732 87 732C112 732 134 718 134 710L134 609 238 609 238 675 246 675C266 675 296 659 297 652L297 406 307 421C368 374 416 319 453 256L453 455 465 455C486 455 510 441 510 433L510 232C536 252 562 284 566 313 625 352 672 236 510 217L510 181 706 181C673 265 621 342 551 402L562 419C635 373 692 317 734 250L734 448 745 448C766 448 792 432 792 421L792 197C822 291 867 359 924 412 933 382 951 361 974 356L976 345C915 314 845 261 804 181L938 181C952 181 961 176 963 165 934 138 888 101 888 101L848 152 792 152 792 60C817 56 826 47 829 33L734 23 734 152 628 152 569 101 528 152 510 152 510 56C535 52 544 43 546 30ZM321 167L325 181 425 181C397 263 355 341 297 404L297 175C306 173 314 170 321 167ZM325 615L333 645 598 645 598 835C598 848 593 852 575 852 556 852 458 846 458 846L458 861C502 866 528 873 541 883 554 893 559 910 560 929 649 919 663 886 663 836L663 645 936 645C950 645 961 640 962 629 929 599 876 559 876 559L828 615Z"/>
</svg>