<svg xmlns="http://www.w3.org/2000/svg"
    viewBox="0 0 1000 1000">
  <!--
© 2017-2023 Adobe (http://www.adobe.com/).
Noto is a trademark of Google Inc.
This Font Software is licensed under the SIL Open Font License, Version 1.1. This Font Software is distributed on an "AS IS" BASIS, WITHOUT WARRANTIES OR CONDITIONS OF ANY KIND, either express or implied. See the SIL Open Font License for the specific language, permissions and limitations governing your use of this Font Software.
http://scripts.sil.org/OFL
  -->
<path d="M799 680L789 688C836 728 889 798 898 856 967 907 1020 752 799 680ZM548 642L539 653C587 675 649 721 673 757 743 781 757 646 548 642ZM386 683C379 737 332 783 294 800 275 811 261 830 269 850 280 871 314 870 338 856 376 833 419 775 404 684ZM465 672L465 856C465 900 477 913 548 913L645 913C784 913 812 903 812 875 812 864 807 857 787 849L784 753 770 753C762 796 753 834 747 848 742 855 738 857 728 857 717 858 686 859 646 859L561 859C528 859 525 856 525 844L525 705C543 703 552 693 554 682ZM589 16L589 120 359 120 367 150 467 150C484 179 501 225 499 263 505 269 511 273 518 275L327 275 335 304 938 304C952 304 961 299 964 288 931 258 879 218 879 218L833 275 713 275C740 247 767 214 783 187 805 187 817 178 821 166L753 150 901 150C915 150 924 145 927 134 895 104 843 65 843 65L798 120 654 120 654 53C678 49 688 40 690 26ZM490 150L722 150C713 189 699 237 684 275L543 275C577 262 588 196 490 150ZM786 400L786 470 463 470 463 400ZM402 371L402 652 411 652C437 652 463 639 463 632L463 600 786 600 786 644 796 644C817 644 849 630 850 623L850 412C869 408 885 400 892 392L812 332 776 371 468 371 402 341ZM463 499L786 499 786 571 463 571ZM251 165L251 582 138 582 138 165ZM79 136L79 751 89 751C115 751 138 737 138 729L138 611 251 611 251 694 260 694C282 694 312 678 313 672L313 176C332 172 347 164 354 157L277 96 241 136 143 136 79 105Z"/>
</svg>