<svg xmlns="http://www.w3.org/2000/svg"
    viewBox="0 0 1000 1000">
  <!--
© 2017-2023 Adobe (http://www.adobe.com/).
Noto is a trademark of Google Inc.
This Font Software is licensed under the SIL Open Font License, Version 1.1. This Font Software is distributed on an "AS IS" BASIS, WITHOUT WARRANTIES OR CONDITIONS OF ANY KIND, either express or implied. See the SIL Open Font License for the specific language, permissions and limitations governing your use of this Font Software.
http://scripts.sil.org/OFL
  -->
<path d="M353 197L340 202C363 241 381 303 375 352 426 407 497 290 353 197ZM534 186C527 229 508 315 492 369L503 375C539 329 574 271 593 236 614 238 625 227 627 217ZM74 120L74 764 84 764C110 764 131 749 131 742L131 638 225 638 225 704 233 704C254 704 283 688 284 681L284 160 303 154 309 179 630 179C644 179 653 174 656 163 627 135 579 98 579 98L538 150 494 150 494 56C517 53 527 43 529 29L433 19 433 150 311 150C317 147 321 144 324 141L249 83 215 120 136 120 74 90ZM884 36C851 60 787 102 729 132L665 104 665 395C635 365 588 329 588 329L547 383 294 383 302 413 641 413C653 413 662 409 665 400L665 428C665 608 653 787 550 929L566 939C713 800 725 596 725 427L725 365 813 365 813 928 823 928C853 928 874 914 874 910L874 365 948 365C962 365 972 360 974 349 945 319 895 277 895 277L852 336 725 336 725 156C799 143 880 117 923 102 937 108 948 108 954 101ZM433 427L433 530 294 530 302 559 409 559C368 668 301 772 212 849L224 865C312 807 382 735 433 652L433 928 445 928C468 928 494 914 494 906L494 626C525 656 556 700 562 738 622 782 673 655 494 609L494 559 634 559C647 559 657 554 659 544 631 514 582 475 582 475L541 530 494 530 494 461C515 458 523 449 524 437ZM225 150L225 610 131 610 131 150Z"/>
</svg>