<svg xmlns="http://www.w3.org/2000/svg"
    viewBox="0 0 1000 1000">
  <!--
© 2017-2023 Adobe (http://www.adobe.com/).
Noto is a trademark of Google Inc.
This Font Software is licensed under the SIL Open Font License, Version 1.1. This Font Software is distributed on an "AS IS" BASIS, WITHOUT WARRANTIES OR CONDITIONS OF ANY KIND, either express or implied. See the SIL Open Font License for the specific language, permissions and limitations governing your use of this Font Software.
http://scripts.sil.org/OFL
  -->
<path d="M351 683L338 689C359 718 383 767 386 804 431 845 483 752 351 683ZM960 41L866 30 866 833C866 848 862 853 844 853 826 853 736 845 736 845L736 861C775 867 799 874 812 884 824 895 830 911 832 930 914 920 923 889 923 839L923 67C948 64 958 55 960 41ZM827 143L740 133 740 693 751 693C771 693 793 679 793 671L793 168C816 165 824 156 827 143ZM426 158L412 165C429 188 446 224 455 258L381 303 380 128 380 116C419 107 467 91 503 73 519 80 528 79 536 72L475 15C449 39 417 62 387 81L330 74 330 306C330 320 326 325 304 337L334 400C343 396 355 385 359 368L460 280 462 303C505 344 555 246 426 158ZM558 467L524 508 381 508C429 475 471 437 502 403 574 446 632 500 659 542 715 569 761 457 515 388 542 387 553 382 557 371L508 355C564 301 591 226 599 127L652 127C649 256 643 305 632 318 627 324 621 325 611 325 597 325 574 323 557 322L556 339C570 341 584 345 591 352 599 360 601 373 601 385 625 385 646 380 663 365 689 342 697 288 700 131 719 128 730 125 737 118L672 65 642 98 494 98 503 127 544 127C545 212 533 288 487 349L465 342C430 406 347 502 271 555L282 567C311 553 339 537 366 519L371 538 465 538 465 626 310 626 318 655 465 655 465 826C393 836 333 843 298 846L326 923C336 921 344 913 349 901 502 864 618 832 704 808L702 791 573 810C596 780 622 746 639 719 658 722 672 715 677 704L599 671C584 713 561 772 543 815L521 818 521 655 657 655C671 655 679 650 681 639 656 613 614 581 614 581L578 626 521 626 521 538 598 538C611 538 620 533 623 522 598 498 558 467 558 467ZM130 657L130 162 214 162 214 657ZM130 798L130 686 214 686 214 781 222 781C242 781 268 765 269 759L269 173C289 169 307 161 313 153L238 95 204 132 136 132 74 102 74 820 84 820C111 820 130 805 130 798Z"/>
</svg>