<svg xmlns="http://www.w3.org/2000/svg" name="gid3912" data-unicode="嚭"
    viewBox="0 0 1000 1000">
  <!--
© 2017-2024 Adobe (http://www.adobe.com/).
Noto is a trademark of Google Inc.
This Font Software is licensed under the SIL Open Font License, Version 1.1. This Font Software is distributed on an "AS IS" BASIS, WITHOUT WARRANTIES OR CONDITIONS OF ANY KIND, either express or implied. See the SIL Open Font License for the specific language, permissions and limitations governing your use of this Font Software.
http://scripts.sil.org/OFL
  -->
<path d="M786 285L779 296C838 331 886 394 904 437 939 488 988 442 954 387 926 346 866 310 786 285ZM261 43L261 142 51 142 59 172 261 172 261 259 82 259 90 289 505 289C517 289 527 284 530 273 499 245 451 209 451 209L409 259 324 259 324 172 520 172C535 172 544 167 547 156 515 126 466 87 466 87L422 142 324 142 324 78C347 74 355 65 357 52ZM363 516C353 553 337 604 324 640L235 640C266 626 273 564 175 523L163 528C179 555 194 597 193 631 197 635 202 638 206 640L40 640 48 669 542 669C556 669 565 664 568 653 537 625 488 588 488 588L445 640 351 640C375 614 401 581 419 557 439 557 452 548 455 536ZM112 349L112 532 121 532C146 532 174 519 174 513L174 502 418 502 418 522 427 522C448 522 480 509 481 503L481 387C497 384 511 377 517 370L442 314 409 349 179 349 112 320ZM174 472L174 379 418 379 418 472ZM110 734L110 958 120 958C145 958 174 944 174 938L174 914 419 914 419 949 428 949C449 949 481 936 482 929L482 772C499 769 513 761 519 754L444 698 410 734 178 734 110 704ZM174 885L174 763 419 763 419 885ZM540 118L548 147 750 147C703 259 606 375 497 451L507 465C577 428 644 380 702 324L702 588 713 588C738 588 764 573 765 568L765 280C781 277 792 271 795 262L768 252C794 219 818 184 837 147L940 147C954 147 964 142 966 131 934 103 882 62 882 62L836 118ZM849 635L849 871 640 871 640 635ZM577 605L577 960 587 960C614 960 640 945 640 940L640 901 849 901 849 952 858 952C879 952 910 937 911 931L911 648C932 643 948 635 955 627L875 566 839 605 644 605 577 575Z"/>
</svg>