<svg xmlns="http://www.w3.org/2000/svg"
    viewBox="0 0 1000 1000">
  <!--
© 2017-2023 Adobe (http://www.adobe.com/).
Noto is a trademark of Google Inc.
This Font Software is licensed under the SIL Open Font License, Version 1.1. This Font Software is distributed on an "AS IS" BASIS, WITHOUT WARRANTIES OR CONDITIONS OF ANY KIND, either express or implied. See the SIL Open Font License for the specific language, permissions and limitations governing your use of this Font Software.
http://scripts.sil.org/OFL
  -->
<path d="M646 723L635 731C660 753 686 794 689 829 741 871 794 764 646 723ZM744 16L744 127 604 127 608 143 554 98 511 149 473 149 473 49C495 46 504 37 506 23L414 14 414 149 291 149 298 179 414 179 414 256 365 256 308 229 308 639 317 639C338 639 360 626 360 621L360 589 415 589 415 698 273 698 281 728 415 728 415 928 424 928C453 928 473 913 473 907L473 728 608 728C622 728 631 723 634 712L623 702 804 702 804 843C804 855 801 860 787 860 771 860 703 855 703 855L703 871C735 874 752 881 763 889 774 898 777 913 779 929 853 921 862 894 862 845L862 702 948 702C961 702 969 697 972 686 948 663 909 633 909 633L877 673 862 673 862 629C885 625 894 618 897 605L804 594 804 673 610 673 616 696C588 671 556 646 556 646L514 698 473 698 473 589 526 589 526 626 533 626C551 626 577 612 578 607L578 294C596 290 612 284 618 276L548 222 516 256 473 256 473 179 605 179C619 179 629 174 631 163L623 156 744 156 744 222 690 222 633 196 633 505 641 505C663 505 685 493 685 487L685 461 744 461 744 548C685 549 634 550 604 549L632 620C643 619 651 613 657 601L885 563C891 575 896 587 898 598 954 636 998 524 834 480L823 489C841 503 859 522 874 544L803 546 803 461 863 461 863 482 872 482C890 482 917 469 918 463L918 261C936 257 952 250 959 242L886 187 854 222 803 222 803 156 938 156C952 156 961 151 963 140 934 112 887 76 887 76L845 127 803 127 803 52C826 49 835 39 837 25ZM205 147L205 642 125 642 125 147ZM72 118L72 806 82 806C106 806 125 793 125 786L125 671 205 671 205 752 213 752C232 752 258 737 259 731L259 157C278 153 295 146 300 138L228 82 195 118 131 118 72 88ZM526 285L526 403 471 403 471 285ZM360 432L417 432 417 559 360 559ZM360 403L360 285 417 285 417 403ZM526 432L526 559 471 559 471 432ZM863 251L863 327 800 327 800 251ZM685 431L685 356 746 356 746 431ZM685 327L685 251 746 251 746 327ZM863 431L800 431 800 356 863 356Z"/>
</svg>