<svg xmlns="http://www.w3.org/2000/svg" name="gid3925" data-unicode="囃"
    viewBox="0 0 1000 1000">
  <!--
© 2017-2024 Adobe (http://www.adobe.com/).
Noto is a trademark of Google Inc.
This Font Software is licensed under the SIL Open Font License, Version 1.1. This Font Software is distributed on an "AS IS" BASIS, WITHOUT WARRANTIES OR CONDITIONS OF ANY KIND, either express or implied. See the SIL Open Font License for the specific language, permissions and limitations governing your use of this Font Software.
http://scripts.sil.org/OFL
  -->
<path d="M827 54C819 116 801 196 780 258L712 258 690 249C711 202 729 151 743 97 765 97 775 87 778 75L681 51C664 176 628 296 580 384 566 369 546 355 518 341 527 316 534 289 539 260 561 258 571 249 573 237L486 221C480 331 451 422 400 486L414 497 418 494 418 610 279 610 287 640 386 640C349 734 291 824 215 893L227 908C306 856 371 790 418 714L418 958 429 958C451 958 477 944 477 936L477 721C506 750 536 793 544 829 605 871 655 749 477 702L477 640 607 640C621 640 631 635 633 624 604 595 556 559 556 559L514 610 477 610 477 525C501 521 510 513 512 499L423 490C460 458 488 416 509 365 533 396 555 437 559 469 595 499 631 455 596 403 613 383 628 362 643 338L643 959 652 959C681 959 700 942 700 936L700 894 945 894C959 894 968 889 970 878 942 848 895 809 895 809L852 864 831 864 831 687 933 687C947 687 957 682 959 671 932 643 888 606 888 606L849 657 831 657 831 483 931 483C944 483 954 478 956 467 930 441 886 405 886 405L848 454 831 454 831 288 938 288C952 288 961 283 964 272 935 244 888 207 888 207L846 258 806 258C840 206 870 147 888 99 908 100 920 90 923 78ZM73 154L73 797 82 797C106 797 126 783 126 776L126 673 211 673 211 742 219 742C238 742 264 727 265 719L265 516 273 521C315 483 345 432 367 369 379 389 389 411 391 431 435 466 482 386 376 341 383 315 389 288 394 259 416 257 425 248 428 235L341 221C336 331 309 428 265 499L265 193C275 191 283 188 290 185L297 212 603 212C616 212 626 207 629 196 599 168 551 130 551 130L509 183 478 183 478 78C501 75 510 65 512 52L417 42 417 183 293 183C299 180 304 177 306 174L234 117 202 154 130 154 73 125ZM700 864L700 687 774 687 774 864ZM700 288L774 288 774 454 700 454ZM700 483L774 483 774 657 700 657ZM211 183L211 644 126 644 126 183Z"/>
</svg>