<svg xmlns="http://www.w3.org/2000/svg"
    viewBox="0 0 1000 1000">
  <!--
© 2017-2024 Adobe (http://www.adobe.com/).
Noto is a trademark of Google Inc.
This Font Software is licensed under the SIL Open Font License, Version 1.1. This Font Software is distributed on an "AS IS" BASIS, WITHOUT WARRANTIES OR CONDITIONS OF ANY KIND, either express or implied. See the SIL Open Font License for the specific language, permissions and limitations governing your use of this Font Software.
http://scripts.sil.org/OFL
  -->
<path d="M110 89L110 928 122 928C151 928 175 911 175 902L175 119 825 119 825 825C825 844 818 851 796 851 768 851 637 842 637 842L637 858C693 864 725 872 745 883 761 893 768 908 772 928 877 918 890 883 890 832L890 132C910 128 926 119 933 112L849 47 815 89 181 89 110 56ZM614 285L614 460 368 460 368 285ZM305 256L305 692C305 745 324 762 409 762L530 762C703 762 738 751 738 721 738 708 731 701 708 694L705 591 693 591C683 637 671 679 664 691 659 699 653 701 641 702 626 703 584 704 533 704L418 704C374 704 368 698 368 678L368 489 614 489 614 532 623 532C644 532 677 517 678 511L678 295C695 292 710 283 716 277L639 217 605 256 380 256 305 223Z"/>
</svg>