<svg xmlns="http://www.w3.org/2000/svg" name="gid3957" data-unicode="囮"
    viewBox="0 0 1000 1000">
  <!--
© 2017-2024 Adobe (http://www.adobe.com/).
Noto is a trademark of Google Inc.
This Font Software is licensed under the SIL Open Font License, Version 1.1. This Font Software is distributed on an "AS IS" BASIS, WITHOUT WARRANTIES OR CONDITIONS OF ANY KIND, either express or implied. See the SIL Open Font License for the specific language, permissions and limitations governing your use of this Font Software.
http://scripts.sil.org/OFL
  -->
<path d="M700 296C660 354 608 411 562 453L562 228C583 224 592 215 593 202L502 191 502 711C502 757 516 774 579 774L650 774C764 774 792 763 792 735 792 724 786 717 766 710L762 580 751 580C742 632 731 693 724 705 720 713 717 715 709 716 700 717 679 717 650 717L591 717C566 717 562 712 562 696L562 488C619 456 680 411 734 361 755 370 765 367 772 359ZM375 181C332 316 257 442 184 519L198 530C237 501 274 465 309 423L309 802 320 802C343 802 369 788 370 782L370 390C386 387 396 381 399 372L358 357C384 318 407 276 426 232 447 234 459 225 464 214ZM99 102L99 957 110 957C139 957 163 940 163 931L163 891 836 891 836 948 845 948C869 948 900 930 900 923L900 143C920 139 937 131 944 123L863 59 826 102 169 102 99 68ZM836 862L163 862 163 130 836 130Z"/>
</svg>