<svg xmlns="http://www.w3.org/2000/svg" name="gid3983" data-unicode="圓"
    viewBox="0 0 1000 1000">
  <!--
© 2017-2024 Adobe (http://www.adobe.com/).
Noto is a trademark of Google Inc.
This Font Software is licensed under the SIL Open Font License, Version 1.1. This Font Software is distributed on an "AS IS" BASIS, WITHOUT WARRANTIES OR CONDITIONS OF ANY KIND, either express or implied. See the SIL Open Font License for the specific language, permissions and limitations governing your use of this Font Software.
http://scripts.sil.org/OFL
  -->
<path d="M417 701C373 743 283 798 200 827L207 842C298 826 394 788 449 755 471 760 486 758 493 749ZM540 719L535 736C628 762 694 796 731 831 791 878 883 751 540 719ZM312 194L312 354 321 354C345 354 372 340 372 335L372 321 626 321 626 348 635 348C655 348 686 335 687 329L687 230C701 227 714 220 719 213L650 161 618 194 377 194 312 166ZM626 292L372 292 372 224 626 224ZM663 504L663 568 336 568 336 504ZM663 475L336 475 336 412 663 412ZM663 597L663 662 336 662 336 597ZM276 383L276 731 286 731C311 731 336 717 336 711L336 691 663 691 663 722 672 722C691 722 722 708 723 702L723 418C738 416 751 409 756 402L686 349 655 383 341 383 276 353ZM97 102L97 958 108 958C137 958 160 941 160 932L160 897 838 897 838 948 847 948C871 948 901 930 901 923L901 143C921 139 938 131 945 123L865 59 828 102 166 102 97 68ZM838 867L160 867 160 131 838 131Z"/>
</svg>