<svg xmlns="http://www.w3.org/2000/svg" name="gid4007" data-unicode="地"
    viewBox="0 0 1000 1000">
  <!--
© 2017-2024 Adobe (http://www.adobe.com/).
Noto is a trademark of Google Inc.
This Font Software is licensed under the SIL Open Font License, Version 1.1. This Font Software is distributed on an "AS IS" BASIS, WITHOUT WARRANTIES OR CONDITIONS OF ANY KIND, either express or implied. See the SIL Open Font License for the specific language, permissions and limitations governing your use of this Font Software.
http://scripts.sil.org/OFL
  -->
<path d="M819 257L684 308 684 82C708 78 717 68 719 54L621 44 621 332 487 382 487 159C510 155 520 144 522 131L423 119 423 406 281 460 300 484 423 438 423 834C423 905 455 924 556 924L707 924C923 924 967 914 967 879 967 865 960 857 933 848L930 693 917 693C903 766 888 825 880 844 874 853 867 857 851 859 830 862 779 863 709 863L561 863C498 863 487 851 487 821L487 414 621 364 621 782 632 782C657 782 684 766 684 758L684 340 837 283C833 513 826 611 808 630 801 638 795 640 780 640 764 640 729 637 706 635L706 652C728 657 749 664 758 673 768 683 769 700 769 718 801 718 831 708 852 687 886 651 897 554 900 291 920 288 932 284 939 276L864 215 828 254ZM33 769L73 855C82 850 89 840 92 828 219 751 317 684 387 638L381 624 230 691 230 375 357 375C371 375 380 370 382 359 355 328 305 286 305 286L264 345 230 345 230 101C255 97 264 87 266 73L166 62 166 345 40 345 48 375 166 375 166 718C108 742 61 760 33 769Z"/>
</svg>