<svg xmlns="http://www.w3.org/2000/svg"
    viewBox="0 0 1000 1000">
  <!--
© 2017-2024 Adobe (http://www.adobe.com/).
Noto is a trademark of Google Inc.
This Font Software is licensed under the SIL Open Font License, Version 1.1. This Font Software is distributed on an "AS IS" BASIS, WITHOUT WARRANTIES OR CONDITIONS OF ANY KIND, either express or implied. See the SIL Open Font License for the specific language, permissions and limitations governing your use of this Font Software.
http://scripts.sil.org/OFL
  -->
<path d="M32 713L75 797C84 793 92 782 94 771 231 698 332 636 404 594L398 580 239 640 239 316 371 316C385 316 395 311 397 300 369 271 320 228 320 228L279 287 239 287 239 66C264 62 272 52 275 38L174 27 174 287 40 287 48 316 174 316 174 664C112 687 61 704 32 713ZM526 12C487 209 407 390 315 506L330 517C389 465 441 399 486 320 511 443 546 554 602 649 518 756 399 844 240 912L249 927C416 872 541 796 634 699 700 794 790 871 913 927 923 895 947 878 979 873L982 863C848 816 748 745 673 656 760 548 814 418 845 267L945 267C959 267 967 262 970 251 937 219 883 177 883 177L834 238 529 238C554 183 577 124 595 61 617 62 628 52 632 40ZM635 605C572 515 531 408 503 290L515 267 765 267C743 394 702 507 635 605Z"/>
</svg>