<svg xmlns="http://www.w3.org/2000/svg" name="gid4019" data-unicode="坆"
    viewBox="0 0 1000 1000">
  <!--
© 2017-2024 Adobe (http://www.adobe.com/).
Noto is a trademark of Google Inc.
This Font Software is licensed under the SIL Open Font License, Version 1.1. This Font Software is distributed on an "AS IS" BASIS, WITHOUT WARRANTIES OR CONDITIONS OF ANY KIND, either express or implied. See the SIL Open Font License for the specific language, permissions and limitations governing your use of this Font Software.
http://scripts.sil.org/OFL
  -->
<path d="M32 743L75 827C84 823 92 812 94 801 231 728 332 666 404 624L398 610 239 670 239 346 371 346C385 346 395 341 397 330 369 301 320 258 320 258L279 317 239 317 239 96C264 92 272 82 275 68L174 57 174 317 40 317 48 346 174 346 174 694C112 717 61 734 32 743ZM526 42C487 239 407 420 315 536L330 547C389 495 441 429 486 350 511 473 546 584 602 679 518 786 399 874 240 942L249 957C416 902 541 826 634 729 700 824 790 901 913 957 923 925 947 908 979 903L982 893C848 846 748 775 673 686 760 578 814 448 845 297L945 297C959 297 967 292 970 281 937 249 883 207 883 207L834 268 529 268C554 213 577 154 595 91 617 92 628 82 632 70ZM635 635C572 545 531 438 503 320L515 297 765 297C743 424 702 537 635 635Z"/>
</svg>