<svg xmlns="http://www.w3.org/2000/svg"
    viewBox="0 0 1000 1000">
  <!--
© 2017-2024 Adobe (http://www.adobe.com/).
Noto is a trademark of Google Inc.
This Font Software is licensed under the SIL Open Font License, Version 1.1. This Font Software is distributed on an "AS IS" BASIS, WITHOUT WARRANTIES OR CONDITIONS OF ANY KIND, either express or implied. See the SIL Open Font License for the specific language, permissions and limitations governing your use of this Font Software.
http://scripts.sil.org/OFL
  -->
<path d="M561 181L549 188C595 237 645 319 651 385 719 440 779 282 561 181ZM34 706L77 791C86 787 94 776 96 764 224 693 321 633 389 592L383 578 235 635 235 333 370 333C384 333 394 328 396 317 368 287 319 245 319 245L278 304 235 304 235 85C260 81 268 71 271 57L170 46 170 304 41 304 49 333 170 333 170 659C111 681 62 698 34 706ZM499 111L801 111 801 455 498 455 499 389ZM310 455L318 485 434 485C425 647 388 795 264 915L279 927C442 810 486 645 496 485L801 485 801 826C801 843 795 849 776 849 754 849 646 840 646 840L646 857C693 863 720 870 736 881 750 891 755 907 758 927 852 917 863 884 863 833L863 485 959 485C972 485 982 480 984 469 954 438 902 395 902 395L863 448 863 121C881 117 896 110 901 102L823 43 792 82 511 82 436 50 436 390 435 455Z"/>
</svg>