<svg xmlns="http://www.w3.org/2000/svg" name="gid4063" data-unicode="垓"
    viewBox="0 0 1000 1000">
  <!--
© 2017-2024 Adobe (http://www.adobe.com/).
Noto is a trademark of Google Inc.
This Font Software is licensed under the SIL Open Font License, Version 1.1. This Font Software is distributed on an "AS IS" BASIS, WITHOUT WARRANTIES OR CONDITIONS OF ANY KIND, either express or implied. See the SIL Open Font License for the specific language, permissions and limitations governing your use of this Font Software.
http://scripts.sil.org/OFL
  -->
<path d="M744 339C641 518 499 635 327 718L336 735C527 667 680 561 796 397 820 401 830 398 836 387ZM369 367L360 376C412 410 476 475 494 529 548 560 584 488 512 428 557 389 602 339 640 287 661 290 673 282 678 272L606 240 939 240C953 240 962 235 965 224 933 192 879 148 879 148L831 211 673 211 673 88C698 84 708 74 710 60L608 50 608 211 331 211 339 240 577 240C551 301 519 363 488 410 460 393 421 377 369 367ZM844 498C699 739 499 854 261 938L267 957C444 912 596 849 727 743 792 799 869 881 894 947 977 995 1019 830 745 728 800 681 850 625 897 560 921 566 932 563 939 552ZM30 735L73 819C83 814 90 803 92 791 223 711 325 640 397 592L390 578 234 649 234 361 358 361C372 361 381 356 384 345 355 315 307 273 307 273L264 332 234 332 234 101C258 98 268 88 270 74L169 63 169 332 42 332 50 361 169 361 169 678C108 704 58 725 30 735Z"/>
</svg>