<svg xmlns="http://www.w3.org/2000/svg"
    viewBox="0 0 1000 1000">
  <!--
© 2017-2023 Adobe (http://www.adobe.com/).
Noto is a trademark of Google Inc.
This Font Software is licensed under the SIL Open Font License, Version 1.1. This Font Software is distributed on an "AS IS" BASIS, WITHOUT WARRANTIES OR CONDITIONS OF ANY KIND, either express or implied. See the SIL Open Font License for the specific language, permissions and limitations governing your use of this Font Software.
http://scripts.sil.org/OFL
  -->
<path d="M633 314L633 455 487 455 487 314ZM698 314L850 314 850 455 698 455ZM633 284L499 284 459 267C490 231 519 190 544 145L703 145C688 187 666 245 644 284ZM524 7C480 155 401 288 318 369L332 381C364 360 394 335 423 306L423 525C423 676 400 812 260 917L273 930C402 861 454 768 475 669L850 669 850 829C850 844 845 851 826 851 802 851 694 843 694 843L694 858C742 864 768 872 784 884 799 894 805 911 808 931 902 922 914 888 914 836L914 326C934 323 951 314 958 307L874 243 840 284 670 284C712 246 757 190 786 153 806 152 818 150 825 143L746 71 702 115 560 115 586 61C607 63 620 55 625 43ZM633 484L633 639 480 639C486 601 487 562 487 524L487 484ZM698 484L850 484 850 639 698 639ZM31 699L71 784C81 780 88 769 91 758 217 688 313 628 380 588L374 574 227 630 227 319 348 319C362 319 372 314 374 303 346 274 297 231 297 231L255 289 227 289 227 73C252 70 260 59 263 45L162 34 162 289 44 289 52 319 162 319 162 654C105 675 59 691 31 699Z"/>
</svg>