<svg xmlns="http://www.w3.org/2000/svg" name="gid4099" data-unicode="埔"
    viewBox="0 0 1000 1000">
  <!--
© 2017-2024 Adobe (http://www.adobe.com/).
Noto is a trademark of Google Inc.
This Font Software is licensed under the SIL Open Font License, Version 1.1. This Font Software is distributed on an "AS IS" BASIS, WITHOUT WARRANTIES OR CONDITIONS OF ANY KIND, either express or implied. See the SIL Open Font License for the specific language, permissions and limitations governing your use of this Font Software.
http://scripts.sil.org/OFL
  -->
<path d="M734 64L724 72C757 94 791 136 800 172 860 210 905 90 734 64ZM620 377L620 509 454 509 454 377ZM683 377L848 377 848 509 683 509ZM390 347L390 958 401 958C434 958 454 941 454 936L454 706 620 706 620 944 632 944C656 944 683 928 683 918L683 706 848 706 848 855C848 869 843 874 827 874 810 874 730 868 730 868L730 884C766 889 787 896 800 907 811 917 816 935 818 955 903 947 913 914 913 862L913 389C933 386 950 377 957 369L872 306 838 347 683 347 683 230 945 230C959 230 968 225 971 214 938 184 886 143 886 143L839 201 683 201 683 81C707 77 714 67 717 54L620 43 620 201 342 201 350 230 620 230 620 347 467 347 390 313ZM620 538L620 676 454 676 454 538ZM683 538L848 538 848 676 683 676ZM23 712L62 798C72 794 79 784 83 772 212 705 310 645 379 607L375 592 231 643 231 344 354 344C368 344 377 339 379 328 351 299 303 256 303 256L260 315 231 315 231 95C256 92 264 82 267 68L166 57 166 315 41 315 49 344 166 344 166 666C104 687 52 704 23 712Z"/>
</svg>