<svg xmlns="http://www.w3.org/2000/svg"
    viewBox="0 0 1000 1000">
  <!--
© 2017-2023 Adobe (http://www.adobe.com/).
Noto is a trademark of Google Inc.
This Font Software is licensed under the SIL Open Font License, Version 1.1. This Font Software is distributed on an "AS IS" BASIS, WITHOUT WARRANTIES OR CONDITIONS OF ANY KIND, either express or implied. See the SIL Open Font License for the specific language, permissions and limitations governing your use of this Font Software.
http://scripts.sil.org/OFL
  -->
<path d="M578 160L566 165C589 215 613 290 610 350 671 417 752 278 578 160ZM758 143L746 151C798 207 862 297 879 368 953 424 1006 258 758 143ZM421 90C412 183 382 318 334 416L346 427C415 346 467 232 490 147 612 135 748 110 837 89 860 98 878 99 888 91L814 22C745 53 620 94 508 121ZM31 696L70 783C79 779 88 769 91 757 216 693 311 639 377 602L373 588 226 636 226 320 348 320C362 320 372 315 374 304 345 275 297 232 297 232L255 291 226 291 226 72C251 69 259 58 262 44L161 33 161 291 39 291 47 320 161 320 161 657C105 675 59 689 31 696ZM661 508L659 508 659 423C681 419 690 411 691 398L594 388 594 508 324 508 332 537 546 537C485 654 385 762 261 839L272 855C409 788 520 696 594 583L594 926 607 926C631 926 659 911 659 902L659 546C716 675 808 776 910 836 919 804 941 784 968 780L969 770C862 728 745 641 678 537L934 537C949 537 958 532 961 521 928 490 875 449 875 449L828 508Z"/>
</svg>