<svg xmlns="http://www.w3.org/2000/svg" name="gid4117" data-unicode="埵"
    viewBox="0 0 1000 1000">
  <!--
© 2017-2024 Adobe (http://www.adobe.com/).
Noto is a trademark of Google Inc.
This Font Software is licensed under the SIL Open Font License, Version 1.1. This Font Software is distributed on an "AS IS" BASIS, WITHOUT WARRANTIES OR CONDITIONS OF ANY KIND, either express or implied. See the SIL Open Font License for the specific language, permissions and limitations governing your use of this Font Software.
http://scripts.sil.org/OFL
  -->
<path d="M842 43C734 86 526 140 358 166L363 184C439 179 520 170 597 158L597 278 345 278 353 308 429 308 429 483 309 483 317 512 429 512 429 697 339 697 347 726 597 726 597 897 298 897 305 926 948 926C962 926 971 921 973 911 942 880 888 838 888 838L841 897 661 897 661 726 933 726C947 726 957 721 959 710 931 682 885 643 885 643L844 697 835 697 835 512 950 512C964 512 973 507 975 496 947 466 899 426 899 426L857 483 835 483 835 308 931 308C945 308 955 303 958 292 927 262 878 223 878 223L835 278 661 278 661 148C737 135 807 121 863 108 887 117 904 117 913 109ZM490 308L597 308 597 483 490 483ZM774 308L774 483 661 483 661 308ZM490 512L597 512 597 697 490 697ZM774 512L774 697 661 697 661 512ZM34 729L72 815C82 811 90 801 92 790 211 723 302 666 365 628L360 614 221 666 221 360 332 360C345 360 355 355 357 344 329 315 282 273 282 273L240 330 221 330 221 107C246 103 254 93 257 79L158 68 158 330 44 330 52 360 158 360 158 688C104 707 60 722 34 729Z"/>
</svg>