<svg xmlns="http://www.w3.org/2000/svg" name="gid4118" data-unicode="埶"
    viewBox="0 0 1000 1000">
  <!--
© 2017-2024 Adobe (http://www.adobe.com/).
Noto is a trademark of Google Inc.
This Font Software is licensed under the SIL Open Font License, Version 1.1. This Font Software is distributed on an "AS IS" BASIS, WITHOUT WARRANTIES OR CONDITIONS OF ANY KIND, either express or implied. See the SIL Open Font License for the specific language, permissions and limitations governing your use of this Font Software.
http://scripts.sil.org/OFL
  -->
<path d="M510 454L500 465C535 485 574 512 611 541 587 701 530 833 397 938L411 955C560 859 629 735 661 586 693 617 719 648 734 677 797 708 820 607 673 520 683 453 687 382 689 306L798 306C793 565 788 854 883 934 913 957 948 965 965 941 973 929 967 907 950 881L961 748 948 746C940 783 932 814 922 842 918 854 915 856 907 849 854 789 857 494 868 318 889 316 903 310 909 303L828 233 789 276 690 276 692 93C716 90 725 79 727 66L628 55 628 276 514 276 523 306 627 306C626 371 623 433 617 492 587 478 551 465 510 454ZM234 49L234 176 71 176 79 205 234 205 234 325 42 325 50 354 168 354C155 441 118 513 41 567L49 581C150 534 210 463 235 354L306 354 306 482C306 519 313 533 364 533L407 533C488 533 508 523 508 500 508 488 504 482 487 475L484 415 472 415C465 441 457 467 451 475 449 479 445 480 440 481 434 481 424 481 411 481L381 481C368 481 366 479 366 469L366 354 498 354C511 354 521 349 523 338 493 310 445 275 445 275L404 325 300 325 300 205 468 205C482 205 492 200 495 189 465 163 419 127 419 127L378 176 300 176 300 82C318 79 326 71 328 59ZM234 546L234 649 77 649 85 678 234 678 234 823C152 839 84 851 43 857L89 939C98 935 107 928 111 915 284 862 408 818 500 786L496 769 300 809 300 678 468 678C481 678 491 673 494 662 463 635 417 600 417 600L376 649 300 649 300 575C316 573 323 566 324 555Z"/>
</svg>