<svg xmlns="http://www.w3.org/2000/svg"
    viewBox="0 0 1000 1000">
  <!--
© 2017-2024 Adobe (http://www.adobe.com/).
Noto is a trademark of Google Inc.
This Font Software is licensed under the SIL Open Font License, Version 1.1. This Font Software is distributed on an "AS IS" BASIS, WITHOUT WARRANTIES OR CONDITIONS OF ANY KIND, either express or implied. See the SIL Open Font License for the specific language, permissions and limitations governing your use of this Font Software.
http://scripts.sil.org/OFL
  -->
<path d="M34 691L75 776C85 772 93 762 96 751 213 685 302 631 365 593L359 579 223 628 223 316 339 316C353 316 362 311 365 300 336 271 288 229 288 229L246 287 223 287 223 64C248 60 256 50 259 36L159 25 159 287 42 287 50 316 159 316 159 651C105 669 60 684 34 691ZM384 327L384 656 393 656C419 656 446 642 446 635L446 617 600 617 600 725 355 725 363 754 600 754 600 864 295 864 302 893 944 893C958 893 968 888 970 878 938 848 886 806 886 806L840 864 662 864 662 754 907 754C921 754 932 749 934 739 902 708 852 669 852 669L807 725 662 725 662 617 819 617 819 645 828 645C849 645 881 631 882 624L882 365C899 362 913 355 919 348L844 289 810 327 662 327 662 239 938 239C952 239 962 234 964 223 932 193 880 152 880 152L834 210 662 210 662 111C725 104 783 95 831 86 854 96 873 96 882 88L808 15C709 52 521 95 367 114L372 132C446 131 525 126 600 118L600 210 326 210 334 239 600 239 600 327 450 327 384 296ZM600 485L600 587 446 587 446 485ZM662 485L819 485 819 587 662 587ZM600 456L446 456 446 356 600 356ZM662 456L662 356 819 356 819 456Z"/>
</svg>