<svg xmlns="http://www.w3.org/2000/svg" name="gid4159" data-unicode="堹"
    viewBox="0 0 1000 1000">
  <!--
© 2017-2024 Adobe (http://www.adobe.com/).
Noto is a trademark of Google Inc.
This Font Software is licensed under the SIL Open Font License, Version 1.1. This Font Software is distributed on an "AS IS" BASIS, WITHOUT WARRANTIES OR CONDITIONS OF ANY KIND, either express or implied. See the SIL Open Font License for the specific language, permissions and limitations governing your use of this Font Software.
http://scripts.sil.org/OFL
  -->
<path d="M34 721L75 806C85 802 93 792 96 781 213 715 302 661 365 623L359 609 223 658 223 346 339 346C353 346 362 341 365 330 336 301 288 259 288 259L246 317 223 317 223 94C248 90 256 80 259 66L159 55 159 317 42 317 50 346 159 346 159 681C105 699 60 714 34 721ZM384 357L384 686 393 686C419 686 446 672 446 665L446 647 600 647 600 755 355 755 363 784 600 784 600 894 295 894 302 923 944 923C958 923 968 918 970 908 938 878 886 836 886 836L840 894 662 894 662 784 907 784C921 784 932 779 934 769 902 738 852 699 852 699L807 755 662 755 662 647 819 647 819 675 828 675C849 675 881 661 882 654L882 395C899 392 913 385 919 378L844 319 810 357 662 357 662 269 938 269C952 269 962 264 964 253 932 223 880 182 880 182L834 240 662 240 662 141C725 134 783 125 831 116 854 126 873 126 882 118L808 45C709 82 521 125 367 144L372 162C446 161 525 156 600 148L600 240 326 240 334 269 600 269 600 357 450 357 384 326ZM600 515L600 617 446 617 446 515ZM662 515L819 515 819 617 662 617ZM600 486L446 486 446 386 600 386ZM662 486L662 386 819 386 819 486Z"/>
</svg>