<svg xmlns="http://www.w3.org/2000/svg"
    viewBox="0 0 1000 1000">
  <!--
© 2017-2023 Adobe (http://www.adobe.com/).
Noto is a trademark of Google Inc.
This Font Software is licensed under the SIL Open Font License, Version 1.1. This Font Software is distributed on an "AS IS" BASIS, WITHOUT WARRANTIES OR CONDITIONS OF ANY KIND, either express or implied. See the SIL Open Font License for the specific language, permissions and limitations governing your use of this Font Software.
http://scripts.sil.org/OFL
  -->
<path d="M32 691L73 777C83 773 91 763 92 751 214 683 306 625 371 587L365 573 223 626 223 316 341 316C355 316 364 311 367 300 338 271 290 228 290 228L247 287 223 287 223 69C248 66 257 56 259 42L159 31 159 287 43 287 51 316 159 316 159 649C104 668 58 684 32 691ZM377 539L377 926 389 926C413 926 441 912 441 905L441 864 941 864C955 864 964 859 966 848 934 817 880 773 880 773L832 835 665 835 665 640 888 640C901 640 911 635 913 624 882 594 829 552 829 552L785 611 665 611 665 453 931 453C945 453 954 448 957 437 923 407 870 365 870 365L823 424 330 424 338 453 601 453 601 835 441 835 441 575C464 571 473 562 475 549ZM540 278L449 278 449 109 540 109ZM597 278L597 109 692 109 692 278ZM748 278L748 109 845 109 845 278ZM387 80L387 354 396 354C422 354 449 341 449 335L449 307 845 307 845 347 854 347C875 347 906 331 907 325L907 121C926 117 943 109 950 101L871 41 835 80 453 80 387 50Z"/>
</svg>