<svg xmlns="http://www.w3.org/2000/svg" name="gid4161" data-unicode="堽"
    viewBox="0 0 1000 1000">
  <!--
© 2017-2024 Adobe (http://www.adobe.com/).
Noto is a trademark of Google Inc.
This Font Software is licensed under the SIL Open Font License, Version 1.1. This Font Software is distributed on an "AS IS" BASIS, WITHOUT WARRANTIES OR CONDITIONS OF ANY KIND, either express or implied. See the SIL Open Font License for the specific language, permissions and limitations governing your use of this Font Software.
http://scripts.sil.org/OFL
  -->
<path d="M32 721L73 807C83 803 91 793 92 781 214 713 306 655 371 617L365 603 223 656 223 346 341 346C355 346 364 341 367 330 338 301 290 258 290 258L247 317 223 317 223 99C248 96 257 86 259 72L159 61 159 317 43 317 51 346 159 346 159 679C104 698 58 714 32 721ZM377 569L377 956 389 956C413 956 441 942 441 935L441 894 941 894C955 894 964 889 966 878 934 847 880 803 880 803L832 865 665 865 665 670 888 670C901 670 911 665 913 654 882 624 829 582 829 582L785 641 665 641 665 483 931 483C945 483 954 478 957 467 923 437 870 395 870 395L823 454 330 454 338 483 601 483 601 865 441 865 441 605C464 601 473 592 475 579ZM540 308L449 308 449 139 540 139ZM597 308L597 139 692 139 692 308ZM748 308L748 139 845 139 845 308ZM387 110L387 384 396 384C422 384 449 371 449 365L449 337 845 337 845 377 854 377C875 377 906 361 907 355L907 151C926 147 943 139 950 131L871 71 835 110 453 110 387 80Z"/>
</svg>