<svg xmlns="http://www.w3.org/2000/svg"
    viewBox="0 0 1000 1000">
  <!--
© 2017-2024 Adobe (http://www.adobe.com/).
Noto is a trademark of Google Inc.
This Font Software is licensed under the SIL Open Font License, Version 1.1. This Font Software is distributed on an "AS IS" BASIS, WITHOUT WARRANTIES OR CONDITIONS OF ANY KIND, either express or implied. See the SIL Open Font License for the specific language, permissions and limitations governing your use of this Font Software.
http://scripts.sil.org/OFL
  -->
<path d="M107 409L103 425C226 451 339 494 389 525 457 537 471 406 107 409ZM555 529L552 545C714 581 846 650 901 699 985 722 995 547 555 529ZM60 630L110 713C119 710 127 701 131 688 272 633 375 589 449 556L444 542C284 582 127 618 60 630ZM42 873L51 902 932 902C946 902 956 897 958 886 924 854 867 810 867 810L817 873 532 873 532 726 777 726C791 726 801 721 804 710 771 680 719 639 719 639L673 696 532 696 532 604C557 600 567 590 569 576L466 565 466 696 201 696 209 726 466 726 466 873ZM248 104L468 104 468 207 248 207ZM837 364L818 375 818 117C837 112 853 104 860 96L779 35 743 75 260 75 183 42 183 409 193 409C226 409 248 393 248 388L248 372 752 372 752 406 756 406C692 436 615 469 552 490L561 504C669 488 801 456 876 430 897 439 905 437 914 428ZM752 104L752 207 531 207 531 104ZM248 236L468 236 468 343 248 343ZM752 236L752 343 531 343 531 236Z"/>
</svg>