<svg xmlns="http://www.w3.org/2000/svg"
    viewBox="0 0 1000 1000">
  <!--
© 2017-2024 Adobe (http://www.adobe.com/).
Noto is a trademark of Google Inc.
This Font Software is licensed under the SIL Open Font License, Version 1.1. This Font Software is distributed on an "AS IS" BASIS, WITHOUT WARRANTIES OR CONDITIONS OF ANY KIND, either express or implied. See the SIL Open Font License for the specific language, permissions and limitations governing your use of this Font Software.
http://scripts.sil.org/OFL
  -->
<path d="M31 641L71 726C81 722 88 712 90 699 210 628 303 566 367 524L361 511 227 566 227 304 339 304C352 304 361 299 363 289 335 256 287 216 287 216L245 274 227 274 227 62C253 58 262 48 264 34L163 23 163 274 43 274 50 304 163 304 163 592C106 615 58 633 31 641ZM434 35L418 34C413 112 384 159 347 179 292 249 446 289 443 112L851 112C838 146 819 187 805 213L818 221C854 196 904 153 931 123 951 122 962 121 969 113L894 39 851 82 441 82C440 68 437 52 434 35ZM971 434L881 365C857 401 803 465 757 511 727 447 704 375 690 297L935 297C949 297 959 292 961 282 927 247 872 206 872 206L823 267 369 267 376 297 572 297C498 363 395 426 290 471L301 487C384 461 467 426 540 385 550 399 560 414 569 429 496 520 367 614 252 668L260 684C382 641 514 567 601 495 609 514 615 534 620 553 527 669 375 790 228 854L235 869C385 822 535 727 635 637 644 727 629 806 601 839 594 847 585 848 572 848 547 848 473 844 433 840L433 857C470 864 506 873 519 882 531 892 537 906 538 927 596 927 631 917 652 893 731 813 739 538 557 374 597 351 632 325 663 297L669 297C700 541 776 727 905 847 920 815 946 796 977 795L980 785C893 727 819 639 766 530 827 502 894 465 930 440 949 448 965 442 971 434Z"/>
</svg>