<svg xmlns="http://www.w3.org/2000/svg" name="gid4183" data-unicode="塢"
    viewBox="0 0 1000 1000">
  <!--
© 2017-2024 Adobe (http://www.adobe.com/).
Noto is a trademark of Google Inc.
This Font Software is licensed under the SIL Open Font License, Version 1.1. This Font Software is distributed on an "AS IS" BASIS, WITHOUT WARRANTIES OR CONDITIONS OF ANY KIND, either express or implied. See the SIL Open Font License for the specific language, permissions and limitations governing your use of this Font Software.
http://scripts.sil.org/OFL
  -->
<path d="M385 701C377 787 337 838 292 859 229 940 447 980 402 702ZM482 700L469 705C486 750 499 818 490 873 538 930 609 814 482 700ZM573 686L561 694C592 727 622 786 621 834 677 884 736 759 573 686ZM682 673L671 680C701 707 737 753 748 789 806 827 850 711 682 673ZM33 725L73 810C83 806 91 795 93 783 218 711 313 649 380 608L375 594 229 652 229 347 350 347C364 347 374 342 376 331 348 302 299 259 299 259L257 318 229 318 229 99C254 96 263 86 266 72L164 60 164 318 46 318 54 347 164 347 164 678C107 700 60 717 33 725ZM770 195L770 346 471 346 471 195ZM585 37C577 74 565 129 556 166L483 166 406 133 406 677 417 677C449 677 471 660 471 654L471 634 861 634C850 761 832 848 809 868 801 876 791 878 773 878 753 878 679 872 639 868L638 885C676 890 716 900 731 910 745 921 750 938 749 957 790 957 827 947 853 927 894 895 918 794 928 642 949 640 961 636 967 627L890 565 852 605 471 605 471 506 943 506C957 506 965 501 968 490 936 460 883 419 883 419L837 477 471 477 471 376 770 376 770 419 781 419C803 419 835 403 836 396L836 207C855 203 872 195 879 187L798 125 760 166 584 166C607 140 636 106 654 81 675 81 689 74 692 58Z"/>
</svg>