<svg xmlns="http://www.w3.org/2000/svg" name="gid4185" data-unicode="塧"
    viewBox="0 0 1000 1000">
  <!--
© 2017-2024 Adobe (http://www.adobe.com/).
Noto is a trademark of Google Inc.
This Font Software is licensed under the SIL Open Font License, Version 1.1. This Font Software is distributed on an "AS IS" BASIS, WITHOUT WARRANTIES OR CONDITIONS OF ANY KIND, either express or implied. See the SIL Open Font License for the specific language, permissions and limitations governing your use of this Font Software.
http://scripts.sil.org/OFL
  -->
<path d="M460 112C424 213 365 308 310 365L324 377C394 330 463 256 512 168 533 170 546 163 551 152ZM458 272L466 302 769 302C783 302 792 297 794 286 765 257 718 220 718 219L676 272ZM32 667L80 748C89 743 95 731 97 720 197 645 274 580 326 538L319 525 209 582 209 345 310 345C324 345 333 340 336 329 308 301 260 259 260 259L219 316 209 316 209 101C235 97 244 87 246 73L146 62 146 316 38 316 46 345 146 345 146 613C96 638 56 657 32 667ZM508 898L421 898 421 674 508 674ZM562 898L562 674 652 674 652 898ZM705 898L705 674 797 674 797 898ZM362 644L362 898 224 898 232 927 947 927C960 927 969 922 972 912 944 881 895 837 895 837L856 894 856 680C872 677 886 670 891 663L822 611 789 644 434 644 377 620C420 580 458 531 489 475 510 479 522 470 527 460L434 419C395 527 330 624 265 682L277 694C306 678 335 658 362 634ZM524 89L533 118 715 118C746 205 812 285 892 340 899 314 924 293 952 286L953 275C862 240 777 180 741 120 770 118 795 112 804 100L722 45 693 89ZM520 399L529 429 732 429C761 526 829 611 916 669 924 642 949 622 975 615L976 603C879 565 793 499 757 432 787 429 811 422 821 411L739 356 710 399Z"/>
</svg>