<svg xmlns="http://www.w3.org/2000/svg" name="gid4201" data-unicode="墅"
    viewBox="0 0 1000 1000">
  <!--
© 2017-2024 Adobe (http://www.adobe.com/).
Noto is a trademark of Google Inc.
This Font Software is licensed under the SIL Open Font License, Version 1.1. This Font Software is distributed on an "AS IS" BASIS, WITHOUT WARRANTIES OR CONDITIONS OF ANY KIND, either express or implied. See the SIL Open Font License for the specific language, permissions and limitations governing your use of this Font Software.
http://scripts.sil.org/OFL
  -->
<path d="M47 605L86 687C96 684 105 677 111 664 300 628 436 597 535 573L533 557 314 580 314 499 500 499C513 499 523 494 526 483 496 454 447 417 447 417L406 469 314 469 314 382 418 382 418 415 428 415C447 415 478 400 479 393L479 144C498 141 514 132 520 125L443 66 408 104 166 104 94 72 94 432 103 432C133 432 153 416 153 411L153 382 253 382 253 469 72 469 80 499 253 499 253 587C164 596 91 602 47 605ZM598 169L589 179C639 207 698 261 719 310L513 310 522 338 678 338 678 576C678 588 674 593 659 593 642 593 563 587 563 587L563 602C601 607 621 615 632 625 643 635 648 651 649 670 729 661 740 627 740 577L740 338 845 338C827 375 802 424 782 454L796 461C835 433 891 384 921 349 941 348 952 346 960 339L887 268 847 310 765 310C779 293 775 258 739 227 790 202 853 168 888 142 908 141 921 140 929 133L857 64 816 104 524 104 533 133 801 133C777 158 746 187 719 211 692 194 652 178 598 169ZM153 133L253 133 253 227 153 227ZM418 133L418 227 314 227 314 133ZM153 256L253 256 253 353 153 353ZM418 256L418 353 314 353 314 256ZM42 904L50 933 931 933C945 933 955 928 958 917 923 885 867 841 867 841L818 904 532 904 532 776 838 776C852 776 862 772 865 761 831 729 777 688 777 688L730 747 532 747 532 691C555 687 564 677 566 664L467 654 467 747 153 747 161 776 467 776 467 904Z"/>
</svg>