<svg xmlns="http://www.w3.org/2000/svg"
    viewBox="0 0 1000 1000">
  <!--
© 2017-2024 Adobe (http://www.adobe.com/).
Noto is a trademark of Google Inc.
This Font Software is licensed under the SIL Open Font License, Version 1.1. This Font Software is distributed on an "AS IS" BASIS, WITHOUT WARRANTIES OR CONDITIONS OF ANY KIND, either express or implied. See the SIL Open Font License for the specific language, permissions and limitations governing your use of this Font Software.
http://scripts.sil.org/OFL
  -->
<path d="M159 220L375 220 375 285 159 285ZM159 191L159 127 375 127 375 191ZM237 12L215 98 164 98 98 68 98 522C98 566 110 580 187 580L296 580C451 580 481 571 481 543 481 531 474 525 453 518L450 447 437 447C430 480 420 507 413 517 409 523 403 525 393 526 380 527 343 527 300 527L198 527C162 527 159 524 159 511L159 468C245 458 339 439 400 421 422 430 439 431 447 422L376 358C328 386 238 424 159 447L159 377C177 374 186 365 187 354L121 347C141 343 159 333 159 329L159 315 375 315 375 343 384 343C405 343 436 329 437 322L437 138C454 134 470 126 476 119L400 61 366 98 245 98C265 84 289 70 306 57 327 58 340 51 344 36ZM43 874L52 903 932 903C946 903 957 898 959 887 924 855 868 811 868 811L817 874 530 874 530 743 836 743C849 743 859 738 862 727 829 695 773 653 773 653L725 713 530 713 530 650C555 647 565 637 567 623L464 613 464 713 145 713 153 743 464 743 464 874ZM525 77L525 286 455 286 463 316 655 316C615 453 539 561 385 623L397 639C545 588 632 510 685 405L685 542C685 583 694 597 750 597L809 597C903 597 928 586 928 560 928 548 924 542 906 535L903 438 890 438C883 479 873 521 867 533 864 540 861 541 853 542 848 542 831 542 811 542L767 542C748 542 745 539 745 529L745 376C762 374 772 365 773 353L710 346 721 316 917 316C930 316 940 311 943 300 913 271 866 232 866 232L824 286 729 286C744 231 754 171 762 105L879 105C892 105 902 100 903 89 873 61 824 22 824 22L779 76 597 76 525 45ZM663 286L584 286 584 105 692 105C686 169 677 230 663 286Z"/>
</svg>