<svg xmlns="http://www.w3.org/2000/svg"
    viewBox="0 0 1000 1000">
  <!--
© 2017-2024 Adobe (http://www.adobe.com/).
Noto is a trademark of Google Inc.
This Font Software is licensed under the SIL Open Font License, Version 1.1. This Font Software is distributed on an "AS IS" BASIS, WITHOUT WARRANTIES OR CONDITIONS OF ANY KIND, either express or implied. See the SIL Open Font License for the specific language, permissions and limitations governing your use of this Font Software.
http://scripts.sil.org/OFL
  -->
<path d="M877 54L833 109 691 109 691 42C713 40 721 31 724 19L627 9 627 109 363 109 363 41C384 38 393 30 395 17L299 7 299 109 41 109 50 139 299 139 299 216 311 216C335 216 363 202 363 195L363 139 627 139 627 212 639 212C664 212 691 200 691 193L691 139 932 139C946 139 955 134 957 123 927 93 877 54 877 54ZM674 673L635 721 528 721 528 655C550 653 559 644 560 631L464 621 464 721 247 721 255 750 464 750 464 862 94 862 102 892 884 892C898 892 907 887 910 876 877 845 826 806 826 806L781 862 528 862 528 750 723 750C737 750 746 745 748 734 720 707 674 673 674 673ZM280 492L280 466 407 466C390 493 369 520 344 548L60 548 69 578 315 578C242 651 144 721 38 768L48 782C192 738 311 660 399 578L635 578C694 660 799 718 915 752 921 722 937 705 961 700L962 689C852 672 735 635 667 578L910 578C925 578 934 573 937 562 904 532 853 494 853 494L808 548 429 548 461 513C489 515 499 509 504 498L430 466 708 466 708 505 718 505C740 505 772 490 772 483L772 267C790 264 805 256 811 249L734 190 699 228 286 228 216 197 216 512 226 512C253 512 280 498 280 492ZM708 258L708 334 280 334 280 258ZM280 436L280 364 708 364 708 436Z"/>
</svg>