<svg xmlns="http://www.w3.org/2000/svg"
    viewBox="0 0 1000 1000">
  <!--
© 2017-2024 Adobe (http://www.adobe.com/).
Noto is a trademark of Google Inc.
This Font Software is licensed under the SIL Open Font License, Version 1.1. This Font Software is distributed on an "AS IS" BASIS, WITHOUT WARRANTIES OR CONDITIONS OF ANY KIND, either express or implied. See the SIL Open Font License for the specific language, permissions and limitations governing your use of this Font Software.
http://scripts.sil.org/OFL
  -->
<path d="M463 14L451 20C482 51 512 104 514 148 573 196 633 70 463 14ZM42 874L50 903 931 903C945 903 955 898 958 887 923 855 867 811 867 811L818 874 532 874 532 746 838 746C852 746 862 742 865 731 831 699 777 658 777 658L730 717 532 717 532 661C555 657 564 647 566 634L467 624 467 717 153 717 161 746 467 746 467 874ZM865 222C834 265 792 312 760 343 734 298 714 248 700 191L919 191C933 191 943 186 946 175 913 145 861 105 861 105L817 161 694 161C730 129 767 89 792 58 814 58 826 50 830 38L728 12C713 56 688 117 666 161L340 161 348 191 545 191C493 243 422 291 345 326L355 343C430 320 502 289 561 249L585 279C537 341 454 400 377 434L383 451C466 424 555 378 616 330L630 362C566 450 452 527 345 570L351 586C458 556 570 499 648 435 656 492 648 539 630 560 625 567 619 568 607 568 586 568 520 565 483 562L484 579C514 584 547 592 559 600 571 608 577 619 579 637 630 637 661 626 679 605 734 545 729 352 580 237 600 223 618 207 635 191L678 191C709 377 778 503 906 585 917 556 937 539 963 536L965 526C884 490 819 435 772 362 811 343 859 316 900 287 919 293 928 291 936 283ZM92 86L92 663 101 663C132 663 152 646 152 642L152 115 270 115C249 173 218 253 195 299 266 353 297 405 297 460 297 486 290 499 276 507 268 512 261 513 248 513 232 513 194 513 173 513L173 528C195 532 215 537 223 542 231 550 235 568 235 586 326 582 360 547 360 473 359 411 318 351 221 296 258 253 309 174 337 130 360 130 373 128 381 120L310 46 269 86 164 86 92 54Z"/>
</svg>