<svg xmlns="http://www.w3.org/2000/svg" name="gid4231" data-unicode="墳"
    viewBox="0 0 1000 1000">
  <!--
© 2017-2024 Adobe (http://www.adobe.com/).
Noto is a trademark of Google Inc.
This Font Software is licensed under the SIL Open Font License, Version 1.1. This Font Software is distributed on an "AS IS" BASIS, WITHOUT WARRANTIES OR CONDITIONS OF ANY KIND, either express or implied. See the SIL Open Font License for the specific language, permissions and limitations governing your use of this Font Software.
http://scripts.sil.org/OFL
  -->
<path d="M690 797L684 813C780 851 846 900 881 942 946 1001 1058 856 690 797ZM547 786C488 839 364 907 252 943L258 959C381 938 510 893 586 850 611 857 628 854 635 846ZM736 187L736 272 536 272 536 222C559 218 569 210 570 197L474 187 474 272 329 272 335 293 293 255 251 313 226 313 226 95C251 92 259 82 262 68L162 57 162 313 48 313 56 342 162 342 162 666C104 686 56 702 29 709L68 795C78 791 86 780 89 769 215 701 311 642 380 603L374 588 226 643 226 342 343 342C357 342 366 337 369 326L344 302 474 302 474 374 486 374C508 374 536 361 536 354L536 302 736 302 736 372 748 372C770 372 798 360 798 353L798 302 938 302C952 302 961 297 964 286 935 256 887 217 887 217L845 272 798 272 798 222C821 218 830 210 832 197ZM606 43L606 129 347 129 355 159 606 159 606 248 618 248C643 248 670 236 670 230L670 159 912 159C926 159 935 154 938 143 907 113 855 73 855 73L811 129 670 129 670 81C696 77 705 67 708 53ZM471 539L807 539 807 618 471 618ZM471 510L471 430 807 430 807 510ZM471 647L807 647 807 731 471 731ZM408 401L408 815 418 815C444 815 471 800 471 794L471 760 807 760 807 802 817 802C837 802 870 787 871 781L871 442C891 438 906 430 912 422L833 362 797 401 476 401 408 369Z"/>
</svg>