<svg xmlns="http://www.w3.org/2000/svg" name="gid4238" data-unicode="壁"
    viewBox="0 0 1000 1000">
  <!--
© 2017-2024 Adobe (http://www.adobe.com/).
Noto is a trademark of Google Inc.
This Font Software is licensed under the SIL Open Font License, Version 1.1. This Font Software is distributed on an "AS IS" BASIS, WITHOUT WARRANTIES OR CONDITIONS OF ANY KIND, either express or implied. See the SIL Open Font License for the specific language, permissions and limitations governing your use of this Font Software.
http://scripts.sil.org/OFL
  -->
<path d="M569 175L558 181C576 213 595 267 593 310 641 361 710 254 569 175ZM42 904L51 933 932 933C946 933 956 928 958 917 924 885 867 841 867 841L817 904 530 904 530 768 835 768C848 768 858 763 861 752 828 721 772 679 772 679L725 739 530 739 530 668C555 665 565 655 567 642L464 631 464 739 145 739 153 768 464 768 464 904ZM667 42L667 140 478 140 486 170 910 170C924 170 934 165 937 154 906 125 857 87 857 87L814 140 730 140 730 79C754 76 764 66 767 52ZM779 174C770 219 754 281 739 326L464 326 472 356 667 356 667 458 482 458 490 488 667 488 667 659 677 659C709 659 730 645 730 641L730 488 917 488C931 488 941 483 944 472 913 444 865 405 865 405L822 458 730 458 730 356 932 356C946 356 955 351 958 340 926 312 878 273 878 273L834 326 765 326C793 291 822 249 840 217 862 217 874 208 877 196ZM377 427L377 559 203 559 203 427ZM97 100L97 264C97 381 94 510 30 615L43 627C98 574 127 509 142 443L142 661 152 661C182 661 203 645 203 641L203 588 377 588 377 638 386 638C407 638 438 624 439 617L439 436C456 433 471 425 477 418L402 362 368 397 215 397 154 371C156 344 157 317 158 292L365 292 365 331 374 331C394 331 426 317 427 312L427 140C445 136 462 128 469 121L390 62 356 100 170 100 97 67ZM365 129L365 263 158 263 158 129Z"/>
</svg>