<svg xmlns="http://www.w3.org/2000/svg" name="gid4242" data-unicode="壅"
    viewBox="0 0 1000 1000">
  <!--
© 2017-2024 Adobe (http://www.adobe.com/).
Noto is a trademark of Google Inc.
This Font Software is licensed under the SIL Open Font License, Version 1.1. This Font Software is distributed on an "AS IS" BASIS, WITHOUT WARRANTIES OR CONDITIONS OF ANY KIND, either express or implied. See the SIL Open Font License for the specific language, permissions and limitations governing your use of this Font Software.
http://scripts.sil.org/OFL
  -->
<path d="M42 904L50 933 931 933C945 933 955 928 958 917 923 885 867 841 867 841L818 904 532 904 532 776 838 776C852 776 862 772 865 761 831 729 777 688 777 688L730 747 532 747 532 691C555 687 564 677 566 664L515 659C539 655 554 640 554 635L554 619 924 619C938 619 948 614 950 603 921 575 873 538 873 538L831 590 727 590 727 516 881 516C894 516 903 512 905 501 879 475 836 442 836 442L799 488 727 488 727 417 881 417C894 417 903 412 905 401 879 375 836 341 836 341L799 387 727 387 727 316 898 316C911 316 920 311 923 300 895 272 847 236 847 236L807 287 692 287C712 268 731 247 745 230 766 230 777 221 781 209L686 185C680 215 671 257 663 287L566 287 553 281C564 264 575 247 585 228 607 230 619 222 623 211L550 183 918 183C932 183 943 179 946 168 912 137 860 97 860 97L813 154 532 154 532 79C557 76 567 66 569 52L467 42 467 154 57 154 66 183 242 183C224 226 202 270 183 304 161 289 131 276 89 267L79 276C119 304 167 354 180 395 221 421 252 370 205 322 235 297 267 264 294 232 314 235 326 227 331 217L257 183 530 183C498 271 450 352 401 403L415 415C442 398 468 377 493 352L493 657 467 654 467 747 153 747 161 776 467 776 467 904ZM667 316L667 387 554 387 554 316ZM667 417L667 488 554 488 554 417ZM667 516L667 590 554 590 554 516ZM359 403C355 423 350 443 343 463L217 481C279 427 343 362 384 310 406 313 420 306 426 295L337 259C298 327 235 419 180 486 127 493 83 498 55 500L93 572C102 569 110 562 114 550 206 526 278 505 333 488 296 577 223 659 86 711L96 724C298 664 378 556 412 445 433 445 446 437 449 423Z"/>
</svg>