<svg xmlns="http://www.w3.org/2000/svg" name="gid4254" data-unicode="壕"
    viewBox="0 0 1000 1000">
  <!--
© 2017-2024 Adobe (http://www.adobe.com/).
Noto is a trademark of Google Inc.
This Font Software is licensed under the SIL Open Font License, Version 1.1. This Font Software is distributed on an "AS IS" BASIS, WITHOUT WARRANTIES OR CONDITIONS OF ANY KIND, either express or implied. See the SIL Open Font License for the specific language, permissions and limitations governing your use of this Font Software.
http://scripts.sil.org/OFL
  -->
<path d="M594 43L594 135 303 135 311 165 935 165C949 165 958 160 961 149 929 118 876 76 876 76L829 135 658 135 658 80C683 76 693 66 695 52ZM873 556C839 587 783 634 737 667 712 629 690 587 675 543L804 543C818 543 828 538 829 527 801 500 755 464 755 464L715 514 402 514 410 543 540 543C475 595 386 640 290 672L299 690C389 667 474 637 545 597 554 607 562 617 569 628 503 684 391 742 296 774L302 790C402 766 516 720 595 675 601 687 606 699 610 712 522 792 375 866 243 905L250 922C381 894 522 839 623 777 628 824 620 862 605 880 600 886 594 887 583 887 562 887 496 884 462 881L462 897C493 901 524 911 536 918 548 927 554 938 555 958 608 958 639 948 657 927 711 870 707 691 564 586 585 573 606 558 624 543L654 543C695 712 782 841 905 921 917 893 937 874 963 871L965 861C882 823 806 761 749 684 802 663 868 637 906 619 924 625 933 624 938 617ZM479 250L777 250 777 330 479 330ZM417 220L417 395 426 395C458 395 479 380 479 375L479 360 777 360 777 385 786 385C807 385 839 373 840 367L840 258C857 255 871 248 877 241L802 185 768 220 492 220 417 188ZM361 377C358 438 324 481 304 495 251 528 291 576 337 547 365 530 381 495 383 450L855 450C847 480 836 517 829 538L844 545C869 524 908 486 931 462 950 461 961 459 967 452L892 378 851 421 383 421C382 407 379 392 376 377ZM31 705L69 792C78 788 86 779 89 766 205 702 294 645 356 607L351 593 222 641 222 350 324 350C338 350 347 345 350 334 321 305 275 264 275 264L234 320 222 320 222 95C248 92 256 82 259 68L158 57 158 320 41 320 49 350 158 350 158 664C103 683 57 698 31 705Z"/>
</svg>