<svg xmlns="http://www.w3.org/2000/svg"
    viewBox="0 0 1000 1000">
  <!--
© 2017-2023 Adobe (http://www.adobe.com/).
Noto is a trademark of Google Inc.
This Font Software is licensed under the SIL Open Font License, Version 1.1. This Font Software is distributed on an "AS IS" BASIS, WITHOUT WARRANTIES OR CONDITIONS OF ANY KIND, either express or implied. See the SIL Open Font License for the specific language, permissions and limitations governing your use of this Font Software.
http://scripts.sil.org/OFL
  -->
<path d="M690 713L690 865 614 865 614 713ZM741 713L811 713 811 865 741 865ZM564 713L564 865 486 865 486 713ZM459 395L459 660 468 660C497 660 515 646 515 642L515 632 794 632 794 655 803 655C811 655 818 654 825 652L800 683 498 683 430 652 430 865 337 865 345 894 953 894C967 894 975 889 978 878 954 850 911 812 911 812L874 865 870 865 870 719C894 716 908 711 915 700L840 646C847 642 851 639 851 637L851 458C870 455 879 449 886 442L820 391 791 425 527 425ZM651 224L567 214 567 281 432 294 443 322 567 311 567 335C567 375 578 388 649 388L749 388C892 388 919 382 919 355 919 344 913 339 893 333L890 267 878 267C870 297 863 322 856 332 852 338 848 340 838 340 826 341 792 341 751 341L659 341C626 341 623 339 623 328L623 306 795 290C807 289 816 282 817 271 791 250 744 220 744 220L712 268 623 276 623 247C640 245 649 236 651 224ZM283 246L244 299 225 299 225 76C251 73 259 63 262 49L163 39 163 299 41 299 49 328 163 328 163 662C109 677 65 688 39 694L85 780C94 777 102 767 105 755 205 704 280 661 334 630 319 731 290 830 230 917L246 928C395 777 407 560 407 399L407 209 843 209 820 273 833 279C857 265 898 237 921 220 940 219 951 217 959 210L884 138 842 179 627 179 627 125 858 125C872 125 882 120 885 109 853 79 803 40 803 40L758 96 627 96 627 50C652 46 662 37 664 23L566 13 566 179 419 179 347 147 347 303C320 277 283 246 283 246ZM624 455L624 511 515 511 515 455ZM678 455L794 455 794 511 678 511ZM624 541L624 602 515 602 515 541ZM678 541L794 541 794 602 678 602ZM336 611L225 644 225 328 331 328C337 328 343 327 347 324L347 400C347 469 345 541 336 611Z"/>
</svg>