<svg xmlns="http://www.w3.org/2000/svg"
    viewBox="0 0 1000 1000">
  <!--
© 2017-2024 Adobe (http://www.adobe.com/).
Noto is a trademark of Google Inc.
This Font Software is licensed under the SIL Open Font License, Version 1.1. This Font Software is distributed on an "AS IS" BASIS, WITHOUT WARRANTIES OR CONDITIONS OF ANY KIND, either express or implied. See the SIL Open Font License for the specific language, permissions and limitations governing your use of this Font Software.
http://scripts.sil.org/OFL
  -->
<path d="M368 651L376 680 864 680C878 680 888 675 890 665 857 637 807 604 807 604L763 651ZM382 488L390 517 538 517C551 517 560 512 562 501 540 479 505 454 505 454L477 488ZM369 568L377 598 535 598C548 598 557 593 559 582 537 560 501 534 501 534L472 568ZM684 488L691 517 824 517C837 517 845 512 848 501 826 479 793 454 793 454L762 488ZM684 568L691 598 854 598C867 598 876 593 878 582 856 560 821 534 821 534L791 568ZM31 694L76 779C85 775 93 764 95 752 205 687 288 633 346 597L341 583 215 630 215 330 325 330C339 330 348 325 351 314 322 284 276 243 276 243L235 300 215 300 215 72C241 69 249 59 252 45L152 34 152 300 42 300 50 330 152 330 152 653C100 672 57 687 31 694ZM373 360C364 406 334 439 303 453 253 516 380 548 392 431L588 431 588 615 598 615C631 615 651 601 651 597L651 431 854 431 841 494 856 500C876 486 907 459 925 442 944 441 955 440 962 432L889 361 849 402 651 402 651 341 892 341C905 341 914 336 917 325 886 298 837 264 837 264L795 312 366 312 373 341 588 341 588 402 393 402C393 390 391 376 388 361ZM320 843L360 927C370 925 379 918 385 906 568 887 701 872 799 858 827 881 851 905 866 925 938 954 963 822 717 780L708 790C728 802 750 819 773 836L489 843C514 819 543 790 569 763L940 763C954 763 964 758 966 747 934 720 884 685 884 685L839 735 274 735 282 763 491 763C479 789 463 819 450 843ZM454 88L790 88 790 140 454 140ZM391 58L391 284 401 284C434 284 454 268 454 262L454 251 790 251 790 273 800 273C821 273 852 258 853 252L853 99C872 95 888 88 895 80L816 20 780 58 466 58 391 26ZM454 221L454 169 790 169 790 221Z"/>
</svg>