<svg xmlns="http://www.w3.org/2000/svg" name="gid4268" data-unicode="壥"
    viewBox="0 0 1000 1000">
  <!--
© 2017-2024 Adobe (http://www.adobe.com/).
Noto is a trademark of Google Inc.
This Font Software is licensed under the SIL Open Font License, Version 1.1. This Font Software is distributed on an "AS IS" BASIS, WITHOUT WARRANTIES OR CONDITIONS OF ANY KIND, either express or implied. See the SIL Open Font License for the specific language, permissions and limitations governing your use of this Font Software.
http://scripts.sil.org/OFL
  -->
<path d="M805 578L795 586C835 618 887 675 902 718 962 755 999 632 805 578ZM691 580L679 587C703 615 731 663 734 701 784 742 835 638 691 580ZM582 582L569 587C580 617 590 664 585 701 627 748 692 663 582 582ZM550 231L537 238C553 260 570 298 573 327 609 362 654 288 550 231ZM761 228C754 255 736 307 721 339L734 346C758 319 784 290 799 269 818 271 830 261 831 252ZM492 584C482 632 447 664 412 678 363 740 531 768 508 585ZM427 781L435 811 637 811 637 904 366 904 374 933 945 933C959 933 968 928 970 917 939 887 887 846 887 846L842 904 701 904 701 811 905 811C919 811 928 806 931 795 901 768 855 731 855 731L815 781 701 781 701 742C718 739 726 731 727 720L637 710 637 781ZM463 185L463 419 472 419C494 419 517 406 517 401L517 385 642 385 642 448 468 448 476 477 642 477 642 537 413 537 421 567 927 567C941 567 950 562 952 551 922 524 875 491 875 491L834 537 702 537 702 477 880 477C894 477 903 472 905 461 884 442 853 419 840 410L845 410C864 410 892 396 893 390L893 222C908 219 923 212 929 205L859 153 828 185 522 185 463 158ZM702 448L702 385 837 385 837 408 833 405 793 448ZM32 715L76 798C85 794 92 783 94 772 198 707 277 651 332 613 317 734 283 849 208 947L223 958C388 806 403 584 403 400L403 127 932 127C945 127 955 122 958 112 925 82 873 42 873 42L826 98 415 98 342 66 342 402C342 470 340 539 333 605L330 599 211 647 211 346 317 346C330 346 340 341 342 330 314 302 268 261 268 261L228 316 211 316 211 103C236 99 246 89 247 75L149 64 149 316 44 316 52 346 149 346 149 672C98 692 56 708 32 715ZM645 357L517 357 517 215 645 215ZM699 357L699 215 837 215 837 357Z"/>
</svg>