<svg xmlns="http://www.w3.org/2000/svg" name="gid4272" data-unicode="壮"
    viewBox="0 0 1000 1000">
  <!--
© 2017-2024 Adobe (http://www.adobe.com/).
Noto is a trademark of Google Inc.
This Font Software is licensed under the SIL Open Font License, Version 1.1. This Font Software is distributed on an "AS IS" BASIS, WITHOUT WARRANTIES OR CONDITIONS OF ANY KIND, either express or implied. See the SIL Open Font License for the specific language, permissions and limitations governing your use of this Font Software.
http://scripts.sil.org/OFL
  -->
<path d="M66 205L54 212C96 259 140 336 144 398 210 457 275 304 66 205ZM605 55L605 368 338 368 346 397 605 397 605 875 360 875 368 905 926 905C940 905 949 900 952 889 920 858 867 814 867 814L820 875 671 875 671 397 946 397C960 397 970 392 972 381 940 351 887 308 887 308L840 368 671 368 671 95C696 91 704 81 707 67ZM235 47L235 543C151 600 67 654 31 674L86 751C95 745 100 731 99 720 155 662 201 611 235 572L235 956 248 956C272 956 300 939 300 929L300 85C325 81 333 71 336 57Z"/>
</svg>