<svg xmlns="http://www.w3.org/2000/svg"
    viewBox="0 0 1000 1000">
  <!--
© 2017-2023 Adobe (http://www.adobe.com/).
Noto is a trademark of Google Inc.
This Font Software is licensed under the SIL Open Font License, Version 1.1. This Font Software is distributed on an "AS IS" BASIS, WITHOUT WARRANTIES OR CONDITIONS OF ANY KIND, either express or implied. See the SIL Open Font License for the specific language, permissions and limitations governing your use of this Font Software.
http://scripts.sil.org/OFL
  -->
<path d="M497 502L802 502 802 587 497 587ZM433 473L433 927 442 927C475 927 497 910 497 904L497 739 802 739 802 836C802 850 797 857 778 857 754 857 652 850 652 850L652 865C697 869 724 878 739 887 752 897 757 912 761 930 855 922 866 890 866 843L866 515C887 512 903 502 909 495L825 433 792 473 509 473 433 440ZM497 616L802 616 802 709 497 709ZM35 690L79 775C88 770 96 760 99 749 221 679 312 622 376 583L372 569 228 623 228 319 342 319C356 319 365 314 368 303 339 274 291 231 291 231L248 289 228 289 228 60C253 57 261 47 264 33L163 22 163 289 44 289 52 319 163 319 163 646C107 666 62 682 35 690ZM343 65L352 94 611 94 611 337C558 326 518 303 486 261 496 237 505 212 512 184 534 184 545 175 549 163L447 137C429 278 373 385 295 453L307 465C380 428 436 368 476 285 533 382 615 409 750 409 793 409 887 409 925 409 927 385 937 365 959 362L959 347C906 348 800 348 754 348 725 348 698 347 674 346L674 243 886 243C900 243 909 238 911 227 881 199 832 160 832 160L789 214 674 214 674 94 835 94 808 159 821 165C845 151 888 122 910 104 929 103 941 102 948 94L875 24 835 65Z"/>
</svg>