<svg xmlns="http://www.w3.org/2000/svg"
    viewBox="0 0 1000 1000">
  <!--
© 2017-2023 Adobe (http://www.adobe.com/).
Noto is a trademark of Google Inc.
This Font Software is licensed under the SIL Open Font License, Version 1.1. This Font Software is distributed on an "AS IS" BASIS, WITHOUT WARRANTIES OR CONDITIONS OF ANY KIND, either express or implied. See the SIL Open Font License for the specific language, permissions and limitations governing your use of this Font Software.
http://scripts.sil.org/OFL
  -->
<path d="M725 565L725 686 530 686 530 565ZM725 536L530 536 530 421 725 421ZM467 565L467 686 276 686 276 565ZM467 536L276 536 276 421 467 421ZM441 6C423 60 399 115 369 170L50 170 59 200 352 200C280 319 177 432 35 511L44 522C107 496 162 465 212 430L212 797 222 797C254 797 276 780 276 774L276 715 467 715 467 836C467 896 491 913 581 913L712 913C900 913 939 904 939 871 939 859 932 851 907 843L903 724 891 724C879 778 867 827 859 840 854 848 847 851 834 853 817 854 772 855 715 855L589 855C538 855 530 847 530 823L530 715 725 715 725 764 735 764C757 764 790 749 791 743L791 431 798 429C831 450 866 468 901 482 907 453 932 434 965 425L967 412C839 381 689 305 613 200L926 200C940 200 950 195 952 184 917 150 860 106 860 106L810 170 450 170C473 132 491 94 507 57 527 59 540 53 545 40ZM467 276L467 392 288 392 271 384C337 328 390 265 432 200L585 200C620 267 670 328 729 378L716 392 530 392 530 312C553 309 563 299 564 287Z"/>
</svg>