<svg xmlns="http://www.w3.org/2000/svg" name="gid4352" data-unicode="奝"
    viewBox="0 0 1000 1000">
  <!--
© 2017-2024 Adobe (http://www.adobe.com/).
Noto is a trademark of Google Inc.
This Font Software is licensed under the SIL Open Font License, Version 1.1. This Font Software is distributed on an "AS IS" BASIS, WITHOUT WARRANTIES OR CONDITIONS OF ANY KIND, either express or implied. See the SIL Open Font License for the specific language, permissions and limitations governing your use of this Font Software.
http://scripts.sil.org/OFL
  -->
<path d="M436 34C416 77 388 122 354 165L51 165 60 194 330 194C259 273 163 347 37 399L45 413C97 397 144 378 187 358L187 544C187 699 166 841 63 945L77 957C225 855 251 700 251 529L251 346 763 346 763 861C763 875 758 881 741 881 722 881 633 875 633 875L633 891C673 895 695 902 710 913 721 922 726 939 729 958 816 949 827 918 827 867L827 363C854 375 881 385 908 393 914 367 939 350 971 341L973 328C861 310 713 261 631 194L925 194C939 194 950 189 952 179 917 146 860 102 860 102L811 165 441 165C462 139 481 113 496 87 516 90 529 84 535 71ZM415 194L596 194C634 240 683 282 739 317L264 317 263 316C324 279 375 237 415 194ZM462 360L462 439 307 439 314 468 462 468 462 541 279 541 287 571 462 571 462 619 474 619C496 619 522 606 522 599L522 571 708 571C722 571 731 566 734 555 706 526 660 489 660 489L619 541 522 541 522 468 680 468C693 468 702 463 705 452 678 426 635 392 635 392L597 439 522 439 522 391C541 387 549 380 550 370ZM324 648L324 870 333 870C358 870 384 855 384 850L384 810 607 810 607 849 615 849C635 849 666 838 667 832L667 685C682 682 695 675 701 669L630 615 599 648 389 648 324 620ZM384 781L384 678 607 678 607 781Z"/>
</svg>