<svg xmlns="http://www.w3.org/2000/svg" name="gid4361" data-unicode="奨"
    viewBox="0 0 1000 1000">
  <!--
© 2017-2024 Adobe (http://www.adobe.com/).
Noto is a trademark of Google Inc.
This Font Software is licensed under the SIL Open Font License, Version 1.1. This Font Software is distributed on an "AS IS" BASIS, WITHOUT WARRANTIES OR CONDITIONS OF ANY KIND, either express or implied. See the SIL Open Font License for the specific language, permissions and limitations governing your use of this Font Software.
http://scripts.sil.org/OFL
  -->
<path d="M465 408L456 417C495 444 541 494 552 536 617 577 660 444 465 408ZM410 173L399 181C429 209 458 261 459 304 515 352 575 231 410 173ZM560 153L549 161C578 190 607 244 607 286 661 333 719 214 560 153ZM82 132L71 139C104 177 139 241 140 293 199 346 263 212 82 132ZM827 45C722 78 523 117 364 133L367 152C533 150 720 129 844 109 867 119 885 120 895 111ZM810 139C764 213 706 287 661 331L673 344C696 331 720 316 745 297L745 365 348 365 356 394 745 394 745 526C745 540 741 544 726 544 708 544 626 538 626 538L626 554C664 558 684 566 696 574 708 585 711 600 714 619 798 610 808 581 808 529L808 394 940 394C954 394 963 389 966 379 936 350 889 312 889 312L846 365 808 365 808 311C830 308 839 301 842 286L770 278C800 254 830 228 856 200 877 205 891 198 896 189ZM242 43L242 371C156 408 73 440 35 453L84 525C93 520 99 511 101 499L242 396 242 628 254 628C278 628 306 614 306 605L306 81C330 78 339 67 342 53ZM448 566C446 608 442 646 432 681L43 681 51 710 423 710C385 807 290 878 38 939L45 959C361 901 458 821 495 710L518 710C592 850 726 920 913 960 920 927 939 905 967 898L968 888C785 869 627 817 544 710L932 710C946 710 956 706 959 695 925 663 871 621 871 621L822 681 503 681C509 656 513 630 516 602 538 600 549 589 551 577Z"/>
</svg>