<svg xmlns="http://www.w3.org/2000/svg" name="gid4371" data-unicode="奴"
    viewBox="0 0 1000 1000">
  <!--
© 2017-2024 Adobe (http://www.adobe.com/).
Noto is a trademark of Google Inc.
This Font Software is licensed under the SIL Open Font License, Version 1.1. This Font Software is distributed on an "AS IS" BASIS, WITHOUT WARRANTIES OR CONDITIONS OF ANY KIND, either express or implied. See the SIL Open Font License for the specific language, permissions and limitations governing your use of this Font Software.
http://scripts.sil.org/OFL
  -->
<path d="M832 182C809 353 766 508 686 639 614 517 570 364 552 182ZM391 154L400 182 529 182C545 389 582 558 651 691 576 794 473 879 333 942L344 956C492 904 600 831 680 742 734 830 805 901 895 956 911 926 939 910 970 911L973 901C869 851 786 781 721 692 826 552 873 381 902 194 924 192 934 190 942 180L867 110 824 154ZM218 46C209 104 190 191 166 284L37 284 46 314 159 314C123 453 81 599 50 684 76 692 103 692 117 682L139 611C180 636 224 668 263 703 214 796 141 876 34 937L44 951C164 897 245 825 302 740 341 782 373 826 388 868 454 905 481 793 334 685 389 577 412 453 427 323 448 320 457 318 465 309L392 243 354 284 230 284C249 207 266 137 276 89 301 89 311 81 314 68ZM222 314L361 314C351 438 330 553 287 654 248 632 202 610 145 591 170 506 198 406 222 314Z"/>
</svg>