<svg xmlns="http://www.w3.org/2000/svg" name="gid4382" data-unicode="妄"
    viewBox="0 0 1000 1000">
  <!--
© 2017-2024 Adobe (http://www.adobe.com/).
Noto is a trademark of Google Inc.
This Font Software is licensed under the SIL Open Font License, Version 1.1. This Font Software is distributed on an "AS IS" BASIS, WITHOUT WARRANTIES OR CONDITIONS OF ANY KIND, either express or implied. See the SIL Open Font License for the specific language, permissions and limitations governing your use of this Font Software.
http://scripts.sil.org/OFL
  -->
<path d="M40 547L49 577 328 577C279 660 222 747 182 798 205 812 233 816 250 811L292 748C370 764 441 780 506 798 400 870 249 911 46 939L50 957C296 937 462 897 576 819 703 858 802 902 874 949 955 994 1031 866 630 776 685 724 726 659 756 577L934 577C948 577 957 572 960 561 925 529 871 487 871 487L822 547 419 547C440 511 459 479 471 456 497 457 508 449 512 436L419 413 552 414C833 414 871 407 871 373 871 360 862 352 832 346L827 345 818 345C808 349 796 351 787 352 778 354 766 355 751 356 721 358 642 358 555 358L337 358C264 358 260 354 260 336L260 189 929 189C943 189 953 184 955 174 922 142 869 102 869 102L821 160 532 160 532 78C556 74 566 64 568 50L466 41 466 160 42 160 51 189 195 189 195 344C195 404 220 413 339 413L417 413C401 447 376 495 345 547ZM401 577L675 577C649 652 609 712 555 761 484 748 402 736 307 726 338 678 371 625 401 577Z"/>
</svg>