<svg xmlns="http://www.w3.org/2000/svg" name="gid4402" data-unicode="妬"
    viewBox="0 0 1000 1000">
  <!--
© 2017-2024 Adobe (http://www.adobe.com/).
Noto is a trademark of Google Inc.
This Font Software is licensed under the SIL Open Font License, Version 1.1. This Font Software is distributed on an "AS IS" BASIS, WITHOUT WARRANTIES OR CONDITIONS OF ANY KIND, either express or implied. See the SIL Open Font License for the specific language, permissions and limitations governing your use of this Font Software.
http://scripts.sil.org/OFL
  -->
<path d="M392 121L400 149 618 149C572 340 484 537 361 678L375 691C428 644 475 591 516 534L516 956 526 956C558 956 579 940 579 934L579 860 831 860 831 949 841 949C863 949 896 933 897 925L897 496C916 492 932 484 939 476L858 413 821 454 591 454 573 446C626 355 667 255 694 149L935 149C949 149 959 144 961 133 929 103 875 61 875 61L828 121ZM579 831L579 484 831 484 831 831ZM202 46C194 104 177 191 157 284L39 284 48 313 150 313C119 449 81 594 53 676 80 684 106 683 119 674L139 603C173 626 207 654 239 685 196 780 132 862 38 927L49 942C155 885 228 811 278 726 312 766 339 808 350 847 414 887 446 774 307 669 356 563 377 444 391 322 412 320 421 317 429 309L356 243 317 284 219 284C237 207 252 137 260 89 285 89 294 79 298 66ZM212 313L325 313C315 427 297 538 259 637 227 618 189 600 144 584 167 501 191 403 212 313Z"/>
</svg>