<svg xmlns="http://www.w3.org/2000/svg" name="gid4422" data-unicode="始"
    viewBox="0 0 1000 1000">
  <!--
© 2017-2024 Adobe (http://www.adobe.com/).
Noto is a trademark of Google Inc.
This Font Software is licensed under the SIL Open Font License, Version 1.1. This Font Software is distributed on an "AS IS" BASIS, WITHOUT WARRANTIES OR CONDITIONS OF ANY KIND, either express or implied. See the SIL Open Font License for the specific language, permissions and limitations governing your use of this Font Software.
http://scripts.sil.org/OFL
  -->
<path d="M493 555L493 956 503 956C535 956 555 942 555 936L555 873 839 873 839 952 850 952C880 952 904 936 904 932L904 588C925 585 935 580 942 572L869 515 836 555 567 555 493 523ZM555 844L555 583 839 583 839 844ZM421 384L448 470C458 468 468 461 475 450 643 424 771 402 870 383 884 413 895 443 900 470 976 530 1029 352 767 207L756 214C791 254 831 309 860 364 752 370 649 376 566 380 622 285 673 174 704 92 726 93 738 83 742 71L632 42C612 142 575 276 538 381 489 383 449 384 421 384ZM217 46C208 104 189 191 166 284L37 284 46 313 158 313C123 452 81 599 50 683 77 691 103 690 116 681L137 612C174 636 212 666 247 700 200 792 132 871 31 933L41 947C153 893 230 821 284 738 323 783 355 830 367 875 434 915 465 797 315 684 369 575 392 452 407 322 429 320 438 317 445 309L372 243 334 284 228 284C248 207 264 137 274 89 299 89 309 80 312 67ZM220 313L342 313C331 435 311 550 268 652 234 631 192 611 143 593 169 507 196 406 220 313Z"/>
</svg>