<svg xmlns="http://www.w3.org/2000/svg"
    viewBox="0 0 1000 1000">
  <!--
© 2017-2024 Adobe (http://www.adobe.com/).
Noto is a trademark of Google Inc.
This Font Software is licensed under the SIL Open Font License, Version 1.1. This Font Software is distributed on an "AS IS" BASIS, WITHOUT WARRANTIES OR CONDITIONS OF ANY KIND, either express or implied. See the SIL Open Font License for the specific language, permissions and limitations governing your use of this Font Software.
http://scripts.sil.org/OFL
  -->
<path d="M321 480L364 557C373 553 380 543 382 531L482 479C478 650 447 800 300 917L314 929C516 814 544 632 545 445L657 382 651 367 545 405 545 110 635 110C648 110 657 106 660 96L664 110 744 110 744 449 618 449 626 478 744 478 744 929 754 929C787 929 808 912 809 907L809 478 947 478C961 478 969 473 972 462 942 432 892 390 892 390L848 449 809 449 809 110 932 110C946 110 955 105 958 94 926 65 874 23 874 23L828 82 656 82 659 91C627 62 578 23 578 23L533 82 350 82 358 110 482 110 482 428C412 452 354 471 321 480ZM151 13C147 66 137 143 125 226L36 226 44 256 120 256C98 399 69 554 46 639 74 645 100 643 111 634L123 576C151 599 179 627 205 656 170 748 117 830 34 897L45 911C137 853 199 780 241 699 263 729 281 759 290 786 346 821 378 735 268 639 313 523 326 394 335 265 354 263 364 260 371 250L300 187 262 226 183 226C194 156 203 93 208 49 233 47 242 37 244 23ZM178 256L270 256C265 378 254 497 222 604 196 587 165 569 128 552 145 463 163 354 178 256Z"/>
</svg>