<svg xmlns="http://www.w3.org/2000/svg"
    viewBox="0 0 1000 1000">
  <!--
© 2017-2024 Adobe (http://www.adobe.com/).
Noto is a trademark of Google Inc.
This Font Software is licensed under the SIL Open Font License, Version 1.1. This Font Software is distributed on an "AS IS" BASIS, WITHOUT WARRANTIES OR CONDITIONS OF ANY KIND, either express or implied. See the SIL Open Font License for the specific language, permissions and limitations governing your use of this Font Software.
http://scripts.sil.org/OFL
  -->
<path d="M697 83L697 927 707 927C737 927 757 910 757 905L757 112 863 112C844 195 811 322 791 388 858 468 884 547 884 627 884 669 876 691 860 702 853 706 848 708 837 708 822 708 784 708 764 708L764 724C786 727 804 732 813 738 821 747 824 769 824 789 918 785 950 742 950 640 950 556 912 469 815 385 853 319 906 194 934 128 956 128 969 126 976 117L900 41 858 83 770 83 697 52ZM577 342L574 542 474 542C484 475 486 409 486 347L486 342ZM577 312L486 312 486 114 578 114ZM316 86L325 114 428 114 428 312 330 312 339 342 428 342 428 348C428 411 426 477 417 542L327 542 336 571 413 571C394 690 352 808 260 912L276 923C393 824 446 698 469 571L573 571C569 722 560 801 543 822 533 833 527 835 508 835 490 835 445 831 413 828L412 846C441 852 470 860 481 870 492 879 493 897 493 916 530 916 568 902 591 868 629 811 633 612 635 122 658 119 670 114 677 106L603 43 567 86ZM150 13C146 67 136 143 124 226L36 226 45 256 119 256C97 399 68 555 45 642 72 649 95 647 106 638L119 577C143 597 167 622 189 648 156 745 106 834 29 906L41 920C127 856 185 778 225 693 248 725 265 757 273 787 328 824 363 732 249 634 292 517 307 389 316 265 336 263 346 260 353 250L283 188 246 226 180 226C191 158 199 96 204 50 231 48 239 38 242 25ZM176 256L254 256C247 373 235 491 204 600 181 584 155 569 123 555 142 463 160 354 176 256Z"/>
</svg>