<svg xmlns="http://www.w3.org/2000/svg" name="gid4473" data-unicode="娣"
    viewBox="0 0 1000 1000">
  <!--
© 2017-2024 Adobe (http://www.adobe.com/).
Noto is a trademark of Google Inc.
This Font Software is licensed under the SIL Open Font License, Version 1.1. This Font Software is distributed on an "AS IS" BASIS, WITHOUT WARRANTIES OR CONDITIONS OF ANY KIND, either express or implied. See the SIL Open Font License for the specific language, permissions and limitations governing your use of this Font Software.
http://scripts.sil.org/OFL
  -->
<path d="M465 48L453 55C490 91 526 153 529 203 593 257 655 114 465 48ZM395 223L404 252 625 252 625 405 505 405 433 366C424 434 402 554 384 638 418 645 435 644 451 634L458 597 588 597C530 718 431 827 304 903L314 919C449 856 554 769 625 659L625 958 634 958C667 958 689 942 689 938L689 597 865 597C861 719 851 783 835 797 829 804 822 805 808 805 791 805 743 802 714 799L714 816C740 820 767 827 779 836 790 846 793 863 793 880 826 880 856 872 876 855 909 828 923 756 928 604 947 602 959 597 966 589L891 531 856 569 689 569 689 435 830 435 830 476 840 476C861 476 893 462 894 456L894 264C912 260 929 252 935 245L856 184 820 223 723 223C763 181 803 131 829 92 849 93 862 85 867 74L766 43C750 96 722 169 697 223ZM830 252L830 405 689 405 689 252ZM625 569L463 569 484 435 625 435ZM170 42C165 94 153 170 139 253L37 253 46 282 133 282C107 424 73 580 46 665 74 672 100 670 112 661L127 599C156 619 186 643 215 668 177 765 120 851 31 919L42 933C143 871 210 793 255 705 289 739 318 775 333 807 395 839 421 744 280 649 324 538 340 415 351 292 371 289 380 286 387 277L316 213 278 253 198 253C211 185 221 124 228 81 252 80 261 70 264 57ZM192 282L286 282C279 401 266 516 232 621 204 606 170 591 132 577 152 487 174 379 192 282Z"/>
</svg>