<svg xmlns="http://www.w3.org/2000/svg" name="gid4485" data-unicode="娼"
    viewBox="0 0 1000 1000">
  <!--
© 2017-2024 Adobe (http://www.adobe.com/).
Noto is a trademark of Google Inc.
This Font Software is licensed under the SIL Open Font License, Version 1.1. This Font Software is distributed on an "AS IS" BASIS, WITHOUT WARRANTIES OR CONDITIONS OF ANY KIND, either express or implied. See the SIL Open Font License for the specific language, permissions and limitations governing your use of this Font Software.
http://scripts.sil.org/OFL
  -->
<path d="M858 724L858 857 495 857 495 724ZM858 695L495 695 495 563 858 563ZM431 533L431 957 441 957C468 957 495 942 495 935L495 886 858 886 858 955 868 955C890 955 922 939 923 933L923 575C942 571 958 563 964 555L885 494 848 533 501 533 431 502ZM531 273L829 273 829 388 531 388ZM531 244L531 127 829 127 829 244ZM469 99L469 478 479 478C511 478 531 463 531 458L531 417 829 417 829 468 839 468C869 468 894 453 894 449L894 132C914 128 924 123 931 116L858 59 826 99 543 99 469 67ZM197 46C189 104 173 191 153 284L37 284 46 313 147 313C117 450 81 594 54 676 81 684 107 683 119 674L137 606C168 632 201 664 231 698 189 790 127 872 36 936L46 950C148 894 217 823 266 742 296 781 319 822 329 859 390 901 425 798 296 684 347 574 367 449 380 322 400 319 409 317 417 308L345 243 307 284 214 284C231 206 245 136 253 88 278 88 288 79 292 66ZM208 313L314 313C305 432 289 546 251 648 221 627 185 606 143 586 164 502 188 404 208 313Z"/>
</svg>