<svg xmlns="http://www.w3.org/2000/svg"
    viewBox="0 0 1000 1000">
  <!--
© 2017-2023 Adobe (http://www.adobe.com/).
Noto is a trademark of Google Inc.
This Font Software is licensed under the SIL Open Font License, Version 1.1. This Font Software is distributed on an "AS IS" BASIS, WITHOUT WARRANTIES OR CONDITIONS OF ANY KIND, either express or implied. See the SIL Open Font License for the specific language, permissions and limitations governing your use of this Font Software.
http://scripts.sil.org/OFL
  -->
<path d="M681 336L681 376 617 319 582 355 509 355C515 333 520 310 525 287 547 286 557 277 561 264L464 245C448 405 401 548 336 646L352 657C388 622 419 578 445 527 467 553 488 588 495 616 514 631 533 626 542 612 502 733 433 837 314 913L325 928C554 810 615 608 645 391 664 390 674 387 681 379L681 842C681 887 694 904 757 904L825 904C937 905 965 892 965 866 965 853 960 846 940 839L937 720 923 720C915 768 904 823 898 835 894 843 891 845 883 846 874 847 853 847 827 847L769 847C745 847 741 842 741 826L741 365 851 365 851 595C851 607 849 612 836 612 824 612 773 608 773 608L773 623C798 628 813 635 822 644 830 655 833 672 834 689 902 681 910 653 910 603L910 374C928 371 943 363 949 356L873 300 842 336 753 336 681 304ZM454 509C473 470 488 429 501 384L588 384C580 458 568 530 547 596 548 571 526 534 454 509ZM151 13C147 67 137 146 124 231L36 231 44 260 120 260C97 403 69 558 46 643 73 650 99 648 111 638L122 583C149 606 178 633 204 661 169 753 116 835 33 901L44 915C137 857 199 784 241 703 269 738 291 774 302 806 360 841 393 747 267 644 313 528 326 398 334 269 344 268 351 267 357 265 352 275 351 286 357 296 370 316 404 310 420 291 437 273 448 236 446 187L861 187 828 300 842 306C868 279 913 227 936 199 956 198 966 196 974 188L900 116 859 157 698 157 698 56C720 52 728 43 730 30L633 20 633 157 443 157C441 144 439 131 435 117L418 116C420 163 397 220 375 242L367 250 300 192 262 231 182 231C193 159 202 94 208 49 233 46 242 37 244 23ZM178 260L270 260C265 383 254 502 221 611 195 593 163 576 127 560 144 469 162 360 178 260Z"/>
</svg>