<svg xmlns="http://www.w3.org/2000/svg" name="gid4503" data-unicode="婧"
    viewBox="0 0 1000 1000">
  <!--
© 2017-2024 Adobe (http://www.adobe.com/).
Noto is a trademark of Google Inc.
This Font Software is licensed under the SIL Open Font License, Version 1.1. This Font Software is distributed on an "AS IS" BASIS, WITHOUT WARRANTIES OR CONDITIONS OF ANY KIND, either express or implied. See the SIL Open Font License for the specific language, permissions and limitations governing your use of this Font Software.
http://scripts.sil.org/OFL
  -->
<path d="M506 519L626 519 626 682 506 682ZM442 490L442 960 452 960C485 960 506 943 506 938L506 710 816 710 816 860C816 874 812 880 795 880 775 880 684 873 684 873L684 889C724 894 747 902 761 912 773 921 778 938 781 957 869 948 880 917 880 868L880 531C899 527 915 519 921 511L838 450 806 490 519 490 442 457ZM816 519L816 682 685 682 685 519ZM622 45L622 141 407 141 415 171 622 171 622 255 438 255 446 285 622 285 622 378 382 378 390 408 936 408C950 408 960 403 962 392 930 363 878 322 878 322L832 378 687 378 687 285 888 285C902 285 911 280 914 269 885 242 837 204 837 204L796 255 687 255 687 171 916 171C930 171 939 166 942 155 909 125 858 85 858 85L813 141 687 141 687 83C711 79 721 69 723 55ZM197 46C189 104 173 191 153 284L37 284 46 313 147 313C117 450 81 594 54 676 81 684 107 683 119 674L137 606C168 632 201 664 231 698 189 790 127 872 36 936L46 950C148 894 217 823 266 742 296 781 319 822 329 859 390 901 425 798 296 684 347 574 367 449 380 322 400 319 409 317 417 308L345 243 307 284 214 284C231 206 245 136 253 88 278 88 288 79 292 66ZM208 313L314 313C305 432 289 546 251 648 221 627 185 606 143 586 164 502 188 404 208 313Z"/>
</svg>