<svg xmlns="http://www.w3.org/2000/svg" name="gid4507" data-unicode="婷"
    viewBox="0 0 1000 1000">
  <!--
© 2017-2024 Adobe (http://www.adobe.com/).
Noto is a trademark of Google Inc.
This Font Software is licensed under the SIL Open Font License, Version 1.1. This Font Software is distributed on an "AS IS" BASIS, WITHOUT WARRANTIES OR CONDITIONS OF ANY KIND, either express or implied. See the SIL Open Font License for the specific language, permissions and limitations governing your use of this Font Software.
http://scripts.sil.org/OFL
  -->
<path d="M425 646L433 676 639 676 639 864C639 877 634 881 617 881 595 881 490 874 490 874L490 890C537 895 563 903 578 913 591 924 597 941 599 960 691 951 704 916 704 865L704 676 898 676C913 676 922 671 925 660 908 644 884 624 867 610 889 594 922 570 941 553 960 552 970 550 978 543L907 473 868 513 444 513 438 476 422 475C415 531 389 572 358 591 306 660 448 695 446 542L870 542 850 596 841 589 795 646ZM375 158L383 186 944 186C958 186 967 182 970 171 938 140 885 99 885 99L839 158 697 158 697 78C720 75 731 65 732 51L632 41 632 158ZM462 261L462 469 471 469C497 469 525 456 525 450L525 424 808 424 808 459 817 459C837 459 870 445 871 439L871 300C888 297 903 289 908 282L832 225 798 261 530 261 462 231ZM808 395L525 395 525 290 808 290ZM170 42C165 98 152 180 136 268L37 268 46 297 131 297C105 439 71 593 44 677 72 685 97 683 110 674L125 612C154 632 186 657 215 683 177 779 120 866 31 934L42 948C143 886 210 808 255 720 290 755 320 791 335 824 397 856 423 759 280 664 324 553 340 430 351 307 371 304 380 301 387 292L316 228 278 268 196 268C209 194 221 127 228 81 252 80 261 70 264 57ZM190 297L286 297C279 415 266 531 232 636 203 620 169 605 130 591 150 502 172 395 190 297Z"/>
</svg>