<svg xmlns="http://www.w3.org/2000/svg" name="gid4515" data-unicode="媒"
    viewBox="0 0 1000 1000">
  <!--
© 2017-2024 Adobe (http://www.adobe.com/).
Noto is a trademark of Google Inc.
This Font Software is licensed under the SIL Open Font License, Version 1.1. This Font Software is distributed on an "AS IS" BASIS, WITHOUT WARRANTIES OR CONDITIONS OF ANY KIND, either express or implied. See the SIL Open Font License for the specific language, permissions and limitations governing your use of this Font Software.
http://scripts.sil.org/OFL
  -->
<path d="M757 43L757 174 542 174 542 81C567 77 575 68 578 54L479 44 479 174 345 174 353 203 479 203 479 555 491 555C514 555 542 539 542 530L542 489 617 489 617 608 345 608 353 638 578 638C513 745 410 840 283 905L292 921C429 867 539 792 617 694L617 957 627 957C660 957 681 941 681 936L681 646C735 758 823 848 915 901 924 869 945 849 971 844L972 834C876 799 767 727 704 638L933 638C947 638 956 633 959 622 928 591 879 551 879 551L834 608 681 608 681 489 757 489 757 544 770 544C794 544 822 530 822 522L822 203 935 203C949 203 958 198 961 187 934 159 890 120 890 120L851 174 822 174 822 80C846 77 854 67 857 53ZM542 203L757 203 757 314 542 314ZM542 343L757 343 757 460 542 460ZM170 42C165 94 153 170 139 253L37 253 46 282 133 282C107 424 73 580 46 665 74 672 100 670 112 661L127 599C156 619 186 643 215 668 177 765 120 851 31 919L42 933C143 871 210 793 255 705 289 739 318 775 333 807 395 839 421 744 280 649 324 538 340 415 351 292 371 289 380 286 387 277L316 213 278 253 198 253C211 185 221 124 228 81 252 80 261 70 264 57ZM192 282L286 282C279 401 266 516 232 621 204 606 170 591 132 577 152 487 174 379 192 282Z"/>
</svg>