<svg xmlns="http://www.w3.org/2000/svg" name="gid4520" data-unicode="媛"
    viewBox="0 0 1000 1000">
  <!--
© 2017-2024 Adobe (http://www.adobe.com/).
Noto is a trademark of Google Inc.
This Font Software is licensed under the SIL Open Font License, Version 1.1. This Font Software is distributed on an "AS IS" BASIS, WITHOUT WARRANTIES OR CONDITIONS OF ANY KIND, either express or implied. See the SIL Open Font License for the specific language, permissions and limitations governing your use of this Font Software.
http://scripts.sil.org/OFL
  -->
<path d="M586 152L574 157C598 194 624 253 624 301 677 351 742 235 586 152ZM431 173L419 179C445 213 475 267 478 311 533 358 592 244 431 173ZM853 42C741 76 530 120 364 139L367 158C541 152 740 128 871 106 894 116 912 116 921 108ZM818 138C794 199 753 281 716 339L373 339 381 368 534 368C531 405 527 440 522 475L362 475 370 505 516 505C484 680 411 828 265 946L275 958C417 872 500 762 549 627 574 698 609 758 655 806 590 863 508 910 412 943L421 960C529 932 617 891 688 838 748 891 824 930 915 959 924 927 943 908 970 904L970 893C879 875 798 845 731 803 785 754 828 697 859 633 882 631 892 628 900 620L831 558 789 596 559 596C569 567 576 536 583 505L937 505C951 505 961 500 963 489 931 459 879 419 879 419L833 475 589 475C596 441 601 405 605 368L925 368C939 368 948 363 951 352 919 322 868 284 868 284L823 339 744 339C791 292 840 232 872 186 894 187 906 179 910 168ZM689 773C639 733 599 684 572 625L788 625C764 679 731 729 689 773ZM161 43C156 95 146 170 132 253L36 253 44 282 127 282C102 426 69 585 44 670 72 677 98 675 111 665L126 599C154 619 185 643 213 669 176 767 120 853 34 923L45 937C144 875 209 797 253 710 283 743 307 777 319 809 378 842 406 746 278 652 321 540 335 416 345 292 365 289 375 286 381 277L309 213 271 253 191 253C203 184 212 123 218 80 244 78 252 68 255 55ZM186 282L280 282C274 401 261 516 229 621 201 606 169 591 130 577 149 487 169 379 186 282Z"/>
</svg>