<svg xmlns="http://www.w3.org/2000/svg"
    viewBox="0 0 1000 1000">
  <!--
© 2017-2024 Adobe (http://www.adobe.com/).
Noto is a trademark of Google Inc.
This Font Software is licensed under the SIL Open Font License, Version 1.1. This Font Software is distributed on an "AS IS" BASIS, WITHOUT WARRANTIES OR CONDITIONS OF ANY KIND, either express or implied. See the SIL Open Font License for the specific language, permissions and limitations governing your use of this Font Software.
http://scripts.sil.org/OFL
  -->
<path d="M807 228L735 228C748 172 759 112 766 52 787 50 797 40 800 26L700 12C695 170 670 333 629 453L645 461C679 405 706 335 727 258L747 258C745 502 740 737 574 912L590 929C739 800 782 636 797 452 810 650 840 824 910 926 919 887 939 869 970 864L973 853C852 725 819 519 808 258L881 258C875 316 866 398 856 449L872 456C898 405 928 321 945 269 963 267 974 266 981 258L910 189 872 228ZM446 15L446 160 295 160 303 189 446 189 446 291 390 291 333 265 333 572 341 572C364 572 386 560 386 554L386 521 426 521C390 646 331 763 244 854L258 869C340 802 402 722 446 631L446 926 455 926C486 926 506 910 507 906L507 587C546 629 588 688 599 735 657 779 702 654 507 563L507 521 567 521 567 562 575 562C593 562 619 548 620 542L620 325C636 322 648 315 653 310L589 261 560 291 506 291 506 189 641 189C654 189 664 184 666 173 639 145 592 107 592 107L552 160 506 160 506 50C528 46 537 37 539 24ZM567 491L503 491 503 320 567 320ZM386 491L386 320 449 320 449 491ZM147 13C142 67 132 143 120 226L37 226 46 255 115 255C92 399 63 555 39 643 65 649 88 647 100 639L113 578C135 600 158 625 179 651 148 746 103 833 34 905L47 918C123 855 176 779 212 697 230 724 244 750 251 774 303 810 338 729 236 635 277 516 291 387 299 264 319 261 328 258 335 249L267 188 231 226 176 226C187 157 196 95 201 49 227 46 235 37 238 23ZM171 255L239 255C234 371 222 490 194 601 172 586 147 570 117 556 136 464 155 354 171 255Z"/>
</svg>