<svg xmlns="http://www.w3.org/2000/svg"
    viewBox="0 0 1000 1000">
  <!--
© 2017-2023 Adobe (http://www.adobe.com/).
Noto is a trademark of Google Inc.
This Font Software is licensed under the SIL Open Font License, Version 1.1. This Font Software is distributed on an "AS IS" BASIS, WITHOUT WARRANTIES OR CONDITIONS OF ANY KIND, either express or implied. See the SIL Open Font License for the specific language, permissions and limitations governing your use of this Font Software.
http://scripts.sil.org/OFL
  -->
<path d="M590 466L599 495 664 495C664 541 664 583 662 622L596 622 603 652 661 652C654 767 630 851 546 915L560 932C675 868 709 779 720 652L781 652C793 652 802 648 804 638L804 862C804 897 811 914 855 914L886 914C950 914 970 901 970 878 970 865 965 860 948 853L945 766 933 766C927 800 917 842 913 851 910 857 906 857 903 858 899 858 894 858 887 858L871 858C862 858 860 855 860 844L860 506C879 503 890 498 897 491L828 430 795 466ZM804 635C784 613 755 589 755 589L728 622 722 622C724 583 725 541 726 495L804 495ZM264 495L264 578 170 578 170 495ZM113 467L113 603C113 710 108 823 42 919L55 931C123 873 151 797 162 724L264 724 264 834C264 848 260 853 246 853 232 853 168 847 168 847L168 863C198 867 216 874 226 884 235 894 238 912 240 929 312 922 320 892 320 842L320 502C336 499 349 492 355 486L283 433 256 467 181 467 113 435ZM264 607L264 694 166 694C169 663 170 634 170 607ZM444 431C439 456 431 492 420 532L332 532 341 561 412 561C392 631 368 707 349 748 372 756 396 755 408 748L418 720C439 733 458 747 474 761 440 825 390 877 317 911L325 928C409 898 468 851 509 793 528 812 542 830 550 844 598 869 633 800 541 742 567 689 584 630 596 566 616 564 626 561 633 553L564 494 529 532 478 532 495 469C519 468 529 458 533 445ZM469 561L535 561C526 618 513 670 494 718 475 710 453 702 427 695 441 653 456 605 469 561ZM138 90L138 163C138 220 160 226 286 226L527 226C838 226 875 222 875 189 875 178 865 173 834 165L830 164 823 164C813 168 800 171 789 172 782 173 768 175 752 176 722 178 627 178 529 178L282 178C201 178 199 176 199 161L199 120 882 120C895 120 904 115 907 104 876 75 825 37 825 37L781 90 529 90 529 43C552 39 560 30 562 18L465 8 465 90 212 90 138 58ZM746 308L746 374 259 374 259 308ZM196 279L196 440 206 440C231 440 259 426 259 420L259 403 746 403 746 432 755 432C775 432 807 418 808 413L808 316C825 313 838 306 844 299L770 244 737 279 264 279 196 249Z"/>
</svg>