<svg xmlns="http://www.w3.org/2000/svg" name="gid4589" data-unicode="嬾"
    viewBox="0 0 1000 1000">
  <!--
© 2017-2024 Adobe (http://www.adobe.com/).
Noto is a trademark of Google Inc.
This Font Software is licensed under the SIL Open Font License, Version 1.1. This Font Software is distributed on an "AS IS" BASIS, WITHOUT WARRANTIES OR CONDITIONS OF ANY KIND, either express or implied. See the SIL Open Font License for the specific language, permissions and limitations governing your use of this Font Software.
http://scripts.sil.org/OFL
  -->
<path d="M813 780L802 788C843 828 897 895 914 944 977 986 1021 858 813 780ZM715 776C686 830 622 903 561 948L571 962C646 928 719 872 760 828 781 833 789 829 795 819ZM147 43C142 97 132 173 120 256L37 256 46 285 115 285C92 429 63 585 39 673 65 679 88 677 100 669L113 608C135 630 158 655 179 681 148 776 103 863 34 935L47 948C123 885 176 809 212 727 230 754 244 780 251 804 303 840 338 759 236 665 277 546 291 417 299 294 319 291 328 288 335 279L267 218 231 256 176 256C187 187 196 125 201 79 227 76 235 67 238 53ZM171 285L239 285C234 401 222 520 194 631 172 616 147 600 117 586 136 494 155 384 171 285ZM859 390L859 483 713 483 713 390ZM656 361L656 792 666 792C691 792 713 778 713 772L713 749 859 749 859 785 868 785C888 785 917 771 918 764L918 396C934 393 947 387 952 380L883 327 851 361 718 361 656 332ZM859 512L859 600 713 600 713 512ZM859 629L859 720 713 720 713 629ZM439 46L439 187 294 187 302 216 439 216 439 318 387 318 330 292 330 600 338 600C360 600 382 588 382 583L382 552 423 552C390 678 332 796 246 887L259 902C337 838 396 762 439 675L439 959 448 959C480 959 500 944 500 938L500 621C536 661 574 719 584 766 641 810 688 687 500 598L500 552 557 552 557 590 565 590C582 590 609 577 610 571L610 352C625 349 637 342 642 336L640 334C720 289 768 223 789 127L874 127C869 209 861 248 850 259 844 263 837 265 825 265 811 265 777 263 756 261L756 278C774 281 793 287 801 295 811 303 813 318 813 333 840 333 864 326 883 313 912 292 924 243 929 132 948 130 960 125 966 118L898 64 866 98 620 98 629 127 725 127C714 205 685 269 622 321L578 288 549 318 500 318 500 216 631 216C644 216 654 211 656 200 628 172 582 134 582 134L542 187 500 187 500 81C522 77 530 68 532 55ZM557 522L497 522 497 347 557 347ZM382 522L382 347 443 347 443 522Z"/>
</svg>