<svg xmlns="http://www.w3.org/2000/svg" name="gid4591" data-unicode="孁"
    viewBox="0 0 1000 1000">
  <!--
© 2017-2024 Adobe (http://www.adobe.com/).
Noto is a trademark of Google Inc.
This Font Software is licensed under the SIL Open Font License, Version 1.1. This Font Software is distributed on an "AS IS" BASIS, WITHOUT WARRANTIES OR CONDITIONS OF ANY KIND, either express or implied. See the SIL Open Font License for the specific language, permissions and limitations governing your use of this Font Software.
http://scripts.sil.org/OFL
  -->
<path d="M186 277L194 307 390 307C403 307 413 302 415 291 390 267 354 241 354 241L322 277ZM169 358L177 387 395 387C409 387 418 382 421 372 396 348 358 321 358 321L326 358ZM581 277L589 307 794 307C807 307 817 302 819 291 794 267 757 240 757 240L723 277ZM579 358L587 387 819 387C831 387 840 382 842 372 818 348 778 319 778 319L744 358ZM127 442L127 624 135 624C158 624 182 611 182 606L182 578 274 578 274 610 282 610C301 610 329 596 330 590L330 476C344 474 358 466 362 460L297 410 266 442 186 442 127 415ZM274 549L182 549 182 471 274 471ZM38 674L47 704 305 704C265 752 220 800 188 830 208 846 234 852 252 850L291 810C366 820 435 832 498 845 390 896 242 922 59 940L62 959C295 947 459 922 576 863 682 889 768 919 834 952 907 987 977 888 638 825 682 793 717 753 745 704L936 704C950 704 960 699 963 688 929 659 877 621 877 621L831 674 410 674 443 633C468 636 480 628 486 615L443 602C446 601 447 599 447 598L447 578 543 578 543 609 551 609C569 609 598 595 599 589L599 476C613 474 627 466 631 460L565 410 535 442 451 442 392 415 392 592C378 613 355 642 330 674ZM543 549L447 549 447 471 543 471ZM662 442L662 619 670 619C693 619 718 606 718 601L718 578 815 578 815 612 823 612C842 612 870 599 871 592L871 477C887 474 900 467 905 461L837 410 807 442 722 442 662 414ZM815 549L718 549 718 471 815 471ZM134 100L143 129 465 129 465 192 149 192C147 182 144 172 140 161L122 162C128 207 103 250 70 265 50 275 36 293 44 313 53 335 85 336 107 324 133 310 156 275 153 222L465 222 465 402 475 402C507 402 529 388 529 384L529 222 861 222C852 251 841 285 832 307L845 314C874 294 910 258 930 232 949 231 961 230 967 222L896 153 858 192 529 192 529 129 845 129C859 129 869 124 871 114 838 84 786 46 786 46L742 100ZM385 704L663 704C637 748 602 783 558 812 489 802 408 794 311 788Z"/>
</svg>