<svg xmlns="http://www.w3.org/2000/svg" name="gid4595" data-unicode="孌"
    viewBox="0 0 1000 1000">
  <!--
© 2017-2024 Adobe (http://www.adobe.com/).
Noto is a trademark of Google Inc.
This Font Software is licensed under the SIL Open Font License, Version 1.1. This Font Software is distributed on an "AS IS" BASIS, WITHOUT WARRANTIES OR CONDITIONS OF ANY KIND, either express or implied. See the SIL Open Font License for the specific language, permissions and limitations governing your use of this Font Software.
http://scripts.sil.org/OFL
  -->
<path d="M271 397L258 403C277 436 297 488 297 528 341 571 397 477 271 397ZM365 87L372 117 590 117C604 117 613 112 615 101 589 77 548 47 548 47L512 87ZM371 244L379 273 594 273C608 273 616 268 619 257 594 234 557 207 557 207L524 244ZM371 322L379 351 594 351C608 351 616 346 619 335 594 312 557 285 557 285L524 322ZM336 166L344 194 630 194C644 194 653 189 655 179 628 154 586 123 586 123L549 166ZM101 397C91 459 73 523 53 567L70 576C100 541 128 489 147 439 168 439 177 429 181 417ZM838 394L826 401C851 435 881 491 885 534 933 577 986 474 838 394ZM677 396C665 457 644 520 623 563L639 572C671 539 700 488 721 438 741 439 751 430 755 418ZM189 42C173 81 150 130 129 168 113 159 92 152 67 147L57 156C89 178 126 220 135 253 175 279 206 224 151 182 182 155 213 120 235 91 253 92 265 86 269 75ZM50 320L80 387C90 385 98 381 104 368L183 355 183 595 192 595C220 595 239 582 239 579L239 345 291 335C298 350 303 365 304 379 353 419 402 317 254 255L242 263C255 276 269 295 280 315L173 318C218 276 264 225 294 184 314 186 328 180 333 169L252 135C225 191 181 264 140 319ZM43 646L52 676 334 676C286 732 233 790 194 825 214 841 241 848 260 845L305 797C372 807 434 818 491 830 381 886 234 916 50 937L54 956C286 941 449 912 567 848 685 877 778 911 847 949 924 988 997 875 626 809 673 774 711 730 742 676L930 676C944 676 953 671 956 660 923 630 870 589 870 589L824 646 439 646 476 600C501 603 513 595 518 583L434 558 434 541 546 541 546 565 554 565C571 565 599 552 600 546L600 438C615 436 628 428 633 422L567 373 538 404 438 404 379 376 379 575 387 575C398 575 410 572 419 568 404 590 383 617 359 646ZM434 512L434 433 546 433 546 512ZM768 43C753 81 728 129 707 166 691 157 671 150 645 144L635 152C666 176 702 218 712 252 751 277 783 224 730 181 760 155 792 121 815 94 834 96 845 88 850 78ZM624 319L653 386C663 385 671 380 677 367L757 355 757 598 765 598C794 598 814 584 814 580L814 345 875 334C885 352 892 370 894 386 945 425 991 319 836 260L825 267C838 280 851 296 863 313L751 317C800 275 849 225 882 185 902 188 916 183 923 172L843 134C811 190 761 262 714 318ZM413 676L660 676C632 725 594 764 547 797 483 788 410 781 325 776Z"/>
</svg>