<svg xmlns="http://www.w3.org/2000/svg" name="gid4598" data-unicode="孒"
    viewBox="0 0 1000 1000">
  <!--
© 2017-2024 Adobe (http://www.adobe.com/).
Noto is a trademark of Google Inc.
This Font Software is licensed under the SIL Open Font License, Version 1.1. This Font Software is distributed on an "AS IS" BASIS, WITHOUT WARRANTIES OR CONDITIONS OF ANY KIND, either express or implied. See the SIL Open Font License for the specific language, permissions and limitations governing your use of this Font Software.
http://scripts.sil.org/OFL
  -->
<path d="M139 128L148 158 717 158C664 215 579 290 504 338L441 331 441 853C441 870 434 877 411 877 384 877 236 867 236 867L236 882C297 890 332 898 353 910 371 921 378 937 383 959 496 948 509 912 509 858L509 518 938 518C952 518 962 514 964 503 928 469 867 423 867 423L813 489 509 489 509 368C532 365 541 356 544 342L525 340C629 296 743 222 817 167 839 166 851 164 860 156L780 84 733 128Z"/>
</svg>