<svg xmlns="http://www.w3.org/2000/svg"
    viewBox="0 0 1000 1000">
  <!--
© 2017-2024 Adobe (http://www.adobe.com/).
Noto is a trademark of Google Inc.
This Font Software is licensed under the SIL Open Font License, Version 1.1. This Font Software is distributed on an "AS IS" BASIS, WITHOUT WARRANTIES OR CONDITIONS OF ANY KIND, either express or implied. See the SIL Open Font License for the specific language, permissions and limitations governing your use of this Font Software.
http://scripts.sil.org/OFL
  -->
<path d="M789 275C684 483 534 612 348 706L357 723C564 642 722 523 841 331 865 336 874 333 881 321ZM415 312L405 321C456 357 517 423 535 478 588 510 624 432 540 367 585 335 631 288 668 239 689 242 702 234 707 224L630 190 939 190C953 190 964 185 966 174 933 144 879 101 879 101L831 161 682 161 682 55C707 52 716 42 718 28L617 18 617 161 359 161 367 190 603 190C579 251 548 311 519 353 493 337 459 323 415 312ZM852 467C724 690 549 815 336 906L343 923C489 875 616 813 726 722 790 771 871 851 897 913 974 956 1009 800 741 709 800 658 854 597 902 525 927 530 937 527 944 517ZM32 488L70 577C80 573 89 563 93 552L196 505 196 825C196 839 191 844 175 844 158 844 73 838 73 838L73 853C111 859 132 866 146 877 158 888 161 905 164 926 249 917 260 884 260 830L260 474 420 395 416 381 260 427 260 264C284 261 293 252 296 238L262 234C310 196 362 144 396 111 416 110 429 109 436 102L360 30 315 74 47 74 56 102 311 102C290 140 260 191 233 231L196 227 196 446C124 466 65 482 32 488Z"/>
</svg>