<svg xmlns="http://www.w3.org/2000/svg" name="gid4619" data-unicode="孰"
    viewBox="0 0 1000 1000">
  <!--
© 2017-2024 Adobe (http://www.adobe.com/).
Noto is a trademark of Google Inc.
This Font Software is licensed under the SIL Open Font License, Version 1.1. This Font Software is distributed on an "AS IS" BASIS, WITHOUT WARRANTIES OR CONDITIONS OF ANY KIND, either express or implied. See the SIL Open Font License for the specific language, permissions and limitations governing your use of this Font Software.
http://scripts.sil.org/OFL
  -->
<path d="M601 51L601 245 501 245 510 274 601 274C600 346 598 414 592 478 567 464 538 451 504 438L494 446C523 469 556 498 587 529 564 696 510 833 376 940L390 958C538 861 606 736 637 584 662 614 682 643 693 670 753 702 782 609 649 513 658 439 662 359 663 274L766 274 766 886C766 928 775 947 828 947L869 947C948 947 972 932 972 906 972 894 970 887 950 878L947 681 933 681C923 754 910 852 904 871 901 882 897 884 892 884 889 885 880 885 868 885L844 885C831 885 830 880 830 866L830 287C851 284 863 278 870 270L794 203 757 245 664 245 665 89C689 86 698 76 701 62ZM247 43L247 163 40 163 48 191 506 191C520 191 529 186 532 176 500 145 447 104 447 104L401 163 311 163 311 77C332 73 341 64 342 52ZM106 261L106 470 115 470C141 470 169 457 169 451L169 430 387 430 387 463 396 463C417 463 449 450 450 445L450 301C467 297 482 289 488 282L412 226 378 261 174 261 106 233ZM387 401L169 401 169 291 387 291ZM240 600L240 687C152 700 79 711 37 715L71 796C81 794 90 785 95 774L240 736 240 860C240 874 236 879 221 879 203 879 114 872 114 872L114 888C154 893 175 900 188 910 201 921 205 938 208 957 294 949 304 917 304 864L304 718C379 697 443 679 495 663L492 647 304 677 304 635C326 632 335 625 338 611L330 610C375 592 426 569 456 552 477 551 489 549 497 543L424 472 381 513 65 513 74 542 364 542C341 563 313 587 291 606Z"/>
</svg>