<svg xmlns="http://www.w3.org/2000/svg" name="gid4624" data-unicode="學"
    viewBox="0 0 1000 1000">
  <!--
© 2017-2024 Adobe (http://www.adobe.com/).
Noto is a trademark of Google Inc.
This Font Software is licensed under the SIL Open Font License, Version 1.1. This Font Software is distributed on an "AS IS" BASIS, WITHOUT WARRANTIES OR CONDITIONS OF ANY KIND, either express or implied. See the SIL Open Font License for the specific language, permissions and limitations governing your use of this Font Software.
http://scripts.sil.org/OFL
  -->
<path d="M128 368C126 432 91 475 67 488 8 522 48 582 102 553 137 535 155 495 154 441L839 441C827 470 812 506 801 527L814 534C846 514 894 477 920 451 939 451 950 450 958 443L881 369 839 411 813 411 832 130C849 128 858 126 864 119L795 59 762 96 629 96 638 125 770 125 765 201 636 201 645 230 763 230 757 307 635 307 644 336 755 336 750 411 246 411 243 336 372 336C384 336 393 331 396 320 372 296 336 266 336 266L303 307 242 307 239 230 366 230C378 230 387 225 390 214 368 191 331 163 331 163L300 201 237 201 234 127C286 118 339 105 372 95 385 100 395 99 399 93L334 41C313 55 278 78 243 96L171 76 184 411 152 411C150 397 147 383 143 368ZM547 50C536 69 522 89 505 108 485 100 460 92 430 86L421 97C440 106 461 120 481 135 454 163 424 189 394 209L405 224C441 208 479 186 512 162 528 177 541 192 550 205 586 221 605 174 548 132 563 119 575 106 585 93 602 98 613 96 618 86ZM563 220C552 240 537 261 519 281 496 270 468 260 433 252L424 263C446 275 470 291 491 310 461 339 427 365 393 386L404 402C443 386 485 363 520 338 536 354 549 372 556 388 596 408 616 356 559 307 576 292 591 277 602 262 619 267 630 265 635 255ZM233 527L241 556 641 556C610 580 570 608 533 630L469 623 469 696 57 696 66 725 469 725 469 858C469 873 464 878 446 878 425 878 315 871 315 871L315 886C362 893 389 900 404 911 419 922 425 939 427 960 522 951 534 917 534 863L534 725 915 725C929 725 938 720 941 710 908 678 853 635 853 635L806 696 534 696 534 658C556 654 565 647 568 634L566 634C628 614 695 586 741 564 762 563 774 561 782 554L706 485 663 527Z"/>
</svg>