<svg xmlns="http://www.w3.org/2000/svg" name="gid4639" data-unicode="安"
    viewBox="0 0 1000 1000">
  <!--
© 2017-2024 Adobe (http://www.adobe.com/).
Noto is a trademark of Google Inc.
This Font Software is licensed under the SIL Open Font License, Version 1.1. This Font Software is distributed on an "AS IS" BASIS, WITHOUT WARRANTIES OR CONDITIONS OF ANY KIND, either express or implied. See the SIL Open Font License for the specific language, permissions and limitations governing your use of this Font Software.
http://scripts.sil.org/OFL
  -->
<path d="M658 460C636 566 599 651 540 718 475 701 399 684 311 670 342 604 377 529 408 460ZM421 247C407 292 381 359 351 431L47 431 55 460 339 460C290 572 233 691 193 759 220 770 248 772 264 764L301 689C374 709 442 732 503 756 404 847 255 903 37 938L41 956C295 930 458 877 565 782 690 839 785 902 837 953 916 985 940 847 608 739 669 667 708 575 734 460L928 460C942 460 952 455 954 444 920 412 864 369 864 369L815 431 420 431C445 375 466 324 479 289 505 289 514 279 518 266ZM155 130C161 198 125 260 85 282 64 295 51 315 60 337 72 361 109 360 134 341 161 322 187 280 187 216L839 216C826 254 807 302 792 333L804 340C842 312 892 263 919 229 939 228 950 225 957 218L881 143 837 187 532 187 532 77C557 74 567 64 569 50L466 40 466 187 185 187C183 169 178 150 172 130Z"/>
</svg>