<svg xmlns="http://www.w3.org/2000/svg" name="gid4653" data-unicode="官"
    viewBox="0 0 1000 1000">
  <!--
© 2017-2024 Adobe (http://www.adobe.com/).
Noto is a trademark of Google Inc.
This Font Software is licensed under the SIL Open Font License, Version 1.1. This Font Software is distributed on an "AS IS" BASIS, WITHOUT WARRANTIES OR CONDITIONS OF ANY KIND, either express or implied. See the SIL Open Font License for the specific language, permissions and limitations governing your use of this Font Software.
http://scripts.sil.org/OFL
  -->
<path d="M234 321L234 960 245 960C275 960 300 943 300 935L300 890 744 890 744 953 753 953C775 953 808 938 809 931L809 693C828 689 843 681 850 674L770 612 734 652 300 652 300 535 697 535 697 580 707 580C728 580 762 566 763 560L763 360C779 357 794 349 800 342L723 284 688 321 305 321 234 287ZM300 507L300 350 697 350 697 507ZM300 681L744 681 744 860 300 860ZM156 115C160 188 122 254 81 279 60 293 48 314 57 335 70 358 107 355 131 335 159 314 185 271 186 206L847 206C836 246 821 298 809 331L821 338C856 307 900 254 924 218 944 217 955 215 963 208L886 133 843 177 532 177 532 79C557 76 567 66 569 52L466 42 466 177 185 177C183 158 180 137 173 115Z"/>
</svg>