<svg xmlns="http://www.w3.org/2000/svg" name="gid4654" data-unicode="宙"
    viewBox="0 0 1000 1000">
  <!--
© 2017-2024 Adobe (http://www.adobe.com/).
Noto is a trademark of Google Inc.
This Font Software is licensed under the SIL Open Font License, Version 1.1. This Font Software is distributed on an "AS IS" BASIS, WITHOUT WARRANTIES OR CONDITIONS OF ANY KIND, either express or implied. See the SIL Open Font License for the specific language, permissions and limitations governing your use of this Font Software.
http://scripts.sil.org/OFL
  -->
<path d="M466 659L466 855 247 855 247 659ZM532 659L756 659 756 855 532 855ZM466 631L247 631 247 454 466 454ZM532 631L532 454 756 454 756 631ZM182 426L182 956 193 956C221 956 247 941 247 934L247 884 756 884 756 949 766 949C788 949 821 933 822 927L822 467C841 463 858 455 864 448L783 384 747 426 532 426 532 302C556 298 565 289 567 275L466 263 466 426 252 426 182 393ZM152 134C156 199 120 260 80 282 60 296 46 315 56 337 67 360 105 359 128 340 155 321 181 279 182 216L840 216C828 253 809 300 795 330L807 338C844 310 893 262 919 229 939 228 950 225 957 218L881 143 837 187 532 187 532 77C557 74 567 64 569 50L466 40 466 187 180 187C178 170 175 152 169 133Z"/>
</svg>