<svg xmlns="http://www.w3.org/2000/svg" name="gid4655" data-unicode="定"
    viewBox="0 0 1000 1000">
  <!--
© 2017-2024 Adobe (http://www.adobe.com/).
Noto is a trademark of Google Inc.
This Font Software is licensed under the SIL Open Font License, Version 1.1. This Font Software is distributed on an "AS IS" BASIS, WITHOUT WARRANTIES OR CONDITIONS OF ANY KIND, either express or implied. See the SIL Open Font License for the specific language, permissions and limitations governing your use of this Font Software.
http://scripts.sil.org/OFL
  -->
<path d="M248 499C227 657 168 838 33 947L43 958C153 893 222 798 265 697 346 895 473 938 705 938 760 938 876 938 924 938 926 910 940 890 965 885L965 870C901 872 769 872 710 872 642 872 583 869 532 861L532 614 819 614C833 614 843 609 846 598 812 568 759 526 759 526L712 585 532 585 532 391 820 391C833 391 843 386 846 376 812 346 758 307 758 307L711 362 153 362 161 391 466 391 466 846C381 820 320 768 276 672 292 629 305 585 314 543 335 542 347 535 351 521ZM156 130C162 203 122 268 78 292 57 304 43 325 53 347 65 370 102 369 127 350 157 329 187 283 186 213L839 213C826 250 806 298 790 328L803 336C841 308 892 259 919 226 939 224 950 223 958 215L881 141 837 185 532 185 532 75C557 72 567 62 569 49L466 38 466 185 185 185C183 168 179 149 173 129Z"/>
</svg>