<svg xmlns="http://www.w3.org/2000/svg" name="gid4674" data-unicode="害"
    viewBox="0 0 1000 1000">
  <!--
© 2017-2024 Adobe (http://www.adobe.com/).
Noto is a trademark of Google Inc.
This Font Software is licensed under the SIL Open Font License, Version 1.1. This Font Software is distributed on an "AS IS" BASIS, WITHOUT WARRANTIES OR CONDITIONS OF ANY KIND, either express or implied. See the SIL Open Font License for the specific language, permissions and limitations governing your use of this Font Software.
http://scripts.sil.org/OFL
  -->
<path d="M216 660L216 957 226 957C252 957 280 942 280 936L280 893 733 893 733 955 743 955C763 955 796 940 797 934L797 702C818 698 834 689 840 681L759 620 723 660 286 660 216 629ZM280 864L280 689 733 689 733 864ZM157 111C159 175 120 234 81 255 61 268 48 288 57 308 69 331 105 329 128 312 155 293 182 251 184 190L827 190C815 219 800 255 786 281L752 254 710 305 532 305 532 255C552 251 560 244 562 231L466 221 466 305 177 305 185 334 466 334 466 426 163 426 170 455 466 455 466 549 46 549 55 578 929 578C943 578 953 573 956 562 923 533 873 495 873 495L828 549 532 549 532 455 832 455C846 455 855 450 858 439 827 411 779 375 779 375L737 426 532 426 532 334 805 334C818 334 828 329 830 318L801 294C839 269 888 232 915 203 936 202 946 200 954 193L872 114 826 161 532 161 532 78C557 74 567 64 569 50L466 41 466 161 183 161C182 145 179 129 174 111Z"/>
</svg>