<svg xmlns="http://www.w3.org/2000/svg" name="gid4677" data-unicode="家"
    viewBox="0 0 1000 1000">
  <!--
© 2017-2024 Adobe (http://www.adobe.com/).
Noto is a trademark of Google Inc.
This Font Software is licensed under the SIL Open Font License, Version 1.1. This Font Software is distributed on an "AS IS" BASIS, WITHOUT WARRANTIES OR CONDITIONS OF ANY KIND, either express or implied. See the SIL Open Font License for the specific language, permissions and limitations governing your use of this Font Software.
http://scripts.sil.org/OFL
  -->
<path d="M155 106C158 177 117 243 76 268 56 281 43 303 52 323 65 346 101 343 126 323 154 303 181 259 184 195L832 195C817 226 797 264 781 290L743 259 698 315 184 315 192 345 424 345C337 419 213 489 86 537L95 554C202 525 307 484 395 434 410 449 423 466 435 483 350 570 203 660 73 710L80 726C217 687 370 615 470 543 479 562 487 581 493 600 394 720 209 830 37 887L44 904C217 861 396 777 513 682 526 767 514 841 487 873 481 882 472 883 458 883 434 883 363 879 322 876L322 892C359 897 394 907 407 916 420 926 427 939 428 959 485 960 519 948 540 925 615 843 609 576 413 424 453 400 490 373 522 345L543 345C590 603 706 783 887 891 901 860 926 840 957 838L960 829C840 776 738 691 665 578 745 541 829 490 878 450 899 455 908 452 914 443L828 387C790 436 719 507 653 559 614 496 584 424 565 345L801 345C815 345 825 340 827 329L794 301C833 277 886 237 915 206 934 205 946 204 954 196L877 122 834 166 532 166 532 81C557 78 567 68 569 54L466 44 466 166 183 166C182 147 178 127 172 106Z"/>
</svg>