<svg xmlns="http://www.w3.org/2000/svg" name="gid4679" data-unicode="宸"
    viewBox="0 0 1000 1000">
  <!--
© 2017-2024 Adobe (http://www.adobe.com/).
Noto is a trademark of Google Inc.
This Font Software is licensed under the SIL Open Font License, Version 1.1. This Font Software is distributed on an "AS IS" BASIS, WITHOUT WARRANTIES OR CONDITIONS OF ANY KIND, either express or implied. See the SIL Open Font License for the specific language, permissions and limitations governing your use of this Font Software.
http://scripts.sil.org/OFL
  -->
<path d="M288 440L296 468 805 468C818 468 828 463 830 452 800 424 751 385 751 385L706 440ZM192 879L238 959C246 957 254 949 259 936 420 885 536 843 619 813L616 797 403 841 403 603 507 603C575 788 712 896 903 958 912 927 933 907 961 903L962 893C847 867 744 825 662 762 723 735 788 700 829 675 849 682 859 679 866 669L785 614C754 649 694 704 642 746 595 706 557 658 529 603L910 603C925 603 935 598 937 587 905 558 855 519 855 519L811 574 243 574C247 535 248 498 248 464L248 338 832 338C846 338 856 333 858 322 827 294 777 257 777 257L735 309 260 309 184 276 184 465C184 619 165 786 40 923L54 935C177 842 223 718 239 603L340 603 340 853C277 865 225 875 192 879ZM168 108C166 171 126 228 88 249 68 262 54 283 63 304 75 326 110 324 135 307 162 287 189 247 192 186L842 186C832 216 817 252 806 274L819 282C852 261 894 226 919 198 938 197 950 195 957 188L881 115 839 158 532 158 532 81C557 78 567 68 569 54L466 44 466 158 192 158C191 142 189 126 185 108Z"/>
</svg>