<svg xmlns="http://www.w3.org/2000/svg"
    viewBox="0 0 1000 1000">
  <!--
© 2017-2024 Adobe (http://www.adobe.com/).
Noto is a trademark of Google Inc.
This Font Software is licensed under the SIL Open Font License, Version 1.1. This Font Software is distributed on an "AS IS" BASIS, WITHOUT WARRANTIES OR CONDITIONS OF ANY KIND, either express or implied. See the SIL Open Font License for the specific language, permissions and limitations governing your use of this Font Software.
http://scripts.sil.org/OFL
  -->
<path d="M471 659L793 659 793 827 471 827ZM471 629L471 474 793 474 793 629ZM342 293L350 322 581 322C575 359 566 406 557 445L476 445 407 412 407 928 418 928C445 928 471 912 471 905L471 857 793 857 793 924 803 924C825 924 857 908 858 901L858 486C878 482 894 475 901 467L820 404 783 445 599 445C620 408 643 361 661 322L923 322C936 322 947 317 949 306 916 279 866 243 866 243L822 293ZM272 213C215 363 122 503 36 588L49 599C95 568 140 528 182 481L182 928 194 928C219 928 246 912 247 907L247 440C263 437 273 431 276 422L241 409C273 366 302 318 328 268 350 271 363 262 368 252ZM157 78C159 149 117 208 72 231 51 243 36 264 46 285 57 310 95 309 121 291 152 272 184 227 185 157L824 157C806 190 780 231 760 256L773 264C816 241 875 201 907 169 926 168 938 166 946 159L870 85 827 129 530 129 530 41C554 37 565 27 566 14L463 3 463 129 183 129C181 113 178 96 173 78Z"/>
</svg>