<svg xmlns="http://www.w3.org/2000/svg"
    viewBox="0 0 1000 1000">
  <!--
© 2017-2024 Adobe (http://www.adobe.com/).
Noto is a trademark of Google Inc.
This Font Software is licensed under the SIL Open Font License, Version 1.1. This Font Software is distributed on an "AS IS" BASIS, WITHOUT WARRANTIES OR CONDITIONS OF ANY KIND, either express or implied. See the SIL Open Font License for the specific language, permissions and limitations governing your use of this Font Software.
http://scripts.sil.org/OFL
  -->
<path d="M428 293L416 299C446 338 480 399 483 447 541 497 602 372 428 293ZM658 274L648 284C704 328 780 405 806 464 881 505 915 352 658 274ZM160 79C161 145 120 204 77 224 57 237 43 257 52 278 64 301 101 299 125 283 154 263 183 222 186 160L842 160C830 197 812 243 798 273L811 281C848 253 896 206 922 172 942 171 953 169 960 161L883 87 840 131 532 131 532 50C557 47 567 37 569 23L466 13 466 131 186 131C185 115 182 98 177 79ZM265 237C229 343 170 444 114 506L128 517C199 468 267 391 318 299 453 288 597 264 694 240 717 249 734 249 743 241L670 175C597 207 467 246 346 271ZM464 468L464 568 42 568 51 598 394 598C312 706 182 805 35 871L43 887C217 830 365 741 464 626L464 927 477 927C501 927 529 912 529 904L529 598 534 598C615 730 754 831 903 883 910 851 935 829 964 824L964 813C818 779 655 699 561 598L933 598C947 598 957 593 960 582 924 549 868 506 868 506L819 568 529 568 529 505C554 502 563 492 565 479Z"/>
</svg>