<svg xmlns="http://www.w3.org/2000/svg"
    viewBox="0 0 1000 1000">
  <!--
© 2017-2023 Adobe (http://www.adobe.com/).
Noto is a trademark of Google Inc.
This Font Software is licensed under the SIL Open Font License, Version 1.1. This Font Software is distributed on an "AS IS" BASIS, WITHOUT WARRANTIES OR CONDITIONS OF ANY KIND, either express or implied. See the SIL Open Font License for the specific language, permissions and limitations governing your use of this Font Software.
http://scripts.sil.org/OFL
  -->
<path d="M393 179L385 189C432 213 488 260 505 301 580 336 609 188 393 179ZM745 298L735 307C793 349 860 423 876 485 949 536 993 372 745 298ZM217 287C210 352 155 398 109 414 88 425 73 442 81 462 90 485 124 485 152 471 196 451 252 392 234 287ZM771 635L771 832 533 832 533 617C556 614 564 605 566 592L468 582 468 832 233 832 233 673C258 669 267 660 270 645L168 635 168 929 180 929C205 929 233 915 233 908L233 862 771 862 771 918 784 918C809 918 837 905 837 898L837 673C862 669 872 660 874 645ZM682 195C614 290 505 381 373 455L373 281C391 278 401 269 402 257L312 247 312 485 312 487C226 530 133 566 36 592L42 608C141 589 234 560 320 525 332 543 359 549 417 549L552 549C739 549 771 539 771 509 771 497 765 490 742 483L740 379 726 379C717 425 706 467 698 480 694 488 689 491 676 492 659 493 613 493 554 493L424 493 395 492C533 425 647 341 719 252 742 260 752 258 760 248ZM161 70C164 136 126 193 84 213 64 224 50 245 59 266 70 289 105 289 131 272 160 253 188 213 189 151L839 151C824 185 804 228 788 255L801 264C839 238 891 195 918 163 938 162 949 160 957 154L881 79 839 123 532 123 532 51C556 47 567 37 568 23L465 13 465 123 188 123C186 107 183 89 177 70Z"/>
</svg>