<svg xmlns="http://www.w3.org/2000/svg" name="gid4703" data-unicode="寘"
    viewBox="0 0 1000 1000">
  <!--
© 2017-2024 Adobe (http://www.adobe.com/).
Noto is a trademark of Google Inc.
This Font Software is licensed under the SIL Open Font License, Version 1.1. This Font Software is distributed on an "AS IS" BASIS, WITHOUT WARRANTIES OR CONDITIONS OF ANY KIND, either express or implied. See the SIL Open Font License for the specific language, permissions and limitations governing your use of this Font Software.
http://scripts.sil.org/OFL
  -->
<path d="M385 796C316 847 175 910 48 941L54 957C190 943 337 902 423 861 447 867 463 866 471 856ZM597 815L593 831C719 862 813 906 866 946 944 998 1062 850 597 815ZM261 181L261 293C261 358 278 369 381 369L691 369C791 369 820 356 820 332 820 322 815 320 786 311L785 258 771 258C760 291 754 309 746 316 738 322 723 322 696 322L381 322C325 322 322 321 322 295L322 281C459 278 612 263 713 247 734 256 752 256 760 249L693 185C609 212 454 244 322 259L322 215C341 212 351 203 353 192ZM702 535L702 592 381 592 381 535ZM702 506L381 506 381 449 702 449ZM702 622L702 682 381 682 381 622ZM318 419L318 751 327 751C353 751 381 736 381 730L381 711 702 711 702 738 712 738C733 738 765 722 766 716L766 458C783 455 798 447 804 440L728 382 693 419 386 419 318 388ZM158 86C164 153 128 214 88 236 67 248 54 267 64 288 74 311 109 308 133 291 162 271 189 228 188 163L834 163C824 192 810 227 799 249L812 256C843 236 886 200 909 175 929 174 940 171 947 164L873 93 832 134 531 134 531 77C556 74 566 64 568 50L465 40 465 134 186 134C184 119 180 102 175 85ZM154 398L154 842 166 842C189 842 217 828 217 821L217 794 902 794C915 794 924 789 927 778 895 748 843 704 843 704L796 765 217 765 217 434C240 431 249 421 250 409Z"/>
</svg>