<svg xmlns="http://www.w3.org/2000/svg" name="gid4727" data-unicode="寵"
    viewBox="0 0 1000 1000">
  <!--
© 2017-2024 Adobe (http://www.adobe.com/).
Noto is a trademark of Google Inc.
This Font Software is licensed under the SIL Open Font License, Version 1.1. This Font Software is distributed on an "AS IS" BASIS, WITHOUT WARRANTIES OR CONDITIONS OF ANY KIND, either express or implied. See the SIL Open Font License for the specific language, permissions and limitations governing your use of this Font Software.
http://scripts.sil.org/OFL
  -->
<path d="M363 333C354 373 338 426 324 466L221 466C258 462 280 387 177 332L500 332C513 332 522 327 525 316 496 290 449 255 449 255L408 304 321 304 321 247C345 245 356 235 358 222L259 211 259 304 89 304 97 332 161 332 159 333C177 364 194 413 191 453 198 461 206 465 214 466L61 466 69 496 511 496C524 496 534 491 536 480 506 452 460 419 460 419L419 466 352 466C377 436 403 403 420 375 442 375 453 365 456 353ZM559 508L559 879C559 930 575 945 656 945L769 945C932 945 964 935 964 906 964 894 958 888 935 880L932 796 921 796C910 833 900 868 893 878 889 885 883 887 872 888 858 889 820 889 772 889L666 889C626 889 621 884 621 866L621 815 877 815C891 815 900 810 902 799 875 775 832 748 832 748L797 786 621 786 621 722 861 722C874 722 884 717 886 706 859 683 819 656 819 656L783 693 621 693 621 630 862 630C875 630 884 625 887 614 860 591 820 565 820 565L784 601 621 601 621 537 820 537 820 563 830 563C851 563 882 549 883 542L883 439C898 436 911 429 916 423L845 369 813 403 622 403 622 333 901 333C914 333 923 328 926 317 897 291 850 258 850 258L810 304 622 304 622 248C647 244 655 235 658 221L559 211 559 453 570 453C594 453 622 440 622 432L820 432 820 508 633 508 559 475ZM390 693L390 770 195 770 195 693ZM390 664L195 664 195 591 390 591ZM134 562L134 958 144 958C170 958 195 944 195 937L195 798 390 798 390 867C390 879 386 884 371 884 354 884 289 880 289 880L289 895C320 899 338 906 350 916 359 925 362 941 364 958 442 951 452 921 452 872L452 603C472 600 489 591 495 583L412 522 380 562 200 562 134 531ZM142 86C145 135 119 186 90 205 71 218 59 238 68 257 79 278 111 275 132 259 152 243 168 211 170 166L848 166C836 195 820 230 808 252L821 259C855 239 899 203 924 177 943 176 955 174 961 166L888 95 848 136 531 136 531 78C556 74 566 64 568 50L465 41 465 136 170 136C168 120 165 104 160 86Z"/>
</svg>