<svg xmlns="http://www.w3.org/2000/svg" name="gid4739" data-unicode="将"
    viewBox="0 0 1000 1000">
  <!--
© 2017-2024 Adobe (http://www.adobe.com/).
Noto is a trademark of Google Inc.
This Font Software is licensed under the SIL Open Font License, Version 1.1. This Font Software is distributed on an "AS IS" BASIS, WITHOUT WARRANTIES OR CONDITIONS OF ANY KIND, either express or implied. See the SIL Open Font License for the specific language, permissions and limitations governing your use of this Font Software.
http://scripts.sil.org/OFL
  -->
<path d="M382 216L369 221C397 265 429 334 435 388 492 439 550 315 382 216ZM453 587L442 595C483 638 535 709 546 767 614 815 666 671 453 587ZM560 187L547 191C568 238 596 309 599 363 653 414 715 298 560 187ZM837 47C725 89 511 138 337 160L340 178C522 172 727 145 861 116 886 127 903 126 913 118ZM839 169C802 246 726 357 650 429L662 442C755 382 843 292 893 225 915 230 923 225 930 214ZM65 205L53 212C95 259 139 336 143 398 209 457 274 304 65 205ZM748 400L748 514 328 514 336 543 748 543 748 860C748 876 742 883 721 883 698 883 578 874 578 874L578 889C629 895 658 903 676 914 691 924 697 940 700 960 800 950 812 916 812 865L812 543 946 543C960 543 969 538 972 527 942 498 892 456 892 456L848 514 812 514 812 437C835 433 844 425 846 411ZM242 47L242 543C157 601 74 654 39 674L94 751C103 745 108 731 108 720 162 663 208 611 242 573L242 956 255 956C280 956 308 939 308 929L308 85C332 81 340 71 343 57Z"/>
</svg>