<svg xmlns="http://www.w3.org/2000/svg"
    viewBox="0 0 1000 1000">
  <!--
© 2017-2023 Adobe (http://www.adobe.com/).
Noto is a trademark of Google Inc.
This Font Software is licensed under the SIL Open Font License, Version 1.1. This Font Software is distributed on an "AS IS" BASIS, WITHOUT WARRANTIES OR CONDITIONS OF ANY KIND, either express or implied. See the SIL Open Font License for the specific language, permissions and limitations governing your use of this Font Software.
http://scripts.sil.org/OFL
  -->
<path d="M323 658L235 621C222 686 192 785 149 849L162 861C218 807 262 729 286 670 309 673 318 668 323 658ZM463 633L451 640C484 680 520 749 522 802 581 855 643 724 463 633ZM600 377L587 383C626 441 668 533 668 605 728 664 791 512 600 377ZM469 341L429 393 219 393 227 423 520 423C534 423 543 418 546 407 517 379 469 341 469 341ZM509 489L467 542 191 542 199 572 350 572 350 834C350 845 346 850 331 850 317 850 244 845 244 845L244 860C279 865 297 872 309 882 318 892 322 910 323 927 400 919 411 884 411 835L411 572 560 572C574 572 583 567 586 556 557 527 509 489 509 489ZM175 265L175 111 482 111 482 265ZM113 72L113 377C113 559 112 760 42 918L59 926C172 771 175 546 175 377L175 294 482 294 482 322 491 322C512 322 544 308 545 301L545 123C564 119 581 111 587 103L508 43 472 82 187 82 113 49ZM893 205L850 262 840 262 840 65C864 62 874 53 877 39L777 27 777 262 556 262 564 292 777 292 777 825C777 841 771 847 752 847 731 847 623 839 623 839L623 854C669 860 696 869 712 880 726 891 732 908 735 929 829 919 840 884 840 832L840 292 944 292C958 292 967 287 970 276 941 246 893 205 893 205Z"/>
</svg>