<svg xmlns="http://www.w3.org/2000/svg"
    viewBox="0 0 1000 1000">
  <!--
© 2017-2024 Adobe (http://www.adobe.com/).
Noto is a trademark of Google Inc.
This Font Software is licensed under the SIL Open Font License, Version 1.1. This Font Software is distributed on an "AS IS" BASIS, WITHOUT WARRANTIES OR CONDITIONS OF ANY KIND, either express or implied. See the SIL Open Font License for the specific language, permissions and limitations governing your use of this Font Software.
http://scripts.sil.org/OFL
  -->
<path d="M255 710L246 720C297 750 361 810 382 858 460 896 493 742 255 710ZM70 549L109 630C118 627 128 620 133 609 292 575 406 549 487 529L486 512 314 529 314 430 454 430C468 430 478 425 481 415 449 387 401 351 401 351L358 401 95 401 102 430 251 430 251 535C174 542 109 547 70 549ZM645 580L645 661 57 661 66 690 645 690 645 830C645 844 639 850 620 850 595 850 468 842 468 841L468 858C521 864 552 872 569 882 585 893 592 909 595 929 698 919 708 885 708 833L708 690 922 690C936 690 945 685 948 675 915 644 862 603 862 603L817 661 708 661 708 616C731 612 740 605 743 591ZM816 420L816 523 592 523 592 420ZM529 392L529 600 539 600C564 600 592 586 592 581L592 552 816 552 816 585 826 585C847 585 880 571 881 564L881 429C897 426 911 418 917 412L841 355 808 392 597 392 529 361ZM217 175L226 204 724 204 724 287 180 287 189 316 724 316 724 355 734 355C755 355 787 339 788 333L788 108C808 104 824 96 831 89L751 26 714 67 195 67 204 96 724 96 724 175Z"/>
</svg>