<svg xmlns="http://www.w3.org/2000/svg"
    viewBox="0 0 1000 1000">
  <!--
© 2017-2023 Adobe (http://www.adobe.com/).
Noto is a trademark of Google Inc.
This Font Software is licensed under the SIL Open Font License, Version 1.1. This Font Software is distributed on an "AS IS" BASIS, WITHOUT WARRANTIES OR CONDITIONS OF ANY KIND, either express or implied. See the SIL Open Font License for the specific language, permissions and limitations governing your use of this Font Software.
http://scripts.sil.org/OFL
  -->
<path d="M667 396L653 404C735 500 841 655 863 771 947 838 992 624 667 396ZM283 394C241 516 150 682 40 788L52 801C185 707 290 561 346 449 370 453 379 447 384 436ZM476 270L476 820C476 836 470 842 450 842 427 842 305 833 305 833L305 849C357 856 386 864 403 876 419 887 425 904 429 925 530 915 542 880 542 825L542 306C566 303 575 294 577 281ZM307 6C241 181 133 351 36 452L49 463C127 405 204 327 270 234L913 234C928 234 937 229 940 218 902 184 846 142 846 142L795 205 291 205C320 162 348 115 372 67 394 69 407 61 412 50Z"/>
</svg>