<svg xmlns="http://www.w3.org/2000/svg"
    viewBox="0 0 1000 1000">
  <!--
© 2017-2023 Adobe (http://www.adobe.com/).
Noto is a trademark of Google Inc.
This Font Software is licensed under the SIL Open Font License, Version 1.1. This Font Software is distributed on an "AS IS" BASIS, WITHOUT WARRANTIES OR CONDITIONS OF ANY KIND, either express or implied. See the SIL Open Font License for the specific language, permissions and limitations governing your use of this Font Software.
http://scripts.sil.org/OFL
  -->
<path d="M608 417L608 501 478 501 478 417ZM671 417L800 417 800 501 671 501ZM608 388L478 388 478 309 608 309ZM671 388L671 309 800 309 800 388ZM176 13L176 160 176 245 44 245 52 274 175 274C171 486 148 739 21 916L37 927C156 808 205 631 226 459L226 816C226 890 260 905 389 905L619 905C921 905 970 897 970 860 970 847 960 840 930 832L927 768 915 768C902 803 889 824 879 834 870 839 860 842 841 844 812 846 727 848 623 848L386 848C299 848 288 837 288 806L288 393C310 390 320 379 322 367L235 357 239 274 393 274C406 274 415 270 418 261L418 574 427 574C452 574 478 560 478 553L478 531 608 531 608 613 407 613 415 642 608 642 608 738 361 738 369 767 907 767C921 767 931 762 934 751 901 722 849 682 849 682L804 738 671 738 671 642 875 642C888 642 899 637 900 626 870 598 822 560 822 560L778 613 671 613 671 531 800 531 800 557 809 557C830 557 860 543 861 537L861 318C879 315 894 307 900 300L825 243 791 280 671 280 671 207 912 207C926 207 936 202 938 191 906 161 855 122 855 122L810 177 671 177 671 99C729 93 783 85 828 78 850 87 867 87 876 80L811 15C717 46 539 85 395 100L399 119C467 118 539 113 608 106L608 177 373 177 380 207 608 207 608 280 483 280 418 249 418 256C386 226 336 187 336 187L291 245 240 245 241 162 241 50C266 46 273 36 276 22Z"/>
</svg>