<svg xmlns="http://www.w3.org/2000/svg" name="gid4779" data-unicode="尹"
    viewBox="0 0 1000 1000">
  <!--
© 2017-2024 Adobe (http://www.adobe.com/).
Noto is a trademark of Google Inc.
This Font Software is licensed under the SIL Open Font License, Version 1.1. This Font Software is distributed on an "AS IS" BASIS, WITHOUT WARRANTIES OR CONDITIONS OF ANY KIND, either express or implied. See the SIL Open Font License for the specific language, permissions and limitations governing your use of this Font Software.
http://scripts.sil.org/OFL
  -->
<path d="M743 150L743 343 498 343 498 150ZM43 343L51 372 432 372 432 425C432 476 429 525 421 571L132 571 141 600 415 600C383 733 301 843 104 939L115 954C353 870 446 745 480 600L743 600 743 673 752 673C775 673 807 657 808 650L808 372 944 372C958 372 967 367 970 356 935 323 877 276 877 276L826 343 808 343 808 162C828 158 843 150 850 142L770 79 733 120 150 120 159 150 432 150 432 343ZM743 571L486 571C495 523 498 474 498 423L498 372 743 372Z"/>
</svg>