<svg xmlns="http://www.w3.org/2000/svg"
    viewBox="0 0 1000 1000">
  <!--
© 2017-2024 Adobe (http://www.adobe.com/).
Noto is a trademark of Google Inc.
This Font Software is licensed under the SIL Open Font License, Version 1.1. This Font Software is distributed on an "AS IS" BASIS, WITHOUT WARRANTIES OR CONDITIONS OF ANY KIND, either express or implied. See the SIL Open Font License for the specific language, permissions and limitations governing your use of this Font Software.
http://scripts.sil.org/OFL
  -->
<path d="M204 80L204 325C204 530 181 742 36 914L50 925C220 783 259 584 267 412L481 412C513 590 600 793 882 923 890 886 914 874 950 870L952 858C652 745 540 576 501 412L746 412 746 471 756 471C778 471 811 456 812 450L812 131C832 127 848 120 855 112L773 49 736 90 282 90 204 56ZM746 119L746 382 268 382 269 325 269 119Z"/>
</svg>