<svg xmlns="http://www.w3.org/2000/svg" name="gid4785" data-unicode="尿"
    viewBox="0 0 1000 1000">
  <!--
© 2017-2024 Adobe (http://www.adobe.com/).
Noto is a trademark of Google Inc.
This Font Software is licensed under the SIL Open Font License, Version 1.1. This Font Software is distributed on an "AS IS" BASIS, WITHOUT WARRANTIES OR CONDITIONS OF ANY KIND, either express or implied. See the SIL Open Font License for the specific language, permissions and limitations governing your use of this Font Software.
http://scripts.sil.org/OFL
  -->
<path d="M221 507L230 536 404 536C370 676 292 805 158 887L167 902C339 823 428 690 472 542 493 541 504 538 511 530L440 468 401 507ZM850 419C813 471 741 549 677 604 640 546 611 473 593 381L593 377C617 373 624 365 627 351L530 341 530 859C530 873 525 878 507 878 489 878 394 871 394 871L394 887C435 892 459 900 473 910 486 921 491 937 494 958 582 949 593 916 593 863L593 443C645 700 754 812 911 897 920 864 941 841 967 835L970 824C863 785 762 728 689 622 766 580 847 521 896 480 918 486 926 483 934 473ZM808 133L808 288 215 288 215 133ZM149 105L149 381C149 575 137 780 28 945L43 955C202 795 215 561 215 380L215 316 808 316 808 372 819 372C839 372 873 356 874 350L874 146C894 142 909 134 916 126L835 64 798 105 227 105 149 70Z"/>
</svg>