<svg xmlns="http://www.w3.org/2000/svg"
    viewBox="0 0 1000 1000">
  <!--
© 2017-2023 Adobe (http://www.adobe.com/).
Noto is a trademark of Google Inc.
This Font Software is licensed under the SIL Open Font License, Version 1.1. This Font Software is distributed on an "AS IS" BASIS, WITHOUT WARRANTIES OR CONDITIONS OF ANY KIND, either express or implied. See the SIL Open Font License for the specific language, permissions and limitations governing your use of this Font Software.
http://scripts.sil.org/OFL
  -->
<path d="M172 82L172 355C172 552 158 755 40 918L55 928C200 793 232 605 239 438L829 438C823 662 813 810 786 836 777 845 769 847 751 847 730 847 658 841 617 837L616 854C654 860 696 870 711 880 725 891 728 909 728 929 770 929 808 917 833 891 873 849 888 697 894 446 914 444 926 439 933 431L857 368 819 409 239 409 240 354 240 286 746 286 746 341 755 341C777 341 810 327 811 321L811 123C831 119 847 111 853 103L772 41 736 82 252 82 172 48ZM240 257L240 110 746 110 746 257ZM318 543L318 842 328 842C354 842 381 827 381 821L381 760 599 760 599 804 609 804C629 804 661 789 662 782L662 579C677 577 691 570 696 563L624 509 591 543 386 543 318 513ZM381 731L381 573 599 573 599 731Z"/>
</svg>