<svg xmlns="http://www.w3.org/2000/svg"
    viewBox="0 0 1000 1000">
  <!--
© 2017-2023 Adobe (http://www.adobe.com/).
Noto is a trademark of Google Inc.
This Font Software is licensed under the SIL Open Font License, Version 1.1. This Font Software is distributed on an "AS IS" BASIS, WITHOUT WARRANTIES OR CONDITIONS OF ANY KIND, either express or implied. See the SIL Open Font License for the specific language, permissions and limitations governing your use of this Font Software.
http://scripts.sil.org/OFL
  -->
<path d="M806 101L806 263 232 263 232 101ZM166 72L166 332C166 532 154 744 42 915L58 926C220 757 232 515 232 331L232 292 806 292 806 342 817 342C837 342 871 327 872 322L872 114C891 110 907 102 914 94L832 32 796 72 245 72 166 38ZM543 315L543 456 350 456 281 423 281 927 291 927C317 927 344 911 344 904L344 858 814 858 814 924 823 924C844 924 877 909 878 902L878 497C899 493 914 486 921 478L840 414 804 456 607 456 607 351C629 348 636 339 639 326ZM814 828L607 828 607 669 814 669ZM814 640L607 640 607 484 814 484ZM344 828L344 669 543 669 543 828ZM344 640L344 484 543 484 543 640Z"/>
</svg>