<svg xmlns="http://www.w3.org/2000/svg"
    viewBox="0 0 1000 1000">
  <!--
© 2017-2023 Adobe (http://www.adobe.com/).
Noto is a trademark of Google Inc.
This Font Software is licensed under the SIL Open Font License, Version 1.1. This Font Software is distributed on an "AS IS" BASIS, WITHOUT WARRANTIES OR CONDITIONS OF ANY KIND, either express or implied. See the SIL Open Font License for the specific language, permissions and limitations governing your use of this Font Software.
http://scripts.sil.org/OFL
  -->
<path d="M686 303L677 314C746 350 839 419 874 473 952 507 971 353 686 303ZM421 285C359 368 278 446 217 488L228 504C257 492 289 476 321 457L321 927 332 927C360 927 386 911 386 904L386 742 780 742 780 839C780 849 775 853 759 853 714 853 633 848 632 848L632 861C676 866 706 875 719 885 732 895 740 908 740 927 829 921 845 891 845 844L845 503C860 500 875 492 882 486L813 424 787 461 616 461 616 304C638 300 646 291 648 279L552 269 552 461 391 461 347 441C387 416 427 386 463 353 485 361 501 355 507 346ZM386 614L780 614 780 714 386 714ZM386 584L386 490 780 490 780 584ZM813 94L813 220 221 220 221 94ZM156 65L156 303C156 508 143 734 35 919L50 929C210 747 221 490 221 302L221 250 813 250 813 293 822 293C844 293 877 280 879 274L879 107C898 103 914 95 921 87L839 25 803 65 234 65 156 31Z"/>
</svg>