<svg xmlns="http://www.w3.org/2000/svg" name="gid4807" data-unicode="屡"
    viewBox="0 0 1000 1000">
  <!--
© 2017-2024 Adobe (http://www.adobe.com/).
Noto is a trademark of Google Inc.
This Font Software is licensed under the SIL Open Font License, Version 1.1. This Font Software is distributed on an "AS IS" BASIS, WITHOUT WARRANTIES OR CONDITIONS OF ANY KIND, either express or implied. See the SIL Open Font License for the specific language, permissions and limitations governing your use of this Font Software.
http://scripts.sil.org/OFL
  -->
<path d="M344 305L334 313C364 339 402 386 411 425 470 465 519 349 344 305ZM738 301C725 334 694 392 667 434L601 434 601 323C624 320 632 312 635 299L538 289 538 434 246 434 254 463 471 463C406 526 315 582 216 623L226 639C346 603 458 550 538 480L538 602 500 592C487 614 464 648 437 684L225 684 233 712 416 712C381 759 341 807 312 837 332 850 357 856 374 852L404 817C457 826 506 836 551 847 465 894 348 921 200 940L204 958C391 944 524 918 620 864 716 890 794 919 851 949 926 989 1009 887 676 826 713 795 744 758 768 712L927 712C941 712 951 708 954 697 922 668 873 631 873 631L830 684 511 684 547 635C572 637 583 629 588 616L557 608C578 606 601 593 601 587L601 463 604 463C671 540 788 598 899 633 906 602 924 583 949 578L949 566C844 551 718 515 641 463L915 463C929 463 939 458 942 448 911 419 862 381 862 381L819 434 692 434C728 405 766 372 788 349 808 352 820 343 823 333ZM489 712L691 712C669 753 639 786 602 814 550 807 490 801 422 796ZM815 126L815 246 215 246 215 126ZM151 97L151 334C151 538 140 762 36 946L51 956C205 775 215 518 215 334L215 275 815 275 815 309 825 309C846 309 878 294 879 288L879 139C899 135 915 126 922 118L840 58 805 97 228 97 151 64Z"/>
</svg>