<svg xmlns="http://www.w3.org/2000/svg" name="gid4814" data-unicode="屩"
    viewBox="0 0 1000 1000">
  <!--
© 2017-2024 Adobe (http://www.adobe.com/).
Noto is a trademark of Google Inc.
This Font Software is licensed under the SIL Open Font License, Version 1.1. This Font Software is distributed on an "AS IS" BASIS, WITHOUT WARRANTIES OR CONDITIONS OF ANY KIND, either express or implied. See the SIL Open Font License for the specific language, permissions and limitations governing your use of this Font Software.
http://scripts.sil.org/OFL
  -->
<path d="M428 417L436 447 558 447C517 493 465 534 409 564L418 579C458 563 498 544 534 522L534 658 543 658C566 658 592 645 592 640L592 622 768 622 768 649 777 649C797 649 827 636 827 630L827 535 834 532C860 548 887 561 915 570 921 544 937 528 960 524L960 512C895 503 824 483 776 447L932 447C945 447 955 442 957 431 928 403 884 367 884 367L843 417 658 417C674 398 689 378 701 357 739 353 775 347 805 342 826 351 843 352 851 345L790 283C719 309 584 339 474 351L478 370C523 370 570 368 615 365 606 383 595 400 583 417ZM742 447C752 462 765 476 778 489L762 505 596 505 574 495C594 480 613 464 630 447ZM453 677L453 959 462 959C487 959 513 946 513 940L513 706 855 706 855 874C855 885 852 890 842 890 829 890 790 887 790 887L790 902C812 906 823 912 831 920 839 930 841 946 841 963 906 955 914 928 914 880L914 718C934 714 951 706 957 699L876 640 845 677 518 677 453 647ZM572 754L572 918 579 918C599 918 622 906 622 902L622 877 737 877 737 907 745 907C762 907 787 892 787 884L787 787C801 784 815 777 819 772L758 726 730 754 626 754 572 728ZM622 848L622 783 737 783 737 848ZM768 592L592 592 592 533 768 533ZM142 90L142 327C142 531 132 757 33 942L49 952C114 871 153 776 175 679L186 691C219 673 252 651 284 627L284 958 295 958C318 958 343 943 344 937L344 607C361 604 371 598 375 589L346 579C378 552 406 525 428 501 450 506 458 503 465 493L378 442C336 512 253 612 175 677 191 609 198 541 202 476L214 488C289 448 367 388 411 344 434 349 443 345 448 335L362 285C330 340 263 421 202 474 205 422 206 372 206 327L206 254 817 254 817 278 827 278C848 278 881 264 882 257L882 131C902 127 918 120 925 112L843 51 808 90 219 90 142 56ZM817 119L817 225 206 225 206 119Z"/>
</svg>