<svg xmlns="http://www.w3.org/2000/svg"
    viewBox="0 0 1000 1000">
  <!--
© 2017-2024 Adobe (http://www.adobe.com/).
Noto is a trademark of Google Inc.
This Font Software is licensed under the SIL Open Font License, Version 1.1. This Font Software is distributed on an "AS IS" BASIS, WITHOUT WARRANTIES OR CONDITIONS OF ANY KIND, either express or implied. See the SIL Open Font License for the specific language, permissions and limitations governing your use of this Font Software.
http://scripts.sil.org/OFL
  -->
<path d="M213 36L213 683 139 683 139 214C163 211 171 202 173 189L82 178 82 830 93 830C114 830 139 816 139 808L139 712 349 712 349 773 360 773C381 773 406 758 406 750L406 212C430 209 438 199 440 186L349 175 349 683 271 683 271 72C294 69 301 60 303 46ZM512 88L512 411 418 411 426 439 730 439C652 595 513 743 340 840L350 855C542 770 691 642 785 486L785 823C785 840 779 847 758 847 735 847 616 837 616 837L616 853C668 859 696 867 714 879 729 890 736 908 738 928 836 919 849 879 849 827L849 439 946 439C960 439 969 434 971 423 943 393 894 350 894 350L849 411 849 118 927 118C941 118 950 113 953 102 921 72 870 31 870 31L825 88 586 88 512 57ZM785 411L574 411 574 118 785 118Z"/>
</svg>