<svg xmlns="http://www.w3.org/2000/svg" name="gid4830" data-unicode="岈"
    viewBox="0 0 1000 1000">
  <!--
© 2017-2024 Adobe (http://www.adobe.com/).
Noto is a trademark of Google Inc.
This Font Software is licensed under the SIL Open Font License, Version 1.1. This Font Software is distributed on an "AS IS" BASIS, WITHOUT WARRANTIES OR CONDITIONS OF ANY KIND, either express or implied. See the SIL Open Font License for the specific language, permissions and limitations governing your use of this Font Software.
http://scripts.sil.org/OFL
  -->
<path d="M213 66L213 713 139 713 139 244C163 241 171 232 173 219L82 208 82 860 93 860C114 860 139 846 139 838L139 742 349 742 349 803 360 803C381 803 406 788 406 780L406 242C430 239 438 229 440 216L349 205 349 713 271 713 271 102C294 99 301 90 303 76ZM512 118L512 441 418 441 426 469 730 469C652 625 513 773 340 870L350 885C542 800 691 672 785 516L785 853C785 870 779 877 758 877 735 877 616 867 616 867L616 883C668 889 696 897 714 909 729 920 736 938 738 958 836 949 849 909 849 857L849 469 946 469C960 469 969 464 971 453 943 423 894 380 894 380L849 441 849 148 927 148C941 148 950 143 953 132 921 102 870 61 870 61L825 118 586 118 512 87ZM785 441L574 441 574 148 785 148Z"/>
</svg>