<svg xmlns="http://www.w3.org/2000/svg" name="gid4831" data-unicode="岊"
    viewBox="0 0 1000 1000">
  <!--
© 2017-2024 Adobe (http://www.adobe.com/).
Noto is a trademark of Google Inc.
This Font Software is licensed under the SIL Open Font License, Version 1.1. This Font Software is distributed on an "AS IS" BASIS, WITHOUT WARRANTIES OR CONDITIONS OF ANY KIND, either express or implied. See the SIL Open Font License for the specific language, permissions and limitations governing your use of this Font Software.
http://scripts.sil.org/OFL
  -->
<path d="M465 550L465 857 208 857 208 639C233 635 242 626 244 612L144 601 144 956 156 956C180 956 208 943 208 935L208 887 791 887 791 949 803 949C827 949 855 936 855 928L855 635C880 631 890 622 892 609L791 598 791 857 529 857 529 586C552 582 561 573 563 560ZM218 116L454 116 454 257 218 257ZM154 86L154 430C154 501 187 513 319 513L559 513C873 513 920 506 920 468 920 453 909 447 879 439L877 340 864 340C850 391 836 423 826 437 819 446 811 450 789 452 757 455 670 455 561 455L315 455C227 455 218 447 218 422L218 286 759 286 759 336 769 336C790 336 823 321 824 314L824 128C842 124 859 116 866 108L785 47 749 86 230 86 154 53ZM517 116L759 116 759 257 517 257Z"/>
</svg>