<svg xmlns="http://www.w3.org/2000/svg"
    viewBox="0 0 1000 1000">
  <!--
© 2017-2023 Adobe (http://www.adobe.com/).
Noto is a trademark of Google Inc.
This Font Software is licensed under the SIL Open Font License, Version 1.1. This Font Software is distributed on an "AS IS" BASIS, WITHOUT WARRANTIES OR CONDITIONS OF ANY KIND, either express or implied. See the SIL Open Font License for the specific language, permissions and limitations governing your use of this Font Software.
http://scripts.sil.org/OFL
  -->
<path d="M261 534L245 538C277 618 312 738 314 828 378 893 436 728 261 534ZM796 59L796 254 529 254 529 59C554 56 564 46 566 32L464 21 464 254 205 254 205 97C230 93 240 84 242 69L140 59 140 354 152 354C177 354 205 340 205 333L205 284 796 284 796 338 809 338C833 338 862 324 862 317L862 97C887 93 896 84 899 69ZM110 466L119 494 870 494C884 494 894 489 897 479 865 449 813 408 813 408L768 466 529 466 529 365C554 361 564 352 566 338L464 328 464 466ZM675 532C653 631 616 766 577 865L44 865 53 894 933 894C948 894 958 889 960 878 927 847 874 805 874 805L826 865 600 865C657 776 710 666 741 585 762 586 774 578 777 566Z"/>
</svg>