<svg xmlns="http://www.w3.org/2000/svg"
    viewBox="0 0 1000 1000">
  <!--
© 2017-2023 Adobe (http://www.adobe.com/).
Noto is a trademark of Google Inc.
This Font Software is licensed under the SIL Open Font License, Version 1.1. This Font Software is distributed on an "AS IS" BASIS, WITHOUT WARRANTIES OR CONDITIONS OF ANY KIND, either express or implied. See the SIL Open Font License for the specific language, permissions and limitations governing your use of this Font Software.
http://scripts.sil.org/OFL
  -->
<path d="M776 50L776 228 535 228 535 50C560 46 570 36 572 22L469 12 469 228 233 228 233 87C257 84 267 75 270 60L167 50 167 320 179 320C205 320 233 307 233 300L233 257 776 257 776 313 788 313C813 313 841 300 841 293L841 87C866 84 876 75 879 60ZM43 379L52 408 335 408C281 548 167 693 34 791L44 804C128 757 205 697 270 628L270 926 280 926C312 926 334 909 334 904L334 848 774 848 774 922 784 922C807 922 840 906 841 900L841 614C861 609 877 601 884 593L802 530 764 571 347 571 327 562C365 514 397 462 422 408L933 408C947 408 956 403 959 392 925 361 871 319 871 319L823 379ZM774 601L774 819 334 819 334 601Z"/>
</svg>