<svg xmlns="http://www.w3.org/2000/svg" name="gid4848" data-unicode="岪"
    viewBox="0 0 1000 1000">
  <!--
© 2017-2024 Adobe (http://www.adobe.com/).
Noto is a trademark of Google Inc.
This Font Software is licensed under the SIL Open Font License, Version 1.1. This Font Software is distributed on an "AS IS" BASIS, WITHOUT WARRANTIES OR CONDITIONS OF ANY KIND, either express or implied. See the SIL Open Font License for the specific language, permissions and limitations governing your use of this Font Software.
http://scripts.sil.org/OFL
  -->
<path d="M801 77L801 211 529 211 529 79C554 76 564 66 566 52L464 42 464 211 198 211 198 115C224 111 233 102 236 87L134 77 134 290 146 290C171 290 198 278 198 270L198 240 801 240 801 279 813 279C838 279 866 266 866 259L866 115C891 111 900 102 903 87ZM789 384L789 510 635 510 635 384ZM352 248L352 355 97 355 105 384 352 384 352 510 241 510 167 477C155 543 126 659 102 741 135 751 153 749 171 741L184 689 340 689C315 798 242 882 78 943L87 958C290 901 375 809 404 689L569 689 569 959 582 959C607 959 635 944 635 935L635 689 838 689C830 779 815 827 800 841 793 846 785 847 771 847 755 847 715 845 692 843L692 860C714 863 734 870 744 879 754 889 757 906 756 922 788 922 817 915 838 900 872 875 893 814 901 695 920 693 933 689 940 681L867 623 831 659 635 659 635 539 789 539 789 578 798 578C820 578 852 563 853 558L853 397C872 393 889 384 896 377L815 316 779 355 635 355 635 289C659 285 668 275 670 261L569 249 569 355 416 355 416 285C440 281 447 272 450 258ZM569 384L569 510 416 510 416 384ZM219 539L352 539 352 576C352 605 350 633 346 659L191 659ZM569 539L569 659 410 659C414 633 416 606 416 577L416 539Z"/>
</svg>