<svg xmlns="http://www.w3.org/2000/svg"
    viewBox="0 0 1000 1000">
  <!--
© 2017-2023 Adobe (http://www.adobe.com/).
Noto is a trademark of Google Inc.
This Font Software is licensed under the SIL Open Font License, Version 1.1. This Font Software is distributed on an "AS IS" BASIS, WITHOUT WARRANTIES OR CONDITIONS OF ANY KIND, either express or implied. See the SIL Open Font License for the specific language, permissions and limitations governing your use of this Font Software.
http://scripts.sil.org/OFL
  -->
<path d="M293 466L301 495 667 495C681 495 691 490 693 480 663 451 615 414 615 414L572 466ZM159 590L167 619 413 619 413 929 423 929C456 929 478 915 479 911L479 619 720 619 720 764C720 777 717 782 703 782 687 782 622 777 622 777L622 793C654 797 671 804 681 812 692 822 695 838 697 855 775 847 785 819 785 772L785 631C804 627 820 619 827 612L743 550 710 590ZM516 265C592 379 745 485 908 543 913 519 937 496 966 489L968 474C800 430 627 348 534 253 561 251 572 246 575 235L547 229 802 229 802 280 813 280C838 280 867 268 867 261L867 79C892 75 901 66 903 51L802 41 802 201 529 201 529 49C554 46 564 36 566 22L464 12 464 201 195 201 195 79C220 75 230 66 233 51L131 41 131 291 143 291C168 291 195 279 195 272L195 229 449 229C382 342 194 484 31 551L37 565C225 504 422 377 516 265Z"/>
</svg>