<svg xmlns="http://www.w3.org/2000/svg"
    viewBox="0 0 1000 1000">
  <!--
© 2017-2023 Adobe (http://www.adobe.com/).
Noto is a trademark of Google Inc.
This Font Software is licensed under the SIL Open Font License, Version 1.1. This Font Software is distributed on an "AS IS" BASIS, WITHOUT WARRANTIES OR CONDITIONS OF ANY KIND, either express or implied. See the SIL Open Font License for the specific language, permissions and limitations governing your use of this Font Software.
http://scripts.sil.org/OFL
  -->
<path d="M529 253L828 253 828 382 529 382ZM529 223L529 93 828 93 828 223ZM529 412L828 412 828 543 529 543ZM468 64L468 631 477 631C510 631 529 617 529 611L529 571 570 571C553 743 487 839 298 915L304 931C526 871 614 769 640 571L710 571 710 851C710 894 720 910 779 910L839 911C939 911 964 898 964 872 964 859 960 852 941 845L937 751 925 751C916 790 907 832 901 843 897 850 894 851 888 852 880 852 862 852 841 852L794 852C776 852 773 848 773 836L773 571 828 571 828 615 838 615C867 615 892 600 892 595L892 98C913 95 924 89 931 82L857 23 824 64 541 64 468 32ZM204 35L204 694 132 694 132 214C156 211 164 202 167 189L75 178 75 827 87 827C107 827 132 814 132 806L132 724 340 724 340 803 351 803C372 803 396 790 396 781L396 212C420 209 429 199 431 186L340 175 340 694 261 694 261 71C284 68 292 59 294 45Z"/>
</svg>