<svg xmlns="http://www.w3.org/2000/svg" name="gid4895" data-unicode="崍"
    viewBox="0 0 1000 1000">
  <!--
© 2017-2024 Adobe (http://www.adobe.com/).
Noto is a trademark of Google Inc.
This Font Software is licensed under the SIL Open Font License, Version 1.1. This Font Software is distributed on an "AS IS" BASIS, WITHOUT WARRANTIES OR CONDITIONS OF ANY KIND, either express or implied. See the SIL Open Font License for the specific language, permissions and limitations governing your use of this Font Software.
http://scripts.sil.org/OFL
  -->
<path d="M619 42L619 202 381 202 388 228 301 218 301 711 240 711 240 99C262 96 270 86 272 72L184 62 184 711 126 711 126 254C152 251 160 242 163 228L72 217 72 854 83 854C104 854 126 842 126 834L126 740 301 740 301 801 311 801C332 801 355 789 355 780L355 253C377 250 385 242 388 230L389 232 619 232 619 490C557 651 428 793 289 876L297 892C424 832 541 738 619 636L619 958 631 958C654 958 681 942 681 932L681 565C736 700 823 805 922 869 930 838 952 819 977 815L979 804C862 755 740 642 681 511L681 232 936 232C949 232 960 227 962 216 929 185 877 144 877 144L830 202 681 202 681 80C706 76 713 66 716 52ZM476 283C453 397 408 505 358 576L372 585C418 546 459 491 492 426 516 452 539 485 546 513 596 551 642 456 504 404 515 380 525 355 534 329 556 330 567 321 571 310ZM794 282C777 378 743 468 703 528L717 539C749 512 779 475 804 433 846 469 888 520 900 564 959 603 999 481 816 413 830 386 843 358 853 328 875 328 886 319 890 309Z"/>
</svg>