<svg xmlns="http://www.w3.org/2000/svg" name="gid4914" data-unicode="崦"
    viewBox="0 0 1000 1000">
  <!--
© 2017-2024 Adobe (http://www.adobe.com/).
Noto is a trademark of Google Inc.
This Font Software is licensed under the SIL Open Font License, Version 1.1. This Font Software is distributed on an "AS IS" BASIS, WITHOUT WARRANTIES OR CONDITIONS OF ANY KIND, either express or implied. See the SIL Open Font License for the specific language, permissions and limitations governing your use of this Font Software.
http://scripts.sil.org/OFL
  -->
<path d="M186 64L186 718 129 718 129 258C154 255 163 246 166 232L75 221 75 868 85 868C106 868 129 855 129 848L129 747 303 747 303 825 314 825C334 825 358 811 358 803L358 497C385 479 411 460 434 439L434 786 443 786C473 786 493 771 493 766L493 722 614 722 614 870C614 919 630 937 702 937L792 937C929 937 961 927 961 899 961 887 954 880 932 872L929 760 917 760C906 807 896 857 890 869 885 876 880 878 871 879 859 881 830 881 793 881L713 881C679 881 674 874 674 856L674 722 803 722 803 768 812 768C833 768 863 751 863 744L863 447 868 446C890 468 914 487 939 502 944 474 957 455 981 441L983 431C889 395 798 313 748 224L943 224C957 224 965 219 968 208 936 177 884 135 884 135L837 194 610 194C627 157 641 121 652 86 678 87 687 80 690 68L586 40C576 89 561 142 541 194L371 194 378 224 529 224C489 316 433 405 358 473L358 257C380 254 389 246 391 233L303 222 303 718 242 718 242 100C265 97 273 88 275 73ZM614 304L614 412 505 412 475 399C525 346 565 285 596 224L722 224C745 282 777 339 816 389L795 412 674 412 674 341C696 338 705 328 707 315ZM493 580L614 580 614 693 493 693ZM493 550L493 441 614 441 614 550ZM674 580L803 580 803 693 674 693ZM674 550L674 441 803 441 803 550Z"/>
</svg>