<svg xmlns="http://www.w3.org/2000/svg" name="gid4917" data-unicode="崫"
    viewBox="0 0 1000 1000">
  <!--
© 2017-2024 Adobe (http://www.adobe.com/).
Noto is a trademark of Google Inc.
This Font Software is licensed under the SIL Open Font License, Version 1.1. This Font Software is distributed on an "AS IS" BASIS, WITHOUT WARRANTIES OR CONDITIONS OF ANY KIND, either express or implied. See the SIL Open Font License for the specific language, permissions and limitations governing your use of this Font Software.
http://scripts.sil.org/OFL
  -->
<path d="M802 79L802 208 529 208 529 79C554 76 564 66 566 52L464 42 464 208 209 208 209 117C235 114 244 105 247 90L145 80 145 281 157 281C181 281 209 268 209 261L209 237 802 237 802 271 813 271C838 271 867 259 867 252L867 117C892 113 901 104 903 89ZM787 351L787 457 246 457 246 351ZM182 321L182 487C182 642 163 809 37 946L50 959C228 826 246 630 246 487L787 487 787 522 797 522C817 522 849 509 850 502L850 362C869 358 885 350 891 343L812 284 777 321 257 321 182 289ZM538 514L538 662 373 662 373 571C391 568 400 559 401 549L310 539 310 739 321 739C344 739 373 725 373 718L373 691 538 691 538 870 342 870 342 775C361 771 369 763 370 752L280 743 280 957 291 957C314 957 342 944 342 937L342 900 809 900 809 952 821 952C845 952 871 942 871 938L871 772C891 769 898 761 899 749L809 739 809 870 602 870 602 691 776 691 776 730 788 730C810 730 838 717 838 710L838 572C858 568 866 560 867 549L776 540 776 662 602 662 602 547C622 544 630 536 632 524Z"/>
</svg>