<svg xmlns="http://www.w3.org/2000/svg"
    viewBox="0 0 1000 1000">
  <!--
© 2017-2024 Adobe (http://www.adobe.com/).
Noto is a trademark of Google Inc.
This Font Software is licensed under the SIL Open Font License, Version 1.1. This Font Software is distributed on an "AS IS" BASIS, WITHOUT WARRANTIES OR CONDITIONS OF ANY KIND, either express or implied. See the SIL Open Font License for the specific language, permissions and limitations governing your use of this Font Software.
http://scripts.sil.org/OFL
  -->
<path d="M746 40L736 48C758 69 781 108 785 140 838 181 895 78 746 40ZM412 11C337 49 189 98 66 121L72 138C136 134 205 125 268 114L268 212 49 212 57 241 239 241C195 336 126 427 37 493L49 508C138 459 212 398 268 323L268 570 278 570C308 570 330 554 330 549L330 290C369 317 415 363 431 400 496 435 534 307 330 275L330 241 488 241C502 241 510 236 513 225 482 197 433 159 433 159L391 212 330 212 330 103C370 95 406 86 436 78 460 87 477 87 486 78ZM640 16C640 71 640 123 637 171L485 171 493 201 635 201C622 350 574 463 384 546L396 563C569 502 643 420 676 318L676 481C676 523 686 538 748 538L816 538C923 538 949 526 949 500 949 488 944 481 925 474L922 378 909 378C900 419 892 461 885 472 882 479 878 480 871 481 863 481 843 481 818 481L763 481C740 481 737 479 737 467L737 277C754 274 764 265 765 252L693 244 698 201 928 201C942 201 951 196 954 185 925 157 878 121 878 121L838 171 701 171C703 133 704 92 705 50 726 47 734 37 737 25ZM465 562L465 834 213 834 213 643C237 639 247 629 249 615L149 606 149 927 161 927C185 927 213 914 213 906L213 864 786 864 786 920 798 920C823 920 850 906 850 899L850 639C875 635 884 626 886 612L786 602 786 834 529 834 529 598C552 594 561 585 563 572Z"/>
</svg>