<svg xmlns="http://www.w3.org/2000/svg"
    viewBox="0 0 1000 1000">
  <!--
© 2017-2024 Adobe (http://www.adobe.com/).
Noto is a trademark of Google Inc.
This Font Software is licensed under the SIL Open Font License, Version 1.1. This Font Software is distributed on an "AS IS" BASIS, WITHOUT WARRANTIES OR CONDITIONS OF ANY KIND, either express or implied. See the SIL Open Font License for the specific language, permissions and limitations governing your use of this Font Software.
http://scripts.sil.org/OFL
  -->
<path d="M280 244C236 311 142 388 47 428L55 443C167 416 273 356 328 298 350 302 359 298 365 288ZM814 33L814 140 529 140 529 43C552 40 561 30 563 17L464 7 464 140 185 140 185 70C209 66 218 57 220 43L120 33 120 214 132 214C157 214 185 201 185 194L185 169 814 169 814 208 826 208C851 208 879 196 879 189L879 70C904 67 913 57 915 43ZM305 655C258 734 155 826 49 878L59 893C179 852 291 774 348 704 356 706 362 707 367 706L367 834C367 848 363 853 349 853 328 853 250 848 250 847L250 864C287 868 307 875 320 885 331 895 336 912 338 930 420 922 430 891 430 841L430 588C450 585 467 576 473 568L390 507 357 546 74 546 83 575 221 575C184 621 116 679 55 713L65 728C142 702 223 657 265 617 287 622 295 619 302 609L241 575 367 575 367 687ZM743 652C693 731 585 820 476 869L485 883C609 846 726 772 787 704 800 707 808 707 813 704L813 834C813 847 809 852 792 852 771 852 683 846 683 846L683 862C723 866 746 875 759 885 771 894 777 911 779 930 867 922 877 890 877 840L877 588C897 585 914 576 920 569L836 507 804 546 493 546 501 575 645 575C608 619 540 678 480 712L491 727C566 700 647 656 692 619 712 624 720 621 727 613L664 575 813 575 813 689ZM368 225L376 255 659 255C704 331 802 392 910 431 917 406 940 385 966 378L967 367C845 347 731 303 685 255 712 253 736 248 746 236L664 182 635 225ZM434 279C413 324 377 383 344 427L215 429 258 505C268 503 277 497 283 485 458 468 587 454 681 442 702 463 720 484 731 504 799 538 823 402 580 346L570 356C597 372 628 395 656 420L380 427C420 394 460 356 486 324 508 327 521 319 526 308Z"/>
</svg>