<svg xmlns="http://www.w3.org/2000/svg"
    viewBox="0 0 1000 1000">
  <!--
© 2017-2023 Adobe (http://www.adobe.com/).
Noto is a trademark of Google Inc.
This Font Software is licensed under the SIL Open Font License, Version 1.1. This Font Software is distributed on an "AS IS" BASIS, WITHOUT WARRANTIES OR CONDITIONS OF ANY KIND, either express or implied. See the SIL Open Font License for the specific language, permissions and limitations governing your use of this Font Software.
http://scripts.sil.org/OFL
  -->
<path d="M786 42L786 170 528 170 528 49C553 46 563 36 565 22L464 12 464 170 210 170 210 80C236 76 245 67 248 52L146 42 146 259 158 259C183 259 210 247 210 239L210 199 786 199 786 248 798 248C823 248 851 235 851 229L851 80C876 76 886 67 888 52ZM246 470L467 470 467 571 246 571ZM246 441L246 342 467 342 467 441ZM756 470L756 571 530 571 530 470ZM756 441L530 441 530 342 756 342ZM456 206C448 238 437 280 425 312L251 312 181 280 181 656 191 656C218 656 246 641 246 634L246 601 337 601C311 754 229 848 45 915L51 930C266 878 374 783 410 601L510 601 510 845C510 895 526 909 612 909L739 909C919 909 951 899 951 871 951 858 944 851 921 844L918 748 906 748C895 792 885 829 877 842 872 849 868 851 855 852 837 854 794 854 743 854L621 854C577 854 573 850 573 834L573 601 756 601 756 635 766 635C787 635 820 621 821 614L821 354C841 351 856 342 863 334L782 273 747 312 459 312C482 291 506 268 522 246 543 246 555 236 559 224ZM683 623C674 669 663 720 651 758L591 760 619 824C629 822 637 817 642 804 704 792 755 781 793 772 798 786 802 799 803 811 848 849 893 750 753 687L741 695C756 710 771 730 783 751L680 757C697 729 714 695 728 665 748 664 758 655 762 644Z"/>
</svg>