<svg xmlns="http://www.w3.org/2000/svg" name="gid4959" data-unicode="嶄"
    viewBox="0 0 1000 1000">
  <!--
© 2017-2024 Adobe (http://www.adobe.com/).
Noto is a trademark of Google Inc.
This Font Software is licensed under the SIL Open Font License, Version 1.1. This Font Software is distributed on an "AS IS" BASIS, WITHOUT WARRANTIES OR CONDITIONS OF ANY KIND, either express or implied. See the SIL Open Font License for the specific language, permissions and limitations governing your use of this Font Software.
http://scripts.sil.org/OFL
  -->
<path d="M789 72L789 199 529 199 529 79C554 76 564 66 566 52L464 42 464 199 209 199 209 110C235 106 244 97 247 82L145 72 145 286 157 286C181 286 209 274 209 267L209 229 789 229 789 268 801 268C826 268 854 256 854 249L854 110C879 106 889 97 892 82ZM99 445L99 735 108 735C133 735 158 722 158 716L158 687 257 687 257 781 41 781 49 811 257 811 257 957 269 957C293 957 318 942 318 933L318 811 504 811C517 811 527 806 530 795 501 767 454 730 454 730L413 781 318 781 318 687 421 687 421 722 429 722C448 722 478 709 479 703L479 483C497 479 511 471 517 464L444 409 412 445 318 445 318 373 506 373C520 373 530 368 533 357 503 329 455 291 455 291L413 344 318 344 318 298C344 294 352 284 355 270L257 259 257 344 59 344 67 373 257 373 257 445 163 445 99 415ZM257 474L257 550 158 550 158 474ZM318 474L421 474 421 550 318 550ZM257 580L257 658 158 658 158 580ZM318 580L421 580 421 658 318 658ZM852 270C807 295 725 327 649 350L573 325 573 543C573 678 559 818 449 931L462 945C617 839 635 681 636 555L765 555 765 957 775 957C807 957 828 942 828 938L828 555 940 555C954 555 962 550 965 539 935 510 885 468 885 468L841 526 636 526 636 379C723 369 818 352 879 335 900 344 918 344 927 335Z"/>
</svg>