<svg xmlns="http://www.w3.org/2000/svg"
    viewBox="0 0 1000 1000">
  <!--
© 2017-2023 Adobe (http://www.adobe.com/).
Noto is a trademark of Google Inc.
This Font Software is licensed under the SIL Open Font License, Version 1.1. This Font Software is distributed on an "AS IS" BASIS, WITHOUT WARRANTIES OR CONDITIONS OF ANY KIND, either express or implied. See the SIL Open Font License for the specific language, permissions and limitations governing your use of this Font Software.
http://scripts.sil.org/OFL
  -->
<path d="M320 737L306 741C318 781 326 842 319 891 365 949 441 844 320 737ZM460 729L448 735C475 771 502 831 502 879 559 928 619 806 460 729ZM612 720L602 728C635 752 674 799 684 835 742 872 782 755 612 720ZM197 730C193 789 148 836 106 853 87 864 72 882 81 903 90 926 124 926 150 912 191 889 236 829 215 730ZM800 46L800 163 529 163 529 49C554 45 564 35 566 21L464 11 464 163 202 163 202 84C228 81 238 71 240 57L138 46 138 240 150 240C175 240 202 228 202 221L202 192 450 192C441 220 429 257 419 283L300 283 229 250 229 729 239 729C267 729 294 714 294 707L294 689 841 689C833 776 817 831 801 845 793 851 785 852 768 852 751 852 692 848 659 845L659 862C690 867 721 874 733 883 745 893 749 911 749 929 783 929 816 920 838 904 875 878 897 810 905 696 925 694 937 690 944 682L871 623 834 660 294 660 294 596 939 596C953 596 963 591 965 580 933 550 881 511 881 511L835 567 294 567 294 503 710 503 710 537 721 537C742 537 775 523 776 517L776 324C794 320 811 312 818 304L737 243 700 283 456 283C475 265 498 243 513 226 533 227 548 221 552 206L494 192 800 192 800 229 812 229C837 229 865 217 865 211L865 84C891 81 900 71 902 57ZM710 312L710 378 294 378 294 312ZM294 407L710 407 710 475 294 475Z"/>
</svg>