<svg xmlns="http://www.w3.org/2000/svg"
    viewBox="0 0 1000 1000">
  <!--
© 2017-2024 Adobe (http://www.adobe.com/).
Noto is a trademark of Google Inc.
This Font Software is licensed under the SIL Open Font License, Version 1.1. This Font Software is distributed on an "AS IS" BASIS, WITHOUT WARRANTIES OR CONDITIONS OF ANY KIND, either express or implied. See the SIL Open Font License for the specific language, permissions and limitations governing your use of this Font Software.
http://scripts.sil.org/OFL
  -->
<path d="M508 323L516 351 773 351C787 351 797 347 800 336 769 307 720 270 720 270L678 323ZM502 675L490 679C513 721 540 785 544 834 604 890 672 767 502 675ZM415 67L424 95 566 95C553 135 536 175 514 213 504 187 471 157 398 138L386 146C416 172 452 218 466 252 473 256 479 259 485 259 450 312 407 360 358 400L358 204C380 201 389 192 391 179L303 169 303 688 242 688 242 72C265 68 273 59 275 45L186 35 186 688 129 688 129 210C154 207 163 197 166 183L75 172 75 828 85 828C106 828 129 815 129 808L129 716 303 716 303 788 314 788C334 788 358 775 358 766L358 427C496 346 584 224 633 101 655 100 665 97 673 88L606 29 565 67ZM740 666C724 723 700 802 678 859L337 859 345 888 943 888C957 888 966 883 969 873 937 842 885 802 885 802L839 859 702 859C738 812 775 756 799 716 821 717 833 709 837 697ZM447 432L447 673 458 673C490 673 511 659 511 654L511 622 785 622 785 661 795 661C827 661 850 647 850 643L850 465C870 462 879 457 886 449L814 396 782 432 522 432 447 402ZM511 593L511 462 785 462 785 593ZM898 145C881 166 844 202 810 229 792 208 775 186 759 163 800 145 843 119 868 103 882 107 890 105 895 98L825 54C810 75 776 117 748 146 723 107 703 65 687 21L670 28C717 205 806 340 927 416 935 389 955 372 978 368L980 358C925 333 873 295 827 247 870 231 913 210 938 198 951 201 960 200 965 194Z"/>
</svg>