<svg xmlns="http://www.w3.org/2000/svg"
    viewBox="0 0 1000 1000">
  <!--
© 2017-2023 Adobe (http://www.adobe.com/).
Noto is a trademark of Google Inc.
This Font Software is licensed under the SIL Open Font License, Version 1.1. This Font Software is distributed on an "AS IS" BASIS, WITHOUT WARRANTIES OR CONDITIONS OF ANY KIND, either express or implied. See the SIL Open Font License for the specific language, permissions and limitations governing your use of this Font Software.
http://scripts.sil.org/OFL
  -->
<path d="M186 39L186 694 129 694 129 222C154 219 163 209 166 195L75 185 75 836 86 836C106 836 129 823 129 815L129 724 303 724 303 783 314 783C334 783 358 769 358 761L358 217C380 214 389 205 391 192L303 182 303 694 243 694 243 76C265 72 273 63 275 49ZM561 225L468 225 468 97 561 97ZM615 225L615 97 707 97 707 225ZM763 225L763 97 859 97 859 225ZM411 68L411 294 420 294C449 294 468 282 468 277L468 254 859 254 859 283 868 283C894 283 918 269 918 265L918 100C936 97 946 92 952 85L885 34 856 68 479 68 411 38ZM410 744L418 773 624 773 624 928 634 928C666 928 687 914 687 910L687 773 921 773C935 773 945 768 947 757 916 731 868 696 868 696L826 744 687 744 687 647 935 647C949 647 958 642 960 631 930 605 884 572 884 572L843 618 730 618C761 590 790 555 808 526 829 527 840 518 844 507L776 489 945 489C959 489 968 485 971 474 939 445 889 410 889 410L844 460 686 460 686 377 897 377C911 377 920 372 923 361 893 335 846 300 846 300L806 348 686 348 686 302C709 299 719 289 720 276L623 266 623 348 422 348 430 377 623 377 623 460 375 460 383 489 498 489 492 493C514 522 538 570 541 608 548 614 555 617 561 618L383 618 391 647 624 647 624 744ZM510 489L752 489C742 530 723 581 703 618L571 618C607 613 622 538 510 489Z"/>
</svg>