<svg xmlns="http://www.w3.org/2000/svg"
    viewBox="0 0 1000 1000">
  <!--
© 2017-2023 Adobe (http://www.adobe.com/).
Noto is a trademark of Google Inc.
This Font Software is licensed under the SIL Open Font License, Version 1.1. This Font Software is distributed on an "AS IS" BASIS, WITHOUT WARRANTIES OR CONDITIONS OF ANY KIND, either express or implied. See the SIL Open Font License for the specific language, permissions and limitations governing your use of this Font Software.
http://scripts.sil.org/OFL
  -->
<path d="M477 261L485 290 789 290C802 290 812 286 814 275 786 247 739 210 739 210L698 261ZM403 363L403 615 412 615C435 615 458 602 458 597L458 571 558 571 558 613 565 613C584 613 613 599 614 593L614 398C629 396 642 389 647 382L580 332 549 363 463 363 403 337ZM458 542L458 393 558 393 558 542ZM677 363L677 615 685 615C708 615 732 602 732 597L732 571 837 571 837 613 845 613C864 613 893 599 894 593L894 399C909 397 923 389 928 383L860 331 828 363 737 363 677 337ZM732 542L732 393 837 393 837 542ZM501 615C466 744 397 851 319 913L332 926C402 889 464 830 512 752 541 777 571 815 580 847 639 885 684 772 522 734 534 712 545 690 555 666 577 668 588 660 593 648ZM753 615C723 745 659 851 584 915L597 927C661 891 717 837 761 766 814 807 871 866 891 914 962 954 998 815 773 746 787 722 799 695 810 666 831 668 843 659 847 647ZM185 45L185 697 128 697 128 227C154 223 162 214 165 200L74 190 74 838 85 838C105 838 128 825 128 816L128 727 299 727 299 795 310 795C330 795 353 782 353 774L353 310C483 252 596 153 654 62 709 168 807 253 924 306 929 280 944 254 970 245L972 232C850 201 735 134 668 52 693 49 702 44 704 34L602 9C561 105 462 218 353 288L353 221C376 218 384 210 387 197L299 186 299 697 241 697 241 82C263 79 271 69 273 55Z"/>
</svg>