<svg xmlns="http://www.w3.org/2000/svg" name="gid4988" data-unicode="嶺"
    viewBox="0 0 1000 1000">
  <!--
© 2017-2024 Adobe (http://www.adobe.com/).
Noto is a trademark of Google Inc.
This Font Software is licensed under the SIL Open Font License, Version 1.1. This Font Software is distributed on an "AS IS" BASIS, WITHOUT WARRANTIES OR CONDITIONS OF ANY KIND, either express or implied. See the SIL Open Font License for the specific language, permissions and limitations governing your use of this Font Software.
http://scripts.sil.org/OFL
  -->
<path d="M622 802C580 850 488 911 397 941L404 958C503 940 602 899 659 859 681 864 696 861 703 852ZM747 816L741 832C813 865 860 907 882 944 936 999 1036 866 747 816ZM152 472L160 502 389 502C403 502 412 497 415 486 388 459 346 425 346 425L309 472ZM823 455L823 532 589 532 589 455ZM468 317L476 346 665 346C662 373 656 404 651 427L594 427 527 396 527 825 537 825C564 825 589 810 589 804L589 781 823 781 823 817 833 817C854 817 886 801 887 795L887 464C903 461 918 453 923 447L848 389 815 427 685 427C702 404 719 374 734 346L931 346C944 346 954 341 957 330 925 302 876 264 876 264L833 317ZM589 562L823 562 823 642 589 642ZM589 671L823 671 823 752 589 752ZM292 300C354 350 399 412 418 457 470 497 539 377 300 288 325 288 336 281 339 271L242 242C207 327 117 457 32 530L43 541C144 481 236 382 292 300ZM65 580L74 610 206 610 206 956 216 956C247 956 268 942 268 938L268 610 383 610 383 769C383 782 380 787 367 787 352 787 289 781 289 781L289 798C319 802 336 809 346 819 356 830 359 846 361 864 434 856 443 826 443 777L443 619C460 615 475 608 481 601L404 545 374 580ZM794 71L794 196 529 196 529 79C554 76 564 66 566 52L465 42 465 196 204 196 204 109C230 105 239 96 242 81L140 71 140 273 152 273C177 273 204 260 204 253L204 225 794 225 794 262 806 262C831 262 859 249 859 243L859 109C884 105 895 96 897 81Z"/>
</svg>