<svg xmlns="http://www.w3.org/2000/svg"
    viewBox="0 0 1000 1000">
  <!--
© 2017-2023 Adobe (http://www.adobe.com/).
Noto is a trademark of Google Inc.
This Font Software is licensed under the SIL Open Font License, Version 1.1. This Font Software is distributed on an "AS IS" BASIS, WITHOUT WARRANTIES OR CONDITIONS OF ANY KIND, either express or implied. See the SIL Open Font License for the specific language, permissions and limitations governing your use of this Font Software.
http://scripts.sil.org/OFL
  -->
<path d="M661 473L661 577 548 577 548 473ZM717 473L832 473 832 577 717 577ZM661 444L548 444 548 345 661 345ZM717 444L717 345 832 345 832 444ZM488 316L488 638 497 638C522 638 548 624 548 618L548 606 557 606C550 753 509 838 364 909L370 925C544 868 608 779 623 606L678 606 678 853C678 894 690 909 752 909L828 909C946 909 971 899 971 874 971 861 966 855 946 848L943 769 931 769C923 803 914 837 908 847 904 853 900 855 892 855 883 856 858 856 831 856L766 856C739 856 736 853 736 840L736 760 767 815C775 814 782 809 787 796L877 770C880 778 882 786 883 794 920 827 964 750 853 693L840 699C850 712 860 729 868 747L804 752C818 725 831 696 839 672 860 673 871 663 875 652L798 631C793 667 784 716 775 754L736 756 736 606 832 606 832 630 841 630C861 630 892 615 893 610L893 355C910 352 925 344 931 337L856 280 823 316 654 316C676 298 698 277 713 258 735 258 747 248 750 236L648 217C641 247 631 286 621 316L553 316 488 286ZM236 550C229 572 216 604 201 638 139 640 87 641 54 641L79 710C89 708 99 703 104 690L181 682C159 730 135 776 116 805 139 815 162 816 176 811L197 770C224 780 248 791 270 803 222 849 154 881 59 906L65 924C179 905 257 875 313 829 340 846 361 863 374 878 419 891 441 831 354 788 383 751 404 707 418 654L477 646 476 628 264 636 285 590C310 590 320 581 325 568L269 557C294 555 311 544 311 538L311 446C357 470 407 511 427 546 488 575 510 454 311 427L311 402 459 402C472 402 481 397 484 386 456 358 412 323 412 323L373 372 310 372 311 301C348 296 381 291 410 286 431 294 447 295 456 288L392 226C319 254 179 287 66 302L70 320C129 319 193 314 253 308L253 372 72 372 80 402 223 402C180 463 118 518 45 559L55 576C132 546 200 505 253 455L253 553ZM246 675L351 662C340 703 324 738 302 768 276 760 245 754 208 750ZM813 39L813 163 534 163 534 49C559 46 569 36 571 22L470 12 470 163 207 163 207 77C232 73 242 63 245 49L143 39 143 242 155 242C179 242 207 229 207 222L207 193 813 193 813 231 825 231C850 231 879 220 879 213L879 77C903 73 913 63 915 49Z"/>
</svg>