<svg xmlns="http://www.w3.org/2000/svg" name="gid5007" data-unicode="川"
    viewBox="0 0 1000 1000">
  <!--
© 2017-2024 Adobe (http://www.adobe.com/).
Noto is a trademark of Google Inc.
This Font Software is licensed under the SIL Open Font License, Version 1.1. This Font Software is distributed on an "AS IS" BASIS, WITHOUT WARRANTIES OR CONDITIONS OF ANY KIND, either express or implied. See the SIL Open Font License for the specific language, permissions and limitations governing your use of this Font Software.
http://scripts.sil.org/OFL
  -->
<path d="M182 90L182 437C182 625 159 812 38 947L53 959C213 830 246 630 247 437L247 128C271 124 279 115 281 101ZM478 126L478 856 490 856C514 856 542 841 542 833L542 165C568 161 576 151 578 137ZM794 88L794 958 807 958C831 958 859 941 859 932L859 127C885 123 893 114 895 100Z"/>
</svg>