<svg xmlns="http://www.w3.org/2000/svg" name="gid5008" data-unicode="州"
    viewBox="0 0 1000 1000">
  <!--
© 2017-2024 Adobe (http://www.adobe.com/).
Noto is a trademark of Google Inc.
This Font Software is licensed under the SIL Open Font License, Version 1.1. This Font Software is distributed on an "AS IS" BASIS, WITHOUT WARRANTIES OR CONDITIONS OF ANY KIND, either express or implied. See the SIL Open Font License for the specific language, permissions and limitations governing your use of this Font Software.
http://scripts.sil.org/OFL
  -->
<path d="M245 74L245 443C245 641 210 819 51 943L63 956C264 838 308 648 310 444L310 113C334 109 341 99 344 85ZM812 75L812 957 824 957C848 957 876 941 876 931L876 114C901 110 909 100 912 86ZM520 90L520 943 533 943C557 943 584 928 584 918L584 128C610 124 617 114 620 101ZM153 298C163 403 116 494 64 529 44 545 34 567 46 585 61 608 101 600 127 575 168 536 214 446 170 297ZM355 328L342 334C380 393 421 487 417 560 480 624 551 462 355 328ZM618 323L606 330C659 390 715 486 716 565 784 628 850 452 618 323Z"/>
</svg>