<svg xmlns="http://www.w3.org/2000/svg"
    viewBox="0 0 1000 1000">
  <!--
© 2017-2024 Adobe (http://www.adobe.com/).
Noto is a trademark of Google Inc.
This Font Software is licensed under the SIL Open Font License, Version 1.1. This Font Software is distributed on an "AS IS" BASIS, WITHOUT WARRANTIES OR CONDITIONS OF ANY KIND, either express or implied. See the SIL Open Font License for the specific language, permissions and limitations governing your use of this Font Software.
http://scripts.sil.org/OFL
  -->
<path d="M88 42L77 50C127 94 186 171 199 233 273 288 327 123 88 42ZM429 25C416 93 363 278 322 388 405 500 461 681 469 771 531 832 607 645 350 384 400 288 475 117 498 70 520 72 530 65 534 53ZM628 25C612 94 551 277 507 386 598 496 663 678 675 768 739 827 813 641 535 382 588 289 671 117 696 71 718 73 728 66 732 54ZM836 25C817 94 749 278 701 386 798 495 871 677 886 769 954 827 1026 639 730 382 786 289 876 119 904 72 927 74 937 69 941 56ZM239 478C266 474 281 466 287 459L202 387 163 439 41 439 47 468 176 468 176 768C125 799 72 829 37 845L85 925C94 921 98 914 96 902 132 870 189 810 226 766 297 880 379 903 563 903 675 903 814 903 914 903 918 873 935 855 964 849L964 835C842 839 681 839 562 839 388 839 311 827 239 745Z"/>
</svg>