<svg xmlns="http://www.w3.org/2000/svg"
    viewBox="0 0 1000 1000">
  <!--
© 2017-2023 Adobe (http://www.adobe.com/).
Noto is a trademark of Google Inc.
This Font Software is licensed under the SIL Open Font License, Version 1.1. This Font Software is distributed on an "AS IS" BASIS, WITHOUT WARRANTIES OR CONDITIONS OF ANY KIND, either express or implied. See the SIL Open Font License for the specific language, permissions and limitations governing your use of this Font Software.
http://scripts.sil.org/OFL
  -->
<path d="M265 11C247 35 189 99 157 132 215 164 257 213 277 250 333 281 395 187 190 129 227 108 290 72 314 53 328 57 336 52 339 46ZM502 11C485 35 424 98 391 131 451 161 496 210 517 246 574 277 634 182 426 127 463 106 526 71 550 53 564 57 572 53 576 46ZM743 11C722 35 657 100 623 133 686 164 736 211 760 248L726 285 266 285 196 253 196 610 206 610C233 610 261 595 261 589L261 566 464 566 464 647 55 647 64 676 386 676C303 762 179 839 41 889L50 906C215 861 364 789 464 691L464 928 474 928C507 928 529 913 529 908L529 676 544 676C625 781 762 860 903 901 911 870 933 850 960 845L962 834C824 811 667 753 575 676L921 676C935 676 944 671 947 660 911 628 854 585 854 585L805 647 529 647 529 566 735 566 735 598 746 598C767 598 800 582 801 575L801 323C817 320 832 312 837 306L769 253C825 272 867 181 659 129 698 108 765 72 790 54 803 58 812 54 815 48ZM464 314L464 409 261 409 261 314ZM529 314L735 314 735 409 529 409ZM464 438L464 537 261 537 261 438ZM529 438L735 438 735 537 529 537Z"/>
</svg>