<svg xmlns="http://www.w3.org/2000/svg" name="gid5012" data-unicode="巣"
    viewBox="0 0 1000 1000">
  <!--
© 2017-2024 Adobe (http://www.adobe.com/).
Noto is a trademark of Google Inc.
This Font Software is licensed under the SIL Open Font License, Version 1.1. This Font Software is distributed on an "AS IS" BASIS, WITHOUT WARRANTIES OR CONDITIONS OF ANY KIND, either express or implied. See the SIL Open Font License for the specific language, permissions and limitations governing your use of this Font Software.
http://scripts.sil.org/OFL
  -->
<path d="M404 42L393 49C426 86 462 150 465 200 529 254 592 114 404 42ZM179 52L168 60C206 97 252 160 265 209 330 254 381 120 179 52ZM738 48C702 108 644 186 594 241L255 241 185 208 185 593 195 593C222 593 249 578 249 572L249 550 464 550 464 644 46 644 55 673 393 673C311 772 183 861 38 920L46 937C218 885 366 801 464 692L464 958 474 958C507 958 529 942 529 937L529 673 540 673C620 794 759 885 902 932 910 901 932 881 959 876L960 865C818 836 659 765 568 673L929 673C943 673 953 668 956 657 920 625 864 581 864 581L814 644 529 644 529 550 746 550 746 583 756 583C778 583 811 568 812 562L812 279C828 275 842 268 848 261L772 203 737 241 625 241C686 200 751 147 792 106 813 110 828 104 834 93ZM464 270L464 379 249 379 249 270ZM529 270L746 270 746 379 529 379ZM464 408L464 520 249 520 249 408ZM529 408L746 408 746 520 529 520Z"/>
</svg>