<svg xmlns="http://www.w3.org/2000/svg"
    viewBox="0 0 1000 1000">
  <!--
© 2017-2024 Adobe (http://www.adobe.com/).
Noto is a trademark of Google Inc.
This Font Software is licensed under the SIL Open Font License, Version 1.1. This Font Software is distributed on an "AS IS" BASIS, WITHOUT WARRANTIES OR CONDITIONS OF ANY KIND, either express or implied. See the SIL Open Font License for the specific language, permissions and limitations governing your use of this Font Software.
http://scripts.sil.org/OFL
  -->
<path d="M287 17C262 41 182 101 140 129 206 158 257 204 276 238 338 269 398 169 178 127 220 112 298 82 326 67 342 73 351 69 356 63ZM522 17C497 40 417 101 374 129 440 158 492 204 511 237 574 267 633 168 412 127 454 111 533 82 562 67 577 73 586 69 591 63ZM755 17C730 40 649 101 607 129 674 158 725 204 744 237 806 267 866 168 645 127 687 111 766 82 794 67 810 73 819 69 824 63ZM276 546L267 556C302 575 345 610 362 639 419 668 451 561 276 546ZM269 664L260 675C297 693 341 732 358 762 415 792 449 682 269 664ZM574 546L565 557C602 575 648 612 666 641 723 669 755 561 574 546ZM567 665L558 675C597 695 645 734 663 764 722 794 753 682 567 665ZM752 515C756 671 766 856 877 914 909 930 948 937 960 911 966 899 958 881 942 865L951 782 938 780C932 799 922 827 913 842 908 851 904 852 895 846 827 805 821 652 820 548 838 545 847 536 848 524ZM321 308L318 326C372 337 424 351 469 367 401 394 326 416 258 430L266 446C353 436 445 415 525 389 579 411 621 435 646 456L212 456 212 286 631 286C604 305 569 323 531 341 479 326 410 314 321 308ZM664 456C692 449 689 403 596 363 628 350 656 336 679 322 699 330 708 328 716 320L670 286 795 286 795 456ZM150 256L150 518 159 518 170 517C192 514 212 502 212 498L212 485 795 485 795 508 804 508C825 508 857 494 858 488L858 294C874 292 889 284 895 277L820 220 786 256 219 256 150 225ZM52 847L99 927C109 924 116 918 121 905 250 868 342 838 406 815L404 801 233 824 233 550C253 547 262 539 264 527L170 517 170 833ZM387 850L435 927C444 924 451 917 456 904 601 863 705 828 777 804L774 788 514 832 514 552C535 549 544 541 546 529L453 519 453 841Z"/>
</svg>