<svg xmlns="http://www.w3.org/2000/svg" name="gid5017" data-unicode="巨"
    viewBox="0 0 1000 1000">
  <!--
© 2017-2024 Adobe (http://www.adobe.com/).
Noto is a trademark of Google Inc.
This Font Software is licensed under the SIL Open Font License, Version 1.1. This Font Software is distributed on an "AS IS" BASIS, WITHOUT WARRANTIES OR CONDITIONS OF ANY KIND, either express or implied. See the SIL Open Font License for the specific language, permissions and limitations governing your use of this Font Software.
http://scripts.sil.org/OFL
  -->
<path d="M144 120L144 960 154 960C188 960 210 941 210 936L210 880 917 880C931 880 940 875 943 864 906 831 847 786 847 786L795 851 210 851 210 629 714 629 714 724 724 724C747 724 780 709 781 703L781 381C804 377 824 368 832 358L742 290 702 335 210 335 210 149 879 149C893 149 903 144 906 133 870 101 811 56 811 56L758 120 222 120 144 87ZM210 364L714 364 714 599 210 599Z"/>
</svg>