<svg xmlns="http://www.w3.org/2000/svg" name="gid5024" data-unicode="巴"
    viewBox="0 0 1000 1000">
  <!--
© 2017-2024 Adobe (http://www.adobe.com/).
Noto is a trademark of Google Inc.
This Font Software is licensed under the SIL Open Font License, Version 1.1. This Font Software is distributed on an "AS IS" BASIS, WITHOUT WARRANTIES OR CONDITIONS OF ANY KIND, either express or implied. See the SIL Open Font License for the specific language, permissions and limitations governing your use of this Font Software.
http://scripts.sil.org/OFL
  -->
<path d="M457 168L457 448 194 448 194 168ZM128 139L128 811C128 901 190 925 311 925L729 925C906 925 952 904 952 869 952 855 941 851 906 841L904 657 891 657C881 716 860 801 847 828 832 859 803 864 725 864L305 864C234 864 194 855 194 813L194 477 786 477 786 552 796 552C818 552 851 537 852 530L852 182C872 178 889 169 896 161L813 98 776 139 206 139 128 106ZM522 168L786 168 786 448 522 448Z"/>
</svg>