<svg xmlns="http://www.w3.org/2000/svg"
    viewBox="0 0 1000 1000">
  <!--
© 2017-2023 Adobe (http://www.adobe.com/).
Noto is a trademark of Google Inc.
This Font Software is licensed under the SIL Open Font License, Version 1.1. This Font Software is distributed on an "AS IS" BASIS, WITHOUT WARRANTIES OR CONDITIONS OF ANY KIND, either express or implied. See the SIL Open Font License for the specific language, permissions and limitations governing your use of this Font Software.
http://scripts.sil.org/OFL
  -->
<path d="M617 13L617 162 378 162 378 48C399 44 408 36 410 22L312 13 312 162 103 162 111 191 312 191 312 337 42 337 51 365 301 365C251 473 146 580 26 650L35 665C121 627 202 576 269 513L269 832C269 895 295 909 407 909L594 909C846 909 888 902 888 868 888 854 878 848 852 841L848 731 836 731C823 784 811 823 802 838 796 846 789 850 771 851 748 853 677 854 597 854L409 854C341 854 333 848 333 825L333 679 667 679 667 719 677 719C697 719 731 705 731 699L731 524C738 523 745 521 751 518 801 565 858 603 919 630 926 598 948 578 975 574L976 563C861 530 733 457 659 365L931 365C945 365 956 360 958 349 923 318 866 275 866 275L816 337 682 337 682 191 878 191C892 191 901 186 904 175 870 145 815 101 815 101L766 162 682 162 682 48C705 44 712 36 714 22ZM378 337L378 191 617 191 617 337ZM635 365C651 396 669 425 690 452L658 486 346 486 311 471C341 438 366 403 387 365ZM667 650L333 650 333 515 667 515Z"/>
</svg>