<svg xmlns="http://www.w3.org/2000/svg" name="gid5026" data-unicode="巷"
    viewBox="0 0 1000 1000">
  <!--
© 2017-2024 Adobe (http://www.adobe.com/).
Noto is a trademark of Google Inc.
This Font Software is licensed under the SIL Open Font License, Version 1.1. This Font Software is distributed on an "AS IS" BASIS, WITHOUT WARRANTIES OR CONDITIONS OF ANY KIND, either express or implied. See the SIL Open Font License for the specific language, permissions and limitations governing your use of this Font Software.
http://scripts.sil.org/OFL
  -->
<path d="M617 43L617 192 378 192 378 78C399 74 408 66 410 52L312 43 312 192 103 192 111 221 312 221 312 367 42 367 51 395 301 395C251 503 146 610 26 680L35 695C121 657 202 606 269 543L269 862C269 925 295 939 407 939L594 939C846 939 888 932 888 898 888 884 878 878 852 871L848 761 836 761C823 814 811 853 802 868 796 876 789 880 771 881 748 883 677 884 597 884L409 884C341 884 333 878 333 855L333 709 667 709 667 749 677 749C697 749 731 735 731 729L731 554C738 553 745 551 751 548 801 595 858 633 919 660 926 628 948 608 975 604L976 593C861 560 733 487 659 395L931 395C945 395 956 390 958 379 923 348 866 305 866 305L816 367 682 367 682 221 878 221C892 221 901 216 904 205 870 175 815 131 815 131L766 192 682 192 682 78C705 74 712 66 714 52ZM378 367L378 221 617 221 617 367ZM635 395C651 426 669 455 690 482L658 516 346 516 311 501C341 468 366 433 387 395ZM667 680L333 680 333 545 667 545Z"/>
</svg>