<svg xmlns="http://www.w3.org/2000/svg" name="gid5030" data-unicode="巽"
    viewBox="0 0 1000 1000">
  <!--
© 2017-2024 Adobe (http://www.adobe.com/).
Noto is a trademark of Google Inc.
This Font Software is licensed under the SIL Open Font License, Version 1.1. This Font Software is distributed on an "AS IS" BASIS, WITHOUT WARRANTIES OR CONDITIONS OF ANY KIND, either express or implied. See the SIL Open Font License for the specific language, permissions and limitations governing your use of this Font Software.
http://scripts.sil.org/OFL
  -->
<path d="M583 778L578 795C705 839 795 896 844 946 912 999 1012 852 583 778ZM362 766C301 823 170 902 56 944L63 959C188 931 323 873 401 824 426 831 441 829 448 818ZM124 211L124 355C124 398 136 412 206 412L302 412C440 412 469 401 469 375 469 363 463 356 442 349L439 279 428 279C419 311 411 338 404 348 400 354 395 356 385 356 375 357 343 357 306 357L219 357C188 357 185 355 185 343L185 241 365 241 365 275 375 275C395 275 427 261 428 255L428 133C443 129 456 122 461 117L390 61 357 97 105 97 114 125 365 125 365 211 197 211 124 179ZM541 211L541 354C541 398 553 412 627 412L730 412C877 412 905 401 905 375 905 363 899 356 878 349L875 277 864 277C855 309 845 338 839 348 834 354 830 356 821 356 808 357 774 357 733 357L639 357C605 357 602 355 602 343L602 241 779 241 779 275 789 275C809 275 841 261 842 255L842 133C858 130 871 122 876 117L804 61 771 97 518 97 527 125 779 125 779 211 614 211 541 179ZM601 420L601 539 389 539 389 453C409 451 417 442 419 430L324 420 324 539 106 539 115 569 324 569 324 709 55 709 64 737 918 737C932 737 942 732 945 721 910 691 855 648 855 648L807 709 666 709 666 569 875 569C889 569 899 564 901 553 869 522 816 482 816 482L769 539 666 539 666 453C686 451 694 442 696 430ZM389 709L389 569 601 569 601 709Z"/>
</svg>