<svg xmlns="http://www.w3.org/2000/svg"
    viewBox="0 0 1000 1000">
  <!--
© 2017-2023 Adobe (http://www.adobe.com/).
Noto is a trademark of Google Inc.
This Font Software is licensed under the SIL Open Font License, Version 1.1. This Font Software is distributed on an "AS IS" BASIS, WITHOUT WARRANTIES OR CONDITIONS OF ANY KIND, either express or implied. See the SIL Open Font License for the specific language, permissions and limitations governing your use of this Font Software.
http://scripts.sil.org/OFL
  -->
<path d="M559 302L547 309C594 363 646 449 653 519 722 577 783 416 559 302ZM468 81L468 412C468 606 447 782 312 918L326 929C511 795 530 596 530 411L530 110 755 110 755 849C755 892 766 912 822 912L866 912C951 912 976 900 976 873 976 861 971 854 951 846L948 708 935 708C927 759 914 828 909 841 905 849 901 850 896 851 891 852 880 852 866 852L837 852C822 852 820 846 820 829L820 125C843 121 855 115 863 107L783 38 745 81 542 81 468 48ZM73 184L73 728 83 728C108 728 131 713 131 706L131 214 196 214 196 926 204 926C232 926 254 910 255 905L255 214 326 214 326 620C326 632 323 636 313 636 303 636 264 633 264 633L264 649C285 653 297 659 304 668 311 678 313 694 314 711 377 704 383 678 383 628L383 225C404 221 420 214 427 206L347 146 316 184 257 184 257 53C282 49 291 40 293 26L194 16 194 184 136 184 73 154Z"/>
</svg>