<svg xmlns="http://www.w3.org/2000/svg" name="gid5042" data-unicode="帒"
    viewBox="0 0 1000 1000">
  <!--
© 2017-2024 Adobe (http://www.adobe.com/).
Noto is a trademark of Google Inc.
This Font Software is licensed under the SIL Open Font License, Version 1.1. This Font Software is distributed on an "AS IS" BASIS, WITHOUT WARRANTIES OR CONDITIONS OF ANY KIND, either express or implied. See the SIL Open Font License for the specific language, permissions and limitations governing your use of this Font Software.
http://scripts.sil.org/OFL
  -->
<path d="M632 58L623 68C659 91 705 134 722 169 783 201 818 83 632 58ZM482 47C492 109 506 169 528 223L318 239 329 267 540 251C592 364 679 452 825 495 879 513 931 521 944 490 949 476 946 468 915 447L921 341 908 340C899 373 887 410 878 429 872 441 863 442 843 436 724 405 651 333 607 246L914 222C927 221 938 214 940 203 905 178 849 141 849 141L808 201 594 218C575 173 563 126 555 80 575 76 582 66 583 54ZM273 40C232 144 144 282 43 370L53 382C106 351 155 311 198 268L198 515 210 515C235 515 262 501 263 496L263 242C279 239 290 233 293 224L253 208C285 170 312 131 332 96 356 100 365 94 370 84ZM470 456L470 562 257 562 186 529 186 893 196 893C222 893 250 877 250 871L250 591 470 591 470 958 482 958C506 958 534 943 534 935L534 591 763 591 763 793C763 806 759 811 743 811 725 811 644 805 644 805L644 821C682 826 702 833 715 843 726 853 731 869 733 888 818 880 829 849 829 801L829 605C849 601 866 592 873 583L787 520 752 562 534 562 534 492C557 488 565 479 567 466Z"/>
</svg>