<svg xmlns="http://www.w3.org/2000/svg"
    viewBox="0 0 1000 1000">
  <!--
© 2017-2023 Adobe (http://www.adobe.com/).
Noto is a trademark of Google Inc.
This Font Software is licensed under the SIL Open Font License, Version 1.1. This Font Software is distributed on an "AS IS" BASIS, WITHOUT WARRANTIES OR CONDITIONS OF ANY KIND, either express or implied. See the SIL Open Font License for the specific language, permissions and limitations governing your use of this Font Software.
http://scripts.sil.org/OFL
  -->
<path d="M650 17L650 227 531 227 457 196 457 781 466 781C498 781 518 765 518 759L518 257 650 257 650 926 662 926C686 926 713 911 713 901L713 257 849 257 849 688C849 701 845 706 830 706 815 706 747 701 747 701L747 717C779 721 798 728 809 737 819 747 822 763 824 781 902 774 911 744 911 695L911 269C931 265 947 257 953 249L872 188 839 227 713 227 713 56C738 52 746 42 749 28ZM140 194L302 194 302 377 140 377ZM197 12C192 57 183 122 177 165L152 165 79 133 79 907 89 907C119 907 140 891 140 885L140 816 315 816 315 879 325 879C345 879 375 865 376 858L376 591C396 587 412 579 419 571L341 512 305 550 140 550 140 407 302 407 302 450 311 450C332 450 363 435 364 429L364 206C383 202 399 194 405 186L328 127 293 165 211 165C228 130 249 86 263 53 284 52 296 43 299 29ZM140 580L315 580 315 788 140 788Z"/>
</svg>