<svg xmlns="http://www.w3.org/2000/svg" name="gid5053" data-unicode="帥"
    viewBox="0 0 1000 1000">
  <!--
© 2017-2024 Adobe (http://www.adobe.com/).
Noto is a trademark of Google Inc.
This Font Software is licensed under the SIL Open Font License, Version 1.1. This Font Software is distributed on an "AS IS" BASIS, WITHOUT WARRANTIES OR CONDITIONS OF ANY KIND, either express or implied. See the SIL Open Font License for the specific language, permissions and limitations governing your use of this Font Software.
http://scripts.sil.org/OFL
  -->
<path d="M650 47L650 257 531 257 457 226 457 811 466 811C498 811 518 795 518 789L518 287 650 287 650 956 662 956C686 956 713 941 713 931L713 287 849 287 849 718C849 731 845 736 830 736 815 736 747 731 747 731L747 747C779 751 798 758 809 767 819 777 822 793 824 811 902 804 911 774 911 725L911 299C931 295 947 287 953 279L872 218 839 257 713 257 713 86C738 82 746 72 749 58ZM140 224L302 224 302 407 140 407ZM197 42C192 87 183 152 177 195L152 195 79 163 79 937 89 937C119 937 140 921 140 915L140 846 315 846 315 909 325 909C345 909 375 895 376 888L376 621C396 617 412 609 419 601L341 542 305 580 140 580 140 437 302 437 302 480 311 480C332 480 363 465 364 459L364 236C383 232 399 224 405 216L328 157 293 195 211 195C228 160 249 116 263 83 284 82 296 73 299 59ZM140 610L315 610 315 818 140 818Z"/>
</svg>