<svg xmlns="http://www.w3.org/2000/svg"
    viewBox="0 0 1000 1000">
  <!--
© 2017-2023 Adobe (http://www.adobe.com/).
Noto is a trademark of Google Inc.
This Font Software is licensed under the SIL Open Font License, Version 1.1. This Font Software is distributed on an "AS IS" BASIS, WITHOUT WARRANTIES OR CONDITIONS OF ANY KIND, either express or implied. See the SIL Open Font License for the specific language, permissions and limitations governing your use of this Font Software.
http://scripts.sil.org/OFL
  -->
<path d="M468 12L468 135 301 135 301 60C326 56 336 47 338 33L237 22 237 135 47 135 56 164 237 164 237 359 249 359C274 359 301 346 301 338L301 304 701 304 701 350 713 350C738 350 766 337 766 330L766 164 938 164C952 164 961 159 964 149 933 118 882 77 882 77L837 135 766 135 766 60C791 56 800 47 802 33L701 22 701 135 533 135 533 49C558 46 568 36 570 22ZM301 164L468 164 468 275 301 275ZM701 164L701 275 533 275 533 164ZM465 443L465 546 284 546 214 513 214 879 224 879C250 879 278 864 278 857L278 574 465 574 465 927 477 927C501 927 529 913 529 905L529 574 730 574 730 786C730 799 725 805 708 805 687 805 599 799 599 799L599 813C640 819 663 827 676 836 688 845 693 860 695 877 784 869 795 841 795 794L795 589C816 584 833 575 839 567L754 504 719 546 529 546 529 479C552 475 560 466 562 453ZM140 323C140 403 105 455 80 471 19 511 63 572 117 538 152 518 170 475 169 416L847 416C837 449 821 490 810 516L823 523C857 499 902 458 928 428 948 427 959 425 965 419L888 343 845 387 167 387C165 367 161 346 155 323Z"/>
</svg>