<svg xmlns="http://www.w3.org/2000/svg"
    viewBox="0 0 1000 1000">
  <!--
© 2017-2024 Adobe (http://www.adobe.com/).
Noto is a trademark of Google Inc.
This Font Software is licensed under the SIL Open Font License, Version 1.1. This Font Software is distributed on an "AS IS" BASIS, WITHOUT WARRANTIES OR CONDITIONS OF ANY KIND, either express or implied. See the SIL Open Font License for the specific language, permissions and limitations governing your use of this Font Software.
http://scripts.sil.org/OFL
  -->
<path d="M529 620L833 620 833 715 529 715ZM529 591L529 493 833 493 833 591ZM529 744L833 744 833 841 529 841ZM466 465L466 928 476 928C509 928 529 913 529 907L529 871 833 871 833 923 843 923C874 923 898 907 898 903L898 499C919 496 930 489 937 482L863 424 829 465 541 465 466 432ZM502 234L860 234 860 340 502 340ZM502 205L502 99 860 99 860 205ZM439 70L439 415 449 415C482 415 502 401 502 395L502 369 860 369 860 405 870 405C900 405 924 390 924 386L924 103C944 100 954 94 961 87L888 31 856 70 514 70 439 38ZM73 184L73 728 83 728C108 728 131 713 131 707L131 214 195 214 195 926 204 926C230 926 251 910 252 905L252 214 323 214 323 620C323 632 321 636 311 636 301 636 262 633 262 633L262 649C283 653 294 659 302 668 309 678 311 694 311 710 374 703 380 677 380 628L380 225C400 221 417 214 424 206L344 146 313 184 255 184 255 53C281 49 290 40 291 26L192 16 192 184 136 184 73 154Z"/>
</svg>