<svg xmlns="http://www.w3.org/2000/svg"
    viewBox="0 0 1000 1000">
  <!--
© 2017-2023 Adobe (http://www.adobe.com/).
Noto is a trademark of Google Inc.
This Font Software is licensed under the SIL Open Font License, Version 1.1. This Font Software is distributed on an "AS IS" BASIS, WITHOUT WARRANTIES OR CONDITIONS OF ANY KIND, either express or implied. See the SIL Open Font License for the specific language, permissions and limitations governing your use of this Font Software.
http://scripts.sil.org/OFL
  -->
<path d="M419 84L427 112 936 112C950 112 960 107 963 96 930 66 877 24 877 24L831 84ZM435 511L435 928 445 928C477 928 498 913 498 908L498 867 861 867 861 923 871 923C901 923 926 908 926 902L926 545C947 541 958 536 964 528L890 471 857 511 510 511 435 479ZM498 837L498 700 649 700 649 837ZM861 837L708 837 708 700 861 700ZM498 671L498 540 649 540 649 671ZM861 671L708 671 708 540 861 540ZM484 204L484 462 495 462C527 462 548 448 548 443L548 407 809 407 809 451 819 451C850 451 875 437 875 433L875 236C895 233 904 228 910 220L838 165 806 204 559 204 484 172ZM548 378L548 233 809 233 809 378ZM73 184L73 728 83 728C108 728 131 713 131 707L131 214 195 214 195 926 204 926C230 926 251 910 252 905L252 214 323 214 323 620C323 632 321 636 311 636 301 636 262 633 262 633L262 649C283 653 294 659 302 668 309 678 311 694 311 710 374 703 380 677 380 628L380 225C400 221 417 214 424 206L344 146 313 184 255 184 255 53C281 49 290 40 291 26L192 16 192 184 136 184 73 154Z"/>
</svg>