<svg xmlns="http://www.w3.org/2000/svg"
    viewBox="0 0 1000 1000">
  <!--
© 2017-2023 Adobe (http://www.adobe.com/).
Noto is a trademark of Google Inc.
This Font Software is licensed under the SIL Open Font License, Version 1.1. This Font Software is distributed on an "AS IS" BASIS, WITHOUT WARRANTIES OR CONDITIONS OF ANY KIND, either express or implied. See the SIL Open Font License for the specific language, permissions and limitations governing your use of this Font Software.
http://scripts.sil.org/OFL
  -->
<path d="M727 714L717 723C784 768 870 851 898 915 980 958 1013 790 727 714ZM560 699C521 771 435 862 347 915L357 929C462 889 562 818 614 753 637 758 645 753 650 744ZM633 537L633 649 397 649 405 678 937 678C951 678 961 673 964 662 931 631 878 589 878 589L831 649 698 649 698 572C720 568 729 559 730 546ZM69 200L69 741 78 741C104 741 126 726 126 720L126 229 190 229 190 926 199 926C227 926 249 910 250 905L250 671C270 674 281 681 289 688 297 699 300 715 301 732 366 726 375 697 375 648L375 240C391 237 405 230 413 224 428 235 454 229 469 214 473 210 476 205 479 199L479 572 489 572C514 572 542 557 542 552L542 520 812 520 812 565 822 565C842 565 874 549 875 543L875 254C891 252 904 245 909 238L850 192C872 174 908 141 929 121 949 119 960 118 966 111L894 40 854 81 494 81C491 66 488 50 483 34L465 34C469 81 446 138 423 160 406 172 395 191 402 209L337 161 306 200 251 200 251 50C277 46 286 37 287 23L188 12 188 200 131 200 69 170ZM542 490L542 382 812 382 812 490ZM542 352L542 247 812 247 812 352ZM857 110C850 135 841 165 835 183L803 219 547 219 483 190C492 170 498 143 496 110ZM316 229L316 642C316 653 313 658 302 658L250 655 250 229Z"/>
</svg>