<svg xmlns="http://www.w3.org/2000/svg" name="gid5081" data-unicode="幖"
    viewBox="0 0 1000 1000">
  <!--
© 2017-2024 Adobe (http://www.adobe.com/).
Noto is a trademark of Google Inc.
This Font Software is licensed under the SIL Open Font License, Version 1.1. This Font Software is distributed on an "AS IS" BASIS, WITHOUT WARRANTIES OR CONDITIONS OF ANY KIND, either express or implied. See the SIL Open Font License for the specific language, permissions and limitations governing your use of this Font Software.
http://scripts.sil.org/OFL
  -->
<path d="M502 705C463 788 406 867 356 912L369 925C431 890 496 829 544 758 564 762 577 755 583 745ZM776 710L765 719C815 768 881 849 899 909 968 957 1014 812 776 710ZM468 517L476 547 872 547C886 547 895 542 897 531 868 503 820 465 820 465L777 517ZM69 236L69 760 79 760C104 760 125 746 125 739L125 264 192 264 192 957 201 957C229 957 251 940 252 935L252 264 325 264 325 669C325 681 322 685 311 685 299 685 259 681 259 681L259 698C281 701 293 707 301 716 308 726 310 743 311 760 375 753 381 726 381 676L381 276C401 272 418 264 424 256L345 198 315 236 254 236 254 81C279 77 288 67 290 53L191 44 191 236 130 236 69 206ZM439 227L439 476 448 476C478 476 497 461 497 457L497 433 856 433 856 466 866 466C892 466 915 452 915 448L915 258C934 255 944 251 950 244L883 191 854 227 771 227 771 135 937 135C951 135 961 130 964 119 931 90 880 49 880 49L834 106 410 106 418 135 579 135 579 227 508 227 439 196ZM634 135L717 135 717 227 634 227ZM412 638L420 667 646 667 646 867C646 879 642 884 627 884 611 884 533 879 533 879L533 894C570 899 589 904 602 915 612 925 617 942 618 960 697 951 708 917 708 868L708 667 936 667C950 667 959 662 962 651 929 622 878 581 878 581L832 638ZM497 404L497 255 579 255 579 404ZM856 404L771 404 771 255 856 255ZM634 255L717 255 717 404 634 404Z"/>
</svg>