<svg xmlns="http://www.w3.org/2000/svg"
    viewBox="0 0 1000 1000">
  <!--
© 2017-2023 Adobe (http://www.adobe.com/).
Noto is a trademark of Google Inc.
This Font Software is licensed under the SIL Open Font License, Version 1.1. This Font Software is distributed on an "AS IS" BASIS, WITHOUT WARRANTIES OR CONDITIONS OF ANY KIND, either express or implied. See the SIL Open Font License for the specific language, permissions and limitations governing your use of this Font Software.
http://scripts.sil.org/OFL
  -->
<path d="M39 441L47 471 235 471 235 928 245 928C279 928 300 912 300 907L300 471 476 471C490 471 500 466 502 455 471 425 421 384 421 384L376 441 300 441 300 142 474 142C489 142 499 137 501 126 470 96 418 56 418 56L374 112 71 112 79 142 235 142 235 441ZM508 441L516 471 695 471 695 928 706 928C740 928 761 912 761 907L761 471 958 471C971 471 980 466 983 455 951 423 897 381 897 381L851 441 761 441 761 142 927 142C941 142 951 137 954 126 921 95 868 54 868 54L822 112 526 112 534 142 695 142 695 441Z"/>
</svg>