<svg xmlns="http://www.w3.org/2000/svg" name="gid5106" data-unicode="幹"
    viewBox="0 0 1000 1000">
  <!--
© 2017-2024 Adobe (http://www.adobe.com/).
Noto is a trademark of Google Inc.
This Font Software is licensed under the SIL Open Font License, Version 1.1. This Font Software is distributed on an "AS IS" BASIS, WITHOUT WARRANTIES OR CONDITIONS OF ANY KIND, either express or implied. See the SIL Open Font License for the specific language, permissions and limitations governing your use of this Font Software.
http://scripts.sil.org/OFL
  -->
<path d="M728 93C764 215 841 328 928 401 933 377 952 359 976 352L978 340C884 283 790 185 743 82 764 80 773 75 776 65L674 43C648 156 542 317 451 400L461 414C569 340 678 217 728 93ZM483 591L491 621 675 621 675 957 685 957C717 957 739 942 739 937L739 621 928 621C942 621 952 616 954 605 923 575 871 533 871 533L827 591 739 591 739 419 858 419C871 419 881 414 884 403 855 376 810 339 810 339L770 390 535 390 543 419 675 419 675 591ZM90 304L90 642 99 642C125 642 151 627 151 621L151 600 231 600 231 716 40 716 48 746 231 746 231 960 241 960C274 960 295 945 296 941L296 746 480 746C494 746 503 741 506 730 476 701 426 662 426 662L384 716 296 716 296 600 378 600 378 627 388 627C408 627 440 613 440 606L440 344C460 340 476 332 482 324L404 265 368 304 296 304 296 201 474 201C488 201 498 196 501 185 468 155 417 113 417 113L370 172 296 172 296 78C319 74 327 65 329 52L231 43 231 172 44 172 52 201 231 201 231 304 156 304 90 273ZM378 572L151 572 151 466 378 466ZM378 437L151 437 151 333 378 333Z"/>
</svg>