<svg xmlns="http://www.w3.org/2000/svg"
    viewBox="0 0 1000 1000">
  <!--
© 2017-2023 Adobe (http://www.adobe.com/).
Noto is a trademark of Google Inc.
This Font Software is licensed under the SIL Open Font License, Version 1.1. This Font Software is distributed on an "AS IS" BASIS, WITHOUT WARRANTIES OR CONDITIONS OF ANY KIND, either express or implied. See the SIL Open Font License for the specific language, permissions and limitations governing your use of this Font Software.
http://scripts.sil.org/OFL
  -->
<path d="M665 261L665 740 677 740C700 740 726 727 726 718L726 297C751 294 760 284 762 272ZM839 215L839 827C839 842 834 847 817 847 796 847 694 839 694 839L694 856C739 862 763 868 778 880 792 890 797 907 800 927 891 917 901 884 901 832L901 252C924 249 933 240 936 226ZM447 727L436 736C482 774 533 842 542 898 609 945 658 797 447 727ZM338 725C305 786 235 866 165 913L174 927C261 893 344 832 388 779 411 783 419 778 425 768ZM505 283L505 388 322 388 322 283ZM262 253L262 737 272 737C299 737 322 723 322 715L322 687 505 687 505 722 514 722C535 722 566 707 567 700L567 294C586 290 602 283 609 275L531 213 495 253 327 253 262 223ZM322 417L505 417 505 522 322 522ZM322 551L505 551 505 658 322 658ZM123 130L123 384C123 562 117 756 31 912L46 922C180 768 186 549 186 383L186 159 930 159C945 159 954 154 957 144 924 112 868 70 868 70L821 130 554 130 554 51C578 48 588 38 590 24L490 14 490 130 198 130 123 96Z"/>
</svg>