<svg xmlns="http://www.w3.org/2000/svg"
    viewBox="0 0 1000 1000">
  <!--
© 2017-2023 Adobe (http://www.adobe.com/).
Noto is a trademark of Google Inc.
This Font Software is licensed under the SIL Open Font License, Version 1.1. This Font Software is distributed on an "AS IS" BASIS, WITHOUT WARRANTIES OR CONDITIONS OF ANY KIND, either express or implied. See the SIL Open Font License for the specific language, permissions and limitations governing your use of this Font Software.
http://scripts.sil.org/OFL
  -->
<path d="M298 410L471 410 471 493 298 493ZM298 380L298 299 471 299 471 380ZM241 270L241 563 249 563C273 563 298 551 298 544L298 523 471 523 471 553 480 553C500 553 528 539 529 532L529 307C546 304 561 296 567 290L495 235 462 270 377 270C393 250 410 229 423 211 445 209 455 199 458 186L367 173C363 202 355 241 348 270L303 270 241 241ZM482 609C443 635 368 671 299 695L299 619C317 616 326 608 327 596L242 585 242 821C242 864 253 878 318 878L403 878C529 878 555 867 555 841 555 829 549 823 530 815L527 736 515 736C507 771 498 804 492 815 488 821 484 822 475 823 465 823 439 824 405 824L330 824C302 824 299 821 299 808L299 718C374 706 454 683 505 664 525 672 541 671 549 663ZM603 314C599 374 576 517 559 573 585 580 610 578 621 568L629 522 732 522C705 682 639 806 485 917L494 931C628 860 706 775 751 668L751 858C751 897 759 913 811 913L859 913C942 913 966 901 966 876 966 866 962 859 944 851L941 747 928 747C920 790 910 838 905 849 901 856 899 857 893 858 888 859 876 859 860 859L827 859C811 859 809 856 809 844L809 589C827 585 837 576 838 564L786 558 793 522 937 522C951 522 960 517 963 506 934 477 886 436 886 436L844 492 798 492C808 425 812 352 814 271L917 271C931 271 941 266 944 255 913 225 861 185 861 185L817 242 572 242 580 271 750 271C749 352 746 425 737 492L634 492 655 350C680 347 690 338 693 324ZM117 119L117 375C117 554 112 750 32 909L47 919C175 762 181 539 181 374L181 148 931 148C945 148 954 143 957 132 924 101 869 58 869 58L821 119 550 119 550 50C575 47 585 37 586 23L487 13 487 119 192 119 117 85Z"/>
</svg>