<svg xmlns="http://www.w3.org/2000/svg"
    viewBox="0 0 1000 1000">
  <!--
© 2017-2023 Adobe (http://www.adobe.com/).
Noto is a trademark of Google Inc.
This Font Software is licensed under the SIL Open Font License, Version 1.1. This Font Software is distributed on an "AS IS" BASIS, WITHOUT WARRANTIES OR CONDITIONS OF ANY KIND, either express or implied. See the SIL Open Font License for the specific language, permissions and limitations governing your use of this Font Software.
http://scripts.sil.org/OFL
  -->
<path d="M395 181L395 270 223 270 231 299 613 299C627 299 635 294 638 283 611 257 567 221 567 221L528 270 453 270 453 215C475 212 484 203 485 191ZM276 354L276 531 285 531C309 531 336 518 336 512L336 489 511 489 511 521 521 521C540 521 572 510 573 505L573 393C590 389 605 381 611 375L536 319 502 354 341 354 276 326ZM511 460L336 460 336 384 511 384ZM662 229L662 925 672 925C700 925 722 910 722 902L722 258 851 258C833 327 803 427 783 482 851 545 881 609 881 675 881 709 874 725 860 734 853 738 846 739 835 739 820 739 780 739 761 739L761 755C783 758 801 763 809 770 817 778 821 798 821 816 914 812 946 774 945 688 945 616 905 545 808 479 844 426 893 327 919 274 943 274 955 272 963 263L889 189 848 229 727 229 662 198ZM389 633L389 697C306 705 238 710 198 712L231 793C240 790 250 784 255 771L389 744 389 840C389 852 385 857 372 857 358 857 287 852 287 852L287 867C319 871 337 878 349 887 359 896 362 912 364 929 441 921 449 892 449 842L449 731 636 689 634 673 449 691 449 668C472 665 481 658 484 643L474 642C513 625 556 605 584 591 604 590 617 589 624 583L560 521 523 556 239 556 248 586 502 586 442 639ZM133 125L133 379C133 559 125 752 33 908L48 919C187 764 196 545 196 378L196 154 932 154C946 154 957 150 959 139 925 107 871 65 871 65L822 125 554 125 554 49C578 46 588 36 590 22L490 12 490 125 208 125 133 90Z"/>
</svg>