<svg xmlns="http://www.w3.org/2000/svg"
    viewBox="0 0 1000 1000">
  <!--
© 2017-2023 Adobe (http://www.adobe.com/).
Noto is a trademark of Google Inc.
This Font Software is licensed under the SIL Open Font License, Version 1.1. This Font Software is distributed on an "AS IS" BASIS, WITHOUT WARRANTIES OR CONDITIONS OF ANY KIND, either express or implied. See the SIL Open Font License for the specific language, permissions and limitations governing your use of this Font Software.
http://scripts.sil.org/OFL
  -->
<path d="M629 773L623 790C733 827 813 876 858 917 926 969 1036 832 629 773ZM449 755C394 810 277 880 167 913L172 930C294 909 416 862 487 818 511 824 527 822 534 812ZM134 112L134 381C134 565 126 762 34 921L49 931C190 774 198 552 198 380L198 141 934 141C948 141 958 136 960 125 926 93 871 50 871 50L822 112 556 112 556 49C580 46 590 36 592 22L491 12 491 112 211 112 134 79ZM768 234L768 324 588 324 588 234ZM289 205L289 522 299 522C324 522 352 507 352 501L352 476 768 476 768 506 778 506C799 506 831 490 832 484L832 243C849 240 864 232 870 225L794 167 759 205 357 205 289 174ZM352 353L526 353 526 447 352 447ZM352 324L352 234 526 234 526 324ZM768 353L768 447 588 447 588 353ZM640 497L640 581 478 581 478 536C502 532 513 522 515 508L414 498 414 581 236 581 243 610 414 610 414 720 193 720 202 748 936 748C950 748 960 744 962 733 930 703 878 663 878 663L832 720 704 720 704 610 885 610C899 610 908 605 910 594 880 565 830 527 830 527L786 581 704 581 704 535C728 532 738 522 740 508ZM478 720L478 610 640 610 640 720Z"/>
</svg>