<svg xmlns="http://www.w3.org/2000/svg"
    viewBox="0 0 1000 1000">
  <!--
© 2017-2023 Adobe (http://www.adobe.com/).
Noto is a trademark of Google Inc.
This Font Software is licensed under the SIL Open Font License, Version 1.1. This Font Software is distributed on an "AS IS" BASIS, WITHOUT WARRANTIES OR CONDITIONS OF ANY KIND, either express or implied. See the SIL Open Font License for the specific language, permissions and limitations governing your use of this Font Software.
http://scripts.sil.org/OFL
  -->
<path d="M441 718L428 723C447 770 464 842 458 899 509 959 584 836 441 718ZM597 714L585 721C622 767 660 842 661 901 723 957 788 814 597 714ZM773 713L762 722C814 768 871 849 878 915 949 970 1006 805 773 713ZM316 714C310 779 262 834 220 855 199 867 186 887 195 908 206 931 243 929 267 912 308 887 353 819 334 715ZM463 309L463 465 386 465 386 309ZM520 309L598 309 598 465 520 465ZM371 159C333 261 272 359 217 419L231 430C264 408 297 380 329 346L329 465 207 465 215 494 329 494 329 666 217 666 225 695 923 695C937 695 946 690 949 680 918 649 868 608 868 608L825 666 789 666 789 494 924 494C938 494 948 489 951 479 920 449 870 408 870 408L827 465 789 465 789 309 885 309C899 309 908 304 910 293 880 264 830 224 830 224L785 280 386 280C400 260 415 238 428 216 450 218 462 210 467 199ZM654 309L732 309 732 465 654 465ZM463 494L463 666 386 666 386 494ZM520 494L598 494 598 666 520 666ZM654 494L732 494 732 666 654 666ZM123 130L123 384C123 562 117 756 31 912L46 922C180 768 186 549 186 383L186 159 930 159C945 159 954 154 957 144 924 112 868 70 868 70L821 130 554 130 554 51C578 48 588 38 590 24L490 14 490 130 198 130 123 96Z"/>
</svg>