<svg xmlns="http://www.w3.org/2000/svg" name="gid5187" data-unicode="延"
    viewBox="0 0 1000 1000">
  <!--
© 2017-2024 Adobe (http://www.adobe.com/).
Noto is a trademark of Google Inc.
This Font Software is licensed under the SIL Open Font License, Version 1.1. This Font Software is distributed on an "AS IS" BASIS, WITHOUT WARRANTIES OR CONDITIONS OF ANY KIND, either express or implied. See the SIL Open Font License for the specific language, permissions and limitations governing your use of this Font Software.
http://scripts.sil.org/OFL
  -->
<path d="M447 310L447 716 346 716 354 746 927 746C941 746 952 741 955 730 920 698 866 653 866 653L817 716 696 716 696 423 904 423C918 423 928 418 931 407 899 376 846 332 846 332L801 394 696 394 696 151C760 138 819 124 867 110 891 120 908 120 917 111L841 43C740 91 542 148 377 175L382 193C465 188 551 177 632 163L632 716 509 716 509 347C532 343 542 333 544 320ZM125 539L110 546C133 629 161 694 194 746 158 822 107 889 35 944L44 958C125 912 183 854 225 789 323 906 465 933 683 933 742 933 866 933 919 933 921 906 936 886 963 881L963 867C893 869 753 869 689 869 483 869 343 850 246 756 298 662 323 554 338 444 359 442 369 438 375 430L303 366 265 406 173 406C222 320 273 225 303 166 326 164 345 160 353 152L278 86 241 124 58 124 67 154 237 154C194 246 124 380 65 482 89 494 108 495 124 492L156 436 271 436C261 533 243 628 208 713 175 669 148 612 125 539Z"/>
</svg>