<svg xmlns="http://www.w3.org/2000/svg" name="gid5191" data-unicode="建"
    viewBox="0 0 1000 1000">
  <!--
© 2017-2024 Adobe (http://www.adobe.com/).
Noto is a trademark of Google Inc.
This Font Software is licensed under the SIL Open Font License, Version 1.1. This Font Software is distributed on an "AS IS" BASIS, WITHOUT WARRANTIES OR CONDITIONS OF ANY KIND, either express or implied. See the SIL Open Font License for the specific language, permissions and limitations governing your use of this Font Software.
http://scripts.sil.org/OFL
  -->
<path d="M111 545L97 552C120 639 147 707 181 760 148 830 101 892 35 943L43 958C117 915 171 861 211 801 304 912 440 938 648 938 715 938 855 938 914 938 916 910 932 888 962 883L962 869C884 871 725 871 654 871 459 871 326 854 233 766 287 670 310 562 324 451 345 449 355 447 361 438L290 375 251 414 162 414C205 325 250 226 275 166 298 164 315 159 322 151L248 86 212 124 42 124 51 154 210 154C172 247 113 384 62 490 87 499 106 500 122 496L148 444 258 444C249 543 232 639 197 725 162 680 134 621 111 545ZM566 43L566 148 376 148 385 178 566 178 566 280 297 280 305 310 566 310 566 414 373 414 382 443 566 443 566 546 359 546 367 575 566 575 566 681 312 681 320 710 566 710 566 844 578 844C603 844 630 830 630 822L630 710 915 710C930 710 940 705 942 695 909 664 855 623 855 623L808 681 630 681 630 575 866 575C880 575 890 571 893 560 862 530 813 492 813 492L770 546 630 546 630 443 778 443 778 475 787 475C808 475 839 460 840 453L840 310 948 310C962 310 971 305 973 294 947 264 900 224 900 224L860 280 840 280 840 189C860 185 876 178 883 170L804 110 768 148 630 148 630 81C655 77 663 67 665 53ZM630 178L778 178 778 280 630 280ZM630 414L630 310 778 310 778 414Z"/>
</svg>