<svg xmlns="http://www.w3.org/2000/svg"
    viewBox="0 0 1000 1000">
  <!--
© 2017-2023 Adobe (http://www.adobe.com/).
Noto is a trademark of Google Inc.
This Font Software is licensed under the SIL Open Font License, Version 1.1. This Font Software is distributed on an "AS IS" BASIS, WITHOUT WARRANTIES OR CONDITIONS OF ANY KIND, either express or implied. See the SIL Open Font License for the specific language, permissions and limitations governing your use of this Font Software.
http://scripts.sil.org/OFL
  -->
<path d="M832 39L785 97 78 97 87 127 305 127 305 416 305 435 39 435 47 464 304 464C297 643 248 792 40 912L51 926C308 820 364 648 372 464L622 464 622 926 633 926C668 926 690 909 690 903L690 464 945 464C959 464 968 459 971 448 939 416 886 373 886 373L840 435 690 435 690 127 891 127C905 127 915 122 917 111 884 80 832 39 832 39ZM373 414L373 127 622 127 622 435 373 435Z"/>
</svg>