<svg xmlns="http://www.w3.org/2000/svg"
    viewBox="0 0 1000 1000">
  <!--
© 2017-2024 Adobe (http://www.adobe.com/).
Noto is a trademark of Google Inc.
This Font Software is licensed under the SIL Open Font License, Version 1.1. This Font Software is distributed on an "AS IS" BASIS, WITHOUT WARRANTIES OR CONDITIONS OF ANY KIND, either express or implied. See the SIL Open Font License for the specific language, permissions and limitations governing your use of this Font Software.
http://scripts.sil.org/OFL
  -->
<path d="M244 181C212 239 143 316 73 361L84 375C169 343 249 286 294 234 315 239 323 234 330 224ZM696 200L687 210C752 249 835 321 863 381 940 419 964 258 696 200ZM65 122L73 151 392 151C385 278 356 387 107 472L119 488C409 410 450 294 463 151L589 151 589 332C589 344 585 349 569 349 550 349 463 343 463 343L463 357C503 363 526 370 538 379 550 389 555 405 556 422 639 414 651 382 651 333L651 151 918 151C932 151 942 147 945 136 910 104 856 63 856 63L808 122 539 122 539 48C564 45 573 35 575 21L474 11 474 122ZM236 451L245 481 754 481 754 568 303 568 230 529C214 590 181 696 156 769 188 780 208 779 226 772L244 713 794 713C780 775 759 828 738 842 728 849 717 850 697 850 672 850 569 842 514 837L513 854C563 860 619 871 635 882 654 892 659 910 659 928 705 928 746 918 772 902 813 876 844 801 860 720 880 719 893 714 899 707L826 647 789 683 253 683 278 598 754 598 754 626 764 626C785 626 818 613 819 607L819 493C838 488 855 481 861 473L780 412 745 451Z"/>
</svg>