<svg xmlns="http://www.w3.org/2000/svg"
    viewBox="0 0 1000 1000">
  <!--
© 2017-2024 Adobe (http://www.adobe.com/).
Noto is a trademark of Google Inc.
This Font Software is licensed under the SIL Open Font License, Version 1.1. This Font Software is distributed on an "AS IS" BASIS, WITHOUT WARRANTIES OR CONDITIONS OF ANY KIND, either express or implied. See the SIL Open Font License for the specific language, permissions and limitations governing your use of this Font Software.
http://scripts.sil.org/OFL
  -->
<path d="M150 489L140 497C174 526 214 576 223 616 286 659 335 533 150 489ZM55 735L103 811C110 808 118 798 121 786 229 731 308 684 364 652L359 638C233 680 108 722 55 735ZM595 489L585 498C623 526 669 577 681 618 749 660 794 527 595 489ZM502 728L552 805C561 801 567 792 570 780 686 721 771 673 830 639L824 625C692 670 559 713 502 728ZM72 61L81 90 373 90 373 244 205 244 130 209C121 277 99 400 81 485 116 493 134 491 151 482L157 448 382 448C373 665 357 810 328 840 321 847 314 849 299 849 281 849 214 844 175 840L175 857C211 863 250 873 265 883 278 893 283 911 283 927 320 926 351 915 373 894 418 851 437 695 446 456 467 454 479 448 486 440L410 379 372 419 163 419 186 274 373 274 373 332 382 332C404 332 437 318 438 312L438 102C456 98 473 90 480 83L399 21 363 61ZM517 61L526 90 819 90 819 244 644 244 568 209C560 278 541 404 525 492 561 499 577 497 595 487L602 448 848 448C838 664 821 810 792 840 784 847 777 849 762 849 744 849 676 843 637 840L637 857C673 863 713 873 728 883 741 893 746 911 746 927 783 926 815 915 837 893 883 850 901 694 911 456 932 454 944 448 951 440L876 379 838 419 606 419 626 274 819 274 819 332 828 332C849 332 883 318 884 312L884 102C902 98 919 90 926 83L845 21 809 61Z"/>
</svg>