<svg xmlns="http://www.w3.org/2000/svg"
    viewBox="0 0 1000 1000">
  <!--
© 2017-2024 Adobe (http://www.adobe.com/).
Noto is a trademark of Google Inc.
This Font Software is licensed under the SIL Open Font License, Version 1.1. This Font Software is distributed on an "AS IS" BASIS, WITHOUT WARRANTIES OR CONDITIONS OF ANY KIND, either express or implied. See the SIL Open Font License for the specific language, permissions and limitations governing your use of this Font Software.
http://scripts.sil.org/OFL
  -->
<path d="M175 448L165 457C212 492 271 556 287 608 357 652 401 507 175 448ZM50 785L110 862C119 857 126 847 127 834 277 748 387 677 465 625L465 830C465 844 460 849 441 849 420 849 313 841 313 841L313 856C360 862 387 870 403 881 416 892 423 909 424 929 518 920 530 883 530 831L530 449C601 670 738 786 901 865 910 834 930 812 958 808L960 798C858 762 749 709 663 623 734 587 810 536 854 499 876 504 884 501 892 492L809 440C775 487 708 559 648 608 599 555 558 491 531 413L933 413C947 413 957 408 959 397 925 365 870 323 870 323L821 383 680 383 742 130C760 128 768 125 775 117L706 58 671 93 358 93 370 49C395 48 405 38 409 24L310 10C295 85 243 256 210 330 237 340 263 339 277 331L298 275 637 275 611 383 47 383 56 413 465 413 465 616 462 610C291 687 121 760 50 785ZM348 123L674 123 644 246 308 246Z"/>
</svg>