<svg xmlns="http://www.w3.org/2000/svg"
    viewBox="0 0 1000 1000">
  <!--
© 2017-2024 Adobe (http://www.adobe.com/).
Noto is a trademark of Google Inc.
This Font Software is licensed under the SIL Open Font License, Version 1.1. This Font Software is distributed on an "AS IS" BASIS, WITHOUT WARRANTIES OR CONDITIONS OF ANY KIND, either express or implied. See the SIL Open Font License for the specific language, permissions and limitations governing your use of this Font Software.
http://scripts.sil.org/OFL
  -->
<path d="M43 682L52 711 712 711 712 841 169 841 177 870 712 870 712 930 721 930C743 930 775 914 776 908L776 711 935 711C949 711 958 706 961 695 929 665 877 623 877 623L831 682 776 682 776 573C796 569 812 560 819 553L738 491 702 531 174 531 183 560 712 560 712 682ZM49 375L91 454C99 452 109 444 112 432L243 401 243 493 255 493C280 493 308 480 308 471L308 384 488 336 486 319 308 343 308 261 448 261C461 261 472 256 474 245 446 217 402 182 402 182L363 231 308 231 308 137 462 137C475 137 485 132 487 121 458 93 412 56 412 56L371 108 308 108 308 53C333 50 342 39 344 25L243 15 243 108 64 108 72 137 243 137 243 231 84 231 92 261 243 261 243 352C159 363 90 372 49 375ZM485 366L493 396 657 396 657 492 669 492C694 492 721 479 721 471L721 396 920 396C934 396 943 391 946 380 916 350 867 312 867 312L825 366 721 366 721 261 888 261C901 261 910 256 913 245 885 217 838 179 838 179L797 231 721 231 721 137 906 137C920 137 930 132 932 121 902 92 854 53 854 53L811 108 721 108 721 51C746 48 755 38 757 25L657 15 657 108 500 108 507 137 657 137 657 231 514 231 522 261 657 261 657 366Z"/>
</svg>