<svg xmlns="http://www.w3.org/2000/svg" name="gid5276" data-unicode="形"
    viewBox="0 0 1000 1000">
  <!--
© 2017-2024 Adobe (http://www.adobe.com/).
Noto is a trademark of Google Inc.
This Font Software is licensed under the SIL Open Font License, Version 1.1. This Font Software is distributed on an "AS IS" BASIS, WITHOUT WARRANTIES OR CONDITIONS OF ANY KIND, either express or implied. See the SIL Open Font License for the specific language, permissions and limitations governing your use of this Font Software.
http://scripts.sil.org/OFL
  -->
<path d="M855 59C783 175 683 275 574 348L585 365C709 306 826 218 909 121 931 125 940 123 947 113ZM860 316C776 447 663 549 533 621L543 638C689 579 818 491 913 376 937 381 946 378 952 368ZM877 569C781 744 648 857 484 938L492 956C677 889 824 788 935 627 958 631 967 628 974 617ZM396 154L396 422 239 422 239 154ZM39 422L47 450 174 450C173 623 155 804 36 951L50 962C215 825 237 625 239 450L396 450 396 951 406 951C438 951 459 935 460 930L460 450 601 450C614 450 625 446 628 435 595 404 544 362 544 362L497 422 460 422 460 154 578 154C592 154 601 149 604 138 571 108 519 66 519 66L473 125 62 125 70 154 174 154 174 422Z"/>
</svg>