<svg xmlns="http://www.w3.org/2000/svg" name="gid5288" data-unicode="彰"
    viewBox="0 0 1000 1000">
  <!--
© 2017-2024 Adobe (http://www.adobe.com/).
Noto is a trademark of Google Inc.
This Font Software is licensed under the SIL Open Font License, Version 1.1. This Font Software is distributed on an "AS IS" BASIS, WITHOUT WARRANTIES OR CONDITIONS OF ANY KIND, either express or implied. See the SIL Open Font License for the specific language, permissions and limitations governing your use of this Font Software.
http://scripts.sil.org/OFL
  -->
<path d="M823 60C763 155 680 244 591 307L603 323C705 274 806 199 878 123 900 126 908 124 914 114ZM844 310C779 424 688 520 584 590L594 607C715 551 824 467 902 369 923 373 932 371 938 360ZM872 596C776 761 648 866 490 942L498 960C676 899 819 805 929 655 952 659 962 656 968 646ZM279 48L279 152 66 152 74 182 159 182C176 214 194 265 194 308 200 314 206 317 212 319L42 319 50 349 576 349C589 349 599 344 601 333 571 305 520 265 520 265L477 319 383 319C412 286 441 247 460 216 481 216 493 207 496 195L433 182 553 182C567 182 576 177 579 166 547 136 497 97 497 97L452 152 342 152 342 85C367 82 377 72 379 58ZM183 182L397 182C387 224 371 278 356 319L230 319C263 308 276 240 183 182ZM111 414L111 690 121 690C153 690 174 674 174 668L174 651 279 651 279 753 38 753 46 781 279 781 279 957 289 957C321 957 342 943 342 939L342 781 587 781C600 781 610 776 612 766 582 737 532 699 532 699L488 753 342 753 342 651 453 651 453 677 463 677C484 677 515 662 516 656L516 455C535 451 552 444 559 436L479 376 443 414 186 414 111 382ZM174 444L453 444 453 517 174 517ZM174 547L453 547 453 623 174 623Z"/>
</svg>