<svg xmlns="http://www.w3.org/2000/svg" name="gid5294" data-unicode="彷"
    viewBox="0 0 1000 1000">
  <!--
© 2017-2024 Adobe (http://www.adobe.com/).
Noto is a trademark of Google Inc.
This Font Software is licensed under the SIL Open Font License, Version 1.1. This Font Software is distributed on an "AS IS" BASIS, WITHOUT WARRANTIES OR CONDITIONS OF ANY KIND, either express or implied. See the SIL Open Font License for the specific language, permissions and limitations governing your use of this Font Software.
http://scripts.sil.org/OFL
  -->
<path d="M273 48C229 129 135 247 47 322L59 335C164 272 268 179 326 109 349 114 357 109 364 99ZM608 49L608 223 335 223 343 252 540 252C534 537 493 763 300 947L310 959C498 830 569 661 597 449L816 449C806 669 784 828 753 856 741 865 732 868 712 868 690 868 611 861 565 857L564 875C605 881 650 892 667 902 682 913 686 931 686 950 732 951 770 938 798 911 844 866 870 702 880 457 901 455 913 449 920 443L844 378 806 420 600 420C606 367 610 311 613 252L940 252C954 252 964 247 966 236 934 205 881 164 881 164L834 223 673 223 673 85C696 81 704 72 706 59ZM281 256C232 359 130 508 29 606L40 618C94 580 146 535 193 487L193 959 205 959C230 959 257 943 258 937L258 451C275 448 285 441 289 433L256 420C288 384 315 348 337 317 360 321 369 317 376 306Z"/>
</svg>