<svg xmlns="http://www.w3.org/2000/svg" name="gid5298" data-unicode="彼"
    viewBox="0 0 1000 1000">
  <!--
© 2017-2024 Adobe (http://www.adobe.com/).
Noto is a trademark of Google Inc.
This Font Software is licensed under the SIL Open Font License, Version 1.1. This Font Software is distributed on an "AS IS" BASIS, WITHOUT WARRANTIES OR CONDITIONS OF ANY KIND, either express or implied. See the SIL Open Font License for the specific language, permissions and limitations governing your use of this Font Software.
http://scripts.sil.org/OFL
  -->
<path d="M246 42C204 119 118 234 37 309L49 320C148 260 244 169 299 102 322 107 331 103 337 93ZM259 240C217 343 126 494 34 594L45 605C90 571 134 530 173 487L173 958 185 958C210 958 237 941 238 935L238 451C253 448 263 442 267 433L231 419C265 376 294 334 316 298 341 301 349 297 355 286ZM607 250L607 448 448 448 448 402 448 250ZM383 221L383 403C383 573 373 765 280 923L295 934C416 803 442 624 447 478L515 478C539 587 577 676 629 749 555 829 458 894 334 940L342 956C478 918 582 862 662 791 726 863 807 917 907 957 919 926 941 908 969 904L971 894C865 864 775 817 702 752 773 676 822 587 857 488 880 487 891 484 899 475L825 407 781 448 671 448 671 250 849 250 809 381 823 387C852 356 901 296 928 262 947 261 959 260 965 252L890 178 846 221 671 221 671 86C693 82 702 74 704 60L607 50 607 221 459 221 383 188ZM782 478C756 564 717 643 662 711 606 648 563 571 538 478Z"/>
</svg>