<svg xmlns="http://www.w3.org/2000/svg" name="gid5304" data-unicode="徂"
    viewBox="0 0 1000 1000">
  <!--
© 2017-2024 Adobe (http://www.adobe.com/).
Noto is a trademark of Google Inc.
This Font Software is licensed under the SIL Open Font License, Version 1.1. This Font Software is distributed on an "AS IS" BASIS, WITHOUT WARRANTIES OR CONDITIONS OF ANY KIND, either express or implied. See the SIL Open Font License for the specific language, permissions and limitations governing your use of this Font Software.
http://scripts.sil.org/OFL
  -->
<path d="M261 42C219 123 130 238 42 311L53 324C159 264 260 171 316 100 339 105 347 100 354 91ZM278 246C230 352 130 504 29 601L40 614C90 578 138 536 182 492L182 958 194 958C220 958 246 941 247 935L247 456C263 454 273 447 277 438L243 425C279 383 310 341 334 305 358 309 367 305 373 294ZM295 896L303 925 959 925C972 925 982 920 985 910 956 879 906 837 906 837L864 896 842 896 842 148C867 145 880 139 887 130L801 63 767 108 509 108 435 76 435 896ZM498 896L498 655 778 655 778 896ZM498 393L778 393 778 627 498 627ZM498 364L498 137 778 137 778 364Z"/>
</svg>