<svg xmlns="http://www.w3.org/2000/svg" name="gid5307" data-unicode="待"
    viewBox="0 0 1000 1000">
  <!--
© 2017-2024 Adobe (http://www.adobe.com/).
Noto is a trademark of Google Inc.
This Font Software is licensed under the SIL Open Font License, Version 1.1. This Font Software is distributed on an "AS IS" BASIS, WITHOUT WARRANTIES OR CONDITIONS OF ANY KIND, either express or implied. See the SIL Open Font License for the specific language, permissions and limitations governing your use of this Font Software.
http://scripts.sil.org/OFL
  -->
<path d="M354 97L263 45C219 126 125 243 40 319L51 332C155 269 258 175 316 106 338 110 348 107 354 97ZM417 623L406 631C446 674 499 745 514 798 583 846 633 708 417 623ZM275 441L239 427C273 385 303 344 326 309 350 313 359 309 365 298L270 250C225 351 129 503 34 603L45 615C93 579 139 536 181 492L181 958 193 958C219 958 244 941 245 935L245 459C263 456 272 450 275 441ZM874 499L829 557 775 557 775 490C798 487 808 479 811 465L710 454 710 557 340 557 348 587 710 587 710 869C710 884 705 891 683 891 659 891 533 882 533 882L533 897C587 903 617 911 634 921 651 931 658 946 661 963 762 955 775 923 775 872L775 587 932 587C946 587 956 582 959 571 926 540 874 499 874 499ZM827 151L781 209 648 209 648 77C670 73 679 65 681 51L583 41 583 209 367 209 375 238 583 238 583 395 303 395 311 424 945 424C959 424 968 419 971 408 938 377 885 336 885 336L839 395 648 395 648 238 886 238C900 238 910 233 913 222 879 191 827 151 827 151Z"/>
</svg>