<svg xmlns="http://www.w3.org/2000/svg"
    viewBox="0 0 1000 1000">
  <!--
© 2017-2024 Adobe (http://www.adobe.com/).
Noto is a trademark of Google Inc.
This Font Software is licensed under the SIL Open Font License, Version 1.1. This Font Software is distributed on an "AS IS" BASIS, WITHOUT WARRANTIES OR CONDITIONS OF ANY KIND, either express or implied. See the SIL Open Font License for the specific language, permissions and limitations governing your use of this Font Software.
http://scripts.sil.org/OFL
  -->
<path d="M204 13C170 86 100 194 31 265L43 278C128 219 211 131 257 69 281 73 289 68 295 58ZM679 102L679 928 690 928C717 928 739 912 739 904L739 132 855 132 855 687C855 701 851 706 837 706 821 706 758 700 758 700L758 717C788 721 806 728 816 738 826 748 829 765 831 784 906 776 915 747 915 695L915 144C935 140 952 132 958 124L877 63 845 102 743 102 679 71ZM218 213C182 312 107 460 28 558L40 570C75 540 108 505 138 469L138 928 150 928C174 928 199 914 200 908L200 428C218 425 228 420 231 411L194 396C226 351 253 307 274 270 298 275 306 270 312 260L300 254C323 234 345 210 365 183L444 183 444 343 274 343 282 372 444 372 444 752 363 769 363 485C385 482 394 474 396 461L307 451 307 779 242 790 281 875C291 872 301 864 304 852 462 799 579 754 664 722L661 707 503 740 503 560 640 560C654 560 663 555 666 545 636 515 588 477 588 477L547 531 503 531 503 372 650 372C664 372 674 367 676 356 646 327 595 286 595 286L552 343 503 343 503 183 634 183C647 183 657 178 659 167 630 140 583 101 583 101L541 154 386 154C404 126 421 96 436 64 456 65 468 56 472 45L376 13C355 100 318 186 281 244Z"/>
</svg>