<svg xmlns="http://www.w3.org/2000/svg"
    viewBox="0 0 1000 1000">
  <!--
© 2017-2024 Adobe (http://www.adobe.com/).
Noto is a trademark of Google Inc.
This Font Software is licensed under the SIL Open Font License, Version 1.1. This Font Software is distributed on an "AS IS" BASIS, WITHOUT WARRANTIES OR CONDITIONS OF ANY KIND, either express or implied. See the SIL Open Font License for the specific language, permissions and limitations governing your use of this Font Software.
http://scripts.sil.org/OFL
  -->
<path d="M202 13C170 80 103 182 40 249L53 262C132 207 211 126 255 69 278 74 286 70 293 59ZM225 200C188 295 111 441 35 541L47 552C82 521 115 485 146 448L146 928 158 928C181 928 207 913 208 908L208 407C226 404 235 397 239 388L203 375C234 333 261 292 281 257 305 261 313 256 319 245ZM728 264L842 264C834 393 817 510 779 615 742 527 720 426 706 319ZM322 411L322 921 332 921C359 921 383 906 383 899L383 699 533 699 533 816C533 828 529 834 515 834 500 834 437 828 437 828L437 845C468 849 485 856 495 865 504 874 508 891 510 909 584 900 592 873 592 823L592 452C612 448 627 441 634 434L640 437C658 412 674 385 689 354 700 471 719 581 753 678 712 766 655 844 574 915L585 928C668 872 729 808 776 735 808 810 852 875 911 926 921 895 943 880 971 875L975 866C903 819 849 754 808 678 867 560 893 423 905 264L950 264C963 264 973 259 976 248 944 218 895 182 895 182L853 235 738 235C757 179 772 118 783 57 804 56 814 45 818 33L719 15C706 166 673 318 626 425L554 371 523 411 387 411 322 380ZM512 191L500 197C516 219 535 249 550 280L395 292C421 257 450 209 472 168L651 168C665 168 675 163 677 152 647 124 599 85 599 85L558 140 488 140 488 54C510 50 518 41 520 28L427 18 427 140 262 140 270 168 399 168C389 208 373 258 359 294L274 299 306 375C314 373 324 367 329 355 426 333 502 314 559 299 568 318 574 336 577 353 633 401 689 283 512 191ZM383 567L533 567 533 671 383 671ZM383 538L383 440 533 440 533 538Z"/>
</svg>