<svg xmlns="http://www.w3.org/2000/svg"
    viewBox="0 0 1000 1000">
  <!--
© 2017-2023 Adobe (http://www.adobe.com/).
Noto is a trademark of Google Inc.
This Font Software is licensed under the SIL Open Font License, Version 1.1. This Font Software is distributed on an "AS IS" BASIS, WITHOUT WARRANTIES OR CONDITIONS OF ANY KIND, either express or implied. See the SIL Open Font License for the specific language, permissions and limitations governing your use of this Font Software.
http://scripts.sil.org/OFL
  -->
<path d="M528 687L516 694C545 725 578 775 587 814 643 854 693 745 528 687ZM343 683C323 756 292 827 260 874L275 884C319 848 361 791 390 730 411 731 422 722 427 712ZM205 13C174 84 108 190 44 260L56 272C137 215 214 130 257 70 281 74 289 69 295 59ZM736 14C713 179 665 347 609 462L625 471C648 440 670 405 689 366 699 475 716 577 745 668 699 762 633 845 539 918L550 931C645 872 715 804 767 725 800 805 846 874 910 927 919 897 941 882 969 877L972 867C896 819 840 752 799 671 860 556 890 421 904 266L945 266C959 266 967 261 970 250 940 221 893 186 893 186L853 236 745 236C765 179 782 119 796 58 819 57 830 47 833 35ZM705 334C715 312 725 289 734 266L841 266C832 393 812 507 771 609 739 527 719 434 705 334ZM537 526L526 533C540 549 556 570 569 592L409 603C469 552 526 492 561 450 583 456 591 451 598 441L520 398C490 455 429 541 372 605L271 609 295 683C305 682 314 676 320 664L440 641 440 926 449 926C478 926 498 912 498 908L498 629 581 612C591 631 599 651 603 668 658 710 708 599 537 526ZM216 214C182 310 108 457 33 556L45 567C80 535 114 498 145 459L145 928 157 928C180 928 206 913 207 908L207 420C224 417 233 411 237 402L199 387C228 345 253 304 272 270 295 274 304 270 309 260L311 260C331 260 355 248 355 241L355 226 584 226 584 244 594 244C615 244 638 233 638 226L638 97C660 94 668 86 670 73L584 64 584 197 499 197 499 51C520 47 528 38 530 26L442 17 442 197 355 197 355 97C377 94 385 86 387 73L301 64 301 253ZM286 298L294 328 429 328C418 361 397 406 376 441 358 430 334 421 302 414L293 422C324 448 361 493 372 530 416 557 451 501 396 454 429 427 461 392 481 367 504 372 511 368 517 357L461 328 636 328C649 328 658 323 661 312 633 286 591 254 591 254L554 298Z"/>
</svg>