<svg xmlns="http://www.w3.org/2000/svg"
    viewBox="0 0 1000 1000">
  <!--
© 2017-2024 Adobe (http://www.adobe.com/).
Noto is a trademark of Google Inc.
This Font Software is licensed under the SIL Open Font License, Version 1.1. This Font Software is distributed on an "AS IS" BASIS, WITHOUT WARRANTIES OR CONDITIONS OF ANY KIND, either express or implied. See the SIL Open Font License for the specific language, permissions and limitations governing your use of this Font Software.
http://scripts.sil.org/OFL
  -->
<path d="M420 560L411 570C469 605 539 673 558 732 635 774 668 611 420 560ZM300 605L300 841C300 892 317 906 407 906L543 906C730 906 764 896 764 865 764 852 758 844 735 837L732 720 719 720C707 773 696 817 688 833 684 843 680 846 666 847 649 848 603 848 545 848L416 848C370 848 365 844 365 830L365 639C383 636 393 627 394 614ZM183 619C176 704 119 775 70 801 49 815 37 836 46 856 58 878 96 874 123 854 167 824 222 745 201 620ZM734 602L722 611C793 668 876 764 894 845 976 903 1024 712 734 602ZM177 247L177 440C177 501 204 511 329 511L558 511C855 511 897 503 897 467 897 453 886 446 859 440L857 306 843 306C830 369 819 412 809 433 802 445 798 449 775 451 747 453 665 454 560 454L326 454C249 454 243 450 243 431L243 276 724 276 724 338 734 338C755 338 788 323 789 318L789 112C808 108 825 100 832 92L750 30 714 71 149 71 158 100 724 100 724 247 254 247 177 213Z"/>
</svg>