<svg xmlns="http://www.w3.org/2000/svg"
    viewBox="0 0 1000 1000">
  <!--
© 2017-2023 Adobe (http://www.adobe.com/).
Noto is a trademark of Google Inc.
This Font Software is licensed under the SIL Open Font License, Version 1.1. This Font Software is distributed on an "AS IS" BASIS, WITHOUT WARRANTIES OR CONDITIONS OF ANY KIND, either express or implied. See the SIL Open Font License for the specific language, permissions and limitations governing your use of this Font Software.
http://scripts.sil.org/OFL
  -->
<path d="M290 90C247 177 156 278 63 339L72 354C183 307 296 223 352 146 370 150 380 147 385 138ZM427 554L417 563C471 601 534 671 548 730 620 778 664 617 427 554ZM735 642L725 652C792 700 871 786 890 858 970 910 1014 729 735 642ZM299 629L299 842C299 894 315 907 404 907L540 907C727 907 760 897 760 866 760 853 753 845 730 838L727 727 715 727C704 777 693 819 686 835 681 844 676 847 662 848 646 849 600 849 542 849L413 849C368 849 364 845 364 831L364 663C382 660 391 651 392 639ZM189 652C177 726 119 788 73 810 52 823 39 844 48 863 60 884 96 882 122 864 165 837 221 766 206 654ZM151 450L190 540C200 538 211 532 217 520 437 492 598 470 720 451 749 484 773 518 785 549 872 598 903 406 584 314L574 324C615 351 661 388 701 429 567 436 440 442 337 445 402 383 468 305 502 256 523 260 536 250 539 241L439 198C416 258 359 367 311 446 244 449 189 450 151 450ZM374 61L383 89 634 89C675 193 768 280 885 338 892 311 915 290 942 283L944 272C817 236 705 165 661 91 692 90 715 84 725 72L641 16 611 61Z"/>
</svg>