<svg xmlns="http://www.w3.org/2000/svg"
    viewBox="0 0 1000 1000">
  <!--
© 2017-2024 Adobe (http://www.adobe.com/).
Noto is a trademark of Google Inc.
This Font Software is licensed under the SIL Open Font License, Version 1.1. This Font Software is distributed on an "AS IS" BASIS, WITHOUT WARRANTIES OR CONDITIONS OF ANY KIND, either express or implied. See the SIL Open Font License for the specific language, permissions and limitations governing your use of this Font Software.
http://scripts.sil.org/OFL
  -->
<path d="M190 12L190 928 203 928C227 928 254 913 254 904L254 51C280 47 287 36 290 22ZM111 208C114 277 88 357 61 389 43 407 34 429 48 447 64 467 100 456 116 431 141 394 157 311 129 208ZM287 183L273 188C297 230 320 296 320 348 373 400 438 282 287 183ZM776 241L776 485 611 485C620 413 623 332 624 241ZM558 22L559 212 373 212 382 241 559 241C558 332 556 413 547 485L295 485 303 515 543 515C517 685 449 803 270 889L282 907C499 821 578 697 607 515L614 515C639 663 702 817 912 905 919 869 940 858 973 853L975 841C750 766 665 647 633 515L949 515C962 515 971 510 974 499 947 469 899 426 899 426L859 485 838 485 838 253C858 249 874 241 881 233L803 173 766 212 624 212 625 61C647 58 657 47 659 33Z"/>
</svg>