<svg xmlns="http://www.w3.org/2000/svg"
    viewBox="0 0 1000 1000">
  <!--
© 2017-2023 Adobe (http://www.adobe.com/).
Noto is a trademark of Google Inc.
This Font Software is licensed under the SIL Open Font License, Version 1.1. This Font Software is distributed on an "AS IS" BASIS, WITHOUT WARRANTIES OR CONDITIONS OF ANY KIND, either express or implied. See the SIL Open Font License for the specific language, permissions and limitations governing your use of this Font Software.
http://scripts.sil.org/OFL
  -->
<path d="M184 12L184 929 197 929C221 929 247 914 247 905L247 51C272 47 280 37 283 23ZM104 205C108 275 84 356 58 389 41 407 33 430 46 446 62 466 97 454 113 429 137 392 151 310 123 206ZM277 166L264 172C288 213 312 279 313 330 366 381 429 265 277 166ZM356 83L365 112 511 112C506 204 499 320 490 439L295 439 303 468 488 468C478 610 465 751 453 856L294 856 302 885 941 885C954 885 964 881 966 870 937 839 887 797 887 797L843 856 806 856 822 468 955 468C968 468 978 463 980 452 951 422 901 380 901 380L859 439 823 439 837 119C856 116 866 111 873 105L799 39 763 83ZM517 856C529 752 541 610 552 468L755 468 738 856ZM554 439C562 321 569 204 574 112L772 112 757 439Z"/>
</svg>