<svg xmlns="http://www.w3.org/2000/svg" name="gid5392" data-unicode="忼"
    viewBox="0 0 1000 1000">
  <!--
© 2017-2024 Adobe (http://www.adobe.com/).
Noto is a trademark of Google Inc.
This Font Software is licensed under the SIL Open Font License, Version 1.1. This Font Software is distributed on an "AS IS" BASIS, WITHOUT WARRANTIES OR CONDITIONS OF ANY KIND, either express or implied. See the SIL Open Font License for the specific language, permissions and limitations governing your use of this Font Software.
http://scripts.sil.org/OFL
  -->
<path d="M190 42L190 958 203 958C227 958 254 943 254 934L254 81C280 77 287 66 290 52ZM116 236C117 307 88 387 60 420 43 437 34 460 47 477 64 496 99 485 115 460 141 424 160 342 134 237ZM283 206L269 212C295 252 320 318 321 368 375 419 438 302 283 206ZM600 44L600 207 355 207 363 237 935 237C949 237 959 232 962 221 929 190 876 148 876 148L830 207 665 207 665 81C690 78 700 68 702 54ZM474 363L474 549C474 694 449 833 303 944L314 956C515 850 538 686 538 548L538 392 736 392 736 879C736 923 746 942 803 942L855 942C946 942 972 928 972 901 972 889 968 882 948 873L945 745 932 745C923 795 912 857 906 869 902 878 899 879 893 879 887 880 874 880 857 880L821 880C803 880 801 875 801 862L801 404C821 400 833 395 840 388L762 322 726 363 551 363 474 329Z"/>
</svg>