<svg xmlns="http://www.w3.org/2000/svg" name="gid5401" data-unicode="怒"
    viewBox="0 0 1000 1000">
  <!--
© 2017-2024 Adobe (http://www.adobe.com/).
Noto is a trademark of Google Inc.
This Font Software is licensed under the SIL Open Font License, Version 1.1. This Font Software is distributed on an "AS IS" BASIS, WITHOUT WARRANTIES OR CONDITIONS OF ANY KIND, either express or implied. See the SIL Open Font License for the specific language, permissions and limitations governing your use of this Font Software.
http://scripts.sil.org/OFL
  -->
<path d="M422 588L413 598C469 634 537 701 555 759 630 801 663 639 422 588ZM199 653C191 738 131 803 80 827 59 840 44 860 54 880 65 904 102 901 131 883 178 855 238 779 216 654ZM733 640L722 650C791 707 872 805 888 885 970 943 1020 754 733 640ZM303 622L303 874C303 925 321 939 410 939L545 939C731 939 765 929 765 898 765 885 759 878 735 870L733 750 720 750C709 804 697 850 689 866 685 876 681 878 667 879 650 881 605 881 547 881L419 881C373 881 368 877 368 862L368 656C386 653 396 645 398 633ZM814 144C794 226 761 302 712 367 660 307 621 232 598 144ZM491 115L500 144 577 144C598 250 631 337 678 408 626 466 559 514 475 552L484 568C575 537 648 495 706 445 757 508 822 557 903 594 914 564 936 544 965 541L966 531C880 502 807 461 748 405 815 333 859 247 888 152 909 150 919 148 926 139L854 74 812 115ZM258 42C248 76 230 128 208 184L42 184 51 214 196 214C165 293 128 375 101 422 126 432 152 434 167 426L189 379C234 394 275 412 311 431 254 506 170 563 49 603L55 620C195 586 290 532 356 458 392 481 420 505 437 524 491 545 515 468 394 409 431 355 456 292 475 222 496 220 507 218 513 209L442 145 402 184 273 184C289 143 303 107 312 82 337 81 348 71 352 58ZM260 214L405 214C391 279 371 337 340 388 303 376 256 365 198 358 219 313 241 262 260 214Z"/>
</svg>