<svg xmlns="http://www.w3.org/2000/svg" name="gid5415" data-unicode="怡"
    viewBox="0 0 1000 1000">
  <!--
© 2017-2024 Adobe (http://www.adobe.com/).
Noto is a trademark of Google Inc.
This Font Software is licensed under the SIL Open Font License, Version 1.1. This Font Software is distributed on an "AS IS" BASIS, WITHOUT WARRANTIES OR CONDITIONS OF ANY KIND, either express or implied. See the SIL Open Font License for the specific language, permissions and limitations governing your use of this Font Software.
http://scripts.sil.org/OFL
  -->
<path d="M194 42L194 958 206 958C231 958 258 943 258 934L258 81C283 77 291 66 294 52ZM112 228C114 299 86 379 58 411 41 429 33 451 46 469 62 489 97 477 114 452 139 416 157 334 130 229ZM299 194L287 199C312 238 342 300 344 347 400 397 462 278 299 194ZM429 557L429 956 439 956C466 956 493 940 493 934L493 876 828 876 828 950 838 950C860 950 893 934 894 928L894 598C913 594 929 586 936 579L855 516 818 557 498 557 429 524ZM828 846L493 846 493 585 828 585ZM347 382L373 472C383 470 394 463 401 452 596 426 744 404 859 385 875 414 888 443 895 468 972 525 1019 355 742 198L729 205C767 248 812 307 847 365 725 371 609 375 515 378 571 285 627 174 660 94 683 95 695 85 699 73L590 45C565 142 524 276 487 379Z"/>
</svg>