<svg xmlns="http://www.w3.org/2000/svg" name="gid5417" data-unicode="怤"
    viewBox="0 0 1000 1000">
  <!--
© 2017-2024 Adobe (http://www.adobe.com/).
Noto is a trademark of Google Inc.
This Font Software is licensed under the SIL Open Font License, Version 1.1. This Font Software is distributed on an "AS IS" BASIS, WITHOUT WARRANTIES OR CONDITIONS OF ANY KIND, either express or implied. See the SIL Open Font License for the specific language, permissions and limitations governing your use of this Font Software.
http://scripts.sil.org/OFL
  -->
<path d="M406 265L395 273C443 313 501 382 516 439 588 488 639 334 406 265ZM418 574L408 583C464 622 530 691 546 751 619 795 657 632 418 574ZM199 653C191 737 131 803 79 827 59 840 44 860 53 880 65 903 101 900 131 882 177 854 237 779 216 654ZM735 630L724 639C793 695 874 794 890 874 972 932 1023 742 735 630ZM303 622L303 874C303 925 321 939 410 939L545 939C731 939 765 929 765 898 765 885 759 878 735 870L733 750 720 750C709 804 697 850 689 866 685 876 681 878 667 879 650 881 605 881 547 881L419 881C373 881 368 877 368 862L368 656C386 653 396 645 398 633ZM263 41C209 184 122 322 43 404L57 416C107 379 157 330 203 272L203 611 215 611C240 611 266 596 267 591L267 252C284 249 295 243 298 234L246 215C272 177 296 137 317 95 339 98 351 90 356 80ZM725 49L725 201 335 201 343 231 725 231 725 504C725 520 719 526 697 526 674 526 550 517 550 517L550 533C602 539 632 549 650 560 665 570 672 587 675 608 778 598 790 564 790 509L790 231 936 231C950 231 960 226 962 215 931 184 881 145 881 145L835 201 790 201 790 85C813 81 822 73 825 59Z"/>
</svg>