<svg xmlns="http://www.w3.org/2000/svg" name="gid5421" data-unicode="怨"
    viewBox="0 0 1000 1000">
  <!--
© 2017-2024 Adobe (http://www.adobe.com/).
Noto is a trademark of Google Inc.
This Font Software is licensed under the SIL Open Font License, Version 1.1. This Font Software is distributed on an "AS IS" BASIS, WITHOUT WARRANTIES OR CONDITIONS OF ANY KIND, either express or implied. See the SIL Open Font License for the specific language, permissions and limitations governing your use of this Font Software.
http://scripts.sil.org/OFL
  -->
<path d="M411 562L401 572C459 609 528 681 545 741 619 785 656 622 411 562ZM303 621L303 875C303 926 321 940 410 940L545 940C731 940 765 930 765 899 765 886 759 878 735 871L733 751 720 751C709 804 697 851 689 867 685 877 681 879 667 880 650 882 605 882 547 882L419 882C373 882 368 878 368 862L368 655C386 652 396 644 398 632ZM199 640C191 728 131 796 80 822 59 834 45 855 54 875 66 898 103 895 132 876 178 847 239 770 216 641ZM733 628L722 637C793 696 875 797 892 879 976 937 1026 745 733 628ZM252 39C220 162 144 297 51 375L64 385C110 358 152 322 190 281 231 308 276 353 290 392 356 428 390 302 204 265 228 237 250 207 269 176L435 176C386 378 272 529 43 615L52 631C324 553 442 395 503 185 525 183 535 181 542 172L472 107 430 147 286 147C300 123 312 98 322 74 347 75 355 70 358 59ZM565 113L565 513C565 565 581 580 660 580L765 580C920 580 952 570 952 540 952 527 946 521 923 513L920 408 908 408C898 454 887 499 880 511 876 518 870 520 860 521 846 522 812 522 767 522L671 522C633 522 628 517 628 500L628 142 807 142 807 321C807 335 803 341 786 341 765 341 682 334 682 334L682 350C721 354 743 362 756 371 767 381 771 396 774 414 858 405 869 376 869 328L869 154C889 151 905 142 911 134L829 74 797 113 640 113 565 80Z"/>
</svg>