<svg xmlns="http://www.w3.org/2000/svg"
    viewBox="0 0 1000 1000">
  <!--
© 2017-2023 Adobe (http://www.adobe.com/).
Noto is a trademark of Google Inc.
This Font Software is licensed under the SIL Open Font License, Version 1.1. This Font Software is distributed on an "AS IS" BASIS, WITHOUT WARRANTIES OR CONDITIONS OF ANY KIND, either express or implied. See the SIL Open Font License for the specific language, permissions and limitations governing your use of this Font Software.
http://scripts.sil.org/OFL
  -->
<path d="M189 12L189 928 201 928C225 928 251 913 251 904L251 50C277 46 285 36 288 22ZM109 199C110 272 82 353 54 385 37 403 30 425 42 442 58 460 92 448 108 423 133 387 153 305 127 200ZM280 176L267 182C292 222 318 288 319 338 372 389 434 272 280 176ZM474 102L841 102 841 271 474 271ZM410 74L410 337C410 533 399 745 302 915L317 925C464 756 474 516 474 336L474 300 841 300 841 362 851 362C872 362 904 348 905 342L905 115C925 111 942 103 948 95L868 33 831 74 486 74 410 40ZM550 378L550 822C550 875 568 891 650 891L764 891C927 891 961 880 961 850 961 837 955 830 932 821L929 680 916 680C905 741 893 801 886 816 881 826 876 829 864 829 850 831 814 832 765 832L660 832C619 832 613 826 613 807L613 622C701 595 810 543 892 481 910 488 921 486 929 478L856 415C783 489 691 556 613 598L613 415C634 412 644 402 646 389Z"/>
</svg>