<svg xmlns="http://www.w3.org/2000/svg" name="gid5429" data-unicode="怵"
    viewBox="0 0 1000 1000">
  <!--
© 2017-2024 Adobe (http://www.adobe.com/).
Noto is a trademark of Google Inc.
This Font Software is licensed under the SIL Open Font License, Version 1.1. This Font Software is distributed on an "AS IS" BASIS, WITHOUT WARRANTIES OR CONDITIONS OF ANY KIND, either express or implied. See the SIL Open Font License for the specific language, permissions and limitations governing your use of this Font Software.
http://scripts.sil.org/OFL
  -->
<path d="M188 42L188 958 201 958C224 958 250 944 250 934L250 80C275 76 283 66 286 52ZM104 235C109 305 86 385 60 418 43 437 35 460 48 476 65 496 100 483 115 458 139 421 152 338 122 236ZM280 193L267 198C288 239 308 304 306 353 358 407 425 292 280 193ZM724 67L713 75C746 102 784 149 796 188 856 228 904 107 724 67ZM749 351L749 790C749 830 759 846 813 846L862 846C949 846 973 835 973 810 973 798 969 790 951 783L948 629 934 629C925 689 913 763 908 778 904 787 902 789 895 790 891 791 878 791 862 791L828 791C812 791 809 787 809 774L809 387C828 384 838 375 839 362ZM432 355C431 543 434 729 295 866L308 882C488 752 491 564 496 389 517 386 525 376 527 364ZM587 42L587 240 362 240 369 269 587 269 587 958 600 958C624 958 650 942 650 932L650 269 946 269C960 269 969 264 971 253 939 222 885 179 885 179L837 240 650 240 650 80C676 76 684 66 686 52Z"/>
</svg>