<svg xmlns="http://www.w3.org/2000/svg"
    viewBox="0 0 1000 1000">
  <!--
© 2017-2023 Adobe (http://www.adobe.com/).
Noto is a trademark of Google Inc.
This Font Software is licensed under the SIL Open Font License, Version 1.1. This Font Software is distributed on an "AS IS" BASIS, WITHOUT WARRANTIES OR CONDITIONS OF ANY KIND, either express or implied. See the SIL Open Font License for the specific language, permissions and limitations governing your use of this Font Software.
http://scripts.sil.org/OFL
  -->
<path d="M833 71C813 139 770 245 730 319L743 332C798 268 865 183 898 127 914 131 926 129 931 120ZM398 81L384 87C420 147 460 240 461 313 521 371 584 222 398 81ZM185 12L185 928 198 928C222 928 249 913 249 904L249 51C275 47 282 36 285 22ZM105 194C109 266 83 349 57 383 39 401 32 423 45 440 62 460 97 448 112 422 137 384 152 300 123 195ZM275 166L262 171C287 212 313 279 314 329 368 380 430 262 275 166ZM603 13L603 396 323 396 331 425 510 425C506 613 487 778 268 913L279 927C546 809 567 638 575 425L685 425 685 838C685 885 697 902 762 902L830 902C944 902 970 890 970 863 970 850 965 842 945 834L942 723 929 723C920 769 909 819 903 832 898 839 895 840 888 841 879 842 858 842 832 842L776 842C752 842 749 837 749 822L749 425 940 425C954 425 963 420 965 410 934 378 881 336 881 336L835 396 667 396 667 51C692 47 702 37 704 23Z"/>
</svg>