<svg xmlns="http://www.w3.org/2000/svg"
    viewBox="0 0 1000 1000">
  <!--
© 2017-2024 Adobe (http://www.adobe.com/).
Noto is a trademark of Google Inc.
This Font Software is licensed under the SIL Open Font License, Version 1.1. This Font Software is distributed on an "AS IS" BASIS, WITHOUT WARRANTIES OR CONDITIONS OF ANY KIND, either express or implied. See the SIL Open Font License for the specific language, permissions and limitations governing your use of this Font Software.
http://scripts.sil.org/OFL
  -->
<path d="M543 343C546 412 518 489 488 521 470 537 461 558 473 575 488 595 521 585 540 562 567 528 588 449 561 343ZM173 12L173 928 186 928C209 928 236 914 236 904L236 50C260 46 268 36 271 22ZM96 209C101 277 78 357 53 390 36 407 29 430 41 447 58 466 93 454 107 429 130 393 143 311 113 210ZM263 182L249 187C272 229 295 294 293 346 343 398 407 283 263 182ZM711 253C734 250 743 239 745 227L649 217C648 529 659 754 380 909L393 926C628 818 687 664 704 472 724 691 775 842 910 925 918 888 939 873 970 868L972 857C856 799 791 714 755 590 813 542 870 469 914 394 936 397 948 390 954 379L860 335C829 419 787 508 749 568 727 482 716 378 711 253ZM315 148L323 177 413 177C406 470 359 745 260 900L275 911C409 754 466 473 482 177L934 177C948 177 958 172 961 161 928 131 875 88 875 88L829 148 484 148 487 50C509 47 519 36 521 21L413 11C414 57 414 103 414 148Z"/>
</svg>