<svg xmlns="http://www.w3.org/2000/svg" name="gid5467" data-unicode="息"
    viewBox="0 0 1000 1000">
  <!--
© 2017-2024 Adobe (http://www.adobe.com/).
Noto is a trademark of Google Inc.
This Font Software is licensed under the SIL Open Font License, Version 1.1. This Font Software is distributed on an "AS IS" BASIS, WITHOUT WARRANTIES OR CONDITIONS OF ANY KIND, either express or implied. See the SIL Open Font License for the specific language, permissions and limitations governing your use of this Font Software.
http://scripts.sil.org/OFL
  -->
<path d="M426 613L417 622C470 656 534 721 550 777 621 821 659 665 426 613ZM730 659L720 668C789 718 872 808 891 883 973 935 1016 752 730 659ZM299 643L299 870C299 922 315 935 404 935L539 935C724 935 757 924 757 892 757 880 750 873 727 866L725 748 712 748C700 801 691 846 682 861 677 871 674 873 659 874 643 876 598 876 541 876L413 876C368 876 364 873 364 858L364 678C382 675 391 666 392 654ZM189 668C178 746 120 810 73 835 52 847 40 868 48 887 61 908 97 905 123 887 166 858 222 784 206 669ZM284 444L718 444 718 550 284 550ZM284 414L284 311 718 311 718 414ZM284 281L284 180 718 180 718 281ZM459 34C450 68 435 116 423 150L290 150 220 117 220 634 230 634C257 634 284 618 284 610L284 578 718 578 718 631 728 631C750 631 782 615 783 608L783 191C803 187 819 180 826 172L745 109 708 150 465 150C488 128 514 101 532 80 553 81 567 73 571 59Z"/>
</svg>