<svg xmlns="http://www.w3.org/2000/svg"
    viewBox="0 0 1000 1000">
  <!--
© 2017-2024 Adobe (http://www.adobe.com/).
Noto is a trademark of Google Inc.
This Font Software is licensed under the SIL Open Font License, Version 1.1. This Font Software is distributed on an "AS IS" BASIS, WITHOUT WARRANTIES OR CONDITIONS OF ANY KIND, either express or implied. See the SIL Open Font License for the specific language, permissions and limitations governing your use of this Font Software.
http://scripts.sil.org/OFL
  -->
<path d="M426 583L417 592C470 626 534 691 550 747 621 791 659 635 426 583ZM730 629L720 638C789 688 872 778 891 853 973 905 1016 722 730 629ZM299 613L299 840C299 892 315 905 404 905L539 905C724 905 757 894 757 862 757 850 750 843 727 836L725 718 712 718C700 771 691 816 682 831 677 841 674 843 659 844 643 846 598 846 541 846L413 846C368 846 364 843 364 828L364 648C382 645 391 636 392 624ZM189 638C178 716 120 780 73 805 52 817 40 838 48 857 61 878 97 875 123 857 166 828 222 754 206 639ZM284 414L718 414 718 520 284 520ZM284 384L284 281 718 281 718 384ZM284 251L284 150 718 150 718 251ZM459 4C450 38 435 86 423 120L290 120 220 87 220 604 230 604C257 604 284 588 284 580L284 548 718 548 718 601 728 601C750 601 782 585 783 578L783 161C803 157 819 150 826 142L745 79 708 120 465 120C488 98 514 71 532 50 553 51 567 43 571 29Z"/>
</svg>