<svg xmlns="http://www.w3.org/2000/svg"
    viewBox="0 0 1000 1000">
  <!--
© 2017-2023 Adobe (http://www.adobe.com/).
Noto is a trademark of Google Inc.
This Font Software is licensed under the SIL Open Font License, Version 1.1. This Font Software is distributed on an "AS IS" BASIS, WITHOUT WARRANTIES OR CONDITIONS OF ANY KIND, either express or implied. See the SIL Open Font License for the specific language, permissions and limitations governing your use of this Font Software.
http://scripts.sil.org/OFL
  -->
<path d="M191 12L191 928 204 928C228 928 255 913 255 904L255 51C280 47 288 36 291 22ZM116 206C117 277 88 357 60 390 43 407 34 430 47 447 64 466 99 455 115 430 141 394 160 312 134 207ZM293 189L279 195C304 235 330 300 331 350 385 402 448 284 293 189ZM497 556L834 556 834 676 497 676ZM497 527L497 408 834 408 834 527ZM432 379L432 924 442 924C471 924 497 908 497 901L497 706 834 706 834 823C834 838 829 844 812 844 790 844 693 837 693 837L693 853C736 859 760 866 775 877 788 888 793 906 796 926 889 917 900 883 900 832L900 420C918 416 934 408 941 400L857 338 824 379 502 379 432 347ZM451 55L451 317 461 317C494 317 514 302 514 297L514 262 818 262 818 308 827 308C857 308 882 294 882 290L882 88C901 84 910 79 916 72L845 17 814 55 525 55 451 23ZM514 232L514 84 818 84 818 232Z"/>
</svg>