<svg xmlns="http://www.w3.org/2000/svg"
    viewBox="0 0 1000 1000">
  <!--
© 2017-2024 Adobe (http://www.adobe.com/).
Noto is a trademark of Google Inc.
This Font Software is licensed under the SIL Open Font License, Version 1.1. This Font Software is distributed on an "AS IS" BASIS, WITHOUT WARRANTIES OR CONDITIONS OF ANY KIND, either express or implied. See the SIL Open Font License for the specific language, permissions and limitations governing your use of this Font Software.
http://scripts.sil.org/OFL
  -->
<path d="M383 63L369 70C410 126 459 215 469 283 533 339 589 191 383 63ZM551 22L538 28C575 89 621 183 627 254 692 313 752 162 551 22ZM865 34C832 119 763 247 691 331L703 343C797 273 881 167 927 91 951 93 959 89 964 78ZM189 12L189 928 201 928C226 928 252 913 252 904L252 50C277 47 285 36 288 22ZM109 199C110 272 82 353 54 385 37 403 30 425 42 442 58 460 92 448 108 423 133 387 153 305 127 200ZM280 176L267 182C293 221 319 287 321 337 374 387 434 270 280 176ZM859 367L859 818 432 818 432 405C456 402 465 392 468 379L369 368 369 923 381 923C405 923 432 908 432 901L432 848 859 848 859 916 871 916C895 916 922 903 922 894L922 405C947 402 956 392 958 378ZM725 339C707 393 681 453 648 514 607 484 557 454 494 424L483 435C526 467 577 511 622 559 576 636 519 711 455 769L466 781C539 730 603 664 655 595 696 642 728 691 743 734 803 772 831 671 690 547 727 492 758 437 780 388 805 390 814 385 819 373Z"/>
</svg>