<svg xmlns="http://www.w3.org/2000/svg"
    viewBox="0 0 1000 1000">
  <!--
© 2017-2024 Adobe (http://www.adobe.com/).
Noto is a trademark of Google Inc.
This Font Software is licensed under the SIL Open Font License, Version 1.1. This Font Software is distributed on an "AS IS" BASIS, WITHOUT WARRANTIES OR CONDITIONS OF ANY KIND, either express or implied. See the SIL Open Font License for the specific language, permissions and limitations governing your use of this Font Software.
http://scripts.sil.org/OFL
  -->
<path d="M416 550L406 559C458 597 521 665 537 722 611 764 649 607 416 550ZM205 631C197 716 137 781 85 805 65 818 50 838 59 858 71 881 107 879 137 861 183 833 243 757 222 632ZM733 606L722 614C790 671 871 769 889 848 971 904 1019 717 733 606ZM311 601L311 843C311 895 329 909 416 909L548 909C730 909 764 897 764 866 764 853 758 846 735 838L732 697 719 697C706 760 696 814 688 833 683 844 680 847 666 849 650 850 606 850 550 850L425 850C380 850 376 846 376 831L376 635C394 632 404 623 405 611ZM567 11L567 575 579 575C604 575 631 562 631 553L631 450 918 450C933 450 942 445 945 434 911 404 859 364 859 364L814 420 631 420 631 302 866 302C880 302 889 297 892 286 861 258 813 220 813 220L770 273 631 273 631 160 900 160C914 160 924 155 927 145 894 114 843 75 843 75L798 131 631 131 631 48C656 45 665 35 668 21ZM59 429L100 510C109 508 117 501 122 489 214 466 287 445 344 428 311 507 239 570 101 617L109 632C371 563 433 440 434 283L434 48C458 44 465 35 467 21L370 11 370 131 81 131 90 160 370 160 370 273 114 273 123 302 370 302C368 337 364 371 354 402 230 415 113 426 59 429Z"/>
</svg>