<svg xmlns="http://www.w3.org/2000/svg"
    viewBox="0 0 1000 1000">
  <!--
© 2017-2023 Adobe (http://www.adobe.com/).
Noto is a trademark of Google Inc.
This Font Software is licensed under the SIL Open Font License, Version 1.1. This Font Software is distributed on an "AS IS" BASIS, WITHOUT WARRANTIES OR CONDITIONS OF ANY KIND, either express or implied. See the SIL Open Font License for the specific language, permissions and limitations governing your use of this Font Software.
http://scripts.sil.org/OFL
  -->
<path d="M173 12L173 928 186 928C209 928 236 914 236 904L236 50C260 46 268 36 271 22ZM98 190C103 258 80 339 55 371 38 388 32 412 44 428 60 447 95 435 110 411 133 374 145 292 116 191ZM267 169L253 174C273 211 293 269 292 313 340 361 404 256 267 169ZM580 15L580 113 326 113 334 142 580 142 580 221 377 221 386 251 580 251 580 339 312 339 320 367 580 367 580 458 371 458 380 486 569 486C556 512 534 549 510 589L294 589 302 618 491 618C454 678 412 739 381 776 402 788 428 793 444 788L481 738C528 752 573 769 615 786 542 845 439 884 300 912L304 930C473 908 589 871 670 809 760 849 832 891 872 923 936 946 966 849 715 769 754 728 783 678 806 618L942 618C956 618 965 613 968 603 936 572 884 532 884 532L838 589 582 589C598 563 613 540 622 523 646 526 658 517 663 505L594 486 784 486 784 528 793 528C814 528 844 513 845 507L845 367 945 367C959 367 968 362 970 351 945 324 901 286 901 286L864 339 845 339 845 260C862 256 877 249 883 242L808 185 775 221 642 221 642 142 925 142C939 142 948 137 951 126 918 96 866 56 866 56L819 113 642 113 642 53C666 49 676 39 679 25ZM784 367L784 458 642 458 642 367ZM784 339L642 339 642 251 784 251ZM563 618L730 618C712 670 686 714 652 751 607 739 555 728 495 718Z"/>
</svg>