<svg xmlns="http://www.w3.org/2000/svg" name="gid5534" data-unicode="惑"
    viewBox="0 0 1000 1000">
  <!--
© 2017-2024 Adobe (http://www.adobe.com/).
Noto is a trademark of Google Inc.
This Font Software is licensed under the SIL Open Font License, Version 1.1. This Font Software is distributed on an "AS IS" BASIS, WITHOUT WARRANTIES OR CONDITIONS OF ANY KIND, either express or implied. See the SIL Open Font License for the specific language, permissions and limitations governing your use of this Font Software.
http://scripts.sil.org/OFL
  -->
<path d="M637 51L630 63C674 82 730 122 752 157 822 186 846 53 637 51ZM58 582L102 663C110 661 119 653 124 642 299 602 424 571 512 546L510 529C320 554 139 576 58 582ZM417 633L407 642C459 674 521 735 537 788 607 829 641 679 417 633ZM721 693L711 703C779 746 858 829 876 902 955 953 996 768 721 693ZM304 685L304 876C304 927 320 940 406 940L534 940C712 940 744 929 744 898 744 886 738 879 716 872L713 764 700 764C690 813 680 853 672 868 667 877 663 879 650 880 634 882 591 882 537 882L415 882C373 882 369 879 369 865L369 718C386 716 396 706 398 696ZM199 705C194 781 134 832 83 850 62 861 48 879 55 899 65 920 100 921 129 907 177 885 238 822 217 705ZM500 41C501 91 506 141 513 188L58 188 66 218 518 218C539 322 576 417 636 496 588 546 535 586 481 615L492 630C553 607 612 574 666 532 710 582 765 623 832 656 882 683 940 700 957 667 963 656 961 644 930 616L942 494 930 492C919 527 902 568 891 588 884 604 876 605 858 595 800 569 752 533 714 490 761 444 804 388 838 322 859 326 872 319 878 309L785 262C758 331 721 393 679 447 631 379 601 300 585 218L921 218C935 218 944 213 947 202 915 171 863 130 863 130L818 188 579 188C573 151 570 113 569 76 591 72 599 62 600 50ZM160 299L160 520 168 520C193 520 221 505 221 501L221 474 394 474 394 507 403 507C424 507 455 494 456 487L456 339C474 335 491 328 497 320L418 262 384 299 226 299 160 270ZM221 444L221 328 394 328 394 444Z"/>
</svg>