<svg xmlns="http://www.w3.org/2000/svg" name="gid5536" data-unicode="惔"
    viewBox="0 0 1000 1000">
  <!--
© 2017-2024 Adobe (http://www.adobe.com/).
Noto is a trademark of Google Inc.
This Font Software is licensed under the SIL Open Font License, Version 1.1. This Font Software is distributed on an "AS IS" BASIS, WITHOUT WARRANTIES OR CONDITIONS OF ANY KIND, either express or implied. See the SIL Open Font License for the specific language, permissions and limitations governing your use of this Font Software.
http://scripts.sil.org/OFL
  -->
<path d="M478 123C478 169 451 223 427 243 409 257 399 279 409 296 422 314 455 309 471 291 495 264 513 203 496 124ZM463 538C461 600 425 659 389 682 370 695 359 714 368 733 380 754 414 749 436 731 469 705 502 637 480 539ZM190 42L190 958 203 958C227 958 254 943 254 934L254 81C280 77 287 66 290 52ZM116 240C117 311 88 391 60 424 43 441 34 464 47 481 64 501 99 489 115 464 141 428 160 346 134 241ZM283 210L269 216C295 257 320 323 322 373 375 424 437 307 283 210ZM850 526C827 572 774 658 732 715 694 650 677 571 668 477 690 474 698 465 700 452L600 443C599 667 603 827 299 936L309 953C587 872 646 751 661 598 686 760 748 884 916 953 923 918 943 906 974 902L977 890C859 852 786 798 740 727 801 685 867 626 902 588 921 593 935 586 939 578ZM615 44C613 242 615 390 344 494L356 511C533 456 612 385 648 299 730 350 833 431 876 492 948 521 966 402 743 310 799 268 859 211 891 176 910 181 924 172 927 164L838 114C818 161 768 248 730 304L733 306C710 297 684 288 655 280 676 219 679 151 682 78 703 76 710 65 712 53Z"/>
</svg>