<svg xmlns="http://www.w3.org/2000/svg"
    viewBox="0 0 1000 1000">
  <!--
© 2017-2023 Adobe (http://www.adobe.com/).
Noto is a trademark of Google Inc.
This Font Software is licensed under the SIL Open Font License, Version 1.1. This Font Software is distributed on an "AS IS" BASIS, WITHOUT WARRANTIES OR CONDITIONS OF ANY KIND, either express or implied. See the SIL Open Font License for the specific language, permissions and limitations governing your use of this Font Software.
http://scripts.sil.org/OFL
  -->
<path d="M189 12L189 928 201 928C225 928 251 913 251 904L251 50C277 46 285 36 288 22ZM109 199C110 272 82 353 54 385 37 403 30 425 42 442 58 460 92 448 108 423 133 387 153 305 127 200ZM280 176L267 182C292 222 318 288 319 338 372 389 434 272 280 176ZM815 12C740 39 605 73 486 92L414 61 414 414 337 425 372 500C380 497 389 491 393 478 519 439 613 407 680 383L677 366C606 380 537 393 477 403L477 258 673 258C706 350 767 430 865 481 903 502 949 513 964 486 973 474 968 462 947 440L955 340 942 338C933 367 922 398 913 414 908 426 901 428 888 421 819 389 768 328 738 258L935 258C948 258 958 253 961 242 932 216 888 181 888 181L850 229 726 229C711 187 703 142 702 98 752 93 798 86 836 80 858 90 876 90 886 83ZM490 704L801 704 801 837 490 837ZM490 675L490 550 801 550 801 675ZM428 520L428 926 438 926C469 926 490 911 490 906L490 867 801 867 801 918 812 918C841 918 866 903 866 898L866 553C886 551 897 546 903 537L830 481 798 520 501 520 428 488ZM477 229L477 116C531 114 587 110 641 105 644 148 652 189 663 229Z"/>
</svg>