<svg xmlns="http://www.w3.org/2000/svg"
    viewBox="0 0 1000 1000">
  <!--
© 2017-2024 Adobe (http://www.adobe.com/).
Noto is a trademark of Google Inc.
This Font Software is licensed under the SIL Open Font License, Version 1.1. This Font Software is distributed on an "AS IS" BASIS, WITHOUT WARRANTIES OR CONDITIONS OF ANY KIND, either express or implied. See the SIL Open Font License for the specific language, permissions and limitations governing your use of this Font Software.
http://scripts.sil.org/OFL
  -->
<path d="M745 80L735 89C797 135 882 216 911 276 989 315 1018 159 745 80ZM189 12L189 928 201 928C225 928 251 913 251 904L251 50C277 46 285 36 288 22ZM109 199C110 272 82 353 54 385 37 403 30 425 42 442 58 460 92 448 108 423 133 387 153 305 127 200ZM288 151L276 157C295 187 314 235 315 275 364 320 425 219 288 151ZM530 442L530 755 538 755C561 755 584 743 584 737L584 679 709 679 709 740 718 740C736 740 765 727 766 721L766 483C786 479 802 471 809 463L733 406 699 442 588 442 530 415ZM709 650L584 650 584 471 709 471ZM485 69C455 151 390 268 318 345L330 356C350 342 369 327 388 310L388 926 398 926C426 926 449 910 449 902L449 329 851 329 851 830C851 846 846 852 827 852 806 852 703 843 703 843L703 860C749 865 774 872 789 883 803 892 808 908 811 927 902 918 913 886 913 837L913 343C933 339 949 330 956 322L873 261 841 301 678 301 678 53C703 50 712 40 714 26L614 16 614 301 455 301 417 283C470 230 515 171 543 122 567 125 575 120 580 110Z"/>
</svg>