<svg xmlns="http://www.w3.org/2000/svg" name="gid5543" data-unicode="惝"
    viewBox="0 0 1000 1000">
  <!--
© 2017-2024 Adobe (http://www.adobe.com/).
Noto is a trademark of Google Inc.
This Font Software is licensed under the SIL Open Font License, Version 1.1. This Font Software is distributed on an "AS IS" BASIS, WITHOUT WARRANTIES OR CONDITIONS OF ANY KIND, either express or implied. See the SIL Open Font License for the specific language, permissions and limitations governing your use of this Font Software.
http://scripts.sil.org/OFL
  -->
<path d="M745 110L735 119C797 165 882 246 911 306 989 345 1018 189 745 110ZM189 42L189 958 201 958C225 958 251 943 251 934L251 80C277 76 285 66 288 52ZM109 229C110 302 82 383 54 415 37 433 30 455 42 472 58 490 92 478 108 453 133 417 153 335 127 230ZM288 181L276 187C295 217 314 265 315 305 364 350 425 249 288 181ZM530 472L530 785 538 785C561 785 584 773 584 767L584 709 709 709 709 770 718 770C736 770 765 757 766 751L766 513C786 509 802 501 809 493L733 436 699 472 588 472 530 445ZM709 680L584 680 584 501 709 501ZM485 99C455 181 390 298 318 375L330 386C350 372 369 357 388 340L388 956 398 956C426 956 449 940 449 932L449 359 851 359 851 860C851 876 846 882 827 882 806 882 703 873 703 873L703 890C749 895 774 902 789 913 803 922 808 938 811 957 902 948 913 916 913 867L913 373C933 369 949 360 956 352L873 291 841 331 678 331 678 83C703 80 712 70 714 56L614 46 614 331 455 331 417 313C470 260 515 201 543 152 567 155 575 150 580 140Z"/>
</svg>