<svg xmlns="http://www.w3.org/2000/svg"
    viewBox="0 0 1000 1000">
  <!--
© 2017-2023 Adobe (http://www.adobe.com/).
Noto is a trademark of Google Inc.
This Font Software is licensed under the SIL Open Font License, Version 1.1. This Font Software is distributed on an "AS IS" BASIS, WITHOUT WARRANTIES OR CONDITIONS OF ANY KIND, either express or implied. See the SIL Open Font License for the specific language, permissions and limitations governing your use of this Font Software.
http://scripts.sil.org/OFL
  -->
<path d="M173 12L173 928 186 928C209 928 236 914 236 904L236 50C260 46 268 36 271 22ZM96 209C101 277 78 357 53 390 36 407 29 430 41 447 58 466 93 454 107 429 130 393 143 311 113 210ZM263 182L250 187C272 227 296 292 295 342 345 392 407 279 263 182ZM594 16L594 246 441 246 441 88C466 85 476 76 478 61L379 51 379 332 391 332C415 332 441 318 441 311L441 275 816 275 816 316 827 316C851 316 879 304 879 297L879 87C903 84 913 74 916 60L816 50 816 246 656 246 656 51C678 47 687 38 689 25ZM349 510L349 925 360 925C385 925 411 910 411 903L411 540 515 540 515 910 524 910C554 910 573 897 573 892L573 540 677 540 677 909 686 909C714 909 734 896 734 891L734 540 845 540 845 830C845 842 842 848 830 848 816 848 765 843 765 843L765 860C791 863 806 870 815 880 823 891 826 909 827 928 899 920 908 890 908 839L908 549C925 547 941 539 947 531L868 473 836 510 573 510C597 480 626 441 650 408L947 408C960 408 969 403 972 392 941 363 890 324 890 324L846 378 308 378 316 408 576 408C565 440 551 479 539 510L417 510 349 479Z"/>
</svg>