<svg xmlns="http://www.w3.org/2000/svg"
    viewBox="0 0 1000 1000">
  <!--
© 2017-2024 Adobe (http://www.adobe.com/).
Noto is a trademark of Google Inc.
This Font Software is licensed under the SIL Open Font License, Version 1.1. This Font Software is distributed on an "AS IS" BASIS, WITHOUT WARRANTIES OR CONDITIONS OF ANY KIND, either express or implied. See the SIL Open Font License for the specific language, permissions and limitations governing your use of this Font Software.
http://scripts.sil.org/OFL
  -->
<path d="M173 12L173 928 186 928C209 928 236 914 236 904L236 50C260 46 268 36 271 22ZM96 209C101 277 78 357 53 390 36 407 29 430 41 447 58 466 93 454 107 429 130 393 143 311 113 210ZM263 182L249 187C272 229 295 294 293 346 343 398 407 283 263 182ZM753 22L753 163 640 163 640 60C664 56 673 47 675 33L580 22 580 163 474 163 474 60C499 57 508 47 510 33L414 23 414 163 321 163 329 192 414 192 414 502 426 502C448 502 474 489 474 481L474 453 919 453C933 453 943 448 946 437 914 409 865 368 865 368L820 424 474 424 474 192 580 192 580 376 591 376C614 376 640 363 640 355L640 325 753 325 753 366 764 366C786 366 812 353 812 347L812 192 947 192C961 192 969 187 972 176 943 148 896 108 896 108L854 163 812 163 812 60C837 56 845 47 847 33ZM640 192L753 192 753 295 640 295ZM594 469L594 581 316 581 324 610 541 610C484 710 397 802 288 868L299 884C422 828 524 751 594 656L594 928 606 928C630 928 656 914 656 906L656 610C715 729 814 825 913 882 923 848 946 827 973 822L975 812C874 775 752 699 681 610L936 610C950 610 960 606 962 595 931 565 880 524 880 524L835 581 656 581 656 507C682 504 691 494 693 480Z"/>
</svg>