<svg xmlns="http://www.w3.org/2000/svg" name="gid5563" data-unicode="惹"
    viewBox="0 0 1000 1000">
  <!--
© 2017-2024 Adobe (http://www.adobe.com/).
Noto is a trademark of Google Inc.
This Font Software is licensed under the SIL Open Font License, Version 1.1. This Font Software is distributed on an "AS IS" BASIS, WITHOUT WARRANTIES OR CONDITIONS OF ANY KIND, either express or implied. See the SIL Open Font License for the specific language, permissions and limitations governing your use of this Font Software.
http://scripts.sil.org/OFL
  -->
<path d="M313 142L47 142 54 172 313 172 313 261 323 261C350 261 377 251 377 243L377 172 625 172 625 258 637 258C670 257 691 245 691 240L691 172 936 172C950 172 959 167 961 156 930 125 876 83 876 83L829 142 691 142 691 71C716 68 724 58 726 44L625 35 625 142 377 142 377 71C403 68 411 58 413 44L313 35ZM376 708L282 698 282 864C282 914 299 927 392 927L539 927C739 927 774 919 774 887 774 874 766 867 742 860L740 751 727 751C716 801 705 841 697 857 692 865 688 868 673 869 655 870 606 871 542 871L399 871C351 871 347 868 347 855L347 732C365 729 375 720 376 708ZM193 704L175 703C166 774 120 840 81 864 62 877 50 897 60 915 72 935 104 928 128 911 164 883 209 810 193 704ZM769 699L758 707C812 753 875 833 888 897 958 948 1006 788 769 699ZM451 664L440 673C479 706 526 764 538 810 598 851 641 726 451 664ZM334 644L334 611 722 611 722 658 732 658C754 658 786 644 787 637L787 466C806 462 822 454 829 446L749 386 712 425 346 425 334 420C364 393 392 365 416 337L924 337C938 337 948 332 950 321 916 289 861 247 861 247L812 307 440 307C455 288 469 268 480 249 505 253 513 248 520 237L428 195C411 232 388 270 360 307L55 307 64 337 337 337C261 430 157 516 40 573L48 588C130 559 205 518 270 471L270 666 281 666C312 666 334 650 334 644ZM722 454L722 582 334 582 334 454Z"/>
</svg>