<svg xmlns="http://www.w3.org/2000/svg" name="gid5584" data-unicode="愓"
    viewBox="0 0 1000 1000">
  <!--
© 2017-2024 Adobe (http://www.adobe.com/).
Noto is a trademark of Google Inc.
This Font Software is licensed under the SIL Open Font License, Version 1.1. This Font Software is distributed on an "AS IS" BASIS, WITHOUT WARRANTIES OR CONDITIONS OF ANY KIND, either express or implied. See the SIL Open Font License for the specific language, permissions and limitations governing your use of this Font Software.
http://scripts.sil.org/OFL
  -->
<path d="M173 42L173 958 186 958C209 958 236 944 236 934L236 80C260 76 268 66 271 52ZM96 239C101 307 78 387 53 420 36 437 29 460 41 477 58 496 93 484 107 459 130 423 143 341 113 240ZM263 212L249 217C272 259 295 324 293 376 343 428 407 313 263 212ZM487 243L786 243 786 340 487 340ZM487 214L487 119 786 119 786 214ZM424 90L424 416 434 416C466 416 487 401 487 396L487 369 786 369 786 406 796 406C827 406 850 391 850 386L850 123C871 120 881 114 888 107L815 51 783 90 498 90 424 58ZM319 458L327 488 490 488C448 572 384 653 307 714L319 729C381 694 436 651 483 601L568 601C517 704 436 797 332 867L344 883C475 815 575 720 635 601L718 601C673 730 594 843 476 925L487 941C635 859 735 746 788 601L857 601C843 752 820 848 796 872 788 879 781 881 769 881 753 881 697 877 666 873L665 890C697 896 729 904 741 913 752 923 758 939 758 955 788 955 816 947 837 929 881 894 906 784 922 609 941 607 954 601 961 594L887 533 848 572 508 572C530 546 549 518 565 488L947 488C961 488 969 483 972 472 942 443 894 405 894 405L851 458Z"/>
</svg>