<svg xmlns="http://www.w3.org/2000/svg"
    viewBox="0 0 1000 1000">
  <!--
© 2017-2024 Adobe (http://www.adobe.com/).
Noto is a trademark of Google Inc.
This Font Software is licensed under the SIL Open Font License, Version 1.1. This Font Software is distributed on an "AS IS" BASIS, WITHOUT WARRANTIES OR CONDITIONS OF ANY KIND, either express or implied. See the SIL Open Font License for the specific language, permissions and limitations governing your use of this Font Software.
http://scripts.sil.org/OFL
  -->
<path d="M173 12L173 928 186 928C209 928 236 914 236 904L236 50C260 46 268 36 271 22ZM96 209C101 277 78 357 53 390 36 407 29 430 41 447 58 466 93 454 107 429 130 393 143 311 113 210ZM263 182L249 187C272 229 295 294 293 346 343 398 407 283 263 182ZM487 213L786 213 786 310 487 310ZM487 184L487 89 786 89 786 184ZM424 60L424 386 434 386C466 386 487 371 487 366L487 339 786 339 786 376 796 376C827 376 850 361 850 356L850 93C871 90 881 84 888 77L815 21 783 60 498 60 424 28ZM319 428L327 458 490 458C448 542 384 623 307 684L319 699C381 664 436 621 483 571L568 571C517 674 436 767 332 837L344 853C475 785 575 690 635 571L718 571C673 700 594 813 476 895L487 911C635 829 735 716 788 571L857 571C843 722 820 818 796 842 788 849 781 851 769 851 753 851 697 847 666 843L665 860C697 866 729 874 741 883 752 893 758 909 758 925 788 925 816 917 837 899 881 864 906 754 922 579 941 577 954 571 961 564L887 503 848 542 508 542C530 516 549 488 565 458L947 458C961 458 969 453 972 442 942 413 894 375 894 375L851 428Z"/>
</svg>