<svg xmlns="http://www.w3.org/2000/svg" name="gid5589" data-unicode="愙"
    viewBox="0 0 1000 1000">
  <!--
© 2017-2024 Adobe (http://www.adobe.com/).
Noto is a trademark of Google Inc.
This Font Software is licensed under the SIL Open Font License, Version 1.1. This Font Software is distributed on an "AS IS" BASIS, WITHOUT WARRANTIES OR CONDITIONS OF ANY KIND, either express or implied. See the SIL Open Font License for the specific language, permissions and limitations governing your use of this Font Software.
http://scripts.sil.org/OFL
  -->
<path d="M424 679L415 690C462 717 522 772 542 817 610 848 636 710 424 679ZM743 711L733 721C797 762 875 839 895 904 973 950 1009 779 743 711ZM299 708L299 877C299 926 314 939 402 939L536 939C720 939 753 928 753 897 753 885 746 878 723 871L720 769 708 769C697 815 687 853 679 867 674 876 670 878 657 879 641 880 596 881 539 881L411 881C367 881 363 878 363 865L363 742C381 740 390 730 392 719ZM187 719C183 790 125 838 77 854 56 865 42 882 49 902 58 925 93 925 121 911 167 891 225 831 204 719ZM296 519L700 519 700 630 296 630ZM309 490L294 484C372 464 446 439 512 409 571 435 637 457 706 474L691 490ZM460 210C488 210 501 205 504 195L403 167C345 245 226 335 93 388L102 402C192 379 273 342 341 300 374 331 413 358 457 382 339 440 195 483 50 510L57 527C117 520 176 510 233 498L233 707 242 707C275 707 296 693 296 688L296 659 700 659 700 701 710 701C732 701 765 686 766 680L766 528C781 525 795 517 801 511L773 490C818 499 864 507 910 513 916 484 934 465 960 460L960 448C827 440 686 418 566 382 625 351 677 315 720 274 747 274 759 271 767 263L698 198 650 237 429 237ZM633 266C596 300 551 331 500 359 447 339 399 315 361 287L392 266ZM176 87C176 145 137 195 97 213 76 224 62 243 71 264 81 287 116 287 141 272 169 256 197 220 201 165L831 165C818 199 799 239 784 265L797 272C834 249 883 207 909 176 929 175 940 173 948 166L873 94 831 135 532 135 532 77C557 74 567 64 569 50L466 40 466 135 202 135C201 120 198 104 194 87Z"/>
</svg>