<svg xmlns="http://www.w3.org/2000/svg" name="gid5592" data-unicode="愜"
    viewBox="0 0 1000 1000">
  <!--
© 2017-2024 Adobe (http://www.adobe.com/).
Noto is a trademark of Google Inc.
This Font Software is licensed under the SIL Open Font License, Version 1.1. This Font Software is distributed on an "AS IS" BASIS, WITHOUT WARRANTIES OR CONDITIONS OF ANY KIND, either express or implied. See the SIL Open Font License for the specific language, permissions and limitations governing your use of this Font Software.
http://scripts.sil.org/OFL
  -->
<path d="M173 42L173 958 186 958C209 958 236 944 236 934L236 80C260 76 268 66 271 52ZM96 239C101 307 78 387 53 420 36 437 29 460 41 477 58 496 93 484 107 459 130 423 143 341 113 240ZM263 212L249 217C272 259 295 324 293 376 343 428 407 313 263 212ZM794 332C786 406 765 473 735 524 715 465 705 397 699 316L699 306 918 306C931 306 941 301 943 290 913 261 864 221 864 221L822 277 699 277 699 187C722 184 730 175 733 162L639 151 639 277 444 277 451 306 639 306 639 391C639 548 606 703 433 805L445 820C620 738 678 610 694 476 716 628 767 740 894 802 900 767 919 755 951 750L953 738C843 695 781 633 744 547 769 526 792 500 810 469 840 499 872 539 886 570 940 602 979 504 822 447 833 425 843 401 850 376 871 376 881 366 885 355ZM364 104L364 945 373 945C405 945 426 928 426 923L426 896 949 896C963 896 973 891 975 880 941 849 888 808 888 808L840 867 426 867 426 133 930 133C943 133 953 128 956 118 923 88 871 47 871 47L823 104 438 104 364 72ZM521 331C513 436 483 525 434 588L448 598C488 569 519 528 542 477 558 499 571 525 574 547 621 582 669 499 553 452 562 428 570 401 577 373 597 372 607 363 610 350Z"/>
</svg>