<svg xmlns="http://www.w3.org/2000/svg" name="gid5614" data-unicode="愿"
    viewBox="0 0 1000 1000">
  <!--
© 2017-2024 Adobe (http://www.adobe.com/).
Noto is a trademark of Google Inc.
This Font Software is licensed under the SIL Open Font License, Version 1.1. This Font Software is distributed on an "AS IS" BASIS, WITHOUT WARRANTIES OR CONDITIONS OF ANY KIND, either express or implied. See the SIL Open Font License for the specific language, permissions and limitations governing your use of this Font Software.
http://scripts.sil.org/OFL
  -->
<path d="M658 475L649 486C718 520 810 589 842 646 919 677 931 519 658 475ZM369 457C335 513 263 587 193 631L204 644C287 613 371 558 415 510 438 514 445 511 452 501ZM735 695L725 704C793 748 874 829 894 900 976 950 1014 765 735 695ZM298 692L298 874C298 923 315 936 403 936L537 936C723 936 756 926 756 896 756 884 750 876 727 869L724 764 711 764C700 811 690 850 682 866 677 875 673 877 659 878 643 879 598 880 540 880L411 880C367 880 363 877 363 863L363 725C381 723 390 713 392 703ZM185 705C183 778 127 830 78 848 58 859 43 877 51 897 61 920 96 919 124 905 169 883 226 820 203 705ZM429 658L420 668C470 700 534 759 557 805 629 839 655 695 429 658ZM144 101L144 271C144 407 134 556 43 675L56 687C195 571 207 398 207 270L207 129 521 129 502 204 360 204 293 174 293 470 302 470C327 470 355 455 355 450L355 430 522 430 522 565C522 575 518 581 504 581 488 581 417 575 417 575L417 590C451 595 470 602 481 609 491 618 495 633 496 647 574 639 585 612 585 566L585 430 753 430 753 463 763 463C784 463 817 449 818 443L818 246C836 242 853 233 860 225L779 164 744 204 542 204C555 192 567 179 577 168 597 168 609 160 613 147L535 129 901 129C915 129 925 124 928 114 894 83 839 43 839 43L792 101 219 101 144 68ZM753 330L753 400 355 400 355 330ZM753 301L355 301 355 233 753 233Z"/>
</svg>