<svg xmlns="http://www.w3.org/2000/svg"
    viewBox="0 0 1000 1000">
  <!--
© 2017-2023 Adobe (http://www.adobe.com/).
Noto is a trademark of Google Inc.
This Font Software is licensed under the SIL Open Font License, Version 1.1. This Font Software is distributed on an "AS IS" BASIS, WITHOUT WARRANTIES OR CONDITIONS OF ANY KIND, either express or implied. See the SIL Open Font License for the specific language, permissions and limitations governing your use of this Font Software.
http://scripts.sil.org/OFL
  -->
<path d="M123 446C112 446 77 446 77 446L77 468C95 470 108 473 122 479 142 490 147 538 137 617 140 639 152 653 167 653 202 653 220 632 221 599 224 544 198 513 198 481 198 461 206 436 216 411 231 379 322 209 360 130L344 123C168 403 168 403 149 429 138 446 135 446 123 446ZM65 182L56 192C98 213 147 254 163 291 231 321 256 186 65 182ZM141 28L132 38C173 62 221 109 237 147 302 180 331 51 141 28ZM385 671L290 661 290 845C290 897 309 909 404 909L558 909C767 909 801 901 801 869 801 857 794 850 770 843L768 731 755 731C743 782 732 823 723 839 718 849 714 852 699 853 680 854 627 854 561 854L411 854C360 854 356 851 356 837L356 695C374 693 384 683 385 671ZM207 673L189 672C182 747 130 808 85 831 65 843 53 862 62 880 73 901 107 896 132 879 173 854 226 784 207 673ZM788 674L777 683C826 724 883 798 893 857 962 907 1010 755 788 674ZM471 635L461 644C502 676 550 736 559 786 619 830 664 697 471 635ZM346 192L346 635 356 635C388 635 409 618 409 613L409 487 587 487 587 626 596 626C629 626 648 611 649 607L649 487 833 487 833 553C833 566 828 572 812 572 794 572 717 566 717 566L717 582C753 586 774 595 786 604 797 613 801 630 803 650 887 641 896 610 896 560L896 266C917 263 934 254 940 247L856 184 823 224 702 224C710 212 706 192 676 173 740 150 817 118 859 92 882 92 895 90 903 84L830 14 787 54 339 54 348 84 763 84C730 109 688 138 653 160 617 144 561 130 476 122L471 139C552 162 610 193 643 224L421 224ZM833 458L649 458 649 369 833 369ZM833 340L649 340 649 254 833 254ZM587 458L409 458 409 369 587 369ZM587 340L409 340 409 254 587 254Z"/>
</svg>