<svg xmlns="http://www.w3.org/2000/svg"
    viewBox="0 0 1000 1000">
  <!--
© 2017-2023 Adobe (http://www.adobe.com/).
Noto is a trademark of Google Inc.
This Font Software is licensed under the SIL Open Font License, Version 1.1. This Font Software is distributed on an "AS IS" BASIS, WITHOUT WARRANTIES OR CONDITIONS OF ANY KIND, either express or implied. See the SIL Open Font License for the specific language, permissions and limitations governing your use of this Font Software.
http://scripts.sil.org/OFL
  -->
<path d="M619 145L606 151C628 189 657 250 663 295 715 344 776 237 619 145ZM792 125L781 134C828 179 890 256 910 314 977 359 1021 217 792 125ZM189 12L189 928 201 928C225 928 251 913 251 904L251 50C277 46 285 36 288 22ZM109 199C110 272 82 353 54 385 37 403 30 425 42 442 58 460 92 448 108 423 133 387 153 305 127 200ZM690 616L699 645 855 645 855 826 461 826 461 648 635 648C647 648 656 643 659 632 634 606 590 570 590 570L554 618 461 618 461 455C533 434 609 400 650 378 666 382 676 381 682 373L600 318C573 344 522 390 473 425L398 404 398 921 407 921C444 921 460 906 461 901L461 855 855 855 855 915 865 915C887 915 918 900 919 893L919 469C939 465 956 456 962 448L882 386 845 427 683 427 692 455 855 455 855 616ZM280 176L267 182C292 221 317 285 318 335 329 345 341 349 351 346L333 371 348 381C421 321 485 227 530 122 643 116 772 98 853 81 876 90 894 90 904 81L825 12C765 38 656 72 557 94L470 63C448 150 414 235 376 303 376 269 352 220 280 176Z"/>
</svg>