<svg xmlns="http://www.w3.org/2000/svg"
    viewBox="0 0 1000 1000">
  <!--
© 2017-2023 Adobe (http://www.adobe.com/).
Noto is a trademark of Google Inc.
This Font Software is licensed under the SIL Open Font License, Version 1.1. This Font Software is distributed on an "AS IS" BASIS, WITHOUT WARRANTIES OR CONDITIONS OF ANY KIND, either express or implied. See the SIL Open Font License for the specific language, permissions and limitations governing your use of this Font Software.
http://scripts.sil.org/OFL
  -->
<path d="M422 637L412 647C461 677 522 736 542 784 612 816 638 672 422 637ZM741 677L731 686C798 728 878 806 898 875 979 922 1015 741 741 677ZM298 675L298 850C298 899 314 912 402 912L535 912C720 912 752 902 752 871 752 859 746 852 723 845L720 741 707 741C696 789 687 827 679 842 674 851 670 853 656 854 641 855 595 855 538 855L410 855C366 855 362 853 362 839L362 708C380 706 389 696 391 685ZM185 684C181 754 124 802 75 819 54 829 40 846 47 866 57 888 92 889 119 876 165 854 223 795 203 684ZM103 203L103 466 112 466C137 466 163 452 163 446L163 427 268 427 268 502 44 502 52 531 268 531 268 649 280 649C303 649 329 635 329 627L329 531 521 531C535 531 544 526 546 515 517 487 470 452 470 452L428 502 329 502 329 427 433 427 433 455 442 455C462 455 492 441 493 434L493 240C509 237 524 229 530 223L457 168 425 203 329 203 329 134 523 134C537 134 547 129 549 118 519 89 470 52 470 52L427 105 329 105 329 50C354 46 363 36 366 22L268 12 268 105 59 105 67 134 268 134 268 203 168 203 103 174ZM268 232L268 300 163 300 163 232ZM329 232L433 232 433 300 329 300ZM268 329L268 398 163 398 163 329ZM329 329L433 329 433 398 329 398ZM858 12C813 39 732 75 655 101L589 74 589 275C589 396 578 521 483 624L495 638C633 542 649 401 650 290L766 290 766 639 776 639C808 639 830 624 830 620L830 290 935 290C949 290 958 286 961 275 929 246 879 206 879 206L835 262 650 262 650 130C735 118 827 98 886 80 910 88 926 88 936 80Z"/>
</svg>