<svg xmlns="http://www.w3.org/2000/svg"
    viewBox="0 0 1000 1000">
  <!--
© 2017-2024 Adobe (http://www.adobe.com/).
Noto is a trademark of Google Inc.
This Font Software is licensed under the SIL Open Font License, Version 1.1. This Font Software is distributed on an "AS IS" BASIS, WITHOUT WARRANTIES OR CONDITIONS OF ANY KIND, either express or implied. See the SIL Open Font License for the specific language, permissions and limitations governing your use of this Font Software.
http://scripts.sil.org/OFL
  -->
<path d="M154 13L154 929 165 929C189 929 215 915 215 905L215 51C241 47 248 37 250 23ZM88 201C92 269 70 350 46 383 30 401 24 424 36 440 53 458 88 445 102 419 122 382 132 301 106 202ZM436 15L436 147 292 147 300 176 436 176 436 262 369 262 310 234 310 278C308 249 288 211 237 176L224 181C239 216 254 272 250 316 276 344 308 325 310 287L310 617 319 617C342 617 364 604 364 598L364 564 436 564 436 688 276 688 284 718 436 718 436 926 446 926C477 926 497 911 497 906L497 718 645 718C626 789 595 856 548 917L563 929C724 782 739 569 739 397L739 360 823 360 823 929 833 929C864 929 885 914 885 909L885 360 943 360C957 360 967 355 969 345 938 314 887 273 887 273L842 331 739 331 739 138C803 127 869 105 909 87 932 94 949 94 958 84L877 19C849 47 795 84 742 111L679 89 679 397C679 494 675 591 654 684L600 637 560 688 497 688 497 564 569 564 569 610 577 610C595 610 623 596 624 590L624 297C638 294 652 288 658 282L591 229 560 262 497 262 497 176 630 176C643 176 652 171 655 160 627 131 578 92 578 92L536 147 497 147 497 48C517 45 526 36 528 24ZM364 535L364 428 439 428 439 535ZM569 535L495 535 495 428 569 428ZM364 399L364 291 439 291 439 399ZM569 399L495 399 495 291 569 291Z"/>
</svg>