<svg xmlns="http://www.w3.org/2000/svg" name="gid5640" data-unicode="慥"
    viewBox="0 0 1000 1000">
  <!--
© 2017-2024 Adobe (http://www.adobe.com/).
Noto is a trademark of Google Inc.
This Font Software is licensed under the SIL Open Font License, Version 1.1. This Font Software is distributed on an "AS IS" BASIS, WITHOUT WARRANTIES OR CONDITIONS OF ANY KIND, either express or implied. See the SIL Open Font License for the specific language, permissions and limitations governing your use of this Font Software.
http://scripts.sil.org/OFL
  -->
<path d="M306 350L296 358C334 388 380 441 394 484 460 523 503 391 306 350ZM327 83L316 91C353 124 397 184 408 230 473 272 521 138 327 83ZM168 42L168 958 180 958C204 958 230 944 230 934L230 80C254 76 262 66 265 52ZM95 220C99 288 73 368 47 400 30 417 22 441 35 456 51 476 86 464 102 441 126 404 140 322 113 220ZM264 178L251 182C270 218 289 273 289 316 336 364 398 261 264 178ZM547 74C533 170 501 260 462 321L477 331C506 306 532 274 554 237L674 237 674 367 452 367 460 396 674 396 674 496 686 496C709 496 736 482 736 475L736 396 953 396C966 396 975 391 978 380 947 350 895 308 895 308L851 367 736 367 736 237 921 237C934 237 944 232 946 221 916 192 866 152 866 152L824 208 736 208 736 87C761 84 771 74 773 60L674 49 674 208 570 208C584 180 596 150 606 118 628 118 639 110 641 98ZM529 526L529 826 539 826C565 826 591 811 591 805L591 760 825 760 825 816 834 816C855 816 888 801 889 795L889 566C906 563 921 554 927 547L850 489 816 526 596 526 529 496ZM591 730L591 556 825 556 825 730ZM436 783L436 588C456 584 472 576 479 569L402 508 366 547 267 547 276 576 376 576 376 813C337 842 298 871 271 887L314 955C322 949 325 943 323 932 352 901 396 846 426 806 476 912 542 934 678 934 763 934 860 934 937 934 940 908 953 892 976 889L976 874C886 877 768 877 678 877 552 877 491 864 436 783Z"/>
</svg>