<svg xmlns="http://www.w3.org/2000/svg"
    viewBox="0 0 1000 1000">
  <!--
© 2017-2023 Adobe (http://www.adobe.com/).
Noto is a trademark of Google Inc.
This Font Software is licensed under the SIL Open Font License, Version 1.1. This Font Software is distributed on an "AS IS" BASIS, WITHOUT WARRANTIES OR CONDITIONS OF ANY KIND, either express or implied. See the SIL Open Font License for the specific language, permissions and limitations governing your use of this Font Software.
http://scripts.sil.org/OFL
  -->
<path d="M726 704L716 714C785 750 868 822 893 886 975 928 1000 751 726 704ZM300 699L300 852C300 899 315 912 399 912L526 912C701 912 733 903 733 872 733 861 726 854 704 847L701 751 689 751C679 794 670 831 662 844 657 852 653 855 640 855 625 856 581 857 528 857L409 857C368 857 364 855 364 841L364 733C382 730 391 721 392 710ZM202 716C196 780 137 820 88 833 68 843 53 860 59 879 67 902 102 903 130 892 176 874 236 819 220 716ZM414 661L404 671C451 699 513 755 535 798 603 831 633 698 414 661ZM454 374L454 393 463 393 470 392 442 424 341 424 341 374ZM454 345L341 345 341 280 454 280ZM378 11L378 83 251 83 251 46C273 42 281 34 283 21L191 12 191 83 52 83 60 112 191 112 191 225 202 225C225 225 251 212 251 205L251 199 279 199 279 251 175 251 110 222 110 406 119 406C143 406 170 392 170 387L170 374 279 374 279 424 91 424 99 454 279 454 279 504 113 504 121 533 279 533 279 588C186 595 107 600 60 602L105 680C114 678 122 672 127 659 317 628 451 603 545 583L544 566 341 583 341 533 502 533C515 533 524 528 526 517 501 493 461 463 461 463L425 504 341 504 341 454 523 454C537 454 546 449 548 438 528 420 501 398 487 388 501 384 513 376 514 372L514 286C529 284 542 276 547 270L478 217 446 251 341 251 341 199 378 199 378 219 389 219C412 219 438 208 438 201L438 112 575 112C588 112 597 107 600 96 572 70 528 35 528 35L490 83 438 83 438 45C459 42 468 33 470 20ZM170 345L170 280 279 280 279 345ZM279 170L251 170 251 112 378 112 378 170ZM668 13C668 73 667 132 665 189L545 189 554 219 663 219C653 402 619 561 500 659L513 675C674 575 715 408 728 219L839 219C835 454 825 564 803 586 795 595 788 596 773 596 756 596 713 593 687 590L686 607C711 611 736 619 746 628 756 639 759 655 759 674 792 674 825 664 847 641 882 604 897 493 901 226 922 223 934 219 941 211L866 149 830 189 730 189 735 50C757 46 765 36 768 22Z"/>
</svg>