<svg xmlns="http://www.w3.org/2000/svg"
    viewBox="0 0 1000 1000">
  <!--
© 2017-2023 Adobe (http://www.adobe.com/).
Noto is a trademark of Google Inc.
This Font Software is licensed under the SIL Open Font License, Version 1.1. This Font Software is distributed on an "AS IS" BASIS, WITHOUT WARRANTIES OR CONDITIONS OF ANY KIND, either express or implied. See the SIL Open Font License for the specific language, permissions and limitations governing your use of this Font Software.
http://scripts.sil.org/OFL
  -->
<path d="M172 12L172 928 184 928C208 928 234 914 234 904L234 50C258 46 266 36 269 22ZM95 209C99 278 73 357 47 390 30 407 22 430 35 446 51 466 86 454 102 430 126 394 140 312 113 210ZM264 175L250 180C271 219 293 282 292 331 342 381 405 270 264 175ZM307 443L315 473 461 473C484 503 507 553 507 593L516 599 320 599 328 627 606 627 606 730 350 730 358 759 606 759 606 926 616 926C648 926 669 912 670 908L670 759 909 759C923 759 933 754 935 743 904 713 852 674 852 674L808 730 670 730 670 627 941 627C955 627 964 622 967 612 936 583 886 544 886 544L842 599 728 599C753 571 777 539 795 514 815 516 828 508 833 496L762 473 946 473C960 473 968 468 971 457 940 427 890 387 890 387L845 443 669 443 669 356 892 356C905 356 915 352 918 341 887 312 836 272 836 272L792 328 669 328 669 287C690 284 698 275 700 263L606 253 606 328 371 328 379 356 606 356 606 443ZM606 599L549 599C577 583 580 520 492 473L738 473 702 599ZM691 214L591 214 591 80 691 80ZM750 214L750 80 847 80 847 214ZM534 214L439 214 439 80 534 80ZM379 50L379 288 388 288C412 288 439 274 439 268L439 242 847 242 847 277 856 277C876 277 906 262 907 257L907 90C925 87 942 79 948 72L871 14 838 50 444 50 379 20Z"/>
</svg>