<svg xmlns="http://www.w3.org/2000/svg" name="gid5718" data-unicode="懕"
    viewBox="0 0 1000 1000">
  <!--
© 2017-2024 Adobe (http://www.adobe.com/).
Noto is a trademark of Google Inc.
This Font Software is licensed under the SIL Open Font License, Version 1.1. This Font Software is distributed on an "AS IS" BASIS, WITHOUT WARRANTIES OR CONDITIONS OF ANY KIND, either express or implied. See the SIL Open Font License for the specific language, permissions and limitations governing your use of this Font Software.
http://scripts.sil.org/OFL
  -->
<path d="M727 699L718 708C781 751 864 827 890 888 970 930 1002 765 727 699ZM305 704L305 866C305 915 321 928 408 928L541 928C724 928 757 918 757 889 757 875 750 868 728 862L724 764 712 764C702 808 691 845 684 859 679 868 675 870 662 871 646 872 601 872 544 872L416 872C373 872 369 869 369 856L369 737C386 734 396 725 397 714ZM203 710C197 781 136 828 86 842 66 852 51 869 57 889 67 911 102 912 130 899 176 878 239 821 221 711ZM420 676L411 687C460 713 524 764 550 805 621 834 644 698 420 676ZM117 101L117 252C117 395 112 559 37 696L51 708C173 574 181 382 181 251L181 129 904 129C918 129 929 124 932 114 898 84 846 45 846 45L800 101 192 101 117 67ZM451 275L451 318 293 318 293 275ZM451 246L293 246 293 203 451 203ZM451 348L451 371 460 371C466 371 473 370 480 368L457 394 280 394 238 375 245 375C267 375 293 362 293 357L293 348ZM218 394L218 682 227 682C251 682 275 669 275 663L275 569 467 569 467 598C467 610 464 615 450 615 434 615 375 610 375 610L375 626C405 630 421 636 432 642 440 651 444 664 445 679 515 671 525 646 525 602L525 436C545 433 562 424 568 416L494 363C503 359 509 356 509 353L509 209C524 207 537 200 542 193L474 141 443 174 298 174 236 146 236 374 218 366ZM275 496L467 496 467 539 275 539ZM275 467L275 424 467 424 467 467ZM670 147C670 204 670 259 667 310L534 310 542 338 666 338C656 461 627 564 529 646L543 661C668 584 708 481 723 361 741 467 781 591 877 659 883 623 900 613 931 608L933 596C813 531 762 432 740 338L905 338C919 338 928 333 931 322 903 296 859 262 854 258 866 234 849 190 764 174L754 181C776 200 801 237 805 266 817 275 829 276 838 273L809 310 728 310C731 269 732 225 733 181 754 179 762 168 764 156Z"/>
</svg>