<svg xmlns="http://www.w3.org/2000/svg"
    viewBox="0 0 1000 1000">
  <!--
© 2017-2024 Adobe (http://www.adobe.com/).
Noto is a trademark of Google Inc.
This Font Software is licensed under the SIL Open Font License, Version 1.1. This Font Software is distributed on an "AS IS" BASIS, WITHOUT WARRANTIES OR CONDITIONS OF ANY KIND, either express or implied. See the SIL Open Font License for the specific language, permissions and limitations governing your use of this Font Software.
http://scripts.sil.org/OFL
  -->
<path d="M384 484L373 493C409 517 447 563 456 602 516 640 560 517 384 484ZM804 469L792 477C833 514 879 578 887 629 949 677 1000 542 804 469ZM170 480C140 553 93 616 47 655L60 668C116 641 174 595 216 535 236 539 248 532 253 521ZM602 474C577 541 538 602 500 638L513 651C563 624 611 579 648 525 668 528 680 520 685 511ZM301 683L301 851C301 900 316 913 404 913L538 913C722 913 755 902 755 871 755 860 748 853 726 846L723 745 710 745C700 790 690 828 682 843 677 852 673 854 660 855 644 856 598 857 540 857L412 857C368 857 364 854 364 840L364 717C381 715 390 705 392 693ZM428 657L418 666C466 698 528 756 550 802 619 834 646 697 428 657ZM747 682L737 691C797 735 873 813 895 877 973 922 1012 757 747 682ZM195 688C184 755 125 805 78 823 57 834 43 852 51 872 61 894 98 893 124 878 168 855 225 795 212 689ZM864 12C788 43 642 84 522 101L526 118C574 117 624 113 673 108 656 148 637 188 619 218 598 208 571 199 536 193L526 203C570 227 620 277 633 320 680 346 709 281 643 233 674 207 708 173 735 139 755 142 768 134 773 124L726 102C786 95 841 86 885 77 907 85 924 86 933 78ZM795 159C759 231 697 324 642 392L526 394 563 467C571 465 580 459 586 446L697 431 697 674 707 674C738 674 759 660 759 655L759 422 872 404C886 423 897 443 903 461 967 501 1006 368 795 310L784 319C807 335 833 358 855 383L672 390C737 337 802 268 842 214 863 218 877 212 883 201ZM86 112L86 498 97 498C119 498 144 485 144 477L144 454 278 454 278 678 288 678C319 678 339 664 339 660L339 454 518 454C532 454 542 449 545 438 515 412 470 378 470 378L431 424 144 424 144 147C168 144 177 136 179 122ZM413 88L413 149 266 149 266 88ZM208 59L208 396 217 396C242 396 266 382 266 376L266 359 413 359 413 390 422 390C441 390 470 375 471 369L471 99C491 95 507 88 513 80L437 22 403 59 270 59 208 30ZM266 178L413 178 413 239 266 239ZM266 269L413 269 413 330 266 330Z"/>
</svg>