<svg xmlns="http://www.w3.org/2000/svg"
    viewBox="0 0 1000 1000">
  <!--
© 2017-2024 Adobe (http://www.adobe.com/).
Noto is a trademark of Google Inc.
This Font Software is licensed under the SIL Open Font License, Version 1.1. This Font Software is distributed on an "AS IS" BASIS, WITHOUT WARRANTIES OR CONDITIONS OF ANY KIND, either express or implied. See the SIL Open Font License for the specific language, permissions and limitations governing your use of this Font Software.
http://scripts.sil.org/OFL
  -->
<path d="M269 23L172 12 172 928 184 928C207 928 233 915 233 905L233 50C258 47 266 37 269 23ZM114 210L95 209C99 278 73 358 48 390 30 407 22 430 35 447 51 466 86 455 102 430 126 394 141 312 114 210ZM264 175L251 180C272 220 294 282 293 331 342 381 406 270 264 175ZM732 159L509 159 509 98 732 98ZM732 189L732 248 509 248 509 189ZM732 277L732 329 509 345 509 277ZM332 355L366 429C376 427 385 420 391 408 523 391 636 376 732 363L732 440 742 440C774 440 795 426 795 422L795 354 932 333 931 314 795 325 795 98 913 98C926 98 935 93 938 83 905 51 852 13 852 13L806 69 332 69 339 98 447 98 447 349ZM507 557L388 557 388 492 507 492ZM507 587L507 654 388 654 388 587ZM507 684L507 752 388 762 388 684ZM595 770L630 842C639 840 648 833 653 821L833 782 833 923 843 923C874 923 894 909 894 904L894 768 970 750 968 734 894 742 894 492 940 492C953 492 962 487 965 477 936 446 889 411 889 411L847 462 608 462C580 436 548 411 548 411L506 462 279 462 286 492 331 492 331 766 252 770 286 844C295 842 304 836 309 824 393 803 459 785 507 771L507 923 516 923C546 923 566 909 566 904L566 492 600 492C604 492 609 491 611 489L612 492 656 492 656 765ZM833 557L715 557 715 492 833 492ZM833 587L833 654 715 654 715 587ZM833 684L833 748 715 760 715 684Z"/>
</svg>