<svg xmlns="http://www.w3.org/2000/svg"
    viewBox="0 0 1000 1000">
  <!--
© 2017-2023 Adobe (http://www.adobe.com/).
Noto is a trademark of Google Inc.
This Font Software is licensed under the SIL Open Font License, Version 1.1. This Font Software is distributed on an "AS IS" BASIS, WITHOUT WARRANTIES OR CONDITIONS OF ANY KIND, either express or implied. See the SIL Open Font License for the specific language, permissions and limitations governing your use of this Font Software.
http://scripts.sil.org/OFL
  -->
<path d="M655 45L646 56C695 80 756 128 777 169 849 200 872 58 655 45ZM776 346C748 431 706 516 650 595 609 499 586 385 575 263L930 263C944 263 954 258 956 247 923 216 867 174 867 174L819 233 573 233C569 175 567 114 568 54 592 50 601 38 603 25L499 14C499 90 501 163 507 233L221 233 143 200 143 455C143 612 135 780 44 915L58 926C198 794 208 601 208 455L208 263 510 263C524 411 553 543 606 652 522 753 413 842 279 904L287 919C428 867 543 791 632 701 680 781 742 846 824 891 878 923 939 946 960 912 966 900 964 887 931 854L948 705 935 702C922 744 902 793 889 819 881 838 874 839 854 826 778 787 721 727 679 652 748 572 800 484 836 397 861 400 871 395 876 383Z"/>
</svg>