<svg xmlns="http://www.w3.org/2000/svg"
    viewBox="0 0 1000 1000">
  <!--
© 2017-2024 Adobe (http://www.adobe.com/).
Noto is a trademark of Google Inc.
This Font Software is licensed under the SIL Open Font License, Version 1.1. This Font Software is distributed on an "AS IS" BASIS, WITHOUT WARRANTIES OR CONDITIONS OF ANY KIND, either express or implied. See the SIL Open Font License for the specific language, permissions and limitations governing your use of this Font Software.
http://scripts.sil.org/OFL
  -->
<path d="M659 34L650 44C698 70 758 120 777 161 847 195 875 60 659 34ZM792 340C768 438 728 533 670 620 620 515 594 385 583 247L931 247C945 247 955 242 957 231 923 200 868 157 868 157L819 217 581 217C578 163 577 108 577 53 602 50 611 38 612 25L509 14C509 84 511 152 516 217L49 217 58 247 519 247C533 412 566 560 628 677 552 773 451 854 322 911L330 926C466 878 572 807 654 722 697 790 752 846 822 888 873 921 935 945 956 912 964 902 962 888 929 853L945 703 933 701C920 743 900 791 888 816 879 836 872 836 853 823 788 787 737 736 698 672 769 584 818 486 850 386 877 387 887 381 891 369ZM39 555L82 637C92 634 101 626 106 615L262 573C250 696 211 823 96 915L107 927C266 836 313 690 326 554 399 533 459 515 509 499L506 483 329 512 330 471 330 332C354 329 362 319 364 306L266 296 266 469 265 522C167 538 86 550 39 555Z"/>
</svg>