<svg xmlns="http://www.w3.org/2000/svg"
    viewBox="0 0 1000 1000">
  <!--
© 2017-2023 Adobe (http://www.adobe.com/).
Noto is a trademark of Google Inc.
This Font Software is licensed under the SIL Open Font License, Version 1.1. This Font Software is distributed on an "AS IS" BASIS, WITHOUT WARRANTIES OR CONDITIONS OF ANY KIND, either express or implied. See the SIL Open Font License for the specific language, permissions and limitations governing your use of this Font Software.
http://scripts.sil.org/OFL
  -->
<path d="M542 515L533 526C571 542 619 576 639 604 699 628 722 517 542 515ZM451 523L346 516C354 556 365 593 379 628L54 642 63 670 392 656C417 709 452 756 500 796 378 848 229 889 76 909L80 928C253 914 412 877 544 828 613 872 704 904 823 920 893 931 946 933 954 899 957 886 953 879 918 865L921 765 909 763C901 798 887 833 878 852 871 865 860 866 832 863 740 853 668 831 611 801 671 774 724 745 768 714 793 720 809 718 816 708L734 655C692 695 632 734 561 769 516 735 484 696 461 653L913 633C926 633 937 626 939 615 905 588 851 548 851 548L806 610 448 625C437 600 428 574 422 548 440 544 449 534 451 523ZM842 14L795 71 66 71 74 101 431 101 406 182 270 182 200 149 200 568 211 568C238 568 265 553 265 547L265 505 714 505 714 539 724 539C746 539 778 522 779 516L779 218C795 216 808 209 813 202L740 145 706 182 452 182C471 158 492 128 510 101L902 101C916 101 926 96 928 85 896 54 842 14 842 14ZM714 211L714 282 265 282 265 211ZM714 475L265 475 265 407 714 407ZM714 377L265 377 265 311 714 311Z"/>
</svg>