<svg xmlns="http://www.w3.org/2000/svg"
    viewBox="0 0 1000 1000">
  <!--
© 2017-2024 Adobe (http://www.adobe.com/).
Noto is a trademark of Google Inc.
This Font Software is licensed under the SIL Open Font License, Version 1.1. This Font Software is distributed on an "AS IS" BASIS, WITHOUT WARRANTIES OR CONDITIONS OF ANY KIND, either express or implied. See the SIL Open Font License for the specific language, permissions and limitations governing your use of this Font Software.
http://scripts.sil.org/OFL
  -->
<path d="M732 56L723 65C767 93 818 148 830 194 898 234 938 92 732 56ZM386 378L386 473 186 473 186 378ZM34 758L71 838C81 836 89 829 95 817 218 783 313 754 386 732L386 927 396 927C429 927 450 907 450 902L450 378 512 378C526 378 535 373 538 362 508 334 461 294 461 294L420 349 43 349 51 378 121 378 121 748ZM386 501L386 597 186 597 186 501ZM386 626L386 711 186 739 186 626ZM108 66L108 303 118 303C151 303 172 288 172 283L172 254 402 254 402 289 412 289C442 289 467 275 467 271L467 98C486 94 496 89 502 83L431 28 399 66 183 66 108 34ZM172 225L172 94 402 94 402 225ZM825 366C807 437 779 511 740 583 716 507 700 422 690 333L937 294C949 292 960 285 960 274 924 250 867 219 867 219L829 282 688 305C680 222 678 136 679 52 704 48 712 36 714 24L610 13C610 118 614 219 624 315L531 330 543 357 628 343C641 457 664 562 699 653 641 743 565 826 474 887L484 901C580 851 659 782 722 706 752 770 789 827 836 873 874 914 932 947 959 918 968 908 965 891 938 849L956 695 943 693C931 732 913 781 902 804 893 825 888 825 873 808 828 766 793 712 765 649 819 572 858 490 885 413 911 415 920 409 925 398Z"/>
</svg>