<svg xmlns="http://www.w3.org/2000/svg"
    viewBox="0 0 1000 1000">
  <!--
© 2017-2024 Adobe (http://www.adobe.com/).
Noto is a trademark of Google Inc.
This Font Software is licensed under the SIL Open Font License, Version 1.1. This Font Software is distributed on an "AS IS" BASIS, WITHOUT WARRANTIES OR CONDITIONS OF ANY KIND, either express or implied. See the SIL Open Font License for the specific language, permissions and limitations governing your use of this Font Software.
http://scripts.sil.org/OFL
  -->
<path d="M74 37L61 43C93 86 128 153 131 207 189 258 250 130 74 37ZM233 14L220 19C244 64 272 134 272 189 328 243 394 119 233 14ZM460 19C433 97 396 181 365 234L380 244C427 202 478 137 518 74 538 76 550 68 555 57ZM754 59L744 68C783 98 827 152 838 197 902 241 949 109 754 59ZM153 285L272 285 272 398 153 398ZM39 688L47 717 272 717 272 926 282 926C314 926 335 910 336 905L336 717 569 717C583 717 593 712 596 701 564 671 511 631 511 631L466 688 336 688 336 573 459 573 459 612 468 612C489 612 520 595 521 589L521 292C537 289 552 282 558 275L484 218 450 255 165 255 92 223 92 625 101 625C132 625 153 610 153 605L153 573 272 573 272 688ZM153 427L272 427 272 544 153 544ZM459 285L459 398 336 398 336 285ZM459 427L459 544 336 544 336 427ZM842 372C822 440 792 512 752 583 732 506 719 420 713 329L936 295C949 293 959 286 959 274 924 251 867 220 867 220L831 282 711 301C706 221 706 138 707 56 732 52 741 41 743 28L638 16C638 119 641 218 648 310L540 327 553 354 650 339C660 456 678 562 708 654 647 745 570 828 479 891L490 905C584 852 663 782 727 705 754 771 789 828 835 875 870 913 927 946 954 919 964 908 961 891 935 850L952 696 939 694C928 734 911 781 899 805 891 825 886 826 872 809 829 768 796 712 772 646 826 570 867 491 895 418 920 420 929 415 934 403Z"/>
</svg>