<svg xmlns="http://www.w3.org/2000/svg" name="gid5773" data-unicode="戦"
    viewBox="0 0 1000 1000">
  <!--
© 2017-2024 Adobe (http://www.adobe.com/).
Noto is a trademark of Google Inc.
This Font Software is licensed under the SIL Open Font License, Version 1.1. This Font Software is distributed on an "AS IS" BASIS, WITHOUT WARRANTIES OR CONDITIONS OF ANY KIND, either express or implied. See the SIL Open Font License for the specific language, permissions and limitations governing your use of this Font Software.
http://scripts.sil.org/OFL
  -->
<path d="M74 67L61 73C93 116 128 183 131 237 189 288 250 160 74 67ZM233 44L220 49C244 94 272 164 272 219 328 273 394 149 233 44ZM460 49C433 127 396 211 365 264L380 274C427 232 478 167 518 104 538 106 550 98 555 87ZM754 89L744 98C783 128 827 182 838 227 902 271 949 139 754 89ZM153 315L272 315 272 428 153 428ZM39 718L47 747 272 747 272 956 282 956C314 956 335 940 336 935L336 747 569 747C583 747 593 742 596 731 564 701 511 661 511 661L466 718 336 718 336 603 459 603 459 642 468 642C489 642 520 625 521 619L521 322C537 319 552 312 558 305L484 248 450 285 165 285 92 253 92 655 101 655C132 655 153 640 153 635L153 603 272 603 272 718ZM153 457L272 457 272 574 153 574ZM459 315L459 428 336 428 336 315ZM459 457L459 574 336 574 336 457ZM842 402C822 470 792 542 752 613 732 536 719 450 713 359L936 325C949 323 959 316 959 304 924 281 867 250 867 250L831 312 711 331C706 251 706 168 707 86 732 82 741 71 743 58L638 46C638 149 641 248 648 340L540 357 553 384 650 369C660 486 678 592 708 684 647 775 570 858 479 921L490 935C584 882 663 812 727 735 754 801 789 858 835 905 870 943 927 976 954 949 964 938 961 921 935 880L952 726 939 724C928 764 911 811 899 835 891 855 886 856 872 839 829 798 796 742 772 676 826 600 867 521 895 448 920 450 929 445 934 433Z"/>
</svg>