<svg xmlns="http://www.w3.org/2000/svg"
    viewBox="0 0 1000 1000">
  <!--
© 2017-2023 Adobe (http://www.adobe.com/).
Noto is a trademark of Google Inc.
This Font Software is licensed under the SIL Open Font License, Version 1.1. This Font Software is distributed on an "AS IS" BASIS, WITHOUT WARRANTIES OR CONDITIONS OF ANY KIND, either express or implied. See the SIL Open Font License for the specific language, permissions and limitations governing your use of this Font Software.
http://scripts.sil.org/OFL
  -->
<path d="M466 708C362 816 236 873 86 908L93 928C256 905 392 860 510 762 533 767 543 764 550 755ZM336 508C277 581 193 643 108 684L120 703C216 671 310 620 377 559 398 563 407 561 413 551ZM403 604C328 687 229 748 123 789L133 808C250 777 360 727 443 654 464 658 473 656 479 646ZM765 63L755 72C791 101 832 154 841 198 903 241 952 112 765 63ZM169 214C147 268 97 342 42 386L53 400C120 365 180 309 213 262L224 263 224 392 233 392C252 392 282 377 283 370L283 114C300 111 314 103 320 96L247 41 215 77 52 77 61 105 134 105C114 144 75 198 36 231L48 244C99 218 149 178 175 145 197 150 206 146 212 136L152 105 224 105 224 240ZM443 212C419 262 367 329 313 369L324 383C391 353 453 302 486 259L495 260 495 394 504 394C524 394 554 380 555 373L555 114C572 111 587 103 592 96L519 40 487 77 319 77 328 105 404 105C384 144 346 197 307 229L319 244C370 218 419 178 446 145 469 150 477 146 483 136L422 105 495 105 495 236ZM336 427C363 427 374 421 378 411L278 379C235 456 137 559 34 618L45 631C161 587 264 507 328 436 428 481 504 551 535 607 604 641 648 482 336 427ZM856 368C839 440 811 516 774 590 754 512 743 423 737 329L942 297C954 296 963 288 963 278 929 255 873 223 873 223L836 285 735 301C731 221 731 138 732 56 758 52 767 41 768 28L667 16C667 119 669 218 675 310L568 327 580 354 677 339C686 460 703 570 733 664 678 754 607 837 521 900L533 913C621 861 694 792 752 717 776 777 807 830 847 874 881 913 937 946 962 919 972 910 968 892 944 853L961 698 948 696C937 736 921 783 910 807 901 827 897 828 884 811 846 771 817 719 795 657 847 576 885 491 911 413 937 415 946 409 952 396Z"/>
</svg>