<svg xmlns="http://www.w3.org/2000/svg"
    viewBox="0 0 1000 1000">
  <!--
© 2017-2023 Adobe (http://www.adobe.com/).
Noto is a trademark of Google Inc.
This Font Software is licensed under the SIL Open Font License, Version 1.1. This Font Software is distributed on an "AS IS" BASIS, WITHOUT WARRANTIES OR CONDITIONS OF ANY KIND, either express or implied. See the SIL Open Font License for the specific language, permissions and limitations governing your use of this Font Software.
http://scripts.sil.org/OFL
  -->
<path d="M55 72L64 101 920 101C934 101 944 96 947 85 912 56 858 14 858 14L811 72ZM282 540L272 548C304 575 341 622 349 661 407 703 458 587 282 540ZM197 789L249 855C258 851 263 842 265 830 349 776 413 731 455 700L449 687C346 732 242 774 197 789ZM630 539L620 546C653 573 690 620 699 659 760 700 808 578 630 539ZM565 774L618 841C626 837 632 828 634 816 718 762 781 718 824 688L819 675C715 718 612 759 565 774ZM778 226L778 349 225 349 225 226ZM161 197L161 383C161 558 147 753 39 914L53 925C212 768 225 542 225 383L225 379 778 379 778 413 788 413C810 413 842 398 843 391L843 240C865 237 882 227 889 219L805 156 767 197 238 197 161 163ZM236 471L245 500 467 500 467 833C467 848 462 854 445 854 424 854 334 846 334 846L334 863C375 867 398 875 411 885 424 894 429 911 432 929 518 920 528 889 528 840L528 512C548 509 565 500 571 493L489 431 457 471ZM585 471L594 500 828 500 828 833C828 848 824 854 806 854 784 854 689 846 689 846L689 862C732 867 757 875 770 885 783 894 788 911 791 929 881 921 892 889 892 839L892 512C912 509 929 500 935 493L851 431 818 471Z"/>
</svg>