<svg xmlns="http://www.w3.org/2000/svg"
    viewBox="0 0 1000 1000">
  <!--
© 2017-2023 Adobe (http://www.adobe.com/).
Noto is a trademark of Google Inc.
This Font Software is licensed under the SIL Open Font License, Version 1.1. This Font Software is distributed on an "AS IS" BASIS, WITHOUT WARRANTIES OR CONDITIONS OF ANY KIND, either express or implied. See the SIL Open Font License for the specific language, permissions and limitations governing your use of this Font Software.
http://scripts.sil.org/OFL
  -->
<path d="M605 38C571 261 506 557 437 786 382 792 337 795 305 797L347 892C357 890 367 883 372 871 578 827 730 793 845 764 866 815 882 864 890 907 979 984 1023 757 706 469L691 476C737 550 793 648 835 742 698 759 565 774 462 784 558 561 638 285 679 88 704 87 714 75 717 62ZM27 537L61 622C70 618 79 609 82 597L199 542 199 826C199 841 194 845 177 845 159 845 69 839 69 839L69 855C108 860 131 867 145 878 158 889 163 907 165 927 252 918 262 885 262 831L262 511 432 425 428 410 262 466 262 270 404 270C418 270 427 265 430 254 400 224 353 184 353 184L310 241 262 241 262 50C287 47 297 37 299 23L199 12 199 241 44 241 52 270 199 270 199 486C124 511 62 529 27 537Z"/>
</svg>