<svg xmlns="http://www.w3.org/2000/svg" name="gid5824" data-unicode="扯"
    viewBox="0 0 1000 1000">
  <!--
© 2017-2024 Adobe (http://www.adobe.com/).
Noto is a trademark of Google Inc.
This Font Software is licensed under the SIL Open Font License, Version 1.1. This Font Software is distributed on an "AS IS" BASIS, WITHOUT WARRANTIES OR CONDITIONS OF ANY KIND, either express or implied. See the SIL Open Font License for the specific language, permissions and limitations governing your use of this Font Software.
http://scripts.sil.org/OFL
  -->
<path d="M35 560L75 644C84 640 92 632 96 619L194 573 194 856C194 871 189 876 172 876 155 876 67 870 67 870L67 886C105 891 128 898 141 909 154 920 158 938 160 958 247 948 257 916 257 862L257 543 403 469 399 455 257 498 257 287 385 287C398 287 408 282 410 271 382 242 335 202 335 202L294 257 257 257 257 80C281 77 291 67 294 53L194 42 194 257 39 257 47 287 194 287 194 516C125 537 68 553 35 560ZM307 884L315 913 943 913C957 913 966 908 969 897 937 866 882 822 882 822L834 884 709 884 709 441 909 441C923 441 932 436 935 425 903 394 851 352 851 352L806 412 709 412 709 100C733 96 742 86 744 72L642 61 642 884 500 884 500 334C524 330 533 320 536 306L437 295 437 884Z"/>
</svg>