<svg xmlns="http://www.w3.org/2000/svg"
    viewBox="0 0 1000 1000">
  <!--
© 2017-2023 Adobe (http://www.adobe.com/).
Noto is a trademark of Google Inc.
This Font Software is licensed under the SIL Open Font License, Version 1.1. This Font Software is distributed on an "AS IS" BASIS, WITHOUT WARRANTIES OR CONDITIONS OF ANY KIND, either express or implied. See the SIL Open Font License for the specific language, permissions and limitations governing your use of this Font Software.
http://scripts.sil.org/OFL
  -->
<path d="M34 530L75 614C85 610 93 602 96 589L192 545 192 826C192 841 187 846 170 846 153 846 66 840 66 840L66 856C104 861 127 868 140 879 152 890 157 908 159 928 245 918 255 886 255 832L255 515 405 441 401 427 255 470 255 257 382 257C395 257 405 252 407 241 379 212 332 173 332 173L292 227 255 227 255 50C280 47 290 37 292 23L192 12 192 227 39 227 47 257 192 257 192 488C124 508 67 523 34 530ZM497 16C466 157 405 294 342 381L356 391C407 346 454 285 495 215L855 215C848 566 834 792 798 828 787 839 780 842 759 842 738 842 669 836 625 831L624 849C663 855 704 866 719 877 733 888 737 906 737 927 782 927 822 912 849 879 895 821 911 602 918 224 940 221 952 215 960 207L883 142 844 186 511 186C530 149 548 109 563 68 584 69 596 60 600 49ZM347 637L385 723C395 721 405 715 410 702 529 675 616 651 681 633 692 663 701 692 704 718 767 775 826 630 625 489L612 495C632 528 655 571 673 614L472 630C522 542 568 434 596 354 618 353 630 343 633 331L531 311C512 406 478 533 443 632Z"/>
</svg>