<svg xmlns="http://www.w3.org/2000/svg" name="gid5841" data-unicode="把"
    viewBox="0 0 1000 1000">
  <!--
© 2017-2024 Adobe (http://www.adobe.com/).
Noto is a trademark of Google Inc.
This Font Software is licensed under the SIL Open Font License, Version 1.1. This Font Software is distributed on an "AS IS" BASIS, WITHOUT WARRANTIES OR CONDITIONS OF ANY KIND, either express or implied. See the SIL Open Font License for the specific language, permissions and limitations governing your use of this Font Software.
http://scripts.sil.org/OFL
  -->
<path d="M477 167L634 167 634 470 477 470ZM413 137L413 839C413 910 445 928 547 928L701 928C918 928 964 918 964 883 964 869 956 862 929 853L927 703 913 703C899 774 886 831 877 848 871 857 864 862 849 863 826 866 775 867 703 867L552 867C488 867 477 856 477 825L477 499 848 499 848 575 859 575C888 575 912 560 912 554L912 177C933 174 945 167 951 159L871 98 840 137 489 137 413 105ZM697 167L848 167 848 470 697 470ZM34 558L74 643C84 639 92 631 95 618L196 573 196 856C196 871 191 876 174 876 157 876 69 870 69 870L69 886C107 891 130 898 144 909 156 920 161 938 163 958 249 948 259 916 259 862L259 543 409 471 405 457 259 499 259 287 387 287C400 287 410 282 412 271 384 242 336 202 336 202L295 257 259 257 259 80C283 77 293 67 296 53L196 42 196 257 41 257 49 287 196 287 196 517C126 536 68 551 34 558Z"/>
</svg>