<svg xmlns="http://www.w3.org/2000/svg" name="gid5850" data-unicode="投"
    viewBox="0 0 1000 1000">
  <!--
© 2017-2024 Adobe (http://www.adobe.com/).
Noto is a trademark of Google Inc.
This Font Software is licensed under the SIL Open Font License, Version 1.1. This Font Software is distributed on an "AS IS" BASIS, WITHOUT WARRANTIES OR CONDITIONS OF ANY KIND, either express or implied. See the SIL Open Font License for the specific language, permissions and limitations governing your use of this Font Software.
http://scripts.sil.org/OFL
  -->
<path d="M492 91L492 176C492 268 477 369 374 453L385 466C538 387 555 261 555 176L555 120 721 120 721 351C721 391 730 408 787 408L845 408C938 408 964 395 964 370 964 357 961 350 943 343L940 221 926 221C917 271 906 325 900 339 897 348 894 349 888 350 882 350 866 350 847 350L804 350C786 350 784 348 784 337L784 129C802 127 812 121 818 116L747 53 713 91 567 91 492 58ZM780 516C749 597 704 669 644 732 580 675 531 603 499 516ZM393 487L402 516 477 516C506 618 549 701 607 768 526 841 422 899 295 940L303 957C443 923 554 872 642 805 712 872 800 922 906 957 917 925 940 904 969 900L970 891C862 865 766 824 687 767 761 699 816 618 855 526 879 525 890 522 897 514L824 445 779 487ZM26 557L65 640C74 635 81 624 83 612L191 545 191 856C191 871 186 876 169 876 151 876 64 870 64 870L64 886C102 891 125 898 138 909 150 920 155 938 158 958 244 948 254 916 254 862L254 505 376 424 371 410 254 462 254 300 377 300C391 300 400 295 403 284 375 254 328 215 328 215L287 271 254 271 254 80C278 77 288 67 291 53L191 42 191 271 41 271 49 300 191 300 191 490C118 521 58 546 26 557Z"/>
</svg>