<svg xmlns="http://www.w3.org/2000/svg"
    viewBox="0 0 1000 1000">
  <!--
© 2017-2023 Adobe (http://www.adobe.com/).
Noto is a trademark of Google Inc.
This Font Software is licensed under the SIL Open Font License, Version 1.1. This Font Software is distributed on an "AS IS" BASIS, WITHOUT WARRANTIES OR CONDITIONS OF ANY KIND, either express or implied. See the SIL Open Font License for the specific language, permissions and limitations governing your use of this Font Software.
http://scripts.sil.org/OFL
  -->
<path d="M26 536L58 621C68 618 76 608 79 596L191 540 191 826C191 841 186 846 169 846 151 846 64 840 64 840L64 856C102 861 125 868 138 879 150 890 155 908 158 928 244 918 254 886 254 832L254 507 381 439 376 424 254 465 254 270 377 270 384 269 384 927 395 927C423 927 447 911 447 903L447 300 611 300C607 430 581 579 469 705L482 717C582 641 630 544 653 449 705 514 764 602 781 668 850 722 896 571 659 423 667 381 671 339 672 300L857 300 857 824C857 840 852 846 833 846 811 846 704 838 704 838L704 854C751 860 776 868 792 879 807 889 813 906 816 926 909 916 920 883 920 832L920 313C940 309 956 301 963 293L880 231 847 272 673 272 673 248 673 119 940 119C954 119 964 114 967 103 932 72 877 27 877 27L828 90 357 90 365 119 612 119 612 248 612 272 452 272 392 243C365 215 328 185 328 185L287 241 254 241 254 50C278 47 288 37 291 23L191 12 191 241 41 241 49 270 191 270 191 486C118 510 58 529 26 536Z"/>
</svg>