<svg xmlns="http://www.w3.org/2000/svg" name="gid5867" data-unicode="抹"
    viewBox="0 0 1000 1000">
  <!--
© 2017-2024 Adobe (http://www.adobe.com/).
Noto is a trademark of Google Inc.
This Font Software is licensed under the SIL Open Font License, Version 1.1. This Font Software is distributed on an "AS IS" BASIS, WITHOUT WARRANTIES OR CONDITIONS OF ANY KIND, either express or implied. See the SIL Open Font License for the specific language, permissions and limitations governing your use of this Font Software.
http://scripts.sil.org/OFL
  -->
<path d="M627 50L627 234 386 234 394 262 627 262 627 450 406 450 414 479 588 479C533 620 437 754 312 849L323 865C456 786 559 679 627 553L627 959 639 959C664 959 691 942 691 933L691 498C743 653 826 782 915 861 926 828 950 808 978 805L980 794C881 733 770 613 708 479L926 479C941 479 950 474 953 463 920 433 866 390 866 390L819 450 691 450 691 262 937 262C951 262 961 257 963 247 931 216 877 173 877 173L830 234 691 234 691 86C713 83 721 74 723 60ZM26 561L61 645C71 641 78 631 81 618L192 558 192 856C192 871 187 876 170 876 152 876 65 870 65 870L65 886C103 891 126 898 139 909 152 920 156 938 159 958 245 948 255 916 255 862L255 523 400 440 394 426 255 479 255 300 377 300C391 300 400 295 403 284 375 254 328 215 328 215L287 271 255 271 255 80C279 77 289 67 292 53L192 42 192 271 41 271 49 300 192 300 192 503C119 530 59 552 26 561Z"/>
</svg>