<svg xmlns="http://www.w3.org/2000/svg" name="gid5880" data-unicode="拉"
    viewBox="0 0 1000 1000">
  <!--
© 2017-2024 Adobe (http://www.adobe.com/).
Noto is a trademark of Google Inc.
This Font Software is licensed under the SIL Open Font License, Version 1.1. This Font Software is distributed on an "AS IS" BASIS, WITHOUT WARRANTIES OR CONDITIONS OF ANY KIND, either express or implied. See the SIL Open Font License for the specific language, permissions and limitations governing your use of this Font Software.
http://scripts.sil.org/OFL
  -->
<path d="M479 339L461 343C496 462 536 635 530 766 606 847 659 622 479 339ZM616 54L616 251 414 251 422 280 926 280C941 280 951 275 953 264 921 234 868 190 868 190L821 251 681 251 681 90C703 86 711 77 713 64ZM787 326C758 485 708 707 663 871L346 871 354 900 948 900C962 900 972 895 974 884 942 852 888 809 888 809L840 871 684 871C752 714 822 512 860 376 883 375 894 366 898 353ZM35 561L74 645C84 641 92 632 95 620L197 573 197 856C197 871 192 875 175 875 157 875 68 869 68 869L68 885C107 890 129 897 143 908 156 919 161 937 163 957 250 947 260 915 260 861L260 542 409 468 404 454 260 498 260 289 389 289C402 289 412 284 414 273 385 244 337 203 337 203L296 260 260 260 260 80C284 77 294 67 297 53L197 42 197 260 41 260 49 289 197 289 197 516C127 537 68 554 35 561Z"/>
</svg>