<svg xmlns="http://www.w3.org/2000/svg"
    viewBox="0 0 1000 1000">
  <!--
© 2017-2024 Adobe (http://www.adobe.com/).
Noto is a trademark of Google Inc.
This Font Software is licensed under the SIL Open Font License, Version 1.1. This Font Software is distributed on an "AS IS" BASIS, WITHOUT WARRANTIES OR CONDITIONS OF ANY KIND, either express or implied. See the SIL Open Font License for the specific language, permissions and limitations governing your use of this Font Software.
http://scripts.sil.org/OFL
  -->
<path d="M502 73C473 175 425 277 378 341L393 351C457 298 518 217 563 126 584 127 595 118 600 108ZM762 77L751 85C809 138 880 226 898 296 971 347 1016 183 762 77ZM630 19L630 377 423 377 430 407 630 407 630 592 358 592 366 621 630 621 630 928 642 928C667 928 694 911 694 901L694 621 948 621C963 621 971 616 974 605 941 574 887 532 887 532L841 592 694 592 694 407 903 407C917 407 926 402 929 391 898 361 847 320 847 320L802 377 694 377 694 56C716 53 724 43 726 30ZM26 536L58 621C68 618 76 608 79 596L191 541 191 826C191 841 186 846 169 846 151 846 64 840 64 840L64 856C102 861 125 868 138 879 150 890 155 908 158 928 244 918 254 886 254 832L254 509 393 435 388 420 254 465 254 270 377 270C391 270 400 265 403 254 375 224 328 185 328 185L287 241 254 241 254 50C278 47 288 37 291 23L191 12 191 241 41 241 49 270 191 270 191 486C119 510 59 528 26 536Z"/>
</svg>