<svg xmlns="http://www.w3.org/2000/svg" name="gid5895" data-unicode="拙"
    viewBox="0 0 1000 1000">
  <!--
© 2017-2024 Adobe (http://www.adobe.com/).
Noto is a trademark of Google Inc.
This Font Software is licensed under the SIL Open Font License, Version 1.1. This Font Software is distributed on an "AS IS" BASIS, WITHOUT WARRANTIES OR CONDITIONS OF ANY KIND, either express or implied. See the SIL Open Font License for the specific language, permissions and limitations governing your use of this Font Software.
http://scripts.sil.org/OFL
  -->
<path d="M616 53L616 421 480 421 480 180C504 176 512 168 514 154L417 143 417 506 429 506C452 506 480 493 480 485L480 450 616 450 616 839 442 839 442 606C466 602 476 593 478 580L378 569 378 958 391 958C415 958 442 944 442 937L442 868 852 868 852 945 864 945C889 945 916 931 916 923L916 601C942 597 951 588 953 575L852 564 852 839 680 839 680 450 821 450 821 505 833 505C858 505 886 492 886 483L886 182C910 178 920 168 922 155L821 143 821 421 680 421 680 92C705 88 712 78 715 64ZM26 566L58 651C68 648 76 638 79 626L191 572 191 856C191 871 186 876 169 876 151 876 64 870 64 870L64 886C102 891 125 898 138 909 150 920 155 938 158 958 244 948 254 916 254 862L254 540 398 464 393 449 254 496 254 300 377 300C391 300 400 295 403 284 375 254 328 215 328 215L287 271 254 271 254 80C278 77 288 67 291 53L191 42 191 271 41 271 49 300 191 300 191 516C119 540 59 558 26 566Z"/>
</svg>