<svg xmlns="http://www.w3.org/2000/svg" name="gid5914" data-unicode="拼"
    viewBox="0 0 1000 1000">
  <!--
© 2017-2024 Adobe (http://www.adobe.com/).
Noto is a trademark of Google Inc.
This Font Software is licensed under the SIL Open Font License, Version 1.1. This Font Software is distributed on an "AS IS" BASIS, WITHOUT WARRANTIES OR CONDITIONS OF ANY KIND, either express or implied. See the SIL Open Font License for the specific language, permissions and limitations governing your use of this Font Software.
http://scripts.sil.org/OFL
  -->
<path d="M448 45L436 51C473 97 513 170 517 229 584 285 649 137 448 45ZM764 40C741 115 708 196 683 246L697 255C742 215 791 155 830 96 850 98 862 90 867 78ZM719 298L719 532 562 532 562 509 562 298ZM26 554L58 640C68 637 76 626 79 614L191 559 191 856C191 871 186 876 169 876 151 876 64 870 64 870L64 886C102 891 125 898 138 909 150 920 155 938 158 958 244 948 254 916 254 862L254 527 392 454 387 441 254 485 254 300 367 300C375 300 382 298 386 293L387 298 496 298 496 510 496 532 334 532 342 561 495 561C489 703 450 837 290 947L302 960C508 860 553 708 561 561L719 561 719 957 730 957C763 957 784 941 784 936L784 561 942 561C956 561 966 556 968 545 936 515 885 473 885 473L839 532 784 532 784 298 925 298C938 298 948 293 951 282 918 251 866 210 866 210L820 268 379 268 380 271C353 244 316 215 316 215L276 271 254 271 254 80C278 77 288 67 291 53L191 42 191 271 41 271 49 300 191 300 191 505C118 528 58 546 26 554Z"/>
</svg>