<svg xmlns="http://www.w3.org/2000/svg"
    viewBox="0 0 1000 1000">
  <!--
© 2017-2023 Adobe (http://www.adobe.com/).
Noto is a trademark of Google Inc.
This Font Software is licensed under the SIL Open Font License, Version 1.1. This Font Software is distributed on an "AS IS" BASIS, WITHOUT WARRANTIES OR CONDITIONS OF ANY KIND, either express or implied. See the SIL Open Font License for the specific language, permissions and limitations governing your use of this Font Software.
http://scripts.sil.org/OFL
  -->
<path d="M403 169L403 234C375 206 335 172 335 172L294 227 258 227 258 50C283 47 293 37 295 23L195 12 195 227 39 227 47 257 195 257 195 486C124 506 65 522 32 530L70 615C80 611 88 602 91 590L195 541 195 826C195 841 191 846 173 846 156 846 69 840 69 840L69 856C107 861 129 868 143 879 155 890 160 908 162 928 248 918 258 886 258 832L258 511 397 441 393 427 258 467 258 257 385 257C393 257 399 255 403 251L403 595 413 595C443 595 464 578 464 573L464 525 640 525C651 593 666 654 688 706 603 785 488 852 362 893L369 908C502 880 621 826 713 760 746 820 790 866 847 897 891 924 946 943 962 910 968 899 965 887 938 857L951 710 938 709C927 751 911 798 899 824 892 843 887 845 870 833 825 808 789 770 763 721 798 690 829 657 852 624 875 629 885 625 891 616L800 568C783 599 761 629 735 659 720 619 709 574 701 525L852 525 852 558 861 558C882 558 913 543 914 537L914 208C931 205 946 197 952 190L877 133 843 169 677 169 678 60C703 55 712 44 713 31L612 19 613 169 476 169 403 138ZM621 359C624 407 629 453 635 496L464 496 464 359ZM683 359L852 359 852 496 696 496C690 453 685 407 683 359ZM619 330L464 330 464 199 614 199C615 244 617 288 619 330ZM681 330C679 288 678 244 677 199L852 199 852 330Z"/>
</svg>