<svg xmlns="http://www.w3.org/2000/svg"
    viewBox="0 0 1000 1000">
  <!--
© 2017-2024 Adobe (http://www.adobe.com/).
Noto is a trademark of Google Inc.
This Font Software is licensed under the SIL Open Font License, Version 1.1. This Font Software is distributed on an "AS IS" BASIS, WITHOUT WARRANTIES OR CONDITIONS OF ANY KIND, either express or implied. See the SIL Open Font License for the specific language, permissions and limitations governing your use of this Font Software.
http://scripts.sil.org/OFL
  -->
<path d="M519 687L828 687 828 826 519 826ZM519 659L519 525 828 525 828 659ZM456 495L456 929 466 929C494 929 519 914 519 907L519 855 828 855 828 923 838 923C860 923 892 908 893 901L893 537C913 533 929 525 936 517L855 456 818 495 525 495 456 464ZM830 58C764 109 635 174 513 215L513 50C532 47 541 38 543 26L450 16 450 330C450 385 471 399 565 399L716 399C922 399 958 389 958 357 958 344 951 338 926 331L923 231 911 231C900 277 890 315 881 328 876 336 871 338 855 339 837 340 784 341 719 341L571 341C519 341 513 336 513 319L513 238C646 212 780 164 865 123 890 131 906 130 914 120ZM27 537L61 621C70 617 79 608 82 596L195 542 195 826C195 841 190 845 173 845 155 845 66 839 66 839L66 855C105 860 128 867 142 878 154 889 159 906 162 927 248 917 258 885 258 831L258 510 416 429 411 414 258 466 258 270 393 270C406 270 416 265 418 254 390 224 342 184 342 184L300 241 258 241 258 50C282 47 292 37 295 23L195 12 195 241 42 241 50 270 195 270 195 486C121 510 60 529 27 537Z"/>
</svg>