<svg xmlns="http://www.w3.org/2000/svg" name="gid5970" data-unicode="捕"
    viewBox="0 0 1000 1000">
  <!--
© 2017-2024 Adobe (http://www.adobe.com/).
Noto is a trademark of Google Inc.
This Font Software is licensed under the SIL Open Font License, Version 1.1. This Font Software is distributed on an "AS IS" BASIS, WITHOUT WARRANTIES OR CONDITIONS OF ANY KIND, either express or implied. See the SIL Open Font License for the specific language, permissions and limitations governing your use of this Font Software.
http://scripts.sil.org/OFL
  -->
<path d="M726 67L718 79C761 96 814 133 837 165 905 188 921 62 726 67ZM378 350L378 956 389 956C417 956 442 940 442 932L442 700 606 700 606 950 619 950C642 950 669 933 669 924L669 700 835 700 835 856C835 870 831 875 817 875 799 875 725 869 725 869L725 885C760 890 779 897 791 908 802 919 805 937 808 956 890 948 899 916 899 864L899 392C919 388 936 380 943 372L858 308 825 350 669 350 669 242 939 242C953 242 963 237 965 226 933 196 881 156 881 156L835 212 669 212 669 82C691 79 698 70 700 57L606 48 606 212 354 212 362 242 606 242 606 350 447 350 378 317ZM606 378L606 510 442 510 442 378ZM669 378L835 378 835 510 669 510ZM606 539L606 670 442 670 442 539ZM669 539L835 539 835 670 669 670ZM25 564L61 648C70 644 78 634 81 622L181 568 181 857C181 872 176 877 159 877 142 877 55 871 55 871L55 887C94 892 115 899 129 910 141 920 146 938 149 958 234 948 243 916 243 863L243 533 357 467 352 453 243 492 243 300 355 300C369 300 377 295 380 284 353 254 307 214 307 214L266 271 243 271 243 80C267 77 277 67 280 53L181 42 181 271 41 271 49 300 181 300 181 514C113 538 56 556 25 564Z"/>
</svg>