<svg xmlns="http://www.w3.org/2000/svg"
    viewBox="0 0 1000 1000">
  <!--
© 2017-2023 Adobe (http://www.adobe.com/).
Noto is a trademark of Google Inc.
This Font Software is licensed under the SIL Open Font License, Version 1.1. This Font Software is distributed on an "AS IS" BASIS, WITHOUT WARRANTIES OR CONDITIONS OF ANY KIND, either express or implied. See the SIL Open Font License for the specific language, permissions and limitations governing your use of this Font Software.
http://scripts.sil.org/OFL
  -->
<path d="M34 530L73 614C82 610 90 599 93 587L192 531 192 826C192 841 187 846 170 846 153 846 66 840 66 840L66 856C104 861 126 868 140 879 152 890 157 908 160 928 245 918 255 886 255 832L255 495 362 431 357 416 255 454 255 257 380 257C394 257 403 252 406 241 377 212 331 173 331 173L291 227 255 227 255 50C279 47 289 37 292 23L192 12 192 227 41 227 49 257 192 257 192 477C123 502 66 521 34 530ZM401 283L401 640 411 640C437 640 465 625 465 619L465 591 613 591 613 709 329 709 337 739 613 739 613 929 625 929C650 929 679 912 679 902L679 739 948 739C961 739 971 734 974 723 941 692 886 650 886 650L839 709 679 709 679 591 832 591 832 620 842 620C864 620 895 604 896 598L896 325C916 321 933 312 940 304L858 243 822 283 679 283 679 184 931 184C945 184 955 179 958 168 924 137 871 95 871 95L822 154 679 154 679 51C704 47 711 37 714 23L613 13 613 154 363 154 371 184 613 184 613 283 470 283 401 252ZM613 450L613 562 465 562 465 450ZM613 421L465 421 465 312 613 312ZM679 450L832 450 832 562 679 562ZM679 421L679 312 832 312 832 421Z"/>
</svg>