<svg xmlns="http://www.w3.org/2000/svg"
    viewBox="0 0 1000 1000">
  <!--
© 2017-2024 Adobe (http://www.adobe.com/).
Noto is a trademark of Google Inc.
This Font Software is licensed under the SIL Open Font License, Version 1.1. This Font Software is distributed on an "AS IS" BASIS, WITHOUT WARRANTIES OR CONDITIONS OF ANY KIND, either express or implied. See the SIL Open Font License for the specific language, permissions and limitations governing your use of this Font Software.
http://scripts.sil.org/OFL
  -->
<path d="M567 12C563 48 559 84 552 121L356 121 364 151 547 151C541 182 534 214 525 245L379 245 387 275 517 275C505 313 492 350 477 386L328 386 336 416 463 416C419 510 359 595 279 661L291 673C394 606 467 515 519 416L724 416C764 490 824 566 916 622 923 588 942 579 973 575L974 563C888 520 824 468 778 416L939 416C953 416 963 411 965 400 933 369 881 327 881 327L834 386 754 386C724 347 703 309 689 275L883 275C897 275 906 270 908 259 878 229 829 190 829 190L785 245 588 245C598 214 606 182 614 151L903 151C917 151 926 146 929 135 898 104 845 64 845 64L800 121 620 121 633 52C662 50 670 42 673 29ZM579 275L667 275C677 307 690 346 709 386L534 386C551 350 566 312 579 275ZM583 461L583 568 431 568 438 598 583 598 583 705 350 705 358 734 583 734 583 929 595 929C619 929 647 914 647 906L647 734 872 734C886 734 895 729 898 718 869 691 824 654 824 654L784 705 647 705 647 598 780 598C794 598 803 593 805 582 781 557 742 525 742 525L707 568 647 568 647 495C668 491 676 483 678 471ZM25 537L61 621C71 617 79 608 81 595L181 545 181 826C181 841 176 846 159 846 142 846 55 840 55 840L55 856C94 861 115 868 129 879 141 890 146 908 149 928 235 918 244 886 244 832L244 511 368 444 362 430 244 470 244 270 355 270C369 270 377 265 380 254 353 224 307 184 307 184L266 241 244 241 244 50C269 47 279 37 281 23L181 12 181 241 41 241 49 270 181 270 181 491C113 513 56 530 25 537Z"/>
</svg>