<svg xmlns="http://www.w3.org/2000/svg" name="gid5981" data-unicode="捫"
    viewBox="0 0 1000 1000">
  <!--
© 2017-2024 Adobe (http://www.adobe.com/).
Noto is a trademark of Google Inc.
This Font Software is licensed under the SIL Open Font License, Version 1.1. This Font Software is distributed on an "AS IS" BASIS, WITHOUT WARRANTIES OR CONDITIONS OF ANY KIND, either express or implied. See the SIL Open Font License for the specific language, permissions and limitations governing your use of this Font Software.
http://scripts.sil.org/OFL
  -->
<path d="M355 105L355 261C328 234 293 202 293 202L252 257 226 257 226 80C249 77 259 67 262 53L163 42 163 257 39 257 47 287 163 287 163 519C107 538 61 553 34 560L77 639C86 635 94 626 96 614L163 578 163 857C163 872 159 877 142 877 124 877 39 871 39 871L39 887C77 892 99 899 112 910 124 920 129 938 131 958 216 948 226 916 226 863L226 543 355 468 355 957 364 957C394 957 414 940 414 935L414 448 535 448 535 507 544 507C563 507 592 492 593 485L593 139C608 137 622 130 628 123L559 71 527 105 426 105 355 73ZM226 287L339 287C345 287 351 286 355 284L355 464 351 453 226 498ZM414 133L535 133 535 259 414 259ZM414 288L535 288 535 420 414 420ZM731 288L859 288 859 420 731 420ZM731 259L731 133 859 133 859 259ZM673 105L673 500 683 500C707 500 731 485 731 479L731 448 859 448 859 855C859 871 853 877 835 877 814 877 709 870 709 869L709 886C754 892 780 899 796 911 809 921 815 938 818 958 910 948 920 914 920 863L920 146C940 141 956 133 963 125L882 63 849 105 736 105 673 75Z"/>
</svg>