<svg xmlns="http://www.w3.org/2000/svg" name="gid5990" data-unicode="捷"
    viewBox="0 0 1000 1000">
  <!--
© 2017-2024 Adobe (http://www.adobe.com/).
Noto is a trademark of Google Inc.
This Font Software is licensed under the SIL Open Font License, Version 1.1. This Font Software is distributed on an "AS IS" BASIS, WITHOUT WARRANTIES OR CONDITIONS OF ANY KIND, either express or implied. See the SIL Open Font License for the specific language, permissions and limitations governing your use of this Font Software.
http://scripts.sil.org/OFL
  -->
<path d="M406 601C391 752 337 869 256 947L270 959C344 915 401 846 437 752 499 893 593 928 757 928 801 928 896 928 935 928 936 902 947 881 971 876L971 863C917 864 809 864 762 864 720 864 683 862 649 858L649 707 868 707C882 707 892 703 895 692 862 662 811 625 811 625L765 678 649 678 649 555 794 555 794 594 803 594C824 594 855 578 856 572L856 422 947 422C961 422 970 417 972 406 947 378 903 342 903 342L866 392 856 392 856 305C872 302 887 294 892 288L819 231 784 267 649 267 649 182 924 182C938 182 947 177 950 166 917 135 865 93 865 93L817 152 649 152 649 82C672 79 680 69 682 55L585 45 585 152 333 152 341 182 585 182 585 267 386 267 395 297 585 297 585 392 317 392 325 422 585 422 585 525 375 525 384 555 585 555 585 844C525 825 481 789 447 725 456 700 463 672 469 643 491 643 502 634 505 620ZM649 422L794 422 794 525 649 525ZM649 392L649 297 794 297 794 392ZM25 564L61 647C71 644 79 635 81 622L181 571 181 856C181 871 176 876 159 876 142 876 55 870 55 870L55 886C94 891 115 898 129 909 141 920 146 938 149 958 235 948 244 916 244 862L244 537 359 474 355 459 244 496 244 300 355 300C369 300 377 295 380 284 353 254 307 214 307 214L266 271 244 271 244 80C269 77 279 67 281 53L181 42 181 271 41 271 49 300 181 300 181 517C113 539 56 557 25 564Z"/>
</svg>