<svg xmlns="http://www.w3.org/2000/svg" name="gid5993" data-unicode="捻"
    viewBox="0 0 1000 1000">
  <!--
© 2017-2024 Adobe (http://www.adobe.com/).
Noto is a trademark of Google Inc.
This Font Software is licensed under the SIL Open Font License, Version 1.1. This Font Software is distributed on an "AS IS" BASIS, WITHOUT WARRANTIES OR CONDITIONS OF ANY KIND, either express or implied. See the SIL Open Font License for the specific language, permissions and limitations governing your use of this Font Software.
http://scripts.sil.org/OFL
  -->
<path d="M488 307L496 335 763 335C776 335 786 330 788 319 760 292 714 255 714 255L673 307ZM483 666L483 879C483 923 496 938 569 938L666 938C807 938 835 927 835 900 835 888 830 881 810 874L806 774 794 774C784 818 775 858 768 871 764 879 760 881 750 882 739 883 707 883 667 883L579 883C548 883 544 880 544 867L544 700C562 697 572 688 573 676ZM796 667L784 674C830 720 884 799 895 860 964 913 1019 759 796 667ZM405 676C403 735 368 796 335 819 315 833 304 855 315 874 328 896 364 891 384 872 416 842 444 773 423 677ZM533 602L525 613C578 637 645 688 669 733 744 765 763 616 533 602ZM652 97C700 208 799 305 904 367 910 339 933 315 962 307L963 294C849 249 730 178 668 85 691 84 701 79 704 68L588 44C555 151 422 304 308 382L316 394C448 329 586 211 652 97ZM416 416L425 444 756 444C736 491 706 556 680 607 708 618 728 619 745 614 771 566 805 496 823 457 844 455 862 450 869 444L794 378 758 416ZM25 564L61 647C71 644 79 635 82 622L183 572 183 857C183 872 178 877 161 877 143 877 56 871 56 871L56 887C95 892 117 899 131 910 143 920 147 938 150 958 236 948 245 916 245 863L245 539 381 466 376 452 245 496 245 300 357 300C371 300 379 295 382 284 355 254 309 214 309 214L269 271 245 271 245 80C269 77 279 67 282 53L183 42 183 271 41 271 49 300 183 300 183 517C114 539 57 556 25 564Z"/>
</svg>