<svg xmlns="http://www.w3.org/2000/svg"
    viewBox="0 0 1000 1000">
  <!--
© 2017-2023 Adobe (http://www.adobe.com/).
Noto is a trademark of Google Inc.
This Font Software is licensed under the SIL Open Font License, Version 1.1. This Font Software is distributed on an "AS IS" BASIS, WITHOUT WARRANTIES OR CONDITIONS OF ANY KIND, either express or implied. See the SIL Open Font License for the specific language, permissions and limitations governing your use of this Font Software.
http://scripts.sil.org/OFL
  -->
<path d="M449 314L457 344 762 344C775 344 785 339 788 328 759 300 713 263 713 263L673 314ZM627 60C688 188 801 300 927 378 934 355 949 336 972 329L974 316C841 258 717 156 643 49 666 48 675 43 678 32L571 10C526 135 401 289 277 369L286 386C427 312 559 188 627 60ZM356 441L356 928 366 928C391 928 416 913 416 906L416 659 514 659 514 909 522 909C550 909 569 895 569 891L569 659 669 659 669 909 677 909C705 909 724 895 724 891L724 659 826 659 826 829C826 842 822 847 810 847 795 847 734 842 734 842L734 858C763 862 780 869 790 879 799 890 803 907 804 926 879 918 888 887 888 837L888 479C904 476 918 468 924 461L848 405 818 441 422 441 356 410ZM416 630L416 470 514 470 514 630ZM826 630L724 630 724 470 826 470ZM569 630L569 470 669 470 669 630ZM31 519L65 603C75 599 83 590 87 578L165 539 165 827C165 842 161 847 144 847 126 847 39 841 39 841L39 857C78 862 100 869 113 880 125 890 130 908 133 928 218 918 228 886 228 833L228 507 347 445 343 431 228 466 228 261 345 261C358 261 368 256 371 245 343 215 297 174 297 174L256 231 228 231 228 50C252 47 262 37 264 23L165 12 165 231 40 231 48 261 165 261 165 484C107 500 59 513 31 519Z"/>
</svg>