<svg xmlns="http://www.w3.org/2000/svg" name="gid6012" data-unicode="掖"
    viewBox="0 0 1000 1000">
  <!--
© 2017-2024 Adobe (http://www.adobe.com/).
Noto is a trademark of Google Inc.
This Font Software is licensed under the SIL Open Font License, Version 1.1. This Font Software is distributed on an "AS IS" BASIS, WITHOUT WARRANTIES OR CONDITIONS OF ANY KIND, either express or implied. See the SIL Open Font License for the specific language, permissions and limitations governing your use of this Font Software.
http://scripts.sil.org/OFL
  -->
<path d="M684 419L672 426C697 457 724 510 727 552 784 602 848 484 684 419ZM612 51L612 177 346 177 354 206 939 206C953 206 963 201 965 190 932 160 880 117 880 117L833 177 675 177 675 87C699 83 707 74 708 61ZM483 215C451 339 381 511 285 625L298 637C338 601 375 559 407 514L407 956 419 956C443 956 468 939 469 933L469 459C486 456 496 450 499 442L462 428C496 369 522 311 541 261 567 263 574 257 579 246ZM685 368L851 368C829 481 791 593 734 693 688 631 652 561 626 487 649 447 669 407 685 368ZM665 215C640 343 579 520 491 637L503 649C544 609 580 562 611 512 634 599 664 676 702 743 650 821 585 890 504 946L516 960C604 912 673 853 729 786 777 857 836 914 907 956 917 921 941 900 968 895L970 886C894 855 825 802 768 735 843 627 888 503 917 378 939 375 950 373 957 364L886 299 846 339 697 339C708 311 717 285 725 260 750 260 759 254 763 243ZM25 564L61 647C71 643 78 631 80 620L181 558 181 856C181 871 176 876 159 876 142 876 55 870 55 870L55 886C94 891 115 898 129 909 141 920 146 938 149 958 235 948 244 916 244 862L244 517 357 444 351 431 244 477 244 300 355 300C369 300 377 295 380 284 353 254 307 214 307 214L266 271 244 271 244 80C269 77 279 67 281 53L181 42 181 271 41 271 49 300 181 300 181 503C112 532 55 555 25 564Z"/>
</svg>