<svg xmlns="http://www.w3.org/2000/svg" name="gid6013" data-unicode="掘"
    viewBox="0 0 1000 1000">
  <!--
© 2017-2024 Adobe (http://www.adobe.com/).
Noto is a trademark of Google Inc.
This Font Software is licensed under the SIL Open Font License, Version 1.1. This Font Software is distributed on an "AS IS" BASIS, WITHOUT WARRANTIES OR CONDITIONS OF ANY KIND, either express or implied. See the SIL Open Font License for the specific language, permissions and limitations governing your use of this Font Software.
http://scripts.sil.org/OFL
  -->
<path d="M440 128L848 128 848 264 440 264ZM25 564L61 647C71 644 79 635 81 622L181 571 181 856C181 871 176 876 159 876 142 876 55 870 55 870L55 886C94 891 115 898 129 909 141 920 146 938 149 958 235 948 244 916 244 862L244 538 364 472 360 458 244 497 244 300 355 300C367 300 375 296 378 287L378 350C378 547 369 761 274 935L290 945C432 772 440 529 440 350L440 293 848 293 848 331 858 331C879 331 910 316 911 310L911 135C927 133 941 126 946 119L874 64 840 99 452 99 378 66 378 282C351 252 307 214 307 214L266 271 244 271 244 80C269 77 279 67 281 53L181 42 181 271 41 271 49 300 181 300 181 517C113 539 56 557 25 564ZM842 377L842 558 724 558 724 366C748 362 757 352 760 339L664 328 664 558 549 558 549 409C569 406 577 398 578 386L492 377 492 637 503 637C524 637 549 624 549 617L549 587 664 587 664 857 527 857 527 705C547 702 554 694 556 682L467 672 467 955 479 955C500 955 527 942 527 935L527 887 860 887 860 947 871 947C893 947 921 933 921 925L921 703C942 700 951 692 953 679L860 669 860 857 724 857 724 587 842 587 842 623 854 623C876 623 903 610 903 603L903 411C924 407 932 399 934 386Z"/>
</svg>