<svg xmlns="http://www.w3.org/2000/svg" name="gid6019" data-unicode="掠"
    viewBox="0 0 1000 1000">
  <!--
© 2017-2024 Adobe (http://www.adobe.com/).
Noto is a trademark of Google Inc.
This Font Software is licensed under the SIL Open Font License, Version 1.1. This Font Software is distributed on an "AS IS" BASIS, WITHOUT WARRANTIES OR CONDITIONS OF ANY KIND, either express or implied. See the SIL Open Font License for the specific language, permissions and limitations governing your use of this Font Software.
http://scripts.sil.org/OFL
  -->
<path d="M488 639C446 733 384 821 327 872L340 885C412 845 485 779 539 698 561 702 574 695 578 684ZM765 649L755 657C809 711 879 801 897 870 970 922 1019 762 765 649ZM624 47L624 187 371 187 379 216 945 216C959 216 968 211 971 200 939 170 885 126 885 126L838 187 689 187 689 84C713 81 723 71 725 57ZM443 320L443 608 452 608C479 608 507 594 507 588L507 553 628 553 628 858C628 871 624 876 608 876 590 876 503 870 503 870L503 885C544 890 565 897 578 909 589 919 595 938 596 958 681 948 693 911 693 859L693 553 815 553 815 596 824 596C846 596 878 581 879 574L879 363C898 359 914 350 921 342L841 281 805 320 512 320 443 290ZM507 523L507 350 815 350 815 523ZM26 567L60 652C70 648 78 638 80 627L185 572 185 856C185 871 181 876 163 876 146 876 58 870 58 870L58 886C98 891 119 898 133 909 145 920 150 938 153 958 239 948 248 916 248 862L248 538 389 460 384 446 248 494 248 300 376 300C389 300 399 295 401 284 374 254 326 215 326 215L285 271 248 271 248 80C273 77 283 67 285 53L185 42 185 271 41 271 49 300 185 300 185 516C115 540 57 559 26 567Z"/>
</svg>