<svg xmlns="http://www.w3.org/2000/svg" name="gid6020" data-unicode="採"
    viewBox="0 0 1000 1000">
  <!--
© 2017-2024 Adobe (http://www.adobe.com/).
Noto is a trademark of Google Inc.
This Font Software is licensed under the SIL Open Font License, Version 1.1. This Font Software is distributed on an "AS IS" BASIS, WITHOUT WARRANTIES OR CONDITIONS OF ANY KIND, either express or implied. See the SIL Open Font License for the specific language, permissions and limitations governing your use of this Font Software.
http://scripts.sil.org/OFL
  -->
<path d="M919 119L846 50C742 89 543 137 382 158L386 175C555 170 746 144 869 118 892 127 910 127 919 119ZM407 225L395 230C423 275 455 345 458 401 517 456 585 325 407 225ZM580 190L568 195C597 239 628 306 630 359 690 415 759 285 580 190ZM954 217L854 181C825 279 781 383 742 447L756 457C814 403 872 320 916 235 937 237 949 228 954 217ZM710 424L612 414 612 535 354 535 361 565 571 565C517 686 426 797 307 876L318 892C445 826 545 739 612 631L612 957 625 957C648 957 676 943 676 935L676 567C726 708 811 820 912 886 923 853 944 832 971 828L973 817C866 773 759 679 699 565L937 565C949 565 959 560 962 549 929 516 876 476 876 476L829 535 676 535 676 450C699 447 707 437 710 424ZM25 553L62 636C71 632 79 623 82 611L182 561 182 858C182 872 177 878 161 878 142 878 56 871 56 871L56 887C95 892 116 899 130 911 142 921 147 938 149 958 235 949 244 917 244 864L244 529 382 455 377 440 244 485 244 300 357 300C369 300 378 295 381 285 354 253 307 214 307 214L266 271 244 271 244 81C268 77 278 68 281 53L182 42 182 271 42 271 49 300 182 300 182 506C113 528 57 545 25 553Z"/>
</svg>