<svg xmlns="http://www.w3.org/2000/svg" name="gid6035" data-unicode="掲"
    viewBox="0 0 1000 1000">
  <!--
© 2017-2024 Adobe (http://www.adobe.com/).
Noto is a trademark of Google Inc.
This Font Software is licensed under the SIL Open Font License, Version 1.1. This Font Software is distributed on an "AS IS" BASIS, WITHOUT WARRANTIES OR CONDITIONS OF ANY KIND, either express or implied. See the SIL Open Font License for the specific language, permissions and limitations governing your use of this Font Software.
http://scripts.sil.org/OFL
  -->
<path d="M38 540L77 625C87 621 95 613 98 600L184 560 184 856C184 871 180 876 162 876 145 876 59 870 59 870L59 886C97 891 119 898 133 909 145 920 149 938 152 958 238 948 248 916 248 862L248 529 391 457 387 443 248 484 248 287 374 287C387 287 397 282 400 271 371 242 325 203 325 203L284 257 248 257 248 80C272 77 282 67 285 53L184 42 184 257 42 257 50 287 184 287 184 502C121 520 69 534 38 540ZM494 259L811 259 811 361 494 361ZM494 230L494 125 811 125 811 230ZM658 591C619 617 546 657 481 684L481 614C498 612 508 602 509 591L459 585C473 570 486 554 498 538L862 538C852 727 835 846 809 869 799 878 791 880 773 880 754 880 690 875 653 871L652 889C686 895 722 903 735 912 749 922 752 940 752 958 789 958 826 948 850 924 892 887 914 762 923 546 943 543 956 538 962 531L889 469 852 509 520 509C536 486 551 461 565 436 586 439 599 431 604 421L537 390 811 390 811 432 820 432C841 432 874 417 875 411L875 137C895 133 910 125 917 118L837 56 801 96 499 96 430 65 430 440 440 440C466 440 494 425 494 419L494 390 512 390C459 517 376 631 299 698L312 710C349 687 385 659 420 626L420 789C420 834 433 848 503 848L596 848C733 848 760 837 760 810 760 798 756 791 735 784L732 711 720 711C712 744 702 774 696 783 691 789 687 791 678 791 667 792 636 793 599 793L515 793C484 793 481 790 481 777L481 703C560 690 644 664 693 647 706 651 717 651 722 645Z"/>
</svg>