<svg xmlns="http://www.w3.org/2000/svg" name="gid6057" data-unicode="揖"
    viewBox="0 0 1000 1000">
  <!--
© 2017-2024 Adobe (http://www.adobe.com/).
Noto is a trademark of Google Inc.
This Font Software is licensed under the SIL Open Font License, Version 1.1. This Font Software is distributed on an "AS IS" BASIS, WITHOUT WARRANTIES OR CONDITIONS OF ANY KIND, either express or implied. See the SIL Open Font License for the specific language, permissions and limitations governing your use of this Font Software.
http://scripts.sil.org/OFL
  -->
<path d="M324 795L356 871C366 869 376 862 381 850 548 825 686 802 801 782L801 958 812 958C844 958 865 943 865 938L865 770 958 753 957 734 865 744 865 404 944 404C958 404 967 399 969 388 938 357 884 315 884 315L837 375 344 375 352 404 450 404 450 786C398 790 355 794 324 795ZM515 404L801 404 801 506 515 506ZM515 780L515 668 801 668 801 751ZM446 93L446 322 456 322C482 322 511 308 511 303L511 281 806 281 806 308 816 308C837 308 869 293 870 286L870 131C887 128 901 121 907 114L831 55 797 93 516 93 446 62ZM511 252L511 121 806 121 806 252ZM515 534L801 534 801 639 515 639ZM26 566L58 651C68 648 76 638 79 626L191 572 191 856C191 871 186 876 169 876 151 876 64 870 64 870L64 886C102 891 125 898 138 909 150 920 155 938 158 958 244 948 254 916 254 862L254 540 398 464 393 449 254 496 254 300 377 300C391 300 400 295 403 284 375 254 328 215 328 215L287 271 254 271 254 80C278 77 288 67 291 53L191 42 191 271 41 271 49 300 191 300 191 516C119 540 59 558 26 566Z"/>
</svg>