<svg xmlns="http://www.w3.org/2000/svg" name="gid6068" data-unicode="揬"
    viewBox="0 0 1000 1000">
  <!--
© 2017-2024 Adobe (http://www.adobe.com/).
Noto is a trademark of Google Inc.
This Font Software is licensed under the SIL Open Font License, Version 1.1. This Font Software is distributed on an "AS IS" BASIS, WITHOUT WARRANTIES OR CONDITIONS OF ANY KIND, either express or implied. See the SIL Open Font License for the specific language, permissions and limitations governing your use of this Font Software.
http://scripts.sil.org/OFL
  -->
<path d="M728 479L718 488C752 509 793 547 811 577 872 606 907 493 728 479ZM601 464C600 521 598 573 592 619L341 619 349 648 587 648C564 776 500 865 309 940L319 959C563 887 632 789 657 648L659 648C698 803 776 899 908 958 918 927 938 905 965 900L967 891C830 852 729 775 681 648L937 648C951 648 961 644 963 633 929 601 874 559 874 559L825 619 661 619C666 582 669 543 671 500 693 497 703 487 705 473ZM25 541L64 624C73 619 81 609 83 597L181 544 181 856C181 871 176 876 159 876 142 876 55 870 55 870L55 886C94 891 115 898 129 909 141 920 146 938 149 958 235 948 244 916 244 862L244 509 377 432 371 418 244 465 244 300 341 300C347 319 373 329 402 312 434 293 451 255 451 205L539 205C535 311 516 407 349 485L362 501C564 429 594 325 603 205L691 205 691 389C691 430 702 446 761 446L826 446C933 446 957 433 957 407 957 395 952 388 933 381L930 307 917 307C910 339 901 372 895 380 892 386 888 387 881 388 873 389 853 389 830 389L776 389C754 389 752 386 752 375L752 205 861 205 833 300 848 306C873 284 913 242 936 217 956 216 966 215 974 207L899 134 857 177 683 177 683 90C706 86 714 77 716 64L620 54 620 177 450 177C448 163 446 149 442 134L427 134C424 196 387 239 366 252L356 259C332 236 307 214 307 214L266 271 244 271 244 80C269 77 279 67 281 53L181 42 181 271 41 271 49 300 181 300 181 488C113 513 56 532 25 541Z"/>
</svg>