<svg xmlns="http://www.w3.org/2000/svg"
    viewBox="0 0 1000 1000">
  <!--
© 2017-2023 Adobe (http://www.adobe.com/).
Noto is a trademark of Google Inc.
This Font Software is licensed under the SIL Open Font License, Version 1.1. This Font Software is distributed on an "AS IS" BASIS, WITHOUT WARRANTIES OR CONDITIONS OF ANY KIND, either express or implied. See the SIL Open Font License for the specific language, permissions and limitations governing your use of this Font Software.
http://scripts.sil.org/OFL
  -->
<path d="M34 530L71 609C80 606 87 595 90 584L163 543 163 829C163 843 159 848 142 848 124 848 40 842 40 842L40 858C77 863 99 870 112 881 124 891 128 908 131 928 215 918 224 887 224 834L224 507 348 433 343 419 224 464 224 257 336 257C350 257 359 252 362 241 335 213 291 174 291 174L251 227 224 227 224 50C248 47 258 37 261 23L163 12 163 227 39 227 47 257 163 257 163 486C107 506 61 522 34 530ZM686 87L686 94C658 68 618 35 618 35L578 86 300 86 307 115 366 115 366 691 270 704 315 784C324 781 332 773 337 761 426 731 496 704 548 685L548 927 556 927C586 927 606 912 606 906L606 115 665 115C675 115 683 112 686 106L686 928 695 928C725 928 745 911 745 906L745 117 864 117C846 199 817 321 798 386 858 463 880 541 880 617 880 659 872 680 858 690 851 695 846 696 836 696 822 696 789 696 770 696L770 712C791 715 808 720 816 727 824 736 826 756 826 777 916 773 946 732 946 631 946 550 910 464 822 382 858 318 908 197 935 134 958 133 970 130 978 122L901 47 859 87 758 87 686 57ZM425 115L548 115 548 264 425 264ZM425 682L425 486 548 486 548 662ZM425 292L548 292 548 457 425 457Z"/>
</svg>