<svg xmlns="http://www.w3.org/2000/svg"
    viewBox="0 0 1000 1000">
  <!--
© 2017-2023 Adobe (http://www.adobe.com/).
Noto is a trademark of Google Inc.
This Font Software is licensed under the SIL Open Font License, Version 1.1. This Font Software is distributed on an "AS IS" BASIS, WITHOUT WARRANTIES OR CONDITIONS OF ANY KIND, either express or implied. See the SIL Open Font License for the specific language, permissions and limitations governing your use of this Font Software.
http://scripts.sil.org/OFL
  -->
<path d="M413 447L413 704 311 704 319 734 413 734 413 927 423 927C449 927 475 912 475 905L475 734 810 734 810 831C810 845 805 850 789 850 768 850 680 844 680 844L680 860C721 865 743 873 756 883 769 893 773 910 776 929 863 920 873 888 873 838L873 734 961 734C975 734 984 729 987 718 961 690 918 653 918 653L881 704 873 704 873 488C894 485 910 476 916 469L832 407 800 447 669 447 669 374 938 374C952 374 961 369 964 358 933 328 883 288 883 288L839 345 771 345 771 255 904 255C918 255 927 250 930 239 902 212 856 175 856 175L817 225 771 225 771 146 924 146C938 146 948 141 950 130 920 101 871 62 871 62L829 117 771 117 771 53C793 49 801 40 803 27L708 18 708 117 559 117 559 52C580 48 588 39 590 27L496 18 496 117 366 117 373 146 496 146 496 225 393 225 397 240 401 255 496 255 496 345 334 345 342 374 608 374 608 447 481 447 413 414ZM34 530L68 616C79 612 86 602 90 591L181 546 181 826C181 841 176 846 159 846 142 846 55 840 55 840L55 856C94 861 116 868 129 879 141 890 146 908 149 928 235 918 244 886 244 832L244 514 372 447 369 433 244 471 244 256 371 256C385 256 395 251 397 240 369 211 321 171 321 171L281 226 244 226 244 50C268 47 278 37 281 23L181 12 181 226 43 226 51 256 181 256 181 489C117 508 64 523 34 530ZM559 146L708 146 708 225 559 225ZM559 255L708 255 708 345 559 345ZM608 704L475 704 475 603 608 603ZM669 704L669 603 810 603 810 704ZM608 476L608 574 475 574 475 476ZM669 476L810 476 810 574 669 574Z"/>
</svg>