<svg xmlns="http://www.w3.org/2000/svg"
    viewBox="0 0 1000 1000">
  <!--
© 2017-2023 Adobe (http://www.adobe.com/).
Noto is a trademark of Google Inc.
This Font Software is licensed under the SIL Open Font License, Version 1.1. This Font Software is distributed on an "AS IS" BASIS, WITHOUT WARRANTIES OR CONDITIONS OF ANY KIND, either express or implied. See the SIL Open Font License for the specific language, permissions and limitations governing your use of this Font Software.
http://scripts.sil.org/OFL
  -->
<path d="M34 530L72 612C81 608 89 599 93 587L180 546 180 827C180 842 176 847 158 847 141 847 54 841 54 841L54 857C93 862 115 869 128 880 140 890 145 908 148 928 233 918 242 886 242 833L242 516 387 443 383 429 242 472 242 257 367 257C380 257 390 252 392 241 366 212 320 172 320 172L280 227 242 227 242 50C267 47 277 37 279 23L180 12 180 227 41 227 48 257 180 257 180 490C117 509 65 523 34 530ZM437 231L437 463 446 463C472 463 501 448 501 443L501 415 761 415 761 457 771 457C792 457 825 441 826 435L826 273C844 269 861 261 868 253L787 192 751 231 506 231 437 201ZM501 385L501 261 761 261 761 385ZM487 605L487 833 496 833C519 833 543 820 543 815L543 779 721 779 721 820 729 820C748 820 774 806 775 798L775 636C787 634 799 627 804 622L743 575 714 605 547 605 487 577ZM721 750L543 750 543 632 721 632ZM595 20L595 131 338 131 346 160 936 160C950 160 959 155 962 145 930 115 879 75 879 75L833 131 660 131 660 58C684 54 695 44 697 30ZM344 500L344 930 355 930C381 930 408 915 408 908L408 529 859 529 859 830C859 845 855 851 836 851 814 851 715 844 715 844L715 859C758 864 785 873 799 883 812 893 818 910 820 930 912 921 924 888 924 838L924 542C944 539 961 529 966 522L883 460 849 500 413 500 344 468Z"/>
</svg>