<svg xmlns="http://www.w3.org/2000/svg"
    viewBox="0 0 1000 1000">
  <!--
© 2017-2023 Adobe (http://www.adobe.com/).
Noto is a trademark of Google Inc.
This Font Software is licensed under the SIL Open Font License, Version 1.1. This Font Software is distributed on an "AS IS" BASIS, WITHOUT WARRANTIES OR CONDITIONS OF ANY KIND, either express or implied. See the SIL Open Font License for the specific language, permissions and limitations governing your use of this Font Software.
http://scripts.sil.org/OFL
  -->
<path d="M382 74L390 103 921 103C935 103 945 98 947 88 917 59 867 19 867 19L824 74ZM360 434L367 464 940 464C954 464 963 459 965 448 935 419 886 381 886 381L842 434ZM35 521L74 603C84 600 91 589 93 577L182 523 182 826C182 841 177 846 160 846 142 846 55 840 55 840L55 856C94 861 115 868 129 879 141 890 146 908 149 928 235 918 245 886 245 832L245 484 358 412 353 398 245 442 245 257 372 257C386 257 396 252 398 241 370 212 322 172 322 172L281 227 245 227 245 50C269 47 279 37 282 23L182 12 182 227 39 227 47 257 182 257 182 467C118 492 64 512 35 521ZM537 233L525 239C538 259 552 285 562 313L454 322C486 271 518 212 540 168 561 167 573 158 576 147L479 124C467 183 445 263 426 324L364 327 397 400C406 398 415 392 420 379 483 361 533 346 570 334 574 350 578 365 579 379 632 426 692 316 537 233ZM840 219L828 225C844 246 862 274 876 303L737 316C768 267 799 210 820 167 841 167 852 158 855 146L757 124C745 180 725 258 708 318L657 320 691 394C700 392 708 386 713 373 786 354 844 336 884 323 891 340 896 356 898 371 951 416 1002 302 840 219ZM496 720L815 720 815 840 496 840ZM496 690L496 574 815 574 815 690ZM433 545L433 924 443 924C476 924 496 910 496 904L496 870 815 870 815 916 826 916C856 916 881 901 881 896L881 578C901 575 911 570 918 562L845 506 813 545 508 545 433 513Z"/>
</svg>