<svg xmlns="http://www.w3.org/2000/svg"
    viewBox="0 0 1000 1000">
  <!--
© 2017-2024 Adobe (http://www.adobe.com/).
Noto is a trademark of Google Inc.
This Font Software is licensed under the SIL Open Font License, Version 1.1. This Font Software is distributed on an "AS IS" BASIS, WITHOUT WARRANTIES OR CONDITIONS OF ANY KIND, either express or implied. See the SIL Open Font License for the specific language, permissions and limitations governing your use of this Font Software.
http://scripts.sil.org/OFL
  -->
<path d="M849 661C714 809 555 868 357 907L361 927C574 901 740 851 891 715 914 720 924 717 931 708ZM735 579C639 677 514 744 383 789L393 808C536 773 668 717 773 630 795 635 804 633 811 624ZM641 496C569 575 471 639 371 681L383 699C492 667 600 614 681 547 701 551 709 549 715 540ZM648 406C704 487 811 561 919 603 924 578 945 553 973 546L974 532C859 506 732 456 663 395 687 393 697 388 699 379L652 369C725 340 797 292 836 249L848 251 848 398 857 398C878 398 909 384 910 378L910 98C927 95 942 87 948 80L873 22 838 60 664 60 673 89 753 89C729 132 680 188 632 221L643 235C703 212 764 171 798 137 820 141 828 137 834 127L763 89 848 89 848 227 794 199C764 248 701 316 640 355L649 369 599 358 600 357 600 99C617 95 633 88 639 81L563 23 529 61 345 61 354 89 453 89C432 132 389 192 346 228 319 202 286 172 286 172L245 227 227 227 227 50C251 47 261 37 264 23L165 12 165 227 39 227 47 257 165 257 165 437C107 464 60 485 34 495L71 575C81 570 88 559 89 548L165 495 165 827C165 842 161 847 143 847 125 847 38 841 38 841L38 857C77 862 99 869 112 880 124 890 129 908 132 928 217 918 227 886 227 833L227 450 334 372 327 359 227 408 227 257 333 257C345 257 355 253 357 243 413 215 467 170 497 134 518 139 525 134 532 124L463 89 539 89 539 232 489 206C459 262 396 340 334 387L345 401C420 363 493 304 531 256L539 257 539 377 548 377C558 377 570 374 581 369 534 449 402 556 291 611L298 624C430 578 577 488 648 406Z"/>
</svg>