<svg xmlns="http://www.w3.org/2000/svg"
    viewBox="0 0 1000 1000">
  <!--
© 2017-2024 Adobe (http://www.adobe.com/).
Noto is a trademark of Google Inc.
This Font Software is licensed under the SIL Open Font License, Version 1.1. This Font Software is distributed on an "AS IS" BASIS, WITHOUT WARRANTIES OR CONDITIONS OF ANY KIND, either express or implied. See the SIL Open Font License for the specific language, permissions and limitations governing your use of this Font Software.
http://scripts.sil.org/OFL
  -->
<path d="M340 85L340 236C313 209 275 176 275 176L237 227 222 227 222 50C245 47 255 37 258 23L159 12 159 227 39 227 47 257 159 257 159 487C105 506 60 521 34 528L75 606C84 602 92 593 94 580L159 543 159 828C159 842 155 846 141 846 126 846 56 841 56 841L56 857C89 862 107 868 117 879 128 890 132 907 134 927 213 918 222 887 222 835L222 507 331 441 325 427 222 465 222 257 319 257C329 257 337 254 340 248L340 924 350 924C381 924 402 906 402 901L402 859 941 859C955 859 964 854 967 843 935 812 883 772 883 772L836 829 402 829 402 114 906 114C920 114 930 109 933 98 900 68 849 27 849 27L804 85 414 85 340 53ZM528 184L528 428 537 428C562 428 587 414 587 410L587 378 769 378 769 415 778 415C798 415 829 402 830 396L830 221C844 218 858 211 863 204L793 151 761 184 592 184 528 156ZM587 349L587 214 769 214 769 349ZM460 471L460 766 468 766C491 766 514 753 514 747L514 709 603 709 603 750 611 750C629 750 656 737 657 731L657 504C671 501 684 495 689 488L625 440 596 471 518 471 460 444ZM514 680L514 499 603 499 603 680ZM713 471L713 760 721 760C744 760 767 748 767 743L767 709 861 709 861 750 869 750C887 750 914 737 915 731L915 504C930 502 943 495 948 489L883 439 853 471 772 471 713 443ZM767 680L767 499 861 499 861 680Z"/>
</svg>