<svg xmlns="http://www.w3.org/2000/svg"
    viewBox="0 0 1000 1000">
  <!--
© 2017-2023 Adobe (http://www.adobe.com/).
Noto is a trademark of Google Inc.
This Font Software is licensed under the SIL Open Font License, Version 1.1. This Font Software is distributed on an "AS IS" BASIS, WITHOUT WARRANTIES OR CONDITIONS OF ANY KIND, either express or implied. See the SIL Open Font License for the specific language, permissions and limitations governing your use of this Font Software.
http://scripts.sil.org/OFL
  -->
<path d="M572 127L560 132C582 165 606 220 607 263 658 314 726 207 572 127ZM747 115L736 124C793 161 858 232 872 293 943 339 983 179 747 115ZM558 680L544 684C559 725 566 790 554 841 598 897 673 786 558 680ZM630 669L618 676C648 707 678 762 678 807 730 852 784 733 630 669ZM721 651L711 659C742 681 776 724 783 759 838 796 878 678 721 651ZM483 682C481 741 449 803 418 826 399 839 389 860 399 876 411 894 442 888 462 871 493 844 521 776 500 682ZM34 530L72 614C81 610 89 600 92 587L181 539 181 826C181 841 176 846 159 846 142 846 55 840 55 840L55 856C94 861 116 868 129 879 141 890 146 908 149 928 235 918 244 886 244 832L244 504 377 427 372 412 244 459 244 257 361 257C346 289 330 318 314 343L329 352C389 298 440 216 477 125 605 119 740 100 830 78 852 88 870 87 879 79L804 11C740 40 627 73 518 94L519 93 426 60C413 117 395 174 375 225 350 200 319 174 319 174L281 227 244 227 244 50C268 47 278 37 281 23L181 12 181 227 39 227 47 257 181 257 181 482C117 504 64 522 34 530ZM400 303L400 451C400 600 383 762 264 894L277 907C386 824 431 715 450 611L877 611C870 748 857 825 836 843 829 850 821 852 806 852 788 852 736 847 705 845L704 861C733 866 762 873 774 883 786 892 788 909 788 927 823 927 854 917 876 898 912 869 930 782 938 617 958 615 969 611 975 603L903 544 868 581 849 581 856 474C872 472 880 470 887 463L822 409 792 440 777 440 783 336C799 335 807 332 813 325L750 271 719 303 474 303 400 271ZM726 332L718 440 462 440 462 332ZM799 470L790 581 454 581C460 542 461 505 462 470Z"/>
</svg>