<svg xmlns="http://www.w3.org/2000/svg" name="gid6158" data-unicode="撞"
    viewBox="0 0 1000 1000">
  <!--
© 2017-2024 Adobe (http://www.adobe.com/).
Noto is a trademark of Google Inc.
This Font Software is licensed under the SIL Open Font License, Version 1.1. This Font Software is distributed on an "AS IS" BASIS, WITHOUT WARRANTIES OR CONDITIONS OF ANY KIND, either express or implied. See the SIL Open Font License for the specific language, permissions and limitations governing your use of this Font Software.
http://scripts.sil.org/OFL
  -->
<path d="M34 560L75 645C85 641 93 632 96 620L181 580 181 856C181 871 176 876 159 876 142 876 55 870 55 870L55 886C94 891 116 898 129 909 141 920 146 938 149 958 235 948 244 916 244 862L244 550 390 477 385 462 244 503 244 287 371 287C384 287 394 282 396 271 369 242 321 203 321 203L281 257 244 257 244 80C268 77 278 67 281 53L181 42 181 257 39 257 47 287 181 287 181 521C118 539 65 553 34 560ZM603 49L603 143 365 143 373 173 487 173 478 177C497 205 518 250 521 287 575 335 641 229 492 173L732 173C721 211 704 261 689 300L336 300 344 328 937 328C950 328 961 323 963 313 932 283 882 243 882 243L837 300 720 300C748 272 776 240 796 215 817 215 829 206 833 194L742 173 906 173C920 173 930 168 933 157 902 127 852 89 852 89L809 143 667 143 667 85C690 81 699 72 701 59ZM403 393L403 716 412 716C438 716 465 702 465 696L465 664 604 664 604 760 371 760 379 789 604 789 604 896 309 896 317 925 931 925C945 925 955 920 957 910 924 878 871 835 871 835L823 896 667 896 667 789 897 789C910 789 919 784 922 773 892 745 843 709 843 709L800 760 667 760 667 664 817 664 817 694 826 694C847 694 879 679 880 672L880 430C896 427 909 420 914 414L841 359 809 393 470 393 403 363ZM604 543L604 635 465 635 465 543ZM604 514L465 514 465 423 604 423ZM667 543L817 543 817 635 667 635ZM667 514L667 423 817 423 817 514Z"/>
</svg>