<svg xmlns="http://www.w3.org/2000/svg"
    viewBox="0 0 1000 1000">
  <!--
© 2017-2024 Adobe (http://www.adobe.com/).
Noto is a trademark of Google Inc.
This Font Software is licensed under the SIL Open Font License, Version 1.1. This Font Software is distributed on an "AS IS" BASIS, WITHOUT WARRANTIES OR CONDITIONS OF ANY KIND, either express or implied. See the SIL Open Font License for the specific language, permissions and limitations governing your use of this Font Software.
http://scripts.sil.org/OFL
  -->
<path d="M384 49L372 56C399 91 426 149 428 196 484 247 549 128 384 49ZM834 45C816 100 792 160 774 198L790 207C822 180 860 138 891 99 910 101 922 93 927 84ZM677 23L677 230 589 230 589 55C610 51 619 43 621 30L531 21 531 230 355 230 360 250C334 220 293 183 293 183L254 241 239 241 239 50C262 47 272 37 275 23L176 12 176 241 38 241 46 270 176 270 176 492C115 510 65 524 35 530L74 613C84 609 92 600 95 588L176 548 176 827C176 842 171 847 155 847 137 847 50 841 50 841L50 857C88 862 110 869 124 880 136 890 140 908 143 928 228 918 239 886 239 833L239 516 359 453 354 438 239 473 239 270 338 270C350 270 359 266 362 257L363 260 456 260 446 266C473 297 503 349 507 393 568 442 629 319 461 260L748 260C733 305 710 364 691 408L357 408 365 436 599 436C598 470 598 502 596 532L373 532 381 561 594 561C591 595 586 628 577 658L317 658 325 686 568 686C532 779 453 852 278 911L290 929C502 871 593 792 633 686L665 686C695 762 760 866 908 925 913 885 934 873 968 867L970 855C813 810 729 745 690 686L945 686C958 686 968 682 970 671 940 641 889 602 889 602L846 658 642 658C651 628 656 596 660 561L888 561C900 561 911 556 913 546 884 516 834 477 834 477L792 532 662 532C664 502 665 470 666 436L917 436C931 436 941 431 943 420 914 392 865 354 865 354L822 408 719 408C753 374 789 333 813 300 835 300 846 291 850 279L767 260 937 260C951 260 960 255 963 244 933 216 887 180 887 180L846 230 736 230 736 58C757 54 765 45 767 33Z"/>
</svg>