<svg xmlns="http://www.w3.org/2000/svg" name="gid6175" data-unicode="撻"
    viewBox="0 0 1000 1000">
  <!--
© 2017-2024 Adobe (http://www.adobe.com/).
Noto is a trademark of Google Inc.
This Font Software is licensed under the SIL Open Font License, Version 1.1. This Font Software is distributed on an "AS IS" BASIS, WITHOUT WARRANTIES OR CONDITIONS OF ANY KIND, either express or implied. See the SIL Open Font License for the specific language, permissions and limitations governing your use of this Font Software.
http://scripts.sil.org/OFL
  -->
<path d="M363 67L351 74C381 111 417 171 426 217 486 263 542 140 363 67ZM352 298L340 305C367 342 401 401 407 448 467 498 527 373 352 298ZM31 539L73 618C82 614 90 605 92 592L163 554 163 857C163 872 159 877 142 877 124 877 39 871 39 871L39 887C77 892 99 899 112 910 124 920 129 938 131 958 216 948 226 916 226 863L226 519 352 446 347 432 226 475 226 287 339 287C353 287 362 282 365 271 337 242 293 202 293 202L252 257 226 257 226 80C249 77 259 67 262 53L163 42 163 257 39 257 47 287 163 287 163 497C106 516 58 531 31 539ZM664 52L664 162 506 162 513 190 664 190 664 289 478 289 486 318 560 318C577 349 596 398 596 438 645 484 711 387 582 318L768 318C761 359 747 412 733 450L485 450 493 480 663 480 663 565 522 565 530 594 663 594 663 683 491 683 499 712 663 712 663 829 673 829C706 829 726 815 726 811L726 712 936 712C949 712 959 707 962 697 930 667 880 627 880 627L834 683 726 683 726 594 889 594C903 594 911 589 914 578 887 552 842 516 842 516L805 565 726 565 726 480 925 480C939 480 948 475 951 464 923 436 876 400 876 400L835 450 760 450C785 420 809 385 826 358 846 359 858 351 862 339L792 318 932 318C946 318 955 313 958 303 927 273 877 233 877 233L833 289 727 289 727 190 894 190C908 190 917 185 920 175 890 146 841 107 841 107L798 162 727 162 727 88C749 84 758 75 760 62ZM449 779L449 590C477 586 492 579 498 572L414 502 376 551 288 551 294 580 390 580 390 799C347 826 301 852 271 867L316 946C324 941 329 934 326 922 358 893 406 839 438 798 487 903 550 925 682 925 763 925 854 925 927 925 930 895 944 876 968 871L968 858C882 860 769 860 683 860 560 860 503 849 449 779Z"/>
</svg>