<svg xmlns="http://www.w3.org/2000/svg"
    viewBox="0 0 1000 1000">
  <!--
© 2017-2024 Adobe (http://www.adobe.com/).
Noto is a trademark of Google Inc.
This Font Software is licensed under the SIL Open Font License, Version 1.1. This Font Software is distributed on an "AS IS" BASIS, WITHOUT WARRANTIES OR CONDITIONS OF ANY KIND, either express or implied. See the SIL Open Font License for the specific language, permissions and limitations governing your use of this Font Software.
http://scripts.sil.org/OFL
  -->
<path d="M473 283L481 312 769 312C784 312 793 307 795 296 767 269 721 231 721 231L681 283ZM651 64C702 178 808 275 918 338 924 312 946 289 973 282L975 268C853 221 732 148 667 53 691 51 701 46 704 35L593 12C556 123 418 279 297 357L305 371C442 304 583 182 651 64ZM379 394L379 650 388 650C412 650 437 637 437 632L437 606 541 606 541 630 550 630C568 630 598 617 599 610L599 428C614 426 627 419 632 413L563 361 533 394 442 394 379 366ZM437 576L437 423 541 423 541 576ZM666 394L666 650 675 650C699 650 724 637 724 632L724 606 838 606 838 630 847 630C867 630 897 617 898 610L898 428C912 426 925 419 930 413L862 361 830 394 728 394 666 366ZM724 576L724 423 838 423 838 576ZM473 632C445 728 379 846 288 915L298 928C375 888 437 826 482 763 511 788 540 825 548 857 606 894 651 786 494 745 508 723 520 702 529 682 553 683 562 678 567 668ZM751 632C722 743 646 857 528 917L536 932C633 899 707 839 758 771 810 813 869 872 890 920 961 957 993 820 772 751 788 727 801 703 811 678 835 679 842 673 846 662ZM25 534L61 617C71 614 79 605 81 592L181 541 181 826C181 841 176 846 159 846 142 846 55 840 55 840L55 856C94 861 115 868 129 879 141 890 146 908 149 928 235 918 244 886 244 832L244 507 353 446 348 432 244 467 244 270 355 270C369 270 377 265 380 254 353 224 307 184 307 184L266 241 244 241 244 50C269 47 279 37 281 23L181 12 181 241 41 241 49 270 181 270 181 487C113 510 56 527 25 534Z"/>
</svg>