<svg xmlns="http://www.w3.org/2000/svg"
    viewBox="0 0 1000 1000">
  <!--
© 2017-2023 Adobe (http://www.adobe.com/).
Noto is a trademark of Google Inc.
This Font Software is licensed under the SIL Open Font License, Version 1.1. This Font Software is distributed on an "AS IS" BASIS, WITHOUT WARRANTIES OR CONDITIONS OF ANY KIND, either express or implied. See the SIL Open Font License for the specific language, permissions and limitations governing your use of this Font Software.
http://scripts.sil.org/OFL
  -->
<path d="M429 289L439 318 570 309 570 342C570 385 582 397 657 397L763 397C916 397 943 390 943 363 943 352 936 346 915 340L911 288 901 288C894 311 885 333 877 341 873 345 868 346 858 347 844 348 808 348 766 348L667 348C633 348 630 345 630 333L630 305 800 293C813 293 823 286 824 276 793 252 744 217 744 217L705 271 630 276 630 209 855 209C847 237 837 270 828 291L843 297C869 278 902 243 921 219 940 217 952 216 959 209L889 141 851 180 641 180 641 128 909 128C922 128 932 123 935 112 901 83 848 43 848 43L802 100 641 100 641 55C663 51 672 42 674 29L575 19 575 180 421 180 347 148 347 225 289 173 247 227 244 227 244 50C268 47 278 37 281 23L181 12 181 227 39 227 47 257 181 257 181 464C117 487 64 505 34 514L75 597C84 593 92 582 94 571L181 519 181 826C181 841 176 846 159 846 142 846 55 840 55 840L55 856C94 861 116 868 129 879 141 890 146 908 149 928 235 918 244 886 244 832L244 481 342 419 337 406 244 441 244 257 338 257 347 256 347 406C347 572 341 756 259 907L275 917C370 807 398 661 406 531L413 557 474 557 474 690 483 690C507 690 531 677 531 672L531 651 808 651 808 680 817 680C836 680 865 665 866 659L866 557 939 557C952 557 961 552 964 542 940 517 902 484 902 484L870 528 866 528 866 473C881 471 894 464 899 457L831 407 800 438 536 438 474 410 474 528 406 528C409 485 409 443 409 405L409 209 570 209 570 280ZM614 661C613 683 611 704 606 724L402 724 411 752 598 752C573 818 515 872 390 908L396 924C565 888 634 826 663 752L826 752C819 804 809 840 797 849 789 854 781 856 765 856 746 856 677 850 640 847L640 864C674 869 711 877 724 886 738 895 742 912 742 928 775 928 809 920 830 906 862 885 878 833 886 759 905 756 917 752 923 746L853 688 820 724 672 724 678 698C699 697 710 689 713 675ZM640 621L531 621 531 557 640 557ZM696 621L696 557 808 557 808 621ZM640 468L640 528 531 528 531 468ZM696 468L808 468 808 528 696 528Z"/>
</svg>