<svg xmlns="http://www.w3.org/2000/svg" name="gid6183" data-unicode="擅"
    viewBox="0 0 1000 1000">
  <!--
© 2017-2024 Adobe (http://www.adobe.com/).
Noto is a trademark of Google Inc.
This Font Software is licensed under the SIL Open Font License, Version 1.1. This Font Software is distributed on an "AS IS" BASIS, WITHOUT WARRANTIES OR CONDITIONS OF ANY KIND, either express or implied. See the SIL Open Font License for the specific language, permissions and limitations governing your use of this Font Software.
http://scripts.sil.org/OFL
  -->
<path d="M295 906L303 935 937 935C951 935 961 930 964 919 930 888 877 846 877 846L829 906ZM34 560L76 641C85 637 93 628 95 615L165 578 165 857C165 872 161 877 144 877 126 877 39 871 39 871L39 887C78 892 100 899 113 910 125 920 130 938 133 958 218 948 228 916 228 863L228 543C281 513 325 487 360 466L355 452 228 497 228 287 343 287C357 287 366 282 369 271 341 242 295 201 295 201L254 257 228 257 228 80C252 77 262 67 264 53L165 42 165 257 39 257 47 287 165 287 165 519C108 538 61 553 34 560ZM599 48L599 136 332 136 340 166 937 166C951 166 961 161 964 150 930 119 878 77 878 77L831 136 662 136 662 83C685 79 694 70 695 57ZM426 594L426 882 434 882C461 882 488 868 488 862L488 832 780 832 780 872 790 872C811 872 842 857 843 850L843 633C861 630 876 622 882 615L806 557 771 594 493 594 429 565C438 561 443 557 443 554L443 524 829 524 829 563 838 563C858 563 889 548 890 542L890 268C906 265 921 257 927 250L853 193 820 230 448 230 382 200 382 574 391 574C404 574 416 571 426 567ZM443 496L443 259 829 259 829 496ZM508 312L508 479 516 479C543 479 562 464 562 459L562 438 704 438 704 471 712 471C730 471 758 458 759 451L759 341C769 339 779 333 783 329L725 285 698 312 562 312 508 288ZM704 408L562 408 562 341 704 341ZM488 727L780 727 780 802 488 802ZM488 698L488 623 780 623 780 698Z"/>
</svg>