<svg xmlns="http://www.w3.org/2000/svg"
    viewBox="0 0 1000 1000">
  <!--
© 2017-2024 Adobe (http://www.adobe.com/).
Noto is a trademark of Google Inc.
This Font Software is licensed under the SIL Open Font License, Version 1.1. This Font Software is distributed on an "AS IS" BASIS, WITHOUT WARRANTIES OR CONDITIONS OF ANY KIND, either express or implied. See the SIL Open Font License for the specific language, permissions and limitations governing your use of this Font Software.
http://scripts.sil.org/OFL
  -->
<path d="M422 33L411 40C440 70 473 121 478 163 535 208 591 88 422 33ZM807 28C785 81 757 135 735 169L750 179C784 156 824 119 856 83 876 87 889 78 894 69ZM25 534L63 617C73 614 81 603 83 591L173 542 173 827C173 842 168 847 152 847 134 847 47 841 47 841L47 857C86 862 108 869 121 880 133 890 138 908 141 928 226 918 236 886 236 833L236 506 363 432 357 418 236 463 236 270 314 270C309 279 308 289 313 299 324 321 357 319 375 304 395 290 411 259 412 217L867 217 842 291 802 261 772 297 510 297 438 266 438 518 448 518C479 518 499 504 499 499L499 472 775 472 775 507 785 507C814 507 837 493 837 489L837 329C856 326 866 321 872 314L849 296 855 299C880 282 917 249 938 227 957 227 968 226 975 218L903 148 864 188 665 188 665 50C689 46 697 37 699 24L603 15 603 188 411 188C410 176 408 164 404 151L386 151C387 182 370 215 350 235 323 210 294 184 294 184L254 241 236 241 236 50C260 47 270 37 272 23L173 12 173 241 41 241 49 270 173 270 173 485C109 508 55 526 25 534ZM499 443L499 326 775 326 775 443ZM434 728L602 728 602 843 434 843ZM832 728L832 843 662 843 662 728ZM434 698L434 589 602 589 602 698ZM832 698L662 698 662 589 832 589ZM372 559L372 928 381 928C414 928 434 913 434 908L434 872 832 872 832 924 843 924C873 924 897 910 897 905L897 593C917 590 927 585 934 577L862 521 829 559 446 559 372 529Z"/>
</svg>