<svg xmlns="http://www.w3.org/2000/svg"
    viewBox="0 0 1000 1000">
  <!--
© 2017-2023 Adobe (http://www.adobe.com/).
Noto is a trademark of Google Inc.
This Font Software is licensed under the SIL Open Font License, Version 1.1. This Font Software is distributed on an "AS IS" BASIS, WITHOUT WARRANTIES OR CONDITIONS OF ANY KIND, either express or implied. See the SIL Open Font License for the specific language, permissions and limitations governing your use of this Font Software.
http://scripts.sil.org/OFL
  -->
<path d="M35 498L73 581C82 577 90 566 92 554L165 512 165 827C165 842 161 847 144 847 126 847 39 841 39 841L39 857C78 862 100 869 113 880 125 890 130 908 133 928 218 918 228 886 228 833L228 474 351 399 345 385 228 430 228 257 344 257C358 257 367 252 370 241 342 212 296 171 296 171L255 227 228 227 228 50C252 47 262 37 264 23L165 12 165 227 40 227 48 257 165 257 165 453C109 474 62 490 35 498ZM712 565L703 576C725 587 750 602 773 619L514 626C535 605 557 580 575 558L817 558C830 558 840 553 842 542 813 517 767 485 767 485L728 530 415 530 423 558 498 558 466 627 350 628 382 699C391 698 401 692 406 680 576 665 704 651 802 640 824 658 844 677 856 693 920 717 933 595 712 565ZM598 671L598 757 368 757 376 787 598 787 598 874 301 874 308 903 937 903C950 903 960 898 963 887 930 857 878 816 878 816L832 874 662 874 662 787 875 787C889 787 898 782 900 771 872 743 826 707 826 707L785 757 662 757 662 705C684 701 692 692 694 680ZM596 17L596 86 335 86 343 115 596 115 596 178 398 178 406 208 873 208C887 208 897 203 899 192 869 164 824 128 824 128L783 178 660 178 660 115 930 115C944 115 955 110 957 99 924 69 871 29 871 29L825 86 660 86 660 52C682 48 691 39 693 26ZM411 260L411 425 421 425C452 425 473 410 473 405L473 383 799 383 799 417 809 417C830 417 861 403 862 395L862 296C877 293 890 286 895 280L824 226 791 260 483 260 411 229ZM473 353L473 289 799 289 799 353ZM380 402C374 446 338 485 320 498 270 533 312 580 356 550 380 534 394 507 399 474L864 474 845 535 860 541C880 527 913 500 931 483 950 482 961 481 968 474L898 406 861 444 401 444C401 430 399 416 396 402Z"/>
</svg>