<svg xmlns="http://www.w3.org/2000/svg" name="gid6201" data-unicode="擢"
    viewBox="0 0 1000 1000">
  <!--
© 2017-2024 Adobe (http://www.adobe.com/).
Noto is a trademark of Google Inc.
This Font Software is licensed under the SIL Open Font License, Version 1.1. This Font Software is distributed on an "AS IS" BASIS, WITHOUT WARRANTIES OR CONDITIONS OF ANY KIND, either express or implied. See the SIL Open Font License for the specific language, permissions and limitations governing your use of this Font Software.
http://scripts.sil.org/OFL
  -->
<path d="M505 219C468 273 391 345 320 388L331 402C414 370 499 315 546 269L552 270 552 413 560 413C581 413 612 397 613 390L613 128C633 124 648 117 655 109L577 49 542 87 345 87 354 116 460 116C435 152 389 202 343 231L356 246C413 225 472 190 504 159 527 165 534 161 541 151L475 116 552 116 552 245ZM813 217C780 267 709 335 643 376L654 390C732 360 812 310 855 268L855 415 865 415C885 415 916 401 917 394L917 129C937 125 954 117 960 109L881 48 845 87 656 87 665 116 769 116C741 153 688 203 640 232L651 246C713 226 778 191 814 161 835 166 843 163 849 153L784 116 855 116 855 240ZM27 568L62 651C71 647 79 635 81 624L165 573 165 857C165 872 161 877 144 877 126 877 39 871 39 871L39 887C78 892 100 899 113 910 125 920 130 938 133 958 218 948 228 916 228 863L228 533 358 450 352 437 228 489 228 289 343 289C357 289 366 284 369 273 341 243 295 202 295 202L254 259 228 259 228 80C252 77 262 67 264 53L165 42 165 259 39 259 47 289 165 289 165 515C104 540 54 559 27 568ZM640 398C633 427 624 465 614 494L470 494 463 491C478 466 491 442 502 420 526 422 534 416 538 405L443 372C415 467 351 598 271 682L282 695C324 664 362 625 396 585L396 958 406 958C437 958 458 942 458 936L458 900 937 900C951 900 962 895 964 884 931 853 878 811 878 811L831 871 685 871 685 771 891 771C903 771 913 766 916 755 888 727 842 691 842 691L804 741 685 741 685 644 887 644C901 644 910 639 912 628 885 600 839 564 839 564L800 614 685 614 685 523 912 523C925 523 936 518 938 508 907 478 860 440 860 440L818 494 649 494C668 476 685 457 700 441 719 441 732 432 736 421ZM458 523L623 523 623 614 458 614ZM458 871L458 771 623 771 623 871ZM458 644L623 644 623 741 458 741Z"/>
</svg>