<svg xmlns="http://www.w3.org/2000/svg" name="gid6204" data-unicode="擥"
    viewBox="0 0 1000 1000">
  <!--
© 2017-2024 Adobe (http://www.adobe.com/).
Noto is a trademark of Google Inc.
This Font Software is licensed under the SIL Open Font License, Version 1.1. This Font Software is distributed on an "AS IS" BASIS, WITHOUT WARRANTIES OR CONDITIONS OF ANY KIND, either express or implied. See the SIL Open Font License for the specific language, permissions and limitations governing your use of this Font Software.
http://scripts.sil.org/OFL
  -->
<path d="M598 221L606 250 863 250C877 250 886 245 889 234 861 208 818 174 818 174L780 221ZM658 435L600 435 600 332 658 332ZM700 435L700 332 760 332 760 435ZM545 304L545 499 553 499C575 499 600 487 600 482L600 463 864 463 864 497 872 497C891 497 919 483 920 477L920 333C931 331 941 326 945 320L886 276 857 304 605 304 545 276ZM803 435L803 332 864 332 864 435ZM151 122L252 122 252 206 151 206ZM92 93L92 531 101 531C131 531 151 514 151 510L151 476 485 476C499 476 508 471 511 460 481 432 434 395 434 395L393 447 311 447 311 356 388 356 388 380 397 380C416 380 445 366 446 360L446 243C462 240 476 233 481 226L411 174 379 206 311 206 311 122 467 122C481 122 490 118 493 107 464 79 418 43 418 43L377 93 164 93 92 62ZM151 447L151 356 252 356 252 447ZM388 236L388 327 151 327 151 236ZM576 42C553 130 513 218 474 275L489 284C529 254 566 211 599 162L933 162C947 162 956 157 959 146 929 118 883 81 883 81L842 132 617 132 638 94C659 96 671 87 675 76ZM729 499C599 531 357 566 162 577L165 596C264 597 370 594 470 588L470 658 116 658 124 688 470 688 470 762 44 762 53 791 470 791 470 862C470 876 465 880 446 880 424 880 311 872 311 872L311 888C360 893 388 901 404 912 418 922 425 939 426 958 521 950 534 913 534 864L534 791 931 791C945 791 955 786 957 775 924 745 870 705 870 705L823 762 534 762 534 688 858 688C872 688 881 683 884 672 851 643 799 604 799 604L754 658 534 658 534 583C611 577 683 570 744 562 766 572 784 573 793 566Z"/>
</svg>