<svg xmlns="http://www.w3.org/2000/svg"
    viewBox="0 0 1000 1000">
  <!--
© 2017-2023 Adobe (http://www.adobe.com/).
Noto is a trademark of Google Inc.
This Font Software is licensed under the SIL Open Font License, Version 1.1. This Font Software is distributed on an "AS IS" BASIS, WITHOUT WARRANTIES OR CONDITIONS OF ANY KIND, either express or implied. See the SIL Open Font License for the specific language, permissions and limitations governing your use of this Font Software.
http://scripts.sil.org/OFL
  -->
<path d="M568 297L489 256C461 304 404 371 349 412L360 425C428 395 494 347 531 306 553 311 561 307 568 297ZM638 821L558 771C504 820 395 880 302 913L311 927C419 909 538 868 601 827 623 833 631 831 638 821ZM695 781L690 796C780 831 840 876 873 914 934 971 1044 828 695 781ZM442 72L428 72C427 132 395 167 373 179 352 190 344 204 345 217L295 171 254 227 228 227 228 50C252 47 262 37 264 23L165 12 165 227 39 227 47 257 165 257 165 462C108 486 61 506 34 515L73 597C82 593 90 581 91 570L165 522 165 827C165 842 161 847 144 847 126 847 39 841 39 841L39 857C78 862 100 869 113 880 125 890 130 908 133 928 218 918 228 886 228 833L228 480 349 397 342 384 228 434 228 257 343 257C356 257 365 253 367 243 377 246 389 245 402 238 432 223 450 192 451 148L864 148C857 178 847 215 839 238L853 246C881 223 916 186 936 159 954 158 965 156 972 150L899 77 859 119 676 119 676 55C698 51 707 42 709 29L612 19 612 119 451 119C449 104 446 89 442 72ZM428 422L428 469C379 487 329 504 280 517L286 535C334 525 382 513 428 499L428 791 438 791C464 791 490 775 490 770L490 743 813 743 813 785 825 785C850 785 875 770 877 765L877 462C893 459 906 452 913 444L848 386 815 422 630 422C714 384 788 341 843 301 867 306 883 304 889 294L810 248C776 281 728 316 672 350L672 238 802 238C816 238 825 233 828 222 799 195 755 160 755 160L714 209 469 209 477 238 611 238 611 385C587 398 563 410 537 422L495 422 428 391ZM490 548L813 548 813 616 490 616ZM490 518L490 478 563 451 813 451 813 518ZM490 645L813 645 813 714 490 714Z"/>
</svg>