<svg xmlns="http://www.w3.org/2000/svg" name="gid6214" data-unicode="擲"
    viewBox="0 0 1000 1000">
  <!--
© 2017-2024 Adobe (http://www.adobe.com/).
Noto is a trademark of Google Inc.
This Font Software is licensed under the SIL Open Font License, Version 1.1. This Font Software is distributed on an "AS IS" BASIS, WITHOUT WARRANTIES OR CONDITIONS OF ANY KIND, either express or implied. See the SIL Open Font License for the specific language, permissions and limitations governing your use of this Font Software.
http://scripts.sil.org/OFL
  -->
<path d="M475 201L400 201 417 166C438 168 449 160 453 148L368 119C357 166 340 211 321 249L274 206 236 257 212 257 212 80C236 77 246 67 248 53L151 42 151 257 39 257 47 287 151 287 151 521C101 538 59 551 34 558L76 636C85 633 93 623 95 611L151 580 151 860C151 874 147 878 133 878 117 878 48 873 48 873L48 889C81 894 98 900 109 911 120 921 124 938 126 958 203 949 212 918 212 867L212 544 335 471 329 457 212 499 212 287 299 287C290 300 281 312 272 323L286 335C322 309 355 274 383 231L427 231 427 321 398 321 338 295 338 673 345 673C372 673 391 659 391 654L391 629 465 629C464 660 462 690 458 718L285 718 293 748 452 748C432 823 385 886 267 940L280 956C398 915 460 864 493 801 542 835 601 885 623 927 691 962 721 835 501 784 506 772 510 760 513 748L684 748C697 748 706 743 709 732 682 706 639 671 639 671L601 718 520 718C525 690 528 660 530 629L611 629 611 663 619 663C636 663 664 650 664 644L664 357C680 354 693 347 699 341L632 290 602 321 561 321 561 231 608 231 615 230C630 251 648 270 669 286 675 263 696 247 719 241L721 230C660 203 613 161 590 114 618 112 640 106 649 95L574 43 548 83 397 83 406 112 565 112C569 132 574 150 581 168L574 162 543 201ZM722 107L722 949 730 949C760 949 779 931 779 926L779 136 864 136C851 216 828 340 815 405 863 481 883 559 883 639 883 680 876 701 865 711 860 715 855 716 847 716 833 716 805 716 790 716L790 732C808 735 822 740 828 747 835 756 839 779 839 797 923 794 949 755 949 651 949 568 916 483 837 402 870 337 912 215 935 151 956 151 968 149 975 140L898 65 857 107 790 107 722 76ZM512 321L475 321 475 231 512 231ZM611 467L611 514 391 514 391 491 399 500C458 456 472 393 474 351L512 351 512 430C512 457 519 470 552 470L571 470C588 470 601 469 611 467ZM611 426L604 426C600 427 595 428 591 428 590 428 587 428 584 428 582 428 578 428 575 428L564 428C560 428 558 425 558 417L558 351 611 351ZM611 544L611 599 391 599 391 544ZM391 351L430 351C429 388 424 435 391 478Z"/>
</svg>