<svg xmlns="http://www.w3.org/2000/svg"
    viewBox="0 0 1000 1000">
  <!--
© 2017-2024 Adobe (http://www.adobe.com/).
Noto is a trademark of Google Inc.
This Font Software is licensed under the SIL Open Font License, Version 1.1. This Font Software is distributed on an "AS IS" BASIS, WITHOUT WARRANTIES OR CONDITIONS OF ANY KIND, either express or implied. See the SIL Open Font License for the specific language, permissions and limitations governing your use of this Font Software.
http://scripts.sil.org/OFL
  -->
<path d="M475 171L400 171 417 136C438 138 449 130 453 118L368 89C357 136 340 181 321 219L274 176 236 227 212 227 212 50C236 47 246 37 248 23L151 12 151 227 39 227 47 257 151 257 151 491C101 508 59 521 34 528L76 606C85 603 93 593 95 581L151 550 151 830C151 844 147 848 133 848 117 848 48 843 48 843L48 859C81 864 98 870 109 881 120 891 124 908 126 928 203 919 212 888 212 837L212 514 335 441 329 427 212 469 212 257 299 257C290 270 281 282 272 293L286 305C322 279 355 244 383 201L427 201 427 291 398 291 338 265 338 643 345 643C372 643 391 629 391 624L391 599 465 599C464 630 462 660 458 688L285 688 293 718 452 718C432 793 385 856 267 910L280 926C398 885 460 834 493 771 542 805 601 855 623 897 691 932 721 805 501 754 506 742 510 730 513 718L684 718C697 718 706 713 709 702 682 676 639 641 639 641L601 688 520 688C525 660 528 630 530 599L611 599 611 633 619 633C636 633 664 620 664 614L664 327C680 324 693 317 699 311L632 260 602 291 561 291 561 201 608 201 615 200C630 221 648 240 669 256 675 233 696 217 719 211L721 200C660 173 613 131 590 84 618 82 640 76 649 65L574 13 548 53 397 53 406 82 565 82C569 102 574 120 581 138L574 132 543 171ZM722 77L722 919 730 919C760 919 779 901 779 896L779 106 864 106C851 186 828 310 815 375 863 451 883 529 883 609 883 650 876 671 865 681 860 685 855 686 847 686 833 686 805 686 790 686L790 702C808 705 822 710 828 717 835 726 839 749 839 767 923 764 949 725 949 621 949 538 916 453 837 372 870 307 912 185 935 121 956 121 968 119 975 110L898 35 857 77 790 77 722 46ZM512 291L475 291 475 201 512 201ZM611 437L611 484 391 484 391 461 399 470C458 426 472 363 474 321L512 321 512 400C512 427 519 440 552 440L571 440C588 440 601 439 611 437ZM611 396L604 396C600 397 595 398 591 398 590 398 587 398 584 398 582 398 578 398 575 398L564 398C560 398 558 395 558 387L558 321 611 321ZM611 514L611 569 391 569 391 514ZM391 321L430 321C429 358 424 405 391 448Z"/>
</svg>