<svg xmlns="http://www.w3.org/2000/svg" name="gid6221" data-unicode="擽"
    viewBox="0 0 1000 1000">
  <!--
© 2017-2024 Adobe (http://www.adobe.com/).
Noto is a trademark of Google Inc.
This Font Software is licensed under the SIL Open Font License, Version 1.1. This Font Software is distributed on an "AS IS" BASIS, WITHOUT WARRANTIES OR CONDITIONS OF ANY KIND, either express or implied. See the SIL Open Font License for the specific language, permissions and limitations governing your use of this Font Software.
http://scripts.sil.org/OFL
  -->
<path d="M34 552L75 630C84 626 91 615 92 602L163 553 163 857C163 872 159 877 142 877 124 877 39 871 39 871L39 887C77 892 99 899 112 910 124 920 129 938 131 958 216 948 226 916 226 863L226 508 341 423 334 409 226 463 226 287 320 287C334 287 343 282 346 271 319 243 276 205 276 205L238 257 226 257 226 80C249 77 259 67 262 53L163 42 163 257 39 257 47 287 163 287 163 494C107 521 60 542 34 552ZM521 166L521 233 444 207C422 290 381 399 346 479L290 486 325 557C334 554 342 548 346 536L455 487C457 501 458 514 458 527 500 571 554 480 440 378L428 381C453 335 474 290 490 253 505 254 516 249 521 241L521 551 530 551C554 551 576 537 576 532L576 496 671 496 671 533 594 525 594 619 317 619 325 647 544 647C488 750 397 843 285 910L295 925C421 869 524 791 594 694L594 957 606 957C630 957 657 944 657 935L657 647C712 765 807 857 909 911 918 880 937 861 964 857L965 847C860 812 747 738 681 647L935 647C950 647 959 643 962 632 929 601 876 561 876 561L830 619 657 619 657 559C675 556 683 550 685 541 703 538 725 526 726 520L726 484 759 549C768 546 775 540 779 528L900 475C904 497 907 518 907 536 952 582 1009 486 886 382L872 387C880 406 888 430 895 456L795 471C842 402 891 316 920 254 941 256 954 248 959 237L875 208C848 287 804 396 767 475L726 480 726 204C747 237 768 289 770 329 806 363 847 308 795 244 821 207 849 159 872 116 893 117 903 109 907 98L822 70C808 121 791 179 775 224 765 215 754 206 740 197 749 194 757 189 761 185L693 133 662 166 609 166C626 140 641 111 652 87 674 85 685 75 687 62L595 48C593 83 589 131 584 166L580 166 521 138ZM373 475C391 446 410 415 427 383 435 405 444 434 450 463ZM321 180L308 185C331 219 358 272 362 313 399 345 438 288 378 223 401 192 426 152 446 116 466 116 477 108 481 98L397 69C385 115 370 165 357 204 347 196 335 188 321 180ZM576 343L671 343 671 466 576 466ZM576 314L576 195 671 195 671 314Z"/>
</svg>