<svg xmlns="http://www.w3.org/2000/svg" name="gid6222" data-unicode="擾"
    viewBox="0 0 1000 1000">
  <!--
© 2017-2024 Adobe (http://www.adobe.com/).
Noto is a trademark of Google Inc.
This Font Software is licensed under the SIL Open Font License, Version 1.1. This Font Software is distributed on an "AS IS" BASIS, WITHOUT WARRANTIES OR CONDITIONS OF ANY KIND, either express or implied. See the SIL Open Font License for the specific language, permissions and limitations governing your use of this Font Software.
http://scripts.sil.org/OFL
  -->
<path d="M554 487L471 476 471 573C471 611 482 624 547 624L638 624C769 624 795 620 795 594 795 584 788 579 770 574L767 513 755 513C748 541 739 565 734 574 729 579 726 580 717 580 707 581 673 581 641 581L559 581C530 581 527 579 527 569L527 509C542 507 552 498 554 487ZM434 485L416 483C409 526 372 571 342 587 325 598 316 616 324 632 335 649 365 644 383 630 411 608 443 557 434 485ZM759 478L748 487C791 518 842 576 856 621 917 658 953 534 759 478ZM589 458L578 466C606 490 638 532 646 566 693 599 733 504 589 458ZM551 665C578 664 588 658 591 648L494 629C462 695 392 786 322 840L332 852C388 824 442 782 486 739 515 781 547 816 584 845 497 890 390 922 275 941L280 960C414 943 530 916 625 873 695 914 785 940 909 955 913 924 931 907 955 899L957 888C844 883 755 869 682 844 740 811 787 771 825 723 849 722 860 720 868 712L802 649 760 688 533 688ZM627 821C577 796 536 764 501 724L508 717 750 717C717 757 676 791 627 821ZM869 46L824 100 352 100 360 129 588 129 578 188 499 188 425 155 425 418 381 418C379 406 377 393 373 380L355 380C358 421 337 470 314 487 296 500 286 520 296 537 307 555 337 550 354 535 371 520 383 489 383 448L873 448 853 508 869 515C887 500 919 473 935 456 954 455 966 454 973 446L906 381 870 418 837 418 837 225C854 222 869 215 875 208L801 150 766 188 614 188C628 171 644 149 657 129L926 129C940 129 950 124 953 113 920 84 869 46 869 46ZM775 344L487 344 487 295 775 295ZM775 374L775 418 487 418 487 374ZM775 217L775 265 487 265 487 217ZM307 211L267 265 237 265 237 79C261 76 271 67 274 53L175 42 175 265 44 265 52 295 175 295 175 485C114 519 63 546 35 559L83 634C92 628 98 616 98 606L175 545 175 854C175 868 171 873 154 873 137 873 53 866 53 866L53 882C90 888 112 895 125 907 136 919 141 936 144 956 227 948 237 915 237 861L237 495 344 405 337 393 237 450 237 295 354 295C368 295 377 290 380 279 353 249 307 211 307 211Z"/>
</svg>