<svg xmlns="http://www.w3.org/2000/svg" name="gid6224" data-unicode="攀"
    viewBox="0 0 1000 1000">
  <!--
© 2017-2024 Adobe (http://www.adobe.com/).
Noto is a trademark of Google Inc.
This Font Software is licensed under the SIL Open Font License, Version 1.1. This Font Software is distributed on an "AS IS" BASIS, WITHOUT WARRANTIES OR CONDITIONS OF ANY KIND, either express or implied. See the SIL Open Font License for the specific language, permissions and limitations governing your use of this Font Software.
http://scripts.sil.org/OFL
  -->
<path d="M607 546C536 569 403 598 297 611L302 630C356 629 414 625 469 620L469 682 223 682 230 712 469 712 469 771 114 771 123 800 469 800 469 865C469 879 464 884 446 884 425 884 317 876 317 876L317 891C365 897 391 904 407 914 420 924 426 940 427 958 518 949 532 915 532 867L532 800 855 800C869 800 878 795 881 784 849 758 802 724 802 724L759 771 532 771 532 712 732 712C746 712 755 707 758 696 729 670 686 640 686 640L648 682 532 682 532 613 620 602C639 611 656 613 664 605ZM537 229C526 248 511 268 494 288 471 276 442 266 406 258L396 269C418 281 442 299 465 318 431 352 391 384 350 407L360 422 371 418C357 441 341 465 321 489L42 489 51 518 297 518C228 599 132 680 28 736L38 750C174 696 293 606 378 518L644 518C705 611 816 692 921 740 929 709 948 690 974 686L975 674C873 645 746 587 674 518L932 518C946 518 956 513 959 503 926 473 876 437 876 437L831 489 405 489 433 456C460 456 473 450 476 440L372 417C416 398 459 373 495 345 510 361 523 377 531 392 541 397 550 397 556 393L526 418 537 435C611 392 672 339 717 275L717 450 729 450C753 450 779 438 779 430L779 208C810 303 859 379 916 427 925 396 943 378 967 374L968 364C906 332 839 272 798 196L933 196C947 196 957 191 960 181 931 153 884 115 884 115L842 167 779 167 779 79C805 75 814 66 816 52L717 42 717 167 588 167 596 196 694 196C664 265 621 330 566 384 574 369 567 340 534 313 549 299 562 285 572 272 595 277 602 273 609 263ZM203 38L203 167 51 167 59 196 179 196C149 279 100 359 37 421L49 437C111 394 163 342 203 282L203 453 215 453C237 453 263 440 263 431L263 260C293 285 324 324 332 357 388 393 430 281 263 243L263 196 383 196C397 196 406 191 409 181 381 153 337 118 337 118L299 167 263 167 263 75C288 71 298 62 301 49ZM542 53C531 72 517 93 499 115 477 104 448 95 412 88L402 98C424 110 449 126 472 145 445 173 414 199 382 219L393 233C431 217 468 195 500 171 515 184 526 198 534 210 571 227 591 181 539 139 554 125 568 111 578 98 601 101 608 98 615 88Z"/>
</svg>