<svg xmlns="http://www.w3.org/2000/svg" name="gid6244" data-unicode="攤"
    viewBox="0 0 1000 1000">
  <!--
© 2017-2024 Adobe (http://www.adobe.com/).
Noto is a trademark of Google Inc.
This Font Software is licensed under the SIL Open Font License, Version 1.1. This Font Software is distributed on an "AS IS" BASIS, WITHOUT WARRANTIES OR CONDITIONS OF ANY KIND, either express or implied. See the SIL Open Font License for the specific language, permissions and limitations governing your use of this Font Software.
http://scripts.sil.org/OFL
  -->
<path d="M270 372L270 447 205 476 205 289 300 289C313 289 322 284 325 273 300 246 255 208 255 208L218 260 205 260 205 80C229 77 239 67 241 53L145 42 145 260 39 260 47 289 145 289 145 503C97 524 57 541 34 549L72 627C81 622 88 611 90 599L145 561 145 858C145 872 141 876 126 876 110 876 39 871 39 871L39 887C72 892 91 898 101 909 112 920 116 937 118 957 196 949 205 917 205 865L205 518 270 471 270 577 278 577C300 577 324 564 324 559L324 532 405 532 405 555 404 608 266 608 274 638 402 638C399 661 396 683 391 705L245 705 253 734 383 734C360 811 312 878 219 935L232 949C338 901 396 838 427 767 474 810 531 874 553 923 620 963 659 834 435 749L440 734 609 734C622 734 631 729 634 718 608 693 566 659 566 659L531 705 448 705C453 683 456 661 458 638L582 638C595 638 604 633 606 622 583 598 547 570 547 570L516 608 461 608 462 554 462 532 542 532 542 562 550 562C568 562 596 548 597 542L597 403C609 400 620 394 624 389L563 343 535 372 462 372 462 293 484 293 484 329 494 329C515 329 540 313 540 305L540 189 624 189C638 189 647 184 649 174 626 148 587 114 587 114L553 160 540 160 540 88C561 85 569 76 571 64L484 55 484 160 388 160 388 88C408 85 417 77 419 65L332 56 332 160 238 160 246 189 332 189 332 338 343 338C363 338 388 322 388 314L388 293 405 293 405 372 329 372 270 344ZM388 189L484 189 484 264 388 264ZM324 503L324 400 405 400 405 503ZM542 503L462 503 462 400 542 400ZM832 66C819 120 794 193 769 246L712 246 684 234C712 191 736 142 756 90 777 91 788 82 792 71L702 43C676 157 627 266 574 337L589 347C608 330 627 311 644 290L644 957 653 957C681 957 700 945 700 941L700 887 946 887C960 887 968 882 970 871 945 843 900 805 900 805L861 858 833 858 833 668 928 668C941 668 950 663 953 652 929 628 890 593 890 593L856 640 833 640 833 469 928 469C941 469 950 464 953 453 929 429 890 394 890 394L856 441 833 441 833 275 938 275C952 275 961 270 963 259 939 233 897 199 897 199L862 246 795 246C830 203 863 151 885 108 905 109 917 99 921 88ZM700 275L775 275 775 441 700 441ZM700 469L775 469 775 640 700 640ZM700 668L775 668 775 858 700 858Z"/>
</svg>