<svg xmlns="http://www.w3.org/2000/svg"
    viewBox="0 0 1000 1000">
  <!--
© 2017-2024 Adobe (http://www.adobe.com/).
Noto is a trademark of Google Inc.
This Font Software is licensed under the SIL Open Font License, Version 1.1. This Font Software is distributed on an "AS IS" BASIS, WITHOUT WARRANTIES OR CONDITIONS OF ANY KIND, either express or implied. See the SIL Open Font License for the specific language, permissions and limitations governing your use of this Font Software.
http://scripts.sil.org/OFL
  -->
<path d="M688 161L696 191 901 191C915 191 923 186 926 175 904 152 870 126 870 126L841 161ZM342 62L342 233C314 205 278 172 278 172L238 227 215 227 215 50C239 47 248 37 251 23L153 12 153 227 39 227 47 257 153 257 153 491C102 508 60 522 34 528L77 607C86 604 94 594 96 582L153 551 153 829C153 843 149 847 134 847 119 847 49 841 49 841L49 858C82 863 99 869 110 880 121 890 125 908 127 928 206 919 215 888 215 836L215 516 343 441 337 427 215 470 215 257 324 257C332 257 338 255 342 252L342 435 350 435C378 435 396 420 396 415L396 393 611 393C624 393 633 388 635 377 612 353 575 323 575 323L544 364 502 364 502 290 544 290 544 313 552 313C569 313 595 300 596 293L596 183C605 181 614 176 617 172L565 132 539 156 502 156 502 91 604 91C617 91 626 86 629 75 605 52 568 21 568 21L536 62 409 62 342 31ZM396 91L451 91 451 156 396 156ZM396 364L396 290 451 290 451 364ZM396 185L544 185 544 261 396 261ZM479 474L796 474 796 533 479 533ZM416 444L416 790 426 790C458 790 479 774 479 768L479 748 528 748C510 811 460 869 280 914L291 930C520 889 576 828 600 748L670 748 670 861C670 902 680 916 744 916L821 916C940 916 964 905 964 879 964 868 960 861 940 855L938 777 925 777C916 811 908 843 901 854 898 860 894 861 886 862 876 863 852 863 824 863L758 863C733 863 731 860 731 849L731 748 796 748 796 782 806 782C827 782 859 767 860 760L860 475C871 473 880 468 884 462L822 413 790 444 489 444 416 413ZM479 562L796 562 796 625 479 625ZM479 655L796 655 796 719 479 719ZM734 353L700 353 700 266 734 266ZM771 353L771 266 809 266 809 353ZM648 237L648 417 656 417C677 417 700 407 700 402L700 382 882 382 882 415 890 415C906 415 933 403 934 396L934 267C945 264 955 259 959 254L902 211 876 237 704 237 648 212ZM846 353L846 266 882 266 882 353ZM680 9C665 87 637 165 606 216L621 226C653 198 682 160 706 115L935 115C949 115 958 110 960 99 932 72 887 35 887 35L847 86 721 86 735 54C756 55 767 46 771 34Z"/>
</svg>