<svg xmlns="http://www.w3.org/2000/svg"
    viewBox="0 0 1000 1000">
  <!--
© 2017-2023 Adobe (http://www.adobe.com/).
Noto is a trademark of Google Inc.
This Font Software is licensed under the SIL Open Font License, Version 1.1. This Font Software is distributed on an "AS IS" BASIS, WITHOUT WARRANTIES OR CONDITIONS OF ANY KIND, either express or implied. See the SIL Open Font License for the specific language, permissions and limitations governing your use of this Font Software.
http://scripts.sil.org/OFL
  -->
<path d="M318 160L318 794 330 794C353 794 380 780 380 771L380 196C401 192 409 183 412 170ZM565 14C533 195 466 370 389 484L404 494C447 452 485 400 520 340 544 458 579 566 632 661 561 761 460 845 322 913L330 927C476 872 584 800 663 710 722 796 800 869 903 924 913 892 936 875 968 870L971 861C857 813 769 746 701 663 784 552 831 416 856 257L941 257C955 257 964 252 967 241 934 210 881 167 881 167L833 227 576 227C598 175 617 120 633 63 655 63 666 54 670 42ZM664 613C604 525 564 423 536 311L563 257 778 257C761 391 726 509 664 613ZM233 12C190 201 112 396 36 520L51 530C89 488 125 437 159 381L159 927 170 927C195 927 222 911 223 905L223 310C241 308 250 301 253 292L215 278C248 211 277 138 302 64 324 64 336 56 340 43Z"/>
</svg>