<svg xmlns="http://www.w3.org/2000/svg"
    viewBox="0 0 1000 1000">
  <!--
© 2017-2023 Adobe (http://www.adobe.com/).
Noto is a trademark of Google Inc.
This Font Software is licensed under the SIL Open Font License, Version 1.1. This Font Software is distributed on an "AS IS" BASIS, WITHOUT WARRANTIES OR CONDITIONS OF ANY KIND, either express or implied. See the SIL Open Font License for the specific language, permissions and limitations governing your use of this Font Software.
http://scripts.sil.org/OFL
  -->
<path d="M42 328L51 356 237 356C197 498 127 638 32 743L45 757C134 683 205 592 256 490L256 827C256 841 251 847 232 847 212 847 111 839 111 839L111 855C157 860 182 868 196 879 210 890 215 908 217 927 308 918 320 880 320 830L320 356 409 356C396 402 374 463 357 501L371 509C408 471 453 410 478 366 497 365 508 364 515 357L444 287 406 328 327 328C352 319 358 279 321 237 374 201 438 153 472 119 493 118 505 117 513 109L439 38 397 80 63 80 72 109 390 109C366 143 332 185 303 219 271 192 221 166 144 149L134 158C194 196 270 267 294 324L305 328ZM610 12C587 190 534 362 467 480L482 489C520 447 553 397 582 340 600 453 627 559 669 652 602 757 508 846 377 919L386 932C522 874 623 799 697 708 747 796 813 872 904 929 914 898 936 883 966 878L969 869C866 819 789 748 732 661 808 550 851 417 875 265L940 265C954 265 964 260 965 249 933 218 880 176 880 176L833 236 628 236C649 181 667 121 681 59 703 59 713 49 716 36ZM698 603C651 515 620 415 599 306L617 265 799 265C783 390 751 503 698 603Z"/>
</svg>