<svg xmlns="http://www.w3.org/2000/svg"
    viewBox="0 0 1000 1000">
  <!--
© 2017-2024 Adobe (http://www.adobe.com/).
Noto is a trademark of Google Inc.
This Font Software is licensed under the SIL Open Font License, Version 1.1. This Font Software is distributed on an "AS IS" BASIS, WITHOUT WARRANTIES OR CONDITIONS OF ANY KIND, either express or implied. See the SIL Open Font License for the specific language, permissions and limitations governing your use of this Font Software.
http://scripts.sil.org/OFL
  -->
<path d="M617 13C602 162 565 312 519 428L471 378 434 438 431 438 431 269C448 266 463 258 469 251L395 195 361 231 246 231 265 111 482 111C496 111 505 106 507 95 476 67 426 28 426 28L383 82 57 82 65 111 202 111 184 231 73 231 82 260 179 260C169 324 157 389 147 438L39 438 47 467 503 467 492 490 507 499C539 459 568 411 593 357 611 470 638 575 682 667 628 761 553 843 452 914L462 927C568 870 649 801 710 721 757 804 820 874 905 929 915 898 938 883 968 878L971 869C874 820 800 753 744 671 816 556 854 420 874 265L940 265C955 265 964 260 966 249 933 218 881 176 881 176L834 236 641 236C660 180 676 120 689 58 711 57 721 47 724 35ZM370 438L209 438C219 389 231 325 241 260L370 260ZM106 565L106 921 116 921C142 921 170 906 170 900L170 846 386 846 386 896 396 896C418 896 449 879 450 873L450 606C470 602 486 594 492 587L413 526 376 565 175 565 106 534ZM170 816L170 594 386 594 386 816ZM709 614C662 528 630 428 609 321L631 265 799 265C787 393 759 509 709 614Z"/>
</svg>