<svg xmlns="http://www.w3.org/2000/svg" name="gid6289" data-unicode="散"
    viewBox="0 0 1000 1000">
  <!--
© 2017-2024 Adobe (http://www.adobe.com/).
Noto is a trademark of Google Inc.
This Font Software is licensed under the SIL Open Font License, Version 1.1. This Font Software is distributed on an "AS IS" BASIS, WITHOUT WARRANTIES OR CONDITIONS OF ANY KIND, either express or implied. See the SIL Open Font License for the specific language, permissions and limitations governing your use of this Font Software.
http://scripts.sil.org/OFL
  -->
<path d="M34 340L41 369 531 369C544 369 554 364 557 353 527 324 480 286 480 286L438 340 400 340 400 203 516 203C529 203 539 198 541 187 513 159 468 121 468 121L428 174 400 174 400 79C423 76 433 66 435 53L338 43 338 174 221 174 221 77C243 74 250 65 252 52L160 43 160 174 47 174 55 203 160 203 160 340ZM221 203L338 203 338 340 221 340ZM171 483L393 483 393 578 171 578ZM108 453L108 956 118 956C150 956 171 940 171 934L171 735 393 735 393 845C393 858 390 863 375 863 359 863 287 857 287 857L287 873C320 878 339 886 350 897 361 907 365 926 367 946 447 937 456 906 456 853L456 492C472 489 487 481 493 474L416 417 384 453 183 453 108 422ZM171 608L393 608 393 706 171 706ZM642 44C618 222 564 400 499 521L514 530C550 488 582 438 610 381 628 495 655 600 698 694 644 790 569 873 465 945L475 958C584 901 665 832 726 751 771 832 830 902 908 958 918 928 941 912 970 908L973 898C883 848 814 781 760 700 831 585 867 448 887 292L944 292C958 292 968 287 970 276 938 245 884 204 884 204L837 263 661 263C681 208 698 151 712 91 735 90 746 80 749 68ZM725 640C679 553 648 453 627 346L650 292 812 292C799 420 773 536 725 640Z"/>
</svg>