<svg xmlns="http://www.w3.org/2000/svg"
    viewBox="0 0 1000 1000">
  <!--
© 2017-2023 Adobe (http://www.adobe.com/).
Noto is a trademark of Google Inc.
This Font Software is licensed under the SIL Open Font License, Version 1.1. This Font Software is distributed on an "AS IS" BASIS, WITHOUT WARRANTIES OR CONDITIONS OF ANY KIND, either express or implied. See the SIL Open Font License for the specific language, permissions and limitations governing your use of this Font Software.
http://scripts.sil.org/OFL
  -->
<path d="M113 108L113 206 37 206 45 235 113 235 113 365 122 365C152 365 172 351 172 347L172 333 273 333 273 400 167 400 96 368 96 580 105 580C135 580 155 565 155 560L155 542 250 542C242 561 230 587 217 614 141 616 79 617 39 616L62 692C72 691 82 684 88 673L191 663C165 712 136 761 114 791 137 803 161 805 176 799L205 751C239 764 271 779 300 795 238 849 156 890 58 911L62 928C178 913 273 875 344 820 388 848 422 875 441 897 496 917 523 837 392 778 425 744 451 706 469 666 494 667 502 662 506 651L456 635 587 619 586 601 284 612 305 572C328 572 340 563 344 550L307 542 453 542 453 570 462 570C481 570 511 556 512 550L512 434C527 432 540 424 545 418L477 367 445 400 333 400 333 333 437 333 437 358 446 358C465 358 496 345 497 339L497 235 592 235C606 235 615 230 617 219 591 194 550 160 550 160L513 206 497 206 497 145C513 142 527 135 533 128L460 74 428 108 333 108 333 50C357 46 367 36 370 22L273 12 273 108 184 108 113 77ZM217 731L260 656 409 640C392 683 368 722 337 757 304 747 265 738 217 731ZM273 137L273 206 172 206 172 137ZM333 137L437 137 437 206 333 206ZM273 304L172 304 172 235 273 235ZM333 304L333 235 437 235 437 304ZM273 428L273 513 155 513 155 428ZM333 428L453 428 453 513 333 513ZM669 14C647 183 599 354 541 470L556 480C587 442 614 397 639 347 655 461 679 568 719 663 668 758 596 842 496 915L506 928C610 870 687 801 745 720 786 801 840 871 911 928 921 898 943 884 971 880L974 871C891 820 827 751 778 669 846 553 881 416 899 260L942 260C956 260 965 255 968 244 936 214 883 171 883 171L837 230 689 230C708 176 724 119 737 60 759 60 770 50 773 37ZM745 608C703 519 675 419 656 312L677 260 826 260C815 388 791 504 745 608Z"/>
</svg>