<svg xmlns="http://www.w3.org/2000/svg"
    viewBox="0 0 1000 1000">
  <!--
© 2017-2024 Adobe (http://www.adobe.com/).
Noto is a trademark of Google Inc.
This Font Software is licensed under the SIL Open Font License, Version 1.1. This Font Software is distributed on an "AS IS" BASIS, WITHOUT WARRANTIES OR CONDITIONS OF ANY KIND, either express or implied. See the SIL Open Font License for the specific language, permissions and limitations governing your use of this Font Software.
http://scripts.sil.org/OFL
  -->
<path d="M43 474L51 503 157 503 151 506C170 533 189 577 186 613 194 621 202 625 210 626L55 626 63 656 268 656 268 746 76 746 84 775 268 775 268 928 278 928C309 928 329 914 329 910L329 775 527 775C541 775 551 770 553 759 521 732 473 695 473 695L431 746 329 746 329 656 552 656C566 656 575 651 578 640 547 613 499 577 499 577L455 626 373 626C400 599 427 568 447 545 468 547 481 540 485 528L415 503 545 503C559 503 568 498 571 487 539 459 490 423 490 423L446 474 329 474 329 388 499 388C512 388 522 383 524 372 494 345 445 309 445 309L403 359 329 359 329 310C351 306 360 297 362 285L268 275 268 359 93 359 100 388 268 388 268 474ZM268 626L217 626C255 624 276 551 170 503L390 503C378 542 361 591 347 626ZM347 233L268 233 268 97 347 97ZM399 233L399 97 476 97 476 233ZM82 68L82 304 91 304C121 304 140 290 140 286L140 263 476 263 476 295 485 295C512 295 535 281 535 277L535 100C554 96 564 91 570 85L502 33 473 68 151 68 82 37ZM140 233L140 97 216 97 216 233ZM669 14C650 173 607 334 553 444L568 452C594 420 617 383 638 342 654 458 679 566 719 663 668 758 596 842 496 915L506 928C610 870 687 801 745 720 786 801 840 871 911 928 921 898 943 884 971 880L974 871C891 820 827 751 778 669 846 553 881 416 899 260L942 260C956 260 965 255 968 244 936 214 883 171 883 171L837 230 687 230C707 176 724 119 737 60 759 59 770 49 773 37ZM745 608C702 518 674 416 655 308L676 260 826 260C815 388 791 504 745 608Z"/>
</svg>