<svg xmlns="http://www.w3.org/2000/svg"
    viewBox="0 0 1000 1000">
  <!--
© 2017-2024 Adobe (http://www.adobe.com/).
Noto is a trademark of Google Inc.
This Font Software is licensed under the SIL Open Font License, Version 1.1. This Font Software is distributed on an "AS IS" BASIS, WITHOUT WARRANTIES OR CONDITIONS OF ANY KIND, either express or implied. See the SIL Open Font License for the specific language, permissions and limitations governing your use of this Font Software.
http://scripts.sil.org/OFL
  -->
<path d="M310 586L698 586 698 665 310 665ZM310 557L310 482 698 482 698 557ZM310 693L698 693 698 763 310 782ZM54 107L63 136 319 136 311 155C280 182 225 219 193 239L237 299C244 294 248 286 243 275L316 182C353 226 401 263 457 296 340 355 194 398 34 427L39 443C213 421 373 383 506 322 599 368 709 401 824 424L797 453 69 453 78 482 246 482 246 785C171 788 108 790 63 790L100 878C109 876 120 868 126 857 354 837 542 818 698 801L698 929 708 929C741 929 763 914 763 909L763 793 953 770 951 749 763 759 763 482 900 482C914 482 924 477 926 466 914 456 900 445 886 435L913 439C920 409 939 390 966 384L966 373C829 361 685 335 562 294 640 251 707 199 758 136L920 136C934 136 943 131 946 120 911 88 855 45 855 45L805 107 529 107 529 51C554 47 564 37 566 23L465 14 465 107ZM329 165L357 136 664 136C624 187 568 232 502 271 431 242 371 207 328 166Z"/>
</svg>