<svg xmlns="http://www.w3.org/2000/svg" name="gid6340" data-unicode="斵"
    viewBox="0 0 1000 1000">
  <!--
© 2017-2024 Adobe (http://www.adobe.com/).
Noto is a trademark of Google Inc.
This Font Software is licensed under the SIL Open Font License, Version 1.1. This Font Software is distributed on an "AS IS" BASIS, WITHOUT WARRANTIES OR CONDITIONS OF ANY KIND, either express or implied. See the SIL Open Font License for the specific language, permissions and limitations governing your use of this Font Software.
http://scripts.sil.org/OFL
  -->
<path d="M93 551L93 781 101 781C124 781 149 768 149 763L149 748 213 748 213 880 38 880 46 910 538 910 523 946 539 957C656 801 661 584 661 421L782 421 782 958 792 958C825 958 845 942 845 937L845 421 945 421C959 421 968 416 971 405 939 375 887 333 887 333L841 391 661 391 661 168C747 156 843 133 902 115 926 123 944 122 954 114L869 43C824 72 743 113 668 143L599 118 599 415C599 566 598 730 551 875 523 851 492 826 492 826L448 880 393 880 393 748 461 748 461 775 470 775C496 775 517 760 517 756L517 588C536 586 547 581 553 573L480 518 453 551 394 551 394 454 542 454C556 454 565 450 567 439 539 412 496 378 490 374 497 372 502 369 506 365 533 340 540 280 545 144 563 142 575 137 581 130L513 75 481 110 299 110 308 139 369 139C365 223 350 312 265 386L280 401C395 330 420 233 428 139L490 139C486 249 480 301 469 314 466 318 462 320 455 320 442 320 409 318 390 316L390 332C409 336 429 341 438 349 447 356 452 372 452 384 464 383 475 381 486 377L445 426 56 426 64 454 213 454 213 551 153 551 93 524ZM242 40C224 57 191 85 157 108L90 86 90 312 43 325 91 396C99 392 106 385 108 373 166 338 213 307 248 284 254 298 258 312 260 325 314 368 365 251 201 184L189 191C207 210 226 237 240 265L146 295 146 144C197 130 250 110 281 97 295 102 304 101 309 95ZM339 718L339 880 268 880 268 752C282 749 294 742 299 737L236 688 206 718 149 718 149 581 213 581 213 620 222 620C249 620 267 608 268 604L268 454 340 454 340 615 348 615C375 615 394 602 394 598L394 581 461 581 461 718 406 718 339 689Z"/>
</svg>