<svg xmlns="http://www.w3.org/2000/svg" name="gid6344" data-unicode="於"
    viewBox="0 0 1000 1000">
  <!--
© 2017-2024 Adobe (http://www.adobe.com/).
Noto is a trademark of Google Inc.
This Font Software is licensed under the SIL Open Font License, Version 1.1. This Font Software is distributed on an "AS IS" BASIS, WITHOUT WARRANTIES OR CONDITIONS OF ANY KIND, either express or implied. See the SIL Open Font License for the specific language, permissions and limitations governing your use of this Font Software.
http://scripts.sil.org/OFL
  -->
<path d="M593 409L582 418C641 462 713 543 732 607 806 653 845 492 593 409ZM511 682L501 695C616 749 771 857 825 949 918 989 920 786 511 682ZM711 94C747 236 825 369 921 453 928 427 949 404 976 398L978 384C875 320 775 205 727 83 749 80 759 76 762 65L652 41C628 159 533 320 440 417L397 382 361 423 243 423C246 371 247 318 248 266L479 266C493 266 504 261 506 250 473 219 421 176 421 176L373 237 295 237 295 85C317 81 326 72 327 59L228 49 228 237 42 237 50 266 178 266C176 499 176 749 29 941L44 957C188 818 228 639 241 452L370 452C362 695 347 832 318 859 309 868 301 870 284 870 265 870 208 865 174 862L173 880C205 885 237 893 250 903 262 913 266 931 266 950 304 951 339 939 364 912 405 871 426 731 433 460 453 457 465 452 472 444L457 432C565 349 664 225 711 94Z"/>
</svg>