<svg xmlns="http://www.w3.org/2000/svg"
    viewBox="0 0 1000 1000">
  <!--
© 2017-2024 Adobe (http://www.adobe.com/).
Noto is a trademark of Google Inc.
This Font Software is licensed under the SIL Open Font License, Version 1.1. This Font Software is distributed on an "AS IS" BASIS, WITHOUT WARRANTIES OR CONDITIONS OF ANY KIND, either express or implied. See the SIL Open Font License for the specific language, permissions and limitations governing your use of this Font Software.
http://scripts.sil.org/OFL
  -->
<path d="M284 27L187 17 187 305C187 372 217 383 344 383L574 383C876 383 920 376 920 337 920 324 910 318 882 311L879 196 866 196C853 253 841 290 829 307 823 316 816 320 794 322 765 324 682 326 577 326L342 326C260 326 252 319 252 297L252 220C441 199 647 155 783 116 808 125 826 125 835 116L754 45C643 96 433 162 252 199L252 51C273 49 282 40 284 27ZM732 515L732 653 280 653 280 515ZM280 906L280 859 732 859 732 926 743 926C765 926 798 911 799 904L799 527C819 523 835 515 842 507L760 444 722 485 285 485 214 452 214 927 225 927C253 927 280 913 280 906ZM280 829L280 683 732 683 732 829Z"/>
</svg>