<svg xmlns="http://www.w3.org/2000/svg"
    viewBox="0 0 1000 1000">
  <!--
© 2017-2024 Adobe (http://www.adobe.com/).
Noto is a trademark of Google Inc.
This Font Software is licensed under the SIL Open Font License, Version 1.1. This Font Software is distributed on an "AS IS" BASIS, WITHOUT WARRANTIES OR CONDITIONS OF ANY KIND, either express or implied. See the SIL Open Font License for the specific language, permissions and limitations governing your use of this Font Software.
http://scripts.sil.org/OFL
  -->
<path d="M176 11L176 241 41 241 50 271 176 271C174 536 155 752 31 912L45 929C208 768 233 543 239 271L339 271 339 810C339 880 371 897 484 897L666 897C915 897 962 888 962 853 962 839 953 831 925 824L922 711 909 711C895 767 882 807 873 821 866 829 859 833 841 834 815 837 752 838 669 838L485 838C413 838 402 828 402 799L402 284C425 281 439 275 445 267L366 201 328 241 239 241 241 49C264 46 273 35 276 22ZM509 100L509 750 520 750C550 750 574 735 574 727L574 673 812 673 812 731 822 731C844 731 876 715 877 708L877 142C897 138 913 130 919 122L839 59 803 100 579 100 509 68ZM812 644L574 644 574 395 812 395ZM812 366L574 366 574 129 812 129Z"/>
</svg>