<svg xmlns="http://www.w3.org/2000/svg"
    viewBox="0 0 1000 1000">
  <!--
© 2017-2023 Adobe (http://www.adobe.com/).
Noto is a trademark of Google Inc.
This Font Software is licensed under the SIL Open Font License, Version 1.1. This Font Software is distributed on an "AS IS" BASIS, WITHOUT WARRANTIES OR CONDITIONS OF ANY KIND, either express or implied. See the SIL Open Font License for the specific language, permissions and limitations governing your use of this Font Software.
http://scripts.sil.org/OFL
  -->
<path d="M137 424L137 541C137 660 127 795 35 907L46 920C190 812 203 650 203 540L203 454 915 454C929 454 939 449 942 438 909 409 858 368 858 368L813 424 215 424 137 391ZM558 515C579 512 588 502 590 490L487 481C483 642 472 796 159 912L170 928C477 838 535 710 552 582 583 730 661 856 895 929 902 893 924 882 958 877L959 865C674 796 585 674 558 515ZM751 214L751 305 249 305 249 214ZM751 185L249 185 249 97 751 97ZM184 68L184 383 194 383C221 383 249 367 249 361L249 335 751 335 751 374 761 374C783 374 816 360 817 354L817 109C837 105 853 97 860 90L778 27 742 68 255 68 184 35Z"/>
</svg>