<svg xmlns="http://www.w3.org/2000/svg"
    viewBox="0 0 1000 1000">
  <!--
© 2017-2023 Adobe (http://www.adobe.com/).
Noto is a trademark of Google Inc.
This Font Software is licensed under the SIL Open Font License, Version 1.1. This Font Software is distributed on an "AS IS" BASIS, WITHOUT WARRANTIES OR CONDITIONS OF ANY KIND, either express or implied. See the SIL Open Font License for the specific language, permissions and limitations governing your use of this Font Software.
http://scripts.sil.org/OFL
  -->
<path d="M139 143L290 143 290 381 139 381ZM77 113L77 799 87 799C118 799 139 782 139 776L139 685 290 685 290 752 298 752C320 752 351 736 352 730L352 154C373 151 389 143 395 135L315 73 280 113 151 113 77 81ZM139 411L290 411 290 656 139 656ZM451 88L451 328C451 546 433 761 303 914L317 926C482 788 510 571 513 354L544 354C567 491 607 605 666 698 602 785 520 858 417 911L427 925C541 880 628 817 697 742 752 816 821 874 906 919 920 889 944 871 972 869L975 860C881 822 800 767 735 696 810 599 857 485 890 364 911 362 922 359 930 350L856 283 815 326 513 326 513 117 928 117C942 117 951 112 954 101 922 72 871 30 871 30L825 88 524 88 451 56ZM566 354L819 354C794 461 754 562 698 652 636 570 591 471 566 354Z"/>
</svg>