<svg xmlns="http://www.w3.org/2000/svg"
    viewBox="0 0 1000 1000">
  <!--
© 2017-2023 Adobe (http://www.adobe.com/).
Noto is a trademark of Google Inc.
This Font Software is licensed under the SIL Open Font License, Version 1.1. This Font Software is distributed on an "AS IS" BASIS, WITHOUT WARRANTIES OR CONDITIONS OF ANY KIND, either express or implied. See the SIL Open Font License for the specific language, permissions and limitations governing your use of this Font Software.
http://scripts.sil.org/OFL
  -->
<path d="M758 253L758 377 247 377 247 253ZM758 224L247 224 247 105 758 105ZM180 76L180 452 191 452C219 452 247 437 247 430L247 406 758 406 758 444 768 444C791 444 825 429 826 423L826 118C845 114 861 105 868 97L786 35 748 76 253 76 180 43ZM177 459L177 827C121 835 76 841 45 844L84 929C94 927 104 919 108 907 295 858 431 817 530 788L527 771 243 817 243 628 497 628C511 628 520 623 523 613 493 583 442 543 442 543L399 599 243 599 243 491C262 488 270 480 271 469ZM837 511C791 552 700 609 615 647L615 493C636 490 645 480 647 468L551 458 551 843C551 896 568 912 651 912L766 912C932 912 965 901 965 870 965 857 959 850 936 843L933 728 921 728C910 778 898 825 891 839 887 848 882 850 870 851 855 852 817 852 768 852L661 852C620 852 615 847 615 829L615 670C712 646 812 607 876 575 900 582 916 580 924 571Z"/>
</svg>