<svg xmlns="http://www.w3.org/2000/svg" name="gid6422" data-unicode="昨"
    viewBox="0 0 1000 1000">
  <!--
© 2017-2024 Adobe (http://www.adobe.com/).
Noto is a trademark of Google Inc.
This Font Software is licensed under the SIL Open Font License, Version 1.1. This Font Software is distributed on an "AS IS" BASIS, WITHOUT WARRANTIES OR CONDITIONS OF ANY KIND, either express or implied. See the SIL Open Font License for the specific language, permissions and limitations governing your use of this Font Software.
http://scripts.sil.org/OFL
  -->
<path d="M516 41C482 193 419 340 349 435L349 191C369 187 385 179 391 171L311 109 275 150 152 150 77 117 77 844 87 844C119 844 140 827 140 821L140 730 285 730 285 798 295 798C317 798 348 782 349 776L349 437 363 446C420 395 472 324 516 242L602 242 602 957 612 957C645 957 667 941 667 935L667 684 926 684C941 684 950 679 953 668 920 638 866 596 866 596L819 655 667 655 667 458 906 458C920 458 929 453 932 442 899 412 847 371 847 371L800 429 667 429 667 242 942 242C956 242 964 237 967 226 934 195 881 154 881 154L834 213 530 213C549 174 566 133 581 91 602 92 614 83 618 71ZM140 179L285 179 285 421 140 421ZM140 450L285 450 285 701 140 701Z"/>
</svg>