<svg xmlns="http://www.w3.org/2000/svg"
    viewBox="0 0 1000 1000">
  <!--
© 2017-2024 Adobe (http://www.adobe.com/).
Noto is a trademark of Google Inc.
This Font Software is licensed under the SIL Open Font License, Version 1.1. This Font Software is distributed on an "AS IS" BASIS, WITHOUT WARRANTIES OR CONDITIONS OF ANY KIND, either express or implied. See the SIL Open Font License for the specific language, permissions and limitations governing your use of this Font Software.
http://scripts.sil.org/OFL
  -->
<path d="M137 448L128 458C180 489 244 549 263 600 335 640 371 491 137 448ZM749 235L749 350 262 350 262 235ZM749 206L262 206 262 95 749 95ZM197 66L197 431 208 431C235 431 262 416 262 411L262 380 749 380 749 421 759 421C781 421 814 407 815 400L815 107C834 103 850 95 857 88L776 25 740 66 268 66 197 33ZM793 427C734 487 667 542 617 577L617 439C637 436 646 426 648 414L553 404 553 842C553 894 571 911 653 911L766 911C930 911 964 901 964 869 964 856 957 850 933 842L930 747 919 747C908 789 897 829 891 840 885 847 879 849 868 850 854 851 816 852 768 852L663 852C622 852 617 845 617 827L617 640C693 673 790 732 829 785 910 810 907 654 617 622L617 602C676 579 754 542 821 498 842 509 859 503 866 497ZM374 404L374 596 373 625C247 667 125 706 73 718L115 795C125 791 132 782 135 770 234 721 313 679 371 647 357 759 289 853 75 914L83 929C377 865 437 741 439 597L439 440C462 436 469 427 472 414Z"/>
</svg>