<svg xmlns="http://www.w3.org/2000/svg"
    viewBox="0 0 1000 1000">
  <!--
© 2017-2023 Adobe (http://www.adobe.com/).
Noto is a trademark of Google Inc.
This Font Software is licensed under the SIL Open Font License, Version 1.1. This Font Software is distributed on an "AS IS" BASIS, WITHOUT WARRANTIES OR CONDITIONS OF ANY KIND, either express or implied. See the SIL Open Font License for the specific language, permissions and limitations governing your use of this Font Software.
http://scripts.sil.org/OFL
  -->
<path d="M403 92L389 97C426 161 464 260 465 336 528 399 592 242 403 92ZM817 86C792 178 757 280 725 345L741 353C789 299 840 217 878 139 900 139 910 130 915 119ZM341 394L349 423 514 423C509 649 469 792 273 911L280 926C515 824 571 674 582 423L684 423 684 834C684 879 695 897 760 897L829 897C941 897 968 885 968 857 968 845 963 837 943 829L940 701 927 701C917 753 906 811 900 825 896 833 892 835 885 836 876 837 856 837 831 837L775 837C750 837 747 832 747 817L747 423 944 423C958 423 967 418 969 407 937 377 885 336 885 336L839 394 664 394 664 60C690 56 699 46 702 32L601 21 601 394ZM137 132L264 132 264 390 137 390ZM75 103L75 832 85 832C116 832 137 816 137 811L137 723 264 723 264 792 273 792C295 792 325 775 326 768L326 144C346 140 362 132 368 124L290 62 254 103 149 103 75 71ZM137 419L264 419 264 693 137 693Z"/>
</svg>