<svg xmlns="http://www.w3.org/2000/svg" name="gid6465" data-unicode="晞"
    viewBox="0 0 1000 1000">
  <!--
© 2017-2024 Adobe (http://www.adobe.com/).
Noto is a trademark of Google Inc.
This Font Software is licensed under the SIL Open Font License, Version 1.1. This Font Software is distributed on an "AS IS" BASIS, WITHOUT WARRANTIES OR CONDITIONS OF ANY KIND, either express or implied. See the SIL Open Font License for the specific language, permissions and limitations governing your use of this Font Software.
http://scripts.sil.org/OFL
  -->
<path d="M582 236C570 278 554 322 534 366L351 366 359 395 520 395C474 487 409 578 330 645L330 184C350 181 367 173 373 165L294 103 258 143 150 143 76 111 76 831 86 831C117 831 137 815 137 809L137 717 268 717 268 786 277 786C299 786 328 770 330 763L330 668C371 643 409 613 443 580L443 890 453 890C484 890 504 874 504 868L504 570 633 570 633 956 646 956C670 956 697 942 697 933L697 570 834 570 834 789C834 802 830 807 818 807 802 807 739 803 739 802L739 818C769 823 786 829 796 837 807 847 810 863 812 879 886 872 895 844 895 797L895 581C914 578 930 570 937 562L856 503 824 541 697 541 697 460C721 457 730 447 733 434L633 423 633 541 516 541 491 530C528 487 559 441 585 395L938 395C952 395 961 390 964 380 932 351 882 311 882 311L838 366 601 366C616 337 628 309 639 282 664 283 673 278 677 266ZM819 41C787 75 742 108 690 139 624 118 539 98 428 83L424 100C501 119 572 143 635 169 551 212 454 248 361 270L367 287C481 270 596 236 691 194 759 226 813 259 846 286 899 302 921 231 756 162 794 142 828 119 855 97 877 104 885 101 893 93ZM137 172L268 172 268 412 137 412ZM137 442L268 442 268 689 137 689Z"/>
</svg>