<svg xmlns="http://www.w3.org/2000/svg" name="gid6473" data-unicode="晦"
    viewBox="0 0 1000 1000">
  <!--
© 2017-2024 Adobe (http://www.adobe.com/).
Noto is a trademark of Google Inc.
This Font Software is licensed under the SIL Open Font License, Version 1.1. This Font Software is distributed on an "AS IS" BASIS, WITHOUT WARRANTIES OR CONDITIONS OF ANY KIND, either express or implied. See the SIL Open Font License for the specific language, permissions and limitations governing your use of this Font Software.
http://scripts.sil.org/OFL
  -->
<path d="M575 359L565 367C601 397 646 450 660 491 722 531 771 409 575 359ZM566 588L556 597C596 629 644 683 658 727 721 769 766 642 566 588ZM518 329L812 329 806 527 496 527ZM341 527L349 556 432 556C418 659 402 766 387 852 422 859 436 857 451 848L459 796 782 796C775 835 766 861 756 871 746 882 738 884 719 884 699 884 638 878 600 874L599 893C633 899 670 907 683 917 695 927 698 943 698 961 739 961 777 949 803 918 820 898 833 858 843 796L947 796C961 796 969 791 972 780 944 752 899 713 899 713L859 767 847 767C855 712 860 642 864 556L957 556C970 556 979 551 982 540 957 513 913 475 913 475L876 527 866 527 872 337C893 335 905 329 913 321L838 259 802 301 535 301 466 269C459 336 448 429 436 527ZM492 556L805 556C800 644 795 715 787 767L463 767ZM137 179L261 179 261 425 137 425ZM76 149L76 851 86 851C117 851 137 836 137 830L137 736 261 736 261 805 270 805C292 805 321 790 322 782L322 190C342 186 359 179 366 171L287 109 251 149 150 149 76 117ZM137 454L261 454 261 707 137 707ZM493 40C462 174 403 296 337 374L351 384C408 339 460 275 501 199L937 199C951 199 960 194 963 183 930 153 878 113 878 113L832 170 516 170C528 144 540 117 550 89 571 90 582 81 586 69Z"/>
</svg>