<svg xmlns="http://www.w3.org/2000/svg" name="gid6482" data-unicode="景"
    viewBox="0 0 1000 1000">
  <!--
© 2017-2024 Adobe (http://www.adobe.com/).
Noto is a trademark of Google Inc.
This Font Software is licensed under the SIL Open Font License, Version 1.1. This Font Software is distributed on an "AS IS" BASIS, WITHOUT WARRANTIES OR CONDITIONS OF ANY KIND, either express or implied. See the SIL Open Font License for the specific language, permissions and limitations governing your use of this Font Software.
http://scripts.sil.org/OFL
  -->
<path d="M299 740C248 801 144 879 48 923L58 937C169 907 286 847 347 794 370 800 377 796 384 787ZM626 757L621 772C737 821 827 892 863 937 940 971 975 809 626 757ZM734 230L734 307 266 307 266 230ZM734 200L266 200 266 125 734 125ZM55 419L64 448 919 448C933 448 942 443 945 432 912 402 860 363 860 363L815 419 531 419 531 369C553 365 562 356 563 343L494 336 734 336 734 370 744 370C765 370 798 356 799 350L799 138C819 134 835 125 842 118L760 56 724 96 271 96 201 64 201 380 211 380C238 380 266 366 266 359L266 336 465 336 465 419ZM226 517L226 733 235 733C261 733 291 718 291 712L291 691 466 691 466 864C466 876 462 881 445 881 425 881 333 874 333 874L333 890C375 894 399 902 412 912 425 922 429 939 430 958 518 949 532 915 532 865L532 691 708 691 708 726 718 726C740 726 773 713 774 706L774 559C793 555 810 546 817 539L734 478 698 517 297 517 226 486ZM708 662L291 662 291 546 708 546Z"/>
</svg>