<svg xmlns="http://www.w3.org/2000/svg" name="gid6526" data-unicode="暱"
    viewBox="0 0 1000 1000">
  <!--
© 2017-2024 Adobe (http://www.adobe.com/).
Noto is a trademark of Google Inc.
This Font Software is licensed under the SIL Open Font License, Version 1.1. This Font Software is distributed on an "AS IS" BASIS, WITHOUT WARRANTIES OR CONDITIONS OF ANY KIND, either express or implied. See the SIL Open Font License for the specific language, permissions and limitations governing your use of this Font Software.
http://scripts.sil.org/OFL
  -->
<path d="M461 260L468 289 560 289 560 350 570 350C600 350 619 340 619 334L619 289 743 289 743 349 754 349C788 348 802 336 802 331L802 289 905 289C919 289 928 284 931 273 906 249 866 216 866 216L832 260 802 260 802 201C823 198 831 186 832 175L743 166 743 260 619 260 619 201C639 198 648 188 649 175L560 166 560 260ZM134 169L249 169 249 410 134 410ZM76 139L76 827 85 827C114 827 134 812 134 806L134 718 249 718 249 782 257 782C278 782 307 766 307 760L307 180C327 176 344 168 351 160L274 100 239 139 147 139 76 108ZM134 439L249 439 249 689 134 689ZM374 107L374 940 384 940C416 940 437 923 437 917L437 871 950 871C963 871 973 866 975 855 941 824 884 779 884 779L833 842 437 842 437 136 933 136C947 136 957 131 960 120 926 89 872 47 872 47L825 107 449 107 374 74ZM628 338C621 365 611 392 600 420L459 420 467 449 587 449C553 525 504 597 449 645L462 656C497 633 530 605 559 573L559 785 568 785C598 785 618 769 618 764L618 728 803 728 803 768 812 768C831 768 862 754 863 748L863 579C880 576 895 568 901 561L826 506 794 541 630 541 598 527C617 502 634 476 650 449L910 449C924 449 934 444 937 433 906 405 857 366 857 366L815 420 665 420 688 372C712 373 719 368 723 357ZM803 699L618 699 618 570 803 570Z"/>
</svg>