<svg xmlns="http://www.w3.org/2000/svg"
    viewBox="0 0 1000 1000">
  <!--
© 2017-2023 Adobe (http://www.adobe.com/).
Noto is a trademark of Google Inc.
This Font Software is licensed under the SIL Open Font License, Version 1.1. This Font Software is distributed on an "AS IS" BASIS, WITHOUT WARRANTIES OR CONDITIONS OF ANY KIND, either express or implied. See the SIL Open Font License for the specific language, permissions and limitations governing your use of this Font Software.
http://scripts.sil.org/OFL
  -->
<path d="M758 727L749 736C803 774 874 843 897 895 969 934 1003 790 758 727ZM486 712C449 774 370 852 294 898L303 912C395 878 484 817 532 765 554 770 563 766 569 756ZM137 134L272 134 272 378 137 378ZM76 104L76 802 85 802C116 802 137 786 137 780L137 684 272 684 272 755 281 755C303 755 333 740 334 733L334 146C354 142 371 134 376 126L298 64 262 104 149 104 76 73ZM137 408L272 408 272 655 137 655ZM622 309L622 407 354 407 362 436 944 436C958 436 967 431 970 420 939 391 890 351 890 351L845 407 685 407 685 342C704 338 711 330 713 319ZM815 192L815 267 498 267 498 192ZM815 163L498 163 498 91 815 91ZM434 62L434 340 444 340C470 340 498 326 498 319L498 296 815 296 815 331 824 331C845 331 878 316 879 311L879 103C898 99 914 92 921 84L841 22 805 62 503 62 434 31ZM446 499L446 705 455 705C481 705 509 692 509 686L509 662 626 662 626 837C626 848 623 853 609 853 593 853 522 848 522 848L522 863C557 868 575 874 586 884 596 893 600 911 601 928 679 919 690 887 690 837L690 662 804 662 804 696 814 696C833 696 865 682 866 677L866 538C884 535 899 527 904 520L828 464 795 499 514 499 446 469ZM804 633L509 633 509 529 804 529Z"/>
</svg>