<svg xmlns="http://www.w3.org/2000/svg" name="gid6553" data-unicode="曛"
    viewBox="0 0 1000 1000">
  <!--
© 2017-2024 Adobe (http://www.adobe.com/).
Noto is a trademark of Google Inc.
This Font Software is licensed under the SIL Open Font License, Version 1.1. This Font Software is distributed on an "AS IS" BASIS, WITHOUT WARRANTIES OR CONDITIONS OF ANY KIND, either express or implied. See the SIL Open Font License for the specific language, permissions and limitations governing your use of this Font Software.
http://scripts.sil.org/OFL
  -->
<path d="M522 778L508 782C521 824 531 888 523 937 568 994 643 889 522 778ZM487 361L475 368C495 394 513 440 511 476 557 520 616 425 487 361ZM651 775L639 782C671 823 703 890 704 942 760 994 821 869 651 775ZM792 771L782 778C830 820 889 892 903 949 971 995 1017 848 792 771ZM732 356C725 387 709 448 695 485L707 491C736 461 766 425 782 400 802 402 813 392 814 383ZM411 772C407 832 362 880 320 897 302 908 289 926 297 944 306 964 339 962 363 948 401 926 447 868 429 773ZM136 172L246 172 246 411 136 411ZM76 143L76 829 86 829C116 829 136 813 136 807L136 715 246 715 246 783 254 783C276 783 305 767 306 761L306 184C326 181 343 172 349 164L271 104 236 143 148 143 76 112ZM136 441L246 441 246 686 136 686ZM822 42C717 75 521 119 365 139L370 157C443 155 522 149 598 141L598 216 338 216 346 246 598 246 598 319 450 319 381 289 381 570 390 570C420 570 439 556 439 551L439 531 598 531 598 605 374 605 382 635 598 635 598 715 328 715 336 745 938 745C951 745 961 740 963 729 931 700 879 658 879 658L833 715 662 715 662 635 890 635C903 635 912 630 915 619 884 591 836 557 836 557L794 605 662 605 662 531 827 531 827 557 836 557C864 557 888 543 888 538L888 351C906 348 916 343 922 336L854 283 824 319 662 319 662 246 930 246C944 246 954 241 957 230 923 201 872 165 872 165L827 216 662 216 662 134C729 126 791 117 842 108 866 119 883 120 893 111ZM439 503L439 348 601 348 601 503ZM827 503L659 503 659 348 827 348Z"/>
</svg>