<svg xmlns="http://www.w3.org/2000/svg"
    viewBox="0 0 1000 1000">
  <!--
© 2017-2023 Adobe (http://www.adobe.com/).
Noto is a trademark of Google Inc.
This Font Software is licensed under the SIL Open Font License, Version 1.1. This Font Software is distributed on an "AS IS" BASIS, WITHOUT WARRANTIES OR CONDITIONS OF ANY KIND, either express or implied. See the SIL Open Font License for the specific language, permissions and limitations governing your use of this Font Software.
http://scripts.sil.org/OFL
  -->
<path d="M585 771C540 817 448 878 370 913L381 927C470 904 570 862 624 825 645 831 653 829 660 819ZM715 780L709 796C797 830 855 874 885 913 943 968 1041 829 715 780ZM134 141L244 141 244 380 134 380ZM76 111L76 797 85 797C114 797 134 781 134 775L134 684 244 684 244 751 252 751C273 751 302 736 303 729L303 153C322 149 340 141 346 132L269 72 234 111 147 111 76 80ZM134 409L244 409 244 655 134 655ZM469 507L469 796 478 796C503 796 528 783 528 777L528 749 821 749 821 789 830 789C851 789 880 772 881 764L881 542C896 540 909 533 914 526L845 474 813 507 701 507 701 446 937 446C951 446 960 441 963 430 934 404 889 368 889 368L849 417 431 417 431 397 431 266 545 266 545 401 556 401C577 401 602 388 602 382L602 359 737 359 737 394 748 394C769 394 794 381 794 374L794 266 934 266C947 266 956 261 959 250 931 224 889 190 889 190L850 236 794 236 794 193C813 189 821 181 823 170L737 161 737 236 602 236 602 193C621 189 629 181 631 170L545 161 545 236 431 236 431 146 930 146C944 146 954 141 957 130 924 101 873 61 873 61L827 117 695 117 695 52C714 49 722 41 723 29L632 19 632 117 442 117 371 85 371 398C371 579 358 761 246 906L262 917C403 788 427 606 431 446L643 446 643 507 533 507 469 477ZM602 266L737 266 737 330 602 330ZM643 642L643 721 528 721 528 642ZM701 642L821 642 821 721 701 721ZM643 613L528 613 528 536 643 536ZM701 613L701 536 821 536 821 613Z"/>
</svg>