<svg xmlns="http://www.w3.org/2000/svg" name="gid6558" data-unicode="曦"
    viewBox="0 0 1000 1000">
  <!--
© 2017-2024 Adobe (http://www.adobe.com/).
Noto is a trademark of Google Inc.
This Font Software is licensed under the SIL Open Font License, Version 1.1. This Font Software is distributed on an "AS IS" BASIS, WITHOUT WARRANTIES OR CONDITIONS OF ANY KIND, either express or implied. See the SIL Open Font License for the specific language, permissions and limitations governing your use of this Font Software.
http://scripts.sil.org/OFL
  -->
<path d="M762 418L752 427C780 443 812 473 824 499 881 528 915 422 762 418ZM454 48L443 54C469 81 499 126 507 162 568 205 623 89 454 48ZM717 42C706 82 687 134 667 172L355 172 363 201 588 201 588 261 386 261 394 290 588 290 588 355 331 355 339 384 934 384C947 384 956 380 959 369 930 342 884 306 884 306L845 355 651 355 651 290 869 290C883 290 892 285 895 274 866 247 821 212 821 212L781 261 651 261 651 201 911 201C924 201 934 196 937 185 905 156 855 116 855 116L810 172 697 172C730 147 763 116 784 90 806 92 818 84 822 72ZM841 577C829 626 808 678 781 727 761 672 749 609 742 545L939 545C953 545 962 540 964 529 937 501 893 465 893 465L853 515 739 515 733 433C754 430 762 420 763 407L672 398C675 438 678 477 682 515L524 515 524 463 601 452C620 461 636 462 644 455L589 398C531 420 422 446 332 455L336 474C379 474 425 472 468 468L468 515 316 515 324 545 439 545C405 588 359 628 309 660L321 678C376 652 427 620 468 583L468 677 478 677C505 677 524 663 524 657L524 571C564 590 612 625 632 649 687 674 710 574 524 555L524 545 686 545C697 635 715 716 746 784 707 839 659 889 602 926L612 940C673 911 724 870 766 824 792 867 824 903 865 929 900 953 948 971 963 945 970 933 968 924 945 899L953 780 940 779C931 813 920 851 910 871 905 886 899 886 887 877 852 854 825 821 804 780 843 728 872 673 892 621 916 622 924 617 929 606ZM342 699L350 728 414 728C400 764 378 813 362 837 383 846 406 847 419 841L434 809 550 809C542 853 531 879 520 886 513 891 506 892 493 892 478 892 439 889 415 888L415 904C436 908 455 913 464 920 475 929 477 944 477 958 503 958 531 952 549 941 578 922 595 883 604 815 623 813 635 808 641 801L575 748 544 780 448 780 470 728 635 728C648 728 657 723 660 712 638 690 604 661 604 661L573 699ZM134 164L246 164 246 428 134 428ZM76 134L76 867 85 867C114 867 134 851 134 845L134 755 246 755 246 827 255 827C276 827 304 811 306 805L306 176C325 172 342 164 348 155L271 95 236 134 147 134 76 104ZM134 457L246 457 246 725 134 725Z"/>
</svg>