<svg xmlns="http://www.w3.org/2000/svg" name="gid6566" data-unicode="曳"
    viewBox="0 0 1000 1000">
  <!--
© 2017-2024 Adobe (http://www.adobe.com/).
Noto is a trademark of Google Inc.
This Font Software is licensed under the SIL Open Font License, Version 1.1. This Font Software is distributed on an "AS IS" BASIS, WITHOUT WARRANTIES OR CONDITIONS OF ANY KIND, either express or implied. See the SIL Open Font License for the specific language, permissions and limitations governing your use of this Font Software.
http://scripts.sil.org/OFL
  -->
<path d="M439 43C439 90 440 136 441 181L228 181 157 148 157 646 167 646C194 646 222 631 222 624L222 575 494 575C514 641 540 701 574 752 436 839 253 905 60 938L65 956C271 934 463 875 607 795 659 857 728 904 816 933 879 957 940 970 955 933 960 920 957 910 921 883L934 737 922 735C909 778 890 829 877 855 868 874 860 875 835 866 764 844 708 808 664 760 709 731 748 699 779 665 801 673 812 670 819 660L741 608C711 646 673 682 628 715 600 674 578 627 561 575L764 575 764 613 774 613C797 613 829 596 830 589L830 220C848 217 863 209 870 202L791 141 755 181 509 181 509 84C533 79 542 67 544 55ZM764 210L764 360 519 360C515 312 512 262 510 210ZM222 389L457 389C464 445 474 497 486 546L222 546ZM222 360L222 210 442 210C445 262 448 312 453 360ZM764 389L764 546 553 546C539 497 529 445 523 389Z"/>
</svg>