<svg xmlns="http://www.w3.org/2000/svg" name="gid6567" data-unicode="更"
    viewBox="0 0 1000 1000">
  <!--
© 2017-2024 Adobe (http://www.adobe.com/).
Noto is a trademark of Google Inc.
This Font Software is licensed under the SIL Open Font License, Version 1.1. This Font Software is distributed on an "AS IS" BASIS, WITHOUT WARRANTIES OR CONDITIONS OF ANY KIND, either express or implied. See the SIL Open Font License for the specific language, permissions and limitations governing your use of this Font Software.
http://scripts.sil.org/OFL
  -->
<path d="M58 121L67 151 472 151 472 267 258 267 188 235 188 664 198 664C226 664 252 648 252 642L252 606 459 606C448 659 428 706 394 748 351 719 315 684 287 643L272 655C299 702 332 741 370 775 305 842 202 896 41 945L49 963C223 925 337 873 411 808 532 895 700 937 905 958 912 925 932 904 961 896L961 886C757 877 574 847 442 776 486 726 511 670 524 606L762 606 762 658 772 658C794 658 827 642 828 637L828 310C847 306 863 297 870 289L789 227 752 267 537 267 537 151 920 151C934 151 945 146 947 135 911 103 853 59 853 59L803 121ZM762 297L762 420 537 420 537 297ZM252 577L252 449 472 449 472 464C472 505 470 542 465 577ZM252 420L252 297 472 297 472 420ZM762 577L529 577C535 540 537 502 537 461L537 449 762 449Z"/>
</svg>