<svg xmlns="http://www.w3.org/2000/svg" name="gid6571" data-unicode="曹"
    viewBox="0 0 1000 1000">
  <!--
© 2017-2024 Adobe (http://www.adobe.com/).
Noto is a trademark of Google Inc.
This Font Software is licensed under the SIL Open Font License, Version 1.1. This Font Software is distributed on an "AS IS" BASIS, WITHOUT WARRANTIES OR CONDITIONS OF ANY KIND, either express or implied. See the SIL Open Font License for the specific language, permissions and limitations governing your use of this Font Software.
http://scripts.sil.org/OFL
  -->
<path d="M699 769L699 877 298 877 298 769ZM699 740L298 740 298 637 699 637ZM782 405L782 504 634 504 634 405ZM782 376L634 376 634 280 782 280ZM214 405L361 405 361 504 214 504ZM214 376L214 280 361 280 361 376ZM424 405L571 405 571 504 424 504ZM424 376L424 280 571 280 571 376ZM64 140L73 169 361 169 361 250 221 250 152 219 152 583 161 583C187 583 214 568 214 561L214 533 782 533 782 567 792 567C813 567 844 551 845 545L845 292C866 288 882 280 888 272L808 211 772 250 634 250 634 169 915 169C929 169 938 164 941 153 909 123 855 83 855 83L810 140 634 140 634 80C658 76 667 66 670 53L571 43 571 140 424 140 424 80C447 76 456 66 459 53L361 43 361 140ZM233 607L233 959 243 959C270 959 298 944 298 937L298 907 699 907 699 955 709 955C731 955 764 940 765 934L765 649C785 645 801 637 808 629L726 567 689 607 304 607 233 575ZM424 250L424 169 571 169 571 250Z"/>
</svg>