<svg xmlns="http://www.w3.org/2000/svg"
    viewBox="0 0 1000 1000">
  <!--
© 2017-2023 Adobe (http://www.adobe.com/).
Noto is a trademark of Google Inc.
This Font Software is licensed under the SIL Open Font License, Version 1.1. This Font Software is distributed on an "AS IS" BASIS, WITHOUT WARRANTIES OR CONDITIONS OF ANY KIND, either express or implied. See the SIL Open Font License for the specific language, permissions and limitations governing your use of this Font Software.
http://scripts.sil.org/OFL
  -->
<path d="M713 568L713 686 292 686 292 568ZM227 539L227 926 237 926C265 926 292 911 292 904L292 866 713 866 713 919 723 919C745 919 777 904 778 898L778 577C796 574 811 566 817 559L739 500 704 539 298 539 227 506ZM292 836L292 715 713 715 713 836ZM687 14L685 119 606 119 536 88 536 268 487 268 488 271C462 248 431 224 431 224L393 269 321 269C332 230 338 190 342 149L464 149C477 149 487 144 490 133 461 106 417 73 417 73L378 119 344 119 347 48C370 45 377 34 379 22L287 14C287 49 286 85 285 119L208 119 140 88 140 269 50 269 58 298 254 298C223 384 164 462 49 528L63 545C209 477 278 391 312 298L325 298 325 440 275 451 313 512C323 509 329 501 332 490 419 457 483 428 526 410L522 394 382 428 382 298 476 298C483 298 489 297 493 294L494 297 658 297C630 379 575 449 463 507L476 524C594 475 659 413 696 343L696 443C696 483 704 497 762 497L823 497C921 497 946 485 946 461 946 449 942 442 924 435L921 350 907 350C900 388 892 422 886 434 883 441 880 442 872 443 866 443 847 443 826 443L776 443C757 443 754 441 754 432L754 340C770 337 780 328 781 317L712 309 716 297 921 297C935 297 945 292 947 282 918 254 871 219 871 219L830 268 725 268C735 230 740 190 743 149L893 149C906 149 916 144 919 133 889 105 841 70 841 70L800 119 745 119 748 47C769 45 777 34 779 22ZM196 269L196 149 283 149C280 190 274 230 263 269ZM594 149L684 149C681 191 676 230 667 268L594 268Z"/>
</svg>