<svg xmlns="http://www.w3.org/2000/svg"
    viewBox="0 0 1000 1000">
  <!--
© 2017-2023 Adobe (http://www.adobe.com/).
Noto is a trademark of Google Inc.
This Font Software is licensed under the SIL Open Font License, Version 1.1. This Font Software is distributed on an "AS IS" BASIS, WITHOUT WARRANTIES OR CONDITIONS OF ANY KIND, either express or implied. See the SIL Open Font License for the specific language, permissions and limitations governing your use of this Font Software.
http://scripts.sil.org/OFL
  -->
<path d="M130 18L117 25C148 69 183 139 188 194 246 245 306 118 130 18ZM440 333L440 576 321 576C324 547 325 517 325 488L325 249 555 249C567 249 577 244 580 233 549 204 498 163 498 163L454 220 368 220C409 169 453 105 480 56 502 56 514 47 518 35L417 12C399 74 369 159 343 220L39 220 47 249 263 249 263 489C263 518 262 547 260 576L146 576 146 368C170 364 178 356 180 342L87 333 87 678 99 678C120 678 146 665 146 658L146 606 257 606C242 721 197 827 74 916L87 930C248 847 301 729 318 606L440 606 440 668 451 668C474 668 500 655 500 646L500 369C524 365 533 356 535 342ZM856 104L856 293 666 293 666 104ZM604 75L604 421C604 610 587 783 461 915L476 926C608 828 649 692 661 551L856 551 856 822C856 838 850 844 832 844 812 844 713 837 713 837L713 853C756 859 781 866 796 877 809 887 815 905 817 926 909 916 919 883 919 830L919 116C939 113 956 104 962 96L879 33 846 75 678 75 604 42ZM856 323L856 523 663 523C665 489 666 454 666 420L666 323Z"/>
</svg>