<svg xmlns="http://www.w3.org/2000/svg" name="gid6594" data-unicode="朗"
    viewBox="0 0 1000 1000">
  <!--
© 2017-2024 Adobe (http://www.adobe.com/).
Noto is a trademark of Google Inc.
This Font Software is licensed under the SIL Open Font License, Version 1.1. This Font Software is distributed on an "AS IS" BASIS, WITHOUT WARRANTIES OR CONDITIONS OF ANY KIND, either express or implied. See the SIL Open Font License for the specific language, permissions and limitations governing your use of this Font Software.
http://scripts.sil.org/OFL
  -->
<path d="M37 820L86 900C95 896 103 887 105 874 224 818 315 770 381 733 400 764 415 796 421 824 489 874 534 712 287 600L275 608C307 637 343 676 371 718L173 781 173 545 400 545 400 590 410 590C430 590 462 577 463 572L463 239C484 235 500 226 506 218L425 157 390 197 317 197 317 88C341 85 351 75 353 61L254 51 254 197 185 197 111 165 111 800ZM173 226L400 226 400 356 173 356ZM843 157L843 347 629 347 629 157ZM566 128L566 466C566 658 540 822 388 947L401 959C555 868 606 738 622 599L843 599 843 853C843 869 837 875 818 875 798 875 695 867 695 867L695 883C740 889 765 897 781 908 794 918 800 936 803 956 896 947 906 913 906 860L906 170C926 166 943 158 950 149L866 86 833 128 641 128 566 95ZM843 377L843 570 625 570C628 535 629 499 629 464L629 377ZM173 385L400 385 400 515 173 515Z"/>
</svg>