<svg xmlns="http://www.w3.org/2000/svg"
    viewBox="0 0 1000 1000">
  <!--
© 2017-2024 Adobe (http://www.adobe.com/).
Noto is a trademark of Google Inc.
This Font Software is licensed under the SIL Open Font License, Version 1.1. This Font Software is distributed on an "AS IS" BASIS, WITHOUT WARRANTIES OR CONDITIONS OF ANY KIND, either express or implied. See the SIL Open Font License for the specific language, permissions and limitations governing your use of this Font Software.
http://scripts.sil.org/OFL
  -->
<path d="M465 12L465 247 48 247 56 277 411 277C338 450 202 625 36 740L47 754C232 653 375 506 465 335L465 687 246 687 254 716 465 716 465 928 478 928C504 928 531 913 531 903L531 716 730 716C744 716 753 711 756 700 723 669 670 624 670 624L621 687 531 687 531 277C611 484 749 652 901 746 912 713 938 693 967 690L969 679C813 608 646 453 554 277L926 277C940 277 951 272 953 261 917 227 859 182 859 182L808 247 531 247 531 52C558 48 566 38 569 23Z"/>
</svg>