<svg xmlns="http://www.w3.org/2000/svg" name="gid6610" data-unicode="札"
    viewBox="0 0 1000 1000">
  <!--
© 2017-2024 Adobe (http://www.adobe.com/).
Noto is a trademark of Google Inc.
This Font Software is licensed under the SIL Open Font License, Version 1.1. This Font Software is distributed on an "AS IS" BASIS, WITHOUT WARRANTIES OR CONDITIONS OF ANY KIND, either express or implied. See the SIL Open Font License for the specific language, permissions and limitations governing your use of this Font Software.
http://scripts.sil.org/OFL
  -->
<path d="M552 60L552 846C552 907 575 927 658 927L763 927C922 927 961 920 961 887 961 874 955 867 930 858L927 689 914 689C901 760 887 833 880 851 875 861 870 865 858 866 844 868 811 869 765 869L669 869C626 869 618 858 618 832L618 100C643 96 652 86 653 72ZM237 44L237 274 46 274 54 303 222 303C186 461 122 618 29 736L42 749C126 670 190 575 237 470L237 957 251 957C275 957 302 942 302 933L302 418C344 462 391 530 405 581 474 632 528 488 302 397L302 303 464 303C478 303 488 298 490 287 459 257 407 216 407 216L362 274 302 274 302 82C327 78 335 69 338 54Z"/>
</svg>