<svg xmlns="http://www.w3.org/2000/svg"
    viewBox="0 0 1000 1000">
  <!--
© 2017-2023 Adobe (http://www.adobe.com/).
Noto is a trademark of Google Inc.
This Font Software is licensed under the SIL Open Font License, Version 1.1. This Font Software is distributed on an "AS IS" BASIS, WITHOUT WARRANTIES OR CONDITIONS OF ANY KIND, either express or implied. See the SIL Open Font License for the specific language, permissions and limitations governing your use of this Font Software.
http://scripts.sil.org/OFL
  -->
<path d="M488 83L488 433C488 627 464 793 317 918L332 929C528 808 551 620 551 432L551 112 742 112 742 834C742 879 753 898 810 898L856 898C944 898 971 887 971 861 971 848 965 841 945 833L941 699 928 699C920 749 909 816 903 829 899 836 895 837 890 838 884 839 872 839 857 839L826 839C809 839 806 833 806 817L806 126C830 122 842 117 849 109L769 40 732 83 564 83 488 49ZM208 14L208 233 41 233 49 263 189 263C160 413 109 565 35 682L50 693C116 619 169 532 208 436L208 928 222 928C244 928 271 913 271 904L271 373C310 415 354 476 365 523 432 572 485 436 271 354L271 263 417 263C431 263 441 258 442 247 413 217 361 175 361 175L317 233 271 233 271 52C297 48 305 39 308 24Z"/>
</svg>