<svg xmlns="http://www.w3.org/2000/svg" name="gid6623" data-unicode="杁"
    viewBox="0 0 1000 1000">
  <!--
© 2017-2024 Adobe (http://www.adobe.com/).
Noto is a trademark of Google Inc.
This Font Software is licensed under the SIL Open Font License, Version 1.1. This Font Software is distributed on an "AS IS" BASIS, WITHOUT WARRANTIES OR CONDITIONS OF ANY KIND, either express or implied. See the SIL Open Font License for the specific language, permissions and limitations governing your use of this Font Software.
http://scripts.sil.org/OFL
  -->
<path d="M214 43L214 272 47 272 55 302 197 302C166 452 112 605 35 720L49 733C118 659 173 572 214 475L214 960 228 960C251 960 279 945 279 936L279 440C318 482 361 543 372 590 439 640 494 503 279 420L279 302 422 302C436 302 445 297 447 286 416 256 366 215 366 215L320 272 279 272 279 82C304 78 312 68 315 53ZM454 114L463 144 643 144 650 213C588 534 474 783 304 945L318 960C504 818 616 609 672 386 710 624 776 819 904 959 916 934 941 912 970 907L975 896C787 736 708 448 674 161 710 158 738 150 751 135L654 62 618 114Z"/>
</svg>