<svg xmlns="http://www.w3.org/2000/svg" name="gid6637" data-unicode="杔"
    viewBox="0 0 1000 1000">
  <!--
© 2017-2024 Adobe (http://www.adobe.com/).
Noto is a trademark of Google Inc.
This Font Software is licensed under the SIL Open Font License, Version 1.1. This Font Software is distributed on an "AS IS" BASIS, WITHOUT WARRANTIES OR CONDITIONS OF ANY KIND, either express or implied. See the SIL Open Font License for the specific language, permissions and limitations governing your use of this Font Software.
http://scripts.sil.org/OFL
  -->
<path d="M212 37L212 273 49 273 57 303 195 303C163 453 108 606 31 722L45 734C115 659 171 571 212 474L212 959 226 959C249 959 276 944 276 934L276 446C315 488 358 549 370 597 436 647 491 510 276 427L276 303 422 303C436 303 445 298 448 287 417 256 366 216 366 216L321 273 276 273 276 76C302 72 310 63 312 49ZM416 513L428 540 594 516 594 848C594 904 614 922 690 922L781 922C925 922 959 913 959 883 959 871 952 863 930 856L926 725 913 725C902 780 890 838 884 852 879 860 874 862 863 863 851 864 823 864 783 864L702 864C665 864 659 857 659 835L659 507 941 466C953 464 963 457 963 446 928 422 873 387 873 387L833 452 659 477 659 208 659 183C735 161 804 137 857 115 882 123 899 122 906 113L826 50C742 106 569 180 428 218L433 234C486 226 541 214 594 200L594 487Z"/>
</svg>