<svg xmlns="http://www.w3.org/2000/svg" name="gid6639" data-unicode="杖"
    viewBox="0 0 1000 1000">
  <!--
© 2017-2024 Adobe (http://www.adobe.com/).
Noto is a trademark of Google Inc.
This Font Software is licensed under the SIL Open Font License, Version 1.1. This Font Software is distributed on an "AS IS" BASIS, WITHOUT WARRANTIES OR CONDITIONS OF ANY KIND, either express or implied. See the SIL Open Font License for the specific language, permissions and limitations governing your use of this Font Software.
http://scripts.sil.org/OFL
  -->
<path d="M337 216L293 273 276 273 276 76C301 72 309 63 311 48L212 37 212 273 43 273 51 302 196 302C165 458 111 613 28 732L42 745C115 668 171 579 212 479L212 959 226 959C249 959 276 944 276 934L276 423C309 466 346 527 356 575 419 626 476 491 276 401L276 302 391 302C405 302 415 297 418 286 387 256 337 216 337 216ZM889 215L847 268 758 268 760 82C784 78 793 69 796 54L694 43 694 268 425 268 433 298 694 298C691 452 679 579 628 683 556 595 508 482 484 341L465 351C488 510 531 635 600 733 544 817 456 885 318 942L329 960C473 910 569 849 632 774 697 852 782 909 890 952 902 921 926 902 957 900L959 890C840 855 743 801 667 726 738 614 753 473 758 298L940 298C954 298 963 293 966 282 937 253 889 215 889 215Z"/>
</svg>