<svg xmlns="http://www.w3.org/2000/svg" name="gid6652" data-unicode="杪"
    viewBox="0 0 1000 1000">
  <!--
© 2017-2024 Adobe (http://www.adobe.com/).
Noto is a trademark of Google Inc.
This Font Software is licensed under the SIL Open Font License, Version 1.1. This Font Software is distributed on an "AS IS" BASIS, WITHOUT WARRANTIES OR CONDITIONS OF ANY KIND, either express or implied. See the SIL Open Font License for the specific language, permissions and limitations governing your use of this Font Software.
http://scripts.sil.org/OFL
  -->
<path d="M649 44L649 540C649 555 644 560 626 560 606 560 503 552 503 552L503 567C548 573 573 582 588 592 602 603 606 620 609 640 703 630 713 597 713 544L713 80C737 76 746 68 749 54ZM510 189C484 299 437 405 389 473L404 483C471 428 530 340 571 241 592 241 604 233 608 222ZM780 190L767 197C821 260 883 360 893 440 967 502 1028 325 780 190ZM829 505C737 746 562 873 355 942L360 959C592 912 777 801 887 566 909 572 919 568 926 557ZM210 43L210 272 49 272 57 301 197 301C169 451 118 599 38 714L51 727C119 655 172 572 210 481L210 956 224 956C247 956 274 941 274 932L274 454C306 496 342 555 354 599 416 649 472 524 274 433L274 301 406 301C420 301 429 296 432 285 402 255 353 215 353 215L309 272 274 272 274 82C300 78 308 68 310 53Z"/>
</svg>