<svg xmlns="http://www.w3.org/2000/svg" name="gid6670" data-unicode="极"
    viewBox="0 0 1000 1000">
  <!--
© 2017-2024 Adobe (http://www.adobe.com/).
Noto is a trademark of Google Inc.
This Font Software is licensed under the SIL Open Font License, Version 1.1. This Font Software is distributed on an "AS IS" BASIS, WITHOUT WARRANTIES OR CONDITIONS OF ANY KIND, either express or implied. See the SIL Open Font License for the specific language, permissions and limitations governing your use of this Font Software.
http://scripts.sil.org/OFL
  -->
<path d="M204 38L204 272 46 272 54 302 192 302C163 452 114 600 35 714L48 728C115 656 166 574 204 482L204 960 218 960C240 960 267 945 267 936L267 424C300 466 336 526 347 570 408 617 462 496 267 403L267 302 398 302C412 302 421 297 424 286 394 256 345 216 345 216L301 272 267 272 267 77C293 73 301 64 304 49ZM749 146L716 399 528 399C535 314 536 228 538 146ZM379 116L388 146 473 146C471 401 468 705 309 942L327 958C458 806 506 618 525 429L550 429C573 555 613 660 670 746 602 825 515 891 409 940L419 956C535 913 627 856 699 787 754 858 823 915 907 959 920 929 944 911 972 910L975 900C884 864 804 812 739 745 819 655 871 551 907 438 930 437 941 434 949 425L877 359 834 399 780 399 814 152C831 150 839 147 846 139L777 81 745 116ZM837 429C809 529 765 622 704 704 642 629 597 537 571 429Z"/>
</svg>