<svg xmlns="http://www.w3.org/2000/svg"
    viewBox="0 0 1000 1000">
  <!--
© 2017-2024 Adobe (http://www.adobe.com/).
Noto is a trademark of Google Inc.
This Font Software is licensed under the SIL Open Font License, Version 1.1. This Font Software is distributed on an "AS IS" BASIS, WITHOUT WARRANTIES OR CONDITIONS OF ANY KIND, either express or implied. See the SIL Open Font License for the specific language, permissions and limitations governing your use of this Font Software.
http://scripts.sil.org/OFL
  -->
<path d="M357 428L365 457 499 457C492 619 456 781 314 916L327 928C510 804 554 625 563 457L734 457 734 930 745 930C777 930 798 914 798 909L798 457 947 457C961 457 969 452 972 441 942 410 892 367 892 367L847 428 798 428 798 119 923 119C936 119 946 114 949 103 916 73 864 31 864 31L818 90 374 90 381 119 501 119 501 377 500 428ZM565 119L734 119 734 428 564 428 565 376ZM194 14L194 248 44 248 52 277 181 277C156 425 106 571 30 686L44 700C108 630 158 550 194 462L194 928 208 928C231 928 258 913 258 904L258 429C289 470 325 525 337 568 397 614 450 494 258 409L258 277 389 277C402 277 412 272 415 261 384 231 335 189 335 189L291 248 258 248 258 53C284 49 291 40 294 25Z"/>
</svg>