<svg xmlns="http://www.w3.org/2000/svg" name="gid6703" data-unicode="枴"
    viewBox="0 0 1000 1000">
  <!--
© 2017-2024 Adobe (http://www.adobe.com/).
Noto is a trademark of Google Inc.
This Font Software is licensed under the SIL Open Font License, Version 1.1. This Font Software is distributed on an "AS IS" BASIS, WITHOUT WARRANTIES OR CONDITIONS OF ANY KIND, either express or implied. See the SIL Open Font License for the specific language, permissions and limitations governing your use of this Font Software.
http://scripts.sil.org/OFL
  -->
<path d="M421 503L430 532 580 532C559 712 493 844 327 943L336 957C535 870 622 736 652 532L853 532C843 719 825 839 799 863 789 872 780 874 762 874 742 874 674 869 634 864L634 882C669 888 708 898 722 907 736 917 740 935 740 953 779 953 817 943 841 919 884 880 907 752 916 540 937 537 950 532 956 525L881 463 843 503ZM206 44L206 272 45 272 53 302 193 302C164 452 114 601 34 714L48 728C116 656 168 573 206 482L206 957 220 957C243 957 270 942 270 933L270 448C302 490 338 549 350 593 412 642 468 517 270 426L270 302 402 302C416 302 425 297 428 286 398 256 349 216 349 216L305 272 270 272 270 83C296 79 304 69 306 54ZM461 102L461 435 470 435C503 435 523 421 523 415L523 373 824 373 824 422 834 422C864 422 889 407 889 403L889 135C908 132 918 126 924 118L853 64 820 102 534 102 461 70ZM523 344L523 131 824 131 824 344Z"/>
</svg>