<svg xmlns="http://www.w3.org/2000/svg" name="gid6723" data-unicode="柎"
    viewBox="0 0 1000 1000">
  <!--
© 2017-2024 Adobe (http://www.adobe.com/).
Noto is a trademark of Google Inc.
This Font Software is licensed under the SIL Open Font License, Version 1.1. This Font Software is distributed on an "AS IS" BASIS, WITHOUT WARRANTIES OR CONDITIONS OF ANY KIND, either express or implied. See the SIL Open Font License for the specific language, permissions and limitations governing your use of this Font Software.
http://scripts.sil.org/OFL
  -->
<path d="M603 431L590 437C624 492 663 575 666 641 726 700 791 556 603 431ZM530 48C501 182 432 366 336 492 316 474 288 455 251 437L251 306 378 306C392 306 401 301 404 290 373 259 324 218 324 218L281 276 251 276 251 81C276 77 284 68 287 53L188 43 188 276 42 276 50 306 175 306C150 455 103 600 26 714L40 727C104 658 152 580 188 493L188 956 201 956C225 956 251 942 251 932L251 458C281 499 316 556 327 599 371 634 412 575 349 505 389 468 424 425 456 380L456 955 467 955C492 955 517 938 518 932L518 334C535 332 545 325 549 317L506 300C545 231 576 161 597 101 623 103 632 96 636 85ZM798 55L798 321 566 321 574 350 798 350 798 852C798 868 793 874 774 874 754 874 654 866 654 866L654 882C698 888 724 896 738 907 751 917 756 935 759 954 851 945 862 911 862 858L862 350 948 350C962 350 970 345 973 334 946 306 899 265 899 265L862 316 862 93C886 90 896 80 898 66Z"/>
</svg>