<svg xmlns="http://www.w3.org/2000/svg" name="gid6727" data-unicode="柒"
    viewBox="0 0 1000 1000">
  <!--
© 2017-2024 Adobe (http://www.adobe.com/).
Noto is a trademark of Google Inc.
This Font Software is licensed under the SIL Open Font License, Version 1.1. This Font Software is distributed on an "AS IS" BASIS, WITHOUT WARRANTIES OR CONDITIONS OF ANY KIND, either express or implied. See the SIL Open Font License for the specific language, permissions and limitations governing your use of this Font Software.
http://scripts.sil.org/OFL
  -->
<path d="M78 176L70 186C108 205 150 245 164 280 230 316 269 186 78 176ZM151 57L141 67C182 89 229 131 245 168 311 200 340 70 151 57ZM147 388C136 388 96 388 96 388L96 410C115 411 128 414 142 420 164 430 169 465 160 535 164 555 175 567 190 567 223 567 240 549 242 519 243 474 222 449 222 423 221 407 233 385 247 363 265 335 381 179 427 114L411 105C200 349 200 349 177 372 163 387 161 388 147 388ZM620 55L523 45 523 257 335 294 348 320 523 286 523 420C523 473 540 489 623 489L736 489C900 489 934 479 934 447 934 434 927 427 904 419L901 309 890 309C878 357 867 403 859 416 854 424 850 427 838 428 823 429 786 429 739 429L634 429C593 429 588 424 588 406L588 273 911 209C923 207 933 199 933 189 897 166 837 133 837 133L801 202 588 244 588 80C608 78 618 68 620 55ZM858 547L808 610 531 610 531 537C556 534 566 525 568 511L464 499 464 610 57 610 65 640 389 640C308 748 181 850 37 917L46 934C218 872 367 779 464 661L464 958 476 958C502 958 531 944 531 936L531 640 538 640C617 771 753 868 899 919 907 886 931 864 960 859L961 848C817 816 656 739 564 640L923 640C937 640 947 635 950 624 915 591 858 547 858 547Z"/>
</svg>