<svg xmlns="http://www.w3.org/2000/svg" name="gid6740" data-unicode="柤"
    viewBox="0 0 1000 1000">
  <!--
© 2017-2024 Adobe (http://www.adobe.com/).
Noto is a trademark of Google Inc.
This Font Software is licensed under the SIL Open Font License, Version 1.1. This Font Software is distributed on an "AS IS" BASIS, WITHOUT WARRANTIES OR CONDITIONS OF ANY KIND, either express or implied. See the SIL Open Font License for the specific language, permissions and limitations governing your use of this Font Software.
http://scripts.sil.org/OFL
  -->
<path d="M462 119L462 895 344 895 352 923 953 923C966 923 976 918 978 908 951 879 904 839 904 839L862 895 862 160C886 156 901 151 907 142L821 74 786 119 536 119 462 87ZM525 895L525 655 797 655 797 895ZM525 396L797 396 797 627 525 627ZM525 368L525 149 797 149 797 368ZM213 44L213 274 48 274 56 304 198 304C168 454 114 602 33 716L46 729C118 655 173 569 213 473L213 957 227 957C250 957 277 942 277 933L277 432C310 473 349 531 361 575 421 620 474 500 277 410L277 304 403 304C417 304 426 299 429 288 400 258 352 217 352 217L309 274 277 274 277 82C303 78 310 69 312 54Z"/>
</svg>