<svg xmlns="http://www.w3.org/2000/svg"
    viewBox="0 0 1000 1000">
  <!--
© 2017-2023 Adobe (http://www.adobe.com/).
Noto is a trademark of Google Inc.
This Font Software is licensed under the SIL Open Font License, Version 1.1. This Font Software is distributed on an "AS IS" BASIS, WITHOUT WARRANTIES OR CONDITIONS OF ANY KIND, either express or implied. See the SIL Open Font License for the specific language, permissions and limitations governing your use of this Font Software.
http://scripts.sil.org/OFL
  -->
<path d="M371 113L379 142 803 142 803 828C803 844 797 851 774 851 750 851 628 843 628 843L628 858C682 863 711 871 730 883 745 893 752 908 754 927 853 918 867 881 867 830L867 142 946 142C960 142 969 137 972 126 940 95 888 54 888 54L840 113ZM420 300L420 710 430 710C455 710 480 695 480 689L480 613 627 613 627 684 636 684C657 684 688 670 689 664L689 342C709 338 725 330 732 322L653 262 618 300 485 300 420 271ZM480 584L480 330 627 330 627 584ZM333 566C392 612 447 492 256 406L256 277 381 277C395 277 405 272 407 261 377 231 326 190 326 190L283 248 256 248 256 53C282 49 290 40 293 25L192 14 192 248 47 248 55 277 180 277C153 426 104 572 25 686L39 700C104 630 155 549 192 461L192 927 206 927C230 927 256 913 256 903L256 424C286 465 322 522 333 566Z"/>
</svg>