<svg xmlns="http://www.w3.org/2000/svg" name="gid6750" data-unicode="柳"
    viewBox="0 0 1000 1000">
  <!--
© 2017-2024 Adobe (http://www.adobe.com/).
Noto is a trademark of Google Inc.
This Font Software is licensed under the SIL Open Font License, Version 1.1. This Font Software is distributed on an "AS IS" BASIS, WITHOUT WARRANTIES OR CONDITIONS OF ANY KIND, either express or implied. See the SIL Open Font License for the specific language, permissions and limitations governing your use of this Font Software.
http://scripts.sil.org/OFL
  -->
<path d="M680 129L680 958 689 958C718 958 738 942 738 936L738 159 861 159 861 677C861 690 857 696 844 696 829 696 768 690 768 690L768 705C798 710 815 717 824 727 834 737 837 754 839 772 913 764 922 735 922 684L922 171C942 167 958 159 964 151L883 90 851 129 748 129 680 100ZM562 55C535 79 490 110 447 136L376 120 376 684C344 693 315 701 293 705L333 781C343 777 350 769 353 756 427 720 488 684 537 653 516 772 458 870 324 944L336 958C553 864 604 712 606 532L606 232C630 228 638 219 640 205L546 195 546 531C546 565 544 598 540 629 506 642 470 654 437 665L437 172C496 154 568 129 608 110 623 116 635 115 641 107ZM173 44L173 278 41 278 49 307 159 307C137 452 97 597 30 712L45 724C100 655 142 577 173 492L173 957 186 957C209 957 235 942 235 932L235 413C263 452 294 506 303 546 360 591 412 477 235 389L235 307 351 307C364 307 373 302 376 291 347 262 300 222 300 222L258 278 235 278 235 83C260 79 268 70 270 55Z"/>
</svg>