<svg xmlns="http://www.w3.org/2000/svg"
    viewBox="0 0 1000 1000">
  <!--
© 2017-2024 Adobe (http://www.adobe.com/).
Noto is a trademark of Google Inc.
This Font Software is licensed under the SIL Open Font License, Version 1.1. This Font Software is distributed on an "AS IS" BASIS, WITHOUT WARRANTIES OR CONDITIONS OF ANY KIND, either express or implied. See the SIL Open Font License for the specific language, permissions and limitations governing your use of this Font Software.
http://scripts.sil.org/OFL
  -->
<path d="M209 8L209 244 46 244 54 274 196 274C167 424 117 573 37 687L51 700C119 628 171 545 209 454L209 930 223 930C246 930 273 915 273 905L273 427C305 469 341 528 353 572 415 622 471 497 273 406L273 274 405 274C419 274 428 269 431 258 401 228 352 188 352 188L308 244 273 244 273 47C299 43 307 34 310 19ZM440 88L440 503 450 503C482 503 503 489 503 483L503 448 540 448C537 645 529 797 312 910L325 926C582 821 600 663 607 448L707 448 707 842C707 886 718 904 780 904L843 904C948 904 974 892 974 866 974 852 968 845 949 838L945 747 934 747C925 785 915 827 909 836 905 842 901 844 894 844 886 844 868 844 845 844L795 844C773 844 771 840 771 826L771 448 827 448 827 494 838 494C868 494 893 479 893 475L893 122C913 119 924 114 930 105L857 50 824 88 515 88 440 57ZM707 419L503 419 503 118 827 118 827 419Z"/>
</svg>