<svg xmlns="http://www.w3.org/2000/svg" name="gid6759" data-unicode="柾"
    viewBox="0 0 1000 1000">
  <!--
© 2017-2024 Adobe (http://www.adobe.com/).
Noto is a trademark of Google Inc.
This Font Software is licensed under the SIL Open Font License, Version 1.1. This Font Software is distributed on an "AS IS" BASIS, WITHOUT WARRANTIES OR CONDITIONS OF ANY KIND, either express or implied. See the SIL Open Font License for the specific language, permissions and limitations governing your use of this Font Software.
http://scripts.sil.org/OFL
  -->
<path d="M203 44L203 274 46 274 54 304 190 304C161 453 112 601 35 716L48 729C114 657 165 573 203 481L203 957 217 957C240 957 267 942 267 933L267 457C300 499 338 556 350 600 411 646 462 524 267 436L267 304 397 304C411 304 421 299 423 288 395 258 347 217 347 217L304 274 267 274 267 82C293 78 301 69 304 54ZM447 352L447 887 330 887 338 916 936 916C950 916 960 912 963 901 930 870 877 827 877 827L829 887 702 887 702 513 905 513C919 513 929 509 932 498 900 467 847 425 847 425L801 484 702 484 702 175 914 175C928 175 937 170 940 159 909 128 858 86 858 86L813 145 384 145 392 175 636 175 636 887 511 887 511 389C533 385 543 377 545 363Z"/>
</svg>