<svg xmlns="http://www.w3.org/2000/svg"
    viewBox="0 0 1000 1000">
  <!--
© 2017-2024 Adobe (http://www.adobe.com/).
Noto is a trademark of Google Inc.
This Font Software is licensed under the SIL Open Font License, Version 1.1. This Font Software is distributed on an "AS IS" BASIS, WITHOUT WARRANTIES OR CONDITIONS OF ANY KIND, either express or implied. See the SIL Open Font License for the specific language, permissions and limitations governing your use of this Font Software.
http://scripts.sil.org/OFL
  -->
<path d="M564 176L553 183C591 223 639 290 652 342 718 391 773 256 564 176ZM555 496L544 503C585 545 637 613 651 666 718 716 773 578 555 496ZM342 416L350 446 418 446C407 577 394 710 381 819 420 825 435 823 450 812L455 759 782 759C776 797 769 822 759 832 749 843 743 846 723 846 703 846 645 840 607 837L606 855C641 861 677 870 689 881 702 891 704 909 704 928 747 928 787 914 812 878 826 858 836 819 844 759L951 759C964 759 973 754 976 743 948 714 899 673 899 673L857 731 847 731C855 661 859 567 862 446L947 446C961 446 969 441 972 430 948 399 902 353 902 353L863 416 866 130C889 127 901 121 908 113L832 48 794 92 520 92 446 58C442 149 432 279 421 416ZM483 446L801 446C798 570 793 666 786 731L458 731C466 644 475 544 483 446ZM485 416C493 303 501 196 505 121L806 121 802 416ZM329 560C385 605 436 490 253 400L253 277 384 277C397 277 407 272 410 261 379 231 329 190 329 190L285 248 253 248 253 52C279 48 287 39 290 24L190 14 190 248 42 248 50 277 178 277C153 425 105 571 29 686L43 700C106 631 155 552 190 466L190 927 204 927C227 927 253 912 253 903L253 419C283 460 318 517 329 560Z"/>
</svg>