<svg xmlns="http://www.w3.org/2000/svg" name="gid6763" data-unicode="栃"
    viewBox="0 0 1000 1000">
  <!--
© 2017-2024 Adobe (http://www.adobe.com/).
Noto is a trademark of Google Inc.
This Font Software is licensed under the SIL Open Font License, Version 1.1. This Font Software is distributed on an "AS IS" BASIS, WITHOUT WARRANTIES OR CONDITIONS OF ANY KIND, either express or implied. See the SIL Open Font License for the specific language, permissions and limitations governing your use of this Font Software.
http://scripts.sil.org/OFL
  -->
<path d="M431 117L431 419C431 604 415 794 296 946L311 958C477 810 493 593 493 419L493 325 629 325C624 578 589 779 423 946L434 958C591 843 654 697 681 514L832 514C826 709 815 836 791 860 782 868 774 870 755 870 735 870 667 864 627 861L627 878C663 883 703 894 717 903 731 914 734 932 734 952 774 952 811 940 835 917 876 878 892 745 898 523 918 520 930 515 937 508L860 444 823 486 685 486C691 435 695 382 698 325L937 325C951 325 961 320 963 310 931 279 879 238 879 238L833 296 493 296 493 164C629 160 778 141 876 120 900 131 919 130 929 122L846 43C770 77 628 119 503 141ZM191 41L191 278 42 278 50 307 178 307C153 456 105 601 29 716L43 730C107 661 155 582 191 495L191 958 204 958C228 958 255 943 255 934L255 435C286 475 320 531 332 576 390 621 445 502 255 414L255 307 384 307C397 307 407 302 410 291 379 261 330 220 330 220L286 278 255 278 255 80C281 76 288 67 291 52Z"/>
</svg>