<svg xmlns="http://www.w3.org/2000/svg"
    viewBox="0 0 1000 1000">
  <!--
© 2017-2024 Adobe (http://www.adobe.com/).
Noto is a trademark of Google Inc.
This Font Software is licensed under the SIL Open Font License, Version 1.1. This Font Software is distributed on an "AS IS" BASIS, WITHOUT WARRANTIES OR CONDITIONS OF ANY KIND, either express or implied. See the SIL Open Font License for the specific language, permissions and limitations governing your use of this Font Software.
http://scripts.sil.org/OFL
  -->
<path d="M428 83L435 112 831 112C845 112 855 107 857 96 825 65 772 23 772 23L725 83ZM191 9L191 248 48 248 56 277 178 277C153 426 105 571 29 686L43 700C107 631 155 552 191 465L191 927 204 927C228 927 255 911 255 903L255 430C286 471 320 527 332 571 390 617 445 498 255 410L255 277 382 277C396 277 406 272 409 261 379 231 328 190 328 190L285 248 255 248 255 47C281 43 288 34 291 20ZM362 407L371 436 512 436C487 580 426 731 315 829L326 844C475 745 545 591 579 442 600 441 610 438 618 429L547 368 508 407ZM443 240L449 270 640 270 640 826C640 842 635 848 617 848 596 848 495 840 495 840L495 856C540 862 564 870 579 880 592 890 598 906 601 926 692 917 703 884 703 834L703 391C739 612 810 735 913 833 924 802 944 780 971 776L973 766C893 712 818 637 765 517 824 468 885 404 919 366 938 372 952 365 956 357L872 300C849 347 799 434 757 498 734 442 715 377 703 300L703 284C723 280 741 271 748 262L663 199 630 240Z"/>
</svg>