<svg xmlns="http://www.w3.org/2000/svg" name="gid6776" data-unicode="校"
    viewBox="0 0 1000 1000">
  <!--
© 2017-2024 Adobe (http://www.adobe.com/).
Noto is a trademark of Google Inc.
This Font Software is licensed under the SIL Open Font License, Version 1.1. This Font Software is distributed on an "AS IS" BASIS, WITHOUT WARRANTIES OR CONDITIONS OF ANY KIND, either express or implied. See the SIL Open Font License for the specific language, permissions and limitations governing your use of this Font Software.
http://scripts.sil.org/OFL
  -->
<path d="M734 289L723 298C787 344 872 425 900 488 975 528 1006 371 734 289ZM542 276C513 342 450 436 384 494L394 507C477 462 554 388 596 331 618 335 626 330 633 320ZM628 49L628 208 385 208 393 238 938 238C952 238 962 233 964 222 932 191 880 149 880 149L832 208 693 208 693 85C715 81 723 72 725 59ZM539 453L518 463C543 563 581 650 631 724 560 812 462 889 327 945L336 958C480 911 585 844 662 767 731 852 817 916 916 957 921 925 942 902 972 892L974 881C872 851 777 799 700 725 760 653 799 575 825 495 844 497 858 491 864 478L767 444C746 526 712 608 661 683 606 620 564 543 539 453ZM200 44L200 281 47 281 55 310 186 310C157 459 106 605 23 717L37 731C107 661 161 580 200 489L200 957 214 957C238 957 264 942 264 933L264 441C299 485 338 548 349 597 411 645 464 514 264 420L264 310 405 310C419 310 428 305 431 294 399 264 349 223 349 223L303 281 264 281 264 82C290 78 298 69 300 54Z"/>
</svg>