<svg xmlns="http://www.w3.org/2000/svg"
    viewBox="0 0 1000 1000">
  <!--
© 2017-2023 Adobe (http://www.adobe.com/).
Noto is a trademark of Google Inc.
This Font Software is licensed under the SIL Open Font License, Version 1.1. This Font Software is distributed on an "AS IS" BASIS, WITHOUT WARRANTIES OR CONDITIONS OF ANY KIND, either express or implied. See the SIL Open Font License for the specific language, permissions and limitations governing your use of this Font Software.
http://scripts.sil.org/OFL
  -->
<path d="M177 14L177 247 43 247 51 276 161 276C140 421 100 566 32 680L46 693C102 626 145 550 177 467L177 927 190 927C214 927 240 912 240 903L240 408C268 448 301 503 310 546 369 592 423 474 240 386L240 276 358 276C372 276 380 271 383 260 354 231 307 190 307 190L264 247 240 247 240 52C265 48 273 39 276 24ZM507 410C472 505 397 642 315 731L326 743C426 668 510 554 559 469L559 820C559 836 554 843 535 843 514 843 411 835 411 835L411 851C456 857 482 866 496 875 510 886 515 903 518 923 611 914 622 880 622 828L622 121C641 118 658 109 665 101L581 38 549 80 346 80 355 109 559 109 559 195 498 165C470 237 408 343 344 413L356 424C435 367 510 284 552 221L559 222 559 433ZM806 409C774 500 703 633 628 721L639 733C730 660 809 553 855 474L855 820C855 836 850 843 831 843 811 843 709 835 709 835L709 851C754 857 779 866 794 875 807 886 813 904 816 924 908 914 918 880 918 828L918 121C938 118 955 109 962 101L878 38 845 80 665 80 674 109 855 109 855 187 800 159C772 231 713 341 651 413L664 424C742 365 814 279 853 215L855 215 855 431Z"/>
</svg>