<svg xmlns="http://www.w3.org/2000/svg" name="gid6790" data-unicode="栴"
    viewBox="0 0 1000 1000">
  <!--
© 2017-2024 Adobe (http://www.adobe.com/).
Noto is a trademark of Google Inc.
This Font Software is licensed under the SIL Open Font License, Version 1.1. This Font Software is distributed on an "AS IS" BASIS, WITHOUT WARRANTIES OR CONDITIONS OF ANY KIND, either express or implied. See the SIL Open Font License for the specific language, permissions and limitations governing your use of this Font Software.
http://scripts.sil.org/OFL
  -->
<path d="M519 40C488 183 427 317 359 402L372 412C401 389 428 363 454 332L454 619 360 619 368 648 454 648 454 959 464 959C492 959 516 944 516 936L516 648 816 648 816 853C816 869 812 874 793 874 772 874 669 867 669 867L669 883C714 889 740 897 754 907 768 917 773 935 776 955 870 945 880 912 880 861L880 648 961 648C974 648 983 644 986 633 961 605 918 566 918 566L880 619 880 398C900 393 916 385 922 378L839 315 807 356 521 356 459 326C485 294 510 258 531 218L933 218C948 218 957 213 960 202 928 172 876 129 876 129L830 189 546 189C561 158 575 126 587 92 609 93 621 84 625 72ZM516 619L516 385 633 385 633 619ZM816 619L692 619 692 385 816 385ZM194 43L194 278 42 278 50 307 182 307C155 456 105 602 25 716L38 730C105 659 156 578 194 489L194 956 208 956C231 956 258 941 258 932L258 430C289 471 323 527 335 571 394 617 448 498 258 410L258 307 383 307C397 307 406 302 409 291 378 261 329 220 329 220L286 278 258 278 258 81C284 77 291 68 294 53Z"/>
</svg>