<svg xmlns="http://www.w3.org/2000/svg" name="gid6802" data-unicode="桄"
    viewBox="0 0 1000 1000">
  <!--
© 2017-2024 Adobe (http://www.adobe.com/).
Noto is a trademark of Google Inc.
This Font Software is licensed under the SIL Open Font License, Version 1.1. This Font Software is distributed on an "AS IS" BASIS, WITHOUT WARRANTIES OR CONDITIONS OF ANY KIND, either express or implied. See the SIL Open Font License for the specific language, permissions and limitations governing your use of this Font Software.
http://scripts.sil.org/OFL
  -->
<path d="M415 114L401 119C436 184 479 283 485 357 545 415 602 269 415 114ZM846 103C828 165 784 284 749 363L761 369C818 303 877 212 907 160 928 163 941 152 943 143ZM617 44L617 439 362 439 370 468 522 468C518 634 502 807 315 945L329 960C558 831 584 651 593 468L694 468 694 872C694 917 704 934 767 934L833 934C942 934 968 922 968 896 968 882 964 875 944 867L941 737 928 737C918 790 907 849 901 863 897 872 894 874 886 874 878 875 859 875 834 875L782 875C759 875 757 871 757 856L757 468 937 468C951 468 960 463 963 452 930 421 878 379 878 379L830 439 681 439 681 82C706 78 715 68 717 54ZM204 37L204 274 46 274 54 303 191 303C163 453 112 603 34 719L48 732C115 659 166 575 204 482L204 959 218 959C241 959 268 944 268 934L268 457C301 498 339 555 351 599 412 645 463 524 268 435L268 303 396 303C410 303 419 298 422 287 393 257 345 216 345 216L303 274 268 274 268 76C294 72 302 63 304 49Z"/>
</svg>