<svg xmlns="http://www.w3.org/2000/svg" name="gid6809" data-unicode="桍"
    viewBox="0 0 1000 1000">
  <!--
© 2017-2024 Adobe (http://www.adobe.com/).
Noto is a trademark of Google Inc.
This Font Software is licensed under the SIL Open Font License, Version 1.1. This Font Software is distributed on an "AS IS" BASIS, WITHOUT WARRANTIES OR CONDITIONS OF ANY KIND, either express or implied. See the SIL Open Font License for the specific language, permissions and limitations governing your use of this Font Software.
http://scripts.sil.org/OFL
  -->
<path d="M492 402L500 431 780 431C794 431 804 426 806 415 778 388 733 352 733 352L693 402ZM596 41C587 90 574 140 555 189L376 189 384 219 542 219C501 313 438 401 349 460L358 474C477 416 557 320 609 219L711 219C751 327 829 414 921 469 930 439 947 421 972 416L974 406C882 371 786 303 736 219L934 219C948 219 958 214 960 203 929 173 877 131 877 131L831 189 624 189C639 154 652 119 662 85 688 85 696 78 701 67ZM406 526L414 556 528 556C511 615 478 705 455 746 482 756 508 757 521 748L547 682 787 682C774 784 750 855 726 873 716 880 706 882 689 882 669 882 604 877 567 874L567 891C601 896 634 904 647 913 661 923 664 940 664 958 702 958 737 949 762 931 804 901 835 815 850 690 870 688 883 683 890 675L817 616 780 653 558 653 593 556 899 556C912 556 921 551 924 540 893 510 843 472 843 472L798 526ZM193 43L193 278 44 278 52 307 181 307C156 456 108 601 31 716L45 730C109 661 157 582 193 495L193 956 207 956C231 956 257 941 257 932L257 459C287 500 322 557 334 601 393 647 448 528 257 440L257 307 386 307C400 307 410 302 413 291 382 261 332 220 332 220L288 278 257 278 257 81C283 77 291 68 293 53Z"/>
</svg>