<svg xmlns="http://www.w3.org/2000/svg" name="gid6813" data-unicode="桒"
    viewBox="0 0 1000 1000">
  <!--
© 2017-2024 Adobe (http://www.adobe.com/).
Noto is a trademark of Google Inc.
This Font Software is licensed under the SIL Open Font License, Version 1.1. This Font Software is distributed on an "AS IS" BASIS, WITHOUT WARRANTIES OR CONDITIONS OF ANY KIND, either express or implied. See the SIL Open Font License for the specific language, permissions and limitations governing your use of this Font Software.
http://scripts.sil.org/OFL
  -->
<path d="M464 42L464 163 132 163 140 191 464 191 464 323 476 323C502 323 531 310 531 303L531 191 843 191C857 191 866 186 869 176 838 147 788 107 788 107L745 163 531 163 531 80C556 76 566 67 568 52ZM689 258L689 386 305 386 305 296C330 292 340 283 342 268L239 258 239 386 38 386 46 415 239 415 239 547 251 547C277 547 305 533 305 526L305 415 689 415 689 547 701 547C727 547 756 533 756 526L756 415 938 415C951 415 961 410 962 399 932 370 881 329 881 329L836 386 756 386 756 296C781 292 790 283 793 268ZM464 476L464 602 41 602 50 631 407 631C324 744 192 851 40 920L49 936C218 877 365 788 464 674L464 957 476 957C502 957 531 942 531 934L531 631 536 631C619 770 759 875 909 931 918 898 942 876 970 871L971 860C823 824 657 739 563 631L933 631C947 631 956 626 959 615 923 583 866 539 866 539L816 602 531 602 531 515C556 512 566 502 568 488Z"/>
</svg>