<svg xmlns="http://www.w3.org/2000/svg" name="gid6831" data-unicode="桲"
    viewBox="0 0 1000 1000">
  <!--
© 2017-2024 Adobe (http://www.adobe.com/).
Noto is a trademark of Google Inc.
This Font Software is licensed under the SIL Open Font License, Version 1.1. This Font Software is distributed on an "AS IS" BASIS, WITHOUT WARRANTIES OR CONDITIONS OF ANY KIND, either express or implied. See the SIL Open Font License for the specific language, permissions and limitations governing your use of this Font Software.
http://scripts.sil.org/OFL
  -->
<path d="M430 292C433 340 409 394 382 415 364 428 354 449 364 466 375 486 407 481 425 464 443 446 458 410 457 360L857 360 827 452 807 434 766 473 457 473 466 503 755 503C733 531 704 565 676 592L619 586 619 675 356 675 364 704 619 704 619 861C619 875 614 880 597 880 578 880 482 873 482 873L482 889C524 895 548 903 561 913 575 924 580 941 582 961 672 952 683 920 683 866L683 704 947 704C961 704 970 700 973 689 941 658 887 617 887 617L841 675 683 675 683 622C705 618 714 611 716 597L707 596C755 569 806 534 840 509 861 509 872 508 881 500L841 464C869 440 908 397 929 371 949 370 960 368 967 361L894 290 854 331 683 331 683 209 937 209C951 209 961 204 963 193 931 163 878 122 878 122L832 180 683 180 683 87C708 83 717 73 719 59L619 49 619 180 383 180 391 209 619 209 619 331 455 331C453 319 451 306 447 292ZM202 37L202 274 48 274 56 303 189 303C159 452 108 600 27 716L42 729C111 656 163 571 202 478L202 959 216 959C239 959 266 944 266 934L266 455C298 496 334 555 346 598 406 646 459 525 266 433L266 303 393 303C407 303 416 298 419 287 390 257 342 217 342 217L299 274 266 274 266 76C292 72 299 63 302 48Z"/>
</svg>