<svg xmlns="http://www.w3.org/2000/svg" name="gid6834" data-unicode="桶"
    viewBox="0 0 1000 1000">
  <!--
© 2017-2024 Adobe (http://www.adobe.com/).
Noto is a trademark of Google Inc.
This Font Software is licensed under the SIL Open Font License, Version 1.1. This Font Software is distributed on an "AS IS" BASIS, WITHOUT WARRANTIES OR CONDITIONS OF ANY KIND, either express or implied. See the SIL Open Font License for the specific language, permissions and limitations governing your use of this Font Software.
http://scripts.sil.org/OFL
  -->
<path d="M625 343L625 485 470 485 470 343ZM686 343L850 343 850 485 686 485ZM522 168L513 179C574 207 649 262 681 315L482 315 408 282 408 953 418 953C449 953 470 937 470 931L470 686 625 686 625 940 634 940C665 940 686 926 686 920L686 686 850 686 850 850C850 864 846 870 830 870 812 870 733 863 733 863L733 879C769 884 790 893 802 903 813 914 819 932 820 952 903 943 913 910 913 857L913 356C933 353 950 343 957 336L874 274 840 315 732 315C739 298 734 271 708 244 769 211 849 167 893 139 915 138 927 137 935 129L859 56 815 99 404 99 413 128 796 128 690 227C656 201 603 178 522 168ZM625 515L625 657 470 657 470 515ZM686 515L850 515 850 657 686 657ZM195 43L195 278 44 278 52 307 182 307C156 456 106 602 26 716L39 730C106 659 157 578 195 489L195 956 208 956C232 956 259 941 259 932L259 440C290 480 325 536 336 579 394 625 449 506 259 418L259 307 378 307C391 307 401 302 404 291 374 261 324 220 324 220L280 278 259 278 259 81C284 77 292 68 295 53Z"/>
</svg>