<svg xmlns="http://www.w3.org/2000/svg" name="gid6844" data-unicode="梃"
    viewBox="0 0 1000 1000">
  <!--
© 2017-2024 Adobe (http://www.adobe.com/).
Noto is a trademark of Google Inc.
This Font Software is licensed under the SIL Open Font License, Version 1.1. This Font Software is distributed on an "AS IS" BASIS, WITHOUT WARRANTIES OR CONDITIONS OF ANY KIND, either express or implied. See the SIL Open Font License for the specific language, permissions and limitations governing your use of this Font Software.
http://scripts.sil.org/OFL
  -->
<path d="M176 44L176 275 45 275 53 304 161 304C136 451 93 599 21 715L36 727C96 656 142 575 176 485L176 958 189 958C212 958 239 943 239 934L239 421C266 463 293 518 297 562 354 611 413 489 239 396L239 304 351 304C365 304 374 299 376 288 349 259 301 219 301 219L260 275 239 275 239 83C263 79 271 70 274 55ZM413 564L439 522 400 513 394 560C373 583 336 618 315 636L368 688C372 682 375 675 369 667 378 649 391 618 402 593 413 642 425 685 440 722 404 808 348 883 262 943L273 957C363 910 425 849 468 779 536 898 639 932 791 932 826 932 899 932 931 932 932 904 945 881 968 876L968 863C923 864 837 864 798 864 654 864 556 839 488 744 537 649 558 541 571 429 580 428 586 427 591 425L714 425 714 705 561 705 569 734 929 734C943 734 953 729 955 718 925 689 876 649 876 649L833 705 777 705 777 425 943 425C957 425 966 420 968 409 938 379 889 339 889 339L845 395 777 395 777 165C823 152 864 138 897 125 921 133 938 131 947 123L862 55C794 103 658 165 543 197L548 213C603 206 660 195 714 182L714 395 586 395 536 351 497 391 432 391C468 305 505 208 526 150 548 148 566 143 574 135L499 71 464 109 326 109 335 138 464 138C431 228 381 360 336 461 365 471 383 472 399 466L419 420 504 420C497 514 483 604 454 685 438 652 425 612 412 566Z"/>
</svg>