<svg xmlns="http://www.w3.org/2000/svg"
    viewBox="0 0 1000 1000">
  <!--
© 2017-2023 Adobe (http://www.adobe.com/).
Noto is a trademark of Google Inc.
This Font Software is licensed under the SIL Open Font License, Version 1.1. This Font Software is distributed on an "AS IS" BASIS, WITHOUT WARRANTIES OR CONDITIONS OF ANY KIND, either express or implied. See the SIL Open Font License for the specific language, permissions and limitations governing your use of this Font Software.
http://scripts.sil.org/OFL
  -->
<path d="M518 13C488 137 429 272 364 351L378 361C411 334 442 301 470 264 465 327 456 413 446 503L371 503C354 474 318 441 253 411L253 279 379 279C392 279 402 274 405 263 375 232 325 192 325 192L281 249 253 249 253 50C279 46 287 37 289 22L190 11 190 249 45 249 53 279 178 279C151 429 102 575 22 688L36 702C102 632 153 552 190 463L190 928 204 928C227 928 253 913 253 904L253 430C282 470 317 526 329 568 360 593 390 571 382 532L442 532C431 633 418 737 405 821 439 827 455 825 470 815L477 760 784 760C777 799 768 824 758 834 748 844 741 846 721 846 700 846 636 840 598 836L596 855C631 861 670 869 684 880 696 890 700 908 700 926 741 927 779 914 804 883 822 863 835 823 845 760L943 760C957 760 966 755 968 744 942 717 898 679 898 679L860 731 850 731C857 678 862 612 866 532L962 532C975 532 984 527 986 516 962 488 919 450 919 450L882 503 867 503 873 325C895 322 906 317 913 309L839 247 802 287 543 287 476 256C492 235 506 212 520 189L930 189C945 189 955 184 957 173 925 143 871 101 871 101L824 160 536 160C554 128 569 94 581 62 602 62 614 53 618 42ZM637 317C634 371 630 436 624 503L507 503 525 317ZM698 317L812 317 807 503 684 503C690 437 695 371 698 317ZM622 532C616 604 609 676 603 731L481 731 504 532ZM681 532L805 532C801 614 796 681 789 731L660 731C667 676 674 605 681 532Z"/>
</svg>