<svg xmlns="http://www.w3.org/2000/svg" name="gid6863" data-unicode="梟"
    viewBox="0 0 1000 1000">
  <!--
© 2017-2024 Adobe (http://www.adobe.com/).
Noto is a trademark of Google Inc.
This Font Software is licensed under the SIL Open Font License, Version 1.1. This Font Software is distributed on an "AS IS" BASIS, WITHOUT WARRANTIES OR CONDITIONS OF ANY KIND, either express or implied. See the SIL Open Font License for the specific language, permissions and limitations governing your use of this Font Software.
http://scripts.sil.org/OFL
  -->
<path d="M259 159L683 159 683 219 259 219ZM411 35C407 62 400 102 392 130L271 130 197 98 197 578 207 578C239 578 259 562 259 557L259 520 787 520C780 549 769 568 760 574 753 578 746 579 732 579 714 579 661 575 630 573L630 590C658 594 684 600 695 610 708 620 710 636 710 651 743 651 773 644 793 634 824 616 841 581 852 526 871 524 884 520 891 512L819 455 784 491 259 491 259 429 931 429C945 429 955 424 958 413 925 384 875 344 875 344L829 400 259 400 259 338 683 338 683 375 693 375C715 375 750 361 751 355L751 172C770 168 786 160 793 152L710 89 673 130 425 130C450 113 475 93 491 74 513 73 523 62 526 51ZM259 248L683 248 683 310 259 310ZM465 567L465 671 42 671 51 700 399 700C315 790 186 870 41 922L49 939C216 895 364 825 465 730L465 958 478 958C503 958 532 944 532 936L532 700 537 700C623 806 768 889 910 931 918 898 941 877 968 872L969 861C833 836 667 776 569 700L935 700C949 700 959 695 962 684 928 654 876 614 876 614L830 671 532 671 532 605C558 601 567 591 569 578Z"/>
</svg>