<svg xmlns="http://www.w3.org/2000/svg"
    viewBox="0 0 1000 1000">
  <!--
© 2017-2024 Adobe (http://www.adobe.com/).
Noto is a trademark of Google Inc.
This Font Software is licensed under the SIL Open Font License, Version 1.1. This Font Software is distributed on an "AS IS" BASIS, WITHOUT WARRANTIES OR CONDITIONS OF ANY KIND, either express or implied. See the SIL Open Font License for the specific language, permissions and limitations governing your use of this Font Software.
http://scripts.sil.org/OFL
  -->
<path d="M787 338L787 533 500 533 500 338ZM495 111C473 186 419 282 350 339L360 353C389 338 416 320 440 299L440 611 450 611C480 611 500 595 500 590L500 562 530 562C525 696 504 816 305 910L317 926C555 838 588 712 598 562L673 562 673 843C673 887 684 903 748 903L823 903C938 903 965 891 965 865 965 852 960 844 940 838L937 731 925 731C915 776 905 822 899 835 895 842 892 844 884 845 875 845 851 845 824 845L762 845C737 845 734 842 734 829L734 562 787 562 787 604 797 604C818 604 849 589 850 583L850 343C864 341 876 334 881 328L812 275 779 309 512 309 456 285C498 247 532 203 554 163 577 166 585 160 590 151ZM491 60L500 89 731 89C758 190 821 272 912 329 919 304 942 283 968 276L969 265C868 229 788 162 757 91 786 89 810 83 820 72L739 17 710 60ZM191 10L191 247 42 247 50 277 178 277C153 426 105 572 29 686L43 700C107 631 155 552 191 465L191 928 204 928C228 928 255 913 255 904L255 427C286 469 320 525 332 568 390 615 445 495 255 407L255 277 383 277C396 277 406 272 409 261 378 230 329 190 329 190L285 247 255 247 255 49C281 45 288 36 291 21Z"/>
</svg>