<svg xmlns="http://www.w3.org/2000/svg"
    viewBox="0 0 1000 1000">
  <!--
© 2017-2024 Adobe (http://www.adobe.com/).
Noto is a trademark of Google Inc.
This Font Software is licensed under the SIL Open Font License, Version 1.1. This Font Software is distributed on an "AS IS" BASIS, WITHOUT WARRANTIES OR CONDITIONS OF ANY KIND, either express or implied. See the SIL Open Font License for the specific language, permissions and limitations governing your use of this Font Software.
http://scripts.sil.org/OFL
  -->
<path d="M617 460L617 898 628 898C651 898 677 884 677 877L677 495C700 491 709 483 711 470ZM455 450L455 571C455 684 434 821 307 912L320 926C489 839 516 689 518 573L518 485C542 481 549 472 551 460ZM776 449L776 816C776 889 787 905 845 905L905 905C959 905 978 887 978 862 978 851 975 846 955 837L953 745 939 745C932 792 925 825 920 837 916 847 912 848 905 848L851 848C838 848 838 846 838 820L838 485C857 482 867 474 869 461ZM378 335L419 419C430 417 439 411 444 398 616 374 744 355 840 339 860 364 876 390 884 414 960 458 998 303 742 219L731 228C760 251 794 283 822 317L538 331C577 289 621 232 655 182L937 182C950 182 960 177 963 166 930 136 877 94 877 94L830 153 680 153 680 50C702 46 710 37 712 24L616 15 616 153 369 153 377 182 568 182C550 229 522 288 495 332ZM195 13L195 246 47 246 55 275 182 275C155 424 104 570 24 684L38 698C105 627 157 546 195 456L195 927 208 927C232 927 259 912 259 903L259 397C290 439 325 496 336 539 394 584 447 466 259 376L259 275 379 275C392 275 402 270 405 259 375 229 325 188 325 188L281 246 259 246 259 52C284 48 292 39 295 24Z"/>
</svg>