<svg xmlns="http://www.w3.org/2000/svg" name="gid6890" data-unicode="棄"
    viewBox="0 0 1000 1000">
  <!--
© 2017-2024 Adobe (http://www.adobe.com/).
Noto is a trademark of Google Inc.
This Font Software is licensed under the SIL Open Font License, Version 1.1. This Font Software is distributed on an "AS IS" BASIS, WITHOUT WARRANTIES OR CONDITIONS OF ANY KIND, either express or implied. See the SIL Open Font License for the specific language, permissions and limitations governing your use of this Font Software.
http://scripts.sil.org/OFL
  -->
<path d="M599 186L594 202C639 218 680 238 716 258L361 268C397 239 436 203 470 170L918 170C932 170 941 165 944 154 911 123 857 82 857 82L811 140 533 140 533 76C558 73 568 63 570 49L465 39 465 140 54 140 63 170 378 170C359 201 336 238 314 269 230 271 160 271 112 271L158 354C167 352 177 346 183 334 435 314 619 297 755 281 794 306 824 330 841 350 911 376 935 230 599 186ZM467 556L297 556 297 460 467 460ZM532 556L532 460 702 460 702 556ZM45 432L53 460 233 460 233 637 244 637C269 637 297 623 297 615L297 585 702 585 702 627 714 627C738 627 767 613 767 606L767 460 935 460C948 460 958 455 961 445 929 415 878 375 878 375L832 432 767 432 767 385C788 382 796 374 798 362L702 352 702 432 532 432 532 376C555 372 563 363 565 350L467 340 467 432 297 432 297 386C319 382 327 374 329 361L233 352 233 432ZM467 593L467 678 42 678 51 708 380 708C296 794 170 870 29 919L37 936C212 892 366 820 467 718L467 956 479 956C503 956 531 943 531 935L531 708 536 708C622 814 763 892 912 933 919 900 942 878 970 873L971 861C828 840 666 784 570 708L932 708C947 708 956 703 959 692 924 659 869 617 869 617L820 678 531 678 531 631C556 627 565 618 567 604Z"/>
</svg>