<svg xmlns="http://www.w3.org/2000/svg" name="gid6892" data-unicode="棆"
    viewBox="0 0 1000 1000">
  <!--
© 2017-2024 Adobe (http://www.adobe.com/).
Noto is a trademark of Google Inc.
This Font Software is licensed under the SIL Open Font License, Version 1.1. This Font Software is distributed on an "AS IS" BASIS, WITHOUT WARRANTIES OR CONDITIONS OF ANY KIND, either express or implied. See the SIL Open Font License for the specific language, permissions and limitations governing your use of this Font Software.
http://scripts.sil.org/OFL
  -->
<path d="M472 333L480 363 772 363C785 363 795 358 798 347 769 319 723 282 723 282L683 333ZM645 95C702 222 808 333 927 407 934 378 950 354 978 343L980 329C853 279 731 186 660 84 685 81 694 76 697 65L577 39C538 163 426 317 308 400L316 416C457 342 580 222 645 95ZM176 44L176 277 43 277 51 306 161 306C139 451 100 596 32 711L47 724C102 655 145 578 176 494L176 958 189 958C212 958 239 943 239 934L239 462C267 501 299 556 309 598 367 644 419 527 239 439L239 306 355 306C369 306 377 301 380 290 352 261 305 221 305 221L263 277 239 277 239 83C263 79 271 70 274 55ZM378 453L378 957 388 957C415 957 439 942 439 935L439 685 529 685 529 940 537 940C566 940 584 926 584 922L584 685 678 685 678 940 686 940C714 940 733 926 733 922L733 685 837 685 837 857C837 870 833 875 820 875 805 875 744 870 744 870L744 886C773 891 790 896 800 907 810 918 814 936 815 954 890 946 899 916 899 865L899 491C915 488 929 481 935 473L858 418 828 453 444 453 378 423ZM439 655L439 483 529 483 529 655ZM837 655L733 655 733 483 837 483ZM584 655L584 483 678 483 678 655Z"/>
</svg>