<svg xmlns="http://www.w3.org/2000/svg" name="gid6894" data-unicode="棉"
    viewBox="0 0 1000 1000">
  <!--
© 2017-2024 Adobe (http://www.adobe.com/).
Noto is a trademark of Google Inc.
This Font Software is licensed under the SIL Open Font License, Version 1.1. This Font Software is distributed on an "AS IS" BASIS, WITHOUT WARRANTIES OR CONDITIONS OF ANY KIND, either express or implied. See the SIL Open Font License for the specific language, permissions and limitations governing your use of this Font Software.
http://scripts.sil.org/OFL
  -->
<path d="M203 44L203 274 45 274 53 304 190 304C161 453 111 602 33 716L47 729C114 656 165 573 203 481L203 958 217 958C240 958 267 943 267 934L267 449C299 491 336 549 348 592 408 639 461 518 267 427L267 304 395 304C409 304 418 299 421 288 392 258 344 217 344 217L302 274 267 274 267 83C293 79 301 70 304 55ZM511 322L831 322 831 433 511 433ZM511 294L511 184 831 184 831 294ZM648 36L610 156 522 156 449 124 449 515 458 515C491 515 511 501 511 496L511 462 636 462 636 581 489 581 421 551 421 889 431 889C456 889 483 874 483 868L483 611 636 611 636 958 646 958C679 958 700 943 700 938L700 611 859 611 859 799C859 811 856 816 843 816 828 816 774 812 774 812L774 828C802 831 817 838 826 848 835 857 838 874 839 892 912 884 921 855 921 806L921 623C941 620 958 611 963 604L881 543 849 581 700 581 700 462 831 462 831 497 841 497C870 497 895 482 895 478L895 189C915 186 925 180 932 173L860 117 827 156 646 156C669 133 696 104 715 82 736 83 750 75 754 61Z"/>
</svg>