<svg xmlns="http://www.w3.org/2000/svg"
    viewBox="0 0 1000 1000">
  <!--
© 2017-2024 Adobe (http://www.adobe.com/).
Noto is a trademark of Google Inc.
This Font Software is licensed under the SIL Open Font License, Version 1.1. This Font Software is distributed on an "AS IS" BASIS, WITHOUT WARRANTIES OR CONDITIONS OF ANY KIND, either express or implied. See the SIL Open Font License for the specific language, permissions and limitations governing your use of this Font Software.
http://scripts.sil.org/OFL
  -->
<path d="M370 12L370 120 72 120 81 150 370 150 370 241 86 241 95 271 369 271C368 294 366 317 361 339 231 362 106 382 50 389L91 461C100 458 107 451 111 438 215 409 294 383 355 362 332 441 278 510 164 562L173 576C387 503 434 381 435 243L435 48C458 45 465 36 468 22ZM571 13L571 521 584 521C608 521 635 507 635 499L635 402 933 402C947 402 956 397 959 386 928 357 877 318 877 318L833 372 635 372 635 272 892 272C905 272 915 267 917 256 888 228 841 192 841 192L800 242 635 242 635 150 913 150C927 150 937 145 940 134 908 105 859 67 859 67L816 120 635 120 635 50C660 47 670 37 672 23ZM465 502L465 599 42 599 51 628 398 628C315 730 185 825 38 887L47 903C216 850 365 768 465 661L465 927 478 927C503 927 532 913 532 905L532 628 536 628C620 755 762 851 911 901 920 869 943 848 970 844L972 833C825 801 660 725 565 628L931 628C945 628 955 623 957 613 922 580 865 537 865 537L815 599 532 599 532 540C558 536 567 527 569 513Z"/>
</svg>