<svg xmlns="http://www.w3.org/2000/svg"
    viewBox="0 0 1000 1000">
  <!--
© 2017-2023 Adobe (http://www.adobe.com/).
Noto is a trademark of Google Inc.
This Font Software is licensed under the SIL Open Font License, Version 1.1. This Font Software is distributed on an "AS IS" BASIS, WITHOUT WARRANTIES OR CONDITIONS OF ANY KIND, either express or implied. See the SIL Open Font License for the specific language, permissions and limitations governing your use of this Font Software.
http://scripts.sil.org/OFL
  -->
<path d="M188 11L188 245 44 245 52 275 179 275C152 426 102 574 22 688L36 702C101 633 151 554 188 468L188 928 201 928C225 928 252 913 252 904L252 410C282 451 317 507 328 550 387 597 442 477 252 390L252 275 381 275C395 275 405 270 408 259 378 229 327 188 327 188L284 245 252 245 252 50C277 46 285 36 288 21ZM599 12C595 51 590 89 584 126L376 126 384 155 579 155C572 187 565 218 557 248L411 248 419 277 548 277C537 313 524 348 510 381L353 381 361 411 497 411C449 512 387 596 312 663L325 674C423 611 501 525 559 411L734 411C782 504 847 576 926 625 934 594 956 574 982 570L983 560C911 530 841 477 785 411L948 411C962 411 972 406 974 395 943 364 890 323 890 323L845 381 762 381C738 349 718 314 701 277L897 277C910 277 920 272 923 261 891 231 839 191 839 191L794 248 624 248C633 218 641 187 648 155L908 155C922 155 932 150 935 140 903 110 851 69 851 69L807 126 654 126 667 53C691 52 702 42 705 28ZM719 381L573 381C589 348 602 314 614 277L680 277C691 314 704 349 719 381ZM610 472L610 591 456 591 464 620 610 620 610 731 398 731 406 759 610 759 610 927 622 927C645 927 673 913 673 905L673 759 892 759C906 759 915 754 918 744 886 714 835 673 835 673L790 731 673 731 673 620 822 620C835 620 844 615 847 604 818 577 771 541 771 541L732 591 673 591 673 507C697 504 705 495 707 483Z"/>
</svg>