<svg xmlns="http://www.w3.org/2000/svg" name="gid6925" data-unicode="森"
    viewBox="0 0 1000 1000">
  <!--
© 2017-2024 Adobe (http://www.adobe.com/).
Noto is a trademark of Google Inc.
This Font Software is licensed under the SIL Open Font License, Version 1.1. This Font Software is distributed on an "AS IS" BASIS, WITHOUT WARRANTIES OR CONDITIONS OF ANY KIND, either express or implied. See the SIL Open Font License for the specific language, permissions and limitations governing your use of this Font Software.
http://scripts.sil.org/OFL
  -->
<path d="M236 434L236 574 47 574 55 602 213 602C175 705 114 803 31 877L43 893C124 838 189 771 236 691L236 957 248 957C271 957 298 942 298 934L298 656C337 687 382 733 397 772 461 810 503 685 298 638L298 602 458 602C471 602 480 597 483 586 455 559 408 521 408 521L368 574 298 574 298 470C322 466 331 457 333 444ZM663 436L663 574 482 574 490 602 629 602C576 715 488 817 374 890L385 907C504 847 598 765 663 665L663 957 676 957C699 957 726 945 726 937L726 609C768 733 837 832 919 892 927 862 947 844 971 840L973 830C887 789 797 703 746 602L929 602C943 602 953 597 955 586 924 557 874 516 874 516L829 574 726 574 726 472C751 469 759 459 762 447ZM461 42L461 164 96 164 104 193 402 193C325 293 205 384 66 444L76 461C234 408 370 327 461 221L461 481 474 481C499 481 527 469 527 462L527 193 533 193C613 309 754 403 884 453 890 424 912 407 937 403L938 393C810 359 653 283 563 193L883 193C896 193 907 188 909 178 877 147 825 106 825 106L780 164 527 164 527 80C552 77 561 67 564 53Z"/>
</svg>