<svg xmlns="http://www.w3.org/2000/svg"
    viewBox="0 0 1000 1000">
  <!--
© 2017-2024 Adobe (http://www.adobe.com/).
Noto is a trademark of Google Inc.
This Font Software is licensed under the SIL Open Font License, Version 1.1. This Font Software is distributed on an "AS IS" BASIS, WITHOUT WARRANTIES OR CONDITIONS OF ANY KIND, either express or implied. See the SIL Open Font License for the specific language, permissions and limitations governing your use of this Font Software.
http://scripts.sil.org/OFL
  -->
<path d="M346 454L349 464C328 444 299 423 258 404L258 277 378 277 383 276 384 281 460 281 460 454ZM519 281L617 281 617 454 519 454ZM194 9L194 248 46 248 54 277 182 277C153 426 102 573 20 687L35 700C103 629 156 547 194 456L194 927 208 927C231 927 258 911 258 903L258 425C289 466 324 522 335 564 375 596 413 547 366 484L460 484 460 666 368 666 375 694 617 694 617 854 343 854 351 883 947 883C961 883 970 879 973 868 940 837 886 794 886 794L838 854 680 854 680 694 930 694C943 694 953 689 955 679 928 650 884 612 884 612L844 666 841 666 841 484 953 484C966 484 975 479 978 468 950 438 903 398 903 398L862 454 841 454 841 281 923 281C937 281 946 276 949 265 919 236 870 197 870 197L826 252 680 252 680 127C752 116 818 104 873 92 896 102 914 102 923 94L853 27C746 68 540 116 373 138L377 157C456 153 538 145 617 135L617 252 395 252C365 223 324 190 324 190L280 248 258 248 258 47C284 43 291 34 294 20ZM781 281L781 454 680 454 680 281ZM519 484L617 484 617 666 519 666ZM781 484L781 666 680 666 680 484Z"/>
</svg>