<svg xmlns="http://www.w3.org/2000/svg" name="gid6929" data-unicode="棲"
    viewBox="0 0 1000 1000">
  <!--
© 2017-2024 Adobe (http://www.adobe.com/).
Noto is a trademark of Google Inc.
This Font Software is licensed under the SIL Open Font License, Version 1.1. This Font Software is distributed on an "AS IS" BASIS, WITHOUT WARRANTIES OR CONDITIONS OF ANY KIND, either express or implied. See the SIL Open Font License for the specific language, permissions and limitations governing your use of this Font Software.
http://scripts.sil.org/OFL
  -->
<path d="M191 44L191 279 41 279 49 309 178 309C153 458 105 604 29 717L43 731C107 662 155 584 191 497L191 957 204 957C228 957 255 943 255 933L255 445C286 486 320 542 332 585 390 632 445 512 255 425L255 309 384 309C397 309 407 304 410 293 380 262 330 222 330 222L286 279 255 279 255 83C281 79 288 70 291 55ZM604 50L604 159 370 159 377 188 604 188 604 268 418 268 427 297 604 297 604 384 345 384 353 414 604 414 604 503 403 503 412 532 812 532 812 573 821 573C842 573 874 559 875 552L875 414 957 414C971 414 980 409 982 398 960 371 920 331 920 331L886 384 875 384 875 306C892 303 906 295 912 288L836 231 803 268 668 268 668 188 933 188C946 188 956 183 959 173 926 142 875 101 875 101L828 159 668 159 668 88C691 84 700 74 702 60ZM812 414L812 503 668 503 668 414ZM812 384L668 384 668 297 812 297ZM566 534C555 561 534 602 510 646L335 646 343 676 493 676C462 730 428 784 403 817 428 830 453 833 470 828L496 788C541 802 586 818 627 834 554 885 454 918 321 942L326 961C489 943 604 911 685 857 770 892 838 928 878 956 939 976 969 887 736 816 775 778 804 732 826 676L945 676C959 676 969 671 971 660 940 630 888 588 888 588L842 646 582 646 621 576C645 577 657 568 661 555ZM564 676L749 676C731 725 704 765 670 799 624 788 570 778 508 769Z"/>
</svg>