<svg xmlns="http://www.w3.org/2000/svg"
    viewBox="0 0 1000 1000">
  <!--
© 2017-2024 Adobe (http://www.adobe.com/).
Noto is a trademark of Google Inc.
This Font Software is licensed under the SIL Open Font License, Version 1.1. This Font Software is distributed on an "AS IS" BASIS, WITHOUT WARRANTIES OR CONDITIONS OF ANY KIND, either express or implied. See the SIL Open Font License for the specific language, permissions and limitations governing your use of this Font Software.
http://scripts.sil.org/OFL
  -->
<path d="M431 134C432 179 405 229 378 248L371 254 300 190 257 247 239 247 239 52C264 48 271 39 274 24L175 14 175 247 43 247 51 276 161 276C140 421 100 566 32 680L46 693C101 626 143 551 175 469L175 927 188 927C212 927 239 912 239 903L239 422C267 462 299 516 308 558 368 605 422 486 239 399L239 276 351 276 354 276C350 285 350 295 355 306 367 329 401 328 422 310 444 292 461 254 459 202L858 202C851 236 840 277 830 303L844 310C874 285 913 243 935 214 953 213 964 211 971 204L895 130 853 172 689 172 689 59C713 56 723 46 725 32L625 22 625 172 456 172C454 160 451 147 447 134ZM687 354L687 838C687 881 699 898 761 898L830 898C941 898 967 886 967 861 967 849 963 843 943 835L940 721 927 721C918 767 908 820 902 832 898 840 894 841 888 842 879 843 858 843 831 843L773 843C749 843 746 838 746 822L746 384 855 384 855 591C855 604 852 608 839 608 825 608 769 604 769 604L769 619C797 624 813 631 822 641 830 651 833 668 835 686 904 678 912 648 912 600L912 396C932 392 949 384 956 376L876 317 845 354 758 354 687 324ZM497 401L582 401C575 465 564 528 547 587 537 563 510 534 454 510 470 476 484 440 497 401ZM462 262C445 411 400 549 339 643L354 653C389 619 419 577 444 528 470 557 496 598 504 631 513 638 523 641 531 640 492 747 431 841 331 911L341 926C555 809 617 613 646 409 667 406 677 404 684 395L614 332 576 371 506 371C512 349 517 327 522 304 544 303 554 294 558 281Z"/>
</svg>