<svg xmlns="http://www.w3.org/2000/svg"
    viewBox="0 0 1000 1000">
  <!--
© 2017-2024 Adobe (http://www.adobe.com/).
Noto is a trademark of Google Inc.
This Font Software is licensed under the SIL Open Font License, Version 1.1. This Font Software is distributed on an "AS IS" BASIS, WITHOUT WARRANTIES OR CONDITIONS OF ANY KIND, either express or implied. See the SIL Open Font License for the specific language, permissions and limitations governing your use of this Font Software.
http://scripts.sil.org/OFL
  -->
<path d="M636 533L636 693 500 693 500 533ZM441 503L441 796 450 796C475 796 500 782 500 776L500 722 636 722 636 771 645 771C665 771 695 756 696 750L696 544C714 540 731 532 738 524L661 466 626 503 505 503 441 475ZM365 387L373 417 804 417 804 824C804 838 798 843 779 843 757 843 646 835 646 835L646 850C694 857 722 865 739 876 753 887 758 905 760 926 855 916 869 878 869 826L869 417 950 417C964 417 973 412 976 401 944 370 892 329 892 329L847 387ZM622 13C621 53 619 92 609 131L380 131 388 160 600 160C574 229 514 293 377 347L388 362C524 321 596 270 635 216 703 250 789 311 824 358 901 383 909 237 646 200 654 187 661 174 666 160L917 160C931 160 940 155 943 144 910 114 858 72 858 72L813 131 675 131C682 102 684 74 687 46 708 44 715 33 717 22ZM199 13L199 248 43 248 51 277 186 277C158 426 108 572 27 687L40 700C108 629 161 547 199 456L199 927 212 927C236 927 263 912 263 903L263 425C294 466 329 522 340 564 398 611 453 491 263 404L263 277 384 277C398 277 407 272 410 261 379 231 330 190 330 190L286 248 263 248 263 52C288 48 296 39 299 24Z"/>
</svg>