<svg xmlns="http://www.w3.org/2000/svg"
    viewBox="0 0 1000 1000">
  <!--
© 2017-2023 Adobe (http://www.adobe.com/).
Noto is a trademark of Google Inc.
This Font Software is licensed under the SIL Open Font License, Version 1.1. This Font Software is distributed on an "AS IS" BASIS, WITHOUT WARRANTIES OR CONDITIONS OF ANY KIND, either express or implied. See the SIL Open Font License for the specific language, permissions and limitations governing your use of this Font Software.
http://scripts.sil.org/OFL
  -->
<path d="M771 619L759 627C811 682 879 773 897 841 969 895 1021 739 771 619ZM491 611C461 687 397 783 330 847L340 861C423 809 506 728 546 662 564 666 575 664 579 654ZM200 14L200 243 48 243 56 273 187 273C158 422 108 571 30 685L44 698C111 625 162 541 200 448L200 928 214 928C238 928 264 913 264 904L264 418C296 460 333 518 345 561 406 609 458 487 264 396L264 273 388 273C402 273 412 268 414 257 386 227 338 186 338 186L296 243 264 243 264 53C290 49 298 40 301 25ZM630 19L630 160 379 160 387 189 945 189C959 189 968 184 970 173 939 143 887 100 887 100L841 160 694 160 694 56C718 53 728 43 730 29ZM450 291L450 582 460 582C492 582 513 568 513 563L513 521 631 521 631 833C631 846 627 851 610 851 589 851 496 845 496 845L496 860C539 864 564 872 576 882 588 892 594 909 595 927 683 919 696 884 696 834L696 521 819 521 819 564 828 564C858 564 882 550 882 545L882 325C902 321 912 316 918 308L847 254 816 291 524 291 450 260ZM513 492L513 321 819 321 819 492Z"/>
</svg>