<svg xmlns="http://www.w3.org/2000/svg"
    viewBox="0 0 1000 1000">
  <!--
© 2017-2024 Adobe (http://www.adobe.com/).
Noto is a trademark of Google Inc.
This Font Software is licensed under the SIL Open Font License, Version 1.1. This Font Software is distributed on an "AS IS" BASIS, WITHOUT WARRANTIES OR CONDITIONS OF ANY KIND, either express or implied. See the SIL Open Font License for the specific language, permissions and limitations governing your use of this Font Software.
http://scripts.sil.org/OFL
  -->
<path d="M706 584L706 863 595 863 595 623C614 619 629 613 636 605L562 548 527 584 452 584 452 331 536 331 536 419 546 419C576 419 595 405 595 401L595 126 706 126 706 412 715 412C746 412 766 398 766 393L766 331 859 331 859 584 776 584 706 553ZM191 14L191 248 47 248 55 277 179 277C153 426 102 572 23 686L36 700C103 630 153 550 191 461L191 927 205 927C229 927 256 913 256 903L256 409C285 450 316 505 326 548 384 596 440 476 256 387L256 277 379 277C384 277 388 276 392 275L392 687 402 687C428 687 452 674 452 668L452 613 536 613 536 863 334 863 342 892 950 892C964 892 973 887 976 877 944 846 892 805 892 805L847 863 765 863 765 613 859 613 859 672 868 672C889 672 919 657 920 651L920 338C935 335 949 328 954 322L884 268 851 302 766 302 766 126 934 126C948 126 957 121 960 110 927 81 876 39 876 39L829 97 359 97 367 126 536 126 536 302 456 302 394 274C399 271 403 267 405 261 375 231 324 190 324 190L280 248 256 248 256 53C281 49 289 40 292 25Z"/>
</svg>