<svg xmlns="http://www.w3.org/2000/svg" name="gid6962" data-unicode="検"
    viewBox="0 0 1000 1000">
  <!--
© 2017-2024 Adobe (http://www.adobe.com/).
Noto is a trademark of Google Inc.
This Font Software is licensed under the SIL Open Font License, Version 1.1. This Font Software is distributed on an "AS IS" BASIS, WITHOUT WARRANTIES OR CONDITIONS OF ANY KIND, either express or implied. See the SIL Open Font License for the specific language, permissions and limitations governing your use of this Font Software.
http://scripts.sil.org/OFL
  -->
<path d="M660 91C712 203 810 297 918 358 924 333 938 311 963 303L964 291C848 249 738 171 674 81 698 79 706 74 709 63L603 41C565 151 462 282 354 350L362 365C489 305 601 202 660 91ZM415 443L415 716 425 716C455 716 475 702 475 697L475 667 600 667C578 778 509 870 326 946L335 960C562 893 639 789 662 669 705 814 779 906 908 958 916 924 936 903 964 897L964 886C834 857 734 779 683 667L816 667 816 706 826 706C854 706 879 693 879 688L879 475C898 471 908 466 913 459L844 406 813 443 671 443 671 350 808 350C822 350 831 345 833 334 805 306 758 268 758 268L717 320 466 320 474 350 609 350 609 443 487 443 415 411ZM475 639L475 471 609 471 609 562C609 589 608 614 605 639ZM816 639L667 639C670 614 671 587 671 561L671 471 816 471ZM195 44L195 278 48 278 56 307 182 307C157 456 109 601 33 716L46 730C110 661 159 582 195 495L195 957 208 957C232 957 259 942 259 933L259 415C290 456 324 512 336 555 394 600 449 482 259 393L259 307 382 307C396 307 406 302 409 291 379 261 328 220 328 220L285 278 259 278 259 82C284 78 292 69 295 54Z"/>
</svg>