<svg xmlns="http://www.w3.org/2000/svg"
    viewBox="0 0 1000 1000">
  <!--
© 2017-2023 Adobe (http://www.adobe.com/).
Noto is a trademark of Google Inc.
This Font Software is licensed under the SIL Open Font License, Version 1.1. This Font Software is distributed on an "AS IS" BASIS, WITHOUT WARRANTIES OR CONDITIONS OF ANY KIND, either express or implied. See the SIL Open Font License for the specific language, permissions and limitations governing your use of this Font Software.
http://scripts.sil.org/OFL
  -->
<path d="M702 713L692 722C761 771 853 855 888 919 973 960 1002 792 702 713ZM518 697C475 769 382 861 291 916L300 929C411 891 516 821 576 758 597 764 606 759 612 750ZM681 25L681 192 589 192 589 61C610 58 619 49 621 36L533 25 533 192 455 192 384 160 384 192 384 634 299 634 306 664 958 664C971 664 980 659 983 648 961 620 921 580 921 580L893 623 893 230C917 226 931 221 938 212L854 148 820 192 736 192 736 63C759 59 767 49 769 36ZM444 634L444 428 533 428 533 634ZM832 634L736 634 736 428 832 428ZM589 634L589 428 681 428 681 634ZM444 399L444 221 533 221 533 399ZM832 399L736 399 736 221 832 221ZM589 221L681 221 681 399 589 399ZM173 14L173 247 41 247 49 276 159 276C138 421 98 566 30 680L44 693C99 626 141 551 173 469L173 927 187 927C210 927 237 912 237 903L237 425C265 464 297 519 307 561 366 607 420 489 237 402L237 276 356 276C370 276 378 271 381 260 353 231 305 190 305 190L262 247 237 247 237 52C262 48 270 39 272 24Z"/>
</svg>