<svg xmlns="http://www.w3.org/2000/svg" name="gid6966" data-unicode="椥"
    viewBox="0 0 1000 1000">
  <!--
© 2017-2024 Adobe (http://www.adobe.com/).
Noto is a trademark of Google Inc.
This Font Software is licensed under the SIL Open Font License, Version 1.1. This Font Software is distributed on an "AS IS" BASIS, WITHOUT WARRANTIES OR CONDITIONS OF ANY KIND, either express or implied. See the SIL Open Font License for the specific language, permissions and limitations governing your use of this Font Software.
http://scripts.sil.org/OFL
  -->
<path d="M171 44L171 277 39 277 47 306 158 306C136 452 98 599 35 716L50 729C101 661 141 585 171 504L171 957 184 957C206 957 233 942 233 932L233 440C263 482 294 540 299 585 354 633 407 512 233 416L233 306 347 306C361 306 370 301 373 290 346 261 300 219 300 219L260 277 233 277 233 82C257 78 265 69 268 54ZM676 171L676 940 687 940C714 940 735 925 735 917L735 830 855 830 855 916 864 916C886 916 915 900 916 894L916 212C936 208 953 200 959 191L881 129 845 171 739 171 676 139ZM855 800L735 800 735 200 855 200ZM413 45C403 182 372 324 330 423L346 431C384 381 415 317 439 245L475 245 475 466 475 471 348 471 356 501 475 501C471 658 442 816 295 945L308 958C431 881 488 779 514 673 553 721 589 783 594 835 659 890 715 745 521 644 530 597 534 548 535 501L644 501C657 501 667 496 670 485 642 456 595 415 595 415L554 471 536 471 536 465 536 245 639 245C653 245 662 240 665 229 637 199 591 161 591 161L550 215 449 215C462 174 472 131 481 87 502 85 512 75 515 63Z"/>
</svg>