<svg xmlns="http://www.w3.org/2000/svg" name="gid6978" data-unicode="椹"
    viewBox="0 0 1000 1000">
  <!--
© 2017-2024 Adobe (http://www.adobe.com/).
Noto is a trademark of Google Inc.
This Font Software is licensed under the SIL Open Font License, Version 1.1. This Font Software is distributed on an "AS IS" BASIS, WITHOUT WARRANTIES OR CONDITIONS OF ANY KIND, either express or implied. See the SIL Open Font License for the specific language, permissions and limitations governing your use of this Font Software.
http://scripts.sil.org/OFL
  -->
<path d="M195 44L195 279 43 279 51 309 182 309C154 459 104 605 23 719L37 732C105 661 157 578 195 488L195 957 208 957C232 957 259 942 259 933L259 390C288 428 319 481 329 521 388 566 443 450 259 368L259 309 384 309C398 309 407 304 410 293 379 262 330 222 330 222L286 279 259 279 259 82C284 78 292 69 295 54ZM761 49L761 183 550 183 550 86C574 82 583 72 586 59L487 49 487 183 363 183 371 213 487 213 487 552 339 552 347 581 415 581 415 959 424 959C456 959 477 944 477 940L477 894 938 894C952 894 961 889 964 878 931 847 880 807 880 807L833 864 477 864 477 581 581 581C578 661 567 740 495 807L511 822C613 760 636 671 643 581L713 581 713 707C713 745 721 759 773 759L825 759C912 759 934 749 934 725 934 713 929 706 911 702L908 645 897 645C889 670 882 694 876 702 874 705 870 706 864 706 858 707 843 707 828 707L789 707C774 707 772 705 772 695L772 581 950 581C963 581 973 576 975 565 947 536 898 496 898 496L856 552 825 552 825 213 934 213C948 213 958 208 960 197 930 168 882 128 882 128L839 183 825 183 825 86C848 82 857 72 860 59ZM550 213L761 213 761 305 550 305ZM550 552L550 455 761 455 761 552ZM550 334L761 334 761 426 550 426Z"/>
</svg>