<svg xmlns="http://www.w3.org/2000/svg" name="gid6981" data-unicode="椿"
    viewBox="0 0 1000 1000">
  <!--
© 2017-2024 Adobe (http://www.adobe.com/).
Noto is a trademark of Google Inc.
This Font Software is licensed under the SIL Open Font License, Version 1.1. This Font Software is distributed on an "AS IS" BASIS, WITHOUT WARRANTIES OR CONDITIONS OF ANY KIND, either express or implied. See the SIL Open Font License for the specific language, permissions and limitations governing your use of this Font Software.
http://scripts.sil.org/OFL
  -->
<path d="M588 43C585 88 581 132 574 173L381 173 389 202 570 202C564 233 558 262 551 291L412 291C381 260 333 222 333 222L289 279 258 279 258 82C284 78 291 69 294 54L195 44 195 279 44 279 52 309 183 309C154 460 103 606 20 719L35 732C104 661 156 579 195 489L195 957 209 957C232 957 258 942 258 933L258 448C289 486 326 540 337 580 396 625 448 507 258 426L258 309 387 309C396 309 404 307 408 301L413 320 543 320C532 356 520 390 507 423L357 423 365 452 494 452C447 554 383 638 305 706L317 718C373 684 422 643 464 594L464 957 474 957C501 957 526 943 526 936L526 898 763 898 763 953 772 953C794 953 826 936 827 930L827 603 829 602C858 635 890 663 925 686 934 655 955 637 980 633L981 622C905 588 836 527 782 452L937 452C951 452 960 447 962 436 931 406 880 366 880 366L834 423 762 423C742 391 724 356 709 320L892 320C905 320 915 315 917 305 888 276 841 240 841 240L799 291 618 291C626 263 633 233 639 202L909 202C923 202 933 197 936 186 903 156 849 114 849 114L803 173 645 173C650 144 655 114 659 83 682 81 693 71 696 57ZM734 452C748 482 763 510 780 537L754 565 531 565 499 550C520 520 540 487 557 452ZM722 423L571 423C585 391 598 357 609 320L687 320C697 356 709 391 722 423ZM526 746L763 746 763 868 526 868ZM526 716L526 594 763 594 763 716Z"/>
</svg>