<svg xmlns="http://www.w3.org/2000/svg" name="gid6986" data-unicode="楊"
    viewBox="0 0 1000 1000">
  <!--
© 2017-2024 Adobe (http://www.adobe.com/).
Noto is a trademark of Google Inc.
This Font Software is licensed under the SIL Open Font License, Version 1.1. This Font Software is distributed on an "AS IS" BASIS, WITHOUT WARRANTIES OR CONDITIONS OF ANY KIND, either express or implied. See the SIL Open Font License for the specific language, permissions and limitations governing your use of this Font Software.
http://scripts.sil.org/OFL
  -->
<path d="M368 475L375 504 499 504C457 588 394 666 315 726L326 742C385 709 437 669 481 624L557 624C509 716 435 801 347 865L359 882C474 818 567 730 624 624L699 624C656 749 580 857 469 939L479 955C623 875 718 764 770 624L851 624C839 763 817 849 792 870 783 877 774 879 758 879 738 879 678 874 644 871L643 889C675 894 708 902 720 911 733 922 736 940 736 958 773 958 808 949 834 929 876 895 903 796 915 632 935 629 948 624 955 617L880 555 842 594 508 594C532 566 553 536 571 504L935 504C949 504 959 499 962 488 930 458 878 418 878 418L833 475ZM508 254L803 254 803 358 508 358ZM508 225L508 124 803 124 803 225ZM445 96L445 435 455 435C488 435 508 420 508 415L508 386 803 386 803 418 813 418C843 418 867 403 867 399L867 129C888 125 898 120 905 113L832 57 800 96 520 96 445 64ZM197 44L197 278 47 278 55 307 184 307C158 455 110 601 33 715L47 729C111 659 161 580 197 492L197 958 211 958C235 958 261 943 261 934L261 444C292 485 328 540 340 583 400 629 453 508 261 424L261 307 390 307C403 307 413 302 416 291 385 261 336 219 336 219L292 278 261 278 261 83C287 79 295 70 297 55Z"/>
</svg>