<svg xmlns="http://www.w3.org/2000/svg"
    viewBox="0 0 1000 1000">
  <!--
© 2017-2023 Adobe (http://www.adobe.com/).
Noto is a trademark of Google Inc.
This Font Software is licensed under the SIL Open Font License, Version 1.1. This Font Software is distributed on an "AS IS" BASIS, WITHOUT WARRANTIES OR CONDITIONS OF ANY KIND, either express or implied. See the SIL Open Font License for the specific language, permissions and limitations governing your use of this Font Software.
http://scripts.sil.org/OFL
  -->
<path d="M193 14L193 247 41 247 49 276 181 276C156 424 109 570 33 684L46 699C109 630 158 551 193 465L193 927 206 927C230 927 256 912 256 903L256 429C287 470 321 526 333 570 392 616 446 496 256 409L256 276 386 276C399 276 409 271 412 260 381 230 332 189 332 189L288 247 256 247 256 52C282 48 289 39 292 24ZM569 9C561 51 550 92 537 131L379 131 387 159 528 159C486 272 426 366 357 432L369 443C435 401 492 343 539 270L659 270 659 384 463 384 471 414 935 414C949 414 959 409 961 398 930 368 878 328 878 328L832 384 721 384 721 270 875 270C889 270 899 265 901 254 869 224 819 186 819 186L773 240 557 240C572 215 585 188 598 159L926 159C940 159 950 154 953 144 920 114 869 75 869 75L823 131 609 131C618 108 626 83 634 58 656 58 668 49 672 37ZM531 633L818 633 818 724 531 724ZM531 604L531 515 818 515 818 604ZM469 486L469 927 479 927C506 927 531 912 531 906L531 753 818 753 818 827C818 842 813 848 793 848 770 848 665 840 665 840L665 856C712 861 738 870 754 881 767 891 772 908 775 928 871 918 882 885 882 835L882 528C903 525 918 515 925 508L840 446 808 486 536 486 469 455Z"/>
</svg>