<svg xmlns="http://www.w3.org/2000/svg"
    viewBox="0 0 1000 1000">
  <!--
© 2017-2024 Adobe (http://www.adobe.com/).
Noto is a trademark of Google Inc.
This Font Software is licensed under the SIL Open Font License, Version 1.1. This Font Software is distributed on an "AS IS" BASIS, WITHOUT WARRANTIES OR CONDITIONS OF ANY KIND, either express or implied. See the SIL Open Font License for the specific language, permissions and limitations governing your use of this Font Software.
http://scripts.sil.org/OFL
  -->
<path d="M501 326L486 331C506 374 530 441 531 493 576 538 628 437 501 326ZM305 192L263 248 246 248 246 47C271 43 279 34 281 19L185 9 185 248 43 248 51 277 170 277C148 422 108 567 41 682L56 694C112 624 154 546 185 460L185 927 198 927C219 927 246 911 246 902L246 383C274 422 305 476 315 517 370 561 421 448 246 360L246 277 355 277C369 277 379 272 382 261 352 232 305 192 305 192ZM878 79L831 140 680 140 680 48C703 45 711 36 713 23L619 13 619 140 352 140 360 169 619 169 619 269 463 269 397 239 397 618 407 618C432 618 458 604 458 597L458 563 570 563C515 682 422 792 304 870L314 886C447 819 550 727 619 615L619 930 629 930C661 930 680 914 681 909L681 573C730 710 810 818 906 881 916 849 938 829 964 825L966 815C863 770 758 675 701 563L835 563 835 611 844 611C865 611 895 597 896 591L896 310C917 306 933 299 940 291L861 230 825 269 680 269 680 169 938 169C952 169 962 164 965 153 931 122 878 79 878 79ZM623 299L623 533 458 533 458 299ZM677 299L835 299 835 357 760 330C751 371 730 451 711 503L724 509C756 465 790 411 808 376 822 377 832 373 835 367L835 533 677 533Z"/>
</svg>