<svg xmlns="http://www.w3.org/2000/svg" name="gid7005" data-unicode="楨"
    viewBox="0 0 1000 1000">
  <!--
© 2017-2024 Adobe (http://www.adobe.com/).
Noto is a trademark of Google Inc.
This Font Software is licensed under the SIL Open Font License, Version 1.1. This Font Software is distributed on an "AS IS" BASIS, WITHOUT WARRANTIES OR CONDITIONS OF ANY KIND, either express or implied. See the SIL Open Font License for the specific language, permissions and limitations governing your use of this Font Software.
http://scripts.sil.org/OFL
  -->
<path d="M568 774C524 829 428 903 335 942L342 957C447 931 554 879 614 832 639 836 653 834 659 823ZM712 783L703 794C768 831 855 899 889 953 970 984 988 827 712 783ZM513 460L824 460 824 568 513 568ZM513 431L513 322 824 322 824 431ZM513 597L824 597 824 704 513 704ZM638 43L638 293 524 293 450 261 450 784 460 784C492 784 513 770 513 765L513 733 824 733 824 773 834 773C864 773 888 757 888 752L888 327C909 324 920 318 927 310L853 253 820 293 705 293 705 197 926 197C940 197 950 192 953 181 920 151 867 108 867 108L820 168 705 168 705 78C727 74 735 65 737 52ZM205 37L205 274 47 274 55 303 191 303C161 452 107 601 25 715L40 729C111 655 165 569 205 474L205 959 219 959C242 959 269 944 269 934L269 438C302 480 339 537 351 581 413 627 464 505 269 417L269 303 399 303C413 303 422 298 425 287 396 257 348 216 348 216L305 274 269 274 269 76C295 72 302 63 305 49Z"/>
</svg>