<svg xmlns="http://www.w3.org/2000/svg" name="gid7009" data-unicode="楬"
    viewBox="0 0 1000 1000">
  <!--
© 2017-2024 Adobe (http://www.adobe.com/).
Noto is a trademark of Google Inc.
This Font Software is licensed under the SIL Open Font License, Version 1.1. This Font Software is distributed on an "AS IS" BASIS, WITHOUT WARRANTIES OR CONDITIONS OF ANY KIND, either express or implied. See the SIL Open Font License for the specific language, permissions and limitations governing your use of this Font Software.
http://scripts.sil.org/OFL
  -->
<path d="M196 39L196 278 46 278 54 307 184 307C157 454 108 602 31 716L45 729C110 659 159 579 196 492L196 957 210 957C234 957 261 942 261 933L261 405C294 445 332 501 345 543 406 588 457 467 261 384L261 307 391 307C405 307 415 302 417 291 388 261 338 219 338 219L295 278 261 278 261 78C286 74 294 64 297 50ZM499 255L811 255 811 361 499 361ZM499 226L499 125 811 125 811 226ZM435 96L435 438 446 438C472 438 499 423 499 416L499 390 520 390C468 512 387 621 310 684L324 697C356 678 388 655 419 628L419 879 431 879C452 879 479 867 479 860L479 828 791 828C804 828 813 823 816 812 791 786 751 754 751 754L716 798 479 798 479 616C495 613 502 606 503 595L459 590C476 572 493 553 509 533L863 533C854 726 839 845 813 870 804 877 796 879 778 879 758 879 694 874 659 870L658 888C692 894 728 902 741 912 754 921 757 939 757 957 795 957 831 947 855 924 896 886 916 760 924 541 945 538 957 533 964 525L890 465 853 504 531 504C546 482 561 460 574 436 594 440 607 432 612 422L545 390 811 390 811 429 821 429C841 429 874 415 875 408L875 137C895 133 910 125 917 118L837 56 801 96 504 96 435 65ZM634 549C598 637 542 714 487 759L500 772C544 748 588 712 625 669 656 693 693 728 707 755 761 781 793 685 638 653 651 636 663 618 674 599 695 603 707 595 712 585Z"/>
</svg>