<svg xmlns="http://www.w3.org/2000/svg" name="gid7018" data-unicode="極"
    viewBox="0 0 1000 1000">
  <!--
© 2017-2024 Adobe (http://www.adobe.com/).
Noto is a trademark of Google Inc.
This Font Software is licensed under the SIL Open Font License, Version 1.1. This Font Software is distributed on an "AS IS" BASIS, WITHOUT WARRANTIES OR CONDITIONS OF ANY KIND, either express or implied. See the SIL Open Font License for the specific language, permissions and limitations governing your use of this Font Software.
http://scripts.sil.org/OFL
  -->
<path d="M308 894L316 923 934 923C948 923 957 918 960 908 927 878 876 838 876 838L831 894ZM329 118L337 147 509 147C495 205 465 294 444 335 471 345 498 345 512 336L526 297 628 297C623 594 613 744 584 773 575 781 569 784 552 784 533 784 483 779 451 776L450 794C480 799 509 807 521 817 533 826 535 843 535 861 570 861 605 850 629 823 664 781 680 646 685 360L717 360C728 478 747 576 783 657 753 717 713 771 658 816L669 831C726 794 771 750 805 701 831 747 863 786 904 820 916 791 938 773 964 771L966 762C915 732 873 693 839 646 885 560 907 464 920 368 941 365 950 362 958 354L888 293 851 331 686 331 686 305C708 301 719 296 726 289L653 229 619 267 536 267C549 227 564 183 574 147L928 147C942 147 952 142 954 131 922 102 870 60 870 60L825 118ZM358 387L358 739 367 739C388 739 410 726 410 720L410 664 490 664 490 708 498 708C515 708 542 695 543 688L543 424C559 421 573 413 578 407L511 355 482 387 415 387 358 360ZM490 635L410 635 410 417 490 417ZM857 360C849 441 835 522 808 596 773 530 750 451 738 360ZM175 44L175 277 42 277 50 306 162 306C140 452 102 600 38 716L54 729C104 663 144 588 175 508L175 957 188 957C211 957 238 943 238 933L238 440C265 479 293 534 297 577 351 625 407 507 238 415L238 306 353 306C367 306 375 301 378 290 352 260 306 219 306 219L266 277 238 277 238 82C262 78 270 69 273 54Z"/>
</svg>