<svg xmlns="http://www.w3.org/2000/svg" name="gid7029" data-unicode="榁"
    viewBox="0 0 1000 1000">
  <!--
© 2017-2024 Adobe (http://www.adobe.com/).
Noto is a trademark of Google Inc.
This Font Software is licensed under the SIL Open Font License, Version 1.1. This Font Software is distributed on an "AS IS" BASIS, WITHOUT WARRANTIES OR CONDITIONS OF ANY KIND, either express or implied. See the SIL Open Font License for the specific language, permissions and limitations governing your use of this Font Software.
http://scripts.sil.org/OFL
  -->
<path d="M431 137C436 178 417 231 397 250 384 260 375 273 375 286 346 257 300 220 300 220L257 276 255 276 255 82C280 78 288 69 291 54L191 44 191 276 46 276 54 306 179 306C152 456 102 602 22 715L36 729C102 659 153 578 191 489L191 961 204 961C228 961 255 945 255 937L255 458C285 499 320 555 331 598 390 645 444 525 255 438L255 306 353 306C365 306 373 302 375 294L378 303C390 322 422 317 438 301 453 284 463 251 461 209L863 209 837 280 846 284 815 321 425 321 433 351 569 351C554 395 532 451 515 490L397 493 431 579C441 577 451 571 456 558 624 534 750 514 845 497 865 522 882 548 890 571 965 614 1002 458 745 384L735 393C764 415 799 445 828 477L552 489C584 450 622 397 654 351L911 351C925 351 934 346 937 335 914 313 881 287 866 276 889 259 917 235 933 218 953 218 964 216 971 209L900 140 862 179 691 179 691 85C714 82 724 72 726 58L626 48 626 179 458 179C455 166 452 152 448 138ZM625 572L625 699 412 699 420 728 625 728 625 894 337 894 345 923 943 923C957 923 966 918 969 907 937 877 886 836 886 836L839 894 690 894 690 728 903 728C917 728 926 723 929 713 898 682 846 641 846 641L801 699 690 699 690 609C713 606 723 596 725 583Z"/>
</svg>