<svg xmlns="http://www.w3.org/2000/svg" name="gid7032" data-unicode="榊"
    viewBox="0 0 1000 1000">
  <!--
© 2017-2024 Adobe (http://www.adobe.com/).
Noto is a trademark of Google Inc.
This Font Software is licensed under the SIL Open Font License, Version 1.1. This Font Software is distributed on an "AS IS" BASIS, WITHOUT WARRANTIES OR CONDITIONS OF ANY KIND, either express or implied. See the SIL Open Font License for the specific language, permissions and limitations governing your use of this Font Software.
http://scripts.sil.org/OFL
  -->
<path d="M323 413L323 553C323 636 321 743 292 822L307 834C363 754 371 639 371 555L371 446C396 443 403 435 405 422ZM522 413L522 792 532 792C550 792 571 778 571 771L571 445C592 442 601 435 603 422ZM326 127L334 157 573 157C587 157 596 152 599 141 567 112 517 71 517 71L472 127ZM865 465L865 635 797 635 797 465ZM865 436L797 436 797 264 865 264ZM678 465L745 465 745 635 678 635ZM678 436L678 264 745 264 745 436ZM742 53L742 236 683 236 622 206 622 732 631 732C656 732 678 718 678 711L678 664 742 664 742 959 752 959C781 959 800 943 800 938L800 664 865 664 865 719 874 719C893 719 922 705 923 699L923 273C941 270 955 262 960 255L890 200 856 236 801 236 801 88C823 84 832 75 834 62ZM302 310L310 339 420 339 420 958 427 958C456 958 475 944 475 939L475 339 594 339C608 339 618 334 620 323 589 293 538 251 538 251L493 310ZM162 44L162 276 43 276 51 306 152 306C131 450 93 596 33 712L48 724C95 661 133 590 162 513L162 957 175 957C196 957 222 943 222 933L222 447C240 485 256 531 260 568 310 615 367 509 222 412L222 306 316 306C330 306 339 301 342 290 316 260 271 218 271 218L232 276 222 276 222 81C246 78 253 69 256 54Z"/>
</svg>