<svg xmlns="http://www.w3.org/2000/svg"
    viewBox="0 0 1000 1000">
  <!--
© 2017-2023 Adobe (http://www.adobe.com/).
Noto is a trademark of Google Inc.
This Font Software is licensed under the SIL Open Font License, Version 1.1. This Font Software is distributed on an "AS IS" BASIS, WITHOUT WARRANTIES OR CONDITIONS OF ANY KIND, either express or implied. See the SIL Open Font License for the specific language, permissions and limitations governing your use of this Font Software.
http://scripts.sil.org/OFL
  -->
<path d="M453 679L442 688C482 719 527 772 540 816 603 858 651 728 453 679ZM623 15L623 143 365 143 372 172 623 172 623 243 487 243 421 213 421 560 431 560C456 560 482 546 482 540L482 493 623 493 623 558 636 558C660 558 688 543 688 535L688 493 837 493 837 548 846 548C867 548 898 535 900 530L900 282C916 279 931 271 937 264L862 207 828 243 688 243 688 172 939 172C952 172 962 167 964 156 933 128 884 91 884 91L882 94C886 68 854 26 744 27L737 38C772 54 817 86 836 111 849 117 860 116 867 111L841 143 688 143 688 51C712 48 721 39 723 25ZM728 535L728 627 348 627 356 657 728 657 728 835C728 850 722 856 703 856 681 856 567 848 567 848L567 864C616 869 644 876 660 886 675 896 680 910 684 929 779 920 790 889 790 838L790 657 942 657C955 657 965 652 966 641 938 613 891 576 891 576L849 627 790 627 790 570C814 566 823 559 826 546ZM837 273L837 352 688 352 688 273ZM837 381L837 464 688 464 688 381ZM482 381L623 381 623 464 482 464ZM482 352L482 273 623 273 623 352ZM191 13L191 249 42 249 50 279 178 279C154 428 106 574 30 687L43 701C107 632 155 553 191 467L191 927 204 927C228 927 255 912 255 903L255 424C285 464 320 520 331 562 389 608 441 491 255 403L255 279 384 279C397 279 407 274 410 263 379 232 330 192 330 192L286 249 255 249 255 52C281 48 288 39 291 24Z"/>
</svg>