<svg xmlns="http://www.w3.org/2000/svg"
    viewBox="0 0 1000 1000">
  <!--
© 2017-2024 Adobe (http://www.adobe.com/).
Noto is a trademark of Google Inc.
This Font Software is licensed under the SIL Open Font License, Version 1.1. This Font Software is distributed on an "AS IS" BASIS, WITHOUT WARRANTIES OR CONDITIONS OF ANY KIND, either express or implied. See the SIL Open Font License for the specific language, permissions and limitations governing your use of this Font Software.
http://scripts.sil.org/OFL
  -->
<path d="M482 456L490 485 928 485C942 485 952 481 954 470 922 440 871 401 871 401L826 456 596 456 596 346 804 346 804 383 814 383C834 383 867 370 867 363L867 229C884 226 898 219 903 212L829 155 795 191 596 191 596 100 914 100C928 100 937 95 939 85 908 56 859 17 859 17L815 71 482 71 490 100 532 100 532 456ZM596 316L596 220 804 220 804 316ZM465 515L465 606 41 606 49 635 392 635C309 736 179 828 33 888L41 905C214 852 364 768 465 660L465 928 477 928C503 928 532 914 532 906L532 635 539 635C622 759 762 853 910 901 917 870 940 848 967 844L969 832C825 802 661 729 566 635L933 635C947 635 957 630 960 619 924 587 866 543 866 543L816 606 532 606 532 552C558 548 567 540 569 526ZM150 15C135 99 104 180 68 232L82 242C115 217 145 184 170 144L246 144 246 191C246 215 244 241 240 268L44 268 52 297 234 297C214 376 166 461 50 535L60 550C189 495 252 420 282 346 326 384 377 442 394 489 460 530 502 397 289 328L298 297 474 297C488 297 498 292 500 282 470 253 422 214 422 214L379 268 304 268C308 241 310 214 310 191L310 144 440 144C452 144 462 139 465 128 435 99 385 61 385 61L342 115 186 115C195 98 203 81 210 63 232 63 243 54 247 41Z"/>
</svg>