<svg xmlns="http://www.w3.org/2000/svg"
    viewBox="0 0 1000 1000">
  <!--
© 2017-2023 Adobe (http://www.adobe.com/).
Noto is a trademark of Google Inc.
This Font Software is licensed under the SIL Open Font License, Version 1.1. This Font Software is distributed on an "AS IS" BASIS, WITHOUT WARRANTIES OR CONDITIONS OF ANY KIND, either express or implied. See the SIL Open Font License for the specific language, permissions and limitations governing your use of this Font Software.
http://scripts.sil.org/OFL
  -->
<path d="M708 62C753 187 835 297 928 373 933 347 947 325 971 317L973 304C872 249 778 153 723 52 746 50 754 45 756 34L651 13C620 130 533 284 442 365L451 380C561 305 658 186 708 62ZM663 274L663 448 457 448 465 478 637 478C595 617 519 741 404 833L416 848C527 778 609 690 663 584L663 926 675 926C699 926 727 911 727 902L727 510C762 642 826 766 911 839 918 814 940 797 968 791L970 779C872 718 781 606 742 478L914 478C928 478 938 473 940 462 909 432 858 391 858 391L814 448 727 448 727 312C753 309 762 299 764 286ZM83 277L83 613 92 613C117 613 143 599 143 593L143 569 214 569 214 687 37 687 45 717 214 717 214 929 224 929C257 929 278 914 278 910L278 717 454 717C468 717 478 712 480 701 449 672 400 632 400 632L358 687 278 687 278 569 351 569 351 599 360 599C380 599 412 584 413 578L413 312C428 310 441 303 445 296L375 242 343 277 279 277 279 170 445 170C459 170 468 165 471 154 439 124 389 83 389 83L344 141 279 141 279 47C302 43 311 34 313 21L215 11 215 141 43 141 51 170 215 170 215 277 148 277 83 247ZM351 540L143 540 143 439 351 439ZM351 411L143 411 143 306 351 306Z"/>
</svg>