<svg xmlns="http://www.w3.org/2000/svg"
    viewBox="0 0 1000 1000">
  <!--
© 2017-2023 Adobe (http://www.adobe.com/).
Noto is a trademark of Google Inc.
This Font Software is licensed under the SIL Open Font License, Version 1.1. This Font Software is distributed on an "AS IS" BASIS, WITHOUT WARRANTIES OR CONDITIONS OF ANY KIND, either express or implied. See the SIL Open Font License for the specific language, permissions and limitations governing your use of this Font Software.
http://scripts.sil.org/OFL
  -->
<path d="M844 30C824 63 801 96 773 129 744 103 708 75 708 75L667 126 616 126 616 55C641 51 651 41 653 27L555 18 555 126 411 126 419 155 555 155 555 255 386 255C356 225 312 190 312 190L268 247 255 247 255 49C281 45 288 36 291 21L191 10 191 247 44 247 52 277 178 277C152 428 102 575 22 688L36 702C102 631 153 550 191 460L191 928 204 928C228 928 255 913 255 904L255 431C285 471 319 526 331 568 375 604 418 544 352 475 401 456 449 434 495 410L495 471C495 537 510 551 596 551L815 551C896 551 922 536 922 510 922 500 917 497 892 488L891 430 877 430C868 463 860 483 854 491 848 499 836 498 818 498L597 498C558 498 556 497 556 473L556 435C648 428 752 409 816 390 836 399 853 399 862 391L793 328C741 356 643 394 556 414L556 375C603 347 647 316 688 284L932 284C946 284 956 280 958 269 927 238 877 199 877 199L832 255 723 255C790 199 845 141 886 85 908 92 918 88 925 78ZM495 325L495 374C445 407 392 437 338 462 318 445 291 427 255 411L255 277 366 277C373 277 379 276 383 273L386 284 616 284C596 301 575 317 554 332ZM616 155L750 155C720 189 686 223 650 255L616 255ZM812 645L812 731 498 731 498 645ZM435 615L435 928 444 928C471 928 498 913 498 907L498 877 812 877 812 925 822 925C843 925 875 910 876 904L876 658C896 654 912 645 919 637L839 576 803 615 503 615 435 585ZM498 760L812 760 812 849 498 849Z"/>
</svg>