<svg xmlns="http://www.w3.org/2000/svg"
    viewBox="0 0 1000 1000">
  <!--
© 2017-2024 Adobe (http://www.adobe.com/).
Noto is a trademark of Google Inc.
This Font Software is licensed under the SIL Open Font License, Version 1.1. This Font Software is distributed on an "AS IS" BASIS, WITHOUT WARRANTIES OR CONDITIONS OF ANY KIND, either express or implied. See the SIL Open Font License for the specific language, permissions and limitations governing your use of this Font Software.
http://scripts.sil.org/OFL
  -->
<path d="M399 584L399 852 298 852 306 882 957 882C970 882 979 877 982 866 960 839 920 801 920 801L887 850 887 620C911 618 925 613 932 603L848 541 815 584 470 584 399 553ZM459 852L459 614 545 614 545 852ZM826 852L739 852 739 614 826 614ZM599 852L599 614 685 614 685 852ZM175 8L175 247 45 247 53 276 161 276C140 422 98 566 30 681L44 693C100 626 143 551 175 468L175 926 189 926C212 926 239 911 239 902L239 426C267 466 299 522 309 564 368 611 422 492 239 405L239 276 359 276C373 276 381 271 384 260 356 231 308 190 308 190L265 247 239 247 239 47C264 43 272 33 275 19ZM378 449L413 529C424 527 433 521 439 509 608 485 732 464 824 447 844 474 859 501 866 526 936 572 976 416 733 331L722 341C750 363 782 394 809 428L529 444C560 404 597 351 628 305L927 305C940 305 950 300 952 289 922 259 873 217 873 217L828 276 667 276 667 168 874 168C888 168 897 163 900 152 870 123 821 82 821 82L777 139 667 139 667 56C692 53 702 43 704 29L604 18 604 139 412 139 420 168 604 168 604 276 363 276 370 305 548 305C532 349 511 405 494 445Z"/>
</svg>