<svg xmlns="http://www.w3.org/2000/svg" name="gid7071" data-unicode="構"
    viewBox="0 0 1000 1000">
  <!--
© 2017-2024 Adobe (http://www.adobe.com/).
Noto is a trademark of Google Inc.
This Font Software is licensed under the SIL Open Font License, Version 1.1. This Font Software is distributed on an "AS IS" BASIS, WITHOUT WARRANTIES OR CONDITIONS OF ANY KIND, either express or implied. See the SIL Open Font License for the specific language, permissions and limitations governing your use of this Font Software.
http://scripts.sil.org/OFL
  -->
<path d="M187 44L187 279 39 279 47 309 172 309C148 458 103 603 30 717L43 731C105 661 152 583 187 496L187 957 201 957C224 957 250 942 250 933L250 413C280 454 316 510 328 553 386 597 439 479 250 392L250 309 378 309C392 309 402 304 404 293 374 263 325 222 325 222L282 279 250 279 250 82C275 78 283 69 286 54ZM406 479L406 740 314 740 322 769 406 769 406 957 416 957C441 957 466 941 466 935L466 769 810 769 810 862C810 876 805 881 789 881 770 881 685 875 685 875L685 891C723 896 746 903 758 913 770 922 775 939 777 957 861 949 871 918 871 869L871 769 949 769C963 769 971 764 973 753 950 726 909 689 909 689L873 740 871 740 871 519C891 515 906 508 913 500L831 440 800 479 665 479 665 405 935 405C949 405 959 400 961 389 932 361 885 323 885 323L843 376 759 376 759 289 899 289C911 289 921 284 923 273 896 246 851 210 851 210L812 259 759 259 759 179 921 179C935 179 945 174 948 163 918 135 870 98 870 98L828 150 759 150 759 84C781 80 791 71 793 57L697 47 697 150 562 150 562 84C585 80 594 71 596 57L501 47 501 150 363 150 370 179 501 179 501 259 400 259 408 289 501 289 501 376 343 376 351 405 604 405 604 479 471 479 406 447ZM562 179L697 179 697 259 562 259ZM562 289L697 289 697 376 562 376ZM604 740L466 740 466 634 604 634ZM665 740L665 634 810 634 810 740ZM604 604L466 604 466 508 604 508ZM665 604L665 508 810 508 810 604Z"/>
</svg>