<svg xmlns="http://www.w3.org/2000/svg" name="gid7072" data-unicode="槌"
    viewBox="0 0 1000 1000">
  <!--
© 2017-2024 Adobe (http://www.adobe.com/).
Noto is a trademark of Google Inc.
This Font Software is licensed under the SIL Open Font License, Version 1.1. This Font Software is distributed on an "AS IS" BASIS, WITHOUT WARRANTIES OR CONDITIONS OF ANY KIND, either express or implied. See the SIL Open Font License for the specific language, permissions and limitations governing your use of this Font Software.
http://scripts.sil.org/OFL
  -->
<path d="M382 66L372 75C411 107 457 163 469 208 534 252 582 118 382 66ZM491 787L491 545C508 542 522 534 528 527L457 472 424 508 340 508 343 518C326 490 294 459 239 431L239 306 352 306C366 306 374 301 377 290 410 323 442 374 450 417 512 462 568 332 381 276L371 284C343 256 302 221 302 221L260 277 239 277 239 83C264 79 272 70 275 55L177 44 177 277 42 277 50 306 161 306C137 452 93 598 22 712L36 724C97 653 143 572 177 484L177 958 190 958C213 958 239 943 239 934L239 455C266 494 295 548 303 590 338 619 371 587 352 537L432 537 432 812C389 842 344 871 314 887L360 960C367 955 371 948 369 937 399 906 448 849 480 808 524 916 584 939 707 939 783 939 866 939 934 939 937 912 950 894 972 890L972 876C892 878 789 878 708 878 595 878 541 866 491 787ZM701 42C691 82 675 138 663 176L636 176 570 145 570 818 581 818C609 818 631 802 631 795L631 755 853 755 853 803 863 803C883 803 913 788 914 782L914 557C934 553 950 545 957 537L879 478 843 515 631 515 631 406 834 406 834 447 844 447C864 447 895 433 896 427L896 217C914 213 931 205 937 197L860 138 824 176 694 176 767 86C787 87 800 79 804 65ZM631 378L631 205 834 205 834 378ZM631 725L631 545 853 545 853 725Z"/>
</svg>