<svg xmlns="http://www.w3.org/2000/svg" name="gid7078" data-unicode="槓"
    viewBox="0 0 1000 1000">
  <!--
© 2017-2024 Adobe (http://www.adobe.com/).
Noto is a trademark of Google Inc.
This Font Software is licensed under the SIL Open Font License, Version 1.1. This Font Software is distributed on an "AS IS" BASIS, WITHOUT WARRANTIES OR CONDITIONS OF ANY KIND, either express or implied. See the SIL Open Font License for the specific language, permissions and limitations governing your use of this Font Software.
http://scripts.sil.org/OFL
  -->
<path d="M711 790L704 806C793 848 851 899 880 943 939 1005 1049 859 711 790ZM561 779C515 833 415 905 321 943L328 959C434 933 543 883 604 838 629 843 644 841 649 830ZM512 492L815 492 815 590 512 590ZM512 463L512 370 815 370 815 463ZM512 619L815 619 815 718 512 718ZM448 340L448 799 458 799C491 799 512 784 512 779L512 747 815 747 815 791 824 791C855 791 880 776 880 771L880 375C901 372 911 366 917 357L844 301 812 340 523 340 448 309ZM390 237L398 266 940 266C954 266 963 261 965 251 933 221 881 180 881 180L835 237 692 237 692 134 901 134C915 134 926 129 928 118 896 88 843 47 843 47L797 105 428 105 435 134 627 134 627 237ZM191 43L191 278 45 278 53 307 178 307C152 456 101 603 20 716L35 730C102 660 153 579 191 489L191 957 204 957C228 957 255 942 255 933L255 460C286 501 320 557 332 601 390 647 445 528 255 440L255 307 377 307C389 307 399 302 402 291 372 261 322 220 322 220L278 278 255 278 255 82C281 78 288 69 291 54Z"/>
</svg>