<svg xmlns="http://www.w3.org/2000/svg"
    viewBox="0 0 1000 1000">
  <!--
© 2017-2023 Adobe (http://www.adobe.com/).
Noto is a trademark of Google Inc.
This Font Software is licensed under the SIL Open Font License, Version 1.1. This Font Software is distributed on an "AS IS" BASIS, WITHOUT WARRANTIES OR CONDITIONS OF ANY KIND, either express or implied. See the SIL Open Font License for the specific language, permissions and limitations governing your use of this Font Software.
http://scripts.sil.org/OFL
  -->
<path d="M426 508L415 515C449 548 488 605 493 650 554 697 610 569 426 508ZM191 13L191 246 39 246 47 276 179 276C154 425 107 570 31 684L45 698C108 629 156 550 191 464L191 926 204 926C228 926 254 912 254 902L254 418C281 459 311 515 321 558 378 607 435 488 254 394L254 276 381 276C394 276 404 271 407 260 377 230 327 189 327 189L284 246 254 246 254 51C280 47 287 38 290 23ZM854 499C830 537 781 599 738 644 713 607 692 562 678 508L678 469 937 469C951 469 961 464 963 453 931 423 879 383 879 383L834 440 678 440 678 331 894 331C907 331 917 326 919 315 888 285 836 246 836 246L791 302 678 302 678 204 921 204C934 204 944 199 947 188 915 158 863 119 863 119L818 174 720 174C755 138 794 92 818 59 840 60 851 52 855 41L757 11C741 58 715 126 695 174L568 174C612 170 627 72 481 16L470 22C499 58 533 116 538 163 546 170 554 173 561 174L384 174 392 204 615 204 615 302 414 302 422 331 615 331 615 440 370 440 377 469 615 469 615 666 614 664C496 723 380 779 331 799L385 867C394 862 400 852 401 840 494 775 564 720 615 682L615 831C615 845 611 851 594 851 576 851 492 844 492 844L492 859C531 864 553 871 566 882 577 892 581 909 583 927 667 918 678 882 678 834L678 563C724 736 807 819 924 883 932 853 951 830 976 824L977 813C894 784 812 742 751 662 805 630 863 589 899 559 921 567 929 563 936 553Z"/>
</svg>