<svg xmlns="http://www.w3.org/2000/svg"
    viewBox="0 0 1000 1000">
  <!--
© 2017-2023 Adobe (http://www.adobe.com/).
Noto is a trademark of Google Inc.
This Font Software is licensed under the SIL Open Font License, Version 1.1. This Font Software is distributed on an "AS IS" BASIS, WITHOUT WARRANTIES OR CONDITIONS OF ANY KIND, either express or implied. See the SIL Open Font License for the specific language, permissions and limitations governing your use of this Font Software.
http://scripts.sil.org/OFL
  -->
<path d="M340 695L348 725 948 725C961 725 971 720 974 709 941 678 888 638 888 638L840 695ZM709 755L702 771C796 815 860 869 891 915 953 977 1063 827 709 755ZM546 744C502 799 407 874 317 914L325 929C429 902 535 849 594 803 619 807 634 803 640 794ZM510 387L796 387 796 471 510 471ZM510 357L510 276 796 276 796 357ZM510 499L796 499 796 585 510 585ZM446 247L446 665 456 665C489 665 510 648 510 643L510 615 796 615 796 657 806 657C827 657 860 642 861 635L861 288C881 285 897 277 904 269L823 207 786 247 681 247 681 160 930 160C944 160 953 155 956 145 924 114 871 72 871 72L825 131 681 131 681 51C705 48 715 38 717 25L617 15 617 131 372 131 379 160 617 160 617 247 522 247 446 214ZM333 571C392 617 447 498 256 411L256 277 385 277C399 277 409 272 412 261 381 231 331 190 331 190L287 248 256 248 256 53C282 49 290 40 293 25L192 14 192 248 41 248 49 277 180 277C154 426 103 572 24 686L38 700C104 630 155 550 192 461L192 928 206 928C230 928 256 913 256 904L256 429C286 470 322 527 333 571Z"/>
</svg>