<svg xmlns="http://www.w3.org/2000/svg"
    viewBox="0 0 1000 1000">
  <!--
© 2017-2023 Adobe (http://www.adobe.com/).
Noto is a trademark of Google Inc.
This Font Software is licensed under the SIL Open Font License, Version 1.1. This Font Software is distributed on an "AS IS" BASIS, WITHOUT WARRANTIES OR CONDITIONS OF ANY KIND, either express or implied. See the SIL Open Font License for the specific language, permissions and limitations governing your use of this Font Software.
http://scripts.sil.org/OFL
  -->
<path d="M176 8L176 247 43 247 51 276 161 276C139 421 98 567 30 681L44 694C101 625 144 548 176 463L176 926 189 926C212 926 239 911 239 903L239 426C267 466 299 521 309 563 367 609 419 492 239 404L239 276 348 276C361 276 371 271 374 260L373 259C430 228 482 181 510 142 533 146 541 142 546 132L472 95 553 95 553 239 506 217C475 286 407 379 336 434L347 448C432 402 509 325 550 266L553 266 553 433 562 433C583 433 613 417 614 411L614 106C634 102 649 94 655 87L578 27 543 66 347 66 356 95 467 95C446 142 404 204 357 244 330 218 298 191 298 191L256 247 239 247 239 47C263 43 271 33 274 19ZM811 214C780 276 713 358 644 408L655 421C738 382 814 316 855 263L861 264 861 433 870 433C890 433 921 418 922 413L922 107C942 103 959 95 965 88L886 26 851 66 656 66 665 95 772 95C749 143 700 210 650 250L662 263C725 232 783 182 817 142 839 146 846 142 853 132L780 95 861 95 861 238ZM823 704L823 834 485 834 485 704ZM823 675L485 675 485 550 823 550ZM609 431C606 455 598 493 592 520L491 520 422 488 422 927 433 927C459 927 485 912 485 906L485 864 823 864 823 913 832 913C854 913 886 898 887 891L887 562C907 558 923 550 929 542L849 481 814 520 627 520 673 473C694 472 706 464 710 450Z"/>
</svg>