<svg xmlns="http://www.w3.org/2000/svg"
    viewBox="0 0 1000 1000">
  <!--
© 2017-2024 Adobe (http://www.adobe.com/).
Noto is a trademark of Google Inc.
This Font Software is licensed under the SIL Open Font License, Version 1.1. This Font Software is distributed on an "AS IS" BASIS, WITHOUT WARRANTIES OR CONDITIONS OF ANY KIND, either express or implied. See the SIL Open Font License for the specific language, permissions and limitations governing your use of this Font Software.
http://scripts.sil.org/OFL
  -->
<path d="M438 0C433 40 425 96 417 137L411 137 348 106 348 236 298 189 257 246 230 246 230 46C255 42 263 32 266 18L168 7 168 246 37 246 45 276 156 276C134 421 96 569 33 685L48 698C98 631 138 556 168 475L168 925 181 925C204 925 230 909 230 900L230 438C259 478 290 533 296 575 322 596 346 582 348 552L348 895 359 895C385 895 406 880 406 873L406 738 618 738C631 738 640 733 643 722 617 695 572 660 572 660L534 708 406 708 406 598 609 598C622 598 631 593 634 582 607 556 563 521 563 521L525 569 406 569 406 460 529 460 529 499 537 499C557 499 585 485 586 480L586 174C602 171 617 163 622 156L552 103 520 137 445 137C465 105 486 67 500 37 522 35 533 25 535 13ZM230 276L345 276 348 276 348 545C346 511 316 459 230 416ZM406 307L529 307 529 430 406 430ZM406 278L406 166 529 166 529 278ZM591 440L599 469 759 469C717 645 632 792 468 916L480 928C621 845 710 744 766 624L766 829C766 897 777 914 833 914L894 914C945 914 965 895 965 870 965 860 961 856 942 847L939 761 926 761C919 804 912 835 908 847 903 856 899 857 893 857L839 857C826 857 826 856 826 831L826 532C844 529 854 520 856 508L811 502 820 469 949 469C963 469 971 464 974 453 944 423 895 382 895 382L851 440 827 440C848 342 858 233 863 114L925 114C939 114 949 109 952 98 919 68 867 28 867 28L821 85 610 85 618 114 655 114 655 440ZM711 114L798 114C796 233 787 341 766 440L711 440Z"/>
</svg>