<svg xmlns="http://www.w3.org/2000/svg" name="gid7095" data-unicode="槯"
    viewBox="0 0 1000 1000">
  <!--
© 2017-2024 Adobe (http://www.adobe.com/).
Noto is a trademark of Google Inc.
This Font Software is licensed under the SIL Open Font License, Version 1.1. This Font Software is distributed on an "AS IS" BASIS, WITHOUT WARRANTIES OR CONDITIONS OF ANY KIND, either express or implied. See the SIL Open Font License for the specific language, permissions and limitations governing your use of this Font Software.
http://scripts.sil.org/OFL
  -->
<path d="M191 40L191 279 43 279 51 309 178 309C151 459 102 605 22 718L36 732C102 661 153 580 191 491L191 958 204 958C228 958 255 943 255 934L255 397C284 436 316 490 327 530 384 575 436 460 255 377L255 309 377 309C390 309 400 304 403 293 373 262 322 222 322 222L278 279 255 279 255 79C281 75 288 66 291 51ZM675 306C667 350 650 410 634 453L506 453 491 447C510 414 525 381 537 352 561 355 570 349 574 338L476 301C451 404 392 549 315 643L326 655C366 622 401 582 432 540L432 958 441 958C472 958 494 942 494 936L494 899 940 899C953 899 963 894 965 883 934 853 884 813 884 813L839 870 709 870 709 755 898 755C911 755 921 750 923 739 894 710 847 673 847 673L806 725 709 725 709 618 891 618C903 618 913 613 916 602 887 574 840 536 840 536L799 588 709 588 709 483 915 483C929 483 938 478 940 467 910 438 862 399 862 399L819 453 659 453C689 420 718 380 738 348 759 348 771 338 774 326ZM494 483L646 483 646 588 494 588ZM494 618L646 618 646 725 494 725ZM494 755L646 755 646 870 494 870ZM847 91L847 252 684 252 684 82C707 78 715 68 717 55L623 46 623 252 468 252 468 123C490 120 499 112 501 99L407 89 407 336 418 336C442 336 468 323 468 316L468 282 847 282 847 327 859 327C883 327 909 314 909 307L909 126C933 123 942 114 944 101Z"/>
</svg>