<svg xmlns="http://www.w3.org/2000/svg"
    viewBox="0 0 1000 1000">
  <!--
© 2017-2024 Adobe (http://www.adobe.com/).
Noto is a trademark of Google Inc.
This Font Software is licensed under the SIL Open Font License, Version 1.1. This Font Software is distributed on an "AS IS" BASIS, WITHOUT WARRANTIES OR CONDITIONS OF ANY KIND, either express or implied. See the SIL Open Font License for the specific language, permissions and limitations governing your use of this Font Software.
http://scripts.sil.org/OFL
  -->
<path d="M694 315C687 350 675 400 666 436L537 436C566 393 593 348 615 301L937 301C951 301 960 296 963 285 932 256 882 215 882 215L837 272 628 272C645 234 659 195 671 156L891 156C905 156 915 152 917 141 886 110 835 70 835 70L789 127 533 127C547 106 560 85 571 62 591 63 603 54 607 43L507 10C483 98 444 188 405 245L419 255C452 230 484 196 513 156L588 156C580 194 568 233 554 272L388 272C392 270 394 267 395 263 365 232 315 191 315 191L272 249 256 249 256 50C281 46 289 37 292 22L192 11 192 249 43 249 51 279 179 279C154 428 107 573 31 687L45 701C108 632 156 553 192 466L192 928 205 928C229 928 256 913 256 904L256 382C286 423 321 479 332 522 391 568 446 449 256 361L256 279 369 279 378 278 384 301 542 301C491 427 411 549 316 643L327 655C377 618 423 576 464 529L464 929 473 929C504 929 524 912 524 907L524 874 936 874C950 874 960 869 963 858 931 828 880 788 880 788L835 845 726 845 726 732 903 732C916 732 926 727 928 716 900 687 852 650 852 650L811 702 726 702 726 598 903 598C916 598 926 593 929 582 899 553 852 516 852 516L811 568 726 568 726 465 922 465C936 465 945 460 948 449 918 420 871 382 871 382L829 436 697 436C717 411 742 382 759 358 779 359 792 351 796 337ZM664 465L664 568 524 568 524 465ZM664 845L524 845 524 732 664 732ZM664 598L664 702 524 702 524 598Z"/>
</svg>