<svg xmlns="http://www.w3.org/2000/svg"
    viewBox="0 0 1000 1000">
  <!--
© 2017-2023 Adobe (http://www.adobe.com/).
Noto is a trademark of Google Inc.
This Font Software is licensed under the SIL Open Font License, Version 1.1. This Font Software is distributed on an "AS IS" BASIS, WITHOUT WARRANTIES OR CONDITIONS OF ANY KIND, either express or implied. See the SIL Open Font License for the specific language, permissions and limitations governing your use of this Font Software.
http://scripts.sil.org/OFL
  -->
<path d="M476 551C473 605 434 652 398 668 378 679 365 698 373 718 383 740 415 739 440 725 476 703 515 643 494 551ZM355 89L363 118 543 118 543 228 457 228 387 198 387 514 396 514C427 514 446 499 446 494L446 455 850 455 850 501 860 501C888 501 911 487 911 483L911 261C931 257 941 252 947 245L878 192 847 228 754 228 754 118 939 118C953 118 963 113 965 102 933 73 881 34 881 34L836 89ZM446 425L446 257 543 257 543 425ZM850 425L754 425 754 257 850 257ZM599 257L697 257 697 425 599 425ZM599 228L599 118 697 118 697 228ZM847 548C818 589 766 657 726 703 695 651 681 588 673 513L672 513C693 510 703 500 704 488L604 479C601 660 597 809 310 915L321 932C589 852 648 738 665 609 687 758 743 869 904 928 911 892 931 878 965 873L967 861C850 829 778 782 735 717 787 685 859 639 899 610 919 614 929 611 934 603ZM177 14L177 246 43 246 51 276 164 276C141 421 100 566 33 681L47 693C103 626 145 550 177 467L177 927 191 927C215 927 241 913 241 903L241 430C268 469 301 525 310 566 370 613 425 494 241 408L241 276 361 276C375 276 383 271 386 260 357 230 309 190 309 190L266 246 241 246 241 52C266 48 274 39 277 24Z"/>
</svg>