<svg xmlns="http://www.w3.org/2000/svg"
    viewBox="0 0 1000 1000">
  <!--
© 2017-2023 Adobe (http://www.adobe.com/).
Noto is a trademark of Google Inc.
This Font Software is licensed under the SIL Open Font License, Version 1.1. This Font Software is distributed on an "AS IS" BASIS, WITHOUT WARRANTIES OR CONDITIONS OF ANY KIND, either express or implied. See the SIL Open Font License for the specific language, permissions and limitations governing your use of this Font Software.
http://scripts.sil.org/OFL
  -->
<path d="M395 45L383 52C409 87 440 146 446 191 500 238 559 126 395 45ZM832 39C811 94 783 153 763 190L778 200C812 173 851 132 885 93 904 97 917 88 921 79ZM178 14L178 247 45 247 53 276 165 276C142 421 99 567 30 682L45 694C102 626 145 549 178 465L178 927 192 927C215 927 242 913 242 904L242 426C269 465 302 520 311 562 371 609 426 490 242 404L242 276 361 276C375 276 384 271 386 260 357 231 310 191 310 191L267 247 242 247 242 53C267 49 275 40 278 25ZM679 18L679 229 601 229 601 52C621 49 630 41 632 28L544 18 544 229 377 229 385 259 495 259 485 263C503 294 526 346 530 385 584 432 648 330 499 259L736 259C725 301 705 360 690 401L374 401 382 430 602 430 602 522 402 522 410 551 602 551 602 553C602 588 599 622 590 655L351 655 359 683 581 683C549 768 475 847 308 914L316 930C529 869 615 779 648 683L665 683C693 762 757 872 902 935 907 893 928 881 964 875L965 863C810 815 727 744 688 683L930 683C944 683 953 678 956 668 923 638 871 597 871 597L825 655 656 655C664 621 667 586 667 551L885 551C899 551 908 547 910 536 880 505 828 465 828 465L783 522 667 522 667 430 922 430C936 430 945 425 948 415 915 385 864 345 864 345L819 401 715 401C744 369 775 332 797 303 818 304 831 296 835 285L747 259 933 259C947 259 957 254 959 243 927 214 876 175 876 175L832 229 736 229 736 52C757 49 766 41 768 28Z"/>
</svg>