<svg xmlns="http://www.w3.org/2000/svg"
    viewBox="0 0 1000 1000">
  <!--
© 2017-2024 Adobe (http://www.adobe.com/).
Noto is a trademark of Google Inc.
This Font Software is licensed under the SIL Open Font License, Version 1.1. This Font Software is distributed on an "AS IS" BASIS, WITHOUT WARRANTIES OR CONDITIONS OF ANY KIND, either express or implied. See the SIL Open Font License for the specific language, permissions and limitations governing your use of this Font Software.
http://scripts.sil.org/OFL
  -->
<path d="M544 270L544 404 422 404 422 270ZM168 14L168 246 42 246 50 276 158 276C136 419 96 565 33 680L48 693C98 628 137 555 168 476L168 927 180 927C203 927 229 912 229 902L229 435C254 475 280 528 287 569 341 615 395 502 229 409L229 276 332 276C340 276 346 274 350 270L363 270 363 744 275 757 319 835C328 832 336 825 340 813 428 780 495 751 544 730L544 922 553 922C583 922 603 907 603 902L603 270 661 270C675 270 684 265 687 254 657 225 609 187 609 187L567 240 513 240 513 123 629 123C641 123 651 118 653 107 625 79 576 40 576 40L534 93 337 93 345 123 454 123 454 240 339 240C313 215 284 189 284 189L244 246 228 246 229 53C254 49 262 40 265 25ZM544 433L544 566 422 566 422 433ZM544 595L544 711 422 733 422 595ZM727 23C711 194 671 369 619 490L634 499C659 464 681 424 701 379 713 486 733 587 764 677 728 764 677 843 607 914L618 927C691 870 746 807 787 736 820 810 862 875 918 929 928 899 951 884 978 879L982 870C912 821 859 755 818 678 874 559 898 423 910 269L947 269C961 269 970 264 973 253 944 223 894 183 894 183L852 239 753 239C770 184 783 126 794 67 817 65 828 55 831 43ZM716 344C726 320 735 295 744 269L844 269C838 393 822 508 788 614 754 532 731 441 716 344Z"/>
</svg>