<svg xmlns="http://www.w3.org/2000/svg" name="gid7168" data-unicode="橙"
    viewBox="0 0 1000 1000">
  <!--
© 2017-2024 Adobe (http://www.adobe.com/).
Noto is a trademark of Google Inc.
This Font Software is licensed under the SIL Open Font License, Version 1.1. This Font Software is distributed on an "AS IS" BASIS, WITHOUT WARRANTIES OR CONDITIONS OF ANY KIND, either express or implied. See the SIL Open Font License for the specific language, permissions and limitations governing your use of this Font Software.
http://scripts.sil.org/OFL
  -->
<path d="M520 356L528 384 768 384C781 384 790 380 793 369 763 340 714 303 714 303L671 356ZM505 705L493 709C516 751 543 815 547 864 607 920 675 797 505 705ZM190 44L190 276 44 276 52 306 178 306C153 455 105 600 29 714L42 728C106 659 154 580 190 493L190 958 204 958C227 958 254 943 254 934L254 457C284 499 319 556 331 599 390 646 444 526 254 438L254 306 378 306C392 306 402 301 404 290 375 259 324 218 324 218L280 276 254 276 254 83C280 79 288 70 290 55ZM415 97L424 125 562 125C547 170 526 216 499 260 497 232 466 193 380 171L370 178C399 205 436 252 448 287 459 294 469 296 478 294 437 353 387 407 329 448L340 462C486 383 579 257 628 131 650 130 661 127 668 118L601 59 561 97ZM743 697C727 753 701 833 683 891L339 891 347 920 938 920C952 920 961 915 964 904 932 874 881 833 881 833L836 891 706 891C740 844 777 787 803 746 824 747 837 739 841 727ZM447 467L447 705 457 705C490 705 511 691 511 686L511 655 792 655 792 693 803 693C834 693 857 678 857 674L857 500C877 497 887 492 893 484L822 430 789 467 522 467 447 436ZM511 626L511 497 792 497 792 626ZM904 179C887 203 851 244 819 275 797 250 776 223 757 194 800 176 845 149 870 133 884 137 891 135 896 128L827 84C811 106 776 149 747 178 724 140 705 99 690 56L672 63C718 239 804 375 921 451 929 424 949 407 972 403L974 393C924 370 877 335 834 291 878 272 922 245 946 230 960 234 967 233 972 226Z"/>
</svg>