<svg xmlns="http://www.w3.org/2000/svg"
    viewBox="0 0 1000 1000">
  <!--
© 2017-2023 Adobe (http://www.adobe.com/).
Noto is a trademark of Google Inc.
This Font Software is licensed under the SIL Open Font License, Version 1.1. This Font Software is distributed on an "AS IS" BASIS, WITHOUT WARRANTIES OR CONDITIONS OF ANY KIND, either express or implied. See the SIL Open Font License for the specific language, permissions and limitations governing your use of this Font Software.
http://scripts.sil.org/OFL
  -->
<path d="M572 635L563 645C608 669 662 717 680 758 747 790 774 656 572 635ZM805 683L794 691C837 733 887 804 893 862 961 916 1020 764 805 683ZM507 676L507 853C507 895 519 909 585 909L670 909C797 909 824 899 824 873 824 860 818 854 798 847L795 774 784 774C775 806 766 836 760 846 757 852 752 854 744 854 734 855 706 855 674 855L598 855C571 855 567 852 567 841L567 709C584 707 594 697 595 686ZM417 698C416 750 379 801 346 819 327 831 316 850 325 869 336 888 369 885 389 870 421 846 453 787 435 698ZM191 15L191 232 44 232 52 261 179 261C154 410 105 557 29 671L42 685C106 616 155 537 191 450L191 928 205 928C228 928 254 913 254 904L254 411C284 452 320 509 332 552 391 599 445 479 254 392L254 261 377 261C390 261 400 256 403 245 373 216 322 174 322 174L278 232 254 232 254 53C280 49 288 40 291 25ZM421 369L421 660 431 660C462 660 483 645 483 640L483 606 813 606 813 647 821 647C852 647 876 633 876 629L876 402C896 399 905 393 912 386L840 331 809 369 495 369 421 338ZM483 576L483 500 813 500 813 576ZM483 471L483 398 813 398 813 471ZM612 13L612 118 372 118 380 148 496 148 494 149C512 177 532 225 531 263 581 310 646 213 513 148L742 148C730 186 713 241 700 279L345 279 353 308 941 308C955 308 964 303 967 292 935 264 884 225 884 225L838 279 725 279C752 251 780 217 800 191 822 192 834 184 838 172L754 148 905 148C919 148 929 143 932 132 899 103 848 66 848 66L804 118 676 118 676 50C700 47 710 37 712 23Z"/>
</svg>