<svg xmlns="http://www.w3.org/2000/svg" name="gid7197" data-unicode="檔"
    viewBox="0 0 1000 1000">
  <!--
© 2017-2024 Adobe (http://www.adobe.com/).
Noto is a trademark of Google Inc.
This Font Software is licensed under the SIL Open Font License, Version 1.1. This Font Software is distributed on an "AS IS" BASIS, WITHOUT WARRANTIES OR CONDITIONS OF ANY KIND, either express or implied. See the SIL Open Font License for the specific language, permissions and limitations governing your use of this Font Software.
http://scripts.sil.org/OFL
  -->
<path d="M434 61L423 68C453 103 490 159 497 203 557 248 610 129 434 61ZM805 58C787 107 759 173 732 222L679 222 679 83C702 79 710 70 712 57L617 48 617 222 433 222C432 210 429 197 426 184L408 184C409 222 387 264 364 285 335 257 291 220 291 220L249 277 239 277 239 77C264 73 272 63 274 49L175 38 175 277 45 277 53 306 161 306C140 452 99 596 31 711L45 723C101 656 143 581 175 499L175 956 189 956C212 956 239 941 239 932L239 454C267 493 299 548 309 590 368 636 422 518 239 431L239 306 340 306C330 317 326 330 332 344 344 366 377 364 396 349 417 332 434 298 434 251L860 251C853 275 844 304 837 323L815 306 785 341 526 341 455 311 455 549 464 549C495 549 514 535 514 530L514 506 788 506 788 542 798 542C826 542 848 528 848 524L848 373C868 370 877 365 884 358L852 334C877 315 911 282 930 261 949 260 961 258 967 251L896 181 857 222 761 222C799 185 838 140 862 105 884 105 895 97 900 85ZM514 476L514 370 788 370 788 476ZM456 762L618 762 618 874 456 874ZM846 762L846 874 677 874 677 762ZM456 732L456 624 618 624 618 732ZM846 732L677 732 677 624 846 624ZM396 595L396 957 406 957C437 957 456 942 456 937L456 904 846 904 846 953 857 953C885 953 908 939 908 935L908 628C929 625 939 619 946 612L874 557 843 595 468 595 396 564Z"/>
</svg>