<svg xmlns="http://www.w3.org/2000/svg"
    viewBox="0 0 1000 1000">
  <!--
© 2017-2024 Adobe (http://www.adobe.com/).
Noto is a trademark of Google Inc.
This Font Software is licensed under the SIL Open Font License, Version 1.1. This Font Software is distributed on an "AS IS" BASIS, WITHOUT WARRANTIES OR CONDITIONS OF ANY KIND, either express or implied. See the SIL Open Font License for the specific language, permissions and limitations governing your use of this Font Software.
http://scripts.sil.org/OFL
  -->
<path d="M698 435L705 465 921 465C935 465 945 460 948 449 918 419 869 380 869 380L827 435ZM174 14L174 247 41 247 49 276 160 276C139 422 101 570 37 686L53 699C104 633 143 558 174 477L174 928 187 928C210 928 237 913 237 904L237 414C264 454 293 508 298 552 352 599 407 480 237 389L237 276 352 276C357 276 361 275 364 274L364 565 371 565C378 565 385 564 391 562L391 872 291 872 299 901 948 901C962 901 970 896 973 885 947 856 902 814 902 814L867 867 867 628C892 625 904 620 912 610L829 548 796 592 461 592 394 561C410 557 420 548 420 545L420 508 678 508C691 508 701 503 703 492 674 464 627 427 627 427L586 479 541 479 541 374 586 374 586 403 594 403C613 403 640 389 641 383L641 239C656 236 668 229 674 223L608 174 578 205 539 205 539 104 654 104C668 104 677 99 679 89 650 60 603 23 603 23L561 75 432 75 364 45 364 246C338 219 304 189 304 189L265 247 237 247 237 53C261 49 269 40 272 25ZM450 872L450 620 531 620 531 872ZM808 872L721 872 721 620 808 620ZM585 872L585 620 667 620 667 872ZM488 374L488 479 420 479 420 374ZM488 345L420 345 420 234 586 234 586 345ZM487 104L487 205 420 205 420 104ZM730 31C722 148 699 271 667 358L684 366C711 326 733 277 752 223L939 223C953 223 962 218 964 207 936 178 889 140 889 140L847 193 762 193C774 155 784 115 792 75 813 74 823 64 827 52Z"/>
</svg>