<svg xmlns="http://www.w3.org/2000/svg" name="gid7223" data-unicode="櫁"
    viewBox="0 0 1000 1000">
  <!--
© 2017-2024 Adobe (http://www.adobe.com/).
Noto is a trademark of Google Inc.
This Font Software is licensed under the SIL Open Font License, Version 1.1. This Font Software is distributed on an "AS IS" BASIS, WITHOUT WARRANTIES OR CONDITIONS OF ANY KIND, either express or implied. See the SIL Open Font License for the specific language, permissions and limitations governing your use of this Font Software.
http://scripts.sil.org/OFL
  -->
<path d="M567 209L558 219C594 237 637 273 654 304 714 329 738 216 567 209ZM820 297L810 305C846 338 888 396 897 442 959 487 1010 358 820 297ZM445 293C443 333 413 374 386 389 367 401 357 420 365 438 375 456 407 453 426 441 453 419 479 367 464 294ZM434 110C432 152 404 199 378 218 360 231 348 251 358 270 331 245 301 220 301 220L259 277 239 277 239 82C264 78 271 69 274 54L175 44 175 277 45 277 53 306 161 306C139 452 98 596 30 711L44 723C100 656 143 581 175 498L175 957 188 957C212 957 239 942 239 933L239 420C266 455 295 505 304 543 362 586 416 472 239 397L239 306 352 306C366 306 376 301 378 290L370 283C385 289 407 284 421 272 439 255 455 223 457 179L852 179 833 254 846 260C870 244 906 212 928 191 946 190 958 188 965 181L890 108 848 151 682 151 682 87C705 84 715 74 716 61L620 50 620 151 457 151C456 138 454 125 451 111ZM621 535L621 606 486 606 413 574 413 806 423 806C454 806 475 792 475 787L475 762 621 762 621 864C508 869 413 873 359 874L393 955C402 953 413 946 418 934 605 909 744 890 849 873 872 899 891 927 900 952 970 993 1010 849 784 791L774 799C792 814 812 832 831 852L682 860 682 762 833 762 833 792 843 792C873 792 897 778 897 774L897 639C916 635 926 630 931 623L862 569 831 606 682 606 682 569C704 566 711 557 713 545ZM518 273L518 452C518 460 518 467 520 472 455 518 382 559 307 589L315 605C398 579 476 544 545 502 556 506 573 508 596 508L687 508C819 508 845 498 845 472 845 461 839 455 819 448L816 385 805 385C797 414 788 439 782 448 778 454 774 455 765 455 755 456 725 456 689 456L615 456C695 399 759 334 803 271 826 276 836 273 842 262L760 220C720 292 655 365 575 430L575 306C591 303 601 294 603 283ZM621 636L621 732 475 732 475 636ZM682 636L833 636 833 732 682 732Z"/>
</svg>