<svg xmlns="http://www.w3.org/2000/svg"
    viewBox="0 0 1000 1000">
  <!--
© 2017-2023 Adobe (http://www.adobe.com/).
Noto is a trademark of Google Inc.
This Font Software is licensed under the SIL Open Font License, Version 1.1. This Font Software is distributed on an "AS IS" BASIS, WITHOUT WARRANTIES OR CONDITIONS OF ANY KIND, either express or implied. See the SIL Open Font License for the specific language, permissions and limitations governing your use of this Font Software.
http://scripts.sil.org/OFL
  -->
<path d="M610 366L478 366 478 247 610 247ZM672 366L672 247 801 247 801 366ZM417 68L417 452 427 452C453 452 478 438 478 431L478 395 801 395 801 440 810 440C830 440 862 425 863 418L863 109C883 105 900 97 905 89L826 28 791 68 483 68 417 37ZM610 218L478 218 478 97 610 97ZM672 218L672 97 801 97 801 218ZM447 835L394 835 394 692 447 692ZM495 835L495 692 553 692 553 835ZM172 15L172 247 43 247 51 276 158 276C135 423 94 571 27 687L41 700C96 631 139 554 172 470L172 928 185 928C208 928 235 914 235 905L235 385C264 425 295 481 302 524 317 537 333 537 342 527L342 923 351 923C373 923 394 910 394 905L394 865 553 865 553 911 561 911C578 911 605 898 606 892L606 526C620 523 633 517 637 511L574 462 545 492 399 492 348 468C336 435 303 396 235 361L235 276 354 276C368 276 376 271 379 260 353 230 306 189 306 189L267 247 235 247 235 54C259 50 267 40 270 26ZM447 663L394 663 394 522 447 522ZM495 663L495 522 553 522 553 663ZM768 835L712 835 712 692 768 692ZM816 835L816 692 873 692 873 835ZM660 492L660 922 669 922C691 922 712 909 712 904L712 865 873 865 873 916 881 916C899 916 926 901 927 895L927 526C942 523 955 517 960 511L895 461 866 492 717 492 660 465ZM768 663L712 663 712 522 768 522ZM816 663L816 522 873 522 873 663Z"/>
</svg>