<svg xmlns="http://www.w3.org/2000/svg" name="gid7232" data-unicode="櫓"
    viewBox="0 0 1000 1000">
  <!--
© 2017-2024 Adobe (http://www.adobe.com/).
Noto is a trademark of Google Inc.
This Font Software is licensed under the SIL Open Font License, Version 1.1. This Font Software is distributed on an "AS IS" BASIS, WITHOUT WARRANTIES OR CONDITIONS OF ANY KIND, either express or implied. See the SIL Open Font License for the specific language, permissions and limitations governing your use of this Font Software.
http://scripts.sil.org/OFL
  -->
<path d="M560 505L546 509C558 536 566 579 562 614 601 661 670 579 560 505ZM687 502L675 508C695 535 718 578 721 613 767 654 824 563 687 502ZM822 795L822 880 498 880 498 795ZM822 767L498 767 498 688 822 688ZM436 658L436 958 446 958C471 958 498 944 498 938L498 910 822 910 822 950 831 950C852 950 883 935 884 929L884 696C901 693 916 685 922 679L847 622 813 658 503 658 437 628ZM627 372L627 453 483 453 483 372ZM686 372L836 372 836 453 686 453ZM627 343L483 343 483 263 627 263ZM686 343L686 263 836 263 836 343ZM627 234L495 234 483 229C502 208 519 186 534 164L693 164C683 186 671 212 659 234ZM522 42C495 125 442 220 382 290 354 260 306 220 306 220L263 276 238 276 238 82C263 78 271 69 274 54L175 44 175 276 43 276 51 306 160 306C139 452 98 596 31 710L45 722C101 655 143 579 175 496L175 957 188 957C212 957 238 942 238 933L238 446C265 485 298 538 307 578 366 624 420 508 238 425L238 306 357 306C362 306 366 305 370 304L341 332 354 343C378 328 402 310 424 290L424 513 433 513 446 512C439 551 404 586 374 598 356 609 345 626 352 642 361 661 391 660 412 649 420 644 428 638 437 628 459 604 475 563 465 507L463 507C476 502 483 496 483 493L483 483 836 483 836 502 819 497 808 505C845 537 890 593 903 636 960 674 1005 569 852 508 873 506 897 495 898 489L898 272C915 269 930 261 936 254L861 198 827 234 693 234C718 213 743 188 761 171 779 170 791 169 799 161L730 97 693 135 554 135C565 116 576 98 585 80 609 81 617 77 621 66Z"/>
</svg>