<svg xmlns="http://www.w3.org/2000/svg" name="gid7236" data-unicode="櫚"
    viewBox="0 0 1000 1000">
  <!--
© 2017-2024 Adobe (http://www.adobe.com/).
Noto is a trademark of Google Inc.
This Font Software is licensed under the SIL Open Font License, Version 1.1. This Font Software is distributed on an "AS IS" BASIS, WITHOUT WARRANTIES OR CONDITIONS OF ANY KIND, either express or implied. See the SIL Open Font License for the specific language, permissions and limitations governing your use of this Font Software.
http://scripts.sil.org/OFL
  -->
<path d="M486 661L486 879 494 879C515 879 538 866 538 861L538 824 721 824 721 864 729 864C748 864 775 850 776 843L776 697C792 694 806 687 812 681L743 630 713 661 621 661 654 588 702 588 702 617 710 617C728 617 756 604 757 598L757 475C773 473 788 465 793 458L724 407 693 439 562 439 504 412 504 619 512 619C533 619 557 607 557 602L557 588 601 588 592 661 543 661 486 635ZM702 559L557 559 557 468 702 468ZM721 795L538 795 538 691 721 691ZM348 102L348 265 299 219 259 277 232 277 232 83C256 79 264 70 267 55L170 45 170 277 38 277 46 306 157 306C135 452 97 599 34 716L50 729C100 662 140 586 170 505L170 958 183 958C205 958 232 942 232 933L232 470C261 510 291 564 298 606 320 625 342 615 348 592L348 957 360 957C387 957 407 941 407 933L407 362 536 362 536 399 545 399C564 399 593 385 594 379L594 141C613 137 629 129 635 122L561 65 527 102 412 102 348 70ZM232 306L348 306 348 565C341 532 309 486 232 447ZM536 248L536 332 407 332 407 248ZM536 218L407 218 407 130 536 130ZM728 248L864 248 864 333 728 333ZM728 219L728 130 864 130 864 219ZM669 102L669 401 678 401C702 401 728 387 728 381L728 363 864 363 864 861C864 877 859 883 840 883 820 883 722 875 722 875L722 891C765 897 790 905 804 915 817 924 822 940 825 958 914 949 924 917 924 867L924 143C945 139 961 130 967 123L887 60 854 102 732 102 669 73Z"/>
</svg>