<svg xmlns="http://www.w3.org/2000/svg" name="gid7243" data-unicode="櫤"
    viewBox="0 0 1000 1000">
  <!--
© 2017-2024 Adobe (http://www.adobe.com/).
Noto is a trademark of Google Inc.
This Font Software is licensed under the SIL Open Font License, Version 1.1. This Font Software is distributed on an "AS IS" BASIS, WITHOUT WARRANTIES OR CONDITIONS OF ANY KIND, either express or implied. See the SIL Open Font License for the specific language, permissions and limitations governing your use of this Font Software.
http://scripts.sil.org/OFL
  -->
<path d="M692 515L692 832 702 832C723 832 747 820 747 812L747 548C768 545 775 537 777 525ZM837 484L837 868C837 881 833 885 821 885 806 885 739 880 739 880L739 896C770 900 787 906 798 916 808 925 812 941 814 958 887 951 896 922 896 872L896 519C918 516 928 508 931 494ZM746 285C734 325 715 380 698 420L549 420C575 398 569 334 460 296L449 303C472 331 498 379 502 419L504 420 338 420 346 449 945 449C959 449 967 445 970 434 938 404 886 364 886 364L840 420 727 420C758 392 789 359 810 331 832 331 843 322 847 311ZM171 38L171 277 41 277 49 306 158 306C136 452 98 599 35 716L50 729C101 661 141 585 171 504L171 956 184 956C206 956 233 940 233 931L233 461C262 500 292 555 299 596 353 642 405 524 233 437L233 306 341 306 335 316 351 325C387 289 420 241 448 186L476 186C498 215 517 256 518 290 566 331 620 247 519 186L647 186C652 186 657 185 661 183 643 230 621 272 598 304L613 313C650 281 684 237 713 186L759 186C786 215 814 258 820 293 873 331 921 241 811 186L940 186C953 186 962 182 965 171 939 144 896 111 896 111L860 157 729 157C739 138 748 118 756 98 777 98 787 89 791 78L702 50C693 90 682 129 668 166 643 142 608 112 608 112L573 157 462 157C471 137 479 117 486 96 507 97 517 87 521 76L430 51C415 132 388 212 357 275 331 248 299 219 299 219L259 277 233 277 233 76C257 72 265 63 268 49ZM446 586L436 596C469 614 506 648 519 677 568 704 597 609 446 586ZM378 517L378 958 387 958C416 958 436 940 436 935L436 546 565 546 565 864C565 876 562 881 551 881 539 881 493 877 493 877L493 893C516 897 530 903 538 912 547 922 549 940 550 957 617 950 625 922 625 871L625 550C638 548 649 541 653 536L584 485 558 517 440 517 378 490ZM446 705L436 714C469 734 506 771 517 803 566 833 598 734 446 705Z"/>
</svg>