<svg xmlns="http://www.w3.org/2000/svg" name="gid7246" data-unicode="櫪"
    viewBox="0 0 1000 1000">
  <!--
© 2017-2024 Adobe (http://www.adobe.com/).
Noto is a trademark of Google Inc.
This Font Software is licensed under the SIL Open Font License, Version 1.1. This Font Software is distributed on an "AS IS" BASIS, WITHOUT WARRANTIES OR CONDITIONS OF ANY KIND, either express or implied. See the SIL Open Font License for the specific language, permissions and limitations governing your use of this Font Software.
http://scripts.sil.org/OFL
  -->
<path d="M368 895L375 924 939 924C954 924 963 919 965 909 934 878 882 836 882 836L835 895 718 895 718 754 903 754C916 754 925 749 928 738 900 710 854 673 854 673L814 724 718 724 718 636C740 632 749 623 751 610L658 601 658 895 550 895 550 704C572 700 579 691 581 678L490 668 490 895ZM171 44L171 277 39 277 47 306 158 306C136 452 98 599 35 716L50 729C101 661 141 585 171 504L171 957 184 957C206 957 233 942 233 932L233 464C262 504 292 558 299 600 353 645 405 528 233 440L233 306 351 306 360 305 360 401C360 585 354 781 269 937L285 948C415 791 421 571 421 400L421 148 930 148C945 148 954 143 957 132 924 102 872 60 872 60L826 118 433 118 360 86 360 274C332 248 299 220 299 220L256 277 233 277 233 83C257 79 265 70 268 55ZM622 158C584 189 509 233 442 255L449 271C476 267 505 261 532 253L532 326 436 326 443 356 518 356C497 421 466 484 423 536L435 553C474 520 506 482 532 440L532 592 541 592C568 592 587 579 587 574L587 400C610 421 632 452 637 478 687 513 730 415 587 383L587 356 664 356C677 356 686 351 688 340 667 317 634 289 634 289L605 326 587 326 587 237C610 229 631 221 647 214 668 219 684 219 692 211ZM865 157C825 189 745 232 676 254L683 270C713 266 745 259 776 251L776 326 689 326 696 356 758 356C732 427 690 493 635 547L647 564C699 526 743 482 776 431L776 590 785 590C812 590 832 577 832 572L832 404C854 470 884 522 920 557 927 529 943 514 966 510L967 499C918 472 871 421 842 356L931 356C944 356 953 351 955 340 934 316 900 288 900 288L871 326 832 326 832 235C854 228 873 220 889 213 910 219 926 219 934 211Z"/>
</svg>