<svg xmlns="http://www.w3.org/2000/svg" name="gid7250" data-unicode="櫲"
    viewBox="0 0 1000 1000">
  <!--
© 2017-2024 Adobe (http://www.adobe.com/).
Noto is a trademark of Google Inc.
This Font Software is licensed under the SIL Open Font License, Version 1.1. This Font Software is distributed on an "AS IS" BASIS, WITHOUT WARRANTIES OR CONDITIONS OF ANY KIND, either express or implied. See the SIL Open Font License for the specific language, permissions and limitations governing your use of this Font Software.
http://scripts.sil.org/OFL
  -->
<path d="M163 37L163 276 43 276 51 306 154 306C132 450 93 597 32 713L46 725C94 661 133 589 163 511L163 955 176 955C198 955 224 939 224 930L224 465C249 503 275 553 282 592 335 636 386 527 224 438L224 306 324 306C337 306 347 301 349 290 323 260 278 218 278 218L239 276 223 276 224 74C247 70 255 62 257 48ZM759 163C751 193 740 229 730 258L637 258 604 244C625 218 645 191 662 163ZM653 42C624 137 563 257 499 325L513 335C531 321 548 306 565 288L565 417 513 365 478 401 272 401 281 431 365 431 365 859C365 872 362 876 349 876 335 876 273 871 273 871L273 887C304 891 320 898 331 908 340 919 343 938 343 957 415 948 425 909 425 861L425 431 485 431C479 480 467 544 456 586L471 594C499 552 526 485 542 439 552 438 559 438 565 436L565 479 575 479C605 479 625 463 625 458L625 445 678 445C632 502 567 556 494 597L505 614C558 593 609 567 653 536 661 546 668 558 674 569 623 633 540 701 465 741L473 757C551 724 637 672 699 622L711 660C647 749 544 835 449 885L457 901C552 862 654 799 725 733 733 799 727 855 716 877 711 885 705 886 693 886 673 886 611 883 575 881L575 897C607 902 638 910 649 917 661 926 667 937 668 957 721 957 752 945 767 921 809 857 801 645 670 524 702 500 731 474 754 445 777 609 814 761 933 892 940 856 955 831 973 824L975 814C906 758 858 691 824 616 867 594 914 565 938 548 952 551 960 550 965 544L899 491C884 515 847 563 816 597 796 549 781 498 771 445L855 445 855 473 864 473C883 473 912 460 913 453L913 296C930 293 944 285 950 278L878 225 846 258 756 258C781 230 810 192 827 170 846 169 857 168 865 161L795 95 757 133 680 133C691 113 701 94 710 75 735 75 743 71 746 60ZM625 288L710 288 710 416 625 416ZM767 288L855 288 855 416 767 416ZM280 115L289 144 471 144C455 176 433 215 415 247 395 230 367 214 332 200L321 207C359 246 405 311 414 363 460 397 499 331 434 263 470 230 516 183 542 154 562 153 573 151 581 143L511 76 474 115Z"/>
</svg>