<svg xmlns="http://www.w3.org/2000/svg" name="gid7265" data-unicode="欋"
    viewBox="0 0 1000 1000">
  <!--
© 2017-2024 Adobe (http://www.adobe.com/).
Noto is a trademark of Google Inc.
This Font Software is licensed under the SIL Open Font License, Version 1.1. This Font Software is distributed on an "AS IS" BASIS, WITHOUT WARRANTIES OR CONDITIONS OF ANY KIND, either express or implied. See the SIL Open Font License for the specific language, permissions and limitations governing your use of this Font Software.
http://scripts.sil.org/OFL
  -->
<path d="M386 80L386 283C356 254 315 222 315 222L272 279 256 279 256 79C281 75 289 66 292 51L192 40 192 279 47 279 55 309 179 309C152 459 101 605 21 718L35 732C102 661 154 580 192 490L192 958 205 958C229 958 256 943 256 934L256 419C286 460 320 514 331 556 389 601 444 484 256 399L256 309 370 309C376 309 382 308 386 305L386 443 396 443C421 443 445 429 445 424L445 396 559 396 559 430 568 430C587 430 617 415 618 409L618 115C633 113 645 106 650 99L583 47 552 80 448 80 386 51ZM637 551L637 636 488 636 488 551ZM475 407C438 521 377 629 317 695L331 707C365 683 397 652 427 616L427 959 437 959C467 959 488 942 488 936L488 906 943 906C957 906 966 901 968 890 937 859 887 819 887 819L840 876 699 876 699 781 898 781C911 781 921 777 923 766 893 738 845 703 845 703L803 752 699 752 699 665 891 665C905 665 914 660 917 649 886 622 838 586 838 586L797 636 699 636 699 551 918 551C932 551 943 546 945 535 913 506 863 466 863 466L819 522 661 522C678 505 699 483 713 467 734 467 746 460 750 447L704 436C722 432 739 422 739 418L739 396 861 396 861 430 870 430C889 430 918 415 919 409L919 116C935 113 948 106 954 99L885 46 853 80 743 80 681 51 681 430 657 424C651 451 639 494 630 522L501 522 495 519C506 500 517 480 527 459 548 461 561 454 565 443ZM637 876L488 876 488 781 637 781ZM637 665L637 752 488 752 488 665ZM559 203L559 269 445 269 445 203ZM559 175L445 175 445 109 559 109ZM559 299L559 368 445 368 445 299ZM861 203L861 269 739 269 739 203ZM861 175L739 175 739 109 861 109ZM861 299L861 368 739 368 739 299Z"/>
</svg>