<svg xmlns="http://www.w3.org/2000/svg"
    viewBox="0 0 1000 1000">
  <!--
© 2017-2023 Adobe (http://www.adobe.com/).
Noto is a trademark of Google Inc.
This Font Software is licensed under the SIL Open Font License, Version 1.1. This Font Software is distributed on an "AS IS" BASIS, WITHOUT WARRANTIES OR CONDITIONS OF ANY KIND, either express or implied. See the SIL Open Font License for the specific language, permissions and limitations governing your use of this Font Software.
http://scripts.sil.org/OFL
  -->
<path d="M324 233L324 234 277 188 238 246 223 246 224 51C247 47 255 38 257 24L163 14 163 246 44 246 52 276 154 276C132 420 93 567 32 683L46 695C94 631 133 559 163 481L163 927 176 927C198 927 224 912 224 902L224 407C248 445 274 494 281 533 334 576 384 468 224 379L224 276 322 276 324 276 324 439 330 439C349 439 367 429 367 424L367 392 421 392 421 423 427 423C442 423 466 413 466 407L466 262C477 259 487 254 491 249L439 210 415 233 371 233 324 210ZM470 551L470 618 398 618 398 551ZM375 419C349 524 304 625 258 690L273 700C298 677 323 648 345 615L345 914 353 914C379 914 398 900 398 896L398 857 636 857C618 877 597 896 573 914L581 928C720 855 776 749 794 585L810 585 810 860C810 895 818 910 861 910L893 910C958 910 978 898 978 875 978 865 975 858 958 851L955 759 942 759C936 796 926 840 922 850 918 856 916 857 912 858 908 858 901 858 895 858L878 858C868 858 866 855 866 844L866 618C887 618 916 606 917 601L917 109C935 106 949 98 955 91L882 35 849 72 745 72 684 42 684 119 630 70 597 112 576 112 576 51C597 48 606 36 607 24L520 16 520 112 436 112 436 51C455 47 464 37 465 24L379 16 379 112 296 112 302 142 379 142 379 204 389 204C417 204 436 195 436 189L436 142 520 142 520 203 531 203C564 202 576 190 576 186L576 142 666 142C674 142 680 140 684 136L684 619 694 619C709 619 723 614 731 608 723 694 704 765 661 826 637 804 610 782 610 782L574 827 525 827 525 748 630 748C642 748 652 743 654 732 631 708 595 680 595 680L563 718 525 718 525 648 629 648C641 648 650 643 652 632 630 609 594 580 594 580L562 618 525 618 525 551 645 551C658 551 667 546 670 535 644 511 606 482 606 482L571 522 508 522C521 504 535 486 545 470 566 470 577 460 580 448L496 431C492 458 485 494 477 522L410 522 400 518C409 501 416 483 423 465 444 466 455 457 459 446ZM470 648L470 718 398 718 398 648ZM470 748L470 827 398 827 398 748ZM421 363L367 363 367 262 421 262ZM858 258L858 390 741 390 741 258ZM858 228L741 228 741 101 858 101ZM858 419L858 556 741 556 741 419ZM504 233L504 425 511 425C530 425 549 416 549 412L549 392 605 392 605 423 611 423C627 423 650 412 650 406L650 264C663 262 675 255 680 250L624 208 598 233 554 233 504 210ZM605 363L549 363 549 262 605 262Z"/>
</svg>