<svg xmlns="http://www.w3.org/2000/svg" name="gid7278" data-unicode="欣"
    viewBox="0 0 1000 1000">
  <!--
© 2017-2024 Adobe (http://www.adobe.com/).
Noto is a trademark of Google Inc.
This Font Software is licensed under the SIL Open Font License, Version 1.1. This Font Software is distributed on an "AS IS" BASIS, WITHOUT WARRANTIES OR CONDITIONS OF ANY KIND, either express or implied. See the SIL Open Font License for the specific language, permissions and limitations governing your use of this Font Software.
http://scripts.sil.org/OFL
  -->
<path d="M587 43C571 156 538 264 497 354 466 325 420 289 420 289L375 347 171 347 171 178C266 166 371 145 455 118 475 124 484 123 491 114L410 51C342 91 257 125 179 149L107 125 107 373C107 546 105 745 35 914L51 924C167 761 171 534 171 376L290 376 290 958 300 958C332 958 354 939 354 934L354 376 478 376 488 375C469 414 448 449 427 479L441 489C500 435 550 364 590 279L650 279C647 527 635 762 389 940L404 958C630 822 689 643 707 441 727 659 778 848 905 961 914 924 934 909 966 903L969 892C785 761 734 550 717 279L855 279C835 335 803 413 779 459L793 467C838 421 899 342 931 291 952 290 963 288 971 280L895 207 853 249 604 249C625 200 643 147 657 91 679 91 690 81 694 68Z"/>
</svg>