<svg xmlns="http://www.w3.org/2000/svg"
    viewBox="0 0 1000 1000">
  <!--
© 2017-2024 Adobe (http://www.adobe.com/).
Noto is a trademark of Google Inc.
This Font Software is licensed under the SIL Open Font License, Version 1.1. This Font Software is distributed on an "AS IS" BASIS, WITHOUT WARRANTIES OR CONDITIONS OF ANY KIND, either express or implied. See the SIL Open Font License for the specific language, permissions and limitations governing your use of this Font Software.
http://scripts.sil.org/OFL
  -->
<path d="M382 272C327 409 204 571 53 668L63 681C237 597 370 451 438 325 461 328 470 324 476 313ZM258 14L258 169 41 169 49 198 244 198C227 246 199 302 175 343 149 325 114 308 70 293L59 301C108 343 171 415 190 471 242 502 278 430 196 360 236 325 276 279 304 240 322 241 335 235 340 223L272 198 534 198C548 198 558 193 561 182 528 152 476 111 476 111L429 169 322 169 322 52C347 48 357 38 359 24ZM431 456C366 614 222 786 38 885L46 899C167 849 271 774 351 691 390 728 432 779 448 820 515 861 559 736 369 672 417 619 456 563 485 509 509 512 518 508 524 496ZM636 12C608 171 545 323 474 422L490 431C542 384 589 321 628 247L671 247C669 496 660 733 436 911L451 928C653 796 709 622 727 427 746 646 793 823 911 928 920 893 940 877 971 873L973 861C798 736 753 534 737 247L860 247C845 303 817 382 796 431L810 438C851 390 905 311 934 259 953 257 964 255 972 248L897 176 856 218 642 218C666 169 686 117 703 61 724 62 736 52 740 40Z"/>
</svg>