<svg xmlns="http://www.w3.org/2000/svg"
    viewBox="0 0 1000 1000">
  <!--
© 2017-2023 Adobe (http://www.adobe.com/).
Noto is a trademark of Google Inc.
This Font Software is licensed under the SIL Open Font License, Version 1.1. This Font Software is distributed on an "AS IS" BASIS, WITHOUT WARRANTIES OR CONDITIONS OF ANY KIND, either express or implied. See the SIL Open Font License for the specific language, permissions and limitations governing your use of this Font Software.
http://scripts.sil.org/OFL
  -->
<path d="M369 627L359 635C395 673 433 736 438 788 500 840 559 704 369 627ZM92 405L100 434 458 434C472 434 481 429 484 418 453 390 405 352 405 352L363 405ZM120 623C103 704 72 782 38 833L53 843C103 805 148 743 179 672 200 673 211 664 215 653ZM252 14L252 129 49 129 57 157 252 157 252 276 72 276 80 305 488 305C502 305 511 300 514 289 485 261 437 224 437 224L396 276 315 276 315 157 512 157C526 157 535 152 538 142 507 113 457 74 457 74L414 129 315 129 315 51C340 48 350 38 352 24ZM42 546L50 576 252 576 252 840C252 852 248 857 233 857 217 857 144 852 144 852L144 867C179 871 198 878 210 887 220 897 224 912 225 929 303 920 313 889 313 841L313 576 514 576C528 576 538 571 541 560 509 531 460 491 460 491L416 546ZM640 12C614 169 558 321 492 420L506 429C555 381 599 319 635 247L671 247C669 496 660 733 436 911L451 928C653 796 709 622 727 427 746 646 793 823 911 928 920 893 940 877 971 873L973 861C798 736 753 534 737 247L860 247C845 303 817 382 796 431L810 438C851 390 905 311 934 259 953 257 964 255 972 248L897 176 856 218 649 218C671 169 690 116 706 61 728 61 740 51 744 39Z"/>
</svg>