<svg xmlns="http://www.w3.org/2000/svg" name="gid7299" data-unicode="歉"
    viewBox="0 0 1000 1000">
  <!--
© 2017-2024 Adobe (http://www.adobe.com/).
Noto is a trademark of Google Inc.
This Font Software is licensed under the SIL Open Font License, Version 1.1. This Font Software is distributed on an "AS IS" BASIS, WITHOUT WARRANTIES OR CONDITIONS OF ANY KIND, either express or implied. See the SIL Open Font License for the specific language, permissions and limitations governing your use of this Font Software.
http://scripts.sil.org/OFL
  -->
<path d="M325 133L325 135 291 152 298 168 325 162 325 245 246 245 246 167C263 164 270 156 272 145L212 138C247 124 278 110 302 97 323 102 339 101 346 92L272 42C228 82 135 139 56 170L63 185C104 176 147 163 187 148L187 245 54 245 62 274 187 274 187 352 72 352 81 381 187 381 187 468 35 468 43 498 187 498 187 586 62 586 71 616 170 616C143 712 96 805 33 878L45 893C103 846 151 790 187 727L187 959 199 959C220 959 246 943 246 935L246 616 325 616 325 958 337 958C359 958 384 944 384 934L384 696C427 731 473 787 485 835 553 880 597 735 384 678L384 616 462 616 462 654 471 654C490 654 519 640 520 634L520 498 611 498C624 498 634 493 636 482 610 453 568 415 568 415L530 468 520 468 520 389C536 386 551 378 556 372L485 317 453 352 384 352 384 274 542 274C556 274 565 269 568 258 538 229 489 190 489 190L445 245 384 245 384 169C406 166 414 157 416 144L392 141C431 128 466 112 492 99 514 105 529 103 537 94L459 42C432 68 380 106 329 133ZM246 274L325 274 325 352 246 352ZM246 498L325 498 325 586 246 586ZM246 468L246 381 325 381 325 468ZM462 498L462 586 384 586 384 498ZM462 468L384 468 384 381 462 381ZM643 44C633 171 604 300 564 390L580 398C607 364 632 322 652 276L697 276C695 533 691 767 496 941L511 957C685 831 735 666 751 477 769 686 811 857 913 958 921 922 940 907 971 903L973 892C815 765 774 562 760 276L857 276C847 332 831 410 818 459L832 466C864 418 903 338 924 286 943 285 955 284 962 277L890 206 850 247 664 247C684 198 700 144 712 89 734 88 744 79 748 66Z"/>
</svg>