<svg xmlns="http://www.w3.org/2000/svg" name="gid7311" data-unicode="歛"
    viewBox="0 0 1000 1000">
  <!--
© 2017-2024 Adobe (http://www.adobe.com/).
Noto is a trademark of Google Inc.
This Font Software is licensed under the SIL Open Font License, Version 1.1. This Font Software is distributed on an "AS IS" BASIS, WITHOUT WARRANTIES OR CONDITIONS OF ANY KIND, either express or implied. See the SIL Open Font License for the specific language, permissions and limitations governing your use of this Font Software.
http://scripts.sil.org/OFL
  -->
<path d="M161 287L169 316 446 316C459 316 469 312 471 301 441 272 392 234 392 234L349 287ZM150 433L227 433 227 569 150 569ZM96 404L96 662 103 662C131 662 150 647 150 643L150 598 227 598 227 639 234 639C252 639 280 627 281 621L281 440C297 438 311 430 317 423L248 372 219 404 162 404 96 374ZM382 433L462 433 462 569 382 569ZM644 42C625 179 581 314 529 405L484 371 452 404 394 404 328 374 328 651 336 651C364 651 382 638 382 633L382 598 462 598 462 639 470 639C488 639 515 627 516 621L516 441C533 438 549 431 554 424L535 410 544 415C581 376 614 327 642 271L671 271C669 525 666 763 486 941L502 957C668 827 713 656 728 463 748 679 795 854 911 957 920 921 940 906 971 902L974 890C798 765 753 560 737 271L861 271C845 327 817 406 796 455L810 462C851 415 905 335 934 283 953 282 964 280 972 272L897 200 856 243 656 243C677 195 696 144 710 90 732 90 744 80 747 68ZM325 84C352 84 363 77 366 66L262 35C222 133 128 277 33 360L44 371C158 303 259 188 319 94 409 150 472 226 494 286 558 328 625 172 325 84ZM162 656C146 772 104 874 48 941L63 952C115 913 158 857 189 788 215 813 237 849 242 879 295 916 340 815 198 767 207 746 214 724 221 701 242 701 252 692 255 680ZM391 656C376 768 337 865 284 931L298 941C348 904 390 851 420 785 447 810 472 846 478 877 535 916 580 806 429 764 437 744 444 722 450 700 472 700 483 691 486 679Z"/>
</svg>