<svg xmlns="http://www.w3.org/2000/svg"
    viewBox="0 0 1000 1000">
  <!--
© 2017-2023 Adobe (http://www.adobe.com/).
Noto is a trademark of Google Inc.
This Font Software is licensed under the SIL Open Font License, Version 1.1. This Font Software is distributed on an "AS IS" BASIS, WITHOUT WARRANTIES OR CONDITIONS OF ANY KIND, either express or implied. See the SIL Open Font License for the specific language, permissions and limitations governing your use of this Font Software.
http://scripts.sil.org/OFL
  -->
<path d="M379 674L369 683C417 716 468 777 479 829 550 875 596 724 379 674ZM221 668C189 744 122 849 50 915L61 928C151 875 232 791 276 725 300 729 308 724 314 714ZM208 46L153 91 91 68 101 612 34 612 41 641 627 641C640 641 649 636 651 625 629 599 589 560 589 560L556 612 546 612 556 122C573 119 582 116 589 109L523 51 492 88 425 88 433 118 499 118 497 258 435 258 444 287 496 287 494 427 432 427 441 457 493 457 490 612 400 612 400 290C413 287 425 281 429 277L371 231 344 259 305 259 305 150 397 150C411 150 419 145 422 134 403 111 369 80 369 80L342 121 305 121 305 42C322 39 329 31 331 20L255 12 255 107ZM244 372L244 612 155 612 152 457 220 457C233 457 241 452 244 441 227 419 197 390 197 390L172 427 151 427 149 287 216 287C229 287 238 283 239 272 223 250 194 220 194 220L169 258 148 258 146 128C169 121 197 113 222 104 236 114 245 114 255 108L255 332 265 332C283 332 305 319 305 312L305 288 351 288 351 612 294 612 294 400C308 397 314 390 315 381ZM647 13C635 163 604 319 560 429L575 437C612 386 642 320 666 247L708 247C706 504 700 738 500 911L515 928C693 802 744 636 761 446 778 653 818 826 914 928 922 893 941 880 970 874L972 863C822 734 783 526 769 247L859 247C851 301 838 379 828 427L841 435C871 387 906 308 925 258 944 257 956 255 963 248L891 177 851 218 676 218C692 166 705 111 715 56 737 54 747 44 750 31Z"/>
</svg>