<svg xmlns="http://www.w3.org/2000/svg"
    viewBox="0 0 1000 1000">
  <!--
© 2017-2023 Adobe (http://www.adobe.com/).
Noto is a trademark of Google Inc.
This Font Software is licensed under the SIL Open Font License, Version 1.1. This Font Software is distributed on an "AS IS" BASIS, WITHOUT WARRANTIES OR CONDITIONS OF ANY KIND, either express or implied. See the SIL Open Font License for the specific language, permissions and limitations governing your use of this Font Software.
http://scripts.sil.org/OFL
  -->
<path d="M658 415L649 426C727 473 831 559 868 628 949 666 968 497 658 415ZM287 401C242 490 146 608 45 680L55 693C174 635 284 538 342 459 365 463 374 458 380 449ZM468 362L468 620C468 634 463 639 446 639 426 639 327 632 327 632L327 648C371 653 394 660 409 671 423 681 427 697 430 717 522 708 533 677 533 623L533 398C555 395 564 388 567 373ZM703 554C542 784 339 857 82 908L86 928C364 895 570 830 751 614 775 618 786 616 793 606ZM234 87L234 329 42 329 51 358 931 358C946 358 955 353 958 342 923 310 865 267 865 267L814 329 533 329 533 191 818 191C832 191 842 186 844 175 810 145 755 101 755 101L705 162 533 162 533 49C558 46 568 36 570 22L468 12 468 329 298 329 298 123C320 119 328 110 330 97Z"/>
</svg>