<svg xmlns="http://www.w3.org/2000/svg" name="gid7325" data-unicode="歬"
    viewBox="0 0 1000 1000">
  <!--
© 2017-2024 Adobe (http://www.adobe.com/).
Noto is a trademark of Google Inc.
This Font Software is licensed under the SIL Open Font License, Version 1.1. This Font Software is distributed on an "AS IS" BASIS, WITHOUT WARRANTIES OR CONDITIONS OF ANY KIND, either express or implied. See the SIL Open Font License for the specific language, permissions and limitations governing your use of this Font Software.
http://scripts.sil.org/OFL
  -->
<path d="M411 445L401 454C444 482 497 534 513 579 581 619 621 482 411 445ZM456 667L456 916 468 916C493 916 521 903 521 895L521 702C544 699 552 690 554 677ZM239 402L239 579 239 608 36 608 44 637 237 637C230 759 196 869 80 949L93 961C248 885 292 768 302 637L703 637 703 853C703 868 698 874 680 874 660 874 565 867 565 867L565 883C607 889 631 896 645 907 658 918 663 936 666 956 758 947 769 913 769 861L769 637 941 637C955 637 964 632 966 621 935 590 883 548 883 548L836 608 769 608 769 444C788 440 804 432 811 424L727 361 693 402 477 402C494 384 514 362 529 345 549 345 562 337 566 323L457 303 437 402 316 402 239 369ZM703 608L303 608 304 579 304 431 703 431ZM68 272L77 301 917 301C931 301 942 296 944 285 910 254 857 212 857 212L810 272 535 272 535 176 801 176C815 176 825 171 828 160 795 129 743 89 743 89L696 147 535 147 535 80C560 77 570 67 572 53L470 43 470 272 313 272 313 119C338 116 348 106 350 92L249 81 249 272Z"/>
</svg>