<svg xmlns="http://www.w3.org/2000/svg" name="gid7341" data-unicode="殀"
    viewBox="0 0 1000 1000">
  <!--
© 2017-2024 Adobe (http://www.adobe.com/).
Noto is a trademark of Google Inc.
This Font Software is licensed under the SIL Open Font License, Version 1.1. This Font Software is distributed on an "AS IS" BASIS, WITHOUT WARRANTIES OR CONDITIONS OF ANY KIND, either express or implied. See the SIL Open Font License for the specific language, permissions and limitations governing your use of this Font Software.
http://scripts.sil.org/OFL
  -->
<path d="M399 439L407 468 615 468C590 656 516 811 290 941L300 956C563 848 650 694 680 494 702 650 757 841 912 956 920 918 940 905 973 900L975 889C791 780 721 617 696 468L939 468C953 468 963 463 965 452 933 421 880 379 880 379L833 439 687 439C695 357 696 269 697 173 761 159 819 144 866 129 890 138 907 137 916 129L840 64C748 113 563 171 409 199L414 216C485 210 559 200 629 187 628 277 627 361 619 439ZM49 118L57 147 182 147C157 306 111 466 37 590L52 602C85 563 113 521 138 477 177 509 215 554 225 594 292 638 335 506 150 454 171 415 189 373 205 330L337 330C312 562 244 794 68 945L81 958C305 809 372 570 403 339 425 337 435 334 441 325L369 260 330 301 214 301C230 252 243 200 253 147L441 147C454 147 465 142 467 131 435 101 380 60 380 60L335 118Z"/>
</svg>