<svg xmlns="http://www.w3.org/2000/svg" name="gid7356" data-unicode="殛"
    viewBox="0 0 1000 1000">
  <!--
© 2017-2024 Adobe (http://www.adobe.com/).
Noto is a trademark of Google Inc.
This Font Software is licensed under the SIL Open Font License, Version 1.1. This Font Software is distributed on an "AS IS" BASIS, WITHOUT WARRANTIES OR CONDITIONS OF ANY KIND, either express or implied. See the SIL Open Font License for the specific language, permissions and limitations governing your use of this Font Software.
http://scripts.sil.org/OFL
  -->
<path d="M308 894L316 923 948 923C962 923 972 918 975 908 942 878 890 838 890 838L845 894ZM41 118L49 147 157 147C138 304 103 459 37 585L51 597C81 557 107 514 128 470 161 502 192 546 201 581 213 590 225 592 234 588 198 722 140 847 43 942L56 955C257 799 315 560 341 339 362 337 372 333 378 325L309 262 272 301 191 301C204 252 214 200 222 147L367 147C375 147 382 145 386 139L388 146 492 146C479 206 449 300 428 343 456 352 482 352 497 343L513 294 625 294C619 592 608 741 580 771 571 778 564 781 547 781 529 781 479 777 446 774L446 791C475 796 504 805 516 814 528 824 530 841 530 859 566 859 601 848 624 820 659 779 676 646 681 364L719 364C730 477 748 570 782 646 753 706 712 760 657 804L667 819C726 783 771 740 806 692 831 736 863 774 904 806 915 777 937 760 963 758L965 747C915 719 874 682 841 636 885 555 907 463 920 371 941 369 950 366 958 357L888 296 850 334 682 334 682 302C703 299 715 293 722 286L649 225 615 265 522 265C534 225 548 181 557 146L932 146C946 146 956 141 958 130 927 101 875 59 875 59L829 118 380 118 381 121C350 93 309 61 309 61L264 118ZM368 390L368 736 377 736C400 736 423 724 423 718L423 659 496 659 496 706 503 706C521 706 549 692 549 685L549 426C565 423 579 416 585 409L517 358 487 390 427 390 368 363ZM496 630L423 630 423 419 496 419ZM857 364C849 440 834 516 809 585 775 524 753 450 740 364ZM182 330L278 330C272 397 262 466 248 532 236 505 204 473 138 450 155 411 170 371 182 330Z"/>
</svg>