<svg xmlns="http://www.w3.org/2000/svg"
    viewBox="0 0 1000 1000">
  <!--
© 2017-2024 Adobe (http://www.adobe.com/).
Noto is a trademark of Google Inc.
This Font Software is licensed under the SIL Open Font License, Version 1.1. This Font Software is distributed on an "AS IS" BASIS, WITHOUT WARRANTIES OR CONDITIONS OF ANY KIND, either express or implied. See the SIL Open Font License for the specific language, permissions and limitations governing your use of this Font Software.
http://scripts.sil.org/OFL
  -->
<path d="M580 736C524 800 406 875 300 914L309 929C431 903 558 849 627 795 648 800 656 797 663 788ZM727 748L719 764C807 810 868 866 897 911 955 973 1072 832 727 748ZM526 472L844 472 844 564 526 564ZM526 442L526 353 844 353 844 442ZM526 593L844 593 844 685 526 685ZM464 325L464 769 474 769C507 769 526 754 526 749L526 715 844 715 844 758 853 758C884 758 908 744 908 739L908 358C928 355 939 350 946 342L873 285 839 325 538 325 464 293ZM495 72L495 287 504 287C535 287 555 273 555 268L555 241 822 241 822 277 832 277C861 277 885 263 885 259L885 103C903 100 912 95 918 89L850 36 819 72 566 72 495 41ZM555 212L555 100 822 100 822 212ZM49 88L57 117 185 117C159 276 112 436 36 559L51 573C85 533 114 491 140 445 176 476 210 518 220 555 285 597 328 469 152 423 173 384 191 343 206 300L329 300C301 534 227 766 45 915L57 929C288 781 360 544 395 309 416 307 426 304 433 295L362 231 323 271 216 271C232 222 245 170 255 117L442 117C456 117 466 112 469 101 435 71 382 30 382 30L336 88Z"/>
</svg>