<svg xmlns="http://www.w3.org/2000/svg" name="gid7369" data-unicode="殮"
    viewBox="0 0 1000 1000">
  <!--
© 2017-2024 Adobe (http://www.adobe.com/).
Noto is a trademark of Google Inc.
This Font Software is licensed under the SIL Open Font License, Version 1.1. This Font Software is distributed on an "AS IS" BASIS, WITHOUT WARRANTIES OR CONDITIONS OF ANY KIND, either express or implied. See the SIL Open Font License for the specific language, permissions and limitations governing your use of this Font Software.
http://scripts.sil.org/OFL
  -->
<path d="M511 305L519 334 803 334C816 334 825 329 828 318 801 292 757 258 757 258L720 305ZM502 657C476 756 411 874 319 945L328 959C409 918 472 852 517 785 553 811 589 852 599 889 660 925 699 807 527 768 540 747 552 726 561 706 584 708 592 702 597 691ZM418 414L418 669 426 669C454 669 472 656 472 651L472 616 576 616 576 659 585 659C611 659 634 645 634 642L634 447C652 444 662 438 668 431L603 380 573 414 484 414 418 385ZM472 586L472 444 576 444 576 586ZM45 118L53 147 175 147C153 309 111 468 35 594L49 607C84 565 114 520 139 472 173 504 206 549 216 585 277 627 322 507 150 450 169 412 186 371 199 329L318 329C292 562 223 794 44 944L57 957C280 810 350 575 382 346L385 352C510 294 627 188 686 96 737 197 826 284 929 339 934 311 948 282 975 274L976 260C864 227 762 162 699 86 723 84 731 79 734 68L630 42C592 130 505 242 412 316L351 261 312 301 208 301C223 252 234 200 243 147L440 147C454 147 464 142 466 131 434 101 382 61 382 61L337 118ZM694 414L694 669 702 669C731 669 749 656 749 651L749 616 856 616 856 659 865 659C891 659 912 645 912 642L912 447C931 444 941 438 948 431L882 380 853 414 761 414 694 385ZM749 586L749 444 856 444 856 586ZM773 662C751 756 697 873 617 945L627 959C692 920 744 863 782 804 834 841 890 898 909 947 978 986 1010 846 794 785 809 759 822 734 832 710 855 711 863 706 868 695Z"/>
</svg>