<svg xmlns="http://www.w3.org/2000/svg"
    viewBox="0 0 1000 1000">
  <!--
© 2017-2023 Adobe (http://www.adobe.com/).
Noto is a trademark of Google Inc.
This Font Software is licensed under the SIL Open Font License, Version 1.1. This Font Software is distributed on an "AS IS" BASIS, WITHOUT WARRANTIES OR CONDITIONS OF ANY KIND, either express or implied. See the SIL Open Font License for the specific language, permissions and limitations governing your use of this Font Software.
http://scripts.sil.org/OFL
  -->
<path d="M824 77L813 83C844 118 880 176 886 222 944 270 1001 146 824 77ZM450 24C438 123 409 215 368 277L383 287C417 255 446 213 468 164 483 181 494 203 498 223 542 257 587 176 477 143 487 119 495 93 502 67 524 67 534 57 538 46ZM609 24C598 128 565 217 518 279L532 289C571 259 603 218 628 167 649 192 668 223 672 251 718 287 761 196 638 144 648 120 656 94 663 66 685 66 695 56 697 44ZM773 668C755 701 735 733 712 763L613 773 613 700 714 700C728 700 736 695 739 684 719 663 688 636 688 636L661 671 613 671 613 579 701 579C714 579 723 574 725 563 706 542 676 516 676 516L648 549 613 549 613 456 705 456C718 456 727 451 729 440 710 418 680 393 680 393L653 426 613 426 613 336 732 336C737 460 749 572 773 668ZM41 88L49 117 157 117C138 274 103 429 37 555L51 567C81 527 107 484 128 440 161 472 192 516 201 551 214 560 226 562 235 557 199 692 141 817 44 912L57 925C258 769 315 530 342 309L346 308 354 336 441 336 441 426 351 426 360 456 441 456 441 548 348 548 357 578 441 578 441 672 333 672 342 700 441 700 441 790C371 796 313 801 276 802L312 885C322 882 331 876 337 863 491 832 608 806 694 786 656 833 610 876 557 911L566 924C661 874 734 804 790 727 808 781 831 829 861 869 888 908 940 941 963 915 973 906 970 889 949 851L964 697 951 695C941 734 926 781 916 804 908 825 905 826 894 808 866 770 845 722 830 665 872 594 901 517 921 445 948 447 957 441 961 428L866 400C854 461 837 523 812 584 799 509 793 425 790 336L936 336C950 336 959 331 962 320 930 290 879 250 879 250L834 307 789 307C787 226 788 142 790 58 815 54 824 43 826 30L727 18C727 119 727 216 731 307L356 307C368 305 375 301 379 295L310 232 273 271 191 271C204 222 214 170 222 117L391 117C405 117 415 112 418 101 386 72 334 31 334 31L289 88ZM497 336L559 336 559 778 497 784ZM182 300L279 300C273 368 263 437 248 504 237 476 205 443 138 420 155 381 170 341 182 300Z"/>
</svg>