<svg xmlns="http://www.w3.org/2000/svg" name="gid7385" data-unicode="殿"
    viewBox="0 0 1000 1000">
  <!--
© 2017-2024 Adobe (http://www.adobe.com/).
Noto is a trademark of Google Inc.
This Font Software is licensed under the SIL Open Font License, Version 1.1. This Font Software is distributed on an "AS IS" BASIS, WITHOUT WARRANTIES OR CONDITIONS OF ANY KIND, either express or implied. See the SIL Open Font License for the specific language, permissions and limitations governing your use of this Font Software.
http://scripts.sil.org/OFL
  -->
<path d="M367 726L356 733C396 771 440 834 450 886 513 932 565 795 367 726ZM238 725C216 792 166 886 107 945L118 959C192 911 256 836 291 779 314 781 322 777 328 767ZM160 138L443 138 443 260 160 260ZM367 334L367 465 290 465 290 365C308 362 314 354 316 343L235 334 235 465 159 465 160 380 160 289 443 289 443 325 453 325C474 325 504 311 505 304L505 149C524 145 540 137 547 129L469 71 433 109 172 109 99 76 99 381C99 562 97 763 23 923L38 932C134 804 155 633 159 483L162 494 235 494 235 668 144 668 152 697 522 697C536 697 545 692 548 681 521 654 477 617 477 617L438 668 422 668 422 494 503 494C516 494 525 489 527 478 503 452 461 419 461 419L427 465 422 465 422 366C440 363 447 354 449 343ZM290 494L367 494 367 668 290 668ZM814 513C794 589 764 659 721 722 673 663 636 594 613 513ZM531 483L540 513 591 513C613 610 646 692 692 761 633 835 556 896 456 942L465 957C574 919 657 866 722 802 774 867 838 917 917 956 928 927 950 910 976 908L978 897C892 867 818 822 758 763 818 692 858 610 886 521 907 519 918 516 926 508L854 442 812 483ZM592 100L592 182C592 267 587 363 522 445L534 458C641 380 650 261 650 182L650 129 772 129 772 342C772 381 779 396 829 396L871 396C947 396 969 383 969 359 969 348 965 341 948 333L945 242 932 242C925 280 916 321 910 332 907 339 904 339 899 340 894 340 885 340 874 340L845 340C834 340 831 338 831 328L831 138C849 135 859 130 865 124L797 65 763 100 662 100 592 68Z"/>
</svg>