<svg xmlns="http://www.w3.org/2000/svg"
    viewBox="0 0 1000 1000">
  <!--
© 2017-2024 Adobe (http://www.adobe.com/).
Noto is a trademark of Google Inc.
This Font Software is licensed under the SIL Open Font License, Version 1.1. This Font Software is distributed on an "AS IS" BASIS, WITHOUT WARRANTIES OR CONDITIONS OF ANY KIND, either express or implied. See the SIL Open Font License for the specific language, permissions and limitations governing your use of this Font Software.
http://scripts.sil.org/OFL
  -->
<path d="M249 13C230 31 196 61 162 87L92 62 92 490 100 490C133 490 150 476 151 472L151 428 418 428 418 468 426 468C446 468 477 453 478 446L478 143C497 139 512 131 519 123L442 65 408 102 298 102 307 132 418 132 418 246 310 246 319 275 418 275 418 399 151 399 151 278 252 278C265 278 274 273 277 262 255 238 221 209 221 209L191 249 151 249 151 120C203 106 259 84 289 69 302 74 311 74 316 67ZM42 816L85 899C94 896 103 888 107 877 294 819 430 772 528 738L525 722 311 766 311 619 486 619C500 619 509 614 512 604 480 574 430 533 430 533L385 590 311 590 311 495C335 491 345 482 346 469L247 459 247 590 72 590 80 619 247 619 247 779C158 797 85 810 42 816ZM812 484C790 559 757 628 712 689 665 632 628 563 605 484ZM525 455L534 484 582 484C604 579 637 659 682 727 616 804 528 866 415 912L424 927C546 890 640 836 712 768 766 835 834 888 918 927 929 898 950 880 976 877L978 867C889 837 812 791 750 730 811 661 854 581 884 492 906 491 917 489 924 480L853 414 811 455ZM574 72L574 153C574 237 569 333 505 415L517 427C624 350 634 232 634 153L634 101 762 101 762 314C762 352 770 367 820 367L861 367C937 367 960 355 960 331 960 319 956 312 938 305L935 221 923 221C915 257 906 294 900 304 898 311 894 311 890 312 885 312 876 312 865 312L836 312C824 312 822 309 822 299L822 110C839 107 849 102 855 95L787 36 754 72 645 72 574 40Z"/>
</svg>