<svg xmlns="http://www.w3.org/2000/svg"
    viewBox="0 0 1000 1000">
  <!--
© 2017-2024 Adobe (http://www.adobe.com/).
Noto is a trademark of Google Inc.
This Font Software is licensed under the SIL Open Font License, Version 1.1. This Font Software is distributed on an "AS IS" BASIS, WITHOUT WARRANTIES OR CONDITIONS OF ANY KIND, either express or implied. See the SIL Open Font License for the specific language, permissions and limitations governing your use of this Font Software.
http://scripts.sil.org/OFL
  -->
<path d="M104 481L93 487C115 517 141 565 142 604 191 649 249 545 104 481ZM396 471C376 521 353 573 334 606L350 616C379 593 415 557 444 524 464 527 476 519 481 508ZM256 13C238 31 203 61 170 87L94 61 94 453 102 453C135 453 152 437 153 433L153 404 410 404 410 439 419 439C438 439 468 424 469 418L469 143C489 139 504 131 511 123L434 65 400 102 290 102 299 132 410 132 410 231 302 231 311 261 410 261 410 374 153 374 153 264 251 264C264 264 273 259 275 248 254 224 220 194 220 194L189 234 153 234 153 121C205 105 262 82 293 66 306 71 314 71 319 64ZM243 443L243 633 49 633 57 662 212 662C174 746 114 824 36 883L47 899C126 856 193 803 243 739L243 929 255 929C276 929 303 913 303 904L303 714C349 743 405 791 427 829 498 861 525 724 303 698L303 662 495 662C509 662 517 657 520 646 492 619 447 585 447 585L407 633 303 633 303 479C325 475 333 466 335 454ZM812 484C790 559 757 628 712 689 665 632 628 563 605 484ZM525 455L534 484 582 484C604 579 637 659 682 727 616 804 528 866 415 912L424 927C546 890 640 836 712 768 766 835 834 888 918 927 929 898 950 880 976 877L978 867C889 837 812 791 750 730 811 661 854 581 884 492 906 491 917 489 924 480L853 414 811 455ZM574 72L574 153C574 237 569 333 505 415L517 427C624 350 634 232 634 153L634 101 762 101 762 314C762 352 770 367 820 367L861 367C937 367 960 355 960 331 960 319 956 312 938 305L935 221 923 221C915 257 906 294 900 304 898 311 894 311 890 312 885 312 876 312 865 312L836 312C824 312 822 309 822 299L822 110C839 107 849 102 855 95L787 36 754 72 645 72 574 40Z"/>
</svg>