<svg xmlns="http://www.w3.org/2000/svg" name="gid7407" data-unicode="毟"
    viewBox="0 0 1000 1000">
  <!--
© 2017-2024 Adobe (http://www.adobe.com/).
Noto is a trademark of Google Inc.
This Font Software is licensed under the SIL Open Font License, Version 1.1. This Font Software is distributed on an "AS IS" BASIS, WITHOUT WARRANTIES OR CONDITIONS OF ANY KIND, either express or implied. See the SIL Open Font License for the specific language, permissions and limitations governing your use of this Font Software.
http://scripts.sil.org/OFL
  -->
<path d="M272 111C228 179 135 271 48 329L59 342C162 300 266 229 323 170 346 176 354 172 361 162ZM696 117L687 127C760 168 859 245 892 309 971 344 988 178 696 117ZM469 42L469 273C469 285 465 290 448 290 430 290 343 284 343 284L343 300C382 305 404 311 417 321 425 329 430 340 433 353 312 409 172 454 37 482L41 499C310 464 580 363 719 253 739 262 750 260 758 253L689 191C648 230 593 269 530 304 532 295 532 286 532 275L532 77C554 73 565 66 567 52ZM110 658L122 686 438 647 438 750 52 795 63 823 438 779 438 864C438 921 460 935 555 935L700 935C904 935 940 926 940 894 940 881 932 874 907 867L903 776 893 776C882 819 870 854 862 866 856 872 850 875 836 876 817 877 765 878 703 878L561 878C508 878 502 873 502 852L502 771 923 721C936 720 945 712 946 702 912 677 856 643 856 643L817 705 502 742 502 639 868 594C880 593 890 586 890 575 857 552 803 519 803 519L765 578 502 610 502 526 502 512C595 493 681 471 751 450 775 458 792 458 800 450L729 388C597 447 339 517 128 550L132 569C233 560 338 544 438 525L438 618Z"/>
</svg>