<svg xmlns="http://www.w3.org/2000/svg"
    viewBox="0 0 1000 1000">
  <!--
© 2017-2024 Adobe (http://www.adobe.com/).
Noto is a trademark of Google Inc.
This Font Software is licensed under the SIL Open Font License, Version 1.1. This Font Software is distributed on an "AS IS" BASIS, WITHOUT WARRANTIES OR CONDITIONS OF ANY KIND, either express or implied. See the SIL Open Font License for the specific language, permissions and limitations governing your use of this Font Software.
http://scripts.sil.org/OFL
  -->
<path d="M36 722L71 805C80 802 90 795 94 782 194 748 272 717 331 695L331 924 341 924C372 924 393 909 393 903L393 112 490 112C504 112 513 107 515 96 483 66 430 25 430 25L383 83 38 83 46 112 122 112 122 709ZM183 112L331 112 331 274 183 274ZM183 303L331 303 331 480 183 480ZM183 509L331 509 331 673 183 699ZM817 12C735 73 566 158 430 205L436 220C488 209 543 195 597 178L597 365 449 395 463 422 597 395 597 583 425 618 438 646 597 614 597 786C597 879 617 897 695 897L862 897C940 897 965 876 965 850 965 837 962 833 937 820L932 680 918 680C908 750 899 801 893 818 887 833 879 834 863 834L698 834C667 834 663 831 663 793L663 600 941 544C954 542 963 535 963 524 925 500 865 469 865 469L831 536 663 570 663 382 893 336C906 333 915 326 916 315 879 290 819 261 819 261L785 327 663 352 663 157C737 132 805 106 856 82 882 89 900 87 907 78Z"/>
</svg>