<svg xmlns="http://www.w3.org/2000/svg"
    viewBox="0 0 1000 1000">
  <!--
© 2017-2024 Adobe (http://www.adobe.com/).
Noto is a trademark of Google Inc.
This Font Software is licensed under the SIL Open Font License, Version 1.1. This Font Software is distributed on an "AS IS" BASIS, WITHOUT WARRANTIES OR CONDITIONS OF ANY KIND, either express or implied. See the SIL Open Font License for the specific language, permissions and limitations governing your use of this Font Software.
http://scripts.sil.org/OFL
  -->
<path d="M754 46L744 55C772 75 804 112 812 144 869 181 916 70 754 46ZM466 269L454 275C488 316 524 383 528 435 588 487 650 355 466 269ZM840 254C798 320 746 388 707 429L707 220 934 220C948 220 957 215 960 205 929 175 878 134 878 134L834 191 707 191 707 53C730 49 740 40 743 25L644 15 644 191 412 191 420 220 644 220 644 474 641 470C536 540 430 609 387 632L441 705C449 699 454 686 453 675 536 599 600 532 644 487L644 710C644 724 639 728 624 728 607 728 527 722 527 722L527 738C564 743 584 750 597 761 608 771 612 788 614 806 697 798 707 767 707 715L707 493C771 538 848 614 870 678 946 724 982 558 710 479L707 482 707 436 716 446C768 415 830 366 881 318 902 324 916 318 922 309ZM35 600L49 625 203 586 203 795C203 881 249 898 380 898L604 899C907 899 963 895 963 856 963 842 954 835 922 827L919 712 905 712C889 776 874 810 863 825 855 834 846 838 824 841 793 843 716 845 608 845L376 845C284 845 266 830 266 790L266 571 437 528C448 526 457 517 456 506 421 487 363 462 363 462L334 524 266 541 266 353 411 317C423 315 432 306 431 295 395 276 337 250 337 250L308 313 266 323 266 148 266 130C316 115 361 99 397 84 422 91 439 91 446 81L366 18C296 66 157 131 41 164L47 181C98 173 152 161 203 147L203 339 57 375 71 401 203 368 203 557Z"/>
</svg>