<svg xmlns="http://www.w3.org/2000/svg"
    viewBox="0 0 1000 1000">
  <!--
© 2017-2023 Adobe (http://www.adobe.com/).
Noto is a trademark of Google Inc.
This Font Software is licensed under the SIL Open Font License, Version 1.1. This Font Software is distributed on an "AS IS" BASIS, WITHOUT WARRANTIES OR CONDITIONS OF ANY KIND, either express or implied. See the SIL Open Font License for the specific language, permissions and limitations governing your use of this Font Software.
http://scripts.sil.org/OFL
  -->
<path d="M796 190C720 310 549 416 361 465L367 480C573 447 752 352 839 242 861 248 871 244 878 235ZM486 78C464 148 414 246 352 307L362 320C441 272 506 193 541 129 565 133 572 128 577 117ZM774 89L763 98C820 142 887 220 901 284 970 331 1013 175 774 89ZM625 18L625 235C625 248 621 252 608 252 591 252 514 247 514 247L514 263C550 267 568 274 580 282 591 290 595 305 598 320 677 313 687 287 687 237L687 54C709 50 718 43 721 29ZM35 521L75 603C85 598 92 588 94 575L184 522 184 826C184 841 180 846 162 846 145 846 59 840 59 840L59 856C97 861 119 868 133 879 145 890 149 908 152 928 238 918 248 886 248 832L248 482 378 401 372 387 248 439 248 257 374 257C387 257 397 252 400 241 371 212 325 173 325 173L284 227 248 227 248 50C272 47 282 37 285 23L184 12 184 227 42 227 50 257 184 257 184 465C119 491 65 511 35 521ZM336 637L348 665 568 634 568 724 317 757 329 784 568 753 568 843C568 894 585 909 664 909L774 909C935 909 965 899 965 870 965 858 960 850 937 844L933 753 922 753C912 794 901 831 894 842 889 848 884 850 874 851 859 853 822 853 777 853L675 853C636 853 632 848 632 831L632 745 935 706C948 704 958 697 959 685 924 662 867 629 867 629L829 690 632 716 632 625 897 588C909 586 919 579 920 568 887 545 831 514 831 514L797 573 632 596 632 529 632 509C695 494 753 478 799 463 822 471 838 471 846 463L774 402C689 447 520 506 381 535L386 552C446 546 508 535 568 523L568 605Z"/>
</svg>