<svg xmlns="http://www.w3.org/2000/svg"
    viewBox="0 0 1000 1000">
  <!--
© 2017-2023 Adobe (http://www.adobe.com/).
Noto is a trademark of Google Inc.
This Font Software is licensed under the SIL Open Font License, Version 1.1. This Font Software is distributed on an "AS IS" BASIS, WITHOUT WARRANTIES OR CONDITIONS OF ANY KIND, either express or implied. See the SIL Open Font License for the specific language, permissions and limitations governing your use of this Font Software.
http://scripts.sil.org/OFL
  -->
<path d="M523 453L505 453C508 515 474 571 436 592 417 604 404 623 413 642 424 663 457 660 479 645 516 621 551 554 523 453ZM531 80L513 81C517 139 485 194 450 215 432 226 419 244 428 263 438 284 471 281 492 265 526 241 558 177 531 80ZM447 80L366 18C297 65 157 130 42 164L48 181C98 173 152 161 203 148L203 340 57 375 72 401 203 370 203 560 35 602 50 629 203 591 203 795C203 881 249 898 381 898L604 899C908 899 963 895 963 856 963 842 954 835 922 827L919 708 907 708C889 773 874 809 863 825 855 834 846 838 825 841 793 843 716 845 608 845L377 845C284 845 266 830 266 790L266 575 437 532C449 530 458 521 458 510 421 491 364 465 364 465L335 527 266 544 266 355 412 321C425 319 434 310 433 299 397 279 340 253 340 253L309 315 266 325 266 147 266 130C316 114 362 98 398 83 422 90 439 90 447 80ZM708 390L615 381C613 569 617 697 393 783L405 800C557 753 623 691 652 613 711 656 778 720 802 771 866 806 895 693 714 612 766 581 819 544 849 519 867 528 882 523 888 515L810 450C786 488 735 555 692 602L659 590C674 538 675 480 677 415 698 412 707 403 708 390ZM710 23L617 13C616 198 621 319 425 400L437 416C573 373 631 314 657 241 722 281 798 343 826 394 894 424 913 305 718 235 768 204 820 168 849 144 867 151 883 146 888 138L808 75C785 112 736 179 694 227L664 218C677 168 678 112 680 48 700 45 708 35 710 23Z"/>
</svg>