<svg xmlns="http://www.w3.org/2000/svg" name="gid7450" data-unicode="氷"
    viewBox="0 0 1000 1000">
  <!--
© 2017-2024 Adobe (http://www.adobe.com/).
Noto is a trademark of Google Inc.
This Font Software is licensed under the SIL Open Font License, Version 1.1. This Font Software is distributed on an "AS IS" BASIS, WITHOUT WARRANTIES OR CONDITIONS OF ANY KIND, either express or implied. See the SIL Open Font License for the specific language, permissions and limitations governing your use of this Font Software.
http://scripts.sil.org/OFL
  -->
<path d="M170 101L160 111C218 151 292 223 315 280 389 324 426 169 170 101ZM845 206C798 277 708 383 625 460 584 383 551 294 530 190L530 80C555 76 563 67 565 53L464 42 464 852C464 868 458 874 438 874 415 874 297 866 297 866L297 882C348 888 376 896 393 908 408 919 415 936 418 958 518 948 530 913 530 858L530 262C597 574 732 745 899 869 911 836 934 816 962 813L966 803C845 734 723 634 635 478 734 415 837 330 898 269 920 275 929 272 936 262ZM43 369L52 398 314 398C274 573 183 748 31 859L41 873C236 764 335 585 384 406 406 405 417 401 425 393L352 328 310 369Z"/>
</svg>