<svg xmlns="http://www.w3.org/2000/svg" name="gid7467" data-unicode="汕"
    viewBox="0 0 1000 1000">
  <!--
© 2017-2024 Adobe (http://www.adobe.com/).
Noto is a trademark of Google Inc.
This Font Software is licensed under the SIL Open Font License, Version 1.1. This Font Software is distributed on an "AS IS" BASIS, WITHOUT WARRANTIES OR CONDITIONS OF ANY KIND, either express or implied. See the SIL Open Font License for the specific language, permissions and limitations governing your use of this Font Software.
http://scripts.sil.org/OFL
  -->
<path d="M122 54L112 63C157 93 211 148 227 194 301 235 340 86 122 54ZM47 290L37 300C81 326 132 376 148 420 219 460 258 316 47 290ZM103 682C93 682 58 682 58 682L58 704C80 705 95 707 108 717 130 732 136 810 122 911 124 943 136 961 154 961 187 961 207 935 209 893 212 811 184 766 183 721 183 697 190 665 199 634 214 585 300 348 344 221L325 216C146 625 146 625 128 661 118 681 115 682 103 682ZM849 247L849 811 671 811 671 99C696 95 705 85 707 70L607 59 607 811 436 811 436 285C460 281 468 271 471 258L372 247 372 949 384 949C408 949 436 935 436 925L436 840 849 840 849 935 862 935C886 935 914 920 914 911L914 285C938 281 947 271 949 258Z"/>
</svg>