<svg xmlns="http://www.w3.org/2000/svg" name="gid7468" data-unicode="汗"
    viewBox="0 0 1000 1000">
  <!--
© 2017-2024 Adobe (http://www.adobe.com/).
Noto is a trademark of Google Inc.
This Font Software is licensed under the SIL Open Font License, Version 1.1. This Font Software is distributed on an "AS IS" BASIS, WITHOUT WARRANTIES OR CONDITIONS OF ANY KIND, either express or implied. See the SIL Open Font License for the specific language, permissions and limitations governing your use of this Font Software.
http://scripts.sil.org/OFL
  -->
<path d="M116 52L107 62C156 91 215 148 234 194 309 233 343 83 116 52ZM45 277L36 287C82 313 136 363 153 407 227 445 262 298 45 277ZM109 679C99 679 65 679 65 679L65 700C86 702 101 705 114 714 137 729 143 807 128 908 131 940 143 958 162 958 197 958 217 931 219 888 222 807 193 763 192 718 191 693 199 661 209 629 223 578 314 334 360 203L342 198C154 621 154 621 134 658 125 678 122 679 109 679ZM293 450L301 480 592 480 592 957 604 957C639 957 662 939 662 934L662 480 952 480C966 480 975 475 978 464 945 433 890 389 890 389L844 450 662 450 662 147 922 147C936 147 946 142 948 131 916 101 863 59 863 59L817 118 338 118 346 147 592 147 592 450Z"/>
</svg>