<svg xmlns="http://www.w3.org/2000/svg" name="gid7469" data-unicode="汙"
    viewBox="0 0 1000 1000">
  <!--
© 2017-2024 Adobe (http://www.adobe.com/).
Noto is a trademark of Google Inc.
This Font Software is licensed under the SIL Open Font License, Version 1.1. This Font Software is distributed on an "AS IS" BASIS, WITHOUT WARRANTIES OR CONDITIONS OF ANY KIND, either express or implied. See the SIL Open Font License for the specific language, permissions and limitations governing your use of this Font Software.
http://scripts.sil.org/OFL
  -->
<path d="M114 52L105 62C154 91 213 148 232 194 307 233 342 83 114 52ZM41 282L33 292C80 319 138 370 158 414 234 451 266 301 41 282ZM108 677C98 677 64 677 64 677L64 699C85 701 101 704 113 713 136 727 142 804 128 906 131 937 142 955 161 955 194 955 214 929 216 887 219 805 190 761 190 716 190 692 197 661 207 629 223 579 317 336 365 206L347 201C153 620 153 620 134 656 124 676 121 677 108 677ZM365 117L372 145 612 145 612 446 321 446 329 474 612 474 612 850C612 867 606 874 584 874 560 874 433 864 433 864L433 880C489 887 518 894 537 907 552 917 560 936 562 957 665 948 679 907 679 854L679 474 950 474C963 474 974 469 977 458 943 427 886 382 886 382L839 446 679 446 679 145 914 145C928 145 938 140 941 129 907 99 852 55 852 55L805 117Z"/>
</svg>