<svg xmlns="http://www.w3.org/2000/svg"
    viewBox="0 0 1000 1000">
  <!--
© 2017-2023 Adobe (http://www.adobe.com/).
Noto is a trademark of Google Inc.
This Font Software is licensed under the SIL Open Font License, Version 1.1. This Font Software is distributed on an "AS IS" BASIS, WITHOUT WARRANTIES OR CONDITIONS OF ANY KIND, either express or implied. See the SIL Open Font License for the specific language, permissions and limitations governing your use of this Font Software.
http://scripts.sil.org/OFL
  -->
<path d="M122 24L113 33C157 64 210 119 225 166 298 208 340 60 122 24ZM47 243L38 253C82 280 133 330 149 373 220 415 259 271 47 243ZM108 647C98 647 64 647 64 647L64 669C85 671 100 674 113 683 136 698 142 775 128 877 130 908 142 927 160 927 192 927 212 901 214 858 218 777 190 732 189 688 188 663 196 633 205 601 221 553 314 318 361 193L343 188C154 591 154 591 134 627 124 647 121 647 108 647ZM468 464L828 464 828 785 468 785ZM468 435L468 124 828 124 828 435ZM405 94L405 918 415 918C447 918 468 902 468 897L468 814 828 814 828 905 838 905C868 905 894 888 894 882L894 132C916 128 929 122 937 113L859 51 822 94 480 94 405 63Z"/>
</svg>