<svg xmlns="http://www.w3.org/2000/svg" name="gid7486" data-unicode="汳"
    viewBox="0 0 1000 1000">
  <!--
© 2017-2024 Adobe (http://www.adobe.com/).
Noto is a trademark of Google Inc.
This Font Software is licensed under the SIL Open Font License, Version 1.1. This Font Software is distributed on an "AS IS" BASIS, WITHOUT WARRANTIES OR CONDITIONS OF ANY KIND, either express or implied. See the SIL Open Font License for the specific language, permissions and limitations governing your use of this Font Software.
http://scripts.sil.org/OFL
  -->
<path d="M110 53L102 62C145 93 199 148 215 195 289 236 329 88 110 53ZM46 278L36 287C78 313 123 362 137 404 207 445 250 305 46 278ZM102 672C91 672 57 672 57 672L57 694C79 696 94 699 106 708 129 722 134 799 121 902 123 933 135 951 154 951 187 951 206 925 208 883 212 801 184 756 183 711 183 687 189 656 199 625 214 577 303 340 348 214L330 209C146 616 146 616 127 651 117 671 114 672 102 672ZM391 118L391 369C391 569 373 777 249 946L264 956C435 793 452 561 453 379L525 379C548 514 587 626 645 717 575 806 484 881 365 936L375 950C504 904 602 840 676 763 736 841 810 902 902 948 916 916 941 897 970 895L973 886C872 847 786 791 717 717 793 622 841 511 873 390 896 388 907 386 914 377L839 307 796 350 453 350 453 146 917 146C931 146 941 141 944 130 911 100 859 58 859 58L814 118 465 118 391 85ZM800 379C775 486 736 585 678 672 616 592 571 495 546 379Z"/>
</svg>