<svg xmlns="http://www.w3.org/2000/svg"
    viewBox="0 0 1000 1000">
  <!--
© 2017-2023 Adobe (http://www.adobe.com/).
Noto is a trademark of Google Inc.
This Font Software is licensed under the SIL Open Font License, Version 1.1. This Font Software is distributed on an "AS IS" BASIS, WITHOUT WARRANTIES OR CONDITIONS OF ANY KIND, either express or implied. See the SIL Open Font License for the specific language, permissions and limitations governing your use of this Font Software.
http://scripts.sil.org/OFL
  -->
<path d="M125 23L115 32C160 62 214 116 229 163 304 203 342 54 125 23ZM42 242L33 252C76 279 127 328 143 371 214 412 254 268 42 242ZM92 648C81 648 47 648 47 648L47 670C69 671 84 674 97 683 119 698 124 775 110 878 113 909 124 927 142 927 177 927 195 901 197 859 201 777 174 732 173 687 172 663 180 632 188 601 202 553 289 320 333 195L314 190C135 592 135 592 117 627 107 647 104 648 92 648ZM417 282L425 311 866 311C880 311 889 306 892 295 861 266 811 225 811 225L766 282ZM303 421L311 451 766 451C768 644 784 830 876 901 906 926 947 939 964 914 974 902 968 885 951 861L961 743 949 741C940 772 931 802 921 827 917 838 913 840 904 833 843 783 830 597 834 461 853 458 867 452 873 444L795 381 756 421ZM482 11C441 152 370 287 300 370L313 381C377 332 437 262 486 178L937 178C951 178 961 173 963 162 930 131 877 89 877 89L829 149 503 149C518 121 531 92 544 62 566 64 578 55 582 44Z"/>
</svg>