<svg xmlns="http://www.w3.org/2000/svg" name="gid7495" data-unicode="沁"
    viewBox="0 0 1000 1000">
  <!--
© 2017-2024 Adobe (http://www.adobe.com/).
Noto is a trademark of Google Inc.
This Font Software is licensed under the SIL Open Font License, Version 1.1. This Font Software is distributed on an "AS IS" BASIS, WITHOUT WARRANTIES OR CONDITIONS OF ANY KIND, either express or implied. See the SIL Open Font License for the specific language, permissions and limitations governing your use of this Font Software.
http://scripts.sil.org/OFL
  -->
<path d="M496 256L496 862C496 918 514 937 592 937L689 937C834 937 868 924 868 893 868 879 863 870 839 862L837 683 824 683C812 758 798 835 791 855 786 866 781 869 771 871 758 872 729 873 689 873L604 873C568 873 562 865 562 845L562 295C583 291 593 281 594 268ZM800 377L789 387C859 467 889 590 902 662 968 733 1043 534 800 377ZM501 55L491 64C562 113 646 200 669 274 754 325 793 136 501 55ZM377 390C379 517 336 607 308 635 248 695 309 746 362 694 410 645 424 542 391 390ZM124 60L115 70C164 100 223 156 242 203 317 242 352 91 124 60ZM46 273L36 283C81 310 133 360 150 405 223 444 260 297 46 273ZM107 678C96 678 62 678 62 678L62 700C83 701 99 704 111 713 134 728 140 805 126 907 129 938 141 957 160 957 194 957 214 930 216 888 219 807 190 763 190 717 190 693 198 662 207 630 223 582 317 344 366 216L347 212C153 621 153 621 133 657 122 677 119 678 107 678Z"/>
</svg>