<svg xmlns="http://www.w3.org/2000/svg" name="gid7502" data-unicode="沈"
    viewBox="0 0 1000 1000">
  <!--
© 2017-2024 Adobe (http://www.adobe.com/).
Noto is a trademark of Google Inc.
This Font Software is licensed under the SIL Open Font License, Version 1.1. This Font Software is distributed on an "AS IS" BASIS, WITHOUT WARRANTIES OR CONDITIONS OF ANY KIND, either express or implied. See the SIL Open Font License for the specific language, permissions and limitations governing your use of this Font Software.
http://scripts.sil.org/OFL
  -->
<path d="M99 677C88 677 56 677 56 677L56 699C76 701 91 704 104 713 126 727 132 807 118 909 120 941 132 959 150 959 184 959 204 932 206 889 209 807 180 761 180 716 180 692 185 661 194 631 207 583 283 355 322 233L304 228C140 622 140 622 124 656 114 677 111 677 99 677ZM44 278L34 287C77 315 129 367 143 411 215 453 258 310 44 278ZM117 55L107 64C154 94 210 151 229 198 303 240 343 90 117 55ZM740 406L644 395 644 866C644 914 658 932 728 932L808 932C933 932 962 919 962 890 962 878 957 870 936 862L934 701 920 701C909 767 897 839 890 856 886 867 882 869 874 870 864 871 840 871 809 871L741 871C712 871 708 866 708 850L708 431C729 428 738 418 740 406ZM401 188L385 187C381 261 358 319 327 348 276 422 422 455 412 266L557 266C551 538 510 767 266 939L279 957C569 787 611 545 620 266L845 266 815 386 828 393C856 363 899 310 923 278 942 277 953 275 961 268L884 193 841 236 621 236 623 87C647 84 657 74 659 61L558 49 558 236 409 236Z"/>
</svg>