<svg xmlns="http://www.w3.org/2000/svg" name="gid7505" data-unicode="沍"
    viewBox="0 0 1000 1000">
  <!--
© 2017-2024 Adobe (http://www.adobe.com/).
Noto is a trademark of Google Inc.
This Font Software is licensed under the SIL Open Font License, Version 1.1. This Font Software is distributed on an "AS IS" BASIS, WITHOUT WARRANTIES OR CONDITIONS OF ANY KIND, either express or implied. See the SIL Open Font License for the specific language, permissions and limitations governing your use of this Font Software.
http://scripts.sil.org/OFL
  -->
<path d="M119 53L110 62C155 93 211 149 228 197 302 237 338 88 119 53ZM46 291L37 300C81 327 132 377 148 421 220 460 259 315 46 291ZM103 679C92 679 57 679 57 679L57 701C78 702 94 705 107 714 130 729 136 805 122 908 125 940 137 958 156 958 190 958 210 931 212 889 216 807 187 763 186 719 186 694 194 663 204 632 220 583 321 343 372 216L355 210C150 623 150 623 130 658 119 678 115 679 103 679ZM262 886L270 915 944 915C958 915 967 911 970 900 938 868 886 825 886 825L840 886 756 886 831 375C849 373 859 370 867 362L794 298 758 339 521 339C535 271 547 207 556 155L921 155C935 155 944 150 947 139 914 109 862 67 862 67L817 125 321 125 329 155 489 155C467 309 404 603 363 729 391 737 420 736 434 725L454 646 723 646 688 886ZM516 368L764 368 728 616 461 616C479 540 498 452 516 368Z"/>
</svg>