<svg xmlns="http://www.w3.org/2000/svg"
    viewBox="0 0 1000 1000">
  <!--
© 2017-2023 Adobe (http://www.adobe.com/).
Noto is a trademark of Google Inc.
This Font Software is licensed under the SIL Open Font License, Version 1.1. This Font Software is distributed on an "AS IS" BASIS, WITHOUT WARRANTIES OR CONDITIONS OF ANY KIND, either express or implied. See the SIL Open Font License for the specific language, permissions and limitations governing your use of this Font Software.
http://scripts.sil.org/OFL
  -->
<path d="M714 709L714 837 284 837 284 709ZM714 681L284 681 284 559 714 559ZM219 530L219 926 230 926C257 926 284 911 284 904L284 867 714 867 714 920 724 920C746 920 779 905 780 898L780 571C800 567 816 559 823 552L741 489 704 530 290 530 219 497ZM824 62C779 109 692 183 620 233 582 184 551 125 531 54L531 48C555 44 562 37 565 23L468 12 468 402C468 415 464 420 446 420 428 420 336 413 336 413L336 429C377 434 399 443 414 453 426 463 431 480 433 498 520 490 531 459 531 407L531 101C599 333 736 439 907 513 916 483 935 463 961 458L962 447C843 411 721 355 632 249 717 213 813 162 870 126 892 133 901 130 908 121ZM67 158L76 187 318 187C272 318 173 435 33 508L42 524C221 454 331 333 390 194 413 193 423 190 431 181L359 119 318 158Z"/>
</svg>