<svg xmlns="http://www.w3.org/2000/svg"
    viewBox="0 0 1000 1000">
  <!--
© 2017-2024 Adobe (http://www.adobe.com/).
Noto is a trademark of Google Inc.
This Font Software is licensed under the SIL Open Font License, Version 1.1. This Font Software is distributed on an "AS IS" BASIS, WITHOUT WARRANTIES OR CONDITIONS OF ANY KIND, either express or implied. See the SIL Open Font License for the specific language, permissions and limitations governing your use of this Font Software.
http://scripts.sil.org/OFL
  -->
<path d="M98 643C87 643 53 643 53 643L53 666C75 667 90 670 102 679 124 694 130 773 116 877 118 908 129 926 147 926 179 926 198 901 200 858 204 776 177 728 176 684 176 660 182 629 190 599 205 551 288 322 330 200L311 195C140 588 140 588 122 622 112 643 109 643 98 643ZM117 22L107 31C149 62 200 117 216 162 286 204 329 65 117 22ZM43 252L34 261C74 288 121 338 134 380 202 422 245 284 43 252ZM456 17C422 195 353 360 272 468L286 478C353 418 410 337 456 240L548 240C512 444 414 642 257 784L270 796C458 661 570 463 621 240L708 240C678 491 579 733 396 906L408 918C629 753 736 512 780 240L864 240C851 582 821 788 779 827 766 838 757 842 738 842 716 842 653 835 614 832L613 850C648 856 685 866 699 877 711 888 716 906 715 928 760 928 800 914 831 880 883 822 916 620 928 249 951 246 963 241 971 233L893 166 854 211 469 211C489 165 507 116 521 65 543 65 555 55 559 43Z"/>
</svg>