<svg xmlns="http://www.w3.org/2000/svg" name="gid7511" data-unicode="沖"
    viewBox="0 0 1000 1000">
  <!--
© 2017-2024 Adobe (http://www.adobe.com/).
Noto is a trademark of Google Inc.
This Font Software is licensed under the SIL Open Font License, Version 1.1. This Font Software is distributed on an "AS IS" BASIS, WITHOUT WARRANTIES OR CONDITIONS OF ANY KIND, either express or implied. See the SIL Open Font License for the specific language, permissions and limitations governing your use of this Font Software.
http://scripts.sil.org/OFL
  -->
<path d="M128 54L119 63C163 94 218 149 234 196 309 236 348 87 128 54ZM47 276L37 285C82 312 134 362 151 406 224 446 260 300 47 276ZM106 679C95 679 62 679 62 679L62 701C84 703 98 706 110 715 132 729 138 808 124 909 126 940 138 959 157 959 190 959 210 933 212 890 215 808 186 763 186 719 186 694 192 664 200 633 214 586 293 358 333 236L314 232C148 624 148 624 131 659 121 679 117 679 106 679ZM363 237L363 692 373 692C400 692 426 677 426 670L426 595 609 595 609 959 622 959C645 959 673 943 673 932L673 595 854 595 854 679 864 679C885 679 917 663 918 657L918 278C939 274 954 266 961 258L881 197 844 237 673 237 673 89C704 86 713 74 716 57L609 45 609 237 432 237 363 205ZM609 566L426 566 426 266 609 266ZM673 566L673 266 854 266 854 566Z"/>
</svg>