<svg xmlns="http://www.w3.org/2000/svg"
    viewBox="0 0 1000 1000">
  <!--
© 2017-2024 Adobe (http://www.adobe.com/).
Noto is a trademark of Google Inc.
This Font Software is licensed under the SIL Open Font License, Version 1.1. This Font Software is distributed on an "AS IS" BASIS, WITHOUT WARRANTIES OR CONDITIONS OF ANY KIND, either express or implied. See the SIL Open Font License for the specific language, permissions and limitations governing your use of this Font Software.
http://scripts.sil.org/OFL
  -->
<path d="M113 23L104 32C149 62 203 117 219 164 293 204 331 55 113 23ZM42 252L34 262C77 288 128 338 143 381 215 422 254 279 42 252ZM99 651C88 651 54 651 54 651L54 673C76 675 91 677 103 687 126 701 131 779 117 880 120 912 132 931 150 931 183 931 202 905 204 862 208 781 181 735 180 690 179 666 186 635 195 603 209 554 296 317 340 190L321 185C142 595 142 595 124 630 114 650 111 651 99 651ZM734 31L725 41C773 66 832 114 853 155 920 188 947 55 734 31ZM407 342C406 526 410 716 290 856L305 871C463 739 465 548 470 376 492 373 500 363 502 351ZM764 342L764 743C764 819 777 835 834 835L895 835C949 835 968 815 968 790 968 778 965 773 946 764L943 667 929 667C922 716 915 750 910 763 906 774 902 775 896 775L841 775C828 775 828 773 828 746L828 378C847 375 857 366 859 353ZM586 12L586 232 334 232 342 262 586 262 586 928 599 928C623 928 650 912 650 902L650 262 938 262C952 262 962 257 965 246 930 215 876 173 876 173L827 232 650 232 650 50C676 46 684 36 687 22Z"/>
</svg>