<svg xmlns="http://www.w3.org/2000/svg" name="gid7525" data-unicode="沮"
    viewBox="0 0 1000 1000">
  <!--
© 2017-2024 Adobe (http://www.adobe.com/).
Noto is a trademark of Google Inc.
This Font Software is licensed under the SIL Open Font License, Version 1.1. This Font Software is distributed on an "AS IS" BASIS, WITHOUT WARRANTIES OR CONDITIONS OF ANY KIND, either express or implied. See the SIL Open Font License for the specific language, permissions and limitations governing your use of this Font Software.
http://scripts.sil.org/OFL
  -->
<path d="M116 53L107 62C152 92 206 147 223 193 295 233 333 85 116 53ZM47 289L38 298C80 324 129 375 143 418 214 459 256 315 47 289ZM102 679C91 679 56 679 56 679L56 701C78 702 93 705 106 714 129 729 135 806 121 908 124 940 135 958 155 958 189 958 209 931 211 889 215 807 185 763 185 718 184 694 192 662 201 631 218 582 313 339 363 211L345 205C148 622 148 622 127 658 117 678 114 679 102 679ZM465 384L774 384 774 609 465 609ZM465 354L465 135 774 135 774 354ZM465 639L774 639 774 890 465 890ZM255 890L263 919 951 919C965 919 974 914 976 904 948 874 901 833 901 833L860 890 839 890 839 145C864 142 878 137 885 128L798 60 763 106 476 106 402 73 402 890Z"/>
</svg>