<svg xmlns="http://www.w3.org/2000/svg"
    viewBox="0 0 1000 1000">
  <!--
© 2017-2023 Adobe (http://www.adobe.com/).
Noto is a trademark of Google Inc.
This Font Software is licensed under the SIL Open Font License, Version 1.1. This Font Software is distributed on an "AS IS" BASIS, WITHOUT WARRANTIES OR CONDITIONS OF ANY KIND, either express or implied. See the SIL Open Font License for the specific language, permissions and limitations governing your use of this Font Software.
http://scripts.sil.org/OFL
  -->
<path d="M125 30L115 39C160 69 215 125 231 172 306 212 344 62 125 30ZM46 253L36 262C81 289 133 339 150 383 223 423 259 276 46 253ZM100 643C90 643 54 643 54 643L54 665C76 667 91 671 105 679 128 694 134 769 120 872 123 904 133 923 152 923 185 923 206 897 208 854 211 774 182 728 182 684 182 660 190 630 200 601 217 556 317 333 367 215L349 208C148 590 148 590 128 623 117 643 113 643 100 643ZM386 89L386 521 396 521C429 521 450 507 450 501L450 444 507 444C495 663 443 802 241 913L248 927C486 832 555 689 573 444L663 444 663 838C663 884 675 901 742 901L818 901C938 901 965 889 965 862 965 848 961 841 940 833L937 709 924 709C914 761 903 816 897 830 892 838 890 840 881 841 872 842 848 842 820 842L756 842C728 842 725 837 725 822L725 444 815 444 815 503 824 503C855 503 879 488 879 483L879 123C900 120 910 114 917 106L844 50 810 89 461 89 386 57ZM450 415L450 118 815 118 815 415Z"/>
</svg>