<svg xmlns="http://www.w3.org/2000/svg" name="gid7552" data-unicode="泓"
    viewBox="0 0 1000 1000">
  <!--
© 2017-2024 Adobe (http://www.adobe.com/).
Noto is a trademark of Google Inc.
This Font Software is licensed under the SIL Open Font License, Version 1.1. This Font Software is distributed on an "AS IS" BASIS, WITHOUT WARRANTIES OR CONDITIONS OF ANY KIND, either express or implied. See the SIL Open Font License for the specific language, permissions and limitations governing your use of this Font Software.
http://scripts.sil.org/OFL
  -->
<path d="M91 671C80 671 48 671 48 671L48 693C69 696 83 698 96 707 116 721 123 803 109 907 110 938 121 957 139 957 172 957 189 931 191 889 195 805 168 756 168 711 167 686 173 655 180 625 193 578 264 353 301 231L282 226C130 615 130 615 114 650 105 670 102 671 91 671ZM107 50L98 59C137 88 186 140 201 184 271 225 316 86 107 50ZM45 286L36 295C75 320 118 368 131 409 200 450 245 311 45 286ZM309 91L318 119 507 119 507 298 414 298 343 267C333 342 308 481 288 578 320 584 337 582 353 574L363 523 495 523C484 724 462 842 432 868 423 876 415 878 397 878 377 878 318 874 284 871L283 888C314 894 348 901 360 911 372 921 375 938 375 956 414 956 449 945 474 922 516 883 545 757 555 531 575 528 588 523 595 515L521 454 486 494 368 494C378 435 388 372 395 327L507 327 507 390 516 390C537 390 568 376 569 370L569 131C588 127 604 119 611 112L532 52 497 91ZM530 848L567 933C576 931 585 924 590 912 714 876 809 845 879 822 888 861 894 898 895 932 974 1010 1027 793 793 530L777 534C812 610 851 710 875 804L648 835C707 600 770 303 802 109 826 107 837 97 840 83L725 58C700 283 658 600 626 837Z"/>
</svg>