<svg xmlns="http://www.w3.org/2000/svg"
    viewBox="0 0 1000 1000">
  <!--
© 2017-2023 Adobe (http://www.adobe.com/).
Noto is a trademark of Google Inc.
This Font Software is licensed under the SIL Open Font License, Version 1.1. This Font Software is distributed on an "AS IS" BASIS, WITHOUT WARRANTIES OR CONDITIONS OF ANY KIND, either express or implied. See the SIL Open Font License for the specific language, permissions and limitations governing your use of this Font Software.
http://scripts.sil.org/OFL
  -->
<path d="M116 26L107 35C152 65 206 120 222 166 296 207 334 58 116 26ZM49 265L39 274C83 300 134 350 150 394 221 434 260 290 49 265ZM101 648C91 648 57 648 57 648L57 670C78 672 93 675 106 684 127 699 133 775 120 879 122 911 133 929 151 929 184 929 204 903 206 860 210 780 182 733 181 689 181 666 188 637 197 608 211 567 292 365 332 259L314 254C146 596 146 596 127 629 117 648 113 648 101 648ZM590 15L590 189 316 189 324 218 565 218C542 278 502 359 464 422 434 406 397 391 352 377L342 387C407 434 497 517 528 579 590 610 621 517 485 434 541 377 603 306 636 257 653 262 665 259 670 249L603 218 942 218C956 218 964 213 967 202 933 170 876 127 876 127L826 189 655 189 655 52C680 48 689 38 692 24ZM763 347C692 479 556 678 431 819L301 827 345 918C355 915 365 908 370 896 582 860 735 831 848 806 869 844 885 881 893 915 973 977 1026 792 738 627L725 635C761 676 803 731 837 787L464 817C599 687 740 519 818 406 838 411 850 409 855 398Z"/>
</svg>