<svg xmlns="http://www.w3.org/2000/svg" name="gid7577" data-unicode="泱"
    viewBox="0 0 1000 1000">
  <!--
© 2017-2024 Adobe (http://www.adobe.com/).
Noto is a trademark of Google Inc.
This Font Software is licensed under the SIL Open Font License, Version 1.1. This Font Software is distributed on an "AS IS" BASIS, WITHOUT WARRANTIES OR CONDITIONS OF ANY KIND, either express or implied. See the SIL Open Font License for the specific language, permissions and limitations governing your use of this Font Software.
http://scripts.sil.org/OFL
  -->
<path d="M105 59L96 68C140 99 195 154 211 201 285 242 324 93 105 59ZM41 278L33 288C76 315 128 364 145 408 217 448 255 303 41 278ZM88 664C77 664 42 664 42 664L42 685C64 687 79 690 92 700 113 714 119 791 106 894 108 925 120 943 138 943 172 943 191 917 193 875 197 794 169 748 168 705 168 680 175 650 183 621 197 575 281 359 322 243L305 238C132 610 132 610 113 644 103 664 100 664 88 664ZM779 540L615 540C627 478 631 413 631 348L631 250 779 250ZM567 41L567 221 432 221 357 188 357 221 357 540 257 540 265 570 546 570C513 719 430 849 242 942L252 958C476 872 571 731 609 570L614 570C662 759 750 887 907 956 915 923 936 903 962 897L963 887C805 841 692 723 636 570L953 570C966 570 975 565 978 554 951 523 903 481 903 481L862 540 842 540 842 261C862 257 879 250 886 242L807 181 769 221 631 221 631 79C655 75 663 65 665 51ZM420 540L420 250 567 250 567 348C567 414 563 479 552 540Z"/>
</svg>