<svg xmlns="http://www.w3.org/2000/svg"
    viewBox="0 0 1000 1000">
  <!--
© 2017-2024 Adobe (http://www.adobe.com/).
Noto is a trademark of Google Inc.
This Font Software is licensed under the SIL Open Font License, Version 1.1. This Font Software is distributed on an "AS IS" BASIS, WITHOUT WARRANTIES OR CONDITIONS OF ANY KIND, either express or implied. See the SIL Open Font License for the specific language, permissions and limitations governing your use of this Font Software.
http://scripts.sil.org/OFL
  -->
<path d="M105 29L96 38C140 69 195 124 211 171 285 212 324 63 105 29ZM41 248L33 258C76 285 128 334 145 378 217 418 255 273 41 248ZM88 634C77 634 42 634 42 634L42 655C64 657 79 660 92 670 113 684 119 761 106 864 108 895 120 913 138 913 172 913 191 887 193 845 197 764 169 718 168 675 168 650 175 620 183 591 197 545 281 329 322 213L305 208C132 580 132 580 113 614 103 634 100 634 88 634ZM779 510L615 510C627 448 631 383 631 318L631 220 779 220ZM567 11L567 191 432 191 357 158 357 191 357 510 257 510 265 540 546 540C513 689 430 819 242 912L252 928C476 842 571 701 609 540L614 540C662 729 750 857 907 926 915 893 936 873 962 867L963 857C805 811 692 693 636 540L953 540C966 540 975 535 978 524 951 493 903 451 903 451L862 510 842 510 842 231C862 227 879 220 886 212L807 151 769 191 631 191 631 49C655 45 663 35 665 21ZM420 510L420 220 567 220 567 318C567 384 563 449 552 510Z"/>
</svg>