<svg xmlns="http://www.w3.org/2000/svg" name="gid7587" data-unicode="洋"
    viewBox="0 0 1000 1000">
  <!--
© 2017-2024 Adobe (http://www.adobe.com/).
Noto is a trademark of Google Inc.
This Font Software is licensed under the SIL Open Font License, Version 1.1. This Font Software is distributed on an "AS IS" BASIS, WITHOUT WARRANTIES OR CONDITIONS OF ANY KIND, either express or implied. See the SIL Open Font License for the specific language, permissions and limitations governing your use of this Font Software.
http://scripts.sil.org/OFL
  -->
<path d="M428 45L418 51C456 95 502 167 514 222 583 274 641 131 428 45ZM126 60L117 69C162 99 216 155 232 202 307 242 346 92 126 60ZM43 293L34 303C78 329 131 379 147 423 220 462 257 317 43 293ZM109 679C99 679 65 679 65 679L65 700C87 702 101 705 114 714 136 729 142 807 128 908 131 940 142 958 161 958 194 958 214 932 216 889 219 808 190 762 190 718 190 693 196 661 205 630 219 581 303 344 345 217L327 212C152 622 152 622 134 658 125 678 121 679 109 679ZM754 40C734 104 700 191 669 254L347 254 355 283 596 283 596 459 361 459 369 489 596 489 596 679 304 679 312 708 596 708 596 957 606 957C640 957 662 941 662 936L662 708 939 708C953 708 963 703 965 692 932 661 879 618 879 618L831 679 662 679 662 489 900 489C913 489 923 484 926 473 894 443 841 401 841 401L795 459 662 459 662 283 928 283C942 283 952 278 955 267 921 237 868 195 868 195L820 254 695 254C744 204 796 139 828 92 848 93 861 84 865 73Z"/>
</svg>