<svg xmlns="http://www.w3.org/2000/svg"
    viewBox="0 0 1000 1000">
  <!--
© 2017-2024 Adobe (http://www.adobe.com/).
Noto is a trademark of Google Inc.
This Font Software is licensed under the SIL Open Font License, Version 1.1. This Font Software is distributed on an "AS IS" BASIS, WITHOUT WARRANTIES OR CONDITIONS OF ANY KIND, either express or implied. See the SIL Open Font License for the specific language, permissions and limitations governing your use of this Font Software.
http://scripts.sil.org/OFL
  -->
<path d="M105 22L97 31C140 61 193 116 208 163 281 205 322 57 105 22ZM42 248L33 258C76 284 126 335 140 378 210 420 252 279 42 248ZM104 646C94 646 60 646 60 646L60 668C82 670 96 673 109 682 130 696 137 776 122 878 125 909 136 928 154 928 187 928 207 901 209 859 212 777 184 731 183 686 183 661 189 630 198 599 210 551 287 319 327 195L308 190C145 591 145 591 128 625 119 645 115 646 104 646ZM665 101L665 249 574 249 574 101ZM345 249L345 927 355 927C386 927 406 911 406 906L406 821 848 821 848 913 858 913C886 913 910 897 910 893L910 285C932 282 945 276 952 267L877 208 843 249 722 249 722 101 943 101C957 101 967 96 969 85 935 53 879 9 879 9L829 72 300 72 308 101 515 101 515 249 418 249 345 218ZM406 793L406 279 515 279 515 339C515 463 504 586 406 679L419 690C561 602 574 465 574 338L574 279 665 279 665 547C665 587 674 604 727 604L775 604C807 604 831 603 848 600L848 793ZM848 544L846 544C841 546 834 547 829 548 825 548 822 549 817 549 810 549 795 549 779 549L743 549C725 549 723 545 722 532L722 279 848 279Z"/>
</svg>