<svg xmlns="http://www.w3.org/2000/svg"
    viewBox="0 0 1000 1000">
  <!--
© 2017-2023 Adobe (http://www.adobe.com/).
Noto is a trademark of Google Inc.
This Font Software is licensed under the SIL Open Font License, Version 1.1. This Font Software is distributed on an "AS IS" BASIS, WITHOUT WARRANTIES OR CONDITIONS OF ANY KIND, either express or implied. See the SIL Open Font License for the specific language, permissions and limitations governing your use of this Font Software.
http://scripts.sil.org/OFL
  -->
<path d="M124 26L114 36C162 68 220 126 237 175 312 218 353 67 124 26ZM46 252L36 261C80 290 131 341 148 386 220 427 260 282 46 252ZM111 649C101 649 66 649 66 649L66 671C88 673 102 676 115 685 137 699 142 776 129 878 131 909 143 927 162 927 195 927 216 901 218 859 221 780 193 733 193 690 192 667 199 637 208 610 221 571 296 380 334 280L315 275C156 598 156 598 137 630 127 649 123 649 111 649ZM525 12C518 67 506 122 492 176L308 176 316 205 484 205C439 357 366 498 268 593L281 604C343 557 396 498 440 431L440 927 451 927C483 927 505 910 505 905L505 684 804 684 804 824C804 839 800 844 784 844 766 844 686 838 686 838L686 854C723 860 744 867 756 877 767 888 772 906 774 927 860 918 870 886 870 833L870 386C891 382 906 374 913 366L828 302 794 344 517 344 496 335C517 293 536 250 552 205L933 205C947 205 957 200 959 189 926 158 871 115 871 115L823 176 561 176C575 133 587 90 596 47 625 46 632 40 635 28ZM505 373L804 373 804 494 505 494ZM505 523L804 523 804 655 505 655Z"/>
</svg>