<svg xmlns="http://www.w3.org/2000/svg" name="gid7609" data-unicode="洯"
    viewBox="0 0 1000 1000">
  <!--
© 2017-2024 Adobe (http://www.adobe.com/).
Noto is a trademark of Google Inc.
This Font Software is licensed under the SIL Open Font License, Version 1.1. This Font Software is distributed on an "AS IS" BASIS, WITHOUT WARRANTIES OR CONDITIONS OF ANY KIND, either express or implied. See the SIL Open Font License for the specific language, permissions and limitations governing your use of this Font Software.
http://scripts.sil.org/OFL
  -->
<path d="M82 602L91 631 315 631C268 745 173 848 46 912L55 927C222 867 334 762 393 637 416 637 426 634 434 625L360 561 316 602ZM810 522C771 570 697 637 630 685 588 640 553 585 530 515 554 511 561 504 564 490L467 479 467 861C467 876 462 881 443 881 423 881 323 874 323 874L323 889C366 895 392 902 406 913 420 923 425 939 428 958 520 950 530 917 530 865L530 557C600 768 735 862 906 925 914 894 933 871 960 865L961 854C850 828 733 784 646 701 724 667 807 618 855 582 877 589 886 585 892 575ZM493 104L501 133 634 133C627 236 599 359 446 464L460 479C649 382 691 250 704 133L850 133C840 296 819 385 795 407 785 414 777 416 762 416 744 416 695 412 667 410L666 427C694 432 719 438 730 447 741 458 744 475 744 493 779 493 811 484 834 463 876 430 902 332 912 140 933 138 945 133 952 125L878 66 842 104ZM224 48L232 155C173 176 114 193 63 206L75 226C125 217 180 206 234 193L240 274C179 295 118 312 63 324L74 344C128 336 186 325 243 312L249 396C179 418 108 436 42 450L51 470C116 461 185 449 252 434L259 534 271 533C295 532 321 516 320 508L314 418C375 402 434 384 487 362 507 369 516 368 524 360L460 309C414 333 364 355 311 375L305 296C359 282 410 266 456 249 474 256 484 255 492 247L429 197C391 217 347 236 302 253L297 177C345 164 392 149 433 134 451 140 461 139 469 131L406 82C372 100 334 117 294 132L290 80C314 76 322 65 323 52Z"/>
</svg>