<svg xmlns="http://www.w3.org/2000/svg"
    viewBox="0 0 1000 1000">
  <!--
© 2017-2023 Adobe (http://www.adobe.com/).
Noto is a trademark of Google Inc.
This Font Software is licensed under the SIL Open Font License, Version 1.1. This Font Software is distributed on an "AS IS" BASIS, WITHOUT WARRANTIES OR CONDITIONS OF ANY KIND, either express or implied. See the SIL Open Font License for the specific language, permissions and limitations governing your use of this Font Software.
http://scripts.sil.org/OFL
  -->
<path d="M403 31L403 446C403 642 360 801 198 914L210 928C411 819 463 649 464 446L464 70C489 66 497 56 499 42ZM109 23L100 32C141 61 191 113 207 157 278 197 320 57 109 23ZM48 239L39 248C78 274 121 321 134 362 203 404 248 264 48 239ZM89 647C78 647 46 647 46 647L46 669C67 671 81 674 94 683 115 698 120 776 107 877 108 909 119 927 137 927 169 927 188 901 190 859 193 778 166 731 166 687 166 662 172 632 179 601 191 554 263 330 300 209L281 205C128 592 128 592 112 626 103 647 100 647 89 647ZM847 32L847 917 859 917C882 917 908 901 908 891L908 70C933 66 940 57 943 43ZM622 49L622 877 634 877C656 877 682 862 682 853L682 86C706 83 713 74 716 60ZM711 314L698 320C735 374 769 459 762 528 821 589 891 436 711 314ZM501 316L488 323C519 374 545 458 534 524 588 583 661 439 501 316ZM326 320C321 417 293 473 252 499 193 580 399 621 342 320Z"/>
</svg>