<svg xmlns="http://www.w3.org/2000/svg" name="gid7616" data-unicode="洸"
    viewBox="0 0 1000 1000">
  <!--
© 2017-2024 Adobe (http://www.adobe.com/).
Noto is a trademark of Google Inc.
This Font Software is licensed under the SIL Open Font License, Version 1.1. This Font Software is distributed on an "AS IS" BASIS, WITHOUT WARRANTIES OR CONDITIONS OF ANY KIND, either express or implied. See the SIL Open Font License for the specific language, permissions and limitations governing your use of this Font Software.
http://scripts.sil.org/OFL
  -->
<path d="M108 55L100 65C147 95 207 150 227 196 303 233 337 85 108 55ZM41 263L33 272C77 301 129 354 145 400 217 441 256 295 41 263ZM103 670C92 670 58 670 58 670L58 692C80 694 95 696 107 706 129 720 135 797 122 899 124 931 136 949 154 949 188 949 207 923 209 880 213 800 184 754 183 710 183 686 191 655 200 626 215 579 301 357 344 238L326 233C148 615 148 615 129 650 118 670 115 670 103 670ZM832 99C809 165 761 266 719 337L731 350C790 291 860 209 895 156 912 160 923 158 928 148ZM379 112L366 117C406 176 449 269 454 339 515 395 574 248 379 112ZM593 43L593 417 316 417 324 446 506 446C499 631 475 803 268 942L280 957C533 835 560 656 571 446L680 446 680 869C680 917 693 934 759 934L830 934C946 934 973 921 973 894 973 881 969 873 949 865L946 713 933 713C922 775 910 843 903 859 899 869 896 872 889 872 879 873 858 873 831 873L773 873C747 873 745 868 745 853L745 446 943 446C957 446 967 441 969 430 938 399 886 358 886 358L839 417 656 417 656 81C681 77 691 67 693 53Z"/>
</svg>