<svg xmlns="http://www.w3.org/2000/svg" name="gid7648" data-unicode="海"
    viewBox="0 0 1000 1000">
  <!--
© 2017-2024 Adobe (http://www.adobe.com/).
Noto is a trademark of Google Inc.
This Font Software is licensed under the SIL Open Font License, Version 1.1. This Font Software is distributed on an "AS IS" BASIS, WITHOUT WARRANTIES OR CONDITIONS OF ANY KIND, either express or implied. See the SIL Open Font License for the specific language, permissions and limitations governing your use of this Font Software.
http://scripts.sil.org/OFL
  -->
<path d="M124 52L114 61C156 91 207 146 223 191 295 233 337 92 124 52ZM47 282L37 291C80 319 129 371 144 415 214 457 256 315 47 282ZM98 675C88 675 55 675 55 675L55 697C76 699 91 702 103 711 126 725 131 805 117 908 119 939 131 958 149 958 181 958 200 932 202 889 206 807 177 760 177 715 177 691 183 659 192 629 206 582 286 353 328 230L308 225C140 619 140 619 123 654 114 674 110 675 98 675ZM605 350C600 403 592 468 584 533L446 533 475 350ZM663 350L798 350C796 417 793 478 789 533L644 533ZM249 533L257 562 376 562C358 665 338 773 319 860 355 868 372 866 388 857L403 782 761 782C752 826 741 854 729 865 718 875 709 879 689 879 668 879 599 871 558 868L557 886C594 892 634 900 649 912 662 922 666 938 666 957 709 957 749 944 776 913 796 892 812 849 824 782L948 782C962 782 972 777 974 767 945 735 894 692 894 692L851 753 829 753C837 701 844 637 849 562L959 562C972 562 981 557 984 546 955 517 906 476 906 476L863 533 851 533C854 480 856 421 858 358 881 355 893 350 899 342L825 279 788 320 493 320 420 286C411 350 397 439 381 533ZM461 43C424 181 357 312 289 393L302 404C362 358 417 293 463 216L930 216C945 216 955 211 957 200 925 170 873 128 873 128L826 186 480 186C496 157 510 127 523 95 545 97 557 88 561 77ZM580 562C571 632 562 700 554 753L408 753 441 562ZM641 562L787 562C781 639 775 703 766 753L617 753C625 700 633 632 641 562Z"/>
</svg>