<svg xmlns="http://www.w3.org/2000/svg" name="gid7666" data-unicode="涔"
    viewBox="0 0 1000 1000">
  <!--
© 2017-2024 Adobe (http://www.adobe.com/).
Noto is a trademark of Google Inc.
This Font Software is licensed under the SIL Open Font License, Version 1.1. This Font Software is distributed on an "AS IS" BASIS, WITHOUT WARRANTIES OR CONDITIONS OF ANY KIND, either express or implied. See the SIL Open Font License for the specific language, permissions and limitations governing your use of this Font Software.
http://scripts.sil.org/OFL
  -->
<path d="M87 58L77 68C125 97 184 153 203 199 279 238 313 86 87 58ZM43 292L34 302C78 328 130 379 146 424 217 463 256 319 43 292ZM103 682C93 682 59 682 59 682L59 704C81 705 95 707 107 717 129 732 135 811 122 911 124 943 135 962 154 962 187 962 207 935 209 893 212 811 183 766 183 721 182 697 189 665 197 635 211 587 289 359 329 237L310 232C145 626 145 626 128 661 118 681 114 682 103 682ZM456 516L464 545 747 545C760 545 770 540 772 529 744 502 697 467 697 467L658 516ZM817 90L817 242 647 242 647 79C671 76 682 66 684 52L583 42 583 242 416 242 416 127C441 123 451 115 453 100L353 90 353 322 364 322C388 322 416 310 416 303L416 271 569 271C511 378 387 511 271 589L277 603C418 530 556 405 628 300 691 415 799 518 922 588 928 564 943 543 967 535L969 521C837 471 719 383 642 290 666 288 675 283 679 273L671 271 817 271 817 315 828 315C853 315 881 302 881 295L881 127C906 123 915 115 918 100ZM366 656L374 685 758 685C729 759 685 866 646 948 673 958 694 958 711 954 748 874 799 760 825 697 846 696 863 691 871 683L795 618 759 656Z"/>
</svg>