<svg xmlns="http://www.w3.org/2000/svg"
    viewBox="0 0 1000 1000">
  <!--
© 2017-2024 Adobe (http://www.adobe.com/).
Noto is a trademark of Google Inc.
This Font Software is licensed under the SIL Open Font License, Version 1.1. This Font Software is distributed on an "AS IS" BASIS, WITHOUT WARRANTIES OR CONDITIONS OF ANY KIND, either express or implied. See the SIL Open Font License for the specific language, permissions and limitations governing your use of this Font Software.
http://scripts.sil.org/OFL
  -->
<path d="M109 24L101 33C144 63 198 118 214 164 288 205 327 56 109 24ZM42 239L33 249C76 276 127 325 143 368 215 409 254 266 42 239ZM100 648C89 648 55 648 55 648L55 670C77 671 91 674 104 683 125 698 132 776 118 878 120 909 131 927 150 927 183 927 203 902 205 859 208 777 180 732 180 687 180 663 185 631 194 601 208 553 289 325 330 203L311 198C142 592 142 592 124 627 114 647 110 648 100 648ZM668 495L668 846C668 892 680 909 746 909L821 909C938 909 967 896 967 869 967 855 963 847 941 840L938 720 926 720C916 770 905 823 899 837 895 845 891 847 883 847 874 848 852 849 823 849L761 849C735 849 732 845 732 830L732 530C750 527 760 518 761 505ZM482 498C489 670 449 826 234 915L241 929C494 852 545 703 555 538 576 536 587 528 590 511ZM584 14L584 128 318 128 326 157 584 157 584 272 353 272 361 301 903 301C917 301 926 296 929 285 897 255 845 213 845 213L800 272 648 272 648 157 930 157C944 157 954 153 957 142 925 111 873 70 873 70L826 128 648 128 648 51C673 48 683 38 685 24ZM376 353C369 423 335 467 297 485 241 556 398 594 400 427L853 427 825 529 839 535C863 510 904 465 927 438 946 437 957 436 964 429L890 356 849 398 398 398C397 384 395 370 392 354Z"/>
</svg>