<svg xmlns="http://www.w3.org/2000/svg" name="gid7677" data-unicode="涮"
    viewBox="0 0 1000 1000">
  <!--
© 2017-2024 Adobe (http://www.adobe.com/).
Noto is a trademark of Google Inc.
This Font Software is licensed under the SIL Open Font License, Version 1.1. This Font Software is distributed on an "AS IS" BASIS, WITHOUT WARRANTIES OR CONDITIONS OF ANY KIND, either express or implied. See the SIL Open Font License for the specific language, permissions and limitations governing your use of this Font Software.
http://scripts.sil.org/OFL
  -->
<path d="M98 50L88 59C128 87 176 137 192 180 263 220 305 81 98 50ZM48 291L39 299C76 324 117 370 129 410 198 451 243 314 48 291ZM92 671C81 671 48 671 48 671L48 693C70 696 84 698 97 707 116 721 122 803 109 906 110 938 120 956 139 956 171 956 189 930 191 888 195 806 169 755 167 711 167 687 172 658 179 629 190 586 251 382 283 273L264 269C130 617 130 617 115 650 106 671 103 671 92 671ZM718 136L718 751 729 751C750 751 774 739 774 730L774 174C799 171 808 161 811 147ZM855 51L855 860C855 875 850 880 833 880 816 880 728 873 728 873L728 889C766 895 789 901 802 912 814 922 820 939 822 957 904 948 914 917 914 866L914 89C938 86 948 76 951 62ZM368 443L368 857 376 857C403 857 421 844 421 839L421 472 485 472 485 957 496 957C516 957 540 944 540 936L540 472 603 472 603 769C603 780 600 784 590 784 579 784 541 780 541 780L541 797C562 800 572 807 580 815 587 824 590 840 591 855 649 848 656 822 656 774L656 483C676 480 694 471 700 464L623 407 593 443 540 443 540 375C565 372 573 362 576 348L485 338 485 443 433 443 368 414ZM593 137L593 265 364 265 364 137ZM305 108L305 365C305 557 298 767 209 937L226 947C357 778 364 539 364 365L364 295 593 295 593 338 603 338C623 338 653 324 654 317L654 148C672 144 689 136 695 128L618 71 583 108 376 108 305 76Z"/>
</svg>