<svg xmlns="http://www.w3.org/2000/svg" name="gid7681" data-unicode="涵"
    viewBox="0 0 1000 1000">
  <!--
© 2017-2024 Adobe (http://www.adobe.com/).
Noto is a trademark of Google Inc.
This Font Software is licensed under the SIL Open Font License, Version 1.1. This Font Software is distributed on an "AS IS" BASIS, WITHOUT WARRANTIES OR CONDITIONS OF ANY KIND, either express or implied. See the SIL Open Font License for the specific language, permissions and limitations governing your use of this Font Software.
http://scripts.sil.org/OFL
  -->
<path d="M83 53L73 62C114 91 164 143 181 187 252 227 294 87 83 53ZM47 293L37 302C76 327 120 375 132 416 201 458 246 318 47 293ZM92 680C81 680 48 680 48 680L48 702C69 704 83 706 97 716 117 730 123 808 109 910 111 941 122 960 139 960 172 960 190 934 192 892 195 811 169 763 169 719 169 695 175 664 182 634 194 587 267 362 305 241L286 237C131 625 131 625 115 659 105 680 102 680 92 680ZM399 366L389 375C429 405 477 461 491 505 552 543 592 418 399 366ZM375 669L435 729C443 723 447 712 446 701 502 639 545 586 573 553L565 540C489 595 410 649 375 669ZM783 326C760 366 708 437 666 487L667 324C688 321 699 317 706 310L634 250 600 289 545 289C560 244 576 193 588 151L941 151C955 151 964 146 967 135 935 104 882 62 882 62L835 121 289 121 297 151 526 151C512 213 482 310 462 355 486 364 510 363 522 355L535 317 610 317C610 587 608 710 590 733 583 741 576 743 561 743 544 743 499 739 470 736L469 754C496 758 523 766 534 774 546 784 548 800 548 818 580 818 612 807 632 782 652 758 661 697 664 573 711 615 763 677 777 729 844 774 887 631 665 552L666 503 668 505C726 470 791 422 826 392 837 397 847 395 853 391L853 851 367 851 367 303C390 300 398 291 401 278L306 267 306 959 318 959C341 959 367 944 367 935L367 880 853 880 853 952 866 952C888 952 914 938 914 929L914 303C938 300 946 290 948 277L853 266 853 378Z"/>
</svg>