<svg xmlns="http://www.w3.org/2000/svg"
    viewBox="0 0 1000 1000">
  <!--
© 2017-2023 Adobe (http://www.adobe.com/).
Noto is a trademark of Google Inc.
This Font Software is licensed under the SIL Open Font License, Version 1.1. This Font Software is distributed on an "AS IS" BASIS, WITHOUT WARRANTIES OR CONDITIONS OF ANY KIND, either express or implied. See the SIL Open Font License for the specific language, permissions and limitations governing your use of this Font Software.
http://scripts.sil.org/OFL
  -->
<path d="M118 25L108 34C153 65 208 120 224 167 299 208 337 58 118 25ZM47 244L38 254C82 281 133 331 149 374 221 415 259 271 47 244ZM104 647C94 647 59 647 59 647L59 669C81 671 97 674 109 683 132 698 137 775 124 877 126 908 138 927 157 927 190 927 210 901 212 858 214 777 186 731 186 687 185 663 192 631 202 601 218 551 310 313 358 187L340 181C150 591 150 591 130 626 120 647 117 647 104 647ZM849 695L849 837 414 837 414 695ZM849 666L414 666 414 530 849 530ZM462 234L798 234 798 358 462 358ZM462 205L462 87 798 87 798 205ZM399 57L399 442 409 442C442 442 462 428 462 423L462 388 798 388 798 434 808 434C837 434 863 419 863 416L863 91C883 88 893 83 900 75L826 18 795 57 473 57 399 26ZM349 500L349 926 360 926C387 926 414 911 414 904L414 866 849 866 849 921 859 921C880 921 913 905 914 899L914 543C934 539 950 530 957 522L876 460 839 500 420 500 349 468Z"/>
</svg>