<svg xmlns="http://www.w3.org/2000/svg" name="gid7704" data-unicode="淖"
    viewBox="0 0 1000 1000">
  <!--
© 2017-2024 Adobe (http://www.adobe.com/).
Noto is a trademark of Google Inc.
This Font Software is licensed under the SIL Open Font License, Version 1.1. This Font Software is distributed on an "AS IS" BASIS, WITHOUT WARRANTIES OR CONDITIONS OF ANY KIND, either express or implied. See the SIL Open Font License for the specific language, permissions and limitations governing your use of this Font Software.
http://scripts.sil.org/OFL
  -->
<path d="M103 58L93 68C140 96 197 149 216 194 291 231 324 82 103 58ZM42 294L33 303C77 331 129 383 145 427 216 468 256 323 42 294ZM101 682C91 682 57 682 57 682L57 704C79 705 93 707 105 717 127 732 134 810 120 911 122 943 133 961 152 961 185 961 205 935 207 893 210 811 181 766 181 721 181 697 187 664 196 633 210 584 292 348 335 221L316 216C144 625 144 625 126 661 116 681 112 682 101 682ZM358 301L358 669 368 669C394 669 421 654 421 648L421 622 576 622 576 742 270 742 278 772 576 772 576 958 586 958C619 958 640 944 641 940L641 772 943 772C957 772 965 767 968 756 936 725 882 682 882 682L835 742 641 742 641 622 806 622 806 659 816 659C836 659 869 645 870 639L870 343C890 339 906 330 912 322L832 261 796 301 640 301 640 199 916 199C931 199 941 194 943 183 910 152 857 109 857 109L810 170 640 170 640 77C662 73 671 64 672 51L576 42 576 301 427 301 358 270ZM421 475L806 475 806 593 421 593ZM421 446L421 330 806 330 806 446Z"/>
</svg>