<svg xmlns="http://www.w3.org/2000/svg" name="gid7713" data-unicode="淡"
    viewBox="0 0 1000 1000">
  <!--
© 2017-2024 Adobe (http://www.adobe.com/).
Noto is a trademark of Google Inc.
This Font Software is licensed under the SIL Open Font License, Version 1.1. This Font Software is distributed on an "AS IS" BASIS, WITHOUT WARRANTIES OR CONDITIONS OF ANY KIND, either express or implied. See the SIL Open Font License for the specific language, permissions and limitations governing your use of this Font Software.
http://scripts.sil.org/OFL
  -->
<path d="M120 52L110 61C155 91 209 146 225 192 299 232 337 83 120 52ZM42 269L33 278C74 305 123 356 137 399 208 440 250 298 42 269ZM90 675C79 675 45 675 45 675L45 697C67 699 82 702 95 711 117 725 122 803 108 905 111 937 122 955 141 955 175 955 193 929 195 886 199 805 172 759 170 715 170 690 177 659 186 627 200 578 287 341 332 214L313 209C133 619 133 619 114 654 105 674 102 675 90 675ZM442 110C433 191 398 249 358 276 305 350 496 381 458 110ZM420 519C409 617 362 678 311 704 255 778 468 813 437 520ZM832 103C804 156 747 241 697 298 675 292 651 285 625 279 647 220 650 153 653 80 674 77 683 66 685 55L587 45C585 248 587 392 263 492L273 509C484 456 575 386 616 299 741 359 834 438 872 489 942 522 982 391 717 305 779 261 842 203 882 163 904 168 912 164 919 154ZM838 522C808 569 748 642 695 694 662 631 646 557 638 470 660 467 668 457 670 445L571 435C570 678 576 836 217 941L228 959C557 879 617 756 632 589 658 759 724 886 908 957 914 921 936 908 969 903L970 891C835 851 754 792 705 712 773 674 845 622 890 585 911 591 920 587 926 578Z"/>
</svg>