<svg xmlns="http://www.w3.org/2000/svg" name="gid7722" data-unicode="淬"
    viewBox="0 0 1000 1000">
  <!--
© 2017-2024 Adobe (http://www.adobe.com/).
Noto is a trademark of Google Inc.
This Font Software is licensed under the SIL Open Font License, Version 1.1. This Font Software is distributed on an "AS IS" BASIS, WITHOUT WARRANTIES OR CONDITIONS OF ANY KIND, either express or implied. See the SIL Open Font License for the specific language, permissions and limitations governing your use of this Font Software.
http://scripts.sil.org/OFL
  -->
<path d="M98 51L89 60C132 90 184 145 199 191 272 233 314 86 98 51ZM39 281L29 291C72 317 122 367 137 410 207 452 249 310 39 281ZM99 681C88 681 54 681 54 681L54 703C75 705 90 707 103 717 125 731 131 809 117 911 119 943 131 961 149 961 182 961 202 936 204 893 208 811 180 766 179 721 179 697 185 666 194 635 208 588 294 359 337 236L318 232C142 626 142 626 123 660 113 680 110 681 99 681ZM585 43L585 172 323 172 331 201 923 201C938 201 948 196 950 185 918 155 865 113 865 113L818 172 650 172 650 80C674 77 685 67 687 53ZM744 223C726 320 679 449 608 535L585 533 585 649 278 649 286 679 585 679 585 956 597 956C623 956 650 944 650 936L650 679 950 679C964 679 974 674 976 663 944 633 890 590 890 590L843 649 650 649 650 580C684 576 696 563 700 545L636 538C682 499 720 451 750 401 805 439 863 495 885 543 956 579 982 437 763 380 783 344 799 309 812 276 836 276 844 271 849 260ZM459 227C436 334 379 473 293 558L302 571C375 525 431 457 472 389 510 419 550 463 564 499 626 533 661 416 483 371 500 340 515 308 526 279 551 280 559 273 563 262Z"/>
</svg>