<svg xmlns="http://www.w3.org/2000/svg" name="gid7736" data-unicode="添"
    viewBox="0 0 1000 1000">
  <!--
© 2017-2024 Adobe (http://www.adobe.com/).
Noto is a trademark of Google Inc.
This Font Software is licensed under the SIL Open Font License, Version 1.1. This Font Software is distributed on an "AS IS" BASIS, WITHOUT WARRANTIES OR CONDITIONS OF ANY KIND, either express or implied. See the SIL Open Font License for the specific language, permissions and limitations governing your use of this Font Software.
http://scripts.sil.org/OFL
  -->
<path d="M116 50L107 58C150 88 202 142 220 187 292 227 332 84 116 50ZM47 273L37 282C79 310 126 359 139 400 209 442 252 302 47 273ZM90 672C79 672 47 672 47 672L47 694C68 696 83 699 96 708 116 722 122 803 108 905 110 936 122 955 140 955 174 955 192 929 195 886 198 804 170 756 170 712 169 687 175 656 183 626 195 579 268 354 306 233L288 228C131 616 131 616 114 651 105 671 102 672 90 672ZM415 603C401 696 350 754 298 777 241 849 456 882 432 605ZM657 613L643 619C671 673 698 758 693 824 751 885 822 741 657 613ZM773 596L761 604C819 660 882 756 889 833 962 891 1020 714 773 596ZM525 480L525 857C525 872 521 877 502 877 482 877 378 870 378 870L378 886C423 892 448 899 463 910 477 920 482 937 485 957 577 948 587 915 587 862L587 515C610 512 620 505 623 490ZM295 315L303 344 476 344C424 455 339 546 212 618L220 632C380 565 485 470 549 344L668 344C723 465 816 560 917 615 925 584 946 564 972 560L973 550C872 514 758 438 694 344L932 344C947 344 957 339 960 328 926 298 873 255 873 255L825 315 562 315C584 266 600 214 612 156 694 145 769 131 829 117 853 127 871 127 880 119L803 46C697 92 488 141 313 161L316 179C387 178 460 173 531 166 522 219 508 268 489 315Z"/>
</svg>