<svg xmlns="http://www.w3.org/2000/svg" name="gid7741" data-unicode="渇"
    viewBox="0 0 1000 1000">
  <!--
© 2017-2024 Adobe (http://www.adobe.com/).
Noto is a trademark of Google Inc.
This Font Software is licensed under the SIL Open Font License, Version 1.1. This Font Software is distributed on an "AS IS" BASIS, WITHOUT WARRANTIES OR CONDITIONS OF ANY KIND, either express or implied. See the SIL Open Font License for the specific language, permissions and limitations governing your use of this Font Software.
http://scripts.sil.org/OFL
  -->
<path d="M105 675C95 675 62 675 62 675L62 697C84 699 98 702 110 711 132 725 138 806 124 908 126 940 138 958 156 958 189 958 209 932 211 889 214 807 185 759 185 715 185 690 191 659 199 627 211 579 287 349 326 224L307 220C147 619 147 619 130 654 121 674 117 675 105 675ZM114 49L105 57C148 87 200 141 218 187 290 226 329 83 114 49ZM44 273L36 282C76 309 123 358 136 400 206 442 250 301 44 273ZM449 259L797 259 797 371 449 371ZM449 230L449 120 797 120 797 230ZM646 592C599 626 515 668 445 696L445 604C462 601 472 592 473 580L432 575 464 540 851 540C841 732 823 845 796 869 787 876 778 878 761 878 743 878 686 874 653 871L652 888C683 893 715 901 727 912 739 922 743 939 743 959 780 959 815 948 839 925 881 887 905 768 914 548 935 545 947 540 954 533L879 471 842 511 489 511C505 490 520 470 532 451 556 454 565 449 570 439L478 400 797 400 797 439 806 439C835 439 859 425 859 420L859 124C880 121 890 115 896 108L825 52 793 90 460 90 388 59 388 450 397 450C429 450 449 436 449 431L449 400 476 400C429 501 331 632 223 715L233 727C287 698 338 661 383 621L383 779C383 849 397 863 474 863L646 863C717 863 742 848 742 821 742 810 738 807 714 797L712 729 699 729C691 766 683 790 678 799 673 807 663 807 648 807L478 807C446 807 445 805 445 780L445 716C525 700 627 672 681 647 697 654 708 653 714 646Z"/>
</svg>