<svg xmlns="http://www.w3.org/2000/svg"
    viewBox="0 0 1000 1000">
  <!--
© 2017-2023 Adobe (http://www.adobe.com/).
Noto is a trademark of Google Inc.
This Font Software is licensed under the SIL Open Font License, Version 1.1. This Font Software is distributed on an "AS IS" BASIS, WITHOUT WARRANTIES OR CONDITIONS OF ANY KIND, either express or implied. See the SIL Open Font License for the specific language, permissions and limitations governing your use of this Font Software.
http://scripts.sil.org/OFL
  -->
<path d="M120 22L110 31C154 62 207 117 222 164 295 205 337 58 120 22ZM42 248L33 258C76 284 126 335 140 378 210 420 252 279 42 248ZM100 646C89 646 56 646 56 646L56 668C77 670 92 673 104 682 126 697 131 776 118 878 120 909 131 928 149 928 182 928 202 902 203 859 207 778 180 731 180 686 179 662 185 631 193 601 207 555 284 331 324 211L306 206C142 591 142 591 124 625 114 646 110 646 100 646ZM779 532L779 663 496 663 496 532ZM864 42C809 144 727 252 628 354L575 354 575 195 748 195C761 195 771 190 773 179 744 149 693 106 693 106L649 165 575 165 575 55C600 51 610 41 612 27L510 17 510 165 326 165 334 195 510 195 510 354 295 354 303 384 598 384C561 421 522 456 480 490L431 470 431 529C361 583 286 632 208 673L218 688C293 655 364 616 431 574L431 929 441 929C474 929 496 912 496 907L496 856 779 856 779 924 789 924C810 924 842 909 844 902L844 544C864 540 880 532 887 524L806 462 769 502 534 502C584 464 631 425 675 384L938 384C952 384 962 379 964 368 932 337 879 295 879 295L833 354 706 354C791 270 861 183 914 101 938 107 949 104 957 93ZM779 692L779 826 496 826 496 692Z"/>
</svg>