<svg xmlns="http://www.w3.org/2000/svg"
    viewBox="0 0 1000 1000">
  <!--
© 2017-2024 Adobe (http://www.adobe.com/).
Noto is a trademark of Google Inc.
This Font Software is licensed under the SIL Open Font License, Version 1.1. This Font Software is distributed on an "AS IS" BASIS, WITHOUT WARRANTIES OR CONDITIONS OF ANY KIND, either express or implied. See the SIL Open Font License for the specific language, permissions and limitations governing your use of this Font Software.
http://scripts.sil.org/OFL
  -->
<path d="M111 36L102 46C147 74 202 128 220 174 294 213 330 64 111 36ZM47 262L37 272C82 298 134 349 151 392 224 432 260 286 47 262ZM101 649C90 649 57 649 57 649L57 671C78 673 93 676 105 685 127 699 132 777 118 879 121 911 132 928 151 928 184 928 204 903 206 860 210 780 182 733 181 689 181 665 187 636 195 608 208 565 282 364 320 256L302 252C144 596 144 596 126 629 116 649 112 649 101 649ZM438 16L427 21C452 64 483 131 486 183 547 237 613 108 438 16ZM453 696L801 696 801 826 453 826ZM453 667L453 541 801 541 801 667ZM453 512L453 392 801 392 801 512ZM758 11C738 69 705 152 681 211L324 211 332 240 586 240C581 274 572 325 565 362L465 362 392 331 392 930 401 930C434 930 453 915 453 909L453 855 801 855 801 917 812 917C840 917 865 901 865 897L865 397C887 394 899 388 905 380L831 322 797 362 603 362C623 328 647 276 663 240L939 240C953 240 962 235 965 224 933 195 882 153 882 153L837 211 704 211C745 163 789 104 818 62 839 63 852 55 857 43Z"/>
</svg>