<svg xmlns="http://www.w3.org/2000/svg"
    viewBox="0 0 1000 1000">
  <!--
© 2017-2023 Adobe (http://www.adobe.com/).
Noto is a trademark of Google Inc.
This Font Software is licensed under the SIL Open Font License, Version 1.1. This Font Software is distributed on an "AS IS" BASIS, WITHOUT WARRANTIES OR CONDITIONS OF ANY KIND, either express or implied. See the SIL Open Font License for the specific language, permissions and limitations governing your use of this Font Software.
http://scripts.sil.org/OFL
  -->
<path d="M100 649C89 649 54 649 54 649L54 671C76 673 91 675 103 685 126 699 131 778 118 880 120 912 132 931 150 931 183 931 203 905 205 862 208 780 181 734 180 689 180 665 186 634 195 604 209 558 296 334 339 213L320 209C144 594 144 594 124 628 114 648 111 649 100 649ZM114 27L105 36C149 65 202 119 220 163 294 202 331 58 114 27ZM47 258L37 267C79 293 127 343 141 384 213 425 254 282 47 258ZM343 442C342 474 316 514 296 530 276 543 265 564 276 584 288 605 322 602 337 586 354 570 366 541 367 503L864 503 844 564 815 541 769 599 352 599 360 628 595 628 595 829C595 843 590 847 572 847 551 847 445 840 445 840L445 855C493 861 519 869 534 880 547 891 553 909 554 928 646 919 659 882 659 831L659 628 875 628C889 628 898 623 901 612L859 576C881 560 915 532 935 514 953 513 965 511 971 504L899 434 861 475 366 475 361 444ZM326 129L334 158 924 158C938 158 947 154 950 143 917 112 865 70 865 70L818 129 654 129 654 48C678 45 688 35 690 21L589 11 589 129ZM404 230L404 438 414 438C440 438 468 424 468 419L468 392 779 392 779 429 789 429C809 429 842 415 843 409L843 269C860 266 875 258 881 251L804 194 769 230 473 230 404 200ZM779 363L468 363 468 260 779 260Z"/>
</svg>