<svg xmlns="http://www.w3.org/2000/svg"
    viewBox="0 0 1000 1000">
  <!--
© 2017-2023 Adobe (http://www.adobe.com/).
Noto is a trademark of Google Inc.
This Font Software is licensed under the SIL Open Font License, Version 1.1. This Font Software is distributed on an "AS IS" BASIS, WITHOUT WARRANTIES OR CONDITIONS OF ANY KIND, either express or implied. See the SIL Open Font License for the specific language, permissions and limitations governing your use of this Font Software.
http://scripts.sil.org/OFL
  -->
<path d="M117 25L108 34C153 64 207 119 223 165 297 205 335 56 117 25ZM45 265L37 275C80 301 131 350 146 394 218 434 257 291 45 265ZM98 652C87 652 54 652 54 652L54 673C75 675 90 677 102 687 122 701 128 780 114 881 116 913 128 931 146 931 179 931 198 906 200 864 204 785 177 735 177 692 176 670 181 641 189 616 200 580 261 412 292 323L273 318C140 602 140 602 122 633 113 652 108 652 98 652ZM288 871L296 900 926 900C940 900 950 895 953 884 919 854 866 812 866 812L819 871ZM373 288L381 318 838 318C852 318 861 313 864 302 832 272 782 232 782 232L738 288ZM348 104C352 150 331 206 307 228 289 242 278 264 289 281 302 302 336 296 352 279 369 259 381 222 378 173L844 173 822 251 835 258C859 240 895 206 915 184 934 183 945 182 953 174L880 103 839 145 637 145 637 47C659 43 667 34 669 21L572 12 572 145 375 145C373 132 370 118 366 104ZM754 596L754 720 452 720 452 596ZM754 567L452 567 452 446 754 446ZM388 416L388 795 399 795C426 795 452 780 452 774L452 749 754 749 754 782 763 782C785 782 818 766 819 760L819 457C839 453 854 445 861 437L780 375 744 415 754 416 457 416 388 386Z"/>
</svg>