<svg xmlns="http://www.w3.org/2000/svg"
    viewBox="0 0 1000 1000">
  <!--
© 2017-2023 Adobe (http://www.adobe.com/).
Noto is a trademark of Google Inc.
This Font Software is licensed under the SIL Open Font License, Version 1.1. This Font Software is distributed on an "AS IS" BASIS, WITHOUT WARRANTIES OR CONDITIONS OF ANY KIND, either express or implied. See the SIL Open Font License for the specific language, permissions and limitations governing your use of this Font Software.
http://scripts.sil.org/OFL
  -->
<path d="M111 23L102 32C143 61 193 113 210 157 281 197 322 57 111 23ZM48 239L39 248C78 274 121 321 134 362 203 404 248 264 48 239ZM87 647C76 647 44 647 44 647L44 669C65 671 79 674 92 683 113 698 118 776 104 877 106 909 117 927 135 927 167 927 186 901 188 859 190 778 164 731 164 687 164 663 170 632 178 602 190 555 262 330 301 209L282 205C126 592 126 592 110 626 101 647 98 647 87 647ZM533 10C531 49 527 87 522 125L294 125 302 154 517 154C512 187 505 220 496 252L313 252 321 282 488 282C476 319 462 355 446 389L267 389 275 418 431 418C379 512 303 593 194 651L204 664C285 632 349 589 401 538L408 562 526 562C526 599 524 634 518 666L301 666 309 695 512 695C487 785 419 854 228 909L238 926C472 873 553 799 583 695L592 695C641 824 723 892 872 926 877 892 898 870 925 862L926 851C782 840 671 789 615 695L832 695C846 695 856 690 858 679 826 649 774 607 774 607L729 666 590 666C596 634 599 599 601 562L731 562C745 562 754 557 757 547 725 517 674 476 674 476L630 533 406 533C441 498 471 459 495 418L686 418C742 520 819 598 918 646 926 614 948 595 974 590L976 579C886 550 803 492 739 418L933 418C947 418 956 414 959 403 926 372 873 331 873 331L827 389 715 389C690 356 669 320 651 282L862 282C876 282 886 277 888 266 855 235 804 194 804 194L757 252 567 252C576 220 584 187 591 154L910 154C924 154 934 150 937 139 904 109 852 68 852 68L807 125 596 125 608 46C637 44 644 35 647 22ZM630 282C642 320 655 356 671 389L511 389C529 355 544 319 557 282Z"/>
</svg>