<svg xmlns="http://www.w3.org/2000/svg"
    viewBox="0 0 1000 1000">
  <!--
© 2017-2024 Adobe (http://www.adobe.com/).
Noto is a trademark of Google Inc.
This Font Software is licensed under the SIL Open Font License, Version 1.1. This Font Software is distributed on an "AS IS" BASIS, WITHOUT WARRANTIES OR CONDITIONS OF ANY KIND, either express or implied. See the SIL Open Font License for the specific language, permissions and limitations governing your use of this Font Software.
http://scripts.sil.org/OFL
  -->
<path d="M99 644C89 644 56 644 56 644L56 666C78 668 92 671 104 680 126 694 132 776 118 878 120 909 131 927 150 927 183 927 202 901 204 858 208 776 179 729 179 684 179 659 185 628 192 597 205 549 280 320 318 197L300 192C140 588 140 588 124 623 115 643 111 644 99 644ZM103 32L94 41C134 71 185 125 201 169 272 211 316 70 103 32ZM45 247L36 256C77 284 124 336 136 380 205 423 251 282 45 247ZM558 462L688 462 688 617 558 617ZM558 432L558 281 688 281 688 432ZM558 647L688 647 688 808 558 808ZM502 808L399 808 399 281 502 281ZM743 808L743 281 850 281 850 808ZM339 251L339 926 348 926C379 926 399 911 399 905L399 837 850 837 850 913 860 913C889 913 912 897 912 893L912 287C934 284 947 278 954 269L880 210 846 251 583 251C610 212 642 159 669 112L944 112C958 112 967 107 970 96 938 66 886 24 886 24L839 84 292 84 300 112 583 112C574 156 562 212 552 251L411 251 339 220Z"/>
</svg>