<svg xmlns="http://www.w3.org/2000/svg" name="gid7804" data-unicode="湧"
    viewBox="0 0 1000 1000">
  <!--
© 2017-2024 Adobe (http://www.adobe.com/).
Noto is a trademark of Google Inc.
This Font Software is licensed under the SIL Open Font License, Version 1.1. This Font Software is distributed on an "AS IS" BASIS, WITHOUT WARRANTIES OR CONDITIONS OF ANY KIND, either express or implied. See the SIL Open Font License for the specific language, permissions and limitations governing your use of this Font Software.
http://scripts.sil.org/OFL
  -->
<path d="M96 676C85 676 52 676 52 676L52 698C73 700 88 703 101 712 123 726 128 806 115 908 117 939 129 957 147 957 181 957 200 931 202 889 205 807 177 761 177 715 176 692 182 660 191 629 206 581 288 349 330 225L311 220C138 620 138 620 121 655 111 675 108 676 96 676ZM115 51L106 59C150 88 203 142 221 187 295 225 332 81 115 51ZM44 275L36 284C77 311 125 360 139 401 211 442 252 299 44 275ZM836 439L836 541 656 541 656 439ZM836 410L656 410 656 310 836 310ZM593 439L593 541 416 541 416 439ZM593 410L416 410 416 310 593 310ZM354 281L354 627 364 627C389 627 416 612 416 605L416 570 836 570 836 609 845 609C866 609 899 594 900 588L900 322C919 319 935 311 942 303L862 241 826 281 693 281C699 267 693 244 668 223 730 195 822 153 870 126 893 126 904 124 912 118L838 46 794 87 340 87 349 117 770 117C734 147 686 184 651 210 619 189 566 171 486 165L479 177C532 199 604 242 641 281L422 281 354 250ZM580 573C578 609 574 644 565 677L274 677 283 707 555 707C519 807 435 889 256 942L263 957C488 907 584 817 624 707L851 707C837 795 814 857 792 872 782 879 774 881 757 881 737 881 671 875 633 872L633 889C667 894 700 903 714 912 728 922 731 939 731 957 769 957 804 948 829 931 869 904 900 825 914 714 934 712 947 707 953 700L881 640 844 677 634 677C640 656 644 635 647 613 668 612 680 605 684 589Z"/>
</svg>