<svg xmlns="http://www.w3.org/2000/svg"
    viewBox="0 0 1000 1000">
  <!--
© 2017-2023 Adobe (http://www.adobe.com/).
Noto is a trademark of Google Inc.
This Font Software is licensed under the SIL Open Font License, Version 1.1. This Font Software is distributed on an "AS IS" BASIS, WITHOUT WARRANTIES OR CONDITIONS OF ANY KIND, either express or implied. See the SIL Open Font License for the specific language, permissions and limitations governing your use of this Font Software.
http://scripts.sil.org/OFL
  -->
<path d="M111 23L102 32C143 61 193 113 210 157 281 197 322 57 111 23ZM48 239L39 248C78 274 121 321 134 362 203 404 248 264 48 239ZM89 648C78 648 46 648 46 648L46 670C67 672 81 675 94 684 115 699 120 777 107 878 109 909 119 928 137 928 170 928 188 902 190 860 193 779 167 732 166 688 166 663 172 633 179 602 192 556 265 331 304 209L285 205C129 593 129 593 112 627 103 648 100 648 89 648ZM437 75C397 171 333 260 275 310L287 324C360 283 434 216 487 132 508 136 520 129 525 119ZM422 245L430 275 770 275C784 275 793 270 796 259 766 230 719 194 719 194L677 245ZM488 868L401 868 401 621 488 621ZM541 868L541 621 631 621 631 868ZM685 868L685 621 777 621 777 868ZM342 592L342 868 233 868 241 897 938 897C952 897 962 892 964 882 936 851 888 807 888 807L845 868 836 868 836 627C852 624 866 618 871 611L802 557 769 592 413 592 361 568C402 534 439 492 470 443 490 447 504 440 510 430L420 382C369 497 287 592 207 645L219 659C261 640 303 615 342 584ZM505 54L514 83 704 83C738 169 812 247 900 299 907 272 932 251 960 244L961 233C861 201 769 144 730 85 759 83 783 76 793 64L710 10 682 54ZM500 364L508 394 709 394C741 493 814 573 915 626 922 600 946 578 971 571L973 559C861 527 770 464 734 395 764 393 788 387 798 376L716 320 688 364Z"/>
</svg>