<svg xmlns="http://www.w3.org/2000/svg" name="gid7846" data-unicode="溺"
    viewBox="0 0 1000 1000">
  <!--
© 2017-2024 Adobe (http://www.adobe.com/).
Noto is a trademark of Google Inc.
This Font Software is licensed under the SIL Open Font License, Version 1.1. This Font Software is distributed on an "AS IS" BASIS, WITHOUT WARRANTIES OR CONDITIONS OF ANY KIND, either express or implied. See the SIL Open Font License for the specific language, permissions and limitations governing your use of this Font Software.
http://scripts.sil.org/OFL
  -->
<path d="M87 671C76 671 43 671 43 671L43 693C64 696 79 698 92 707 112 721 118 803 105 907 106 939 116 957 134 957 166 957 184 932 186 889 190 806 163 756 163 711 163 687 168 658 176 628 187 584 257 372 293 256L274 252C127 616 127 616 110 650 102 671 98 671 87 671ZM102 46L93 55C133 85 183 136 199 181 269 221 312 83 102 46ZM44 271L35 280C74 306 117 354 129 395 198 437 242 299 44 271ZM416 499C379 555 304 632 235 678L246 692C327 655 410 595 453 548 475 553 484 550 490 540ZM421 641C381 709 295 803 215 860L225 874C319 826 412 749 461 689 483 695 491 691 498 681ZM770 499C734 549 657 619 589 662L601 675C680 644 763 589 808 548 829 553 837 550 845 540ZM281 93L290 121 504 121 504 277 394 277 325 245C316 314 298 442 281 529 313 536 329 534 345 525L353 479 508 479C502 732 488 844 464 870 456 877 449 879 433 879 417 879 377 877 351 874L351 892C374 896 397 902 407 912 418 921 420 938 420 956 452 956 484 946 507 922 544 883 562 770 569 487 588 483 600 479 607 471L534 411 498 449 357 449C365 399 372 345 377 306L504 306 504 371 514 371C535 371 566 355 567 347L567 131C583 128 598 120 604 113L530 56 495 93ZM783 631C740 696 652 785 570 840L581 854C676 809 771 737 823 681 839 685 848 683 854 677 846 789 834 851 818 868 809 876 801 879 785 879 766 879 719 874 689 872L688 889C715 894 744 901 755 911 765 921 768 938 768 956 803 956 837 946 861 921 900 882 916 758 923 487 943 484 956 479 963 471L889 411 853 449 688 449 703 306 848 306 848 369 857 369C879 369 909 352 910 344L910 132C929 129 944 121 950 114L873 55 838 93 611 93 620 121 848 121 848 277 720 277 650 245C643 313 628 439 614 526 646 533 662 530 678 521L684 479 862 479C860 553 858 616 854 669Z"/>
</svg>