<svg xmlns="http://www.w3.org/2000/svg" name="gid7853" data-unicode="滂"
    viewBox="0 0 1000 1000">
  <!--
© 2017-2024 Adobe (http://www.adobe.com/).
Noto is a trademark of Google Inc.
This Font Software is licensed under the SIL Open Font License, Version 1.1. This Font Software is distributed on an "AS IS" BASIS, WITHOUT WARRANTIES OR CONDITIONS OF ANY KIND, either express or implied. See the SIL Open Font License for the specific language, permissions and limitations governing your use of this Font Software.
http://scripts.sil.org/OFL
  -->
<path d="M106 58L97 67C139 96 190 147 208 190 280 229 320 88 106 58ZM48 279L38 288C78 313 121 360 134 401 204 443 248 303 48 279ZM97 676C86 676 54 676 54 676L54 698C75 700 89 703 102 712 123 726 128 804 114 906 116 937 128 955 145 955 178 955 197 930 199 887 202 806 175 760 175 716 175 691 181 661 188 631 201 585 273 364 311 245L293 240C137 621 137 621 121 655 111 676 108 676 97 676ZM359 306C358 348 327 395 301 413 282 426 271 446 280 465 292 486 326 483 345 467 363 451 379 419 382 375L852 375C840 403 824 437 815 455L829 462C858 444 906 408 933 387 952 385 963 384 971 377L895 303 853 345 708 345C743 307 777 262 799 228 820 230 833 222 837 210L742 180 926 180C941 180 950 175 953 164 919 133 865 91 865 91L816 151 650 151 650 81C672 77 681 68 683 55L585 46 585 151 318 151 326 180 732 180C719 229 699 296 681 345L525 345C566 339 584 250 451 182L439 187C463 225 490 285 491 332 499 340 507 344 515 345L382 345C382 333 380 320 377 307ZM582 396L582 513 297 513 305 542 512 542C504 671 475 818 263 941L276 957C453 877 526 777 559 674L773 674C764 784 747 855 727 872 719 879 710 880 694 880 675 880 612 876 576 872L575 889C609 894 643 902 656 912 669 923 672 940 672 958 709 958 744 949 768 931 806 902 829 818 837 682 857 679 869 675 875 668L801 607 765 645 567 645C576 610 581 576 584 542L937 542C951 542 962 537 965 526 931 497 880 456 880 456L833 513 646 513 646 432C669 428 677 419 679 406Z"/>
</svg>