<svg xmlns="http://www.w3.org/2000/svg" name="gid7869" data-unicode="滕"
    viewBox="0 0 1000 1000">
  <!--
© 2017-2024 Adobe (http://www.adobe.com/).
Noto is a trademark of Google Inc.
This Font Software is licensed under the SIL Open Font License, Version 1.1. This Font Software is distributed on an "AS IS" BASIS, WITHOUT WARRANTIES OR CONDITIONS OF ANY KIND, either express or implied. See the SIL Open Font License for the specific language, permissions and limitations governing your use of this Font Software.
http://scripts.sil.org/OFL
  -->
<path d="M493 79C473 141 427 231 373 286L384 299C453 254 512 185 544 131 568 134 575 130 581 120ZM762 88L752 97C803 135 870 204 891 256 960 297 999 157 762 88ZM790 553C770 592 733 661 706 702L717 711C753 682 808 639 837 614 856 618 866 615 870 607ZM166 128L283 128 283 321 166 321ZM456 574L446 580C493 536 532 485 564 431L748 431C793 510 853 570 929 611 937 581 956 564 980 559L981 549C915 525 855 484 806 431L943 431C957 431 966 426 969 415 938 385 888 346 888 346L844 401 780 401C752 366 729 327 711 285L849 285C863 285 873 280 875 269 846 241 798 204 798 204L756 256 641 256C660 199 673 141 683 86 710 84 719 76 722 64L617 45C610 114 597 186 577 256L450 256 458 285 568 285C556 325 541 364 524 401L371 401 379 431 509 431C468 510 415 582 344 638L344 137C362 133 376 126 382 119L305 60 274 99 178 99 104 66 104 379C104 567 103 779 37 950L54 959C125 850 151 714 161 584L283 584 283 853C283 868 279 873 262 873 243 873 157 866 157 866L157 883C196 888 218 896 231 906 243 916 247 935 250 955 335 946 344 913 344 860L344 643 352 651C386 630 417 607 444 581 474 612 508 663 516 704 575 748 632 631 456 574ZM166 351L283 351 283 556 162 556C166 493 166 432 166 378ZM631 285L689 285C701 327 715 366 733 401L581 401C600 363 617 324 631 285ZM372 827L425 897C433 892 439 882 440 870 517 815 577 768 619 736L619 863C619 876 615 881 601 881 586 881 516 875 516 875L516 892C549 896 566 902 577 912 588 922 592 939 593 956 671 949 679 919 679 868L679 716C745 757 834 827 868 880 942 915 963 766 684 704L679 710 679 521C702 518 711 510 714 496L619 486 619 728 616 721C516 767 416 811 372 827Z"/>
</svg>