<svg xmlns="http://www.w3.org/2000/svg" name="gid7870" data-unicode="滙"
    viewBox="0 0 1000 1000">
  <!--
© 2017-2024 Adobe (http://www.adobe.com/).
Noto is a trademark of Google Inc.
This Font Software is licensed under the SIL Open Font License, Version 1.1. This Font Software is distributed on an "AS IS" BASIS, WITHOUT WARRANTIES OR CONDITIONS OF ANY KIND, either express or implied. See the SIL Open Font License for the specific language, permissions and limitations governing your use of this Font Software.
http://scripts.sil.org/OFL
  -->
<path d="M42 289L32 296C65 328 106 382 119 425 182 468 234 342 42 289ZM95 62L85 71C123 99 169 149 184 190 249 230 291 100 95 62ZM88 677C77 677 46 677 46 677L46 700C67 702 80 704 94 713 112 728 118 809 104 910 106 942 116 960 134 960 165 960 183 935 184 893 188 812 163 761 162 717 162 693 167 663 174 636 182 594 239 394 267 287L248 283C125 624 125 624 111 657 102 677 99 677 88 677ZM294 123L294 958 304 958C336 958 357 941 357 935L357 891 936 891C950 891 960 886 963 875 928 843 871 800 871 800L822 862 357 862 357 153 921 153C935 153 945 148 948 137 915 106 861 64 861 64L814 123 369 123 294 91ZM644 349L644 456 513 456 513 349ZM524 161C487 284 425 401 364 474L377 486C403 466 428 441 452 413L452 824 462 824C493 824 513 805 513 799L513 765 899 765C911 765 921 760 923 749 895 719 846 681 846 681L803 735 703 735 703 624 857 624C870 624 879 619 882 608 855 581 814 547 814 547L776 594 703 594 703 486 857 486C870 486 879 481 882 470 855 444 814 409 814 409L776 456 703 456 703 349 886 349C900 349 909 344 912 333 883 306 836 268 836 268L794 320 666 320C692 287 717 248 734 220 755 220 767 211 770 199L673 174C666 217 652 276 639 320L524 320 521 319C542 285 561 249 578 211 599 213 611 204 615 192ZM644 486L644 594 513 594 513 486ZM644 624L644 735 513 735 513 624Z"/>
</svg>