<svg xmlns="http://www.w3.org/2000/svg"
    viewBox="0 0 1000 1000">
  <!--
© 2017-2024 Adobe (http://www.adobe.com/).
Noto is a trademark of Google Inc.
This Font Software is licensed under the SIL Open Font License, Version 1.1. This Font Software is distributed on an "AS IS" BASIS, WITHOUT WARRANTIES OR CONDITIONS OF ANY KIND, either express or implied. See the SIL Open Font License for the specific language, permissions and limitations governing your use of this Font Software.
http://scripts.sil.org/OFL
  -->
<path d="M84 642C73 642 41 642 41 642L41 664C63 667 77 668 90 678 110 692 116 775 102 877 104 909 114 928 132 928 164 928 182 902 184 860 188 777 161 727 161 682 160 658 166 627 173 599 184 553 252 338 287 221L267 216C123 587 123 587 107 621 100 642 96 642 84 642ZM84 19L75 27C115 57 166 109 183 153 253 193 295 54 84 19ZM45 252L35 261C73 288 115 339 126 381 193 425 242 287 45 252ZM494 288L494 405 359 405 359 288ZM494 258L359 258 359 144 494 144ZM298 115L298 907 310 907C339 907 359 890 359 882L359 729 577 729C591 729 600 724 603 713 573 683 523 643 523 643L480 699 359 699 359 590 569 590C581 590 591 585 593 574 565 545 516 507 516 507L474 560 359 560 359 434 494 434 494 484 503 484C523 484 553 469 554 463L554 152C570 149 584 142 590 135L518 80 486 115 415 115C433 94 451 71 465 52 486 52 498 43 501 30L402 10C399 41 393 83 387 115L365 115 298 83ZM625 97L625 418 561 418 569 447 748 447C708 613 616 773 397 909L411 927C596 828 700 711 760 585L760 852C760 892 769 909 821 909L866 909C948 909 971 895 971 870 971 858 968 850 950 843L947 717 934 717C925 767 915 826 909 840 906 848 903 849 897 850 893 851 882 851 867 851L838 851C823 851 821 848 821 835L821 537C839 533 848 524 849 512L792 505C799 486 804 466 809 447L948 447C962 447 971 442 973 431 945 402 897 362 897 362L855 418 816 418C836 323 841 224 844 126L920 126C934 126 944 121 946 110 915 80 863 39 863 39L818 97 697 97 625 65ZM754 418L685 418 685 126 779 126C777 222 774 321 754 418Z"/>
</svg>