<svg xmlns="http://www.w3.org/2000/svg" name="gid7901" data-unicode="漑"
    viewBox="0 0 1000 1000">
  <!--
© 2017-2024 Adobe (http://www.adobe.com/).
Noto is a trademark of Google Inc.
This Font Software is licensed under the SIL Open Font License, Version 1.1. This Font Software is distributed on an "AS IS" BASIS, WITHOUT WARRANTIES OR CONDITIONS OF ANY KIND, either express or implied. See the SIL Open Font License for the specific language, permissions and limitations governing your use of this Font Software.
http://scripts.sil.org/OFL
  -->
<path d="M84 672C73 672 41 672 41 672L41 694C63 697 77 698 90 708 110 722 116 805 102 907 104 939 114 958 132 958 164 958 182 932 184 890 188 807 161 757 161 712 160 688 166 657 173 629 184 583 252 368 287 251L267 246C123 617 123 617 107 651 100 672 96 672 84 672ZM84 49L75 57C115 87 166 139 183 183 253 223 295 84 84 49ZM45 282L35 291C73 318 115 369 126 411 193 455 242 317 45 282ZM494 318L494 435 359 435 359 318ZM494 288L359 288 359 174 494 174ZM298 145L298 937 310 937C339 937 359 920 359 912L359 759 577 759C591 759 600 754 603 743 573 713 523 673 523 673L480 729 359 729 359 620 569 620C581 620 591 615 593 604 565 575 516 537 516 537L474 590 359 590 359 464 494 464 494 514 503 514C523 514 553 499 554 493L554 182C570 179 584 172 590 165L518 110 486 145 415 145C433 124 451 101 465 82 486 82 498 73 501 60L402 40C399 71 393 113 387 145L365 145 298 113ZM625 127L625 448 561 448 569 477 748 477C708 643 616 803 397 939L411 957C596 858 700 741 760 615L760 882C760 922 769 939 821 939L866 939C948 939 971 925 971 900 971 888 968 880 950 873L947 747 934 747C925 797 915 856 909 870 906 878 903 879 897 880 893 881 882 881 867 881L838 881C823 881 821 878 821 865L821 567C839 563 848 554 849 542L792 535C799 516 804 496 809 477L948 477C962 477 971 472 973 461 945 432 897 392 897 392L855 448 816 448C836 353 841 254 844 156L920 156C934 156 944 151 946 140 915 110 863 69 863 69L818 127 697 127 625 95ZM754 448L685 448 685 156 779 156C777 252 774 351 754 448Z"/>
</svg>