<svg xmlns="http://www.w3.org/2000/svg"
    viewBox="0 0 1000 1000">
  <!--
© 2017-2024 Adobe (http://www.adobe.com/).
Noto is a trademark of Google Inc.
This Font Software is licensed under the SIL Open Font License, Version 1.1. This Font Software is distributed on an "AS IS" BASIS, WITHOUT WARRANTIES OR CONDITIONS OF ANY KIND, either express or implied. See the SIL Open Font License for the specific language, permissions and limitations governing your use of this Font Software.
http://scripts.sil.org/OFL
  -->
<path d="M90 641C79 641 46 641 46 641L46 663C67 666 82 668 95 677 115 691 121 773 108 877 109 909 119 927 137 927 169 927 187 901 189 859 193 776 166 726 166 681 166 657 171 627 178 598 190 553 260 337 297 220L278 215C129 586 129 586 113 620 104 641 101 641 90 641ZM103 21L94 30C134 60 185 111 201 155 271 195 313 56 103 21ZM49 253L40 262C79 287 122 335 135 376 203 417 247 279 49 253ZM877 554C855 588 817 633 784 669 756 622 734 571 718 517L947 517C961 517 970 512 972 501 941 471 889 429 889 429L843 487 646 487 646 379 885 379C899 379 907 374 910 363 881 335 832 296 832 296L790 350 646 350 646 239 885 239C899 239 907 234 910 223 881 194 832 155 832 155L790 210 646 210 646 102 912 102C926 102 936 97 939 87 907 57 854 17 854 17L809 73 659 73 586 41 586 487 526 487 476 446 441 483 343 483C350 420 357 352 362 305L456 305 456 364 465 364C485 364 515 351 516 345L516 108C535 104 551 96 558 89L481 29 446 68 276 68 285 96 456 96 456 276 377 276 310 245C303 326 286 476 270 579 302 584 316 582 331 574L339 513 450 513C441 704 423 817 396 841 387 849 379 851 362 851 343 851 284 846 248 842L248 861C280 865 313 873 326 882 338 892 342 909 341 926 377 926 412 916 436 893 476 856 500 736 508 520L524 517 586 517 586 823 492 845 536 926C546 922 553 914 557 902 655 856 727 817 776 791L773 777 646 809 646 517 697 517C734 704 803 843 920 926 928 893 950 873 975 867L977 858C905 824 844 764 796 690 842 665 896 633 925 611 941 615 952 614 958 606Z"/>
</svg>