<svg xmlns="http://www.w3.org/2000/svg" name="gid7926" data-unicode="漸"
    viewBox="0 0 1000 1000">
  <!--
© 2017-2024 Adobe (http://www.adobe.com/).
Noto is a trademark of Google Inc.
This Font Software is licensed under the SIL Open Font License, Version 1.1. This Font Software is distributed on an "AS IS" BASIS, WITHOUT WARRANTIES OR CONDITIONS OF ANY KIND, either express or implied. See the SIL Open Font License for the specific language, permissions and limitations governing your use of this Font Software.
http://scripts.sil.org/OFL
  -->
<path d="M80 672C69 672 38 672 38 672L38 694C59 697 72 698 85 708 104 722 110 804 98 907 99 939 108 958 127 958 159 958 177 932 179 890 183 807 156 756 155 712 154 687 159 658 167 630 177 586 235 382 265 272L246 267C118 618 118 618 103 651 94 672 91 672 80 672ZM95 47L85 55C126 85 176 137 193 181 263 221 305 82 95 47ZM39 260L30 269C68 295 111 342 124 384 192 425 236 287 39 260ZM404 41L404 189 248 189 256 218 404 218 404 316 338 316 278 288 278 658 287 658C309 658 333 645 333 640L333 604 404 604 404 723 219 723 227 753 404 753 404 957 413 957C443 957 463 942 463 937L463 753 617 753 625 752C606 821 576 886 530 945L546 957C706 811 719 601 719 427L719 400 814 400 814 957 823 957C853 957 874 942 874 937L874 400 945 400C959 400 968 395 971 384 940 354 890 313 890 313L844 371 719 371 719 169C792 156 860 135 909 117 932 126 949 128 959 120L887 49C855 76 797 110 737 137L660 110 660 428C660 529 655 631 632 727 603 701 564 668 564 668L520 723 463 723 463 604 532 604 532 648 540 648C559 648 586 635 587 629L587 354C604 351 620 343 626 336L555 282 523 316 463 316 463 218 609 218C623 218 633 213 635 202 605 173 556 134 556 134L512 189 463 189 463 78C488 75 498 65 500 51ZM333 575L333 475 408 475 408 575ZM532 575L459 575 459 475 532 475ZM333 446L333 346 408 346 408 446ZM532 446L459 446 459 346 532 346Z"/>
</svg>