<svg xmlns="http://www.w3.org/2000/svg"
    viewBox="0 0 1000 1000">
  <!--
© 2017-2024 Adobe (http://www.adobe.com/).
Noto is a trademark of Google Inc.
This Font Software is licensed under the SIL Open Font License, Version 1.1. This Font Software is distributed on an "AS IS" BASIS, WITHOUT WARRANTIES OR CONDITIONS OF ANY KIND, either express or implied. See the SIL Open Font License for the specific language, permissions and limitations governing your use of this Font Software.
http://scripts.sil.org/OFL
  -->
<path d="M41 268L31 276C65 307 106 359 120 400 185 442 235 314 41 268ZM98 35L89 44C127 73 172 122 186 164 253 205 298 73 98 35ZM88 647C77 647 46 647 46 647L46 670C67 672 81 674 94 683 113 698 119 779 105 880 107 913 117 930 135 930 167 930 185 905 186 863 190 781 164 731 164 687 164 662 169 633 175 604 185 561 243 354 273 243L254 239C126 593 126 593 111 626 103 647 99 647 88 647ZM781 236L781 314 624 314 624 236ZM329 314L338 343 564 343 564 614 368 614 370 555 370 544 449 544 449 581 459 581C478 581 502 568 502 561L502 421C520 418 528 410 529 399L449 390 449 514 370 514 370 417C393 413 401 404 403 390L312 381 312 555C312 673 300 816 216 915L230 927C292 876 328 810 347 740L446 740 446 920 454 920C471 920 499 907 500 900L500 744C513 742 526 735 531 729L468 680 438 710 355 710C360 687 363 665 365 642L564 642 564 931 572 931C599 931 621 915 622 910L622 642 822 642 822 710 745 710 682 682 682 922 690 922C717 922 735 908 735 903L735 740 822 740 822 926 833 926C855 926 881 913 881 905L881 421C904 418 913 409 915 395L822 385 822 514 734 514 734 421C753 418 761 410 762 399L682 390 682 581 693 581C711 581 734 568 734 561L734 544 822 544 822 614 622 614 622 343 781 343 781 377 790 377C810 377 841 363 842 357L842 236 948 236C961 236 970 231 972 220 947 193 903 155 903 155L866 207 842 207 842 142C861 138 877 130 884 122L806 63 771 100 624 100 624 51C648 47 658 38 659 24L561 14 561 100 330 100 339 129 561 129 561 207 274 207 282 236 561 236 561 314ZM781 207L624 207 624 129 781 129Z"/>
</svg>