<svg xmlns="http://www.w3.org/2000/svg"
    viewBox="0 0 1000 1000">
  <!--
© 2017-2024 Adobe (http://www.adobe.com/).
Noto is a trademark of Google Inc.
This Font Software is licensed under the SIL Open Font License, Version 1.1. This Font Software is distributed on an "AS IS" BASIS, WITHOUT WARRANTIES OR CONDITIONS OF ANY KIND, either express or implied. See the SIL Open Font License for the specific language, permissions and limitations governing your use of this Font Software.
http://scripts.sil.org/OFL
  -->
<path d="M91 641C80 641 48 641 48 641L48 663C69 666 83 668 96 677 116 691 122 773 108 877 109 908 120 927 138 927 169 927 187 902 189 859 193 777 167 725 167 682 166 658 172 629 178 602 189 561 252 367 285 263L266 259C130 589 130 589 114 620 105 641 102 641 91 641ZM84 16L74 25C115 55 165 106 182 150 252 190 294 51 84 16ZM49 261L39 270C78 296 122 344 134 385 202 427 247 289 49 261ZM265 149L273 178 652 178C665 178 675 173 677 162 651 135 607 99 607 99L568 149 486 149 486 48C509 45 519 35 521 22L424 12 424 149ZM533 279L533 395 369 395 369 279ZM310 249L310 463 319 463C343 463 369 449 369 444L369 424 533 424 533 448 542 448C561 448 591 435 592 429L592 288C610 284 626 278 633 270L556 214 523 249 374 249 310 220ZM427 603L427 671C346 680 279 686 239 689L276 767C287 765 295 758 301 746L427 719 427 838C427 851 424 856 409 856 392 856 315 850 315 850L315 866C350 870 370 877 382 886 393 896 397 911 398 929 479 921 488 892 488 842L488 705 679 659 676 641 488 664 488 638C510 634 519 627 522 613L500 611C536 590 581 562 605 545 626 544 637 543 645 535L578 472 542 507 290 507 299 537 529 537C510 560 486 588 468 607ZM705 12C689 177 648 347 596 463L613 473C637 439 659 400 678 357 690 469 709 574 741 667 692 761 624 844 532 917L542 930C637 872 709 803 763 724 799 805 847 875 912 930 922 900 945 885 974 880L977 871C898 822 840 754 796 672 861 558 895 425 913 275L951 275C964 275 974 270 977 259 946 228 895 187 895 187L850 245 723 245C743 185 760 121 773 55 794 54 804 44 807 32ZM768 610C732 524 709 426 694 321L712 275 846 275C835 397 811 509 768 610Z"/>
</svg>