<svg xmlns="http://www.w3.org/2000/svg"
    viewBox="0 0 1000 1000">
  <!--
© 2017-2024 Adobe (http://www.adobe.com/).
Noto is a trademark of Google Inc.
This Font Software is licensed under the SIL Open Font License, Version 1.1. This Font Software is distributed on an "AS IS" BASIS, WITHOUT WARRANTIES OR CONDITIONS OF ANY KIND, either express or implied. See the SIL Open Font License for the specific language, permissions and limitations governing your use of this Font Software.
http://scripts.sil.org/OFL
  -->
<path d="M109 23L100 32C140 62 190 113 206 158 276 198 318 60 109 23ZM48 238L39 247C78 274 121 321 133 362 201 404 246 266 48 238ZM88 647C77 647 45 647 45 647L45 669C67 671 81 674 93 683 113 697 118 776 105 877 106 908 118 927 135 927 167 927 185 901 187 859 190 779 164 730 163 687 163 662 169 632 175 603 186 560 249 350 282 238L263 233C126 593 126 593 111 626 102 647 99 647 88 647ZM502 233L502 333 359 333 359 233ZM502 205L359 205 359 104 502 104ZM298 76L298 927 309 927C338 927 359 911 359 902L359 362 502 362 502 416 511 416C531 416 560 402 561 395L561 115C580 111 596 103 602 96L527 38 493 76 363 76 298 43ZM698 233L852 233 852 333 698 333ZM698 205L698 104 852 104 852 205ZM639 76L639 411 648 411C673 411 698 397 698 391L698 362 852 362 852 828C852 844 847 851 827 851 805 851 698 843 698 843L698 859C745 865 771 873 787 883 801 893 807 910 810 928 903 919 913 885 913 835L913 117C934 113 951 104 958 97L876 34 842 76 703 76 639 46ZM429 603L436 632 560 632 560 754 397 754 405 784 794 784C808 784 817 779 820 768 791 740 744 701 744 701L702 754 621 754 621 632 769 632C782 632 792 627 794 616 766 589 722 552 722 552L683 603 621 603 621 499 775 499C789 499 798 494 801 483 772 456 725 418 725 418L686 470 416 470 424 499 560 499 560 603Z"/>
</svg>