<svg xmlns="http://www.w3.org/2000/svg" name="gid7950" data-unicode="潤"
    viewBox="0 0 1000 1000">
  <!--
© 2017-2024 Adobe (http://www.adobe.com/).
Noto is a trademark of Google Inc.
This Font Software is licensed under the SIL Open Font License, Version 1.1. This Font Software is distributed on an "AS IS" BASIS, WITHOUT WARRANTIES OR CONDITIONS OF ANY KIND, either express or implied. See the SIL Open Font License for the specific language, permissions and limitations governing your use of this Font Software.
http://scripts.sil.org/OFL
  -->
<path d="M109 53L100 62C140 92 190 143 206 188 276 228 318 90 109 53ZM48 268L39 277C78 304 121 351 133 392 201 434 246 296 48 268ZM88 677C77 677 45 677 45 677L45 699C67 701 81 704 93 713 113 727 118 806 105 907 106 938 118 957 135 957 167 957 185 931 187 889 190 809 164 760 163 717 163 692 169 662 175 633 186 590 249 380 282 268L263 263C126 623 126 623 111 656 102 677 99 677 88 677ZM502 263L502 363 359 363 359 263ZM502 235L359 235 359 134 502 134ZM298 106L298 957 309 957C338 957 359 941 359 932L359 392 502 392 502 446 511 446C531 446 560 432 561 425L561 145C580 141 596 133 602 126L527 68 493 106 363 106 298 73ZM698 263L852 263 852 363 698 363ZM698 235L698 134 852 134 852 235ZM639 106L639 441 648 441C673 441 698 427 698 421L698 392 852 392 852 858C852 874 847 881 827 881 805 881 698 873 698 873L698 889C745 895 771 903 787 913 801 923 807 940 810 958 903 949 913 915 913 865L913 147C934 143 951 134 958 127L876 64 842 106 703 106 639 76ZM429 633L436 662 560 662 560 784 397 784 405 814 794 814C808 814 817 809 820 798 791 770 744 731 744 731L702 784 621 784 621 662 769 662C782 662 792 657 794 646 766 619 722 582 722 582L683 633 621 633 621 529 775 529C789 529 798 524 801 513 772 486 725 448 725 448L686 500 416 500 424 529 560 529 560 633Z"/>
</svg>