<svg xmlns="http://www.w3.org/2000/svg" name="gid7951" data-unicode="潦"
    viewBox="0 0 1000 1000">
  <!--
© 2017-2024 Adobe (http://www.adobe.com/).
Noto is a trademark of Google Inc.
This Font Software is licensed under the SIL Open Font License, Version 1.1. This Font Software is distributed on an "AS IS" BASIS, WITHOUT WARRANTIES OR CONDITIONS OF ANY KIND, either express or implied. See the SIL Open Font License for the specific language, permissions and limitations governing your use of this Font Software.
http://scripts.sil.org/OFL
  -->
<path d="M108 60L99 69C141 98 193 149 210 192 283 231 321 90 108 60ZM53 291L43 300C83 325 126 372 139 413 209 455 253 314 53 291ZM90 677C79 677 45 677 45 677L45 699C67 701 81 703 94 713 115 727 121 805 108 906 109 938 120 956 138 956 171 956 189 931 191 888 195 807 168 760 167 717 167 692 173 662 181 633 194 588 271 370 310 254L292 249C131 623 131 623 114 656 104 677 101 677 90 677ZM704 716L695 726C758 768 841 842 868 906 949 949 981 780 704 716ZM434 704C400 766 327 850 255 903L265 915C354 878 439 814 488 762 509 767 517 762 524 752ZM847 212C829 239 799 282 775 313 725 272 693 230 674 195L934 195C948 195 957 190 960 180 927 149 873 107 873 107L826 166 604 166C618 138 629 110 639 81 665 83 673 78 677 67L571 41C561 84 548 126 531 166L287 166 295 195 517 195C498 235 475 273 449 309 453 280 423 235 319 219L309 228C341 252 379 294 392 328 406 337 420 338 430 333 380 394 320 445 251 484L261 497C307 477 349 454 387 426L387 695 397 695C429 695 450 681 450 676L450 647 579 647 579 862C579 874 575 879 559 879 541 879 457 873 457 873L457 888C497 893 518 900 530 911 541 922 546 939 547 958 632 950 643 914 643 863L643 647 763 647 763 689 773 689C794 689 827 674 828 668L828 428C856 448 888 467 924 484 931 451 949 443 978 439L980 428C901 398 840 364 794 328 828 309 869 285 893 269 913 274 921 270 926 262ZM590 195L652 195C670 243 703 310 764 373L754 383 462 383 448 377C506 324 553 262 590 195ZM763 413L763 501 450 501 450 413ZM763 529L763 618 450 618 450 529Z"/>
</svg>