<svg xmlns="http://www.w3.org/2000/svg"
    viewBox="0 0 1000 1000">
  <!--
© 2017-2023 Adobe (http://www.adobe.com/).
Noto is a trademark of Google Inc.
This Font Software is licensed under the SIL Open Font License, Version 1.1. This Font Software is distributed on an "AS IS" BASIS, WITHOUT WARRANTIES OR CONDITIONS OF ANY KIND, either express or implied. See the SIL Open Font License for the specific language, permissions and limitations governing your use of this Font Software.
http://scripts.sil.org/OFL
  -->
<path d="M108 30L99 39C141 68 193 119 210 162 283 201 321 60 108 30ZM53 261L43 270C83 295 126 342 139 383 209 425 253 284 53 261ZM90 647C79 647 45 647 45 647L45 669C67 671 81 673 94 683 115 697 121 775 108 876 109 908 120 926 138 926 171 926 189 901 191 858 195 777 168 730 167 687 167 662 173 632 181 603 194 558 271 340 310 224L292 219C131 593 131 593 114 626 104 647 101 647 90 647ZM704 686L695 696C758 738 841 812 868 876 949 919 981 750 704 686ZM434 674C400 736 327 820 255 873L265 885C354 848 439 784 488 732 509 737 517 732 524 722ZM847 182C829 209 799 252 775 283 725 242 693 200 674 165L934 165C948 165 957 160 960 150 927 119 873 77 873 77L826 136 604 136C618 108 629 80 639 51 665 53 673 48 677 37L571 11C561 54 548 96 531 136L287 136 295 165 517 165C498 205 475 243 449 279 453 250 423 205 319 189L309 198C341 222 379 264 392 298 406 307 420 308 430 303 380 364 320 415 251 454L261 467C307 447 349 424 387 396L387 665 397 665C429 665 450 651 450 646L450 617 579 617 579 832C579 844 575 849 559 849 541 849 457 843 457 843L457 858C497 863 518 870 530 881 541 892 546 909 547 928 632 920 643 884 643 833L643 617 763 617 763 659 773 659C794 659 827 644 828 638L828 398C856 418 888 437 924 454 931 421 949 413 978 409L980 398C901 368 840 334 794 298 828 279 869 255 893 239 913 244 921 240 926 232ZM590 165L652 165C670 213 703 280 764 343L754 353 462 353 448 347C506 294 553 232 590 165ZM763 383L763 471 450 471 450 383ZM763 499L763 588 450 588 450 499Z"/>
</svg>