<svg xmlns="http://www.w3.org/2000/svg" name="gid7961" data-unicode="潼"
    viewBox="0 0 1000 1000">
  <!--
© 2017-2024 Adobe (http://www.adobe.com/).
Noto is a trademark of Google Inc.
This Font Software is licensed under the SIL Open Font License, Version 1.1. This Font Software is distributed on an "AS IS" BASIS, WITHOUT WARRANTIES OR CONDITIONS OF ANY KIND, either express or implied. See the SIL Open Font License for the specific language, permissions and limitations governing your use of this Font Software.
http://scripts.sil.org/OFL
  -->
<path d="M102 53L94 62C136 92 188 146 206 190 278 230 319 87 102 53ZM42 283L33 292C75 318 122 368 136 410 207 451 248 309 42 283ZM580 45L580 146 331 146 339 175 434 175C455 205 477 254 477 294 482 299 488 302 493 304L306 304 330 234 311 229C140 622 140 622 122 657 113 677 109 678 98 678 87 678 54 678 54 678L54 700C75 702 89 704 103 713 124 728 130 808 116 910 118 942 130 960 148 960 181 960 200 934 202 891 206 810 178 763 178 717 177 694 183 662 192 632 204 593 260 434 304 311L309 333 937 333C951 333 960 328 963 317 929 288 877 249 877 249L830 304 695 304C725 275 757 241 778 213 799 213 812 205 816 193L749 175 894 175C908 175 918 170 920 159 887 129 833 90 833 90L786 146 645 146 645 80C667 76 676 67 678 54ZM368 397L368 720 377 720C404 720 432 706 432 699L432 665 580 665 580 765 331 765 339 794 580 794 580 902 274 902 283 930 944 930C958 930 967 925 969 914 936 885 883 845 883 845L835 902 645 902 645 794 894 794C907 794 917 789 920 778 887 748 834 709 834 709L788 765 645 765 645 665 798 665 798 707 808 707C829 707 861 691 862 685L862 436C879 433 894 425 900 418L824 360 789 397 437 397 368 366ZM798 637L645 637 645 545 798 545ZM580 637L432 637 432 545 580 545ZM798 516L645 516 645 427 798 427ZM580 516L432 516 432 427 580 427ZM713 175C702 215 684 266 670 304L519 304C552 290 561 223 459 175Z"/>
</svg>