<svg xmlns="http://www.w3.org/2000/svg"
    viewBox="0 0 1000 1000">
  <!--
© 2017-2023 Adobe (http://www.adobe.com/).
Noto is a trademark of Google Inc.
This Font Software is licensed under the SIL Open Font License, Version 1.1. This Font Software is distributed on an "AS IS" BASIS, WITHOUT WARRANTIES OR CONDITIONS OF ANY KIND, either express or implied. See the SIL Open Font License for the specific language, permissions and limitations governing your use of this Font Software.
http://scripts.sil.org/OFL
  -->
<path d="M108 24L99 33C141 64 194 118 211 162 283 203 323 61 108 24ZM47 257L38 266C77 291 120 339 133 380 202 422 247 282 47 257ZM333 122L341 150 573 150 573 241 302 241 314 205 295 201C134 588 134 588 116 622 108 643 104 643 93 643 82 643 49 643 49 643L49 665C71 667 85 670 98 679 119 694 124 772 111 873 113 905 123 923 142 923 174 923 192 898 194 855 198 774 171 727 170 683 170 659 176 628 184 598 195 557 256 378 298 253L303 271 931 271C945 271 956 266 959 255 925 224 872 183 872 183L824 241 639 241 639 150 887 150C900 150 911 146 913 135 881 105 828 64 828 64L783 122 639 122 639 50C664 47 673 37 675 23L573 13 573 122ZM267 615L275 645 478 645C458 776 397 852 241 911L246 928C433 882 519 803 547 645L653 645 653 848C653 893 665 909 731 909L811 909C933 909 960 896 960 870 960 857 956 850 936 842L933 724 920 724C910 774 899 824 893 839 889 848 886 850 877 851 867 851 842 851 813 851L746 851C720 851 717 848 717 836L717 645 937 645C951 645 961 640 963 629 930 599 877 557 877 557L830 615ZM577 512L585 542 936 542C949 542 958 537 961 526 934 499 891 464 891 464L853 512 787 512 787 407 920 407C933 407 943 402 946 391 920 365 879 331 879 331L842 377 787 377 787 319C809 315 818 307 819 294L727 284 727 377 614 377 622 407 727 407 727 512ZM276 522L315 595C324 592 332 584 336 572 455 533 543 499 606 477L603 461 467 488 467 408 575 408C589 408 598 403 600 392 576 366 536 334 536 334L502 378 467 378 467 316C490 313 498 305 500 292L408 283 408 378 294 378 302 408 408 408 408 499C352 510 305 518 276 522Z"/>
</svg>