<svg xmlns="http://www.w3.org/2000/svg"
    viewBox="0 0 1000 1000">
  <!--
© 2017-2023 Adobe (http://www.adobe.com/).
Noto is a trademark of Google Inc.
This Font Software is licensed under the SIL Open Font License, Version 1.1. This Font Software is distributed on an "AS IS" BASIS, WITHOUT WARRANTIES OR CONDITIONS OF ANY KIND, either express or implied. See the SIL Open Font License for the specific language, permissions and limitations governing your use of this Font Software.
http://scripts.sil.org/OFL
  -->
<path d="M42 271L32 279C65 309 107 361 120 401 183 443 233 318 42 271ZM93 29L83 38C124 70 176 126 192 171 258 212 300 77 93 29ZM710 123L705 139C773 164 830 201 867 233L836 271 629 271 629 106 943 106C957 106 966 101 969 90 936 60 885 19 885 19L839 77 263 77 271 106 567 106 567 271 373 271 348 260C409 230 465 194 500 163 525 165 539 162 545 151L451 110C416 161 335 235 260 278L279 209 260 205C123 588 123 588 108 622 101 643 97 643 86 643 75 643 44 643 44 643L44 666C65 668 79 670 92 679 111 694 117 775 104 877 105 908 116 926 133 926 165 926 183 901 184 859 188 777 162 727 161 683 161 659 166 627 173 597 181 560 224 406 258 285L264 295 301 281 301 929 311 929C341 929 361 913 361 908L361 792 372 802C407 777 442 743 473 703 489 724 501 745 507 764 546 789 570 731 499 667 512 648 524 627 535 606 553 609 566 602 570 593L570 918 578 918C608 918 627 903 627 897L627 300 846 300 846 830C846 845 841 851 824 851 804 851 716 844 716 844L716 860C756 864 778 872 792 882 804 891 809 907 811 926 896 918 905 886 905 837L905 312C925 309 943 300 949 292L918 269C971 264 966 145 710 123ZM391 603L380 612C401 628 425 650 447 673 421 718 391 757 361 785L361 300 570 300 570 590 500 560C490 588 478 615 465 641 445 628 420 615 391 603ZM388 369L377 379C399 394 425 415 447 437 421 482 392 521 363 549L377 561C410 537 444 504 474 465 491 485 504 506 511 524 550 546 572 489 500 429 512 411 523 392 533 372 553 375 566 367 569 357L499 328C489 354 478 380 465 405 444 392 419 380 388 369ZM655 374L645 384C668 399 694 419 718 442 692 486 663 523 633 550L647 564C681 540 715 508 744 470 761 489 774 508 782 525 821 547 844 489 771 432 783 412 795 391 805 370 825 372 837 364 841 354L770 326C760 354 749 382 736 408 714 396 687 384 655 374ZM656 599L645 608C667 626 694 651 718 677 691 721 661 759 630 787L644 799C679 776 713 744 744 706 761 728 776 749 784 768 824 792 850 735 772 667 786 647 799 625 810 603 829 605 841 597 846 587L774 557C764 586 751 615 738 642 716 627 689 613 656 599Z"/>
</svg>