<svg xmlns="http://www.w3.org/2000/svg" name="gid8057" data-unicode="瀚"
    viewBox="0 0 1000 1000">
  <!--
© 2017-2024 Adobe (http://www.adobe.com/).
Noto is a trademark of Google Inc.
This Font Software is licensed under the SIL Open Font License, Version 1.1. This Font Software is distributed on an "AS IS" BASIS, WITHOUT WARRANTIES OR CONDITIONS OF ANY KIND, either express or implied. See the SIL Open Font License for the specific language, permissions and limitations governing your use of this Font Software.
http://scripts.sil.org/OFL
  -->
<path d="M44 261L34 269C69 300 112 351 127 393 192 434 239 307 44 261ZM97 50L88 59C124 87 169 135 183 176 248 215 290 85 97 50ZM88 671C77 671 47 671 47 671L47 693C68 696 81 698 94 707 113 721 118 804 104 904 105 936 116 954 134 954 166 954 183 929 185 887 188 805 163 754 162 710 161 686 166 656 172 626 181 582 233 371 259 257L240 253C123 616 123 616 110 649 101 671 99 671 88 671ZM314 469L452 469 452 569 314 569ZM314 440L314 337 452 337 452 440ZM259 310L259 640 268 640C292 640 314 627 314 621L314 598 351 598 351 719 213 719 221 749 351 749 351 958 360 958C390 958 410 943 410 939L410 749 534 749 538 749C520 775 501 797 482 815L496 828C553 790 611 729 651 657L655 657 655 865C655 878 652 883 638 883 623 883 558 878 558 878L558 894C589 898 606 904 616 914 626 924 629 941 631 958 703 950 711 921 711 872L711 791 714 793C764 761 818 706 857 646L862 647 862 862C862 877 858 882 842 882 824 882 747 875 747 875L747 892C781 897 803 903 814 913 825 923 829 940 831 957 909 949 918 919 918 870L918 394C936 391 950 383 956 377L882 320 853 356 741 356 750 385 862 385 862 446 813 421C784 481 746 538 712 573L726 585C768 560 814 517 849 471L862 473 862 617 820 596C790 662 750 726 711 768L711 392C727 389 740 382 746 376L675 322 647 356 531 356 540 385 655 385 655 447 610 425C580 488 542 549 507 586L507 358 543 332 545 331C627 268 705 179 746 92 782 193 853 281 931 341 936 317 954 299 977 293L979 280C894 237 805 166 760 81 780 79 789 75 791 64L693 45C672 127 598 238 526 314L485 276 456 310 409 310 409 209 536 209C550 209 560 204 563 193 534 165 488 127 488 127L447 180 409 180 409 78C434 74 444 64 446 50L350 41 350 180 231 180 238 209 350 209 350 310 319 310 259 281ZM613 608C596 650 576 690 553 726 525 698 485 665 485 665L443 719 410 719 410 598 452 598 452 632 462 632C484 632 506 619 507 615L507 588 521 600C563 571 610 524 646 474L655 475 655 627Z"/>
</svg>