<svg xmlns="http://www.w3.org/2000/svg"
    viewBox="0 0 1000 1000">
  <!--
© 2017-2024 Adobe (http://www.adobe.com/).
Noto is a trademark of Google Inc.
This Font Software is licensed under the SIL Open Font License, Version 1.1. This Font Software is distributed on an "AS IS" BASIS, WITHOUT WARRANTIES OR CONDITIONS OF ANY KIND, either express or implied. See the SIL Open Font License for the specific language, permissions and limitations governing your use of this Font Software.
http://scripts.sil.org/OFL
  -->
<path d="M42 244L32 253C65 284 106 336 119 376 182 420 233 293 42 244ZM79 28L70 37C108 65 154 115 168 157 234 196 275 66 79 28ZM525 241C503 276 467 326 436 365 420 327 399 291 375 259 416 215 450 167 477 115L601 115C614 115 625 110 627 99 596 70 547 31 547 31L504 86 243 86 251 115 403 115C365 198 309 281 242 346L282 199 262 196C124 592 124 592 109 626 102 647 98 648 88 648 77 648 46 648 46 648L46 670C67 673 80 675 93 684 113 698 118 780 105 881 107 913 117 931 134 931 167 931 184 906 186 864 189 781 163 732 162 688 161 662 167 631 174 601 180 570 209 466 237 361L244 369C286 341 325 310 359 275 370 295 379 317 388 339 348 412 278 493 209 546L217 557C290 521 360 465 410 413 416 437 421 462 425 486 377 578 293 686 205 754L215 768C297 719 376 649 435 583 440 698 423 799 399 840 392 850 382 851 367 851 343 851 273 847 233 844L233 861C270 867 306 877 317 884 328 894 334 907 335 927 393 927 427 914 446 887 476 847 496 758 495 655L506 666C547 637 585 605 620 571L620 930 628 930C659 930 680 914 680 909L680 864 851 864 851 922 861 922C881 922 911 907 912 901L912 555C932 552 948 544 954 537L877 477 841 515 692 515 679 509C706 480 730 449 753 417 779 439 806 472 816 499 872 531 911 429 765 401L776 385 938 385C952 385 962 380 964 369 935 341 886 301 886 301L843 355 796 355C852 270 895 183 926 106 953 109 962 104 967 92L875 59C863 96 848 135 831 174 808 151 780 128 780 128L744 176 725 176 725 57C749 53 759 44 761 30L666 19 666 176 541 176 549 206 666 206 666 355 527 355 535 385 720 385C696 422 671 459 644 494L620 484 620 524C581 571 539 615 495 653 494 581 483 501 458 425 500 455 543 498 561 533 622 561 646 444 448 396L445 387C487 357 541 318 569 292 585 297 597 296 603 287ZM851 545L851 671 680 671 680 545ZM851 700L851 834 680 834 680 700ZM725 206L817 206C795 255 768 306 739 355L725 355Z"/>
</svg>