<svg xmlns="http://www.w3.org/2000/svg"
    viewBox="0 0 1000 1000">
  <!--
© 2017-2024 Adobe (http://www.adobe.com/).
Noto is a trademark of Google Inc.
This Font Software is licensed under the SIL Open Font License, Version 1.1. This Font Software is distributed on an "AS IS" BASIS, WITHOUT WARRANTIES OR CONDITIONS OF ANY KIND, either express or implied. See the SIL Open Font License for the specific language, permissions and limitations governing your use of this Font Software.
http://scripts.sil.org/OFL
  -->
<path d="M83 16L74 25C114 55 164 106 181 150 251 190 293 51 83 16ZM796 758L785 767C831 803 886 867 901 918 967 961 1009 823 796 758ZM693 749C664 803 603 874 539 914L549 928C627 899 700 848 740 802 762 806 771 802 776 792ZM87 641C76 641 44 641 44 641L44 663C66 666 79 668 93 677 112 691 118 774 104 877 106 909 116 927 134 927 166 927 184 902 185 859 190 776 163 726 163 681 163 657 168 627 175 599 186 554 250 345 284 231L265 226C126 587 126 587 110 620 102 641 98 641 87 641ZM42 231L33 240C72 266 115 314 127 356 195 397 240 259 42 231ZM400 13L400 161 257 161 265 191 400 191 400 295 346 295 288 269 288 574 296 574C318 574 341 562 341 557L341 527 393 527C356 642 296 752 210 835L223 851C297 794 356 726 401 649L401 929 410 929C439 929 459 914 459 909L459 606C496 642 534 696 542 742 603 787 652 655 459 586L459 527 520 527 520 568 529 568C547 568 574 554 574 547L574 327C588 325 599 319 603 313L542 266 513 295 459 295 459 191 602 191C616 191 626 186 629 175 598 146 547 106 547 106L503 161 459 161 459 49C482 45 491 35 493 22ZM402 498L341 498 341 325 404 325 404 498ZM461 498L456 498 456 325 520 325 520 498ZM688 484L845 484 845 571 688 571ZM688 455L688 364 845 364 845 455ZM688 601L845 601 845 690 688 690ZM629 335L629 762 637 762C668 762 688 749 688 743L688 720 845 720 845 754 854 754C882 754 905 739 905 735L905 368C926 365 937 359 944 352L873 297 842 335 700 335 629 304ZM597 72L606 101 693 101C681 164 652 238 582 295L597 308C704 252 742 176 758 101L859 101C853 175 845 214 834 226 831 230 827 232 819 232 805 232 767 229 746 227L746 244C767 247 791 254 800 263 810 270 814 284 814 297 835 297 857 292 873 280 901 258 910 208 918 107 937 105 949 99 955 92L885 36 851 72Z"/>
</svg>