<svg xmlns="http://www.w3.org/2000/svg" name="gid8075" data-unicode="瀼"
    viewBox="0 0 1000 1000">
  <!--
© 2017-2024 Adobe (http://www.adobe.com/).
Noto is a trademark of Google Inc.
This Font Software is licensed under the SIL Open Font License, Version 1.1. This Font Software is distributed on an "AS IS" BASIS, WITHOUT WARRANTIES OR CONDITIONS OF ANY KIND, either express or implied. See the SIL Open Font License for the specific language, permissions and limitations governing your use of this Font Software.
http://scripts.sil.org/OFL
  -->
<path d="M102 53L93 62C134 92 184 143 201 187 271 228 314 88 102 53ZM45 284L36 293C75 318 118 366 131 407 200 449 245 309 45 284ZM92 680C81 680 48 680 48 680L48 702C69 704 83 706 97 716 117 730 123 808 109 910 111 941 122 960 139 960 172 960 190 934 192 892 195 811 169 763 169 719 168 695 174 664 181 634 194 588 265 366 302 246L284 242C131 625 131 625 115 659 105 680 102 680 92 680ZM576 43L576 149 279 149 287 179 934 179C947 179 957 174 960 163 927 132 875 92 875 92L828 149 640 149 640 80C664 76 675 67 676 53ZM324 883L363 959C373 957 380 950 386 937 517 901 614 872 684 850L681 834 512 859 512 749C544 731 572 712 597 691L615 691C671 828 769 914 912 960 919 929 939 910 964 904L965 894C881 879 805 847 743 802 788 784 844 760 878 743 897 749 906 746 911 738L850 691 934 691C948 691 958 686 960 675 929 646 880 608 880 608L836 662 736 662 736 597 885 597C899 597 909 592 911 581 883 553 835 516 835 516L795 568 736 568 736 506 905 506C918 506 928 501 930 490 901 461 854 425 854 425L812 476 736 476 736 450C755 447 763 439 765 427L674 418 674 476 528 476 528 449C549 445 557 437 559 425L467 415 467 476 308 476 316 506 467 506 467 568 329 568 337 597 467 597 467 662 276 662 284 691 503 691C435 746 341 794 241 828L250 845C321 829 389 807 451 779L451 867C397 875 352 880 324 883ZM528 506L674 506 674 568 528 568ZM528 597L674 597 674 662 528 662ZM639 691L829 691C802 720 759 762 727 790 692 762 662 728 639 691ZM352 228L352 420 361 420C388 420 407 407 407 402L407 378 516 378 516 410 525 410C551 410 572 397 572 393L572 260C591 257 600 252 607 245L541 195 513 228 418 228 352 199ZM407 349L407 257 516 257 516 349ZM644 228L644 419 653 419C681 419 700 405 700 400L700 378 811 378 811 410 821 410C845 410 868 397 868 393L868 260C886 257 896 252 902 245L836 195 809 228 710 228 644 199ZM700 349L700 257 811 257 811 349Z"/>
</svg>