<svg xmlns="http://www.w3.org/2000/svg"
    viewBox="0 0 1000 1000">
  <!--
© 2017-2024 Adobe (http://www.adobe.com/).
Noto is a trademark of Google Inc.
This Font Software is licensed under the SIL Open Font License, Version 1.1. This Font Software is distributed on an "AS IS" BASIS, WITHOUT WARRANTIES OR CONDITIONS OF ANY KIND, either express or implied. See the SIL Open Font License for the specific language, permissions and limitations governing your use of this Font Software.
http://scripts.sil.org/OFL
  -->
<path d="M98 24L88 32C129 62 180 114 196 157 266 197 308 58 98 24ZM45 259L35 268C76 296 122 348 135 392 204 434 249 294 45 259ZM93 650C82 650 51 650 51 650L51 672C72 674 85 676 98 686 118 700 124 779 111 880 112 911 123 929 140 929 172 929 190 904 192 862 196 782 170 733 168 690 168 666 174 635 182 606 193 563 259 354 294 241L275 237C133 596 133 596 117 629 108 650 104 650 93 650ZM446 573L446 514 781 514 781 573ZM385 453L385 635 394 635C426 635 446 621 446 616L446 603 781 603 781 627 791 627C820 627 844 613 844 609L844 517C862 514 872 509 878 500L809 448 778 484 458 484ZM896 156L860 201 789 201C794 177 797 151 799 123L927 123C941 123 949 118 952 107 927 81 886 46 886 46L851 94 800 94 802 44C822 41 830 31 832 19L744 11 743 94 618 94 621 106C597 82 558 48 558 48L524 94 502 94 504 44C525 41 533 31 535 19L446 11 445 94 297 94 305 123 340 123C330 167 312 232 298 262 320 268 340 268 350 261L359 231 425 231C405 291 362 341 275 381L287 397C370 367 421 330 452 287L452 311C452 344 459 358 500 358L529 358C590 358 608 348 608 326 608 315 604 309 587 303L584 254 573 254C567 276 560 297 555 304 553 308 550 308 546 309 543 309 538 309 531 309L516 309C508 309 506 306 506 297L506 231 592 231C605 231 614 226 617 215 593 189 553 156 553 156L519 201 490 201C495 176 499 150 501 123L597 123C610 123 620 118 622 107L626 123 643 123C633 166 617 228 604 257 625 264 647 264 657 255L664 231 727 231C708 291 670 339 591 378L604 394C688 362 736 322 763 274L763 307C763 341 771 355 816 355L857 355 814 408 319 408 327 437 918 437C932 437 942 432 945 421 917 395 875 362 865 355 933 354 952 344 952 323 952 312 947 306 930 300L927 253 916 253C910 275 903 294 898 301 895 305 892 306 887 306 883 306 871 306 860 306L831 306C818 306 816 305 816 295L816 231 936 231C950 231 959 226 961 215 936 190 896 156 896 156ZM742 123C741 151 739 177 734 201L673 201 693 123ZM444 123C442 151 439 177 434 201L367 201 387 123ZM707 691L707 686 850 686 850 713C841 716 836 716 832 716 827 716 820 716 815 716L726 716C707 716 707 716 707 691ZM377 909L377 686 513 686C503 715 475 742 390 769L404 784C520 760 560 726 574 686L650 686 650 690C650 751 654 755 721 755L812 755 850 754 850 840C850 852 846 857 833 857 815 857 748 853 748 853L748 868C782 872 799 880 810 889 820 897 823 914 825 931 905 923 914 895 914 846L914 698C934 695 950 686 956 678L873 617 840 657 384 657 314 625 314 930 323 930C349 930 377 916 377 909ZM644 904L644 826 781 826C794 826 803 821 805 811 783 788 749 760 749 760L719 797 443 797 451 826 584 826 584 921 593 921C624 921 644 908 644 904Z"/>
</svg>