<svg xmlns="http://www.w3.org/2000/svg"
    viewBox="0 0 1000 1000">
  <!--
© 2017-2024 Adobe (http://www.adobe.com/).
Noto is a trademark of Google Inc.
This Font Software is licensed under the SIL Open Font License, Version 1.1. This Font Software is distributed on an "AS IS" BASIS, WITHOUT WARRANTIES OR CONDITIONS OF ANY KIND, either express or implied. See the SIL Open Font License for the specific language, permissions and limitations governing your use of this Font Software.
http://scripts.sil.org/OFL
  -->
<path d="M42 245L32 253C65 283 106 336 119 377 183 420 233 293 42 245ZM90 27L80 36C118 65 164 114 179 156 244 195 286 65 90 27ZM87 647C76 647 45 647 45 647L45 670C66 672 79 674 92 683 111 698 117 779 103 880 105 913 115 930 132 930 164 930 182 905 183 863 187 782 161 730 161 687 160 662 165 633 172 605 181 561 238 356 266 246L247 242C123 594 123 594 109 626 101 647 97 647 87 647ZM415 455C413 485 386 513 357 522 339 531 327 546 334 564 342 583 371 584 390 575 421 559 449 520 433 455ZM510 450L497 454C502 478 505 515 501 545 538 591 608 521 510 450ZM618 441L605 446C619 467 633 502 636 530 680 569 738 489 618 441ZM741 434L730 442C752 457 774 484 780 508 829 540 872 449 741 434ZM293 847L326 930C336 928 347 922 353 909 551 888 701 871 815 855 835 879 851 903 859 925 930 966 965 816 723 752L713 762C739 780 769 805 795 833L486 844C517 815 553 779 584 747L939 747C953 747 962 742 964 732 935 702 885 662 885 662L841 718 624 718 624 650 860 650C874 650 884 645 887 634L835 588C850 585 864 580 874 573 903 554 915 513 921 435 940 432 952 429 958 421L890 367 857 401 464 401 475 358 890 358C903 358 912 353 915 343 900 329 879 313 863 301L867 301C886 301 916 289 917 283L917 204C932 202 946 194 951 188L882 136 850 169 733 169 733 118 931 118C945 118 954 113 957 102 925 75 875 37 875 37L830 89 639 89 639 45C658 42 666 34 667 22L574 13 574 89 361 89 288 57 288 276C288 418 282 574 206 702L221 713C338 589 349 413 349 283L430 283C422 330 401 410 385 446 412 454 438 453 451 444L455 430 864 430C859 481 851 509 842 518 835 522 829 524 816 524 799 524 753 521 726 519L725 536C750 539 775 544 785 553 792 559 796 568 798 578L765 620 624 620 624 602C648 599 658 589 660 575L560 564 560 620 348 620 356 650 560 650 560 718 276 718 284 747 501 747C484 778 463 815 444 845 381 847 329 847 293 847ZM349 118L479 118 479 169 349 169ZM536 118L675 118 675 169 536 169ZM349 198L479 198 479 254 349 254ZM858 198L858 254 733 254 733 198ZM536 198L675 198 675 254 536 254ZM858 283L858 297 839 283 799 330 482 330 493 283Z"/>
</svg>