<svg xmlns="http://www.w3.org/2000/svg"
    viewBox="0 0 1000 1000">
  <!--
© 2017-2024 Adobe (http://www.adobe.com/).
Noto is a trademark of Google Inc.
This Font Software is licensed under the SIL Open Font License, Version 1.1. This Font Software is distributed on an "AS IS" BASIS, WITHOUT WARRANTIES OR CONDITIONS OF ANY KIND, either express or implied. See the SIL Open Font License for the specific language, permissions and limitations governing your use of this Font Software.
http://scripts.sil.org/OFL
  -->
<path d="M46 247L37 255C73 284 117 334 132 374 199 413 242 284 46 247ZM100 24L91 33C130 60 178 107 195 146 263 183 299 50 100 24ZM92 644C81 644 49 644 49 644L49 666C70 668 84 671 97 680 117 694 123 774 110 877 111 908 121 927 139 927 171 927 188 902 190 860 194 778 168 728 167 685 167 660 173 630 180 601 192 555 265 337 302 219L284 214C132 590 132 590 115 623 106 644 102 644 92 644ZM292 62L300 91 584 91C598 91 607 87 610 76 583 50 542 17 542 17L506 62ZM629 62L637 91 935 91C948 91 958 87 960 76 932 48 887 13 887 13L848 62ZM426 187L426 302 435 302C450 302 470 290 470 283L470 215C486 212 492 205 494 195ZM760 187L760 302 768 302C784 302 804 290 804 283L804 215C820 212 826 205 828 195ZM362 392L482 392 482 463 362 463ZM569 306L569 363 373 363 302 331 302 501C302 632 296 782 220 906L234 918C322 829 350 709 358 605L844 605 844 641 853 641C873 641 904 626 904 620L904 500C921 497 936 489 941 483L868 428 835 463 722 463 722 392 932 392C945 392 955 387 957 376 925 349 876 313 876 313L831 363 634 363 634 337C650 333 658 326 659 315ZM662 392L662 463 541 463 541 392ZM360 575L362 501 362 492 482 492 482 575ZM662 575L541 575 541 492 662 492ZM722 575L722 492 844 492 844 575ZM325 849L355 927C364 924 374 917 379 905 492 873 578 845 639 825L637 809 482 831 482 744 618 744C632 744 641 739 643 728 619 703 578 669 578 669L543 715 482 715 482 653C502 650 509 642 510 631L423 621 423 838C382 844 347 847 325 849ZM865 653C834 679 780 716 729 743L729 656C746 653 755 644 757 632L670 622 670 848C670 889 681 904 743 904L817 904C929 904 956 894 956 868 956 856 951 850 932 843L928 756 916 756C908 793 899 830 894 842 889 848 886 849 878 850 870 851 846 851 819 851L757 851C732 851 729 848 729 836L729 768C792 753 862 729 903 708 924 715 932 712 940 703ZM319 142L319 318 328 318C350 318 376 306 376 300L376 170 524 170 524 306 532 306C551 306 579 292 580 286L580 174C593 171 605 165 610 159L547 112 517 142 379 142 319 114ZM647 142L647 310 656 310C679 310 704 298 704 292L704 170 861 170 861 302 870 302C889 302 917 288 917 282L917 175C932 173 945 166 950 160L884 110 853 142 708 142 647 114Z"/>
</svg>