<svg xmlns="http://www.w3.org/2000/svg"
    viewBox="0 0 1000 1000">
  <!--
© 2017-2023 Adobe (http://www.adobe.com/).
Noto is a trademark of Google Inc.
This Font Software is licensed under the SIL Open Font License, Version 1.1. This Font Software is distributed on an "AS IS" BASIS, WITHOUT WARRANTIES OR CONDITIONS OF ANY KIND, either express or implied. See the SIL Open Font License for the specific language, permissions and limitations governing your use of this Font Software.
http://scripts.sil.org/OFL
  -->
<path d="M128 238C128 335 87 397 62 415 5 460 51 511 102 473 150 439 168 357 143 238ZM360 106L368 136 690 136 690 817C690 833 685 838 665 838 642 838 532 830 532 830L532 845C581 852 608 862 625 874 638 884 644 905 646 927 742 916 754 873 754 820L754 136 939 136C953 136 962 131 964 120 933 89 881 48 881 48L835 106ZM388 208C368 248 321 323 281 376 285 283 283 178 284 61 308 58 317 48 320 34L221 23C221 467 243 734 36 905L48 922C165 846 224 749 254 624 313 676 376 751 394 811 468 858 510 702 259 602 271 540 277 473 280 399 339 359 403 306 437 273 455 280 470 272 474 265Z"/>
</svg>