<svg xmlns="http://www.w3.org/2000/svg" name="gid8127" data-unicode="炯"
    viewBox="0 0 1000 1000">
  <!--
© 2017-2024 Adobe (http://www.adobe.com/).
Noto is a trademark of Google Inc.
This Font Software is licensed under the SIL Open Font License, Version 1.1. This Font Software is distributed on an "AS IS" BASIS, WITHOUT WARRANTIES OR CONDITIONS OF ANY KIND, either express or implied. See the SIL Open Font License for the specific language, permissions and limitations governing your use of this Font Software.
http://scripts.sil.org/OFL
  -->
<path d="M129 265L113 265C114 357 81 424 59 444 7 491 54 538 99 498 143 461 154 378 129 265ZM481 934L481 140 855 140 855 856C855 871 850 877 831 877 812 877 716 870 716 870L716 885C759 891 783 900 797 911 809 920 815 938 818 957 907 948 917 915 917 863L917 152C937 148 954 140 961 132L878 70 845 111 486 111 420 78 420 282 342 234C325 271 289 337 256 389 258 299 257 199 258 88 281 85 291 75 294 62L195 51C195 494 217 762 33 934L47 952C155 873 208 772 233 641 278 691 324 759 335 815 402 866 452 719 238 616 247 556 252 491 255 420 305 380 361 329 390 296 404 301 415 297 420 291L420 958 432 958C461 958 481 943 481 934ZM722 331L722 659 610 659 610 331ZM610 757L610 688 722 688 722 746 730 746C748 746 775 731 776 726L776 338C793 335 808 329 814 321L745 267 713 302 615 302 557 274 557 777 566 777C590 777 610 763 610 757Z"/>
</svg>