<svg xmlns="http://www.w3.org/2000/svg"
    viewBox="0 0 1000 1000">
  <!--
© 2017-2024 Adobe (http://www.adobe.com/).
Noto is a trademark of Google Inc.
This Font Software is licensed under the SIL Open Font License, Version 1.1. This Font Software is distributed on an "AS IS" BASIS, WITHOUT WARRANTIES OR CONDITIONS OF ANY KIND, either express or implied. See the SIL Open Font License for the specific language, permissions and limitations governing your use of this Font Software.
http://scripts.sil.org/OFL
  -->
<path d="M108 230C112 327 82 392 59 411 7 455 51 502 98 464 140 429 151 349 124 230ZM400 271L400 927 411 927C439 927 461 911 461 903L461 300 610 300C602 449 573 573 472 672L488 687C600 603 644 496 662 365 678 478 713 608 791 683 797 645 815 633 846 628L848 616C734 535 691 413 673 300L850 300 850 831C850 845 845 851 829 851 811 851 725 844 725 844L725 860C763 865 785 873 798 883 810 893 815 910 817 929 902 920 912 888 912 839L912 313C932 309 948 300 955 292L873 231 840 271 671 271C674 223 675 172 676 118L944 118C958 118 967 113 970 102 940 73 889 32 889 32L844 89 359 89 367 118 614 118C614 171 614 222 612 271L466 271 421 249C423 249 424 247 425 246L339 187C323 221 288 285 257 334 259 250 258 159 259 60 282 57 292 47 295 33L194 22C194 455 215 727 37 905L51 922C161 838 212 731 236 593 274 638 313 698 324 747 387 796 438 663 241 566 250 503 254 434 256 359 305 327 359 282 388 254L400 256Z"/>
</svg>