<svg xmlns="http://www.w3.org/2000/svg" name="gid8139" data-unicode="烋"
    viewBox="0 0 1000 1000">
  <!--
© 2017-2024 Adobe (http://www.adobe.com/).
Noto is a trademark of Google Inc.
This Font Software is licensed under the SIL Open Font License, Version 1.1. This Font Software is distributed on an "AS IS" BASIS, WITHOUT WARRANTIES OR CONDITIONS OF ANY KIND, either express or implied. See the SIL Open Font License for the specific language, permissions and limitations governing your use of this Font Software.
http://scripts.sil.org/OFL
  -->
<path d="M186 718C186 803 130 864 76 886 55 897 40 917 48 938 59 962 97 961 127 944 176 918 234 847 204 718ZM359 721L345 725C362 781 376 863 366 929 422 995 503 858 359 721ZM540 718L528 724C565 779 608 866 614 933 681 991 742 839 540 718ZM739 715L728 724C793 778 874 872 893 947 971 999 1016 823 739 715ZM244 42C196 202 111 356 30 450L43 461C89 426 133 381 173 329L173 677 185 677C210 677 237 661 238 656L238 281C255 278 264 271 268 262L230 248C259 201 285 151 308 97 330 99 342 90 347 79ZM287 229L295 258 538 258C481 388 383 512 260 598L271 614C400 545 506 451 577 339L577 673 590 673C614 673 643 658 643 649L643 267C701 421 798 543 911 614 920 583 942 564 968 560L969 550C851 499 729 387 662 258L922 258C937 258 946 253 949 242 916 210 862 169 862 169L815 229 643 229 643 81C664 77 672 68 675 55L577 45 577 229Z"/>
</svg>