<svg xmlns="http://www.w3.org/2000/svg"
    viewBox="0 0 1000 1000">
  <!--
© 2017-2024 Adobe (http://www.adobe.com/).
Noto is a trademark of Google Inc.
This Font Software is licensed under the SIL Open Font License, Version 1.1. This Font Software is distributed on an "AS IS" BASIS, WITHOUT WARRANTIES OR CONDITIONS OF ANY KIND, either express or implied. See the SIL Open Font License for the specific language, permissions and limitations governing your use of this Font Software.
http://scripts.sil.org/OFL
  -->
<path d="M197 701C190 778 131 835 80 855 59 867 44 887 53 908 64 932 101 932 130 915 177 889 236 820 214 702ZM352 707L339 712C361 762 384 837 382 897 439 959 515 825 352 707ZM540 708L528 715C568 762 618 839 628 898 697 951 752 804 540 708ZM737 698L727 708C791 758 872 845 894 914 974 963 1015 793 737 698ZM274 214L501 214 501 324 274 324ZM281 11C224 168 131 318 46 408L59 420C111 382 163 333 210 276L210 684 221 684C253 684 274 666 274 661L274 641 931 641C944 641 954 636 957 625 923 594 869 551 869 551L821 612 567 612 567 494 846 494C860 494 870 489 872 479 842 449 792 409 792 409L749 466 567 466 567 353 846 353C859 353 869 348 871 338 841 308 791 269 791 269L749 324 567 324 567 214 895 214C909 214 918 209 921 198 889 167 834 124 834 124L788 184 523 184C559 146 595 100 619 64 641 64 651 54 655 42L548 19C536 68 514 133 493 184L287 184 279 181C302 146 324 108 343 69 365 72 378 64 382 53ZM274 353L501 353 501 466 274 466ZM274 494L501 494 501 612 274 612Z"/>
</svg>