<svg xmlns="http://www.w3.org/2000/svg"
    viewBox="0 0 1000 1000">
  <!--
© 2017-2023 Adobe (http://www.adobe.com/).
Noto is a trademark of Google Inc.
This Font Software is licensed under the SIL Open Font License, Version 1.1. This Font Software is distributed on an "AS IS" BASIS, WITHOUT WARRANTIES OR CONDITIONS OF ANY KIND, either express or implied. See the SIL Open Font License for the specific language, permissions and limitations governing your use of this Font Software.
http://scripts.sil.org/OFL
  -->
<path d="M95 228C98 312 74 389 57 414 12 466 63 505 101 459 134 418 135 330 110 228ZM356 76L356 239 282 192C271 225 248 286 226 335L228 55C251 51 260 41 263 27L163 16C163 454 184 732 35 912L49 929C141 847 185 743 207 611 237 653 266 704 272 746 330 796 383 673 212 579 220 516 224 448 226 372 264 334 306 285 328 254 342 257 352 255 356 250L356 927 367 927C396 927 417 911 417 902L417 703 596 703C610 703 619 698 622 687 593 658 544 619 544 619L502 674 417 674 417 525 582 525C596 525 605 520 608 509 579 481 534 444 534 444L494 496 417 496 417 329 552 329 552 386 561 386C580 386 611 371 612 365L612 116C632 112 647 105 654 97L576 38 542 76 421 76 356 43ZM552 299L417 299 417 105 552 105ZM653 303L662 332 836 332 836 389 845 389C866 389 898 374 899 368L899 116C917 112 933 105 940 97L861 38 826 76 652 76 661 105 836 105 836 303ZM845 489C828 559 803 624 767 683 731 627 704 563 687 489ZM604 460L613 489 665 489C680 580 704 658 739 725 682 802 605 865 502 913L511 928C621 889 703 835 765 770 806 833 859 883 925 923 936 895 956 877 982 875L985 865C911 833 850 787 800 728 853 660 888 582 913 497 935 496 946 493 953 484L883 421 841 460Z"/>
</svg>