<svg xmlns="http://www.w3.org/2000/svg" name="gid8194" data-unicode="煑"
    viewBox="0 0 1000 1000">
  <!--
© 2017-2024 Adobe (http://www.adobe.com/).
Noto is a trademark of Google Inc.
This Font Software is licensed under the SIL Open Font License, Version 1.1. This Font Software is distributed on an "AS IS" BASIS, WITHOUT WARRANTIES OR CONDITIONS OF ANY KIND, either express or implied. See the SIL Open Font License for the specific language, permissions and limitations governing your use of this Font Software.
http://scripts.sil.org/OFL
  -->
<path d="M276 649C263 709 202 751 154 764 133 772 118 790 125 810 133 832 168 833 197 821 241 802 303 748 294 650ZM793 44C767 74 737 103 703 132 672 106 637 80 637 80L592 134 467 134 467 80C491 77 501 67 503 53L401 43 401 134 159 134 166 163 401 163 401 243 49 243 58 272 488 272C429 303 365 332 298 358L255 338 255 374C185 399 112 421 38 438L43 454C116 443 187 427 255 408L255 634 265 634C292 634 320 619 320 613L320 590 745 590 745 619 755 619C776 619 808 605 809 599L809 410C828 406 844 398 850 391L770 331 736 370 678 370C718 364 720 288 588 279L602 272 935 272C949 272 959 267 961 256 927 226 874 188 874 187L826 243 653 243C723 202 782 157 829 110 850 120 860 119 870 110ZM787 639C752 685 680 752 618 798 560 757 533 704 521 636 542 634 550 623 552 611L450 602C444 746 432 859 44 942L54 959C425 896 493 802 513 694 544 830 624 918 901 961 906 922 930 909 967 904L967 892C809 877 705 851 638 811 712 780 789 737 836 703 858 709 866 705 874 695ZM320 494L745 494 745 561 320 561ZM320 464L320 399 745 399 745 464ZM377 370C443 347 505 321 563 292 597 310 637 341 656 367L667 370ZM467 163L663 163C625 191 584 218 540 243L467 243Z"/>
</svg>