<svg xmlns="http://www.w3.org/2000/svg" name="gid8202" data-unicode="煜"
    viewBox="0 0 1000 1000">
  <!--
© 2017-2024 Adobe (http://www.adobe.com/).
Noto is a trademark of Google Inc.
This Font Software is licensed under the SIL Open Font License, Version 1.1. This Font Software is distributed on an "AS IS" BASIS, WITHOUT WARRANTIES OR CONDITIONS OF ANY KIND, either express or implied. See the SIL Open Font License for the specific language, permissions and limitations governing your use of this Font Software.
http://scripts.sil.org/OFL
  -->
<path d="M485 610L470 615C496 680 522 779 517 855 578 922 650 769 485 610ZM100 258C104 350 75 421 56 444 8 493 56 535 98 493 135 454 142 370 116 258ZM494 262L809 262 809 371 494 371ZM494 233L494 125 809 125 809 233ZM430 96L430 449 440 449C466 449 494 434 494 427L494 400 809 400 809 443 819 443C840 443 872 428 873 421L873 135C891 132 905 124 911 117L834 58 800 96 499 96 430 65ZM325 223C308 260 272 326 239 378 241 289 241 191 242 83 265 79 273 69 276 55L177 45C177 484 197 762 38 942L52 959C147 878 194 775 217 646 262 691 310 755 323 807 388 856 437 715 221 625 231 560 236 487 239 407 288 369 342 317 371 285 389 290 403 282 407 275ZM617 433L617 556 359 556 367 585 921 585C935 585 944 580 947 569 915 539 863 500 863 500L817 556 681 556 681 465C700 462 707 454 709 443ZM747 607C734 692 707 808 682 895L307 895 315 923 949 923C962 923 972 918 975 908 941 877 886 835 886 835L839 895 704 895C747 817 786 723 811 654 832 654 843 646 847 634Z"/>
</svg>