<svg xmlns="http://www.w3.org/2000/svg" name="gid8205" data-unicode="煢"
    viewBox="0 0 1000 1000">
  <!--
© 2017-2024 Adobe (http://www.adobe.com/).
Noto is a trademark of Google Inc.
This Font Software is licensed under the SIL Open Font License, Version 1.1. This Font Software is distributed on an "AS IS" BASIS, WITHOUT WARRANTIES OR CONDITIONS OF ANY KIND, either express or implied. See the SIL Open Font License for the specific language, permissions and limitations governing your use of this Font Software.
http://scripts.sil.org/OFL
  -->
<path d="M174 103C172 145 142 183 111 197 95 207 84 223 91 239 99 257 128 254 148 243 177 224 208 177 193 103ZM575 101C575 143 547 185 518 201 500 211 491 228 498 244 507 261 535 258 555 247 583 226 611 176 593 101ZM418 99C389 146 357 191 331 219L345 233C378 214 419 184 454 155 473 160 487 154 493 145ZM851 98C821 147 785 195 758 224L771 238C807 218 852 187 889 155 908 162 922 155 928 147ZM359 589L359 727 90 727 98 757 359 757 359 958 370 958C395 958 422 945 422 937L422 757 677 757C691 757 699 752 702 741 671 712 623 675 623 675L580 727 422 727 422 628C447 623 456 614 458 600ZM150 535L159 564 714 564C723 728 758 877 867 937 901 958 944 968 959 942 967 928 962 914 941 892L950 786 938 784C929 814 920 842 911 865 906 874 903 876 892 871 813 832 783 687 781 571 798 569 813 563 819 557L742 495 704 535ZM263 39C261 181 261 292 65 370L77 385C103 377 126 369 146 360 147 408 112 446 77 461 56 470 40 489 47 513 56 536 90 538 115 526 144 513 171 480 174 429L837 429C827 457 813 489 803 511L815 519C849 500 893 466 918 441 938 440 949 439 956 431L879 356 836 399 173 399C172 385 169 371 164 355L157 355C222 326 261 291 285 252 329 278 375 320 392 356 458 388 485 262 295 233 318 184 321 130 324 72 344 69 352 59 354 48ZM676 39C674 180 673 290 475 369L488 384C604 349 664 304 697 252 746 281 802 328 823 368 892 399 913 265 708 233 732 184 735 130 738 72 758 69 767 59 769 48Z"/>
</svg>