<svg xmlns="http://www.w3.org/2000/svg" name="gid8215" data-unicode="煽"
    viewBox="0 0 1000 1000">
  <!--
© 2017-2024 Adobe (http://www.adobe.com/).
Noto is a trademark of Google Inc.
This Font Software is licensed under the SIL Open Font License, Version 1.1. This Font Software is distributed on an "AS IS" BASIS, WITHOUT WARRANTIES OR CONDITIONS OF ANY KIND, either express or implied. See the SIL Open Font License for the specific language, permissions and limitations governing your use of this Font Software.
http://scripts.sil.org/OFL
  -->
<path d="M515 531C497 577 457 644 417 686L429 700C481 667 529 618 557 580 578 584 587 581 593 571ZM780 531C761 577 718 647 674 690L687 704C741 670 793 619 822 581 844 584 852 581 858 571ZM96 256C99 339 74 416 57 440 11 492 63 532 102 486 136 445 137 358 111 256ZM826 265L826 376 436 376 436 265ZM165 53C165 488 185 762 37 940L52 957C138 880 183 784 205 663 239 706 271 761 278 807 336 854 388 729 210 636 222 561 226 477 228 383L238 388C277 349 319 299 342 269 358 272 369 267 373 261L373 445C373 622 362 800 257 941L272 952C404 834 430 667 435 514L439 527 597 527 597 678 544 652C515 719 452 811 386 869L399 883C477 835 549 759 587 701L597 702 597 860C597 873 592 879 576 879 558 879 474 872 474 872L474 888C511 894 533 901 546 911 558 922 562 938 564 958 647 949 657 917 657 867L657 861 667 873C744 826 815 751 853 694L867 696 867 858C867 872 862 878 846 878 827 878 741 871 741 871L741 887C780 893 802 900 815 910 827 921 831 938 833 957 918 949 928 917 928 867L928 533C942 530 955 523 960 517L888 464 858 498 685 498 694 527 867 527 867 673 810 646C781 710 720 800 657 857L657 532C671 529 684 523 689 517L617 465 589 498 435 498 436 445 436 405 826 405 826 444 836 444C857 444 889 429 890 423L890 277C908 273 925 265 931 257L851 198 817 236 436 236 436 164C584 156 741 132 845 109 869 119 886 119 896 112L824 44C739 77 582 118 442 141L373 110 373 255 296 207C282 247 253 325 228 377 230 291 229 196 230 92 252 88 261 79 264 64Z"/>
</svg>