<svg xmlns="http://www.w3.org/2000/svg" name="gid8221" data-unicode="熊"
    viewBox="0 0 1000 1000">
  <!--
© 2017-2024 Adobe (http://www.adobe.com/).
Noto is a trademark of Google Inc.
This Font Software is licensed under the SIL Open Font License, Version 1.1. This Font Software is distributed on an "AS IS" BASIS, WITHOUT WARRANTIES OR CONDITIONS OF ANY KIND, either express or implied. See the SIL Open Font License for the specific language, permissions and limitations governing your use of this Font Software.
http://scripts.sil.org/OFL
  -->
<path d="M187 734C182 809 130 867 82 888 61 899 46 919 55 940 66 963 102 961 129 945 174 920 228 851 204 734ZM349 752L335 757C354 804 369 874 361 931 415 992 491 867 349 752ZM532 746L520 753C560 799 604 873 610 933 672 986 730 842 532 746ZM741 732L730 741C791 790 864 876 881 947 959 998 1004 820 741 732ZM44 210L77 288C86 286 96 280 101 267 238 247 343 230 422 215 436 235 447 256 452 275 520 319 562 171 341 110L331 119C356 138 384 165 407 194L191 205C227 166 263 121 286 85 308 86 319 77 323 65L222 40C207 89 182 156 160 206ZM183 453L387 453 387 529 183 529ZM183 424L183 347 387 347 387 424ZM121 318L121 730 131 730C158 730 183 715 183 708L183 559 387 559 387 638C387 651 383 657 366 657 347 657 263 652 263 651L263 667C303 671 324 679 337 687 349 694 353 708 355 724 439 717 450 689 450 643L450 359C470 356 487 347 493 340L410 278 377 318 188 318 121 287ZM820 89C775 118 690 160 615 187L615 78C633 75 643 66 644 54L554 44 554 290C554 337 568 350 646 350L757 350C913 350 944 341 944 312 944 301 938 294 916 287L913 203 901 203C892 239 883 275 875 286 871 293 866 294 855 295 842 296 805 297 759 297L656 297C619 297 615 293 615 278L615 208C696 193 787 167 844 146 865 153 881 153 890 144ZM828 421C782 452 693 497 616 526L616 417C635 414 644 405 645 393L555 382 555 641C555 689 570 704 648 704L761 704C921 704 952 694 952 664 952 652 946 645 924 638L921 545 909 545C899 586 889 625 883 637 878 643 874 645 862 646 848 647 811 648 764 648L659 648C620 648 616 644 616 630L616 549C701 532 796 501 854 478 877 486 893 485 900 476Z"/>
</svg>