<svg xmlns="http://www.w3.org/2000/svg"
    viewBox="0 0 1000 1000">
  <!--
© 2017-2023 Adobe (http://www.adobe.com/).
Noto is a trademark of Google Inc.
This Font Software is licensed under the SIL Open Font License, Version 1.1. This Font Software is distributed on an "AS IS" BASIS, WITHOUT WARRANTIES OR CONDITIONS OF ANY KIND, either express or implied. See the SIL Open Font License for the specific language, permissions and limitations governing your use of this Font Software.
http://scripts.sil.org/OFL
  -->
<path d="M104 228C107 318 79 388 58 410 9 458 57 502 100 460 139 422 146 339 120 227ZM465 691C427 767 372 834 323 874L335 887C396 859 460 810 509 748 528 754 542 747 548 738ZM762 703L752 711C798 753 861 824 881 877 950 919 990 781 762 703ZM425 512L432 541 855 541C869 541 879 536 881 525 851 496 802 460 802 460L760 512ZM324 201C308 236 275 301 244 351 246 261 245 161 246 52 270 48 279 39 282 24L182 14C182 453 202 731 40 911L54 928C147 850 195 753 220 630 262 675 307 737 318 787 382 834 431 698 224 607 236 539 241 464 244 380 292 343 344 294 374 264L381 266 381 475 391 475C422 475 442 460 442 456L442 430 852 430 852 464 862 464C891 464 914 450 914 445L914 238C933 235 943 229 950 222L881 169 849 206 746 206 746 110 944 110C958 110 967 105 970 94 939 65 887 25 887 25L842 81 351 81 359 110 533 110 533 206 453 206 381 174 381 236ZM442 401L442 234 533 234 533 401ZM852 401L746 401 746 234 852 234ZM589 234L690 234 690 401 589 401ZM589 206L589 110 690 110 690 206ZM362 630L370 660 615 660 615 835C615 847 611 852 595 852 578 852 498 846 498 846L498 861C536 866 557 873 568 883 579 893 583 910 584 928 666 920 678 885 678 836L678 660 943 660C957 660 965 655 968 644 936 614 884 574 884 574L838 630Z"/>
</svg>