<svg xmlns="http://www.w3.org/2000/svg" name="gid8230" data-unicode="熛"
    viewBox="0 0 1000 1000">
  <!--
© 2017-2024 Adobe (http://www.adobe.com/).
Noto is a trademark of Google Inc.
This Font Software is licensed under the SIL Open Font License, Version 1.1. This Font Software is distributed on an "AS IS" BASIS, WITHOUT WARRANTIES OR CONDITIONS OF ANY KIND, either express or implied. See the SIL Open Font License for the specific language, permissions and limitations governing your use of this Font Software.
http://scripts.sil.org/OFL
  -->
<path d="M104 258C107 348 79 418 58 440 9 488 57 532 100 490 139 452 146 369 120 257ZM465 721C427 797 372 864 323 904L335 917C396 889 460 840 509 778 528 784 542 777 548 768ZM762 733L752 741C798 783 861 854 881 907 950 949 990 811 762 733ZM425 542L432 571 855 571C869 571 879 566 881 555 851 526 802 490 802 490L760 542ZM324 231C308 266 275 331 244 381 246 291 245 191 246 82 270 78 279 69 282 54L182 44C182 483 202 761 40 941L54 958C147 880 195 783 220 660 262 705 307 767 318 817 382 864 431 728 224 637 236 569 241 494 244 410 292 373 344 324 374 294L381 296 381 505 391 505C422 505 442 490 442 486L442 460 852 460 852 494 862 494C891 494 914 480 914 475L914 268C933 265 943 259 950 252L881 199 849 236 746 236 746 140 944 140C958 140 967 135 970 124 939 95 887 55 887 55L842 111 351 111 359 140 533 140 533 236 453 236 381 204 381 266ZM442 431L442 264 533 264 533 431ZM852 431L746 431 746 264 852 264ZM589 264L690 264 690 431 589 431ZM589 236L589 140 690 140 690 236ZM362 660L370 690 615 690 615 865C615 877 611 882 595 882 578 882 498 876 498 876L498 891C536 896 557 903 568 913 579 923 583 940 584 958 666 950 678 915 678 866L678 690 943 690C957 690 965 685 968 674 936 644 884 604 884 604L838 660Z"/>
</svg>