<svg xmlns="http://www.w3.org/2000/svg"
    viewBox="0 0 1000 1000">
  <!--
© 2017-2024 Adobe (http://www.adobe.com/).
Noto is a trademark of Google Inc.
This Font Software is licensed under the SIL Open Font License, Version 1.1. This Font Software is distributed on an "AS IS" BASIS, WITHOUT WARRANTIES OR CONDITIONS OF ANY KIND, either express or implied. See the SIL Open Font License for the specific language, permissions and limitations governing your use of this Font Software.
http://scripts.sil.org/OFL
  -->
<path d="M814 65L803 72C833 100 866 149 871 189 926 233 980 116 814 65ZM507 709L494 713C509 763 520 838 510 897 558 955 629 836 507 709ZM632 706L620 712C654 761 693 839 698 899 757 952 814 819 632 706ZM773 691L762 699C816 754 883 845 896 917 965 970 1017 809 773 691ZM96 226C99 309 74 386 57 410 11 462 63 502 102 456 136 415 137 328 111 226ZM391 699C389 772 346 838 305 863 287 876 275 895 284 913 296 934 330 928 353 910 390 883 432 810 408 700ZM165 23C165 458 185 732 37 910L52 927C138 850 182 755 205 636 238 679 271 734 278 780 321 815 361 755 304 683 479 593 561 453 605 296L609 309 709 309C692 464 640 580 476 667L489 683C681 600 744 484 766 330 789 492 832 614 924 689 932 658 952 638 977 633L978 623C878 568 814 446 783 309L932 309C946 309 956 304 958 293 929 265 883 228 883 228L841 280 771 280C777 213 778 139 779 58 801 55 810 45 812 32L717 22C717 118 718 204 712 280L610 280C618 250 624 220 630 190 650 188 660 185 667 176L599 116 562 153 468 153C478 123 488 91 497 59 518 60 530 50 533 37L438 14C406 194 336 360 255 468L270 479C297 453 323 423 347 390 376 414 404 451 412 482 465 517 508 414 357 375 377 346 395 315 412 282 438 301 464 328 475 351 525 378 559 288 422 262 435 237 446 210 457 182L568 182C539 378 466 556 292 668 273 648 246 628 209 609 222 531 227 444 228 346L237 351C275 312 317 262 341 231 360 235 372 227 376 221L295 169C282 209 253 283 228 335L230 62C252 58 261 49 264 34Z"/>
</svg>