<svg xmlns="http://www.w3.org/2000/svg"
    viewBox="0 0 1000 1000">
  <!--
© 2017-2023 Adobe (http://www.adobe.com/).
Noto is a trademark of Google Inc.
This Font Software is licensed under the SIL Open Font License, Version 1.1. This Font Software is distributed on an "AS IS" BASIS, WITHOUT WARRANTIES OR CONDITIONS OF ANY KIND, either express or implied. See the SIL Open Font License for the specific language, permissions and limitations governing your use of this Font Software.
http://scripts.sil.org/OFL
  -->
<path d="M454 723C441 798 401 850 358 873 303 947 500 976 470 724ZM556 727L542 732C562 777 576 846 566 901 614 958 686 840 556 727ZM683 724L671 731C705 773 741 843 739 900 794 951 856 818 683 724ZM810 712L798 721C847 768 903 849 910 914 972 964 1023 815 810 712ZM106 226C109 318 79 387 58 408 8 455 56 499 100 459 139 421 148 338 123 226ZM659 231L659 342 514 342 514 231ZM513 16C479 169 414 318 345 412L360 422C393 391 424 354 453 312L453 711 463 711C493 711 514 694 514 689L514 658 938 658C952 658 961 653 964 642 932 611 880 570 880 570L834 628 720 628 720 512 900 512C913 512 922 507 925 496 895 466 843 425 843 425L799 483 720 483 720 371 903 371C917 371 927 366 929 355 899 326 848 286 848 286L804 342 720 342 720 231 933 231C946 231 956 226 959 216 926 186 875 146 875 146L828 202 687 202C717 159 748 109 769 72 790 74 802 65 806 54L707 23C696 76 678 148 661 202L526 202 519 199C539 157 558 112 574 65 595 66 606 56 610 45ZM659 371L659 483 514 483 514 371ZM659 512L659 628 514 628 514 512ZM337 196C320 232 284 299 253 347 255 258 254 159 255 51 279 48 288 38 291 23L190 13C190 453 212 730 35 910L50 928C149 850 200 751 226 627 271 672 319 737 333 788 398 835 444 696 231 606 244 535 249 456 252 369L254 370C303 335 355 288 383 257 401 263 415 256 419 247Z"/>
</svg>