<svg xmlns="http://www.w3.org/2000/svg"
    viewBox="0 0 1000 1000">
  <!--
© 2017-2023 Adobe (http://www.adobe.com/).
Noto is a trademark of Google Inc.
This Font Software is licensed under the SIL Open Font License, Version 1.1. This Font Software is distributed on an "AS IS" BASIS, WITHOUT WARRANTIES OR CONDITIONS OF ANY KIND, either express or implied. See the SIL Open Font License for the specific language, permissions and limitations governing your use of this Font Software.
http://scripts.sil.org/OFL
  -->
<path d="M100 232C103 321 75 391 55 413 6 463 56 508 100 466 138 426 144 341 116 231ZM456 657C429 720 369 803 304 852L314 866C396 828 468 764 508 710 530 715 539 710 544 700ZM736 666L725 676C778 719 847 795 869 852 941 895 981 747 736 666ZM318 215C302 250 269 314 240 361 242 270 241 170 242 59 265 56 274 46 277 32L177 21C177 454 198 727 39 905L53 922C152 839 198 734 221 601 258 640 296 695 306 742 367 788 416 660 224 577 233 519 237 457 239 388 286 354 339 307 366 279 385 285 399 277 403 269ZM844 176C832 201 807 244 784 276 751 242 723 203 701 162L931 162C945 162 955 157 958 147 925 116 872 74 872 74L825 133 619 133C631 105 641 77 650 48 676 49 684 44 687 32L583 13C575 54 563 94 549 133L326 133 334 162 537 162C523 197 505 230 486 262 478 236 446 204 373 185L363 192C390 218 424 264 432 299 440 304 447 307 454 308 409 368 354 420 290 459L301 472C345 451 386 426 422 397L422 659 432 659C462 659 483 643 483 638L483 610 600 610 600 831C600 844 596 848 580 848 562 848 477 843 477 843L477 858C516 863 539 870 551 881 562 891 566 909 567 928 650 920 662 883 662 832L662 610 779 610 779 653 789 653C810 653 841 638 842 631L842 405C868 427 896 447 926 463 933 435 952 418 975 414L977 404C914 381 853 342 800 292 836 274 872 255 893 240 911 246 925 239 929 231ZM606 162L678 162C703 230 737 290 779 341L773 347 495 347 482 342C534 289 575 227 606 162ZM483 376L779 376 779 461 483 461ZM483 490L779 490 779 580 483 580Z"/>
</svg>