<svg xmlns="http://www.w3.org/2000/svg" name="gid8257" data-unicode="燓"
    viewBox="0 0 1000 1000">
  <!--
© 2017-2024 Adobe (http://www.adobe.com/).
Noto is a trademark of Google Inc.
This Font Software is licensed under the SIL Open Font License, Version 1.1. This Font Software is distributed on an "AS IS" BASIS, WITHOUT WARRANTIES OR CONDITIONS OF ANY KIND, either express or implied. See the SIL Open Font License for the specific language, permissions and limitations governing your use of this Font Software.
http://scripts.sil.org/OFL
  -->
<path d="M266 571C259 638 203 691 156 708 134 720 118 739 127 761 137 785 174 785 203 770 248 747 303 682 284 571ZM785 557C749 611 678 693 613 751 556 698 529 633 516 554L516 550C538 548 547 537 549 525L444 516C440 693 432 838 41 943L51 960C423 879 491 759 509 623 542 780 628 896 899 959 905 921 929 908 966 903L967 891C804 863 698 822 630 766 710 725 792 667 841 624 863 629 872 626 879 616ZM212 45L212 184 64 184 72 213 192 213C160 319 107 420 34 500L46 515C114 461 170 398 212 327L212 556 224 556C246 556 272 542 272 533L272 292C306 319 342 362 351 398 409 437 449 318 272 275L272 213 395 213C409 213 419 208 421 197 393 171 348 135 348 135L308 184 272 184 272 83C298 79 307 70 308 56ZM542 268C530 291 514 316 496 341 471 330 440 320 402 312L393 322C416 336 443 355 468 376 431 419 386 461 340 492L350 506C405 480 457 444 500 406 516 423 529 439 537 455 545 459 553 460 559 459L526 494 538 510C612 456 671 392 715 319L715 554 727 554C751 554 778 539 778 532L778 241C808 353 855 444 912 503 922 472 941 453 966 450L968 439C901 395 832 312 793 213L934 213C948 213 957 208 960 197 930 169 882 130 882 130L839 184 778 184 778 81C804 78 812 68 815 54L715 43 715 184 586 184 594 213 693 213C668 293 630 369 579 434 580 416 569 392 540 368 557 350 572 333 584 316 607 319 615 316 621 306ZM543 65C531 88 514 113 494 138 471 126 442 116 407 107L398 117C420 130 444 149 467 169 435 204 398 237 361 262L371 277C417 257 461 229 499 199 518 219 533 238 542 256 586 278 609 220 538 165 557 148 573 130 586 113 608 117 616 113 623 103Z"/>
</svg>