<svg xmlns="http://www.w3.org/2000/svg"
    viewBox="0 0 1000 1000">
  <!--
© 2017-2023 Adobe (http://www.adobe.com/).
Noto is a trademark of Google Inc.
This Font Software is licensed under the SIL Open Font License, Version 1.1. This Font Software is distributed on an "AS IS" BASIS, WITHOUT WARRANTIES OR CONDITIONS OF ANY KIND, either express or implied. See the SIL Open Font License for the specific language, permissions and limitations governing your use of this Font Software.
http://scripts.sil.org/OFL
  -->
<path d="M332 40L322 48C359 77 403 129 417 171 480 212 525 85 332 40ZM319 265L309 273C342 298 382 344 396 380 458 416 499 296 319 265ZM580 73C557 134 503 222 446 280L458 292C529 247 593 177 630 125 652 129 661 124 666 114ZM96 228C99 310 75 386 58 410 13 463 65 504 103 458 136 416 137 328 111 228ZM444 734L444 535C470 531 485 523 492 516L409 447 372 496 284 496 290 525 386 525 386 765C344 801 301 836 272 855L319 923C327 918 330 911 327 900 357 865 404 803 433 756 481 877 545 903 681 903 761 903 854 903 928 903 930 875 943 858 966 855L966 841C880 843 768 843 681 843 557 843 498 828 444 734ZM636 55L644 84 778 84C802 152 853 221 913 269 920 242 945 223 969 217L971 206C903 177 836 131 803 86 832 84 856 77 865 66L785 12 758 55ZM879 297C857 332 810 394 770 439 750 396 721 355 682 319 704 300 725 279 742 257L847 257C861 257 870 252 872 241 845 214 802 179 802 179L763 227 548 227 556 257 669 257C623 317 557 371 482 412L493 429C557 404 616 372 666 333L685 362C639 429 560 505 483 553L491 566C574 533 657 476 715 422 721 439 727 455 731 472 669 553 570 641 473 694L481 708C578 673 675 610 744 549 751 625 737 690 713 717 706 724 698 725 687 725 664 725 593 721 557 718L558 734C590 740 625 749 635 757 647 766 652 778 653 799 708 799 742 789 761 767 809 719 827 596 786 478 838 529 897 602 915 658 978 700 1015 562 784 454 834 423 886 386 915 360 932 368 948 362 953 355ZM165 19C165 453 185 727 38 906L53 923C144 841 188 737 209 605 240 648 270 704 276 750 335 800 390 673 213 577 222 510 225 437 227 357 268 317 311 265 335 233 354 237 367 228 370 221L288 174C276 210 250 275 228 326L229 57C252 53 261 43 264 29Z"/>
</svg>