<svg xmlns="http://www.w3.org/2000/svg" name="gid8269" data-unicode="燧"
    viewBox="0 0 1000 1000">
  <!--
© 2017-2024 Adobe (http://www.adobe.com/).
Noto is a trademark of Google Inc.
This Font Software is licensed under the SIL Open Font License, Version 1.1. This Font Software is distributed on an "AS IS" BASIS, WITHOUT WARRANTIES OR CONDITIONS OF ANY KIND, either express or implied. See the SIL Open Font License for the specific language, permissions and limitations governing your use of this Font Software.
http://scripts.sil.org/OFL
  -->
<path d="M332 70L322 78C359 107 403 159 417 201 480 242 525 115 332 70ZM319 295L309 303C342 328 382 374 396 410 458 446 499 326 319 295ZM580 103C557 164 503 252 446 310L458 322C529 277 593 207 630 155 652 159 661 154 666 144ZM96 258C99 340 75 416 58 440 13 493 65 534 103 488 136 446 137 358 111 258ZM444 764L444 565C470 561 485 553 492 546L409 477 372 526 284 526 290 555 386 555 386 795C344 831 301 866 272 885L319 953C327 948 330 941 327 930 357 895 404 833 433 786 481 907 545 933 681 933 761 933 854 933 928 933 930 905 943 888 966 885L966 871C880 873 768 873 681 873 557 873 498 858 444 764ZM636 85L644 114 778 114C802 182 853 251 913 299 920 272 945 253 969 247L971 236C903 207 836 161 803 116 832 114 856 107 865 96L785 42 758 85ZM879 327C857 362 810 424 770 469 750 426 721 385 682 349 704 330 725 309 742 287L847 287C861 287 870 282 872 271 845 244 802 209 802 209L763 257 548 257 556 287 669 287C623 347 557 401 482 442L493 459C557 434 616 402 666 363L685 392C639 459 560 535 483 583L491 596C574 563 657 506 715 452 721 469 727 485 731 502 669 583 570 671 473 724L481 738C578 703 675 640 744 579 751 655 737 720 713 747 706 754 698 755 687 755 664 755 593 751 557 748L558 764C590 770 625 779 635 787 647 796 652 808 653 829 708 829 742 819 761 797 809 749 827 626 786 508 838 559 897 632 915 688 978 730 1015 592 784 484 834 453 886 416 915 390 932 398 948 392 953 385ZM165 49C165 483 185 757 38 936L53 953C144 871 188 767 209 635 240 678 270 734 276 780 335 830 390 703 213 607 222 540 225 467 227 387 268 347 311 295 335 263 354 267 367 258 370 251L288 204C276 240 250 305 228 356L229 87C252 83 261 73 264 59Z"/>
</svg>