<svg xmlns="http://www.w3.org/2000/svg" name="gid8272" data-unicode="燮"
    viewBox="0 0 1000 1000">
  <!--
© 2017-2024 Adobe (http://www.adobe.com/).
Noto is a trademark of Google Inc.
This Font Software is licensed under the SIL Open Font License, Version 1.1. This Font Software is distributed on an "AS IS" BASIS, WITHOUT WARRANTIES OR CONDITIONS OF ANY KIND, either express or implied. See the SIL Open Font License for the specific language, permissions and limitations governing your use of this Font Software.
http://scripts.sil.org/OFL
  -->
<path d="M367 91L374 120 604 120C618 120 627 115 628 104 601 79 557 48 557 48L520 91ZM370 255L378 285 600 285C613 285 622 280 625 269 600 246 562 218 562 218L530 255ZM370 339L378 369 600 369C613 369 622 364 625 353 600 330 562 302 562 302L530 339ZM119 175C122 225 96 278 67 297 50 308 41 326 49 342 60 360 90 353 107 338 135 315 159 257 138 175ZM687 161C692 211 670 266 642 287 627 300 617 318 626 334 637 351 667 345 684 328 709 304 729 244 705 161ZM701 671C653 723 588 768 513 806 424 773 350 729 296 671ZM87 642L96 671 268 671C315 739 377 792 452 834 334 884 194 919 46 942L51 960C222 945 377 913 509 861 620 911 754 940 903 957 910 924 930 902 960 896L961 885C826 878 696 860 584 828 664 789 733 740 788 681 815 681 827 678 835 670L763 600 714 642ZM300 160C288 188 265 237 242 277L242 266 242 78C265 75 273 65 275 52L182 42 182 265C182 392 161 522 51 614L65 627C151 575 196 505 220 431 251 468 280 515 289 554 347 597 395 481 227 405 234 375 238 344 240 314 278 282 318 243 342 216 361 221 374 212 377 205L370 201 634 201C648 201 658 196 660 185 631 161 588 130 588 130L552 173 352 173 358 194ZM549 451L549 536 438 536 438 451ZM380 422L380 609 389 609C418 609 438 594 438 589L438 566 549 566 549 597 558 597C576 597 605 583 606 577L606 456C621 454 634 447 638 441L571 390 541 422 449 422 380 391ZM892 152C877 185 843 244 812 288L813 260 813 78C836 75 844 65 846 52L753 42 753 259C753 383 729 510 611 599L623 612C705 566 753 507 780 443 828 486 880 551 897 601 962 645 1005 509 788 424 800 389 807 353 810 317 857 286 908 243 936 215 955 221 968 213 972 206Z"/>
</svg>