<svg xmlns="http://www.w3.org/2000/svg"
    viewBox="0 0 1000 1000">
  <!--
© 2017-2023 Adobe (http://www.adobe.com/).
Noto is a trademark of Google Inc.
This Font Software is licensed under the SIL Open Font License, Version 1.1. This Font Software is distributed on an "AS IS" BASIS, WITHOUT WARRANTIES OR CONDITIONS OF ANY KIND, either express or implied. See the SIL Open Font License for the specific language, permissions and limitations governing your use of this Font Software.
http://scripts.sil.org/OFL
  -->
<path d="M97 226C100 309 76 385 59 409 14 461 65 501 103 455 136 414 137 327 112 225ZM539 548L525 554C537 573 549 604 552 627 581 655 619 603 539 548ZM346 61L346 214 285 176C273 210 250 273 229 323L230 60C252 56 262 46 265 31L166 20C166 457 186 732 38 911L52 928C142 848 186 746 208 618 241 661 274 717 280 763 339 813 393 685 212 590 222 521 226 444 228 358 267 319 309 269 332 238 337 239 342 240 346 239L346 927 357 927C385 927 405 911 405 902L405 311 527 311 527 363 536 363C555 363 584 350 585 344L585 100C604 96 620 89 627 82L551 24 517 61 410 61 346 28ZM664 61L664 359 599 352 599 426 423 426 431 456 599 456 599 505 516 505 468 482 468 719 474 719C492 719 511 708 511 704L511 679 570 679C534 741 480 799 416 844L427 861C495 826 554 781 599 728L599 911 607 911C634 911 651 897 651 892L651 727C690 751 732 787 750 817 805 843 826 737 651 705L651 679 746 679 746 710 752 710C766 710 787 698 788 691L788 539C803 536 817 529 822 523L764 478 738 505 651 505 651 456 812 456C824 456 834 451 836 440 812 417 773 388 773 388L741 426 651 426 651 385C671 382 680 375 681 362 703 360 722 348 722 344L722 311 855 311 855 831C855 845 850 852 834 852 817 852 737 845 737 845L737 861C773 866 794 873 807 883 818 892 822 909 824 928 906 919 916 888 916 838L916 103C937 99 953 91 960 83L878 19 845 61 727 61 664 31ZM527 197L527 282 405 282 405 197ZM527 167L405 167 405 89 527 89ZM855 197L855 282 722 282 722 197ZM855 167L722 167 722 89 855 89ZM603 650L511 650 511 535 603 535ZM695 546C691 567 677 610 668 635L681 642C697 622 710 604 720 589 733 591 743 586 746 581L746 650 648 650 648 535 746 535 746 572Z"/>
</svg>