<svg xmlns="http://www.w3.org/2000/svg"
    viewBox="0 0 1000 1000">
  <!--
© 2017-2023 Adobe (http://www.adobe.com/).
Noto is a trademark of Google Inc.
This Font Software is licensed under the SIL Open Font License, Version 1.1. This Font Software is distributed on an "AS IS" BASIS, WITHOUT WARRANTIES OR CONDITIONS OF ANY KIND, either express or implied. See the SIL Open Font License for the specific language, permissions and limitations governing your use of this Font Software.
http://scripts.sil.org/OFL
  -->
<path d="M368 28L268 17 268 268 168 268C178 230 187 190 194 151 217 149 227 140 230 127L133 110C121 251 92 398 51 501L68 509C105 452 136 378 160 298L268 298 268 516C178 543 103 564 62 573L107 659C116 655 124 646 127 633L268 571 268 926 281 926C305 926 332 910 332 900L332 542 504 461 500 445 332 496 332 298 485 298C499 298 509 293 512 282 481 250 430 207 430 207L384 268 332 268 332 56C357 52 365 42 368 28ZM652 28L551 16 551 812C551 870 576 891 658 891L763 891C922 891 960 886 960 854 960 842 954 836 929 827L927 656 914 656C900 729 886 802 878 821 873 830 868 834 857 835 842 837 810 838 764 838L668 838C624 838 616 828 616 801L616 429C721 375 830 300 894 244 915 251 925 247 932 237L844 179C795 243 704 331 616 399L616 56C642 52 651 41 652 28Z"/>
</svg>