<svg xmlns="http://www.w3.org/2000/svg"
    viewBox="0 0 1000 1000">
  <!--
© 2017-2023 Adobe (http://www.adobe.com/).
Noto is a trademark of Google Inc.
This Font Software is licensed under the SIL Open Font License, Version 1.1. This Font Software is distributed on an "AS IS" BASIS, WITHOUT WARRANTIES OR CONDITIONS OF ANY KIND, either express or implied. See the SIL Open Font License for the specific language, permissions and limitations governing your use of this Font Software.
http://scripts.sil.org/OFL
  -->
<path d="M487 74C468 237 424 400 366 510L381 520C431 460 471 383 503 295L632 295 632 531 435 531 442 559 632 559 632 855 358 855 366 883 940 883C954 883 964 879 965 868 934 836 879 791 879 791L831 855 698 855 698 559 898 559C911 559 921 554 924 544 892 512 838 469 838 469L792 531 698 531 698 295 922 295C936 295 946 290 949 280 916 248 862 205 862 205L815 266 698 266 698 52C720 49 728 40 730 25L632 16 632 266 513 266C529 219 542 170 553 119 574 118 585 109 589 96ZM36 546L76 629C85 625 93 615 96 604L212 541 212 928 225 928C248 928 275 911 275 901L275 505 397 433 391 418 275 463 275 277 408 277C422 277 432 272 434 261 404 230 353 187 353 187L308 248 275 248 275 50C301 46 309 36 311 22L212 11 212 248 129 248C139 205 148 160 155 116 176 115 186 104 189 92L94 74C89 198 70 333 42 429L59 437C84 393 105 337 121 277L212 277 212 487C137 515 73 536 36 546Z"/>
</svg>