<svg xmlns="http://www.w3.org/2000/svg"
    viewBox="0 0 1000 1000">
  <!--
© 2017-2023 Adobe (http://www.adobe.com/).
Noto is a trademark of Google Inc.
This Font Software is licensed under the SIL Open Font License, Version 1.1. This Font Software is distributed on an "AS IS" BASIS, WITHOUT WARRANTIES OR CONDITIONS OF ANY KIND, either express or implied. See the SIL Open Font License for the specific language, permissions and limitations governing your use of this Font Software.
http://scripts.sil.org/OFL
  -->
<path d="M437 236L446 265 557 265C545 331 532 397 521 449L376 449 384 478 947 478C961 478 970 473 972 462 945 432 898 391 898 391L857 449 826 449 826 275C844 272 859 264 865 257L790 199 753 236 625 236 648 105 916 105C930 105 940 100 942 90 911 60 861 19 861 19L817 76 400 76 408 105 584 105 562 236ZM762 449L583 449C594 397 608 331 620 265L762 265ZM449 577L449 926 459 926C485 926 513 911 513 904L513 858 816 858 816 922 826 922C848 922 880 906 881 900L881 618C901 615 916 607 922 599L843 538 807 577 517 577 449 546ZM513 828L513 607 816 607 816 828ZM41 541L84 621C93 617 100 607 103 596L210 537 210 928 223 928C246 928 273 911 273 901L273 501 413 419 408 405 273 458 273 267 401 267C415 267 425 262 427 251 397 220 347 178 347 178L303 237 273 237 273 50C299 46 306 36 309 22L210 11 210 237 128 237C138 197 147 156 154 115 176 113 184 103 187 90L92 75C86 193 67 320 39 413L56 420C82 378 103 325 120 267L210 267 210 482C136 510 75 532 41 541Z"/>
</svg>