<svg xmlns="http://www.w3.org/2000/svg"
    viewBox="0 0 1000 1000">
  <!--
© 2017-2024 Adobe (http://www.adobe.com/).
Noto is a trademark of Google Inc.
This Font Software is licensed under the SIL Open Font License, Version 1.1. This Font Software is distributed on an "AS IS" BASIS, WITHOUT WARRANTIES OR CONDITIONS OF ANY KIND, either express or implied. See the SIL Open Font License for the specific language, permissions and limitations governing your use of this Font Software.
http://scripts.sil.org/OFL
  -->
<path d="M640 12L640 198 509 198C523 164 535 128 545 91 568 90 578 82 581 69L480 46C470 120 454 195 434 261 403 230 353 188 353 188L307 249 275 249 275 50C301 46 309 36 311 22L212 11 212 249 129 249C139 208 147 165 153 124 175 122 184 112 187 99L91 84C87 206 70 341 44 437L62 445C86 398 106 340 122 278L212 278 212 511C135 528 72 540 35 545L74 632C84 629 93 622 97 609L212 566 212 928 225 928C248 928 275 911 275 901L275 542 436 477 432 463 275 498 275 278 409 278C420 278 429 275 432 266 421 302 408 335 395 363L410 372C444 333 473 283 498 226L640 226 640 398 382 398 390 427 640 427 640 544 652 544C677 544 705 531 705 523L705 427 938 427C952 427 962 422 964 411 934 381 884 340 884 340L840 398 705 398 705 226 916 226C930 226 941 221 943 211 911 181 860 140 860 140L815 198 705 198 705 50C729 47 738 36 741 22ZM454 582L454 929 464 929C496 929 517 913 517 907L517 872 825 872 825 921 835 921C856 921 889 906 890 900L890 623C910 619 926 612 933 604L852 542 815 582 529 582 454 549ZM517 842L517 611 825 611 825 842Z"/>
</svg>