<svg xmlns="http://www.w3.org/2000/svg" name="gid8371" data-unicode="犎"
    viewBox="0 0 1000 1000">
  <!--
© 2017-2024 Adobe (http://www.adobe.com/).
Noto is a trademark of Google Inc.
This Font Software is licensed under the SIL Open Font License, Version 1.1. This Font Software is distributed on an "AS IS" BASIS, WITHOUT WARRANTIES OR CONDITIONS OF ANY KIND, either express or implied. See the SIL Open Font License for the specific language, permissions and limitations governing your use of this Font Software.
http://scripts.sil.org/OFL
  -->
<path d="M573 230L561 237C593 271 628 329 634 375 692 422 748 298 573 230ZM252 499C215 584 161 667 114 716L127 728C166 705 206 672 243 634L466 634 466 751 42 751 51 780 466 780 466 958 479 958C503 958 532 944 532 935L532 780 930 780C944 780 953 776 956 765 923 733 869 692 869 692L822 751 532 751 532 634 817 634C831 634 840 629 842 618 810 588 759 546 759 546L711 605 532 605 532 528C557 525 567 514 569 501L466 490 466 605 270 605C283 590 295 575 307 559 327 563 340 555 345 545ZM242 45L242 125 92 125 100 154 242 154 242 226 53 226 61 255 494 255C508 255 517 250 520 239 491 211 444 175 444 175L403 226 308 226 308 154 459 154C473 154 482 149 484 138 457 112 411 75 411 75L371 125 308 125 308 80C329 77 339 68 341 54ZM50 468L88 546C98 543 107 536 111 524 297 488 432 457 527 434L525 416 306 442 306 371 476 371C490 371 500 366 502 355 473 327 427 291 427 291L386 342 306 342 306 293C329 289 338 281 340 267L242 258 242 342 75 342 83 371 242 371 242 449C160 459 92 466 50 468ZM764 46L764 175 509 175 517 204 764 204 764 433C764 446 759 452 743 452 724 452 630 445 630 445L630 460C671 466 694 474 708 484 722 494 726 510 729 529 817 520 828 489 828 436L828 204 939 204C953 204 962 199 965 188 935 160 888 119 888 119L846 175 828 175 828 82C850 78 860 70 863 56Z"/>
</svg>