<svg xmlns="http://www.w3.org/2000/svg"
    viewBox="0 0 1000 1000">
  <!--
© 2017-2023 Adobe (http://www.adobe.com/).
Noto is a trademark of Google Inc.
This Font Software is licensed under the SIL Open Font License, Version 1.1. This Font Software is distributed on an "AS IS" BASIS, WITHOUT WARRANTIES OR CONDITIONS OF ANY KIND, either express or implied. See the SIL Open Font License for the specific language, permissions and limitations governing your use of this Font Software.
http://scripts.sil.org/OFL
  -->
<path d="M178 75C176 116 144 155 114 169 97 180 86 197 94 214 103 232 134 229 154 217 182 198 211 150 197 75ZM571 73C570 114 542 157 513 173 496 184 485 202 494 218 503 237 534 234 552 220 580 200 607 149 589 73ZM422 75C393 122 361 167 335 196L349 209C382 190 423 161 458 131 477 137 491 130 497 122ZM846 72C816 122 780 169 754 199L767 212C803 192 847 161 885 129 903 136 918 129 924 121ZM270 442C240 532 192 617 146 667L160 679C197 654 234 621 266 581L468 581 468 703 50 703 59 732 468 732 468 927 480 927C504 927 533 913 533 905L533 732 938 732C952 732 961 727 963 716 931 686 878 644 878 644L830 703 533 703 533 581 834 581C847 581 857 576 859 565 827 537 778 501 778 501L735 552 533 552 533 474C558 471 568 461 570 447L468 436 468 552 289 552C301 534 313 515 324 495 344 497 357 490 362 479ZM170 326C169 387 128 441 89 461 68 473 54 493 63 515 75 538 111 537 135 520 164 501 192 460 194 400L840 400C829 428 815 461 805 483L817 490C851 472 895 438 920 413 940 411 951 410 958 403L881 328 838 371 194 371C193 357 190 342 186 326ZM267 12C265 154 265 265 69 343L81 358C195 323 255 279 287 228 331 254 379 296 396 333 462 365 489 239 297 210 321 160 324 104 328 45 348 42 356 32 358 21ZM672 12C670 151 669 260 472 338L484 354C596 320 657 277 690 227 740 256 797 304 819 345 888 376 910 240 700 210 727 160 731 104 734 45 755 42 764 32 765 21Z"/>
</svg>