<svg xmlns="http://www.w3.org/2000/svg" name="gid8374" data-unicode="犖"
    viewBox="0 0 1000 1000">
  <!--
© 2017-2024 Adobe (http://www.adobe.com/).
Noto is a trademark of Google Inc.
This Font Software is licensed under the SIL Open Font License, Version 1.1. This Font Software is distributed on an "AS IS" BASIS, WITHOUT WARRANTIES OR CONDITIONS OF ANY KIND, either express or implied. See the SIL Open Font License for the specific language, permissions and limitations governing your use of this Font Software.
http://scripts.sil.org/OFL
  -->
<path d="M178 105C176 146 144 185 114 199 97 210 86 227 94 244 103 262 134 259 154 247 182 228 211 180 197 105ZM571 103C570 144 542 187 513 203 496 214 485 232 494 248 503 267 534 264 552 250 580 230 607 179 589 103ZM422 105C393 152 361 197 335 226L349 239C382 220 423 191 458 161 477 167 491 160 497 152ZM846 102C816 152 780 199 754 229L767 242C803 222 847 191 885 159 903 166 918 159 924 151ZM270 472C240 562 192 647 146 697L160 709C197 684 234 651 266 611L468 611 468 733 50 733 59 762 468 762 468 957 480 957C504 957 533 943 533 935L533 762 938 762C952 762 961 757 963 746 931 716 878 674 878 674L830 733 533 733 533 611 834 611C847 611 857 606 859 595 827 567 778 531 778 531L735 582 533 582 533 504C558 501 568 491 570 477L468 466 468 582 289 582C301 564 313 545 324 525 344 527 357 520 362 509ZM170 356C169 417 128 471 89 491 68 503 54 523 63 545 75 568 111 567 135 550 164 531 192 490 194 430L840 430C829 458 815 491 805 513L817 520C851 502 895 468 920 443 940 441 951 440 958 433L881 358 838 401 194 401C193 387 190 372 186 356ZM267 42C265 184 265 295 69 373L81 388C195 353 255 309 287 258 331 284 379 326 396 363 462 395 489 269 297 240 321 190 324 134 328 75 348 72 356 62 358 51ZM672 42C670 181 669 290 472 368L484 384C596 350 657 307 690 257 740 286 797 334 819 375 888 406 910 270 700 240 727 190 731 134 734 75 755 72 764 62 765 51Z"/>
</svg>