<svg xmlns="http://www.w3.org/2000/svg" name="gid8377" data-unicode="犢"
    viewBox="0 0 1000 1000">
  <!--
© 2017-2024 Adobe (http://www.adobe.com/).
Noto is a trademark of Google Inc.
This Font Software is licensed under the SIL Open Font License, Version 1.1. This Font Software is distributed on an "AS IS" BASIS, WITHOUT WARRANTIES OR CONDITIONS OF ANY KIND, either express or implied. See the SIL Open Font License for the specific language, permissions and limitations governing your use of this Font Software.
http://scripts.sil.org/OFL
  -->
<path d="M565 803C516 853 416 911 327 942L336 956C438 940 548 900 608 859 629 866 637 862 644 853ZM690 812L685 828C778 862 844 906 880 945 942 997 1046 864 690 812ZM615 43L615 117 361 117 369 146 615 146 615 203 398 203 406 232 904 232C918 232 928 227 930 216 900 187 852 150 852 150L810 203 678 203 678 146 930 146C944 146 954 141 956 130 924 102 873 61 873 61L828 117 678 117 678 79C702 76 711 66 713 53ZM429 510L429 835 438 835C470 835 491 819 491 814L491 786 814 786 814 822 823 822C845 822 877 806 878 799L878 547C894 544 908 536 913 530L839 473 806 510 495 510 438 486C446 481 451 476 451 474L451 456 856 456 856 486 866 486C886 486 917 472 918 465L918 316C934 313 948 307 954 300L881 245 847 280 461 280 390 249 390 495 400 495C411 495 421 493 429 490ZM856 427L451 427 451 309 559 309C552 340 530 368 457 394L472 409C573 385 604 350 616 309L676 309 676 344C676 375 684 386 729 386L781 386C816 386 840 385 856 382ZM856 309L856 343 852 343C847 345 840 346 836 346 834 346 830 346 826 347 820 347 803 347 785 347L741 347C724 347 722 344 722 335L722 309ZM814 621L814 673 491 673 491 621ZM814 591L491 591 491 539 814 539ZM814 703L814 757 491 757 491 703ZM93 108C86 224 65 350 36 438L53 446C78 405 99 353 116 298L191 298 191 519C123 543 67 562 36 571L80 657C89 653 97 643 99 631L191 579 191 960 203 960C227 960 254 944 254 934L254 542 375 467 370 453 254 496 254 298 358 298C371 298 381 293 383 282 357 251 311 206 311 206L270 269 254 269 254 81C279 78 287 67 290 53L191 43 191 269 125 269C136 230 145 189 153 149 174 148 183 138 187 125Z"/>
</svg>