<svg xmlns="http://www.w3.org/2000/svg" name="gid8393" data-unicode="狂"
    viewBox="0 0 1000 1000">
  <!--
© 2017-2024 Adobe (http://www.adobe.com/).
Noto is a trademark of Google Inc.
This Font Software is licensed under the SIL Open Font License, Version 1.1. This Font Software is distributed on an "AS IS" BASIS, WITHOUT WARRANTIES OR CONDITIONS OF ANY KIND, either express or implied. See the SIL Open Font License for the specific language, permissions and limitations governing your use of this Font Software.
http://scripts.sil.org/OFL
  -->
<path d="M322 896L330 925 945 925C959 925 969 920 971 909 938 878 884 835 884 835L835 896 678 896 678 509 902 509C917 509 927 504 929 493 897 462 844 421 844 421L798 479 678 479 678 156 920 156C933 156 944 151 947 140 913 110 859 67 859 67L812 126 381 126 389 156 611 156 611 479 391 479 399 509 611 509 611 896ZM305 45C284 90 255 141 218 192 183 149 138 110 81 74L66 88C121 133 162 179 192 227 145 288 90 346 33 390L42 402C106 367 165 321 217 273 231 302 243 333 251 364 208 478 122 603 27 683L37 695C135 639 222 553 271 478 274 513 275 549 275 586 275 698 262 817 231 860 223 871 214 874 197 874 152 874 68 867 68 867L68 885C105 891 134 901 150 911 163 920 169 935 169 958 219 958 256 947 276 919 328 851 340 714 339 585 337 458 319 341 252 238 297 191 335 144 362 101 385 105 393 101 400 90Z"/>
</svg>