<svg xmlns="http://www.w3.org/2000/svg" name="gid8408" data-unicode="狛"
    viewBox="0 0 1000 1000">
  <!--
© 2017-2024 Adobe (http://www.adobe.com/).
Noto is a trademark of Google Inc.
This Font Software is licensed under the SIL Open Font License, Version 1.1. This Font Software is distributed on an "AS IS" BASIS, WITHOUT WARRANTIES OR CONDITIONS OF ANY KIND, either express or implied. See the SIL Open Font License for the specific language, permissions and limitations governing your use of this Font Software.
http://scripts.sil.org/OFL
  -->
<path d="M492 552L842 552 842 840 492 840ZM492 522L492 242 842 242 842 522ZM620 43C610 94 595 166 583 213L497 213 427 179 427 957 438 957C468 957 492 941 492 932L492 869 842 869 842 941 852 941C876 941 907 924 908 916L908 254C928 251 945 243 951 235L870 171 832 213 617 213C642 175 673 125 694 89 715 88 728 81 731 66ZM305 45C284 91 254 143 216 194 182 151 138 111 81 74L66 88C120 134 160 181 189 231 143 290 89 346 33 390L42 402C104 368 162 324 213 277 228 309 238 342 247 375 202 487 119 605 26 684L36 696C129 641 214 561 264 488 266 520 267 553 267 586 267 698 255 819 224 860 216 871 208 875 191 875 148 875 67 867 67 867L67 885C103 891 131 901 146 911 159 920 164 935 164 958 215 958 250 947 271 919 321 852 333 714 331 585 330 459 312 343 249 241 296 194 334 145 362 101 385 105 393 101 400 90Z"/>
</svg>