<svg xmlns="http://www.w3.org/2000/svg" name="gid8431" data-unicode="猊"
    viewBox="0 0 1000 1000">
  <!--
© 2017-2024 Adobe (http://www.adobe.com/).
Noto is a trademark of Google Inc.
This Font Software is licensed under the SIL Open Font License, Version 1.1. This Font Software is distributed on an "AS IS" BASIS, WITHOUT WARRANTIES OR CONDITIONS OF ANY KIND, either express or implied. See the SIL Open Font License for the specific language, permissions and limitations governing your use of this Font Software.
http://scripts.sil.org/OFL
  -->
<path d="M83 76L67 89C121 136 160 185 188 236 144 296 93 354 40 399L51 411C109 375 163 330 212 283 228 320 239 359 247 398 198 508 115 621 24 698L35 709C126 656 208 579 260 507 261 533 262 560 262 588 262 699 250 821 221 862 213 872 205 876 188 876 147 876 70 869 70 869L70 886C104 893 131 903 146 912 157 921 164 936 164 959 212 959 247 948 267 920 315 854 327 716 326 587 324 462 307 347 248 245 293 196 331 146 359 102 383 106 392 101 398 91L305 44C284 90 253 144 216 198 182 154 139 113 83 76ZM581 279L544 327 471 327 471 167C527 148 600 120 643 101 662 107 671 104 676 96L604 43C574 68 528 104 486 134L409 115 409 599 418 599C454 599 470 584 471 578L471 538 539 538C534 687 514 829 298 942L311 958C565 853 597 703 607 538L682 538 682 874C682 918 693 934 755 934L822 934C931 934 957 922 957 895 957 883 953 875 933 868L930 724 918 724C907 783 896 847 889 864 886 872 883 874 875 875 866 876 848 876 823 876L770 876C747 876 744 872 744 860L744 538 821 538 821 586 831 586C853 586 883 570 884 563L884 168C904 164 921 157 927 149L848 87 811 127 667 127 676 157 821 157 821 327 679 327 688 356 821 356 821 509 471 509 471 356 624 356C638 356 647 351 649 340 623 313 581 279 581 279Z"/>
</svg>