<svg xmlns="http://www.w3.org/2000/svg" name="gid8452" data-unicode="猫"
    viewBox="0 0 1000 1000">
  <!--
© 2017-2024 Adobe (http://www.adobe.com/).
Noto is a trademark of Google Inc.
This Font Software is licensed under the SIL Open Font License, Version 1.1. This Font Software is distributed on an "AS IS" BASIS, WITHOUT WARRANTIES OR CONDITIONS OF ANY KIND, either express or implied. See the SIL Open Font License for the specific language, permissions and limitations governing your use of this Font Software.
http://scripts.sil.org/OFL
  -->
<path d="M289 46C269 89 238 139 202 188 169 146 127 106 74 70L59 84C109 129 146 176 174 225 131 279 81 331 31 372L41 384C97 352 149 312 196 270 210 302 221 335 229 368 190 478 115 599 31 680L42 692C126 637 202 558 246 488 248 520 249 552 249 585 249 696 237 820 208 860 200 872 192 875 176 875 137 875 61 867 61 867L61 885C95 891 120 900 134 910 147 919 153 934 153 958 201 958 236 947 255 919 304 853 315 713 314 584 312 456 295 338 233 235 278 190 316 144 344 104 366 108 376 104 382 94ZM611 655L611 854 456 854 456 655ZM674 655L832 655 832 854 674 854ZM611 627L456 627 456 442 611 442ZM674 627L674 442 832 442 832 627ZM393 412L393 954 404 954C432 954 456 938 456 931L456 884 832 884 832 947 842 947C864 947 896 931 897 925L897 454C917 449 933 442 940 434L859 371 822 412 462 412 393 380ZM310 204L318 234 502 234 502 366 514 366C539 366 566 352 566 345L566 234 722 234 722 361 734 361C759 361 786 348 786 340L786 234 949 234C963 234 971 229 974 218 946 188 898 149 898 149L857 204 786 204 786 89C812 85 821 76 824 61L722 51 722 204 566 204 566 89C591 85 601 76 603 61L502 51 502 204Z"/>
</svg>