<svg xmlns="http://www.w3.org/2000/svg"
    viewBox="0 0 1000 1000">
  <!--
© 2017-2024 Adobe (http://www.adobe.com/).
Noto is a trademark of Google Inc.
This Font Software is licensed under the SIL Open Font License, Version 1.1. This Font Software is distributed on an "AS IS" BASIS, WITHOUT WARRANTIES OR CONDITIONS OF ANY KIND, either express or implied. See the SIL Open Font License for the specific language, permissions and limitations governing your use of this Font Software.
http://scripts.sil.org/OFL
  -->
<path d="M198 339L184 344C204 378 223 433 222 475 265 521 323 423 198 339ZM798 68L787 76C823 109 862 168 868 215 929 264 985 134 798 68ZM684 17C684 120 685 218 682 311L552 311 480 257 449 294 324 294 324 185 535 185C549 185 558 180 561 169 528 139 476 98 476 98L429 156 324 156 324 50C348 46 359 36 361 22L260 12 260 156 46 156 54 185 260 185 260 294 154 294 82 264 82 922 91 922C121 922 142 907 142 901L142 324 458 324 458 816C458 829 455 834 443 834 429 834 378 829 378 829L378 845C405 849 419 855 428 864 436 872 438 887 440 903 510 896 518 870 518 822L518 333C531 331 541 327 547 322L552 340 681 340C672 567 636 761 494 911L508 928C676 788 726 603 742 389 760 622 805 805 910 928 924 902 946 887 971 887L975 879C848 769 780 574 759 340L936 340C950 340 960 335 962 324 931 294 880 254 880 254L835 311 746 311C749 229 749 144 750 56 774 52 783 41 785 28ZM339 336C329 384 311 451 296 499L163 499 171 529 263 529 263 645 159 645 167 674 263 674 263 873 272 873C301 873 320 861 320 857L320 674 419 674C433 674 440 669 443 658 422 634 386 604 386 604L356 645 320 645 320 529 421 529C434 529 443 524 445 513 424 489 389 460 389 460L359 499 320 499C346 460 371 413 387 377 408 377 420 368 424 356Z"/>
</svg>