<svg xmlns="http://www.w3.org/2000/svg" name="gid8455" data-unicode="猯"
    viewBox="0 0 1000 1000">
  <!--
© 2017-2024 Adobe (http://www.adobe.com/).
Noto is a trademark of Google Inc.
This Font Software is licensed under the SIL Open Font License, Version 1.1. This Font Software is distributed on an "AS IS" BASIS, WITHOUT WARRANTIES OR CONDITIONS OF ANY KIND, either express or implied. See the SIL Open Font License for the specific language, permissions and limitations governing your use of this Font Software.
http://scripts.sil.org/OFL
  -->
<path d="M595 49L595 273 439 273 439 125C464 121 473 113 476 98L376 88 376 365 388 365C412 365 439 351 439 344L439 303 820 303 820 349 832 349C856 349 883 337 883 330L883 124C908 120 917 111 920 96L820 86 820 273 658 273 658 84C680 80 690 71 691 58ZM361 551L361 954 371 954C402 954 422 937 422 932L422 579 523 579 523 935 531 935C561 935 579 922 579 918L579 579 679 579 679 935 688 935C717 935 736 922 736 918L736 579 843 579 843 854C843 866 840 871 828 871 815 871 763 867 763 867L763 883C789 887 804 894 813 903 821 914 824 931 825 950 897 943 905 912 905 862L905 589C922 585 937 577 943 571L865 513 834 551 582 551C604 519 632 476 655 437L942 437C956 437 964 432 967 421 936 392 885 353 885 353L839 407 317 407 325 437 580 437 550 551 435 551 361 518ZM253 40C236 83 211 133 180 184 152 147 117 112 74 80L59 92C101 134 133 177 157 222 121 277 80 330 37 373L49 384C96 351 140 312 179 270 192 302 202 335 209 369 182 480 113 606 32 692L43 703C120 648 187 573 226 505 227 532 228 560 228 588 228 699 219 824 191 862 184 873 177 876 162 876 127 876 57 869 57 869L57 887C88 893 111 901 124 910 135 919 140 934 140 956 186 956 219 945 238 919 283 854 293 716 291 587 290 455 273 336 212 232 252 185 286 137 310 96 334 100 342 96 348 85Z"/>
</svg>