<svg xmlns="http://www.w3.org/2000/svg"
    viewBox="0 0 1000 1000">
  <!--
© 2017-2023 Adobe (http://www.adobe.com/).
Noto is a trademark of Google Inc.
This Font Software is licensed under the SIL Open Font License, Version 1.1. This Font Software is distributed on an "AS IS" BASIS, WITHOUT WARRANTIES OR CONDITIONS OF ANY KIND, either express or implied. See the SIL Open Font License for the specific language, permissions and limitations governing your use of this Font Software.
http://scripts.sil.org/OFL
  -->
<path d="M338 80L346 108 586 108C600 108 609 103 612 92 582 65 536 26 536 26L493 80ZM295 206L303 234 622 234C635 234 645 229 647 219 618 190 569 151 569 151L528 206ZM330 332L338 361 578 361C592 361 601 356 604 346 576 318 531 282 531 282L491 332ZM331 460L339 489 579 489C593 489 602 484 605 473 577 446 532 410 532 410L492 460ZM829 72L818 81C852 108 885 160 886 204 943 249 997 124 829 72ZM395 610L520 610 520 791 395 791ZM337 581L337 887 346 887C375 887 395 872 395 867L395 820 520 820 520 856 529 856C550 856 579 840 580 833L580 621C599 617 616 610 622 602L545 543 510 581 408 581 337 550ZM718 15C718 118 719 213 718 302L598 302 606 331 717 331C712 577 683 769 545 911L560 928C723 795 765 613 777 382 787 607 817 818 914 931 922 893 941 878 973 873L975 861C844 745 807 561 794 331L938 331C952 331 962 326 964 315 935 286 887 248 887 248L845 302 780 302C782 224 782 140 783 52 806 49 815 39 818 25ZM251 11C234 56 208 108 176 160 150 121 117 84 75 50L59 62C99 106 129 152 151 200 117 252 78 303 37 344L49 355C93 324 134 287 171 247 184 283 193 320 199 357 169 462 105 578 33 658L44 669C113 617 174 547 212 482L214 560C214 671 204 799 179 837 171 847 164 850 150 850 118 850 53 844 53 844L53 861C81 866 103 875 116 883 126 892 131 906 131 928 176 928 207 917 224 891 266 829 275 688 273 559 272 428 258 311 205 208 246 159 281 108 306 65 330 69 339 64 344 53Z"/>
</svg>