<svg xmlns="http://www.w3.org/2000/svg" name="gid8495" data-unicode="獱"
    viewBox="0 0 1000 1000">
  <!--
© 2017-2024 Adobe (http://www.adobe.com/).
Noto is a trademark of Google Inc.
This Font Software is licensed under the SIL Open Font License, Version 1.1. This Font Software is distributed on an "AS IS" BASIS, WITHOUT WARRANTIES OR CONDITIONS OF ANY KIND, either express or implied. See the SIL Open Font License for the specific language, permissions and limitations governing your use of this Font Software.
http://scripts.sil.org/OFL
  -->
<path d="M484 297C456 340 399 400 345 436L356 448C422 425 489 383 526 348 548 352 555 349 562 339ZM539 803C488 851 384 911 295 944L304 958C407 941 520 900 582 861 603 867 611 864 619 855ZM699 812L693 827C783 862 844 906 876 945 938 1002 1047 858 699 812ZM424 472L424 494C391 504 357 513 324 520L331 537C362 532 393 526 424 519L424 821 434 821C459 821 486 806 486 799L486 789 820 789 820 814 830 814C852 814 884 799 885 792L885 513C902 509 918 501 924 494L846 434 812 472 594 472C702 435 797 391 865 347 889 354 905 351 910 342L834 293C794 327 737 363 669 397L669 280 801 280C815 280 824 275 827 264 799 238 754 202 754 202L714 251 446 251 454 280 607 280 607 426C570 443 531 458 491 472L424 442ZM419 108C417 165 382 199 359 209 302 238 336 295 388 271 419 257 438 226 442 183L860 183C852 209 842 240 834 260L848 268C876 249 913 217 933 193 952 192 964 190 970 184L896 112 857 153 669 153 669 78C692 74 700 65 702 52L605 43 605 153 442 153C441 139 438 123 434 107ZM486 595L820 595 820 662 486 662ZM486 567L486 504 495 502 820 502 820 567ZM486 691L820 691 820 760 486 760ZM289 46C269 89 238 138 202 188 169 146 127 106 74 70L59 84C109 129 147 176 174 224 131 279 81 331 31 372L41 384C97 352 150 312 197 269 211 301 222 334 230 368 191 478 116 599 31 681L42 692C127 637 203 557 247 487 249 519 250 552 250 585 250 696 239 820 210 860 202 872 194 875 177 875 138 875 61 867 61 867L61 885C96 891 121 901 135 911 148 919 154 934 154 958 202 958 237 946 257 919 306 852 317 713 315 584 314 456 296 337 234 234 279 190 316 144 344 104 366 108 376 104 382 94Z"/>
</svg>