<svg xmlns="http://www.w3.org/2000/svg" name="gid8501" data-unicode="獺"
    viewBox="0 0 1000 1000">
  <!--
© 2017-2024 Adobe (http://www.adobe.com/).
Noto is a trademark of Google Inc.
This Font Software is licensed under the SIL Open Font License, Version 1.1. This Font Software is distributed on an "AS IS" BASIS, WITHOUT WARRANTIES OR CONDITIONS OF ANY KIND, either express or implied. See the SIL Open Font License for the specific language, permissions and limitations governing your use of this Font Software.
http://scripts.sil.org/OFL
  -->
<path d="M807 778L796 786C836 827 890 894 907 943 969 986 1014 857 807 778ZM716 772C685 828 616 902 550 945L561 959C639 926 718 870 761 824 782 829 790 825 797 816ZM417 49L417 185 281 185 289 214 417 214 417 305 364 305 305 278 305 590 313 590C336 590 359 578 359 573L359 540 401 540C369 654 318 766 247 853L261 868C325 809 378 739 417 661L417 954 426 954C457 954 477 939 477 934L477 614C514 651 553 704 564 746 621 788 666 668 477 594L477 540 535 540 535 579 543 579C561 579 588 566 589 560L589 341C605 338 620 330 626 324L557 271 526 305 477 305 477 214 610 214C624 214 633 209 636 198 608 171 563 133 563 133L523 185 477 185 477 85C499 81 508 72 509 59ZM535 512L474 512 474 334 535 334ZM359 512L359 334 419 334 419 512ZM859 528L859 603 703 603 703 528ZM859 499L703 499 703 421 859 421ZM859 633L859 710 703 710 703 633ZM644 391L644 793 653 793C679 793 703 779 703 773L703 740 859 740 859 786 869 786C889 786 919 771 920 765L920 429C937 426 952 418 958 412L884 355 850 391 707 391 644 362ZM607 91L616 120 717 120C711 194 693 280 609 356L624 371C739 301 769 204 779 120L871 120C869 225 863 271 853 281 848 287 842 288 830 288 816 288 785 285 763 284L763 302C781 305 800 309 809 317 818 325 820 342 820 356 846 356 871 350 889 335 915 313 923 261 926 126 945 123 956 119 963 112L893 57 862 91ZM242 48C226 90 201 139 171 188 143 144 107 102 61 64L45 76C89 125 121 176 144 230 110 280 71 328 32 367L43 380C86 351 126 315 162 278 175 319 184 362 190 405 159 503 101 607 33 681L44 693C106 646 161 585 199 526L200 582C200 695 191 825 165 864 158 875 153 877 138 877 108 877 53 871 53 871L53 889C79 894 96 901 107 910 116 918 121 932 121 955 164 955 194 944 211 918 253 854 261 712 261 581 260 455 246 340 198 239 239 192 273 145 298 104 321 107 329 103 336 92Z"/>
</svg>