<svg xmlns="http://www.w3.org/2000/svg"
    viewBox="0 0 1000 1000">
  <!--
© 2017-2023 Adobe (http://www.adobe.com/).
Noto is a trademark of Google Inc.
This Font Software is licensed under the SIL Open Font License, Version 1.1. This Font Software is distributed on an "AS IS" BASIS, WITHOUT WARRANTIES OR CONDITIONS OF ANY KIND, either express or implied. See the SIL Open Font License for the specific language, permissions and limitations governing your use of this Font Software.
http://scripts.sil.org/OFL
  -->
<path d="M807 748L796 756C836 797 890 864 907 913 969 956 1014 827 807 748ZM716 742C685 798 616 872 550 915L561 929C639 896 718 840 761 794 782 799 790 795 797 786ZM417 19L417 155 281 155 289 184 417 184 417 275 364 275 305 248 305 560 313 560C336 560 359 548 359 543L359 510 401 510C369 624 318 736 247 823L261 838C325 779 378 709 417 631L417 924 426 924C457 924 477 909 477 904L477 584C514 621 553 674 564 716 621 758 666 638 477 564L477 510 535 510 535 549 543 549C561 549 588 536 589 530L589 311C605 308 620 300 626 294L557 241 526 275 477 275 477 184 610 184C624 184 633 179 636 168 608 141 563 103 563 103L523 155 477 155 477 55C499 51 508 42 509 29ZM535 482L474 482 474 304 535 304ZM359 482L359 304 419 304 419 482ZM859 498L859 573 703 573 703 498ZM859 469L703 469 703 391 859 391ZM859 603L859 680 703 680 703 603ZM644 361L644 763 653 763C679 763 703 749 703 743L703 710 859 710 859 756 869 756C889 756 919 741 920 735L920 399C937 396 952 388 958 382L884 325 850 361 707 361 644 332ZM607 61L616 90 717 90C711 164 693 250 609 326L624 341C739 271 769 174 779 90L871 90C869 195 863 241 853 251 848 257 842 258 830 258 816 258 785 255 763 254L763 272C781 275 800 279 809 287 818 295 820 312 820 326 846 326 871 320 889 305 915 283 923 231 926 96 945 93 956 89 963 82L893 27 862 61ZM242 18C226 60 201 109 171 158 143 114 107 72 61 34L45 46C89 95 121 146 144 200 110 250 71 298 32 337L43 350C86 321 126 285 162 248 175 289 184 332 190 375 159 473 101 577 33 651L44 663C106 616 161 555 199 496L200 552C200 665 191 795 165 834 158 845 153 847 138 847 108 847 53 841 53 841L53 859C79 864 96 871 107 880 116 888 121 902 121 925 164 925 194 914 211 888 253 824 261 682 261 551 260 425 246 310 198 209 239 162 273 115 298 74 321 77 329 73 336 62Z"/>
</svg>