<svg xmlns="http://www.w3.org/2000/svg"
    viewBox="0 0 1000 1000">
  <!--
© 2017-2024 Adobe (http://www.adobe.com/).
Noto is a trademark of Google Inc.
This Font Software is licensed under the SIL Open Font License, Version 1.1. This Font Software is distributed on an "AS IS" BASIS, WITHOUT WARRANTIES OR CONDITIONS OF ANY KIND, either express or implied. See the SIL Open Font License for the specific language, permissions and limitations governing your use of this Font Software.
http://scripts.sil.org/OFL
  -->
<path d="M58 526L110 596C118 591 123 580 125 568 225 496 299 436 353 396L346 382C227 445 106 505 58 526ZM678 384L669 395C741 434 839 509 876 569 953 601 966 445 678 384ZM116 209L105 216C148 255 198 322 211 375 277 423 328 281 116 209ZM816 190C775 252 726 313 690 350L701 363C751 339 811 298 861 256 882 262 896 256 902 248ZM465 13L465 141 69 141 78 169 449 169C432 209 412 249 394 281 373 269 347 258 314 249L304 258C342 288 386 344 397 389 445 421 484 356 418 299 448 276 479 246 506 219 525 221 538 215 543 204L470 169 906 169C920 169 930 164 933 153 897 122 840 79 840 78L789 141 532 141 532 48C554 44 563 35 564 22ZM569 249C524 326 449 427 384 500L287 504 331 583C340 581 349 575 355 563 475 541 564 525 630 510 639 531 646 551 648 569 714 623 775 480 570 400L560 407C580 428 601 457 618 488L418 499C492 440 570 363 617 304 639 307 652 301 658 290ZM465 562L465 661 41 661 50 689 465 689 465 926 478 926C502 926 532 912 532 905L532 689 930 689C945 689 955 685 957 674 921 641 864 598 864 598L813 661 532 661 532 598C554 595 563 585 565 573Z"/>
</svg>