<svg xmlns="http://www.w3.org/2000/svg" name="gid8518" data-unicode="玕"
    viewBox="0 0 1000 1000">
  <!--
© 2017-2024 Adobe (http://www.adobe.com/).
Noto is a trademark of Google Inc.
This Font Software is licensed under the SIL Open Font License, Version 1.1. This Font Software is distributed on an "AS IS" BASIS, WITHOUT WARRANTIES OR CONDITIONS OF ANY KIND, either express or implied. See the SIL Open Font License for the specific language, permissions and limitations governing your use of this Font Software.
http://scripts.sil.org/OFL
  -->
<path d="M377 464L385 493 632 493 632 958 642 958C676 958 698 941 698 935L698 493 944 493C957 493 967 488 970 477 937 446 883 404 883 404L835 464 698 464 698 149 918 149C932 149 941 144 944 133 911 103 859 60 859 60L813 120 417 120 425 149 632 149 632 464ZM29 774L64 856C73 853 82 843 84 831 227 765 336 707 414 667L409 652 247 707 247 446 376 446C388 446 397 441 400 430 373 400 325 359 325 359L284 416 247 416 247 161 383 161C397 161 407 156 410 145 377 114 323 71 323 71L277 131 43 131 51 161 182 161 182 416 51 416 59 446 182 446 182 728C115 750 60 767 29 774Z"/>
</svg>