<svg xmlns="http://www.w3.org/2000/svg"
    viewBox="0 0 1000 1000">
  <!--
© 2017-2024 Adobe (http://www.adobe.com/).
Noto is a trademark of Google Inc.
This Font Software is licensed under the SIL Open Font License, Version 1.1. This Font Software is distributed on an "AS IS" BASIS, WITHOUT WARRANTIES OR CONDITIONS OF ANY KIND, either express or implied. See the SIL Open Font License for the specific language, permissions and limitations governing your use of this Font Software.
http://scripts.sil.org/OFL
  -->
<path d="M511 316L535 268 492 261 490 312C464 351 417 409 389 439L464 496C470 488 472 477 461 467 472 440 487 395 499 357 521 473 557 573 607 657 525 760 414 846 263 914L272 928C430 873 548 798 637 705 705 802 794 876 904 929 918 898 942 879 973 878L976 867C855 823 753 755 674 663 769 546 823 403 853 235L947 235C961 235 969 230 972 220 940 189 887 146 887 146L840 206 672 206 672 51C696 48 706 38 708 24L607 14 607 206 358 206 366 235 775 235C754 379 711 506 637 615 578 532 535 432 511 316ZM28 744L65 824C74 820 82 812 85 799 221 733 325 676 400 637L394 622 236 677 236 422 362 422C375 422 384 417 387 407 360 377 313 337 313 337L273 393 236 393 236 146 377 146C391 146 401 142 403 131 371 100 318 58 318 58L273 117 40 117 48 146 171 146 171 393 50 393 58 422 171 422 171 699C109 720 58 736 28 744Z"/>
</svg>