<svg xmlns="http://www.w3.org/2000/svg" name="gid8530" data-unicode="玩"
    viewBox="0 0 1000 1000">
  <!--
© 2017-2024 Adobe (http://www.adobe.com/).
Noto is a trademark of Google Inc.
This Font Software is licensed under the SIL Open Font License, Version 1.1. This Font Software is distributed on an "AS IS" BASIS, WITHOUT WARRANTIES OR CONDITIONS OF ANY KIND, either express or implied. See the SIL Open Font License for the specific language, permissions and limitations governing your use of this Font Software.
http://scripts.sil.org/OFL
  -->
<path d="M426 131L433 160 897 160C910 160 920 155 923 144 888 112 830 68 830 68L781 131ZM31 757L66 839C76 836 84 826 88 814 227 758 332 709 407 675L404 661 246 703 246 445 374 445C387 445 396 441 399 430L392 422 506 422C501 663 458 818 248 945L255 959C508 852 566 689 577 422L700 422 700 872C700 917 712 935 774 935L835 935C941 935 967 925 967 898 967 887 964 880 943 871L940 721 927 721C916 781 904 851 897 866 894 876 891 878 884 879 876 880 859 880 837 880L789 880C768 880 765 875 765 860L765 422 942 422C956 422 965 417 968 406 934 375 879 332 879 332L830 393 376 393 381 411C355 385 326 359 326 359L285 416 246 416 246 166 394 166C408 166 417 161 420 150 387 119 335 78 335 78L289 137 46 137 54 166 182 166 182 416 55 416 63 445 182 445 182 720C116 738 62 751 31 757Z"/>
</svg>