<svg xmlns="http://www.w3.org/2000/svg" name="gid8534" data-unicode="玲"
    viewBox="0 0 1000 1000">
  <!--
© 2017-2024 Adobe (http://www.adobe.com/).
Noto is a trademark of Google Inc.
This Font Software is licensed under the SIL Open Font License, Version 1.1. This Font Software is distributed on an "AS IS" BASIS, WITHOUT WARRANTIES OR CONDITIONS OF ANY KIND, either express or implied. See the SIL Open Font License for the specific language, permissions and limitations governing your use of this Font Software.
http://scripts.sil.org/OFL
  -->
<path d="M459 374L467 403 796 403C810 403 820 398 822 387 792 358 742 317 742 317L699 374ZM350 524L359 554 552 554 552 958 562 958C596 958 618 943 618 939L618 554 818 554 818 764C818 778 814 783 798 783 778 783 695 777 695 777L695 793C734 797 755 805 768 814 780 824 784 840 787 857 873 850 884 820 884 772L884 568C904 564 921 555 928 547L841 483 809 524ZM655 101C702 242 803 359 917 438 923 412 945 390 971 384L973 371C848 309 731 210 672 89 695 87 705 82 707 71L598 46C569 157 471 303 368 401 342 373 303 339 303 339L263 396 235 396 235 161 377 161C391 161 401 156 403 145 371 114 318 72 318 72L272 131 44 131 52 161 171 161 171 396 49 396 57 425 171 425 171 715C112 732 62 746 32 754L65 836C75 832 84 822 86 810 217 752 319 698 393 659L389 644C337 662 284 679 235 695L235 425 341 425 305 454 314 467C457 387 592 244 655 101Z"/>
</svg>