<svg xmlns="http://www.w3.org/2000/svg" name="gid8538" data-unicode="玹"
    viewBox="0 0 1000 1000">
  <!--
© 2017-2024 Adobe (http://www.adobe.com/).
Noto is a trademark of Google Inc.
This Font Software is licensed under the SIL Open Font License, Version 1.1. This Font Software is distributed on an "AS IS" BASIS, WITHOUT WARRANTIES OR CONDITIONS OF ANY KIND, either express or implied. See the SIL Open Font License for the specific language, permissions and limitations governing your use of this Font Software.
http://scripts.sil.org/OFL
  -->
<path d="M27 788L68 868C77 865 85 855 88 844 225 778 328 723 402 685L397 670 234 724 234 470 355 470C369 470 377 465 380 454 353 426 307 385 307 385L266 442 234 442 234 185 372 185C386 185 396 181 398 170 367 139 315 97 315 97L270 156 42 156 50 185 169 185 169 442 50 442 58 470 169 470 169 745C107 765 57 780 27 788ZM606 42L606 215 334 215 342 245 586 245C562 301 525 374 488 430 460 413 425 396 383 381L372 390C434 440 512 524 534 591 594 629 632 532 508 443 564 391 626 326 658 281 675 285 687 283 692 273L638 245 943 245C958 245 966 240 969 229 935 196 878 154 878 154L828 215 672 215 672 79C697 75 706 65 709 52ZM777 367C708 500 580 700 459 847L305 857 348 949C359 946 369 939 374 926 582 892 735 862 849 838 867 874 881 910 888 942 969 1006 1024 819 740 649L727 657C763 700 805 759 838 818L493 845C625 709 758 539 833 424 852 429 865 427 870 416Z"/>
</svg>