<svg xmlns="http://www.w3.org/2000/svg" name="gid8551" data-unicode="珋"
    viewBox="0 0 1000 1000">
  <!--
© 2017-2024 Adobe (http://www.adobe.com/).
Noto is a trademark of Google Inc.
This Font Software is licensed under the SIL Open Font License, Version 1.1. This Font Software is distributed on an "AS IS" BASIS, WITHOUT WARRANTIES OR CONDITIONS OF ANY KIND, either express or implied. See the SIL Open Font License for the specific language, permissions and limitations governing your use of this Font Software.
http://scripts.sil.org/OFL
  -->
<path d="M27 715L67 794C77 790 84 781 87 769 203 707 293 652 355 615L350 601 225 647 225 414 331 414C345 414 354 409 357 398 329 369 284 329 284 329L243 384 225 384 225 154 342 154C355 154 366 149 368 138 337 109 288 67 288 67L244 124 40 124 48 154 161 154 161 384 47 384 55 414 161 414 161 670C103 691 55 707 27 715ZM675 152L675 958 684 958C714 958 734 942 734 937L734 182 855 182 855 682C855 694 852 698 839 698 826 698 775 694 775 694L775 709C801 714 816 721 824 731 833 741 836 759 836 777 907 770 916 740 916 689L916 193C936 189 952 182 959 174L877 112 845 152 743 152 675 122ZM569 40C539 72 487 116 440 153L371 138 371 673 302 690 346 763C355 759 362 751 365 739 434 705 489 675 530 652 508 773 445 875 298 949L309 964C544 869 598 712 599 526L599 237C623 234 631 224 634 210L540 200 540 525C540 561 538 595 534 628L432 656 432 185C495 159 572 122 615 94 630 99 641 98 647 90Z"/>
</svg>