<svg xmlns="http://www.w3.org/2000/svg"
    viewBox="0 0 1000 1000">
  <!--
© 2017-2024 Adobe (http://www.adobe.com/).
Noto is a trademark of Google Inc.
This Font Software is licensed under the SIL Open Font License, Version 1.1. This Font Software is distributed on an "AS IS" BASIS, WITHOUT WARRANTIES OR CONDITIONS OF ANY KIND, either express or implied. See the SIL Open Font License for the specific language, permissions and limitations governing your use of this Font Software.
http://scripts.sil.org/OFL
  -->
<path d="M691 433L684 433 684 238 902 238C916 238 925 233 928 222 895 191 843 148 843 148L797 209 684 209 684 53C710 49 717 39 719 25L618 14 618 209 496 209C511 176 523 142 534 106 555 107 567 98 571 87L473 56C456 171 419 285 374 361L389 370C425 335 456 289 482 238L618 238 618 433 355 433 363 462 572 462C512 605 407 741 271 835L282 851C429 771 544 661 618 529L618 927 630 927C655 927 684 910 684 900L684 483C732 620 816 751 914 831 920 804 942 783 972 773L975 761C870 698 756 585 703 462L930 462C944 462 954 457 957 446 925 415 871 371 871 371L824 433ZM31 731L63 813C73 809 82 798 84 787 219 720 324 662 400 621L395 608 237 664 237 403 366 403C378 403 387 398 390 387 363 357 316 316 316 316L276 373 237 373 237 132 377 132C391 132 401 127 403 116 371 85 318 43 318 43L272 102 44 102 52 132 172 132 172 373 47 373 55 403 172 403 172 686C110 707 60 723 31 731Z"/>
</svg>