<svg xmlns="http://www.w3.org/2000/svg" name="gid8568" data-unicode="珧"
    viewBox="0 0 1000 1000">
  <!--
© 2017-2024 Adobe (http://www.adobe.com/).
Noto is a trademark of Google Inc.
This Font Software is licensed under the SIL Open Font License, Version 1.1. This Font Software is distributed on an "AS IS" BASIS, WITHOUT WARRANTIES OR CONDITIONS OF ANY KIND, either express or implied. See the SIL Open Font License for the specific language, permissions and limitations governing your use of this Font Software.
http://scripts.sil.org/OFL
  -->
<path d="M359 185L345 192C384 251 428 347 429 420 490 479 551 327 359 185ZM866 169C844 226 792 338 751 408L762 416C823 360 890 283 924 239 944 244 957 236 961 228ZM28 799L68 880C77 877 85 868 88 856 212 802 305 757 371 724L366 709 228 748 228 468 349 468C363 468 372 463 374 452 347 424 301 382 301 382L260 440 228 440 228 165 351 165C365 165 374 160 376 149 346 119 297 78 297 78L253 136 40 136 48 165 165 165 165 440 52 440 60 468 165 468 165 765C106 781 57 794 28 799ZM522 54L522 499 522 502C429 562 339 618 300 637L354 710C363 705 367 692 367 681 430 621 482 568 522 528 516 716 455 850 272 944L283 958C516 863 583 710 584 499L584 93C609 89 617 79 619 65ZM685 56L685 863C685 912 699 932 764 932L829 932C941 932 971 921 971 894 971 880 964 873 943 864L940 742 927 742C918 790 907 850 900 861 896 868 892 870 885 871 876 872 856 872 831 872L778 872C752 872 748 864 748 844L748 495C805 548 868 622 886 682 959 731 1002 579 748 469L748 96C773 92 781 81 782 68Z"/>
</svg>