<svg xmlns="http://www.w3.org/2000/svg"
    viewBox="0 0 1000 1000">
  <!--
© 2017-2024 Adobe (http://www.adobe.com/).
Noto is a trademark of Google Inc.
This Font Software is licensed under the SIL Open Font License, Version 1.1. This Font Software is distributed on an "AS IS" BASIS, WITHOUT WARRANTIES OR CONDITIONS OF ANY KIND, either express or implied. See the SIL Open Font License for the specific language, permissions and limitations governing your use of this Font Software.
http://scripts.sil.org/OFL
  -->
<path d="M885 239C855 279 806 341 765 389 737 301 718 206 705 111L935 111C949 111 960 106 963 95 928 64 871 20 871 20L821 82 356 82 364 111 602 111C536 191 442 272 341 330L352 345C418 317 482 283 539 244 556 269 571 295 584 323 521 406 414 494 318 546L325 561C426 521 536 456 611 393 620 420 627 448 633 475 546 609 387 742 238 818L246 834C394 774 546 678 649 578 659 692 646 791 621 833 615 844 604 845 587 845 563 845 493 841 449 837L449 854C490 861 525 870 538 880 550 890 558 907 559 929 620 929 657 916 676 888 750 786 750 434 556 232 605 197 649 158 684 116 710 417 766 654 912 796 924 762 947 740 973 735L975 726C884 661 818 547 773 412 824 381 888 341 923 314 941 321 951 320 956 313ZM30 757L68 836C78 831 85 820 87 809 208 741 307 673 379 620L372 606C324 630 275 654 229 675L229 419 351 419C365 419 374 415 377 404 350 374 304 334 304 334L264 390 229 390 229 149 354 149C368 149 377 144 380 133 350 103 301 62 301 62L257 119 44 119 52 149 166 149 166 390 48 390 56 419 166 419 166 703C111 727 63 746 30 757Z"/>
</svg>