<svg xmlns="http://www.w3.org/2000/svg"
    viewBox="0 0 1000 1000">
  <!--
© 2017-2024 Adobe (http://www.adobe.com/).
Noto is a trademark of Google Inc.
This Font Software is licensed under the SIL Open Font License, Version 1.1. This Font Software is distributed on an "AS IS" BASIS, WITHOUT WARRANTIES OR CONDITIONS OF ANY KIND, either express or implied. See the SIL Open Font License for the specific language, permissions and limitations governing your use of this Font Software.
http://scripts.sil.org/OFL
  -->
<path d="M586 155L573 161C596 193 617 247 616 290 667 343 738 230 586 155ZM772 129L761 138C813 176 872 244 885 301 955 346 997 193 772 129ZM795 518L795 646 656 646 656 518ZM403 646L412 675 592 675 592 828C592 843 587 848 568 848 546 848 440 840 440 840L440 856C488 862 514 869 530 881 543 890 549 909 551 928 643 919 656 881 656 830L656 675 795 675 795 728 804 728C825 728 857 712 858 706L858 518 956 518C969 518 979 513 981 502 955 474 909 435 909 435L871 488 858 488 858 373C878 370 893 362 899 354L821 294 785 333 412 333 421 362 592 362 592 488 323 488 331 518 592 518 592 646ZM795 488L656 488 656 362 795 362ZM437 82C417 176 379 270 340 330L355 339C412 291 464 217 501 133L515 132C630 123 749 102 829 83 851 92 870 92 879 84L804 14C739 45 622 83 515 106ZM25 745L66 825C75 821 83 812 85 800 215 735 313 679 381 641L376 627 228 680 228 421 347 421C361 421 370 416 373 406 345 376 299 336 299 336L258 392 228 392 228 138 358 138C371 138 381 133 383 122 353 91 302 50 302 50L257 108 39 108 47 138 163 138 163 392 46 392 54 421 163 421 163 702C103 722 54 738 25 745Z"/>
</svg>