<svg xmlns="http://www.w3.org/2000/svg" name="gid8602" data-unicode="琨"
    viewBox="0 0 1000 1000">
  <!--
© 2017-2024 Adobe (http://www.adobe.com/).
Noto is a trademark of Google Inc.
This Font Software is licensed under the SIL Open Font License, Version 1.1. This Font Software is distributed on an "AS IS" BASIS, WITHOUT WARRANTIES OR CONDITIONS OF ANY KIND, either express or implied. See the SIL Open Font License for the specific language, permissions and limitations governing your use of this Font Software.
http://scripts.sil.org/OFL
  -->
<path d="M479 274L822 274 822 396 479 396ZM479 245L479 124 822 124 822 245ZM415 96L415 473 425 473C457 473 479 456 479 451L479 426 822 426 822 469 832 469C853 469 885 454 886 447L886 137C906 133 922 125 929 117L848 55 813 96 491 96 415 63ZM306 879L345 956C355 953 363 945 366 933 493 885 587 845 655 817L651 802 476 843 476 666 632 666C645 666 655 661 657 650 631 622 586 583 586 583L547 637 476 637 476 517C496 514 503 507 505 495L415 486 415 857C369 867 331 875 306 879ZM893 551C862 580 797 635 741 672L741 519C761 516 770 507 772 495L680 484 680 874C680 919 693 935 756 935L829 935C944 935 971 924 971 897 971 884 966 878 946 870L943 776 930 776C922 816 911 858 905 869 902 875 897 876 890 877 881 878 859 878 831 878L770 878C745 878 741 874 741 859L741 693C811 670 890 633 930 611 943 617 953 617 958 610ZM30 759L66 840C76 837 84 827 86 815 211 756 306 706 374 671L369 656 231 700 231 449 341 449C355 449 364 444 367 433 340 404 294 364 294 364L254 420 231 420 231 166 354 166C368 166 376 161 379 150 349 120 301 79 301 79L256 136 42 136 50 166 167 166 167 420 50 420 58 449 167 449 167 720C107 738 58 753 30 759Z"/>
</svg>