<svg xmlns="http://www.w3.org/2000/svg"
    viewBox="0 0 1000 1000">
  <!--
© 2017-2023 Adobe (http://www.adobe.com/).
Noto is a trademark of Google Inc.
This Font Software is licensed under the SIL Open Font License, Version 1.1. This Font Software is distributed on an "AS IS" BASIS, WITHOUT WARRANTIES OR CONDITIONS OF ANY KIND, either express or implied. See the SIL Open Font License for the specific language, permissions and limitations governing your use of this Font Software.
http://scripts.sil.org/OFL
  -->
<path d="M190 434L190 820C131 830 82 837 50 841L95 926C104 923 113 915 117 903 293 853 419 812 511 782L507 765 254 809 254 613 486 613C500 613 508 608 511 597 480 566 429 526 429 526L384 583 254 583 254 467C274 464 281 456 283 444ZM832 494C787 537 700 594 617 634L617 470C637 467 646 457 648 445L553 434 553 837C553 890 570 906 651 906L764 906C926 906 960 894 960 864 960 851 954 844 931 836L928 713 915 713C904 766 893 817 886 832 881 841 877 843 864 844 850 846 814 846 766 846L662 846C622 846 617 841 617 822L617 659C713 632 811 589 871 555 895 561 910 559 918 549ZM49 387L88 466C97 463 106 456 110 444 277 402 400 366 489 341L486 324 309 351 309 244 450 244C463 244 473 239 475 228 445 201 399 162 399 162L358 215 309 215 309 108 464 108C478 108 487 103 490 92 458 63 408 24 408 24L362 79 79 79 87 108 245 108 245 215 97 215 104 244 245 244 245 361C161 373 90 383 49 387ZM511 215L519 244 652 244 652 364 475 364 483 394 930 394C944 394 953 389 956 378 923 348 871 307 871 307L824 364 717 364 717 244 886 244C900 244 909 239 911 228 882 200 832 161 832 161L790 215 717 215 717 108 908 108C922 108 932 103 934 92 902 63 850 22 850 22L804 79 497 79 504 108 652 108 652 215Z"/>
</svg>