<svg xmlns="http://www.w3.org/2000/svg"
    viewBox="0 0 1000 1000">
  <!--
© 2017-2024 Adobe (http://www.adobe.com/).
Noto is a trademark of Google Inc.
This Font Software is licensed under the SIL Open Font License, Version 1.1. This Font Software is distributed on an "AS IS" BASIS, WITHOUT WARRANTIES OR CONDITIONS OF ANY KIND, either express or implied. See the SIL Open Font License for the specific language, permissions and limitations governing your use of this Font Software.
http://scripts.sil.org/OFL
  -->
<path d="M466 438L466 557 57 557 66 587 398 587C315 701 185 808 34 878L43 893C219 831 368 737 466 615L466 927 479 927C503 927 531 913 531 905L531 587 539 587C624 722 767 830 909 889 919 857 942 837 969 833L970 822C830 782 662 693 567 587L922 587C936 587 945 582 948 571 913 541 858 498 858 498L810 557 531 557 531 474C554 470 562 461 564 448ZM62 409L108 486C117 484 126 477 130 465 294 421 411 387 493 360L490 344 308 374 308 260 446 260C460 260 469 255 472 244 443 215 395 178 395 178L354 230 308 230 308 109 456 109C470 109 480 104 482 93 450 64 400 25 400 25L355 80 78 80 86 109 244 109 244 230 97 230 104 260 244 260 244 384C166 396 101 405 62 409ZM519 231L527 260 654 260 654 395 471 395 479 424 921 424C936 424 945 419 948 409 915 378 862 338 862 338L817 395 718 395 718 260 884 260C898 260 906 255 909 244 880 215 830 177 830 177L788 231 718 231 718 109 905 109C919 109 928 104 931 93 898 64 846 23 846 23L801 80 498 80 505 109 654 109 654 231Z"/>
</svg>