<svg xmlns="http://www.w3.org/2000/svg" name="gid8618" data-unicode="琺"
    viewBox="0 0 1000 1000">
  <!--
© 2017-2024 Adobe (http://www.adobe.com/).
Noto is a trademark of Google Inc.
This Font Software is licensed under the SIL Open Font License, Version 1.1. This Font Software is distributed on an "AS IS" BASIS, WITHOUT WARRANTIES OR CONDITIONS OF ANY KIND, either express or implied. See the SIL Open Font License for the specific language, permissions and limitations governing your use of this Font Software.
http://scripts.sil.org/OFL
  -->
<path d="M364 720C353 720 322 720 322 720L322 742C341 744 354 747 366 755 386 767 390 828 379 913 381 941 394 955 411 955 444 955 462 931 463 895 466 830 441 793 440 756 439 732 445 702 453 673 463 633 529 434 559 333L541 329C402 669 402 669 387 701 378 720 375 720 364 720ZM384 73L374 82C415 112 459 165 470 210 532 253 578 122 384 73ZM325 293L314 301C355 334 399 391 406 441 468 487 519 354 325 293ZM519 481L527 510 664 510C649 606 623 741 600 828L503 836 543 920C552 917 561 911 566 898 695 866 794 840 867 819 881 858 891 896 893 930 965 997 1029 820 803 654L790 660C814 699 840 748 860 799L631 825C670 740 712 614 741 510L943 510C957 510 966 506 969 495 938 464 886 421 886 421L839 481 764 481 764 279 928 279C942 279 952 274 955 263 923 233 873 191 873 191L827 249 764 249 764 92C788 88 797 78 800 63L699 53 699 249 549 249 557 279 699 279 699 481ZM29 800L77 880C85 875 92 864 93 852 210 775 299 706 362 659L356 645 224 712 224 456 332 456C346 456 355 451 358 440 332 412 288 372 288 372L249 427 224 427 224 174 341 174C354 174 364 169 366 158 336 128 286 87 286 87L241 145 41 145 49 174 160 174 160 427 51 427 59 456 160 456 160 742C104 769 57 790 29 800Z"/>
</svg>