<svg xmlns="http://www.w3.org/2000/svg"
    viewBox="0 0 1000 1000">
  <!--
© 2017-2023 Adobe (http://www.adobe.com/).
Noto is a trademark of Google Inc.
This Font Software is licensed under the SIL Open Font License, Version 1.1. This Font Software is distributed on an "AS IS" BASIS, WITHOUT WARRANTIES OR CONDITIONS OF ANY KIND, either express or implied. See the SIL Open Font License for the specific language, permissions and limitations governing your use of this Font Software.
http://scripts.sil.org/OFL
  -->
<path d="M29 754L73 831C82 827 89 817 90 805 206 737 295 678 355 638L349 623 229 674 229 420 338 420C350 420 358 417 361 409L362 412 590 412 568 521 448 521 380 490 380 929 391 929C417 929 442 914 442 908L442 550 538 550 538 911 546 911C574 911 592 898 593 893L593 550 697 550 697 907 705 907C734 907 752 893 752 889L752 550 854 550 854 830C854 843 851 848 837 848 823 848 769 843 769 843L769 859C797 863 812 870 820 880 829 891 833 909 834 928 908 921 917 890 917 838L917 563C937 559 954 550 961 543L877 480 843 521 600 521C622 488 646 447 664 412L939 412C952 412 962 407 965 396 931 366 878 326 878 326L830 383 354 383 358 399C331 370 291 335 291 335L250 391 229 391 229 149 340 149C354 149 364 144 367 133 335 103 286 62 286 62L241 119 43 119 51 149 165 149 165 391 49 391 57 420 165 420 165 701C106 726 57 745 29 754ZM617 19L617 251 459 251 459 106C483 102 492 94 495 80L396 70 396 347 408 347C432 347 459 333 459 326L459 281 841 281 841 327 853 327C877 327 904 313 904 306L904 110C929 106 939 97 942 83L841 73 841 251 680 251 680 58C705 54 713 44 716 30Z"/>
</svg>