<svg xmlns="http://www.w3.org/2000/svg"
    viewBox="0 0 1000 1000">
  <!--
© 2017-2024 Adobe (http://www.adobe.com/).
Noto is a trademark of Google Inc.
This Font Software is licensed under the SIL Open Font License, Version 1.1. This Font Software is distributed on an "AS IS" BASIS, WITHOUT WARRANTIES OR CONDITIONS OF ANY KIND, either express or implied. See the SIL Open Font License for the specific language, permissions and limitations governing your use of this Font Software.
http://scripts.sil.org/OFL
  -->
<path d="M487 61C444 146 385 230 336 280L349 291C413 253 483 191 537 122 558 127 571 120 576 110ZM755 75L744 84C807 125 885 202 908 264 981 304 1012 145 755 75ZM703 746L695 756C768 794 868 867 907 925 990 955 999 791 703 746ZM544 734C488 800 371 876 263 916L271 931C395 905 523 849 592 794 613 799 621 796 628 786ZM801 430L801 541 501 541 501 430ZM801 401L501 401 501 292 801 292ZM801 570L801 674 501 674 501 570ZM436 263L436 751 447 751C475 751 501 736 501 728L501 703 801 703 801 736 811 736C833 736 866 721 867 713L867 303C886 299 900 292 907 285L828 222 792 263 681 263 681 52C706 49 715 39 717 25L617 15 617 263 506 263 436 230ZM30 756L67 835C76 830 84 820 86 808 208 742 309 676 381 623L374 609C326 633 276 656 229 677L229 419 351 419C365 419 374 415 377 404 350 374 304 334 304 334L264 390 229 390 229 149 354 149C368 149 377 144 380 133 350 103 301 62 301 62L257 119 44 119 52 149 166 149 166 390 48 390 56 419 166 419 166 704C111 727 63 745 30 756Z"/>
</svg>