<svg xmlns="http://www.w3.org/2000/svg"
    viewBox="0 0 1000 1000">
  <!--
© 2017-2024 Adobe (http://www.adobe.com/).
Noto is a trademark of Google Inc.
This Font Software is licensed under the SIL Open Font License, Version 1.1. This Font Software is distributed on an "AS IS" BASIS, WITHOUT WARRANTIES OR CONDITIONS OF ANY KIND, either express or implied. See the SIL Open Font License for the specific language, permissions and limitations governing your use of this Font Software.
http://scripts.sil.org/OFL
  -->
<path d="M713 775L707 791C801 827 861 873 891 913 955 973 1066 822 713 775ZM558 764C507 815 399 880 299 915L304 930C417 912 533 870 601 830 625 836 642 834 649 825ZM801 23C733 62 602 106 493 132L493 53C512 50 521 41 522 30L433 19 433 190C433 239 451 251 547 251L707 251C923 251 956 243 956 213 956 202 948 195 925 189L922 99 909 99C900 141 891 173 882 187 878 194 872 197 857 198 837 199 780 200 709 200L551 200C498 200 493 197 493 182L493 151C614 140 756 112 833 82 853 90 861 89 870 81ZM584 446L820 446 820 514 584 514ZM584 417L584 348 820 348 820 417ZM584 544L820 544 820 613 584 613ZM523 319L523 694 532 694C563 694 584 678 584 674L584 641 820 641 820 685 828 685C849 685 880 670 881 664L881 356C898 353 912 346 918 339L844 282 811 319 596 319 523 287ZM28 739L63 821C73 817 82 808 84 796 211 738 309 687 380 651L380 802 392 802C414 802 441 787 441 780L441 746 936 746C950 746 959 741 962 730 932 701 883 664 883 664L840 717 441 717 441 367C464 364 474 354 476 342L380 331 380 633 237 678 237 420 350 420C364 420 373 415 375 405 349 375 303 335 303 335L262 391 237 391 237 139 368 139C381 139 390 134 393 123 364 93 313 52 313 52L269 109 46 109 54 139 172 139 172 391 54 391 62 420 172 420 172 698C110 717 58 732 28 739Z"/>
</svg>