<svg xmlns="http://www.w3.org/2000/svg" name="gid8675" data-unicode="璙"
    viewBox="0 0 1000 1000">
  <!--
© 2017-2024 Adobe (http://www.adobe.com/).
Noto is a trademark of Google Inc.
This Font Software is licensed under the SIL Open Font License, Version 1.1. This Font Software is distributed on an "AS IS" BASIS, WITHOUT WARRANTIES OR CONDITIONS OF ANY KIND, either express or implied. See the SIL Open Font License for the specific language, permissions and limitations governing your use of this Font Software.
http://scripts.sil.org/OFL
  -->
<path d="M454 692C426 757 366 845 301 899L312 912C393 871 466 802 507 746 529 750 537 745 543 735ZM753 700L742 708C796 754 865 832 883 894 956 943 1001 785 753 700ZM866 206C853 232 826 276 802 310 764 276 732 236 707 193L935 193C949 193 959 188 962 177 929 146 876 104 876 104L829 164 635 164C648 135 659 105 668 75 694 75 702 71 705 59L599 42C590 83 578 124 563 164L361 164C373 164 383 159 385 148 356 118 305 77 305 77L262 134 46 134 54 164 168 164 168 406 54 406 62 436 168 436 168 702C109 720 61 734 32 741L69 822C78 819 87 809 89 797 218 736 316 683 386 646L381 633 233 681 233 436 350 436C364 436 373 431 375 420 349 390 303 350 303 350L262 406 233 406 233 164 359 164 366 193 552 193C537 227 520 260 501 292 490 266 456 238 385 222L375 230C404 256 438 301 449 336 455 340 460 343 465 344 423 400 373 449 316 487L328 499C366 480 400 458 432 432L432 679 442 679C473 679 495 662 495 657L495 637 611 637 611 858C611 871 607 876 591 876 573 876 488 870 488 870L488 886C527 890 550 898 562 909 573 920 577 938 579 957 662 949 675 911 675 860L675 637 793 637 793 667 803 667C824 667 855 652 856 645L856 429C878 446 902 460 926 473 934 446 953 429 976 426L977 415C922 396 867 364 819 325 856 307 895 286 916 272 935 278 949 271 953 263ZM621 193L683 193C709 261 746 320 790 369L787 372 507 372 501 369C550 317 590 257 621 193ZM495 401L793 401 793 488 495 488ZM495 517L793 517 793 608 495 608Z"/>
</svg>