<svg xmlns="http://www.w3.org/2000/svg"
    viewBox="0 0 1000 1000">
  <!--
© 2017-2023 Adobe (http://www.adobe.com/).
Noto is a trademark of Google Inc.
This Font Software is licensed under the SIL Open Font License, Version 1.1. This Font Software is distributed on an "AS IS" BASIS, WITHOUT WARRANTIES OR CONDITIONS OF ANY KIND, either express or implied. See the SIL Open Font License for the specific language, permissions and limitations governing your use of this Font Software.
http://scripts.sil.org/OFL
  -->
<path d="M751 433L741 442C769 459 801 493 812 522 869 554 909 446 751 433ZM382 538L382 601C382 698 369 816 275 915L287 929C400 853 433 748 441 663 486 691 535 735 553 774 616 807 644 683 443 643L444 601 444 567 644 567C659 634 678 694 704 745 628 819 540 874 455 911L462 927C556 900 649 856 730 792 759 836 795 871 838 895 883 924 938 945 955 912 963 899 960 889 932 861L942 705 929 704C918 747 903 798 893 824 886 844 880 845 862 834 828 815 800 787 776 752 811 719 843 682 871 641 892 647 902 644 908 635L830 583C806 625 778 664 747 699 729 660 715 616 703 567L936 567C950 567 959 562 962 551 934 524 889 488 889 488L848 538 697 538C667 395 659 220 656 50 681 46 690 35 692 22L591 12C598 205 608 387 638 538L455 538 382 506ZM339 172L329 181C359 206 396 249 408 283 453 312 489 246 411 199 439 165 469 121 495 82 515 83 526 74 531 63L441 31C425 84 405 144 388 188 374 182 358 176 339 172ZM27 729L65 810C75 806 82 797 85 784 204 725 294 674 358 639L354 625 224 668 224 417 325 417 334 416 365 478C373 476 381 470 386 457 454 438 506 421 543 409 549 427 554 446 555 462 606 508 664 402 513 322L501 328C512 345 525 367 535 390L415 401C464 348 518 277 562 212 582 215 595 207 599 198L514 157C476 245 425 340 384 403L348 405C350 405 351 403 351 402 323 373 278 333 278 333L238 388 224 388 224 136 347 136C360 136 371 131 373 120 342 90 293 49 293 49L249 107 44 107 52 136 161 136 161 388 51 388 59 417 161 417 161 688C103 707 55 722 27 729ZM682 381L708 454C718 452 727 447 733 434 798 419 850 406 890 395 897 412 902 429 903 445 955 490 1009 379 851 302L839 310C853 327 868 349 880 373L755 379C805 327 858 260 902 197 922 200 935 193 940 183L857 142C817 226 766 318 724 380ZM682 165L672 174C701 198 735 242 744 277 788 307 826 240 748 192 776 161 806 120 831 84 851 85 862 77 867 66L777 33C761 84 742 140 726 180 714 175 699 170 682 165Z"/>
</svg>