<svg xmlns="http://www.w3.org/2000/svg" name="gid8686" data-unicode="璧"
    viewBox="0 0 1000 1000">
  <!--
© 2017-2024 Adobe (http://www.adobe.com/).
Noto is a trademark of Google Inc.
This Font Software is licensed under the SIL Open Font License, Version 1.1. This Font Software is distributed on an "AS IS" BASIS, WITHOUT WARRANTIES OR CONDITIONS OF ANY KIND, either express or implied. See the SIL Open Font License for the specific language, permissions and limitations governing your use of this Font Software.
http://scripts.sil.org/OFL
  -->
<path d="M608 785L599 795C638 816 689 856 710 888 771 917 800 801 608 785ZM125 616L133 645 467 645 467 749 167 749 174 778 467 778 467 903 46 903 54 932 930 932C944 932 955 927 957 916 923 886 870 844 870 844L822 903 532 903 532 778 841 778C855 778 864 773 867 762 835 732 784 693 784 693L739 749 532 749 532 645 874 645C888 645 897 640 899 629 867 599 815 560 815 560L769 616ZM670 43L670 142 501 142 509 172 567 172C586 201 605 248 603 288 651 334 713 239 591 172L774 172C765 212 751 264 737 301L473 301 481 330 670 330 670 418 502 418 510 448 670 448 670 586 680 586C712 586 733 573 733 569L733 448 913 448C926 448 936 443 938 432 909 404 862 367 862 367L821 418 733 418 733 330 936 330C950 330 959 325 962 315 932 286 884 249 884 249L842 301 762 301C789 272 817 237 835 210 855 210 867 201 871 189L803 172 917 172C931 172 941 167 943 156 913 127 865 90 865 90L822 142 733 142 733 79C756 76 766 66 768 53ZM403 385L403 503 222 503 222 385ZM119 99L119 193C119 312 112 453 32 573L44 585C110 525 144 451 162 378L162 587 170 587C202 587 222 572 222 566L222 532 403 532 403 576 413 576C432 576 464 561 465 555L465 394C482 391 497 383 503 377L428 320 394 356 235 356 172 328C176 305 178 282 179 260L398 260 398 291 407 291C427 291 458 277 459 271L459 140C478 136 495 128 501 121L422 62 388 99 192 99 119 67ZM398 128L398 232 180 232 181 193 181 128Z"/>
</svg>