<svg xmlns="http://www.w3.org/2000/svg" name="gid8687" data-unicode="璨"
    viewBox="0 0 1000 1000">
  <!--
© 2017-2024 Adobe (http://www.adobe.com/).
Noto is a trademark of Google Inc.
This Font Software is licensed under the SIL Open Font License, Version 1.1. This Font Software is distributed on an "AS IS" BASIS, WITHOUT WARRANTIES OR CONDITIONS OF ANY KIND, either express or implied. See the SIL Open Font License for the specific language, permissions and limitations governing your use of this Font Software.
http://scripts.sil.org/OFL
  -->
<path d="M803 462C786 501 746 575 714 621L725 629C772 594 823 548 851 519 869 523 883 516 886 508ZM426 484L415 492C442 521 475 571 484 611 541 655 596 540 426 484ZM407 182C388 248 352 327 318 373L333 383C361 362 387 333 410 303 432 323 453 349 460 371 478 382 494 377 501 365 456 424 396 475 324 509L332 525C489 469 586 367 640 246 661 245 671 243 679 234L611 174 572 212 535 212 535 144 661 144C674 144 683 139 685 128 661 104 623 71 623 71L589 116 535 116 535 79C558 76 567 66 569 53L476 43 476 210ZM452 241L572 241C555 283 532 324 504 361 514 340 497 301 423 285 434 271 443 256 452 241ZM692 115L701 143 851 143C839 184 822 223 801 259 771 243 735 227 692 213L681 224C711 243 744 269 776 297 727 362 659 415 568 453L575 469C678 438 755 391 813 332 848 368 878 407 892 441 952 473 980 379 850 289 881 247 905 201 922 150 944 149 954 146 961 137L888 75 848 115ZM341 638L349 667 554 667C494 764 399 852 285 916L295 932C425 877 534 802 608 705L608 959 621 959C643 959 670 946 670 938L670 667C726 777 819 862 917 912 924 882 945 863 969 860L970 849C871 818 761 751 697 667L940 667C954 667 964 662 965 651 935 622 884 582 884 582L840 638 670 638 670 503C695 500 704 490 706 477L608 465 608 638ZM28 791L64 872C73 869 82 859 84 848 209 787 305 735 372 700L368 686 228 731 228 462 334 462C348 462 357 457 360 446 333 417 287 376 287 376L246 433 228 433 228 174 346 174C359 174 369 169 371 158 341 128 292 87 292 87L248 144 43 144 51 174 164 174 164 433 50 433 58 462 164 462 164 752C105 770 56 784 28 791Z"/>
</svg>