<svg xmlns="http://www.w3.org/2000/svg"
    viewBox="0 0 1000 1000">
  <!--
© 2017-2023 Adobe (http://www.adobe.com/).
Noto is a trademark of Google Inc.
This Font Software is licensed under the SIL Open Font License, Version 1.1. This Font Software is distributed on an "AS IS" BASIS, WITHOUT WARRANTIES OR CONDITIONS OF ANY KIND, either express or implied. See the SIL Open Font License for the specific language, permissions and limitations governing your use of this Font Software.
http://scripts.sil.org/OFL
  -->
<path d="M27 727L67 806C76 802 84 792 86 779 207 713 301 655 366 616L360 603 227 655 227 413 327 413C340 413 350 409 352 398 325 369 279 329 279 329L239 385 227 385 227 144 346 144C359 144 369 139 371 128 341 98 291 57 291 57L248 115 42 115 50 144 163 144 163 385 50 385 58 413 163 413 163 679C104 701 55 718 27 727ZM584 375L584 444 326 444 334 473 468 473C445 548 398 643 334 702L345 715C400 682 447 634 482 585 506 609 529 638 539 663 595 696 638 598 497 562 509 545 518 527 526 511 550 513 558 507 563 497L502 473 726 473C712 538 678 616 625 666L585 662 585 726 290 726 298 755 585 755 585 931 597 931C621 931 648 917 648 910L648 755 942 755C956 755 965 750 968 739 934 708 880 667 880 667L876 671C886 643 860 590 757 565 768 547 778 529 786 511 810 513 817 506 822 496L754 473 915 473C929 473 939 468 942 457 908 427 856 389 856 389L810 444 648 444 648 405C664 401 671 394 672 384ZM648 726L648 694C668 690 675 683 677 672L656 670C691 646 720 616 743 584 778 612 814 652 827 685 841 693 854 693 863 688L831 726ZM362 72L371 101 468 101C439 145 382 202 326 234L337 248C406 225 475 185 512 149 534 154 543 150 548 141L548 234 504 211C472 262 402 328 336 366L346 381C426 353 504 304 548 262L548 372 557 372C576 372 607 358 608 351L608 112C627 108 642 100 649 92L572 34 538 72ZM548 141L475 101 548 101ZM649 72L658 101 766 101C740 143 687 195 634 226L645 240C709 221 775 184 811 151 829 155 839 153 844 145L844 226 809 207C776 255 705 317 638 351L648 365C723 343 799 304 844 266L844 372 853 372C874 372 905 358 906 351L906 112C925 108 941 100 948 93L870 33 834 72ZM844 141L771 101 844 101Z"/>
</svg>