<svg xmlns="http://www.w3.org/2000/svg"
    viewBox="0 0 1000 1000">
  <!--
© 2017-2023 Adobe (http://www.adobe.com/).
Noto is a trademark of Google Inc.
This Font Software is licensed under the SIL Open Font License, Version 1.1. This Font Software is distributed on an "AS IS" BASIS, WITHOUT WARRANTIES OR CONDITIONS OF ANY KIND, either express or implied. See the SIL Open Font License for the specific language, permissions and limitations governing your use of this Font Software.
http://scripts.sil.org/OFL
  -->
<path d="M141 364L149 394 382 394C396 394 405 389 408 378 381 352 337 317 337 317L299 364ZM227 12C220 55 209 102 194 148L41 148 49 177 184 177C150 271 99 363 28 429L37 441C135 376 203 276 247 177L321 177C351 273 410 357 481 412 490 381 507 363 532 359L533 348C462 314 386 250 346 177L499 177C512 177 522 172 525 161 494 132 443 91 443 91L400 148 260 148C273 116 283 85 292 55 317 54 324 48 328 37ZM61 493L69 522 174 522C160 578 132 665 112 705 137 713 161 714 175 706L194 649 361 649C351 759 331 827 311 844 302 851 294 852 279 852 260 852 204 848 171 846L170 862C201 867 230 874 242 884 255 892 258 910 257 927 291 927 324 918 347 901 386 872 411 791 421 655 442 653 454 649 460 641L388 582 354 619 204 619 234 522 468 522C482 522 491 517 494 506 464 478 416 440 416 440L374 493ZM562 814L600 893C609 890 618 884 623 872 702 846 764 823 809 807 814 832 817 857 817 880 868 935 927 807 780 667L766 672C780 704 795 746 805 788L742 796 742 113C771 107 800 101 828 95 829 408 839 750 929 930 937 898 953 874 982 866L985 859C887 697 859 376 851 89L903 75C921 81 931 81 939 72L864 13C790 50 695 84 611 107L545 84 545 379C545 565 531 758 419 915L434 927C590 772 604 551 604 379L604 133 687 122 687 802C634 808 589 812 562 814Z"/>
</svg>