<svg xmlns="http://www.w3.org/2000/svg" name="gid8726" data-unicode="瓫"
    viewBox="0 0 1000 1000">
  <!--
© 2017-2024 Adobe (http://www.adobe.com/).
Noto is a trademark of Google Inc.
This Font Software is licensed under the SIL Open Font License, Version 1.1. This Font Software is distributed on an "AS IS" BASIS, WITHOUT WARRANTIES OR CONDITIONS OF ANY KIND, either express or implied. See the SIL Open Font License for the specific language, permissions and limitations governing your use of this Font Software.
http://scripts.sil.org/OFL
  -->
<path d="M284 96C236 175 135 262 40 315L49 329C161 292 279 220 339 150 356 154 367 152 372 143ZM404 674L397 690C465 721 510 768 527 797 590 829 625 695 404 674ZM53 495L62 523 309 523C289 621 256 768 231 863 157 868 96 871 54 872L102 958C111 955 120 949 126 937 358 904 526 879 648 856L648 866C648 918 668 941 735 941L857 941C933 941 960 922 960 896 960 883 954 879 928 871L928 767 915 766C909 807 899 846 892 867 888 878 884 881 852 881L742 881C718 881 712 878 712 860 712 832 721 772 737 648 756 647 770 642 776 635L696 574 666 612 356 612 375 523 931 523C946 523 956 518 959 508 924 477 871 436 871 436L823 495ZM649 834L298 859C314 798 333 717 350 641L671 641C661 741 653 796 649 834ZM243 237L252 265 412 265C378 364 295 420 148 458L154 475C328 447 443 390 490 265L659 265C650 336 636 383 623 395 617 400 611 402 598 402 582 402 521 398 488 394L487 411C519 415 555 424 567 434 580 444 584 458 584 473 615 473 643 466 662 453 695 429 712 368 725 273 744 270 757 266 763 259L689 199 653 237ZM382 85L391 114 636 114C684 204 791 279 912 326 919 301 942 279 969 273L970 261C834 234 711 177 663 115 692 113 715 107 726 96L642 41 612 85Z"/>
</svg>