<svg xmlns="http://www.w3.org/2000/svg" name="gid8753" data-unicode="甗"
    viewBox="0 0 1000 1000">
  <!--
© 2017-2024 Adobe (http://www.adobe.com/).
Noto is a trademark of Google Inc.
This Font Software is licensed under the SIL Open Font License, Version 1.1. This Font Software is distributed on an "AS IS" BASIS, WITHOUT WARRANTIES OR CONDITIONS OF ANY KIND, either express or implied. See the SIL Open Font License for the specific language, permissions and limitations governing your use of this Font Software.
http://scripts.sil.org/OFL
  -->
<path d="M699 461L685 467C713 520 743 605 739 671 794 729 861 591 699 461ZM175 432L183 461 522 461C536 461 545 456 548 445 522 422 485 393 485 393L451 432ZM820 351C818 515 819 691 845 811L640 850C655 713 669 520 679 351ZM540 125L548 154 629 154C626 340 600 686 577 860L534 867 566 951C575 949 584 941 589 929 699 888 785 852 848 827 857 863 868 892 882 914 904 948 940 970 964 950 974 940 969 920 954 888L968 750 957 748C948 777 939 810 928 842 924 854 920 855 914 846 881 779 875 529 885 364 905 361 919 354 925 347L849 282 811 322 681 322 689 154 932 154C947 154 956 149 959 138 926 108 873 66 873 66L826 125ZM242 801L250 831 314 831 314 942 322 942C349 942 367 929 367 925L367 831 427 831C439 831 448 826 450 815 432 795 404 772 404 772L379 801ZM211 502L211 637 219 637C245 637 264 624 264 619L264 608 431 608 431 630 439 630C463 630 485 617 485 613L485 534C504 531 513 525 518 518L455 470 429 502 275 502 211 473ZM264 579L264 531 431 531 431 579ZM167 654L167 958 175 958C204 958 223 948 223 945L223 684 276 684C273 716 261 745 224 775L240 789C297 762 313 725 319 684L366 684 366 724C366 751 372 762 404 762L427 762C445 762 459 761 469 759L469 869C469 881 466 885 455 885 441 885 397 882 397 882L397 898C420 902 433 908 441 916 450 925 452 942 453 958 517 950 525 922 525 875L525 696C545 692 562 683 568 676L489 619 459 654 229 654 167 628ZM469 684L469 720 462 720C458 721 453 722 449 722 448 722 446 722 443 722 440 722 435 722 431 722L417 722C410 722 408 719 408 711L408 684ZM91 199L91 429C91 591 92 775 34 927L49 936C149 787 150 576 150 429L150 228 251 228 251 290 160 298 171 326 251 319 251 348C251 382 260 395 316 395L389 395C501 395 523 388 523 366 523 356 516 351 498 346L495 306 484 306C479 324 471 341 466 347 462 350 458 351 451 351 442 352 419 352 391 352L327 352C304 352 302 349 302 339L302 314 433 303C444 302 453 295 454 284 434 266 397 242 397 242L371 279 302 285 302 228 485 228C479 250 472 275 467 290L482 297C501 283 532 256 550 237 568 236 579 235 586 228L518 161 482 199 328 199 328 152 504 152C517 152 527 147 529 136 501 109 457 73 457 73L420 122 328 122 328 79C352 76 362 66 364 52L265 42 265 199 162 199 91 167Z"/>
</svg>