<svg xmlns="http://www.w3.org/2000/svg"
    viewBox="0 0 1000 1000">
  <!--
© 2017-2024 Adobe (http://www.adobe.com/).
Noto is a trademark of Google Inc.
This Font Software is licensed under the SIL Open Font License, Version 1.1. This Font Software is distributed on an "AS IS" BASIS, WITHOUT WARRANTIES OR CONDITIONS OF ANY KIND, either express or implied. See the SIL Open Font License for the specific language, permissions and limitations governing your use of this Font Software.
http://scripts.sil.org/OFL
  -->
<path d="M310 155L305 172C425 209 503 258 545 304L556 311 232 311 155 278 155 928 165 928C198 928 219 911 219 906L219 679 463 679 463 920 473 920C506 920 527 904 527 900L527 679 775 679 775 824C775 838 770 844 752 844 733 844 638 837 638 837L638 853C680 859 704 866 718 877 730 888 736 906 739 926 829 917 840 884 840 832L840 355C862 352 880 343 888 334L800 268 764 311 598 311C622 296 624 255 554 217 636 189 740 149 799 119 823 118 834 116 843 109L764 34 716 79 153 79 162 107 689 107C643 138 579 176 528 205 481 184 411 166 310 155ZM463 340L463 481 219 481 219 340ZM527 340L775 340 775 481 527 481ZM463 509L463 650 219 650 219 509ZM527 509L775 509 775 650 527 650Z"/>
</svg>