<svg xmlns="http://www.w3.org/2000/svg"
    viewBox="0 0 1000 1000">
  <!--
© 2017-2024 Adobe (http://www.adobe.com/).
Noto is a trademark of Google Inc.
This Font Software is licensed under the SIL Open Font License, Version 1.1. This Font Software is distributed on an "AS IS" BASIS, WITHOUT WARRANTIES OR CONDITIONS OF ANY KIND, either express or implied. See the SIL Open Font License for the specific language, permissions and limitations governing your use of this Font Software.
http://scripts.sil.org/OFL
  -->
<path d="M464 209L464 383 206 383 206 209ZM141 180L141 703 152 703C179 703 206 687 206 680L206 617 464 617 464 929 477 929C502 929 530 912 530 902L530 617 793 617 793 690 803 690C825 690 858 675 859 668L859 222C879 218 895 210 902 202L820 138 783 180 530 180 530 52C556 48 564 37 567 23L464 13 464 180 213 180 141 146ZM530 209L793 209 793 383 530 383ZM464 589L206 589 206 412 464 412ZM530 589L530 412 793 412 793 589Z"/>
</svg>