<svg xmlns="http://www.w3.org/2000/svg" name="gid8782" data-unicode="画"
    viewBox="0 0 1000 1000">
  <!--
© 2017-2024 Adobe (http://www.adobe.com/).
Noto is a trademark of Google Inc.
This Font Software is licensed under the SIL Open Font License, Version 1.1. This Font Software is distributed on an "AS IS" BASIS, WITHOUT WARRANTIES OR CONDITIONS OF ANY KIND, either express or implied. See the SIL Open Font License for the specific language, permissions and limitations governing your use of this Font Software.
http://scripts.sil.org/OFL
  -->
<path d="M262 273L262 783 272 783C299 783 322 769 322 762L322 712 676 712 676 777 685 777C706 777 737 761 738 755L738 314C757 310 772 302 779 295L701 234 666 273 532 273 532 139 931 139C945 139 955 134 958 123 921 91 863 48 863 48L812 110 46 110 55 139 468 139 468 273 328 273 262 242ZM841 258L841 844 155 844 155 296C180 293 188 283 190 269L91 258 91 957 103 957C127 957 155 941 155 932L155 874 841 874 841 950 854 950C878 950 905 935 905 926L905 295C930 292 939 282 941 269ZM468 303L468 468 322 468 322 303ZM532 303L676 303 676 468 532 468ZM468 497L468 683 322 683 322 497ZM532 497L676 497 676 683 532 683Z"/>
</svg>