<svg xmlns="http://www.w3.org/2000/svg"
    viewBox="0 0 1000 1000">
  <!--
© 2017-2024 Adobe (http://www.adobe.com/).
Noto is a trademark of Google Inc.
This Font Software is licensed under the SIL Open Font License, Version 1.1. This Font Software is distributed on an "AS IS" BASIS, WITHOUT WARRANTIES OR CONDITIONS OF ANY KIND, either express or implied. See the SIL Open Font License for the specific language, permissions and limitations governing your use of this Font Software.
http://scripts.sil.org/OFL
  -->
<path d="M465 258L465 395 257 395 257 258ZM465 228L257 228 257 98 465 98ZM529 258L749 258 749 395 529 395ZM529 228L529 98 749 98 749 228ZM192 69L192 487 203 487C230 487 257 471 257 464L257 424 749 424 749 473 758 473C780 473 813 458 814 451L814 111C834 107 850 98 856 90L775 29 739 69 263 69 192 37ZM49 536L58 564 324 564C321 726 307 834 56 912L68 929C363 857 387 744 395 564L622 564 622 925 632 925C667 925 689 911 689 907L689 564 931 564C945 564 956 559 959 548 924 518 871 476 871 476L823 536Z"/>
</svg>