<svg xmlns="http://www.w3.org/2000/svg" name="gid8790" data-unicode="畆"
    viewBox="0 0 1000 1000">
  <!--
© 2017-2024 Adobe (http://www.adobe.com/).
Noto is a trademark of Google Inc.
This Font Software is licensed under the SIL Open Font License, Version 1.1. This Font Software is distributed on an "AS IS" BASIS, WITHOUT WARRANTIES OR CONDITIONS OF ANY KIND, either express or implied. See the SIL Open Font License for the specific language, permissions and limitations governing your use of this Font Software.
http://scripts.sil.org/OFL
  -->
<path d="M678 63C660 259 616 587 561 830L484 839 518 929C528 927 538 919 543 908 682 867 791 834 873 806 884 847 892 887 894 923 976 1002 1025 776 771 494L756 500C794 580 840 686 868 786 762 802 661 817 584 827 663 586 725 287 755 107 780 107 792 102 795 87ZM247 42L247 210 39 210 47 239 526 239C540 239 550 234 552 223 520 192 467 150 467 150L421 210 314 210 314 77C336 73 345 64 347 52ZM154 593L252 593 252 818 154 818ZM154 564L154 365 252 365 252 564ZM413 593L413 818 310 818 310 593ZM413 564L310 564 310 365 413 365ZM93 336L93 941 103 941C131 941 154 926 154 918L154 847 413 847 413 925 422 925C443 925 474 909 475 903L475 377C494 373 510 365 517 357L438 296 403 336 159 336 93 305Z"/>
</svg>