<svg xmlns="http://www.w3.org/2000/svg" name="gid8792" data-unicode="畈"
    viewBox="0 0 1000 1000">
  <!--
© 2017-2024 Adobe (http://www.adobe.com/).
Noto is a trademark of Google Inc.
This Font Software is licensed under the SIL Open Font License, Version 1.1. This Font Software is distributed on an "AS IS" BASIS, WITHOUT WARRANTIES OR CONDITIONS OF ANY KIND, either express or implied. See the SIL Open Font License for the specific language, permissions and limitations governing your use of this Font Software.
http://scripts.sil.org/OFL
  -->
<path d="M337 168L337 419 261 419 261 168ZM76 139L76 859 87 859C113 859 133 844 133 838L133 739 337 739 337 816 345 816C365 816 392 801 393 794L393 179C412 175 429 168 435 160L361 102 327 139 138 139 76 109ZM208 168L208 419 133 419 133 168ZM133 448L208 448 208 711 133 711ZM337 448L337 711 261 711 261 448ZM470 124L470 393C470 588 453 788 333 948L348 959C516 801 531 574 531 392L570 392C592 537 632 655 693 751 640 825 570 890 480 941L491 956C589 913 664 857 722 792 774 859 838 913 915 956 928 925 953 907 981 906L984 896C897 860 822 809 761 744 834 643 875 526 902 402 922 400 933 397 940 388L869 323 827 364 531 364 531 153 937 153C950 153 960 148 962 137 931 107 879 65 879 65L834 124 543 124 470 92ZM833 392C814 504 780 609 725 701 661 618 616 515 590 392Z"/>
</svg>