<svg xmlns="http://www.w3.org/2000/svg" name="gid8795" data-unicode="畋"
    viewBox="0 0 1000 1000">
  <!--
© 2017-2024 Adobe (http://www.adobe.com/).
Noto is a trademark of Google Inc.
This Font Software is licensed under the SIL Open Font License, Version 1.1. This Font Software is distributed on an "AS IS" BASIS, WITHOUT WARRANTIES OR CONDITIONS OF ANY KIND, either express or implied. See the SIL Open Font License for the specific language, permissions and limitations governing your use of this Font Software.
http://scripts.sil.org/OFL
  -->
<path d="M84 129L84 860 95 860C121 860 141 845 141 837L141 770 363 770 363 834 371 834C392 834 420 817 421 810L421 502 432 509C473 468 510 416 542 358 563 475 595 583 645 678 572 785 468 875 323 947L333 961C484 902 594 825 674 729 731 818 807 893 910 950 920 919 943 902 973 898L976 889C861 840 774 770 709 683 786 573 830 442 854 288L939 288C954 288 963 283 965 272 932 242 879 198 879 198L831 258 590 258C611 206 630 151 645 94 667 94 678 84 682 72L580 48C553 219 491 383 421 493L421 169C440 166 456 158 462 150L387 90 354 129 146 129 84 98ZM674 631C619 542 583 439 558 327L577 288 780 288C764 416 731 531 674 631ZM363 158L363 430 278 430 278 158ZM224 158L224 430 141 430 141 158ZM141 458L224 458 224 740 141 740ZM363 458L363 740 278 740 278 458Z"/>
</svg>