<svg xmlns="http://www.w3.org/2000/svg" name="gid8796" data-unicode="界"
    viewBox="0 0 1000 1000">
  <!--
© 2017-2024 Adobe (http://www.adobe.com/).
Noto is a trademark of Google Inc.
This Font Software is licensed under the SIL Open Font License, Version 1.1. This Font Software is distributed on an "AS IS" BASIS, WITHOUT WARRANTIES OR CONDITIONS OF ANY KIND, either express or implied. See the SIL Open Font License for the specific language, permissions and limitations governing your use of this Font Software.
http://scripts.sil.org/OFL
  -->
<path d="M467 288L467 425 249 425 249 288ZM467 258L249 258 249 127 467 127ZM531 288L758 288 758 425 531 425ZM531 258L531 127 758 127 758 258ZM602 561L602 958 615 958C638 958 666 943 666 935L666 594C678 592 686 589 690 584 754 631 830 668 908 694 916 663 935 642 963 636L964 626C827 598 673 539 593 454L758 454 758 498 768 498C789 498 823 482 824 476L824 140C843 136 859 128 866 120L785 58 748 99 254 99 183 66 183 506 194 506C222 506 249 490 249 483L249 454 372 454C301 555 185 637 42 691L50 708C161 677 257 634 334 578L334 672C334 776 292 879 84 944L93 959C350 900 396 784 398 674L398 596C422 593 429 583 431 571L353 563C394 531 429 495 457 454L566 454C593 497 628 535 669 568Z"/>
</svg>