<svg xmlns="http://www.w3.org/2000/svg"
    viewBox="0 0 1000 1000">
  <!--
© 2017-2024 Adobe (http://www.adobe.com/).
Noto is a trademark of Google Inc.
This Font Software is licensed under the SIL Open Font License, Version 1.1. This Font Software is distributed on an "AS IS" BASIS, WITHOUT WARRANTIES OR CONDITIONS OF ANY KIND, either express or implied. See the SIL Open Font License for the specific language, permissions and limitations governing your use of this Font Software.
http://scripts.sil.org/OFL
  -->
<path d="M80 78L88 107 901 107C915 107 925 102 927 91 896 61 842 20 842 20L797 78ZM779 697L779 840 529 840 529 697ZM779 668L529 668 529 536 779 536ZM466 697L466 840 214 840 214 697ZM466 668L214 668 214 536 466 536ZM150 507L150 927 161 927C187 927 214 912 214 905L214 870 779 870 779 922 789 922C811 922 843 906 844 900L844 549C864 545 880 537 887 529L806 467 769 507 221 507 150 475ZM236 201L236 452 246 452C272 452 300 437 300 432L300 398 692 398 692 442 702 442C723 442 756 427 757 421L757 242C776 238 792 230 799 222L718 161 683 201 305 201 236 170ZM692 369L300 369 300 230 692 230Z"/>
</svg>