<svg xmlns="http://www.w3.org/2000/svg" name="gid8801" data-unicode="畑"
    viewBox="0 0 1000 1000">
  <!--
© 2017-2024 Adobe (http://www.adobe.com/).
Noto is a trademark of Google Inc.
This Font Software is licensed under the SIL Open Font License, Version 1.1. This Font Software is distributed on an "AS IS" BASIS, WITHOUT WARRANTIES OR CONDITIONS OF ANY KIND, either express or implied. See the SIL Open Font License for the specific language, permissions and limitations governing your use of this Font Software.
http://scripts.sil.org/OFL
  -->
<path d="M106 266C110 364 80 431 57 452 7 498 53 543 99 503 139 466 149 385 122 265ZM640 826L492 826 492 490 640 490ZM702 826L702 490 849 490 849 826ZM205 53C205 493 226 761 37 932L51 950C166 869 220 763 245 626 293 677 343 749 355 808 423 859 473 712 249 601 259 538 264 468 266 390 317 354 370 310 399 281 413 286 424 284 429 278L429 940 440 940C470 940 492 923 492 914L492 855 849 855 849 922 858 922C882 922 912 905 913 897L913 168C935 164 953 155 960 146L876 80 838 124 498 124 429 91 429 268 350 212C334 247 299 309 267 358 268 277 268 188 268 91 292 88 301 78 304 64ZM640 460L492 460 492 153 640 153ZM702 460L702 153 849 153 849 460Z"/>
</svg>