<svg xmlns="http://www.w3.org/2000/svg" name="gid8823" data-unicode="畭"
    viewBox="0 0 1000 1000">
  <!--
© 2017-2024 Adobe (http://www.adobe.com/).
Noto is a trademark of Google Inc.
This Font Software is licensed under the SIL Open Font License, Version 1.1. This Font Software is distributed on an "AS IS" BASIS, WITHOUT WARRANTIES OR CONDITIONS OF ANY KIND, either express or implied. See the SIL Open Font License for the specific language, permissions and limitations governing your use of this Font Software.
http://scripts.sil.org/OFL
  -->
<path d="M772 621L760 628C804 692 861 790 871 865 941 925 1001 765 772 621ZM492 614C467 719 420 817 367 878L381 889C450 840 509 761 547 664 569 667 580 658 585 648ZM322 159L322 424 248 424 248 159ZM685 89C728 212 819 321 915 393 921 368 943 346 970 339L972 325C863 269 756 182 701 78 723 76 732 71 735 61L625 37C595 150 480 311 378 400L378 170C397 166 414 158 420 150L346 91 312 129 130 129 70 99 70 850 80 850C106 850 125 836 125 829L125 757 322 757 322 825 330 825C350 825 377 809 378 803L378 421C501 345 625 215 685 89ZM197 159L197 424 125 424 125 159ZM125 452L197 452 197 728 125 728ZM322 452L322 728 248 728 248 452ZM405 516L413 545 629 545 629 857C629 872 625 877 607 877 587 877 492 870 492 870L492 886C535 891 560 899 573 910 586 920 591 938 592 957 681 949 693 911 693 860L693 545 915 545C929 545 939 540 942 529 910 499 858 457 858 457L812 516 693 516 693 388 834 388C847 388 857 383 859 372 831 344 787 308 787 308L748 359 479 359 487 388 629 388 629 516Z"/>
</svg>