<svg xmlns="http://www.w3.org/2000/svg" name="gid8829" data-unicode="畴"
    viewBox="0 0 1000 1000">
  <!--
© 2017-2024 Adobe (http://www.adobe.com/).
Noto is a trademark of Google Inc.
This Font Software is licensed under the SIL Open Font License, Version 1.1. This Font Software is distributed on an "AS IS" BASIS, WITHOUT WARRANTIES OR CONDITIONS OF ANY KIND, either express or implied. See the SIL Open Font License for the specific language, permissions and limitations governing your use of this Font Software.
http://scripts.sil.org/OFL
  -->
<path d="M521 660L511 668C551 703 596 764 605 814 672 862 726 723 521 660ZM587 42C586 86 585 129 582 171L406 171 414 200 579 200C577 233 573 266 568 298L422 298 430 327 564 327C558 364 551 399 543 434L372 434 379 463 535 463C523 510 508 555 490 598L384 598 392 627 478 627C432 728 370 818 288 892L301 905C404 827 478 733 532 627L755 627 755 865C755 879 751 885 734 885 714 885 621 878 621 878L621 893C662 898 686 905 699 915 712 925 717 941 719 959 807 951 817 920 817 869L817 627 942 627C955 627 965 622 967 611 938 582 889 544 889 544L846 598 817 598 817 523C839 520 849 512 852 498L755 487 755 598 546 598C566 555 583 510 597 463L940 463C954 463 963 458 966 447 934 418 883 377 883 377L837 434 605 434C615 399 623 364 630 327L893 327C905 327 915 322 917 311 887 283 836 243 836 243L794 298 635 298C640 266 645 233 648 200L921 200C935 200 944 195 947 184 915 155 863 114 863 114L818 171 652 171 659 77C690 76 698 69 700 56ZM303 153L303 424 240 424 240 153ZM70 123L70 849 80 849C106 849 125 835 125 828L125 765 303 765 303 818 311 818C332 818 359 802 360 796L360 164C379 160 396 152 402 144L327 85 294 123 130 123 70 93ZM188 153L188 424 125 424 125 153ZM125 453L188 453 188 735 125 735ZM303 453L303 735 240 735 240 453Z"/>
</svg>