<svg xmlns="http://www.w3.org/2000/svg" name="gid8831" data-unicode="當"
    viewBox="0 0 1000 1000">
  <!--
© 2017-2024 Adobe (http://www.adobe.com/).
Noto is a trademark of Google Inc.
This Font Software is licensed under the SIL Open Font License, Version 1.1. This Font Software is distributed on an "AS IS" BASIS, WITHOUT WARRANTIES OR CONDITIONS OF ANY KIND, either express or implied. See the SIL Open Font License for the specific language, permissions and limitations governing your use of this Font Software.
http://scripts.sil.org/OFL
  -->
<path d="M225 58L215 66C256 101 302 161 309 212 376 260 429 115 225 58ZM257 333L257 559 267 559C293 559 321 544 321 538L321 509 681 509 681 548 691 548C712 548 745 534 746 528L746 373C763 370 778 361 783 354L706 297 672 333 326 333 257 303ZM321 480L321 363 681 363 681 480ZM239 764L466 764 466 870 239 870ZM239 735L239 632 466 632 466 735ZM765 764L765 870 530 870 530 764ZM765 735L530 735 530 632 765 632ZM173 602L173 956 184 956C210 956 239 941 239 934L239 899 765 899 765 951 775 951C797 951 830 936 831 930L831 644C850 640 865 632 872 624L792 563 755 602 244 602 173 570ZM715 51C691 102 652 172 618 223L532 223 532 79C556 75 566 66 568 52L466 42 466 223 178 223C176 207 172 189 166 170L148 171C155 237 120 297 81 318 59 331 46 352 55 373 67 396 103 394 128 378 155 358 181 315 180 252L840 252C830 283 815 322 805 346L817 354C851 331 896 293 921 264 940 263 952 262 960 254L881 179 838 223 650 223C696 186 746 140 778 103 800 105 813 98 819 86Z"/>
</svg>