<svg xmlns="http://www.w3.org/2000/svg" name="gid8832" data-unicode="畷"
    viewBox="0 0 1000 1000">
  <!--
© 2017-2024 Adobe (http://www.adobe.com/).
Noto is a trademark of Google Inc.
This Font Software is licensed under the SIL Open Font License, Version 1.1. This Font Software is distributed on an "AS IS" BASIS, WITHOUT WARRANTIES OR CONDITIONS OF ANY KIND, either express or implied. See the SIL Open Font License for the specific language, permissions and limitations governing your use of this Font Software.
http://scripts.sil.org/OFL
  -->
<path d="M429 201L419 211C451 231 487 259 518 289 488 351 446 407 388 450L397 465C465 427 514 379 551 325 567 344 580 364 588 382 636 407 661 339 582 273 603 231 619 185 630 139 651 137 661 135 668 126L600 68 562 105 396 105 405 134 567 134C560 171 550 208 537 244 509 228 473 213 429 201ZM674 210L664 222C700 241 740 267 779 297 735 359 677 412 600 451L608 466C697 432 765 384 815 327 857 364 891 404 908 441 968 469 987 372 849 284 880 240 903 192 920 140 941 138 952 136 960 127L890 67 851 105 671 105 680 134 854 134C842 178 825 219 803 258 768 241 725 224 674 210ZM644 521L648 535 590 484 552 521 388 521 397 551 557 551C550 593 540 633 527 671 495 655 456 639 408 626L398 637C433 657 473 686 508 719 469 807 408 884 316 941L325 957C429 907 498 838 545 757 565 780 580 802 589 824 643 851 668 774 574 702 594 656 609 607 620 557 636 556 645 554 652 548L653 551 687 551C701 642 722 719 755 784 707 849 639 902 546 943L554 958C652 926 725 882 780 827 814 880 858 924 914 960 924 933 944 916 968 913L970 903C908 875 857 836 816 786 867 721 898 644 919 558 941 556 950 554 958 545L887 483 849 521ZM853 551C839 621 817 685 783 742 749 688 724 624 708 551ZM314 158L314 430 248 430 248 158ZM79 129L79 854 89 854C114 854 134 840 134 833L134 770 314 770 314 827 322 827C343 827 370 811 371 805L371 167C388 164 404 157 410 149L338 93 305 129 139 129 79 99ZM196 158L196 430 134 430 134 158ZM134 458L196 458 196 740 134 740ZM314 458L314 740 248 740 248 458Z"/>
</svg>