<svg xmlns="http://www.w3.org/2000/svg" name="gid8833" data-unicode="畸"
    viewBox="0 0 1000 1000">
  <!--
© 2017-2024 Adobe (http://www.adobe.com/).
Noto is a trademark of Google Inc.
This Font Software is licensed under the SIL Open Font License, Version 1.1. This Font Software is distributed on an "AS IS" BASIS, WITHOUT WARRANTIES OR CONDITIONS OF ANY KIND, either express or implied. See the SIL Open Font License for the specific language, permissions and limitations governing your use of this Font Software.
http://scripts.sil.org/OFL
  -->
<path d="M464 545L464 824 473 824C497 824 520 811 520 805L520 752 642 752 642 793 651 793C670 793 699 779 700 773L700 577C713 575 724 569 729 563L666 514 635 545 525 545 464 517ZM520 722L520 574 642 574 642 722ZM695 77C715 74 723 65 725 53L631 45C630 87 630 127 623 164L410 164 418 193 617 193C597 271 545 338 409 391L421 407C555 366 622 314 656 254 722 290 799 346 830 394 904 421 911 280 667 233 673 220 677 206 681 193L927 193C941 193 950 188 953 178 921 148 872 109 872 109L827 164 687 164C692 136 693 107 695 77ZM394 435L402 464 793 464 793 864C793 878 788 885 769 885 746 885 640 877 640 877L640 892C688 897 714 904 729 914 743 923 749 939 751 956 841 948 855 915 855 866L855 464 952 464C965 464 974 459 977 448 946 418 895 376 895 376L850 435ZM321 159L321 420 248 420 248 159ZM70 130L70 854 80 854C106 854 125 840 125 832L125 749 321 749 321 817 329 817C349 817 376 801 376 794L376 170C396 166 413 159 419 151L345 93 311 130 130 130 70 100ZM197 159L197 420 125 420 125 159ZM125 448L197 448 197 719 125 719ZM321 448L321 719 248 719 248 448Z"/>
</svg>