<svg xmlns="http://www.w3.org/2000/svg"
    viewBox="0 0 1000 1000">
  <!--
© 2017-2024 Adobe (http://www.adobe.com/).
Noto is a trademark of Google Inc.
This Font Software is licensed under the SIL Open Font License, Version 1.1. This Font Software is distributed on an "AS IS" BASIS, WITHOUT WARRANTIES OR CONDITIONS OF ANY KIND, either express or implied. See the SIL Open Font License for the specific language, permissions and limitations governing your use of this Font Software.
http://scripts.sil.org/OFL
  -->
<path d="M393 69L401 97 923 97C937 97 947 92 950 82 916 52 866 13 866 13L820 69ZM391 459L399 487 932 487C946 487 956 483 959 472 926 443 875 405 875 405L830 459ZM345 877L353 906 942 906C956 906 965 901 967 890 936 860 883 820 883 820L837 877ZM35 722L76 793C85 790 93 782 96 770 178 738 240 710 283 690 274 773 262 821 246 836 237 844 230 847 213 847 194 847 146 842 115 840L115 857C143 862 171 870 182 879 194 889 196 907 196 926 232 926 266 915 292 890 331 848 352 718 360 435 380 433 393 427 400 419L325 358 289 398 139 398 147 273 289 273 289 323 298 323C318 323 350 309 351 302L351 107C370 103 385 95 392 88L314 27 279 66 60 66 69 95 289 95 289 243 163 243 90 210C87 275 77 391 67 474 101 478 117 476 133 466L136 427 297 427C295 529 290 610 284 673L191 692 191 598 266 598C279 598 288 593 290 582 270 559 238 531 238 531L211 568 191 568 191 505C208 502 215 495 216 484L137 477 137 568 49 568 57 598 137 598 137 703ZM512 286L629 286 629 362 512 362ZM806 286L806 362 687 362 687 286ZM512 258L512 185 629 185 629 258ZM806 258L687 258 687 185 806 185ZM451 155L451 437 460 437C492 437 512 423 512 418L512 392 806 392 806 426 816 426C845 426 868 412 868 408L868 189C888 185 898 179 904 172L833 119 804 155 522 155 451 125ZM504 692L630 692 630 776 504 776ZM816 692L816 776 688 776 688 692ZM504 663L504 581 630 581 630 663ZM816 663L688 663 688 581 816 581ZM443 552L443 851 453 851C484 851 504 836 504 831L504 805 816 805 816 839 826 839C854 839 878 825 878 820L878 585C898 582 907 576 914 569L843 516 813 552 516 552 443 521Z"/>
</svg>