<svg xmlns="http://www.w3.org/2000/svg" name="gid8853" data-unicode="疑"
    viewBox="0 0 1000 1000">
  <!--
© 2017-2024 Adobe (http://www.adobe.com/).
Noto is a trademark of Google Inc.
This Font Software is licensed under the SIL Open Font License, Version 1.1. This Font Software is distributed on an "AS IS" BASIS, WITHOUT WARRANTIES OR CONDITIONS OF ANY KIND, either express or implied. See the SIL Open Font License for the specific language, permissions and limitations governing your use of this Font Software.
http://scripts.sil.org/OFL
  -->
<path d="M141 371C129 464 100 555 65 616L81 625C111 596 139 557 161 512L233 512C232 558 231 602 226 643L39 643 47 672 222 672C206 780 163 871 42 945L56 961C178 902 236 828 265 740 305 777 348 830 361 873 425 914 467 789 272 717L282 672 450 672C464 672 473 667 476 656 447 628 400 589 400 589L358 643 286 643C291 602 294 558 295 512L433 512C446 512 455 508 458 497 430 469 383 433 383 433L344 483 175 483C184 461 193 438 200 414 221 414 231 404 234 393ZM509 516C508 707 465 869 367 950L381 962C460 915 511 837 541 740 587 902 664 943 790 943 826 943 900 943 933 943 934 918 945 897 965 894L965 881C921 882 833 882 795 882 767 882 741 880 718 876L718 643 909 643C923 643 932 638 934 627 904 597 856 558 856 558L813 613 718 613 718 403 861 403C847 443 824 495 807 527L821 535C859 504 905 451 931 413 950 412 962 410 968 403L898 335 860 374 450 374 459 403 656 403 656 854C611 829 578 783 552 701 563 655 570 606 574 554 597 552 607 541 609 528ZM361 86C320 114 243 154 174 181L174 77C191 74 201 65 203 53L113 43 113 299C113 344 126 359 197 359L290 359C427 359 455 348 455 320 455 308 449 302 429 295L426 214 413 214C405 249 395 284 389 294 384 300 380 301 370 301 359 302 329 302 292 302L208 302C177 302 174 300 174 286L174 203C250 190 332 166 383 146 406 154 422 154 431 146ZM558 197L549 208C614 243 700 309 731 365 785 388 810 316 726 257 792 222 867 174 908 130 930 129 943 128 951 121L876 50 834 92 471 92 480 120 826 120C795 160 747 208 705 244 671 224 623 207 558 197Z"/>
</svg>