<svg xmlns="http://www.w3.org/2000/svg"
    viewBox="0 0 1000 1000">
  <!--
© 2017-2024 Adobe (http://www.adobe.com/).
Noto is a trademark of Google Inc.
This Font Software is licensed under the SIL Open Font License, Version 1.1. This Font Software is distributed on an "AS IS" BASIS, WITHOUT WARRANTIES OR CONDITIONS OF ANY KIND, either express or implied. See the SIL Open Font License for the specific language, permissions and limitations governing your use of this Font Software.
http://scripts.sil.org/OFL
  -->
<path d="M473 607L467 622C545 657 607 707 630 738 699 765 730 629 473 607ZM391 851L448 930C457 926 464 919 469 906 657 846 789 799 882 762L878 746C674 793 478 837 391 851ZM64 194L51 200C79 250 107 328 106 389 162 446 230 312 64 194ZM709 316C679 363 641 407 596 448 550 417 510 381 480 339L502 316ZM517 168C476 271 384 390 284 465L293 479C355 448 414 404 464 355 490 401 523 442 562 477 475 549 365 608 247 649L256 665C391 631 508 578 603 511 686 573 789 617 903 646 912 614 932 594 961 589L962 578C848 560 738 527 647 478 704 432 751 380 789 324 815 323 826 320 833 312L762 245 715 286 527 286C546 262 563 238 576 214 594 218 605 215 609 205ZM26 570L68 651C77 644 82 632 83 621L198 500C187 648 150 790 39 907L52 919C245 777 265 564 265 386L265 152 932 152C946 152 955 147 958 136 925 105 872 64 872 64L825 122 588 122 588 48C612 44 621 35 623 21L521 12 521 122 277 122 201 86 201 387 199 467C126 513 55 555 26 570Z"/>
</svg>