<svg xmlns="http://www.w3.org/2000/svg" name="gid8880" data-unicode="疿"
    viewBox="0 0 1000 1000">
  <!--
© 2017-2024 Adobe (http://www.adobe.com/).
Noto is a trademark of Google Inc.
This Font Software is licensed under the SIL Open Font License, Version 1.1. This Font Software is distributed on an "AS IS" BASIS, WITHOUT WARRANTIES OR CONDITIONS OF ANY KIND, either express or implied. See the SIL Open Font License for the specific language, permissions and limitations governing your use of this Font Software.
http://scripts.sil.org/OFL
  -->
<path d="M68 225L55 231C82 279 108 354 104 413 160 471 230 338 68 225ZM820 346L820 462 707 462 707 346ZM473 206L473 317 303 317 311 346 473 346 473 462 389 462 320 433C312 497 293 614 277 698 310 704 324 702 340 694L349 641 467 641C450 763 398 866 272 944L284 957C445 882 507 771 526 641L646 641 646 955 658 955C681 955 707 940 707 931L707 641 855 641C850 723 843 762 832 771 827 775 822 777 810 777 795 777 762 775 741 774L740 790C759 794 778 800 786 808 796 817 798 835 798 850 827 850 852 844 871 830 901 809 912 761 916 647 935 645 947 640 953 633L882 575 847 611 707 611 707 492 820 492 820 530 828 530C848 530 878 516 879 511L879 357C898 353 913 345 920 337L843 280 810 317 707 317 707 247C731 243 740 232 742 218L646 207 646 317 533 317 533 243C558 239 566 230 568 216ZM646 346L646 462 533 462 533 346ZM371 492L473 492 473 536C473 562 472 587 470 611L354 611ZM646 492L646 611 529 611C532 587 533 562 533 537L533 492ZM517 44L517 153 259 153 186 116 186 452 186 505C119 548 55 587 27 603L72 682C82 676 87 663 87 652 126 606 160 565 185 534 179 686 155 831 57 948L73 959C234 824 248 623 248 451L248 182 932 182C946 182 956 177 959 166 925 136 873 95 873 95L827 153 580 153 580 79C604 75 612 66 614 53Z"/>
</svg>