<svg xmlns="http://www.w3.org/2000/svg"
    viewBox="0 0 1000 1000">
  <!--
© 2017-2024 Adobe (http://www.adobe.com/).
Noto is a trademark of Google Inc.
This Font Software is licensed under the SIL Open Font License, Version 1.1. This Font Software is distributed on an "AS IS" BASIS, WITHOUT WARRANTIES OR CONDITIONS OF ANY KIND, either express or implied. See the SIL Open Font License for the specific language, permissions and limitations governing your use of this Font Software.
http://scripts.sil.org/OFL
  -->
<path d="M68 195L55 201C82 249 108 324 104 383 160 441 230 308 68 195ZM371 183L371 274 370 348 272 348 281 378 369 378C363 555 334 765 198 909L213 922C384 786 422 562 431 378L526 378C521 658 508 785 483 810 475 819 468 821 452 821 434 821 393 817 366 815L366 833C390 837 415 845 425 855 435 864 437 880 437 899 470 899 504 888 526 863 564 821 580 695 586 385 606 382 618 378 625 370L552 309 517 348 432 348 433 277 433 219C457 216 465 206 467 193ZM649 299L649 915 660 915C687 915 710 900 710 893L710 810 852 810 852 905 861 905C883 905 912 889 913 882L913 337C930 334 945 327 951 320L878 263 843 299 713 299 649 269ZM710 781L710 329 852 329 852 781ZM517 14L517 123 259 123 186 86 186 419 185 479C118 519 54 554 27 568L70 648C79 642 84 630 85 619L184 509C178 656 153 797 57 911L73 922C234 788 248 589 248 418L248 152 932 152C946 152 956 147 959 136 925 106 873 65 873 65L827 123 580 123 580 49C604 45 612 36 614 23Z"/>
</svg>