<svg xmlns="http://www.w3.org/2000/svg"
    viewBox="0 0 1000 1000">
  <!--
© 2017-2023 Adobe (http://www.adobe.com/).
Noto is a trademark of Google Inc.
This Font Software is licensed under the SIL Open Font License, Version 1.1. This Font Software is distributed on an "AS IS" BASIS, WITHOUT WARRANTIES OR CONDITIONS OF ANY KIND, either express or implied. See the SIL Open Font License for the specific language, permissions and limitations governing your use of this Font Software.
http://scripts.sil.org/OFL
  -->
<path d="M61 194L48 200C75 250 101 329 98 389 156 448 225 314 61 194ZM372 234L381 263 536 263C477 369 381 465 265 533L275 549C426 482 544 386 615 263L627 263C677 371 787 464 912 525 920 499 944 477 971 469L973 458C833 419 707 341 654 265 685 262 709 257 718 244L633 189 603 234ZM349 680L357 710 568 710 568 867 263 867 271 896 933 896C948 896 957 891 960 880 928 851 877 810 877 810L832 867 634 867 634 710 846 710C860 710 870 705 872 694 843 666 796 629 796 629L755 680 634 680 634 544 812 544C825 544 834 540 837 529 808 501 761 464 761 464L721 515 373 515 381 544 568 544 568 680ZM26 569L68 648C77 642 83 630 83 619 126 577 163 538 193 507 183 657 148 799 40 916L54 928C240 784 259 571 259 392L259 143 934 143C948 143 958 138 960 127 928 97 875 56 875 56L828 114 586 114 586 48C609 44 618 35 620 21L522 12 522 114 271 114 196 79 196 393 195 472C123 516 55 555 26 569Z"/>
</svg>