<svg xmlns="http://www.w3.org/2000/svg" name="gid8892" data-unicode="痎"
    viewBox="0 0 1000 1000">
  <!--
© 2017-2024 Adobe (http://www.adobe.com/).
Noto is a trademark of Google Inc.
This Font Software is licensed under the SIL Open Font License, Version 1.1. This Font Software is distributed on an "AS IS" BASIS, WITHOUT WARRANTIES OR CONDITIONS OF ANY KIND, either express or implied. See the SIL Open Font License for the specific language, permissions and limitations governing your use of this Font Software.
http://scripts.sil.org/OFL
  -->
<path d="M64 223L50 229C78 279 107 357 105 418 163 476 231 340 64 223ZM734 401C652 544 477 697 279 780L288 794C507 726 690 587 783 457 807 462 816 458 823 448ZM290 316L298 346 552 346C530 387 497 441 467 483 438 465 397 450 343 439L334 448C386 482 455 545 480 593 531 619 561 556 491 499 538 458 598 398 642 346L921 346C935 346 945 341 948 330 915 300 862 258 862 258L816 316 630 316 630 242C652 238 660 229 662 216L564 206 564 316ZM27 598L73 677C82 671 87 658 88 648 132 601 168 558 195 526 187 678 152 822 39 942L53 954C242 812 262 601 262 424L262 187 933 187C947 187 957 183 959 172 927 141 873 99 873 99L826 158 588 158 588 78C612 74 621 65 623 51L521 42 521 158 274 158 198 122 198 425 197 497C126 542 57 583 27 598ZM837 537C734 705 515 863 260 943L266 959C433 921 581 853 698 771 764 818 849 896 881 952 958 987 983 840 716 758 785 707 842 651 883 594 906 601 916 598 923 588Z"/>
</svg>