<svg xmlns="http://www.w3.org/2000/svg"
    viewBox="0 0 1000 1000">
  <!--
© 2017-2024 Adobe (http://www.adobe.com/).
Noto is a trademark of Google Inc.
This Font Software is licensed under the SIL Open Font License, Version 1.1. This Font Software is distributed on an "AS IS" BASIS, WITHOUT WARRANTIES OR CONDITIONS OF ANY KIND, either express or implied. See the SIL Open Font License for the specific language, permissions and limitations governing your use of this Font Software.
http://scripts.sil.org/OFL
  -->
<path d="M64 194L51 200C79 250 107 328 106 389 162 446 230 312 64 194ZM520 170C509 214 496 256 481 297L284 297 292 327 470 327C415 461 338 572 254 649L267 661C324 624 376 578 422 521L422 929 432 929C464 929 485 912 485 907L485 722 798 722 798 830C798 845 793 852 774 852 751 852 646 844 646 844L646 860C692 864 719 873 734 883 749 894 754 910 757 928 851 919 863 887 863 837L863 470C883 467 900 457 905 450L822 388 788 428 498 428 490 425C509 394 526 362 542 327L932 327C946 327 956 322 959 311 925 281 875 243 875 243L829 297 555 297C565 273 574 247 583 221 605 221 617 212 622 201ZM798 588L798 692 485 692 485 588ZM798 558L485 558 485 457 798 457ZM26 570L68 651C77 644 82 632 83 621L197 500C187 649 150 791 40 908L53 920C245 778 264 564 264 387L264 152 932 152C946 152 955 147 958 136 925 105 872 64 872 64L825 122 588 122 588 48C612 44 621 35 623 21L521 12 521 122 276 122 200 86 200 388 198 467C125 514 55 555 26 570Z"/>
</svg>