<svg xmlns="http://www.w3.org/2000/svg" name="gid8900" data-unicode="痙"
    viewBox="0 0 1000 1000">
  <!--
© 2017-2024 Adobe (http://www.adobe.com/).
Noto is a trademark of Google Inc.
This Font Software is licensed under the SIL Open Font License, Version 1.1. This Font Software is distributed on an "AS IS" BASIS, WITHOUT WARRANTIES OR CONDITIONS OF ANY KIND, either express or implied. See the SIL Open Font License for the specific language, permissions and limitations governing your use of this Font Software.
http://scripts.sil.org/OFL
  -->
<path d="M292 273L300 303 905 303C919 303 929 298 931 287 899 256 848 217 848 217L804 273ZM398 327C386 357 342 437 317 480 370 522 408 589 420 631 474 667 540 560 345 477 378 445 436 390 456 368 471 371 481 365 483 358ZM588 328C577 357 536 436 512 478 563 520 600 586 611 627 664 664 730 558 540 475 573 444 627 389 648 367 662 370 671 365 674 356ZM61 224L48 230C75 280 101 359 98 419 156 478 225 344 61 224ZM789 327C775 358 726 438 698 480 757 521 804 589 819 631 825 634 830 637 836 637L799 678 301 678 308 708 562 708 562 887 239 887 246 916 939 916C953 916 963 912 965 901 933 870 882 831 882 831L836 887 629 887 629 708 897 708C910 708 919 703 922 692 898 672 865 648 849 637 889 627 898 543 728 476 764 446 824 390 845 368 861 371 870 367 873 358ZM26 599L68 678C77 672 83 660 83 649 126 607 163 568 193 537 183 687 148 830 41 947L55 959C240 815 259 601 259 422L259 173 934 173C948 173 958 168 960 157 928 127 875 86 875 86L828 144 586 144 586 78C609 74 618 65 620 51L522 42 522 144 271 144 196 109 196 423 195 502C123 546 55 585 26 599Z"/>
</svg>