<svg xmlns="http://www.w3.org/2000/svg"
    viewBox="0 0 1000 1000">
  <!--
© 2017-2023 Adobe (http://www.adobe.com/).
Noto is a trademark of Google Inc.
This Font Software is licensed under the SIL Open Font License, Version 1.1. This Font Software is distributed on an "AS IS" BASIS, WITHOUT WARRANTIES OR CONDITIONS OF ANY KIND, either express or implied. See the SIL Open Font License for the specific language, permissions and limitations governing your use of this Font Software.
http://scripts.sil.org/OFL
  -->
<path d="M658 354L658 474C658 514 668 528 730 528L807 528C923 528 949 518 949 491 949 481 945 474 925 468L922 389 910 389C902 423 894 455 888 467 884 474 880 475 872 475 864 475 839 476 810 476L744 476C719 476 716 474 716 464L716 388C733 385 742 376 744 364ZM478 356C461 436 412 514 287 559L295 574C442 536 506 469 535 401 557 401 568 394 572 380ZM69 195L56 201C83 249 112 325 110 384 168 441 234 309 69 195ZM28 575L69 656C78 650 84 637 84 626 129 581 167 539 197 506 187 655 150 796 40 913L55 925C245 782 265 567 265 389L265 152 531 152C509 197 476 256 446 304L295 307 329 388C339 386 349 380 355 368 544 347 684 329 791 313 814 337 832 361 842 383 915 421 941 269 687 212L678 221C707 239 741 265 771 293L488 303C528 270 567 233 593 204 614 207 628 200 633 189L540 152 936 152C950 152 959 147 962 136 929 105 876 64 876 64L829 122 588 122 588 48C612 44 621 35 623 21L521 12 521 122 278 122 201 86 201 389 199 473C126 519 57 560 28 575ZM522 498C481 589 390 694 284 755L293 769C360 744 420 706 471 664 496 707 527 745 563 777 470 837 351 881 215 909L222 926C375 905 502 867 604 809 687 866 791 902 913 926 920 892 940 871 969 864L969 853C853 841 744 817 656 776 712 737 759 690 796 634 821 633 832 630 840 622L769 556 724 596 540 596C553 581 565 565 575 550 597 552 605 549 611 539ZM602 749C556 721 518 688 488 649L513 625 718 625C688 672 649 713 602 749Z"/>
</svg>