<svg xmlns="http://www.w3.org/2000/svg"
    viewBox="0 0 1000 1000">
  <!--
© 2017-2023 Adobe (http://www.adobe.com/).
Noto is a trademark of Google Inc.
This Font Software is licensed under the SIL Open Font License, Version 1.1. This Font Software is distributed on an "AS IS" BASIS, WITHOUT WARRANTIES OR CONDITIONS OF ANY KIND, either express or implied. See the SIL Open Font License for the specific language, permissions and limitations governing your use of this Font Software.
http://scripts.sil.org/OFL
  -->
<path d="M428 221C427 274 393 324 360 341 341 352 329 370 337 387 347 407 378 403 400 389 433 367 466 309 445 221ZM409 570C407 621 370 670 336 687 317 699 305 718 313 737 324 757 357 754 378 740 412 716 444 658 427 571ZM61 194L48 200C75 250 101 329 98 389 156 448 225 314 61 194ZM814 205C785 251 730 322 686 373 662 367 634 360 605 355 622 309 625 261 629 211 649 208 657 198 659 186L563 176C560 330 555 458 282 550L294 567C483 517 562 449 598 373 697 413 825 489 877 554 952 577 947 451 710 380 764 341 828 292 864 259 880 265 892 264 897 255ZM811 556C780 597 724 654 677 695 647 645 632 585 624 514 644 511 653 501 655 489L559 480C557 663 553 809 242 913L253 930C540 851 600 738 617 608 643 759 709 868 905 926 911 891 932 880 965 875L965 864C822 832 738 783 689 713 749 683 823 643 862 612 878 617 890 616 896 607ZM26 569L68 648C77 642 83 630 83 619 126 577 163 538 193 507 183 657 148 800 41 917L55 929C240 785 259 571 259 392L259 143 934 143C948 143 958 138 960 127 928 97 875 56 875 56L828 114 586 114 586 48C609 44 618 35 620 21L522 12 522 114 271 114 196 79 196 393 195 472C123 516 55 555 26 569Z"/>
</svg>