<svg xmlns="http://www.w3.org/2000/svg" name="gid8919" data-unicode="痳"
    viewBox="0 0 1000 1000">
  <!--
© 2017-2024 Adobe (http://www.adobe.com/).
Noto is a trademark of Google Inc.
This Font Software is licensed under the SIL Open Font License, Version 1.1. This Font Software is distributed on an "AS IS" BASIS, WITHOUT WARRANTIES OR CONDITIONS OF ANY KIND, either express or implied. See the SIL Open Font License for the specific language, permissions and limitations governing your use of this Font Software.
http://scripts.sil.org/OFL
  -->
<path d="M68 225L55 231C82 279 108 354 104 413 160 471 230 338 68 225ZM396 219L396 397 260 397 268 427 376 427C348 573 296 713 212 823L226 836C301 762 357 676 396 579L396 953 410 953C432 953 455 944 455 939L455 513C483 550 515 602 525 642 586 688 642 569 455 491L455 427 568 427C578 427 586 424 588 417L591 427 689 427C658 573 601 708 506 813L519 828C609 748 673 653 715 544L715 952 727 952C750 952 776 938 776 929L776 486C805 625 851 738 918 813 928 780 950 763 975 759L978 748C895 686 823 563 785 427L934 427C948 427 957 422 960 411 930 381 883 342 883 342L840 397 776 397 776 262C798 258 806 249 808 237L715 226 715 397 583 397 585 404C558 376 518 344 518 344L478 397 455 397 455 254C477 251 485 243 488 229ZM517 44L517 153 259 153 186 116 186 452 185 509C118 549 54 584 27 598L70 678C79 672 84 660 85 649L185 538C179 689 154 832 57 948L73 959C234 824 248 623 248 451L248 182 932 182C946 182 956 177 959 166 925 136 873 95 873 95L827 153 580 153 580 79C604 75 612 66 614 53Z"/>
</svg>