<svg xmlns="http://www.w3.org/2000/svg" name="gid8925" data-unicode="痿"
    viewBox="0 0 1000 1000">
  <!--
© 2017-2024 Adobe (http://www.adobe.com/).
Noto is a trademark of Google Inc.
This Font Software is licensed under the SIL Open Font License, Version 1.1. This Font Software is distributed on an "AS IS" BASIS, WITHOUT WARRANTIES OR CONDITIONS OF ANY KIND, either express or implied. See the SIL Open Font License for the specific language, permissions and limitations governing your use of this Font Software.
http://scripts.sil.org/OFL
  -->
<path d="M68 225L55 231C82 279 108 354 104 413 160 471 230 338 68 225ZM274 374L282 402 506 402C446 473 358 536 256 580L265 597C389 558 496 500 569 421L569 584 579 584C611 584 633 569 633 563L633 402 637 402C698 491 799 555 906 590 913 562 931 543 956 539L957 528C852 509 737 464 668 402L924 402C938 402 947 397 950 386 918 358 868 319 868 319L824 374 633 374 633 286C701 279 764 270 817 262 838 272 855 273 865 266L803 203C689 236 478 272 307 287L311 307C395 306 484 300 569 292L569 374ZM510 575C498 597 477 631 452 667L256 667 265 697 430 697C394 746 355 796 326 826 347 841 374 846 392 843L424 803C480 814 534 827 584 842 501 890 387 919 238 939L242 958C427 943 557 916 648 862 743 893 819 927 864 956 925 971 946 881 703 822 741 789 771 748 793 697L930 697C944 697 954 692 956 681 923 652 872 615 872 615L826 667 525 667 558 619C583 620 595 612 600 598ZM503 697L715 697C696 741 668 777 632 808 578 798 514 790 438 784ZM517 44L517 152 259 152 186 115 186 451 185 509C118 549 54 584 27 598L70 678C79 672 84 660 85 649L185 539C179 688 153 831 57 947L73 958C234 823 248 622 248 450L248 181 932 181C946 181 956 176 959 165 925 135 873 94 873 94L827 152 580 152 580 79C604 75 612 66 614 53Z"/>
</svg>