<svg xmlns="http://www.w3.org/2000/svg" name="gid8929" data-unicode="瘃"
    viewBox="0 0 1000 1000">
  <!--
© 2017-2024 Adobe (http://www.adobe.com/).
Noto is a trademark of Google Inc.
This Font Software is licensed under the SIL Open Font License, Version 1.1. This Font Software is distributed on an "AS IS" BASIS, WITHOUT WARRANTIES OR CONDITIONS OF ANY KIND, either express or implied. See the SIL Open Font License for the specific language, permissions and limitations governing your use of this Font Software.
http://scripts.sil.org/OFL
  -->
<path d="M61 224L48 230C75 280 101 359 98 419 156 478 225 344 61 224ZM352 490L343 499C366 520 385 548 401 577 358 609 313 639 270 661L278 677C324 660 371 637 417 612 424 628 429 644 432 657 458 715 518 675 494 616 489 604 482 591 472 579 510 556 546 531 575 507 586 533 596 561 603 588 513 693 375 794 244 845L250 860C388 825 527 746 617 668 627 756 614 832 587 865 580 874 571 875 557 875 533 875 460 871 419 868L419 884C456 891 493 900 504 909 517 919 525 935 526 956 584 957 621 945 642 920 718 835 718 549 524 383 564 355 600 324 630 291L636 291C670 556 743 756 905 868 916 835 938 814 964 808L966 798C862 747 785 651 732 532 788 498 862 448 903 418 924 423 933 420 938 412L855 353C822 396 767 465 724 515 694 445 672 369 657 291L903 291C917 291 927 286 930 275 895 244 838 199 838 199L790 261 287 261 295 291 542 291C478 364 387 435 290 487L301 502C374 474 445 438 508 395 520 410 531 426 541 441 514 476 479 512 439 545 416 525 387 506 352 490ZM26 599L67 678C77 672 83 660 83 649 121 610 154 575 180 546 170 693 135 832 30 947L43 959C228 815 248 601 248 422L248 173 934 173C948 173 958 168 960 157 928 127 875 86 875 86L828 144 586 144 586 78C609 74 618 65 620 51L522 42 522 144 259 144 184 109 184 423 182 511C116 551 53 586 26 599Z"/>
</svg>