<svg xmlns="http://www.w3.org/2000/svg" name="gid8946" data-unicode="瘜"
    viewBox="0 0 1000 1000">
  <!--
© 2017-2024 Adobe (http://www.adobe.com/).
Noto is a trademark of Google Inc.
This Font Software is licensed under the SIL Open Font License, Version 1.1. This Font Software is distributed on an "AS IS" BASIS, WITHOUT WARRANTIES OR CONDITIONS OF ANY KIND, either express or implied. See the SIL Open Font License for the specific language, permissions and limitations governing your use of this Font Software.
http://scripts.sil.org/OFL
  -->
<path d="M538 676L529 685C575 711 632 761 652 802 721 833 746 694 538 676ZM773 717L764 727C822 765 890 834 910 893 984 937 1022 775 773 717ZM443 711L443 877C443 922 455 935 531 935L636 935C785 935 816 925 816 897 816 885 809 879 789 872L786 790 773 790C764 826 756 859 748 870 745 877 740 879 729 879 717 880 682 880 639 880L543 880C508 880 505 877 505 865L505 744C522 741 531 733 533 721ZM371 725C363 784 309 828 265 842 245 853 232 871 240 890 249 912 284 912 310 899 351 878 402 823 388 726ZM65 224L52 230C79 280 105 359 102 419 160 478 229 344 65 224ZM436 418L777 418 777 500 436 500ZM436 388L436 310 777 310 777 388ZM436 528L777 528 777 608 436 608ZM564 188C561 214 553 251 547 280L448 280 374 248 374 686 383 686C416 686 436 672 436 667L436 637 777 637 777 677 787 677C817 677 841 663 841 658L841 314C861 311 872 306 878 297L806 242 773 280 590 280 634 231C654 231 667 222 671 208ZM26 599L68 678C77 672 83 660 83 649 130 603 169 562 200 530 191 682 157 828 47 947L62 959C246 815 265 601 265 422L265 173 934 173C948 173 958 168 960 157 928 127 875 86 875 86L828 144 586 144 586 78C609 74 618 65 620 51L522 42 522 144 277 144 203 109 203 423 202 498C127 543 56 585 26 599Z"/>
</svg>