<svg xmlns="http://www.w3.org/2000/svg" name="gid8950" data-unicode="瘠"
    viewBox="0 0 1000 1000">
  <!--
© 2017-2024 Adobe (http://www.adobe.com/).
Noto is a trademark of Google Inc.
This Font Software is licensed under the SIL Open Font License, Version 1.1. This Font Software is distributed on an "AS IS" BASIS, WITHOUT WARRANTIES OR CONDITIONS OF ANY KIND, either express or implied. See the SIL Open Font License for the specific language, permissions and limitations governing your use of this Font Software.
http://scripts.sil.org/OFL
  -->
<path d="M700 291L707 320 887 320C900 320 910 315 912 304 887 278 844 243 844 243L808 291ZM293 293L301 322 476 322C490 322 499 317 501 306 476 280 433 245 433 245L397 293ZM67 226L54 231C81 280 107 354 103 414 160 472 229 339 67 226ZM518 43L518 153 259 153 186 116 186 451 185 510C118 550 54 584 27 599L70 678C79 673 84 660 85 650L184 540C178 688 152 831 56 946L72 956C180 866 222 746 239 625 293 607 342 583 385 556L385 960 395 960C427 960 447 944 447 938L447 773 747 773 747 861C747 875 742 881 726 881 706 881 618 873 618 873L618 889C658 895 681 902 693 912 706 922 710 939 712 957 800 948 810 917 810 868L810 555 821 552C847 568 876 583 906 596 913 572 933 551 960 544L961 530C881 507 808 472 749 423L901 423C915 423 925 418 927 407 901 380 859 346 859 346L822 393 716 393C677 353 646 306 626 251 651 249 660 244 662 233L554 209C543 272 516 335 478 394 455 373 431 354 431 354L395 402 288 402 296 431 452 431C397 502 325 564 241 605 247 552 248 500 248 450L248 182 932 182C946 182 956 177 959 166 925 136 873 95 873 95L827 153 582 153 582 79C605 75 614 66 616 52ZM747 659L747 744 447 744 447 659ZM747 630L447 630 447 547 747 547ZM608 264C635 365 683 442 751 501L738 517 459 517 445 511C524 444 579 360 608 264Z"/>
</svg>