<svg xmlns="http://www.w3.org/2000/svg"
    viewBox="0 0 1000 1000">
  <!--
© 2017-2023 Adobe (http://www.adobe.com/).
Noto is a trademark of Google Inc.
This Font Software is licensed under the SIL Open Font License, Version 1.1. This Font Software is distributed on an "AS IS" BASIS, WITHOUT WARRANTIES OR CONDITIONS OF ANY KIND, either express or implied. See the SIL Open Font License for the specific language, permissions and limitations governing your use of this Font Software.
http://scripts.sil.org/OFL
  -->
<path d="M447 342L455 371 710 371C723 371 732 366 735 355 708 329 666 295 666 295L629 342ZM68 195L55 201C82 249 108 324 104 383 160 441 230 308 68 195ZM420 453L760 453 760 512 420 512ZM359 423L359 512C359 636 340 781 219 902L231 916C346 838 392 732 410 637L760 637 760 662 769 662C799 662 822 648 822 643L822 461C840 459 850 453 857 445L780 387 752 423 432 423 359 392ZM419 542L760 542 760 608 414 608C417 585 419 563 419 542ZM410 708L410 930 420 930C451 930 473 916 473 911L473 885 794 885 794 927 804 927C834 927 858 912 858 908L858 741C878 738 887 732 893 725L823 671 791 708 484 708 410 676ZM473 856L473 738 794 738 794 856ZM517 14L517 123 263 123 190 86 190 396 189 477C120 518 55 554 27 568L70 648C79 642 84 630 85 619L187 505C179 654 148 797 47 915L62 926C226 790 249 593 251 424 389 378 534 289 605 208 666 292 780 368 901 411 905 387 926 366 952 359L954 345C828 317 694 262 621 198 644 196 654 191 657 181L550 160C510 240 374 346 251 405L251 396 251 152 932 152C946 152 956 147 959 136 925 106 873 65 873 65L827 123 580 123 580 49C604 45 612 36 614 23Z"/>
</svg>