<svg xmlns="http://www.w3.org/2000/svg" name="gid8958" data-unicode="瘨"
    viewBox="0 0 1000 1000">
  <!--
© 2017-2024 Adobe (http://www.adobe.com/).
Noto is a trademark of Google Inc.
This Font Software is licensed under the SIL Open Font License, Version 1.1. This Font Software is distributed on an "AS IS" BASIS, WITHOUT WARRANTIES OR CONDITIONS OF ANY KIND, either express or implied. See the SIL Open Font License for the specific language, permissions and limitations governing your use of this Font Software.
http://scripts.sil.org/OFL
  -->
<path d="M502 816C446 860 332 914 227 940L233 957C346 946 464 914 536 880 559 888 576 886 584 877ZM658 829L653 845C755 873 828 911 872 946 942 997 1060 859 658 829ZM68 225L55 231C82 279 108 354 104 413 160 471 230 338 68 225ZM359 198L359 310C359 375 375 385 479 385L791 385C890 385 918 373 918 349 918 339 913 337 885 327L883 275 871 275C860 308 853 325 845 332 837 338 822 339 795 339L478 339C423 339 419 338 419 312L419 299C556 294 703 275 802 255 824 264 841 265 849 257L783 193C702 224 550 259 419 279L419 233C438 230 448 221 450 209ZM776 549L776 605 496 605 496 549ZM776 519L496 519 496 465 776 465ZM776 635L776 694 496 694 496 635ZM435 437L435 762 445 762C470 762 496 748 496 741L496 723 776 723 776 754 786 754C807 754 838 738 839 732L839 474C855 471 869 463 875 456L801 400 767 437 501 437 435 406ZM296 428L296 862 308 862C330 862 358 848 358 840L358 804 940 804C954 804 962 799 965 788 934 759 884 717 884 717L838 775 358 775 358 464C381 460 389 451 391 439ZM517 44L517 153 259 153 186 116 186 452 186 500C120 543 55 583 27 598L72 677C81 671 87 658 87 647 127 599 160 558 185 528 180 682 156 829 57 948L73 959C234 824 248 623 248 451L248 182 932 182C946 182 956 177 959 166 925 136 873 95 873 95L827 153 580 153 580 79C604 75 612 66 614 53Z"/>
</svg>