<svg xmlns="http://www.w3.org/2000/svg" name="gid8960" data-unicode="瘭"
    viewBox="0 0 1000 1000">
  <!--
© 2017-2024 Adobe (http://www.adobe.com/).
Noto is a trademark of Google Inc.
This Font Software is licensed under the SIL Open Font License, Version 1.1. This Font Software is distributed on an "AS IS" BASIS, WITHOUT WARRANTIES OR CONDITIONS OF ANY KIND, either express or implied. See the SIL Open Font License for the specific language, permissions and limitations governing your use of this Font Software.
http://scripts.sil.org/OFL
  -->
<path d="M722 759L713 770C777 805 864 870 898 920 973 950 988 806 722 759ZM357 593L365 623 828 623C841 623 850 618 853 607 824 580 778 548 778 548L739 593ZM398 746C363 801 289 871 217 910L227 924C314 898 399 845 445 799 467 803 475 799 481 789ZM68 225L55 231C82 279 108 354 104 413 160 471 230 338 68 225ZM291 251L299 280 493 280 493 354 395 354 323 322 323 561 332 561C364 561 384 548 384 543L384 521 822 521 822 552 832 552C861 552 885 538 885 534L885 386C903 382 913 377 919 371L850 317 820 354 709 354 709 280 924 280C938 280 948 275 950 264 918 237 867 199 867 199L822 251ZM384 493L384 382 493 382 493 493ZM822 493L709 493 709 382 822 382ZM547 382L655 382 655 493 547 493ZM547 354L547 280 655 280 655 354ZM270 699L278 728 568 728 568 865C568 877 563 882 545 882 524 882 423 875 423 875L423 890C469 896 495 903 509 913 522 922 527 939 529 957 619 948 632 916 632 866L632 728 942 728C956 728 965 723 968 712 937 684 889 648 889 648L847 699ZM517 44L517 152 259 152 186 115 186 450 185 509C118 549 54 584 27 598L70 678C79 672 84 660 85 649L184 539C178 689 152 831 56 947L71 958C233 823 248 622 248 449L248 181 934 181C948 181 958 176 961 165 928 134 875 93 875 93L829 152 580 152 580 79C604 75 612 66 614 53Z"/>
</svg>