<svg xmlns="http://www.w3.org/2000/svg"
    viewBox="0 0 1000 1000">
  <!--
© 2017-2023 Adobe (http://www.adobe.com/).
Noto is a trademark of Google Inc.
This Font Software is licensed under the SIL Open Font License, Version 1.1. This Font Software is distributed on an "AS IS" BASIS, WITHOUT WARRANTIES OR CONDITIONS OF ANY KIND, either express or implied. See the SIL Open Font License for the specific language, permissions and limitations governing your use of this Font Software.
http://scripts.sil.org/OFL
  -->
<path d="M68 195L55 201C82 249 108 324 104 383 160 441 230 308 68 195ZM554 261L554 314 401 314 401 261ZM319 484L319 658 328 658C353 658 380 644 380 639L380 612 502 612C491 631 474 654 455 679L236 679 244 708 433 708C401 749 366 790 340 815 361 831 387 839 405 834L432 802C482 810 528 819 571 829 488 870 372 891 226 906L230 925C418 916 551 895 643 847 725 870 792 895 841 921 914 959 996 863 702 808 734 781 759 748 777 708L936 708C950 708 959 703 962 692 930 663 878 622 878 622L833 679 527 679C546 654 562 631 574 612L792 612 792 643 802 643C822 643 853 630 854 623L854 522C871 519 886 512 892 505L817 449 783 484 617 484 617 426 768 426 768 448 777 448C797 448 828 434 829 427L829 343 942 343C956 343 965 338 967 327 941 301 899 266 899 266L861 314 829 314 829 269C845 266 859 258 865 251L792 197 759 231 617 231 617 194C635 191 642 183 644 172L554 162 554 231 406 231 343 202 343 314 251 314 259 343 343 343 343 461 352 461C376 461 401 447 401 442L401 426 554 426 554 484 386 484 319 455ZM617 261L768 261 768 314 617 314ZM554 343L554 398 401 398 401 343ZM617 343L768 343 768 398 617 398ZM554 514L554 583 380 583 380 514ZM617 514L792 514 792 583 617 583ZM700 708C683 743 658 772 626 796 576 789 518 784 450 780L506 708ZM517 14L517 121 253 121 180 84 180 419 179 477C116 518 54 555 27 570L72 649C81 643 87 630 86 620L178 506C172 656 145 798 44 913L59 925C226 791 242 591 242 418L242 151 932 151C946 151 956 146 959 135 925 104 873 63 873 63L827 121 580 121 580 49C604 45 612 36 614 23Z"/>
</svg>