<svg xmlns="http://www.w3.org/2000/svg" name="gid8972" data-unicode="癁"
    viewBox="0 0 1000 1000">
  <!--
© 2017-2024 Adobe (http://www.adobe.com/).
Noto is a trademark of Google Inc.
This Font Software is licensed under the SIL Open Font License, Version 1.1. This Font Software is distributed on an "AS IS" BASIS, WITHOUT WARRANTIES OR CONDITIONS OF ANY KIND, either express or implied. See the SIL Open Font License for the specific language, permissions and limitations governing your use of this Font Software.
http://scripts.sil.org/OFL
  -->
<path d="M392 207C356 282 293 363 237 408L250 422C321 385 391 323 438 263 457 268 471 261 477 252ZM60 235L46 241C73 285 98 356 94 412 149 468 217 340 60 235ZM824 502L824 566 588 566 588 502ZM824 473L588 473 588 407 824 407ZM509 45L509 155 247 155 174 121 174 451 173 523C113 555 54 583 27 594L66 676C75 671 82 659 82 648 119 611 149 579 172 553 166 696 142 833 55 944L70 955C171 865 211 747 226 628L232 634C264 614 296 590 326 562L326 957 337 957C362 957 386 940 386 934L386 538C403 535 413 529 417 521L380 507C406 477 430 446 449 416 460 417 470 416 476 411 462 436 447 458 432 477L447 487C476 464 503 436 528 404L528 629 537 629C562 629 588 615 588 610L588 595 632 595C592 679 514 769 433 821L442 836C499 811 553 774 599 733 620 770 647 802 678 830 609 879 521 915 417 940L424 957C542 938 638 906 714 859 773 902 845 933 926 955 933 925 951 905 976 900L977 890C899 878 824 858 760 828 804 793 839 753 867 706 891 704 902 702 909 694L842 633 801 670 659 670C670 658 679 645 687 633 711 637 718 633 722 623L635 595 824 595 824 621 833 621C853 621 885 606 886 600L886 413C900 410 912 403 918 397L848 345 817 378 592 378 558 363C568 347 578 332 587 316L916 316C930 316 939 311 941 300 910 271 865 236 865 236L823 286 603 286 618 253C639 253 651 246 655 235L560 205C542 271 514 341 482 400L402 363C362 456 294 554 228 613 234 558 235 503 235 450L235 184 929 184C943 184 952 180 955 169 922 138 870 97 870 97L824 155 573 155 573 80C596 76 604 67 606 54ZM797 699C775 738 747 772 713 802 674 779 640 751 615 718L634 699Z"/>
</svg>