<svg xmlns="http://www.w3.org/2000/svg" name="gid8973" data-unicode="療"
    viewBox="0 0 1000 1000">
  <!--
© 2017-2024 Adobe (http://www.adobe.com/).
Noto is a trademark of Google Inc.
This Font Software is licensed under the SIL Open Font License, Version 1.1. This Font Software is distributed on an "AS IS" BASIS, WITHOUT WARRANTIES OR CONDITIONS OF ANY KIND, either express or implied. See the SIL Open Font License for the specific language, permissions and limitations governing your use of this Font Software.
http://scripts.sil.org/OFL
  -->
<path d="M696 763L687 774C752 810 841 876 876 926 948 957 969 818 696 763ZM420 750C377 808 288 882 205 924L215 938C311 908 409 853 462 804 484 811 493 807 500 798ZM61 224L48 230C75 280 101 359 98 419 156 478 225 344 61 224ZM279 277L287 306 482 306C463 341 440 374 414 405 423 380 400 339 308 327L298 336C322 355 352 390 361 419 375 428 389 428 399 423 358 468 310 508 255 540 258 500 259 460 259 421L259 173 536 173C526 208 513 243 497 277ZM552 306L652 306C678 358 712 404 752 442L747 447 455 447 444 442C488 401 524 354 552 306ZM26 599L68 678C77 672 83 660 83 649 126 607 163 568 193 537 183 686 148 827 41 944L55 955C193 849 238 705 253 564 301 545 344 520 383 493L383 740 393 740C423 740 444 725 444 720L444 698 567 698 567 866C567 878 564 883 546 883 527 883 433 877 433 877L433 892C476 897 500 903 513 914 525 923 530 940 532 959 619 950 632 917 632 867L632 698 754 698 754 731 763 731C784 731 815 717 816 711L816 493C848 515 882 533 918 547 925 517 944 500 969 495L970 484C907 469 843 442 787 406 824 392 861 374 881 362 895 366 904 364 908 357L834 309C821 329 792 366 767 392 732 367 701 338 677 306L923 306C936 306 946 301 948 290 917 261 869 223 869 223L825 277 568 277C579 255 588 234 596 212 622 213 630 207 634 196L551 173 934 173C948 173 958 168 960 157 928 127 875 86 875 86L828 144 586 144 586 78C609 74 618 65 620 51L522 42 522 144 271 144 196 109 196 422 194 502C123 546 55 585 26 599ZM444 476L754 476 754 555 444 555ZM444 584L754 584 754 668 444 668Z"/>
</svg>