<svg xmlns="http://www.w3.org/2000/svg" name="gid8988" data-unicode="癘"
    viewBox="0 0 1000 1000">
  <!--
© 2017-2024 Adobe (http://www.adobe.com/).
Noto is a trademark of Google Inc.
This Font Software is licensed under the SIL Open Font License, Version 1.1. This Font Software is distributed on an "AS IS" BASIS, WITHOUT WARRANTIES OR CONDITIONS OF ANY KIND, either express or implied. See the SIL Open Font License for the specific language, permissions and limitations governing your use of this Font Software.
http://scripts.sil.org/OFL
  -->
<path d="M268 292L275 321 452 321 452 372 463 372C492 372 514 362 514 356L514 321 673 321 673 370 684 370C718 369 734 356 734 352L734 321 920 321C934 321 944 316 946 306 916 277 867 241 867 241L825 292 734 292 734 245C758 241 767 231 768 218L673 207 673 292 514 292 514 245C537 241 545 231 547 218L452 207 452 292ZM68 225L55 231C82 279 108 354 104 413 160 471 230 338 68 225ZM421 516L562 516 562 574 421 574ZM421 487L421 426 562 426 562 487ZM769 516L769 574 622 574 622 516ZM769 487L622 487 622 426 769 426ZM290 669L290 958 300 958C325 958 353 944 353 938L353 698 562 698 562 786C492 789 434 791 399 791L432 870C442 868 452 862 456 850 569 830 657 814 723 800 733 816 739 832 742 847 794 890 846 782 679 721L667 730C682 743 697 760 710 779L622 783 622 698 843 698 843 866C843 879 839 885 823 885 804 885 721 878 721 878L721 894C760 900 781 906 793 915 805 924 810 939 811 956 896 948 905 919 905 873L905 707C922 704 937 696 942 689L864 633 834 669 622 669 622 603 769 603 769 637 779 637C808 637 831 624 831 620L831 430C850 426 860 421 866 414L797 361 766 397 433 397 361 366 361 647 371 647C401 647 421 633 421 628L421 603 562 603 562 669 358 669 290 637ZM517 43L517 153 259 153 186 116 186 452 185 509C118 549 54 584 27 598L70 678C79 672 84 660 85 649L185 538C179 689 154 832 57 948L73 959C234 824 248 623 248 451L248 182 932 182C946 182 956 177 959 166 925 136 873 95 873 95L827 153 580 153 580 79C604 75 612 66 614 52Z"/>
</svg>