<svg xmlns="http://www.w3.org/2000/svg"
    viewBox="0 0 1000 1000">
  <!--
© 2017-2024 Adobe (http://www.adobe.com/).
Noto is a trademark of Google Inc.
This Font Software is licensed under the SIL Open Font License, Version 1.1. This Font Software is distributed on an "AS IS" BASIS, WITHOUT WARRANTIES OR CONDITIONS OF ANY KIND, either express or implied. See the SIL Open Font License for the specific language, permissions and limitations governing your use of this Font Software.
http://scripts.sil.org/OFL
  -->
<path d="M505 724L493 731C522 759 554 807 560 847 618 891 673 773 505 724ZM390 718C370 774 324 854 274 904L286 917C349 879 406 818 439 771 461 776 469 771 475 761ZM60 205L46 211C73 255 98 326 94 382 149 438 217 310 60 205ZM349 253L538 253 538 352 349 352ZM498 418L498 525 442 525 442 447C456 443 463 436 465 426L392 418 392 525 347 525C349 490 349 457 349 426L349 381 538 381 538 406 547 406C572 406 595 392 595 388L595 261C612 258 623 252 629 245L557 191 531 224 361 224 292 193 292 427C292 585 281 756 186 894L201 906C260 848 296 779 317 707L634 707C647 707 655 702 658 691 637 667 602 637 602 637L571 677 546 677 546 554 612 554 620 553 623 564 660 564C677 642 701 708 735 763 686 824 621 874 539 913L547 929C637 898 707 855 762 803 802 854 853 895 916 928 926 899 945 880 971 877L973 867C905 843 846 809 799 763 848 707 882 641 906 570 928 569 938 566 945 557L876 496 836 535 633 535C610 513 579 486 579 486L546 525 546 447C561 443 568 436 570 426ZM344 554L392 554 392 677 325 677C335 636 341 594 344 554ZM654 224L654 304C654 372 648 449 605 501L619 513C696 459 709 378 710 303L710 254 797 254 797 432C797 466 803 481 846 481L877 481C939 481 959 472 959 449 959 438 954 432 938 426L934 360 922 360C916 389 908 418 904 426 901 431 898 432 894 432 891 432 885 432 879 432L863 432C855 432 853 430 853 420L853 263C869 260 880 255 886 249L821 191 788 224 722 224 654 194ZM442 554L498 554 498 677 442 677ZM838 564C822 622 797 676 764 725 728 680 700 626 683 564ZM509 15L509 119 240 119 168 85 168 415 167 496C109 527 53 553 27 564L66 646C75 641 82 629 82 618 115 585 143 555 166 530 159 667 135 798 55 907L70 918C217 781 228 581 228 415L228 148 929 148C943 148 952 143 955 132 922 102 870 61 870 61L824 119 573 119 573 50C596 46 604 37 606 24Z"/>
</svg>