<svg xmlns="http://www.w3.org/2000/svg" name="gid8992" data-unicode="癡"
    viewBox="0 0 1000 1000">
  <!--
© 2017-2024 Adobe (http://www.adobe.com/).
Noto is a trademark of Google Inc.
This Font Software is licensed under the SIL Open Font License, Version 1.1. This Font Software is distributed on an "AS IS" BASIS, WITHOUT WARRANTIES OR CONDITIONS OF ANY KIND, either express or implied. See the SIL Open Font License for the specific language, permissions and limitations governing your use of this Font Software.
http://scripts.sil.org/OFL
  -->
<path d="M63 226L49 231C70 284 89 363 84 426 139 487 211 355 63 226ZM522 529L486 574 354 574C361 558 368 543 374 527 394 526 405 518 408 506L322 483C311 550 286 628 256 674L272 683C297 662 319 634 337 604L390 604C390 637 388 669 384 700L242 700 250 730 378 730C360 811 315 882 202 940L216 957C325 913 383 859 415 795 452 821 490 861 502 895 564 930 596 811 424 774 430 760 434 745 438 730L570 730C584 730 593 725 596 714 570 688 529 655 529 655L494 700 444 700C450 670 452 638 454 604L562 604C575 604 584 599 587 588 562 563 522 529 522 529ZM558 310L514 248C467 279 410 307 362 326L362 251C379 248 389 240 390 227L305 217 305 414C305 454 315 468 377 468L451 468C567 468 592 459 592 434 592 422 586 416 567 410L564 358 552 358C545 381 537 404 531 410 528 415 523 415 515 416 507 417 483 417 455 417L389 417C364 417 362 414 362 402L362 351C411 342 475 326 526 305 540 315 549 315 558 310ZM649 327L639 337C691 365 758 421 781 464 827 486 853 429 790 380 832 354 886 318 915 293 936 292 947 291 955 283L887 217 848 255 587 255 596 285 838 285C818 311 791 342 770 367 742 350 703 336 649 327ZM705 601L613 589C613 735 586 875 524 948L539 958C588 920 621 860 642 789 679 903 738 935 830 935 859 935 917 935 943 935 943 910 953 892 972 888L972 875C936 875 865 875 834 875 816 875 800 874 785 872L785 712 923 712C936 712 945 707 948 696 923 670 882 638 882 638L847 682 785 682 785 522 861 522C851 550 838 583 829 602L844 610C869 590 903 554 922 530 940 529 952 527 960 520L894 456 859 492 580 492 589 522 728 522 728 855C696 838 671 808 651 756 661 715 667 672 671 627 693 625 702 614 705 601ZM23 598L66 678C75 672 81 661 82 650 117 616 147 584 171 559 162 702 132 836 39 947L55 958C219 820 235 615 235 440L235 164 930 164C944 164 953 159 956 148 924 117 870 76 870 76L823 135 584 135 584 79C607 75 617 66 618 53L520 43 520 135 247 135 174 99 174 440 173 524C110 556 50 586 23 598Z"/>
</svg>