<svg xmlns="http://www.w3.org/2000/svg"
    viewBox="0 0 1000 1000">
  <!--
© 2017-2023 Adobe (http://www.adobe.com/).
Noto is a trademark of Google Inc.
This Font Software is licensed under the SIL Open Font License, Version 1.1. This Font Software is distributed on an "AS IS" BASIS, WITHOUT WARRANTIES OR CONDITIONS OF ANY KIND, either express or implied. See the SIL Open Font License for the specific language, permissions and limitations governing your use of this Font Software.
http://scripts.sil.org/OFL
  -->
<path d="M686 783C654 828 586 883 521 914L532 929C608 909 686 870 726 832 748 837 756 833 762 823ZM812 795L803 805C845 831 896 881 912 921 972 954 1004 832 812 795ZM59 205L46 211C72 255 97 326 93 382 148 438 216 310 59 205ZM396 182L396 292 254 292 262 321 396 321 396 404 341 404 277 376 277 644 285 644C312 644 329 631 329 626L329 606 372 606C337 710 278 805 192 879L204 895C289 838 352 768 397 685L397 928 406 928C435 928 453 912 454 908L454 679C490 708 527 756 536 797 598 840 646 708 454 663L454 606 519 606 519 632 527 632C551 632 572 618 572 614L572 436C591 433 601 428 607 421L544 371 516 404 454 404 454 321 586 321C600 321 609 316 611 305 585 280 544 246 544 246L507 292 454 292 454 214C473 211 481 203 482 191ZM329 576L329 433 400 433 400 576ZM519 576L451 576 451 433 519 433ZM682 578L859 578 859 640 682 640ZM682 549L682 491 859 491 859 549ZM682 669L859 669 859 734 682 734ZM627 462L627 802 635 802C663 802 682 788 682 783L682 763 859 763 859 794 868 794C893 794 915 780 915 776L915 495C935 491 945 485 952 479L885 427 856 462 693 462 633 435C705 396 753 339 775 256L871 256C865 317 856 349 846 359 840 363 833 364 821 364 805 364 765 362 742 360L742 378C764 381 785 386 794 394 804 403 806 417 806 432 834 432 861 425 880 413 908 393 921 349 927 261 946 258 958 254 964 247L895 193 863 226 602 226 611 256 714 256C699 329 663 390 593 435L600 450 627 438ZM509 15L509 119 239 119 167 85 167 415 166 482C108 518 52 550 26 564L71 643C80 638 85 625 85 615 117 576 144 542 165 515 160 657 137 794 54 907L70 918C216 781 227 581 227 415L227 148 930 148C944 148 954 143 957 132 924 102 871 61 871 61L825 119 573 119 573 50C596 46 604 37 606 24Z"/>
</svg>