<svg xmlns="http://www.w3.org/2000/svg" name="gid9001" data-unicode="癭"
    viewBox="0 0 1000 1000">
  <!--
© 2017-2024 Adobe (http://www.adobe.com/).
Noto is a trademark of Google Inc.
This Font Software is licensed under the SIL Open Font License, Version 1.1. This Font Software is distributed on an "AS IS" BASIS, WITHOUT WARRANTIES OR CONDITIONS OF ANY KIND, either express or implied. See the SIL Open Font License for the specific language, permissions and limitations governing your use of this Font Software.
http://scripts.sil.org/OFL
  -->
<path d="M460 515L449 523C476 542 504 575 513 604 570 637 610 530 460 515ZM771 517L762 527C799 547 841 588 855 623 917 654 947 530 771 517ZM364 508C344 548 299 605 255 639L267 651C322 630 377 592 408 561 430 566 439 562 444 552ZM678 509C658 544 615 593 572 621L583 635C637 619 690 588 720 561 742 566 751 562 757 553ZM65 227L52 233C78 277 101 347 98 402 153 460 225 330 65 227ZM498 272L498 314 360 314 360 272ZM303 243L303 532 312 532C335 532 360 518 360 512L360 494 498 494 498 517 506 517C525 517 554 503 555 498L555 282C574 278 588 270 595 263L521 207 488 243 365 243 303 215ZM360 344L498 344 498 390 360 390ZM360 419L498 419 498 464 360 464ZM674 419L820 419 820 464 674 464ZM674 390L674 343 820 343 820 390ZM820 272L820 314 674 314 674 272ZM617 243L617 530 626 530C650 530 674 516 674 510L674 494 820 494 820 521 828 521C848 521 878 506 879 501L879 282C897 278 912 270 919 263L844 206 810 243 679 243 617 215ZM695 720C677 759 651 791 617 818 567 812 510 807 443 805L510 720ZM507 614C497 633 478 661 455 691L244 691 252 720 433 720C398 766 358 814 329 842 351 858 378 864 395 861L426 825C474 833 521 842 564 852 480 897 364 922 215 941L218 959C409 947 544 923 637 871 737 900 818 933 865 961 929 973 948 878 696 830 729 800 756 764 775 720L930 720C944 720 953 715 956 705 922 676 870 638 870 638L823 691 532 691 556 657C580 659 592 651 597 639ZM517 42L517 153 252 153 178 118 178 452 177 515C117 551 55 583 28 596L74 675C83 669 88 658 89 646 125 604 156 567 177 539 171 689 146 832 49 948L64 959C226 823 240 623 240 451L240 182 929 182C943 182 953 177 956 166 922 135 870 94 870 94L824 153 580 153 580 77C604 73 612 64 614 51Z"/>
</svg>