<svg xmlns="http://www.w3.org/2000/svg" name="gid9006" data-unicode="癲"
    viewBox="0 0 1000 1000">
  <!--
© 2017-2024 Adobe (http://www.adobe.com/).
Noto is a trademark of Google Inc.
This Font Software is licensed under the SIL Open Font License, Version 1.1. This Font Software is distributed on an "AS IS" BASIS, WITHOUT WARRANTIES OR CONDITIONS OF ANY KIND, either express or implied. See the SIL Open Font License for the specific language, permissions and limitations governing your use of this Font Software.
http://scripts.sil.org/OFL
  -->
<path d="M712 782C687 835 630 902 572 942L581 956C652 926 718 876 755 832 776 837 785 833 791 824ZM375 794C345 842 281 905 220 942L231 956C304 930 376 886 416 847 438 851 447 848 453 839ZM809 785L797 792C836 831 881 895 890 946 953 993 1004 859 809 785ZM58 235L45 241C70 285 95 355 91 410 145 467 215 339 58 235ZM476 796L467 806C502 827 545 867 560 900 619 931 650 816 476 796ZM519 217C479 236 408 260 345 278L345 237C361 235 371 226 372 215L295 204 295 332C295 370 306 382 367 382L455 382C582 382 606 374 606 351 606 340 600 335 581 330L579 283 568 283C561 304 554 324 548 330 544 335 540 336 532 336 521 337 492 337 457 337L377 337C348 337 345 335 345 324L345 297C417 290 494 275 540 263 553 269 564 269 569 264ZM415 537L533 537 533 583 415 583ZM415 508L415 460 533 460 533 508ZM701 505L853 505 853 595 701 595ZM701 475L701 385 853 385 853 475ZM701 624L853 624 853 718 701 718ZM645 356L645 788 654 788C679 788 701 774 701 769L701 747 853 747 853 778 861 778C880 778 909 764 910 757L910 392C926 389 941 382 946 376L876 322 844 356 768 356C781 331 795 299 806 272L931 272C945 272 954 267 957 256 926 230 880 194 880 194L839 243 602 243 610 272 746 272 741 356 706 356 645 327ZM415 613L533 613 533 661 415 661ZM365 431L365 718 373 718C394 718 415 707 415 703L415 691 533 691 533 707 540 707C558 707 583 693 583 687L583 463C598 460 610 454 615 449L554 402 525 431 419 431 365 404ZM266 438L266 806 276 806C295 806 316 793 316 786L316 777 616 777C630 777 639 773 641 762 614 737 572 706 572 706L536 748 316 748 316 467C332 464 339 457 341 447ZM513 44L513 149 239 149 167 115 167 468 166 527C109 557 54 583 29 594L67 675C76 671 83 659 84 648L165 562C159 703 135 837 48 944L63 955C215 827 227 636 227 467L227 178 929 178C943 178 952 173 955 162 922 132 870 90 870 90L824 149 577 149 577 79C600 75 609 66 611 53Z"/>
</svg>