<svg xmlns="http://www.w3.org/2000/svg" name="gid9018" data-unicode="皃"
    viewBox="0 0 1000 1000">
  <!--
© 2017-2024 Adobe (http://www.adobe.com/).
Noto is a trademark of Google Inc.
This Font Software is licensed under the SIL Open Font License, Version 1.1. This Font Software is distributed on an "AS IS" BASIS, WITHOUT WARRANTIES OR CONDITIONS OF ANY KIND, either express or implied. See the SIL Open Font License for the specific language, permissions and limitations governing your use of this Font Software.
http://scripts.sil.org/OFL
  -->
<path d="M464 40L424 175 257 175 186 142 186 605 197 605C224 605 252 589 252 583L252 550 363 550C354 711 322 844 39 946L49 962C383 874 417 735 432 550L561 550 561 870C561 921 578 937 659 937L771 937C934 937 965 925 965 895 965 882 959 874 937 867L934 725 921 725C909 786 897 844 890 861 886 872 883 875 870 875 855 876 819 877 772 877L670 877C631 877 626 872 626 856L626 550 762 550 762 599 772 599C794 599 827 583 828 575L828 216C847 212 863 204 870 196L789 134 752 175 464 175C487 148 515 111 534 84 555 85 569 77 573 63ZM762 520L252 520 252 374 762 374ZM762 345L252 345 252 203 762 203Z"/>
</svg>