<svg xmlns="http://www.w3.org/2000/svg"
    viewBox="0 0 1000 1000">
  <!--
© 2017-2024 Adobe (http://www.adobe.com/).
Noto is a trademark of Google Inc.
This Font Software is licensed under the SIL Open Font License, Version 1.1. This Font Software is distributed on an "AS IS" BASIS, WITHOUT WARRANTIES OR CONDITIONS OF ANY KIND, either express or implied. See the SIL Open Font License for the specific language, permissions and limitations governing your use of this Font Software.
http://scripts.sil.org/OFL
  -->
<path d="M91 290L91 927 102 927C130 927 154 911 154 903L154 842 378 842 378 915 388 915C411 915 442 898 443 891L443 331C462 327 478 319 485 311L405 249 368 290 239 290C266 240 298 166 319 113L494 113 504 112 679 113C669 164 653 237 640 290L602 290 533 258 533 927 544 927C572 927 597 911 597 903L597 842 843 842 843 913 853 913C876 913 907 896 908 889L908 331C927 327 943 319 950 311L870 249 833 290 678 290C705 239 739 166 761 113L943 113C957 113 966 108 968 97 937 67 885 26 885 26L838 85 507 85C476 57 436 26 436 26L390 85 40 85 48 113 238 113C229 164 215 237 201 290L159 290 91 258ZM843 319L843 537 597 537 597 319ZM597 566L843 566 843 812 597 812ZM378 319L378 537 154 537 154 319ZM154 566L378 566 378 812 154 812Z"/>
</svg>