<svg xmlns="http://www.w3.org/2000/svg" name="gid9032" data-unicode="皙"
    viewBox="0 0 1000 1000">
  <!--
© 2017-2024 Adobe (http://www.adobe.com/).
Noto is a trademark of Google Inc.
This Font Software is licensed under the SIL Open Font License, Version 1.1. This Font Software is distributed on an "AS IS" BASIS, WITHOUT WARRANTIES OR CONDITIONS OF ANY KIND, either express or implied. See the SIL Open Font License for the specific language, permissions and limitations governing your use of this Font Software.
http://scripts.sil.org/OFL
  -->
<path d="M239 38L239 188 51 188 59 217 217 217C181 322 122 420 40 494L52 510C130 457 192 393 239 319L239 541 251 541C274 541 301 527 301 518L301 290C339 320 384 368 400 404 464 441 506 319 301 272L301 217 462 217C476 217 485 212 488 201 457 173 407 133 407 133L362 188 301 188 301 76C325 72 335 62 337 49ZM835 45C781 71 683 106 593 129L515 105 515 252C515 345 498 442 386 519L397 532C541 469 572 370 577 286L726 286 726 532 736 532C769 532 789 518 790 513L790 286 935 286C949 286 958 281 961 270 929 240 878 199 878 199L832 256 578 256 578 252 578 156C678 147 788 129 860 113 883 122 901 123 910 114ZM729 618L729 728 282 728 282 618ZM480 499C475 524 466 563 459 589L287 589 217 557 217 959 228 959C254 959 282 943 282 937L282 904 729 904 729 951 739 951C761 951 793 937 794 930L794 629C812 625 827 617 833 610L755 550 720 589 500 589C516 574 534 556 547 542 569 542 581 534 584 520ZM282 874L282 757 729 757 729 874Z"/>
</svg>