<svg xmlns="http://www.w3.org/2000/svg" name="gid9039" data-unicode="皠"
    viewBox="0 0 1000 1000">
  <!--
© 2017-2024 Adobe (http://www.adobe.com/).
Noto is a trademark of Google Inc.
This Font Software is licensed under the SIL Open Font License, Version 1.1. This Font Software is distributed on an "AS IS" BASIS, WITHOUT WARRANTIES OR CONDITIONS OF ANY KIND, either express or implied. See the SIL Open Font License for the specific language, permissions and limitations governing your use of this Font Software.
http://scripts.sil.org/OFL
  -->
<path d="M275 493L275 738 136 738 136 493ZM275 463L136 463 136 238 275 238ZM854 84L854 242 691 242 691 84C713 80 722 71 723 58L627 48 627 242 474 242 474 117C497 114 505 105 507 92L412 82 412 317 423 317C441 317 460 310 468 304 443 387 395 490 336 564L336 247C353 244 369 237 374 229L300 171 266 209 194 209C213 171 237 120 251 82 273 81 284 72 287 58L189 43C184 92 173 163 165 209L140 209 75 177 75 868 86 868C113 868 136 852 136 845L136 767 275 767 275 823 284 823C305 823 335 807 336 800L336 586 338 588C372 562 403 530 431 496L431 956 440 956C471 956 492 940 492 935L492 884 943 884C957 884 966 879 969 868 938 839 888 798 888 798L843 855 714 855 714 738 900 738C913 738 922 733 925 722 896 694 849 657 849 657L808 709 714 709 714 597 902 597C916 597 926 592 929 582 899 554 853 516 853 516L812 568 714 568 714 458 921 458C935 458 944 453 947 443 917 414 868 376 868 376L826 430 662 430C691 397 718 358 737 328 758 329 771 321 775 310L678 278C669 324 652 385 636 430L505 430 485 421C506 389 524 357 537 328 561 331 569 325 574 315L477 274 474 285 474 271 854 271 854 306 865 306C889 306 916 293 916 286L916 119C940 117 949 107 951 94ZM492 458L652 458 652 568 492 568ZM492 597L652 597 652 709 492 709ZM492 738L652 738 652 855 492 855Z"/>
</svg>