<svg xmlns="http://www.w3.org/2000/svg" name="gid9062" data-unicode="盂"
    viewBox="0 0 1000 1000">
  <!--
© 2017-2024 Adobe (http://www.adobe.com/).
Noto is a trademark of Google Inc.
This Font Software is licensed under the SIL Open Font License, Version 1.1. This Font Software is distributed on an "AS IS" BASIS, WITHOUT WARRANTIES OR CONDITIONS OF ANY KIND, either express or implied. See the SIL Open Font License for the specific language, permissions and limitations governing your use of this Font Software.
http://scripts.sil.org/OFL
  -->
<path d="M566 626L566 885 433 885 433 626ZM628 626L762 626 762 885 628 885ZM886 828L843 885 826 885 826 634C852 630 864 626 872 615L786 552 751 597 246 597 172 564 172 885 45 885 54 914 939 914C953 914 962 909 965 898 936 869 886 828 886 828ZM370 626L370 885 235 885 235 626ZM837 233L791 290 536 290 536 137 819 137C833 137 843 132 846 121 813 92 762 53 762 53L717 107 173 107 181 137 469 137 469 290 69 290 78 320 469 320 469 472C469 485 464 491 447 491 427 491 328 483 328 483L328 498C372 504 396 512 411 523 425 533 430 549 432 569 522 560 536 525 536 473L536 320 899 320C912 320 922 315 924 304 892 273 837 233 837 233Z"/>
</svg>