<svg xmlns="http://www.w3.org/2000/svg" name="gid9071" data-unicode="盍"
    viewBox="0 0 1000 1000">
  <!--
© 2017-2024 Adobe (http://www.adobe.com/).
Noto is a trademark of Google Inc.
This Font Software is licensed under the SIL Open Font License, Version 1.1. This Font Software is distributed on an "AS IS" BASIS, WITHOUT WARRANTIES OR CONDITIONS OF ANY KIND, either express or implied. See the SIL Open Font License for the specific language, permissions and limitations governing your use of this Font Software.
http://scripts.sil.org/OFL
  -->
<path d="M372 902L248 902 248 669 372 669ZM434 902L434 669 560 669 560 902ZM622 902L622 669 750 669 750 902ZM185 640L185 902 43 902 51 931 935 931C949 931 958 926 961 915 930 886 879 843 879 843L835 902 815 902 815 677C838 674 852 668 860 658L773 595 739 640 259 640 185 608ZM621 383L613 394C652 417 700 450 743 486L323 497C365 456 416 397 457 345L918 345C931 345 942 340 945 329 910 298 855 255 855 255L806 315 533 315 533 193 841 193C855 193 866 188 868 178 834 147 779 106 779 106L732 164 533 164 533 79C558 76 568 66 570 52L466 42 466 164 133 164 141 193 466 193 466 315 58 315 66 345 369 345C346 394 314 455 287 497 209 499 144 499 100 499L137 584C147 582 158 575 164 564 427 542 621 524 768 508 799 536 826 565 841 591 922 626 934 461 621 383Z"/>
</svg>