<svg xmlns="http://www.w3.org/2000/svg" name="gid9076" data-unicode="盗"
    viewBox="0 0 1000 1000">
  <!--
© 2017-2024 Adobe (http://www.adobe.com/).
Noto is a trademark of Google Inc.
This Font Software is licensed under the SIL Open Font License, Version 1.1. This Font Software is distributed on an "AS IS" BASIS, WITHOUT WARRANTIES OR CONDITIONS OF ANY KIND, either express or implied. See the SIL Open Font License for the specific language, permissions and limitations governing your use of this Font Software.
http://scripts.sil.org/OFL
  -->
<path d="M95 415C84 415 44 415 44 415L44 438C63 440 77 442 93 449 114 460 119 505 110 585 113 609 124 623 139 623 171 623 189 604 190 570 191 515 170 485 170 454 169 436 180 414 193 390 213 362 330 204 378 134L362 125C148 375 148 375 124 400 111 415 107 415 95 415ZM94 58L85 68C129 95 180 146 194 191 265 232 304 84 94 58ZM476 42C446 165 384 292 313 366L327 376C389 334 442 274 484 206L565 206C559 354 534 488 296 592L308 609C553 522 611 403 630 264 657 416 720 546 898 619 904 583 925 572 958 567L960 556C740 485 667 366 642 206L832 206C817 255 793 322 776 362L789 370C828 329 878 261 904 217 924 216 936 215 943 207L869 135 829 178 501 178C517 150 530 121 542 92 563 93 575 84 579 73ZM372 905L248 905 248 669 372 669ZM434 905L434 669 560 669 560 905ZM622 905L622 669 750 669 750 905ZM185 640L185 905 42 905 51 934 938 934C952 934 961 929 964 918 933 887 882 843 882 843L837 905 815 905 815 677C838 674 852 668 860 658L773 595 739 640 259 640 185 608Z"/>
</svg>