<svg xmlns="http://www.w3.org/2000/svg"
    viewBox="0 0 1000 1000">
  <!--
© 2017-2023 Adobe (http://www.adobe.com/).
Noto is a trademark of Google Inc.
This Font Software is licensed under the SIL Open Font License, Version 1.1. This Font Software is distributed on an "AS IS" BASIS, WITHOUT WARRANTIES OR CONDITIONS OF ANY KIND, either express or implied. See the SIL Open Font License for the specific language, permissions and limitations governing your use of this Font Software.
http://scripts.sil.org/OFL
  -->
<path d="M728 604L728 703 294 703 294 604ZM728 574L294 574 294 476 728 476ZM728 733L728 836 294 836 294 733ZM228 447L228 927 239 927C266 927 294 910 294 903L294 866 728 866 728 919 738 919C759 919 793 903 794 896L794 486C811 483 826 475 831 468L755 409 719 447 300 447 228 414ZM466 12L466 133 51 133 60 162 210 162 210 288C210 347 233 356 349 356L556 356C830 356 866 350 866 317 866 304 856 296 828 291L823 290 814 290C804 293 792 295 783 297 775 298 763 299 748 300 720 302 642 302 559 302L348 302C278 302 275 298 275 283L275 162 924 162C938 162 948 157 951 146 917 115 864 74 864 74L816 133 530 133 530 49C555 45 565 35 567 21Z"/>
</svg>