<svg xmlns="http://www.w3.org/2000/svg" name="gid9109" data-unicode="眈"
    viewBox="0 0 1000 1000">
  <!--
© 2017-2024 Adobe (http://www.adobe.com/).
Noto is a trademark of Google Inc.
This Font Software is licensed under the SIL Open Font License, Version 1.1. This Font Software is distributed on an "AS IS" BASIS, WITHOUT WARRANTIES OR CONDITIONS OF ANY KIND, either express or implied. See the SIL Open Font License for the specific language, permissions and limitations governing your use of this Font Software.
http://scripts.sil.org/OFL
  -->
<path d="M755 413L662 402 662 861C662 909 675 925 740 925L816 925C934 925 963 913 963 885 963 873 959 865 938 857L935 699 922 699C911 763 899 835 893 851 889 862 886 865 877 865 868 866 846 866 816 866L755 866C728 866 724 861 724 846L724 437C744 435 753 425 755 413ZM137 758L137 569 280 569 280 758ZM137 882L137 787 280 787 280 860 289 860C311 860 339 843 340 837L340 164C360 160 377 153 383 145L306 84 270 124 141 124 77 91 77 905 88 905C116 905 137 890 137 882ZM137 329L137 153 280 153 280 329ZM137 358L280 358 280 539 137 539ZM700 53L600 42C600 108 600 173 599 236L451 236 443 188 427 187C422 265 398 327 365 358 317 432 464 465 454 266L598 266C588 524 539 759 284 940L298 956C598 778 648 531 660 266L852 266 819 397 833 403C861 370 904 312 929 278 948 276 960 274 967 268L891 194 848 236 661 236 664 80C689 76 698 67 700 53Z"/>
</svg>