<svg xmlns="http://www.w3.org/2000/svg"
    viewBox="0 0 1000 1000">
  <!--
© 2017-2024 Adobe (http://www.adobe.com/).
Noto is a trademark of Google Inc.
This Font Software is licensed under the SIL Open Font License, Version 1.1. This Font Software is distributed on an "AS IS" BASIS, WITHOUT WARRANTIES OR CONDITIONS OF ANY KIND, either express or implied. See the SIL Open Font License for the specific language, permissions and limitations governing your use of this Font Software.
http://scripts.sil.org/OFL
  -->
<path d="M755 383L662 372 662 831C662 879 675 895 740 895L816 895C934 895 963 883 963 855 963 843 959 835 938 827L935 669 922 669C911 733 899 805 893 821 889 832 886 835 877 835 868 836 846 836 816 836L755 836C728 836 724 831 724 816L724 407C744 405 753 395 755 383ZM137 728L137 539 280 539 280 728ZM137 852L137 757 280 757 280 830 289 830C311 830 339 813 340 807L340 134C360 130 377 123 383 115L306 54 270 94 141 94 77 61 77 875 88 875C116 875 137 860 137 852ZM137 299L137 123 280 123 280 299ZM137 328L280 328 280 509 137 509ZM700 23L600 12C600 78 600 143 599 206L451 206 443 158 427 157C422 235 398 297 365 328 317 402 464 435 454 236L598 236C588 494 539 729 284 910L298 926C598 748 648 501 660 236L852 236 819 367 833 373C861 340 904 282 929 248 948 246 960 244 967 238L891 164 848 206 661 206 664 50C689 46 698 37 700 23Z"/>
</svg>