<svg xmlns="http://www.w3.org/2000/svg" name="gid9169" data-unicode="睦"
    viewBox="0 0 1000 1000">
  <!--
© 2017-2024 Adobe (http://www.adobe.com/).
Noto is a trademark of Google Inc.
This Font Software is licensed under the SIL Open Font License, Version 1.1. This Font Software is distributed on an "AS IS" BASIS, WITHOUT WARRANTIES OR CONDITIONS OF ANY KIND, either express or implied. See the SIL Open Font License for the specific language, permissions and limitations governing your use of this Font Software.
http://scripts.sil.org/OFL
  -->
<path d="M271 562L271 750 137 750 137 562ZM271 533L137 533 137 347 271 347ZM271 318L137 318 137 145 271 145ZM75 116L75 898 87 898C115 898 137 881 137 873L137 779 271 779 271 852 280 852C303 852 333 835 334 828L334 157C354 153 371 145 377 137L298 74 261 116 142 116 75 83ZM603 49L603 171 391 171 399 200 603 200 603 329 355 329 363 359 515 359C511 444 491 521 363 587L377 602C541 542 573 457 583 359L690 359 690 487C690 527 699 541 759 541L825 541C931 541 955 530 955 506 955 493 950 486 931 479L928 411 916 411C908 441 899 470 894 479 890 485 887 486 880 486 871 487 851 487 828 487L774 487C752 487 750 485 750 474L750 359 940 359C954 359 963 354 966 343 934 313 882 271 882 271L836 329 669 329 669 200 900 200C913 200 922 195 925 184 896 155 846 116 846 116L803 171 669 171 669 86C693 82 702 73 704 59ZM603 535L603 680 385 680 393 710 603 710 603 887 294 887 302 915 944 915C958 915 967 911 970 900 937 869 885 827 885 827L837 887 668 887 668 710 907 710C921 710 930 705 933 694 901 663 849 622 849 622L805 680 668 680 668 574C693 570 703 560 705 546Z"/>
</svg>