<svg xmlns="http://www.w3.org/2000/svg" name="gid9187" data-unicode="瞋"
    viewBox="0 0 1000 1000">
  <!--
© 2017-2024 Adobe (http://www.adobe.com/).
Noto is a trademark of Google Inc.
This Font Software is licensed under the SIL Open Font License, Version 1.1. This Font Software is distributed on an "AS IS" BASIS, WITHOUT WARRANTIES OR CONDITIONS OF ANY KIND, either express or implied. See the SIL Open Font License for the specific language, permissions and limitations governing your use of this Font Software.
http://scripts.sil.org/OFL
  -->
<path d="M568 788C515 840 403 908 301 941L306 957C419 937 537 891 605 850 630 855 646 854 652 845ZM715 800L707 812C778 843 877 906 918 955 996 980 1001 830 715 800ZM582 474L810 474 810 545 582 545ZM582 445L582 378 810 378 810 445ZM582 574L810 574 810 644 582 644ZM521 348L521 721 530 721C562 721 582 708 582 703L582 672 810 672 810 710 820 710C848 710 873 696 873 691L873 382C892 379 903 374 909 366L838 310 807 348 593 348 521 317ZM810 54C736 96 600 137 491 160L491 75C510 72 519 63 520 51L432 42 432 222C432 273 449 284 544 284L702 284C915 284 949 276 949 246 949 234 941 228 917 221L914 141 902 141C893 177 883 208 874 219 869 227 864 229 849 230 829 231 773 232 705 232L549 232C495 232 491 228 491 214L491 180C609 169 760 140 841 108 856 115 868 114 875 107ZM384 351L384 829 396 829C418 829 444 816 444 808L444 774 943 774C957 774 966 769 968 758 938 728 886 687 886 687L841 744 444 744 444 385C466 382 474 374 476 361ZM262 557L262 744 137 744 137 557ZM262 527L137 527 137 345 262 345ZM262 316L137 316 137 144 262 144ZM76 115L76 890 87 890C115 890 137 874 137 866L137 774 262 774 262 844 272 844C294 844 323 827 325 820L325 157C345 153 361 144 368 136L289 74 252 115 141 115 76 83Z"/>
</svg>