<svg xmlns="http://www.w3.org/2000/svg"
    viewBox="0 0 1000 1000">
  <!--
© 2017-2024 Adobe (http://www.adobe.com/).
Noto is a trademark of Google Inc.
This Font Software is licensed under the SIL Open Font License, Version 1.1. This Font Software is distributed on an "AS IS" BASIS, WITHOUT WARRANTIES OR CONDITIONS OF ANY KIND, either express or implied. See the SIL Open Font License for the specific language, permissions and limitations governing your use of this Font Software.
http://scripts.sil.org/OFL
  -->
<path d="M568 758C515 810 403 878 301 911L306 927C419 907 537 861 605 820 630 825 646 824 652 815ZM715 770L707 782C778 813 877 876 918 925 996 950 1001 800 715 770ZM582 444L810 444 810 515 582 515ZM582 415L582 348 810 348 810 415ZM582 544L810 544 810 614 582 614ZM521 318L521 691 530 691C562 691 582 678 582 673L582 642 810 642 810 680 820 680C848 680 873 666 873 661L873 352C892 349 903 344 909 336L838 280 807 318 593 318 521 287ZM810 24C736 66 600 107 491 130L491 45C510 42 519 33 520 21L432 12 432 192C432 243 449 254 544 254L702 254C915 254 949 246 949 216 949 204 941 198 917 191L914 111 902 111C893 147 883 178 874 189 869 197 864 199 849 200 829 201 773 202 705 202L549 202C495 202 491 198 491 184L491 150C609 139 760 110 841 78 856 85 868 84 875 77ZM384 321L384 799 396 799C418 799 444 786 444 778L444 744 943 744C957 744 966 739 968 728 938 698 886 657 886 657L841 714 444 714 444 355C466 352 474 344 476 331ZM262 527L262 714 137 714 137 527ZM262 497L137 497 137 315 262 315ZM262 286L137 286 137 114 262 114ZM76 85L76 860 87 860C115 860 137 844 137 836L137 744 262 744 262 814 272 814C294 814 323 797 325 790L325 127C345 123 361 114 368 106L289 44 252 85 141 85 76 53Z"/>
</svg>