<svg xmlns="http://www.w3.org/2000/svg" name="gid9196" data-unicode="瞞"
    viewBox="0 0 1000 1000">
  <!--
© 2017-2024 Adobe (http://www.adobe.com/).
Noto is a trademark of Google Inc.
This Font Software is licensed under the SIL Open Font License, Version 1.1. This Font Software is distributed on an "AS IS" BASIS, WITHOUT WARRANTIES OR CONDITIONS OF ANY KIND, either express or implied. See the SIL Open Font License for the specific language, permissions and limitations governing your use of this Font Software.
http://scripts.sil.org/OFL
  -->
<path d="M241 562L241 751 136 751 136 562ZM241 532L136 532 136 348 241 348ZM241 319L136 319 136 145 241 145ZM75 116L75 890 86 890C114 890 136 874 136 867L136 779 241 779 241 844 250 844C273 844 303 827 304 821L304 157C313 155 321 153 328 149L333 170 481 170 481 346 492 346C516 346 543 333 543 326L543 293 601 293 601 392 424 392 361 362 361 959 371 959C396 959 419 944 419 937L419 778 420 779C463 756 500 711 517 655 526 710 550 756 582 779 586 763 592 748 601 738L601 944 610 944C641 944 660 929 660 924L660 777 662 779C706 756 745 711 763 655 771 710 798 756 830 779 835 761 843 743 853 735L853 861C853 876 850 880 835 880 819 880 748 874 748 874L748 891C781 895 800 902 811 912 822 923 825 941 827 960 905 952 913 920 913 870L913 433C933 429 950 421 955 414L875 354 844 392 660 392 660 293 722 293 722 340 734 340C758 340 785 327 785 319L785 170 939 170C953 170 962 165 965 154 934 124 886 85 886 85L843 140 785 140 785 80C810 76 819 67 822 52L722 43 722 140 543 140 543 80C568 76 578 67 581 52L481 43 481 140 343 140 346 137 268 75 232 116 141 116 75 84ZM543 170L722 170 722 263 543 263ZM487 512L441 512 447 541 498 541 498 565C491 646 458 723 419 761L419 422 601 422 601 712C555 684 527 635 521 561L521 543C543 540 557 534 564 524L508 481ZM732 512L684 512 690 541 743 541 743 565C736 647 701 724 660 763L660 422 853 422 853 714C803 687 773 638 766 561L766 543C788 540 803 534 810 524L754 481Z"/>
</svg>