<svg xmlns="http://www.w3.org/2000/svg"
    viewBox="0 0 1000 1000">
  <!--
© 2017-2023 Adobe (http://www.adobe.com/).
Noto is a trademark of Google Inc.
This Font Software is licensed under the SIL Open Font License, Version 1.1. This Font Software is distributed on an "AS IS" BASIS, WITHOUT WARRANTIES OR CONDITIONS OF ANY KIND, either express or implied. See the SIL Open Font License for the specific language, permissions and limitations governing your use of this Font Software.
http://scripts.sil.org/OFL
  -->
<path d="M545 433L545 565 426 565 426 433ZM545 404L426 404 426 270 545 270ZM545 594L545 706 426 725 426 594ZM721 20C715 100 703 178 687 252 658 224 615 190 615 190L574 240 515 240 515 117 639 117C652 117 662 112 664 101 634 74 588 38 588 38L548 87 332 87 339 113 340 117 454 117 454 240 300 240 308 270 367 270 367 733 299 742 342 820C351 818 359 812 364 798 439 771 499 749 545 731L545 927 555 927C585 927 606 912 606 907L606 902 609 905C680 851 735 791 777 723 811 804 857 871 917 926 931 899 954 883 979 884L982 874C909 824 852 753 808 667 865 552 892 419 905 270L947 270C961 270 970 265 972 254 942 224 891 183 891 183L846 241 745 241C761 184 774 124 784 62 806 61 817 51 820 38ZM75 92L75 876 86 876C113 876 134 860 134 852L134 759 237 759 237 829 246 829C267 829 297 812 298 806L298 133C316 129 333 121 339 113L262 52 228 92 138 92 75 60ZM606 270L663 270C674 270 682 267 686 259 666 345 641 425 611 490L627 499C653 463 676 421 697 374 708 483 726 580 755 665 720 745 671 819 606 885ZM779 601C748 521 727 430 715 331L736 270 838 270C831 389 814 500 779 601ZM237 542L237 731 134 731 134 542ZM237 512L134 512 134 326 237 326ZM237 297L134 297 134 121 237 121Z"/>
</svg>