<svg xmlns="http://www.w3.org/2000/svg"
    viewBox="0 0 1000 1000">
  <!--
© 2017-2023 Adobe (http://www.adobe.com/).
Noto is a trademark of Google Inc.
This Font Software is licensed under the SIL Open Font License, Version 1.1. This Font Software is distributed on an "AS IS" BASIS, WITHOUT WARRANTIES OR CONDITIONS OF ANY KIND, either express or implied. See the SIL Open Font License for the specific language, permissions and limitations governing your use of this Font Software.
http://scripts.sil.org/OFL
  -->
<path d="M265 532L265 720 137 720 137 532ZM265 503L137 503 137 317 265 317ZM265 289L137 289 137 115 265 115ZM75 86L75 867 87 867C115 867 137 850 137 842L137 749 265 749 265 820 274 820C297 820 327 804 328 797L328 127C348 123 365 115 371 107L292 44 255 86 142 86 75 53ZM349 286L357 315 943 315C957 315 965 310 968 299 937 270 886 229 886 229L841 286 722 286C749 255 776 217 794 189 816 190 828 181 832 169L757 149 920 149C934 149 943 144 946 133 914 103 863 64 863 64L819 120 670 120 670 57C694 53 704 43 706 29L605 19 605 120 372 120 379 149 477 149 475 150C497 181 515 231 513 272 567 324 640 215 496 149L734 149C724 190 708 245 694 286ZM606 526L606 610 468 610 468 526ZM667 526L815 526 815 610 667 610ZM606 496L468 496 468 411 606 411ZM667 496L667 411 815 411 815 496ZM408 382L408 683 418 683C443 683 468 669 468 663L468 639 606 639 606 736 391 736 399 765 606 765 606 863 304 863 311 892 946 892C960 892 969 887 971 877 939 846 888 805 888 805L842 863 667 863 667 765 892 765C906 765 915 760 918 750 889 721 840 683 840 683L799 736 667 736 667 639 815 639 815 675 825 675C845 675 875 659 876 652L876 420C893 417 907 409 913 402L839 346 806 382 473 382 408 352Z"/>
</svg>