<svg xmlns="http://www.w3.org/2000/svg" name="gid9222" data-unicode="矇"
    viewBox="0 0 1000 1000">
  <!--
© 2017-2024 Adobe (http://www.adobe.com/).
Noto is a trademark of Google Inc.
This Font Software is licensed under the SIL Open Font License, Version 1.1. This Font Software is distributed on an "AS IS" BASIS, WITHOUT WARRANTIES OR CONDITIONS OF ANY KIND, either express or implied. See the SIL Open Font License for the specific language, permissions and limitations governing your use of this Font Software.
http://scripts.sil.org/OFL
  -->
<path d="M443 378L451 408 773 408C787 408 796 403 798 392 772 367 731 334 731 334L694 378ZM851 531C828 562 787 616 757 647 732 604 713 557 698 506L907 506C921 506 931 501 933 490 902 461 851 422 851 422L807 477 340 477 348 506 560 506C503 557 423 602 337 635L346 653C428 630 505 600 570 560 578 571 587 582 594 594 534 659 426 721 329 755L336 772C436 747 547 698 620 644 627 659 632 674 636 689 545 776 407 858 282 896L287 912C419 888 556 821 648 755 654 814 644 864 624 886 618 893 611 894 600 894 578 894 510 890 475 888L476 904C506 909 540 917 551 924 562 932 567 943 568 961 620 961 649 951 667 931 727 869 728 668 587 549 607 536 625 521 642 506L676 506C713 691 783 823 923 895 930 868 949 851 971 846L972 835C884 803 815 741 766 662 806 640 862 607 893 587 912 592 922 589 926 580ZM76 119L76 893 87 893C114 893 136 877 136 869L136 775 244 775 244 846 253 846C275 846 305 830 306 823L306 160C318 157 329 153 338 148L344 175 496 175 496 246 507 246C536 246 557 236 557 230L557 175 703 175 703 244 714 244C748 243 764 231 764 226L764 175 927 175C941 175 950 170 952 159 923 132 877 95 877 95L836 146 764 146 764 78C786 75 795 64 796 51L703 42 703 146 557 146 557 78C580 75 588 65 590 51L496 42 496 146 342 146 349 140 270 77 234 119 141 119 76 86ZM399 235C399 275 375 322 352 340 334 353 324 372 333 390 345 409 376 404 392 389 408 373 421 344 424 306L842 306C834 335 823 369 815 390L829 397C856 378 895 342 915 317 935 316 946 315 953 308L879 236 838 277 424 277C423 264 421 250 417 236ZM244 555L244 747 136 747 136 555ZM244 525L136 525 136 348 244 348ZM244 318L136 318 136 147 244 147Z"/>
</svg>