<svg xmlns="http://www.w3.org/2000/svg"
    viewBox="0 0 1000 1000">
  <!--
© 2017-2024 Adobe (http://www.adobe.com/).
Noto is a trademark of Google Inc.
This Font Software is licensed under the SIL Open Font License, Version 1.1. This Font Software is distributed on an "AS IS" BASIS, WITHOUT WARRANTIES OR CONDITIONS OF ANY KIND, either express or implied. See the SIL Open Font License for the specific language, permissions and limitations governing your use of this Font Software.
http://scripts.sil.org/OFL
  -->
<path d="M470 405L470 456 284 456 284 405ZM150 59L150 337 159 337C184 337 210 324 210 318L210 293 280 293C233 377 148 477 68 536L79 548C128 523 177 488 221 449L221 679 232 679C263 679 284 662 284 657L284 650 886 650C900 650 910 645 912 634 881 605 829 565 829 565L785 620 531 620 531 567 780 567C794 567 803 562 805 551 777 526 733 493 733 493L693 538 531 538 531 485 777 485C791 485 800 481 803 470 773 444 730 412 730 412L691 456 531 456 531 405 816 405C829 405 838 400 840 389 811 361 763 325 763 325L721 376 486 376C506 359 525 340 539 324 546 324 552 323 557 321 579 318 600 306 600 302L600 293 772 293 772 323 781 323C801 323 832 309 833 303L833 100C851 96 868 89 875 81L797 21 762 59 605 59 540 30 540 294 484 282C477 310 465 348 453 376L297 376C312 359 326 342 338 325 363 328 371 325 376 315L311 293 385 293 385 323 394 323C414 323 444 309 445 303L445 100C464 96 481 88 488 81L410 21 375 59 215 59 150 30ZM470 620L284 620 284 567 470 567ZM470 485L470 538 284 538 284 485ZM600 155L772 155 772 195 600 195ZM600 127L600 88 772 88 772 127ZM600 224L772 224 772 264 600 264ZM210 155L385 155 385 195 210 195ZM210 127L210 88 385 88 385 127ZM210 224L385 224 385 264 210 264ZM654 731C611 759 560 783 503 805 432 786 369 762 319 731ZM114 702L123 731 281 731C323 770 377 802 438 829 322 866 189 893 61 909L68 927C221 917 372 894 503 854 615 892 746 915 882 928 886 898 904 878 930 873L930 861C814 857 695 846 587 825 649 801 704 772 751 739 778 739 790 736 799 728L731 663 682 702Z"/>
</svg>