<svg xmlns="http://www.w3.org/2000/svg"
    viewBox="0 0 1000 1000">
  <!--
© 2017-2024 Adobe (http://www.adobe.com/).
Noto is a trademark of Google Inc.
This Font Software is licensed under the SIL Open Font License, Version 1.1. This Font Software is distributed on an "AS IS" BASIS, WITHOUT WARRANTIES OR CONDITIONS OF ANY KIND, either express or implied. See the SIL Open Font License for the specific language, permissions and limitations governing your use of this Font Software.
http://scripts.sil.org/OFL
  -->
<path d="M523 350L531 378 827 378C841 378 850 373 853 362 821 332 769 291 769 291L725 350ZM447 507L456 537 815 537C777 642 714 796 659 915 689 928 709 929 727 923 779 807 849 639 884 550 905 547 923 543 931 534L854 468 816 507ZM702 61C744 177 830 284 922 354 928 328 948 308 974 301L976 288C874 233 771 149 717 49 738 48 749 43 751 33L644 10C618 106 525 241 437 330L415 309 374 349 39 349 48 378 208 378C172 509 112 640 28 738L42 752C124 680 189 593 235 495L235 830C235 843 231 848 214 848 196 848 110 842 110 842L110 857C150 863 172 870 185 881 197 892 201 909 202 929 287 919 299 882 299 831L299 378 376 378C361 420 338 474 320 508L334 516C372 484 422 428 449 389 468 387 480 386 487 379L454 347C554 272 650 165 702 61ZM52 79L61 108 364 108C337 143 299 188 268 221 239 199 198 178 141 162L130 170C179 211 243 281 265 333 316 362 350 299 285 235 340 201 410 152 447 118 468 117 481 115 489 108L415 37 372 79Z"/>
</svg>