<svg xmlns="http://www.w3.org/2000/svg" name="gid9238" data-unicode="矤"
    viewBox="0 0 1000 1000">
  <!--
© 2017-2024 Adobe (http://www.adobe.com/).
Noto is a trademark of Google Inc.
This Font Software is licensed under the SIL Open Font License, Version 1.1. This Font Software is distributed on an "AS IS" BASIS, WITHOUT WARRANTIES OR CONDITIONS OF ANY KIND, either express or implied. See the SIL Open Font License for the specific language, permissions and limitations governing your use of this Font Software.
http://scripts.sil.org/OFL
  -->
<path d="M517 43C496 183 450 320 393 411L409 420C455 374 495 312 527 241L637 241C636 328 635 411 626 488L407 488 415 516 623 516C599 683 535 825 350 941L363 958C581 847 658 701 688 524 720 723 795 878 915 959 920 929 941 907 970 896L972 885C843 824 748 697 710 516L940 516C954 516 963 511 965 501 933 470 881 429 881 429L835 488 693 488C703 411 705 329 707 241L909 241C923 241 932 236 935 225 902 194 850 152 850 152L804 211 540 211C556 172 570 131 582 89 604 89 614 80 618 67ZM54 107L63 135 316 135 316 326 175 326 102 300C94 378 72 523 53 627 87 633 103 631 119 622L127 570 316 570C308 735 294 847 271 869 262 876 253 878 235 878 215 878 143 872 101 868L101 886C138 892 180 900 194 911 208 922 212 939 212 958 253 958 290 947 313 925 353 889 373 770 380 578 400 576 412 571 419 563L344 502 306 541 132 541C142 476 151 405 157 356L316 356 316 402 326 402C347 402 378 388 379 381L379 147C399 143 414 135 421 127L342 67 306 107Z"/>
</svg>