<svg xmlns="http://www.w3.org/2000/svg" name="gid9244" data-unicode="矬"
    viewBox="0 0 1000 1000">
  <!--
© 2017-2024 Adobe (http://www.adobe.com/).
Noto is a trademark of Google Inc.
This Font Software is licensed under the SIL Open Font License, Version 1.1. This Font Software is distributed on an "AS IS" BASIS, WITHOUT WARRANTIES OR CONDITIONS OF ANY KIND, either express or implied. See the SIL Open Font License for the specific language, permissions and limitations governing your use of this Font Software.
http://scripts.sil.org/OFL
  -->
<path d="M459 126C452 242 430 350 397 443L348 400 305 456 262 456 262 429 262 247 382 247C395 247 405 242 408 231 376 201 327 162 327 162L283 217 167 217C181 176 192 133 202 90 224 89 234 79 237 66L139 47C125 182 91 318 47 413L63 422C99 375 131 314 156 247L200 247 200 430 200 456 47 456 55 485 199 485C194 638 165 804 35 944L48 956C169 866 222 749 245 632 290 679 332 741 342 793 411 845 460 698 250 604 257 563 260 523 261 485L380 485C368 514 355 542 340 567L355 577C413 516 457 433 488 334 516 378 543 434 549 479 607 529 664 407 496 309 509 265 519 218 527 168 549 167 560 157 563 143ZM782 125C767 266 730 399 678 497L678 79C701 76 708 67 709 53L616 43 616 628 406 628 414 657 616 657 616 888 315 888 323 917 950 917C964 917 972 912 975 901 942 870 888 827 888 827L841 888 678 888 678 657 886 657C900 657 909 652 912 642 881 611 828 570 828 570L782 628 678 628 678 531C730 481 771 411 802 330 842 383 883 456 892 513 955 566 1008 427 811 307 826 264 839 217 849 169 871 169 883 159 886 146Z"/>
</svg>