<svg xmlns="http://www.w3.org/2000/svg" name="gid9251" data-unicode="矴"
    viewBox="0 0 1000 1000">
  <!--
© 2017-2024 Adobe (http://www.adobe.com/).
Noto is a trademark of Google Inc.
This Font Software is licensed under the SIL Open Font License, Version 1.1. This Font Software is distributed on an "AS IS" BASIS, WITHOUT WARRANTIES OR CONDITIONS OF ANY KIND, either express or implied. See the SIL Open Font License for the specific language, permissions and limitations governing your use of this Font Software.
http://scripts.sil.org/OFL
  -->
<path d="M41 141L49 170 196 170C166 356 110 543 18 686L34 697C78 646 115 590 147 530L147 939 157 939C187 939 208 923 208 917L208 821 365 821 365 911 374 911C395 911 426 897 427 891L427 474C447 470 463 461 469 454L390 392 355 433 220 433 196 422C227 343 250 258 265 170L455 170C469 170 478 165 481 154 449 124 395 83 395 83L350 141ZM365 461L365 792 208 792 208 461ZM490 140L498 169 714 169 714 841C714 859 707 866 685 866 657 866 516 854 516 854L516 870C576 878 610 888 630 900 646 912 655 932 658 955 767 944 779 901 779 846L779 169 936 169C950 169 960 164 962 153 930 122 877 80 877 80L830 140Z"/>
</svg>