<svg xmlns="http://www.w3.org/2000/svg" name="gid9254" data-unicode="矼"
    viewBox="0 0 1000 1000">
  <!--
© 2017-2024 Adobe (http://www.adobe.com/).
Noto is a trademark of Google Inc.
This Font Software is licensed under the SIL Open Font License, Version 1.1. This Font Software is distributed on an "AS IS" BASIS, WITHOUT WARRANTIES OR CONDITIONS OF ANY KIND, either express or implied. See the SIL Open Font License for the specific language, permissions and limitations governing your use of this Font Software.
http://scripts.sil.org/OFL
  -->
<path d="M427 866L434 895 959 895C973 895 982 890 985 879 952 846 894 801 894 801L845 866 718 866 718 175 934 175C948 175 957 170 960 159 926 127 870 84 870 84L821 145 478 145 486 175 652 175 652 866ZM46 130L54 160 198 160C167 339 110 526 25 665L40 677C78 631 112 581 141 527L141 927 151 927C181 927 202 911 202 905L202 805 353 805 353 891 362 891C382 891 414 877 415 872L415 462C436 458 451 450 458 443L378 380 343 421 214 421 195 412C227 333 251 248 268 160L451 160C465 160 475 155 477 144 445 114 392 73 392 73L346 130ZM353 450L353 775 202 775 202 450Z"/>
</svg>