<svg xmlns="http://www.w3.org/2000/svg"
    viewBox="0 0 1000 1000">
  <!--
© 2017-2023 Adobe (http://www.adobe.com/).
Noto is a trademark of Google Inc.
This Font Software is licensed under the SIL Open Font License, Version 1.1. This Font Software is distributed on an "AS IS" BASIS, WITHOUT WARRANTIES OR CONDITIONS OF ANY KIND, either express or implied. See the SIL Open Font License for the specific language, permissions and limitations governing your use of this Font Software.
http://scripts.sil.org/OFL
  -->
<path d="M796 164L783 171C831 237 886 339 892 419 963 483 1026 310 796 164ZM654 15L654 517C654 532 650 537 632 537 614 537 518 530 518 530L518 545C560 551 584 558 598 570 610 580 616 597 619 617 706 608 717 575 717 523L717 51C740 48 750 39 752 25ZM845 460C743 720 551 852 323 925L330 941C580 891 783 772 899 518 922 523 932 518 938 508ZM513 165C494 280 454 394 409 470L425 479C488 416 541 318 576 212 597 212 608 202 612 191ZM44 93L52 122 178 122C154 291 108 461 32 593L46 605C77 566 104 525 128 482L128 871 137 871C168 871 188 854 188 849L188 753 318 753 318 834 328 834C349 834 379 820 380 814L380 408C399 405 414 397 420 390L343 331 309 369 200 369 183 361C212 286 233 206 247 122L421 122C436 122 445 117 447 106 415 76 362 35 362 35L315 93ZM318 398L318 724 188 724 188 398Z"/>
</svg>