<svg xmlns="http://www.w3.org/2000/svg" name="gid9255" data-unicode="砂"
    viewBox="0 0 1000 1000">
  <!--
© 2017-2024 Adobe (http://www.adobe.com/).
Noto is a trademark of Google Inc.
This Font Software is licensed under the SIL Open Font License, Version 1.1. This Font Software is distributed on an "AS IS" BASIS, WITHOUT WARRANTIES OR CONDITIONS OF ANY KIND, either express or implied. See the SIL Open Font License for the specific language, permissions and limitations governing your use of this Font Software.
http://scripts.sil.org/OFL
  -->
<path d="M796 194L783 201C831 267 886 369 892 449 963 513 1026 340 796 194ZM654 45L654 547C654 562 650 567 632 567 614 567 518 560 518 560L518 575C560 581 584 588 598 600 610 610 616 627 619 647 706 638 717 605 717 553L717 81C740 78 750 69 752 55ZM845 490C743 750 551 882 323 955L330 971C580 921 783 802 899 548 922 553 932 548 938 538ZM513 195C494 310 454 424 409 500L425 509C488 446 541 348 576 242 597 242 608 232 612 221ZM44 123L52 152 178 152C154 321 108 491 32 623L46 635C77 596 104 555 128 512L128 901 137 901C168 901 188 884 188 879L188 783 318 783 318 864 328 864C349 864 379 850 380 844L380 438C399 435 414 427 420 420L343 361 309 399 200 399 183 391C212 316 233 236 247 152L421 152C436 152 445 147 447 136 415 106 362 65 362 65L315 123ZM318 428L318 754 188 754 188 428Z"/>
</svg>