<svg xmlns="http://www.w3.org/2000/svg"
    viewBox="0 0 1000 1000">
  <!--
© 2017-2023 Adobe (http://www.adobe.com/).
Noto is a trademark of Google Inc.
This Font Software is licensed under the SIL Open Font License, Version 1.1. This Font Software is distributed on an "AS IS" BASIS, WITHOUT WARRANTIES OR CONDITIONS OF ANY KIND, either express or implied. See the SIL Open Font License for the specific language, permissions and limitations governing your use of this Font Software.
http://scripts.sil.org/OFL
  -->
<path d="M495 20L484 27C521 75 561 151 564 212 629 269 692 121 495 20ZM790 16C772 91 745 171 719 223L735 231C779 192 824 130 856 68 877 69 889 60 893 49ZM37 93L45 122 181 122C157 291 111 461 35 593L49 605C77 570 103 532 125 493L125 884 135 884C166 884 186 869 186 864L186 753 313 753 313 817 322 817C343 817 375 805 376 800L376 431C395 427 411 419 418 411L338 350 303 390 198 390 179 381C211 301 235 214 250 122L431 122C445 122 454 117 457 106 425 76 371 35 371 35L325 93ZM313 419L313 723 186 723 186 419ZM751 267L751 484 598 484C602 419 602 347 603 267ZM402 484L410 512 531 512C519 691 477 817 318 913L333 930C528 837 581 706 596 512L751 512 751 926 760 926C793 926 814 910 814 905L814 512 951 512C964 512 974 507 977 496 946 466 895 424 895 424L850 484 814 484 814 267 934 267C948 267 957 262 960 251 929 221 878 181 878 181L833 238 409 238 417 267 535 267C535 347 535 419 532 484Z"/>
</svg>