<svg xmlns="http://www.w3.org/2000/svg"
    viewBox="0 0 1000 1000">
  <!--
© 2017-2024 Adobe (http://www.adobe.com/).
Noto is a trademark of Google Inc.
This Font Software is licensed under the SIL Open Font License, Version 1.1. This Font Software is distributed on an "AS IS" BASIS, WITHOUT WARRANTIES OR CONDITIONS OF ANY KIND, either express or implied. See the SIL Open Font License for the specific language, permissions and limitations governing your use of this Font Software.
http://scripts.sil.org/OFL
  -->
<path d="M41 93L49 123 166 123C143 284 101 446 30 572L46 585C73 550 96 514 117 475L117 878 127 878C157 878 177 862 177 857L177 755 290 755 290 818 298 818C318 818 349 805 350 800L350 423C369 419 384 412 390 405L313 346 280 384 188 384 165 373C196 296 218 212 233 123L391 123C405 123 414 118 417 107 385 78 333 37 333 37L289 93ZM290 413L290 726 177 726 177 413ZM791 272C781 385 753 492 711 570 697 531 686 489 677 442L679 379 679 211 937 211C951 211 962 206 964 195 931 164 877 122 877 122L829 181 679 181 679 54C704 50 711 40 714 26L615 16 615 181 353 181 361 211 615 211 615 379C615 608 557 794 297 912L305 928C544 843 637 700 667 529 707 723 786 854 914 927 920 895 946 874 976 865L978 854C854 803 765 714 713 575L726 582C762 544 792 493 816 434 850 477 885 534 892 581 951 629 1004 506 824 411 835 380 845 347 852 314 873 314 883 304 886 292ZM459 277C449 412 415 532 361 618L375 627C422 583 458 523 484 451 507 485 526 529 527 565 579 611 635 502 493 423 503 390 512 355 518 318 540 317 550 307 554 294Z"/>
</svg>