<svg xmlns="http://www.w3.org/2000/svg" name="gid9303" data-unicode="硨"
    viewBox="0 0 1000 1000">
  <!--
© 2017-2024 Adobe (http://www.adobe.com/).
Noto is a trademark of Google Inc.
This Font Software is licensed under the SIL Open Font License, Version 1.1. This Font Software is distributed on an "AS IS" BASIS, WITHOUT WARRANTIES OR CONDITIONS OF ANY KIND, either express or implied. See the SIL Open Font License for the specific language, permissions and limitations governing your use of this Font Software.
http://scripts.sil.org/OFL
  -->
<path d="M434 306L434 674 443 674C468 674 494 659 494 654L494 621 630 621 630 745 385 745 393 775 630 775 630 957 642 957C667 957 694 943 694 934L694 775 938 775C952 775 962 770 964 759 932 728 880 688 880 688L834 745 694 745 694 621 834 621 834 664 844 664C864 664 895 648 896 642L896 344C913 341 928 333 934 326L859 269 825 306 694 306 694 214 931 214C945 214 955 209 958 198 925 169 874 127 874 127L827 185 694 185 694 85C718 82 726 71 729 57L630 47 630 185 395 185 403 214 630 214 630 306 499 306 434 275ZM630 476L630 591 494 591 494 476ZM694 476L834 476 834 591 694 591ZM630 447L494 447 494 335 630 335ZM694 447L694 335 834 335 834 447ZM43 124L51 154 170 154C149 315 107 476 38 603L53 616C77 585 99 552 118 517L118 907 128 907C159 907 179 892 179 886L179 787 297 787 297 847 306 847C327 847 358 835 359 830L359 460C378 456 393 449 400 441L322 381 288 420 191 420 169 410C201 330 223 245 238 154L400 154C414 154 423 149 426 138 393 108 342 67 342 67L296 124ZM297 449L297 758 179 758 179 449Z"/>
</svg>