<svg xmlns="http://www.w3.org/2000/svg"
    viewBox="0 0 1000 1000">
  <!--
© 2017-2024 Adobe (http://www.adobe.com/).
Noto is a trademark of Google Inc.
This Font Software is licensed under the SIL Open Font License, Version 1.1. This Font Software is distributed on an "AS IS" BASIS, WITHOUT WARRANTIES OR CONDITIONS OF ANY KIND, either express or implied. See the SIL Open Font License for the specific language, permissions and limitations governing your use of this Font Software.
http://scripts.sil.org/OFL
  -->
<path d="M543 12C508 151 447 287 383 383L337 348 302 388 200 388 179 379C209 303 231 221 246 134L426 134C440 134 448 129 451 118 419 87 366 47 366 47L320 104 40 104 48 134 174 134C153 300 109 464 34 593L49 605C78 569 104 531 126 491L126 883 137 883C167 883 187 867 187 862L187 773 312 773 312 843 321 843C342 843 374 829 375 823L375 429C394 425 411 417 417 409L402 398C426 373 450 345 472 315L472 927 481 927C512 927 532 910 532 904L532 843 945 843C959 843 968 838 971 827 939 797 887 755 887 755L841 814 741 814 741 640 915 640C929 640 939 635 941 624 910 596 860 555 860 555L817 612 741 612 741 444 911 444C924 444 934 439 936 428 905 399 856 359 856 359L814 415 741 415 741 251 929 251C943 251 953 246 955 235 923 205 871 164 871 164L825 222 711 222C748 172 785 112 811 69 832 69 844 61 848 49L743 19C727 79 703 160 680 222L545 222 534 217C560 169 584 117 604 62 627 64 639 55 643 43ZM312 416L312 744 187 744 187 416ZM679 251L679 415 532 415 532 251ZM679 444L679 612 532 612 532 444ZM679 640L679 814 532 814 532 640Z"/>
</svg>