<svg xmlns="http://www.w3.org/2000/svg"
    viewBox="0 0 1000 1000">
  <!--
© 2017-2023 Adobe (http://www.adobe.com/).
Noto is a trademark of Google Inc.
This Font Software is licensed under the SIL Open Font License, Version 1.1. This Font Software is distributed on an "AS IS" BASIS, WITHOUT WARRANTIES OR CONDITIONS OF ANY KIND, either express or implied. See the SIL Open Font License for the specific language, permissions and limitations governing your use of this Font Software.
http://scripts.sil.org/OFL
  -->
<path d="M663 18C651 50 609 139 583 187 635 235 673 311 682 355 735 396 804 283 610 184 644 147 702 82 722 58 738 60 747 54 750 46ZM857 17C842 49 789 139 758 186 818 235 861 310 874 356 931 395 998 280 787 183 826 148 891 84 914 59 930 62 940 57 943 48ZM483 17C472 50 428 139 402 187 454 237 492 312 502 357 553 396 620 286 430 184 464 147 519 81 540 56 556 58 565 53 568 44ZM619 353L586 455 500 455 429 424 429 928 438 928C469 928 488 914 488 908L488 864 851 864 851 921 861 921C888 921 912 906 912 901L912 489C933 486 944 480 951 472L879 416 847 455 625 455 679 397C699 398 713 390 717 377ZM488 834L488 484 851 484 851 834ZM533 562L524 574C561 593 604 621 644 652 605 703 559 751 509 788L519 801C579 769 633 726 678 680 716 712 749 747 766 778 821 803 839 722 712 641 738 610 760 578 776 549 800 552 808 548 814 537L730 502C715 538 695 577 669 616 633 597 588 579 533 562ZM34 112L41 141 172 141C149 305 106 471 32 599L47 612C76 575 102 536 124 494L124 889 134 889C165 889 184 874 184 869L184 769 298 769 298 833 307 833C327 833 358 819 359 814L359 431C378 427 394 419 401 412L322 352 288 391 196 391 175 382C204 306 225 225 240 141L397 141C411 141 421 136 423 125 391 95 339 55 339 55L293 112ZM298 419L298 740 184 740 184 419Z"/>
</svg>