<svg xmlns="http://www.w3.org/2000/svg"
    viewBox="0 0 1000 1000">
  <!--
© 2017-2024 Adobe (http://www.adobe.com/).
Noto is a trademark of Google Inc.
This Font Software is licensed under the SIL Open Font License, Version 1.1. This Font Software is distributed on an "AS IS" BASIS, WITHOUT WARRANTIES OR CONDITIONS OF ANY KIND, either express or implied. See the SIL Open Font License for the specific language, permissions and limitations governing your use of this Font Software.
http://scripts.sil.org/OFL
  -->
<path d="M248 161L236 169C258 188 278 221 279 249 326 288 377 194 248 161ZM262 347L262 471 273 471C292 471 315 458 315 451L315 377C332 373 340 366 341 355ZM566 69L566 104C566 158 561 221 497 276L508 290C614 239 626 156 626 104L626 98 748 98 748 201C748 238 755 252 805 252L853 252C934 252 956 241 956 216 956 205 951 199 933 192L930 140 919 140C912 164 904 186 900 193 896 197 892 198 888 198 882 198 870 198 856 198L821 198C807 198 805 196 805 187L805 106C822 104 832 99 838 92L772 35 739 69 637 69 566 37ZM201 143L394 143 394 263 201 281 201 267ZM264 11C259 40 250 82 242 113L213 113 144 82 144 268 144 286 41 293 73 367C82 365 92 358 97 347L141 339C134 418 111 494 41 556L53 569C161 505 191 414 199 329L394 292 394 467C394 479 390 484 374 484 359 484 290 479 290 479L290 495C322 499 341 505 352 514 362 523 365 537 367 552 444 545 453 518 453 472L453 280 498 271 496 253 453 257 453 153C473 149 488 142 495 134L415 76 384 113 274 113C294 92 314 68 329 48 350 46 362 36 364 24ZM790 326C770 362 743 394 709 422 663 398 625 366 597 326ZM42 591L51 620 309 620C250 706 141 789 27 841L36 855C113 830 190 795 258 751L258 928 269 928C303 928 324 911 324 905L324 878 760 878 760 926 771 926C792 926 827 911 828 905L828 739C847 735 863 727 870 719L788 657 750 697 336 697 332 695C359 672 383 647 403 620L927 620C941 620 952 615 954 605 934 586 906 565 889 551L905 555C912 526 930 506 956 500L956 489C883 481 817 467 760 445 802 413 837 376 863 331 886 330 897 328 903 320L836 260 795 296 513 296 522 326 572 326C597 377 629 418 670 452 612 490 541 518 459 539L465 555C561 540 641 515 707 479 751 507 803 528 863 545L823 591ZM760 726L760 849 324 849 324 726Z"/>
</svg>