<svg xmlns="http://www.w3.org/2000/svg" name="gid9373" data-unicode="磠"
    viewBox="0 0 1000 1000">
  <!--
© 2017-2024 Adobe (http://www.adobe.com/).
Noto is a trademark of Google Inc.
This Font Software is licensed under the SIL Open Font License, Version 1.1. This Font Software is distributed on an "AS IS" BASIS, WITHOUT WARRANTIES OR CONDITIONS OF ANY KIND, either express or implied. See the SIL Open Font License for the specific language, permissions and limitations governing your use of this Font Software.
http://scripts.sil.org/OFL
  -->
<path d="M577 376L568 387C603 412 622 453 632 480 678 517 720 407 577 376ZM758 534L750 546C785 569 804 609 814 635 860 670 899 560 758 534ZM495 549L486 560C520 582 536 624 541 650 584 688 630 579 495 549ZM627 719L618 730C653 756 669 802 674 830 718 871 770 759 627 719ZM424 318L424 954 433 954C464 954 484 939 484 934L484 891 862 891 862 949 872 949C900 949 923 933 923 928L923 354C946 350 958 344 965 336L891 277 858 318 703 318 703 215 934 215C948 215 957 210 960 199 927 169 875 126 875 126L828 185 703 185 703 84C727 81 737 71 739 57L639 47 639 318 496 318 424 287ZM484 862L484 347 862 347 862 862ZM738 376C722 431 697 491 665 551 627 521 579 490 521 458L509 468C551 501 599 544 643 591 601 664 548 733 488 786L499 799C567 752 625 690 673 624 718 676 755 730 770 777 825 814 850 714 702 582 738 527 767 472 787 423 812 425 821 420 826 409ZM43 134L51 164 167 164C146 325 106 486 37 613L53 626C76 595 96 563 115 529L115 919 125 919C155 919 175 905 175 899L175 796 295 796 295 860 304 860C324 860 354 847 355 842L355 462C374 458 389 450 396 443L319 385 286 423 186 423 168 415C198 336 220 252 235 164L398 164C412 164 421 159 424 148 392 118 340 78 340 78L296 134ZM295 451L295 767 175 767 175 451Z"/>
</svg>