<svg xmlns="http://www.w3.org/2000/svg" name="gid9376" data-unicode="磦"
    viewBox="0 0 1000 1000">
  <!--
© 2017-2024 Adobe (http://www.adobe.com/).
Noto is a trademark of Google Inc.
This Font Software is licensed under the SIL Open Font License, Version 1.1. This Font Software is distributed on an "AS IS" BASIS, WITHOUT WARRANTIES OR CONDITIONS OF ANY KIND, either express or implied. See the SIL Open Font License for the specific language, permissions and limitations governing your use of this Font Software.
http://scripts.sil.org/OFL
  -->
<path d="M770 730L760 740C814 778 879 848 895 906 964 949 1004 798 770 730ZM447 534L455 563 879 563C893 563 903 558 906 547 872 518 821 480 821 480L775 534ZM490 721C464 781 409 861 347 909L358 923C435 887 502 825 540 772 562 776 570 771 575 761ZM420 235L420 494 429 494C453 494 478 480 478 475L478 447 858 447 858 485 867 485C886 485 915 470 916 464L916 273C933 270 949 262 955 254L881 200 849 235 767 235 767 139 936 139C950 139 960 134 962 123 929 94 876 55 876 55L830 110 391 110 394 121 340 78 295 134 42 134 50 164 169 164C147 325 106 486 36 613L52 626C77 593 100 558 120 521L120 917 130 917C160 917 180 902 180 897L180 797 294 797 294 857 302 857C322 857 353 845 354 840L354 470C374 466 389 458 396 451L317 391 284 430 192 430 168 419C199 340 222 254 237 164L398 164C412 164 422 159 425 148L415 139 564 139 564 235 483 235 420 206ZM294 459L294 768 180 768 180 459ZM564 418L478 418 478 264 564 264ZM620 418L620 264 710 264 710 418ZM767 418L767 264 858 264 858 418ZM620 139L710 139 710 235 620 235ZM380 649L388 678 640 678 640 866C640 878 635 883 620 883 600 883 511 877 511 877L511 892C552 897 575 904 587 914 599 924 605 940 606 959 690 950 702 915 702 867L702 678 940 678C953 678 964 673 966 662 933 634 882 595 882 595L835 649Z"/>
</svg>