<svg xmlns="http://www.w3.org/2000/svg" name="gid9389" data-unicode="磻"
    viewBox="0 0 1000 1000">
  <!--
© 2017-2024 Adobe (http://www.adobe.com/).
Noto is a trademark of Google Inc.
This Font Software is licensed under the SIL Open Font License, Version 1.1. This Font Software is distributed on an "AS IS" BASIS, WITHOUT WARRANTIES OR CONDITIONS OF ANY KIND, either express or implied. See the SIL Open Font License for the specific language, permissions and limitations governing your use of this Font Software.
http://scripts.sil.org/OFL
  -->
<path d="M468 169L456 175C481 205 507 257 510 297 564 342 621 233 468 169ZM812 153C797 189 763 258 736 302L746 310C789 278 837 237 862 211 882 216 894 207 898 200ZM38 124L46 154 170 154C147 315 104 477 32 603L48 616C74 583 97 548 118 511L118 910 128 910C159 910 179 894 179 890L179 787 296 787 296 852 304 852C325 852 355 839 356 834L356 455C376 451 391 444 398 436L320 376 286 414 191 414 169 404C200 326 223 243 238 154L395 154C405 154 413 151 416 145L420 160C488 158 560 152 629 144L629 318 370 318 378 346 582 346C531 427 454 502 363 557L373 574C476 529 565 467 629 391L629 563 638 563C669 563 690 548 690 542L690 359C744 449 829 519 916 559 924 528 943 509 968 505L969 495C877 469 773 415 710 346L936 346C950 346 960 341 962 330 931 302 881 263 881 263L837 318 690 318 690 137C751 128 807 119 853 109 875 119 893 119 902 110L831 43C739 80 562 123 418 143 420 142 421 140 421 138 388 108 337 67 337 67L292 124ZM501 749L630 749 630 869 501 869ZM829 749L829 869 690 869 690 749ZM501 720L501 605 630 605 630 720ZM829 720L690 720 690 605 829 605ZM441 577L441 958 450 958C481 958 501 944 501 939L501 897 829 897 829 948 839 948C867 948 890 933 890 929L890 610C910 606 921 601 927 593L857 539 826 577 512 577 441 546ZM296 444L296 758 179 758 179 444Z"/>
</svg>