<svg xmlns="http://www.w3.org/2000/svg" name="gid9391" data-unicode="磾"
    viewBox="0 0 1000 1000">
  <!--
© 2017-2024 Adobe (http://www.adobe.com/).
Noto is a trademark of Google Inc.
This Font Software is licensed under the SIL Open Font License, Version 1.1. This Font Software is distributed on an "AS IS" BASIS, WITHOUT WARRANTIES OR CONDITIONS OF ANY KIND, either express or implied. See the SIL Open Font License for the specific language, permissions and limitations governing your use of this Font Software.
http://scripts.sil.org/OFL
  -->
<path d="M43 115L51 144 167 144C145 311 104 480 34 612L50 625C76 590 99 553 119 513L119 926 129 926C159 926 179 910 179 905L179 803 289 803 289 865 298 865C317 865 347 851 348 846L348 448C368 444 382 437 389 429L312 371 279 408 190 408 170 399C199 319 220 234 235 144L376 144C388 144 398 139 401 128 369 99 317 58 317 58L272 115ZM289 438L289 774 179 774 179 438ZM371 759L378 788 620 788 620 956 630 956C662 956 682 941 682 936L682 788 942 788C957 788 965 783 968 772 935 743 885 705 885 705L839 759 682 759 682 663 816 663 816 703 825 703C854 703 879 688 879 683L879 394C899 391 909 384 915 378L844 323 813 361 498 361 433 333C450 329 460 320 460 316L460 270 568 270 568 319 578 319C604 319 627 306 627 302L627 124C645 121 654 116 661 109L595 57 566 92 472 92 404 62 404 335 413 335 426 334 426 713 436 713C467 713 487 700 487 694L487 663 620 663 620 759ZM460 242L460 121 568 121 568 242ZM487 634L487 524 620 524 620 634ZM816 634L682 634 682 524 816 524ZM487 495L487 390 620 390 620 495ZM816 495L682 495 682 390 816 390ZM688 92L688 327 697 327C725 327 744 315 744 309L744 268 853 268 853 316 862 316C888 316 911 303 911 299L911 124C930 121 939 116 946 109L879 58 850 92 756 92 688 62ZM744 239L744 121 853 121 853 239Z"/>
</svg>