<svg xmlns="http://www.w3.org/2000/svg"
    viewBox="0 0 1000 1000">
  <!--
© 2017-2024 Adobe (http://www.adobe.com/).
Noto is a trademark of Google Inc.
This Font Software is licensed under the SIL Open Font License, Version 1.1. This Font Software is distributed on an "AS IS" BASIS, WITHOUT WARRANTIES OR CONDITIONS OF ANY KIND, either express or implied. See the SIL Open Font License for the specific language, permissions and limitations governing your use of this Font Software.
http://scripts.sil.org/OFL
  -->
<path d="M539 24L539 822C539 884 565 905 650 905L760 905C926 905 965 895 965 862 965 848 959 840 934 832L931 666 918 666C905 737 891 807 884 825 879 835 873 839 862 840 846 841 811 842 762 842L660 842C614 842 606 832 606 805L606 64C631 60 640 49 642 36ZM46 205L55 234 352 234C288 363 153 515 23 605L34 617C98 582 162 537 221 486L221 927 231 927C264 927 287 907 287 901L287 438C335 479 390 539 411 586 480 628 520 492 292 419 347 362 394 303 426 245 449 244 462 242 471 234L399 163 355 205 284 205 284 51C309 47 319 37 321 23L219 13 219 205Z"/>
</svg>