<svg xmlns="http://www.w3.org/2000/svg" name="gid9427" data-unicode="社"
    viewBox="0 0 1000 1000">
  <!--
© 2017-2024 Adobe (http://www.adobe.com/).
Noto is a trademark of Google Inc.
This Font Software is licensed under the SIL Open Font License, Version 1.1. This Font Software is distributed on an "AS IS" BASIS, WITHOUT WARRANTIES OR CONDITIONS OF ANY KIND, either express or implied. See the SIL Open Font License for the specific language, permissions and limitations governing your use of this Font Software.
http://scripts.sil.org/OFL
  -->
<path d="M407 390L415 419 614 419 614 881 348 881 356 911 940 911C954 911 964 906 966 895 933 863 880 820 880 820L832 881 682 881 682 419 909 419C923 419 933 414 936 403 902 373 850 330 850 330L804 390 682 390 682 88C707 84 714 74 717 59L614 49 614 390ZM46 236L55 265 314 265C259 391 140 543 22 636L35 647C95 611 154 564 208 511L208 958 219 958C250 958 273 942 273 935L273 464C311 497 352 544 367 582 432 620 470 496 275 439 321 385 360 329 386 275 410 274 422 272 431 265L361 194 317 236 269 236 269 84C294 81 304 71 306 57L207 47 207 236Z"/>
</svg>