<svg xmlns="http://www.w3.org/2000/svg" name="gid9429" data-unicode="祀"
    viewBox="0 0 1000 1000">
  <!--
© 2017-2024 Adobe (http://www.adobe.com/).
Noto is a trademark of Google Inc.
This Font Software is licensed under the SIL Open Font License, Version 1.1. This Font Software is distributed on an "AS IS" BASIS, WITHOUT WARRANTIES OR CONDITIONS OF ANY KIND, either express or implied. See the SIL Open Font License for the specific language, permissions and limitations governing your use of this Font Software.
http://scripts.sil.org/OFL
  -->
<path d="M86 404L86 567C86 663 82 783 42 871L58 881C130 795 142 666 143 569L143 440C167 437 174 427 176 414ZM359 405L359 833 370 833C391 833 415 819 415 812L415 442C439 438 448 429 450 416ZM78 118L86 147 420 147C434 147 443 142 446 131 413 101 359 60 359 60L312 118ZM44 298L52 327 220 327 220 956 230 956C261 956 281 939 281 934L281 327 454 327C468 327 478 322 481 312 447 281 395 241 395 241L349 298ZM514 115L514 842C514 906 539 925 627 925L746 925C920 925 960 913 960 881 960 867 954 860 928 851L925 711 913 711C900 773 888 831 879 847 874 855 868 858 856 859 840 861 801 862 748 862L635 862C586 862 579 853 579 826L579 467 832 467 832 553 842 553C864 553 896 537 897 531L897 157C917 153 933 145 940 137L859 75 822 115 590 115 514 82ZM579 438L579 144 832 144 832 438Z"/>
</svg>