<svg xmlns="http://www.w3.org/2000/svg"
    viewBox="0 0 1000 1000">
  <!--
© 2017-2023 Adobe (http://www.adobe.com/).
Noto is a trademark of Google Inc.
This Font Software is licensed under the SIL Open Font License, Version 1.1. This Font Software is distributed on an "AS IS" BASIS, WITHOUT WARRANTIES OR CONDITIONS OF ANY KIND, either express or implied. See the SIL Open Font License for the specific language, permissions and limitations governing your use of this Font Software.
http://scripts.sil.org/OFL
  -->
<path d="M840 20C777 57 662 104 559 135L480 107 480 415C480 596 461 774 336 915L351 927C525 790 542 586 542 416L542 379 740 379 740 926 751 926C784 926 806 910 806 905L806 379 941 379C955 379 964 374 966 363 934 334 882 291 882 291L836 351 542 351 542 160C658 147 788 117 871 92 895 101 912 101 921 91ZM42 206L51 235 318 235C261 360 137 513 19 606L31 617C91 581 151 534 206 481L206 928 217 928C248 928 271 912 271 905L271 424C312 458 358 509 375 549 439 587 479 462 279 405 325 353 364 298 391 246 415 244 427 242 436 235L366 163 322 206 265 206 265 52C290 49 300 39 302 25L201 15 201 206Z"/>
</svg>