<svg xmlns="http://www.w3.org/2000/svg" name="gid9441" data-unicode="祐"
    viewBox="0 0 1000 1000">
  <!--
© 2017-2024 Adobe (http://www.adobe.com/).
Noto is a trademark of Google Inc.
This Font Software is licensed under the SIL Open Font License, Version 1.1. This Font Software is distributed on an "AS IS" BASIS, WITHOUT WARRANTIES OR CONDITIONS OF ANY KIND, either express or implied. See the SIL Open Font License for the specific language, permissions and limitations governing your use of this Font Software.
http://scripts.sil.org/OFL
  -->
<path d="M46 236L55 265 311 265C255 390 136 543 22 636L35 647C94 610 153 561 207 507L207 958 218 958C249 958 272 942 272 935L272 459C310 493 350 540 364 578 428 617 468 494 274 435 319 382 357 327 383 275 405 274 417 272 425 267L428 277 552 277C516 459 446 640 319 768L332 777C411 718 470 644 516 563L516 949 526 949C559 949 579 933 579 927L579 873 833 873 833 944 844 944C874 944 899 928 899 922L899 535C919 532 931 525 938 518L856 455 825 496 591 496 557 481C586 414 608 345 624 277L937 277C951 277 962 272 964 261 931 230 877 188 877 188L829 248 631 248C644 191 653 136 660 83 689 80 698 72 701 58L583 43C578 109 571 178 558 248L420 248 423 260 359 194 314 236 268 236 268 82C293 79 303 69 305 55L205 45 205 236ZM833 844L579 844 579 524 833 524Z"/>
</svg>