<svg xmlns="http://www.w3.org/2000/svg"
    viewBox="0 0 1000 1000">
  <!--
© 2017-2023 Adobe (http://www.adobe.com/).
Noto is a trademark of Google Inc.
This Font Software is licensed under the SIL Open Font License, Version 1.1. This Font Software is distributed on an "AS IS" BASIS, WITHOUT WARRANTIES OR CONDITIONS OF ANY KIND, either express or implied. See the SIL Open Font License for the specific language, permissions and limitations governing your use of this Font Software.
http://scripts.sil.org/OFL
  -->
<path d="M91 379L91 536C91 634 86 755 41 842L55 853C133 768 146 637 148 537L148 414C172 411 178 402 181 389ZM361 380L361 789 371 789C393 789 417 776 417 769L417 417C441 413 450 404 452 391ZM82 88L90 117 433 117C446 117 456 112 459 101 426 71 371 30 371 30L325 88ZM537 379L537 532C537 630 531 753 479 842L494 854C578 767 593 633 594 534L594 414C618 411 625 402 628 389ZM836 380L836 835 847 835C869 835 894 822 894 814L894 417C918 414 927 405 929 391ZM538 88L546 117 898 117C912 117 921 112 924 101 891 71 837 30 837 30L790 88ZM42 266L50 295 227 295 227 927 236 927C268 927 288 910 288 905L288 295 454 295C468 295 478 290 480 280 447 249 394 210 394 210L348 266ZM499 266L507 295 684 295 684 927 693 927C725 927 746 910 746 905L746 295 943 295C957 295 965 290 968 280 934 249 881 209 881 209L832 266Z"/>
</svg>