<svg xmlns="http://www.w3.org/2000/svg"
    viewBox="0 0 1000 1000">
  <!--
© 2017-2024 Adobe (http://www.adobe.com/).
Noto is a trademark of Google Inc.
This Font Software is licensed under the SIL Open Font License, Version 1.1. This Font Software is distributed on an "AS IS" BASIS, WITHOUT WARRANTIES OR CONDITIONS OF ANY KIND, either express or implied. See the SIL Open Font License for the specific language, permissions and limitations governing your use of this Font Software.
http://scripts.sil.org/OFL
  -->
<path d="M483 18L471 24C504 71 545 146 552 204 618 260 681 119 483 18ZM433 229L440 259 642 259 642 419 439 419 447 449 642 449 642 639 393 639 401 669 642 669 642 926 653 926C687 926 708 910 708 905L708 669 944 669C957 669 967 664 970 653 937 623 886 583 886 583L839 639 708 639 708 449 908 449C922 449 932 444 935 433 902 404 852 364 852 364L808 419 708 419 708 259 930 259C944 259 954 254 956 243 925 214 874 174 874 174L829 229 740 229C784 176 830 108 859 59 880 59 892 51 896 38L793 11C775 76 745 165 717 229ZM46 206L55 235 311 235C255 360 136 513 22 606L35 617C94 580 153 531 207 477L207 928 218 928C249 928 272 912 272 905L272 429C310 463 350 510 364 548 428 587 468 464 274 405 319 352 357 297 383 245 407 244 419 242 428 235L359 164 314 206 268 206 268 52C293 49 303 39 305 25L205 15 205 206Z"/>
</svg>