<svg xmlns="http://www.w3.org/2000/svg" name="gid9479" data-unicode="禎"
    viewBox="0 0 1000 1000">
  <!--
© 2017-2024 Adobe (http://www.adobe.com/).
Noto is a trademark of Google Inc.
This Font Software is licensed under the SIL Open Font License, Version 1.1. This Font Software is distributed on an "AS IS" BASIS, WITHOUT WARRANTIES OR CONDITIONS OF ANY KIND, either express or implied. See the SIL Open Font License for the specific language, permissions and limitations governing your use of this Font Software.
http://scripts.sil.org/OFL
  -->
<path d="M570 778C526 836 433 905 347 943L356 957C457 933 562 883 619 836 641 842 648 838 655 828ZM721 793L713 804C780 838 871 903 906 954 986 981 996 826 721 793ZM456 279L456 797 466 797C498 797 518 782 518 777L518 739 835 739 835 778 845 778C875 778 901 762 901 757L901 314C921 311 932 305 939 297L865 240 831 279 702 279 702 178 931 178C945 178 954 173 957 162 925 132 875 93 875 93L830 148 702 148 702 84C726 81 736 71 738 57L636 47 636 279 530 279 456 247ZM518 451L835 451 835 566 518 566ZM518 422L518 309 835 309 835 422ZM518 595L835 595 835 710 518 710ZM46 236L55 265 311 265C255 390 136 543 22 636L35 647C94 610 153 561 207 507L207 958 218 958C249 958 272 942 272 935L272 459C310 493 350 540 364 578 428 617 468 494 274 435 319 382 357 327 383 275 407 274 419 272 428 265L359 194 314 236 268 236 268 82C293 79 303 69 305 55L205 45 205 236Z"/>
</svg>