<svg xmlns="http://www.w3.org/2000/svg" name="gid9494" data-unicode="禩"
    viewBox="0 0 1000 1000">
  <!--
© 2017-2024 Adobe (http://www.adobe.com/).
Noto is a trademark of Google Inc.
This Font Software is licensed under the SIL Open Font License, Version 1.1. This Font Software is distributed on an "AS IS" BASIS, WITHOUT WARRANTIES OR CONDITIONS OF ANY KIND, either express or implied. See the SIL Open Font License for the specific language, permissions and limitations governing your use of this Font Software.
http://scripts.sil.org/OFL
  -->
<path d="M76 414L76 564C76 656 72 776 37 862L52 874C116 788 126 658 126 565L126 448C151 445 158 436 161 423ZM312 412L312 829 322 829C342 829 364 815 364 807L364 444C385 442 393 433 395 421ZM60 118L68 148 367 148C381 148 391 143 394 132 361 102 308 63 308 63L262 118ZM558 763C517 830 431 903 350 945L358 960C455 932 563 875 615 818 633 822 644 820 648 811ZM726 778L717 789C780 828 866 897 899 951 976 983 998 832 726 778ZM40 297L48 326 193 326 193 959 202 959C231 959 250 944 250 939L250 326 389 326C402 326 412 321 414 310 384 280 335 240 335 240L291 297ZM830 128L830 243 700 243 700 128ZM448 99L448 468 458 468C484 468 510 453 510 448L510 422 830 422 830 458 839 458C860 458 892 443 893 436L893 137C909 134 924 126 930 120L855 61 821 99 515 99 448 68ZM510 271L640 271 640 392 510 392ZM510 243L510 128 640 128 640 243ZM830 271L830 392 700 392 700 271ZM727 436L727 547 604 547 604 473C629 470 639 460 641 447L544 436 544 547 417 547 425 576 544 576 544 719 391 719 399 749 945 749C959 749 968 744 970 733 941 705 892 668 892 668L849 719 787 719 787 576 920 576C934 576 943 571 946 560 918 534 875 501 875 501L837 547 787 547 787 473C812 469 822 459 824 446ZM604 719L604 576 727 576 727 719Z"/>
</svg>