<svg xmlns="http://www.w3.org/2000/svg"
    viewBox="0 0 1000 1000">
  <!--
© 2017-2024 Adobe (http://www.adobe.com/).
Noto is a trademark of Google Inc.
This Font Software is licensed under the SIL Open Font License, Version 1.1. This Font Software is distributed on an "AS IS" BASIS, WITHOUT WARRANTIES OR CONDITIONS OF ANY KIND, either express or implied. See the SIL Open Font License for the specific language, permissions and limitations governing your use of this Font Software.
http://scripts.sil.org/OFL
  -->
<path d="M610 589L599 596C620 618 644 648 663 680L528 691 528 549 815 549 815 826C815 840 811 846 794 846 770 846 674 839 674 839L674 855C717 860 742 868 755 878 769 889 774 907 777 926 869 917 881 884 881 834L881 561C901 558 917 550 923 542L839 479 806 519 528 519 528 417 727 417 727 459 737 459C759 459 792 444 793 437L793 260C812 256 829 248 835 240L754 179 717 219 528 219 528 113C640 104 744 93 830 81 853 91 872 90 881 82L810 17C649 57 348 96 103 107L106 127C223 128 346 124 464 117L464 219 274 219 204 187 204 464 214 464C239 464 268 449 268 443L268 417 464 417 464 519 188 519 117 487 117 927 127 927C155 927 182 912 182 905L182 549 464 549 464 696C368 703 288 708 242 709L274 792C284 790 294 783 300 771 460 744 581 720 675 700 689 724 699 748 704 769 768 817 819 679 610 589ZM727 247L727 387 528 387 528 247ZM268 387L268 247 464 247 464 387Z"/>
</svg>