<svg xmlns="http://www.w3.org/2000/svg" name="gid9509" data-unicode="禿"
    viewBox="0 0 1000 1000">
  <!--
© 2017-2024 Adobe (http://www.adobe.com/).
Noto is a trademark of Google Inc.
This Font Software is licensed under the SIL Open Font License, Version 1.1. This Font Software is distributed on an "AS IS" BASIS, WITHOUT WARRANTIES OR CONDITIONS OF ANY KIND, either express or implied. See the SIL Open Font License for the specific language, permissions and limitations governing your use of this Font Software.
http://scripts.sil.org/OFL
  -->
<path d="M327 549C335 721 292 864 40 943L46 958C334 891 392 753 401 586 422 583 434 576 437 559ZM580 548L580 870C580 920 596 936 673 936L777 936C929 936 961 923 961 894 961 881 955 873 933 865L930 730 917 730C905 789 895 845 887 861 883 871 880 874 868 874 855 875 822 875 779 875L684 875C649 875 644 871 644 856L644 583C664 579 673 571 675 559ZM767 41C624 85 351 133 129 150L132 169C241 169 357 162 467 152L467 269 50 269 59 299 399 299C313 401 180 498 37 563L47 580C214 522 365 435 467 326L467 524 477 524C510 524 532 509 532 505L532 299 548 299C631 418 770 512 909 563 917 530 940 509 967 505L968 495C834 463 672 389 577 299L924 299C938 299 947 294 950 283 916 252 861 210 861 210L812 269 532 269 532 146C627 136 716 124 788 111 813 122 832 122 840 113Z"/>
</svg>