<svg xmlns="http://www.w3.org/2000/svg"
    viewBox="0 0 1000 1000">
  <!--
© 2017-2024 Adobe (http://www.adobe.com/).
Noto is a trademark of Google Inc.
This Font Software is licensed under the SIL Open Font License, Version 1.1. This Font Software is distributed on an "AS IS" BASIS, WITHOUT WARRANTIES OR CONDITIONS OF ANY KIND, either express or implied. See the SIL Open Font License for the specific language, permissions and limitations governing your use of this Font Software.
http://scripts.sil.org/OFL
  -->
<path d="M517 534C538 532 547 521 549 510L447 500C440 641 420 794 47 911L58 928C423 835 489 704 510 586 544 722 630 853 885 929 890 891 914 879 950 874L952 862C649 793 549 674 517 534ZM767 17C626 62 357 109 139 126L142 144C248 144 361 137 467 128L467 239 60 239 69 269 402 269C321 379 190 478 38 543L48 559C221 502 369 415 467 300L467 479 477 479C510 479 532 464 532 459L532 269 548 269C628 389 762 484 897 535 905 502 928 481 956 477L957 467C825 434 669 360 577 269L913 269C927 269 937 264 940 253 905 222 850 180 850 180L801 239 532 239 532 122C628 112 716 100 788 87 813 97 832 97 840 90Z"/>
</svg>