<svg xmlns="http://www.w3.org/2000/svg"
    viewBox="0 0 1000 1000">
  <!--
© 2017-2024 Adobe (http://www.adobe.com/).
Noto is a trademark of Google Inc.
This Font Software is licensed under the SIL Open Font License, Version 1.1. This Font Software is distributed on an "AS IS" BASIS, WITHOUT WARRANTIES OR CONDITIONS OF ANY KIND, either express or implied. See the SIL Open Font License for the specific language, permissions and limitations governing your use of this Font Software.
http://scripts.sil.org/OFL
  -->
<path d="M414 414L404 425C448 451 498 488 543 529 517 690 462 822 345 908L359 925C494 847 562 728 597 582 625 614 648 645 661 675 723 708 748 612 612 511 623 443 629 370 632 293L767 293 767 846C767 888 777 907 830 907L873 907C955 907 979 893 979 867 979 854 975 847 956 839L952 706 939 706C931 756 919 822 914 835 911 843 907 844 902 845 896 845 887 845 875 845L847 845C833 845 831 841 831 826L831 305C852 303 864 297 871 289L795 223 757 264 633 264C635 200 636 133 637 65 660 62 670 52 673 37L567 26C567 108 567 188 565 264L429 264 437 293 564 293C562 356 558 416 551 473 513 453 468 432 414 414ZM361 17C292 62 154 125 40 159L45 174C100 166 159 154 214 140L214 313 43 313 51 343 191 343C158 483 101 625 19 732L33 745C110 671 170 584 214 486L214 927 224 927C255 927 278 911 278 905L278 464C317 505 361 566 374 613 436 659 487 530 278 444L278 343 423 343C436 343 445 338 447 327 419 297 370 258 370 258L327 313 278 313 278 123C322 110 362 97 394 85 419 93 436 92 444 83Z"/>
</svg>