<svg xmlns="http://www.w3.org/2000/svg" name="gid9520" data-unicode="种"
    viewBox="0 0 1000 1000">
  <!--
© 2017-2024 Adobe (http://www.adobe.com/).
Noto is a trademark of Google Inc.
This Font Software is licensed under the SIL Open Font License, Version 1.1. This Font Software is distributed on an "AS IS" BASIS, WITHOUT WARRANTIES OR CONDITIONS OF ANY KIND, either express or implied. See the SIL Open Font License for the specific language, permissions and limitations governing your use of this Font Software.
http://scripts.sil.org/OFL
  -->
<path d="M359 43C291 91 152 159 37 195L43 211C101 201 162 187 219 170L219 343 43 343 51 373 196 373C163 513 106 655 24 762L37 775C115 701 175 614 219 516L219 957 228 957C260 957 283 941 283 935L283 492C322 533 365 594 379 641 441 687 492 558 283 473L283 373 429 373C434 373 438 372 441 371L441 693 451 693C477 693 503 678 503 672L503 616 648 616 648 952 660 952C683 952 710 937 710 927L710 616 865 616 865 681 875 681C895 681 927 665 928 659L928 300C948 296 963 288 970 280L891 219 855 258 710 258 710 104C741 100 751 88 754 71L648 59 648 258 509 258 441 227 441 344C412 317 376 288 376 288L333 343 283 343 283 151C325 137 363 123 394 110 419 118 436 117 444 108ZM648 587L503 587 503 288 648 288ZM710 587L710 288 865 288 865 587Z"/>
</svg>