<svg xmlns="http://www.w3.org/2000/svg"
    viewBox="0 0 1000 1000">
  <!--
© 2017-2023 Adobe (http://www.adobe.com/).
Noto is a trademark of Google Inc.
This Font Software is licensed under the SIL Open Font License, Version 1.1. This Font Software is distributed on an "AS IS" BASIS, WITHOUT WARRANTIES OR CONDITIONS OF ANY KIND, either express or implied. See the SIL Open Font License for the specific language, permissions and limitations governing your use of this Font Software.
http://scripts.sil.org/OFL
  -->
<path d="M656 23L656 534C656 547 651 552 634 552 615 552 523 546 523 546L523 561C564 567 587 574 601 584 613 594 619 610 621 628 708 620 719 589 719 537L719 60C742 56 752 48 754 34ZM805 173L791 179C836 255 891 372 896 461 964 526 1023 353 805 173ZM851 478C761 725 585 844 369 909L375 927C612 884 800 775 903 535 926 539 936 535 943 525ZM514 178C495 295 457 412 411 489L427 499C492 434 543 335 577 226 598 227 609 218 613 206ZM361 13C292 62 152 130 35 166L41 182C100 172 161 158 219 141L219 313 43 313 51 343 196 343C163 483 106 625 24 732L37 745C115 671 175 584 219 486L219 927 228 927C260 927 283 911 283 905L283 462C322 503 365 564 379 611 441 657 492 528 283 443L283 343 430 343C443 343 452 338 455 327 426 297 377 258 377 258L334 313 283 313 283 121C326 107 364 92 396 79 421 87 438 87 446 77Z"/>
</svg>