<svg xmlns="http://www.w3.org/2000/svg" name="gid9531" data-unicode="租"
    viewBox="0 0 1000 1000">
  <!--
© 2017-2024 Adobe (http://www.adobe.com/).
Noto is a trademark of Google Inc.
This Font Software is licensed under the SIL Open Font License, Version 1.1. This Font Software is distributed on an "AS IS" BASIS, WITHOUT WARRANTIES OR CONDITIONS OF ANY KIND, either express or implied. See the SIL Open Font License for the specific language, permissions and limitations governing your use of this Font Software.
http://scripts.sil.org/OFL
  -->
<path d="M473 131L473 899 321 899 329 928 959 928C972 928 981 923 984 913 960 883 916 841 916 841L879 899 857 899 857 172C882 168 896 163 902 154L817 86 782 131 546 131 473 99ZM535 899L535 658 793 658 793 899ZM535 401L793 401 793 629 535 629ZM535 372L535 161 793 161 793 372ZM337 45C275 87 148 146 46 178L51 193C103 186 158 175 210 162L210 338 42 338 50 368 198 368C166 505 109 643 30 748L42 761C112 695 168 618 210 533L210 959 220 959C251 959 274 943 274 937L274 454C310 491 350 544 362 586 426 630 475 505 274 433L274 368 420 368C434 368 443 363 446 352 416 322 367 282 367 282L323 338 274 338 274 145C310 135 342 125 369 115 393 123 411 122 421 113Z"/>
</svg>