<svg xmlns="http://www.w3.org/2000/svg"
    viewBox="0 0 1000 1000">
  <!--
© 2017-2023 Adobe (http://www.adobe.com/).
Noto is a trademark of Google Inc.
This Font Software is licensed under the SIL Open Font License, Version 1.1. This Font Software is distributed on an "AS IS" BASIS, WITHOUT WARRANTIES OR CONDITIONS OF ANY KIND, either express or implied. See the SIL Open Font License for the specific language, permissions and limitations governing your use of this Font Software.
http://scripts.sil.org/OFL
  -->
<path d="M721 53L711 62C754 94 807 152 823 200 893 240 935 99 721 53ZM567 26C568 108 565 190 558 272L418 272 426 300 556 300C532 541 465 768 317 917L331 926C487 806 565 627 605 428 625 527 654 615 694 690 638 780 560 858 456 914L466 928C576 882 659 815 721 738 773 819 837 882 915 927 921 895 941 871 971 862L973 851C889 815 816 760 758 687 817 598 853 498 875 399 903 398 911 392 914 379L810 355C795 453 768 550 723 638 673 562 637 469 617 359L625 300 939 300C953 300 963 295 964 284 934 255 883 214 883 214L838 272 628 272C635 204 639 134 641 65 661 62 675 53 677 34ZM333 13C271 55 145 113 40 143L45 160C98 153 154 142 206 130L206 304 40 304 48 333 194 333C163 469 109 607 30 711L43 725C111 660 165 585 206 501L206 927 216 927C247 927 270 910 270 905L270 417C303 454 338 505 348 547 409 593 460 469 270 392L270 333 401 333C415 333 425 328 427 317 398 288 350 249 350 249L307 304 270 304 270 114C307 104 340 93 367 83 391 90 408 89 417 80Z"/>
</svg>