<svg xmlns="http://www.w3.org/2000/svg"
    viewBox="0 0 1000 1000">
  <!--
© 2017-2024 Adobe (http://www.adobe.com/).
Noto is a trademark of Google Inc.
This Font Software is licensed under the SIL Open Font License, Version 1.1. This Font Software is distributed on an "AS IS" BASIS, WITHOUT WARRANTIES OR CONDITIONS OF ANY KIND, either express or implied. See the SIL Open Font License for the specific language, permissions and limitations governing your use of this Font Software.
http://scripts.sil.org/OFL
  -->
<path d="M315 22C256 65 136 127 38 160L43 175C93 167 146 155 196 141L196 311 43 311 51 341 181 341C151 484 97 628 19 738L33 751C101 681 156 599 196 509L196 928 206 928C237 928 258 912 258 906L258 464C291 501 328 554 340 595 399 638 449 521 258 443L258 341 388 341C399 341 407 338 410 330 398 362 385 391 371 417L386 426C426 384 459 329 485 265L623 265 623 311C623 367 621 423 614 477L377 477 384 506 609 506C583 666 510 811 327 914L338 929C553 835 638 682 670 514 711 697 795 847 915 930 921 901 943 882 973 873L975 861C847 797 738 671 692 506L934 506C948 506 959 501 961 490 928 459 876 417 876 417L829 477 676 477C684 423 687 367 687 312L687 265 903 265C916 265 926 260 929 249 897 219 844 176 844 176L799 235 687 235 687 65C713 61 719 51 722 37L623 26 623 235 497 235C510 198 522 159 531 118 554 118 564 108 568 96L467 74C458 163 438 250 412 324 383 295 336 256 336 256L294 311 258 311 258 122C292 111 324 100 349 90 374 98 390 96 399 87Z"/>
</svg>