<svg xmlns="http://www.w3.org/2000/svg" name="gid9542" data-unicode="秫"
    viewBox="0 0 1000 1000">
  <!--
© 2017-2024 Adobe (http://www.adobe.com/).
Noto is a trademark of Google Inc.
This Font Software is licensed under the SIL Open Font License, Version 1.1. This Font Software is distributed on an "AS IS" BASIS, WITHOUT WARRANTIES OR CONDITIONS OF ANY KIND, either express or implied. See the SIL Open Font License for the specific language, permissions and limitations governing your use of this Font Software.
http://scripts.sil.org/OFL
  -->
<path d="M740 80L731 90C772 112 818 156 832 194 895 228 927 103 740 80ZM464 354C464 539 467 729 348 869L363 884C521 752 523 561 528 389 549 386 558 376 560 363ZM784 355L784 761C784 834 795 850 849 850L901 850C953 850 971 832 971 806 971 795 968 790 950 780L947 684 933 684C925 733 919 766 915 779 910 790 907 791 900 791L856 791C844 791 844 790 844 764L844 391C864 388 874 379 875 366ZM333 53C270 96 143 157 38 190L44 205C96 198 152 186 205 173L205 344 43 344 51 373 188 373C155 513 99 655 18 761L32 775C104 705 162 622 205 531L205 959 215 959C246 959 269 943 269 937L269 496C304 533 342 587 354 630 416 675 468 548 269 477L269 373 405 373C419 373 429 368 431 357 401 327 352 287 352 287L308 344 269 344 269 155C306 144 340 133 367 122 391 130 408 130 417 120ZM621 55L621 259 393 259 401 289 621 289 621 957 633 957C658 957 685 942 685 931L685 289 930 289C944 289 954 284 957 273 923 242 868 200 868 200L820 259 685 259 685 94C711 90 718 80 720 66Z"/>
</svg>