<svg xmlns="http://www.w3.org/2000/svg" name="gid9566" data-unicode="稘"
    viewBox="0 0 1000 1000">
  <!--
© 2017-2024 Adobe (http://www.adobe.com/).
Noto is a trademark of Google Inc.
This Font Software is licensed under the SIL Open Font License, Version 1.1. This Font Software is distributed on an "AS IS" BASIS, WITHOUT WARRANTIES OR CONDITIONS OF ANY KIND, either express or implied. See the SIL Open Font License for the specific language, permissions and limitations governing your use of this Font Software.
http://scripts.sil.org/OFL
  -->
<path d="M547 748C487 826 402 894 317 941L328 959C427 924 525 869 597 805 617 809 626 807 633 797ZM716 760L706 770C771 816 863 897 900 952 976 986 1002 842 716 760ZM770 56L770 207 543 207 543 94C567 90 576 81 578 67L482 56 482 207 381 207 389 237 482 237 482 695 333 695 341 724 954 724C967 724 976 719 979 708 950 677 899 637 899 637L856 695 833 695 833 237 935 237C949 237 958 232 961 221 932 192 885 152 885 152L842 207 833 207 833 94C856 90 865 81 867 67ZM543 237L770 237 770 359 543 359ZM543 695L543 550 770 550 770 695ZM543 388L770 388 770 520 543 520ZM318 52C258 96 138 157 39 190L45 206C94 198 146 186 196 172L196 345 45 345 53 375 180 375C150 514 96 655 19 761L33 775C101 706 155 626 196 537L196 958 206 958C237 958 258 942 258 936L258 497C291 534 329 588 342 629 400 672 450 555 258 477L258 375 393 375C407 375 417 370 420 359 390 329 342 290 342 290L301 345 258 345 258 154C294 142 326 131 352 120 377 128 393 126 402 117Z"/>
</svg>