<svg xmlns="http://www.w3.org/2000/svg"
    viewBox="0 0 1000 1000">
  <!--
© 2017-2024 Adobe (http://www.adobe.com/).
Noto is a trademark of Google Inc.
This Font Software is licensed under the SIL Open Font License, Version 1.1. This Font Software is distributed on an "AS IS" BASIS, WITHOUT WARRANTIES OR CONDITIONS OF ANY KIND, either express or implied. See the SIL Open Font License for the specific language, permissions and limitations governing your use of this Font Software.
http://scripts.sil.org/OFL
  -->
<path d="M483 273L632 273 632 402 483 402ZM483 244L483 110 632 110 632 244ZM847 273L847 402 696 402 696 273ZM847 244L696 244 696 110 847 110ZM398 545L406 574 578 574C524 685 434 786 321 859L331 875C461 812 564 728 632 621L632 929 642 929C675 929 696 913 696 908L696 579C745 705 828 804 920 864 930 833 950 813 976 809L978 799C880 758 776 675 717 574L923 574C938 574 947 569 950 558 918 528 865 486 865 486L819 545 696 545 696 431 847 431 847 477 857 477C886 477 910 461 910 457L910 115C930 111 941 106 947 98L876 43 844 82 494 82 422 50 422 492 432 492C463 492 483 479 483 473L483 431 632 431 632 545ZM319 20C259 64 137 126 38 159L44 174C93 166 146 154 196 141L196 315 45 315 53 345 180 345C150 484 96 625 19 731L33 745C101 676 155 596 196 507L196 928 206 928C237 928 258 912 258 906L258 467C291 504 329 558 342 599 400 642 450 525 258 447L258 345 386 345C400 345 409 340 412 329 383 299 335 260 335 260L293 315 258 315 258 122C294 111 327 99 353 88 378 96 394 95 403 85Z"/>
</svg>