<svg xmlns="http://www.w3.org/2000/svg"
    viewBox="0 0 1000 1000">
  <!--
© 2017-2023 Adobe (http://www.adobe.com/).
Noto is a trademark of Google Inc.
This Font Software is licensed under the SIL Open Font License, Version 1.1. This Font Software is distributed on an "AS IS" BASIS, WITHOUT WARRANTIES OR CONDITIONS OF ANY KIND, either express or implied. See the SIL Open Font License for the specific language, permissions and limitations governing your use of this Font Software.
http://scripts.sil.org/OFL
  -->
<path d="M105 298C105 341 80 389 54 407 36 420 25 439 35 456 45 476 77 472 95 457 112 440 128 410 130 368L419 368C414 392 408 421 401 439L416 446C440 430 470 401 487 378 505 377 517 376 524 369L452 299 413 339 129 339C128 326 126 313 122 299ZM364 409C305 438 189 476 93 493L98 511C144 509 194 503 241 497L241 584 50 584 58 613 210 613C174 703 117 787 41 850L52 867C131 819 194 760 241 690L241 928 251 928C281 928 302 912 302 907L302 673C351 704 407 758 424 806 493 845 525 701 302 657L302 613 481 613C495 613 504 609 506 598 477 569 428 532 428 532L385 584 302 584 302 487C333 481 361 476 385 470 407 478 423 479 432 471ZM240 14L240 116 49 116 57 146 240 146 240 237 88 237 96 266 465 266C479 266 489 261 492 250 462 222 414 186 414 186L372 237 304 237 304 146 493 146C506 146 516 141 518 130 488 100 438 63 438 63L395 116 304 116 304 52C328 48 338 38 340 24ZM812 484C790 559 757 628 712 689 665 632 628 563 605 484ZM525 455L534 484 582 484C604 579 637 659 682 727 616 804 528 866 415 912L424 927C546 890 640 836 712 768 766 835 834 888 918 927 929 898 950 880 976 877L978 867C889 837 812 791 750 730 811 661 854 581 884 492 906 491 917 489 924 480L853 414 811 455ZM574 72L574 153C574 237 569 333 505 415L517 427C624 350 634 232 634 153L634 101 762 101 762 314C762 352 770 367 820 367L861 367C937 367 960 355 960 331 960 319 956 312 938 305L935 221 923 221C915 257 906 294 900 304 898 311 894 311 890 312 885 312 876 312 865 312L836 312C824 312 822 309 822 299L822 110C839 107 849 102 855 95L787 36 754 72 645 72 574 40Z"/>
</svg>