<svg xmlns="http://www.w3.org/2000/svg" name="gid9599" data-unicode="穆"
    viewBox="0 0 1000 1000">
  <!--
© 2017-2024 Adobe (http://www.adobe.com/).
Noto is a trademark of Google Inc.
This Font Software is licensed under the SIL Open Font License, Version 1.1. This Font Software is distributed on an "AS IS" BASIS, WITHOUT WARRANTIES OR CONDITIONS OF ANY KIND, either express or implied. See the SIL Open Font License for the specific language, permissions and limitations governing your use of this Font Software.
http://scripts.sil.org/OFL
  -->
<path d="M963 785L887 731C731 850 551 902 351 935L356 954C567 934 750 894 922 788 944 795 955 794 963 785ZM897 692L823 641C703 733 553 789 402 826L410 846C572 820 727 775 860 697 880 703 890 701 897 692ZM852 580L775 535C680 621 563 671 434 704L442 723C582 702 708 662 815 587 837 591 846 589 852 580ZM742 412L644 402 644 584 656 584C679 584 705 572 705 565L705 438C730 435 740 426 742 412ZM762 440L753 451C808 479 877 535 901 582 972 616 995 471 762 440ZM612 469L525 429C501 492 446 576 383 626L394 640C472 602 539 536 575 480 598 482 606 478 612 469ZM358 294L315 349 278 349 278 142C314 133 347 124 374 115 397 123 414 123 424 113L345 48C282 85 157 139 57 167L62 183C112 177 166 167 217 156L217 349 41 349 49 379 202 379C171 519 117 661 39 767L53 781C122 711 176 629 217 539L217 956 226 956C257 956 278 941 278 935L278 455C309 489 342 537 351 576 409 618 457 501 278 430L278 379 412 379C425 379 434 374 437 363 408 333 358 294 358 294ZM516 410L516 391 837 391 837 442 846 442C867 442 896 427 897 421L897 181C917 177 934 169 940 161L862 101 827 140 646 140C662 121 681 98 694 81 714 81 728 74 731 61L630 39 604 140 522 140 457 110 457 431 467 431C492 431 516 417 516 410ZM837 250L516 250 516 169 837 169ZM837 279L837 361 516 361 516 279Z"/>
</svg>