<svg xmlns="http://www.w3.org/2000/svg" name="gid9605" data-unicode="穎"
    viewBox="0 0 1000 1000">
  <!--
© 2017-2024 Adobe (http://www.adobe.com/).
Noto is a trademark of Google Inc.
This Font Software is licensed under the SIL Open Font License, Version 1.1. This Font Software is distributed on an "AS IS" BASIS, WITHOUT WARRANTIES OR CONDITIONS OF ANY KIND, either express or implied. See the SIL Open Font License for the specific language, permissions and limitations governing your use of this Font Software.
http://scripts.sil.org/OFL
  -->
<path d="M749 766L739 775C796 817 870 890 894 948 969 989 1005 833 749 766ZM628 763C584 826 493 901 412 945L422 960C516 928 625 870 680 816 697 821 708 820 713 810ZM390 400C317 438 174 485 56 507L61 524C118 521 179 514 236 504L236 605 50 605 58 635 214 635C174 725 110 810 31 873L41 889C119 845 185 789 236 724L236 957 247 957C277 957 299 941 299 936L299 691C347 724 403 780 421 826 491 867 531 725 299 674L299 635 479 635C493 635 502 630 504 619 476 590 428 553 428 553L388 605 299 605 299 493C342 485 382 475 414 466 437 475 454 475 463 467ZM365 94C323 127 242 166 163 192L163 84C181 81 190 72 191 59L101 50 101 317C101 364 115 378 189 378L289 378C435 378 464 368 464 339 464 327 457 321 436 313L434 234 422 234C413 269 404 303 397 312 392 318 387 320 377 321 365 322 332 322 292 322L200 322C166 322 163 318 163 304L163 215C250 203 338 180 393 155 415 162 431 162 440 154ZM531 253L531 773 542 773C569 773 593 758 593 750L593 726 835 726 835 760 844 760C866 760 897 744 898 738L898 291C914 288 929 280 934 273L860 216 826 253 688 253C709 222 731 180 750 142L936 142C950 142 961 137 963 126 930 95 875 52 875 52L827 113 476 113 484 142 674 142C669 179 662 222 656 253L598 253 531 222ZM835 427L835 546 593 546 593 427ZM835 397L593 397 593 282 835 282ZM835 576L835 697 593 697 593 576Z"/>
</svg>