<svg xmlns="http://www.w3.org/2000/svg" name="gid9617" data-unicode="穢"
    viewBox="0 0 1000 1000">
  <!--
© 2017-2024 Adobe (http://www.adobe.com/).
Noto is a trademark of Google Inc.
This Font Software is licensed under the SIL Open Font License, Version 1.1. This Font Software is distributed on an "AS IS" BASIS, WITHOUT WARRANTIES OR CONDITIONS OF ANY KIND, either express or implied. See the SIL Open Font License for the specific language, permissions and limitations governing your use of this Font Software.
http://scripts.sil.org/OFL
  -->
<path d="M472 84L472 257 355 257 363 286 940 286C954 286 963 281 966 270 935 241 885 201 885 201L841 257 697 257 697 171 876 171C890 171 899 166 901 155 874 128 831 93 831 93L791 142 697 142 697 80C720 77 730 67 732 53L634 44 634 257 532 257 532 116C552 114 560 106 561 94ZM860 478C846 544 823 610 791 674 771 599 760 514 754 429L942 429C956 429 965 424 968 413 940 385 894 350 894 350 888 328 860 303 794 296L784 305C812 321 840 354 848 382 853 385 859 387 864 388L854 400 752 400 749 334C771 331 778 320 780 309L685 299 692 400 447 400 376 368 376 512C376 647 367 807 281 943L295 955C425 822 435 633 435 512L435 429 694 429C701 500 709 568 722 630L648 606C637 643 620 681 598 717L598 538 670 538C684 538 693 533 695 522 672 500 635 469 635 469L604 510 464 510 472 538 547 538 547 607 478 590C466 664 444 738 415 788L432 797C470 757 500 694 519 629 534 629 543 624 547 617L547 789C509 835 463 875 411 904L420 919C555 861 648 748 693 646 711 647 720 645 724 637 732 673 741 708 753 740 706 811 646 876 571 927L579 941C657 901 722 849 773 790 796 839 824 881 861 914 894 945 944 969 963 942 970 931 968 920 946 891L955 758 943 756C934 791 920 834 912 855 906 872 900 872 889 859 856 829 831 788 812 740 862 671 896 595 918 519 939 521 950 517 953 505ZM289 46C233 81 124 133 36 162L41 177C85 172 132 163 177 152L177 328 39 328 47 357 163 357C137 494 90 633 20 740L35 753C94 687 141 612 177 529L177 959 187 959C217 959 239 943 239 937L239 437C265 475 292 526 298 568 353 614 406 499 239 412L239 357 350 357C364 357 373 352 375 341 348 313 302 275 302 275L261 328 239 328 239 137C269 129 296 121 318 113 342 122 359 122 368 113Z"/>
</svg>