<svg xmlns="http://www.w3.org/2000/svg"
    viewBox="0 0 1000 1000">
  <!--
© 2017-2023 Adobe (http://www.adobe.com/).
Noto is a trademark of Google Inc.
This Font Software is licensed under the SIL Open Font License, Version 1.1. This Font Software is distributed on an "AS IS" BASIS, WITHOUT WARRANTIES OR CONDITIONS OF ANY KIND, either express or implied. See the SIL Open Font License for the specific language, permissions and limitations governing your use of this Font Software.
http://scripts.sil.org/OFL
  -->
<path d="M540 152C504 194 430 248 364 278L374 291C453 275 537 241 584 208 606 214 614 210 621 201ZM691 168L684 181C747 204 834 252 875 289 944 303 939 176 691 168ZM855 619C832 646 784 693 743 726 707 687 683 647 669 608L932 608C945 608 955 603 957 592 928 564 881 527 881 527L839 578 756 578 756 498 896 498C908 498 918 493 920 482 892 455 848 419 848 419L809 469 756 469 756 391 912 391C926 391 935 386 937 375 909 349 864 312 864 312L825 362 756 362 756 314C779 310 789 301 791 288L694 277 694 362 569 362 569 314C592 310 602 301 604 288L507 277 507 362 360 362 368 391 507 391 507 469 385 469 393 498 507 498 507 578 341 578 349 608 551 608C486 675 389 731 281 769L289 786C360 768 427 745 487 717L487 837C442 844 405 850 381 852L411 930C421 927 430 920 434 908 560 870 656 836 725 812L722 797 548 827 548 684C585 661 617 636 644 608L648 608C674 713 737 849 910 927 917 892 936 881 968 877L970 865C875 831 807 788 758 742 812 721 869 692 900 674 914 678 924 676 929 669ZM569 498L694 498 694 578 569 578ZM569 469L569 391 694 391 694 469ZM600 17L600 112 352 112 360 141 931 141C945 141 954 136 957 125 924 95 872 53 872 53L826 112 666 112 666 53C690 50 700 40 702 26ZM301 20C245 60 130 115 36 145L41 160C87 154 135 145 181 134L181 298 41 298 49 328 167 328C140 469 92 612 19 722L33 735C95 667 144 590 181 505L181 929 191 929C222 929 244 914 244 907L244 416C272 452 302 500 310 539 368 582 418 469 244 392L244 328 364 328C376 328 386 323 388 312 361 284 314 245 314 245L273 298 244 298 244 118C278 109 310 99 335 90 359 98 377 98 384 88Z"/>
</svg>