<svg xmlns="http://www.w3.org/2000/svg" name="gid9639" data-unicode="窄"
    viewBox="0 0 1000 1000">
  <!--
© 2017-2024 Adobe (http://www.adobe.com/).
Noto is a trademark of Google Inc.
This Font Software is licensed under the SIL Open Font License, Version 1.1. This Font Software is distributed on an "AS IS" BASIS, WITHOUT WARRANTIES OR CONDITIONS OF ANY KIND, either express or implied. See the SIL Open Font License for the specific language, permissions and limitations governing your use of this Font Software.
http://scripts.sil.org/OFL
  -->
<path d="M309 361C262 491 157 629 39 706L49 718C148 671 237 595 304 512L440 512 440 958 450 958C484 958 506 942 506 936L506 796 886 796C900 796 909 791 912 780 879 753 828 716 828 716L784 767 506 767 506 652 875 652C889 652 898 648 900 637 869 609 821 575 821 575L779 623 506 623 506 512 930 512C944 512 954 507 957 496 925 466 878 431 878 431L835 483 326 483C346 456 363 428 377 401 403 403 411 398 414 388ZM150 103C156 164 124 218 86 238 65 249 51 269 59 290 70 313 104 313 129 297 156 280 181 241 182 183L353 183C319 307 225 377 52 424L57 441C261 405 385 335 432 183L577 183 577 324C577 370 590 384 666 384L768 384C919 384 947 375 947 347 947 335 940 328 918 321L914 268 903 268C895 292 887 315 880 322 875 326 870 328 859 328 846 329 812 329 772 329L679 329C644 329 642 327 642 314L642 183 832 183C817 215 797 255 782 279L795 286C833 263 886 224 915 194 934 192 946 191 954 185L876 110 834 153 532 153 532 76C556 73 566 63 568 50L466 39 466 153 180 153C178 137 174 120 168 102Z"/>
</svg>