<svg xmlns="http://www.w3.org/2000/svg" name="gid9648" data-unicode="窓"
    viewBox="0 0 1000 1000">
  <!--
© 2017-2024 Adobe (http://www.adobe.com/).
Noto is a trademark of Google Inc.
This Font Software is licensed under the SIL Open Font License, Version 1.1. This Font Software is distributed on an "AS IS" BASIS, WITHOUT WARRANTIES OR CONDITIONS OF ANY KIND, either express or implied. See the SIL Open Font License for the specific language, permissions and limitations governing your use of this Font Software.
http://scripts.sil.org/OFL
  -->
<path d="M398 603L390 614C453 643 537 705 566 759 644 788 654 627 398 603ZM737 660L727 669C797 719 879 809 895 886 977 940 1021 748 737 660ZM303 658L303 875C303 926 320 939 409 939L545 939C731 939 764 930 764 899 764 887 758 880 735 872L732 763 719 763C708 812 697 854 689 869 685 878 681 880 667 881 650 883 604 883 547 883L418 883C373 883 369 880 369 865L369 693C386 690 396 680 397 668ZM190 677C178 761 109 815 76 830 7 870 53 929 117 895 177 864 217 786 205 677ZM418 328C402 384 374 456 347 515 268 517 203 519 160 519L192 605C202 603 213 597 219 585 443 560 610 539 737 520 769 551 797 582 812 610 891 649 911 488 609 404L599 415C635 436 676 467 714 500L383 513C421 467 458 413 482 370 504 370 515 361 519 349ZM162 100C166 164 129 219 88 237 67 249 51 269 60 291 71 315 106 316 131 300 161 282 191 241 192 178L369 178C331 305 232 378 56 427L62 444C267 406 394 332 443 178L561 178 561 309C561 354 573 368 648 368L752 368C902 368 929 359 929 332 929 319 923 312 901 306L898 242 887 242C879 272 869 297 862 306 858 311 853 313 843 314 830 314 795 314 756 314L660 314C627 314 624 311 624 300L624 178 819 178C802 208 778 244 760 266L772 274C816 253 877 218 909 189 928 188 941 187 948 179L869 104 824 148 531 148 531 76C555 73 565 63 567 50L466 39 466 148 190 148C188 133 184 116 179 99Z"/>
</svg>