<svg xmlns="http://www.w3.org/2000/svg" name="gid9655" data-unicode="窟"
    viewBox="0 0 1000 1000">
  <!--
© 2017-2024 Adobe (http://www.adobe.com/).
Noto is a trademark of Google Inc.
This Font Software is licensed under the SIL Open Font License, Version 1.1. This Font Software is distributed on an "AS IS" BASIS, WITHOUT WARRANTIES OR CONDITIONS OF ANY KIND, either express or implied. See the SIL Open Font License for the specific language, permissions and limitations governing your use of this Font Software.
http://scripts.sil.org/OFL
  -->
<path d="M775 418L775 517 259 517 259 418ZM176 88C179 152 139 204 97 223 76 234 61 253 69 275 79 299 113 298 140 283 169 267 200 229 203 169L379 169C341 275 243 333 79 370L84 387C124 381 162 374 196 366L196 528C196 670 174 822 39 946L51 959C230 845 257 675 259 547L775 547 775 579 785 579C806 579 838 565 839 558L839 430C858 426 873 418 880 410L800 352 765 389 271 389 210 362C333 329 416 272 454 169L561 169 561 279C561 323 573 336 647 336L751 336C900 336 927 328 927 301 927 289 920 283 899 276L895 229 885 229C877 251 867 270 861 277 856 281 851 282 841 283 828 284 793 284 755 284L660 284C627 284 624 282 624 270L624 169 822 169C806 196 783 227 767 246L780 255C820 237 876 205 905 180 924 179 936 177 944 170L869 98 828 139 531 139 531 79C555 76 565 66 567 52L466 43 466 139 203 139C201 123 198 106 193 87ZM544 570L544 697 379 697 379 620C397 616 406 608 407 597L316 587 316 760 327 760C350 760 379 746 379 739L379 726 544 726 544 875 336 875 336 800C355 796 364 788 365 778L274 768 274 959 285 959C308 959 336 945 336 938L336 905 815 905 815 954 828 954C851 954 879 945 879 940L879 800C898 796 905 788 906 778L815 768 815 875 608 875 608 726 770 726 770 756 782 756C804 756 833 743 833 736L833 620C852 616 860 608 861 598L770 588 770 697 608 697 608 603C628 600 635 591 637 580Z"/>
</svg>