<svg xmlns="http://www.w3.org/2000/svg"
    viewBox="0 0 1000 1000">
  <!--
© 2017-2024 Adobe (http://www.adobe.com/).
Noto is a trademark of Google Inc.
This Font Software is licensed under the SIL Open Font License, Version 1.1. This Font Software is distributed on an "AS IS" BASIS, WITHOUT WARRANTIES OR CONDITIONS OF ANY KIND, either express or implied. See the SIL Open Font License for the specific language, permissions and limitations governing your use of this Font Software.
http://scripts.sil.org/OFL
  -->
<path d="M150 67C152 112 118 149 84 161 63 171 48 188 54 211 63 233 96 236 120 225 147 213 172 184 176 138L352 138C311 244 213 305 52 346L57 362C109 354 156 343 199 329L199 649 209 649C236 649 263 634 263 627L263 605 465 605 465 682 60 682 69 712 383 712C304 796 184 862 43 904L50 922C225 885 371 820 465 720L465 932 475 932C508 932 529 916 530 911L530 712 540 712C621 814 759 887 901 925 907 894 929 874 956 869L957 858C819 839 664 786 573 712L926 712C940 712 950 707 953 696 917 664 859 620 859 620L808 682 530 682 530 605 730 605 730 639 740 639C761 639 794 624 795 617L795 378C812 375 826 367 831 360L755 303 721 340 269 340 226 320C323 283 393 226 430 138L579 138 579 241C579 286 592 298 668 298L772 298C925 298 952 289 952 263 952 250 945 243 924 237L920 185 909 185C901 209 891 230 886 238 881 242 875 244 865 244 851 245 816 245 776 245L680 245C646 245 643 242 643 231L643 138 830 138C821 163 809 192 799 211L812 218C843 201 883 171 905 148 924 147 935 146 943 138L869 67 829 108 532 108 532 44C556 41 566 31 567 18L467 8 467 108 176 108C175 95 172 81 168 66ZM465 369L465 459 263 459 263 369ZM530 369L730 369 730 459 530 459ZM465 488L465 575 263 575 263 488ZM530 488L730 488 730 575 530 575Z"/>
</svg>