<svg xmlns="http://www.w3.org/2000/svg" name="gid9663" data-unicode="窰"
    viewBox="0 0 1000 1000">
  <!--
© 2017-2024 Adobe (http://www.adobe.com/).
Noto is a trademark of Google Inc.
This Font Software is licensed under the SIL Open Font License, Version 1.1. This Font Software is distributed on an "AS IS" BASIS, WITHOUT WARRANTIES OR CONDITIONS OF ANY KIND, either express or implied. See the SIL Open Font License for the specific language, permissions and limitations governing your use of this Font Software.
http://scripts.sil.org/OFL
  -->
<path d="M782 771L782 881 537 881 537 743 931 743C945 743 954 738 957 727 926 699 877 662 877 662L833 713 537 713 537 617 827 617C839 617 849 612 852 601 823 573 774 534 774 534L732 587 326 587 341 571C364 575 372 571 376 561L348 552C522 515 677 457 789 374 817 374 829 372 837 363L770 299 721 337 443 337C462 326 480 315 497 304 524 305 539 301 543 291L451 260C376 329 230 405 70 446L78 462C131 453 182 441 230 427 265 445 303 478 318 507 367 530 391 441 263 416 292 406 319 396 344 385 384 403 430 437 449 467 503 489 520 391 373 372L386 366 694 366C546 469 291 541 52 576L58 594C127 588 195 580 261 569 233 613 196 657 160 686L169 700C214 679 258 649 295 617L473 617 473 713 46 713 54 743 473 743 473 881 224 881 224 805C246 801 255 792 257 780L161 770 161 958 172 958C196 958 224 945 224 938L224 910 782 910 782 953 793 953C818 953 845 941 845 934L845 806C867 802 876 793 878 781ZM169 79C168 129 128 167 90 179 70 189 55 206 61 228 69 250 103 252 128 241 156 229 184 199 191 152L355 152C315 253 215 302 50 334L54 350C248 329 381 280 433 152L572 152 572 241C572 285 584 297 661 297L768 297C924 297 950 289 950 262 950 251 944 245 922 239L918 192 908 192C899 213 891 232 884 240 879 244 874 245 864 246 850 247 814 247 772 247L672 247C638 247 635 244 635 232L635 152 828 152C814 176 796 204 782 222L797 230C830 213 879 185 904 162 923 160 935 159 943 152L871 84 833 122 532 122 532 72C556 69 566 59 567 46L467 35 467 122 193 122C192 109 190 94 186 79Z"/>
</svg>