<svg xmlns="http://www.w3.org/2000/svg"
    viewBox="0 0 1000 1000">
  <!--
© 2017-2023 Adobe (http://www.adobe.com/).
Noto is a trademark of Google Inc.
This Font Software is licensed under the SIL Open Font License, Version 1.1. This Font Software is distributed on an "AS IS" BASIS, WITHOUT WARRANTIES OR CONDITIONS OF ANY KIND, either express or implied. See the SIL Open Font License for the specific language, permissions and limitations governing your use of this Font Software.
http://scripts.sil.org/OFL
  -->
<path d="M491 559L498 589 784 589C798 589 807 584 809 573 784 550 747 525 747 525L714 559ZM733 358C708 386 677 412 642 436 601 419 566 398 537 374L555 358ZM553 264C512 342 433 421 348 466L357 481C417 460 473 426 520 388 544 415 573 439 606 459 527 506 433 543 334 567L342 584C458 564 563 531 651 485 730 525 827 551 931 568 936 540 952 523 975 518L976 507C879 499 782 483 700 457 743 429 781 398 812 363 836 362 848 360 855 352L789 291 746 329 583 329 604 304C627 309 635 305 640 295ZM175 53C175 111 131 155 89 170 68 180 52 199 59 221 67 246 103 249 130 235 161 221 194 186 200 130L367 130C325 219 227 268 79 299L84 315 121 310 121 929 130 929C162 929 183 912 183 907L183 365 293 365C274 421 244 498 225 543 286 596 312 645 312 699 312 725 305 738 293 745 286 749 280 750 267 750 253 750 222 750 202 750L202 766C223 769 240 773 247 780 254 787 258 804 258 820 341 817 372 784 372 711 371 651 335 594 250 540 284 499 329 422 355 379 377 379 390 377 398 369L330 298 292 336 192 336 130 309C281 286 394 236 445 130L561 130 561 219C561 262 574 275 648 275L752 275C901 275 927 269 927 243 927 232 921 226 899 221L896 174 885 174C878 196 868 214 861 222 858 226 851 227 842 228 828 229 793 228 755 228L660 228C628 228 625 225 625 215L625 130 814 130C799 155 778 184 762 202L775 209C816 194 873 165 905 142 924 141 936 139 944 131L864 56 820 100 531 100 531 50C555 46 565 37 568 23L466 13 466 100 201 100C200 85 197 70 193 53ZM620 597L620 670 502 670 524 636C548 637 555 633 558 623L473 603C455 657 422 725 383 763L397 774C428 755 456 728 480 699L620 699 620 767 461 767 469 797 620 797 620 877 369 877 376 906 931 906C945 906 954 901 956 890 926 863 879 829 879 829L838 877 682 877 682 797 840 797C854 797 863 792 866 781 839 756 799 726 799 726L763 767 682 767 682 699 863 699C876 699 885 694 888 683 860 658 817 625 817 625L780 670 682 670 682 627C699 623 706 616 708 606Z"/>
</svg>