<svg xmlns="http://www.w3.org/2000/svg" name="gid9675" data-unicode="竄"
    viewBox="0 0 1000 1000">
  <!--
© 2017-2024 Adobe (http://www.adobe.com/).
Noto is a trademark of Google Inc.
This Font Software is licensed under the SIL Open Font License, Version 1.1. This Font Software is distributed on an "AS IS" BASIS, WITHOUT WARRANTIES OR CONDITIONS OF ANY KIND, either express or implied. See the SIL Open Font License for the specific language, permissions and limitations governing your use of this Font Software.
http://scripts.sil.org/OFL
  -->
<path d="M758 612C763 740 778 891 880 944 910 959 947 965 958 941 963 928 957 912 940 896L948 821 937 818C930 835 921 861 914 875 909 883 904 883 897 878 836 845 826 724 825 645 842 642 850 632 852 620ZM416 283C377 309 306 343 239 367L164 343 164 604 172 604C208 604 225 590 227 586L227 576 778 576 778 603 788 603C809 603 841 589 842 583L842 403C860 400 875 392 880 385L804 328 769 365 536 365 545 394 778 394 778 455 562 455 571 484 778 484 778 547 227 547 227 485 458 485C472 485 481 480 483 469 455 443 411 411 411 411L373 455 227 455 227 394C305 383 388 362 441 343 462 351 478 351 487 342ZM48 885L90 959C99 956 108 950 111 937 246 903 344 875 412 854L410 838 225 864 225 798 394 798C407 798 417 793 419 782 395 759 359 731 359 731L326 769 225 769 225 703 389 703C402 703 411 698 413 687 389 664 354 637 354 637L321 673 225 673 225 643C245 639 253 631 254 621L163 611 163 872C115 878 75 883 48 885ZM398 883L439 958C449 955 457 949 462 936 599 904 697 877 765 857L763 841 533 869 533 798 715 798C728 798 737 793 740 782 715 758 678 731 678 731L645 769 533 769 533 703 704 703C718 703 727 698 730 687 705 664 669 636 669 636L636 673 533 673 533 643C553 639 561 631 562 621L471 611 471 876ZM153 89C157 136 126 179 92 194 72 204 57 222 65 243 74 265 105 266 129 253 155 240 178 208 180 160L355 160C315 250 218 293 64 320L68 336C250 320 380 279 433 160L569 160 569 258C569 301 581 314 656 314L762 314C916 314 943 306 943 280 943 268 937 262 915 256L911 209 901 209C892 231 884 249 878 256 873 261 867 262 858 263 843 264 807 264 767 264L668 264C634 264 631 261 631 250L631 160 834 160C822 184 807 211 795 229L809 237C840 221 885 192 908 169 927 168 939 167 946 160L876 92 837 130 532 130 532 72C556 69 566 59 567 46L467 36 467 130 179 130C178 117 175 103 170 88Z"/>
</svg>