<svg xmlns="http://www.w3.org/2000/svg"
    viewBox="0 0 1000 1000">
  <!--
© 2017-2024 Adobe (http://www.adobe.com/).
Noto is a trademark of Google Inc.
This Font Software is licensed under the SIL Open Font License, Version 1.1. This Font Software is distributed on an "AS IS" BASIS, WITHOUT WARRANTIES OR CONDITIONS OF ANY KIND, either express or implied. See the SIL Open Font License for the specific language, permissions and limitations governing your use of this Font Software.
http://scripts.sil.org/OFL
  -->
<path d="M147 53C147 97 111 132 75 143 56 152 42 169 48 189 56 212 88 214 112 202 137 191 162 165 169 124L347 124C302 203 201 242 56 266L61 282C233 269 367 231 426 124L583 124 583 174 583 178C583 239 593 243 677 243L751 243 716 276 530 276 530 240C548 236 555 228 557 218L466 209 466 276 191 276 200 305 466 305 466 362 51 362 60 391 922 391C936 391 945 386 948 375 916 349 868 316 868 316L826 362 530 362 530 305 796 305C810 305 819 300 822 289 796 269 762 247 756 243L844 243C930 243 945 236 945 215 945 206 941 204 915 197L911 158 902 158C890 182 881 195 874 198 868 201 858 201 848 201L680 201C645 201 644 201 644 174L644 124 824 124C812 142 799 161 789 172L802 180C832 169 878 150 902 134 922 133 933 132 940 124L870 56 830 95 531 95 531 42C556 38 565 29 568 16L467 5 467 95 171 95C171 82 169 68 165 52ZM114 605L114 863 123 863C150 863 177 849 177 843L177 806 385 806 385 840C385 909 399 915 514 915L830 915C951 915 969 907 969 883 969 873 964 871 932 862L930 766 920 766C902 822 888 853 881 861 872 869 858 869 837 869L606 869 606 806 819 806 819 829 829 829C850 829 882 813 883 807L883 641C897 638 910 631 915 625L844 571 811 605 606 605 606 556 784 556 784 570 793 570C814 570 846 556 847 550L847 476C862 473 875 465 880 459L809 405 775 439 220 439 152 409 152 581 161 581C185 581 214 567 214 561L214 555 385 555 385 605 182 605 114 575ZM214 527L214 468 385 468 385 527ZM784 527L606 527 606 468 784 468ZM444 468L545 468 545 869 510 869C447 869 444 869 444 839ZM177 720L385 720 385 776 177 776ZM177 690L177 634 385 634 385 690ZM819 720L819 776 606 776 606 720ZM819 690L606 690 606 634 819 634Z"/>
</svg>