<svg xmlns="http://www.w3.org/2000/svg"
    viewBox="0 0 1000 1000">
  <!--
© 2017-2024 Adobe (http://www.adobe.com/).
Noto is a trademark of Google Inc.
This Font Software is licensed under the SIL Open Font License, Version 1.1. This Font Software is distributed on an "AS IS" BASIS, WITHOUT WARRANTIES OR CONDITIONS OF ANY KIND, either express or implied. See the SIL Open Font License for the specific language, permissions and limitations governing your use of this Font Software.
http://scripts.sil.org/OFL
  -->
<path d="M525 326L509 333C568 465 572 654 562 749 611 838 724 612 525 326ZM111 305L96 311C137 419 142 578 138 658 179 730 271 554 111 305ZM652 15L652 225 467 225 475 255 925 255C939 255 949 250 952 239 919 208 866 165 866 165L820 225 719 225 719 52C744 49 754 39 756 25ZM786 317C764 471 725 687 694 844L377 844 385 873 938 873C952 873 963 868 965 857 932 825 877 781 877 781L829 844 714 844C768 693 826 497 857 367 881 367 892 357 896 345ZM206 17L206 223 43 223 51 252 437 252C451 252 461 247 464 236 432 205 380 161 380 161L334 223 270 223 270 53C294 49 302 39 304 26ZM307 291C297 412 271 578 245 701 158 731 81 754 36 766L78 849C87 846 96 835 98 824 246 758 362 695 447 645L442 631C384 653 325 674 270 693 313 577 353 436 374 337 396 336 407 326 410 313Z"/>
</svg>