<svg xmlns="http://www.w3.org/2000/svg"
    viewBox="0 0 1000 1000">
  <!--
© 2017-2024 Adobe (http://www.adobe.com/).
Noto is a trademark of Google Inc.
This Font Software is licensed under the SIL Open Font License, Version 1.1. This Font Software is distributed on an "AS IS" BASIS, WITHOUT WARRANTIES OR CONDITIONS OF ANY KIND, either express or implied. See the SIL Open Font License for the specific language, permissions and limitations governing your use of this Font Software.
http://scripts.sil.org/OFL
  -->
<path d="M106 300L90 306C130 407 136 556 134 630 174 698 259 533 106 300ZM454 284L454 927 464 927C497 927 517 912 517 906L517 832 833 832 833 921 843 921C873 921 898 904 898 899L898 320C920 316 932 310 939 302L863 242 828 284 647 284C668 238 691 175 708 125L935 125C949 125 959 120 962 109 928 80 875 39 875 39L827 96 387 96 395 125 631 125C628 172 623 237 616 284L529 284 454 252ZM517 570L833 570 833 803 517 803ZM517 542L517 313 833 313 833 542ZM186 39L186 228 40 228 48 258 393 258C407 258 417 253 420 242 388 212 338 170 338 170L293 228 249 228 249 75C271 71 280 62 282 49ZM281 292C270 408 250 566 231 688 150 716 79 738 36 749L85 834C95 829 102 820 105 808 247 741 353 679 432 632L427 618C370 640 312 660 257 679 293 567 326 434 345 339 368 338 379 328 382 315Z"/>
</svg>