<svg xmlns="http://www.w3.org/2000/svg" name="gid9703" data-unicode="竧"
    viewBox="0 0 1000 1000">
  <!--
© 2017-2024 Adobe (http://www.adobe.com/).
Noto is a trademark of Google Inc.
This Font Software is licensed under the SIL Open Font License, Version 1.1. This Font Software is distributed on an "AS IS" BASIS, WITHOUT WARRANTIES OR CONDITIONS OF ANY KIND, either express or implied. See the SIL Open Font License for the specific language, permissions and limitations governing your use of this Font Software.
http://scripts.sil.org/OFL
  -->
<path d="M104 314L89 319C129 421 135 570 133 643 173 712 258 546 104 314ZM534 201L794 201 794 305 534 305ZM281 306C271 424 251 586 231 708 148 732 77 751 34 760L81 847C91 843 99 835 102 822 232 767 330 717 405 676L412 691C421 689 431 681 435 669 564 638 667 611 748 589 634 704 479 807 306 873L314 889C507 833 672 736 794 627L794 854C794 870 789 876 769 876 748 876 640 868 640 868L640 884C687 890 714 898 730 909 743 920 750 937 753 958 847 948 859 913 859 861L859 563C889 531 915 498 937 465 961 472 970 468 977 458L889 408C880 424 870 440 859 456L859 213C879 210 895 201 901 193L818 130 784 172 641 172C660 145 684 110 700 83 721 82 733 74 736 59L630 41C624 80 613 136 606 172L546 172 470 139 470 598 373 608 396 658 254 702C292 587 327 449 346 352 369 351 379 341 383 328ZM534 334L794 334 794 436 534 436ZM534 464L794 464 794 540 778 558 534 590ZM187 52L187 241 40 241 48 270 396 270C410 270 419 265 422 254 391 224 341 183 341 183L296 241 250 241 250 87C272 83 281 74 283 61Z"/>
</svg>