<svg xmlns="http://www.w3.org/2000/svg" name="gid9707" data-unicode="竫"
    viewBox="0 0 1000 1000">
  <!--
© 2017-2024 Adobe (http://www.adobe.com/).
Noto is a trademark of Google Inc.
This Font Software is licensed under the SIL Open Font License, Version 1.1. This Font Software is distributed on an "AS IS" BASIS, WITHOUT WARRANTIES OR CONDITIONS OF ANY KIND, either express or implied. See the SIL Open Font License for the specific language, permissions and limitations governing your use of this Font Software.
http://scripts.sil.org/OFL
  -->
<path d="M617 164L604 168C622 206 635 266 628 313 678 372 758 258 617 164ZM795 153L783 161C829 201 882 271 891 328 958 379 1011 230 795 153ZM106 313L90 318C130 419 136 569 134 642 174 711 259 545 106 313ZM809 544L809 668 676 668 676 544ZM437 668L446 698 613 698 613 859C613 874 609 880 589 880 568 880 463 872 463 872L463 887C510 893 536 900 552 911 564 921 571 939 572 957 664 948 676 911 676 862L676 698 809 698 809 749 818 749C838 749 869 735 870 728L870 544 954 544C967 544 976 539 979 528 956 500 914 459 914 459L878 514 870 514 870 403C890 399 905 391 911 384L834 324 799 363 445 363 454 392 613 392 613 514 372 514 380 544 613 544 613 668ZM809 514L676 514 676 392 809 392ZM458 111C442 209 411 310 375 377L391 386C445 331 491 249 521 160 640 154 764 133 846 113 869 122 886 122 895 113L820 43C759 75 648 111 543 133ZM187 52L187 241 40 241 48 270 393 270C407 270 417 265 420 254 388 224 338 183 338 183L293 241 250 241 250 87C272 83 281 74 283 61ZM281 305C270 421 250 579 231 701 148 729 77 751 34 762L83 848C93 843 100 833 103 821 247 754 354 693 434 645L429 632 257 693C293 580 326 446 345 351 368 350 379 340 382 327Z"/>
</svg>