<svg xmlns="http://www.w3.org/2000/svg" name="gid9711" data-unicode="竰"
    viewBox="0 0 1000 1000">
  <!--
© 2017-2024 Adobe (http://www.adobe.com/).
Noto is a trademark of Google Inc.
This Font Software is licensed under the SIL Open Font License, Version 1.1. This Font Software is distributed on an "AS IS" BASIS, WITHOUT WARRANTIES OR CONDITIONS OF ANY KIND, either express or implied. See the SIL Open Font License for the specific language, permissions and limitations governing your use of this Font Software.
http://scripts.sil.org/OFL
  -->
<path d="M88 317L72 324C112 424 120 572 119 646 161 712 241 547 88 317ZM524 222L524 628 534 628C558 628 581 614 581 608L581 581 680 581 680 716 488 716 496 746 680 746 680 883 426 883 434 911 943 911C957 911 965 907 967 896 938 868 890 834 890 834L849 883 738 883 738 746 915 746C929 746 938 741 941 730 910 703 865 668 865 668L824 716 738 716 738 581 839 581 839 618 848 618C868 618 896 604 897 597L897 257C913 254 926 249 931 242L862 189 831 222 585 222 524 194ZM408 101L408 408C408 602 393 795 277 947L294 958C454 808 468 589 468 407L468 129 920 129C934 129 945 124 947 114 914 83 859 41 859 41L813 101 479 101 408 68ZM680 414L680 553 581 553 581 414ZM738 414L839 414 839 553 738 553ZM680 385L581 385 581 250 680 250ZM738 385L738 250 839 250 839 385ZM171 52L171 239 41 239 49 268 371 268C385 268 395 263 397 252 368 222 318 180 318 180L275 239 234 239 234 87C256 83 264 74 266 61ZM262 307C253 422 235 582 219 703 137 733 68 757 31 767L76 851C86 847 94 837 96 825 226 755 323 696 390 655L386 642 244 694C277 582 309 445 327 352 350 350 360 340 364 327Z"/>
</svg>