<svg xmlns="http://www.w3.org/2000/svg" name="gid9715" data-unicode="竸"
    viewBox="0 0 1000 1000">
  <!--
© 2017-2024 Adobe (http://www.adobe.com/).
Noto is a trademark of Google Inc.
This Font Software is licensed under the SIL Open Font License, Version 1.1. This Font Software is distributed on an "AS IS" BASIS, WITHOUT WARRANTIES OR CONDITIONS OF ANY KIND, either express or implied. See the SIL Open Font License for the specific language, permissions and limitations governing your use of this Font Software.
http://scripts.sil.org/OFL
  -->
<path d="M532 397L532 659 541 659C567 659 593 644 593 639L593 621 621 621C616 745 596 853 405 943L416 959C655 879 679 768 687 621L739 621 739 877C739 918 748 933 802 933L854 933C943 933 965 920 965 896 965 884 963 876 945 869L942 743 928 743C919 795 909 851 903 865 899 874 897 876 891 876 885 877 872 877 855 877L819 877C801 877 799 874 799 863L799 621 831 621 831 655 840 655C861 655 893 641 894 635L894 435C910 432 925 424 931 417L856 361 821 397 598 397 532 367ZM831 591L593 591 593 523 831 523ZM237 43L237 138 52 138 60 167 145 167 135 171C153 200 169 248 166 286 214 335 283 237 150 167L330 167C319 208 302 264 288 305L42 305 50 334 481 334 489 333 938 334C952 334 961 329 964 318 934 289 886 251 886 251L844 305 771 305C798 272 827 234 847 203 869 202 881 193 884 181L810 167 924 167C938 167 948 162 950 151 920 122 871 83 871 83L828 138 738 138 738 77C760 73 769 64 770 51L676 42 676 138 497 138 505 167 788 167C775 207 758 263 744 305L493 305C465 279 430 252 430 252L388 305 314 305C340 272 368 232 387 202 410 202 421 192 424 180L353 167 462 167C476 167 485 162 488 151 459 123 411 85 411 85L369 138 300 138 300 78C321 74 331 65 332 52ZM591 167L578 173C597 201 614 248 610 287 658 337 729 234 591 167ZM101 397L101 663 110 663C136 663 163 648 163 643L163 621 184 621C177 733 157 848 35 941L47 956C215 870 240 752 250 621L307 621 307 801 254 820 301 895C310 891 316 881 318 869 406 812 472 763 518 731L512 718 368 777 368 621 383 621 383 652 393 652C413 652 444 639 445 632L445 435C463 432 478 424 484 417L408 361 374 397 168 397 101 367ZM383 591L163 591 163 523 383 523ZM831 494L593 494 593 426 831 426ZM383 494L163 494 163 426 383 426Z"/>
</svg>