<svg xmlns="http://www.w3.org/2000/svg" name="gid9719" data-unicode="竽"
    viewBox="0 0 1000 1000">
  <!--
© 2017-2024 Adobe (http://www.adobe.com/).
Noto is a trademark of Google Inc.
This Font Software is licensed under the SIL Open Font License, Version 1.1. This Font Software is distributed on an "AS IS" BASIS, WITHOUT WARRANTIES OR CONDITIONS OF ANY KIND, either express or implied. See the SIL Open Font License for the specific language, permissions and limitations governing your use of this Font Software.
http://scripts.sil.org/OFL
  -->
<path d="M42 581L51 610 466 610 466 857C466 872 460 877 440 877 416 877 295 869 295 869L295 884C349 890 378 899 395 910 410 920 417 939 419 959 518 950 532 911 532 859L532 610 932 610C946 610 956 605 959 594 925 563 869 518 869 518L820 581 532 581 532 401 866 401C880 401 890 396 892 385 859 356 807 317 807 317L760 372 131 372 140 401 466 401 466 581ZM201 41C162 169 97 292 35 369L49 380C105 333 159 267 204 192L247 192C274 228 301 279 306 320 357 365 411 269 285 192L474 192C488 192 498 187 499 177 471 148 425 111 425 111L384 163 221 163C234 140 246 116 257 92 279 94 291 85 295 74ZM580 40C543 151 483 259 426 325L440 337C488 301 535 250 576 192L621 192C657 229 697 283 707 327 765 369 813 262 671 192L929 192C943 192 953 187 955 177 923 146 872 107 872 107L826 163 596 163C610 141 624 118 636 94 656 96 669 88 674 77Z"/>
</svg>