<svg xmlns="http://www.w3.org/2000/svg" name="gid9723" data-unicode="笄"
    viewBox="0 0 1000 1000">
  <!--
© 2017-2024 Adobe (http://www.adobe.com/).
Noto is a trademark of Google Inc.
This Font Software is licensed under the SIL Open Font License, Version 1.1. This Font Software is distributed on an "AS IS" BASIS, WITHOUT WARRANTIES OR CONDITIONS OF ANY KIND, either express or implied. See the SIL Open Font License for the specific language, permissions and limitations governing your use of this Font Software.
http://scripts.sil.org/OFL
  -->
<path d="M628 420L628 610 382 610 383 584 383 420ZM43 610L51 640 316 640C305 757 249 861 57 946L67 960C310 886 369 765 380 640L628 640 628 956 639 956C672 956 694 940 694 936L694 640 933 640C947 640 957 635 960 624 927 592 873 552 873 552L826 610 694 610 694 420 879 420C893 420 901 415 904 404 872 374 821 336 821 336L776 390 118 390 127 420 319 420 319 585 319 610ZM198 41C162 174 97 301 33 380L47 391C102 345 155 281 199 206L251 206C276 239 299 288 302 326 355 371 410 274 293 206L492 206C504 206 514 201 516 190 489 162 442 125 442 125L402 177 215 177C229 150 243 122 255 93 277 94 289 85 293 74ZM582 41C550 158 496 270 441 341L456 352C500 315 542 264 580 206L644 206C674 239 704 287 708 328 764 371 815 268 694 206L932 206C946 206 956 201 958 190 926 160 875 120 875 120L829 177 597 177C613 150 628 121 641 92 661 94 673 85 677 74Z"/>
</svg>