<svg xmlns="http://www.w3.org/2000/svg"
    viewBox="0 0 1000 1000">
  <!--
© 2017-2023 Adobe (http://www.adobe.com/).
Noto is a trademark of Google Inc.
This Font Software is licensed under the SIL Open Font License, Version 1.1. This Font Software is distributed on an "AS IS" BASIS, WITHOUT WARRANTIES OR CONDITIONS OF ANY KIND, either express or implied. See the SIL Open Font License for the specific language, permissions and limitations governing your use of this Font Software.
http://scripts.sil.org/OFL
  -->
<path d="M266 277C211 424 119 557 32 636L43 648C134 593 219 507 286 399L413 399C358 556 239 708 88 812L98 826C279 728 418 577 491 399L624 399C575 615 446 795 224 915L233 929C493 820 638 640 703 399L833 399C816 627 785 802 746 837 735 847 727 849 708 849 687 849 609 843 563 838L562 855C603 861 649 872 665 883 681 893 686 912 686 928 731 928 764 916 791 891 845 842 880 655 898 408 920 406 932 400 940 392L864 328 824 370 303 370 323 334C345 337 358 329 363 318ZM200 11C163 142 98 266 32 342L45 354C104 308 159 243 204 167L255 167C284 200 314 248 319 287 374 329 424 230 298 167L492 167C505 167 514 162 517 151 489 124 442 86 442 86L402 138 220 138C234 114 246 88 257 62 279 64 291 55 295 44ZM581 11C550 123 497 229 440 295L454 306C500 272 544 224 582 167L649 167C683 201 718 251 725 293 783 336 832 230 700 167L931 167C945 167 955 162 957 151 925 122 873 81 873 81L828 138 600 138C615 114 628 88 640 62 660 64 673 55 677 45Z"/>
</svg>