<svg xmlns="http://www.w3.org/2000/svg" name="gid9745" data-unicode="笪"
    viewBox="0 0 1000 1000">
  <!--
© 2017-2024 Adobe (http://www.adobe.com/).
Noto is a trademark of Google Inc.
This Font Software is licensed under the SIL Open Font License, Version 1.1. This Font Software is distributed on an "AS IS" BASIS, WITHOUT WARRANTIES OR CONDITIONS OF ANY KIND, either express or implied. See the SIL Open Font License for the specific language, permissions and limitations governing your use of this Font Software.
http://scripts.sil.org/OFL
  -->
<path d="M39 886L48 915 938 915C952 915 962 911 964 900 928 867 870 822 870 822L818 886ZM194 41C159 170 97 293 33 371L47 382C105 335 159 269 203 191L250 191C273 222 294 267 297 304 346 347 400 257 290 191L486 191C498 191 508 186 511 175 483 147 436 109 436 109L396 162 218 162C230 139 241 115 251 91 273 93 285 84 289 73ZM580 41C547 149 491 253 439 319L453 330C497 295 541 247 580 191L647 191C677 223 704 268 708 306 763 347 813 251 699 191L933 191C947 191 956 186 959 175 927 145 875 106 875 106L830 162 599 162C613 140 626 117 638 93 657 96 670 87 675 76ZM711 393L711 541 305 541 305 393ZM239 364L239 838 250 838C278 838 305 822 305 815L305 775 711 775 711 827 721 827C743 827 776 811 777 805L777 405C797 401 813 393 820 385L739 323 701 364 311 364 239 331ZM711 570L711 745 305 745 305 570Z"/>
</svg>