<svg xmlns="http://www.w3.org/2000/svg" name="gid9752" data-unicode="笱"
    viewBox="0 0 1000 1000">
  <!--
© 2017-2024 Adobe (http://www.adobe.com/).
Noto is a trademark of Google Inc.
This Font Software is licensed under the SIL Open Font License, Version 1.1. This Font Software is distributed on an "AS IS" BASIS, WITHOUT WARRANTIES OR CONDITIONS OF ANY KIND, either express or implied. See the SIL Open Font License for the specific language, permissions and limitations governing your use of this Font Software.
http://scripts.sil.org/OFL
  -->
<path d="M295 829L295 770 542 770 542 822 552 822C573 822 605 807 605 800L605 569C623 566 638 559 644 552L567 493 533 531 300 531 232 500 232 851 242 851C269 851 295 836 295 829ZM542 560L542 741 295 741 295 560ZM312 71L215 37C174 169 105 298 39 378L54 389C111 341 167 275 215 198L268 198C296 228 327 274 338 311L248 273C199 410 119 541 45 619L58 631C131 580 201 505 258 415L785 415C780 660 770 835 743 865 734 873 726 876 706 876 684 876 607 869 561 865L560 881C602 887 648 899 664 910 678 921 682 940 682 958 726 958 765 946 790 918 832 872 844 693 849 422 871 421 883 415 890 407L814 344 775 385 277 385C287 367 297 348 307 329 326 332 338 326 342 318 395 351 440 259 313 198L502 198C516 198 525 193 528 182 498 153 452 116 452 116L411 168 233 168C248 142 261 116 274 88 295 89 307 80 312 71ZM704 73L607 38C572 155 515 271 459 344L474 353C522 314 569 260 609 197L668 197C700 227 730 273 735 313 792 354 843 254 717 197L932 197C946 197 955 192 957 181 926 150 874 110 874 110L828 167 627 167C641 143 654 117 666 91 687 92 700 83 704 73Z"/>
</svg>