<svg xmlns="http://www.w3.org/2000/svg" name="gid9758" data-unicode="笻"
    viewBox="0 0 1000 1000">
  <!--
© 2017-2024 Adobe (http://www.adobe.com/).
Noto is a trademark of Google Inc.
This Font Software is licensed under the SIL Open Font License, Version 1.1. This Font Software is distributed on an "AS IS" BASIS, WITHOUT WARRANTIES OR CONDITIONS OF ANY KIND, either express or implied. See the SIL Open Font License for the specific language, permissions and limitations governing your use of this Font Software.
http://scripts.sil.org/OFL
  -->
<path d="M183 41C148 158 90 272 34 344L48 355C97 314 145 257 186 192L241 192C268 229 295 281 299 322 351 367 406 270 280 192L471 192C485 192 495 187 497 177 468 148 423 111 423 111L381 163 203 163C216 140 229 116 240 91 261 93 273 85 277 73ZM578 41C540 149 477 252 418 315L431 325C479 293 528 247 570 192L646 192C682 230 720 284 731 328 790 370 838 263 696 192L932 192C946 192 955 187 958 177 926 146 874 107 874 107L829 163 592 163C607 142 621 119 634 96 653 98 667 90 671 79ZM533 374L533 958 543 958C576 958 598 941 598 935L598 403 832 403 832 749C832 764 826 771 806 771 780 771 663 762 663 762L663 778C713 784 743 795 759 807 774 819 781 838 784 860 887 849 898 812 898 759L898 416C917 412 934 403 940 396L855 333 822 374 610 374 533 341ZM69 393L77 422 230 422 230 750C154 767 91 780 52 787L104 865C113 861 121 854 124 842 289 785 406 740 489 707L485 692 296 735 296 422 459 422C473 422 482 417 485 406 453 376 401 334 401 334L356 393Z"/>
</svg>