<svg xmlns="http://www.w3.org/2000/svg" name="gid9768" data-unicode="筋"
    viewBox="0 0 1000 1000">
  <!--
© 2017-2024 Adobe (http://www.adobe.com/).
Noto is a trademark of Google Inc.
This Font Software is licensed under the SIL Open Font License, Version 1.1. This Font Software is distributed on an "AS IS" BASIS, WITHOUT WARRANTIES OR CONDITIONS OF ANY KIND, either express or implied. See the SIL Open Font License for the specific language, permissions and limitations governing your use of this Font Software.
http://scripts.sil.org/OFL
  -->
<path d="M618 304L618 447 465 447 474 477 618 477C617 638 592 823 419 944L432 958C647 845 680 645 683 477L841 477C836 716 825 842 800 866 792 875 785 877 768 877 750 877 696 873 663 870L663 887C692 893 724 900 736 910 749 921 752 938 752 957 788 957 823 946 846 921 884 881 899 754 904 485 925 482 937 477 944 469L868 407 832 447 683 447 683 340C707 337 714 327 716 314ZM360 386L360 515 205 515 205 386ZM143 357L143 564C143 699 133 838 41 947L55 959C145 890 181 798 196 707L360 707 360 856C360 870 356 876 339 876 319 876 236 870 236 870L236 886C275 891 296 898 309 907 321 918 325 933 328 952 413 943 423 912 423 863L423 399C443 395 459 386 466 380L383 316 350 357 217 357 143 324ZM360 545L360 678 200 678C204 639 205 600 205 564L205 545ZM210 41C169 163 101 277 36 346L49 357C108 315 165 255 213 184L247 184C272 216 296 263 295 304 345 349 402 253 287 184L488 184C502 184 511 180 513 169 485 141 438 104 438 104L398 156 230 156C242 136 254 115 264 94 285 96 298 88 302 77ZM583 41C552 145 501 247 452 314L467 323C510 288 551 239 588 184L654 184C684 217 713 265 717 308 773 351 825 249 702 184L936 184C950 184 960 180 962 169 930 139 879 99 879 99L833 156 605 156C618 135 629 114 640 92 661 94 673 85 677 74Z"/>
</svg>