<svg xmlns="http://www.w3.org/2000/svg" name="gid9772" data-unicode="筏"
    viewBox="0 0 1000 1000">
  <!--
© 2017-2024 Adobe (http://www.adobe.com/).
Noto is a trademark of Google Inc.
This Font Software is licensed under the SIL Open Font License, Version 1.1. This Font Software is distributed on an "AS IS" BASIS, WITHOUT WARRANTIES OR CONDITIONS OF ANY KIND, either express or implied. See the SIL Open Font License for the specific language, permissions and limitations governing your use of this Font Software.
http://scripts.sil.org/OFL
  -->
<path d="M622 334L613 344C657 364 709 405 728 441 796 470 820 338 622 334ZM271 302C213 447 122 584 37 666L51 677C99 644 147 601 191 550L191 957 202 957C227 957 253 941 254 936L254 504C272 501 282 495 285 486L252 473C278 437 302 398 323 357 345 360 358 352 363 342ZM808 527C778 592 735 655 680 713 639 653 611 585 594 513L927 481C940 480 950 473 951 462 918 437 864 401 864 401L824 461 588 484C577 434 572 383 571 332 592 328 600 318 601 306L501 296C503 363 509 429 522 491L295 513 306 541 528 520C549 608 583 689 633 758 547 834 438 897 313 939L320 954C455 922 571 866 664 798 709 850 764 894 832 928 884 955 941 972 958 939 965 927 961 916 930 888L943 764 930 762C919 798 902 839 892 860 885 876 876 876 858 865 801 838 753 801 715 757 777 703 826 643 860 581 885 585 894 581 900 570ZM211 41C168 164 100 279 33 349L45 361C106 320 165 259 213 186L264 186C289 217 312 266 311 306 362 351 418 254 303 186L488 186C502 186 510 182 513 171 485 143 438 106 438 106L397 158 231 158C244 137 255 116 266 94 287 96 300 88 305 77ZM578 40C547 139 498 235 449 295L464 306C504 276 542 234 577 186L641 186C671 219 700 268 704 310 761 353 812 250 689 186L932 186C946 186 956 182 958 171 926 141 874 101 874 101L829 158 596 158C609 137 622 115 634 92 654 95 667 86 671 75Z"/>
</svg>