<svg xmlns="http://www.w3.org/2000/svg"
    viewBox="0 0 1000 1000">
  <!--
© 2017-2023 Adobe (http://www.adobe.com/).
Noto is a trademark of Google Inc.
This Font Software is licensed under the SIL Open Font License, Version 1.1. This Font Software is distributed on an "AS IS" BASIS, WITHOUT WARRANTIES OR CONDITIONS OF ANY KIND, either express or implied. See the SIL Open Font License for the specific language, permissions and limitations governing your use of this Font Software.
http://scripts.sil.org/OFL
  -->
<path d="M281 262C238 326 148 414 65 468L77 481C174 441 275 375 332 322 354 328 362 324 370 315ZM448 333L456 362 877 362C891 362 901 357 903 346 871 316 818 274 818 274L771 333ZM203 11C162 131 98 248 37 319L51 331C108 287 163 223 209 150L259 150C280 179 300 219 303 251 352 291 402 209 303 150L492 150C504 150 514 145 516 134 488 105 441 68 441 68L401 120 227 120C238 102 248 83 257 64 279 66 291 57 295 47ZM566 11C537 113 488 215 442 280L457 289C499 254 539 205 575 150L642 150C669 180 694 222 702 256 756 294 803 206 697 150L931 150C944 150 955 145 957 134 924 103 873 64 873 64L827 120 593 120C604 101 614 82 624 62 645 64 656 55 660 44ZM306 419C249 499 136 610 35 682L45 694C96 670 148 639 196 607L196 930 208 930C233 930 260 915 261 909L261 583C277 580 288 574 291 565L268 557C302 531 332 505 356 482 378 489 387 485 394 475ZM391 500L399 530 703 530 703 823C703 837 697 842 678 842 655 842 536 834 536 834L536 849C588 855 617 864 633 875 648 887 655 905 657 926 755 917 769 878 769 825L769 530 936 530C950 530 960 525 963 514 929 483 876 441 876 441L828 500Z"/>
</svg>