<svg xmlns="http://www.w3.org/2000/svg" name="gid9779" data-unicode="策"
    viewBox="0 0 1000 1000">
  <!--
© 2017-2024 Adobe (http://www.adobe.com/).
Noto is a trademark of Google Inc.
This Font Software is licensed under the SIL Open Font License, Version 1.1. This Font Software is distributed on an "AS IS" BASIS, WITHOUT WARRANTIES OR CONDITIONS OF ANY KIND, either express or implied. See the SIL Open Font License for the specific language, permissions and limitations governing your use of this Font Software.
http://scripts.sil.org/OFL
  -->
<path d="M589 41C548 141 483 233 422 287L434 300 465 281 465 360 77 360 86 388 465 388 465 481 240 481 169 449 169 735 178 735C205 735 234 720 234 715L234 510 465 510 465 563C381 716 207 849 36 921L43 938C205 885 362 789 465 683L465 959 478 959C502 959 530 944 530 935L530 623C606 770 747 874 904 935 914 903 934 883 963 880L964 869C788 822 606 721 530 578L530 510 772 510 772 642C772 654 768 659 752 659 733 659 652 654 652 654L652 670C690 674 711 682 723 691 735 699 739 714 742 731 826 723 837 694 837 647L837 522C857 519 874 511 880 504L795 442 762 481 530 481 530 388 906 388C920 388 930 383 932 373 899 343 847 302 847 302L802 360 530 360 530 302C556 298 564 287 567 273L488 265C520 241 551 212 580 180L649 180C675 211 700 255 706 292 759 331 810 241 698 180L939 180C953 180 963 175 965 164 933 133 882 94 882 94L836 150 604 150C618 133 630 114 642 95 663 99 677 90 681 80ZM203 41C163 161 97 269 30 335L43 347C102 308 160 250 207 180L256 180C276 210 296 253 298 289 347 331 401 245 297 180L494 180C507 180 517 175 519 164 491 135 444 98 444 98L403 150 227 150C237 132 248 114 257 95 279 97 291 89 296 78Z"/>
</svg>