<svg xmlns="http://www.w3.org/2000/svg" name="gid9783" data-unicode="筥"
    viewBox="0 0 1000 1000">
  <!--
© 2017-2024 Adobe (http://www.adobe.com/).
Noto is a trademark of Google Inc.
This Font Software is licensed under the SIL Open Font License, Version 1.1. This Font Software is distributed on an "AS IS" BASIS, WITHOUT WARRANTIES OR CONDITIONS OF ANY KIND, either express or implied. See the SIL Open Font License for the specific language, permissions and limitations governing your use of this Font Software.
http://scripts.sil.org/OFL
  -->
<path d="M165 656L165 958 175 958C202 958 230 943 230 936L230 893 784 893 784 951 794 951C816 951 848 935 849 929L849 698C869 694 885 686 892 678L811 616 774 656 468 656C493 619 522 572 544 533L728 533 728 578 738 578C759 578 792 563 793 556L793 366C810 363 825 355 831 348L754 290 719 327 298 327 228 296 228 585 237 585C264 585 292 571 292 565L292 533 464 533C453 570 439 618 426 656L237 656 165 624ZM292 504L292 356 728 356 728 504ZM230 863L230 686 784 686 784 863ZM202 41C163 154 101 263 42 330L56 341C109 302 162 246 206 180L253 180C279 208 306 249 313 282 363 320 410 234 299 180L487 180C500 180 509 175 512 164 484 136 437 100 437 100L398 151 224 151C236 133 246 113 256 94 277 97 290 88 294 77ZM580 41C552 137 505 233 461 292L476 303C514 272 552 229 585 180L637 180C667 208 699 251 709 285 763 320 806 230 694 180L926 180C940 180 950 175 953 164 920 134 869 95 869 95L823 151 603 151C615 132 626 112 636 92 657 94 668 85 673 74Z"/>
</svg>