<svg xmlns="http://www.w3.org/2000/svg" name="gid9786" data-unicode="筩"
    viewBox="0 0 1000 1000">
  <!--
© 2017-2024 Adobe (http://www.adobe.com/).
Noto is a trademark of Google Inc.
This Font Software is licensed under the SIL Open Font License, Version 1.1. This Font Software is distributed on an "AS IS" BASIS, WITHOUT WARRANTIES OR CONDITIONS OF ANY KIND, either express or implied. See the SIL Open Font License for the specific language, permissions and limitations governing your use of this Font Software.
http://scripts.sil.org/OFL
  -->
<path d="M312 382L309 399C438 421 528 453 583 490L235 490 164 457 164 959 174 959C201 959 229 943 229 936L229 776 466 776 466 952 477 952C509 952 531 937 531 933L531 776 790 776 790 858C790 872 785 878 767 878 745 878 648 872 648 872L648 887C691 893 716 901 731 911 744 922 749 940 751 961 845 951 856 917 856 866L856 532C876 529 893 519 898 512L814 449 780 490 643 490C661 475 655 445 589 420 666 399 759 371 812 348 836 347 848 345 856 339L784 269 740 309 181 309 190 339 701 339C657 363 600 389 554 409 501 395 424 384 312 382ZM466 519L466 617 229 617 229 519ZM531 519L790 519 790 617 531 617ZM229 646L466 646 466 747 229 747ZM531 646L790 646 790 747 531 747ZM566 41C552 81 535 121 517 158 489 130 443 95 443 95L403 148 225 148C237 131 248 113 258 95 279 99 292 91 297 80L205 41C164 149 101 251 41 313L55 323C108 289 160 238 205 177L261 177C281 205 301 244 304 275 351 314 403 234 305 177L495 177C500 177 505 176 508 174 487 214 465 250 442 277L456 288C494 260 531 221 565 177L636 177C662 205 687 246 694 279 747 316 795 231 690 177L930 177C944 177 953 172 956 161 924 131 872 91 872 91L826 148 585 148C597 131 609 112 619 94 640 96 651 88 656 76Z"/>
</svg>