<svg xmlns="http://www.w3.org/2000/svg" name="gid9807" data-unicode="箍"
    viewBox="0 0 1000 1000">
  <!--
© 2017-2024 Adobe (http://www.adobe.com/).
Noto is a trademark of Google Inc.
This Font Software is licensed under the SIL Open Font License, Version 1.1. This Font Software is distributed on an "AS IS" BASIS, WITHOUT WARRANTIES OR CONDITIONS OF ANY KIND, either express or implied. See the SIL Open Font License for the specific language, permissions and limitations governing your use of this Font Software.
http://scripts.sil.org/OFL
  -->
<path d="M410 332L410 957 419 957C450 957 470 941 470 936L470 903 943 903C957 903 965 898 968 887 937 857 885 816 885 816L840 874 470 874 470 361 913 361C926 361 936 356 938 345 908 315 859 276 859 276L815 332 482 332 410 301ZM39 649L75 730C85 726 94 718 97 706L190 668 190 862C190 876 185 880 170 880 153 880 70 874 70 874L70 890C107 894 129 902 141 912 153 923 157 939 159 958 243 950 252 918 252 866L252 642 394 580 390 566 252 600 252 467 373 467C386 467 396 462 398 451 374 424 330 387 330 387L294 438 252 438 252 314C276 311 285 302 288 288L190 277 190 438 48 438 56 467 190 467 190 615C125 631 70 643 39 649ZM675 379L675 478 598 478 538 449 538 776 547 776C570 776 593 764 593 758L593 507 675 507 675 845 686 845C706 845 730 832 730 825L730 507 819 507 819 696C819 706 817 711 806 711 793 711 756 707 756 707L756 723C777 727 789 732 796 739 804 746 805 760 806 773 866 767 874 743 874 700L874 518C894 515 910 507 916 500L838 442 809 478 730 478 730 415C752 411 761 402 763 389ZM210 41C169 155 103 258 38 320L51 332C109 296 165 242 212 177L267 177C286 207 303 249 305 283 353 325 408 241 307 177L505 177C519 177 529 172 532 161 502 133 456 96 456 96L415 148 231 148C243 131 253 113 263 94 284 97 297 89 301 78ZM591 41C560 135 509 227 462 283L477 295C516 266 556 225 591 177L635 177C659 207 685 251 690 287 742 327 793 237 681 177L933 177C947 177 956 172 959 161 927 131 875 92 875 92L830 148 611 148C624 129 635 110 646 90 666 91 678 83 683 71Z"/>
</svg>