<svg xmlns="http://www.w3.org/2000/svg"
    viewBox="0 0 1000 1000">
  <!--
© 2017-2023 Adobe (http://www.adobe.com/).
Noto is a trademark of Google Inc.
This Font Software is licensed under the SIL Open Font License, Version 1.1. This Font Software is distributed on an "AS IS" BASIS, WITHOUT WARRANTIES OR CONDITIONS OF ANY KIND, either express or implied. See the SIL Open Font License for the specific language, permissions and limitations governing your use of this Font Software.
http://scripts.sil.org/OFL
  -->
<path d="M195 495L203 524 464 524C477 524 487 519 489 508 462 483 418 449 418 449L379 495ZM627 305L627 749 639 749C663 749 690 736 690 728L690 343C714 340 723 330 725 316ZM818 284L818 830C818 845 813 851 794 851 773 851 673 843 673 843L673 859C717 864 742 872 756 882 770 893 775 909 778 928 870 919 881 887 881 834L881 321C904 318 913 309 916 295ZM153 620L153 928 162 928C187 928 214 914 214 907L214 849 442 849 442 912 452 912C473 912 504 898 505 892L505 659C523 656 538 648 544 641L467 583 433 620 219 620 153 590ZM442 819L214 819 214 650 442 650ZM344 306C372 304 382 298 386 287L287 257C241 357 134 503 26 586L37 598C161 529 272 412 338 316 427 368 487 442 508 502 570 544 633 385 344 306ZM202 11C163 128 97 238 36 304L49 316C104 277 158 220 204 153L252 153C277 181 303 221 310 253 360 289 406 206 300 153L487 153C500 153 509 149 512 138 484 110 437 74 437 74L398 125 222 125C234 105 246 85 256 64 277 67 290 59 295 48ZM579 11C547 111 496 211 447 273L461 283C503 250 544 205 580 153L633 153C664 183 700 230 709 268 766 306 810 208 683 153L930 153C944 153 954 149 957 138 924 108 873 69 873 69L827 125 599 125C611 105 623 84 634 62 655 65 667 56 671 45Z"/>
</svg>