<svg xmlns="http://www.w3.org/2000/svg" name="gid9833" data-unicode="箱"
    viewBox="0 0 1000 1000">
  <!--
© 2017-2024 Adobe (http://www.adobe.com/).
Noto is a trademark of Google Inc.
This Font Software is licensed under the SIL Open Font License, Version 1.1. This Font Software is distributed on an "AS IS" BASIS, WITHOUT WARRANTIES OR CONDITIONS OF ANY KIND, either express or implied. See the SIL Open Font License for the specific language, permissions and limitations governing your use of this Font Software.
http://scripts.sil.org/OFL
  -->
<path d="M196 41C161 162 98 274 35 344L48 355C102 317 153 262 196 196L244 196C268 228 292 275 295 313L226 306 226 465 45 465 53 494 207 494C172 616 114 737 34 829L46 844C121 782 181 707 226 624L226 958 238 958C262 958 290 943 290 934L290 570C328 607 373 663 387 708 451 753 501 623 290 553L290 494 449 494C463 494 473 489 476 478 446 449 398 411 398 411L356 465 290 465 290 344C309 341 319 335 324 325 361 322 379 249 284 196L477 196C490 196 499 191 502 180 474 152 427 115 427 115L387 167 214 167C228 143 240 119 252 93 274 94 286 86 290 75ZM567 556L827 556 827 694 567 694ZM567 527L567 394 827 394 827 527ZM567 722L827 722 827 864 567 864ZM503 365L503 957 514 957C542 957 567 941 567 933L567 893 827 893 827 949 837 949C860 949 891 932 892 925L892 406C911 402 927 394 933 386L854 324 817 365 572 365 503 333ZM579 41C542 150 484 255 429 321L443 332C488 298 532 251 572 196L647 196C677 229 707 277 711 318 768 361 819 258 696 196L930 196C944 196 954 191 957 180 925 150 873 110 873 110L827 167 592 167C607 144 622 119 635 94 655 97 668 88 673 77Z"/>
</svg>