<svg xmlns="http://www.w3.org/2000/svg"
    viewBox="0 0 1000 1000">
  <!--
© 2017-2024 Adobe (http://www.adobe.com/).
Noto is a trademark of Google Inc.
This Font Software is licensed under the SIL Open Font License, Version 1.1. This Font Software is distributed on an "AS IS" BASIS, WITHOUT WARRANTIES OR CONDITIONS OF ANY KIND, either express or implied. See the SIL Open Font License for the specific language, permissions and limitations governing your use of this Font Software.
http://scripts.sil.org/OFL
  -->
<path d="M246 466L254 495 526 495C540 495 549 490 551 480 523 454 479 419 479 419L441 466ZM142 352L142 522C142 655 132 799 39 915L52 927C195 815 207 646 207 521L207 381 560 381C577 498 613 608 669 703 596 793 509 860 416 906L426 921C528 884 620 827 699 748 736 800 780 847 833 886 876 919 933 944 954 914 963 903 960 890 931 856L946 728 933 725C922 760 906 802 894 822 888 839 880 839 865 826 816 792 775 750 741 701 792 641 835 570 870 486 893 489 905 482 910 471L817 432C790 514 753 586 710 649 664 567 636 473 623 381L928 381C942 381 951 376 954 365 923 336 874 298 874 298L830 352 773 352C802 334 792 268 662 259L653 268C687 285 724 320 738 351L741 352 619 352C616 325 615 297 614 271 637 267 644 255 646 243L548 233C549 273 552 313 556 352L219 352 142 319ZM260 581L260 844 269 844C295 844 320 830 320 825L320 775 462 775 462 816 471 816C491 816 521 803 522 797L522 618C539 616 554 608 560 601L486 545 453 581 325 581 260 552ZM320 746L320 610 462 610 462 746ZM210 11C167 129 100 239 36 306L50 318C107 279 163 221 210 153L249 153C277 184 307 230 314 267 365 306 414 214 290 153L487 153C500 153 509 149 512 138 484 110 438 74 438 74L398 125 229 125C241 106 252 86 263 65 285 67 297 59 302 48ZM579 11C548 104 499 196 452 252L467 263C505 235 542 197 576 153L643 153C674 181 707 224 717 259 771 294 814 203 699 153L930 153C944 153 954 149 957 138 924 108 873 69 873 69L827 125 596 125C609 105 622 84 634 63 654 65 666 56 671 46Z"/>
</svg>