<svg xmlns="http://www.w3.org/2000/svg" name="gid9836" data-unicode="箵"
    viewBox="0 0 1000 1000">
  <!--
© 2017-2024 Adobe (http://www.adobe.com/).
Noto is a trademark of Google Inc.
This Font Software is licensed under the SIL Open Font License, Version 1.1. This Font Software is distributed on an "AS IS" BASIS, WITHOUT WARRANTIES OR CONDITIONS OF ANY KIND, either express or implied. See the SIL Open Font License for the specific language, permissions and limitations governing your use of this Font Software.
http://scripts.sil.org/OFL
  -->
<path d="M271 266C227 328 137 410 53 458L63 472C163 438 265 377 321 326 343 330 352 327 358 319ZM677 284L668 297C744 328 845 395 885 450 967 476 969 313 677 284ZM472 245L472 377C472 390 468 395 453 395 435 395 351 389 351 389L351 404C389 409 410 417 422 426 434 436 438 450 441 468L454 466C402 488 348 507 291 525L236 500 236 541C172 559 107 574 44 585L49 602C111 596 174 587 236 575L236 960 247 960C275 960 302 944 302 937L302 900 743 900 743 955 752 955C774 955 807 939 808 933L808 572C826 569 840 560 846 553L768 494 733 532 410 532C538 494 650 446 725 394 746 405 756 405 765 397L694 331C649 369 588 405 518 438 530 424 532 404 532 380L532 280C555 276 564 269 567 255L504 248C530 227 555 199 578 168L644 168C668 195 693 234 699 266 752 304 799 220 698 168L928 168C942 168 951 163 954 152 922 122 871 81 871 81L826 138 599 138C609 123 618 108 626 92 647 93 659 84 663 74L569 41C559 77 546 115 532 149 503 122 461 88 461 88L421 138 229 138 254 93C275 95 287 87 292 76L201 41C163 152 101 257 40 321L55 332C110 294 165 236 210 168L273 168C296 197 319 238 325 270 372 309 423 228 318 168L509 168C516 168 522 167 526 164 513 194 500 221 486 242L495 247ZM743 670L743 753 302 753 302 670ZM743 641L302 641 302 562 743 562ZM743 782L743 871 302 871 302 782Z"/>
</svg>