<svg xmlns="http://www.w3.org/2000/svg" name="gid9843" data-unicode="節"
    viewBox="0 0 1000 1000">
  <!--
© 2017-2024 Adobe (http://www.adobe.com/).
Noto is a trademark of Google Inc.
This Font Software is licensed under the SIL Open Font License, Version 1.1. This Font Software is distributed on an "AS IS" BASIS, WITHOUT WARRANTIES OR CONDITIONS OF ANY KIND, either express or implied. See the SIL Open Font License for the specific language, permissions and limitations governing your use of this Font Software.
http://scripts.sil.org/OFL
  -->
<path d="M569 347L569 960 579 960C612 960 633 942 633 937L633 376 835 376 835 752C835 765 831 771 814 771 795 771 704 764 704 764L704 780C745 785 767 794 781 805 793 816 798 833 801 853 890 844 900 811 900 761L900 388C920 384 936 377 943 369L858 306 825 347 645 347 569 314ZM196 376L415 376 415 481 196 481ZM39 866L80 948C89 945 98 937 102 925 229 880 327 842 399 813 421 847 437 883 442 915 510 968 560 806 321 696L309 705C335 729 363 760 387 795L196 836 196 651 415 651 415 689 423 689C444 689 477 679 478 674L478 384C494 381 507 374 512 367L439 310 406 347 209 347 133 314 133 849ZM196 511L415 511 415 622 196 622ZM201 41C162 157 97 265 34 331L47 343C102 305 156 250 202 184L248 184C274 216 296 264 295 304 346 350 404 252 288 184L491 184C504 184 513 180 516 169 488 141 441 104 441 104L400 156 220 156C233 136 244 116 255 95 276 97 289 89 294 78ZM593 41C560 138 508 233 459 291L473 303C514 273 555 232 591 184L660 184C690 217 718 265 722 308 778 353 833 249 708 184L936 184C950 184 960 180 962 169 930 139 879 99 879 99L833 156 611 156C624 136 637 115 648 94 670 96 682 88 687 77Z"/>
</svg>