<svg xmlns="http://www.w3.org/2000/svg"
    viewBox="0 0 1000 1000">
  <!--
© 2017-2023 Adobe (http://www.adobe.com/).
Noto is a trademark of Google Inc.
This Font Software is licensed under the SIL Open Font License, Version 1.1. This Font Software is distributed on an "AS IS" BASIS, WITHOUT WARRANTIES OR CONDITIONS OF ANY KIND, either express or implied. See the SIL Open Font License for the specific language, permissions and limitations governing your use of this Font Software.
http://scripts.sil.org/OFL
  -->
<path d="M568 10C553 52 535 94 514 132 486 104 441 70 441 70L401 122 213 122C225 103 236 84 247 64 268 66 280 58 285 48L193 10C154 122 92 229 33 295L46 306C98 268 150 213 194 150L256 150C276 178 295 217 298 248 344 287 398 209 300 150L492 150C497 150 502 149 506 148 485 184 463 216 442 240L456 252C492 227 529 191 562 150L640 150C665 179 690 219 697 252 750 290 798 204 694 150L927 150C941 150 951 146 953 135 921 105 870 65 870 65L824 122 583 122C598 102 611 82 623 61 645 64 656 55 661 44ZM775 274L775 394 530 394 530 284C555 280 565 271 567 257L465 246 465 394 225 394 225 305C250 301 259 292 262 278L161 268 161 474 172 474C197 474 225 461 225 455L225 423 775 423 775 457 787 457C813 457 840 444 840 438L840 311C865 307 876 298 878 283ZM149 620L149 927 158 927C184 927 212 912 212 906L212 650 361 650 361 905 371 905C403 905 423 892 424 887L424 650 577 650 577 905 587 905C618 905 639 892 639 887L639 650 795 650 795 832C795 845 791 851 775 851 755 851 677 845 677 845L677 860C714 864 735 872 747 881 757 892 762 908 764 926 848 919 859 888 859 839L859 662C878 657 894 649 900 642L818 582 785 620 455 620C474 593 497 558 515 528L928 528C942 528 952 523 955 512 921 482 869 444 869 444L823 498 50 498 59 528 440 528C432 557 422 592 413 620L219 620 149 589Z"/>
</svg>