<svg xmlns="http://www.w3.org/2000/svg"
    viewBox="0 0 1000 1000">
  <!--
© 2017-2023 Adobe (http://www.adobe.com/).
Noto is a trademark of Google Inc.
This Font Software is licensed under the SIL Open Font License, Version 1.1. This Font Software is distributed on an "AS IS" BASIS, WITHOUT WARRANTIES OR CONDITIONS OF ANY KIND, either express or implied. See the SIL Open Font License for the specific language, permissions and limitations governing your use of this Font Software.
http://scripts.sil.org/OFL
  -->
<path d="M504 328L504 391 265 391 274 420 504 420 504 488 206 488 206 482 206 316 917 316C931 316 941 311 944 300 909 269 854 225 854 225L807 288 556 288 556 242C580 239 591 229 593 216L493 205C514 188 534 168 553 147L642 147C668 176 692 216 699 248 752 287 799 201 697 147L929 147C943 147 953 142 955 131 923 101 872 61 872 61L826 118 577 118C590 102 603 85 614 67 635 71 647 63 652 52L562 10C545 51 524 91 502 127 474 99 430 66 430 66L390 118 208 118C219 100 229 81 238 62 258 64 271 55 275 45L182 10C147 122 90 231 36 299L50 310C99 270 148 212 190 147L251 147C271 175 290 213 293 244 339 284 392 206 295 147L480 147 489 146C463 185 435 219 409 244L422 257C445 243 468 227 491 207L491 288 219 288 142 254 142 483C142 630 132 787 37 916L51 926C183 813 203 650 206 518L504 518 504 596 254 596 263 625 504 625 504 690 516 690C540 690 568 678 568 670L568 625 749 625 749 651 759 651C780 651 813 637 814 631L814 518 937 518C950 518 960 513 963 502 933 473 885 434 885 434L841 488 814 488 814 431C833 427 848 420 855 412L776 351 740 391 568 391 568 366C593 362 602 353 604 339ZM749 518L749 596 568 596 568 518ZM749 488L568 488 568 420 749 420ZM274 708L274 928 284 928C316 928 335 915 335 909L335 876 767 876 767 919 777 919C807 919 831 906 831 902L831 741C849 738 859 733 865 725L795 672 764 708 347 708 274 677ZM335 847L335 738 767 738 767 847Z"/>
</svg>