<svg xmlns="http://www.w3.org/2000/svg"
    viewBox="0 0 1000 1000">
  <!--
© 2017-2024 Adobe (http://www.adobe.com/).
Noto is a trademark of Google Inc.
This Font Software is licensed under the SIL Open Font License, Version 1.1. This Font Software is distributed on an "AS IS" BASIS, WITHOUT WARRANTIES OR CONDITIONS OF ANY KIND, either express or implied. See the SIL Open Font License for the specific language, permissions and limitations governing your use of this Font Software.
http://scripts.sil.org/OFL
  -->
<path d="M119 585L119 928 128 928C156 928 184 912 184 906L184 613 816 613 816 835C816 848 813 854 796 854 778 854 701 848 701 848L701 864C738 867 757 875 770 884 781 895 785 911 787 929 871 921 881 891 881 841L881 626C900 623 917 614 923 607L839 544 806 585 190 585 119 552ZM568 11C554 48 536 85 516 118 487 90 442 55 442 55L403 106 217 106 241 65C262 68 274 60 279 48L189 12C154 113 95 209 38 266L52 277C103 244 154 194 197 135L254 135C276 162 298 199 302 230 350 268 400 190 301 135L491 135C499 135 506 133 510 128 486 167 460 202 435 227L449 239 465 229 465 294 60 294 68 324 921 324C935 324 945 319 947 308 915 279 864 241 864 241L818 294 531 294 531 244C550 241 558 233 559 221L485 214C514 192 542 165 568 135L644 135C668 162 693 201 699 232 751 270 799 186 699 135L931 135C944 135 954 130 956 119 925 89 875 49 875 49L829 106 593 106 622 65C642 68 654 59 659 49ZM246 380L246 555 255 555C281 555 311 542 311 535L311 516 690 516 690 547 700 547C721 547 755 534 756 527L756 418C772 415 787 407 792 401L716 343 682 380 316 380 246 348ZM690 487L311 487 311 409 690 409ZM301 672L301 868 309 868C334 868 362 855 362 850L362 811 636 811 636 851 646 851C666 851 697 836 698 830L698 707C713 704 727 697 733 691L661 637 628 672 367 672 301 642ZM636 782L362 782 362 700 636 700Z"/>
</svg>