<svg xmlns="http://www.w3.org/2000/svg"
    viewBox="0 0 1000 1000">
  <!--
© 2017-2024 Adobe (http://www.adobe.com/).
Noto is a trademark of Google Inc.
This Font Software is licensed under the SIL Open Font License, Version 1.1. This Font Software is distributed on an "AS IS" BASIS, WITHOUT WARRANTIES OR CONDITIONS OF ANY KIND, either express or implied. See the SIL Open Font License for the specific language, permissions and limitations governing your use of this Font Software.
http://scripts.sil.org/OFL
  -->
<path d="M117 272L117 929 127 929C160 929 182 912 182 906L182 863 929 863C943 863 954 858 957 847 920 814 863 771 863 771L813 833 182 833 182 301 904 301C918 301 927 296 930 286 896 254 842 213 842 213L795 272 194 272 122 241C147 213 171 182 193 148L258 148C278 176 297 215 300 245 348 285 399 206 302 148L491 148C505 148 514 143 517 132 489 104 442 68 442 68L402 119 212 119C223 101 233 82 243 63 264 65 276 57 280 46L187 10C150 123 89 234 32 302L46 313C70 294 94 272 117 246ZM571 10C543 102 497 193 453 249L468 259C505 232 541 193 574 148L641 148C666 176 691 215 698 248 750 286 798 201 697 148L928 148C942 148 952 143 954 132 922 102 870 63 870 63L825 119 594 119C606 101 618 82 628 62 648 64 660 56 665 44ZM592 312L592 815 604 815C628 815 655 801 655 793L655 666 885 666C899 666 908 661 911 650 879 620 827 581 827 581L783 637 655 637 655 544 849 544C864 544 873 539 876 528 846 499 799 463 799 463L757 514 655 514 655 430 865 430C879 430 888 425 891 415 860 385 811 346 811 346L767 401 655 401 655 349C680 346 688 336 691 323ZM206 637L247 711C255 709 263 703 268 690 327 671 373 654 409 639 389 708 340 766 234 809L244 822C438 761 482 665 483 545L483 349C507 345 513 337 516 323L421 313 421 398 227 398 236 427 421 427 421 510 255 510 264 539 421 539 421 545C421 569 419 592 415 614 330 625 246 634 206 637Z"/>
</svg>