<svg xmlns="http://www.w3.org/2000/svg"
    viewBox="0 0 1000 1000">
  <!--
© 2017-2024 Adobe (http://www.adobe.com/).
Noto is a trademark of Google Inc.
This Font Software is licensed under the SIL Open Font License, Version 1.1. This Font Software is distributed on an "AS IS" BASIS, WITHOUT WARRANTIES OR CONDITIONS OF ANY KIND, either express or implied. See the SIL Open Font License for the specific language, permissions and limitations governing your use of this Font Software.
http://scripts.sil.org/OFL
  -->
<path d="M761 349L531 349 531 277 761 277ZM761 378L761 450 531 450 531 378ZM239 349L239 277 467 277 467 349ZM239 378L467 378 467 450 239 450ZM757 505L670 496 670 567 531 567 531 479 761 479 761 505 771 505C792 505 824 490 825 484L825 285C841 282 856 275 861 268L786 211 752 248 246 248 176 216 176 508 186 508C211 508 239 494 239 487L239 479 467 479 467 567 329 567 329 526C345 523 352 516 354 505L267 496 267 567 60 567 69 597 267 597 267 687 98 687 106 717 467 717 467 790 77 790 86 819 467 819 467 927 477 927C510 927 531 911 531 906L531 819 899 819C912 819 923 814 925 803 896 776 849 741 849 741L809 790 531 790 531 717 885 717C898 717 907 712 909 701 882 674 839 640 839 640L801 687 732 687 732 597 923 597C936 597 946 592 949 581 920 554 874 517 874 517L834 567 732 567 732 526C748 523 755 516 757 505ZM531 597L670 597 670 687 531 687ZM467 597L467 687 329 687 329 597ZM441 55L400 107 213 107C222 94 231 79 239 65 259 69 272 61 277 51L188 11C150 111 91 202 35 258L48 269C98 238 149 192 192 136L253 136C275 163 296 199 302 230 349 268 400 190 303 136L489 136C503 136 512 131 515 120 487 92 441 55 441 55ZM875 51L831 107 590 107C601 94 611 80 621 65 641 68 653 60 658 49L567 11C542 82 504 151 468 193L482 205C510 187 538 163 565 136L646 136C671 163 696 201 703 232 755 268 800 186 705 136L932 136C946 136 955 131 958 120 927 91 875 51 875 51Z"/>
</svg>