<svg xmlns="http://www.w3.org/2000/svg" name="gid9883" data-unicode="簀"
    viewBox="0 0 1000 1000">
  <!--
© 2017-2024 Adobe (http://www.adobe.com/).
Noto is a trademark of Google Inc.
This Font Software is licensed under the SIL Open Font License, Version 1.1. This Font Software is distributed on an "AS IS" BASIS, WITHOUT WARRANTIES OR CONDITIONS OF ANY KIND, either express or implied. See the SIL Open Font License for the specific language, permissions and limitations governing your use of this Font Software.
http://scripts.sil.org/OFL
  -->
<path d="M568 841L565 857C703 879 808 914 871 950 952 995 1065 852 568 841ZM389 821C292 875 167 914 55 938L65 957C186 946 320 921 429 880 449 886 457 885 466 876ZM257 642L746 642 746 697 257 697ZM257 612L257 558 746 558 746 612ZM257 726L746 726 746 782 257 782ZM192 528L192 850 202 850C229 850 257 835 257 829L257 811 746 811 746 838 756 838C777 838 810 823 811 817L811 567C827 564 842 556 848 549L771 490 737 528 262 528 192 496ZM567 41C552 79 533 115 513 148 484 120 440 85 440 85L400 136 213 136 239 95C258 98 272 90 276 80L187 41C150 140 91 232 35 287L48 299C98 267 149 221 192 165L254 165C276 192 299 229 303 259 351 298 401 219 303 165L489 165C495 165 500 164 503 162 484 191 465 216 445 236L458 247 467 242 467 282 114 282 123 312 467 312 467 364 148 364 157 393 467 393 467 447 48 447 57 476 928 476C941 476 951 471 954 460 922 433 874 398 874 398L830 447 531 447 531 393 834 393C848 393 857 388 859 378 831 352 787 320 787 320L748 364 531 364 531 312 874 312C887 312 895 307 898 296 869 270 822 236 822 236L782 282 531 282 531 261C553 257 561 250 563 236L488 228C514 211 539 189 563 165L648 165C674 192 698 230 705 261 758 297 803 215 706 165L932 165C946 165 956 160 958 149 927 120 875 80 875 80L831 136 589 136C600 123 610 110 619 96 639 100 652 92 657 81Z"/>
</svg>