<svg xmlns="http://www.w3.org/2000/svg"
    viewBox="0 0 1000 1000">
  <!--
© 2017-2023 Adobe (http://www.adobe.com/).
Noto is a trademark of Google Inc.
This Font Software is licensed under the SIL Open Font License, Version 1.1. This Font Software is distributed on an "AS IS" BASIS, WITHOUT WARRANTIES OR CONDITIONS OF ANY KIND, either express or implied. See the SIL Open Font License for the specific language, permissions and limitations governing your use of this Font Software.
http://scripts.sil.org/OFL
  -->
<path d="M877 617C795 753 685 846 548 910L557 928C710 877 835 797 931 674 954 678 964 675 969 664ZM854 406C788 505 695 588 595 646L606 664C720 617 828 548 905 464 927 468 936 465 942 455ZM821 227C758 314 673 390 581 442L592 460C697 419 798 358 873 286 894 290 902 287 908 278ZM302 319L302 397 216 397 224 426 302 426 302 503 210 503 218 532 302 532 302 607 285 607 229 581 229 839 237 839C258 839 281 826 281 822L281 777 378 777 378 812 388 812C408 812 429 800 431 796L431 646C446 643 460 637 467 629L411 576 384 607 356 607 356 532 446 532C459 532 467 527 470 516 449 495 417 469 417 469L389 503 356 503 356 426 442 426C455 426 464 421 466 411 446 389 415 363 415 363L387 397 356 397 356 350C374 348 381 340 382 329ZM281 748L281 636 378 636 378 748ZM126 273L126 503C126 648 120 797 38 915L51 926C179 810 186 639 186 503L186 301 490 301 490 835C490 849 486 855 469 855 451 855 371 849 371 849L371 865C409 869 430 876 441 885 453 895 457 910 459 928 542 920 552 890 552 841L552 314C572 310 588 301 595 294L513 232 480 273 198 273 126 240ZM202 11C164 115 100 209 38 265L51 277C106 245 160 199 205 140L263 140C281 168 297 207 298 238 345 279 398 200 305 140L496 140C509 140 519 135 522 124 493 95 446 58 446 58L405 110 227 110C237 96 246 81 254 65 276 68 289 60 293 49ZM591 11C556 100 501 184 450 233L463 246C505 221 548 184 587 140L636 140C659 168 681 209 685 242 736 282 787 196 684 140L931 140C945 140 954 135 957 124 925 93 873 54 873 54L828 110 611 110C623 95 634 79 644 62 664 65 676 57 681 46Z"/>
</svg>