<svg xmlns="http://www.w3.org/2000/svg" name="gid9913" data-unicode="簫"
    viewBox="0 0 1000 1000">
  <!--
© 2017-2024 Adobe (http://www.adobe.com/).
Noto is a trademark of Google Inc.
This Font Software is licensed under the SIL Open Font License, Version 1.1. This Font Software is distributed on an "AS IS" BASIS, WITHOUT WARRANTIES OR CONDITIONS OF ANY KIND, either express or implied. See the SIL Open Font License for the specific language, permissions and limitations governing your use of this Font Software.
http://scripts.sil.org/OFL
  -->
<path d="M577 41C547 114 501 182 459 222L467 230 462 229 462 296 146 296 155 324 462 324 462 385 45 385 53 414 462 414 462 475 139 475 148 505 462 505 462 711 198 711 199 693 199 653 324 653 324 681 335 681C356 681 381 669 381 662L381 570C400 567 409 558 410 547L324 537 324 624 199 624 199 577C222 574 229 564 232 551L137 541 137 692C137 779 124 877 49 947L62 959C121 924 155 878 175 829L323 829 323 952 332 952C351 952 379 939 380 933L380 835C396 833 409 825 414 819L346 768 315 799 185 799C190 779 194 759 196 739L462 739 462 958 474 958C499 958 526 942 526 933L526 739 791 739 791 800 666 800 605 772 605 951 614 951C636 951 662 938 662 933L662 829 791 829 791 957 803 957C827 957 854 944 854 937L854 577C880 573 889 564 891 550L791 539 791 624 662 624 662 570C683 567 690 559 692 547L605 537 605 678 617 678C637 678 662 665 662 658L662 653 791 653 791 711 526 711 526 505 744 505 744 543 753 543C774 543 807 529 808 522L808 414 938 414C952 414 961 409 964 398 935 371 890 334 890 334L850 385 808 385 808 333C825 330 839 322 844 316L769 259 735 296 526 296 526 264C548 260 556 252 558 239L478 231C509 214 539 192 568 165L645 165C671 192 696 231 703 262 755 299 801 216 700 165L922 165C936 165 946 160 949 149 917 119 866 79 866 79L820 136 596 136C607 124 618 111 628 97 648 101 661 94 666 83ZM744 324L744 385 526 385 526 324ZM744 475L526 475 526 414 744 414ZM200 41C160 146 97 243 36 301L50 313C105 278 159 227 205 165L242 165C265 192 289 230 295 261 344 297 391 216 291 165L491 165C503 165 513 160 515 149 488 121 441 85 441 85L402 136 225 136 250 95C272 98 284 90 289 79Z"/>
</svg>