<svg xmlns="http://www.w3.org/2000/svg"
    viewBox="0 0 1000 1000">
  <!--
© 2017-2023 Adobe (http://www.adobe.com/).
Noto is a trademark of Google Inc.
This Font Software is licensed under the SIL Open Font License, Version 1.1. This Font Software is distributed on an "AS IS" BASIS, WITHOUT WARRANTIES OR CONDITIONS OF ANY KIND, either express or implied. See the SIL Open Font License for the specific language, permissions and limitations governing your use of this Font Software.
http://scripts.sil.org/OFL
  -->
<path d="M715 285C759 379 838 461 925 514 930 488 943 466 965 458L967 446C874 412 783 347 729 274 752 273 759 268 762 258L660 237C629 329 548 444 462 505L471 520C572 467 666 379 715 285ZM98 431L98 714 108 714C133 714 159 701 159 695L159 676 236 676 236 768 41 768 49 798 236 798 236 933 246 933C279 933 300 918 300 914L300 798 496 798C509 798 519 793 521 782 491 753 442 714 442 714L400 768 300 768 300 676 382 676 382 701 391 701C411 701 442 687 442 681L442 472C461 468 477 460 484 453L407 394 372 431 301 431 301 353 476 353C490 353 499 348 502 337 471 307 420 267 420 267L376 323 301 323 301 268C320 265 328 258 332 249 367 249 385 188 304 143L499 143C512 143 522 138 525 127 496 99 450 63 450 63L411 114 219 114C230 98 241 81 251 64 273 68 285 60 290 50L201 11C161 115 95 211 34 268L46 280C99 248 152 201 198 143L257 143C279 170 301 208 307 239L237 232 237 323 60 323 68 353 237 353 237 431 164 431 98 402ZM576 11C547 99 499 185 457 239L471 250C507 223 544 186 577 143L651 143C676 170 700 209 707 241 760 279 807 195 706 143L932 143C946 143 955 138 958 127 926 97 875 57 875 57L830 114 598 114C609 98 620 80 630 63 650 65 663 57 668 47ZM479 644L487 674 667 674 667 928 677 928C710 928 732 913 732 908L732 674 923 674C937 674 947 669 949 658 918 627 867 586 867 586L823 644 732 644 732 512 850 512C863 512 872 507 875 496 847 469 802 432 802 432L763 483 537 483 545 512 667 512 667 644ZM382 646L159 646 159 563 382 563ZM382 535L159 535 159 461 382 461Z"/>
</svg>