<svg xmlns="http://www.w3.org/2000/svg"
    viewBox="0 0 1000 1000">
  <!--
© 2017-2023 Adobe (http://www.adobe.com/).
Noto is a trademark of Google Inc.
This Font Software is licensed under the SIL Open Font License, Version 1.1. This Font Software is distributed on an "AS IS" BASIS, WITHOUT WARRANTIES OR CONDITIONS OF ANY KIND, either express or implied. See the SIL Open Font License for the specific language, permissions and limitations governing your use of this Font Software.
http://scripts.sil.org/OFL
  -->
<path d="M202 11C163 116 100 211 39 267L53 280C107 247 160 199 205 140L259 140C277 167 293 205 295 236L225 229 225 333 68 333 76 362 225 362 225 445 79 445 87 475 225 475 225 564 49 564 57 593 206 593C168 686 109 777 36 846L48 862C118 814 178 755 225 688L225 928 238 928C261 928 289 912 289 904L289 664C332 698 378 751 389 797 455 839 498 702 289 647L289 593 450 593C464 593 473 588 476 577 447 550 402 516 402 516L362 564 289 564 289 475 424 475C438 475 446 470 449 459 423 433 381 400 381 400L345 445 289 445 289 362 429 362C443 362 452 357 454 347 428 320 384 287 384 287L348 333 289 333 289 265C305 263 313 257 317 249 354 254 379 190 301 140L496 140C509 140 519 135 522 124 493 95 446 58 446 58L405 110 226 110C236 95 245 80 254 64 275 68 289 60 293 49ZM758 229L758 338 630 338 630 261C647 257 655 249 657 238L569 228 569 338 462 338 470 367 569 367 569 485 446 485 454 514 942 514C955 514 963 509 966 498 939 471 894 435 894 435L856 485 819 485 819 367 932 367C946 367 955 362 957 352 931 325 889 291 889 291L852 338 819 338 819 262C837 258 845 250 847 239ZM630 367L758 367 758 485 630 485ZM821 737L821 840 581 840 581 737ZM821 707L581 707 581 613 821 613ZM519 584L519 929 529 929C555 929 581 914 581 907L581 869 821 869 821 925 831 925C852 925 884 909 885 903L885 622C902 619 917 611 923 604L847 546 813 584 586 584 519 553ZM591 11C551 106 490 193 434 243L446 256C493 229 542 189 585 140L651 140C673 168 694 208 698 240 749 279 800 196 702 140L931 140C945 140 954 135 957 124 925 93 873 54 873 54L828 110 610 110C621 95 633 79 643 63 663 66 676 58 680 48Z"/>
</svg>