<svg xmlns="http://www.w3.org/2000/svg"
    viewBox="0 0 1000 1000">
  <!--
© 2017-2023 Adobe (http://www.adobe.com/).
Noto is a trademark of Google Inc.
This Font Software is licensed under the SIL Open Font License, Version 1.1. This Font Software is distributed on an "AS IS" BASIS, WITHOUT WARRANTIES OR CONDITIONS OF ANY KIND, either express or implied. See the SIL Open Font License for the specific language, permissions and limitations governing your use of this Font Software.
http://scripts.sil.org/OFL
  -->
<path d="M198 11C157 108 94 198 35 251L48 264C100 234 152 189 197 135L250 135C271 158 291 192 297 220L252 215 252 292 69 292 77 321 159 321 155 323C171 352 187 399 186 436 232 482 296 390 174 321L354 321C345 360 331 410 317 449L43 449 51 479 507 479C520 479 530 474 532 463 505 438 463 406 463 406L426 449 347 449C370 420 392 389 408 364 428 365 440 357 444 346L367 321 494 321C507 321 517 316 519 305 491 279 446 245 446 245L407 292 314 292 314 246C331 243 338 237 340 228 362 212 363 167 301 135L505 135C519 135 529 130 531 119 503 91 457 55 457 55L417 106 220 106 247 66C267 70 280 63 285 53ZM560 476L560 848C560 899 576 914 657 914L771 914C935 914 967 905 967 875 967 863 961 857 939 849L936 757 923 757C914 798 902 836 895 848 891 855 886 857 875 858 860 858 822 859 774 859L668 859C627 859 622 854 622 836L622 786 887 786C899 786 909 781 911 770 888 746 850 717 850 717L818 757 622 757 622 693 877 693C890 693 899 688 902 677 879 654 842 625 842 625L810 664 622 664 622 602 877 602C890 602 899 597 900 586 878 563 841 534 841 534L810 572 622 572 622 504 834 504 834 528 844 528C865 528 896 515 897 507L897 410C912 408 925 400 930 394L859 341 826 374 623 374 623 312 923 312C937 312 947 307 950 296 919 269 872 231 872 231L830 283 623 283 623 247C646 244 653 235 655 223L560 213 560 437 572 437C595 437 623 425 623 419L623 404 834 404 834 476 635 476 560 443ZM392 661L392 730 184 730 184 661ZM392 632L184 632 184 567 392 567ZM123 538L123 927 133 927C159 927 184 912 184 906L184 759 392 759 392 837C392 850 388 855 374 855 356 855 290 851 290 850L290 866C322 870 340 876 351 885 360 895 365 910 367 927 444 919 454 891 454 843L454 579C474 576 491 567 497 559L415 498 382 538 189 538 123 507ZM587 11C558 93 513 174 471 224L486 235C522 210 558 175 591 135L653 135C677 161 701 197 707 226 757 262 802 182 710 135L929 135C942 135 952 130 954 119 923 89 872 49 872 49L827 106 613 106C624 92 633 78 642 63 662 66 675 57 679 46Z"/>
</svg>