<svg xmlns="http://www.w3.org/2000/svg" name="gid9984" data-unicode="粕"
    viewBox="0 0 1000 1000">
  <!--
© 2017-2024 Adobe (http://www.adobe.com/).
Noto is a trademark of Google Inc.
This Font Software is licensed under the SIL Open Font License, Version 1.1. This Font Software is distributed on an "AS IS" BASIS, WITHOUT WARRANTIES OR CONDITIONS OF ANY KIND, either express or implied. See the SIL Open Font License for the specific language, permissions and limitations governing your use of this Font Software.
http://scripts.sil.org/OFL
  -->
<path d="M72 121L57 126C78 181 102 264 101 327 155 385 218 259 72 121ZM362 108C344 189 316 281 294 340L310 348C349 299 389 225 421 159 443 160 453 151 457 139ZM208 42L208 397 41 397 49 427 184 427C154 559 101 695 30 798L43 811C111 741 167 660 208 569L208 959 221 959C244 959 271 944 271 935L271 512C309 553 349 611 360 657 424 706 476 572 271 489L271 427 419 427C433 427 442 422 445 411 414 381 365 342 365 342L321 397 271 397 271 81C297 77 305 67 307 53ZM530 570L830 570 830 847 530 847ZM530 540L530 289 830 289 830 540ZM655 49C642 114 619 205 605 259L542 259 468 228 468 956 478 956C510 956 530 941 530 935L530 877 830 877 830 946 840 946C870 946 895 930 895 925L895 296C917 292 929 286 937 277L861 218 826 259 633 259C662 213 703 147 728 99 750 100 763 93 767 79Z"/>
</svg>