<svg xmlns="http://www.w3.org/2000/svg"
    viewBox="0 0 1000 1000">
  <!--
© 2017-2023 Adobe (http://www.adobe.com/).
Noto is a trademark of Google Inc.
This Font Software is licensed under the SIL Open Font License, Version 1.1. This Font Software is distributed on an "AS IS" BASIS, WITHOUT WARRANTIES OR CONDITIONS OF ANY KIND, either express or implied. See the SIL Open Font License for the specific language, permissions and limitations governing your use of this Font Software.
http://scripts.sil.org/OFL
  -->
<path d="M535 648C499 733 422 844 335 914L345 928C453 874 546 782 597 707 621 710 630 706 635 696ZM724 661L712 670C775 732 857 835 883 912 962 966 1008 793 724 661ZM70 90L55 94C74 150 96 233 94 296 146 352 207 230 70 90ZM341 78C326 156 304 248 286 307L302 314C338 265 375 192 402 128 423 128 435 120 439 108ZM41 366L49 395 177 395C147 528 95 668 26 772L40 785C104 716 157 635 197 546L197 930 210 930C234 930 260 915 260 906L260 479C295 521 332 577 343 621 369 641 393 631 398 606L951 606C965 606 974 601 977 590 946 558 893 514 893 514L848 576 801 576 801 287 928 287C942 287 951 283 954 272 924 242 874 200 874 200L830 259 801 259 801 61C826 57 835 47 837 33L736 22 736 259 573 259 573 61C596 57 606 47 609 33L507 22 507 259 397 259 405 287 507 287 507 576 396 576C386 540 348 492 260 452L260 395 398 395C412 395 422 390 424 379 393 350 345 311 345 311L302 366 260 366 260 49C283 46 290 36 292 23L197 13 197 366ZM573 287L736 287 736 576 573 576Z"/>
</svg>