<svg xmlns="http://www.w3.org/2000/svg"
    viewBox="0 0 1000 1000">
  <!--
© 2017-2024 Adobe (http://www.adobe.com/).
Noto is a trademark of Google Inc.
This Font Software is licensed under the SIL Open Font License, Version 1.1. This Font Software is distributed on an "AS IS" BASIS, WITHOUT WARRANTIES OR CONDITIONS OF ANY KIND, either express or implied. See the SIL Open Font License for the specific language, permissions and limitations governing your use of this Font Software.
http://scripts.sil.org/OFL
  -->
<path d="M200 32L190 41C234 76 290 138 307 187 376 229 421 88 200 32ZM727 18C691 76 630 153 579 206L530 206 530 50C556 46 565 37 567 23L467 12 467 206 57 206 66 235 386 235C303 317 179 396 47 449L57 465C217 419 365 347 467 254L467 454 479 454C503 454 530 441 530 432L530 235 535 235C619 335 758 408 899 446 907 414 929 394 957 388L958 377C822 357 664 305 569 235L920 235C934 235 945 230 947 219 915 189 863 147 863 147L818 206 609 206C670 166 737 112 777 70 800 73 814 67 820 56ZM698 559L698 725 579 725 579 559ZM516 530L516 725 419 725 427 754 698 754 698 929 710 929C735 929 762 915 762 907L762 754 939 754C953 754 963 749 965 739 935 709 885 668 885 668L840 725 762 725 762 559 909 559C922 559 932 554 935 544 905 514 857 476 857 476L816 530 762 530 762 458C786 455 795 445 798 431L698 420 698 530 592 530 516 497ZM382 549C365 606 341 660 308 708 318 679 295 626 194 599 210 583 225 566 239 549ZM236 417C200 519 123 632 37 696L49 709C94 685 138 653 176 616 209 645 242 687 252 722 273 736 292 732 301 717 245 798 165 864 58 912L66 928C283 856 396 723 454 556 477 555 487 552 494 544L423 479 380 520 261 520C277 499 290 477 302 456 326 459 334 455 338 444Z"/>
</svg>