<svg xmlns="http://www.w3.org/2000/svg" name="gid9997" data-unicode="粨"
    viewBox="0 0 1000 1000">
  <!--
© 2017-2024 Adobe (http://www.adobe.com/).
Noto is a trademark of Google Inc.
This Font Software is licensed under the SIL Open Font License, Version 1.1. This Font Software is distributed on an "AS IS" BASIS, WITHOUT WARRANTIES OR CONDITIONS OF ANY KIND, either express or implied. See the SIL Open Font License for the specific language, permissions and limitations governing your use of this Font Software.
http://scripts.sil.org/OFL
  -->
<path d="M72 121L57 126C78 181 102 264 101 327 155 385 218 259 72 121ZM536 591L846 591 846 842 536 842ZM536 562L536 339 846 339 846 562ZM361 109C343 189 316 281 294 339L310 347C349 298 389 226 421 160 441 161 452 153 456 141L650 141C643 192 631 261 622 310L548 310 474 278 474 955 484 955C515 955 536 939 536 934L536 871 846 871 846 945 856 945C885 945 908 929 908 924L908 345C931 342 942 335 950 327L875 269 842 310 651 310C678 263 709 194 732 141L941 141C955 141 964 136 966 125 935 95 883 53 883 53L836 112 447 112 454 139ZM208 42L208 397 42 397 50 427 184 427C154 560 101 697 30 801L43 814C111 744 167 662 208 571L208 959 221 959C244 959 271 944 271 935L271 512C309 553 349 611 360 657 424 706 476 572 271 489L271 427 419 427C433 427 442 422 445 411 415 381 365 342 365 342L321 397 271 397 271 81C297 77 305 67 307 53Z"/>
</svg>