<svg xmlns="http://www.w3.org/2000/svg"
    viewBox="0 0 1000 1000">
  <!--
© 2017-2023 Adobe (http://www.adobe.com/).
Noto is a trademark of Google Inc.
This Font Software is licensed under the SIL Open Font License, Version 1.1. This Font Software is distributed on an "AS IS" BASIS, WITHOUT WARRANTIES OR CONDITIONS OF ANY KIND, either express or implied. See the SIL Open Font License for the specific language, permissions and limitations governing your use of this Font Software.
http://scripts.sil.org/OFL
  -->
<path d="M57 90L43 94C61 150 81 233 79 295 128 351 188 231 57 90ZM313 80C299 156 280 249 264 307L282 314C312 264 347 190 374 129L386 128 388 137 606 137C598 180 588 237 578 280L460 280 395 248 395 374C366 347 326 315 326 315L285 369 245 369 245 47C266 44 273 35 275 21L182 12 182 369 42 369 50 398 158 398C131 530 85 667 21 771L35 784C96 714 145 633 182 543L182 928 194 928C218 928 245 914 245 904L245 482C277 526 311 587 317 635 376 685 432 555 245 458L245 398 377 398C384 398 391 397 395 393L395 915 405 915C433 915 454 899 454 892L454 309 545 309 545 878 553 878C581 878 600 865 600 859L600 309 696 309 696 877 704 877C732 877 751 864 751 859L751 309 856 309 856 815C856 827 853 831 841 831 828 831 775 827 775 827L775 843C802 848 817 856 825 866 834 876 836 896 838 916 908 907 916 876 916 823L916 321C937 318 953 309 960 301L879 240 846 280 614 280C636 238 661 182 680 137L938 137C952 137 961 132 963 121 932 90 881 50 881 50L836 107 403 107Z"/>
</svg>