<svg xmlns="http://www.w3.org/2000/svg"
    viewBox="0 0 1000 1000">
  <!--
© 2017-2024 Adobe (http://www.adobe.com/).
Noto is a trademark of Google Inc.
This Font Software is licensed under the SIL Open Font License, Version 1.1. This Font Software is distributed on an "AS IS" BASIS, WITHOUT WARRANTIES OR CONDITIONS OF ANY KIND, either express or implied. See the SIL Open Font License for the specific language, permissions and limitations governing your use of this Font Software.
http://scripts.sil.org/OFL
  -->
<path d="M383 155L390 185 524 185 524 286 535 286C565 286 585 276 585 271L585 185 727 185 727 285 738 285C772 284 788 272 788 267L788 185 934 185C948 185 957 180 959 169 932 142 886 105 886 105L847 155 788 155 788 57C811 54 820 43 821 30L727 20 727 155 585 155 585 57C608 54 616 44 617 30L524 20 524 155ZM57 90L43 94C61 150 81 233 79 295 128 351 188 231 57 90ZM313 77C299 154 280 247 264 307L282 314C312 262 347 188 374 126 394 126 405 117 410 105ZM679 308L679 583C649 611 618 637 587 659L598 673C625 658 652 642 679 624L679 839C679 885 693 903 756 903L827 903C941 903 969 892 969 865 969 853 963 846 943 838L940 724 927 724C919 770 907 823 901 835 897 842 893 844 886 844 877 845 856 845 829 845L770 845C744 845 740 840 740 824L740 580C809 528 870 471 911 424 934 430 943 427 950 418L866 366C836 413 791 469 740 523L740 345C761 341 770 332 772 319ZM525 301C493 415 423 578 334 683L346 696C393 656 435 608 471 557L471 927 482 927C506 927 531 913 532 907L532 512C549 509 559 502 562 493L522 478C548 434 570 391 586 353 611 356 619 350 625 339ZM42 369L50 398 158 398C131 530 85 667 21 771L35 784C96 714 145 633 182 543L182 928 194 928C218 928 245 914 245 904L245 462C275 503 306 560 312 604 370 653 426 527 245 438L245 398 377 398C391 398 401 393 403 382 374 353 326 315 326 315L285 369 245 369 245 47C266 44 273 35 275 21L182 12 182 369Z"/>
</svg>