<svg xmlns="http://www.w3.org/2000/svg" name="gid10015" data-unicode="糂"
    viewBox="0 0 1000 1000">
  <!--
© 2017-2024 Adobe (http://www.adobe.com/).
Noto is a trademark of Google Inc.
This Font Software is licensed under the SIL Open Font License, Version 1.1. This Font Software is distributed on an "AS IS" BASIS, WITHOUT WARRANTIES OR CONDITIONS OF ANY KIND, either express or implied. See the SIL Open Font License for the specific language, permissions and limitations governing your use of this Font Software.
http://scripts.sil.org/OFL
  -->
<path d="M57 120L43 124C61 180 81 263 79 325 128 381 188 261 57 120ZM313 107C299 184 280 277 264 337L282 344C312 292 347 218 374 156 394 156 405 147 410 135ZM42 399L50 428 158 428C131 560 85 697 21 801L35 814C96 744 145 663 182 573L182 958 194 958C218 958 245 944 245 934L245 512C277 555 309 616 316 663 356 697 395 648 356 582L416 582 416 958 425 958C456 958 477 943 477 939L477 897 929 897C943 897 953 892 956 881 923 850 870 809 870 809L824 868 477 868 477 582 575 582C572 658 558 731 482 792L496 807C605 749 629 668 636 582L715 582 715 714C715 753 723 767 775 767L828 768C915 768 938 756 938 731 938 719 933 713 915 706L912 634 901 634C894 666 885 697 880 706 876 711 874 712 867 713 861 713 846 713 831 713L790 713C775 713 773 711 773 701L773 582 942 582C955 582 964 578 966 567 938 537 891 498 891 498L848 553 834 553 834 202 933 202C947 202 957 197 959 186 930 158 884 120 884 120L842 173 834 173 834 83C858 79 867 69 870 55L771 45 771 173 545 173 545 83C569 79 578 69 580 55L483 45 483 173 384 173 392 202 483 202 483 553 339 553 341 562C322 537 291 512 245 488L245 428 377 428C391 428 401 423 403 412 374 383 326 345 326 345L285 399 245 399 245 77C266 74 273 65 275 51L182 42 182 399ZM545 202L771 202 771 296 545 296ZM545 553L545 451 771 451 771 553ZM545 325L771 325 771 423 545 423Z"/>
</svg>