<svg xmlns="http://www.w3.org/2000/svg" name="gid10028" data-unicode="糕"
    viewBox="0 0 1000 1000">
  <!--
© 2017-2024 Adobe (http://www.adobe.com/).
Noto is a trademark of Google Inc.
This Font Software is licensed under the SIL Open Font License, Version 1.1. This Font Software is distributed on an "AS IS" BASIS, WITHOUT WARRANTIES OR CONDITIONS OF ANY KIND, either express or implied. See the SIL Open Font License for the specific language, permissions and limitations governing your use of this Font Software.
http://scripts.sil.org/OFL
  -->
<path d="M493 46L481 52C510 88 540 149 543 197 603 249 666 118 493 46ZM447 698C444 774 399 844 357 871 338 886 326 907 336 926 351 948 387 943 411 922 449 890 490 813 465 698ZM563 702L549 705C564 763 572 847 560 915 612 981 691 846 563 702ZM684 702L671 706C698 762 727 847 725 912 783 974 851 833 684 702ZM811 690L798 697C844 757 893 852 896 927 966 992 1035 821 811 690ZM65 121L51 125C70 180 91 264 90 326 140 383 202 261 65 121ZM334 108C317 185 296 278 279 336L296 344C329 293 366 219 396 158 416 158 427 148 431 137ZM771 41C754 93 724 166 699 218L411 218 419 248 626 248 626 403 435 403 442 433 626 433 626 604 393 604 401 634 937 634C951 634 961 629 963 618 929 585 874 541 874 541L824 604 693 604 693 433 904 433C918 433 928 428 931 417 899 386 845 344 845 344L800 403 693 403 693 248 923 248C937 248 946 243 949 232 917 200 864 160 864 160L818 218 725 218C766 177 810 126 837 87 859 87 871 79 875 67ZM41 395L49 424 169 424C140 557 92 696 23 800L38 814C101 744 153 662 192 571L192 960 205 960C229 960 255 945 255 936L255 502C287 545 322 606 331 653 392 704 448 573 255 480L255 424 396 424C410 424 419 419 422 408 392 379 343 340 343 340L300 395 255 395 255 79C277 76 284 66 286 53L192 43 192 395Z"/>
</svg>