<svg xmlns="http://www.w3.org/2000/svg" name="gid10054" data-unicode="紀"
    viewBox="0 0 1000 1000">
  <!--
© 2017-2024 Adobe (http://www.adobe.com/).
Noto is a trademark of Google Inc.
This Font Software is licensed under the SIL Open Font License, Version 1.1. This Font Software is distributed on an "AS IS" BASIS, WITHOUT WARRANTIES OR CONDITIONS OF ANY KIND, either express or implied. See the SIL Open Font License for the specific language, permissions and limitations governing your use of this Font Software.
http://scripts.sil.org/OFL
  -->
<path d="M323 578L309 582C336 638 364 720 364 784 423 844 490 707 323 578ZM117 581C103 692 74 807 37 886L55 895C106 827 148 725 174 626 195 625 205 616 209 604ZM486 425L486 863C486 921 507 937 598 937L732 937C920 937 957 928 957 894 957 882 951 874 927 866L925 693 911 693C898 770 886 838 876 858 872 871 868 874 853 875 835 877 792 878 733 878L607 878C559 878 552 871 552 851L552 453 818 453 818 532 828 532C849 532 882 517 884 510L884 158C902 154 919 146 925 138L844 76 808 117 449 117 458 146 818 146 818 425 564 425 486 391ZM58 192L47 200C89 235 138 295 150 343 197 375 233 306 158 243 197 205 241 148 274 95 296 97 307 89 312 78L216 41C194 108 166 180 141 230 120 216 93 203 58 192ZM314 358L302 363C319 389 336 422 350 457L177 469C255 389 332 290 379 214 399 217 413 210 418 199L325 158C283 253 211 377 144 471 100 474 65 475 41 475L65 552C75 550 85 543 90 531L218 508 218 957 228 957C258 957 280 941 280 936L280 495 357 479C365 502 370 525 371 545 432 599 493 465 314 358Z"/>
</svg>