<svg xmlns="http://www.w3.org/2000/svg"
    viewBox="0 0 1000 1000">
  <!--
© 2017-2024 Adobe (http://www.adobe.com/).
Noto is a trademark of Google Inc.
This Font Software is licensed under the SIL Open Font License, Version 1.1. This Font Software is distributed on an "AS IS" BASIS, WITHOUT WARRANTIES OR CONDITIONS OF ANY KIND, either express or implied. See the SIL Open Font License for the specific language, permissions and limitations governing your use of this Font Software.
http://scripts.sil.org/OFL
  -->
<path d="M475 43L475 418C475 603 454 781 351 915L366 926C505 798 534 608 535 418L535 81C560 77 568 67 570 53ZM856 43L856 911 868 911C891 911 918 896 918 886L918 82C943 78 951 68 954 54ZM660 90L660 837 672 837C694 837 720 823 720 813L720 127C744 123 752 114 754 101ZM322 554L309 560C334 605 363 675 367 728 425 780 488 658 322 554ZM109 558C96 656 69 757 38 827L54 835C100 777 139 689 165 602 186 601 196 592 200 580ZM63 170L53 180C94 212 144 269 158 316 206 347 241 276 161 216 200 174 241 117 273 64 294 66 306 57 310 46L214 12C193 77 165 149 140 202 119 190 94 179 63 170ZM305 324L293 331C312 355 333 387 349 420L180 433C254 355 329 255 375 181 395 184 409 176 414 165L320 127C279 220 210 344 149 436 104 439 66 441 41 441L72 517C82 515 90 508 96 496L215 472 215 927 225 927C255 927 277 911 277 906L277 459 359 441C369 463 377 485 380 505 441 555 496 423 305 324Z"/>
</svg>