<svg xmlns="http://www.w3.org/2000/svg"
    viewBox="0 0 1000 1000">
  <!--
© 2017-2024 Adobe (http://www.adobe.com/).
Noto is a trademark of Google Inc.
This Font Software is licensed under the SIL Open Font License, Version 1.1. This Font Software is distributed on an "AS IS" BASIS, WITHOUT WARRANTIES OR CONDITIONS OF ANY KIND, either express or implied. See the SIL Open Font License for the specific language, permissions and limitations governing your use of this Font Software.
http://scripts.sil.org/OFL
  -->
<path d="M552 389L540 396C587 449 639 537 644 607 714 667 777 503 552 389ZM331 555L318 561C346 613 380 692 386 752 445 808 507 675 331 555ZM109 558C95 658 66 763 34 834L50 842C98 782 138 692 164 604 185 604 195 595 199 582ZM553 17C526 160 476 307 422 404L436 414C475 370 511 315 543 254L847 254C839 547 819 787 780 824 768 836 760 839 738 839 713 839 624 830 571 825L569 843C617 851 670 863 688 875 704 885 709 904 708 925 761 925 802 910 832 877 882 819 903 577 912 262 934 260 947 254 954 246L877 181 837 224 557 224C581 174 602 121 619 67 640 67 651 58 655 46ZM63 170L53 180C94 212 144 269 158 316 206 347 241 276 161 216 200 174 241 117 273 64 294 66 306 57 310 46L214 12C193 77 165 149 140 202 119 190 94 179 63 170ZM316 337L304 344C320 365 338 392 354 420L182 433C256 355 330 255 376 181 397 184 411 176 416 165L322 127C281 220 212 344 150 436 104 439 66 441 41 441L64 517C75 515 84 508 89 496L218 472 218 927 228 927C258 927 280 911 280 906L280 459 365 441C377 468 387 494 391 517 452 567 508 436 316 337Z"/>
</svg>