<svg xmlns="http://www.w3.org/2000/svg"
    viewBox="0 0 1000 1000">
  <!--
© 2017-2024 Adobe (http://www.adobe.com/).
Noto is a trademark of Google Inc.
This Font Software is licensed under the SIL Open Font License, Version 1.1. This Font Software is distributed on an "AS IS" BASIS, WITHOUT WARRANTIES OR CONDITIONS OF ANY KIND, either express or implied. See the SIL Open Font License for the specific language, permissions and limitations governing your use of this Font Software.
http://scripts.sil.org/OFL
  -->
<path d="M333 578L320 583C345 633 375 713 379 773 438 828 501 699 333 578ZM105 580C93 673 67 771 37 838L53 847C98 791 135 706 160 625 180 624 191 616 195 605ZM384 229L392 258 495 258C517 428 561 568 630 680 561 770 471 849 355 913L365 927C488 873 584 804 659 723 720 809 798 876 894 928 909 898 935 881 964 880L968 870C860 826 770 761 699 676 790 559 843 419 873 258L939 258C953 258 963 253 964 242 932 212 878 169 878 169L830 229 699 229 699 62C723 59 733 49 735 35L633 24 633 229ZM516 258L800 258C778 397 735 522 664 632 592 531 542 406 516 258ZM50 175L39 183C80 217 128 274 140 320 190 353 228 280 149 220 188 177 229 118 264 66 284 68 297 60 301 48L204 12C181 78 152 153 128 206 108 195 82 184 50 175ZM313 354L302 361C319 382 338 409 354 438L174 445C250 359 335 249 384 173 406 175 420 169 425 158L332 117C285 213 208 346 144 446L43 448 72 525C82 524 92 518 97 505L217 486 217 928 227 928C257 928 279 912 279 907L279 475 365 459C376 482 384 505 388 525 450 575 507 444 313 354Z"/>
</svg>