<svg xmlns="http://www.w3.org/2000/svg" name="gid10077" data-unicode="級"
    viewBox="0 0 1000 1000">
  <!--
© 2017-2024 Adobe (http://www.adobe.com/).
Noto is a trademark of Google Inc.
This Font Software is licensed under the SIL Open Font License, Version 1.1. This Font Software is distributed on an "AS IS" BASIS, WITHOUT WARRANTIES OR CONDITIONS OF ANY KIND, either express or implied. See the SIL Open Font License for the specific language, permissions and limitations governing your use of this Font Software.
http://scripts.sil.org/OFL
  -->
<path d="M309 594L297 599C319 645 346 717 346 773 399 827 464 705 309 594ZM98 609C88 702 66 800 39 869L56 877C98 820 131 734 154 652 175 651 184 642 188 631ZM395 105L404 134 489 134C488 412 489 711 339 935L357 951C500 781 534 562 544 334 567 508 610 648 683 758 624 831 549 894 454 943L464 958C567 916 648 862 712 797 762 863 825 916 903 960 918 930 945 913 974 913L978 904C889 865 816 812 757 746 836 648 883 531 913 406 936 404 946 402 954 392L883 327 841 368 745 368C766 288 787 200 799 146 820 144 836 138 843 130L764 66 731 105ZM550 134L735 134C718 219 688 345 660 442 690 449 709 448 725 442L737 397 845 397C822 509 783 613 723 704 620 567 567 379 549 139ZM295 380L283 386C297 409 313 438 325 468L172 475C241 390 315 286 361 211 381 214 395 206 400 195L305 157C264 250 198 379 142 476L42 479 72 555C81 553 91 547 97 534L203 515 203 958 212 958C243 958 265 942 265 937L265 503 333 490C340 511 345 532 346 551 403 604 466 479 295 380ZM48 205L37 213C75 245 117 300 128 345 175 378 214 309 143 251 180 207 221 148 254 96 274 97 287 89 291 77L193 41C171 107 144 182 121 236 102 224 78 214 48 205Z"/>
</svg>