<svg xmlns="http://www.w3.org/2000/svg"
    viewBox="0 0 1000 1000">
  <!--
© 2017-2023 Adobe (http://www.adobe.com/).
Noto is a trademark of Google Inc.
This Font Software is licensed under the SIL Open Font License, Version 1.1. This Font Software is distributed on an "AS IS" BASIS, WITHOUT WARRANTIES OR CONDITIONS OF ANY KIND, either express or implied. See the SIL Open Font License for the specific language, permissions and limitations governing your use of this Font Software.
http://scripts.sil.org/OFL
  -->
<path d="M309 576L297 581C320 628 346 702 347 759 401 814 466 690 309 576ZM98 579C88 672 66 770 39 839L56 847C98 790 131 703 154 620 175 620 184 611 188 598ZM629 446L629 605 392 605 400 634 629 634 629 928 642 928C667 928 695 915 695 906L695 634 940 634C954 634 964 629 966 618 933 588 880 543 880 543L833 605 695 605 695 484C719 481 729 471 731 457ZM291 354L279 359C292 381 307 409 319 438L166 446C238 361 314 257 359 183 380 186 394 179 399 168L306 127C263 220 195 350 136 447L42 449 72 525C81 523 91 517 97 504L203 485 203 928 212 928C243 928 265 912 265 907L265 473 328 461C336 483 341 505 342 525 374 555 408 528 401 481L414 495C571 411 619 298 637 185L757 185 757 391C757 430 765 445 817 445L861 445C941 445 965 433 965 407 965 396 961 389 942 381L939 306 928 306C920 337 911 372 906 381 902 386 898 387 893 387 889 388 878 388 865 388L835 388C822 388 820 386 820 375L820 193C836 191 847 186 853 179L784 119 749 155 641 155C645 120 646 86 648 52 669 50 677 40 679 27L579 18C578 63 578 110 574 155L424 155 433 185 570 185C556 293 517 396 401 479 395 444 364 396 291 354ZM48 175L37 183C75 215 117 270 128 315 175 348 214 279 143 221 181 178 221 119 254 67 275 68 287 60 292 49L194 12C172 78 146 153 123 207 104 195 79 184 48 175Z"/>
</svg>