<svg xmlns="http://www.w3.org/2000/svg"
    viewBox="0 0 1000 1000">
  <!--
© 2017-2024 Adobe (http://www.adobe.com/).
Noto is a trademark of Google Inc.
This Font Software is licensed under the SIL Open Font License, Version 1.1. This Font Software is distributed on an "AS IS" BASIS, WITHOUT WARRANTIES OR CONDITIONS OF ANY KIND, either express or implied. See the SIL Open Font License for the specific language, permissions and limitations governing your use of this Font Software.
http://scripts.sil.org/OFL
  -->
<path d="M307 557L293 562C316 613 343 692 345 751 400 807 463 681 307 557ZM105 565C91 665 64 770 33 842L49 851C97 790 135 699 162 610 181 610 192 601 196 588ZM644 529L644 813 505 813 505 529ZM644 500L505 500 505 254 644 254ZM706 529L852 529 852 813 706 813ZM706 500L706 254 852 254 852 500ZM442 225L442 919 453 919C481 919 505 903 505 895L505 843 852 843 852 916 861 916C884 916 914 897 915 890L915 266C934 263 951 254 957 246L879 184 842 225 706 225 706 63C729 60 736 51 738 37L644 26 644 225 510 225 442 192ZM69 170L59 178C99 211 147 268 158 313 209 348 248 268 156 207 193 169 235 116 267 65 287 66 299 57 303 47L207 11C186 76 159 146 135 195 117 186 95 177 69 170ZM306 343L293 347C306 368 320 393 332 420L173 434C245 356 324 253 371 179 391 182 405 174 410 163L317 127C276 220 206 347 146 436L43 443 74 518C84 516 92 510 97 497L205 474 205 921 215 921C245 921 267 906 267 900L267 459 341 441C352 470 360 499 362 525 420 577 479 449 306 343Z"/>
</svg>