<svg xmlns="http://www.w3.org/2000/svg"
    viewBox="0 0 1000 1000">
  <!--
© 2017-2024 Adobe (http://www.adobe.com/).
Noto is a trademark of Google Inc.
This Font Software is licensed under the SIL Open Font License, Version 1.1. This Font Software is distributed on an "AS IS" BASIS, WITHOUT WARRANTIES OR CONDITIONS OF ANY KIND, either express or implied. See the SIL Open Font License for the specific language, permissions and limitations governing your use of this Font Software.
http://scripts.sil.org/OFL
  -->
<path d="M328 577L314 582C339 632 368 711 371 770 428 824 490 700 328 577ZM101 580C89 674 64 772 34 840L50 848C95 792 131 707 155 622 176 621 186 613 189 601ZM52 175L41 183C82 216 129 273 141 318 190 351 228 278 148 219 185 175 227 117 261 65 281 67 294 59 298 47L202 11C179 77 151 151 127 205 107 194 82 184 52 175ZM316 343L303 349C320 373 337 404 351 436L173 446C247 358 326 250 374 173 395 177 409 169 414 159L323 118C278 214 204 347 142 447L36 451 61 526C71 525 81 519 87 506L211 484 211 928 221 928C252 928 273 912 273 907L273 473 359 456C367 478 372 499 374 518 433 570 494 443 316 343ZM529 530L854 530 854 799 529 799ZM529 501L529 250 854 250 854 501ZM654 17C643 78 626 162 613 220L542 220 467 189 467 915 477 915C510 915 529 899 529 894L529 828 854 828 854 906 865 906C893 906 918 890 918 884L918 256C941 253 954 247 961 238L885 178 850 220 651 220C677 172 710 108 731 61 752 60 765 52 769 37Z"/>
</svg>