<svg xmlns="http://www.w3.org/2000/svg"
    viewBox="0 0 1000 1000">
  <!--
© 2017-2023 Adobe (http://www.adobe.com/).
Noto is a trademark of Google Inc.
This Font Software is licensed under the SIL Open Font License, Version 1.1. This Font Software is distributed on an "AS IS" BASIS, WITHOUT WARRANTIES OR CONDITIONS OF ANY KIND, either express or implied. See the SIL Open Font License for the specific language, permissions and limitations governing your use of this Font Software.
http://scripts.sil.org/OFL
  -->
<path d="M493 18L481 24C514 71 553 147 560 204 623 257 684 122 493 18ZM309 576L297 581C320 628 346 702 347 759 401 814 466 690 309 576ZM98 579C88 672 66 770 39 839L56 847C98 790 131 703 154 620 175 620 184 611 188 598ZM291 354L279 360C293 382 308 409 321 438L165 446C237 361 314 256 360 182 380 185 394 178 399 167L305 127C262 220 194 350 136 447L42 449 72 525C81 523 91 517 97 504L203 485 203 928 212 928C243 928 265 912 265 907L265 473 330 460C339 483 344 505 346 525 372 549 400 535 404 504L409 522 525 522C519 658 487 798 364 915L376 928C543 821 581 664 589 522L749 522 749 927 758 927C791 927 813 911 813 906L813 522 945 522C958 522 968 517 971 506 941 476 891 433 891 433L845 492 813 492 813 267 922 267C936 267 945 262 948 251 916 222 866 182 866 182L822 238 728 238C776 182 827 111 858 56 881 56 892 47 896 35L794 11C772 79 736 172 703 238L408 238 416 267 527 267 527 454 527 492 405 492C404 455 375 401 291 354ZM749 267L749 492 590 492 591 453 591 267ZM48 175L37 183C75 215 117 270 128 315 175 348 214 279 143 221 180 177 221 118 254 66 274 67 287 59 291 47L193 11C171 77 144 152 121 206 102 194 78 184 48 175Z"/>
</svg>