<svg xmlns="http://www.w3.org/2000/svg" name="gid10165" data-unicode="綗"
    viewBox="0 0 1000 1000">
  <!--
© 2017-2024 Adobe (http://www.adobe.com/).
Noto is a trademark of Google Inc.
This Font Software is licensed under the SIL Open Font License, Version 1.1. This Font Software is distributed on an "AS IS" BASIS, WITHOUT WARRANTIES OR CONDITIONS OF ANY KIND, either express or implied. See the SIL Open Font License for the specific language, permissions and limitations governing your use of this Font Software.
http://scripts.sil.org/OFL
  -->
<path d="M302 604L289 609C309 656 331 730 330 786 383 842 450 719 302 604ZM95 609C85 701 63 799 37 869L53 877C95 819 128 733 150 650 171 649 180 640 184 628ZM287 377L274 382C288 405 304 436 316 467L161 475C231 392 304 288 348 214 369 218 382 211 388 200L294 157C255 251 189 380 132 476L38 479 68 554C77 552 87 547 93 534L198 514 198 958 207 958C238 958 259 943 259 937L259 502 323 489C330 509 334 530 335 548 390 599 452 477 287 377ZM47 203L37 212C73 243 115 297 124 342 170 375 210 308 140 250 177 206 218 148 250 95 271 96 283 88 288 77L189 41C168 107 142 181 119 234 101 223 77 212 47 203ZM401 116L401 960 412 960C440 960 460 944 460 936L460 145 563 145C561 265 554 370 466 451L480 467C600 388 616 277 622 145L696 145 696 358C696 394 703 408 751 408L793 408C823 408 845 407 860 404L860 861C860 875 855 881 838 881 820 881 737 874 737 874L737 890C774 896 796 903 810 913 820 923 825 940 827 960 910 951 920 919 920 868L920 157C940 154 957 145 963 137L882 75 850 116 466 116 401 84ZM750 145L860 145 860 354 856 354C851 356 844 357 840 357 837 357 833 357 829 358 822 358 811 358 798 358L765 358C752 358 750 354 750 343ZM538 504L538 834 546 834C574 834 592 819 592 814L592 755 722 755 722 801 730 801C749 801 776 787 777 781L777 536C789 533 801 528 806 522L744 475 715 504 602 504 538 475ZM722 726L592 726 592 533 722 533Z"/>
</svg>