<svg xmlns="http://www.w3.org/2000/svg"
    viewBox="0 0 1000 1000">
  <!--
© 2017-2024 Adobe (http://www.adobe.com/).
Noto is a trademark of Google Inc.
This Font Software is licensed under the SIL Open Font License, Version 1.1. This Font Software is distributed on an "AS IS" BASIS, WITHOUT WARRANTIES OR CONDITIONS OF ANY KIND, either express or implied. See the SIL Open Font License for the specific language, permissions and limitations governing your use of this Font Software.
http://scripts.sil.org/OFL
  -->
<path d="M536 499C546 666 516 823 331 914L339 928C559 848 599 696 604 539 627 537 637 529 640 513ZM700 498L700 848C700 891 712 909 773 909L838 909C944 909 971 895 971 868 971 856 968 848 948 840L945 689 932 689C922 751 910 818 904 834 900 845 897 847 890 847 882 848 864 848 840 848L789 848C767 848 764 845 764 832L764 534C782 531 792 521 793 509ZM299 549L286 554C309 604 337 679 338 738 393 793 457 666 299 549ZM97 563C86 660 62 764 34 836L50 844C94 783 129 693 152 606 173 606 183 597 187 585ZM622 16L622 137 402 137 410 166 622 166 622 281 436 281 444 310 895 310C908 310 918 305 920 294 891 265 841 226 841 226L799 281 687 281 687 166 929 166C943 166 952 161 955 150 922 120 871 79 871 79L825 137 687 137 687 51C709 47 717 38 719 25ZM445 360C447 406 422 459 398 480 379 494 369 516 380 536 392 556 428 550 444 533 461 515 474 480 474 434L865 434C853 467 836 507 825 532L838 540C870 515 913 473 936 444 955 443 966 441 973 434L902 365 863 405 472 405C470 391 467 376 463 361ZM292 325L278 330C291 355 304 387 312 421L162 435C236 358 307 261 349 187 369 190 382 183 388 172L294 132C257 225 192 348 131 438L40 445 66 518C76 516 85 510 91 497L193 474 193 928 203 928C234 928 255 912 255 906L255 459 316 443C319 459 320 475 319 490 373 545 441 426 292 325ZM60 163L50 171C89 205 134 262 145 309 194 344 232 270 154 208 191 168 230 116 261 65 282 66 294 58 298 47L199 10C180 73 155 141 131 193 112 182 89 172 60 163Z"/>
</svg>