<svg xmlns="http://www.w3.org/2000/svg"
    viewBox="0 0 1000 1000">
  <!--
© 2017-2024 Adobe (http://www.adobe.com/).
Noto is a trademark of Google Inc.
This Font Software is licensed under the SIL Open Font License, Version 1.1. This Font Software is distributed on an "AS IS" BASIS, WITHOUT WARRANTIES OR CONDITIONS OF ANY KIND, either express or implied. See the SIL Open Font License for the specific language, permissions and limitations governing your use of this Font Software.
http://scripts.sil.org/OFL
  -->
<path d="M413 81L421 110 940 110C954 110 963 105 965 94 934 64 880 23 880 23L833 81ZM309 575L297 580C318 623 342 691 342 743 395 797 460 679 309 575ZM98 579C88 672 66 770 39 839L56 847C98 790 131 703 154 620 175 620 184 611 188 598ZM663 439C662 490 661 536 657 579L501 579C507 525 508 472 508 424L508 417 849 417 849 459 859 459C880 459 912 445 913 438L913 258C930 255 945 247 951 240L874 183 840 219 520 219 444 187 444 424C444 585 434 759 340 901L354 912C443 826 481 715 497 608L654 608C636 737 586 830 431 909L442 928C643 850 697 748 716 609 736 719 783 855 910 928 916 891 935 880 967 875L968 863C827 800 763 703 737 608L934 608C948 608 958 603 961 592 931 563 883 526 883 526L840 579 720 579C723 547 725 513 727 477 749 474 758 463 761 450ZM508 388L508 249 849 249 849 388ZM291 353L279 359C294 381 310 409 323 439L165 446C237 362 315 256 360 182 380 185 394 178 400 166L305 127C262 220 194 350 136 447L42 449 72 525C81 523 91 517 97 504L203 486 203 928 212 928C243 928 265 912 265 907L265 474 332 461C341 483 347 504 349 524 406 575 466 450 291 353ZM48 175L37 183C75 215 117 270 128 315 175 348 214 279 143 221 180 177 221 118 254 66 274 67 287 59 291 47L193 11C171 77 144 152 121 206 102 194 78 184 48 175Z"/>
</svg>