<svg xmlns="http://www.w3.org/2000/svg"
    viewBox="0 0 1000 1000">
  <!--
© 2017-2024 Adobe (http://www.adobe.com/).
Noto is a trademark of Google Inc.
This Font Software is licensed under the SIL Open Font License, Version 1.1. This Font Software is distributed on an "AS IS" BASIS, WITHOUT WARRANTIES OR CONDITIONS OF ANY KIND, either express or implied. See the SIL Open Font License for the specific language, permissions and limitations governing your use of this Font Software.
http://scripts.sil.org/OFL
  -->
<path d="M629 751L621 763C692 795 792 858 831 911 909 934 908 781 629 751ZM315 744C271 795 181 861 102 898L111 912C204 887 304 840 357 798 378 804 386 801 394 792ZM636 13L636 112 367 112 367 51C390 47 401 37 403 22L300 12 300 112 87 112 96 141 300 141 300 387 45 387 54 416 278 416C219 495 133 567 33 620L43 636C176 585 292 511 364 416L648 416C713 504 820 577 925 614 930 587 944 567 967 555L969 543C875 525 752 478 683 416L930 416C944 416 955 411 958 400 924 368 871 325 871 325L823 387 703 387 703 141 894 141C907 141 917 136 919 125 888 95 837 55 837 55L792 112 703 112 703 51C727 47 737 37 739 23ZM367 141L636 141 636 202 367 202ZM367 387L367 324 636 324 636 387ZM367 231L636 231 636 294 367 294ZM608 473C568 521 485 604 411 663 292 666 192 668 131 667L173 746C182 743 192 737 198 725L468 704 468 928 478 928C511 928 532 914 532 910L532 698 760 677C784 698 805 720 817 741 892 768 899 615 631 576L623 588C657 603 697 628 733 655L457 662C535 616 610 559 651 524 667 528 678 526 682 518ZM449 421C432 451 396 504 364 542 341 534 310 528 271 526L263 537C308 557 365 601 386 639 436 660 460 592 386 552 427 528 469 500 492 481 511 486 526 480 530 472Z"/>
</svg>