<svg xmlns="http://www.w3.org/2000/svg" name="gid10182" data-unicode="綮"
    viewBox="0 0 1000 1000">
  <!--
© 2017-2024 Adobe (http://www.adobe.com/).
Noto is a trademark of Google Inc.
This Font Software is licensed under the SIL Open Font License, Version 1.1. This Font Software is distributed on an "AS IS" BASIS, WITHOUT WARRANTIES OR CONDITIONS OF ANY KIND, either express or implied. See the SIL Open Font License for the specific language, permissions and limitations governing your use of this Font Software.
http://scripts.sil.org/OFL
  -->
<path d="M49 106L57 135 499 135C512 135 522 130 524 119 492 89 441 50 441 50L396 106ZM620 762L612 775C697 809 817 880 869 939 955 961 947 798 620 762ZM301 756C249 812 145 885 53 927L63 941C169 913 284 860 346 814 368 821 375 817 383 808ZM389 237L389 337 174 337C177 311 178 287 178 266L178 237ZM114 207L114 266C114 356 108 462 36 555L48 568C124 511 156 435 169 367L389 367 389 393 399 393C419 393 451 380 452 373L452 246C469 243 484 235 489 228L414 172 380 207 189 207 114 172ZM622 41C596 149 545 248 489 310L502 320C539 296 573 265 603 227 624 275 648 319 679 358 632 402 573 438 504 468L511 483C586 459 651 429 706 390 758 445 826 489 918 521 924 491 943 474 967 467L970 456C877 435 804 403 746 359 799 314 840 259 868 194L933 194C946 194 956 189 959 179 926 148 874 107 874 107L826 165 645 165C658 142 671 117 682 91 703 92 714 83 718 72ZM709 328C671 293 641 252 618 207L626 194 792 194C773 243 745 288 709 328ZM602 469C545 524 440 606 348 668 235 668 142 668 81 667L128 749C138 747 148 740 154 729L465 710 465 959 475 959C507 959 529 944 529 940L529 706C631 699 716 693 787 686 810 709 829 732 840 753 914 785 932 634 673 583L663 594C694 612 730 636 762 664L402 667C493 622 586 568 643 527 664 534 673 531 681 522ZM423 392C395 430 348 485 307 526 277 513 237 502 184 496L176 508C232 534 308 588 337 632 387 650 408 587 331 539 381 510 440 474 473 449 489 455 501 454 507 445Z"/>
</svg>