<svg xmlns="http://www.w3.org/2000/svg"
    viewBox="0 0 1000 1000">
  <!--
© 2017-2024 Adobe (http://www.adobe.com/).
Noto is a trademark of Google Inc.
This Font Software is licensed under the SIL Open Font License, Version 1.1. This Font Software is distributed on an "AS IS" BASIS, WITHOUT WARRANTIES OR CONDITIONS OF ANY KIND, either express or implied. See the SIL Open Font License for the specific language, permissions and limitations governing your use of this Font Software.
http://scripts.sil.org/OFL
  -->
<path d="M306 579L293 584C316 631 342 705 343 761 396 815 460 693 306 579ZM97 579C87 671 65 769 39 839L56 847C97 789 130 703 153 620 173 619 182 610 186 598ZM723 537L723 705 634 705 634 484 794 484C807 484 817 479 820 469 791 441 747 405 747 405L707 455 634 455 634 337 773 337C786 337 796 332 798 321 770 293 726 257 726 257L687 307 535 307C544 292 552 275 560 259 580 260 591 252 596 240L502 210C483 290 450 371 417 422L431 433C461 408 490 375 516 337L578 337 578 455 410 455 418 484 578 484 578 705 491 705 491 568C508 564 515 557 517 546L436 538 436 805 446 805C467 805 491 792 491 785L491 735 723 735 723 783 733 783C754 783 777 770 777 763L777 568C795 564 802 556 804 546ZM494 12C458 143 394 268 330 345L344 355C400 312 453 252 498 181L862 181C859 554 851 788 817 824 808 834 801 838 780 838 759 838 692 831 650 826L649 845C688 852 728 862 743 873 756 883 759 902 759 923 805 924 844 908 870 874 913 816 922 592 926 190 948 188 960 182 967 173L890 108 851 153 515 153C531 125 546 96 560 65 581 67 593 58 597 46ZM289 356L277 362C292 384 308 411 322 440L159 446C230 362 308 256 354 182 375 184 388 177 394 166L299 127C257 221 188 351 130 447L42 449 70 526C80 524 90 518 96 505L200 487 200 928 209 928C239 928 261 913 261 907L261 475 332 462C342 484 349 507 352 527 409 576 466 453 289 356ZM47 173L37 182C73 213 115 267 124 312 170 345 210 278 140 220 177 176 218 118 250 65 271 66 283 58 288 47L189 11C168 77 142 151 119 204 101 193 77 182 47 173Z"/>
</svg>