<svg xmlns="http://www.w3.org/2000/svg" name="gid10190" data-unicode="綶"
    viewBox="0 0 1000 1000">
  <!--
© 2017-2024 Adobe (http://www.adobe.com/).
Noto is a trademark of Google Inc.
This Font Software is licensed under the SIL Open Font License, Version 1.1. This Font Software is distributed on an "AS IS" BASIS, WITHOUT WARRANTIES OR CONDITIONS OF ANY KIND, either express or implied. See the SIL Open Font License for the specific language, permissions and limitations governing your use of this Font Software.
http://scripts.sil.org/OFL
  -->
<path d="M309 605L297 610C320 657 346 731 347 788 401 843 466 719 309 605ZM98 609C88 702 66 800 39 869L56 877C98 820 131 733 154 650 175 650 184 641 188 628ZM290 382L278 388C292 410 307 439 319 468L165 476C236 391 313 287 358 214 379 217 393 210 398 199L305 157C262 250 194 380 136 477L42 479 72 555C81 553 91 547 97 534L203 515 203 958 212 958C243 958 265 942 265 937L265 503 328 491C335 512 341 534 342 553 399 606 461 481 290 382ZM48 205L37 213C75 245 117 300 128 345 175 378 214 309 143 251 180 207 221 148 254 96 274 97 287 89 291 77L193 41C171 107 144 182 121 236 102 224 78 214 48 205ZM490 299L629 299 629 430 490 430ZM490 269L490 142 629 142 629 269ZM835 299L835 430 692 430 692 299ZM835 269L692 269 692 142 835 142ZM403 576L411 605 588 605C537 714 455 815 348 888L359 904C474 845 566 767 629 671L629 955 639 955C671 955 692 939 692 933L692 611C742 735 824 835 917 893 926 862 946 843 973 838L974 828C877 788 772 705 713 605L930 605C944 605 954 600 957 589 925 559 872 517 872 517L825 576 692 576 692 459 835 459 835 503 844 503C874 503 897 488 897 483L897 146C917 143 928 138 935 129L863 75 831 113 501 113 429 82 429 517 438 517C470 517 490 503 490 498L490 459 629 459 629 576Z"/>
</svg>