<svg xmlns="http://www.w3.org/2000/svg" name="gid10198" data-unicode="綿"
    viewBox="0 0 1000 1000">
  <!--
© 2017-2024 Adobe (http://www.adobe.com/).
Noto is a trademark of Google Inc.
This Font Software is licensed under the SIL Open Font License, Version 1.1. This Font Software is distributed on an "AS IS" BASIS, WITHOUT WARRANTIES OR CONDITIONS OF ANY KIND, either express or implied. See the SIL Open Font License for the specific language, permissions and limitations governing your use of this Font Software.
http://scripts.sil.org/OFL
  -->
<path d="M309 606L297 611C320 658 346 732 347 789 401 844 466 720 309 606ZM98 609C88 702 66 800 39 869L56 877C98 820 131 734 154 652 174 651 184 643 188 631ZM528 317L830 317 830 422 528 422ZM528 288L528 185 830 185 830 288ZM638 42C630 74 619 123 610 155L540 155 466 124 466 496 476 496C509 496 528 482 528 477L528 451 646 451 646 556 514 556 446 525 446 885 455 885C482 885 509 870 509 864L509 584 646 584 646 958 656 958C688 958 709 943 709 939L709 584 857 584 857 788C857 801 853 806 839 806 823 806 760 801 760 800L760 817C791 821 808 829 819 838 828 849 831 867 833 886 910 877 919 847 919 796L919 594C937 591 952 583 958 576L879 518 848 556 709 556 709 451 830 451 830 489 840 489C870 489 895 474 895 470L895 188C914 186 925 180 931 172L859 117 827 155 645 155C666 133 690 107 708 86 728 86 741 79 745 64ZM291 384L279 390C294 412 311 439 325 468L165 476C237 391 315 285 361 211 381 213 395 206 400 195L305 157C262 250 194 380 136 477L42 479 72 555C81 553 91 547 97 534L203 515 203 958 212 958C243 958 265 942 265 937L265 503 334 490C344 512 351 535 354 555 412 605 471 480 291 384ZM48 205L37 213C75 245 117 300 128 345 175 378 214 309 143 251 180 207 221 148 254 96 274 97 287 89 291 77L193 41C171 107 144 182 121 236 102 224 78 214 48 205Z"/>
</svg>