<svg xmlns="http://www.w3.org/2000/svg" name="gid10199" data-unicode="緀"
    viewBox="0 0 1000 1000">
  <!--
© 2017-2024 Adobe (http://www.adobe.com/).
Noto is a trademark of Google Inc.
This Font Software is licensed under the SIL Open Font License, Version 1.1. This Font Software is distributed on an "AS IS" BASIS, WITHOUT WARRANTIES OR CONDITIONS OF ANY KIND, either express or implied. See the SIL Open Font License for the specific language, permissions and limitations governing your use of this Font Software.
http://scripts.sil.org/OFL
  -->
<path d="M310 609L297 614C320 660 346 732 346 788 399 842 465 720 310 609ZM98 609C88 702 66 800 39 869L56 877C98 820 131 733 154 650 175 650 184 641 188 628ZM291 383L278 390C294 412 311 440 326 470L164 477C236 393 312 287 359 213 379 217 393 210 398 199L305 157C262 251 193 381 135 478L41 480 70 556C80 554 89 548 95 535L203 516 203 958 212 958C243 958 265 942 265 937L265 505 335 491C345 513 351 534 354 554 412 605 471 479 291 383ZM48 205L37 213C75 245 117 300 128 345 175 378 214 309 143 251 180 207 221 148 254 96 274 97 287 89 291 77L193 41C171 107 144 182 121 236 102 224 78 214 48 205ZM603 51L603 149 382 149 390 178 603 178 603 260 427 260 435 290 603 290 603 378 365 378 373 407 603 407 603 499 425 499 434 528 812 528 812 566 820 566C841 566 872 552 873 545L873 407 944 407C957 407 966 402 968 391 947 364 907 325 907 325L873 378 873 299C891 296 905 288 911 281L836 224 802 260 666 260 666 178 930 178C943 178 954 173 957 162 924 132 872 91 872 91L825 149 666 149 666 90C691 86 701 76 703 61ZM812 407L812 499 666 499 666 407ZM812 378L666 378 666 290 812 290ZM579 532C570 558 553 596 533 638L385 638 393 667 519 667C491 726 458 786 434 822 458 833 485 836 501 830L525 787C566 801 605 816 641 831 576 882 482 915 352 938L357 956C514 940 622 909 696 856 770 891 831 926 865 953 924 973 956 887 742 815 779 775 804 727 821 667L934 667C948 667 957 662 960 651 927 621 876 580 876 580L830 638 604 638 634 575C658 575 669 566 673 553ZM589 667L747 667C733 719 711 761 680 796 639 785 591 775 537 766Z"/>
</svg>