<svg xmlns="http://www.w3.org/2000/svg" name="gid10205" data-unicode="緇"
    viewBox="0 0 1000 1000">
  <!--
© 2017-2024 Adobe (http://www.adobe.com/).
Noto is a trademark of Google Inc.
This Font Software is licensed under the SIL Open Font License, Version 1.1. This Font Software is distributed on an "AS IS" BASIS, WITHOUT WARRANTIES OR CONDITIONS OF ANY KIND, either express or implied. See the SIL Open Font License for the specific language, permissions and limitations governing your use of this Font Software.
http://scripts.sil.org/OFL
  -->
<path d="M499 50C488 88 441 192 413 250 469 311 505 402 513 453 569 501 646 372 439 247 479 202 542 122 565 92 581 95 591 89 595 80ZM676 57C663 95 614 197 583 253 641 312 680 400 689 452 745 497 819 371 611 250 650 207 714 128 739 99 756 102 766 96 769 88ZM854 53C839 92 786 195 755 251 817 310 862 401 873 454 933 499 1006 368 782 248 824 205 893 125 918 97 934 100 944 94 948 85ZM306 606L293 611C316 658 342 732 343 788 396 842 460 720 306 606ZM97 609C87 701 65 799 39 869L56 877C97 819 130 733 153 650 173 649 182 640 186 628ZM501 705L642 705 642 854 501 854ZM501 675L501 532 642 532 642 675ZM854 705L854 854 704 854 704 705ZM854 675L704 675 704 532 854 532ZM439 503L439 948 448 948C481 948 501 933 501 928L501 884 854 884 854 939 865 939C894 939 918 924 918 919L918 536C939 533 949 528 956 519L884 464 851 503 513 503 439 471ZM289 376L276 381C290 404 306 433 319 463L161 474C232 390 308 285 354 212 375 215 388 208 393 197L299 157C257 251 189 379 131 475L42 479 72 554C82 552 91 546 96 534L200 513 200 958 209 958C239 958 261 943 261 937L261 500 328 485C336 509 342 533 344 554 401 607 461 480 289 376ZM47 203L37 212C73 243 115 297 124 342 170 375 210 308 140 250 177 206 218 148 250 95 271 96 283 88 288 77L189 41C168 107 142 181 119 234 101 223 77 212 47 203Z"/>
</svg>