<svg xmlns="http://www.w3.org/2000/svg" name="gid10213" data-unicode="緑"
    viewBox="0 0 1000 1000">
  <!--
© 2017-2024 Adobe (http://www.adobe.com/).
Noto is a trademark of Google Inc.
This Font Software is licensed under the SIL Open Font License, Version 1.1. This Font Software is distributed on an "AS IS" BASIS, WITHOUT WARRANTIES OR CONDITIONS OF ANY KIND, either express or implied. See the SIL Open Font License for the specific language, permissions and limitations governing your use of this Font Software.
http://scripts.sil.org/OFL
  -->
<path d="M435 474L425 481C460 520 503 584 510 635 570 683 626 555 435 474ZM311 592L299 597C320 639 346 704 348 753 401 804 465 689 311 592ZM98 609C88 702 66 800 39 869L56 877C98 820 131 734 154 652 174 651 184 642 188 631ZM872 454C850 495 802 569 761 623 730 568 705 499 690 414L942 414C956 414 965 409 967 398 938 368 888 323 888 323L844 385 831 385 831 151C855 146 876 136 884 126L795 58 753 104 444 104 453 132 766 132 766 243 463 243 472 272 766 272 766 385 382 385 390 414 624 414 624 647C511 720 400 792 353 818L414 883C423 876 427 865 427 853 511 777 578 713 624 667L624 859C624 872 620 877 604 877 585 877 503 870 503 870L503 886C541 891 564 899 576 909 586 919 591 937 592 956 676 946 687 910 687 860L687 484C726 698 802 804 916 891 926 859 946 837 972 832L973 821C896 781 825 727 770 639 826 600 886 550 918 518 937 525 952 517 956 510ZM291 383L279 389C294 411 311 439 325 468L166 476C238 391 316 286 362 212 382 214 396 207 402 196L307 157C264 250 195 380 136 477L42 479 72 555C81 553 91 547 97 534L203 515 203 958 212 958C243 958 265 942 265 937L265 503 335 489C344 512 351 534 354 554 412 604 471 478 291 383ZM48 205L37 213C75 245 117 300 128 345 175 378 214 309 143 251 180 207 221 148 254 96 274 97 287 89 291 77L193 41C171 107 144 182 121 236 102 224 78 214 48 205Z"/>
</svg>