<svg xmlns="http://www.w3.org/2000/svg" name="gid10215" data-unicode="緕"
    viewBox="0 0 1000 1000">
  <!--
© 2017-2024 Adobe (http://www.adobe.com/).
Noto is a trademark of Google Inc.
This Font Software is licensed under the SIL Open Font License, Version 1.1. This Font Software is distributed on an "AS IS" BASIS, WITHOUT WARRANTIES OR CONDITIONS OF ANY KIND, either express or implied. See the SIL Open Font License for the specific language, permissions and limitations governing your use of this Font Software.
http://scripts.sil.org/OFL
  -->
<path d="M309 605L297 610C320 657 346 731 347 788 401 843 466 719 309 605ZM98 609C88 702 66 800 39 869L56 877C98 820 131 733 154 650 175 650 184 641 188 628ZM634 50L634 173 394 173 402 202 502 202C535 264 580 314 636 354 569 397 485 430 388 456L394 472C502 452 597 422 676 379 745 419 827 446 923 465 930 437 947 418 973 413L973 402C884 391 801 373 729 346 784 307 828 260 860 202L939 202C953 202 962 197 965 186 934 157 882 116 882 116L838 173 700 173 700 85C722 81 730 72 732 59ZM782 202C758 248 723 289 678 324 615 293 563 253 526 202ZM539 589L812 589 812 701 532 701C537 671 539 642 539 614ZM812 465L812 560 539 560 539 502C563 498 570 489 572 476L476 465 476 612C476 721 460 855 366 947L378 959C470 899 510 814 527 730L812 730 812 957 824 957C848 957 876 942 876 935L876 501C899 497 906 488 908 475ZM292 382L280 387C294 410 309 439 322 469L165 476C236 392 314 286 360 211 382 214 395 206 400 195L305 157C262 250 193 380 136 477L42 479 71 555C81 553 90 547 96 534L203 516 203 958 212 958C243 958 265 942 265 937L265 505 330 492C338 513 343 534 345 553 402 605 463 480 292 382ZM48 205L37 213C75 245 117 300 128 345 175 378 214 309 143 251 180 207 221 148 254 96 274 97 287 89 291 77L193 41C171 107 144 182 121 236 102 224 78 214 48 205Z"/>
</svg>