<svg xmlns="http://www.w3.org/2000/svg" name="gid10221" data-unicode="緜"
    viewBox="0 0 1000 1000">
  <!--
© 2017-2024 Adobe (http://www.adobe.com/).
Noto is a trademark of Google Inc.
This Font Software is licensed under the SIL Open Font License, Version 1.1. This Font Software is distributed on an "AS IS" BASIS, WITHOUT WARRANTIES OR CONDITIONS OF ANY KIND, either express or implied. See the SIL Open Font License for the specific language, permissions and limitations governing your use of this Font Software.
http://scripts.sil.org/OFL
  -->
<path d="M824 654L811 661C848 711 888 793 891 856 951 911 1011 770 824 654ZM573 655C550 738 514 823 480 877L495 887C545 844 593 777 629 706 649 707 660 698 664 687ZM382 183L382 284 163 284 163 183ZM218 41L200 154 175 154 103 123 103 487 112 487C143 487 163 473 163 468L163 449 240 449 240 552 155 552 84 521 84 866 93 866C123 866 143 849 143 845L143 581 240 581 240 958 249 958C280 958 301 943 301 938L301 581 404 581 404 761C404 773 402 777 390 777 377 777 333 773 333 773L333 789C357 793 369 800 377 810 386 820 388 838 389 854 456 847 464 819 464 768L464 592C483 589 499 580 505 573L425 514 395 552 301 552 301 449 382 449 382 478 391 478C412 478 442 463 443 457L443 192C460 189 475 182 481 175L407 117 373 154 239 154C254 131 273 103 285 82 306 81 319 72 321 58ZM382 314L382 419 163 419 163 314ZM806 247C758 330 681 443 617 529 572 531 535 531 510 531L541 613C551 611 561 604 567 592L693 572 693 959 703 959C734 959 755 944 755 940L755 561 872 540C883 562 890 585 892 605 954 656 1007 513 805 430L794 438C817 459 841 488 860 519L650 528C725 456 806 365 856 298 879 301 892 293 897 282ZM845 47C774 82 635 125 519 146L523 163C571 161 622 156 670 150 647 207 621 269 598 315 576 302 549 290 513 280L503 289C544 321 591 378 605 423 652 454 687 388 619 331 657 290 699 236 734 186 755 188 767 180 772 169L712 144C771 135 827 124 870 114 893 122 909 123 918 115Z"/>
</svg>