<svg xmlns="http://www.w3.org/2000/svg"
    viewBox="0 0 1000 1000">
  <!--
© 2017-2024 Adobe (http://www.adobe.com/).
Noto is a trademark of Google Inc.
This Font Software is licensed under the SIL Open Font License, Version 1.1. This Font Software is distributed on an "AS IS" BASIS, WITHOUT WARRANTIES OR CONDITIONS OF ANY KIND, either express or implied. See the SIL Open Font License for the specific language, permissions and limitations governing your use of this Font Software.
http://scripts.sil.org/OFL
  -->
<path d="M262 574L248 579C267 624 285 695 282 749 307 777 337 761 342 723L364 777C373 774 382 766 385 754L400 748 400 927 408 927C443 927 460 907 461 900L461 724C535 694 592 669 636 650L633 635 461 674 461 514 601 514C615 514 624 509 627 498L621 492 651 492C668 593 694 678 734 749 683 815 614 870 521 911L529 927C629 893 703 847 760 790 799 846 848 891 909 928 920 900 940 883 965 880L968 870C900 841 843 800 797 748 853 677 887 593 910 500 931 497 942 495 949 486L879 424 840 463 590 463 557 434 519 485 461 485 461 306 598 306C612 306 621 301 624 290 597 264 555 227 555 227L517 277 461 277 461 132C513 117 571 94 605 75 625 81 638 80 647 75L647 170C647 251 642 336 577 408L588 421C696 352 705 248 705 169L705 102 810 102 810 339C810 374 816 391 860 391L889 391C952 391 973 377 973 354 973 342 968 336 952 329L949 255 937 255C930 286 921 320 917 328 914 334 911 335 907 335 904 335 898 335 893 335L878 335C870 335 868 332 868 322L868 111C886 109 896 104 902 97L834 38 801 74 716 74 647 42 647 66 567 14C547 36 509 70 471 97L400 78 400 686 342 697C337 663 315 618 262 574ZM764 707C722 647 691 575 673 492L844 492C828 571 803 643 764 707ZM257 358L245 364C259 385 274 412 286 441L147 447C208 365 273 264 311 191 333 194 346 187 351 175L260 142C225 231 167 355 118 448L41 449 69 525C79 523 89 518 94 505L164 491 164 929 174 929C205 929 226 913 226 908L226 478 294 462C302 484 307 505 309 525 364 573 421 455 257 358ZM75 582C70 669 57 767 38 836L57 843C90 785 114 700 130 625 150 625 160 615 164 604ZM46 174L36 182C67 212 103 264 109 306 155 341 197 271 122 213 156 170 192 113 222 62 243 63 253 55 258 43L165 11C147 75 122 147 102 199 87 190 68 181 46 174Z"/>
</svg>