<svg xmlns="http://www.w3.org/2000/svg" name="gid10235" data-unicode="緬"
    viewBox="0 0 1000 1000">
  <!--
© 2017-2024 Adobe (http://www.adobe.com/).
Noto is a trademark of Google Inc.
This Font Software is licensed under the SIL Open Font License, Version 1.1. This Font Software is distributed on an "AS IS" BASIS, WITHOUT WARRANTIES OR CONDITIONS OF ANY KIND, either express or implied. See the SIL Open Font License for the specific language, permissions and limitations governing your use of this Font Software.
http://scripts.sil.org/OFL
  -->
<path d="M306 606L293 611C314 658 337 732 336 788 390 844 456 721 306 606ZM97 609C87 701 65 799 39 869L56 877C97 819 130 734 152 651 172 651 182 643 186 631ZM407 279L407 949 417 949C448 949 467 934 467 929L467 878 859 878 859 944 868 944C896 944 921 928 921 923L921 314C942 311 955 305 962 297L887 238 854 279 651 279C672 238 696 184 713 141L940 141C954 141 963 136 965 125 934 95 881 55 881 55L835 112 381 112 389 141 633 141C627 182 617 237 608 279L479 279 407 248ZM555 308L555 849 467 849 467 308ZM609 308L711 308 711 464 609 464ZM765 308L859 308 859 849 765 849ZM609 494L711 494 711 655 609 655ZM609 684L711 684 711 849 609 849ZM289 381L277 387C291 410 306 438 318 468L160 476C231 392 307 287 353 213 374 216 387 209 393 198L299 157C257 251 188 381 130 477L42 479 71 555C81 553 90 548 96 535L200 516 200 958 209 958C239 958 261 943 261 937L261 504 327 491C334 512 339 533 340 552 396 603 456 481 289 381ZM47 203L37 212C73 243 115 297 124 342 170 375 210 308 140 250 177 206 218 148 250 95 271 96 283 88 288 77L189 41C168 107 142 181 119 234 101 223 77 212 47 203Z"/>
</svg>