<svg xmlns="http://www.w3.org/2000/svg"
    viewBox="0 0 1000 1000">
  <!--
© 2017-2024 Adobe (http://www.adobe.com/).
Noto is a trademark of Google Inc.
This Font Software is licensed under the SIL Open Font License, Version 1.1. This Font Software is distributed on an "AS IS" BASIS, WITHOUT WARRANTIES OR CONDITIONS OF ANY KIND, either express or implied. See the SIL Open Font License for the specific language, permissions and limitations governing your use of this Font Software.
http://scripts.sil.org/OFL
  -->
<path d="M271 577L257 582C278 630 301 704 299 762 351 816 415 695 271 577ZM77 582C72 669 59 767 40 836L58 843C91 785 115 699 132 622 153 620 163 611 166 599ZM613 305C594 405 558 504 518 569L533 579C567 547 599 504 626 454L696 454C695 512 694 567 687 618L510 618 518 647 683 647C664 752 618 841 500 913L513 929C662 857 719 763 743 647L746 647C763 743 806 865 916 931 922 896 940 885 970 880L972 868C848 812 791 727 766 647L944 647C958 647 967 642 970 631 940 603 891 563 891 563L848 618 748 618C756 567 758 513 760 454L914 454C928 454 938 449 941 438 910 410 861 370 861 370L819 424 641 424C652 401 662 376 671 351 693 352 704 343 708 332ZM592 78L601 106 795 106 778 255 527 255 535 284 945 284C959 284 968 280 971 269 941 240 893 200 893 200L849 255 843 255 858 112C873 110 882 107 889 100L821 43 788 78ZM485 17C451 168 392 324 331 424L347 434C373 405 399 371 423 333L423 928 434 928C457 928 483 911 484 906L484 298C501 296 511 290 514 281L464 262C496 201 524 134 547 65 569 65 579 56 583 44ZM251 357L240 363C254 384 269 412 280 440L145 446C206 366 272 265 312 195 333 198 346 190 351 179L263 142C226 232 167 355 116 447L32 449 60 525C69 523 79 517 84 504L170 486 170 929 179 929C210 929 232 913 232 908L232 473 288 461C296 482 301 504 302 523 357 572 414 455 251 357ZM46 172L36 180C67 211 103 262 110 305 155 339 195 274 128 216 162 173 198 116 229 64 249 64 260 56 265 45L172 13C153 77 128 149 108 201 92 191 71 181 46 172Z"/>
</svg>