<svg xmlns="http://www.w3.org/2000/svg" name="gid10243" data-unicode="緹"
    viewBox="0 0 1000 1000">
  <!--
© 2017-2024 Adobe (http://www.adobe.com/).
Noto is a trademark of Google Inc.
This Font Software is licensed under the SIL Open Font License, Version 1.1. This Font Software is distributed on an "AS IS" BASIS, WITHOUT WARRANTIES OR CONDITIONS OF ANY KIND, either express or implied. See the SIL Open Font License for the specific language, permissions and limitations governing your use of this Font Software.
http://scripts.sil.org/OFL
  -->
<path d="M306 605L294 610C316 657 343 731 343 787 397 841 461 719 306 605ZM97 609C88 701 66 799 40 869L56 877C98 819 131 733 153 650 174 649 183 640 187 628ZM472 583C463 739 417 861 342 946L355 958C422 911 471 842 503 751 555 898 635 933 772 933 814 933 902 933 941 933 941 907 953 888 974 885L974 871C923 872 821 872 776 872 748 872 722 871 698 868L698 691 910 691C924 691 934 686 937 675 904 644 853 604 853 604L808 662 698 662 698 523 930 523C944 523 954 518 957 508 924 478 873 439 873 439L827 494 405 494 413 523 633 523 633 852C581 832 542 792 513 720 522 691 529 659 535 625 558 624 568 613 571 600ZM526 262L816 262 816 362 526 362ZM526 233L526 131 816 131 816 233ZM463 102L463 443 472 443C499 443 526 428 526 422L526 391 816 391 816 435 825 435C847 435 879 420 880 413L880 143C900 139 915 131 922 123L842 62 806 102 531 102 463 71ZM287 382L274 387C288 409 303 438 315 467L164 475C235 391 311 286 357 213 378 216 391 209 396 197L302 159C259 251 191 380 134 476L42 479 72 554C82 552 91 547 97 534L201 515 201 958 210 958C240 958 262 943 262 937L262 503 324 490C331 512 337 533 338 552 393 604 454 482 287 382ZM47 206L36 214C73 246 115 301 124 346 171 379 210 310 139 252 176 207 217 148 250 96 271 96 283 88 288 77L189 41C167 108 141 182 118 237 100 225 76 215 47 206Z"/>
</svg>