<svg xmlns="http://www.w3.org/2000/svg"
    viewBox="0 0 1000 1000">
  <!--
© 2017-2023 Adobe (http://www.adobe.com/).
Noto is a trademark of Google Inc.
This Font Software is licensed under the SIL Open Font License, Version 1.1. This Font Software is distributed on an "AS IS" BASIS, WITHOUT WARRANTIES OR CONDITIONS OF ANY KIND, either express or implied. See the SIL Open Font License for the specific language, permissions and limitations governing your use of this Font Software.
http://scripts.sil.org/OFL
  -->
<path d="M308 565L295 570C318 616 344 689 344 745 398 799 463 677 308 565ZM98 579C88 672 66 770 39 839L56 847C98 790 131 704 154 622 174 621 184 613 188 601ZM884 409C862 442 816 499 777 542 751 483 731 419 716 353L938 353C952 353 961 348 964 338 936 309 890 271 890 271L849 325 823 325 823 101C840 98 854 91 859 85L786 28 751 65 440 65 449 94 760 94 760 193 465 193 474 221 760 221 760 325 370 325 378 353 621 353C564 415 482 473 398 516L409 533C469 510 527 482 579 449 589 462 598 476 607 489 558 554 478 617 404 654L411 670C491 642 576 594 634 544 642 564 649 583 654 602 583 698 467 795 348 843L354 859C473 824 587 750 668 675 677 752 666 819 644 847 638 856 630 857 618 857 596 857 527 853 489 850L489 866C523 872 557 881 569 888 580 897 587 908 588 927 641 927 673 916 691 894 754 821 754 581 598 437 635 413 668 386 696 357 729 578 793 751 919 853 929 823 950 804 974 799L976 789C896 743 832 661 786 562 837 534 891 497 920 475 940 482 956 477 961 469ZM289 347L277 352C290 374 305 402 317 430L169 441C239 358 313 256 358 183 379 187 393 180 399 169L305 127C263 219 195 347 138 444L42 449 73 523C83 521 91 515 97 502L201 481 201 928 211 928C242 928 263 912 263 907L263 467 326 452C334 475 339 497 341 517 398 570 460 445 289 347ZM48 175L37 183C75 215 117 270 128 315 175 348 214 279 143 221 180 177 221 118 254 66 274 67 287 59 291 47L193 11C171 77 144 152 121 206 102 194 78 184 48 175Z"/>
</svg>