<svg xmlns="http://www.w3.org/2000/svg" name="gid10249" data-unicode="縅"
    viewBox="0 0 1000 1000">
  <!--
© 2017-2024 Adobe (http://www.adobe.com/).
Noto is a trademark of Google Inc.
This Font Software is licensed under the SIL Open Font License, Version 1.1. This Font Software is distributed on an "AS IS" BASIS, WITHOUT WARRANTIES OR CONDITIONS OF ANY KIND, either express or implied. See the SIL Open Font License for the specific language, permissions and limitations governing your use of this Font Software.
http://scripts.sil.org/OFL
  -->
<path d="M461 341L469 370 671 370C685 370 694 365 696 354 672 329 631 295 631 295L596 341ZM272 606L258 611C278 655 298 724 296 777 347 831 411 715 272 606ZM72 612C67 699 54 797 36 866L53 873C86 815 111 729 127 652 149 650 158 641 161 629ZM864 350C852 448 831 537 802 616 776 505 766 377 764 247L933 247C947 247 956 243 959 232 941 215 916 194 900 181 945 186 957 93 804 74L794 84C827 103 865 137 881 169L841 218 763 218 764 84C788 81 797 69 799 56L699 45C699 104 700 162 701 218L445 218 373 186 373 473C373 633 370 806 298 943L313 954C414 834 430 669 433 528L435 536 508 536C491 611 468 691 451 735 474 741 494 741 505 733L515 697C536 708 557 722 576 736 548 799 506 853 444 897L452 913C525 874 575 823 610 765 627 782 642 800 650 817 698 837 716 769 635 717 659 662 673 603 683 541 703 540 712 537 719 528L653 471 619 507 566 507 581 435C607 433 616 423 620 410L536 398C532 425 525 464 515 507L433 507 433 472 433 247 702 247C708 417 725 573 765 703 720 793 663 867 596 926L610 939C678 894 737 835 785 761 803 809 825 852 851 891 880 935 935 974 963 949 973 940 969 921 947 878L964 721 952 719C940 758 925 804 915 827 906 848 901 849 891 829 863 791 841 745 824 694 868 609 900 509 921 393 944 392 955 383 958 369ZM592 695C572 687 549 680 522 675 534 631 547 581 558 536L625 536C619 592 609 645 592 695ZM257 389L244 395C257 416 271 443 282 471L146 477C207 394 274 292 315 216 337 217 349 208 353 196L261 171C225 260 167 385 117 478L41 479 69 555C79 553 89 548 94 535L164 521 164 959 174 959C205 959 226 943 226 938L226 508 290 493C297 515 301 536 302 555 355 605 415 487 257 389ZM46 204L36 212C67 242 103 294 109 336 155 371 197 301 122 243 156 200 192 143 222 92 243 93 253 85 258 73L165 41C147 105 122 177 102 229 87 220 68 211 46 204Z"/>
</svg>