<svg xmlns="http://www.w3.org/2000/svg"
    viewBox="0 0 1000 1000">
  <!--
© 2017-2023 Adobe (http://www.adobe.com/).
Noto is a trademark of Google Inc.
This Font Software is licensed under the SIL Open Font License, Version 1.1. This Font Software is distributed on an "AS IS" BASIS, WITHOUT WARRANTIES OR CONDITIONS OF ANY KIND, either express or implied. See the SIL Open Font License for the specific language, permissions and limitations governing your use of this Font Software.
http://scripts.sil.org/OFL
  -->
<path d="M461 311L469 340 671 340C685 340 694 335 696 324 672 299 631 265 631 265L596 311ZM272 576L258 581C278 625 298 694 296 747 347 801 411 685 272 576ZM72 582C67 669 54 767 36 836L53 843C86 785 111 699 127 622 149 620 158 611 161 599ZM864 320C852 418 831 507 802 586 776 475 766 347 764 217L933 217C947 217 956 213 959 202 941 185 916 164 900 151 945 156 957 63 804 44L794 54C827 73 865 107 881 139L841 188 763 188 764 54C788 51 797 39 799 26L699 15C699 74 700 132 701 188L445 188 373 156 373 443C373 603 370 776 298 913L313 924C414 804 430 639 433 498L435 506 508 506C491 581 468 661 451 705 474 711 494 711 505 703L515 667C536 678 557 692 576 706 548 769 506 823 444 867L452 883C525 844 575 793 610 735 627 752 642 770 650 787 698 807 716 739 635 687 659 632 673 573 683 511 703 510 712 507 719 498L653 441 619 477 566 477 581 405C607 403 616 393 620 380L536 368C532 395 525 434 515 477L433 477 433 442 433 217 702 217C708 387 725 543 765 673 720 763 663 837 596 896L610 909C678 864 737 805 785 731 803 779 825 822 851 861 880 905 935 944 963 919 973 910 969 891 947 848L964 691 952 689C940 728 925 774 915 797 906 818 901 819 891 799 863 761 841 715 824 664 868 579 900 479 921 363 944 362 955 353 958 339ZM592 665C572 657 549 650 522 645 534 601 547 551 558 506L625 506C619 562 609 615 592 665ZM257 359L244 365C257 386 271 413 282 441L146 447C207 364 274 262 315 186 337 187 349 178 353 166L261 141C225 230 167 355 117 448L41 449 69 525C79 523 89 518 94 505L164 491 164 929 174 929C205 929 226 913 226 908L226 478 290 463C297 485 301 506 302 525 355 575 415 457 257 359ZM46 174L36 182C67 212 103 264 109 306 155 341 197 271 122 213 156 170 192 113 222 62 243 63 253 55 258 43L165 11C147 75 122 147 102 199 87 190 68 181 46 174Z"/>
</svg>