<svg xmlns="http://www.w3.org/2000/svg"
    viewBox="0 0 1000 1000">
  <!--
© 2017-2023 Adobe (http://www.adobe.com/).
Noto is a trademark of Google Inc.
This Font Software is licensed under the SIL Open Font License, Version 1.1. This Font Software is distributed on an "AS IS" BASIS, WITHOUT WARRANTIES OR CONDITIONS OF ANY KIND, either express or implied. See the SIL Open Font License for the specific language, permissions and limitations governing your use of this Font Software.
http://scripts.sil.org/OFL
  -->
<path d="M403 39L392 46C425 81 466 140 476 185 537 227 585 103 403 39ZM377 251L367 259C402 291 446 348 458 392 522 433 569 303 377 251ZM269 572L256 577C279 626 303 700 302 757 356 813 421 689 269 572ZM74 574C69 666 53 763 30 834L46 842C86 784 113 697 130 615 152 613 161 603 165 591ZM837 167L837 348 652 348 652 167ZM716 11L695 138 656 138 591 107 591 801 602 801C630 801 652 785 652 778L652 727 851 727 851 777 861 777C881 777 912 762 913 756L913 523C930 520 945 512 951 505L876 448 842 484 652 484 652 378 837 378 837 420 846 420C866 420 898 406 899 400L899 174C913 171 927 164 932 157L861 104 828 138 721 138C740 112 764 77 778 51 799 50 812 41 815 27ZM652 514L851 514 851 697 652 697ZM505 749L505 549C532 545 547 538 553 530L470 461 433 510 366 510 371 540 447 540 447 776C408 804 368 833 341 848L387 923C394 917 398 911 396 900 424 869 466 813 495 770 537 879 594 903 714 903 785 903 864 903 930 903 932 874 945 854 969 850L969 837C892 839 793 839 714 839 605 839 553 826 505 749ZM261 345L248 350C262 374 277 405 287 437L143 446C208 365 276 266 317 195 339 198 353 191 358 179L266 141C228 231 166 355 113 447L41 450 71 525C81 523 89 518 95 505L168 489 168 929 178 929C208 929 230 913 230 908L230 475 294 459C300 479 304 500 304 518 358 570 419 450 261 345ZM46 174L36 182C68 212 104 264 111 306 156 340 197 271 126 214 161 172 202 116 234 65 254 67 267 59 271 48L178 11C156 76 128 148 106 201 90 191 70 182 46 174Z"/>
</svg>