<svg xmlns="http://www.w3.org/2000/svg"
    viewBox="0 0 1000 1000">
  <!--
© 2017-2023 Adobe (http://www.adobe.com/).
Noto is a trademark of Google Inc.
This Font Software is licensed under the SIL Open Font License, Version 1.1. This Font Software is distributed on an "AS IS" BASIS, WITHOUT WARRANTIES OR CONDITIONS OF ANY KIND, either express or implied. See the SIL Open Font License for the specific language, permissions and limitations governing your use of this Font Software.
http://scripts.sil.org/OFL
  -->
<path d="M285 575L272 580C294 627 317 701 317 757 371 813 436 690 285 575ZM90 581C80 672 59 769 34 837L50 846C91 788 123 704 145 622 165 621 175 612 178 600ZM269 349L256 354C271 378 287 409 299 440L145 448C216 362 293 254 339 179 360 182 374 175 379 165L286 123C243 218 174 351 117 449L35 451 63 527C73 525 82 519 88 506L182 487 182 929 191 929C222 929 244 913 244 908L244 475 306 461C313 481 318 502 319 520 349 548 381 525 377 482L516 482 516 578 375 578 384 607 496 607C458 706 395 797 310 866L321 882C403 832 468 770 516 697L516 926 528 926C550 926 575 911 575 902L575 607 672 607 672 927 684 927C706 927 732 911 732 903L732 641C772 749 833 831 910 882 919 850 938 831 964 826L966 816C878 779 791 702 743 607L821 607 821 639 830 639C849 639 879 624 880 618L880 482 954 482C967 482 976 477 979 466 956 438 915 399 915 399L880 452 880 370C898 366 913 358 920 351L845 294 812 331 732 331 732 245 938 245C952 245 961 240 963 229 932 199 882 159 882 159L837 216 732 216 732 155C756 151 763 141 765 128L730 124C785 110 837 94 873 80 895 87 911 87 919 77L845 21C799 54 703 102 627 128L633 145 672 138 672 216 575 216 575 154C599 150 606 140 609 127L533 118C577 104 618 89 648 77 671 84 687 83 694 73L619 20C568 57 464 111 379 140L386 155C428 148 473 136 516 123L516 216 365 216 373 245 516 245 516 331 380 331 389 360 516 360 516 452 370 452C357 420 326 384 269 349ZM575 360L672 360 672 452 575 452ZM575 331L575 245 672 245 672 331ZM575 578L575 482 672 482 672 578ZM732 360L821 360 821 452 732 452ZM732 578L732 482 821 482 821 578ZM47 174L37 182C71 212 110 264 119 306 165 339 205 271 134 215 170 173 210 118 243 67 263 69 275 60 279 49L181 13C161 77 135 148 113 201 95 191 74 182 47 174Z"/>
</svg>