<svg xmlns="http://www.w3.org/2000/svg"
    viewBox="0 0 1000 1000">
  <!--
© 2017-2023 Adobe (http://www.adobe.com/).
Noto is a trademark of Google Inc.
This Font Software is licensed under the SIL Open Font License, Version 1.1. This Font Software is distributed on an "AS IS" BASIS, WITHOUT WARRANTIES OR CONDITIONS OF ANY KIND, either express or implied. See the SIL Open Font License for the specific language, permissions and limitations governing your use of this Font Software.
http://scripts.sil.org/OFL
  -->
<path d="M302 551L289 556C309 598 331 663 332 713 384 765 449 651 302 551ZM95 579C85 671 63 769 37 839L53 847C95 789 128 703 150 620 171 619 180 610 184 598ZM290 349L278 354C292 378 308 407 320 438L163 445C233 362 308 256 352 183 373 186 387 179 392 168L299 126C258 220 191 350 134 447L37 449 66 525C76 523 85 517 91 504L198 485 198 928 207 928C238 928 259 913 259 907L259 473 327 459C335 480 340 501 341 520 397 571 457 449 290 349ZM47 173L37 182C73 213 115 269 125 313 171 347 210 279 141 220 178 176 218 118 252 65 272 66 285 58 289 47L191 11C169 77 143 152 121 206 102 194 78 182 47 173ZM614 22L614 143 391 143 399 172 926 172C940 172 949 167 952 156 919 126 868 84 868 84L822 143 679 143 679 59C703 56 712 46 714 32ZM867 554C840 585 795 631 754 668 727 627 704 581 687 532L786 532 786 563 796 563C825 563 848 548 848 544L848 405 948 405C962 405 970 400 973 389 946 361 900 323 900 323L860 375 848 375 848 286C869 283 878 277 885 270L815 215 783 253 528 253 456 221 456 375 371 375 379 405 456 405 456 575 465 575C497 575 516 561 516 556L516 532 584 532C526 614 439 692 341 746L351 762C410 738 465 709 515 676L515 829C467 841 428 850 403 855L445 932C453 929 462 920 465 908 586 857 678 814 742 784L739 769 578 812 578 628C612 600 641 569 666 535 709 715 786 845 908 920 917 887 939 866 965 861L967 850C891 819 823 762 770 690 821 664 882 633 917 612 932 617 945 616 950 609ZM516 405L786 405 786 502 516 502ZM516 375L516 282 786 282 786 375Z"/>
</svg>