<svg xmlns="http://www.w3.org/2000/svg"
    viewBox="0 0 1000 1000">
  <!--
© 2017-2024 Adobe (http://www.adobe.com/).
Noto is a trademark of Google Inc.
This Font Software is licensed under the SIL Open Font License, Version 1.1. This Font Software is distributed on an "AS IS" BASIS, WITHOUT WARRANTIES OR CONDITIONS OF ANY KIND, either express or implied. See the SIL Open Font License for the specific language, permissions and limitations governing your use of this Font Software.
http://scripts.sil.org/OFL
  -->
<path d="M368 699L356 707C388 744 425 805 429 853 488 901 546 777 368 699ZM145 709C120 781 84 851 48 894L63 905C110 872 159 819 194 760 214 763 226 755 231 745ZM108 250C109 291 84 337 57 354 40 366 29 386 37 403 48 422 79 418 97 404 115 388 131 357 133 313L443 313C438 340 432 371 427 391L441 398C463 379 493 346 508 323 527 322 538 320 546 313L475 244 437 283 131 283C130 273 128 262 125 250ZM250 13L250 101 48 101 56 131 250 131 250 201 88 201 96 230 487 230C501 230 509 225 512 215 482 186 434 148 434 148L392 201 313 201 313 131 517 131C531 131 540 126 543 115 512 85 463 48 463 48L420 101 313 101 313 50C338 47 348 37 349 23ZM92 465L83 475C127 501 183 551 202 591 246 615 274 555 205 507 230 487 256 463 279 439 299 442 312 435 316 424L272 403 397 403C411 403 421 398 424 387 397 361 355 328 355 328L319 373 148 373 156 403 226 403C211 436 195 468 181 493 159 482 129 472 92 465ZM352 439C318 495 264 567 215 621 143 624 83 626 46 626L77 704C87 702 96 696 102 685L246 663 246 929 256 929C289 929 309 914 310 910L310 652 443 631C454 650 462 670 465 689 526 736 577 601 378 532L368 540C389 559 413 585 431 612L254 620C306 580 359 531 394 490 415 494 429 488 435 477ZM813 484C793 559 762 630 720 692 672 634 635 564 612 484ZM530 455L539 484 590 484C611 581 645 663 690 732 632 805 554 866 455 912L464 927C573 889 656 837 720 773 772 838 837 888 916 927 927 898 948 880 975 878L977 868C891 838 817 793 757 733 816 663 857 581 885 492 906 491 917 488 924 480L853 414 811 455ZM582 72L582 153C582 237 577 333 513 415L525 427C632 350 642 232 642 153L642 101 762 101 762 314C762 352 770 367 820 367L861 367C937 367 960 355 960 331 960 319 956 312 938 305L935 221 923 221C915 257 906 294 900 304 898 311 894 311 890 312 885 312 876 312 865 312L836 312C824 312 822 309 822 299L822 110C839 107 849 102 855 95L787 36 754 72 652 72 582 40Z"/>
</svg>