<svg xmlns="http://www.w3.org/2000/svg" name="gid10264" data-unicode="縠"
    viewBox="0 0 1000 1000">
  <!--
© 2017-2024 Adobe (http://www.adobe.com/).
Noto is a trademark of Google Inc.
This Font Software is licensed under the SIL Open Font License, Version 1.1. This Font Software is distributed on an "AS IS" BASIS, WITHOUT WARRANTIES OR CONDITIONS OF ANY KIND, either express or implied. See the SIL Open Font License for the specific language, permissions and limitations governing your use of this Font Software.
http://scripts.sil.org/OFL
  -->
<path d="M368 729L356 737C388 774 425 835 429 883 488 931 546 807 368 729ZM145 739C120 811 84 881 48 924L63 935C110 902 159 849 194 790 214 793 226 785 231 775ZM108 280C109 321 84 367 57 384 40 396 29 416 37 433 48 452 79 448 97 434 115 418 131 387 133 343L443 343C438 370 432 401 427 421L441 428C463 409 493 376 508 353 527 352 538 350 546 343L475 274 437 313 131 313C130 303 128 292 125 280ZM250 43L250 131 48 131 56 161 250 161 250 231 88 231 96 260 487 260C501 260 509 255 512 245 482 216 434 178 434 178L392 231 313 231 313 161 517 161C531 161 540 156 543 145 512 115 463 78 463 78L420 131 313 131 313 80C338 77 348 67 349 53ZM92 495L83 505C127 531 183 581 202 621 246 645 274 585 205 537 230 517 256 493 279 469 299 472 312 465 316 454L272 433 397 433C411 433 421 428 424 417 397 391 355 358 355 358L319 403 148 403 156 433 226 433C211 466 195 498 181 523 159 512 129 502 92 495ZM352 469C318 525 264 597 215 651 143 654 83 656 46 656L77 734C87 732 96 726 102 715L246 693 246 959 256 959C289 959 309 944 310 940L310 682 443 661C454 680 462 700 465 719 526 766 577 631 378 562L368 570C389 589 413 615 431 642L254 650C306 610 359 561 394 520 415 524 429 518 435 507ZM813 514C793 589 762 660 720 722 672 664 635 594 612 514ZM530 485L539 514 590 514C611 611 645 693 690 762 632 835 554 896 455 942L464 957C573 919 656 867 720 803 772 868 837 918 916 957 927 928 948 910 975 908L977 898C891 868 817 823 757 763 816 693 857 611 885 522 906 521 917 518 924 510L853 444 811 485ZM582 102L582 183C582 267 577 363 513 445L525 457C632 380 642 262 642 183L642 131 762 131 762 344C762 382 770 397 820 397L861 397C937 397 960 385 960 361 960 349 956 342 938 335L935 251 923 251C915 287 906 324 900 334 898 341 894 341 890 342 885 342 876 342 865 342L836 342C824 342 822 339 822 329L822 140C839 137 849 132 855 125L787 66 754 102 652 102 582 70Z"/>
</svg>