<svg xmlns="http://www.w3.org/2000/svg"
    viewBox="0 0 1000 1000">
  <!--
© 2017-2024 Adobe (http://www.adobe.com/).
Noto is a trademark of Google Inc.
This Font Software is licensed under the SIL Open Font License, Version 1.1. This Font Software is distributed on an "AS IS" BASIS, WITHOUT WARRANTIES OR CONDITIONS OF ANY KIND, either express or implied. See the SIL Open Font License for the specific language, permissions and limitations governing your use of this Font Software.
http://scripts.sil.org/OFL
  -->
<path d="M265 574L251 579C273 627 295 701 293 759 345 814 410 692 265 574ZM72 582C67 669 54 767 36 836L53 843C86 785 111 699 127 622 149 620 158 611 161 599ZM500 178L500 745 510 745C530 745 554 732 554 724L554 212C576 209 584 201 587 188ZM441 13C413 155 359 300 302 399 288 385 270 371 248 358L237 364C251 386 266 414 279 444L143 449C205 368 270 266 310 194 331 197 345 189 350 178L261 142C225 233 165 358 114 450L33 452 58 528C68 526 77 520 83 507L164 490 164 929 174 929C205 929 226 913 226 908L226 477 287 464C294 484 299 505 300 523 343 560 386 493 318 415 341 387 363 356 384 321L384 928 395 928C416 928 441 913 442 907L442 277C458 274 468 267 472 259L427 241C455 184 479 122 499 59 520 59 531 50 535 39ZM46 174L36 182C67 212 103 264 109 306 154 340 195 274 127 217 161 174 197 116 229 64 248 65 260 57 265 46L172 14C152 77 128 151 108 203 92 192 71 182 46 174ZM564 580L572 610 685 610C648 704 587 789 503 852L513 869C601 820 668 759 717 684L717 927 728 927C751 927 776 913 776 905L776 627C808 730 860 812 921 864 929 836 947 820 970 816L972 806C904 769 835 697 794 610L937 610C951 610 962 605 964 594 932 563 882 524 882 524L837 580 776 580 776 487C802 483 811 474 813 460L717 449 717 580ZM685 14C663 115 624 209 577 270L591 281C616 261 640 236 661 207 679 258 703 301 733 339 691 386 637 426 570 459L577 474C650 447 712 413 762 370 804 412 857 445 920 470 927 443 944 425 968 421L969 410C904 394 846 369 798 335 841 289 873 234 894 169L937 169C951 169 961 164 963 153 931 125 880 85 880 85L834 141 703 141C717 116 730 88 740 60 761 61 772 52 776 41ZM676 187L687 169 825 169C811 219 790 264 760 305 724 272 695 233 676 187Z"/>
</svg>