<svg xmlns="http://www.w3.org/2000/svg" name="gid10276" data-unicode="縱"
    viewBox="0 0 1000 1000">
  <!--
© 2017-2024 Adobe (http://www.adobe.com/).
Noto is a trademark of Google Inc.
This Font Software is licensed under the SIL Open Font License, Version 1.1. This Font Software is distributed on an "AS IS" BASIS, WITHOUT WARRANTIES OR CONDITIONS OF ANY KIND, either express or implied. See the SIL Open Font License for the specific language, permissions and limitations governing your use of this Font Software.
http://scripts.sil.org/OFL
  -->
<path d="M467 49C432 155 378 261 329 326L344 337C410 281 475 195 524 103 544 104 557 96 562 86ZM272 608L258 613C279 661 300 736 299 793 352 848 416 726 272 608ZM72 612C67 699 54 797 36 866L53 873C86 815 111 729 127 652 149 650 158 641 161 629ZM805 49C800 132 785 229 749 310 748 284 726 247 662 220 677 176 688 132 696 94 721 93 729 87 733 75L631 49C624 160 598 318 535 421L547 434C596 381 630 313 654 245 674 272 692 308 695 336 709 348 724 349 733 342 720 367 704 390 685 410L694 424C757 379 799 315 828 247 860 289 893 344 903 387 960 432 1010 314 837 224 854 179 865 133 874 90 900 89 907 81 909 70ZM722 419L722 847C685 821 656 776 635 702 643 644 644 589 646 542 667 539 676 529 677 517L587 508C586 641 587 816 509 947L525 962C582 900 611 824 627 749 666 899 737 943 846 943 869 943 917 943 938 943 939 916 949 896 968 893L968 879C936 880 879 880 851 880 826 880 803 878 782 873L782 639 932 639C945 639 955 634 958 623 929 593 883 553 883 553L842 609 782 609 782 458C808 454 817 444 819 430ZM477 250C442 383 385 523 330 613L346 622C375 591 402 554 428 513L428 956 440 956C465 956 488 937 489 931L489 451C505 447 514 441 518 432L481 418C500 380 518 340 533 299 555 300 567 291 571 279ZM254 378L241 383C256 407 272 438 283 470L147 477C207 394 272 293 311 221 333 223 346 215 351 203L261 171C225 260 167 385 117 478L34 479 62 555C71 553 81 548 86 535L164 519 164 959 174 959C205 959 226 943 226 938L226 506 290 491C295 509 298 527 299 543 353 593 412 475 254 378ZM46 204L36 212C67 242 103 294 109 336 155 371 197 301 122 243 156 200 192 143 222 92 243 93 253 85 258 73L165 41C147 105 122 177 102 229 87 220 68 211 46 204Z"/>
</svg>