<svg xmlns="http://www.w3.org/2000/svg" name="gid10303" data-unicode="繖"
    viewBox="0 0 1000 1000">
  <!--
© 2017-2024 Adobe (http://www.adobe.com/).
Noto is a trademark of Google Inc.
This Font Software is licensed under the SIL Open Font License, Version 1.1. This Font Software is distributed on an "AS IS" BASIS, WITHOUT WARRANTIES OR CONDITIONS OF ANY KIND, either express or implied. See the SIL Open Font License for the specific language, permissions and limitations governing your use of this Font Software.
http://scripts.sil.org/OFL
  -->
<path d="M272 608L258 613C279 661 300 736 299 793 352 848 416 726 272 608ZM72 612C67 699 54 797 36 866L53 873C86 815 111 729 127 652 149 650 158 641 161 629ZM254 384L241 390C254 412 268 441 279 471L147 477C208 395 272 293 312 220 323 221 331 220 338 216L339 221 404 221 404 367 317 367 325 396 665 396C657 422 648 448 639 471L590 435 560 471 443 471 378 441 378 958 388 958C414 958 438 943 438 936L438 746 569 746 569 864C569 875 566 881 554 881 541 881 490 876 490 876L490 893C516 896 530 902 539 912 548 921 550 937 552 954 621 947 629 919 629 870L629 508C645 506 660 498 666 491L656 483C675 454 693 421 709 384 719 500 736 609 766 705 734 792 687 873 622 946L634 957C701 901 752 839 790 770 819 842 859 906 911 957 921 927 944 913 972 908L975 899C908 850 858 784 820 707 873 585 893 446 903 290L942 290C956 290 965 285 967 274 939 244 892 205 892 205L851 261 752 261C768 205 780 146 790 85 812 83 822 73 825 60L726 44C719 152 702 260 677 354L640 321 607 367 598 367 598 221 671 221C685 221 694 216 696 205 674 180 635 146 635 146L601 191 598 191 598 83C619 79 628 71 630 58L540 49 540 191 461 191 461 81C482 77 491 69 492 56L404 47 404 191 331 191 332 196 261 171C225 260 167 385 117 478L41 479 69 555C79 553 89 548 94 535L164 521 164 959 174 959C205 959 226 943 226 938L226 508 287 494C292 513 296 533 297 550 349 600 409 483 254 384ZM461 221L540 221 540 367 461 367ZM438 621L569 621 569 716 438 716ZM438 592L438 500 569 500 569 592ZM725 343L743 290 836 290C832 413 819 528 790 634 758 546 738 448 725 343ZM46 204L36 212C67 242 103 294 109 336 155 371 197 301 122 243 156 200 192 143 222 92 243 93 253 85 258 73L165 41C147 105 122 177 102 229 87 220 68 211 46 204Z"/>
</svg>