<svg xmlns="http://www.w3.org/2000/svg"
    viewBox="0 0 1000 1000">
  <!--
© 2017-2024 Adobe (http://www.adobe.com/).
Noto is a trademark of Google Inc.
This Font Software is licensed under the SIL Open Font License, Version 1.1. This Font Software is distributed on an "AS IS" BASIS, WITHOUT WARRANTIES OR CONDITIONS OF ANY KIND, either express or implied. See the SIL Open Font License for the specific language, permissions and limitations governing your use of this Font Software.
http://scripts.sil.org/OFL
  -->
<path d="M457 137L446 143C473 176 503 230 508 273 564 320 622 203 457 137ZM802 125C782 181 758 240 738 277L753 287C787 259 825 218 857 179 877 182 890 173 894 163ZM306 579L293 584C316 631 342 705 343 761 396 815 460 693 306 579ZM97 579C87 671 65 769 39 839L56 847C97 789 130 703 153 620 173 619 182 610 186 598ZM433 550L433 928 442 928C475 928 495 913 495 908L495 870 832 870 832 917 842 917C872 917 896 902 896 897L896 583C916 580 927 575 933 566L861 511 828 550 507 550 451 526C522 478 582 420 627 354L627 531 637 531C668 531 690 515 690 509L690 325 697 325C751 427 839 507 932 553 940 524 958 506 984 502L985 491C893 463 787 402 724 325L941 325C954 325 964 320 966 309 936 281 886 242 886 242L843 295 690 295 690 102C754 95 813 86 861 77 883 87 900 87 909 80L843 15C745 48 556 89 404 105L408 123C479 122 555 116 627 109L627 295 357 295 365 325 571 325C520 417 441 502 346 565L357 581C383 568 409 553 433 538ZM495 840L495 718 631 718 631 840ZM832 840L691 840 691 718 832 718ZM495 688L495 579 631 579 631 688ZM832 688L691 688 691 579 832 579ZM289 351L277 357C292 379 310 408 324 438L160 446C231 362 308 256 355 181 375 183 389 176 395 165L299 127C257 221 188 351 130 447L42 449 71 525C81 523 90 518 96 505L200 486 200 928 209 928C239 928 261 913 261 907L261 474 334 459C343 480 349 501 352 520 408 569 465 447 289 351ZM47 173L37 182C73 213 115 267 124 312 170 345 210 278 140 220 177 176 218 118 250 65 271 66 283 58 288 47L189 11C168 77 142 151 119 204 101 193 77 182 47 173Z"/>
</svg>