<svg xmlns="http://www.w3.org/2000/svg"
    viewBox="0 0 1000 1000">
  <!--
© 2017-2024 Adobe (http://www.adobe.com/).
Noto is a trademark of Google Inc.
This Font Software is licensed under the SIL Open Font License, Version 1.1. This Font Software is distributed on an "AS IS" BASIS, WITHOUT WARRANTIES OR CONDITIONS OF ANY KIND, either express or implied. See the SIL Open Font License for the specific language, permissions and limitations governing your use of this Font Software.
http://scripts.sil.org/OFL
  -->
<path d="M270 571L255 576C277 624 299 699 297 756 349 811 414 689 270 571ZM72 582C67 669 54 767 36 836L53 843C86 785 111 699 127 622 149 620 158 611 161 599ZM554 110L554 203 437 203 437 110ZM375 81L375 929 386 929C416 929 437 913 437 904L437 352 554 352 554 400 562 400C581 400 611 386 612 379L612 114C625 111 636 105 641 99L577 48 546 81 441 81 375 48ZM437 232L554 232 554 323 437 323ZM856 110L856 203 735 203 735 110ZM676 81L676 397 685 397C709 397 735 383 735 377L735 352 856 352 856 835C856 849 852 854 838 854 823 854 761 849 761 849L761 864C792 869 808 875 819 885 827 893 831 910 832 928 909 920 919 891 919 841L919 114C933 112 945 105 950 100L878 45 849 81 739 81 676 51ZM735 323L735 232 856 232 856 323ZM700 599L700 679 578 679C581 651 581 624 581 599ZM700 569L581 569 581 488 700 488ZM527 459L527 597C527 689 527 788 480 869L493 881C544 833 565 770 574 709L700 709 700 787C700 799 697 804 684 804 671 804 618 799 618 799L618 815C644 818 659 825 668 833 677 841 680 856 681 871 748 864 757 839 757 793L757 492C770 489 781 483 786 477L719 428 693 459 592 459 527 428ZM256 349L243 355C257 379 272 409 283 441L145 447C206 365 271 264 311 192 332 195 346 187 351 176L261 141C224 230 166 355 115 448L41 449 69 525C79 523 89 518 94 505L164 491 164 929 174 929C205 929 226 913 226 908L226 478 290 463C296 483 300 503 301 521 354 570 414 452 256 349ZM47 174L37 182C68 212 104 264 111 306 156 341 198 271 123 213 157 170 193 113 223 62 244 63 255 55 259 43L166 11C148 75 123 147 103 199 88 190 69 181 47 174Z"/>
</svg>