<svg xmlns="http://www.w3.org/2000/svg"
    viewBox="0 0 1000 1000">
  <!--
© 2017-2024 Adobe (http://www.adobe.com/).
Noto is a trademark of Google Inc.
This Font Software is licensed under the SIL Open Font License, Version 1.1. This Font Software is distributed on an "AS IS" BASIS, WITHOUT WARRANTIES OR CONDITIONS OF ANY KIND, either express or implied. See the SIL Open Font License for the specific language, permissions and limitations governing your use of this Font Software.
http://scripts.sil.org/OFL
  -->
<path d="M511 363L499 369C518 398 540 444 541 482 584 522 638 430 511 363ZM668 65C723 162 820 243 930 294 936 267 951 240 977 231L978 218C859 189 749 127 682 55 706 52 714 48 717 37L615 11C569 107 456 229 342 295L348 307C481 254 605 154 668 65ZM506 233L514 262 781 262C795 262 804 257 807 246 780 221 740 189 740 189L705 233ZM306 577L293 582C316 629 342 703 343 759 396 813 460 691 306 577ZM97 579C87 671 65 769 39 839L56 847C97 789 130 703 153 620 173 619 182 610 186 598ZM759 360C752 394 731 457 715 497L727 502C757 469 786 430 804 405 824 406 834 395 836 386ZM625 509L472 509 472 351 625 351ZM682 509L682 351 841 351 841 509ZM412 322L412 581 421 581C446 581 472 567 472 562L472 538 841 538 841 572 850 572C870 572 901 558 902 551L902 359C918 356 933 349 939 342L865 286 832 322 477 322 412 292ZM517 756L798 756 798 846 517 846ZM517 727L517 642 798 642 798 727ZM453 613L453 926 463 926C490 926 517 911 517 905L517 875 798 875 798 920 808 920C829 920 862 905 863 899L863 651C880 648 895 640 901 633L823 575 789 613 522 613 453 582ZM289 354L277 359C290 381 305 409 317 438L163 446C234 362 312 256 358 180 380 183 393 175 398 163L302 127C260 221 191 350 134 447L42 449 71 525C81 523 90 518 96 505L200 486 200 928 209 928C239 928 261 913 261 907L261 474 326 461C333 483 339 505 340 525 396 576 456 454 289 354ZM49 173L38 182C75 214 117 269 126 314 173 348 213 279 142 220 179 176 219 118 252 65 273 66 285 58 290 47L191 11C170 77 144 151 121 205 103 193 79 182 49 173Z"/>
</svg>