<svg xmlns="http://www.w3.org/2000/svg"
    viewBox="0 0 1000 1000">
  <!--
© 2017-2023 Adobe (http://www.adobe.com/).
Noto is a trademark of Google Inc.
This Font Software is licensed under the SIL Open Font License, Version 1.1. This Font Software is distributed on an "AS IS" BASIS, WITHOUT WARRANTIES OR CONDITIONS OF ANY KIND, either express or implied. See the SIL Open Font License for the specific language, permissions and limitations governing your use of this Font Software.
http://scripts.sil.org/OFL
  -->
<path d="M291 754C237 802 132 865 43 900L53 915C153 891 266 847 326 808 347 815 356 813 364 804ZM634 758L630 775C748 813 839 874 878 914 947 938 963 793 634 758ZM172 543L165 555C224 577 302 622 337 662 379 674 395 630 348 592 388 569 431 544 456 526 472 531 483 530 489 521L449 497C458 494 464 489 464 486L464 424C488 421 498 413 500 399L405 390 405 461 308 461 308 379 515 379C528 379 538 374 540 363 511 338 467 305 467 305L428 350 308 350 308 303 408 303 408 323 416 323C435 323 465 310 466 303L466 176C478 173 490 167 494 161L430 113 401 144 308 144 308 109 488 109C501 109 510 104 513 93 486 67 441 31 441 31L404 80 308 80 308 46C329 43 337 34 339 20L247 11 247 80 52 80 60 109 247 109 247 144 154 144 93 116 93 332 101 332C123 332 149 319 149 314L149 303 247 303 247 350 43 350 51 379 247 379 247 461 149 461 149 424C174 421 183 413 185 399L91 390 91 529 102 529C124 529 149 516 149 510L149 490 403 490C381 516 351 548 324 575 291 558 242 545 172 543ZM149 237L247 237 247 274 149 274ZM149 209L149 173 247 173 247 209ZM408 173L408 209 308 209 308 173ZM408 237L408 274 308 274 308 237ZM582 54L582 88C582 141 572 199 494 250L504 265C627 218 640 140 640 88L640 84 752 84 752 168C752 204 758 218 807 218L851 218C928 218 950 211 950 187 950 176 946 170 928 164L925 104 913 104C907 131 899 156 893 164 891 170 888 170 882 170 878 171 867 170 855 170L825 170C812 170 810 169 810 160L810 91C825 89 835 85 841 79L776 20 743 54 651 54 582 22ZM526 266L535 295 583 295C605 344 634 386 671 421 619 456 558 484 491 505L500 521C577 504 645 480 702 448 757 492 827 523 909 546 915 519 932 502 956 498L957 487C878 474 806 452 747 420 796 387 835 346 865 300 888 299 899 296 906 288L841 230 802 266ZM608 295L796 295C773 332 742 366 705 395 665 368 632 335 608 295ZM608 509C556 559 459 631 377 682 244 683 135 683 66 682L107 758C115 757 126 750 132 738L463 723 463 927 473 927C506 927 528 914 528 910L528 719C646 713 745 707 828 700 849 720 867 739 878 758 951 787 963 642 699 596L690 607C725 624 765 650 801 678L429 682C510 643 595 596 645 560 667 567 675 564 683 555Z"/>
</svg>