<svg xmlns="http://www.w3.org/2000/svg"
    viewBox="0 0 1000 1000">
  <!--
© 2017-2024 Adobe (http://www.adobe.com/).
Noto is a trademark of Google Inc.
This Font Software is licensed under the SIL Open Font License, Version 1.1. This Font Software is distributed on an "AS IS" BASIS, WITHOUT WARRANTIES OR CONDITIONS OF ANY KIND, either express or implied. See the SIL Open Font License for the specific language, permissions and limitations governing your use of this Font Software.
http://scripts.sil.org/OFL
  -->
<path d="M624 555L609 559C617 586 621 629 614 662 650 707 717 633 624 555ZM725 553L712 559C728 586 746 630 747 664 789 705 846 617 725 553ZM825 548L814 556C847 585 887 635 896 676 951 714 994 600 825 548ZM269 574L255 579C276 627 298 702 296 759 349 814 413 692 269 574ZM72 582C67 669 54 767 36 836L53 843C86 785 111 699 127 622 149 620 158 611 161 599ZM535 555C535 588 510 622 484 634 467 644 457 660 464 677 473 694 502 692 519 681 546 664 569 620 553 555ZM430 876L437 905 946 905C959 905 968 900 970 889 942 861 893 822 893 822L851 876 730 876 730 777 900 777C913 777 923 772 925 761 897 734 851 698 851 698L812 748 730 748 730 704C746 701 753 693 754 683L667 674 667 748 483 748 491 777 667 777 667 876ZM384 81L384 424C384 600 381 780 304 918L320 927C441 790 445 591 445 424L445 110 935 110C949 110 959 105 961 94 929 65 880 27 880 27L835 81 456 81 384 49ZM834 194L834 251 728 251 728 194ZM470 507L478 536 935 536C948 536 957 531 960 520 933 496 892 465 892 465L858 507 728 507 728 451 888 451C901 451 909 446 912 435 888 412 850 383 850 383L818 421 728 421 728 360 834 360 834 384 843 384 850 383C868 381 892 370 893 364L893 198C906 195 917 189 922 183L857 134 827 165 572 165 510 136 510 401 518 401C542 401 567 388 567 383L567 360 668 360 668 421 505 421 512 451 668 451 668 507ZM567 280L668 280 668 332 567 332ZM567 251L567 194 668 194 668 251ZM834 280L834 332 728 332 728 280ZM257 358L244 364C258 385 274 412 286 441L153 447C211 364 275 262 313 190 335 192 348 183 352 172L261 142C227 231 172 355 123 448L37 449 66 525C75 523 85 518 90 505L164 491 164 929 174 929C205 929 226 913 226 908L226 478 294 462C302 484 307 505 309 525 364 573 421 455 257 358ZM46 174L36 182C67 212 103 264 109 306 155 341 197 271 122 213 156 170 192 113 222 62 243 63 253 55 258 43L165 11C147 75 122 147 102 199 87 190 68 181 46 174Z"/>
</svg>