<svg xmlns="http://www.w3.org/2000/svg"
    viewBox="0 0 1000 1000">
  <!--
© 2017-2024 Adobe (http://www.adobe.com/).
Noto is a trademark of Google Inc.
This Font Software is licensed under the SIL Open Font License, Version 1.1. This Font Software is distributed on an "AS IS" BASIS, WITHOUT WARRANTIES OR CONDITIONS OF ANY KIND, either express or implied. See the SIL Open Font License for the specific language, permissions and limitations governing your use of this Font Software.
http://scripts.sil.org/OFL
  -->
<path d="M780 748L770 757C798 774 828 806 839 832 894 865 934 764 780 748ZM99 580C86 674 60 773 30 839L45 849C91 792 128 707 153 622 174 622 184 613 187 601ZM299 576L285 581C308 630 335 706 338 764 376 803 419 747 375 665 403 651 430 634 456 615L456 770 466 770C495 770 515 754 515 749L515 728 612 728C566 814 482 869 337 912L341 928C518 894 625 836 681 730L681 861C681 902 691 916 754 916L830 916C949 916 973 906 973 880 973 870 968 863 949 857L946 776 934 776C926 811 917 845 911 855 907 862 903 864 895 864 886 864 861 864 833 864L768 864C743 864 740 862 740 851L740 728 850 728 850 756 860 756C880 756 911 742 912 736L912 620C926 617 939 611 945 604L874 551 842 585 718 585 781 540C800 539 812 538 819 531L760 475 825 475C934 475 958 466 958 441 958 429 953 424 933 418L929 367 919 367C912 390 904 411 897 419 894 422 891 424 884 424 875 424 853 424 829 424L770 424C747 424 745 421 745 410L745 375C798 370 858 359 892 351 902 357 912 358 917 352L870 300C886 296 902 289 903 285L903 191C918 187 931 180 937 173L866 120 833 154 705 154C728 139 754 120 770 108 789 108 801 106 808 99L743 37 707 73 564 73 584 47C609 50 617 46 621 36L529 8C491 87 417 188 350 245L362 258C389 241 417 221 444 198L444 307 454 307C460 307 467 306 472 305L472 426 395 431 428 502C437 499 445 493 450 482L531 461C492 529 429 603 367 650 352 626 330 601 299 576ZM574 450L673 422 671 406 531 420 531 367 648 367C661 367 671 362 673 351 652 330 621 302 621 302L593 339 531 339 531 279 688 279 688 422C688 458 696 473 744 475L716 503 578 503 596 481C621 484 629 480 633 470ZM540 102L702 102 672 154 515 154 499 147ZM841 279L841 303 851 303 865 301C836 317 787 340 745 356L745 279ZM841 250L504 250 504 183 841 183ZM551 533L713 533 687 585 527 585 506 576C522 562 537 547 551 533ZM850 614L850 699 695 699C706 673 714 645 719 614ZM650 614C644 645 636 673 626 699L515 699 515 614ZM47 171L37 179C74 211 116 267 126 313 172 346 211 279 140 219 178 175 219 118 252 65 273 66 286 58 290 48L195 11C172 77 144 151 120 204 101 192 77 180 47 171ZM280 336L267 342C284 368 303 402 317 437L154 447C227 359 306 249 353 172 373 175 387 168 393 158L300 119C256 215 185 348 125 449L35 452 63 527C73 525 82 520 88 507L194 485 194 928 203 928C234 928 255 913 255 907L255 472 324 457C331 478 336 499 338 518 393 569 451 444 280 336Z"/>
</svg>