<svg xmlns="http://www.w3.org/2000/svg" name="gid10361" data-unicode="缼"
    viewBox="0 0 1000 1000">
  <!--
© 2017-2024 Adobe (http://www.adobe.com/).
Noto is a trademark of Google Inc.
This Font Software is licensed under the SIL Open Font License, Version 1.1. This Font Software is distributed on an "AS IS" BASIS, WITHOUT WARRANTIES OR CONDITIONS OF ANY KIND, either express or implied. See the SIL Open Font License for the specific language, permissions and limitations governing your use of this Font Software.
http://scripts.sil.org/OFL
  -->
<path d="M560 43C552 177 525 309 485 415 455 385 408 348 408 348L364 404 292 404 292 223 445 223C459 223 469 218 471 207 440 178 390 137 390 137L346 194 168 194C181 162 193 129 203 95 225 94 236 85 239 73L140 48C122 168 85 285 38 364L54 373C92 334 126 282 155 223L229 223 229 404 39 404 47 433 229 433 229 785 137 785 137 545C159 542 167 533 169 521L80 511 80 920 91 920C112 920 137 907 137 900L137 815 378 815 378 877 391 877C412 877 437 866 437 859L437 544C456 541 463 533 465 521L378 511 378 785 292 785 292 433 461 433C470 433 477 431 481 426 473 447 464 466 455 485L471 494C519 436 558 361 587 275L661 275C657 510 645 754 410 943L425 960C636 822 697 643 718 451 740 681 792 860 909 958 915 927 933 902 962 891L963 881C809 779 747 567 730 275L850 275C841 335 824 415 809 468L822 476C861 424 902 344 925 288 944 287 956 285 963 277L886 203 843 246 596 246C611 196 624 142 633 86 655 84 665 75 668 61Z"/>
</svg>