<svg xmlns="http://www.w3.org/2000/svg"
    viewBox="0 0 1000 1000">
  <!--
© 2017-2024 Adobe (http://www.adobe.com/).
Noto is a trademark of Google Inc.
This Font Software is licensed under the SIL Open Font License, Version 1.1. This Font Software is distributed on an "AS IS" BASIS, WITHOUT WARRANTIES OR CONDITIONS OF ANY KIND, either express or implied. See the SIL Open Font License for the specific language, permissions and limitations governing your use of this Font Software.
http://scripts.sil.org/OFL
  -->
<path d="M605 528L599 543C743 609 845 701 883 760 964 803 1006 619 605 528ZM131 67L131 327 141 327C167 327 195 312 195 306L195 275 808 275 808 307 818 307C838 307 871 293 872 286L872 108C892 104 908 96 914 88L834 27 798 67 202 67 131 34ZM195 246L195 95 355 95 355 246ZM808 246L643 246 643 95 808 95ZM416 246L416 95 582 95 582 246ZM68 376L77 406 527 406C427 536 233 669 45 750L53 764C197 715 343 643 464 554L464 926 475 926C500 926 528 911 529 905L529 552C547 549 556 543 560 534L513 516C555 482 594 445 626 406L904 406C919 406 929 401 931 390 898 359 844 318 844 318L797 376Z"/>
</svg>