<svg xmlns="http://www.w3.org/2000/svg" name="gid10392" data-unicode="罩"
    viewBox="0 0 1000 1000">
  <!--
© 2017-2024 Adobe (http://www.adobe.com/).
Noto is a trademark of Google Inc.
This Font Software is licensed under the SIL Open Font License, Version 1.1. This Font Software is distributed on an "AS IS" BASIS, WITHOUT WARRANTIES OR CONDITIONS OF ANY KIND, either express or implied. See the SIL Open Font License for the specific language, permissions and limitations governing your use of this Font Software.
http://scripts.sil.org/OFL
  -->
<path d="M135 95L135 321 144 321C170 321 198 307 198 301L198 269 465 269 465 447 268 447 198 416 198 740 208 740C235 740 262 726 262 720L262 701 465 701 465 780 52 780 61 809 465 809 465 958 475 958C507 958 529 944 529 940L529 809 922 809C937 809 946 804 949 793 915 763 862 721 862 721L816 780 529 780 529 701 746 701 746 731 755 731C777 731 809 715 810 709L810 489C829 485 845 477 852 469L772 408 736 447 529 447 529 378 839 378C853 378 862 373 864 362 835 334 790 301 790 301L750 348 529 348 529 300C552 296 560 287 562 274L514 269 813 269 813 311 823 311C844 311 877 297 878 290L878 136C898 132 914 124 921 117L840 55 804 95 205 95 135 62ZM262 586L746 586 746 671 262 671ZM262 558L262 477 746 477 746 558ZM198 240L198 124 359 124 359 240ZM813 240L647 240 647 124 813 124ZM420 240L420 124 586 124 586 240Z"/>
</svg>