<svg xmlns="http://www.w3.org/2000/svg" name="gid10403" data-unicode="罹"
    viewBox="0 0 1000 1000">
  <!--
© 2017-2024 Adobe (http://www.adobe.com/).
Noto is a trademark of Google Inc.
This Font Software is licensed under the SIL Open Font License, Version 1.1. This Font Software is distributed on an "AS IS" BASIS, WITHOUT WARRANTIES OR CONDITIONS OF ANY KIND, either express or implied. See the SIL Open Font License for the specific language, permissions and limitations governing your use of this Font Software.
http://scripts.sil.org/OFL
  -->
<path d="M300 391L289 398C312 428 336 479 336 519 388 567 451 456 300 391ZM204 302L204 958 217 958C240 958 267 945 267 936L267 339C291 336 300 326 303 313ZM130 412C132 471 103 534 73 560 54 572 43 594 53 612 66 633 99 627 118 609 149 581 174 510 147 413ZM647 467L647 578 517 578 517 467ZM689 305C681 345 666 399 652 438L530 438 516 432C531 405 545 376 558 347 579 349 591 340 595 329L501 296C464 425 400 549 337 627L351 638C387 609 421 572 453 530L453 959 464 959C497 959 517 942 517 937L517 894 929 894C943 894 953 889 956 878 924 848 874 809 874 809L829 864 710 864 710 748 890 748C903 748 912 743 914 732 887 707 842 672 842 672L804 719 710 719 710 606 888 606C901 606 910 601 913 590 886 565 842 531 842 531L804 578 710 578 710 467 904 467C918 467 927 462 929 451 900 424 853 388 853 388L812 438 683 438C709 409 733 376 749 347 770 346 781 337 785 325ZM647 864L517 864 517 748 647 748ZM647 719L517 719 517 606 647 606ZM132 92L132 324 142 324C168 324 196 309 196 304L196 276 809 276 809 312 818 312C839 312 872 299 873 293L873 133C892 129 908 121 915 114L834 52 799 92 203 92 132 60ZM196 246L196 121 356 121 356 246ZM809 246L643 246 643 121 809 121ZM417 246L417 121 581 121 581 246Z"/>
</svg>