<svg xmlns="http://www.w3.org/2000/svg"
    viewBox="0 0 1000 1000">
  <!--
© 2017-2024 Adobe (http://www.adobe.com/).
Noto is a trademark of Google Inc.
This Font Software is licensed under the SIL Open Font License, Version 1.1. This Font Software is distributed on an "AS IS" BASIS, WITHOUT WARRANTIES OR CONDITIONS OF ANY KIND, either express or implied. See the SIL Open Font License for the specific language, permissions and limitations governing your use of this Font Software.
http://scripts.sil.org/OFL
  -->
<path d="M300 407L289 413C311 441 337 489 339 528 390 573 451 466 300 407ZM389 260L398 289 651 289C670 320 701 348 738 372L256 372C290 350 320 326 343 303 365 309 373 305 379 295L295 248C245 319 142 404 40 452L49 466C94 453 138 436 179 415L179 618 189 618C219 618 240 602 240 597L240 574 757 574 757 610 766 610C787 610 818 595 819 588L819 415C848 428 878 439 910 448 916 422 939 401 965 394L965 382C839 368 721 333 675 289 704 286 727 282 737 270L657 217 804 217 804 252 814 252C835 252 867 237 868 231L868 105C887 101 903 93 910 86L829 25 794 64 201 64 130 32 130 260 140 260C166 260 194 247 194 241L194 217 654 217 627 260ZM194 188L194 93 354 93 354 188ZM804 188L641 188 641 93 804 93ZM415 188L415 93 579 93 579 188ZM470 545L240 545 240 402 470 402ZM642 402C627 437 602 499 582 537L591 545 529 545 529 402 757 402 757 545 593 545C623 518 666 477 689 453 710 457 719 453 723 444ZM235 638L235 930 245 930C272 930 301 915 301 909L301 881 698 881 698 923 708 923C730 923 763 908 764 902L764 676C779 673 793 666 799 659L724 602 689 638 306 638 235 607ZM698 852L301 852 301 775 698 775ZM698 746L301 746 301 668 698 668Z"/>
</svg>