<svg xmlns="http://www.w3.org/2000/svg"
    viewBox="0 0 1000 1000">
  <!--
© 2017-2024 Adobe (http://www.adobe.com/).
Noto is a trademark of Google Inc.
This Font Software is licensed under the SIL Open Font License, Version 1.1. This Font Software is distributed on an "AS IS" BASIS, WITHOUT WARRANTIES OR CONDITIONS OF ANY KIND, either express or implied. See the SIL Open Font License for the specific language, permissions and limitations governing your use of this Font Software.
http://scripts.sil.org/OFL
  -->
<path d="M333 672L320 677C347 718 377 782 380 832 431 881 491 769 333 672ZM131 670C115 745 89 822 59 873L74 882C117 842 156 780 181 715 203 715 213 706 217 694ZM49 586L79 657C88 656 97 650 104 637L226 621 226 928 235 928C267 928 288 913 288 909L288 613 374 600C382 617 387 634 389 649 443 694 499 578 329 511L317 518C333 534 350 556 363 579L202 584C259 538 323 477 377 416 398 421 412 416 418 407L340 357C286 441 217 527 165 585ZM240 269C215 319 186 370 161 406 141 396 114 387 81 381L70 390C108 415 154 462 168 499 213 525 245 467 183 421 217 395 255 360 286 325 307 330 319 323 325 312ZM124 65L124 290 134 290C160 290 188 276 188 270L188 254 812 254 812 285 821 285 826 285 795 318 567 318 500 288 500 495 509 495C534 495 562 482 562 476L562 459 805 459 805 490 814 490C834 490 866 477 867 471L867 356C884 353 899 345 904 338L833 284C852 280 875 270 876 265L876 106C895 102 912 94 918 87L838 25 802 65 195 65 124 32ZM562 430L562 347 805 347 805 430ZM542 662L824 662 824 739 542 739ZM542 632L542 559 824 559 824 632ZM480 530L480 928 490 928C516 928 542 913 542 906L542 768 824 768 824 835C824 848 820 854 805 854 785 854 704 848 704 848L704 863C742 867 762 876 775 886 787 896 791 913 793 931 877 923 888 892 888 842L888 572C907 568 924 559 930 552L847 491 815 530 547 530 480 499ZM188 225L188 94 352 94 352 225ZM812 225L643 225 643 94 812 94ZM413 225L413 94 582 94 582 225Z"/>
</svg>