<svg xmlns="http://www.w3.org/2000/svg"
    viewBox="0 0 1000 1000">
  <!--
© 2017-2023 Adobe (http://www.adobe.com/).
Noto is a trademark of Google Inc.
This Font Software is licensed under the SIL Open Font License, Version 1.1. This Font Software is distributed on an "AS IS" BASIS, WITHOUT WARRANTIES OR CONDITIONS OF ANY KIND, either express or implied. See the SIL Open Font License for the specific language, permissions and limitations governing your use of this Font Software.
http://scripts.sil.org/OFL
  -->
<path d="M271 467L261 476C294 496 331 536 344 568L354 572 100 572 108 601 464 601 464 674 147 674 155 703 464 703 464 777 54 777 63 806 464 806 464 924 475 924C509 924 531 910 531 905L531 806 927 806C940 806 951 801 953 790 920 760 868 721 868 721L821 777 531 777 531 703 837 703C851 703 861 698 863 687 832 659 783 622 783 622L741 674 531 674 531 601 878 601C892 601 901 596 904 585 872 556 822 519 822 519L778 572 616 572C647 552 678 529 697 514 715 517 728 509 731 501L667 469 761 469 761 497 771 497C792 497 825 482 826 475L826 373C844 369 860 361 866 354L786 295 751 333 379 333 349 320C365 305 380 290 393 274L706 274 706 304 716 304C738 304 769 289 770 282L770 186 929 186C942 186 952 181 955 170 923 141 872 102 872 102L826 156 770 156 770 109C789 105 805 97 811 89L732 31 697 69 167 69 176 98 417 98C411 118 403 137 395 156L53 156 62 186 381 186C370 206 358 226 344 245L159 245 168 274 322 274C257 354 165 418 46 468L53 483C155 451 240 408 309 355L309 473C298 470 285 468 271 467ZM464 572L376 572C402 562 408 518 355 489 365 485 372 480 372 477L372 469 641 469C628 498 606 541 587 572ZM454 186L706 186 706 245 416 245C430 226 442 207 454 186ZM469 156C478 137 486 118 493 98L706 98 706 156ZM761 362L761 439 372 439 372 362Z"/>
</svg>