<svg xmlns="http://www.w3.org/2000/svg"
    viewBox="0 0 1000 1000">
  <!--
© 2017-2024 Adobe (http://www.adobe.com/).
Noto is a trademark of Google Inc.
This Font Software is licensed under the SIL Open Font License, Version 1.1. This Font Software is distributed on an "AS IS" BASIS, WITHOUT WARRANTIES OR CONDITIONS OF ANY KIND, either express or implied. See the SIL Open Font License for the specific language, permissions and limitations governing your use of this Font Software.
http://scripts.sil.org/OFL
  -->
<path d="M570 18L559 23C588 65 621 134 620 187 678 243 745 112 570 18ZM386 110L386 242 264 242C268 197 270 153 271 110ZM812 13C794 75 765 163 739 226L538 226 541 236C517 212 491 189 491 189L452 242 449 242 449 122C469 118 485 110 492 102L412 41 376 81 75 81 84 110 207 110C206 152 205 196 202 242L39 242 47 272 199 272C196 315 190 360 182 404L63 404 72 432 176 432C153 540 111 647 34 743L49 758C93 715 128 669 156 621L156 923 166 923C197 923 217 907 217 901L217 845 399 845 399 909 409 909C430 909 462 893 463 887L463 595C483 591 498 583 505 575L425 515 389 554 229 554 196 540C211 505 223 468 232 432L386 432 386 475 395 475C416 475 448 459 449 453L449 272 535 272C548 272 557 267 560 256L690 256 690 429 531 429 539 459 690 459 690 656 504 656 512 685 690 685 690 931 701 931C734 931 756 915 756 909L756 685 945 685C959 685 968 680 971 669 940 639 889 598 889 598L843 656 756 656 756 459 920 459C934 459 944 454 946 443 915 413 863 372 863 372L819 429 756 429 756 256 936 256C950 256 959 251 962 240 930 210 878 169 878 169L832 226 765 226C805 173 846 110 873 62 895 64 907 55 911 44ZM386 404L239 404C249 360 256 316 261 272L386 272ZM399 583L399 815 217 815 217 583Z"/>
</svg>