<svg xmlns="http://www.w3.org/2000/svg" name="gid10432" data-unicode="群"
    viewBox="0 0 1000 1000">
  <!--
© 2017-2024 Adobe (http://www.adobe.com/).
Noto is a trademark of Google Inc.
This Font Software is licensed under the SIL Open Font License, Version 1.1. This Font Software is distributed on an "AS IS" BASIS, WITHOUT WARRANTIES OR CONDITIONS OF ANY KIND, either express or implied. See the SIL Open Font License for the specific language, permissions and limitations governing your use of this Font Software.
http://scripts.sil.org/OFL
  -->
<path d="M570 48L559 53C588 95 621 164 620 217 678 273 745 142 570 48ZM386 140L386 272 264 272C268 227 270 183 271 140ZM812 43C794 105 765 193 739 256L538 256 541 266C517 242 491 219 491 219L452 272 449 272 449 152C469 148 485 140 492 132L412 71 376 111 75 111 84 140 207 140C206 182 205 226 202 272L39 272 47 302 199 302C196 345 190 390 182 434L63 434 72 462 176 462C153 570 111 677 34 773L49 788C93 745 128 699 156 651L156 953 166 953C197 953 217 937 217 931L217 875 399 875 399 939 409 939C430 939 462 923 463 917L463 625C483 621 498 613 505 605L425 545 389 584 229 584 196 570C211 535 223 498 232 462L386 462 386 505 395 505C416 505 448 489 449 483L449 302 535 302C548 302 557 297 560 286L690 286 690 459 531 459 539 489 690 489 690 686 504 686 512 715 690 715 690 961 701 961C734 961 756 945 756 939L756 715 945 715C959 715 968 710 971 699 940 669 889 628 889 628L843 686 756 686 756 489 920 489C934 489 944 484 946 473 915 443 863 402 863 402L819 459 756 459 756 286 936 286C950 286 959 281 962 270 930 240 878 199 878 199L832 256 765 256C805 203 846 140 873 92 895 94 907 85 911 74ZM386 434L239 434C249 390 256 346 261 302L386 302ZM399 613L399 845 217 845 217 613Z"/>
</svg>