<svg xmlns="http://www.w3.org/2000/svg" name="gid10435" data-unicode="義"
    viewBox="0 0 1000 1000">
  <!--
© 2017-2024 Adobe (http://www.adobe.com/).
Noto is a trademark of Google Inc.
This Font Software is licensed under the SIL Open Font License, Version 1.1. This Font Software is distributed on an "AS IS" BASIS, WITHOUT WARRANTIES OR CONDITIONS OF ANY KIND, either express or implied. See the SIL Open Font License for the specific language, permissions and limitations governing your use of this Font Software.
http://scripts.sil.org/OFL
  -->
<path d="M685 447L674 456C709 482 754 529 768 566 830 603 872 484 685 447ZM646 40C628 78 599 131 574 169L401 169C431 145 417 66 273 47L263 54C298 81 340 129 356 169L84 169 93 198 466 198 466 278 134 278 143 308 466 308 466 391 55 391 64 420 925 420C939 420 949 415 952 404 918 375 866 335 866 335L819 391 531 391 531 308 855 308C869 308 878 303 881 292 849 264 800 228 800 228L757 278 531 278 531 198 898 198C911 198 921 193 923 182 891 153 839 114 839 114L794 169 608 169C644 144 682 115 707 92 728 94 741 87 747 76ZM554 438C557 491 563 546 575 600L355 600 355 511C397 505 437 499 470 493 491 503 507 503 516 496L454 436C368 464 207 499 77 513L82 532C149 530 222 525 291 518L291 600 43 600 52 630 291 630 291 718C184 735 92 749 37 755L79 823C87 820 96 813 100 801 170 786 234 772 291 758L291 865C291 878 286 883 268 883 248 883 148 876 148 876L148 892C193 897 219 904 232 914 245 924 251 941 252 959 343 951 355 916 355 866L355 742C423 725 480 708 530 693L528 676 355 707 355 630 581 630C595 686 616 739 646 786 578 841 496 889 412 921L419 936C512 911 600 872 674 825 716 877 774 918 852 941 903 959 950 965 961 940 967 927 957 910 934 894L945 794 932 791C924 818 911 855 901 873 895 883 888 884 868 878 806 861 760 830 725 790 767 759 802 726 829 693 851 697 860 694 867 684L783 639C761 675 730 711 693 745 672 710 657 670 646 630L931 630C945 630 955 625 957 614 926 584 876 545 876 545L831 600 639 600C629 556 625 512 622 472 641 469 650 459 652 446Z"/>
</svg>