<svg xmlns="http://www.w3.org/2000/svg"
    viewBox="0 0 1000 1000">
  <!--
© 2017-2024 Adobe (http://www.adobe.com/).
Noto is a trademark of Google Inc.
This Font Software is licensed under the SIL Open Font License, Version 1.1. This Font Software is distributed on an "AS IS" BASIS, WITHOUT WARRANTIES OR CONDITIONS OF ANY KIND, either express or implied. See the SIL Open Font License for the specific language, permissions and limitations governing your use of this Font Software.
http://scripts.sil.org/OFL
  -->
<path d="M487 309L495 339 788 339C802 339 811 334 814 323 784 294 736 256 736 256L692 309ZM475 520L465 531C498 546 531 580 541 610 591 640 622 536 475 520ZM473 649L463 658C496 677 527 713 532 746 584 781 620 673 473 649ZM749 395C740 440 702 569 674 644 729 724 761 840 765 903 814 952 885 817 699 641 736 578 790 468 809 432 826 434 836 428 839 418ZM873 397C863 443 821 571 792 645 850 724 887 839 892 902 943 950 1011 815 818 642 855 580 912 470 931 435 950 437 959 430 963 421ZM94 19L82 25C111 68 143 138 142 193 197 247 263 116 94 19ZM445 58L454 87 600 87C549 182 470 274 376 342L388 356C506 294 607 207 671 103 718 202 809 292 909 353 917 327 942 305 968 299L971 288C852 244 739 165 693 89 722 87 746 81 757 69L672 13 641 58ZM36 613L73 696C82 693 91 686 96 674L189 643C173 744 135 838 43 918L56 931C191 849 238 736 254 620L394 570 391 554 258 578C260 549 261 520 261 491L261 434 390 434C396 434 401 433 405 431L405 928 415 928C439 928 462 914 462 907L462 457 591 457 591 835C591 848 587 853 572 853 556 853 488 848 488 848L488 865C520 868 539 875 550 885 559 894 563 910 565 927 639 920 648 890 648 841L648 469C668 466 685 457 691 449L612 390 581 427 467 427 405 399 405 408C377 382 342 354 342 354L302 405 261 405 261 253 405 253C419 253 428 248 431 237 402 210 356 173 356 173L315 223 286 223C322 171 362 107 387 62 409 63 421 54 425 42L330 15C311 75 283 161 261 223L46 223 54 253 198 253 198 405 65 405 73 434 198 434 198 491C198 524 197 557 195 589 126 600 69 609 36 613Z"/>
</svg>