<svg xmlns="http://www.w3.org/2000/svg" name="gid10442" data-unicode="羶"
    viewBox="0 0 1000 1000">
  <!--
© 2017-2024 Adobe (http://www.adobe.com/).
Noto is a trademark of Google Inc.
This Font Software is licensed under the SIL Open Font License, Version 1.1. This Font Software is distributed on an "AS IS" BASIS, WITHOUT WARRANTIES OR CONDITIONS OF ANY KIND, either express or implied. See the SIL Open Font License for the specific language, permissions and limitations governing your use of this Font Software.
http://scripts.sil.org/OFL
  -->
<path d="M366 910L374 938 948 938C961 938 970 933 972 922 943 894 894 856 894 856L852 910ZM85 47L73 53C101 96 139 165 149 215 205 264 260 145 85 47ZM479 587L479 886 488 886C513 886 540 872 540 866L540 838 805 838 805 877 814 877C834 877 866 862 867 856L867 626C884 623 899 615 905 608L829 551 796 587 545 587 481 559C491 555 497 549 497 546L497 514 847 514 847 556 857 556C886 556 909 542 909 538L909 270C929 267 939 261 946 253L876 200 844 237 508 237 436 206 436 566 445 566C459 566 470 563 479 560ZM497 485L497 266 847 266 847 485ZM559 314L559 469 567 469C586 469 608 457 608 453L608 433 734 433 734 462 742 462C757 462 783 449 784 443L784 344C795 341 805 336 809 331L754 289 728 314 612 314 559 289ZM734 403L608 403 608 343 734 343ZM805 728L805 809 540 809 540 728ZM805 699L540 699 540 617 805 617ZM636 48L636 149 385 149 393 178 946 178C960 178 970 173 972 162 941 132 889 91 889 91L845 149 705 149 705 83C726 79 735 70 736 57ZM31 642L67 723C77 720 86 714 90 701L192 667C176 770 136 866 38 948L50 961C193 878 241 763 256 644 322 621 376 600 421 583L418 568 261 601C262 574 263 547 263 521L263 453 385 453C398 453 408 448 410 438 382 410 336 374 336 374L297 424 263 424 263 270 400 270C414 270 423 265 426 254 397 227 351 191 351 191L310 242 272 242C309 194 350 134 376 91 397 93 410 85 415 74L319 43C301 101 271 183 247 242L40 242 48 270 201 270 201 424 59 424 67 453 201 453 201 521C201 552 200 583 198 613 127 627 67 638 31 642Z"/>
</svg>