<svg xmlns="http://www.w3.org/2000/svg"
    viewBox="0 0 1000 1000">
  <!--
© 2017-2023 Adobe (http://www.adobe.com/).
Noto is a trademark of Google Inc.
This Font Software is licensed under the SIL Open Font License, Version 1.1. This Font Software is distributed on an "AS IS" BASIS, WITHOUT WARRANTIES OR CONDITIONS OF ANY KIND, either express or implied. See the SIL Open Font License for the specific language, permissions and limitations governing your use of this Font Software.
http://scripts.sil.org/OFL
  -->
<path d="M310 11C261 103 153 210 36 271L44 285C180 238 301 149 364 67 386 71 395 67 401 57ZM620 13L603 21C663 134 784 220 910 271 918 239 937 219 964 214L965 203C834 172 684 102 620 13ZM136 523L127 533C171 558 221 607 235 652 303 692 343 549 136 523ZM41 782L102 852C111 849 116 840 118 827 228 769 305 722 359 689L353 674C226 722 99 766 41 782ZM561 523L552 534C601 558 658 608 676 655 748 693 782 544 561 523ZM476 780L536 851C545 847 551 839 553 826 672 765 757 715 816 680L810 667C673 716 536 764 476 780ZM422 117C403 173 370 252 338 308 257 311 189 312 144 312L196 395C205 392 214 386 220 374 437 351 592 333 700 317 723 341 741 366 751 389 826 426 850 268 587 209L578 218C610 238 647 265 679 296L373 307C415 260 458 201 488 155 512 156 519 151 523 140ZM59 456L68 485 375 485 375 835C375 848 371 854 354 854 335 854 250 848 250 848L250 864C289 868 310 876 324 886 335 896 340 912 343 931 428 923 438 891 438 841L438 498C458 495 475 486 481 479L398 416 365 456ZM503 456L512 485 831 485 831 833C831 847 827 853 809 853 787 853 691 846 691 846L691 862C735 866 758 875 773 885 786 896 791 912 794 932 885 922 897 890 897 839L897 498C916 495 933 486 939 479L855 416 821 456Z"/>
</svg>