<svg xmlns="http://www.w3.org/2000/svg"
    viewBox="0 0 1000 1000">
  <!--
© 2017-2024 Adobe (http://www.adobe.com/).
Noto is a trademark of Google Inc.
This Font Software is licensed under the SIL Open Font License, Version 1.1. This Font Software is distributed on an "AS IS" BASIS, WITHOUT WARRANTIES OR CONDITIONS OF ANY KIND, either express or implied. See the SIL Open Font License for the specific language, permissions and limitations governing your use of this Font Software.
http://scripts.sil.org/OFL
  -->
<path d="M569 93L577 123 902 123C916 123 926 118 929 107 897 76 845 34 845 34L800 93ZM532 334L540 363 617 363C616 620 617 792 447 911L462 928C674 813 677 637 681 363L759 363 759 844C759 886 768 905 822 905L868 905C953 905 976 889 976 864 976 850 971 841 953 834L950 685 937 685C927 741 916 813 910 828 906 838 904 839 898 840 893 840 883 840 868 840L839 840C823 840 822 836 822 823L822 363 939 363C952 363 962 358 964 347 932 317 881 277 881 277L835 334ZM412 697L412 813 170 813 170 697ZM412 668L170 668 170 559 412 559ZM410 205C387 255 339 328 288 372L300 386C362 350 420 295 450 251L463 253 463 382C463 393 460 397 449 397 436 397 396 394 396 394L396 409C419 413 430 419 438 427 446 435 448 450 449 464 514 457 523 432 523 387L523 111C543 108 560 99 566 92L484 31 453 70 295 70 242 31 211 70 47 70 56 99 145 99C125 140 86 195 45 229L56 242C108 218 159 177 187 143 207 148 216 145 221 136L221 244 171 218C147 271 94 345 40 392L52 406C116 368 177 311 211 266L221 268 221 379C221 390 218 395 207 395 194 395 152 391 152 391L152 408C175 410 187 416 195 424 203 432 205 446 207 461 238 458 256 450 266 438 260 467 249 503 240 530L175 530 107 499 107 921 118 921C144 921 170 906 170 899L170 842 412 842 412 886 421 886C442 886 474 869 475 863L475 569C492 566 508 558 513 551L436 492 402 530 275 530C294 512 312 491 325 474 347 474 358 465 362 453L269 434C278 421 280 404 280 383L280 111C293 109 305 104 313 99L377 99C361 139 323 193 285 228L298 242C346 217 393 175 420 144 441 149 449 144 456 134L387 99 463 99 463 230ZM221 99L221 133 155 99Z"/>
</svg>