<svg xmlns="http://www.w3.org/2000/svg"
    viewBox="0 0 1000 1000">
  <!--
© 2017-2023 Adobe (http://www.adobe.com/).
Noto is a trademark of Google Inc.
This Font Software is licensed under the SIL Open Font License, Version 1.1. This Font Software is distributed on an "AS IS" BASIS, WITHOUT WARRANTIES OR CONDITIONS OF ANY KIND, either express or implied. See the SIL Open Font License for the specific language, permissions and limitations governing your use of this Font Software.
http://scripts.sil.org/OFL
  -->
<path d="M760 759L760 851 281 851 281 759ZM760 730L281 730 281 640 760 640ZM216 612L216 929 226 929C252 929 281 913 281 907L281 879 760 879 760 924 770 924C791 924 825 908 826 902L826 650C842 647 857 639 863 632L785 573 750 612 286 612 216 579ZM312 328L312 377C221 424 126 465 34 499L40 516C131 490 223 457 312 420L312 481C312 535 332 545 438 545L622 545C865 545 900 538 900 505 900 493 892 487 866 480L862 411 851 411C840 445 830 469 821 479 815 486 809 489 792 490 769 491 702 492 625 492L440 492C378 492 374 489 374 474L374 429C513 418 668 396 774 377 796 386 812 387 822 378L760 320C672 348 510 385 374 407L374 392C450 358 523 321 589 282L929 282C943 282 953 277 956 266 921 234 867 193 867 193L819 252 640 252C721 202 791 151 845 102 868 111 879 110 888 99L808 38C781 65 750 93 716 121 684 94 646 65 646 65L599 123 468 123 468 48C490 44 499 35 501 22L403 13 403 123 134 123 142 152 403 152 403 252 44 252 53 282 484 282C453 301 421 319 389 336ZM468 152L676 152C632 186 584 219 532 252L468 252Z"/>
</svg>