<svg xmlns="http://www.w3.org/2000/svg"
    viewBox="0 0 1000 1000">
  <!--
© 2017-2024 Adobe (http://www.adobe.com/).
Noto is a trademark of Google Inc.
This Font Software is licensed under the SIL Open Font License, Version 1.1. This Font Software is distributed on an "AS IS" BASIS, WITHOUT WARRANTIES OR CONDITIONS OF ANY KIND, either express or implied. See the SIL Open Font License for the specific language, permissions and limitations governing your use of this Font Software.
http://scripts.sil.org/OFL
  -->
<path d="M537 662L526 669C560 700 598 756 606 801 668 848 724 718 537 662ZM189 11L189 136C140 151 88 165 41 174L46 191C93 188 142 182 189 175L189 299 56 299 64 329 189 329 189 461 40 461 48 490 167 490C141 607 96 724 30 815L43 828C104 768 153 698 189 620L189 929 202 929C225 929 250 914 250 905L250 570C284 608 322 664 331 708 392 754 444 626 250 551L250 490 400 490C414 490 424 485 426 475 397 445 347 405 347 405L304 461 250 461 250 329 381 329C394 329 404 324 406 313 379 286 335 250 335 250L297 299 250 299 250 164C296 155 338 146 372 136 393 145 411 145 418 137L350 75C325 88 290 102 250 116L250 48C275 45 282 35 285 21ZM872 316C848 338 810 371 778 394 752 371 729 344 711 313L927 313C941 313 950 308 952 297 924 270 877 233 877 233L836 285 511 285 511 212 872 212C886 212 895 207 898 196 870 169 825 134 825 134L786 183 511 183 511 106 909 106C923 106 933 101 936 90 905 62 856 23 856 23L813 78 522 78 450 45 450 367C450 553 439 743 334 892L350 902C426 827 466 735 487 640L759 640 759 837C759 851 755 856 738 856 718 856 621 850 621 850L621 865C663 870 689 877 701 886 714 895 719 910 722 927 810 919 821 889 821 839L821 640 938 640C952 640 961 635 964 624 937 598 894 562 894 562L856 611 821 611 821 560C843 557 852 549 855 535L759 525 759 611 493 611C509 528 511 443 511 366L511 313 575 313 575 471 515 477 549 549C559 546 567 540 571 528 658 499 722 477 767 461L764 445 633 464 633 313 688 313C731 427 805 498 919 536 924 510 941 494 964 489L964 478C899 466 842 442 796 408 833 397 877 383 904 372 922 378 932 375 936 368Z"/>
</svg>