<svg xmlns="http://www.w3.org/2000/svg"
    viewBox="0 0 1000 1000">
  <!--
© 2017-2023 Adobe (http://www.adobe.com/).
Noto is a trademark of Google Inc.
This Font Software is licensed under the SIL Open Font License, Version 1.1. This Font Software is distributed on an "AS IS" BASIS, WITHOUT WARRANTIES OR CONDITIONS OF ANY KIND, either express or implied. See the SIL Open Font License for the specific language, permissions and limitations governing your use of this Font Software.
http://scripts.sil.org/OFL
  -->
<path d="M36 709L72 794C82 792 92 785 96 772 211 742 302 716 372 694L372 924 382 924C415 924 436 908 436 902L436 112 538 112C552 112 561 107 564 96 530 66 478 25 478 25L430 83 42 83 50 112 136 112 136 699ZM198 112L372 112 372 274 198 274ZM198 303L372 303 372 479 198 479ZM198 508L372 508 372 669 198 691ZM487 134L495 163 696 163 696 825C696 840 691 846 673 846 651 846 545 838 545 838L545 853C592 860 618 868 634 879 647 890 654 908 655 929 750 919 762 879 762 827L762 163 948 163C962 163 971 158 974 148 941 117 888 75 888 75L842 134Z"/>
</svg>