<svg xmlns="http://www.w3.org/2000/svg"
    viewBox="0 0 1000 1000">
  <!--
© 2017-2024 Adobe (http://www.adobe.com/).
Noto is a trademark of Google Inc.
This Font Software is licensed under the SIL Open Font License, Version 1.1. This Font Software is distributed on an "AS IS" BASIS, WITHOUT WARRANTIES OR CONDITIONS OF ANY KIND, either express or implied. See the SIL Open Font License for the specific language, permissions and limitations governing your use of this Font Software.
http://scripts.sil.org/OFL
  -->
<path d="M36 718L58 804C68 802 78 794 83 782 210 745 311 712 390 686L390 928 400 928C433 928 453 911 453 906L453 112 540 112C554 112 564 107 566 96 533 66 481 25 481 25L433 83 41 83 49 112 146 112 146 704C99 711 61 716 36 718ZM208 112L390 112 390 274 208 274ZM208 303L390 303 390 479 208 479ZM208 508L390 508 390 665 208 694ZM579 82L579 928 589 928C621 928 642 911 642 906L642 110 850 110C818 195 767 319 735 386 832 468 868 549 868 621 868 664 856 686 832 696 822 702 816 703 802 703 781 703 730 703 701 703L701 719C731 723 757 728 766 736 776 744 781 765 781 789 895 783 937 734 936 638 936 558 891 466 761 383 811 319 887 196 927 130 952 129 966 126 974 119L893 38 848 82 654 82 579 49Z"/>
</svg>