<svg xmlns="http://www.w3.org/2000/svg" name="gid10556" data-unicode="聳"
    viewBox="0 0 1000 1000">
  <!--
© 2017-2024 Adobe (http://www.adobe.com/).
Noto is a trademark of Google Inc.
This Font Software is licensed under the SIL Open Font License, Version 1.1. This Font Software is distributed on an "AS IS" BASIS, WITHOUT WARRANTIES OR CONDITIONS OF ANY KIND, either express or implied. See the SIL Open Font License for the specific language, permissions and limitations governing your use of this Font Software.
http://scripts.sil.org/OFL
  -->
<path d="M250 41C212 93 132 163 58 204L69 218C157 190 247 140 298 97 319 103 327 99 334 89ZM471 41C437 132 384 212 329 258L342 272C396 244 449 201 491 145 520 165 547 192 559 214 611 241 639 148 507 123L524 96C544 99 558 91 562 80ZM723 41C686 123 628 192 573 231L585 245 599 239 599 416C542 409 499 393 464 359 476 339 487 317 496 294 516 296 528 288 532 276L442 248C419 351 368 433 304 482L316 496C369 470 416 431 453 377 509 452 585 473 707 473L855 473 811 525 59 525 67 555 247 555 247 822C172 824 109 825 64 825L104 913C113 911 124 904 130 893 357 874 542 858 694 842L694 959 704 959C737 959 759 944 759 939L759 835 931 815 931 795 759 802 759 555 914 555C928 555 937 550 940 539 908 511 860 475 857 473L913 473C914 452 924 437 945 434L945 419C887 421 762 421 709 421L662 420 662 343 827 343C840 343 850 338 853 327 825 301 781 267 781 267L743 314 662 314 662 259C680 255 687 249 689 238L618 230C657 210 695 183 729 149 782 177 845 226 869 265 932 290 950 172 744 133 754 123 763 112 771 100 791 105 804 97 809 88ZM311 650L694 650 694 717 311 717ZM311 622L311 555 694 555 694 622ZM311 747L694 747 694 805 311 820ZM280 151C233 216 137 302 48 352L59 366C103 350 148 329 189 306L189 498 200 498C226 498 252 483 253 478L253 303C270 300 281 293 285 285L246 270C277 249 305 227 326 207 349 212 357 209 364 200Z"/>
</svg>