<svg xmlns="http://www.w3.org/2000/svg"
    viewBox="0 0 1000 1000">
  <!--
© 2017-2023 Adobe (http://www.adobe.com/).
Noto is a trademark of Google Inc.
This Font Software is licensed under the SIL Open Font License, Version 1.1. This Font Software is distributed on an "AS IS" BASIS, WITHOUT WARRANTIES OR CONDITIONS OF ANY KIND, either express or implied. See the SIL Open Font License for the specific language, permissions and limitations governing your use of this Font Software.
http://scripts.sil.org/OFL
  -->
<path d="M116 18L106 26C142 49 183 93 194 131 256 165 293 42 116 18ZM50 131L41 141C78 161 118 202 130 237 193 271 228 146 50 131ZM103 353C93 353 58 353 58 353L58 376C75 377 86 379 99 385 117 393 122 422 113 484 117 502 128 512 142 512 173 512 187 494 188 469 189 430 170 409 170 384 170 368 177 348 185 329 196 305 257 197 279 151L262 144C144 317 144 317 127 339 116 353 113 353 103 353ZM305 643L698 643 698 700 305 700ZM305 614L305 557 698 557 698 614ZM305 730L698 730 698 777 305 791ZM58 796L92 878C101 877 112 869 118 858 350 841 540 827 698 813L698 930 708 930C742 930 764 916 764 911L764 807 939 789 938 767 764 774 764 557 931 557C944 557 954 552 957 542 923 513 872 476 872 476L826 529 45 529 54 557 240 557 240 793C165 795 103 796 58 796ZM293 158L293 394 302 394C323 394 347 381 347 376L347 356 410 356 410 415 238 415 245 444 410 444 410 518 419 518C448 518 467 503 468 498L468 444 624 444C616 461 606 478 593 494L605 507C703 437 717 332 718 247L798 247 798 504 808 504C838 504 858 488 858 483L858 247 936 247C950 247 959 242 962 231 931 202 882 163 882 163L838 218 718 218 718 120C785 111 855 94 900 78 923 85 939 85 948 76L871 14C840 37 784 68 728 91L659 69 659 232C659 292 657 355 637 414L580 366C584 363 586 361 586 359L586 194C603 192 618 184 623 177L555 126 524 158 468 158 468 113 608 113C622 113 632 108 633 97 606 70 560 33 560 33L519 84 468 84 468 47C490 43 499 34 501 21L410 12 410 84 262 84 270 113 410 113 410 158 352 158 293 131ZM347 272L414 272 414 327 347 327ZM347 242L347 187 414 187 414 242ZM532 272L532 327 464 327 464 272ZM532 242L464 242 464 187 532 187ZM532 356L532 379 540 379C550 379 562 375 571 371L537 415 468 415 468 356Z"/>
</svg>