<svg xmlns="http://www.w3.org/2000/svg"
    viewBox="0 0 1000 1000">
  <!--
© 2017-2024 Adobe (http://www.adobe.com/).
Noto is a trademark of Google Inc.
This Font Software is licensed under the SIL Open Font License, Version 1.1. This Font Software is distributed on an "AS IS" BASIS, WITHOUT WARRANTIES OR CONDITIONS OF ANY KIND, either express or implied. See the SIL Open Font License for the specific language, permissions and limitations governing your use of this Font Software.
http://scripts.sil.org/OFL
  -->
<path d="M876 485L831 540 412 540 420 569 933 569C947 569 957 564 960 553 927 524 876 485 876 485ZM630 651L542 641 542 849C542 892 554 906 618 906L699 906C821 906 848 895 848 869 848 857 843 850 823 844L820 767 808 767C799 801 791 833 785 843 780 849 777 850 768 851 759 851 733 851 702 851L631 851C605 851 602 848 602 837L602 674C619 672 628 663 630 651ZM607 596L598 606C638 634 690 685 709 724 773 758 806 632 607 596ZM813 651L802 659C844 704 892 778 898 840 964 894 1022 743 813 651ZM480 672L462 672C466 721 443 777 416 798 398 811 388 832 398 849 410 868 443 863 460 846 486 820 505 757 480 672ZM311 196L182 196 182 111 311 111ZM311 225L311 312 182 312 182 225ZM311 342L311 418 182 432 182 342ZM45 444L80 518C89 515 98 509 103 497 190 475 258 456 311 442L311 931 321 931C353 931 374 915 374 910L374 111 459 111C473 111 482 106 485 95 453 66 402 26 402 26L357 82 41 82 49 111 120 111 120 438ZM43 808L82 882C91 880 99 873 103 861 193 831 259 807 304 790L301 774 200 789 200 699 279 699C292 699 301 694 303 683 281 659 244 628 244 628L214 670 200 670 200 576 282 576C296 576 304 571 307 560 284 536 247 505 247 505L214 546 59 546 67 576 143 576 143 670 61 670 69 699 143 699 143 796ZM868 77L823 135 700 135 700 48C723 44 731 35 733 22L637 13 637 135 421 135 429 165 637 165 637 249 508 249 444 220 444 503 453 503C477 503 503 489 503 484L503 454 850 454 850 485 860 485C879 485 910 472 911 465L911 285C926 283 939 276 944 269L874 216 842 249 700 249 700 165 925 165C939 165 948 160 951 149 919 118 868 77 868 77ZM582 279L582 425 503 425 503 279ZM633 279L719 279 719 425 633 425ZM771 279L850 279 850 425 771 425Z"/>
</svg>