<svg xmlns="http://www.w3.org/2000/svg" name="gid10574" data-unicode="肋"
    viewBox="0 0 1000 1000">
  <!--
© 2017-2024 Adobe (http://www.adobe.com/).
Noto is a trademark of Google Inc.
This Font Software is licensed under the SIL Open Font License, Version 1.1. This Font Software is distributed on an "AS IS" BASIS, WITHOUT WARRANTIES OR CONDITIONS OF ANY KIND, either express or implied. See the SIL Open Font License for the specific language, permissions and limitations governing your use of this Font Software.
http://scripts.sil.org/OFL
  -->
<path d="M593 45C593 129 592 208 590 282L410 282 419 311 588 311C577 571 538 772 382 944L400 959C597 789 641 581 653 311L844 311C836 630 818 824 784 857 774 868 765 871 746 871 725 871 662 865 623 860L622 878C658 885 695 894 709 906 722 917 726 935 725 957 768 957 808 943 835 911 882 858 902 669 910 320 931 317 945 312 952 303L874 238 834 282 654 282C656 219 657 153 658 83 682 80 693 69 695 54ZM170 128L316 128 316 321 170 321ZM107 99L107 401C107 586 106 789 36 950L51 959C130 851 156 714 165 583L316 583 316 850C316 865 312 872 294 872 276 872 186 864 186 864L186 881C227 886 249 893 262 904 275 916 280 934 282 954 370 945 380 911 380 858L380 138C398 134 413 127 419 120L339 59 307 99 183 99 107 66ZM170 351L316 351 316 554 167 554C170 500 170 449 170 401Z"/>
</svg>