<svg xmlns="http://www.w3.org/2000/svg" name="gid10579" data-unicode="肘"
    viewBox="0 0 1000 1000">
  <!--
© 2017-2024 Adobe (http://www.adobe.com/).
Noto is a trademark of Google Inc.
This Font Software is licensed under the SIL Open Font License, Version 1.1. This Font Software is distributed on an "AS IS" BASIS, WITHOUT WARRANTIES OR CONDITIONS OF ANY KIND, either express or implied. See the SIL Open Font License for the specific language, permissions and limitations governing your use of this Font Software.
http://scripts.sil.org/OFL
  -->
<path d="M501 412L489 418C525 479 571 570 582 640 652 702 714 551 501 412ZM754 54L754 286 410 286 418 315 754 315 754 848C754 866 749 872 727 872 703 872 580 863 580 863L580 878C632 886 662 894 680 905 695 916 702 933 705 955 808 944 819 909 819 854L819 315 951 315C965 315 975 311 977 300 948 269 898 227 898 227L855 286 819 286 819 93C843 89 853 80 855 65ZM174 128L325 128 325 324 174 324ZM111 99L111 395C111 582 109 786 36 950L52 959C130 853 158 719 168 590L325 590 325 854C325 869 320 875 302 875 284 875 195 868 195 868L195 884C234 889 257 897 271 908 283 919 288 936 291 956 378 947 388 914 388 862L388 138C406 134 421 127 427 120L348 59 315 99 186 99 111 66ZM174 354L325 354 325 561 170 561C174 503 174 446 174 395Z"/>
</svg>