<svg xmlns="http://www.w3.org/2000/svg"
    viewBox="0 0 1000 1000">
  <!--
© 2017-2023 Adobe (http://www.adobe.com/).
Noto is a trademark of Google Inc.
This Font Software is licensed under the SIL Open Font License, Version 1.1. This Font Software is distributed on an "AS IS" BASIS, WITHOUT WARRANTIES OR CONDITIONS OF ANY KIND, either express or implied. See the SIL Open Font License for the specific language, permissions and limitations governing your use of this Font Software.
http://scripts.sil.org/OFL
  -->
<path d="M380 846L388 875 947 875C961 875 970 870 972 859 939 827 884 784 884 784L834 846ZM731 329L719 339C792 394 881 491 900 572 976 627 1017 446 731 329ZM167 98L296 98 296 290 167 290ZM104 69L104 372C104 556 103 759 33 920L50 929C127 822 154 684 162 553L296 553 296 824C296 839 291 845 273 845 255 845 166 838 166 838L166 854C206 860 229 867 241 878 254 889 258 907 261 928 349 919 359 885 359 832L359 108C377 104 391 97 397 90L318 29 287 69 180 69 104 36ZM167 320L296 320 296 524 164 524C167 471 167 419 167 371ZM399 107L407 136 660 136C603 308 498 486 367 609L379 622C475 552 557 465 622 368L622 807 633 807C658 807 685 791 686 785L686 311C703 308 713 302 716 293L676 278C700 232 720 185 737 136L930 136C944 136 953 131 956 120 923 90 870 48 870 48L823 107Z"/>
</svg>