<svg xmlns="http://www.w3.org/2000/svg" name="gid10650" data-unicode="脅"
    viewBox="0 0 1000 1000">
  <!--
© 2017-2024 Adobe (http://www.adobe.com/).
Noto is a trademark of Google Inc.
This Font Software is licensed under the SIL Open Font License, Version 1.1. This Font Software is distributed on an "AS IS" BASIS, WITHOUT WARRANTIES OR CONDITIONS OF ANY KIND, either express or implied. See the SIL Open Font License for the specific language, permissions and limitations governing your use of this Font Software.
http://scripts.sil.org/OFL
  -->
<path d="M327 671L725 671 725 758 327 758ZM327 643L327 560 725 560 725 643ZM262 531L262 958 273 958C300 958 327 942 327 935L327 786 725 786 725 860C725 874 721 880 702 880 679 880 575 873 575 873L575 888C621 894 647 902 663 911 676 922 682 939 684 958 779 949 791 916 791 866L791 573C811 570 828 561 833 554L749 491 715 531 332 531 262 499ZM79 319L88 348 243 348C219 415 168 473 64 512L73 526C214 487 277 421 306 348L416 348C409 395 397 423 387 431 381 435 374 436 360 436 346 436 306 434 283 432L283 449C305 452 325 456 333 465 343 472 346 483 346 497 374 497 402 494 423 481 452 463 468 426 476 354 495 352 506 348 514 340L443 284 410 319 315 319 319 302C340 301 352 293 355 278L275 265C411 237 481 195 518 144L752 144C746 172 737 190 729 196 722 200 714 202 699 202 682 202 624 198 592 196L592 212C622 216 652 222 663 230 674 238 678 247 678 262 709 262 741 259 762 248 791 232 806 201 815 150 833 148 845 144 852 136L782 81 748 115 534 115C540 103 544 91 547 79 567 78 579 71 583 57L482 41C479 67 473 92 462 115L191 115 200 144 443 144C401 198 317 240 157 267L161 283C197 278 230 273 260 268 258 285 255 302 251 319ZM523 319L532 348 651 348C630 408 582 460 479 494L486 509C630 474 689 415 714 348L855 348C847 394 838 422 829 430 825 434 820 436 812 436 797 436 753 432 729 430L729 446C754 449 779 457 789 465 799 473 804 487 804 500 825 500 849 495 865 484 892 464 903 425 915 354 934 352 946 347 952 340L883 285 849 319 723 319 726 304C748 302 758 294 761 279L664 266C664 284 662 302 659 319Z"/>
</svg>