<svg xmlns="http://www.w3.org/2000/svg" name="gid10657" data-unicode="脍"
    viewBox="0 0 1000 1000">
  <!--
© 2017-2024 Adobe (http://www.adobe.com/).
Noto is a trademark of Google Inc.
This Font Software is licensed under the SIL Open Font License, Version 1.1. This Font Software is distributed on an "AS IS" BASIS, WITHOUT WARRANTIES OR CONDITIONS OF ANY KIND, either express or implied. See the SIL Open Font License for the specific language, permissions and limitations governing your use of this Font Software.
http://scripts.sil.org/OFL
  -->
<path d="M467 390L475 419 822 419C835 419 845 414 848 403 816 374 765 335 765 335L721 390ZM671 92C725 220 824 339 931 422 937 396 952 373 978 364L980 351C864 290 754 186 686 81 710 79 719 74 722 63L610 39C571 161 464 326 362 415L370 430C494 348 610 220 671 92ZM165 128L288 128 288 324 165 324ZM103 99L103 375C103 564 102 777 35 950L52 959C121 852 148 718 159 590L288 590 288 855C288 870 284 876 266 876 248 876 160 869 160 869L160 885C199 891 222 898 234 909 247 919 251 937 254 957 341 948 350 915 350 863L350 138C368 134 383 126 389 119L310 59 279 99 177 99 103 66ZM165 354L288 354 288 561 161 561C165 495 165 431 165 374ZM374 864L416 951C426 949 435 942 441 930 607 895 732 865 826 841 846 876 862 910 870 941 950 1002 1001 825 720 663L707 670C741 711 782 766 814 821L526 851C573 778 628 669 667 578L916 578C929 578 940 574 942 563 909 533 859 495 859 495L814 549 394 549 402 578 585 578C562 662 524 779 492 854Z"/>
</svg>