<svg xmlns="http://www.w3.org/2000/svg"
    viewBox="0 0 1000 1000">
  <!--
© 2017-2024 Adobe (http://www.adobe.com/).
Noto is a trademark of Google Inc.
This Font Software is licensed under the SIL Open Font License, Version 1.1. This Font Software is distributed on an "AS IS" BASIS, WITHOUT WARRANTIES OR CONDITIONS OF ANY KIND, either express or implied. See the SIL Open Font License for the specific language, permissions and limitations governing your use of this Font Software.
http://scripts.sil.org/OFL
  -->
<path d="M440 263C440 312 410 366 381 386 363 399 352 418 361 437 372 459 405 454 425 437 446 420 464 383 466 332L859 332 822 416 791 387 753 425 471 425 480 455 742 455C719 484 689 520 661 547L626 543 626 636 386 636 394 666 626 666 626 826C626 841 622 845 606 845 586 845 490 838 490 838L490 855C532 860 556 868 569 878 583 890 588 906 590 926 680 917 691 885 691 831L691 666 943 666C957 666 967 661 969 650 937 619 884 578 884 578L837 636 691 636 691 578C713 574 722 567 725 553L688 549C735 524 788 487 822 462 842 461 854 459 862 452L835 428C865 406 912 367 937 343 956 342 967 340 975 333L900 261 860 302 691 302 691 184 931 184C944 184 955 179 958 168 924 138 872 97 872 97L825 154 691 154 691 50C715 47 725 37 727 23L626 13 626 154 393 154 401 184 626 184 626 302 465 302C463 290 461 277 458 263ZM164 98L288 98 288 294 164 294ZM103 69L103 349C103 537 102 749 36 920L53 929C122 822 148 688 158 560L288 560 288 826C288 841 284 847 266 847 248 847 162 840 162 840L162 856C201 862 223 869 235 879 247 889 252 908 254 928 340 918 349 886 349 834L349 107C367 103 381 96 387 89L309 30 279 69 176 69 103 36ZM164 324L288 324 288 531 160 531C164 466 164 404 164 348Z"/>
</svg>