<svg xmlns="http://www.w3.org/2000/svg" name="gid10669" data-unicode="脩"
    viewBox="0 0 1000 1000">
  <!--
© 2017-2024 Adobe (http://www.adobe.com/).
Noto is a trademark of Google Inc.
This Font Software is licensed under the SIL Open Font License, Version 1.1. This Font Software is distributed on an "AS IS" BASIS, WITHOUT WARRANTIES OR CONDITIONS OF ANY KIND, either express or implied. See the SIL Open Font License for the specific language, permissions and limitations governing your use of this Font Software.
http://scripts.sil.org/OFL
  -->
<path d="M298 188L298 818 310 818C334 818 360 803 360 794L360 224C382 220 390 211 392 198ZM542 645L791 645 791 740 542 740ZM542 617L542 524 791 524 791 617ZM556 42C521 164 456 272 389 339L403 351C448 321 491 281 529 233 558 277 589 316 628 350 560 404 475 448 376 482L384 497C418 488 451 479 483 468L480 472 480 958 490 958C521 958 542 941 542 936L542 770 791 770 791 862C791 876 788 881 773 881 755 881 684 876 684 875L684 891C717 896 737 903 748 913 758 924 762 941 765 960 845 952 855 921 855 870L855 537C876 534 892 525 899 518L815 455 781 496 555 496 488 466C554 443 613 414 666 380 729 425 810 459 916 482 921 451 941 434 966 426L968 414C865 401 780 378 712 346 763 304 805 256 836 199L929 199C943 199 952 194 955 183 923 153 870 111 870 111L824 170 573 170C588 146 602 120 614 93 636 96 647 87 651 76ZM544 213L554 199 754 199C731 243 701 283 663 319 615 290 577 255 544 213ZM225 42C184 230 110 423 36 548L51 557C88 514 124 463 156 407L156 958 167 958C191 958 217 942 218 937L218 340C236 338 245 331 248 322L208 307C239 240 267 168 290 94 312 94 323 85 327 73Z"/>
</svg>