<svg xmlns="http://www.w3.org/2000/svg" name="gid10684" data-unicode="腆"
    viewBox="0 0 1000 1000">
  <!--
© 2017-2024 Adobe (http://www.adobe.com/).
Noto is a trademark of Google Inc.
This Font Software is licensed under the SIL Open Font License, Version 1.1. This Font Software is distributed on an "AS IS" BASIS, WITHOUT WARRANTIES OR CONDITIONS OF ANY KIND, either express or implied. See the SIL Open Font License for the specific language, permissions and limitations governing your use of this Font Software.
http://scripts.sil.org/OFL
  -->
<path d="M533 714C497 790 418 888 333 946L342 959C445 915 537 836 586 770 609 773 617 769 623 759ZM707 724L697 733C765 784 854 875 882 946 960 991 995 825 707 724ZM161 128L269 128 269 321 161 321ZM101 99L101 401C101 585 101 788 34 950L51 959C125 851 149 714 157 584L269 584 269 855C269 870 265 875 248 875 230 875 146 868 146 868L146 884C183 890 205 898 218 908 230 918 233 936 236 956 320 947 329 914 329 862L329 137C346 133 361 126 367 119L291 60 260 99 174 99 101 67ZM161 351L269 351 269 555 159 555C161 501 161 448 161 400ZM541 452L541 658 459 658 459 452ZM597 452L680 452 680 658 597 658ZM541 423L459 423 459 239 541 239ZM597 423L597 239 680 239 680 423ZM736 452L820 452 820 658 736 658ZM736 423L736 239 820 239 820 423ZM401 209L401 658 330 658 338 688 951 688C964 688 973 683 975 672 953 645 913 609 913 609L880 657 880 247C898 244 912 236 917 229L846 173 811 209 736 209 736 90C757 87 764 78 766 65L680 55 680 209 597 209 597 89C617 86 624 78 627 65L541 55 541 209 471 209 401 178Z"/>
</svg>