<svg xmlns="http://www.w3.org/2000/svg" name="gid10698" data-unicode="腠"
    viewBox="0 0 1000 1000">
  <!--
© 2017-2024 Adobe (http://www.adobe.com/).
Noto is a trademark of Google Inc.
This Font Software is licensed under the SIL Open Font License, Version 1.1. This Font Software is distributed on an "AS IS" BASIS, WITHOUT WARRANTIES OR CONDITIONS OF ANY KIND, either express or implied. See the SIL Open Font License for the specific language, permissions and limitations governing your use of this Font Software.
http://scripts.sil.org/OFL
  -->
<path d="M164 128L279 128 279 324 164 324ZM103 99L103 379C103 567 102 779 36 950L53 959C122 852 148 718 158 590L279 590 279 856C279 871 274 877 256 877 238 877 153 870 153 870L153 886C191 891 213 899 226 909 238 919 242 937 245 957 330 948 340 915 340 864L340 137C357 133 372 126 377 119L300 60 270 99 177 99 103 66ZM164 354L279 354 279 561 160 561C164 496 164 434 164 378ZM374 683L382 713 588 713C569 808 513 883 351 944L363 961C527 914 603 852 639 773 723 819 827 894 869 956 953 986 961 825 647 754 652 741 656 727 659 713L911 713C925 713 935 708 938 697 905 667 853 626 853 626L808 683 665 683C670 650 673 614 674 575 706 569 736 561 760 554 781 563 797 563 806 555L741 497C677 530 550 570 441 587L446 604C497 602 550 596 599 589 599 622 597 653 593 683ZM587 40C585 83 581 126 575 169L377 169 385 198 571 198C565 230 558 262 550 293L398 293 406 322 542 322C531 356 518 390 503 422L362 422 370 451 488 451C452 517 405 576 343 622L353 634C438 587 499 523 544 451L747 451C791 527 850 585 924 625 932 592 953 572 979 567L980 556C917 535 858 498 808 451L938 451C952 451 961 447 964 436 932 405 879 363 879 363L833 422 780 422C754 392 730 358 712 322L890 322C903 322 913 317 915 307 884 276 832 235 832 235L786 293 616 293C626 262 634 230 641 198L916 198C929 198 940 193 943 183 910 152 859 111 859 111L813 169 647 169C653 138 657 108 661 78 690 75 698 68 700 54ZM691 322C702 358 715 391 731 422L561 422C579 390 593 356 606 322Z"/>
</svg>