<svg xmlns="http://www.w3.org/2000/svg"
    viewBox="0 0 1000 1000">
  <!--
© 2017-2024 Adobe (http://www.adobe.com/).
Noto is a trademark of Google Inc.
This Font Software is licensed under the SIL Open Font License, Version 1.1. This Font Software is distributed on an "AS IS" BASIS, WITHOUT WARRANTIES OR CONDITIONS OF ANY KIND, either express or implied. See the SIL Open Font License for the specific language, permissions and limitations governing your use of this Font Software.
http://scripts.sil.org/OFL
  -->
<path d="M712 383C703 435 669 568 647 645 698 726 729 851 738 919 786 963 876 865 673 642 706 577 757 469 776 419 792 419 802 416 805 405ZM854 385C840 437 790 570 762 645 826 724 870 847 885 918 937 960 1029 859 790 641 829 579 893 473 917 423 934 425 944 421 947 411ZM159 98L268 98 268 294 159 294ZM424 56L433 86 561 86C510 190 427 291 329 363L329 107C346 103 361 96 367 89L290 30 259 69 172 69 99 36 99 397C99 572 101 765 43 916L60 925C130 822 150 688 156 560L268 560 268 828C268 842 263 847 248 847 231 847 159 841 159 841L159 857C193 862 212 869 224 879 234 889 238 906 239 925 320 916 329 885 329 834L329 365 340 380C388 353 433 323 473 289 542 231 599 162 638 86L644 86C691 199 797 296 920 360 928 336 951 315 976 308L979 298C842 254 721 170 672 87 702 87 725 80 735 69L650 12 621 57ZM159 324L268 324 268 531 158 531C159 484 159 438 159 396ZM676 288L473 289 481 317 772 317C785 317 796 312 798 301 767 273 718 236 718 236ZM452 631L445 638 445 443 569 443 569 566C565 542 534 509 456 494L446 503C478 524 514 562 526 593 548 606 566 596 569 577L569 706C566 681 535 646 452 631ZM388 414L388 927 398 927C423 927 445 914 445 907L445 641C478 663 514 701 525 732 548 746 567 735 569 715L569 840C569 852 566 857 554 857 540 857 488 853 488 853L488 869C513 872 528 878 537 887 546 895 550 910 550 926 617 919 625 893 625 846L625 455C644 451 662 443 669 434L589 376 559 414 448 414 388 384Z"/>
</svg>