<svg xmlns="http://www.w3.org/2000/svg" name="gid10744" data-unicode="膨"
    viewBox="0 0 1000 1000">
  <!--
© 2017-2024 Adobe (http://www.adobe.com/).
Noto is a trademark of Google Inc.
This Font Software is licensed under the SIL Open Font License, Version 1.1. This Font Software is distributed on an "AS IS" BASIS, WITHOUT WARRANTIES OR CONDITIONS OF ANY KIND, either express or implied. See the SIL Open Font License for the specific language, permissions and limitations governing your use of this Font Software.
http://scripts.sil.org/OFL
  -->
<path d="M408 639L394 644C413 683 433 745 433 792 485 845 554 735 408 639ZM873 69C829 174 762 271 700 328L714 340C791 295 868 220 923 129 944 133 958 125 963 117ZM883 329C832 441 755 541 685 599L697 612C782 565 867 486 928 390 949 394 963 387 968 378ZM885 605C817 763 698 882 580 945L591 960C726 910 849 815 933 668 954 674 968 667 973 657ZM147 348L246 348 246 551 147 551 147 459ZM147 319L147 128 246 128 246 319ZM88 99L88 460C88 627 94 809 44 946L61 955C129 851 143 711 146 580L246 580 246 859C246 874 242 879 227 879 211 879 137 873 137 873L137 889C171 894 190 901 201 912 212 921 217 940 219 959 297 950 306 918 306 867L306 138C324 135 341 127 348 119L268 59 236 99 159 99 88 67ZM367 403L367 638 375 638C399 638 425 624 425 619L425 589 610 589 610 621 618 621C637 621 668 608 668 601L668 439C684 436 697 429 701 423L633 371 601 403 430 403 367 375ZM425 561L425 433 610 433 610 561ZM481 49L481 166 326 166 334 195 481 195 481 296 346 296 354 324 691 324C704 324 713 319 715 309 688 282 643 246 643 246L604 296 543 296 543 195 709 195C723 195 732 190 735 180 703 151 654 112 654 112L611 166 543 166 543 86C567 83 576 73 578 59ZM331 864L368 939C377 936 385 927 388 915 533 860 643 813 724 779L719 765 563 807C593 763 620 715 637 675 658 675 669 666 673 654L580 630C570 686 552 760 532 815 444 838 371 857 331 864Z"/>
</svg>