<svg xmlns="http://www.w3.org/2000/svg"
    viewBox="0 0 1000 1000">
  <!--
© 2017-2023 Adobe (http://www.adobe.com/).
Noto is a trademark of Google Inc.
This Font Software is licensed under the SIL Open Font License, Version 1.1. This Font Software is distributed on an "AS IS" BASIS, WITHOUT WARRANTIES OR CONDITIONS OF ANY KIND, either express or implied. See the SIL Open Font License for the specific language, permissions and limitations governing your use of this Font Software.
http://scripts.sil.org/OFL
  -->
<path d="M146 321L244 321 244 528 145 528 146 405ZM146 292L146 98 244 98 244 292ZM87 69L87 406C87 577 93 768 43 916L61 925C124 821 140 685 145 557L244 557 244 829C244 844 240 849 225 849 209 849 135 843 135 843L135 859C169 864 188 870 200 881 210 891 215 908 217 927 295 918 304 887 304 836L304 108C322 105 339 97 346 89L266 29 234 69 158 69 87 37ZM591 19L591 142 332 142 340 171 941 171C955 171 964 166 966 155 935 125 882 83 882 83L835 142 654 142 654 55C676 51 685 42 687 29ZM513 339C479 427 424 548 376 636L310 642 349 721C360 718 367 712 372 699L495 651C470 750 424 849 348 916L359 929C486 846 543 708 570 590 590 589 602 581 606 567L514 547C511 571 507 597 502 622L404 633C462 556 523 458 560 387 580 390 593 382 598 371ZM342 317L330 323C359 361 393 422 397 470 440 508 486 441 415 369 446 333 481 284 508 240 529 241 541 233 545 223L457 191C439 247 416 308 397 352 382 340 364 328 342 317ZM669 360L683 359 672 355C690 320 705 283 719 246 741 247 752 238 756 226L663 199C636 315 589 434 542 510L557 520C577 500 596 477 614 452L614 927 623 927C650 927 670 911 670 907L670 870 950 870C963 870 972 865 975 854 949 826 906 790 906 790L868 840 813 840 813 702 926 702C939 702 948 697 951 686 928 662 892 628 892 628L859 673 813 673 813 546 926 546C939 546 948 541 951 530 928 505 892 472 892 472L859 516 813 516 813 390 940 390C953 390 962 385 965 374 940 348 899 314 899 314L864 360 781 360C808 326 835 286 852 256 874 257 886 249 890 237L797 211C787 255 770 315 755 360ZM670 390L757 390 757 516 670 516ZM670 546L757 546 757 673 670 673ZM670 702L757 702 757 840 670 840Z"/>
</svg>