<svg xmlns="http://www.w3.org/2000/svg" name="gid10770" data-unicode="臏"
    viewBox="0 0 1000 1000">
  <!--
© 2017-2024 Adobe (http://www.adobe.com/).
Noto is a trademark of Google Inc.
This Font Software is licensed under the SIL Open Font License, Version 1.1. This Font Software is distributed on an "AS IS" BASIS, WITHOUT WARRANTIES OR CONDITIONS OF ANY KIND, either express or implied. See the SIL Open Font License for the specific language, permissions and limitations governing your use of this Font Software.
http://scripts.sil.org/OFL
  -->
<path d="M522 303C493 345 430 402 372 435L382 449C451 427 522 386 561 351 582 357 590 353 597 343ZM592 810C545 858 446 913 359 941L367 956C468 941 576 903 634 862 654 868 662 865 669 856ZM732 816L726 832C808 865 865 907 894 944 953 999 1063 865 732 816ZM448 115C446 153 419 197 395 213 376 227 366 246 375 264 387 283 420 280 437 264 454 249 467 220 470 181L874 181 852 240 816 212 782 251 483 251 491 281 641 281 641 423C605 439 567 454 529 468L464 440 464 489C431 499 398 507 365 514L371 531C402 527 433 522 464 515L464 833 474 833C506 833 525 817 525 812L525 782 833 782 833 818 843 818C865 818 895 800 896 792L896 505C910 503 924 496 929 489L858 435 825 469 636 469C732 437 816 397 871 355 892 363 901 361 908 352L838 303C804 334 756 366 701 394L701 281 856 281C870 281 879 276 881 265L857 244 865 248C889 234 924 208 944 191 963 190 974 188 981 181L911 112 873 152 703 152 703 79C727 76 737 66 739 52L639 42 639 152 471 152C470 141 468 129 466 116ZM525 594L833 594 833 658 525 658ZM525 565L525 501 534 499 833 499 833 565ZM525 688L833 688 833 753 525 753ZM164 128L283 128 283 324 164 324ZM103 99L103 379C103 567 102 779 36 950L53 959C122 852 148 718 158 590L283 590 283 856C283 871 279 877 261 877 243 877 157 870 157 870L157 886C196 892 218 899 231 910 243 920 247 938 250 958 335 948 344 916 344 864L344 137C362 133 376 126 382 119L305 60 274 99 177 99 103 66ZM164 354L283 354 283 561 160 561C164 496 164 434 164 378Z"/>
</svg>