<svg xmlns="http://www.w3.org/2000/svg" name="gid10771" data-unicode="臑"
    viewBox="0 0 1000 1000">
  <!--
© 2017-2024 Adobe (http://www.adobe.com/).
Noto is a trademark of Google Inc.
This Font Software is licensed under the SIL Open Font License, Version 1.1. This Font Software is distributed on an "AS IS" BASIS, WITHOUT WARRANTIES OR CONDITIONS OF ANY KIND, either express or implied. See the SIL Open Font License for the specific language, permissions and limitations governing your use of this Font Software.
http://scripts.sil.org/OFL
  -->
<path d="M420 305L428 334 572 334C586 334 595 329 597 318 574 294 537 263 537 263L503 305ZM698 404L705 433 894 433C907 433 916 428 919 417 895 392 855 361 855 361L822 404ZM393 404L401 433 576 433C590 433 599 428 601 417 577 393 539 362 539 362L506 404ZM158 128L269 128 269 321 158 321ZM98 99L98 427C98 602 101 795 43 946L61 955C130 850 150 712 156 582L269 582 269 860C269 874 264 879 249 879 234 879 162 873 162 873L162 889C195 894 214 900 226 911 236 921 239 938 241 956 319 948 328 917 328 867L328 137C346 133 361 126 366 119L290 60 260 99 170 99 98 67ZM158 351L269 351 269 553 157 553 158 426ZM412 161C413 199 389 246 367 264 347 278 337 298 346 316 358 337 390 334 407 319 424 303 437 272 438 231L617 231 617 485 626 485C657 485 678 470 678 466L678 231 861 231 846 285 821 263 787 305 700 305 707 334 858 334C872 334 880 329 883 318L865 301C888 285 917 260 935 242 953 241 965 239 971 232L897 160 857 201 678 201 678 129 905 129C919 129 928 124 931 114 898 84 847 45 847 45L802 100 402 100 410 129 617 129 617 201 437 201C436 188 433 175 430 161ZM397 618L397 957 406 957C431 957 455 943 455 937L455 647 546 647 546 943 555 943C583 943 602 929 602 925L602 647 693 647 693 943 702 943C731 943 750 929 750 925L750 647 845 647 845 861C845 872 842 878 830 878 817 878 767 873 767 873L767 890C792 893 807 900 816 910 823 920 827 938 827 956 897 948 905 919 905 868L905 654C920 651 933 644 938 638L865 584 837 618 614 618C633 593 654 559 671 530L936 530C949 530 960 525 962 514 933 488 888 452 888 452L847 501 353 501 361 530 600 530 576 618 461 618 397 589Z"/>
</svg>