<svg xmlns="http://www.w3.org/2000/svg" name="gid10776" data-unicode="臘"
    viewBox="0 0 1000 1000">
  <!--
© 2017-2024 Adobe (http://www.adobe.com/).
Noto is a trademark of Google Inc.
This Font Software is licensed under the SIL Open Font License, Version 1.1. This Font Software is distributed on an "AS IS" BASIS, WITHOUT WARRANTIES OR CONDITIONS OF ANY KIND, either express or implied. See the SIL Open Font License for the specific language, permissions and limitations governing your use of this Font Software.
http://scripts.sil.org/OFL
  -->
<path d="M480 605L470 615C495 629 523 655 535 676 579 701 610 618 480 605ZM477 713L467 723C493 736 522 763 535 783 579 807 610 723 477 713ZM679 612L669 622C695 636 726 662 740 684 784 708 813 624 679 612ZM677 719L667 729C694 744 728 773 741 797 786 822 815 736 677 719ZM452 43C443 65 412 125 392 157 430 188 453 234 458 265 511 301 585 208 418 154 447 134 495 99 513 82 527 85 536 80 539 72ZM631 43C623 65 587 125 567 157 607 188 631 235 637 265 687 299 755 212 595 154 623 133 669 98 687 81 702 83 710 78 713 70ZM794 568C795 710 800 840 882 931 904 953 950 972 968 946 976 934 973 923 955 897L963 799 952 797C943 824 932 856 926 870 920 883 915 883 909 874 853 808 852 695 854 600 874 597 882 587 883 577ZM146 348L243 348 243 550 145 550 146 435ZM146 319L146 128 243 128 243 319ZM87 99L87 436C87 607 92 798 43 946L60 955C125 849 141 709 145 579L243 579 243 859C243 874 239 879 224 879 207 879 131 873 131 873L131 889C166 894 186 900 198 911 208 920 213 938 215 957 295 948 303 917 303 866L303 138C321 135 338 127 345 119L265 59 234 99 157 99 87 67ZM512 341L506 359C543 371 578 385 610 400 561 428 508 452 460 469L469 486C529 471 595 447 652 420 697 443 732 467 753 484 789 497 808 448 698 397 720 385 739 372 755 359 771 365 783 364 789 355L732 320 839 320 839 495 434 495 434 320 721 320C701 339 676 359 648 377 612 364 567 352 512 341ZM813 43C802 64 761 125 738 155 779 186 807 231 814 262 826 270 839 272 850 268L829 291 447 291 373 259 373 563 383 563C414 563 434 547 434 542L434 524 839 524 839 558 849 558C869 558 901 542 902 535L902 331C920 327 937 319 943 312L869 255C885 231 870 185 766 153 797 133 849 100 870 84 885 87 894 82 897 75ZM310 879L348 955C358 952 366 945 370 932 466 894 538 862 587 840L584 826 456 852 456 599C476 596 484 587 485 577L398 568 398 863ZM560 876L596 952C606 950 614 942 618 929 704 894 769 864 814 843L810 829 660 858 660 598C680 595 687 587 689 576L605 568 605 869Z"/>
</svg>