<svg xmlns="http://www.w3.org/2000/svg" name="gid10779" data-unicode="臛"
    viewBox="0 0 1000 1000">
  <!--
© 2017-2024 Adobe (http://www.adobe.com/).
Noto is a trademark of Google Inc.
This Font Software is licensed under the SIL Open Font License, Version 1.1. This Font Software is distributed on an "AS IS" BASIS, WITHOUT WARRANTIES OR CONDITIONS OF ANY KIND, either express or implied. See the SIL Open Font License for the specific language, permissions and limitations governing your use of this Font Software.
http://scripts.sil.org/OFL
  -->
<path d="M431 306L438 335 574 335C587 335 596 330 598 319 575 296 540 269 540 269L509 306ZM413 400L421 429 578 429C591 429 600 424 602 413 578 390 543 363 543 363L511 400ZM709 306L716 335 859 335C872 335 881 330 884 319 860 296 824 268 824 268L792 306ZM708 400L715 429 881 429C895 429 903 424 906 413 881 389 844 361 844 361L811 400ZM159 128L271 128 271 324 159 324ZM762 471L667 450C660 481 648 526 638 557L499 557 493 555C512 528 528 502 541 477 565 478 573 473 577 462L483 441C452 528 391 642 332 706L332 137C349 133 364 126 370 119L293 60 262 99 172 99 99 66 99 427C99 602 101 795 43 946L60 955C130 852 150 718 156 590L271 590 271 858C271 872 266 877 252 877 235 877 162 871 162 871L162 887C196 892 215 899 227 910 237 920 241 938 243 957 323 948 332 917 332 865L332 708 344 717C372 696 399 670 425 641L425 957 435 957C465 957 486 941 486 935L486 905 939 905C953 905 963 900 965 889 933 861 884 827 884 827L841 875 697 875 697 796 908 796C922 796 931 791 934 780 904 755 859 723 859 723L819 768 697 768 697 691 899 691C911 691 921 686 924 675 895 649 850 618 850 618L811 661 697 661 697 586 926 586C940 586 950 581 952 570 921 544 875 510 875 510L833 557 674 557C692 536 711 511 724 492 745 493 758 485 762 471ZM159 354L271 354 271 561 158 561C159 514 159 468 159 426ZM399 107L407 136 625 136 625 208 429 208C427 197 425 186 421 174L403 174C405 211 383 254 360 270 341 282 330 302 339 320 350 341 381 338 399 324 417 310 431 279 431 238L625 238 625 456 633 456C647 456 658 453 667 450 678 446 684 441 684 439L684 238 873 238 859 287 873 293C894 283 922 263 938 247 956 245 967 244 975 237L905 170 869 208 684 208 684 136 929 136C943 136 953 131 956 120 922 90 869 50 869 50L822 107ZM637 586L637 661 486 661 486 586ZM637 875L486 875 486 796 637 796ZM637 691L637 768 486 768 486 691Z"/>
</svg>