<svg xmlns="http://www.w3.org/2000/svg" name="gid10789" data-unicode="臨"
    viewBox="0 0 1000 1000">
  <!--
© 2017-2024 Adobe (http://www.adobe.com/).
Noto is a trademark of Google Inc.
This Font Software is licensed under the SIL Open Font License, Version 1.1. This Font Software is distributed on an "AS IS" BASIS, WITHOUT WARRANTIES OR CONDITIONS OF ANY KIND, either express or implied. See the SIL Open Font License for the specific language, permissions and limitations governing your use of this Font Software.
http://scripts.sil.org/OFL
  -->
<path d="M146 162L229 162 229 336 146 336ZM431 614L431 803C406 779 377 756 377 756L337 811 287 811 287 597 340 597 340 636 352 636C374 636 398 623 400 619L400 376C416 373 430 365 437 358L373 301 342 336 288 336 288 162 433 162C446 162 456 157 458 146 427 116 374 73 374 73L328 133 158 133 86 95 86 941 95 941C125 941 146 924 146 919L146 840 427 840 431 839 431 958 439 958C463 958 488 944 488 938L488 890 591 890 591 949 599 949C618 949 646 935 647 929L647 650C663 646 677 640 682 634L614 581 582 614 493 614 431 585ZM146 811L146 597 229 597 229 811ZM146 365L340 365 340 568 146 568ZM591 860L488 860 488 644 591 644ZM516 304L516 558 526 558C557 558 577 543 577 538L577 505 798 505 798 546 808 546C836 546 860 532 860 528L860 336C879 332 889 327 896 320L826 267 795 304 587 304 516 273ZM577 475L577 332 798 332 798 475ZM704 614L704 955 713 955C737 955 762 941 762 935L762 891 874 891 874 949 882 949C901 949 930 935 931 928L931 649C946 646 958 640 963 634L896 582 865 614 766 614 704 585ZM874 862L762 862 762 644 874 644ZM548 44C524 148 477 263 424 331L440 342C482 306 521 258 552 205L930 205C944 205 955 200 957 189 924 159 872 116 872 116L824 176 569 176C584 149 597 121 608 94 628 94 640 86 644 74Z"/>
</svg>