<svg xmlns="http://www.w3.org/2000/svg" name="gid10799" data-unicode="致"
    viewBox="0 0 1000 1000">
  <!--
© 2017-2024 Adobe (http://www.adobe.com/).
Noto is a trademark of Google Inc.
This Font Software is licensed under the SIL Open Font License, Version 1.1. This Font Software is distributed on an "AS IS" BASIS, WITHOUT WARRANTIES OR CONDITIONS OF ANY KIND, either express or implied. See the SIL Open Font License for the specific language, permissions and limitations governing your use of this Font Software.
http://scripts.sil.org/OFL
  -->
<path d="M44 376L77 463C87 461 97 454 103 443 233 414 333 388 408 369 417 388 424 407 426 425 493 476 545 328 331 247L320 255C347 280 376 314 397 350L172 369C208 310 249 230 281 160L497 160C511 160 521 155 523 144 491 113 438 73 438 73L392 131 47 131 55 160 201 160C184 226 158 311 135 371ZM42 833L83 924C92 921 102 912 106 900 293 843 429 796 527 761L524 745 302 788 302 615 479 615C493 615 502 610 505 599 472 569 420 528 420 528L374 586 302 586 302 486C326 482 336 473 338 458L237 448 237 586 66 586 74 615 237 615 237 800C152 816 83 828 42 833ZM601 42C570 221 505 391 430 504L445 513C490 470 530 416 565 354 585 477 615 591 665 690 602 788 516 873 397 944L406 957C531 900 624 828 693 742 745 828 813 901 905 958 916 928 938 913 968 908L971 899C867 849 788 779 728 694 804 582 846 448 869 295L938 295C953 295 963 290 965 279 932 248 879 206 879 206L832 266 609 266C633 211 654 153 671 91 693 90 704 81 708 68ZM694 640C640 547 605 440 581 324L596 295 793 295C778 422 747 538 694 640Z"/>
</svg>