<svg xmlns="http://www.w3.org/2000/svg"
    viewBox="0 0 1000 1000">
  <!--
© 2017-2023 Adobe (http://www.adobe.com/).
Noto is a trademark of Google Inc.
This Font Software is licensed under the SIL Open Font License, Version 1.1. This Font Software is distributed on an "AS IS" BASIS, WITHOUT WARRANTIES OR CONDITIONS OF ANY KIND, either express or implied. See the SIL Open Font License for the specific language, permissions and limitations governing your use of this Font Software.
http://scripts.sil.org/OFL
  -->
<path d="M473 284L473 350 281 350 281 284ZM488 160L460 254 294 254 287 251C300 232 312 214 323 196 345 199 353 196 356 187 378 185 395 179 395 173L395 128 598 128 598 186 609 186C641 186 662 175 662 170L662 128 912 128C926 128 937 123 939 112 907 82 855 42 855 42L810 98 662 98 662 46C687 42 696 33 698 19L598 9 598 98 395 98 395 46C420 42 429 33 430 20L331 9 331 98 61 98 67 128 331 128 331 176 267 157C225 256 143 373 58 440L70 452C122 422 173 380 217 334L217 624 228 624C260 624 281 608 281 602L281 575 874 575C887 575 897 570 899 559 868 532 820 496 820 496L777 546 536 546 536 477 784 477C798 477 807 472 810 461 780 435 736 402 736 402L696 448 536 448 536 380 777 380C791 380 801 375 804 364 774 338 729 305 729 305L689 350 536 350 536 284 832 284C845 284 854 279 857 268 826 240 776 205 776 205L733 254 504 254 550 203C571 203 583 196 587 182ZM473 546L281 546 281 477 473 477ZM473 380L473 448 281 448 281 380ZM551 747L560 776 772 776 772 846 238 846 238 777 474 777C487 777 496 772 499 761 472 736 428 704 428 704L389 747 238 747 238 684C314 677 396 661 449 646 470 654 486 655 494 647L431 591C391 611 320 638 252 658L174 633 174 928 183 928C219 928 236 913 238 909L238 876 772 876 772 923 782 923C803 923 835 909 836 902L836 688C853 685 869 678 874 671L798 612 763 650 536 650 545 679 772 679 772 747Z"/>
</svg>