<svg xmlns="http://www.w3.org/2000/svg" name="gid10830" data-unicode="舗"
    viewBox="0 0 1000 1000">
  <!--
© 2017-2024 Adobe (http://www.adobe.com/).
Noto is a trademark of Google Inc.
This Font Software is licensed under the SIL Open Font License, Version 1.1. This Font Software is distributed on an "AS IS" BASIS, WITHOUT WARRANTIES OR CONDITIONS OF ANY KIND, either express or implied. See the SIL Open Font License for the specific language, permissions and limitations governing your use of this Font Software.
http://scripts.sil.org/OFL
  -->
<path d="M221 228L221 355 95 355 102 384 221 384 221 504 51 504 59 533 434 533C448 533 457 528 460 517 431 488 382 450 382 450L340 504 282 504 282 384 421 384C434 384 444 380 447 369 419 341 374 304 374 304L334 355 282 355 282 263C305 260 313 252 315 238ZM100 612L100 957 109 957C135 957 162 942 162 936L162 878 339 878 339 933 348 933C368 933 400 918 401 912L401 652C419 648 435 641 441 634L363 574 329 612 167 612 100 582ZM339 849L162 849 162 642 339 642ZM658 530L658 667 535 667 535 530ZM720 530L848 530 848 667 720 667ZM658 501L535 501 535 366 658 366ZM720 501L720 366 848 366 848 501ZM474 336L474 956 485 956C512 956 535 941 535 933L535 697 658 697 658 951 670 951C694 951 720 935 720 925L720 697 848 697 848 864C848 877 844 881 830 881 817 881 758 877 758 877L758 893C787 896 804 904 813 913 821 922 825 939 827 957 901 949 910 921 910 871L910 378C930 375 947 366 953 358L870 296 838 336 720 336 720 236 938 236C952 236 961 231 964 220 935 192 887 154 884 152 901 128 881 73 769 62L760 71C789 92 826 128 839 158 852 165 864 165 872 161L837 207 720 207 720 83C745 79 753 69 756 55L658 45 658 207 446 207 454 236 658 236 658 336 541 336 474 305ZM284 92C305 91 313 84 316 74L222 41C189 144 103 303 21 390L34 401C133 327 219 206 270 108 323 157 363 212 381 253 435 293 508 179 284 92Z"/>
</svg>