<svg xmlns="http://www.w3.org/2000/svg" name="gid10831" data-unicode="舘"
    viewBox="0 0 1000 1000">
  <!--
© 2017-2024 Adobe (http://www.adobe.com/).
Noto is a trademark of Google Inc.
This Font Software is licensed under the SIL Open Font License, Version 1.1. This Font Software is distributed on an "AS IS" BASIS, WITHOUT WARRANTIES OR CONDITIONS OF ANY KIND, either express or implied. See the SIL Open Font License for the specific language, permissions and limitations governing your use of this Font Software.
http://scripts.sil.org/OFL
  -->
<path d="M514 314L514 960 524 960C553 960 576 944 576 936L576 876 834 876 834 945 844 945C865 945 897 930 898 925L898 677C916 674 932 666 937 659L860 599 824 638 576 638 576 528 804 528 804 583 814 583C834 583 866 570 867 563L867 353C885 350 900 342 905 336L828 277 794 314 581 314 514 283ZM804 499L576 499 576 344 804 344ZM501 127C502 168 481 214 456 232 438 244 427 264 436 282 448 303 479 299 497 284 513 269 526 240 527 200L868 200 847 279 860 287C884 267 917 233 937 211 956 210 966 208 973 200L902 130 863 171 720 171 720 80C743 76 752 66 753 53L656 44 656 171 526 171C525 157 522 143 518 127ZM834 667L834 846 576 846 576 667ZM91 640L91 960 100 960C125 960 152 945 152 939L152 883 344 883 344 935 354 935C374 935 405 921 406 915L406 679C425 676 440 668 447 661L369 602 335 640 278 640 278 503 431 503C444 503 453 498 456 487 427 458 379 420 379 420L337 473 278 473 278 338 396 338C409 338 419 333 421 322 392 295 346 258 346 258L305 309 130 309C187 245 236 172 270 108 323 157 363 212 381 253 435 293 508 179 284 92 305 91 313 84 316 74L222 41C189 143 103 301 20 388L33 399C62 378 90 352 116 324L120 338 216 338 216 473 46 473 54 503 216 503 216 640 157 640 91 610ZM344 853L152 853 152 669 344 669Z"/>
</svg>