<svg xmlns="http://www.w3.org/2000/svg" name="gid10837" data-unicode="舞"
    viewBox="0 0 1000 1000">
  <!--
© 2017-2024 Adobe (http://www.adobe.com/).
Noto is a trademark of Google Inc.
This Font Software is licensed under the SIL Open Font License, Version 1.1. This Font Software is distributed on an "AS IS" BASIS, WITHOUT WARRANTIES OR CONDITIONS OF ANY KIND, either express or implied. See the SIL Open Font License for the specific language, permissions and limitations governing your use of this Font Software.
http://scripts.sil.org/OFL
  -->
<path d="M265 37C228 118 157 215 88 272L99 284C142 260 186 227 225 191L225 300 51 300 60 329 225 329 225 458 68 458 77 487 922 487C936 487 945 482 948 471 917 442 867 402 867 402L823 458 776 458 776 329 933 329C946 329 956 324 958 313 929 283 880 242 880 242L836 300 776 300 776 177 882 177C896 177 905 172 908 161 876 130 823 89 823 89L777 148 268 148C291 124 310 100 326 78 351 81 359 77 363 67ZM287 329L387 329 387 458 287 458ZM287 300L287 177 387 177 387 300ZM448 329L551 329 551 458 448 458ZM448 300L448 177 551 177 551 300ZM612 329L715 329 715 458 612 458ZM612 300L612 177 715 177 715 300ZM256 488C216 581 133 685 47 744L58 758C99 738 138 711 174 682 203 710 236 749 247 781 257 788 266 790 274 789 215 852 140 905 48 945L58 961C264 893 387 768 454 612 466 612 475 611 481 609L486 627 533 627 533 774 423 774 431 802 701 802 701 957 713 957C737 957 765 944 765 935L765 802 932 802C946 802 955 797 958 786 929 758 881 718 881 718L839 774 765 774 765 627 892 627C906 627 915 622 918 611 891 583 845 546 845 546L806 598 765 598 765 531C786 527 795 518 797 506L701 496 701 598 493 598 427 540 387 577 277 577C291 560 303 543 313 527 337 529 345 525 350 515ZM593 627L701 627 701 774 593 774ZM253 606L387 606C366 662 336 714 297 762 299 735 273 694 190 668 213 648 234 627 253 606Z"/>
</svg>