<svg xmlns="http://www.w3.org/2000/svg"
    viewBox="0 0 1000 1000">
  <!--
© 2017-2024 Adobe (http://www.adobe.com/).
Noto is a trademark of Google Inc.
This Font Software is licensed under the SIL Open Font License, Version 1.1. This Font Software is distributed on an "AS IS" BASIS, WITHOUT WARRANTIES OR CONDITIONS OF ANY KIND, either express or implied. See the SIL Open Font License for the specific language, permissions and limitations governing your use of this Font Software.
http://scripts.sil.org/OFL
  -->
<path d="M204 511L204 772 213 772C231 772 251 759 251 752L251 541C269 538 276 531 277 519ZM194 217L180 225C208 274 216 345 218 384 254 435 330 328 194 217ZM561 381L561 487 474 487 474 381ZM617 381L706 381 706 487 617 487ZM561 351L474 351 474 255 561 255ZM617 351L617 255 706 255 706 351ZM763 381L854 381 854 487 763 487ZM763 351L763 255 854 255 854 351ZM525 741L805 741 805 840 525 840ZM525 711L525 615 805 615 805 711ZM464 587L464 928 473 928C506 928 525 913 525 908L525 869 805 869 805 921 815 921C844 921 868 907 868 902L868 620C888 617 898 611 904 604L834 549 802 587 537 587 464 555ZM217 11C212 51 202 113 194 149L169 149 101 117 101 455 32 462 58 537C68 535 77 528 82 515L101 511C101 656 96 805 39 923L56 932C148 812 157 641 158 497L304 461 304 829C304 844 300 849 285 849 268 849 191 842 191 842L191 859C226 864 246 871 258 881 269 890 273 907 276 925 353 916 362 886 362 837L362 445 416 431 416 563 425 563C455 563 474 548 474 544L474 516 854 516 854 551 863 551C891 551 914 539 914 534L914 259C933 256 944 250 950 243L881 190 851 226 763 226 763 152 945 152C959 152 968 148 970 137 939 107 887 67 887 67L841 123 763 123 763 51C783 48 791 39 793 26L706 17 706 123 617 123 617 53C638 50 645 41 647 28L561 18 561 123 389 123 397 152 561 152 561 226 486 226 416 196 416 425 414 414 362 421 362 187C379 183 394 176 400 168L325 111 295 149 221 149 279 52C299 52 311 43 314 30ZM617 152L706 152 706 226 617 226ZM158 177L304 177 304 429 158 448Z"/>
</svg>