<svg xmlns="http://www.w3.org/2000/svg" name="gid10878" data-unicode="艣"
    viewBox="0 0 1000 1000">
  <!--
© 2017-2024 Adobe (http://www.adobe.com/).
Noto is a trademark of Google Inc.
This Font Software is licensed under the SIL Open Font License, Version 1.1. This Font Software is distributed on an "AS IS" BASIS, WITHOUT WARRANTIES OR CONDITIONS OF ANY KIND, either express or implied. See the SIL Open Font License for the specific language, permissions and limitations governing your use of this Font Software.
http://scripts.sil.org/OFL
  -->
<path d="M209 541L209 794 219 794C237 794 258 782 258 775L258 572C276 569 283 561 284 550ZM199 250L186 258C211 301 219 364 221 398 256 450 333 347 199 250ZM161 202L311 202 311 451 161 470ZM219 41C214 79 204 137 197 173L172 173 102 141 102 476 34 482 57 558C67 556 77 548 82 536L102 532C102 678 97 829 39 947L56 957C152 835 160 664 161 519L311 482 311 864C311 877 307 882 293 882 278 882 208 877 208 877L208 893C239 898 258 904 269 914 279 923 284 940 285 957 361 949 369 920 369 870L369 468 418 455 416 438 369 444 369 211C386 207 401 200 407 193L332 135 302 173 227 173C245 146 268 109 283 81 304 80 315 72 318 57ZM672 683C672 707 669 730 664 752L491 752 500 780 657 780C634 847 581 905 470 943L477 958C625 920 689 855 716 780L845 780C838 838 828 871 816 881 810 886 802 888 788 888 771 888 721 883 693 881L692 898C718 901 746 908 756 917 766 925 769 942 769 957 800 957 829 950 849 937 880 916 896 869 903 787 922 784 934 779 941 773L871 717 838 752 725 752 731 720C752 718 763 712 766 697ZM684 644L596 644 596 580 684 580ZM738 644L738 580 828 580 828 644ZM684 490L684 552 596 552 596 490ZM509 323L518 352 626 345 626 372C626 412 636 425 703 425L791 425C922 425 947 417 947 393 947 382 941 377 921 371L918 318 906 318C899 342 891 364 885 371 881 376 876 376 868 376 856 377 828 377 794 377L715 377C687 377 684 376 684 364L684 341 829 331C840 331 850 324 851 313 826 293 784 263 784 263L753 307 684 312 684 247 876 247C869 269 859 294 852 310L867 317C890 303 922 276 941 255 959 254 970 253 978 247L909 180 873 218 685 218 685 161 914 161C929 161 938 156 941 145 908 115 857 74 857 74L813 131 685 131 685 73C708 69 716 60 718 47L627 38 627 218 499 218 431 186 431 461C431 620 433 797 375 941L391 952C463 843 481 704 486 580L541 580 541 711 550 711C573 711 596 699 596 694L596 673 828 673 828 705 836 705C856 705 884 690 885 683L885 580 955 580C968 580 977 576 979 565 955 539 914 507 914 507L885 544 885 494C899 492 911 486 916 479L851 429 821 460 601 460 541 433 541 552 487 552 488 461 488 247 626 247 626 315ZM738 490L828 490 828 552 738 552Z"/>
</svg>