<svg xmlns="http://www.w3.org/2000/svg"
    viewBox="0 0 1000 1000">
  <!--
© 2017-2023 Adobe (http://www.adobe.com/).
Noto is a trademark of Google Inc.
This Font Software is licensed under the SIL Open Font License, Version 1.1. This Font Software is distributed on an "AS IS" BASIS, WITHOUT WARRANTIES OR CONDITIONS OF ANY KIND, either express or implied. See the SIL Open Font License for the specific language, permissions and limitations governing your use of this Font Software.
http://scripts.sil.org/OFL
  -->
<path d="M209 511L209 764 219 764C237 764 258 752 258 745L258 542C276 539 283 531 284 520ZM199 220L186 228C211 271 219 334 221 368 256 420 333 317 199 220ZM161 172L311 172 311 421 161 440ZM219 11C214 49 204 107 197 143L172 143 102 111 102 446 34 452 57 528C67 526 77 518 82 506L102 502C102 648 97 799 39 917L56 927C152 805 160 634 161 489L311 452 311 834C311 847 307 852 293 852 278 852 208 847 208 847L208 863C239 868 258 874 269 884 279 893 284 910 285 927 361 919 369 890 369 840L369 438 418 425 416 408 369 414 369 181C386 177 401 170 407 163L332 105 302 143 227 143C245 116 268 79 283 51 304 50 315 42 318 27ZM672 653C672 677 669 700 664 722L491 722 500 750 657 750C634 817 581 875 470 913L477 928C625 890 689 825 716 750L845 750C838 808 828 841 816 851 810 856 802 858 788 858 771 858 721 853 693 851L692 868C718 871 746 878 756 887 766 895 769 912 769 927 800 927 829 920 849 907 880 886 896 839 903 757 922 754 934 749 941 743L871 687 838 722 725 722 731 690C752 688 763 682 766 667ZM684 614L596 614 596 550 684 550ZM738 614L738 550 828 550 828 614ZM684 460L684 522 596 522 596 460ZM509 293L518 322 626 315 626 342C626 382 636 395 703 395L791 395C922 395 947 387 947 363 947 352 941 347 921 341L918 288 906 288C899 312 891 334 885 341 881 346 876 346 868 346 856 347 828 347 794 347L715 347C687 347 684 346 684 334L684 311 829 301C840 301 850 294 851 283 826 263 784 233 784 233L753 277 684 282 684 217 876 217C869 239 859 264 852 280L867 287C890 273 922 246 941 225 959 224 970 223 978 217L909 150 873 188 685 188 685 131 914 131C929 131 938 126 941 115 908 85 857 44 857 44L813 101 685 101 685 43C708 39 716 30 718 17L627 8 627 188 499 188 431 156 431 431C431 590 433 767 375 911L391 922C463 813 481 674 486 550L541 550 541 681 550 681C573 681 596 669 596 664L596 643 828 643 828 675 836 675C856 675 884 660 885 653L885 550 955 550C968 550 977 546 979 535 955 509 914 477 914 477L885 514 885 464C899 462 911 456 916 449L851 399 821 430 601 430 541 403 541 522 487 522 488 431 488 217 626 217 626 285ZM738 460L828 460 828 522 738 522Z"/>
</svg>