<svg xmlns="http://www.w3.org/2000/svg" name="gid10907" data-unicode="芍"
    viewBox="0 0 1000 1000">
  <!--
© 2017-2024 Adobe (http://www.adobe.com/).
Noto is a trademark of Google Inc.
This Font Software is licensed under the SIL Open Font License, Version 1.1. This Font Software is distributed on an "AS IS" BASIS, WITHOUT WARRANTIES OR CONDITIONS OF ANY KIND, either express or implied. See the SIL Open Font License for the specific language, permissions and limitations governing your use of this Font Software.
http://scripts.sil.org/OFL
  -->
<path d="M299 509L289 518C358 570 442 658 464 732 549 785 592 598 299 509ZM41 163L47 191 318 191 318 284 248 258C204 413 124 558 44 648L58 658C135 601 205 518 262 418L792 418C781 648 757 830 722 862 711 872 701 875 680 875 656 875 569 867 517 862L516 879C561 886 613 897 630 909 646 920 651 939 651 958 700 959 741 945 769 916 819 868 845 678 857 427 879 424 891 419 898 411L822 347 782 388 279 388C291 364 303 339 314 314 333 316 344 309 349 299 367 295 383 288 383 282L383 191 608 191 608 298 619 298C650 297 673 284 673 278L673 191 928 191C943 191 953 186 955 176 924 146 868 102 868 102L821 163 673 163 673 78C698 75 707 65 709 51L608 42 608 163 383 163 383 78C408 75 417 65 418 51L318 42 318 163Z"/>
</svg>