<svg xmlns="http://www.w3.org/2000/svg" name="gid10910" data-unicode="芒"
    viewBox="0 0 1000 1000">
  <!--
© 2017-2024 Adobe (http://www.adobe.com/).
Noto is a trademark of Google Inc.
This Font Software is licensed under the SIL Open Font License, Version 1.1. This Font Software is distributed on an "AS IS" BASIS, WITHOUT WARRANTIES OR CONDITIONS OF ANY KIND, either express or implied. See the SIL Open Font License for the specific language, permissions and limitations governing your use of this Font Software.
http://scripts.sil.org/OFL
  -->
<path d="M41 165L48 194 301 194 301 308 311 308C337 308 366 298 366 289L366 194 624 194 624 305 635 305C668 304 690 292 690 284L690 194 929 194C943 194 953 189 955 179 924 148 868 104 868 104L820 165 690 165 690 79C715 76 723 66 725 52L624 42 624 165 366 165 366 79C390 76 399 66 401 52L301 42 301 165ZM152 426L152 845C152 920 186 934 316 934L542 934C842 934 890 925 890 887 890 874 880 867 847 858L842 857 831 857C821 861 807 864 798 866 788 867 774 868 757 869 730 872 643 873 547 873L313 873C228 873 218 863 218 835L218 455 882 455C896 455 905 451 908 440 871 406 811 359 811 359L757 426 531 426 531 309C554 306 563 297 565 284L467 273 467 426 231 426 152 392Z"/>
</svg>