<svg xmlns="http://www.w3.org/2000/svg" name="gid10922" data-unicode="芣"
    viewBox="0 0 1000 1000">
  <!--
© 2017-2024 Adobe (http://www.adobe.com/).
Noto is a trademark of Google Inc.
This Font Software is licensed under the SIL Open Font License, Version 1.1. This Font Software is distributed on an "AS IS" BASIS, WITHOUT WARRANTIES OR CONDITIONS OF ANY KIND, either express or implied. See the SIL Open Font License for the specific language, permissions and limitations governing your use of this Font Software.
http://scripts.sil.org/OFL
  -->
<path d="M41 163L48 192 309 192 309 301 319 301C345 301 374 292 374 283L374 192 618 192 618 299 628 299C660 298 683 285 683 279L683 192 929 192C943 192 953 187 955 177 924 146 869 102 869 102L821 163 683 163 683 79C708 76 716 66 718 52L618 43 618 163 374 163 374 79C398 76 407 66 409 52L309 43 309 163ZM598 548L592 563C738 632 840 727 878 788 960 834 1007 647 598 548ZM60 363L68 391 502 391C410 542 226 699 37 797L46 811C200 747 348 655 465 545L465 959 477 959C501 959 529 943 530 938L530 531C548 529 558 523 561 514L514 496C545 462 574 427 599 391L914 391C928 391 938 386 941 376 906 345 852 304 852 304L805 363Z"/>
</svg>