<svg xmlns="http://www.w3.org/2000/svg"
    viewBox="0 0 1000 1000">
  <!--
© 2017-2024 Adobe (http://www.adobe.com/).
Noto is a trademark of Google Inc.
This Font Software is licensed under the SIL Open Font License, Version 1.1. This Font Software is distributed on an "AS IS" BASIS, WITHOUT WARRANTIES OR CONDITIONS OF ANY KIND, either express or implied. See the SIL Open Font License for the specific language, permissions and limitations governing your use of this Font Software.
http://scripts.sil.org/OFL
  -->
<path d="M41 131L48 159 304 159 304 268 315 268C341 268 370 259 370 250L370 159 622 159 622 265 633 265C664 265 687 252 687 245L687 159 929 159C943 159 953 154 955 144 924 114 869 70 869 70L821 131 687 131 687 47C712 44 720 34 722 20L622 11 622 131 370 131 370 47C394 44 403 33 404 20L304 11 304 131ZM154 494L154 850 165 850C191 850 219 835 219 828L219 524 465 524 465 939 478 939C502 939 532 922 532 911L532 524 779 524 779 758C779 772 774 778 754 778 730 778 621 771 621 771L621 787C669 792 696 801 712 810 727 820 732 836 736 855 833 846 845 814 845 765L845 537C865 534 882 525 888 517L803 454 769 494 532 494 532 372 933 372C948 372 957 367 960 356 924 323 865 279 865 279L814 343 532 343 532 255C554 251 562 242 565 229L465 219 465 343 40 343 49 372 465 372 465 494 226 494 154 462Z"/>
</svg>