<svg xmlns="http://www.w3.org/2000/svg" name="gid10956" data-unicode="苕"
    viewBox="0 0 1000 1000">
  <!--
© 2017-2024 Adobe (http://www.adobe.com/).
Noto is a trademark of Google Inc.
This Font Software is licensed under the SIL Open Font License, Version 1.1. This Font Software is distributed on an "AS IS" BASIS, WITHOUT WARRANTIES OR CONDITIONS OF ANY KIND, either express or implied. See the SIL Open Font License for the specific language, permissions and limitations governing your use of this Font Software.
http://scripts.sil.org/OFL
  -->
<path d="M59 148L65 177 324 177 324 264 335 264C361 264 389 254 389 247L389 177 606 177 606 262 617 262C649 261 671 249 671 243L671 177 916 177C931 177 941 172 943 161 911 131 858 89 858 89L811 148 671 148 671 78C696 75 705 65 707 51L606 42 606 148 389 148 389 78C414 75 422 65 424 51L324 42 324 148ZM716 659L716 850 292 850 292 659ZM227 630L227 960 236 960C264 960 292 944 292 938L292 880 716 880 716 954 726 954C748 954 781 940 782 933L782 672C802 668 818 659 825 651L743 589 706 630 298 630 227 598ZM119 292L128 321 407 321C362 457 253 547 69 606L75 622C293 574 432 484 492 321L760 321C747 402 726 470 704 487 693 494 683 496 663 496 640 496 545 488 494 484L493 501C540 507 591 517 609 529 625 539 629 557 629 576 675 576 715 566 741 548 783 518 814 431 828 329 848 327 861 322 867 315L792 253 754 292Z"/>
</svg>