<svg xmlns="http://www.w3.org/2000/svg" name="gid10970" data-unicode="苦"
    viewBox="0 0 1000 1000">
  <!--
© 2017-2024 Adobe (http://www.adobe.com/).
Noto is a trademark of Google Inc.
This Font Software is licensed under the SIL Open Font License, Version 1.1. This Font Software is distributed on an "AS IS" BASIS, WITHOUT WARRANTIES OR CONDITIONS OF ANY KIND, either express or implied. See the SIL Open Font License for the specific language, permissions and limitations governing your use of this Font Software.
http://scripts.sil.org/OFL
  -->
<path d="M41 165L48 194 305 194 305 307 316 307C341 307 370 297 370 288L370 194 621 194 621 304 631 304C663 303 686 290 686 284L686 194 929 194C943 194 953 189 955 179 924 148 868 104 868 104L820 165 686 165 686 79C711 76 719 66 721 52L621 42 621 165 370 165 370 79C395 76 404 66 405 52L305 42 305 165ZM43 401L52 430 465 430 465 595 264 595 193 563 193 959 204 959C230 959 258 944 258 938L258 882 743 882 743 951 752 951C774 951 807 935 808 928L808 637C828 633 843 625 850 617L769 555 733 595 531 595 531 430 931 430C946 430 956 425 959 414 924 382 868 339 868 339L819 401 531 401 531 279C552 275 560 267 562 254L465 244 465 401ZM258 852L258 625 743 625 743 852Z"/>
</svg>