<svg xmlns="http://www.w3.org/2000/svg" name="gid11005" data-unicode="茜"
    viewBox="0 0 1000 1000">
  <!--
© 2017-2024 Adobe (http://www.adobe.com/).
Noto is a trademark of Google Inc.
This Font Software is licensed under the SIL Open Font License, Version 1.1. This Font Software is distributed on an "AS IS" BASIS, WITHOUT WARRANTIES OR CONDITIONS OF ANY KIND, either express or implied. See the SIL Open Font License for the specific language, permissions and limitations governing your use of this Font Software.
http://scripts.sil.org/OFL
  -->
<path d="M44 160L50 189 323 189 323 298 333 298C359 298 387 288 387 280L387 189 608 189 608 295 619 295C650 294 673 282 673 275L673 189 931 189C945 189 955 184 957 174 926 143 870 100 870 100L823 160 673 160 673 76C699 72 707 62 708 49L608 39 608 160 387 160 387 76C413 72 421 62 423 49L323 39 323 160ZM59 321L68 351 369 351 369 465 369 468 209 468 139 437 139 955 149 955C176 955 202 940 202 932L202 877 798 877 798 951 808 951C829 951 862 935 863 929L863 511C883 506 899 498 905 490L825 428 788 468 602 468 602 351 916 351C930 351 939 346 942 335 908 304 852 260 852 260L803 321ZM202 847L202 498 368 498C364 593 335 689 210 767L221 781C391 709 425 598 431 498L542 498 542 666C542 708 551 724 608 724L665 724C762 724 786 713 786 688 786 675 781 668 762 661L758 581 747 581C740 614 730 651 725 660 721 665 717 667 711 667 704 667 687 667 668 667L625 667C605 667 602 663 602 651L602 498 798 498 798 847ZM432 468L432 465 432 351 542 351 542 468Z"/>
</svg>