<svg xmlns="http://www.w3.org/2000/svg"
    viewBox="0 0 1000 1000">
  <!--
© 2017-2024 Adobe (http://www.adobe.com/).
Noto is a trademark of Google Inc.
This Font Software is licensed under the SIL Open Font License, Version 1.1. This Font Software is distributed on an "AS IS" BASIS, WITHOUT WARRANTIES OR CONDITIONS OF ANY KIND, either express or implied. See the SIL Open Font License for the specific language, permissions and limitations governing your use of this Font Software.
http://scripts.sil.org/OFL
  -->
<path d="M43 115L50 145 303 145 303 234 313 234C341 234 368 225 368 217L368 145 625 145 625 231 636 231C669 231 690 219 690 213L690 145 930 145C944 145 954 140 956 129 924 99 871 57 871 57L824 115 690 115 690 44C715 41 724 31 725 18L625 8 625 115 368 115 368 44C393 41 402 31 403 18L303 8 303 115ZM650 367C504 550 311 659 103 737L110 755C336 691 535 594 693 426 716 433 726 431 734 420ZM786 500C592 726 335 834 65 913L71 931C273 888 460 828 626 724 709 774 820 859 863 923 950 958 966 797 647 710 710 669 769 621 825 565 848 574 860 572 870 562ZM465 175L465 298 51 298 60 327 404 327C384 365 355 406 326 440 291 419 241 401 173 391L164 402C231 437 317 505 347 563 402 588 429 518 353 458 404 424 458 377 503 327L920 327C935 327 945 322 948 311 912 279 854 233 854 233L803 298 532 298 532 213C557 210 567 200 569 186Z"/>
</svg>