<svg xmlns="http://www.w3.org/2000/svg" name="gid11056" data-unicode="荳"
    viewBox="0 0 1000 1000">
  <!--
© 2017-2024 Adobe (http://www.adobe.com/).
Noto is a trademark of Google Inc.
This Font Software is licensed under the SIL Open Font License, Version 1.1. This Font Software is distributed on an "AS IS" BASIS, WITHOUT WARRANTIES OR CONDITIONS OF ANY KIND, either express or implied. See the SIL Open Font License for the specific language, permissions and limitations governing your use of this Font Software.
http://scripts.sil.org/OFL
  -->
<path d="M78 308L87 336 893 336C906 336 916 331 919 320 886 290 833 248 833 248L786 308ZM308 700L297 706C326 751 356 821 356 878 417 937 490 798 308 700ZM43 152L50 182 305 182 305 273 316 273C342 273 370 264 370 256L370 182 623 182 623 270 634 270C667 270 689 258 689 251L689 182 930 182C944 182 954 177 956 166 924 136 871 93 871 93L823 152 689 152 689 80C713 76 722 67 724 53L623 43 623 152 370 152 370 80C395 76 404 67 405 53L305 43 305 152ZM627 699C614 760 589 843 564 903L40 903 48 932 934 932C948 932 959 927 962 916 926 885 871 841 871 841L821 903 589 903C631 854 669 793 693 746 713 747 726 738 730 727ZM208 440L208 714 218 714C244 714 272 701 272 694L272 658 724 658 724 702 734 702C756 702 789 687 790 680L790 481C809 477 826 469 833 461L751 399 714 440 278 440 208 408ZM272 630L272 468 724 468 724 630Z"/>
</svg>