<svg xmlns="http://www.w3.org/2000/svg"
    viewBox="0 0 1000 1000">
  <!--
© 2017-2023 Adobe (http://www.adobe.com/).
Noto is a trademark of Google Inc.
This Font Software is licensed under the SIL Open Font License, Version 1.1. This Font Software is distributed on an "AS IS" BASIS, WITHOUT WARRANTIES OR CONDITIONS OF ANY KIND, either express or implied. See the SIL Open Font License for the specific language, permissions and limitations governing your use of this Font Software.
http://scripts.sil.org/OFL
  -->
<path d="M42 124L48 153 322 153 322 249 333 249C359 249 387 239 387 232L387 153 606 153 606 247 617 247C648 246 671 234 671 227L671 153 929 153C943 153 953 148 956 137 924 108 869 64 869 64L822 124 671 124 671 48C696 45 705 35 706 21L606 12 606 124 387 124 387 48C412 45 421 35 422 21L322 12 322 124ZM454 372C464 452 435 530 396 561 377 575 367 596 377 614 390 634 426 627 447 606 482 574 511 492 472 371ZM302 260C279 295 254 329 226 360 194 325 153 294 100 266L87 278C136 314 172 352 197 392 146 445 92 488 42 517L51 533C107 511 166 478 221 436 229 454 235 473 240 492 193 588 112 684 34 742L42 758C120 714 198 650 254 585L256 638C256 720 246 801 223 833 216 843 209 846 194 846 158 846 85 839 85 839L85 855C116 861 141 871 154 879 165 887 169 903 169 924 217 924 251 914 270 891 312 837 324 738 322 640 320 554 305 474 260 404 288 380 315 352 340 323 361 330 376 324 381 316ZM668 297C691 294 699 284 701 272L600 261C600 577 614 778 298 911L308 928C592 832 649 684 663 480 688 683 749 837 910 928 918 891 939 877 972 873L973 861C836 798 760 708 717 587 779 547 848 488 904 423 924 429 938 421 944 413L853 360C811 436 757 512 710 564 686 487 674 398 668 297Z"/>
</svg>