<svg xmlns="http://www.w3.org/2000/svg" name="gid11067" data-unicode="莅"
    viewBox="0 0 1000 1000">
  <!--
© 2017-2024 Adobe (http://www.adobe.com/).
Noto is a trademark of Google Inc.
This Font Software is licensed under the SIL Open Font License, Version 1.1. This Font Software is distributed on an "AS IS" BASIS, WITHOUT WARRANTIES OR CONDITIONS OF ANY KIND, either express or implied. See the SIL Open Font License for the specific language, permissions and limitations governing your use of this Font Software.
http://scripts.sil.org/OFL
  -->
<path d="M419 489L403 493C438 593 478 739 474 850 545 927 605 725 419 489ZM43 152L50 182 311 182 311 278 321 278C348 278 376 269 376 260L376 182 618 182 618 275 629 275C661 274 683 263 683 256L683 182 930 182C944 182 954 177 956 166 924 136 871 93 871 93L823 152 683 152 683 76C709 73 717 63 718 50L618 40 618 152 376 152 376 76C401 73 409 63 411 50L311 40 311 152ZM306 417L314 446 914 446C928 446 937 441 940 430 907 399 853 357 853 357L806 417 642 417 642 309C661 305 669 297 670 286L577 276 577 417ZM734 482C719 608 689 774 651 900L279 900 287 929 942 929C956 929 964 924 967 913 934 882 878 838 878 838L829 900 672 900C730 783 779 636 804 526 827 525 838 515 840 503ZM250 272C201 428 116 574 34 663L47 674C91 641 133 600 172 552L172 958 183 958C208 958 235 942 236 937L236 485C252 482 262 476 266 467L240 457C266 416 289 372 310 326 331 327 343 319 348 309Z"/>
</svg>