<svg xmlns="http://www.w3.org/2000/svg"
    viewBox="0 0 1000 1000">
  <!--
© 2017-2024 Adobe (http://www.adobe.com/).
Noto is a trademark of Google Inc.
This Font Software is licensed under the SIL Open Font License, Version 1.1. This Font Software is distributed on an "AS IS" BASIS, WITHOUT WARRANTIES OR CONDITIONS OF ANY KIND, either express or implied. See the SIL Open Font License for the specific language, permissions and limitations governing your use of this Font Software.
http://scripts.sil.org/OFL
  -->
<path d="M50 125L56 154 327 154 327 250 338 250C364 250 392 240 392 232L392 154 603 154 603 247 614 247C646 246 668 234 668 228L668 154 925 154C939 154 949 149 951 138 919 108 865 65 865 65L818 125 668 125 668 49C693 46 702 36 704 22L603 13 603 125 392 125 392 49C417 46 426 36 427 22L327 13 327 125ZM160 621L160 929 170 929C196 929 225 914 225 907L225 872 777 872 777 923 787 923C809 923 841 907 842 901L842 663C862 659 878 651 885 643L804 581 767 621 451 621C475 587 503 539 525 501L710 501 710 547 720 547C742 547 774 531 775 525L775 319C792 316 807 308 813 301L736 243 701 281 298 281 227 249 227 554 236 554C264 554 292 541 292 534L292 501 446 501C437 538 423 585 412 621L231 621 160 589ZM292 472L292 309 710 309 710 472ZM225 842L225 650 777 650 777 842Z"/>
</svg>