<svg xmlns="http://www.w3.org/2000/svg"
    viewBox="0 0 1000 1000">
  <!--
© 2017-2024 Adobe (http://www.adobe.com/).
Noto is a trademark of Google Inc.
This Font Software is licensed under the SIL Open Font License, Version 1.1. This Font Software is distributed on an "AS IS" BASIS, WITHOUT WARRANTIES OR CONDITIONS OF ANY KIND, either express or implied. See the SIL Open Font License for the specific language, permissions and limitations governing your use of this Font Software.
http://scripts.sil.org/OFL
  -->
<path d="M42 121L48 151 323 151 323 246 334 246C360 246 388 236 388 228L388 151 605 151 605 244 616 244C647 243 670 231 670 224L670 151 929 151C943 151 953 146 956 135 924 105 870 62 870 62L823 121 670 121 670 46C695 43 704 33 706 20L605 10 605 121 388 121 388 46C413 43 422 33 423 20L323 10 323 121ZM124 276L124 928 135 928C164 928 189 912 189 903L189 860 811 860 811 924 820 924C843 924 874 907 875 900L875 317C896 313 911 305 918 297L837 234 801 276 195 276 124 242ZM334 592L334 830 189 830 189 304 372 304C362 421 323 490 201 549L207 565C355 520 421 445 439 304L543 304 543 454C543 494 551 509 609 509L667 509C764 509 788 497 788 472 788 460 784 453 765 445L762 345 751 345C742 389 733 431 727 443 723 451 720 453 713 453 706 453 689 453 669 453L626 453C607 453 604 451 604 440L604 304 811 304 811 830 665 830 665 628C690 625 703 619 710 610L624 547 590 592 408 592 334 559ZM396 830L396 621 602 621 602 830Z"/>
</svg>