<svg xmlns="http://www.w3.org/2000/svg"
    viewBox="0 0 1000 1000">
  <!--
© 2017-2023 Adobe (http://www.adobe.com/).
Noto is a trademark of Google Inc.
This Font Software is licensed under the SIL Open Font License, Version 1.1. This Font Software is distributed on an "AS IS" BASIS, WITHOUT WARRANTIES OR CONDITIONS OF ANY KIND, either express or implied. See the SIL Open Font License for the specific language, permissions and limitations governing your use of this Font Software.
http://scripts.sil.org/OFL
  -->
<path d="M45 129L52 158 310 158 310 257 321 257C347 257 376 247 376 239L376 158 622 158 622 254 633 254C666 253 688 242 688 235L688 158 932 158C946 158 957 153 959 142 927 112 873 69 873 69L825 129 688 129 688 51C713 48 721 38 723 24L622 15 622 129 376 129 376 51C400 48 409 38 410 24L310 15 310 129ZM151 323L160 352 858 352C872 352 881 348 884 337 852 308 804 273 804 273L759 323 531 323 531 242C551 239 559 231 560 219L466 210 466 323ZM663 353C648 407 623 479 599 532L365 532C409 525 426 425 283 357L272 364C300 404 329 467 330 519 338 526 346 531 354 532L41 532 50 561 465 561 465 698 102 698 110 727 465 727 465 929 476 929C509 929 531 914 531 910L531 727 896 727C909 727 919 722 922 711 889 681 835 640 835 640L789 698 531 698 531 561 939 561C953 561 963 556 965 546 931 514 878 473 878 473L830 532 625 532C664 491 702 441 726 402 747 404 760 395 764 384Z"/>
</svg>