<svg xmlns="http://www.w3.org/2000/svg"
    viewBox="0 0 1000 1000">
  <!--
© 2017-2024 Adobe (http://www.adobe.com/).
Noto is a trademark of Google Inc.
This Font Software is licensed under the SIL Open Font License, Version 1.1. This Font Software is distributed on an "AS IS" BASIS, WITHOUT WARRANTIES OR CONDITIONS OF ANY KIND, either express or implied. See the SIL Open Font License for the specific language, permissions and limitations governing your use of this Font Software.
http://scripts.sil.org/OFL
  -->
<path d="M42 119L49 149 307 149 307 237 318 237C344 237 372 228 372 220L372 149 619 149 619 234 630 234C663 233 685 222 685 216L685 149 929 149C943 149 953 144 956 133 924 102 870 60 870 60L822 119 685 119 685 49C709 46 718 36 720 22L619 13 619 119 372 119 372 49C397 46 406 36 407 22L307 13 307 119ZM375 715L382 743 913 743C927 743 936 739 939 728 904 695 848 651 848 651L799 715 671 715 671 516 878 516C892 516 902 511 905 500 871 468 816 424 816 424L767 486 671 486 671 324C735 315 793 306 841 296 865 305 883 306 892 298L820 227C723 265 538 310 387 330L391 348C461 346 535 340 605 332L605 486 410 486 418 516 605 516 605 715ZM173 614L199 577 165 565 155 608C129 637 84 679 58 702L108 751C113 746 115 737 109 728 124 705 146 665 162 634 176 675 191 709 208 739 170 808 116 868 40 915L49 930C132 891 193 841 238 783 317 885 431 908 609 908 684 908 848 908 916 908 919 882 933 861 961 856L961 842C876 844 693 844 613 844 447 844 336 831 258 755 304 685 332 606 349 521 370 519 380 516 387 507L316 444 277 483 196 483C232 422 270 356 293 314 315 313 333 308 341 301L267 236 231 274 68 274 77 302 227 302C192 371 139 468 94 543 117 553 135 555 153 553L178 513 282 513C270 584 252 651 222 712 204 685 187 653 173 614Z"/>
</svg>