<svg xmlns="http://www.w3.org/2000/svg"
    viewBox="0 0 1000 1000">
  <!--
© 2017-2023 Adobe (http://www.adobe.com/).
Noto is a trademark of Google Inc.
This Font Software is licensed under the SIL Open Font License, Version 1.1. This Font Software is distributed on an "AS IS" BASIS, WITHOUT WARRANTIES OR CONDITIONS OF ANY KIND, either express or implied. See the SIL Open Font License for the specific language, permissions and limitations governing your use of this Font Software.
http://scripts.sil.org/OFL
  -->
<path d="M227 422L235 451 745 451C759 451 769 446 771 435 739 407 689 370 689 370L644 422ZM46 122L53 151 310 151 310 248 321 248C348 248 375 238 375 230L375 151 621 151 621 245 631 245C663 244 686 233 686 226L686 151 928 151C942 151 953 146 955 135 923 106 869 62 869 62L822 122 686 122 686 46C710 43 719 33 721 20L621 10 621 122 375 122 375 46C400 43 409 33 410 20L310 10 310 122ZM70 566L79 595 350 595C326 759 247 849 42 913L48 929C287 880 392 788 424 595L557 595 557 846C557 896 573 911 652 911L762 911C921 911 952 899 952 870 952 857 946 849 924 842L921 716 908 716C896 771 887 822 879 838 875 848 871 850 859 851 844 852 809 852 764 852L663 852C626 852 622 848 622 834L622 595 904 595C918 595 927 590 930 579 896 548 841 509 841 509L794 566ZM161 230C165 294 134 359 99 384 79 397 67 418 77 439 90 461 123 457 146 438 170 418 192 375 191 315L825 315C815 350 802 394 790 423L803 430C835 404 877 359 900 327 919 326 930 324 937 316L862 244 821 287 526 287 526 214C547 210 556 202 558 189L462 179 462 287 189 287C187 269 183 250 177 230Z"/>
</svg>