<svg xmlns="http://www.w3.org/2000/svg" name="gid11091" data-unicode="莨"
    viewBox="0 0 1000 1000">
  <!--
© 2017-2024 Adobe (http://www.adobe.com/).
Noto is a trademark of Google Inc.
This Font Software is licensed under the SIL Open Font License, Version 1.1. This Font Software is distributed on an "AS IS" BASIS, WITHOUT WARRANTIES OR CONDITIONS OF ANY KIND, either express or implied. See the SIL Open Font License for the specific language, permissions and limitations governing your use of this Font Software.
http://scripts.sil.org/OFL
  -->
<path d="M43 152L50 181 311 181 311 273 321 273C348 273 375 263 375 255L375 181 618 181 618 270 628 270C661 269 683 257 683 251L683 181 930 181C944 181 954 176 956 165 924 135 871 92 871 92L823 152 683 152 683 79C708 76 716 66 718 52L618 43 618 152 375 152 375 79C400 76 409 66 411 52L311 43 311 152ZM479 598L289 598 289 486 723 486 723 598ZM289 457L289 349 723 349 723 457ZM464 216L464 320 294 320 224 288 224 855 79 876 127 959C136 956 145 949 149 937 332 887 462 848 556 818L553 802 289 845 289 627 471 627C544 806 689 901 899 952 907 920 928 899 956 893L958 883C844 866 741 836 659 788 735 754 818 709 867 675 889 682 898 679 905 669L824 615C783 660 704 727 636 774 576 736 528 688 494 627L723 627 723 658 733 658C755 658 787 643 788 637L788 362C808 358 824 350 831 342L750 280 713 320 528 320 528 251C550 248 558 239 560 226Z"/>
</svg>