<svg xmlns="http://www.w3.org/2000/svg" name="gid11093" data-unicode="莪"
    viewBox="0 0 1000 1000">
  <!--
© 2017-2024 Adobe (http://www.adobe.com/).
Noto is a trademark of Google Inc.
This Font Software is licensed under the SIL Open Font License, Version 1.1. This Font Software is distributed on an "AS IS" BASIS, WITHOUT WARRANTIES OR CONDITIONS OF ANY KIND, either express or implied. See the SIL Open Font License for the specific language, permissions and limitations governing your use of this Font Software.
http://scripts.sil.org/OFL
  -->
<path d="M700 266L691 275C734 303 785 356 798 400 866 441 907 302 700 266ZM42 141L49 170 312 170 312 251 322 251C349 251 376 242 376 235L376 170 616 170 616 248 626 248C659 248 680 237 680 230L680 170 929 170C943 170 953 165 956 154 924 124 871 83 871 83L824 141 680 141 680 76C706 72 714 63 715 49L616 39 616 141 376 141 376 76C401 72 410 63 411 50L312 39 312 141ZM558 247C559 325 564 400 574 471L340 471 340 333C391 324 438 313 477 303 499 313 517 313 525 304L454 240C368 278 202 327 66 349L70 368C138 364 209 355 277 344L277 471 44 471 52 500 277 500 277 625C176 645 91 662 43 669L91 749C99 746 108 738 112 726L277 675 277 857C277 872 272 878 253 878 232 878 131 870 131 870L131 886C177 891 202 899 217 910 229 920 235 939 237 958 328 948 340 911 340 860L340 654C416 630 479 608 531 589L528 574 340 612 340 500 579 500C594 591 620 673 658 744 583 819 490 886 385 932L394 946C507 909 605 853 685 787 723 844 772 891 833 928 879 956 934 977 953 946 960 935 957 922 929 892L942 761 929 759C918 796 901 839 892 860 884 877 877 878 861 866 808 836 766 794 733 745 788 692 832 636 864 580 888 583 897 579 904 568L811 527C786 583 750 640 704 694 675 636 656 570 644 500L931 500C945 500 954 495 957 484 923 455 871 416 871 416L824 471 639 471C630 410 627 346 626 283 649 280 657 269 658 257Z"/>
</svg>