<svg xmlns="http://www.w3.org/2000/svg" name="gid11098" data-unicode="莵"
    viewBox="0 0 1000 1000">
  <!--
© 2017-2024 Adobe (http://www.adobe.com/).
Noto is a trademark of Google Inc.
This Font Software is licensed under the SIL Open Font License, Version 1.1. This Font Software is distributed on an "AS IS" BASIS, WITHOUT WARRANTIES OR CONDITIONS OF ANY KIND, either express or implied. See the SIL Open Font License for the specific language, permissions and limitations governing your use of this Font Software.
http://scripts.sil.org/OFL
  -->
<path d="M42 152L49 181 296 181 296 278 306 278C333 278 361 269 361 260L361 181 631 181 631 275 642 275C675 274 696 263 696 256L696 181 929 181C943 181 953 176 955 165 924 136 870 92 870 92L822 152 696 152 696 76C721 73 730 63 731 50L631 40 631 152 361 152 361 76C385 73 394 63 396 50L296 40 296 152ZM652 667L642 675C687 709 742 771 755 820 823 862 866 725 652 667ZM515 622L515 872C515 923 532 936 617 936L745 936C924 936 956 926 956 897 956 884 950 877 927 870L925 754 912 754C901 805 890 850 883 865 878 875 874 877 860 878 845 880 802 880 748 880L627 880C583 880 579 876 579 861L579 656C596 653 606 645 608 633ZM461 217C448 257 428 313 414 353L243 353 173 320 173 674 182 674C209 674 237 659 237 652L237 591 428 591C392 725 298 843 48 941L60 959C351 865 456 740 497 591L758 591 758 654 768 654C790 654 822 640 823 632L823 394C843 390 859 383 865 375L785 312 748 353 457 353C481 324 510 289 530 262 551 263 565 256 569 243ZM758 562L504 562C516 505 521 445 524 382L758 382ZM435 562L237 562 237 382 452 382C451 445 447 505 435 562Z"/>
</svg>