<svg xmlns="http://www.w3.org/2000/svg" name="gid11104" data-unicode="菅"
    viewBox="0 0 1000 1000">
  <!--
© 2017-2024 Adobe (http://www.adobe.com/).
Noto is a trademark of Google Inc.
This Font Software is licensed under the SIL Open Font License, Version 1.1. This Font Software is distributed on an "AS IS" BASIS, WITHOUT WARRANTIES OR CONDITIONS OF ANY KIND, either express or implied. See the SIL Open Font License for the specific language, permissions and limitations governing your use of this Font Software.
http://scripts.sil.org/OFL
  -->
<path d="M42 152L49 182 309 182 309 278 319 278C346 278 374 269 374 260L374 182 619 182 619 275 629 275C662 274 684 263 684 256L684 182 929 182C943 182 953 177 955 166 923 136 870 93 870 93L822 152 684 152 684 76C709 73 717 63 719 50L619 40 619 152 374 152 374 76C398 73 407 63 409 50L309 40 309 152ZM144 266C151 331 120 393 83 418 63 430 50 451 60 472 72 494 107 492 131 473 157 453 179 410 177 348L836 348C826 380 811 420 800 445L814 452C846 429 889 388 911 359 930 358 942 356 949 348L874 277 833 318 521 318 521 248C543 244 551 235 553 223L456 213 456 318 174 318C172 301 168 284 162 265ZM249 432L249 958 260 958C288 958 314 943 314 936L314 891 740 891 740 951 749 951C771 951 804 937 805 930L805 740C822 736 836 728 842 721L765 664 731 701 314 701 314 607 686 607 686 644 696 644C717 644 750 629 751 622L751 471C768 467 782 459 788 452L711 395 677 432 318 432 249 400ZM314 578L314 461 686 461 686 578ZM314 730L740 730 740 861 314 861Z"/>
</svg>