<svg xmlns="http://www.w3.org/2000/svg" name="gid11117" data-unicode="菜"
    viewBox="0 0 1000 1000">
  <!--
© 2017-2024 Adobe (http://www.adobe.com/).
Noto is a trademark of Google Inc.
This Font Software is licensed under the SIL Open Font License, Version 1.1. This Font Software is distributed on an "AS IS" BASIS, WITHOUT WARRANTIES OR CONDITIONS OF ANY KIND, either express or implied. See the SIL Open Font License for the specific language, permissions and limitations governing your use of this Font Software.
http://scripts.sil.org/OFL
  -->
<path d="M180 378L169 385C207 424 248 489 254 542 319 594 379 453 180 378ZM413 346L401 353C429 388 460 447 464 493 524 544 588 418 413 346ZM785 226C633 269 346 314 111 327L113 347C355 347 623 320 802 289 826 299 843 299 853 291ZM753 330C711 418 654 507 608 560L621 572C683 529 752 462 806 390 827 394 840 387 845 378ZM464 515L464 613 52 613 61 643 391 643C311 751 183 851 37 916L45 932C220 873 367 784 464 668L464 958 477 958C501 958 529 945 529 936L529 643 540 643C619 771 756 867 900 918 909 886 932 864 961 859L962 848C819 816 659 740 568 643L922 643C936 643 947 638 950 627 914 594 858 551 858 551L809 613 529 613 529 552C554 549 563 539 565 525ZM597 44L597 145 387 145 387 80C411 76 421 67 423 53L323 43 323 145 40 145 49 175 323 175 323 266 335 266C360 266 387 253 387 246L387 175 597 175 597 246 609 246C633 246 661 234 661 227L661 175 931 175C945 175 955 170 958 159 924 127 869 84 869 84L821 145 661 145 661 81C686 77 695 68 698 54Z"/>
</svg>