<svg xmlns="http://www.w3.org/2000/svg"
    viewBox="0 0 1000 1000">
  <!--
© 2017-2023 Adobe (http://www.adobe.com/).
Noto is a trademark of Google Inc.
This Font Software is licensed under the SIL Open Font License, Version 1.1. This Font Software is distributed on an "AS IS" BASIS, WITHOUT WARRANTIES OR CONDITIONS OF ANY KIND, either express or implied. See the SIL Open Font License for the specific language, permissions and limitations governing your use of this Font Software.
http://scripts.sil.org/OFL
  -->
<path d="M43 122L49 151 323 151 323 247 334 247C360 247 388 237 388 229L388 151 606 151 606 244 618 244C649 244 671 231 671 225L671 151 930 151C944 151 954 146 956 135 924 105 870 62 870 62L823 122 671 122 671 46C697 42 705 33 707 19L606 9 606 122 388 122 388 46C413 42 421 33 423 20L323 9 323 122ZM87 587L95 617 465 617 465 734 64 734 73 763 465 763 465 928 475 928C508 928 529 912 529 907L529 763 907 763C921 763 930 758 933 748 899 717 846 676 846 676L800 734 529 734 529 617 908 617C921 617 931 612 933 601 903 572 854 535 854 535L811 587 746 587 746 452 937 452C951 452 961 447 963 436 931 408 880 368 880 368L835 423 746 423 746 295 890 295C904 295 913 290 915 279 885 251 836 215 836 215L793 266 98 266 106 295 253 295 253 423 42 423 50 452 253 452 253 587ZM465 452L465 587 317 587 317 452ZM529 452L682 452 682 587 529 587ZM465 423L317 423 317 295 465 295ZM529 423L529 295 682 295 682 423Z"/>
</svg>