<svg xmlns="http://www.w3.org/2000/svg"
    viewBox="0 0 1000 1000">
  <!--
© 2017-2023 Adobe (http://www.adobe.com/).
Noto is a trademark of Google Inc.
This Font Software is licensed under the SIL Open Font License, Version 1.1. This Font Software is distributed on an "AS IS" BASIS, WITHOUT WARRANTIES OR CONDITIONS OF ANY KIND, either express or implied. See the SIL Open Font License for the specific language, permissions and limitations governing your use of this Font Software.
http://scripts.sil.org/OFL
  -->
<path d="M42 113L49 142 304 142 304 226 314 226C341 226 369 217 369 210L369 142 623 142 623 223 634 223C667 222 689 212 689 205L689 142 929 142C943 142 953 137 955 126 924 96 870 54 870 54L822 113 689 113 689 46C713 42 722 33 724 19L623 9 623 113 369 113 369 46C393 42 402 33 404 20L304 9 304 113ZM730 392L728 392 728 274C752 271 761 261 764 247L663 236 663 392 488 392 491 402C462 373 420 339 420 339L378 392 321 392 321 269C345 265 354 256 357 242L258 231 258 392 61 392 69 422 237 422C197 562 129 700 37 804L50 818C138 743 208 652 258 549L258 928 271 928C294 928 321 913 321 903L321 506C367 542 414 599 424 650 492 698 539 550 321 489L321 422 469 422C481 422 489 418 493 409L496 422 636 422C591 571 509 712 391 814L404 828C519 750 605 650 663 533L663 928 676 928C700 928 728 913 728 904L728 463C768 616 831 742 911 820 921 789 943 771 968 767L970 757C877 693 787 564 739 422L920 422C934 422 944 417 947 406 917 376 868 337 868 337L825 392Z"/>
</svg>