<svg xmlns="http://www.w3.org/2000/svg" name="gid11141" data-unicode="萄"
    viewBox="0 0 1000 1000">
  <!--
© 2017-2024 Adobe (http://www.adobe.com/).
Noto is a trademark of Google Inc.
This Font Software is licensed under the SIL Open Font License, Version 1.1. This Font Software is distributed on an "AS IS" BASIS, WITHOUT WARRANTIES OR CONDITIONS OF ANY KIND, either express or implied. See the SIL Open Font License for the specific language, permissions and limitations governing your use of this Font Software.
http://scripts.sil.org/OFL
  -->
<path d="M42 143L48 172 333 172 333 256 343 256C368 256 397 246 397 239L397 172 595 172 595 253 606 253C638 253 660 241 660 235L660 172 929 172C943 172 954 167 956 156 923 126 870 84 870 84L822 143 660 143 660 76C685 72 694 63 696 49L595 39 595 143 397 143 397 76C423 72 431 63 433 50L333 39 333 143ZM234 212C189 338 113 453 41 522L55 534C125 489 193 422 249 339L838 339C831 640 817 829 783 862 772 872 764 874 746 874 725 874 660 869 621 864L620 883C656 889 695 898 709 909 721 919 725 937 725 958 766 958 806 945 833 914 877 863 896 678 902 348 923 344 936 339 943 332L867 267 828 310 267 310 292 266C313 269 325 261 329 250ZM287 352C268 418 230 503 188 551L202 560C234 538 265 508 291 476L409 476 409 574 133 574 141 602 409 602 409 787 265 787 265 688C287 685 295 676 297 663L203 654 203 895 215 895C239 895 265 881 265 874L265 816 614 816 614 862 625 862C649 862 676 849 676 842L676 688C699 685 707 676 709 663L614 654 614 787 471 787 471 602 727 602C741 602 750 597 753 586 722 559 674 522 674 522L632 574 471 574 471 476 667 476C681 476 690 471 693 460 662 431 617 396 617 396L576 447 313 447C328 427 340 407 351 388 375 389 382 385 385 374Z"/>
</svg>