<svg xmlns="http://www.w3.org/2000/svg"
    viewBox="0 0 1000 1000">
  <!--
© 2017-2023 Adobe (http://www.adobe.com/).
Noto is a trademark of Google Inc.
This Font Software is licensed under the SIL Open Font License, Version 1.1. This Font Software is distributed on an "AS IS" BASIS, WITHOUT WARRANTIES OR CONDITIONS OF ANY KIND, either express or implied. See the SIL Open Font License for the specific language, permissions and limitations governing your use of this Font Software.
http://scripts.sil.org/OFL
  -->
<path d="M42 111L48 140 332 140 332 221 342 221C369 221 395 211 395 205L395 140 598 140 598 218 608 218C639 218 662 206 662 200L662 140 930 140C944 140 954 135 956 124 924 94 872 53 872 53L824 111 662 111 662 46C687 42 696 33 698 19L598 9 598 111 395 111 395 46C420 42 430 33 431 19L332 9 332 111ZM767 623C734 657 672 710 617 748 564 714 520 671 489 618L928 618C942 618 952 614 955 603 921 572 869 534 869 534L823 589 318 589 318 502 761 502C774 502 784 497 786 486 756 459 708 424 708 424L666 473 318 473 318 387 756 387C770 387 779 382 781 371 752 344 704 310 704 310L663 357 318 357 318 273 794 273C808 273 818 268 821 257 787 227 735 189 735 189L689 243 329 243 253 211 253 589 43 589 52 618 253 618 253 821C193 832 143 840 111 843L157 927C167 924 175 917 179 904 337 856 450 816 530 788L527 772 318 810 318 618 465 618C540 793 686 881 900 927 909 894 929 872 959 866L960 856C836 840 727 811 641 762 703 738 770 707 810 684 832 690 840 687 847 678Z"/>
</svg>