<svg xmlns="http://www.w3.org/2000/svg"
    viewBox="0 0 1000 1000">
  <!--
© 2017-2023 Adobe (http://www.adobe.com/).
Noto is a trademark of Google Inc.
This Font Software is licensed under the SIL Open Font License, Version 1.1. This Font Software is distributed on an "AS IS" BASIS, WITHOUT WARRANTIES OR CONDITIONS OF ANY KIND, either express or implied. See the SIL Open Font License for the specific language, permissions and limitations governing your use of this Font Software.
http://scripts.sil.org/OFL
  -->
<path d="M44 874L53 902 930 902C944 902 954 897 956 886 922 855 866 811 866 811L817 874ZM217 391L225 420 778 420C792 420 801 416 804 405 772 377 724 342 724 342L682 391ZM42 122L49 151 296 151 296 248 307 248C334 248 361 239 361 230L361 151 630 151 630 245 641 245C674 244 696 233 696 226L696 151 929 151C943 151 953 146 955 135 924 106 870 62 870 62L822 122 696 122 696 46C720 43 729 33 731 20L630 10 630 122 361 122 361 46C386 43 395 33 396 20L296 10 296 122ZM252 501L252 835 262 835C289 835 317 819 317 813L317 778 687 778 687 823 697 823C719 823 751 808 752 802L752 541C769 537 784 529 790 522L713 464 678 501 322 501 252 471ZM317 749L317 652 687 652 687 749ZM317 623L317 531 687 531 687 623ZM154 238C161 303 131 364 92 388 71 399 59 419 68 439 78 462 112 460 137 443 165 424 190 380 186 314L851 314C843 346 832 388 823 414L837 420C866 396 902 356 924 326 942 325 954 323 962 316L887 244 846 286 524 286 524 214C546 210 554 202 556 189L460 179 460 286 183 286C181 271 177 254 171 237Z"/>
</svg>