<svg xmlns="http://www.w3.org/2000/svg"
    viewBox="0 0 1000 1000">
  <!--
© 2017-2023 Adobe (http://www.adobe.com/).
Noto is a trademark of Google Inc.
This Font Software is licensed under the SIL Open Font License, Version 1.1. This Font Software is distributed on an "AS IS" BASIS, WITHOUT WARRANTIES OR CONDITIONS OF ANY KIND, either express or implied. See the SIL Open Font License for the specific language, permissions and limitations governing your use of this Font Software.
http://scripts.sil.org/OFL
  -->
<path d="M41 110L48 139 303 139 303 220 313 220C340 220 367 211 367 204L367 139 623 139 623 217 634 217C667 216 688 206 688 199L688 139 928 139C942 139 953 134 955 123 923 93 870 52 870 52L823 110 688 110 688 44C713 41 721 31 723 18L623 8 623 110 367 110 367 44C391 41 400 31 402 18L303 8 303 110ZM147 235L147 435 157 435C180 435 208 422 208 418L208 390 379 390 379 421 388 421C408 421 440 409 440 402L440 273C457 270 471 262 476 256L403 201 370 235 212 235 147 207ZM379 360L208 360 208 265 379 265ZM51 566L60 595 294 595C275 644 236 723 211 758 236 771 263 773 280 766L310 709 711 709C697 776 675 828 656 842 645 848 635 850 617 850 594 850 509 843 463 839L463 856C504 862 549 871 564 882 580 892 584 910 584 927 626 928 664 918 689 902 730 876 762 804 777 716 798 714 810 710 817 702L744 643 706 679 325 679C339 650 354 620 365 595L920 595C934 595 944 590 947 579 913 549 861 509 861 509L815 566ZM537 235L537 427 547 427C572 427 599 414 599 409L599 390 778 390 778 417 774 414 732 463 152 463 161 492 827 492C840 492 850 487 853 477 832 458 802 435 786 423 807 423 839 410 840 404L840 274C857 271 872 263 878 256L802 200 769 235 604 235 537 207ZM778 360L599 360 599 265 778 265Z"/>
</svg>