<svg xmlns="http://www.w3.org/2000/svg" name="gid11175" data-unicode="葏"
    viewBox="0 0 1000 1000">
  <!--
© 2017-2024 Adobe (http://www.adobe.com/).
Noto is a trademark of Google Inc.
This Font Software is licensed under the SIL Open Font License, Version 1.1. This Font Software is distributed on an "AS IS" BASIS, WITHOUT WARRANTIES OR CONDITIONS OF ANY KIND, either express or implied. See the SIL Open Font License for the specific language, permissions and limitations governing your use of this Font Software.
http://scripts.sil.org/OFL
  -->
<path d="M106 244L97 252C141 280 191 332 204 377 272 415 309 276 106 244ZM46 420L36 430C79 454 125 502 135 544 202 586 242 446 46 420ZM341 547L350 577 557 577 557 667 328 667 336 697 557 697 557 789 280 789 288 818 557 818 557 957 569 957C594 957 621 943 621 933L621 818 941 818C955 818 964 813 966 802 934 773 882 733 882 733L836 789 621 789 621 697 907 697C921 697 931 692 934 681 902 651 850 611 850 611L805 667 621 667 621 577 786 577 786 615 796 615C817 615 849 600 850 594L850 456 949 456C963 456 972 451 975 440 947 411 899 373 899 373L858 427 850 427 850 353C870 349 885 341 892 333L812 273 776 312 621 312 621 267C643 264 652 256 656 245 672 241 682 235 682 230L682 170 929 170C943 170 953 165 956 154 924 124 871 83 871 83L824 141 682 141 682 76C707 72 715 63 717 49L618 39 618 141 375 141 375 76C400 72 408 63 410 49L311 39 311 141 42 141 49 170 311 170 311 251 321 251C348 251 375 242 375 235L375 170 618 170 618 235 557 228 557 312 359 312 368 341 557 341 557 427 306 427 334 360 316 354C150 666 150 666 132 697 121 715 118 715 107 715 96 715 62 715 62 715L62 737C82 739 96 741 108 750 129 762 135 823 123 912 125 940 137 956 153 956 184 956 202 933 204 896 207 829 182 789 181 752 181 730 188 703 198 677 209 647 263 526 304 431L310 456 557 456 557 547ZM786 456L786 547 621 547 621 456ZM786 427L621 427 621 341 786 341Z"/>
</svg>