<svg xmlns="http://www.w3.org/2000/svg"
    viewBox="0 0 1000 1000">
  <!--
© 2017-2023 Adobe (http://www.adobe.com/).
Noto is a trademark of Google Inc.
This Font Software is licensed under the SIL Open Font License, Version 1.1. This Font Software is distributed on an "AS IS" BASIS, WITHOUT WARRANTIES OR CONDITIONS OF ANY KIND, either express or implied. See the SIL Open Font License for the specific language, permissions and limitations governing your use of this Font Software.
http://scripts.sil.org/OFL
  -->
<path d="M569 424L569 778 580 778C604 778 631 765 631 757L631 462C655 458 664 449 666 435ZM796 396L796 834C796 849 792 854 774 854 754 854 659 847 659 847L659 863C701 867 725 875 740 884 751 895 756 910 759 928 849 920 860 889 860 837L860 433C883 429 893 421 896 407ZM218 510L209 521C247 540 297 580 317 611 377 639 407 526 218 510ZM207 649L199 659C239 680 291 724 309 760 371 790 401 670 207 649ZM241 185L231 193C266 219 305 268 316 308L42 308 50 338 935 338C949 338 959 333 962 322 927 290 873 248 873 248L824 308 644 308C677 284 710 256 732 232 752 235 766 229 771 218L684 183 686 181 686 132 929 132C943 132 953 127 955 116 923 86 871 45 871 45L823 103 686 103 686 46C710 42 719 33 721 19L621 9 621 103 369 103 369 46C394 42 402 32 404 19L305 9 305 103 41 103 48 132 305 132 305 201 315 201C342 201 369 192 369 185L369 132 621 132 621 198 632 198C649 198 662 195 671 191 656 229 634 275 615 308L360 308C389 285 377 208 241 185ZM124 427L124 929 134 929C162 929 187 914 187 906L187 457 393 457 393 840C393 854 389 859 374 859 357 859 290 854 290 854L290 869C323 873 341 880 352 888 361 897 365 911 367 927 445 919 455 892 455 846L455 469C476 466 493 457 499 449L416 388 383 427 191 427 124 396Z"/>
</svg>