<svg xmlns="http://www.w3.org/2000/svg" name="gid11191" data-unicode="葥"
    viewBox="0 0 1000 1000">
  <!--
© 2017-2024 Adobe (http://www.adobe.com/).
Noto is a trademark of Google Inc.
This Font Software is licensed under the SIL Open Font License, Version 1.1. This Font Software is distributed on an "AS IS" BASIS, WITHOUT WARRANTIES OR CONDITIONS OF ANY KIND, either express or implied. See the SIL Open Font License for the specific language, permissions and limitations governing your use of this Font Software.
http://scripts.sil.org/OFL
  -->
<path d="M569 454L569 808 580 808C604 808 631 795 631 787L631 492C655 488 664 479 666 465ZM796 426L796 864C796 879 792 884 774 884 754 884 659 877 659 877L659 893C701 897 725 905 740 914 751 925 756 940 759 958 849 950 860 919 860 867L860 463C883 459 893 451 896 437ZM218 540L209 551C247 570 297 610 317 641 377 669 407 556 218 540ZM207 679L199 689C239 710 291 754 309 790 371 820 401 700 207 679ZM241 215L231 223C266 249 305 298 316 338L42 338 50 368 935 368C949 368 959 363 962 352 927 320 873 278 873 278L824 338 644 338C677 314 710 286 732 262 752 265 766 259 771 248L684 213 686 211 686 162 929 162C943 162 953 157 955 146 923 116 871 75 871 75L823 133 686 133 686 76C710 72 719 63 721 49L621 39 621 133 369 133 369 76C394 72 402 62 404 49L305 39 305 133 41 133 48 162 305 162 305 231 315 231C342 231 369 222 369 215L369 162 621 162 621 228 632 228C649 228 662 225 671 221 656 259 634 305 615 338L360 338C389 315 377 238 241 215ZM124 457L124 959 134 959C162 959 187 944 187 936L187 487 393 487 393 870C393 884 389 889 374 889 357 889 290 884 290 884L290 899C323 903 341 910 352 918 361 927 365 941 367 957 445 949 455 922 455 876L455 499C476 496 493 487 499 479L416 418 383 457 191 457 124 426Z"/>
</svg>