<svg xmlns="http://www.w3.org/2000/svg" name="gid11194" data-unicode="葩"
    viewBox="0 0 1000 1000">
  <!--
© 2017-2024 Adobe (http://www.adobe.com/).
Noto is a trademark of Google Inc.
This Font Software is licensed under the SIL Open Font License, Version 1.1. This Font Software is distributed on an "AS IS" BASIS, WITHOUT WARRANTIES OR CONDITIONS OF ANY KIND, either express or implied. See the SIL Open Font License for the specific language, permissions and limitations governing your use of this Font Software.
http://scripts.sil.org/OFL
  -->
<path d="M329 603L329 791 166 791 166 603ZM329 575L166 575 166 399 329 399ZM227 234C220 274 209 332 200 370L171 370 104 339 104 923 114 923C142 923 166 907 166 901L166 820 329 820 329 901 338 901C360 901 389 885 390 879L390 408C408 405 423 397 428 390L354 332 319 370 233 370C251 341 274 303 289 274 307 273 318 268 322 258L328 258C355 258 382 249 382 241L382 174 610 174 610 255 622 255C653 254 675 242 675 237L675 174 929 174C943 174 953 169 955 158 924 127 870 86 870 86L822 144 675 144 675 77C701 74 709 64 710 50L610 41 610 144 382 144 382 77C407 74 416 64 418 50L317 41 317 144 42 144 48 174 317 174 317 250ZM533 348L649 348 649 579 533 579ZM472 318L472 850C472 910 495 926 587 926L724 926C917 926 955 916 955 885 955 873 948 865 923 858L921 733 908 733C895 789 885 839 876 854 871 862 865 865 851 867 833 869 787 869 725 869L593 869C541 869 533 861 533 838L533 608 827 608 827 659 837 659C858 659 890 645 891 639L891 360C911 356 927 348 934 340L854 279 817 318 546 318 472 286ZM707 348L827 348 827 579 707 579Z"/>
</svg>