<svg xmlns="http://www.w3.org/2000/svg" name="gid11196" data-unicode="葫"
    viewBox="0 0 1000 1000">
  <!--
© 2017-2024 Adobe (http://www.adobe.com/).
Noto is a trademark of Google Inc.
This Font Software is licensed under the SIL Open Font License, Version 1.1. This Font Software is distributed on an "AS IS" BASIS, WITHOUT WARRANTIES OR CONDITIONS OF ANY KIND, either express or implied. See the SIL Open Font License for the specific language, permissions and limitations governing your use of this Font Software.
http://scripts.sil.org/OFL
  -->
<path d="M101 584L101 922 110 922C137 922 164 907 164 902L164 816 374 816 374 869 384 869C405 869 437 854 438 847L438 623C454 620 469 612 475 605L399 547 365 584 297 584 297 421 477 421C491 421 500 416 503 405 472 376 422 335 422 335L378 391 297 391 297 274C315 271 323 263 325 251L322 251C345 249 368 241 368 235L368 170 624 170 624 248 635 248C668 247 689 237 689 230L689 170 929 170C943 170 953 165 956 154 924 124 871 83 871 83L824 141 689 141 689 76C713 72 722 63 724 49L624 39 624 141 368 141 368 76C392 72 401 63 403 50L303 39 303 141 42 141 49 170 303 170 303 249 233 242 233 391 40 391 48 421 233 421 233 584 169 584 101 554ZM615 319L829 319 829 462 615 462ZM552 290L552 528C552 685 529 831 389 946L402 958C534 882 585 778 604 672L829 672 829 857C829 872 824 878 806 878 784 878 685 871 685 871L685 887C729 892 753 901 768 911 782 922 787 939 790 959 883 950 893 916 893 864L893 332C913 328 930 319 937 313L853 249 819 290 627 290 552 257ZM615 492L829 492 829 642 609 642C614 603 615 565 615 527ZM374 786L164 786 164 614 374 614Z"/>
</svg>