<svg xmlns="http://www.w3.org/2000/svg"
    viewBox="0 0 1000 1000">
  <!--
© 2017-2023 Adobe (http://www.adobe.com/).
Noto is a trademark of Google Inc.
This Font Software is licensed under the SIL Open Font License, Version 1.1. This Font Software is distributed on an "AS IS" BASIS, WITHOUT WARRANTIES OR CONDITIONS OF ANY KIND, either express or implied. See the SIL Open Font License for the specific language, permissions and limitations governing your use of this Font Software.
http://scripts.sil.org/OFL
  -->
<path d="M663 374L663 482C663 523 673 536 735 536L809 536C922 536 949 528 949 501 949 489 943 483 924 477L920 424 909 424C902 448 894 470 888 477 884 482 880 483 872 483 864 484 840 484 813 484L750 484C726 484 724 481 724 472L724 407C740 405 750 396 751 385ZM256 194C204 337 118 471 36 550L50 561C88 535 126 504 162 467L162 928 173 928C199 928 226 912 227 906L227 422C245 419 254 413 257 404L226 393C259 349 289 302 315 250 336 253 350 245 355 234L333 225 334 225C360 225 387 216 387 209L387 141 607 141 607 223 618 223C650 222 671 211 671 205L671 141 930 141C944 141 954 136 956 125 925 95 872 54 872 54L825 112 671 112 671 44C696 41 705 31 707 18L607 8 607 112 387 112 387 44C412 41 421 30 423 18L324 8 324 112 43 112 49 141 324 141 324 221ZM303 340L339 422C348 421 359 414 365 402L480 388C457 468 403 547 285 595L294 609C442 567 511 495 543 422 564 423 576 416 579 403L509 385C626 371 719 358 795 347 809 367 821 386 827 404 899 444 934 296 700 236L689 245C718 266 751 296 778 327L486 337C519 307 553 272 576 244 597 246 610 239 614 227L512 193C497 235 472 293 449 338 388 340 338 340 303 340ZM735 635C707 683 669 724 622 761 574 731 534 695 500 652L517 635ZM520 504C482 609 395 711 293 768L303 782C371 756 433 715 483 668 513 714 545 754 584 788 500 844 394 884 271 911L278 928C417 908 532 873 624 820 696 870 787 905 911 929 916 896 935 877 963 869L964 858C845 846 750 823 674 788 731 748 777 700 813 643 837 642 848 639 856 631L784 565 740 606 542 606C557 586 571 566 583 545 608 547 616 543 621 533Z"/>
</svg>