<svg xmlns="http://www.w3.org/2000/svg"
    viewBox="0 0 1000 1000">
  <!--
© 2017-2023 Adobe (http://www.adobe.com/).
Noto is a trademark of Google Inc.
This Font Software is licensed under the SIL Open Font License, Version 1.1. This Font Software is distributed on an "AS IS" BASIS, WITHOUT WARRANTIES OR CONDITIONS OF ANY KIND, either express or implied. See the SIL Open Font License for the specific language, permissions and limitations governing your use of this Font Software.
http://scripts.sil.org/OFL
  -->
<path d="M42 112L48 142 322 142 322 223 333 223C360 223 387 214 387 207L387 142 606 142 606 220 617 220C648 219 671 208 671 203L671 142 929 142C943 142 953 137 956 126 923 95 871 54 871 54L823 112 671 112 671 46C696 43 705 33 706 20L606 10 606 112 387 112 387 46C412 43 421 33 422 20L322 10 322 112ZM128 333L118 343C165 367 217 416 229 461 237 465 244 468 250 468 190 522 118 568 36 603L45 619C248 554 386 436 462 291 485 291 496 288 503 279L433 215 391 255 144 255 153 285 389 285C363 339 327 390 283 437 285 402 246 350 128 333ZM282 502L290 531 442 531C441 574 438 614 429 651L143 651 152 680 420 680C385 775 296 850 53 911L63 928C352 871 454 791 493 680L522 680C588 822 710 890 892 929 899 896 918 874 946 868L947 858C766 839 622 789 547 680L829 680C843 680 853 675 855 664 824 636 774 601 774 601L730 651 501 651C510 614 514 574 517 531L695 531C708 531 718 526 720 515 691 488 644 456 644 456L604 502ZM857 297C829 334 773 389 724 427 693 405 664 381 639 353 695 328 756 293 793 268 815 274 823 271 831 261L750 210C723 245 671 298 625 337 592 298 565 254 546 206L529 215C591 410 725 534 908 604 917 573 939 553 967 549L968 538C887 517 811 485 745 442 803 416 865 381 902 355 924 361 933 358 939 348Z"/>
</svg>