<svg xmlns="http://www.w3.org/2000/svg" name="gid11209" data-unicode="葹"
    viewBox="0 0 1000 1000">
  <!--
© 2017-2024 Adobe (http://www.adobe.com/).
Noto is a trademark of Google Inc.
This Font Software is licensed under the SIL Open Font License, Version 1.1. This Font Software is distributed on an "AS IS" BASIS, WITHOUT WARRANTIES OR CONDITIONS OF ANY KIND, either express or implied. See the SIL Open Font License for the specific language, permissions and limitations governing your use of this Font Software.
http://scripts.sil.org/OFL
  -->
<path d="M535 232C510 336 462 435 412 498L427 508C470 476 511 431 544 377L929 377C943 377 953 372 956 361 922 330 872 292 872 292L826 348 562 348C574 327 584 305 594 282 610 283 620 278 625 270L633 270C666 269 687 258 687 251L687 180 930 180C944 180 954 175 956 164 925 134 872 92 872 92L824 150 687 150 687 76C712 73 721 63 722 50L623 40 623 150 371 150 371 76C395 73 404 63 406 50L307 40 307 150 43 150 50 180 307 180 307 273 317 273C344 273 371 264 371 255L371 180 623 180 623 260ZM206 234L206 372 41 372 49 401 174 401C175 616 156 793 38 947L50 959C169 848 215 712 232 545L337 545C328 749 312 848 289 870 280 878 273 880 257 880 240 880 197 877 169 874L169 891C194 896 219 902 229 911 239 921 241 938 241 956 274 956 306 946 329 923 368 888 388 783 396 552 416 549 428 545 435 537L363 477 327 515 235 515C238 478 239 440 241 401L434 401C447 401 457 396 459 385 430 357 382 319 382 319L340 372 269 372 269 266C288 263 296 255 298 244ZM511 447L511 587 415 611 432 638 511 618 511 872C511 926 531 941 617 941L746 941C927 941 962 931 962 901 962 889 954 882 931 874L928 778 916 778C906 822 894 861 887 872 883 880 876 882 864 883 847 884 804 885 748 885L624 885C576 885 571 879 571 859L571 602 669 577 669 824 680 824C702 824 727 811 727 803L727 563 840 534C837 649 832 696 822 707 817 712 811 714 799 714 785 714 758 711 738 711L738 727C756 731 771 736 779 744 789 753 791 769 791 785 817 785 841 777 859 763 888 740 897 686 899 540 917 537 928 533 935 526L865 470 830 505 832 505 727 532 727 431C751 427 761 418 763 404L669 393 669 546 571 571 571 483C591 480 600 470 602 458Z"/>
</svg>