<svg xmlns="http://www.w3.org/2000/svg" name="gid11227" data-unicode="蒞"
    viewBox="0 0 1000 1000">
  <!--
© 2017-2024 Adobe (http://www.adobe.com/).
Noto is a trademark of Google Inc.
This Font Software is licensed under the SIL Open Font License, Version 1.1. This Font Software is distributed on an "AS IS" BASIS, WITHOUT WARRANTIES OR CONDITIONS OF ANY KIND, either express or implied. See the SIL Open Font License for the specific language, permissions and limitations governing your use of this Font Software.
http://scripts.sil.org/OFL
  -->
<path d="M107 716C97 716 64 716 64 716L64 739C84 740 97 743 109 752 129 764 134 825 123 913 125 941 136 956 153 956 184 956 203 933 204 896 208 830 182 790 181 754 181 732 188 705 196 680 207 645 275 477 306 392L288 387C149 669 149 669 132 699 122 716 119 716 107 716ZM101 234L92 243C133 268 181 317 195 359 261 396 298 261 101 234ZM45 408L36 418C79 441 127 489 140 530 207 570 244 430 45 408ZM553 442L537 448C581 563 585 730 580 815 625 892 724 705 553 442ZM478 365L486 394 917 394C931 394 940 389 943 379 911 348 860 308 860 308L816 365 722 365 722 275C745 271 753 262 755 249L666 241C680 237 689 231 689 227L689 170 929 170C943 170 953 165 956 154 924 123 871 82 871 82L824 140 689 140 689 77C713 74 722 64 724 50L624 41 624 140 368 140 368 77C392 74 401 64 403 50L303 41 303 140 42 140 49 170 303 170 303 248 314 248C340 248 368 238 368 231L368 170 624 170 624 245 635 245 658 242 658 365ZM784 429C771 563 744 748 719 883L460 883 468 912 935 912C949 912 958 908 961 897 928 866 875 824 875 824L827 883 740 883C784 754 828 588 850 476 872 475 884 464 887 452ZM423 236C387 392 321 541 249 636L264 646C296 617 327 583 355 543L355 958 367 958C390 958 416 943 417 938L417 501C434 498 444 492 447 483L404 467C435 412 463 351 485 286 507 287 518 277 522 266Z"/>
</svg>