<svg xmlns="http://www.w3.org/2000/svg"
    viewBox="0 0 1000 1000">
  <!--
© 2017-2023 Adobe (http://www.adobe.com/).
Noto is a trademark of Google Inc.
This Font Software is licensed under the SIL Open Font License, Version 1.1. This Font Software is distributed on an "AS IS" BASIS, WITHOUT WARRANTIES OR CONDITIONS OF ANY KIND, either express or implied. See the SIL Open Font License for the specific language, permissions and limitations governing your use of this Font Software.
http://scripts.sil.org/OFL
  -->
<path d="M46 110L52 140 320 140 320 220 331 220C357 220 384 212 384 204L384 140 609 140 609 218 620 218C651 217 673 206 673 200L673 140 926 140C940 140 950 135 953 124 920 93 867 52 867 52L821 110 673 110 673 45C698 42 707 32 708 19L609 9 609 110 384 110 384 45C409 42 418 32 420 19L320 9 320 110ZM170 686L178 716 787 716C801 716 810 711 813 700 780 672 729 633 729 633L684 686ZM206 748C196 807 139 847 93 860 72 869 57 886 64 907 73 930 107 931 135 919 180 900 237 847 224 749ZM357 756L343 760C357 798 365 854 359 899 408 958 489 853 357 756ZM545 756L533 762C558 798 587 856 590 902 648 954 715 834 545 756ZM727 751L717 761C772 798 841 864 864 916 939 956 974 804 727 751ZM846 299C812 343 744 412 685 462 650 425 622 384 601 339 654 321 711 299 745 281 766 280 779 279 787 271L715 203 674 242 212 242 221 272 647 272C613 296 571 322 537 342L467 334 467 568C467 582 463 586 448 586 430 586 347 580 347 580L347 596C385 600 406 607 419 617 429 626 433 641 435 659 520 651 531 622 531 571L531 369C548 366 557 361 561 352L582 345C639 508 754 622 906 690 916 659 936 641 962 637L964 626C864 596 771 545 700 476 770 442 846 395 892 361 913 367 922 364 929 356ZM65 375L74 404 306 404C258 516 161 620 36 684L45 699C208 638 318 532 377 410 400 409 411 406 419 398L349 336 307 375Z"/>
</svg>