<svg xmlns="http://www.w3.org/2000/svg"
    viewBox="0 0 1000 1000">
  <!--
© 2017-2023 Adobe (http://www.adobe.com/).
Noto is a trademark of Google Inc.
This Font Software is licensed under the SIL Open Font License, Version 1.1. This Font Software is distributed on an "AS IS" BASIS, WITHOUT WARRANTIES OR CONDITIONS OF ANY KIND, either express or implied. See the SIL Open Font License for the specific language, permissions and limitations governing your use of this Font Software.
http://scripts.sil.org/OFL
  -->
<path d="M44 109L51 139 297 139 297 217 307 217C334 217 361 209 361 200L361 139 634 139 634 213 645 213C677 212 698 202 698 195L698 139 931 139C945 139 955 134 957 123 925 92 872 51 872 51L825 109 698 109 698 46C723 43 732 33 733 20L634 10 634 109 361 109 361 46C386 43 394 33 396 20L297 10 297 109ZM63 292L51 299C82 343 115 413 118 468 179 523 246 391 63 292ZM412 296C393 405 353 503 303 567L316 577C362 544 403 497 436 440L564 440C563 496 561 548 552 597L284 597 292 626 546 626C517 742 441 836 233 911L245 929C492 856 580 756 614 626L625 626C676 777 782 884 908 933 913 902 929 880 956 865L958 854C831 827 707 750 650 626L921 626C935 626 944 621 947 611 914 580 862 539 862 539L817 597 620 597C629 549 633 496 635 440L879 440C893 440 902 435 904 424 874 395 824 354 824 354L779 411 451 411C461 390 470 368 478 345 500 345 511 336 515 324ZM33 635L77 714C86 710 93 699 94 687 138 648 176 613 204 586 195 706 163 823 69 919L83 931C255 811 273 629 273 481L273 288 931 288C945 288 956 283 958 272 925 241 871 200 871 200L825 259 560 259 560 199C583 195 592 186 593 173L493 163 493 259 285 259 208 225 208 482 206 556C134 591 64 622 33 635Z"/>
</svg>