<svg xmlns="http://www.w3.org/2000/svg"
    viewBox="0 0 1000 1000">
  <!--
© 2017-2024 Adobe (http://www.adobe.com/).
Noto is a trademark of Google Inc.
This Font Software is licensed under the SIL Open Font License, Version 1.1. This Font Software is distributed on an "AS IS" BASIS, WITHOUT WARRANTIES OR CONDITIONS OF ANY KIND, either express or implied. See the SIL Open Font License for the specific language, permissions and limitations governing your use of this Font Software.
http://scripts.sil.org/OFL
  -->
<path d="M44 112L51 141 297 141 297 222 307 222C334 222 361 213 361 206L361 141 634 141 634 218 645 218C677 218 698 208 698 201L698 141 931 141C945 141 955 136 957 125 925 95 872 54 872 54L825 112 698 112 698 46C723 43 732 33 733 20L634 10 634 112 361 112 361 46C386 43 394 33 396 20L297 10 297 112ZM649 314L649 396 433 396 433 349C455 346 463 337 465 324L370 314 370 396 196 396 196 296 919 296C933 296 943 291 946 280 913 250 861 210 861 210L815 267 529 267 529 200C550 197 559 188 561 175L464 165 464 267 208 267 132 234 132 453C132 604 124 768 38 904L52 916C186 783 196 592 196 453L196 400 203 425 370 425 370 586 382 586C406 586 433 573 433 566L433 539 649 539 649 577 661 577C685 577 712 563 712 556L712 425 898 425C912 425 921 420 924 409 893 380 843 342 843 342L800 396 712 396 712 349C734 346 743 337 745 324ZM433 425L649 425 649 509 433 509ZM509 564L509 645 327 645 258 614 258 881 268 881C293 881 321 868 321 862L321 675 509 675 509 928 521 928C545 928 573 915 573 907L573 675 766 675 766 788C766 800 762 805 748 805 729 805 658 801 658 801L658 816C692 820 711 828 723 838 734 847 737 864 739 882 820 874 830 844 830 795L830 686C849 683 866 675 872 668L789 606 756 645 573 645 573 599C594 596 602 587 604 574Z"/>
</svg>