<svg xmlns="http://www.w3.org/2000/svg"
    viewBox="0 0 1000 1000">
  <!--
© 2017-2024 Adobe (http://www.adobe.com/).
Noto is a trademark of Google Inc.
This Font Software is licensed under the SIL Open Font License, Version 1.1. This Font Software is distributed on an "AS IS" BASIS, WITHOUT WARRANTIES OR CONDITIONS OF ANY KIND, either express or implied. See the SIL Open Font License for the specific language, permissions and limitations governing your use of this Font Software.
http://scripts.sil.org/OFL
  -->
<path d="M44 109L51 139 297 139 297 217 307 217C334 217 361 209 361 200L361 139 634 139 634 213 645 213C677 212 698 202 698 195L698 139 931 139C945 139 955 134 957 123 925 92 872 51 872 51L825 109 698 109 698 46C723 43 732 33 733 20L634 10 634 109 361 109 361 46C386 43 394 33 396 20L297 10 297 109ZM468 154C459 181 446 221 435 250L237 250 166 217 166 571 176 571 191 569 191 832C129 838 77 842 43 844L89 928C99 926 107 919 112 907 292 870 419 840 508 816L506 800 253 826 253 697 483 697C497 697 505 692 508 681 478 652 430 613 430 613L387 668 253 668 253 599C275 596 285 587 287 574L206 566C220 561 230 553 230 549L230 533 772 533 772 567 782 567C803 567 835 551 836 546L836 291C856 288 872 280 879 272L799 210 762 250 477 250 527 198C548 199 561 192 566 178ZM772 503L230 503 230 279 772 279ZM824 599C776 631 686 676 603 705L603 599C622 596 632 587 634 575L540 564 540 847C540 895 556 910 636 910L748 910C909 910 941 901 941 871 941 859 934 853 912 845L909 755 897 755C888 796 877 832 870 844 865 851 860 852 849 853 835 854 798 855 752 855L646 855C607 855 603 850 603 835L603 729C694 713 791 684 853 662 876 669 892 669 901 660ZM619 280C595 306 561 332 522 356 468 340 400 325 314 311L309 329C368 345 424 363 475 383 412 417 339 447 271 467L279 483C365 467 454 439 527 405 588 431 637 458 666 480 710 492 731 435 582 377 610 361 634 345 654 328 675 335 683 333 691 324Z"/>
</svg>