<svg xmlns="http://www.w3.org/2000/svg"
    viewBox="0 0 1000 1000">
  <!--
© 2017-2024 Adobe (http://www.adobe.com/).
Noto is a trademark of Google Inc.
This Font Software is licensed under the SIL Open Font License, Version 1.1. This Font Software is distributed on an "AS IS" BASIS, WITHOUT WARRANTIES OR CONDITIONS OF ANY KIND, either express or implied. See the SIL Open Font License for the specific language, permissions and limitations governing your use of this Font Software.
http://scripts.sil.org/OFL
  -->
<path d="M42 110L49 140 303 140 303 220 314 220C340 220 368 212 368 204L368 140 624 140 624 217 635 217C668 216 689 206 689 199L689 140 929 140C943 140 953 135 956 124 924 93 871 52 871 52L824 110 689 110 689 45C713 42 722 32 724 19L624 9 624 110 368 110 368 45C392 42 401 32 403 19L303 9 303 110ZM672 531C601 599 503 652 409 687L420 706C523 681 629 637 708 580 727 584 737 582 743 573ZM769 603C677 689 557 749 433 787L441 806C576 777 703 728 804 653 826 657 835 656 841 646ZM863 682C728 816 574 871 381 906L386 926C591 903 753 859 902 735 925 740 936 738 942 727ZM236 201C189 363 108 523 32 623L45 633C86 596 126 551 162 500L162 928 173 928C197 928 223 913 224 907L224 447C242 444 251 438 254 428L216 414C246 364 272 309 295 253 316 254 328 245 332 234ZM551 202C515 283 446 377 374 430L386 443C434 418 481 383 521 345 548 386 582 422 621 452 551 505 461 548 360 580L367 595C478 570 579 532 661 480 733 525 818 557 912 579 919 549 938 531 964 525L965 513C874 501 785 480 708 447 752 413 790 373 820 327L927 327C941 327 950 322 953 311 921 282 871 241 871 241L826 298 566 298C582 279 597 260 609 242 632 245 640 240 644 230ZM302 326L302 824 313 824C334 824 360 810 360 802L360 360C381 356 388 348 390 336ZM657 423C608 397 567 366 536 330L539 327 738 327C717 362 690 394 657 423Z"/>
</svg>