<svg xmlns="http://www.w3.org/2000/svg" name="gid11295" data-unicode="蔗"
    viewBox="0 0 1000 1000">
  <!--
© 2017-2024 Adobe (http://www.adobe.com/).
Noto is a trademark of Google Inc.
This Font Software is licensed under the SIL Open Font License, Version 1.1. This Font Software is distributed on an "AS IS" BASIS, WITHOUT WARRANTIES OR CONDITIONS OF ANY KIND, either express or implied. See the SIL Open Font License for the specific language, permissions and limitations governing your use of this Font Software.
http://scripts.sil.org/OFL
  -->
<path d="M301 752C295 818 244 870 200 888 178 899 164 918 172 939 182 963 218 962 245 947 288 924 338 859 317 753ZM435 755L421 759C436 804 450 873 446 926 496 985 572 872 435 755ZM589 754L577 760C608 803 644 873 649 927 709 981 773 850 589 754ZM748 744L737 753C791 800 857 882 873 947 947 998 995 834 748 744ZM44 140L51 170 307 170 307 248 317 248C345 248 372 239 372 231L372 170 623 170 623 245 634 245C667 244 688 233 688 227L688 170 931 170C945 170 955 165 957 154 925 123 872 82 872 82L825 140 688 140 688 77C713 74 721 64 723 50L623 41 623 140 372 140 372 77C396 74 405 64 406 50L307 41 307 140ZM630 358L630 461 429 461 429 392C451 389 459 380 461 368L366 358 366 461 185 461 185 330 916 330C930 330 939 325 942 315 909 284 856 243 856 242L809 301 529 301 529 234C551 230 559 221 561 209L465 199 465 301 196 301 122 268 122 481C122 627 114 786 30 917L43 929C175 800 185 615 185 480L188 490 366 490 366 727 378 727C402 727 429 714 429 707L429 658 630 658 630 714 642 714C666 714 694 701 694 693L694 490 902 490C916 490 926 485 929 474 897 445 846 405 846 405L801 461 694 461 694 392C715 389 724 380 726 368ZM429 490L630 490 630 630 429 630Z"/>
</svg>