<svg xmlns="http://www.w3.org/2000/svg" name="gid11301" data-unicode="蔟"
    viewBox="0 0 1000 1000">
  <!--
© 2017-2024 Adobe (http://www.adobe.com/).
Noto is a trademark of Google Inc.
This Font Software is licensed under the SIL Open Font License, Version 1.1. This Font Software is distributed on an "AS IS" BASIS, WITHOUT WARRANTIES OR CONDITIONS OF ANY KIND, either express or implied. See the SIL Open Font License for the specific language, permissions and limitations governing your use of this Font Software.
http://scripts.sil.org/OFL
  -->
<path d="M538 233C512 337 466 435 416 497L431 507C473 475 512 432 545 381L929 381C943 381 953 376 956 365 922 333 872 296 872 296L826 351 564 351C576 330 587 307 597 284 615 285 625 279 629 270L636 270C668 269 690 258 690 251L690 180 930 180C944 180 954 175 956 164 925 134 872 92 872 92L824 150 690 150 690 76C714 73 723 63 725 50L625 40 625 150 369 150 369 76C393 73 402 63 404 50L304 40 304 150 43 150 50 180 304 180 304 273 314 273C341 273 369 264 369 255L369 180 625 180 625 261ZM203 236L203 376 41 376 49 404 169 404C170 620 154 794 36 946L46 959C168 850 212 716 228 549L328 549C323 756 311 851 291 872 283 880 276 882 261 882 244 882 202 879 176 876L175 894C200 898 224 904 234 913 245 923 247 940 247 957 279 958 310 948 332 926 367 892 382 792 388 557 408 554 419 549 426 541L354 482 319 520 230 520C233 483 235 444 236 404L421 404C435 404 444 399 446 388 418 360 369 322 369 322L328 376 266 376 266 268C285 265 293 256 295 245ZM566 390C548 481 513 571 477 629L492 639C527 608 559 566 587 518L659 518C658 570 657 618 651 662L440 662 448 692 645 692C624 795 568 876 416 941L429 957C617 894 684 808 710 692L714 692C733 793 779 902 905 960 909 922 929 910 962 904L964 892C824 846 762 774 735 692L933 692C947 692 956 687 959 676 927 646 878 607 878 607L834 662 715 662C722 618 725 570 726 518L885 518C898 518 908 514 910 503 879 473 832 438 832 438L790 489 603 489C611 473 619 455 626 438 647 438 658 429 661 417Z"/>
</svg>