<svg xmlns="http://www.w3.org/2000/svg"
    viewBox="0 0 1000 1000">
  <!--
© 2017-2023 Adobe (http://www.adobe.com/).
Noto is a trademark of Google Inc.
This Font Software is licensed under the SIL Open Font License, Version 1.1. This Font Software is distributed on an "AS IS" BASIS, WITHOUT WARRANTIES OR CONDITIONS OF ANY KIND, either express or implied. See the SIL Open Font License for the specific language, permissions and limitations governing your use of this Font Software.
http://scripts.sil.org/OFL
  -->
<path d="M42 111L49 140 303 140 303 221 314 221C340 221 368 212 368 205L368 140 624 140 624 218 635 218C668 217 689 207 689 200L689 140 929 140C943 140 953 135 956 124 924 94 871 53 871 53L824 111 689 111 689 46C713 42 722 33 724 19L624 9 624 111 368 111 368 46C392 42 401 33 403 20L303 9 303 111ZM388 623L380 635C439 661 516 714 547 762 624 790 635 635 388 623ZM725 674L715 683C781 729 855 811 869 885 950 939 996 751 725 674ZM308 676L308 852C308 901 323 914 405 914L525 914C694 914 726 903 726 872 726 860 719 852 698 845L695 742 682 742C671 788 661 828 654 842 649 851 645 853 632 854 618 855 578 855 528 855L416 855C377 855 373 852 373 839L373 710C390 708 400 698 401 687ZM209 670C204 748 141 801 88 820 66 831 51 850 59 872 68 896 106 896 136 882 184 858 247 793 226 670ZM183 259L183 658 193 658C221 658 248 643 248 636L248 609 746 609 746 648 756 648C777 648 810 633 811 626L811 300C831 296 846 288 853 281L772 218 736 259 447 259C472 240 501 217 521 200 542 203 557 197 563 183L460 152 407 259 253 259 183 226ZM454 379L599 379C582 399 563 417 543 433 512 420 475 408 430 396ZM515 327C541 327 553 322 557 312L467 288C448 319 417 352 380 383L306 367 301 384 355 402C332 419 308 434 282 446L292 460C328 449 363 434 394 417 431 432 466 448 498 464 438 500 366 526 280 547L291 564C394 547 475 522 542 487 585 511 620 534 642 553 684 568 706 516 592 456 622 435 649 412 673 385 695 384 708 380 716 373L649 318 617 349 492 349ZM467 288L746 288 746 580 248 580 248 288Z"/>
</svg>