<svg xmlns="http://www.w3.org/2000/svg"
    viewBox="0 0 1000 1000">
  <!--
© 2017-2023 Adobe (http://www.adobe.com/).
Noto is a trademark of Google Inc.
This Font Software is licensed under the SIL Open Font License, Version 1.1. This Font Software is distributed on an "AS IS" BASIS, WITHOUT WARRANTIES OR CONDITIONS OF ANY KIND, either express or implied. See the SIL Open Font License for the specific language, permissions and limitations governing your use of this Font Software.
http://scripts.sil.org/OFL
  -->
<path d="M307 719L294 723C306 764 315 827 307 877 355 935 432 826 307 719ZM447 710L434 716C460 753 485 814 486 862 540 913 605 794 447 710ZM593 706L583 715C618 739 660 783 673 819 732 855 772 740 593 706ZM172 719C170 779 125 829 85 847 65 858 51 876 59 896 70 919 104 918 129 903 169 881 212 818 190 719ZM51 112L58 141 328 141 328 219 339 219C365 219 392 210 392 202L392 141 606 141 606 216 617 216C648 216 670 204 670 198L670 141 925 141C939 141 950 136 952 125 920 95 867 54 867 54L821 112 670 112 670 48C695 45 704 35 706 21L606 12 606 112 392 112 392 48C417 45 426 35 428 21L328 12 328 112ZM457 156C450 187 438 231 429 262L288 262 218 230 218 718 229 718C255 718 282 702 282 695L282 679 834 679C823 770 804 830 785 844 776 850 767 852 752 852 732 852 673 848 640 845L639 861C670 867 701 874 713 883 725 893 729 910 729 927 763 927 797 918 820 902 858 875 884 801 896 685 915 684 928 679 934 672L862 612 827 649 282 649 282 583 927 583C942 583 952 578 954 567 922 538 870 497 870 497L824 554 282 554 282 489 700 489 700 519 710 519C731 519 764 504 765 498L765 303C783 299 800 291 806 284L726 223 690 262 474 262C493 242 514 218 528 201 550 201 563 193 567 179ZM700 291L700 360 282 360 282 291ZM282 390L700 390 700 460 282 460Z"/>
</svg>