<svg xmlns="http://www.w3.org/2000/svg" name="gid11310" data-unicode="蔫"
    viewBox="0 0 1000 1000">
  <!--
© 2017-2024 Adobe (http://www.adobe.com/).
Noto is a trademark of Google Inc.
This Font Software is licensed under the SIL Open Font License, Version 1.1. This Font Software is distributed on an "AS IS" BASIS, WITHOUT WARRANTIES OR CONDITIONS OF ANY KIND, either express or implied. See the SIL Open Font License for the specific language, permissions and limitations governing your use of this Font Software.
http://scripts.sil.org/OFL
  -->
<path d="M42 141L48 170 322 170 322 245 332 245C358 245 385 236 385 228L385 170 608 170 608 242 618 242C650 242 672 230 672 224L672 170 929 170C943 170 954 165 956 154 923 124 871 83 871 83L824 141 672 141 672 80C697 76 706 67 708 53L608 43 608 141 385 141 385 80C410 76 419 67 421 53L322 43 322 141ZM170 762C165 817 117 860 77 875 57 886 42 903 50 923 59 946 93 946 118 933 159 913 205 857 187 763ZM308 754L295 758C304 794 310 850 303 895 347 949 423 853 308 754ZM451 747L439 753C464 786 490 840 492 882 546 929 605 817 451 747ZM614 743L603 752C635 775 673 819 684 853 744 889 785 773 614 743ZM235 326L235 477 46 477 55 507 272 507C257 576 221 695 196 748 224 757 249 757 264 747L274 717 833 717C823 804 806 860 788 874 779 880 771 881 755 881 737 881 680 877 648 874L648 891C678 896 707 903 719 912 731 922 735 939 734 957 768 957 801 949 824 933 861 907 886 837 897 724 916 722 928 718 935 711L862 651 826 689 283 689 307 614 821 614C835 614 844 609 846 598 817 570 772 535 772 535L732 584 316 584 338 507 923 507C937 507 947 502 949 491 919 462 870 425 870 425L827 477 531 477 531 398 811 398C825 398 834 393 836 382 806 357 761 324 761 324L721 369 531 369 531 293 893 293C906 293 916 288 919 277 889 248 841 212 841 212L799 263 101 263 109 293 468 293 468 477 298 477 298 359C317 356 324 348 326 336Z"/>
</svg>