<svg xmlns="http://www.w3.org/2000/svg" name="gid11333" data-unicode="蕑"
    viewBox="0 0 1000 1000">
  <!--
© 2017-2024 Adobe (http://www.adobe.com/).
Noto is a trademark of Google Inc.
This Font Software is licensed under the SIL Open Font License, Version 1.1. This Font Software is distributed on an "AS IS" BASIS, WITHOUT WARRANTIES OR CONDITIONS OF ANY KIND, either express or implied. See the SIL Open Font License for the specific language, permissions and limitations governing your use of this Font Software.
http://scripts.sil.org/OFL
  -->
<path d="M42 139L49 168 311 168 311 245 321 245C348 245 376 236 376 229L376 168 617 168 617 242 627 242C660 242 681 231 681 224L681 168 929 168C943 168 953 163 955 152 923 122 871 81 871 81L824 139 681 139 681 77C706 74 714 64 716 50L617 41 617 139 376 139 376 77C400 74 409 63 411 50L311 41 311 139ZM369 288L369 359 165 359 165 288ZM100 259L100 957 111 957C141 957 165 941 165 932L165 493 369 493 369 528 379 528C400 528 432 513 432 507L432 298C449 295 464 287 470 280L394 223 360 259 170 259 100 226ZM165 388L369 388 369 464 165 464ZM833 288L833 359 619 359 619 288ZM556 259L556 527 565 527C591 527 619 512 619 508L619 493 833 493 833 859C833 874 828 879 813 879 796 879 717 872 717 872L717 889C752 894 773 901 786 911 797 922 801 939 804 959 888 950 898 918 898 867L898 301C918 297 934 289 941 281L856 218 823 259 624 259 556 229ZM619 388L833 388 833 464 619 464ZM397 594L595 594 595 651 397 651ZM337 565L337 670C337 759 331 852 264 930L275 944C345 897 375 834 388 774L595 774 595 848C595 861 591 866 578 866 560 866 494 862 494 861L494 878C527 882 544 889 555 898 565 907 569 923 571 940 645 932 655 904 655 855L655 606C675 603 693 594 699 587L617 526 585 565 408 565 337 533ZM397 681L595 681 595 745 393 745C396 723 397 701 397 681Z"/>
</svg>