<svg xmlns="http://www.w3.org/2000/svg"
    viewBox="0 0 1000 1000">
  <!--
© 2017-2023 Adobe (http://www.adobe.com/).
Noto is a trademark of Google Inc.
This Font Software is licensed under the SIL Open Font License, Version 1.1. This Font Software is distributed on an "AS IS" BASIS, WITHOUT WARRANTIES OR CONDITIONS OF ANY KIND, either express or implied. See the SIL Open Font License for the specific language, permissions and limitations governing your use of this Font Software.
http://scripts.sil.org/OFL
  -->
<path d="M43 110L50 140 304 140 304 220 314 220C341 220 369 212 369 204L369 140 625 140 625 217 636 217C668 216 690 206 690 199L690 140 930 140C944 140 954 135 956 124 925 93 872 52 872 52L824 110 690 110 690 45C714 42 723 32 725 19L625 9 625 110 369 110 369 45C393 42 402 32 404 19L304 9 304 110ZM109 552L109 830 38 839 77 921C87 919 96 910 101 898 263 854 381 816 467 789L464 772 297 800 297 630 434 630C446 630 456 625 459 614 432 587 388 551 388 551L350 601 297 601 297 472 360 472 360 509 369 509C390 509 420 493 421 487L421 302C440 298 456 290 463 283L385 223 351 262 182 262 118 233 118 521 127 521C152 521 178 507 178 501L178 472 238 472 238 810 165 821 165 585C185 582 194 574 196 562ZM360 442L178 442 178 291 360 291ZM595 212C567 312 505 430 432 496L445 507C497 474 543 426 582 374 605 417 634 456 669 490 595 568 500 634 389 680L399 695C441 681 481 666 518 648L518 929 527 929C558 929 579 912 579 906L579 863 812 863 812 926 822 926C842 926 875 913 876 907L876 673C892 671 904 664 909 657L873 629C891 637 911 645 930 652 938 624 956 606 980 603L982 593C896 571 811 536 740 489 786 440 824 386 854 329 878 328 888 325 896 317L828 255 787 293 633 293 656 246C681 247 688 243 692 232ZM812 834L579 834 579 667 812 667ZM805 637L591 637 562 625C616 595 663 561 704 524 742 557 785 585 831 609ZM616 322L784 322C762 370 733 416 697 459 657 427 622 392 596 353Z"/>
</svg>