<svg xmlns="http://www.w3.org/2000/svg"
    viewBox="0 0 1000 1000">
  <!--
© 2017-2023 Adobe (http://www.adobe.com/).
Noto is a trademark of Google Inc.
This Font Software is licensed under the SIL Open Font License, Version 1.1. This Font Software is distributed on an "AS IS" BASIS, WITHOUT WARRANTIES OR CONDITIONS OF ANY KIND, either express or implied. See the SIL Open Font License for the specific language, permissions and limitations governing your use of this Font Software.
http://scripts.sil.org/OFL
  -->
<path d="M187 554L195 584 787 584C801 584 811 579 814 568 783 543 737 510 737 510L697 554ZM60 100L66 130 337 130 337 191 347 191C374 191 401 182 401 175L401 130 598 130 598 189 609 189C641 188 662 177 662 172L662 130 917 130C932 130 942 125 944 114 912 85 861 44 861 44L815 100 662 100 662 48C687 45 696 35 698 21L598 12 598 100 401 100 401 48C426 45 434 35 436 21L337 12 337 100ZM147 377L147 532 156 532C179 532 206 518 206 513L206 498 396 498 396 522 405 522C425 522 455 508 456 502L456 412C471 410 484 402 489 396L420 344 387 377 211 377 147 348ZM396 469L206 469 206 406 396 406ZM290 205L290 353 299 353C324 353 353 339 353 333L353 324 650 324 650 349 660 349C681 349 712 335 713 329L713 242C730 239 744 231 750 225L675 169 641 205 358 205 290 175ZM353 295L353 234 650 234 650 295ZM64 636L73 666 282 666C261 710 225 772 200 803 225 814 251 819 267 812L303 753 708 753C696 800 678 836 661 846 652 852 642 854 625 854 603 854 522 847 479 844L479 861C519 866 560 874 574 884 589 894 593 911 593 928 633 928 669 919 693 905 730 883 759 827 772 760 793 758 805 754 813 747L741 689 705 725 320 725 352 666 914 666C928 666 938 661 940 650 908 622 860 587 860 587L817 636ZM540 377L540 526 549 526C574 526 600 512 600 507L600 498 796 498 796 525 806 525C826 525 856 511 857 505L857 414C874 411 887 403 893 397L821 343 787 377 605 377 540 348ZM796 469L600 469 600 406 796 406Z"/>
</svg>