<svg xmlns="http://www.w3.org/2000/svg" name="gid11348" data-unicode="蕢"
    viewBox="0 0 1000 1000">
  <!--
© 2017-2024 Adobe (http://www.adobe.com/).
Noto is a trademark of Google Inc.
This Font Software is licensed under the SIL Open Font License, Version 1.1. This Font Software is distributed on an "AS IS" BASIS, WITHOUT WARRANTIES OR CONDITIONS OF ANY KIND, either express or implied. See the SIL Open Font License for the specific language, permissions and limitations governing your use of this Font Software.
http://scripts.sil.org/OFL
  -->
<path d="M46 128L52 158 317 158 317 218 328 218C355 218 381 210 381 203L381 158 613 158 613 216 624 216C656 215 677 205 677 199L677 158 926 158C940 158 951 153 953 142 921 112 869 72 869 72L822 128 677 128 677 76C702 73 710 63 712 50L613 40 613 128 381 128 381 76C406 73 415 63 417 50L317 40 317 128ZM557 829L554 846C682 872 779 910 836 947 914 994 1028 851 557 829ZM381 812C291 867 167 912 64 939L76 958C188 942 319 912 420 872 439 877 449 876 456 867ZM272 623L721 623 721 685 272 685ZM272 593L272 532 721 532 721 593ZM272 713L721 713 721 776 272 776ZM208 503L208 853 218 853C244 853 272 838 272 832L272 805 721 805 721 834 731 834C752 834 784 819 785 813L785 542C802 539 817 530 823 523L746 465 711 503 277 503 208 471ZM466 177L466 240 287 240 217 208 217 403 227 403C252 403 281 388 281 383L281 364 466 364 466 422 66 422 75 450 915 450C929 450 938 446 941 435 909 407 860 370 860 370L818 422 528 422 528 364 711 364 711 393 721 393C742 393 774 378 775 373L775 277C792 274 806 266 812 260L736 203 702 240 528 240 528 213C552 210 562 200 564 186ZM281 334L281 269 466 269 466 334ZM711 334L528 334 528 269 711 269Z"/>
</svg>