<svg xmlns="http://www.w3.org/2000/svg"
    viewBox="0 0 1000 1000">
  <!--
© 2017-2023 Adobe (http://www.adobe.com/).
Noto is a trademark of Google Inc.
This Font Software is licensed under the SIL Open Font License, Version 1.1. This Font Software is distributed on an "AS IS" BASIS, WITHOUT WARRANTIES OR CONDITIONS OF ANY KIND, either express or implied. See the SIL Open Font License for the specific language, permissions and limitations governing your use of this Font Software.
http://scripts.sil.org/OFL
  -->
<path d="M46 98L52 128 317 128 317 188 328 188C355 188 381 180 381 173L381 128 613 128 613 186 624 186C656 185 677 175 677 169L677 128 926 128C940 128 951 123 953 112 921 82 869 42 869 42L822 98 677 98 677 46C702 43 710 33 712 20L613 10 613 98 381 98 381 46C406 43 415 33 417 20L317 10 317 98ZM557 799L554 816C682 842 779 880 836 917 914 964 1028 821 557 799ZM381 782C291 837 167 882 64 909L76 928C188 912 319 882 420 842 439 847 449 846 456 837ZM272 593L721 593 721 655 272 655ZM272 563L272 502 721 502 721 563ZM272 683L721 683 721 746 272 746ZM208 473L208 823 218 823C244 823 272 808 272 802L272 775 721 775 721 804 731 804C752 804 784 789 785 783L785 512C802 509 817 500 823 493L746 435 711 473 277 473 208 441ZM466 147L466 210 287 210 217 178 217 373 227 373C252 373 281 358 281 353L281 334 466 334 466 392 66 392 75 420 915 420C929 420 938 416 941 405 909 377 860 340 860 340L818 392 528 392 528 334 711 334 711 363 721 363C742 363 774 348 775 343L775 247C792 244 806 236 812 230L736 173 702 210 528 210 528 183C552 180 562 170 564 156ZM281 304L281 239 466 239 466 304ZM711 304L528 304 528 239 711 239Z"/>
</svg>