<svg xmlns="http://www.w3.org/2000/svg" name="gid11363" data-unicode="蕿"
    viewBox="0 0 1000 1000">
  <!--
© 2017-2024 Adobe (http://www.adobe.com/).
Noto is a trademark of Google Inc.
This Font Software is licensed under the SIL Open Font License, Version 1.1. This Font Software is distributed on an "AS IS" BASIS, WITHOUT WARRANTIES OR CONDITIONS OF ANY KIND, either express or implied. See the SIL Open Font License for the specific language, permissions and limitations governing your use of this Font Software.
http://scripts.sil.org/OFL
  -->
<path d="M42 141L49 170 303 170 303 251 314 251C340 251 368 242 368 235L368 170 624 170 624 248 635 248C668 247 689 237 689 230L689 170 929 170C943 170 953 165 956 154 924 124 871 83 871 83L824 141 689 141 689 76C713 72 722 63 724 49L624 39 624 141 368 141 368 76C392 72 401 63 403 50L303 39 303 141ZM100 388C103 468 75 531 56 551 8 596 54 641 97 602 134 567 141 488 116 388ZM591 319L578 325C595 355 610 403 607 442 653 492 724 395 591 319ZM769 296L758 305C803 347 865 420 884 471 950 514 991 383 769 296ZM309 337C296 369 269 424 242 472L245 273C268 270 276 260 279 247L181 237C181 583 197 800 39 942L53 959C151 893 198 807 221 698 256 738 289 789 297 832 359 878 407 755 227 670 235 622 239 570 241 514 285 475 331 427 357 397 376 402 388 394 392 385ZM331 573L339 602 512 602C483 743 420 854 289 946L298 960C416 900 491 822 537 724 562 770 594 808 633 840 575 883 504 917 420 941L428 957C525 938 605 909 671 868 734 910 812 939 903 960 910 929 929 909 956 903L956 892C869 882 789 863 720 834 767 798 804 754 832 704 854 704 864 701 872 693L802 630 759 669 559 669C567 648 573 625 579 602L924 602C938 602 948 597 951 586 918 557 867 517 867 517L822 573 585 573C590 547 594 520 598 492L830 492C844 492 853 487 856 476 825 447 775 408 775 408L732 463 425 463 433 492 527 492C525 520 521 547 517 573ZM428 262C412 358 377 446 335 505L351 515C408 470 456 397 486 312 609 309 745 292 835 276 855 285 873 286 882 278L816 213C748 239 626 269 517 287ZM757 698C735 740 706 777 670 810 620 781 578 745 548 699L548 698Z"/>
</svg>