<svg xmlns="http://www.w3.org/2000/svg" name="gid11372" data-unicode="薊"
    viewBox="0 0 1000 1000">
  <!--
© 2017-2024 Adobe (http://www.adobe.com/).
Noto is a trademark of Google Inc.
This Font Software is licensed under the SIL Open Font License, Version 1.1. This Font Software is distributed on an "AS IS" BASIS, WITHOUT WARRANTIES OR CONDITIONS OF ANY KIND, either express or implied. See the SIL Open Font License for the specific language, permissions and limitations governing your use of this Font Software.
http://scripts.sil.org/OFL
  -->
<path d="M620 287L620 766 631 766C655 766 682 752 682 744L682 324C707 321 716 311 718 298ZM817 245L817 857C817 872 812 878 793 878 772 878 671 870 671 870L671 886C715 892 741 899 755 911 769 922 774 938 777 959 869 949 880 915 880 862L880 281C903 278 912 269 915 255ZM242 759L227 762C235 803 241 867 234 916 277 969 343 873 242 759ZM345 756L332 762C354 800 376 864 375 911 423 960 482 851 345 756ZM452 748L440 755C476 792 517 855 527 904 586 947 635 824 452 748ZM138 763C138 823 97 875 58 893 39 904 26 924 34 943 43 966 78 963 102 949 140 925 180 862 156 763ZM228 328L357 328C343 355 324 387 306 412L189 412 164 400C187 377 209 353 228 328ZM42 141L49 170 303 170 303 240 219 217C181 308 105 421 34 486L45 497C72 480 98 460 124 438L124 749 133 749C158 749 184 734 184 728L184 707 473 707 473 737 482 737C502 737 533 723 534 717L534 449C551 447 565 439 570 433L497 376 464 412 335 412C369 388 402 356 426 334 444 333 456 332 463 324L397 262 360 299 250 299 280 255C295 256 304 255 308 251L314 251C340 251 368 242 368 235L368 170 624 170 624 248 635 248C668 247 689 237 689 230L689 170 929 170C943 170 953 165 956 154 924 124 871 83 871 83L824 141 689 141 689 76C713 72 722 63 724 49L624 39 624 141 368 141 368 76C392 72 401 63 403 50L303 39 303 141ZM298 573L298 677 184 677 184 573ZM356 573L473 573 473 677 356 677ZM298 543L184 543 184 442 298 442ZM356 543L356 442 473 442 473 543Z"/>
</svg>