<svg xmlns="http://www.w3.org/2000/svg"
    viewBox="0 0 1000 1000">
  <!--
© 2017-2023 Adobe (http://www.adobe.com/).
Noto is a trademark of Google Inc.
This Font Software is licensed under the SIL Open Font License, Version 1.1. This Font Software is distributed on an "AS IS" BASIS, WITHOUT WARRANTIES OR CONDITIONS OF ANY KIND, either express or implied. See the SIL Open Font License for the specific language, permissions and limitations governing your use of this Font Software.
http://scripts.sil.org/OFL
  -->
<path d="M42 111L49 140 303 140 303 221 314 221C340 221 368 212 368 205L368 140 624 140 624 218 635 218C668 217 689 207 689 200L689 140 929 140C943 140 953 135 956 124 924 94 871 53 871 53L824 111 689 111 689 46C713 42 722 33 724 19L624 9 624 111 368 111 368 46C392 42 401 33 403 20L303 9 303 111ZM690 245L690 927 700 927C728 927 750 911 750 904L750 274 862 274C845 341 819 438 800 491 864 553 891 616 892 682 892 713 885 729 873 738 867 743 860 744 850 744 834 744 797 744 778 744L778 758C799 762 817 766 824 773 832 781 836 802 836 820 927 816 957 779 957 694 957 623 917 553 825 488 859 437 905 341 930 290 952 289 965 287 972 279L898 205 858 245 755 245 690 214ZM426 432L575 432 575 530 426 530ZM426 403L426 314 575 314 575 403ZM367 285L367 532 275 512C271 548 265 582 257 614L147 625C202 560 261 475 311 396 331 399 344 391 349 381L259 340C216 440 160 552 115 628L36 634 70 722C80 721 90 714 95 701 158 678 210 657 250 641 213 765 147 854 58 915L69 928C206 866 296 750 336 555 354 555 364 549 367 540L367 594 376 594C406 594 426 579 426 575L426 558 575 558 575 584 584 584C612 584 635 570 635 566L635 318C654 315 664 309 671 301L602 249 572 285 479 285C498 263 515 238 528 217 549 216 560 206 563 194L468 174C466 207 460 253 454 285L437 285 367 255ZM182 184C164 245 141 312 122 363 102 351 77 341 47 333L39 344C98 381 127 449 139 491 185 529 223 443 145 379 178 337 213 284 243 236 263 237 275 229 279 218ZM581 619C542 649 479 690 426 721L426 630C443 627 452 618 454 607L365 596 365 846C365 889 377 904 440 904L516 904C632 904 660 893 660 867 660 855 653 848 633 841L630 768 619 768C612 800 603 831 596 840 593 846 588 847 580 847 571 848 548 848 518 848L454 848C429 848 426 845 426 832L426 744C487 726 563 699 608 681 625 688 634 686 639 681Z"/>
</svg>