<svg xmlns="http://www.w3.org/2000/svg" name="gid11393" data-unicode="薨"
    viewBox="0 0 1000 1000">
  <!--
© 2017-2024 Adobe (http://www.adobe.com/).
Noto is a trademark of Google Inc.
This Font Software is licensed under the SIL Open Font License, Version 1.1. This Font Software is distributed on an "AS IS" BASIS, WITHOUT WARRANTIES OR CONDITIONS OF ANY KIND, either express or implied. See the SIL Open Font License for the specific language, permissions and limitations governing your use of this Font Software.
http://scripts.sil.org/OFL
  -->
<path d="M314 129L46 129 53 158 314 158 314 221 324 221C351 221 378 213 378 205L378 158 612 158 612 218 623 218C656 217 677 206 677 201L677 158 924 158C938 158 948 153 951 142 918 112 867 73 867 73L820 129 677 129 677 76C701 73 710 63 712 49L612 39 612 129 378 129 378 76C403 73 412 62 413 49L314 39ZM150 418L133 418C136 474 104 528 70 548 50 562 37 581 46 602 58 625 94 622 116 605 139 588 159 552 161 500L839 500C829 521 817 545 807 562L765 530 724 576 159 576 168 606 269 606C222 674 140 746 59 791L69 805C109 789 150 769 188 745 214 764 238 793 247 819 298 850 338 757 209 732 226 721 242 709 258 697L411 697C333 817 217 889 53 941L63 958C269 911 395 833 485 704 507 703 520 700 527 692L458 633 423 668 292 668C314 649 333 628 350 606L550 606 550 869C550 918 565 933 645 933L757 933C919 933 949 922 949 893 949 880 942 872 920 866L917 774 906 774C896 815 886 852 878 864 874 871 869 873 858 874 844 875 806 875 760 875L655 875C616 875 612 871 612 856L612 792C694 772 779 737 830 708 852 714 869 713 876 703L798 650C760 687 685 736 612 769L612 606 814 606C828 606 838 601 841 590L821 573C850 558 890 529 912 508 931 507 942 506 950 499L880 431 842 470 160 470C158 454 155 437 150 418ZM245 419L245 399 775 399 775 431 785 431C806 431 838 416 839 409L839 280C857 276 872 269 878 262L801 203 766 241 252 241 182 210 182 438 191 438C217 438 245 424 245 419ZM578 271L578 370 438 370 438 271ZM638 271L775 271 775 370 638 370ZM378 271L378 370 245 370 245 271Z"/>
</svg>