<svg xmlns="http://www.w3.org/2000/svg"
    viewBox="0 0 1000 1000">
  <!--
© 2017-2024 Adobe (http://www.adobe.com/).
Noto is a trademark of Google Inc.
This Font Software is licensed under the SIL Open Font License, Version 1.1. This Font Software is distributed on an "AS IS" BASIS, WITHOUT WARRANTIES OR CONDITIONS OF ANY KIND, either express or implied. See the SIL Open Font License for the specific language, permissions and limitations governing your use of this Font Software.
http://scripts.sil.org/OFL
  -->
<path d="M132 329L119 335C139 369 160 426 159 472 165 478 172 482 178 484L39 484 47 513 237 513 237 607 54 607 62 636 209 636C169 721 106 804 30 866L41 882C119 836 186 779 237 712L237 927 250 927C273 927 301 912 301 904L301 703C346 734 396 783 413 827 483 868 520 726 301 686L301 636 478 636C492 636 501 631 503 620 474 593 427 555 427 555L385 607 301 607 301 549C325 545 334 537 336 523L246 513 499 513C511 513 521 508 524 497 493 470 443 434 443 434L400 484 333 484C362 448 390 405 409 372 430 372 442 363 445 351L358 329 490 329C503 329 512 324 515 313 484 285 435 247 435 247L393 299 301 299 301 229C310 227 316 225 320 222 345 221 370 213 370 206L370 141 622 141 622 218 633 218C666 218 687 207 687 201L687 141 929 141C943 141 954 136 956 125 924 95 871 54 871 54L824 112 687 112 687 46C712 43 720 33 722 20L622 10 622 112 370 112 370 46C394 43 403 33 405 20L305 10 305 112 42 112 49 141 305 141 305 202 237 195 237 299 58 299 66 329 350 329C339 376 322 438 305 484L192 484C228 475 244 396 132 329ZM861 189C811 219 721 259 637 287L558 259 558 506C558 651 543 797 429 915L442 928C606 815 622 644 622 506L622 493 763 493 763 926 774 926C807 926 828 910 828 906L828 493 941 493C955 493 964 488 967 478 936 448 887 408 887 408L842 464 622 464 622 315C718 303 823 280 891 258 914 267 932 267 941 258Z"/>
</svg>