<svg xmlns="http://www.w3.org/2000/svg" name="gid11416" data-unicode="藉"
    viewBox="0 0 1000 1000">
  <!--
© 2017-2024 Adobe (http://www.adobe.com/).
Noto is a trademark of Google Inc.
This Font Software is licensed under the SIL Open Font License, Version 1.1. This Font Software is distributed on an "AS IS" BASIS, WITHOUT WARRANTIES OR CONDITIONS OF ANY KIND, either express or implied. See the SIL Open Font License for the specific language, permissions and limitations governing your use of this Font Software.
http://scripts.sil.org/OFL
  -->
<path d="M389 286C361 296 324 308 283 319L283 265C299 262 308 258 312 251L314 251C340 251 368 242 368 235L368 170 624 170 624 245 551 237 551 349 445 349 453 378 551 378 551 503 425 503 433 532 934 532C947 532 956 527 959 516 931 490 886 454 886 454L847 503 791 503 791 378 911 378C925 378 934 373 937 362 909 335 866 302 866 302L828 349 791 349 791 269C811 266 818 258 820 247L729 237 729 349 613 349 613 269C632 266 640 258 641 248 670 246 689 237 689 230L689 170 929 170C943 170 953 165 956 154 924 124 871 83 871 83L824 141 689 141 689 76C713 72 722 63 724 49L624 39 624 141 368 141 368 76C392 72 401 63 403 50L303 39 303 141 42 141 49 170 303 170 303 236 220 227 220 335C165 349 107 361 55 369L59 388C111 385 167 380 220 373L220 459 74 459 82 488 220 488 220 578 47 578 55 607 196 607C161 698 107 788 36 857L49 872C118 823 176 763 220 694L220 958 232 958C255 958 283 943 283 934L283 678C325 712 370 764 382 808 447 853 493 714 283 661L283 607 443 607C457 607 466 602 469 591 440 565 395 529 395 529L356 578 283 578 283 488 421 488C435 488 443 483 446 472 419 446 374 412 374 412L337 459 283 459 283 364C328 357 370 349 404 342 425 351 440 352 449 344ZM613 378L729 378 729 503 613 503ZM803 760L803 857 564 857 564 760ZM803 730L564 730 564 635 803 635ZM500 606L500 955 511 955C537 955 564 940 564 933L564 887 803 887 803 947 813 947C833 947 866 932 867 926L867 645C884 641 899 633 904 626L828 568 794 606 569 606 500 575Z"/>
</svg>