<svg xmlns="http://www.w3.org/2000/svg"
    viewBox="0 0 1000 1000">
  <!--
© 2017-2024 Adobe (http://www.adobe.com/).
Noto is a trademark of Google Inc.
This Font Software is licensed under the SIL Open Font License, Version 1.1. This Font Software is distributed on an "AS IS" BASIS, WITHOUT WARRANTIES OR CONDITIONS OF ANY KIND, either express or implied. See the SIL Open Font License for the specific language, permissions and limitations governing your use of this Font Software.
http://scripts.sil.org/OFL
  -->
<path d="M566 503L573 533 882 533C896 533 905 528 908 517 877 487 827 449 827 449L783 503ZM175 262L275 262 275 334 175 334ZM115 233L115 638 124 638C155 638 175 623 175 618L175 589 531 589C545 589 554 584 557 573 527 547 482 513 482 513L443 560 333 560 333 479 414 479 414 498 423 498C442 498 471 484 472 478L472 368C487 366 500 358 505 353L437 302 406 334 333 334 333 262 504 262C516 262 526 257 529 246 500 220 455 188 455 188L416 233 186 233 115 202ZM175 560L175 479 275 479 275 560ZM414 363L414 450 175 450 175 363ZM372 871L250 871 250 679 372 679ZM433 871L433 679 560 679 560 871ZM621 871L621 679 757 679 757 871ZM187 650L187 871 44 871 52 900 937 900C950 900 960 895 963 884 932 855 883 813 883 813L838 871 822 871 822 686C846 683 859 678 867 668L780 605 745 650 261 650 187 617ZM42 110L48 140 323 140 323 220 333 220C360 220 386 211 386 204L386 140 606 140 606 218 617 218 619 218C595 320 555 419 509 483L523 493C562 461 598 418 628 368L915 368C929 368 939 363 942 352 909 322 862 284 862 284L818 339 645 339C658 314 670 288 681 261 702 261 713 253 717 241L634 216C656 213 670 204 670 200L670 140 929 140C943 140 953 135 956 124 923 93 871 52 871 52L824 110 670 110 670 45C696 42 704 32 706 19L606 9 606 110 386 110 386 45C412 42 420 32 422 19L323 9 323 110Z"/>
</svg>