<svg xmlns="http://www.w3.org/2000/svg" name="gid11425" data-unicode="藙"
    viewBox="0 0 1000 1000">
  <!--
© 2017-2024 Adobe (http://www.adobe.com/).
Noto is a trademark of Google Inc.
This Font Software is licensed under the SIL Open Font License, Version 1.1. This Font Software is distributed on an "AS IS" BASIS, WITHOUT WARRANTIES OR CONDITIONS OF ANY KIND, either express or implied. See the SIL Open Font License for the specific language, permissions and limitations governing your use of this Font Software.
http://scripts.sil.org/OFL
  -->
<path d="M245 220L245 303 66 303 74 332 473 332C487 332 496 327 499 316 469 288 420 249 420 249L378 303 309 303 309 256C327 252 336 247 338 238 355 235 368 229 368 224L368 166 624 166 624 237 635 237C668 236 689 225 689 219L689 166 929 166C943 166 953 161 956 150 923 120 871 79 871 79L824 137 689 137 689 76C713 73 722 63 724 50L624 40 624 137 368 137 368 76C392 73 401 63 403 50L303 40 303 137 42 137 49 166 303 166 303 226ZM417 516C401 547 366 602 334 644 316 608 291 573 257 543 274 531 289 517 303 503L508 503C522 503 531 498 534 487 503 457 453 420 453 420L410 473 336 473C364 442 391 407 409 378 431 378 442 369 445 358L348 332C340 374 325 431 311 473L216 473C245 457 251 390 151 340L139 346C159 376 176 425 173 464 177 468 181 471 185 473L44 473 52 503 218 503C174 550 114 594 46 626L56 644C123 622 186 593 239 557L254 579C208 645 132 706 58 741L65 758C143 732 224 686 283 636 288 649 292 662 295 674 238 756 142 832 47 875L54 891C146 860 240 807 308 749 313 807 302 856 283 877 277 884 270 885 258 885 236 885 168 882 134 879L134 895C165 900 198 908 209 917 221 925 226 937 227 957 281 957 312 947 331 927 370 887 385 792 355 696 408 731 464 783 484 828 556 863 580 717 345 668L343 663C386 636 432 601 457 578 476 584 490 577 494 569ZM823 606C798 666 763 720 717 768 665 723 623 669 594 606ZM506 577L515 606 572 606C598 682 635 748 683 802 617 862 534 910 436 945L442 961C553 932 643 891 716 837 771 890 837 932 912 963 921 934 941 915 968 911L970 901C893 878 821 845 760 801 820 748 865 685 899 614 921 613 932 610 939 602L867 536 823 577ZM569 275L569 352C569 419 563 489 499 548L509 562C620 506 630 417 630 352L630 305 765 305 765 452C765 491 773 507 823 507L863 507C937 507 960 493 960 467 960 454 956 448 938 441L935 374 924 374C916 404 908 432 902 441 899 446 895 447 891 447 887 447 878 447 868 447L841 447C830 447 827 444 827 435L827 313C844 311 854 306 860 299L792 239 757 275 642 275 569 243Z"/>
</svg>