<svg xmlns="http://www.w3.org/2000/svg"
    viewBox="0 0 1000 1000">
  <!--
© 2017-2024 Adobe (http://www.adobe.com/).
Noto is a trademark of Google Inc.
This Font Software is licensed under the SIL Open Font License, Version 1.1. This Font Software is distributed on an "AS IS" BASIS, WITHOUT WARRANTIES OR CONDITIONS OF ANY KIND, either express or implied. See the SIL Open Font License for the specific language, permissions and limitations governing your use of this Font Software.
http://scripts.sil.org/OFL
  -->
<path d="M42 97L49 126 301 126 301 187 311 187C338 187 365 179 365 172L365 126 626 126 626 185 638 185C671 184 691 174 691 168L691 126 929 126C943 126 953 121 955 110 923 81 871 41 871 41L824 97 691 97 691 45C716 42 725 32 726 19L626 9 626 97 365 97 365 45C390 42 398 31 400 19L301 9 301 97ZM521 435L530 464 796 464 796 555 652 555 581 518C573 573 555 669 539 737 571 745 588 744 605 735L612 699 820 699C809 776 792 836 773 851 765 856 757 858 743 858 722 858 645 852 604 848L603 865C642 870 687 880 701 889 715 899 721 914 721 930 755 930 787 921 809 907 845 881 868 805 884 706 904 704 915 699 922 692L850 633 814 670 618 670 633 584 796 584 796 628 806 628C826 628 858 615 859 609L859 473C876 470 890 462 896 455L821 399 787 435ZM402 565L402 620 225 620 225 565ZM402 536L225 536 225 484 402 484ZM402 650L402 695 401 695 225 713 225 650ZM164 181C166 229 131 270 96 284 74 293 60 312 67 335 76 358 107 360 133 349 161 336 187 303 190 252L355 252C310 339 209 382 53 410L58 426C148 418 227 403 291 377 286 400 279 431 272 454L237 454 166 423 166 718 62 726 96 800C104 798 114 792 118 779 218 759 299 741 365 726 279 793 164 854 48 890L55 905C185 878 309 824 402 762L402 846C402 857 398 860 384 860 352 860 294 856 294 856L294 869C327 873 350 881 359 891 369 901 374 913 374 930 448 924 461 897 461 852L461 718C475 707 487 696 498 684 519 689 528 687 535 677L461 634 461 495C476 493 492 484 498 477L431 420 407 454 306 454 351 411C371 412 384 404 388 390L302 372C362 345 407 307 434 252L544 252 544 328C544 371 556 384 633 384L741 384C897 384 924 376 924 350 924 338 917 331 896 326L893 276 881 276C873 298 864 318 857 326 853 331 847 332 837 333 824 334 786 334 745 334L644 334C609 334 607 331 607 320L607 252 800 252C788 272 772 295 760 309L774 316C808 304 855 282 880 262 900 261 911 259 919 252L845 182 805 222 529 222 529 182C553 179 563 169 566 155L463 146 463 222 189 222C187 209 185 195 180 180Z"/>
</svg>