<svg xmlns="http://www.w3.org/2000/svg"
    viewBox="0 0 1000 1000">
  <!--
© 2017-2024 Adobe (http://www.adobe.com/).
Noto is a trademark of Google Inc.
This Font Software is licensed under the SIL Open Font License, Version 1.1. This Font Software is distributed on an "AS IS" BASIS, WITHOUT WARRANTIES OR CONDITIONS OF ANY KIND, either express or implied. See the SIL Open Font License for the specific language, permissions and limitations governing your use of this Font Software.
http://scripts.sil.org/OFL
  -->
<path d="M42 98L49 127 307 127 307 188 317 188C345 188 372 180 372 172L372 127 621 127 621 185 631 185C664 184 685 174 685 168L685 127 929 127C943 127 953 122 955 111 923 82 871 41 871 41L825 98 685 98 685 46C710 43 718 33 720 20L621 10 621 98 372 98 372 46C396 43 405 32 407 20L307 10 307 98ZM828 244L828 305 613 305 613 244ZM550 215L550 459 560 459C585 459 613 445 613 439L613 425 828 425 828 832C828 847 824 852 808 852 789 852 708 846 708 846L708 862C746 866 766 874 779 884 790 893 795 910 798 929 882 921 892 890 892 838L892 257C912 253 929 244 935 237L852 174 818 215 618 215 550 185ZM828 334L828 396 613 396 613 334ZM172 334L376 334 376 396 172 396ZM172 305L172 244 376 244 376 305ZM109 215L109 927 121 927C149 927 172 911 172 903L172 425 376 425 376 462 386 462C407 462 438 446 439 439L439 250C454 248 467 241 472 234L401 181 368 215 177 215 109 182ZM490 577L490 635 364 635 364 577ZM510 466L489 548 376 548 365 543 388 507C408 510 421 502 426 493L347 457C309 548 252 633 200 685L214 697C245 676 276 649 305 618L305 898 315 898C345 898 364 882 364 878L364 843 732 843C746 843 755 838 757 827 730 802 688 771 688 771L651 814 546 814 546 752 699 752C713 752 722 747 724 736 699 713 662 685 662 685L629 723 546 723 546 664 697 664C710 664 719 659 722 648 697 626 661 599 661 599L629 635 546 635 546 577 718 577C731 577 740 572 743 561 717 537 676 507 676 507L641 548 525 548 559 507C580 508 593 500 596 488ZM490 814L364 814 364 752 490 752ZM490 664L490 723 364 723 364 664Z"/>
</svg>