<svg xmlns="http://www.w3.org/2000/svg"
    viewBox="0 0 1000 1000">
  <!--
© 2017-2023 Adobe (http://www.adobe.com/).
Noto is a trademark of Google Inc.
This Font Software is licensed under the SIL Open Font License, Version 1.1. This Font Software is distributed on an "AS IS" BASIS, WITHOUT WARRANTIES OR CONDITIONS OF ANY KIND, either express or implied. See the SIL Open Font License for the specific language, permissions and limitations governing your use of this Font Software.
http://scripts.sil.org/OFL
  -->
<path d="M210 730L194 733C206 775 211 840 202 890 242 943 310 843 210 730ZM299 726L285 732C306 768 328 828 326 875 374 922 433 817 299 726ZM115 734C124 792 100 847 63 868 45 877 33 895 41 914 51 934 83 932 105 916 138 892 167 830 133 732ZM42 112L48 142 323 142 323 223 333 223C360 223 386 214 386 207L386 142 606 142 606 220 617 220C648 219 670 208 670 203L670 142 929 142C943 142 954 137 956 126 923 95 871 54 871 54L824 112 670 112 670 47C696 44 704 34 706 20L606 11 606 112 386 112 386 47C412 44 420 34 422 20L323 11 323 112ZM203 293L309 293C300 322 286 358 273 386L170 386 141 373C164 348 185 320 203 293ZM186 182C158 273 98 384 34 447L46 458C67 444 87 428 106 410L106 719 115 719C140 719 165 705 165 699L165 686 410 686 410 714 418 714C437 714 467 699 468 693L468 423C485 421 500 413 505 406L433 351 401 386 299 386C326 359 355 322 374 299 392 298 404 297 411 290L344 226 307 264 222 264 247 219C272 221 280 216 283 206ZM257 548L257 657 165 657 165 548ZM312 548L410 548 410 657 312 657ZM257 519L165 519 165 416 257 416ZM312 519L312 416 410 416 410 519ZM834 192C759 233 613 285 489 309L494 327C557 322 623 313 684 301L684 455 483 455 491 484 650 484C616 594 559 699 483 782 464 760 433 738 384 720L372 729C409 760 448 818 456 865 492 892 525 850 496 800 576 735 639 654 684 562L684 928 694 928C724 928 747 912 747 906L747 501C777 621 825 740 928 838 934 803 948 780 964 772L966 762C861 691 797 588 761 484L932 484C945 484 955 479 957 469 928 440 881 402 881 402L838 455 747 455 747 287C789 278 828 267 860 257 883 265 900 265 908 256Z"/>
</svg>