<svg xmlns="http://www.w3.org/2000/svg"
    viewBox="0 0 1000 1000">
  <!--
© 2017-2023 Adobe (http://www.adobe.com/).
Noto is a trademark of Google Inc.
This Font Software is licensed under the SIL Open Font License, Version 1.1. This Font Software is distributed on an "AS IS" BASIS, WITHOUT WARRANTIES OR CONDITIONS OF ANY KIND, either express or implied. See the SIL Open Font License for the specific language, permissions and limitations governing your use of this Font Software.
http://scripts.sil.org/OFL
  -->
<path d="M588 758L574 761C582 800 588 858 583 903 624 954 692 864 588 758ZM712 756L699 761C717 799 736 857 734 903 781 952 845 848 712 756ZM823 746L813 754C852 795 899 864 910 918 973 963 1022 829 823 746ZM501 756L484 755C479 805 437 848 401 864 381 873 368 892 376 911 386 932 419 931 441 918 478 897 517 842 501 756ZM566 305L694 305C683 334 667 369 652 396L529 396 508 386C529 360 549 332 566 305ZM267 906L267 564C302 598 339 650 349 691 411 738 463 606 267 546L267 467 397 467 373 493 386 504C412 485 438 463 462 438L462 737 472 737C498 737 523 722 523 716L523 699 830 699 830 731 840 731C861 731 892 715 893 708L893 434C909 431 924 423 930 417L855 359 821 396 679 396C709 371 740 335 761 311 779 310 792 309 799 302L731 238 693 276 584 276 609 230C632 231 640 227 643 218 671 215 689 206 689 200L689 140 929 140C943 140 953 135 956 124 924 94 871 53 871 53L824 111 689 111 689 46C713 42 722 33 724 19L624 9 624 111 368 111 368 46C392 42 401 33 403 20L303 9 303 111 42 111 49 140 303 140 303 221 314 221 328 220C258 254 142 294 42 314L47 332C98 328 152 320 203 311L203 438 44 438 52 467 187 467C156 589 104 710 32 805L45 818C111 757 163 684 203 603L203 927 214 927C244 927 267 911 267 906ZM646 560L646 670 523 670 523 560ZM705 560L830 560 830 670 705 670ZM646 532L523 532 523 425 646 425ZM705 532L705 425 830 425 830 532ZM416 269L353 215C362 212 368 208 368 205L368 140 624 140 624 211 548 194C522 274 472 371 417 443 390 417 355 389 355 389L316 438 267 438 267 297C306 289 341 279 370 270 391 278 408 278 416 269Z"/>
</svg>