<svg xmlns="http://www.w3.org/2000/svg"
    viewBox="0 0 1000 1000">
  <!--
© 2017-2024 Adobe (http://www.adobe.com/).
Noto is a trademark of Google Inc.
This Font Software is licensed under the SIL Open Font License, Version 1.1. This Font Software is distributed on an "AS IS" BASIS, WITHOUT WARRANTIES OR CONDITIONS OF ANY KIND, either express or implied. See the SIL Open Font License for the specific language, permissions and limitations governing your use of this Font Software.
http://scripts.sil.org/OFL
  -->
<path d="M307 640L295 646C316 684 340 746 342 793 393 843 455 733 307 640ZM42 106L48 136 314 136 314 203 325 203C351 203 378 195 378 187L378 136 615 136 615 201 626 201C657 200 679 189 679 183L679 136 929 136C943 136 953 131 956 120 923 89 871 49 871 49L824 106 679 106 679 50C704 46 712 37 714 23L615 13 615 106 378 106 378 50C403 46 412 37 414 23L314 13 314 106ZM48 534L77 610C87 609 96 603 102 590L204 574 204 928 214 928C244 928 264 914 264 910L264 563 337 550C343 568 347 586 348 602 401 650 460 528 293 447L281 454C298 473 315 500 328 529L174 533C232 480 295 410 347 340 368 345 380 337 385 328L301 282C253 373 191 469 140 534ZM222 182C199 236 172 294 148 335 128 323 101 311 64 303L54 313C90 338 131 385 143 423 185 450 219 398 169 351 203 320 241 277 272 237 293 240 305 232 309 222ZM115 637C100 720 73 805 43 862L59 871C104 824 142 754 169 682 189 682 200 673 204 661ZM524 338L794 338 794 394 524 394ZM524 309L524 254 794 254 794 309ZM463 225L463 454 472 454C497 454 524 440 524 434L524 423 794 423 794 445 804 445C823 445 856 433 857 428L857 267C876 263 893 254 899 246L819 187 784 225 529 225 463 195ZM420 478L420 651 429 651C452 651 478 638 478 632L478 623 852 623 852 646 861 646C880 646 910 633 911 626L911 513C926 510 939 503 944 497L876 445 844 478 483 478 420 449ZM852 595L762 595 762 507 852 507ZM478 595L478 507 563 507 563 595ZM618 595L618 507 707 507 707 595ZM767 707C736 740 701 769 661 793 612 771 570 743 539 707ZM406 679L415 707 513 707C540 752 575 788 617 818 539 858 445 886 334 908L344 926C471 908 573 883 658 845 729 885 816 911 917 928 923 898 941 878 966 873L967 862C875 854 790 840 717 815 766 787 808 754 846 715 869 714 883 710 890 703L820 644 785 679Z"/>
</svg>