<svg xmlns="http://www.w3.org/2000/svg"
    viewBox="0 0 1000 1000">
  <!--
© 2017-2024 Adobe (http://www.adobe.com/).
Noto is a trademark of Google Inc.
This Font Software is licensed under the SIL Open Font License, Version 1.1. This Font Software is distributed on an "AS IS" BASIS, WITHOUT WARRANTIES OR CONDITIONS OF ANY KIND, either express or implied. See the SIL Open Font License for the specific language, permissions and limitations governing your use of this Font Software.
http://scripts.sil.org/OFL
  -->
<path d="M600 576L600 847C600 894 614 909 689 909L785 909C927 909 958 898 958 868 958 856 953 849 932 841L929 715 916 715C905 769 894 821 888 837 883 847 880 849 869 850 858 850 827 850 787 850L701 850C669 850 665 847 665 833L665 611C683 608 693 599 694 587ZM389 578C392 715 356 839 169 911L176 926C396 863 447 746 459 616 480 615 492 607 495 590ZM147 229L147 441C147 602 137 773 43 913L57 924C200 787 211 590 211 440L211 259 841 259C830 291 814 330 801 354L816 361C847 339 892 298 915 270 935 269 946 267 953 260L880 189 840 229 539 229 539 147 854 147C868 147 878 142 880 131 846 99 791 56 791 56L742 117 539 117 539 49C564 46 573 36 575 22L474 12 474 229 223 229 147 197ZM240 400L250 428 441 409 441 477C441 527 458 540 546 540L679 540C865 540 898 533 898 501 898 490 890 483 867 476L864 399 852 399C842 434 832 464 824 475 820 481 814 484 801 484 785 485 738 486 683 486L554 486C509 486 505 482 505 469L505 403 754 378C766 377 776 370 777 359 745 335 691 301 691 301L653 358 505 373 505 315C523 312 532 303 534 291L441 281 441 380Z"/>
</svg>