<svg xmlns="http://www.w3.org/2000/svg" name="gid11494" data-unicode="虔"
    viewBox="0 0 1000 1000">
  <!--
© 2017-2024 Adobe (http://www.adobe.com/).
Noto is a trademark of Google Inc.
This Font Software is licensed under the SIL Open Font License, Version 1.1. This Font Software is distributed on an "AS IS" BASIS, WITHOUT WARRANTIES OR CONDITIONS OF ANY KIND, either express or implied. See the SIL Open Font License for the specific language, permissions and limitations governing your use of this Font Software.
http://scripts.sil.org/OFL
  -->
<path d="M526 527L526 609 220 609 228 639 376 639C411 714 458 772 518 817 427 872 310 912 171 940L178 957C328 935 457 900 560 845 652 902 769 934 910 954 917 922 938 901 966 894L966 883C833 873 714 851 617 812 685 766 740 709 778 639L923 639C937 639 947 634 949 623 917 593 868 555 868 555L823 609 590 609 590 558C607 554 615 547 616 536ZM400 639L696 639C665 696 621 745 564 787 495 751 439 702 400 639ZM139 249L139 465C139 628 132 804 44 948L59 959C194 818 203 615 203 465L203 278 842 278C831 310 816 349 805 373L819 380C849 358 893 317 915 289 935 288 946 286 954 279L880 208 840 249 520 249 520 175 849 175C862 175 872 170 874 159 840 129 785 87 785 87L736 148 520 148 520 79C545 76 555 66 557 52L455 42 455 249 216 249 139 216ZM229 403L241 431 429 409 429 449C429 499 445 510 536 510L682 510C881 510 913 505 913 474 913 463 906 457 882 449L879 388 868 388C859 417 848 440 840 450 835 455 828 457 816 458 798 459 746 460 685 460L544 460C495 460 492 456 492 442L492 401 757 370C770 369 780 362 780 350 748 327 694 294 694 294L657 352 492 372 492 317C510 314 518 306 520 294L429 284 429 379Z"/>
</svg>