<svg xmlns="http://www.w3.org/2000/svg" name="gid11495" data-unicode="處"
    viewBox="0 0 1000 1000">
  <!--
© 2017-2024 Adobe (http://www.adobe.com/).
Noto is a trademark of Google Inc.
This Font Software is licensed under the SIL Open Font License, Version 1.1. This Font Software is distributed on an "AS IS" BASIS, WITHOUT WARRANTIES OR CONDITIONS OF ANY KIND, either express or implied. See the SIL Open Font License for the specific language, permissions and limitations governing your use of this Font Software.
http://scripts.sil.org/OFL
  -->
<path d="M237 384L248 412 445 390 445 449C445 499 461 511 549 511L686 511C873 511 905 505 905 474 905 463 898 456 875 450L871 386 860 386C851 415 841 440 833 449 828 455 822 457 810 458 793 459 746 459 689 459L557 459C512 459 508 456 508 441L508 383 749 356C761 355 771 348 772 337 740 313 686 280 686 280L648 337 508 353 508 295C525 292 534 283 536 271L454 262 840 262C829 293 814 331 803 354L817 362C848 339 891 300 914 273 934 272 945 270 952 263L879 192 839 233 519 233 519 175 847 175C861 175 870 170 873 159 838 127 783 84 783 84L735 145 519 145 519 81C544 78 554 68 556 54L454 44 454 233 219 233 142 200 142 454C142 621 133 800 42 946L57 957C197 814 206 607 206 453L206 262 445 262 445 360ZM595 562L595 615C595 682 585 756 505 820L516 835C641 775 654 680 654 615L654 591 742 591 742 767C742 803 750 819 799 819L843 819C922 819 945 808 945 784 945 772 941 767 922 760L919 695 907 695C901 722 893 752 888 759 885 765 881 765 876 766 871 766 860 766 847 766L816 766C803 766 801 764 801 754L801 600C818 597 828 593 835 586L767 527 734 562 666 562 595 530ZM449 605C435 661 414 713 384 760 362 728 343 687 327 636L344 605ZM328 482C305 581 254 701 193 770L207 779C249 747 285 703 316 655 330 707 347 750 367 786 321 849 258 903 173 943L182 959C273 926 341 881 393 826 461 916 558 940 701 940 757 940 877 940 927 940 929 916 941 896 964 894L964 879C899 881 765 881 705 881 575 881 483 866 416 799 460 744 490 681 511 612 533 610 544 607 551 599L484 539 446 576 359 576C368 556 377 536 384 516 408 517 416 512 419 502Z"/>
</svg>