<svg xmlns="http://www.w3.org/2000/svg" name="gid11501" data-unicode="虛"
    viewBox="0 0 1000 1000">
  <!--
© 2017-2024 Adobe (http://www.adobe.com/).
Noto is a trademark of Google Inc.
This Font Software is licensed under the SIL Open Font License, Version 1.1. This Font Software is distributed on an "AS IS" BASIS, WITHOUT WARRANTIES OR CONDITIONS OF ANY KIND, either express or implied. See the SIL Open Font License for the specific language, permissions and limitations governing your use of this Font Software.
http://scripts.sil.org/OFL
  -->
<path d="M767 591L767 755 656 755 656 609C678 605 687 596 688 583L594 574 594 906 487 906 487 609C509 605 517 596 519 583L426 574 426 755 325 755 325 629C350 625 360 616 363 601L267 591 267 850 278 850C300 850 325 837 325 830L325 784 426 784 426 906 154 906 162 935 932 935C946 935 955 930 958 919 924 888 870 846 870 846L821 906 656 906 656 784 767 784 767 834 778 834C801 834 827 822 827 815L827 629C851 625 861 616 864 601ZM140 246L140 459C140 620 131 794 40 934L54 945C194 807 204 608 204 458L204 276 838 276C825 308 807 348 794 372L808 380C841 356 888 315 913 286 932 285 944 284 952 277L878 206 838 246 520 246 520 174 834 174C846 174 856 169 858 158 825 127 769 86 769 86L720 146 520 146 520 79C545 76 555 66 557 52L455 42 455 246 216 246 140 213ZM229 412L240 439 427 420 427 477C427 527 442 540 528 540L660 540C841 540 874 532 874 501 874 489 866 483 843 475L840 401 829 401C819 435 809 464 801 475 797 482 791 483 778 484 763 486 716 486 663 486L537 486C494 486 490 483 490 469L490 414 755 387C767 386 776 379 777 369 745 344 689 310 689 310L650 369 490 385 490 324C508 321 517 312 519 301L427 290 427 392Z"/>
</svg>