<svg xmlns="http://www.w3.org/2000/svg"
    viewBox="0 0 1000 1000">
  <!--
© 2017-2024 Adobe (http://www.adobe.com/).
Noto is a trademark of Google Inc.
This Font Software is licensed under the SIL Open Font License, Version 1.1. This Font Software is distributed on an "AS IS" BASIS, WITHOUT WARRANTIES OR CONDITIONS OF ANY KIND, either express or implied. See the SIL Open Font License for the specific language, permissions and limitations governing your use of this Font Software.
http://scripts.sil.org/OFL
  -->
<path d="M737 573L737 861C737 901 746 917 800 917L851 917C938 917 962 904 962 879 962 868 959 861 940 854L937 740 924 740C916 787 906 838 900 851 896 859 894 860 888 861 883 861 869 861 852 861L816 861C799 861 797 858 797 847L797 607C814 604 824 595 825 583ZM595 576C596 702 568 835 455 913L464 927C606 857 644 732 655 617 677 616 688 609 691 594ZM93 73L93 362 102 362C127 362 153 350 153 344L153 310 301 310 301 348 310 348C330 348 360 334 361 327L361 114C380 110 397 102 404 94L325 35 291 73 158 73 93 44ZM153 282L153 102 301 102 301 282ZM39 416L47 445 133 445C121 505 96 600 77 643 104 651 128 650 141 641L157 589 291 589C281 739 261 823 237 843 229 850 221 852 204 852 186 852 135 848 105 846L104 863C132 867 160 875 170 884 183 893 186 910 186 927 220 927 252 918 276 898 315 866 341 772 351 596 372 594 383 589 390 582L317 523 283 560 165 560C176 521 187 479 195 445L390 445C403 445 412 440 415 429 386 401 340 364 340 364L299 416ZM445 228L445 453C445 613 435 781 339 916L353 928C497 795 507 602 507 453L507 257 859 257C851 281 841 310 834 327L849 334C872 317 906 287 926 267 945 266 956 264 964 257L894 190 856 228 697 228 697 151 914 151C928 151 938 146 941 135 910 107 862 71 862 71L820 122 697 122 697 49C720 46 730 36 732 22L634 12 634 228 519 228 445 196ZM519 398L531 426 633 415 633 478C633 518 644 531 707 531L787 531C907 531 933 523 933 498 933 487 927 482 908 476L905 415 894 415C887 442 878 469 873 476 868 481 864 482 857 482 847 483 821 483 789 483L718 483C691 483 688 480 688 469L688 409 851 391C864 390 873 383 874 371 848 351 804 323 804 323L773 370 688 379 688 314C706 311 715 302 716 291L633 280 633 385Z"/>
</svg>