<svg xmlns="http://www.w3.org/2000/svg" name="gid11505" data-unicode="號"
    viewBox="0 0 1000 1000">
  <!--
© 2017-2024 Adobe (http://www.adobe.com/).
Noto is a trademark of Google Inc.
This Font Software is licensed under the SIL Open Font License, Version 1.1. This Font Software is distributed on an "AS IS" BASIS, WITHOUT WARRANTIES OR CONDITIONS OF ANY KIND, either express or implied. See the SIL Open Font License for the specific language, permissions and limitations governing your use of this Font Software.
http://scripts.sil.org/OFL
  -->
<path d="M737 603L737 891C737 931 746 947 800 947L851 947C938 947 962 934 962 909 962 898 959 891 940 884L937 770 924 770C916 817 906 868 900 881 896 889 894 890 888 891 883 891 869 891 852 891L816 891C799 891 797 888 797 877L797 637C814 634 824 625 825 613ZM595 606C596 732 568 865 455 943L464 957C606 887 644 762 655 647 677 646 688 639 691 624ZM93 103L93 392 102 392C127 392 153 380 153 374L153 340 301 340 301 378 310 378C330 378 360 364 361 357L361 144C380 140 397 132 404 124L325 65 291 103 158 103 93 74ZM153 312L153 132 301 132 301 312ZM39 446L47 475 133 475C121 535 96 630 77 673 104 681 128 680 141 671L157 619 291 619C281 769 261 853 237 873 229 880 221 882 204 882 186 882 135 878 105 876L104 893C132 897 160 905 170 914 183 923 186 940 186 957 220 957 252 948 276 928 315 896 341 802 351 626 372 624 383 619 390 612L317 553 283 590 165 590C176 551 187 509 195 475L390 475C403 475 412 470 415 459 386 431 340 394 340 394L299 446ZM445 258L445 483C445 643 435 811 339 946L353 958C497 825 507 632 507 483L507 287 859 287C851 311 841 340 834 357L849 364C872 347 906 317 926 297 945 296 956 294 964 287L894 220 856 258 697 258 697 181 914 181C928 181 938 176 941 165 910 137 862 101 862 101L820 152 697 152 697 79C720 76 730 66 732 52L634 42 634 258 519 258 445 226ZM519 428L531 456 633 445 633 508C633 548 644 561 707 561L787 561C907 561 933 553 933 528 933 517 927 512 908 506L905 445 894 445C887 472 878 499 873 506 868 511 864 512 857 512 847 513 821 513 789 513L718 513C691 513 688 510 688 499L688 439 851 421C864 420 873 413 874 401 848 381 804 353 804 353L773 400 688 409 688 344C706 341 715 332 716 321L633 310 633 415Z"/>
</svg>