<svg xmlns="http://www.w3.org/2000/svg"
    viewBox="0 0 1000 1000">
  <!--
© 2017-2023 Adobe (http://www.adobe.com/).
Noto is a trademark of Google Inc.
This Font Software is licensed under the SIL Open Font License, Version 1.1. This Font Software is distributed on an "AS IS" BASIS, WITHOUT WARRANTIES OR CONDITIONS OF ANY KIND, either express or implied. See the SIL Open Font License for the specific language, permissions and limitations governing your use of this Font Software.
http://scripts.sil.org/OFL
  -->
<path d="M836 33L836 926 849 926C872 926 900 910 900 900L900 72C923 68 932 59 935 45ZM430 84L438 113 648 113 648 288 539 288 472 258C466 338 451 483 437 586 470 591 485 588 499 580L505 528 653 528C646 712 631 819 608 840 600 848 592 850 576 850 556 850 498 846 463 843L463 860C494 864 527 872 540 882 553 892 555 907 555 924 592 924 627 915 649 893 688 858 705 747 712 536 732 533 744 528 752 520L679 461 643 499 508 499 524 317 648 317 648 373 657 373C677 373 707 358 708 352L708 124C728 120 744 112 751 105L673 45 638 84ZM76 224L76 621 85 621C108 621 132 607 132 602L132 565 193 565 193 776C123 793 65 806 32 812L70 892C79 889 88 880 92 869 198 826 281 789 343 760 348 784 352 807 352 828 407 884 469 755 309 633L296 638C310 666 326 703 337 741L252 762 252 565 315 565 315 603 324 603C343 603 372 588 373 582L373 261C388 258 403 250 409 244L338 189 306 224 252 224 252 69C276 66 286 56 288 42L193 32 193 224 137 224 76 196ZM315 536L249 536 249 253 315 253ZM197 536L132 536 132 253 197 253Z"/>
</svg>