<svg xmlns="http://www.w3.org/2000/svg"
    viewBox="0 0 1000 1000">
  <!--
© 2017-2024 Adobe (http://www.adobe.com/).
Noto is a trademark of Google Inc.
This Font Software is licensed under the SIL Open Font License, Version 1.1. This Font Software is distributed on an "AS IS" BASIS, WITHOUT WARRANTIES OR CONDITIONS OF ANY KIND, either express or implied. See the SIL Open Font License for the specific language, permissions and limitations governing your use of this Font Software.
http://scripts.sil.org/OFL
  -->
<path d="M425 863L433 892 832 892C846 892 856 887 859 876 826 846 774 807 774 807L729 863ZM208 14L208 213 139 213 76 183 76 589 86 589C110 589 134 575 134 569L134 526 208 526 208 755C133 768 69 779 33 784L72 866C82 864 90 855 95 843 207 805 293 773 359 748 363 771 366 793 365 814 423 876 491 739 328 608L314 612C329 645 345 686 354 727L269 743 269 526 347 526 347 568 356 568C374 568 405 553 406 547L406 251C424 248 440 240 446 233L371 175 337 213 269 213 269 51C294 48 304 38 306 24ZM347 496L265 496 265 241 347 241ZM211 496L134 496 134 241 211 241ZM432 730L480 807C489 803 496 795 500 782 609 735 690 695 744 668L740 653 552 702 552 391 715 391C732 557 768 707 846 810 875 850 925 880 953 855 966 843 962 825 942 787L957 644 944 642C934 678 920 719 911 740 904 758 898 758 887 744 826 671 792 535 776 391L937 391C951 391 961 386 963 375 933 346 884 304 884 304L841 361 773 361C766 274 765 185 768 106 811 99 851 91 884 84 906 94 924 94 933 85L862 18C798 46 684 82 582 106L489 75 489 717ZM552 361L552 133C600 129 652 123 701 116 702 199 705 281 712 361Z"/>
</svg>