<svg xmlns="http://www.w3.org/2000/svg"
    viewBox="0 0 1000 1000">
  <!--
© 2017-2024 Adobe (http://www.adobe.com/).
Noto is a trademark of Google Inc.
This Font Software is licensed under the SIL Open Font License, Version 1.1. This Font Software is distributed on an "AS IS" BASIS, WITHOUT WARRANTIES OR CONDITIONS OF ANY KIND, either express or implied. See the SIL Open Font License for the specific language, permissions and limitations governing your use of this Font Software.
http://scripts.sil.org/OFL
  -->
<path d="M454 92L454 926 463 926C493 926 512 910 512 905L512 828 854 828 854 904 863 904C889 904 913 888 913 883L913 129C936 126 950 119 958 111L882 51 849 92 524 92 454 62ZM512 800L512 121 854 121 854 800ZM579 283L579 701 587 701C610 701 631 688 631 683L631 606 730 606 730 670 738 670C755 670 780 656 781 649L781 318C798 315 813 308 817 301L752 251 722 283 636 283 579 256ZM730 577L631 577 631 312 730 312ZM77 212L77 611 86 611C110 611 133 597 133 591L133 548 195 548 195 758C124 772 64 784 30 789L73 866C81 863 90 855 94 843 200 805 282 773 344 748 352 779 356 810 356 838 411 897 475 759 312 618L299 623C313 652 328 689 339 727L254 745 254 548 321 548 321 592 330 592C349 592 377 577 378 571L378 249C395 246 410 239 416 232L345 177 312 212 254 212 254 53C278 49 289 40 290 26L195 16 195 212 138 212 77 183ZM321 518L251 518 251 241 321 241ZM198 518L133 518 133 241 198 241Z"/>
</svg>