<svg xmlns="http://www.w3.org/2000/svg" name="gid11573" data-unicode="蛔"
    viewBox="0 0 1000 1000">
  <!--
© 2017-2024 Adobe (http://www.adobe.com/).
Noto is a trademark of Google Inc.
This Font Software is licensed under the SIL Open Font License, Version 1.1. This Font Software is distributed on an "AS IS" BASIS, WITHOUT WARRANTIES OR CONDITIONS OF ANY KIND, either express or implied. See the SIL Open Font License for the specific language, permissions and limitations governing your use of this Font Software.
http://scripts.sil.org/OFL
  -->
<path d="M454 122L454 956 463 956C493 956 512 940 512 935L512 858 854 858 854 934 863 934C889 934 913 918 913 913L913 159C936 156 950 149 958 141L882 81 849 122 524 122 454 92ZM512 830L512 151 854 151 854 830ZM579 313L579 731 587 731C610 731 631 718 631 713L631 636 730 636 730 700 738 700C755 700 780 686 781 679L781 348C798 345 813 338 817 331L752 281 722 313 636 313 579 286ZM730 607L631 607 631 342 730 342ZM77 242L77 641 86 641C110 641 133 627 133 621L133 578 195 578 195 788C124 802 64 814 30 819L73 896C81 893 90 885 94 873 200 835 282 803 344 778 352 809 356 840 356 868 411 927 475 789 312 648L299 653C313 682 328 719 339 757L254 775 254 578 321 578 321 622 330 622C349 622 377 607 378 601L378 279C395 276 410 269 416 262L345 207 312 242 254 242 254 83C278 79 289 70 290 56L195 46 195 242 138 242 77 213ZM321 548L251 548 251 271 321 271ZM198 548L133 548 133 271 198 271Z"/>
</svg>