<svg xmlns="http://www.w3.org/2000/svg" name="gid11575" data-unicode="蛗"
    viewBox="0 0 1000 1000">
  <!--
© 2017-2024 Adobe (http://www.adobe.com/).
Noto is a trademark of Google Inc.
This Font Software is licensed under the SIL Open Font License, Version 1.1. This Font Software is distributed on an "AS IS" BASIS, WITHOUT WARRANTIES OR CONDITIONS OF ANY KIND, either express or implied. See the SIL Open Font License for the specific language, permissions and limitations governing your use of this Font Software.
http://scripts.sil.org/OFL
  -->
<path d="M652 784L646 800C685 816 721 834 752 853L530 860 530 757 761 757 761 787 771 787C793 787 827 772 828 766L828 639C846 635 862 627 869 619L787 559 751 597 530 597 530 556C552 553 560 544 562 531L464 521 464 597 246 597 174 566 174 801 184 801C211 801 240 787 240 781L240 757 464 757 464 862C293 868 151 871 69 871L115 955C124 953 135 946 140 935 429 911 637 892 787 874 829 902 861 930 879 952 953 984 987 833 652 784ZM761 727L530 727 530 627 761 627ZM240 727L240 627 464 627 464 727ZM442 42L417 141 236 141 165 110 165 558 175 558C203 558 230 543 230 536L230 499 806 499 806 536 816 536C836 536 870 522 871 517L871 400C890 396 906 388 913 381L831 319 796 359 230 359 230 286 732 286 732 311 741 311C762 311 795 297 796 291L796 184C816 179 832 171 838 163L757 103 722 141 463 141C480 122 500 102 513 86 534 85 547 77 551 63ZM732 257L230 257 230 171 732 171ZM806 469L230 469 230 388 806 388Z"/>
</svg>