<svg xmlns="http://www.w3.org/2000/svg"
    viewBox="0 0 1000 1000">
  <!--
© 2017-2023 Adobe (http://www.adobe.com/).
Noto is a trademark of Google Inc.
This Font Software is licensed under the SIL Open Font License, Version 1.1. This Font Software is distributed on an "AS IS" BASIS, WITHOUT WARRANTIES OR CONDITIONS OF ANY KIND, either express or implied. See the SIL Open Font License for the specific language, permissions and limitations governing your use of this Font Software.
http://scripts.sil.org/OFL
  -->
<path d="M498 72C487 197 455 326 416 415L431 422C467 379 498 321 522 257L642 257 642 446 397 446 405 476 598 476C549 621 464 757 343 853L355 868C484 788 580 681 642 554L642 931 654 931C679 931 706 914 706 904L706 493C746 635 821 770 914 849 920 820 939 798 968 786L971 774C871 714 772 603 726 476L939 476C953 476 962 471 965 460 932 429 880 387 880 387L833 446 706 446 706 257 903 257C917 257 926 252 929 241 896 211 844 168 844 168L798 227 706 227 706 55C731 51 739 41 742 27L642 16 642 227 533 227C545 192 556 156 564 119 586 119 596 109 599 97ZM77 212L77 611 86 611C110 611 133 597 133 591L133 548 195 548 195 742C124 760 64 774 30 780L75 855C84 851 91 844 95 831 201 790 282 753 341 726 348 749 352 772 352 792 405 843 466 724 312 616L300 622C312 645 326 676 336 707L254 728 254 548 321 548 321 592 330 592C349 592 377 577 378 571L378 249C395 246 410 239 416 232L345 177 312 212 254 212 254 53C278 49 289 40 290 26L195 16 195 212 138 212 77 183ZM321 518L251 518 251 241 321 241ZM198 518L133 518 133 241 198 241Z"/>
</svg>