<svg xmlns="http://www.w3.org/2000/svg"
    viewBox="0 0 1000 1000">
  <!--
© 2017-2024 Adobe (http://www.adobe.com/).
Noto is a trademark of Google Inc.
This Font Software is licensed under the SIL Open Font License, Version 1.1. This Font Software is distributed on an "AS IS" BASIS, WITHOUT WARRANTIES OR CONDITIONS OF ANY KIND, either express or implied. See the SIL Open Font License for the specific language, permissions and limitations governing your use of this Font Software.
http://scripts.sil.org/OFL
  -->
<path d="M44 787L82 867C91 864 99 857 104 844 210 807 295 773 358 746 366 776 371 807 371 834 426 890 488 759 331 625L317 630C330 657 343 691 353 727L268 745 268 542 340 542 340 580 349 580C368 580 397 567 398 561L398 251C415 248 430 241 437 233L363 177 331 213 268 213 268 52C292 48 302 39 304 25L209 15 209 213 142 213 80 184 80 600 90 600C114 600 137 587 137 581L137 542 209 542 209 757C139 771 79 782 44 787ZM211 243L211 513 137 513 137 243ZM266 243L340 243 340 513 266 513ZM717 864L717 677 853 677 853 834C853 848 848 854 833 854 816 854 740 847 740 847L740 863C775 867 795 875 807 885 818 895 822 911 824 928 903 921 912 890 912 841L912 342C932 338 949 331 956 323L874 262 843 301 708 301C723 292 729 266 712 238 769 204 846 152 888 114 909 113 921 112 930 105L856 35 813 75 435 75 444 105 803 105C774 141 734 187 700 221 678 195 637 169 570 153L559 162C605 193 660 251 673 299L678 301 526 301 461 270 461 928 471 928C498 928 520 913 520 906L520 677 659 677 659 883 669 883C698 883 717 868 717 864ZM853 331L853 471 717 471 717 331ZM659 331L659 471 520 471 520 331ZM520 647L520 500 659 500 659 647ZM853 647L717 647 717 500 853 500Z"/>
</svg>