<svg xmlns="http://www.w3.org/2000/svg"
    viewBox="0 0 1000 1000">
  <!--
© 2017-2024 Adobe (http://www.adobe.com/).
Noto is a trademark of Google Inc.
This Font Software is licensed under the SIL Open Font License, Version 1.1. This Font Software is distributed on an "AS IS" BASIS, WITHOUT WARRANTIES OR CONDITIONS OF ANY KIND, either express or implied. See the SIL Open Font License for the specific language, permissions and limitations governing your use of this Font Software.
http://scripts.sil.org/OFL
  -->
<path d="M795 293C784 391 759 485 723 556 703 497 689 430 680 356L680 226 937 226C951 226 962 221 964 211 931 180 877 138 877 138L831 197 680 197 680 51C705 47 713 37 715 23L619 14 619 197 395 197 403 226 619 226 619 365C619 596 564 790 306 913L315 929C567 834 652 671 674 481 708 693 780 844 907 929 913 898 940 876 971 866L973 856C861 801 781 711 732 582 765 547 792 503 814 452 846 491 877 544 885 586 941 632 993 514 823 432 835 401 845 369 853 336 874 335 885 325 888 312ZM473 295C460 419 421 530 367 607L382 617C427 578 463 525 491 462 515 495 536 540 536 578 586 623 643 515 500 440 512 408 523 374 531 338 553 337 563 327 566 315ZM76 217L76 605 85 605C109 605 132 592 132 586L132 545 188 545 188 764C121 780 66 792 34 798L72 877C81 873 90 866 93 853 197 811 278 775 338 748 344 775 348 802 347 826 403 885 469 750 307 620L294 626C308 654 323 691 333 730L248 750 248 545 309 545 309 589 318 589C337 589 366 575 367 569L367 254C383 251 398 243 404 237L332 182 301 217 248 217 248 50C271 47 281 37 283 23L188 13 188 217 137 217 76 188ZM309 517L244 517 244 246 309 246ZM191 517L132 517 132 246 191 246Z"/>
</svg>