<svg xmlns="http://www.w3.org/2000/svg" name="gid11597" data-unicode="蛼"
    viewBox="0 0 1000 1000">
  <!--
© 2017-2024 Adobe (http://www.adobe.com/).
Noto is a trademark of Google Inc.
This Font Software is licensed under the SIL Open Font License, Version 1.1. This Font Software is distributed on an "AS IS" BASIS, WITHOUT WARRANTIES OR CONDITIONS OF ANY KIND, either express or implied. See the SIL Open Font License for the specific language, permissions and limitations governing your use of this Font Software.
http://scripts.sil.org/OFL
  -->
<path d="M444 312L444 677 454 677C479 677 504 663 504 657L504 622 640 622 640 740 394 740 402 769 640 769 640 958 653 958C676 958 703 944 703 934L703 769 940 769C954 769 963 764 965 753 934 723 882 682 882 682L836 740 703 740 703 622 837 622 837 666 846 666C867 666 898 650 899 643L899 350C915 347 930 339 936 332L862 275 828 312 703 312 703 214 923 214C937 214 947 209 949 198 918 169 867 127 867 127L820 185 703 185 703 84C727 80 735 70 738 56L640 45 640 185 415 185 423 214 640 214 640 312 509 312 444 282ZM640 480L640 592 504 592 504 480ZM703 480L837 480 837 592 703 592ZM640 450L504 450 504 341 640 341ZM703 450L703 341 837 341 837 450ZM77 244L77 641 86 641C110 641 133 627 133 621L133 584 197 584 197 806C126 820 66 832 32 837L74 918C83 916 92 907 96 895 203 855 285 822 346 796 352 826 356 856 355 882 411 941 475 802 315 659L301 663C315 695 330 735 341 776L257 793 257 584 321 584 321 622 330 622C349 622 377 607 378 601L378 280C395 277 410 270 416 263L345 209 312 244 256 244 256 86C281 83 291 73 293 59L197 49 197 244 138 244 77 215ZM321 555L253 555 253 272 321 272ZM201 555L133 555 133 272 201 272Z"/>
</svg>