<svg xmlns="http://www.w3.org/2000/svg"
    viewBox="0 0 1000 1000">
  <!--
© 2017-2024 Adobe (http://www.adobe.com/).
Noto is a trademark of Google Inc.
This Font Software is licensed under the SIL Open Font License, Version 1.1. This Font Software is distributed on an "AS IS" BASIS, WITHOUT WARRANTIES OR CONDITIONS OF ANY KIND, either express or implied. See the SIL Open Font License for the specific language, permissions and limitations governing your use of this Font Software.
http://scripts.sil.org/OFL
  -->
<path d="M444 282L444 647 454 647C479 647 504 633 504 627L504 592 640 592 640 710 394 710 402 739 640 739 640 928 653 928C676 928 703 914 703 904L703 739 940 739C954 739 963 734 965 723 934 693 882 652 882 652L836 710 703 710 703 592 837 592 837 636 846 636C867 636 898 620 899 613L899 320C915 317 930 309 936 302L862 245 828 282 703 282 703 184 923 184C937 184 947 179 949 168 918 139 867 97 867 97L820 155 703 155 703 54C727 50 735 40 738 26L640 15 640 155 415 155 423 184 640 184 640 282 509 282 444 252ZM640 450L640 562 504 562 504 450ZM703 450L837 450 837 562 703 562ZM640 420L504 420 504 311 640 311ZM703 420L703 311 837 311 837 420ZM77 214L77 611 86 611C110 611 133 597 133 591L133 554 197 554 197 776C126 790 66 802 32 807L74 888C83 886 92 877 96 865 203 825 285 792 346 766 352 796 356 826 355 852 411 911 475 772 315 629L301 633C315 665 330 705 341 746L257 763 257 554 321 554 321 592 330 592C349 592 377 577 378 571L378 250C395 247 410 240 416 233L345 179 312 214 256 214 256 56C281 53 291 43 293 29L197 19 197 214 138 214 77 185ZM321 525L253 525 253 242 321 242ZM201 525L133 525 133 242 201 242Z"/>
</svg>