<svg xmlns="http://www.w3.org/2000/svg"
    viewBox="0 0 1000 1000">
  <!--
© 2017-2023 Adobe (http://www.adobe.com/).
Noto is a trademark of Google Inc.
This Font Software is licensed under the SIL Open Font License, Version 1.1. This Font Software is distributed on an "AS IS" BASIS, WITHOUT WARRANTIES OR CONDITIONS OF ANY KIND, either express or implied. See the SIL Open Font License for the specific language, permissions and limitations governing your use of this Font Software.
http://scripts.sil.org/OFL
  -->
<path d="M214 284L214 257 288 257C239 366 143 493 48 566L58 578C110 550 160 511 206 469L206 701 215 701C240 701 267 687 267 682L267 650 424 650 424 762C295 770 186 776 124 777L167 858C176 855 186 849 191 837 395 809 543 787 651 767 668 787 682 808 689 827 755 864 790 729 574 682L564 692C586 706 612 727 634 749L486 759 486 650 640 650 640 683 650 683C670 683 701 669 702 663L702 524C720 521 735 513 741 506L665 449 631 486 486 486 486 426C510 424 518 415 520 402L424 392 424 486 272 486 216 460C240 436 263 412 284 387L836 387C830 638 818 807 789 836 779 844 771 847 751 847 731 847 659 841 616 837L615 854C654 860 697 871 712 882 726 892 730 911 730 929 772 929 811 917 835 889 878 844 893 673 899 394 920 392 933 387 941 379L864 316 826 357 309 357C326 334 342 312 356 290 381 293 389 289 394 279L319 257 819 257 819 299 829 299C850 299 882 285 883 279L883 96C903 92 920 85 926 77L845 15 809 55 221 55 150 22 150 304 160 304C186 304 214 290 214 284ZM424 515L424 621 267 621 267 515ZM486 515L640 515 640 621 486 621ZM597 84L597 228 434 228 434 84ZM658 84L819 84 819 228 658 228ZM373 84L373 228 214 228 214 84Z"/>
</svg>