<svg xmlns="http://www.w3.org/2000/svg" name="gid11607" data-unicode="蜈"
    viewBox="0 0 1000 1000">
  <!--
© 2017-2024 Adobe (http://www.adobe.com/).
Noto is a trademark of Google Inc.
This Font Software is licensed under the SIL Open Font License, Version 1.1. This Font Software is distributed on an "AS IS" BASIS, WITHOUT WARRANTIES OR CONDITIONS OF ANY KIND, either express or implied. See the SIL Open Font License for the specific language, permissions and limitations governing your use of this Font Software.
http://scripts.sil.org/OFL
  -->
<path d="M582 93L582 403 591 403C623 403 644 386 644 381L644 333 831 333 831 386 841 386C861 386 893 373 894 366L894 133C913 129 929 122 935 114L857 54 821 93 656 93 582 60ZM831 305L644 305 644 121 831 121ZM613 515C612 564 611 612 604 656L359 656 367 686 597 686C572 785 503 871 310 939L321 955C559 886 633 792 659 686L678 686C719 822 793 912 914 961 920 929 940 909 966 902L967 891C848 863 751 789 700 686L960 686C973 686 982 681 984 670 962 642 919 600 919 600L884 656 862 656 865 487C880 485 889 482 896 475L826 417 794 452 502 452 502 182C524 179 533 171 535 158L441 147 441 549 453 549C475 549 502 536 502 528L502 482 803 482 800 656 666 656C672 621 674 585 676 549 697 546 705 536 706 523ZM76 241L76 639 85 639C108 639 132 625 132 619L132 582 193 582 193 794C123 810 65 823 32 829L70 909C79 907 88 898 92 886 197 844 279 807 340 779 345 802 348 824 348 844 401 900 464 773 308 647L296 653C310 682 325 720 335 758L252 779 252 582 315 582 315 620 324 620C343 620 372 605 373 599L373 278C388 275 403 267 409 261L338 206 306 241 252 241 252 87C276 83 286 74 288 60L193 49 193 241 137 241 76 213ZM315 553L249 553 249 270 315 270ZM197 553L132 553 132 270 197 270Z"/>
</svg>