<svg xmlns="http://www.w3.org/2000/svg"
    viewBox="0 0 1000 1000">
  <!--
© 2017-2023 Adobe (http://www.adobe.com/).
Noto is a trademark of Google Inc.
This Font Software is licensed under the SIL Open Font License, Version 1.1. This Font Software is distributed on an "AS IS" BASIS, WITHOUT WARRANTIES OR CONDITIONS OF ANY KIND, either express or implied. See the SIL Open Font License for the specific language, permissions and limitations governing your use of this Font Software.
http://scripts.sil.org/OFL
  -->
<path d="M582 63L582 373 591 373C623 373 644 356 644 351L644 303 831 303 831 356 841 356C861 356 893 343 894 336L894 103C913 99 929 92 935 84L857 24 821 63 656 63 582 30ZM831 275L644 275 644 91 831 91ZM613 485C612 534 611 582 604 626L359 626 367 656 597 656C572 755 503 841 310 909L321 925C559 856 633 762 659 656L678 656C719 792 793 882 914 931 920 899 940 879 966 872L967 861C848 833 751 759 700 656L960 656C973 656 982 651 984 640 962 612 919 570 919 570L884 626 862 626 865 457C880 455 889 452 896 445L826 387 794 422 502 422 502 152C524 149 533 141 535 128L441 117 441 519 453 519C475 519 502 506 502 498L502 452 803 452 800 626 666 626C672 591 674 555 676 519 697 516 705 506 706 493ZM76 211L76 609 85 609C108 609 132 595 132 589L132 552 193 552 193 764C123 780 65 793 32 799L70 879C79 877 88 868 92 856 197 814 279 777 340 749 345 772 348 794 348 814 401 870 464 743 308 617L296 623C310 652 325 690 335 728L252 749 252 552 315 552 315 590 324 590C343 590 372 575 373 569L373 248C388 245 403 237 409 231L338 176 306 211 252 211 252 57C276 53 286 44 288 30L193 19 193 211 137 211 76 183ZM315 523L249 523 249 240 315 240ZM197 523L132 523 132 240 197 240Z"/>
</svg>