<svg xmlns="http://www.w3.org/2000/svg"
    viewBox="0 0 1000 1000">
  <!--
© 2017-2024 Adobe (http://www.adobe.com/).
Noto is a trademark of Google Inc.
This Font Software is licensed under the SIL Open Font License, Version 1.1. This Font Software is distributed on an "AS IS" BASIS, WITHOUT WARRANTIES OR CONDITIONS OF ANY KIND, either express or implied. See the SIL Open Font License for the specific language, permissions and limitations governing your use of this Font Software.
http://scripts.sil.org/OFL
  -->
<path d="M826 177L826 311 551 311 551 177ZM397 838L445 928C455 925 463 916 467 903 591 851 680 808 742 778L738 763 551 806 551 504 648 504C688 700 776 835 921 917 932 887 953 869 979 866L981 857C893 821 818 765 761 691 811 673 875 643 925 611 945 619 954 617 963 609L888 544C845 591 791 641 748 674 713 624 687 568 669 504L826 504 826 551 835 551C857 551 888 536 889 530L889 189C908 185 924 177 931 169L852 108 817 148 713 148 713 50C737 47 748 37 749 23L650 13 650 148 563 148 489 116 489 820ZM826 341L826 476 551 476 551 341ZM78 213L78 592 88 592C112 592 137 579 137 572L137 533 205 533 205 748C129 764 66 777 30 783L71 862C80 859 88 851 92 838 206 797 295 761 362 734 367 759 370 784 370 807 428 866 495 730 329 598L316 604C331 634 346 674 357 714L266 734 266 533 342 533 342 572 351 572C371 572 400 557 401 551L401 251C419 248 435 240 442 233L367 176 332 213 266 213 266 49C291 46 302 36 303 22L205 12 205 213 141 213 78 183ZM342 503L263 503 263 242 342 242ZM209 503L137 503 137 242 209 242Z"/>
</svg>