<svg xmlns="http://www.w3.org/2000/svg" name="gid11614" data-unicode="蜐"
    viewBox="0 0 1000 1000">
  <!--
© 2017-2024 Adobe (http://www.adobe.com/).
Noto is a trademark of Google Inc.
This Font Software is licensed under the SIL Open Font License, Version 1.1. This Font Software is distributed on an "AS IS" BASIS, WITHOUT WARRANTIES OR CONDITIONS OF ANY KIND, either express or implied. See the SIL Open Font License for the specific language, permissions and limitations governing your use of this Font Software.
http://scripts.sil.org/OFL
  -->
<path d="M175 44L175 248 130 248 71 220 71 625 81 625C104 625 126 612 126 606L126 562 175 562 175 791C117 799 68 805 39 808L72 890C83 887 91 881 97 867 186 839 255 814 307 794 312 818 314 842 314 863 369 921 433 791 279 658L265 663C279 693 293 733 303 773L233 783 233 562 286 562 286 605 294 605C312 605 340 591 341 585L341 285C358 282 372 274 378 267L308 214 277 248 234 248 234 81C257 77 267 68 269 54ZM286 532L230 532 230 277 286 277ZM179 532L126 532 126 277 179 277ZM722 43C722 133 723 219 722 301L639 301 648 330 721 330C717 478 705 612 663 729 664 686 639 624 564 563L551 568C569 606 587 658 596 707L441 728C474 658 511 551 536 465L677 465C691 465 701 460 703 449 672 419 621 377 621 377L576 436 541 436 541 261 654 261C668 261 679 256 681 245 650 215 600 175 600 175L556 232 541 232 541 91C566 87 576 77 578 63L481 52 481 232 372 232 380 261 481 261 481 436 359 436 367 465 458 465C447 545 428 661 410 731L365 736 403 819C414 817 422 810 427 798 499 770 556 746 598 728 600 743 601 757 600 770 616 787 633 788 644 777 617 838 581 894 532 944L547 961C734 804 771 587 779 330L873 330C867 680 854 835 825 866 817 876 810 878 793 878 774 878 733 875 705 873L704 890C730 895 754 902 764 911 775 922 777 938 777 957 813 957 847 945 871 916 910 868 926 718 932 338 953 335 964 330 972 322L898 260 863 301 780 301 782 81C807 77 816 67 818 53Z"/>
</svg>