<svg xmlns="http://www.w3.org/2000/svg"
    viewBox="0 0 1000 1000">
  <!--
© 2017-2023 Adobe (http://www.adobe.com/).
Noto is a trademark of Google Inc.
This Font Software is licensed under the SIL Open Font License, Version 1.1. This Font Software is distributed on an "AS IS" BASIS, WITHOUT WARRANTIES OR CONDITIONS OF ANY KIND, either express or implied. See the SIL Open Font License for the specific language, permissions and limitations governing your use of this Font Software.
http://scripts.sil.org/OFL
  -->
<path d="M168 299L192 275 164 259 151 290C128 306 86 331 63 343L99 398C105 395 108 388 105 380L156 315C173 339 190 360 209 377 164 431 105 477 30 511L38 527C126 498 194 456 246 405 315 450 404 461 533 461 626 461 838 461 921 461 923 441 935 427 958 423L958 410C860 412 630 412 534 412 419 412 334 407 269 380 306 339 333 291 353 240 376 239 386 236 392 227L325 168 286 205 205 205C240 168 277 128 300 102 324 102 343 98 351 91L287 25 248 61 75 61 84 90 234 90C198 132 147 186 104 228 123 244 141 249 159 251L176 234 287 234C273 278 252 319 225 356 204 341 185 323 168 299ZM835 15C741 40 549 70 397 83L399 98C468 99 541 98 611 94L611 311 534 311C482 311 479 308 479 294L479 197C497 194 506 185 508 173L418 163 418 300C418 350 434 361 528 361L684 361C895 361 927 355 927 326 927 314 918 309 894 303L890 302 880 302C873 305 863 307 855 307 849 308 839 309 828 309 810 311 750 311 688 311L670 311 670 218 885 218C899 218 908 214 911 203 881 176 834 141 834 141L792 189 670 189 670 91C744 86 811 80 858 74 874 82 889 83 897 77ZM672 748L663 760C694 775 730 797 763 822L531 829 531 711 749 711 749 738 759 738C781 738 815 723 816 717L816 593C835 589 851 581 857 573L775 512 740 551 531 551 531 505C554 502 562 493 564 481L466 470 466 551 256 551 184 520 184 764 194 764C220 764 250 749 250 744L250 711 466 711 466 831C295 835 153 838 70 838L118 923C128 921 138 914 144 902 433 880 641 862 791 845 821 871 846 898 860 924 939 958 951 795 672 748ZM749 681L531 681 531 580 749 580ZM250 681L250 580 466 580 466 681Z"/>
</svg>