<svg xmlns="http://www.w3.org/2000/svg" name="gid11627" data-unicode="蜣"
    viewBox="0 0 1000 1000">
  <!--
© 2017-2024 Adobe (http://www.adobe.com/).
Noto is a trademark of Google Inc.
This Font Software is licensed under the SIL Open Font License, Version 1.1. This Font Software is distributed on an "AS IS" BASIS, WITHOUT WARRANTIES OR CONDITIONS OF ANY KIND, either express or implied. See the SIL Open Font License for the specific language, permissions and limitations governing your use of this Font Software.
http://scripts.sil.org/OFL
  -->
<path d="M495 44L483 49C512 86 542 145 543 194 603 249 672 121 495 44ZM203 44L203 238 139 238 76 208 76 617 86 617C110 617 134 604 134 597L134 554 203 554 203 781C129 797 67 810 31 816L72 895C82 892 91 884 94 872 207 831 295 794 361 767 365 789 367 810 367 830 424 890 494 756 330 630L317 635C332 666 347 706 356 747L264 767 264 554 337 554 337 597 346 597C366 597 395 582 396 577L396 276C414 273 430 265 437 258L362 201 327 238 264 238 264 81C289 78 299 68 301 54ZM337 524L260 524 260 267 337 267ZM206 524L134 524 134 267 206 267ZM771 42C760 92 740 160 721 210L426 210 434 239 632 239 632 362 448 362 456 391 632 391 632 519 410 519 418 548 541 548C534 732 492 850 326 946L333 961C534 880 597 758 613 548L703 548 703 871C703 914 714 931 775 931L840 931C948 931 973 919 973 892 973 879 969 872 949 864L946 745 934 745C925 794 914 847 907 860 903 869 900 871 892 871 886 871 867 872 843 872L792 872C770 872 768 868 768 855L768 548 938 548C952 548 962 543 965 532 931 502 878 459 878 459L830 519 697 519 697 391 898 391C911 391 921 386 924 375 892 345 839 304 839 304L794 362 697 362 697 239 925 239C939 239 948 234 951 223 918 193 866 153 866 153L819 210 746 210C779 172 812 124 834 87 854 88 867 79 871 67Z"/>
</svg>