<svg xmlns="http://www.w3.org/2000/svg"
    viewBox="0 0 1000 1000">
  <!--
© 2017-2023 Adobe (http://www.adobe.com/).
Noto is a trademark of Google Inc.
This Font Software is licensed under the SIL Open Font License, Version 1.1. This Font Software is distributed on an "AS IS" BASIS, WITHOUT WARRANTIES OR CONDITIONS OF ANY KIND, either express or implied. See the SIL Open Font License for the specific language, permissions and limitations governing your use of this Font Software.
http://scripts.sil.org/OFL
  -->
<path d="M585 535L718 535 718 702 585 702ZM532 505L532 816 540 816C568 816 585 803 585 797L585 731 718 731 718 791 726 791C743 791 770 777 771 771L771 541C787 538 801 531 807 525L740 473 709 505 595 505 532 477ZM78 196L78 591 87 591C110 591 132 578 132 572L132 533 183 533 183 734C120 749 66 761 32 767L69 844C79 841 86 833 91 821 182 785 256 752 313 723 317 745 320 768 319 788 341 811 365 803 375 775 359 826 337 874 306 917L322 928C462 792 471 593 471 417L471 93 846 93 846 826C846 843 840 849 822 849 802 849 703 840 703 840L703 857C747 862 771 869 786 880 800 890 805 907 808 925 897 916 907 884 907 833L907 105C927 102 944 93 951 86L868 23 836 64 483 64 412 32 412 418C412 542 408 662 376 769 386 730 369 661 288 590L273 595C287 625 300 663 309 702L241 720 241 533 295 533 295 572 302 572C321 572 350 558 351 551L351 233C367 230 382 222 387 216L317 162 286 196 242 196 242 56C265 52 275 43 277 29L184 18 184 196 137 196 78 168ZM505 350L512 378 619 378 619 465 632 465C653 465 676 457 676 453L676 378 798 378C811 378 820 373 823 362 799 338 760 306 760 306L728 350 676 350 676 248 790 248C803 248 812 243 815 232 792 208 754 177 754 177L721 219 676 219 676 151C700 149 708 140 710 127L619 116 619 219 506 219 513 248 619 248 619 350ZM295 504L238 504 238 225 295 225ZM186 504L132 504 132 225 186 225Z"/>
</svg>