<svg xmlns="http://www.w3.org/2000/svg" name="gid11656" data-unicode="蝗"
    viewBox="0 0 1000 1000">
  <!--
© 2017-2024 Adobe (http://www.adobe.com/).
Noto is a trademark of Google Inc.
This Font Software is licensed under the SIL Open Font License, Version 1.1. This Font Software is distributed on an "AS IS" BASIS, WITHOUT WARRANTIES OR CONDITIONS OF ANY KIND, either express or implied. See the SIL Open Font License for the specific language, permissions and limitations governing your use of this Font Software.
http://scripts.sil.org/OFL
  -->
<path d="M516 323L818 323 818 427 516 427ZM516 295L516 189 818 189 818 295ZM631 40C626 75 616 124 606 160L527 160 455 128 455 514 464 514C496 514 516 500 516 495L516 456 818 456 818 496 828 496C857 496 881 481 881 476L881 193C901 190 911 184 918 177L847 121 815 160 634 160C659 135 685 105 702 80 724 79 734 69 737 56ZM370 893L378 921 940 921C953 921 963 916 965 906 933 875 880 833 880 833L833 893 699 893 699 755 890 755C903 755 913 750 915 739 886 710 837 672 837 672L795 726 699 726 699 600 915 600C928 600 938 595 941 584 910 556 860 516 860 516L817 572 428 572 435 600 635 600 635 726 445 726 453 755 635 755 635 893ZM77 241L77 639 86 639C110 639 133 625 133 619L133 577 195 577 195 787C124 802 64 813 30 818L66 896C75 893 84 886 87 874 194 836 278 802 343 777 350 807 354 836 353 862 408 920 472 785 312 647L299 653C312 682 327 719 337 757L254 775 254 577 321 577 321 620 330 620C349 620 377 605 378 599L378 278C395 275 410 267 416 260L345 206 312 241 254 241 254 81C278 78 289 68 290 54L195 45 195 241 138 241 77 212ZM321 547L251 547 251 270 321 270ZM198 547L133 547 133 270 198 270Z"/>
</svg>