<svg xmlns="http://www.w3.org/2000/svg"
    viewBox="0 0 1000 1000">
  <!--
© 2017-2023 Adobe (http://www.adobe.com/).
Noto is a trademark of Google Inc.
This Font Software is licensed under the SIL Open Font License, Version 1.1. This Font Software is distributed on an "AS IS" BASIS, WITHOUT WARRANTIES OR CONDITIONS OF ANY KIND, either express or implied. See the SIL Open Font License for the specific language, permissions and limitations governing your use of this Font Software.
http://scripts.sil.org/OFL
  -->
<path d="M516 293L818 293 818 397 516 397ZM516 265L516 159 818 159 818 265ZM631 10C626 45 616 94 606 130L527 130 455 98 455 484 464 484C496 484 516 470 516 465L516 426 818 426 818 466 828 466C857 466 881 451 881 446L881 163C901 160 911 154 918 147L847 91 815 130 634 130C659 105 685 75 702 50 724 49 734 39 737 26ZM370 863L378 891 940 891C953 891 963 886 965 876 933 845 880 803 880 803L833 863 699 863 699 725 890 725C903 725 913 720 915 709 886 680 837 642 837 642L795 696 699 696 699 570 915 570C928 570 938 565 941 554 910 526 860 486 860 486L817 542 428 542 435 570 635 570 635 696 445 696 453 725 635 725 635 863ZM77 211L77 609 86 609C110 609 133 595 133 589L133 547 195 547 195 757C124 772 64 783 30 788L66 866C75 863 84 856 87 844 194 806 278 772 343 747 350 777 354 806 353 832 408 890 472 755 312 617L299 623C312 652 327 689 337 727L254 745 254 547 321 547 321 590 330 590C349 590 377 575 378 569L378 248C395 245 410 237 416 230L345 176 312 211 254 211 254 51C278 48 289 38 290 24L195 15 195 211 138 211 77 182ZM321 517L251 517 251 240 321 240ZM198 517L133 517 133 240 198 240Z"/>
</svg>