<svg xmlns="http://www.w3.org/2000/svg"
    viewBox="0 0 1000 1000">
  <!--
© 2017-2024 Adobe (http://www.adobe.com/).
Noto is a trademark of Google Inc.
This Font Software is licensed under the SIL Open Font License, Version 1.1. This Font Software is distributed on an "AS IS" BASIS, WITHOUT WARRANTIES OR CONDITIONS OF ANY KIND, either express or implied. See the SIL Open Font License for the specific language, permissions and limitations governing your use of this Font Software.
http://scripts.sil.org/OFL
  -->
<path d="M371 81L378 110 930 110C944 110 954 105 957 94 924 64 871 22 871 22L825 81ZM827 241L827 370 482 370 482 241ZM422 212L422 427C422 595 410 774 308 918L322 930C422 835 460 709 474 590L474 927 482 927C509 927 527 912 527 907L527 701 602 701 602 921 609 921C636 921 653 907 653 903L653 701 730 701 730 921 737 921C763 921 781 907 781 903L781 701 859 701 859 841C859 851 857 856 847 856 836 856 799 853 799 853L799 868C820 872 830 877 837 886 845 895 847 911 848 926 909 920 916 894 916 846L916 537C934 534 949 526 955 520L880 465 850 499 540 499 482 474 482 427 482 399 827 399 827 437 836 437C856 437 888 423 889 417L889 250C906 247 921 239 927 232L851 175 818 212 494 212 422 179ZM859 529L859 672 781 672 781 529ZM602 529L602 672 527 672 527 529ZM653 529L730 529 730 672 653 672ZM78 196L78 591 87 591C110 591 132 578 132 572L132 533 183 533 183 734C120 749 66 761 32 767L69 844C79 841 86 833 91 821 182 785 256 752 313 723 317 745 320 768 319 788 371 843 436 719 288 590L273 595C287 625 300 663 309 702L241 720 241 533 295 533 295 572 302 572C321 572 350 558 351 551L351 233C367 230 382 222 387 216L317 162 286 196 242 196 242 56C265 52 275 43 277 29L184 18 184 196 137 196 78 168ZM295 504L238 504 238 225 295 225ZM186 504L132 504 132 225 186 225Z"/>
</svg>