<svg xmlns="http://www.w3.org/2000/svg" name="gid11658" data-unicode="蝙"
    viewBox="0 0 1000 1000">
  <!--
© 2017-2024 Adobe (http://www.adobe.com/).
Noto is a trademark of Google Inc.
This Font Software is licensed under the SIL Open Font License, Version 1.1. This Font Software is distributed on an "AS IS" BASIS, WITHOUT WARRANTIES OR CONDITIONS OF ANY KIND, either express or implied. See the SIL Open Font License for the specific language, permissions and limitations governing your use of this Font Software.
http://scripts.sil.org/OFL
  -->
<path d="M371 111L378 140 930 140C944 140 954 135 957 124 924 94 871 52 871 52L825 111ZM827 271L827 400 482 400 482 271ZM422 242L422 457C422 625 410 804 308 948L322 960C422 865 460 739 474 620L474 957 482 957C509 957 527 942 527 937L527 731 602 731 602 951 609 951C636 951 653 937 653 933L653 731 730 731 730 951 737 951C763 951 781 937 781 933L781 731 859 731 859 871C859 881 857 886 847 886 836 886 799 883 799 883L799 898C820 902 830 907 837 916 845 925 847 941 848 956 909 950 916 924 916 876L916 567C934 564 949 556 955 550L880 495 850 529 540 529 482 504 482 457 482 429 827 429 827 467 836 467C856 467 888 453 889 447L889 280C906 277 921 269 927 262L851 205 818 242 494 242 422 209ZM859 559L859 702 781 702 781 559ZM602 559L602 702 527 702 527 559ZM653 559L730 559 730 702 653 702ZM78 226L78 621 87 621C110 621 132 608 132 602L132 563 183 563 183 764C120 779 66 791 32 797L69 874C79 871 86 863 91 851 182 815 256 782 313 753 317 775 320 798 319 818 371 873 436 749 288 620L273 625C287 655 300 693 309 732L241 750 241 563 295 563 295 602 302 602C321 602 350 588 351 581L351 263C367 260 382 252 387 246L317 192 286 226 242 226 242 86C265 82 275 73 277 59L184 48 184 226 137 226 78 198ZM295 534L238 534 238 255 295 255ZM186 534L132 534 132 255 186 255Z"/>
</svg>