<svg xmlns="http://www.w3.org/2000/svg" name="gid11660" data-unicode="蝟"
    viewBox="0 0 1000 1000">
  <!--
© 2017-2024 Adobe (http://www.adobe.com/).
Noto is a trademark of Google Inc.
This Font Software is licensed under the SIL Open Font License, Version 1.1. This Font Software is distributed on an "AS IS" BASIS, WITHOUT WARRANTIES OR CONDITIONS OF ANY KIND, either express or implied. See the SIL Open Font License for the specific language, permissions and limitations governing your use of this Font Software.
http://scripts.sil.org/OFL
  -->
<path d="M647 130L647 232 503 232 503 130ZM706 130L854 130 854 232 706 232ZM443 102L443 443 452 443C483 443 503 428 503 424L503 391 854 391 854 424 863 424C892 424 914 410 914 405L914 135C935 131 945 125 952 118L882 65 851 102 514 102 443 71ZM503 261L647 261 647 362 503 362ZM854 261L854 362 706 362 706 261ZM817 633L817 723 539 723 539 633ZM817 603L539 603 539 515 817 515ZM478 486L478 958 489 958C514 958 539 942 539 936L539 752 817 752 817 858C817 872 812 878 794 878 773 878 684 872 684 872L684 887C725 892 748 898 761 906 774 914 779 926 782 942 867 935 879 908 879 864L879 527C899 523 914 515 921 508L839 447 807 486 544 486 478 455ZM77 242L77 641 86 641C110 641 133 627 133 621L133 578 195 578 195 789C124 804 64 816 30 821L73 898C81 895 90 887 94 875 200 837 282 805 344 780 351 812 356 844 356 873 412 932 476 793 312 650L299 655C313 684 327 721 338 759L254 777 254 578 321 578 321 622 330 622C349 622 377 607 378 601L378 279C395 276 410 269 416 262L345 207 312 242 254 242 254 83C278 79 289 70 290 56L195 46 195 242 138 242 77 213ZM321 548L251 548 251 271 321 271ZM198 548L133 548 133 271 198 271Z"/>
</svg>