<svg xmlns="http://www.w3.org/2000/svg"
    viewBox="0 0 1000 1000">
  <!--
© 2017-2024 Adobe (http://www.adobe.com/).
Noto is a trademark of Google Inc.
This Font Software is licensed under the SIL Open Font License, Version 1.1. This Font Software is distributed on an "AS IS" BASIS, WITHOUT WARRANTIES OR CONDITIONS OF ANY KIND, either express or implied. See the SIL Open Font License for the specific language, permissions and limitations governing your use of this Font Software.
http://scripts.sil.org/OFL
  -->
<path d="M407 81L415 110 936 110C950 110 959 105 962 94 930 64 876 22 876 22L830 81ZM478 195L478 441 488 441C519 441 540 426 540 422L540 388 807 388 807 424 817 424C847 424 871 410 871 406L871 227C891 224 901 219 906 212L836 157 804 195 551 195 478 163ZM540 359L540 224 807 224 807 359ZM485 688L637 688 637 833 485 833ZM854 688L854 833 698 833 698 688ZM485 659L485 521 637 521 637 659ZM854 659L698 659 698 521 854 521ZM424 491L424 928 434 928C465 928 485 913 485 908L485 863 854 863 854 919 864 919C894 919 917 904 917 900L917 525C938 522 949 517 955 508L883 453 850 491 497 491 424 460ZM76 217L76 614 85 614C108 614 132 601 132 595L132 557 193 557 193 770C123 786 65 799 32 805L70 885C79 883 88 874 92 862 193 821 274 785 334 757 339 784 342 810 341 834 395 892 459 760 308 623L295 628C308 658 321 697 330 736L252 756 252 557 315 557 315 596 324 596C343 596 372 581 373 575L373 254C388 251 403 244 409 237L338 182 306 217 252 217 252 63C276 60 286 50 288 36L193 26 193 217 137 217 76 189ZM315 528L249 528 249 246 315 246ZM197 528L132 528 132 246 197 246Z"/>
</svg>