<svg xmlns="http://www.w3.org/2000/svg"
    viewBox="0 0 1000 1000">
  <!--
© 2017-2024 Adobe (http://www.adobe.com/).
Noto is a trademark of Google Inc.
This Font Software is licensed under the SIL Open Font License, Version 1.1. This Font Software is distributed on an "AS IS" BASIS, WITHOUT WARRANTIES OR CONDITIONS OF ANY KIND, either express or implied. See the SIL Open Font License for the specific language, permissions and limitations governing your use of this Font Software.
http://scripts.sil.org/OFL
  -->
<path d="M407 75L407 928 419 928C447 928 467 913 467 904L467 706 641 706C655 706 664 701 667 690 638 663 593 626 593 626L554 677 467 677 467 512 614 512C627 512 636 507 638 496 611 469 567 432 567 432L529 483 467 483 467 342 587 342 587 378 596 378C616 378 645 364 646 358L646 112C663 109 678 101 684 94L611 39 578 75 471 75 407 42ZM587 312L467 312 467 103 587 103ZM693 308L701 337 851 337 851 388 860 388C880 388 911 374 912 368L912 115C932 111 948 103 954 95L876 36 841 75 695 75 703 103 851 103 851 308ZM849 485C835 558 813 626 781 687 747 629 722 561 706 485ZM629 456L637 485 685 485C699 580 721 662 754 732 706 805 639 866 546 913L555 928C653 890 725 839 779 778 814 838 860 888 918 928 930 901 950 885 974 883L976 873C911 840 856 794 812 735 863 664 893 582 914 493 936 491 946 489 953 480L884 417 844 456ZM74 200L74 606 83 606C106 606 128 593 128 587L128 545 177 545 177 769C115 785 63 797 33 802L71 880C80 877 88 869 92 857L308 756C311 777 313 797 313 816 367 874 430 747 281 615L266 620C280 653 295 695 304 737L235 754 235 545 288 545 288 588 296 588C313 588 341 574 342 568L342 236C359 233 373 225 379 219L309 165 279 200 235 200 235 51C258 47 269 38 271 24L177 14 177 200 133 200 74 171ZM288 515L231 515 231 228 288 228ZM181 515L128 515 128 228 181 228Z"/>
</svg>