<svg xmlns="http://www.w3.org/2000/svg"
    viewBox="0 0 1000 1000">
  <!--
© 2017-2023 Adobe (http://www.adobe.com/).
Noto is a trademark of Google Inc.
This Font Software is licensed under the SIL Open Font License, Version 1.1. This Font Software is distributed on an "AS IS" BASIS, WITHOUT WARRANTIES OR CONDITIONS OF ANY KIND, either express or implied. See the SIL Open Font License for the specific language, permissions and limitations governing your use of this Font Software.
http://scripts.sil.org/OFL
  -->
<path d="M528 219L798 219 798 314 528 314ZM528 189L528 94 798 94 798 189ZM467 65L467 399 477 399C509 399 528 384 528 379L528 344 798 344 798 380 808 380C836 380 861 365 861 361L861 98C881 95 891 90 897 82L826 28 795 65 540 65 467 34ZM387 437L395 466 518 466C485 543 437 614 369 669L381 685C429 656 471 622 506 584L574 584C535 671 475 749 393 809L404 826C510 765 589 685 638 584L712 584C667 718 588 830 463 913L473 929C628 847 726 733 777 584L853 584C843 736 824 823 801 843 792 851 785 853 768 853 750 853 696 848 665 845L665 863C694 868 723 874 734 885 747 894 750 911 750 928 784 929 817 919 840 899 879 866 903 770 913 590 933 588 946 584 952 576L880 517 845 554 531 554C553 527 571 497 586 466L933 466C947 466 956 461 959 450 928 420 876 380 876 380L832 437ZM76 211L76 609 85 609C108 609 132 595 132 589L132 552 193 552 193 764C123 780 65 793 32 799L70 879C79 877 88 868 92 856 197 814 280 777 342 748 345 767 347 784 347 801 400 853 463 732 308 617L296 623C311 651 327 690 337 728L252 749 252 552 315 552 315 590 324 590C343 590 372 575 373 569L373 248C388 245 403 237 409 231L338 176 306 211 252 211 252 57C276 53 286 44 288 30L193 19 193 211 137 211 76 183ZM315 523L249 523 249 240 315 240ZM197 523L132 523 132 240 197 240Z"/>
</svg>