<svg xmlns="http://www.w3.org/2000/svg"
    viewBox="0 0 1000 1000">
  <!--
© 2017-2024 Adobe (http://www.adobe.com/).
Noto is a trademark of Google Inc.
This Font Software is licensed under the SIL Open Font License, Version 1.1. This Font Software is distributed on an "AS IS" BASIS, WITHOUT WARRANTIES OR CONDITIONS OF ANY KIND, either express or implied. See the SIL Open Font License for the specific language, permissions and limitations governing your use of this Font Software.
http://scripts.sil.org/OFL
  -->
<path d="M746 94L857 94 857 284 746 284ZM688 65L688 454C688 634 676 798 572 918L587 929C707 832 737 692 744 549L857 549 857 826C857 841 852 847 837 847 820 847 741 840 741 840L741 857C776 861 797 869 810 879 821 889 825 907 827 925 906 916 915 884 915 834L915 105C935 102 951 94 958 86L878 26 847 65 757 65 688 34ZM746 313L857 313 857 520 745 520 746 453ZM394 468L394 845 404 845C428 845 451 831 451 826L451 760 570 760 570 814 581 814C602 814 626 801 628 797L628 508C643 505 657 498 664 490L605 434 575 468 540 468 540 278 653 278C667 278 676 273 679 262 653 234 611 199 611 199L575 248 540 248 540 62C565 57 574 48 576 33L481 23 481 248 360 248 367 278 481 278 481 468 456 468 394 439ZM451 732L451 497 570 497 570 732ZM74 206L74 612 83 612C106 612 128 599 128 593L128 550 177 550 177 776C115 792 63 804 33 809L71 886C80 883 88 876 92 863 177 825 246 792 298 767 303 796 306 824 305 849 359 908 424 775 275 630L261 635C273 666 286 706 294 746L235 761 235 550 288 550 288 594 296 594C313 594 341 580 342 574L342 242C359 239 373 231 379 225L309 171 279 206 235 206 235 57C258 53 269 44 271 30L177 19 177 206 133 206 74 177ZM288 521L231 521 231 234 288 234ZM181 521L128 521 128 234 181 234Z"/>
</svg>