<svg xmlns="http://www.w3.org/2000/svg" name="gid11673" data-unicode="蝴"
    viewBox="0 0 1000 1000">
  <!--
© 2017-2024 Adobe (http://www.adobe.com/).
Noto is a trademark of Google Inc.
This Font Software is licensed under the SIL Open Font License, Version 1.1. This Font Software is distributed on an "AS IS" BASIS, WITHOUT WARRANTIES OR CONDITIONS OF ANY KIND, either express or implied. See the SIL Open Font License for the specific language, permissions and limitations governing your use of this Font Software.
http://scripts.sil.org/OFL
  -->
<path d="M746 124L857 124 857 314 746 314ZM688 95L688 484C688 664 676 828 572 948L587 959C707 862 737 722 744 579L857 579 857 856C857 871 852 877 837 877 820 877 741 870 741 870L741 887C776 891 797 899 810 909 821 919 825 937 827 955 906 946 915 914 915 864L915 135C935 132 951 124 958 116L878 56 847 95 757 95 688 64ZM746 343L857 343 857 550 745 550 746 483ZM394 498L394 875 404 875C428 875 451 861 451 856L451 790 570 790 570 844 581 844C602 844 626 831 628 827L628 538C643 535 657 528 664 520L605 464 575 498 540 498 540 308 653 308C667 308 676 303 679 292 653 264 611 229 611 229L575 278 540 278 540 92C565 87 574 78 576 63L481 53 481 278 360 278 367 308 481 308 481 498 456 498 394 469ZM451 762L451 527 570 527 570 762ZM74 236L74 642 83 642C106 642 128 629 128 623L128 580 177 580 177 806C115 822 63 834 33 839L71 916C80 913 88 906 92 893 177 855 246 822 298 797 303 826 306 854 305 879 359 938 424 805 275 660L261 665C273 696 286 736 294 776L235 791 235 580 288 580 288 624 296 624C313 624 341 610 342 604L342 272C359 269 373 261 379 255L309 201 279 236 235 236 235 87C258 83 269 74 271 60L177 49 177 236 133 236 74 207ZM288 551L231 551 231 264 288 264ZM181 551L128 551 128 264 181 264Z"/>
</svg>