<svg xmlns="http://www.w3.org/2000/svg" name="gid11684" data-unicode="螇"
    viewBox="0 0 1000 1000">
  <!--
© 2017-2024 Adobe (http://www.adobe.com/).
Noto is a trademark of Google Inc.
This Font Software is licensed under the SIL Open Font License, Version 1.1. This Font Software is distributed on an "AS IS" BASIS, WITHOUT WARRANTIES OR CONDITIONS OF ANY KIND, either express or implied. See the SIL Open Font License for the specific language, permissions and limitations governing your use of this Font Software.
http://scripts.sil.org/OFL
  -->
<path d="M625 143L612 148C632 181 649 232 645 274 696 325 766 217 625 143ZM766 131L755 140C807 180 867 251 881 310 948 355 990 208 766 131ZM70 247L70 623 79 623C104 623 126 609 126 603L126 559 184 559 184 790C118 803 63 813 31 818L68 896C78 894 86 886 89 873 189 837 266 806 325 782 331 808 336 834 337 857 394 914 454 782 291 642L277 647C292 679 308 721 320 762L244 778 244 559 306 559 306 603 315 603C334 603 364 588 365 582L365 286C383 283 399 275 405 267L331 210 298 247 245 247 245 85C269 82 279 72 281 57L185 47 185 247 131 247 70 218ZM306 529L240 529 240 276 306 276ZM189 529L126 529 126 276 189 276ZM602 610C600 644 598 674 592 703L385 703 393 732 586 732C561 817 498 882 328 940L337 960C561 903 627 828 653 732L666 732C694 811 755 908 905 961 910 925 929 915 962 910L964 898C804 857 726 794 690 732L932 732C947 732 957 727 959 716 928 686 876 646 876 646L831 703 660 703C663 684 666 665 668 645 689 644 699 633 701 620ZM480 99C464 186 432 267 393 320L407 331C462 290 507 223 536 145L538 145 548 144C651 135 768 118 844 102 865 111 882 112 892 105L827 42C766 66 654 100 557 121ZM752 312C710 372 620 482 542 555 481 556 430 556 396 555L427 633C437 632 448 626 453 613 625 597 753 582 851 571 862 587 871 604 876 619 942 660 979 520 761 459L750 468C778 489 810 519 835 550L578 555C666 492 753 410 798 362 815 366 825 363 829 356ZM600 256C576 304 549 351 526 386 503 375 475 366 438 360L429 369C470 395 521 446 539 487 587 512 618 447 549 399 579 374 613 342 643 311 662 315 675 307 680 298Z"/>
</svg>