<svg xmlns="http://www.w3.org/2000/svg"
    viewBox="0 0 1000 1000">
  <!--
© 2017-2023 Adobe (http://www.adobe.com/).
Noto is a trademark of Google Inc.
This Font Software is licensed under the SIL Open Font License, Version 1.1. This Font Software is distributed on an "AS IS" BASIS, WITHOUT WARRANTIES OR CONDITIONS OF ANY KIND, either express or implied. See the SIL Open Font License for the specific language, permissions and limitations governing your use of this Font Software.
http://scripts.sil.org/OFL
  -->
<path d="M555 702C517 773 435 861 348 912L358 926C461 889 557 820 608 757 631 762 639 757 645 748ZM732 714L722 723C782 769 857 853 879 917 955 965 996 801 732 714ZM467 33C462 90 441 133 412 151 358 225 499 263 494 110L854 110C846 138 836 172 828 193L832 194 802 230 543 230 470 199 470 540 480 540C512 540 531 526 531 521L531 491 805 491 805 522 815 522C844 522 867 508 867 504L867 264C888 260 898 254 903 247L838 197 843 199C869 180 907 145 929 121 948 120 959 119 966 112L891 39 851 81 491 81C489 67 486 51 482 34ZM531 374L805 374 805 462 531 462ZM531 345L531 259 805 259 805 345ZM634 509L634 632 392 632 400 662 937 662C951 662 960 657 963 646 930 615 877 573 877 573L831 632 699 632 699 544C719 540 727 532 729 519ZM76 211L76 609 85 609C108 609 132 595 132 589L132 552 193 552 193 764C123 780 65 793 32 799L70 879C79 877 88 868 92 856 197 814 279 777 340 749 345 772 348 794 348 814 401 870 464 743 308 617L296 623C310 652 325 690 335 728L252 749 252 552 315 552 315 590 324 590C343 590 372 575 373 569L373 248C388 245 403 237 409 231L338 176 306 211 252 211 252 57C276 53 286 44 288 30L193 19 193 211 137 211 76 183ZM315 523L249 523 249 240 315 240ZM197 523L132 523 132 240 197 240Z"/>
</svg>