<svg xmlns="http://www.w3.org/2000/svg" name="gid11699" data-unicode="螠"
    viewBox="0 0 1000 1000">
  <!--
© 2017-2024 Adobe (http://www.adobe.com/).
Noto is a trademark of Google Inc.
This Font Software is licensed under the SIL Open Font License, Version 1.1. This Font Software is distributed on an "AS IS" BASIS, WITHOUT WARRANTIES OR CONDITIONS OF ANY KIND, either express or implied. See the SIL Open Font License for the specific language, permissions and limitations governing your use of this Font Software.
http://scripts.sil.org/OFL
  -->
<path d="M503 282L510 312 787 312C801 312 811 307 813 296 784 267 738 230 738 230L697 282ZM507 112C481 207 434 293 383 347L398 358C462 316 520 247 560 162 581 163 592 155 597 144ZM185 43L185 247 135 247 74 218 74 619 83 619C107 619 130 605 130 600L130 559 185 559 185 782C120 792 65 801 34 804L68 883C78 880 86 873 91 860 189 828 265 801 323 779 329 806 333 833 333 857 389 915 454 782 293 654L279 659C293 687 307 722 318 759L245 772 245 559 306 559 306 603 314 603C334 603 363 588 364 582L364 284C380 281 395 273 400 267L329 212 298 247 245 247 245 80C269 77 279 67 281 53ZM306 529L241 529 241 276 306 276ZM189 529L130 529 130 276 189 276ZM354 897L362 926 948 926C961 926 969 921 972 910 951 886 914 851 914 851L883 897 866 897 866 673C881 670 895 663 900 657L830 604 797 638 516 638 448 610C484 576 517 534 544 487 564 490 577 483 582 472L493 435C460 528 404 611 349 660L363 673C391 657 419 637 445 613L445 897ZM569 897L503 897 503 667 569 667ZM619 897L619 667 687 667 687 897ZM737 897L737 667 806 667 806 897ZM577 92L586 120 739 120C764 209 823 289 902 345 909 320 932 302 956 297L958 285C871 248 797 186 764 123 793 121 817 114 827 104L747 48 719 92ZM557 415L566 444 753 444C779 530 840 605 921 656 928 632 951 613 975 607L977 596C888 563 811 506 778 445 807 444 830 438 839 426L760 372 732 415Z"/>
</svg>