<svg xmlns="http://www.w3.org/2000/svg"
    viewBox="0 0 1000 1000">
  <!--
© 2017-2023 Adobe (http://www.adobe.com/).
Noto is a trademark of Google Inc.
This Font Software is licensed under the SIL Open Font License, Version 1.1. This Font Software is distributed on an "AS IS" BASIS, WITHOUT WARRANTIES OR CONDITIONS OF ANY KIND, either express or implied. See the SIL Open Font License for the specific language, permissions and limitations governing your use of this Font Software.
http://scripts.sil.org/OFL
  -->
<path d="M413 257L401 265C433 294 467 346 470 388 521 432 573 318 413 257ZM105 254C91 302 63 360 36 394L51 406C90 379 124 338 147 300 166 301 177 295 181 284ZM259 11L259 102 83 102 91 132 259 132 259 200 47 200 55 229 206 229C201 323 183 417 66 492L80 508C226 436 253 335 262 229L328 229 328 409C328 421 325 425 311 425 298 425 244 422 244 422L244 437C273 440 287 445 296 454 304 462 307 475 308 487 373 481 383 455 383 410L383 229 519 229C533 229 542 224 545 214 516 186 470 151 470 151L430 200 318 200 318 132 490 132C503 132 512 127 515 116 487 88 441 53 441 53L401 102 318 102 318 45C339 41 347 33 349 20ZM670 748L661 760C692 775 728 797 761 822L530 829 530 710 751 710 751 734 761 734C783 734 817 720 818 713L818 576C836 572 853 564 860 556L777 495 742 535 530 535 530 491C553 488 561 479 563 467L465 457 465 535 256 535 185 503 185 754 195 754C221 754 251 740 251 734L251 710 465 710 465 831C294 835 153 838 71 838L120 925C129 923 139 916 146 904 433 881 640 863 789 845 819 871 844 898 858 924 937 958 949 795 670 748ZM751 680L530 680 530 564 751 564ZM251 680L251 564 465 564 465 680ZM634 13C611 116 561 223 504 287L519 297C551 274 581 245 607 211 626 261 649 305 677 344 632 384 574 418 503 446L510 461C585 440 650 412 703 377 755 436 824 482 920 515 926 485 944 470 967 464L970 453C873 431 799 396 741 349 799 301 841 242 867 169L936 169C950 169 960 164 962 153 930 123 878 82 878 82L832 140 656 140C671 114 684 87 695 60 714 61 726 53 730 41ZM706 316C671 281 644 239 621 193L638 169 793 169C775 225 746 274 706 316Z"/>
</svg>