<svg xmlns="http://www.w3.org/2000/svg" name="gid11705" data-unicode="螭"
    viewBox="0 0 1000 1000">
  <!--
© 2017-2024 Adobe (http://www.adobe.com/).
Noto is a trademark of Google Inc.
This Font Software is licensed under the SIL Open Font License, Version 1.1. This Font Software is distributed on an "AS IS" BASIS, WITHOUT WARRANTIES OR CONDITIONS OF ANY KIND, either express or implied. See the SIL Open Font License for the specific language, permissions and limitations governing your use of this Font Software.
http://scripts.sil.org/OFL
  -->
<path d="M624 43L624 160 373 160 381 189 931 189C945 189 955 184 958 173 925 143 874 102 874 102L828 160 688 160 688 80C711 77 722 67 724 53ZM726 645L713 651C726 671 739 697 751 724L591 738C607 701 625 653 643 604L859 604 859 863C859 877 855 882 840 882 820 882 741 876 741 876L741 892C777 897 798 904 811 913 822 923 826 940 828 958 910 950 920 919 920 870L920 617C940 613 957 604 963 597L881 536 849 575 653 575 685 479 828 479 828 516 840 516C863 516 889 505 889 498L889 267C914 263 923 253 926 240L828 230 828 449 494 449 494 264C516 260 525 252 528 239L434 230 434 522 446 522C468 522 494 509 494 502L494 479 609 479 593 575 470 575 405 545 405 956 415 956C441 956 465 942 465 935L465 604 587 604 562 741 484 746 520 824C531 822 539 816 544 804 637 779 707 759 758 743 768 770 775 797 777 821 828 869 886 752 726 645ZM706 192C695 220 678 251 657 281 627 270 590 259 546 252L537 264C566 277 600 296 631 317 600 357 562 395 522 422L532 436C582 412 628 378 667 342 696 365 721 388 736 410 787 428 802 359 705 304 724 282 740 260 753 240 776 243 784 238 789 228ZM76 247L76 644 85 644C108 644 131 631 131 625L131 580 187 580 187 799C121 813 65 825 34 830L71 911C81 907 90 900 93 887 190 848 264 814 320 789 325 814 328 838 328 860 380 917 445 790 293 657L279 662C292 692 306 731 316 770L244 786 244 580 301 580 301 626 309 626C328 626 357 611 358 605L358 284C374 281 389 273 395 267L324 212 293 247 244 247 244 80C267 77 277 67 279 54L187 44 187 247 136 247 76 219ZM301 551L241 551 241 276 301 276ZM189 551L131 551 131 276 189 276Z"/>
</svg>