<svg xmlns="http://www.w3.org/2000/svg"
    viewBox="0 0 1000 1000">
  <!--
© 2017-2024 Adobe (http://www.adobe.com/).
Noto is a trademark of Google Inc.
This Font Software is licensed under the SIL Open Font License, Version 1.1. This Font Software is distributed on an "AS IS" BASIS, WITHOUT WARRANTIES OR CONDITIONS OF ANY KIND, either express or implied. See the SIL Open Font License for the specific language, permissions and limitations governing your use of this Font Software.
http://scripts.sil.org/OFL
  -->
<path d="M768 222L759 232C810 266 878 329 900 376 964 409 992 280 768 222ZM782 392L770 401C826 443 892 519 907 580 971 623 1011 477 782 392ZM478 389C448 463 396 545 348 592L363 604C425 564 483 500 522 439 541 442 554 434 559 424ZM470 206C447 267 406 334 368 373L381 385C434 354 483 303 514 255 533 257 545 250 550 239ZM371 141L379 170 927 170C941 170 951 165 954 154 922 124 869 83 869 83L823 141 681 141 681 57C706 53 715 43 717 29L618 19 618 141ZM618 585L618 684 370 684 378 713 618 713 618 930 630 930C653 930 681 916 681 909L681 713 940 713C954 713 963 708 965 697 933 667 881 626 881 626L834 684 681 684 681 621C705 617 713 609 715 596ZM628 185C613 225 591 278 572 318 556 310 537 301 512 295L502 303C532 329 566 374 574 411 616 438 651 381 594 334 622 303 652 263 674 232 693 232 704 226 708 215ZM699 284C665 358 612 451 569 512L497 515 532 588C542 586 551 580 556 567 636 550 697 535 742 523 749 541 754 558 756 574 806 619 861 510 706 431L694 437C707 455 721 479 733 503L601 511C651 458 703 390 741 335 760 337 773 331 777 321ZM78 209L78 603 87 603C110 603 132 590 132 584L132 545 183 545 183 758C120 774 66 786 32 792L69 869C79 866 86 858 91 846 182 810 256 776 313 747 317 770 320 792 319 812 371 868 436 743 288 614L273 619C287 649 300 688 309 727L241 744 241 545 295 545 295 584 302 584C321 584 350 570 351 564L351 245C367 242 382 235 387 228L317 174 286 209 242 209 242 58C265 54 275 45 277 31L184 20 184 209 137 209 78 180ZM295 516L238 516 238 237 295 237ZM186 516L132 516 132 237 186 237Z"/>
</svg>