<svg xmlns="http://www.w3.org/2000/svg"
    viewBox="0 0 1000 1000">
  <!--
© 2017-2023 Adobe (http://www.adobe.com/).
Noto is a trademark of Google Inc.
This Font Software is licensed under the SIL Open Font License, Version 1.1. This Font Software is distributed on an "AS IS" BASIS, WITHOUT WARRANTIES OR CONDITIONS OF ANY KIND, either express or implied. See the SIL Open Font License for the specific language, permissions and limitations governing your use of this Font Software.
http://scripts.sil.org/OFL
  -->
<path d="M42 98L48 128 333 128 333 188 343 188C369 188 396 179 396 173L396 128 596 128 596 186 608 186C640 186 661 174 661 169L661 128 929 128C943 128 953 123 955 112 923 82 872 42 872 42L825 98 661 98 661 46C686 42 695 33 697 19L596 9 596 98 396 98 396 46C421 42 430 33 432 20L333 9 333 98ZM723 337L723 408 278 408 278 337ZM723 308L278 308 278 239 723 239ZM647 779L641 796C675 809 704 824 728 840L528 845 528 760 713 760 713 788 723 788C744 788 775 773 776 767L776 657 790 652C832 677 876 699 919 715 927 685 944 667 968 663L969 652C875 632 758 589 685 536L929 536C943 536 953 531 956 520 923 491 872 454 872 454L827 506 392 506C407 490 421 474 434 458 461 458 473 452 477 442L456 437 723 437 723 470 733 470C755 470 787 455 788 448L788 248C805 245 820 237 826 230L749 172 714 210 284 210 214 178 214 477 224 477C250 477 278 462 278 456L278 437 362 437C348 460 330 483 311 506L44 506 53 536 283 536C218 604 131 667 31 712L40 727C109 705 170 676 225 642L225 803 235 803C265 803 286 787 286 781L286 760 465 760 465 847C318 851 195 854 125 853L160 928C169 926 179 920 185 907 435 889 621 874 759 861 783 880 801 899 814 917 873 972 969 829 647 779ZM649 536C669 561 694 584 722 606L706 622 528 622 528 563C548 560 555 552 557 541L511 536ZM362 536L465 536 465 622 298 622 271 611C304 587 334 562 362 536ZM713 731L528 731 528 652 713 652ZM465 731L286 731 286 652 465 652Z"/>
</svg>