<svg xmlns="http://www.w3.org/2000/svg" name="gid11720" data-unicode="蟇"
    viewBox="0 0 1000 1000">
  <!--
© 2017-2024 Adobe (http://www.adobe.com/).
Noto is a trademark of Google Inc.
This Font Software is licensed under the SIL Open Font License, Version 1.1. This Font Software is distributed on an "AS IS" BASIS, WITHOUT WARRANTIES OR CONDITIONS OF ANY KIND, either express or implied. See the SIL Open Font License for the specific language, permissions and limitations governing your use of this Font Software.
http://scripts.sil.org/OFL
  -->
<path d="M42 128L48 158 333 158 333 218 343 218C369 218 396 209 396 203L396 158 596 158 596 216 608 216C640 216 661 204 661 199L661 158 929 158C943 158 953 153 955 142 923 112 872 72 872 72L825 128 661 128 661 76C686 72 695 63 697 49L596 39 596 128 396 128 396 76C421 72 430 63 432 50L333 39 333 128ZM723 367L723 438 278 438 278 367ZM723 338L278 338 278 269 723 269ZM647 809L641 826C675 839 704 854 728 870L528 875 528 790 713 790 713 818 723 818C744 818 775 803 776 797L776 687 790 682C832 707 876 729 919 745 927 715 944 697 968 693L969 682C875 662 758 619 685 566L929 566C943 566 953 561 956 550 923 521 872 484 872 484L827 536 392 536C407 520 421 504 434 488 461 488 473 482 477 472L456 467 723 467 723 500 733 500C755 500 787 485 788 478L788 278C805 275 820 267 826 260L749 202 714 240 284 240 214 208 214 507 224 507C250 507 278 492 278 486L278 467 362 467C348 490 330 513 311 536L44 536 53 566 283 566C218 634 131 697 31 742L40 757C109 735 170 706 225 672L225 833 235 833C265 833 286 817 286 811L286 790 465 790 465 877C318 881 195 884 125 883L160 958C169 956 179 950 185 937 435 919 621 904 759 891 783 910 801 929 814 947 873 1002 969 859 647 809ZM649 566C669 591 694 614 722 636L706 652 528 652 528 593C548 590 555 582 557 571L511 566ZM362 566L465 566 465 652 298 652 271 641C304 617 334 592 362 566ZM713 761L528 761 528 682 713 682ZM465 761L286 761 286 682 465 682Z"/>
</svg>