<svg xmlns="http://www.w3.org/2000/svg"
    viewBox="0 0 1000 1000">
  <!--
© 2017-2024 Adobe (http://www.adobe.com/).
Noto is a trademark of Google Inc.
This Font Software is licensed under the SIL Open Font License, Version 1.1. This Font Software is distributed on an "AS IS" BASIS, WITHOUT WARRANTIES OR CONDITIONS OF ANY KIND, either express or implied. See the SIL Open Font License for the specific language, permissions and limitations governing your use of this Font Software.
http://scripts.sil.org/OFL
  -->
<path d="M370 128L377 156 498 156 498 238 510 238C537 238 560 227 560 221L560 156 730 156 730 236 742 236C774 235 791 222 791 218L791 156 932 156C946 156 955 152 958 141 928 111 883 74 883 74L843 128 791 128 791 50C814 47 822 36 824 23L730 14 730 128 560 128 560 50C582 46 591 37 592 23L498 14 498 128ZM590 206C588 242 584 277 576 311L382 311 390 341 567 341C540 418 482 488 353 554L364 573C539 506 604 426 632 341L703 341C742 447 811 517 913 554 919 525 937 506 963 501L963 490C862 470 776 419 727 341L932 341C946 341 956 336 958 325 926 294 875 254 875 254L830 311 640 311C646 288 649 265 652 242 673 240 684 228 686 217ZM518 514L518 633 370 633 378 662 517 662C513 752 476 847 336 910L347 925C528 865 572 760 578 662L720 662 720 925 732 925C756 925 782 912 782 904L782 662 929 662C943 662 953 657 955 646 926 617 877 577 877 577L834 633 782 633 782 553C807 549 816 541 818 527L720 516 720 633 579 633 579 550C604 547 611 537 613 525ZM78 196L78 591 87 591C110 591 132 578 132 572L132 533 183 533 183 734C120 749 66 761 32 767L69 844C79 841 86 833 91 821 182 785 256 752 313 723 317 745 320 768 319 788 371 843 436 719 288 590L273 595C287 625 300 663 309 702L241 720 241 533 295 533 295 572 302 572C321 572 350 558 351 551L351 233C367 230 382 222 387 216L317 162 286 196 242 196 242 56C265 52 275 43 277 29L184 18 184 196 137 196 78 168ZM295 504L238 504 238 225 295 225ZM186 504L132 504 132 225 186 225Z"/>
</svg>