<svg xmlns="http://www.w3.org/2000/svg" name="gid11738" data-unicode="蟥"
    viewBox="0 0 1000 1000">
  <!--
© 2017-2024 Adobe (http://www.adobe.com/).
Noto is a trademark of Google Inc.
This Font Software is licensed under the SIL Open Font License, Version 1.1. This Font Software is distributed on an "AS IS" BASIS, WITHOUT WARRANTIES OR CONDITIONS OF ANY KIND, either express or implied. See the SIL Open Font License for the specific language, permissions and limitations governing your use of this Font Software.
http://scripts.sil.org/OFL
  -->
<path d="M557 778C518 831 430 904 346 944L354 959C450 931 549 879 603 834 628 837 643 834 649 824ZM714 784L705 795C769 834 860 905 897 956 973 985 990 840 714 784ZM741 43L741 147 592 147 592 79C616 75 626 66 629 52L533 43 533 147 399 147 407 177 533 177 533 328 544 328C567 328 592 316 592 309L592 288 741 288 741 318 753 318C775 318 801 306 801 298L801 177 936 177C949 177 959 172 962 161 931 131 881 92 881 92L837 147 801 147 801 79C825 75 835 66 837 52ZM592 177L741 177 741 258 592 258ZM449 463L449 791 458 791C490 791 509 776 509 771L509 744 831 744 831 778 841 778C869 778 893 764 893 760L893 496C912 493 923 487 929 480L859 426 827 463 699 463 699 384 940 384C953 384 963 379 965 369 934 338 883 298 883 298L837 355 393 355 401 384 638 384 638 463 520 463 449 432ZM509 615L638 615 638 714 509 714ZM831 615L831 714 699 714 699 615ZM509 586L509 492 638 492 638 586ZM831 586L699 586 699 492 831 492ZM77 241L77 639 86 639C110 639 133 625 133 619L133 582 197 582 197 793C126 810 66 823 32 829L70 909C79 907 88 898 92 886 200 843 284 805 346 776 352 800 355 823 355 844 408 901 471 773 315 647L302 653C316 682 331 719 341 757L257 778 257 582 321 582 321 620 330 620C349 620 377 605 378 599L378 278C395 275 410 267 416 261L345 206 312 241 256 241 256 87C281 83 291 74 293 60L197 49 197 241 138 241 77 212ZM321 553L253 553 253 270 321 270ZM201 553L133 553 133 270 201 270Z"/>
</svg>