<svg xmlns="http://www.w3.org/2000/svg"
    viewBox="0 0 1000 1000">
  <!--
© 2017-2023 Adobe (http://www.adobe.com/).
Noto is a trademark of Google Inc.
This Font Software is licensed under the SIL Open Font License, Version 1.1. This Font Software is distributed on an "AS IS" BASIS, WITHOUT WARRANTIES OR CONDITIONS OF ANY KIND, either express or implied. See the SIL Open Font License for the specific language, permissions and limitations governing your use of this Font Software.
http://scripts.sil.org/OFL
  -->
<path d="M557 748C518 801 430 874 346 914L354 929C450 901 549 849 603 804 628 807 643 804 649 794ZM714 754L705 765C769 804 860 875 897 926 973 955 990 810 714 754ZM741 13L741 117 592 117 592 49C616 45 626 36 629 22L533 13 533 117 399 117 407 147 533 147 533 298 544 298C567 298 592 286 592 279L592 258 741 258 741 288 753 288C775 288 801 276 801 268L801 147 936 147C949 147 959 142 962 131 931 101 881 62 881 62L837 117 801 117 801 49C825 45 835 36 837 22ZM592 147L741 147 741 228 592 228ZM449 433L449 761 458 761C490 761 509 746 509 741L509 714 831 714 831 748 841 748C869 748 893 734 893 730L893 466C912 463 923 457 929 450L859 396 827 433 699 433 699 354 940 354C953 354 963 349 965 339 934 308 883 268 883 268L837 325 393 325 401 354 638 354 638 433 520 433 449 402ZM509 585L638 585 638 684 509 684ZM831 585L831 684 699 684 699 585ZM509 556L509 462 638 462 638 556ZM831 556L699 556 699 462 831 462ZM77 211L77 609 86 609C110 609 133 595 133 589L133 552 197 552 197 763C126 780 66 793 32 799L70 879C79 877 88 868 92 856 200 813 284 775 346 746 352 770 355 793 355 814 408 871 471 743 315 617L302 623C316 652 331 689 341 727L257 748 257 552 321 552 321 590 330 590C349 590 377 575 378 569L378 248C395 245 410 237 416 231L345 176 312 211 256 211 256 57C281 53 291 44 293 30L197 19 197 211 138 211 77 182ZM321 523L253 523 253 240 321 240ZM201 523L133 523 133 240 201 240Z"/>
</svg>