<svg xmlns="http://www.w3.org/2000/svg" name="gid11741" data-unicode="蟫"
    viewBox="0 0 1000 1000">
  <!--
© 2017-2024 Adobe (http://www.adobe.com/).
Noto is a trademark of Google Inc.
This Font Software is licensed under the SIL Open Font License, Version 1.1. This Font Software is distributed on an "AS IS" BASIS, WITHOUT WARRANTIES OR CONDITIONS OF ANY KIND, either express or implied. See the SIL Open Font License for the specific language, permissions and limitations governing your use of this Font Software.
http://scripts.sil.org/OFL
  -->
<path d="M74 247L74 619 83 619C107 619 130 605 130 600L130 559 185 559 185 783C123 792 71 799 41 802L75 881C85 878 93 871 98 859 192 829 267 803 323 782 329 810 333 837 332 861 364 893 398 866 394 813L394 814 630 814 630 959 640 959C673 959 695 944 695 940L695 814 946 814C960 814 969 809 972 798 940 768 889 728 889 728L844 784 695 784 695 693 819 693 819 721 828 721C849 721 881 706 882 699L882 497C900 493 915 485 922 477L844 418 810 456 517 456 450 426 450 732 459 732C485 732 512 718 512 712L512 693 630 693 630 784 388 784C377 746 348 700 292 654L278 659C292 688 307 725 318 763L245 774 245 559 306 559 306 603 314 603C334 603 363 588 364 582L364 284C380 281 395 273 400 267L329 212 298 247 245 247 245 80C269 77 279 67 281 53L185 43 185 247 135 247 74 218ZM425 210L425 426 434 426C456 426 482 413 482 408L482 239 563 239 563 400 571 400C600 400 619 385 620 382L620 365 707 365 707 395 715 395C745 395 764 382 764 378L764 239 852 239 852 419 861 419C880 419 909 405 910 399L910 250C928 246 944 239 951 231L875 175 842 210 764 210 764 127 938 127C952 127 961 122 964 112 932 83 882 44 882 44L837 98 386 98 394 127 563 127 563 210 487 210 425 182ZM620 127L707 127 707 210 620 210ZM620 239L707 239 707 335 620 335ZM819 485L819 560 512 560 512 485ZM512 588L819 588 819 664 512 664ZM306 529L241 529 241 276 306 276ZM189 529L130 529 130 276 189 276Z"/>
</svg>