<svg xmlns="http://www.w3.org/2000/svg" name="gid11744" data-unicode="蟯"
    viewBox="0 0 1000 1000">
  <!--
© 2017-2024 Adobe (http://www.adobe.com/).
Noto is a trademark of Google Inc.
This Font Software is licensed under the SIL Open Font License, Version 1.1. This Font Software is distributed on an "AS IS" BASIS, WITHOUT WARRANTIES OR CONDITIONS OF ANY KIND, either express or implied. See the SIL Open Font License for the specific language, permissions and limitations governing your use of this Font Software.
http://scripts.sil.org/OFL
  -->
<path d="M619 45L619 148 424 148 432 177 619 177 619 269 388 269 396 298 927 298C941 298 951 293 953 282 922 252 871 213 871 213L826 269 683 269 683 177 877 177C892 177 901 172 903 161 872 131 822 92 822 92L778 148 683 148 683 82C708 79 718 69 719 55ZM370 636L378 665 524 665C516 763 485 860 302 940L315 956C536 881 580 777 594 665L694 665 694 873C694 914 705 930 764 930L831 930C939 930 963 918 963 892 963 880 958 872 939 865L936 774 923 774C915 814 906 852 899 864 895 870 893 872 885 872 877 873 857 873 833 873L779 873C759 873 756 870 756 858L756 665 933 665C947 665 956 660 959 649 928 621 879 583 879 583L836 636ZM365 541L398 610C408 608 416 601 420 589 523 557 601 530 655 512L652 496 537 515 537 441 630 441C643 441 652 436 654 425 633 401 598 372 598 372L567 411 537 411 537 352C559 348 567 340 569 328L479 318 479 411 380 411 388 441 479 441 479 524ZM762 317L762 411 664 411 672 441 762 441 762 539 639 539 647 569 933 569C946 569 955 564 958 553 935 529 898 497 898 497L866 539 821 539 821 441 922 441C936 441 944 436 947 425 925 401 889 372 889 372L858 411 821 411 821 349C840 346 847 338 849 327ZM78 226L78 621 87 621C110 621 132 608 132 602L132 563 183 563 183 764C120 779 66 791 32 797L69 874C79 871 86 863 91 851 182 815 256 782 313 753 317 775 320 798 319 818 371 873 436 749 288 620L273 625C287 655 300 693 309 732L241 750 241 563 295 563 295 602 302 602C321 602 350 588 351 581L351 263C367 260 382 252 387 246L317 192 286 226 242 226 242 86C265 82 275 73 277 59L184 48 184 226 137 226 78 198ZM295 534L238 534 238 255 295 255ZM186 534L132 534 132 255 186 255Z"/>
</svg>