<svg xmlns="http://www.w3.org/2000/svg" name="gid11754" data-unicode="蟻"
    viewBox="0 0 1000 1000">
  <!--
© 2017-2024 Adobe (http://www.adobe.com/).
Noto is a trademark of Google Inc.
This Font Software is licensed under the SIL Open Font License, Version 1.1. This Font Software is distributed on an "AS IS" BASIS, WITHOUT WARRANTIES OR CONDITIONS OF ANY KIND, either express or implied. See the SIL Open Font License for the specific language, permissions and limitations governing your use of this Font Software.
http://scripts.sil.org/OFL
  -->
<path d="M776 471L766 479C793 501 827 539 839 568 890 601 933 506 776 471ZM480 43L469 49C496 79 526 128 532 167 595 214 655 92 480 43ZM365 402L373 432 928 432C942 432 951 427 954 416 923 386 873 348 873 348L828 402 676 402 676 318 881 318C895 318 904 313 906 303 877 275 829 239 829 239L786 290 676 290 676 210 917 210C931 210 940 205 943 194 912 166 864 128 864 128L821 181 705 181C738 152 773 117 796 89 817 90 830 82 834 70L736 41C722 82 698 140 677 181L385 181 393 210 611 210 611 290 414 290 422 318 611 318 611 402ZM857 658C837 695 813 730 787 761 772 726 761 686 753 645L937 645C950 645 960 640 962 629 932 601 883 563 883 563L840 616 748 616C741 570 738 523 737 482 756 478 765 468 766 456L675 447C677 502 682 560 690 616L562 616 562 522 614 511C635 520 650 520 659 513L594 450C545 476 448 512 371 530L376 548C416 546 460 540 502 533L502 616 366 616 373 645 502 645 502 718C445 727 397 735 369 738L399 809C409 806 417 799 421 787L502 761 502 868C502 880 498 886 484 886 467 886 390 880 390 880L390 895C427 900 446 906 458 916 468 926 473 943 474 959 551 951 562 917 562 869L562 741 661 706 658 691 562 708 562 645 695 645C706 703 722 759 746 806 696 857 640 896 584 924L593 940C654 920 715 889 771 847 797 886 831 916 874 936 911 955 951 965 963 942 970 931 962 914 943 897L954 800 942 797C935 822 923 855 914 871 908 881 903 882 891 876 860 862 835 839 815 811 847 782 876 749 900 712 920 717 929 713 936 704ZM73 240L73 634 83 634C106 634 129 621 129 615L129 575 180 575 180 788C116 803 62 814 32 819L68 897C78 893 86 886 90 873 178 837 247 805 300 782 305 808 306 835 305 858 358 915 421 788 282 652L267 657C278 686 289 723 297 761L237 775 237 575 290 575 290 615 299 615C317 615 345 601 346 595L346 276C363 273 377 266 383 259L312 205 281 240 237 240 237 80C260 77 270 67 272 54L180 44 180 240 134 240 73 211ZM290 546L234 546 234 268 290 268ZM182 546L129 546 129 268 182 268Z"/>
</svg>