<svg xmlns="http://www.w3.org/2000/svg" name="gid11765" data-unicode="蠍"
    viewBox="0 0 1000 1000">
  <!--
© 2017-2024 Adobe (http://www.adobe.com/).
Noto is a trademark of Google Inc.
This Font Software is licensed under the SIL Open Font License, Version 1.1. This Font Software is distributed on an "AS IS" BASIS, WITHOUT WARRANTIES OR CONDITIONS OF ANY KIND, either express or implied. See the SIL Open Font License for the specific language, permissions and limitations governing your use of this Font Software.
http://scripts.sil.org/OFL
  -->
<path d="M439 254L581 254 581 359 439 359ZM439 225L439 121 581 121 581 225ZM382 93L382 437 391 437C406 437 419 433 427 429 404 520 361 612 314 667L329 678C349 663 367 645 384 625L384 874 394 874C411 874 431 861 431 854L431 815 568 815C581 815 590 810 593 799 569 776 533 745 533 745L500 785 431 785 431 598C444 595 449 589 450 581L420 577C431 561 441 544 450 527L617 527C612 747 602 854 580 877 572 885 565 887 551 887 533 887 487 883 457 880L457 898C483 902 510 909 520 917 531 926 534 942 534 958 565 959 597 949 618 926 653 891 667 781 672 534 692 531 703 527 710 518L640 462 607 499 464 499C473 480 481 461 488 442 508 442 520 433 523 422L439 396 439 388 581 388 581 425 590 425C616 425 638 411 638 407L638 126C658 122 668 117 675 110L608 57 578 93 450 93 382 63ZM494 556C488 627 469 694 440 741L456 751C481 727 500 695 515 658 529 679 542 707 545 728 585 763 632 686 523 638 528 623 532 608 536 592 557 591 567 581 569 570ZM719 48C713 198 688 349 644 459L660 468C695 419 723 356 744 286L763 286C762 550 763 776 629 939L646 957C755 849 794 713 808 551 822 727 850 871 908 958 917 921 936 904 965 899L968 888C856 767 829 571 818 299L817 286 881 286C876 338 867 409 859 454L875 460C898 415 922 341 936 295 955 294 966 292 973 285L907 220 872 256 753 256C767 203 778 146 786 88 808 86 818 75 821 63ZM74 230L74 632 83 632C105 632 127 619 127 613L127 572 176 572 176 798C115 814 63 826 33 832L71 909C81 906 89 898 92 886 181 845 252 812 304 786 308 807 310 829 310 848 363 904 423 779 278 645L263 650C277 682 291 724 300 765L234 783 234 572 286 572 286 614 294 614C311 614 338 600 339 594L339 266C356 263 370 255 376 249L307 196 277 230 234 230 234 81C257 77 267 68 269 54L176 44 176 230 132 230 74 202ZM286 543L230 543 230 258 286 258ZM180 543L127 543 127 258 180 258Z"/>
</svg>