<svg xmlns="http://www.w3.org/2000/svg"
    viewBox="0 0 1000 1000">
  <!--
© 2017-2023 Adobe (http://www.adobe.com/).
Noto is a trademark of Google Inc.
This Font Software is licensed under the SIL Open Font License, Version 1.1. This Font Software is distributed on an "AS IS" BASIS, WITHOUT WARRANTIES OR CONDITIONS OF ANY KIND, either express or implied. See the SIL Open Font License for the specific language, permissions and limitations governing your use of this Font Software.
http://scripts.sil.org/OFL
  -->
<path d="M623 13L623 110 379 110 387 140 933 140C947 140 957 135 959 124 928 94 876 53 876 53L831 110 683 110 683 49C708 46 717 36 719 22ZM874 544C848 572 806 615 772 647 747 607 727 562 713 513L809 513C823 513 832 508 835 497 806 471 761 434 761 434L721 484 467 484 475 513 591 513C537 563 464 608 384 641L395 660C465 638 532 609 589 574L607 598C558 652 478 708 406 740L412 757C489 733 574 690 633 647 638 659 642 672 646 684 578 754 465 826 364 867L371 883C470 853 578 802 657 748 661 793 653 830 639 847 634 855 628 856 617 856 597 856 532 852 499 850L499 865C529 871 560 878 571 886 583 895 589 906 590 926 643 926 674 916 692 896 743 840 739 664 609 561 631 546 651 530 669 513L692 513C724 682 796 806 909 886 920 856 940 837 967 834L969 824C895 788 831 734 784 664 826 645 878 619 908 602 927 608 936 605 941 598ZM535 220L772 220 772 301 535 301ZM477 191L477 369 486 369C515 369 535 354 535 349L535 330 772 330 772 361 781 361C800 361 831 348 832 343L832 228C848 225 862 218 868 212L796 157 763 191 547 191 477 160ZM430 361C425 414 403 452 373 468 325 533 458 566 453 421L859 421 839 510 853 516C876 495 911 457 932 433 951 432 962 431 969 423L894 351 853 393 451 393 445 362ZM73 210L73 604 83 604C106 604 129 591 129 585L129 542 180 542 180 760C120 774 70 785 40 789L77 869C87 865 95 857 99 845 188 808 259 775 312 750 318 777 321 803 321 826 375 884 440 755 285 623L271 628C284 656 298 693 308 731L237 747 237 542 290 542 290 585 299 585C317 585 345 571 346 565L346 246C363 243 377 236 383 229L312 175 281 210 237 210 237 50C260 47 270 37 272 24L180 14 180 210 134 210 73 181ZM290 513L234 513 234 238 290 238ZM182 513L129 513 129 238 182 238Z"/>
</svg>