<svg xmlns="http://www.w3.org/2000/svg" name="gid11783" data-unicode="蠢"
    viewBox="0 0 1000 1000">
  <!--
© 2017-2024 Adobe (http://www.adobe.com/).
Noto is a trademark of Google Inc.
This Font Software is licensed under the SIL Open Font License, Version 1.1. This Font Software is distributed on an "AS IS" BASIS, WITHOUT WARRANTIES OR CONDITIONS OF ANY KIND, either express or implied. See the SIL Open Font License for the specific language, permissions and limitations governing your use of this Font Software.
http://scripts.sil.org/OFL
  -->
<path d="M785 146L744 194 440 194C451 178 461 162 470 146ZM444 35C435 63 424 90 411 117L113 117 122 146 396 146C388 162 378 178 368 194L145 194 153 224 348 224C336 241 323 257 310 273L50 273 58 302 284 302C214 377 128 440 31 484L40 499C128 468 206 424 274 371L274 573 248 570 248 635 169 635 107 607 107 832 115 832C138 832 164 819 164 814L164 779 248 779 248 876C159 880 84 883 42 882L76 958C85 957 95 950 100 938 231 918 329 902 402 889 412 908 420 929 422 947 480 994 536 876 363 814L352 821C364 834 378 851 390 869L306 873 306 779 396 779 396 813 405 813C424 813 452 800 453 793L453 669C468 667 482 659 487 653L419 603 388 635 306 635 306 601C323 597 330 590 332 579L285 574C314 574 335 557 335 552L335 542 666 542 666 564 675 564C696 564 726 547 727 539L727 385C784 427 849 460 916 485 924 457 941 440 966 436L967 426C870 402 769 359 690 302L931 302C945 302 954 297 957 286 924 257 874 219 874 219L828 273 653 273C636 258 620 241 606 224L833 224C847 224 857 219 859 208 830 180 785 146 785 146L872 146C886 146 895 141 898 130 866 101 814 63 814 63L769 117 486 117 506 74C533 77 541 72 545 62ZM635 302C646 315 658 327 671 339L658 352 347 352 314 337 351 302ZM611 273L378 273C392 257 406 241 418 224L579 224C588 241 599 257 611 273ZM666 460L666 513 335 513 335 460ZM666 432L335 432 335 380 666 380ZM396 750L306 750 306 664 396 664ZM164 750L164 664 248 664 248 750ZM820 814L809 823C825 835 842 852 857 870L751 874 751 782 841 782 841 813 850 813C869 813 899 800 900 793L900 670C915 667 928 660 933 654L864 602 833 635 751 635 751 601C769 597 775 589 777 578L692 569 692 635 601 635 538 607 538 828 547 828C570 828 596 816 596 811L596 782 692 782 692 876C612 879 546 881 506 880L542 958C553 956 561 949 566 937 698 918 798 904 873 891 887 911 897 931 902 950 962 991 1007 865 820 814ZM841 754L751 754 751 664 841 664ZM596 754L596 664 692 664 692 754Z"/>
</svg>