<svg xmlns="http://www.w3.org/2000/svg" name="gid11791" data-unicode="蠲"
    viewBox="0 0 1000 1000">
  <!--
© 2017-2024 Adobe (http://www.adobe.com/).
Noto is a trademark of Google Inc.
This Font Software is licensed under the SIL Open Font License, Version 1.1. This Font Software is distributed on an "AS IS" BASIS, WITHOUT WARRANTIES OR CONDITIONS OF ANY KIND, either express or implied. See the SIL Open Font License for the specific language, permissions and limitations governing your use of this Font Software.
http://scripts.sil.org/OFL
  -->
<path d="M162 272L170 301 372 301C385 301 394 296 397 285 370 259 327 226 327 226L290 272ZM168 123C146 187 96 276 36 330L47 343C122 301 184 231 219 174 241 177 250 172 255 162ZM164 638L210 638 210 829 164 835ZM37 852L73 930C83 927 92 920 96 908 281 863 417 826 517 797L514 780 448 791 448 645C465 643 480 635 486 628L445 597C452 574 474 557 498 551L500 540C434 513 379 469 354 424 381 421 404 415 414 404L337 351 310 392 207 392 216 422 329 422C345 481 376 536 421 578L417 575 385 608 176 608 125 585C161 547 191 506 211 472 235 474 243 470 248 459L157 418C136 485 88 581 32 643L43 656C67 640 89 620 110 600L110 843ZM254 638L300 638 300 815 254 822ZM345 638L394 638 394 800 345 808ZM484 98L484 244C423 216 373 174 350 128 376 126 399 119 409 109L332 56 305 97 210 97 219 126 325 126C342 196 382 260 441 305 446 285 464 269 484 262L484 341 492 341C522 341 541 327 541 322L541 295 564 295C533 377 488 453 444 501L457 511C495 487 532 452 566 412L868 412C863 703 855 842 830 869 822 878 815 880 799 880 781 880 734 876 704 873L703 891C731 896 759 903 770 912 781 923 783 939 783 957 818 957 852 946 874 920 910 877 922 739 926 419 947 416 959 411 965 403L892 343 858 383 589 383C602 366 614 347 625 328 645 331 657 323 662 312L620 295 862 295 862 326 872 326C898 326 921 313 921 309L921 129C940 126 950 121 956 115L888 62 860 98 552 98 484 67ZM541 265L541 126 614 126 614 265ZM862 265L787 265 787 126 862 126ZM663 265L663 126 737 126 737 265ZM720 713L708 720C720 734 733 752 744 771L681 783 681 671 748 671 748 703 755 703C779 703 800 690 800 686L800 551C819 548 828 543 834 535L772 488 745 518 681 518 681 465C701 462 710 454 712 442L628 433 628 518 572 518 509 491 509 717 517 717C544 717 561 705 561 700L561 671 628 671 628 793C557 806 496 817 461 821L501 891C510 888 517 881 522 869 621 837 698 810 754 789 762 806 768 822 771 837 820 876 869 779 720 713ZM561 642L561 548 628 548 628 642ZM748 642L681 642 681 548 748 548Z"/>
</svg>