<svg xmlns="http://www.w3.org/2000/svg" name="gid11800" data-unicode="衂"
    viewBox="0 0 1000 1000">
  <!--
© 2017-2024 Adobe (http://www.adobe.com/).
Noto is a trademark of Google Inc.
This Font Software is licensed under the SIL Open Font License, Version 1.1. This Font Software is distributed on an "AS IS" BASIS, WITHOUT WARRANTIES OR CONDITIONS OF ANY KIND, either express or implied. See the SIL Open Font License for the specific language, permissions and limitations governing your use of this Font Software.
http://scripts.sil.org/OFL
  -->
<path d="M835 198C829 412 818 579 802 692 742 654 695 610 658 559 689 442 695 319 698 198ZM238 57C231 109 219 182 210 229L149 229 90 200 90 793 30 802 67 890C77 887 87 878 91 866 277 810 414 762 513 727L510 712 451 724 451 444 508 494C514 488 515 479 508 470 519 447 536 406 548 374 564 431 581 483 603 532 572 678 505 819 359 941L373 958C521 856 600 735 644 606 680 664 727 715 790 760 779 810 767 842 753 855 741 868 733 870 712 870 690 870 628 864 588 860L588 879C624 885 660 895 675 906 687 916 691 935 691 955 734 956 775 941 805 906 821 886 836 851 848 798 876 814 906 829 940 844 947 813 961 791 981 785L983 775C938 760 898 744 862 725 880 608 892 437 898 208 920 204 933 199 941 191L864 124 824 170 475 170 484 198 632 198C630 292 628 389 612 485 590 443 573 397 558 347L581 308 543 299 538 343C516 372 476 415 451 438L451 269C471 265 488 257 495 250L423 192 388 229 243 229C262 190 288 137 304 98 324 97 336 88 340 74ZM398 258L398 734 346 745 346 258ZM195 258L195 774 144 783 144 258ZM245 258L297 258 297 754 245 764Z"/>
</svg>