<svg xmlns="http://www.w3.org/2000/svg"
    viewBox="0 0 1000 1000">
  <!--
© 2017-2023 Adobe (http://www.adobe.com/).
Noto is a trademark of Google Inc.
This Font Software is licensed under the SIL Open Font License, Version 1.1. This Font Software is distributed on an "AS IS" BASIS, WITHOUT WARRANTIES OR CONDITIONS OF ANY KIND, either express or implied. See the SIL Open Font License for the specific language, permissions and limitations governing your use of this Font Software.
http://scripts.sil.org/OFL
  -->
<path d="M207 13C173 83 103 188 37 258L49 270C131 214 214 128 260 69 283 74 292 70 298 60ZM694 105L702 135 929 135C942 135 952 130 955 119 922 89 871 49 871 49L825 105ZM218 215C183 313 107 459 28 556L39 568C76 537 110 502 142 465L142 928 153 928C177 928 203 913 204 907L204 433C222 430 231 424 235 416L193 400C226 355 253 311 274 274 298 278 307 272 312 262ZM620 14C547 49 404 96 290 120L294 138C348 134 405 126 460 118L460 199 278 199 286 228 460 228 460 304 371 304 310 276 310 606 318 606C342 606 366 593 366 587L366 565 460 565 460 660 297 660 305 689 460 689 460 780C380 790 313 798 274 801L312 886C321 883 330 877 336 864 502 823 625 789 714 762L711 745 520 772 520 689 687 689C700 689 710 684 712 674 682 646 635 611 635 611L595 660 520 660 520 565 619 565 619 591 627 591C646 591 674 577 675 571L675 340C688 338 699 333 704 327L707 338 806 338 806 827C806 841 801 846 784 846 763 846 669 839 669 839L669 855C712 860 736 868 750 879 762 889 768 907 769 926 856 917 868 879 868 829L868 338 946 338C960 338 968 333 971 322 939 292 889 252 889 252L844 308 699 308 701 317 641 271 611 304 520 304 520 228 713 228C727 228 736 223 739 212 707 183 658 145 658 145L615 199 520 199 520 107C567 99 610 89 645 80 668 88 685 88 695 79ZM366 450L460 450 460 537 366 537ZM366 421L366 333 460 333 460 421ZM619 333L619 421 520 421 520 333ZM619 450L619 537 520 537 520 450Z"/>
</svg>