<svg xmlns="http://www.w3.org/2000/svg" name="gid11854" data-unicode="袗"
    viewBox="0 0 1000 1000">
  <!--
© 2017-2024 Adobe (http://www.adobe.com/).
Noto is a trademark of Google Inc.
This Font Software is licensed under the SIL Open Font License, Version 1.1. This Font Software is distributed on an "AS IS" BASIS, WITHOUT WARRANTIES OR CONDITIONS OF ANY KIND, either express or implied. See the SIL Open Font License for the specific language, permissions and limitations governing your use of this Font Software.
http://scripts.sil.org/OFL
  -->
<path d="M709 307C659 389 552 493 445 554L455 568C578 519 696 434 758 362 780 368 788 363 795 353ZM791 470C721 567 575 673 427 730L436 745C601 703 756 612 836 526 858 533 867 529 874 519ZM869 635C739 796 578 871 382 923L387 942C599 905 767 840 913 690 936 696 946 693 953 682ZM365 391C344 432 319 468 300 494L260 476 260 457C311 394 352 328 382 265 405 264 416 261 424 253L352 188 309 230 261 230 261 81C286 77 296 67 298 53L197 43 197 230 47 230 56 258 308 258C255 390 148 538 34 634L45 648C101 613 152 572 197 526L197 957 207 957C238 957 260 941 260 935L260 497C297 535 341 590 358 630 410 664 449 579 321 505 347 490 375 469 398 447 416 453 431 447 437 439L396 412C518 338 627 221 682 99 731 222 823 331 924 404 931 376 946 349 973 338L975 325C865 276 759 186 696 88 720 85 729 80 732 70L615 44C581 162 487 316 387 398L394 410Z"/>
</svg>