<svg xmlns="http://www.w3.org/2000/svg"
    viewBox="0 0 1000 1000">
  <!--
© 2017-2024 Adobe (http://www.adobe.com/).
Noto is a trademark of Google Inc.
This Font Software is licensed under the SIL Open Font License, Version 1.1. This Font Software is distributed on an "AS IS" BASIS, WITHOUT WARRANTIES OR CONDITIONS OF ANY KIND, either express or implied. See the SIL Open Font License for the specific language, permissions and limitations governing your use of this Font Software.
http://scripts.sil.org/OFL
  -->
<path d="M535 12C505 151 448 281 384 364L398 375C448 333 493 278 532 213L934 213C948 213 958 208 961 197 927 165 874 123 874 123L825 183 549 183C568 146 586 105 601 63 622 63 634 54 638 42ZM355 364C332 403 307 442 287 470L247 453 247 438C296 373 334 303 361 236 383 234 394 232 402 224L333 161 291 201 246 201 246 48C271 45 281 35 283 21L184 11 184 201 42 201 51 229 292 229C243 369 142 526 25 627L37 641C92 604 142 560 186 512L186 927 196 927C226 927 247 912 247 906L247 474C287 513 333 569 347 614 402 652 443 556 308 481 330 461 358 436 381 413 401 418 414 411 419 402ZM493 314L493 482 387 518 406 543 493 514 493 832C493 890 515 907 605 907L738 907C926 907 964 897 964 866 964 853 957 847 932 839L929 734 917 734C906 782 894 824 887 836 881 843 875 846 862 847 844 849 799 850 740 850L612 850C562 850 554 843 554 819L554 493 668 455 668 776 680 776C702 776 728 763 728 755L728 435 853 392C851 558 846 622 833 637 828 642 822 644 810 644 796 644 768 642 749 640L749 658C766 661 782 667 790 674 800 683 802 700 802 716 829 716 855 708 873 691 902 664 910 598 911 401 930 398 942 393 948 386L878 329 845 363 728 403 728 275C753 272 762 262 764 248L668 237 668 423 554 461 554 350C576 348 585 338 587 325Z"/>
</svg>