<svg xmlns="http://www.w3.org/2000/svg" name="gid11862" data-unicode="袠"
    viewBox="0 0 1000 1000">
  <!--
© 2017-2024 Adobe (http://www.adobe.com/).
Noto is a trademark of Google Inc.
This Font Software is licensed under the SIL Open Font License, Version 1.1. This Font Software is distributed on an "AS IS" BASIS, WITHOUT WARRANTIES OR CONDITIONS OF ANY KIND, either express or implied. See the SIL Open Font License for the specific language, permissions and limitations governing your use of this Font Software.
http://scripts.sil.org/OFL
  -->
<path d="M49 134L57 164 930 164C944 164 954 159 957 148 922 116 867 74 867 74L818 134 531 134 531 77C556 74 565 64 568 51L466 41 466 134ZM529 603C558 605 573 600 576 589L474 555C388 641 217 739 32 791L38 807C134 789 225 761 305 727L305 858C244 866 194 873 161 876L210 956C219 953 228 946 233 933 404 890 526 856 610 830L608 813 370 848 370 698C422 672 469 645 509 617 579 787 718 891 902 950 911 918 932 898 960 893L961 883C844 858 735 814 650 749 711 730 774 703 812 679 833 684 841 681 848 672L767 620C738 652 681 699 630 733 587 697 552 654 526 605ZM277 170C238 261 179 345 124 392L137 405C180 382 224 349 263 308L456 308C452 342 446 375 433 405L56 405 65 435 419 435C372 518 273 585 60 638L69 655C330 601 440 527 489 435L539 435C572 519 653 598 889 640 894 603 915 592 951 586L952 574C712 549 607 499 562 435L920 435C934 435 943 430 946 419 912 387 857 346 857 346L810 405 502 405C514 374 520 342 524 308L818 308C831 308 841 303 844 292 810 262 756 221 756 221L709 279 526 279 530 209C552 206 561 197 563 184L462 175C461 212 461 246 459 279L289 279C303 263 315 245 327 227 349 231 362 223 367 213Z"/>
</svg>