<svg xmlns="http://www.w3.org/2000/svg" name="gid11863" data-unicode="袢"
    viewBox="0 0 1000 1000">
  <!--
© 2017-2024 Adobe (http://www.adobe.com/).
Noto is a trademark of Google Inc.
This Font Software is licensed under the SIL Open Font License, Version 1.1. This Font Software is distributed on an "AS IS" BASIS, WITHOUT WARRANTIES OR CONDITIONS OF ANY KIND, either express or implied. See the SIL Open Font License for the specific language, permissions and limitations governing your use of this Font Software.
http://scripts.sil.org/OFL
  -->
<path d="M763 111L752 119C804 163 870 237 888 296 959 341 1001 194 763 111ZM518 108C492 194 448 275 404 325L417 337C478 299 535 236 576 161 596 163 609 155 613 144ZM639 44L639 384 447 384 455 414 639 414 639 611 413 611 421 640 639 640 639 956 652 956C677 956 704 941 704 932L704 640 945 640C959 640 968 635 971 624 940 595 890 557 890 557L847 611 704 611 704 414 907 414C921 414 931 409 933 398 904 371 858 335 858 335L819 384 704 384 704 83C729 79 737 69 739 55ZM362 376C339 420 312 462 292 491L250 475 250 459C300 396 340 329 368 265 391 264 402 261 409 253L337 188 293 230 250 230 250 81C275 77 285 67 287 53L186 43 186 230 41 230 50 258 293 258C243 390 141 539 29 636L40 649C95 615 144 574 188 529L188 959 198 959C229 959 250 944 250 937L250 494C289 533 336 588 353 629 409 664 450 573 314 502 340 482 371 456 395 431 415 436 429 429 434 420Z"/>
</svg>