<svg xmlns="http://www.w3.org/2000/svg" name="gid11877" data-unicode="袾"
    viewBox="0 0 1000 1000">
  <!--
© 2017-2024 Adobe (http://www.adobe.com/).
Noto is a trademark of Google Inc.
This Font Software is licensed under the SIL Open Font License, Version 1.1. This Font Software is distributed on an "AS IS" BASIS, WITHOUT WARRANTIES OR CONDITIONS OF ANY KIND, either express or implied. See the SIL Open Font License for the specific language, permissions and limitations governing your use of this Font Software.
http://scripts.sil.org/OFL
  -->
<path d="M625 44L625 244 507 244C520 208 532 171 542 133 564 132 574 123 577 111L476 89C462 205 432 327 396 411L412 419C444 380 472 329 495 273L625 273 625 479 376 479 384 509 578 509C525 646 434 780 318 875L331 890C458 807 559 699 625 572L625 957 638 957C662 957 690 941 690 931L690 541C734 675 810 804 902 886 908 856 930 835 961 824L964 813C863 749 756 634 706 509L933 509C948 509 957 504 960 493 927 462 875 420 875 420L829 479 690 479 690 273 899 273C912 273 923 268 926 257 894 227 842 185 842 185L796 244 690 244 690 83C715 79 723 69 726 55ZM358 414C335 451 312 489 293 516 278 510 261 504 243 498L243 487C296 418 337 344 365 274 387 273 398 271 406 262L337 200 295 239 243 239 243 78C268 75 278 65 280 51L181 41 181 239 42 239 51 268 295 268C247 406 146 562 32 664L43 677C94 643 141 602 182 558L182 957 192 957C222 957 243 941 243 935L243 516C284 551 331 605 345 647 399 684 439 593 315 527 337 508 363 484 384 462 403 467 416 460 422 451Z"/>
</svg>