<svg xmlns="http://www.w3.org/2000/svg"
    viewBox="0 0 1000 1000">
  <!--
© 2017-2023 Adobe (http://www.adobe.com/).
Noto is a trademark of Google Inc.
This Font Software is licensed under the SIL Open Font License, Version 1.1. This Font Software is distributed on an "AS IS" BASIS, WITHOUT WARRANTIES OR CONDITIONS OF ANY KIND, either express or implied. See the SIL Open Font License for the specific language, permissions and limitations governing your use of this Font Software.
http://scripts.sil.org/OFL
  -->
<path d="M719 59L709 69C758 98 818 155 835 202 906 240 942 97 719 59ZM94 827L150 897C159 892 165 885 168 873 277 823 355 784 409 755L404 741 249 786 249 598C281 571 309 541 332 509L547 509C560 509 570 504 572 493 542 464 493 426 493 426L450 479 334 479 334 394C355 391 364 382 366 369L270 360 270 479 45 479 53 509 254 509C202 584 125 654 37 705L48 722C97 700 144 675 187 646L187 803ZM475 526C454 555 418 603 389 637 364 626 335 615 302 605L292 614C359 659 453 739 486 799 548 829 572 729 411 647 448 627 493 601 518 583 538 589 546 586 551 578ZM276 13L276 147 93 147 101 176 276 176 276 310 42 310 51 339 591 339C605 472 632 590 677 687 611 777 524 855 415 910L425 924C539 879 630 812 701 735 736 795 779 845 833 884 878 918 935 946 958 914 966 903 963 888 934 851L950 700 938 698C926 739 908 788 895 812 887 832 881 833 865 818 816 785 777 738 746 682 803 608 843 528 871 450 897 451 906 445 910 433L812 403C792 478 762 553 719 624 686 542 666 444 656 339L932 339C945 339 956 334 959 323 924 292 869 250 869 250L820 310 653 310C646 227 644 141 645 53 669 49 678 37 680 25L575 13C575 117 579 217 588 310L340 310 340 176 523 176C536 176 546 171 549 160 519 131 470 92 470 92L427 147 340 147 340 50C365 47 375 37 376 23Z"/>
</svg>