<svg xmlns="http://www.w3.org/2000/svg"
    viewBox="0 0 1000 1000">
  <!--
© 2017-2024 Adobe (http://www.adobe.com/).
Noto is a trademark of Google Inc.
This Font Software is licensed under the SIL Open Font License, Version 1.1. This Font Software is distributed on an "AS IS" BASIS, WITHOUT WARRANTIES OR CONDITIONS OF ANY KIND, either express or implied. See the SIL Open Font License for the specific language, permissions and limitations governing your use of this Font Software.
http://scripts.sil.org/OFL
  -->
<path d="M464 15L464 123 51 123 60 152 419 152C324 228 187 294 40 338L47 355C144 335 238 307 322 271L322 362C260 371 209 378 176 381L220 454C228 451 237 444 242 432 409 393 530 360 617 336L614 319 385 353 385 242C434 216 479 188 516 156 589 313 720 406 911 447 917 417 938 397 964 391L965 380C855 367 756 335 676 285 728 262 782 233 816 212 837 218 845 215 852 206L773 155C746 186 696 232 651 269 605 237 567 197 538 152L921 152C935 152 945 148 948 137 911 104 854 61 854 61L803 123 529 123 529 52C554 48 564 38 566 24ZM136 474L136 930 146 930C174 930 200 914 200 907L200 503 379 503C361 580 315 625 213 660L218 677C265 667 305 655 339 637 393 609 429 567 446 503L548 503 548 550C548 618 553 623 618 623L697 623C758 623 773 614 773 592 773 582 770 580 748 573L744 523 735 523C726 552 719 569 715 572 710 576 704 576 698 576L624 576C608 576 608 575 608 550L608 503 793 503 793 833C793 847 788 852 772 852 752 852 671 846 671 846L671 862C708 866 730 875 743 885 754 895 758 913 761 932 847 923 857 891 857 840L857 516C878 513 895 503 901 496L816 434 783 474 207 474 136 441ZM338 665L338 878 347 878C372 878 397 864 397 859L397 824 594 824 594 863 604 863C623 863 653 850 654 843L654 699C669 697 681 690 686 685L618 632 586 665 402 665 339 637ZM594 694L594 795 397 795 397 694Z"/>
</svg>