<svg xmlns="http://www.w3.org/2000/svg" name="gid11919" data-unicode="製"
    viewBox="0 0 1000 1000">
  <!--
© 2017-2024 Adobe (http://www.adobe.com/).
Noto is a trademark of Google Inc.
This Font Software is licensed under the SIL Open Font License, Version 1.1. This Font Software is distributed on an "AS IS" BASIS, WITHOUT WARRANTIES OR CONDITIONS OF ANY KIND, either express or implied. See the SIL Open Font License for the specific language, permissions and limitations governing your use of this Font Software.
http://scripts.sil.org/OFL
  -->
<path d="M631 87L631 437 643 437C666 437 692 424 692 416L692 124C716 120 726 111 728 98ZM823 51L823 469C823 484 818 490 803 490 782 490 685 482 685 482L685 498C729 504 751 509 766 519 779 529 784 544 787 561 876 553 886 523 886 473L886 88C908 84 918 76 921 62ZM153 45C137 114 110 183 81 225L96 236C122 217 146 191 167 162L288 162 288 241 50 241 58 270 288 270 288 341 176 341 112 312 112 526 121 526C144 526 171 513 171 508L171 370 288 370 288 563 299 563C322 563 348 549 348 540L348 370 470 370 470 440C470 450 468 456 453 456 436 456 383 452 383 452L383 468C412 471 427 477 436 483 445 490 448 502 449 514 519 508 529 485 529 442L529 382C549 379 567 370 572 363L492 304 460 341 348 341 348 270 563 270C576 270 586 265 588 254 559 227 511 189 511 189L470 241 348 241 348 162 527 162C541 162 550 157 553 146 521 117 475 80 475 80L433 132 348 132 348 79C373 76 381 66 383 52L288 42 288 132 187 132C195 120 202 107 208 94 229 95 240 87 243 75ZM771 637C746 671 697 722 651 758 603 724 562 683 533 635L923 635C937 635 947 630 950 619 917 589 865 550 865 550L819 605 540 605 540 560C562 556 571 547 572 534L474 524 474 605 52 605 61 635 404 635C310 707 176 770 34 810L41 827C135 809 225 783 306 750L306 862C244 871 192 877 157 880L194 962C204 959 213 952 218 940 391 900 520 862 619 830L617 814C532 828 446 842 370 853L370 721C422 696 469 667 508 635 581 797 722 898 904 955 913 922 933 902 962 897L962 887C856 865 755 828 673 774 728 752 784 722 819 698 840 704 848 701 855 691Z"/>
</svg>