<svg xmlns="http://www.w3.org/2000/svg" name="gid11939" data-unicode="褜"
    viewBox="0 0 1000 1000">
  <!--
© 2017-2024 Adobe (http://www.adobe.com/).
Noto is a trademark of Google Inc.
This Font Software is licensed under the SIL Open Font License, Version 1.1. This Font Software is distributed on an "AS IS" BASIS, WITHOUT WARRANTIES OR CONDITIONS OF ANY KIND, either express or implied. See the SIL Open Font License for the specific language, permissions and limitations governing your use of this Font Software.
http://scripts.sil.org/OFL
  -->
<path d="M687 231L687 312 567 312 567 231ZM680 201L578 201 537 183 562 139 828 139C823 277 816 344 802 361 798 365 794 367 786 367L730 364C738 361 744 357 744 354L744 235C758 233 770 226 775 220L710 171ZM790 638C760 672 702 723 650 759 602 724 561 682 531 633L928 633C942 633 952 628 955 617 922 586 869 545 869 545L822 603 531 603 531 548C552 544 561 537 563 526 575 527 589 528 607 528L732 528C905 528 936 518 936 490 936 478 930 472 907 466L904 388 893 388C884 423 875 455 867 465 863 471 857 473 846 473 830 474 788 475 734 475L614 475C572 475 567 471 567 456L567 341 687 341 687 374 696 374C701 374 708 373 714 371L714 379C736 383 759 390 767 399 777 407 782 423 782 436 805 435 827 429 843 414 875 385 883 310 889 146 907 143 919 138 926 131L853 73 820 110 575 110 584 90C606 92 617 83 621 72L527 42C503 140 461 237 416 299L431 309C459 286 486 257 510 224L510 467C510 495 515 511 536 519L466 512 466 603 41 603 50 633 401 633C308 708 173 773 28 815L36 831C127 813 215 787 294 755L294 860C233 867 183 872 149 874L197 957C206 954 215 948 220 935 400 896 527 864 615 839L613 823 358 853 358 726C414 699 463 668 505 633L507 633C579 798 718 896 902 952 911 920 932 898 961 893L961 883C853 862 753 826 671 773 732 752 796 723 836 699 857 705 866 702 872 692ZM196 118L343 118 343 210 196 210ZM135 89L135 258C135 365 127 470 44 554L56 567C141 514 175 442 188 369L343 369 343 477C343 491 338 497 322 497 302 497 220 491 220 491L220 506C258 510 280 518 292 526 304 535 308 549 310 566 393 558 404 529 404 483L404 130C424 127 441 118 447 111L364 49 333 89 208 89 135 56ZM196 240L343 240 343 340 192 340C195 312 196 284 196 257Z"/>
</svg>