<svg xmlns="http://www.w3.org/2000/svg" name="gid11947" data-unicode="褪"
    viewBox="0 0 1000 1000">
  <!--
© 2017-2024 Adobe (http://www.adobe.com/).
Noto is a trademark of Google Inc.
This Font Software is licensed under the SIL Open Font License, Version 1.1. This Font Software is distributed on an "AS IS" BASIS, WITHOUT WARRANTIES OR CONDITIONS OF ANY KIND, either express or implied. See the SIL Open Font License for the specific language, permissions and limitations governing your use of this Font Software.
http://scripts.sil.org/OFL
  -->
<path d="M382 66L372 74C409 105 454 158 469 200 533 238 574 110 382 66ZM383 262L373 270C408 298 451 346 465 385 529 422 571 298 383 262ZM897 456C874 487 832 535 801 566 773 546 741 525 703 504L691 512C726 545 769 590 808 636L655 695 655 421 846 421 846 468 855 468C875 468 905 453 906 447L906 154C926 150 943 142 950 134L871 74 836 113 660 113 596 82 596 717 533 739 579 807C588 802 594 793 596 782 692 728 766 682 819 649 856 693 888 738 903 774 962 813 991 712 817 578 854 559 902 532 929 516 947 522 956 521 961 514ZM493 763L493 533C519 529 534 521 541 514L458 445 422 494 334 494 340 523 435 523 435 787C391 820 344 852 313 870L360 943C368 938 371 931 369 919 400 887 449 828 482 784 525 899 586 921 709 921 783 921 866 921 933 921 936 895 949 876 972 872L972 858C893 860 790 860 710 860 596 860 542 847 493 763ZM655 282L846 282 846 392 655 392ZM655 253L655 142 846 142 846 253ZM325 379C304 421 279 461 257 488L226 473 226 466C273 400 310 330 336 264 359 263 369 260 376 252L308 190 267 229 224 229 224 80C248 77 258 67 260 53L163 43 163 229 41 229 50 258 268 258C225 390 134 540 29 639L41 652C88 619 130 581 167 539L167 959 176 959C205 959 226 944 226 939L226 497C262 535 301 590 312 633 365 670 407 577 277 499 304 481 331 456 354 432 372 438 386 433 392 423Z"/>
</svg>