<svg xmlns="http://www.w3.org/2000/svg" name="gid11960" data-unicode="襀"
    viewBox="0 0 1000 1000">
  <!--
© 2017-2024 Adobe (http://www.adobe.com/).
Noto is a trademark of Google Inc.
This Font Software is licensed under the SIL Open Font License, Version 1.1. This Font Software is distributed on an "AS IS" BASIS, WITHOUT WARRANTIES OR CONDITIONS OF ANY KIND, either express or implied. See the SIL Open Font License for the specific language, permissions and limitations governing your use of this Font Software.
http://scripts.sil.org/OFL
  -->
<path d="M717 816L712 832C795 864 852 906 882 944 944 1000 1056 862 717 816ZM578 796C532 842 435 907 349 942L356 958C453 936 558 893 618 855 642 861 657 859 664 849ZM360 410C338 447 314 486 294 514 280 508 265 503 247 498L247 480C300 413 342 341 371 272 393 271 404 268 412 260L342 196 299 236 248 236 248 78C273 75 283 65 285 51L184 41 184 236 42 236 51 265 299 265C249 402 146 556 30 656L41 669C94 635 142 595 185 551L185 957 195 957C226 957 247 942 247 935L247 515C288 549 336 603 351 646 406 682 446 590 318 525 341 506 367 483 389 460 408 465 422 458 427 449ZM639 42L639 141 410 141 418 170 639 170 639 244 446 244 454 273 639 273 639 348 391 348 399 378 947 378C961 378 969 373 972 362 942 333 890 294 890 294L846 348 705 348 705 273 891 273C904 273 913 268 916 257 887 230 841 194 841 194L801 244 705 244 705 170 921 170C935 170 945 165 948 154 916 124 865 85 865 85L819 141 705 141 705 78C728 74 736 65 738 52ZM822 474L822 547 524 547 524 474ZM460 444L460 826 471 826C498 826 524 811 524 804L524 785 822 785 822 813 832 813C853 813 886 799 887 792L887 481C902 478 915 471 920 464L848 409 815 444 529 444 460 414ZM524 576L822 576 822 650 524 650ZM524 680L822 680 822 756 524 756Z"/>
</svg>