<svg xmlns="http://www.w3.org/2000/svg" name="gid11961" data-unicode="襁"
    viewBox="0 0 1000 1000">
  <!--
© 2017-2024 Adobe (http://www.adobe.com/).
Noto is a trademark of Google Inc.
This Font Software is licensed under the SIL Open Font License, Version 1.1. This Font Software is distributed on an "AS IS" BASIS, WITHOUT WARRANTIES OR CONDITIONS OF ANY KIND, either express or implied. See the SIL Open Font License for the specific language, permissions and limitations governing your use of this Font Software.
http://scripts.sil.org/OFL
  -->
<path d="M287 397C266 436 244 476 226 504L213 497 213 468C257 402 291 332 313 266 336 265 347 263 355 254L284 190 242 231 207 231 207 80C231 77 241 67 243 53L147 43 147 231 39 231 48 260 244 260C206 391 124 541 28 641L40 654C83 622 121 585 155 545L155 958 163 958C192 958 213 942 213 937L213 525C243 559 275 605 286 640 313 659 338 641 333 609 364 614 377 613 392 603L397 555 491 555C485 744 472 847 449 868 441 876 434 878 418 878 399 878 345 873 311 870L310 888C340 892 371 900 383 909 396 919 399 935 399 953 434 953 467 943 490 921 526 886 543 778 549 563 569 560 581 555 588 547L516 488 482 526 400 526C406 468 411 404 414 360L494 360 494 409 503 409C522 409 552 395 553 389L553 144C573 140 588 132 595 124L518 66 484 104 328 104 337 133 494 133 494 331 429 331 362 300C360 336 356 386 351 438ZM729 325L729 440 655 440 597 412 597 715 605 715C628 715 650 703 650 698L650 655 730 655 730 839C656 852 594 862 559 866L592 942C602 939 611 931 615 919 728 883 816 852 881 829 900 866 914 905 917 938 974 989 1027 853 836 733L823 740C839 760 857 786 872 813L784 829 784 655 871 655 871 704 879 704C896 704 925 689 926 683L926 474C941 471 954 464 959 458L893 408 863 440 786 440 786 362C810 359 821 349 823 335ZM650 626L650 468 732 468 732 626ZM871 626L782 626 782 468 871 468ZM332 604C326 579 301 545 246 514 268 496 293 471 315 450 331 454 344 450 350 442 345 497 338 556 332 604ZM809 150L796 157C819 182 845 216 866 251L690 267C722 214 752 151 776 92 796 92 807 83 811 72L718 45C702 121 679 206 655 270L565 276 600 354C609 352 618 346 623 333 733 307 817 285 876 268 890 294 901 320 906 342 965 390 1013 258 809 150Z"/>
</svg>