<svg xmlns="http://www.w3.org/2000/svg"
    viewBox="0 0 1000 1000">
  <!--
© 2017-2023 Adobe (http://www.adobe.com/).
Noto is a trademark of Google Inc.
This Font Software is licensed under the SIL Open Font License, Version 1.1. This Font Software is distributed on an "AS IS" BASIS, WITHOUT WARRANTIES OR CONDITIONS OF ANY KIND, either express or implied. See the SIL Open Font License for the specific language, permissions and limitations governing your use of this Font Software.
http://scripts.sil.org/OFL
  -->
<path d="M49 103L57 132 927 132C941 132 950 127 953 116 920 84 866 42 866 42L818 103 531 103 531 46C556 42 565 33 568 20L466 9 466 103ZM455 189L455 363 465 363C490 363 518 349 518 344L518 335 617 335 617 391 381 391 389 420 573 420C514 482 430 537 337 576L347 594C450 562 545 517 617 459L617 605 626 605C658 605 679 589 679 584L679 459C772 496 842 550 870 586 936 614 962 475 679 441L679 420 925 420C939 420 948 416 951 405 921 378 874 345 874 345L832 391 679 391 679 335 777 335 777 350 787 350C808 350 839 337 840 330L840 227C857 224 872 216 878 210L802 153 768 189 523 189 455 159ZM679 305L518 305 518 219 777 219 777 305ZM325 147C300 162 256 185 211 205L123 176 123 616 131 616C168 616 184 603 186 598L186 525 371 525C384 525 393 520 396 509 369 482 325 448 325 448L287 496 186 496 186 377 362 377C375 377 384 372 387 361 361 335 317 300 317 300L280 348 186 348 186 240C251 231 319 216 359 206 371 211 382 212 388 205ZM550 609C578 611 593 606 597 596L492 562C403 645 227 736 34 785L41 801C138 785 231 759 313 728L313 831C249 841 196 848 162 851L212 931C221 928 229 921 234 909 404 866 523 831 607 805L604 788 377 822 377 702C435 677 487 649 531 621 596 779 724 869 901 920 909 888 929 868 957 863L957 852C838 831 731 792 651 730 722 709 799 677 844 649 865 655 874 651 881 642L795 590C758 626 691 678 631 714 597 684 569 650 548 610Z"/>
</svg>