<svg xmlns="http://www.w3.org/2000/svg" name="gid11969" data-unicode="襍"
    viewBox="0 0 1000 1000">
  <!--
© 2017-2024 Adobe (http://www.adobe.com/).
Noto is a trademark of Google Inc.
This Font Software is licensed under the SIL Open Font License, Version 1.1. This Font Software is distributed on an "AS IS" BASIS, WITHOUT WARRANTIES OR CONDITIONS OF ANY KIND, either express or implied. See the SIL Open Font License for the specific language, permissions and limitations governing your use of this Font Software.
http://scripts.sil.org/OFL
  -->
<path d="M683 53C671 93 653 149 640 188L512 188 506 186C522 157 537 127 550 96 571 98 582 89 587 79L493 47C460 172 398 285 331 356L346 368C379 344 411 314 440 280L440 593 449 593C479 593 500 577 500 572L500 537 923 537C937 537 947 532 950 521 919 495 873 462 873 462L831 508 711 508 711 431 899 431C911 431 920 426 923 415 897 388 852 354 852 354L815 401 711 401 711 323 901 323C914 323 924 318 927 308 900 281 856 246 856 246L818 294 711 294 711 217 919 217C933 217 944 212 946 201 914 175 865 139 865 139L822 188 674 188C696 160 724 124 744 98 765 99 778 92 782 78ZM500 217L648 217 648 294 500 294ZM500 323L648 323 648 401 500 401ZM500 431L648 431 648 508 500 508ZM695 638L693 638 693 578C710 575 717 567 719 556L630 546 630 638 378 638 386 667 588 667C530 758 441 840 335 900L345 915C461 867 560 800 630 717L630 957 642 957C666 957 693 943 693 936L693 675C744 782 826 863 917 913 925 881 946 861 972 857L973 846C879 815 775 749 714 667L944 667C957 667 966 662 969 651 937 622 888 582 888 582L842 638ZM324 380C301 421 276 461 255 490L229 479 229 460C276 396 314 329 340 265 363 264 374 262 380 253L310 190 268 230 225 230 225 80C249 77 259 67 261 53L163 43 163 230 42 230 51 259 269 259C223 388 130 538 31 636L43 649C89 616 130 577 168 535L168 957 177 957C207 957 229 941 229 935L229 503C263 537 300 585 311 624 365 659 404 569 276 500 301 480 328 454 352 431 371 436 385 429 390 420Z"/>
</svg>