<svg xmlns="http://www.w3.org/2000/svg"
    viewBox="0 0 1000 1000">
  <!--
© 2017-2023 Adobe (http://www.adobe.com/).
Noto is a trademark of Google Inc.
This Font Software is licensed under the SIL Open Font License, Version 1.1. This Font Software is distributed on an "AS IS" BASIS, WITHOUT WARRANTIES OR CONDITIONS OF ANY KIND, either express or implied. See the SIL Open Font License for the specific language, permissions and limitations governing your use of this Font Software.
http://scripts.sil.org/OFL
  -->
<path d="M727 439L718 449C749 465 784 497 797 525 852 555 885 447 727 439ZM705 16L705 110 580 110 580 52C605 48 615 39 618 24L520 15 520 110 345 110 353 140 520 140 520 220 531 220C555 220 580 208 580 202L580 140 705 140 705 217 716 217C740 217 766 205 766 198L766 140 939 140C953 140 962 135 964 124 936 96 890 60 890 60L848 110 766 110 766 53C791 49 800 39 803 25ZM545 267L545 384 456 384 456 267ZM599 267L694 267 694 384 599 384ZM398 237L398 470 407 470C438 470 456 456 456 451L456 414 845 414 845 460 854 460C882 460 904 446 904 442L904 270C924 267 934 262 940 254L872 203 842 237 468 237 398 208ZM750 267L845 267 845 384 750 384ZM564 760C632 797 667 665 462 638L462 614 462 568 642 568C654 642 676 709 712 766 653 826 576 877 486 910L493 926C591 902 675 860 742 807 772 844 811 876 858 901 896 923 944 938 959 912 965 900 963 891 938 867L948 759 934 757C926 789 914 825 905 842 899 856 893 856 879 848 840 828 808 802 783 771 823 732 855 690 878 647 902 650 910 645 915 634L824 599C807 642 782 684 751 723 724 676 708 623 699 568L933 568C946 568 956 563 959 552 931 525 886 489 886 489L847 540 695 540C692 514 690 487 689 461 709 458 716 447 718 436L629 427C630 466 633 504 638 540L474 540 402 507 402 615C402 710 392 820 305 914L317 927C431 849 456 738 461 653 501 679 547 723 564 760ZM326 347C305 388 279 429 258 457L224 442 224 432C270 368 306 300 332 235 355 234 365 232 373 223L304 161 263 200 221 200 221 50C244 46 255 36 257 22L161 13 161 200 42 200 51 229 264 229C219 361 127 511 24 610L36 624C84 590 127 550 165 507L165 928 174 928C203 928 224 913 224 907L224 464C258 500 296 551 307 591 359 627 400 540 279 469 304 449 332 424 355 400 374 406 387 400 393 391Z"/>
</svg>