<svg xmlns="http://www.w3.org/2000/svg"
    viewBox="0 0 1000 1000">
  <!--
© 2017-2024 Adobe (http://www.adobe.com/).
Noto is a trademark of Google Inc.
This Font Software is licensed under the SIL Open Font License, Version 1.1. This Font Software is distributed on an "AS IS" BASIS, WITHOUT WARRANTIES OR CONDITIONS OF ANY KIND, either express or implied. See the SIL Open Font License for the specific language, permissions and limitations governing your use of this Font Software.
http://scripts.sil.org/OFL
  -->
<path d="M201 24L189 33C230 68 274 130 280 181 344 230 400 89 201 24ZM423 10L411 15C438 56 467 120 469 172 528 228 597 97 423 10ZM309 463L690 463 690 547 309 547ZM309 433L309 351 690 351 690 433ZM309 577L690 577 690 663 309 663ZM244 323L244 744 255 744C282 744 309 729 309 723L309 692 386 692C352 822 250 877 48 912L52 929C284 907 416 853 457 692L555 692 555 848C555 896 568 909 648 909L762 909C924 909 953 897 953 869 953 856 947 848 926 842L923 729 910 729C899 780 888 823 882 838 877 848 874 850 862 851 847 852 809 852 765 852L660 852C623 852 619 849 619 837L619 692 690 692 690 735 700 735C721 735 754 719 755 713L755 361C772 358 787 351 793 344L716 285 682 323 314 323 244 290ZM731 13C706 69 666 144 629 200L192 200C190 183 187 165 182 145L166 145C166 211 125 273 85 294 65 307 51 329 61 349 73 372 109 370 134 352 162 332 189 291 192 229L832 229C819 262 799 304 784 330L797 338C835 314 887 272 915 241 935 240 946 238 954 231L876 155 832 200 660 200C710 158 763 105 795 65 817 67 830 59 835 48Z"/>
</svg>