<svg xmlns="http://www.w3.org/2000/svg" name="gid12027" data-unicode="覦"
    viewBox="0 0 1000 1000">
  <!--
© 2017-2024 Adobe (http://www.adobe.com/).
Noto is a trademark of Google Inc.
This Font Software is licensed under the SIL Open Font License, Version 1.1. This Font Software is distributed on an "AS IS" BASIS, WITHOUT WARRANTIES OR CONDITIONS OF ANY KIND, either express or implied. See the SIL Open Font License for the specific language, permissions and limitations governing your use of this Font Software.
http://scripts.sil.org/OFL
  -->
<path d="M153 317L161 346 426 346C439 346 449 341 451 330 424 304 379 268 379 268L340 317ZM376 405C369 451 340 579 321 653 363 733 385 848 391 911 431 951 502 861 347 649 372 587 412 482 428 436 444 437 452 433 455 423ZM487 406C477 452 437 572 415 641 465 715 496 824 508 883 549 921 623 836 440 637 471 580 519 483 538 439 554 441 563 436 566 426ZM143 673L137 676 137 535C160 559 181 596 186 626 231 661 275 571 143 521L137 525 137 459 240 459 240 866C240 877 237 881 227 881 215 881 174 878 174 878L174 894C196 898 208 903 215 913 224 923 226 940 227 957 288 950 295 921 295 873L295 469C313 465 329 458 336 450L259 394 231 430 149 430 83 400 83 957 91 957C118 957 137 941 137 936L137 686C160 711 181 749 185 778 230 816 275 723 143 673ZM103 95L111 124 248 124C204 210 120 300 29 358L38 372C155 319 263 232 326 127 360 219 434 301 524 358 531 333 556 313 580 306L583 296C481 258 391 192 352 125 381 124 405 117 414 106L332 51 305 95ZM644 302L845 302 845 434 644 434ZM644 272L644 142 845 142 845 272ZM644 463L845 463 845 598 644 598ZM584 113L584 675 594 675C625 675 644 659 644 654L644 627 653 627C647 776 615 865 476 943L482 959C650 896 706 802 718 627L764 627 764 892C764 931 773 947 825 947L869 947C952 947 974 934 974 910 974 899 970 892 953 884L950 777 937 777C928 822 918 869 913 882 909 889 907 891 901 891 895 891 885 891 872 891L841 891C827 891 825 888 825 877L825 627 845 627 845 655 855 655C883 655 907 640 907 635L907 148C929 145 941 138 948 131L875 73 841 113 656 113 584 82Z"/>
</svg>