<svg xmlns="http://www.w3.org/2000/svg"
    viewBox="0 0 1000 1000">
  <!--
© 2017-2024 Adobe (http://www.adobe.com/).
Noto is a trademark of Google Inc.
This Font Software is licensed under the SIL Open Font License, Version 1.1. This Font Software is distributed on an "AS IS" BASIS, WITHOUT WARRANTIES OR CONDITIONS OF ANY KIND, either express or implied. See the SIL Open Font License for the specific language, permissions and limitations governing your use of this Font Software.
http://scripts.sil.org/OFL
  -->
<path d="M577 302L585 332 895 332C908 332 918 327 920 316 890 286 840 247 840 247L797 302ZM168 88L262 88 262 147 168 147ZM105 59L105 431 114 431C147 431 168 415 168 410L168 369 523 369C536 369 546 364 548 353 518 327 472 292 472 292L430 340 320 340 320 274 404 274 404 296 414 296C433 296 463 282 464 277L464 184C481 181 495 173 501 167L428 112 395 147 320 147 320 88 499 88C512 88 521 84 524 73 496 45 449 9 449 9L408 59 180 59 105 27ZM168 340L168 274 262 274 262 340ZM404 176L404 245 168 245 168 176ZM227 420L227 778 237 778C263 778 290 763 290 757L290 733 387 733C350 841 250 885 68 912L72 930C282 915 414 871 459 733L552 733 552 856C552 901 565 914 644 914L760 914C922 914 951 903 951 874 951 863 945 855 924 849L922 743 909 743C898 790 889 830 882 846 878 855 875 857 862 858 847 859 808 859 762 859L654 859C617 859 613 856 613 845L613 733 725 733 725 773 735 773C756 773 788 758 789 751L789 459C806 456 821 448 827 441L751 383 716 420 296 420 227 388ZM725 703L290 703 290 639 725 639ZM725 610L290 610 290 547 725 547ZM725 518L290 518 290 449 725 449ZM631 12C606 120 557 219 503 281L515 291C557 264 596 226 629 181L915 181C929 181 938 176 941 165 909 135 858 94 858 94L813 152 649 152C666 125 682 95 696 63 717 64 728 56 732 44Z"/>
</svg>