<svg xmlns="http://www.w3.org/2000/svg"
    viewBox="0 0 1000 1000">
  <!--
© 2017-2023 Adobe (http://www.adobe.com/).
Noto is a trademark of Google Inc.
This Font Software is licensed under the SIL Open Font License, Version 1.1. This Font Software is distributed on an "AS IS" BASIS, WITHOUT WARRANTIES OR CONDITIONS OF ANY KIND, either express or implied. See the SIL Open Font License for the specific language, permissions and limitations governing your use of this Font Software.
http://scripts.sil.org/OFL
  -->
<path d="M40 337L48 366 510 366C523 366 532 361 535 350 505 323 459 285 459 285L417 337ZM161 645L148 650C167 685 188 743 188 788 236 837 303 733 161 645ZM158 470L405 470 405 583 158 583ZM98 441L98 651 107 651C138 651 158 636 158 630L158 612 405 612 405 639 414 639C433 639 465 625 466 619L466 480C483 476 498 468 503 461L428 406 396 441 170 441 98 409ZM420 65L420 222 309 222 309 48C332 44 341 35 343 21L250 13 250 222 144 222 144 98C166 95 174 86 176 74L85 65 85 300 96 300C118 300 144 286 144 280L144 252 420 252 420 282 431 282C454 282 481 268 481 262L481 99C503 95 511 86 514 74ZM47 835L92 919C101 916 110 909 114 897 299 848 432 810 526 780L523 764 335 794C363 757 390 716 408 683 430 683 441 675 444 663L348 640C337 686 320 750 304 799 193 816 99 829 47 835ZM606 273L846 273 846 405 606 405ZM606 243L606 113 846 113 846 243ZM606 434L846 434 846 569 606 569ZM545 85L545 654 555 654C586 654 606 638 606 633L606 598 623 598C611 751 562 842 406 914L411 930C599 872 671 778 691 598L743 598 743 858C743 899 752 916 808 916L861 916C952 916 974 901 974 875 974 863 972 855 954 849L951 721 937 721C928 773 918 830 912 845 909 853 906 855 899 856 893 856 880 856 862 856L823 856C805 856 804 854 804 842L804 598 846 598 846 633 855 633C885 633 909 618 909 613L909 119C930 116 942 109 949 102L875 44 841 85 618 85 545 53Z"/>
</svg>