<svg xmlns="http://www.w3.org/2000/svg"
    viewBox="0 0 1000 1000">
  <!--
© 2017-2023 Adobe (http://www.adobe.com/).
Noto is a trademark of Google Inc.
This Font Software is licensed under the SIL Open Font License, Version 1.1. This Font Software is distributed on an "AS IS" BASIS, WITHOUT WARRANTIES OR CONDITIONS OF ANY KIND, either express or implied. See the SIL Open Font License for the specific language, permissions and limitations governing your use of this Font Software.
http://scripts.sil.org/OFL
  -->
<path d="M121 294C120 349 91 392 70 406 17 441 57 495 106 466 136 447 150 410 149 363L848 363C841 392 830 427 822 449L835 455C864 436 903 400 925 375 944 374 955 373 963 365L887 292 844 335 825 335 835 101C851 98 860 96 866 89L796 30 763 66 625 66 633 95 771 95 768 156 635 156 644 184 767 184 765 245 630 245 639 275 764 275 762 335 242 335 239 275 364 275C376 275 385 270 387 259 367 236 333 209 333 209L305 245 238 245 235 184 358 184C371 184 379 179 381 168 361 147 329 121 329 121L301 156 234 156 231 98C286 89 342 74 377 63 390 67 399 67 405 60L341 10C319 25 282 48 246 68L167 46 180 335 146 335C144 322 141 308 137 294ZM560 158C548 179 532 201 513 222 492 212 466 203 433 196L424 207C444 217 467 232 487 248 459 275 426 300 394 319L405 335C442 319 481 297 514 273 529 287 541 303 547 317 584 335 602 288 550 245 567 230 582 214 593 199 610 204 622 201 627 192ZM229 429L229 784 238 784C264 784 292 769 292 763L292 742 386 742C348 845 247 886 68 912L71 929C279 916 414 875 461 742L552 742 552 855C552 900 564 913 642 913L754 913C913 913 941 903 941 875 941 864 935 856 914 849L911 750 898 750C889 795 879 833 871 847 867 855 864 857 852 858 838 859 800 859 756 859L653 859C618 859 614 857 614 845L614 742 707 742 707 774 717 774C738 774 770 759 771 752L771 469C789 465 804 457 810 450L733 391 698 429 298 429 229 398ZM707 713L292 713 292 647 707 647ZM707 618L292 618 292 553 707 553ZM707 524L292 524 292 459 707 459ZM532 19C521 38 506 57 489 75 470 68 448 61 420 56L410 67C427 76 445 88 463 101 440 122 415 141 389 157L400 173C431 160 463 143 491 124 505 137 517 149 524 161 559 176 577 134 528 97 543 85 556 73 566 60 583 65 594 63 599 53Z"/>
</svg>