<svg xmlns="http://www.w3.org/2000/svg"
    viewBox="0 0 1000 1000">
  <!--
© 2017-2023 Adobe (http://www.adobe.com/).
Noto is a trademark of Google Inc.
This Font Software is licensed under the SIL Open Font License, Version 1.1. This Font Software is distributed on an "AS IS" BASIS, WITHOUT WARRANTIES OR CONDITIONS OF ANY KIND, either express or implied. See the SIL Open Font License for the specific language, permissions and limitations governing your use of this Font Software.
http://scripts.sil.org/OFL
  -->
<path d="M321 143C307 184 286 239 265 276L185 276 144 257C170 223 194 184 215 143ZM195 10C163 142 102 267 40 345L54 356C75 338 95 318 115 295L115 473C115 620 111 782 41 915L56 926C127 844 155 740 167 640L395 640 395 833C395 847 390 853 372 853 352 853 260 847 260 847L260 862C300 867 324 874 338 884 351 892 356 908 359 925 443 917 454 887 454 840L454 317C474 313 491 305 498 297L416 236 384 276 291 276C327 239 365 183 389 149 408 148 420 147 428 139L358 75 320 113 229 113 252 59C273 60 285 50 289 39ZM174 305L254 305 254 438 174 438ZM174 467L254 467 254 610 169 610C174 561 174 514 174 472ZM395 305L395 438 309 438 309 305ZM395 467L395 610 309 610 309 467ZM478 87L487 116 636 116C620 228 573 314 466 379L473 394C609 339 682 251 710 116L859 116C854 222 845 279 830 293 824 299 817 301 802 301 786 301 735 297 705 294L705 311C732 315 761 323 772 332 784 341 787 358 787 375 818 375 849 367 870 351 901 325 915 257 920 122 940 120 951 116 958 108L885 50 850 87ZM559 389C541 484 505 574 465 633L479 643C508 618 535 585 558 547L688 547 688 689 471 689 479 719 688 719 688 927 700 927C724 927 752 912 752 903L752 719 955 719C968 719 977 714 980 703 951 674 901 635 901 635L858 689 752 689 752 547 926 547C939 547 948 542 951 531 922 504 876 468 876 468L835 518 752 518 752 417C774 413 782 404 784 391L688 381 688 518 575 518C589 492 601 464 612 435 633 436 643 427 648 416Z"/>
</svg>