<svg xmlns="http://www.w3.org/2000/svg" name="gid12091" data-unicode="記"
    viewBox="0 0 1000 1000">
  <!--
© 2017-2024 Adobe (http://www.adobe.com/).
Noto is a trademark of Google Inc.
This Font Software is licensed under the SIL Open Font License, Version 1.1. This Font Software is distributed on an "AS IS" BASIS, WITHOUT WARRANTIES OR CONDITIONS OF ANY KIND, either express or implied. See the SIL Open Font License for the specific language, permissions and limitations governing your use of this Font Software.
http://scripts.sil.org/OFL
  -->
<path d="M85 111L93 140 391 140C405 140 414 135 417 124 386 96 337 57 337 57L294 111ZM85 367L93 396 392 396C406 396 415 391 418 380 389 353 344 317 344 317L304 367ZM85 494L93 523 392 523C406 523 415 518 418 508 389 480 344 444 344 444L304 494ZM35 240L42 269 450 269C464 269 473 264 476 253 445 224 394 184 394 184L350 240ZM322 649L322 859 156 859 156 649ZM95 620L95 958 103 958C129 958 156 943 156 937L156 888 322 888 322 936 332 936C353 936 383 920 384 913L384 660C404 656 420 648 426 641L348 581 312 620 161 620 95 589ZM495 436L495 858C495 914 515 930 603 930L732 930C913 930 950 920 950 888 950 875 943 868 919 860L917 704 904 704C891 773 879 835 871 854 867 864 862 868 848 869 831 871 789 872 734 872L612 872C566 872 559 865 559 845L559 465 815 465 815 512 825 512C847 512 879 495 880 489L880 161C900 157 916 149 923 141L842 79 806 119 484 119 493 148 815 148 815 436 572 436 495 402Z"/>
</svg>