<svg xmlns="http://www.w3.org/2000/svg"
    viewBox="0 0 1000 1000">
  <!--
© 2017-2024 Adobe (http://www.adobe.com/).
Noto is a trademark of Google Inc.
This Font Software is licensed under the SIL Open Font License, Version 1.1. This Font Software is distributed on an "AS IS" BASIS, WITHOUT WARRANTIES OR CONDITIONS OF ANY KIND, either express or implied. See the SIL Open Font License for the specific language, permissions and limitations governing your use of this Font Software.
http://scripts.sil.org/OFL
  -->
<path d="M571 29C541 187 480 340 412 438L427 448C514 361 587 228 631 80 652 82 664 73 668 62ZM84 80L92 109 377 109C390 109 400 104 402 93 372 65 323 25 323 25L281 80ZM80 333L88 362 370 362C383 362 392 357 395 347 367 320 321 283 321 283L283 333ZM80 460L88 489 369 489C382 489 391 484 393 474 366 446 319 410 319 410L279 460ZM38 206L46 235 429 235C443 235 452 230 455 219 425 191 375 152 375 152L332 206ZM767 24L748 34C775 182 834 340 915 437 922 408 943 386 973 375L976 363C889 288 800 157 767 24ZM627 363C611 494 573 666 531 800L409 810 449 895C458 892 468 886 473 873 639 838 764 810 857 786 873 825 884 864 888 899 963 966 1017 779 765 579L752 586C784 636 821 700 849 765L560 797C622 674 674 524 702 413 724 413 735 403 739 391ZM317 618L317 809 146 809 146 618ZM85 589L85 927 94 927C120 927 146 912 146 906L146 838 317 838 317 904 326 904C347 904 377 888 378 881L378 629C398 625 414 618 421 610L342 550 307 589 151 589 85 558Z"/>
</svg>