<svg xmlns="http://www.w3.org/2000/svg"
    viewBox="0 0 1000 1000">
  <!--
© 2017-2023 Adobe (http://www.adobe.com/).
Noto is a trademark of Google Inc.
This Font Software is licensed under the SIL Open Font License, Version 1.1. This Font Software is distributed on an "AS IS" BASIS, WITHOUT WARRANTIES OR CONDITIONS OF ANY KIND, either express or implied. See the SIL Open Font License for the specific language, permissions and limitations governing your use of this Font Software.
http://scripts.sil.org/OFL
  -->
<path d="M400 143L387 149C426 201 470 285 475 348 534 403 592 262 400 143ZM76 81L84 109 339 109C353 109 362 104 365 93 335 65 288 27 288 27L246 81ZM76 333L84 362 338 362C352 362 361 357 363 347 336 320 292 284 292 284L252 333ZM76 461L84 490 338 490C352 490 361 485 363 475 336 448 292 412 292 412L252 461ZM35 206L42 235 380 235C394 235 404 230 407 219 377 191 329 152 329 152L286 206ZM371 582L430 651C439 645 442 633 442 622 485 576 522 534 550 502 546 687 494 818 338 917L351 931C551 832 610 684 611 482L611 54C637 50 644 39 646 25L550 16 550 471C476 520 403 564 371 582ZM883 121C859 173 804 271 760 335L760 54C784 50 793 40 795 26L697 15 697 840C697 888 711 909 774 909L834 909C940 909 969 897 969 870 969 856 963 849 942 840L939 697 926 697C917 752 905 823 899 836 894 844 890 846 884 847 876 847 858 847 835 847L788 847C763 847 760 840 760 821L760 471C811 522 870 590 894 640 962 684 1004 554 760 443L760 339 769 346C830 294 895 225 929 184 949 189 963 181 966 173ZM279 616L279 811 139 811 139 616ZM79 587L79 928 88 928C113 928 139 913 139 907L139 840 279 840 279 901 288 901C308 901 338 885 339 879L339 627C359 623 374 616 381 609L303 549 269 587 144 587 79 557Z"/>
</svg>