<svg xmlns="http://www.w3.org/2000/svg"
    viewBox="0 0 1000 1000">
  <!--
© 2017-2023 Adobe (http://www.adobe.com/).
Noto is a trademark of Google Inc.
This Font Software is licensed under the SIL Open Font License, Version 1.1. This Font Software is distributed on an "AS IS" BASIS, WITHOUT WARRANTIES OR CONDITIONS OF ANY KIND, either express or implied. See the SIL Open Font License for the specific language, permissions and limitations governing your use of this Font Software.
http://scripts.sil.org/OFL
  -->
<path d="M73 81L81 110 340 110C354 110 364 105 367 94 336 66 289 28 289 28L246 81ZM77 334L85 363 348 363C362 363 372 358 374 348 346 320 301 284 301 284L263 334ZM77 462L85 491 348 491C362 491 372 486 374 475 346 448 301 412 301 412L263 462ZM32 207L39 236 385 236C399 236 408 231 411 220 380 192 332 152 332 152L289 207ZM561 470L553 480C613 506 685 560 711 610 789 640 803 481 561 470ZM820 576L808 583C856 639 905 732 905 807 974 870 1041 699 820 576ZM545 565L545 842C545 888 557 903 624 903L707 903C831 903 860 891 860 864 860 852 855 844 834 837L831 737 820 737C810 781 801 822 794 834 790 842 786 843 777 844 768 845 742 845 710 845L640 845C611 845 608 842 608 828L608 600C626 597 636 588 637 575ZM457 600C461 669 429 741 394 769 376 784 366 805 377 823 391 844 427 836 446 814 477 782 504 707 475 600ZM639 18L639 187 411 187 419 217 639 217 639 392 426 392 434 420 922 420C936 420 945 415 948 405 916 375 866 335 866 335L821 392 704 392 704 217 938 217C952 217 961 212 964 201 931 169 878 128 878 128L831 187 704 187 704 56C728 52 739 42 741 28ZM288 619L288 812 143 812 143 619ZM82 591L82 928 91 928C116 928 143 914 143 908L143 841 288 841 288 901 297 901C317 901 348 885 349 878L349 631C369 627 384 619 390 612L312 552 278 591 147 591 82 560Z"/>
</svg>