<svg xmlns="http://www.w3.org/2000/svg"
    viewBox="0 0 1000 1000">
  <!--
© 2017-2023 Adobe (http://www.adobe.com/).
Noto is a trademark of Google Inc.
This Font Software is licensed under the SIL Open Font License, Version 1.1. This Font Software is distributed on an "AS IS" BASIS, WITHOUT WARRANTIES OR CONDITIONS OF ANY KIND, either express or implied. See the SIL Open Font License for the specific language, permissions and limitations governing your use of this Font Software.
http://scripts.sil.org/OFL
  -->
<path d="M76 78L84 106 321 106C334 106 344 101 346 90 317 62 270 24 270 24L228 78ZM76 330L84 359 318 359C332 359 342 354 345 344 317 317 273 282 273 282L235 330ZM76 458L84 487 318 487C332 487 342 482 345 471 317 445 273 410 273 410L235 458ZM36 203L44 232 358 232C370 232 380 227 382 217 353 188 304 149 304 149L263 203ZM870 29C804 70 670 123 562 152L567 168C621 162 677 151 731 139L731 722 661 722 661 302C683 298 692 288 695 276L605 265 605 722 536 722 544 751 942 751C956 751 964 746 967 736 938 706 888 665 888 665L845 722 790 722 790 419 922 419C935 419 945 415 948 404 918 374 871 334 871 334L829 390 790 390 790 125C830 115 867 104 897 94 920 102 937 103 946 94ZM384 525L369 533C387 609 409 670 436 719 408 792 367 858 305 913L315 928C383 882 431 827 465 765 543 871 656 903 819 903 845 903 901 903 927 903 928 877 940 856 963 853L963 838C925 839 858 839 826 839 671 839 562 814 484 727 527 632 543 525 553 420 572 418 582 415 589 407L518 345 483 384 442 384C470 300 500 207 515 151 536 149 554 144 561 137L488 75 455 111 349 111 358 140 457 140C432 227 394 354 359 451 386 459 403 459 418 453L432 413 491 413C485 505 475 596 449 680 424 639 402 588 384 525ZM260 616L260 805 140 805 140 616ZM80 587L80 924 89 924C114 924 140 910 140 904L140 834 260 834 260 884 269 884C290 884 319 870 320 863L320 626C339 622 355 615 362 608L285 549 250 587 144 587 80 557Z"/>
</svg>