<svg xmlns="http://www.w3.org/2000/svg"
    viewBox="0 0 1000 1000">
  <!--
© 2017-2024 Adobe (http://www.adobe.com/).
Noto is a trademark of Google Inc.
This Font Software is licensed under the SIL Open Font License, Version 1.1. This Font Software is distributed on an "AS IS" BASIS, WITHOUT WARRANTIES OR CONDITIONS OF ANY KIND, either express or implied. See the SIL Open Font License for the specific language, permissions and limitations governing your use of this Font Software.
http://scripts.sil.org/OFL
  -->
<path d="M75 81L83 109 331 109C345 109 354 104 357 93 327 65 279 27 279 27L237 81ZM78 333L86 362 338 362C352 362 361 357 364 347 336 320 292 284 292 284L253 333ZM78 461L86 490 338 490C352 490 361 485 364 475 336 447 292 411 292 411L253 461ZM33 206L40 235 382 235C396 235 405 230 408 219 378 191 329 152 329 152L287 206ZM546 154L533 160C554 197 578 258 579 304 627 350 681 248 546 154ZM280 619L280 808 140 808 140 619ZM79 590L79 928 88 928C113 928 140 913 140 907L140 837 280 837 280 890 289 890C309 890 340 875 341 869L341 630C361 626 376 618 382 611L305 551 270 590 144 590 79 559ZM419 79L419 929 430 929C459 929 480 913 480 904L480 108 853 108 853 825C853 840 848 846 830 846 811 846 718 838 718 838L718 854C759 860 783 868 797 879 809 889 815 907 817 927 905 918 915 885 915 832L915 120C935 116 951 108 958 100L876 37 843 79 485 79 419 46ZM737 149C723 204 698 277 679 330L505 330 512 359 631 359 631 485 610 485 542 455 542 674C542 714 551 728 608 728L672 728C775 728 799 717 799 694 799 681 791 676 771 671L768 670 759 670C755 672 748 673 743 673 739 674 733 674 728 674 720 675 699 675 677 675L622 675C600 675 598 671 598 661L598 514 796 514C810 514 818 509 821 498 798 474 761 441 761 441L728 485 689 485 689 359 811 359C825 359 832 354 835 344 814 320 779 293 779 293L750 330 701 330C733 286 765 234 785 196 806 198 819 191 823 179Z"/>
</svg>