<svg xmlns="http://www.w3.org/2000/svg"
    viewBox="0 0 1000 1000">
  <!--
© 2017-2024 Adobe (http://www.adobe.com/).
Noto is a trademark of Google Inc.
This Font Software is licensed under the SIL Open Font License, Version 1.1. This Font Software is distributed on an "AS IS" BASIS, WITHOUT WARRANTIES OR CONDITIONS OF ANY KIND, either express or implied. See the SIL Open Font License for the specific language, permissions and limitations governing your use of this Font Software.
http://scripts.sil.org/OFL
  -->
<path d="M79 81L87 109 340 109C354 109 363 104 366 93 336 65 289 27 289 27L247 81ZM79 333L87 362 339 362C353 362 362 357 364 347 337 320 293 284 293 284L254 333ZM79 461L87 490 339 490C353 490 362 485 364 475 337 448 293 412 293 412L254 461ZM37 206L45 235 380 235C394 235 403 230 406 219 376 191 328 152 328 152L285 206ZM370 643L409 718C418 714 426 707 429 694L542 644C521 757 470 844 371 917L384 930C524 853 586 749 607 613L678 579 674 564 611 582C613 556 615 530 615 502L615 64C639 60 647 50 649 36L553 26 553 188 405 188 414 217 553 217 553 400 410 400 419 429 553 429 553 502C553 536 551 569 548 599 472 619 405 636 370 643ZM281 617L281 808 142 808 142 617ZM82 588L82 928 91 928C116 928 142 913 142 907L142 837 281 837 281 889 291 889C310 889 341 875 342 868L342 629C362 625 377 617 384 610L306 550 272 588 147 588 82 558ZM724 27L724 926 738 926C761 926 787 912 787 903L787 645 949 645C963 645 971 640 974 629 946 601 898 561 898 561L858 616 787 616 787 428 930 428C943 428 952 423 955 412 928 385 884 347 884 347L846 399 787 399 787 217 941 217C955 217 963 212 966 201 939 172 893 135 893 135L853 188 787 188 787 69C814 65 824 54 827 38Z"/>
</svg>