<svg xmlns="http://www.w3.org/2000/svg" name="gid12214" data-unicode="調"
    viewBox="0 0 1000 1000">
  <!--
© 2017-2024 Adobe (http://www.adobe.com/).
Noto is a trademark of Google Inc.
This Font Software is licensed under the SIL Open Font License, Version 1.1. This Font Software is distributed on an "AS IS" BASIS, WITHOUT WARRANTIES OR CONDITIONS OF ANY KIND, either express or implied. See the SIL Open Font License for the specific language, permissions and limitations governing your use of this Font Software.
http://scripts.sil.org/OFL
  -->
<path d="M77 104L85 132 330 132C344 132 353 127 356 117 326 88 278 50 278 50L236 104ZM77 356L85 385 329 385C342 385 351 381 354 370 327 343 282 308 282 308L243 356ZM77 484L85 513 329 513C342 513 351 508 354 497 327 471 282 436 282 436L243 484ZM36 229L44 258 372 258C385 258 395 253 397 243 367 214 319 176 319 176L278 229ZM626 152L626 268 514 268 522 298 626 298 626 413 501 413 508 443 819 443C832 443 841 438 844 427 818 400 776 364 776 364L740 413 684 413 684 298 801 298C814 298 823 293 826 282 801 255 760 221 760 221L724 268 684 268 684 186C704 183 713 174 715 161ZM271 642L271 831 141 831 141 642ZM81 613L81 951 90 951C115 951 141 936 141 930L141 860 271 860 271 911 280 911C301 911 331 896 332 889L332 653C351 650 367 642 373 634L297 575 261 613 146 613 81 583ZM722 550L722 719 597 719 597 550ZM543 520L543 824 551 824C574 824 597 810 597 805L597 749 722 749 722 802 731 802C749 802 777 788 778 781L778 559C796 556 812 548 818 540L746 486 713 520 602 520 543 493ZM423 103L423 413C423 601 416 795 324 949L340 959C476 807 484 588 484 412L484 132 855 132 855 857C855 873 850 879 831 879 811 879 711 871 711 871L711 887C755 893 780 901 795 912 808 922 813 939 816 959 907 949 917 917 917 865L917 143C936 139 952 132 959 123L877 62 845 103 496 103 423 70Z"/>
</svg>