<svg xmlns="http://www.w3.org/2000/svg"
    viewBox="0 0 1000 1000">
  <!--
© 2017-2024 Adobe (http://www.adobe.com/).
Noto is a trademark of Google Inc.
This Font Software is licensed under the SIL Open Font License, Version 1.1. This Font Software is distributed on an "AS IS" BASIS, WITHOUT WARRANTIES OR CONDITIONS OF ANY KIND, either express or implied. See the SIL Open Font License for the specific language, permissions and limitations governing your use of this Font Software.
http://scripts.sil.org/OFL
  -->
<path d="M77 74L85 102 330 102C344 102 353 97 356 87 326 58 278 20 278 20L236 74ZM77 326L85 355 329 355C342 355 351 351 354 340 327 313 282 278 282 278L243 326ZM77 454L85 483 329 483C342 483 351 478 354 467 327 441 282 406 282 406L243 454ZM36 199L44 228 372 228C385 228 395 223 397 213 367 184 319 146 319 146L278 199ZM626 122L626 238 514 238 522 268 626 268 626 383 501 383 508 413 819 413C832 413 841 408 844 397 818 370 776 334 776 334L740 383 684 383 684 268 801 268C814 268 823 263 826 252 801 225 760 191 760 191L724 238 684 238 684 156C704 153 713 144 715 131ZM271 612L271 801 141 801 141 612ZM81 583L81 921 90 921C115 921 141 906 141 900L141 830 271 830 271 881 280 881C301 881 331 866 332 859L332 623C351 620 367 612 373 604L297 545 261 583 146 583 81 553ZM722 520L722 689 597 689 597 520ZM543 490L543 794 551 794C574 794 597 780 597 775L597 719 722 719 722 772 731 772C749 772 777 758 778 751L778 529C796 526 812 518 818 510L746 456 713 490 602 490 543 463ZM423 73L423 383C423 571 416 765 324 919L340 929C476 777 484 558 484 382L484 102 855 102 855 827C855 843 850 849 831 849 811 849 711 841 711 841L711 857C755 863 780 871 795 882 808 892 813 909 816 929 907 919 917 887 917 835L917 113C936 109 952 102 959 93L877 32 845 73 496 73 423 40Z"/>
</svg>