<svg xmlns="http://www.w3.org/2000/svg" name="gid12240" data-unicode="諟"
    viewBox="0 0 1000 1000">
  <!--
© 2017-2024 Adobe (http://www.adobe.com/).
Noto is a trademark of Google Inc.
This Font Software is licensed under the SIL Open Font License, Version 1.1. This Font Software is distributed on an "AS IS" BASIS, WITHOUT WARRANTIES OR CONDITIONS OF ANY KIND, either express or implied. See the SIL Open Font License for the specific language, permissions and limitations governing your use of this Font Software.
http://scripts.sil.org/OFL
  -->
<path d="M81 111L89 140 354 140C368 140 376 135 379 124 350 96 302 58 302 58L259 111ZM84 364L92 393 361 393C374 393 383 388 386 378 359 350 314 314 314 314L275 364ZM84 492L92 521 361 521C374 521 383 516 386 505 359 478 314 442 314 442L275 492ZM37 237L45 266 410 266C423 266 433 261 435 250 405 222 356 182 356 182L314 237ZM299 649L299 839 147 839 147 649ZM86 621L86 958 95 958C121 958 147 944 147 938L147 868 299 868 299 920 309 920C330 920 361 906 361 900L361 661C380 657 396 649 403 642L325 582 290 621 152 621 86 590ZM491 580C481 739 433 861 353 946L367 958C436 912 486 844 520 752 567 898 645 935 772 935 812 935 894 935 930 935 931 908 941 887 964 884L964 870C915 871 819 871 776 871 751 871 729 870 708 867L708 695 909 695C924 695 933 690 936 679 905 649 856 611 856 611L813 666 708 666 708 520 933 520C947 520 957 515 960 505 927 475 877 437 877 437L831 491 387 491 395 520 644 520 644 852C594 832 558 794 530 722 540 690 548 656 554 620 576 619 585 609 588 596ZM539 256L811 256 811 357 539 357ZM539 227L539 124 811 124 811 227ZM475 96L475 436 485 436C511 436 539 421 539 414L539 386 811 386 811 430 820 430C841 430 873 414 874 407L874 136C894 132 909 124 916 117L836 56 801 96 544 96 475 64Z"/>
</svg>