<svg xmlns="http://www.w3.org/2000/svg"
    viewBox="0 0 1000 1000">
  <!--
© 2017-2023 Adobe (http://www.adobe.com/).
Noto is a trademark of Google Inc.
This Font Software is licensed under the SIL Open Font License, Version 1.1. This Font Software is distributed on an "AS IS" BASIS, WITHOUT WARRANTIES OR CONDITIONS OF ANY KIND, either express or implied. See the SIL Open Font License for the specific language, permissions and limitations governing your use of this Font Software.
http://scripts.sil.org/OFL
  -->
<path d="M77 81L85 109 329 109C343 109 353 104 355 93 325 65 278 27 278 27L236 81ZM77 333L85 362 328 362C342 362 351 357 353 347 326 320 282 284 282 284L242 333ZM77 461L85 490 328 490C342 490 351 485 353 475 326 448 282 412 282 412L242 461ZM36 206L44 235 367 235C381 235 390 230 393 219 363 191 315 152 315 152L273 206ZM558 862L483 862 483 620 558 620ZM609 862L609 620 686 620 686 862ZM738 862L738 620 818 620 818 862ZM424 593L424 862 346 862 354 890 954 890C967 890 976 885 978 875 956 848 915 810 915 810L881 862 878 862 878 632C897 628 912 620 919 613L844 555 811 591 491 591 424 561ZM495 60C462 161 407 254 352 310L365 321C404 296 443 262 477 221L484 246 550 246C532 295 490 375 464 413 488 424 512 426 527 419L557 363 751 363C739 430 718 476 700 488 691 494 683 496 667 496 648 496 591 491 559 489L559 507C588 511 616 518 628 526 639 536 642 550 642 566 676 566 707 558 731 544 768 520 795 458 809 369 829 367 841 362 848 355L780 300 746 334 572 334C587 303 602 271 613 246L784 246C798 246 808 241 810 230 782 204 737 168 737 168L697 218 479 218C504 187 528 152 547 113 569 116 580 108 584 97ZM579 55L588 85 745 85C773 170 834 246 914 298 921 274 945 254 970 248L971 236C883 203 804 145 770 86 798 85 822 78 832 67L752 13 724 55ZM267 618L267 817 138 817 138 618ZM78 589L78 929 87 929C112 929 138 915 138 909L138 846 267 846 267 910 276 910C297 910 326 895 327 888L327 629C347 625 363 617 370 610L292 551 257 589 143 589 78 559Z"/>
</svg>