<svg xmlns="http://www.w3.org/2000/svg"
    viewBox="0 0 1000 1000">
  <!--
© 2017-2023 Adobe (http://www.adobe.com/).
Noto is a trademark of Google Inc.
This Font Software is licensed under the SIL Open Font License, Version 1.1. This Font Software is distributed on an "AS IS" BASIS, WITHOUT WARRANTIES OR CONDITIONS OF ANY KIND, either express or implied. See the SIL Open Font License for the specific language, permissions and limitations governing your use of this Font Software.
http://scripts.sil.org/OFL
  -->
<path d="M77 81L85 109 344 109C358 109 368 104 370 93 340 65 293 27 293 27L251 81ZM77 333L85 362 343 362C357 362 366 357 368 347 341 320 297 284 297 284L257 333ZM438 371L446 401 878 401C892 401 901 396 903 385 871 354 816 313 816 313L769 371ZM77 461L85 490 343 490C357 490 366 485 368 475 341 447 297 411 297 411L257 461ZM35 206L43 235 388 235C402 235 411 230 414 219 384 191 335 152 335 152L293 206ZM374 494L382 523 533 523C512 583 471 678 445 722 472 733 499 735 515 726L548 653 798 653C784 754 761 825 738 841 728 849 719 851 701 851 681 851 612 845 573 842L573 859C608 864 644 872 658 882 671 892 675 910 675 927 713 927 749 918 774 900 816 870 846 783 860 660 880 658 893 653 900 646L828 586 790 623 561 623C576 588 591 552 602 523L943 523C957 523 967 518 969 507 936 477 882 434 882 434L834 494ZM283 617L283 817 141 817 141 617ZM80 588L80 928 89 928C115 928 141 913 141 907L141 847 283 847 283 914 293 914C313 914 344 899 345 893L345 629C364 625 379 617 386 610L308 550 274 588 146 588 80 558ZM570 90L570 236 474 236 474 90ZM418 61L418 331 426 331C449 331 474 318 474 313L474 265 570 265 570 315 578 315C597 315 626 300 627 294L627 100C644 97 661 89 667 82L593 25 560 61 479 61 418 33ZM696 61L696 329 704 329C728 329 753 315 753 310L753 265 858 265 858 314 867 314C887 314 915 299 916 293L916 101C934 97 951 89 957 82L883 25 849 61 758 61 696 33ZM753 236L753 90 858 90 858 236Z"/>
</svg>