<svg xmlns="http://www.w3.org/2000/svg" name="gid12245" data-unicode="諦"
    viewBox="0 0 1000 1000">
  <!--
© 2017-2024 Adobe (http://www.adobe.com/).
Noto is a trademark of Google Inc.
This Font Software is licensed under the SIL Open Font License, Version 1.1. This Font Software is distributed on an "AS IS" BASIS, WITHOUT WARRANTIES OR CONDITIONS OF ANY KIND, either express or implied. See the SIL Open Font License for the specific language, permissions and limitations governing your use of this Font Software.
http://scripts.sil.org/OFL
  -->
<path d="M77 111L85 140 345 140C359 140 368 135 371 124 341 96 294 58 294 58L252 111ZM77 364L85 393 343 393C357 393 366 388 368 378 340 350 297 314 297 314L256 364ZM77 492L85 521 343 521C357 521 366 516 368 505 340 478 297 442 297 442L256 492ZM35 237L42 266 388 266C402 266 411 261 414 250 384 222 335 182 335 182L293 237ZM530 194L517 198C536 235 559 293 561 337 614 388 681 279 530 194ZM637 47L637 157 402 157 410 186 934 186C948 186 958 182 961 171 929 141 879 102 879 102L834 157 702 157 702 84C726 81 736 71 738 57ZM283 649L283 839 141 839 141 649ZM80 621L80 958 90 958C115 958 141 944 141 938L141 868 283 868 283 920 293 920C313 920 344 906 345 900L345 661C364 657 379 649 386 642L308 582 274 621 146 621 80 590ZM638 421L638 536 521 536 454 506 454 878 464 878C490 878 516 864 516 857L516 566 638 566 638 957 650 957C674 957 701 943 701 934L701 566 831 566 831 782C831 794 827 799 814 799 798 799 736 794 736 794L736 811C765 815 783 823 793 832 803 842 806 860 807 879 884 871 893 840 893 790L893 577C911 573 927 565 934 557L852 499 821 536 701 536 701 457C723 453 732 444 734 431ZM770 187C760 237 742 303 727 353L468 353C466 342 464 331 460 319L443 319C444 360 421 406 396 424 376 436 365 457 373 476 384 498 417 496 437 481 456 464 472 429 471 382L870 382C862 412 850 449 841 471L855 478C882 456 919 418 939 392 958 390 969 389 977 382L905 313 867 353 752 353C781 314 811 269 831 235 851 236 864 228 868 216Z"/>
</svg>