<svg xmlns="http://www.w3.org/2000/svg" name="gid12276" data-unicode="謐"
    viewBox="0 0 1000 1000">
  <!--
© 2017-2024 Adobe (http://www.adobe.com/).
Noto is a trademark of Google Inc.
This Font Software is licensed under the SIL Open Font License, Version 1.1. This Font Software is distributed on an "AS IS" BASIS, WITHOUT WARRANTIES OR CONDITIONS OF ANY KIND, either express or implied. See the SIL Open Font License for the specific language, permissions and limitations governing your use of this Font Software.
http://scripts.sil.org/OFL
  -->
<path d="M544 54L536 65C586 89 650 138 674 179 746 209 765 66 544 54ZM816 222L804 228C841 275 884 349 890 408 954 463 1016 321 816 222ZM448 229C449 282 418 341 389 364 370 378 360 399 371 417 383 436 418 431 435 412 464 384 487 319 466 230ZM76 111L84 139 327 139C341 139 351 134 354 123 323 95 276 57 276 57L234 111ZM75 363L83 392 326 392C340 392 350 387 352 377 325 350 281 314 281 314L241 363ZM75 491L83 520 326 520C340 520 350 515 352 505 325 478 281 442 281 442L241 491ZM36 236L43 265 367 265C380 265 389 260 392 249 363 221 314 182 314 182L272 236ZM812 73C767 172 692 277 597 368L597 201C615 198 624 189 626 177L536 166 536 422C478 470 415 513 347 547L356 561C421 535 481 503 536 467 538 504 554 517 613 517L693 517C815 517 842 505 842 478 842 466 837 459 817 451L814 359 802 359C793 398 783 439 777 449 773 456 769 458 760 459 752 459 726 460 696 460L627 460C600 460 597 456 597 443L597 424C715 335 805 228 861 127 885 131 895 127 901 116ZM268 647L268 849 138 849 138 647ZM78 619L78 957 87 957C112 957 138 943 138 937L138 879 268 879 268 935 277 935C298 935 327 920 328 913L328 659C348 655 364 647 371 640L293 580 258 619 143 619 78 588ZM558 892L482 892 482 621 558 621ZM610 892L610 621 689 621 689 892ZM740 892L740 621 822 621 822 892ZM424 591L424 892 351 892 359 921 952 921C965 921 974 916 976 906 954 878 913 841 913 841L882 888 882 632C900 628 916 620 923 612L848 554 813 591 494 591 424 561Z"/>
</svg>