<svg xmlns="http://www.w3.org/2000/svg"
    viewBox="0 0 1000 1000">
  <!--
© 2017-2024 Adobe (http://www.adobe.com/).
Noto is a trademark of Google Inc.
This Font Software is licensed under the SIL Open Font License, Version 1.1. This Font Software is distributed on an "AS IS" BASIS, WITHOUT WARRANTIES OR CONDITIONS OF ANY KIND, either express or implied. See the SIL Open Font License for the specific language, permissions and limitations governing your use of this Font Software.
http://scripts.sil.org/OFL
  -->
<path d="M468 14L456 19C485 56 518 113 524 159 584 208 645 85 468 14ZM76 83L84 111 325 111C339 111 349 106 352 95 322 67 274 29 274 29L232 83ZM75 335L83 364 325 364C339 364 348 359 350 349 322 322 279 286 279 286L239 335ZM75 463L83 492 325 492C339 492 348 487 350 476 322 450 279 414 279 414L239 463ZM35 208L42 237 364 237C377 237 387 232 389 221 360 193 311 154 311 154L270 208ZM816 461L816 569 731 569 731 461ZM739 12C724 60 699 125 675 172L381 172 389 202 522 202 522 296 401 296 410 326 522 326 522 431 358 431 366 461 522 461 522 569 403 569 412 599 499 599C465 703 409 799 330 874L341 889C417 837 478 772 522 697L522 925 531 925C562 925 582 910 582 905L582 599 671 599 671 925 680 925C711 925 731 910 731 905L731 631C771 741 833 828 904 884 913 851 934 831 961 826L963 816C880 776 793 695 743 599L816 599 816 641 824 641C844 641 874 626 875 620L875 461 948 461C962 461 970 456 973 445 949 417 906 379 906 379L875 424 875 334C891 331 905 323 910 316L839 262 807 296 731 296 731 202 924 202C938 202 948 197 951 186 920 156 870 118 870 118L826 172 703 172C740 137 777 93 802 61 824 61 835 53 839 42ZM816 431L731 431 731 326 816 326ZM582 461L671 461 671 569 582 569ZM582 431L582 326 671 326 671 431ZM582 202L671 202 671 296 582 296ZM266 619L266 809 139 809 139 619ZM79 591L79 928 88 928C113 928 139 914 139 908L139 838 266 838 266 890 276 890C296 890 326 875 327 869L327 631C347 627 363 619 369 612L292 552 257 591 144 591 79 560Z"/>
</svg>