<svg xmlns="http://www.w3.org/2000/svg" name="gid12288" data-unicode="謠"
    viewBox="0 0 1000 1000">
  <!--
© 2017-2024 Adobe (http://www.adobe.com/).
Noto is a trademark of Google Inc.
This Font Software is licensed under the SIL Open Font License, Version 1.1. This Font Software is distributed on an "AS IS" BASIS, WITHOUT WARRANTIES OR CONDITIONS OF ANY KIND, either express or implied. See the SIL Open Font License for the specific language, permissions and limitations governing your use of this Font Software.
http://scripts.sil.org/OFL
  -->
<path d="M79 111L87 140 347 140C361 140 370 135 372 124 343 96 295 58 295 58L253 111ZM79 364L87 393 345 393C359 393 368 388 370 378 342 350 298 314 298 314L258 364ZM79 492L87 521 345 521C359 521 368 516 370 505 342 478 298 442 298 442L258 492ZM37 237L45 266 391 266C405 266 414 261 417 250 387 222 339 182 339 182L296 237ZM619 43C571 136 476 242 384 302L394 315C417 305 439 293 461 279 493 302 530 339 542 370 603 402 642 293 479 269 508 250 536 229 563 207 598 228 639 264 656 292 717 319 743 207 578 194L606 169 811 169C716 317 571 416 375 488L386 504C436 491 482 476 525 459 495 513 454 574 417 612L429 623C472 596 517 557 555 518L643 518 643 638 397 638 405 667 643 667 643 862 511 862 511 735C534 732 543 723 546 709L450 700 450 958 461 958C484 958 511 944 511 936L511 892 843 892 843 952 855 952C879 952 905 938 905 930L905 735C930 731 939 722 941 708L843 699 843 862 709 862 709 667 947 667C962 667 971 662 973 651 942 622 890 580 890 580L844 638 709 638 709 518 890 518C904 518 914 513 916 503 885 473 833 432 833 432L789 489 582 489 608 458C632 460 639 456 643 446L589 432C722 369 818 286 893 179 916 178 930 174 938 167L862 102 823 140 635 140C652 122 667 104 680 87 705 91 712 88 717 78ZM284 647L284 849 142 849 142 647ZM81 619L81 958 91 958C116 958 142 944 142 937L142 878 284 878 284 941 293 941C314 941 345 926 345 920L345 659C365 655 380 647 387 640L309 580 274 619 147 619 81 588Z"/>
</svg>