<svg xmlns="http://www.w3.org/2000/svg" name="gid12301" data-unicode="譁"
    viewBox="0 0 1000 1000">
  <!--
© 2017-2024 Adobe (http://www.adobe.com/).
Noto is a trademark of Google Inc.
This Font Software is licensed under the SIL Open Font License, Version 1.1. This Font Software is distributed on an "AS IS" BASIS, WITHOUT WARRANTIES OR CONDITIONS OF ANY KIND, either express or implied. See the SIL Open Font License for the specific language, permissions and limitations governing your use of this Font Software.
http://scripts.sil.org/OFL
  -->
<path d="M75 111L83 140 338 140C352 140 361 135 364 124 334 96 287 58 287 58L245 111ZM75 364L83 393 337 393C351 393 360 388 363 378 335 351 292 315 292 315L252 364ZM75 492L83 521 337 521C351 521 360 516 363 505 335 478 292 443 292 443L252 492ZM34 237L42 266 380 266C394 266 403 261 406 250 376 222 328 183 328 183L285 237ZM374 169L381 197 521 197 521 286 532 286C564 286 584 276 584 270L584 197 716 197 716 285 728 285C764 284 779 271 779 266L779 197 931 197C945 197 954 192 956 181 928 155 882 117 882 117L842 169 779 169 779 83C802 80 811 69 812 57L716 47 716 169 584 169 584 83C607 80 616 70 617 57L521 47 521 169ZM278 648L278 850 138 850 138 648ZM78 619L78 958 87 958C112 958 138 944 138 938L138 879 278 879 278 942 287 942C307 942 338 927 339 921L339 660C359 656 374 648 380 641L303 581 268 619 143 619 78 589ZM362 463L370 492 468 492 468 624 377 624 385 652 618 652 618 757 386 757 394 786 618 786 618 958 627 958C659 958 681 942 681 938L681 786 923 786C937 786 947 781 950 771 918 741 869 702 869 702L824 757 681 757 681 652 939 652C953 652 962 647 965 637 937 609 892 571 892 571L852 624 837 624 837 492 949 492C962 492 972 487 974 476 947 448 901 410 901 410L861 463 837 463 837 338 925 338C939 338 948 333 950 322 922 294 875 256 875 256L834 309 378 309 386 338 468 338 468 463ZM528 338L618 338 618 463 528 463ZM774 338L774 463 681 463 681 338ZM528 624L528 492 618 492 618 624ZM774 624L681 624 681 492 774 492Z"/>
</svg>