<svg xmlns="http://www.w3.org/2000/svg" name="gid12308" data-unicode="證"
    viewBox="0 0 1000 1000">
  <!--
© 2017-2024 Adobe (http://www.adobe.com/).
Noto is a trademark of Google Inc.
This Font Software is licensed under the SIL Open Font License, Version 1.1. This Font Software is distributed on an "AS IS" BASIS, WITHOUT WARRANTIES OR CONDITIONS OF ANY KIND, either express or implied. See the SIL Open Font License for the specific language, permissions and limitations governing your use of this Font Software.
http://scripts.sil.org/OFL
  -->
<path d="M77 107L85 136 345 136C359 136 368 131 371 120 341 91 294 53 294 53L252 107ZM77 359L85 388 343 388C357 388 366 383 368 373 340 346 297 310 297 310L256 359ZM77 487L85 516 343 516C357 516 366 512 368 501 340 474 297 438 297 438L256 487ZM35 232L42 261 385 261C399 261 408 256 411 246 381 217 333 178 333 178L290 232ZM514 353L522 381 772 381C786 381 795 377 798 366 767 337 719 300 719 300L677 353ZM505 705L493 709C516 751 543 815 547 864 607 920 675 797 505 705ZM282 643L282 840 140 840 140 643ZM79 614L79 953 89 953C114 953 140 939 140 932L140 869 282 869 282 933 292 933C312 933 343 918 344 912L344 654C363 650 378 643 385 635L307 575 273 614 145 614 79 583ZM419 97L428 125 569 125C556 164 538 204 516 243 505 217 472 187 400 169L389 177C419 203 456 250 469 285 475 289 480 291 486 291 445 351 394 406 335 448L347 462C492 383 585 257 635 131 656 130 667 127 675 118L607 59 567 97ZM743 696C727 754 702 833 681 891L363 891 371 920 943 920C957 920 966 915 968 904 938 874 886 833 886 833L840 891 705 891C740 844 778 785 803 744 825 744 837 736 841 724ZM449 463L449 702 460 702C492 702 513 688 513 683L513 651 785 651 785 689 795 689C826 689 850 675 850 671L850 496C870 493 879 488 886 480L814 427 782 463 524 463 449 433ZM513 622L513 493 785 493 785 622ZM899 175C881 196 844 233 811 260 793 239 776 217 760 193 802 175 845 149 870 133 884 137 891 135 896 128L827 84C812 105 778 147 749 176 725 137 705 95 690 51L673 58C719 235 804 370 922 446 930 419 950 402 973 398L974 388C921 363 871 325 826 278 870 262 914 240 940 228 953 231 962 230 967 224Z"/>
</svg>