<svg xmlns="http://www.w3.org/2000/svg"
    viewBox="0 0 1000 1000">
  <!--
© 2017-2023 Adobe (http://www.adobe.com/).
Noto is a trademark of Google Inc.
This Font Software is licensed under the SIL Open Font License, Version 1.1. This Font Software is distributed on an "AS IS" BASIS, WITHOUT WARRANTIES OR CONDITIONS OF ANY KIND, either express or implied. See the SIL Open Font License for the specific language, permissions and limitations governing your use of this Font Software.
http://scripts.sil.org/OFL
  -->
<path d="M412 179L398 184C416 220 434 277 433 321 482 369 544 269 412 179ZM803 87L791 93C818 131 854 192 864 237 922 285 980 169 803 87ZM73 80L81 109 308 109C322 109 331 104 334 93 304 65 258 27 258 27L217 80ZM73 332L81 361 306 361C320 361 329 356 331 345 304 319 260 283 260 283L223 332ZM73 460L81 488 306 488C320 488 329 483 331 473 304 446 260 411 260 411L223 460ZM36 205L43 234 344 234C358 234 368 229 370 218 341 190 293 151 293 151L251 205ZM575 176C568 228 556 298 542 349L339 349 347 378 708 378C716 489 730 590 754 676 700 766 626 847 529 904L539 917C637 872 714 808 774 735 793 786 817 831 847 869 877 908 930 942 957 916 966 907 963 890 940 849L956 694 944 692C933 732 918 779 907 802 899 823 895 824 884 806 856 771 834 727 817 676 859 612 889 545 910 480 935 481 945 475 949 463L851 434C839 488 821 543 796 597 782 531 774 457 769 378L935 378C949 378 958 373 961 362 929 332 878 291 878 291L833 349 768 349C763 254 763 153 765 53 789 49 798 38 800 25L699 13C699 132 700 245 706 349L565 349C593 309 618 260 634 223 654 223 666 214 669 202ZM480 19L480 135 351 135 359 163 674 163C688 163 697 158 699 148 673 121 630 85 630 85L591 135 542 135 542 55C565 51 573 42 574 29ZM584 489L584 606 449 606 449 489ZM390 460L390 871 400 871C425 871 449 857 449 851L449 789 584 789 584 834 593 834C613 834 642 818 643 811L643 500C662 496 678 488 684 481L608 423 574 460 453 460 390 430ZM449 634L584 634 584 760 449 760ZM248 615L248 818 138 818 138 615ZM78 586L78 927 87 927C112 927 138 913 138 907L138 847 248 847 248 894 258 894C278 894 308 878 309 872L309 626C328 622 343 615 350 607L273 548 239 586 142 586 78 556Z"/>
</svg>