<svg xmlns="http://www.w3.org/2000/svg"
    viewBox="0 0 1000 1000">
  <!--
© 2017-2023 Adobe (http://www.adobe.com/).
Noto is a trademark of Google Inc.
This Font Software is licensed under the SIL Open Font License, Version 1.1. This Font Software is distributed on an "AS IS" BASIS, WITHOUT WARRANTIES OR CONDITIONS OF ANY KIND, either express or implied. See the SIL Open Font License for the specific language, permissions and limitations governing your use of this Font Software.
http://scripts.sil.org/OFL
  -->
<path d="M78 81L86 109 346 109C360 109 369 104 372 93 342 65 294 27 294 27L252 81ZM77 333L85 362 344 362C358 362 367 357 369 347 341 320 297 284 297 284L257 333ZM77 461L85 490 344 490C358 490 367 485 369 475 341 447 297 411 297 411L257 461ZM35 206L43 235 385 235C399 235 408 230 411 219 381 191 332 152 332 152L290 206ZM503 15L492 20C518 53 548 106 554 149 613 195 670 75 503 15ZM445 223L432 229C453 269 476 333 475 382 525 434 591 321 445 223ZM844 218C834 260 809 341 788 393L800 399C838 357 879 304 901 272 919 275 931 265 934 257ZM753 11C742 57 722 119 704 164L407 164 415 194 563 194 563 436 384 436 392 465 944 465C958 465 967 460 970 449 938 419 888 379 888 379L842 436 762 436 762 194 930 194C944 194 954 189 957 178 925 149 876 110 876 110L831 164 731 164C762 129 793 87 814 56 835 56 847 47 851 35ZM622 194L703 194 703 436 622 436ZM284 619L284 808 142 808 142 619ZM81 590L81 928 90 928C116 928 142 913 142 907L142 837 284 837 284 890 294 890C314 890 345 875 346 869L346 630C365 626 380 618 387 611L309 551 274 590 147 590 81 559ZM806 580L806 685 530 685 530 580ZM467 550L467 928 478 928C505 928 530 912 530 906L530 857 806 857 806 924 816 924C837 924 870 908 871 901L871 590C888 586 902 578 908 571L832 513 797 550 535 550 467 520ZM530 714L806 714 806 827 530 827Z"/>
</svg>