<svg xmlns="http://www.w3.org/2000/svg" name="gid12328" data-unicode="譫"
    viewBox="0 0 1000 1000">
  <!--
© 2017-2024 Adobe (http://www.adobe.com/).
Noto is a trademark of Google Inc.
This Font Software is licensed under the SIL Open Font License, Version 1.1. This Font Software is distributed on an "AS IS" BASIS, WITHOUT WARRANTIES OR CONDITIONS OF ANY KIND, either express or implied. See the SIL Open Font License for the specific language, permissions and limitations governing your use of this Font Software.
http://scripts.sil.org/OFL
  -->
<path d="M545 411L553 440 840 440C854 440 863 435 865 424 838 399 797 367 797 367L760 411ZM522 578L530 607 874 607C887 607 896 602 899 591 872 567 831 537 831 537L796 578ZM522 656L530 686 874 686C887 686 896 681 899 670 872 645 831 616 831 616L796 656ZM77 112L85 140 329 140C343 140 352 135 355 124 325 96 278 58 278 58L236 112ZM77 364L85 393 328 393C342 393 351 388 353 378 326 351 283 315 283 315L243 364ZM77 492L85 521 328 521C342 521 351 516 353 505 326 479 283 443 283 443L243 492ZM36 237L44 266 368 266C381 266 390 261 393 250 364 222 315 183 315 183L273 237ZM823 774L823 878 578 878 578 774ZM518 744L518 953 527 953C551 953 578 940 578 935L578 907 823 907 823 944 833 944C853 944 884 930 885 923L885 779C901 777 913 771 918 764L848 710 816 744 583 744 518 715ZM702 134C689 161 672 195 655 223L488 223C513 194 535 164 555 134ZM527 41C490 139 417 265 347 337L360 347C381 332 402 314 423 294L423 443C423 617 410 803 325 939L341 950C444 840 472 681 480 521L932 521C946 521 956 516 959 506 930 479 886 444 886 444L847 492 481 492 482 423 482 252 591 252C585 299 564 347 488 393L502 408C608 367 641 308 652 252L723 252 723 312C723 348 731 361 782 361L832 361C919 361 940 352 940 328 940 317 935 311 917 305L914 252 937 252C951 252 961 248 963 237 931 207 880 168 880 168L836 223 690 223C721 196 753 164 774 141 793 140 806 138 813 131L742 65 704 105 573 105 589 78C615 80 623 75 626 64ZM903 252C897 276 890 298 884 305 881 310 877 311 871 311 865 311 852 311 836 311L797 311C782 311 780 309 780 300L780 252ZM268 648L268 846 139 846 139 648ZM79 619L79 954 88 954C113 954 139 940 139 934L139 875 268 875 268 929 278 929C298 929 328 913 329 907L329 659C349 655 365 647 371 640L294 580 259 619 144 619 79 589Z"/>
</svg>