<svg xmlns="http://www.w3.org/2000/svg" name="gid12331" data-unicode="譯"
    viewBox="0 0 1000 1000">
  <!--
© 2017-2024 Adobe (http://www.adobe.com/).
Noto is a trademark of Google Inc.
This Font Software is licensed under the SIL Open Font License, Version 1.1. This Font Software is distributed on an "AS IS" BASIS, WITHOUT WARRANTIES OR CONDITIONS OF ANY KIND, either express or implied. See the SIL Open Font License for the specific language, permissions and limitations governing your use of this Font Software.
http://scripts.sil.org/OFL
  -->
<path d="M78 111L86 140 347 140C361 140 370 135 373 124 343 96 295 58 295 58L253 111ZM79 364L87 393 345 393C359 393 368 388 371 378 343 350 299 314 299 314L259 364ZM79 492L87 521 345 521C359 521 368 516 371 505 343 478 299 442 299 442L259 492ZM35 237L42 266 388 266C402 266 411 261 414 250 384 222 335 182 335 182L293 237ZM408 761L416 790 628 790 628 959 639 959C672 959 694 945 694 940L694 790 916 790C930 790 940 785 943 775 911 746 863 708 863 708L820 761 694 761 694 666 935 666C949 666 958 661 961 650 931 622 883 585 883 585L841 637 736 637C765 610 794 578 813 553 834 554 846 546 850 536L774 510 947 510C960 510 969 505 972 494 942 464 892 426 892 426L849 480 693 480 693 396 902 396C915 396 925 391 928 380 898 352 850 314 850 314L809 367 693 367 693 322C716 319 726 310 728 296L628 285 628 367 415 367 423 396 628 396 628 480 384 480 392 510 505 510C521 541 541 589 543 628 547 632 552 635 556 637L405 637 413 666 628 666 628 761ZM423 80L423 318 432 318C456 318 483 304 483 298L483 270 849 270 849 307 858 307C878 307 909 293 910 287L910 121C929 117 946 109 952 102L874 43 839 80 488 80 423 50ZM483 241L483 110 565 110 565 241ZM849 241L761 241 761 110 849 110ZM620 241L620 110 706 110 706 241ZM283 649L283 845 141 845 141 649ZM80 621L80 958 89 958C114 958 141 944 141 938L141 875 283 875 283 941 292 941C311 941 341 927 342 920L342 661C362 657 377 649 384 642L307 582 273 621 145 621 80 590ZM528 510L754 510C743 549 725 600 708 637L585 637C614 623 621 561 528 510Z"/>
</svg>