<svg xmlns="http://www.w3.org/2000/svg" name="gid12332" data-unicode="議"
    viewBox="0 0 1000 1000">
  <!--
© 2017-2024 Adobe (http://www.adobe.com/).
Noto is a trademark of Google Inc.
This Font Software is licensed under the SIL Open Font License, Version 1.1. This Font Software is distributed on an "AS IS" BASIS, WITHOUT WARRANTIES OR CONDITIONS OF ANY KIND, either express or implied. See the SIL Open Font License for the specific language, permissions and limitations governing your use of this Font Software.
http://scripts.sil.org/OFL
  -->
<path d="M75 111L83 140 324 140C337 140 347 135 349 124 320 96 272 58 272 58L230 111ZM77 364L85 393 322 393C336 393 345 388 348 377 320 350 276 315 276 315L237 364ZM77 492L85 520 322 520C336 520 345 515 348 505 320 478 276 443 276 443L237 492ZM36 237L44 266 362 266C374 266 384 261 386 250 357 222 308 183 308 183L266 237ZM782 441L773 447C790 466 812 500 820 525 872 563 925 468 782 441ZM746 38C733 78 709 133 689 171L582 171C620 163 628 80 493 44L481 50C509 78 542 125 551 163 558 168 564 170 570 171L390 171 398 199 609 199 609 274 428 274 435 303 609 303 609 380 364 380 371 409 933 409C947 409 957 404 960 393 927 364 877 324 877 324L831 380 672 380 672 303 873 303C887 303 897 298 900 287 868 260 820 224 820 224L777 274 672 274 672 199 911 199C925 199 934 194 937 183 906 156 858 119 858 119L816 171 713 171C747 144 782 112 805 84 826 84 838 76 843 65ZM832 631C818 667 797 704 771 740 758 701 749 657 743 611L937 611C951 611 960 606 963 595 933 567 885 530 885 530L843 581 740 581C735 540 733 498 731 458 751 454 760 445 762 432L667 423C670 478 673 531 679 581L555 581 555 492 606 477C626 484 642 484 651 475L584 418C540 448 450 487 374 507L380 523C417 520 457 513 495 506L495 581 351 581 359 611 495 611 495 704C440 717 391 727 360 732L392 802C401 799 409 791 413 779L495 750 495 870C495 882 491 888 475 888 459 888 386 882 386 882L386 897C421 901 440 908 451 917 461 926 466 941 467 958 544 950 555 918 555 871L555 726C596 709 631 693 662 679L657 663 555 690 555 611 683 611C692 679 706 741 728 793 688 838 640 877 587 906L595 920C652 898 703 867 747 831 773 877 809 913 858 937 896 957 943 971 958 942 964 930 962 920 938 898L945 783 932 781C923 816 912 854 903 873 897 887 892 888 878 881 841 863 813 830 792 790 828 753 858 714 878 677 902 679 910 674 914 663ZM260 648L260 845 140 845 140 648ZM79 619L79 958 89 958C114 958 140 944 140 937L140 874 260 874 260 919 270 919C290 919 320 905 321 899L321 660C341 656 357 648 363 641L286 581 250 619 145 619 79 589Z"/>
</svg>