<svg xmlns="http://www.w3.org/2000/svg"
    viewBox="0 0 1000 1000">
  <!--
© 2017-2024 Adobe (http://www.adobe.com/).
Noto is a trademark of Google Inc.
This Font Software is licensed under the SIL Open Font License, Version 1.1. This Font Software is distributed on an "AS IS" BASIS, WITHOUT WARRANTIES OR CONDITIONS OF ANY KIND, either express or implied. See the SIL Open Font License for the specific language, permissions and limitations governing your use of this Font Software.
http://scripts.sil.org/OFL
  -->
<path d="M77 81L85 110 339 110C353 110 363 105 366 94 336 66 288 28 288 28L246 81ZM76 334L84 363 339 363C353 363 362 358 364 348 337 321 293 285 293 285L253 334ZM76 462L84 491 339 491C353 491 362 486 364 475 337 448 293 413 293 413L253 462ZM36 207L43 236 381 236C395 236 404 231 407 220 377 192 329 153 329 153L287 207ZM281 619L281 809 140 809 140 619ZM80 591L80 928 89 928C114 928 140 914 140 908L140 838 281 838 281 890 290 890C310 890 340 875 341 869L341 631C361 627 376 619 383 612L305 552 271 591 145 591 80 560ZM657 172C653 196 645 231 639 258L510 258 537 212C558 215 570 206 574 196L537 181C560 179 582 168 582 162L582 124 729 124 729 180 741 180C763 180 790 168 790 161L790 124 937 124C951 124 961 119 963 108 934 80 887 43 887 43L846 94 790 94 790 46C812 43 821 34 823 21L729 12 729 94 582 94 582 46C604 43 613 34 615 21L521 12 521 94 378 94 386 124 521 124 521 174 488 160C453 259 399 356 352 418L366 427C392 406 417 381 442 352L442 622 451 622C480 622 501 606 501 601L501 573 928 573C942 573 952 568 954 557 925 530 879 493 879 493L837 544 701 544 701 476 878 476C891 476 900 471 903 460 874 435 831 403 831 403L793 446 701 446 701 380 876 380C890 380 899 375 902 364 873 340 831 307 831 307L793 351 701 351 701 287 900 287C913 287 923 282 925 271 898 245 852 209 852 209L813 258 676 258 716 214C737 214 750 206 753 192ZM501 287L639 287 639 351 501 351ZM501 380L639 380 639 446 501 446ZM501 476L639 476 639 544 501 544ZM794 672C762 715 719 753 668 786 606 756 554 719 516 672ZM397 642L406 672 489 672C522 730 565 776 619 814 539 856 444 888 342 910L349 927C467 910 572 882 661 841 731 881 814 909 908 929 916 899 934 878 961 873L962 862C876 852 795 835 723 809 784 773 835 730 875 679 900 678 910 675 918 667L849 603 805 642Z"/>
</svg>