<svg xmlns="http://www.w3.org/2000/svg" name="gid12341" data-unicode="譽"
    viewBox="0 0 1000 1000">
  <!--
© 2017-2024 Adobe (http://www.adobe.com/).
Noto is a trademark of Google Inc.
This Font Software is licensed under the SIL Open Font License, Version 1.1. This Font Software is distributed on an "AS IS" BASIS, WITHOUT WARRANTIES OR CONDITIONS OF ANY KIND, either express or implied. See the SIL Open Font License for the specific language, permissions and limitations governing your use of this Font Software.
http://scripts.sil.org/OFL
  -->
<path d="M326 443L334 472 665 472C679 472 689 467 691 456 663 432 623 403 623 403L586 443ZM243 688L251 717 746 717C759 717 767 713 770 702 744 678 704 650 704 650L669 688ZM243 606L251 635 746 635C759 635 767 630 770 619 744 596 704 568 704 568L669 606ZM155 74L166 348 42 348 51 377 280 377C229 464 132 553 32 611L40 625C96 602 152 573 203 539L207 554 771 554C784 554 794 549 797 538 768 514 727 484 727 484L689 524 225 524C283 482 335 432 374 377L665 377C720 473 813 561 911 610 916 582 935 563 965 551L967 539C875 509 759 449 696 377L936 377C950 377 960 372 962 361 934 333 888 294 888 294L846 348 832 348 843 122C860 121 868 119 875 111L808 54 776 89 632 89 641 118 784 118 781 174 645 174 654 203 780 203 776 261 637 261 646 290 775 290 772 348 601 348 601 225C616 222 629 215 634 209L568 159 537 190 468 190 468 142 591 142C605 142 613 137 616 126 594 104 560 75 560 75L530 114 468 114 468 74C487 70 495 62 497 51L412 43 412 237 423 237C441 237 462 227 466 220L545 220 545 348 468 348 468 282C484 278 491 272 492 261L411 252 411 348 227 348 225 291 351 291C364 291 372 286 374 275 356 253 324 226 324 226L297 261 224 261 221 203 344 203C357 203 366 198 368 187 349 166 318 139 318 139L292 174 220 174 217 124C271 117 327 105 359 96 371 102 380 102 385 97L333 40C310 54 269 76 229 94ZM237 771L237 958 246 958C272 958 301 944 301 939L301 907 702 907 702 952 712 952C733 952 766 938 767 932L767 809C783 806 798 798 804 791L728 734 693 771 306 771 237 740ZM702 877L301 877 301 800 702 800Z"/>
</svg>