<svg xmlns="http://www.w3.org/2000/svg"
    viewBox="0 0 1000 1000">
  <!--
© 2017-2023 Adobe (http://www.adobe.com/).
Noto is a trademark of Google Inc.
This Font Software is licensed under the SIL Open Font License, Version 1.1. This Font Software is distributed on an "AS IS" BASIS, WITHOUT WARRANTIES OR CONDITIONS OF ANY KIND, either express or implied. See the SIL Open Font License for the specific language, permissions and limitations governing your use of this Font Software.
http://scripts.sil.org/OFL
  -->
<path d="M731 786L724 802C798 836 852 878 881 913 941 968 1060 842 731 786ZM563 777C507 832 433 880 362 910L373 929C455 910 543 876 607 834 627 838 636 836 642 827ZM78 81L86 110 331 110C345 110 354 105 357 94 327 66 279 28 279 28L237 81ZM77 334L85 363 328 363C342 363 352 358 354 348 326 320 282 284 282 284L242 334ZM77 462L85 491 328 491C342 491 352 486 354 475 326 448 282 412 282 412L242 462ZM653 148L654 151 755 151C755 176 753 201 749 227L660 227 613 185 580 227 540 227C545 201 547 175 548 151L638 151C644 151 649 150 653 148ZM35 207L43 236 366 236C371 236 376 235 380 233L386 256 478 256C462 324 428 393 358 445L370 459C443 420 487 366 513 310 539 332 565 360 576 385 633 416 670 316 523 287L533 256 742 256C727 312 695 365 631 407L642 419C726 381 770 327 792 271 824 338 869 393 915 427 923 397 940 380 964 376L965 365C913 344 853 305 813 256L927 256C941 256 950 251 952 240 927 215 889 182 889 182L854 227 805 227C811 202 813 177 813 153L813 151 918 151C931 151 941 146 943 135 919 110 880 77 880 77L845 122 813 122 813 52C837 49 843 39 845 27L755 17 755 122 650 122C628 101 603 80 603 80L570 122 549 122 549 52C572 49 579 39 582 26L491 17 491 122 391 122 399 151 491 151C490 175 488 201 484 227L387 227C390 226 391 223 392 220 362 192 313 152 313 152L271 207ZM814 455L814 524 519 524 519 455ZM457 425L457 803 467 803C494 803 519 788 519 782L519 755 814 755 814 791 823 791C844 791 876 777 877 770L877 467C897 463 912 455 919 447L839 386 804 425 524 425 457 395ZM519 553L814 553 814 624 519 624ZM519 653L814 653 814 726 519 726ZM273 619L273 809 142 809 142 619ZM81 591L81 928 90 928C116 928 142 914 142 908L142 838 273 838 273 890 283 890C303 890 334 876 334 870L334 631C354 627 370 619 377 612L299 552 263 591 147 591 81 560Z"/>
</svg>