<svg xmlns="http://www.w3.org/2000/svg"
    viewBox="0 0 1000 1000">
  <!--
© 2017-2024 Adobe (http://www.adobe.com/).
Noto is a trademark of Google Inc.
This Font Software is licensed under the SIL Open Font License, Version 1.1. This Font Software is distributed on an "AS IS" BASIS, WITHOUT WARRANTIES OR CONDITIONS OF ANY KIND, either express or implied. See the SIL Open Font License for the specific language, permissions and limitations governing your use of this Font Software.
http://scripts.sil.org/OFL
  -->
<path d="M274 377L261 383C281 417 302 474 302 517 347 561 404 463 274 377ZM368 56L376 85 591 85C605 85 614 80 616 69 590 45 549 16 549 16L513 56ZM375 216L383 245 595 245C609 245 617 240 620 229 595 207 559 180 559 180L526 216ZM376 297L384 326 595 326C609 326 617 321 620 310 595 287 558 261 558 261L525 297ZM337 136L345 164 624 164C637 164 646 159 649 149 622 124 579 92 579 92L542 136ZM840 380L827 386C853 425 884 488 887 535 936 580 990 471 840 380ZM384 380L384 557 343 541C290 636 183 735 77 790L85 807C163 778 237 734 299 684 340 729 386 767 438 799 330 851 193 888 42 912L47 929C212 911 363 880 487 826 593 878 725 910 901 928 906 898 927 881 953 874L954 863C787 856 653 835 544 798 613 761 672 715 717 658L892 658C905 658 915 653 917 642 885 612 831 571 831 571L785 628 361 628C375 614 388 600 399 586 423 591 431 588 436 578L400 564C419 561 439 551 439 547L439 525 548 525 548 548 556 548C573 548 602 536 603 529L603 415C617 412 631 405 635 399L569 349 540 380 442 380 384 353ZM317 670L330 658 622 658C588 703 541 742 483 775 419 747 364 712 317 670ZM190 12C175 53 151 106 130 143 113 133 92 124 64 118L54 127C86 150 122 192 131 226 170 252 201 200 150 157 181 128 213 91 236 59 255 61 267 54 271 43ZM106 380C94 449 72 522 48 571L65 579C100 541 131 480 153 422 173 422 183 414 186 403L186 593 194 593C223 593 241 580 241 575L241 328 291 318C298 334 303 349 304 364 353 405 404 304 259 238L246 245C258 259 271 278 281 297L167 302C218 256 266 202 297 156 317 159 331 153 336 143L257 107C227 168 180 244 134 303L50 304 81 371C90 369 98 364 104 352L186 338 186 402ZM439 495L439 410 548 410 548 495ZM760 11C745 50 720 100 699 137 683 128 663 120 637 113L627 121C659 146 695 189 704 225 744 251 775 199 722 153 753 125 785 89 808 61 827 62 838 56 843 45ZM676 386C662 450 641 515 617 558L633 567C667 533 699 481 721 428 739 428 749 421 753 413L753 592 760 592C790 592 809 579 809 574L809 330 874 318C882 335 888 351 889 367 941 409 990 299 833 234L822 242C836 256 851 276 864 297L737 301C790 257 842 203 876 158 897 161 911 156 916 145L836 108C804 168 751 245 702 302L620 303 650 370C660 369 668 364 674 352L753 339 753 408Z"/>
</svg>