<svg xmlns="http://www.w3.org/2000/svg"
    viewBox="0 0 1000 1000">
  <!--
© 2017-2024 Adobe (http://www.adobe.com/).
Noto is a trademark of Google Inc.
This Font Software is licensed under the SIL Open Font License, Version 1.1. This Font Software is distributed on an "AS IS" BASIS, WITHOUT WARRANTIES OR CONDITIONS OF ANY KIND, either express or implied. See the SIL Open Font License for the specific language, permissions and limitations governing your use of this Font Software.
http://scripts.sil.org/OFL
  -->
<path d="M69 78L77 106 295 106C309 106 318 101 320 90 292 62 244 24 244 24L203 78ZM69 330L77 359 292 359C305 359 314 354 317 344 289 317 246 282 246 282L208 330ZM69 458L77 487 292 487C305 487 314 482 317 471 290 445 246 410 246 410L208 458ZM692 104L679 110C698 138 718 185 719 222 766 269 831 172 692 104ZM811 91L800 99C843 134 895 196 909 244 971 285 1011 156 811 91ZM654 656L645 666C688 686 737 731 753 769 811 797 833 678 654 656ZM831 699L820 707C864 745 911 812 917 868 980 916 1033 772 831 699ZM614 707L614 852C614 891 623 904 680 904L745 904C846 904 871 894 871 869 871 858 866 852 848 845L845 780 833 780C826 809 818 836 812 845 809 850 805 851 798 851 791 852 771 852 748 852L694 852C673 852 671 850 671 839L671 741C686 738 696 729 698 717ZM554 708C551 756 518 805 489 823 471 836 461 856 470 872 481 891 513 885 532 871 560 846 587 790 572 709ZM353 73L353 213C323 185 279 149 279 149L237 203 36 203 43 232 331 232C342 232 350 229 353 222L353 929 362 929C389 929 408 913 408 908L408 102 482 102C470 178 449 291 435 350 474 422 488 493 488 569 488 608 482 629 473 637 468 642 464 643 455 643 446 643 425 643 413 643L413 659C428 661 438 665 444 672 450 678 453 696 453 713 524 710 545 677 545 579 545 500 520 425 459 348 487 288 523 173 542 115 563 114 575 112 582 105L513 35 475 73 419 73 353 43ZM239 616L239 808 130 808 130 616ZM73 586L73 925 81 925C106 925 130 911 130 905L130 837 239 837 239 886 247 886C267 886 296 873 297 866L297 626C316 622 332 615 338 607L263 549 229 586 135 586 73 557ZM548 351L556 380 915 380C928 380 938 375 940 364 913 338 870 302 870 302L832 351 761 351 761 284 878 284C892 284 900 279 903 268 878 242 836 209 836 209L801 254 585 254 593 284 701 284 701 351ZM572 611L581 640 829 640 829 671 838 671C857 671 889 660 890 655L890 550 954 550C967 550 976 545 978 534 957 510 921 476 921 476L890 521 890 466C904 464 917 457 922 450L853 397 821 430 570 430 579 460 829 460 829 521 555 521 563 550 829 550 829 611ZM598 53C582 133 555 217 526 272L542 280C585 235 624 168 652 100 735 98 825 88 885 78 905 88 921 89 930 81L868 17C823 35 742 58 668 74Z"/>
</svg>