<svg xmlns="http://www.w3.org/2000/svg" name="gid12389" data-unicode="豔"
    viewBox="0 0 1000 1000">
  <!--
© 2017-2024 Adobe (http://www.adobe.com/).
Noto is a trademark of Google Inc.
This Font Software is licensed under the SIL Open Font License, Version 1.1. This Font Software is distributed on an "AS IS" BASIS, WITHOUT WARRANTIES OR CONDITIONS OF ANY KIND, either express or implied. See the SIL Open Font License for the specific language, permissions and limitations governing your use of this Font Software.
http://scripts.sil.org/OFL
  -->
<path d="M784 368L772 375C796 402 824 438 847 476L647 494C677 451 718 387 749 333L937 333C950 333 960 328 962 317 935 289 889 250 889 250L850 305 751 305 751 190 908 190C922 190 931 185 933 174 907 146 862 108 862 108L824 161 751 161 751 80C775 77 786 67 787 53L689 43 689 161 561 161 568 190 689 190 689 305 533 305 541 333 673 333C657 385 632 454 615 497L547 501C551 500 552 497 553 494 532 474 503 451 489 441 505 438 521 428 521 422L521 116C542 113 550 106 552 93L470 84 470 318C457 301 438 282 438 282L420 310 411 310 411 263 447 263C459 263 467 258 470 248 457 230 435 208 435 208L418 235 411 235 411 189 446 189C459 189 467 184 469 174 456 156 434 133 434 133L417 160 411 160 411 103C426 100 432 93 434 83L370 75 370 160 328 160 336 189 370 189 370 235 329 235 337 263 370 263 370 310 324 310 332 339 370 339 370 387 317 387 317 74C335 71 343 63 344 52L265 43 265 170C253 154 235 134 235 134L217 160 209 160 209 102C224 99 230 92 231 83L168 75 168 160 125 160 133 189 168 189 168 235 129 235 137 263 168 263 168 310 126 310 134 339 168 339 168 387 119 387 119 115C137 113 144 106 146 94L68 85 68 461 78 461C97 461 119 448 119 442L119 417 470 417 470 442 475 442 442 480 40 480 48 509 527 509 534 508 567 580C576 578 585 572 590 559 706 534 794 513 860 496 874 521 886 546 891 568 955 614 1000 479 784 368ZM265 179L265 318C253 302 235 284 235 284L217 310 209 310 209 263 241 263C254 263 262 258 264 248 252 231 231 209 231 209L214 235 209 235 209 189 245 189C255 189 263 186 265 179ZM265 330L265 387 209 387 209 339 246 339C255 339 262 336 265 330ZM411 339L451 339C460 339 467 336 470 330L470 387 411 387ZM169 600L417 600 417 686 169 686ZM37 874L72 957C82 954 92 947 96 935 282 898 417 865 515 840L513 824 354 843C375 821 394 798 409 779 430 781 442 773 446 762L354 732C345 766 331 812 318 847L239 855C263 836 260 778 167 734L169 730 169 715 417 715 417 740 426 740C446 740 477 726 478 720L478 609C496 606 510 598 516 591L441 535 408 571 180 571 107 539 107 751 117 751C132 751 145 747 155 743 173 772 192 816 193 851L204 859C132 866 74 872 37 874ZM652 913L603 913 603 653 652 653ZM700 913L700 653 749 653 749 913ZM796 913L796 653 846 653 846 913ZM548 624L548 913 458 913 466 941 956 941C968 941 977 936 980 926 960 902 925 867 925 867L902 902 902 661C927 657 940 652 948 642L867 582 835 624 614 624 548 594Z"/>
</svg>