<svg xmlns="http://www.w3.org/2000/svg"
    viewBox="0 0 1000 1000">
  <!--
© 2017-2023 Adobe (http://www.adobe.com/).
Noto is a trademark of Google Inc.
This Font Software is licensed under the SIL Open Font License, Version 1.1. This Font Software is distributed on an "AS IS" BASIS, WITHOUT WARRANTIES OR CONDITIONS OF ANY KIND, either express or implied. See the SIL Open Font License for the specific language, permissions and limitations governing your use of this Font Software.
http://scripts.sil.org/OFL
  -->
<path d="M408 45C436 44 447 38 450 28L348 7C292 107 171 240 44 319L55 332C97 312 137 289 175 262L175 464 185 464C218 464 239 447 239 442L239 419 428 419C335 487 204 548 69 589L77 607C203 579 327 537 428 482 439 494 448 506 457 519 364 601 205 681 66 725L73 743C218 708 379 642 486 572 493 588 499 604 504 620 399 729 213 827 43 876L51 895C219 856 398 777 520 689 529 761 518 823 494 848 489 855 481 856 469 856 447 856 376 853 340 850L340 866C372 871 406 881 418 888 429 897 435 909 436 928 491 928 524 918 543 896 610 827 608 603 446 472 475 456 502 438 526 419L556 419C605 644 716 789 898 875 909 845 930 827 959 824L961 814C843 774 745 707 674 616 746 588 825 549 872 519 894 528 901 525 909 516L833 459C796 499 723 558 662 599 625 547 596 487 576 419L774 419 774 456 784 456C805 456 837 440 838 434L838 274C857 270 874 262 880 254L800 195 764 233 503 233C550 207 598 167 632 140 650 139 663 137 670 131L601 66 562 104 358 104C376 84 393 64 408 45ZM470 391L239 390 239 262 470 262ZM533 391L533 262 774 262 774 390ZM470 233L252 233 229 223C265 194 299 164 329 134L556 134C535 167 505 206 477 233Z"/>
</svg>