<svg xmlns="http://www.w3.org/2000/svg"
    viewBox="0 0 1000 1000">
  <!--
© 2017-2023 Adobe (http://www.adobe.com/).
Noto is a trademark of Google Inc.
This Font Software is licensed under the SIL Open Font License, Version 1.1. This Font Software is distributed on an "AS IS" BASIS, WITHOUT WARRANTIES OR CONDITIONS OF ANY KIND, either express or implied. See the SIL Open Font License for the specific language, permissions and limitations governing your use of this Font Software.
http://scripts.sil.org/OFL
  -->
<path d="M672 42L662 52C724 97 811 177 842 236 918 272 944 122 672 42ZM277 31C229 121 161 203 102 250L114 264C187 228 266 168 325 93 346 98 360 92 366 83ZM457 9C443 70 424 131 396 190L248 190 256 220 380 220C363 253 342 286 317 317L51 317 60 346 294 346C230 419 146 483 37 532L46 545C187 496 290 427 364 346L660 346C729 420 816 479 908 516 915 490 939 475 969 468L972 456C894 434 807 396 732 346L924 346C939 346 948 341 951 330 918 300 865 259 865 259L819 317 691 317C653 288 620 255 595 220L751 220C764 220 773 215 776 204 745 174 694 135 694 135L649 190 471 190C493 146 510 102 523 56 543 57 556 50 561 35ZM455 220L567 220C585 254 608 286 634 317L389 317C415 286 436 254 455 220ZM733 475C706 512 651 571 606 611L548 596C525 563 493 530 452 502 474 489 494 475 512 460L694 460C707 460 716 455 719 444 690 416 641 379 641 379L599 430 279 430 287 460 418 460C338 520 227 575 114 613L124 630C236 604 345 564 433 514 443 523 452 534 461 544 380 617 240 690 120 730L127 748C255 715 400 654 494 590 503 604 510 619 516 633 417 729 248 816 96 863L103 881C256 844 422 774 535 697 547 763 532 820 498 846 491 852 484 853 472 853 448 853 371 850 334 846L335 863C367 867 404 876 416 885 428 893 435 906 435 925 490 925 521 916 544 897 605 851 626 735 566 626 698 691 796 773 836 826 909 863 952 719 635 620 687 593 743 558 777 533 799 539 808 536 814 526Z"/>
</svg>