<svg xmlns="http://www.w3.org/2000/svg" name="gid12405" data-unicode="豫"
    viewBox="0 0 1000 1000">
  <!--
© 2017-2024 Adobe (http://www.adobe.com/).
Noto is a trademark of Google Inc.
This Font Software is licensed under the SIL Open Font License, Version 1.1. This Font Software is distributed on an "AS IS" BASIS, WITHOUT WARRANTIES OR CONDITIONS OF ANY KIND, either express or implied. See the SIL Open Font License for the specific language, permissions and limitations governing your use of this Font Software.
http://scripts.sil.org/OFL
  -->
<path d="M698 163C684 195 663 236 644 266L510 266 476 252C506 224 534 194 558 163ZM557 39C518 141 437 256 349 322L361 334C386 321 411 305 434 287L434 429 367 366 331 404 37 404 46 433 178 433 178 859C178 872 174 878 160 878 143 878 68 872 68 872L68 887C104 892 123 898 136 910 146 920 150 939 151 958 231 949 242 912 242 861L242 433 335 433C323 482 302 547 285 589L300 597C336 555 377 490 399 443 416 442 427 440 434 434L434 485 445 485C477 485 498 469 498 464L498 446 616 446C552 508 462 565 366 606L377 624C453 599 526 566 590 528 599 539 607 550 615 562 547 631 435 702 337 742L345 760C448 726 563 671 643 617 649 631 654 644 658 658 566 755 434 841 321 889L327 906C447 869 579 800 672 728 680 794 668 851 644 876 637 884 630 885 619 885 596 885 525 881 490 878L490 894C522 899 557 908 567 916 579 924 585 936 586 956 639 956 671 946 691 926 760 859 763 646 607 517 640 495 669 473 694 448 725 639 796 784 911 877 922 848 943 832 969 830L971 820C896 775 831 708 784 623 844 601 910 566 943 546 957 551 965 550 970 544L903 487C878 516 822 571 775 608 749 559 729 504 715 446L845 446 845 478 854 478C875 478 906 464 907 457L907 304C924 301 938 293 944 286L869 231 836 266 671 266C707 237 746 196 771 170 791 169 803 168 810 160L739 94 700 133 580 133C593 114 605 95 615 77 639 79 646 75 650 65ZM498 295L640 295 640 417 498 417ZM700 295L845 295 845 417 700 417ZM58 117L67 146 302 146C281 178 252 217 228 248 200 231 161 215 110 204L100 214C155 248 222 311 241 365 292 392 323 323 249 263 294 230 350 186 380 156 401 155 413 153 421 146L350 77 309 117Z"/>
</svg>