<svg xmlns="http://www.w3.org/2000/svg"
    viewBox="0 0 1000 1000">
  <!--
© 2017-2024 Adobe (http://www.adobe.com/).
Noto is a trademark of Google Inc.
This Font Software is licensed under the SIL Open Font License, Version 1.1. This Font Software is distributed on an "AS IS" BASIS, WITHOUT WARRANTIES OR CONDITIONS OF ANY KIND, either express or implied. See the SIL Open Font License for the specific language, permissions and limitations governing your use of this Font Software.
http://scripts.sil.org/OFL
  -->
<path d="M104 198L93 205C124 236 161 290 169 334 226 377 276 258 104 198ZM752 17L755 277 439 277 447 306 733 306C672 469 564 631 426 743L438 758C575 668 683 550 756 413L761 822C761 837 755 843 736 843 708 843 592 832 592 832L592 846C645 852 676 863 691 877 707 889 714 910 714 928 807 920 821 878 820 826L815 306 949 306C963 306 971 301 974 290 945 260 896 218 896 218L854 277 814 277 812 55C838 51 845 41 848 26ZM336 10C277 69 149 150 38 194L46 210C106 194 168 171 225 145L222 147C249 172 281 217 287 253 342 293 392 183 235 141 289 116 337 89 372 66 395 71 410 70 418 59ZM425 174C348 269 188 381 40 445L50 460C126 436 203 402 271 364 283 381 293 399 302 417 242 485 138 557 48 600L56 616C150 583 254 530 327 477 334 498 339 518 343 539 275 630 152 726 42 781L49 797C157 755 273 688 354 620 361 721 338 809 304 843 296 852 286 853 272 853 247 853 171 849 130 844L130 862C167 868 205 878 216 885 227 894 232 908 232 929 290 929 324 918 346 896 436 816 458 537 288 355 360 314 422 270 466 228 487 235 496 232 504 223Z"/>
</svg>