<svg xmlns="http://www.w3.org/2000/svg"
    viewBox="0 0 1000 1000">
  <!--
© 2017-2023 Adobe (http://www.adobe.com/).
Noto is a trademark of Google Inc.
This Font Software is licensed under the SIL Open Font License, Version 1.1. This Font Software is distributed on an "AS IS" BASIS, WITHOUT WARRANTIES OR CONDITIONS OF ANY KIND, either express or implied. See the SIL Open Font License for the specific language, permissions and limitations governing your use of this Font Software.
http://scripts.sil.org/OFL
  -->
<path d="M394 769C323 818 181 880 57 911L63 927C195 912 340 871 428 834 451 841 468 839 476 831ZM567 787L563 804C689 835 785 878 841 916 919 968 1039 822 567 787ZM167 193L175 221 467 221 467 291 75 291 84 321 914 321C928 321 938 316 940 305 906 275 854 233 854 233L808 291 533 291 533 221 825 221C839 221 848 217 851 206 819 177 768 138 768 138L723 193 533 193 533 125 861 125C875 125 884 120 887 109 854 80 802 39 802 39L755 96 533 96 533 50C557 47 567 37 569 23L467 13 467 96 136 96 144 125 467 125 467 193ZM724 523L724 606 291 606 291 523ZM724 494L291 494 291 414 724 414ZM724 634L724 718 291 718 291 634ZM226 384L226 795 236 795C264 795 291 779 291 773L291 746 724 746 724 782 734 782C755 782 788 767 789 760L789 423C806 420 821 412 827 405L750 345 714 384 297 384 226 352Z"/>
</svg>