<svg xmlns="http://www.w3.org/2000/svg" name="gid12449" data-unicode="貮"
    viewBox="0 0 1000 1000">
  <!--
© 2017-2024 Adobe (http://www.adobe.com/).
Noto is a trademark of Google Inc.
This Font Software is licensed under the SIL Open Font License, Version 1.1. This Font Software is distributed on an "AS IS" BASIS, WITHOUT WARRANTIES OR CONDITIONS OF ANY KIND, either express or implied. See the SIL Open Font License for the specific language, permissions and limitations governing your use of this Font Software.
http://scripts.sil.org/OFL
  -->
<path d="M363 789L355 799C411 830 487 888 517 932 587 960 606 828 363 789ZM230 775C191 830 110 901 36 942L47 956C135 927 225 874 274 829 296 835 304 831 311 821ZM136 133L144 163 510 163C524 163 534 158 536 147 504 116 453 78 453 78L409 133ZM715 77L706 87C751 113 806 164 822 209 889 245 919 105 715 77ZM195 522L451 522 451 605 195 605ZM195 493L195 412 451 412 451 493ZM195 635L451 635 451 718 195 718ZM133 382L133 792 144 792C170 792 195 777 195 771L195 747 451 747 451 780 460 780C481 780 512 765 513 759L513 420C530 417 544 410 550 403L476 346 442 382 200 382 133 352ZM593 45C593 121 595 194 600 265L42 265 51 295 602 295C622 564 681 786 832 910 873 946 930 976 955 947 963 937 960 921 932 883L949 732 936 730C924 770 907 818 895 842 887 862 882 863 866 847 731 743 679 530 664 295L928 295C943 295 952 290 955 279 920 248 866 207 866 207L818 265 662 265C659 205 658 145 659 84 685 81 694 69 696 56Z"/>
</svg>