<svg xmlns="http://www.w3.org/2000/svg"
    viewBox="0 0 1000 1000">
  <!--
© 2017-2023 Adobe (http://www.adobe.com/).
Noto is a trademark of Google Inc.
This Font Software is licensed under the SIL Open Font License, Version 1.1. This Font Software is distributed on an "AS IS" BASIS, WITHOUT WARRANTIES OR CONDITIONS OF ANY KIND, either express or implied. See the SIL Open Font License for the specific language, permissions and limitations governing your use of this Font Software.
http://scripts.sil.org/OFL
  -->
<path d="M688 57L680 69C722 85 773 121 794 152 858 177 878 55 688 57ZM161 692C141 759 96 855 41 915L52 928C124 880 182 805 216 747 239 749 247 744 253 734ZM271 694L259 701C292 745 329 814 337 868 402 922 465 784 271 694ZM408 536L419 563 618 543C635 613 659 676 690 731 608 805 505 869 392 911L400 926C522 893 630 838 717 773 751 820 791 858 840 888 886 920 945 942 965 910 973 898 969 885 940 851L956 702 942 700C931 742 912 790 901 815 892 834 887 835 868 822 829 799 796 769 768 732 818 689 858 643 888 597 911 601 920 598 927 587L840 543C815 591 780 639 737 684 713 641 695 591 681 537L941 511C954 510 964 503 965 492 932 466 876 429 876 429L834 492 674 509C665 469 658 427 653 383L916 358C928 357 939 350 940 339 906 313 851 276 851 276L809 339 650 354C646 317 644 279 642 240L928 215C940 214 950 207 952 196 918 170 863 132 863 132L820 196 641 211C640 162 639 112 640 61 665 57 674 46 675 33L570 21C570 89 571 154 574 217L408 231 419 260 576 246C578 285 582 323 586 360L418 376 428 404 589 389C595 433 602 475 611 515ZM156 279L319 279 319 431 156 431ZM156 250L156 101 319 101 319 250ZM156 461L319 461 319 618 156 618ZM95 72L95 716 104 716C136 716 156 700 156 695L156 647 319 647 319 703 328 703C358 703 382 687 382 682L382 107C403 104 416 98 423 89L349 31 314 72 168 72 95 41Z"/>
</svg>