<svg xmlns="http://www.w3.org/2000/svg"
    viewBox="0 0 1000 1000">
  <!--
© 2017-2024 Adobe (http://www.adobe.com/).
Noto is a trademark of Google Inc.
This Font Software is licensed under the SIL Open Font License, Version 1.1. This Font Software is distributed on an "AS IS" BASIS, WITHOUT WARRANTIES OR CONDITIONS OF ANY KIND, either express or implied. See the SIL Open Font License for the specific language, permissions and limitations governing your use of this Font Software.
http://scripts.sil.org/OFL
  -->
<path d="M679 247L670 259C731 288 812 348 843 396 914 423 926 282 679 247ZM313 241C274 290 188 357 106 394L114 409C206 385 300 336 353 294 377 298 391 295 398 286ZM382 767C315 819 176 881 50 911L56 928C191 914 333 872 418 830 441 837 458 835 465 826ZM576 788L572 805C710 835 812 878 873 918 954 969 1071 818 576 788ZM242 425L242 429C175 447 108 462 42 474L48 492C113 485 178 474 242 461L242 799 253 799C280 799 307 784 307 777L307 761 714 761 714 786 724 786C746 786 777 770 778 763L778 464C796 461 811 453 817 446L740 387 705 425 390 425C498 396 595 361 670 328 695 336 711 334 718 326L645 271C614 290 575 310 530 329L530 226 761 226C774 226 783 221 786 210 756 183 708 149 708 149L667 197 228 197 235 226 466 226 466 355C412 376 352 397 290 415L242 393ZM714 555L714 628 307 628 307 555ZM714 526L307 526 307 454 714 454ZM714 658L714 732 307 732 307 658ZM162 62C161 120 125 178 90 199 71 212 59 231 68 251 80 272 113 268 135 251 160 232 185 191 186 132L843 132C832 164 817 203 805 228L818 236C851 213 894 172 917 144 936 142 948 140 955 133L881 62 841 103 531 103 531 42C556 38 566 28 568 15L465 4 465 103 185 103C184 90 182 76 178 62Z"/>
</svg>