<svg xmlns="http://www.w3.org/2000/svg" name="gid12482" data-unicode="賕"
    viewBox="0 0 1000 1000">
  <!--
© 2017-2024 Adobe (http://www.adobe.com/).
Noto is a trademark of Google Inc.
This Font Software is licensed under the SIL Open Font License, Version 1.1. This Font Software is distributed on an "AS IS" BASIS, WITHOUT WARRANTIES OR CONDITIONS OF ANY KIND, either express or implied. See the SIL Open Font License for the specific language, permissions and limitations governing your use of this Font Software.
http://scripts.sil.org/OFL
  -->
<path d="M259 725L246 731C278 774 311 842 316 896 375 946 435 818 259 725ZM740 68L729 76C764 103 803 151 813 188 875 229 922 106 740 68ZM423 338L411 345C451 389 496 462 502 520 566 575 628 429 423 338ZM89 102L89 735 99 735C117 735 131 730 139 725 124 792 87 886 38 945L49 958C114 909 165 831 193 772 216 775 225 770 230 759L143 722C147 719 149 717 149 715L149 677 302 677 302 718 311 718C339 718 363 703 363 699L363 137C384 134 396 128 404 119L330 62 297 102 160 102 89 71ZM149 310L302 310 302 461 149 461ZM149 280L149 131 302 131 302 280ZM149 491L302 491 302 648 149 648ZM862 328C834 386 792 457 753 513 725 449 703 370 690 274L942 274C956 274 965 269 967 258 935 228 883 186 883 186L837 245 687 245 687 79C711 75 719 66 722 52L624 41 624 245 380 245 388 274 624 274 624 568C517 642 409 713 365 737L424 812C432 806 438 794 437 781 516 706 579 639 624 591L624 857C624 872 619 877 602 877 584 877 498 870 498 870L498 886C537 891 559 898 572 909 584 920 589 938 591 958 677 949 687 916 687 863L687 365C723 607 794 730 908 832 919 800 940 777 966 772L968 762C890 712 819 646 766 540 817 495 878 433 915 389 934 393 942 391 949 383Z"/>
</svg>