<svg xmlns="http://www.w3.org/2000/svg" name="gid12495" data-unicode="賦"
    viewBox="0 0 1000 1000">
  <!--
© 2017-2024 Adobe (http://www.adobe.com/).
Noto is a trademark of Google Inc.
This Font Software is licensed under the SIL Open Font License, Version 1.1. This Font Software is distributed on an "AS IS" BASIS, WITHOUT WARRANTIES OR CONDITIONS OF ANY KIND, either express or implied. See the SIL Open Font License for the specific language, permissions and limitations governing your use of this Font Software.
http://scripts.sil.org/OFL
  -->
<path d="M398 161L406 190 673 190C687 190 696 185 699 174 668 145 620 106 620 106L576 161ZM820 91L809 99C846 125 885 176 890 219 953 264 1005 131 820 91ZM150 719C132 787 90 884 36 944L47 957C116 908 172 830 202 770 226 773 233 768 239 757ZM714 43C714 132 715 218 718 300L355 300 363 329 719 329C730 566 762 765 856 898 883 939 937 976 965 950 976 940 972 922 951 879L967 722 955 720C944 759 928 806 918 829 909 851 906 851 895 832 814 724 787 535 781 329L938 329C952 329 962 324 964 313 933 284 882 243 882 243L838 300 780 300C779 229 780 155 781 83 806 80 815 68 817 55ZM245 722L233 728C261 768 293 831 297 881 319 900 341 892 350 870L380 940C390 937 399 928 402 916 561 864 678 820 764 788L760 772 598 809 598 592 713 592C726 592 735 587 738 576 714 551 675 516 675 516L641 564 598 564 598 393C620 390 628 381 630 369L541 359 541 821 467 837 467 472C487 469 495 460 497 447L411 438 411 848 353 859C357 824 333 768 245 722ZM152 310L280 310 280 461 152 461ZM152 280L152 131 280 131 280 280ZM152 490L280 490 280 647 152 647ZM93 102L93 734 102 734C133 734 152 720 152 714L152 676 280 676 280 724 289 724C317 724 341 707 341 703L341 137C363 134 374 128 382 119L308 62 276 102 164 102 93 71Z"/>
</svg>