<svg xmlns="http://www.w3.org/2000/svg" name="gid12504" data-unicode="賴"
    viewBox="0 0 1000 1000">
  <!--
© 2017-2024 Adobe (http://www.adobe.com/).
Noto is a trademark of Google Inc.
This Font Software is licensed under the SIL Open Font License, Version 1.1. This Font Software is distributed on an "AS IS" BASIS, WITHOUT WARRANTIES OR CONDITIONS OF ANY KIND, either express or implied. See the SIL Open Font License for the specific language, permissions and limitations governing your use of this Font Software.
http://scripts.sil.org/OFL
  -->
<path d="M760 782L751 791C804 829 872 896 893 950 967 990 1002 839 760 782ZM628 772C584 834 492 905 412 945L422 960C515 932 625 879 680 827 696 832 707 831 713 822ZM597 514L841 514 841 597 597 597ZM597 486L597 405 841 405 841 486ZM597 627L841 627 841 711 597 711ZM492 106L501 134 644 134C630 209 595 293 489 359L501 372 537 356 537 783 547 783C578 783 597 770 597 764L597 740 841 740 841 773 851 773C880 773 903 758 903 754L903 409C923 406 934 401 941 393L870 338 837 376 609 376 548 350C661 291 696 214 713 134L862 134C858 208 848 245 837 256 830 261 824 262 811 262 795 262 755 260 729 258L729 275C753 279 774 285 783 293 794 302 796 318 796 334 827 334 853 326 872 314 902 292 916 243 921 141 940 138 952 133 959 126L889 71 854 106ZM79 319L79 588 88 588C111 588 137 575 137 570L137 547 220 547C181 662 117 775 29 857L40 872C122 815 188 745 237 664L237 958 249 958C272 958 298 942 298 933L298 629C345 664 396 722 410 772 480 818 525 671 298 610L298 547 402 547 402 572 411 572C431 572 460 558 461 552L461 356C477 353 492 346 497 339L426 285 393 319 298 319 298 221 483 221C497 221 506 216 509 205 477 175 425 132 425 132L378 192 298 192 298 81C323 77 331 68 334 53L237 42 237 192 50 192 58 221 237 221 237 319 142 319 79 291ZM402 517L298 517 298 349 402 349ZM237 517L137 517 137 349 237 349Z"/>
</svg>