<svg xmlns="http://www.w3.org/2000/svg" name="gid12528" data-unicode="贓"
    viewBox="0 0 1000 1000">
  <!--
© 2017-2024 Adobe (http://www.adobe.com/).
Noto is a trademark of Google Inc.
This Font Software is licensed under the SIL Open Font License, Version 1.1. This Font Software is distributed on an "AS IS" BASIS, WITHOUT WARRANTIES OR CONDITIONS OF ANY KIND, either express or implied. See the SIL Open Font License for the specific language, permissions and limitations governing your use of this Font Software.
http://scripts.sil.org/OFL
  -->
<path d="M214 728L201 734C227 770 255 829 259 874 313 922 373 808 214 728ZM877 327C870 409 855 494 831 577 816 467 813 346 813 225L948 225C962 225 971 220 974 209 954 191 927 168 912 157 934 140 928 92 837 77L827 85C846 102 868 132 873 157 879 161 885 163 890 164L865 196 813 196 815 83C840 80 849 68 851 55L752 44 753 196 507 196 442 166 442 368 394 368 394 189C411 186 417 180 419 170L346 162 346 450 356 450C372 450 394 437 394 430L394 397 442 397 442 507 442 514 305 514 313 544 354 544C354 634 351 727 316 804L333 820C392 745 402 644 405 544L442 544C440 691 428 836 350 947L366 958C488 839 496 659 496 506L496 225 753 225 755 318C733 297 705 273 705 273L675 313 592 313 533 286 533 841 540 841C564 841 580 828 580 823L580 772 746 772C709 835 661 891 602 937L614 950C698 896 760 825 807 746 820 795 837 841 858 883 882 931 935 974 964 952 975 943 972 923 951 876L969 716 957 714C947 753 932 799 922 821 913 843 910 845 900 823 877 778 860 726 847 668 891 569 915 463 930 365 960 364 967 356 971 344ZM756 337C757 379 759 421 762 461L711 421 687 446 670 446 670 342 738 342C746 342 752 340 756 337ZM762 463C768 541 777 615 792 684 783 705 772 726 761 746 740 725 713 703 713 703L682 743 670 743 670 619 693 619 693 650 698 650C714 650 738 638 739 632L739 474C750 472 759 466 762 463ZM580 342L626 342 626 446 580 446ZM580 743L580 619 626 619 626 743ZM580 475L693 475 693 590 580 590ZM75 101L75 734 84 734C99 734 111 730 119 725 104 789 74 881 35 943L48 955C103 901 149 821 175 766 198 769 206 764 211 754L129 717 131 714 131 676 236 676 236 714 245 714C271 714 294 700 294 695L294 136C315 133 327 126 335 118L263 62 232 101 143 101 75 71ZM131 308L236 308 236 459 131 459ZM131 278L131 130 236 130 236 278ZM131 489L236 489 236 646 131 646Z"/>
</svg>