<svg xmlns="http://www.w3.org/2000/svg" name="gid12595" data-unicode="跖"
    viewBox="0 0 1000 1000">
  <!--
© 2017-2024 Adobe (http://www.adobe.com/).
Noto is a trademark of Google Inc.
This Font Software is licensed under the SIL Open Font License, Version 1.1. This Font Software is distributed on an "AS IS" BASIS, WITHOUT WARRANTIES OR CONDITIONS OF ANY KIND, either express or implied. See the SIL Open Font License for the specific language, permissions and limitations governing your use of this Font Software.
http://scripts.sil.org/OFL
  -->
<path d="M88 111L88 430 98 430C128 430 149 414 149 409L149 376 217 376 217 810 148 826 148 519C168 516 176 508 178 496L91 487 91 838 26 851 66 935C75 932 84 923 87 911 243 855 357 807 439 773L434 759 278 796 278 586 412 586C426 586 436 581 439 570 409 541 362 501 362 501L319 557 278 557 278 376 331 376 331 416 341 416C360 416 391 403 392 398L392 152C411 148 426 141 433 133L439 157 606 157C564 363 478 566 344 712L358 724C421 670 475 609 520 542L520 959 529 959C562 959 582 944 582 939L582 864 827 864 827 941 838 941C867 941 892 926 892 922L892 504C913 501 923 495 930 487L857 430 824 469 593 469 570 459C621 367 657 265 680 157L936 157C950 157 959 152 962 141 929 111 876 68 876 68L829 127 432 127 433 130 356 73 321 111 161 111 88 79ZM582 835L582 499 827 499 827 835ZM331 140L331 347 149 347 149 140Z"/>
</svg>