<svg xmlns="http://www.w3.org/2000/svg"
    viewBox="0 0 1000 1000">
  <!--
© 2017-2023 Adobe (http://www.adobe.com/).
Noto is a trademark of Google Inc.
This Font Software is licensed under the SIL Open Font License, Version 1.1. This Font Software is distributed on an "AS IS" BASIS, WITHOUT WARRANTIES OR CONDITIONS OF ANY KIND, either express or implied. See the SIL Open Font License for the specific language, permissions and limitations governing your use of this Font Software.
http://scripts.sil.org/OFL
  -->
<path d="M474 113L552 113 552 442 474 442ZM346 442L354 472 417 472 417 931 426 931C454 931 474 915 474 909L474 472 552 472 552 902 559 902C586 902 604 888 604 883L604 472 685 472 685 902 692 902C719 902 738 888 738 883L738 472 817 472 817 833C817 845 814 850 802 850 790 850 746 845 746 845L746 862C769 866 781 872 790 882 798 891 801 909 801 926 868 920 876 891 876 840L876 472 951 472C964 472 973 467 975 456 953 427 909 386 909 386L876 439 876 125C896 122 912 113 919 105L838 44 807 85 486 85 417 54 417 442ZM817 113L817 442 738 442 738 113ZM604 113L685 113 685 442 604 442ZM145 110L298 110 298 318 145 318ZM30 827L65 909C74 905 83 896 86 884 218 826 317 775 388 740L384 725 256 764 256 561 368 561C380 561 390 556 392 546 366 517 321 477 321 477L283 532 256 532 256 348 298 348 298 395 307 395C326 395 356 381 357 375L357 120C375 117 391 109 397 101L322 44 289 81 157 81 87 50 87 404 96 404C125 404 145 388 145 383L145 348 197 348 197 781 138 798 138 493C159 490 168 482 169 470L84 461 84 813Z"/>
</svg>