<svg xmlns="http://www.w3.org/2000/svg"
    viewBox="0 0 1000 1000">
  <!--
© 2017-2024 Adobe (http://www.adobe.com/).
Noto is a trademark of Google Inc.
This Font Software is licensed under the SIL Open Font License, Version 1.1. This Font Software is distributed on an "AS IS" BASIS, WITHOUT WARRANTIES OR CONDITIONS OF ANY KIND, either express or implied. See the SIL Open Font License for the specific language, permissions and limitations governing your use of this Font Software.
http://scripts.sil.org/OFL
  -->
<path d="M826 351L812 357C855 432 903 546 904 634 971 701 1035 526 826 351ZM377 199L385 228 561 228C560 539 562 758 305 912L319 929C619 782 623 559 627 228L715 228 715 828C715 842 710 847 693 847 675 847 584 841 584 841L584 856C626 861 648 869 662 880 674 891 680 909 681 929 766 920 776 880 776 830L776 228 941 228C955 228 964 223 967 212 935 182 882 140 882 140L836 199 689 199 689 55C713 52 724 42 725 28L626 18 626 199ZM28 828L61 912C71 909 80 899 83 887 223 831 329 781 405 747L401 733 264 769 264 560 374 560C386 560 395 556 397 548 382 589 364 626 345 658L360 667C426 605 475 508 505 398 527 397 537 388 541 375L444 352C435 420 419 486 398 544 372 515 327 475 327 475L287 532 264 532 264 355 306 355 306 391 315 391C335 391 366 377 367 371L367 122C386 118 402 110 409 102L331 43 297 81 159 81 88 50 88 406 97 406C127 406 147 391 147 385L147 355 205 355 205 785 140 802 140 492C161 489 170 481 172 470L85 460 85 815ZM147 110L306 110 306 326 147 326Z"/>
</svg>