<svg xmlns="http://www.w3.org/2000/svg"
    viewBox="0 0 1000 1000">
  <!--
© 2017-2024 Adobe (http://www.adobe.com/).
Noto is a trademark of Google Inc.
This Font Software is licensed under the SIL Open Font License, Version 1.1. This Font Software is distributed on an "AS IS" BASIS, WITHOUT WARRANTIES OR CONDITIONS OF ANY KIND, either express or implied. See the SIL Open Font License for the specific language, permissions and limitations governing your use of this Font Software.
http://scripts.sil.org/OFL
  -->
<path d="M509 372L517 401 780 401C793 401 803 396 805 385 778 358 734 324 734 324L696 372ZM150 108L318 108 318 313 150 313ZM28 828L63 912C73 909 82 899 86 887 236 829 349 780 430 744L427 729 270 770 270 555 393 555C406 555 416 550 418 540 392 510 347 469 347 469L307 526 270 526 270 343 318 343 318 376 327 376C347 376 378 362 379 356L379 119C398 115 413 107 420 99L343 41 308 79 162 79 90 47 90 401 99 401C129 401 150 386 150 380L150 343 210 343 210 786 143 802 143 492C163 489 172 480 174 469L87 460 87 816ZM603 10C597 61 586 113 570 162L408 162 416 192 559 192C522 289 461 375 368 431L375 445C501 391 579 296 626 192L711 192C755 305 829 390 919 439 926 409 945 392 969 388L970 377C879 346 788 279 736 192L940 192C954 192 962 187 965 176 933 146 880 104 880 104L834 162 639 162C653 126 664 89 673 53 699 51 707 44 709 33ZM426 497L434 526 538 526C524 584 494 674 474 714 501 723 526 723 540 714L563 647 795 647C782 752 760 825 737 842 728 849 719 851 701 851 681 851 613 845 574 842L573 859C609 864 645 873 659 883 673 893 677 910 676 928 715 928 751 919 775 901 817 871 846 783 859 654 879 652 891 648 899 640L825 579 787 617 573 617 600 526 881 526C895 526 903 521 906 510 876 481 826 444 826 444L783 497Z"/>
</svg>