<svg xmlns="http://www.w3.org/2000/svg" name="gid12609" data-unicode="跫"
    viewBox="0 0 1000 1000">
  <!--
© 2017-2024 Adobe (http://www.adobe.com/).
Noto is a trademark of Google Inc.
This Font Software is licensed under the SIL Open Font License, Version 1.1. This Font Software is distributed on an "AS IS" BASIS, WITHOUT WARRANTIES OR CONDITIONS OF ANY KIND, either express or implied. See the SIL Open Font License for the specific language, permissions and limitations governing your use of this Font Software.
http://scripts.sil.org/OFL
  -->
<path d="M574 192L565 201C604 228 647 277 655 321 717 364 765 233 574 192ZM494 91L494 190C494 276 474 361 354 428L363 443C537 379 557 274 557 189L557 120 740 120 740 363C740 402 749 417 801 417L848 417C930 417 954 405 954 379 954 367 949 361 931 354L928 271 915 271C908 305 899 343 894 353 891 359 887 360 881 361 876 361 864 361 851 361L818 361C803 361 801 358 801 347L801 129C819 127 830 122 836 116L766 55 732 91 568 91 494 58ZM49 345L93 427C103 424 110 415 114 403 261 354 367 313 443 284L439 269 274 303 274 140 418 140C432 140 440 135 443 124 412 96 362 56 362 56L317 112 64 112 72 140 212 140 212 316C142 329 84 340 49 345ZM260 681C230 774 166 881 51 946L61 959C162 920 231 862 278 801 357 912 464 937 655 937 721 937 873 937 932 937 934 912 947 893 971 889L971 875C895 877 729 877 658 877 614 877 573 876 537 874L537 764 850 764C864 764 874 759 877 748 844 718 794 679 794 679L748 735 537 735 537 636 728 636 728 668 738 668C758 668 792 653 793 647L793 505C812 501 829 493 835 485L753 424 718 463 282 463 211 432 211 677 221 677C246 677 276 662 276 657L276 636 471 636 471 868C392 857 334 833 290 784 303 765 314 746 323 727 344 728 356 720 361 708ZM276 606L276 492 728 492 728 606Z"/>
</svg>