<svg xmlns="http://www.w3.org/2000/svg" name="gid12620" data-unicode="跿"
    viewBox="0 0 1000 1000">
  <!--
© 2017-2024 Adobe (http://www.adobe.com/).
Noto is a trademark of Google Inc.
This Font Software is licensed under the SIL Open Font License, Version 1.1. This Font Software is distributed on an "AS IS" BASIS, WITHOUT WARRANTIES OR CONDITIONS OF ANY KIND, either express or implied. See the SIL Open Font License for the specific language, permissions and limitations governing your use of this Font Software.
http://scripts.sil.org/OFL
  -->
<path d="M641 435L641 838C584 813 543 766 512 686 524 643 532 599 538 557 560 556 571 548 574 533L476 515C472 595 461 680 434 758L431 748 279 789 279 586 412 586C426 586 435 581 438 570 409 541 361 501 361 501L319 557 279 557 279 383 331 383 331 416 340 416C360 416 390 403 392 398L392 152C412 148 428 140 434 132L356 73 321 111 162 111 89 79 89 430 98 430C129 430 150 414 150 409L150 383 218 383 218 806 150 823 150 519C170 516 178 508 180 496L94 487 94 837 29 851 64 936C73 932 82 923 85 911 234 852 348 801 431 766 407 835 371 898 318 946L329 958C419 897 471 809 502 717 558 890 652 936 812 936 843 936 910 936 940 936 940 908 952 884 975 880L975 867C933 867 854 867 818 867 776 867 738 865 705 858L705 641 901 641C915 641 924 636 927 625 898 595 847 555 847 555L804 612 705 612 705 471C727 468 734 459 736 446ZM631 52L631 215 434 215 441 244 631 244 631 400 409 400 417 430 935 430C950 430 959 425 962 414 930 383 877 342 877 342L830 400 695 400 695 244 902 244C916 244 926 239 928 228 897 198 844 158 844 158L800 215 695 215 695 90C720 87 729 77 731 63ZM331 140L331 354 150 354 150 140Z"/>
</svg>