<svg xmlns="http://www.w3.org/2000/svg" name="gid12630" data-unicode="踏"
    viewBox="0 0 1000 1000">
  <!--
© 2017-2024 Adobe (http://www.adobe.com/).
Noto is a trademark of Google Inc.
This Font Software is licensed under the SIL Open Font License, Version 1.1. This Font Software is distributed on an "AS IS" BASIS, WITHOUT WARRANTIES OR CONDITIONS OF ANY KIND, either express or implied. See the SIL Open Font License for the specific language, permissions and limitations governing your use of this Font Software.
http://scripts.sil.org/OFL
  -->
<path d="M512 738L816 738 816 865 512 865ZM512 709L512 587 816 587 816 709ZM449 558L449 958 459 958C491 958 512 943 512 938L512 894 816 894 816 954 826 954C856 954 881 939 881 935L881 591C901 588 911 583 917 575L845 519 813 558 523 558 449 526ZM883 124C853 160 801 219 761 259 734 215 713 161 700 92L700 81C723 77 730 70 733 56L640 46 640 435C640 447 635 452 621 452 604 452 525 446 525 446L525 462C560 467 581 474 593 484 604 494 608 511 610 528 691 519 700 490 700 439L700 161C737 340 810 427 920 495 928 465 947 443 970 439L971 429C896 397 824 353 771 276 822 249 888 212 925 188 945 193 954 190 959 184ZM397 194L406 224 534 224C510 322 458 410 364 467L372 482C499 428 566 335 597 228 619 227 629 224 635 216L568 158 531 194ZM147 140L306 140 306 354 147 354ZM33 861L64 946C74 942 82 933 86 921 222 861 326 809 401 772L397 759 264 799 264 593 376 593C388 593 398 588 400 577 374 548 328 506 328 506L289 564 264 564 264 383 306 383 306 421 316 421C335 421 366 407 367 401L367 152C386 148 402 140 409 132L331 73 297 111 159 111 88 80 88 436 97 436C127 436 147 421 147 415L147 383 205 383 205 816 140 834 140 522C161 519 170 511 172 500L85 490 85 849Z"/>
</svg>