<svg xmlns="http://www.w3.org/2000/svg"
    viewBox="0 0 1000 1000">
  <!--
© 2017-2023 Adobe (http://www.adobe.com/).
Noto is a trademark of Google Inc.
This Font Software is licensed under the SIL Open Font License, Version 1.1. This Font Software is distributed on an "AS IS" BASIS, WITHOUT WARRANTIES OR CONDITIONS OF ANY KIND, either express or implied. See the SIL Open Font License for the specific language, permissions and limitations governing your use of this Font Software.
http://scripts.sil.org/OFL
  -->
<path d="M675 31L666 42C704 57 748 91 763 123 829 150 850 24 675 31ZM646 447L638 457C678 476 723 514 740 549 804 578 830 450 646 447ZM384 177L394 206 577 192C592 236 613 277 642 314 563 356 471 390 383 412L390 428C489 414 588 385 673 349 715 391 769 426 837 453 884 472 934 482 948 452 953 440 951 430 922 408L931 306 919 304C910 335 896 371 888 388 881 401 874 401 858 395 807 377 765 352 732 321 775 300 812 276 840 252 862 259 870 257 878 248L805 199C777 228 740 257 696 284 672 254 653 221 640 187L907 166C920 165 930 158 931 148 903 125 856 93 856 93L821 144 630 158C619 123 613 86 611 49 631 45 639 35 641 24L546 16C548 68 555 117 568 163ZM368 590L378 618 549 606C569 664 598 717 638 765 545 824 433 874 319 906L326 922C452 898 573 855 672 801 715 842 768 878 832 906 880 929 933 942 948 911 954 899 952 889 922 864L932 758 920 756C910 788 897 824 887 842 880 855 872 855 856 847 806 827 764 800 729 769 784 734 831 696 866 658 889 665 898 662 904 653L824 601C791 646 745 689 690 729 656 690 631 647 614 602L926 580C938 579 948 573 949 562 920 538 870 502 870 502L831 557 604 573C594 540 588 507 586 475 606 471 615 461 616 450L519 441C521 488 528 534 541 578ZM150 110L311 110 311 326 150 326ZM29 831L65 914C74 911 83 901 87 889 242 829 358 777 441 740L437 725 271 770 271 560 390 560C403 560 413 555 416 545 388 515 341 473 341 473L301 532 271 532 271 355 311 355 311 391 321 391C340 391 371 377 372 371L372 122C391 118 407 110 414 102L337 43 301 81 163 81 91 50 91 406 100 406C130 406 150 391 150 385L150 355 211 355 211 786 144 803 144 492C164 489 173 481 174 470L89 460 89 817Z"/>
</svg>