<svg xmlns="http://www.w3.org/2000/svg" name="gid12637" data-unicode="踟"
    viewBox="0 0 1000 1000">
  <!--
© 2017-2024 Adobe (http://www.adobe.com/).
Noto is a trademark of Google Inc.
This Font Software is licensed under the SIL Open Font License, Version 1.1. This Font Software is distributed on an "AS IS" BASIS, WITHOUT WARRANTIES OR CONDITIONS OF ANY KIND, either express or implied. See the SIL Open Font License for the specific language, permissions and limitations governing your use of this Font Software.
http://scripts.sil.org/OFL
  -->
<path d="M431 44C425 171 400 303 365 398L382 406C413 362 437 305 457 243L486 243 486 463 346 463 354 493 486 493C485 660 454 818 283 944L296 957C438 880 500 775 526 663 563 709 600 770 606 820 668 871 721 735 532 635 541 588 544 540 544 493L662 493C672 493 680 490 683 484L683 940 692 940C721 940 742 924 742 918L742 826 860 826 860 907 869 907C891 907 920 891 921 885L921 195C940 191 957 183 963 176L886 114 850 155 754 155 683 124 683 472C654 445 613 410 613 410L572 463 544 463 544 243 651 243C665 243 675 238 677 227 648 198 600 159 600 159L559 214 466 214C478 173 487 129 495 85 517 83 527 73 530 61ZM742 796L742 184 860 184 860 796ZM143 141L285 141 285 357 143 357ZM29 859L66 941C76 937 84 928 87 916 225 855 328 802 403 766L398 751 255 795 255 591 364 591C377 591 386 586 389 576 362 546 316 505 316 505L276 562 255 562 255 386 285 386 285 426 294 426C312 426 342 412 343 406L343 151C362 148 377 140 383 132L308 75 275 112 155 112 85 81 85 435 94 435C123 435 143 419 143 414L143 386 197 386 197 813 139 830 139 536C159 533 168 524 170 512L85 503 85 845Z"/>
</svg>