<svg xmlns="http://www.w3.org/2000/svg" name="gid12662" data-unicode="蹊"
    viewBox="0 0 1000 1000">
  <!--
© 2017-2024 Adobe (http://www.adobe.com/).
Noto is a trademark of Google Inc.
This Font Software is licensed under the SIL Open Font License, Version 1.1. This Font Software is distributed on an "AS IS" BASIS, WITHOUT WARRANTIES OR CONDITIONS OF ANY KIND, either express or implied. See the SIL Open Font License for the specific language, permissions and limitations governing your use of this Font Software.
http://scripts.sil.org/OFL
  -->
<path d="M792 135L781 143C827 189 881 268 890 329 958 381 1011 230 792 135ZM612 601C610 637 608 670 602 700L359 700 367 729 594 729C567 817 498 882 313 939L322 959C564 904 636 828 663 729L670 729C699 805 759 905 904 958 909 921 929 910 961 905L963 893C810 851 731 788 694 729L935 729C949 729 959 724 962 713 929 684 877 643 877 643L831 700 670 700C674 680 677 660 679 638 701 635 710 624 712 611ZM616 258C592 305 564 355 539 391 518 379 489 368 452 362L443 371C484 396 529 446 541 487 586 514 618 454 562 406 594 381 630 348 660 316 680 321 694 313 699 303L688 297C721 284 732 213 632 151L620 156C635 186 649 235 649 276ZM472 91C451 186 415 283 376 345L391 355C444 305 492 229 524 151 638 144 767 125 850 108 872 118 890 119 900 110L830 43C768 68 656 101 555 123ZM754 326C715 381 633 478 561 547L402 550 432 630C441 628 451 622 457 609 628 590 756 573 853 559 864 577 873 595 877 612 941 655 984 515 771 451L762 460C788 480 816 508 838 538L599 546C679 490 758 420 799 378 816 382 826 380 831 371ZM145 140L301 140 301 358 145 358ZM29 859L65 941C75 938 84 928 87 917 220 857 320 807 392 772L387 757 257 796 257 590 369 590C381 590 391 585 393 575 367 545 320 504 320 504L281 562 257 562 257 387 301 387 301 425 310 425C329 425 359 411 360 405L360 150C378 147 394 139 400 131L325 74 292 111 157 111 87 80 87 434 96 434C125 434 145 418 145 413L145 387 198 387 198 814 139 830 139 535C160 532 169 524 170 511L85 502 85 845Z"/>
</svg>