<svg xmlns="http://www.w3.org/2000/svg"
    viewBox="0 0 1000 1000">
  <!--
© 2017-2024 Adobe (http://www.adobe.com/).
Noto is a trademark of Google Inc.
This Font Software is licensed under the SIL Open Font License, Version 1.1. This Font Software is distributed on an "AS IS" BASIS, WITHOUT WARRANTIES OR CONDITIONS OF ANY KIND, either express or implied. See the SIL Open Font License for the specific language, permissions and limitations governing your use of this Font Software.
http://scripts.sil.org/OFL
  -->
<path d="M502 221L815 221 815 320 502 320ZM502 192L502 94 815 94 815 192ZM438 65L438 401 448 401C474 401 502 387 502 380L502 349 815 349 815 391 824 391C846 391 877 375 878 369L878 106C899 102 914 94 921 87L841 25 805 65 507 65 438 34ZM524 612C490 691 415 795 333 858L343 871C439 820 523 734 567 664L567 835C567 849 563 854 549 854 531 854 457 848 457 848L457 864C491 868 511 876 523 886 534 896 537 912 540 931 620 922 629 892 629 842L629 494C649 491 666 482 672 475L589 413 557 453 385 453 394 481 478 481C456 537 408 610 355 656L365 670C433 632 493 573 524 526 547 530 556 524 562 515L489 481 567 481 567 632ZM813 612C781 686 711 788 636 850L647 864C736 811 815 728 857 663L857 835C857 849 853 854 839 854 821 854 749 848 749 848L749 864C783 868 802 876 814 886 824 896 828 912 830 931 910 922 919 892 919 842L919 494C939 491 956 482 962 475L880 413 847 453 672 453 681 481 770 481C746 534 694 608 642 653L654 668C720 631 782 572 817 527 838 531 846 526 853 516L780 481 857 481 857 633ZM140 110L295 110 295 324 140 324ZM29 830L67 911C76 907 85 898 88 886 223 825 324 772 397 736L391 722 254 765 254 560 363 560C376 560 385 555 388 545 361 515 315 474 315 474L275 532 254 532 254 353 295 353 295 395 304 395C323 395 353 381 354 375L354 120C373 117 388 109 394 101L319 44 286 81 152 81 82 50 82 404 91 404C120 404 140 388 140 383L140 353 197 353 197 782 133 801 133 495C153 492 162 484 164 473L79 463 79 817Z"/>
</svg>