<svg xmlns="http://www.w3.org/2000/svg"
    viewBox="0 0 1000 1000">
  <!--
© 2017-2023 Adobe (http://www.adobe.com/).
Noto is a trademark of Google Inc.
This Font Software is licensed under the SIL Open Font License, Version 1.1. This Font Software is distributed on an "AS IS" BASIS, WITHOUT WARRANTIES OR CONDITIONS OF ANY KIND, either express or implied. See the SIL Open Font License for the specific language, permissions and limitations governing your use of this Font Software.
http://scripts.sil.org/OFL
  -->
<path d="M403 139L411 168 565 168C578 168 587 163 590 152 565 126 524 92 524 92L488 139ZM734 138L742 166 915 166C928 166 937 161 940 150 914 124 872 89 872 89L836 138ZM535 451L788 451 788 551 535 551ZM548 421L504 403C626 313 660 211 673 122 692 220 727 315 806 389L778 421ZM535 581L788 581 788 686 535 686ZM681 49C703 46 711 36 713 24L619 16C617 90 612 174 571 257 547 232 514 205 514 205L480 251 395 251 403 281 555 281 559 280C522 343 463 405 365 459L378 475C413 459 445 442 472 425L472 928 482 928C514 928 535 912 535 907L535 715 788 715 788 829C788 842 784 848 769 848 752 848 681 841 681 841L681 857C714 862 733 869 745 880 754 891 759 909 761 929 842 920 851 888 851 837L851 460C865 458 877 452 883 446L915 463C922 431 941 422 970 417L972 405C885 371 824 328 780 278L919 278C933 278 942 273 945 262 919 235 877 201 877 201L840 248 756 248C714 188 692 121 681 49ZM146 114L306 114 306 326 146 326ZM32 835L68 919C78 915 86 905 90 894 230 836 335 786 410 750L407 736 265 776 265 564 375 564C388 564 398 559 400 548 374 520 328 478 328 478L289 535 265 535 265 355 306 355 306 395 315 395C335 395 366 381 367 374L367 125C386 121 402 113 409 106L331 47 297 85 158 85 86 54 86 410 95 410C125 410 146 395 146 389L146 355 206 355 206 792 141 809 141 496C161 493 170 485 172 473L84 464 84 823Z"/>
</svg>