<svg xmlns="http://www.w3.org/2000/svg" name="gid12668" data-unicode="蹐"
    viewBox="0 0 1000 1000">
  <!--
© 2017-2024 Adobe (http://www.adobe.com/).
Noto is a trademark of Google Inc.
This Font Software is licensed under the SIL Open Font License, Version 1.1. This Font Software is distributed on an "AS IS" BASIS, WITHOUT WARRANTIES OR CONDITIONS OF ANY KIND, either express or implied. See the SIL Open Font License for the specific language, permissions and limitations governing your use of this Font Software.
http://scripts.sil.org/OFL
  -->
<path d="M403 169L411 198 565 198C578 198 587 193 590 182 565 156 524 122 524 122L488 169ZM734 168L742 196 915 196C928 196 937 191 940 180 914 154 872 119 872 119L836 168ZM535 481L788 481 788 581 535 581ZM548 451L504 433C626 343 660 241 673 152 692 250 727 345 806 419L778 451ZM535 611L788 611 788 716 535 716ZM681 79C703 76 711 66 713 54L619 46C617 120 612 204 571 287 547 262 514 235 514 235L480 281 395 281 403 311 555 311 559 310C522 373 463 435 365 489L378 505C413 489 445 472 472 455L472 958 482 958C514 958 535 942 535 937L535 745 788 745 788 859C788 872 784 878 769 878 752 878 681 871 681 871L681 887C714 892 733 899 745 910 754 921 759 939 761 959 842 950 851 918 851 867L851 490C865 488 877 482 883 476L915 493C922 461 941 452 970 447L972 435C885 401 824 358 780 308L919 308C933 308 942 303 945 292 919 265 877 231 877 231L840 278 756 278C714 218 692 151 681 79ZM146 144L306 144 306 356 146 356ZM32 865L68 949C78 945 86 935 90 924 230 866 335 816 410 780L407 766 265 806 265 594 375 594C388 594 398 589 400 578 374 550 328 508 328 508L289 565 265 565 265 385 306 385 306 425 315 425C335 425 366 411 367 404L367 155C386 151 402 143 409 136L331 77 297 115 158 115 86 84 86 440 95 440C125 440 146 425 146 419L146 385 206 385 206 822 141 839 141 526C161 523 170 515 172 503L84 494 84 853Z"/>
</svg>