<svg xmlns="http://www.w3.org/2000/svg" name="gid12676" data-unicode="蹟"
    viewBox="0 0 1000 1000">
  <!--
© 2017-2024 Adobe (http://www.adobe.com/).
Noto is a trademark of Google Inc.
This Font Software is licensed under the SIL Open Font License, Version 1.1. This Font Software is distributed on an "AS IS" BASIS, WITHOUT WARRANTIES OR CONDITIONS OF ANY KIND, either express or implied. See the SIL Open Font License for the specific language, permissions and limitations governing your use of this Font Software.
http://scripts.sil.org/OFL
  -->
<path d="M705 808L700 824C788 859 847 904 878 943 940 1001 1050 857 705 808ZM579 800C528 846 420 909 324 941L330 958C436 937 548 895 613 857 636 863 651 862 658 852ZM152 140L317 140 317 345 152 345ZM27 852L61 937C71 934 80 925 84 914 234 858 347 812 429 778L425 764 267 801 267 589 396 589C410 589 419 584 422 574 396 544 350 503 350 503L310 560 267 560 267 375 317 375 317 402 326 402C346 402 376 388 377 381L377 152C396 148 412 140 419 132L342 73 307 111 164 111 93 80 93 427 102 427C132 427 152 411 152 406L152 375 209 375 209 814 146 828 146 524C166 521 174 513 176 502L90 492 90 840ZM632 46L632 124 417 124 425 154 632 154 632 224 433 224 440 252 632 252 632 332 392 332 400 362 941 362C955 362 965 357 966 346 936 316 886 278 886 278L842 332 695 332 695 252 907 252C920 252 930 248 932 237 901 209 853 175 853 175L811 224 695 224 695 154 924 154C938 154 948 149 950 138 918 109 869 70 869 70L825 124 695 124 695 83C719 80 729 70 731 56ZM522 557L815 557 815 634 522 634ZM522 528L522 452 815 452 815 528ZM522 663L815 663 815 741 522 741ZM461 423L461 818 471 818C503 818 522 804 522 799L522 771 815 771 815 806 825 806C854 806 879 792 879 787L879 456C899 453 909 449 916 440L844 385 812 423 534 423 461 392Z"/>
</svg>