<svg xmlns="http://www.w3.org/2000/svg" name="gid12681" data-unicode="蹤"
    viewBox="0 0 1000 1000">
  <!--
© 2017-2024 Adobe (http://www.adobe.com/).
Noto is a trademark of Google Inc.
This Font Software is licensed under the SIL Open Font License, Version 1.1. This Font Software is distributed on an "AS IS" BASIS, WITHOUT WARRANTIES OR CONDITIONS OF ANY KIND, either express or implied. See the SIL Open Font License for the specific language, permissions and limitations governing your use of this Font Software.
http://scripts.sil.org/OFL
  -->
<path d="M500 50C464 144 411 238 364 295L378 306C440 259 505 186 553 105 574 108 586 100 590 89ZM592 521C595 692 569 836 508 949L522 961C570 909 604 841 625 759 666 893 733 930 838 930 865 930 921 930 947 930 947 905 957 887 976 884L976 869C940 870 873 870 842 870 823 870 806 869 790 867L790 648 941 648C955 648 964 643 966 633 939 605 893 568 893 568L853 620 790 620 790 458C811 455 819 446 821 435L732 425 732 850C690 830 658 791 634 721 645 671 651 617 655 559 677 557 687 547 690 533ZM31 859L69 941C79 937 87 927 90 915 225 854 327 802 400 766L394 751 254 795 254 590 364 590C377 590 386 585 389 575L351 536 364 546C388 525 413 500 436 471L436 957 448 957C469 957 494 941 495 936L495 434C512 431 521 425 525 416L488 401C514 363 537 323 557 281 578 282 590 274 594 263L504 229C466 346 406 463 349 535L316 504 276 562 254 562 254 383 289 383 289 425 298 425C317 425 347 411 348 405L348 150C367 147 381 139 388 131L313 74 280 111 157 111 87 80 87 434 96 434C125 434 145 418 145 413L145 383 196 383 196 812 138 829 138 526C159 523 168 515 169 503L84 494 84 845ZM829 58C821 221 771 341 689 423L703 435C768 394 816 334 850 254 877 294 902 343 907 384 959 429 1009 319 860 227 874 189 884 146 892 99 913 98 923 88 926 75ZM650 59C639 210 601 347 541 444L557 453C608 401 648 329 676 244 691 268 702 297 702 322 749 363 801 270 684 217 695 180 704 141 711 100 733 99 743 89 746 76ZM145 140L289 140 289 354 145 354Z"/>
</svg>