<svg xmlns="http://www.w3.org/2000/svg" name="gid12684" data-unicode="蹭"
    viewBox="0 0 1000 1000">
  <!--
© 2017-2024 Adobe (http://www.adobe.com/).
Noto is a trademark of Google Inc.
This Font Software is licensed under the SIL Open Font License, Version 1.1. This Font Software is distributed on an "AS IS" BASIS, WITHOUT WARRANTIES OR CONDITIONS OF ANY KIND, either express or implied. See the SIL Open Font License for the specific language, permissions and limitations governing your use of this Font Software.
http://scripts.sil.org/OFL
  -->
<path d="M524 330L511 336C534 366 559 416 560 456 607 500 663 398 524 330ZM141 144L303 144 303 353 141 353ZM587 82L596 112 764 112C781 165 809 218 846 264L841 269 503 269 488 263C523 224 551 183 571 147 594 150 602 145 607 135L516 96C491 174 434 279 364 347L364 156C383 152 399 144 406 136L328 77 294 115 153 115 81 84 81 443 90 443C121 443 141 429 141 424L141 382 201 382 201 819 135 836 135 521C155 518 164 510 166 498L79 489 79 850 21 863 58 946C67 943 76 934 80 922 223 864 331 814 409 778L404 764 261 803 261 601 378 601C392 601 401 596 404 585 378 556 332 515 332 515L293 572 261 572 261 382 303 382 303 420 312 420C332 420 363 405 364 399L364 356 370 364C393 350 414 334 434 317L434 569 442 569C471 569 490 553 490 547L490 517 849 517 849 556 858 556C877 556 907 542 908 536L908 331 923 344C930 317 955 298 980 293L982 281C900 241 825 176 790 114 818 112 842 105 852 94L771 39 742 82ZM641 488L490 488 490 299 641 299ZM767 326C758 361 738 424 724 462L734 472C759 443 797 397 816 373 837 376 846 371 849 363L849 488 696 488 696 299 849 299 849 362ZM473 601L473 955 483 955C509 955 535 941 535 934L535 898 801 898 801 951 810 951C830 951 862 935 863 929L863 639C880 636 895 628 900 621L825 564 792 601 540 601 473 571ZM801 868L535 868 535 763 801 763ZM801 733L535 733 535 630 801 630Z"/>
</svg>