<svg xmlns="http://www.w3.org/2000/svg"
    viewBox="0 0 1000 1000">
  <!--
© 2017-2024 Adobe (http://www.adobe.com/).
Noto is a trademark of Google Inc.
This Font Software is licensed under the SIL Open Font License, Version 1.1. This Font Software is distributed on an "AS IS" BASIS, WITHOUT WARRANTIES OR CONDITIONS OF ANY KIND, either express or implied. See the SIL Open Font License for the specific language, permissions and limitations governing your use of this Font Software.
http://scripts.sil.org/OFL
  -->
<path d="M455 715L445 724C481 748 518 798 525 838 593 883 645 745 455 715ZM682 204L682 279 622 279C625 256 626 231 626 204ZM496 53C463 143 411 223 359 270L370 283C414 259 456 225 493 182L499 204 572 204C571 231 571 256 569 279L500 279 430 249 430 626 439 626C469 626 489 612 489 608L489 582 822 582 822 607 831 607C859 607 883 593 883 589L883 312C902 309 912 303 919 296L849 243 819 279 733 279 733 204 792 204C805 204 814 199 817 188 793 162 754 130 754 130L720 174 500 174C517 153 532 130 546 106 568 110 579 102 584 91ZM715 597L715 672 341 672 349 701 715 701 715 832C715 845 711 851 695 851 677 851 589 845 589 845L589 860C628 865 650 872 664 882 675 893 680 910 683 929 768 920 777 889 777 836L777 701 938 701C952 701 963 696 965 685 933 656 883 616 883 616L838 672 777 672 777 631C799 627 808 620 811 607ZM591 53L600 82 762 82C787 156 845 222 919 268 926 243 949 224 973 219L975 207C893 180 819 134 786 84 814 81 837 75 847 64L768 11 741 53ZM489 494L822 494 822 552 489 552ZM489 465L489 308 566 308C557 359 538 398 490 430L504 447C577 414 606 369 618 308L682 308 682 369C682 402 690 415 733 415L768 415C791 415 809 414 822 412L822 465ZM733 308L822 308 822 368C818 369 812 370 807 370 804 370 801 371 798 371 792 371 783 371 773 371L747 371C735 371 733 368 733 357ZM144 110L299 110 299 320 144 320ZM33 829L64 912C74 909 83 899 86 887 220 828 323 776 398 741L393 726 257 767 257 560 369 560C381 560 391 555 393 545 367 515 320 474 320 474L281 532 257 532 257 349 299 349 299 395 308 395C327 395 357 381 358 375L358 120C376 117 392 109 398 101L323 44 290 81 156 81 86 50 86 404 95 404C124 404 144 388 144 383L144 349 198 349 198 784 140 801 140 493C160 490 169 482 171 470L85 461 85 816Z"/>
</svg>