<svg xmlns="http://www.w3.org/2000/svg"
    viewBox="0 0 1000 1000">
  <!--
© 2017-2024 Adobe (http://www.adobe.com/).
Noto is a trademark of Google Inc.
This Font Software is licensed under the SIL Open Font License, Version 1.1. This Font Software is distributed on an "AS IS" BASIS, WITHOUT WARRANTIES OR CONDITIONS OF ANY KIND, either express or implied. See the SIL Open Font License for the specific language, permissions and limitations governing your use of this Font Software.
http://scripts.sil.org/OFL
  -->
<path d="M574 592L562 597C580 636 600 699 598 746 646 796 708 690 574 592ZM820 74L809 81C839 112 875 165 882 207 937 250 990 136 820 74ZM445 306L570 306 570 484 445 484ZM729 22L729 290 654 290 593 243 561 278 457 278 388 247 388 557 396 557C426 557 445 542 445 537L445 513 478 513 478 834C478 847 474 852 458 852 442 852 364 846 364 846L364 862C400 866 421 873 433 882 442 893 447 909 449 927 525 918 537 883 537 836L537 513 570 513 570 548 578 548C597 548 626 535 627 529L627 314C637 312 647 308 653 304L657 320 729 320C726 585 701 776 562 912L575 930C695 838 747 719 771 569L771 856C771 896 780 913 830 913L869 913C946 913 968 901 968 875 968 864 964 858 947 850L943 721 930 721C922 771 912 834 906 846 902 854 900 855 895 856 891 856 882 856 870 856L846 856C834 856 832 853 832 840L832 434C851 431 860 421 861 408L787 400 789 320 938 320C951 320 961 315 963 304 934 276 887 236 887 236L844 290 790 290 791 62C815 58 824 48 827 34ZM390 591C384 645 374 698 361 746L252 778 252 543 359 543C372 543 381 538 384 527 358 499 313 460 313 460L275 513 252 513 252 355 285 355 285 384 294 384C312 384 341 371 342 364L342 120C361 116 376 109 382 101L308 45 275 81 154 81 85 50 85 402 94 402C122 402 142 387 142 383L142 355 195 355 195 795 139 811 139 493C156 490 163 482 164 472L85 464 85 825 27 839 58 922C68 918 76 909 80 897 195 845 286 801 354 768 347 788 340 807 333 824L349 832C389 783 422 708 443 632 463 632 473 622 476 610ZM142 110L285 110 285 326 142 326ZM351 162L359 192 672 192C685 192 695 187 698 176 668 147 620 108 620 108L577 162 536 162 536 54C560 51 570 41 572 28L477 17 477 162Z"/>
</svg>