<svg xmlns="http://www.w3.org/2000/svg" name="gid12702" data-unicode="躇"
    viewBox="0 0 1000 1000">
  <!--
© 2017-2024 Adobe (http://www.adobe.com/).
Noto is a trademark of Google Inc.
This Font Software is licensed under the SIL Open Font License, Version 1.1. This Font Software is distributed on an "AS IS" BASIS, WITHOUT WARRANTIES OR CONDITIONS OF ANY KIND, either express or implied. See the SIL Open Font License for the specific language, permissions and limitations governing your use of this Font Software.
http://scripts.sil.org/OFL
  -->
<path d="M378 155L385 184 511 184 511 263 522 263C555 263 575 253 575 247L575 184 739 184 739 262 751 262C786 261 802 249 802 244L802 184 941 184C955 184 964 180 966 169 939 141 893 105 893 105L854 155 802 155 802 80C825 77 834 66 836 53L739 44 739 155 575 155 575 80C597 77 605 67 607 53L511 44 511 155ZM807 657L807 751 553 751 553 657ZM865 235C845 270 821 305 793 341 763 313 724 283 724 283L683 335 638 335 638 269C661 266 671 257 673 244L577 233 577 335 409 335 417 365 577 365 577 469 361 469 369 499 642 499C600 536 555 570 508 603L491 595 491 614C438 649 382 681 324 708L333 723C388 703 441 679 491 652L491 958 500 958C532 958 553 942 553 937L553 910 807 910 807 955 816 955C836 955 868 940 869 934L869 668C889 664 904 656 911 648L832 589 797 628 565 628 547 620C586 596 624 571 659 545 692 563 727 593 741 619 802 647 832 540 680 529L717 499 944 499C958 499 968 494 970 483 939 453 887 414 887 414L841 469 752 469C816 411 870 350 910 292 934 298 944 295 952 284ZM807 780L807 881 553 881 553 780ZM638 469L638 365 773 365C743 400 710 435 674 469ZM143 140L299 140 299 350 143 350ZM29 860L61 943C71 940 79 930 83 917 221 857 327 803 405 767L399 752 257 796 257 590 370 590C383 590 393 585 395 575 369 545 322 504 322 504L282 562 257 562 257 379 299 379 299 425 308 425C327 425 357 411 358 405L358 150C376 147 392 139 398 131L323 74 290 111 156 111 85 80 85 434 94 434C124 434 143 418 143 413L143 379 199 379 199 813 138 831 138 523C158 520 167 512 169 501L83 491 83 846Z"/>
</svg>