<svg xmlns="http://www.w3.org/2000/svg"
    viewBox="0 0 1000 1000">
  <!--
© 2017-2024 Adobe (http://www.adobe.com/).
Noto is a trademark of Google Inc.
This Font Software is licensed under the SIL Open Font License, Version 1.1. This Font Software is distributed on an "AS IS" BASIS, WITHOUT WARRANTIES OR CONDITIONS OF ANY KIND, either express or implied. See the SIL Open Font License for the specific language, permissions and limitations governing your use of this Font Software.
http://scripts.sil.org/OFL
  -->
<path d="M637 708L627 716C655 738 685 780 689 814 742 854 790 746 637 708ZM27 829L58 912C67 909 76 899 79 888 207 830 306 779 380 743L380 882 389 882C412 882 438 869 438 864L438 822 537 822 537 868 545 868C564 868 593 854 594 847L594 677C601 676 608 674 613 671L618 689 793 689 793 844C793 856 789 861 776 861 760 861 692 856 692 856L692 871C724 875 742 882 753 890 763 898 766 912 768 927 843 920 852 894 852 846L852 689 940 689C954 689 963 684 965 674 942 649 902 615 902 615L868 660 852 660 852 618C875 614 884 608 887 594L793 583 793 660 626 660 560 610 529 642 442 642 380 614 380 725 253 764 253 560 361 560 365 560 371 582 940 582C954 582 962 577 965 566 935 538 886 501 886 501L843 552 381 552C385 551 386 548 387 545 360 515 314 474 314 474L274 532 253 532 253 349 290 349 290 395 299 395C318 395 348 381 348 375L348 120C361 118 372 113 379 108L387 137 601 137 601 206 406 206 414 235 892 235C906 235 915 230 918 219 889 191 841 155 841 155L800 206 664 206 664 137 918 137C932 137 942 132 944 121 912 92 863 55 863 55L820 107 664 107 664 50C689 47 699 37 701 23L601 13 601 107 381 107C385 105 387 103 389 101L314 44 280 81 155 81 85 50 85 404 94 404C123 404 143 388 143 383L143 349 196 349 196 781 137 799 137 493C157 490 166 482 168 470L82 461 82 815ZM387 464L395 493 862 493C876 493 886 488 888 478 860 451 815 417 815 417L775 464 663 464 663 400 812 400C825 400 834 395 837 384 810 359 766 327 766 327L729 371 428 371 435 400 600 400 600 464ZM367 289L375 318 868 318C860 347 849 381 840 403L854 411C882 390 917 354 937 328 956 327 967 326 974 319L903 249 864 289ZM438 794L438 672 537 672 537 794ZM143 110L290 110 290 320 143 320Z"/>
</svg>