<svg xmlns="http://www.w3.org/2000/svg"
    viewBox="0 0 1000 1000">
  <!--
© 2017-2024 Adobe (http://www.adobe.com/).
Noto is a trademark of Google Inc.
This Font Software is licensed under the SIL Open Font License, Version 1.1. This Font Software is distributed on an "AS IS" BASIS, WITHOUT WARRANTIES OR CONDITIONS OF ANY KIND, either express or implied. See the SIL Open Font License for the specific language, permissions and limitations governing your use of this Font Software.
http://scripts.sil.org/OFL
  -->
<path d="M515 206L515 432 524 432C553 432 571 419 571 415L571 396 675 396 675 455 505 455 512 484 675 484 675 548 459 548 467 578 597 578C588 626 558 671 444 712L457 728C604 689 645 637 659 578L735 578 735 639C735 660 738 673 752 679L671 671 671 757 484 757 492 786 671 786 671 881 416 881 424 911 946 911C960 911 969 906 971 895 940 866 889 826 889 826L844 881 729 881 729 786 909 786C923 786 932 781 935 770 905 744 858 707 858 707L818 757 729 757 729 704C748 700 756 694 758 682 766 684 777 685 791 685L845 685C934 685 954 678 954 656 954 646 949 641 931 636L928 596 918 596C912 614 904 632 900 637 896 641 893 641 888 642 882 642 866 642 847 642L805 642C788 642 786 640 786 631L786 578 937 578C951 578 960 573 962 562 936 537 893 504 893 504L857 548 732 548 732 484 897 484C909 484 918 480 921 469 899 448 866 423 857 417 881 415 899 403 899 399L899 238C917 235 927 230 933 222L868 172 839 206 582 206 515 177ZM28 823L62 906C72 903 81 893 83 883 199 829 289 782 356 749 338 807 312 864 276 916L291 928C445 772 456 550 456 376L456 146 939 146C953 146 962 141 965 130 933 100 881 61 881 61L835 117 701 117 701 49C721 45 730 37 732 25L639 15 639 117 468 117 398 83 398 377C398 495 393 615 362 727L247 762 247 562 350 562C364 562 373 557 375 546 348 518 303 480 303 480L264 533 247 533 247 348 281 348 281 387 290 387C308 387 337 372 338 366L338 121C357 117 372 110 378 102L304 46 271 82 156 82 87 51 87 404 96 404C124 404 144 389 144 384L144 348 190 348 190 779 139 794 139 487C156 484 163 476 164 466L85 458 85 809ZM732 455L732 396 842 396 842 417 848 417 815 455ZM675 367L571 367 571 316 675 316ZM732 367L732 316 842 316 842 367ZM675 286L571 286 571 234 675 234ZM732 286L732 234 842 234 842 286ZM144 111L281 111 281 320 144 320Z"/>
</svg>