<svg xmlns="http://www.w3.org/2000/svg"
    viewBox="0 0 1000 1000">
  <!--
© 2017-2024 Adobe (http://www.adobe.com/).
Noto is a trademark of Google Inc.
This Font Software is licensed under the SIL Open Font License, Version 1.1. This Font Software is distributed on an "AS IS" BASIS, WITHOUT WARRANTIES OR CONDITIONS OF ANY KIND, either express or implied. See the SIL Open Font License for the specific language, permissions and limitations governing your use of this Font Software.
http://scripts.sil.org/OFL
  -->
<path d="M761 192L761 251 571 251 571 192ZM761 163L571 163 571 102 761 102ZM761 280L761 335 571 347 571 280ZM401 355L432 429C440 427 451 419 456 408 575 393 675 380 761 368L761 441 771 441C802 441 822 427 822 423L822 359 934 342 932 323 822 331 822 102 912 102C926 102 936 97 938 86 906 56 855 17 855 17L810 73 419 73 427 102 510 102 510 350ZM562 596L562 669 467 669 467 596ZM562 566L467 566 467 495 562 495ZM562 698L562 772 467 787 467 698ZM630 791L661 864C670 862 679 855 684 843L850 797 850 927 859 927C888 927 907 914 907 909L907 780 967 762 965 745 907 754 907 495 946 495C960 495 969 490 971 479 944 452 897 414 897 414L858 466 654 466 655 468 596 417 558 466 359 466 367 495 411 495 411 795C374 800 344 804 324 806L355 877C364 874 372 867 376 855L562 792 562 927 570 927C599 927 618 914 618 909L618 495 641 495C649 495 656 493 660 487L662 495 696 495 696 784ZM850 596L850 669 753 669 753 596ZM850 566L753 566 753 495 850 495ZM850 698L850 762 753 776 753 698ZM150 110L294 110 294 320 150 320ZM27 828L61 910C71 907 79 897 82 884 217 823 320 770 394 733L390 719 256 761 256 562 362 562C375 562 384 557 387 546 360 516 314 475 314 475L274 533 256 533 256 349 294 349 294 395 302 395C321 395 351 381 352 375L352 120C371 117 386 109 392 101L318 44 284 81 162 81 92 50 92 404 101 404C130 404 150 388 150 383L150 349 198 349 198 779 139 797 139 493C159 490 168 482 170 470L84 461 84 813Z"/>
</svg>