<svg xmlns="http://www.w3.org/2000/svg"
    viewBox="0 0 1000 1000">
  <!--
© 2017-2024 Adobe (http://www.adobe.com/).
Noto is a trademark of Google Inc.
This Font Software is licensed under the SIL Open Font License, Version 1.1. This Font Software is distributed on an "AS IS" BASIS, WITHOUT WARRANTIES OR CONDITIONS OF ANY KIND, either express or implied. See the SIL Open Font License for the specific language, permissions and limitations governing your use of this Font Software.
http://scripts.sil.org/OFL
  -->
<path d="M441 335L562 335 562 392 441 392ZM441 305L441 246 562 246 562 305ZM541 439C520 514 486 586 452 633L467 643C482 631 497 616 512 599L512 870 520 870C545 870 563 855 563 851L563 819 802 819C815 819 824 814 827 804 802 780 765 749 765 749L734 790 683 790 683 731 775 731C788 731 797 726 800 715 777 691 741 662 741 662L710 701 683 701 683 646 777 646C790 646 799 641 802 630 779 607 743 577 743 577L711 616 683 616 683 560 791 560C805 560 814 555 816 544 793 521 757 490 757 490L725 531 666 531 700 487C719 487 732 480 736 469L654 444C649 470 641 504 634 531L575 531 564 526 586 486C606 488 618 479 622 469L570 450C589 450 617 435 618 430L618 256C636 252 652 244 658 237L585 182 553 217 453 217 385 187 385 929 393 929C422 929 441 913 441 908L441 421 562 421 562 447ZM738 335L863 335 863 392 738 392ZM738 305L738 246 863 246 863 305ZM682 217L682 446 690 446C719 446 738 430 738 425L738 421 863 421 863 843C863 856 860 862 844 862 827 862 756 856 756 856L756 871C789 876 808 882 820 891 830 899 834 913 836 928 912 921 921 894 921 848L921 258C941 255 958 246 965 238L885 178 853 217 749 217 682 187ZM631 560L631 616 563 616 563 560ZM631 646L631 701 563 701 563 646ZM631 731L631 790 563 790 563 731ZM30 830L61 913C71 909 79 900 83 888 209 830 308 779 378 744L373 730 247 769 247 562 350 562C364 562 373 557 375 546 348 518 303 480 303 480L264 533 247 533 247 356 281 356 281 387 290 387C308 387 337 372 338 366L338 121C349 119 359 115 365 111L370 134 506 134 506 188 517 188C549 188 570 177 570 171L570 134 728 134 728 186 740 186C776 185 792 173 792 168L792 134 940 134C954 134 962 129 965 118 937 90 891 55 891 55L851 104 792 104 792 53C815 50 824 39 825 25L728 17 728 104 570 104 570 53C592 49 601 39 603 25L506 17 506 104 375 104 378 102 304 46 271 82 156 82 87 51 87 404 96 404C124 404 144 389 144 384L144 356 190 356 190 786 139 801 139 490C156 487 162 479 164 470L85 461 85 816ZM144 111L281 111 281 328 144 328Z"/>
</svg>