<svg xmlns="http://www.w3.org/2000/svg"
    viewBox="0 0 1000 1000">
  <!--
© 2017-2024 Adobe (http://www.adobe.com/).
Noto is a trademark of Google Inc.
This Font Software is licensed under the SIL Open Font License, Version 1.1. This Font Software is distributed on an "AS IS" BASIS, WITHOUT WARRANTIES OR CONDITIONS OF ANY KIND, either express or implied. See the SIL Open Font License for the specific language, permissions and limitations governing your use of this Font Software.
http://scripts.sil.org/OFL
  -->
<path d="M225 12C221 47 213 98 206 132L187 132 114 100 114 562 41 570 70 652C80 650 89 642 93 630 178 604 247 580 303 561 233 662 141 761 36 831L46 844C155 786 249 705 322 619L322 825C322 841 317 847 299 847 280 847 185 839 185 839L185 856C228 861 251 868 265 879 278 890 283 907 286 926 375 917 385 884 385 833L385 726 395 736C506 640 585 522 637 387L637 679 506 679 514 708 637 708 637 939 649 939C673 939 700 922 700 913L700 708 823 708C835 708 844 703 847 692 823 666 782 631 782 631L747 679 700 679 700 298C748 482 826 634 922 729 933 699 955 681 981 678L984 669C875 593 770 435 714 267L935 267C950 267 959 262 962 251 929 220 877 178 877 178L831 237 700 237 700 51C721 47 729 38 731 25L637 15 637 237 417 237 425 267 607 267C569 434 494 596 385 718L385 538C408 505 428 473 444 442 469 447 479 442 485 430L397 391 385 418 385 173C404 169 421 161 427 154L345 91 312 132 238 132C255 109 277 80 292 58 312 59 325 52 329 39ZM176 161L322 161 322 270 176 270ZM176 298L322 298 322 406 176 406ZM176 435L322 435 322 532 176 553Z"/>
</svg>