<svg xmlns="http://www.w3.org/2000/svg"
    viewBox="0 0 1000 1000">
  <!--
© 2017-2023 Adobe (http://www.adobe.com/).
Noto is a trademark of Google Inc.
This Font Software is licensed under the SIL Open Font License, Version 1.1. This Font Software is distributed on an "AS IS" BASIS, WITHOUT WARRANTIES OR CONDITIONS OF ANY KIND, either express or implied. See the SIL Open Font License for the specific language, permissions and limitations governing your use of this Font Software.
http://scripts.sil.org/OFL
  -->
<path d="M172 160L322 160 322 265 172 265ZM223 12C218 47 209 97 202 131L184 131 110 99 110 558 37 566 74 648C84 645 92 637 98 625 173 603 235 582 286 565 218 663 130 758 31 826L41 839C153 779 249 693 322 603L322 825C322 841 317 847 299 847 280 847 184 839 184 839L184 856C227 861 250 868 264 880 277 890 283 908 285 928 374 919 384 885 384 833L384 518C404 487 422 457 436 428 461 432 470 427 476 417L387 379 384 386 384 172C404 169 420 160 426 153L344 90 312 131 235 131 291 54C311 53 324 44 327 30ZM172 294L322 294 322 401 172 401ZM172 430L322 430 322 509 308 531 172 550ZM493 95C495 139 471 188 445 207 426 220 415 240 425 260 435 282 469 279 487 263 506 245 521 212 521 166L587 166C582 309 556 407 443 490L450 505C590 433 638 332 650 166L719 166 719 389C719 429 728 444 783 444L838 444C931 444 954 432 954 407 954 396 950 388 931 381L928 288 915 288C907 328 897 368 893 380 889 386 886 388 879 388 873 389 858 389 840 389L799 389C781 389 779 385 779 375L779 166 866 166C859 196 851 234 844 258L858 265C883 242 916 203 935 176 954 175 965 174 972 167L899 96 860 137 719 137 719 48C739 45 747 37 748 25L656 16 656 137 519 137C517 124 514 110 510 95ZM426 853L434 883 945 883C959 883 967 878 970 867 940 838 891 799 891 799L849 853 718 853 718 582 894 582C908 582 917 577 920 566 891 538 844 501 844 501L803 552 479 552 487 582 656 582 656 853Z"/>
</svg>