<svg xmlns="http://www.w3.org/2000/svg" name="gid12736" data-unicode="躾"
    viewBox="0 0 1000 1000">
  <!--
© 2017-2024 Adobe (http://www.adobe.com/).
Noto is a trademark of Google Inc.
This Font Software is licensed under the SIL Open Font License, Version 1.1. This Font Software is distributed on an "AS IS" BASIS, WITHOUT WARRANTIES OR CONDITIONS OF ANY KIND, either express or implied. See the SIL Open Font License for the specific language, permissions and limitations governing your use of this Font Software.
http://scripts.sil.org/OFL
  -->
<path d="M511 46L500 52C524 84 555 136 562 176 621 222 682 108 511 46ZM441 463L449 493 920 493C934 493 944 488 946 477 916 448 869 412 869 412L828 463 698 463 698 352 873 352C886 352 897 347 899 336 870 309 824 272 824 272L783 322 698 322 698 220 907 220C921 220 930 215 933 204 904 176 858 140 858 140L817 190 731 190C766 159 799 119 821 88 841 89 853 81 857 69L760 41C749 86 727 147 705 190L437 190 445 220 634 220 634 322 468 322 476 352 634 352 634 463ZM625 505C624 550 623 591 618 629L402 629 410 657 614 657C596 773 543 862 389 940L400 959C603 882 661 783 682 657 707 758 760 886 909 957 915 921 934 911 966 905L967 893C806 834 735 743 704 657L943 657C957 657 967 652 969 642 937 612 885 572 885 572L839 629 686 629C690 601 692 572 694 541 715 538 725 527 727 514ZM171 190L320 190 320 297 171 297ZM223 42C218 77 209 127 202 161L183 161 109 129 109 589 38 598 66 680C76 678 86 669 90 657 170 632 237 610 292 591 224 693 136 791 35 861L46 874C155 814 248 728 320 640L320 856C320 871 315 877 297 877 277 877 182 870 182 870L182 886C225 892 248 899 262 910 275 920 281 937 283 957 373 948 382 915 382 863L382 556C404 522 423 489 439 458 464 461 473 457 479 447L389 408 382 425 382 202C402 199 418 190 424 183L342 120 311 161 235 161 290 87C310 88 322 81 326 67ZM171 326L320 326 320 434 171 434ZM171 462L320 462 320 546 312 559 171 580Z"/>
</svg>