<svg xmlns="http://www.w3.org/2000/svg"
    viewBox="0 0 1000 1000">
  <!--
© 2017-2023 Adobe (http://www.adobe.com/).
Noto is a trademark of Google Inc.
This Font Software is licensed under the SIL Open Font License, Version 1.1. This Font Software is distributed on an "AS IS" BASIS, WITHOUT WARRANTIES OR CONDITIONS OF ANY KIND, either express or implied. See the SIL Open Font License for the specific language, permissions and limitations governing your use of this Font Software.
http://scripts.sil.org/OFL
  -->
<path d="M511 16L500 22C524 54 555 106 562 146 621 192 682 78 511 16ZM441 433L449 463 920 463C934 463 944 458 946 447 916 418 869 382 869 382L828 433 698 433 698 322 873 322C886 322 897 317 899 306 870 279 824 242 824 242L783 292 698 292 698 190 907 190C921 190 930 185 933 174 904 146 858 110 858 110L817 160 731 160C766 129 799 89 821 58 841 59 853 51 857 39L760 11C749 56 727 117 705 160L437 160 445 190 634 190 634 292 468 292 476 322 634 322 634 433ZM625 475C624 520 623 561 618 599L402 599 410 627 614 627C596 743 543 832 389 910L400 929C603 852 661 753 682 627 707 728 760 856 909 927 915 891 934 881 966 875L967 863C806 804 735 713 704 627L943 627C957 627 967 622 969 612 937 582 885 542 885 542L839 599 686 599C690 571 692 542 694 511 715 508 725 497 727 484ZM171 160L320 160 320 267 171 267ZM223 12C218 47 209 97 202 131L183 131 109 99 109 559 38 568 66 650C76 648 86 639 90 627 170 602 237 580 292 561 224 663 136 761 35 831L46 844C155 784 248 698 320 610L320 826C320 841 315 847 297 847 277 847 182 840 182 840L182 856C225 862 248 869 262 880 275 890 281 907 283 927 373 918 382 885 382 833L382 526C404 492 423 459 439 428 464 431 473 427 479 417L389 378 382 395 382 172C402 169 418 160 424 153L342 90 311 131 235 131 290 57C310 58 322 51 326 37ZM171 296L320 296 320 404 171 404ZM171 432L320 432 320 516 312 529 171 550Z"/>
</svg>