<svg xmlns="http://www.w3.org/2000/svg"
    viewBox="0 0 1000 1000">
  <!--
© 2017-2024 Adobe (http://www.adobe.com/).
Noto is a trademark of Google Inc.
This Font Software is licensed under the SIL Open Font License, Version 1.1. This Font Software is distributed on an "AS IS" BASIS, WITHOUT WARRANTIES OR CONDITIONS OF ANY KIND, either express or implied. See the SIL Open Font License for the specific language, permissions and limitations governing your use of this Font Software.
http://scripts.sil.org/OFL
  -->
<path d="M674 539L674 822 554 822 554 539ZM734 539L858 539 858 822 734 822ZM674 509L554 509 554 262 674 262ZM734 509L734 262 858 262 858 509ZM493 232L493 925 503 925C531 925 554 909 554 902L554 852 858 852 858 917 867 917C890 917 920 898 921 889L921 271C938 267 953 260 959 253L884 194 848 232 734 232 734 52C759 48 767 38 770 24L674 14 674 232 559 232 493 201ZM78 263L78 626 88 626C113 626 137 613 137 608L137 571 218 571 218 692 31 692 38 721 218 721 218 929 228 929C259 929 280 913 280 908L280 721 463 721C477 721 486 716 489 705 457 676 405 635 405 635L361 692 280 692 280 571 363 571 363 614 372 614C392 614 421 598 422 591L422 298C438 295 450 288 455 282L387 229 356 263 280 263 280 172 455 172C469 172 479 167 482 156 449 127 398 86 398 86L353 144 280 144 280 48C302 44 312 35 313 22L218 13 218 144 37 144 45 172 218 172 218 263 143 263 78 233ZM220 434L220 542 137 542 137 434ZM278 434L363 434 363 542 278 542ZM220 405L137 405 137 292 220 292ZM278 405L278 292 363 292 363 405Z"/>
</svg>