<svg xmlns="http://www.w3.org/2000/svg" name="gid12771" data-unicode="軾"
    viewBox="0 0 1000 1000">
  <!--
© 2017-2024 Adobe (http://www.adobe.com/).
Noto is a trademark of Google Inc.
This Font Software is licensed under the SIL Open Font License, Version 1.1. This Font Software is distributed on an "AS IS" BASIS, WITHOUT WARRANTIES OR CONDITIONS OF ANY KIND, either express or implied. See the SIL Open Font License for the specific language, permissions and limitations governing your use of this Font Software.
http://scripts.sil.org/OFL
  -->
<path d="M809 78L799 86C824 109 850 147 855 181 905 220 956 119 809 78ZM421 255L428 278 717 278C719 334 722 389 727 442 700 417 662 384 662 384L624 433 444 433 452 461 555 461 555 777C498 790 451 801 422 806L463 881C472 878 480 870 483 857 600 811 687 773 749 745L745 729 616 762 616 461 706 461C717 461 725 458 728 451 744 618 776 766 843 884 869 932 923 973 954 949 966 940 962 920 940 874L958 714 945 712C934 750 918 797 908 820 899 842 896 842 886 821 805 690 783 486 779 278L939 278C951 278 960 273 962 264 931 236 881 198 881 198L835 255 778 255C777 197 778 139 779 82 805 79 814 67 816 54L713 42C713 115 714 186 716 255ZM83 298L83 664 92 664C116 664 141 650 141 645L141 606 216 606 216 721 38 721 46 750 216 750 216 956 226 956C258 956 278 940 278 935L278 750 461 750C475 750 485 745 487 734 457 705 407 665 407 665L363 721 278 721 278 606 362 606 362 650 370 650C391 650 420 636 421 629L421 332C436 330 449 323 454 316L386 263 354 298 279 298 279 207 450 207C464 207 473 202 476 191 444 161 392 120 392 120L347 178 279 178 279 78C301 74 311 65 312 52L217 43 217 178 43 178 51 207 217 207 217 298 146 298 83 268ZM218 465L218 578 141 578 141 465ZM276 465L362 465 362 578 276 578ZM218 436L141 436 141 326 218 326ZM276 436L276 326 362 326 362 436Z"/>
</svg>