<svg xmlns="http://www.w3.org/2000/svg" name="gid12774" data-unicode="較"
    viewBox="0 0 1000 1000">
  <!--
© 2017-2024 Adobe (http://www.adobe.com/).
Noto is a trademark of Google Inc.
This Font Software is licensed under the SIL Open Font License, Version 1.1. This Font Software is distributed on an "AS IS" BASIS, WITHOUT WARRANTIES OR CONDITIONS OF ANY KIND, either express or implied. See the SIL Open Font License for the specific language, permissions and limitations governing your use of this Font Software.
http://scripts.sil.org/OFL
  -->
<path d="M776 275L764 282C814 336 879 426 895 493 965 542 1013 390 776 275ZM593 271C560 367 506 455 453 508L467 519C534 478 599 408 644 325 665 328 677 321 682 310ZM83 297L83 654 93 654C117 654 143 641 143 634L143 603 227 603 227 718 37 718 45 748 227 748 227 956 236 956C268 956 289 940 289 935L289 748 476 748C489 748 499 743 502 732 470 702 418 662 418 662L373 718 289 718 289 603 376 603 376 640 385 640C406 640 436 624 437 618L437 332C451 329 465 322 470 316L401 262 368 297 289 297 289 206 464 206 469 205 477 234 937 234C950 234 960 229 963 218 930 187 878 145 878 145L831 205 733 205 733 82C756 78 765 69 767 55L668 46 668 205 474 205C482 203 488 198 490 190 458 161 406 120 406 120L360 177 289 177 289 78C312 74 320 65 322 52L227 43 227 177 43 177 51 206 227 206 227 297 148 297 83 267ZM775 457C757 548 729 625 691 691 644 628 610 552 589 464L571 472C590 575 620 662 663 735 594 832 502 900 394 944L404 959C521 926 618 870 695 783 749 857 821 914 911 957 923 924 946 904 976 901L978 891C879 858 795 807 730 738 774 676 809 600 834 508 856 509 868 500 872 487ZM229 465L229 574 143 574 143 465ZM288 465L376 465 376 574 288 574ZM229 436L143 436 143 325 229 325ZM288 436L288 325 376 325 376 436Z"/>
</svg>