<svg xmlns="http://www.w3.org/2000/svg"
    viewBox="0 0 1000 1000">
  <!--
© 2017-2023 Adobe (http://www.adobe.com/).
Noto is a trademark of Google Inc.
This Font Software is licensed under the SIL Open Font License, Version 1.1. This Font Software is distributed on an "AS IS" BASIS, WITHOUT WARRANTIES OR CONDITIONS OF ANY KIND, either express or implied. See the SIL Open Font License for the specific language, permissions and limitations governing your use of this Font Software.
http://scripts.sil.org/OFL
  -->
<path d="M480 300L480 700C448 670 399 632 399 632L354 688 284 688 284 573 367 573 367 610 376 610C396 610 425 596 426 589L426 302C442 299 454 292 459 285L391 233 360 267 284 267 284 176 450 176 453 176 460 202 662 202 662 300 545 300 480 270ZM82 267L82 624 92 624C116 624 141 611 141 605L141 573 222 573 222 688 38 688 46 718 222 718 222 929 232 929C263 929 284 913 284 908L284 718 455 718C468 718 477 714 480 705L480 926 490 926C517 926 540 911 540 903L540 662 662 662 662 914 675 914C697 914 722 899 722 889L722 662 856 662 856 827C856 840 853 844 841 844 828 844 775 840 775 840L775 856C802 860 817 868 825 877 834 887 836 907 838 925 909 918 917 887 917 835L917 341C937 338 953 330 959 322L878 261 846 300 722 300 722 202 941 202C954 202 963 197 966 186 940 162 903 131 891 121 911 100 897 45 786 32L776 41C805 60 837 94 849 123 857 128 865 130 871 130L837 173 722 173 722 60C750 56 758 46 761 30L662 19 662 173 465 173C471 171 475 166 477 160 445 131 393 90 393 90L348 147 284 147 284 48C306 44 315 35 317 22L222 13 222 147 43 147 51 176 222 176 222 267 147 267 82 237ZM540 491L662 491 662 633 540 633ZM540 462L540 330 662 330 662 462ZM856 491L856 633 722 633 722 491ZM856 462L722 462 722 330 856 330ZM224 435L224 544 141 544 141 435ZM282 435L367 435 367 544 282 544ZM224 406L141 406 141 295 224 295ZM282 406L282 295 367 295 367 406Z"/>
</svg>