<svg xmlns="http://www.w3.org/2000/svg"
    viewBox="0 0 1000 1000">
  <!--
© 2017-2024 Adobe (http://www.adobe.com/).
Noto is a trademark of Google Inc.
This Font Software is licensed under the SIL Open Font License, Version 1.1. This Font Software is distributed on an "AS IS" BASIS, WITHOUT WARRANTIES OR CONDITIONS OF ANY KIND, either express or implied. See the SIL Open Font License for the specific language, permissions and limitations governing your use of this Font Software.
http://scripts.sil.org/OFL
  -->
<path d="M669 14C641 38 595 76 559 105L494 83 494 569 502 569C537 569 555 554 556 549L556 522 607 522C594 701 544 819 379 913L386 928C586 848 656 725 676 522L731 522 731 849C731 892 741 909 799 909L854 909C950 909 974 896 974 870 974 857 970 849 951 842L947 740 935 740C927 782 917 828 911 840 907 846 904 848 897 848 891 849 876 849 857 849L816 849C798 849 795 845 795 832L795 522 857 522 857 563 867 563C888 563 919 547 920 542L920 149C940 145 955 137 962 129L883 69 847 108 736 108 745 137 857 137 857 297 743 297 752 327 857 327 857 493 556 493 556 327 672 327C686 327 695 322 698 311 674 287 636 253 636 253L602 297 556 297 556 134C579 131 590 125 592 116 635 101 682 84 711 72 730 78 740 75 744 67ZM220 14L220 149 43 149 51 178 220 178 220 280 147 280 83 250 83 633 92 633C116 633 142 619 142 613L142 582 221 582 221 697 37 697 45 726 221 726 221 929 230 929C262 929 283 913 283 908L283 726 464 726C478 726 488 721 490 710 458 681 407 641 407 641L362 697 283 697 283 582 365 582 365 623 374 623C396 623 425 607 426 600L426 315C441 313 454 306 459 299L390 245 358 280 283 280 283 178 463 178C477 178 486 173 489 162 457 132 406 91 406 91L360 149 283 149 283 49C305 45 313 36 315 23ZM142 445L222 445 222 552 142 552ZM142 416L142 309 222 309 222 416ZM365 445L365 552 281 552 281 445ZM365 416L281 416 281 309 365 309Z"/>
</svg>