<svg xmlns="http://www.w3.org/2000/svg" name="gid12805" data-unicode="輫"
    viewBox="0 0 1000 1000">
  <!--
© 2017-2024 Adobe (http://www.adobe.com/).
Noto is a trademark of Google Inc.
This Font Software is licensed under the SIL Open Font License, Version 1.1. This Font Software is distributed on an "AS IS" BASIS, WITHOUT WARRANTIES OR CONDITIONS OF ANY KIND, either express or implied. See the SIL Open Font License for the specific language, permissions and limitations governing your use of this Font Software.
http://scripts.sil.org/OFL
  -->
<path d="M214 42L214 180 43 180 51 209 214 209 214 311 150 311 86 281 86 663 96 663C120 663 145 649 145 643L145 612 214 612 214 727 40 727 48 757 214 757 214 957 224 957C255 957 276 941 277 936L277 757 440 757C453 757 463 752 465 741 434 712 383 672 383 672L338 727 277 727 277 612 350 612 350 653 359 653C380 653 409 637 410 629L410 349C427 345 442 337 448 330L375 274 341 311 276 311 276 209 438 209C451 209 460 204 463 193 432 163 381 123 381 123L338 180 276 180 276 77C299 74 308 65 310 51ZM217 476L217 583 145 583 145 476ZM274 476L350 476 350 583 274 583ZM217 447L145 447 145 339 217 339ZM274 447L274 339 350 339 350 447ZM732 42L732 958 744 958C767 958 792 943 792 933L792 700 942 700C956 700 965 695 967 684 939 656 893 618 893 618L852 671 792 671 792 481 925 481C938 481 948 476 950 465 922 437 878 400 878 400L837 451 792 451 792 270 934 270C948 270 957 265 960 254 932 227 886 189 886 189L846 242 792 242 792 80C818 76 826 66 828 52ZM437 671L479 743C489 739 494 729 497 718L573 654C555 772 509 869 414 948L428 961C595 851 642 697 643 499L643 78C669 74 677 64 680 50L584 41 584 241 449 241 458 270 584 270 584 451 461 451 470 481 584 481 584 500C584 543 582 583 578 621 520 643 465 662 437 671Z"/>
</svg>