<svg xmlns="http://www.w3.org/2000/svg"
    viewBox="0 0 1000 1000">
  <!--
© 2017-2024 Adobe (http://www.adobe.com/).
Noto is a trademark of Google Inc.
This Font Software is licensed under the SIL Open Font License, Version 1.1. This Font Software is distributed on an "AS IS" BASIS, WITHOUT WARRANTIES OR CONDITIONS OF ANY KIND, either express or implied. See the SIL Open Font License for the specific language, permissions and limitations governing your use of this Font Software.
http://scripts.sil.org/OFL
  -->
<path d="M456 315L464 345 612 345C626 345 634 340 637 329 614 306 578 278 578 278L547 315ZM747 431L755 460 913 460C926 460 935 455 938 444 914 420 877 391 877 391L844 431ZM455 433L463 462 611 462C624 462 633 457 636 446 613 423 576 395 576 395L545 433ZM80 272L80 638 90 638C113 638 138 624 138 618L138 581 213 581 213 704 37 704 45 734 213 734 213 926 222 926C254 926 274 910 275 905L275 734 431 734C445 734 454 729 456 718 428 689 381 652 381 652L341 704 275 704 275 581 348 581 348 623 357 623C376 623 406 609 407 603L407 307C416 306 424 303 429 300 443 309 466 304 478 292 493 278 503 251 504 216L661 216 661 526 670 526C702 526 722 512 722 508L722 216 871 216C864 236 855 257 848 271L859 277 827 315 748 315 756 345 894 345C907 345 915 340 918 329 899 308 869 284 862 279 887 266 921 243 939 225 959 224 969 223 977 216L907 148 869 187 722 187 722 105 921 105C935 105 944 100 947 90 916 60 866 20 866 20L823 76 472 76 480 105 661 105 661 187 503 187C502 177 501 165 498 154L480 153C481 186 459 227 440 243 428 251 420 263 419 274L371 238 340 272 275 272 275 177 423 177C437 177 446 172 449 161 419 131 368 90 368 90L325 148 275 148 275 48C298 44 307 35 309 22L213 13 213 148 43 148 51 177 213 177 213 272 143 272 80 242ZM484 833L493 863 805 863 805 928 815 928C835 928 867 913 868 906L868 718 952 718C965 718 974 713 976 702 953 675 912 637 912 637L877 688 868 688 868 593C886 590 901 582 906 575L830 517 796 554 489 554 498 584 805 584 805 688 455 688 463 718 805 718 805 833ZM215 439L215 553 138 553 138 439ZM272 439L348 439 348 553 272 553ZM215 410L138 410 138 301 215 301ZM272 410L272 301 348 301 348 410Z"/>
</svg>