<svg xmlns="http://www.w3.org/2000/svg"
    viewBox="0 0 1000 1000">
  <!--
© 2017-2023 Adobe (http://www.adobe.com/).
Noto is a trademark of Google Inc.
This Font Software is licensed under the SIL Open Font License, Version 1.1. This Font Software is distributed on an "AS IS" BASIS, WITHOUT WARRANTIES OR CONDITIONS OF ANY KIND, either express or implied. See the SIL Open Font License for the specific language, permissions and limitations governing your use of this Font Software.
http://scripts.sil.org/OFL
  -->
<path d="M838 29C827 65 796 133 772 176L783 183C824 151 870 109 894 83 914 86 926 76 928 67ZM486 38L474 45C499 78 529 131 535 173 590 218 646 107 486 38ZM214 12L214 150 43 150 51 179 214 179 214 275 150 275 86 245 86 627 96 627C120 627 145 614 145 608L145 577 214 577 214 692 40 692 48 722 214 722 214 927 224 927C255 927 276 911 276 906L276 722 440 722C452 722 463 717 465 706L438 682C450 670 461 657 472 642 494 665 512 698 513 727 525 736 536 738 545 734 510 805 459 866 385 914L394 930C559 848 624 712 655 561 674 560 685 557 691 550L691 732 627 732 635 761 804 761 804 928 815 928C835 928 859 915 859 908L859 761 950 761C964 761 972 756 974 746 952 721 913 688 913 688L880 732 859 732 859 572 935 572C949 572 958 567 960 556 937 532 900 501 900 501L868 543 859 543 859 482C883 479 892 470 894 456L804 446 804 543 755 543 691 514 691 547 630 493 596 527 535 527 551 485C572 486 582 477 585 466L501 443C485 528 457 609 421 667L383 636 338 692 276 692 276 577 350 577 350 618 359 618C380 618 409 601 410 594L410 313C427 310 442 302 447 295L374 238 341 275 276 275 276 179 437 179C451 179 460 174 463 163 432 133 381 93 381 93L338 150 276 150 276 47C299 44 308 35 310 21ZM217 440L217 548 145 548 145 440ZM274 440L350 440 350 548 274 548ZM217 411L145 411 145 304 217 304ZM274 411L274 304 350 304 350 411ZM482 628C497 606 511 582 523 556L600 556C592 605 579 653 561 697 557 675 535 647 482 628ZM742 572L804 572 804 732 742 732ZM655 12L655 217 435 217 443 245 606 245C563 318 500 386 425 437L436 454C525 410 601 353 655 282L655 463 667 463C690 463 715 450 715 443L715 245C759 332 834 401 910 440 918 411 936 394 960 391L961 380C883 356 796 307 741 245L936 245C950 245 960 240 963 229 932 201 884 163 884 163L841 217 715 217 715 49C740 46 749 36 752 22Z"/>
</svg>