<svg xmlns="http://www.w3.org/2000/svg"
    viewBox="0 0 1000 1000">
  <!--
© 2017-2023 Adobe (http://www.adobe.com/).
Noto is a trademark of Google Inc.
This Font Software is licensed under the SIL Open Font License, Version 1.1. This Font Software is distributed on an "AS IS" BASIS, WITHOUT WARRANTIES OR CONDITIONS OF ANY KIND, either express or implied. See the SIL Open Font License for the specific language, permissions and limitations governing your use of this Font Software.
http://scripts.sil.org/OFL
  -->
<path d="M519 244L527 273 701 273C713 273 722 268 725 257 702 233 665 202 665 202L632 244ZM616 617L607 626C647 653 693 705 704 749 769 790 810 653 616 617ZM805 668L793 676C844 721 903 796 914 859 981 907 1029 755 805 668ZM467 672C465 733 428 794 394 817 374 831 364 853 374 872 387 893 423 888 444 869 476 840 506 771 484 673ZM547 659L547 856C547 897 558 912 619 912L694 912C806 912 832 900 832 873 832 862 828 855 809 849L806 758 793 758C785 798 775 835 769 846 765 854 762 855 755 855 747 856 723 856 696 856L633 856C609 856 606 854 606 842L606 692C623 690 632 681 634 670ZM529 346L529 572 537 572C557 572 579 559 579 555L579 524 652 524 652 559 660 559C676 559 702 546 703 540L703 374C713 372 723 367 727 363L672 320 646 346 583 346 529 320ZM579 495L579 375 652 375 652 495ZM866 234C853 290 835 342 814 391 791 322 779 244 774 166L943 166C957 166 966 161 969 151 942 124 898 90 896 88 900 64 879 28 801 15L792 21 709 13C710 55 711 97 714 137L509 137 440 106 440 296C440 405 440 523 391 621L405 632C494 536 497 398 497 295L497 166 716 166C725 274 744 373 781 459 751 514 717 561 680 598L694 609C733 581 769 545 801 502 819 536 840 567 865 595 893 628 944 654 965 629 973 619 971 606 949 572L962 448 949 445C940 478 927 517 918 535 911 552 906 552 895 538 872 513 853 483 837 450 868 400 894 344 914 284 936 285 948 277 952 265ZM773 137C771 107 771 77 771 48 787 46 796 39 799 30 819 50 838 80 842 104 853 112 864 113 873 111L852 137ZM76 263L76 627 86 627C108 627 132 614 132 609L132 572 196 572 196 689 36 689 44 719 196 719 196 925 205 925C237 925 256 909 256 904L256 719 403 719C417 719 426 714 429 703 400 675 353 637 353 637L311 689 256 689 256 572 324 572 324 618 332 618C352 618 379 602 380 594L380 295C393 292 405 286 409 282L347 232 317 263 256 263 256 180 401 180C414 180 425 175 427 164 397 136 349 97 349 97L307 151 256 151 256 47C278 44 288 35 290 21L196 12 196 151 43 151 51 180 196 180 196 263 137 263 76 234ZM199 432L199 543 132 543 132 432ZM253 432L324 432 324 543 253 543ZM199 404L132 404 132 292 199 292ZM253 404L253 292 324 292 324 404Z"/>
</svg>