<svg xmlns="http://www.w3.org/2000/svg"
    viewBox="0 0 1000 1000">
  <!--
© 2017-2023 Adobe (http://www.adobe.com/).
Noto is a trademark of Google Inc.
This Font Software is licensed under the SIL Open Font License, Version 1.1. This Font Software is distributed on an "AS IS" BASIS, WITHOUT WARRANTIES OR CONDITIONS OF ANY KIND, either express or implied. See the SIL Open Font License for the specific language, permissions and limitations governing your use of this Font Software.
http://scripts.sil.org/OFL
  -->
<path d="M94 214L80 218C101 262 121 330 117 383 169 438 238 319 94 214ZM661 216L647 222C672 265 694 333 691 386 744 441 811 319 661 216ZM355 258L364 286 423 286C421 497 400 739 244 903L260 915C450 761 479 502 482 286L556 286C549 638 532 790 501 822 492 831 486 833 469 833 451 833 412 830 386 828L385 846C409 850 432 858 441 867 451 876 453 891 453 909 486 909 521 898 544 869 584 821 605 673 612 293 633 291 644 286 652 278L580 218 547 258 482 258 482 55C507 51 515 41 517 27L423 18 423 258ZM36 624L74 705C83 702 92 694 96 683L175 656C168 744 141 837 58 913L70 926C201 848 231 734 237 633L369 584 366 569 239 592 239 582 239 457 372 457C385 457 394 452 397 441 370 413 325 377 325 377L286 428 237 428C271 374 304 308 324 260 345 261 357 253 361 241L266 213C254 277 234 365 214 428L38 428 46 457 178 457 178 582 178 602C117 612 67 620 36 624ZM177 16L177 168 45 168 53 197 359 197C372 197 381 192 384 181 357 154 312 119 312 119L273 168 238 168 238 51C260 47 269 38 271 25ZM748 14L748 167 618 167 626 197 940 197C954 197 962 192 964 181 936 153 891 116 891 116L851 167 808 167 808 49C830 45 838 36 840 23ZM840 214C828 279 808 364 785 429L612 429 620 459 747 459 747 622 614 622 622 652 747 652 747 927 757 927C788 927 808 912 808 908L808 652 943 652C957 652 966 647 969 636 941 608 896 571 896 571L857 622 808 622 808 459 945 459C959 459 967 454 970 443 943 415 898 379 898 379L860 429 810 429C845 376 878 312 898 265 919 266 931 258 935 247Z"/>
</svg>