<svg xmlns="http://www.w3.org/2000/svg"
    viewBox="0 0 1000 1000">
  <!--
© 2017-2024 Adobe (http://www.adobe.com/).
Noto is a trademark of Google Inc.
This Font Software is licensed under the SIL Open Font License, Version 1.1. This Font Software is distributed on an "AS IS" BASIS, WITHOUT WARRANTIES OR CONDITIONS OF ANY KIND, either express or implied. See the SIL Open Font License for the specific language, permissions and limitations governing your use of this Font Software.
http://scripts.sil.org/OFL
  -->
<path d="M94 214L80 218C101 262 121 330 117 383 169 438 238 319 94 214ZM661 216L647 222C672 265 694 333 691 386 744 441 811 319 661 216ZM178 16L178 168 45 168 53 197 353 197 357 196C385 225 419 272 426 310 472 342 510 275 437 221 468 182 502 128 529 81 550 82 561 74 566 63L474 31C457 91 435 158 416 207 404 201 389 194 372 188 375 187 376 184 377 181 350 154 306 119 306 119L267 168 239 168 239 51C261 47 269 38 271 25ZM840 214C828 279 807 365 784 430L617 430C601 408 576 384 538 361L525 367C538 388 552 416 563 444L443 455C498 379 555 291 587 232 605 236 617 234 622 224L537 182C510 256 461 369 414 457L335 463 366 534C375 532 383 526 388 514L464 495 464 576 374 557C365 657 341 757 308 826L324 836C374 778 410 691 433 599 451 598 461 590 464 579L464 927 473 927C502 927 522 912 522 907L522 480 572 466C578 485 582 503 584 519 619 549 654 514 633 460L747 460 747 622 614 622 617 633C602 610 581 584 552 559L538 564C563 617 589 698 586 760 626 802 672 741 627 652L747 652 747 927 757 927C788 927 808 912 808 907L808 652 943 652C957 652 966 647 969 636 941 608 896 571 896 571L857 622 808 622 808 460 945 460C959 460 967 455 970 444 943 416 898 381 898 381L860 430 809 430C844 377 878 312 898 265 919 266 931 258 935 247ZM36 624L74 705C83 702 92 694 96 683L176 655C168 744 142 836 55 913L67 925C202 847 231 734 237 633L363 585 360 570 239 592 239 585 239 458 372 458C385 458 394 453 397 442 370 415 325 378 325 378L286 429 234 429C268 374 302 309 322 259 343 260 355 252 359 240L264 212C252 276 232 365 212 429L38 429 46 458 178 458 178 585 178 602C117 613 66 620 36 624ZM748 14L748 167 618 167 626 197 940 197C954 197 962 192 964 181 936 153 891 116 891 116L851 167 808 167 808 49C830 45 838 36 840 23Z"/>
</svg>