<svg xmlns="http://www.w3.org/2000/svg" name="gid12868" data-unicode="辯"
    viewBox="0 0 1000 1000">
  <!--
© 2017-2024 Adobe (http://www.adobe.com/).
Noto is a trademark of Google Inc.
This Font Software is licensed under the SIL Open Font License, Version 1.1. This Font Software is distributed on an "AS IS" BASIS, WITHOUT WARRANTIES OR CONDITIONS OF ANY KIND, either express or implied. See the SIL Open Font License for the specific language, permissions and limitations governing your use of this Font Software.
http://scripts.sil.org/OFL
  -->
<path d="M376 125L384 155 594 155C607 155 617 150 619 139 590 111 542 73 542 73L500 125ZM374 376L382 405 586 405C600 405 609 400 612 389 585 363 542 329 542 329L503 376ZM376 502L384 531 588 531C601 531 611 526 614 515 586 490 543 455 543 455L504 502ZM94 241L80 245C101 289 121 357 117 410 169 465 238 346 94 241ZM661 243L647 247C672 291 694 358 691 412 744 466 811 344 661 243ZM36 648L74 729C84 726 92 718 97 706L176 678C169 770 144 864 58 945L70 958C205 877 232 758 238 655L359 608 357 593 239 615 239 613 239 488 372 488C385 488 394 483 397 472 370 444 325 408 325 408L286 458 235 458C270 404 304 337 324 288 338 289 349 285 353 278L354 280 629 280C642 280 651 275 654 264 625 236 579 199 579 199L539 250 346 250 350 266 266 239C254 305 234 394 214 458L38 458 46 488 178 488 178 613 178 625ZM543 643L543 818 431 818 431 643ZM840 240C828 306 807 393 783 458L612 458 620 488 747 488 747 644 619 644C627 641 633 637 636 634L566 581 535 614 435 614 371 585 371 927 380 927C405 927 431 912 431 906L431 847 543 847 543 905 552 905C570 905 600 890 601 884L601 650 614 646 622 674 747 674 747 957 757 957C788 957 808 942 808 938L808 674 943 674C957 674 966 669 969 658 941 631 896 593 896 593L857 644 808 644 808 488 945 488C959 488 967 483 970 472 943 444 898 409 898 409L860 458 807 458C843 405 877 339 898 290 919 292 931 283 935 272ZM178 46L178 195 45 195 53 224 360 224C373 224 382 219 385 208 357 181 313 146 313 146L274 195 239 195 239 81C261 77 269 68 271 55ZM748 44L748 192 618 192 626 222 940 222C954 222 962 217 964 206 936 179 891 141 891 141L851 192 808 192 808 79C830 75 838 66 840 53Z"/>
</svg>