<svg xmlns="http://www.w3.org/2000/svg" name="gid12872" data-unicode="辴"
    viewBox="0 0 1000 1000">
  <!--
© 2017-2024 Adobe (http://www.adobe.com/).
Noto is a trademark of Google Inc.
This Font Software is licensed under the SIL Open Font License, Version 1.1. This Font Software is distributed on an "AS IS" BASIS, WITHOUT WARRANTIES OR CONDITIONS OF ANY KIND, either express or implied. See the SIL Open Font License for the specific language, permissions and limitations governing your use of this Font Software.
http://scripts.sil.org/OFL
  -->
<path d="M591 264L599 294 882 294C896 294 905 289 908 278 878 249 828 208 828 208L784 264ZM880 476C860 511 820 575 783 623 767 570 755 511 747 448L934 448C948 448 958 443 960 432 929 402 877 361 877 361L831 419 564 419 564 398 564 149 921 149C936 149 945 144 948 133 915 103 864 62 864 62L818 119 576 119 505 88 505 398C505 520 501 645 472 760 443 733 402 699 402 699L362 752 291 752 291 656 387 656 387 687 397 687C423 687 446 673 446 669L446 393C465 389 476 383 482 377L414 323 384 360 150 360 81 329 81 705 90 705C119 705 138 692 138 686L138 656 231 656 231 752 43 752 51 780 231 780 231 955 241 955C271 955 291 941 291 936L291 780 452 780C458 780 464 779 468 777 452 835 429 890 397 941L413 951C541 809 561 614 564 448L610 448 610 857 534 876 581 953C590 949 597 941 600 929 687 884 753 846 797 820L793 806 668 842 668 448 727 448C744 679 791 844 913 955 926 925 949 909 974 907L977 898C889 841 829 755 791 645 841 611 895 568 923 540 943 547 957 540 962 532ZM61 97L61 328 68 328C96 328 113 314 113 310L113 281 184 281 184 312 192 312C217 312 239 298 239 294L239 129C257 126 267 121 273 114L209 65 181 97 125 97 61 69ZM113 251L113 126 184 126 184 251ZM138 519L231 519 231 627 138 627ZM138 490L138 388 231 388 231 490ZM387 519L387 627 291 627 291 519ZM387 490L291 490 291 388 387 388ZM281 97L281 326 289 326C316 326 334 313 334 309L334 281 405 281 405 311 413 311C438 311 460 297 460 293L460 129C478 126 488 121 495 114L430 65 402 97 346 97 281 69ZM334 251L334 126 405 126 405 251Z"/>
</svg>