<svg xmlns="http://www.w3.org/2000/svg"
    viewBox="0 0 1000 1000">
  <!--
© 2017-2023 Adobe (http://www.adobe.com/).
Noto is a trademark of Google Inc.
This Font Software is licensed under the SIL Open Font License, Version 1.1. This Font Software is distributed on an "AS IS" BASIS, WITHOUT WARRANTIES OR CONDITIONS OF ANY KIND, either express or implied. See the SIL Open Font License for the specific language, permissions and limitations governing your use of this Font Software.
http://scripts.sil.org/OFL
  -->
<path d="M103 36L93 45C138 79 198 138 216 186 287 222 322 80 103 36ZM61 242L52 251C100 281 161 337 182 382 254 417 283 273 61 242ZM241 551C267 548 282 540 289 533L203 462 164 512 38 512 44 542 178 542 178 768C127 798 73 828 38 844L85 925C94 920 98 914 96 902 132 870 190 812 227 768 299 880 380 902 564 902 676 902 814 902 914 902 918 872 935 853 965 848L965 834C842 838 681 838 562 838 388 838 312 826 241 748ZM429 92L429 358 305 358 312 388 665 388C585 508 457 629 314 709L324 724C497 649 648 535 744 401L744 687C744 703 739 708 719 708 696 708 584 700 584 700L584 716C634 722 661 729 678 740 692 750 698 767 700 786 796 777 809 740 809 689L809 388 939 388C953 388 963 383 965 372 932 341 879 297 879 297L831 358 809 358 809 121 908 121C922 121 932 116 935 105 899 75 845 36 845 36L797 92 506 92 429 59ZM744 358L493 358 493 121 744 121Z"/>
</svg>