<svg xmlns="http://www.w3.org/2000/svg"
    viewBox="0 0 1000 1000">
  <!--
© 2017-2023 Adobe (http://www.adobe.com/).
Noto is a trademark of Google Inc.
This Font Software is licensed under the SIL Open Font License, Version 1.1. This Font Software is distributed on an "AS IS" BASIS, WITHOUT WARRANTIES OR CONDITIONS OF ANY KIND, either express or implied. See the SIL Open Font License for the specific language, permissions and limitations governing your use of this Font Software.
http://scripts.sil.org/OFL
  -->
<path d="M103 35L93 45C138 78 198 137 216 185 287 222 322 80 103 35ZM61 241L52 250C100 281 161 336 182 382 254 416 283 272 61 241ZM241 551C267 548 282 539 289 533L203 461 164 512 38 512 44 542 178 542 178 768C127 798 73 828 38 844L85 925C94 920 98 914 96 901 132 869 190 811 227 768 299 879 380 902 564 902 676 902 814 902 914 902 918 872 935 853 965 848L965 834C842 838 681 838 562 838 388 838 312 826 241 748ZM446 13C418 147 364 275 307 358L321 369C372 322 419 259 458 185L588 185 588 422 302 422 309 452 588 452 588 794 598 794C632 794 653 778 653 773L653 452 933 452C947 452 956 447 959 436 925 405 872 363 872 363L825 422 653 422 653 185 899 185C913 185 922 180 925 169 891 138 838 97 838 97L792 155 473 155C487 126 500 95 511 63 532 63 544 54 548 42Z"/>
</svg>