<svg xmlns="http://www.w3.org/2000/svg"
    viewBox="0 0 1000 1000">
  <!--
© 2017-2024 Adobe (http://www.adobe.com/).
Noto is a trademark of Google Inc.
This Font Software is licensed under the SIL Open Font License, Version 1.1. This Font Software is distributed on an "AS IS" BASIS, WITHOUT WARRANTIES OR CONDITIONS OF ANY KIND, either express or implied. See the SIL Open Font License for the specific language, permissions and limitations governing your use of this Font Software.
http://scripts.sil.org/OFL
  -->
<path d="M105 35L94 45C140 78 199 137 218 185 288 222 324 80 105 35ZM63 241L53 250C102 281 163 336 183 382 255 416 285 272 63 241ZM590 22L590 208 418 208 350 176 350 594 360 594C386 594 413 579 413 572L413 510 590 510 590 805 602 805C627 805 654 791 654 781L654 510 841 510 841 579 850 579C872 579 903 564 904 558L904 249C924 245 941 237 947 229L867 168 831 208 654 208 654 62C680 58 687 48 690 34ZM841 480L654 480 654 237 841 237ZM413 480L413 237 590 237 590 480ZM241 551C267 548 282 539 289 533L203 461 164 512 38 512 44 542 178 542 178 768C127 798 73 828 38 844L85 925C94 920 98 914 96 901 132 869 190 811 227 768 299 879 380 902 564 902 676 902 814 902 914 902 918 872 935 853 965 848L965 834C842 838 681 838 562 838 388 838 312 826 241 748Z"/>
</svg>