<svg xmlns="http://www.w3.org/2000/svg" name="gid12914" data-unicode="述"
    viewBox="0 0 1000 1000">
  <!--
© 2017-2024 Adobe (http://www.adobe.com/).
Noto is a trademark of Google Inc.
This Font Software is licensed under the SIL Open Font License, Version 1.1. This Font Software is distributed on an "AS IS" BASIS, WITHOUT WARRANTIES OR CONDITIONS OF ANY KIND, either express or implied. See the SIL Open Font License for the specific language, permissions and limitations governing your use of this Font Software.
http://scripts.sil.org/OFL
  -->
<path d="M739 375L725 383C790 468 869 604 880 706 958 774 1014 576 739 375ZM439 371C410 511 352 643 287 728L301 738C386 667 457 555 503 423 524 424 535 415 539 403ZM723 65L713 74C751 102 798 154 812 195 878 235 923 104 723 65ZM94 73L83 80C130 126 184 202 196 263 270 317 326 158 94 73ZM595 43L595 247 305 247 313 276 595 276 595 822 608 822C633 822 660 807 660 797L660 276 935 276C949 276 960 271 962 260 928 231 876 189 876 189L829 247 660 247 660 81C686 77 694 67 696 53ZM255 508C282 504 297 496 304 489L217 418 179 468 40 468 46 498 193 498 193 793C136 825 76 856 37 873L84 957C93 952 98 946 95 933 135 900 200 840 241 795 311 910 391 933 573 933 684 933 819 933 917 933 921 902 938 883 967 878L967 864C847 868 689 868 572 868 400 868 324 856 255 776Z"/>
</svg>