<svg xmlns="http://www.w3.org/2000/svg"
    viewBox="0 0 1000 1000">
  <!--
© 2017-2023 Adobe (http://www.adobe.com/).
Noto is a trademark of Google Inc.
This Font Software is licensed under the SIL Open Font License, Version 1.1. This Font Software is distributed on an "AS IS" BASIS, WITHOUT WARRANTIES OR CONDITIONS OF ANY KIND, either express or implied. See the SIL Open Font License for the specific language, permissions and limitations governing your use of this Font Software.
http://scripts.sil.org/OFL
  -->
<path d="M717 23L708 32C743 52 783 91 797 124 858 155 888 35 717 23ZM117 35L107 44C153 77 209 138 223 188 291 227 327 84 117 35ZM77 239L67 248C115 280 174 339 190 389 260 425 293 280 77 239ZM426 425L587 425 587 539 426 539ZM426 396L426 291 587 291 587 396ZM587 11L587 140 311 140 319 168 587 168 587 262 431 262 363 230 363 780 373 780C400 780 426 765 426 758L426 569 587 569 587 761 599 761C622 761 649 747 649 738L649 569 819 569 819 679C819 692 815 698 799 698 782 698 712 692 712 692L712 708C746 713 764 721 775 731 786 741 790 759 792 778 873 771 882 738 882 687L882 304C902 300 918 291 924 285L841 222 809 262 649 262 649 168 933 168C947 168 956 163 959 153 927 123 876 83 876 83L831 140 649 140 649 49C673 45 682 35 684 22ZM649 291L819 291 819 396 649 396ZM649 425L819 425 819 539 649 539ZM226 551C253 548 268 540 275 533L188 461 150 512 40 512 46 542 165 542 165 771C119 801 70 829 38 845L85 925C94 919 98 913 96 901 128 869 181 812 214 769 287 879 369 903 556 903 671 903 813 903 915 903 919 872 937 854 966 849L966 834C841 838 676 838 555 838 378 838 299 827 226 749Z"/>
</svg>