<svg xmlns="http://www.w3.org/2000/svg" name="gid12936" data-unicode="逍"
    viewBox="0 0 1000 1000">
  <!--
© 2017-2024 Adobe (http://www.adobe.com/).
Noto is a trademark of Google Inc.
This Font Software is licensed under the SIL Open Font License, Version 1.1. This Font Software is distributed on an "AS IS" BASIS, WITHOUT WARRANTIES OR CONDITIONS OF ANY KIND, either express or implied. See the SIL Open Font License for the specific language, permissions and limitations governing your use of this Font Software.
http://scripts.sil.org/OFL
  -->
<path d="M753 105L743 113C799 157 874 234 896 293 968 333 1003 181 753 105ZM464 91C423 182 362 266 306 314L319 327C388 290 461 227 514 150 535 154 548 147 554 138ZM114 65L104 75C151 109 210 169 230 217 300 254 335 111 114 65ZM73 271L64 280C111 311 172 366 194 412 266 446 295 302 73 271ZM789 467L789 582 476 582 476 467ZM789 438L476 438 476 332 789 332ZM413 303L413 820 423 820C451 820 476 805 476 797L476 611 789 611 789 722C789 736 784 742 768 742 750 742 665 735 665 735L665 750C702 756 725 764 738 775 749 786 753 803 756 824 843 815 853 782 853 731L853 343C872 339 887 331 894 324L811 263 779 303 662 303 662 84C686 81 697 71 699 57L597 47 597 303 481 303 413 271ZM241 581C267 578 282 569 289 563L203 491 164 542 38 542 44 572 178 572 178 798C127 828 73 858 38 874L85 955C94 950 98 944 96 931 132 899 190 841 227 798 299 909 380 932 564 932 676 932 814 932 914 932 918 902 935 883 965 878L965 864C842 868 681 868 562 868 388 868 312 856 241 778Z"/>
</svg>