<svg xmlns="http://www.w3.org/2000/svg" name="gid12939" data-unicode="逐"
    viewBox="0 0 1000 1000">
  <!--
© 2017-2024 Adobe (http://www.adobe.com/).
Noto is a trademark of Google Inc.
This Font Software is licensed under the SIL Open Font License, Version 1.1. This Font Software is distributed on an "AS IS" BASIS, WITHOUT WARRANTIES OR CONDITIONS OF ANY KIND, either express or implied. See the SIL Open Font License for the specific language, permissions and limitations governing your use of this Font Software.
http://scripts.sil.org/OFL
  -->
<path d="M89 72L78 80C129 124 188 201 201 263 275 318 329 153 89 72ZM847 212C814 265 749 348 689 406 662 350 621 296 564 250 602 220 636 187 664 152L929 152C943 152 954 147 957 136 922 105 868 63 868 62L818 122 287 122 295 152 572 152C503 240 398 322 283 380L293 396C386 362 474 317 547 263 558 276 569 290 579 303 516 400 404 494 298 549L305 565C421 519 541 443 618 366 628 385 636 404 643 423 565 547 424 659 285 722L294 739C434 689 573 603 666 509 683 609 664 699 625 737 618 745 609 746 595 746 568 746 490 741 447 737L448 754C486 760 525 770 538 779 551 789 558 803 559 823 616 823 651 812 675 789 739 733 762 586 706 443 783 509 869 602 897 677 979 727 1016 551 711 417 781 373 855 316 898 274 921 280 929 276 936 266ZM239 508C266 504 281 496 287 489L202 417 163 469 41 469 47 498 176 498 176 798C125 829 72 859 37 875L85 955C94 951 98 944 96 932 132 900 189 840 226 796 297 910 379 933 563 933 675 933 814 933 914 933 918 903 935 885 964 879L964 865C842 869 681 869 562 869 388 869 311 857 239 775Z"/>
</svg>