<svg xmlns="http://www.w3.org/2000/svg"
    viewBox="0 0 1000 1000">
  <!--
© 2017-2023 Adobe (http://www.adobe.com/).
Noto is a trademark of Google Inc.
This Font Software is licensed under the SIL Open Font License, Version 1.1. This Font Software is distributed on an "AS IS" BASIS, WITHOUT WARRANTIES OR CONDITIONS OF ANY KIND, either express or implied. See the SIL Open Font License for the specific language, permissions and limitations governing your use of this Font Software.
http://scripts.sil.org/OFL
  -->
<path d="M97 42L86 50C134 93 192 169 207 228 282 280 335 121 97 42ZM599 16L599 169 464 169C479 140 492 110 504 78 524 78 536 70 540 58L438 28C419 135 380 240 335 309L350 319C386 288 419 246 447 199L599 199 599 346 304 346 312 375 936 375C949 375 960 370 963 359 929 329 875 286 875 286L827 346 664 346 664 199 900 199C912 199 922 194 925 183 892 151 837 110 837 110L791 169 664 169 664 54C689 50 699 40 701 26ZM409 467L409 782 419 782C445 782 473 767 473 761L473 713 798 713 798 776 808 776C829 776 862 760 863 754L863 506C881 503 896 495 901 487L824 428 789 467 478 467 409 436ZM473 684L473 496 798 496 798 684ZM258 478C285 474 300 466 307 459L221 388 182 438 43 438 49 468 196 468 196 763C140 795 79 826 39 843L87 927C96 922 101 916 98 903 138 870 203 810 244 765 314 880 394 903 575 903 686 903 821 903 918 903 923 872 939 853 968 848L968 834C849 838 691 838 574 838 403 838 327 826 258 746Z"/>
</svg>