<svg xmlns="http://www.w3.org/2000/svg"
    viewBox="0 0 1000 1000">
  <!--
© 2017-2023 Adobe (http://www.adobe.com/).
Noto is a trademark of Google Inc.
This Font Software is licensed under the SIL Open Font License, Version 1.1. This Font Software is distributed on an "AS IS" BASIS, WITHOUT WARRANTIES OR CONDITIONS OF ANY KIND, either express or implied. See the SIL Open Font License for the specific language, permissions and limitations governing your use of this Font Software.
http://scripts.sil.org/OFL
  -->
<path d="M657 222L657 356C657 397 667 410 727 410L798 410C906 410 933 401 933 374 933 363 928 356 908 350L906 276 894 276C886 309 878 339 871 349 868 355 864 356 856 356 848 357 827 357 801 357L743 357C720 357 717 355 717 344L717 255C733 252 742 243 744 232ZM495 225C476 307 425 392 303 443L312 457C455 415 520 341 552 270 574 270 585 262 589 249ZM123 38L112 47C159 81 218 140 236 188 307 224 342 82 123 38ZM70 240L60 249C108 279 169 335 190 380 262 415 292 271 70 240ZM320 171L353 248C363 246 373 239 378 227 556 207 689 188 791 173 812 196 830 219 839 241 910 277 934 128 686 68L676 78C706 97 741 123 771 152L506 165C539 128 572 86 593 53 615 53 626 44 630 32L531 9C516 56 493 118 471 167 408 169 355 171 320 171ZM727 504C707 539 681 572 651 602 607 583 556 565 496 547 511 533 525 519 539 504ZM551 377C506 479 414 586 314 646L324 660C379 636 432 601 478 562 526 585 571 610 613 635 535 698 434 747 317 779L325 795C460 769 570 725 657 664 732 714 790 763 822 798 884 827 923 733 704 626 743 592 775 554 801 511 825 510 836 508 844 499L774 436 732 475 564 475C580 456 594 437 606 418 630 421 638 417 642 408ZM241 551C267 548 282 539 289 533L203 461 164 512 38 512 44 542 178 542 178 768C127 798 73 828 38 844L85 925C94 920 98 914 96 901 132 869 190 811 227 768 299 879 380 902 564 902 676 902 814 902 914 902 918 872 935 853 965 848L965 834C842 838 681 838 562 838 388 838 312 826 241 748Z"/>
</svg>