<svg xmlns="http://www.w3.org/2000/svg" name="gid12955" data-unicode="逢"
    viewBox="0 0 1000 1000">
  <!--
© 2017-2024 Adobe (http://www.adobe.com/).
Noto is a trademark of Google Inc.
This Font Software is licensed under the SIL Open Font License, Version 1.1. This Font Software is distributed on an "AS IS" BASIS, WITHOUT WARRANTIES OR CONDITIONS OF ANY KIND, either express or implied. See the SIL Open Font License for the specific language, permissions and limitations governing your use of this Font Software.
http://scripts.sil.org/OFL
  -->
<path d="M103 65L93 75C139 109 199 169 219 218 289 255 325 112 103 65ZM61 271L52 280C100 311 161 366 182 412 254 446 283 302 61 271ZM494 174L722 174C691 216 651 255 605 291 554 263 509 230 475 193ZM517 36C468 134 369 251 277 318L288 331C348 300 406 256 459 208 489 249 526 286 569 318 483 378 380 427 271 461L280 478C405 449 518 404 611 347 698 402 802 442 911 468 918 438 937 420 963 415L964 404C858 388 750 359 657 317 714 277 763 232 802 182 826 180 837 178 845 170L776 106 732 145 522 145C543 122 562 98 578 76 601 80 610 76 614 66ZM347 597L355 627 571 627 571 707 308 707 316 737 571 737 571 846 584 846C608 846 636 832 636 825L636 737 904 737C918 737 927 732 930 721 898 692 848 652 848 652L804 707 636 707 636 627 856 627C870 627 879 622 882 611 852 582 805 546 805 546L764 597 636 597 636 520 815 520C829 520 837 515 839 505 812 479 767 445 767 445L729 492 636 492 636 430C655 427 662 419 664 407L571 397 571 492 377 492 385 520 571 520 571 597ZM241 581C267 578 282 569 289 563L203 491 164 542 38 542 44 572 178 572 178 799C127 829 73 859 38 875L86 956C94 951 98 945 97 933 132 900 190 842 227 798 298 911 380 933 564 933 676 933 815 933 915 933 918 903 936 885 965 880L965 865C842 869 682 869 563 869 389 869 312 858 241 779Z"/>
</svg>