<svg xmlns="http://www.w3.org/2000/svg"
    viewBox="0 0 1000 1000">
  <!--
© 2017-2023 Adobe (http://www.adobe.com/).
Noto is a trademark of Google Inc.
This Font Software is licensed under the SIL Open Font License, Version 1.1. This Font Software is distributed on an "AS IS" BASIS, WITHOUT WARRANTIES OR CONDITIONS OF ANY KIND, either express or implied. See the SIL Open Font License for the specific language, permissions and limitations governing your use of this Font Software.
http://scripts.sil.org/OFL
  -->
<path d="M689 23L678 32C745 83 830 171 857 241 934 286 969 120 689 23ZM488 16C456 87 389 184 317 244L328 257C418 210 499 133 543 70 566 74 574 69 579 59ZM124 34L114 43C161 77 221 137 239 185 310 223 345 80 124 34ZM69 241L60 250C108 281 168 336 190 382 262 416 291 272 69 241ZM418 453L418 790 428 790C454 790 482 775 482 768L482 721 770 721 770 780 780 780C801 780 833 764 834 757L834 489C848 486 862 480 868 475L914 505C920 480 935 458 960 450L961 437C833 385 719 292 648 192 672 190 681 184 684 174L585 149C537 267 413 420 291 507L298 520C339 498 380 470 418 441ZM770 691L482 691 482 483 770 483ZM634 202C673 285 732 361 804 424L795 417 761 453 487 453 433 429C517 360 589 278 634 202ZM241 551C267 548 282 539 289 533L203 461 164 512 38 512 44 542 178 542 178 768C127 798 73 828 38 844L85 925C94 920 98 914 96 901 132 869 190 811 227 768 299 879 380 902 564 902 676 902 814 902 914 902 918 872 935 853 965 848L965 834C842 838 681 838 562 838 388 838 312 826 241 748Z"/>
</svg>