<svg xmlns="http://www.w3.org/2000/svg" name="gid12988" data-unicode="過"
    viewBox="0 0 1000 1000">
  <!--
© 2017-2024 Adobe (http://www.adobe.com/).
Noto is a trademark of Google Inc.
This Font Software is licensed under the SIL Open Font License, Version 1.1. This Font Software is distributed on an "AS IS" BASIS, WITHOUT WARRANTIES OR CONDITIONS OF ANY KIND, either express or implied. See the SIL Open Font License for the specific language, permissions and limitations governing your use of this Font Software.
http://scripts.sil.org/OFL
  -->
<path d="M101 89L90 97C141 141 199 218 212 280 286 334 341 170 101 89ZM418 95L418 384 401 384 335 353 335 811 345 811C371 811 396 797 396 790L396 414 842 414 842 746C842 757 838 764 824 764 808 764 742 758 742 758L742 773C774 778 791 783 802 792 813 799 816 812 817 827 894 820 903 795 903 750L903 422C920 419 935 411 940 404L863 348 833 384 810 384 810 132C836 129 848 124 856 114L771 51 737 95 490 95 418 63ZM584 226L584 384 478 384 478 124 749 124 749 226 652 226 584 195ZM749 384L640 384 640 254 749 254ZM493 493L493 740 502 740C525 740 549 727 549 722L549 681 691 681 691 727 699 727C718 727 747 713 748 706L748 527C762 525 775 518 779 511L714 461 684 493 554 493 493 465ZM549 651L549 522 691 522 691 651ZM239 508C266 504 281 496 287 489L202 417 163 469 41 469 47 498 176 498 176 798C125 829 72 859 37 875L85 955C94 951 98 944 96 932 132 900 189 840 226 796 297 910 379 933 564 933 676 933 815 933 915 933 919 903 936 885 965 879L965 865C843 869 682 869 563 869 388 869 311 857 239 775Z"/>
</svg>