<svg xmlns="http://www.w3.org/2000/svg"
    viewBox="0 0 1000 1000">
  <!--
© 2017-2024 Adobe (http://www.adobe.com/).
Noto is a trademark of Google Inc.
This Font Software is licensed under the SIL Open Font License, Version 1.1. This Font Software is distributed on an "AS IS" BASIS, WITHOUT WARRANTIES OR CONDITIONS OF ANY KIND, either express or implied. See the SIL Open Font License for the specific language, permissions and limitations governing your use of this Font Software.
http://scripts.sil.org/OFL
  -->
<path d="M103 36L93 45C139 78 198 138 216 186 287 224 323 80 103 36ZM62 242L52 251C100 281 160 337 181 383 254 418 284 273 62 242ZM803 340L442 340 442 250 803 250ZM684 22L576 7C573 36 566 75 559 104L448 104 378 73 378 413 388 413C415 413 442 399 442 392L442 369 803 369 803 403 813 403C834 403 866 389 867 383L867 146C887 142 904 134 910 126L829 64 793 104 591 104C612 86 634 64 649 46 670 44 681 34 684 22ZM803 220L442 220 442 133 803 133ZM872 675L826 734 652 734 652 617 887 617C901 617 911 612 913 601 883 571 834 532 834 532L791 587 652 587 652 484 906 484C919 484 930 479 932 468 900 438 850 397 850 397L805 455 332 455 340 484 588 484 588 587 359 587 367 617 588 617 588 734 306 734 314 764 931 764C945 764 955 759 958 748 926 717 872 675 872 675ZM241 745L241 552C268 548 283 540 290 533L203 461 164 512 38 512 44 542 177 542 177 769C126 799 73 828 38 844L84 925C93 920 98 913 96 901 132 869 190 812 227 769 299 879 380 902 563 902 676 902 814 902 914 902 919 871 935 853 965 847L965 834C843 838 681 838 562 838 389 838 312 826 241 749Z"/>
</svg>