<svg xmlns="http://www.w3.org/2000/svg" name="gid12992" data-unicode="遒"
    viewBox="0 0 1000 1000">
  <!--
© 2017-2024 Adobe (http://www.adobe.com/).
Noto is a trademark of Google Inc.
This Font Software is licensed under the SIL Open Font License, Version 1.1. This Font Software is distributed on an "AS IS" BASIS, WITHOUT WARRANTIES OR CONDITIONS OF ANY KIND, either express or implied. See the SIL Open Font License for the specific language, permissions and limitations governing your use of this Font Software.
http://scripts.sil.org/OFL
  -->
<path d="M100 65L90 74C132 106 184 162 197 210 265 249 303 108 100 65ZM59 270L49 279C95 309 149 363 165 409 233 446 265 305 59 270ZM636 281L636 373 564 373 564 356 564 281ZM426 120C397 196 330 295 255 356L265 370C322 340 373 299 414 256L421 281 508 281 508 357 508 373 406 373 341 342 341 828 351 828C377 828 401 813 401 806L401 770 812 770 812 823 821 823C841 823 872 808 873 800L873 408C888 406 902 399 907 392L835 338 803 373 691 373 691 281 776 281C789 281 799 276 802 265 775 239 733 205 733 205L696 252 418 252C443 225 464 198 480 172 503 176 511 171 516 161ZM812 402L812 495 808 495C804 497 797 498 792 498 789 498 784 499 780 499 774 499 760 499 746 499L709 499C693 499 691 496 691 484L691 402ZM812 654L812 741 401 741 401 654ZM812 625L401 625 401 580 410 593C523 544 553 471 561 402L636 402 636 498C636 534 645 548 695 548L741 548C773 548 796 547 812 544ZM401 578L401 402 506 402C501 464 478 527 401 578ZM466 86L475 115 724 115C755 208 825 293 912 350 920 325 943 306 968 301L970 290C872 251 786 184 750 117 778 116 802 109 813 98L731 43 702 86ZM223 582C250 579 265 571 271 564L186 493 148 543 40 543 46 573 162 573 162 803C116 832 69 861 38 877L85 955C93 950 97 944 95 931 127 900 178 843 211 800 284 910 367 933 554 933 670 933 812 933 915 933 920 904 937 886 966 880L966 866C841 870 675 870 553 870 376 870 296 858 223 780Z"/>
</svg>