<svg xmlns="http://www.w3.org/2000/svg" name="gid13004" data-unicode="遡"
    viewBox="0 0 1000 1000">
  <!--
© 2017-2024 Adobe (http://www.adobe.com/).
Noto is a trademark of Google Inc.
This Font Software is licensed under the SIL Open Font License, Version 1.1. This Font Software is distributed on an "AS IS" BASIS, WITHOUT WARRANTIES OR CONDITIONS OF ANY KIND, either express or implied. See the SIL Open Font License for the specific language, permissions and limitations governing your use of this Font Software.
http://scripts.sil.org/OFL
  -->
<path d="M305 44L293 49C320 89 349 154 352 203 405 254 467 134 305 44ZM98 66L88 75C129 105 179 161 191 208 257 247 296 110 98 66ZM55 271L45 280C89 310 141 363 156 409 222 447 258 309 55 271ZM545 325L545 531 469 531 470 486 470 253 641 253C655 253 664 248 667 238 638 211 593 176 593 176L555 224 487 224C521 180 559 126 581 84 603 84 615 75 619 63L518 41C505 95 483 170 462 224L251 224 259 253 412 253 412 487 411 531 339 531 339 361C362 357 371 349 373 335L284 325 284 636 295 636C315 636 339 623 339 616L339 561 410 561C403 658 377 748 289 819L302 832C425 763 459 664 467 561L545 561 545 615 556 615C576 615 600 602 600 595L600 361C624 357 633 349 635 335ZM856 332L856 514 720 514C729 459 731 404 731 352L731 332ZM856 304L731 304 731 132 856 132ZM672 103L672 353C672 526 650 691 516 822L529 834C642 754 693 650 715 544L856 544 856 735C856 751 852 756 833 756 814 756 718 749 718 749L718 764C760 770 784 778 798 789 811 799 817 815 819 834 907 826 916 793 916 743L916 143C936 140 953 131 959 123L878 62 846 103 743 103 672 71ZM219 583C245 580 260 571 267 565L182 494 144 544 41 544 47 574 159 574 159 803C114 833 67 862 36 878L83 955C91 949 95 943 93 931 124 900 175 843 207 800 280 910 364 933 553 933 670 933 813 933 917 933 922 904 939 887 967 882L967 868C841 872 675 872 552 872 373 872 293 859 219 779Z"/>
</svg>