<svg xmlns="http://www.w3.org/2000/svg"
    viewBox="0 0 1000 1000">
  <!--
© 2017-2024 Adobe (http://www.adobe.com/).
Noto is a trademark of Google Inc.
This Font Software is licensed under the SIL Open Font License, Version 1.1. This Font Software is distributed on an "AS IS" BASIS, WITHOUT WARRANTIES OR CONDITIONS OF ANY KIND, either express or implied. See the SIL Open Font License for the specific language, permissions and limitations governing your use of this Font Software.
http://scripts.sil.org/OFL
  -->
<path d="M436 588C401 641 327 711 258 752L269 766C351 737 436 684 480 639 502 644 510 640 516 630ZM700 601L692 610C753 649 837 719 869 771 942 804 965 659 700 601ZM79 43L68 51C119 95 177 172 190 234 265 288 320 124 79 43ZM755 423L755 511 448 511 448 423ZM755 394L448 394 448 308 755 308ZM747 279L469 279C507 239 539 194 565 147L664 147C684 196 712 240 747 279ZM850 169C836 193 813 228 792 257 750 225 714 188 689 147L917 147C931 147 941 143 943 132 911 102 858 62 858 62L812 119 579 119C592 94 602 69 611 43 637 44 644 39 647 28L547 7C538 45 525 83 510 119L289 119 297 147 497 147C477 189 452 228 424 264 428 236 400 193 304 176L295 184C326 207 361 248 370 283 382 291 393 293 402 290 365 333 322 370 273 399L285 412C322 395 357 374 389 350L389 581 399 581C428 581 448 565 448 560L448 541 574 541 574 729C574 742 570 747 554 747 535 747 450 740 450 740L450 756C490 761 512 768 524 776 536 786 540 801 541 816 624 808 635 779 635 730L635 541 755 541 755 574 765 574C786 574 816 557 817 550L817 345C846 368 877 388 909 404 917 376 935 358 959 354L961 344C911 328 862 304 818 275 846 259 876 241 895 229 915 233 924 231 928 223ZM238 478C265 474 280 466 287 459L201 387 162 439 41 439 47 468 176 468 176 767C125 798 71 829 37 845L85 925C93 921 98 914 95 902 131 870 188 810 225 766 297 880 379 903 563 903 676 903 815 903 916 903 919 873 937 855 966 849L966 835C843 839 682 839 562 839 387 839 310 827 238 745Z"/>
</svg>