<svg xmlns="http://www.w3.org/2000/svg" name="gid13025" data-unicode="遼"
    viewBox="0 0 1000 1000">
  <!--
© 2017-2024 Adobe (http://www.adobe.com/).
Noto is a trademark of Google Inc.
This Font Software is licensed under the SIL Open Font License, Version 1.1. This Font Software is distributed on an "AS IS" BASIS, WITHOUT WARRANTIES OR CONDITIONS OF ANY KIND, either express or implied. See the SIL Open Font License for the specific language, permissions and limitations governing your use of this Font Software.
http://scripts.sil.org/OFL
  -->
<path d="M436 618C401 671 327 741 258 782L269 796C351 767 436 714 480 669 502 674 510 670 516 660ZM700 631L692 640C753 679 837 749 869 801 942 834 965 689 700 631ZM79 73L68 81C119 125 177 202 190 264 265 318 320 154 79 73ZM755 453L755 541 448 541 448 453ZM755 424L448 424 448 338 755 338ZM747 309L469 309C507 269 539 224 565 177L664 177C684 226 712 270 747 309ZM850 199C836 223 813 258 792 287 750 255 714 218 689 177L917 177C931 177 941 173 943 162 911 132 858 92 858 92L812 149 579 149C592 124 602 99 611 73 637 74 644 69 647 58L547 37C538 75 525 113 510 149L289 149 297 177 497 177C477 219 452 258 424 294 428 266 400 223 304 206L295 214C326 237 361 278 370 313 382 321 393 323 402 320 365 363 322 400 273 429L285 442C322 425 357 404 389 380L389 611 399 611C428 611 448 595 448 590L448 571 574 571 574 759C574 772 570 777 554 777 535 777 450 770 450 770L450 786C490 791 512 798 524 806 536 816 540 831 541 846 624 838 635 809 635 760L635 571 755 571 755 604 765 604C786 604 816 587 817 580L817 375C846 398 877 418 909 434 917 406 935 388 959 384L961 374C911 358 862 334 818 305 846 289 876 271 895 259 915 263 924 261 928 253ZM238 508C265 504 280 496 287 489L201 417 162 469 41 469 47 498 176 498 176 797C125 828 71 859 37 875L85 955C93 951 98 944 95 932 131 900 188 840 225 796 297 910 379 933 563 933 676 933 815 933 916 933 919 903 937 885 966 879L966 865C843 869 682 869 562 869 387 869 310 857 238 775Z"/>
</svg>