<svg xmlns="http://www.w3.org/2000/svg" name="gid13041" data-unicode="邏"
    viewBox="0 0 1000 1000">
  <!--
© 2017-2024 Adobe (http://www.adobe.com/).
Noto is a trademark of Google Inc.
This Font Software is licensed under the SIL Open Font License, Version 1.1. This Font Software is distributed on an "AS IS" BASIS, WITHOUT WARRANTIES OR CONDITIONS OF ANY KIND, either express or implied. See the SIL Open Font License for the specific language, permissions and limitations governing your use of this Font Software.
http://scripts.sil.org/OFL
  -->
<path d="M500 617L486 622C502 657 519 712 520 754 564 797 619 707 500 617ZM324 614C314 680 294 746 270 791L286 800C320 765 351 710 371 655 390 655 401 646 404 634ZM93 67L82 75C125 111 178 174 192 223 258 263 298 126 93 67ZM64 268L54 278C96 307 146 360 160 405 225 443 261 308 64 268ZM490 323C455 387 398 471 348 532L280 532 314 598C323 596 331 591 336 579L405 567 405 841 413 841C441 841 460 828 460 824L460 558 515 547C521 562 525 577 526 590 562 620 599 568 552 513 571 495 589 474 607 451L607 840 616 840C643 840 663 825 663 821L663 787 929 787C942 787 951 782 954 771 929 746 887 711 887 711L851 759 796 759 796 663 906 663C919 663 928 658 931 647 906 623 868 590 868 590L834 635 796 635 796 543 906 543C919 543 928 538 931 527 906 502 868 469 868 469L834 513 796 513 796 423 922 423C936 423 945 418 947 407 921 381 881 350 881 350L846 393 772 393C790 367 808 337 821 313 841 312 852 301 855 289L767 275C762 310 752 357 744 393L675 393 653 384C669 359 683 334 696 308 716 310 727 301 732 290L648 259C620 348 578 435 535 497 521 485 503 474 479 463L467 470C480 485 494 505 505 526L381 531C435 482 492 421 528 373 549 375 563 368 569 357ZM404 256C388 297 371 338 352 368 337 359 317 352 292 346L281 355C310 378 344 418 354 451 393 476 425 425 374 382 398 361 424 333 445 306 464 308 476 300 481 290ZM742 423L742 513 663 513 663 423ZM742 543L742 635 663 635 663 543ZM742 663L742 759 663 759 663 663ZM320 83L320 282 329 282C353 282 379 269 379 264L379 245 838 245 838 270 847 270C866 270 897 257 898 251L898 121C915 118 930 110 936 103L862 47 829 83 385 83 320 53ZM379 215L379 112 492 112 492 215ZM838 215L719 215 719 112 838 112ZM547 215L547 112 664 112 664 215ZM206 583C233 580 248 571 254 565L170 493 131 544 38 544 44 574 146 574 146 807C106 836 64 864 37 879L83 954C90 949 94 942 92 930 120 900 166 843 195 801 268 910 355 933 546 933 665 933 812 933 918 933 923 904 940 887 969 882L969 868C840 872 670 872 545 872 365 872 281 860 206 779Z"/>
</svg>