<svg xmlns="http://www.w3.org/2000/svg"
    viewBox="0 0 1000 1000">
  <!--
© 2017-2024 Adobe (http://www.adobe.com/).
Noto is a trademark of Google Inc.
This Font Software is licensed under the SIL Open Font License, Version 1.1. This Font Software is distributed on an "AS IS" BASIS, WITHOUT WARRANTIES OR CONDITIONS OF ANY KIND, either express or implied. See the SIL Open Font License for the specific language, permissions and limitations governing your use of this Font Software.
http://scripts.sil.org/OFL
  -->
<path d="M588 89L588 929 598 929C631 929 652 911 652 905L652 119 849 119C821 208 774 339 746 407 840 491 878 574 878 654 878 699 865 722 844 732 834 737 827 739 816 739 794 739 743 739 713 739L713 756C743 759 769 764 778 772 788 781 793 801 793 823 905 818 945 769 944 669 944 584 897 490 770 404 817 336 888 207 924 137 948 137 962 134 970 125L891 47 848 89 664 89 588 50ZM36 426L44 455 264 455 264 928 275 928C307 928 328 911 329 907L329 455 550 455C563 455 573 450 576 439 544 409 492 366 492 366L445 426 329 426 329 130 532 130C546 130 555 125 558 114 526 84 474 41 474 41L428 101 56 101 64 130 264 130 264 426Z"/>
</svg>