<svg xmlns="http://www.w3.org/2000/svg"
    viewBox="0 0 1000 1000">
  <!--
© 2017-2024 Adobe (http://www.adobe.com/).
Noto is a trademark of Google Inc.
This Font Software is licensed under the SIL Open Font License, Version 1.1. This Font Software is distributed on an "AS IS" BASIS, WITHOUT WARRANTIES OR CONDITIONS OF ANY KIND, either express or implied. See the SIL Open Font License for the specific language, permissions and limitations governing your use of this Font Software.
http://scripts.sil.org/OFL
  -->
<path d="M264 12L264 208 42 208 50 237 210 237C209 502 181 728 33 916L45 927C198 790 251 616 271 409L444 409C437 655 421 801 392 830 382 839 374 841 357 841 336 841 275 836 238 832L237 850C271 855 307 865 320 875 333 885 336 903 336 923 376 923 413 911 439 884 481 841 501 693 508 417 528 415 541 410 549 402L472 339 434 380 273 380C277 334 279 286 281 237L572 237C586 237 595 232 598 221 566 191 514 148 514 148L468 208 330 208 330 47C353 43 361 34 363 21ZM622 90L622 929 631 929C664 929 685 911 685 906L685 119 848 119C821 204 779 331 752 397 843 478 881 558 881 637 881 680 870 702 849 714 841 718 834 719 822 719 800 719 750 719 723 719L723 735C752 738 776 744 785 751 795 760 799 782 799 802 909 797 948 751 948 652 947 567 899 478 777 394 822 329 887 204 921 137 944 136 958 133 966 125L888 48 845 90 698 90 622 51Z"/>
</svg>