<svg xmlns="http://www.w3.org/2000/svg"
    viewBox="0 0 1000 1000">
  <!--
© 2017-2023 Adobe (http://www.adobe.com/).
Noto is a trademark of Google Inc.
This Font Software is licensed under the SIL Open Font License, Version 1.1. This Font Software is distributed on an "AS IS" BASIS, WITHOUT WARRANTIES OR CONDITIONS OF ANY KIND, either express or implied. See the SIL Open Font License for the specific language, permissions and limitations governing your use of this Font Software.
http://scripts.sil.org/OFL
  -->
<path d="M207 476L207 921 217 921C244 921 269 906 269 900L269 841 474 841 474 907 484 907C505 907 537 890 538 884L538 518C559 514 574 505 581 497L500 435 464 476 274 476 207 445ZM269 812L269 505 474 505 474 812ZM119 87L119 355C119 537 115 744 36 916L51 927C179 756 184 522 184 355L184 314 578 314C592 314 602 309 604 298 571 267 516 223 516 223L469 285 184 285 184 138C304 128 433 102 515 79 540 89 559 88 568 79L485 5C421 40 301 85 192 113ZM622 90L622 929 631 929C664 929 685 911 685 906L685 119 848 119C821 204 779 331 752 397 843 478 881 558 881 637 881 680 870 702 849 714 841 718 834 719 822 719 800 719 750 719 723 719L723 735C752 738 776 744 785 751 795 760 799 782 799 802 909 797 948 751 948 652 947 567 899 478 777 394 822 329 887 204 921 137 944 136 958 133 966 125L888 48 845 90 698 90 622 51Z"/>
</svg>