<svg xmlns="http://www.w3.org/2000/svg"
    viewBox="0 0 1000 1000">
  <!--
© 2017-2023 Adobe (http://www.adobe.com/).
Noto is a trademark of Google Inc.
This Font Software is licensed under the SIL Open Font License, Version 1.1. This Font Software is distributed on an "AS IS" BASIS, WITHOUT WARRANTIES OR CONDITIONS OF ANY KIND, either express or implied. See the SIL Open Font License for the specific language, permissions and limitations governing your use of this Font Software.
http://scripts.sil.org/OFL
  -->
<path d="M119 159L119 790 29 808 75 897C85 893 94 885 98 873 238 820 345 776 422 742 443 782 457 822 460 859 534 921 592 727 322 587L310 595C345 629 383 675 411 723L182 776 182 507 434 507 434 576 444 576C465 576 498 561 499 554L499 201C519 197 535 188 541 180L461 119 424 159 337 159 337 54C362 51 372 41 374 27L273 17 273 159 187 159 119 127ZM434 345L434 478 182 478 182 345ZM434 316L182 316 182 188 434 188ZM592 105L592 928 603 928C633 928 655 911 655 902L655 134 846 134C819 221 775 352 746 418 835 503 871 585 871 664 871 708 859 731 838 741 829 746 822 747 810 747 790 747 742 747 715 747L715 763C743 767 767 772 776 780 786 789 790 811 790 833 900 828 939 779 939 679 938 595 893 501 771 416 817 350 886 221 921 153 946 152 959 149 967 141L886 62 844 105 660 105 592 72Z"/>
</svg>