<svg xmlns="http://www.w3.org/2000/svg" name="gid13090" data-unicode="郤"
    viewBox="0 0 1000 1000">
  <!--
© 2017-2024 Adobe (http://www.adobe.com/).
Noto is a trademark of Google Inc.
This Font Software is licensed under the SIL Open Font License, Version 1.1. This Font Software is distributed on an "AS IS" BASIS, WITHOUT WARRANTIES OR CONDITIONS OF ANY KIND, either express or implied. See the SIL Open Font License for the specific language, permissions and limitations governing your use of this Font Software.
http://scripts.sil.org/OFL
  -->
<path d="M610 120L610 959 620 959C652 959 673 941 673 936L673 149 852 149C823 238 778 371 748 439 843 524 880 608 880 690 880 735 869 758 846 769 838 774 831 775 819 775 798 775 746 775 717 775L717 792C747 795 772 801 782 808 791 816 796 837 796 859 908 853 948 806 947 705 947 617 899 524 773 436 820 369 889 237 925 167 949 167 964 164 971 155L892 78 850 120 685 120 610 81ZM152 569L152 958 163 958C189 958 215 943 215 937L215 865 436 865 436 932 446 932C467 932 499 918 499 912L499 611C519 607 536 598 542 590L462 529 426 569 220 569 163 543C234 480 292 405 332 338 418 395 478 470 500 527 563 573 634 420 340 325L342 321C369 321 379 315 382 304L277 270C238 379 142 528 35 617L46 628C84 607 119 581 152 553ZM436 836L215 836 215 598 436 598ZM278 41C233 144 141 266 51 335L62 348C161 295 257 206 320 120 387 156 464 217 492 274 569 309 583 151 334 100L345 84C370 87 378 83 382 73Z"/>
</svg>