<svg xmlns="http://www.w3.org/2000/svg"
    viewBox="0 0 1000 1000">
  <!--
© 2017-2024 Adobe (http://www.adobe.com/).
Noto is a trademark of Google Inc.
This Font Software is licensed under the SIL Open Font License, Version 1.1. This Font Software is distributed on an "AS IS" BASIS, WITHOUT WARRANTIES OR CONDITIONS OF ANY KIND, either express or implied. See the SIL Open Font License for the specific language, permissions and limitations governing your use of this Font Software.
http://scripts.sil.org/OFL
  -->
<path d="M156 201L143 206C168 252 195 324 195 380 250 435 318 310 156 201ZM131 552L131 926 141 926C168 926 194 910 194 904L194 830 434 830 434 911 443 911C464 911 496 897 497 891L497 594C517 590 533 582 539 574L459 513 424 552 199 552 131 522ZM434 802L194 802 194 581 434 581ZM268 14L268 147 56 147 64 176 556 176C569 176 578 171 581 160 549 130 497 89 497 89L451 147 332 147 332 51C357 48 367 38 369 24ZM414 195C398 260 370 350 346 415L43 415 51 444 568 444C582 444 591 439 594 428 562 397 508 355 508 355L462 415 369 415C410 360 452 292 478 243 499 244 511 235 515 224ZM626 90L626 929 636 929C668 929 690 912 690 906L690 119 852 119C825 204 782 331 755 397 844 479 879 559 879 637 879 680 868 702 847 713 838 718 831 719 820 719 799 719 751 719 723 719L723 735C752 738 776 743 786 751 795 760 799 781 799 803 907 798 946 750 945 651 945 568 900 478 779 394 824 330 891 204 926 137 949 136 964 134 971 125L893 48 850 90 702 90 626 50Z"/>
</svg>