<svg xmlns="http://www.w3.org/2000/svg" name="gid13093" data-unicode="郫"
    viewBox="0 0 1000 1000">
  <!--
© 2017-2024 Adobe (http://www.adobe.com/).
Noto is a trademark of Google Inc.
This Font Software is licensed under the SIL Open Font License, Version 1.1. This Font Software is distributed on an "AS IS" BASIS, WITHOUT WARRANTIES OR CONDITIONS OF ANY KIND, either express or implied. See the SIL Open Font License for the specific language, permissions and limitations governing your use of this Font Software.
http://scripts.sil.org/OFL
  -->
<path d="M645 111L645 960 655 960C687 960 708 942 708 937L708 140 856 140C834 224 796 352 773 419 852 499 886 579 886 659 886 702 876 724 858 735 851 740 844 741 834 741 814 741 769 741 746 741L746 757C771 761 793 766 802 773 811 781 815 803 815 824 918 820 953 775 953 674 953 588 908 500 797 416 838 350 899 224 929 157 952 157 966 155 972 146L895 69 852 111 720 111 645 72ZM348 544L348 708 33 708 40 737 348 737 348 959 359 959C384 959 412 946 412 938L412 737 608 737C622 737 631 732 633 721 601 691 548 648 548 648L502 708 412 708 412 581C437 577 445 568 447 555ZM507 193L507 322 368 322 368 193ZM310 44L279 164 181 164 106 131 106 561 115 561C147 561 168 544 168 539L168 516 276 516C245 577 183 629 62 673L71 689C231 647 306 587 340 516L507 516 507 549 516 549C538 549 569 535 570 530L570 205C590 201 605 193 612 186L532 124 497 164 315 164C335 140 360 109 377 87 397 88 410 80 414 66ZM168 193L305 193 305 322 168 322ZM507 352L507 486 352 486C364 449 368 410 368 369L368 352ZM168 352L305 352 305 371C305 412 301 451 289 486L168 486Z"/>
</svg>