<svg xmlns="http://www.w3.org/2000/svg"
    viewBox="0 0 1000 1000">
  <!--
© 2017-2024 Adobe (http://www.adobe.com/).
Noto is a trademark of Google Inc.
This Font Software is licensed under the SIL Open Font License, Version 1.1. This Font Software is distributed on an "AS IS" BASIS, WITHOUT WARRANTIES OR CONDITIONS OF ANY KIND, either express or implied. See the SIL Open Font License for the specific language, permissions and limitations governing your use of this Font Software.
http://scripts.sil.org/OFL
  -->
<path d="M645 81L645 930 655 930C687 930 708 912 708 907L708 110 856 110C834 194 796 322 773 389 852 469 886 549 886 629 886 672 876 694 858 705 851 710 844 711 834 711 814 711 769 711 746 711L746 727C771 731 793 736 802 743 811 751 815 773 815 794 918 790 953 745 953 644 953 558 908 470 797 386 838 320 899 194 929 127 952 127 966 125 972 116L895 39 852 81 720 81 645 42ZM348 514L348 678 33 678 40 707 348 707 348 929 359 929C384 929 412 916 412 908L412 707 608 707C622 707 631 702 633 691 601 661 548 618 548 618L502 678 412 678 412 551C437 547 445 538 447 525ZM507 163L507 292 368 292 368 163ZM310 14L279 134 181 134 106 101 106 531 115 531C147 531 168 514 168 509L168 486 276 486C245 547 183 599 62 643L71 659C231 617 306 557 340 486L507 486 507 519 516 519C538 519 569 505 570 500L570 175C590 171 605 163 612 156L532 94 497 134 315 134C335 110 360 79 377 57 397 58 410 50 414 36ZM168 163L305 163 305 292 168 292ZM507 322L507 456 352 456C364 419 368 380 368 339L368 322ZM168 322L305 322 305 341C305 382 301 421 289 456L168 456Z"/>
</svg>