<svg xmlns="http://www.w3.org/2000/svg" name="gid13097" data-unicode="郲"
    viewBox="0 0 1000 1000">
  <!--
© 2017-2024 Adobe (http://www.adobe.com/).
Noto is a trademark of Google Inc.
This Font Software is licensed under the SIL Open Font License, Version 1.1. This Font Software is distributed on an "AS IS" BASIS, WITHOUT WARRANTIES OR CONDITIONS OF ANY KIND, either express or implied. See the SIL Open Font License for the specific language, permissions and limitations governing your use of this Font Software.
http://scripts.sil.org/OFL
  -->
<path d="M310 49L310 202 52 202 60 232 310 232 310 506C253 654 144 793 31 879L41 894C144 832 241 743 310 650L310 959 322 959C346 959 373 943 373 933L373 604C443 660 533 743 565 803 639 847 669 699 373 583L373 232 620 232C632 232 642 227 645 216 613 185 560 142 560 142L513 202 373 202 373 87C398 83 406 73 409 59ZM162 271C146 367 104 492 41 582L52 594C101 549 143 489 174 431 202 460 229 499 237 533 292 572 337 465 185 410 201 378 214 346 223 317 242 318 253 316 256 305ZM473 270C463 354 434 465 386 546L397 560C433 522 464 475 488 428 521 464 555 514 564 554 623 598 673 478 498 408 513 376 525 344 533 316 552 317 563 314 567 304ZM656 111L656 958 666 958C698 958 719 941 719 936L719 140 855 140C831 225 792 353 768 419 851 502 886 580 886 661 886 704 876 726 857 737 849 742 843 743 831 743 811 743 765 743 739 743L739 760C767 762 789 767 798 775 808 783 812 806 812 826 917 822 954 777 954 675 953 589 907 501 792 416 834 351 896 224 929 157 952 157 966 154 973 146L894 68 852 111 731 111 656 72Z"/>
</svg>