<svg xmlns="http://www.w3.org/2000/svg" name="gid13099" data-unicode="郵"
    viewBox="0 0 1000 1000">
  <!--
© 2017-2024 Adobe (http://www.adobe.com/).
Noto is a trademark of Google Inc.
This Font Software is licensed under the SIL Open Font License, Version 1.1. This Font Software is distributed on an "AS IS" BASIS, WITHOUT WARRANTIES OR CONDITIONS OF ANY KIND, either express or implied. See the SIL Open Font License for the specific language, permissions and limitations governing your use of this Font Software.
http://scripts.sil.org/OFL
  -->
<path d="M52 852L90 936C100 934 109 925 113 914 329 858 488 812 605 776L601 760 356 804 356 676 614 676C628 676 636 671 639 660 611 632 565 593 565 593L524 647 518 647 518 481 622 481C635 481 644 476 647 465 620 437 572 399 572 399L532 452 518 452 518 299 600 299C614 299 624 294 627 283 596 254 547 214 547 214L504 270 356 270 356 148C426 139 490 128 542 117 566 127 584 127 594 119L519 47C418 87 220 134 58 153L61 172C137 170 217 164 293 156L293 270 61 270 69 299 132 299 132 452 36 452 44 481 132 481 132 647 56 647 64 676 293 676 293 814C188 832 102 846 52 852ZM190 299L293 299 293 452 190 452ZM460 299L460 452 356 452 356 299ZM190 647L190 481 293 481 293 647ZM460 647L356 647 356 481 460 481ZM650 116L650 958 660 958C693 958 713 941 713 935L713 145 855 145C833 229 795 357 772 423 848 505 878 584 878 664 878 707 869 729 851 740 843 745 837 746 826 746 809 746 765 746 743 746L743 762C768 764 790 770 798 777 807 786 811 807 811 829 911 825 945 779 945 679 945 593 902 504 796 420 837 355 898 229 928 162 951 162 965 159 971 151L893 73 851 116 726 116 650 76Z"/>
</svg>