<svg xmlns="http://www.w3.org/2000/svg"
    viewBox="0 0 1000 1000">
  <!--
© 2017-2024 Adobe (http://www.adobe.com/).
Noto is a trademark of Google Inc.
This Font Software is licensed under the SIL Open Font License, Version 1.1. This Font Software is distributed on an "AS IS" BASIS, WITHOUT WARRANTIES OR CONDITIONS OF ANY KIND, either express or implied. See the SIL Open Font License for the specific language, permissions and limitations governing your use of this Font Software.
http://scripts.sil.org/OFL
  -->
<path d="M568 327L568 454 424 454 424 327ZM568 297L424 297 424 175 568 175ZM465 14C461 53 455 107 447 147L430 147 365 115 365 926 377 926C404 926 424 910 424 903L424 789 633 789C647 789 656 784 658 773 630 745 584 709 584 709L545 760 424 760 424 636 622 636C635 636 644 631 647 620 620 594 575 557 575 557L537 607 424 607 424 483 568 483 568 511 577 511C596 511 626 497 627 491L627 184C643 181 658 173 664 166L592 111 559 147 473 147C497 117 521 81 538 52 559 50 570 39 573 26ZM249 209C209 324 154 458 110 549L37 559 78 642C87 639 96 632 100 620 162 592 211 569 250 550 219 716 146 833 39 914L52 928C203 848 292 705 327 470 349 469 359 459 362 445L265 429C263 462 259 493 255 523L140 544C196 463 255 357 305 262 325 264 338 255 342 244ZM194 13C173 85 147 168 125 229 105 215 80 202 49 191L40 202C93 242 119 311 132 353 174 392 216 314 145 246 182 194 222 126 255 65 276 65 288 57 292 46ZM693 86L693 928 704 928C733 928 753 912 753 903L753 115 866 115C847 200 815 328 795 394 860 475 885 556 885 637 885 680 876 703 861 714 853 718 848 719 838 719 824 719 787 719 768 719L768 736C790 738 808 743 816 750 823 759 827 779 827 798 917 794 948 752 947 649 947 564 912 477 820 391 855 324 907 196 935 130 957 129 970 127 977 119L902 46 862 86 758 86 693 54Z"/>
</svg>