<svg xmlns="http://www.w3.org/2000/svg"
    viewBox="0 0 1000 1000">
  <!--
© 2017-2023 Adobe (http://www.adobe.com/).
Noto is a trademark of Google Inc.
This Font Software is licensed under the SIL Open Font License, Version 1.1. This Font Software is distributed on an "AS IS" BASIS, WITHOUT WARRANTIES OR CONDITIONS OF ANY KIND, either express or implied. See the SIL Open Font License for the specific language, permissions and limitations governing your use of this Font Software.
http://scripts.sil.org/OFL
  -->
<path d="M106 478L106 927 116 927C142 927 167 912 167 906L167 856 502 856 502 917 511 917C532 917 563 901 564 895L564 518C583 514 599 506 606 498L528 438 492 478 172 478 106 446ZM502 826L167 826 167 506 502 506ZM234 580L234 776 241 776C260 776 281 765 281 760L281 737 379 737 379 768 386 768C402 768 427 755 428 750L428 612C440 610 453 603 457 598L399 553 372 580 286 580 234 555ZM379 707L281 707 281 609 379 609ZM137 85L137 313 146 313C176 313 196 300 196 295L196 271 306 271 306 372 41 372 49 402 613 402C626 402 636 397 639 386 608 357 557 317 557 317L513 372 367 372 367 271 484 271 484 304 494 304C522 304 546 290 546 286L546 117C565 114 574 109 581 101L512 49 482 85 208 85 137 54ZM196 241L196 114 484 114 484 241ZM655 86L655 928 664 928C695 928 715 911 715 906L715 115 857 115C831 203 791 336 764 404 849 489 884 571 884 654 884 699 873 723 853 734 845 739 838 740 828 740 807 740 760 740 734 740L734 756C762 759 785 765 794 772 803 780 808 801 808 821 913 816 949 771 949 668 949 580 904 488 789 401 832 333 896 201 929 131 952 131 965 129 973 120L896 44 854 86 727 86 655 48Z"/>
</svg>