<svg xmlns="http://www.w3.org/2000/svg" name="gid13119" data-unicode="鄙"
    viewBox="0 0 1000 1000">
  <!--
© 2017-2024 Adobe (http://www.adobe.com/).
Noto is a trademark of Google Inc.
This Font Software is licensed under the SIL Open Font License, Version 1.1. This Font Software is distributed on an "AS IS" BASIS, WITHOUT WARRANTIES OR CONDITIONS OF ANY KIND, either express or implied. See the SIL Open Font License for the specific language, permissions and limitations governing your use of this Font Software.
http://scripts.sil.org/OFL
  -->
<path d="M106 508L106 957 116 957C142 957 167 942 167 936L167 886 502 886 502 947 511 947C532 947 563 931 564 925L564 548C583 544 599 536 606 528L528 468 492 508 172 508 106 476ZM502 856L167 856 167 536 502 536ZM234 610L234 806 241 806C260 806 281 795 281 790L281 767 379 767 379 798 386 798C402 798 427 785 428 780L428 642C440 640 453 633 457 628L399 583 372 610 286 610 234 585ZM379 737L281 737 281 639 379 639ZM137 115L137 343 146 343C176 343 196 330 196 325L196 301 306 301 306 402 41 402 49 432 613 432C626 432 636 427 639 416 608 387 557 347 557 347L513 402 367 402 367 301 484 301 484 334 494 334C522 334 546 320 546 316L546 147C565 144 574 139 581 131L512 79 482 115 208 115 137 84ZM196 271L196 144 484 144 484 271ZM655 116L655 958 664 958C695 958 715 941 715 936L715 145 857 145C831 233 791 366 764 434 849 519 884 601 884 684 884 729 873 753 853 764 845 769 838 770 828 770 807 770 760 770 734 770L734 786C762 789 785 795 794 802 803 810 808 831 808 851 913 846 949 801 949 698 949 610 904 518 789 431 832 363 896 231 929 161 952 161 965 159 973 150L896 74 854 116 727 116 655 78Z"/>
</svg>