<svg xmlns="http://www.w3.org/2000/svg" name="gid13129" data-unicode="鄭"
    viewBox="0 0 1000 1000">
  <!--
© 2017-2024 Adobe (http://www.adobe.com/).
Noto is a trademark of Google Inc.
This Font Software is licensed under the SIL Open Font License, Version 1.1. This Font Software is distributed on an "AS IS" BASIS, WITHOUT WARRANTIES OR CONDITIONS OF ANY KIND, either express or implied. See the SIL Open Font License for the specific language, permissions and limitations governing your use of this Font Software.
http://scripts.sil.org/OFL
  -->
<path d="M163 522L505 522 505 578 163 578ZM163 494L163 334 243 334C239 381 224 427 171 465L181 480C268 442 291 387 297 334L359 334 359 398C359 432 367 447 410 447L445 447C472 447 491 446 505 443L505 494ZM173 104C145 180 91 255 34 298L45 311C66 302 86 291 105 279L105 662 114 662C144 662 163 648 163 643L163 607 299 607C298 641 297 673 293 702L47 702 55 731 288 731C269 821 212 888 34 941L46 958C214 919 292 867 330 797 398 827 477 877 511 925 588 949 588 807 340 775 345 761 350 746 353 731L607 731C621 731 630 726 633 715 601 685 548 643 548 643L502 702 358 702C363 673 364 641 366 607L505 607 505 643 514 643C542 643 565 630 565 625L565 338C584 335 595 329 602 322L532 269 502 305 413 305 413 238 492 238C500 238 507 236 511 231 535 256 564 278 598 297 604 272 627 254 650 247L652 237C567 211 497 166 467 116 496 114 518 108 528 96L450 44 423 85 235 85 244 115 443 115C451 140 462 164 476 186L444 161 406 208 189 208C203 192 216 176 227 159 246 162 259 155 264 145ZM244 238L244 295 244 305 175 305 109 277C130 263 149 247 167 230L169 238ZM299 238L359 238 359 305 299 305 299 295ZM413 334L505 334 505 395 498 395C494 397 488 398 484 398 481 398 477 398 474 398 469 399 459 399 450 399L426 399C415 399 413 395 413 385ZM654 116L654 958 663 958C695 958 714 941 714 935L714 145 856 145C830 232 791 365 765 434 846 519 877 602 877 684 877 729 867 753 847 764 839 768 833 769 822 769 804 769 760 769 735 769L735 786C761 789 782 794 791 802 800 810 804 831 804 852 907 847 943 801 943 698 943 612 900 519 790 431 833 363 896 231 928 162 951 161 965 159 972 150L894 74 852 116 727 116 654 78Z"/>
</svg>