<svg xmlns="http://www.w3.org/2000/svg"
    viewBox="0 0 1000 1000">
  <!--
© 2017-2023 Adobe (http://www.adobe.com/).
Noto is a trademark of Google Inc.
This Font Software is licensed under the SIL Open Font License, Version 1.1. This Font Software is distributed on an "AS IS" BASIS, WITHOUT WARRANTIES OR CONDITIONS OF ANY KIND, either express or implied. See the SIL Open Font License for the specific language, permissions and limitations governing your use of this Font Software.
http://scripts.sil.org/OFL
  -->
<path d="M136 418L125 425C148 454 170 503 170 545 227 594 295 479 136 418ZM117 660L117 926 126 926C159 926 179 912 179 906L179 872 473 872 473 917 483 917C513 917 537 903 537 899L537 692C556 688 566 683 572 677L501 622 470 660 190 660 117 628ZM179 842L179 688 473 688 473 842ZM35 559L42 588 621 588C634 588 644 583 646 572 618 545 569 506 569 506L528 559 424 559C455 530 487 494 508 466 528 469 542 461 546 450L457 417C443 460 420 519 400 559L356 559 356 410 595 410C608 410 618 405 621 394 590 365 541 327 541 327L497 380 356 380 356 292 552 292C565 292 574 287 577 277 549 250 503 215 503 215L464 263 356 263 356 178 586 178C599 178 609 173 612 162 581 134 533 96 533 96L490 149 398 149C432 122 467 89 491 63 511 67 525 60 530 49L439 11C422 52 393 110 369 149L253 149C287 133 291 56 166 13L156 19C180 49 208 100 212 141 217 145 221 147 226 149L59 149 67 178 292 178 292 263 92 263 100 292 292 292 292 380 53 380 61 410 292 410 292 559ZM662 86L662 928 672 928C703 928 724 911 724 905L724 115 858 115C835 202 798 335 774 404 851 487 881 570 881 652 881 697 872 721 853 731 845 736 839 737 829 737 811 737 768 737 745 737L745 754C769 757 791 762 800 770 808 778 812 800 812 821 914 816 949 770 948 667 948 580 906 487 798 400 839 333 899 201 932 132 954 132 967 129 975 121L896 43 854 86 737 86 662 47Z"/>
</svg>