<svg xmlns="http://www.w3.org/2000/svg" name="gid13133" data-unicode="鄱"
    viewBox="0 0 1000 1000">
  <!--
© 2017-2024 Adobe (http://www.adobe.com/).
Noto is a trademark of Google Inc.
This Font Software is licensed under the SIL Open Font License, Version 1.1. This Font Software is distributed on an "AS IS" BASIS, WITHOUT WARRANTIES OR CONDITIONS OF ANY KIND, either express or implied. See the SIL Open Font License for the specific language, permissions and limitations governing your use of this Font Software.
http://scripts.sil.org/OFL
  -->
<path d="M159 166L147 172C169 201 195 251 198 290 247 335 307 232 159 166ZM493 148C472 201 448 257 428 293L444 304C475 277 511 237 541 199 561 202 573 194 577 184ZM193 594L317 594 317 707 193 707ZM48 312L56 340 278 340C222 435 134 524 31 589L40 606C72 591 103 573 133 555L133 957 143 957C174 957 193 941 193 936L193 883 504 883 504 941 514 941C534 941 564 925 565 919L565 600C580 598 592 591 598 584L529 531 496 566 205 566 152 542C215 500 270 451 314 396L314 544 323 544C354 544 374 529 374 523L374 380C443 416 532 481 567 532 643 563 657 415 374 363L374 340 619 340C632 340 642 335 645 324 617 298 570 260 570 260L530 312 374 312 374 137C440 128 500 118 550 108 572 117 590 118 599 110L531 45C427 82 228 125 65 143L69 162C149 160 234 154 314 144L314 312ZM193 735L317 735 317 854 193 854ZM504 594L504 707 374 707 374 594ZM504 735L504 854 374 854 374 735ZM662 116L662 958 672 958C704 958 725 941 725 935L725 145 858 145C835 232 798 365 774 434 851 517 881 600 881 682 881 727 872 751 853 761 845 766 839 767 829 767 811 767 768 767 745 767L745 784C769 787 791 792 800 800 808 808 812 830 812 851 914 846 949 800 948 697 948 610 906 517 798 430 839 363 899 231 932 162 954 162 967 159 975 151L896 73 854 116 738 116 662 76Z"/>
</svg>