<svg xmlns="http://www.w3.org/2000/svg"
    viewBox="0 0 1000 1000">
  <!--
© 2017-2023 Adobe (http://www.adobe.com/).
Noto is a trademark of Google Inc.
This Font Software is licensed under the SIL Open Font License, Version 1.1. This Font Software is distributed on an "AS IS" BASIS, WITHOUT WARRANTIES OR CONDITIONS OF ANY KIND, either express or implied. See the SIL Open Font License for the specific language, permissions and limitations governing your use of this Font Software.
http://scripts.sil.org/OFL
  -->
<path d="M159 136L147 142C169 171 195 221 198 260 247 305 307 202 159 136ZM493 118C472 171 448 227 428 263L444 274C475 247 511 207 541 169 561 172 573 164 577 154ZM193 564L317 564 317 677 193 677ZM48 282L56 310 278 310C222 405 134 494 31 559L40 576C72 561 103 543 133 525L133 927 143 927C174 927 193 911 193 906L193 853 504 853 504 911 514 911C534 911 564 895 565 889L565 570C580 568 592 561 598 554L529 501 496 536 205 536 152 512C215 470 270 421 314 366L314 514 323 514C354 514 374 499 374 493L374 350C443 386 532 451 567 502 643 533 657 385 374 333L374 310 619 310C632 310 642 305 645 294 617 268 570 230 570 230L530 282 374 282 374 107C440 98 500 88 550 78 572 87 590 88 599 80L531 15C427 52 228 95 65 113L69 132C149 130 234 124 314 114L314 282ZM193 705L317 705 317 824 193 824ZM504 564L504 677 374 677 374 564ZM504 705L504 824 374 824 374 705ZM662 86L662 928 672 928C704 928 725 911 725 905L725 115 858 115C835 202 798 335 774 404 851 487 881 570 881 652 881 697 872 721 853 731 845 736 839 737 829 737 811 737 768 737 745 737L745 754C769 757 791 762 800 770 808 778 812 800 812 821 914 816 949 770 948 667 948 580 906 487 798 400 839 333 899 201 932 132 954 132 967 129 975 121L896 43 854 86 738 86 662 46Z"/>
</svg>