<svg xmlns="http://www.w3.org/2000/svg" name="gid13134" data-unicode="鄲"
    viewBox="0 0 1000 1000">
  <!--
© 2017-2024 Adobe (http://www.adobe.com/).
Noto is a trademark of Google Inc.
This Font Software is licensed under the SIL Open Font License, Version 1.1. This Font Software is distributed on an "AS IS" BASIS, WITHOUT WARRANTIES OR CONDITIONS OF ANY KIND, either express or implied. See the SIL Open Font License for the specific language, permissions and limitations governing your use of this Font Software.
http://scripts.sil.org/OFL
  -->
<path d="M504 515L504 616 361 616 361 515ZM504 487L361 487 361 392 504 392ZM299 515L299 616 163 616 163 515ZM299 487L163 487 163 392 299 392ZM102 363L102 686 111 686C136 686 163 672 163 665L163 646 299 646 299 740 40 740 48 770 299 770 299 957 308 957C340 957 361 942 361 937L361 770 607 770C621 770 631 765 632 754 601 724 550 685 550 685L504 740 361 740 361 646 504 646 504 670 513 670C533 670 564 656 565 651L565 404C585 400 601 391 608 383L529 324 494 363 168 363 102 333ZM73 102L73 321 81 321C105 321 130 308 130 303L130 265 238 265 238 301 246 301C265 301 295 288 296 282L296 141C313 138 329 129 335 122L261 66 228 102 134 102 73 74ZM238 237L130 237 130 131 238 131ZM366 102L366 321 375 321C398 321 424 308 424 303L424 265 536 265 536 300 545 300C563 300 593 287 594 281L594 142C613 138 629 130 635 122L559 66 526 102 429 102 366 74ZM536 237L424 237 424 131 536 131ZM654 116L654 958 664 958C695 958 714 941 714 935L714 145 853 145C828 233 787 366 761 434 845 519 880 601 880 684 880 729 868 752 848 763 840 768 833 769 823 769 803 769 757 769 731 769L731 786C759 789 781 794 790 802 799 810 803 831 803 852 909 847 945 801 945 698 945 610 900 518 785 431 829 364 893 232 926 162 949 162 963 159 970 150L892 74 850 116 726 116 654 78Z"/>
</svg>