<svg xmlns="http://www.w3.org/2000/svg" name="gid13155" data-unicode="酔"
    viewBox="0 0 1000 1000">
  <!--
© 2017-2024 Adobe (http://www.adobe.com/).
Noto is a trademark of Google Inc.
This Font Software is licensed under the SIL Open Font License, Version 1.1. This Font Software is distributed on an "AS IS" BASIS, WITHOUT WARRANTIES OR CONDITIONS OF ANY KIND, either express or implied. See the SIL Open Font License for the specific language, permissions and limitations governing your use of this Font Software.
http://scripts.sil.org/OFL
  -->
<path d="M660 455L660 636 482 636 490 665 660 665 660 956 672 956C695 956 721 942 721 934L721 665 932 665C946 665 956 660 958 649 927 619 876 577 876 577L831 636 721 636 721 493C746 490 754 480 757 466ZM66 279L66 952 76 952C103 952 124 937 124 930L124 864 406 864 406 935 414 935C435 935 463 920 464 912L464 507 473 517C619 433 659 320 673 203L767 203 767 414C767 451 775 467 824 467L867 467C942 467 966 454 966 430 966 418 962 410 944 404L941 316 929 316C921 353 912 392 907 402 904 408 901 410 895 410 892 410 882 410 870 410L841 410C829 410 827 408 827 397L827 212C844 210 854 205 860 198L793 139 758 175 676 175C679 143 680 111 681 79 703 77 710 66 712 54L618 45C617 89 617 132 614 175L482 175 491 203 612 203C602 313 569 416 464 498L464 319C484 316 501 308 506 300L430 241 396 279 341 279 341 139 487 139C501 139 511 134 513 123 482 94 429 53 429 53L384 111 40 111 48 139 178 139 178 279 129 279 66 248ZM288 139L288 279 231 279 231 139ZM406 699L406 835 124 835 124 699ZM406 669L124 669 124 596 130 603C224 531 231 423 231 351L231 309 288 309 288 504C288 535 295 549 334 549L363 549C381 549 395 548 406 546ZM406 498C402 500 396 501 392 501 390 501 386 501 383 501 380 501 373 501 366 501L348 501C339 501 336 498 336 488L336 309 406 309ZM124 579L124 309 182 309 182 351C182 419 179 505 124 579Z"/>
</svg>