<svg xmlns="http://www.w3.org/2000/svg" name="gid13161" data-unicode="酛"
    viewBox="0 0 1000 1000">
  <!--
© 2017-2024 Adobe (http://www.adobe.com/).
Noto is a trademark of Google Inc.
This Font Software is licensed under the SIL Open Font License, Version 1.1. This Font Software is distributed on an "AS IS" BASIS, WITHOUT WARRANTIES OR CONDITIONS OF ANY KIND, either express or implied. See the SIL Open Font License for the specific language, permissions and limitations governing your use of this Font Software.
http://scripts.sil.org/OFL
  -->
<path d="M517 122L525 151 897 151C910 151 920 146 922 135 891 105 837 63 837 63L792 122ZM471 381L479 410 591 410C594 639 582 798 435 945L443 959C631 829 653 663 657 410L747 410 747 870C747 912 757 931 813 931L862 931C953 931 977 917 977 891 977 878 972 870 953 863L950 751 937 751C929 795 919 848 913 860 909 867 905 868 900 869 893 870 881 870 864 870L830 870C811 870 809 865 809 851L809 410 953 410C966 410 976 405 979 394 947 364 894 322 894 322L849 381ZM276 141L276 281 229 281 229 141ZM229 112L44 112 52 141 177 141 177 281 130 281 67 250 67 958 77 958C104 958 124 943 124 936L124 868 383 868 383 936 392 936C413 936 442 920 443 913L443 322C462 319 479 311 486 303L408 242 373 281 329 281 329 141 464 141C478 141 488 136 490 125 459 95 408 54 408 54L363 112ZM383 697L383 839 124 839 124 697ZM383 667L124 667 124 598C221 525 229 419 229 349L229 311 276 311 276 497C276 526 283 539 319 539L342 539C359 539 373 538 383 537ZM383 493L379 493C375 495 369 496 365 496 364 496 360 496 357 496 354 496 350 496 345 496L332 496C326 496 324 493 324 484L324 311 383 311ZM124 568L124 311 182 311 182 349C182 412 178 495 124 568Z"/>
</svg>