<svg xmlns="http://www.w3.org/2000/svg" name="gid13163" data-unicode="酢"
    viewBox="0 0 1000 1000">
  <!--
© 2017-2024 Adobe (http://www.adobe.com/).
Noto is a trademark of Google Inc.
This Font Software is licensed under the SIL Open Font License, Version 1.1. This Font Software is distributed on an "AS IS" BASIS, WITHOUT WARRANTIES OR CONDITIONS OF ANY KIND, either express or implied. See the SIL Open Font License for the specific language, permissions and limitations governing your use of this Font Software.
http://scripts.sil.org/OFL
  -->
<path d="M634 41C608 189 555 334 495 428L510 439C553 396 591 341 623 278L675 278 675 957 685 957C716 957 737 941 737 936L737 704 939 704C953 704 963 699 965 688 936 659 887 620 887 620L843 675 737 675 737 487 924 487C938 487 948 482 950 471 920 443 870 402 870 402L828 458 737 458 737 278 943 278C957 278 966 273 969 262 938 232 888 192 888 192L843 249 638 249C662 199 682 145 699 88 721 88 731 78 735 66ZM303 139L303 279 243 279 243 139ZM68 279L68 953 79 953C106 953 127 938 127 930L127 864 428 864 428 936 437 936C459 936 488 920 489 913L489 319C508 316 525 308 531 300L454 240 419 279 358 279 358 139 512 139C526 139 536 134 539 123 506 94 454 53 454 53L409 111 40 111 48 139 189 139 189 279 132 279 68 247ZM428 699L428 835 127 835 127 699ZM428 669L127 669 127 590 138 603C235 531 243 423 243 351L243 309 303 309 303 504C303 535 310 550 350 550L378 550C400 550 416 549 428 546ZM428 498L423 498C419 500 413 501 409 501 406 501 403 501 400 501 396 501 389 501 383 501L364 501C355 501 353 498 353 488L353 309 428 309ZM127 585L127 309 194 309 194 351C194 421 190 510 127 585Z"/>
</svg>