<svg xmlns="http://www.w3.org/2000/svg" name="gid13166" data-unicode="酥"
    viewBox="0 0 1000 1000">
  <!--
© 2017-2024 Adobe (http://www.adobe.com/).
Noto is a trademark of Google Inc.
This Font Software is licensed under the SIL Open Font License, Version 1.1. This Font Software is distributed on an "AS IS" BASIS, WITHOUT WARRANTIES OR CONDITIONS OF ANY KIND, either express or implied. See the SIL Open Font License for the specific language, permissions and limitations governing your use of this Font Software.
http://scripts.sil.org/OFL
  -->
<path d="M823 48C753 98 611 161 490 193L495 209C556 202 619 190 678 176L678 370 476 370 484 399 646 399C609 548 543 697 447 808L461 822C557 735 629 629 678 508L678 959 688 959C718 959 740 943 740 937L740 444C776 600 834 728 914 809 924 777 946 759 971 755L974 745C880 679 796 545 751 399L942 399C956 399 965 394 967 383 936 353 883 311 883 311L837 370 740 370 740 161C785 148 827 135 860 122 885 131 903 129 911 120ZM228 111L39 111 47 140 174 140 174 279 133 279 70 248 70 953 80 953C107 953 128 938 128 931L128 864 388 864 388 942 397 942C418 942 446 925 447 919L447 319C466 316 483 308 489 300L413 241 378 279 332 279 332 140 477 140C491 140 501 135 503 124 472 94 421 53 421 53L376 111ZM278 140L278 279 228 279 228 140ZM388 835L128 835 128 695 388 695ZM388 544L388 666 128 666 128 595 130 597C221 529 228 429 228 360L228 309 278 309 278 503C278 533 285 547 321 547L344 547C363 547 377 546 388 544ZM388 495L381 495C377 496 371 499 368 499 366 499 363 499 360 499 357 499 352 499 348 499L335 499C329 499 327 496 327 487L327 309 388 309ZM128 570L128 309 179 309 179 360C179 423 177 501 128 570Z"/>
</svg>