<svg xmlns="http://www.w3.org/2000/svg" name="gid13177" data-unicode="酷"
    viewBox="0 0 1000 1000">
  <!--
© 2017-2024 Adobe (http://www.adobe.com/).
Noto is a trademark of Google Inc.
This Font Software is licensed under the SIL Open Font License, Version 1.1. This Font Software is distributed on an "AS IS" BASIS, WITHOUT WARRANTIES OR CONDITIONS OF ANY KIND, either express or implied. See the SIL Open Font License for the specific language, permissions and limitations governing your use of this Font Software.
http://scripts.sil.org/OFL
  -->
<path d="M539 581L539 955 549 955C579 955 599 941 599 936L599 874 835 874 835 949 845 949C874 949 898 935 898 930L898 615C917 612 928 606 935 598L864 544 832 581 611 581 539 551ZM599 845L599 611 835 611 835 845ZM683 49L683 231 592 231C604 197 613 161 621 124 642 124 652 115 656 103L556 79C548 195 522 310 485 391L501 401C534 363 560 315 581 260L683 260 683 446 482 446 490 474 940 474C954 474 964 469 966 458 936 429 887 388 887 388L842 446 745 446 745 260 908 260C921 260 931 255 934 245 903 214 851 174 851 174L806 231 745 231 745 84C767 80 775 72 776 59ZM277 139L277 279 222 279 222 139ZM65 279L65 953 75 953C101 953 122 938 122 931L122 864 390 864 390 941 399 941C420 941 447 925 449 918L449 319C468 316 485 308 491 300L415 241 381 279 329 279 329 139 469 139C483 139 493 134 496 123 464 94 412 53 412 53L366 111 40 111 48 139 170 139 170 279 127 279 65 248ZM390 699L390 835 122 835 122 699ZM390 669L122 669 122 599 125 603C216 530 222 423 222 351L222 309 277 309 277 504C277 534 283 549 321 549L347 549C365 549 379 548 390 546ZM390 498L388 498C384 500 378 501 374 501 372 501 369 501 366 501 363 501 357 501 351 501L334 501C327 501 325 498 325 488L325 309 390 309ZM122 577L122 309 174 309 174 351C174 419 173 502 122 577Z"/>
</svg>