<svg xmlns="http://www.w3.org/2000/svg" name="gid13183" data-unicode="醂"
    viewBox="0 0 1000 1000">
  <!--
© 2017-2024 Adobe (http://www.adobe.com/).
Noto is a trademark of Google Inc.
This Font Software is licensed under the SIL Open Font License, Version 1.1. This Font Software is distributed on an "AS IS" BASIS, WITHOUT WARRANTIES OR CONDITIONS OF ANY KIND, either express or implied. See the SIL Open Font License for the specific language, permissions and limitations governing your use of this Font Software.
http://scripts.sil.org/OFL
  -->
<path d="M62 279L62 953 72 953C97 953 117 939 117 932L117 864 336 864 336 941 344 941C364 941 390 925 391 919L391 715 401 725C458 651 499 568 527 479L527 960 539 960C560 960 584 945 584 936L584 411C606 443 630 484 636 517 687 556 737 457 584 384L584 296 681 296 690 295 738 295C712 461 665 623 587 751L603 764C671 678 721 580 756 473L756 959 766 959C788 959 813 944 813 934L813 397C835 534 873 667 934 751 940 721 955 699 981 686L984 675C903 594 847 442 822 295L939 295C953 295 962 290 964 279 938 251 893 213 893 213L854 265 813 265 813 80C838 76 846 66 848 52L756 42 756 265 691 265C666 240 636 215 636 215L597 266 584 266 584 76C610 72 618 63 621 49L527 38 527 266 413 266 419 288 360 242 326 279 296 279 296 139 411 139C425 139 435 134 438 123 406 94 355 52 355 52L309 111 41 111 49 139 151 139 151 279 122 279 62 250ZM506 296C488 443 456 586 391 704L391 319C411 316 428 308 434 300L429 296ZM243 139L243 279 202 279 202 139ZM336 699L336 835 117 835 117 699ZM336 669L117 669 117 592 124 600C198 526 202 421 202 350L202 309 243 309 243 516C243 544 250 558 285 558L304 558 336 557ZM336 510L324 512C322 512 320 512 317 512 314 512 310 512 307 512L298 512C292 512 290 510 290 500L290 309 336 309ZM117 574L117 309 157 309 157 350C157 416 158 500 117 574Z"/>
</svg>