<svg xmlns="http://www.w3.org/2000/svg"
    viewBox="0 0 1000 1000">
  <!--
© 2017-2024 Adobe (http://www.adobe.com/).
Noto is a trademark of Google Inc.
This Font Software is licensed under the SIL Open Font License, Version 1.1. This Font Software is distributed on an "AS IS" BASIS, WITHOUT WARRANTIES OR CONDITIONS OF ANY KIND, either express or implied. See the SIL Open Font License for the specific language, permissions and limitations governing your use of this Font Software.
http://scripts.sil.org/OFL
  -->
<path d="M211 249L211 107 247 107 247 249ZM378 32L342 77 39 77 47 107 162 107 162 249 129 249 71 220 71 925 80 925C105 925 123 911 123 904L123 835 329 835 329 909 337 909C355 909 380 894 381 887L381 289C401 285 418 278 424 270L352 213 320 249 296 249 296 107 419 107C433 107 442 102 444 91 419 65 378 32 378 32ZM211 320L211 279 247 279 247 485C247 511 253 525 284 525L299 525 329 523 329 640 123 640 123 562 130 570C206 496 211 391 211 320ZM168 279L168 320C168 386 168 471 123 545L123 279ZM289 279L329 279 329 481 325 481C322 482 316 482 312 482 311 482 309 482 307 482 305 482 303 482 301 482L296 482C292 482 289 480 289 470ZM123 805L123 669 329 669 329 805ZM625 206L589 252 571 252 571 50C596 46 606 36 609 22L517 12 517 252 419 252 424 270 427 282 517 282 517 454 488 454 432 427 432 826 440 826C462 826 483 813 483 807L483 723 596 723 596 775 606 775C626 775 646 762 648 758L648 494C665 491 678 484 685 477L628 422 600 454 571 454 571 282 665 282C678 282 687 277 690 266 664 240 625 206 625 206ZM596 484L596 693 483 693 483 484ZM752 535L753 468 753 330 870 330 870 535ZM699 70L699 469C699 645 689 803 588 919L604 928C718 836 745 703 751 564L870 564 870 828C870 843 866 849 849 849 832 849 746 841 746 841L746 858C783 862 806 870 819 880 830 889 836 906 838 922 917 915 926 884 926 835L926 120C945 116 962 109 969 101L891 42 861 80 765 80 699 49ZM753 300L753 109 870 109 870 300Z"/>
</svg>