<svg xmlns="http://www.w3.org/2000/svg"
    viewBox="0 0 1000 1000">
  <!--
© 2017-2023 Adobe (http://www.adobe.com/).
Noto is a trademark of Google Inc.
This Font Software is licensed under the SIL Open Font License, Version 1.1. This Font Software is distributed on an "AS IS" BASIS, WITHOUT WARRANTIES OR CONDITIONS OF ANY KIND, either express or implied. See the SIL Open Font License for the specific language, permissions and limitations governing your use of this Font Software.
http://scripts.sil.org/OFL
  -->
<path d="M585 231L849 231 849 341 585 341ZM585 203L585 96 849 96 849 203ZM525 67L525 417 535 417C566 417 585 404 585 398L585 370 849 370 849 408 858 408C887 408 910 393 910 389L910 100C930 97 941 91 947 84L877 29 846 67 596 67 525 36ZM547 424C534 526 503 625 465 692L480 702C515 667 544 620 568 566L690 566 690 690 523 690 531 720 690 720 690 869 462 869 470 898 946 898C960 898 969 893 971 882 942 853 891 813 891 813L849 869 750 869 750 720 911 720C925 720 934 715 937 704 909 677 865 640 865 640L826 690 750 690 750 566 926 566C939 566 950 561 952 550 922 522 875 484 875 484L833 538 750 538 750 444C773 441 780 432 782 418L690 409 690 538 579 538C588 515 595 492 602 468 623 468 635 458 638 446ZM277 109L277 249 222 249 222 109ZM65 249L65 923 75 923C101 923 122 908 122 901L122 834 390 834 390 911 399 911C420 911 447 895 449 888L449 289C468 286 485 278 491 270L415 211 381 249 329 249 329 109 469 109C483 109 493 104 496 93 464 64 412 23 412 23L366 81 40 81 48 109 170 109 170 249 127 249 65 218ZM390 669L390 805 122 805 122 669ZM390 639L122 639 122 569 125 573C216 500 222 393 222 321L222 279 277 279 277 474C277 504 283 519 321 519L347 519C365 519 379 518 390 516ZM390 468L388 468C384 470 378 471 374 471 372 471 369 471 366 471 363 471 357 471 351 471L334 471C327 471 325 468 325 458L325 279 390 279ZM122 547L122 279 174 279 174 321C174 389 173 472 122 547Z"/>
</svg>