<svg xmlns="http://www.w3.org/2000/svg"
    viewBox="0 0 1000 1000">
  <!--
© 2017-2023 Adobe (http://www.adobe.com/).
Noto is a trademark of Google Inc.
This Font Software is licensed under the SIL Open Font License, Version 1.1. This Font Software is distributed on an "AS IS" BASIS, WITHOUT WARRANTIES OR CONDITIONS OF ANY KIND, either express or implied. See the SIL Open Font License for the specific language, permissions and limitations governing your use of this Font Software.
http://scripts.sil.org/OFL
  -->
<path d="M663 13L663 123 441 123 449 152 950 152C963 152 972 147 975 136 945 107 894 68 894 68L851 123 726 123 726 50C750 46 760 37 762 23ZM550 703L580 775C590 773 598 768 604 755 681 738 741 722 787 710 796 732 802 753 804 773 854 818 905 704 747 614L734 620C749 639 764 663 777 689L650 697C666 665 683 624 698 582L863 582 863 833C863 846 859 852 843 852 824 852 743 846 743 846L743 861C780 866 801 873 814 883 825 892 829 909 831 927 913 919 922 888 922 840L922 591C939 588 954 580 960 573L884 517 854 552 709 552C722 516 734 480 743 448L839 448 839 494 851 494C872 494 898 481 898 475L898 218C917 216 924 208 926 196L839 186 839 419 566 419 566 218C584 215 591 207 593 196L508 186 508 499 519 499C541 499 566 486 566 479L566 448 672 448C668 479 662 515 655 552L556 552 485 522 485 928 494 928C524 928 544 912 544 907L544 582 650 582C641 625 632 666 624 699ZM748 168C734 201 717 232 698 261 672 248 641 236 603 225L593 237C619 252 648 272 675 294 644 336 610 371 576 396L588 410C630 389 671 359 708 323 734 347 755 372 766 394 813 416 834 350 742 286 759 266 775 244 789 221 810 226 823 218 828 209ZM269 110L269 251 223 251 223 110ZM223 81L44 81 52 110 171 110 171 251 132 251 72 221 72 928 81 928C107 928 127 913 127 906L127 844 372 844 372 910 383 910C405 910 428 895 430 891L430 291C445 289 460 281 467 274L407 215 374 251 321 251 321 110 450 110C464 110 473 105 476 94 445 65 394 24 394 24L350 81ZM127 673L372 673 372 814 127 814ZM127 644L127 280 176 280 176 323C176 392 172 492 131 560L145 575C215 505 223 396 223 323L223 280 269 280 269 473C269 500 276 514 311 514L331 514C348 514 362 513 372 511L372 644ZM316 280L372 280 372 470 365 470C361 471 355 472 351 472 349 472 347 472 344 472 341 472 337 472 334 472L324 472C318 472 316 469 316 459Z"/>
</svg>