<svg xmlns="http://www.w3.org/2000/svg"
    viewBox="0 0 1000 1000">
  <!--
© 2017-2023 Adobe (http://www.adobe.com/).
Noto is a trademark of Google Inc.
This Font Software is licensed under the SIL Open Font License, Version 1.1. This Font Software is distributed on an "AS IS" BASIS, WITHOUT WARRANTIES OR CONDITIONS OF ANY KIND, either express or implied. See the SIL Open Font License for the specific language, permissions and limitations governing your use of this Font Software.
http://scripts.sil.org/OFL
  -->
<path d="M174 330L174 665 184 665C212 665 240 649 240 642L240 621 464 621 464 724 118 724 127 753 464 753 464 867 40 867 49 895 933 895C947 895 958 890 960 879 925 848 869 804 869 804L819 867 530 867 530 753 867 753C881 753 891 748 894 738 861 708 809 669 809 669L763 724 530 724 530 621 755 621 755 656 765 656C786 656 820 642 821 637L821 371C841 367 857 359 864 352L781 289 746 330 530 330 530 235 919 235C933 235 944 230 946 220 912 189 858 148 858 148L811 206 530 206 530 108C626 99 715 87 789 75 813 86 832 86 840 78L773 11C625 51 348 95 124 111L128 131C238 130 354 124 464 114L464 206 57 206 66 235 464 235 464 330 246 330 174 297ZM464 592L240 592 240 488 464 488ZM530 592L530 488 755 488 755 592ZM464 459L240 459 240 358 464 358ZM530 459L530 358 755 358 755 459Z"/>
</svg>