<svg xmlns="http://www.w3.org/2000/svg" name="gid13241" data-unicode="野"
    viewBox="0 0 1000 1000">
  <!--
© 2017-2024 Adobe (http://www.adobe.com/).
Noto is a trademark of Google Inc.
This Font Software is licensed under the SIL Open Font License, Version 1.1. This Font Software is distributed on an "AS IS" BASIS, WITHOUT WARRANTIES OR CONDITIONS OF ANY KIND, either express or implied. See the SIL Open Font License for the specific language, permissions and limitations governing your use of this Font Software.
http://scripts.sil.org/OFL
  -->
<path d="M72 114L72 534 82 534C108 534 132 520 132 513L132 471 241 471 241 612 58 612 66 642 241 642 241 801C151 818 78 831 34 837L81 923C91 920 99 913 104 900 295 842 432 795 530 760L526 743 303 788 303 642 483 642C496 642 506 637 508 626 479 597 432 559 432 559L391 612 303 612 303 471 415 471 415 515 425 515C446 515 478 498 479 491L479 155C499 151 514 143 521 135L441 74 405 114 137 114 72 84ZM415 143L415 279 303 279 303 143ZM132 308L241 308 241 443 132 443ZM132 279L132 143 241 143 241 279ZM415 308L415 443 303 443 303 308ZM519 112L528 141 827 141C799 179 759 227 724 264 690 241 641 221 575 207L565 217C634 254 722 328 747 393 801 420 828 345 745 279 804 241 875 190 913 152 935 151 947 149 955 142L879 69 835 112ZM484 417L493 446 680 446 680 854C680 869 674 875 654 875 630 875 511 866 511 866L511 881C563 887 592 896 610 908 623 918 631 937 633 958 731 948 745 909 745 857L745 446 864 446C847 498 818 567 795 610L808 618C854 576 909 508 939 458 959 456 970 454 978 448L902 375 861 417Z"/>
</svg>