<svg xmlns="http://www.w3.org/2000/svg" name="gid13243" data-unicode="釐"
    viewBox="0 0 1000 1000">
  <!--
© 2017-2024 Adobe (http://www.adobe.com/).
Noto is a trademark of Google Inc.
This Font Software is licensed under the SIL Open Font License, Version 1.1. This Font Software is distributed on an "AS IS" BASIS, WITHOUT WARRANTIES OR CONDITIONS OF ANY KIND, either express or implied. See the SIL Open Font License for the specific language, permissions and limitations governing your use of this Font Software.
http://scripts.sil.org/OFL
  -->
<path d="M148 437L148 562C148 687 136 826 39 941L52 954C197 842 210 677 210 562L210 466 877 466C891 466 900 461 903 450 872 423 824 385 824 385L782 437 222 437 148 404ZM615 43C596 108 558 181 510 232 484 205 440 171 440 171L403 218 318 218 318 159 472 159C485 159 494 154 497 143 470 116 426 81 426 81L387 129 318 129 318 74C342 70 351 61 354 49L260 38 260 129 88 129 96 159 260 159 260 218 65 218 73 247 228 247C185 309 121 363 46 403L56 421C137 390 207 349 260 296L260 408 272 408C294 408 318 395 318 387L318 288C362 311 415 349 437 379 497 403 516 292 318 269L318 247 485 247 496 246 483 257 495 268C530 250 562 225 589 198 613 235 640 268 673 297 624 336 559 366 479 390L485 406C574 388 649 363 709 325 757 359 817 386 893 406 898 377 916 362 938 356L941 345C867 334 805 316 753 293 792 260 822 219 842 170L915 170C929 170 939 165 942 154 908 123 858 85 858 85L813 141 638 141C652 121 665 100 675 79 699 81 706 77 710 66ZM293 521L293 779 302 779C327 779 354 766 354 760L354 741 515 741 515 810 253 810 261 839 515 839 515 906 181 906 190 935 918 935C933 935 942 930 945 919 913 890 862 851 862 851L818 906 578 906 578 839 844 839C858 839 867 834 870 823 840 797 796 764 796 764L757 810 578 810 578 741 741 741 741 772 751 772C771 772 802 758 803 751L803 560C820 557 835 549 841 542L766 486 732 521 359 521 293 492ZM741 551L741 616 578 616 578 551ZM354 645L515 645 515 711 354 711ZM354 616L354 551 515 551 515 616ZM741 645L741 711 578 711 578 645ZM769 170C754 207 733 240 705 268 665 244 632 215 605 181L615 170Z"/>
</svg>