<svg xmlns="http://www.w3.org/2000/svg" name="gid13248" data-unicode="釗"
    viewBox="0 0 1000 1000">
  <!--
© 2017-2024 Adobe (http://www.adobe.com/).
Noto is a trademark of Google Inc.
This Font Software is licensed under the SIL Open Font License, Version 1.1. This Font Software is distributed on an "AS IS" BASIS, WITHOUT WARRANTIES OR CONDITIONS OF ANY KIND, either express or implied. See the SIL Open Font License for the specific language, permissions and limitations governing your use of this Font Software.
http://scripts.sil.org/OFL
  -->
<path d="M593 143L593 737 605 737C630 737 657 723 657 714L657 179C679 175 687 166 690 153ZM821 63L821 853C821 871 815 877 793 877 769 877 642 867 642 867L642 883C695 890 727 898 744 910 760 921 767 938 771 959 875 949 886 913 886 859L886 101C910 98 920 88 923 74ZM409 568C394 640 371 720 352 771L368 780C403 737 439 674 466 619 487 620 498 611 502 599ZM106 579L93 585C119 637 150 719 150 781 203 836 265 710 106 579ZM46 868L90 955C99 952 109 944 113 932 302 881 438 838 536 807L533 791 318 828 318 525 502 525C516 525 526 520 529 509 499 480 450 441 450 441L408 496 318 496 318 361 464 361C478 361 487 356 489 345 460 316 413 278 413 278L371 331 131 331C203 264 266 183 309 114 378 170 431 236 455 284 515 326 588 199 319 97 345 96 356 90 360 79L265 42C226 145 126 303 31 389L43 400C73 380 102 357 129 332L137 361 254 361 254 496 54 496 62 525 254 525 254 838C164 852 90 863 46 868Z"/>
</svg>