<svg xmlns="http://www.w3.org/2000/svg"
    viewBox="0 0 1000 1000">
  <!--
© 2017-2024 Adobe (http://www.adobe.com/).
Noto is a trademark of Google Inc.
This Font Software is licensed under the SIL Open Font License, Version 1.1. This Font Software is distributed on an "AS IS" BASIS, WITHOUT WARRANTIES OR CONDITIONS OF ANY KIND, either express or implied. See the SIL Open Font License for the specific language, permissions and limitations governing your use of this Font Software.
http://scripts.sil.org/OFL
  -->
<path d="M593 113L593 707 605 707C630 707 657 693 657 684L657 149C679 145 687 136 690 123ZM821 33L821 823C821 841 815 847 793 847 769 847 642 837 642 837L642 853C695 860 727 868 744 880 760 891 767 908 771 929 875 919 886 883 886 829L886 71C910 68 920 58 923 44ZM409 538C394 610 371 690 352 741L368 750C403 707 439 644 466 589 487 590 498 581 502 569ZM106 549L93 555C119 607 150 689 150 751 203 806 265 680 106 549ZM46 838L90 925C99 922 109 914 113 902 302 851 438 808 536 777L533 761 318 798 318 495 502 495C516 495 526 490 529 479 499 450 450 411 450 411L408 466 318 466 318 331 464 331C478 331 487 326 489 315 460 286 413 248 413 248L371 301 131 301C203 234 266 153 309 84 378 140 431 206 455 254 515 296 588 169 319 67 345 66 356 60 360 49L265 12C226 115 126 273 31 359L43 370C73 350 102 327 129 302L137 331 254 331 254 466 54 466 62 495 254 495 254 808C164 822 90 833 46 838Z"/>
</svg>