<svg xmlns="http://www.w3.org/2000/svg"
    viewBox="0 0 1000 1000">
  <!--
© 2017-2023 Adobe (http://www.adobe.com/).
Noto is a trademark of Google Inc.
This Font Software is licensed under the SIL Open Font License, Version 1.1. This Font Software is distributed on an "AS IS" BASIS, WITHOUT WARRANTIES OR CONDITIONS OF ANY KIND, either express or implied. See the SIL Open Font License for the specific language, permissions and limitations governing your use of this Font Software.
http://scripts.sil.org/OFL
  -->
<path d="M239 669L228 676C259 717 293 786 297 839 358 892 420 759 239 669ZM590 25L583 40C709 100 803 184 838 236 916 274 958 105 590 25ZM341 15C291 87 186 183 88 241L98 255C214 212 329 137 391 74 413 79 423 75 429 66ZM690 662C670 725 635 810 604 871L530 871 530 638 863 638C877 638 887 633 890 622 856 593 804 552 804 552L757 610 530 610 530 500 697 500C710 500 720 495 722 485 692 456 642 418 642 418L600 471 261 471 269 500 465 500 465 610 119 610 127 638 465 638 465 871 57 871 66 900 915 900C929 900 939 895 942 884 907 853 851 809 851 809L803 871 628 871C674 821 723 757 755 707 776 707 788 699 792 687ZM358 155L344 167C374 212 413 251 458 287 340 369 190 439 36 482L42 498C217 465 381 399 508 322 621 395 765 444 912 474 920 442 940 420 969 415L970 403C826 386 675 349 553 293 598 262 636 230 668 197 690 205 699 202 706 194L625 135C591 179 546 221 492 262 438 231 392 195 358 155Z"/>
</svg>