<svg xmlns="http://www.w3.org/2000/svg" name="gid13253" data-unicode="釜"
    viewBox="0 0 1000 1000">
  <!--
© 2017-2024 Adobe (http://www.adobe.com/).
Noto is a trademark of Google Inc.
This Font Software is licensed under the SIL Open Font License, Version 1.1. This Font Software is distributed on an "AS IS" BASIS, WITHOUT WARRANTIES OR CONDITIONS OF ANY KIND, either express or implied. See the SIL Open Font License for the specific language, permissions and limitations governing your use of this Font Software.
http://scripts.sil.org/OFL
  -->
<path d="M239 699L228 706C259 747 293 816 297 869 358 922 420 789 239 699ZM590 55L583 70C709 130 803 214 838 266 916 304 958 135 590 55ZM341 45C291 117 186 213 88 271L98 285C214 242 329 167 391 104 413 109 423 105 429 96ZM690 692C670 755 635 840 604 901L530 901 530 668 863 668C877 668 887 663 890 652 856 623 804 582 804 582L757 640 530 640 530 530 697 530C710 530 720 525 722 515 692 486 642 448 642 448L600 501 261 501 269 530 465 530 465 640 119 640 127 668 465 668 465 901 57 901 66 930 915 930C929 930 939 925 942 914 907 883 851 839 851 839L803 901 628 901C674 851 723 787 755 737 776 737 788 729 792 717ZM358 185L344 197C374 242 413 281 458 317 340 399 190 469 36 512L42 528C217 495 381 429 508 352 621 425 765 474 912 504 920 472 940 450 969 445L970 433C826 416 675 379 553 323 598 292 636 260 668 227 690 235 699 232 706 224L625 165C591 209 546 251 492 292 438 261 392 225 358 185Z"/>
</svg>