<svg xmlns="http://www.w3.org/2000/svg" name="gid13262" data-unicode="釧"
    viewBox="0 0 1000 1000">
  <!--
© 2017-2024 Adobe (http://www.adobe.com/).
Noto is a trademark of Google Inc.
This Font Software is licensed under the SIL Open Font License, Version 1.1. This Font Software is distributed on an "AS IS" BASIS, WITHOUT WARRANTIES OR CONDITIONS OF ANY KIND, either express or implied. See the SIL Open Font License for the specific language, permissions and limitations governing your use of this Font Software.
http://scripts.sil.org/OFL
  -->
<path d="M845 64L845 954 857 954C881 954 907 938 907 929L907 103C933 99 940 89 943 75ZM663 105L663 898 675 898C697 898 723 884 723 875L723 141C746 137 754 128 756 115ZM348 570C338 639 321 719 307 771L323 779C354 735 382 673 405 618 426 619 437 610 441 598ZM93 579L79 584C98 637 118 719 114 782 165 838 229 715 93 579ZM39 872L87 955C96 951 105 943 108 930 261 875 372 830 451 796 431 851 402 901 362 946L377 958C522 839 557 668 558 479L558 105C583 101 590 91 593 77L496 67 496 479C496 594 486 700 452 793L449 780 276 821 276 524 427 524C441 524 450 519 453 508 423 479 375 439 375 439L333 495 276 495 276 361 398 361C412 361 422 356 424 345 394 316 348 278 348 278L306 331 118 331 126 361 215 361 215 495 46 495 54 524 215 524 215 835C139 852 76 865 39 872ZM275 95C299 95 309 87 312 77L216 44C185 148 103 310 20 398L34 408C130 333 215 211 265 112 324 165 369 226 390 269 447 310 520 191 275 95Z"/>
</svg>