<svg xmlns="http://www.w3.org/2000/svg" name="gid13266" data-unicode="釭"
    viewBox="0 0 1000 1000">
  <!--
© 2017-2024 Adobe (http://www.adobe.com/).
Noto is a trademark of Google Inc.
This Font Software is licensed under the SIL Open Font License, Version 1.1. This Font Software is distributed on an "AS IS" BASIS, WITHOUT WARRANTIES OR CONDITIONS OF ANY KIND, either express or implied. See the SIL Open Font License for the specific language, permissions and limitations governing your use of this Font Software.
http://scripts.sil.org/OFL
  -->
<path d="M389 570C373 641 352 721 331 772L348 781C383 739 419 676 446 620 466 621 478 612 482 601ZM102 579L89 584C109 637 132 719 130 782 181 839 247 713 102 579ZM411 884L419 912 947 912C961 912 970 908 972 897 940 865 885 823 885 823L837 884 720 884 720 181 926 181C940 181 950 176 953 165 920 134 867 92 867 92L820 151 455 151 463 181 655 181 655 884ZM304 97C329 96 341 90 344 78L249 42C212 144 115 299 23 384L36 395C140 326 235 210 293 115 353 168 398 229 418 274 476 316 550 193 304 97ZM41 871L86 956C96 953 104 945 109 933 285 879 413 835 505 802L502 787 299 826 299 525 467 525C481 525 491 520 493 509 463 480 415 441 415 441L372 496 299 496 299 361 426 361C439 361 448 356 451 345 422 316 374 278 374 278L333 331 123 331 131 361 235 361 235 496 49 496 57 525 235 525 235 838C151 853 82 865 41 871Z"/>
</svg>