<svg xmlns="http://www.w3.org/2000/svg"
    viewBox="0 0 1000 1000">
  <!--
© 2017-2024 Adobe (http://www.adobe.com/).
Noto is a trademark of Google Inc.
This Font Software is licensed under the SIL Open Font License, Version 1.1. This Font Software is distributed on an "AS IS" BASIS, WITHOUT WARRANTIES OR CONDITIONS OF ANY KIND, either express or implied. See the SIL Open Font License for the specific language, permissions and limitations governing your use of this Font Software.
http://scripts.sil.org/OFL
  -->
<path d="M362 526C350 595 330 671 312 720L329 729C361 687 393 628 418 576 437 576 449 568 453 556ZM99 535L86 539C103 592 121 674 115 737 164 794 230 671 99 535ZM827 117L827 379 564 379 564 376 564 117ZM502 88L502 377C502 574 483 765 351 917L365 929C535 789 561 587 564 409L680 409C705 653 774 833 910 923 916 892 938 869 969 858L970 847C824 775 735 629 702 409L827 409 827 476 837 476C858 476 891 461 892 455L892 129C911 125 927 117 934 109L854 47 817 88 577 88 502 55ZM43 837L91 920C101 916 109 908 112 895 260 839 368 792 443 758L440 743 278 784 278 481 435 481C449 481 458 477 460 466 432 436 383 397 383 397L341 453 278 453 278 323 408 323C421 323 431 318 433 307 404 279 358 240 358 240L317 293 123 293C182 226 231 147 264 81 329 131 380 192 404 235 463 273 530 152 278 65 299 64 307 57 310 47L214 15C183 120 101 281 19 370L32 381C61 358 90 331 116 301L122 323 218 323 218 453 49 453 57 481 218 481 218 799C142 817 80 831 43 837Z"/>
</svg>