<svg xmlns="http://www.w3.org/2000/svg" name="gid13312" data-unicode="鈳"
    viewBox="0 0 1000 1000">
  <!--
© 2017-2024 Adobe (http://www.adobe.com/).
Noto is a trademark of Google Inc.
This Font Software is licensed under the SIL Open Font License, Version 1.1. This Font Software is distributed on an "AS IS" BASIS, WITHOUT WARRANTIES OR CONDITIONS OF ANY KIND, either express or implied. See the SIL Open Font License for the specific language, permissions and limitations governing your use of this Font Software.
http://scripts.sil.org/OFL
  -->
<path d="M339 557C328 625 312 702 298 752L315 759C344 718 372 657 396 605 415 606 427 597 431 586ZM85 566L71 570C90 624 110 705 105 768 155 824 219 700 85 566ZM469 316L469 728 479 728C503 728 527 714 527 708L527 634 652 634 652 694 661 694C681 694 710 680 711 673L711 356C730 352 746 344 752 336L677 279 643 316 532 316 469 287ZM652 604L527 604 527 345 652 345ZM406 129L414 159 805 159 805 855C805 871 799 878 779 878 755 878 642 868 642 868L642 885C693 890 720 899 737 910 752 921 758 939 760 960 856 949 869 910 869 858L869 159 948 159C963 159 971 154 974 143 939 110 882 65 882 65L832 129ZM259 95C282 93 291 86 294 76L198 44C169 147 94 305 18 392L32 402C123 328 202 208 248 111 309 164 355 226 375 270 432 310 505 191 259 95ZM37 866L84 949C94 945 103 937 106 924 257 870 366 826 443 792L440 777 264 818 264 511 408 511C422 511 431 507 434 496 405 467 358 428 358 428L317 482 264 482 264 355 377 355C390 355 400 350 403 339 374 311 328 273 328 273L287 325 111 325 119 355 203 355 203 482 46 482 54 511 203 511 203 832C131 848 72 860 37 866Z"/>
</svg>