<svg xmlns="http://www.w3.org/2000/svg" name="gid13316" data-unicode="鈷"
    viewBox="0 0 1000 1000">
  <!--
© 2017-2024 Adobe (http://www.adobe.com/).
Noto is a trademark of Google Inc.
This Font Software is licensed under the SIL Open Font License, Version 1.1. This Font Software is distributed on an "AS IS" BASIS, WITHOUT WARRANTIES OR CONDITIONS OF ANY KIND, either express or implied. See the SIL Open Font License for the specific language, permissions and limitations governing your use of this Font Software.
http://scripts.sil.org/OFL
  -->
<path d="M348 570C338 639 321 719 307 771L323 779C354 735 382 673 405 618 426 619 437 610 441 598ZM93 579L79 584C98 637 118 719 114 782 165 838 229 715 93 579ZM491 539L491 958 500 958C530 958 551 944 551 938L551 882 841 882 841 949 851 949C879 949 903 934 903 929L903 573C924 570 934 565 941 557L870 502 838 539 723 539 723 314 939 314C953 314 962 309 965 298 932 266 879 224 879 224L830 284 723 284 723 84C746 81 755 72 757 58L660 49 660 284 443 284 451 314 660 314 660 539 563 539 491 509ZM551 852L551 569 841 569 841 852ZM275 95C299 95 309 87 312 77L216 44C185 148 103 310 20 398L34 408C130 333 215 211 265 112 324 165 369 226 390 269 447 310 520 191 275 95ZM39 872L87 955C96 951 105 943 108 930 262 875 374 829 453 795L449 780 276 821 276 524 427 524C441 524 450 519 453 508 423 479 375 439 375 439L333 495 276 495 276 361 398 361C412 361 422 356 424 345 394 316 348 278 348 278L306 331 118 331 126 361 215 361 215 495 46 495 54 524 215 524 215 835C139 852 76 865 39 872Z"/>
</svg>