<svg xmlns="http://www.w3.org/2000/svg"
    viewBox="0 0 1000 1000">
  <!--
© 2017-2023 Adobe (http://www.adobe.com/).
Noto is a trademark of Google Inc.
This Font Software is licensed under the SIL Open Font License, Version 1.1. This Font Software is distributed on an "AS IS" BASIS, WITHOUT WARRANTIES OR CONDITIONS OF ANY KIND, either express or implied. See the SIL Open Font License for the specific language, permissions and limitations governing your use of this Font Software.
http://scripts.sil.org/OFL
  -->
<path d="M325 535C317 602 303 679 290 732L308 738C335 695 362 634 382 582 402 581 413 572 417 561ZM88 542L73 546C91 601 108 682 102 745 150 802 215 679 88 542ZM649 201L649 396 516 396 516 201ZM36 842L87 924C95 920 104 911 107 899 235 847 333 803 406 769 388 820 363 870 330 916L344 927C496 785 514 585 516 425L555 425C577 539 614 634 666 713 601 794 515 862 407 912L416 926C535 884 626 825 696 754 753 825 824 881 910 923 923 892 946 873 974 870L977 860C883 827 801 777 736 711 803 631 848 537 879 436 903 434 913 431 919 423L847 356 806 396 712 396 712 201 849 201C838 239 821 292 811 320L826 326C853 297 900 243 926 213 946 212 957 211 964 203L889 130 847 172 712 172 712 49C734 45 743 37 745 23L649 14 649 172 528 172 454 139 454 401C454 516 448 634 414 745L260 787 260 488 404 488C418 488 427 483 429 473 401 443 354 404 354 404L312 459 260 459 260 332 370 332C383 332 392 327 395 316 367 288 320 250 320 250L280 302 111 302 119 332 201 332 201 459 47 459 55 488 201 488 201 802C130 821 71 835 36 842ZM808 425C785 514 749 596 698 670 643 602 601 521 576 425ZM259 65C282 63 291 57 294 46L198 14C169 117 94 275 18 362L32 372C123 298 202 178 248 81 306 134 349 194 368 238 424 280 497 162 259 65Z"/>
</svg>