<svg xmlns="http://www.w3.org/2000/svg"
    viewBox="0 0 1000 1000">
  <!--
© 2017-2024 Adobe (http://www.adobe.com/).
Noto is a trademark of Google Inc.
This Font Software is licensed under the SIL Open Font License, Version 1.1. This Font Software is distributed on an "AS IS" BASIS, WITHOUT WARRANTIES OR CONDITIONS OF ANY KIND, either express or implied. See the SIL Open Font License for the specific language, permissions and limitations governing your use of this Font Software.
http://scripts.sil.org/OFL
  -->
<path d="M769 555L758 562C791 606 831 674 842 726 904 774 960 645 769 555ZM355 540C344 609 328 689 313 741L330 749C361 705 389 643 412 588 432 589 443 580 447 568ZM98 549L84 554C103 607 124 689 119 752 169 808 234 685 98 549ZM466 458L474 486 637 486 637 855 385 855 393 884 956 884C968 884 978 880 981 869 948 837 894 795 894 795L846 855 703 855 703 486 904 486C918 486 927 481 930 471 900 441 849 400 849 400L806 458 703 458 703 143 927 143C942 143 951 138 954 127 921 95 868 54 868 54L820 113 443 113 451 143 637 143 637 458ZM44 842L93 925C102 921 110 913 113 900 270 844 383 798 464 763L460 748 282 790 282 490 435 490C448 490 457 485 460 475 431 445 383 405 383 405L341 461 282 461 282 327 406 327C419 327 429 322 431 311 402 282 355 244 355 244L313 297 125 297C185 230 236 150 271 82 330 135 375 196 396 239 453 280 525 161 280 65 305 65 314 57 317 47L222 14C191 118 107 280 26 368L39 378C68 355 97 328 123 298L131 327 221 327 221 461 52 461 60 490 221 490 221 804C145 822 82 835 44 842Z"/>
</svg>