<svg xmlns="http://www.w3.org/2000/svg"
    viewBox="0 0 1000 1000">
  <!--
© 2017-2023 Adobe (http://www.adobe.com/).
Noto is a trademark of Google Inc.
This Font Software is licensed under the SIL Open Font License, Version 1.1. This Font Software is distributed on an "AS IS" BASIS, WITHOUT WARRANTIES OR CONDITIONS OF ANY KIND, either express or implied. See the SIL Open Font License for the specific language, permissions and limitations governing your use of this Font Software.
http://scripts.sil.org/OFL
  -->
<path d="M364 528C352 596 332 672 315 721L332 728C364 688 395 629 419 577 439 578 450 570 455 558ZM92 537L77 541C99 593 120 672 117 734 166 789 229 668 92 537ZM40 833L84 916C93 912 102 904 106 891 270 832 390 783 478 746L473 732 279 779 279 485 430 485C443 485 453 480 455 470L422 438C472 383 518 311 557 229L624 229 624 928 633 928C667 928 688 912 688 907L688 645 914 645C928 645 937 640 940 629 908 599 856 557 856 557L810 616 688 616 688 433 897 433C910 433 919 428 922 417 893 389 844 350 844 350L801 405 688 405 688 229 939 229C953 229 962 224 964 214 932 183 879 141 879 141L832 200 570 200C589 156 607 109 622 61 644 62 654 52 658 40L556 13C527 167 469 321 406 424L378 400 336 456 279 456 279 323 398 323C411 323 421 318 423 307 394 279 348 240 348 240L306 293 123 293C183 226 233 148 267 81 330 135 378 197 399 242 457 282 528 162 279 66 302 64 311 57 313 47L219 14C186 119 103 279 20 368L33 379C62 356 90 329 117 300L123 323 219 323 219 456 46 456 54 485 219 485 219 793C141 812 77 826 40 833Z"/>
</svg>