<svg xmlns="http://www.w3.org/2000/svg"
    viewBox="0 0 1000 1000">
  <!--
© 2017-2023 Adobe (http://www.adobe.com/).
Noto is a trademark of Google Inc.
This Font Software is licensed under the SIL Open Font License, Version 1.1. This Font Software is distributed on an "AS IS" BASIS, WITHOUT WARRANTIES OR CONDITIONS OF ANY KIND, either express or implied. See the SIL Open Font License for the specific language, permissions and limitations governing your use of this Font Software.
http://scripts.sil.org/OFL
  -->
<path d="M332 528C322 596 306 673 292 723L308 730C338 689 366 629 388 578 407 579 419 571 424 559ZM84 536L70 540C89 594 109 675 104 738 154 794 218 670 84 536ZM564 599L600 554 561 542 547 592C522 615 482 646 458 662L502 714C507 709 510 702 506 693L551 620C567 663 586 700 609 733 564 810 487 866 367 911L377 928C503 890 588 840 642 774 706 843 796 887 914 916 922 885 941 864 968 859L969 848C844 830 742 796 667 737 704 675 720 602 720 513L720 484 855 484 855 531 865 531C894 531 918 516 918 512L918 233C938 230 948 224 955 217L884 162 852 200 720 200 720 57C746 53 754 43 756 29L658 18 658 200 536 200 463 168 463 540 473 540C505 540 524 525 524 521L524 484 658 484 658 514C658 585 648 646 626 698 600 670 580 637 564 599ZM524 455L524 229 658 229 658 455ZM855 455L720 455 720 229 855 229ZM259 65C282 63 291 57 294 46L198 14C169 117 94 275 18 362L32 372C123 298 202 178 248 81 309 134 354 196 374 240 431 282 504 163 259 65ZM37 836L82 919C92 915 100 907 104 895 256 840 367 794 445 761L441 746 262 788 262 481 408 481C422 481 431 477 434 466 405 437 358 398 358 398L317 452 262 452 262 325 377 325C390 325 400 320 403 309 374 281 328 243 328 243L287 295 111 295 119 325 201 325 201 452 46 452 54 481 201 481 201 802C130 818 72 830 37 836Z"/>
</svg>