<svg xmlns="http://www.w3.org/2000/svg" name="gid13327" data-unicode="鉅"
    viewBox="0 0 1000 1000">
  <!--
© 2017-2024 Adobe (http://www.adobe.com/).
Noto is a trademark of Google Inc.
This Font Software is licensed under the SIL Open Font License, Version 1.1. This Font Software is distributed on an "AS IS" BASIS, WITHOUT WARRANTIES OR CONDITIONS OF ANY KIND, either express or implied. See the SIL Open Font License for the specific language, permissions and limitations governing your use of this Font Software.
http://scripts.sil.org/OFL
  -->
<path d="M354 558C341 627 323 704 306 756L322 764C355 721 385 660 409 606 429 607 440 598 444 587ZM99 566L86 569C103 624 121 705 115 768 164 826 230 702 99 566ZM404 889L412 918 944 918C958 918 967 913 970 903 938 872 885 830 885 830L839 889 569 889 569 629 826 629 826 698 835 698C865 698 889 683 889 678L889 386C908 384 919 378 926 371L847 310 817 349 569 349 569 148 938 148C952 148 962 143 965 132 932 102 879 61 879 61L833 119 429 119 436 148 506 148 506 889ZM569 600L569 378 826 378 826 600ZM43 866L91 948C101 944 109 936 112 924 266 866 378 819 458 783L453 770 278 813 278 511 434 511C448 511 457 507 459 496 431 466 382 427 382 427L340 483 278 483 278 353 399 353C413 353 422 348 425 337 396 309 349 270 349 270L308 323 123 323C182 256 231 178 264 111 329 162 379 223 403 266 462 305 530 185 277 96 299 94 307 87 310 77L213 47C182 152 101 312 19 400L32 411C61 388 90 361 116 331L122 353 218 353 218 483 49 483 57 511 218 511 218 827C142 845 80 859 43 866Z"/>
</svg>