<svg xmlns="http://www.w3.org/2000/svg" name="gid13335" data-unicode="鉎"
    viewBox="0 0 1000 1000">
  <!--
© 2017-2024 Adobe (http://www.adobe.com/).
Noto is a trademark of Google Inc.
This Font Software is licensed under the SIL Open Font License, Version 1.1. This Font Software is distributed on an "AS IS" BASIS, WITHOUT WARRANTIES OR CONDITIONS OF ANY KIND, either express or implied. See the SIL Open Font License for the specific language, permissions and limitations governing your use of this Font Software.
http://scripts.sil.org/OFL
  -->
<path d="M355 560C342 629 324 705 307 757L323 765C356 723 385 662 409 609 429 610 440 601 445 590ZM99 568L86 571C103 626 121 707 115 770 164 827 230 704 99 568ZM43 867L91 950C101 946 109 938 112 925 268 868 380 820 460 785L456 770 279 814 279 513 434 513C448 513 457 508 459 498L436 476C467 435 494 386 517 332L644 332 644 574 468 574 476 604 644 604 644 889 385 889 393 918 946 918C960 918 969 913 972 903 939 871 886 829 886 829L839 889 709 889 709 604 891 604C904 604 914 599 917 588 887 559 836 519 836 519L792 574 709 574 709 332 916 332C931 332 940 327 943 316 910 285 858 243 858 243L812 303 709 303 709 91C733 87 742 77 745 62L644 51 644 303 528 303C543 263 556 220 567 177 588 176 599 167 602 155L500 128C488 248 457 372 420 461L382 429 340 484 279 484 279 354 396 354C409 354 419 349 421 338 392 311 346 272 346 272L304 325 121 325C180 258 230 179 263 112 323 162 369 222 390 265 448 305 518 187 276 96 298 94 307 87 310 77L214 45C183 150 101 311 19 400L32 411C61 388 89 361 116 331L122 354 218 354 218 484 49 484 57 513 218 513 218 829C142 846 80 860 43 867Z"/>
</svg>