<svg xmlns="http://www.w3.org/2000/svg"
    viewBox="0 0 1000 1000">
  <!--
© 2017-2023 Adobe (http://www.adobe.com/).
Noto is a trademark of Google Inc.
This Font Software is licensed under the SIL Open Font License, Version 1.1. This Font Software is distributed on an "AS IS" BASIS, WITHOUT WARRANTIES OR CONDITIONS OF ANY KIND, either express or implied. See the SIL Open Font License for the specific language, permissions and limitations governing your use of this Font Software.
http://scripts.sil.org/OFL
  -->
<path d="M778 88L766 95C813 149 872 237 885 304 955 357 1007 205 778 88ZM523 84C501 178 464 273 424 333L439 343C495 292 545 216 579 132 600 133 611 123 615 113ZM339 535C329 602 315 680 303 732L319 739C348 696 375 634 396 582 416 582 427 573 431 561ZM91 542L76 546C94 601 112 682 105 745 155 802 221 679 91 542ZM456 361L464 391 645 391 645 583 424 583 432 613 645 613 645 929 658 929C682 929 710 913 710 903L710 613 940 613C954 613 964 608 966 597 934 566 881 524 881 524L833 583 710 583 710 391 897 391C911 391 920 386 923 375 892 346 841 306 841 306L797 361 710 361 710 53C732 50 740 41 742 27L645 17 645 361ZM268 65C292 65 302 57 305 47L209 14C178 119 96 281 13 370L27 380C123 304 208 181 258 82 318 135 363 197 383 241 440 282 514 164 268 65ZM38 842L85 926C95 922 104 914 107 901 262 846 376 800 455 766L452 752 269 794 269 488 419 488C433 488 441 483 443 473 415 443 366 403 366 403L324 459 269 459 269 332 386 332C400 332 409 327 412 316 383 287 336 249 336 249L295 302 115 302 123 332 209 332 209 459 48 459 56 488 209 488 209 808C136 824 75 836 38 842Z"/>
</svg>