<svg xmlns="http://www.w3.org/2000/svg" name="gid13354" data-unicode="鉧"
    viewBox="0 0 1000 1000">
  <!--
© 2017-2024 Adobe (http://www.adobe.com/).
Noto is a trademark of Google Inc.
This Font Software is licensed under the SIL Open Font License, Version 1.1. This Font Software is distributed on an "AS IS" BASIS, WITHOUT WARRANTIES OR CONDITIONS OF ANY KIND, either express or implied. See the SIL Open Font License for the specific language, permissions and limitations governing your use of this Font Software.
http://scripts.sil.org/OFL
  -->
<path d="M620 190L608 197C638 235 674 296 681 344 737 390 793 273 620 190ZM607 505L595 511C627 551 663 616 669 665 725 716 783 594 607 505ZM325 565C317 632 303 709 290 762L308 768C335 725 362 664 382 612 402 611 413 602 417 591ZM88 572L73 576C91 631 108 712 102 775 150 832 215 709 88 572ZM37 872L84 956C94 952 103 944 106 931 252 878 359 834 436 802L431 838C470 845 486 842 501 832L507 775 782 775C774 818 764 846 752 858 740 870 733 873 712 873 691 873 633 867 595 863L594 882C629 888 665 897 678 909 690 920 693 937 693 959 735 959 776 943 804 906 821 884 835 841 846 775L948 775C961 775 970 771 973 760 947 730 903 691 903 691L864 746 850 746C860 673 868 575 873 451L966 451C979 451 988 446 991 436 966 406 922 364 922 364L883 422 874 422C877 340 879 248 881 144 903 141 916 135 924 127L847 61 809 106 577 106 501 72C497 161 487 288 476 422L397 422 405 451 473 451C463 566 450 684 438 786L437 784 260 826 260 517 403 517C417 517 426 512 428 502 400 473 353 434 353 434L311 489 260 489 260 361 370 361C383 361 392 356 395 345 367 317 320 279 320 279L280 332 111 332 119 361 201 361 201 489 47 489 55 517 201 517 201 839C130 855 72 866 37 872ZM537 451L810 451C805 578 797 677 787 746L510 746C519 656 529 552 537 451ZM540 422C549 312 557 209 561 135L819 135C817 242 815 338 811 422ZM259 95C282 93 291 87 294 76L198 44C169 147 94 305 18 392L32 402C123 328 202 208 248 111 307 165 350 226 369 270 426 312 499 194 259 95Z"/>
</svg>