<svg xmlns="http://www.w3.org/2000/svg"
    viewBox="0 0 1000 1000">
  <!--
© 2017-2023 Adobe (http://www.adobe.com/).
Noto is a trademark of Google Inc.
This Font Software is licensed under the SIL Open Font License, Version 1.1. This Font Software is distributed on an "AS IS" BASIS, WITHOUT WARRANTIES OR CONDITIONS OF ANY KIND, either express or implied. See the SIL Open Font License for the specific language, permissions and limitations governing your use of this Font Software.
http://scripts.sil.org/OFL
  -->
<path d="M346 535C337 602 323 680 310 732L327 739C355 696 382 634 404 582 424 582 435 573 439 561ZM99 540L84 544C102 598 119 680 113 742 163 800 228 677 99 540ZM639 161L810 161C782 239 742 317 691 389 691 356 656 305 551 277 585 241 614 201 639 161ZM629 14C592 146 507 293 408 377L420 388C462 362 501 329 537 293 579 324 625 374 638 415 649 421 658 423 667 422 595 515 506 597 403 659L414 673C466 648 514 620 558 589L558 925 569 925C600 925 621 908 621 902L621 847 859 847 859 918 869 918C898 918 921 903 921 898L921 563C942 560 953 553 960 546L880 485 850 524 639 524C753 421 833 298 884 170 908 168 919 166 926 157L853 90 810 132 657 132C671 107 683 82 694 58 717 62 725 58 730 47ZM621 817L621 553 859 553 859 817ZM38 842L85 926C95 922 104 914 107 901 265 845 379 800 461 766L457 750 277 792 277 482 425 482C438 482 447 477 450 466 421 436 372 397 372 397L331 453 277 453 277 326 392 326C406 326 416 321 419 310 389 282 342 243 342 243L301 296 122 296C182 228 232 148 266 81 322 134 365 196 383 240 439 282 515 165 278 66 300 64 309 57 311 47L216 15C185 120 102 281 20 370L34 381C65 357 94 328 121 297L129 326 217 326 217 453 54 453 62 482 217 482 217 806C140 823 76 836 38 842Z"/>
</svg>