<svg xmlns="http://www.w3.org/2000/svg" name="gid13394" data-unicode="銧"
    viewBox="0 0 1000 1000">
  <!--
© 2017-2024 Adobe (http://www.adobe.com/).
Noto is a trademark of Google Inc.
This Font Software is licensed under the SIL Open Font License, Version 1.1. This Font Software is distributed on an "AS IS" BASIS, WITHOUT WARRANTIES OR CONDITIONS OF ANY KIND, either express or implied. See the SIL Open Font License for the specific language, permissions and limitations governing your use of this Font Software.
http://scripts.sil.org/OFL
  -->
<path d="M831 120C805 212 770 320 743 389L759 397C804 337 853 250 894 175 914 176 926 168 930 156ZM441 125L428 130C463 196 502 296 504 374 567 435 631 278 441 125ZM327 565C319 632 305 709 292 762L310 768C337 725 364 664 384 612 404 611 415 602 419 591ZM88 572L73 576C92 631 108 712 102 775 151 831 215 709 88 572ZM627 49L627 441 397 441 405 470 548 470C544 637 526 806 331 941L345 957C579 830 607 654 617 470L701 470 701 875C701 920 712 937 773 937L836 937C942 937 967 925 967 898 967 885 963 877 943 870L940 736 927 736C917 789 906 851 900 866 896 874 893 876 886 876 878 877 861 878 838 878L789 878C768 878 765 873 765 859L765 470 949 470C963 470 972 465 974 454 943 424 891 383 891 383L845 441 691 441 691 85C713 82 721 73 723 59ZM259 95C282 93 291 87 294 76L198 44C169 147 94 305 18 392L32 402C123 328 202 208 248 111 306 164 349 224 368 268 424 310 497 192 259 95ZM37 872L87 954C96 950 104 942 108 930 253 871 361 822 437 787L433 772 261 818 261 514 406 514C420 514 429 509 431 499 403 469 356 431 356 431L314 485 261 485 261 353 372 353C385 353 394 348 397 337 369 310 322 271 322 271L282 324 111 324 119 353 202 353 202 485 47 485 55 514 202 514 202 833C131 851 72 865 37 872Z"/>
</svg>