<svg xmlns="http://www.w3.org/2000/svg" name="gid13422" data-unicode="鋏"
    viewBox="0 0 1000 1000">
  <!--
© 2017-2024 Adobe (http://www.adobe.com/).
Noto is a trademark of Google Inc.
This Font Software is licensed under the SIL Open Font License, Version 1.1. This Font Software is distributed on an "AS IS" BASIS, WITHOUT WARRANTIES OR CONDITIONS OF ANY KIND, either express or implied. See the SIL Open Font License for the specific language, permissions and limitations governing your use of this Font Software.
http://scripts.sil.org/OFL
  -->
<path d="M329 557C319 625 303 702 289 752L305 759C335 718 364 657 387 605 406 606 418 597 422 586ZM84 566L70 570C89 624 109 705 104 768 154 824 218 700 84 566ZM648 46L648 202 428 202 436 231 648 231C648 569 624 790 336 940L348 958C589 854 670 708 698 505 726 717 790 871 911 954 918 924 941 903 971 893L972 883C858 823 785 722 744 578 775 543 802 501 824 459 860 500 897 556 905 601 964 647 1014 524 835 438 853 401 867 364 876 332 895 333 905 329 909 318L817 290C807 368 780 472 737 552 724 502 715 447 709 387 711 338 712 286 713 231L943 231C957 231 965 226 968 215 937 185 885 144 885 144L839 202 713 202 714 85C738 81 748 71 750 57ZM504 295C494 403 462 539 394 637L404 650C456 599 495 536 522 471 546 503 567 545 569 581 619 626 673 521 531 447 546 409 557 370 565 334 584 335 594 331 597 319ZM259 95C282 93 291 86 294 76L198 44C169 147 94 305 18 392L32 402C123 328 202 208 248 111 309 164 355 226 375 270 432 310 505 191 259 95ZM37 866L82 949C92 945 100 937 104 924 255 869 365 824 443 790L439 775 261 818 261 511 408 511C422 511 431 507 434 496 405 467 358 428 358 428L317 482 261 482 261 355 377 355C390 355 400 350 403 339 374 311 328 273 328 273L287 325 111 325 119 355 199 355 199 482 46 482 54 511 199 511 199 832C129 848 72 860 37 866Z"/>
</svg>