<svg xmlns="http://www.w3.org/2000/svg" name="gid13424" data-unicode="鋒"
    viewBox="0 0 1000 1000">
  <!--
© 2017-2024 Adobe (http://www.adobe.com/).
Noto is a trademark of Google Inc.
This Font Software is licensed under the SIL Open Font License, Version 1.1. This Font Software is distributed on an "AS IS" BASIS, WITHOUT WARRANTIES OR CONDITIONS OF ANY KIND, either express or implied. See the SIL Open Font License for the specific language, permissions and limitations governing your use of this Font Software.
http://scripts.sil.org/OFL
  -->
<path d="M325 565C317 632 303 709 290 762L308 768C335 725 362 664 382 612 402 611 413 602 417 591ZM88 572L73 576C91 631 108 712 102 775 150 832 215 709 88 572ZM438 776L446 805 654 805 654 959 667 959C690 959 717 945 717 937L717 805 933 805C946 805 957 800 959 789 929 761 880 722 880 722L837 776 717 776 717 684 881 684C894 684 903 679 905 668 877 641 829 603 829 603L788 654 717 654 717 572 883 572C896 572 905 567 907 556 878 528 831 492 831 492L790 542 717 542 717 487C742 484 750 474 753 461L654 450 654 542 478 542 486 572 654 572 654 654 489 654 496 684 654 684 654 776ZM36 872L87 954C95 950 104 941 107 929 253 870 360 821 436 785L431 770 260 817 260 518 405 518 413 533C527 496 619 443 693 378 753 427 827 465 923 495 929 465 947 449 971 442L974 431C875 412 794 383 728 344 778 294 817 238 847 178 871 177 881 174 889 165L819 102 776 141 629 141C641 121 652 100 662 80 686 82 694 78 698 67L599 42C565 149 493 274 411 344L423 356C475 324 524 279 565 230 591 273 620 311 656 345 594 410 516 466 426 507 428 507 429 505 429 503 401 473 354 434 354 434L312 489 260 489 260 362 370 362C383 362 392 357 395 346 367 318 320 280 320 280L280 332 111 332 119 362 201 362 201 489 47 489 55 518 201 518 201 832C130 851 71 865 36 872ZM579 212L609 171 774 171C751 222 721 270 683 315 642 285 608 250 579 212ZM259 95C282 93 291 87 294 76L198 44C169 147 94 305 18 392L32 402C123 328 202 208 248 111 306 164 349 224 368 268 424 310 497 192 259 95Z"/>
</svg>