<svg xmlns="http://www.w3.org/2000/svg"
    viewBox="0 0 1000 1000">
  <!--
© 2017-2023 Adobe (http://www.adobe.com/).
Noto is a trademark of Google Inc.
This Font Software is licensed under the SIL Open Font License, Version 1.1. This Font Software is distributed on an "AS IS" BASIS, WITHOUT WARRANTIES OR CONDITIONS OF ANY KIND, either express or implied. See the SIL Open Font License for the specific language, permissions and limitations governing your use of this Font Software.
http://scripts.sil.org/OFL
  -->
<path d="M331 535C322 602 308 680 295 732L313 738C340 696 367 634 387 582 407 582 418 573 423 561ZM91 542L76 546C95 601 111 682 105 745 153 802 218 679 91 542ZM532 257L808 257 808 387 532 387ZM532 227L532 100 808 100 808 227ZM532 416L808 416 808 547 532 547ZM470 71L470 639 480 639C512 639 532 624 532 619L532 577 577 577C570 697 540 816 335 911L348 927C589 838 632 712 645 577L693 577 693 846C693 889 703 905 763 905L825 905C926 905 951 892 951 866 951 854 947 846 928 839L925 724 911 724C902 771 893 822 887 836 883 844 880 846 873 846 865 846 847 846 827 846L778 846C757 846 755 843 755 831L755 577 808 577 808 626 818 626C847 626 871 610 871 606L871 105C894 102 904 96 911 89L837 30 804 71 544 71 470 39ZM260 65C284 63 293 57 296 46L200 14C171 117 95 276 18 363L32 373C124 299 204 178 250 81 307 134 350 194 369 238 425 280 499 162 260 65ZM37 842L87 924C96 920 104 912 108 900 254 841 362 792 439 757L434 742 265 787 265 488 414 488C428 488 437 483 439 473 411 443 365 404 365 404L323 459 265 459 265 332 380 332C393 332 403 327 406 316 377 288 331 250 331 250L290 302 111 302 119 332 205 332 205 459 47 459 55 488 205 488 205 803C133 821 73 835 37 842Z"/>
</svg>