<svg xmlns="http://www.w3.org/2000/svg" name="gid13441" data-unicode="鋪"
    viewBox="0 0 1000 1000">
  <!--
© 2017-2024 Adobe (http://www.adobe.com/).
Noto is a trademark of Google Inc.
This Font Software is licensed under the SIL Open Font License, Version 1.1. This Font Software is distributed on an "AS IS" BASIS, WITHOUT WARRANTIES OR CONDITIONS OF ANY KIND, either express or implied. See the SIL Open Font License for the specific language, permissions and limitations governing your use of this Font Software.
http://scripts.sil.org/OFL
  -->
<path d="M325 565C317 632 303 709 290 762L308 768C335 725 362 664 382 612 402 611 413 602 417 591ZM88 572L73 576C91 631 108 712 102 775 150 832 215 709 88 572ZM764 63L754 72C782 92 816 128 826 159 844 170 860 168 870 158L835 201 710 201 710 87C734 83 741 74 744 60L648 49 648 201 428 201 435 230 648 230 648 332 518 332 451 301 451 957 462 957C490 957 513 942 513 934L513 704 648 704 648 948 661 948C684 948 710 933 710 923L710 704 848 704 848 858C848 871 844 876 830 876 815 876 752 871 752 871L752 887C782 892 800 898 810 909 820 920 822 938 824 958 901 950 910 918 910 866L910 374C930 371 947 361 954 353L871 291 838 332 710 332 710 230 938 230C952 230 963 225 964 214 932 185 881 145 881 145L880 147C891 120 867 73 764 63ZM648 530L648 674 513 674 513 530ZM710 530L848 530 848 674 710 674ZM648 501L513 501 513 361 648 361ZM710 501L710 361 848 361 848 501ZM259 95C282 93 291 87 294 76L198 44C169 147 94 305 18 392L32 402C123 328 202 208 248 111 306 164 349 224 368 268 424 310 497 192 259 95ZM37 872L84 956C94 952 103 944 106 931 254 877 362 833 439 800L435 784 260 826 260 518 404 518C418 518 427 513 429 503 401 473 354 434 354 434L312 489 260 489 260 362 370 362C383 362 392 357 395 346 367 318 320 280 320 280L280 332 111 332 119 362 201 362 201 489 47 489 55 518 201 518 201 839C131 855 72 866 37 872Z"/>
</svg>