<svg xmlns="http://www.w3.org/2000/svg"
    viewBox="0 0 1000 1000">
  <!--
© 2017-2023 Adobe (http://www.adobe.com/).
Noto is a trademark of Google Inc.
This Font Software is licensed under the SIL Open Font License, Version 1.1. This Font Software is distributed on an "AS IS" BASIS, WITHOUT WARRANTIES OR CONDITIONS OF ANY KIND, either express or implied. See the SIL Open Font License for the specific language, permissions and limitations governing your use of this Font Software.
http://scripts.sil.org/OFL
  -->
<path d="M737 687L726 695C790 750 871 844 893 917 971 967 1013 796 737 687ZM566 680C524 759 434 858 340 916L349 930C462 885 565 805 620 737 643 740 651 736 656 726ZM339 535C329 602 315 680 303 732L319 739C348 696 375 634 396 582 416 582 427 573 431 561ZM91 542L76 546C94 601 112 682 105 745 155 802 221 679 91 542ZM826 22C773 53 677 92 586 120L500 88 500 626 409 626 417 656 940 656C953 656 963 651 965 640 936 611 888 569 888 569L844 626 821 626 821 339 920 339C935 339 944 334 947 323 914 292 863 252 863 252L817 309 562 309 562 150C667 138 781 113 854 91 878 99 895 99 904 90ZM562 626L562 339 757 339 757 626ZM268 65C292 65 302 57 305 47L209 14C178 119 96 281 13 370L27 380C124 304 208 181 258 82 318 135 364 197 384 241 441 281 514 163 268 65ZM38 842L85 926C95 922 104 914 107 901 262 846 376 800 455 766L452 752 269 794 269 488 419 488C433 488 441 483 443 473 415 443 366 403 366 403L324 459 269 459 269 332 386 332C400 332 409 327 412 316 383 287 336 249 336 249L295 302 115 302 123 332 209 332 209 459 48 459 56 488 209 488 209 808C136 824 75 836 38 842Z"/>
</svg>