<svg xmlns="http://www.w3.org/2000/svg" name="gid13460" data-unicode="錍"
    viewBox="0 0 1000 1000">
  <!--
© 2017-2024 Adobe (http://www.adobe.com/).
Noto is a trademark of Google Inc.
This Font Software is licensed under the SIL Open Font License, Version 1.1. This Font Software is distributed on an "AS IS" BASIS, WITHOUT WARRANTIES OR CONDITIONS OF ANY KIND, either express or implied. See the SIL Open Font License for the specific language, permissions and limitations governing your use of this Font Software.
http://scripts.sil.org/OFL
  -->
<path d="M340 560C327 630 310 707 294 759L310 766C341 724 373 662 396 609 416 610 428 601 432 590ZM84 566L70 570C89 624 109 705 104 768 154 824 218 700 84 566ZM694 534L694 692 388 692 396 721 694 721 694 957 706 957C730 957 757 944 757 936L757 721 944 721C957 721 966 716 969 706 939 674 887 631 887 631L841 692 757 692 757 571C781 567 790 558 792 545ZM834 340L834 468 693 468C701 436 704 403 704 368L704 340ZM834 311L704 311 704 183 834 183ZM520 340L645 340 645 369C645 404 642 437 634 468L520 468ZM520 311L520 183 645 183 645 311ZM459 153L459 546 469 546C495 546 520 532 520 526L520 498 624 498C598 562 542 615 427 660L436 675C588 632 655 571 684 498L834 498 834 539 844 539C864 539 895 526 896 520L896 194C915 190 931 183 938 175L859 114 824 153 659 153C677 132 698 108 712 89 732 90 746 83 751 69L646 41C638 74 626 120 617 153L525 153 459 123ZM36 866L83 949C93 946 101 937 105 925 262 870 376 825 457 792L453 776 267 819 267 511 407 511C421 511 430 507 433 496 405 467 357 428 357 428L316 482 267 482 267 352 381 352C395 352 404 347 407 336 378 308 331 270 331 270L291 322 116 322C174 256 223 178 256 111 310 159 351 216 369 256 425 297 497 181 267 95 290 93 299 86 302 76L206 44C177 148 97 307 18 394L32 404C60 382 86 356 111 327L118 352 205 352 205 482 45 482 53 511 205 511 205 832C132 848 72 860 36 866Z"/>
</svg>