<svg xmlns="http://www.w3.org/2000/svg"
    viewBox="0 0 1000 1000">
  <!--
© 2017-2024 Adobe (http://www.adobe.com/).
Noto is a trademark of Google Inc.
This Font Software is licensed under the SIL Open Font License, Version 1.1. This Font Software is distributed on an "AS IS" BASIS, WITHOUT WARRANTIES OR CONDITIONS OF ANY KIND, either express or implied. See the SIL Open Font License for the specific language, permissions and limitations governing your use of this Font Software.
http://scripts.sil.org/OFL
  -->
<path d="M335 527C324 595 308 672 294 722L311 729C340 688 369 627 392 575 411 576 423 567 427 556ZM84 536L70 540C89 594 109 675 104 738 154 794 218 670 84 536ZM435 311L435 674 445 674C470 674 495 659 495 653L495 602 573 602 573 863 368 863 376 892 946 892C960 892 969 887 972 877 941 847 889 806 889 806L844 863 781 863 781 602 869 602 869 661 878 661C905 661 928 646 928 641L928 350C947 348 959 341 965 333L889 275 861 311 782 311 782 119 942 119C956 119 965 114 967 103 936 73 883 32 883 32L837 89 411 89 419 119 573 119 573 311 500 311 435 281ZM723 572L723 863 632 863 632 606C645 604 658 598 663 591L597 540 565 572 495 572 495 341 573 341 573 411 582 411C612 411 632 397 632 393L632 119 724 119 724 410 733 410C763 410 782 396 782 392L782 341 869 341 869 572 794 572 723 542ZM36 836L83 919C92 916 101 907 105 895 250 842 357 799 432 767L429 752 263 790 263 481 404 481C418 481 427 477 429 466 401 437 353 398 353 398L312 452 263 452 263 322 377 322C391 322 400 317 403 306 374 278 328 240 328 240L287 292 112 292C169 226 217 148 249 81 310 134 357 196 377 240 434 280 507 161 260 65 282 63 291 56 294 46L198 14C169 117 94 275 18 362L32 372C59 350 86 323 111 294L118 322 201 322 201 452 45 452 53 481 201 481 201 803C130 819 71 830 36 836Z"/>
</svg>