<svg xmlns="http://www.w3.org/2000/svg"
    viewBox="0 0 1000 1000">
  <!--
© 2017-2024 Adobe (http://www.adobe.com/).
Noto is a trademark of Google Inc.
This Font Software is licensed under the SIL Open Font License, Version 1.1. This Font Software is distributed on an "AS IS" BASIS, WITHOUT WARRANTIES OR CONDITIONS OF ANY KIND, either express or implied. See the SIL Open Font License for the specific language, permissions and limitations governing your use of this Font Software.
http://scripts.sil.org/OFL
  -->
<path d="M325 535C317 602 303 679 290 732L308 738C335 695 362 634 382 582 402 581 413 572 417 561ZM86 542L72 546C91 600 108 682 103 744 152 800 216 677 86 542ZM635 13C634 61 631 104 623 144L429 144 436 173 617 173C593 256 539 321 409 379L420 398C559 352 626 296 661 228 725 266 801 326 833 371 906 399 920 262 670 210 675 198 679 186 683 173L915 173C929 173 938 168 941 157 910 128 858 87 858 87L814 144 690 144C696 114 699 82 702 48 722 46 732 35 734 22ZM412 410L420 439 802 439 802 828C802 842 798 847 779 847 758 847 655 839 655 839L655 855C701 860 727 868 742 879 755 889 760 907 762 926 854 917 866 880 866 829L866 439 946 439C959 439 969 434 972 423 940 393 888 352 888 352L842 410ZM658 549L658 699 545 699 545 549ZM487 520L487 803 496 803C520 803 545 790 545 784L545 729 658 729 658 769 667 769C687 769 716 754 717 748L717 554C731 551 744 545 749 539L682 487 650 520 550 520 487 491ZM259 65C282 63 291 57 294 46L198 15C169 118 94 275 18 362L32 372C123 298 202 178 248 81 306 134 349 194 368 238 424 280 497 162 259 65ZM37 842L84 926C94 922 103 914 106 901 254 847 362 803 439 770L435 754 260 796 260 488 404 488C418 488 427 483 429 473 401 443 354 404 354 404L312 459 260 459 260 332 370 332C383 332 392 327 395 316 367 288 320 250 320 250L280 302 111 302 119 332 201 332 201 459 47 459 55 488 201 488 201 809C131 825 72 836 37 842Z"/>
</svg>