<svg xmlns="http://www.w3.org/2000/svg"
    viewBox="0 0 1000 1000">
  <!--
© 2017-2024 Adobe (http://www.adobe.com/).
Noto is a trademark of Google Inc.
This Font Software is licensed under the SIL Open Font License, Version 1.1. This Font Software is distributed on an "AS IS" BASIS, WITHOUT WARRANTIES OR CONDITIONS OF ANY KIND, either express or implied. See the SIL Open Font License for the specific language, permissions and limitations governing your use of this Font Software.
http://scripts.sil.org/OFL
  -->
<path d="M458 448L446 455C480 492 521 554 531 602 590 648 645 526 458 448ZM326 535C318 602 304 680 291 733L308 739C336 696 364 634 384 582 404 582 415 573 419 561ZM88 542L73 546C91 601 108 682 102 745 150 802 215 679 88 542ZM878 439C856 478 809 547 769 597 743 548 723 488 710 416L710 394 939 394C953 394 962 389 964 378 939 349 894 310 894 310L855 364 846 364 846 113C863 109 878 102 884 95L810 37 774 75 472 75 481 104 783 104 783 217 497 217 505 246 783 246 783 364 417 364 425 394 645 394 645 617C534 693 423 766 376 792L439 856C446 850 451 838 450 827 533 750 599 685 645 639L645 830C645 843 641 848 626 848 609 848 533 843 533 843L533 858C569 862 589 869 601 881 612 891 616 909 617 928 699 920 710 883 710 832L710 494C746 682 814 782 914 863 922 833 942 812 966 807L968 797C897 758 829 703 778 615 832 577 890 528 921 496 941 503 956 495 960 487ZM259 65C282 63 291 57 294 46L198 14C169 117 94 275 18 362L32 372C123 298 202 178 248 81 306 134 349 194 368 238 424 280 497 162 259 65ZM36 842L90 921C99 917 106 907 109 895 250 830 354 777 426 739L421 725 260 776 260 488 404 488C418 488 427 483 429 473 401 443 354 404 354 404L312 459 260 459 260 332 370 332C383 332 392 327 395 316 367 288 320 250 320 250L280 302 111 302 119 332 201 332 201 459 47 459 55 488 201 488 201 795C130 817 71 834 36 842Z"/>
</svg>