<svg xmlns="http://www.w3.org/2000/svg" name="gid13509" data-unicode="鍗"
    viewBox="0 0 1000 1000">
  <!--
© 2017-2024 Adobe (http://www.adobe.com/).
Noto is a trademark of Google Inc.
This Font Software is licensed under the SIL Open Font License, Version 1.1. This Font Software is distributed on an "AS IS" BASIS, WITHOUT WARRANTIES OR CONDITIONS OF ANY KIND, either express or implied. See the SIL Open Font License for the specific language, permissions and limitations governing your use of this Font Software.
http://scripts.sil.org/OFL
  -->
<path d="M530 203L517 208C538 244 559 300 559 344 614 397 685 283 530 203ZM316 565C307 632 295 709 281 762L299 768C325 726 352 664 372 612 392 611 403 602 407 591ZM86 572L71 576C89 631 106 712 100 775 147 831 210 709 86 572ZM453 315C455 356 432 403 408 420 389 433 378 453 387 471 399 491 431 487 448 472 465 457 478 428 480 389L876 389C866 419 852 456 843 478L858 484C884 463 923 424 944 399 963 398 974 396 981 389L911 321 875 360 746 360C778 325 810 282 830 249 851 250 862 243 866 231L769 201C759 248 739 313 721 360L479 360C478 346 475 332 471 316ZM429 167L437 195 928 195C942 195 951 190 954 180 923 151 876 114 876 114L833 167 709 167 709 75C728 72 735 64 737 53L644 43 644 167ZM467 529L467 875 477 875C504 875 530 861 530 854L530 559 645 559 645 957 657 957C681 957 708 942 708 933L708 559 831 559 831 780C831 792 828 797 816 797 800 797 744 793 744 793L744 808C772 813 788 820 797 831 807 840 809 858 811 876 886 869 894 839 894 787L894 563C907 561 919 554 923 549L852 497 824 529 708 529 708 459C727 456 735 447 737 437L645 426 645 529 535 529 467 499ZM250 95C274 94 283 87 287 76L190 45C163 148 91 304 17 391L31 401C120 327 196 208 241 112 296 166 339 227 357 270 412 311 485 195 250 95ZM36 872L85 953C95 950 102 940 106 928 246 869 349 820 422 785L418 770 253 816 253 518 390 518C403 518 413 513 415 503 386 473 339 434 339 434L298 489 253 489 253 362 358 362C372 362 380 357 382 346 355 318 308 280 308 280L268 332 107 332 115 362 195 362 195 489 47 489 55 518 195 518 195 832C126 851 70 865 36 872Z"/>
</svg>