<svg xmlns="http://www.w3.org/2000/svg"
    viewBox="0 0 1000 1000">
  <!--
© 2017-2023 Adobe (http://www.adobe.com/).
Noto is a trademark of Google Inc.
This Font Software is licensed under the SIL Open Font License, Version 1.1. This Font Software is distributed on an "AS IS" BASIS, WITHOUT WARRANTIES OR CONDITIONS OF ANY KIND, either express or implied. See the SIL Open Font License for the specific language, permissions and limitations governing your use of this Font Software.
http://scripts.sil.org/OFL
  -->
<path d="M557 351L564 380 898 380C912 380 922 375 924 364 894 335 842 294 842 294L799 351ZM282 742L270 747C293 776 319 822 322 861 378 908 442 797 282 742ZM151 104L244 104 244 183 151 183ZM513 467C600 556 750 626 913 670 918 646 936 622 966 613L966 598C795 575 633 522 530 457 558 454 569 450 571 438L498 419C469 393 428 361 428 361L387 412 303 412 303 326 383 326 383 348 392 348C412 348 442 334 443 328L443 220C458 217 473 210 479 203L407 149 374 183 303 183 303 104 464 104C478 104 487 99 490 88 459 61 412 24 412 24L371 76 163 76 91 44 91 507 100 507C131 507 151 491 151 485L151 441 441 441C355 527 193 619 42 671L45 686C232 640 416 546 513 467ZM151 412L151 326 244 326 244 412ZM383 213L383 296 151 296 151 213ZM601 24C573 138 523 247 471 316L484 326C529 291 572 243 607 187L925 187C939 187 949 182 951 171 920 142 868 101 868 101L823 158 625 158C640 132 653 105 665 76 687 77 699 68 703 56ZM657 738C642 779 620 835 601 876L529 876 529 734 801 734C814 734 823 729 826 718 798 691 755 658 755 658L716 704 529 704 529 626 652 626C665 626 674 621 677 611 651 588 615 560 615 560L581 597 315 597 323 626 466 626 466 704 170 704 178 734 466 734 466 876 74 876 82 904 909 904C923 904 933 899 936 888 901 859 848 817 848 817L801 876 629 876C658 847 688 814 709 787 730 789 743 781 747 770Z"/>
</svg>