<svg xmlns="http://www.w3.org/2000/svg" name="gid13530" data-unicode="鍵"
    viewBox="0 0 1000 1000">
  <!--
© 2017-2024 Adobe (http://www.adobe.com/).
Noto is a trademark of Google Inc.
This Font Software is licensed under the SIL Open Font License, Version 1.1. This Font Software is distributed on an "AS IS" BASIS, WITHOUT WARRANTIES OR CONDITIONS OF ANY KIND, either express or implied. See the SIL Open Font License for the specific language, permissions and limitations governing your use of this Font Software.
http://scripts.sil.org/OFL
  -->
<path d="M297 565C289 632 277 709 265 761L283 767C308 724 334 663 352 611 372 611 383 602 387 590ZM81 572L66 576C84 630 99 712 93 775 140 830 202 710 81 572ZM412 532L396 538C410 619 428 685 450 737 420 816 374 886 302 943L312 958C387 912 439 854 475 789 542 903 640 936 784 936 822 936 898 936 933 936 934 910 946 890 968 885L968 872C923 873 833 873 791 873 654 873 560 848 495 751 536 660 552 557 562 454 581 452 591 449 597 441L594 438 688 438 688 542 570 542 578 571 688 571 688 678 548 678 556 707 688 707 688 843 699 843C722 843 747 830 747 821L747 707 902 707C916 707 925 702 927 691 900 662 855 623 855 623L815 678 747 678 747 571 879 571C892 571 901 566 904 555 878 527 834 490 834 490L796 542 747 542 747 438 827 438 827 470 836 470C855 470 885 456 886 449L886 306 957 306C970 306 978 301 981 290 962 264 927 229 927 229L897 277 886 277 886 182C901 180 914 173 919 166L851 113 819 147 747 147 747 85C771 81 779 71 782 58L688 48 688 147 578 147 587 176 688 176 688 277 527 277 535 306 688 306 688 408 582 408 590 435 530 381 494 418 448 418C479 328 513 219 531 157 553 155 570 150 576 142L503 80 471 117 360 117 368 146 473 146C448 233 409 362 373 460 400 468 417 468 432 463L438 447 502 447C497 534 487 618 464 696 444 652 427 598 412 532ZM747 176L827 176 827 277 747 277ZM747 408L747 306 827 306 827 408ZM235 95C259 94 269 86 272 76L176 44C152 146 83 303 14 389L28 399C111 326 184 210 226 115 273 165 307 221 321 261 373 305 451 194 235 95ZM34 872L81 952C91 949 99 940 102 928 238 870 337 823 407 788L402 773 241 819 241 518 359 518C372 518 382 513 384 503 357 474 310 435 310 435L270 489 241 489 241 362 342 362C356 362 365 357 368 346 340 318 294 280 294 280L253 332 102 332 109 362 183 362 183 489 44 489 52 518 183 518 183 835C119 852 66 866 34 872Z"/>
</svg>