<svg xmlns="http://www.w3.org/2000/svg"
    viewBox="0 0 1000 1000">
  <!--
© 2017-2024 Adobe (http://www.adobe.com/).
Noto is a trademark of Google Inc.
This Font Software is licensed under the SIL Open Font License, Version 1.1. This Font Software is distributed on an "AS IS" BASIS, WITHOUT WARRANTIES OR CONDITIONS OF ANY KIND, either express or implied. See the SIL Open Font License for the specific language, permissions and limitations governing your use of this Font Software.
http://scripts.sil.org/OFL
  -->
<path d="M727 235L716 244C768 286 838 359 862 415 931 455 968 312 727 235ZM568 231C543 292 486 378 425 430L435 443C511 403 580 336 617 283 641 287 647 283 653 273ZM334 531C323 599 307 675 293 725L310 733C339 691 368 631 391 579 410 579 422 570 426 559ZM84 538L70 542C90 595 110 677 106 739 157 795 220 672 84 538ZM479 107C481 151 459 206 436 226 419 240 410 260 420 277 431 295 462 289 478 272 495 254 507 219 506 174L866 174 843 259 858 265C879 245 914 207 934 184 953 182 964 181 971 174L900 105 862 145 711 145 711 54C734 50 742 41 744 28L648 19 648 145 504 145C503 133 500 121 497 108ZM690 380C736 488 827 583 925 645 930 621 950 602 973 596L975 583C868 536 761 461 705 368 727 367 737 362 739 353L637 330C605 437 483 585 378 660L387 674C426 653 466 626 503 596L503 927 514 927C544 927 565 911 565 906L565 860 789 860 789 920 799 920C827 920 851 905 851 901L851 641C869 638 880 632 887 625L809 566 781 603 576 603 522 580C592 520 653 449 690 380ZM789 831L565 831 565 632 789 632ZM36 837L84 921C93 917 102 909 105 896 253 843 361 798 437 766L433 750 261 790 261 483 408 483C422 483 431 478 434 468 406 438 358 400 358 400L317 454 261 454 261 324 380 324C394 324 403 319 405 308 377 280 331 242 331 242L291 294 111 294C168 227 217 148 249 80 304 133 345 192 362 235 418 278 495 160 261 65 282 63 291 56 294 46L198 14C169 117 94 275 18 362L32 372C58 351 82 327 106 300L112 324 200 324 200 454 45 454 53 483 200 483 200 804C130 820 71 831 36 837Z"/>
</svg>