<svg xmlns="http://www.w3.org/2000/svg"
    viewBox="0 0 1000 1000">
  <!--
© 2017-2023 Adobe (http://www.adobe.com/).
Noto is a trademark of Google Inc.
This Font Software is licensed under the SIL Open Font License, Version 1.1. This Font Software is distributed on an "AS IS" BASIS, WITHOUT WARRANTIES OR CONDITIONS OF ANY KIND, either express or implied. See the SIL Open Font License for the specific language, permissions and limitations governing your use of this Font Software.
http://scripts.sil.org/OFL
  -->
<path d="M543 243L551 273 794 273C808 273 817 268 820 257 792 229 747 192 747 192L708 243ZM325 535C317 602 303 679 290 732L308 738C335 695 362 634 382 582 402 581 413 572 417 561ZM88 542L73 546C91 601 108 682 102 745 150 802 215 679 88 542ZM695 65C740 161 826 245 919 298 924 275 943 255 967 249L969 235C868 196 765 134 709 54 731 52 741 48 743 37L641 17C610 112 494 244 394 312L403 326C517 268 636 164 695 65ZM816 370L816 443 538 443 538 370ZM511 666L511 929 520 929C546 929 572 915 572 910L572 866 826 866 826 921 835 921C856 921 888 907 889 901L889 704C906 701 921 693 927 686L851 628 817 666 577 666 517 639C522 618 527 597 530 576L816 576 816 616 825 616C846 616 877 602 878 596L878 382C898 378 914 370 921 362L841 302 806 341 550 341 477 308 477 449C477 592 457 756 326 893L339 905C435 835 485 747 511 660ZM816 473L816 547 533 547C536 521 537 496 538 473ZM826 836L572 836 572 694 826 694ZM259 65C282 63 291 57 294 46L198 14C169 117 94 275 18 362L32 372C123 298 202 178 249 81 308 135 351 196 371 240 428 282 501 162 259 65ZM36 842L90 921C99 917 106 907 109 895 250 830 354 777 426 739L421 725 260 776 260 488 404 488C418 488 427 483 429 473 401 443 354 404 354 404L312 459 260 459 260 332 370 332C383 332 392 327 395 316 367 288 320 250 320 250L280 302 111 302 119 332 201 332 201 459 47 459 55 488 201 488 201 795C130 817 71 834 36 842Z"/>
</svg>