<svg xmlns="http://www.w3.org/2000/svg" name="gid13554" data-unicode="鎞"
    viewBox="0 0 1000 1000">
  <!--
© 2017-2024 Adobe (http://www.adobe.com/).
Noto is a trademark of Google Inc.
This Font Software is licensed under the SIL Open Font License, Version 1.1. This Font Software is distributed on an "AS IS" BASIS, WITHOUT WARRANTIES OR CONDITIONS OF ANY KIND, either express or implied. See the SIL Open Font License for the specific language, permissions and limitations governing your use of this Font Software.
http://scripts.sil.org/OFL
  -->
<path d="M329 565C321 632 307 709 294 762L312 768C339 725 366 664 385 612 406 611 417 602 421 591ZM90 572L76 577C95 631 114 712 109 775 158 831 222 708 90 572ZM653 43C645 74 631 121 621 153L517 153 452 123 452 518 462 518 466 518 466 862 377 877 423 956C433 952 440 945 444 933 554 891 635 856 690 832L687 817 527 850 527 673 671 673C685 673 694 668 696 657 672 630 630 591 630 591L593 645 527 645 527 550C552 547 561 538 563 524L481 516C498 511 512 503 512 499L512 475 842 475 842 514 852 514C872 514 903 500 904 494L904 194C924 190 940 183 947 175L868 114 832 153 657 153C678 133 702 109 719 90 740 90 753 83 757 69ZM900 556C860 599 810 641 765 671L765 548C783 545 793 536 794 523L702 513 702 873C702 916 713 933 773 933L835 933C938 933 965 921 965 895 965 882 960 875 940 868L937 766 924 766C916 808 905 855 899 866 896 872 893 874 886 874 879 875 860 875 838 875L788 875C768 875 765 871 765 858L765 700C817 682 876 653 927 621 945 630 955 629 963 622ZM842 183L842 446 512 446 512 183ZM737 190C724 218 705 248 682 278 650 262 609 246 560 233L551 245C583 261 620 284 655 310 617 352 572 391 525 419L535 434C591 409 644 375 687 337 718 363 744 390 759 415 808 436 825 368 724 302 746 279 764 257 778 235 801 238 809 234 815 224ZM259 95C282 93 291 87 294 76L198 45C169 148 94 305 18 392L32 402C123 328 202 208 248 111 306 164 349 224 368 268 424 310 497 192 259 95ZM37 872L87 954C96 950 104 942 108 930 253 871 361 822 437 787L433 772 264 817 264 518 411 518C425 518 434 513 436 503 408 473 362 434 362 434L320 489 264 489 264 362 377 362C390 362 400 357 403 346 374 318 328 280 328 280L287 332 111 332 119 362 205 362 205 489 47 489 55 518 205 518 205 832C132 851 73 865 37 872Z"/>
</svg>