<svg xmlns="http://www.w3.org/2000/svg" name="gid13585" data-unicode="鏐"
    viewBox="0 0 1000 1000">
  <!--
© 2017-2024 Adobe (http://www.adobe.com/).
Noto is a trademark of Google Inc.
This Font Software is licensed under the SIL Open Font License, Version 1.1. This Font Software is distributed on an "AS IS" BASIS, WITHOUT WARRANTIES OR CONDITIONS OF ANY KIND, either express or implied. See the SIL Open Font License for the specific language, permissions and limitations governing your use of this Font Software.
http://scripts.sil.org/OFL
  -->
<path d="M668 526C621 592 527 663 445 709L455 724C548 689 652 629 706 573 722 578 734 577 740 567ZM759 608C697 685 574 766 467 810L475 826C595 793 731 726 800 658 817 663 829 662 835 653ZM862 693C769 810 579 902 402 939L408 956C599 933 798 852 901 744 918 750 930 748 936 740ZM83 557L69 562C90 613 112 694 108 755 158 809 220 688 83 557ZM314 545C306 615 292 692 276 745L294 753C323 709 351 645 371 589 391 587 401 578 405 567ZM686 436C734 517 828 597 925 643 930 618 950 596 976 589L977 575C875 546 761 489 701 426 723 424 732 420 735 409L636 391C639 389 641 387 641 386L641 127C658 124 673 117 679 110L606 53 573 89 390 89 399 118 501 118C479 162 436 213 392 248L402 261C458 238 519 197 550 160 566 164 577 162 582 153L513 118 582 118 582 259 532 234C502 295 442 361 379 404L389 418C463 387 541 333 577 281L582 282 582 406 591 406C601 406 614 402 624 398 585 477 465 584 366 640L374 652C492 606 623 517 686 436ZM795 224C766 273 709 333 655 372L665 386C731 360 805 315 842 273L854 275 854 428 863 428C883 428 913 414 914 407L914 127C932 124 947 117 953 110L879 52 845 89 678 89 687 118 760 118C736 160 693 208 649 241L660 256C715 232 778 193 810 159 827 164 837 162 842 153L777 118 854 118 854 255ZM41 860L76 944C86 941 95 932 99 920 234 869 336 825 410 793L407 778 253 815 253 499 380 499C394 499 404 494 406 483 377 455 329 416 329 416L289 470 253 470 253 338 367 338C380 338 389 333 392 322 364 295 317 257 317 257L277 309 112 309C170 241 219 160 251 92 295 139 326 195 337 235 387 282 472 172 257 79L257 78C282 76 292 69 294 58L188 42C163 141 99 284 29 370L41 380C61 363 81 343 100 322L104 338 193 338 193 470 48 470 56 499 193 499 193 829C127 844 73 855 41 860Z"/>
</svg>