<svg xmlns="http://www.w3.org/2000/svg" name="gid13603" data-unicode="鏱"
    viewBox="0 0 1000 1000">
  <!--
© 2017-2024 Adobe (http://www.adobe.com/).
Noto is a trademark of Google Inc.
This Font Software is licensed under the SIL Open Font License, Version 1.1. This Font Software is distributed on an "AS IS" BASIS, WITHOUT WARRANTIES OR CONDITIONS OF ANY KIND, either express or implied. See the SIL Open Font License for the specific language, permissions and limitations governing your use of this Font Software.
http://scripts.sil.org/OFL
  -->
<path d="M326 565C318 633 304 710 291 762L309 769C336 726 363 664 383 613 403 612 414 603 418 592ZM88 572L73 576C91 631 108 712 102 775 150 832 215 709 88 572ZM637 48L637 160 426 160 433 188 515 188 510 191C532 219 546 263 550 290 565 341 624 314 613 269 604 236 573 209 529 188L761 188C752 229 735 281 718 318L395 318 403 347 945 347C959 347 967 342 970 331 939 302 888 261 888 261L843 318 742 318C772 290 801 254 820 227 842 228 853 219 857 207L788 188 914 188C928 188 938 183 940 173 909 143 857 103 857 103L813 160 703 160 703 84C724 80 733 71 735 58ZM37 872L87 953C97 950 104 941 107 929 236 875 334 830 407 795L408 799 641 799 641 960 651 960C684 960 705 945 705 941L705 799 945 799C959 799 968 794 970 783 939 754 887 712 887 712L841 770 705 770 705 658 814 658 814 691 824 691C852 691 877 677 877 672L877 442C896 439 905 433 912 426L842 372 811 409 541 409 469 378 469 705 479 705C510 705 530 690 530 685L530 658 641 658 641 770 431 770 430 768 423 770 400 770 402 776 260 815 260 518 405 518C419 518 428 513 430 503 402 473 355 434 355 434L313 489 260 489 260 362 371 362C384 362 394 357 396 346 368 318 321 280 321 280L281 332 111 332 119 362 201 362 201 489 47 489 55 518 201 518 201 831C130 850 72 865 37 872ZM530 547L814 547 814 630 530 630ZM530 518L530 438 814 438 814 518ZM259 95C282 93 291 87 294 76L198 44C169 147 94 305 18 392L32 402C123 328 202 208 248 111 306 164 349 224 368 268 424 310 497 192 259 95Z"/>
</svg>