<svg xmlns="http://www.w3.org/2000/svg" name="gid13613" data-unicode="鐃"
    viewBox="0 0 1000 1000">
  <!--
© 2017-2024 Adobe (http://www.adobe.com/).
Noto is a trademark of Google Inc.
This Font Software is licensed under the SIL Open Font License, Version 1.1. This Font Software is distributed on an "AS IS" BASIS, WITHOUT WARRANTIES OR CONDITIONS OF ANY KIND, either express or implied. See the SIL Open Font License for the specific language, permissions and limitations governing your use of this Font Software.
http://scripts.sil.org/OFL
  -->
<path d="M82 563L68 567C88 619 107 699 102 761 151 816 214 695 82 563ZM309 552C303 623 289 703 275 759L293 766C321 720 348 653 367 594 387 593 397 583 400 573ZM395 272L403 301 929 301C943 301 952 296 955 285 925 256 876 218 876 218L833 272 690 272 690 180 888 180C901 180 910 175 913 164 884 136 835 98 835 98L793 151 690 151 690 78C712 74 720 65 722 52L627 43 627 151 437 151 445 180 627 180 627 272ZM634 545L642 574 934 574C947 574 956 569 959 558 934 532 894 498 894 498L858 545 817 545 817 438 911 438C924 438 933 433 936 422 913 398 877 367 877 367L844 408 817 408 817 351C839 348 848 339 850 326L757 315 757 408 669 408 677 438 757 438 757 545ZM388 546L426 614C436 611 442 604 447 592 539 559 608 532 656 512L653 498 544 519 544 439 634 439C647 439 656 434 658 423 636 399 600 369 600 369L568 409 544 409 544 352C567 348 576 339 578 326L486 317 486 409 393 409 401 439 486 439 486 529ZM43 858L78 942C88 939 96 930 101 918 240 865 343 820 420 788L416 773 249 814 249 505 379 505C392 505 402 500 405 489 375 460 328 421 328 421L287 475 249 475 249 338 365 338C379 338 388 333 390 322 362 295 315 257 315 257L275 309 111 309C168 243 217 163 248 96 297 148 330 208 343 252 393 300 481 187 253 84L254 83C279 82 289 75 292 64L189 42C162 141 95 288 24 373L36 382C58 364 80 343 100 321L104 338 189 338 189 475 46 475 54 505 189 505 189 828C126 842 74 853 43 858ZM379 641L387 670 552 670C534 805 473 881 313 940L318 956C507 911 595 832 620 670L691 670 691 886C691 929 700 945 763 945L831 945C940 945 965 932 965 905 965 894 961 887 942 879L940 758 926 758C916 810 905 861 900 876 896 884 893 886 886 887 877 887 857 887 833 887L778 887C756 887 754 885 754 873L754 670 944 670C958 670 967 665 969 654 940 627 891 589 891 589L849 641Z"/>
</svg>