<svg xmlns="http://www.w3.org/2000/svg" name="gid13614" data-unicode="鐄"
    viewBox="0 0 1000 1000">
  <!--
© 2017-2024 Adobe (http://www.adobe.com/).
Noto is a trademark of Google Inc.
This Font Software is licensed under the SIL Open Font License, Version 1.1. This Font Software is distributed on an "AS IS" BASIS, WITHOUT WARRANTIES OR CONDITIONS OF ANY KIND, either express or implied. See the SIL Open Font License for the specific language, permissions and limitations governing your use of this Font Software.
http://scripts.sil.org/OFL
  -->
<path d="M576 784C533 836 440 904 353 941L360 955C460 933 564 886 622 845 646 849 662 847 668 837ZM731 798L722 809C783 843 867 907 902 953 981 979 995 831 731 798ZM329 555C318 622 304 698 290 748L306 755C335 713 364 654 385 603 406 603 417 594 421 583ZM85 555L71 560C91 613 110 695 105 757 155 813 219 690 85 555ZM751 48L751 163 600 163 600 84C625 80 634 71 637 57L539 48 539 163 412 163 420 192 539 192 539 353 550 353C573 353 600 340 600 332L600 310 751 310 751 348 763 348C787 348 814 334 814 327L814 192 940 192C953 192 962 187 965 177 935 147 887 108 887 108L843 163 814 163 814 84C838 80 847 71 850 57ZM600 192L751 192 751 281 600 281ZM457 487L457 806 466 806C498 806 517 791 517 786L517 760 839 760 839 794 849 794C877 794 901 780 901 775L901 520C921 517 930 511 937 504L867 450 836 487 706 487 706 413 946 413C960 413 969 408 972 397 940 367 889 326 889 326L844 383 407 383 415 413 646 413 646 487 529 487 457 456ZM517 637L646 637 646 731 517 731ZM839 637L839 731 706 731 706 637ZM517 608L517 516 646 516 646 608ZM839 608L706 608 706 516 839 516ZM36 860L78 944C88 941 96 932 100 920 243 866 347 821 422 788L418 773 264 810 264 498 399 498C413 498 422 493 425 482 397 453 350 415 350 415L308 469 264 469 264 344 378 344C392 344 402 339 405 328 376 300 329 262 329 262L289 315 117 315C171 250 217 175 248 110 305 160 348 218 367 260 425 300 496 182 258 93 282 92 291 86 294 74L198 43C169 146 94 304 18 391L32 401C59 379 85 353 109 325L114 344 202 344 202 469 48 469 56 498 202 498 202 825C130 841 71 854 36 860Z"/>
</svg>