<svg xmlns="http://www.w3.org/2000/svg"
    viewBox="0 0 1000 1000">
  <!--
© 2017-2023 Adobe (http://www.adobe.com/).
Noto is a trademark of Google Inc.
This Font Software is licensed under the SIL Open Font License, Version 1.1. This Font Software is distributed on an "AS IS" BASIS, WITHOUT WARRANTIES OR CONDITIONS OF ANY KIND, either express or implied. See the SIL Open Font License for the specific language, permissions and limitations governing your use of this Font Software.
http://scripts.sil.org/OFL
  -->
<path d="M75 534L60 538C81 589 100 667 96 727 145 780 206 662 75 534ZM303 527C296 597 280 674 263 728L280 736C312 692 341 629 361 571 381 570 391 561 395 548ZM478 16L478 144 361 144C341 116 304 84 242 51L241 51C267 49 277 43 279 31L175 11C152 110 89 258 22 344L36 353C58 334 80 311 100 287L105 303 181 303 181 442 46 442 54 471 181 471 181 802C122 815 72 825 44 830L77 915C87 912 95 903 100 891 220 843 311 802 375 773L372 759 241 789 241 471 360 471C373 471 382 466 385 455 356 427 309 388 309 388L268 442 241 442 241 303 345 303C359 303 367 298 370 287 342 260 297 221 297 221L257 274 111 274C164 208 208 130 236 64 282 117 310 178 321 222 350 254 396 226 377 173L678 173C692 173 700 168 703 157 675 128 628 90 628 90L589 144 540 144 540 51C563 47 572 38 574 25ZM745 14C730 169 693 326 642 436L659 445C676 422 691 397 706 369 714 474 728 575 753 664 709 758 644 841 550 914L561 927C655 870 723 803 774 727 804 807 845 875 903 928 913 897 935 881 965 875L968 866C897 819 845 752 807 672 868 555 895 416 908 255L944 255C958 255 967 250 970 239 942 210 895 173 895 173L854 225 765 225C782 171 797 115 808 57 830 55 840 45 842 32ZM722 336C734 311 745 283 755 255L842 255C835 384 817 500 779 604 751 523 733 433 722 336ZM384 236L384 453 393 453C416 453 442 440 442 435L442 408 581 408 581 444 590 444C609 444 639 432 640 427L640 271C656 269 669 262 674 255L605 203 573 236 446 236 384 208ZM581 378L442 378 442 265 581 265ZM483 575L483 654C419 664 366 672 335 675L361 754C370 753 379 744 383 732L483 702 483 826C483 839 479 844 463 844 446 844 364 837 364 837L364 854C401 858 422 866 434 876 445 886 450 902 452 921 534 913 544 882 544 830L544 684 702 634 700 617 544 644 544 610C567 607 576 600 578 585L543 581C581 561 624 534 651 517 671 516 682 515 690 508L622 444 584 482 360 482 368 511 573 511C557 532 537 558 518 579Z"/>
</svg>