<svg xmlns="http://www.w3.org/2000/svg"
    viewBox="0 0 1000 1000">
  <!--
© 2017-2024 Adobe (http://www.adobe.com/).
Noto is a trademark of Google Inc.
This Font Software is licensed under the SIL Open Font License, Version 1.1. This Font Software is distributed on an "AS IS" BASIS, WITHOUT WARRANTIES OR CONDITIONS OF ANY KIND, either express or implied. See the SIL Open Font License for the specific language, permissions and limitations governing your use of this Font Software.
http://scripts.sil.org/OFL
  -->
<path d="M603 728L588 732C603 778 613 849 604 904 648 960 719 850 603 728ZM711 726L698 732C725 777 753 849 753 905 809 959 874 834 711 726ZM827 723L815 731C856 774 896 850 897 910 963 967 1027 814 827 723ZM508 730C504 787 463 838 427 857 406 869 394 888 403 908 414 930 448 928 471 912 508 887 545 825 526 730ZM74 540L59 544C80 595 99 673 95 734 144 787 205 669 74 540ZM306 532C298 602 283 679 266 733L283 740C314 697 343 634 363 577 383 577 394 567 398 556ZM474 140L564 140 564 225 474 225ZM43 834L76 919C86 916 94 907 99 895 209 853 296 817 362 789 347 832 329 874 306 914L323 924C456 770 473 551 474 381L851 381 851 412 860 412C880 412 909 397 910 391L910 266C928 262 945 254 951 246L875 190 842 225 764 225 764 140 936 140C950 140 960 135 962 124 930 94 879 54 879 54L833 110 708 110 708 50C729 46 738 37 740 24L643 15 643 110 486 110 413 79 413 353C413 489 408 633 369 765L243 794 243 475 369 475C382 475 391 470 394 459 366 431 319 392 319 392L277 446 243 446 243 317 354 317C367 317 376 312 379 301 351 274 306 235 306 235L266 287 105 287C163 219 211 137 243 67 290 119 322 181 334 223 381 273 471 164 248 55 273 54 283 47 285 36L182 15C157 114 91 263 22 348L35 358C57 339 79 318 99 294L105 317 184 317 184 446 46 446 54 475 184 475 184 806C123 820 72 830 43 834ZM474 255L564 255 564 351 474 351ZM643 140L708 140 707 225 621 225 621 140ZM851 255L851 351 764 351 764 255ZM621 255L707 255 707 351 621 351ZM513 409L513 631 457 638 498 716C508 713 515 706 520 693 602 662 663 636 704 617L701 602 570 623 570 535 687 535C700 535 708 530 711 519 686 493 644 460 644 460L608 506 570 506 570 442C591 439 601 430 603 417ZM712 596L712 615C712 685 717 690 783 690L876 690C939 690 956 680 956 658 956 647 952 644 929 637L927 560 917 560C906 605 898 629 894 635 889 641 884 641 877 641L787 641C769 641 769 641 769 615L769 559C820 543 875 519 907 499 928 505 936 501 943 492L870 447C848 471 808 506 769 532L769 439C785 436 792 428 794 417L712 409Z"/>
</svg>