<svg xmlns="http://www.w3.org/2000/svg" name="gid13699" data-unicode="閊"
    viewBox="0 0 1000 1000">
  <!--
© 2017-2024 Adobe (http://www.adobe.com/).
Noto is a trademark of Google Inc.
This Font Software is licensed under the SIL Open Font License, Version 1.1. This Font Software is distributed on an "AS IS" BASIS, WITHOUT WARRANTIES OR CONDITIONS OF ANY KIND, either express or implied. See the SIL Open Font License for the specific language, permissions and limitations governing your use of this Font Software.
http://scripts.sil.org/OFL
  -->
<path d="M464 477L464 771 337 771 337 575C358 572 367 564 369 551L278 541 278 881 289 881C311 881 337 868 337 860L337 799 654 799 654 866 665 866C688 866 714 853 714 845L714 575C735 572 744 563 746 551L654 541 654 771 524 771 524 513C547 509 555 500 557 487ZM369 136L369 240 163 240 163 136ZM99 107L99 958 110 958C141 958 163 941 163 931L163 403 369 403 369 463 379 463C399 463 431 448 432 442L432 145C449 142 464 134 470 127L394 70 360 107 168 107 99 73ZM163 269L369 269 369 374 163 374ZM835 136L835 240 620 240 620 136ZM557 107L557 458 566 458C592 458 620 443 620 437L620 403 835 403 835 853C835 869 830 875 812 875 792 875 694 868 694 868L694 884C738 890 761 897 776 909 789 919 794 936 797 956 890 948 899 914 899 861L899 149C920 145 936 136 943 128L859 64 825 107 624 107 557 76ZM620 269L835 269 835 374 620 374Z"/>
</svg>