<svg xmlns="http://www.w3.org/2000/svg" name="gid13700" data-unicode="開"
    viewBox="0 0 1000 1000">
  <!--
© 2017-2024 Adobe (http://www.adobe.com/).
Noto is a trademark of Google Inc.
This Font Software is licensed under the SIL Open Font License, Version 1.1. This Font Software is distributed on an "AS IS" BASIS, WITHOUT WARRANTIES OR CONDITIONS OF ANY KIND, either express or implied. See the SIL Open Font License for the specific language, permissions and limitations governing your use of this Font Software.
http://scripts.sil.org/OFL
  -->
<path d="M565 510L565 651 433 651 434 613 434 510ZM231 651L238 681 370 681C361 761 330 842 235 910L245 923C379 860 418 767 430 681L565 681 565 917 574 917C605 917 625 903 625 899L625 681 751 681C765 681 775 676 777 665 748 637 701 598 701 598L659 651 625 651 625 510 733 510C747 510 757 505 759 494 729 465 682 428 682 428L639 480 252 480 260 510 373 510 373 613 372 651ZM369 136L369 227 162 227 162 136ZM98 107L98 958 110 958C140 958 162 941 162 932L162 380 369 380 369 423 379 423C400 423 431 408 432 401L432 145C449 142 463 134 469 127L394 70 360 107 167 107 98 73ZM162 255L369 255 369 350 162 350ZM836 136L836 227 619 227 619 136ZM557 107L557 419 566 419C592 419 619 405 619 398L619 380 836 380 836 856C836 871 831 876 816 876 799 876 720 870 720 870L720 886C756 892 776 899 789 909 800 919 804 937 807 957 891 948 900 916 900 864L900 149C920 145 937 136 944 128L859 65 826 107 624 107 557 76ZM619 255L836 255 836 350 619 350Z"/>
</svg>