<svg xmlns="http://www.w3.org/2000/svg"
    viewBox="0 0 1000 1000">
  <!--
© 2017-2024 Adobe (http://www.adobe.com/).
Noto is a trademark of Google Inc.
This Font Software is licensed under the SIL Open Font License, Version 1.1. This Font Software is distributed on an "AS IS" BASIS, WITHOUT WARRANTIES OR CONDITIONS OF ANY KIND, either express or implied. See the SIL Open Font License for the specific language, permissions and limitations governing your use of this Font Software.
http://scripts.sil.org/OFL
  -->
<path d="M412 410L403 418C443 443 493 489 510 528 576 560 607 430 412 410ZM291 548C290 607 252 664 216 684 196 696 184 716 194 735 204 756 239 753 261 737 296 711 331 646 308 548ZM370 492L370 737C319 776 263 811 204 839L213 854C269 833 321 808 370 778L370 785C370 828 382 843 448 843L531 843C656 843 683 832 683 805 683 793 678 787 658 780L655 699 643 699C635 734 626 769 620 779 616 785 612 786 603 787 593 788 567 788 533 788L460 788C431 788 428 784 428 770L428 741C510 685 580 619 633 552 673 598 721 672 731 728 795 778 848 639 644 544L637 548C660 519 680 490 697 461 720 465 730 462 736 451L648 409C602 504 525 604 428 690L428 527C446 524 455 515 457 502ZM371 99L371 185 163 185 163 99ZM99 70L99 928 110 928C141 928 163 911 163 901L163 333 371 333 371 384 381 384C401 384 433 369 434 362L434 108C451 105 466 97 472 91L396 32 362 70 168 70 99 36ZM163 215L371 215 371 303 163 303ZM835 99L835 185 617 185 617 99ZM554 70L554 387 563 387C590 387 617 372 617 365L617 333 835 333 835 818C835 833 830 840 811 840 790 840 684 831 684 831L684 847C730 854 757 863 772 874 785 886 791 905 794 926 891 916 900 880 900 826L900 111C920 108 937 99 944 92L859 27 825 70 622 70 554 39ZM617 215L835 215 835 303 617 303Z"/>
</svg>