<svg xmlns="http://www.w3.org/2000/svg"
    viewBox="0 0 1000 1000">
  <!--
© 2017-2023 Adobe (http://www.adobe.com/).
Noto is a trademark of Google Inc.
This Font Software is licensed under the SIL Open Font License, Version 1.1. This Font Software is distributed on an "AS IS" BASIS, WITHOUT WARRANTIES OR CONDITIONS OF ANY KIND, either express or implied. See the SIL Open Font License for the specific language, permissions and limitations governing your use of this Font Software.
http://scripts.sil.org/OFL
  -->
<path d="M99 76L99 928 110 928C140 928 162 911 162 902L162 329 370 329 370 366 379 366C396 366 421 356 429 349 420 372 409 397 396 422L215 422 223 451 380 451C338 522 279 591 202 639L213 651C250 633 284 613 314 590L314 821 323 821C351 821 370 806 370 801L370 763 464 763 464 838C464 880 475 895 537 895L608 895C719 895 746 886 746 861 746 849 739 843 720 837L717 781 705 781C698 805 689 831 684 837 680 841 676 842 669 843 660 844 637 844 610 844L549 844C524 844 521 839 521 825L521 763 625 763 625 801 633 801C652 801 680 787 681 780L681 585C704 604 731 622 763 638 768 612 779 592 794 588L797 577C704 548 643 502 601 451L764 451C777 451 787 446 790 435 761 408 715 373 715 373L676 422 463 422 484 384C504 385 516 378 521 365L433 337 433 114C449 111 464 103 470 96L395 39 360 76 167 76 99 43ZM625 734L521 734 521 671 625 671ZM464 734L370 734 370 671 464 671ZM625 581L625 641 521 641 521 581ZM464 473L464 553 381 553 366 546C397 516 424 483 445 451L577 451C592 481 610 510 634 538L619 553 521 553 521 508C540 504 549 495 551 483ZM464 581L464 641 370 641 370 581ZM370 105L370 185 162 185 162 105ZM162 215L370 215 370 299 162 299ZM836 105L836 185 619 185 619 105ZM556 76L556 360 565 360C591 360 619 347 619 340L619 329 836 329 836 829C836 842 832 846 820 846 807 846 749 842 749 842L749 858C778 863 793 869 803 879 812 890 815 909 816 929 891 921 900 890 900 837L900 118C920 114 937 105 944 97L859 34 826 76 624 76 556 46ZM619 215L836 215 836 299 619 299Z"/>
</svg>