<svg xmlns="http://www.w3.org/2000/svg" name="gid13742" data-unicode="闈"
    viewBox="0 0 1000 1000">
  <!--
© 2017-2024 Adobe (http://www.adobe.com/).
Noto is a trademark of Google Inc.
This Font Software is licensed under the SIL Open Font License, Version 1.1. This Font Software is distributed on an "AS IS" BASIS, WITHOUT WARRANTIES OR CONDITIONS OF ANY KIND, either express or implied. See the SIL Open Font License for the specific language, permissions and limitations governing your use of this Font Software.
http://scripts.sil.org/OFL
  -->
<path d="M374 134L374 199 162 199 162 134ZM278 408L287 438 399 438 383 494 227 494 235 523 761 523C774 523 783 518 786 508 760 483 721 453 721 453L686 494 663 494 663 442C677 440 690 433 694 427L629 378 598 408 466 408 473 385C493 385 505 376 508 363L429 349C434 346 437 344 437 342L437 144C454 140 469 132 475 125L399 69 365 106 167 106 99 72 99 958 110 958C140 958 162 941 162 932L162 326 374 326 374 363 384 363C396 363 412 358 423 352L408 408ZM162 228L374 228 374 297 162 297ZM613 228L836 228 836 297 613 297ZM613 199L613 134 836 134 836 199ZM551 106L551 366 560 366C586 366 613 352 613 346L613 326 836 326 836 865C836 879 831 885 816 885 800 885 728 879 728 879L728 894C762 898 781 906 793 916 803 925 807 942 810 959 891 951 900 921 900 871L900 148C921 144 937 135 944 127L860 63 826 106 618 106 551 75ZM606 494L439 494 457 438 606 438ZM303 741L303 832 219 832 227 860 505 860 505 947 517 947C539 947 565 934 565 926L565 860 754 860C766 860 775 855 778 844 752 819 710 787 710 787L673 832 565 832 565 771 717 771C731 771 740 766 742 755 717 729 676 697 676 697L641 741 565 741 565 715C583 711 590 704 592 693L505 683 505 741 376 741 303 710ZM505 832L363 832 363 771 505 771ZM311 562L311 712 320 712C344 712 370 700 370 694L370 678 633 678 633 700 642 700C661 700 691 687 692 680L692 596C706 594 719 586 724 580L656 529 625 562 375 562 311 533ZM633 648L370 648 370 590 633 590Z"/>
</svg>