<svg xmlns="http://www.w3.org/2000/svg"
    viewBox="0 0 1000 1000">
  <!--
© 2017-2023 Adobe (http://www.adobe.com/).
Noto is a trademark of Google Inc.
This Font Software is licensed under the SIL Open Font License, Version 1.1. This Font Software is distributed on an "AS IS" BASIS, WITHOUT WARRANTIES OR CONDITIONS OF ANY KIND, either express or implied. See the SIL Open Font License for the specific language, permissions and limitations governing your use of this Font Software.
http://scripts.sil.org/OFL
  -->
<path d="M406 631L406 733 405 748 331 748 331 672C349 669 357 661 358 650L277 641 277 821 288 821C306 821 331 808 331 801L331 778 401 778C390 825 357 870 275 902L286 915C431 873 460 801 461 734L461 665C484 662 492 653 494 641ZM99 76L99 928 110 928C140 928 162 911 162 902L162 329 370 329 370 357 355 349C347 370 329 405 313 434 298 426 280 420 258 416L247 424C277 443 307 480 314 510 352 536 383 484 333 446 356 429 379 412 394 399 412 404 425 395 428 386L382 363C403 362 432 348 433 342L433 114C449 111 464 103 470 96L395 39 360 76 167 76 99 43ZM429 415C405 451 354 516 310 562L225 563 257 626C266 624 274 619 280 607 347 596 398 586 434 579 438 590 440 602 440 613 483 654 538 566 416 512L404 518C413 529 421 543 427 559L342 561C387 528 431 489 456 464 475 470 490 462 494 454ZM521 629L521 902 532 902C553 902 577 889 577 882L577 778 659 778 659 822 670 822C690 822 714 810 714 804L714 673C732 669 740 661 741 651L659 642 659 748 577 748 577 661C595 657 603 649 605 639ZM556 76L556 357 565 357C576 357 587 355 596 352 586 373 567 406 550 433 535 426 516 419 492 415L482 424C511 443 543 479 551 510 589 534 620 483 570 445 594 428 618 411 633 397 651 401 665 393 668 385L602 349C612 345 619 341 619 338L619 329 836 329 836 829C836 842 832 846 819 846 805 846 744 841 744 841L744 858C774 863 789 869 800 879 810 890 814 909 814 929 891 921 900 890 900 837L900 118C920 114 937 105 944 97L859 34 826 76 624 76 556 46ZM669 416C645 453 590 519 546 563L496 563 528 626C537 624 545 619 551 606 613 594 661 584 695 576 702 591 706 606 708 619 756 659 805 561 663 504L652 511C663 523 675 539 685 556L578 562C623 530 668 491 695 467 713 473 729 465 733 457ZM370 105L370 185 162 185 162 105ZM162 215L370 215 370 299 162 299ZM836 105L836 185 619 185 619 105ZM619 215L836 215 836 299 619 299Z"/>
</svg>