<svg xmlns="http://www.w3.org/2000/svg"
    viewBox="0 0 1000 1000">
  <!--
© 2017-2023 Adobe (http://www.adobe.com/).
Noto is a trademark of Google Inc.
This Font Software is licensed under the SIL Open Font License, Version 1.1. This Font Software is distributed on an "AS IS" BASIS, WITHOUT WARRANTIES OR CONDITIONS OF ANY KIND, either express or implied. See the SIL Open Font License for the specific language, permissions and limitations governing your use of this Font Software.
http://scripts.sil.org/OFL
  -->
<path d="M652 549L652 602 526 602 526 549ZM229 778L237 807 467 807 467 916 476 916C506 916 526 900 526 896L526 807 753 807C766 807 775 802 778 791 752 765 708 731 708 731L670 778 526 778 526 715 652 715 652 746 660 746C680 746 709 732 710 725L710 553C724 552 737 545 742 538L687 496 691 496C709 496 737 484 738 478L738 390C752 388 764 381 769 375L705 327 676 356 584 356 525 330 525 500 534 500C556 500 580 487 580 483L580 467 683 467 683 493 675 487 644 519 351 519 298 494C307 490 313 486 313 485L313 467 416 467 416 496 424 496C442 496 470 484 470 477L470 389C483 386 495 380 499 374L437 328 409 356 316 356 258 330 258 501 266 501C274 501 282 499 289 497L289 752 298 752C320 752 346 739 346 734L346 715 467 715 467 778ZM346 631L467 631 467 686 346 686ZM346 602L346 549 467 549 467 602ZM652 631L652 686 526 686 526 631ZM416 386L416 438 313 438 313 386ZM683 386L683 438 580 438 580 386ZM380 104L380 170 162 170 162 104ZM99 76L99 928 110 928C140 928 162 911 162 902L162 299 380 299 380 334 389 334C410 334 441 319 442 313L442 114C459 110 474 102 480 95L405 39 370 76 167 76 99 42ZM162 200L380 200 380 271 162 271ZM836 104L836 170 609 170 609 104ZM546 76L546 332 556 332C581 332 609 318 609 312L609 299 836 299 836 834C836 849 831 855 815 855 796 855 711 848 711 848L711 864C750 868 771 875 785 885 796 894 801 910 804 927 890 919 900 889 900 839L900 117C920 114 937 105 944 97L859 33 826 76 614 76 546 45ZM609 200L836 200 836 271 609 271Z"/>
</svg>