<svg xmlns="http://www.w3.org/2000/svg"
    viewBox="0 0 1000 1000">
  <!--
© 2017-2023 Adobe (http://www.adobe.com/).
Noto is a trademark of Google Inc.
This Font Software is licensed under the SIL Open Font License, Version 1.1. This Font Software is distributed on an "AS IS" BASIS, WITHOUT WARRANTIES OR CONDITIONS OF ANY KIND, either express or implied. See the SIL Open Font License for the specific language, permissions and limitations governing your use of this Font Software.
http://scripts.sil.org/OFL
  -->
<path d="M82 71L82 927 93 927C124 927 146 909 146 904L146 100 304 100C278 182 236 300 207 364 285 442 310 520 310 590 310 630 300 652 281 662 272 667 265 668 253 668 239 668 198 668 175 668L175 683C199 686 221 692 230 700 238 708 242 730 242 753 343 748 381 701 380 607 380 530 342 441 232 361 278 300 346 182 381 119 404 119 419 116 427 108L347 28 301 71 158 71 82 39ZM531 12C491 179 416 340 338 442L352 452C416 395 474 318 523 228L582 228 582 928 593 928C626 928 647 912 647 907L647 665 920 665C934 665 944 660 947 649 914 619 861 578 861 578L816 636 647 636 647 443 900 443C913 443 922 438 925 427 894 398 841 357 841 357L797 414 647 414 647 228 936 228C950 228 960 223 962 213 930 182 876 141 876 141L829 200 537 200C559 157 579 111 596 63 618 64 631 55 635 43Z"/>
</svg>