<svg xmlns="http://www.w3.org/2000/svg"
    viewBox="0 0 1000 1000">
  <!--
© 2017-2023 Adobe (http://www.adobe.com/).
Noto is a trademark of Google Inc.
This Font Software is licensed under the SIL Open Font License, Version 1.1. This Font Software is distributed on an "AS IS" BASIS, WITHOUT WARRANTIES OR CONDITIONS OF ANY KIND, either express or implied. See the SIL Open Font License for the specific language, permissions and limitations governing your use of this Font Software.
http://scripts.sil.org/OFL
  -->
<path d="M470 201L626 201 626 402 470 402ZM626 14L626 171 483 171 408 139 408 463C408 632 391 789 269 910L284 921C454 803 470 624 470 462L470 431 537 431C560 548 597 643 651 720 581 799 488 863 370 909L379 925C507 886 605 829 680 759 741 831 820 884 919 924 930 893 953 875 982 872L984 862C878 831 790 784 720 718 791 639 838 545 871 440 894 439 904 435 911 427L840 362 798 402 689 402 689 201 846 201C831 239 811 290 799 318L813 325C843 296 895 242 922 212 942 211 954 210 961 202L887 130 846 171 689 171 689 52C714 48 723 38 725 24ZM802 431C777 523 739 607 684 680 626 614 584 531 559 431ZM80 74L80 929 91 929C122 929 143 911 143 906L143 103 277 103C254 180 220 294 195 354 261 427 283 500 283 570 283 608 275 628 259 637 251 642 244 643 234 643 221 643 186 643 167 643L167 658C187 661 206 667 213 674 222 683 226 704 226 725 318 721 352 678 351 585 351 509 315 426 221 351 261 293 319 180 351 120 375 120 388 118 396 109L316 31 274 74 156 74 80 41Z"/>
</svg>