<svg xmlns="http://www.w3.org/2000/svg" name="gid13799" data-unicode="陋"
    viewBox="0 0 1000 1000">
  <!--
© 2017-2024 Adobe (http://www.adobe.com/).
Noto is a trademark of Google Inc.
This Font Software is licensed under the SIL Open Font License, Version 1.1. This Font Software is distributed on an "AS IS" BASIS, WITHOUT WARRANTIES OR CONDITIONS OF ANY KIND, either express or implied. See the SIL Open Font License for the specific language, permissions and limitations governing your use of this Font Software.
http://scripts.sil.org/OFL
  -->
<path d="M545 295L653 295C646 412 622 512 545 594ZM487 266L487 800 496 800C525 800 545 785 545 780L545 598 558 612C629 558 668 493 690 418 722 459 761 517 772 560 826 601 871 492 696 396 703 364 708 330 712 295L836 295 836 700C836 713 832 718 818 718 800 718 726 712 726 712L726 729C761 733 780 741 792 750 803 760 806 776 808 794 886 785 895 756 895 706L895 307C914 304 931 295 938 288L857 228 826 265 714 265C717 224 718 181 719 136L938 136C952 136 962 131 965 120 931 90 876 47 876 47L827 108 409 108 417 136 657 136C657 181 656 224 655 265L555 265 487 236ZM349 267L349 957 360 957C382 957 407 942 407 934L407 888 945 888C959 888 968 883 970 872 939 843 887 802 887 802L841 858 407 858 407 304C432 301 440 291 443 278ZM82 105L82 959 92 959C123 959 144 942 144 936L144 134 252 134C232 211 200 325 179 385 238 457 257 530 257 600 257 637 249 658 235 666 228 671 222 672 211 672 198 672 169 672 150 672L150 688C170 691 187 696 194 703 201 712 205 732 205 753 293 748 323 707 323 614 323 538 291 457 203 381 241 322 295 211 323 152 345 151 359 148 367 141L291 65 249 105 156 105 82 73Z"/>
</svg>