<svg xmlns="http://www.w3.org/2000/svg" name="gid13828" data-unicode="陶"
    viewBox="0 0 1000 1000">
  <!--
© 2017-2024 Adobe (http://www.adobe.com/).
Noto is a trademark of Google Inc.
This Font Software is licensed under the SIL Open Font License, Version 1.1. This Font Software is distributed on an "AS IS" BASIS, WITHOUT WARRANTIES OR CONDITIONS OF ANY KIND, either express or implied. See the SIL Open Font License for the specific language, permissions and limitations governing your use of this Font Software.
http://scripts.sil.org/OFL
  -->
<path d="M715 571L715 711 618 711 618 512 799 512C813 512 823 507 826 496 796 467 747 429 747 429L704 483 618 483 618 375 762 375C775 375 784 370 787 359 756 329 709 293 709 293L666 346 505 346C515 330 524 314 532 297 553 298 565 290 569 278L478 247C457 326 422 402 385 451L400 461C430 439 459 410 484 375L559 375 559 483 368 483 376 512 559 512 559 711 462 711 462 607C484 603 493 595 496 581L408 572 408 815 419 815C438 815 462 802 462 795L462 741 715 741 715 797 726 797C747 797 770 783 770 776L770 606C792 602 801 594 804 581ZM457 42C421 172 357 297 293 376L308 385C364 342 417 281 461 209L857 209C851 600 838 822 802 860 792 871 785 875 765 875 744 875 685 868 646 865L644 883C681 889 715 899 730 909 742 920 745 938 745 960 788 960 828 945 855 911 899 852 914 640 920 217 942 215 955 209 963 200L885 135 846 180 478 180C494 153 508 124 521 95 543 97 556 88 560 77ZM80 104L80 959 91 959C121 959 142 942 142 937L142 133 265 133C243 209 209 321 185 380 249 453 271 525 271 594 271 631 263 651 246 661 239 665 233 666 222 666 208 666 175 666 156 666L156 681C176 685 195 690 202 697 210 706 214 725 214 746 304 742 337 699 336 608 335 534 303 452 210 377 249 319 306 209 336 149 359 149 373 147 380 139L304 63 262 104 155 104 80 71Z"/>
</svg>