<svg xmlns="http://www.w3.org/2000/svg" name="gid13841" data-unicode="隅"
    viewBox="0 0 1000 1000">
  <!--
© 2017-2024 Adobe (http://www.adobe.com/).
Noto is a trademark of Google Inc.
This Font Software is licensed under the SIL Open Font License, Version 1.1. This Font Software is distributed on an "AS IS" BASIS, WITHOUT WARRANTIES OR CONDITIONS OF ANY KIND, either express or implied. See the SIL Open Font License for the specific language, permissions and limitations governing your use of this Font Software.
http://scripts.sil.org/OFL
  -->
<path d="M478 277L617 277 617 389 478 389ZM823 277L823 389 677 389 677 277ZM478 248L478 133 617 133 617 248ZM823 248L677 248 677 133 823 133ZM479 721L516 804C525 802 535 795 540 783 636 760 711 741 766 726 772 750 776 774 776 795 827 848 890 729 739 617L726 622C738 645 751 675 760 705L677 711 677 562 864 562 864 859C864 874 859 879 843 879 820 879 727 872 727 872L727 889C768 893 792 902 806 912 820 922 825 939 827 958 915 949 925 917 925 867L925 574C945 571 962 562 968 555L886 494 854 532 677 532 677 419 823 419 823 464 833 464C862 464 886 449 886 444L886 138C905 134 916 129 923 121L851 66 820 105 489 105 417 73 417 476 427 476C458 476 478 461 478 457L478 419 617 419 617 532 448 532 375 501 375 957 384 957C415 957 436 941 436 936L436 562 617 562 617 714C558 718 509 720 479 721ZM86 104L86 959 97 959C127 959 148 942 148 937L148 133 272 133C250 211 215 325 192 387 254 462 276 537 276 607 276 645 267 667 251 677 244 681 237 682 227 682 214 682 181 682 163 682L163 698C182 701 201 705 208 713 216 721 220 742 220 763 310 759 342 715 342 621 341 546 308 462 217 384 256 324 314 211 344 150 367 149 381 147 388 139L311 63 269 104 160 104 86 71Z"/>
</svg>