<svg xmlns="http://www.w3.org/2000/svg"
    viewBox="0 0 1000 1000">
  <!--
© 2017-2023 Adobe (http://www.adobe.com/).
Noto is a trademark of Google Inc.
This Font Software is licensed under the SIL Open Font License, Version 1.1. This Font Software is distributed on an "AS IS" BASIS, WITHOUT WARRANTIES OR CONDITIONS OF ANY KIND, either express or implied. See the SIL Open Font License for the specific language, permissions and limitations governing your use of this Font Software.
http://scripts.sil.org/OFL
  -->
<path d="M478 247L617 247 617 359 478 359ZM823 247L823 359 677 359 677 247ZM478 218L478 103 617 103 617 218ZM823 218L677 218 677 103 823 103ZM479 691L516 774C525 772 535 765 540 753 636 730 711 711 766 696 772 720 776 744 776 765 827 818 890 699 739 587L726 592C738 615 751 645 760 675L677 681 677 532 864 532 864 829C864 844 859 849 843 849 820 849 727 842 727 842L727 859C768 863 792 872 806 882 820 892 825 909 827 928 915 919 925 887 925 837L925 544C945 541 962 532 968 525L886 464 854 502 677 502 677 389 823 389 823 434 833 434C862 434 886 419 886 414L886 108C905 104 916 99 923 91L851 36 820 75 489 75 417 43 417 446 427 446C458 446 478 431 478 427L478 389 617 389 617 502 448 502 375 471 375 927 384 927C415 927 436 911 436 906L436 532 617 532 617 684C558 688 509 690 479 691ZM86 74L86 929 97 929C127 929 148 912 148 907L148 103 272 103C250 181 215 295 192 357 254 432 276 507 276 577 276 615 267 637 251 647 244 651 237 652 227 652 214 652 181 652 163 652L163 668C182 671 201 675 208 683 216 691 220 712 220 733 310 729 342 685 342 591 341 516 308 432 217 354 256 294 314 181 344 120 367 119 381 117 388 109L311 33 269 74 160 74 86 41Z"/>
</svg>