<svg xmlns="http://www.w3.org/2000/svg"
    viewBox="0 0 1000 1000">
  <!--
© 2017-2024 Adobe (http://www.adobe.com/).
Noto is a trademark of Google Inc.
This Font Software is licensed under the SIL Open Font License, Version 1.1. This Font Software is distributed on an "AS IS" BASIS, WITHOUT WARRANTIES OR CONDITIONS OF ANY KIND, either express or implied. See the SIL Open Font License for the specific language, permissions and limitations governing your use of this Font Software.
http://scripts.sil.org/OFL
  -->
<path d="M595 10C588 46 577 97 569 133L449 133 378 103 307 33 265 75 156 75 82 42 82 930 93 930C123 930 144 912 144 907L144 103 268 103C246 178 212 288 188 346 251 417 273 487 273 555 273 591 265 612 250 619 242 624 236 625 225 625 211 625 179 625 160 625L160 641C181 644 199 649 206 657 214 665 218 686 218 706 309 702 340 660 340 569 340 496 306 417 213 343 253 287 310 178 340 121 357 120 369 119 376 114L376 547 385 547C418 547 438 533 438 528L438 489 493 489C489 642 469 793 262 911L276 927C521 816 551 658 561 489L626 489 626 845C626 893 641 909 712 909L803 909C941 909 969 896 969 869 969 855 964 847 942 841L939 764 927 764C918 798 908 831 901 839 897 845 892 847 884 848 872 849 842 849 806 849L723 849C692 849 688 844 688 828L688 489 822 489 822 535 833 535C861 535 886 520 886 515L886 167C906 163 917 158 923 150L851 95 819 133 602 133 666 55C686 54 699 47 703 33ZM438 325L596 325 596 460 438 460ZM438 295L438 162 596 162 596 295ZM822 325L822 460 658 460 658 325ZM822 295L658 295 658 162 822 162ZM852 633L840 641C851 654 863 670 872 688L772 700C793 662 814 618 828 584 849 586 861 577 865 566L785 539C775 588 759 655 744 703L705 707 736 771C745 769 752 764 757 750 809 734 851 720 881 708 887 722 890 737 891 750 936 790 986 696 852 633Z"/>
</svg>