<svg xmlns="http://www.w3.org/2000/svg"
    viewBox="0 0 1000 1000">
  <!--
© 2017-2023 Adobe (http://www.adobe.com/).
Noto is a trademark of Google Inc.
This Font Software is licensed under the SIL Open Font License, Version 1.1. This Font Software is distributed on an "AS IS" BASIS, WITHOUT WARRANTIES OR CONDITIONS OF ANY KIND, either express or implied. See the SIL Open Font License for the specific language, permissions and limitations governing your use of this Font Software.
http://scripts.sil.org/OFL
  -->
<path d="M756 73L746 83C802 125 877 201 899 260 970 300 1005 151 756 73ZM756 651L745 659C800 712 872 800 892 868 970 920 1019 755 756 651ZM481 70C452 133 390 223 327 281L339 293C418 250 493 181 535 127 557 131 566 127 572 117ZM467 648C433 718 362 813 286 872L297 884C389 839 474 765 521 703 544 708 552 703 558 693ZM476 449L814 449 814 557 476 557ZM476 420L476 318 814 318 814 420ZM616 19L616 288 488 288 416 258 416 643 425 643C456 643 476 628 476 624L476 586 615 586 615 832C615 844 611 849 596 849 580 849 503 843 503 843L503 859C540 863 560 870 571 880 581 891 585 908 587 926 666 918 677 883 677 833L677 586 814 586 814 634 823 634C852 634 876 619 876 615L876 322C896 319 906 313 912 305L842 251 811 288 678 288 678 57C703 54 712 44 714 30ZM81 74L81 929 92 929C122 929 143 912 143 907L143 103 273 103C250 182 211 296 184 359 256 434 280 510 280 580 280 617 271 640 253 649 244 654 238 655 227 655 212 655 176 655 154 655L154 671C177 674 197 679 204 685 212 695 217 716 217 738 314 733 348 688 347 595 347 519 311 434 210 356 252 296 315 182 347 121 371 120 384 117 392 110L313 32 270 74 156 74 81 41Z"/>
</svg>