<svg xmlns="http://www.w3.org/2000/svg"
    viewBox="0 0 1000 1000">
  <!--
© 2017-2023 Adobe (http://www.adobe.com/).
Noto is a trademark of Google Inc.
This Font Software is licensed under the SIL Open Font License, Version 1.1. This Font Software is distributed on an "AS IS" BASIS, WITHOUT WARRANTIES OR CONDITIONS OF ANY KIND, either express or implied. See the SIL Open Font License for the specific language, permissions and limitations governing your use of this Font Software.
http://scripts.sil.org/OFL
  -->
<path d="M472 285L480 314 768 314C782 314 792 309 794 298 765 271 720 234 720 234L680 285ZM642 63C699 181 804 282 922 348 928 320 944 295 972 286L972 272C848 228 727 147 657 53 682 50 691 46 694 34L578 9C538 124 427 266 309 340L317 355C455 291 578 180 642 63ZM82 75L82 930 93 930C123 930 144 912 144 907L144 103 266 103C245 178 211 288 187 346 250 417 272 487 272 555 272 591 264 612 249 619 241 624 235 625 224 625 210 625 178 625 159 625L159 641C179 644 198 649 205 657 213 665 217 686 217 706 307 702 339 660 339 569 339 496 305 417 212 343 251 287 309 178 338 121 361 120 376 118 382 109L305 33 263 75 156 75 82 42ZM375 393L375 641 384 641C408 641 433 628 433 623L433 593 539 593 539 628 548 628C568 628 597 614 598 608L598 427C612 425 626 418 630 413L563 361 531 393 438 393 375 365ZM433 564L433 422 539 422 539 564ZM662 393L662 641 671 641C695 641 720 628 720 623L720 593 838 593 838 628 847 628C867 628 897 614 898 608L898 428C912 426 925 419 930 413L862 361 831 393 725 393 662 365ZM720 564L720 422 838 422 838 564ZM473 632C446 729 382 845 292 914L302 927C378 888 440 828 483 765 514 793 544 833 553 867 610 904 652 792 496 746 510 724 522 702 532 681 555 682 564 677 568 666ZM754 632C730 732 670 850 577 917L585 931C662 894 722 834 764 771 818 811 876 870 897 918 965 953 995 819 776 753 791 728 804 704 814 680 838 681 845 675 849 664Z"/>
</svg>