<svg xmlns="http://www.w3.org/2000/svg" name="gid13875" data-unicode="隱"
    viewBox="0 0 1000 1000">
  <!--
© 2017-2024 Adobe (http://www.adobe.com/).
Noto is a trademark of Google Inc.
This Font Software is licensed under the SIL Open Font License, Version 1.1. This Font Software is distributed on an "AS IS" BASIS, WITHOUT WARRANTIES OR CONDITIONS OF ANY KIND, either express or implied. See the SIL Open Font License for the specific language, permissions and limitations governing your use of this Font Software.
http://scripts.sil.org/OFL
  -->
<path d="M397 735C396 785 362 834 330 853 312 865 302 884 310 901 321 920 355 916 374 901 403 876 432 820 415 736ZM588 134L576 140C592 168 612 210 615 245 662 290 728 199 588 134ZM577 697L567 705C603 735 650 786 667 825 727 857 760 740 577 697ZM778 121L767 129C816 168 880 236 899 288 964 326 1000 194 778 121ZM803 724L791 732C834 771 886 836 898 887 962 931 1008 799 803 724ZM473 722L473 885C473 929 486 942 559 942L664 942C813 942 840 932 840 905 840 893 834 887 815 880L811 806 799 806C791 838 781 869 775 879 771 886 766 887 756 888 745 889 708 889 667 889L570 889C535 889 532 887 532 874L532 756C549 753 558 744 560 732ZM82 104L82 959 93 959C123 959 144 942 144 937L144 133 269 133C247 208 211 319 186 378 254 450 278 522 278 590 278 626 269 647 252 655 244 661 237 662 227 662 212 662 177 662 157 662L157 677C178 680 197 686 205 693 213 701 217 722 217 742 310 738 344 695 344 604 343 532 309 450 211 375 252 318 310 208 341 149 365 149 378 147 385 139L309 63 267 104 156 104 82 71ZM412 645L421 674 791 674 791 709 801 709C821 709 852 696 853 689L853 579 948 579C962 579 971 575 973 564 946 537 899 501 899 501L861 550 853 550 853 495C871 491 886 484 893 477L817 419 782 456 413 456 422 485 791 485 791 550 367 550 374 579 791 579 791 645ZM382 373L390 401 909 401C923 401 932 396 935 385 907 359 864 325 864 325L825 373 675 373 675 303 850 303C863 303 872 298 875 287 848 261 806 228 806 228L769 273 429 273 437 303 613 303 613 373ZM801 42C736 66 621 96 514 115L441 85C411 175 365 263 319 317L334 327C393 284 452 216 497 139 507 141 516 139 522 136 641 131 761 115 836 101 853 107 867 107 873 100Z"/>
</svg>