<svg xmlns="http://www.w3.org/2000/svg" name="gid13895" data-unicode="雋"
    viewBox="0 0 1000 1000">
  <!--
© 2017-2024 Adobe (http://www.adobe.com/).
Noto is a trademark of Google Inc.
This Font Software is licensed under the SIL Open Font License, Version 1.1. This Font Software is distributed on an "AS IS" BASIS, WITHOUT WARRANTIES OR CONDITIONS OF ANY KIND, either express or implied. See the SIL Open Font License for the specific language, permissions and limitations governing your use of this Font Software.
http://scripts.sil.org/OFL
  -->
<path d="M469 205L469 283 256 283 256 205ZM268 40C209 175 116 299 34 372L46 384C95 354 145 315 191 268L191 586 202 586C235 586 256 570 256 564L256 533 869 533C883 533 892 528 895 517 862 486 810 445 810 445L763 504 535 504 535 421 804 421C818 421 827 416 830 405 799 377 751 339 751 339L707 391 535 391 535 312 803 312C817 312 827 307 829 296 798 268 750 231 750 231L707 283 535 283 535 205 853 205C867 205 877 200 880 189 847 159 795 118 795 118L749 176 489 176C516 149 543 118 562 94 582 95 594 86 598 74L495 46C486 85 470 137 456 176L270 176C289 151 307 125 323 97 346 100 359 92 363 81ZM469 504L256 504 256 421 469 421ZM469 312L469 391 256 391 256 312ZM129 618L129 956 139 956C166 956 193 941 193 935L193 647 361 647 361 847 370 847C391 847 424 834 425 827L425 791 586 791 586 838 597 838C630 838 650 822 650 817L650 647 823 647 823 860C823 874 818 879 801 879 780 879 691 873 691 873L691 889C731 894 755 902 768 912 781 922 785 938 788 958 877 949 888 917 888 868L888 659C907 656 924 648 930 640L846 577 813 618 663 618 586 585 586 762 425 762 425 656C442 653 457 646 462 639L386 581 352 618 197 618 129 587Z"/>
</svg>