<svg xmlns="http://www.w3.org/2000/svg" name="gid13905" data-unicode="雚"
    viewBox="0 0 1000 1000">
  <!--
© 2017-2024 Adobe (http://www.adobe.com/).
Noto is a trademark of Google Inc.
This Font Software is licensed under the SIL Open Font License, Version 1.1. This Font Software is distributed on an "AS IS" BASIS, WITHOUT WARRANTIES OR CONDITIONS OF ANY KIND, either express or implied. See the SIL Open Font License for the specific language, permissions and limitations governing your use of this Font Software.
http://scripts.sil.org/OFL
  -->
<path d="M60 134L67 164 331 164 331 237 341 237C368 237 394 227 394 220L394 164 604 164 604 234 615 234C646 233 668 222 668 216L668 164 918 164C932 164 942 159 944 148 912 117 860 77 860 77L813 134 668 134 668 74C693 71 702 61 704 48L604 38 604 134 394 134 394 74C419 71 428 61 430 48L331 38 331 134ZM481 544L481 630 280 630 280 544ZM542 249L542 428 497 418C490 446 478 487 468 516L292 516 281 511C297 490 312 469 324 448 349 450 357 446 361 436L266 409C224 512 137 635 51 705L63 716C117 684 169 639 215 591L215 959 226 959C258 959 280 941 280 936L280 901 912 901C927 901 936 896 939 885 907 857 858 822 858 822L815 871 544 871 544 779 828 779C841 779 850 774 853 763 824 736 779 704 779 704L740 749 544 749 544 659 821 659C834 659 844 654 847 644 818 617 772 584 772 584L733 630 544 630 544 544 861 544C875 544 884 539 887 528 855 501 806 466 806 466L762 516 510 516 560 460C579 460 593 453 597 440L576 435C590 431 600 425 600 422L600 403 761 403 761 435 771 435C792 435 821 419 822 411L822 283C837 281 850 274 854 268L786 216 754 249 605 249 542 220ZM481 871L280 871 280 779 481 779ZM481 659L481 749 280 749 280 659ZM172 249L172 450 181 450C205 450 231 437 231 432L231 403 397 403 397 432 406 432C427 432 455 416 456 408L456 283C469 280 483 274 487 268L420 217 389 249 236 249 172 220ZM397 374L231 374 231 278 397 278ZM761 374L600 374 600 278 761 278Z"/>
</svg>