<svg xmlns="http://www.w3.org/2000/svg" name="gid13916" data-unicode="雫"
    viewBox="0 0 1000 1000">
  <!--
© 2017-2024 Adobe (http://www.adobe.com/).
Noto is a trademark of Google Inc.
This Font Software is licensed under the SIL Open Font License, Version 1.1. This Font Software is distributed on an "AS IS" BASIS, WITHOUT WARRANTIES OR CONDITIONS OF ANY KIND, either express or implied. See the SIL Open Font License for the specific language, permissions and limitations governing your use of this Font Software.
http://scripts.sil.org/OFL
  -->
<path d="M196 333L204 363 398 363C411 363 420 358 423 347 397 323 359 295 359 295L324 333ZM163 444L170 473 402 473C415 473 424 468 427 457 401 433 360 403 360 403L326 444ZM572 333L580 363 769 363C783 363 793 358 795 347 769 323 729 294 729 294L694 333ZM572 444L580 473 810 473C824 473 833 468 836 457 808 432 765 402 765 402L729 444ZM51 565L60 594 464 594 464 959 474 959C508 959 529 944 529 940L529 676C662 722 759 791 801 839 880 870 902 701 529 654L529 594 923 594C938 594 947 589 950 578 916 549 863 510 863 510L817 565ZM132 101L141 130 465 130 465 219 160 219C157 205 153 191 148 176L131 177C138 239 108 297 70 318 50 329 36 349 44 371 55 392 89 392 113 377 142 357 168 314 164 248L465 248 465 524 475 524C508 524 529 509 529 505L529 248 850 248C840 285 826 332 814 362L827 369C862 341 905 294 929 260 948 259 960 257 966 249L888 174 847 219 529 219 529 130 855 130C869 130 880 125 882 115 848 85 794 45 794 45L747 101Z"/>
</svg>