<svg xmlns="http://www.w3.org/2000/svg"
    viewBox="0 0 1000 1000">
  <!--
© 2017-2023 Adobe (http://www.adobe.com/).
Noto is a trademark of Google Inc.
This Font Software is licensed under the SIL Open Font License, Version 1.1. This Font Software is distributed on an "AS IS" BASIS, WITHOUT WARRANTIES OR CONDITIONS OF ANY KIND, either express or implied. See the SIL Open Font License for the specific language, permissions and limitations governing your use of this Font Software.
http://scripts.sil.org/OFL
  -->
<path d="M185 227L193 257 387 257C400 257 410 252 412 241 388 218 352 192 352 192L320 227ZM168 306L175 335 392 335C405 335 415 330 417 319 393 297 358 270 358 270L325 306ZM576 227L584 257 785 257C799 257 807 252 810 241 785 217 748 190 748 190L715 227ZM575 306L583 335 809 335C822 335 831 330 834 319 808 296 769 268 769 268L735 306ZM134 66L143 95 465 95 465 150 158 150C156 140 154 130 150 119L133 120C136 163 109 201 75 214 55 223 42 241 49 262 57 285 89 287 111 275 137 261 161 229 161 180L465 180 465 345 475 345C507 345 529 332 529 328L529 180 840 180C832 206 820 237 810 257L824 265C852 246 891 215 910 190 930 189 941 187 948 180L878 111 839 150 529 150 529 95 844 95C858 95 868 90 870 80 837 50 785 14 785 14L741 66ZM243 348L243 407 68 407 76 436 151 436C165 458 178 492 178 522 182 526 186 528 190 530L49 530 57 559 503 559C516 559 526 554 528 544 500 518 457 486 457 486L419 530 342 530C362 511 381 489 395 472 416 472 428 464 432 452L374 436 478 436C492 436 501 431 504 420 475 395 432 363 432 363L393 407 306 407 306 380C324 376 331 368 332 357ZM176 436L340 436C334 466 324 503 315 530L217 530C243 519 250 471 176 436ZM824 500L824 553 611 553 546 525 549 525C572 525 600 513 600 507L600 500ZM537 553L537 856C537 906 552 921 634 921L749 921C912 921 945 911 945 882 945 869 937 864 914 856L911 796 900 796C892 823 882 849 874 856 870 861 863 863 853 863 839 864 799 864 752 864L644 864C603 864 599 860 599 845L599 812 868 812C881 812 890 807 893 796 869 772 831 743 831 743L799 783 599 783 599 735 850 735C863 735 872 730 875 719 851 696 815 667 815 667L782 706 599 706 599 659 849 659C862 659 871 654 874 643 860 628 840 612 829 602L834 602C853 602 886 590 887 583L887 504C900 501 911 495 916 489L849 439 817 471 600 471 600 428 915 428C929 428 938 423 941 413 911 385 864 347 864 347L822 399 600 399 600 386C622 383 631 374 632 361L537 352ZM824 582L824 598 815 591 783 629 599 629 599 582ZM383 713L383 767 178 767 178 713ZM383 683L178 683 178 636 383 636ZM115 607L115 931 125 931C151 931 178 917 178 910L178 796 383 796 383 843C383 855 379 861 365 861 347 861 281 856 281 856L281 871C313 875 331 882 342 890 353 899 356 913 358 930 436 922 445 895 445 848L445 648C465 645 482 636 488 629L406 568 373 607 183 607 115 576Z"/>
</svg>