<svg xmlns="http://www.w3.org/2000/svg" name="gid13982" data-unicode="靗"
    viewBox="0 0 1000 1000">
  <!--
© 2017-2024 Adobe (http://www.adobe.com/).
Noto is a trademark of Google Inc.
This Font Software is licensed under the SIL Open Font License, Version 1.1. This Font Software is distributed on an "AS IS" BASIS, WITHOUT WARRANTIES OR CONDITIONS OF ANY KIND, either express or implied. See the SIL Open Font License for the specific language, permissions and limitations governing your use of this Font Software.
http://scripts.sil.org/OFL
  -->
<path d="M846 105C822 196 790 305 766 374L783 381C826 320 873 232 910 156 931 157 943 148 947 136ZM496 113L482 117C511 182 543 283 539 360 599 423 664 271 496 113ZM657 44L657 439 457 439 465 468 576 468C573 629 561 803 424 944L439 960C615 826 638 644 645 468L727 468 727 874C727 918 737 935 794 935L846 935C939 935 964 922 964 896 964 882 960 874 940 867L937 746 924 746C915 794 904 851 898 863 895 871 892 872 886 873 879 874 866 874 848 874L811 874C793 874 791 870 791 856L791 468 936 468C951 468 960 463 963 452 930 422 878 381 878 381L833 439 718 439 718 79C740 76 749 67 751 53ZM226 43L226 149 54 149 62 178 226 178 226 256 75 256 83 286 226 286 226 378 41 378 49 407 477 407C491 407 499 402 502 391 471 362 421 323 421 323L377 378 290 378 290 286 435 286C449 286 458 281 461 270 433 244 389 208 389 208L352 256 290 256 290 178 459 178C473 178 482 173 485 162 454 133 404 94 404 94L360 149 290 149 290 81C313 77 323 67 325 53ZM232 680L151 680 151 511 232 511ZM285 680L285 511 369 511 369 680ZM92 481L92 956 101 956C127 956 151 940 151 934L151 710 369 710 369 867C369 880 365 885 352 885 335 885 266 879 266 879L266 895C299 899 317 906 328 916 338 925 342 941 344 958 421 950 431 921 431 872L431 522C451 519 468 511 474 504L391 442 359 481 156 481 92 451Z"/>
</svg>