<svg xmlns="http://www.w3.org/2000/svg" name="gid14004" data-unicode="靴"
    viewBox="0 0 1000 1000">
  <!--
© 2017-2024 Adobe (http://www.adobe.com/).
Noto is a trademark of Google Inc.
This Font Software is licensed under the SIL Open Font License, Version 1.1. This Font Software is distributed on an "AS IS" BASIS, WITHOUT WARRANTIES OR CONDITIONS OF ANY KIND, either express or implied. See the SIL Open Font License for the specific language, permissions and limitations governing your use of this Font Software.
http://scripts.sil.org/OFL
  -->
<path d="M561 49C540 221 489 410 421 521L437 530C469 493 497 449 522 399L522 956 533 956C557 956 581 939 582 933L582 350C600 348 609 341 613 332L561 312C589 241 611 166 627 94 647 93 659 83 662 70ZM884 243C856 292 797 378 745 445L745 94C770 90 778 79 780 66L683 54 683 866C683 914 698 934 762 934L827 934C938 934 967 924 967 897 967 884 961 877 940 869L937 725 924 725C915 781 902 851 896 864 891 872 888 874 881 875 872 876 853 876 828 876L775 876C749 876 745 868 745 849L745 475C814 422 887 354 925 312 944 319 959 312 964 304ZM36 726L43 755 214 755 214 958 223 958C253 958 274 942 274 938L274 755 447 755C460 755 470 750 472 739 443 711 397 674 397 674L357 726 274 726 274 614 355 614 355 654 363 654C382 654 413 642 414 636L414 446C430 443 443 437 449 430L378 376 346 410 273 410 273 318 306 318 306 343 317 343C339 343 365 330 365 323L365 192 462 192C476 192 485 187 487 177 461 150 418 113 418 113L379 164 365 164 365 76C386 73 394 65 396 52L306 44 306 164 185 164 185 76C206 73 214 64 216 52L127 43 127 164 40 164 48 192 127 192 127 356 138 356C160 356 185 343 185 335L185 318 214 318 214 410 136 410 73 382 73 664 82 664C106 664 131 651 131 645L131 614 214 614 214 726ZM185 192L306 192 306 289 185 289ZM131 584L131 440 216 440 216 584ZM355 584L271 584 271 440 355 440Z"/>
</svg>