<svg xmlns="http://www.w3.org/2000/svg"
    viewBox="0 0 1000 1000">
  <!--
© 2017-2023 Adobe (http://www.adobe.com/).
Noto is a trademark of Google Inc.
This Font Software is licensed under the SIL Open Font License, Version 1.1. This Font Software is distributed on an "AS IS" BASIS, WITHOUT WARRANTIES OR CONDITIONS OF ANY KIND, either express or implied. See the SIL Open Font License for the specific language, permissions and limitations governing your use of this Font Software.
http://scripts.sil.org/OFL
  -->
<path d="M656 14L656 197 444 197 452 226 656 226 656 408 468 408 476 437 621 437C576 582 494 721 380 821L393 836C509 755 597 652 656 532L656 927 669 927C694 927 721 911 721 901L721 473C762 601 830 728 915 809 922 780 945 760 978 750L981 738C886 672 782 558 734 437L926 437C940 437 949 432 952 421 923 393 876 354 876 354L835 408 721 408 721 226 943 226C957 226 965 221 967 210 939 182 891 143 891 143L849 197 721 197 721 50C743 46 751 37 753 24ZM37 694L45 724 221 724 221 926 231 926C263 926 284 910 284 905L284 724 449 724C463 724 472 719 475 708 444 680 396 642 396 642L353 694 284 694 284 583 369 583 369 623 378 623C398 623 429 611 430 605L430 414C446 411 461 403 467 396L393 340 360 375 284 375 284 289 315 289 315 322 327 322C351 322 377 308 377 301L377 158 476 158C490 158 499 153 502 142 478 115 437 77 437 77L400 129 377 129 377 48C399 45 408 36 410 23L315 14 315 129 189 129 189 47C211 44 220 35 221 22L127 13 127 129 46 129 54 158 127 158 127 331 139 331C163 331 189 318 189 310L189 289 221 289 221 375 144 375 79 345 79 637 88 637C112 637 139 622 139 617L139 583 221 583 221 694ZM189 158L315 158 315 260 189 260ZM139 554L139 405 224 405 224 554ZM369 554L281 554 281 405 369 405Z"/>
</svg>