<svg xmlns="http://www.w3.org/2000/svg"
    viewBox="0 0 1000 1000">
  <!--
© 2017-2023 Adobe (http://www.adobe.com/).
Noto is a trademark of Google Inc.
This Font Software is licensed under the SIL Open Font License, Version 1.1. This Font Software is distributed on an "AS IS" BASIS, WITHOUT WARRANTIES OR CONDITIONS OF ANY KIND, either express or implied. See the SIL Open Font License for the specific language, permissions and limitations governing your use of this Font Software.
http://scripts.sil.org/OFL
  -->
<path d="M479 264L479 928 489 928C516 928 540 912 540 904L540 638 547 645C638 583 682 502 704 421 743 472 788 540 802 590 860 634 904 516 710 396 717 361 721 326 723 293L860 293 860 822C860 836 855 843 838 843 818 843 725 835 725 835L725 851C766 857 790 866 804 876 817 887 821 905 824 926 912 917 922 883 922 830L922 304C942 301 959 292 965 284L883 223 850 264 724 264 724 242 724 110 938 110C952 110 962 105 965 94 933 65 882 25 882 25L837 81 465 81 473 110 661 110 661 242 661 264 545 264 479 232ZM540 628L540 293 660 293C656 403 634 525 540 628ZM43 696L51 725 217 725 217 927 226 927C257 927 277 911 277 906L277 725 440 725C454 725 463 720 466 709 437 681 390 644 390 644L350 696 277 696 277 586 359 586 359 627 368 627C387 627 417 614 418 608L418 413C435 410 449 402 455 395L383 341 351 375 277 375 277 286 305 286 305 322 316 322C338 322 364 308 364 301L364 158 465 158C478 158 488 153 490 142 464 115 421 80 421 80L384 129 364 129 364 46C384 43 393 34 395 22L305 13 305 129 192 129 192 46C213 43 221 34 223 22L134 13 134 129 39 129 47 158 134 158 134 332 145 332C167 332 192 318 192 311L192 286 217 286 217 375 143 375 80 346 80 636 89 636C113 636 138 623 138 617L138 586 217 586 217 696ZM192 158L305 158 305 258 192 258ZM138 556L138 405 220 405 220 556ZM359 556L275 556 275 405 359 405Z"/>
</svg>