<svg xmlns="http://www.w3.org/2000/svg" name="gid14026" data-unicode="鞖"
    viewBox="0 0 1000 1000">
  <!--
© 2017-2024 Adobe (http://www.adobe.com/).
Noto is a trademark of Google Inc.
This Font Software is licensed under the SIL Open Font License, Version 1.1. This Font Software is distributed on an "AS IS" BASIS, WITHOUT WARRANTIES OR CONDITIONS OF ANY KIND, either express or implied. See the SIL Open Font License for the specific language, permissions and limitations governing your use of this Font Software.
http://scripts.sil.org/OFL
  -->
<path d="M649 183L635 187C655 238 671 314 665 376 718 438 795 309 649 183ZM791 162L779 169C827 226 886 320 895 392 965 449 1021 287 791 162ZM40 726L48 755 220 755 220 957 230 957C262 957 283 941 283 936L283 755 453 755C467 755 476 750 479 739 448 711 400 673 400 673L357 726 283 726 283 624 369 624 369 655 378 655C397 655 428 642 428 637L428 451C444 448 459 441 465 434L392 379 360 414 283 414 283 319 323 319 323 349 333 349C357 349 384 334 384 326L384 188 475 188C489 188 498 183 501 173 477 146 436 108 436 108L400 159 384 159 384 78C407 75 415 66 417 53L323 44 323 159 180 159 180 77C202 74 211 65 213 52L118 43 118 159 44 159 52 188 118 188 118 358 129 358C153 358 180 343 180 335L180 319 220 319 220 414 139 414 75 385 75 676 84 676C109 676 134 662 134 657L134 624 220 624 220 726ZM180 188L323 188 323 291 180 291ZM134 595L134 444 223 444 223 595ZM369 595L280 595 280 444 369 444ZM849 46C793 72 696 104 604 128L512 107C499 215 468 324 430 399L445 408C503 348 548 257 577 158 682 150 797 130 872 113 895 122 912 123 921 114ZM611 407C602 441 586 491 566 546L431 546 438 575 556 575C528 651 495 730 471 776 498 786 525 786 540 778L557 739C598 757 637 776 671 797 614 860 529 906 406 940L412 958C556 932 653 889 719 826 788 872 838 919 864 955 929 986 962 877 758 783 801 727 826 658 843 575L942 575C956 575 965 570 968 559 937 529 885 488 885 488L840 546 633 546C648 506 660 471 668 446 693 446 703 437 707 423ZM622 575L770 575C757 648 735 709 701 760 662 745 617 732 565 720 583 675 604 623 622 575Z"/>
</svg>