<svg xmlns="http://www.w3.org/2000/svg" name="gid14033" data-unicode="鞞"
    viewBox="0 0 1000 1000">
  <!--
© 2017-2024 Adobe (http://www.adobe.com/).
Noto is a trademark of Google Inc.
This Font Software is licensed under the SIL Open Font License, Version 1.1. This Font Software is distributed on an "AS IS" BASIS, WITHOUT WARRANTIES OR CONDITIONS OF ANY KIND, either express or implied. See the SIL Open Font License for the specific language, permissions and limitations governing your use of this Font Software.
http://scripts.sil.org/OFL
  -->
<path d="M495 160L495 165C471 139 436 107 436 107L400 159 384 159 384 78C407 75 415 66 417 53L323 44 323 159 181 159 181 77C202 74 211 65 213 52L118 43 118 159 44 159 52 188 118 188 118 357 130 357C154 357 181 344 181 336L181 319 221 319 221 414 140 414 75 384 75 675 85 675C109 675 135 661 135 656L135 622 220 622 220 726 41 726 49 755 220 755 220 963 230 963C262 963 283 946 283 941L283 755 453 755C467 755 476 750 479 739L477 737 732 737 732 958 744 958C767 958 794 944 794 936L794 737 945 737C959 737 968 732 971 721 940 691 889 647 889 647L842 708 794 708 794 579C818 575 828 566 830 553L732 542 732 708 547 708C644 654 690 584 711 510L848 510 848 537 857 537C878 537 908 524 909 519L909 200C929 196 945 188 951 181L873 121 838 160 675 160C694 137 718 107 734 85 755 84 769 76 772 62L665 41C658 76 645 127 636 160L560 160 495 129ZM181 188L323 188 323 291 181 291ZM464 708L470 731C440 705 400 673 400 673L357 726 283 726 283 622 368 622 368 655 377 655C397 655 428 642 429 637L429 452C446 449 461 441 466 435L392 378 360 414 283 414 283 319 323 319 323 348 334 348C358 348 384 334 384 327L384 188 475 188C484 188 491 186 495 180L495 545 504 545C530 545 555 530 555 524L555 510 654 510C634 582 592 650 506 708ZM135 593L135 444 223 444 223 593ZM368 593L280 593 280 444 368 444ZM848 348L848 481 718 481C726 442 728 401 728 362L728 348ZM848 318L728 318 728 188 848 188ZM555 348L670 348 670 363C670 403 668 443 660 481L555 481ZM555 318L555 188 670 188 670 318Z"/>
</svg>