<svg xmlns="http://www.w3.org/2000/svg"
    viewBox="0 0 1000 1000">
  <!--
© 2017-2024 Adobe (http://www.adobe.com/).
Noto is a trademark of Google Inc.
This Font Software is licensed under the SIL Open Font License, Version 1.1. This Font Software is distributed on an "AS IS" BASIS, WITHOUT WARRANTIES OR CONDITIONS OF ANY KIND, either express or implied. See the SIL Open Font License for the specific language, permissions and limitations governing your use of this Font Software.
http://scripts.sil.org/OFL
  -->
<path d="M795 31L795 170 703 170 703 49C726 45 736 36 738 23L643 13 643 170 559 170 559 73C581 70 590 61 592 48L499 37 499 170 433 170 441 200 499 200 499 505 511 505C533 505 559 491 559 483L559 468 912 468C926 468 935 463 938 452 908 424 861 386 861 386L819 439 559 439 559 200 643 200 643 376 655 376C677 376 703 363 703 355L703 341 795 341 795 370 806 370C829 370 854 357 854 350L854 200 940 200C953 200 963 195 965 184 940 157 898 121 898 121L862 170 854 170 854 68C879 64 888 55 890 41ZM703 200L795 200 795 312 703 312ZM662 478L662 583 431 583 438 613 620 613C571 715 490 809 387 876L398 891C511 837 600 763 662 672L662 929 675 929C699 929 726 915 726 906L726 613C770 730 841 826 916 885 925 855 945 838 969 834L970 823C892 783 803 704 750 613L933 613C947 613 956 608 959 597 929 568 880 529 880 529L837 583 726 583 726 512C748 509 757 500 759 487ZM43 697L51 727 213 727 213 926 222 926C253 926 273 911 273 906L273 727 444 727C457 727 467 722 469 711 440 683 394 645 394 645L354 697 273 697 273 595 354 595 354 628 363 628C382 628 412 615 413 610L413 421C430 418 444 411 450 404L377 349 345 384 273 384 273 289 310 289 310 315 321 315C343 315 369 302 369 295L369 158 457 158C471 158 480 153 483 142 456 115 414 80 414 80L376 129 369 129 369 46C389 43 398 35 400 22L310 14 310 129 177 129 177 46C197 43 205 34 207 22L118 13 118 129 39 129 47 158 118 158 118 328 129 328C151 328 177 315 177 307L177 289 213 289 213 384 139 384 76 354 76 638 85 638C108 638 134 624 134 619L134 595 213 595 213 697ZM177 158L310 158 310 261 177 261ZM134 565L134 413 215 413 215 565ZM354 565L270 565 270 413 354 413Z"/>
</svg>