<svg xmlns="http://www.w3.org/2000/svg" name="gid14127" data-unicode="頥"
    viewBox="0 0 1000 1000">
  <!--
© 2017-2024 Adobe (http://www.adobe.com/).
Noto is a trademark of Google Inc.
This Font Software is licensed under the SIL Open Font License, Version 1.1. This Font Software is distributed on an "AS IS" BASIS, WITHOUT WARRANTIES OR CONDITIONS OF ANY KIND, either express or implied. See the SIL Open Font License for the specific language, permissions and limitations governing your use of this Font Software.
http://scripts.sil.org/OFL
  -->
<path d="M784 769L773 777C823 819 886 893 904 950 973 994 1014 846 784 769ZM653 764C619 829 545 900 473 942L482 958C568 928 661 872 707 815 724 819 735 817 739 807ZM82 75L82 958 94 958C114 958 139 943 139 934L139 112C163 109 171 99 174 86ZM575 250L575 772 585 772C612 772 636 757 636 750L636 724 852 724 852 764 861 764C883 764 912 748 913 742L913 287C931 284 945 276 951 269L878 212 843 250 719 250C738 219 760 175 777 135L939 135C952 135 962 130 964 120 932 90 880 48 880 48L835 107 540 107 548 135 702 135C699 173 694 218 689 250L641 250 575 218ZM852 424L852 543 636 543 636 424ZM852 395L636 395 636 278 852 278ZM852 573L852 695 636 695 636 573ZM262 388L468 388 468 568 262 568ZM262 359L262 177 351 177 351 359ZM206 148L206 929 215 929C244 929 262 913 262 908L262 858 546 858C559 858 569 853 572 843 541 813 492 773 492 773L448 829 404 829 404 597 468 597 468 649 476 649C494 649 521 636 522 630L522 397C540 393 556 386 563 379L491 324 458 359 405 359 405 177 531 177C545 177 555 172 557 161 528 134 483 97 483 97L442 148 276 148 206 116ZM262 597L351 597 351 829 262 829Z"/>
</svg>