<svg xmlns="http://www.w3.org/2000/svg" name="gid14152" data-unicode="額"
    viewBox="0 0 1000 1000">
  <!--
© 2017-2024 Adobe (http://www.adobe.com/).
Noto is a trademark of Google Inc.
This Font Software is licensed under the SIL Open Font License, Version 1.1. This Font Software is distributed on an "AS IS" BASIS, WITHOUT WARRANTIES OR CONDITIONS OF ANY KIND, either express or implied. See the SIL Open Font License for the specific language, permissions and limitations governing your use of this Font Software.
http://scripts.sil.org/OFL
  -->
<path d="M755 774L744 784C802 823 879 894 903 951 977 989 1008 837 755 774ZM627 769C581 832 488 904 406 946L415 961C511 932 622 877 678 824 695 829 706 828 711 818ZM359 660L359 840 197 840 197 660ZM223 222C187 325 120 432 52 493L66 505C101 483 134 455 164 424 195 438 230 457 265 478 204 556 124 627 32 677L42 693C76 679 108 663 138 646L138 949 148 949C177 949 197 932 197 927L197 868 359 868 359 907 369 907C389 907 420 893 421 886L421 666C436 664 449 657 454 650L384 597 352 631 209 631 181 619C231 586 275 548 312 507 365 541 412 578 438 609 496 627 505 544 346 467 375 431 399 393 418 354 441 353 451 350 459 341L389 278 347 318 246 318C256 303 265 287 273 271 294 272 306 265 309 254ZM122 122C116 186 88 231 55 250 7 313 138 346 144 200L412 200 389 271 402 279C428 262 464 232 484 211 503 210 513 208 521 201L448 130 409 171 312 171 312 87C337 84 347 74 349 60L250 50 250 171 144 171C143 156 141 140 138 123ZM290 443C258 431 221 419 179 408 196 389 212 368 227 347L344 347C330 380 312 412 290 443ZM529 264L529 782 539 782C567 782 591 768 591 760L591 732 840 732 840 769 849 769C871 769 901 754 902 747L902 301C920 298 934 291 940 284L865 227 831 264 691 264C712 233 735 188 754 148L938 148C952 148 962 143 964 132 931 102 877 59 877 59L829 119 482 119 490 148 678 148C674 187 667 232 660 264L596 264 529 232ZM840 437L840 554 591 554 591 437ZM840 407L591 407 591 293 840 293ZM840 583L840 703 591 703 591 583Z"/>
</svg>