<svg xmlns="http://www.w3.org/2000/svg" name="gid14171" data-unicode="顧"
    viewBox="0 0 1000 1000">
  <!--
© 2017-2024 Adobe (http://www.adobe.com/).
Noto is a trademark of Google Inc.
This Font Software is licensed under the SIL Open Font License, Version 1.1. This Font Software is distributed on an "AS IS" BASIS, WITHOUT WARRANTIES OR CONDITIONS OF ANY KIND, either express or implied. See the SIL Open Font License for the specific language, permissions and limitations governing your use of this Font Software.
http://scripts.sil.org/OFL
  -->
<path d="M776 768L765 775C815 819 880 894 900 950 972 994 1015 846 776 768ZM640 763C603 825 528 898 458 945L468 959C551 926 643 867 690 814 707 818 717 816 722 807ZM563 255L563 773 572 773C599 773 623 759 623 751L623 725 846 725 846 765 855 765C877 765 906 749 907 743L907 293C924 289 939 282 944 275L872 219 837 255 719 255C737 220 757 174 772 137L941 137C954 137 964 132 966 121 934 91 882 50 882 50L837 108 523 108 529 130C498 102 449 64 449 64L404 119 51 119 59 148 505 148C517 148 528 144 530 133L531 137 699 137C697 173 692 219 687 255L628 255 563 225ZM420 264L420 367 160 367 160 264ZM102 235L102 399C102 567 99 763 32 929L48 939C100 860 128 767 143 675L146 677C158 665 170 651 182 636L182 949 191 949C220 949 239 934 239 930L239 877 530 877C544 877 553 872 555 861 528 835 485 801 485 801L447 848 383 848 383 768 506 768C519 768 528 763 531 752 508 728 472 698 472 698L441 738 383 738 383 661 498 661C511 661 520 656 522 646 500 622 464 592 464 592L434 632 383 632 383 556 506 556C519 556 528 551 531 540 506 515 466 484 466 484L432 526 363 526C381 508 399 488 412 470 433 470 445 461 448 449L360 429C353 457 342 497 333 526L249 526C258 507 267 487 275 467 296 468 307 459 311 448L224 421C206 498 179 576 148 635 159 549 160 466 160 399L160 396 420 396 420 427 429 427C449 427 480 413 481 407L481 275C500 272 516 264 522 256L444 198 411 235 173 235 102 203ZM239 556L327 556 327 632 239 632ZM239 661L327 661 327 738 239 738ZM239 768L327 768 327 848 239 848ZM846 429L846 546 623 546 623 429ZM846 399L623 399 623 285 846 285ZM846 575L846 696 623 696 623 575Z"/>
</svg>