<svg xmlns="http://www.w3.org/2000/svg"
    viewBox="0 0 1000 1000">
  <!--
© 2017-2024 Adobe (http://www.adobe.com/).
Noto is a trademark of Google Inc.
This Font Software is licensed under the SIL Open Font License, Version 1.1. This Font Software is distributed on an "AS IS" BASIS, WITHOUT WARRANTIES OR CONDITIONS OF ANY KIND, either express or implied. See the SIL Open Font License for the specific language, permissions and limitations governing your use of this Font Software.
http://scripts.sil.org/OFL
  -->
<path d="M520 75L74 75 82 104 457 104 457 334 246 334 169 301 169 488C169 632 153 787 39 915L52 928C218 803 234 621 234 488L234 363 764 363C765 582 778 810 871 895 899 923 939 941 959 918 969 906 965 888 946 860L959 730 946 727C938 760 928 792 918 820 914 832 910 833 901 826 839 765 826 534 832 374 851 371 865 365 872 358L793 293 755 334 490 334C509 329 520 319 520 316L520 172C639 196 743 240 789 273 858 288 867 152 520 153L520 104 909 104C924 104 934 99 937 88 902 57 849 15 849 15L801 75ZM660 380C570 408 403 438 266 448L270 468C332 468 398 466 461 462L461 540 359 540 297 511 297 750 305 750C328 750 354 738 354 733L354 706 461 706 461 828C356 832 268 834 217 835L256 915C266 913 276 906 282 894 456 873 586 856 679 841 700 866 716 892 723 916 789 959 830 819 607 753L596 763C617 778 640 798 661 821L522 826 522 706 631 706 631 739 640 739C659 739 689 726 690 720L690 574C704 572 717 565 722 558L655 507 623 540 522 540 522 458C579 453 632 447 675 440 695 449 713 450 722 443ZM354 678L354 568 461 568 461 678ZM631 678L522 678 522 568 631 568Z"/>
</svg>