<svg xmlns="http://www.w3.org/2000/svg" name="gid14194" data-unicode="颻"
    viewBox="0 0 1000 1000">
  <!--
© 2017-2024 Adobe (http://www.adobe.com/).
Noto is a trademark of Google Inc.
This Font Software is licensed under the SIL Open Font License, Version 1.1. This Font Software is distributed on an "AS IS" BASIS, WITHOUT WARRANTIES OR CONDITIONS OF ANY KIND, either express or implied. See the SIL Open Font License for the specific language, permissions and limitations governing your use of this Font Software.
http://scripts.sil.org/OFL
  -->
<path d="M624 390L663 390 663 643 624 643ZM526 862L561 938C570 935 578 929 583 916 669 889 736 865 785 848 792 874 797 901 797 924 844 972 899 860 759 746L745 752C757 774 769 801 779 831L713 839 713 672 754 672 754 709 759 709C775 709 797 697 798 691L798 393C812 390 825 383 829 378L772 333 746 361 713 361 713 232C739 226 763 220 782 214 802 222 819 222 827 214L761 156C717 183 627 222 554 241L559 257C591 254 626 249 660 243L660 361 635 361 579 334 579 734 585 734C608 734 624 721 624 716L624 672 660 672 660 846C603 854 554 860 526 862ZM754 390L754 643 710 643 710 390ZM487 107L487 447C487 626 481 809 394 948L411 959C536 820 543 616 543 446L543 136 838 136C834 424 828 753 882 887 901 933 932 969 962 954 975 947 971 928 957 888L976 718 964 715C956 748 946 785 933 828 928 843 925 844 920 830 885 729 882 385 895 152 918 149 933 142 940 135L864 68 828 107 554 107 487 76ZM251 42C211 114 124 203 36 255L46 269C108 245 168 209 217 170L374 170C355 201 333 229 309 255 310 231 284 196 201 184L191 193C221 211 255 246 266 275 273 279 279 280 285 280 265 300 243 318 220 335 236 313 221 262 127 236L115 245C142 266 173 308 180 339 189 345 198 347 205 346 158 379 104 407 44 432L56 447C99 434 138 419 174 402 151 458 110 526 65 571L77 584C117 559 156 524 187 488L228 488 228 593 55 593 63 623 228 623 228 836 151 836 151 701C171 698 178 689 180 678L95 668 95 934 106 934C126 934 151 921 151 914L151 865 358 865 358 905 369 905C389 905 414 892 414 885L414 699C433 696 439 689 441 678L358 668 358 836 285 836 285 623 448 623C462 623 471 618 473 607 447 580 404 546 404 546L366 593 285 593 285 488 419 488C432 488 440 483 443 472 416 446 375 414 375 414L340 458 212 458C223 444 232 430 240 417 262 418 269 414 275 403L215 382C314 329 386 261 444 177 466 176 479 172 487 165L419 108 385 141 251 141C271 123 288 105 301 88 323 91 331 86 336 76Z"/>
</svg>