<svg xmlns="http://www.w3.org/2000/svg"
    viewBox="0 0 1000 1000">
  <!--
© 2017-2024 Adobe (http://www.adobe.com/).
Noto is a trademark of Google Inc.
This Font Software is licensed under the SIL Open Font License, Version 1.1. This Font Software is distributed on an "AS IS" BASIS, WITHOUT WARRANTIES OR CONDITIONS OF ANY KIND, either express or implied. See the SIL Open Font License for the specific language, permissions and limitations governing your use of this Font Software.
http://scripts.sil.org/OFL
  -->
<path d="M813 583L802 589C828 621 860 674 867 715 919 758 973 651 813 583ZM601 575C589 615 574 655 557 687 502 558 500 362 503 102 523 100 536 94 543 86L467 25 436 67 154 67 87 36 87 290C87 489 88 722 24 918L41 927C143 732 143 465 143 289L143 96 446 96 446 184 389 130C337 154 237 187 157 203L163 221C197 219 234 215 270 210L270 337 232 337 179 312 179 651 187 651C207 651 227 640 227 634L227 605 270 605 270 788C213 795 166 801 138 803L172 875C180 872 189 866 194 854 288 827 360 805 413 787 423 817 430 847 431 874 486 927 543 798 377 674L364 679C378 704 394 736 406 768L322 781 322 605 365 605 365 639 371 639C388 639 412 626 413 620L413 368C426 365 436 359 441 354L385 310 359 337 322 337 322 202C353 197 382 191 405 186 423 194 437 195 446 189 450 662 491 897 840 925 910 932 964 934 969 902 972 889 967 880 936 868L943 733 929 732C920 776 905 822 894 849 887 868 880 870 847 868 705 860 620 808 570 714 598 690 624 657 643 621 663 623 675 614 679 605ZM227 576L227 366 273 366 273 576ZM365 576L318 576 318 366 365 366ZM539 67L547 96 660 96 660 178 614 178 556 152 556 402 564 402C585 402 609 390 609 385L609 358 863 358 863 385 828 426 561 426 568 455 901 455C915 455 923 450 926 439 910 422 887 403 873 392 891 392 916 380 917 374L917 213C932 211 945 204 950 197L885 148 855 178 812 178 812 96 932 96C946 96 955 91 958 81 929 53 884 17 884 17L843 67ZM609 329L609 208 660 208 660 329ZM863 329L812 329 812 208 863 208ZM709 329L709 208 761 208 761 329ZM709 178L709 96 761 96 761 178ZM535 517L543 546 708 546 708 710C708 722 705 727 693 727 680 727 623 722 623 722L623 737C652 741 667 747 676 755 685 764 688 779 689 794 756 786 766 756 766 711L766 546 935 546C949 546 958 542 961 531 934 505 892 472 892 472L855 517Z"/>
</svg>