<svg xmlns="http://www.w3.org/2000/svg"
    viewBox="0 0 1000 1000">
  <!--
© 2017-2024 Adobe (http://www.adobe.com/).
Noto is a trademark of Google Inc.
This Font Software is licensed under the SIL Open Font License, Version 1.1. This Font Software is distributed on an "AS IS" BASIS, WITHOUT WARRANTIES OR CONDITIONS OF ANY KIND, either express or implied. See the SIL Open Font License for the specific language, permissions and limitations governing your use of this Font Software.
http://scripts.sil.org/OFL
  -->
<path d="M93 496L100 526 394 526C408 526 418 521 420 510 393 484 352 450 352 450L315 496ZM329 676L318 683C345 714 373 766 374 809 427 856 484 743 329 676ZM110 674C92 744 64 813 35 859L50 870C92 834 131 779 160 720 179 722 190 713 194 701ZM174 241L174 384 128 384 128 241ZM224 241L275 241 275 384 224 384ZM483 77L483 101C453 72 407 35 407 35L365 88 38 88 46 118 174 118 174 212 140 212 76 183 76 456 84 456C110 456 128 442 128 437L128 413 377 413 377 442 384 442C402 442 429 429 429 423L429 248C445 245 459 237 465 231L398 181 368 212 324 212 324 118 458 118C471 118 480 114 483 103L483 383C483 569 477 764 391 918L408 929C532 775 539 555 539 382L539 106 838 106C835 394 829 723 883 857 901 903 933 939 962 924 975 917 972 898 958 858L977 688 965 685C957 718 947 755 934 798 929 813 925 814 921 800 885 699 882 355 896 122 918 119 933 112 940 105L864 38 828 77 550 77 483 46ZM224 212L224 118 275 118 275 212ZM324 241L377 241 377 384 324 384ZM37 613L45 642 221 642 221 838C221 850 218 854 204 854 189 854 127 849 127 849L127 865C158 869 174 875 184 885 194 895 197 912 198 928 267 919 277 885 277 838L277 642 446 642C460 642 469 637 471 626 444 599 400 563 400 563L361 613ZM618 368L660 368 660 590 618 590ZM521 833L558 911C568 908 576 902 581 889 669 860 735 835 783 816 792 845 797 873 797 899 846 950 903 830 756 706L741 711C754 736 767 767 778 799L710 810 710 619 751 619 751 661 757 661C771 661 793 649 794 642L794 371C808 368 822 362 826 356L769 312 744 339 710 339 710 204C735 198 758 192 777 186 798 194 815 194 823 185L754 126C712 153 628 192 559 213L564 229C594 226 626 221 657 216L657 339 630 339 574 313 574 685 580 685C602 685 618 673 618 669L618 619 657 619 657 817C599 825 550 831 521 833ZM751 368L751 590 707 590 707 368Z"/>
</svg>