<svg xmlns="http://www.w3.org/2000/svg" name="gid14199" data-unicode="飄"
    viewBox="0 0 1000 1000">
  <!--
© 2017-2024 Adobe (http://www.adobe.com/).
Noto is a trademark of Google Inc.
This Font Software is licensed under the SIL Open Font License, Version 1.1. This Font Software is distributed on an "AS IS" BASIS, WITHOUT WARRANTIES OR CONDITIONS OF ANY KIND, either express or implied. See the SIL Open Font License for the specific language, permissions and limitations governing your use of this Font Software.
http://scripts.sil.org/OFL
  -->
<path d="M93 526L100 556 394 556C408 556 418 551 420 540 393 514 352 480 352 480L315 526ZM329 706L318 713C345 744 373 796 374 839 427 886 484 773 329 706ZM110 704C92 774 64 843 35 889L50 900C92 864 131 809 160 750 179 752 190 743 194 731ZM174 271L174 414 128 414 128 271ZM224 271L275 271 275 414 224 414ZM483 107L483 131C453 102 407 65 407 65L365 118 38 118 46 148 174 148 174 242 140 242 76 213 76 486 84 486C110 486 128 472 128 467L128 443 377 443 377 472 384 472C402 472 429 459 429 453L429 278C445 275 459 267 465 261L398 211 368 242 324 242 324 148 458 148C471 148 480 144 483 133L483 413C483 599 477 794 391 948L408 959C532 805 539 585 539 412L539 136 838 136C835 424 829 753 883 887 901 933 933 969 962 954 975 947 972 928 958 888L977 718 965 715C957 748 947 785 934 828 929 843 925 844 921 830 885 729 882 385 896 152 918 149 933 142 940 135L864 68 828 107 550 107 483 76ZM224 242L224 148 275 148 275 242ZM324 271L377 271 377 414 324 414ZM37 643L45 672 221 672 221 868C221 880 218 884 204 884 189 884 127 879 127 879L127 895C158 899 174 905 184 915 194 925 197 942 198 958 267 949 277 915 277 868L277 672 446 672C460 672 469 667 471 656 444 629 400 593 400 593L361 643ZM618 398L660 398 660 620 618 620ZM521 863L558 941C568 938 576 932 581 919 669 890 735 865 783 846 792 875 797 903 797 929 846 980 903 860 756 736L741 741C754 766 767 797 778 829L710 840 710 649 751 649 751 691 757 691C771 691 793 679 794 672L794 401C808 398 822 392 826 386L769 342 744 369 710 369 710 234C735 228 758 222 777 216 798 224 815 224 823 215L754 156C712 183 628 222 559 243L564 259C594 256 626 251 657 246L657 369 630 369 574 343 574 715 580 715C602 715 618 703 618 699L618 649 657 649 657 847C599 855 550 861 521 863ZM751 398L751 620 707 620 707 398Z"/>
</svg>