<svg xmlns="http://www.w3.org/2000/svg" name="gid14204" data-unicode="飋"
    viewBox="0 0 1000 1000">
  <!--
© 2017-2024 Adobe (http://www.adobe.com/).
Noto is a trademark of Google Inc.
This Font Software is licensed under the SIL Open Font License, Version 1.1. This Font Software is distributed on an "AS IS" BASIS, WITHOUT WARRANTIES OR CONDITIONS OF ANY KIND, either express or implied. See the SIL Open Font License for the specific language, permissions and limitations governing your use of this Font Software.
http://scripts.sil.org/OFL
  -->
<path d="M663 390L652 398C683 421 718 463 729 497 788 533 831 418 663 390ZM85 97L85 321C85 519 86 752 26 948L44 957C141 762 141 496 141 321L141 126 421 126 420 216 360 160C312 183 218 215 142 232L148 250C182 248 218 244 253 239L253 367 222 367 171 342 171 681 179 681C198 681 217 670 217 664L217 635 253 635 253 816 121 829 162 901C170 898 178 892 183 880 271 857 339 838 390 822 400 850 407 878 408 903 462 955 518 828 352 705L338 710C353 736 369 768 382 801L304 810 304 635 342 635 342 668 349 668C364 668 386 656 387 650L387 398C400 395 411 390 416 384L361 341 335 367 304 367 304 230 376 216C396 225 411 225 420 217 416 690 452 915 828 955 916 963 953 958 960 933 963 919 957 911 924 895L928 748 915 746C906 790 895 838 883 872 876 890 869 896 834 892 707 880 623 841 568 776 591 764 613 750 634 735 634 772 644 785 699 785L755 785C847 785 871 773 871 750 871 739 868 732 849 726L846 626 833 626C826 667 817 711 812 724 808 730 804 732 798 732 792 733 776 733 756 733L711 733C693 733 690 730 690 719L690 691C750 640 800 581 839 524 865 569 893 637 894 692 951 746 1017 620 851 518L840 522C855 499 869 476 880 454 904 457 912 452 917 442L830 405C801 479 753 562 690 636L690 505C707 502 717 493 718 481L634 471 634 696C610 719 584 741 556 761 543 742 532 722 522 700 536 701 551 695 562 686 591 661 615 599 589 510L571 510C575 561 549 616 520 636 514 640 509 645 505 651 469 529 471 361 478 142 500 139 513 133 520 127L521 129 589 129 589 216 518 216 526 246 589 246 589 342C550 350 517 357 496 360L545 430C553 427 560 420 564 407 642 372 701 343 740 323L736 309 642 330 642 246 712 246C726 246 735 241 738 230 711 203 669 168 669 168L642 203 642 129 721 129C732 129 740 126 743 119L746 129 792 129 792 216 739 216 747 246 792 246 792 349 716 349 724 378 940 378C954 378 964 374 966 363 936 334 888 296 888 296L846 349 846 246 928 246C941 246 951 241 953 230 926 203 883 168 883 168L846 215 846 129 934 129C948 129 957 124 960 114 932 86 886 49 886 49L846 101 738 101 740 107C712 80 673 49 673 49L633 101 513 101 519 121 448 59 412 97 152 97 85 66ZM217 605L217 396 257 396 257 605ZM342 605L301 605 301 396 342 396Z"/>
</svg>