<svg xmlns="http://www.w3.org/2000/svg"
    viewBox="0 0 1000 1000">
  <!--
© 2017-2023 Adobe (http://www.adobe.com/).
Noto is a trademark of Google Inc.
This Font Software is licensed under the SIL Open Font License, Version 1.1. This Font Software is distributed on an "AS IS" BASIS, WITHOUT WARRANTIES OR CONDITIONS OF ANY KIND, either express or implied. See the SIL Open Font License for the specific language, permissions and limitations governing your use of this Font Software.
http://scripts.sil.org/OFL
  -->
<path d="M85 71L75 80C116 118 165 184 177 237 247 288 302 141 85 71ZM93 612C82 612 47 612 47 612L47 634C69 636 83 639 96 648 118 661 123 735 111 834 113 866 123 883 141 883 174 883 192 858 194 816 198 740 171 693 170 653 170 629 178 600 186 571 201 528 290 318 332 208L314 203C137 559 137 559 118 592 107 612 104 612 93 612ZM856 590C820 629 755 696 707 738 661 700 623 656 595 605L752 605 752 640 762 640C784 640 816 623 817 616L817 376C835 373 851 365 857 357L779 298 743 336 752 337 479 337 411 305 411 827 290 845 332 928C342 925 350 918 354 906 489 862 586 826 656 800L653 784 474 816 474 605 573 605C632 766 740 869 902 921 910 888 931 867 959 861L960 851C869 834 788 799 721 749 778 719 853 678 895 651 915 656 924 654 929 647ZM752 365L752 456 474 456 474 365ZM752 485L752 576 474 576 474 485ZM641 64C692 178 793 275 902 337 908 309 931 284 960 276L962 263C844 218 721 147 657 53 681 51 692 46 694 35L577 10C542 120 406 274 288 351L295 364C362 332 431 287 491 236L498 262 727 262C741 262 751 257 753 246 722 217 672 177 672 177L628 232 495 232C555 180 607 122 641 64Z"/>
</svg>