<svg xmlns="http://www.w3.org/2000/svg"
    viewBox="0 0 1000 1000">
  <!--
© 2017-2023 Adobe (http://www.adobe.com/).
Noto is a trademark of Google Inc.
This Font Software is licensed under the SIL Open Font License, Version 1.1. This Font Software is distributed on an "AS IS" BASIS, WITHOUT WARRANTIES OR CONDITIONS OF ANY KIND, either express or implied. See the SIL Open Font License for the specific language, permissions and limitations governing your use of this Font Software.
http://scripts.sil.org/OFL
  -->
<path d="M650 20L650 220 445 220 453 250 651 250 651 518 461 518 469 548 651 548 651 859 398 859 406 887 945 887C959 887 969 882 971 872 938 841 885 799 885 799L838 859 715 859 715 548 914 548C928 548 938 543 941 532 909 502 859 463 859 463L815 518 715 518 715 283C739 280 746 270 749 256L690 250 933 250C947 250 957 245 959 234 927 205 876 164 876 164L831 220 715 220 715 55C737 51 746 42 748 29ZM360 474L360 553 177 553 177 474ZM360 444L177 444 177 363 360 363ZM115 335L115 928 126 928C153 928 177 913 177 906L177 824 439 824C452 824 461 819 463 809 435 780 390 744 390 744L350 795 177 795 177 701 425 701C439 701 448 696 450 685 423 658 378 623 378 623L339 672 177 672 177 582 360 582 360 615 369 615C390 615 421 600 421 592L421 370C437 367 449 360 454 354L384 301 353 335 182 335 115 303ZM162 239L168 262 380 262C394 262 404 257 407 246 379 220 335 184 335 184L295 233 167 233C216 180 259 123 289 73 339 119 379 174 397 212 452 252 527 143 308 63 324 61 332 55 334 46L240 10C204 106 111 255 25 336L36 347C80 318 123 280 162 239Z"/>
</svg>