<svg xmlns="http://www.w3.org/2000/svg"
    viewBox="0 0 1000 1000">
  <!--
© 2017-2023 Adobe (http://www.adobe.com/).
Noto is a trademark of Google Inc.
This Font Software is licensed under the SIL Open Font License, Version 1.1. This Font Software is distributed on an "AS IS" BASIS, WITHOUT WARRANTIES OR CONDITIONS OF ANY KIND, either express or implied. See the SIL Open Font License for the specific language, permissions and limitations governing your use of this Font Software.
http://scripts.sil.org/OFL
  -->
<path d="M160 235L168 264 364 264C377 264 386 259 389 248 362 222 317 186 317 186L278 235ZM584 352L584 742 593 742C615 742 636 730 636 724L636 642 736 642 736 714 743 714C760 714 788 700 789 694L789 387C804 384 817 377 822 370L757 321 728 352 640 352 584 325ZM636 613L636 381 736 381 736 613ZM654 21C643 74 627 147 614 194L528 194 463 162 463 922 474 922C502 922 523 906 523 898L523 223 861 223 861 822C861 838 856 844 837 844 818 844 720 836 720 836L720 853C762 858 788 866 802 875 815 885 820 901 822 920 912 911 923 879 923 829L923 233C941 230 956 222 963 215L884 155 852 194 642 194C669 157 704 106 725 70 746 71 759 64 763 50ZM335 476L335 554 176 554 176 476ZM335 446L176 446 176 366 335 366ZM114 337L114 929 125 929C152 929 176 914 176 906L176 826 406 826C420 826 429 821 432 811 403 783 358 746 358 746L317 797 176 797 176 703 392 703C406 703 416 698 418 687 390 661 346 625 346 625L306 674 176 674 176 584 335 584 335 617 344 617C364 617 393 602 394 595L394 372C409 369 423 362 428 355L359 303 326 337 181 337 114 305ZM272 73C323 119 363 173 380 211 434 250 508 143 289 62 306 59 313 53 315 44L221 11C189 107 106 256 28 337L40 348C136 278 222 163 272 73Z"/>
</svg>