<svg xmlns="http://www.w3.org/2000/svg"
    viewBox="0 0 1000 1000">
  <!--
© 2017-2023 Adobe (http://www.adobe.com/).
Noto is a trademark of Google Inc.
This Font Software is licensed under the SIL Open Font License, Version 1.1. This Font Software is distributed on an "AS IS" BASIS, WITHOUT WARRANTIES OR CONDITIONS OF ANY KIND, either express or implied. See the SIL Open Font License for the specific language, permissions and limitations governing your use of this Font Software.
http://scripts.sil.org/OFL
  -->
<path d="M822 81L811 87C840 123 876 181 884 226 941 273 1000 156 822 81ZM115 299L115 820C83 829 57 837 39 841L87 924C96 920 104 911 107 898 202 847 275 804 330 772 343 796 352 821 357 843 419 891 471 757 270 656L258 663C278 687 301 720 320 753L176 801 176 592 328 592 328 630 339 630C361 630 384 617 386 614L386 339C394 338 401 335 407 332L413 354 529 354 529 542C470 560 421 575 393 581L428 664C438 661 446 651 449 640L529 598 529 829C529 844 525 849 509 849 492 849 414 843 414 843L414 858C451 863 471 870 484 881 495 892 498 910 499 929 579 920 589 881 589 831L589 565 704 500 701 486 589 523 589 354 717 354C724 472 737 579 762 672 723 739 675 803 617 854L627 869C686 828 736 779 778 726 797 782 822 831 854 872 883 912 936 945 961 920 970 910 967 894 945 854L961 700 947 698C937 738 922 784 912 807 904 828 900 829 889 811 859 773 836 725 819 668 865 598 898 523 919 454 940 456 951 453 955 441L862 408C849 467 829 531 801 593 787 521 779 440 775 354L936 354C950 354 959 349 962 339 930 308 879 268 879 268L833 325 774 325C771 239 772 149 773 60 799 56 808 45 810 32L710 21C710 128 711 230 716 325L589 325 589 117C616 106 640 96 659 86 684 92 700 91 708 80L622 21C577 62 483 122 406 156L413 171C451 163 491 152 529 139L529 325 417 325 423 321 360 265 328 299 275 299 275 215C294 212 301 204 303 192L219 183 219 299 180 299 118 271C176 209 225 137 258 76 307 127 342 184 359 224 411 269 493 163 273 64 292 62 300 55 303 46L208 12C177 107 97 256 20 337L33 348C61 327 89 302 115 274ZM176 458L328 458 328 562 176 562ZM176 429L176 329 328 329 328 429Z"/>
</svg>