<svg xmlns="http://www.w3.org/2000/svg" name="gid14253" data-unicode="餝"
    viewBox="0 0 1000 1000">
  <!--
© 2017-2024 Adobe (http://www.adobe.com/).
Noto is a trademark of Google Inc.
This Font Software is licensed under the SIL Open Font License, Version 1.1. This Font Software is distributed on an "AS IS" BASIS, WITHOUT WARRANTIES OR CONDITIONS OF ANY KIND, either express or implied. See the SIL Open Font License for the specific language, permissions and limitations governing your use of this Font Software.
http://scripts.sil.org/OFL
  -->
<path d="M448 208L551 208 551 303 561 303C592 303 612 292 612 286L612 208 745 208 745 300 756 300C791 299 807 287 807 282L807 208 951 208C964 208 973 203 975 192 948 165 902 128 902 128L864 179 807 179 807 88C829 85 838 73 838 60L745 51 745 179 612 179 612 88C635 85 642 74 644 60L551 51 551 179 434 179C415 152 374 121 300 93 315 91 323 85 326 76L231 41C198 136 109 284 27 364L39 375C82 346 123 308 160 268L167 294 365 294C377 294 387 289 389 278 362 252 318 216 318 216L279 265 163 265C211 212 252 154 282 103 333 151 373 205 392 245 421 266 456 245 448 208ZM639 284L639 414 422 414 430 443 589 443C583 660 544 817 374 946L382 959C548 869 615 749 644 584L818 584C809 738 791 842 767 864 758 872 750 874 731 874 711 874 638 868 599 864L598 881C635 887 676 896 691 906 704 917 708 934 708 953 748 953 784 943 810 922 850 886 873 771 881 592 902 589 913 585 920 577L845 516 808 555 648 555C653 520 657 482 659 443L948 443C962 443 971 438 974 427 942 397 891 356 891 356L844 414 707 414 707 319C729 315 737 307 739 294ZM346 506L346 584 176 584 176 506ZM346 476L176 476 176 396 346 396ZM114 367L114 959 125 959C152 959 176 944 176 936L176 856 421 856C435 856 443 851 446 841 418 813 372 776 372 776L332 827 176 827 176 733 407 733C421 733 431 728 434 717 405 691 360 655 360 655L321 704 176 704 176 614 346 614 346 647 355 647C375 647 405 632 406 624L406 402C421 399 434 392 439 385L369 333 338 367 181 367 114 335Z"/>
</svg>