<svg xmlns="http://www.w3.org/2000/svg"
    viewBox="0 0 1000 1000">
  <!--
© 2017-2024 Adobe (http://www.adobe.com/).
Noto is a trademark of Google Inc.
This Font Software is licensed under the SIL Open Font License, Version 1.1. This Font Software is distributed on an "AS IS" BASIS, WITHOUT WARRANTIES OR CONDITIONS OF ANY KIND, either express or implied. See the SIL Open Font License for the specific language, permissions and limitations governing your use of this Font Software.
http://scripts.sil.org/OFL
  -->
<path d="M553 89C553 140 526 196 499 216 481 229 470 250 480 266 492 285 522 280 541 263 569 237 591 174 570 89ZM537 509C541 568 509 627 475 649 456 662 445 681 454 700 466 720 500 716 520 699 553 672 581 607 555 509ZM886 505C862 547 808 623 764 675 737 614 725 540 718 452 739 449 748 439 750 426L650 416C648 634 651 796 369 909L381 926C636 844 694 724 710 579 731 742 782 863 923 928 929 894 948 882 980 877L981 865C873 827 809 770 771 691 832 654 897 604 932 572 951 579 966 572 969 565ZM667 14C665 214 670 356 430 456L441 473C595 423 665 357 699 278 771 326 858 399 893 455 962 487 985 369 774 281 830 238 889 183 921 148 940 153 954 147 958 139L874 84C850 131 800 218 759 275L707 256C728 194 730 125 733 48 754 45 763 35 765 22ZM346 476L346 554 176 554 176 476ZM346 446L176 446 176 366 346 366ZM114 337L114 929 125 929C152 929 176 914 176 906L176 826 421 826C435 826 443 821 446 811 418 783 372 746 372 746L332 797 176 797 176 703 407 703C421 703 431 698 434 687 405 661 360 625 360 625L321 674 176 674 176 584 346 584 346 617 355 617C375 617 405 602 406 594L406 372C421 369 434 362 439 355L369 303 338 337 181 337 114 305ZM160 237L167 264 365 264C377 264 387 259 389 248 362 222 318 186 318 186L279 235 161 235C210 182 252 123 282 72 333 119 373 174 392 213 446 253 519 145 299 62 315 60 323 54 326 44L231 11C197 105 109 253 27 333L39 344C82 315 122 277 160 237Z"/>
</svg>