<svg xmlns="http://www.w3.org/2000/svg" name="gid14267" data-unicode="餲"
    viewBox="0 0 1000 1000">
  <!--
© 2017-2024 Adobe (http://www.adobe.com/).
Noto is a trademark of Google Inc.
This Font Software is licensed under the SIL Open Font License, Version 1.1. This Font Software is distributed on an "AS IS" BASIS, WITHOUT WARRANTIES OR CONDITIONS OF ANY KIND, either express or implied. See the SIL Open Font License for the specific language, permissions and limitations governing your use of this Font Software.
http://scripts.sil.org/OFL
  -->
<path d="M541 264L806 264 806 366 541 366ZM541 235L541 130 806 130 806 235ZM480 101L480 444 489 444C521 444 541 430 541 424L541 395 572 395C537 486 467 591 391 651L403 663C428 649 451 632 474 614L474 891 486 891C507 891 533 878 533 871L533 824 810 824C824 824 833 819 836 808 807 780 761 744 761 744L721 795 533 795 533 611C557 607 566 598 568 584L513 579C531 561 548 543 563 524L863 524C857 729 843 847 819 871 811 879 803 881 786 881 766 881 708 875 675 873L674 890C705 895 739 903 751 913 763 922 766 939 766 958 803 958 837 947 861 924 900 887 917 764 923 532 943 528 955 524 962 516L889 456 853 495 586 495C602 473 616 451 628 430 652 433 660 429 664 418L584 395 806 395 806 433 816 433C845 433 869 419 869 415L869 134C889 131 899 125 906 118L834 63 802 101 553 101 480 70ZM655 533C642 607 609 703 551 761L562 774C609 743 645 698 671 651 701 675 731 708 742 736 794 767 831 669 682 631 691 612 699 593 706 575 729 576 736 571 741 560ZM336 504L336 582 176 582 176 504ZM336 474L176 474 176 394 336 394ZM114 365L114 959 125 959C152 959 176 944 176 936L176 854 406 854C420 854 429 849 432 839 403 811 358 774 358 774L317 825 176 825 176 731 392 731C406 731 416 726 418 715 390 689 346 653 346 653L306 703 176 703 176 612 336 612 336 644 345 644C365 644 395 629 396 622L396 400C411 398 424 391 429 384L360 331 327 365 181 365 114 333ZM278 263L160 264 168 293 364 293C377 293 386 288 389 277 362 250 317 214 317 214ZM160 264C205 211 244 154 271 104 323 150 364 204 381 243 434 280 504 175 287 92 305 90 312 83 315 74L221 41C189 137 106 286 28 367L40 378C83 347 124 307 160 264Z"/>
</svg>