<svg xmlns="http://www.w3.org/2000/svg" name="gid14274" data-unicode="餼"
    viewBox="0 0 1000 1000">
  <!--
© 2017-2024 Adobe (http://www.adobe.com/).
Noto is a trademark of Google Inc.
This Font Software is licensed under the SIL Open Font License, Version 1.1. This Font Software is distributed on an "AS IS" BASIS, WITHOUT WARRANTIES OR CONDITIONS OF ANY KIND, either express or implied. See the SIL Open Font License for the specific language, permissions and limitations governing your use of this Font Software.
http://scripts.sil.org/OFL
  -->
<path d="M522 280L530 309 880 309C894 309 903 304 905 293 874 264 825 225 825 225L780 280ZM457 472L444 478C468 510 495 561 500 601 547 643 599 545 457 472ZM719 467C700 514 678 565 661 596L677 605C703 582 735 549 761 517 780 520 793 513 797 502ZM152 265L160 294 358 294C371 294 380 289 383 278 357 251 311 215 311 215L273 265ZM537 43C511 159 462 272 411 345L426 355C469 317 510 265 544 205L932 205C946 205 956 200 959 189 924 158 872 118 872 118L825 176 560 176C574 149 587 121 598 92 620 93 631 84 635 73ZM426 391L435 420 818 420C819 613 828 820 889 912 912 946 952 970 975 949 988 938 982 919 966 889L981 759 968 757C961 785 951 817 940 846 935 857 933 859 925 850 889 786 877 576 883 431 902 428 917 422 923 415L847 351 810 391ZM585 450L585 633 419 633 427 662 555 662C522 745 469 823 401 885L414 901C484 854 542 795 585 728L585 949 596 949C617 949 640 936 640 928L640 705C682 738 730 790 746 830 806 866 840 745 640 686L640 662 794 662C808 662 817 657 819 647 795 621 756 587 756 587L721 633 640 633 640 487C665 484 674 474 676 461ZM322 497L322 577 173 577 173 497ZM322 468L173 468 173 386 322 386ZM322 606L322 649 327 649 289 699 173 699 173 606ZM111 357L111 957 121 957C149 957 173 942 173 935L173 849 396 849C410 849 419 844 421 833 393 805 348 770 348 770L308 820 173 820 173 727 376 727C389 727 398 722 401 712 374 685 332 651 329 649L331 649C351 649 380 636 381 630L381 392C397 390 410 383 415 376L346 322 314 357 177 357 111 325ZM262 103C309 148 345 199 360 237 414 277 488 172 279 91 297 90 305 83 308 74L212 41C181 136 99 282 20 362L33 373C128 305 213 192 262 103Z"/>
</svg>