<svg xmlns="http://www.w3.org/2000/svg"
    viewBox="0 0 1000 1000">
  <!--
© 2017-2023 Adobe (http://www.adobe.com/).
Noto is a trademark of Google Inc.
This Font Software is licensed under the SIL Open Font License, Version 1.1. This Font Software is distributed on an "AS IS" BASIS, WITHOUT WARRANTIES OR CONDITIONS OF ANY KIND, either express or implied. See the SIL Open Font License for the specific language, permissions and limitations governing your use of this Font Software.
http://scripts.sil.org/OFL
  -->
<path d="M722 454L722 515 612 515 612 454ZM873 644C851 668 804 712 767 740 736 707 715 673 701 640L946 640C959 640 968 635 971 624 941 598 895 563 895 563L855 611 781 611 781 545 908 545C921 545 931 540 933 529 906 503 865 470 865 470L828 515 781 515 781 454 929 454C942 454 951 449 954 438 927 413 883 378 883 378L845 425 781 425 781 392C799 388 806 380 808 370L722 360 722 425 612 425 612 392C629 388 636 380 638 369L552 360 552 425 409 425 417 454 552 454 552 515 438 515 446 545 552 545 552 611 388 611 396 640 583 640C534 692 466 736 388 769L398 786C445 772 491 755 533 735L533 836C488 845 451 852 427 855L464 927C473 924 481 917 485 904 600 865 686 832 747 808L744 793 592 824 592 703C622 684 649 663 671 640L680 640C705 735 763 854 916 922 921 887 940 878 971 873L972 861C886 832 824 794 780 753 829 737 882 712 911 697 924 701 933 700 937 694ZM722 545L722 611 612 611 612 545ZM636 16L636 105 397 105 405 135 941 135C955 135 964 130 966 119 936 88 885 49 885 49L841 105 699 105 699 53C722 50 732 40 734 26ZM498 218L584 218 584 289 498 289ZM441 189L441 363 449 363C479 363 498 349 498 344L498 319 584 319 584 348 593 348C612 348 640 335 641 328L641 223C656 220 669 214 674 208L607 156 576 189 510 189 441 158ZM699 189L699 354 707 354C737 354 756 340 756 336L756 319 847 319 847 348 855 348C874 348 904 336 905 328L905 223C919 221 932 214 937 208L870 157 839 189 768 189 699 158ZM756 289L756 218 847 218 847 289ZM307 463L307 549 171 549 171 463ZM307 434L171 434 171 349 307 349ZM109 319L109 929 120 929C147 929 171 914 171 906L171 825 375 825C388 825 398 820 400 809 372 781 327 745 327 745L288 796 171 796 171 701 359 701C372 701 381 696 384 685 357 659 312 623 312 623L274 672 171 672 171 578 307 578 307 616 316 616C336 616 367 602 368 595L368 355C382 353 396 346 401 339L331 285 299 319 175 319 109 288ZM154 226L161 251 332 251C346 251 354 246 357 235 332 210 292 175 292 175L256 222 157 222C197 172 231 119 255 72 301 116 336 168 353 204 406 245 479 139 271 61 289 59 297 52 300 43L203 11C175 104 101 247 29 326L41 337C81 307 120 268 154 226Z"/>
</svg>