<svg xmlns="http://www.w3.org/2000/svg" name="gid14331" data-unicode="駄"
    viewBox="0 0 1000 1000">
  <!--
© 2017-2024 Adobe (http://www.adobe.com/).
Noto is a trademark of Google Inc.
This Font Software is licensed under the SIL Open Font License, Version 1.1. This Font Software is distributed on an "AS IS" BASIS, WITHOUT WARRANTIES OR CONDITIONS OF ANY KIND, either express or implied. See the SIL Open Font License for the specific language, permissions and limitations governing your use of this Font Software.
http://scripts.sil.org/OFL
  -->
<path d="M160 634L145 637C157 685 165 761 154 818 195 869 255 762 160 634ZM219 616L205 622C227 661 251 724 252 771 296 814 347 714 219 616ZM281 595L270 603C297 628 326 673 332 708 378 743 421 643 281 595ZM85 643C84 724 68 789 39 821-9 898 161 928 101 643ZM634 53C634 147 635 235 632 319L447 319 455 348 631 348C621 590 574 790 375 941L388 959C494 894 563 818 610 732 644 780 676 838 684 887 750 940 808 808 623 705 673 599 691 479 697 348 723 617 774 831 907 959 918 925 941 904 967 898L969 889C830 792 751 571 717 348L938 348C952 348 962 343 964 332 932 301 878 256 878 256L830 319 699 319C702 247 702 171 703 92 727 88 736 78 739 64ZM153 143L248 143 248 250 153 250ZM95 114L95 608 104 608C133 608 153 593 153 588L153 551 419 551C409 717 387 807 361 829 352 837 344 838 328 838 310 838 261 834 232 832L231 849C258 853 285 861 295 870 306 879 309 896 309 912 342 912 374 903 398 882 438 848 466 749 477 558 497 556 509 551 516 543L445 485 411 522 307 522 307 416 456 416C470 416 479 411 482 400 454 373 410 338 410 338L371 386 307 386 307 278 460 278C473 278 483 273 485 262 458 236 413 200 413 200L375 250 307 250 307 143 478 143C492 143 501 138 504 127 473 98 423 61 423 61L380 114 165 114 95 83ZM153 278L248 278 248 386 153 386ZM153 416L248 416 248 522 153 522Z"/>
</svg>