<svg xmlns="http://www.w3.org/2000/svg" name="gid14335" data-unicode="駉"
    viewBox="0 0 1000 1000">
  <!--
© 2017-2024 Adobe (http://www.adobe.com/).
Noto is a trademark of Google Inc.
This Font Software is licensed under the SIL Open Font License, Version 1.1. This Font Software is distributed on an "AS IS" BASIS, WITHOUT WARRANTIES OR CONDITIONS OF ANY KIND, either express or implied. See the SIL Open Font License for the specific language, permissions and limitations governing your use of this Font Software.
http://scripts.sil.org/OFL
  -->
<path d="M150 643L134 646C147 694 154 768 143 824 182 874 242 769 150 643ZM203 628L189 633C211 671 235 733 234 779 277 822 327 724 203 628ZM258 607L247 615C274 639 303 684 308 718 355 754 396 655 258 607ZM86 650C84 731 67 791 37 822-12 897 159 928 102 651ZM475 113L475 957 487 957C513 957 534 942 534 933L534 142 862 142 862 855C862 871 856 878 838 878 818 878 718 870 718 869L718 886C761 892 787 899 801 910 814 920 820 938 822 958 913 948 923 914 923 863L923 154C943 151 960 142 966 134L884 72 852 113 540 113 475 81ZM599 302L599 781 608 781C630 781 649 770 649 763L649 678 740 678 740 746 747 746C764 746 790 732 791 725L791 341C810 338 826 330 832 322L761 267 730 302 653 302 599 275ZM649 648L649 331 740 331 740 648ZM138 143L221 143 221 250 138 250ZM80 114L80 615 89 615C118 615 138 600 138 595L138 555 366 555C358 750 343 851 319 873 310 880 303 883 288 883 269 883 221 878 191 876L191 893C218 898 245 904 256 914 268 923 270 940 270 956 303 956 335 947 359 925 395 890 416 784 424 562 443 559 455 555 463 547L391 489 357 526 278 526 278 416 400 416C414 416 423 411 426 400 398 373 354 338 354 338L315 386 278 386 278 279 404 279C417 279 427 274 429 263 402 236 358 201 358 201L319 250 278 250 278 143 421 143C435 143 444 138 447 127 417 99 367 62 367 62L325 114 150 114 80 83ZM138 279L221 279 221 386 138 386ZM138 416L221 416 221 526 138 526Z"/>
</svg>