<svg xmlns="http://www.w3.org/2000/svg"
    viewBox="0 0 1000 1000">
  <!--
© 2017-2023 Adobe (http://www.adobe.com/).
Noto is a trademark of Google Inc.
This Font Software is licensed under the SIL Open Font License, Version 1.1. This Font Software is distributed on an "AS IS" BASIS, WITHOUT WARRANTIES OR CONDITIONS OF ANY KIND, either express or implied. See the SIL Open Font License for the specific language, permissions and limitations governing your use of this Font Software.
http://scripts.sil.org/OFL
  -->
<path d="M101 611L84 611C83 694 66 756 38 788-11 862 158 894 101 611ZM262 568L249 575C271 598 292 638 292 670 336 707 383 615 262 568ZM207 587L193 592C211 631 228 693 225 741 265 785 320 687 207 587ZM153 603L137 606C147 654 151 729 138 785 177 836 239 731 153 603ZM85 53L85 579 94 579C124 579 143 563 143 558L143 525 360 525C355 723 342 822 321 843 313 851 306 852 290 852 273 852 226 848 198 846L198 863C223 867 250 874 261 883 271 893 274 909 274 926 307 926 338 917 360 895 396 861 412 757 417 531 438 529 449 524 456 516L385 457 351 495 286 495 286 385 397 385C411 385 420 380 422 369 397 343 355 310 355 310L319 355 286 355 286 249 401 249C415 249 424 244 426 233 400 207 358 174 358 174L323 220 286 220 286 113 417 113C430 113 440 108 442 97 413 70 366 35 366 35L325 84 155 84ZM231 495L143 495 143 385 231 385ZM231 355L143 355 143 249 231 249ZM231 220L143 220 143 113 231 113ZM658 303L658 136 722 136 722 555C722 623 726 628 777 628L821 628C839 628 853 627 862 624L862 785 525 785 525 671C648 570 658 422 658 303ZM773 556L773 136 862 136 862 579 856 578 848 578C841 580 836 580 832 580 828 580 824 580 820 580L783 580C773 580 773 580 773 556ZM525 902L525 815 862 815 862 910 871 910C892 910 920 893 921 886L921 146C941 142 957 135 963 127L887 67 852 106 530 106 466 74 466 926 477 926C505 926 525 911 525 902ZM525 638L525 136 605 136 605 303C605 414 598 535 525 638Z"/>
</svg>