<svg xmlns="http://www.w3.org/2000/svg"
    viewBox="0 0 1000 1000">
  <!--
© 2017-2023 Adobe (http://www.adobe.com/).
Noto is a trademark of Google Inc.
This Font Software is licensed under the SIL Open Font License, Version 1.1. This Font Software is distributed on an "AS IS" BASIS, WITHOUT WARRANTIES OR CONDITIONS OF ANY KIND, either express or implied. See the SIL Open Font License for the specific language, permissions and limitations governing your use of this Font Software.
http://scripts.sil.org/OFL
  -->
<path d="M532 26L519 33C550 75 587 142 594 191 649 239 706 120 532 26ZM154 607L138 611C152 659 161 734 150 792 190 843 251 735 154 607ZM213 588L199 593C222 634 246 699 246 749 291 793 342 690 213 588ZM88 617C88 710 71 769 38 796-15 871 164 911 104 617ZM278 572L266 580C295 605 325 650 328 687 346 700 363 695 370 680 358 771 341 826 322 842 312 851 303 853 287 853 267 853 213 847 181 845L180 862C209 867 239 874 251 884 263 893 267 909 267 927 302 927 336 917 360 895 402 858 432 744 442 537 463 534 475 529 482 521L456 500 563 500C562 646 547 795 431 912L445 923C604 814 624 649 625 500L753 500 753 926 762 926C794 926 815 910 815 905L815 500 949 500C963 500 971 495 974 485 944 455 895 413 895 413L851 472 815 472 815 245 934 245C948 245 958 240 960 229 930 200 882 162 882 162L839 216 739 216C783 170 823 115 848 72 868 75 881 69 886 58L792 19C774 78 742 157 710 216L450 216 458 245 563 245 563 472 445 472 452 496 410 462 376 500 293 500 293 387 412 387C426 387 436 382 438 371 410 345 367 309 367 309L327 358 293 358 293 250 412 250C426 250 436 245 438 234 410 207 367 172 367 172L327 220 293 220 293 113 439 113C453 113 463 108 465 97 435 68 385 31 385 31L342 84 160 84 90 53 90 578 99 578C128 578 148 563 148 558L148 529 384 529C382 575 378 616 374 652 369 626 342 593 278 572ZM625 245L753 245 753 472 625 472ZM148 113L235 113 235 220 148 220ZM148 250L235 250 235 358 148 358ZM148 387L235 387 235 500 148 500Z"/>
</svg>