<svg xmlns="http://www.w3.org/2000/svg"
    viewBox="0 0 1000 1000">
  <!--
© 2017-2024 Adobe (http://www.adobe.com/).
Noto is a trademark of Google Inc.
This Font Software is licensed under the SIL Open Font License, Version 1.1. This Font Software is distributed on an "AS IS" BASIS, WITHOUT WARRANTIES OR CONDITIONS OF ANY KIND, either express or implied. See the SIL Open Font License for the specific language, permissions and limitations governing your use of this Font Software.
http://scripts.sil.org/OFL
  -->
<path d="M152 616L136 620C150 670 157 745 146 804 186 855 248 746 152 616ZM204 599L190 605C212 644 236 708 236 755 280 799 332 697 204 599ZM261 578L249 586C277 611 306 656 311 691 359 727 401 626 261 578ZM87 622C85 706 68 769 37 800-13 877 161 909 103 623ZM144 113L231 113 231 220 144 220ZM86 84L86 580 95 580C125 580 144 564 144 560L144 526 372 526C363 715 346 819 321 842 312 850 304 852 288 852 270 852 217 848 184 845L184 863C213 867 242 874 254 883 266 893 269 909 269 926 304 926 337 916 361 895 399 859 421 747 430 534 450 530 462 526 469 518L397 460 363 497 289 497 289 386 406 386C420 386 429 381 432 370 404 343 360 308 360 308L321 356 289 356 289 248 410 248C424 248 433 243 435 232 408 206 364 170 364 170L325 220 289 220 289 113 428 113C442 113 450 108 453 97 423 68 373 31 373 31L330 84 157 84 86 53ZM144 248L231 248 231 356 144 356ZM144 386L231 386 231 497 144 497ZM546 246L831 246 831 353 546 353ZM546 218L546 109 831 109 831 218ZM486 80L486 435 496 435C526 435 546 422 546 416L546 382 831 382 831 422 841 422C870 422 893 408 893 404L893 113C913 110 924 103 930 96L860 42 828 80 558 80 486 48ZM433 660L441 689 656 689 656 929 666 929C699 929 719 914 719 910L719 689 947 689C961 689 970 684 973 674 941 643 889 603 889 603L843 660 719 660 719 511 915 511C930 511 939 506 942 495 911 467 863 428 863 428L820 482 466 482 474 511 656 511 656 660Z"/>
</svg>