<svg xmlns="http://www.w3.org/2000/svg"
    viewBox="0 0 1000 1000">
  <!--
© 2017-2023 Adobe (http://www.adobe.com/).
Noto is a trademark of Google Inc.
This Font Software is licensed under the SIL Open Font License, Version 1.1. This Font Software is distributed on an "AS IS" BASIS, WITHOUT WARRANTIES OR CONDITIONS OF ANY KIND, either express or implied. See the SIL Open Font License for the specific language, permissions and limitations governing your use of this Font Software.
http://scripts.sil.org/OFL
  -->
<path d="M151 624L136 628C149 677 157 753 145 811 186 862 247 753 151 624ZM203 607L189 612C212 651 235 715 235 762 280 806 331 705 203 607ZM260 586L249 594C277 618 305 663 310 698 358 735 401 633 260 586ZM86 629C84 713 67 777 36 807-14 883 160 916 102 630ZM526 207L512 213C539 260 564 333 561 392 620 451 693 316 526 207ZM145 113L230 113 230 220 145 220ZM87 84L87 577 96 577C125 577 145 562 145 557L145 526 371 526C362 717 345 823 320 845 312 854 304 856 288 856 269 856 216 851 184 848L183 866C212 871 242 878 254 887 266 896 269 913 269 930 303 930 336 920 360 898 398 862 421 750 430 534 449 530 461 526 468 518L397 459 362 497 288 497 288 386 405 386C418 386 428 381 431 370 403 343 359 308 359 308L319 356 288 356 288 248 409 248C422 248 432 243 434 232 407 206 363 170 363 170L323 220 288 220 288 113 429 113C443 113 451 108 454 97 423 68 373 31 373 31L330 84 157 84 87 53ZM145 248L230 248 230 356 145 356ZM145 386L230 386 230 497 145 497ZM652 11L652 160 461 160 469 190 922 190C936 190 946 185 948 174 918 145 869 105 869 105L826 160 715 160 715 46C737 42 746 33 747 20ZM796 201C781 266 753 356 728 421L418 421 426 451 651 451 651 624 445 624 453 653 651 653 651 927 661 927C693 927 714 909 714 903L714 653 925 653C939 653 950 648 952 637 921 607 871 566 871 566L826 624 714 624 714 451 947 451C961 451 970 446 973 435 943 405 892 364 892 364L848 421 751 421C794 366 838 297 864 245 886 245 897 235 901 224Z"/>
</svg>