<svg xmlns="http://www.w3.org/2000/svg"
    viewBox="0 0 1000 1000">
  <!--
© 2017-2023 Adobe (http://www.adobe.com/).
Noto is a trademark of Google Inc.
This Font Software is licensed under the SIL Open Font License, Version 1.1. This Font Software is distributed on an "AS IS" BASIS, WITHOUT WARRANTIES OR CONDITIONS OF ANY KIND, either express or implied. See the SIL Open Font License for the specific language, permissions and limitations governing your use of this Font Software.
http://scripts.sil.org/OFL
  -->
<path d="M151 614L136 618C149 667 157 743 145 801 186 852 247 743 151 614ZM203 597L189 602C212 641 235 705 235 752 280 796 331 695 203 597ZM260 576L249 584C277 608 305 653 310 688 358 725 401 623 260 576ZM86 619C84 703 67 767 36 798-14 874 160 906 102 620ZM691 246L691 413 565 413 565 246ZM558 18C524 176 462 332 396 433L411 443C444 409 475 368 504 322L504 927 513 927C544 927 565 911 565 905L565 850 942 850C956 850 965 845 967 834 938 806 890 767 890 767L848 821 752 821 752 637 912 637C925 637 934 632 937 621 908 594 863 556 863 556L823 608 752 608 752 442 912 442C925 442 934 437 937 426 908 399 863 362 863 362L823 413 752 413 752 246 928 246C942 246 951 241 954 230 924 202 877 165 877 165L835 216 710 216C749 175 786 123 811 84 832 85 844 76 848 65L751 34C736 89 709 163 685 216L577 216 564 211C585 165 604 117 620 68 642 68 652 59 656 47ZM691 442L691 608 565 608 565 442ZM691 637L691 821 565 821 565 637ZM145 113L230 113 230 221 145 221ZM87 84L87 578 96 578C125 578 145 563 145 558L145 529 371 529C362 715 346 819 321 842 311 850 303 852 288 852 269 852 216 847 184 845L183 862C213 866 242 874 254 883 265 893 268 909 268 926 303 926 336 917 359 894 398 859 421 748 430 536 449 533 461 528 468 520L397 462 362 499 288 499 288 388 405 388C418 388 428 383 431 372 403 346 359 310 359 310L319 358 288 358 288 251 409 251C422 251 432 246 434 235 407 208 363 173 363 173L323 221 288 221 288 113 429 113C443 113 451 108 454 97 423 68 373 31 373 31L330 84 157 84 87 53ZM145 251L230 251 230 358 145 358ZM145 388L230 388 230 499 145 499Z"/>
</svg>