<svg xmlns="http://www.w3.org/2000/svg"
    viewBox="0 0 1000 1000">
  <!--
© 2017-2023 Adobe (http://www.adobe.com/).
Noto is a trademark of Google Inc.
This Font Software is licensed under the SIL Open Font License, Version 1.1. This Font Software is distributed on an "AS IS" BASIS, WITHOUT WARRANTIES OR CONDITIONS OF ANY KIND, either express or implied. See the SIL Open Font License for the specific language, permissions and limitations governing your use of this Font Software.
http://scripts.sil.org/OFL
  -->
<path d="M148 623L132 627C144 674 151 748 139 804 177 853 237 749 148 623ZM200 608L186 612C207 651 229 714 228 760 269 803 318 706 200 608ZM86 631C84 711 67 771 38 801-10 874 156 905 102 632ZM137 113L214 113 214 220 137 220ZM249 589L238 597C264 617 292 654 297 684 305 690 312 691 319 690 310 779 298 829 283 844 275 852 267 854 251 854 233 854 185 849 155 847L154 865C181 869 209 875 220 885 232 894 234 910 234 926 267 926 299 917 321 896 358 860 378 754 385 534 405 531 417 527 425 519L353 461 320 498 269 498 269 386 379 386C393 386 402 381 405 370 378 344 337 310 337 310L301 356 269 356 269 249 383 249C397 249 406 244 408 233 382 207 341 173 341 173L303 220 269 220 269 113 401 113C415 113 424 108 427 97 396 70 349 33 349 33L307 84 149 84 80 53 80 575 89 575C118 575 137 560 137 555L137 527 329 527 324 630C311 614 287 599 249 589ZM137 249L214 249 214 356 137 356ZM137 386L214 386 214 498 137 498ZM753 420L753 593 762 593C779 593 799 581 799 574L799 561 859 561 859 622 700 622 700 358 830 358 830 393 838 393C857 393 886 380 887 374L887 243 955 243C967 243 976 238 979 227 959 203 921 168 921 168L889 214 887 214 887 143C906 139 922 131 929 123L854 66 820 102 702 102 702 51C726 48 736 38 738 24L643 14 643 102 460 102 469 132 643 132 643 214 417 214 425 243 643 243 643 329 459 329 468 358 645 358 645 622 492 622 493 588 493 561 548 561 548 594 558 594C574 594 595 581 595 574L595 451C612 447 621 439 622 429L548 420 548 532 493 532 493 435C516 431 524 422 526 409L439 400 439 587C439 695 432 826 372 921L388 932C436 880 463 815 477 748L541 748 541 919 548 919C564 919 588 907 589 900L589 752C604 750 617 744 622 738L561 691 533 719 483 719C487 696 489 674 491 652L645 652 645 929 653 929C679 929 699 914 700 909L700 652 859 652 859 719 812 719 755 692 755 918 762 918C786 918 803 905 803 899L803 748 859 748 859 930 870 930C891 930 915 917 915 908L915 441C937 438 945 429 947 416L859 407 859 532 799 532 799 450C817 447 825 439 826 429ZM830 329L702 329 702 243 830 243ZM830 132L830 214 702 214 702 132Z"/>
</svg>