<svg xmlns="http://www.w3.org/2000/svg"
    viewBox="0 0 1000 1000">
  <!--
© 2017-2023 Adobe (http://www.adobe.com/).
Noto is a trademark of Google Inc.
This Font Software is licensed under the SIL Open Font License, Version 1.1. This Font Software is distributed on an "AS IS" BASIS, WITHOUT WARRANTIES OR CONDITIONS OF ANY KIND, either express or implied. See the SIL Open Font License for the specific language, permissions and limitations governing your use of this Font Software.
http://scripts.sil.org/OFL
  -->
<path d="M410 761L395 765C404 794 412 839 409 874 440 912 492 842 410 761ZM461 749L448 754C463 776 477 814 478 843 513 876 557 808 461 749ZM352 772C358 807 343 847 319 862 304 872 296 888 303 901 312 918 340 913 355 901 376 882 390 836 370 771ZM138 90L138 163C138 220 160 226 286 226L527 226C838 226 875 222 875 189 875 178 865 173 834 165L830 164 823 164C813 168 800 171 789 172 782 173 768 175 752 176 722 178 627 178 529 178L282 178C201 178 199 176 199 161L199 120 882 120C895 120 904 115 907 104 876 75 825 37 825 37L781 90 529 90 529 43C552 39 560 30 562 18L465 8 465 90 212 90 138 58ZM623 460L632 489 681 489 681 629 622 629 630 658 680 658C676 773 660 855 603 916L619 933C700 870 724 784 731 658L801 658 801 864C801 899 809 915 852 915L885 915C951 915 971 903 971 880 971 869 966 862 949 856L946 768 933 768C927 802 918 845 914 854 910 860 907 861 903 861 900 862 893 862 886 862L868 862C858 862 856 858 856 847L856 500C876 497 887 492 894 485L825 425 792 460ZM801 620L774 597 749 629 732 629C734 587 734 540 735 489L801 489ZM248 489L248 574 160 574 160 489ZM105 461L105 599C105 705 103 820 42 916L55 929C117 870 142 794 153 722L248 722 248 840C248 853 245 857 233 857 221 857 170 853 170 853L170 869C195 872 209 878 218 887 227 896 230 912 230 928 295 920 303 893 303 847L303 496C317 493 331 486 336 480L266 428 240 461 171 461 105 430ZM248 604L248 693 156 693C159 662 160 631 160 604ZM507 731L496 738C513 754 533 784 539 807 548 814 557 815 564 812 560 840 555 855 550 862 547 866 544 867 537 867 525 867 497 866 482 865L482 881C498 884 514 888 523 895 531 902 535 915 535 926 553 925 568 920 582 909 608 887 615 837 623 723 640 721 652 717 659 710L594 658 564 690 504 690 504 643 586 643C600 643 609 638 611 627 588 606 555 581 555 581L525 614 504 614 504 566 585 566C598 566 606 561 609 551 587 529 554 505 554 505L525 538 504 538 504 490 595 490C608 490 618 486 620 475 595 451 557 421 557 421L524 461 413 461 350 433 350 752 358 752C385 752 403 737 403 733L403 719 573 719 569 770C559 756 540 742 507 731ZM403 690L403 643 453 643 453 690ZM403 490L453 490 453 538 403 538ZM403 566L453 566 453 614 403 614ZM746 308L746 374 259 374 259 308ZM196 279L196 440 206 440C231 440 259 426 259 420L259 403 746 403 746 432 755 432C775 432 807 418 808 413L808 316C825 313 838 306 844 299L770 244 737 279 264 279 196 249Z"/>
</svg>