<svg xmlns="http://www.w3.org/2000/svg" name="gid14426" data-unicode="驛"
    viewBox="0 0 1000 1000">
  <!--
© 2017-2024 Adobe (http://www.adobe.com/).
Noto is a trademark of Google Inc.
This Font Software is licensed under the SIL Open Font License, Version 1.1. This Font Software is distributed on an "AS IS" BASIS, WITHOUT WARRANTIES OR CONDITIONS OF ANY KIND, either express or implied. See the SIL Open Font License for the specific language, permissions and limitations governing your use of this Font Software.
http://scripts.sil.org/OFL
  -->
<path d="M151 647L136 651C149 700 157 775 145 832 184 882 245 775 151 647ZM202 630L188 636C210 674 234 738 234 785 277 828 327 729 202 630ZM257 609L245 617C273 641 302 686 307 721 354 757 395 658 257 609ZM86 653C84 737 67 800 37 830-12 906 159 938 103 653ZM591 264L520 264 520 141 591 141ZM646 264L646 141 726 141 726 264ZM781 264L781 141 856 141 856 264ZM463 112L463 336 472 336C502 336 520 322 520 317L520 294 856 294 856 325 865 325C892 325 915 312 915 308L915 144C933 140 943 135 949 128L883 77 853 112 532 112 463 82ZM459 766L467 794 655 794 655 959 665 959C698 959 717 944 718 940L718 794 910 794C924 794 934 789 936 778 906 752 858 717 858 717L816 766 718 766 718 677 937 677C951 677 960 672 963 661 933 635 887 601 887 601L845 647 757 647C787 622 816 592 834 565 854 565 866 557 870 545L790 524 949 524C963 524 971 519 974 509 942 480 893 445 893 445L848 495 717 495 717 414 900 414C914 414 923 409 926 398 896 372 849 338 849 338L809 384 717 384 717 345C740 342 750 333 752 319L655 309 655 384 473 384 481 414 655 414 655 495 430 495 438 524 543 524 534 529C556 556 578 601 579 639 584 643 588 646 593 647L448 647 456 677 655 677 655 766ZM548 524L777 524C768 563 750 612 730 647L617 647C649 633 654 564 548 524ZM143 143L228 143 228 250 143 250ZM85 114L85 611 94 611C123 611 143 595 143 591L143 556 368 556C359 746 343 850 319 873 311 881 303 883 287 883 268 883 216 879 185 876L185 894C213 898 242 904 254 914 266 923 268 939 268 956 302 956 335 946 358 925 396 889 417 779 425 563 444 560 456 556 464 548L392 490 358 527 285 527 285 416 400 416C414 416 423 411 426 400 398 373 355 338 355 338L316 386 285 386 285 279 404 279C418 279 427 274 429 263 402 236 359 201 359 201L320 250 285 250 285 143 422 143C436 143 444 138 447 127 417 99 368 62 368 62L325 114 155 114 85 83ZM143 279L228 279 228 386 143 386ZM143 416L228 416 228 527 143 527Z"/>
</svg>