<svg xmlns="http://www.w3.org/2000/svg" name="gid14428" data-unicode="驟"
    viewBox="0 0 1000 1000">
  <!--
© 2017-2024 Adobe (http://www.adobe.com/).
Noto is a trademark of Google Inc.
This Font Software is licensed under the SIL Open Font License, Version 1.1. This Font Software is distributed on an "AS IS" BASIS, WITHOUT WARRANTIES OR CONDITIONS OF ANY KIND, either express or implied. See the SIL Open Font License for the specific language, permissions and limitations governing your use of this Font Software.
http://scripts.sil.org/OFL
  -->
<path d="M153 643L137 647C149 694 156 769 144 826 183 876 244 771 153 643ZM206 628L192 633C213 672 235 734 234 781 276 825 327 726 206 628ZM90 650C88 732 71 792 40 822-8 897 163 929 106 651ZM555 519C526 574 464 649 402 697L414 710C488 675 561 618 600 572 622 577 631 573 637 563ZM547 670C518 747 453 852 378 916L390 929C480 877 557 789 598 719 621 723 629 719 635 709ZM142 143L218 143 218 250 142 250ZM721 247L710 257C735 276 764 300 791 325 761 370 724 410 681 446L681 132 725 132C739 132 749 127 751 116 724 90 682 56 682 56L644 103 420 103 425 121C395 95 354 62 354 62L312 114 154 114 84 83 84 609 93 609C122 609 142 594 142 589L142 556 338 556 333 649C320 633 296 618 257 608L246 616C271 637 299 674 304 704 313 710 322 712 329 710 320 805 308 858 293 873 285 881 278 883 261 883 244 883 195 878 166 876L166 893C192 898 220 904 231 914 242 923 244 940 244 956 278 956 310 947 332 925 370 890 389 785 396 563 416 560 428 556 435 548L363 490 329 527 275 527 275 416 386 416C400 416 409 411 412 400 385 374 343 340 343 340L306 386 275 386 275 279 390 279C404 279 413 274 415 263 389 237 347 203 347 203L309 250 275 250 275 143 406 143C417 143 425 140 428 132L467 132 467 441 405 450 433 515C442 513 450 506 453 493 522 472 579 452 624 436L624 523 632 523C661 523 680 510 681 506L681 452 690 462C742 432 786 397 823 357 857 393 887 430 901 463 957 495 985 407 856 316 883 278 905 236 921 189 941 187 954 186 962 179L892 113 855 152 696 152 704 180 860 180C849 218 833 255 813 290 787 275 757 261 721 247ZM142 279L218 279 218 386 142 386ZM142 416L218 416 218 527 142 527ZM523 238L624 238 624 315 523 315ZM523 209L523 132 624 132 624 209ZM523 345L624 345 624 413 523 432ZM816 460C790 486 750 523 715 554L645 547 645 957 657 957C680 957 706 943 706 936L706 641C750 765 821 861 911 919 919 890 939 872 964 868L964 858C891 827 823 769 771 698 818 678 883 650 919 631 938 637 946 635 952 628L885 571C854 602 800 653 761 684 740 653 722 621 708 586 756 567 816 538 849 520 868 526 877 524 882 518Z"/>
</svg>