<svg xmlns="http://www.w3.org/2000/svg"
    viewBox="0 0 1000 1000">
  <!--
© 2017-2023 Adobe (http://www.adobe.com/).
Noto is a trademark of Google Inc.
This Font Software is licensed under the SIL Open Font License, Version 1.1. This Font Software is distributed on an "AS IS" BASIS, WITHOUT WARRANTIES OR CONDITIONS OF ANY KIND, either express or implied. See the SIL Open Font License for the specific language, permissions and limitations governing your use of this Font Software.
http://scripts.sil.org/OFL
  -->
<path d="M153 613L137 617C149 664 156 739 144 796 183 846 244 741 153 613ZM206 598L192 603C213 642 235 704 234 751 276 795 327 696 206 598ZM90 620C88 702 71 762 40 792-8 867 163 899 106 621ZM555 489C526 544 464 619 402 667L414 680C488 645 561 588 600 542 622 547 631 543 637 533ZM547 640C518 717 453 822 378 886L390 899C480 847 557 759 598 689 621 693 629 689 635 679ZM142 113L218 113 218 220 142 220ZM721 217L710 227C735 246 764 270 791 295 761 340 724 380 681 416L681 102 725 102C739 102 749 97 751 86 724 60 682 26 682 26L644 73 420 73 425 91C395 65 354 32 354 32L312 84 154 84 84 53 84 579 93 579C122 579 142 564 142 559L142 526 338 526 333 619C320 603 296 588 257 578L246 586C271 607 299 644 304 674 313 680 322 682 329 680 320 775 308 828 293 843 285 851 278 853 261 853 244 853 195 848 166 846L166 863C192 868 220 874 231 884 242 893 244 910 244 926 278 926 310 917 332 895 370 860 389 755 396 533 416 530 428 526 435 518L363 460 329 497 275 497 275 386 386 386C400 386 409 381 412 370 385 344 343 310 343 310L306 356 275 356 275 249 390 249C404 249 413 244 415 233 389 207 347 173 347 173L309 220 275 220 275 113 406 113C417 113 425 110 428 102L467 102 467 411 405 420 433 485C442 483 450 476 453 463 522 442 579 422 624 406L624 493 632 493C661 493 680 480 681 476L681 422 690 432C742 402 786 367 823 327 857 363 887 400 901 433 957 465 985 377 856 286 883 248 905 206 921 159 941 157 954 156 962 149L892 83 855 122 696 122 704 150 860 150C849 188 833 225 813 260 787 245 757 231 721 217ZM142 249L218 249 218 356 142 356ZM142 386L218 386 218 497 142 497ZM523 208L624 208 624 285 523 285ZM523 179L523 102 624 102 624 179ZM523 315L624 315 624 383 523 402ZM816 430C790 456 750 493 715 524L645 517 645 927 657 927C680 927 706 913 706 906L706 611C750 735 821 831 911 889 919 860 939 842 964 838L964 828C891 797 823 739 771 668 818 648 883 620 919 601 938 607 946 605 952 598L885 541C854 572 800 623 761 654 740 623 722 591 708 556 756 537 816 508 849 490 868 496 877 494 882 488Z"/>
</svg>