<svg xmlns="http://www.w3.org/2000/svg"
    viewBox="0 0 1000 1000">
  <!--
© 2017-2024 Adobe (http://www.adobe.com/).
Noto is a trademark of Google Inc.
This Font Software is licensed under the SIL Open Font License, Version 1.1. This Font Software is distributed on an "AS IS" BASIS, WITHOUT WARRANTIES OR CONDITIONS OF ANY KIND, either express or implied. See the SIL Open Font License for the specific language, permissions and limitations governing your use of this Font Software.
http://scripts.sil.org/OFL
  -->
<path d="M101 612L85 612C84 694 67 756 38 788-9 861 157 893 101 612ZM205 587L191 592C210 630 229 693 227 740 267 783 319 687 205 587ZM153 603L138 606C148 654 153 729 141 786 180 836 240 731 153 603ZM718 712L718 862 659 862 659 712ZM766 712L826 712 826 862 766 862ZM910 813L881 852 881 718C906 716 919 711 927 700L846 641 814 682 562 682 496 652 496 862 409 862 417 892 947 892C961 892 970 887 973 876 949 849 910 813 910 813ZM610 712L610 862 551 862 551 712ZM618 283L484 293 484 209 618 209ZM429 169L429 495C429 652 421 804 333 916L348 927C476 815 484 646 484 494L484 299 492 322 618 313 618 338C618 376 629 388 690 388L770 388C888 388 913 381 913 356 913 346 908 340 889 334L886 268 874 268C867 298 858 325 853 333 849 339 845 340 837 341 828 341 802 342 772 342L702 342C677 342 674 340 674 329L674 309 804 299C816 298 826 291 827 280 801 258 756 228 756 228L721 275 674 279 674 241C690 238 699 230 701 218L626 209 855 209 832 273 846 279C869 265 907 236 929 219 949 218 960 216 967 210L895 139 854 179 672 179 672 125 877 125C891 125 901 120 904 109 874 80 823 42 823 42L780 96 672 96 672 49C697 46 707 37 709 23L613 13 613 179 496 179 429 148ZM527 392L527 652 535 652C563 652 580 639 580 634L580 624 806 624 806 643 815 643C839 643 860 629 860 625L860 454C880 451 890 446 896 439L830 389 803 422 591 422ZM667 451L667 508 580 508 580 451ZM719 451L806 451 806 508 719 508ZM667 537L667 594 580 594 580 537ZM719 537L806 537 806 594 719 594ZM88 54L88 579 97 579C125 579 143 563 143 558L143 525 336 525 331 622C320 603 297 583 259 567L247 574C269 599 293 642 296 675 307 684 319 685 327 680 318 778 306 831 291 846 282 853 275 855 259 855 241 855 195 851 167 849L167 866C191 870 218 877 228 885 239 894 242 909 242 925 272 925 304 916 325 894 361 859 381 753 388 530 408 528 420 524 427 516L359 460 327 496 282 496 282 385 388 385C401 385 411 380 413 369 387 342 345 309 345 309L307 355 282 355 282 249 391 249C405 249 414 244 417 233 391 207 348 173 348 173L310 220 282 220 282 113 407 113C420 113 430 108 433 97 403 69 355 34 355 34L313 84 156 84ZM228 496L143 496 143 385 228 385ZM228 355L143 355 143 249 228 249ZM228 220L143 220 143 113 228 113Z"/>
</svg>