<svg xmlns="http://www.w3.org/2000/svg" name="gid14429" data-unicode="驢"
    viewBox="0 0 1000 1000">
  <!--
© 2017-2024 Adobe (http://www.adobe.com/).
Noto is a trademark of Google Inc.
This Font Software is licensed under the SIL Open Font License, Version 1.1. This Font Software is distributed on an "AS IS" BASIS, WITHOUT WARRANTIES OR CONDITIONS OF ANY KIND, either express or implied. See the SIL Open Font License for the specific language, permissions and limitations governing your use of this Font Software.
http://scripts.sil.org/OFL
  -->
<path d="M101 642L85 642C84 724 67 786 38 818-9 891 157 923 101 642ZM205 617L191 622C210 660 229 723 227 770 267 813 319 717 205 617ZM153 633L138 636C148 684 153 759 141 816 180 866 240 761 153 633ZM718 742L718 892 659 892 659 742ZM766 742L826 742 826 892 766 892ZM910 843L881 882 881 748C906 746 919 741 927 730L846 671 814 712 562 712 496 682 496 892 409 892 417 922 947 922C961 922 970 917 973 906 949 879 910 843 910 843ZM610 742L610 892 551 892 551 742ZM618 313L484 323 484 239 618 239ZM429 199L429 525C429 682 421 834 333 946L348 957C476 845 484 676 484 524L484 329 492 352 618 343 618 368C618 406 629 418 690 418L770 418C888 418 913 411 913 386 913 376 908 370 889 364L886 298 874 298C867 328 858 355 853 363 849 369 845 370 837 371 828 371 802 372 772 372L702 372C677 372 674 370 674 359L674 339 804 329C816 328 826 321 827 310 801 288 756 258 756 258L721 305 674 309 674 271C690 268 699 260 701 248L626 239 855 239 832 303 846 309C869 295 907 266 929 249 949 248 960 246 967 240L895 169 854 209 672 209 672 155 877 155C891 155 901 150 904 139 874 110 823 72 823 72L780 126 672 126 672 79C697 76 707 67 709 53L613 43 613 209 496 209 429 178ZM527 422L527 682 535 682C563 682 580 669 580 664L580 654 806 654 806 673 815 673C839 673 860 659 860 655L860 484C880 481 890 476 896 469L830 419 803 452 591 452ZM667 481L667 538 580 538 580 481ZM719 481L806 481 806 538 719 538ZM667 567L667 624 580 624 580 567ZM719 567L806 567 806 624 719 624ZM88 84L88 609 97 609C125 609 143 593 143 588L143 555 336 555 331 652C320 633 297 613 259 597L247 604C269 629 293 672 296 705 307 714 319 715 327 710 318 808 306 861 291 876 282 883 275 885 259 885 241 885 195 881 167 879L167 896C191 900 218 907 228 915 239 924 242 939 242 955 272 955 304 946 325 924 361 889 381 783 388 560 408 558 420 554 427 546L359 490 327 526 282 526 282 415 388 415C401 415 411 410 413 399 387 372 345 339 345 339L307 385 282 385 282 279 391 279C405 279 414 274 417 263 391 237 348 203 348 203L310 250 282 250 282 143 407 143C420 143 430 138 433 127 403 99 355 64 355 64L313 114 156 114ZM228 526L143 526 143 415 228 415ZM228 385L143 385 143 279 228 279ZM228 250L143 250 143 143 228 143Z"/>
</svg>