<svg xmlns="http://www.w3.org/2000/svg"
    viewBox="0 0 1000 1000">
  <!--
© 2017-2024 Adobe (http://www.adobe.com/).
Noto is a trademark of Google Inc.
This Font Software is licensed under the SIL Open Font License, Version 1.1. This Font Software is distributed on an "AS IS" BASIS, WITHOUT WARRANTIES OR CONDITIONS OF ANY KIND, either express or implied. See the SIL Open Font License for the specific language, permissions and limitations governing your use of this Font Software.
http://scripts.sil.org/OFL
  -->
<path d="M150 616L135 620C148 670 156 745 144 804 184 855 245 746 150 616ZM203 599L189 605C211 644 236 708 236 755 279 799 330 698 203 599ZM85 626C84 710 69 773 39 804-10 880 161 913 101 626ZM260 578L248 586C276 610 305 656 310 691 322 700 333 700 342 696 334 782 322 832 308 846 299 854 293 856 275 856 258 856 206 852 174 849L173 867C202 871 232 878 243 886 255 896 258 913 258 930 292 930 324 920 347 898 366 879 380 842 390 779L394 787C442 775 489 759 532 741L532 838 429 855 471 927C479 924 487 917 491 905 598 868 678 837 732 815L729 801 592 827 592 712C624 694 652 675 677 653 719 788 793 879 913 929 919 900 938 882 963 877L963 866C891 847 828 811 778 762 821 747 874 727 905 713 923 719 933 717 938 710L874 653C847 679 801 721 765 748 738 719 716 686 699 649L939 649C953 649 962 644 964 633 938 607 895 574 895 574L858 619 792 619 792 557 907 557C921 557 930 552 933 542 909 518 870 487 870 487L836 528 792 528 792 469 923 469C937 469 946 464 949 453 921 427 880 394 880 394L842 440 792 440 792 401C811 398 818 390 820 378L734 369C748 366 758 359 758 356L758 337 851 337 851 364 859 364C877 364 904 351 905 345L905 230C921 228 934 220 939 215L873 165 843 196 763 196 704 169 704 373 712 373C719 373 726 372 732 370L732 440 609 440 609 401C627 398 635 390 637 378L549 369 549 440 422 440 430 469 549 469 549 528 442 528 450 557 549 557 549 619 405 619 408 533C429 530 441 526 447 518L376 460 342 497 287 497 287 386 391 386C405 386 414 381 417 370 389 343 345 307 345 307L306 356 287 356 287 248 395 248C409 248 418 243 420 232 393 206 349 170 349 170L310 220 287 220 287 113 401 113 409 143 941 143C955 143 965 138 967 127 936 97 884 58 884 58L839 113 704 113 704 51C728 48 738 38 740 24L641 14 641 113 409 113C423 113 433 108 435 97 404 68 355 30 355 30L312 84 160 84 91 53 91 578 99 578C128 578 148 563 148 558L148 526 352 526 346 638C334 617 308 595 260 578ZM609 469L732 469 732 528 609 528ZM609 557L732 557 732 619 609 619ZM592 649C540 696 470 737 392 767 397 732 401 688 404 637L407 649ZM452 196L452 377 460 377C482 377 506 365 506 360L506 337 594 337 594 364 602 364C620 364 647 351 648 345L648 230C663 228 677 220 681 215L616 165 586 196 510 196 452 169ZM594 307L506 307 506 225 594 225ZM851 307L758 307 758 225 851 225ZM148 113L231 113 231 220 148 220ZM148 248L231 248 231 356 148 356ZM148 386L231 386 231 497 148 497Z"/>
</svg>