<svg xmlns="http://www.w3.org/2000/svg" name="gid14432" data-unicode="驩"
    viewBox="0 0 1000 1000">
  <!--
© 2017-2024 Adobe (http://www.adobe.com/).
Noto is a trademark of Google Inc.
This Font Software is licensed under the SIL Open Font License, Version 1.1. This Font Software is distributed on an "AS IS" BASIS, WITHOUT WARRANTIES OR CONDITIONS OF ANY KIND, either express or implied. See the SIL Open Font License for the specific language, permissions and limitations governing your use of this Font Software.
http://scripts.sil.org/OFL
  -->
<path d="M150 644L134 647C147 695 154 769 143 825 182 874 242 769 150 644ZM203 628L189 634C211 672 235 734 234 780 277 823 327 724 203 628ZM86 651C84 732 67 792 37 822-12 897 159 929 102 651ZM138 143L221 143 221 250 138 250ZM531 415C502 513 455 610 409 674 412 640 414 604 415 563 436 560 447 556 454 548L382 490 349 527 278 527 278 416 393 416C407 416 416 411 419 400 391 373 348 338 348 338L309 386 278 386 278 279 397 279C411 279 420 274 422 263 395 236 352 201 352 201L313 250 278 250 278 143 415 143 426 141 431 163 554 163 554 214 564 214C594 214 614 204 614 198L614 163 739 163 739 212 750 212C784 211 799 199 799 195L799 163 933 163C947 163 956 158 959 147 931 122 887 87 887 87L850 133 799 133 799 84C821 81 829 70 831 57L739 48 739 133 614 133 614 84C636 80 644 71 645 57L554 48 554 133 436 133C438 132 439 130 440 127 410 99 362 62 362 62L319 114 150 114 80 83 80 609 89 609C118 609 138 594 138 589L138 556 358 556C356 603 353 645 350 681 342 657 316 627 258 607L247 615C274 640 303 684 308 719 324 731 339 728 346 716 336 806 322 858 306 873 298 881 290 883 274 883 255 883 206 878 176 876L176 893C203 898 231 904 241 914 253 923 256 940 256 956 290 957 322 947 345 924 376 896 397 821 408 681L420 689C445 667 470 640 494 610L494 957 502 957C532 957 552 941 552 937L552 904 936 904C950 904 959 899 962 888 932 859 884 822 884 822L842 874 734 874 734 786 896 786C910 786 919 781 922 771 894 744 850 709 850 709L813 757 734 757 734 672 896 672C910 672 919 667 922 656 894 630 850 595 850 595L813 644 734 644 734 562 916 562C930 562 939 557 941 546 912 518 866 483 866 483L825 533 693 533C712 514 729 495 742 476 763 477 774 469 778 458L684 432C681 462 672 503 663 533L564 533 549 526C561 506 571 485 581 464 601 465 614 457 618 446ZM138 279L221 279 221 386 138 386ZM138 416L221 416 221 527 138 527ZM450 252L450 438 459 438C481 438 505 426 505 421L505 399 593 399 593 428 601 428C619 428 647 415 647 408L647 286C662 283 675 277 680 270L615 222 585 252 509 252 450 225ZM593 370L505 370 505 281 593 281ZM675 562L675 644 552 644 552 562ZM675 672L675 757 552 757 552 672ZM675 786L675 874 552 874 552 786ZM706 252L706 436 714 436C737 436 761 424 761 419L761 399 852 399 852 430 861 430C879 430 906 418 907 411L907 288C923 285 936 278 941 271L875 221 844 252 765 252 706 225ZM852 370L761 370 761 281 852 281Z"/>
</svg>