<svg xmlns="http://www.w3.org/2000/svg"
    viewBox="0 0 1000 1000">
  <!--
© 2017-2023 Adobe (http://www.adobe.com/).
Noto is a trademark of Google Inc.
This Font Software is licensed under the SIL Open Font License, Version 1.1. This Font Software is distributed on an "AS IS" BASIS, WITHOUT WARRANTIES OR CONDITIONS OF ANY KIND, either express or implied. See the SIL Open Font License for the specific language, permissions and limitations governing your use of this Font Software.
http://scripts.sil.org/OFL
  -->
<path d="M567 344L567 475C567 616 557 780 463 916L476 928C619 795 630 603 630 474L630 372 785 372 785 852C785 893 793 911 843 911L880 911C953 911 976 898 976 871 976 859 972 852 953 844L950 729 938 729C929 772 919 829 913 841 910 848 907 849 903 849 898 850 891 850 882 850L861 850C849 850 848 846 848 833L848 384C868 381 880 376 887 369L811 304 775 344 643 344 567 311ZM668 15L668 187 492 187 499 217 934 217C948 217 959 212 962 201 927 168 871 124 871 124L821 187 732 187 732 50C755 46 763 37 765 24ZM370 210L370 324 290 324 290 210ZM242 180L242 324 187 324 187 97 370 97 370 180 304 180 242 152ZM88 295C91 330 73 376 54 394 37 407 29 425 38 441 50 459 79 453 93 438 107 423 116 392 115 353L441 353 422 418 436 424C457 410 490 381 508 362 525 361 537 359 544 353L475 285 438 324 428 324 428 105C453 102 465 96 473 87L391 26 359 69 199 69 131 38 131 324 111 324 105 296ZM365 461L365 558 195 558 195 461ZM133 432L133 928 143 928C171 928 195 913 195 905L195 721 365 721 365 834C365 848 362 853 348 853 332 853 266 848 266 848L266 863C298 867 315 874 326 884 336 894 339 911 341 929 419 921 429 892 429 841L429 470C445 466 459 459 465 453L387 395 358 432 200 432 133 401ZM195 587L365 587 365 692 195 692Z"/>
</svg>