<svg xmlns="http://www.w3.org/2000/svg"
    viewBox="0 0 1000 1000">
  <!--
© 2017-2024 Adobe (http://www.adobe.com/).
Noto is a trademark of Google Inc.
This Font Software is licensed under the SIL Open Font License, Version 1.1. This Font Software is distributed on an "AS IS" BASIS, WITHOUT WARRANTIES OR CONDITIONS OF ANY KIND, either express or implied. See the SIL Open Font License for the specific language, permissions and limitations governing your use of this Font Software.
http://scripts.sil.org/OFL
  -->
<path d="M760 246L749 254C801 304 868 389 886 453 957 501 1001 350 760 246ZM353 222L353 344 293 344 293 222ZM247 194L247 344 186 344 186 106 353 106 353 194 306 194 247 166ZM131 460L131 929 141 929C168 929 192 913 192 907L192 732 353 732 353 830C353 843 349 848 335 848 319 848 257 843 257 843L257 859C287 863 304 870 315 880 324 891 327 908 329 927 406 919 415 889 415 838L415 497C432 494 445 487 450 481L402 445 416 451C435 434 467 402 484 382 502 381 513 379 520 372L453 305 416 344 409 344 409 113C433 110 446 104 454 94L373 35 341 77 198 77 131 47 131 344 115 344 109 313 91 313C93 347 73 390 53 406 36 418 28 438 37 454 48 472 77 467 92 452 106 437 117 409 117 372L421 372C415 397 407 427 401 444L374 423 344 460 197 460 131 429ZM579 234C563 282 543 330 520 372 500 408 478 441 457 466L471 477C531 434 590 365 634 287 654 288 666 281 671 270ZM353 489L353 580 192 580 192 489ZM192 610L353 610 353 702 192 702ZM656 13L656 182 459 182 467 212 934 212C948 212 958 207 961 196 928 164 875 122 875 122L828 182 721 182 721 48C744 44 752 35 754 22ZM603 477L630 440 594 429 584 472C560 500 514 543 488 565L539 616C545 610 547 602 541 593 555 570 574 533 590 503 607 577 632 643 664 700 613 785 543 859 451 912L460 926C559 883 635 820 693 748 745 824 811 884 891 929 902 898 924 879 953 876L956 866C867 830 787 776 724 704 772 634 804 556 825 481 851 481 860 475 864 463L762 436C748 511 724 587 688 658 650 605 621 544 603 477Z"/>
</svg>