<svg xmlns="http://www.w3.org/2000/svg" name="gid14465" data-unicode="髑"
    viewBox="0 0 1000 1000">
  <!--
© 2017-2024 Adobe (http://www.adobe.com/).
Noto is a trademark of Google Inc.
This Font Software is licensed under the SIL Open Font License, Version 1.1. This Font Software is distributed on an "AS IS" BASIS, WITHOUT WARRANTIES OR CONDITIONS OF ANY KIND, either express or implied. See the SIL Open Font License for the specific language, permissions and limitations governing your use of this Font Software.
http://scripts.sil.org/OFL
  -->
<path d="M705 721L694 729C708 742 723 761 736 781L662 789 662 688 739 688 739 718 746 718C769 718 791 706 791 702L791 553C809 550 819 545 825 538L762 490 736 521 662 521 662 467C684 464 692 455 694 444L610 434 610 521 548 521 498 499C522 474 544 447 564 417L868 417C863 691 855 842 829 869 820 878 814 881 796 881 777 881 721 876 685 872L684 890C716 896 751 903 762 913 775 924 778 941 778 959 816 959 851 948 874 921 912 877 923 727 928 424 949 422 961 417 967 408L893 347 858 387 582 387C594 368 604 347 614 326 636 328 647 320 651 309L617 296 851 296 851 331 860 331C888 331 911 318 911 315L911 131C930 128 939 123 946 116L878 64 848 99 531 99 461 69 461 339 471 339C501 339 519 325 519 320L519 296 553 296C515 409 452 506 387 566L400 578C430 560 458 538 485 512L485 729 493 729C519 729 536 716 536 711L536 688 610 688 610 794C532 802 466 808 429 810L461 881C471 879 480 873 485 860 597 837 682 816 747 800 755 815 761 831 764 845 814 885 861 781 705 721ZM519 266L519 128 596 128 596 266ZM851 266L773 266 773 128 851 128ZM646 266L646 128 723 128 723 266ZM536 658L536 550 610 550 610 658ZM739 658L662 658 662 550 739 550ZM328 240L328 357 273 357 273 240ZM228 210L228 357 178 357 178 127 328 127 328 210 287 210 228 182ZM87 325C90 360 72 404 53 420 36 433 29 451 38 467 49 484 78 479 91 464 105 449 114 422 114 386L397 386C391 409 384 436 379 451L394 457C412 443 440 413 456 394 474 393 486 391 493 384L427 320 392 357 382 357 382 134C407 132 421 126 428 117L348 57 316 98 189 98 125 69 125 357 111 357C110 347 107 337 104 326ZM324 491L324 590 184 590 184 491ZM125 462L125 957 135 957C162 957 184 943 184 936L184 753 324 753 324 864C324 877 320 882 306 882 291 882 229 877 229 877L229 893C258 897 276 904 286 914 296 924 299 941 300 959 375 952 384 921 384 872L384 500C401 496 415 489 421 483L345 426 315 462 189 462 127 433 125 435ZM184 620L324 620 324 723 184 723Z"/>
</svg>