<svg xmlns="http://www.w3.org/2000/svg"
    viewBox="0 0 1000 1000">
  <!--
© 2017-2024 Adobe (http://www.adobe.com/).
Noto is a trademark of Google Inc.
This Font Software is licensed under the SIL Open Font License, Version 1.1. This Font Software is distributed on an "AS IS" BASIS, WITHOUT WARRANTIES OR CONDITIONS OF ANY KIND, either express or implied. See the SIL Open Font License for the specific language, permissions and limitations governing your use of this Font Software.
http://scripts.sil.org/OFL
  -->
<path d="M339 222L339 325 286 325 286 222ZM241 194L241 325 182 325 182 106 339 106 339 194 300 194 241 166ZM85 292C88 327 68 370 49 386 32 399 24 418 33 434 43 451 73 446 87 432 102 417 111 389 111 353L408 353C402 377 394 406 388 422L403 429C423 413 452 382 469 362 487 361 499 359 506 352L439 287 404 325 395 325 395 113C420 110 433 104 441 94L359 35 327 77 194 77 127 47 127 325 109 325 103 293ZM333 469L333 559 188 559 188 469ZM127 439L127 929 137 929C164 929 188 914 188 907L188 711 333 711 333 832C333 845 329 850 315 850 299 850 238 845 238 845L238 861C267 865 285 872 295 882 304 893 307 910 309 929 385 922 394 890 394 840L394 477C411 474 425 466 431 460L354 403 324 439 192 439 127 409ZM188 589L333 589 333 681 188 681ZM574 591L574 686 437 686 444 716 573 716C569 789 538 865 423 917L434 931C589 880 628 794 634 716L751 716 751 929 762 929C785 929 812 915 812 908L812 716 942 716C956 716 965 711 967 700 939 673 892 637 892 637L851 686 812 686 812 623C831 619 839 612 841 601L751 591 751 686 635 686 635 626C658 622 665 614 667 601ZM882 311C858 337 819 377 786 405L786 301C802 298 812 289 814 278L729 268 729 335 680 293 649 326 592 326C604 306 615 285 624 264L933 264C947 264 956 259 959 248 929 221 883 187 883 187L841 235 444 235 452 264 555 264C532 338 481 424 428 481L439 495C469 473 499 446 526 415 542 431 557 451 561 470 569 475 577 477 584 477 545 531 495 571 431 606L442 623C583 568 656 487 706 360 716 360 723 359 729 357L729 522C729 559 738 574 791 574L843 574C932 574 955 564 955 540 955 529 951 523 933 516L929 433 917 433C910 468 901 505 896 515 893 521 889 522 883 522 878 523 863 523 845 523L805 523C788 523 786 520 786 509L786 428C828 410 881 384 912 367 930 373 939 372 944 364ZM645 355C634 387 621 416 606 442 602 425 583 407 543 396 554 383 564 369 574 355ZM750 14L750 111 623 111 623 51C648 47 658 38 660 23L564 14 564 111 445 111 453 140 564 140 564 205 575 205C597 205 623 192 623 185L623 140 750 140 750 204 761 204C784 204 809 191 809 184L809 140 937 140C950 140 959 135 962 124 933 95 887 57 887 57L844 111 809 111 809 51C835 47 844 38 846 23Z"/>
</svg>