<svg xmlns="http://www.w3.org/2000/svg"
    viewBox="0 0 1000 1000">
  <!--
© 2017-2024 Adobe (http://www.adobe.com/).
Noto is a trademark of Google Inc.
This Font Software is licensed under the SIL Open Font License, Version 1.1. This Font Software is distributed on an "AS IS" BASIS, WITHOUT WARRANTIES OR CONDITIONS OF ANY KIND, either express or implied. See the SIL Open Font License for the specific language, permissions and limitations governing your use of this Font Software.
http://scripts.sil.org/OFL
  -->
<path d="M830 15C749 68 635 115 544 146L556 164C657 144 776 109 866 70 885 76 894 75 902 66ZM842 145C764 200 655 247 564 276L575 294C677 276 792 241 879 198 898 204 907 203 913 194ZM864 270C769 344 652 389 533 419L541 438C672 420 798 386 903 325 925 330 934 328 941 319ZM356 334L346 344C365 354 385 370 404 387L217 396C237 377 258 352 277 327L533 327C547 327 556 322 558 311 529 285 485 253 485 253L447 297 220 297 220 246 479 246C492 246 501 241 504 230 478 207 440 180 440 180L407 217 220 217 220 167 473 167C487 167 496 162 499 152 474 129 435 101 435 101L403 138 220 138 220 95 508 95C522 95 531 90 533 80 505 53 460 19 460 19L421 66 232 66 158 34 158 297 38 297 46 327 209 327C200 351 189 377 178 398L64 401 108 474C118 472 126 466 132 454 261 434 356 420 425 408 440 424 452 442 460 457 523 490 553 366 356 334ZM207 551C202 612 177 756 158 816 188 824 216 821 229 811L242 749 763 749C755 797 744 830 732 841 724 847 714 849 696 849 675 849 594 843 550 839L550 856C589 862 634 871 650 882 665 892 670 909 670 927 711 927 748 918 772 899 810 868 833 773 841 639 861 636 873 631 880 624L806 563 768 602 509 602 509 516 924 516C938 516 947 511 950 500 916 470 864 429 864 429L816 486 58 486 67 516 445 516 445 720 247 720C256 670 264 618 268 589 293 587 303 577 306 563ZM509 631L777 631C774 664 771 694 768 720L509 720Z"/>
</svg>