<svg xmlns="http://www.w3.org/2000/svg"
    viewBox="0 0 1000 1000">
  <!--
© 2017-2024 Adobe (http://www.adobe.com/).
Noto is a trademark of Google Inc.
This Font Software is licensed under the SIL Open Font License, Version 1.1. This Font Software is distributed on an "AS IS" BASIS, WITHOUT WARRANTIES OR CONDITIONS OF ANY KIND, either express or implied. See the SIL Open Font License for the specific language, permissions and limitations governing your use of this Font Software.
http://scripts.sil.org/OFL
  -->
<path d="M838 14C757 76 649 124 552 154L562 173C670 153 786 117 875 68 896 73 904 72 911 62ZM841 145C767 206 669 251 574 279L585 298C690 280 796 247 880 197 900 202 908 200 914 191ZM863 271C773 352 664 395 540 422L547 442C683 425 803 393 906 324 928 329 937 326 944 316ZM279 442C220 562 132 674 56 739L68 751C115 725 162 691 206 649L206 928 218 928C242 928 269 913 270 908L270 636C286 633 297 627 300 619L254 601C282 571 307 538 331 504 352 509 366 502 372 492ZM322 575L330 605 535 605C483 700 401 788 299 852L309 868C423 816 519 745 586 656L586 929 599 929C624 929 651 914 651 905L651 615C709 727 805 815 904 866 913 836 933 817 959 813L960 802C856 769 739 695 671 605L924 605C938 605 948 600 950 589 917 557 863 516 863 516L816 575 651 575 651 492C674 488 682 479 684 467L586 456 586 575ZM377 345L366 353C381 364 398 377 413 392L224 401C244 382 266 358 285 334L540 334C554 334 563 329 565 318 537 292 493 260 493 260L454 304 222 304 222 252 477 252C490 252 500 247 503 236 477 213 438 186 438 186L406 223 222 223 222 173 472 173C486 173 494 168 497 157 472 135 434 108 434 108L402 145 222 145 222 95 506 95C520 95 530 90 532 80 503 53 458 19 458 19L420 66 235 66 160 34 160 304 40 304 48 334 217 334C209 357 198 383 188 402L72 406 115 479C125 477 133 471 139 459 269 439 365 425 434 413 451 431 466 450 474 467 534 499 568 383 377 345Z"/>
</svg>