<svg xmlns="http://www.w3.org/2000/svg" name="gid14510" data-unicode="鬈"
    viewBox="0 0 1000 1000">
  <!--
© 2017-2024 Adobe (http://www.adobe.com/).
Noto is a trademark of Google Inc.
This Font Software is licensed under the SIL Open Font License, Version 1.1. This Font Software is distributed on an "AS IS" BASIS, WITHOUT WARRANTIES OR CONDITIONS OF ANY KIND, either express or implied. See the SIL Open Font License for the specific language, permissions and limitations governing your use of this Font Software.
http://scripts.sil.org/OFL
  -->
<path d="M825 44C745 99 632 149 540 182L553 200C654 178 773 139 860 97 880 103 889 102 896 93ZM831 157C758 212 659 256 570 284L582 303C680 285 787 253 868 209 887 214 897 212 903 203ZM857 268C764 344 646 391 525 420L533 439C665 421 792 386 897 321 917 326 927 324 934 315ZM700 422L693 432C738 456 797 505 819 544 887 573 910 440 700 422ZM83 400L125 472C135 469 143 464 149 452L243 439C219 488 173 545 128 578L138 591C203 565 265 517 305 475 328 478 335 474 340 464L254 438C333 426 396 417 445 408 457 421 467 434 472 447 530 477 560 370 400 342L548 342C561 342 570 337 572 326 544 302 500 269 500 269L463 313 230 313 230 268 483 268C496 268 504 263 507 252 482 229 445 202 445 202L413 239 230 239 230 195 478 195C492 195 500 190 503 180 479 157 441 130 441 130L409 166 230 166 230 123 514 123C528 123 537 119 540 108 511 82 467 49 467 49L428 94 242 94 167 62 167 313 41 313 49 342 210 342C203 361 194 381 186 398ZM378 342L372 349C389 359 408 373 425 388L226 396C243 380 260 361 276 342ZM442 437C430 461 416 486 399 510L272 510 280 539 378 539C361 561 343 583 322 604L42 604 51 634 291 634C224 695 140 750 35 790L42 804C136 776 215 739 281 698L281 884C281 936 301 949 401 949L568 949C793 949 828 940 828 907 828 896 820 889 796 882L792 788 780 788C769 832 759 866 750 880 745 888 740 891 723 892 702 894 643 894 571 894L405 894C349 894 345 891 345 875L345 727 634 727C631 755 627 773 620 778 616 783 608 784 592 784 575 784 510 779 476 777L476 794C506 798 543 806 556 814 568 823 572 838 572 852 603 853 634 846 652 835 679 818 689 785 692 732 710 730 722 726 728 719L659 665 627 698 357 698 312 678C332 664 352 649 369 634L650 634C721 699 815 745 916 776 924 747 942 729 967 724L968 713C885 698 800 671 727 634L933 634C946 634 956 629 959 618 926 587 874 548 874 548L827 604 675 604C645 585 619 563 598 539L745 539C759 539 767 534 770 523 742 496 696 461 696 461L656 510 483 510 497 489C516 491 530 485 536 473ZM570 539C585 562 601 584 620 604L403 604C425 583 444 561 462 539Z"/>
</svg>