<svg xmlns="http://www.w3.org/2000/svg" name="gid14516" data-unicode="鬐"
    viewBox="0 0 1000 1000">
  <!--
© 2017-2024 Adobe (http://www.adobe.com/).
Noto is a trademark of Google Inc.
This Font Software is licensed under the SIL Open Font License, Version 1.1. This Font Software is distributed on an "AS IS" BASIS, WITHOUT WARRANTIES OR CONDITIONS OF ANY KIND, either express or implied. See the SIL Open Font License for the specific language, permissions and limitations governing your use of this Font Software.
http://scripts.sil.org/OFL
  -->
<path d="M826 42C739 89 616 129 521 154L533 173C637 158 763 128 855 94 875 100 884 99 891 91ZM835 135C754 181 642 218 549 239L560 257C662 246 779 221 867 186 886 190 895 189 902 181ZM864 220C769 279 652 314 537 334L547 354C670 343 794 319 899 271 918 277 927 276 935 266ZM212 741L212 961 222 961C247 961 276 947 276 941L276 921 728 921 728 956 738 956C759 956 791 941 792 934L792 775C806 772 819 766 823 760L753 708 720 741 282 741 212 709ZM728 893L276 893 276 844 728 844ZM728 815L276 815 276 770 728 770ZM303 534L303 566C219 591 132 611 46 626L50 646C136 635 221 619 303 600L303 624C303 689 320 699 427 699L754 699C856 699 886 687 886 662 886 652 881 650 852 642L850 593 837 593C826 624 819 640 811 646 804 653 786 653 757 653L425 653C369 653 366 652 366 626 505 622 659 606 764 590 785 600 801 601 810 593L754 537C665 562 504 590 366 604L366 584C433 566 498 546 558 524L918 524C932 524 941 519 944 509 913 482 867 450 867 450L825 495 635 495C712 464 781 430 838 397 864 405 880 403 888 393L810 341C781 363 744 386 703 408L653 369 615 412 508 412 508 381C530 377 538 369 540 356L446 346 446 412 180 412 188 442 446 442 446 495 50 495 58 524 436 524 377 544ZM508 442L637 442C599 460 557 478 514 495L508 495ZM71 351L111 419C121 417 128 412 134 399 241 383 321 371 379 361 386 371 392 381 395 390 445 421 482 333 361 306L533 306C546 306 556 301 558 290 530 265 488 235 488 235L451 276 217 276 217 243 464 243C478 243 487 238 490 227 465 205 430 180 430 180L398 213 217 213 217 179 460 179C474 179 482 174 485 163 461 141 426 116 426 116L395 149 217 149 217 115 491 115C505 115 513 110 516 99 489 74 445 43 445 43L408 86 229 86 157 54 157 276 40 276 48 306 206 306 191 348ZM326 306L322 309C335 317 349 328 361 341L231 347C243 334 256 320 268 306Z"/>
</svg>