<svg xmlns="http://www.w3.org/2000/svg" name="gid14518" data-unicode="鬖"
    viewBox="0 0 1000 1000">
  <!--
© 2017-2024 Adobe (http://www.adobe.com/).
Noto is a trademark of Google Inc.
This Font Software is licensed under the SIL Open Font License, Version 1.1. This Font Software is distributed on an "AS IS" BASIS, WITHOUT WARRANTIES OR CONDITIONS OF ANY KIND, either express or implied. See the SIL Open Font License for the specific language, permissions and limitations governing your use of this Font Software.
http://scripts.sil.org/OFL
  -->
<path d="M529 619C437 683 311 731 202 762L213 781C332 759 461 720 561 669 579 674 589 672 596 663ZM639 688C511 768 351 816 199 845L208 865C369 845 532 808 668 740 689 746 699 745 706 736ZM761 761C572 880 378 916 146 937L149 958C391 950 586 924 792 818 816 825 826 824 834 815ZM825 45C742 92 627 133 536 157L548 176C647 161 767 131 855 96 874 102 883 101 890 92ZM829 141C752 190 646 228 558 250L569 269C666 255 779 228 862 192 881 197 890 196 897 187ZM863 229C767 294 653 331 533 353L541 373C670 361 793 335 898 280 920 284 928 282 936 273ZM79 356L119 424C129 422 137 416 142 404L381 374C368 400 350 433 331 457L193 459 215 505 180 493C170 524 154 565 137 597L67 599 103 668C112 665 120 660 126 647 202 633 260 620 303 609L308 627 310 628C231 676 135 718 38 746L41 763C237 722 415 635 509 555 592 645 743 709 910 746 916 722 934 700 963 693L963 678C868 667 773 648 691 621 750 608 794 596 828 587 837 603 844 619 848 633 903 670 950 563 792 521L781 529C792 539 804 553 815 568L681 577C699 560 715 543 728 526 748 528 761 519 766 509L683 482C673 511 659 550 644 580L608 581 615 592C581 578 551 562 526 545 554 541 564 537 566 525L465 501C440 534 402 567 357 598 352 578 328 553 272 536L260 543C272 555 284 571 293 588L169 595C190 576 210 556 223 537 243 539 256 530 260 519L244 514C247 512 248 510 250 507 454 493 607 481 721 469 745 483 763 496 775 508 835 526 850 408 592 392L588 408C623 420 655 434 684 448L373 457C395 443 415 429 430 414 450 416 463 409 469 398L393 372 457 363C469 376 478 388 484 400 535 427 565 341 448 309L533 309C547 309 556 304 558 293 533 271 497 245 491 241 498 239 503 234 504 227 480 205 444 180 444 180L414 213 226 213 226 178 475 178C488 178 497 173 500 162 476 140 440 115 440 115L410 148 226 148 226 112 506 112C520 112 529 107 532 96 504 71 461 40 461 40L424 83 239 83 166 51 166 280 41 280 49 309 206 309 190 353ZM226 280L226 243 480 243 485 242 451 280ZM390 309C404 319 421 330 436 344L230 352C243 339 256 324 269 309Z"/>
</svg>