<svg xmlns="http://www.w3.org/2000/svg" name="gid14521" data-unicode="鬚"
    viewBox="0 0 1000 1000">
  <!--
© 2017-2024 Adobe (http://www.adobe.com/).
Noto is a trademark of Google Inc.
This Font Software is licensed under the SIL Open Font License, Version 1.1. This Font Software is distributed on an "AS IS" BASIS, WITHOUT WARRANTIES OR CONDITIONS OF ANY KIND, either express or implied. See the SIL Open Font License for the specific language, permissions and limitations governing your use of this Font Software.
http://scripts.sil.org/OFL
  -->
<path d="M315 451C249 520 156 583 69 624L82 642C179 611 282 561 356 504 376 508 384 507 390 498ZM335 590C266 662 171 723 80 765L93 783C193 752 298 701 374 643 394 647 403 645 410 636ZM358 733C278 825 169 893 55 939L66 957C191 922 310 864 401 785 422 789 431 787 437 778ZM595 828C544 869 437 918 342 941L347 959C450 948 558 915 622 885 643 891 659 891 667 882ZM700 843L695 860C783 884 846 916 882 948 943 991 1036 871 700 843ZM829 43C750 102 642 152 549 184L560 203C663 180 779 142 865 96 885 101 894 100 899 91ZM847 160C771 220 671 265 575 293L585 312C691 294 799 260 884 211 903 216 913 214 919 205ZM867 276C774 352 660 394 537 420L545 440C679 425 802 393 906 327 928 332 938 330 944 321ZM532 660L805 660 805 713 532 713ZM532 631L532 579 805 579 805 631ZM532 742L805 742 805 796 532 796ZM387 470L395 500 624 500 617 549 537 549 471 519 471 858 480 858C506 858 532 844 532 838L532 825 805 825 805 852 814 852C835 852 866 838 867 831L867 587C884 584 898 577 903 570L829 512 796 549 657 549C668 534 680 517 690 500L926 500C939 500 949 495 951 484 920 455 872 418 872 418L828 470ZM369 344L360 353C375 364 392 378 408 393L208 403C226 386 245 365 263 344L534 344C547 344 556 339 559 328 531 303 487 271 487 271L448 315 215 315 215 268 476 268C489 268 498 263 501 252 476 230 438 203 438 203L407 240 215 240 215 196 471 196C485 196 494 191 497 180 472 158 435 130 435 130L403 167 215 167 215 123 508 123C522 123 531 119 533 108 505 82 460 49 460 49L422 94 228 94 153 62 153 315 35 315 42 344 196 344C189 365 179 387 170 404L65 407 108 479C117 476 125 471 132 458 262 441 359 426 430 414 443 428 454 442 462 454 519 483 553 376 369 344Z"/>
</svg>