<svg xmlns="http://www.w3.org/2000/svg" name="gid14526" data-unicode="鬠"
    viewBox="0 0 1000 1000">
  <!--
© 2017-2024 Adobe (http://www.adobe.com/).
Noto is a trademark of Google Inc.
This Font Software is licensed under the SIL Open Font License, Version 1.1. This Font Software is distributed on an "AS IS" BASIS, WITHOUT WARRANTIES OR CONDITIONS OF ANY KIND, either express or implied. See the SIL Open Font License for the specific language, permissions and limitations governing your use of this Font Software.
http://scripts.sil.org/OFL
  -->
<path d="M340 488L348 518 624 518C637 518 646 513 649 502 623 478 584 450 584 450L551 488ZM832 46C749 94 633 136 543 162L555 181C655 164 775 133 863 98 882 104 891 103 898 94ZM849 142C771 192 664 233 574 257L586 276C685 260 798 231 883 193 901 198 910 197 917 189ZM80 362L120 431C128 428 137 423 142 410 256 393 343 378 408 366L419 384C327 443 191 505 50 541L58 558C99 551 139 542 178 532L178 732 188 732C203 732 215 728 224 724L224 956 233 956C259 956 288 941 288 936L288 915 704 915 704 950 714 950C735 950 768 936 769 929L769 772C782 769 794 763 799 757L729 705 696 738 293 738 238 713 239 711 239 688 760 688 760 717 769 717C788 717 819 705 820 699L820 585C835 583 847 576 852 570L789 523C823 532 857 540 891 546 897 519 921 505 954 499L957 486C826 475 624 436 527 387 549 388 563 386 568 380L569 383C688 372 808 345 907 298 927 304 936 302 944 293L871 245C781 304 670 342 560 364L563 371 476 342 467 350C455 331 428 312 381 301L543 301C557 301 566 296 568 285 540 260 499 232 498 231 501 230 503 227 504 223 482 202 449 180 446 178L475 178C488 178 497 173 500 162 477 141 445 118 442 116L507 116C521 116 530 111 532 100 505 75 462 44 462 44L425 87 234 87 162 55 162 272 40 272 48 301 208 301C202 320 194 341 187 358ZM704 886L288 886 288 840 704 840ZM704 810L288 810 288 767 704 767ZM760 658L629 658C651 644 671 630 687 616 706 621 721 616 728 606L681 581 760 581ZM468 658L393 658C410 642 402 600 330 581L468 581ZM529 658L529 581 644 581C629 606 609 636 592 658ZM358 658L239 658 239 581 293 581 290 584C315 601 345 632 358 658ZM752 551L251 551 197 527C317 494 426 447 505 401 577 447 675 491 781 520ZM222 272L222 239 480 239C486 239 490 238 494 236L461 272ZM350 301L345 305C360 315 376 329 390 345L226 356C241 339 257 320 271 301ZM222 116L440 116 410 148 222 148ZM222 210L222 178 444 178 414 210Z"/>
</svg>