<svg xmlns="http://www.w3.org/2000/svg" name="gid14555" data-unicode="魄"
    viewBox="0 0 1000 1000">
  <!--
© 2017-2024 Adobe (http://www.adobe.com/).
Noto is a trademark of Google Inc.
This Font Software is licensed under the SIL Open Font License, Version 1.1. This Font Software is distributed on an "AS IS" BASIS, WITHOUT WARRANTIES OR CONDITIONS OF ANY KIND, either express or implied. See the SIL Open Font License for the specific language, permissions and limitations governing your use of this Font Software.
http://scripts.sil.org/OFL
  -->
<path d="M149 255L296 255 296 483 149 483ZM197 45C191 100 182 177 174 226L161 226 87 194 87 876 97 876C128 876 149 859 149 854L149 777 296 777 296 826 305 826C327 826 358 810 359 803L359 267C377 263 393 255 400 248L322 186 286 226 207 226C226 185 251 126 267 84 287 83 300 74 302 60ZM149 512L296 512 296 748 149 748ZM483 373L629 373 629 519 483 519ZM483 343L483 205 629 205 629 343ZM844 373L844 519 689 519 689 373ZM844 343L689 343 689 205 844 205ZM619 42C607 82 587 139 573 176L495 176 423 145 423 599 433 599C464 599 483 584 483 580L483 548 523 548C508 736 448 851 259 941L265 956C490 882 570 763 592 548L659 548 659 880C659 924 672 939 738 939L818 939C942 940 968 929 968 903 968 891 962 884 942 878L939 807 927 807C919 837 910 869 903 877 899 882 894 884 887 884 876 885 851 885 821 885L751 885C722 885 719 880 719 866L719 548 844 548 844 585 854 585C883 585 906 570 906 566L906 209C927 206 938 201 945 192L873 138 840 176 614 176C639 149 670 113 690 87 712 88 724 81 729 66ZM719 748L748 817C758 815 766 809 771 796 820 780 858 768 885 758 889 771 892 782 893 793 935 834 988 746 861 678L848 685C858 699 869 718 878 738L789 744C811 705 832 662 846 630 867 631 879 622 882 610L796 585C789 633 775 697 762 746Z"/>
</svg>