<svg xmlns="http://www.w3.org/2000/svg"
    viewBox="0 0 1000 1000">
  <!--
© 2017-2023 Adobe (http://www.adobe.com/).
Noto is a trademark of Google Inc.
This Font Software is licensed under the SIL Open Font License, Version 1.1. This Font Software is distributed on an "AS IS" BASIS, WITHOUT WARRANTIES OR CONDITIONS OF ANY KIND, either express or implied. See the SIL Open Font License for the specific language, permissions and limitations governing your use of this Font Software.
http://scripts.sil.org/OFL
  -->
<path d="M611 226L715 226 715 363 611 363ZM247 10L222 141 148 141 85 111 85 531 94 531C119 531 143 517 143 511L143 493 167 493C164 664 140 800 32 915L40 928C179 824 221 685 232 493L282 493 282 829C282 893 310 906 429 906L641 906C921 906 962 899 962 865 962 852 954 845 927 838L923 757 912 757C898 798 888 825 878 838 871 844 863 848 845 848 816 851 738 852 644 852L428 852C350 852 342 845 342 820L342 704 374 755C381 752 389 748 393 735 430 722 459 711 481 702 484 715 485 729 485 741 524 781 575 695 466 610L452 615C461 633 470 657 477 681L412 688C427 649 439 607 447 574 469 573 480 564 483 552L403 533C400 580 393 642 385 691L342 696 342 493 406 493 406 521 415 521C435 521 465 505 466 498L466 387 479 394C505 367 529 335 551 300L551 804 561 804C591 804 611 788 611 783L611 735 929 735C943 735 953 730 955 719 924 688 873 646 873 646L828 705 774 705 774 561 913 561C927 561 936 556 939 545 910 516 862 476 862 476L821 532 774 532 774 393 913 393C927 393 936 388 939 377 910 347 862 308 862 308L821 363 774 363 774 226 926 226C940 226 949 221 952 210 920 181 870 141 870 141L825 197 732 197C764 158 794 112 814 76 835 77 846 68 850 56L750 29C740 80 724 147 707 197L623 197 609 191C626 152 642 111 655 69 677 68 688 59 692 47L591 19C566 154 519 289 466 380L466 181C485 177 501 169 507 161L430 103 396 141 255 141C273 113 294 79 309 52 330 51 342 43 345 30ZM611 561L715 561 715 705 611 705ZM611 532L611 393 715 393 715 532ZM406 465L302 465 302 331 406 331ZM406 301L302 301 302 170 406 170ZM143 465L143 331 244 331 244 465ZM143 301L143 170 244 170 244 301Z"/>
</svg>