<svg xmlns="http://www.w3.org/2000/svg" name="gid14560" data-unicode="魍"
    viewBox="0 0 1000 1000">
  <!--
© 2017-2024 Adobe (http://www.adobe.com/).
Noto is a trademark of Google Inc.
This Font Software is licensed under the SIL Open Font License, Version 1.1. This Font Software is distributed on an "AS IS" BASIS, WITHOUT WARRANTIES OR CONDITIONS OF ANY KIND, either express or implied. See the SIL Open Font License for the specific language, permissions and limitations governing your use of this Font Software.
http://scripts.sil.org/OFL
  -->
<path d="M597 182L584 188C603 220 624 270 625 310 665 350 718 262 597 182ZM490 125L490 821 499 821C526 821 547 807 547 799L547 155 854 155 854 718C854 731 850 736 835 736 819 736 746 731 746 731L746 746C779 752 798 759 810 768 820 778 824 795 826 812 904 804 912 774 912 725L912 164C930 161 945 154 951 146L875 89 845 125 552 125 490 95ZM747 180C737 227 719 291 703 336L556 336 564 365 829 365C842 365 851 360 854 349 832 326 798 298 798 298L768 336 725 336C751 300 774 255 789 222 811 222 822 213 826 202ZM595 477L595 639C595 676 604 689 653 689L705 689C796 689 817 679 817 657 817 645 809 641 791 636L788 635 779 635C774 637 767 638 762 638 760 639 756 639 751 639 745 639 728 639 710 639L666 639C649 639 647 636 647 626L647 506 809 506C823 506 831 501 834 490 814 467 781 439 781 439L753 477 719 477 719 405C737 402 744 394 745 384L668 374 668 477 659 477 595 447ZM228 40C223 79 212 134 203 171L146 171 85 142 85 560 94 560C118 560 141 547 141 541L141 523 158 523C157 693 134 829 29 944L37 958C172 853 210 714 220 523L260 523 260 859C260 923 288 936 409 936L629 936C916 936 958 929 958 896 958 882 950 876 922 870L919 788 907 788C895 830 883 857 873 869 867 876 858 879 840 880 810 883 729 884 631 884L407 884C325 884 317 876 317 852L317 742 343 785C351 782 359 778 363 765 393 754 417 743 436 735 438 748 439 761 439 772 476 811 523 727 421 640L407 645C416 663 425 687 431 712L374 719C389 680 401 637 410 604 431 603 442 594 445 582L366 563C363 610 356 672 348 722L317 725 317 523 369 523 369 551 377 551C396 551 425 535 426 529L426 211C445 207 461 199 468 191L393 134 359 171 237 171C255 143 276 109 291 82 311 81 324 73 327 60ZM369 495L282 495 282 361 369 361ZM369 331L282 331 282 200 369 200ZM141 495L141 361 227 361 227 495ZM141 331L141 200 227 200 227 331Z"/>
</svg>