<svg xmlns="http://www.w3.org/2000/svg"
    viewBox="0 0 1000 1000">
  <!--
© 2017-2024 Adobe (http://www.adobe.com/).
Noto is a trademark of Google Inc.
This Font Software is licensed under the SIL Open Font License, Version 1.1. This Font Software is distributed on an "AS IS" BASIS, WITHOUT WARRANTIES OR CONDITIONS OF ANY KIND, either express or implied. See the SIL Open Font License for the specific language, permissions and limitations governing your use of this Font Software.
http://scripts.sil.org/OFL
  -->
<path d="M487 215L487 795 496 795C520 795 542 781 542 775L542 615C568 589 593 539 605 487 612 539 626 588 645 615 649 600 658 587 667 582L667 775 675 775C703 775 721 761 721 756L721 614C751 589 777 539 789 487 796 539 813 588 832 615 836 603 842 591 850 586L850 700C850 711 847 717 833 717 820 717 766 712 766 712L766 728C793 731 807 736 818 743 825 750 828 762 830 776 897 769 907 746 907 704L907 252C924 249 938 241 944 235L870 179 841 215 725 215 725 111 931 111C945 111 956 106 958 95 926 66 873 25 873 25L828 82 458 82 466 111 663 111 663 215 548 215 487 186ZM764 361L729 361 734 391 773 391 773 410C769 480 746 547 721 589L721 244 850 244 850 556C821 524 803 473 796 409L796 394C816 390 829 383 835 376L782 335ZM580 361L547 361 552 391 589 391 589 410C586 477 565 542 542 584L542 244 667 244 667 560C638 528 618 476 612 409L612 394C632 390 644 384 651 376L598 335ZM228 10C223 49 212 104 203 141L146 141 85 112 85 530 94 530C118 530 141 517 141 511L141 493 158 493C157 663 134 799 29 914L37 928C172 823 210 684 220 493L260 493 260 829C260 893 288 906 409 906L629 906C916 906 958 899 958 866 958 852 950 846 922 840L919 758 907 758C895 800 883 827 873 839 867 846 858 849 840 850 810 853 729 854 631 854L407 854C325 854 317 846 317 822L317 712 343 755C351 752 359 748 363 735 393 724 417 713 436 705 438 718 439 731 439 742 476 781 523 697 421 610L407 615C416 633 425 657 431 682L374 689C389 650 401 607 410 574 431 573 442 564 445 552L366 533C363 580 356 642 348 692L317 695 317 493 369 493 369 521 377 521C396 521 425 505 426 499L426 181C445 177 461 169 468 161L393 104 359 141 237 141C255 113 276 79 291 52 311 51 324 43 327 30ZM369 465L282 465 282 331 369 331ZM369 301L282 301 282 170 369 170ZM141 465L141 331 227 331 227 465ZM141 301L141 170 227 170 227 301Z"/>
</svg>