<svg xmlns="http://www.w3.org/2000/svg"
    viewBox="0 0 1000 1000">
  <!--
© 2017-2023 Adobe (http://www.adobe.com/).
Noto is a trademark of Google Inc.
This Font Software is licensed under the SIL Open Font License, Version 1.1. This Font Software is distributed on an "AS IS" BASIS, WITHOUT WARRANTIES OR CONDITIONS OF ANY KIND, either express or implied. See the SIL Open Font License for the specific language, permissions and limitations governing your use of this Font Software.
http://scripts.sil.org/OFL
  -->
<path d="M656 12C648 53 635 111 626 149L543 149 472 118 472 200C443 173 404 142 404 142L363 192 288 192 288 99C330 92 369 84 401 77 424 86 440 86 449 78L379 12C307 45 167 89 53 108L57 126C113 123 172 117 228 109L228 192 42 192 50 221 201 221C162 299 103 371 33 426L43 443C117 402 180 351 228 291L228 447 237 447C267 447 288 432 288 426L288 269C336 297 393 347 413 388 476 422 505 293 288 254L288 221 453 221C461 221 468 219 472 214L472 550 417 505 375 557 234 557 265 486C289 485 300 475 305 462L212 444C203 471 187 513 167 557L39 557 47 587 153 587C126 646 95 706 73 741 99 752 126 753 141 747L161 708C194 725 229 747 262 770 212 826 141 869 40 905L46 921C157 893 240 855 300 799 325 821 347 843 360 863 413 882 430 814 341 754 376 708 399 653 413 587L469 587C483 587 492 582 495 571L474 552 482 552C512 552 532 539 532 533L532 516 561 516C555 697 522 816 368 915L376 930C562 845 616 723 628 516L683 516 683 846C683 890 694 905 758 905L829 905C943 906 969 895 969 870 969 857 963 850 943 843L939 773 928 773C920 802 911 834 905 843 901 848 896 849 890 849 880 850 858 850 832 850L772 850C747 850 744 846 744 832L744 516 853 516 853 536 862 536C890 536 914 522 914 517L914 182C933 179 944 173 951 165L881 111 849 149 664 149C684 121 710 82 726 54 747 54 760 46 763 32ZM293 727C261 713 221 699 171 690L220 587 346 587C336 641 319 687 293 727ZM532 346L659 346 659 487 532 487ZM532 316L532 178 659 178 659 316ZM853 346L853 487 718 487 718 346ZM853 316L718 316 718 178 853 178ZM751 711L780 778C789 776 798 771 803 758 841 745 873 734 896 725 899 737 901 748 902 759 943 799 995 713 874 638L861 643C871 659 881 681 889 702L813 708C832 669 850 628 863 596 884 596 896 587 899 575L815 553C808 600 797 660 785 709Z"/>
</svg>