<svg xmlns="http://www.w3.org/2000/svg" name="gid14571" data-unicode="魞"
    viewBox="0 0 1000 1000">
  <!--
© 2017-2024 Adobe (http://www.adobe.com/).
Noto is a trademark of Google Inc.
This Font Software is licensed under the SIL Open Font License, Version 1.1. This Font Software is distributed on an "AS IS" BASIS, WITHOUT WARRANTIES OR CONDITIONS OF ANY KIND, either express or implied. See the SIL Open Font License for the specific language, permissions and limitations governing your use of this Font Software.
http://scripts.sil.org/OFL
  -->
<path d="M213 740L199 744C211 788 220 856 211 910 255 965 325 857 213 740ZM302 729L289 735C311 776 335 842 335 892 385 941 446 830 302 729ZM394 718L382 725C418 762 453 825 454 875 511 923 567 793 394 718ZM128 741C129 805 98 872 66 897 47 911 38 932 48 950 61 969 95 962 113 943 144 913 170 841 146 742ZM282 311L178 311 140 294C164 260 186 223 206 184L331 184C317 222 298 274 282 311ZM192 40C156 173 96 306 37 389L51 399C69 382 87 363 104 342L104 713 115 713C145 713 166 697 166 691L166 664 405 664 405 699 417 699C439 699 464 684 466 680L466 350C482 347 496 340 503 332L438 275 405 311 306 311C338 275 378 222 401 192 422 191 433 190 440 183L369 115 330 155 221 155C231 134 240 112 249 90 271 91 282 82 287 70ZM256 340L256 468 166 468 166 340ZM310 340L405 340 405 468 310 468ZM256 498L256 636 166 636 166 498ZM310 498L405 498 405 636 310 636ZM531 114L540 144 697 144C658 477 593 739 462 945L481 959C630 782 690 567 719 366 746 610 795 812 905 961 916 938 940 917 967 912L972 902C817 732 757 446 728 161 766 158 793 151 806 136L710 62 674 114Z"/>
</svg>