<svg xmlns="http://www.w3.org/2000/svg" name="gid14579" data-unicode="魬"
    viewBox="0 0 1000 1000">
  <!--
© 2017-2024 Adobe (http://www.adobe.com/).
Noto is a trademark of Google Inc.
This Font Software is licensed under the SIL Open Font License, Version 1.1. This Font Software is distributed on an "AS IS" BASIS, WITHOUT WARRANTIES OR CONDITIONS OF ANY KIND, either express or implied. See the SIL Open Font License for the specific language, permissions and limitations governing your use of this Font Software.
http://scripts.sil.org/OFL
  -->
<path d="M200 739L185 743C197 788 204 857 195 911 238 965 306 859 200 739ZM282 727L269 732C290 775 312 841 312 892 361 941 420 832 282 727ZM117 741C118 804 90 872 59 898 41 913 33 933 42 950 56 968 88 960 107 940 135 910 160 839 135 742ZM276 309L174 309 140 293C162 260 184 223 203 185L323 185C310 222 292 272 276 309ZM191 41C155 173 95 306 36 390L52 399C69 382 86 363 103 343L103 710 113 710C142 710 162 694 162 689L162 663 388 663 388 697 400 697C422 697 445 682 447 678L447 348C463 345 477 338 484 330L421 274 388 309 301 309C331 273 368 222 390 193 411 192 422 190 429 184L361 117 322 156 218 156C228 134 237 112 246 90 268 91 279 82 283 70ZM247 337L247 467 162 467 162 337ZM300 337L388 337 388 467 300 467ZM247 497L247 634 162 634 162 497ZM300 497L388 497 388 634 300 634ZM518 124L518 430C518 566 516 709 479 834 476 800 447 753 372 717L361 724C393 761 425 823 424 873 440 887 455 886 465 875 456 900 445 925 432 948L448 958C573 811 577 598 577 429L577 384 615 384C633 520 665 635 714 730 665 811 600 882 516 938L527 952C618 904 687 845 741 777 783 846 837 902 902 948 916 918 940 899 969 898L971 890C895 850 830 795 778 725 842 625 879 511 903 393 925 391 935 388 942 380L870 315 830 355 577 355 577 153 935 153C949 153 960 148 962 137 930 107 879 65 879 65L832 124 589 124 518 92ZM836 384C819 487 790 586 744 677 693 595 657 497 638 384Z"/>
</svg>