<svg xmlns="http://www.w3.org/2000/svg" name="gid14584" data-unicode="魳"
    viewBox="0 0 1000 1000">
  <!--
© 2017-2024 Adobe (http://www.adobe.com/).
Noto is a trademark of Google Inc.
This Font Software is licensed under the SIL Open Font License, Version 1.1. This Font Software is distributed on an "AS IS" BASIS, WITHOUT WARRANTIES OR CONDITIONS OF ANY KIND, either express or implied. See the SIL Open Font License for the specific language, permissions and limitations governing your use of this Font Software.
http://scripts.sil.org/OFL
  -->
<path d="M209 741L195 745C207 789 215 857 207 911 249 965 317 859 209 741ZM297 729L284 735C306 776 331 842 330 892 378 941 438 831 297 729ZM390 720L378 727C413 762 447 824 448 873 503 920 559 793 390 720ZM119 743C120 806 90 874 58 900 40 914 31 934 40 951 54 970 87 962 105 943 134 913 161 841 137 743ZM272 309L175 309 138 292C162 259 184 223 203 184L320 184C306 221 288 272 272 309ZM191 41C156 172 96 303 36 385L51 395C69 378 87 359 104 338L104 722 114 722C143 722 163 707 163 702L163 666 396 666 396 708 408 708C430 708 453 693 455 689L455 348C471 345 484 338 491 330L428 274 396 309 297 309C327 273 364 221 387 192 407 191 418 190 426 183L357 116 318 156 217 156C228 134 237 112 246 90 269 91 280 82 284 71ZM251 337L251 468 163 468 163 337ZM304 337L396 337 396 468 304 468ZM251 637L163 637 163 498 251 498ZM304 637L304 498 396 498 396 637ZM522 296L522 800 531 800C561 800 580 785 580 779L580 325 685 325 685 956 694 956C725 956 746 940 746 935L746 325 856 325 856 703C856 716 852 721 837 721 822 721 756 715 756 715L756 732C787 736 806 744 816 754 825 764 829 781 831 799 908 791 917 762 917 711L917 336C936 332 952 324 958 317L878 258 846 296 746 296 746 140 946 140C960 140 969 135 971 124 940 94 888 53 888 53L843 112 482 112 490 140 685 140 685 296 592 296 522 265Z"/>
</svg>