<svg xmlns="http://www.w3.org/2000/svg"
    viewBox="0 0 1000 1000">
  <!--
© 2017-2023 Adobe (http://www.adobe.com/).
Noto is a trademark of Google Inc.
This Font Software is licensed under the SIL Open Font License, Version 1.1. This Font Software is distributed on an "AS IS" BASIS, WITHOUT WARRANTIES OR CONDITIONS OF ANY KIND, either express or implied. See the SIL Open Font License for the specific language, permissions and limitations governing your use of this Font Software.
http://scripts.sil.org/OFL
  -->
<path d="M214 710L199 714C212 758 220 826 212 880 255 935 325 827 214 710ZM303 699L290 705C311 745 335 810 335 860 383 908 444 800 303 699ZM393 687L381 694C412 726 441 781 442 825 495 872 550 753 393 687ZM126 711C127 774 96 839 64 865 45 879 35 900 45 918 58 938 92 931 111 912 141 882 168 810 144 712ZM656 17L656 214 451 214 459 243 608 243C612 526 593 734 417 919L428 931C599 803 653 647 671 443L843 443C836 673 822 811 794 838 785 846 777 849 759 849 739 849 675 843 636 839L635 857C670 863 707 872 721 882 735 892 739 909 739 929 777 929 814 917 838 891 879 850 898 707 905 451 926 449 938 443 945 436L871 374 833 414 673 414C677 360 679 303 680 243L940 243C954 243 963 238 965 227 934 197 883 156 883 156L838 214 721 214 721 52C743 48 752 39 753 27ZM279 274L186 274 151 259C175 227 198 191 218 154L323 154C310 190 293 238 279 274ZM207 10C168 142 103 272 40 352L55 363C75 345 96 325 115 303L115 690 124 690C154 690 174 675 174 670L174 633 411 633 411 675 423 675C445 675 469 660 471 656L471 313C487 310 501 303 507 295L443 239 411 274 303 274C333 239 370 190 393 162 413 161 425 160 432 153L361 85 322 125 233 125C244 104 254 83 263 61 285 62 296 53 301 43ZM261 303L261 434 174 434 174 303ZM316 303L411 303 411 434 316 434ZM261 464L261 604 174 604 174 464ZM316 464L411 464 411 604 316 604Z"/>
</svg>