<svg xmlns="http://www.w3.org/2000/svg"
    viewBox="0 0 1000 1000">
  <!--
© 2017-2024 Adobe (http://www.adobe.com/).
Noto is a trademark of Google Inc.
This Font Software is licensed under the SIL Open Font License, Version 1.1. This Font Software is distributed on an "AS IS" BASIS, WITHOUT WARRANTIES OR CONDITIONS OF ANY KIND, either express or implied. See the SIL Open Font License for the specific language, permissions and limitations governing your use of this Font Software.
http://scripts.sil.org/OFL
  -->
<path d="M639 395L625 399C651 458 681 545 680 613 737 674 803 536 639 395ZM193 711L177 714C188 759 193 827 182 880 224 935 292 831 193 711ZM271 699L257 704C278 746 298 812 296 864 342 912 401 804 271 699ZM356 688L344 695C375 732 405 793 404 842 456 890 514 767 356 688ZM111 712C114 773 88 841 59 868 42 882 32 902 43 919 57 938 89 929 106 910 133 880 156 808 129 712ZM182 10C149 142 88 270 27 352L41 362C61 344 80 324 99 302L99 691 108 691C137 691 157 676 157 671L157 636 365 636 365 677 376 677C397 677 420 663 422 659L422 471C457 437 489 394 518 347L518 929 529 929C553 929 576 912 577 907L577 305C595 302 604 296 608 288L561 270C594 205 621 136 642 69 663 69 675 60 678 48L580 19C550 171 490 335 422 441L422 317C438 314 451 307 458 299L396 244 365 278 273 278C303 244 337 192 358 163 377 161 389 160 396 154L327 87 290 127 210 127C221 105 231 82 240 59 260 60 272 51 277 40ZM804 24L804 277 612 277 620 306 804 306 804 830C804 845 799 850 782 850 764 850 677 842 677 842L677 859C715 864 738 871 751 882 762 893 768 910 770 929 855 920 865 888 865 836L865 306 944 306C957 306 966 301 968 290 944 262 901 221 901 221L865 275 865 63C890 59 900 49 902 35ZM250 278L169 278 130 261C154 229 176 193 196 155L292 155C280 192 264 242 250 278ZM233 307L233 438 157 438 157 307ZM285 307L365 307 365 438 285 438ZM233 467L233 607 157 607 157 467ZM285 467L365 467 365 607 285 607Z"/>
</svg>