<svg xmlns="http://www.w3.org/2000/svg" name="gid14609" data-unicode="鮖"
    viewBox="0 0 1000 1000">
  <!--
© 2017-2024 Adobe (http://www.adobe.com/).
Noto is a trademark of Google Inc.
This Font Software is licensed under the SIL Open Font License, Version 1.1. This Font Software is distributed on an "AS IS" BASIS, WITHOUT WARRANTIES OR CONDITIONS OF ANY KIND, either express or implied. See the SIL Open Font License for the specific language, permissions and limitations governing your use of this Font Software.
http://scripts.sil.org/OFL
  -->
<path d="M211 740L196 744C209 788 217 856 209 910 252 965 321 858 211 740ZM299 729L286 735C308 776 331 841 331 891 380 940 441 831 299 729ZM391 718L378 726C413 762 448 825 450 875 505 922 559 796 391 718ZM127 741C127 805 97 872 65 898 46 912 37 932 47 950 60 969 94 961 112 942 142 912 168 840 145 742ZM462 139L470 169 643 169C609 362 543 562 443 709L459 720C501 673 538 622 570 567L570 956 581 956C612 956 632 940 632 935L632 860 852 860 852 949 861 949C882 949 913 934 914 927L914 501C933 498 947 490 953 483L878 424 843 462 644 462 628 455C667 366 697 270 716 169L948 169C962 169 971 164 973 153 943 123 891 82 891 82L845 139ZM632 491L852 491 852 831 632 831ZM280 304L178 304 145 290C169 257 190 222 210 185L326 185C313 221 295 269 280 304ZM199 41C161 173 99 305 37 387L52 398C71 381 89 361 107 340L107 718 117 718C147 718 167 703 167 698L167 662 397 662 397 705 409 705C431 705 455 690 457 686L457 343C473 340 487 333 494 325L429 269 397 304 304 304C335 270 372 220 395 192 415 191 427 190 434 183L364 116 326 156 225 156C236 135 246 113 255 91 277 92 289 83 293 72ZM251 333L251 464 167 464 167 333ZM304 333L397 333 397 464 304 464ZM251 494L251 633 167 633 167 494ZM304 494L397 494 397 633 304 633Z"/>
</svg>