<svg xmlns="http://www.w3.org/2000/svg"
    viewBox="0 0 1000 1000">
  <!--
© 2017-2024 Adobe (http://www.adobe.com/).
Noto is a trademark of Google Inc.
This Font Software is licensed under the SIL Open Font License, Version 1.1. This Font Software is distributed on an "AS IS" BASIS, WITHOUT WARRANTIES OR CONDITIONS OF ANY KIND, either express or implied. See the SIL Open Font License for the specific language, permissions and limitations governing your use of this Font Software.
http://scripts.sil.org/OFL
  -->
<path d="M213 711L198 715C211 761 219 832 210 887 253 943 322 833 213 711ZM308 704L295 709C317 752 343 821 342 874 391 923 451 810 308 704ZM406 692L394 700C427 734 460 795 461 843 515 890 572 765 406 692ZM120 711C120 773 90 839 58 865 40 879 30 899 39 917 53 937 87 930 106 910 135 881 162 809 137 711ZM671 22L671 191 494 191 501 220 671 220 671 407 478 407 486 436 933 436C947 436 957 431 959 420 928 391 876 350 876 350L831 407 734 407 734 220 910 220C924 220 933 216 936 205 905 175 854 135 854 135L810 191 734 191 734 59C757 55 766 46 768 32ZM671 454L671 631 487 631 495 660 671 660 671 872 443 872 451 901 947 901C961 901 970 896 973 885 941 856 890 814 890 814L845 872 734 872 734 660 926 660C940 660 950 655 952 644 921 614 869 574 869 574L824 631 734 631 734 490C757 486 766 478 768 464ZM273 278L177 278 139 261C163 228 187 191 208 153L320 153C307 191 289 242 273 278ZM197 10C159 141 95 270 33 351L47 361C67 343 87 323 106 301L106 690 116 690C145 690 166 676 166 671L166 635 413 635 413 677 424 677C446 677 469 662 471 658L471 317C487 314 501 307 507 299L444 243 413 278 296 278C327 244 367 191 390 161 411 160 422 159 429 152L359 84 319 125 223 125C234 104 244 82 253 60 276 61 287 52 292 41ZM257 307L257 437 166 437 166 307ZM312 307L413 307 413 437 312 437ZM257 467L257 606 166 606 166 467ZM312 467L413 467 413 606 312 606Z"/>
</svg>