<svg xmlns="http://www.w3.org/2000/svg"
    viewBox="0 0 1000 1000">
  <!--
© 2017-2023 Adobe (http://www.adobe.com/).
Noto is a trademark of Google Inc.
This Font Software is licensed under the SIL Open Font License, Version 1.1. This Font Software is distributed on an "AS IS" BASIS, WITHOUT WARRANTIES OR CONDITIONS OF ANY KIND, either express or implied. See the SIL Open Font License for the specific language, permissions and limitations governing your use of this Font Software.
http://scripts.sil.org/OFL
  -->
<path d="M194 711L179 714C190 759 194 827 183 881 225 937 295 832 194 711ZM275 699L261 704C281 746 301 813 298 865 345 915 406 805 275 699ZM362 689L350 696C381 732 412 793 411 843 465 892 523 766 362 689ZM111 713C114 774 88 841 59 868 41 882 33 903 43 920 56 938 88 930 106 910 133 881 155 809 129 713ZM264 281L171 281 131 264C154 230 175 194 194 155L308 155C295 193 278 244 264 281ZM180 11C147 138 93 267 38 349L54 358C70 343 85 325 100 307L100 680 110 680C139 680 159 665 159 659L159 634 373 634 373 669 385 669C407 669 430 654 433 650L433 320C448 316 462 309 469 301L406 246 373 281 288 281C317 245 353 192 375 163 394 162 406 160 413 154L344 87 306 126 208 126C219 104 228 82 237 59 257 61 269 51 273 39ZM237 310L237 439 159 439 159 310ZM291 310L373 310 373 439 291 439ZM237 468L237 606 159 606 159 468ZM291 468L373 468 373 606 291 606ZM562 488L562 526C517 577 470 626 420 668L433 679C478 647 521 612 562 575L562 833C562 883 578 899 655 899L760 899C910 899 942 888 942 858 942 846 936 838 914 831L911 707 898 707C888 761 877 811 870 827 865 836 861 838 850 839 837 840 804 840 762 840L667 840C631 840 627 836 627 820L627 692C723 657 829 607 890 566 910 573 919 571 926 562L847 506C799 554 709 619 627 666L627 524C646 521 655 511 657 499L639 497C669 464 698 431 724 397L942 397C956 397 965 392 967 381 936 351 885 310 885 310L840 368 747 368C816 275 873 180 913 96 939 100 949 95 955 84L857 43C840 85 820 129 797 175 770 147 732 115 732 115L694 168 658 168 658 53C681 49 689 41 691 27L595 17 595 168 475 168 483 198 595 198 595 368 439 368 447 397 662 397C640 429 616 461 591 491ZM658 368L658 198 778 198 785 197C755 254 721 311 682 368Z"/>
</svg>