<svg xmlns="http://www.w3.org/2000/svg" name="gid14627" data-unicode="鮲"
    viewBox="0 0 1000 1000">
  <!--
© 2017-2024 Adobe (http://www.adobe.com/).
Noto is a trademark of Google Inc.
This Font Software is licensed under the SIL Open Font License, Version 1.1. This Font Software is distributed on an "AS IS" BASIS, WITHOUT WARRANTIES OR CONDITIONS OF ANY KIND, either express or implied. See the SIL Open Font License for the specific language, permissions and limitations governing your use of this Font Software.
http://scripts.sil.org/OFL
  -->
<path d="M182 741L167 744C177 789 181 857 171 911 212 964 277 862 182 741ZM259 729L244 734C264 776 284 843 282 894 328 942 386 837 259 729ZM343 718L331 725C360 763 388 826 384 875 436 923 494 803 343 718ZM97 743C103 802 83 871 57 899 40 913 32 934 42 950 56 968 87 959 104 939 127 909 143 837 114 743ZM834 92L822 99C852 142 888 212 894 265 950 316 1009 193 834 92ZM243 311L161 311 123 295C146 261 167 224 186 185L283 185C272 223 256 274 243 311ZM537 41C515 212 466 385 406 505L406 350C422 347 436 340 442 332L381 277 350 311 266 311C294 275 327 222 347 193 367 191 378 190 385 184L318 118 281 157 199 157C210 134 219 111 228 88 248 88 259 78 264 67L173 40C143 165 91 291 36 373L52 383C66 369 79 354 92 337L92 710 102 710C129 710 148 695 148 689L148 665 350 665 350 697 360 697C381 697 404 683 406 679L406 523 415 528C442 493 468 452 491 407L491 958 501 958C527 958 550 938 550 931L550 324C568 321 577 315 580 306L542 291C566 226 586 157 602 86 624 85 635 75 638 62ZM221 340L221 469 148 469 148 340ZM271 340L350 340 350 469 271 469ZM221 498L221 636 148 636 148 498ZM271 498L350 498 350 636 271 636ZM711 46C711 166 711 273 708 370L573 370 581 399 707 399C698 628 667 798 563 939L581 954C709 823 750 663 765 452 777 641 809 842 902 954 910 917 929 903 960 897L963 886C836 769 795 589 781 399L932 399C945 399 955 394 958 383 926 354 877 315 877 315L833 370 769 370C773 283 773 188 774 84 797 81 807 69 810 55Z"/>
</svg>