<svg xmlns="http://www.w3.org/2000/svg" name="gid14651" data-unicode="鯘"
    viewBox="0 0 1000 1000">
  <!--
© 2017-2024 Adobe (http://www.adobe.com/).
Noto is a trademark of Google Inc.
This Font Software is licensed under the SIL Open Font License, Version 1.1. This Font Software is distributed on an "AS IS" BASIS, WITHOUT WARRANTIES OR CONDITIONS OF ANY KIND, either express or implied. See the SIL Open Font License for the specific language, permissions and limitations governing your use of this Font Software.
http://scripts.sil.org/OFL
  -->
<path d="M201 740L187 744C198 788 205 856 196 910 239 965 309 858 201 740ZM286 729L272 734C294 776 315 842 315 893 364 942 424 833 286 729ZM381 718L369 725C400 763 432 825 431 876 485 924 543 799 381 718ZM117 741C118 803 90 870 59 896 41 910 32 931 41 948 55 967 87 960 106 940 134 910 160 840 135 742ZM278 305L176 305 141 289C164 257 184 222 204 185L324 185C311 221 293 270 278 305ZM191 40C155 172 95 304 36 387L51 397C69 380 87 360 104 339L104 715 114 715C144 715 164 699 164 694L164 661 391 661 391 701 403 701C426 701 449 687 451 683L451 344C467 341 481 334 488 326L425 269 393 305 302 305C333 271 370 221 393 193 413 192 425 191 432 184L363 117 323 157 217 157C228 135 238 113 247 90 269 91 280 82 284 71ZM249 334L249 464 164 464 164 334ZM303 334L391 334 391 464 303 464ZM249 494L249 633 164 633 164 494ZM303 494L391 494 391 633 303 633ZM651 500C642 526 625 567 606 610L451 610 459 639 592 639C562 702 529 767 504 804 529 816 557 818 572 811L594 770C629 784 663 800 694 816 637 871 557 911 444 941L450 959C585 935 677 898 742 842 808 881 859 920 887 950 948 974 977 878 782 801 818 757 842 703 860 639L948 639C962 639 971 634 974 623 942 593 890 552 890 552L843 610 672 610 702 543C726 544 737 535 742 522ZM790 639C776 694 755 741 725 781 690 770 650 760 604 751L659 639ZM834 51C755 88 599 134 473 156L478 173C539 170 604 163 665 154L665 266 460 266 468 295 606 295C571 368 518 437 452 491L463 507C547 459 617 397 665 322L665 496 674 496C705 496 725 481 725 475L725 295 730 295C775 385 846 456 917 499 925 471 943 454 967 450L968 440C895 413 810 361 757 295L939 295C953 295 963 290 965 279 933 249 882 209 882 209L837 266 725 266 725 145C775 137 821 128 858 119 880 128 899 128 907 120Z"/>
</svg>