<svg xmlns="http://www.w3.org/2000/svg" name="gid14666" data-unicode="鯰"
    viewBox="0 0 1000 1000">
  <!--
© 2017-2024 Adobe (http://www.adobe.com/).
Noto is a trademark of Google Inc.
This Font Software is licensed under the SIL Open Font License, Version 1.1. This Font Software is distributed on an "AS IS" BASIS, WITHOUT WARRANTIES OR CONDITIONS OF ANY KIND, either express or implied. See the SIL Open Font License for the specific language, permissions and limitations governing your use of this Font Software.
http://scripts.sil.org/OFL
  -->
<path d="M566 298L573 327 817 327C830 327 839 322 842 312 815 286 772 253 772 253L735 298ZM594 578L584 589C632 612 689 658 707 701 774 730 795 593 594 578ZM819 670L807 677C849 721 896 796 902 855 965 907 1021 763 819 670ZM574 668L574 883C574 924 584 938 645 938L718 938C828 938 854 926 854 900 854 889 849 882 831 876L828 784 816 784C807 824 798 862 793 873 788 880 785 882 777 882 769 883 747 883 720 883L658 883C636 883 633 881 633 869L633 701C649 699 658 690 660 678ZM714 92C754 198 833 289 920 349 926 326 944 309 965 304L967 292C871 245 777 171 729 81 750 80 759 75 761 65L666 45C637 148 532 286 438 355L446 370C556 308 663 200 714 92ZM193 741L178 744C188 789 193 857 182 910 224 965 292 861 193 741ZM271 729L258 734C277 774 295 835 293 883 338 929 397 827 271 729ZM111 742C114 802 88 869 60 896 42 910 32 930 43 948 57 967 89 958 107 939 133 910 156 838 129 742ZM357 718L344 725C369 754 393 804 391 844 402 854 413 857 422 854 419 862 419 870 424 878 436 897 468 891 487 873 515 844 539 776 510 680L493 680C498 738 475 798 445 825 450 795 430 750 357 718ZM497 407L505 437 803 437C782 487 752 554 727 606 754 617 771 618 787 614 813 562 847 489 864 448 886 447 903 442 910 434L838 372 805 407ZM246 304L168 304 139 292C162 258 184 222 203 183L288 183C277 219 260 268 246 304ZM187 40C155 172 96 302 36 383L51 394C67 379 83 363 98 345L98 719 107 719C136 719 155 705 155 700L155 663 363 663 363 705 375 705C397 705 420 691 422 687L422 343C438 340 451 333 458 325L396 270 365 304 271 304C300 270 334 220 354 191 374 190 385 188 393 182L324 115 286 155 216 155C226 133 236 111 244 88 265 90 277 81 281 69ZM232 333L232 464 155 464 155 333ZM284 333L363 333 363 464 284 464ZM232 494L232 634 155 634 155 494ZM284 494L363 494 363 634 284 634Z"/>
</svg>