<svg xmlns="http://www.w3.org/2000/svg" name="gid14671" data-unicode="鯷"
    viewBox="0 0 1000 1000">
  <!--
© 2017-2024 Adobe (http://www.adobe.com/).
Noto is a trademark of Google Inc.
This Font Software is licensed under the SIL Open Font License, Version 1.1. This Font Software is distributed on an "AS IS" BASIS, WITHOUT WARRANTIES OR CONDITIONS OF ANY KIND, either express or implied. See the SIL Open Font License for the specific language, permissions and limitations governing your use of this Font Software.
http://scripts.sil.org/OFL
  -->
<path d="M194 741L179 744C190 789 194 857 183 911 225 967 295 862 194 741ZM275 729L261 734C281 776 301 843 298 895 345 945 406 835 275 729ZM362 719L350 726C380 759 408 817 407 863 460 912 519 790 362 719ZM111 743C114 804 88 871 59 898 41 912 33 933 43 950 56 968 88 960 106 940 133 911 155 839 129 743ZM524 585C521 712 493 859 412 947L422 960C492 906 532 829 556 750 603 895 682 933 812 933 845 933 914 933 945 933 945 908 955 889 976 885L976 871C934 872 853 872 817 872 787 872 760 871 736 867L736 694 920 694C933 694 943 689 945 678 916 648 867 609 867 609L825 664 736 664 736 518 944 518C958 518 967 513 970 502 939 472 888 434 888 434L844 489 451 489 459 518 674 518 674 849C626 828 591 788 564 719 571 687 577 655 580 624 602 623 614 614 616 600ZM577 257L831 257 831 361 577 361ZM577 228L577 124 831 124 831 228ZM516 95L516 439 525 439C557 439 577 425 577 419L577 390 831 390 831 428 841 428C870 428 894 414 894 409L894 128C913 125 924 119 930 112L859 57 828 95 588 95 516 64ZM264 311L171 311 131 294C154 260 175 224 194 185L308 185C295 223 278 274 264 311ZM180 41C147 168 93 297 38 379L54 388C70 373 85 355 100 337L100 710 110 710C139 710 159 695 159 689L159 664 373 664 373 697 385 697C407 697 430 683 433 679L433 350C448 347 462 340 469 332L406 276 373 311 288 311C317 275 353 222 375 193 394 192 406 190 413 184L344 117 306 156 208 156C219 134 228 112 237 89 257 91 269 81 273 69ZM237 340L237 469 159 469 159 340ZM291 340L373 340 373 469 291 469ZM237 498L237 636 159 636 159 498ZM291 498L373 498 373 636 291 636Z"/>
</svg>