<svg xmlns="http://www.w3.org/2000/svg" name="gid14696" data-unicode="鰙"
    viewBox="0 0 1000 1000">
  <!--
© 2017-2024 Adobe (http://www.adobe.com/).
Noto is a trademark of Google Inc.
This Font Software is licensed under the SIL Open Font License, Version 1.1. This Font Software is distributed on an "AS IS" BASIS, WITHOUT WARRANTIES OR CONDITIONS OF ANY KIND, either express or implied. See the SIL Open Font License for the specific language, permissions and limitations governing your use of this Font Software.
http://scripts.sil.org/OFL
  -->
<path d="M201 740L187 744C198 788 205 856 196 910 239 965 309 858 201 740ZM286 729L272 734C294 776 315 842 315 893 364 942 424 833 286 729ZM117 741C118 803 90 870 59 896 41 910 32 931 41 948 55 967 87 960 106 940 134 910 160 840 135 742ZM277 310L175 310 138 293C162 260 184 224 204 185L323 185C310 222 292 273 277 310ZM191 40C155 172 95 304 36 387L51 397C69 380 86 361 103 341L103 712 113 712C143 712 163 696 163 690L163 663 390 663 390 698 402 698C425 698 448 683 450 679L450 349C466 346 480 339 487 331L423 274 392 310 301 310C332 274 369 223 392 193 412 192 424 191 431 184L361 117 322 157 217 157C228 135 238 113 247 90 269 91 280 82 284 71ZM248 339L248 468 163 468 163 339ZM302 339L390 339 390 468 302 468ZM248 497L248 634 163 634 163 497ZM302 497L390 497 390 634 302 634ZM763 49L763 177 623 177 623 84C645 81 654 72 656 59L561 49 561 177 454 177 462 206 561 206 561 308 572 308C593 308 617 297 621 289 613 341 603 390 590 438L455 438 463 467 581 467C547 582 498 682 441 758 426 744 406 731 381 718L369 725C400 763 432 825 431 876 474 914 519 843 455 771 491 739 524 701 553 657L553 958 563 958C594 958 615 942 615 936L615 884 837 884 837 946 846 946C868 946 901 930 902 924L902 645C921 642 937 634 944 626L863 565 827 604 627 604 593 590C613 552 631 511 647 467L947 467C961 467 971 462 973 451 941 420 889 378 889 378L843 438 657 438C668 404 678 369 687 333 709 333 719 323 723 312L622 288 623 286 623 206 763 206 763 307 774 307C798 307 825 293 825 285L825 206 948 206C962 206 970 201 973 190 946 162 899 123 899 123L859 177 825 177 825 84C847 81 855 72 857 59ZM837 854L615 854 615 634 837 634Z"/>
</svg>