<svg xmlns="http://www.w3.org/2000/svg"
    viewBox="0 0 1000 1000">
  <!--
© 2017-2023 Adobe (http://www.adobe.com/).
Noto is a trademark of Google Inc.
This Font Software is licensed under the SIL Open Font License, Version 1.1. This Font Software is distributed on an "AS IS" BASIS, WITHOUT WARRANTIES OR CONDITIONS OF ANY KIND, either express or implied. See the SIL Open Font License for the specific language, permissions and limitations governing your use of this Font Software.
http://scripts.sil.org/OFL
  -->
<path d="M193 711L178 714C189 759 193 827 182 880 224 935 292 831 193 711ZM272 699L257 704C278 746 298 812 296 864 343 912 402 804 272 699ZM357 688L344 695C376 732 406 793 404 842 456 890 515 767 357 688ZM112 712C115 773 89 841 60 868 42 882 33 902 43 919 57 938 89 929 107 910 133 880 156 808 130 712ZM258 279L168 279 132 263C155 230 175 194 194 155L299 155C288 192 272 242 258 279ZM180 10C150 137 96 264 42 346L57 355C71 341 85 326 98 310L98 680 107 680C136 680 156 665 156 659L156 633 364 633 364 667 375 667C397 667 420 653 422 649L422 318C438 315 451 308 458 300L396 244 364 279 283 279C312 243 344 193 365 163 385 162 396 160 404 154L334 87 296 127 207 127C218 104 227 81 236 58 258 58 269 49 273 38ZM232 308L232 437 156 437 156 308ZM284 308L364 308 364 437 284 437ZM232 467L232 604 156 604 156 467ZM284 467L364 467 364 604 284 604ZM538 235L538 454 547 454C570 454 597 441 597 435L597 408 803 408 803 444 812 444C831 444 862 430 862 424L862 271C878 269 892 262 897 255L827 202 795 235 602 235 538 207ZM597 379L597 265 803 265 803 379ZM591 590L591 823 599 823C620 823 642 811 642 807L642 766 758 766 758 810 766 810C783 810 810 798 811 791L811 623C824 621 837 614 842 608L780 560 751 590 647 590 591 564ZM642 737L642 619 758 619 758 737ZM665 14L665 137 447 137 455 166 945 166C958 166 967 161 969 150 939 121 889 81 889 81L845 137 730 137 730 49C753 45 761 36 763 23ZM473 495L473 929 483 929C507 929 531 915 531 909L531 524 876 524 876 834C876 848 873 853 858 853 842 853 774 848 774 847L774 864C806 868 824 874 835 883 845 893 848 909 850 927 927 919 936 890 936 842L936 533C953 530 967 522 973 515L897 459 867 495 536 495 473 465Z"/>
</svg>