<svg xmlns="http://www.w3.org/2000/svg" name="gid14705" data-unicode="鰤"
    viewBox="0 0 1000 1000">
  <!--
© 2017-2024 Adobe (http://www.adobe.com/).
Noto is a trademark of Google Inc.
This Font Software is licensed under the SIL Open Font License, Version 1.1. This Font Software is distributed on an "AS IS" BASIS, WITHOUT WARRANTIES OR CONDITIONS OF ANY KIND, either express or implied. See the SIL Open Font License for the specific language, permissions and limitations governing your use of this Font Software.
http://scripts.sil.org/OFL
  -->
<path d="M167 738L152 741C163 786 168 855 158 909 198 961 263 858 167 738ZM237 727L223 731C242 774 262 842 261 894 306 941 363 836 237 727ZM310 716L298 722C327 757 357 815 355 860 404 906 458 791 310 716ZM90 740C97 799 79 870 53 898 36 912 30 933 40 948 54 965 85 955 100 935 121 904 135 832 108 740ZM221 308L152 308 120 294C143 261 164 224 183 185L259 185C248 222 234 272 221 308ZM168 43C139 168 87 293 33 374L47 384C61 371 74 356 87 339L87 716 95 716C121 716 140 703 140 698L140 662 303 662 303 705 313 705C334 705 355 691 357 687L357 347C373 344 387 337 394 329L334 275 303 308 244 308C270 273 303 221 323 192 343 191 355 190 362 184L295 118 257 157 196 157C206 135 215 112 223 89 244 90 256 81 260 70ZM197 337L197 466 140 466 140 337ZM245 337L303 337 303 466 245 466ZM197 496L197 633 140 633 140 496ZM245 496L303 496 303 633 245 633ZM497 45C492 90 480 151 470 196L467 196 409 166 409 935 419 935C443 935 462 920 462 913L462 829 546 829 546 891 554 891C571 891 598 876 599 870L599 586C614 584 627 578 632 572L567 522 538 553 462 553 462 445 545 445 545 478 555 478C575 478 596 466 598 462L598 235C614 232 628 224 635 217L576 165 548 196 497 196C518 160 538 120 554 91 574 92 586 83 590 72ZM462 416L462 225 545 225 545 416ZM546 582L546 799 462 799 462 582ZM645 289L645 839 654 839C678 839 698 825 698 819L698 318 756 318 756 959 764 959C791 959 810 945 810 940L810 318 871 318 871 756C871 767 869 770 859 770 850 770 819 768 819 768L819 784C837 787 846 792 853 801 860 809 862 825 862 840 916 833 923 808 923 762L923 326C941 323 955 315 961 309L890 255 862 289 810 289 810 151 944 151C957 151 966 146 968 135 940 107 894 67 894 67L852 121 621 121 629 151 756 151 756 289 703 289 645 261Z"/>
</svg>