<svg xmlns="http://www.w3.org/2000/svg" name="gid14711" data-unicode="鰪"
    viewBox="0 0 1000 1000">
  <!--
© 2017-2024 Adobe (http://www.adobe.com/).
Noto is a trademark of Google Inc.
This Font Software is licensed under the SIL Open Font License, Version 1.1. This Font Software is distributed on an "AS IS" BASIS, WITHOUT WARRANTIES OR CONDITIONS OF ANY KIND, either express or implied. See the SIL Open Font License for the specific language, permissions and limitations governing your use of this Font Software.
http://scripts.sil.org/OFL
  -->
<path d="M182 741L168 744C178 789 182 857 171 910 213 965 281 861 182 741ZM261 729L246 734C266 776 286 842 284 894 331 942 390 835 261 729ZM346 718L333 725C364 762 391 823 387 872 440 921 499 799 346 718ZM97 742C104 801 83 870 57 898 40 912 31 933 42 949 56 968 87 959 104 939 128 909 143 837 114 742ZM452 503L487 583C497 581 507 575 512 563 652 539 758 520 838 505 855 529 868 553 874 576 942 620 979 470 740 381L730 391C760 415 795 449 823 485L584 498C613 458 650 401 681 351L945 351C959 351 968 346 970 335 941 305 890 263 890 263L847 321 712 321 712 201 896 201C908 201 918 196 920 185 891 155 841 113 841 113L798 172 712 172 712 82C737 78 747 68 749 54L649 45 649 172 477 172 485 201 649 201 649 321 446 321 454 351 601 351C587 399 567 459 552 500ZM246 311L163 311 124 294C147 261 168 224 188 185L286 185C274 223 259 274 246 311ZM174 40C144 165 91 291 37 372L53 382C67 368 80 353 93 337L93 710 103 710C131 710 150 695 150 689L150 665 354 665 354 697 365 697C387 697 410 683 412 679L412 350C428 347 442 340 448 332L386 276 354 311 270 311C298 275 331 223 351 193 371 192 382 190 389 184L320 117 283 157 201 157C211 134 221 111 230 88 251 88 262 79 266 68ZM223 340L223 469 150 469 150 340ZM275 340L354 340 354 469 275 469ZM223 498L223 636 150 636 150 498ZM275 498L354 498 354 636 275 636ZM477 625L477 908 395 908 403 936 953 936C966 936 975 931 978 920 957 895 918 859 918 859L889 903 889 662C913 659 926 654 934 643L852 582 820 625 545 625 477 595ZM533 908L533 654 598 654 598 908ZM831 908L764 908 764 654 831 654ZM647 908L647 654 715 654 715 908Z"/>
</svg>