<svg xmlns="http://www.w3.org/2000/svg" name="gid14717" data-unicode="鰲"
    viewBox="0 0 1000 1000">
  <!--
© 2017-2024 Adobe (http://www.adobe.com/).
Noto is a trademark of Google Inc.
This Font Software is licensed under the SIL Open Font License, Version 1.1. This Font Software is distributed on an "AS IS" BASIS, WITHOUT WARRANTIES OR CONDITIONS OF ANY KIND, either express or implied. See the SIL Open Font License for the specific language, permissions and limitations governing your use of this Font Software.
http://scripts.sil.org/OFL
  -->
<path d="M347 813L334 818C348 849 359 898 355 936 402 992 482 894 347 813ZM534 813L522 820C550 850 581 901 589 940 649 982 703 865 534 813ZM727 812L721 828C798 862 847 906 869 943 926 1002 1029 859 727 812ZM776 183C760 237 734 283 698 324 661 288 632 245 609 196L617 183ZM193 813C179 856 126 888 86 896 66 906 52 922 58 942 67 963 99 964 124 954 166 938 216 894 210 817 243 817 263 800 263 795L263 788 763 788 763 817 773 817C794 817 827 802 827 796L827 624C846 620 863 612 870 604L790 544 753 582 532 582C560 568 589 551 610 537 629 536 640 535 647 528L578 464 542 502 336 502 343 495C370 495 382 491 385 480L371 477C386 474 400 469 411 463 439 447 450 421 457 373 475 371 488 367 494 359L428 306 395 339 260 339C266 326 272 312 277 298L480 298C487 298 493 297 497 293L510 303C540 281 569 252 594 218 614 269 637 315 667 355 619 399 556 434 478 464L485 479C568 457 638 427 695 387 743 439 807 480 894 508 900 478 918 462 943 455L945 444C857 425 789 396 735 355 787 310 824 253 848 183L920 183C934 183 943 179 946 168 912 137 863 99 863 99L818 154 634 154C645 133 654 111 663 87 684 88 695 79 699 67L601 40C584 134 548 222 505 282 477 257 434 227 434 227L396 269 311 269 311 237C328 234 336 226 338 215L298 211 506 211C520 211 530 206 532 195 502 170 457 136 457 136L419 181 311 181 311 131 460 131C474 131 483 126 486 116 457 91 414 60 414 60L376 102 311 102 311 74C330 71 337 63 338 52L249 43 249 102 98 102 105 131 249 131 249 181 56 181 64 211 249 211 249 269 69 269 77 298 211 298C186 382 132 451 41 499L49 514C135 482 201 435 243 368L400 368C395 390 389 404 382 408 376 412 370 413 358 413 342 413 301 411 276 409L276 426C298 429 319 434 328 442 336 448 339 459 340 469L292 457C247 527 154 612 50 663L61 677C111 660 158 637 200 611L200 814ZM535 531C524 548 510 567 497 582L275 582 255 574C274 560 291 545 307 531ZM763 612L763 670 542 670 542 612ZM263 612L480 612 480 670 263 670ZM763 759L542 759 542 700 763 700ZM263 759L263 700 480 700 480 759Z"/>
</svg>