<svg xmlns="http://www.w3.org/2000/svg"
    viewBox="0 0 1000 1000">
  <!--
© 2017-2024 Adobe (http://www.adobe.com/).
Noto is a trademark of Google Inc.
This Font Software is licensed under the SIL Open Font License, Version 1.1. This Font Software is distributed on an "AS IS" BASIS, WITHOUT WARRANTIES OR CONDITIONS OF ANY KIND, either express or implied. See the SIL Open Font License for the specific language, permissions and limitations governing your use of this Font Software.
http://scripts.sil.org/OFL
  -->
<path d="M193 711L178 714C189 759 193 827 182 880 224 935 292 831 193 711ZM272 699L257 704C278 746 298 812 296 864 343 912 402 804 272 699ZM357 688L344 695C376 732 406 793 404 842 456 890 515 767 357 688ZM112 712C115 773 89 841 60 868 42 882 33 902 43 919 57 938 89 929 107 910 133 880 156 808 130 712ZM257 281L168 281 131 265C154 231 175 194 194 155L299 155C288 193 271 244 257 281ZM180 10C150 137 96 264 42 346L57 355C71 341 85 326 98 310L98 680 107 680C136 680 156 665 156 659L156 635 364 635 364 667 375 667C397 667 420 653 422 649L422 320C438 317 451 310 458 302L396 246 364 281 281 281C311 245 344 193 365 163 385 162 396 160 404 154L334 87 296 127 207 127C218 104 227 81 236 58 258 58 269 49 273 38ZM232 310L232 439 156 439 156 310ZM284 310L364 310 364 439 284 439ZM232 468L232 606 156 606 156 468ZM284 468L364 468 364 606 284 606ZM488 663L488 929 497 929C527 929 547 915 547 910L547 872 824 872 824 919 834 919C862 919 886 904 886 900L886 695C905 692 915 686 921 680L852 626 821 663 559 663 488 632ZM547 842L547 691 824 691 824 842ZM440 559L448 588 938 588C952 588 962 583 964 572 934 544 886 506 886 506L843 559 780 559C809 530 840 494 860 466 880 469 894 461 898 450L812 419C797 462 774 519 754 559L716 559 716 410 931 410C945 410 954 405 957 394 925 364 876 326 876 326L831 380 716 380 716 289 895 289C908 289 918 285 920 274 891 246 844 210 844 210L805 260 716 260 716 174 916 174C930 174 940 169 943 158 911 130 862 91 862 91L819 145 762 145C791 118 820 85 839 58 860 60 873 53 878 41L789 11C775 51 754 106 735 145L591 145C631 140 648 60 526 15L514 20C535 49 557 95 559 134 567 141 575 144 582 145L449 145 457 174 655 174 655 260 480 260 488 289 655 289 655 380 450 380 458 410 655 410 655 559 569 559C607 551 624 473 509 423L497 429C518 459 537 507 535 547 542 553 548 557 555 559Z"/>
</svg>