<svg xmlns="http://www.w3.org/2000/svg"
    viewBox="0 0 1000 1000">
  <!--
© 2017-2024 Adobe (http://www.adobe.com/).
Noto is a trademark of Google Inc.
This Font Software is licensed under the SIL Open Font License, Version 1.1. This Font Software is distributed on an "AS IS" BASIS, WITHOUT WARRANTIES OR CONDITIONS OF ANY KIND, either express or implied. See the SIL Open Font License for the specific language, permissions and limitations governing your use of this Font Software.
http://scripts.sil.org/OFL
  -->
<path d="M348 783L335 788C350 819 360 868 355 906 404 962 484 864 348 783ZM538 783L526 790C553 820 585 871 593 910 653 952 707 835 538 783ZM731 782L725 798C802 832 851 876 873 913 930 972 1033 829 731 782ZM193 783C179 826 126 858 86 866 66 876 52 892 58 912 67 933 99 934 124 924 165 908 214 865 210 791 243 791 263 776 263 771L263 757 763 757 763 783 773 783C794 783 827 768 827 762L827 584C846 580 863 572 870 564L790 504 753 543 522 543C553 529 586 508 610 493 629 492 640 491 647 484L578 420 542 458 333 458 353 433C377 438 385 434 390 425L327 402 847 402C837 430 826 464 817 485L830 491C859 473 901 437 924 413 943 412 954 411 962 403L887 330 845 372 826 372 839 101C856 98 865 95 871 89L801 29 768 66 629 66 638 95 775 95 772 166 638 166 647 196 770 196 766 271 633 271 642 300 765 300 761 372 236 372 233 300 359 300C372 300 381 295 383 285 363 263 329 235 329 235L301 271 232 271 229 196 353 196C366 196 375 191 377 180 357 158 324 132 324 132L296 166 227 166 224 107C284 96 347 76 383 62 397 67 407 66 411 59L347 10C324 27 285 53 246 75L163 52 176 372 149 372C147 359 145 346 141 332L125 332C121 380 88 417 68 430 12 464 51 519 102 492 131 476 148 443 150 402L294 402C243 492 148 589 54 645L64 660C111 640 157 612 200 581L200 784ZM546 41C535 60 519 79 502 98 482 89 456 80 424 74L414 86C433 96 455 109 475 125 450 148 421 170 393 188L405 203C438 189 473 170 504 148 518 161 530 174 538 185 572 200 591 159 541 120 555 108 568 95 578 82 595 87 607 85 612 75ZM558 190C545 211 527 233 507 254 484 243 456 232 420 222L409 233C431 245 456 262 479 281 449 308 416 333 383 353L394 367C432 351 472 329 507 305 525 321 541 338 550 353 585 370 604 324 543 277 562 262 578 246 590 230 607 235 619 233 624 224ZM307 487L535 487C523 506 507 527 492 543L275 543 257 535C275 519 292 503 307 487ZM763 572L763 634 542 634 542 572ZM263 572L480 572 480 634 263 634ZM763 728L542 728 542 663 763 663ZM263 728L263 663 480 663 480 728Z"/>
</svg>