<svg xmlns="http://www.w3.org/2000/svg"
    viewBox="0 0 1000 1000">
  <!--
© 2017-2024 Adobe (http://www.adobe.com/).
Noto is a trademark of Google Inc.
This Font Software is licensed under the SIL Open Font License, Version 1.1. This Font Software is distributed on an "AS IS" BASIS, WITHOUT WARRANTIES OR CONDITIONS OF ANY KIND, either express or implied. See the SIL Open Font License for the specific language, permissions and limitations governing your use of this Font Software.
http://scripts.sil.org/OFL
  -->
<path d="M193 711L178 714C189 759 193 827 182 880 224 935 292 831 193 711ZM272 699L257 704C278 746 298 812 296 864 343 912 402 804 272 699ZM357 688L344 695C376 732 406 793 404 842 456 890 515 767 357 688ZM112 712C115 773 89 841 60 868 42 882 33 902 43 919 57 938 89 929 107 910 133 880 156 808 130 712ZM463 62L463 283 472 283C502 283 520 270 520 265L520 240 870 240 870 271 878 271C904 271 927 257 927 253L927 93C946 90 956 86 962 79L895 27 867 62 531 62 463 32ZM520 211L520 90 597 90 597 211ZM870 211L788 211 788 90 870 90ZM651 90L734 90 734 211 651 211ZM829 635L829 723 613 723 613 635ZM858 268C842 293 825 318 807 342L757 298 718 348 668 348 668 284C687 280 695 272 696 261L608 251 608 348 484 348 492 377 608 377 608 483 431 483 439 513 648 513C622 537 595 559 567 580L553 574 553 591C507 625 458 657 409 686L420 703C466 681 510 657 553 631L553 927 562 927C593 927 613 911 613 906L613 874 829 874 829 917 838 917C858 917 889 902 890 896L890 647C910 643 926 635 932 627L854 567 819 606 780 606C814 599 817 532 707 522L718 513 947 513C961 513 969 508 972 497 941 468 892 429 892 429L847 483 752 483C807 434 856 379 900 321 923 327 932 324 939 313ZM625 606L606 597C635 578 663 557 691 535 716 552 745 579 756 603L764 606ZM829 752L829 844 613 844 613 752ZM668 377L779 377C749 414 716 450 681 483L668 483ZM257 278L167 278 132 263C155 230 175 193 194 155L299 155C287 192 271 242 257 278ZM180 10C150 137 96 264 42 346L57 355C71 342 84 327 97 311L97 683 106 683C135 683 155 668 155 662L155 634 363 634 363 670 374 670C396 670 419 656 421 652L421 317C437 314 450 307 457 299L395 244 363 278 280 278C310 244 344 192 365 163 384 161 396 160 403 154L334 87 296 127 207 127C218 104 227 81 236 58 258 58 269 49 273 38ZM231 307L231 437 155 437 155 307ZM282 307L363 307 363 437 282 437ZM231 467L231 605 155 605 155 467ZM282 467L363 467 363 605 282 605Z"/>
</svg>