<svg xmlns="http://www.w3.org/2000/svg"
    viewBox="0 0 1000 1000">
  <!--
© 2017-2023 Adobe (http://www.adobe.com/).
Noto is a trademark of Google Inc.
This Font Software is licensed under the SIL Open Font License, Version 1.1. This Font Software is distributed on an "AS IS" BASIS, WITHOUT WARRANTIES OR CONDITIONS OF ANY KIND, either express or implied. See the SIL Open Font License for the specific language, permissions and limitations governing your use of this Font Software.
http://scripts.sil.org/OFL
  -->
<path d="M181 711L166 714C176 759 181 827 170 881 211 934 277 832 181 711ZM258 699L244 704C263 746 284 813 281 864 327 912 385 807 258 699ZM96 713C103 772 82 841 56 869 39 883 31 904 42 920 55 938 86 929 103 909 126 879 142 807 113 713ZM533 448L540 478 715 478C729 478 738 473 740 462 716 436 677 403 677 403L641 448ZM878 194L867 202C893 221 920 255 928 283 977 314 1016 220 878 194ZM242 281L160 281 122 265C145 231 166 194 185 155L282 155C271 193 255 244 242 281ZM172 10C142 135 90 261 35 343L51 353C65 339 79 323 92 306L92 680 101 680C128 680 148 665 148 659L148 635 349 635 349 667 360 667C380 667 403 653 405 649L405 320C422 317 435 310 442 302L380 247 349 281 265 281C293 245 327 192 347 163 367 161 377 160 385 154L317 88 280 127 198 127C209 104 218 81 227 58 247 58 259 48 263 37ZM220 310L220 439 148 439 148 310ZM270 310L349 310 349 439 270 439ZM220 468L220 606 148 606 148 468ZM270 468L349 468 349 606 270 606ZM726 16C718 56 707 96 694 133 668 106 627 74 627 74L589 122 507 122C517 101 525 79 533 57 555 57 566 47 569 36L482 15C466 103 435 192 401 251L418 261C446 232 471 194 493 151L519 151C535 181 550 223 550 256 592 297 645 220 553 151L670 151C679 151 686 149 690 144 674 185 657 221 638 250L654 260C683 232 710 194 734 151L767 151C781 171 795 198 802 223L729 215 734 319 525 319 458 289 458 478C458 573 456 676 432 775 425 747 399 714 342 688L330 695C357 726 383 779 382 821 395 832 408 834 418 828 407 859 395 889 379 918L393 929C507 796 513 607 513 477L513 348 735 348C743 474 755 592 783 694 738 787 676 860 603 915L615 928C690 887 753 830 802 755 819 799 839 839 864 874 890 912 941 944 965 920 974 909 973 896 952 861L963 718 951 716C942 751 927 796 919 816 912 836 907 835 897 819 872 784 854 740 839 691 871 630 895 558 912 476 934 476 945 466 948 453L858 433C850 496 837 553 819 606 804 525 797 436 793 348L935 348C949 348 958 343 961 332 931 305 884 270 884 270L843 319 792 319 790 251C796 250 802 249 806 247L806 249C852 288 903 209 810 151L951 151C964 151 974 146 976 135 947 106 898 68 898 68L855 122 750 122C760 102 769 81 777 59 798 59 809 50 813 38ZM546 555L546 817 553 817C574 817 595 806 595 801L595 759 658 759 658 787 665 787C681 787 706 775 707 770L707 587C720 584 732 578 737 572L679 527 651 555 599 555 546 530ZM595 730L595 584 658 584 658 730Z"/>
</svg>