<svg xmlns="http://www.w3.org/2000/svg"
    viewBox="0 0 1000 1000">
  <!--
© 2017-2024 Adobe (http://www.adobe.com/).
Noto is a trademark of Google Inc.
This Font Software is licensed under the SIL Open Font License, Version 1.1. This Font Software is distributed on an "AS IS" BASIS, WITHOUT WARRANTIES OR CONDITIONS OF ANY KIND, either express or implied. See the SIL Open Font License for the specific language, permissions and limitations governing your use of this Font Software.
http://scripts.sil.org/OFL
  -->
<path d="M573 676L560 679C571 720 583 783 579 832 620 880 679 786 573 676ZM649 658L637 664C662 695 691 749 693 791 741 832 791 730 649 658ZM722 632L712 642C746 664 786 706 797 740 849 770 880 666 722 632ZM491 681C492 711 484 744 472 771 439 741 388 701 388 701L343 758 146 758 146 139 447 139C461 139 471 134 473 123 441 93 390 53 390 53L345 110 158 110 85 78 85 886 94 886C125 886 146 870 146 865L146 788 446 788C457 788 465 785 468 779 460 795 449 809 439 817 423 831 414 851 424 868 436 886 469 879 485 860 510 832 530 767 509 682ZM339 191C329 246 315 308 296 371 263 341 222 309 171 278L158 286C197 324 241 374 279 428 246 525 202 622 147 699L160 710C223 644 272 561 311 477 340 523 361 570 369 611 425 654 461 550 339 414 364 350 384 288 398 235 425 236 433 229 437 218ZM564 150L810 150 810 234 564 234ZM635 12L618 121 576 121 503 89 503 644 512 644C544 644 564 629 564 625L564 604 874 604C865 745 846 828 824 847 816 855 808 857 792 857 772 857 713 851 679 848L678 866C709 870 742 878 755 887 767 897 771 913 770 929 807 929 839 920 863 901 901 870 924 776 933 611 953 609 965 604 972 597L900 538 866 575 564 575 564 493 943 493C956 493 965 488 967 478 938 449 890 412 890 412L847 464 564 464 564 380 810 380 810 409 820 409C839 409 870 394 871 387L871 161C891 157 906 150 912 142L835 83 800 121 653 121C670 100 690 74 704 55 725 55 737 47 741 32ZM564 264L810 264 810 351 564 351Z"/>
</svg>