<svg xmlns="http://www.w3.org/2000/svg"
    viewBox="0 0 1000 1000">
  <!--
© 2017-2023 Adobe (http://www.adobe.com/).
Noto is a trademark of Google Inc.
This Font Software is licensed under the SIL Open Font License, Version 1.1. This Font Software is distributed on an "AS IS" BASIS, WITHOUT WARRANTIES OR CONDITIONS OF ANY KIND, either express or implied. See the SIL Open Font License for the specific language, permissions and limitations governing your use of this Font Software.
http://scripts.sil.org/OFL
  -->
<path d="M609 676L594 679C605 720 616 783 611 831 650 879 709 787 609 676ZM677 658L664 664C689 695 715 749 716 790 763 831 813 732 677 658ZM743 632L733 641C765 664 804 706 815 741 864 771 896 669 743 632ZM532 681C534 735 508 795 482 818 465 831 456 852 466 868 479 885 511 878 527 859 552 831 571 767 551 682ZM267 357L267 590 175 590 175 357ZM172 11C147 153 97 295 40 389L55 398C78 374 99 346 119 315L119 702 128 702C157 702 175 687 175 683L175 619 267 619 267 656 275 656C294 656 323 642 324 636L324 368C343 364 358 356 365 349L291 292 257 328 187 328 127 302C151 264 172 222 190 178L407 178C401 554 387 790 350 829 340 840 332 842 312 842 292 842 226 836 184 832L183 850C221 856 260 866 274 876 287 887 291 903 291 923 333 923 372 908 398 874 443 815 458 586 464 187 486 183 499 178 507 170L432 108 396 150 202 150C214 120 224 89 234 57 254 57 265 47 269 36ZM599 151L823 151 823 235 599 235ZM663 12C659 43 651 89 645 121L611 121 540 90 540 645 549 645C579 645 599 630 599 626L599 604 883 604C875 746 860 829 839 847 830 855 822 856 807 856 788 856 732 851 698 849L697 867C728 870 759 878 772 887 784 896 787 913 787 929 821 929 853 920 876 901 912 870 932 778 940 611 960 608 971 604 978 597L907 539 874 575 599 575 599 493 941 493C955 493 964 488 967 478 937 449 889 412 889 412L846 464 599 464 599 380 823 380 823 410 831 410C851 410 881 395 882 388L882 161C902 158 917 150 924 143L847 85 814 121 681 121 731 55C752 55 765 47 769 32ZM599 265L823 265 823 351 599 351Z"/>
</svg>