<svg xmlns="http://www.w3.org/2000/svg"
    viewBox="0 0 1000 1000">
  <!--
© 2017-2023 Adobe (http://www.adobe.com/).
Noto is a trademark of Google Inc.
This Font Software is licensed under the SIL Open Font License, Version 1.1. This Font Software is distributed on an "AS IS" BASIS, WITHOUT WARRANTIES OR CONDITIONS OF ANY KIND, either express or implied. See the SIL Open Font License for the specific language, permissions and limitations governing your use of this Font Software.
http://scripts.sil.org/OFL
  -->
<path d="M397 79L385 85C413 119 439 175 439 221 490 269 550 152 397 79ZM620 676L605 679C616 720 627 783 622 831 662 879 720 787 620 676ZM686 658L673 664C697 695 724 749 725 790 771 831 822 732 686 658ZM750 632L740 641C772 664 811 706 822 741 871 771 902 669 750 632ZM546 681C547 735 521 795 495 818 479 831 470 852 480 868 493 885 524 878 540 859 565 831 584 767 564 682ZM229 17C180 62 108 109 48 138L63 156C90 148 118 138 147 127L147 308 47 308 55 338 147 338 147 526C102 546 64 562 42 570L81 642C90 638 97 628 98 616L147 582 147 833C147 846 144 850 131 850 117 850 59 846 59 846L59 861C89 866 103 871 113 882 122 891 125 909 126 926 195 917 204 882 204 835L204 542 293 477 287 464 204 501 204 338 305 338C306 467 310 585 327 690 301 743 269 793 231 833L242 846C278 816 310 780 337 742 346 780 356 815 369 849 387 897 437 939 466 918 478 909 475 891 455 845L473 685 459 682C450 721 437 766 428 789 419 812 417 812 408 790 395 756 386 718 379 677 425 595 455 508 474 434 501 434 509 428 512 416L422 393C412 456 394 527 368 596 361 517 360 429 361 338L484 338C497 338 506 333 508 322 481 294 437 259 437 259L398 308 362 308 369 56C394 53 403 41 405 28L307 17 305 308 204 308 204 103C228 93 250 82 269 71 288 75 296 73 303 64ZM612 151L827 151 827 235 612 235ZM673 12C669 43 661 89 655 121L625 121 554 90 554 643 563 643C593 643 612 628 612 624L612 604 884 604C877 745 863 826 842 844 834 852 827 854 811 854 792 854 736 848 703 846L702 863C732 868 764 875 775 884 788 893 791 910 791 926 825 926 858 917 879 898 915 867 934 777 942 610 962 608 973 604 980 597L909 539 876 575 612 575 612 493 940 493C954 493 963 488 965 478 936 449 888 411 888 411L846 464 612 464 612 380 827 380 827 410 836 410C855 410 885 395 886 388L886 161C905 158 921 150 928 143L852 85 818 121 690 121C707 100 727 74 741 55 762 55 775 47 779 32ZM612 265L827 265 827 352 612 352Z"/>
</svg>