<svg xmlns="http://www.w3.org/2000/svg" name="gid14836" data-unicode="鵞"
    viewBox="0 0 1000 1000">
  <!--
© 2017-2024 Adobe (http://www.adobe.com/).
Noto is a trademark of Google Inc.
This Font Software is licensed under the SIL Open Font License, Version 1.1. This Font Software is distributed on an "AS IS" BASIS, WITHOUT WARRANTIES OR CONDITIONS OF ANY KIND, either express or implied. See the SIL Open Font License for the specific language, permissions and limitations governing your use of this Font Software.
http://scripts.sil.org/OFL
  -->
<path d="M677 50L668 59C702 79 746 116 763 145 819 173 850 68 677 50ZM313 807L300 812C313 842 325 890 321 928 367 981 443 887 313 807ZM455 807L444 814C469 840 495 888 497 926 551 972 610 861 455 807ZM197 799C188 844 140 878 102 890 82 899 68 917 75 936 84 957 116 958 141 948 179 930 226 881 215 800ZM550 42C556 87 565 130 579 169L355 169 355 109C399 104 439 99 474 94 494 104 510 105 518 97L462 40C377 65 218 93 89 105L94 123C159 123 228 120 293 114L293 169 65 169 74 198 293 198 293 255C194 262 110 267 62 269L95 337C104 335 112 329 118 317L293 293 293 348C293 359 290 364 274 364 256 364 179 359 179 359L179 374C216 378 235 384 247 393 258 401 263 415 264 431 343 422 355 395 355 348L355 283 535 254 533 237 355 250 355 198 589 198C603 232 620 262 642 290 569 317 484 339 401 352L405 370C499 362 591 344 671 321 712 360 766 391 837 410 884 425 931 432 943 404 947 392 944 384 918 367L923 268 911 267C901 298 891 331 883 349 877 360 870 362 852 357 804 345 765 326 734 301 774 287 810 272 840 256 862 262 877 262 884 253L816 204C787 225 747 247 699 268 681 246 666 223 654 198L916 198C930 198 940 193 942 183 912 155 864 120 864 120L822 169 642 169C630 138 623 105 618 73 636 70 643 60 644 49ZM613 805L601 813C625 837 653 878 661 910 681 926 702 918 707 900 724 903 739 909 746 916 756 925 758 942 758 957 787 957 816 950 835 938 867 917 886 873 896 797 914 794 927 790 934 783L864 726 830 762 286 762 286 713 925 713C939 713 949 709 952 698 920 669 870 631 870 631L825 685 286 685 286 638 709 638 709 660 719 660C740 660 772 645 773 639L773 491C790 488 805 480 811 473L735 416 700 452 479 452C495 438 513 422 525 410 545 411 559 404 564 390L468 367 440 452 292 452 223 421 223 825 233 825C260 825 286 810 286 803L286 791 836 791C827 842 814 871 802 879 796 884 788 886 774 886L708 883C704 858 678 827 613 805ZM709 482L709 530 286 530 286 482ZM286 560L709 560 709 609 286 609Z"/>
</svg>