<svg xmlns="http://www.w3.org/2000/svg" name="gid14839" data-unicode="鵡"
    viewBox="0 0 1000 1000">
  <!--
© 2017-2024 Adobe (http://www.adobe.com/).
Noto is a trademark of Google Inc.
This Font Software is licensed under the SIL Open Font License, Version 1.1. This Font Software is distributed on an "AS IS" BASIS, WITHOUT WARRANTIES OR CONDITIONS OF ANY KIND, either express or implied. See the SIL Open Font License for the specific language, permissions and limitations governing your use of this Font Software.
http://scripts.sil.org/OFL
  -->
<path d="M425 87L413 94C437 118 460 159 464 193 511 233 565 136 425 87ZM83 154L91 184 286 184C300 184 308 179 310 168 284 140 239 105 239 105L200 154ZM620 706L605 709C616 750 627 813 622 861 662 909 720 817 620 706ZM686 688L673 694C697 725 724 779 725 820 771 861 822 762 686 688ZM750 662L740 671C772 694 811 736 822 771 871 801 902 699 750 662ZM544 711C543 771 510 835 480 860 463 874 454 894 464 908 477 926 509 918 527 900 555 871 580 804 562 712ZM199 329L199 792 139 808 139 473C155 470 162 463 163 453L86 444 86 821 36 833 76 911C85 908 93 899 96 887 217 834 307 790 370 760L366 745 255 776 255 559 324 559C337 559 346 554 348 543 329 518 295 485 295 485L265 530 255 530 255 358C271 355 278 348 280 337ZM333 51C333 133 333 210 334 283L39 283 47 312 335 312C340 509 356 671 408 783 429 826 465 855 492 836 502 827 499 799 484 765L491 616 478 614C473 651 464 689 457 710 452 728 446 725 440 712 407 636 393 482 390 312L504 312C517 312 526 307 529 296 503 269 459 235 459 235L422 283 390 283C389 219 390 154 392 90 415 86 424 75 426 63ZM612 181L827 181 827 265 612 265ZM673 42C669 73 661 119 655 151L625 151 554 120 554 674 563 674C593 674 612 659 612 655L612 634 884 634C877 777 863 859 842 877 834 885 826 886 810 886 791 886 736 881 702 879L701 897C732 900 763 908 775 917 787 926 790 943 790 959 825 959 857 950 879 931 915 900 934 808 942 640 962 638 973 634 980 627L909 569 876 605 612 605 612 523 940 523C954 523 963 518 965 508 936 479 888 441 888 441L846 494 612 494 612 410 827 410 827 440 836 440C855 440 885 425 886 418L886 191C905 188 921 180 928 173L852 115 818 151 690 151C707 130 727 104 741 85 762 85 775 77 779 62ZM612 295L827 295 827 381 612 381Z"/>
</svg>