<svg xmlns="http://www.w3.org/2000/svg" name="gid14841" data-unicode="鵣"
    viewBox="0 0 1000 1000">
  <!--
© 2017-2024 Adobe (http://www.adobe.com/).
Noto is a trademark of Google Inc.
This Font Software is licensed under the SIL Open Font License, Version 1.1. This Font Software is distributed on an "AS IS" BASIS, WITHOUT WARRANTIES OR CONDITIONS OF ANY KIND, either express or implied. See the SIL Open Font License for the specific language, permissions and limitations governing your use of this Font Software.
http://scripts.sil.org/OFL
  -->
<path d="M573 706L560 709C571 750 583 813 579 862 620 910 679 816 573 706ZM649 688L637 694C662 725 691 779 693 821 741 862 791 760 649 688ZM722 662L712 672C746 694 786 736 797 770 849 800 880 696 722 662ZM491 711C493 764 467 825 439 847 423 861 414 881 424 898 436 916 469 909 485 890 510 862 530 797 509 712ZM230 347L230 508 139 508 139 347ZM291 347L376 347 376 508 291 508ZM83 317L83 597 91 597C120 597 139 581 139 575L139 538 213 538C176 657 115 773 34 861L46 875C122 815 184 743 230 660L230 957 243 957C265 957 291 942 291 932L291 615C333 655 377 715 383 767 448 817 500 671 291 597L291 538 376 538 376 581 385 581C404 581 432 567 433 560L433 355C449 352 464 344 470 337L399 283 367 317 291 317 291 218 455 218C468 218 478 213 481 202 450 174 401 134 401 134L358 189 291 189 291 81C315 77 323 68 326 53L230 43 230 189 51 189 59 218 230 218 230 317 151 317 83 288ZM564 180L810 180 810 264 564 264ZM635 42L618 151 576 151 503 119 503 674 512 674C544 674 564 659 564 655L564 634 874 634C865 775 846 858 824 877 816 885 808 887 792 887 772 887 713 881 679 878L678 896C709 900 742 908 755 917 767 927 771 943 770 959 807 959 839 950 863 931 901 900 924 806 933 641 953 639 965 634 972 627L900 568 866 605 564 605 564 523 943 523C956 523 965 518 967 508 938 479 890 442 890 442L847 494 564 494 564 409 810 409 810 439 820 439C839 439 870 424 871 417L871 191C891 187 906 180 912 172L835 113 800 151 653 151C670 130 690 104 704 85 725 85 737 77 741 62ZM564 294L810 294 810 380 564 380Z"/>
</svg>