<svg xmlns="http://www.w3.org/2000/svg" name="gid14844" data-unicode="鵩"
    viewBox="0 0 1000 1000">
  <!--
© 2017-2024 Adobe (http://www.adobe.com/).
Noto is a trademark of Google Inc.
This Font Software is licensed under the SIL Open Font License, Version 1.1. This Font Software is distributed on an "AS IS" BASIS, WITHOUT WARRANTIES OR CONDITIONS OF ANY KIND, either express or implied. See the SIL Open Font License for the specific language, permissions and limitations governing your use of this Font Software.
http://scripts.sil.org/OFL
  -->
<path d="M651 700L637 704C649 744 658 807 651 855 688 901 746 809 651 700ZM712 681L698 688C722 719 744 771 742 813 783 853 833 758 712 681ZM773 661L761 669C790 692 822 732 826 766 870 797 905 705 773 661ZM573 704C580 757 566 823 542 849 527 864 520 883 530 897 543 912 572 902 584 883 605 854 616 788 592 704ZM387 575L374 583C401 611 430 648 453 688 438 769 413 848 374 912L386 926C431 875 463 815 485 751 494 775 500 798 502 820 550 859 588 777 507 676 520 621 527 565 532 514 553 513 563 510 570 501L502 442 465 479 374 479 374 149 468 149 468 333C468 344 465 349 453 349 440 349 392 345 392 345L392 362C417 366 431 372 439 380 447 390 450 407 452 423 515 417 523 388 523 340L523 156C539 153 552 145 557 138L487 88 460 119 385 119 319 90 319 957 327 957C355 957 374 942 374 937L374 508 473 508C471 547 468 589 463 630 442 612 417 593 387 575ZM146 150L218 150 218 352C206 334 183 314 146 296ZM93 120L93 421C93 596 96 791 42 946L60 956C127 837 142 682 145 544 166 572 182 609 184 640 196 650 209 652 218 646L218 849C218 862 215 867 203 867 190 867 136 862 136 862L136 878C162 883 177 889 186 899 195 908 198 926 200 944 264 936 271 906 271 857L271 159C290 156 305 148 312 140L237 84 209 120 157 120 93 90ZM146 324C164 351 180 385 182 414 195 425 209 425 218 418L218 573C205 555 182 536 146 520L146 421ZM638 181L833 181 833 265 638 265ZM693 42C690 73 682 119 677 151L650 151 580 120 580 671 589 671C619 671 638 655 638 650L638 634 882 634C876 778 863 856 843 874 836 881 828 883 814 883 795 883 744 878 712 876L712 893C740 897 769 904 781 913 792 922 795 938 795 953 828 953 860 946 881 926 916 896 933 811 940 640 959 638 970 634 977 627L906 569 873 605 638 605 638 523 939 523C953 523 962 518 964 508 935 480 888 443 888 443L848 494 638 494 638 412 833 412 833 440 842 440C862 440 892 425 893 418L893 191C911 187 927 180 934 172L858 115 823 151 709 151C725 129 744 102 757 82 778 82 790 73 793 59ZM638 295L833 295 833 383 638 383Z"/>
</svg>