<svg xmlns="http://www.w3.org/2000/svg" name="gid14850" data-unicode="鵲"
    viewBox="0 0 1000 1000">
  <!--
© 2017-2024 Adobe (http://www.adobe.com/).
Noto is a trademark of Google Inc.
This Font Software is licensed under the SIL Open Font License, Version 1.1. This Font Software is distributed on an "AS IS" BASIS, WITHOUT WARRANTIES OR CONDITIONS OF ANY KIND, either express or implied. See the SIL Open Font License for the specific language, permissions and limitations governing your use of this Font Software.
http://scripts.sil.org/OFL
  -->
<path d="M573 706L560 709C571 750 583 813 579 862 620 910 679 816 573 706ZM649 688L637 694C662 725 691 779 693 821 741 862 791 760 649 688ZM722 662L712 672C746 694 786 736 797 770 849 800 880 696 722 662ZM491 711C493 764 467 825 439 847 423 861 414 881 424 898 436 916 469 909 485 890 510 862 530 797 509 712ZM163 546L346 546 346 666 163 666ZM102 516L102 926 112 926C143 926 163 911 163 906L163 850 346 850 346 903 355 903C375 903 406 887 407 881L407 557C427 553 442 545 449 537L371 478 336 516 175 516 102 485ZM163 696L346 696 346 821 163 821ZM303 52L303 208 203 208 203 86C224 83 232 75 234 61L145 52 145 208 51 208 59 237 145 237 145 393 40 393 48 422 471 422C485 422 494 417 497 406 470 379 426 343 426 343L388 393 362 393 362 237 457 237C470 237 479 232 482 221 455 194 413 159 413 159L376 208 362 208 362 87C383 84 392 75 394 62ZM203 393L203 237 303 237 303 393ZM564 180L810 180 810 264 564 264ZM635 42L618 150 576 150 503 118 503 675 512 675C544 675 564 659 564 655L564 634 874 634C865 772 847 855 825 874 817 882 808 884 792 884 773 884 714 878 680 875L679 893C710 898 743 905 756 914 768 924 771 940 771 956 807 956 840 947 864 928 901 897 924 804 933 641 953 639 965 634 972 627L900 568 866 605 564 605 564 523 943 523C956 523 965 518 967 508 938 479 890 442 890 442L847 494 564 494 564 409 810 409 810 440 820 440C839 440 870 424 871 418L871 190C891 187 906 179 912 172L835 112 800 150 654 150C671 129 690 104 704 85 725 85 737 77 741 62ZM564 294L810 294 810 380 564 380Z"/>
</svg>