<svg xmlns="http://www.w3.org/2000/svg"
    viewBox="0 0 1000 1000">
  <!--
© 2017-2024 Adobe (http://www.adobe.com/).
Noto is a trademark of Google Inc.
This Font Software is licensed under the SIL Open Font License, Version 1.1. This Font Software is distributed on an "AS IS" BASIS, WITHOUT WARRANTIES OR CONDITIONS OF ANY KIND, either express or implied. See the SIL Open Font License for the specific language, permissions and limitations governing your use of this Font Software.
http://scripts.sil.org/OFL
  -->
<path d="M633 667L619 671C630 708 638 767 634 813 672 859 731 772 633 667ZM699 650L687 657C710 685 733 735 735 773 779 812 830 718 699 650ZM763 625L753 634C784 654 817 692 826 724 875 752 907 656 763 625ZM111 108C107 177 82 220 47 239-7 311 144 349 137 178L431 178C422 214 408 261 397 290L410 297C440 269 479 222 500 188 519 187 531 185 538 178L466 108 427 149 314 149 314 57C338 54 349 44 351 30L253 20 253 149 134 149 127 109ZM559 675C563 721 542 778 518 800 502 812 493 831 502 848 500 845 494 842 487 839L484 733 471 733C464 774 454 827 449 837 445 844 443 845 437 846 432 846 419 846 404 846L371 846C355 846 352 842 352 828L352 361 427 361 427 581C427 593 425 598 415 598 404 598 366 594 366 594L366 610C386 613 397 618 405 628 413 637 415 654 416 670 474 662 481 635 481 588L481 369C498 366 512 358 518 352L445 299 419 332 365 332 298 302 298 370 247 326 214 363 166 363C172 340 176 317 180 295 202 294 212 285 215 272L128 255C116 386 82 531 35 615L51 623C74 595 95 561 112 522 135 549 155 585 160 614 167 620 175 623 182 623 154 729 110 825 40 892L52 906C207 791 254 589 278 398L298 395 298 845C298 883 306 900 358 900L404 900C487 900 510 887 510 865 510 859 509 855 505 852 518 866 548 858 563 842 584 814 598 754 577 675ZM122 501C136 467 149 430 159 392L220 392C215 446 208 500 198 553 184 535 160 517 122 501ZM612 151L827 151 827 235 612 235ZM673 12C669 43 661 89 655 121L625 121 554 90 554 643 563 643C593 643 612 628 612 624L612 604 884 604C877 747 863 829 842 847 834 855 826 856 810 856 791 856 736 851 702 849L701 867C732 870 763 878 775 887 787 896 790 913 790 929 825 929 857 920 879 901 915 870 934 778 942 610 962 608 973 604 980 597L909 539 876 575 612 575 612 493 940 493C954 493 963 488 965 478 936 449 888 411 888 411L846 464 612 464 612 382 827 382 827 408 836 408C855 408 885 393 886 386L886 161C905 158 921 150 928 143L852 85 818 121 690 121C707 100 727 74 741 55 762 55 775 47 779 32ZM612 265L827 265 827 353 612 353Z"/>
</svg>