<svg xmlns="http://www.w3.org/2000/svg"
    viewBox="0 0 1000 1000">
  <!--
© 2017-2023 Adobe (http://www.adobe.com/).
Noto is a trademark of Google Inc.
This Font Software is licensed under the SIL Open Font License, Version 1.1. This Font Software is distributed on an "AS IS" BASIS, WITHOUT WARRANTIES OR CONDITIONS OF ANY KIND, either express or implied. See the SIL Open Font License for the specific language, permissions and limitations governing your use of this Font Software.
http://scripts.sil.org/OFL
  -->
<path d="M609 676L594 679C605 720 616 783 611 831 650 879 709 787 609 676ZM677 658L664 664C689 695 715 749 716 790 763 831 813 732 677 658ZM743 632L733 641C765 664 804 706 815 741 864 771 896 669 743 632ZM532 681C534 735 508 795 482 818 465 831 456 852 466 868 479 885 511 878 527 859 552 831 571 767 551 682ZM405 218L405 307 181 307 181 218ZM405 189L181 189 181 102 405 102ZM121 73L121 384 130 384C156 384 181 370 181 363L181 337 405 337 405 371 415 371C434 371 466 357 467 350L467 114C487 110 503 102 509 94L430 34 395 73 186 73 121 43ZM229 508C221 532 207 569 191 608L43 608 51 637 178 637C155 690 128 744 108 776 131 786 156 788 170 782L187 749C216 764 242 780 266 797 221 846 153 882 55 909L60 928C174 907 253 875 307 827 344 857 372 886 387 908 436 932 467 858 345 787 376 746 396 697 409 637L504 637C517 637 528 632 530 621 499 593 450 553 450 553L407 608 253 608 278 550C303 550 312 541 317 527ZM240 637L342 637C332 685 317 726 294 761 267 750 235 738 197 728ZM125 416C127 454 104 497 78 513 61 524 50 543 59 559 70 578 100 575 117 561 134 548 148 521 151 485L422 485C414 511 403 541 395 559L409 566C434 549 471 517 490 494 508 493 521 492 528 486L458 418 421 456 312 456 312 396C334 392 343 383 345 370L251 361 251 456 150 456C149 444 147 430 143 416ZM599 150L823 150 823 234 599 234ZM663 12C659 43 651 88 645 120L611 120 540 89 540 644 549 644C579 644 599 629 599 625L599 604 883 604C875 745 860 826 839 844 831 852 823 854 808 854 789 854 733 848 699 846L698 863C729 868 760 875 772 884 785 893 788 910 787 926 821 926 854 917 876 898 912 867 932 776 940 611 960 608 971 604 978 597L907 539 874 575 599 575 599 493 941 493C955 493 964 488 967 478 937 449 889 412 889 412L846 464 599 464 599 379 823 379 823 409 831 409C851 409 881 394 882 388L882 160C902 156 917 149 924 141L847 83 814 120 682 120 731 55C752 55 765 47 769 32ZM599 263L823 263 823 350 599 350Z"/>
</svg>