<svg xmlns="http://www.w3.org/2000/svg" name="gid14924" data-unicode="鷲"
    viewBox="0 0 1000 1000">
  <!--
© 2017-2024 Adobe (http://www.adobe.com/).
Noto is a trademark of Google Inc.
This Font Software is licensed under the SIL Open Font License, Version 1.1. This Font Software is distributed on an "AS IS" BASIS, WITHOUT WARRANTIES OR CONDITIONS OF ANY KIND, either express or implied. See the SIL Open Font License for the specific language, permissions and limitations governing your use of this Font Software.
http://scripts.sil.org/OFL
  -->
<path d="M371 313L363 324C399 340 443 372 462 397 518 419 539 314 371 313ZM313 807L300 812C313 842 325 890 321 928 367 981 443 887 313 807ZM455 807L444 814C469 840 495 888 497 926 551 972 610 861 455 807ZM197 799C188 844 140 878 102 890 82 899 68 917 75 936 84 957 116 958 141 948 179 930 226 881 215 800ZM649 45C648 86 648 126 643 165L509 165 517 193 639 193C625 270 590 341 503 400L516 416C606 372 654 318 679 260L679 359C679 397 688 411 747 411L814 411C919 411 944 400 944 376 944 365 939 359 921 352L918 275 906 275C897 309 890 341 884 351 881 358 877 358 870 359 863 360 841 360 817 360L760 360C739 360 736 358 736 347L736 251C752 248 761 240 763 228L693 220 700 193 920 193C934 193 943 188 946 178 915 151 868 118 868 118L854 134C865 109 843 66 745 63L736 72C765 88 796 118 807 145 821 153 834 152 843 146L826 165 705 165C709 135 710 106 712 77 732 75 740 64 742 53ZM407 204L407 254 202 254 202 204ZM144 175L144 313 153 313 169 311C135 359 94 398 56 421L67 438C114 420 166 389 205 347 225 355 239 348 245 341L192 302C198 299 202 296 202 294L202 283 277 283 277 356C277 366 275 372 263 372 251 372 211 369 211 369L211 384C234 386 245 390 252 397 260 403 262 414 263 424 325 418 334 399 334 356L334 283 407 283 407 306 416 306C435 306 464 293 465 286L465 207C478 204 488 198 493 192L430 145 400 175 207 175 144 147ZM65 106L73 135 523 135C537 135 546 130 549 119 520 94 476 61 476 61L436 106 335 106 335 73C355 70 363 62 364 50L275 41 275 106ZM419 382L382 453 292 453 223 421 223 825 233 825C259 825 286 810 286 803L286 792 832 792C824 843 813 873 801 881 795 885 787 887 774 887L708 883C704 859 679 827 613 805L601 813C625 837 653 878 661 910 681 925 701 918 707 901 724 904 739 909 746 916 757 925 759 943 759 958 787 958 815 951 834 939 866 919 884 875 893 797 911 795 923 791 930 784L860 727 826 763 286 763 286 714 922 714C936 714 946 710 949 699 917 670 866 632 866 632L821 685 286 685 286 639 701 639 701 661 711 661C732 661 764 646 765 640L765 492C782 489 797 481 803 474L726 417 692 453 428 453 467 430C488 433 503 428 508 415ZM701 482L701 531 286 531 286 482ZM286 560L701 560 701 610 286 610Z"/>
</svg>