<svg xmlns="http://www.w3.org/2000/svg" name="gid14927" data-unicode="鷸"
    viewBox="0 0 1000 1000">
  <!--
© 2017-2024 Adobe (http://www.adobe.com/).
Noto is a trademark of Google Inc.
This Font Software is licensed under the SIL Open Font License, Version 1.1. This Font Software is distributed on an "AS IS" BASIS, WITHOUT WARRANTIES OR CONDITIONS OF ANY KIND, either express or implied. See the SIL Open Font License for the specific language, permissions and limitations governing your use of this Font Software.
http://scripts.sil.org/OFL
  -->
<path d="M626 706L611 709C622 750 633 813 628 861 668 909 727 817 626 706ZM692 688L680 694C703 725 730 779 732 820 777 861 828 762 692 688ZM757 662L746 671C779 694 818 736 827 771 877 801 908 699 757 662ZM552 711C556 763 535 824 510 848 494 862 485 883 496 898 509 915 541 907 555 888 577 860 592 795 570 712ZM82 483L82 956 90 956C118 956 138 941 138 936L138 513 206 513C204 566 194 615 143 658L158 673C232 632 249 577 254 513L302 513 302 590C302 620 309 633 347 633L378 633C401 633 419 632 431 630L431 863C431 876 427 881 413 881 395 881 324 875 324 875L324 892C358 896 376 902 387 910 398 919 402 932 404 948 479 941 488 914 488 869L488 522C506 518 521 511 527 504L451 447 422 483 150 483 82 452ZM84 109L93 138 365 138C343 160 315 186 292 206 271 189 236 175 183 170L173 179C202 196 234 223 254 251L47 251 56 281 217 281C174 346 110 407 37 452L48 469 82 452C157 413 224 362 273 302L273 395C273 407 270 411 259 411 248 411 203 407 203 407L203 423C228 427 240 433 248 442 255 450 257 466 258 482 322 474 330 443 330 396L330 281 423 281C411 313 394 353 381 377L396 384C426 361 469 318 492 290 509 289 522 288 529 281L460 213 423 251 320 251C319 242 315 232 308 222 355 200 416 170 449 147 470 146 481 144 489 137L420 71 380 109ZM431 513L431 588 424 588C420 589 414 590 410 590 408 590 405 590 401 591 398 591 390 591 382 591L360 591C351 591 349 588 349 579L349 513ZM247 706L321 706 321 788 247 788ZM196 677L196 872 203 872C230 872 247 859 247 854L247 818 321 818 321 849 329 849C346 849 372 838 373 832L373 707C384 705 394 699 398 695L342 650 315 677 250 677 196 653ZM612 181L827 181 827 265 612 265ZM673 42C669 73 661 119 655 151L625 151 554 120 554 673 563 673C593 673 612 658 612 654L612 634 884 634C877 777 863 859 842 877 834 885 826 886 810 886 791 886 736 881 702 879L701 897C732 900 763 908 775 917 787 926 790 943 790 959 825 959 857 950 879 931 915 900 934 808 942 640 962 638 973 634 980 627L909 569 876 605 612 605 612 523 940 523C954 523 963 518 965 508 936 479 888 441 888 441L846 494 612 494 612 410 827 410 827 439 836 439C855 439 885 424 886 417L886 191C905 188 921 180 928 173L852 115 818 151 690 151C707 130 727 104 741 85 762 85 775 77 779 62ZM612 295L827 295 827 381 612 381Z"/>
</svg>