<svg xmlns="http://www.w3.org/2000/svg" name="gid14942" data-unicode="鸙"
    viewBox="0 0 1000 1000">
  <!--
© 2017-2024 Adobe (http://www.adobe.com/).
Noto is a trademark of Google Inc.
This Font Software is licensed under the SIL Open Font License, Version 1.1. This Font Software is distributed on an "AS IS" BASIS, WITHOUT WARRANTIES OR CONDITIONS OF ANY KIND, either express or implied. See the SIL Open Font License for the specific language, permissions and limitations governing your use of this Font Software.
http://scripts.sil.org/OFL
  -->
<path d="M162 266L170 295 400 295C414 295 423 290 426 279 398 254 356 222 356 222L319 266ZM312 86C362 182 448 263 547 316 552 291 564 268 588 261L590 248C484 214 386 150 326 76 349 75 357 69 360 60L266 37C225 129 123 250 22 316L29 328C144 272 255 174 312 86ZM660 701L645 705C658 745 667 808 659 856 697 902 755 810 660 701ZM718 682L705 689C729 720 751 772 749 814 790 854 839 759 718 682ZM777 662L765 670C795 693 825 733 831 767 874 798 909 707 777 662ZM584 705C591 758 576 824 553 850 538 865 531 884 542 898 555 913 583 903 596 884 617 855 627 789 603 705ZM157 387L157 482 112 482 112 387ZM71 358L71 548 77 548C95 548 112 538 112 534L112 512 157 512 157 534 163 534C176 534 198 523 199 517L199 388C211 386 224 379 228 375L174 333 150 358 117 358 71 335ZM323 387L323 482 278 482 278 387ZM235 358L235 548 242 548C260 548 278 538 278 534L278 512 323 512 323 534 329 534C344 534 365 523 366 517L366 388C378 386 390 379 394 375L342 333 316 358 283 358 235 335ZM493 387L493 482 448 482 448 387ZM406 358L406 548 413 548C431 548 448 538 448 534L448 512 493 512 493 534 499 534C513 534 535 523 535 517L535 388C548 386 561 379 564 375L511 333 486 358 453 358 406 334ZM90 583L90 953 99 953C121 953 144 940 144 935L144 745 213 745 213 941 221 941C247 941 265 928 265 924L265 745 337 745 337 941 345 941C371 941 389 928 389 924L389 745 463 745 463 860C463 872 460 876 450 876 439 876 402 873 402 873L402 889C423 892 433 899 440 907 447 916 450 933 451 950 510 942 517 915 517 867L517 621C534 618 549 610 555 603L482 550 454 583 149 583 90 556ZM144 715L144 613 213 613 213 715ZM463 613L463 715 389 715 389 613ZM265 613L337 613 337 715 265 715ZM650 181L838 181 838 265 650 265ZM702 42L686 151 662 151 592 120 592 673 601 673C631 673 650 657 650 652L650 634 884 634C878 778 865 857 846 875 839 882 831 884 816 884 798 884 746 879 714 877L714 894C742 898 771 905 783 914 794 923 797 939 797 954 830 954 862 946 884 927 918 897 935 811 942 640 962 638 973 634 980 627L909 569 876 605 650 605 650 523 942 523C955 523 965 518 967 508 938 480 891 443 891 443L850 494 650 494 650 411 838 411 838 440 847 440C867 440 896 425 897 418L897 191C916 187 931 180 938 172L862 115 828 151 718 151C734 129 754 102 767 82 787 82 799 73 802 59ZM650 295L838 295 838 382 650 382Z"/>
</svg>