<svg xmlns="http://www.w3.org/2000/svg" name="gid14971" data-unicode="麓"
    viewBox="0 0 1000 1000">
  <!--
© 2017-2024 Adobe (http://www.adobe.com/).
Noto is a trademark of Google Inc.
This Font Software is licensed under the SIL Open Font License, Version 1.1. This Font Software is distributed on an "AS IS" BASIS, WITHOUT WARRANTIES OR CONDITIONS OF ANY KIND, either express or implied. See the SIL Open Font License for the specific language, permissions and limitations governing your use of this Font Software.
http://scripts.sil.org/OFL
  -->
<path d="M667 42L667 143 494 143 501 172 626 172C575 235 504 293 423 336L433 353 486 331 486 386 231 386 158 354 158 548C158 684 145 828 42 945L54 957C172 869 206 747 216 638L298 638 298 869 189 879 231 959C241 956 249 950 254 937 389 904 487 877 554 858L552 841 359 863 359 761 534 761C548 761 557 756 560 745 532 717 486 681 486 681L446 731 359 731 359 638 583 638 583 882C583 928 597 943 673 943L776 943C928 943 956 932 956 904 956 893 951 885 929 878L926 784 913 784C904 825 894 864 888 876 884 883 880 885 869 886 855 887 821 888 778 888L684 888C648 888 645 884 645 869L645 782C722 770 804 749 856 731 878 738 894 739 901 729L830 671C790 698 715 733 645 757L645 638 790 638 790 660 800 660C820 660 851 646 852 641L852 530C869 527 883 519 889 513L815 457 781 493 642 493 642 416 883 416C897 416 906 411 909 400 877 372 827 335 827 335L783 386 548 386 548 344C568 341 576 333 577 321L519 315C576 287 626 253 667 214L667 364 679 364C702 364 729 350 729 343L729 172 733 172C777 252 849 314 918 351 925 320 943 303 967 298L968 287C898 266 816 225 763 172L922 172C936 172 946 167 948 156 918 127 868 87 868 87L825 143 729 143 729 78C754 74 763 65 765 51ZM219 416L377 416 377 493 219 493ZM582 416L582 493 437 493 437 416ZM219 522L377 522 377 608 218 608 219 548ZM790 522L790 608 642 608 642 522ZM582 522L582 608 437 608 437 522ZM248 37L248 143 61 143 69 172 216 172C176 245 115 312 41 364L51 380C130 341 197 291 248 232L248 364 260 364C283 364 309 350 309 342L309 211C345 235 387 274 405 305 468 336 501 218 309 194L309 172 457 172C471 172 481 167 483 156 454 127 407 89 407 89L364 143 309 143 309 73C333 69 342 60 345 48Z"/>
</svg>