<svg xmlns="http://www.w3.org/2000/svg"
    viewBox="0 0 1000 1000">
  <!--
© 2017-2023 Adobe (http://www.adobe.com/).
Noto is a trademark of Google Inc.
This Font Software is licensed under the SIL Open Font License, Version 1.1. This Font Software is distributed on an "AS IS" BASIS, WITHOUT WARRANTIES OR CONDITIONS OF ANY KIND, either express or implied. See the SIL Open Font License for the specific language, permissions and limitations governing your use of this Font Software.
http://scripts.sil.org/OFL
  -->
<path d="M547 44L536 50C560 80 590 129 596 167 648 211 703 104 547 44ZM859 36C848 69 820 131 798 169L809 177C845 149 884 113 905 90 925 93 938 85 941 78ZM324 171L324 269 256 269 256 203C275 200 282 191 284 180L205 171 205 269 143 269 143 151 500 151C514 151 523 146 525 135 496 106 449 70 449 70L407 121 329 121 329 49C351 45 360 36 362 23L268 14 268 121 155 121 88 90 88 431C88 589 92 760 38 892L54 902C138 780 143 607 143 464L439 464 439 491 447 491C465 491 494 479 495 472L495 303C509 300 522 294 526 287L461 237 431 269 375 269 375 203C394 200 402 191 404 180ZM143 298L205 298 205 435 143 435 143 431ZM450 549C435 570 410 602 388 628L388 531C406 528 415 519 417 507L334 497 334 632C319 609 292 580 292 580L268 621 242 621 242 530C263 526 271 517 273 505L188 495 188 818 115 837 159 909C168 905 174 897 177 884 243 847 292 814 325 794L320 780 242 803 242 651 312 651C323 651 332 647 334 638L334 810C334 845 342 860 387 860L424 860C493 860 514 850 514 828 514 816 509 811 492 804L488 740 477 740C471 767 463 797 458 804 455 808 452 809 448 809 443 809 435 809 426 809L401 809C390 809 388 806 388 796L388 658 480 604C499 609 508 607 512 599ZM256 298L324 298 324 435 256 435ZM375 298L439 298 439 435 375 435ZM697 15L697 199 492 199 500 228 654 228C615 294 559 357 495 406L505 421C581 381 648 328 697 267L697 446 709 446C732 446 758 433 758 424L758 231C795 310 856 370 919 407 927 380 943 364 966 359L967 348C902 327 830 285 784 228L935 228C949 228 959 223 962 213 934 186 891 152 891 152L853 199 758 199 758 52C783 48 792 39 794 25ZM833 550L833 749 781 749 781 550ZM569 411C549 519 509 624 464 694L480 704C501 682 521 656 539 626 557 646 572 672 575 694 587 704 599 704 607 699 576 781 528 855 453 911L463 927C613 837 670 696 699 550L730 550 730 749 657 749 665 778 833 778 833 928 844 928C865 928 889 915 889 906L889 778 962 778C975 778 984 773 987 762 962 737 924 705 924 705L891 749 889 749 889 550 951 550C964 550 972 546 975 535 954 511 918 482 918 482L889 521 889 463C910 460 918 451 920 439L833 429 833 521 731 521 677 472 643 505 598 505 617 453C637 453 647 443 651 432ZM550 607C563 584 575 560 586 535L648 535C642 580 632 624 619 666 614 647 595 623 550 607Z"/>
</svg>