<svg xmlns="http://www.w3.org/2000/svg" name="gid14999" data-unicode="麼"
    viewBox="0 0 1000 1000">
  <!--
© 2017-2024 Adobe (http://www.adobe.com/).
Noto is a trademark of Google Inc.
This Font Software is licensed under the SIL Open Font License, Version 1.1. This Font Software is distributed on an "AS IS" BASIS, WITHOUT WARRANTIES OR CONDITIONS OF ANY KIND, either express or implied. See the SIL Open Font License for the specific language, permissions and limitations governing your use of this Font Software.
http://scripts.sil.org/OFL
  -->
<path d="M449 365L449 561 459 561C478 561 501 548 501 541L501 396C518 392 526 384 527 374ZM246 365C245 449 246 546 199 619L214 634C289 565 293 468 298 396 316 393 324 383 325 372ZM591 365C590 433 590 510 540 571L556 586C635 531 639 452 644 395 663 392 671 382 672 372ZM803 362L803 516C803 570 811 585 860 585L902 585C947 585 963 571 963 549 963 541 960 538 943 530L941 472 928 472C922 502 915 523 911 531 907 539 904 538 899 538L864 538C854 538 855 536 855 516L855 394C870 392 881 383 882 372ZM346 200L346 295 212 295 220 324 346 324 346 604 357 604C378 604 402 591 402 584L402 324 520 324C534 324 543 319 545 309 520 283 478 249 478 249L442 295 402 295 402 237C426 233 435 224 437 211ZM696 200L696 295 553 295 561 324 696 324 696 607 706 607C728 607 752 595 752 587L752 324 910 324C923 324 932 319 935 309 907 281 863 245 863 245L824 295 752 295 752 237C775 233 785 224 787 210ZM658 631C606 695 507 794 421 867 330 871 255 874 205 875L256 956C265 954 275 947 280 934 512 909 680 888 802 869 827 897 848 925 859 952 937 990 963 823 690 760L681 770C712 789 748 817 779 847L464 864C554 806 648 734 702 684 725 690 733 686 741 675ZM493 577C476 610 444 660 413 700 386 687 348 676 299 671L290 681C340 707 405 759 428 802 477 822 501 761 437 715 477 687 517 653 540 629 562 633 570 628 577 617ZM117 149L117 405C117 584 112 780 32 939L47 949C175 792 181 569 181 404L181 178 931 178C945 178 954 173 957 162 924 131 869 88 869 88L821 149 550 149 550 80C575 77 585 67 586 53L487 43 487 149 192 149 117 115Z"/>
</svg>