<svg xmlns="http://www.w3.org/2000/svg"
    viewBox="0 0 1000 1000">
  <!--
© 2017-2024 Adobe (http://www.adobe.com/).
Noto is a trademark of Google Inc.
This Font Software is licensed under the SIL Open Font License, Version 1.1. This Font Software is distributed on an "AS IS" BASIS, WITHOUT WARRANTIES OR CONDITIONS OF ANY KIND, either express or implied. See the SIL Open Font License for the specific language, permissions and limitations governing your use of this Font Software.
http://scripts.sil.org/OFL
  -->
<path d="M162 133L147 137C161 179 176 244 174 293 210 334 255 246 162 133ZM101 701C103 759 78 831 56 859 39 876 31 900 44 917 61 937 96 926 109 903 130 868 141 793 119 702ZM187 697L173 701C188 750 201 826 195 884 241 940 308 825 187 697ZM373 682L362 688C392 723 429 780 436 824 491 866 538 753 373 682ZM275 691L262 697C288 738 317 805 320 856 371 903 426 791 275 691ZM335 132C331 173 318 252 308 304L322 308C345 263 366 207 378 173 388 173 396 170 401 166L401 347 292 347 292 97 401 97 401 150ZM42 613L50 643 473 643C487 643 497 638 500 627 470 599 422 562 422 562L380 613 296 613 296 506 459 506C473 506 482 501 485 490 457 464 413 429 413 429L375 477 296 477 296 376 401 376 401 414 410 414C429 414 458 400 459 394L459 106C476 103 492 95 498 88L425 32 392 68 141 68 79 39 79 424 89 424C112 424 136 411 136 405L136 376 235 376 235 477 64 477 72 506 235 506 235 613ZM136 347L136 97 239 97 239 347ZM830 139C808 191 777 241 738 286 738 257 706 215 612 195 630 177 647 158 663 139ZM663 14C630 103 562 210 491 270L502 282C536 262 569 237 599 208 634 233 672 277 684 311 693 317 702 319 709 318 651 380 578 432 495 471L504 486C701 416 832 291 903 145 926 144 937 142 944 133L875 71 832 109 686 109C699 90 712 71 722 52 748 54 755 50 759 39ZM859 532C833 599 796 660 747 714 758 683 730 625 616 594 640 575 662 554 682 532ZM708 380C668 477 583 589 490 660L499 674C534 655 569 632 601 606 638 637 681 688 694 728 707 736 720 737 730 733 658 807 565 867 451 910L459 926C708 856 853 718 933 540 956 538 966 536 973 528L903 463 860 502 709 502C730 477 748 452 762 428 780 431 792 429 796 420Z"/>
</svg>