<svg xmlns="http://www.w3.org/2000/svg"
    viewBox="0 0 1000 1000">
  <!--
© 2017-2024 Adobe (http://www.adobe.com/).
Noto is a trademark of Google Inc.
This Font Software is licensed under the SIL Open Font License, Version 1.1. This Font Software is distributed on an "AS IS" BASIS, WITHOUT WARRANTIES OR CONDITIONS OF ANY KIND, either express or implied. See the SIL Open Font License for the specific language, permissions and limitations governing your use of this Font Software.
http://scripts.sil.org/OFL
  -->
<path d="M314 557C291 577 250 602 207 623L117 602 117 859 126 859C161 859 178 845 180 841L180 802 392 802 392 819C392 899 416 911 517 911L842 911C946 911 974 898 974 874 974 864 970 862 941 851L938 750 924 750C913 804 903 841 895 853 887 864 873 865 845 865L602 865 602 802 819 802 819 832 829 832C851 832 882 815 883 807L883 641C896 639 909 632 914 625L844 573 811 607 602 607 602 554 797 554 797 579 807 579C827 579 859 565 860 559L860 473C876 471 889 463 893 457L821 403 789 437 211 437 142 407 142 582 151 582C177 582 204 568 204 562L204 554 392 554 392 689 180 689 180 658C237 647 301 627 337 611 358 618 374 618 381 609ZM602 526L602 466 797 466 797 526ZM602 635L819 635 819 689 602 689ZM602 719L819 719 819 773 602 773ZM392 526L204 526 204 466 392 466ZM392 719L392 773 180 773 180 719ZM541 865L514 865C457 865 450 860 450 823L450 466 541 466ZM76 163L84 192 908 192C922 192 931 187 933 176 906 150 864 117 864 117L826 163 532 163 532 109 837 109C851 109 860 104 863 93 836 68 795 34 795 34L757 80 532 80 532 51C557 48 566 38 568 24L466 14 466 80 159 80 167 109 466 109 466 163ZM51 358L59 388 927 388C941 388 950 383 953 372 925 346 882 311 882 311L843 358 532 358 532 295 862 295C876 295 885 290 888 279 861 253 818 220 818 220L781 266 532 266 532 237C557 233 566 223 568 210L466 199 466 266 128 266 137 295 466 295 466 358Z"/>
</svg>