<svg xmlns="http://www.w3.org/2000/svg"
    viewBox="0 0 1000 1000">
  <!--
© 2017-2023 Adobe (http://www.adobe.com/).
Noto is a trademark of Google Inc.
This Font Software is licensed under the SIL Open Font License, Version 1.1. This Font Software is distributed on an "AS IS" BASIS, WITHOUT WARRANTIES OR CONDITIONS OF ANY KIND, either express or implied. See the SIL Open Font License for the specific language, permissions and limitations governing your use of this Font Software.
http://scripts.sil.org/OFL
  -->
<path d="M226 852L273 928C282 925 290 919 296 907 532 875 698 849 815 826L813 807C565 829 331 848 226 852ZM399 278L399 336 167 336 167 278ZM458 490C480 490 493 487 497 481L499 485C572 469 637 447 692 417 746 462 813 495 893 519 901 489 919 470 946 466L946 456C869 442 799 420 741 388 793 352 835 309 866 259 888 258 899 256 906 247L839 187 799 224 724 224 724 143 902 143C916 143 925 138 928 127 898 98 848 60 848 60L806 113 724 113 724 47C746 43 754 34 756 22L662 13 662 113 497 113C503 111 506 106 508 100 481 74 436 40 436 40L397 87 304 87 304 47C323 44 331 36 333 24L242 15 242 87 51 87 59 116 242 116 242 170 81 170 89 200 465 200C478 200 487 195 490 184 462 159 420 127 420 127L382 170 304 170 304 116 483 116 493 115 501 143 662 143 662 224 508 224 517 254 572 254C595 308 624 353 662 390 613 423 556 450 492 470L494 473 419 453 516 431 514 413 344 433 376 405C395 406 406 395 407 387L340 365 399 365 399 380 408 380C428 380 458 367 459 360L459 284C474 282 487 275 492 269L423 216 391 249 172 249 108 221 108 389 117 389C140 389 167 375 167 370L167 365 181 365 171 369C185 390 198 422 200 449 134 456 80 461 44 464L87 538C96 535 104 528 109 516 225 494 320 474 398 458 340 530 227 615 109 667L119 680C201 656 279 617 344 576 378 606 418 632 462 656 339 711 190 751 40 775L47 792C167 780 281 759 385 729L384 733C452 759 511 799 536 822 592 841 616 736 418 719 452 708 486 695 517 682 633 732 773 764 913 782 919 752 937 733 963 727L964 716C835 707 697 687 578 654 632 626 680 595 721 559 749 558 760 556 768 548L701 484 654 522 420 522ZM185 365L327 365C323 383 315 413 307 437L251 444C256 422 241 390 185 365ZM794 254C770 294 738 331 699 362 657 333 622 297 597 254ZM381 551L635 551C600 581 558 608 510 633 454 613 404 590 364 563Z"/>
</svg>