<svg xmlns="http://www.w3.org/2000/svg"
    viewBox="0 0 1000 1000">
  <!--
© 2017-2024 Adobe (http://www.adobe.com/).
Noto is a trademark of Google Inc.
This Font Software is licensed under the SIL Open Font License, Version 1.1. This Font Software is distributed on an "AS IS" BASIS, WITHOUT WARRANTIES OR CONDITIONS OF ANY KIND, either express or implied. See the SIL Open Font License for the specific language, permissions and limitations governing your use of this Font Software.
http://scripts.sil.org/OFL
  -->
<path d="M659 12L659 108 499 108 506 138 659 138 659 208 502 208 511 237 561 237C584 289 615 331 654 367 606 398 550 423 488 441L490 448 407 429 524 401 522 384 360 404 389 377C409 378 422 369 425 358L339 333C333 355 325 385 317 409L247 416C270 402 272 358 191 332L191 331 400 331 400 350 410 350C431 350 462 334 463 328L463 258C479 255 493 248 498 241L425 187 392 221 195 221 128 192 128 358 138 358C156 358 175 351 185 345 194 362 201 388 202 410 207 415 212 418 217 420 151 427 97 432 62 434L99 510C108 508 117 501 122 490 234 467 327 447 404 430L381 508 271 508 200 477 200 745 210 745C236 745 264 730 264 724L264 714 398 714C364 739 313 760 236 778L244 792 52 792 61 821 577 821 577 926 588 926C622 926 643 912 643 908L643 821 922 821C936 821 945 816 948 806 914 775 860 733 860 733L813 792 643 792 643 714 734 714 734 744 744 744C766 744 799 729 800 723L800 550C819 546 835 538 841 530L760 469 724 508 429 508 471 473C491 474 504 467 509 455 576 440 635 421 687 395 747 439 821 471 910 494 917 464 935 445 962 439L963 428C879 417 803 396 739 365 790 332 831 291 861 243 884 242 894 239 902 231L830 169 787 208 723 208 723 138 924 138C938 138 949 133 952 122 918 92 866 52 866 52L820 108 723 108 723 47C746 43 754 34 756 22ZM262 792C365 772 428 747 466 714L577 714 577 792ZM734 538L734 597 525 597C528 579 529 559 530 538ZM734 684L494 684C507 667 515 647 520 626L734 626ZM264 684L264 626 457 626C452 647 443 667 429 684ZM264 597L264 538 465 538C465 559 464 579 462 597ZM263 12L263 77 72 77 80 105 263 105 263 155 99 155 106 185 468 185C482 185 491 180 493 169 465 144 422 113 422 113L384 155 327 155 327 105 489 105C503 105 511 100 514 89 485 64 439 32 439 32L400 77 327 77 327 47C350 43 358 34 360 21ZM400 301L191 301 191 251 400 251ZM692 340C648 312 611 278 584 237L782 237C760 275 730 310 692 340Z"/>
</svg>