<svg xmlns="http://www.w3.org/2000/svg" name="gid15077" data-unicode="鼷"
    viewBox="0 0 1000 1000">
  <!--
© 2017-2024 Adobe (http://www.adobe.com/).
Noto is a trademark of Google Inc.
This Font Software is licensed under the SIL Open Font License, Version 1.1. This Font Software is distributed on an "AS IS" BASIS, WITHOUT WARRANTIES OR CONDITIONS OF ANY KIND, either express or implied. See the SIL Open Font License for the specific language, permissions and limitations governing your use of this Font Software.
http://scripts.sil.org/OFL
  -->
<path d="M692 133L680 139C696 163 712 204 711 237 759 283 826 189 692 133ZM802 122L791 131C834 166 887 228 900 277 963 317 1004 182 802 122ZM240 41C223 58 192 86 161 110L88 84 88 460 96 460C129 460 147 445 148 440L148 417 416 417 416 452 424 452C444 452 476 438 477 432L477 149C493 146 508 138 513 131L440 75 407 112 300 112 309 141 416 141 416 248 312 248 321 277 416 277 416 387 148 387 148 278 241 278C254 278 263 273 265 262 243 239 208 207 208 207L177 249 148 249 148 144C197 127 248 104 276 88 289 92 299 91 303 84ZM195 648C248 681 292 580 152 570L152 516C172 513 178 506 180 495L96 486 96 871 32 887 72 957C80 953 87 945 91 933 155 899 203 869 234 849L231 834 152 856 152 708C172 726 192 753 197 775 250 810 293 707 152 692L152 583C172 600 190 625 195 648ZM309 695L307 697 307 581C328 597 351 626 358 649 411 682 452 579 310 569L307 571 307 517C327 514 334 507 336 496L252 486 252 877 203 887 243 959C252 956 259 948 263 936 344 900 404 869 445 848L441 834 307 865 307 709C329 727 352 758 360 781 414 816 456 712 309 695ZM802 305C759 362 692 437 633 490L510 491 539 568C549 566 559 561 565 548L688 531C687 560 686 587 681 613L499 613 506 642 675 642C658 701 618 753 523 798 470 736 465 643 466 520 485 517 495 507 497 495L406 486C409 794 429 932 838 944 918 948 962 942 964 911 965 898 960 892 929 883L933 777 920 776C910 814 898 850 889 870 881 885 873 887 835 887 681 886 591 861 539 814 634 781 685 741 714 697 766 729 825 781 848 824 916 855 938 724 725 678 731 666 735 654 739 642L940 642C954 642 963 638 966 627 938 600 891 564 891 564L852 613 746 613C750 592 751 570 753 549 772 546 780 536 782 525L752 522 874 504C886 520 895 537 900 553 961 590 996 461 798 413L787 422C810 438 836 460 858 484L669 489C731 451 798 400 842 360 864 365 879 360 885 349ZM691 243C669 281 646 318 624 345 605 337 579 331 547 329L538 339C576 359 621 399 637 435 682 457 708 397 650 358 676 341 705 319 730 298 750 304 763 296 769 288ZM578 78C559 156 531 236 501 288L516 297C561 258 604 195 637 131 724 129 824 118 888 107 909 116 926 117 935 109L868 42C821 62 738 88 661 105Z"/>
</svg>