<svg xmlns="http://www.w3.org/2000/svg"
    viewBox="0 0 1000 1000">
  <!--
© 2017-2024 Adobe (http://www.adobe.com/).
Noto is a trademark of Google Inc.
This Font Software is licensed under the SIL Open Font License, Version 1.1. This Font Software is distributed on an "AS IS" BASIS, WITHOUT WARRANTIES OR CONDITIONS OF ANY KIND, either express or implied. See the SIL Open Font License for the specific language, permissions and limitations governing your use of this Font Software.
http://scripts.sil.org/OFL
  -->
<path d="M42 457L51 486 356 486C329 552 284 601 237 629L247 645C292 629 334 603 367 566 391 583 414 607 423 629 475 657 506 562 382 549L400 523C421 527 434 520 438 510L387 486 614 486C588 551 543 596 491 621L500 638C546 626 589 604 623 569 657 588 695 617 714 640 766 661 789 569 639 552 646 543 653 533 659 523 679 528 692 520 697 510L644 486 931 486C945 486 955 482 957 471 921 441 866 403 866 403L818 457 534 457 534 404 766 404C780 404 789 399 791 388 763 362 718 331 718 331L679 374 534 374 534 350C553 347 560 339 562 327L518 322C658 259 695 177 709 96L842 96C836 194 824 247 810 261 804 265 796 267 782 267 766 267 721 264 694 262L694 278C719 282 743 289 753 298 764 307 766 325 766 342 799 342 829 334 848 318 882 293 898 230 904 102 923 100 935 96 942 88L869 30 833 67 510 67 519 96 640 96C631 178 597 263 433 335L446 350 472 341 472 457 336 457 336 374C355 371 363 363 364 352L298 345 298 302 491 266 489 248 298 261 298 201 444 201C457 201 467 196 469 185 442 159 399 126 399 126L361 171 298 171 298 111 466 111C479 111 489 106 491 95 462 68 415 32 415 32L374 82 298 82 298 49C320 46 328 37 330 24L235 15 235 82 65 82 73 111 235 111 235 171 99 171 106 201 235 201 235 266C158 271 94 274 54 276L97 354C106 351 114 345 120 332L235 313 235 384 247 384C256 384 266 382 274 379L274 457ZM366 758C389 774 413 799 423 820 474 847 506 755 381 740L398 714C419 719 432 712 437 702L396 682 611 682C583 750 534 797 477 821L487 838C538 825 585 801 622 763 658 782 701 812 721 835 775 856 797 760 636 746 644 736 651 725 658 713 679 719 692 711 697 701L656 682 799 682 799 845 201 845 201 682 352 682C322 749 273 798 222 825L233 842C281 825 329 798 366 758ZM799 508L799 653 201 653 201 545C226 541 235 532 237 519L138 508 138 930 150 930C174 930 201 916 201 908L201 874 799 874 799 925 811 925C835 925 862 911 862 904L862 545C887 541 896 532 898 519Z"/>
</svg>