<svg xmlns="http://www.w3.org/2000/svg" name="gid15138" data-unicode="龗"
    viewBox="0 0 1000 1000">
  <!--
© 2017-2024 Adobe (http://www.adobe.com/).
Noto is a trademark of Google Inc.
This Font Software is licensed under the SIL Open Font License, Version 1.1. This Font Software is distributed on an "AS IS" BASIS, WITHOUT WARRANTIES OR CONDITIONS OF ANY KIND, either express or implied. See the SIL Open Font License for the specific language, permissions and limitations governing your use of this Font Software.
http://scripts.sil.org/OFL
  -->
<path d="M575 274L583 303 809 303C822 303 831 298 834 287 812 268 782 248 773 242L785 242C799 242 807 237 810 226 787 206 757 185 751 181L856 181C848 204 838 230 831 246L845 253C871 239 905 212 924 191 944 190 955 188 962 182L890 112 852 152 529 152 529 121 852 121C866 121 876 116 878 106 846 76 794 39 794 39L749 92 140 92 148 121 465 121 465 152 151 152C149 142 146 131 142 119L125 120C129 160 104 197 73 210 53 219 38 236 45 257 54 280 84 282 107 271 132 259 154 228 153 181L360 181 330 212 187 212 195 242 365 242 335 274 169 274 177 303 403 303C416 303 425 298 427 287 404 266 370 244 368 242L397 242C410 242 419 237 422 226 399 205 365 183 362 181L465 181 465 308 475 308C507 308 529 294 529 290L529 181 746 181 715 212 576 212 584 242 766 242 735 274ZM115 340L115 475 123 475C152 475 172 461 172 456L172 439 282 439 282 459 240 454 240 505 63 505 71 534 150 534C163 551 175 580 175 604L179 607 47 607 55 637 502 637C514 637 524 632 526 621 498 595 455 565 455 565L417 607 349 607C364 594 377 580 388 568 409 568 420 559 424 547L372 534 487 534C501 534 509 529 511 518 484 494 441 462 440 462L402 505 303 505 303 486C320 483 328 475 329 464L307 462C322 458 338 450 339 446L339 372C351 369 362 363 367 358L304 311 275 340 182 340 115 311ZM179 534L334 534C329 557 322 585 316 607L222 607C238 591 236 557 179 534ZM387 340L387 475 396 475C417 475 433 468 440 462 443 460 444 458 444 457L444 439 556 439 556 464 564 464C582 464 613 452 614 446L614 372C626 369 637 363 640 358L578 311 549 340 455 340 387 311ZM114 675L114 960 123 960C149 960 176 947 176 940L176 843 387 843 387 877C387 889 383 894 368 894 350 894 282 890 282 890L282 904C315 909 333 915 345 923 356 932 358 946 360 961 439 954 449 927 449 882L449 716C469 713 486 704 492 697L409 637 377 675 181 675 114 644ZM828 591L828 630 608 630 545 602C562 602 580 596 589 591ZM820 562L596 562 596 531 851 531ZM757 790L838 790 808 826 596 826 596 790ZM778 761L596 761 596 725 826 725 797 761ZM823 659L793 696 596 696 596 659ZM657 340L657 475 665 475C694 475 713 462 713 457L713 439 828 439 828 464 837 464 839 464 806 503 596 503 596 497C617 494 626 485 628 473L534 463 534 886C534 933 550 947 631 947L750 948C918 948 950 940 950 910 950 900 942 893 920 886L917 821 906 821 900 837C882 819 856 797 846 790L862 790C875 790 884 785 886 774 865 754 835 729 830 725L859 725C873 725 881 720 884 709L849 677C867 674 889 665 890 660L890 595C902 592 914 586 919 580L853 531 896 531C909 531 919 526 922 515 900 496 868 473 853 462 869 458 886 450 887 446L887 372C899 369 909 363 913 358L851 311 822 340 724 340 657 311ZM387 773L387 814 176 814 176 773ZM387 743L176 743 176 704 387 704ZM596 855L877 855C887 855 894 853 897 846 891 865 885 880 879 886 874 891 868 893 858 893 843 894 802 895 754 895L641 895C600 895 596 891 596 876ZM172 410L172 369 282 369 282 410ZM444 410L444 369 556 369 556 410ZM713 410L713 369 828 369 828 410Z"/>
</svg>