<svg xmlns="http://www.w3.org/2000/svg"
    viewBox="0 0 1000 1000">
  <!--
© 2017-2024 Adobe (http://www.adobe.com/).
Noto is a trademark of Google Inc.
This Font Software is licensed under the SIL Open Font License, Version 1.1. This Font Software is distributed on an "AS IS" BASIS, WITHOUT WARRANTIES OR CONDITIONS OF ANY KIND, either express or implied. See the SIL Open Font License for the specific language, permissions and limitations governing your use of this Font Software.
http://scripts.sil.org/OFL
  -->
<path d="M124 123L124 378C124 558 117 752 28 910L43 920C180 764 187 544 187 377L187 152 932 152C946 152 956 147 959 136 925 105 870 62 870 62L822 123 554 123 554 49C578 46 588 36 590 22L490 12 490 123 199 123 124 90ZM543 612C529 634 504 669 485 693 459 674 426 655 387 637L376 645C404 672 437 708 466 746L317 783 317 575 496 575 496 615 506 615C526 615 556 602 557 596L557 337C575 334 591 326 597 319L521 261 487 297 402 297C413 274 424 246 431 225 451 224 464 216 466 202L373 188C369 219 361 264 355 297L321 297 257 267 257 797C220 806 190 812 169 816L215 897C224 894 232 885 235 874 339 830 419 792 479 764 503 798 522 832 532 861 590 901 629 807 502 706L580 667C601 671 609 668 613 660ZM496 327L496 420 317 420 317 327ZM317 450L496 450 496 545 317 545ZM636 251L636 926 647 926C675 926 698 910 698 903L698 281 837 281C818 349 789 447 768 500 838 564 869 626 869 692 869 726 862 741 848 750 841 754 835 756 824 756 807 756 766 756 746 756L746 771C769 775 788 780 795 786 804 794 808 814 808 832 901 828 934 791 934 705 934 633 892 563 794 497 830 446 879 349 906 296 928 296 942 293 950 286L876 211 834 251 703 251 636 220Z"/>
</svg>