<svg xmlns="http://www.w3.org/2000/svg"
    viewBox="0 0 1000 1000">
  <!--
© 2017-2024 Adobe (http://www.adobe.com/).
Noto is a trademark of Google Inc.
This Font Software is licensed under the SIL Open Font License, Version 1.1. This Font Software is distributed on an "AS IS" BASIS, WITHOUT WARRANTIES OR CONDITIONS OF ANY KIND, either express or implied. See the SIL Open Font License for the specific language, permissions and limitations governing your use of this Font Software.
http://scripts.sil.org/OFL
  -->
<path d="M528 639L357 639 357 575 528 575ZM589 639L589 575 766 575 766 639ZM528 483L528 546 357 546 357 483ZM589 483L766 483 766 546 589 546ZM216 735L225 764 483 764C445 821 364 870 180 910L190 926C428 889 519 836 559 764L813 764C805 809 791 842 777 851 770 856 760 858 744 858 722 858 644 851 603 848L602 865C642 870 682 878 695 887 711 897 715 913 715 929 753 929 788 920 811 907 843 886 865 837 875 771 896 769 907 764 914 757L843 699 809 735 572 735C580 714 584 692 588 669L766 669 766 697 776 697C797 697 829 682 829 676L829 575 943 575C957 575 966 570 968 559 941 533 898 498 898 498L859 546 829 546 829 489C843 487 856 481 861 474L791 421 758 455 362 455 294 424 294 546 192 546 201 575 294 575 294 707 304 707C329 707 357 692 357 687L357 669 515 669C512 692 507 714 498 735ZM227 308L238 337 428 320 428 346C428 395 443 407 535 407L682 407C885 407 914 399 914 371 914 359 907 353 884 346L880 287 869 287C859 316 849 338 841 347 835 352 829 354 817 355 797 356 745 356 685 356L542 356C494 356 490 354 490 341L490 314 736 292C749 291 760 285 760 274 732 252 689 224 680 218L814 218C801 251 783 292 769 317L783 325C815 300 859 257 884 227 903 226 914 225 921 218L851 150 814 189 525 189 525 129 848 129C862 129 872 124 874 113 841 83 787 42 787 42L741 99 525 99 525 43C548 39 557 30 559 18L460 8 460 189 207 189 131 156 131 412C131 577 125 759 43 907L58 918C187 772 195 564 195 412L195 218 428 218 428 290ZM490 218L673 218 636 272 490 285Z"/>
</svg>