<svg xmlns="http://www.w3.org/2000/svg"
    viewBox="0 0 1000 1000">
  <!--
© 2017-2023 Adobe (http://www.adobe.com/).
Noto is a trademark of Google Inc.
This Font Software is licensed under the SIL Open Font License, Version 1.1. This Font Software is distributed on an "AS IS" BASIS, WITHOUT WARRANTIES OR CONDITIONS OF ANY KIND, either express or implied. See the SIL Open Font License for the specific language, permissions and limitations governing your use of this Font Software.
http://scripts.sil.org/OFL
  -->
<path d="M693 379L683 388C707 408 737 444 746 474 802 509 848 403 693 379ZM797 535L797 666 528 666 528 535ZM292 16C271 59 240 109 203 159 170 116 128 76 74 40L59 54C110 99 147 146 175 195 131 249 82 301 31 342L41 354C97 322 150 283 197 240 211 272 222 304 229 337 191 447 116 569 31 650L42 662C126 607 203 527 247 456 249 489 250 521 250 555 250 666 238 789 210 830 202 841 194 844 177 844 137 844 61 837 61 837L61 854C96 861 121 870 135 880 147 889 153 904 153 928 202 928 237 916 256 889 297 834 311 730 314 623L315 624C367 601 417 575 464 547L464 929 474 929C507 929 528 913 528 908L528 870 797 870 797 920 807 920C828 920 860 905 861 898L861 545C879 542 894 534 901 527L823 467 788 505 538 505 532 503C594 460 651 413 702 364L937 364C952 364 961 359 964 349 931 318 880 277 880 277L833 335 731 335C805 260 866 180 910 105 935 110 945 106 952 96L860 49C842 85 820 123 796 160 766 133 730 105 730 105L686 161 619 161 619 49C641 45 649 36 651 23L554 14 554 161 366 161 374 191 554 191 554 335 325 335 333 364 630 364C588 407 542 448 493 486L464 474 464 509C417 544 367 577 315 605L315 554C313 426 296 308 234 205 280 160 319 114 347 74 369 78 378 74 385 64ZM797 695L797 840 528 840 528 695ZM619 191L775 191C740 240 701 288 657 335L619 335Z"/>
</svg>