<svg xmlns="http://www.w3.org/2000/svg"
    viewBox="0 0 1000 1000">
  <!--
© 2017-2024 Adobe (http://www.adobe.com/).
Noto is a trademark of Google Inc.
This Font Software is licensed under the SIL Open Font License, Version 1.1. This Font Software is distributed on an "AS IS" BASIS, WITHOUT WARRANTIES OR CONDITIONS OF ANY KIND, either express or implied. See the SIL Open Font License for the specific language, permissions and limitations governing your use of this Font Software.
http://scripts.sil.org/OFL
  -->
<path d="M112 70L121 99 357 99C319 190 229 293 42 366L54 381C96 369 134 355 168 341L168 636 179 636C210 636 232 621 232 615L232 568 431 568C388 693 287 809 43 907L55 925C336 829 448 706 496 568L503 568 503 840C503 892 522 907 609 907L742 906C927 906 960 895 960 866 960 852 953 844 931 838L928 701 914 701C902 762 892 815 884 833 880 843 876 846 861 847 844 848 799 848 744 848L618 848C572 848 567 844 567 828L567 568 764 568 764 619 774 619C796 619 829 605 830 598L830 367C849 363 864 355 871 347L791 286 754 326 244 326 220 316C340 254 399 178 433 99L681 99C670 158 651 205 633 217 623 224 614 225 595 225 572 225 485 218 439 214L438 231C482 237 527 246 543 256 559 266 563 281 563 297 604 298 642 289 666 274 704 249 732 185 745 106 765 104 776 100 784 92L712 34 676 70ZM764 539L505 539C522 480 528 418 532 354L764 354ZM440 539L232 539 232 354 463 354C461 417 456 479 440 539Z"/>
</svg>