<svg xmlns="http://www.w3.org/2000/svg" name="gid3265" data-unicode="勉"
    viewBox="0 0 1000 1000">
  <!--
© 2017-2024 Adobe (http://www.adobe.com/).
Noto is a trademark of Google Inc.
This Font Software is licensed under the SIL Open Font License, Version 1.1. This Font Software is distributed on an "AS IS" BASIS, WITHOUT WARRANTIES OR CONDITIONS OF ANY KIND, either express or implied. See the SIL Open Font License for the specific language, permissions and limitations governing your use of this Font Software.
http://scripts.sil.org/OFL
  -->
<path d="M313 58L216 39C182 154 109 295 32 376L45 387C64 372 83 355 101 337L101 600 111 600C141 600 161 583 161 578L161 542 272 542C254 677 197 824 35 951L47 965C249 848 312 685 331 542L347 542 347 856C347 917 372 930 481 930L669 930C922 930 961 922 961 888 961 874 952 867 926 860L924 720 911 720C897 786 886 835 877 855 871 865 866 869 847 871 821 873 755 874 670 874L483 874C415 874 408 868 408 847L408 542 468 542 468 586 477 586C497 586 528 571 529 565L529 334C546 331 561 323 567 316L493 259 459 296 339 296C383 259 428 207 458 173 478 172 490 170 498 164L427 97 387 137 246 137C258 115 268 94 277 73 302 73 310 69 313 58ZM339 422L339 325 468 325 468 512 335 512C338 481 339 450 339 422ZM280 296L173 296 147 285C178 248 206 207 230 166L385 166C366 206 337 257 309 296ZM280 325L280 423C280 452 279 481 276 512L161 512 161 325ZM765 61L666 51C666 123 666 193 664 259L538 259 547 289 663 289C655 494 620 669 467 803L482 820C674 686 715 501 726 289L845 289C838 553 822 694 794 721 785 731 777 733 759 733 741 733 688 729 656 725L655 743C685 748 716 756 727 766 739 776 742 793 742 812 779 812 814 801 839 774 880 731 899 588 906 296 928 294 940 289 947 281L872 219 836 259 727 259C729 204 729 146 730 88 754 85 762 75 765 61Z"/>
</svg>