<svg xmlns="http://www.w3.org/2000/svg"
    viewBox="0 0 1000 1000">
  <!--
© 2017-2024 Adobe (http://www.adobe.com/).
Noto is a trademark of Google Inc.
This Font Software is licensed under the SIL Open Font License, Version 1.1. This Font Software is distributed on an "AS IS" BASIS, WITHOUT WARRANTIES OR CONDITIONS OF ANY KIND, either express or implied. See the SIL Open Font License for the specific language, permissions and limitations governing your use of this Font Software.
http://scripts.sil.org/OFL
  -->
<path d="M394 239L210 239 210 157 394 157ZM460 639L422 685 327 685 327 604 518 604C532 604 542 599 544 588 517 562 474 527 472 526 499 525 521 512 521 508L521 375C539 372 548 367 555 359L486 307 455 343 327 343 327 268 394 268 394 301 406 301C430 301 455 289 455 281L455 157 593 157C606 157 615 152 618 141 590 113 542 75 542 75L502 128 455 128 455 50C481 47 490 38 493 23L394 13 394 128 210 128 210 50C235 46 245 37 247 22L149 12 149 128 34 128 42 157 149 157 149 306 161 306C184 306 210 293 210 286L210 268 267 268 267 343 155 343 83 311 83 537 93 537C124 537 144 524 144 518L144 497 267 497 267 575 54 575 62 604 267 604 267 685 71 685 79 715 267 715 267 801C169 810 87 817 40 819L75 904C84 902 94 895 99 883 293 847 434 816 538 792L536 775 327 795 327 715 505 715C518 715 527 710 530 699 503 672 460 639 460 639ZM761 26L659 15C659 101 660 182 659 260L534 260 543 289 658 289C653 546 621 755 456 911L471 927C677 773 714 554 722 289L854 289C848 619 835 800 804 832 794 842 786 845 767 845 748 845 692 840 657 836L656 854C689 860 722 869 735 880 748 890 750 907 750 929 789 929 828 915 853 885 896 834 911 658 916 297 939 295 951 290 958 281L881 217 843 260 723 260 725 53C749 49 758 40 761 26ZM267 372L267 467 144 467 144 372ZM327 372L458 372 458 467 327 467ZM327 497L458 497 458 526 468 526 470 526 431 575 327 575Z"/>
</svg>