<svg xmlns="http://www.w3.org/2000/svg" name="gid3872" data-unicode="器"
    viewBox="0 0 1000 1000">
  <!--
© 2017-2024 Adobe (http://www.adobe.com/).
Noto is a trademark of Google Inc.
This Font Software is licensed under the SIL Open Font License, Version 1.1. This Font Software is distributed on an "AS IS" BASIS, WITHOUT WARRANTIES OR CONDITIONS OF ANY KIND, either express or implied. See the SIL Open Font License for the specific language, permissions and limitations governing your use of this Font Software.
http://scripts.sil.org/OFL
  -->
<path d="M605 354C635 379 670 419 685 449 745 483 786 373 616 340L616 325 802 325 802 373 811 373C832 373 863 358 864 353L864 145C884 141 901 133 907 125L828 63 792 103 621 103 554 74 554 365 563 365C579 365 595 359 605 354ZM205 377L205 325 381 325 381 357 390 357C406 357 427 349 437 342 418 381 393 421 361 460L44 460 53 489 336 489C264 569 163 643 28 695L36 708C79 695 119 681 156 665L156 964 165 964C191 964 217 950 217 944L217 892 382 892 382 937 392 937C413 937 443 922 444 915L444 690C464 686 480 679 487 671L408 611 372 649 222 649 207 642C296 598 365 545 418 489L584 489C634 549 694 599 781 639L771 649 611 649 544 619 544 959 554 959C580 959 606 945 606 939L606 892 781 892 781 942 791 942C811 942 843 927 844 921L844 691C860 688 873 682 881 676L937 692C942 659 955 635 973 628L975 617C806 597 693 552 613 489L933 489C947 489 956 484 959 473 926 442 872 400 872 400L823 460 443 460C463 436 481 411 495 386 515 388 529 384 534 372L442 337 443 144C462 140 478 132 485 125L406 64 371 103 210 103 144 73 144 398 153 398C179 398 205 383 205 377ZM781 679L781 862 606 862 606 679ZM382 679L382 862 217 862 217 679ZM802 133L802 296 616 296 616 133ZM381 133L381 296 205 296 205 133Z"/>
</svg>