<svg xmlns="http://www.w3.org/2000/svg" name="gid8300" data-unicode="爫"
    viewBox="0 0 1000 1000">
  <!--
© 2017-2024 Adobe (http://www.adobe.com/).
Noto is a trademark of Google Inc.
This Font Software is licensed under the SIL Open Font License, Version 1.1. This Font Software is distributed on an "AS IS" BASIS, WITHOUT WARRANTIES OR CONDITIONS OF ANY KIND, either express or implied. See the SIL Open Font License for the specific language, permissions and limitations governing your use of this Font Software.
http://scripts.sil.org/OFL
  -->
<path d="M866 166L796 94C633 131 332 176 100 198L103 218C343 210 621 186 813 162 837 173 856 174 866 166ZM175 265L163 272C190 310 223 371 228 419 288 471 349 346 175 265ZM417 244L404 250C430 289 458 353 461 403 518 455 581 333 417 244ZM851 254L771 204C729 270 661 365 613 427L637 427C697 377 766 308 809 262 828 268 844 264 851 254Z"/>
</svg>