<svg xmlns="http://www.w3.org/2000/svg" name="gid15233" data-unicode="祉"
    viewBox="0 0 1000 1000">
  <!--
© 2017-2024 Adobe (http://www.adobe.com/).
Noto is a trademark of Google Inc.
This Font Software is licensed under the SIL Open Font License, Version 1.1. This Font Software is distributed on an "AS IS" BASIS, WITHOUT WARRANTIES OR CONDITIONS OF ANY KIND, either express or implied. See the SIL Open Font License for the specific language, permissions and limitations governing your use of this Font Software.
http://scripts.sil.org/OFL
  -->
<path d="M80 421L80 565C80 655 77 771 41 855L57 867C122 782 132 657 133 567L133 455C157 452 164 443 167 430ZM343 420L343 816 353 816C373 816 397 801 397 794L397 454C419 451 428 443 430 430ZM68 118L76 148 407 148C421 148 431 143 433 132 400 102 347 62 347 62L300 118ZM391 893L399 922 942 922C956 922 965 917 968 907 936 875 884 834 884 834L837 893 744 893 744 444 920 444C934 444 943 439 946 428 915 397 865 356 865 356L821 414 744 414 744 96C769 92 778 82 780 68L680 56 680 893 564 893 564 311C588 307 598 297 600 283L502 272 502 893ZM41 304L49 333 208 333 208 958 218 958C249 958 270 941 270 936L270 333 432 333C446 333 455 328 458 317 426 287 373 245 373 245L328 304Z"/>
</svg>