<svg xmlns="http://www.w3.org/2000/svg"
    viewBox="0 0 1000 1000">
  <!--
© 2017-2024 Adobe (http://www.adobe.com/).
Noto is a trademark of Google Inc.
This Font Software is licensed under the SIL Open Font License, Version 1.1. This Font Software is distributed on an "AS IS" BASIS, WITHOUT WARRANTIES OR CONDITIONS OF ANY KIND, either express or implied. See the SIL Open Font License for the specific language, permissions and limitations governing your use of this Font Software.
http://scripts.sil.org/OFL
  -->
<path d="M241 206L237 218C263 228 289 252 299 270 331 298 360 258 336 232 316 212 281 205 241 206ZM317 754C264 802 157 865 67 900L77 915C177 891 292 847 353 808 374 815 382 812 390 803ZM612 764L608 781C724 818 815 879 852 919 921 943 938 798 612 764ZM37 281L44 310 123 310 94 450C122 457 137 456 152 448L159 416 391 416C387 428 382 436 377 440 369 447 363 449 349 449 332 449 296 446 273 444L273 462C293 465 312 469 321 476 330 483 333 492 333 505 361 505 390 502 411 484 425 472 437 451 447 416L546 416C559 416 569 412 571 401 548 376 510 346 510 346L478 387 454 387C458 365 462 340 465 310L553 310C566 310 575 305 577 294 554 271 517 241 517 241L485 281 467 281 472 208C491 205 504 201 509 193L442 139 412 173 216 173 154 145 129 281ZM231 315L226 327C254 339 279 364 289 383L294 387 165 387 179 310 412 310C409 342 404 367 400 387L328 387C337 378 339 360 327 346 307 326 271 317 231 315ZM184 281L198 203 421 203 415 281ZM622 508C568 557 471 628 388 681 251 682 139 682 68 681L110 756C120 755 129 748 136 736L463 720 463 928 474 928C506 928 528 914 528 910L528 716C641 710 735 704 812 699 837 718 858 738 871 757 944 783 949 640 681 603L672 615C706 630 745 651 781 676L440 680C522 642 607 594 657 558 679 565 687 563 695 554ZM430 473C409 502 372 542 338 574 306 555 255 541 182 539L174 551C232 573 311 618 345 657 386 668 403 627 360 590 401 568 447 543 473 524 489 528 501 527 507 519ZM635 12C614 99 574 181 532 232L547 243C570 227 592 206 612 182 633 247 658 306 692 356 644 408 580 453 500 489L508 505C593 476 663 438 719 391 766 446 829 490 915 521 921 493 938 478 961 472L964 463C875 440 807 405 754 359 807 305 844 241 868 163L932 163C946 163 956 158 958 148 928 119 881 82 881 82L839 134 648 134C663 111 676 86 688 59 709 60 720 52 724 41ZM719 324C679 278 650 225 627 164L797 163C781 223 755 276 719 324ZM175 8C147 86 100 154 56 195L69 208C106 187 144 156 177 117L514 117C528 117 537 112 539 101 512 75 467 38 467 38L428 88 200 88 222 55C245 56 255 47 259 37Z"/>
</svg>