<svg xmlns="http://www.w3.org/2000/svg" name="gid15254" data-unicode="謁"
    viewBox="0 0 1000 1000">
  <!--
© 2017-2024 Adobe (http://www.adobe.com/).
Noto is a trademark of Google Inc.
This Font Software is licensed under the SIL Open Font License, Version 1.1. This Font Software is distributed on an "AS IS" BASIS, WITHOUT WARRANTIES OR CONDITIONS OF ANY KIND, either express or implied. See the SIL Open Font License for the specific language, permissions and limitations governing your use of this Font Software.
http://scripts.sil.org/OFL
  -->
<path d="M79 111L87 139 352 139C366 139 375 134 378 123 348 95 300 57 300 57L257 111ZM82 363L90 392 359 392C373 392 382 387 384 377 357 350 312 314 312 314L273 363ZM82 491L90 520 359 520C373 520 382 515 384 505 357 477 312 441 312 441L273 491ZM35 236L43 265 408 265C422 265 432 260 434 249 403 221 354 182 354 182L312 236ZM819 122L819 228 534 228 534 122ZM471 93L471 447 482 447C507 447 534 433 534 427L534 397 819 397 819 443 829 443C851 443 883 427 884 421L884 133C903 129 919 121 925 114L846 53 810 93 539 93 471 62ZM534 257L819 257 819 368 534 368ZM660 549C642 619 597 706 535 757L545 771C594 746 634 708 665 668 698 690 732 722 743 753 749 756 756 758 761 758L726 801 529 801 529 619C553 615 562 606 565 592L507 586 542 547 875 547C866 744 848 845 823 868 816 876 808 878 792 878 774 878 726 874 698 872L697 890C724 894 751 901 761 910 773 920 776 938 775 956 810 956 842 947 867 924 906 888 928 781 937 554 957 551 968 547 975 539L901 478 866 517 566 517C583 495 597 473 609 453 633 456 642 452 647 442L555 399C523 485 453 601 373 675L384 688C415 669 445 645 472 620L472 885 484 885C504 885 529 873 529 866L529 831 812 831C824 831 834 826 836 815 813 790 775 761 769 757 804 747 802 673 677 652 690 633 701 614 710 596 733 598 741 592 746 582ZM298 649L298 838 145 838 145 649ZM84 620L84 958 94 958C119 958 145 943 145 937L145 867 298 867 298 922 307 922C328 922 359 907 360 901L360 660C379 656 394 648 401 641L323 581 289 620 150 620 84 589Z"/>
</svg>